<svg xmlns="http://www.w3.org/2000/svg" fill="none" viewBox="0 0 89 19"><rect width="88.278" height="18.911" fill="#01748c" rx="9.456"/><path fill="#fff" d="M12.767 10.116v2.135c0 .088-.02.146-.049.166-.029.029-.088.039-.165.039h-.527c-.088 0-.146-.01-.175-.04-.03-.019-.04-.077-.04-.165v-5.79q0-.16.06-.234a.4.4 0 0 1 .204-.087c.39-.049.867-.078 1.433-.078q1.24 0 1.793.438c.37.293.556.79.556 1.472v.156c0 1.335-.77 1.998-2.31 1.998-.36 0-.624 0-.78-.01m.146-3.255c-.097.01-.146.068-.146.185v2.3c.136.01.341.01.614.01q.819 0 1.17-.263c.233-.175.35-.507.35-.984v-.117c0-.42-.107-.722-.311-.897-.215-.176-.566-.263-1.063-.263q-.365 0-.614.029m6.607 3.11c0-.566-.059-.966-.156-1.2-.137-.302-.439-.458-.897-.458-.468 0-.76.156-.897.458-.107.234-.156.634-.156 1.2v.194q-.002.863.156 1.199c.137.312.43.458.897.458.458 0 .76-.146.897-.458.097-.224.156-.624.156-1.199V9.97m.916-.069v.331c0 .887-.166 1.492-.488 1.813-.33.332-.828.497-1.481.497-.663 0-1.15-.165-1.482-.497-.33-.321-.487-.926-.487-1.813v-.331c0-.877.156-1.481.487-1.813.332-.331.82-.497 1.482-.497.653 0 1.15.166 1.482.497.321.332.487.936.487 1.813m2.946 1.9c.41 0 .702-.097.868-.301.156-.205.243-.634.243-1.277v-.312c0-.585-.078-.985-.234-1.219q-.233-.35-.848-.35c-.35 0-.623.087-.799.263q-.263.262-.263.906v1.258q0 .614.234.818c.156.146.419.215.8.215m-1.033-5.77v1.98h.02c.253-.274.662-.42 1.218-.42.633 0 1.092.185 1.384.546q.439.54.439 1.725v.39c0 .838-.166 1.423-.498 1.774-.331.35-.848.516-1.56.516-.652 0-1.13-.117-1.442-.37-.311-.244-.458-.682-.458-1.325V6.033c0-.117.059-.176.195-.176h.507c.068 0 .117.02.146.04.03.028.049.077.049.136m5.056 1.823v4.425c0 .069-.02.117-.048.137-.03.029-.078.039-.147.039h-.507c-.136 0-.194-.059-.194-.176V7.855c0-.117.058-.175.194-.175h.507c.069 0 .117.02.147.039.029.029.048.078.048.136m-1.033-1.364v-.069c0-.185.049-.321.156-.419q.146-.146.41-.146h.048c.37 0 .556.195.556.565v.069c0 .38-.185.565-.556.565h-.049c-.175 0-.311-.04-.409-.137-.107-.097-.156-.233-.156-.428m5.842 3.05v.702c0 .195-.097.283-.273.283h-2.514c.01.487.097.819.253 1.004s.468.273.936.273c.37 0 .72-.059 1.033-.186.078-.019.127-.039.156-.039.049 0 .087.04.117.108l.068.234c.03.117.049.185.049.204q0 .088-.117.146c-.4.186-.868.273-1.413.273-.751 0-1.268-.175-1.56-.526q-.439-.525-.439-1.784v-.331q0-1.187.439-1.745c.292-.37.78-.565 1.472-.565q.892 0 1.345.468c.292.312.448.809.448 1.481m-2.797.254h1.803c.078 0 .127-.04.127-.137q0-.716-.205-1.023c-.136-.195-.38-.302-.74-.302-.39 0-.654.117-.79.34-.137.225-.195.595-.195 1.122m4.52-1.97.05.479h.02c.126-.215.282-.38.467-.478.175-.098.429-.146.74-.146h.196c.078 0 .126.02.156.039.029.029.048.078.048.136v.429c0 .117-.068.166-.204.166h-.215c-.4 0-.672.097-.828.273q-.217.263-.215.848v2.71c0 .067-.02.116-.049.136-.029.029-.077.039-.146.039h-.507c-.136 0-.194-.059-.194-.176V7.826c0-.098.048-.146.155-.146h.342c.117 0 .175.048.185.146m5.643 4.046v.419c0 .117-.058.166-.165.166h-3.022c-.146 0-.214-.059-.214-.176v-.195c0-.117.058-.273.195-.477L38.41 8.44h-1.96c-.116 0-.165-.049-.165-.166v-.419c0-.058.01-.107.03-.136.019-.02.058-.04.136-.04h2.943c.098 0 .156.06.156.157v.195c0 .117-.087.312-.253.565l-2.018 3.1h2.135c.107 0 .165.058.165.175m5.818.448-.039-.282h-.02c-.165.34-.555.506-1.169.506h-.302c-.965 0-1.443-.467-1.443-1.403v-.156c0-.526.156-.916.468-1.15.254-.205.76-.312 1.501-.312h.234c.215 0 .42.01.595.03v-.41c0-.302-.078-.507-.224-.624-.156-.117-.4-.175-.741-.175-.332 0-.683.048-1.063.146a1 1 0 0 1-.204.039c-.069 0-.108-.04-.127-.137l-.039-.185a1.3 1.3 0 0 1-.039-.253c0-.069.039-.117.136-.147a4.7 4.7 0 0 1 1.414-.214c.624 0 1.082.127 1.364.37.273.254.42.683.42 1.287v3.07c0 .098-.06.137-.157.137h-.38c-.107 0-.165-.04-.185-.137m-.175-1.335v-.702a4 4 0 0 0-.527-.03h-.428c-.351 0-.595.06-.732.157q-.204.16-.204.585v.136c0 .253.048.429.156.526.097.108.273.156.526.156h.322c.292 0 .516-.058.663-.194.146-.137.224-.342.224-.634m2.988 1.17v1.851c0 .069-.02.117-.049.137-.029.03-.078.039-.146.039h-.507c-.136 0-.195-.059-.195-.176v-6.16c0-.107.049-.165.156-.165h.341q.147.002.176.136l.058.312h.02c.302-.35.78-.536 1.423-.536.624 0 1.072.166 1.364.497.283.332.43.907.43 1.725v.439c0 .79-.147 1.364-.42 1.735-.283.37-.76.555-1.443.555-.545 0-.945-.126-1.198-.39zm1.072-3.811c-.4 0-.682.087-.838.253-.156.175-.234.448-.234.828v1.326c0 .37.088.643.263.809s.448.244.819.244c.41 0 .692-.108.848-.342.146-.233.224-.643.224-1.237v-.322c0-.585-.078-.994-.224-1.218-.156-.225-.439-.341-.858-.341m3.935-2.31v5.136c0 .195.02.332.078.41q.073.116.322.116h.243c.059 0 .098.02.127.04.02.019.039.068.039.126v.42c0 .116-.059.175-.156.175h-.42q-.613 0-.876-.263c-.176-.176-.254-.468-.254-.887V6.033c0-.117.059-.176.195-.176h.507c.068 0 .117.02.146.04.03.028.049.077.049.136m2.666 1.822v4.425c0 .069-.02.117-.048.137-.03.029-.078.039-.147.039h-.506c-.137 0-.195-.059-.195-.176V7.855c0-.117.058-.175.195-.175h.506c.069 0 .117.02.147.039.029.029.048.078.048.136m-1.033-1.364v-.069c0-.185.049-.321.156-.419q.146-.146.41-.146h.048c.37 0 .556.195.556.565v.069c0 .38-.185.565-.556.565h-.049c-.175 0-.311-.04-.409-.137-.107-.097-.156-.233-.156-.428m3.25 3.83v1.96c0 .067-.02.116-.05.136-.028.029-.077.039-.145.039h-.507c-.137 0-.195-.059-.195-.176V6.033c0-.117.058-.176.195-.176h.507c.068 0 .117.02.146.04.029.028.048.077.048.136v3.499h.37c.079 0 .137-.03.186-.108l1.063-1.608c.058-.088.146-.136.272-.136h.566c.156 0 .195.068.117.195l-1.355 1.959a.2.2 0 0 0-.04.097c0 .04.01.078.04.108l1.286 2.037c.098.165.156.263.156.292q-.002.087-.136.088h-.575q-.192 0-.283-.146l-1.16-1.901a.19.19 0 0 0-.165-.088zm6.144 1.998-.04-.282h-.019c-.166.34-.556.506-1.17.506h-.302c-.965 0-1.442-.467-1.442-1.403v-.156c0-.526.156-.916.468-1.15.253-.205.76-.312 1.5-.312h.235c.214 0 .419.01.594.03v-.41c0-.302-.078-.507-.224-.624q-.232-.175-.74-.175c-.332 0-.683.048-1.063.146a1 1 0 0 1-.205.039c-.068 0-.107-.04-.127-.137l-.039-.185a1.3 1.3 0 0 1-.039-.253c0-.069.04-.117.137-.147a4.7 4.7 0 0 1 1.413-.214c.624 0 1.082.127 1.365.37.273.254.419.683.419 1.287v3.07c0 .098-.059.137-.156.137h-.38c-.108 0-.166-.04-.185-.137m-.176-1.335v-.702a4 4 0 0 0-.526-.03h-.43c-.35 0-.594.06-.73.157q-.205.16-.205.585v.136c0 .253.049.429.156.526.098.108.273.156.526.156h.322c.293 0 .517-.058.663-.194.146-.137.224-.342.224-.634m5.162.721.058.205c.03.107.05.185.05.224 0 .078-.05.127-.147.166-.37.165-.81.243-1.316.243-.643 0-1.111-.136-1.394-.419-.36-.331-.536-.974-.536-1.91v-.312c0-.497.04-.877.117-1.15a1.5 1.5 0 0 1 .4-.673c.34-.321.828-.487 1.462-.487.565 0 1.043.136 1.452.41.059.038.088.087.088.126s-.04.117-.098.234l-.136.253c-.04.069-.078.098-.117.098a.2.2 0 0 1-.117-.04c-.35-.214-.692-.32-1.043-.32-.35 0-.604.077-.78.233a.76.76 0 0 0-.224.37 1.4 1.4 0 0 0-.078.41c-.01.117-.01.322-.01.614v.156c0 .692.078 1.14.244 1.345q.26.322.887.322.497 0 .965-.176c.058-.02.107-.039.146-.039.059 0 .098.04.127.117m2.083-3.85V12.3c0 .633-.107 1.082-.302 1.354-.253.361-.721.537-1.404.537h-.302c-.117 0-.165-.05-.165-.156v-.468c0-.098.048-.156.146-.156h.224q.568 0 .74-.263c.108-.176.166-.488.166-.946V7.855c0-.117.059-.175.195-.175h.507c.068 0 .117.02.146.039.03.029.05.078.05.136m-1.033-1.364v-.069c0-.185.049-.321.156-.419q.146-.146.41-.146h.048c.37 0 .556.195.556.565v.069c0 .38-.186.565-.556.565h-.049c-.175 0-.312-.04-.41-.137-.106-.097-.155-.233-.155-.428m5.851 3.04v.712c0 .195-.097.283-.273.283h-2.515c.01.487.098.819.254 1.004s.468.273.936.273c.37 0 .72-.059 1.033-.186.078-.019.126-.039.156-.039.048 0 .087.04.117.108l.068.234c.02.087.039.146.039.185q0 .087-.117.146c-.331.195-.575.39-.721.575-.147.195-.215.4-.215.634 0 .243.117.36.36.36q.22 0 .469-.088a1 1 0 0 1 .097-.029q.061 0 .078.088l.04.175c.019.078.028.137.028.166q0 .073-.117.117a2 2 0 0 1-.72.146c-.664 0-.985-.253-.985-.77q0-.658.701-1.11a3 3 0 0 1-.419.028c-.75 0-1.267-.175-1.56-.526q-.438-.525-.438-1.784v-.331q0-1.187.439-1.745c.292-.37.78-.565 1.481-.565.595 0 1.043.156 1.336.458.292.312.448.8.448 1.482m-2.797.264h1.803c.078 0 .127-.04.127-.137q0-.716-.205-1.023c-.137-.195-.38-.302-.74-.302-.39 0-.654.117-.79.34-.137.225-.195.595-.195 1.122"/></svg>