<svg xmlns="http://www.w3.org/2000/svg" fill="none" viewBox="0 0 226 37"><path fill="#fff" d="M5.12 20.315H1.316c-.24 0-.407-.024-.503-.12-.095-.095-.12-.287-.12-.574v-1.65c0-.288.025-.455.12-.55q.144-.144.503-.144h8.087c.239 0 .406.047.526.143.096.096.168.287.168.55v.455c0 .622-.192 1.196-.527 1.699l-4.115 5.838h4.091c.24 0 .383.047.479.143s.143.263.143.55v1.651q0 .431-.143.574c-.096.096-.24.12-.479.12h-8.23c-.503 0-.742-.215-.742-.694v-.55c0-.622.168-1.172.527-1.699zm13.575 7.704h-.047c-.527.814-1.58 1.196-3.135 1.196h-.359c-1.22 0-2.177-.31-2.847-.933-.694-.622-1.029-1.555-1.029-2.751v-.263c0-1.292.36-2.225 1.101-2.752.742-.526 1.938-.79 3.613-.79h.167c.622 0 1.197.049 1.675.096v-.502c0-.502-.143-.861-.407-1.053-.287-.167-.765-.263-1.435-.263-.814 0-1.723.144-2.776.407-.287.072-.502.072-.598 0-.12-.072-.191-.216-.215-.455l-.191-1.268c-.048-.215-.048-.383-.048-.478 0-.287.191-.503.574-.622a15.4 15.4 0 0 1 4.091-.527c1.842 0 3.158.407 3.924 1.173.598.622.91 1.626.91 2.99v7.106c0 .24-.073.43-.192.526s-.335.144-.622.144h-1.125c-.287 0-.478-.024-.598-.096s-.215-.215-.287-.454zm-.861-3.062v-.67q-.395-.072-1.148-.072h-.264q-.86 0-1.22.215c-.239.144-.335.43-.335.862v.095c0 .43.096.718.335.862.216.167.55.239 1.005.239h.168c.478 0 .837-.12 1.124-.359.215-.191.335-.598.335-1.172M44.62 17.78v2.66c0 2.874-.612 5.075-1.804 6.573-1.223 1.528-3.24 2.262-6.053 2.262s-4.83-.734-6.053-2.262c-1.223-1.498-1.804-3.7-1.804-6.573v-2.66c0-2.873.58-5.044 1.804-6.572 1.223-1.498 3.24-2.263 6.053-2.263s4.83.765 6.053 2.263c1.192 1.528 1.804 3.699 1.804 6.572m-5.228 2.14V18.3c0-1.987-.183-3.363-.49-4.097-.305-.733-1.008-1.13-2.078-1.13h-.122c-1.1.03-1.804.397-2.11 1.13-.305.734-.458 2.11-.458 4.097v1.62c0 2.018.153 3.363.458 4.097s1.01 1.131 2.11 1.131h.122c1.07 0 1.773-.367 2.079-1.1s.489-2.11.489-4.128m19.409-2.017h-4.86c-.307 0-.52-.03-.643-.153-.122-.122-.153-.367-.153-.734v-2.11c0-.366.03-.58.153-.703q.183-.183.642-.183h10.333c.306 0 .52.061.673.184.122.122.214.366.214.703v.58c0 .795-.245 1.53-.673 2.171l-5.258 7.46h5.228c.305 0 .489.06.611.183.122.122.183.336.183.703v2.11q0 .549-.183.733c-.122.122-.306.153-.611.153H53.94c-.642 0-.948-.275-.948-.887v-.703c0-.795.214-1.498.673-2.17zm14.87 7.123h.978c.306 0 .55.091.673.214.122.153.214.428.214.825v1.896c0 .428-.092.703-.214.825-.123.153-.367.214-.673.214h-2.323c-1.529 0-2.599-.275-3.21-.887-.612-.58-.917-1.62-.917-3.087v-3.302l-1.01.642c-.397.245-.672.367-.794.367-.245 0-.336-.184-.336-.55V19.34c0-.306.03-.52.153-.673.091-.122.275-.306.58-.52l1.407-.886V9.19c0-.306.06-.52.214-.673.153-.122.428-.214.825-.214h2.813c.367 0 .642.092.794.214.153.153.245.367.245.673v4.952l1.376-.886c.367-.245.642-.367.795-.367.214 0 .336.183.336.55v2.843c0 .306-.061.55-.153.673a2.5 2.5 0 0 1-.58.52l-1.774 1.13v5.84c0 .244.03.397.122.459.061.091.214.122.459.122m12.557-3.323v3.062c0 .55.096.933.335 1.149.192.215.55.31 1.077.31h.215c.55 0 .933-.143 1.172-.478q.288-.43.288-2.081v-1.03c0-1.195-.12-1.937-.311-2.176-.216-.24-.623-.383-1.197-.383h-.095c-.55 0-.933.12-1.173.359-.215.215-.31.646-.31 1.268m0-3.996h.048q1.04-.646 2.728-.646h.215c1.435 0 2.488.43 3.134 1.292.526.742.814 2.058.814 3.948v1.723c0 1.914-.407 3.253-1.22 3.995-.862.814-2.226 1.196-4.092 1.196h-.478c-1.962 0-3.302-.383-4.02-1.172-.646-.694-.957-1.818-.957-3.397v-11.15c0-.239.048-.406.168-.526.095-.096.31-.167.622-.167h2.225c.287 0 .502.071.622.167.12.12.191.287.191.526zm14.694 8.422h.263c.813 0 1.675-.096 2.536-.311.239-.048.383-.072.454-.072.24 0 .383.144.431.407l.191 1.196c.048.335.096.55.096.646 0 .287-.215.503-.622.646-1.1.383-2.321.574-3.613.574h-.454q-2.943 0-4.163-1.22a3.43 3.43 0 0 1-.957-1.627c-.168-.622-.24-1.46-.24-2.488v-1.34c0-2.081.479-3.54 1.436-4.402.814-.718 2.058-1.077 3.756-1.077h.335c1.675 0 2.895.407 3.613 1.197.766.86 1.148 2.273 1.148 4.282v1.244c0 .455-.239.67-.693.67h-5.742v.192c0 .574.143.957.478 1.172.311.215.885.311 1.747.311m-2.225-4.163h2.631c.192 0 .287-.096.287-.311v-.383c0-.478-.095-.837-.239-1.1-.191-.288-.574-.431-1.1-.431h-.216c-.478 0-.813.12-1.005.335q-.359.43-.359 1.292zm12.369-1.65h-3.804c-.239 0-.406-.025-.502-.12-.096-.096-.12-.288-.12-.575v-1.65c0-.288.024-.455.12-.55q.144-.144.502-.144h8.087c.239 0 .407.047.526.143.096.096.168.287.168.55v.455a3.04 3.04 0 0 1-.526 1.699l-4.116 5.838h4.092c.239 0 .382.047.478.143s.144.263.144.55v1.651q0 .431-.144.574c-.096.096-.239.12-.478.12h-8.231c-.502 0-.741-.215-.741-.694v-.55c0-.622.167-1.172.526-1.699zm17.973-2.465h2.058c.335 0 .574.048.694.143.119.096.215.288.263.575 0 .095.43 2.225 1.268 6.364h.072c.43-2.512.813-4.833 1.124-6.986.024-.264.096-.431.191-.527q.144-.144.503-.143h2.44c.263 0 .431.071.527.167.071.12.095.311.047.55-.382 1.866-.861 3.924-1.387 6.173-.527 2.25-.909 3.66-1.149 4.259-.095.239-.215.407-.335.478-.119.072-.311.096-.55.096h-2.632c-.502 0-.813-.168-.909-.55-.454-1.627-.837-3.685-1.172-6.173h-.096a66 66 0 0 1-1.196 6.173c-.096.383-.383.55-.861.55h-2.584c-.479 0-.79-.168-.909-.526-.24-.646-.646-2.13-1.221-4.427a110 110 0 0 1-1.339-6.053c-.072-.263-.048-.454.047-.55.096-.096.287-.167.575-.167h2.344c.24 0 .431.047.551.143.095.096.167.287.215.526.335 2.226.718 4.546 1.172 6.987h.096c.574-2.967.981-5.096 1.172-6.364.048-.311.12-.503.239-.599.12-.071.359-.12.742-.12m17.332 10.168h-.048c-.526.814-1.579 1.196-3.134 1.196h-.359c-1.22 0-2.177-.31-2.847-.933-.694-.622-1.029-1.555-1.029-2.751v-.263c0-1.292.359-2.225 1.101-2.752.741-.526 1.937-.79 3.612-.79h.168c.622 0 1.196.049 1.674.096v-.502c0-.502-.143-.861-.406-1.053-.287-.167-.766-.263-1.436-.263-.813 0-1.722.144-2.775.407-.287.072-.503.072-.598 0-.12-.072-.192-.216-.216-.455l-.191-1.268c-.048-.215-.048-.383-.048-.478 0-.287.192-.503.574-.622a15.4 15.4 0 0 1 4.092-.527c1.842 0 3.158.407 3.923 1.173.599.622.91 1.626.91 2.99v7.106c0 .24-.072.43-.192.526-.119.096-.335.144-.622.144H147.4c-.288 0-.479-.024-.599-.096-.119-.072-.215-.215-.287-.454zm-.862-3.062v-.67q-.394-.072-1.148-.072h-.263q-.861 0-1.22.215c-.24.144-.335.43-.335.862v.095c0 .43.095.718.335.862.215.167.55.239 1.005.239h.167c.479 0 .837-.12 1.125-.359.215-.191.334-.598.334-1.172m9.112-6.388h.071c.527-.862 1.412-1.292 2.68-1.292h.957c.239 0 .431.047.526.143s.168.263.168.526v1.747c0 .263-.048.43-.144.526q-.143.144-.502.144h-.718c-.885 0-1.483.168-1.818.502-.287.288-.407.838-.407 1.651v5.79c0 .24-.072.43-.191.526-.12.12-.335.168-.622.168h-2.202c-.311 0-.526-.048-.646-.168-.119-.095-.167-.287-.167-.526v-10.36c0-.239.048-.406.167-.502s.335-.167.646-.167h1.149c.263 0 .454.047.574.12q.18.143.287.43zm12.109 6.148V17.97c0-.239.048-.406.168-.526.119-.096.335-.167.646-.167h2.201c.287 0 .502.071.622.167.119.12.191.287.191.526v7.082q0 2.19-1.077 3.159c-.765.67-2.105 1.004-4.067 1.004s-3.325-.335-4.067-1.005q-1.077-.968-1.077-3.158V17.97c0-.239.048-.406.168-.526.119-.096.335-.167.646-.167h2.201c.287 0 .502.071.622.167.12.12.191.287.191.526v6.747c0 .55.072.91.263 1.1.192.216.527.312 1.053.312.503 0 .862-.096 1.053-.311.167-.192.263-.55.263-1.1m12.407-7.656h.192c1.387 0 2.416.335 3.038.981.574.622.885 1.675.885 3.158v7.106c0 .24-.071.43-.191.526-.12.12-.335.168-.622.168h-2.201c-.311 0-.527-.048-.646-.168-.12-.095-.168-.287-.168-.526v-6.77c0-.527-.095-.91-.263-1.101-.191-.192-.55-.311-1.053-.311h-.143c-.526 0-.861.12-1.053.31-.191.192-.263.575-.263 1.101v6.771c0 .24-.072.43-.191.526-.12.12-.335.168-.622.168h-2.202c-.311 0-.526-.048-.646-.168-.119-.095-.167-.287-.167-.526v-10.36c0-.239.048-.406.167-.502s.335-.167.646-.167h1.125c.287 0 .478.047.598.12q.18.107.287.43l.144.454h.071c.766-.813 1.843-1.22 3.278-1.22m10.222 7.297v3.948c0 .24-.072.43-.191.526-.12.12-.335.168-.622.168h-2.201c-.311 0-.527-.048-.646-.168-.12-.095-.168-.287-.168-.526v-14.81c0-.239.048-.406.168-.526.119-.096.335-.167.646-.167h2.201c.287 0 .502.071.622.167.119.12.191.287.191.526v7.8h.168l2.273-3.47c.215-.358.55-.55 1.005-.55h2.775c.263 0 .407.096.407.288 0 .095-.072.263-.192.454l-2.751 4.115c-.216.335-.311.575-.311.718 0 .168.095.407.311.718l2.943 4.642c.095.19.143.31.143.406 0 .263-.167.383-.502.383h-2.656c-.335 0-.598-.024-.742-.12q-.215-.107-.43-.502l-2.273-4.02zm11.277-2.153v1.866c0 .933.143 1.532.431 1.819.215.239.55.335 1.004.335h.096c.431 0 .766-.096 1.005-.335.287-.287.431-.886.431-1.819v-1.866c0-.909-.144-1.531-.431-1.818-.239-.215-.574-.335-1.005-.335h-.096c-.454 0-.789.12-1.004.335-.288.287-.431.91-.431 1.818m6.819.144v1.555c0 1.196-.12 2.105-.359 2.775a3.4 3.4 0 0 1-1.149 1.603c-.789.622-2.009.933-3.684.933h-.287c-1.675 0-2.919-.31-3.685-.933a3.42 3.42 0 0 1-1.148-1.603c-.239-.67-.359-1.579-.359-2.775v-1.531c0-1.173.12-2.082.359-2.752a3.6 3.6 0 0 1 1.148-1.627c.766-.622 2.01-.933 3.685-.933h.287c1.675 0 2.895.311 3.684.933.527.431.91.957 1.149 1.603.239.67.359 1.58.359 2.752m-7.298-8.23 3.757-3.206a.67.67 0 0 1 .454-.216c.168 0 .335.12.479.311l1.148 1.484c.096.143.144.263.144.406 0 .192-.144.383-.383.575l-3.78 2.583a.83.83 0 0 1-.479.168c-.191 0-.383-.096-.574-.335l-.718-.837c-.191-.216-.263-.407-.263-.55a.46.46 0 0 1 .215-.384m15.471 3.732h2.058c.335 0 .574.048.694.143.119.096.215.288.263.575 0 .095.43 2.225 1.268 6.364h.072c.43-2.512.813-4.833 1.124-6.986.024-.264.096-.431.191-.527q.144-.144.503-.143h2.44c.263 0 .431.071.527.167.071.12.095.311.047.55-.382 1.866-.861 3.924-1.387 6.173-.527 2.25-.909 3.66-1.149 4.259-.095.239-.215.407-.335.478-.119.072-.311.096-.55.096h-2.632c-.502 0-.813-.168-.909-.55-.454-1.627-.837-3.685-1.172-6.173h-.096a66 66 0 0 1-1.196 6.173c-.096.383-.383.55-.861.55h-2.584c-.479 0-.79-.168-.91-.526-.239-.646-.646-2.13-1.22-4.427a112 112 0 0 1-1.34-6.053c-.071-.263-.047-.454.048-.55.096-.096.287-.167.575-.167h2.344c.239 0 .431.047.55.143.096.096.168.287.216.526.335 2.226.718 4.546 1.172 6.987h.096c.574-2.967.981-5.096 1.172-6.364.048-.311.12-.503.239-.599.12-.071.359-.12.742-.12"/></svg>