<svg xmlns="http://www.w3.org/2000/svg" fill="none" viewBox="0 0 233 29"><path fill="#fff" d="M10.025 15.703v-.885c0-1.938-.24-3.135-.67-3.59q-.575-.573-1.58-.573h-.334q-1.004 0-1.58.574c-.454.454-.67 1.65-.67 3.589v.885c0 1.962.216 3.158.67 3.589q.576.574 1.58.574h.335q1.005 0 1.579-.574c.43-.431.67-1.627.67-3.59m4.09-1.364v1.842c0 2.895-.669 4.857-2.009 5.91-.957.765-2.44 1.124-4.402 1.124h-.191c-1.986 0-3.446-.359-4.403-1.124-1.34-1.053-2.01-3.015-2.01-5.91V14.34c0-2.871.67-4.857 2.01-5.91.957-.741 2.417-1.124 4.403-1.124h.19c1.963 0 3.446.383 4.403 1.125 1.34 1.052 2.01 3.038 2.01 5.91m9.991 6.412v1.364c0 .359-.072.598-.168.718-.095.12-.31.167-.598.167h-1.914c-1.722 0-2.87-.287-3.397-.885-.479-.503-.694-1.46-.694-2.895v-4.953h-1.292c-.239 0-.383-.024-.478-.12-.096-.095-.12-.239-.12-.478v-1.22c0-.287.024-.479.12-.574.072-.096.239-.168.502-.24l1.268-.31V8.98c0-.24.048-.407.168-.527.12-.095.335-.167.646-.167h2.2c.288 0 .503.072.623.167.12.12.191.288.191.527v2.297h1.986c.24 0 .383.048.479.143.095.096.143.263.143.55v1.603q0 .43-.143.575c-.096.095-.24.12-.479.12h-1.986v4.521c0 .43.048.694.192.837.143.168.454.24.933.24h1.052c.288 0 .503.072.599.191s.167.36.167.694m7.935-8.9H34.1c.335 0 .574.048.694.143.12.096.215.287.263.575 0 .095.43 2.225 1.268 6.364h.072c.43-2.512.813-4.833 1.124-6.986.024-.264.096-.431.192-.527q.143-.143.502-.143h2.44c.264 0 .431.071.527.167.072.12.096.311.048.55-.383 1.867-.862 3.924-1.388 6.173s-.91 3.66-1.148 4.259c-.096.239-.216.407-.335.478s-.311.096-.55.096h-2.632c-.503 0-.814-.168-.91-.55-.454-1.627-.837-3.685-1.172-6.173h-.096a66 66 0 0 1-1.196 6.173c-.096.383-.383.55-.861.55h-2.584c-.479 0-.79-.168-.91-.526-.238-.646-.645-2.13-1.22-4.427a111 111 0 0 1-1.34-6.053c-.071-.263-.047-.454.049-.55.095-.096.287-.167.574-.167h2.344c.24 0 .431.048.55.143.096.096.168.287.216.527.335 2.225.718 4.545 1.172 6.986h.096c.574-2.967.981-5.096 1.172-6.364.048-.311.12-.503.24-.599.12-.071.359-.12.741-.12m14.074 4.354v1.866c0 .933.143 1.532.43 1.819.216.239.55.335 1.005.335h.096c.43 0 .765-.096 1.005-.335.287-.287.43-.886.43-1.819v-1.866c0-.909-.143-1.531-.43-1.818-.24-.215-.575-.335-1.005-.335h-.096c-.454 0-.79.12-1.005.335-.287.287-.43.91-.43 1.818m6.818.144v1.555c0 1.196-.12 2.105-.358 2.775a3.42 3.42 0 0 1-1.149 1.603c-.79.622-2.01.933-3.684.933h-.287c-1.675 0-2.92-.31-3.685-.933a3.4 3.4 0 0 1-1.148-1.603c-.24-.67-.36-1.579-.36-2.775v-1.531c0-1.173.12-2.082.36-2.752.239-.67.622-1.196 1.148-1.627.766-.622 2.01-.933 3.685-.933h.287c1.674 0 2.895.311 3.684.933.526.431.91.957 1.148 1.603.24.67.36 1.58.36 2.752m-7.297-8.23 3.756-3.207a.67.67 0 0 1 .455-.215c.167 0 .335.12.478.311l1.149 1.484c.096.143.144.263.144.406 0 .192-.144.383-.383.575l-3.78 2.583a.83.83 0 0 1-.479.168c-.191 0-.383-.096-.574-.335l-.718-.837c-.191-.216-.263-.407-.263-.55a.46.46 0 0 1 .215-.384m12.36 4.45h.072c.527-.862 1.412-1.292 2.68-1.292h.957c.24 0 .43.048.526.143.096.096.168.263.168.527v1.746c0 .263-.048.43-.144.526q-.144.144-.502.144h-.718c-.885 0-1.483.168-1.818.502-.287.287-.407.838-.407 1.651v5.79c0 .24-.072.43-.191.526-.12.12-.335.168-.623.168h-2.2c-.312 0-.527-.048-.647-.168-.12-.095-.167-.287-.167-.526v-10.36c0-.239.048-.406.167-.502s.335-.167.646-.167h1.149c.263 0 .454.048.574.12q.18.143.287.43zm9.718 1.746h-3.805c-.239 0-.406-.024-.502-.12-.096-.095-.12-.287-.12-.574v-1.65c0-.288.024-.455.12-.55q.144-.144.502-.144h8.087c.24 0 .407.048.526.143.096.096.168.287.168.55v.455c0 .622-.191 1.196-.526 1.699l-4.115 5.838h4.09c.24 0 .383.047.48.143.095.096.143.263.143.55v1.651q0 .431-.144.574c-.096.096-.239.12-.478.12h-8.23c-.503 0-.742-.215-.742-.694v-.55c0-.622.167-1.172.526-1.699zM83.39 18.36v3.947c0 .24-.072.43-.192.526-.12.12-.335.168-.622.168h-2.201c-.311 0-.526-.048-.646-.168-.12-.095-.168-.287-.168-.526V7.496c0-.239.048-.406.168-.526.12-.096.335-.167.646-.167h2.201c.287 0 .503.071.622.167.12.12.192.287.192.526v7.8h.167l2.273-3.47c.215-.358.55-.55 1.005-.55h2.775c.263 0 .407.096.407.288 0 .095-.072.263-.192.454l-2.751 4.115c-.215.335-.311.575-.311.718 0 .168.096.407.311.718l2.943 4.642c.096.19.143.31.143.406 0 .263-.167.383-.502.383h-2.656c-.335 0-.598-.024-.742-.12q-.215-.107-.43-.502l-2.273-4.02zm11.276-2.154v1.866c0 .933.144 1.532.43 1.819.216.239.551.335 1.006.335h.095c.431 0 .766-.096 1.005-.335.287-.287.43-.886.43-1.819v-1.866c0-.909-.143-1.531-.43-1.818-.239-.215-.574-.335-1.005-.335h-.095c-.455 0-.79.12-1.005.335-.287.287-.43.91-.43 1.818m6.819.144v1.555c0 1.196-.12 2.105-.359 2.775a3.4 3.4 0 0 1-1.148 1.603c-.79.622-2.01.933-3.685.933h-.287c-1.675 0-2.919-.31-3.684-.933a3.42 3.42 0 0 1-1.149-1.603c-.24-.67-.359-1.579-.359-2.775v-1.531c0-1.173.12-2.082.359-2.752.24-.67.622-1.196 1.148-1.627.766-.622 2.01-.933 3.685-.933h.287c1.675 0 2.895.311 3.685.933.526.431.909.957 1.148 1.603.239.67.359 1.58.359 2.752m8.365-5.288h.191c1.388 0 2.417.335 3.039.981.574.622.885 1.675.885 3.158v7.106c0 .24-.072.43-.192.526-.119.12-.335.168-.622.168h-2.201c-.311 0-.526-.048-.646-.168-.119-.095-.167-.287-.167-.526v-6.77c0-.527-.096-.91-.263-1.101-.192-.192-.551-.311-1.053-.311h-.144c-.526 0-.861.12-1.052.31-.192.192-.264.575-.264 1.101v6.771c0 .24-.071.43-.191.526-.12.12-.335.168-.622.168h-2.201c-.311 0-.526-.048-.646-.168-.12-.095-.168-.287-.168-.526v-10.36c0-.239.048-.406.168-.502s.335-.167.646-.167h1.124c.287 0 .479.048.599.12q.179.107.287.43l.143.454h.072c.766-.813 1.842-1.22 3.278-1.22m13.882 9.69v1.364c0 .359-.071.598-.167.718s-.311.167-.598.167h-1.914c-1.723 0-2.871-.287-3.398-.885-.478-.503-.694-1.46-.694-2.895v-4.953h-1.291c-.24 0-.383-.024-.479-.12-.096-.095-.12-.239-.12-.478v-1.22c0-.287.024-.479.12-.574.072-.096.239-.168.502-.24l1.268-.31V8.98c0-.24.048-.407.168-.527.12-.095.335-.167.646-.167h2.201c.287 0 .503.072.622.167.12.12.192.288.192.527v2.297h1.985c.24 0 .383.048.479.143.096.096.143.263.143.55v1.603q0 .43-.143.575c-.096.095-.239.12-.479.12h-1.985v4.521c0 .43.047.694.191.837.143.168.455.24.933.24h1.053c.287 0 .502.072.598.191s.167.36.167.694m5.28-4.546v1.866c0 .933.144 1.532.431 1.819.215.239.55.335 1.004.335h.096c.431 0 .766-.096 1.005-.335.287-.287.431-.886.431-1.819v-1.866c0-.909-.144-1.531-.431-1.818-.239-.215-.574-.335-1.005-.335h-.096c-.454 0-.789.12-1.004.335-.287.287-.431.91-.431 1.818m6.819.144v1.555c0 1.196-.12 2.105-.359 2.775a3.4 3.4 0 0 1-1.149 1.603c-.789.622-2.009.933-3.684.933h-.287c-1.675 0-2.919-.31-3.685-.933a3.42 3.42 0 0 1-1.148-1.603c-.239-.67-.359-1.579-.359-2.775v-1.531c0-1.173.12-2.082.359-2.752a3.6 3.6 0 0 1 1.148-1.627c.766-.622 2.01-.933 3.685-.933h.287c1.675 0 2.895.311 3.684.933.527.431.91.957 1.149 1.603.239.67.359 1.58.359 2.752m11.063-.646v3.062c0 .55.096.933.335 1.149.192.215.55.31 1.077.31h.215c.55 0 .933-.143 1.173-.478q.287-.43.287-2.081v-1.03c0-1.195-.12-1.937-.311-2.176-.216-.24-.622-.383-1.197-.383h-.095c-.551 0-.933.12-1.173.359-.215.215-.311.646-.311 1.268m0-3.996h.048q1.04-.646 2.728-.646h.215c1.435 0 2.488.43 3.134 1.292.526.742.814 2.058.814 3.948v1.723c0 1.914-.407 3.253-1.221 3.995-.861.814-2.225 1.196-4.091 1.196h-.478c-1.962 0-3.302-.383-4.02-1.172-.646-.694-.957-1.818-.957-3.397V7.496c0-.239.048-.406.168-.526.095-.096.311-.167.622-.167h2.225c.287 0 .502.071.622.167.119.12.191.287.191.526zm15.914 10.312h-.048c-.526.814-1.579 1.196-3.134 1.196h-.359c-1.22 0-2.177-.31-2.847-.933-.694-.622-1.029-1.555-1.029-2.751v-.263c0-1.292.359-2.225 1.1-2.752s1.938-.79 3.613-.79h.168c.622 0 1.196.049 1.674.096v-.502c0-.502-.143-.861-.406-1.053-.287-.167-.766-.263-1.436-.263-.813 0-1.722.144-2.775.407-.287.072-.503.072-.598 0-.12-.072-.192-.216-.216-.455l-.191-1.268c-.048-.215-.048-.383-.048-.478 0-.287.192-.503.574-.622a15.4 15.4 0 0 1 4.092-.527c1.842 0 3.158.407 3.923 1.173.598.622.909 1.627.909 2.99v7.106c0 .24-.071.43-.191.526s-.335.144-.622.144h-1.124c-.288 0-.479-.024-.599-.096-.119-.072-.215-.215-.287-.454zm-.862-3.062v-.67q-.395-.072-1.148-.072h-.263q-.861 0-1.22.215c-.24.144-.335.43-.335.862v.095c0 .43.095.718.335.862.215.167.55.239 1.005.239h.167c.478 0 .837-.12 1.124-.359.216-.191.335-.598.335-1.172m12.413-7.896h.192c1.387 0 2.416.335 3.038.981.574.622.885 1.675.885 3.158v7.106c0 .24-.071.43-.191.526-.12.12-.335.168-.622.168h-2.201c-.311 0-.527-.048-.646-.168-.12-.095-.168-.287-.168-.526v-6.77c0-.527-.095-.91-.263-1.101-.191-.192-.55-.311-1.053-.311h-.143c-.527 0-.861.12-1.053.31-.191.192-.263.575-.263 1.101v6.771c0 .24-.072.43-.191.526-.12.12-.335.168-.623.168h-2.201c-.311 0-.526-.048-.646-.168-.119-.095-.167-.287-.167-.526v-10.36c0-.239.048-.406.167-.502s.335-.167.646-.167h1.125c.287 0 .478.048.598.12q.18.107.287.43l.144.454h.071c.766-.813 1.843-1.22 3.278-1.22m10.222 7.297v3.948c0 .24-.072.43-.191.526-.12.12-.335.168-.622.168h-2.201c-.311 0-.527-.048-.646-.168-.12-.095-.168-.287-.168-.526V7.496c0-.239.048-.406.168-.526.119-.096.335-.167.646-.167h2.201c.287 0 .502.071.622.167.119.12.191.287.191.526v7.8h.168l2.273-3.47c.215-.358.55-.55 1.004-.55h2.776c.263 0 .407.096.407.288 0 .095-.072.263-.192.454l-2.751 4.115c-.216.335-.311.575-.311.718 0 .168.095.407.311.718l2.943 4.642c.095.19.143.31.143.406 0 .263-.167.383-.502.383h-2.656c-.335 0-.598-.024-.742-.12q-.215-.107-.43-.502l-2.273-4.02zm11.277-2.153v1.866c0 .933.143 1.532.431 1.819.215.239.55.335 1.004.335h.096c.431 0 .766-.096 1.005-.335.287-.287.431-.886.431-1.819v-1.866c0-.909-.144-1.531-.431-1.818-.239-.215-.574-.335-1.005-.335h-.096c-.454 0-.789.12-1.004.335-.288.287-.431.91-.431 1.818m6.819.144v1.555c0 1.196-.12 2.105-.359 2.775a3.43 3.43 0 0 1-1.149 1.603c-.789.622-2.009.933-3.684.933h-.287c-1.675 0-2.919-.31-3.685-.933a3.42 3.42 0 0 1-1.148-1.603c-.239-.67-.359-1.579-.359-2.775v-1.531c0-1.173.12-2.082.359-2.752a3.6 3.6 0 0 1 1.148-1.627c.766-.622 2.01-.933 3.685-.933h.287c1.675 0 2.895.311 3.684.933.527.431.909.957 1.149 1.603.239.67.359 1.58.359 2.752m8.173-4.498h2.058c.335 0 .574.048.693.143.12.096.216.287.264.575 0 .095.43 2.225 1.268 6.364h.071a271 271 0 0 0 1.125-6.986c.024-.264.096-.431.191-.527q.144-.143.503-.143h2.44c.263 0 .431.071.527.167.071.12.095.311.047.55-.382 1.867-.861 3.924-1.387 6.173-.527 2.25-.909 3.66-1.149 4.259-.095.239-.215.407-.335.478-.119.072-.311.096-.55.096h-2.632c-.502 0-.813-.168-.909-.55-.454-1.627-.837-3.685-1.172-6.173h-.096a66 66 0 0 1-1.196 6.173c-.096.383-.383.55-.861.55h-2.584c-.479 0-.79-.168-.91-.526-.239-.646-.646-2.13-1.22-4.427a112 112 0 0 1-1.34-6.053c-.071-.263-.047-.454.048-.55.096-.096.287-.167.574-.167h2.345c.239 0 .431.048.55.143.096.096.168.287.216.527.335 2.225.718 4.545 1.172 6.986h.096c.574-2.967.981-5.096 1.172-6.364.048-.311.12-.503.239-.599.12-.071.359-.12.742-.12m16.298 8.278h.264c.813 0 1.674-.096 2.536-.311.239-.048.382-.072.454-.072.239 0 .383.144.431.407l.191 1.196c.048.335.096.55.096.646 0 .287-.215.503-.622.646-1.101.383-2.321.574-3.613.574h-.454q-2.943 0-4.163-1.22a3.4 3.4 0 0 1-.957-1.627c-.168-.622-.24-1.46-.24-2.488v-1.34c0-2.081.479-3.54 1.436-4.402.813-.718 2.057-1.077 3.756-1.077h.335c1.675 0 2.895.407 3.613 1.197.765.86 1.148 2.273 1.148 4.282v1.244c0 .455-.239.67-.694.67h-5.742v.192c0 .574.144.957.479 1.172.311.215.885.311 1.746.311m-2.225-4.163h2.632c.192 0 .287-.096.287-.311v-.383c0-.478-.095-.837-.239-1.1-.191-.288-.574-.431-1.101-.431h-.215c-.478 0-.813.12-1.005.335q-.359.43-.359 1.292z"/></svg>