<svg xmlns="http://www.w3.org/2000/svg" fill="none" viewBox="0 0 171 65"><path fill="#fff" d="M8.438 18.178h.244c.978 0 1.804-.184 2.507-.55V17.2c0-1.682-.183-2.813-.52-3.394-.336-.58-.947-.886-1.864-.886h-.276q-2.292 0-2.292 2.476v.275c0 .917.152 1.56.52 1.926.366.397.916.58 1.68.58m-5.534 10.21c-.367-.122-.52-.336-.52-.703q0-.183.092-.55l.49-1.956c.122-.49.489-.673 1.039-.52 1.467.459 2.751.672 3.852.672h.092c1.1 0 1.864-.275 2.354-.886q.734-.872.825-2.751c-1.009.428-2.11.61-3.302.61H7.49c-2.17 0-3.73-.519-4.708-1.62-.978-1.07-1.437-2.72-1.437-4.921v-.428c0-1.957.581-3.516 1.773-4.678 1.193-1.13 2.935-1.712 5.228-1.712h.428c2.751 0 4.708.734 5.809 2.14s1.68 3.73 1.68 6.97v.734c0 1.743-.152 3.24-.458 4.525-.305 1.284-.703 2.323-1.192 3.057a5.5 5.5 0 0 1-1.865 1.804c-.733.458-1.467.764-2.2.886-.735.153-1.59.214-2.538.214h-.03c-1.774 0-3.486-.275-5.076-.886m36.223-8.926v8.651c0 .306-.091.55-.244.673-.153.153-.428.214-.795.214h-2.813c-.397 0-.672-.061-.825-.214-.153-.122-.214-.367-.214-.673v-8.651c0-.673-.122-1.162-.336-1.407-.245-.244-.703-.397-1.346-.397h-.06c-.673 0-1.101.153-1.346.397-.244.245-.336.734-.336 1.407v8.651c0 .306-.092.55-.245.673-.152.153-.428.214-.794.214H26.96c-.398 0-.673-.061-.826-.214-.152-.122-.213-.367-.213-.673V14.876c0-.306.06-.52.213-.642s.428-.214.826-.214h1.437c.367 0 .611.061.764.153q.23.138.367.55l.183.581h.092c.978-1.04 2.354-1.559 4.188-1.559h.123c1.742 0 3.087.49 4.035 1.406.978-.917 2.385-1.406 4.158-1.406h.122c1.773 0 3.088.428 3.883 1.253.733.795 1.13 2.14 1.13 4.036v9.08c0 .305-.091.55-.244.672-.153.153-.428.214-.795.214h-2.812c-.398 0-.673-.061-.826-.214-.153-.122-.214-.367-.214-.673v-8.651c0-.673-.122-1.162-.336-1.407-.245-.244-.703-.397-1.345-.397h-.061c-.673 0-1.1.153-1.345.397s-.337.734-.337 1.407m16.167-4.555v13.206c0 .306-.091.55-.244.673-.153.153-.428.214-.795.214h-2.813c-.397 0-.672-.061-.825-.214-.153-.122-.214-.367-.214-.673V14.907c0-.306.06-.52.214-.673.153-.122.428-.214.825-.214h2.813c.367 0 .642.092.795.214.153.153.244.367.244.673m-2.262-2.049h-.367c-1.65 0-2.476-.825-2.476-2.537v-.153c0-1.681.825-2.537 2.476-2.537h.367c1.65 0 2.476.856 2.476 2.537v.153c0 1.712-.825 2.537-2.476 2.537m12.706 12.473h.336c1.04 0 2.14-.122 3.24-.397.307-.061.49-.092.582-.092.305 0 .489.184.55.52l.245 1.529c.06.428.122.703.122.825 0 .367-.275.642-.795.825-1.406.49-2.965.734-4.616.734h-.581q-3.76 0-5.32-1.559a4.4 4.4 0 0 1-1.222-2.079c-.214-.795-.306-1.865-.306-3.18v-1.711c0-2.66.611-4.525 1.834-5.625 1.04-.918 2.63-1.376 4.8-1.376h.428c2.14 0 3.699.52 4.616 1.529.978 1.1 1.468 2.904 1.468 5.472v1.59c0 .58-.306.856-.887.856h-7.337v.244c0 .734.183 1.223.611 1.498.398.275 1.132.397 2.232.397m-2.843-5.319h3.363c.244 0 .367-.122.367-.397v-.49c0-.61-.123-1.07-.306-1.406-.245-.367-.734-.55-1.406-.55h-.275c-.612 0-1.04.153-1.285.428q-.458.55-.458 1.65zm10.425-1.07v-.397c0-1.498.398-2.63 1.193-3.424.917-.918 2.476-1.376 4.646-1.376h.306c1.712 0 3.21.183 4.464.55q.366.138.458.275c.061.123.092.275.061.52l-.336 2.507c-.061.397-.336.52-.825.397-1.223-.275-2.324-.428-3.24-.428h-.031c-.673 0-1.162.062-1.407.184-.275.122-.397.336-.397.642v.091c0 .306.091.52.336.642.245.123.703.276 1.406.398l1.437.306c1.315.305 2.262.764 2.813 1.375.55.612.825 1.56.825 2.813v.459c0 3.21-2.017 4.8-5.992 4.8h-.306c-2.017 0-3.699-.276-5.105-.826-.275-.092-.458-.214-.52-.367-.06-.122-.06-.367 0-.703l.428-2.018c.092-.58.428-.764 1.04-.58 1.406.488 2.629.702 3.668.702h.092c.673 0 1.131-.06 1.406-.214.245-.122.398-.366.398-.703v-.091a.66.66 0 0 0-.337-.581q-.366-.185-1.467-.459l-1.345-.306q-2.018-.458-2.843-1.375c-.55-.612-.826-1.529-.826-2.813m19.203-4.035v13.206c0 .306-.092.55-.245.673-.153.153-.428.214-.794.214H88.67c-.397 0-.673-.061-.825-.214-.153-.122-.214-.367-.214-.673V14.907c0-.306.06-.52.214-.673.152-.122.428-.214.825-.214h2.813c.366 0 .642.092.794.214.153.153.245.367.245.673m-2.262-2.049h-.367c-1.651 0-2.476-.825-2.476-2.537v-.153c0-1.681.825-2.537 2.476-2.537h.367c1.65 0 2.476.856 2.476 2.537v.153c0 1.712-.825 2.537-2.476 2.537m12.706 12.473h.336c1.04 0 2.14-.122 3.241-.397.305-.061.489-.092.581-.092.305 0 .489.184.55.52l.244 1.529c.062.428.123.703.123.825 0 .367-.275.642-.795.825a4.44 4.44 0 0 0-1.957 1.468c-.519.672-.764 1.345-.764 1.956v.092c0 .581.275.856.825.856h.153a3.6 3.6 0 0 0 1.254-.244c.153-.031.275-.062.367-.062.152 0 .275.153.366.398l.153.642c.092.428.153.642.153.703 0 .183-.153.336-.428.459a6.8 6.8 0 0 1-2.476.458h-.184c-1.07 0-1.864-.214-2.415-.673-.55-.458-.825-1.1-.825-1.956v-.092c0-.55.183-1.161.581-1.773s.917-1.1 1.589-1.528c-.244.03-.58.03-1.008.03h-.581q-3.76 0-5.32-1.559a4.4 4.4 0 0 1-1.223-2.079c-.214-.795-.305-1.865-.305-3.18v-1.711c0-2.66.611-4.525 1.834-5.625 1.04-.918 2.63-1.376 4.8-1.376h.428c2.14 0 3.699.52 4.616 1.529.978 1.1 1.467 2.904 1.467 5.472v1.59c0 .58-.305.856-.886.856h-7.337v.244c0 .734.183 1.223.611 1.498.398.275 1.131.397 2.232.397m-2.843-5.319h3.363c.244 0 .366-.122.366-.397v-.49c0-.61-.122-1.07-.305-1.406-.245-.367-.734-.55-1.407-.55h-.275c-.611 0-1.039.153-1.284.428q-.458.55-.458 1.65zm17.854 5.32h.245a9.5 9.5 0 0 0 2.659-.398c.306-.061.489-.092.581-.092.306 0 .489.184.55.52l.276 1.56c.061.427.122.702.122.825 0 .366-.275.642-.795.825-1.345.49-2.813.703-4.402.703h-.367c-2.201 0-3.822-.489-4.83-1.528q-1.56-1.56-1.56-5.228v-1.773c0-1.437.123-2.568.367-3.363a4.8 4.8 0 0 1 1.193-2.018c1.07-1.07 2.751-1.62 5.044-1.62h.306c1.834 0 3.424.336 4.708 1.009.366.214.58.458.58.764 0 .183-.091.49-.244.917l-.581 1.468q-.23.55-.642.55c-.122 0-.306-.03-.55-.153-.979-.397-1.896-.611-2.721-.611h-.122c-.795 0-1.376.214-1.743.58-.459.46-.673 1.407-.673 2.813v1.04c0 1.253.184 2.109.612 2.567.397.428 1.07.642 1.987.642m20.351-10.395c-.428 2.874-1.223 6.053-2.385 9.569-1.192 3.516-2.629 6.848-4.31 9.966-.214.428-.49.642-.856.642-.245 0-.52-.06-.887-.244l-1.559-.673c-.55-.245-.795-.489-.795-.764 0-.123.031-.306.153-.52 1.039-2.11 1.651-3.332 1.773-3.668-.856-.306-1.498-.979-1.987-2.08-.55-1.222-1.192-3.087-1.896-5.655q-1.054-3.852-1.559-6.603c-.061-.306-.03-.52.123-.673.152-.122.428-.214.794-.214h2.782c.337 0 .581.061.734.153s.275.275.336.58c.704 3.853 1.498 7.277 2.385 10.242h.153c.856-2.446 1.651-5.808 2.384-10.15q.046-.458.276-.642c.152-.122.397-.183.703-.183h2.812c.336 0 .581.092.703.214.123.122.153.367.123.703M6.388 58.215h-.287c-1.675 0-3.134-.215-4.378-.67-.527-.167-.766-.478-.67-.957l.31-1.937c.049-.479.336-.647.838-.479 1.388.502 2.68.742 3.828.742h.12c.718 0 1.244-.096 1.555-.311.287-.192.455-.55.455-1.053v-.24c0-.478-.144-.789-.383-.98-.263-.168-.766-.335-1.508-.479l-1.626-.31c-1.34-.24-2.297-.719-2.824-1.388-.55-.67-.813-1.603-.813-2.824v-.67c0-1.34.359-2.344 1.077-3.062.86-.861 2.464-1.292 4.76-1.292h.168c1.603 0 2.967.215 4.067.622.24.096.407.24.479.383.048.167.048.407-.024.694l-.407 1.746c-.095.43-.406.575-.885.407q-1.65-.502-3.158-.502h-.096c-.79 0-1.34.095-1.627.263-.31.191-.454.502-.454.933v.215c0 .383.095.67.31.814.192.167.623.31 1.245.43l1.818.36c1.436.286 2.417.74 2.967 1.315.526.574.813 1.58.813 2.99v.575c0 1.627-.454 2.8-1.34 3.54-.885.766-2.32 1.125-4.33 1.125m10.742-10.91c.838-.813 2.034-1.244 3.565-1.244h.215c1.484 0 2.537.43 3.183 1.244.574.766.86 2.058.86 3.924v1.794c0 1.005-.095 1.843-.238 2.465-.168.622-.455 1.148-.862 1.555-.813.79-1.914 1.172-3.35 1.172h-.262q-1.364 0-2.226-.502v3.684c0 .36-.071.599-.19.694-.144.096-.408.144-.814.144h-1.819c-.406 0-.67-.048-.813-.168-.144-.095-.191-.335-.191-.67V47.042c0-.287.047-.478.19-.598.12-.096.336-.167.647-.167h1.005c.287 0 .502.047.622.095.095.072.191.216.263.407l.168.526zm.886 3.398v3.062c0 .55.095.933.335 1.149.215.215.574.31 1.076.31h.215c.55 0 .934-.143 1.173-.478q.287-.43.287-2.081v-1.03c0-1.148-.096-1.865-.287-2.128-.24-.288-.622-.431-1.197-.431h-.167c-.526 0-.885.12-1.124.359-.216.215-.312.646-.312 1.268m12.468.502v1.866c0 .934.143 1.532.43 1.819.216.239.55.335 1.005.335h.096c.43 0 .766-.096 1.005-.335.287-.287.43-.886.43-1.819v-1.866c0-.909-.143-1.531-.43-1.818-.24-.215-.574-.335-1.005-.335h-.096c-.454 0-.79.12-1.005.335-.287.287-.43.91-.43 1.818m6.819.144v1.555c0 1.196-.12 2.105-.36 2.775a3.4 3.4 0 0 1-1.148 1.603c-.79.622-2.01.933-3.684.933h-.287c-1.675 0-2.92-.31-3.685-.933a3.42 3.42 0 0 1-1.148-1.603c-.24-.67-.36-1.579-.36-2.775v-1.531c0-1.173.12-2.082.36-2.752.239-.67.622-1.196 1.148-1.627.766-.622 2.01-.933 3.685-.933h.287c1.675 0 2.895.311 3.684.933.527.431.91.957 1.149 1.603.239.67.358 1.58.358 2.752m9.537 4.402v1.364c0 .359-.072.598-.168.718-.095.12-.31.167-.598.167H44.16c-1.722 0-2.871-.287-3.397-.885-.479-.503-.694-1.46-.694-2.895v-4.953h-1.292c-.24 0-.383-.024-.479-.12-.095-.095-.12-.239-.12-.478v-1.22c0-.287.025-.479.12-.574.072-.096.24-.168.503-.24l1.268-.31V43.98c0-.24.048-.407.167-.527.12-.095.335-.167.646-.167h2.201c.288 0 .503.072.623.167.12.12.19.287.19.527v2.297h1.987c.239 0 .383.047.478.143.096.096.144.263.144.55v1.603q0 .431-.144.575c-.095.095-.24.12-.478.12h-1.986v4.521c0 .43.048.694.191.837.144.168.455.24.933.24h1.053c.287 0 .503.072.598.191.096.12.168.36.168.694m5.686-8.78v10.335c0 .24-.072.43-.191.527-.12.12-.335.167-.622.167H49.51c-.31 0-.526-.048-.646-.167-.12-.096-.167-.288-.167-.527V46.97c0-.239.048-.406.167-.526.12-.096.335-.167.646-.167h2.202c.287 0 .502.071.622.167.12.12.191.287.191.526m-1.77-1.603h-.288c-1.292 0-1.937-.647-1.937-1.986v-.12c0-1.316.645-1.986 1.938-1.986h.287c1.292 0 1.938.67 1.938 1.986v.12c0 1.34-.646 1.986-1.938 1.986m4.967 3.9h-1.292c-.24 0-.407-.025-.478-.096-.096-.072-.12-.24-.12-.503v-1.172c0-.287.024-.503.096-.598.072-.096.239-.192.526-.264l1.268-.31v-1.03c0-1.34.311-2.296.957-2.846q1.005-.862 3.158-.862h.24c.956 0 1.77.096 2.488.263.239.072.406.168.478.288.048.12.072.31.048.574l-.143 1.507c-.048.24-.096.383-.168.43-.096.048-.263.072-.526.048-.622-.047-1.053-.095-1.34-.095h-.144c-.526 0-.837.072-.98.215-.168.168-.24.455-.24.838v.622h1.986c.24 0 .383.047.478.143.096.096.144.263.144.55v1.603q0 .431-.144.575c-.095.095-.239.12-.478.12H59.55v8.038c0 .24-.072.43-.191.527-.12.12-.335.167-.622.167h-2.202c-.31 0-.526-.048-.645-.167-.12-.096-.168-.288-.168-.527zm18.375-2.274c-.335 2.25-.957 4.738-1.866 7.489a51 51 0 0 1-3.373 7.8c-.168.335-.383.502-.67.502-.192 0-.407-.048-.694-.191l-1.22-.527c-.431-.191-.622-.383-.622-.598 0-.096.024-.24.12-.407.813-1.65 1.291-2.607 1.387-2.87-.67-.24-1.172-.766-1.555-1.627-.43-.957-.933-2.417-1.484-4.427q-.825-3.014-1.22-5.168c-.048-.239-.024-.406.096-.526.12-.096.335-.167.622-.167h2.177c.263 0 .455.047.574.12.12.071.216.215.264.454.55 3.014 1.172 5.694 1.866 8.015h.12c.67-1.914 1.291-4.546 1.865-7.943q.037-.36.216-.503c.12-.096.31-.143.55-.143h2.201c.263 0 .455.071.55.167s.12.287.096.55m12.47-1.46h-.31c-.335 0-.67.025-1.053.049-.144.024-.192.12-.192.287v3.78h1.244c.862 0 1.436-.12 1.771-.407.287-.239.43-.694.43-1.411v-.598c0-.575-.143-1.005-.406-1.268-.287-.288-.79-.431-1.483-.431m-1.555 7.394v4.33c0 .503-.287.742-.837.742h-2.345c-.31 0-.526-.048-.646-.167-.143-.096-.191-.288-.191-.575V43.501q0-.574.215-.79c.144-.143.407-.239.838-.286.861-.072 2.2-.12 4.043-.12h.287c2.44 0 4.115.478 5.048 1.412.718.765 1.077 1.914 1.077 3.469v.813c0 1.795-.502 3.063-1.507 3.78-1.053.766-2.656 1.149-4.833 1.149zm12.26-5.36h.071c.526-.86 1.412-1.291 2.68-1.291h.957c.239 0 .43.047.526.143s.168.263.168.526v1.747c0 .263-.048.43-.144.526q-.144.144-.502.144h-.718c-.885 0-1.484.168-1.819.502-.287.288-.406.838-.406 1.651v5.79c0 .24-.072.43-.192.527-.12.12-.335.167-.622.167h-2.2c-.312 0-.527-.048-.647-.167-.12-.096-.167-.288-.167-.527v-10.36c0-.239.048-.406.167-.502s.335-.167.646-.167h1.149c.263 0 .454.047.574.12q.18.143.287.43zm11.417 7.561h.263c.814 0 1.675-.096 2.537-.311.239-.048.382-.072.454-.072.239 0 .383.144.431.407l.191 1.196c.048.335.096.55.096.646 0 .287-.215.503-.622.646-1.101.383-2.321.574-3.613.574h-.454q-2.943 0-4.163-1.22a3.4 3.4 0 0 1-.957-1.627c-.168-.622-.24-1.46-.24-2.488v-1.34c0-2.081.479-3.54 1.436-4.402.813-.718 2.057-1.077 3.756-1.077h.335c1.675 0 2.895.407 3.613 1.197.765.86 1.148 2.273 1.148 4.282v1.244c0 .455-.239.67-.694.67h-5.742v.192c0 .574.144.957.479 1.172.311.215.885.311 1.746.311m-2.225-4.163h2.632c.191 0 .287-.096.287-.311v-.383c0-.478-.096-.837-.239-1.1-.192-.287-.574-.431-1.101-.431h-.215c-.479 0-.814.12-1.005.335q-.359.43-.359 1.292zm18.806-.43v6.77c0 .24-.072.43-.191.527-.12.12-.335.167-.622.167h-2.202c-.311 0-.526-.048-.646-.167-.119-.096-.167-.288-.167-.527v-6.77c0-.527-.096-.91-.263-1.101-.192-.192-.55-.311-1.053-.311h-.048c-.526 0-.861.12-1.052.31-.192.192-.264.575-.264 1.101v6.771c0 .24-.071.43-.191.527-.12.12-.335.167-.622.167h-2.201c-.311 0-.527-.048-.646-.167-.12-.096-.168-.288-.168-.527v-10.36c0-.239.048-.406.168-.502.119-.096.335-.167.646-.167h1.124c.287 0 .479.047.598.12q.18.107.288.43l.143.455h.072c.765-.814 1.842-1.22 3.278-1.22h.095c1.364 0 2.417.382 3.158 1.1.766-.718 1.867-1.1 3.254-1.1h.096c1.388 0 2.416.334 3.038.98.575.622.886 1.675.886 3.158v7.106c0 .24-.072.43-.192.527-.119.12-.335.167-.622.167h-2.201c-.311 0-.526-.048-.646-.167-.119-.096-.167-.288-.167-.527v-6.77c0-.527-.096-.91-.264-1.101-.191-.192-.55-.311-1.052-.311h-.048c-.526 0-.861.12-1.053.31-.191.192-.263.575-.263 1.101m12.652-3.566v10.336c0 .24-.071.43-.191.527-.12.12-.335.167-.622.167h-2.201c-.311 0-.527-.048-.646-.167-.12-.096-.168-.288-.168-.527V46.97c0-.239.048-.406.168-.526.119-.096.335-.167.646-.167h2.201c.287 0 .502.071.622.167.12.12.191.287.191.526m-1.77-1.602h-.287c-1.292 0-1.938-.647-1.938-1.986v-.12c0-1.316.646-1.986 1.938-1.986h.287c1.292 0 1.938.67 1.938 1.986v.12c0 1.34-.646 1.986-1.938 1.986m10.542 8.35V46.97c0-.239.048-.406.167-.526.12-.096.335-.167.646-.167h2.202c.287 0 .502.071.622.167.119.12.191.287.191.526v7.082q0 2.19-1.077 3.159c-.765.67-2.105 1.004-4.067 1.004s-3.326-.335-4.067-1.005q-1.077-.968-1.077-3.158V46.97c0-.239.048-.406.168-.526.119-.096.335-.167.646-.167h2.201c.287 0 .502.071.622.167.119.12.191.287.191.526v6.747c0 .55.072.91.263 1.1.192.216.527.312 1.053.312.503 0 .861-.096 1.053-.311.167-.191.263-.55.263-1.1m16.427-3.183v6.771c0 .24-.072.43-.192.527-.119.12-.335.167-.622.167h-2.201c-.311 0-.526-.048-.646-.167-.12-.096-.167-.288-.167-.527v-6.77c0-.527-.096-.91-.264-1.101-.191-.192-.55-.311-1.052-.311h-.048c-.527 0-.862.12-1.053.31-.191.192-.263.575-.263 1.101v6.771c0 .24-.072.43-.192.527-.119.12-.334.167-.622.167h-2.201c-.311 0-.526-.048-.646-.167-.119-.096-.167-.288-.167-.527v-10.36c0-.239.048-.406.167-.502s.335-.167.646-.167h1.125c.287 0 .478.047.598.12q.18.107.287.43l.144.455h.071c.766-.814 1.843-1.22 3.278-1.22h.096c1.364 0 2.416.382 3.158 1.1.766-.718 1.866-1.1 3.254-1.1h.095c1.388 0 2.417.334 3.039.98.574.622.885 1.675.885 3.158v7.106c0 .24-.072.43-.191.527-.12.12-.335.167-.622.167h-2.201c-.311 0-.527-.048-.646-.167-.12-.096-.168-.288-.168-.527v-6.77c0-.527-.096-.91-.263-1.101-.191-.192-.55-.311-1.053-.311h-.048c-.526 0-.861.12-1.052.31-.192.192-.263.575-.263 1.101"/></svg>