<svg xmlns="http://www.w3.org/2000/svg" fill="none" viewBox="0 0 159 29"><path fill="#fff" d="M5.096 11.97v10.336c0 .24-.072.43-.191.526-.12.12-.335.168-.622.168H2.08c-.31 0-.526-.048-.645-.168-.12-.095-.168-.287-.168-.526V11.97c0-.239.048-.406.168-.526.12-.096.334-.167.646-.167h2.2c.288 0 .503.071.623.167.12.12.191.287.191.526m-1.77-1.603h-.287c-1.292 0-1.938-.646-1.938-1.985v-.12c0-1.316.646-1.986 1.938-1.986h.287c1.292 0 1.938.67 1.938 1.986v.12c0 1.34-.646 1.986-1.938 1.986m13.336 3.948h-3.804c-.24 0-.407-.024-.503-.12-.095-.095-.12-.287-.12-.574v-1.65c0-.288.025-.455.12-.55q.144-.144.503-.144h8.087c.239 0 .406.048.526.143.096.096.168.287.168.55v.455c0 .622-.192 1.196-.527 1.699l-4.115 5.838h4.091c.24 0 .383.047.479.143s.143.263.143.55v1.651q0 .431-.143.574c-.096.096-.24.12-.479.12h-8.23c-.503 0-.742-.215-.742-.694v-.55c0-.622.168-1.172.527-1.699zM28.611 21.9h-.646c-3.398 0-5.073-1.53-5.073-4.617v-1.603c0-1.58.407-2.728 1.245-3.493.813-.742 2.081-1.125 3.756-1.125h.335c.31-1.722 1.579-2.608 3.828-2.608h1.172c.24 0 .383.048.479.12.071.096.12.263.12.502v1.316c0 .24-.049.383-.144.455-.096.096-.264.12-.479.12H32.08c-.527 0-.886.12-1.1.359 1.793.478 2.703 1.937 2.703 4.354v1.603c0 1.723-.479 2.87-1.412 3.493.622.335 1.1.766 1.46 1.292.358.526.55 1.1.55 1.699v.167c0 2.369-1.89 3.541-5.623 3.541h-.454c-1.627 0-3.206-.287-4.69-.861-.43-.144-.598-.455-.478-.91l.43-1.53c.12-.455.407-.623.862-.48 1.412.48 2.656.695 3.756.695h.335q2.082 0 2.082-1.22v-.072c0-.455-.24-.862-.718-1.244-.383.047-.79.047-1.173.047m-.407-2.99h.167c.527 0 .886-.096 1.125-.335.263-.263.407-.814.407-1.627v-.933c0-.814-.144-1.34-.407-1.627-.24-.215-.598-.335-1.125-.335h-.167c-.527 0-.91.12-1.125.335-.287.287-.406.813-.406 1.627v.933c0 .813.12 1.364.406 1.627.216.24.598.335 1.125.335m14.533 3.11h-.047c-.527.814-1.58 1.196-3.135 1.196h-.358c-1.22 0-2.178-.31-2.848-.933-.693-.622-1.028-1.555-1.028-2.751v-.263c0-1.292.358-2.225 1.1-2.752s1.938-.79 3.613-.79h.167c.622 0 1.197.049 1.675.096v-.502c0-.502-.143-.861-.407-1.053-.287-.167-.765-.263-1.435-.263-.814 0-1.723.144-2.775.407-.288.072-.503.072-.599 0-.12-.072-.191-.216-.215-.455l-.191-1.268c-.048-.215-.048-.383-.048-.478 0-.287.191-.503.574-.622a15.4 15.4 0 0 1 4.091-.527c1.843 0 3.158.407 3.924 1.173.598.622.91 1.627.91 2.99v7.106c0 .24-.073.43-.192.526s-.335.144-.622.144h-1.125c-.287 0-.478-.024-.598-.096s-.215-.215-.287-.454zm-.86-3.062v-.67q-.396-.072-1.15-.072h-.262q-.862 0-1.22.215c-.24.144-.336.43-.336.862v.095c0 .43.096.718.335.862.216.167.55.239 1.005.239h.168c.478 0 .837-.12 1.124-.359.216-.191.335-.598.335-1.172m9.11-6.388h.072c.526-.862 1.412-1.292 2.68-1.292h.957c.239 0 .43.048.526.143.096.096.167.263.167.527v1.746c0 .263-.047.43-.143.526q-.143.144-.503.144h-.717c-.886 0-1.484.168-1.819.502-.287.287-.406.838-.406 1.651v5.79c0 .24-.072.43-.192.526-.12.12-.335.168-.622.168h-2.2c-.312 0-.527-.048-.647-.168-.12-.095-.167-.287-.167-.526v-10.36c0-.239.047-.406.167-.502s.335-.167.646-.167h1.148c.264 0 .455.048.575.12q.18.143.287.43zm12.134-1.508h.191c1.388 0 2.416.335 3.039.981.574.622.885 1.675.885 3.158v7.106c0 .24-.072.43-.192.526-.12.12-.334.168-.622.168h-2.2c-.312 0-.527-.048-.647-.168-.12-.095-.167-.287-.167-.526v-6.77c0-.527-.096-.91-.263-1.101-.192-.192-.55-.311-1.053-.311h-.144c-.526 0-.861.12-1.052.31-.192.192-.264.575-.264 1.101v6.771c0 .24-.071.43-.191.526-.12.12-.335.168-.622.168h-2.201c-.311 0-.526-.048-.646-.168-.12-.095-.168-.287-.168-.526v-10.36c0-.239.048-.406.168-.502s.335-.167.646-.167h1.124c.287 0 .479.048.599.12q.18.107.287.43l.143.454h.072c.765-.813 1.842-1.22 3.278-1.22m10.27.91v10.335c0 .24-.072.43-.192.526-.12.12-.335.168-.622.168h-2.201c-.311 0-.526-.048-.646-.168-.12-.095-.168-.287-.168-.526V11.97c0-.239.048-.406.168-.526.12-.096.335-.167.646-.167h2.201c.287 0 .503.071.622.167.12.12.192.287.192.526m-1.77-1.604h-.288c-1.292 0-1.938-.646-1.938-1.985v-.12c0-1.316.646-1.986 1.938-1.986h.287c1.292 0 1.938.67 1.938 1.986v.12c0 1.34-.646 1.986-1.938 1.986m3.818 16.892h-1.387c-.24 0-.431-.048-.527-.168-.096-.096-.143-.31-.143-.598v-1.675c0-.239.047-.43.143-.526s.287-.168.526-.168h.599c.43 0 .765-.095.98-.334.192-.192.288-.694.288-1.484V11.97c0-.239.047-.406.167-.526.12-.096.335-.167.646-.167h2.201c.287 0 .503.071.622.167.12.12.192.287.192.526v10.6c0 1.722-.311 2.918-.933 3.612q-.969 1.077-3.374 1.077m2.536-16.891h-.287c-1.292 0-1.938-.647-1.938-1.986v-.12c0-1.316.646-1.986 1.938-1.986h.287c1.292 0 1.938.67 1.938 1.986v.12c0 1.34-.646 1.986-1.938 1.986m14.413 9.522h.766c.24 0 .43.072.526.167.096.12.168.335.168.646v1.483c0 .335-.072.55-.168.646-.095.12-.287.168-.526.168h-1.818c-1.197 0-2.034-.215-2.513-.694-.478-.454-.717-1.268-.717-2.416v-2.584l-.79.502c-.31.192-.526.287-.622.287-.191 0-.263-.143-.263-.43V15.44c0-.24.024-.407.12-.527.071-.095.215-.239.454-.406l1.1-.694V7.496c0-.239.049-.406.168-.526.12-.096.335-.167.646-.167h2.201c.287 0 .503.071.622.167.12.12.192.287.192.526v3.876l1.076-.694c.287-.19.503-.287.622-.287.168 0 .264.144.264.431v2.225c0 .24-.048.43-.12.526a2 2 0 0 1-.454.407l-1.388.885v4.57c0 .192.024.311.096.359.047.072.167.096.358.096m9.952 2.13h-.048c-.526.813-1.579 1.195-3.134 1.195H98.8c-1.22 0-2.177-.31-2.847-.933-.694-.622-1.028-1.555-1.028-2.751v-.263c0-1.292.358-2.225 1.1-2.752s1.938-.79 3.613-.79h.167c.622 0 1.197.049 1.675.096v-.502c0-.502-.144-.861-.407-1.053-.287-.167-.765-.263-1.435-.263-.814 0-1.723.144-2.775.407-.288.072-.503.072-.599 0-.12-.072-.191-.216-.215-.455l-.191-1.268c-.048-.239-.048-.407-.048-.478 0-.287.191-.503.574-.622a15.4 15.4 0 0 1 4.091-.527c1.842 0 3.158.407 3.924 1.173.598.622.909 1.627.909 2.99v7.106c0 .359-.143.574-.383.67-.598.24-1.1.574-1.483 1.005-.407.43-.598.885-.598 1.34v.072q0 .645.646.645h.072c.287 0 .646-.047 1.028-.191.12-.024.216-.048.287-.048.12 0 .216.12.288.311l.119.503c.072.335.12.502.12.55 0 .143-.12.263-.335.359a5.4 5.4 0 0 1-1.938.359h-.144c-.813 0-1.459-.168-1.89-.527s-.646-.861-.646-1.483v-.12c0-.574.192-1.124.598-1.65.383-.527.91-.957 1.532-1.293zm-.861-3.063v-.67q-.395-.072-1.148-.072h-.264q-.86 0-1.22.215c-.239.144-.335.43-.335.862v.095c0 .43.096.718.335.862.216.167.55.239 1.005.239h.168c.478 0 .837-.12 1.124-.359.215-.191.335-.598.335-1.172m11.693 1.172h.191a7.5 7.5 0 0 0 2.082-.311c.239-.048.382-.072.454-.072.24 0 .383.144.431.407l.215 1.22c.048.335.096.55.096.646 0 .287-.215.503-.622.646-1.053.383-2.201.55-3.445.55h-.287c-1.723 0-2.991-.383-3.781-1.196q-1.22-1.22-1.22-4.091V16.54c0-1.124.096-2.01.287-2.632a3.77 3.77 0 0 1 .933-1.579c.838-.837 2.154-1.268 3.948-1.268h.239c1.436 0 2.68.264 3.685.79.287.167.454.359.454.598 0 .143-.071.383-.191.718l-.455 1.148q-.179.43-.502.43a1 1 0 0 1-.431-.119c-.765-.31-1.483-.478-2.129-.478h-.096c-.622 0-1.076.167-1.364.454-.358.36-.526 1.1-.526 2.201v.814c0 .98.144 1.65.479 2.01.311.335.837.502 1.555.502m9.261-5.814h-3.804c-.239 0-.407-.024-.502-.12-.096-.095-.12-.287-.12-.574v-1.65c0-.288.024-.455.12-.55q.143-.144.502-.144h8.087c.239 0 .407.048.526.143.096.096.168.287.168.55v.455c0 .622-.192 1.196-.527 1.699l-4.115 5.838h4.091c.24 0 .383.047.479.143s.144.263.144.55v1.651q0 .431-.144.574c-.096.096-.239.12-.479.12h-8.23c-.502 0-.742-.215-.742-.694v-.55c0-.622.168-1.172.527-1.699zm12.978-3.254h.191c1.388 0 2.416.335 3.038.981.575.622.886 1.675.886 3.158v7.106c0 .24-.072.43-.192.526-.119.12-.335.168-.622.168h-2.201c-.311 0-.526-.048-.646-.168-.12-.095-.167-.287-.167-.526v-6.77c0-.527-.096-.91-.264-1.101-.191-.192-.55-.311-1.052-.311h-.144c-.526 0-.861.12-1.053.31-.191.192-.263.575-.263 1.101v6.771c0 .24-.072.43-.191.526-.12.12-.335.168-.622.168h-2.201c-.311 0-.527-.048-.646-.168-.12-.095-.168-.287-.168-.526v-10.36c0-.239.048-.406.168-.502.119-.096.335-.167.646-.167h1.124c.287 0 .479.048.598.12q.18.107.287.43l.144.454h.072c.765-.813 1.842-1.22 3.278-1.22m10.269.91v10.335c0 .24-.071.43-.191.526-.12.12-.335.168-.622.168h-2.201c-.311 0-.527-.048-.646-.168-.12-.095-.168-.287-.168-.526V11.97c0-.239.048-.406.168-.526.119-.096.335-.167.646-.167h2.201c.287 0 .502.071.622.167.12.12.191.287.191.526m-1.77-1.604h-.287c-1.292 0-1.938-.646-1.938-1.985v-.12c0-1.316.646-1.986 1.938-1.986h.287c1.292 0 1.938.67 1.938 1.986v.12c0 1.34-.646 1.986-1.938 1.986m9.944 9.762h.263c.814 0 1.675-.096 2.536-.311.239-.048.383-.072.455-.072.239 0 .383.144.43.407l.192 1.196c.048.335.095.55.095.646 0 .287-.215.503-.622.646-1.1.383-2.32.574-3.612.574h-.455q-2.942 0-4.163-1.22a3.44 3.44 0 0 1-.957-1.627c-.167-.622-.239-1.46-.239-2.488v-1.34c0-2.081.478-3.54 1.435-4.402.814-.718 2.058-1.077 3.757-1.077h.335c1.674 0 2.895.407 3.612 1.197.766.86 1.149 2.273 1.149 4.282v1.244c0 .455-.24.67-.694.67h-5.742v.192c0 .574.143.957.478 1.172.311.215.886.311 1.747.311m-2.225-4.163h2.632c.191 0 .287-.096.287-.311v-.383c0-.478-.096-.837-.24-1.1-.191-.288-.574-.431-1.1-.431h-.215c-.479 0-.814.12-1.005.335q-.36.43-.359 1.292z"/></svg>