<svg xmlns="http://www.w3.org/2000/svg" fill="none" viewBox="0 0 294 19"><path fill="#fff" d="M4.04 6.726c-.195.016-.276.113-.276.276v5.386c0 .227.081.357.26.357.13.016.373.016.73.016h.08c.633 0 1.104-.146 1.428-.47.406-.406.617-1.152.617-2.255V9.37c0-1.103-.195-1.833-.552-2.222-.292-.292-.795-.455-1.508-.455h-.082c-.227 0-.47.017-.697.033M4.234 15h-.34c-1.12 0-1.866-.016-2.24-.065-.421-.032-.616-.243-.616-.633V5.444q0-.463.146-.633c.098-.113.292-.194.584-.227a29 29 0 0 1 2.548-.113h.227c1.85 0 3.18.389 3.975 1.135.746.747 1.135 1.963 1.135 3.618v.941c0 1.704-.39 2.92-1.152 3.65C7.674 14.612 6.246 15 4.234 15m11.612-.665h-.032c-.357.551-1.07.811-2.126.811h-.243c-.827 0-1.476-.21-1.93-.633-.471-.421-.698-1.054-.698-1.865v-.179c0-.876.243-1.509.746-1.866s1.314-.535 2.45-.535h.114c.421 0 .81.032 1.135.065v-.34c0-.342-.097-.585-.276-.715-.194-.113-.519-.178-.973-.178-.552 0-1.168.097-1.882.276-.195.048-.34.048-.406 0-.08-.05-.13-.146-.146-.309l-.13-.86c-.032-.146-.032-.26-.032-.324 0-.195.13-.34.39-.422a10.5 10.5 0 0 1 2.774-.357c1.25 0 2.141.276 2.66.795.406.422.617 1.103.617 2.028v4.819c0 .162-.049.292-.13.357-.08.065-.227.097-.422.097h-.762c-.195 0-.325-.016-.406-.065-.08-.049-.146-.146-.194-.308zm-.584-2.077v-.454a4.7 4.7 0 0 0-.779-.049h-.178q-.585 0-.827.146c-.163.098-.228.292-.228.584v.065c0 .292.065.487.228.584.146.114.373.162.681.162h.114c.324 0 .567-.08.762-.243.146-.13.227-.405.227-.795m3.842 5.63h-.94c-.163 0-.293-.033-.358-.114-.065-.065-.097-.21-.097-.405v-1.136c0-.162.032-.292.097-.357s.195-.114.357-.114h.406c.292 0 .519-.064.665-.227.13-.13.195-.47.195-1.005V7.52c0-.161.032-.275.113-.356.081-.065.227-.114.438-.114h1.493c.195 0 .34.049.422.114.08.08.13.195.13.357v7.187c0 1.168-.211 1.98-.633 2.45q-.657.73-2.288.73m1.72-11.454h-.195c-.876 0-1.314-.438-1.314-1.347v-.081c0-.892.438-1.347 1.314-1.347h.195c.876 0 1.314.455 1.314 1.347v.081c0 .909-.438 1.347-1.314 1.347m8.752 3.958v1.266c0 .633.097 1.038.292 1.233.146.162.373.227.681.227h.065c.292 0 .52-.065.681-.227.195-.195.292-.6.292-1.233v-1.266c0-.616-.097-1.038-.292-1.233-.162-.146-.389-.227-.681-.227h-.065c-.308 0-.535.081-.681.227-.195.195-.292.617-.292 1.233m4.623.098v1.054c0 .811-.08 1.428-.243 1.882a2.32 2.32 0 0 1-.779 1.087c-.535.422-1.363.633-2.498.633h-.195c-1.136 0-1.98-.21-2.498-.633a2.3 2.3 0 0 1-.78-1.087c-.161-.454-.242-1.07-.242-1.882v-1.038c0-.795.08-1.412.243-1.866s.422-.811.779-1.103c.519-.422 1.363-.633 2.498-.633h.195c1.136 0 1.963.211 2.498.633.357.292.617.649.78 1.087.161.454.242 1.07.242 1.866m1.179-.828v-.21c0-.796.21-1.396.632-1.818.487-.486 1.315-.73 2.467-.73h.162c.908 0 1.703.098 2.368.292q.195.074.244.146c.032.065.049.146.032.276l-.178 1.33c-.033.211-.179.276-.438.211-.65-.146-1.233-.227-1.72-.227h-.016c-.357 0-.617.033-.746.098-.147.064-.212.178-.212.34v.049c0 .162.05.276.179.34.13.066.373.147.746.212l.763.162c.697.162 1.2.405 1.492.73s.439.827.439 1.492v.244c0 1.703-1.071 2.547-3.18 2.547h-.163c-1.07 0-1.963-.146-2.71-.438-.145-.049-.242-.114-.275-.195-.032-.065-.032-.194 0-.373l.227-1.07c.049-.309.227-.406.552-.309.746.26 1.395.373 1.947.373h.048c.357 0 .6-.032.747-.113.13-.065.21-.195.21-.373v-.05a.35.35 0 0 0-.178-.307q-.195-.097-.779-.244l-.713-.162q-1.07-.244-1.51-.73c-.291-.325-.437-.811-.437-1.493m10.207-.551h-2.58c-.162 0-.276-.017-.34-.081-.066-.065-.082-.195-.082-.39V7.52c0-.194.016-.308.081-.372q.098-.098.341-.098h5.484c.162 0 .276.033.357.098.065.064.113.194.113.373v.308c0 .422-.13.811-.357 1.152l-2.79 3.959h2.774c.162 0 .26.032.325.097.064.065.097.178.097.373v1.12q0 .291-.098.389c-.064.065-.162.081-.324.081h-5.581c-.34 0-.503-.146-.503-.47v-.374c0-.421.114-.795.357-1.152zm8.248 3.942h.13c.438 0 .908-.065 1.411-.21.162-.033.26-.05.308-.05.163 0 .26.098.293.276l.146.828c.032.227.064.373.064.438 0 .194-.146.34-.421.438-.714.26-1.493.373-2.337.373h-.194c-1.168 0-2.028-.26-2.564-.811q-.827-.828-.827-2.775v-.94c0-.763.065-1.363.195-1.785q.195-.633.632-1.07c.568-.569 1.46-.86 2.677-.86h.163c.973 0 1.817.178 2.498.535.195.113.308.243.308.405 0 .098-.048.26-.13.487l-.308.779q-.121.292-.34.292a.66.66 0 0 1-.292-.081c-.52-.211-1.006-.325-1.444-.325h-.065c-.422 0-.73.114-.925.308-.243.244-.357.747-.357 1.493v.552c0 .665.097 1.12.325 1.362.21.228.567.341 1.054.341m6.28-3.942h-2.58c-.162 0-.275-.017-.34-.081-.065-.065-.081-.195-.081-.39V7.52c0-.194.016-.308.081-.372q.097-.098.34-.098h5.484c.163 0 .276.033.357.098.065.064.114.194.114.373v.308c0 .422-.13.811-.357 1.152l-2.79 3.959h2.774c.162 0 .26.032.324.097.065.065.098.178.098.373v1.12q0 .291-.098.389c-.065.065-.162.081-.324.081h-5.581c-.341 0-.503-.146-.503-.47v-.374c0-.421.113-.795.357-1.152zm8.379 3.942h.178c.552 0 1.136-.065 1.72-.21.162-.033.26-.05.308-.05.162 0 .26.098.292.276l.13.811c.032.228.065.374.065.439 0 .194-.146.34-.422.438a2.36 2.36 0 0 0-1.038.778c-.276.357-.406.714-.406 1.039v.048c0 .309.146.455.438.455h.081c.179 0 .406-.033.665-.13.081-.016.146-.033.195-.033.081 0 .146.082.195.211l.08.341c.05.227.082.34.082.373 0 .098-.081.179-.227.244a3.6 3.6 0 0 1-1.314.243h-.098c-.568 0-.99-.114-1.281-.357-.292-.243-.439-.584-.439-1.038v-.049c0-.292.098-.617.309-.941.21-.325.487-.584.843-.811-.13.016-.308.016-.535.016h-.308q-1.996 0-2.823-.827a2.33 2.33 0 0 1-.65-1.104c-.113-.421-.161-.99-.161-1.687v-.909c0-1.411.324-2.4.973-2.985.552-.486 1.395-.73 2.547-.73h.227c1.136 0 1.964.276 2.45.811.52.584.779 1.542.779 2.905v.843c0 .308-.162.454-.47.454h-3.894v.13c0 .39.097.65.324.795.211.146.6.211 1.185.211m-1.51-2.823h1.785c.13 0 .195-.065.195-.21v-.26c0-.325-.065-.568-.162-.747-.13-.194-.39-.292-.746-.292h-.147c-.324 0-.551.081-.681.227q-.243.292-.243.877zm10.19 1.898v-2.06c0-.406-.065-.698-.195-.86-.146-.162-.406-.26-.763-.26h-.162c-.357 0-.6.098-.746.276-.162.179-.227.682-.227 1.525v.714c0 .779.081 1.266.243 1.428.13.162.373.227.746.227h.179c.308 0 .535-.065.698-.21.146-.147.227-.406.227-.78m-.033-4.932h.033v-2.71c0-.161.032-.275.113-.356.081-.065.227-.114.438-.114h1.51c.194 0 .34.049.421.114a.55.55 0 0 1 .114.357v7.382c0 1.135-.211 1.914-.633 2.369a2.5 2.5 0 0 1-1.12.697c-.454.146-1.054.211-1.817.211h-.275c-1.201 0-2.061-.243-2.613-.73-.567-.487-.843-1.395-.843-2.742v-1.298c0-1.298.26-2.206.811-2.725.52-.487 1.233-.747 2.158-.747h.194q.925 0 1.51.292m8.458-.292h.13c.94 0 1.638.227 2.06.665.39.422.6 1.136.6 2.142v4.819c0 .162-.048.292-.13.356-.08.082-.227.114-.421.114h-1.493c-.21 0-.357-.032-.438-.114-.081-.064-.114-.194-.114-.356V9.938c0-.357-.064-.616-.178-.746-.13-.13-.373-.211-.714-.211h-.097c-.357 0-.584.081-.714.21-.13.13-.178.39-.178.747v4.592c0 .162-.05.292-.13.356-.081.082-.227.114-.422.114h-1.493c-.21 0-.357-.032-.438-.114-.08-.064-.113-.194-.113-.356V7.505c0-.163.032-.276.113-.341s.227-.114.438-.114h.763c.195 0 .324.033.405.081q.122.073.195.292l.098.309h.048c.52-.552 1.25-.828 2.223-.828m6.688 3.488v1.266c0 .633.097 1.038.292 1.233.146.162.373.227.682.227h.064c.293 0 .52-.065.682-.227.195-.195.292-.6.292-1.233v-1.266c0-.616-.097-1.038-.292-1.233-.162-.146-.39-.227-.681-.227h-.065c-.309 0-.536.081-.682.227-.195.195-.292.617-.292 1.233m4.624.098v1.054c0 .811-.081 1.428-.243 1.882a2.3 2.3 0 0 1-.78 1.087c-.534.422-1.362.633-2.498.633h-.194c-1.136 0-1.98-.21-2.499-.633a2.3 2.3 0 0 1-.778-1.087c-.163-.454-.244-1.07-.244-1.882v-1.038c0-.795.081-1.412.243-1.866.163-.454.422-.811.78-1.103.518-.422 1.362-.633 2.498-.633h.194c1.136 0 1.963.211 2.499.633.357.292.616.649.779 1.087.162.454.243 1.07.243 1.866m1.178-.828v-.21c0-.796.211-1.396.633-1.818.487-.486 1.314-.73 2.466-.73h.162c.909 0 1.704.098 2.369.292q.195.074.243.146a.46.46 0 0 1 .033.276l-.179 1.33c-.032.211-.178.276-.438.211-.649-.146-1.233-.227-1.719-.227h-.017c-.357 0-.616.033-.746.098-.146.064-.211.178-.211.34v.049c0 .162.049.276.179.34.129.066.373.147.746.212l.762.162c.698.162 1.201.405 1.493.73s.438.827.438 1.492v.244c0 1.703-1.071 2.547-3.18 2.547h-.162c-1.07 0-1.963-.146-2.71-.438-.145-.049-.243-.114-.275-.195-.033-.065-.033-.194 0-.373l.227-1.07c.049-.309.227-.406.552-.309.746.26 1.395.373 1.946.373h.049c.357 0 .6-.032.746-.113.13-.065.211-.195.211-.373v-.05a.35.35 0 0 0-.178-.307q-.195-.097-.779-.244l-.714-.162q-1.071-.244-1.509-.73c-.292-.325-.438-.811-.438-1.493m1.51-4.753 2.546-2.174a.46.46 0 0 1 .309-.146c.113 0 .227.08.324.21l.779 1.006a.48.48 0 0 1 .097.276c0 .13-.097.26-.259.39l-2.564 1.752a.6.6 0 0 1-.324.113c-.13 0-.26-.065-.39-.227l-.486-.568c-.13-.146-.179-.275-.179-.373s.049-.194.146-.26m9.784 8.144h.13c.438 0 .909-.065 1.411-.21.163-.033.26-.05.309-.05.162 0 .259.098.292.276l.146.828c.032.227.065.373.065.438 0 .194-.146.34-.422.438-.714.26-1.493.373-2.336.373h-.195c-1.168 0-2.028-.26-2.563-.811q-.828-.828-.828-2.775v-.94c0-.763.065-1.363.195-1.785q.194-.633.633-1.07c.567-.569 1.46-.86 2.676-.86h.163c.973 0 1.817.178 2.498.535.195.113.308.243.308.405 0 .098-.048.26-.129.487l-.309.779q-.121.292-.34.292a.66.66 0 0 1-.292-.081c-.519-.211-1.006-.325-1.444-.325h-.065c-.422 0-.73.114-.925.308-.243.244-.357.747-.357 1.493v.552c0 .665.098 1.12.325 1.362.211.228.567.341 1.054.341m6.264-5.532v7.009c0 .162-.048.292-.129.356-.082.082-.228.114-.422.114h-1.493c-.211 0-.357-.032-.438-.114-.081-.064-.114-.194-.114-.356V7.52c0-.161.033-.275.114-.356.081-.065.227-.114.438-.114h1.493c.194 0 .34.049.422.114a.48.48 0 0 1 .129.357m-1.2-1.087h-.195c-.876 0-1.314-.438-1.314-1.347v-.081c0-.892.438-1.347 1.314-1.347h.195c.876 0 1.314.455 1.314 1.347v.081c0 .909-.438 1.347-1.314 1.347m5.234 3.958v1.266c0 .633.097 1.038.292 1.233.146.162.373.227.681.227h.065c.292 0 .52-.065.682-.227.194-.195.292-.6.292-1.233v-1.266c0-.616-.098-1.038-.292-1.233-.162-.146-.39-.227-.682-.227h-.065c-.308 0-.535.081-.681.227-.195.195-.292.617-.292 1.233m4.624.098v1.054c0 .811-.081 1.428-.244 1.882a2.3 2.3 0 0 1-.778 1.087c-.536.422-1.363.633-2.499.633h-.194c-1.136 0-1.98-.21-2.499-.633a2.33 2.33 0 0 1-.779-1.087c-.162-.454-.243-1.07-.243-1.882v-1.038c0-.795.081-1.412.243-1.866a2.46 2.46 0 0 1 .779-1.103c.519-.422 1.363-.633 2.499-.633h.194c1.136 0 1.963.211 2.499.633.357.292.616.649.778 1.087.163.454.244 1.07.244 1.866m8.398-.552v4.592c0 .162-.049.292-.13.356-.081.082-.227.114-.422.114h-1.492c-.211 0-.357-.032-.438-.114-.082-.064-.114-.194-.114-.356V9.938c0-.357-.065-.616-.179-.746-.129-.13-.373-.211-.713-.211h-.033c-.357 0-.584.081-.714.21-.129.13-.178.39-.178.747v4.592c0 .162-.049.292-.13.356-.081.082-.227.114-.422.114h-1.492c-.211 0-.357-.032-.438-.114-.082-.064-.114-.194-.114-.356V7.505c0-.163.032-.276.114-.341.081-.065.227-.114.438-.114h.762c.195 0 .325.033.406.081q.122.073.194.292l.098.309h.048c.52-.552 1.25-.828 2.223-.828h.065c.925 0 1.639.26 2.142.747.519-.487 1.265-.747 2.206-.747h.065c.941 0 1.639.227 2.06.665.39.422.601 1.136.601 2.142v4.819c0 .162-.049.292-.13.356-.081.082-.227.114-.422.114h-1.493c-.21 0-.356-.032-.438-.114-.081-.064-.113-.194-.113-.356V9.938c0-.357-.065-.616-.179-.746-.129-.13-.373-.211-.713-.211h-.033c-.357 0-.584.081-.714.21-.13.13-.178.39-.178.747m11.513-2.012h.048c.357-.584.958-.876 1.818-.876h.648c.163 0 .293.033.357.098.065.064.114.178.114.357v1.184c0 .178-.032.292-.097.357q-.098.097-.341.097h-.487c-.6 0-1.006.114-1.233.34-.195.196-.276.569-.276 1.12v3.927c0 .162-.048.292-.129.356-.082.082-.228.114-.422.114h-1.493c-.211 0-.357-.032-.438-.114-.081-.064-.113-.194-.113-.356V7.505c0-.163.032-.276.113-.341s.227-.114.438-.114h.779c.178 0 .308.033.389.081a.66.66 0 0 1 .195.292zm6.234 2.466v1.266c0 .633.097 1.038.292 1.233.146.162.373.227.681.227h.065c.292 0 .519-.065.681-.227.195-.195.292-.6.292-1.233v-1.266c0-.616-.097-1.038-.292-1.233-.162-.146-.389-.227-.681-.227h-.065c-.308 0-.535.081-.681.227-.195.195-.292.617-.292 1.233m4.623.098v1.054c0 .811-.081 1.428-.243 1.882a2.3 2.3 0 0 1-.779 1.087c-.535.422-1.363.633-2.498.633h-.195c-1.136 0-1.979-.21-2.498-.633a2.3 2.3 0 0 1-.779-1.087c-.162-.454-.243-1.07-.243-1.882v-1.038c0-.795.081-1.412.243-1.866s.422-.811.779-1.103c.519-.422 1.362-.633 2.498-.633h.195c1.135 0 1.963.211 2.498.633.357.292.617.649.779 1.087.162.454.243 1.07.243 1.866m1.179-.828v-.21c0-.796.211-1.396.632-1.818.487-.486 1.315-.73 2.466-.73h.163c.908 0 1.703.098 2.368.292q.195.074.244.146c.032.065.048.146.032.276l-.178 1.33c-.033.211-.179.276-.438.211-.649-.146-1.233-.227-1.72-.227h-.016c-.357 0-.617.033-.747.098-.146.064-.21.178-.21.34v.049c0 .162.048.276.178.34.13.066.373.147.746.212l.763.162c.697.162 1.2.405 1.492.73s.438.827.438 1.492v.244c0 1.703-1.07 2.547-3.179 2.547h-.163c-1.07 0-1.963-.146-2.709-.438-.146-.049-.243-.114-.276-.195-.032-.065-.032-.194 0-.373l.227-1.07c.049-.309.227-.406.552-.309.746.26 1.395.373 1.947.373h.048c.357 0 .601-.032.747-.113.13-.065.211-.195.211-.373v-.05a.35.35 0 0 0-.179-.307q-.194-.097-.779-.244l-.713-.162q-1.071-.244-1.509-.73c-.292-.325-.438-.811-.438-1.493m11.845-2.758h.13c.941 0 1.639.227 2.06.665.39.422.601 1.136.601 2.142v4.819c0 .162-.049.292-.13.356-.081.082-.227.114-.422.114h-1.492c-.211 0-.357-.032-.439-.114-.081-.064-.113-.194-.113-.356V9.938c0-.357-.065-.616-.179-.746-.129-.13-.373-.211-.713-.211h-.098c-.357 0-.584.081-.714.21-.129.13-.178.39-.178.747v4.592c0 .162-.049.292-.13.356-.081.082-.227.114-.422.114h-1.492c-.211 0-.357-.032-.438-.114-.081-.064-.114-.194-.114-.356V7.505c0-.163.033-.276.114-.341s.227-.114.438-.114h.762c.195 0 .325.033.406.081q.121.073.195.292l.097.309h.049c.519-.552 1.249-.828 2.222-.828m9.025 7.43h-.033c-.357.552-1.07.812-2.125.812h-.243c-.828 0-1.477-.21-1.931-.633-.47-.421-.698-1.054-.698-1.865v-.179c0-.876.244-1.509.747-1.866s1.314-.535 2.45-.535h.113c.422 0 .811.032 1.136.065v-.34c0-.342-.098-.585-.276-.715-.195-.113-.519-.178-.973-.178-.552 0-1.169.097-1.882.276-.195.048-.341.048-.406 0-.081-.05-.13-.146-.146-.309l-.13-.86c-.032-.162-.032-.275-.032-.324 0-.195.129-.34.389-.422a10.5 10.5 0 0 1 2.774-.357c1.25 0 2.142.276 2.661.795.406.422.617 1.103.617 2.028v4.819c0 .243-.098.39-.26.454-.406.162-.746.39-1.006.681-.276.292-.405.6-.405.909v.049q0 .438.438.438h.048c.195 0 .438-.033.698-.13.081-.016.146-.033.195-.033.081 0 .146.082.194.211l.081.341c.049.227.082.34.082.373 0 .098-.082.179-.228.244q-.632.243-1.314.243h-.097c-.552 0-.99-.114-1.282-.357s-.438-.584-.438-1.006v-.081c0-.39.13-.763.406-1.12a3.05 3.05 0 0 1 1.038-.876zm-.584-2.076v-.454a4.7 4.7 0 0 0-.779-.049h-.178q-.585 0-.828.146c-.162.098-.227.292-.227.584v.065c0 .292.065.487.227.584.146.114.373.162.682.162h.113c.325 0 .568-.08.763-.243.146-.13.227-.405.227-.795m7.929.795h.13c.438 0 .908-.065 1.411-.21.162-.033.26-.05.308-.05.163 0 .26.098.292.276l.146.828c.033.227.065.373.065.438 0 .194-.146.34-.422.438-.713.26-1.492.373-2.336.373h-.195c-1.168 0-2.028-.26-2.563-.811q-.827-.828-.827-2.775v-.94c0-.763.065-1.363.194-1.785q.195-.633.633-1.07c.568-.569 1.46-.86 2.677-.86h.162c.974 0 1.817.178 2.499.535.194.113.308.243.308.405 0 .098-.049.26-.13.487l-.308.779q-.122.292-.341.292a.66.66 0 0 1-.292-.081c-.519-.211-1.006-.325-1.444-.325h-.065c-.421 0-.73.114-.924.308-.244.244-.357.747-.357 1.493v.552c0 .665.097 1.12.324 1.362.211.228.568.341 1.055.341m-1.996-8.144 2.547-2.174a.46.46 0 0 1 .309-.146c.113 0 .227.08.324.21l.779 1.006a.48.48 0 0 1 .097.276c0 .13-.097.26-.259.39l-2.564 1.752a.56.56 0 0 1-.324.113c-.13 0-.26-.065-.39-.227l-.486-.568c-.13-.146-.179-.275-.179-.373s.049-.194.146-.26m11.745 5.143v2.076c0 .373.065.633.227.78.13.145.373.21.73.21h.146c.373 0 .633-.097.795-.325q.195-.292.195-1.411v-.698c0-.81-.082-1.314-.211-1.476-.146-.162-.422-.26-.812-.26h-.064c-.374 0-.633.082-.795.244-.146.146-.211.438-.211.86m0-2.71h.032q.706-.438 1.85-.438h.146c.973 0 1.687.292 2.125.876.357.503.552 1.396.552 2.677v1.168c0 1.298-.276 2.207-.828 2.71-.584.551-1.509.811-2.774.811h-.325c-1.33 0-2.238-.26-2.725-.795-.438-.47-.649-1.233-.649-2.304v-7.56c0-.162.032-.276.113-.357.065-.065.211-.114.422-.114h1.509c.195 0 .341.049.422.114.081.081.13.195.13.357zm9.963 5.711h.179c.551 0 1.136-.065 1.72-.21.162-.033.259-.05.308-.05.162 0 .259.098.292.276l.13.811c.032.228.065.374.065.439 0 .194-.146.34-.422.438-.747.26-1.574.389-2.45.389h-.308q-1.996 0-2.823-.827a2.3 2.3 0 0 1-.649-1.104c-.114-.421-.162-.99-.162-1.687v-.909c0-1.411.324-2.4.973-2.985.552-.486 1.395-.73 2.547-.73h.227c1.136 0 1.963.276 2.45.811.519.584.779 1.542.779 2.905v.843c0 .308-.162.454-.471.454h-3.893v.13c0 .39.097.65.324.795.211.146.6.211 1.184.211m-1.508-2.823h1.784c.13 0 .195-.065.195-.21v-.26c0-.325-.065-.568-.162-.747-.13-.194-.39-.292-.747-.292h-.146c-.324 0-.551.081-.681.227q-.243.292-.243.877zm8.388-1.12h-2.58c-.162 0-.276-.016-.341-.08-.064-.065-.081-.195-.081-.39V7.52c0-.194.017-.308.081-.372q.098-.098.341-.098h5.484c.162 0 .276.033.357.098.065.064.113.194.113.373v.308c0 .422-.129.811-.357 1.152l-2.79 3.959h2.774c.162 0 .26.032.325.097s.097.178.097.373v1.12q0 .291-.097.389c-.065.065-.163.081-.325.081h-5.581c-.341 0-.503-.146-.503-.47v-.374c0-.421.114-.795.357-1.152zm10.386 1.282v1.266c0 .633.098 1.038.292 1.233.146.162.374.227.682.227h.065c.292 0 .519-.065.681-.227.195-.195.292-.6.292-1.233v-1.266c0-.616-.097-1.038-.292-1.233-.162-.146-.389-.227-.681-.227h-.065c-.308 0-.536.081-.682.227-.194.195-.292.617-.292 1.233m4.624.098v1.054c0 .811-.081 1.428-.243 1.882a2.3 2.3 0 0 1-.779 1.087c-.535.422-1.363.633-2.498.633h-.195c-1.136 0-1.979-.21-2.499-.633a2.33 2.33 0 0 1-.778-1.087c-.163-.454-.244-1.07-.244-1.882v-1.038c0-.795.081-1.412.244-1.866s.422-.811.778-1.103c.52-.422 1.363-.633 2.499-.633h.195c1.135 0 1.963.211 2.498.633.357.292.617.649.779 1.087.162.454.243 1.07.243 1.866m4.975 3.764h-.438c-2.304 0-3.44-1.039-3.44-3.131v-1.087c0-1.071.276-1.85.844-2.37.552-.502 1.412-.762 2.547-.762h.227c.211-1.168 1.071-1.768 2.596-1.768h.795c.162 0 .26.032.325.08.048.066.081.18.081.342v.892c0 .162-.033.26-.098.308-.064.065-.178.081-.324.081h-.763c-.357 0-.6.081-.746.244 1.217.324 1.833 1.314 1.833 2.953v1.087c0 1.168-.324 1.946-.957 2.368.422.227.747.52.99.876.243.357.373.747.373 1.152v.114c0 1.606-1.282 2.4-3.813 2.4h-.308a8.8 8.8 0 0 1-3.18-.583c-.292-.098-.405-.308-.324-.617l.292-1.038c.081-.308.276-.422.584-.325.957.325 1.801.471 2.547.471h.227q1.412 0 1.412-.827v-.05c0-.307-.163-.583-.487-.843-.26.033-.535.033-.795.033m-.276-2.028h.114c.357 0 .6-.065.762-.227.179-.179.276-.552.276-1.104v-.632c0-.552-.097-.909-.276-1.104-.162-.146-.405-.227-.762-.227h-.114c-.357 0-.616.081-.762.227-.195.195-.276.552-.276 1.104v.632c0 .552.081.925.276 1.104.146.162.405.227.762.227m7.211-4.3h.049c.357-.584.957-.876 1.817-.876h.649c.162 0 .292.033.357.098.065.064.113.178.113.357v1.184c0 .178-.032.292-.097.357q-.098.097-.341.097h-.486c-.601 0-1.006.114-1.234.34-.194.196-.275.569-.275 1.12v3.927c0 .162-.049.292-.13.356-.081.082-.227.114-.422.114h-1.493c-.21 0-.356-.032-.438-.114-.081-.064-.113-.194-.113-.356V7.505c0-.163.032-.276.113-.341.082-.065.228-.114.438-.114h.779c.179 0 .308.033.39.081a.65.65 0 0 1 .194.292zm8.38 6.409h-.032c-.357.551-1.071.811-2.126.811h-.243c-.828 0-1.477-.21-1.931-.633-.47-.421-.697-1.054-.697-1.865v-.179c0-.876.243-1.509.746-1.866s1.314-.535 2.45-.535h.113c.422 0 .811.032 1.136.065v-.34c0-.342-.097-.585-.276-.715-.195-.113-.519-.178-.973-.178-.552 0-1.168.097-1.882.276-.195.048-.341.048-.406 0-.081-.05-.13-.146-.146-.309l-.13-.86c-.032-.146-.032-.26-.032-.324 0-.195.13-.34.389-.422a10.5 10.5 0 0 1 2.775-.357c1.249 0 2.141.276 2.66.795.406.422.617 1.103.617 2.028v4.819c0 .162-.049.292-.13.357s-.227.097-.422.097h-.762c-.195 0-.325-.016-.406-.065s-.146-.146-.195-.308zm-.584-2.077v-.454a4.7 4.7 0 0 0-.779-.049h-.178q-.584 0-.828.146c-.162.098-.227.292-.227.584v.065c0 .292.065.487.227.584.146.114.373.162.682.162h.113c.325 0 .568-.08.763-.243.146-.13.227-.405.227-.795m8.417-5.354h.13c.941 0 1.639.227 2.06.665.39.422.601 1.136.601 2.142v4.819c0 .162-.049.292-.13.356-.081.082-.227.114-.422.114h-1.493c-.21 0-.356-.032-.438-.114-.081-.064-.113-.194-.113-.356V9.938c0-.357-.065-.616-.179-.746-.129-.13-.373-.211-.713-.211h-.098c-.357 0-.584.081-.714.21-.129.13-.178.39-.178.747v4.592c0 .162-.049.292-.13.356-.081.082-.227.114-.422.114h-1.492c-.211 0-.357-.032-.438-.114-.082-.064-.114-.194-.114-.356V7.505c0-.163.032-.276.114-.341.081-.065.227-.114.438-.114h.762c.195 0 .325.033.406.081q.122.073.194.292l.098.309h.048c.52-.552 1.25-.828 2.223-.828m6.964.617v7.009c0 .162-.048.292-.129.356-.082.082-.228.114-.422.114h-1.493c-.211 0-.357-.032-.438-.114-.081-.064-.114-.194-.114-.356V7.52c0-.161.033-.275.114-.356.081-.065.227-.114.438-.114h1.493c.194 0 .34.049.422.114a.48.48 0 0 1 .129.357m-1.2-1.087h-.195c-.876 0-1.314-.438-1.314-1.347v-.081c0-.892.438-1.347 1.314-1.347h.195c.876 0 1.314.455 1.314 1.347v.081c0 .909-.438 1.347-1.314 1.347m6.613 6.62h.13c.438 0 .908-.066 1.411-.212.163-.032.26-.049.309-.049.162 0 .259.098.292.276l.146.828c.032.227.065.373.065.438 0 .194-.146.34-.422.438-.714.26-1.493.373-2.337.373h-.194c-1.168 0-2.028-.26-2.564-.811q-.827-.828-.827-2.775v-.94c0-.763.065-1.363.195-1.785q.194-.633.632-1.07c.568-.569 1.461-.86 2.677-.86h.163c.973 0 1.817.178 2.498.535.195.113.308.243.308.405 0 .098-.048.26-.129.487l-.309.779q-.121.292-.34.292a.66.66 0 0 1-.292-.081c-.52-.211-1.006-.325-1.444-.325h-.065c-.422 0-.73.114-.925.308-.243.244-.357.747-.357 1.493v.552c0 .665.097 1.12.325 1.362.21.228.567.341 1.054.341m6.28-3.943h-2.579c-.162 0-.276-.017-.341-.081-.065-.065-.081-.195-.081-.39V7.52c0-.194.016-.308.081-.372q.098-.098.341-.098h5.483c.163 0 .276.033.357.098.065.064.114.194.114.373v.308c0 .422-.13.811-.357 1.152l-2.79 3.959h2.774c.162 0 .259.032.324.097s.098.178.098.373v1.12q0 .291-.098.389c-.065.065-.162.081-.324.081h-5.581c-.341 0-.503-.146-.503-.47v-.374c0-.421.113-.795.357-1.152zm8.379 3.942h.178c.552 0 1.136-.065 1.72-.21.162-.033.259-.05.308-.05.162 0 .26.098.292.276l.13.811c.032.228.065.374.065.439 0 .194-.146.34-.422.438-.746.26-1.574.389-2.45.389h-.308q-1.997 0-2.823-.827a2.3 2.3 0 0 1-.649-1.104c-.114-.421-.162-.99-.162-1.687v-.909c0-1.411.324-2.4.973-2.985.552-.486 1.395-.73 2.547-.73h.227c1.136 0 1.964.276 2.45.811.519.584.779 1.542.779 2.905v.843c0 .308-.162.454-.471.454h-3.893v.13c0 .39.097.65.324.795.211.146.601.211 1.185.211m-1.509-2.823h1.784c.13 0 .195-.065.195-.21v-.26c0-.325-.065-.568-.162-.747-.13-.194-.39-.292-.746-.292h-.146c-.325 0-.552.081-.682.227q-.243.292-.243.877zm10.027-3.326h.129c.941 0 1.639.227 2.061.665.389.422.6 1.136.6 2.142v4.819c0 .162-.049.292-.13.356-.081.082-.227.114-.422.114h-1.492c-.211 0-.357-.032-.438-.114-.081-.064-.114-.194-.114-.356V9.938c0-.357-.065-.616-.178-.746-.13-.13-.373-.211-.714-.211h-.097c-.357 0-.584.081-.714.21-.13.13-.179.39-.179.747v4.592c0 .162-.048.292-.13.356-.081.082-.227.114-.421.114h-1.493c-.211 0-.357-.032-.438-.114-.081-.064-.114-.194-.114-.356V7.505c0-.163.033-.276.114-.341s.227-.114.438-.114h.763c.194 0 .324.033.405.081q.122.073.195.292l.097.309h.049c.519-.552 1.249-.828 2.223-.828m-2.288-1.995 2.547-2.174a.45.45 0 0 1 .308-.146c.114 0 .228.08.325.21l.779 1.006a.48.48 0 0 1 .097.276c0 .13-.097.26-.26.39l-2.563 1.752a.6.6 0 0 1-.324.113c-.13 0-.26-.065-.39-.227l-.487-.568c-.129-.146-.178-.275-.178-.373s.049-.194.146-.26"/></svg>