<svg xmlns="http://www.w3.org/2000/svg" fill="none" viewBox="0 0 268 30"><path fill="#000" d="M1.11 5.056v.236q0 1.438.393 1.896.342.403 1.04.401c.506 0 .864-.148 1.091-.454q.34-.47.34-1.843v-.236q-.002-.681-.069-1.127c-.044-.297-.131-.533-.27-.725-.228-.297-.586-.446-1.093-.446q-.747 0-1.074.446c-.245.314-.359.935-.359 1.852m3.503-.105v.454c0 1.014-.184 1.713-.533 2.115-.332.375-.839.559-1.538.559-.655 0-1.144-.166-1.476-.498C.664 7.179.472 6.454.472 5.405v-.454c0-1.013.183-1.73.55-2.14.323-.358.83-.542 1.52-.542.682 0 1.188.184 1.52.542.367.41.55 1.127.55 2.14m2.83 3.128c-.559 0-.96-.149-1.196-.463h-.018V9.45c0 .07-.035.096-.087.096h-.393c-.062 0-.088-.026-.088-.096V3.815c0-.06.026-.096.088-.096h.262c.06 0 .096.035.104.096l.053.35h.017c.245-.35.673-.524 1.267-.524.568 0 .979.157 1.223.471.245.315.376.804.376 1.486v.454q0 1.01-.367 1.52c-.245.34-.655.507-1.24.507m-.07-3.95c-.768.001-1.144.368-1.144 1.102v1.231c0 .376.096.656.306.848.2.192.489.28.856.28.384 0 .673-.105.847-.324q.237-.288.236-1.258v-.332c0-.611-.096-1.03-.27-1.249-.175-.192-.446-.297-.83-.297M10.466 8h-.28c-.095 0-.14-.035-.14-.114v-4.07c0-.062.036-.097.106-.097h.253c.053 0 .087.035.105.096l.035.455h.017q.291-.55 1.014-.55h.227c.07 0 .113.034.113.104v.297c0 .07-.043.096-.113.096h-.236c-.384 0-.655.123-.795.358-.105.175-.157.402-.157.69v2.621c0 .08-.053.114-.149.114m2.567-2.228v.166c0 .437.026.752.087.961.131.463.472.69 1.014.69.541 0 .882-.227 1.022-.69.052-.21.087-.524.087-.96v-.167c0-.428-.035-.751-.087-.96q-.197-.682-1.022-.682c-.55 0-.892.227-1.014.681q-.088.317-.087.961m2.787-.087v.35c0 .786-.158 1.336-.455 1.633-.28.28-.69.41-1.231.41s-.944-.13-1.223-.41c-.306-.297-.455-.847-.455-1.634v-.349c0-.786.149-1.337.455-1.642.27-.262.681-.402 1.223-.402.541 0 .952.14 1.231.402.297.305.455.856.455 1.642m3.578 1.8.061.2q.027.092 0 .132c-.017.026-.061.052-.148.087-.289.122-.62.175-.996.175q-.813.002-1.206-.376-.508-.458-.507-1.73v-.288c0-.769.175-1.32.533-1.651q.42-.393 1.18-.393c.227 0 .463.043.69.113.227.079.42.166.559.271.044.035.044.087.009.14l-.149.245c-.035.052-.078.06-.148.017-.332-.192-.647-.297-.961-.297-.341 0-.603.096-.787.27q-.35.354-.349 1.364v.148c0 .664.087 1.118.28 1.345.174.228.463.332.882.332.28 0 .56-.052.847-.166.114-.043.184-.026.21.062m3.958-2.35v.716q-.002.183-.07.262c-.052.052-.13.07-.253.07H20.78c.018.524.105.891.28 1.1.166.21.454.306.865.306.34 0 .664-.052.96-.174.114-.044.184-.027.21.06l.061.202a.17.17 0 0 1-.008.13q-.027.053-.184.106a2.9 2.9 0 0 1-1.04.166q-.956.002-1.336-.48c-.262-.315-.384-.84-.384-1.565v-.349c0-.699.122-1.214.375-1.546.245-.332.673-.498 1.267-.498.498 0 .874.122 1.127.358.253.253.384.629.384 1.136M21.854 4.13c-.385 0-.664.114-.821.332-.166.227-.254.629-.254 1.223h1.878c.044 0 .08 0 .097-.018s.026-.052.026-.113v-.332c0-.376-.07-.647-.201-.812-.157-.184-.393-.28-.725-.28m5.784 3.721c0 .105-.061.149-.166.149h-.245q-.105 0-.13-.026c-.018-.018-.027-.053-.027-.123v-2.55c0-.516-.14-.857-.402-1.023-.174-.104-.41-.166-.707-.166-.411 0-.7.123-.856.367q-.158.237-.158.682v2.708q0 .13-.157.131h-.27c-.097 0-.14-.044-.14-.131V3.815c0-.06.026-.096.087-.096h.262c.061 0 .096.035.105.096l.043.35h.018c.07-.122.192-.227.358-.332.218-.122.49-.192.821-.192.673 0 1.127.2 1.354.585q.21.367.21 1.127zM30.624 8h-.41c-.454 0-.786-.114-.979-.35q-.288-.339-.288-1.004V4.217h-.533c-.061 0-.087-.026-.087-.096v-.175c0-.07.026-.104.087-.113l.533-.114v-.987q0-.105.105-.105h.367c.061 0 .096.035.096.105v.987h1.022c.052 0 .087.035.087.088v.323c0 .061-.035.087-.087.087h-1.022v2.359c0 .35.052.594.157.716.105.149.323.219.638.219h.314c.07 0 .105.035.105.096v.297c0 .07-.035.096-.105.096m1.306-2.228v.166c0 .437.026.752.087.961.131.463.472.69 1.013.69.542 0 .883-.227 1.023-.69.052-.21.087-.524.087-.96v-.167c0-.428-.035-.751-.087-.96q-.197-.682-1.023-.682-.827 0-1.013.681c-.061.21-.087.533-.087.961m2.786-.087v.35c0 .786-.157 1.336-.454 1.633-.28.28-.69.41-1.232.41-.541 0-.943-.13-1.223-.41-.305-.297-.454-.847-.454-1.634v-.349c0-.786.148-1.337.454-1.642.271-.262.682-.402 1.223-.402.542 0 .953.14 1.232.402.297.305.454.856.454 1.642m3.107-1.756h.393c.157 0 .262.087.297.245a47 47 0 0 0 .795 3.38h.044c.323-1.24.594-2.49.812-3.73 0-.052.018-.078.035-.087a.3.3 0 0 1 .123-.018h.27q.092 0 .131.027c.018.017.027.043.027.096q-.29 1.467-.892 3.8c-.07.244-.192.358-.366.358h-.297q-.173 0-.254-.079c-.061-.052-.105-.14-.14-.28a55 55 0 0 1-.75-3.188h-.062a63 63 0 0 1-.751 3.189.6.6 0 0 1-.14.28.38.38 0 0 1-.253.078h-.297c-.184 0-.306-.114-.367-.358q-.617-2.333-.891-3.8c-.01-.053 0-.079.026-.096q.025-.027.13-.027h.272q.131 0 .157.105c.21 1.24.48 2.49.812 3.73h.044q.404-1.493.795-3.38c.035-.158.131-.245.297-.245m6.072 3.984-.017-.297h-.018c-.192.314-.506.463-.926.463h-.436c-.42 0-.726-.105-.935-.315s-.315-.48-.315-.821V6.68q0-.825.682-1.1.288-.122 1.048-.123h.262c.21 0 .41.009.585.026v-.498c0-.314-.087-.542-.253-.664-.175-.122-.437-.192-.804-.192-.305 0-.602.044-.9.131-.14.035-.21.017-.227-.07l-.043-.183c-.035-.105 0-.166.096-.201a4 4 0 0 1 1.118-.166c.56 0 .961.105 1.206.305.244.201.375.525.375.979v2.988c0 .06-.035.087-.096.087h-.288c-.079 0-.114-.026-.114-.087m-.07-1.223v-.725a4 4 0 0 0-.524-.027h-.489c-.367 0-.62.061-.769.175q-.22.17-.218.577v.183q0 .395.183.568c.105.105.289.157.533.157h.358c.289 0 .516-.07.682-.227.157-.157.244-.384.244-.681m4.987 1.161c0 .105-.06.149-.165.149h-.245q-.105 0-.131-.026c-.018-.018-.026-.053-.026-.123v-2.55c0-.516-.14-.857-.402-1.023-.175-.104-.41-.166-.708-.166-.41 0-.699.123-.856.367q-.157.237-.157.682v2.708q0 .13-.157.131h-.271c-.096 0-.14-.044-.14-.131V3.815c0-.06.026-.096.087-.096h.262c.062 0 .096.035.105.096l.044.35h.017c.07-.122.193-.227.358-.332.219-.122.49-.192.822-.192.672 0 1.127.2 1.354.585q.21.367.21 1.127zm1.843-4.036V7.93c0 .053-.027.07-.08.07h-.418c-.053 0-.07-.017-.07-.07V3.815c0-.06.035-.096.104-.096h.359c.07 0 .105.035.105.096m.122-1.249v.053q-.002.42-.385.419h-.035q-.403 0-.401-.42v-.052c0-.27.13-.41.401-.41h.035c.254 0 .385.14.385.41m4.136 2.569v.716c0 .122-.026.21-.07.262-.052.052-.13.07-.253.07h-2.254c.018.524.105.891.28 1.1.166.21.454.306.865.306.34 0 .664-.052.96-.174.114-.044.184-.027.21.06l.061.202a.17.17 0 0 1-.008.13q-.027.053-.184.106a2.9 2.9 0 0 1-1.04.166q-.955.002-1.336-.48c-.262-.315-.384-.84-.384-1.565v-.349c0-.699.122-1.214.375-1.546.245-.332.673-.498 1.267-.498.498 0 .874.122 1.127.358.253.253.384.629.384 1.136M53.412 4.13c-.385 0-.664.114-.821.332-.166.227-.254.629-.254 1.223h1.879c.043 0 .078 0 .096-.018.017-.017.026-.052.026-.113v-.332c0-.376-.07-.647-.201-.812-.157-.184-.393-.28-.725-.28m5 3.87h-.279c-.096 0-.14-.035-.14-.114v-4.07c0-.062.035-.097.105-.097h.254c.052 0 .087.035.105.096l.034.455h.018c.192-.367.533-.55 1.013-.55h.227c.07 0 .114.034.114.104v.297c0 .07-.044.096-.114.096h-.235c-.385 0-.656.123-.795.358-.105.175-.158.402-.158.69v2.621c0 .08-.052.114-.148.114m2.567-2.228v.166c0 .437.027.752.088.961.13.463.472.69 1.013.69.542 0 .883-.227 1.022-.69.053-.21.088-.524.088-.96v-.167c0-.428-.035-.751-.088-.96q-.195-.682-1.022-.682t-1.013.681q-.09.317-.088.961m2.787-.087v.35c0 .786-.157 1.336-.454 1.633-.28.28-.69.41-1.232.41-.541 0-.943-.13-1.223-.41-.306-.297-.454-.847-.454-1.634v-.349c0-.786.148-1.337.454-1.642.271-.262.682-.402 1.223-.402.542 0 .953.14 1.232.402.297.305.454.856.454 1.642m3.579 1.8.06.2q.027.092 0 .132c-.017.026-.06.052-.148.087-.288.122-.62.175-.996.175q-.812.002-1.205-.376-.508-.458-.507-1.73v-.288q-.002-1.154.533-1.651.42-.393 1.18-.393c.227 0 .462.043.69.113.227.079.419.166.559.271.043.035.043.087.008.14l-.148.245c-.035.052-.079.06-.149.017-.332-.192-.646-.297-.96-.297-.341 0-.603.096-.787.27-.236.237-.35.69-.35 1.364v.148c0 .664.088 1.118.28 1.345.175.228.463.332.883.332.28 0 .559-.052.847-.166.114-.043.183-.026.21.062m3.6.113v.315c0 .06-.035.087-.088.087h-2.725c-.061 0-.088-.026-.088-.087v-.149c0-.087.053-.21.158-.384l1.922-3.171h-1.931c-.061 0-.087-.027-.087-.088v-.314c0-.053.026-.088.087-.088h2.586c.052 0 .087.035.087.088v.122q-.002.158-.227.524L68.76 7.511h2.096c.053 0 .088.035.088.087m4.12.253c0 .105-.062.149-.167.149h-.245q-.105 0-.13-.026c-.018-.018-.027-.053-.027-.123v-2.55c0-.516-.14-.857-.402-1.023-.174-.104-.41-.166-.707-.166-.41 0-.7.123-.856.367q-.158.237-.158.682v2.708q0 .13-.157.131h-.27c-.097 0-.14-.044-.14-.131V3.815c0-.06.026-.096.087-.096h.262c.061 0 .096.035.105.096l.043.35h.018c.07-.122.192-.227.358-.332.219-.122.49-.192.821-.192.673 0 1.127.2 1.355.585q.21.367.21 1.127zm4.104-2.716v.716q-.002.183-.07.262c-.052.052-.131.07-.253.07H76.59c.017.524.105.891.28 1.1.165.21.454.306.864.306.34 0 .664-.052.961-.174.114-.044.183-.027.21.06l.06.202a.17.17 0 0 1-.008.13q-.026.053-.183.106a2.9 2.9 0 0 1-1.04.166q-.957.002-1.337-.48c-.262-.315-.384-.84-.384-1.565v-.349c0-.699.122-1.214.376-1.546.244-.332.672-.498 1.266-.498.498 0 .874.122 1.127.358q.383.377.385 1.136M77.665 4.13c-.384 0-.664.114-.821.332-.166.227-.253.629-.253 1.223h1.878c.044 0 .079 0 .096-.018s.026-.052.026-.113v-.332c0-.376-.07-.647-.2-.812-.158-.184-.394-.28-.726-.28m7.753-1.948v4.385c0 .455-.114.804-.323 1.057q-.392.457-1.32.455c-.628 0-1.074-.14-1.336-.428q-.403-.42-.402-1.573v-.41c0-.69.131-1.197.41-1.53q.408-.497 1.285-.497.76 0 1.1.42h.018V2.18c0-.06.035-.095.105-.095h.358c.07 0 .105.035.105.096m-.568 4.307V5.292c0-.367-.096-.647-.27-.856-.175-.201-.437-.306-.787-.306-.393 0-.681.105-.856.297-.218.245-.323.673-.323 1.284v.297q0 .97.314 1.31c.157.184.437.271.839.271.437 0 .743-.104.9-.332.122-.166.183-.419.183-.768m2.325-4.307v4.674q0 .458.078.55c.044.07.149.096.315.096h.236c.07 0 .105.035.105.096v.297c0 .07-.035.105-.088.105h-.332c-.314 0-.541-.061-.672-.2-.14-.14-.21-.412-.21-.805V2.182c0-.061.035-.096.105-.096h.358c.07 0 .105.035.105.096m4 5.73-.017-.296h-.017c-.193.314-.507.463-.927.463h-.436c-.42 0-.725-.105-.935-.315s-.315-.48-.315-.821V6.68q0-.825.682-1.1.288-.122 1.048-.123h.262c.21 0 .41.009.586.026v-.498c0-.314-.088-.542-.254-.664-.175-.122-.437-.192-.803-.192-.306 0-.603.044-.9.131-.14.035-.21.017-.227-.07l-.044-.183c-.035-.105 0-.166.096-.201a4 4 0 0 1 1.118-.166c.56 0 .961.105 1.206.305.244.201.375.525.375.979v2.988c0 .06-.035.087-.096.087h-.288c-.079 0-.114-.026-.114-.087m-.07-1.222v-.725a4 4 0 0 0-.524-.027h-.489c-.367 0-.62.061-.769.175q-.22.17-.218.577v.183q0 .395.183.568c.105.105.289.157.533.157h.359c.288 0 .515-.07.681-.227.157-.157.245-.384.245-.681m4.335-4.508v3.285h.437c.088 0 .166-.044.228-.14l1.013-1.512a.19.19 0 0 1 .166-.096h.375c.097 0 .114.053.062.14l-1.24 1.8q-.054.076 0 .14l1.283 2.105c.035.07.009.096-.06.096h-.455c-.052 0-.087-.017-.105-.061l-1.1-1.86q-.054-.095-.184-.097h-.42V7.93c0 .053-.026.07-.078.07h-.41c-.053 0-.08-.017-.08-.07V2.182c0-.061.036-.096.106-.096h.358c.07 0 .105.035.105.096m3.409 3.59v.166c0 .437.026.752.087.961.131.463.472.69 1.013.69.542 0 .883-.227 1.023-.69.052-.21.087-.524.087-.96v-.167c0-.428-.035-.751-.087-.96q-.197-.682-1.022-.682c-.55 0-.892.227-1.014.681-.061.21-.087.533-.087.961m2.787-.087v.35c0 .786-.158 1.336-.455 1.633-.279.28-.69.41-1.231.41s-.944-.13-1.224-.41c-.305-.297-.454-.847-.454-1.634v-.349c0-.786.149-1.337.454-1.642.271-.262.682-.402 1.224-.402s.952.14 1.231.402c.297.305.455.856.455 1.642m4.251 2.166c0 .105-.062.149-.166.149h-.245q-.105 0-.131-.026c-.018-.018-.026-.053-.026-.123v-2.55c0-.516-.14-.857-.402-1.023-.175-.104-.411-.166-.708-.166-.41 0-.699.123-.856.367q-.157.237-.157.682v2.708q0 .13-.157.131h-.271c-.096 0-.14-.044-.14-.131V3.815c0-.06.026-.096.087-.096h.262c.062 0 .097.035.105.096l.044.35h.017c.07-.122.193-.227.359-.332.218-.122.489-.192.821-.192.672 0 1.127.2 1.354.585q.21.367.21 1.127zm2.986.149h-.411c-.454 0-.786-.114-.978-.35q-.288-.339-.288-1.004V4.217h-.533c-.061 0-.088-.026-.088-.096v-.175c0-.07.027-.104.088-.113l.533-.114v-.987q0-.105.105-.105h.366q.095 0 .097.105v.987h1.022c.052 0 .087.035.087.088v.323c0 .061-.035.087-.087.087h-1.022v2.359c0 .35.052.594.157.716.105.149.323.219.638.219h.314c.07 0 .105.035.105.096v.297c0 .07-.035.096-.105.096m3.332-.087-.017-.297h-.018c-.192.314-.507.463-.926.463h-.437c-.419 0-.725-.105-.935-.315-.209-.21-.314-.48-.314-.821V6.68q0-.825.681-1.1.289-.122 1.049-.123h.262c.209 0 .41.009.585.026v-.498c0-.314-.087-.542-.253-.664-.175-.122-.437-.192-.804-.192-.306 0-.603.044-.9.131-.14.035-.209.017-.227-.07l-.044-.183c-.035-.105 0-.166.097-.201a4 4 0 0 1 1.118-.166c.559 0 .961.105 1.205.305.245.201.376.525.376.979v2.988c0 .06-.035.087-.096.087h-.288c-.079 0-.114-.026-.114-.087m-.07-1.223v-.725a4 4 0 0 0-.524-.027h-.489c-.367 0-.621.061-.769.175s-.218.306-.218.577v.183q0 .395.183.568c.105.105.288.157.533.157h.358c.288 0 .516-.07.681-.227.158-.157.245-.384.245-.681m4.152-.918v.166c0 .437.026.752.087.961.131.463.472.69 1.013.69.542 0 .883-.227 1.022-.69.053-.21.088-.524.088-.96v-.167c0-.428-.035-.751-.088-.96q-.196-.682-1.022-.682c-.55 0-.891.227-1.013.681-.061.21-.087.533-.087.961m2.786-.087v.35c0 .786-.157 1.336-.454 1.633-.279.28-.69.41-1.232.41-.541 0-.943-.13-1.223-.41-.305-.297-.454-.847-.454-1.634v-.349c0-.786.149-1.337.454-1.642.271-.262.682-.402 1.223-.402.542 0 .953.14 1.232.402.297.305.454.856.454 1.642m2.059 2.394c-.463 0-.856-.07-1.188-.21-.088-.035-.123-.079-.105-.149l.07-.253c.017-.087.078-.122.166-.087.358.14.707.21 1.057.21.349 0 .594-.053.742-.175.14-.114.219-.297.219-.56v-.052c0-.288-.079-.48-.236-.585-.096-.053-.297-.114-.612-.184l-.244-.043c-.297-.053-.525-.123-.682-.219q-.445-.25-.445-.908v-.088c0-.75.463-1.135 1.397-1.135.359 0 .682.043.979.122q.157.052.131.157l-.052.227c-.035.105-.097.149-.201.114a3.3 3.3 0 0 0-.865-.131c-.332 0-.568.061-.69.175-.123.105-.175.262-.175.454v.061c0 .192.044.34.14.428q.157.17.681.262l.227.044q.732.158.952.42c.14.191.219.454.219.768v.087c0 .35-.088.62-.245.813-.236.297-.646.437-1.24.437m5.026-.48v.314c0 .06-.035.087-.087.087h-2.726c-.061 0-.087-.026-.087-.087v-.149c0-.087.052-.21.157-.384l1.922-3.171h-1.931c-.061 0-.087-.027-.087-.088v-.314c0-.053.026-.088.087-.088h2.586c.053 0 .087.035.087.088v.122q-.002.158-.227.524l-1.878 3.058h2.097c.052 0 .087.035.087.087m3.447-.114.061.2q.025.092 0 .132c-.018.026-.061.052-.149.087-.288.122-.62.175-.996.175q-.812.002-1.205-.376c-.341-.306-.507-.882-.507-1.73v-.288c0-.769.175-1.32.533-1.651q.42-.393 1.179-.393c.228 0 .463.043.691.113.227.079.419.166.559.271.043.035.043.087.008.14l-.148.245c-.035.052-.079.06-.149.017-.332-.192-.646-.297-.961-.297-.34 0-.602.096-.786.27-.236.237-.349.69-.349 1.364v.148c0 .664.087 1.118.279 1.345.175.228.463.332.883.332.279 0 .559-.052.847-.166.114-.043.183-.026.21.062m3.6.113v.315c0 .06-.035.087-.087.087h-2.726c-.061 0-.087-.026-.087-.087v-.149c0-.087.052-.21.157-.384l1.922-3.171h-1.931c-.061 0-.087-.027-.087-.088v-.314c0-.053.026-.088.087-.088h2.586c.052 0 .087.035.087.088v.122q-.002.158-.227.524l-1.878 3.058h2.097c.052 0 .087.035.087.087m3.805-2.463v.69c0 .13-.027.227-.079.28q-.078.078-.262.078h-2.236c.017.524.104.891.279 1.1q.249.315.865.315c.341 0 .664-.052.961-.175.114-.043.183-.026.21.062l.052.166c0 .017.009.026.009.035v.026c0 .008-.009.017-.009.026l-.017.017c0 .01-.009.018-.018.027q-.015.026-.017.026l-.027.026q-.024.015-.035.017c-.008.01-.017.018-.034.035s-.027.027-.035.027c-.28.227-.472.41-.577.559a.83.83 0 0 0-.149.471q-.002.315.376.315c.14 0 .28-.026.419-.096q.094-.037.123.044l.052.244c.018.061-.009.105-.07.131a1.6 1.6 0 0 1-.646.131q-.839 0-.839-.655c0-.393.227-.734.69-1.013a3 3 0 0 1-.419.035q-.957.002-1.337-.48c-.262-.315-.384-.84-.384-1.565v-.349c0-.699.122-1.214.376-1.546.244-.332.672-.498 1.266-.498.498 0 .874.122 1.127.358.254.253.385.629.385 1.136m-1.503-1.014c-.384 0-.664.114-.821.34-.166.228-.253.63-.253 1.224h1.878c.043 0 .078 0 .096-.018.017-.017.026-.052.026-.113v-.332c0-.384-.07-.655-.201-.821-.157-.184-.393-.28-.725-.28m5.697-1.94v4.386c0 .455-.114.804-.323 1.057-.262.306-.699.455-1.32.455-.629 0-1.074-.14-1.336-.428-.271-.28-.402-.804-.402-1.573v-.41c0-.69.131-1.197.411-1.53q.405-.497 1.284-.497.759 0 1.101.42h.017V2.18c0-.06.035-.095.105-.095h.358c.07 0 .105.035.105.096m-.568 4.308V5.292c0-.367-.096-.647-.271-.856-.175-.201-.437-.306-.786-.306-.393 0-.681.105-.856.297-.219.245-.323.673-.323 1.284v.297q0 .97.314 1.31c.157.184.437.271.839.271.437 0 .742-.104.9-.332.122-.166.183-.419.183-.768m4.989 1.362c0 .105-.061.149-.166.149h-.245q-.104 0-.131-.026c-.017-.018-.026-.053-.026-.123v-2.55c0-.516-.14-.857-.402-1.023-.174-.104-.41-.166-.707-.166-.411 0-.699.123-.856.367q-.158.237-.158.682v2.708q0 .13-.157.131h-.271c-.096 0-.139-.044-.139-.131V3.815c0-.06.026-.096.087-.096h.262c.061 0 .096.035.105.096l.044.35h.017c.07-.122.192-.227.358-.332.219-.122.489-.192.821-.192.673 0 1.127.2 1.354.585q.21.367.21 1.127zm1.528-2.079v.166c0 .437.026.752.087.961.131.463.472.69 1.013.69.542 0 .883-.227 1.023-.69.052-.21.087-.524.087-.96v-.167c0-.428-.035-.751-.087-.96q-.197-.682-1.023-.682c-.55 0-.891.227-1.013.681-.061.21-.087.533-.087.961m2.786-.087v.35c0 .786-.157 1.336-.454 1.633-.279.28-.69.41-1.232.41-.541 0-.943-.13-1.223-.41-.305-.297-.454-.847-.454-1.634v-.349c0-.786.149-1.337.454-1.642.271-.262.682-.402 1.223-.402.542 0 .953.14 1.232.402.297.305.454.856.454 1.642m2.059 2.394c-.463 0-.856-.07-1.188-.21-.088-.035-.123-.079-.105-.149l.07-.253c.017-.087.078-.122.166-.087.358.14.707.21 1.057.21.349 0 .594-.053.742-.175.14-.114.219-.297.219-.56v-.052c0-.288-.079-.48-.236-.585-.096-.053-.297-.114-.612-.184l-.244-.043c-.297-.053-.524-.123-.682-.219q-.445-.25-.445-.908v-.088c0-.75.463-1.135 1.398-1.135.358 0 .681.043.978.122q.157.052.131.157l-.052.227c-.035.105-.097.149-.201.114a3.3 3.3 0 0 0-.865-.131c-.332 0-.568.061-.69.175-.123.105-.175.262-.175.454v.061c0 .192.044.34.14.428q.157.17.681.262l.227.044q.732.158.952.42c.14.191.219.454.219.768v.087c0 .35-.088.62-.245.813-.236.297-.646.437-1.24.437m-.594-5.53 1.485-.725c.113-.053.192-.027.236.06l.148.307c.035.087-.009.157-.113.21l-1.494.567c-.114.044-.184.026-.219-.052l-.087-.193c-.035-.078-.026-.14.044-.174m5.62 4.936.061.2q.027.092 0 .132c-.017.026-.061.052-.148.087-.289.122-.62.175-.996.175q-.813.002-1.206-.376-.508-.458-.506-1.73v-.288c0-.769.174-1.32.533-1.651q.418-.393 1.179-.393c.227 0 .463.043.69.113.227.079.419.166.559.271.044.035.044.087.009.14l-.149.245c-.035.052-.078.06-.148.017-.332-.192-.647-.297-.961-.297-.341 0-.603.096-.786.27q-.352.354-.35 1.364v.148c0 .664.088 1.118.28 1.345.174.228.463.332.882.332.28 0 .559-.052.847-.166.114-.043.184-.026.21.062m1.696-3.67V7.93c0 .053-.026.07-.079.07h-.419c-.052 0-.07-.017-.07-.07V3.815c0-.06.035-.096.105-.096h.358c.07 0 .105.035.105.096m.122-1.249v.053c0 .28-.131.419-.384.419h-.035c-.271 0-.402-.14-.402-.42v-.052c0-.27.131-.41.402-.41h.035c.253 0 .384.14.384.41m1.56 3.206v.166c0 .437.026.752.087.961.131.463.472.69 1.013.69.542 0 .883-.227 1.023-.69.052-.21.087-.524.087-.96v-.167c0-.428-.035-.751-.087-.96q-.196-.682-1.023-.682c-.55 0-.891.227-1.013.681-.061.21-.087.533-.087.961m2.786-.087v.35c0 .786-.157 1.336-.454 1.633-.279.28-.69.41-1.232.41-.541 0-.943-.13-1.223-.41-.305-.297-.454-.847-.454-1.634v-.349c0-.786.149-1.337.454-1.642.271-.262.682-.402 1.223-.402.542 0 .953.14 1.232.402.297.305.454.856.454 1.642m3.107-1.756h.393c.157 0 .262.087.297.245.254 1.258.516 2.385.795 3.38h.044c.323-1.24.594-2.49.812-3.73 0-.052.018-.078.035-.087a.3.3 0 0 1 .123-.018h.27q.093 0 .131.027c.018.017.027.043.027.096q-.29 1.467-.891 3.8c-.07.244-.193.358-.367.358h-.297q-.173 0-.254-.079c-.061-.052-.105-.14-.139-.28a55 55 0 0 1-.752-3.188h-.061a63 63 0 0 1-.751 3.189.6.6 0 0 1-.14.28.38.38 0 0 1-.253.078h-.297c-.184 0-.306-.114-.367-.358q-.617-2.333-.891-3.8c-.009-.053 0-.079.026-.096q.026-.027.131-.027h.271q.13 0 .157.105c.21 1.24.48 2.49.812 3.73h.044c.271-.995.533-2.122.795-3.38.035-.158.131-.245.297-.245m6.657 1.206v.716q-.002.183-.07.262c-.052.052-.131.07-.253.07h-2.254c.017.524.105.891.279 1.1.166.21.455.306.865.306.341 0 .664-.052.961-.174.114-.044.184-.027.21.06l.061.202a.17.17 0 0 1-.009.13q-.025.053-.183.106a2.9 2.9 0 0 1-1.04.166q-.957.002-1.336-.48c-.263-.315-.385-.84-.385-1.565v-.349c0-.699.122-1.214.376-1.546.244-.332.672-.498 1.267-.498.497 0 .873.122 1.126.358.254.253.385.629.385 1.136m-1.503-1.005c-.384 0-.664.114-.821.332-.166.227-.253.629-.253 1.223h1.878c.044 0 .079 0 .096-.018s.026-.052.026-.113v-.332c0-.376-.07-.647-.201-.812-.157-.184-.393-.28-.725-.28m5.164 2.647c-.078.07-.157.131-.227.175.498.323.751.734.751 1.223v.096c0 .472-.157.812-.471 1.03-.315.228-.752.333-1.293.333a3.5 3.5 0 0 1-1.582-.359c-.061-.026-.087-.07-.069-.14l.096-.261q.025-.105.157-.053c.445.219.891.323 1.336.323.42 0 .734-.06.926-.192q.29-.196.289-.707v-.07c0-.455-.219-.804-.647-1.031a2.2 2.2 0 0 1-.515.044c-.498 0-.882-.105-1.162-.324-.306-.262-.454-.681-.454-1.275V5.23c0-.603.148-1.031.454-1.284.245-.201.638-.306 1.162-.306.122 0 .218.008.279.008.14-.419.472-.637.979-.637h.21c.078 0 .122.043.122.122v.341c0 .008-.009.017-.009.026-.009.009-.017.017-.035.017-.017.01-.044.01-.061.01h-.262c-.227 0-.367.078-.437.218.157.06.288.13.385.2.297.254.454.682.454 1.285v.358c0 .515-.131.908-.376 1.188m-2.271-1.485v.227c0 .28.026.515.096.69.122.358.437.533.926.533.498 0 .812-.175.943-.533a2.4 2.4 0 0 0 .088-.699v-.218a2.2 2.2 0 0 0-.088-.682.7.7 0 0 0-.332-.401c-.148-.079-.349-.123-.611-.123-.253 0-.454.044-.603.123-.148.078-.253.21-.323.401-.07.175-.096.402-.096.682m4.137.48v.166c0 .437.027.752.088.961.131.463.472.69 1.013.69.542 0 .882-.227 1.022-.69.053-.21.088-.524.088-.96v-.167c0-.428-.035-.751-.088-.96q-.196-.682-1.022-.682c-.55 0-.891.227-1.013.681q-.09.317-.088.961m2.787-.087v.35c0 .786-.157 1.336-.454 1.633-.28.28-.69.41-1.232.41-.541 0-.943-.13-1.223-.41-.306-.297-.454-.847-.454-1.634v-.349c0-.786.148-1.337.454-1.642.271-.262.682-.402 1.223-.402.542 0 .952.14 1.232.402.297.305.454.856.454 1.642m5.163-1.756h.393c.157 0 .262.087.297.245.253 1.258.515 2.385.795 3.38h.044c.323-1.24.594-2.49.812-3.73 0-.052.018-.078.035-.087a.3.3 0 0 1 .122-.018h.271q.092 0 .131.027c.018.017.026.043.026.096q-.288 1.467-.891 3.8c-.07.244-.192.358-.367.358h-.297c-.113 0-.201-.026-.253-.079-.061-.052-.105-.14-.14-.28a55 55 0 0 1-.751-3.188h-.061a64 64 0 0 1-.751 3.189.6.6 0 0 1-.14.28.38.38 0 0 1-.254.078h-.297c-.183 0-.305-.114-.367-.358q-.615-2.333-.891-3.8c-.008-.053 0-.079.027-.096q.026-.027.131-.027h.27q.131 0 .158.105c.209 1.24.48 2.49.812 3.73h.044c.271-.995.533-2.122.795-3.38.035-.158.131-.245.297-.245m6.389 1.904v2.018c0 .105-.053.149-.14.149h-.323c-.096 0-.14-.044-.14-.149V2.557c0-.113.052-.183.157-.2.358-.053.76-.088 1.215-.088q1.127 0 1.598.393c.315.262.481.7.481 1.31v.114c0 1.17-.682 1.756-2.036 1.756-.349 0-.62 0-.812-.009m.175-3.048c-.123.017-.175.087-.175.21v2.34c.14.018.384.018.742.018.507 0 .883-.096 1.119-.288.227-.192.349-.524.349-.996v-.114c0-.42-.114-.725-.323-.917-.219-.183-.577-.28-1.083-.28a6 6 0 0 0-.629.027m4.218-.289v4.718c0 .122.018.2.07.236.053.043.14.06.271.06h1.424c.087 0 .131.044.131.114v.262c0 .08-.044.114-.131.114h-1.572c-.28 0-.481-.052-.603-.166-.131-.114-.192-.288-.192-.533V2.496c0-.096.043-.148.139-.148h.315q.146.002.148.148m5.608 5.233-2.288-4.796h-.062v4.918c0 .105-.043.149-.122.149h-.314c-.088 0-.123-.044-.123-.149V2.61q-.002-.157.061-.21c.035-.035.114-.052.228-.052h.428c.104 0 .192.026.244.061a.7.7 0 0 1 .157.21l2.289 4.813h.061V2.496c0-.096.035-.148.123-.148h.314c.079 0 .123.052.123.148v5.242c0 .105-.027.175-.062.21-.043.035-.122.052-.227.052h-.428c-.113 0-.201-.017-.253-.061a.46.46 0 0 1-.149-.21m2.704-3.87h.088c.244 0 .375.114.375.34v.21c0 .228-.131.341-.375.341h-.088c-.253 0-.375-.113-.375-.34V4.2c0-.227.122-.34.375-.34m0 3.329h.088c.244 0 .375.113.375.34v.21c0 .227-.131.34-.375.34h-.088c-.253 0-.375-.113-.375-.34v-.21c0-.227.122-.34.375-.34m6.009-.638h-2.394c-.113 0-.166-.053-.166-.175v-.148q0-.093.157-.367l1.984-3.372c.052-.088.139-.14.279-.14h.524c.14 0 .219.07.219.192v3.494h.567c.097 0 .149.044.149.123v.253q-.002.142-.149.14h-.567V7.85c0 .105-.053.149-.14.149h-.332c-.087 0-.131-.044-.131-.149zm0-.516V2.881h-.061l-1.861 3.153zm2.477 1.154h.131q.408 0 .41.445V7.8c0 .192-.043.402-.113.63a2.4 2.4 0 0 1-.367.654c-.052.07-.114.088-.184.044l-.157-.096c-.07-.035-.07-.088-.008-.166.052-.07.104-.166.174-.288.053-.105.096-.201.123-.297.017-.07.008-.123-.044-.158l-.157-.078c-.114-.053-.166-.175-.166-.359V7.52c0-.219.113-.332.358-.332m4.239-.909V6.2c0-.41-.096-.716-.271-.926-.192-.2-.472-.305-.856-.305s-.725.096-1.031.288c-.079.052-.14.061-.192.035l-.131-.053c-.061-.017-.088-.07-.07-.148l.183-2.586c0-.105.062-.157.175-.157h2.289c.105 0 .157.052.157.14v.21c0 .095-.061.139-.175.139h-1.852c-.078 0-.122.044-.122.114l-.122 1.764c.271-.174.611-.262 1.031-.262.559 0 .978.166 1.258.49.244.296.367.716.367 1.24v.096c0 .612-.175 1.066-.507 1.363s-.795.437-1.407.437q-.733 0-1.362-.315c-.096-.044-.131-.105-.096-.183l.087-.236c.026-.088.087-.105.192-.061.358.21.751.305 1.188.305s.76-.104.961-.323c.201-.21.306-.533.306-.987m5.29-1.223v.236c0 1.127-.192 1.896-.568 2.315q-.422.472-1.249.472c-.559 0-.97-.158-1.25-.472-.384-.42-.567-1.188-.567-2.315v-.236c0-1.118.183-1.896.567-2.315.28-.315.691-.472 1.25-.472q.827 0 1.249.472c.376.42.568 1.197.568 2.315m-2.997.061v.114c0 .943.105 1.58.332 1.922.175.297.463.436.848.436s.664-.14.847-.436c.218-.341.332-.979.332-1.922v-.114c0-.935-.114-1.572-.332-1.922-.183-.288-.463-.437-.847-.437-.385 0-.673.149-.848.437-.227.35-.332.987-.332 1.922m5.002 2.848 3.093-5.591a.18.18 0 0 1 .166-.105h.331c.088 0 .114.044.079.114l-3.092 5.59a.21.21 0 0 1-.193.106h-.305c-.088 0-.114-.035-.079-.114m1.136-4.193v.096c0 .603-.114 1.013-.341 1.24q-.262.262-.76.262t-.76-.262c-.227-.227-.341-.637-.341-1.24v-.096c0-.594.114-1.014.341-1.24q.262-.263.76-.263t.76.262c.227.227.341.647.341 1.24m-.533.087v-.078q0-.603-.131-.84c-.088-.148-.227-.226-.437-.226q-.314.002-.446.227c-.087.157-.122.437-.122.839v.078c0 .41.035.69.122.839.088.157.236.227.446.227s.349-.07.437-.227q.13-.223.131-.839m4.132 2.62v.097c0 .603-.114 1.013-.341 1.24q-.262.263-.76.263t-.76-.262c-.227-.228-.341-.638-.341-1.241V6.48c0-.594.114-1.013.341-1.24q.262-.263.76-.263t.76.262c.227.228.341.647.341 1.24m-.533.088V6.49q0-.603-.131-.839c-.087-.149-.227-.227-.437-.227s-.358.079-.445.227c-.088.157-.123.437-.123.839v.078c0 .41.035.69.123.839.087.157.235.227.445.227s.35-.07.437-.227q.13-.223.131-.839M1.817 12.033c.061-.078.14-.096.227-.06l.21.104c.07.044.087.096.044.166a5.3 5.3 0 0 0-1.075 3.258q0 .944.236 1.704c.157.507.437 1.03.83 1.555.052.07.026.131-.061.175l-.201.105c-.079.043-.149.026-.201-.053C1.005 17.94.594 16.777.594 15.52c0-.629.087-1.223.28-1.773.183-.542.498-1.119.943-1.713m3.391 1.896h.393c.157 0 .262.087.297.245.254 1.258.516 2.385.795 3.38h.044c.323-1.24.594-2.49.812-3.73 0-.052.018-.078.035-.087a.3.3 0 0 1 .123-.018h.27q.092 0 .131.027c.018.017.027.043.027.096a69 69 0 0 1-.891 3.8c-.07.244-.193.358-.367.358H6.58q-.173 0-.254-.079c-.06-.052-.105-.14-.14-.28a55 55 0 0 1-.75-3.188h-.062a63 63 0 0 1-.751 3.189.6.6 0 0 1-.14.28.38.38 0 0 1-.253.078h-.297c-.184 0-.306-.114-.367-.358q-.616-2.333-.891-3.8c-.01-.053 0-.079.026-.096q.025-.027.13-.027h.272q.131 0 .157.105c.21 1.24.48 2.49.812 3.73h.044q.404-1.493.795-3.38c.035-.158.131-.245.297-.245M12.803 18h-.411c-.454 0-.786-.114-.978-.35-.193-.227-.289-.558-.289-1.004v-2.429h-.533c-.06 0-.087-.026-.087-.096v-.175c0-.07.026-.104.087-.113l.533-.114v-.987q0-.105.105-.105h.367c.061 0 .096.035.096.105v.987h1.022c.053 0 .088.035.088.088v.323c0 .061-.035.087-.088.087h-1.022v2.359c0 .35.053.594.157.716.105.149.324.219.638.219h.315c.07 0 .104.035.104.096v.297c0 .07-.034.096-.104.096m1.488 1.337c.236-.463.446-.926.638-1.398-.262 0-.463-.184-.585-.55a19 19 0 0 1-.49-1.503 38 38 0 0 1-.532-2.053c-.018-.07.008-.114.096-.114h.393c.052 0 .078.027.096.079.122.62.28 1.267.463 1.94.096.384.245.855.437 1.415.035.104.07.183.113.218.035.044.096.061.166.061h.035q.496-1.363.952-3.643c.01-.043.044-.07.096-.07h.402c.035 0 .053.01.07.027s.018.034.018.052c-.271 1.267-.55 2.315-.83 3.154-.28.838-.62 1.712-1.022 2.603-.035.079-.096.096-.184.061l-.288-.105c-.079-.026-.096-.087-.044-.174m3.187-1.468v-4.053c0-.062.026-.097.096-.097h.253q.091.002.105.097l.044.349h.017c.07-.122.192-.227.358-.332.219-.122.49-.192.813-.192.611 0 1.048.2 1.301.602h.018c.305-.401.76-.602 1.354-.602.524 0 .908.14 1.153.41.227.271.35.708.35 1.302v2.516c0 .087-.053.131-.14.131h-.297q-.131 0-.131-.131v-2.551c0-.402-.079-.69-.219-.882-.175-.201-.437-.306-.803-.306q-.709 0-1.101.524c.035.227.052.463.052.699v2.516q0 .13-.13.131h-.298q-.142 0-.14-.131v-2.551q0-.642-.262-.917c-.174-.175-.454-.271-.82-.271-.403 0-.691.122-.848.367q-.158.236-.158.681v2.691q0 .13-.13.131h-.306q-.131 0-.131-.131m9.444-2.097v.166c0 .437.026.752.087.961.131.463.472.69 1.014.69.541 0 .882-.227 1.022-.69.052-.21.087-.524.087-.96v-.167c0-.428-.035-.751-.087-.96q-.197-.682-1.023-.682-.827 0-1.013.681c-.061.21-.087.533-.087.961m2.787-.087v.35c0 .786-.158 1.336-.455 1.633-.28.28-.69.41-1.232.41-.541 0-.943-.13-1.223-.41-.305-.297-.454-.847-.454-1.634v-.349c0-.786.149-1.337.454-1.642.271-.262.682-.402 1.224-.402s.952.14 1.231.402c.297.305.454.856.454 1.642m2.748 2.394c-.56 0-.961-.149-1.197-.463h-.017v1.834c0 .07-.035.096-.088.096h-.393c-.061 0-.087-.026-.087-.096v-5.634c0-.062.026-.097.087-.097h.262q.091.002.105.097l.052.349h.018c.245-.35.673-.524 1.267-.524.567 0 .978.157 1.223.472.244.314.375.803.375 1.485v.454q0 1.009-.367 1.52-.364.508-1.24.507m-.07-3.949c-.769 0-1.144.367-1.144 1.1v1.232c0 .376.096.656.305.848.201.192.49.28.857.28.384 0 .672-.105.847-.324q.236-.288.236-1.258v-.332c0-.611-.096-1.03-.271-1.249-.175-.192-.445-.297-.83-.297M35.48 18h-.28c-.096 0-.14-.035-.14-.114v-4.07q0-.095.105-.097h.254q.078.002.105.097l.035.454h.017c.192-.367.533-.55 1.013-.55h.227c.07 0 .114.034.114.104v.297c0 .07-.044.096-.114.096h-.235c-.385 0-.656.123-.795.358-.105.175-.158.402-.158.69v2.621c0 .08-.052.114-.148.114m2.567-2.228v.166c0 .437.026.752.087.961.13.463.472.69 1.013.69.542 0 .883-.227 1.022-.69.053-.21.088-.524.088-.96v-.167c0-.428-.035-.751-.088-.96q-.195-.682-1.022-.682t-1.013.681c-.061.21-.087.533-.087.961m2.786-.087v.35c0 .786-.157 1.336-.454 1.633-.28.28-.69.41-1.232.41-.541 0-.943-.13-1.223-.41-.306-.297-.454-.847-.454-1.634v-.349c0-.786.148-1.337.454-1.642.271-.262.682-.402 1.223-.402.542 0 .953.14 1.232.402.297.305.454.856.454 1.642m3.579 1.8.06.2q.027.092 0 .132c-.017.026-.06.052-.148.087-.288.122-.62.175-.996.175q-.812.002-1.205-.376-.509-.459-.507-1.73v-.288c0-.769.175-1.32.533-1.651q.42-.393 1.18-.393c.227 0 .462.043.69.113.227.079.419.166.559.271.043.035.043.088.008.14l-.148.245c-.035.052-.079.06-.149.017-.332-.192-.646-.297-.96-.297-.341 0-.603.096-.787.27q-.352.354-.35 1.364v.148c0 .664.088 1.118.28 1.345.175.228.463.332.883.332.28 0 .559-.052.847-.166.114-.043.183-.026.21.062m3.958-2.35v.716q-.002.184-.07.262c-.052.052-.13.07-.253.07h-2.254c.017.524.105.891.28 1.1.165.21.454.306.864.306.341 0 .664-.052.961-.174q.171-.067.21.06l.061.202a.17.17 0 0 1-.009.13q-.026.053-.183.106a2.9 2.9 0 0 1-1.04.166q-.956.002-1.336-.48c-.262-.315-.385-.84-.385-1.565v-.349q-.002-1.048.376-1.546c.245-.332.673-.498 1.267-.498.498 0 .873.122 1.127.358.253.253.384.629.384 1.136m-1.503-1.005c-.384 0-.663.113-.82.332-.167.227-.254.629-.254 1.223h1.878c.044 0 .079 0 .096-.018s.026-.052.026-.113v-.332c0-.376-.07-.646-.2-.812-.158-.184-.394-.28-.726-.28m5.785 3.722c0 .104-.062.148-.166.148h-.245q-.105 0-.131-.026c-.018-.018-.026-.053-.026-.122V15.3c0-.516-.14-.857-.402-1.023-.175-.104-.41-.165-.708-.165-.41 0-.699.122-.856.366q-.157.237-.157.682v2.708q0 .13-.157.131h-.271c-.096 0-.14-.044-.14-.131v-4.053c0-.062.026-.097.087-.097h.262q.093.002.105.097l.044.349h.017c.07-.122.193-.227.359-.332.218-.122.489-.192.82-.192.673 0 1.128.2 1.355.585q.21.367.21 1.127zm2.986.148h-.41c-.455 0-.787-.114-.979-.35-.192-.227-.288-.558-.288-1.004v-2.429h-.533c-.061 0-.088-.026-.088-.096v-.175c0-.07.027-.104.088-.113l.533-.114v-.987q0-.105.105-.105h.366q.094 0 .096.105v.987h1.023c.052 0 .087.035.087.088v.323c0 .061-.035.087-.087.087h-1.023v2.359c0 .35.053.594.158.716.105.149.323.219.638.219h.314c.07 0 .105.035.105.096v.297c0 .07-.035.096-.105.096m1.305-2.228v.166c0 .437.026.752.088.961.13.463.471.69 1.013.69s.882-.227 1.022-.69c.052-.21.087-.524.087-.96v-.167c0-.428-.035-.751-.087-.96q-.197-.682-1.022-.682c-.55 0-.891.227-1.013.681-.062.21-.088.533-.088.961m2.787-.087v.35c0 .786-.157 1.336-.454 1.633-.28.28-.69.41-1.232.41s-.944-.13-1.223-.41c-.306-.297-.454-.847-.454-1.634v-.349c0-.786.148-1.337.454-1.642.27-.262.681-.402 1.223-.402s.952.14 1.232.402c.297.305.454.856.454 1.642m3.107-1.756h.393c.157 0 .262.087.297.245a47 47 0 0 0 .795 3.38h.043c.324-1.24.595-2.49.813-3.73 0-.052.017-.078.035-.087a.3.3 0 0 1 .122-.018h.27q.093 0 .132.027c.017.017.026.043.026.096q-.288 1.467-.89 3.8c-.07.244-.193.358-.368.358h-.297q-.171 0-.253-.079c-.061-.052-.105-.14-.14-.28a55 55 0 0 1-.751-3.188h-.061a63 63 0 0 1-.752 3.189.6.6 0 0 1-.14.28.38.38 0 0 1-.253.078h-.297c-.183 0-.306-.114-.367-.358q-.615-2.333-.89-3.8c-.01-.053 0-.079.025-.096q.027-.027.131-.027h.271q.132 0 .157.105c.21 1.24.481 2.49.813 3.73h.044q.404-1.493.795-3.38c.035-.158.13-.245.297-.245m6.072 3.984-.018-.297h-.017c-.192.314-.507.463-.926.463h-.437c-.42 0-.725-.105-.935-.315s-.314-.48-.314-.821v-.262q0-.825.681-1.1.288-.121 1.049-.123h.262c.21 0 .41.009.585.026v-.498c0-.314-.087-.542-.253-.664-.175-.122-.437-.192-.804-.192-.306 0-.603.044-.9.131-.14.035-.21.018-.227-.07l-.044-.183c-.035-.105 0-.166.096-.201a4 4 0 0 1 1.119-.166c.559 0 .96.105 1.205.306.245.2.376.524.376.978v2.988c0 .06-.035.087-.096.087h-.289c-.078 0-.113-.026-.113-.087m-.07-1.223v-.726a4 4 0 0 0-.524-.026h-.49q-.547.002-.768.175c-.149.114-.219.306-.219.577v.183q0 .395.184.568c.105.105.288.157.533.157h.358c.288 0 .515-.07.681-.227.158-.157.245-.384.245-.681m4.987 1.162c0 .104-.061.148-.166.148h-.245q-.105 0-.13-.026c-.018-.018-.027-.053-.027-.122V15.3c0-.516-.14-.857-.402-1.023-.174-.104-.41-.165-.707-.165-.41 0-.7.122-.856.366q-.158.237-.158.682v2.708q0 .13-.157.131h-.27c-.097 0-.14-.044-.14-.131v-4.053c0-.062.026-.097.087-.097h.262q.091.002.105.097l.043.349h.018c.07-.122.192-.227.358-.332.219-.122.49-.192.821-.192.673 0 1.127.2 1.354.585q.21.367.21 1.127zm1.842-4.036v4.114c0 .053-.026.07-.079.07h-.419c-.052 0-.07-.017-.07-.07v-4.114q0-.095.105-.097h.358q.105.002.105.097m.122-1.25v.053q-.002.42-.384.419h-.035q-.403 0-.402-.42v-.052c0-.27.131-.41.402-.41h.035c.253 0 .384.14.384.41m4.137 2.569v.716q-.002.184-.07.262c-.052.052-.13.07-.253.07H77.35c.017.524.105.891.28 1.1.166.21.454.306.864.306.341 0 .664-.052.961-.174q.171-.067.21.06l.061.202a.17.17 0 0 1-.009.13q-.025.053-.183.106a2.9 2.9 0 0 1-1.04.166q-.956.002-1.336-.48c-.262-.315-.385-.84-.385-1.565v-.349q-.002-1.048.376-1.546c.245-.332.673-.498 1.267-.498.498 0 .873.122 1.127.358.253.253.384.629.384 1.136m-1.503-1.005c-.384 0-.663.113-.82.332-.167.227-.254.629-.254 1.223h1.878c.044 0 .079 0 .096-.018s.026-.052.026-.113v-.332c0-.376-.07-.646-.2-.812-.158-.184-.394-.28-.726-.28m6.19 3.46c.436 0 .733-.114.9-.341.165-.236.253-.655.253-1.25v-.297c0-.629-.123-1.065-.35-1.301-.183-.175-.463-.271-.83-.271q-.56 0-.82.262a.75.75 0 0 0-.193.332c-.035.131-.044.323-.044.568v1.197c0 .35.061.602.184.768.157.228.454.332.9.332m-1.084-5.408v1.878h.018q.327-.42 1.1-.42.865 0 1.285.499c.27.332.41.838.41 1.529v.401c0 .734-.148 1.258-.437 1.555-.288.306-.725.455-1.301.455-.63 0-1.066-.149-1.32-.455-.218-.253-.323-.611-.323-1.074v-4.368c0-.061.035-.096.105-.096h.359c.07 0 .104.035.104.096m6.204 5.73-.018-.296H89.7c-.192.314-.507.463-.926.463h-.437c-.42 0-.725-.105-.935-.315s-.314-.48-.314-.821v-.262q0-.825.681-1.1.288-.121 1.048-.123h.263c.21 0 .41.009.585.026v-.498c0-.314-.088-.542-.254-.664-.174-.122-.436-.192-.803-.192-.306 0-.603.044-.9.131-.14.035-.21.018-.227-.07l-.044-.183c-.035-.105 0-.166.096-.201a4 4 0 0 1 1.118-.166c.56 0 .961.105 1.206.306.245.2.376.524.376.978v2.988q-.002.088-.097.087h-.288c-.078 0-.113-.026-.113-.087m-.07-1.222v-.726a4 4 0 0 0-.524-.026h-.49c-.367 0-.62.061-.768.175s-.219.306-.219.577v.183q0 .395.184.568c.105.105.288.157.533.157h.358c.288 0 .515-.07.681-.227.157-.157.245-.384.245-.681m4.314.908v.315c0 .06-.035.087-.087.087h-2.726c-.06 0-.087-.026-.087-.087v-.149c0-.087.052-.21.157-.384l1.922-3.171h-1.93c-.062 0-.088-.027-.088-.088v-.314c0-.053.026-.088.087-.088h2.586c.053 0 .088.035.088.088v.122c0 .105-.079.28-.228.524l-1.878 3.058h2.097c.052 0 .087.035.087.087m1.143-1.826v.166c0 .437.026.752.087.961.131.463.472.69 1.013.69.542 0 .883-.227 1.022-.69.053-.21.088-.524.088-.96v-.167c0-.428-.035-.751-.088-.96q-.195-.682-1.022-.682t-1.013.681c-.061.21-.087.533-.087.961m2.786-.087v.35c0 .786-.157 1.336-.454 1.633-.28.28-.69.41-1.232.41-.541 0-.943-.13-1.223-.41-.306-.297-.454-.847-.454-1.634v-.349c0-.786.148-1.337.454-1.642.271-.262.682-.402 1.223-.402.542 0 .953.14 1.232.402.297.305.454.856.454 1.642m3.107-1.756h.393c.157 0 .262.087.297.245q.378 1.887.795 3.38h.044c.323-1.24.594-2.49.812-3.73 0-.052.018-.078.035-.087a.3.3 0 0 1 .122-.018h.271q.092 0 .131.027c.018.017.027.043.027.096q-.29 1.467-.892 3.8c-.069.244-.192.358-.366.358h-.297q-.173 0-.254-.079c-.061-.052-.105-.14-.14-.28a55 55 0 0 1-.751-3.188h-.061a64 64 0 0 1-.751 3.189.6.6 0 0 1-.14.28.38.38 0 0 1-.253.078h-.297c-.184 0-.306-.114-.367-.358q-.616-2.333-.891-3.8c-.01-.053 0-.079.026-.096q.025-.027.13-.027h.272q.131 0 .157.105c.21 1.24.48 2.49.812 3.73h.044c.271-.995.533-2.122.795-3.38.035-.158.131-.245.297-.245m6.657 1.206v.716q-.002.184-.07.262c-.053.052-.131.07-.254.07h-2.253c.017.524.104.891.279 1.1.166.21.454.306.865.306.341 0 .664-.052.961-.174q.17-.067.21.06l.061.202a.17.17 0 0 1-.009.13q-.026.053-.183.106a2.9 2.9 0 0 1-1.04.166q-.957.002-1.337-.48c-.262-.315-.384-.84-.384-1.565v-.349c0-.699.122-1.214.376-1.546.244-.332.672-.498 1.266-.498.498 0 .874.122 1.127.358.254.253.385.629.385 1.136m-1.503-1.005c-.384 0-.664.113-.821.332-.166.227-.253.629-.253 1.223h1.878c.044 0 .078 0 .096-.018.017-.017.026-.052.026-.113v-.332c0-.376-.07-.646-.201-.812-.157-.184-.393-.28-.725-.28m2.893-.27h.087c.245 0 .376.113.376.34v.21c0 .227-.131.34-.376.34h-.087c-.254 0-.376-.113-.376-.34v-.21c0-.227.122-.34.376-.34m0 3.328h.087c.245 0 .376.113.376.34v.21c0 .227-.131.34-.376.34h-.087c-.254 0-.376-.113-.376-.34v-.21c0-.227.122-.34.376-.34m7.205-2.132v.236q-.002 1.688-.568 2.315c-.28.314-.699.472-1.249.472-.559 0-.97-.158-1.249-.472-.385-.42-.568-1.188-.568-2.315v-.236c0-1.118.183-1.896.568-2.315.279-.315.69-.472 1.249-.472.55 0 .969.157 1.249.472.376.42.568 1.197.568 2.315m-2.997.061v.114c0 .943.105 1.58.332 1.922.175.297.463.436.848.436s.664-.14.847-.436c.219-.341.332-.979.332-1.922v-.114c0-.935-.113-1.572-.332-1.922-.183-.288-.463-.437-.847-.437-.385 0-.673.149-.848.437-.227.35-.332.987-.332 1.922m4.277 2.07h.131c.271 0 .411.15.411.446v.166c0 .192-.044.402-.114.63a2.4 2.4 0 0 1-.367.654c-.052.07-.113.088-.183.044l-.158-.096c-.069-.035-.069-.087-.008-.166.052-.07.104-.166.174-.288.053-.105.096-.201.123-.297.017-.07.008-.123-.044-.158l-.157-.078c-.114-.053-.166-.175-.166-.358v-.166c0-.219.113-.332.358-.332m4.99-2.131v.236q-.002 1.688-.568 2.315-.42.471-1.249.472c-.559 0-.969-.158-1.249-.472-.384-.42-.568-1.188-.568-2.315v-.236c0-1.118.184-1.896.568-2.315.28-.315.69-.472 1.249-.472.551 0 .97.157 1.249.472.376.42.568 1.197.568 2.315m-2.996.061v.114c0 .943.105 1.58.332 1.922.175.297.463.436.847.436.385 0 .664-.14.848-.436.218-.341.332-.979.332-1.922v-.114c0-.935-.114-1.572-.332-1.922-.184-.288-.463-.437-.848-.437s-.672.149-.847.437c-.227.35-.332.987-.332 1.922m6.784 1.162V16.2c0-.41-.096-.716-.271-.926-.192-.2-.472-.305-.856-.305a1.9 1.9 0 0 0-1.031.288c-.079.052-.14.061-.192.035l-.131-.053c-.062-.017-.088-.07-.07-.148l.183-2.586c0-.105.061-.157.175-.157h2.289c.105 0 .157.052.157.14v.21q-.002.14-.175.139h-1.852c-.078 0-.122.044-.122.114l-.122 1.764q.403-.262 1.03-.262c.56 0 .979.166 1.258.49.245.296.367.716.367 1.24v.096c0 .611-.174 1.066-.506 1.363s-.795.437-1.407.437q-.733 0-1.363-.315c-.096-.044-.131-.105-.096-.183l.088-.236c.026-.088.087-.105.192-.061.358.21.751.305 1.188.305s.76-.104.961-.323c.201-.21.306-.533.306-.987m2.756 1.686 3.093-5.591a.18.18 0 0 1 .166-.105h.332c.087 0 .113.044.078.114l-3.092 5.59a.21.21 0 0 1-.192.106h-.306c-.088 0-.114-.035-.079-.114m1.136-4.193v.096c0 .603-.114 1.013-.341 1.24q-.262.262-.76.262t-.76-.262c-.227-.227-.341-.637-.341-1.24v-.096c0-.594.114-1.014.341-1.24q.262-.263.76-.263t.76.262c.227.227.341.647.341 1.24m-.533.087v-.079q0-.601-.131-.838c-.087-.149-.227-.227-.437-.227q-.315.002-.445.227c-.088.157-.123.437-.123.838v.08c0 .41.035.69.123.838.087.157.235.227.445.227s.35-.07.437-.227q.13-.223.131-.839m4.132 2.62v.097c0 .603-.114 1.013-.341 1.24q-.262.263-.76.263t-.76-.262c-.227-.228-.34-.638-.34-1.241v-.096c0-.594.113-1.013.34-1.24q.262-.263.76-.263.499 0 .76.262c.227.228.341.647.341 1.24m-.533.088v-.078q0-.603-.131-.839c-.087-.149-.227-.227-.437-.227-.209 0-.358.079-.445.227-.088.157-.123.437-.123.839v.078c0 .41.035.69.123.839.087.157.236.227.445.227s.35-.07.437-.227q.13-.223.131-.839m1.89.62h.131c.27 0 .41.15.41.446v.166c0 .192-.044.402-.113.63a2.4 2.4 0 0 1-.367.654c-.053.07-.114.088-.184.044l-.157-.096c-.07-.035-.07-.087-.009-.166.053-.07.105-.166.175-.288.052-.105.096-.201.122-.297.018-.07.009-.123-.043-.158l-.158-.078q-.168-.082-.166-.358v-.166c0-.219.114-.332.359-.332m3.927-1.415v.166c0 .437.026.752.088.961.131.463.471.69 1.013.69s.882-.227 1.022-.69c.052-.21.087-.524.087-.96v-.167c0-.428-.035-.751-.087-.96q-.197-.682-1.022-.682c-.55 0-.891.227-1.013.681-.062.21-.088.533-.088.961m2.787-.087v.35c0 .786-.157 1.336-.454 1.633-.28.28-.69.41-1.232.41s-.944-.13-1.223-.41c-.306-.297-.454-.847-.454-1.634v-.349c0-.786.148-1.337.454-1.642.271-.262.681-.402 1.223-.402s.952.14 1.232.402c.297.305.454.856.454 1.642m2.748 2.394c-.559 0-.961-.149-1.196-.463h-.018v1.834c0 .07-.035.096-.087.096h-.393c-.062 0-.088-.026-.088-.096v-5.634c0-.062.026-.097.088-.097h.262q.092.002.104.097l.053.349h.017c.245-.35.673-.524 1.267-.524.568 0 .979.157 1.223.472s.376.803.376 1.485v.454q0 1.009-.367 1.52c-.245.34-.655.507-1.241.507m-.07-3.949c-.768 0-1.144.367-1.144 1.1v1.232c0 .376.096.656.306.848.201.192.489.28.856.28.384 0 .673-.105.847-.324q.237-.288.236-1.258v-.332c0-.611-.096-1.03-.271-1.249-.174-.192-.445-.297-.83-.297m3.093 3.87h-.279c-.096 0-.14-.035-.14-.114v-4.07q0-.095.105-.097h.253q.079.002.105.097l.035.454h.017q.291-.55 1.014-.55h.227c.07 0 .113.034.113.104v.297c0 .07-.043.096-.113.096h-.236c-.384 0-.655.123-.795.358-.105.175-.157.402-.157.69v2.621c0 .08-.053.114-.149.114m2.567-2.228v.166c0 .437.026.752.087.961.131.463.472.69 1.014.69.541 0 .882-.227 1.022-.69.052-.21.087-.524.087-.96v-.167c0-.428-.035-.751-.087-.96q-.197-.682-1.022-.682-.828 0-1.014.681c-.061.21-.087.533-.087.961m2.787-.087v.35c0 .786-.158 1.336-.455 1.633-.279.28-.69.41-1.231.41s-.944-.13-1.223-.41c-.306-.297-.455-.847-.455-1.634v-.349c0-.786.149-1.337.455-1.642.27-.262.681-.402 1.223-.402.541 0 .952.14 1.231.402.297.305.455.856.455 1.642m3.578 1.8.061.2q.027.092 0 .132c-.017.026-.061.052-.148.087-.289.122-.621.175-.996.175q-.813.002-1.206-.376c-.34-.306-.506-.882-.506-1.73v-.288c0-.769.174-1.32.532-1.651q.42-.393 1.18-.393c.227 0 .463.043.69.113.227.079.419.166.559.271.044.035.044.088.009.14l-.149.245c-.035.052-.078.06-.148.017-.332-.192-.647-.297-.961-.297-.341 0-.603.096-.786.27-.236.237-.35.69-.35 1.364v.148c0 .664.087 1.118.28 1.345.174.228.463.332.882.332.28 0 .559-.052.847-.166.114-.043.184-.026.21.062m3.958-2.35v.716c0 .122-.026.21-.069.262-.053.052-.132.07-.254.07h-2.254c.018.524.105.891.28 1.1.166.21.454.306.865.306.34 0 .664-.052.961-.174q.17-.067.209.06l.061.202a.17.17 0 0 1-.008.13q-.027.053-.184.106a2.9 2.9 0 0 1-1.039.166q-.957.002-1.337-.48c-.262-.315-.384-.84-.384-1.565v-.349c0-.699.122-1.214.375-1.546.245-.332.673-.498 1.267-.498.498 0 .874.122 1.127.358.253.253.384.629.384 1.136m-1.502-1.005c-.385 0-.664.113-.821.332-.166.227-.254.629-.254 1.223h1.879c.043 0 .078 0 .096-.018.017-.017.026-.052.026-.113v-.332c0-.376-.07-.646-.201-.812-.157-.184-.393-.28-.725-.28m5.784 3.722c0 .104-.061.148-.166.148h-.245q-.104 0-.131-.026c-.017-.018-.026-.053-.026-.122V15.3c0-.516-.14-.857-.402-1.023-.174-.104-.41-.165-.707-.165q-.618 0-.857.366-.157.237-.157.682v2.708q0 .13-.157.131h-.271c-.096 0-.14-.044-.14-.131v-4.053q-.002-.095.088-.097h.262q.092.002.105.097l.043.349h.018c.07-.122.192-.227.358-.332.218-.122.489-.192.821-.192.673 0 1.127.2 1.354.585q.21.367.21 1.127zm2.986.148h-.41c-.454 0-.786-.114-.979-.35-.192-.227-.288-.558-.288-1.004v-2.429h-.533c-.061 0-.087-.026-.087-.096v-.175c0-.07.026-.104.087-.113l.533-.114v-.987q0-.105.105-.105h.367c.061 0 .096.035.096.105v.987h1.022c.052 0 .087.035.087.088v.323c0 .061-.035.087-.087.087h-1.022v2.359c0 .35.052.594.157.716.105.149.323.219.638.219h.314c.07 0 .105.035.105.096v.297c0 .07-.035.096-.105.096m1.306-2.228v.166c0 .437.026.752.087.961.131.463.472.69 1.013.69.542 0 .883-.227 1.022-.69.053-.21.088-.524.088-.96v-.167c0-.428-.035-.751-.088-.96q-.196-.682-1.022-.682c-.55 0-.891.227-1.013.681-.061.21-.087.533-.087.961m2.786-.087v.35c0 .786-.157 1.336-.454 1.633-.279.28-.69.41-1.232.41-.541 0-.943-.13-1.223-.41-.305-.297-.454-.847-.454-1.634v-.349c0-.786.149-1.337.454-1.642.271-.262.682-.402 1.223-.402.542 0 .953.14 1.232.402.297.305.454.856.454 1.642m3.107-1.756h.393c.157 0 .262.087.297.245.254 1.258.516 2.385.795 3.38h.044c.323-1.24.594-2.49.812-3.73 0-.052.018-.078.035-.087a.3.3 0 0 1 .123-.018h.27q.092 0 .131.027c.018.017.027.043.027.096q-.29 1.467-.891 3.8c-.07.244-.193.358-.367.358h-.297q-.173 0-.254-.079c-.061-.052-.105-.14-.14-.28a55 55 0 0 1-.751-3.188h-.061a63 63 0 0 1-.751 3.189.6.6 0 0 1-.14.28.38.38 0 0 1-.253.078h-.297c-.184 0-.306-.114-.367-.358q-.616-2.333-.891-3.8c-.009-.053 0-.079.026-.096q.026-.027.131-.027h.271q.13 0 .157.105c.21 1.24.48 2.49.812 3.73h.044c.271-.995.533-2.122.795-3.38.035-.158.131-.245.297-.245m6.072 3.984-.017-.297h-.018c-.192.314-.506.463-.926.463h-.436c-.42 0-.726-.105-.935-.315s-.315-.48-.315-.821v-.262q0-.825.682-1.1.288-.121 1.048-.123h.262c.21 0 .411.009.585.026v-.498c0-.314-.087-.542-.253-.664-.175-.122-.437-.192-.804-.192-.305 0-.602.044-.899.131-.14.035-.21.018-.228-.07l-.043-.183c-.035-.105 0-.166.096-.201a4 4 0 0 1 1.118-.166c.559 0 .961.105 1.206.306.244.2.375.524.375.978v2.988c0 .06-.035.087-.096.087h-.288c-.079 0-.114-.026-.114-.087m-.07-1.223v-.726a4 4 0 0 0-.524-.026h-.489c-.367 0-.62.061-.769.175q-.22.17-.218.577v.183q0 .395.183.568c.105.105.289.157.533.157h.358c.289 0 .516-.07.682-.227.157-.157.244-.384.244-.681m4.987 1.162c0 .104-.061.148-.165.148h-.245q-.105 0-.131-.026c-.018-.018-.026-.053-.026-.122V15.3c0-.516-.14-.857-.402-1.023-.175-.104-.411-.165-.708-.165-.41 0-.699.122-.856.366q-.157.237-.157.682v2.708q0 .13-.157.131h-.271c-.096 0-.14-.044-.14-.131v-4.053c0-.062.026-.097.087-.097h.262q.093.002.105.097l.044.349h.017c.07-.122.193-.227.359-.332.218-.122.489-.192.821-.192.672 0 1.127.2 1.354.585q.21.367.209 1.127zm1.843-4.036v4.114c0 .053-.027.07-.079.07h-.419c-.053 0-.07-.017-.07-.07v-4.114q0-.095.105-.097h.358q.105.002.105.097m.122-1.25v.053c0 .28-.131.419-.385.419h-.034c-.271 0-.402-.14-.402-.42v-.052c0-.27.131-.41.402-.41h.034c.254 0 .385.14.385.41m4.137 2.569v.716c0 .122-.027.21-.07.262-.053.052-.131.07-.254.07h-2.254c.018.524.105.891.28 1.1.166.21.454.306.865.306.341 0 .664-.052.961-.174q.17-.067.209.06l.062.202a.17.17 0 0 1-.009.13q-.027.053-.184.106a2.9 2.9 0 0 1-1.039.166q-.957.002-1.337-.48c-.262-.315-.384-.84-.384-1.565v-.349c0-.699.122-1.214.375-1.546.245-.332.673-.498 1.267-.498.498 0 .874.122 1.127.358.253.253.385.629.385 1.136m-1.503-1.005c-.384 0-.664.113-.821.332-.166.227-.254.629-.254 1.223h1.879c.043 0 .078 0 .096-.018.017-.017.026-.052.026-.113v-.332c0-.376-.07-.646-.201-.812-.157-.184-.393-.28-.725-.28m6.337 3.949c-.559 0-.96-.149-1.196-.463h-.018v1.834c0 .07-.035.096-.087.096h-.393c-.061 0-.088-.026-.088-.096v-5.634q-.002-.095.088-.097h.262q.091.002.105.097l.052.349h.017c.245-.35.673-.524 1.267-.524.568 0 .979.157 1.223.472s.376.803.376 1.485v.454q0 1.009-.367 1.52c-.245.34-.655.507-1.241.507m-.069-3.949c-.769 0-1.145.367-1.145 1.1v1.232c0 .376.096.656.306.848.201.192.489.28.856.28.384 0 .673-.105.847-.324q.236-.288.236-1.258v-.332c0-.611-.096-1.03-.27-1.249-.175-.192-.446-.297-.83-.297m3.092 3.87h-.279c-.096 0-.14-.035-.14-.114v-4.07q0-.095.105-.097h.253q.08.002.105.097l.035.454h.017q.291-.55 1.014-.55h.227c.07 0 .114.034.114.104v.297c0 .07-.044.096-.114.096h-.236c-.384 0-.655.123-.795.358-.105.175-.157.402-.157.69v2.621c0 .08-.053.114-.149.114m2.567-2.228v.166c0 .437.026.752.087.961.131.463.472.69 1.014.69.541 0 .882-.227 1.022-.69.052-.21.087-.524.087-.96v-.167c0-.428-.035-.751-.087-.96q-.197-.682-1.022-.682-.828 0-1.014.681c-.061.21-.087.533-.087.961m2.787-.087v.35c0 .786-.157 1.336-.454 1.633-.28.28-.691.41-1.232.41-.542 0-.944-.13-1.223-.41-.306-.297-.455-.847-.455-1.634v-.349c0-.786.149-1.337.455-1.642.271-.262.681-.402 1.223-.402.541 0 .952.14 1.232.402.297.305.454.856.454 1.642m.992 2.184v-4.053c0-.062.026-.097.096-.097h.254q.091.002.105.097l.043.349h.018c.07-.122.192-.227.358-.332a1.64 1.64 0 0 1 .812-.192c.612 0 1.049.2 1.302.602h.017c.306-.401.761-.602 1.355-.602.524 0 .908.14 1.153.41.227.271.349.708.349 1.302v2.516c0 .087-.052.131-.14.131h-.297q-.13 0-.131-.131v-2.551c0-.402-.078-.69-.218-.882-.175-.201-.437-.306-.804-.306q-.707 0-1.101.524c.035.227.053.463.053.699v2.516q0 .13-.131.131h-.297c-.096 0-.14-.044-.14-.131v-2.551q0-.642-.262-.917c-.175-.175-.454-.271-.821-.271-.402 0-.69.122-.848.367q-.157.236-.157.681v2.691q0 .13-.131.131h-.306q-.13 0-.131-.131m7.388-2.097v.166c0 .437.027.752.088.961.131.463.472.69 1.013.69.542 0 .882-.227 1.022-.69.053-.21.088-.524.088-.96v-.167c0-.428-.035-.751-.088-.96q-.196-.682-1.022-.682c-.55 0-.891.227-1.013.681q-.09.317-.088.961m2.787-.087v.35c0 .786-.157 1.336-.454 1.633-.28.28-.69.41-1.232.41-.541 0-.943-.13-1.223-.41-.306-.297-.454-.847-.454-1.634v-.349c0-.786.148-1.337.454-1.642.271-.262.682-.402 1.223-.402.542 0 .952.14 1.232.402.297.305.454.856.454 1.642m3.579 1.8.061.2q.025.092 0 .132c-.018.026-.061.052-.149.087-.288.122-.62.175-.996.175q-.812.002-1.205-.376c-.341-.306-.507-.882-.507-1.73v-.288c0-.769.175-1.32.533-1.651q.42-.393 1.179-.393c.227 0 .463.043.69.113.228.079.42.166.56.271.043.035.043.088.008.14l-.148.245c-.035.052-.079.06-.149.017-.332-.192-.646-.297-.961-.297-.34 0-.602.096-.786.27-.236.237-.349.69-.349 1.364v.148c0 .664.087 1.118.279 1.345.175.228.463.332.882.332.28 0 .56-.052.848-.166.113-.043.183-.026.21.062m1.718 1.852c.236-.463.445-.926.638-1.398-.263 0-.463-.184-.586-.55a19 19 0 0 1-.489-1.503 38 38 0 0 1-.533-2.053c-.017-.07.009-.114.096-.114h.393c.053 0 .079.027.096.079.123.62.28 1.267.463 1.94q.147.575.437 1.415c.035.104.07.183.114.218.035.044.096.061.166.061h.035c.332-.908.646-2.123.952-3.643.009-.043.044-.07.096-.07h.402c.035 0 .052.01.07.027.017.017.017.034.017.052-.271 1.267-.55 2.315-.83 3.154-.279.838-.62 1.712-1.022 2.603-.035.079-.096.096-.183.061l-.289-.105c-.078-.026-.096-.087-.043-.174m3.876-5.521v4.132c0 .428-.078.768-.218 1.013-.227.402-.62.594-1.179.594h-.315c-.07 0-.096-.035-.096-.105v-.288c0-.07.026-.105.096-.105h.297c.349 0 .594-.131.716-.402.088-.192.131-.437.131-.751v-4.088q0-.095.105-.097h.358q.105.002.105.097m.123-1.25v.053c0 .28-.131.419-.385.419h-.035c-.271 0-.402-.14-.402-.42v-.052c0-.27.131-.41.402-.41h.035c.254 0 .385.14.385.41m4.459 5.286c0 .104-.061.148-.166.148h-.245q-.104 0-.131-.026c-.017-.018-.026-.053-.026-.122V15.3c0-.516-.14-.857-.402-1.023-.174-.104-.41-.165-.707-.165-.411 0-.699.122-.856.366q-.158.237-.158.682v2.708q0 .13-.157.131h-.271c-.096 0-.139-.044-.139-.131v-4.053c0-.062.026-.097.087-.097h.262q.092.002.105.097l.043.349h.018c.07-.122.192-.227.358-.332.219-.122.489-.192.821-.192.673 0 1.127.2 1.354.585q.21.367.21 1.127zm4.105-2.717v.716c0 .122-.026.21-.07.262-.053.052-.131.07-.254.07h-2.253c.017.524.104.891.279 1.1.166.21.454.306.865.306.341 0 .664-.052.961-.174q.17-.067.21.06l.061.202a.17.17 0 0 1-.009.13q-.026.053-.183.106a2.9 2.9 0 0 1-1.04.166q-.956.002-1.337-.48c-.262-.315-.384-.84-.384-1.565v-.349c0-.699.122-1.214.376-1.546.244-.332.672-.498 1.266-.498.498 0 .874.122 1.127.358.254.253.385.629.385 1.136m-1.503-1.005c-.384 0-.664.113-.821.332-.166.227-.253.629-.253 1.223h1.878c.044 0 .078 0 .096-.018.017-.017.026-.052.026-.113v-.332c0-.376-.07-.646-.201-.812-.157-.184-.393-.28-.725-.28m2.893-.27h.087c.245 0 .376.113.376.34v.21c0 .227-.131.34-.376.34h-.087c-.254 0-.376-.113-.376-.34v-.21c0-.227.122-.34.376-.34m0 3.328h.087c.245 0 .376.113.376.34v.21c0 .227-.131.34-.376.34h-.087c-.254 0-.376-.113-.376-.34v-.21c0-.227.122-.34.376-.34m6.008-.638h-2.394c-.113 0-.166-.053-.166-.175v-.148q0-.093.158-.367l1.983-3.372c.052-.088.139-.14.279-.14h.524c.14 0 .219.07.219.192v3.494h.568c.096 0 .148.044.148.123v.253c0 .096-.052.14-.148.14h-.568v1.302c0 .104-.053.148-.14.148h-.332c-.087 0-.131-.044-.131-.148zm0-.516v-3.153h-.061l-1.861 3.153zm2.477 1.154h.131c.271 0 .411.148.411.445v.166c0 .192-.044.402-.114.63a2.4 2.4 0 0 1-.367.654c-.052.07-.113.088-.183.044l-.158-.096c-.069-.035-.069-.087-.008-.166.052-.07.104-.166.174-.288.053-.105.096-.201.123-.297.017-.07.008-.123-.044-.158l-.157-.078c-.114-.053-.166-.175-.166-.358v-.166c0-.219.113-.332.358-.332m3.793-.638h-2.393c-.114 0-.166-.053-.166-.175v-.148q0-.093.157-.367l1.983-3.372c.053-.088.14-.14.28-.14h.524c.14 0 .218.07.218.192v3.494h.568c.096 0 .149.044.149.123v.253c0 .096-.053.14-.149.14h-.568v1.302c0 .104-.052.148-.14.148h-.331c-.088 0-.132-.044-.132-.148zm0-.516v-3.153h-.061l-1.86 3.153zm4.985.245V16.2c0-.41-.096-.716-.271-.926-.192-.2-.472-.305-.856-.305a1.9 1.9 0 0 0-1.031.288c-.079.052-.14.061-.192.035l-.131-.053c-.062-.017-.088-.07-.07-.148l.183-2.586q.002-.157.175-.157h2.289c.105 0 .157.052.157.14v.21q-.002.14-.175.139h-1.852c-.078 0-.122.044-.122.114l-.122 1.764q.403-.262 1.03-.262c.56 0 .979.166 1.258.49.245.296.367.716.367 1.24v.096c0 .611-.174 1.066-.506 1.363s-.795.437-1.407.437q-.733 0-1.363-.315c-.096-.044-.131-.105-.096-.183l.088-.236c.026-.088.087-.105.192-.061.358.21.751.305 1.188.305s.76-.104.961-.323c.201-.21.306-.533.306-.987m2.756 1.686 3.093-5.591a.18.18 0 0 1 .166-.105h.332c.087 0 .113.044.078.114l-3.092 5.59a.21.21 0 0 1-.192.106h-.306c-.088 0-.114-.035-.079-.114m1.136-4.193v.096c0 .603-.114 1.013-.341 1.24q-.262.262-.76.262t-.76-.262c-.227-.227-.341-.637-.341-1.24v-.096c0-.594.114-1.014.341-1.24q.262-.263.76-.263t.76.262c.227.227.341.647.341 1.24m-.533.087v-.079q0-.601-.131-.838c-.087-.149-.227-.227-.437-.227q-.315.002-.445.227c-.088.157-.123.437-.123.838v.08c0 .41.035.69.123.838.087.157.235.227.445.227s.35-.07.437-.227q.13-.223.131-.839m4.132 2.62v.097c0 .603-.114 1.013-.341 1.24q-.261.263-.76.263-.498 0-.76-.262c-.227-.228-.34-.638-.34-1.241v-.096c0-.594.113-1.013.34-1.24q.262-.263.76-.263.499 0 .76.262c.227.228.341.647.341 1.24m-.533.088v-.078q0-.603-.131-.839c-.087-.149-.227-.227-.437-.227-.209 0-.358.079-.445.227-.088.157-.123.437-.123.839v.078c0 .41.035.69.123.839.087.157.236.227.445.227s.35-.07.437-.227q.13-.223.131-.839m1.724 2.42c-.07.088-.14.105-.228.061l-.209-.104c-.079-.035-.096-.097-.044-.166.716-.953 1.075-2.036 1.075-3.259 0-.62-.088-1.188-.245-1.695-.157-.506-.437-1.03-.821-1.564-.053-.07-.035-.122.061-.174l.201-.105c.07-.035.14-.018.201.052.821 1.057 1.232 2.21 1.232 3.469 0 .637-.097 1.231-.28 1.773-.192.55-.507 1.118-.943 1.712m2.613-1.8h.088c.244 0 .375.114.375.341v.21c0 .227-.131.34-.375.34h-.088c-.253 0-.375-.113-.375-.34v-.21c0-.227.122-.34.375-.34M1.109 25.057v.236q0 1.439.394 1.896.342.403 1.04.401c.506 0 .864-.148 1.091-.454q.34-.47.34-1.843v-.236q-.002-.681-.069-1.127c-.044-.297-.131-.533-.27-.725-.228-.297-.586-.446-1.093-.446q-.747 0-1.074.446c-.245.314-.359.935-.359 1.852m3.504-.105v.454c0 1.014-.184 1.713-.533 2.114-.332.376-.839.56-1.538.56-.655 0-1.144-.166-1.476-.498-.402-.402-.594-1.127-.594-2.176v-.454c0-1.013.183-1.73.55-2.14.323-.358.83-.542 1.52-.542.682 0 1.188.184 1.52.542.367.41.55 1.127.55 2.14M6.35 28h-.367q-.105 0-.104-.105v-3.678h-.533c-.061 0-.088-.026-.088-.096v-.174c0-.07.027-.105.088-.114l.533-.114v-.27c0-.385.06-.673.183-.883.218-.367.612-.559 1.17-.559.28 0 .507.026.7.079q.104.04.104.13l-.043.245c-.018.079-.07.105-.149.088a3 3 0 0 0-.524-.053c-.28 0-.48.062-.611.166-.175.14-.263.402-.263.795v.262h.935c.053 0 .088.035.088.088v.323c0 .061-.035.087-.088.087h-.935v3.678c0 .07-.035.105-.096.105m4.814-2.865v.716c0 .122-.026.21-.07.262-.052.052-.13.07-.253.07H8.588c.018.524.105.891.28 1.1.166.21.454.306.865.306.34 0 .663-.052.96-.174q.171-.067.21.06l.061.202a.17.17 0 0 1-.008.13q-.027.053-.184.106a2.9 2.9 0 0 1-1.04.166q-.956.002-1.336-.48c-.262-.315-.384-.84-.384-1.565v-.349c0-.699.122-1.214.375-1.546.245-.332.673-.498 1.267-.498q.747.002 1.127.358c.253.253.384.629.384 1.136M9.663 24.13c-.385 0-.664.114-.822.332-.166.227-.253.629-.253 1.223h1.878c.044 0 .079 0 .096-.017s.027-.053.027-.114v-.332c0-.376-.07-.646-.201-.812-.158-.184-.393-.28-.725-.28M12.607 28h-.279c-.096 0-.14-.035-.14-.114v-4.07c0-.062.035-.097.105-.097h.253c.053 0 .088.035.105.096l.035.455h.018q.29-.55 1.013-.55h.227c.07 0 .114.034.114.104v.297c0 .07-.044.096-.114.096h-.236c-.384 0-.655.123-.795.359-.104.174-.157.401-.157.69v2.62c0 .08-.052.114-.149.114m4.18 0h-.41c-.455 0-.787-.114-.98-.35-.191-.227-.288-.558-.288-1.004v-2.429h-.533c-.06 0-.087-.026-.087-.096v-.174c0-.07.026-.105.087-.114l.533-.114v-.987q0-.105.105-.105h.367c.061 0 .096.035.096.105v.987H16.7c.053 0 .088.035.088.088v.323c0 .061-.035.087-.088.087h-1.022v2.359c0 .35.053.594.158.716.104.149.323.219.637.219h.315c.07 0 .105.035.105.096v.297c0 .07-.035.096-.105.096m3.332-.087-.018-.297h-.017c-.192.314-.507.463-.926.463h-.437c-.42 0-.725-.105-.935-.315s-.314-.48-.314-.821v-.262q0-.825.681-1.1.289-.121 1.048-.123h.262c.21 0 .411.009.586.026v-.498c0-.314-.088-.542-.254-.664-.174-.122-.436-.192-.803-.192-.306 0-.603.044-.9.131-.14.035-.21.018-.227-.07l-.044-.183c-.035-.105 0-.166.096-.201a4 4 0 0 1 1.118-.166c.56 0 .961.105 1.206.306.245.2.376.524.376.978v2.988q-.002.088-.097.087h-.288c-.078 0-.113-.026-.113-.087m-.07-1.223v-.726a4 4 0 0 0-.524-.026h-.49c-.366 0-.62.062-.768.175-.149.114-.219.306-.219.577v.183q0 .395.184.568c.105.105.288.157.533.157h.358c.288 0 .515-.07.681-.227.157-.157.245-.384.245-.681m4.151-.918v.166c0 .437.027.752.088.961.13.463.471.69 1.013.69s.882-.227 1.022-.69c.053-.21.087-.524.087-.96v-.167c0-.428-.034-.751-.087-.96q-.196-.682-1.022-.682c-.55 0-.891.227-1.013.681q-.09.317-.088.961m2.787-.087v.35c0 .786-.157 1.336-.454 1.633-.28.28-.69.41-1.232.41s-.943-.13-1.223-.41c-.306-.297-.454-.847-.454-1.634v-.349c0-.786.148-1.337.454-1.642.27-.262.681-.402 1.223-.402s.952.14 1.232.402c.297.305.454.856.454 1.642m2.6 1.904c.437 0 .734-.113.9-.34q.251-.356.253-1.25v-.297c0-.629-.122-1.065-.35-1.301-.183-.175-.462-.271-.83-.271q-.56 0-.82.262a.75.75 0 0 0-.193.332c-.035.131-.043.323-.043.568v1.197c0 .35.06.602.183.768.157.228.454.332.9.332m-1.083-5.407v1.878h.017q.328-.42 1.1-.42.867 0 1.285.499c.27.332.41.838.41 1.529v.401c0 .734-.148 1.258-.436 1.555-.288.306-.725.455-1.302.455-.629 0-1.065-.149-1.319-.455-.218-.253-.323-.611-.323-1.074v-4.368c0-.061.035-.096.105-.096h.358c.07 0 .105.035.105.096m4.176 3.59v.166c0 .437.027.752.088.961.13.463.471.69 1.013.69s.882-.227 1.022-.69c.053-.21.088-.524.088-.96v-.167c0-.428-.035-.751-.088-.96q-.195-.682-1.022-.682c-.55 0-.891.227-1.013.681q-.09.317-.088.961m2.787-.087v.35c0 .786-.157 1.336-.454 1.633-.28.28-.69.41-1.232.41-.541 0-.943-.13-1.223-.41-.306-.297-.454-.847-.454-1.634v-.349c0-.786.148-1.337.454-1.642.27-.262.681-.402 1.223-.402s.952.14 1.232.402c.297.305.454.856.454 1.642m3.107-1.756h.393c.157 0 .262.087.297.245.253 1.258.515 2.385.795 3.38h.044c.323-1.24.594-2.49.812-3.73 0-.052.017-.078.035-.087a.3.3 0 0 1 .122-.018h.271q.092 0 .131.027c.018.017.026.043.026.096q-.288 1.467-.89 3.8c-.07.244-.193.358-.368.358h-.297c-.113 0-.2-.026-.253-.079-.061-.052-.105-.14-.14-.28a55 55 0 0 1-.751-3.188h-.061a63 63 0 0 1-.752 3.189.6.6 0 0 1-.14.28.38.38 0 0 1-.253.078h-.297c-.183 0-.306-.114-.367-.358q-.615-2.333-.89-3.8c-.01-.053 0-.079.026-.096q.025-.027.13-.027h.271q.132 0 .158.105c.21 1.24.48 2.49.812 3.73h.044q.404-1.493.795-3.38c.035-.158.13-.245.297-.245m4.394-.113v4.114c0 .053-.026.07-.079.07h-.42c-.052 0-.069-.017-.069-.07v-4.114c0-.062.035-.097.105-.097h.358c.07 0 .105.035.105.096m.122-1.25v.053q-.002.42-.384.419h-.035c-.271 0-.402-.14-.402-.42v-.052c0-.27.131-.41.402-.41h.035c.253 0 .384.14.384.41m3.578 5.4-.009-.35h-.017c-.193.314-.507.463-.927.463h-.436c-.42 0-.725-.105-.935-.315s-.315-.48-.315-.821v-.262q0-.825.682-1.1.288-.121 1.048-.123h.262c.21 0 .41.009.586.026v-.498c0-.314-.088-.542-.254-.664-.175-.122-.437-.192-.803-.192-.306 0-.603.044-.9.131-.14.035-.21.018-.227-.07l-.044-.183c-.035-.105 0-.166.096-.201a4 4 0 0 1 1.118-.166c.56 0 .961.105 1.206.306q.367.298.367.978v2.918a.22.22 0 0 1-.079.174c-.21.193-.367.35-.454.49a.74.74 0 0 0-.14.436c0 .21.122.315.376.315.14 0 .28-.026.419-.096.061-.026.105-.009.122.044l.053.244q.023.092-.07.131c-.21.088-.42.131-.647.131q-.838 0-.838-.655a.9.9 0 0 1 .183-.576c.122-.158.315-.333.577-.516m-.061-1.268v-.733a4 4 0 0 0-.525-.027h-.489c-.367 0-.62.062-.769.175q-.22.17-.218.577v.174q0 .406.183.577c.105.105.289.157.533.157h.358c.289 0 .516-.07.682-.227.157-.148.245-.376.245-.673m4.306.9v.315c0 .06-.035.087-.088.087H48.1c-.06 0-.087-.026-.087-.087v-.149c0-.087.053-.21.157-.384l1.922-3.171h-1.93c-.062 0-.088-.027-.088-.088v-.314c0-.053.026-.088.088-.088h2.585c.053 0 .088.035.088.088v.122c0 .105-.079.28-.227.524l-1.879 3.058h2.097c.052 0 .087.035.087.087m3.507-3.879h.367c.061 0 .096.044.096.114v2.935q-.001.669-.384.996c-.245.21-.647.315-1.188.315-.542 0-.944-.105-1.188-.315q-.393-.327-.393-.996V23.86c0-.087.035-.14.122-.14h.323c.079 0 .122.044.122.123v2.856c0 .324.07.55.228.682q.235.21.786.21c.367 0 .629-.08.803-.245q.2-.185.201-.647v-2.865c0-.07.035-.114.105-.114m2.317.096v4.133c0 .428-.078.768-.218 1.013-.227.402-.62.594-1.18.594h-.314c-.07 0-.096-.035-.096-.105v-.288c0-.07.026-.105.096-.105h.297c.35 0 .594-.131.717-.402.087-.192.13-.437.13-.751v-4.088c0-.062.036-.097.106-.097h.358c.07 0 .104.035.104.096m.123-1.249v.053q-.002.42-.385.419h-.035q-.403 0-.401-.42v-.052c0-.27.13-.41.401-.41h.035c.254 0 .385.14.385.41m4.145 2.569v.716c0 .122-.026.21-.07.262-.053.052-.131.07-.253.07h-2.254c.017.524.105.891.28 1.1.165.21.453.306.864.306.34 0 .664-.052.961-.174q.171-.067.21.06l.06.202a.17.17 0 0 1-.008.13q-.026.053-.183.106a2.9 2.9 0 0 1-1.04.166q-.956.002-1.337-.48c-.262-.315-.384-.84-.384-1.565v-.349c0-.699.122-1.214.376-1.546.244-.332.672-.498 1.267-.498q.746.002 1.126.358.383.377.385 1.136m-1.503-1.005c-.384 0-.664.114-.821.332-.166.227-.253.629-.253 1.223h1.878c.044 0 .079 0 .096-.017s.026-.053.026-.114v-.332c0-.376-.07-.646-.2-.812-.158-.184-.394-.28-.726-.28m7.753-1.948v4.385c0 .455-.114.804-.323 1.057q-.392.457-1.32.455-.942.002-1.336-.428-.403-.42-.402-1.573v-.41c0-.69.131-1.197.41-1.53q.408-.497 1.285-.497.76 0 1.1.42h.018v-1.88c0-.06.035-.095.105-.095h.358c.07 0 .105.035.105.096m-.568 4.307v-1.197c0-.367-.096-.647-.27-.856-.175-.201-.437-.306-.787-.306-.393 0-.681.105-.856.297q-.325.368-.323 1.284v.297q0 .97.314 1.31c.157.184.437.271.839.271.437 0 .742-.104.9-.332.122-.166.183-.419.183-.768m2.098-.717v.166c0 .437.026.752.087.961.131.463.472.69 1.013.69.542 0 .883-.227 1.022-.69.053-.21.088-.524.088-.96v-.167c0-.428-.035-.751-.088-.96q-.195-.682-1.022-.682t-1.013.681c-.061.21-.087.533-.087.961m2.786-.087v.35c0 .786-.157 1.336-.454 1.633-.28.28-.69.41-1.232.41-.541 0-.943-.13-1.223-.41-.306-.297-.454-.847-.454-1.634v-.349c0-.786.148-1.337.454-1.642.271-.262.682-.402 1.223-.402.542 0 .953.14 1.232.402.297.305.454.856.454 1.642m4.49 1.904c.402 0 .717-.096.926-.288q.278-.264.28-.804v-.078c0-.437-.122-.743-.358-.909q-.354-.251-1.101-.253h-.262c-.087 0-.122-.035-.122-.114v-.262c0-.078.043-.122.14-.122h.2c.926 0 1.39-.34 1.39-1.04v-.078q0-.433-.263-.655c-.174-.149-.42-.228-.725-.228-.35 0-.699.07-1.04.201q-.183.068-.21-.06l-.069-.228c-.026-.079.018-.14.122-.175a3.6 3.6 0 0 1 1.258-.227q.747 0 1.153.34c.271.228.411.551.411.988v.114c0 .655-.306 1.074-.9 1.258v.026c.297.061.533.21.725.445.193.245.289.55.289.926v.114c0 1.066-.612 1.599-1.817 1.599-.463 0-.909-.053-1.328-.175-.105-.026-.14-.087-.123-.175l.053-.227c.017-.087.078-.122.192-.087.367.122.76.174 1.18.174m5.177-.078h1.223q.13 0 .13.13v.245c0 .08-.043.114-.13.114h-3.084q-.13 0-.131-.131v-.227q0-.13.13-.131h1.259v-4.57h-.061l-.9.543c-.079.052-.14.034-.184-.044l-.14-.227c-.052-.07-.034-.123.044-.166l.961-.594a.68.68 0 0 1 .376-.105h.297q.21 0 .21.183zm2.651-.323h.088c.244 0 .375.113.375.34v.21c0 .227-.13.34-.375.34h-.088c-.253 0-.375-.113-.375-.34v-.21c0-.227.122-.34.375-.34m4.975-2.132v.236c0 1.127-.193 1.896-.568 2.315-.28.314-.7.472-1.25.472-.559 0-.97-.158-1.249-.472-.384-.42-.568-1.188-.568-2.315v-.236c0-1.118.184-1.896.568-2.315.28-.315.69-.472 1.25-.472.55 0 .97.157 1.249.472.375.42.567 1.197.567 2.315m-2.997.061v.114c0 .943.105 1.58.332 1.922.175.297.463.436.847.436.385 0 .664-.14.848-.436.218-.341.332-.979.332-1.922v-.114c0-.935-.114-1.572-.332-1.922-.184-.288-.463-.437-.848-.437s-.672.149-.847.437c-.227.35-.332.987-.332 1.922m5.49 2.472c.403 0 .717-.096.927-.288.183-.175.28-.445.28-.804v-.078c0-.437-.123-.743-.359-.909q-.353-.251-1.1-.253h-.263c-.087 0-.122-.035-.122-.114v-.262c0-.078.044-.122.14-.122h.2c.927 0 1.39-.34 1.39-1.04v-.078q0-.433-.262-.655c-.175-.149-.42-.228-.725-.228-.35 0-.7.07-1.04.201q-.183.068-.21-.06l-.07-.228c-.026-.079.018-.14.123-.175a3.6 3.6 0 0 1 1.258-.227q.747 0 1.153.34c.27.228.41.551.41.988v.114c0 .655-.305 1.074-.9 1.258v.026c.298.061.534.21.726.445.192.245.288.55.288.926v.114c0 1.066-.611 1.599-1.817 1.599-.463 0-.909-.053-1.328-.175-.105-.026-.14-.087-.122-.175l.052-.227c.018-.087.079-.122.192-.087.367.122.76.174 1.18.174m3.29-.401h.088c.244 0 .375.113.375.34v.21c0 .227-.13.34-.375.34h-.088c-.253 0-.375-.113-.375-.34v-.21c0-.227.122-.34.375-.34m1.777-4.683a4.2 4.2 0 0 1 1.372-.236c.515 0 .908.105 1.17.297q.472.367.472 1.127v.114c0 .41-.096.734-.27.96-.184.237-.499.446-.936.638l-.602.262c-.341.149-.568.332-.682.56-.113.227-.166.559-.166.978v.306h2.438c.07 0 .113.044.113.113v.262c0 .08-.044.114-.114.114H96.38c-.078 0-.13-.009-.157-.044-.035-.035-.044-.087-.044-.166v-.506c0-.524.079-.944.245-1.276.157-.323.463-.585.9-.777l.603-.262c.34-.149.567-.306.69-.472q.183-.235.183-.681v-.062c0-.367-.096-.637-.288-.795-.175-.13-.428-.2-.76-.2-.367 0-.76.078-1.17.218q-.185.063-.21-.07l-.07-.227c-.018-.079.017-.14.122-.175m7.736 2.551v.236c0 1.127-.192 1.896-.568 2.315-.279.314-.699.472-1.249.472-.559 0-.97-.158-1.249-.472-.385-.42-.568-1.188-.568-2.315v-.236c0-1.118.183-1.896.568-2.315.279-.315.69-.472 1.249-.472.55 0 .97.157 1.249.472.376.42.568 1.197.568 2.315m-2.996.061v.114c0 .943.104 1.58.332 1.922.174.297.463.436.847.436s.664-.14.847-.436c.219-.341.332-.979.332-1.922v-.114c0-.935-.113-1.572-.332-1.922-.183-.288-.463-.437-.847-.437s-.673.149-.847.437c-.228.35-.332.987-.332 1.922m4.337-2.612a4.2 4.2 0 0 1 1.372-.236c.515 0 .908.105 1.17.297q.472.367.472 1.127v.114c0 .41-.096.734-.271.96-.183.237-.498.446-.934.638l-.603.262c-.341.149-.568.332-.682.56-.113.227-.166.559-.166.978v.306h2.438c.07 0 .113.044.113.113v.262c0 .08-.043.114-.113.114h-2.839c-.079 0-.131-.009-.158-.044-.035-.035-.043-.087-.043-.166v-.506c0-.524.078-.944.244-1.276.158-.323.463-.585.9-.777l.603-.262c.341-.149.568-.306.69-.472q.183-.235.183-.681v-.062c0-.367-.096-.637-.288-.795-.175-.13-.428-.2-.76-.2-.367 0-.76.078-1.17.218q-.184.063-.21-.07l-.07-.227c-.018-.079.017-.14.122-.175m7.23-.113c.104.034.148.096.131.166l-.062.218q-.052.145-.183.096a3 3 0 0 0-.795-.114c-.48 0-.847.175-1.101.516-.227.306-.375.847-.428 1.625.157-.131.35-.236.594-.323.245-.08.481-.123.717-.123.498 0 .891.149 1.17.437.28.288.428.69.428 1.206v.157c0 .568-.157 1.013-.463 1.336-.314.332-.734.49-1.275.49q-.996.002-1.415-.638c-.28-.42-.411-1.066-.411-1.94v-.21c0-.506.052-.969.166-1.406q.157-.655.472-.996c.358-.41.891-.62 1.59-.62.349 0 .637.044.865.123m-1.241 2.577c-.454 0-.856.183-1.214.532v.123c0 .664.087 1.162.262 1.485s.472.48.891.48c.358 0 .638-.104.839-.332.192-.227.297-.55.297-.978v-.114q0-.59-.289-.89-.288-.305-.786-.306m2.992 2.219h.088c.244 0 .375.113.375.34v.21c0 .227-.131.34-.375.34h-.088c-.253 0-.375-.113-.375-.34v-.21c0-.227.122-.34.375-.34m4.838.89c-.542 0-1.022-.078-1.45-.253-.079-.026-.105-.078-.088-.148l.07-.288c.018-.088.079-.105.184-.07.402.183.83.27 1.266.27.402 0 .708-.087.918-.27.209-.184.314-.446.314-.795v-.097c0-.314-.07-.541-.192-.68-.122-.14-.367-.263-.734-.35l-.585-.14c-.428-.105-.743-.262-.944-.49-.201-.218-.297-.523-.297-.925v-.131c0-.463.149-.822.446-1.066s.707-.376 1.232-.376c.471 0 .882.061 1.249.166.096.035.131.096.113.192l-.061.21q-.04.131-.209.079a3.8 3.8 0 0 0-1.075-.158c-.725 0-1.083.324-1.083.961v.088c0 .297.07.506.209.637q.21.2.708.306l.55.131q.708.173.996.49.29.327.289.97v.139c0 .533-.158.935-.472 1.197-.315.27-.76.402-1.354.402m5.354-.48v.315c0 .06-.035.087-.088.087h-2.725c-.062 0-.088-.026-.088-.087v-.149c0-.087.053-.21.158-.384l1.921-3.171h-1.93q-.09.002-.088-.088v-.314c0-.053.027-.088.088-.088h2.586c.052 0 .087.035.087.088v.122c0 .105-.079.28-.227.524l-1.878 3.058h2.096c.053 0 .088.035.088.087m3.446-.113.061.2q.027.092 0 .132c-.017.026-.061.052-.148.087-.288.122-.62.175-.996.175q-.812.002-1.206-.376c-.34-.306-.506-.882-.506-1.73v-.288c0-.769.174-1.32.533-1.651q.418-.393 1.179-.393c.227 0 .463.043.69.113.227.079.419.166.559.271.044.035.044.088.009.14l-.149.245c-.034.052-.078.06-.148.017-.332-.192-.647-.297-.961-.297-.341 0-.603.096-.786.27-.236.237-.35.69-.35 1.364v.148c0 .664.088 1.118.28 1.345.175.228.463.332.882.332.28 0 .559-.052.848-.166.113-.043.183-.026.209.062m3.6.113v.315c0 .06-.034.087-.087.087h-2.726c-.061 0-.087-.026-.087-.087v-.149c0-.087.053-.21.157-.384l1.922-3.171h-1.93c-.062 0-.088-.027-.088-.088v-.314c0-.053.026-.088.088-.088h2.585c.053 0 .088.035.088.088v.122c0 .105-.079.28-.227.524l-1.879 3.058h2.097c.053 0 .087.035.087.087m3.805-2.463v.716c0 .122-.026.21-.07.262-.052.052-.131.07-.253.07h-2.254c.018.524.105.891.28 1.1.166.21.454.306.865.306.34 0 .663-.052.961-.174q.17-.067.209.06l.061.202a.17.17 0 0 1-.008.13q-.027.053-.184.106a2.9 2.9 0 0 1-1.039.166q-.957.002-1.337-.48c-.262-.315-.384-.84-.384-1.565v-.349c0-.699.122-1.214.375-1.546.245-.332.673-.498 1.267-.498q.747.002 1.127.358c.253.253.384.629.384 1.136m-1.502-1.005c-.385 0-.664.114-.822.332-.166.227-.253.629-.253 1.223h1.878c.044 0 .079 0 .096-.017s.027-.053.027-.114v-.332c0-.376-.07-.646-.201-.812-.157-.184-.393-.28-.725-.28m5.164 2.647a2 2 0 0 1-.228.175c.498.323.752.733.752 1.223v.096c0 .472-.158.812-.472 1.03-.315.228-.751.333-1.293.333a3.5 3.5 0 0 1-1.581-.358c-.061-.027-.088-.07-.07-.14l.096-.262q.026-.105.157-.053c.446.219.891.323 1.337.323.419 0 .734-.06.926-.192q.288-.196.288-.707v-.07c0-.455-.218-.804-.646-1.031-.14.035-.306.044-.516.044-.498 0-.882-.105-1.162-.324-.305-.262-.454-.681-.454-1.275v-.358q-.002-.904.454-1.285c.245-.2.638-.305 1.162-.305.123 0 .219.009.28.009.14-.42.472-.638.978-.638h.21q.12.002.122.122v.341c0 .008-.009.017-.009.026q-.01.015-.034.017c-.018.01-.044.01-.062.01h-.262c-.227 0-.367.078-.436.218.157.06.288.13.384.2.297.254.454.682.454 1.285v.358c0 .515-.131.908-.375 1.188m-2.272-1.485v.227c0 .28.026.515.096.69.123.358.437.533.926.533q.747.002.944-.533a2.4 2.4 0 0 0 .087-.699v-.218c0-.297-.035-.524-.087-.682a.7.7 0 0 0-.332-.401c-.149-.079-.35-.123-.612-.123-.253 0-.454.044-.603.123-.148.078-.253.21-.323.401-.07.175-.096.402-.096.682m4.138.48v.166c0 .437.026.752.087.961.131.463.472.69 1.014.69.541 0 .882-.227 1.022-.69.052-.21.087-.524.087-.96v-.167c0-.428-.035-.751-.087-.96q-.197-.682-1.022-.682c-.551 0-.892.227-1.014.681-.061.21-.087.533-.087.961m2.787-.087v.35c0 .786-.158 1.336-.455 1.633-.279.28-.69.41-1.231.41s-.944-.13-1.223-.41c-.306-.297-.455-.847-.455-1.634v-.349c0-.786.149-1.337.455-1.642.27-.262.681-.402 1.223-.402.541 0 .952.14 1.231.402.297.305.455.856.455 1.642m-2.525-3.136 1.485-.725c.114-.053.192-.027.236.06l.148.307c.035.087-.008.157-.113.21l-1.494.567c-.114.044-.183.026-.218-.052l-.088-.192c-.035-.08-.026-.14.044-.175m4.111-.367v2.254l.865-.568c.096-.052.149-.026.149.096v.306a.27.27 0 0 1-.132.244l-.882.586v1.756q0 .458.079.55c.043.07.148.096.314.096h.236c.07 0 .105.035.105.096v.297c0 .07-.035.105-.087.105h-.332c-.315 0-.542-.061-.673-.2-.14-.14-.21-.412-.21-.805v-1.52l-.602.393c-.105.062-.149.027-.149-.096v-.305q0-.155.131-.245l.62-.41v-2.63c0-.061.035-.096.105-.096h.358c.07 0 .105.035.105.096m2.158 7.155c.235-.463.445-.926.637-1.398-.262 0-.463-.184-.585-.55a19 19 0 0 1-.489-1.503 38 38 0 0 1-.533-2.053c-.018-.07.009-.114.096-.114h.393c.052 0 .079.027.096.079.122.62.28 1.267.463 1.94.096.384.245.855.437 1.415.035.104.07.183.114.218.034.044.096.061.166.061h.034c.332-.908.647-2.123.953-3.643.008-.043.043-.07.096-.07h.402c.035 0 .052.01.07.027.017.017.017.035.017.052-.271 1.267-.55 2.315-.83 3.154-.279.838-.62 1.712-1.022 2.603-.035.079-.096.096-.184.061l-.288-.105c-.078-.026-.096-.087-.043-.174m5.923-5.521v4.114c0 .053-.026.07-.078.07h-.42c-.052 0-.07-.017-.07-.07v-4.114c0-.062.035-.097.105-.097h.358c.07 0 .105.035.105.096m.123-1.25v.053c0 .28-.131.419-.385.419h-.035c-.271 0-.402-.14-.402-.42v-.052c0-.27.131-.41.402-.41h.035c.254 0 .385.14.385.41M157.298 28h-.28c-.096 0-.14-.035-.14-.114v-4.07c0-.062.035-.097.105-.097h.253c.053 0 .088.035.105.096l.035.455h.018c.192-.367.533-.55 1.013-.55h.227c.07 0 .114.034.114.104v.297c0 .07-.044.096-.114.096h-.236c-.384 0-.655.123-.795.359-.105.174-.157.401-.157.69v2.62c0 .08-.052.114-.148.114m5.169-2.865v.716c0 .122-.026.21-.07.262-.052.052-.131.07-.253.07h-2.254c.017.524.105.891.279 1.1.166.21.455.306.865.306.341 0 .664-.052.961-.174q.171-.067.21.06l.061.202a.17.17 0 0 1-.009.13q-.025.053-.183.106a2.9 2.9 0 0 1-1.04.166q-.956.002-1.336-.48c-.262-.315-.385-.84-.385-1.565v-.349q-.002-1.048.376-1.546c.244-.332.673-.498 1.267-.498q.746.002 1.127.358c.253.253.384.629.384 1.136m-1.503-1.005c-.384 0-.664.114-.821.332-.166.227-.253.629-.253 1.223h1.878c.044 0 .079 0 .096-.017s.026-.053.026-.114v-.332c0-.376-.07-.646-.201-.812-.157-.184-.393-.28-.725-.28m5.164 2.647c-.078.07-.157.131-.227.175q.749.486.751 1.223v.096c0 .472-.157.812-.471 1.03-.315.228-.752.333-1.293.333a3.5 3.5 0 0 1-1.582-.358c-.061-.027-.087-.07-.069-.14l.096-.262q.026-.105.157-.053c.445.219.891.323 1.337.323.419 0 .733-.06.926-.192q.288-.196.288-.707v-.07c0-.455-.219-.804-.647-1.031a2.2 2.2 0 0 1-.515.044c-.498 0-.882-.105-1.162-.324-.306-.262-.454-.681-.454-1.275v-.358c0-.603.148-1.031.454-1.285.245-.2.638-.305 1.162-.305.122 0 .218.009.28.009.139-.42.471-.638.978-.638h.21c.078 0 .122.043.122.122v.341c0 .008-.009.017-.009.026-.009.009-.017.017-.035.017-.017.01-.043.01-.061.01h-.262c-.227 0-.367.078-.437.218.157.06.288.13.385.2.297.254.454.682.454 1.285v.358c0 .515-.131.908-.376 1.188m-2.271-1.485v.227c0 .28.026.515.096.69.122.358.437.533.926.533q.747.002.943-.533a2.4 2.4 0 0 0 .088-.699v-.218a2.2 2.2 0 0 0-.088-.682.7.7 0 0 0-.332-.401c-.148-.079-.349-.123-.611-.123-.253 0-.454.044-.603.123-.148.078-.253.21-.323.401-.07.175-.096.402-.096.682m6.418-1.573h.367c.061 0 .096.044.096.114v2.935q-.002.669-.385.996c-.244.21-.646.315-1.188.315s-.943-.105-1.188-.315q-.393-.327-.393-.996V23.86c0-.087.035-.14.122-.14h.323c.079 0 .123.044.123.123v2.856c0 .324.07.55.227.682q.236.21.786.21c.367 0 .629-.08.804-.245.131-.122.201-.34.201-.647v-2.865c0-.07.035-.114.105-.114m2.221-1.537v4.674q0 .458.078.55c.044.07.149.096.315.096h.236c.07 0 .105.035.105.096v.297c0 .07-.035.105-.088.105h-.332c-.314 0-.541-.061-.672-.2-.14-.14-.21-.412-.21-.805v-4.813c0-.061.035-.096.105-.096h.358c.07 0 .105.035.105.096m4 5.73-.017-.296h-.017c-.193.314-.507.463-.926.463h-.437c-.42 0-.725-.105-.935-.315s-.315-.48-.315-.821v-.262q0-.825.682-1.1.289-.121 1.048-.123h.262c.21 0 .411.009.586.026v-.498c0-.314-.088-.542-.254-.664-.174-.122-.437-.192-.803-.192-.306 0-.603.044-.9.131-.14.035-.21.018-.227-.07l-.044-.183c-.035-.105 0-.166.096-.201a4 4 0 0 1 1.118-.166c.559 0 .961.105 1.206.306.244.2.375.524.375.978v2.988c0 .06-.035.087-.096.087h-.288c-.079 0-.114-.026-.114-.087m-.069-1.222v-.726a4 4 0 0 0-.525-.026h-.489c-.367 0-.62.062-.769.175q-.22.17-.218.577v.183q0 .395.184.568c.104.105.288.157.532.157h.359c.288 0 .515-.07.681-.227.157-.157.245-.384.245-.681m1.728 1.179v-4.053c0-.062.026-.097.096-.097h.254c.061 0 .096.035.104.096l.044.35h.018c.069-.122.192-.227.358-.332a1.64 1.64 0 0 1 .812-.192c.612 0 1.049.2 1.302.603h.017q.461-.603 1.354-.603c.525 0 .909.14 1.154.41.227.271.349.708.349 1.302v2.516c0 .087-.052.131-.14.131h-.297q-.13 0-.131-.131v-2.551c0-.402-.078-.69-.218-.882-.175-.201-.437-.306-.804-.306q-.708 0-1.101.524c.035.227.053.463.053.699v2.516q0 .13-.131.131h-.297c-.096 0-.14-.044-.14-.131v-2.551q0-.642-.262-.917c-.175-.175-.454-.271-.821-.271-.402 0-.69.122-.848.367q-.157.236-.157.681v2.691q0 .13-.131.131h-.306q-.13 0-.131-.131m7.703-4.053v4.114c0 .053-.026.07-.079.07h-.419c-.053 0-.07-.017-.07-.07v-4.114c0-.062.035-.097.105-.097h.358c.07 0 .105.035.105.096m.122-1.25v.053c0 .28-.131.419-.384.419h-.035c-.271 0-.402-.14-.402-.42v-.052c0-.27.131-.41.402-.41h.035c.253 0 .384.14.384.41m4.451 5.286c0 .104-.061.148-.166.148h-.244q-.105 0-.131-.026c-.018-.018-.027-.053-.027-.122V25.3c0-.516-.139-.857-.401-1.022-.175-.105-.411-.166-.708-.166-.411 0-.699.122-.856.366q-.157.237-.157.682v2.708q0 .13-.158.131h-.271c-.096 0-.139-.044-.139-.131v-4.053c0-.062.026-.097.087-.097h.262c.061 0 .096.035.105.096l.044.35h.017c.07-.122.192-.227.358-.332.219-.122.49-.192.821-.192.673 0 1.127.2 1.355.585q.209.367.209 1.127zm1.528-3.993h.087c.245 0 .376.114.376.34v.21c0 .228-.131.341-.376.341h-.087c-.254 0-.376-.113-.376-.34v-.21c0-.227.122-.34.376-.34m0 3.329h.087c.245 0 .376.113.376.34v.21c0 .227-.131.34-.376.34h-.087c-.254 0-.376-.113-.376-.34v-.21c0-.227.122-.34.376-.34m6.366-3.469h.367c.061 0 .096.044.096.114v2.935c0 .446-.131.778-.384.996-.245.21-.646.315-1.188.315s-.944-.105-1.188-.315q-.393-.327-.393-.996V23.86c0-.087.035-.14.122-.14h.323c.079 0 .123.044.123.123v2.856c0 .324.069.55.227.682q.236.21.786.21c.367 0 .629-.08.804-.245.131-.122.201-.34.201-.647v-2.865c0-.07.034-.114.104-.114m4.886 4.133c0 .104-.061.148-.166.148h-.245q-.104 0-.131-.026c-.017-.018-.026-.053-.026-.122V25.3c0-.516-.14-.857-.402-1.022-.174-.105-.41-.166-.707-.166-.411 0-.699.122-.856.366q-.158.237-.158.682v2.708q0 .13-.157.131h-.271c-.096 0-.139-.044-.139-.131v-4.053c0-.062.026-.097.087-.097h.262c.061 0 .096.035.105.096l.043.35h.018c.07-.122.192-.227.358-.332.219-.122.489-.192.821-.192.673 0 1.127.2 1.354.585q.21.367.21 1.127zm1.842-4.036v4.114c0 .053-.026.07-.079.07h-.419c-.052 0-.07-.017-.07-.07v-4.114c0-.062.035-.097.105-.097h.358c.07 0 .105.035.105.096m.122-1.25v.053c0 .28-.131.419-.384.419h-.035c-.271 0-.402-.14-.402-.42v-.052c0-.27.131-.41.402-.41h.035c.253 0 .384.14.384.41m3.779 4.919.061.2q.026.092 0 .132c-.017.026-.061.052-.149.087-.288.122-.62.175-.995.175q-.813.002-1.206-.376c-.341-.306-.507-.882-.507-1.73v-.288q-.002-1.154.533-1.651.42-.393 1.18-.393c.227 0 .463.043.69.113.227.079.419.166.559.271.044.035.044.088.009.14l-.149.245c-.035.052-.079.06-.148.017-.332-.192-.647-.297-.961-.297-.341 0-.603.096-.787.27-.236.237-.349.69-.349 1.364v.148c0 .664.087 1.118.279 1.345.175.228.463.332.883.332.279 0 .559-.052.847-.166.114-.043.184-.026.21.062m1.434.515h-.28c-.096 0-.14-.035-.14-.114v-4.07c0-.062.035-.097.105-.097h.253c.053 0 .088.035.105.096l.035.455h.018c.192-.367.533-.55 1.013-.55h.227c.07 0 .114.034.114.104v.297c0 .07-.044.096-.114.096h-.236c-.384 0-.655.123-.795.359-.105.174-.157.401-.157.69v2.62c0 .08-.052.114-.148.114m5.169-2.865v.716q-.002.184-.07.262c-.052.052-.131.07-.253.07h-2.254c.017.524.105.891.279 1.1.166.21.455.306.865.306.341 0 .664-.052.961-.174q.171-.067.21.06l.061.202a.17.17 0 0 1-.009.13q-.025.053-.183.106a2.9 2.9 0 0 1-1.04.166q-.957.002-1.336-.48c-.262-.315-.385-.84-.385-1.565v-.349q-.002-1.048.376-1.546c.244-.332.673-.498 1.267-.498q.746.002 1.127.358c.253.253.384.629.384 1.136m-1.503-1.005c-.384 0-.664.114-.821.332-.166.227-.253.629-.253 1.223h1.878c.044 0 .079 0 .096-.017s.026-.053.026-.114v-.332c0-.376-.07-.646-.201-.812-.157-.184-.393-.28-.725-.28m5.697-1.948v4.385c0 .455-.113.804-.323 1.057q-.391.457-1.319.455-.944.002-1.337-.428c-.271-.28-.402-.804-.402-1.573v-.41c0-.69.131-1.197.411-1.53q.406-.497 1.284-.497.76 0 1.101.42h.017v-1.88c0-.06.035-.095.105-.095h.358c.07 0 .105.035.105.096m-.568 4.307v-1.197c0-.367-.096-.647-.271-.856-.174-.201-.436-.306-.786-.306-.393 0-.681.105-.856.297q-.325.368-.323 1.284v.297q0 .97.314 1.31c.158.184.437.271.839.271.437 0 .743-.104.9-.332.122-.166.183-.419.183-.768m2.412-2.674v4.115c0 .053-.026.07-.078.07h-.42c-.052 0-.07-.017-.07-.07v-4.114c0-.062.035-.097.105-.097h.358c.07 0 .105.035.105.096m.123-1.249v.053c0 .28-.132.419-.385.419h-.035c-.271 0-.402-.14-.402-.42v-.052c0-.27.131-.41.402-.41h.035c.253 0 .385.14.385.41M224.736 28h-.411c-.454 0-.786-.114-.978-.35-.192-.227-.288-.558-.288-1.004v-2.429h-.533c-.061 0-.088-.026-.088-.096v-.174c0-.07.027-.105.088-.114l.533-.114v-.987q0-.105.104-.105h.367q.095 0 .096.105v.987h1.023c.052 0 .087.035.087.088v.323c0 .061-.035.087-.087.087h-1.023v2.359c0 .35.053.594.158.716.105.149.323.219.637.219h.315c.07 0 .105.035.105.096v.297c0 .07-.035.096-.105.096m1.13-.812h.088c.244 0 .375.113.375.34v.21c0 .227-.131.34-.375.34h-.088c-.253 0-.375-.113-.375-.34v-.21c0-.227.122-.34.375-.34m3.245.89c-.559 0-.961-.148-1.197-.462h-.017v1.834c0 .07-.035.096-.088.096h-.393c-.061 0-.087-.026-.087-.096v-5.634c0-.062.026-.097.087-.097h.262c.061 0 .096.035.105.096l.052.35h.018c.244-.35.672-.524 1.267-.524.567 0 .978.157 1.223.472.244.314.375.803.375 1.485v.454q0 1.009-.367 1.52-.364.508-1.24.507m-.07-3.948c-.769 0-1.144.367-1.144 1.1v1.232c0 .376.096.656.305.848.201.192.489.28.856.28.385 0 .673-.105.848-.324q.236-.288.236-1.258v-.332c0-.611-.096-1.03-.271-1.249-.175-.192-.446-.297-.83-.297m3.267-1.948v4.674q0 .458.079.55c.044.07.149.096.315.096h.235c.07 0 .105.035.105.096v.297c0 .07-.035.105-.087.105h-.332c-.315 0-.542-.061-.673-.2-.14-.14-.209-.412-.209-.805v-4.813c0-.061.034-.096.104-.096h.359c.069 0 .104.035.104.096"/></svg>