<svg xmlns="http://www.w3.org/2000/svg" fill="none" viewBox="0 0 468 60"><g fill="#fff"><path d="M320.526 31.199c.343-.333.833-.51 1.459-.51h.088c.608 0 1.038.177 1.303.51.235.313.352.842.352 1.606v.734c0 .412-.039.754-.098 1.009-.068.255-.186.47-.352.636-.333.324-.784.48-1.371.48h-.108q-.558 0-.91-.206v1.509c0 .146-.03.244-.079.284-.058.039-.166.058-.333.058h-.744c-.166 0-.274-.02-.333-.068-.059-.04-.078-.137-.078-.274V31.09c0-.117.019-.196.078-.245.049-.039.137-.068.265-.068h.411c.117 0 .205.02.254.04.04.028.079.087.108.166l.069.215zm.363 1.39v1.254c0 .225.039.382.137.47.088.088.235.127.44.127h.088c.226 0 .382-.059.48-.196q.118-.175.118-.852v-.42c0-.47-.039-.764-.118-.872-.098-.118-.254-.176-.489-.176h-.069c-.215 0-.362.049-.46.147-.088.088-.127.264-.127.519m4.916-1.282h.03c.215-.353.578-.529 1.097-.529h.391c.098 0 .176.02.216.059.039.039.068.107.068.215v.715c0 .108-.019.176-.059.215q-.058.06-.205.06h-.294c-.362 0-.607.068-.744.205-.118.117-.167.343-.167.675v2.37c0 .098-.029.176-.078.215-.049.05-.137.069-.255.069h-.9c-.128 0-.216-.02-.265-.069-.049-.039-.068-.117-.068-.215v-4.24c0-.098.019-.166.068-.206s.137-.068.265-.068h.47a.5.5 0 0 1 .235.049q.073.06.117.176zm3.763 1.488v.764c0 .382.059.627.176.744.088.098.225.137.411.137h.04c.176 0 .313-.039.411-.137.117-.117.176-.362.176-.744v-.764c0-.372-.059-.627-.176-.744a.6.6 0 0 0-.411-.137h-.04c-.186 0-.323.049-.411.137-.117.117-.176.372-.176.744m2.791.059v.636c0 .49-.049.862-.147 1.136q-.147.409-.47.656-.483.382-1.508.382h-.118c-.685 0-1.194-.127-1.508-.382a1.4 1.4 0 0 1-.47-.656c-.098-.274-.147-.646-.147-1.136v-.626c0-.48.049-.852.147-1.126.098-.275.255-.49.47-.666.314-.255.823-.382 1.508-.382h.118q1.026 0 1.508.382c.215.176.372.391.47.656.098.274.147.646.147 1.126m3.345-1.841h.842c.137 0 .235.02.284.059s.088.117.108.235c0 .039.176.91.519 2.604h.029c.176-1.028.333-1.978.46-2.859.01-.108.039-.176.079-.215q.058-.06.205-.059h.999c.108 0 .176.03.215.069.03.048.04.127.02.225-.157.764-.353 1.606-.568 2.526s-.372 1.498-.47 1.743c-.039.098-.088.166-.137.196a.46.46 0 0 1-.225.039h-1.077c-.206 0-.333-.069-.373-.225-.186-.666-.342-1.508-.479-2.526h-.04a27 27 0 0 1-.489 2.526c-.039.157-.157.225-.353.225h-1.057c-.196 0-.323-.069-.372-.215-.098-.265-.265-.872-.5-1.812a45 45 0 0 1-.548-2.477q-.042-.164.02-.226c.039-.039.117-.068.235-.068h.959c.098 0 .176.02.225.059a.44.44 0 0 1 .089.215c.137.91.293 1.86.479 2.86h.04c.235-1.215.401-2.086.479-2.605.02-.128.049-.206.098-.245.049-.03.147-.049.304-.049m5.926.049v4.23c0 .098-.029.176-.078.215-.049.05-.137.069-.255.069h-.901c-.127 0-.215-.02-.264-.069-.049-.039-.069-.117-.069-.215v-4.23c0-.098.02-.167.069-.216.049-.039.137-.068.264-.068h.901c.118 0 .206.03.255.069a.29.29 0 0 1 .078.215m-.724-.656h-.118c-.529 0-.793-.264-.793-.813v-.049c0-.538.264-.813.793-.813h.118c.528 0 .793.275.793.813v.05c0 .547-.265.812-.793.812m3.335 1.616h-1.557c-.098 0-.166-.01-.206-.05-.039-.039-.049-.117-.049-.234v-.676c0-.118.01-.186.049-.225q.06-.06.206-.059h3.31c.098 0 .166.02.215.059.039.039.069.117.069.225v.186c0 .255-.079.49-.216.695l-1.684 2.39h1.674c.098 0 .157.019.196.058s.059.108.059.225v.676q0 .177-.059.235c-.039.04-.098.049-.196.049h-3.368c-.206 0-.304-.088-.304-.284v-.225c0-.255.069-.48.216-.695zm2.55 5.297h-.568c-.098 0-.176-.02-.216-.069-.039-.039-.058-.127-.058-.244v-.686c0-.098.019-.176.058-.215s.118-.069.216-.069h.245c.176 0 .313-.039.401-.137.078-.078.118-.284.118-.607v-4.23c0-.098.019-.167.068-.216.049-.039.137-.068.265-.068h.9c.118 0 .206.03.255.069a.29.29 0 0 1 .078.215V35.4c0 .705-.127 1.194-.382 1.478q-.396.441-1.38.441m1.038-6.913h-.118c-.529 0-.793-.264-.793-.813v-.049c0-.538.264-.813.793-.813h.118c.529 0 .793.275.793.813v.05c0 .547-.264.812-.793.812m3.325.656v4.23c0 .098-.029.176-.078.215-.049.05-.137.069-.255.069h-.9c-.128 0-.216-.02-.265-.069-.049-.039-.068-.117-.068-.215v-4.23c0-.098.019-.167.068-.216.049-.039.137-.068.265-.068h.9c.118 0 .206.03.255.069a.29.29 0 0 1 .078.215m-.724-.656h-.118c-.529 0-.793-.264-.793-.813v-.049c0-.538.264-.813.793-.813h.118c.529 0 .793.275.793.813v.05c0 .547-.264.812-.793.812"/><path d="M299.15 28.035v1.604c0 1.733-.369 3.06-1.088 3.963-.737.922-1.954 1.364-3.649 1.364s-2.913-.443-3.65-1.364c-.737-.903-1.087-2.23-1.087-3.963v-1.604c0-1.732.35-3.04 1.087-3.962.737-.904 1.954-1.364 3.65-1.364s2.912.46 3.649 1.364c.719.921 1.088 2.23 1.088 3.962m-3.152 1.29v-.976c0-1.198-.111-2.028-.295-2.47s-.608-.682-1.253-.682h-.074c-.664.018-1.088.24-1.272.682s-.276 1.272-.276 2.47v.977c0 1.216.092 2.027.276 2.47.184.442.608.682 1.272.682h.074c.645 0 1.069-.222 1.253-.664s.295-1.272.295-2.488m10.637-3.317v.184c0 1.217-.314 2.083-.904 2.636-.553.442-1.271.664-2.119.664-.959 0-1.678-.24-2.175-.72-.553-.515-.83-1.326-.83-2.395v-.553c0-1.07.277-1.862.83-2.397.497-.479 1.216-.718 2.175-.718.848 0 1.566.22 2.119.663.59.553.904 1.438.904 2.636m-3.134 8.294 6.802-11.206a.84.84 0 0 1 .313-.314c.11-.037.276-.073.516-.073h1.346c.571 0 .737.22.479.663l-6.802 11.207c-.11.166-.202.276-.313.313-.111.055-.295.074-.516.074h-1.346c-.589 0-.737-.221-.479-.664m-.405-8.7v.996c0 .387.036.645.129.774.073.129.202.184.368.184h.037a.43.43 0 0 0 .369-.184c.074-.13.129-.387.129-.774v-.996c0-.368-.055-.626-.129-.755a.45.45 0 0 0-.369-.203h-.037a.4.4 0 0 0-.368.203c-.093.129-.129.387-.129.755m12.939 5.88v.184c0 1.217-.313 2.083-.903 2.636-.553.443-1.272.664-2.12.664-.958 0-1.677-.24-2.175-.719-.553-.516-.829-1.309-.829-2.396v-.553c0-1.07.276-1.88.829-2.396.498-.48 1.217-.72 2.175-.72.848 0 1.567.222 2.12.665.59.552.903 1.437.903 2.635m-3.539-.405v.995c0 .387.037.645.129.774.074.13.203.185.369.185h.036a.43.43 0 0 0 .369-.185c.074-.129.129-.387.129-.774v-.995c0-.369-.055-.627-.129-.756a.45.45 0 0 0-.369-.203h-.036a.4.4 0 0 0-.369.203c-.092.129-.129.387-.129.756"/><path d="M24.204 15.512h-.075a85 85 0 0 1-.956 4.098q-.111.41-.708.41h-1.118c-.223 0-.385-.025-.484-.087-.1-.05-.162-.149-.199-.298a85 85 0 0 1-1.552-7.328c-.025-.112 0-.199.05-.248q.074-.075.335-.075h1.23c.148 0 .273.025.347.062.075.05.112.137.137.261.422 2.844.708 4.67.832 5.477h.05c.099-.471.26-1.291.509-2.484.248-1.18.422-2.012.534-2.508.037-.212.211-.323.521-.323h1.019c.298 0 .472.111.522.323.099.496.273 1.329.521 2.508.249 1.193.422 2.012.522 2.484h.05c.062-.422.186-1.23.372-2.446.174-1.205.335-2.211.46-3.03.012-.125.062-.212.136-.262a.8.8 0 0 1 .348-.062h1.23c.161 0 .273.025.323.075s.074.136.062.248c-.51 2.807-1.031 5.241-1.553 7.328-.05.149-.112.248-.211.298-.1.062-.248.087-.472.087h-1.118q-.595 0-.708-.41a63 63 0 0 1-.956-4.098m8.416 3.018h.137c.422 0 .869-.05 1.316-.162.124-.025.199-.037.236-.037.124 0 .199.074.224.211l.099.621c.025.174.05.286.05.335 0 .15-.112.261-.323.336a5.7 5.7 0 0 1-1.876.298h-.236q-1.527 0-2.16-.634a1.8 1.8 0 0 1-.497-.844c-.087-.323-.125-.758-.125-1.292v-.695c0-1.08.249-1.839.745-2.286.423-.372 1.069-.559 1.95-.559h.174c.87 0 1.503.212 1.876.621.397.448.596 1.18.596 2.224v.645c0 .236-.124.348-.36.348h-2.981v.1c0 .298.074.496.248.608.162.112.46.162.907.162m-1.155-2.161h1.366c.1 0 .15-.05.15-.162v-.199c0-.248-.05-.434-.125-.571-.1-.149-.298-.223-.571-.223h-.112c-.249 0-.422.062-.522.173q-.186.225-.186.671zm6.421-.857h-1.974c-.125 0-.212-.013-.261-.062-.05-.05-.062-.15-.062-.299v-.857c0-.149.012-.236.062-.285q.075-.075.26-.075h4.198c.125 0 .212.025.274.075.05.05.087.149.087.285v.236c0 .323-.1.621-.273.882l-2.137 3.03h2.124c.124 0 .199.026.248.075.05.05.075.137.075.286v.857q0 .223-.075.298c-.05.05-.124.062-.248.062h-4.272c-.261 0-.385-.112-.385-.36v-.286c0-.323.087-.608.273-.882zm-.956-3.217 1.95-1.665a.35.35 0 0 1 .236-.111c.087 0 .174.062.248.161l.597.77c.05.075.074.137.074.211 0 .1-.074.2-.199.298l-1.962 1.342a.46.46 0 0 1-.248.087c-.1 0-.2-.05-.298-.174l-.373-.435c-.1-.112-.137-.211-.137-.286s.038-.149.112-.198m10.286 1.937h1.068c.174 0 .299.025.36.075.063.05.112.149.137.298 0 .05.224 1.155.659 3.304h.037c.223-1.304.422-2.51.584-3.627.012-.137.05-.224.099-.273q.075-.075.26-.075h1.267c.137 0 .224.038.274.087.037.062.05.162.025.286-.2.969-.447 2.037-.72 3.204-.274 1.168-.473 1.9-.597 2.21-.05.125-.112.212-.174.25-.062.037-.161.049-.285.049h-1.367c-.26 0-.422-.087-.472-.286-.236-.844-.434-1.912-.608-3.204h-.05a34 34 0 0 1-.62 3.204c-.05.2-.2.286-.448.286h-1.341c-.249 0-.41-.087-.472-.273-.124-.336-.336-1.106-.634-2.298a58 58 0 0 1-.695-3.142c-.038-.137-.025-.236.025-.286s.149-.087.298-.087h1.217c.124 0 .223.025.285.075.05.05.087.149.112.273.174 1.155.373 2.36.609 3.627h.05c.298-1.54.509-2.646.608-3.304.025-.162.062-.26.124-.31.062-.038.187-.063.385-.063m11.787 5.279h-.025c-.273.422-.82.62-1.627.62h-.186c-.633 0-1.13-.16-1.478-.484-.36-.322-.534-.807-.534-1.428v-.137c0-.67.186-1.155.571-1.428s1.006-.41 1.876-.41h.087c.323 0 .62.025.869.05v-.26c0-.262-.075-.448-.211-.547-.15-.087-.398-.137-.745-.137-.423 0-.895.075-1.441.211-.15.037-.26.037-.31 0-.063-.037-.1-.111-.112-.236l-.1-.658c-.025-.112-.025-.199-.025-.248 0-.15.1-.261.298-.323a8 8 0 0 1 2.124-.274c.957 0 1.64.212 2.037.609.31.323.472.845.472 1.553v3.688c0 .125-.037.224-.1.273-.061.05-.173.075-.322.075h-.584c-.149 0-.248-.012-.31-.05-.062-.037-.112-.111-.15-.236zm-.447-1.59v-.348a3.6 3.6 0 0 0-.596-.037h-.137q-.447 0-.633.112c-.124.074-.174.223-.174.447v.05c0 .223.05.372.174.447.111.087.285.124.521.124h.087c.249 0 .435-.062.584-.186.112-.1.174-.31.174-.609m4.692-3.453c.435-.422 1.056-.646 1.851-.646h.112c.77 0 1.316.224 1.652.646.298.398.447 1.068.447 2.037v.932c0 .521-.05.956-.124 1.279a1.8 1.8 0 0 1-.448.807c-.422.41-.993.609-1.738.609h-.137q-.708 0-1.155-.261v1.913c0 .186-.037.31-.1.36-.074.05-.21.074-.422.074h-.944c-.21 0-.347-.024-.422-.087-.074-.05-.1-.174-.1-.347v-7.452c0-.15.026-.249.1-.31.062-.05.174-.088.335-.088h.522c.15 0 .26.025.323.05.05.037.1.112.137.211l.087.273zm.46 1.764v1.59c0 .285.05.484.174.596.112.112.298.161.559.161h.111c.286 0 .485-.074.61-.248q.148-.225.148-1.08v-.535c0-.596-.05-.969-.149-1.105-.124-.15-.323-.224-.62-.224h-.088c-.273 0-.46.063-.584.187-.111.111-.161.335-.161.658m6.895 2.173H71c.124 0 .224.038.273.087.05.063.087.174.087.336v.77c0 .174-.037.285-.087.335-.05.062-.149.087-.273.087h-.944c-.62 0-1.055-.112-1.304-.36-.248-.236-.373-.658-.373-1.255v-6.433c0-.124.025-.211.087-.273.063-.05.174-.087.336-.087h1.142c.15 0 .261.037.323.087.062.062.1.149.1.273v6.197c0 .1.012.162.05.187.024.037.086.05.186.05m3.585-4.11v5.365c0 .124-.037.223-.1.273-.062.062-.173.087-.322.087h-1.143c-.162 0-.273-.025-.335-.087-.062-.05-.087-.149-.087-.273v-5.366c0-.124.025-.21.087-.273.062-.05.174-.087.335-.087h1.143c.149 0 .26.038.322.087.063.062.1.15.1.273m-.92-.833h-.148c-.67 0-1.006-.335-1.006-1.03v-.063c0-.683.335-1.03 1.006-1.03h.149c.67 0 1.006.347 1.006 1.03v.062c0 .696-.336 1.031-1.006 1.031m4.194 4.148v2.05c0 .124-.037.223-.1.273-.061.062-.173.087-.322.087h-1.143c-.161 0-.273-.025-.335-.087-.062-.05-.087-.149-.087-.273v-7.688c0-.124.025-.211.087-.273.062-.05.174-.087.335-.087h1.143c.149 0 .26.037.323.087.062.062.1.149.1.273v4.049h.086l1.18-1.801a.57.57 0 0 1 .522-.286h1.44c.137 0 .211.05.211.15 0 .049-.037.136-.099.235l-1.428 2.137c-.112.173-.162.298-.162.372 0 .087.05.211.162.373l1.527 2.41c.05.098.075.16.075.21 0 .137-.087.199-.26.199h-1.38c-.173 0-.31-.012-.385-.062q-.11-.056-.223-.26l-1.18-2.088zm7.74 1.9h-.025c-.274.423-.82.622-1.627.622h-.187c-.633 0-1.13-.162-1.478-.485-.36-.322-.534-.807-.534-1.428v-.137c0-.67.187-1.155.572-1.428s1.006-.41 1.875-.41h.087c.323 0 .621.025.87.05v-.26c0-.262-.075-.448-.212-.547-.149-.087-.397-.137-.745-.137-.422 0-.894.075-1.44.211-.15.037-.261.037-.311 0-.062-.037-.1-.111-.112-.236l-.1-.658c-.024-.112-.024-.199-.024-.248 0-.15.1-.261.298-.323a8 8 0 0 1 2.124-.274c.956 0 1.64.212 2.037.609.31.323.472.845.472 1.553v3.688c0 .125-.038.224-.1.273s-.174.075-.323.075h-.583c-.15 0-.249-.012-.31-.05-.063-.037-.113-.111-.15-.236zm-.448-1.589v-.348a3.6 3.6 0 0 0-.596-.037h-.136q-.448 0-.634.112c-.124.074-.174.223-.174.447v.05c0 .223.05.372.174.447.112.087.286.124.522.124h.087c.248 0 .434-.062.584-.186.111-.1.173-.31.173-.609m6.022.609h.1c.334 0 .695-.05 1.08-.162.124-.025.198-.037.236-.037.124 0 .198.074.223.211l.112.633c.025.174.05.286.05.336 0 .149-.112.26-.323.335-.547.199-1.143.286-1.789.286h-.149c-.894 0-1.552-.199-1.962-.621q-.633-.633-.634-2.124v-.72c0-.584.05-1.044.15-1.367q.148-.484.484-.82c.435-.434 1.118-.658 2.05-.658h.123c.746 0 1.391.137 1.913.41.15.087.236.187.236.31 0 .075-.037.2-.1.373l-.235.597q-.094.223-.261.223a.5.5 0 0 1-.224-.062c-.397-.161-.77-.248-1.105-.248h-.05c-.323 0-.559.087-.708.236-.186.186-.273.57-.273 1.142v.422c0 .51.075.857.249 1.044.16.174.434.26.807.26m2.56 3.7h-.72c-.125 0-.224-.024-.274-.086-.05-.05-.075-.162-.075-.31v-.87c0-.124.025-.224.075-.273s.149-.087.273-.087h.31c.224 0 .398-.05.51-.174.1-.1.149-.36.149-.77v-5.366c0-.124.025-.21.087-.273.062-.05.174-.087.335-.087h1.143c.149 0 .26.038.323.087.062.062.1.15.1.273v5.503c0 .894-.162 1.515-.485 1.875q-.504.558-1.752.559m1.316-8.768h-.149c-.67 0-1.006-.335-1.006-1.03v-.063c0-.683.335-1.03 1.006-1.03h.15c.67 0 1.005.347 1.005 1.03v.062c0 .696-.335 1.031-1.006 1.031m4.218.832v5.366c0 .124-.037.223-.1.273-.061.062-.173.087-.322.087h-1.143c-.161 0-.273-.025-.335-.087-.062-.05-.087-.149-.087-.273v-5.366c0-.124.025-.21.087-.273.062-.05.174-.087.335-.087h1.143c.149 0 .26.038.323.087.062.062.1.15.1.273m-.919-.832h-.149c-.67 0-1.006-.335-1.006-1.03v-.063c0-.683.335-1.03 1.006-1.03h.15c.67 0 1.005.347 1.005 1.03v.062c0 .696-.335 1.031-1.006 1.031m-76.33 16.77v1.59c0 .285.05.484.174.596.099.112.285.161.558.161h.112c.286 0 .485-.074.609-.248q.15-.225.149-1.08v-.535c0-.62-.062-1.006-.162-1.13-.111-.124-.323-.199-.62-.199h-.05c-.286 0-.485.063-.609.187-.112.111-.161.335-.161.658m0-2.074h.024q.54-.336 1.416-.336h.112c.745 0 1.292.224 1.627.671.273.385.422 1.068.422 2.05v.894c0 .993-.21 1.689-.633 2.074-.447.422-1.155.62-2.124.62h-.248c-1.019 0-1.714-.198-2.087-.608-.335-.36-.497-.944-.497-1.763v-5.788c0-.124.025-.211.087-.273.05-.05.162-.087.323-.087h1.155c.15 0 .261.037.323.087.062.062.1.149.1.273zm7.627 4.372h.137c.422 0 .87-.05 1.316-.162.125-.025.199-.037.236-.037.124 0 .199.074.224.211l.1.621c.024.174.049.286.049.335 0 .15-.112.261-.323.336a5.7 5.7 0 0 1-1.875.298h-.236q-1.529 0-2.161-.634a1.8 1.8 0 0 1-.497-.844c-.087-.323-.125-.758-.125-1.292v-.695c0-1.08.249-1.839.746-2.286.422-.372 1.068-.559 1.95-.559h.173c.87 0 1.503.212 1.876.621.397.448.596 1.18.596 2.224v.645c0 .236-.124.348-.36.348h-2.98v.1c0 .298.074.496.247.608.162.112.46.162.907.162m-1.155-2.161h1.366c.1 0 .15-.05.15-.162v-.199c0-.248-.05-.434-.125-.571-.1-.149-.298-.224-.571-.224H28.8c-.248 0-.422.063-.522.174q-.186.224-.186.671zm6.421-.857H32.54c-.124 0-.211-.013-.261-.062-.05-.05-.062-.15-.062-.299v-.857c0-.149.012-.236.062-.285q.075-.075.26-.075h4.199c.124 0 .21.025.273.075.05.05.087.149.087.285v.236c0 .323-.1.621-.273.882l-2.137 3.03h2.124c.124 0 .199.026.249.075.05.05.074.137.074.286v.857q0 .223-.074.298c-.05.05-.125.062-.249.062H32.54c-.261 0-.385-.112-.385-.36v-.286c0-.323.087-.608.273-.882zm8.175 0h-1.974c-.125 0-.212-.013-.261-.062-.05-.05-.062-.15-.062-.299v-.857c0-.149.012-.236.062-.285q.075-.075.26-.075h4.199c.124 0 .21.025.273.075.05.05.087.149.087.285v.236c0 .323-.1.621-.274.882l-2.136 3.03h2.124c.124 0 .199.026.248.075.05.05.075.137.075.286v.857q0 .223-.075.298c-.05.05-.124.062-.248.062h-4.272c-.261 0-.385-.112-.385-.36v-.286c0-.323.087-.608.273-.882zm7.048 3.999h-.025c-.274.422-.82.62-1.627.62h-.187c-.633 0-1.13-.16-1.478-.484-.36-.322-.534-.807-.534-1.428v-.136c0-.671.187-1.156.572-1.429s1.006-.41 1.875-.41h.087c.323 0 .621.025.87.05v-.26c0-.262-.075-.448-.212-.547-.149-.087-.397-.137-.745-.137-.422 0-.894.075-1.44.211-.15.038-.261.038-.311 0-.062-.037-.1-.111-.112-.236l-.1-.658c-.024-.112-.024-.199-.024-.248 0-.15.1-.261.298-.323a8 8 0 0 1 2.124-.274c.956 0 1.64.212 2.037.609.31.323.472.845.472 1.552v3.69c0 .123-.038.223-.1.273s-.174.074-.323.074h-.583c-.15 0-.249-.012-.31-.05-.063-.037-.113-.111-.15-.236zm-.448-1.59v-.348a3.6 3.6 0 0 0-.596-.037h-.136q-.447 0-.634.112c-.124.074-.174.223-.174.447v.05c0 .223.05.372.174.447.112.087.286.124.522.124h.087c.248 0 .435-.062.584-.186.111-.1.173-.31.173-.609m5.152-.31v2.049c0 .124-.037.223-.099.273-.062.062-.174.087-.323.087h-1.142c-.162 0-.274-.025-.336-.087-.062-.05-.087-.149-.087-.273v-7.688c0-.124.025-.211.087-.273.062-.05.174-.087.336-.087h1.142c.15 0 .261.037.323.087.062.062.1.149.1.273v4.049h.086l1.18-1.801a.57.57 0 0 1 .522-.286h1.44c.137 0 .212.05.212.15a.56.56 0 0 1-.1.235l-1.428 2.137c-.112.173-.161.298-.161.372 0 .087.05.211.161.373l1.528 2.41c.05.099.074.16.074.21 0 .137-.087.199-.26.199h-1.38c-.173 0-.31-.012-.384-.062q-.113-.056-.224-.26l-1.18-2.088zm6.734.794h.397c.124 0 .224.038.273.087.05.063.087.174.087.336v.77c0 .174-.037.285-.087.335-.05.062-.148.087-.273.087h-.944c-.62 0-1.055-.112-1.304-.36-.248-.236-.372-.658-.372-1.255v-1.34l-.41.26c-.162.1-.273.149-.323.149-.1 0-.137-.075-.137-.224v-1.155c0-.124.013-.21.062-.273.038-.05.112-.124.236-.211l.572-.36v-3.28c0-.123.025-.21.087-.272.062-.05.173-.087.335-.087h1.143c.149 0 .26.037.322.087.063.062.1.149.1.273v2.012l.559-.36c.149-.1.26-.15.323-.15.087 0 .136.075.136.224v1.155a.5.5 0 0 1-.062.273c-.05.063-.124.137-.236.212l-.72.46v2.371c0 .1.012.162.05.187.024.037.087.05.186.05m5.166 1.106h-.025c-.273.422-.82.62-1.627.62h-.186c-.633 0-1.13-.16-1.478-.484-.36-.322-.534-.807-.534-1.428v-.136c0-.671.186-1.156.571-1.429s1.006-.41 1.876-.41h.087c.322 0 .62.025.869.05v-.26c0-.262-.075-.448-.211-.547-.15-.087-.398-.137-.745-.137-.423 0-.895.075-1.441.211-.15.038-.26.038-.31 0-.063-.037-.1-.111-.112-.236l-.1-.658c-.025-.112-.025-.199-.025-.248 0-.15.1-.261.298-.323a8 8 0 0 1 2.124-.274c.957 0 1.64.212 2.037.609.31.323.472.845.472 1.552v3.69c0 .123-.037.223-.1.273-.061.05-.173.074-.322.074h-.584c-.149 0-.248-.012-.31-.05-.062-.037-.112-.111-.15-.236zm-.447-1.59v-.348a3.6 3.6 0 0 0-.596-.037h-.137q-.448 0-.633.112c-.125.074-.174.223-.174.447v.05c0 .223.05.372.174.447.111.087.285.124.521.124h.087c.249 0 .435-.062.584-.186.112-.1.174-.31.174-.609m6.568-.1v-1.577c0-.31-.05-.534-.15-.658-.111-.124-.31-.199-.583-.199h-.124c-.273 0-.46.075-.572.212-.124.136-.173.521-.173 1.167v.547c0 .596.062.968.186 1.092.1.125.286.174.571.174h.137c.236 0 .41-.05.534-.161.112-.112.174-.31.174-.596m-.025-3.775h.025v-2.074c0-.124.025-.211.087-.273.062-.05.174-.087.335-.087h1.155c.15 0 .261.037.323.087.05.062.087.149.087.273v5.651c0 .87-.162 1.466-.484 1.813a1.93 1.93 0 0 1-.857.534c-.348.112-.808.162-1.391.162h-.212c-.919 0-1.577-.186-2-.56-.434-.372-.645-1.067-.645-2.098v-.994c0-.993.199-1.689.621-2.086.397-.373.944-.572 1.652-.572h.149q.708 0 1.155.224m6.785 5.465h-.025c-.273.422-.82.62-1.627.62h-.186c-.634 0-1.13-.16-1.478-.484-.36-.322-.534-.807-.534-1.428v-.136c0-.671.186-1.156.571-1.429s1.006-.41 1.876-.41h.086c.323 0 .621.025.87.05v-.26c0-.262-.075-.448-.211-.547-.15-.087-.398-.137-.745-.137-.423 0-.895.075-1.441.211-.15.038-.261.038-.31 0-.063-.037-.1-.111-.112-.236l-.1-.658c-.025-.112-.025-.199-.025-.248 0-.15.1-.261.298-.323a8 8 0 0 1 2.124-.274c.957 0 1.64.212 2.037.609.31.323.472.845.472 1.552v3.69c0 .123-.037.223-.1.273-.061.05-.173.074-.322.074h-.584c-.149 0-.248-.012-.31-.05-.063-.037-.112-.111-.15-.236zm-.447-1.59v-.348a3.6 3.6 0 0 0-.596-.037h-.137q-.448 0-.633.112c-.125.074-.174.223-.174.447v.05c0 .223.05.372.174.447.111.087.285.124.521.124h.087c.249 0 .435-.062.584-.186.112-.1.174-.31.174-.609m6.444-4.099h.099c.72 0 1.254.174 1.577.51.298.323.46.87.46 1.64v3.688c0 .124-.038.223-.1.273-.062.062-.173.087-.322.087H85.79c-.162 0-.273-.025-.336-.087-.062-.05-.086-.149-.086-.273v-3.515c0-.273-.05-.472-.137-.571-.1-.1-.286-.162-.547-.162h-.074c-.273 0-.447.062-.547.162-.099.099-.136.298-.136.571v3.515c0 .124-.037.223-.1.273-.062.062-.173.087-.323.087h-1.142c-.162 0-.273-.025-.335-.087-.062-.05-.087-.149-.087-.273v-5.378c0-.124.025-.211.087-.26s.173-.088.335-.088h.584c.149 0 .248.025.31.062q.093.056.15.224l.074.236h.037c.397-.422.956-.634 1.702-.634m5.33.472v5.366c0 .124-.037.223-.099.273-.062.062-.174.087-.323.087h-1.142c-.162 0-.273-.025-.335-.087-.063-.05-.087-.149-.087-.273v-5.366c0-.124.024-.21.087-.273.062-.05.173-.087.335-.087h1.142c.15 0 .261.037.323.087.063.062.1.15.1.273m-.918-.832h-.15c-.67 0-1.005-.335-1.005-1.03v-.063c0-.683.335-1.03 1.006-1.03h.149c.67 0 1.006.347 1.006 1.03v.062c0 .696-.336 1.031-1.006 1.031m5.795 6.049h-.025c-.273.422-.82.62-1.627.62h-.186c-.633 0-1.13-.16-1.478-.484-.36-.322-.534-.807-.534-1.428v-.136c0-.671.186-1.156.571-1.429s1.006-.41 1.876-.41h.087c.323 0 .62.025.87.05v-.26c0-.262-.076-.448-.212-.547-.15-.087-.397-.137-.745-.137-.423 0-.894.075-1.441.211-.149.038-.26.038-.31 0-.063-.037-.1-.111-.112-.236l-.1-.658c-.025-.112-.025-.199-.025-.248 0-.15.1-.261.299-.323a8 8 0 0 1 2.123-.274c.957 0 1.64.212 2.037.609.31.323.472.845.472 1.552v3.69c0 .123-.037.223-.1.273-.061.05-.173.074-.322.074h-.584c-.149 0-.248-.012-.31-.05-.062-.037-.112-.111-.15-.236zm-.447-1.59v-.348a3.6 3.6 0 0 0-.596-.037h-.137q-.447 0-.633.112c-.124.074-.174.223-.174.447v.05c0 .223.05.372.174.447.112.087.285.124.522.124h.086c.249 0 .435-.062.584-.186.112-.1.174-.31.174-.609m7.845-.31v2.049c0 .124-.038.223-.1.273-.062.062-.174.087-.323.087h-1.142c-.162 0-.274-.025-.336-.087-.062-.05-.087-.149-.087-.273v-7.688c0-.124.025-.211.087-.273.062-.05.174-.087.336-.087h1.142c.149 0 .261.037.323.087.062.062.1.149.1.273v4.049h.087l1.179-1.801a.57.57 0 0 1 .522-.286h1.441c.136 0 .211.05.211.15 0 .049-.037.136-.099.235l-1.429 2.137c-.111.173-.161.298-.161.372 0 .087.05.211.161.373l1.528 2.41c.05.099.075.16.075.21 0 .137-.087.199-.261.199h-1.379c-.174 0-.31-.012-.385-.062q-.111-.056-.224-.26l-1.179-2.088zm5.854-1.118v.969c0 .484.074.794.223.943.112.125.286.174.522.174h.049c.224 0 .398-.05.522-.174.149-.149.224-.46.224-.944v-.968c0-.472-.075-.795-.224-.944-.124-.112-.298-.174-.522-.174h-.049c-.236 0-.41.062-.522.174-.149.149-.223.472-.223.944m3.539.074v.808c0 .62-.062 1.093-.186 1.44a1.78 1.78 0 0 1-.596.832c-.41.323-1.043.485-1.913.485h-.149c-.869 0-1.515-.162-1.913-.485a1.78 1.78 0 0 1-.596-.832c-.124-.347-.186-.82-.186-1.44v-.795c0-.609.062-1.08.186-1.429.124-.347.323-.62.596-.844.398-.323 1.044-.485 1.913-.485h.149c.87 0 1.503.162 1.913.485.273.223.472.497.596.832.124.348.186.82.186 1.428m4.343-2.745h.099c.72 0 1.254.174 1.577.51.298.323.46.87.46 1.64v3.688c0 .124-.037.223-.1.273-.062.062-.173.087-.322.087h-1.143c-.162 0-.273-.025-.335-.087-.063-.05-.087-.149-.087-.273v-3.515c0-.273-.05-.472-.137-.571-.099-.1-.286-.162-.546-.162h-.075c-.273 0-.447.062-.546.162-.1.099-.137.298-.137.571v3.515c0 .124-.037.223-.099.273-.063.062-.174.087-.323.087h-1.143c-.161 0-.273-.025-.335-.087-.062-.05-.087-.149-.087-.273v-5.378c0-.124.025-.211.087-.26s.174-.088.335-.088h.584c.149 0 .248.025.31.062q.093.056.149.224l.075.236h.037c.397-.422.956-.634 1.702-.634m7.206 5.03v.709c0 .186-.037.31-.087.372s-.161.087-.31.087h-.994c-.894 0-1.49-.149-1.763-.46-.249-.26-.361-.757-.361-1.502v-2.571h-.67c-.124 0-.199-.013-.249-.062-.049-.05-.062-.125-.062-.249v-.633c0-.15.013-.249.062-.298.038-.05.125-.087.261-.125l.658-.16v-1.218c0-.124.025-.211.087-.273.062-.05.174-.087.336-.087h1.142c.149 0 .261.037.323.087.062.062.1.149.1.273v1.192h1.03c.125 0 .199.025.249.075s.074.136.074.285v.832q0 .224-.074.299c-.05.05-.124.062-.249.062h-1.03v2.347c0 .224.024.36.099.435.075.087.236.124.484.124h.547c.149 0 .261.037.31.1.05.061.087.186.087.36m4.53.659h-.025c-.274.422-.82.62-1.627.62h-.187c-.633 0-1.13-.16-1.478-.484-.36-.322-.534-.807-.534-1.428v-.136c0-.671.187-1.156.572-1.429s1.006-.41 1.875-.41h.087c.323 0 .621.025.869.05v-.26c0-.262-.074-.448-.211-.547-.149-.087-.397-.137-.745-.137-.422 0-.894.075-1.441.211-.149.038-.26.038-.31 0-.062-.037-.1-.111-.112-.236l-.099-.658c-.025-.112-.025-.199-.025-.248 0-.15.099-.261.298-.323a8 8 0 0 1 2.124-.274c.956 0 1.639.212 2.037.609.31.323.472.845.472 1.552v3.69c0 .123-.038.223-.1.273s-.174.074-.323.074h-.583c-.149 0-.249-.012-.311-.05-.062-.037-.112-.111-.149-.236zm-.448-1.59v-.348a3.6 3.6 0 0 0-.596-.037h-.136q-.448 0-.634.112c-.124.074-.174.223-.174.447v.05c0 .223.05.372.174.447.112.087.286.124.522.124h.087c.248 0 .434-.062.584-.186.111-.1.173-.31.173-.609"/></g></svg>