<svg xmlns="http://www.w3.org/2000/svg" fill="none" viewBox="0 0 468 60"><path fill="#fff" d="M334.595 35.303v-4.895q0-.145.145-.17a6.4 6.4 0 0 1 1.104-.088c1.242 0 1.863.484 1.863 1.435v.17c0 .355-.088.645-.258.879a1.28 1.28 0 0 1-.742.475l1.323 2.21q.07.12-.065.121h-.419a.15.15 0 0 1-.137-.073l-1.25-2.16c-.065.007-.169.007-.298.007-.339 0-.581 0-.71-.008v2.097c0 .097-.048.137-.129.137h-.29c-.097 0-.137-.04-.137-.137m.556-4.524v1.968c.274.016.54.016.798.016q.608 0 .887-.242c.186-.161.283-.436.283-.815v-.104c0-.363-.105-.621-.299-.775-.193-.145-.516-.225-.967-.225-.259 0-.452.016-.581.032-.057.008-.089.024-.105.04s-.016.057-.016.105m3.633 4.524v-4.895q0-.145.145-.17a6.4 6.4 0 0 1 1.105-.088c1.242 0 1.863.484 1.863 1.435v.17c0 .355-.089.645-.258.879a1.3 1.3 0 0 1-.742.475l1.322 2.21q.071.12-.064.121h-.42a.15.15 0 0 1-.137-.073l-1.25-2.16c-.064.007-.169.007-.298.007-.339 0-.58 0-.71-.008v2.097c0 .097-.048.137-.129.137h-.29c-.097 0-.137-.04-.137-.137m.556-4.524v1.968c.275.016.541.016.799.016q.606 0 .887-.242c.185-.161.282-.436.282-.815v-.104c0-.363-.105-.621-.298-.775-.194-.145-.516-.225-.968-.225a5 5 0 0 0-.581.032q-.082.014-.104.04c-.017.016-.017.057-.017.105m4.811 4.734c-.5 0-.944-.073-1.339-.234-.072-.025-.096-.073-.08-.137l.064-.267c.016-.08.073-.096.169-.064a2.8 2.8 0 0 0 1.17.25c.371 0 .653-.08.846-.25.194-.17.291-.411.291-.734v-.088c0-.29-.065-.5-.178-.63-.113-.129-.338-.241-.677-.322l-.54-.13c-.395-.096-.686-.241-.871-.45-.186-.202-.274-.485-.274-.855v-.121q0-.643.411-.984c.274-.226.653-.347 1.137-.347.435 0 .814.056 1.153.153.089.032.121.089.105.178l-.057.193q-.036.12-.193.073a3.5 3.5 0 0 0-.992-.145q-1.002.002-1 .887v.08q0 .41.194.589c.129.12.346.218.653.282l.508.121q.653.16.919.452.267.302.266.895v.129c0 .492-.145.863-.435 1.105-.29.25-.702.37-1.25.37m3.023-2.79v.217q0 1.329.363 1.75c.209.25.532.371.959.371.468 0 .798-.137 1.008-.42q.315-.433.315-1.7v-.219c0-.419-.025-.766-.065-1.04a1.5 1.5 0 0 0-.25-.67c-.21-.273-.54-.41-1.008-.41q-.69 0-.992.41c-.226.291-.33.864-.33 1.71m3.233-.097v.419c0 .935-.169 1.58-.492 1.951-.306.347-.774.517-1.419.517-.605 0-1.056-.154-1.363-.46-.371-.371-.548-1.04-.548-2.008v-.42c0-.935.169-1.596.508-1.975.298-.33.766-.5 1.403-.5.629 0 1.097.17 1.403.5q.508.57.508 1.976"/><path fill="#fff" d="M282.012 29.275h.148c.589 0 1.087-.11 1.511-.332v-.258c0-1.013-.111-1.695-.313-2.046-.203-.35-.572-.534-1.125-.534h-.166q-1.382 0-1.382 1.493v.166c0 .553.092.94.313 1.16.222.24.553.351 1.014.351m-3.336 6.156c-.221-.073-.313-.202-.313-.424a1.5 1.5 0 0 1 .055-.331l.295-1.18c.074-.295.295-.406.627-.313.884.276 1.658.405 2.322.405h.055c.664 0 1.125-.166 1.419-.534q.443-.526.498-1.66c-.608.259-1.272.37-1.99.37h-.203c-1.309 0-2.249-.314-2.839-.977-.59-.646-.866-1.641-.866-2.968v-.258c0-1.18.35-2.12 1.069-2.82.719-.682 1.769-1.032 3.152-1.032h.258c1.659 0 2.838.442 3.502 1.29s1.014 2.249 1.014 4.202v.443c0 1.05-.092 1.954-.277 2.728-.184.774-.424 1.4-.719 1.843-.294.46-.682.83-1.124 1.087-.442.277-.885.461-1.327.535-.442.092-.959.129-1.53.129h-.018c-1.069 0-2.102-.166-3.06-.535m11.042-2.672h.258c.553 0 .94.147 1.18.405.239.277.369.682.369 1.235v.24c0 .571-.185 1.272-.517 2.12a8 8 0 0 1-1.456 2.322c-.11.147-.239.203-.368.203a.54.54 0 0 1-.295-.093l-.922-.553c-.221-.11-.239-.294-.055-.534.166-.221.405-.571.737-1.07.221-.33.332-.57.332-.755 0-.092-.055-.166-.148-.24l-.184-.128c-.313-.222-.461-.609-.461-1.162v-.516c0-.977.498-1.474 1.53-1.474m7.558-3.484h.148c.589 0 1.087-.11 1.511-.332v-.258c0-1.013-.111-1.695-.313-2.046-.203-.35-.572-.534-1.125-.534h-.166q-1.382 0-1.382 1.493v.166c0 .553.092.94.313 1.16.222.24.553.351 1.014.351m-3.336 6.156c-.221-.073-.313-.202-.313-.424a1.5 1.5 0 0 1 .055-.331l.295-1.18c.074-.295.295-.406.627-.313.884.276 1.658.405 2.322.405h.055c.664 0 1.125-.166 1.42-.534q.441-.526.497-1.66c-.608.259-1.272.37-1.99.37h-.203c-1.309 0-2.249-.314-2.839-.977-.59-.646-.866-1.641-.866-2.968v-.258c0-1.18.35-2.12 1.069-2.82.719-.682 1.769-1.032 3.152-1.032h.258c1.659 0 2.838.442 3.502 1.29s1.014 2.249 1.014 4.202v.443c0 1.05-.092 1.954-.277 2.728-.184.774-.424 1.4-.719 1.843-.294.46-.682.83-1.124 1.087-.442.277-.885.461-1.327.535-.442.092-.959.129-1.53.129H297c-1.069 0-2.102-.166-3.06-.535m14.028-6.156h.148c.589 0 1.087-.11 1.511-.332v-.258c0-1.013-.111-1.695-.313-2.046-.203-.35-.572-.534-1.125-.534h-.166q-1.382 0-1.382 1.493v.166c0 .553.092.94.313 1.16.222.24.553.351 1.014.351m-3.336 6.156c-.221-.073-.313-.202-.313-.424a1.5 1.5 0 0 1 .055-.331l.295-1.18c.074-.295.295-.406.627-.313.884.276 1.658.405 2.322.405h.055c.664 0 1.125-.166 1.42-.534q.441-.526.497-1.66c-.608.259-1.272.37-1.99.37h-.203c-1.309 0-2.249-.314-2.839-.977-.59-.646-.866-1.641-.866-2.968v-.258c0-1.18.35-2.12 1.069-2.82.719-.682 1.769-1.032 3.152-1.032h.258c1.659 0 2.838.442 3.502 1.29s1.014 2.249 1.014 4.202v.443c0 1.05-.092 1.954-.277 2.728-.184.774-.424 1.4-.719 1.843-.294.46-.682.83-1.124 1.087-.442.277-.885.461-1.327.535-.442.092-.959.129-1.53.129h-.018c-1.069 0-2.102-.166-3.06-.535m15.816-8.423v.184c0 1.217-.313 2.083-.903 2.636-.553.442-1.272.664-2.12.664-.958 0-1.677-.24-2.175-.72-.553-.515-.829-1.326-.829-2.395v-.553c0-1.07.276-1.862.829-2.397.498-.479 1.217-.718 2.175-.718.848 0 1.567.22 2.12.663.59.553.903 1.438.903 2.636m-3.133 8.294 6.801-11.206a.85.85 0 0 1 .313-.314 1.6 1.6 0 0 1 .516-.073h1.346c.571 0 .737.22.479.663l-6.801 11.207c-.111.166-.203.276-.314.313-.11.055-.294.074-.516.074h-1.345c-.59 0-.737-.221-.479-.664m-.406-8.7v.996c0 .387.037.645.129.774.074.129.203.184.369.184h.037a.43.43 0 0 0 .368-.184c.074-.13.129-.387.129-.774v-.996c0-.368-.055-.626-.129-.755a.45.45 0 0 0-.368-.203h-.037a.4.4 0 0 0-.369.203c-.092.129-.129.387-.129.755m12.939 5.88v.184c0 1.217-.313 2.083-.903 2.636-.553.443-1.272.664-2.119.664-.959 0-1.678-.24-2.175-.719-.553-.516-.83-1.309-.83-2.396v-.553c0-1.07.277-1.88.83-2.396.497-.48 1.216-.72 2.175-.72.847 0 1.566.222 2.119.665.59.552.903 1.437.903 2.635m-3.539-.405v.995c0 .387.037.645.129.774.074.13.203.185.369.185h.037a.43.43 0 0 0 .369-.185c.073-.129.129-.387.129-.774v-.995c0-.369-.056-.627-.129-.756a.45.45 0 0 0-.369-.203h-.037a.4.4 0 0 0-.369.203c-.092.129-.129.387-.129.756"/><path fill="#fff" d="M22.316 17.802h-.149c-.87 0-1.627-.112-2.273-.348-.273-.087-.397-.248-.347-.497l.16-1.006c.026-.248.175-.335.436-.248.72.26 1.39.385 1.987.385h.062c.372 0 .646-.05.807-.162.15-.099.236-.285.236-.546v-.124c0-.249-.074-.41-.198-.51-.137-.087-.398-.173-.783-.248l-.844-.161c-.696-.125-1.193-.373-1.466-.72-.286-.349-.422-.833-.422-1.466v-.348c0-.696.186-1.217.559-1.59.447-.447 1.279-.67 2.471-.67h.087c.832 0 1.54.111 2.111.322.125.05.212.125.249.2a.7.7 0 0 1-.013.36l-.21.906c-.05.224-.212.298-.46.211a5.6 5.6 0 0 0-1.64-.26h-.05c-.41 0-.695.049-.844.136-.161.1-.236.26-.236.484v.112c0 .199.05.348.162.422.099.087.323.162.645.224l.944.186c.745.15 1.255.385 1.54.683.274.298.423.82.423 1.553v.298c0 .844-.236 1.453-.696 1.838-.46.398-1.205.584-2.248.584m7.315-2.335v-3.503c0-.124.025-.21.087-.273.063-.05.174-.087.336-.087h1.142c.15 0 .261.038.323.087.062.062.1.15.1.273v3.677q0 1.136-.56 1.64c-.397.347-1.092.52-2.11.52-1.02 0-1.727-.173-2.112-.52q-.56-.504-.559-1.64v-3.677c0-.124.025-.21.087-.273.062-.05.174-.087.335-.087h1.143c.149 0 .26.038.323.087.062.062.1.15.1.273v3.503c0 .285.037.472.136.571.1.112.273.162.546.162.261 0 .447-.05.547-.162.087-.1.136-.286.136-.571m4.69-3.329c.435-.422 1.056-.646 1.85-.646h.112c.77 0 1.317.224 1.652.646.298.398.447 1.068.447 2.037v.932c0 .521-.05.956-.124 1.279a1.8 1.8 0 0 1-.447.807c-.422.41-.994.609-1.739.609h-.137q-.707 0-1.154-.261v1.913c0 .186-.038.31-.1.36-.074.05-.211.074-.422.074h-.944c-.211 0-.348-.025-.422-.087-.075-.05-.1-.173-.1-.347v-7.452c0-.15.025-.249.1-.31.062-.05.173-.088.335-.088h.522c.149 0 .26.025.322.05.05.037.1.112.137.211l.087.273zm.46 1.764v1.59c0 .285.05.484.173.596.112.112.298.161.56.161h.111c.286 0 .484-.074.609-.248q.149-.225.149-1.08v-.535c0-.596-.05-.968-.15-1.105-.124-.15-.322-.224-.62-.224h-.087c-.274 0-.46.062-.584.187-.112.111-.161.335-.161.658m7.627 2.298h.137c.422 0 .869-.05 1.316-.162.124-.025.199-.037.236-.037.124 0 .199.074.224.211l.1.621c.024.174.049.286.049.335 0 .15-.112.261-.323.336a5.7 5.7 0 0 1-1.876.298h-.236q-1.527 0-2.16-.634a1.8 1.8 0 0 1-.498-.844c-.086-.323-.124-.758-.124-1.292v-.695c0-1.08.249-1.839.745-2.286.423-.372 1.069-.559 1.95-.559h.174c.87 0 1.503.212 1.876.621.397.447.596 1.18.596 2.224v.645c0 .236-.124.348-.36.348h-2.981v.1c0 .298.075.496.248.608.162.112.46.162.907.162m-1.155-2.161h1.366c.1 0 .15-.05.15-.162v-.199c0-.248-.05-.434-.125-.571-.1-.149-.298-.223-.571-.223h-.112c-.248 0-.422.062-.522.173q-.186.224-.186.671zm5.962-1.764h.037c.273-.447.733-.67 1.391-.67h.497c.124 0 .224.024.273.074s.087.136.087.273v.907c0 .136-.025.223-.074.273q-.075.075-.261.074h-.373c-.46 0-.77.087-.944.261-.149.15-.21.435-.21.857v3.006c0 .124-.038.223-.1.273-.062.062-.174.087-.323.087h-1.143c-.161 0-.273-.025-.335-.087-.062-.05-.087-.149-.087-.273v-5.378c0-.124.025-.211.087-.26s.174-.088.335-.088h.596c.137 0 .236.025.298.062q.094.075.15.224zm2.858 1.329v-.162c0-.608.162-1.068.485-1.39.372-.373 1.006-.56 1.887-.56h.125c.695 0 1.304.075 1.813.224q.15.056.186.112a.35.35 0 0 1 .025.21l-.136 1.02c-.025.16-.137.21-.336.16-.497-.111-.944-.173-1.316-.173h-.013c-.273 0-.472.025-.571.074-.112.05-.162.137-.162.261v.037c0 .125.038.212.137.261.1.05.286.112.571.162l.584.124c.534.124.92.31 1.143.559.223.248.335.633.335 1.143v.186c0 1.304-.82 1.95-2.434 1.95h-.124c-.82 0-1.503-.112-2.075-.336-.111-.037-.186-.087-.21-.149-.026-.05-.026-.149 0-.285l.173-.82c.037-.236.174-.31.422-.236.572.199 1.069.286 1.49.286h.038c.273 0 .46-.025.571-.087.1-.05.162-.15.162-.286v-.037c0-.1-.05-.187-.137-.236q-.15-.075-.596-.186l-.546-.125q-.82-.186-1.156-.559c-.223-.248-.335-.62-.335-1.142m7.814-.422h-1.975c-.124 0-.211-.013-.26-.063s-.063-.149-.063-.298v-.857c0-.149.013-.236.062-.285q.075-.075.261-.075h4.198c.124 0 .211.025.273.075.05.05.087.149.087.285v.236c0 .323-.1.621-.273.882l-2.136 3.03h2.124c.124 0 .198.026.248.075.05.05.075.137.075.286v.857q0 .223-.075.298c-.05.05-.124.062-.248.062h-4.273c-.26 0-.385-.112-.385-.36v-.286c0-.323.087-.608.273-.882zm8.724-1.205c-.174 1.167-.497 2.459-.969 3.887a26.4 26.4 0 0 1-1.751 4.05c-.087.173-.199.26-.348.26a.8.8 0 0 1-.36-.1l-.633-.273c-.224-.099-.323-.198-.323-.31 0-.05.012-.124.062-.211.422-.857.67-1.354.72-1.49-.348-.125-.609-.398-.807-.845-.224-.497-.485-1.255-.77-2.298a33 33 0 0 1-.634-2.683c-.025-.124-.012-.21.05-.273a.53.53 0 0 1 .323-.087h1.13c.137 0 .236.025.298.062.062.038.112.112.137.236.285 1.565.608 2.956.969 4.161h.062c.347-.994.67-2.36.968-4.123q.02-.187.112-.261c.062-.05.162-.075.286-.075h1.142c.137 0 .236.038.286.087.05.05.062.15.05.286m2.713 1.925v1.59c0 .285.05.484.174.596.099.112.285.161.558.161h.112c.286 0 .485-.074.609-.248q.15-.225.149-1.08v-.535c0-.62-.062-1.006-.162-1.13-.111-.124-.323-.199-.62-.199h-.05c-.286 0-.485.062-.609.187-.112.111-.161.335-.161.658m0-2.074h.025q.54-.336 1.415-.336h.112c.745 0 1.292.224 1.627.671.273.385.422 1.068.422 2.05v.894c0 .993-.21 1.689-.633 2.074-.447.422-1.155.62-2.124.62h-.248c-1.019 0-1.714-.198-2.087-.608-.335-.36-.497-.944-.497-1.763V9.642c0-.124.025-.211.087-.273.05-.05.162-.087.323-.087h1.155c.15 0 .261.037.323.087.062.062.1.149.1.273zm6.658 3.453v2.049c0 .124-.037.223-.099.273-.062.062-.174.087-.323.087h-1.142c-.162 0-.274-.025-.336-.087-.062-.05-.087-.149-.087-.273V9.642c0-.124.025-.211.087-.273.062-.05.174-.087.336-.087h1.142c.15 0 .26.037.323.087.062.062.1.149.1.273v4.049h.086l1.18-1.801a.57.57 0 0 1 .522-.286h1.44c.137 0 .212.05.212.15 0 .049-.038.136-.1.235l-1.428 2.137c-.112.173-.161.298-.161.372 0 .087.05.211.161.373l1.528 2.41c.05.099.074.16.074.21 0 .137-.087.199-.26.199h-1.38c-.173 0-.31-.012-.384-.062q-.113-.056-.224-.26l-1.18-2.087zm6.162-3.317v5.366c0 .124-.037.223-.099.273-.062.062-.174.087-.323.087H80.58c-.162 0-.274-.025-.336-.087-.062-.05-.087-.149-.087-.273v-5.366c0-.124.025-.21.087-.273.062-.05.174-.087.335-.087h1.143a.53.53 0 0 1 .323.087c.062.062.1.15.1.273m-.919-.832h-.149c-.67 0-1.006-.335-1.006-1.03v-.063c0-.683.336-1.03 1.006-1.03h.15c.67 0 1.005.347 1.005 1.03v.062c0 .696-.335 1.031-1.006 1.031M21.621 32.281v2.049c0 .124-.038.223-.1.273-.062.062-.174.087-.323.087h-1.142c-.162 0-.274-.025-.336-.087-.062-.05-.087-.149-.087-.273v-7.688c0-.124.025-.211.087-.273.063-.05.174-.087.336-.087h1.142c.15 0 .261.037.323.087.062.062.1.149.1.273v4.049h.087l1.18-1.801a.57.57 0 0 1 .521-.286h1.44c.137 0 .212.05.212.15a.56.56 0 0 1-.1.235l-1.428 2.136c-.111.174-.161.299-.161.373 0 .087.05.211.161.373l1.528 2.41c.05.099.075.16.075.21 0 .137-.087.199-.261.199h-1.379c-.174 0-.31-.012-.385-.062q-.112-.056-.224-.26l-1.18-2.087zm5.715-3.006h.037c.273-.447.733-.67 1.39-.67h.498c.124 0 .223.024.273.074s.087.136.087.273v.907c0 .136-.025.223-.075.273q-.075.075-.26.074h-.373c-.46 0-.77.087-.944.261-.15.15-.211.435-.211.857v3.006c0 .124-.037.223-.1.273-.062.062-.173.087-.322.087h-1.143c-.162 0-.273-.025-.335-.087-.062-.05-.087-.149-.087-.273v-5.378c0-.124.024-.211.087-.26.062-.05.174-.088.335-.088h.596c.137 0 .236.025.298.062q.093.075.15.224zm5.927 3.925h.136c.423 0 .87-.05 1.317-.162.124-.025.199-.037.236-.037.124 0 .199.074.224.211l.099.621c.025.174.05.286.05.335 0 .15-.112.261-.323.336a5.7 5.7 0 0 1-1.876.298h-.236q-1.528 0-2.16-.634a1.8 1.8 0 0 1-.498-.844c-.087-.323-.124-.758-.124-1.292v-.695c0-1.08.248-1.839.745-2.286.423-.372 1.069-.559 1.95-.559h.174c.87 0 1.503.212 1.876.621.397.448.596 1.18.596 2.224v.645c0 .236-.124.348-.36.348h-2.981v.1c0 .298.074.496.248.608.162.112.46.162.907.162m-1.155-2.162h1.366c.1 0 .149-.05.149-.16v-.2c0-.248-.05-.434-.124-.571-.1-.149-.298-.223-.572-.223h-.111c-.249 0-.423.062-.522.173q-.186.224-.186.671zm7.8 1.454v-1.578c0-.31-.05-.534-.15-.658-.111-.124-.31-.199-.583-.199h-.124c-.273 0-.46.075-.572.212-.124.136-.173.521-.173 1.167v.546c0 .597.062.97.186 1.093.1.125.286.174.571.174h.137c.236 0 .41-.05.534-.161.112-.112.174-.31.174-.596m-.025-3.776h.025v-2.074c0-.124.025-.211.087-.273.062-.05.174-.087.335-.087h1.155c.15 0 .261.037.323.087.05.062.087.149.087.273v5.65c0 .87-.161 1.466-.484 1.814a1.93 1.93 0 0 1-.857.534c-.348.112-.808.162-1.391.162h-.211c-.92 0-1.578-.187-2-.56-.435-.372-.646-1.067-.646-2.098v-.994c0-.993.199-1.689.621-2.086.398-.373.944-.572 1.652-.572h.149q.708 0 1.155.224m8.462.26c-.174 1.168-.497 2.46-.97 3.888a26.4 26.4 0 0 1-1.75 4.05c-.087.173-.199.26-.348.26a.8.8 0 0 1-.36-.1l-.634-.273c-.223-.099-.323-.198-.323-.31 0-.05.013-.124.063-.211.422-.857.67-1.354.72-1.49-.348-.125-.609-.398-.807-.845-.224-.497-.485-1.255-.77-2.298a33 33 0 0 1-.634-2.683c-.025-.124-.012-.21.05-.273a.53.53 0 0 1 .323-.087h1.13c.137 0 .236.025.298.062.062.038.112.112.137.236.285 1.565.608 2.956.968 4.161h.063c.347-.994.67-2.36.968-4.124q.02-.186.112-.26c.062-.05.161-.075.286-.075h1.142c.137 0 .236.038.286.087.05.05.062.15.05.286m4.916 4.547v.707c0 .187-.037.311-.087.373s-.161.087-.31.087h-.994c-.894 0-1.49-.149-1.764-.46-.248-.26-.36-.757-.36-1.502v-2.571h-.67c-.125 0-.2-.013-.249-.062-.05-.05-.062-.125-.062-.249v-.633c0-.15.012-.249.062-.298.037-.05.124-.087.26-.124l.66-.162v-1.217c0-.124.024-.211.086-.273.062-.05.174-.087.335-.087h1.143c.15 0 .26.037.323.087.062.062.1.149.1.273v1.192h1.03c.124 0 .199.025.249.075s.074.136.074.285v.833q0 .223-.074.298c-.05.05-.125.062-.249.062h-1.03v2.347c0 .224.024.36.099.435.074.087.236.124.484.124h.547c.149 0 .26.037.31.1.05.061.087.186.087.36m6.377.596h-.335c-1.764 0-2.633-.795-2.633-2.397v-.832c0-.82.211-1.416.646-1.814.422-.385 1.08-.584 1.95-.584h.174c.161-.894.82-1.353 1.987-1.353h.608c.125 0 .199.024.249.062.037.05.062.136.062.26v.684c0 .124-.025.198-.075.236-.05.05-.136.062-.248.062h-.584c-.273 0-.46.062-.571.186.931.248 1.403 1.006 1.403 2.26v.833c0 .894-.248 1.49-.733 1.813.323.174.572.397.758.67.186.274.286.572.286.882v.087c0 1.23-.981 1.839-2.919 1.839h-.236a6.7 6.7 0 0 1-2.434-.448c-.224-.074-.31-.236-.249-.471l.224-.795c.062-.236.211-.323.447-.249.733.249 1.379.36 1.95.36h.174q1.08 0 1.08-.633v-.037c0-.236-.124-.447-.372-.646-.199.025-.41.025-.609.025m-.21-1.553h.086c.273 0 .46-.05.584-.174.136-.136.21-.422.21-.844v-.485c0-.422-.074-.695-.21-.844-.124-.112-.31-.174-.584-.174h-.087c-.273 0-.472.062-.584.174-.149.149-.21.422-.21.844v.485c0 .422.061.708.21.844.112.124.31.174.584.174m5.755-1.403v.969c0 .484.075.794.224.943.112.125.285.174.522.174h.05c.223 0 .397-.05.52-.174.15-.149.224-.46.224-.944v-.968c0-.472-.074-.795-.223-.944-.124-.112-.298-.174-.522-.174h-.05c-.236 0-.41.062-.521.174-.15.149-.224.472-.224.944m3.54.074v.808c0 .62-.062 1.093-.186 1.44a1.78 1.78 0 0 1-.597.832c-.41.323-1.043.485-1.912.485h-.15c-.869 0-1.514-.162-1.912-.485a1.78 1.78 0 0 1-.596-.832c-.124-.347-.186-.82-.186-1.44v-.795c0-.609.062-1.08.186-1.429.124-.347.323-.62.596-.844.398-.323 1.043-.485 1.913-.485h.149c.87 0 1.503.162 1.912.485.274.223.472.497.597.832.124.348.186.82.186 1.428m4.95 2.286v.707c0 .187-.036.311-.086.373s-.162.087-.31.087h-.994c-.894 0-1.49-.149-1.764-.46-.248-.26-.36-.757-.36-1.502v-2.571h-.67c-.125 0-.2-.013-.249-.062-.05-.05-.062-.125-.062-.249v-.633c0-.15.012-.249.062-.298.037-.05.124-.087.26-.124l.66-.162v-1.217c0-.124.024-.211.086-.273.062-.05.174-.087.335-.087h1.143a.53.53 0 0 1 .323.087c.062.062.1.149.1.273v1.192h1.03c.124 0 .199.025.248.075.05.05.075.136.075.285v.833q0 .223-.075.298c-.05.05-.124.062-.248.062h-1.03v2.347c0 .224.024.36.099.435.074.087.236.124.484.124h.546c.15 0 .261.037.311.1.05.061.087.186.087.36m2.742-2.36v.969c0 .484.074.794.223.943.112.125.286.174.522.174h.05c.223 0 .397-.05.521-.174.15-.149.224-.46.224-.944v-.968c0-.472-.075-.795-.224-.944-.124-.112-.298-.174-.521-.174h-.05c-.236 0-.41.062-.522.174-.149.149-.223.472-.223.944m3.54.074v.808c0 .62-.063 1.093-.187 1.44a1.8 1.8 0 0 1-.596.832c-.41.323-1.043.485-1.913.485h-.149c-.87 0-1.515-.162-1.912-.485a1.8 1.8 0 0 1-.597-.832c-.124-.347-.186-.82-.186-1.44v-.795c0-.609.062-1.08.186-1.429.124-.347.323-.62.597-.844.397-.323 1.043-.485 1.912-.485h.15c.869 0 1.502.162 1.912.485.273.223.472.497.596.832.124.348.186.82.186 1.428m-3.789-4.272 1.95-1.665a.35.35 0 0 1 .236-.111c.087 0 .174.062.249.161l.596.77c.05.075.074.137.074.211 0 .1-.074.2-.198.298l-1.963 1.342a.43.43 0 0 1-.248.087c-.1 0-.199-.05-.298-.174l-.373-.435c-.1-.112-.136-.211-.136-.286s.037-.149.111-.198m8.031 1.937h1.069c.173 0 .297.025.36.075.062.05.111.149.136.298 0 .05.224 1.155.659 3.304h.037c.223-1.305.422-2.51.584-3.627.012-.137.05-.224.099-.273q.074-.075.26-.075h1.267c.137 0 .224.038.274.087.037.062.05.162.025.286-.2.969-.448 2.037-.72 3.204-.274 1.168-.473 1.9-.597 2.21-.05.125-.112.212-.174.25-.062.037-.161.049-.285.049h-1.367c-.26 0-.422-.087-.472-.286-.236-.844-.434-1.912-.608-3.204h-.05a34 34 0 0 1-.62 3.204c-.05.2-.2.286-.448.286h-1.341c-.249 0-.41-.087-.472-.273-.124-.336-.336-1.106-.634-2.298a58 58 0 0 1-.695-3.142c-.037-.137-.025-.236.025-.286s.149-.087.298-.087h1.217c.124 0 .223.025.285.075.05.05.087.149.112.273.174 1.155.373 2.36.609 3.627h.05c.298-1.54.509-2.646.608-3.304.025-.162.062-.26.124-.31.062-.038.187-.063.385-.063m7.492 3.379v2.049c0 .124-.037.223-.099.273-.062.062-.174.087-.323.087h-1.143c-.161 0-.273-.025-.335-.087-.062-.05-.087-.149-.087-.273v-7.688c0-.124.025-.211.087-.273.062-.05.174-.087.335-.087h1.143c.15 0 .26.037.323.087.062.062.1.149.1.273v4.049h.086l1.18-1.801a.57.57 0 0 1 .522-.286h1.44c.137 0 .212.05.212.15a.56.56 0 0 1-.1.235l-1.428 2.136c-.112.174-.162.299-.162.373 0 .087.05.211.162.373l1.528 2.41c.05.099.074.16.074.21 0 .137-.087.199-.26.199h-1.38c-.173 0-.31-.012-.384-.062q-.113-.056-.224-.26l-1.18-2.087zm5.854-1.118v.969c0 .484.075.794.224.943.112.125.285.174.521.174h.05c.224 0 .398-.05.522-.174.149-.149.223-.46.223-.944v-.968c0-.472-.074-.795-.223-.944-.124-.112-.298-.174-.522-.174h-.05c-.236 0-.41.062-.521.174-.15.149-.224.472-.224.944m3.54.074v.808c0 .62-.062 1.093-.186 1.44a1.8 1.8 0 0 1-.597.832c-.41.323-1.043.485-1.912.485h-.15c-.869 0-1.514-.162-1.912-.485a1.78 1.78 0 0 1-.596-.832c-.124-.347-.186-.82-.186-1.44v-.795c0-.609.062-1.08.186-1.429.124-.347.323-.62.596-.844.398-.323 1.043-.485 1.913-.485h.149c.87 0 1.503.162 1.912.485.274.223.472.497.597.832.124.348.186.82.186 1.428m4.243-2.335h1.068c.174 0 .298.025.36.075s.112.149.137.298c0 .05.223 1.155.658 3.304h.037c.224-1.305.423-2.51.584-3.627.012-.137.05-.224.099-.273q.075-.075.261-.075h1.267c.137 0 .224.038.273.087.038.062.05.162.025.286a125 125 0 0 1-.72 3.204c-.273 1.168-.472 1.9-.596 2.21-.05.125-.112.212-.174.25-.062.037-.162.049-.286.049h-1.366c-.261 0-.422-.087-.472-.286-.236-.844-.435-1.912-.609-3.204h-.049a34 34 0 0 1-.621 3.204c-.05.2-.199.286-.447.286h-1.342c-.248 0-.41-.087-.472-.273-.124-.336-.335-1.106-.633-2.298a58 58 0 0 1-.696-3.142c-.037-.137-.025-.236.025-.286s.149-.087.298-.087h1.217c.125 0 .224.025.286.075.05.05.087.149.112.273.174 1.155.372 2.36.608 3.627h.05c.298-1.54.509-2.646.609-3.304.025-.162.062-.26.124-.31.062-.038.186-.063.385-.063m10.941.075c-.174 1.167-.497 2.459-.969 3.887a26.4 26.4 0 0 1-1.751 4.05c-.087.173-.199.26-.348.26a.8.8 0 0 1-.36-.1l-.634-.273c-.223-.099-.323-.198-.323-.31 0-.05.013-.124.062-.211.423-.857.671-1.354.721-1.49-.348-.125-.609-.398-.808-.845-.223-.497-.484-1.255-.77-2.298a33 33 0 0 1-.633-2.683c-.025-.124-.012-.21.05-.273a.53.53 0 0 1 .323-.087h1.13c.136 0 .236.025.298.062.062.038.112.112.137.236.285 1.565.608 2.956.968 4.161h.062c.348-.994.671-2.36.969-4.124q.02-.186.112-.26c.062-.05.161-.075.286-.075h1.142c.137 0 .236.038.286.087.05.05.062.15.05.286m6.821 3.515v-1.578c0-.31-.05-.534-.149-.658-.112-.124-.311-.199-.584-.199h-.124c-.273 0-.46.075-.571.212-.125.136-.174.521-.174 1.167v.546c0 .597.062.97.186 1.093.099.125.286.174.571.174h.137c.236 0 .41-.05.534-.161.112-.112.174-.31.174-.596m-.025-3.776h.025v-2.074c0-.124.025-.211.087-.273.062-.05.174-.087.335-.087h1.155c.149 0 .261.037.323.087a.42.42 0 0 1 .087.273v5.65c0 .87-.161 1.466-.484 1.814a1.93 1.93 0 0 1-.857.534c-.348.112-.808.162-1.391.162h-.211c-.92 0-1.578-.187-2-.56-.435-.372-.646-1.067-.646-2.098v-.994c0-.993.199-1.689.621-2.086.398-.373.944-.572 1.652-.572h.149q.708 0 1.155.224m4.997 2.447v.969c0 .484.074.794.223.943.112.125.286.174.522.174h.049c.224 0 .398-.05.522-.174.149-.149.224-.46.224-.944v-.968c0-.472-.075-.795-.224-.944-.124-.112-.298-.174-.522-.174h-.049c-.236 0-.41.062-.522.174-.149.149-.223.472-.223.944m3.539.074v.808c0 .62-.062 1.093-.186 1.44a1.78 1.78 0 0 1-.596.832c-.41.323-1.043.485-1.913.485h-.149c-.869 0-1.515-.162-1.913-.485a1.78 1.78 0 0 1-.596-.832c-.124-.347-.186-.82-.186-1.44v-.795c0-.609.062-1.08.186-1.429.124-.347.323-.62.596-.844.398-.323 1.044-.485 1.913-.485h.149c.87 0 1.503.162 1.913.485.273.223.472.497.596.832.124.348.186.82.186 1.428m7.311-4.394h-.06c-.635 0-1.331.136-2.087.393-.257.09-.408.015-.469-.227l-.272-1.089c-.075-.272 0-.468.242-.559.938-.393 1.966-.59 3.1-.59h.045c.998 0 1.769.227 2.313.666.545.438.817 1.103.817 1.98v.182c0 .786-.166 1.39-.484 1.844-.333.454-.847.862-1.542 1.195l-.786.378c-.726.363-1.18.635-1.391.816-.212.182-.318.439-.318.741v.166h3.962c.211 0 .362.046.423.106.06.06.091.197.091.394v.997c0 .182-.046.303-.106.363q-.114.09-.408.091h-5.837q-.317 0-.408-.09c-.076-.061-.106-.182-.106-.364v-.967c0-.968.166-1.74.529-2.283.348-.545.953-.998 1.815-1.391l.65-.288c.529-.226.892-.438 1.073-.65.182-.196.288-.469.288-.816v-.121c0-.575-.363-.877-1.074-.877m12.853 2.298v1.315c0 1.422-.302 2.51-.892 3.251-.605.756-1.602 1.12-2.994 1.12-1.391 0-2.388-.364-2.993-1.12-.605-.74-.892-1.83-.892-3.25V29.14c0-1.421.287-2.495.892-3.25.605-.742 1.602-1.12 2.993-1.12 1.392 0 2.389.378 2.994 1.12.59.755.892 1.829.892 3.25m-2.585 1.058v-.801c0-.983-.091-1.663-.242-2.026s-.499-.56-1.028-.56h-.061c-.544.016-.892.197-1.043.56s-.227 1.043-.227 2.026v.801c0 .998.076 1.664.227 2.026.151.363.499.56 1.043.56h.061c.529 0 .877-.182 1.028-.544s.242-1.044.242-2.042m11.356-1.058v1.315c0 1.422-.302 2.51-.892 3.251-.605.756-1.603 1.12-2.994 1.12s-2.389-.364-2.993-1.12c-.605-.74-.893-1.83-.893-3.25V29.14c0-1.421.288-2.495.893-3.25.604-.742 1.602-1.12 2.993-1.12s2.389.378 2.994 1.12c.59.755.892 1.829.892 3.25m-2.585 1.058v-.801c0-.983-.091-1.663-.242-2.026-.152-.363-.499-.56-1.028-.56h-.061c-.544.016-.892.197-1.043.56s-.227 1.043-.227 2.026v.801c0 .998.076 1.664.227 2.026.151.363.499.56 1.043.56h.061c.529 0 .876-.182 1.028-.544.151-.363.242-1.044.242-2.042m11.867 3.07v.862c0 .226-.045.378-.106.453-.06.076-.196.106-.378.106h-1.21c-1.088 0-1.814-.181-2.147-.56-.302-.317-.438-.922-.438-1.829v-3.13h-.817c-.151 0-.241-.015-.302-.075-.06-.06-.076-.152-.076-.303v-.77c0-.182.016-.303.076-.364.045-.06.151-.106.318-.151l.801-.197V25.83c0-.151.03-.257.106-.333.075-.06.211-.106.408-.106h1.391c.182 0 .318.046.393.106a.44.44 0 0 1 .121.333v1.451h1.255c.151 0 .242.03.303.09.06.061.09.167.09.349v1.013q0 .271-.09.363c-.061.06-.152.075-.303.075h-1.255v2.858c0 .272.03.438.121.53.091.105.287.15.59.15h.665c.182 0 .318.046.378.121.061.076.106.227.106.439m7.555-5.534c-.212 1.421-.605 2.994-1.179 4.732a32 32 0 0 1-2.132 4.93c-.106.211-.242.317-.424.317a.96.96 0 0 1-.438-.121l-.771-.333c-.272-.12-.393-.241-.393-.378 0-.06.015-.15.075-.257.514-1.043.817-1.648.877-1.814-.423-.151-.741-.484-.983-1.028-.272-.605-.589-1.527-.937-2.797a40 40 0 0 1-.771-3.266c-.03-.151-.015-.257.06-.333.076-.06.212-.106.393-.106h1.376c.167 0 .288.03.363.076.076.045.136.136.166.287.348 1.905.741 3.599 1.18 5.065h.075c.424-1.21.817-2.873 1.18-5.02q.022-.226.136-.317c.075-.06.196-.09.348-.09h1.391c.166 0 .287.045.347.105.061.06.076.181.061.348m.687 1.98v-.196c0-.74.196-1.3.589-1.693.454-.454 1.225-.68 2.299-.68h.151c.847 0 1.587.09 2.207.271q.182.069.227.136c.03.06.046.136.03.257l-.166 1.24c-.03.197-.166.257-.408.197-.605-.136-1.149-.212-1.603-.212h-.015c-.333 0-.575.03-.696.09-.136.061-.196.167-.196.318v.046c0 .15.045.257.166.317s.348.136.696.197l.71.151c.651.151 1.119.378 1.391.68.273.303.409.771.409 1.391v.227c0 1.588-.998 2.374-2.964 2.374h-.151c-.998 0-1.83-.136-2.525-.408-.136-.045-.227-.106-.257-.182-.03-.06-.03-.181 0-.347l.212-.998c.045-.288.211-.378.514-.288.695.242 1.3.348 1.814.348h.045c.333 0 .56-.03.696-.106.121-.06.196-.181.196-.347v-.046c0-.12-.06-.227-.166-.287q-.182-.09-.726-.227l-.665-.151q-.998-.227-1.406-.68c-.272-.303-.408-.756-.408-1.392m9.406 3.705v.151c0 .847-.408 1.255-1.209 1.255h-.167c-.816 0-1.209-.408-1.209-1.255v-.151c0-.439.09-.756.302-.937.197-.182.499-.288.907-.288h.167c.393 0 .695.106.907.288.196.18.302.498.302.937m7.061-4.219h-2.404c-.152 0-.257-.015-.318-.075-.06-.06-.076-.182-.076-.363V27.72c0-.182.016-.288.076-.348q.09-.09.318-.09h5.11c.151 0 .257.03.333.09.06.06.106.181.106.348v.287c0 .393-.121.756-.333 1.073l-2.601 3.69h2.586c.151 0 .242.03.302.09.061.061.091.167.091.348v1.044q0 .272-.091.362c-.06.06-.151.076-.302.076h-5.201c-.318 0-.469-.136-.469-.438v-.348c0-.393.106-.741.333-1.074zm7.354 3.523h.484c.151 0 .272.046.333.106.06.076.105.212.105.409v.937c0 .212-.045.348-.105.408-.061.076-.182.106-.333.106h-1.149c-.756 0-1.285-.136-1.588-.438-.302-.288-.453-.802-.453-1.528v-1.633l-.499.318c-.197.12-.333.181-.393.181-.121 0-.167-.09-.167-.272v-1.406c0-.151.015-.257.076-.333.045-.06.136-.15.287-.257l.696-.438v-3.992c0-.151.03-.257.106-.332.075-.06.211-.106.408-.106h1.391c.181 0 .317.045.393.106a.44.44 0 0 1 .121.332v2.45l.68-.439c.182-.12.318-.181.393-.181.106 0 .167.09.167.272V28.4c0 .151-.031.272-.076.333-.06.075-.151.166-.287.257l-.877.56v2.887c0 .121.015.197.06.227.031.045.106.06.227.06"/></svg>