<svg xmlns="http://www.w3.org/2000/svg" fill="none" viewBox="0 0 300 250"><g fill="#fff"><path d="M248.19 115.321c.476-.463 1.156-.707 2.027-.707h.122c.843 0 1.442.244 1.809.707.326.435.49 1.169.49 2.23v1.02a6.4 6.4 0 0 1-.136 1.401 1.95 1.95 0 0 1-.49.884c-.462.449-1.088.666-1.904.666h-.15q-.774 0-1.264-.285v2.094c0 .204-.041.34-.109.395-.082.054-.231.081-.463.081h-1.033c-.231 0-.381-.027-.463-.095-.081-.054-.108-.19-.108-.381v-8.16c0-.163.027-.272.108-.34.068-.054.191-.095.368-.095h.571c.163 0 .285.027.353.054a.5.5 0 0 1 .15.232l.095.299zm.504 1.931v1.741c0 .313.054.53.19.653.122.122.326.176.612.176h.122c.313 0 .531-.081.667-.272q.163-.244.163-1.183v-.585c0-.652-.054-1.06-.163-1.21-.136-.163-.354-.245-.68-.245h-.095c-.3 0-.504.068-.64.204-.122.123-.176.367-.176.721m6.829-1.782h.04c.3-.489.803-.734 1.524-.734h.544c.136 0 .244.027.299.082.054.054.095.149.095.299v.993c0 .149-.027.244-.082.299q-.081.081-.285.081h-.408c-.503 0-.843.096-1.034.286-.163.163-.231.476-.231.938v3.292c0 .136-.041.244-.109.299-.068.068-.19.095-.353.095h-1.252c-.176 0-.299-.027-.367-.095-.068-.055-.095-.163-.095-.299v-5.889c0-.136.027-.231.095-.286s.191-.095.367-.095h.653c.15 0 .259.027.327.068a.55.55 0 0 1 .163.245zm5.225 2.068v1.06c0 .531.082.871.245 1.034.122.136.313.19.571.19h.055c.244 0 .435-.054.571-.19.163-.163.245-.503.245-1.034v-1.06c0-.517-.082-.871-.245-1.034-.136-.122-.327-.19-.571-.19h-.055c-.258 0-.449.068-.571.19-.163.163-.245.517-.245 1.034m3.876.081v.884c0 .68-.068 1.197-.204 1.578s-.353.68-.653.911c-.448.354-1.142.53-2.094.53h-.163c-.952 0-1.659-.176-2.095-.53a1.94 1.94 0 0 1-.652-.911c-.136-.381-.204-.898-.204-1.578v-.87c0-.667.068-1.183.204-1.564s.353-.68.652-.925c.436-.354 1.143-.53 2.095-.53h.163c.952 0 1.646.176 2.094.53.3.245.517.544.653.911.136.381.204.898.204 1.564m4.646-2.557h1.17c.19 0 .326.028.394.082s.123.163.15.326c0 .055.245 1.265.721 3.618h.04c.245-1.428.463-2.747.64-3.971.013-.15.054-.245.108-.299q.082-.082.286-.082h1.387c.15 0 .245.041.299.095.041.068.055.177.028.313-.218 1.061-.49 2.23-.789 3.509s-.517 2.081-.653 2.421c-.054.136-.122.231-.19.272-.068.04-.177.054-.313.054h-1.496c-.286 0-.463-.095-.517-.313-.258-.925-.476-2.094-.666-3.509h-.055a37 37 0 0 1-.68 3.509c-.054.218-.217.313-.489.313h-1.469c-.272 0-.449-.095-.517-.299-.136-.367-.367-1.211-.694-2.516a63 63 0 0 1-.761-3.441c-.041-.15-.027-.258.027-.313s.163-.095.326-.095h1.333c.136 0 .245.027.313.082.054.054.095.163.122.299.191 1.265.408 2.584.667 3.971h.054c.327-1.686.558-2.897.667-3.618.027-.176.068-.285.136-.34.068-.04.204-.068.421-.068m8.231.068v5.876c0 .136-.041.244-.109.299-.068.068-.19.095-.353.095h-1.251c-.177 0-.3-.027-.368-.095-.068-.055-.095-.163-.095-.299v-5.876c0-.136.027-.231.095-.299.068-.054.191-.095.368-.095h1.251c.163 0 .285.041.353.095a.4.4 0 0 1 .109.299m-1.006-.911h-.163c-.735 0-1.102-.367-1.102-1.129v-.068c0-.748.367-1.128 1.102-1.128h.163c.734 0 1.101.38 1.101 1.128v.068c0 .762-.367 1.129-1.101 1.129m4.632 2.244h-2.162c-.136 0-.231-.013-.286-.068-.054-.054-.068-.163-.068-.326v-.939c0-.163.014-.258.068-.312q.082-.082.286-.082h4.597c.136 0 .231.027.299.082.054.054.095.163.095.312v.259c0 .353-.109.68-.299.965l-2.339 3.319h2.325c.136 0 .218.027.272.081s.082.15.082.313v.939q0 .245-.082.326c-.054.054-.136.068-.272.068h-4.678c-.286 0-.422-.122-.422-.394v-.313c0-.354.096-.667.3-.966zm3.542 7.358h-.789c-.136 0-.245-.027-.299-.095-.055-.055-.082-.177-.082-.34v-.952c0-.136.027-.245.082-.3.054-.054.163-.095.299-.095h.34c.245 0 .435-.054.558-.19.108-.109.163-.395.163-.843v-5.876c0-.136.027-.231.095-.299.068-.054.19-.095.367-.095h1.251c.164 0 .286.041.354.095a.4.4 0 0 1 .109.299v6.025c0 .979-.177 1.659-.531 2.054q-.55.612-1.917.612m1.441-9.602h-.163c-.734 0-1.101-.367-1.101-1.129v-.068c0-.748.367-1.128 1.101-1.128h.163c.735 0 1.102.38 1.102 1.128v.068c0 .762-.367 1.129-1.102 1.129m4.619.911v5.876c0 .136-.04.244-.108.299-.068.068-.191.095-.354.095h-1.251c-.177 0-.299-.027-.367-.095-.068-.055-.096-.163-.096-.299v-5.876c0-.136.028-.231.096-.299.068-.054.19-.095.367-.095h1.251c.163 0 .286.041.354.095a.4.4 0 0 1 .108.299m-1.006-.911h-.163c-.735 0-1.102-.367-1.102-1.129v-.068c0-.748.367-1.128 1.102-1.128h.163c.734 0 1.102.38 1.102 1.128v.068c0 .762-.368 1.129-1.102 1.129"/><path d="M266.845 98.605v2.227c0 2.406-.512 4.25-1.51 5.504-1.024 1.28-2.714 1.894-5.069 1.894s-4.045-.614-5.069-1.894c-1.024-1.254-1.51-3.098-1.51-5.504v-2.227c0-2.407.486-4.224 1.51-5.504 1.024-1.255 2.714-1.895 5.069-1.895s4.045.64 5.069 1.895c.998 1.28 1.51 3.097 1.51 5.504m-4.377 1.792V99.04c0-1.664-.154-2.816-.41-3.43s-.845-.948-1.741-.948h-.102c-.922.026-1.511.333-1.767.948-.256.614-.384 1.766-.384 3.43v1.357c0 1.689.128 2.816.384 3.43s.845.947 1.767.947h.102c.896 0 1.485-.307 1.741-.921s.41-1.767.41-3.456m14.773-4.608v.256c0 1.69-.435 2.893-1.255 3.66-.768.615-1.766.922-2.944.922-1.331 0-2.329-.333-3.02-.998-.768-.717-1.152-1.843-1.152-3.328v-.768c0-1.485.384-2.586 1.152-3.328.691-.666 1.689-.999 3.02-.999 1.178 0 2.176.308 2.944.922.82.768 1.255 1.997 1.255 3.66m-4.352 11.52 9.446-15.565c.128-.205.282-.358.435-.435.154-.051.384-.103.717-.103h1.869c.794 0 1.024.308.666.922l-9.447 15.565c-.153.23-.281.384-.435.435-.154.077-.41.102-.717.102h-1.869c-.819 0-1.024-.307-.665-.921m-.563-12.083v1.382c0 .538.051.896.179 1.075.102.18.281.256.512.256h.051a.6.6 0 0 0 .512-.256c.102-.179.179-.537.179-1.075v-1.382c0-.512-.077-.87-.179-1.05a.62.62 0 0 0-.512-.282h-.051a.56.56 0 0 0-.512.282c-.128.18-.179.538-.179 1.05m17.971 8.166v.256c0 1.69-.435 2.893-1.255 3.661-.768.614-1.766.921-2.944.921-1.331 0-2.329-.332-3.02-.998-.768-.717-1.152-1.818-1.152-3.328v-.768c0-1.485.384-2.611 1.152-3.328.691-.666 1.689-.998 3.02-.998 1.178 0 2.176.307 2.944.921.82.768 1.255 1.997 1.255 3.661m-4.915-.563v1.382c0 .538.051.896.179 1.075.102.18.281.256.512.256h.051a.6.6 0 0 0 .512-.256c.102-.179.179-.537.179-1.075v-1.382c0-.512-.077-.871-.179-1.05a.62.62 0 0 0-.512-.281h-.051a.56.56 0 0 0-.512.281c-.128.179-.179.538-.179 1.05"/><path d="M17.71 94.32h-.11c-.387 1.896-.866 3.92-1.418 6.073q-.166.607-1.048.607h-1.656c-.332 0-.57-.037-.718-.129-.147-.073-.24-.221-.294-.441-.92-3.57-1.693-7.195-2.3-10.856-.037-.166 0-.295.073-.368q.111-.11.497-.11h1.822c.22 0 .404.036.515.091.11.074.165.203.202.387.626 4.213 1.049 6.918 1.233 8.114h.074c.147-.7.386-1.914.754-3.68.368-1.748.626-2.98.791-3.717.055-.313.313-.478.773-.478h1.509c.441 0 .699.165.773.478.147.736.404 1.969.772 3.717.368 1.766.626 2.98.773 3.68h.074c.092-.626.276-1.822.552-3.625.257-1.785.497-3.275.68-4.49.019-.183.093-.312.203-.386.11-.055.276-.092.515-.092h1.822c.239 0 .405.037.478.11.074.074.11.203.092.369-.754 4.158-1.527 7.764-2.3 10.856-.073.22-.165.368-.313.441-.147.092-.368.129-.699.129h-1.656q-.883 0-1.049-.607a94 94 0 0 1-1.416-6.072m12.468 4.472h.202c.626 0 1.288-.074 1.95-.24.185-.036.295-.054.35-.054.184 0 .295.11.331.312l.148.92c.036.258.073.424.073.497 0 .221-.165.387-.478.497-.847.294-1.785.442-2.779.442h-.35q-2.262 0-3.2-.939a2.64 2.64 0 0 1-.737-1.251c-.129-.478-.184-1.122-.184-1.914v-1.03c0-1.6.368-2.723 1.104-3.386.626-.552 1.583-.828 2.889-.828h.258c1.288 0 2.226.313 2.778.92.589.663.883 1.748.883 3.294v.957c0 .35-.184.515-.533.515h-4.416v.147c0 .442.11.736.368.902.239.165.68.239 1.343.239m-1.711-3.202h2.024c.147 0 .22-.073.22-.239v-.294c0-.368-.073-.644-.184-.847-.147-.22-.441-.33-.846-.33h-.166c-.368 0-.625.091-.772.257q-.276.33-.276.993zm9.513-1.27h-2.926c-.184 0-.313-.018-.386-.091-.074-.074-.092-.221-.092-.442v-1.27c0-.22.018-.349.092-.423q.11-.11.386-.11h6.22c.183 0 .312.037.404.11.074.074.129.221.129.424v.35c0 .478-.147.92-.405 1.306l-3.165 4.49h3.147c.184 0 .294.036.368.11.073.073.11.202.11.423v1.269q0 .331-.11.442c-.074.074-.184.092-.368.092h-6.33c-.386 0-.57-.166-.57-.534v-.423c0-.478.129-.901.405-1.306zm-1.417-4.765 2.889-2.465c.11-.11.239-.166.35-.166.128 0 .257.092.367.24l.884 1.14a.54.54 0 0 1 .11.313c0 .147-.11.294-.294.441l-2.908 1.988c-.147.092-.257.128-.368.128-.147 0-.294-.073-.441-.257l-.552-.644c-.147-.166-.203-.313-.203-.423s.056-.221.166-.295m15.239 2.87h1.582c.258 0 .442.037.534.111s.166.22.202.442c0 .073.332 1.71.976 4.894h.055c.33-1.932.625-3.717.864-5.373.019-.202.074-.331.148-.405q.11-.11.386-.11h1.877c.202 0 .331.055.405.129.055.092.073.239.036.423a183 183 0 0 1-1.067 4.747c-.404 1.73-.699 2.815-.883 3.275-.074.184-.166.313-.258.368-.091.056-.239.074-.423.074h-2.024c-.386 0-.625-.129-.699-.423-.35-1.251-.644-2.834-.901-4.747h-.074a51 51 0 0 1-.92 4.747c-.074.294-.294.423-.663.423h-1.987c-.368 0-.607-.129-.699-.405-.184-.497-.497-1.637-.938-3.404a86 86 0 0 1-1.03-4.655c-.056-.202-.038-.35.036-.423s.22-.129.442-.129h1.803c.184 0 .331.037.423.11.074.074.129.221.166.405.257 1.711.552 3.496.901 5.373h.074c.441-2.282.754-3.92.901-4.894.037-.24.093-.387.184-.46.093-.056.276-.092.57-.092m17.462 7.821h-.037c-.405.625-1.214.92-2.41.92h-.276c-.939 0-1.675-.24-2.19-.718-.534-.478-.791-1.196-.791-2.116v-.202c0-.994.276-1.712.846-2.116s1.49-.608 2.779-.608h.128c.479 0 .92.037 1.288.074v-.386c0-.387-.11-.663-.312-.81-.221-.129-.59-.202-1.104-.202-.626 0-1.325.11-2.135.312-.22.056-.386.056-.46 0-.092-.055-.147-.165-.165-.35l-.148-.974c-.036-.166-.036-.295-.036-.368 0-.221.147-.387.441-.479a11.9 11.9 0 0 1 3.147-.405c1.416 0 2.428.313 3.017.902.46.478.7 1.251.7 2.3v5.465c0 .184-.056.331-.148.405-.092.073-.257.11-.478.11h-.865c-.22 0-.368-.018-.46-.074s-.166-.165-.22-.349zM68.6 97.89v-.515a5.3 5.3 0 0 0-.883-.055h-.202q-.663 0-.939.166c-.184.11-.257.33-.257.662v.074c0 .33.073.552.257.662.166.129.424.184.773.184h.129c.368 0 .644-.092.865-.276.165-.147.257-.46.257-.902m6.952-5.115c.644-.625 1.564-.957 2.742-.957h.165c1.141 0 1.95.332 2.448.957.441.589.662 1.583.662 3.018v1.38c0 .773-.074 1.417-.184 1.895-.129.478-.35.883-.662 1.196-.626.607-1.472.902-2.576.902h-.203q-1.049 0-1.711-.387v2.834c0 .276-.055.46-.147.533-.11.074-.313.111-.626.111h-1.398c-.313 0-.515-.037-.626-.129-.11-.074-.147-.258-.147-.515v-11.04c0-.221.037-.368.147-.46.092-.074.258-.129.497-.129h.773c.22 0 .386.037.478.074a.7.7 0 0 1 .203.312l.128.405zm.681 2.613v2.355c0 .423.074.718.258.883.165.166.441.24.828.24h.165c.423 0 .718-.11.902-.368q.22-.332.22-1.601v-.791c0-.884-.073-1.436-.22-1.638-.184-.22-.479-.331-.92-.331h-.129c-.405 0-.68.092-.865.276-.165.165-.239.497-.239.975m10.214 3.22h.59c.183 0 .33.055.404.129.074.092.129.257.129.497v1.14c0 .258-.055.424-.129.497-.074.092-.22.129-.405.129H85.64c-.92 0-1.564-.166-1.932-.534-.368-.349-.552-.975-.552-1.858v-9.531c0-.184.037-.313.129-.405.092-.074.257-.129.496-.129h1.693c.221 0 .387.055.479.129.092.092.147.22.147.405v9.181c0 .148.018.24.073.276.037.056.13.074.276.074m5.312-6.09v7.948c0 .184-.055.332-.147.405-.092.092-.258.129-.479.129h-1.693c-.239 0-.404-.037-.496-.129-.092-.073-.13-.221-.13-.405v-7.948c0-.184.038-.313.13-.405.092-.074.257-.129.496-.129h1.693c.221 0 .387.055.479.129.092.092.147.22.147.405m-1.362-1.233h-.22c-.994 0-1.491-.497-1.491-1.527v-.092c0-1.012.497-1.528 1.49-1.528h.221c.994 0 1.49.516 1.49 1.528v.092c0 1.03-.496 1.527-1.49 1.527m6.213 6.145v3.036c0 .184-.056.332-.148.405-.092.092-.257.129-.478.129h-1.693c-.24 0-.405-.037-.497-.129-.092-.073-.129-.221-.129-.405v-11.39c0-.183.037-.312.13-.404.091-.074.257-.129.496-.129h1.693c.22 0 .386.055.478.129.092.092.148.22.148.405v5.998h.128l1.748-2.668c.166-.276.424-.423.773-.423h2.135c.202 0 .312.074.312.22 0 .074-.055.203-.147.35l-2.116 3.165c-.166.258-.24.442-.24.552 0 .129.075.313.24.552l2.263 3.57c.074.147.111.239.111.313 0 .202-.129.294-.387.294h-2.042c-.258 0-.46-.018-.57-.092q-.165-.083-.332-.386L96.74 97.43zm11.465 2.816h-.036c-.405.625-1.215.92-2.411.92h-.276c-.938 0-1.674-.24-2.189-.718-.534-.478-.792-1.196-.792-2.116v-.202c0-.994.276-1.712.847-2.116.57-.405 1.49-.608 2.778-.608h.129c.478 0 .92.037 1.288.074v-.386c0-.387-.11-.663-.313-.81-.221-.129-.589-.202-1.104-.202-.625 0-1.325.11-2.134.312-.221.056-.387.056-.46 0-.092-.055-.147-.165-.166-.35l-.147-.974c-.037-.166-.037-.295-.037-.368 0-.221.147-.387.442-.479a11.9 11.9 0 0 1 3.146-.405c1.417 0 2.429.313 3.018.902.46.478.699 1.251.699 2.3v5.465c0 .184-.055.331-.147.405-.092.073-.258.11-.479.11h-.864c-.221 0-.368-.018-.46-.074s-.166-.165-.221-.349zm-.662-2.356v-.515a5.3 5.3 0 0 0-.883-.055h-.203q-.662 0-.938.166c-.184.11-.258.33-.258.662v.074c0 .33.074.552.258.662.166.129.423.184.773.184h.129c.368 0 .644-.092.864-.276.166-.147.258-.46.258-.902m8.92.902h.148c.496 0 1.03-.074 1.6-.24.184-.036.295-.054.35-.054.184 0 .294.11.331.312l.166.939c.037.257.073.423.073.497 0 .22-.165.386-.478.496-.81.295-1.693.424-2.65.424h-.22c-1.325 0-2.3-.295-2.908-.92q-.938-.939-.938-3.147v-1.067c0-.865.074-1.546.221-2.024q.22-.717.717-1.214c.644-.644 1.656-.976 3.036-.976h.184c1.104 0 2.061.203 2.834.608.221.128.35.276.35.46 0 .11-.056.294-.148.552l-.349.883q-.138.33-.387.331a.75.75 0 0 1-.331-.092c-.589-.24-1.141-.368-1.637-.368h-.074c-.478 0-.828.129-1.049.35-.276.276-.405.846-.405 1.692v.626c0 .754.111 1.27.368 1.546.24.257.644.386 1.196.386m3.793 5.483h-1.067c-.184 0-.332-.037-.405-.129-.074-.073-.111-.239-.111-.46v-1.288c0-.184.037-.331.111-.404.073-.074.221-.129.405-.129h.46c.331 0 .588-.074.754-.258.147-.147.221-.533.221-1.141v-7.948c0-.184.037-.313.129-.405.092-.074.257-.129.496-.129h1.693c.221 0 .387.055.479.129.092.092.147.22.147.405v8.151c0 1.325-.239 2.245-.718 2.778q-.745.828-2.594.828m1.95-12.99h-.221c-.993 0-1.49-.497-1.49-1.527v-.092c0-1.012.497-1.528 1.49-1.528h.221c.994 0 1.491.516 1.491 1.528v.092c0 1.03-.497 1.527-1.491 1.527m6.249 1.233v7.948c0 .184-.055.332-.147.405-.092.092-.258.129-.478.129h-1.693c-.239 0-.405-.037-.497-.129-.092-.073-.129-.221-.129-.405v-7.948c0-.184.037-.313.129-.405.092-.074.258-.129.497-.129h1.693c.22 0 .386.055.478.129.092.092.147.22.147.405m-1.361-1.233h-.221c-.994 0-1.491-.497-1.491-1.527v-.092c0-1.012.497-1.528 1.491-1.528h.221c.993 0 1.49.516 1.49 1.528v.092c0 1.03-.497 1.527-1.49 1.527M13.882 115.388v2.355c0 .423.074.718.258.883.147.166.423.24.828.24h.166c.423 0 .717-.111.901-.368q.22-.332.221-1.601v-.791c0-.92-.092-1.491-.24-1.675-.165-.184-.478-.294-.92-.294h-.073c-.423 0-.717.092-.901.276-.166.165-.24.497-.24.975m0-3.073h.037q.8-.497 2.098-.497h.165c1.104 0 1.914.332 2.41.994.406.57.626 1.582.626 3.036v1.325c0 1.472-.312 2.502-.938 3.073-.662.625-1.711.92-3.146.92h-.368c-1.51 0-2.54-.295-3.092-.902-.496-.534-.736-1.398-.736-2.613v-8.574c0-.184.037-.313.13-.405.073-.074.238-.129.478-.129h1.71c.222 0 .387.055.48.129a.54.54 0 0 1 .146.405zm11.3 6.477h.203c.625 0 1.288-.074 1.95-.239.184-.037.295-.055.35-.055.184 0 .294.11.331.312l.147.92c.037.258.074.424.074.497 0 .221-.166.387-.479.497-.846.294-1.784.442-2.778.442h-.35q-2.263 0-3.201-.939a2.64 2.64 0 0 1-.736-1.251c-.129-.478-.184-1.122-.184-1.914v-1.03c0-1.601.368-2.723 1.104-3.386.625-.552 1.582-.828 2.889-.828h.257c1.288 0 2.227.313 2.779.92.588.663.883 1.748.883 3.294v.957c0 .349-.184.515-.534.515h-4.416v.147c0 .442.11.736.368.902.24.165.681.239 1.343.239m-1.71-3.202h2.023c.147 0 .221-.073.221-.239v-.294c0-.368-.074-.644-.184-.847-.147-.22-.442-.331-.846-.331h-.166c-.368 0-.626.092-.773.258q-.276.332-.276.993zm9.512-1.269H30.06c-.184 0-.313-.019-.387-.092-.073-.074-.091-.221-.091-.442v-1.269c0-.221.018-.35.091-.424q.111-.11.387-.11h6.22c.183 0 .312.037.404.11.074.074.129.221.129.424v.349c0 .479-.148.92-.405 1.307l-3.165 4.489h3.147c.183 0 .294.037.367.111.074.073.11.202.11.423v1.269q0 .331-.11.442c-.073.074-.184.092-.367.092h-6.33c-.387 0-.57-.166-.57-.534v-.423c0-.478.128-.901.404-1.306zm12.111 0H42.17c-.184 0-.313-.019-.387-.092-.073-.074-.092-.221-.092-.442v-1.269c0-.221.019-.35.092-.424q.111-.11.387-.11h6.219c.184 0 .313.037.405.11.073.074.129.221.129.424v.349c0 .479-.148.92-.405 1.307l-3.165 4.489h3.146c.184 0 .295.037.368.111.074.073.11.202.11.423v1.269q0 .331-.11.442c-.073.074-.184.092-.368.092h-6.33c-.386 0-.57-.166-.57-.534v-.423c0-.478.13-.901.405-1.306zm10.44 5.925H55.5c-.405.625-1.215.92-2.41.92h-.276c-.939 0-1.675-.24-2.19-.718-.534-.478-.791-1.196-.791-2.116v-.202c0-.994.276-1.712.846-2.116s1.49-.608 2.779-.608h.128c.479 0 .92.037 1.288.074v-.386c0-.387-.11-.663-.312-.81-.221-.129-.59-.202-1.105-.202-.625 0-1.324.11-2.134.312-.22.056-.386.056-.46 0-.092-.055-.147-.165-.166-.349l-.147-.975c-.036-.166-.036-.295-.036-.368 0-.221.147-.387.441-.479a11.9 11.9 0 0 1 3.146-.405c1.417 0 2.43.313 3.018.902.46.478.7 1.251.7 2.3v5.465c0 .184-.056.331-.148.405-.092.073-.258.11-.478.11h-.865c-.22 0-.368-.018-.46-.074s-.166-.165-.22-.349zm-.662-2.356v-.515a5.3 5.3 0 0 0-.883-.055h-.202q-.663 0-.939.166c-.184.11-.257.331-.257.662v.074c0 .331.073.552.257.662.166.129.424.184.773.184h.129c.368 0 .644-.092.865-.276.165-.147.257-.46.257-.902m7.633-.46v3.036c0 .184-.055.332-.147.405-.092.092-.258.129-.479.129h-1.693c-.239 0-.404-.037-.496-.129-.092-.073-.13-.221-.13-.405v-11.389c0-.184.038-.313.13-.405.092-.074.257-.129.496-.129h1.693c.221 0 .387.055.479.129a.54.54 0 0 1 .147.405v5.998h.129l1.748-2.668c.165-.276.423-.423.772-.423h2.135c.202 0 .313.074.313.221 0 .073-.056.202-.148.349l-2.116 3.165c-.165.258-.239.442-.239.552 0 .129.074.313.24.552l2.263 3.57c.073.147.11.239.11.313 0 .202-.129.294-.386.294h-2.043c-.257 0-.46-.018-.57-.092q-.165-.083-.331-.386l-1.748-3.092zm9.975 1.178h.589c.184 0 .331.055.405.129.073.092.129.257.129.497v1.14c0 .258-.056.424-.13.497-.073.092-.22.129-.404.129h-1.398c-.92 0-1.564-.166-1.932-.534-.368-.349-.552-.975-.552-1.858v-1.987l-.608.386c-.239.147-.404.221-.478.221-.147 0-.202-.11-.202-.331v-1.711c0-.184.018-.313.092-.405a1.6 1.6 0 0 1 .35-.313l.846-.534v-4.857c0-.184.036-.313.128-.405.092-.074.258-.129.497-.129h1.693c.22 0 .386.055.478.129a.54.54 0 0 1 .148.405v2.981l.828-.534c.22-.147.386-.221.478-.221.129 0 .202.111.202.331v1.712c0 .184-.036.331-.092.404a1.5 1.5 0 0 1-.35.313l-1.066.681v3.514c0 .148.018.24.073.276.037.056.129.074.276.074m7.654 1.638h-.037c-.405.625-1.214.92-2.41.92h-.276c-.939 0-1.675-.24-2.19-.718-.533-.478-.791-1.196-.791-2.116v-.202c0-.994.276-1.712.846-2.116s1.49-.608 2.779-.608h.129c.478 0 .92.037 1.287.074v-.386c0-.387-.11-.663-.312-.81-.221-.129-.59-.202-1.104-.202-.626 0-1.325.11-2.135.312-.22.056-.386.056-.46 0-.092-.055-.147-.165-.165-.349l-.148-.975c-.036-.166-.036-.295-.036-.368 0-.221.147-.387.441-.479a11.9 11.9 0 0 1 3.147-.405c1.416 0 2.428.313 3.017.902.46.478.7 1.251.7 2.3v5.465c0 .184-.056.331-.148.405-.092.073-.257.11-.478.11h-.865c-.22 0-.368-.018-.46-.074s-.165-.165-.22-.349zm-.663-2.356v-.515a5.3 5.3 0 0 0-.883-.055h-.202q-.663 0-.939.166c-.183.11-.257.331-.257.662v.074c0 .331.073.552.257.662.166.129.424.184.773.184h.13c.367 0 .643-.092.864-.276.165-.147.257-.46.257-.902m9.73-.147v-2.337c0-.46-.073-.791-.22-.975-.166-.184-.46-.294-.865-.294h-.184c-.405 0-.68.11-.846.313-.184.202-.258.772-.258 1.729v.81c0 .883.092 1.435.276 1.619.147.184.423.258.846.258h.203c.35 0 .607-.074.791-.24.166-.165.258-.46.258-.883m-.036-5.593h.037v-3.073c0-.184.037-.313.129-.405.092-.074.257-.129.496-.129h1.712c.22 0 .386.055.478.129a.63.63 0 0 1 .129.405v8.372c0 1.288-.24 2.171-.718 2.686a2.86 2.86 0 0 1-1.27.791c-.515.166-1.196.24-2.06.24h-.313c-1.362 0-2.337-.276-2.963-.828-.643-.552-.956-1.583-.956-3.11v-1.472c0-1.472.294-2.502.92-3.091.588-.552 1.398-.847 2.447-.847h.22q1.05 0 1.712.332m10.052 8.096h-.037c-.405.625-1.215.92-2.41.92h-.276c-.939 0-1.675-.24-2.19-.718-.534-.478-.791-1.196-.791-2.116v-.202c0-.994.276-1.712.846-2.116s1.49-.608 2.778-.608h.13c.478 0 .92.037 1.287.074v-.386c0-.387-.11-.663-.312-.81-.221-.129-.59-.202-1.105-.202-.625 0-1.324.11-2.134.312-.22.056-.386.056-.46 0-.092-.055-.147-.165-.165-.349l-.148-.975c-.036-.166-.036-.295-.036-.368 0-.221.147-.387.441-.479a11.9 11.9 0 0 1 3.147-.405c1.416 0 2.428.313 3.017.902.46.478.699 1.251.699 2.3v5.465c0 .184-.055.331-.147.405-.092.073-.257.11-.478.11h-.865c-.22 0-.368-.018-.46-.074s-.166-.165-.22-.349zm-.663-2.356v-.515a5.3 5.3 0 0 0-.883-.055h-.202q-.663 0-.939.166c-.184.11-.257.331-.257.662v.074c0 .331.073.552.257.662.166.129.423.184.773.184h.129c.368 0 .644-.092.865-.276.165-.147.257-.46.257-.902m9.546-6.072h.148c1.067 0 1.858.258 2.336.755.442.478.681 1.288.681 2.429v5.464c0 .184-.055.332-.147.405-.092.092-.258.129-.478.129h-1.693c-.239 0-.405-.037-.497-.129-.092-.073-.129-.221-.129-.405v-5.207c0-.405-.073-.699-.202-.846-.147-.147-.423-.239-.81-.239h-.11c-.405 0-.663.092-.81.239s-.202.441-.202.846v5.207c0 .184-.055.332-.147.405-.092.092-.258.129-.479.129h-1.693c-.239 0-.404-.037-.496-.129-.092-.073-.129-.221-.129-.405v-7.967c0-.184.037-.313.129-.386s.257-.129.496-.129h.865c.221 0 .368.037.46.092q.138.083.221.331l.11.35h.056c.588-.626 1.416-.939 2.52-.939m7.899.7v7.948c0 .184-.056.332-.148.405-.092.092-.257.129-.478.129h-1.693c-.239 0-.405-.037-.497-.129-.092-.073-.128-.221-.128-.405v-7.948c0-.184.036-.313.128-.405.092-.074.258-.129.497-.129h1.693c.221 0 .386.055.478.129a.54.54 0 0 1 .148.405m-1.362-1.233h-.221c-.993 0-1.49-.497-1.49-1.527v-.092c0-1.012.497-1.528 1.49-1.528h.221c.994 0 1.49.516 1.49 1.528v.092c0 1.03-.496 1.527-1.49 1.527m8.586 8.961h-.037c-.405.625-1.214.92-2.41.92h-.276c-.939 0-1.675-.24-2.19-.718-.533-.478-.791-1.196-.791-2.116v-.202c0-.994.276-1.712.846-2.116.571-.405 1.491-.608 2.779-.608h.129c.478 0 .92.037 1.288.074v-.386c0-.387-.111-.663-.313-.81-.221-.129-.589-.202-1.104-.202-.626 0-1.325.11-2.135.312-.22.056-.386.056-.46 0-.092-.055-.147-.165-.165-.349l-.147-.975c-.037-.166-.037-.295-.037-.368 0-.221.147-.387.441-.479a12 12 0 0 1 3.147-.405c1.417 0 2.429.313 3.017.902.46.478.7 1.251.7 2.3v5.465c0 .184-.056.331-.148.405-.092.073-.257.11-.478.11h-.865c-.221 0-.368-.018-.46-.074s-.165-.165-.221-.349zm-.662-2.356v-.515a5.3 5.3 0 0 0-.884-.055h-.202q-.662 0-.938.166c-.184.11-.258.331-.258.662v.074c0 .331.074.552.258.662.165.129.423.184.772.184h.129c.368 0 .644-.092.865-.276.166-.147.258-.46.258-.902m11.621-.46v3.036c0 .184-.055.332-.147.405-.092.092-.258.129-.478.129h-1.693c-.239 0-.405-.037-.497-.129-.092-.073-.129-.221-.129-.405v-11.389c0-.184.037-.313.129-.405.092-.074.258-.129.497-.129h1.693c.22 0 .386.055.478.129.092.092.147.221.147.405v5.998h.129l1.748-2.668c.166-.276.423-.423.773-.423h2.134c.203 0 .313.074.313.221 0 .073-.055.202-.147.349l-2.116 3.165c-.166.258-.239.442-.239.552 0 .129.073.313.239.552l2.263 3.57c.074.147.11.239.11.313 0 .202-.128.294-.386.294h-2.042c-.258 0-.46-.018-.571-.092q-.165-.083-.331-.386l-1.748-3.092zm8.673-1.656v1.436c0 .717.11 1.177.331 1.398.165.184.423.258.773.258h.073c.331 0 .589-.074.773-.258.221-.221.331-.681.331-1.398v-1.436c0-.699-.11-1.177-.331-1.398-.184-.166-.442-.258-.773-.258h-.073c-.35 0-.608.092-.773.258-.221.221-.331.699-.331 1.398m5.244.111v1.196c0 .92-.092 1.619-.276 2.134s-.479.92-.884 1.233c-.607.478-1.545.718-2.833.718h-.221c-1.288 0-2.245-.24-2.834-.718a2.64 2.64 0 0 1-.883-1.233c-.184-.515-.276-1.214-.276-2.134v-1.178c0-.901.092-1.601.276-2.116s.479-.92.883-1.251c.589-.478 1.546-.718 2.834-.718h.221c1.288 0 2.226.24 2.833.718.405.331.7.736.884 1.233.184.515.276 1.214.276 2.116m6.433-4.067h.147c1.067 0 1.858.258 2.337.755.441.478.681 1.288.681 2.429v5.464c0 .184-.056.332-.148.405-.092.092-.257.129-.478.129h-1.693c-.239 0-.405-.037-.497-.129-.092-.073-.128-.221-.128-.405v-5.207c0-.405-.074-.699-.203-.846-.147-.147-.423-.239-.809-.239h-.111c-.405 0-.662.092-.809.239s-.203.441-.203.846v5.207c0 .184-.055.332-.147.405-.092.092-.258.129-.478.129h-1.693c-.239 0-.405-.037-.497-.129-.092-.073-.129-.221-.129-.405v-7.967c0-.184.037-.313.129-.386s.258-.129.497-.129h.865c.22 0 .368.037.46.092q.138.083.22.331l.111.35h.055c.589-.626 1.417-.939 2.521-.939m10.676 7.452v1.049c0 .276-.055.46-.128.552s-.24.129-.46.129h-1.472c-1.325 0-2.208-.221-2.613-.681-.368-.386-.534-1.122-.534-2.226v-3.809h-.993c-.184 0-.295-.018-.368-.092s-.092-.184-.092-.368v-.938c0-.221.018-.368.092-.442.055-.074.184-.129.386-.184l.975-.239v-1.803c0-.184.037-.313.129-.405.092-.074.258-.129.497-.129h1.693c.22 0 .386.055.478.129.092.092.147.221.147.405v1.766h1.527c.184 0 .295.037.368.11s.111.203.111.424v1.232q0 .331-.111.442c-.073.074-.184.092-.368.092h-1.527v3.478c0 .331.037.533.147.644.111.128.35.184.718.184h.81c.22 0 .386.055.46.147.073.092.128.276.128.533m6.71.976h-.037c-.404.625-1.214.92-2.41.92h-.276c-.938 0-1.674-.24-2.19-.718-.533-.478-.791-1.196-.791-2.116v-.202c0-.994.276-1.712.847-2.116.57-.405 1.49-.608 2.778-.608h.129c.478 0 .92.037 1.288.074v-.386c0-.387-.111-.663-.313-.81-.221-.129-.589-.202-1.104-.202-.626 0-1.325.11-2.134.312-.221.056-.387.056-.46 0-.092-.055-.148-.165-.166-.349l-.147-.975c-.037-.166-.037-.295-.037-.368 0-.221.147-.387.442-.479a11.9 11.9 0 0 1 3.146-.405c1.417 0 2.429.313 3.018.902.46.478.699 1.251.699 2.3v5.465c0 .184-.055.331-.147.405-.092.073-.258.11-.479.11h-.865c-.22 0-.368-.018-.46-.074s-.165-.165-.22-.349zm-.662-2.356v-.515a5.3 5.3 0 0 0-.883-.055h-.203q-.662 0-.938.166c-.184.11-.258.331-.258.662v.074c0 .331.074.552.258.662.165.129.423.184.773.184h.128c.368 0 .644-.092.865-.276.166-.147.258-.46.258-.902"/></g></svg>