<svg xmlns="http://www.w3.org/2000/svg" fill="none" viewBox="0 0 300 250"><path fill="#fff" d="M269.278 121.21v-6.799q0-.201.201-.235a9 9 0 0 1 1.535-.123c1.725 0 2.587.672 2.587 1.993v.236c0 .492-.123.896-.358 1.22a1.8 1.8 0 0 1-1.031.661l1.837 3.069c.067.112.034.168-.09.168h-.582a.21.21 0 0 1-.19-.101l-1.736-3.001c-.09.011-.236.011-.415.011-.47 0-.806 0-.985-.011v2.912c0 .134-.068.19-.18.19h-.403c-.134 0-.19-.056-.19-.19m.773-6.284v2.733c.38.023.75.023 1.108.023.56 0 .975-.112 1.232-.336.258-.224.392-.605.392-1.132v-.145c0-.504-.145-.863-.414-1.075-.269-.202-.717-.314-1.344-.314-.358 0-.627.022-.806.045-.079.011-.124.033-.146.056-.022.022-.022.078-.022.145m5.046 6.284v-6.799q0-.201.201-.235a9 9 0 0 1 1.535-.123c1.724 0 2.587.672 2.587 1.993v.236c0 .492-.123.896-.359 1.22a1.78 1.78 0 0 1-1.03.661l1.837 3.069c.067.112.033.168-.09.168h-.582a.21.21 0 0 1-.191-.101l-1.736-3.001c-.089.011-.235.011-.414.011-.47 0-.806 0-.986-.011v2.912c0 .134-.067.19-.179.19h-.403c-.134 0-.19-.056-.19-.19m.772-6.284v2.733c.381.023.751.023 1.109.023.56 0 .975-.112 1.232-.336.258-.224.392-.605.392-1.132v-.145c0-.504-.145-.863-.414-1.075-.269-.202-.717-.314-1.344-.314a6 6 0 0 0-.807.045c-.078.011-.123.033-.145.056-.023.022-.023.078-.023.145m6.681 6.575c-.694 0-1.31-.101-1.859-.325-.101-.034-.134-.101-.112-.19l.09-.37c.022-.112.101-.134.235-.09a3.9 3.9 0 0 0 1.624.348c.515 0 .907-.112 1.176-.348.269-.235.403-.571.403-1.019v-.123c0-.403-.089-.694-.246-.874-.157-.179-.471-.336-.941-.448l-.75-.179c-.549-.134-.952-.336-1.21-.627-.258-.28-.381-.672-.381-1.187v-.168c0-.594.191-1.053.571-1.367.381-.313.908-.481 1.58-.481.604 0 1.131.078 1.601.213.123.044.168.123.146.246l-.079.269q-.05.167-.268.101a4.9 4.9 0 0 0-1.378-.202c-.93 0-1.389.414-1.389 1.232v.112c0 .381.09.65.269.818s.482.302.907.392l.706.168c.605.145 1.03.358 1.277.627q.369.42.369 1.243v.179c0 .683-.201 1.199-.605 1.535-.403.347-.974.515-1.736.515m4.199-3.875v.302c0 1.232.168 2.038.504 2.43.291.348.739.516 1.333.516.649 0 1.108-.191 1.4-.583.291-.403.436-1.187.436-2.363v-.302c0-.583-.033-1.064-.089-1.445s-.168-.683-.347-.93c-.292-.381-.751-.571-1.4-.571q-.958 0-1.378.571c-.314.403-.459 1.199-.459 2.375m4.491-.135v.583c0 1.299-.235 2.195-.683 2.71-.426.482-1.075.717-1.971.717-.84 0-1.468-.213-1.893-.639-.515-.515-.762-1.444-.762-2.788v-.583c0-1.299.235-2.217.706-2.744.414-.459 1.064-.694 1.949-.694.873 0 1.523.235 1.948.694.471.527.706 1.445.706 2.744"/><path fill="#fff" d="M223.858 100.938h.204c.82 0 1.511-.154 2.1-.461v-.359c0-1.408-.154-2.355-.436-2.841-.281-.487-.793-.743-1.561-.743h-.231q-1.92 0-1.92 2.074v.23c0 .768.128 1.306.436 1.613.307.333.768.487 1.408.487m-4.634 8.55c-.307-.102-.435-.282-.435-.589q0-.153.077-.461l.409-1.638c.103-.41.41-.563.871-.435 1.228.384 2.304.563 3.225.563h.077c.922 0 1.562-.23 1.971-.742q.615-.73.691-2.304c-.844.358-1.766.512-2.764.512h-.282c-1.818 0-3.123-.436-3.942-1.357-.82-.896-1.204-2.279-1.204-4.122v-.358c0-1.639.487-2.944 1.485-3.917.999-.947 2.458-1.434 4.378-1.434h.358c2.304 0 3.943.615 4.864 1.792.922 1.178 1.408 3.124 1.408 5.837v.615c0 1.459-.128 2.713-.384 3.788-.256 1.076-.589 1.946-.998 2.56a4.6 4.6 0 0 1-1.562 1.511c-.614.384-1.229.64-1.843.742-.614.128-1.331.179-2.125.179h-.025c-1.485 0-2.919-.23-4.25-.742m15.336-3.712h.359c.768 0 1.305.205 1.638.563.333.384.512.947.512 1.715v.333c0 .794-.256 1.767-.717 2.944a11.2 11.2 0 0 1-2.022 3.226c-.154.205-.333.281-.512.281a.74.74 0 0 1-.41-.128l-1.28-.768c-.307-.153-.332-.409-.076-.742.23-.307.563-.794 1.024-1.485.307-.461.46-.793.46-1.049 0-.128-.076-.231-.204-.333l-.256-.179c-.436-.308-.64-.845-.64-1.613v-.717c0-1.357.691-2.048 2.124-2.048m10.498-4.838h.204c.82 0 1.511-.154 2.1-.461v-.359c0-1.408-.154-2.355-.436-2.841-.281-.487-.793-.743-1.561-.743h-.231q-1.92 0-1.92 2.074v.23c0 .768.128 1.306.436 1.613.307.333.768.487 1.408.487m-4.634 8.55c-.307-.102-.435-.282-.435-.589q0-.153.077-.461l.409-1.638c.103-.41.41-.563.871-.435 1.228.384 2.304.563 3.225.563h.077c.922 0 1.562-.23 1.971-.742q.615-.73.691-2.304c-.844.358-1.766.512-2.764.512h-.282c-1.818 0-3.123-.436-3.942-1.357-.82-.896-1.204-2.279-1.204-4.122v-.358c0-1.639.487-2.944 1.485-3.917.999-.947 2.458-1.434 4.378-1.434h.358c2.304 0 3.943.615 4.864 1.792.922 1.178 1.408 3.124 1.408 5.837v.615c0 1.459-.128 2.713-.384 3.788-.256 1.076-.589 1.946-.998 2.56a4.6 4.6 0 0 1-1.562 1.511c-.614.384-1.229.64-1.843.742-.614.128-1.331.179-2.125.179h-.025c-1.485 0-2.919-.23-4.25-.742m19.484-8.55h.204c.82 0 1.511-.154 2.1-.461v-.359c0-1.408-.154-2.355-.436-2.841-.281-.487-.793-.743-1.561-.743h-.231q-1.92 0-1.92 2.074v.23c0 .768.128 1.306.436 1.613.307.333.768.487 1.408.487m-4.634 8.55c-.307-.102-.435-.282-.435-.589q0-.153.077-.461l.409-1.638c.103-.41.41-.563.871-.435 1.228.384 2.304.563 3.225.563h.077c.922 0 1.562-.23 1.971-.742q.615-.73.691-2.304c-.844.358-1.766.512-2.764.512h-.282c-1.818 0-3.123-.436-3.942-1.357-.82-.896-1.204-2.279-1.204-4.122v-.358c0-1.639.487-2.944 1.485-3.917.999-.947 2.458-1.434 4.378-1.434h.358c2.304 0 3.943.615 4.864 1.792.922 1.178 1.408 3.124 1.408 5.837v.615c0 1.459-.128 2.713-.384 3.788-.256 1.076-.589 1.946-.998 2.56a4.6 4.6 0 0 1-1.562 1.511c-.614.384-1.229.64-1.843.742-.614.128-1.331.179-2.125.179h-.025c-1.485 0-2.919-.23-4.25-.742m21.967-11.7v.257c0 1.69-.435 2.893-1.255 3.661-.768.614-1.766.921-2.944.921-1.331 0-2.329-.333-3.02-.998-.768-.717-1.152-1.843-1.152-3.328v-.768c0-1.485.384-2.586 1.152-3.328.691-.666 1.689-.999 3.02-.999 1.178 0 2.176.308 2.944.922.82.768 1.255 1.997 1.255 3.66m-4.352 11.521 9.446-15.565c.128-.205.282-.358.435-.435.154-.051.384-.103.717-.103h1.869c.794 0 1.024.308.666.922l-9.447 15.565c-.153.23-.281.384-.435.435-.154.077-.41.102-.717.102h-1.869c-.819 0-1.024-.307-.665-.921m-.563-12.083v1.382c0 .538.051.896.179 1.075.102.18.281.256.512.256h.051a.6.6 0 0 0 .512-.256c.102-.179.179-.537.179-1.075v-1.382c0-.512-.077-.87-.179-1.05a.62.62 0 0 0-.512-.282h-.051a.56.56 0 0 0-.512.282c-.128.18-.179.538-.179 1.05m17.971 8.166v.256c0 1.69-.435 2.893-1.255 3.661-.768.614-1.766.921-2.944.921-1.331 0-2.329-.332-3.02-.998-.768-.717-1.152-1.818-1.152-3.328v-.768c0-1.485.384-2.611 1.152-3.328.691-.666 1.689-.998 3.02-.998 1.178 0 2.176.307 2.944.921.82.768 1.255 1.997 1.255 3.661m-4.915-.563v1.382c0 .538.051.896.179 1.075.102.18.281.256.512.256h.051a.6.6 0 0 0 .512-.256c.102-.179.179-.537.179-1.075v-1.382c0-.512-.077-.871-.179-1.05a.62.62 0 0 0-.512-.281h-.051a.56.56 0 0 0-.512.281c-.128.179-.179.538-.179 1.05"/><path fill="#fff" d="M14.913 88.166h-.221c-1.288 0-2.41-.166-3.367-.516-.405-.128-.589-.368-.515-.736l.239-1.49c.037-.368.257-.497.644-.368 1.067.386 2.06.57 2.944.57h.092c.552 0 .957-.073 1.196-.239.22-.147.35-.423.35-.81v-.183c0-.368-.111-.608-.295-.755-.202-.129-.589-.257-1.16-.368l-1.25-.239c-1.03-.184-1.767-.552-2.172-1.067-.423-.515-.625-1.233-.625-2.171v-.516c0-1.03.276-1.803.828-2.355.662-.662 1.895-.993 3.661-.993h.13c1.232 0 2.28.165 3.127.478.184.074.313.184.368.294.037.13.037.313-.018.534l-.313 1.343c-.074.331-.313.442-.68.313a8.3 8.3 0 0 0-2.43-.386h-.073c-.607 0-1.03.073-1.251.202-.24.147-.35.386-.35.718v.165c0 .295.074.515.24.626.146.129.478.239.956.331l1.398.276c1.104.22 1.859.57 2.282 1.012.405.442.626 1.214.626 2.3v.442c0 1.25-.35 2.152-1.03 2.723-.682.589-1.786.865-3.331.865m10.837-3.46v-5.188c0-.184.037-.313.13-.405.091-.074.257-.129.496-.129h1.693c.22 0 .386.055.478.129.092.092.147.22.147.405v5.446q0 1.683-.828 2.429c-.588.515-1.619.773-3.128.773-1.508 0-2.557-.258-3.128-.773q-.828-.746-.828-2.429v-5.446c0-.184.037-.313.13-.405.091-.074.257-.129.496-.129H23.1c.22 0 .386.055.478.129.092.092.147.22.147.405v5.188c0 .424.056.7.203.847.147.165.405.239.81.239.386 0 .662-.074.809-.24.129-.146.202-.422.202-.846m6.948-4.93c.644-.626 1.564-.958 2.741-.958h.166c1.14 0 1.95.332 2.447.957.442.589.663 1.583.663 3.018v1.38c0 .773-.074 1.417-.184 1.895-.13.478-.35.883-.663 1.196-.626.607-1.472.902-2.576.902h-.202q-1.05 0-1.712-.387v2.834c0 .276-.055.46-.147.533-.11.074-.312.11-.625.11h-1.399c-.312 0-.515-.036-.625-.128-.11-.074-.148-.258-.148-.515v-11.04c0-.221.037-.368.148-.46.092-.074.257-.129.496-.129h.773c.221 0 .387.037.479.074a.7.7 0 0 1 .202.312l.129.405zm.68 2.612v2.355c0 .423.074.718.258.883.166.166.442.24.828.24h.166c.423 0 .717-.11.901-.368q.222-.332.221-1.601v-.791c0-.884-.074-1.436-.22-1.638-.185-.22-.48-.331-.92-.331h-.13c-.404 0-.68.092-.864.276-.166.165-.24.497-.24.975m11.3 3.404h.203c.626 0 1.288-.074 1.95-.24.184-.036.295-.054.35-.054.184 0 .294.11.331.312l.147.92c.037.258.074.424.074.497 0 .221-.166.387-.478.497-.847.294-1.785.442-2.779.442h-.35q-2.262 0-3.201-.939a2.64 2.64 0 0 1-.736-1.251c-.129-.478-.184-1.122-.184-1.914v-1.03c0-1.6.368-2.723 1.104-3.386.625-.552 1.582-.828 2.889-.828h.257c1.288 0 2.227.313 2.779.92.589.663.883 1.748.883 3.294v.957c0 .35-.184.515-.534.515h-4.416v.147c0 .442.11.736.368.902.24.165.681.239 1.343.239m-1.71-3.202h2.023c.148 0 .221-.073.221-.239v-.294c0-.368-.074-.644-.184-.847-.147-.22-.441-.33-.846-.33h-.166c-.368 0-.625.091-.773.257q-.276.33-.276.993zm8.832-2.612h.055c.405-.663 1.086-.994 2.06-.994h.737c.184 0 .331.037.405.11.073.074.128.203.128.405v1.343c0 .203-.036.332-.11.405q-.11.11-.386.11h-.552c-.681 0-1.141.13-1.399.387-.22.22-.313.644-.313 1.27v4.452c0 .184-.055.332-.147.405-.092.092-.257.129-.478.129h-1.693c-.24 0-.405-.037-.497-.129-.092-.073-.129-.22-.129-.405V79.5c0-.184.037-.313.13-.386.091-.074.257-.129.496-.129h.883c.203 0 .35.037.442.092a.75.75 0 0 1 .22.331zm4.234 1.968v-.239c0-.901.24-1.582.718-2.06.552-.553 1.49-.829 2.797-.829h.184c1.03 0 1.932.11 2.686.332q.221.082.276.165c.037.074.055.166.037.313l-.202 1.509c-.037.239-.203.313-.497.239-.736-.166-1.399-.258-1.95-.258h-.019c-.405 0-.7.037-.846.11-.166.074-.24.203-.24.387v.055c0 .184.056.313.203.387.147.073.423.165.846.239l.865.184c.791.184 1.362.46 1.693.828s.497.938.497 1.693v.276c0 1.932-1.215 2.889-3.607 2.889h-.184c-1.214 0-2.226-.166-3.073-.497-.165-.055-.276-.129-.312-.221-.037-.074-.037-.22 0-.423l.257-1.215c.055-.35.258-.46.626-.35.846.295 1.582.424 2.208.424h.055c.405 0 .68-.037.846-.129.148-.073.24-.22.24-.423v-.055a.4.4 0 0 0-.203-.35q-.22-.11-.883-.276l-.81-.184q-1.215-.276-1.71-.828c-.332-.368-.498-.92-.498-1.693m11.576-.625h-2.925c-.184 0-.313-.019-.387-.092-.073-.074-.092-.221-.092-.442v-1.27c0-.22.019-.349.092-.423q.111-.11.387-.11h6.219c.184 0 .313.037.405.11.073.074.129.221.129.424v.35c0 .478-.148.92-.405 1.306l-3.165 4.49h3.146c.184 0 .295.036.368.11.074.073.11.202.11.423v1.27q0 .33-.11.441c-.073.074-.184.092-.368.092h-6.33c-.386 0-.57-.166-.57-.534v-.423c0-.478.13-.901.405-1.306zm12.924-1.785c-.257 1.73-.736 3.643-1.435 5.76a39 39 0 0 1-2.594 5.998c-.129.257-.294.386-.515.386-.147 0-.313-.037-.534-.147l-.938-.405c-.332-.147-.479-.294-.479-.46 0-.074.019-.184.092-.313.626-1.27.994-2.005 1.067-2.208-.515-.184-.901-.589-1.195-1.251-.332-.736-.718-1.858-1.141-3.404q-.635-2.319-.939-3.974c-.037-.184-.018-.313.074-.405.092-.074.257-.129.478-.129h1.675c.202 0 .35.037.441.092s.166.166.203.35c.423 2.318.901 4.379 1.435 6.164h.092c.515-1.472.993-3.496 1.435-6.11q.028-.275.166-.386c.092-.073.239-.11.423-.11h1.693c.202 0 .35.055.423.129.073.073.092.22.073.423m4.02 2.852v2.355c0 .423.073.718.257.883.147.166.423.24.828.24h.166c.423 0 .717-.11.901-.368q.22-.332.221-1.601v-.791c0-.92-.092-1.49-.24-1.675-.165-.184-.477-.294-.92-.294h-.073c-.423 0-.717.092-.901.276-.166.165-.24.497-.24.975m0-3.073h.036q.8-.497 2.098-.497h.165c1.105 0 1.914.332 2.41.994.406.57.626 1.582.626 3.036v1.325c0 1.472-.312 2.502-.938 3.073-.662.625-1.711.92-3.146.92h-.368c-1.51 0-2.54-.295-3.091-.902-.497-.534-.737-1.398-.737-2.613v-8.574c0-.184.037-.313.13-.405.073-.074.239-.129.478-.129h1.71c.222 0 .387.055.48.129.091.092.147.22.147.405zm9.864 5.115v3.036c0 .184-.055.332-.147.405-.092.092-.258.129-.478.129H92.1c-.24 0-.405-.037-.497-.129-.092-.073-.129-.22-.129-.405v-11.39c0-.183.037-.312.13-.404.091-.074.257-.129.496-.129h1.693c.22 0 .386.055.478.129.092.092.147.22.147.405v5.998h.13l1.747-2.668c.166-.276.423-.423.773-.423h2.134c.203 0 .313.074.313.22 0 .074-.055.203-.147.35l-2.116 3.165c-.166.258-.24.442-.24.552 0 .129.074.313.24.552l2.263 3.57c.074.147.11.239.11.313 0 .202-.128.294-.386.294h-2.042c-.258 0-.46-.018-.57-.092q-.166-.083-.332-.386l-1.748-3.092zm9.129-4.912v7.948c0 .184-.055.332-.147.405-.092.092-.257.129-.478.129h-1.693c-.239 0-.405-.037-.497-.129-.092-.073-.129-.22-.129-.405v-7.948c0-.184.037-.313.129-.405.092-.074.258-.129.497-.129h1.693c.221 0 .386.055.478.129.092.092.147.22.147.405m-1.361-1.233h-.221c-.994 0-1.49-.497-1.49-1.527v-.092c0-1.012.496-1.528 1.49-1.528h.221c.993 0 1.49.516 1.49 1.528v.092c0 1.03-.497 1.527-1.49 1.527M13.882 104.43v3.036c0 .184-.055.332-.147.405-.092.092-.257.129-.478.129h-1.693c-.24 0-.405-.037-.497-.129-.092-.073-.129-.221-.129-.405v-11.39c0-.183.037-.312.13-.404.091-.074.257-.129.496-.129h1.693c.22 0 .386.055.478.129.092.092.147.22.147.405v5.998h.13l1.747-2.668c.166-.276.423-.423.773-.423h2.134c.203 0 .313.074.313.22 0 .074-.055.203-.147.35l-2.116 3.165c-.166.258-.24.442-.24.552 0 .129.074.313.24.552l2.263 3.57c.074.147.11.239.11.313 0 .202-.128.294-.386.294h-2.042c-.258 0-.46-.018-.57-.092q-.166-.083-.332-.386l-1.748-3.092zm8.467-4.452h.055c.405-.663 1.086-.994 2.061-.994h.736c.184 0 .331.037.405.11.073.074.129.203.129.405v1.343c0 .203-.037.332-.11.405q-.111.111-.387.111h-.552c-.681 0-1.141.128-1.399.386-.22.221-.312.644-.312 1.27v4.452c0 .184-.056.332-.148.405-.092.092-.257.129-.478.129h-1.693c-.239 0-.405-.037-.497-.129-.092-.073-.128-.221-.128-.405v-7.967c0-.184.036-.313.128-.386s.258-.129.497-.129h.883c.203 0 .35.037.442.092a.75.75 0 0 1 .22.331zm8.781 5.814h.203c.625 0 1.288-.074 1.95-.239.184-.037.294-.055.35-.055.183 0 .294.11.33.312l.148.92c.037.258.074.424.074.497 0 .221-.166.387-.479.497-.846.294-1.785.442-2.778.442h-.35q-2.264 0-3.201-.939a2.64 2.64 0 0 1-.736-1.251c-.13-.478-.184-1.122-.184-1.914v-1.03c0-1.601.367-2.723 1.104-3.386.625-.552 1.582-.828 2.888-.828h.258c1.288 0 2.226.313 2.778.92.59.663.883 1.748.883 3.294v.957c0 .349-.184.515-.533.515h-4.416v.147c0 .442.11.736.368.902.24.165.68.239 1.343.239m-1.711-3.202h2.024c.147 0 .22-.073.22-.239v-.294c0-.368-.073-.644-.183-.847-.148-.22-.442-.331-.847-.331h-.165c-.368 0-.626.092-.773.258q-.276.332-.276.993zm11.555 2.153v-2.337c0-.46-.073-.791-.22-.975-.166-.184-.46-.294-.865-.294h-.184c-.405 0-.68.11-.846.313-.184.202-.258.772-.258 1.729v.81c0 .883.092 1.435.276 1.619.147.184.423.258.846.258h.203c.35 0 .607-.074.79-.24.166-.165.258-.46.258-.883m-.036-5.593h.036v-3.073c0-.184.037-.313.13-.405.091-.074.257-.129.496-.129h1.711c.221 0 .387.055.479.129.073.092.129.22.129.405v8.372c0 1.288-.24 2.171-.718 2.686a2.86 2.86 0 0 1-1.27.791c-.515.166-1.196.24-2.06.24h-.313c-1.362 0-2.337-.276-2.963-.828-.644-.552-.956-1.583-.956-3.11v-1.472c0-1.472.294-2.502.92-3.091.588-.552 1.398-.847 2.447-.847h.22q1.05 0 1.712.332m12.536.386c-.258 1.73-.736 3.643-1.436 5.759a39 39 0 0 1-2.594 5.999c-.129.257-.294.386-.515.386-.147 0-.313-.037-.534-.147l-.938-.405c-.331-.147-.479-.294-.479-.46 0-.074.019-.184.092-.313.626-1.269.994-2.005 1.068-2.208-.516-.184-.902-.589-1.196-1.251-.332-.736-.718-1.858-1.141-3.404q-.634-2.319-.939-3.974c-.036-.184-.018-.313.074-.405.092-.074.258-.129.478-.129h1.675c.202 0 .35.037.441.092s.166.166.203.35c.423 2.318.901 4.379 1.435 6.164h.092c.515-1.472.994-3.496 1.435-6.11q.028-.275.166-.386c.092-.073.239-.11.423-.11h1.693c.202 0 .35.055.423.129.074.073.092.22.074.423m7.283 6.734v1.049c0 .276-.055.46-.129.552-.073.092-.239.129-.46.129h-1.472c-1.325 0-2.208-.221-2.613-.681-.368-.386-.533-1.122-.533-2.226v-3.809h-.994c-.184 0-.294-.018-.368-.092-.073-.074-.092-.184-.092-.368v-.938c0-.221.019-.368.092-.442.055-.074.184-.129.387-.184l.975-.24v-1.802c0-.184.037-.313.129-.405.092-.074.257-.129.496-.129h1.693c.221 0 .387.055.479.129.092.092.147.22.147.405v1.766h1.527c.184 0 .294.037.368.11s.11.203.11.424v1.232q0 .331-.11.442c-.074.074-.184.092-.368.092h-1.527v3.478c0 .331.037.533.147.644.11.128.35.184.718.184h.81c.22 0 .386.055.46.147.073.092.128.276.128.533m9.448.884h-.497c-2.613 0-3.9-1.178-3.9-3.552v-1.232c0-1.215.312-2.098.956-2.687.626-.57 1.6-.865 2.889-.865h.257c.24-1.324 1.215-2.005 2.944-2.005h.902c.184 0 .294.037.368.092.055.073.092.202.092.386v1.012c0 .184-.037.295-.11.35-.074.073-.203.092-.368.092h-.865c-.405 0-.681.092-.847.276 1.38.368 2.08 1.49 2.08 3.349v1.232c0 1.325-.368 2.208-1.086 2.687.478.257.846.589 1.122.993.276.405.424.847.424 1.307v.129c0 1.821-1.454 2.723-4.324 2.723h-.35a9.9 9.9 0 0 1-3.606-.663c-.332-.11-.46-.349-.368-.699l.33-1.177c.093-.35.314-.479.663-.368 1.086.368 2.043.533 2.889.533h.258q1.6 0 1.6-.938v-.055c0-.35-.184-.663-.552-.957-.294.037-.607.037-.901.037m-.313-2.3h.129c.405 0 .68-.074.865-.258.202-.202.312-.626.312-1.251v-.718c0-.625-.11-1.03-.312-1.251-.184-.166-.46-.258-.865-.258h-.129c-.405 0-.7.092-.865.258-.22.221-.313.626-.313 1.251v.718c0 .625.092 1.049.313 1.251.166.184.46.258.865.258m8.528-2.08v1.436c0 .717.11 1.177.33 1.398.166.184.424.258.774.258h.073c.332 0 .59-.074.773-.258.22-.221.331-.681.331-1.398v-1.436c0-.699-.11-1.177-.33-1.398-.185-.166-.442-.258-.774-.258h-.073c-.35 0-.608.092-.773.258-.22.221-.331.699-.331 1.398m5.244.111v1.196c0 .92-.092 1.619-.276 2.134s-.479.92-.884 1.233c-.607.478-1.545.718-2.833.718h-.22c-1.289 0-2.246-.24-2.834-.718a2.64 2.64 0 0 1-.884-1.233c-.184-.515-.276-1.214-.276-2.134v-1.178c0-.901.092-1.601.276-2.116s.479-.92.883-1.251c.59-.478 1.546-.718 2.834-.718h.22c1.289 0 2.227.24 2.834.718.405.331.7.736.884 1.233.184.515.276 1.214.276 2.116m7.334 3.385v1.049c0 .276-.055.46-.128.552s-.24.129-.46.129h-1.472c-1.325 0-2.208-.221-2.613-.681-.368-.386-.534-1.122-.534-2.226v-3.809h-.993c-.184 0-.295-.018-.368-.092s-.092-.184-.092-.368v-.938c0-.221.018-.368.092-.442.055-.074.184-.129.386-.184l.975-.24v-1.802c0-.184.037-.313.129-.405.092-.074.258-.129.497-.129h1.693c.22 0 .386.055.478.129.092.092.147.22.147.405v1.766h1.527c.184 0 .295.037.368.11s.11.203.11.424v1.232q0 .331-.11.442c-.073.074-.184.092-.368.092h-1.527v3.478c0 .331.037.533.147.644.11.128.35.184.718.184h.81c.22 0 .386.055.46.147.073.092.128.276.128.533m4.06-3.496v1.436c0 .717.111 1.177.332 1.398.165.184.423.258.773.258h.073c.331 0 .59-.074.773-.258.22-.221.331-.681.331-1.398v-1.436c0-.699-.11-1.177-.33-1.398-.185-.166-.443-.258-.774-.258h-.073c-.35 0-.608.092-.773.258-.22.221-.331.699-.331 1.398m5.245.111v1.196c0 .92-.092 1.619-.276 2.134s-.479.92-.883 1.233c-.608.478-1.546.718-2.834.718h-.22c-1.289 0-2.246-.24-2.835-.718a2.64 2.64 0 0 1-.883-1.233c-.184-.515-.276-1.214-.276-2.134v-1.178c0-.901.092-1.601.276-2.116s.479-.92.883-1.251c.59-.478 1.546-.718 2.834-.718h.22c1.289 0 2.227.24 2.835.718.404.331.699.736.883 1.233.184.515.276 1.214.276 2.116m-5.612-6.33 2.888-2.465c.11-.11.24-.166.35-.166.129 0 .258.092.368.24l.883 1.14a.54.54 0 0 1 .11.313c0 .147-.11.294-.294.441l-2.907 1.988a.64.64 0 0 1-.368.128c-.147 0-.294-.073-.442-.257l-.551-.644c-.148-.166-.203-.313-.203-.423s.055-.221.166-.295m11.898 2.87h1.582c.258 0 .442.037.534.111s.165.22.202.442c0 .073.331 1.711.975 4.894h.055c.332-1.932.626-3.717.865-5.373.019-.202.074-.331.147-.405q.111-.11.387-.11h1.877c.202 0 .331.055.404.129.056.092.074.239.037.423a180 180 0 0 1-1.067 4.747c-.405 1.73-.699 2.815-.883 3.275-.074.184-.166.313-.258.368-.092.056-.239.074-.423.074h-2.024c-.386 0-.626-.129-.699-.423-.35-1.251-.644-2.834-.902-4.747h-.073a51 51 0 0 1-.92 4.747c-.074.294-.295.423-.663.423h-1.987c-.368 0-.607-.129-.699-.405-.184-.497-.497-1.637-.939-3.404a86 86 0 0 1-1.03-4.655c-.055-.202-.037-.35.037-.423.073-.074.221-.129.441-.129h1.804c.184 0 .331.037.423.11.073.074.129.221.165.405.258 1.711.552 3.496.902 5.373h.074c.441-2.282.754-3.919.901-4.894.037-.24.092-.387.184-.46.092-.056.276-.092.571-.092m11.099 5.005v3.036c0 .184-.055.332-.147.405-.092.092-.258.129-.479.129h-1.693c-.239 0-.404-.037-.496-.129-.092-.073-.129-.221-.129-.405v-11.39c0-.183.037-.312.129-.404.092-.074.257-.129.496-.129h1.693c.221 0 .387.055.479.129.092.092.147.22.147.405v5.998h.129l1.748-2.668c.165-.276.423-.423.772-.423h2.135c.202 0 .313.074.313.22 0 .074-.056.203-.148.35l-2.116 3.165c-.165.258-.239.442-.239.552 0 .129.074.313.239.552l2.264 3.57c.073.147.11.239.11.313 0 .202-.129.294-.386.294h-2.043c-.257 0-.46-.018-.57-.092q-.166-.083-.331-.386l-1.748-3.092zm8.672-1.656v1.436c0 .717.111 1.177.332 1.398.165.184.423.258.772.258h.074c.331 0 .589-.074.773-.258.221-.221.331-.681.331-1.398v-1.436c0-.699-.11-1.177-.331-1.398-.184-.166-.442-.258-.773-.258h-.074c-.349 0-.607.092-.772.258-.221.221-.332.699-.332 1.398m5.244.111v1.196c0 .92-.092 1.619-.276 2.134s-.478.92-.883 1.233c-.607.478-1.545.718-2.833.718h-.221c-1.288 0-2.245-.24-2.834-.718a2.63 2.63 0 0 1-.883-1.233c-.184-.515-.276-1.214-.276-2.134v-1.178c0-.901.092-1.601.276-2.116s.478-.92.883-1.251c.589-.478 1.546-.718 2.834-.718h.221c1.288 0 2.226.24 2.833.718.405.331.699.736.883 1.233.184.515.276 1.214.276 2.116m6.286-3.46h1.583c.257 0 .441.037.533.111s.166.22.203.442c0 .073.331 1.711.975 4.894h.055c.331-1.932.626-3.717.865-5.373.018-.202.073-.331.147-.405q.11-.11.386-.11h1.877c.203 0 .331.055.405.129.055.092.074.239.037.423a188 188 0 0 1-1.067 4.747c-.405 1.73-.7 2.815-.884 3.275-.073.184-.165.313-.257.368-.092.056-.239.074-.423.074h-2.024c-.387 0-.626-.129-.7-.423-.349-1.251-.644-2.834-.901-4.747h-.074a50 50 0 0 1-.92 4.747c-.073.294-.294.423-.662.423h-1.987c-.368 0-.608-.129-.7-.405-.184-.497-.496-1.637-.938-3.404a85 85 0 0 1-1.03-4.655c-.056-.202-.037-.35.036-.423.074-.074.221-.129.442-.129h1.803c.184 0 .331.037.423.11.074.074.129.221.166.405.258 1.711.552 3.496.902 5.373h.073c.442-2.282.755-3.919.902-4.894.037-.24.092-.387.184-.46.092-.056.276-.092.57-.092m16.209.111c-.258 1.73-.736 3.643-1.436 5.759a39 39 0 0 1-2.594 5.999c-.129.257-.294.386-.515.386-.147 0-.313-.037-.534-.147l-.938-.405c-.331-.147-.479-.294-.479-.46 0-.074.019-.184.092-.313.626-1.269.994-2.005 1.068-2.208-.516-.184-.902-.589-1.196-1.251-.332-.736-.718-1.858-1.141-3.404q-.635-2.319-.939-3.974c-.036-.184-.018-.313.074-.405.092-.074.258-.129.478-.129h1.675c.202 0 .349.037.441.092s.166.166.203.35c.423 2.318.901 4.379 1.435 6.164h.092c.515-1.472.994-3.496 1.435-6.11q.028-.275.166-.386c.092-.073.239-.11.423-.11h1.693c.202 0 .349.055.423.129.074.073.092.22.074.423M15.98 129.743v-2.337c0-.46-.074-.791-.22-.975-.166-.184-.46-.294-.866-.294h-.184c-.404 0-.68.11-.846.313-.184.202-.258.772-.258 1.729v.81c0 .883.092 1.435.276 1.619.148.184.424.258.847.258h.202c.35 0 .607-.074.791-.24.166-.165.258-.46.258-.883m-.037-5.593h.037v-3.073c0-.184.037-.313.129-.405.092-.074.257-.129.497-.129h1.71c.222 0 .387.055.48.129a.63.63 0 0 1 .128.405v8.372c0 1.288-.24 2.171-.718 2.686a2.86 2.86 0 0 1-1.27.791c-.514.166-1.195.24-2.06.24h-.313c-1.361 0-2.337-.276-2.962-.828-.644-.552-.957-1.583-.957-3.11v-1.472c0-1.472.294-2.502.92-3.091.589-.552 1.398-.847 2.447-.847h.221q1.05 0 1.711.332m7.403 3.624v1.436c0 .717.11 1.177.33 1.398.166.184.424.258.774.258h.073c.331 0 .589-.074.773-.258.22-.221.331-.681.331-1.398v-1.436c0-.699-.11-1.177-.331-1.398-.184-.166-.442-.258-.773-.258h-.073c-.35 0-.608.092-.773.258-.221.221-.331.699-.331 1.398m5.244.111v1.196c0 .92-.093 1.619-.276 2.134s-.479.92-.884 1.233c-.607.478-1.545.718-2.833.718h-.221c-1.288 0-2.245-.24-2.834-.718a2.64 2.64 0 0 1-.883-1.233c-.184-.515-.276-1.214-.276-2.134v-1.178c0-.901.092-1.601.276-2.116s.479-.92.883-1.251c.59-.478 1.546-.718 2.834-.718h.22c1.289 0 2.227.24 2.834.718.405.331.7.736.884 1.233.183.515.276 1.214.276 2.116m10.83-6.511h-.09c-.94 0-1.97.202-3.09.583-.381.134-.605.022-.695-.336l-.403-1.613c-.112-.403 0-.694.358-.829 1.39-.582 2.912-.873 4.592-.873h.068c1.478 0 2.62.336 3.427.985.806.65 1.21 1.635 1.21 2.935v.268c0 1.165-.247 2.061-.717 2.733-.493.672-1.255 1.277-2.285 1.77l-1.165.56c-1.075.537-1.747.941-2.06 1.209-.314.269-.471.65-.471 1.098v.246h5.869c.313 0 .537.068.627.157.09.09.134.291.134.583v1.478c0 .269-.067.448-.157.538q-.168.134-.604.134H35.32q-.47 0-.605-.134c-.112-.09-.156-.269-.156-.538v-1.434c0-1.433.246-2.576.784-3.382.515-.806 1.41-1.478 2.688-2.061l.963-.425c.784-.336 1.321-.65 1.59-.964.269-.291.426-.694.426-1.209v-.179c0-.852-.538-1.3-1.59-1.3m19.042 3.405v1.949c0 2.106-.448 3.718-1.321 4.816-.896 1.12-2.375 1.658-4.436 1.658s-3.539-.538-4.435-1.658c-.896-1.098-1.321-2.71-1.321-4.816v-1.949c0-2.105.425-3.696 1.321-4.816.896-1.097 2.375-1.657 4.435-1.657 2.061 0 3.54.56 4.436 1.657.873 1.12 1.321 2.711 1.321 4.816m-3.83 1.568v-1.187c0-1.456-.135-2.464-.359-3.002s-.739-.828-1.523-.828h-.09c-.806.022-1.321.291-1.545.828-.224.538-.336 1.546-.336 3.002v1.187c0 1.479.112 2.464.336 3.002s.74.829 1.546.829h.09c.783 0 1.298-.269 1.522-.807.224-.537.359-1.545.359-3.024m16.824-1.568v1.949c0 2.106-.448 3.718-1.322 4.816-.896 1.12-2.374 1.658-4.435 1.658s-3.54-.538-4.435-1.658c-.896-1.098-1.322-2.71-1.322-4.816v-1.949c0-2.105.426-3.696 1.322-4.816.896-1.097 2.374-1.657 4.435-1.657s3.54.56 4.435 1.657c.874 1.12 1.322 2.711 1.322 4.816m-3.83 1.568v-1.187c0-1.456-.135-2.464-.359-3.002s-.74-.828-1.523-.828h-.09c-.806.022-1.321.291-1.545.828-.224.538-.336 1.546-.336 3.002v1.187c0 1.479.112 2.464.336 3.002s.739.829 1.545.829h.09c.784 0 1.3-.269 1.523-.807.224-.537.359-1.545.359-3.024m17.58 4.547v1.277c0 .336-.067.56-.156.672-.09.112-.291.157-.56.157h-1.792c-1.613 0-2.688-.269-3.18-.829-.449-.47-.65-1.366-.65-2.71v-4.637h-1.21c-.224 0-.359-.022-.448-.112s-.112-.224-.112-.448v-1.142c0-.269.022-.448.112-.538.067-.09.224-.157.47-.224l1.188-.291v-2.195c0-.224.044-.381.156-.493.112-.09.314-.157.605-.157h2.06c.27 0 .471.067.583.157.112.112.18.269.18.493v2.15h1.859c.224 0 .358.045.448.134s.134.247.134.516v1.5q0 .403-.134.538c-.09.09-.224.112-.448.112h-1.86v4.234c0 .403.045.649.18.784.134.156.425.224.873.224h.986c.269 0 .47.067.56.179s.157.336.157.649m11.193-8.198c-.313 2.106-.896 4.435-1.747 7.011a47.6 47.6 0 0 1-3.158 7.303c-.157.313-.359.47-.627.47-.18 0-.381-.045-.65-.179l-1.142-.493c-.404-.179-.583-.358-.583-.56 0-.09.023-.224.112-.381.762-1.545 1.21-2.441 1.3-2.688-.628-.224-1.098-.717-1.457-1.523-.403-.896-.873-2.262-1.388-4.144q-.773-2.823-1.143-4.838c-.045-.224-.022-.381.09-.493.112-.09.313-.157.582-.157h2.039c.246 0 .425.045.537.112s.202.202.247.426c.515 2.822 1.097 5.331 1.747 7.504h.112c.627-1.792 1.21-4.256 1.747-7.437q.034-.336.202-.471c.112-.089.29-.134.515-.134h2.06c.247 0 .426.067.516.157.09.089.112.269.09.515m1.018 2.934v-.291c0-1.097.291-1.926.873-2.509.672-.672 1.815-1.008 3.405-1.008h.224c1.255 0 2.352.135 3.271.404q.268.1.336.201c.044.09.067.202.044.381l-.246 1.837c-.045.291-.246.381-.605.291-.896-.202-1.702-.314-2.374-.314h-.023c-.492 0-.851.045-1.03.135-.202.089-.291.246-.291.47v.067c0 .224.067.381.246.471s.515.201 1.031.291l1.052.224c.964.224 1.658.56 2.061 1.008s.605 1.142.605 2.061v.336c0 2.352-1.478 3.517-4.39 3.517h-.224c-1.479 0-2.71-.202-3.741-.605-.202-.067-.336-.157-.381-.269-.045-.09-.045-.269 0-.515l.314-1.479c.067-.425.313-.56.761-.425 1.03.358 1.927.515 2.688.515h.067c.493 0 .829-.045 1.031-.157.179-.089.291-.269.291-.515v-.067a.48.48 0 0 0-.246-.426q-.27-.133-1.076-.336l-.985-.224q-1.479-.336-2.083-1.008c-.404-.448-.605-1.12-.605-2.061m13.935 5.488v.224c0 1.255-.604 1.86-1.792 1.86h-.246c-1.21 0-1.792-.605-1.792-1.86v-.224c0-.649.134-1.12.448-1.388.291-.269.739-.426 1.344-.426h.246c.583 0 1.031.157 1.344.426.292.268.448.739.448 1.388m10.46-6.249h-3.561c-.224 0-.381-.023-.471-.112-.089-.09-.112-.269-.112-.538v-1.545c0-.269.023-.426.112-.516q.135-.134.471-.134h7.571c.224 0 .381.045.493.134.089.09.157.269.157.516v.425c0 .583-.18 1.12-.493 1.591l-3.853 5.465h3.83c.224 0 .359.045.448.135.09.089.135.246.135.515v1.545q0 .403-.135.538c-.089.09-.224.112-.448.112h-7.705c-.471 0-.695-.202-.695-.65v-.515c0-.582.157-1.097.493-1.59zm10.896 5.219h.717c.224 0 .403.067.492.157.09.112.157.313.157.605v1.388c0 .314-.067.516-.157.605-.089.112-.268.157-.492.157h-1.703c-1.12 0-1.904-.202-2.352-.65-.448-.425-.672-1.187-.672-2.262v-2.419l-.739.47c-.291.179-.493.269-.582.269-.18 0-.247-.134-.247-.403v-2.083c0-.224.023-.381.112-.493.067-.09.202-.224.426-.381l1.03-.65v-5.913c0-.224.045-.381.157-.493.112-.09.314-.157.605-.157h2.061c.268 0 .47.067.582.157.112.112.179.269.179.493v3.629l1.008-.65c.269-.179.471-.269.583-.269.156 0 .246.135.246.403v2.084c0 .224-.045.403-.112.492-.09.112-.224.247-.426.381l-1.299.829v4.278c0 .18.023.292.09.336.045.068.157.09.336.09"/></svg>