<svg xmlns="http://www.w3.org/2000/svg" fill="none" viewBox="0 0 343 28"><path fill="#fff" d="M7.402 16.612v-.654c0-1.43-.177-2.314-.495-2.65q-.422-.423-1.166-.424h-.247q-.741 0-1.166.424c-.335.336-.494 1.22-.494 2.65v.654c0 1.449.159 2.332.494 2.65q.425.424 1.166.424h.247q.743 0 1.166-.424c.318-.318.495-1.201.495-2.65m3.021-1.007v1.36c0 2.138-.495 3.586-1.484 4.364-.707.565-1.802.83-3.25.83h-.142c-1.466 0-2.544-.265-3.25-.83-.99-.778-1.484-2.226-1.484-4.364v-1.36c0-2.12.494-3.586 1.484-4.364.706-.547 1.784-.83 3.25-.83h.142c1.448 0 2.543.283 3.25.83.99.778 1.484 2.244 1.484 4.364m7.377 4.734v1.007c0 .265-.053.442-.124.53-.07.089-.23.124-.442.124h-1.413c-1.272 0-2.12-.212-2.509-.654-.353-.37-.512-1.077-.512-2.137v-3.657h-.954c-.177 0-.283-.018-.353-.088-.07-.071-.088-.177-.088-.354v-.9c0-.213.017-.354.088-.425.053-.07.176-.123.37-.176l.937-.23v-1.731c0-.177.035-.3.124-.389.088-.07.247-.124.477-.124h1.625c.212 0 .371.053.46.124a.52.52 0 0 1 .14.389v1.696h1.467c.177 0 .283.035.353.106s.106.194.106.406v1.184q0 .318-.106.424c-.07.07-.176.088-.353.088h-1.466v3.339c0 .318.035.512.141.618.106.124.336.177.689.177h.777c.212 0 .371.053.442.141.07.088.124.265.124.512m5.859-6.571h1.52c.247 0 .423.035.512.106.088.07.159.212.194.424 0 .07.318 1.643.936 4.699h.053c.318-1.855.6-3.569.83-5.159.018-.194.071-.318.142-.388q.105-.106.37-.106h1.803c.194 0 .318.053.388.123.053.089.071.23.036.407a175 175 0 0 1-1.025 4.557c-.389 1.661-.671 2.703-.848 3.145-.07.177-.159.3-.247.353s-.23.071-.407.071h-1.943c-.37 0-.6-.124-.671-.406-.336-1.202-.618-2.72-.866-4.558h-.07c-.23 1.59-.53 3.11-.884 4.558-.07.282-.282.406-.636.406h-1.908c-.353 0-.583-.124-.67-.389-.178-.477-.478-1.572-.902-3.268a82 82 0 0 1-.99-4.47c-.052-.194-.035-.335.036-.406.07-.07.212-.123.424-.123h1.731c.177 0 .318.035.407.106.07.07.123.212.159.388.247 1.643.53 3.357.865 5.159h.071c.424-2.19.724-3.763.866-4.7.035-.23.088-.37.176-.441.089-.053.265-.088.548-.088m10.392 3.215v1.378c0 .689.105 1.13.317 1.342.16.177.407.248.742.248h.071c.318 0 .566-.07.742-.248.212-.212.318-.653.318-1.342v-1.378c0-.672-.106-1.13-.318-1.343-.177-.159-.424-.247-.742-.247h-.07c-.336 0-.583.088-.742.247-.212.212-.319.671-.319 1.343m5.034.106v1.148c0 .883-.088 1.555-.265 2.05-.176.494-.459.883-.848 1.183-.583.46-1.484.689-2.72.689h-.212c-1.237 0-2.155-.23-2.72-.689a2.53 2.53 0 0 1-.849-1.184c-.176-.494-.265-1.166-.265-2.049v-1.13c0-.866.089-1.537.265-2.032s.46-.883.848-1.201c.566-.46 1.484-.69 2.72-.69h.213c1.236 0 2.137.23 2.72.69.389.318.672.706.848 1.183.177.495.265 1.166.265 2.032m-5.388-6.077 2.774-2.368a.5.5 0 0 1 .335-.159c.124 0 .248.089.354.23l.848 1.095c.07.106.106.195.106.3 0 .142-.106.283-.283.425l-2.791 1.908a.6.6 0 0 1-.353.123c-.142 0-.283-.07-.424-.247l-.53-.618c-.142-.16-.195-.3-.195-.407a.34.34 0 0 1 .16-.282m9.127 3.286h.053c.389-.636 1.042-.954 1.979-.954h.706c.177 0 .318.035.389.106.07.07.123.194.123.388v1.29c0 .194-.035.318-.105.389q-.107.105-.372.106h-.53c-.653 0-1.095.123-1.342.37-.212.213-.3.619-.3 1.22v4.275c0 .176-.053.318-.142.388-.088.089-.247.124-.459.124h-1.625c-.23 0-.389-.035-.477-.124-.089-.07-.124-.212-.124-.388v-7.65c0-.176.035-.3.124-.37.088-.071.247-.124.477-.124h.848c.194 0 .335.035.424.088q.132.106.212.318zm7.175 1.29H47.19c-.177 0-.3-.018-.371-.09-.07-.07-.088-.211-.088-.423v-1.22c0-.211.017-.335.088-.405q.105-.106.371-.106h5.971c.177 0 .3.035.389.106.07.07.123.212.123.406v.336c0 .459-.14.883-.388 1.254l-3.039 4.31h3.021c.177 0 .283.036.353.106s.106.195.106.407v1.219q0 .318-.106.424c-.07.07-.176.088-.353.088H47.19c-.371 0-.548-.159-.548-.512v-.407c0-.459.124-.865.389-1.254zm11.575 2.985v2.915c0 .176-.053.318-.142.388-.088.089-.247.124-.459.124h-1.625c-.23 0-.389-.035-.477-.124-.089-.07-.124-.212-.124-.388V10.552c0-.176.035-.3.124-.388.088-.071.247-.124.477-.124h1.625c.212 0 .371.053.46.124a.52.52 0 0 1 .14.388v5.76h.124l1.679-2.562c.159-.265.406-.406.742-.406h2.049c.194 0 .3.07.3.212 0 .07-.053.194-.141.335l-2.032 3.039c-.159.247-.23.424-.23.53 0 .123.071.3.23.53l2.173 3.427c.071.141.106.23.106.3 0 .195-.123.283-.37.283H64.24c-.247 0-.441-.018-.547-.088q-.159-.08-.318-.371l-1.678-2.968zm8.326-1.59v1.378c0 .689.106 1.13.318 1.342.16.177.407.248.742.248h.071c.318 0 .565-.07.742-.248.212-.212.318-.653.318-1.342v-1.378c0-.672-.106-1.13-.318-1.343-.177-.159-.424-.247-.742-.247h-.07c-.336 0-.584.088-.743.247-.212.212-.318.671-.318 1.343m5.035.106v1.148c0 .883-.088 1.555-.265 2.05s-.46.883-.848 1.183c-.583.46-1.484.689-2.72.689h-.212c-1.237 0-2.156-.23-2.72-.689a2.53 2.53 0 0 1-.849-1.184c-.177-.494-.265-1.166-.265-2.049v-1.13c0-.866.088-1.537.265-2.032a2.67 2.67 0 0 1 .848-1.201c.565-.46 1.484-.69 2.72-.69h.213c1.236 0 2.137.23 2.72.69.389.318.671.706.848 1.183.177.495.265 1.166.265 2.032m6.177-3.904h.141c1.025 0 1.784.247 2.244.724.424.46.653 1.236.653 2.332v5.247c0 .176-.053.318-.141.388-.088.089-.247.124-.46.124h-1.625c-.23 0-.388-.035-.477-.124-.088-.07-.123-.212-.123-.388v-5c0-.389-.071-.671-.195-.812-.141-.142-.406-.23-.777-.23h-.106c-.389 0-.636.088-.777.23-.142.14-.195.423-.195.812v5c0 .176-.053.318-.14.388-.09.089-.248.124-.46.124h-1.626c-.23 0-.388-.035-.477-.124-.088-.07-.123-.212-.123-.388v-7.65c0-.176.035-.3.124-.37.088-.071.247-.124.477-.124h.83c.212 0 .353.035.441.088q.133.08.213.318l.105.336h.053c.566-.601 1.36-.901 2.42-.901m10.25 7.154v1.007c0 .265-.052.442-.123.53-.07.089-.23.124-.442.124h-1.413c-1.272 0-2.12-.212-2.509-.654-.353-.37-.512-1.077-.512-2.137v-3.657h-.954c-.177 0-.283-.018-.353-.088-.071-.071-.089-.177-.089-.354v-.9c0-.213.018-.354.089-.425.053-.07.176-.123.37-.176l.937-.23v-1.731c0-.177.035-.3.124-.389.088-.07.247-.124.477-.124h1.625c.212 0 .37.053.46.124a.52.52 0 0 1 .14.389v1.696h1.467c.176 0 .282.035.353.106.07.07.106.194.106.406v1.184q0 .318-.106.424c-.07.07-.177.088-.353.088h-1.467v3.339c0 .318.036.512.142.618.106.124.335.177.689.177h.777c.212 0 .371.053.442.141.07.088.123.265.123.512m3.899-3.356v1.378c0 .689.106 1.13.318 1.342.159.177.406.248.742.248h.07c.319 0 .566-.07.742-.248.213-.212.319-.653.319-1.342v-1.378c0-.672-.106-1.13-.319-1.343-.176-.159-.423-.247-.742-.247h-.07c-.336 0-.583.088-.742.247-.212.212-.318.671-.318 1.343m5.035.106v1.148c0 .883-.089 1.555-.265 2.05a2.53 2.53 0 0 1-.848 1.183c-.583.46-1.484.689-2.72.689h-.213c-1.236 0-2.155-.23-2.72-.689a2.53 2.53 0 0 1-.848-1.184c-.177-.494-.265-1.166-.265-2.049v-1.13c0-.866.088-1.537.265-2.032.176-.495.459-.883.848-1.201.565-.46 1.484-.69 2.72-.69h.212c1.237 0 2.138.23 2.72.69.39.318.672.706.849 1.183.176.495.265 1.166.265 2.032m8.169-.477v2.261c0 .406.071.69.247.848.142.16.407.23.795.23h.159c.407 0 .689-.106.866-.354q.212-.318.212-1.537v-.76c0-.883-.088-1.43-.23-1.607-.159-.176-.459-.282-.883-.282h-.071c-.406 0-.689.088-.865.264-.159.16-.23.477-.23.937m0-2.95h.035q.77-.477 2.014-.477h.159c1.06 0 1.838.318 2.314.954.389.547.601 1.519.601 2.915v1.271c0 1.414-.3 2.403-.901 2.95-.636.601-1.643.884-3.021.884h-.353c-1.449 0-2.438-.283-2.968-.866-.477-.512-.707-1.342-.707-2.508v-8.233c0-.176.036-.3.124-.388.071-.071.23-.124.459-.124h1.643c.212 0 .371.053.46.124a.52.52 0 0 1 .141.388zm11.75 7.614h-.035c-.389.6-1.166.883-2.314.883h-.265c-.901 0-1.608-.23-2.103-.689-.512-.46-.759-1.148-.759-2.032v-.194c0-.954.265-1.643.812-2.032.548-.388 1.431-.582 2.668-.582h.124c.459 0 .883.035 1.236.07v-.37c0-.372-.106-.637-.3-.778-.212-.124-.565-.194-1.06-.194-.601 0-1.272.105-2.049.3-.212.053-.371.053-.442 0-.088-.053-.141-.16-.159-.336l-.141-.936c-.036-.16-.036-.283-.036-.353 0-.212.142-.371.424-.46a11.4 11.4 0 0 1 3.021-.388c1.361 0 2.332.3 2.898.865.441.46.671 1.201.671 2.209v5.246c0 .177-.053.318-.141.389-.089.07-.248.106-.46.106h-.83c-.212 0-.353-.018-.442-.07-.088-.054-.159-.16-.212-.336zm-.636-2.262v-.494a5 5 0 0 0-.848-.053h-.194q-.636 0-.901.159c-.177.106-.247.318-.247.636v.07c0 .318.07.53.247.636.159.124.406.177.742.177h.124c.353 0 .618-.088.83-.265.159-.141.247-.442.247-.866m9.166-5.83h.141c1.025 0 1.784.248 2.244.725.424.46.653 1.236.653 2.332v5.247c0 .176-.053.318-.141.388-.088.089-.247.124-.459.124h-1.626c-.229 0-.388-.035-.477-.124-.088-.07-.123-.212-.123-.388v-5c0-.389-.071-.671-.195-.812-.141-.142-.406-.23-.777-.23h-.106c-.389 0-.636.088-.777.23-.142.14-.195.423-.195.812v5c0 .176-.053.318-.141.388-.088.089-.247.124-.459.124h-1.626c-.229 0-.388-.035-.476-.124-.089-.07-.124-.212-.124-.388v-7.65c0-.176.035-.3.124-.37.088-.071.247-.124.476-.124h.831c.212 0 .353.035.441.088q.133.08.212.318l.106.336h.053c.566-.601 1.361-.901 2.421-.901m7.548 5.389v2.915c0 .176-.053.318-.142.388-.088.089-.247.124-.459.124h-1.625c-.23 0-.389-.035-.477-.124-.089-.07-.124-.212-.124-.388V10.552c0-.176.035-.3.124-.388.088-.071.247-.124.477-.124h1.625c.212 0 .371.053.459.124a.52.52 0 0 1 .142.388v5.76h.123l1.679-2.562c.159-.265.406-.406.741-.406h2.05c.194 0 .3.07.3.212 0 .07-.053.194-.141.335l-2.032 3.039c-.159.247-.23.424-.23.53 0 .123.071.3.23.53l2.173 3.427c.071.141.106.23.106.3 0 .195-.124.283-.371.283h-1.961c-.247 0-.441-.018-.547-.088q-.159-.08-.318-.371l-1.679-2.968zm8.326-1.59v1.378c0 .689.106 1.13.318 1.342.159.177.406.248.742.248h.071c.318 0 .565-.07.742-.248.212-.212.318-.653.318-1.342v-1.378c0-.672-.106-1.13-.318-1.343-.177-.159-.424-.247-.742-.247h-.071c-.336 0-.583.088-.742.247-.212.212-.318.671-.318 1.343m5.035.106v1.148c0 .883-.088 1.555-.265 2.05a2.53 2.53 0 0 1-.848 1.183c-.583.46-1.484.689-2.721.689h-.212c-1.236 0-2.155-.23-2.72-.689a2.53 2.53 0 0 1-.848-1.184c-.177-.494-.265-1.166-.265-2.049v-1.13c0-.866.088-1.537.265-2.032s.459-.883.848-1.201c.565-.46 1.484-.69 2.72-.69h.212c1.237 0 2.138.23 2.721.69.389.318.671.706.848 1.183.177.495.265 1.166.265 2.032m6.035-3.321h1.519c.248 0 .424.035.513.106.088.07.159.212.194.424 0 .07.318 1.643.936 4.699h.053c.318-1.855.601-3.569.831-5.159.017-.194.07-.318.141-.388q.106-.106.371-.106h1.802c.194 0 .318.053.389.123.053.089.07.23.035.407a175 175 0 0 1-1.025 4.557c-.388 1.661-.671 2.703-.848 3.145-.07.177-.159.3-.247.353s-.23.071-.406.071h-1.944c-.371 0-.6-.124-.671-.406-.336-1.202-.618-2.72-.866-4.558h-.07c-.23 1.59-.53 3.11-.884 4.558-.07.282-.282.406-.635.406h-1.908c-.354 0-.583-.124-.672-.389-.176-.477-.477-1.572-.901-3.268a82 82 0 0 1-.989-4.47c-.053-.194-.035-.335.035-.406.071-.07.212-.123.424-.123h1.732c.176 0 .318.035.406.106.071.07.124.212.159.388.247 1.643.53 3.357.866 5.159h.07c.424-2.19.725-3.763.866-4.7.035-.23.088-.37.177-.441.088-.053.265-.088.547-.088m12.035 6.112h.194c.601 0 1.237-.07 1.873-.23a2 2 0 0 1 .335-.053c.177 0 .283.106.318.3l.142.884c.035.247.07.406.07.477 0 .212-.159.371-.459.477-.813.283-1.714.424-2.668.424h-.335q-2.174 0-3.074-.901a2.53 2.53 0 0 1-.707-1.201c-.124-.46-.177-1.078-.177-1.838v-.989c0-1.537.354-2.614 1.06-3.25.601-.53 1.52-.795 2.774-.795h.247c1.237 0 2.138.3 2.668.883.565.636.848 1.678.848 3.162v.919c0 .335-.177.494-.512.494h-4.24v.142c0 .424.106.706.353.865.23.16.654.23 1.29.23m-1.643-3.074h1.943c.141 0 .212-.07.212-.23v-.282c0-.354-.071-.619-.177-.813-.141-.212-.424-.318-.812-.318h-.159c-.354 0-.601.088-.742.248q-.265.318-.265.954zm12.963-1.219h-2.808c-.177 0-.301-.018-.371-.088s-.089-.212-.089-.424v-1.22c0-.211.018-.335.089-.405q.105-.106.371-.106h5.971c.176 0 .3.035.388.106.071.07.124.212.124.406v.336c0 .459-.141.883-.389 1.254l-3.038 4.31h3.021c.176 0 .282.036.353.106s.106.195.106.407v1.219q0 .318-.106.424c-.071.07-.177.088-.353.088h-6.077c-.371 0-.548-.159-.548-.512v-.407c0-.459.124-.865.389-1.254zm10.024 5.689h-.035c-.389.6-1.166.883-2.314.883h-.265c-.901 0-1.608-.23-2.103-.689-.512-.46-.759-1.148-.759-2.032v-.194c0-.954.265-1.643.812-2.032.548-.388 1.431-.582 2.668-.582h.124c.459 0 .883.035 1.236.07v-.37c0-.372-.106-.637-.3-.778-.212-.124-.565-.194-1.06-.194-.601 0-1.272.105-2.049.3-.212.053-.371.053-.442 0-.088-.053-.141-.16-.159-.336l-.141-.936c-.036-.16-.036-.283-.036-.353 0-.212.142-.371.424-.46a11.4 11.4 0 0 1 3.021-.388c1.361 0 2.332.3 2.898.865.441.46.671 1.201.671 2.209v5.246c0 .177-.053.318-.141.389-.089.07-.248.106-.46.106h-.83c-.212 0-.353-.018-.442-.07-.088-.054-.159-.16-.212-.336zm-.636-2.262v-.494a5 5 0 0 0-.848-.053h-.194q-.636 0-.901.159c-.177.106-.247.318-.247.636v.07c0 .318.07.53.247.636.159.124.406.177.742.177h.124c.353 0 .618-.088.83-.265.159-.141.247-.442.247-.866m20.159-5.553v2.024c0 2.187-.466 3.862-1.373 5.003-.931 1.163-2.467 1.721-4.607 1.721s-3.677-.558-4.607-1.721c-.931-1.14-1.373-2.816-1.373-5.003v-2.024c0-2.187.442-3.84 1.373-5.003.93-1.14 2.466-1.722 4.607-1.722s3.676.582 4.607 1.722c.907 1.163 1.373 2.816 1.373 5.003m-3.979 1.628v-1.233c0-1.512-.14-2.56-.373-3.118s-.767-.86-1.582-.86h-.093c-.838.023-1.373.302-1.605.86-.233.559-.349 1.606-.349 3.118v1.233c0 1.536.116 2.56.349 3.118.232.559.767.861 1.605.861h.093c.815 0 1.35-.279 1.582-.837.233-.559.373-1.606.373-3.142m14.772-1.535h-3.7c-.232 0-.395-.024-.488-.117s-.117-.279-.117-.558v-1.605c0-.28.024-.443.117-.536q.14-.14.488-.14h7.865c.233 0 .395.047.512.14.093.093.163.28.163.536v.442c0 .604-.186 1.163-.512 1.652l-4.002 5.677h3.979c.232 0 .372.046.465.14.093.093.14.256.14.535v1.605q0 .42-.14.559c-.093.093-.233.116-.465.116h-8.005c-.488 0-.721-.21-.721-.675v-.535c0-.605.163-1.14.512-1.652zm11.318 5.421h.744c.233 0 .419.07.512.163.093.116.163.326.163.628v1.443c0 .326-.07.535-.163.628-.093.116-.279.163-.512.163h-1.768c-1.164 0-1.978-.21-2.443-.675-.466-.442-.698-1.233-.698-2.35v-2.513l-.768.489c-.303.186-.512.28-.605.28-.186 0-.256-.14-.256-.42v-2.164c0-.232.023-.395.116-.512.07-.093.21-.232.442-.395l1.071-.675V6.922c0-.232.046-.395.163-.512.116-.093.325-.162.628-.162h2.14c.28 0 .489.07.605.162.117.117.187.28.187.512v3.77l1.047-.675c.279-.186.488-.28.605-.28.162 0 .256.14.256.42v2.163c0 .233-.047.42-.117.512a1.9 1.9 0 0 1-.442.396l-1.349.86v4.445c0 .186.023.303.093.35.046.069.163.092.349.092m9.325-2.363v2.261c0 .406.07.69.247.848.141.16.406.23.795.23h.159c.406 0 .689-.106.866-.354q.212-.318.212-1.537v-.76c0-.883-.089-1.43-.23-1.607-.159-.176-.459-.282-.883-.282h-.071c-.406 0-.689.088-.866.264-.159.16-.229.477-.229.937m0-2.95h.035q.768-.477 2.014-.477h.159c1.06 0 1.837.318 2.314.954.389.547.601 1.519.601 2.915v1.271c0 1.414-.301 2.403-.901 2.95-.636.601-1.643.884-3.021.884h-.353c-1.449 0-2.438-.283-2.968-.866-.477-.512-.707-1.342-.707-2.508v-8.233c0-.176.035-.3.124-.388.07-.071.229-.124.459-.124h1.643c.212 0 .371.053.459.124a.52.52 0 0 1 .142.388zm10.849 6.218h.194c.601 0 1.237-.07 1.873-.23.177-.035.283-.053.336-.053.176 0 .282.106.318.3l.141.884c.035.247.071.406.071.477 0 .212-.159.371-.46.477-.812.283-1.713.424-2.667.424h-.336q-2.173 0-3.074-.901a2.54 2.54 0 0 1-.707-1.201c-.123-.46-.176-1.078-.176-1.838v-.989c0-1.537.353-2.614 1.06-3.25.6-.53 1.519-.795 2.773-.795h.248c1.236 0 2.137.3 2.667.883.566.636.848 1.678.848 3.162v.919c0 .335-.176.494-.512.494h-4.24v.142c0 .424.106.706.353.865.23.16.654.23 1.29.23m-1.643-3.074h1.943c.142 0 .212-.07.212-.23v-.282c0-.354-.07-.619-.176-.813-.142-.212-.424-.318-.813-.318h-.159c-.353 0-.601.088-.742.248q-.265.318-.265.954zm9.134-1.219h-2.809c-.177 0-.3-.018-.371-.088s-.088-.212-.088-.424v-1.22c0-.211.017-.335.088-.405q.106-.106.371-.106h5.971c.177 0 .3.035.389.106.07.07.123.212.123.406v.336c0 .459-.141.883-.388 1.254l-3.039 4.31h3.021c.177 0 .283.036.353.106s.106.195.106.407v1.219q0 .318-.106.424c-.07.07-.176.088-.353.088h-6.077c-.371 0-.548-.159-.548-.512v-.407c0-.459.124-.865.389-1.254zm13.271-1.82h1.519c.247 0 .424.036.512.107.089.07.159.212.195.424 0 .07.318 1.643.936 4.699h.053c.318-1.855.601-3.569.83-5.159.018-.194.071-.318.142-.388q.105-.106.371-.106h1.801c.195 0 .318.053.389.123.053.089.071.23.035.407a175 175 0 0 1-1.024 4.557c-.389 1.661-.671 2.703-.848 3.145-.071.177-.159.3-.247.353-.089.053-.23.071-.407.071h-1.943c-.371 0-.601-.124-.671-.406-.336-1.202-.619-2.72-.866-4.558h-.071a48 48 0 0 1-.883 4.558c-.071.282-.283.406-.636.406h-1.908c-.353 0-.583-.124-.671-.389-.177-.477-.477-1.572-.901-3.268a82 82 0 0 1-.989-4.47c-.053-.194-.036-.335.035-.406.07-.07.212-.123.424-.123h1.731c.177 0 .318.035.406.106.071.07.124.212.159.388.248 1.643.53 3.357.866 5.159h.071c.424-2.19.724-3.763.865-4.7.036-.23.089-.37.177-.441.088-.053.265-.088.548-.088m12.797 7.509h-.035c-.389.6-1.166.883-2.314.883h-.265c-.901 0-1.608-.23-2.103-.689-.512-.46-.759-1.148-.759-2.032v-.194c0-.954.265-1.643.812-2.032.548-.388 1.431-.582 2.668-.582h.124c.459 0 .883.035 1.236.07v-.37c0-.372-.106-.637-.3-.778-.212-.124-.565-.194-1.06-.194-.601 0-1.272.105-2.049.3-.212.053-.371.053-.442 0-.088-.053-.141-.16-.159-.336l-.141-.936c-.036-.16-.036-.283-.036-.353 0-.212.142-.371.424-.46a11.4 11.4 0 0 1 3.021-.388c1.36 0 2.332.3 2.897.865.442.46.672 1.201.672 2.209v5.246c0 .177-.053.318-.142.389-.088.07-.247.106-.459.106h-.83c-.212 0-.354-.018-.442-.07-.088-.054-.159-.16-.212-.336zm-.636-2.262v-.494a5 5 0 0 0-.848-.053h-.194q-.636 0-.901.159c-.177.106-.247.318-.247.636v.07c0 .318.07.53.247.636.159.124.406.177.742.177h.124c.353 0 .618-.088.83-.265.159-.141.247-.442.247-.866m6.728-4.716h.053c.388-.636 1.042-.954 1.978-.954h.707c.177 0 .318.035.389.106.07.07.123.194.123.388v1.29c0 .194-.035.318-.106.389q-.105.105-.371.106h-.53c-.653 0-1.095.123-1.342.37-.212.213-.301.619-.301 1.22v4.275c0 .176-.053.318-.141.388-.088.089-.247.124-.459.124h-1.626c-.229 0-.388-.035-.477-.124-.088-.07-.123-.212-.123-.388v-7.65c0-.176.035-.3.123-.37.089-.071.248-.124.477-.124h.848c.195 0 .336.035.424.088q.133.106.212.318zm8.941 4.54v-4.982c0-.177.036-.3.124-.389.088-.07.247-.123.477-.123h1.625c.212 0 .371.053.459.123a.52.52 0 0 1 .142.389v5.23q0 1.616-.795 2.331c-.566.495-1.555.742-3.003.742s-2.456-.247-3.004-.742q-.795-.715-.795-2.332v-5.23c0-.176.036-.3.124-.388.088-.07.247-.123.477-.123h1.625c.212 0 .371.053.46.123a.52.52 0 0 1 .141.389v4.982c0 .406.053.671.194.812.142.16.389.23.778.23.371 0 .636-.07.777-.23.124-.14.194-.406.194-.812m9.161-5.653h.142c1.024 0 1.784.247 2.243.724.424.46.654 1.236.654 2.332v5.247c0 .176-.053.318-.141.388-.089.089-.248.124-.46.124h-1.625c-.23 0-.389-.035-.477-.124-.088-.07-.124-.212-.124-.388v-5c0-.389-.07-.671-.194-.812-.141-.142-.406-.23-.777-.23h-.106c-.389 0-.636.088-.777.23-.142.14-.195.423-.195.812v5c0 .176-.053.318-.141.388-.088.089-.247.124-.459.124h-1.626c-.229 0-.388-.035-.477-.124-.088-.07-.123-.212-.123-.388v-7.65c0-.176.035-.3.123-.37.089-.071.248-.124.477-.124h.831c.212 0 .353.035.441.088q.133.08.212.318l.106.336h.053c.566-.601 1.361-.901 2.42-.901m7.548 5.388v2.915c0 .176-.053.318-.141.388-.088.089-.247.124-.459.124h-1.626c-.229 0-.388-.035-.477-.124-.088-.07-.123-.212-.123-.388V10.552c0-.176.035-.3.123-.388.089-.071.248-.124.477-.124h1.626c.212 0 .371.053.459.124a.52.52 0 0 1 .141.388v5.76h.124l1.678-2.562c.159-.265.407-.406.742-.406h2.05c.194 0 .3.07.3.212 0 .07-.053.194-.141.335l-2.032 3.039c-.159.247-.23.424-.23.53 0 .123.071.3.23.53l2.173 3.427c.071.141.106.23.106.3 0 .195-.124.283-.371.283h-1.961c-.247 0-.442-.018-.548-.088q-.159-.08-.318-.371l-1.678-2.968zm8.327-1.59v1.378c0 .689.106 1.13.318 1.342.159.177.406.248.742.248h.071c.318 0 .565-.07.741-.248.212-.212.318-.653.318-1.342v-1.378c0-.672-.106-1.13-.318-1.343-.176-.159-.423-.247-.741-.247h-.071c-.336 0-.583.088-.742.247-.212.212-.318.671-.318 1.343m5.035.106v1.148c0 .883-.089 1.555-.265 2.05s-.46.883-.848 1.183c-.583.46-1.484.689-2.721.689h-.212c-1.236 0-2.155-.23-2.72-.689a2.5 2.5 0 0 1-.848-1.184c-.177-.494-.265-1.166-.265-2.049v-1.13c0-.866.088-1.537.265-2.032.176-.495.459-.883.848-1.201.565-.46 1.484-.69 2.72-.69h.212c1.237 0 2.138.23 2.721.69.388.318.671.706.848 1.183.176.495.265 1.166.265 2.032m-5.388-6.077 2.773-2.368a.5.5 0 0 1 .336-.159c.123 0 .247.089.353.23l.848 1.095a.5.5 0 0 1 .106.3c0 .142-.106.283-.283.425l-2.791 1.908a.6.6 0 0 1-.353.123c-.141 0-.283-.07-.424-.247l-.53-.618c-.141-.16-.194-.3-.194-.407a.34.34 0 0 1 .159-.282m11.423 2.756h1.519c.248 0 .424.035.513.106.088.07.159.212.194.424 0 .07.318 1.643.936 4.699h.053c.318-1.855.601-3.569.83-5.159.018-.194.071-.318.142-.388q.105-.106.371-.106h1.802c.194 0 .318.053.388.123.053.089.071.23.036.407a175 175 0 0 1-1.025 4.557c-.389 1.661-.671 2.703-.848 3.145-.071.177-.159.3-.247.353-.089.053-.23.071-.407.071h-1.943c-.371 0-.6-.124-.671-.406-.336-1.202-.618-2.72-.866-4.558h-.07c-.23 1.59-.53 3.11-.884 4.558-.07.282-.282.406-.636.406h-1.908c-.353 0-.583-.124-.671-.389-.177-.477-.477-1.572-.901-3.268a82 82 0 0 1-.989-4.47c-.053-.194-.036-.335.035-.406.071-.07.212-.123.424-.123h1.731c.177 0 .318.035.407.106.07.07.123.212.159.388.247 1.643.53 3.357.865 5.159h.071c.424-2.19.724-3.763.866-4.7.035-.23.088-.37.176-.441.089-.053.265-.088.548-.088"/></svg>