<svg xmlns="http://www.w3.org/2000/svg" fill="none" viewBox="0 0 349 28"><path fill="#fff" d="M3.656 14.087v7.415c0 .172-.051.31-.137.378-.086.086-.24.12-.446.12h-1.58c-.223 0-.377-.034-.463-.12-.086-.069-.12-.206-.12-.378v-7.415c0-.172.034-.292.12-.378.086-.069.24-.12.463-.12h1.58c.206 0 .36.051.446.12a.5.5 0 0 1 .137.378m-1.27-1.15H2.18c-.927 0-1.39-.464-1.39-1.425v-.086c0-.944.463-1.425 1.39-1.425h.206c.927 0 1.39.481 1.39 1.425v.086c0 .961-.463 1.425-1.39 1.425m9.568 2.832H9.225c-.172 0-.292-.017-.36-.086-.069-.069-.086-.206-.086-.412v-1.184c0-.206.017-.326.086-.395q.102-.103.36-.103h5.802c.172 0 .292.034.378.103.068.069.12.206.12.395v.326c0 .446-.138.858-.378 1.219l-2.952 4.188h2.935c.172 0 .275.034.343.103.069.069.103.189.103.395v1.184q0 .31-.103.412c-.068.069-.171.086-.343.086H9.225c-.36 0-.532-.154-.532-.498v-.395c0-.446.12-.84.378-1.218zm8.573 5.441h-.463c-2.438 0-3.64-1.098-3.64-3.312v-1.15c0-1.134.292-1.958.893-2.507.584-.532 1.493-.807 2.695-.807h.24c.224-1.235 1.133-1.87 2.747-1.87h.84c.173 0 .276.034.344.085.052.069.086.189.086.36v.945c0 .171-.034.274-.103.326-.069.069-.189.086-.343.086h-.807c-.378 0-.635.086-.79.257 1.288.344 1.94 1.39 1.94 3.124v1.15c0 1.236-.343 2.06-1.013 2.507.447.24.79.549 1.047.927.258.377.395.79.395 1.218v.12c0 1.7-1.356 2.54-4.034 2.54h-.326c-1.167 0-2.3-.205-3.364-.617-.31-.103-.43-.326-.344-.652l.31-1.099c.085-.326.291-.446.617-.343 1.013.343 1.906.498 2.695.498h.24q1.494 0 1.494-.876v-.051c0-.326-.172-.618-.515-.893-.275.034-.566.034-.841.034m-.292-2.145h.12c.378 0 .635-.069.807-.24.189-.19.292-.584.292-1.168v-.67c0-.583-.103-.96-.292-1.167-.172-.154-.43-.24-.807-.24h-.12c-.377 0-.652.086-.807.24-.206.206-.291.584-.291 1.168v.67c0 .583.085.978.291 1.166.155.172.43.24.807.24m10.428 2.231h-.035c-.378.584-1.133.858-2.248.858h-.258c-.875 0-1.562-.223-2.043-.669-.498-.446-.738-1.116-.738-1.974v-.189c0-.927.258-1.596.79-1.974s1.39-.566 2.592-.566h.12c.446 0 .858.034 1.201.068v-.36c0-.36-.102-.618-.291-.755-.206-.12-.55-.19-1.03-.19-.584 0-1.236.104-1.991.293-.206.051-.36.051-.43 0-.085-.052-.137-.155-.154-.326l-.137-.91c-.035-.155-.035-.275-.035-.344 0-.206.138-.36.412-.446.876-.24 1.854-.378 2.936-.378 1.321 0 2.265.292 2.815.841.429.447.652 1.168.652 2.146v5.098c0 .172-.051.31-.137.378-.086.069-.24.103-.447.103h-.806c-.206 0-.344-.017-.43-.069-.085-.051-.154-.154-.206-.326zm-.619-2.197v-.48a5 5 0 0 0-.823-.052h-.19q-.617 0-.875.154c-.171.103-.24.31-.24.618v.069c0 .309.069.515.24.618.155.12.395.172.721.172h.12c.344 0 .601-.086.807-.258.155-.137.24-.429.24-.841m6.537-4.583h.052c.377-.618 1.013-.927 1.922-.927h.687c.172 0 .309.034.378.103.068.069.12.189.12.378v1.253c0 .188-.035.309-.103.377q-.104.103-.36.103h-.516c-.635 0-1.064.12-1.304.36-.206.207-.292.602-.292 1.185v4.154c0 .172-.051.31-.137.378-.086.086-.24.12-.447.12h-1.579c-.223 0-.378-.034-.463-.12-.086-.069-.12-.206-.12-.378V14.07c0-.172.034-.292.12-.36.085-.07.24-.121.463-.121h.824c.189 0 .326.034.412.086a.7.7 0 0 1 .206.309zm8.706-1.082h.137c.996 0 1.734.24 2.18.704.412.447.635 1.202.635 2.266v5.098c0 .172-.051.31-.137.378-.086.086-.24.12-.446.12h-1.58c-.223 0-.377-.034-.463-.12-.086-.069-.12-.206-.12-.378v-4.858c0-.377-.069-.652-.19-.79-.136-.137-.394-.222-.754-.222h-.103c-.378 0-.618.085-.756.223-.137.137-.188.412-.188.79v4.857c0 .172-.052.31-.138.378-.086.086-.24.12-.446.12h-1.58c-.223 0-.377-.034-.463-.12-.086-.069-.12-.206-.12-.378V14.07c0-.172.034-.292.12-.36.086-.07.24-.121.464-.121h.806c.206 0 .344.034.43.086q.128.076.206.309l.102.326h.052c.55-.584 1.322-.876 2.352-.876m7.368.653v7.415c0 .172-.052.31-.137.378-.086.086-.24.12-.447.12h-1.579c-.223 0-.377-.034-.463-.12-.086-.069-.12-.206-.12-.378v-7.415c0-.172.034-.292.12-.378.085-.069.24-.12.463-.12h1.58c.205 0 .36.051.446.12a.5.5 0 0 1 .137.378m-1.27-1.15h-.206c-.927 0-1.39-.464-1.39-1.425v-.086c0-.944.463-1.425 1.39-1.425h.206c.927 0 1.39.481 1.39 1.425v.086c0 .961-.463 1.425-1.39 1.425m2.74 12.119h-.996c-.171 0-.309-.035-.377-.12-.07-.07-.104-.224-.104-.43v-1.201c0-.172.035-.31.103-.378.07-.069.207-.12.378-.12h.43c.308 0 .549-.069.703-.24.137-.138.206-.498.206-1.065v-7.415c0-.172.034-.292.12-.378.086-.069.24-.12.464-.12h1.579c.206 0 .36.051.446.12a.5.5 0 0 1 .138.378v7.604c0 1.236-.224 2.094-.67 2.592q-.695.772-2.42.772m1.82-12.12h-.207c-.927 0-1.39-.463-1.39-1.424v-.086c0-.944.463-1.425 1.39-1.425h.206c.927 0 1.39.481 1.39 1.425v.086c0 .961-.463 1.425-1.39 1.425m10.34 6.833h.55c.171 0 .308.051.377.12.069.085.12.24.12.463v1.064c0 .24-.051.395-.12.464-.069.086-.206.12-.378.12H65.53c-.858 0-1.46-.154-1.803-.498-.343-.326-.514-.91-.514-1.733v-1.854l-.567.36c-.223.137-.378.206-.446.206-.138 0-.19-.103-.19-.309v-1.596c0-.172.018-.292.087-.378.051-.069.154-.172.326-.292l.79-.498v-4.531c0-.172.034-.292.12-.378.086-.069.24-.12.463-.12h1.58c.205 0 .36.052.446.12a.5.5 0 0 1 .137.378v2.78l.772-.497c.206-.137.36-.206.447-.206.12 0 .189.103.189.309v1.596c0 .172-.035.31-.086.378a1.4 1.4 0 0 1-.326.292l-.996.635v3.278c0 .138.017.224.069.258.034.051.12.069.257.069m7.14 1.527h-.034c-.378.584-1.133.858-2.249.858h-.257c-.876 0-1.562-.223-2.043-.669-.498-.446-.738-1.116-.738-1.974v-.189c0-.927.258-1.596.79-1.974s1.39-.566 2.592-.566h.12c.446 0 .858.034 1.201.068v-.36c0-.36-.103-.618-.291-.755-.206-.12-.55-.19-1.03-.19-.584 0-1.236.104-1.992.293-.206.051-.36.051-.429 0-.085-.052-.137-.155-.154-.326l-.138-.91c-.034-.172-.034-.292-.034-.344 0-.206.137-.36.412-.446.876-.24 1.854-.378 2.935-.378 1.322 0 2.266.292 2.816.841.429.447.652 1.168.652 2.146v5.098c0 .258-.103.412-.275.481-.429.172-.79.412-1.064.72-.292.31-.43.636-.43.962v.052q0 .463.464.463h.052c.206 0 .463-.034.738-.137.086-.017.154-.034.206-.034.086 0 .154.085.206.223l.086.36c.051.24.085.36.085.395 0 .103-.085.189-.24.257a3.8 3.8 0 0 1-1.39.258h-.103c-.584 0-1.047-.12-1.356-.378-.31-.257-.464-.618-.464-1.064v-.086c0-.412.138-.807.43-1.184a3.2 3.2 0 0 1 1.098-.927zm-.618-2.197v-.48a5 5 0 0 0-.824-.052h-.188q-.618 0-.876.154c-.171.103-.24.31-.24.618v.069c0 .309.069.515.24.618.155.12.395.172.721.172h.12c.344 0 .601-.086.807-.258.155-.137.24-.429.24-.841m8.39.841h.137c.463 0 .961-.069 1.493-.223.172-.034.275-.051.326-.051.172 0 .275.102.31.291l.154.876c.034.24.068.395.068.463 0 .206-.154.36-.446.464-.755.274-1.58.394-2.472.394h-.206c-1.236 0-2.145-.274-2.712-.858q-.875-.875-.875-2.935v-.996c0-.806.068-1.442.206-1.888q.205-.67.67-1.133c.6-.6 1.544-.91 2.832-.91h.171c1.03 0 1.923.19 2.644.567.206.12.326.257.326.429 0 .103-.052.275-.138.515l-.326.824q-.128.309-.36.309a.7.7 0 0 1-.31-.086c-.548-.223-1.063-.343-1.527-.343h-.069c-.446 0-.772.12-.978.326-.257.257-.378.79-.378 1.58v.583c0 .704.103 1.184.344 1.442.223.24.6.36 1.115.36m6.644-4.171h-2.73c-.17 0-.29-.017-.36-.086-.068-.069-.085-.206-.085-.412v-1.184c0-.206.017-.326.085-.395q.105-.103.36-.103h5.803c.171 0 .292.034.377.103.07.069.12.206.12.395v.326c0 .446-.137.858-.377 1.219l-2.953 4.188h2.936c.172 0 .275.034.343.103.069.069.103.189.103.395v1.184q0 .31-.103.412c-.069.069-.171.086-.343.086h-5.905c-.36 0-.532-.154-.532-.498v-.395c0-.446.12-.84.377-1.218zm9.31-2.335h.138c.996 0 1.734.24 2.18.704.412.447.635 1.202.635 2.266v5.098c0 .172-.051.31-.137.378-.086.086-.24.12-.446.12h-1.58c-.223 0-.377-.034-.463-.12-.086-.069-.12-.206-.12-.378v-4.858c0-.377-.069-.652-.189-.79-.137-.137-.395-.222-.755-.222h-.103c-.378 0-.618.085-.756.223-.137.137-.188.412-.188.79v4.857c0 .172-.052.31-.138.378-.085.086-.24.12-.446.12h-1.58c-.222 0-.377-.034-.463-.12-.085-.069-.12-.206-.12-.378V14.07c0-.172.034-.292.12-.36.086-.07.24-.121.464-.121h.807c.206 0 .343.034.429.086q.128.076.206.309l.103.326h.051c.55-.584 1.322-.876 2.352-.876m7.369.653v7.415c0 .172-.051.31-.137.378-.086.086-.24.12-.446.12h-1.58c-.223 0-.377-.034-.463-.12-.086-.069-.12-.206-.12-.378v-7.415c0-.172.034-.292.12-.378.086-.069.24-.12.463-.12h1.58c.206 0 .36.051.446.12a.5.5 0 0 1 .137.378m-1.27-1.15h-.206c-.927 0-1.39-.464-1.39-1.425v-.086c0-.944.463-1.425 1.39-1.425h.206c.927 0 1.39.481 1.39 1.425v.086c0 .961-.463 1.425-1.39 1.425m7.134 7.003h.189c.584 0 1.202-.069 1.82-.223a2 2 0 0 1 .326-.051c.171 0 .274.102.309.291l.137.859c.034.24.069.394.069.463 0 .206-.155.36-.447.463a7.9 7.9 0 0 1-2.591.412h-.327q-2.111 0-2.986-.875a2.46 2.46 0 0 1-.687-1.167c-.12-.446-.172-1.047-.172-1.785v-.962c0-1.493.344-2.54 1.03-3.158.584-.515 1.476-.773 2.695-.773h.241c1.201 0 2.077.292 2.592.859.549.618.823 1.63.823 3.072v.893c0 .326-.171.48-.497.48h-4.12v.138c0 .412.103.686.343.841.223.155.635.223 1.253.223m-1.596-2.987h1.888c.137 0 .206-.068.206-.223v-.274c0-.344-.069-.601-.172-.79-.137-.206-.412-.309-.789-.309h-.155c-.343 0-.583.086-.721.24q-.257.309-.257.927zm15.288-3.117h.185c.738 0 1.361-.139 1.891-.415v-.323c0-1.269-.138-2.122-.392-2.56s-.715-.67-1.407-.67h-.207q-1.73 0-1.73 1.869v.207c0 .692.115 1.177.392 1.453.277.3.692.439 1.268.439m-4.174 7.703c-.277-.093-.392-.254-.392-.53q0-.139.069-.416l.369-1.476c.092-.369.369-.507.784-.392 1.107.346 2.076.507 2.906.507h.069c.831 0 1.407-.207 1.776-.668q.554-.658.623-2.076c-.761.323-1.591.461-2.491.461h-.254c-1.637 0-2.813-.392-3.551-1.222-.738-.807-1.084-2.053-1.084-3.713v-.323c0-1.476.438-2.652 1.337-3.529.9-.853 2.214-1.291 3.944-1.291h.323c2.076 0 3.552.553 4.382 1.614s1.268 2.814 1.268 5.258v.554c0 1.314-.115 2.445-.345 3.413-.231.969-.531 1.753-.9 2.307a4.2 4.2 0 0 1-1.407 1.36c-.553.346-1.107.577-1.66.67-.554.114-1.2.16-1.915.16h-.023c-1.337 0-2.629-.207-3.828-.668m27.327-6.735v6.527c0 .23-.069.415-.185.508-.115.115-.323.161-.599.161h-2.122c-.3 0-.507-.046-.623-.161-.115-.093-.161-.277-.161-.508v-6.527c0-.507-.092-.876-.254-1.06-.184-.185-.53-.3-1.015-.3h-.046c-.507 0-.83.115-1.015.3-.184.184-.253.553-.253 1.06v6.527c0 .23-.07.415-.185.508-.115.115-.323.161-.599.161h-2.122c-.3 0-.508-.046-.623-.161-.115-.093-.161-.277-.161-.508v-9.986c0-.23.046-.392.161-.485s.323-.16.623-.16h1.084c.276 0 .461.045.576.114q.174.105.277.415l.138.439h.07c.738-.784 1.775-1.176 3.159-1.176h.093c1.314 0 2.329.368 3.044 1.06.738-.691 1.799-1.06 3.136-1.06h.093c1.337 0 2.329.322 2.929.945.553.6.853 1.615.853 3.044v6.85c0 .23-.069.415-.184.508-.116.115-.323.161-.6.161h-2.122c-.3 0-.507-.046-.623-.161-.115-.093-.161-.277-.161-.508v-6.527c0-.507-.092-.876-.254-1.06-.184-.185-.53-.3-1.015-.3h-.046c-.507 0-.83.115-1.014.3-.185.184-.254.553-.254 1.06m12.196-3.436v9.963c0 .23-.069.415-.184.508-.116.115-.323.161-.6.161h-2.122c-.299 0-.507-.046-.622-.161-.116-.093-.162-.277-.162-.508v-9.963c0-.23.046-.392.162-.508.115-.092.323-.16.622-.16h2.122c.277 0 .484.068.6.16.115.116.184.277.184.508m-1.706-1.545h-.277c-1.246 0-1.868-.623-1.868-1.915v-.115c0-1.268.622-1.914 1.868-1.914h.277c1.245 0 1.868.646 1.868 1.914v.115c0 1.292-.623 1.915-1.868 1.915m9.585 9.41h.254c.784 0 1.614-.093 2.445-.3.23-.046.369-.07.438-.07.23 0 .369.139.415.393l.184 1.153c.047.323.093.53.093.622 0 .277-.208.485-.6.623-1.061.37-2.237.554-3.482.554h-.439q-2.836 0-4.013-1.177a3.3 3.3 0 0 1-.922-1.568c-.162-.6-.231-1.407-.231-2.399v-1.291c0-2.006.461-3.413 1.384-4.244.784-.692 1.983-1.037 3.621-1.037h.323c1.614 0 2.79.392 3.482 1.153.738.83 1.107 2.19 1.107 4.128v1.2c0 .437-.23.645-.668.645h-5.536v.184c0 .554.139.923.462 1.13.299.208.853.3 1.683.3m-2.145-4.014h2.537c.185 0 .277-.092.277-.3v-.368c0-.462-.092-.808-.231-1.061-.184-.277-.553-.415-1.06-.415h-.208c-.461 0-.784.115-.969.322q-.345.415-.346 1.246zm7.865-.807v-.3c0-1.13.3-1.983.9-2.583.692-.692 1.868-1.037 3.506-1.037h.23c1.292 0 2.422.138 3.367.415q.277.104.346.207c.046.092.07.208.046.392l-.253 1.891c-.046.3-.254.393-.623.3-.922-.207-1.753-.323-2.445-.323h-.023c-.507 0-.876.046-1.061.139-.207.092-.299.254-.299.484v.07c0 .23.069.391.253.484.185.092.531.207 1.061.3l1.084.23c.992.23 1.707.577 2.122 1.038s.623 1.176.623 2.122v.346c0 2.421-1.523 3.62-4.521 3.62h-.23c-1.523 0-2.791-.207-3.852-.622-.207-.07-.346-.162-.392-.277-.046-.092-.046-.277 0-.53l.323-1.522c.069-.439.323-.577.784-.439 1.061.37 1.983.53 2.768.53h.069c.507 0 .853-.045 1.061-.16.184-.093.3-.277.3-.531v-.07a.5.5 0 0 0-.254-.437q-.278-.139-1.107-.347l-1.015-.23q-1.523-.346-2.145-1.038c-.415-.461-.623-1.153-.623-2.122m14.487-3.044v9.963c0 .23-.069.415-.185.508-.115.115-.322.161-.599.161h-2.122c-.3 0-.507-.046-.623-.161-.115-.093-.161-.277-.161-.508v-9.963c0-.23.046-.392.161-.508.116-.092.323-.16.623-.16h2.122c.277 0 .484.068.599.16.116.116.185.277.185.508m-1.707-1.545h-.276c-1.246 0-1.869-.623-1.869-1.915v-.115c0-1.268.623-1.914 1.869-1.914h.276c1.246 0 1.868.646 1.868 1.914v.115c0 1.292-.622 1.915-1.868 1.915m9.586 9.41h.254c.784 0 1.614-.093 2.444-.3.231-.046.369-.07.439-.07.23 0 .369.139.415.393l.184 1.153c.046.323.092.53.092.622 0 .277-.207.485-.599.623-.6.23-1.084.6-1.476 1.107-.392.508-.577 1.015-.577 1.476v.07c0 .438.208.645.623.645h.115c.254 0 .577-.046.946-.184.115-.024.207-.047.277-.047.115 0 .207.116.276.3l.116.485c.069.322.115.484.115.53 0 .138-.115.254-.323.346a5.2 5.2 0 0 1-1.868.346h-.138c-.808 0-1.407-.162-1.822-.507-.416-.346-.623-.83-.623-1.477v-.069c0-.415.138-.876.438-1.337.3-.462.692-.83 1.199-1.154-.184.024-.438.024-.761.024h-.438q-2.837 0-4.013-1.177a3.3 3.3 0 0 1-.922-1.568c-.162-.6-.231-1.407-.231-2.399v-1.291c0-2.006.461-3.413 1.384-4.244.784-.692 1.983-1.037 3.621-1.037h.323c1.614 0 2.79.392 3.482 1.153.738.83 1.107 2.19 1.107 4.128v1.2c0 .437-.231.645-.669.645h-5.535v.184c0 .554.138.923.461 1.13.3.208.854.3 1.684.3m-2.145-4.014h2.537c.185 0 .277-.092.277-.3v-.368c0-.462-.092-.808-.231-1.061-.184-.277-.553-.415-1.061-.415h-.207c-.462 0-.784.115-.969.322q-.346.415-.346 1.246zm13.469 4.013h.185c.623 0 1.292-.092 2.006-.3.231-.045.37-.069.439-.069.23 0 .369.139.415.393l.207 1.176c.047.323.093.53.093.622 0 .277-.208.485-.6.623-1.015.37-2.122.53-3.321.53h-.277c-1.66 0-2.883-.368-3.644-1.153q-1.176-1.176-1.176-3.943v-1.338c0-1.084.092-1.937.277-2.537q.276-.9.899-1.522c.807-.807 2.076-1.223 3.806-1.223h.23c1.384 0 2.583.254 3.552.762.277.161.438.345.438.576 0 .138-.069.37-.184.692l-.439 1.107q-.172.415-.484.415a.94.94 0 0 1-.415-.115c-.738-.3-1.43-.461-2.053-.461h-.092c-.6 0-1.038.161-1.314.438-.346.346-.508 1.06-.508 2.122v.784c0 .945.139 1.591.461 1.937.3.323.808.484 1.499.484m15.353-7.841c-.323 2.168-.922 4.567-1.799 7.219a49 49 0 0 1-3.252 7.518c-.161.323-.369.485-.645.485-.185 0-.393-.046-.669-.185l-1.176-.507c-.416-.185-.6-.37-.6-.577a.8.8 0 0 1 .115-.392c.784-1.591 1.246-2.514 1.338-2.768-.646-.23-1.13-.738-1.499-1.568-.415-.922-.9-2.33-1.43-4.267q-.797-2.905-1.176-4.981c-.047-.23-.023-.392.092-.508.115-.092.323-.16.6-.16h2.098c.254 0 .438.045.554.114.115.07.207.208.253.439.531 2.906 1.131 5.489 1.799 7.726h.116c.645-1.845 1.245-4.382 1.799-7.657q.035-.345.207-.485c.116-.092.3-.138.531-.138h2.121c.254 0 .439.07.531.162s.115.276.092.53m8.476 10.763h-.206c-1.202 0-2.249-.154-3.141-.48-.378-.12-.55-.343-.481-.687l.223-1.39c.035-.344.241-.464.601-.344.996.361 1.923.533 2.746.533h.086c.515 0 .893-.069 1.116-.224.206-.137.326-.394.326-.755v-.171c0-.344-.103-.567-.274-.704-.189-.12-.55-.24-1.082-.343l-1.167-.224c-.961-.171-1.648-.515-2.026-.995-.394-.48-.583-1.15-.583-2.026v-.48c0-.962.257-1.683.772-2.198.618-.618 1.768-.927 3.416-.927h.12c1.15 0 2.129.155 2.918.447.172.068.292.171.344.274.034.12.034.292-.017.498l-.292 1.253c-.069.31-.292.412-.635.292a7.8 7.8 0 0 0-2.266-.36h-.069c-.566 0-.961.068-1.167.188-.223.138-.326.36-.326.67v.154c0 .275.068.481.223.584.137.12.446.223.892.309l1.305.258c1.03.206 1.734.532 2.129.944.377.412.583 1.133.583 2.145v.412c0 1.168-.326 2.009-.961 2.54-.635.55-1.665.807-3.107.807m7.707-7.827c.601-.584 1.459-.893 2.558-.893h.154c1.065 0 1.82.31 2.283.893.412.55.618 1.476.618 2.815v1.288c0 .72-.068 1.321-.171 1.768-.121.446-.327.824-.618 1.115-.584.567-1.374.841-2.404.841h-.188q-.98 0-1.597-.36v2.643c0 .258-.051.43-.137.498-.103.069-.292.103-.584.103h-1.304c-.292 0-.481-.034-.584-.12-.103-.069-.137-.24-.137-.48v-10.3c0-.206.034-.343.137-.429.086-.069.24-.12.464-.12h.721c.205 0 .36.034.446.069a.67.67 0 0 1 .189.291l.12.378zm.635 2.438v2.197c0 .395.069.67.241.824.154.154.412.223.772.223h.154c.395 0 .67-.103.842-.343q.206-.31.206-1.494v-.738c0-.824-.069-1.339-.206-1.528-.172-.206-.447-.309-.859-.309h-.12c-.377 0-.635.086-.807.258-.154.154-.223.463-.223.91m8.946.36v1.339c0 .67.103 1.099.309 1.305.154.171.395.24.721.24h.068c.309 0 .55-.069.721-.24.206-.206.309-.636.309-1.305v-1.339c0-.652-.103-1.099-.309-1.305-.171-.154-.412-.24-.721-.24h-.068c-.326 0-.567.086-.721.24-.206.206-.309.653-.309 1.305m4.892.103v1.116c0 .858-.086 1.51-.258 1.99a2.45 2.45 0 0 1-.824 1.151c-.566.446-1.441.67-2.643.67h-.206c-1.202 0-2.094-.224-2.643-.67a2.45 2.45 0 0 1-.824-1.15c-.172-.48-.258-1.133-.258-1.991v-1.099c0-.84.086-1.493.258-1.974.171-.48.446-.858.824-1.167.549-.446 1.441-.67 2.643-.67h.206c1.202 0 2.077.224 2.643.67.378.309.653.687.824 1.15.172.48.258 1.133.258 1.974m6.842 3.158v.979c0 .257-.051.429-.12.515-.068.086-.223.12-.429.12h-1.373c-1.236 0-2.06-.206-2.438-.635-.343-.36-.497-1.047-.497-2.077v-3.553h-.927c-.172 0-.275-.018-.344-.086-.068-.069-.085-.172-.085-.343v-.876c0-.206.017-.343.085-.412.052-.069.172-.12.361-.172l.91-.223v-1.682c0-.172.034-.292.12-.378.086-.068.24-.12.463-.12h1.579c.206 0 .361.052.447.12a.5.5 0 0 1 .137.378v1.648h1.425c.172 0 .275.034.343.103.069.069.103.189.103.395v1.15q0 .309-.103.412c-.068.068-.171.086-.343.086h-1.425v3.244c0 .309.034.498.137.6.103.12.327.172.67.172h.755c.206 0 .361.052.429.138.069.085.12.257.12.497m4.08-6.3v7.416c0 .172-.051.31-.137.378-.086.086-.24.12-.446.12h-1.58c-.223 0-.377-.034-.463-.12-.086-.069-.12-.206-.12-.378v-7.415c0-.172.034-.292.12-.378.086-.069.24-.12.463-.12h1.58c.206 0 .36.051.446.12a.5.5 0 0 1 .137.378m-1.27-1.15h-.206c-.927 0-1.39-.463-1.39-1.424v-.086c0-.944.463-1.425 1.39-1.425h.206c.927 0 1.39.481 1.39 1.425v.086c0 .961-.463 1.425-1.39 1.425m3.564 2.799h-.927c-.172 0-.292-.018-.343-.07-.069-.05-.086-.17-.086-.36v-.84c0-.207.017-.361.069-.43.051-.068.171-.137.377-.189l.91-.223v-.738c0-.961.223-1.648.687-2.043q.72-.617 2.265-.617h.172c.687 0 1.27.068 1.785.188.172.052.292.12.344.206a.94.94 0 0 1 .034.412l-.103 1.082c-.034.171-.069.274-.12.309-.069.034-.189.051-.378.034-.446-.034-.755-.069-.961-.069h-.103c-.378 0-.601.052-.704.155-.12.12-.172.326-.172.6v.447h1.425c.172 0 .275.034.343.103.069.069.103.189.103.395v1.15q0 .309-.103.412c-.068.068-.171.086-.343.086h-1.425v5.767c0 .172-.051.31-.137.378-.086.086-.24.12-.446.12h-1.579c-.224 0-.378-.034-.464-.12-.086-.069-.12-.206-.12-.378zm13.183-1.631c-.24 1.613-.686 3.399-1.338 5.373a36.5 36.5 0 0 1-2.421 5.596c-.12.24-.274.36-.48.36-.138 0-.292-.034-.498-.137l-.876-.378c-.309-.137-.446-.274-.446-.429a.6.6 0 0 1 .086-.292c.583-1.184.927-1.87.995-2.06-.48-.171-.841-.549-1.115-1.167-.309-.686-.67-1.734-1.065-3.175q-.591-2.163-.875-3.708c-.034-.172-.017-.292.069-.378.085-.069.24-.12.446-.12h1.562c.189 0 .326.034.412.086s.154.154.189.326c.395 2.163.841 4.085 1.339 5.75h.086c.48-1.373.926-3.261 1.338-5.699q.026-.256.155-.36c.086-.069.223-.103.395-.103h1.579c.189 0 .326.051.395.12.068.069.086.206.068.395m8.947-1.047h-.223c-.24 0-.48.017-.755.034-.103.017-.137.086-.137.206v2.712h.892c.618 0 1.03-.086 1.27-.292.206-.171.309-.497.309-1.012v-.43c0-.411-.103-.72-.291-.91-.206-.205-.567-.308-1.065-.308m-1.115 5.304v3.107c0 .36-.206.532-.601.532h-1.682c-.224 0-.378-.034-.464-.12-.103-.069-.137-.206-.137-.412v-9.87q0-.412.154-.567c.103-.103.292-.171.601-.206.618-.051 1.579-.086 2.901-.086h.206c1.751 0 2.953.344 3.622 1.013.515.55.772 1.373.772 2.49v.583c0 1.287-.36 2.197-1.081 2.712-.755.55-1.905.824-3.467.824zm8.795-3.845h.051c.378-.618 1.013-.927 1.923-.927h.687c.171 0 .309.034.377.103.069.069.12.189.12.378v1.253c0 .188-.034.309-.103.377q-.102.103-.36.103h-.515c-.635 0-1.064.12-1.305.36-.206.207-.291.602-.291 1.185v4.154c0 .172-.052.31-.138.378-.086.086-.24.12-.446.12h-1.579c-.223 0-.378-.034-.464-.12-.086-.069-.12-.206-.12-.378V14.07c0-.172.034-.292.12-.36.086-.07.241-.121.464-.121h.824c.188 0 .326.034.412.086a.7.7 0 0 1 .206.309zm8.192 5.424h.189c.583 0 1.201-.069 1.819-.223a2 2 0 0 1 .326-.051c.172 0 .275.102.309.291l.138.859c.034.24.068.394.068.463 0 .206-.154.36-.446.463a7.9 7.9 0 0 1-2.592.412h-.326q-2.112 0-2.987-.875a2.46 2.46 0 0 1-.686-1.167c-.121-.446-.172-1.047-.172-1.785v-.962c0-1.493.343-2.54 1.03-3.158.583-.515 1.476-.773 2.695-.773h.24c1.202 0 2.077.292 2.592.859.549.618.824 1.63.824 3.072v.893c0 .326-.172.48-.498.48h-4.119v.138c0 .412.102.686.343.841.223.155.635.223 1.253.223m-1.596-2.987h1.888c.137 0 .206-.068.206-.223v-.274c0-.344-.069-.601-.172-.79-.137-.206-.412-.309-.79-.309h-.154c-.343 0-.584.086-.721.24q-.258.309-.257.927zm13.492-.309v4.858c0 .172-.052.31-.137.378-.086.086-.241.12-.447.12h-1.579c-.223 0-.378-.034-.463-.12-.086-.069-.121-.206-.121-.378v-4.858c0-.377-.068-.652-.188-.79-.138-.137-.395-.222-.756-.222h-.034c-.378 0-.618.085-.755.223-.138.137-.189.412-.189.79v4.857c0 .172-.052.31-.137.378-.086.086-.241.12-.447.12h-1.579c-.223 0-.378-.034-.463-.12-.086-.069-.121-.206-.121-.378V14.07c0-.172.035-.292.121-.36.085-.07.24-.121.463-.121h.807c.206 0 .343.034.429.086q.13.076.206.309l.103.326h.052c.549-.584 1.321-.876 2.351-.876h.069c.978 0 1.734.275 2.266.79.549-.515 1.339-.79 2.334-.79h.069c.995 0 1.734.24 2.18.704.412.447.635 1.202.635 2.266v5.098c0 .172-.052.31-.137.378-.086.086-.241.12-.447.12h-1.579c-.223 0-.378-.034-.463-.12-.086-.069-.12-.206-.12-.378v-4.858c0-.377-.069-.652-.189-.79-.138-.137-.395-.222-.756-.222h-.034c-.378 0-.618.085-.755.223-.138.137-.189.412-.189.79m9.078-2.557v7.415c0 .172-.052.31-.138.378-.086.086-.24.12-.446.12h-1.579c-.223 0-.378-.034-.464-.12-.086-.069-.12-.206-.12-.378v-7.415c0-.172.034-.292.12-.378.086-.069.241-.12.464-.12h1.579c.206 0 .36.051.446.12a.5.5 0 0 1 .138.378m-1.271-1.15h-.206c-.927 0-1.39-.464-1.39-1.425v-.086c0-.944.463-1.425 1.39-1.425h.206c.927 0 1.391.481 1.391 1.425v.086c0 .961-.464 1.425-1.391 1.425m7.564 5.99v-4.84c0-.172.034-.292.12-.378.086-.069.24-.12.463-.12h1.58c.206 0 .36.051.446.12a.5.5 0 0 1 .137.378v5.08q0 1.572-.772 2.266c-.549.481-1.511.721-2.918.721s-2.386-.24-2.918-.72q-.773-.696-.773-2.266v-5.081c0-.172.035-.292.12-.378.086-.069.241-.12.464-.12h1.579c.206 0 .361.051.446.12a.5.5 0 0 1 .138.378v4.84c0 .395.051.653.188.79.138.155.378.223.756.223.36 0 .618-.069.755-.223.12-.137.189-.395.189-.79m11.785-2.283v4.858c0 .172-.051.31-.137.378-.086.086-.24.12-.446.12h-1.58c-.223 0-.377-.034-.463-.12-.086-.069-.12-.206-.12-.378v-4.858c0-.377-.069-.652-.189-.79-.137-.137-.395-.222-.755-.222h-.035c-.377 0-.618.085-.755.223-.137.137-.189.412-.189.79v4.857c0 .172-.051.31-.137.378-.086.086-.24.12-.446.12h-1.58c-.223 0-.377-.034-.463-.12-.086-.069-.12-.206-.12-.378V14.07c0-.172.034-.292.12-.36.086-.07.24-.121.463-.121h.807c.206 0 .344.034.429.086q.13.076.206.309l.103.326h.052c.549-.584 1.322-.876 2.351-.876h.069c.979 0 1.734.275 2.266.79.549-.515 1.339-.79 2.334-.79h.069c.996 0 1.734.24 2.18.704.412.447.635 1.202.635 2.266v5.098c0 .172-.051.31-.137.378-.086.086-.24.12-.446.12h-1.58c-.223 0-.377-.034-.463-.12-.086-.069-.12-.206-.12-.378v-4.858c0-.377-.069-.652-.189-.79-.137-.137-.395-.222-.755-.222h-.035c-.377 0-.618.085-.755.223-.137.137-.189.412-.189.79"/></svg>