<svg xmlns="http://www.w3.org/2000/svg" fill="none" viewBox="0 0 173 22"><path fill="#fff" d="M4.978 2.268v.47H2.38v-.47zm.408 0v6.399h-.5V2.268zm-3.181 0h.5L2.57 5.23a25 25 0 0 1-.093 1.292 6.6 6.6 0 0 1-.162.971q-.102.405-.264.664a1.03 1.03 0 0 1-.4.387q-.237.123-.576.123H.908v-.47l.141-.005a.8.8 0 0 0 .374-.101.73.73 0 0 0 .268-.299q.114-.206.184-.55.075-.346.123-.86a25 25 0 0 0 .08-1.222zm7.438 5.928v.47H6.655v-.47zM6.791 2.268v6.399h-.5V2.268zM9.27 5.133v.47H6.655v-.47zm.351-2.865v.47H6.655v-.47zm1.044 0v6.399h-.505V2.268zm3.354 0L11.645 5.67h-1.183l-.052-.475h.936l2.043-2.927zm-.462 6.399-2.22-3.063.287-.48 2.553 3.543zm2.767-6.012-1.841 6.012h-.519L16 2.268h.356zm1.657 6.012-1.846-6.012-.022-.387h.352l2.034 6.399zm-.29-2.26v.471h-2.883v-.47zm3-.342h-1.517v-.47h1.517q.47 0 .76-.185.29-.189.422-.505.135-.321.136-.716 0-.391-.136-.721a1.13 1.13 0 0 0-.422-.527q-.29-.203-.76-.203h-1.358v5.929h-.501V2.268h1.859q.588 0 .993.242.408.241.615.672.21.43.211.998 0 .588-.207 1.015a1.45 1.45 0 0 1-.61.646q-.405.224-1.002.224m5.689.607h.505q-.044.716-.29 1.177t-.676.686q-.427.225-1.024.224-.462 0-.83-.18a1.8 1.8 0 0 1-.634-.519 2.5 2.5 0 0 1-.4-.83 4 4 0 0 1-.136-1.099V4.76q0-.601.136-1.077.141-.48.405-.813.267-.338.646-.514.377-.176.848-.176.58 0 1.002.22.426.22.668.681.24.462.285 1.191h-.505q-.04-.588-.211-.945a1.06 1.06 0 0 0-.475-.514q-.308-.162-.764-.162-.37 0-.655.145a1.3 1.3 0 0 0-.479.413 2 2 0 0 0-.294.659 3.5 3.5 0 0 0-.101.883v1.38q0 .487.092.888.096.395.281.68.189.287.466.44.281.15.655.15.474 0 .782-.15.312-.15.483-.5.175-.357.22-.967m2.833-4.404v6.399h-.497V2.268zm1.824 0v.47H26.9v-.47zm2.27 3.322h-1.485l-.01-.461H33.1q.388 0 .655-.136a.92.92 0 0 0 .413-.405 1.4 1.4 0 0 0 .145-.659q0-.405-.14-.668a.85.85 0 0 0-.418-.39q-.276-.133-.699-.133h-1.111v5.929h-.501V2.268h1.613q.409 0 .733.101.33.097.559.303.228.202.347.519.123.316.123.752 0 .394-.154.711t-.43.519a1.36 1.36 0 0 1-.651.25zm-.035 3.077H31.65l.268-.47h1.354q.386 0 .659-.159.272-.162.418-.457.15-.298.149-.712 0-.36-.127-.65a1 1 0 0 0-.392-.457q-.263-.172-.672-.172h-.958l.009-.461h1.34l.097.167q.369.044.637.264.273.219.422.558.15.338.15.742 0 .585-.22.99-.221.4-.607.61-.387.207-.905.207m5.72-.47v.47h-2.988v-.47zM36.14 2.267v6.399h-.501V2.268zm2.478 2.865v.47h-2.614v-.47zm.352-2.865v.47h-2.966v-.47zm4.112 2.865v.47h-3.195v-.47zm-3.09-2.865v6.399h-.5V2.268zm3.507 0v6.399h-.505V2.268zm4.49 2.865v.47h-3.195v-.47zm-3.09-2.865v6.399h-.5V2.268zm3.507 0v6.399h-.505V2.268zm1.251 2.769h1.485q.585 0 .98.228.4.224.602.633.203.405.203.945 0 .4-.119.738a1.6 1.6 0 0 1-.338.576q-.225.242-.559.378a2.1 2.1 0 0 1-.769.132h-1.828V2.268h.506v5.928h1.322q.453 0 .739-.189.285-.19.413-.5a1.7 1.7 0 0 0 .132-.673q0-.355-.132-.655a1.06 1.06 0 0 0-.413-.487q-.285-.186-.739-.185h-1.485zm4.619-2.769v6.399h-.506V2.268zm1.448 5.445 2.984-5.445h.497v6.399h-.497V3.213l-2.984 5.454h-.5V2.268h.5zM58.062.695h.449q0 .334-.154.589-.15.255-.435.4a1.46 1.46 0 0 1-.677.145q-.594 0-.936-.317a1.07 1.07 0 0 1-.338-.817h.452q0 .303.185.527.184.22.637.22.44 0 .628-.224a.8.8 0 0 0 .19-.523m7.455 1.573v6.399h-.506V2.738h-2.966v5.929h-.505V2.268zm2.771 3.797h-1.516v-.47h1.516q.47 0 .76-.185.29-.189.422-.505.136-.321.136-.716 0-.391-.136-.721a1.13 1.13 0 0 0-.422-.527q-.29-.203-.76-.203H66.93v5.929h-.5V2.268h1.858q.59 0 .993.242.41.241.615.672.211.43.211.998 0 .588-.206 1.015a1.45 1.45 0 0 1-.611.646q-.405.224-1.002.224m5.716 2.131v.47h-2.989v-.47zm-2.852-5.928v6.399h-.501V2.268zm2.478 2.865v.47h-2.615v-.47zm.352-2.865v.47h-2.967v-.47zm4.516 0v6.399h-.506V2.738h-2.966v5.929h-.505V2.268zm2.714.387L79.37 8.667h-.519l2.035-6.399h.356zm1.657 6.012-1.846-6.012-.022-.387h.352l2.034 6.399zm-.29-2.26v.471h-2.883v-.47zm3-.342h-1.517v-.47h1.517q.47 0 .76-.185.29-.189.422-.505.135-.321.136-.716 0-.391-.136-.721a1.13 1.13 0 0 0-.422-.527q-.29-.203-.76-.203H84.22v5.929h-.501V2.268h1.859q.588 0 .993.242.408.241.615.672.21.43.21.998 0 .588-.206 1.015a1.45 1.45 0 0 1-.61.646q-.405.224-1.002.224m3.558-3.41-1.842 6.012h-.518l2.034-6.399h.356zm1.656 6.012-1.846-6.012-.021-.387h.351l2.035 6.399zm-.29-2.26v.471H87.62v-.47zm2.402-4.139v6.399h-.496V2.268zm1.824 0v.47h-4.135v-.47zm-.67 6.073q0-.153.097-.263a.34.34 0 0 1 .273-.11q.176 0 .277.11a.38.38 0 0 1 .1.263.36.36 0 0 1-.1.26.37.37 0 0 1-.277.105.35.35 0 0 1-.273-.105.37.37 0 0 1-.096-.26m7.029-6.073v6.399h-.506V2.738h-2.966v5.929h-.505V2.268zm4.265 5.928v.47h-2.988v-.47zm-2.852-5.928v6.399H102V2.268zm2.479 2.865v.47h-2.615v-.47zm.351-2.865v.47h-2.966v-.47zm2.38 3.797h-1.516v-.47h1.516q.47 0 .761-.185.29-.189.422-.505a1.8 1.8 0 0 0 .136-.716q0-.391-.136-.721a1.14 1.14 0 0 0-.422-.527q-.29-.203-.761-.203h-1.357v5.929h-.501V2.268h1.858q.59 0 .994.242.408.241.615.672.211.43.211.998 0 .588-.207 1.015a1.44 1.44 0 0 1-.611.646q-.404.224-1.002.224m5.716 2.131v.47h-2.988v-.47zm-2.852-5.928v6.399h-.501V2.268zm2.479 2.865v.47h-2.615v-.47zm.351-2.865v.47h-2.966v-.47zm4.692 5.928v.47h-4.192v-.47zm-4.091 0v2.026h-.501V8.196zm4.517 0v2.022h-.501V8.196zm-1.002-5.928v.47h-2.425v-.47zm.409 0v6.399h-.501V2.268zm-3.015 0h.497l-.088 2.316q-.027.615-.105 1.147-.075.528-.185.967-.105.435-.242.778a4 4 0 0 1-.281.593 2.2 2.2 0 0 1-.294.4.76.76 0 0 1-.286.198h-.286v-.47h.233q.093-.111.229-.36.141-.252.285-.678.15-.43.264-1.063.119-.638.158-1.512zm9.463 0v6.399h-.505V2.738h-2.967v5.929h-.505V2.268zm2.771 3.797h-1.516v-.47h1.516q.47 0 .761-.185.29-.189.422-.505a1.8 1.8 0 0 0 .136-.716q0-.391-.136-.721a1.14 1.14 0 0 0-.422-.527q-.29-.203-.761-.203h-1.358v5.929h-.501V2.268h1.859q.59 0 .994.242.408.241.615.672.21.43.211.998 0 .588-.207 1.015a1.45 1.45 0 0 1-.611.646q-.403.224-1.002.224m2.882 1.648 2.983-5.445h.497v6.399h-.497V3.213l-2.983 5.454h-.501V2.268h.501zm4.56-5.445h.505l1.938 5.625 1.947-5.625h.496l-2.245 6.399h-.387zm-.154 0h.439l.062 3.612v2.787h-.501zm4.763 0h.444v6.399h-.501V5.88zm4.692 5.928v.47h-2.988v-.47zm-2.852-5.928v6.399h-.501V2.268zm2.479 2.865v.47h-2.615v-.47zm.351-2.865v.47h-2.966v-.47zm4.112 2.865v.47h-3.195v-.47zm-3.089-2.865v6.399h-.501V2.268zm3.506 0v6.399h-.505V2.268zm4.253 5.928v.47h-2.989v-.47zM149.8 2.268v6.399h-.501V2.268zm2.478 2.865v.47h-2.615v-.47zm.352-2.865v.47h-2.967v-.47zm4.111 2.865v.47h-3.194v-.47zm-3.089-2.865v6.399h-.501V2.268zm3.507 0v6.399h-.505V2.268zm1.418 5.445 2.984-5.445h.496v6.399h-.496V3.213l-2.984 5.454h-.501V2.268h.501zm7.759.483v.47h-2.988v-.47zm-2.852-5.928v6.399h-.501V2.268zm2.478 2.865v.47h-2.614v-.47zm.352-2.865v.47h-2.966v-.47zm.675 0h.506l1.938 5.625 1.946-5.625h.497l-2.246 6.399h-.386zm-.154 0h.44l.061 3.612v2.787h-.501zm4.764 0h.444v6.399h-.501V5.88zm-166.177 11v6.399h-.506v-5.929H1.95v5.929h-.505v-6.399zm2.77 3.797H6.678v-.47h1.516q.47 0 .76-.185.29-.189.422-.505.136-.321.136-.716 0-.391-.136-.721a1.13 1.13 0 0 0-.422-.527q-.29-.203-.76-.203H6.835v5.929h-.5v-6.399h1.858q.59 0 .993.242.41.241.615.672.211.43.211.998 0 .588-.206 1.015a1.45 1.45 0 0 1-.611.646q-.405.224-1.002.224m6.323-1.288v1.385q0 .637-.145 1.125-.14.483-.409.808a1.7 1.7 0 0 1-.646.497 2.1 2.1 0 0 1-.86.167 2.1 2.1 0 0 1-.858-.167 1.8 1.8 0 0 1-.65-.497 2.3 2.3 0 0 1-.422-.808 4 4 0 0 1-.145-1.125v-1.384q0-.633.145-1.121.144-.488.413-.813.272-.325.65-.492.382-.172.857-.172.48 0 .862.172.383.167.654.492.273.325.413.813.141.488.141 1.12m-.497 1.385v-1.393q0-.528-.105-.919a1.9 1.9 0 0 0-.299-.659 1.24 1.24 0 0 0-.492-.396 1.6 1.6 0 0 0-.677-.131q-.369 0-.663.132-.291.131-.492.395a1.9 1.9 0 0 0-.304.66q-.105.39-.105.918v1.393q0 .531.105.927.105.39.308.66.207.263.496.395.295.132.664.132.383 0 .672-.132.294-.132.493-.396a1.9 1.9 0 0 0 .298-.659q.102-.396.101-.927m1.168-3.894h.5v1.776q.001.553.146.883.15.33.435.474.29.146.716.146.21 0 .418-.023a4.4 4.4 0 0 0 .8-.158q.197-.057.39-.127v.474a9 9 0 0 1-.369.123 4.143 4.143 0 0 1-1.24.18q-.565 0-.97-.193a1.32 1.32 0 0 1-.615-.628q-.21-.435-.211-1.151zm3.252 0h.496v6.399h-.496zm1.923 5.445 2.984-5.445h.497v6.399h-.497v-5.454l-2.984 5.454h-.5v-6.399h.5zm6.107-5.445v6.399h-.497v-6.399zm1.824 0v.47h-4.136v-.47zm1.857.387-1.841 6.012h-.519l2.035-6.399h.356zm1.657 6.012-1.846-6.012-.022-.387h.352l2.034 6.399zm-.29-2.26v.471h-2.883v-.47zm1.66 1.306 2.983-5.445h.497v6.399h-.497v-5.454l-2.984 5.454h-.5v-6.399h.5zm2.337-7.018h.448q0 .334-.154.589-.15.255-.435.4a1.46 1.46 0 0 1-.676.145q-.594 0-.936-.317a1.07 1.07 0 0 1-.339-.817h.453q0 .303.184.527.185.22.638.22.44 0 .628-.224a.8.8 0 0 0 .189-.523m3.9 1.573v6.399h-.496v-6.399zm1.825 0v.47h-4.136v-.47zm3.76 5.928v.47h-2.989v-.47zm-2.852-5.928v6.399h-.501v-6.399zm2.478 2.865v.47H42.01v-.47zm.352-2.865v.47h-2.967v-.47zm2.431 5.445 2.984-5.445h.497v6.399h-.497v-5.454l-2.984 5.454h-.5v-6.399h.5zm7.997-2.58v.47h-3.195v-.47zm-3.09-2.865v6.399h-.5v-6.399zm3.507 0v6.399h-.505v-6.399zm4.226 4.404h.505q-.044.716-.29 1.177t-.676.686q-.427.224-1.024.224-.462 0-.83-.18a1.8 1.8 0 0 1-.634-.519 2.5 2.5 0 0 1-.4-.83 4 4 0 0 1-.136-1.099V15.76q0-.602.136-1.077.141-.48.405-.813.267-.338.646-.514.377-.176.848-.176.579 0 1.002.22.426.22.668.681.24.462.285 1.191h-.505q-.04-.589-.21-.945a1.06 1.06 0 0 0-.476-.514q-.308-.163-.764-.163-.37 0-.655.146a1.3 1.3 0 0 0-.479.413 2 2 0 0 0-.294.659 3.5 3.5 0 0 0-.101.883v1.38q0 .487.092.888.096.395.281.68.189.287.466.44.281.15.655.15.474 0 .782-.15.312-.15.483-.5.175-.357.22-.967m2.833-4.404v6.399h-.497v-6.399zm1.824 0v.47h-4.136v-.47zm2.266 3.797h-1.516v-.47h1.516q.47 0 .76-.185.29-.189.422-.505.136-.321.136-.716 0-.391-.136-.721a1.13 1.13 0 0 0-.422-.527q-.29-.203-.76-.203h-1.358v5.929h-.501v-6.399h1.859q.588 0 .993.242.408.241.615.672.21.43.211.998 0 .588-.207 1.015a1.45 1.45 0 0 1-.61.646q-.405.224-1.002.224m4.085.453 1.551-4.25h.59l-2.027 5.3a13 13 0 0 1-.176.4 1.8 1.8 0 0 1-.246.387q-.144.18-.36.294a1.14 1.14 0 0 1-.523.11q-.084 0-.198-.018a.7.7 0 0 1-.153-.03l.035-.453a1 1 0 0 0 .149.022q.105.009.167.009.233 0 .382-.119a1 1 0 0 0 .255-.316q.105-.194.19-.41zm-1.604-4.25 1.749 4.215.145.492-.43.092-2.035-4.799zm4.696 0v6.399h-.505v-6.399zm3.353 0-2.373 3.402h-1.182l-.053-.475h.936l2.044-2.927zm-.461 6.399-2.22-3.063.286-.48 2.553 3.543zm5.46-.48-.039 2.022h-.457v-1.542h-.532v-.48zm-4.508.48v-6.399h.505v5.928h2.966v-5.928h.506v6.399zm5.5-.954 2.984-5.445h.497v6.399h-.497v-5.454l-2.984 5.454h-.5v-6.399h.5zm4.99-5.445v6.399h-.505v-6.399zm1.284 2.936v.457h-1.34v-.457zm3.84-.427v1.385q0 .637-.144 1.125-.14.483-.409.808a1.8 1.8 0 0 1-.65.497 2.1 2.1 0 0 1-.862.167q-.47 0-.852-.167a1.8 1.8 0 0 1-.655-.497 2.3 2.3 0 0 1-.422-.808 4 4 0 0 1-.145-1.125v-1.384q0-.633.145-1.121t.413-.813q.273-.325.655-.492a2.1 2.1 0 0 1 .852-.172q.484 0 .866.172.383.167.65.492.27.325.414.813t.145 1.12m-.5 1.385v-1.393q0-.528-.106-.919a1.9 1.9 0 0 0-.298-.659 1.24 1.24 0 0 0-.493-.396 1.6 1.6 0 0 0-.677-.131q-.373 0-.667.132-.29.131-.488.395a1.9 1.9 0 0 0-.303.66q-.105.39-.106.918v1.393q0 .531.101.927.106.39.312.66.207.263.497.395t.663.132q.383 0 .673-.132.294-.132.492-.396a1.9 1.9 0 0 0 .299-.659q.1-.396.1-.927m1.075 2.18q0-.154.096-.264a.34.34 0 0 1 .273-.11q.176 0 .277.11a.38.38 0 0 1 .1.263.36.36 0 0 1-.1.26.37.37 0 0 1-.277.105.35.35 0 0 1-.273-.105.37.37 0 0 1-.096-.26"/></svg>