<svg xmlns="http://www.w3.org/2000/svg" fill="none" viewBox="0 0 120 600"><g fill="#fff"><path d="M60.237 331.985c.542-.526 1.315-.805 2.305-.805h.14c.959 0 1.64.279 2.057.805.371.495.557 1.33.557 2.537v1.16c0 .65-.062 1.191-.155 1.594a2.2 2.2 0 0 1-.557 1.005c-.526.511-1.237.758-2.166.758h-.17q-.882 0-1.438-.325v2.383c0 .232-.047.387-.124.448-.093.062-.263.093-.526.093h-1.176c-.263 0-.433-.031-.526-.108-.093-.062-.124-.217-.124-.433v-9.282c0-.186.031-.31.124-.387.077-.062.217-.108.418-.108h.65c.185 0 .324.031.402.062a.6.6 0 0 1 .17.263l.108.34zm.572 2.197v1.98c0 .356.062.603.217.742.14.14.371.202.696.202h.14c.355 0 .603-.093.758-.31q.185-.279.185-1.346v-.665c0-.743-.062-1.207-.185-1.377-.155-.185-.403-.278-.774-.278h-.108c-.34 0-.573.077-.727.232-.14.139-.202.417-.202.82m7.769-2.027h.046c.34-.557.913-.835 1.733-.835h.618c.155 0 .279.031.34.093.063.061.109.17.109.34v1.129c0 .17-.031.279-.093.341q-.093.092-.325.092h-.464c-.572 0-.959.109-1.175.325-.186.186-.264.542-.264 1.068v3.743c0 .155-.046.279-.123.341-.078.077-.217.108-.403.108h-1.423c-.2 0-.34-.031-.417-.108-.078-.062-.109-.186-.109-.341v-6.698c0-.155.031-.263.109-.325.077-.062.216-.108.417-.108h.743c.17 0 .294.031.371.077a.63.63 0 0 1 .186.279zm5.944 2.352v1.206c0 .604.092.99.278 1.176.14.155.356.217.65.217h.062c.278 0 .495-.062.65-.217.185-.186.278-.572.278-1.176v-1.206c0-.588-.093-.991-.279-1.176-.154-.139-.37-.217-.65-.217h-.061c-.294 0-.51.078-.65.217-.186.185-.278.588-.278 1.176m4.409.092v1.006c0 .773-.078 1.361-.233 1.794a2.2 2.2 0 0 1-.742 1.037c-.51.402-1.3.603-2.382.603h-.186c-1.083 0-1.887-.201-2.383-.603a2.2 2.2 0 0 1-.742-1.037c-.155-.433-.232-1.021-.232-1.794v-.99c0-.758.077-1.346.232-1.779s.402-.774.742-1.052c.496-.402 1.3-.604 2.383-.604h.186c1.082 0 1.871.202 2.382.604.34.278.588.619.742 1.036.155.433.233 1.021.233 1.779m5.285-2.908h1.33c.216 0 .371.031.448.093s.14.185.17.371c0 .062.28 1.439.82 4.115h.047c.278-1.624.526-3.125.727-4.517.016-.17.062-.279.124-.34q.093-.093.325-.093h1.578c.17 0 .278.046.34.108.046.077.062.201.031.356a154 154 0 0 1-.897 3.991c-.34 1.454-.588 2.367-.743 2.754-.062.154-.14.263-.216.309-.078.047-.201.062-.356.062h-1.702c-.325 0-.526-.108-.588-.356-.294-1.052-.541-2.382-.758-3.991h-.062a42 42 0 0 1-.773 3.991c-.062.248-.248.356-.557.356h-1.67c-.31 0-.511-.108-.589-.34-.154-.418-.417-1.377-.789-2.862a72 72 0 0 1-.866-3.914c-.046-.17-.031-.294.03-.356.063-.062.186-.108.372-.108h1.516c.155 0 .279.031.356.093.062.061.108.185.14.34.216 1.439.463 2.939.757 4.517h.062c.372-1.918.635-3.295.758-4.115.031-.201.078-.325.155-.387.077-.046.232-.077.48-.077m9.362.077v6.683c0 .155-.046.279-.124.341-.077.077-.216.108-.402.108H91.63c-.201 0-.34-.031-.418-.108-.077-.062-.108-.186-.108-.341v-6.683c0-.154.031-.263.108-.34.078-.062.217-.108.418-.108h1.423c.186 0 .325.046.402.108a.46.46 0 0 1 .124.34m-1.145-1.036h-.185c-.836 0-1.253-.418-1.253-1.284v-.077c0-.851.417-1.285 1.253-1.285h.185c.836 0 1.253.434 1.253 1.285v.077c0 .866-.417 1.284-1.253 1.284m5.27 2.552h-2.46c-.154 0-.263-.015-.325-.077s-.077-.186-.077-.371v-1.068c0-.185.015-.294.077-.355q.093-.093.325-.093h5.229c.155 0 .263.031.34.093.062.061.109.185.109.355v.294c0 .403-.124.774-.341 1.099l-2.66 3.774h2.645c.155 0 .247.031.309.093s.093.17.093.356v1.067q0 .279-.093.372c-.062.062-.154.077-.309.077h-5.322c-.325 0-.48-.139-.48-.449v-.355c0-.403.109-.758.341-1.099zm4.028 8.37h-.897c-.155 0-.278-.031-.34-.109-.062-.061-.093-.201-.093-.386v-1.083c0-.155.031-.279.093-.341.062-.061.185-.108.34-.108h.387c.278 0 .495-.062.634-.216.124-.124.186-.449.186-.96v-6.683c0-.154.031-.263.108-.34.077-.062.217-.108.418-.108h1.423c.186 0 .325.046.402.108a.45.45 0 0 1 .124.34v6.854c0 1.113-.201 1.887-.603 2.336q-.627.696-2.182.696m1.64-10.922h-.185c-.836 0-1.253-.418-1.253-1.284v-.077c0-.851.417-1.285 1.253-1.285h.185c.836 0 1.253.434 1.253 1.285v.077c0 .866-.417 1.284-1.253 1.284m5.254 1.036v6.683c0 .155-.046.279-.124.341-.077.077-.216.108-.402.108h-1.423c-.201 0-.34-.031-.418-.108-.077-.062-.108-.186-.108-.341v-6.683c0-.154.031-.263.108-.34.078-.062.217-.108.418-.108h1.423c.186 0 .325.046.402.108a.45.45 0 0 1 .124.34m-1.145-1.036h-.185c-.836 0-1.253-.418-1.253-1.284v-.077c0-.851.417-1.285 1.253-1.285h.185c.836 0 1.254.434 1.254 1.285v.077c0 .866-.418 1.284-1.254 1.284"/><path d="M81.42 312.458v2.533c0 2.738-.583 4.834-1.719 6.261-1.164 1.456-3.086 2.155-5.765 2.155-2.68 0-4.601-.699-5.766-2.155-1.165-1.427-1.718-3.523-1.718-6.261v-2.533c0-2.737.553-4.805 1.718-6.261 1.165-1.427 3.087-2.155 5.766-2.155s4.6.728 5.765 2.155c1.136 1.456 1.719 3.524 1.719 6.261m-4.98 2.038v-1.543c0-1.893-.175-3.203-.466-3.902s-.96-1.078-1.98-1.078h-.117c-1.048.03-1.718.379-2.009 1.078s-.437 2.009-.437 3.902v1.543c0 1.922.146 3.204.437 3.902.291.699.961 1.078 2.01 1.078h.116c1.02 0 1.689-.35 1.98-1.048s.466-2.01.466-3.932m16.805-5.241v.291c0 1.922-.496 3.291-1.427 4.164-.874.699-2.01 1.048-3.35 1.048-1.513 0-2.65-.378-3.435-1.135-.874-.816-1.31-2.097-1.31-3.786v-.873c0-1.689.436-2.942 1.31-3.786.786-.757 1.922-1.136 3.436-1.136 1.34 0 2.475.35 3.349 1.049.931.873 1.427 2.271 1.427 4.164m-4.95 13.104 10.744-17.705c.146-.233.32-.408.495-.495.175-.058.437-.117.816-.117h2.126c.902 0 1.164.35.757 1.049l-10.746 17.705c-.174.262-.32.436-.495.495-.174.087-.466.116-.815.116h-2.126c-.932 0-1.165-.349-.757-1.048m-.642-13.745v1.573c0 .611.059 1.019.204 1.223.117.203.32.291.583.291h.058a.68.68 0 0 0 .582-.291c.117-.204.204-.612.204-1.223v-1.573c0-.582-.087-.99-.204-1.194a.7.7 0 0 0-.582-.32h-.058c-.262 0-.466.116-.583.32-.145.204-.204.612-.204 1.194m20.443 9.289v.292c0 1.922-.495 3.29-1.427 4.164-.874.699-2.009 1.048-3.349 1.048-1.514 0-2.65-.378-3.436-1.136-.874-.815-1.31-2.067-1.31-3.785v-.874c0-1.689.436-2.97 1.31-3.785.786-.758 1.922-1.136 3.436-1.136 1.34 0 2.475.349 3.349 1.048.932.874 1.427 2.272 1.427 4.164m-5.591-.64v1.572c0 .612.058 1.019.204 1.223.116.204.32.291.582.291h.058a.68.68 0 0 0 .583-.291c.116-.204.203-.611.203-1.223v-1.572c0-.583-.087-.99-.203-1.194a.71.71 0 0 0-.583-.32h-.058c-.262 0-.466.116-.582.32-.146.204-.204.611-.204 1.194"/><path d="M13.715 153.992h-.096a110 110 0 0 1-1.234 5.289q-.143.53-.914.529H10.03c-.288 0-.497-.032-.625-.112-.128-.064-.208-.193-.256-.385a110 110 0 0 1-2.004-9.455c-.032-.145 0-.257.064-.321q.096-.096.433-.096h1.587c.192 0 .352.032.448.08.097.064.145.176.177.337.545 3.67.913 6.026 1.074 7.067h.064c.128-.609.336-1.667.657-3.205.32-1.523.545-2.596.689-3.237.048-.273.272-.417.673-.417h1.314c.385 0 .61.144.673.417.128.641.353 1.714.673 3.237.32 1.538.545 2.596.673 3.205h.064c.08-.545.24-1.586.481-3.157.225-1.555.433-2.853.593-3.91.016-.161.08-.273.177-.337.096-.048.24-.08.448-.08h1.587c.208 0 .352.032.417.096.064.064.096.176.08.321-.657 3.622-1.33 6.763-2.004 9.455-.064.192-.144.321-.272.385-.128.08-.32.112-.609.112h-1.442q-.77 0-.914-.529a81 81 0 0 1-1.234-5.289m10.86 3.895h.176c.545 0 1.122-.064 1.699-.209.16-.032.256-.048.304-.048.16 0 .257.097.289.273l.128.801c.032.225.064.369.064.433 0 .192-.144.336-.416.433a7.4 7.4 0 0 1-2.42.384h-.305q-1.971 0-2.789-.817a2.3 2.3 0 0 1-.64-1.09c-.113-.417-.16-.978-.16-1.667v-.897c0-1.394.32-2.372.96-2.949.546-.481 1.379-.721 2.517-.721h.224c1.122 0 1.94.272 2.42.801.513.577.77 1.523.77 2.869v.833c0 .305-.16.449-.465.449h-3.847v.128c0 .385.096.641.32.785.21.145.594.209 1.17.209m-1.49-2.789h1.762c.128 0 .193-.064.193-.208v-.257c0-.32-.064-.56-.16-.737-.129-.192-.385-.288-.738-.288h-.144c-.32 0-.545.08-.673.224q-.24.288-.24.866zm8.285-1.106h-2.548c-.16 0-.272-.016-.336-.08s-.08-.192-.08-.384v-1.106c0-.192.016-.305.08-.369q.096-.096.336-.096h5.417c.16 0 .273.032.353.096.064.064.112.193.112.369v.304c0 .417-.128.802-.353 1.138l-2.756 3.911h2.74c.16 0 .257.032.32.096.065.064.097.176.097.368v1.106q0 .29-.096.385c-.064.064-.16.08-.32.08h-5.514c-.336 0-.497-.144-.497-.465v-.368c0-.417.113-.786.353-1.138zm-1.234-4.15 2.517-2.148a.45.45 0 0 1 .304-.144c.112 0 .224.08.32.208l.77.994a.47.47 0 0 1 .096.272c0 .128-.096.257-.257.385l-2.532 1.731a.6.6 0 0 1-.32.112c-.128 0-.257-.064-.385-.224l-.48-.561c-.129-.145-.177-.273-.177-.369s.048-.192.144-.256m-18.216 20.5h1.378c.225 0 .385.032.465.096s.144.192.176.384c0 .065.289 1.491.85 4.264h.048c.288-1.683.545-3.238.753-4.68.016-.176.064-.289.128-.353q.097-.096.337-.096h1.635c.176 0 .288.048.352.112.048.08.064.209.032.369-.256 1.25-.577 2.628-.93 4.135-.352 1.506-.608 2.452-.769 2.852-.064.161-.144.273-.224.321s-.208.064-.368.064H14.02c-.337 0-.545-.112-.61-.369-.304-1.089-.56-2.468-.785-4.134h-.064a44 44 0 0 1-.801 4.134c-.064.257-.257.369-.577.369H9.452c-.32 0-.529-.112-.609-.353-.16-.432-.433-1.426-.817-2.964a75 75 0 0 1-.898-4.055c-.048-.176-.032-.305.032-.369s.193-.112.385-.112h1.57c.16 0 .289.032.37.096.063.064.111.193.143.353.225 1.49.481 3.045.786 4.68h.064c.384-1.988.657-3.414.785-4.264.032-.208.08-.336.16-.4.08-.048.24-.08.497-.08m15.21 6.811h-.033c-.352.545-1.057.801-2.1.801h-.24c-.817 0-1.458-.208-1.907-.625-.464-.416-.689-1.042-.689-1.843v-.176c0-.866.24-1.491.737-1.843.497-.353 1.299-.529 2.42-.529h.113c.416 0 .8.032 1.121.064v-.336c0-.337-.096-.577-.272-.706-.192-.112-.513-.176-.962-.176-.545 0-1.154.096-1.859.273-.192.048-.336.048-.4 0-.08-.049-.129-.145-.145-.305l-.128-.849c-.032-.145-.032-.257-.032-.321 0-.192.128-.336.385-.417.817-.224 1.73-.352 2.74-.352 1.234 0 2.116.272 2.629.785.4.417.609 1.09.609 2.003v4.76c0 .161-.048.289-.129.353-.08.064-.224.096-.416.096h-.753c-.193 0-.321-.016-.401-.064s-.144-.144-.192-.305zm-.578-2.051v-.449a4.6 4.6 0 0 0-.769-.048h-.176q-.577 0-.817.144c-.16.096-.225.288-.225.577v.064c0 .288.064.481.225.577.144.112.368.16.673.16h.112c.32 0 .56-.08.753-.24.144-.128.224-.401.224-.785m6.055-4.456c.561-.545 1.363-.833 2.388-.833h.145c.993 0 1.698.288 2.131.833.385.513.577 1.378.577 2.629v1.202c0 .673-.064 1.234-.16 1.65a2.3 2.3 0 0 1-.577 1.042c-.545.529-1.282.785-2.244.785h-.176q-.915 0-1.49-.336v2.468c0 .24-.049.4-.129.465-.096.064-.272.096-.545.096H31.31c-.272 0-.448-.032-.545-.113-.096-.064-.128-.224-.128-.448v-9.616c0-.192.032-.321.128-.401.08-.064.225-.112.433-.112h.673c.192 0 .337.032.417.064a.6.6 0 0 1 .176.273l.112.352zm.593 2.276v2.051c0 .369.064.625.225.77.144.144.384.208.721.208h.144c.369 0 .625-.096.785-.321q.193-.288.193-1.394v-.689c0-.769-.064-1.25-.193-1.426-.16-.193-.416-.289-.8-.289h-.113c-.353 0-.593.08-.753.241-.145.144-.209.432-.209.849m8.897 2.805h.513c.16 0 .288.048.353.112.064.08.112.224.112.432v.994c0 .224-.048.369-.112.433-.065.08-.193.112-.353.112h-1.218c-.801 0-1.362-.144-1.683-.465-.32-.304-.48-.849-.48-1.618v-8.302c0-.16.032-.273.112-.353.08-.064.224-.112.432-.112h1.475c.192 0 .336.048.416.112.08.08.129.193.129.353v7.997c0 .128.016.208.064.24.032.049.112.065.24.065m4.626-5.305v6.923c0 .16-.048.289-.128.353-.08.08-.224.112-.416.112h-1.475c-.208 0-.352-.032-.433-.112-.08-.064-.112-.193-.112-.353v-6.923c0-.16.032-.273.112-.353.08-.064.225-.112.433-.112h1.474c.193 0 .337.048.417.112.08.08.128.193.128.353m-1.185-1.074h-.193c-.865 0-1.298-.433-1.298-1.33v-.08c0-.882.433-1.33 1.298-1.33h.193c.865 0 1.298.448 1.298 1.33v.08c0 .897-.433 1.33-1.298 1.33m5.41 5.353v2.644c0 .16-.048.289-.128.353-.08.08-.224.112-.416.112h-1.475c-.208 0-.352-.032-.433-.112-.08-.064-.112-.193-.112-.353v-9.92c0-.16.032-.273.112-.353.08-.064.225-.112.433-.112h1.474c.193 0 .337.048.417.112.08.08.128.193.128.353v5.224h.113l1.522-2.323c.144-.241.369-.369.673-.369h1.86c.176 0 .272.064.272.192 0 .064-.048.177-.128.305l-1.843 2.756c-.145.225-.209.385-.209.481 0 .112.064.273.209.481l1.97 3.109c.065.128.097.208.097.273 0 .176-.112.256-.337.256h-1.779c-.224 0-.4-.016-.496-.08q-.145-.072-.289-.337l-1.522-2.692zm9.987 2.452h-.032c-.352.545-1.058.801-2.1.801h-.24c-.817 0-1.458-.208-1.907-.625-.465-.416-.69-1.042-.69-1.843v-.176c0-.866.241-1.491.738-1.843.497-.353 1.298-.529 2.42-.529h.112c.417 0 .802.032 1.122.064v-.336c0-.337-.096-.577-.272-.706-.193-.112-.513-.176-.962-.176-.545 0-1.154.096-1.859.273-.192.048-.337.048-.4 0-.08-.049-.129-.145-.145-.305l-.128-.849c-.032-.145-.032-.257-.032-.321 0-.192.128-.336.384-.417.818-.224 1.731-.352 2.741-.352 1.234 0 2.115.272 2.628.785.401.417.61 1.09.61 2.003v4.76c0 .161-.049.289-.129.353s-.224.096-.416.096h-.754c-.192 0-.32-.016-.4-.064s-.145-.144-.193-.305zm-.577-2.051v-.449a4.6 4.6 0 0 0-.77-.048h-.175q-.577 0-.818.144c-.16.096-.224.288-.224.577v.064c0 .288.064.481.224.577.145.112.369.16.673.16h.112c.321 0 .561-.08.754-.24.144-.128.224-.401.224-.785m7.77.785h.128c.433 0 .898-.064 1.394-.209.16-.032.257-.048.305-.048.16 0 .256.097.288.273l.145.817c.032.225.064.369.064.433 0 .192-.144.336-.417.433-.705.256-1.474.368-2.308.368h-.192c-1.154 0-2.003-.256-2.532-.801q-.817-.817-.817-2.741v-.929c0-.753.064-1.346.192-1.763q.192-.625.625-1.058c.56-.561 1.442-.849 2.644-.849h.16c.962 0 1.795.176 2.468.529.193.112.305.24.305.4 0 .097-.048.257-.128.481l-.305.769q-.12.29-.336.289a.65.65 0 0 1-.289-.08c-.513-.209-.993-.321-1.426-.321h-.064c-.417 0-.721.112-.914.305-.24.24-.352.737-.352 1.474v.545c0 .657.096 1.106.32 1.346.209.225.561.337 1.042.337m3.303 4.776h-.93c-.16 0-.288-.032-.352-.112-.064-.065-.096-.209-.096-.401v-1.122c0-.16.032-.288.096-.353.064-.064.192-.112.352-.112h.401c.289 0 .513-.064.657-.224.128-.128.192-.465.192-.994v-6.923c0-.16.033-.273.113-.353.08-.064.224-.112.432-.112h1.475c.192 0 .336.048.417.112.08.08.128.193.128.353v7.1c0 1.153-.209 1.955-.625 2.42q-.65.72-2.26.721m1.699-11.315h-.192c-.866 0-1.299-.433-1.299-1.33v-.08c0-.882.433-1.33 1.299-1.33h.192c.865 0 1.298.448 1.298 1.33v.08c0 .897-.433 1.33-1.298 1.33m5.443 1.074v6.923c0 .16-.048.289-.128.353-.08.08-.225.112-.417.112h-1.475c-.208 0-.352-.032-.432-.112-.08-.064-.112-.193-.112-.353v-6.923c0-.16.032-.273.112-.353.08-.064.224-.112.433-.112h1.474c.192 0 .336.048.417.112.08.08.128.193.128.353m-1.186-1.074h-.192c-.866 0-1.299-.433-1.299-1.33v-.08c0-.882.433-1.33 1.299-1.33h.192c.865 0 1.298.448 1.298 1.33v.08c0 .897-.433 1.33-1.298 1.33m-67.005 21.574v2.051c0 .369.064.625.224.77.128.144.369.208.721.208h.144c.369 0 .625-.096.786-.321q.192-.288.192-1.394v-.689c0-.801-.08-1.298-.208-1.458-.145-.161-.417-.257-.802-.257h-.064c-.368 0-.625.08-.785.241-.144.144-.208.432-.208.849m0-2.676h.032q.696-.433 1.827-.433h.144c.962 0 1.667.288 2.1.865.352.497.544 1.379.544 2.645v1.154c0 1.282-.272 2.179-.817 2.676-.577.545-1.49.801-2.74.801h-.321c-1.314 0-2.212-.256-2.693-.785-.432-.465-.64-1.218-.64-2.276v-7.468c0-.16.031-.273.112-.353.064-.064.208-.112.416-.112h1.49c.193 0 .337.048.417.112.08.08.129.193.129.353zm9.842 5.641h.176c.545 0 1.122-.064 1.699-.209.16-.032.256-.048.305-.048.16 0 .256.097.288.273l.128.801c.032.225.064.369.064.433 0 .192-.144.336-.416.433a7.4 7.4 0 0 1-2.42.384h-.305q-1.971 0-2.788-.817a2.3 2.3 0 0 1-.641-1.09c-.113-.417-.16-.978-.16-1.667v-.897c0-1.394.32-2.372.96-2.949.546-.481 1.38-.721 2.517-.721h.224c1.122 0 1.94.272 2.42.801.513.577.77 1.523.77 2.869v.833c0 .305-.16.449-.465.449h-3.846v.128c0 .385.096.641.32.785.208.145.593.209 1.17.209m-1.49-2.789h1.762c.129 0 .193-.064.193-.208v-.257c0-.32-.064-.56-.16-.737-.129-.192-.385-.288-.738-.288h-.144c-.32 0-.545.08-.673.224q-.24.288-.24.866zm8.285-1.106h-2.548c-.16 0-.272-.016-.336-.08s-.08-.192-.08-.384v-1.106c0-.192.016-.305.08-.369q.096-.096.336-.096h5.417c.16 0 .273.032.353.096.064.064.112.193.112.369v.304c0 .417-.128.802-.353 1.138l-2.756 3.911h2.74c.16 0 .257.032.32.096.065.064.097.176.097.368v1.106q0 .29-.096.385c-.064.064-.16.08-.32.08H24.47c-.336 0-.497-.144-.497-.465v-.368c0-.417.113-.786.353-1.138zm10.55 0h-2.55c-.16 0-.271-.016-.336-.08-.064-.064-.08-.192-.08-.384v-1.106c0-.192.016-.305.08-.369q.097-.096.337-.096h5.417c.16 0 .272.032.352.096.064.064.113.193.113.369v.304c0 .417-.129.802-.353 1.138l-2.757 3.911h2.741c.16 0 .256.032.32.096.065.064.097.176.097.368v1.106q0 .29-.097.385c-.064.064-.16.08-.32.08H35.02c-.337 0-.497-.144-.497-.465v-.368c0-.417.112-.786.353-1.138zm9.093 5.161h-.032c-.353.545-1.058.801-2.1.801h-.24c-.818 0-1.459-.208-1.907-.625-.465-.416-.69-1.042-.69-1.843v-.176c0-.866.24-1.491.738-1.843.496-.353 1.298-.529 2.42-.529h.112c.416 0 .801.032 1.122.064v-.336c0-.337-.096-.577-.273-.706-.192-.112-.513-.176-.961-.176-.545 0-1.154.096-1.86.273-.192.048-.336.048-.4 0-.08-.049-.128-.145-.144-.305l-.129-.849c-.032-.145-.032-.257-.032-.321 0-.192.129-.336.385-.417.817-.224 1.73-.352 2.74-.352 1.235 0 2.116.272 2.629.785.4.417.609 1.09.609 2.003v4.76c0 .161-.048.289-.128.353s-.225.096-.417.096h-.753c-.193 0-.32-.016-.4-.064s-.145-.144-.193-.305zm-.577-2.051v-.449a4.6 4.6 0 0 0-.77-.048h-.176q-.577 0-.817.144c-.16.096-.225.288-.225.577v.064c0 .288.064.481.225.577.144.112.368.16.673.16h.112c.32 0 .561-.08.753-.24.145-.128.225-.401.225-.785m6.648-.401v2.644c0 .16-.048.289-.129.353-.08.08-.224.112-.416.112h-1.475c-.208 0-.352-.032-.432-.112-.08-.064-.113-.193-.113-.353v-9.92c0-.16.032-.273.113-.353.08-.064.224-.112.432-.112h1.475c.192 0 .336.048.416.112.08.08.129.193.129.353v5.224h.112l1.522-2.323c.145-.241.369-.369.673-.369h1.86c.176 0 .272.064.272.192 0 .064-.048.177-.128.305L55.2 191.21c-.145.225-.209.385-.209.481 0 .112.064.273.209.481l1.97 3.109c.065.128.097.208.097.273 0 .176-.112.256-.337.256h-1.778c-.225 0-.401-.016-.497-.08q-.144-.072-.289-.337l-1.522-2.692zm8.688 1.026h.513c.16 0 .288.048.353.112.064.08.112.224.112.432v.994c0 .224-.048.369-.112.433-.065.08-.193.112-.353.112h-1.218c-.801 0-1.362-.144-1.683-.465-.32-.304-.48-.849-.48-1.618v-1.731l-.53.336c-.208.128-.352.193-.416.193-.128 0-.176-.097-.176-.289v-1.49c0-.161.016-.273.08-.353a1.4 1.4 0 0 1 .304-.272l.737-.465v-4.231c0-.16.032-.273.113-.353.08-.064.224-.112.432-.112h1.475c.192 0 .336.048.416.112.08.08.129.193.129.353v2.596l.72-.465c.193-.128.337-.192.417-.192.113 0 .177.096.177.289v1.49c0 .16-.032.288-.08.353-.064.08-.16.176-.305.272l-.93.593v3.061c0 .128.017.208.065.24.032.049.112.065.24.065m6.667 1.426h-.032c-.353.545-1.058.801-2.1.801h-.24c-.818 0-1.459-.208-1.907-.625-.465-.416-.69-1.042-.69-1.843v-.176c0-.866.24-1.491.737-1.843.497-.353 1.299-.529 2.42-.529h.113c.416 0 .801.032 1.122.064v-.336c0-.337-.097-.577-.273-.706-.192-.112-.513-.176-.962-.176-.544 0-1.153.096-1.858.273-.193.048-.337.048-.401 0-.08-.049-.128-.145-.144-.305l-.129-.849c-.032-.145-.032-.257-.032-.321 0-.192.128-.336.385-.417.817-.224 1.73-.352 2.74-.352 1.234 0 2.116.272 2.629.785.4.417.609 1.09.609 2.003v4.76c0 .161-.048.289-.128.353s-.225.096-.417.096h-.753c-.193 0-.32-.016-.401-.064-.08-.048-.144-.144-.192-.305zm-.577-2.051v-.449a4.6 4.6 0 0 0-.77-.048h-.176q-.577 0-.817.144c-.16.096-.225.288-.225.577v.064c0 .288.064.481.225.577.144.112.368.16.673.16h.112c.32 0 .56-.08.753-.24.144-.128.225-.401.225-.785m8.475-.129v-2.035c0-.401-.065-.689-.193-.849-.144-.161-.4-.257-.753-.257h-.16c-.353 0-.593.096-.737.273-.16.176-.225.673-.225 1.506v.705c0 .77.08 1.25.24 1.411.129.16.37.224.738.224h.176c.304 0 .529-.064.69-.208.143-.145.224-.401.224-.77m-.032-4.872h.032v-2.676c0-.16.032-.273.112-.353.08-.064.224-.112.432-.112h1.49c.193 0 .337.048.418.112.064.08.112.193.112.353v7.292c0 1.122-.209 1.891-.625 2.34-.305.32-.673.561-1.106.689-.449.144-1.042.208-1.795.208h-.273c-1.186 0-2.035-.24-2.58-.721-.56-.481-.833-1.378-.833-2.708v-1.283c0-1.282.256-2.179.801-2.692.513-.481 1.218-.737 2.132-.737h.192q.914 0 1.49.288m8.755 7.052h-.032c-.353.545-1.058.801-2.1.801h-.24c-.818 0-1.459-.208-1.907-.625-.465-.416-.69-1.042-.69-1.843v-.176c0-.866.24-1.491.738-1.843.497-.353 1.298-.529 2.42-.529h.112c.416 0 .801.032 1.122.064v-.336c0-.337-.097-.577-.273-.706-.192-.112-.513-.176-.961-.176-.545 0-1.154.096-1.86.273-.192.048-.336.048-.4 0-.08-.049-.128-.145-.144-.305l-.129-.849c-.032-.145-.032-.257-.032-.321 0-.192.129-.336.385-.417.817-.224 1.73-.352 2.74-.352 1.235 0 2.116.272 2.629.785.4.417.609 1.09.609 2.003v4.76c0 .161-.048.289-.128.353s-.225.096-.417.096h-.753c-.192 0-.32-.016-.4-.064s-.145-.144-.193-.305zm-.577-2.051v-.449a4.6 4.6 0 0 0-.77-.048h-.176q-.577 0-.817.144c-.16.096-.225.288-.225.577v.064c0 .288.064.481.225.577.144.112.368.16.673.16h.112c.32 0 .561-.08.753-.24.145-.128.225-.401.225-.785m8.314-5.289h.129c.93 0 1.618.224 2.035.657.385.417.593 1.122.593 2.115v4.76c0 .16-.048.289-.128.353-.08.08-.225.112-.417.112h-1.474c-.209 0-.353-.032-.433-.112-.08-.064-.112-.193-.112-.353v-4.535c0-.353-.064-.609-.177-.737-.128-.129-.368-.209-.705-.209h-.096c-.353 0-.577.08-.705.209-.128.128-.176.384-.176.737v4.535c0 .16-.048.289-.129.353-.08.08-.224.112-.416.112H88.76c-.208 0-.352-.032-.432-.112-.08-.064-.113-.193-.113-.353v-6.939c0-.16.032-.273.113-.337.08-.064.224-.112.432-.112h.754c.192 0 .32.032.4.08q.12.072.192.289l.097.304h.048c.513-.545 1.234-.817 2.195-.817m6.88.609v6.923c0 .16-.048.289-.128.353-.08.08-.225.112-.417.112h-1.475c-.208 0-.352-.032-.432-.112-.08-.064-.112-.193-.112-.353v-6.923c0-.16.031-.273.112-.353.08-.064.224-.112.432-.112h1.475c.192 0 .336.048.416.112.08.08.129.193.129.353m-1.186-1.074h-.193c-.865 0-1.298-.433-1.298-1.33v-.08c0-.882.433-1.33 1.298-1.33h.193c.865 0 1.298.448 1.298 1.33v.08c0 .897-.433 1.33-1.298 1.33m7.478 7.805h-.032c-.353.545-1.058.801-2.099.801h-.241c-.817 0-1.458-.208-1.907-.625-.465-.416-.689-1.042-.689-1.843v-.176c0-.866.24-1.491.737-1.843.497-.353 1.298-.529 2.42-.529h.112c.417 0 .802.032 1.122.064v-.336c0-.337-.096-.577-.272-.706-.193-.112-.513-.176-.962-.176-.545 0-1.154.096-1.859.273-.192.048-.337.048-.401 0-.08-.049-.128-.145-.144-.305l-.128-.849c-.032-.145-.032-.257-.032-.321 0-.192.128-.336.385-.417.817-.224 1.73-.352 2.74-.352 1.234 0 2.116.272 2.628.785.401.417.609 1.09.609 2.003v4.76c0 .161-.048.289-.128.353s-.224.096-.417.096h-.753c-.192 0-.32-.016-.4-.064s-.145-.144-.193-.305zm-.577-2.051v-.449a4.6 4.6 0 0 0-.769-.048h-.176q-.578 0-.818.144c-.16.096-.224.288-.224.577v.064c0 .288.064.481.224.577.144.112.369.16.673.16h.113c.32 0 .56-.08.753-.24.144-.128.224-.401.224-.785m-94.66 17.599v2.644c0 .16-.047.289-.128.353-.08.08-.224.112-.416.112H8.362c-.208 0-.352-.032-.432-.112-.08-.064-.113-.193-.113-.353v-9.92c0-.16.032-.273.113-.353.08-.064.224-.112.432-.112h1.475c.192 0 .336.048.416.112.08.08.129.193.129.353v5.224h.112l1.522-2.323c.145-.241.369-.369.673-.369h1.86c.176 0 .272.064.272.192 0 .064-.048.177-.128.305l-1.843 2.756c-.145.225-.209.385-.209.481 0 .112.064.273.209.481l1.97 3.109c.065.128.097.208.097.273 0 .176-.112.256-.336.256H12.8c-.224 0-.4-.016-.496-.08q-.145-.072-.289-.337l-1.522-2.692zm7.554-1.443v1.251c0 .625.096 1.025.289 1.218.144.16.368.224.673.224h.064c.288 0 .513-.064.673-.224.192-.193.288-.593.288-1.218v-1.251c0-.609-.096-1.025-.288-1.218-.16-.144-.385-.224-.673-.224h-.064c-.305 0-.529.08-.673.224-.193.193-.289.609-.289 1.218m4.568.097v1.041c0 .802-.08 1.411-.24 1.859a2.3 2.3 0 0 1-.77 1.074c-.529.417-1.346.625-2.468.625h-.192c-1.122 0-1.955-.208-2.468-.625a2.3 2.3 0 0 1-.77-1.074c-.16-.448-.24-1.057-.24-1.859v-1.025c0-.786.08-1.395.24-1.843a2.4 2.4 0 0 1 .77-1.09c.513-.417 1.346-.625 2.468-.625h.192c1.122 0 1.94.208 2.468.625.353.288.61.641.77 1.074.16.448.24 1.057.24 1.843m5.603-3.542h.128c.93 0 1.619.224 2.036.657.384.417.593 1.122.593 2.115v4.76c0 .16-.049.289-.129.353-.08.08-.224.112-.416.112h-1.475c-.208 0-.352-.032-.433-.112-.08-.064-.112-.193-.112-.353v-4.535c0-.353-.064-.609-.176-.737-.128-.129-.369-.209-.705-.209h-.096c-.353 0-.577.08-.705.209-.129.128-.177.384-.177.737v4.535c0 .16-.048.289-.128.353-.08.08-.224.112-.417.112H24.42c-.208 0-.353-.032-.433-.112-.08-.064-.112-.193-.112-.353v-6.939c0-.16.032-.273.112-.337s.225-.112.433-.112h.753c.193 0 .32.032.4.08q.121.072.193.289l.096.304h.048c.513-.545 1.234-.817 2.196-.817m9.3 6.491v.913c0 .24-.049.401-.113.481s-.208.112-.4.112H35.61c-1.154 0-1.923-.192-2.275-.593-.32-.337-.465-.978-.465-1.939v-3.318h-.866c-.16 0-.256-.016-.32-.08s-.08-.16-.08-.32v-.818c0-.192.016-.32.08-.384.048-.064.16-.112.336-.161l.85-.208v-1.57c0-.161.032-.273.112-.353.08-.064.224-.112.433-.112h1.474c.192 0 .337.048.417.112.08.08.128.192.128.353v1.538h1.33c.16 0 .257.032.32.096.065.064.097.177.097.369v1.074q0 .288-.096.384c-.064.064-.16.08-.32.08h-1.33v3.029c0 .289.031.465.127.561.096.112.305.161.625.161h.706c.192 0 .336.048.4.128s.112.24.112.465m5.844.849h-.032c-.353.545-1.058.801-2.1.801h-.24c-.818 0-1.459-.208-1.907-.625-.465-.416-.69-1.042-.69-1.843v-.176c0-.866.24-1.491.738-1.843.497-.353 1.298-.529 2.42-.529h.112c.417 0 .801.032 1.122.064v-.336c0-.337-.096-.577-.273-.706-.192-.112-.512-.176-.961-.176-.545 0-1.154.096-1.86.273-.192.048-.336.048-.4 0-.08-.049-.128-.145-.144-.305l-.128-.849c-.032-.145-.032-.257-.032-.321 0-.192.128-.336.384-.417.818-.224 1.731-.352 2.74-.352 1.235 0 2.116.272 2.629.785.4.417.609 1.09.609 2.003v4.76c0 .161-.048.289-.128.353s-.225.096-.417.096h-.753c-.193 0-.32-.016-.4-.064s-.145-.144-.193-.305zm-.577-2.051v-.449a4.6 4.6 0 0 0-.77-.048h-.176q-.577 0-.817.144c-.16.096-.224.288-.224.577v.064c0 .288.064.481.224.577.144.112.369.16.673.16h.112c.32 0 .561-.08.753-.24.145-.128.225-.401.225-.785"/></g></svg>