<svg xmlns="http://www.w3.org/2000/svg" fill="none" viewBox="0 0 120 600"><path fill="#fff" d="M84.222 337.358v-7.733q0-.23.23-.267c.51-.089 1.082-.14 1.745-.14 1.962 0 2.943.764 2.943 2.267v.268c0 .56-.14 1.019-.408 1.388-.28.37-.662.625-1.172.752l2.09 3.491c.076.127.038.191-.103.191h-.662a.24.24 0 0 1-.217-.115l-1.974-3.414c-.102.013-.268.013-.472.013-.535 0-.917 0-1.12-.013v3.312c0 .153-.077.217-.205.217h-.458c-.153 0-.217-.064-.217-.217m.88-7.147v3.109c.432.025.853.025 1.26.025.638 0 1.109-.127 1.402-.382s.446-.688.446-1.287v-.165c0-.574-.166-.981-.471-1.223-.306-.23-.816-.357-1.53-.357-.407 0-.713.025-.917.051-.089.013-.14.038-.165.064-.026.025-.026.089-.026.165m5.739 7.147v-7.733q0-.23.23-.267c.509-.089 1.082-.14 1.745-.14 1.962 0 2.943.764 2.943 2.267v.268c0 .56-.14 1.019-.408 1.388-.28.37-.662.625-1.172.752l2.09 3.491c.076.127.037.191-.103.191h-.662a.24.24 0 0 1-.217-.115l-1.974-3.414c-.102.013-.268.013-.472.013-.535 0-.917 0-1.12-.013v3.312c0 .153-.077.217-.205.217h-.458c-.153 0-.217-.064-.217-.217m.88-7.147v3.109c.432.025.853.025 1.26.025.637 0 1.109-.127 1.402-.382s.446-.688.446-1.287v-.165c0-.574-.166-.981-.472-1.223-.305-.23-.815-.357-1.528-.357-.408 0-.714.025-.918.051-.089.013-.14.038-.165.064-.026.025-.026.089-.026.165m7.599 7.479c-.79 0-1.49-.115-2.115-.37-.115-.038-.153-.114-.127-.216l.102-.421c.025-.127.114-.153.267-.102.586.268 1.21.395 1.847.395.587 0 1.032-.127 1.338-.395.306-.267.459-.649.459-1.159v-.14c0-.459-.102-.79-.281-.994-.178-.204-.535-.382-1.07-.51l-.853-.203c-.624-.153-1.083-.383-1.376-.714-.293-.318-.433-.764-.433-1.35v-.191c0-.676.216-1.198.65-1.555.433-.356 1.031-.547 1.796-.547.688 0 1.286.089 1.822.242.14.051.191.14.165.28l-.089.306q-.057.19-.306.114a5.5 5.5 0 0 0-1.567-.229c-1.057 0-1.58.471-1.58 1.401v.128c0 .433.102.739.306.93s.548.344 1.032.446l.803.191c.688.165 1.172.408 1.452.713q.42.478.421 1.414v.204c0 .777-.23 1.363-.688 1.746-.459.395-1.109.586-1.975.586m4.775-4.408v.344c0 1.401.192 2.318.574 2.764.331.395.841.586 1.516.586.739 0 1.261-.216 1.592-.662.332-.459.497-1.351.497-2.688v-.344c0-.663-.038-1.211-.102-1.644-.063-.433-.191-.777-.395-1.057-.331-.433-.853-.65-1.592-.65q-1.09 0-1.567.65c-.357.458-.523 1.363-.523 2.701m5.109-.153v.662c0 1.478-.267 2.497-.777 3.083-.484.548-1.223.816-2.242.816-.956 0-1.669-.242-2.153-.727-.586-.586-.867-1.643-.867-3.172v-.662c0-1.478.268-2.523.803-3.122.471-.522 1.21-.789 2.217-.789.994 0 1.732.267 2.217.789.535.599.802 1.644.802 3.122"/><path fill="#fff" d="M32.544 314.512h.233c.932 0 1.718-.175 2.388-.525v-.407c0-1.602-.175-2.679-.495-3.233-.32-.553-.903-.844-1.776-.844h-.262q-2.184 0-2.184 2.359v.262c0 .873.145 1.485.495 1.834.35.379.873.554 1.601.554m-5.27 9.726c-.35-.117-.495-.321-.495-.67q0-.175.087-.524l.466-1.864c.116-.466.466-.641.99-.495 1.398.437 2.62.641 3.669.641h.087c1.049 0 1.777-.262 2.243-.845q.698-.83.786-2.621c-.961.408-2.01.583-3.145.583h-.32c-2.068 0-3.553-.495-4.485-1.544-.932-1.019-1.369-2.591-1.369-4.688v-.408c0-1.863.554-3.348 1.69-4.455 1.135-1.077 2.795-1.631 4.979-1.631h.408c2.62 0 4.484.699 5.532 2.039 1.049 1.339 1.602 3.552 1.602 6.639v.699c0 1.66-.146 3.087-.437 4.31s-.67 2.213-1.136 2.912a5.3 5.3 0 0 1-1.776 1.718c-.699.437-1.398.728-2.096.844-.7.146-1.515.204-2.417.204h-.03c-1.688 0-3.32-.262-4.833-.844m17.445-4.223h.407c.874 0 1.486.233 1.864.641.379.437.582 1.077.582 1.951v.378c0 .903-.29 2.01-.815 3.349a12.7 12.7 0 0 1-2.3 3.669c-.175.233-.379.321-.583.321a.85.85 0 0 1-.466-.146l-1.456-.874c-.35-.174-.378-.465-.087-.844.262-.349.64-.903 1.165-1.689.35-.524.524-.903.524-1.194 0-.145-.087-.262-.233-.378l-.291-.204c-.495-.35-.728-.961-.728-1.835v-.815c0-1.544.786-2.33 2.417-2.33m11.94-5.503h.233c.932 0 1.718-.175 2.388-.525v-.407c0-1.602-.175-2.679-.495-3.233-.32-.553-.903-.844-1.776-.844h-.262q-2.184 0-2.184 2.359v.262c0 .873.145 1.485.495 1.834.35.379.873.554 1.601.554m-5.27 9.726c-.35-.117-.495-.321-.495-.67q0-.175.087-.524l.466-1.864c.116-.466.466-.641.99-.495 1.398.437 2.62.641 3.669.641h.087c1.049 0 1.777-.262 2.243-.845q.698-.83.786-2.621c-.961.408-2.01.583-3.145.583h-.32c-2.068 0-3.553-.495-4.485-1.544-.932-1.019-1.369-2.591-1.369-4.688v-.408c0-1.863.554-3.348 1.69-4.455 1.135-1.077 2.795-1.631 4.979-1.631h.408c2.62 0 4.484.699 5.532 2.039 1.049 1.339 1.602 3.552 1.602 6.639v.699c0 1.66-.146 3.087-.437 4.31s-.67 2.213-1.136 2.912a5.3 5.3 0 0 1-1.776 1.718c-.699.437-1.398.728-2.096.844-.7.146-1.515.204-2.417.204h-.03c-1.689 0-3.32-.262-4.833-.844m22.162-9.726h.233c.932 0 1.718-.175 2.388-.525v-.407c0-1.602-.175-2.679-.495-3.233-.32-.553-.903-.844-1.776-.844h-.263q-2.184 0-2.184 2.359v.262c0 .873.146 1.485.496 1.834.349.379.873.554 1.601.554m-5.27 9.726c-.35-.117-.496-.321-.496-.67q0-.175.088-.524l.466-1.864c.116-.466.466-.641.99-.495 1.398.437 2.62.641 3.669.641h.087c1.049 0 1.777-.262 2.243-.845q.698-.83.786-2.621c-.961.408-2.01.583-3.145.583h-.32c-2.068 0-3.553-.495-4.485-1.544-.932-1.019-1.369-2.591-1.369-4.688v-.408c0-1.863.554-3.348 1.69-4.455 1.135-1.077 2.795-1.631 4.979-1.631h.407c2.621 0 4.485.699 5.533 2.039 1.049 1.339 1.602 3.552 1.602 6.639v.699c0 1.66-.146 3.087-.437 4.31s-.67 2.213-1.136 2.912a5.3 5.3 0 0 1-1.776 1.718c-.699.437-1.398.728-2.097.844-.698.146-1.514.204-2.416.204h-.03c-1.689 0-3.32-.262-4.834-.844m24.987-13.308v.291c0 1.922-.495 3.291-1.427 4.164-.874.699-2.01 1.048-3.349 1.048-1.514 0-2.65-.378-3.436-1.135-.874-.816-1.31-2.097-1.31-3.786v-.873c0-1.689.436-2.942 1.31-3.786.786-.757 1.922-1.136 3.436-1.136 1.34 0 2.475.35 3.349 1.049.932.873 1.427 2.271 1.427 4.164m-4.95 13.104 10.745-17.705c.145-.233.32-.408.495-.495.174-.058.436-.117.815-.117h2.126c.902 0 1.165.35.757 1.049l-10.745 17.705c-.175.262-.32.436-.495.495-.175.087-.466.116-.816.116h-2.126c-.931 0-1.164-.349-.757-1.048m-.641-13.745v1.573c0 .611.058 1.019.203 1.223.117.203.32.291.583.291h.058a.68.68 0 0 0 .582-.291c.117-.204.204-.612.204-1.223v-1.573c0-.582-.087-.99-.204-1.194a.7.7 0 0 0-.582-.32h-.058c-.262 0-.466.116-.582.32-.146.204-.204.612-.204 1.194m20.442 9.289v.292c0 1.922-.495 3.29-1.427 4.164-.874.699-2.009 1.048-3.349 1.048-1.514 0-2.65-.378-3.436-1.136-.874-.815-1.31-2.067-1.31-3.785v-.874c0-1.689.436-2.97 1.31-3.785.786-.758 1.922-1.136 3.436-1.136 1.34 0 2.475.349 3.349 1.048.932.874 1.427 2.272 1.427 4.164m-5.591-.64v1.572c0 .612.058 1.019.204 1.223.116.204.32.291.582.291h.058a.68.68 0 0 0 .583-.291c.116-.204.204-.611.204-1.223v-1.572c0-.583-.088-.99-.204-1.194a.71.71 0 0 0-.583-.32h-.058c-.262 0-.466.116-.582.32-.146.204-.204.611-.204 1.194"/><path fill="#fff" d="M11.279 156.899h-.192c-1.122 0-2.1-.144-2.933-.448-.353-.113-.513-.321-.449-.642l.208-1.298c.033-.32.225-.432.561-.32.93.336 1.795.497 2.565.497h.08c.48 0 .833-.065 1.042-.209.192-.128.304-.368.304-.705v-.16c0-.321-.096-.529-.256-.657-.177-.112-.513-.225-1.01-.321l-1.09-.208c-.897-.16-1.538-.481-1.891-.93-.369-.448-.545-1.073-.545-1.891v-.449c0-.897.24-1.57.721-2.051.577-.577 1.651-.865 3.19-.865h.112c1.074 0 1.987.144 2.724.416.16.064.273.161.32.257a.93.93 0 0 1-.015.465l-.273 1.169c-.064.289-.272.385-.593.273a7.3 7.3 0 0 0-2.115-.337h-.064c-.53 0-.898.064-1.09.177-.208.128-.305.336-.305.625v.144c0 .256.065.449.209.545.128.112.416.208.833.288l1.218.241c.962.192 1.619.497 1.987.881.353.385.545 1.058.545 2.003v.385c0 1.09-.304 1.875-.897 2.372-.593.513-1.555.753-2.901.753m9.44-3.013v-4.519c0-.16.031-.273.112-.353.08-.064.224-.112.432-.112h1.475c.192 0 .336.048.416.112.08.08.129.193.129.353v4.744q0 1.465-.722 2.115c-.512.449-1.41.673-2.724.673s-2.228-.224-2.724-.673q-.722-.65-.722-2.115v-4.744c0-.16.032-.273.113-.353.08-.064.224-.112.432-.112h1.475c.192 0 .336.048.416.112.08.08.129.193.129.353v4.519c0 .369.048.609.176.737.128.145.352.209.705.209.337 0 .577-.064.705-.209.112-.128.176-.368.176-.737m6.05-4.295c.562-.545 1.363-.833 2.389-.833h.144c.994 0 1.699.288 2.131.833.385.513.577 1.378.577 2.629v1.202c0 .673-.064 1.234-.16 1.65a2.3 2.3 0 0 1-.577 1.042c-.545.529-1.282.785-2.244.785h-.176q-.914 0-1.49-.336v2.468c0 .24-.048.4-.128.465-.097.064-.273.096-.545.096h-1.218c-.273 0-.45-.032-.545-.113-.096-.064-.129-.224-.129-.448v-9.616c0-.192.033-.321.129-.401.08-.064.224-.112.432-.112h.673c.193 0 .337.032.417.064a.6.6 0 0 1 .176.273l.113.352zm.594 2.276v2.051c0 .369.064.625.224.77.144.144.385.208.721.208h.145c.368 0 .625-.096.785-.321q.192-.288.192-1.394v-.689c0-.769-.064-1.25-.192-1.426-.16-.193-.417-.289-.802-.289h-.112c-.352 0-.593.08-.753.241-.144.144-.208.432-.208.849m9.842 2.965h.176c.545 0 1.122-.064 1.7-.209.16-.032.255-.048.304-.048.16 0 .256.097.288.273l.128.801c.032.225.064.369.064.433 0 .192-.144.336-.416.433a7.4 7.4 0 0 1-2.42.384h-.305q-1.97 0-2.788-.817a2.3 2.3 0 0 1-.641-1.09c-.113-.417-.16-.978-.16-1.667v-.897c0-1.394.32-2.372.96-2.949.546-.481 1.38-.721 2.517-.721h.224c1.122 0 1.94.272 2.42.801.513.577.77 1.523.77 2.869v.833c0 .305-.16.449-.465.449h-3.846v.128c0 .385.096.641.32.785.208.145.593.209 1.17.209m-1.49-2.789h1.762c.129 0 .193-.064.193-.208v-.257c0-.32-.064-.56-.16-.737-.129-.192-.385-.288-.738-.288h-.144c-.32 0-.545.08-.673.224q-.24.288-.24.866zm7.693-2.276h.048c.352-.576.945-.865 1.795-.865h.64c.161 0 .29.032.353.096.064.064.112.177.112.353v1.17c0 .176-.032.288-.096.352q-.096.096-.336.096h-.481c-.593 0-.994.113-1.218.337-.192.192-.273.561-.273 1.106v3.878c0 .161-.048.289-.128.353-.08.08-.224.112-.416.112h-1.475c-.208 0-.352-.032-.432-.112-.08-.064-.113-.192-.113-.353v-6.939c0-.16.032-.273.113-.337.08-.064.224-.112.432-.112h.77c.176 0 .304.032.384.08a.65.65 0 0 1 .192.289zm3.688 1.715v-.208c0-.785.208-1.378.625-1.795.48-.481 1.298-.721 2.436-.721h.16c.898 0 1.683.096 2.34.288q.192.072.24.145c.032.064.049.144.032.272l-.176 1.314c-.032.209-.176.273-.432.209-.642-.145-1.218-.225-1.7-.225h-.015c-.353 0-.61.032-.738.096-.144.064-.208.177-.208.337v.048c0 .16.048.272.176.336.129.065.37.145.738.209l.753.16c.689.16 1.186.401 1.474.721.289.321.433.818.433 1.475v.24c0 1.683-1.058 2.516-3.141 2.516h-.16c-1.058 0-1.94-.144-2.677-.432-.144-.049-.24-.113-.272-.193-.032-.064-.032-.192 0-.368l.224-1.058c.048-.305.224-.401.545-.305.737.257 1.378.369 1.923.369h.048c.353 0 .593-.032.738-.112.128-.064.208-.193.208-.369v-.048a.34.34 0 0 0-.177-.304q-.192-.097-.769-.241l-.705-.16q-1.058-.24-1.49-.721c-.289-.321-.433-.802-.433-1.475m10.083-.545H54.63c-.16 0-.272-.016-.336-.08s-.08-.192-.08-.384v-1.106c0-.192.016-.305.08-.369q.096-.096.336-.096h5.417c.16 0 .273.032.353.096.064.064.112.193.112.369v.304c0 .417-.128.802-.352 1.138l-2.757 3.911h2.74c.16 0 .257.032.321.096s.096.176.096.368v1.106q0 .29-.096.385c-.064.064-.16.08-.32.08H54.63c-.336 0-.497-.144-.497-.465v-.368c0-.417.113-.786.353-1.138zm11.257-1.554c-.225 1.506-.642 3.173-1.25 5.016a34 34 0 0 1-2.26 5.225c-.112.224-.257.336-.449.336-.128 0-.272-.032-.465-.128l-.817-.353c-.288-.128-.417-.256-.417-.4 0-.064.016-.16.08-.273.545-1.105.866-1.746.93-1.923-.449-.16-.785-.513-1.042-1.09-.288-.641-.625-1.618-.993-2.964q-.554-2.02-.818-3.462c-.032-.16-.016-.273.064-.353.08-.064.225-.112.417-.112h1.458c.177 0 .305.032.385.08s.144.144.176.305c.369 2.019.786 3.814 1.25 5.369h.08c.45-1.283.866-3.045 1.25-5.321q.025-.24.145-.337c.08-.064.208-.096.368-.096h1.475c.176 0 .304.048.368.112.065.064.08.193.065.369m3.5 2.484v2.051c0 .369.064.625.224.77.129.144.37.208.722.208h.144c.368 0 .625-.096.785-.321q.192-.288.192-1.394v-.689c0-.801-.08-1.298-.208-1.458-.144-.161-.416-.257-.801-.257h-.064c-.369 0-.625.08-.786.241-.144.144-.208.432-.208.849m0-2.676h.032q.698-.433 1.827-.433h.144c.962 0 1.667.288 2.1.865.352.497.545 1.379.545 2.645v1.154c0 1.282-.273 2.179-.818 2.676-.577.545-1.49.801-2.74.801h-.32c-1.315 0-2.212-.256-2.693-.785-.433-.465-.641-1.218-.641-2.276v-7.468c0-.16.032-.273.112-.353.064-.064.208-.112.417-.112h1.49c.192 0 .337.048.417.112.08.08.128.193.128.353zm8.592 4.455v2.644c0 .161-.048.289-.128.353-.08.08-.224.112-.416.112h-1.475c-.208 0-.353-.032-.433-.112-.08-.064-.112-.192-.112-.353v-9.92c0-.16.032-.273.112-.353.08-.064.225-.112.433-.112h1.475c.192 0 .336.048.416.112.08.08.128.193.128.353v5.225h.113l1.522-2.324c.144-.241.369-.369.673-.369h1.86c.175 0 .272.064.272.192 0 .064-.048.177-.129.305l-1.843 2.756c-.144.225-.208.385-.208.481 0 .112.064.273.208.481l1.972 3.109c.064.128.096.208.096.273 0 .176-.112.256-.337.256h-1.779c-.224 0-.4-.016-.496-.08q-.145-.072-.289-.337l-1.522-2.692zm7.952-4.279v6.923c0 .161-.048.289-.129.353-.08.08-.224.112-.416.112H86.46c-.208 0-.352-.032-.432-.112-.08-.064-.113-.192-.113-.353v-6.923c0-.16.033-.273.113-.353.08-.064.224-.112.432-.112h1.475c.192 0 .336.048.416.112.08.08.129.193.129.353m-1.186-1.074h-.192c-.866 0-1.299-.433-1.299-1.33v-.08c0-.882.433-1.33 1.299-1.33h.192c.865 0 1.298.448 1.298 1.33v.08c0 .897-.433 1.33-1.298 1.33m-76.912 23.353v2.644c0 .161-.048.289-.129.353-.08.08-.224.112-.416.112H8.362c-.208 0-.352-.032-.432-.112-.08-.064-.113-.192-.113-.353v-9.92c0-.16.032-.273.113-.353.08-.064.224-.112.432-.112h1.475c.192 0 .336.048.416.112.08.08.129.193.129.353v5.225h.112l1.522-2.324c.145-.241.369-.369.673-.369h1.86c.176 0 .272.064.272.192 0 .064-.048.177-.128.305l-1.843 2.756c-.145.225-.209.385-.209.481 0 .112.064.273.209.481l1.97 3.109c.065.128.097.208.097.273 0 .176-.112.256-.336.256H12.8c-.224 0-.4-.016-.496-.08q-.145-.072-.289-.337l-1.522-2.692zm7.374-3.879h.048c.353-.576.946-.865 1.795-.865h.641c.16 0 .289.032.353.096s.112.177.112.353v1.17c0 .176-.032.288-.096.352q-.096.096-.337.096h-.48c-.594 0-.994.113-1.219.337-.192.192-.272.561-.272 1.106v3.878c0 .161-.048.289-.128.353-.08.08-.225.112-.417.112h-1.474c-.209 0-.353-.032-.433-.112-.08-.064-.112-.192-.112-.353v-6.939c0-.16.032-.273.112-.337s.224-.112.433-.112h.769c.176 0 .304.032.384.08q.12.096.193.289zm7.648 5.065h.177c.544 0 1.122-.064 1.698-.209.16-.032.257-.048.305-.048.16 0 .256.097.288.273l.129.801c.032.225.064.369.064.433 0 .192-.145.336-.417.433a7.4 7.4 0 0 1-2.42.384h-.305q-1.97 0-2.788-.817a2.3 2.3 0 0 1-.641-1.09c-.112-.417-.16-.978-.16-1.667v-.897c0-1.394.32-2.372.961-2.949.545-.481 1.378-.721 2.516-.721h.225c1.122 0 1.939.272 2.42.801.512.577.769 1.523.769 2.869v.833c0 .305-.16.449-.465.449h-3.846v.128c0 .385.096.641.32.785.209.145.593.209 1.17.209m-1.49-2.789h1.763c.128 0 .192-.064.192-.208v-.257c0-.32-.064-.56-.16-.737-.128-.192-.385-.288-.737-.288h-.145c-.32 0-.545.08-.673.224q-.24.288-.24.866zm10.065 1.875v-2.035c0-.401-.064-.689-.193-.849-.144-.161-.4-.257-.753-.257h-.16c-.353 0-.593.096-.737.273-.16.176-.225.673-.225 1.506v.705c0 .77.08 1.25.24 1.411.129.16.37.224.738.224h.176c.305 0 .53-.064.69-.208.144-.145.224-.401.224-.77m-.032-4.872h.032v-2.676c0-.16.032-.273.112-.353.08-.064.224-.112.433-.112h1.49c.192 0 .337.048.417.112.064.08.112.193.112.353v7.292c0 1.122-.208 1.891-.625 2.34-.304.32-.673.561-1.106.689-.448.144-1.041.208-1.795.208h-.272c-1.186 0-2.036-.24-2.58-.721-.561-.481-.834-1.378-.834-2.708v-1.283c0-1.282.257-2.179.802-2.692.512-.481 1.218-.737 2.131-.737h.192q.915 0 1.49.288m10.918.337c-.224 1.506-.64 3.173-1.25 5.016a34 34 0 0 1-2.26 5.225c-.111.224-.256.336-.448.336-.128 0-.272-.032-.465-.128l-.817-.353c-.289-.128-.417-.256-.417-.4 0-.064.016-.16.08-.273.545-1.105.866-1.746.93-1.923-.449-.16-.785-.513-1.042-1.09-.288-.641-.625-1.618-.994-2.964q-.552-2.02-.817-3.462c-.032-.16-.016-.273.064-.353.08-.064.225-.112.417-.112h1.458c.177 0 .305.032.385.08s.144.144.176.305c.369 2.019.786 3.814 1.25 5.369h.08c.45-1.283.866-3.045 1.25-5.321q.025-.24.145-.337c.08-.064.208-.096.368-.096h1.475c.176 0 .304.048.368.112s.08.193.064.369m6.344 5.866v.913c0 .24-.048.401-.112.481s-.208.112-.4.112h-1.283c-1.154 0-1.923-.192-2.275-.593-.32-.337-.465-.978-.465-1.939v-3.318h-.866c-.16 0-.256-.016-.32-.08s-.08-.16-.08-.32v-.818c0-.192.016-.32.08-.384.048-.064.16-.112.337-.161l.849-.208v-1.57c0-.161.032-.273.112-.353.08-.064.224-.112.433-.112h1.474c.193 0 .337.048.417.112.08.08.128.192.128.353v1.538h1.33c.16 0 .257.032.32.096.065.064.097.177.097.369v1.074q0 .288-.096.384c-.064.064-.16.08-.32.08h-1.33v3.029c0 .289.031.465.127.561.096.112.305.161.625.161h.706c.192 0 .336.048.4.128s.112.24.112.465m-39.85 18.769h-.432c-2.276 0-3.398-1.026-3.398-3.093v-1.074c0-1.058.272-1.827.833-2.34.545-.497 1.395-.753 2.516-.753h.225c.208-1.154 1.058-1.747 2.564-1.747h.785c.16 0 .257.032.32.08.049.064.08.176.08.337v.881c0 .16-.031.257-.095.305-.064.064-.176.08-.32.08h-.754c-.353 0-.593.08-.737.24 1.202.321 1.81 1.298 1.81 2.917v1.074c0 1.154-.32 1.923-.945 2.34a2.7 2.7 0 0 1 .978.865c.24.353.368.737.368 1.138v.112c0 1.587-1.266 2.372-3.766 2.372h-.304a8.7 8.7 0 0 1-3.141-.577c-.289-.096-.401-.305-.321-.609l.289-1.026c.08-.304.272-.416.576-.32.946.32 1.78.465 2.517.465h.224q1.394 0 1.394-.818v-.048c0-.304-.16-.577-.48-.833-.257.032-.53.032-.786.032m-.272-2.004h.112c.353 0 .593-.064.753-.224.176-.176.273-.545.273-1.09v-.625c0-.545-.097-.897-.273-1.089-.16-.145-.4-.225-.753-.225h-.112c-.353 0-.61.08-.753.225-.193.192-.273.544-.273 1.089v.625c0 .545.08.914.273 1.09.144.16.4.224.753.224m7.427-1.81v1.25c0 .625.096 1.025.289 1.218.144.16.368.224.673.224h.064c.288 0 .513-.064.673-.224.192-.193.289-.593.289-1.218v-1.25c0-.609-.096-1.026-.289-1.218-.16-.145-.385-.225-.673-.225h-.064c-.305 0-.529.08-.673.225-.193.192-.289.609-.289 1.218m4.568.096v1.041c0 .802-.08 1.411-.24 1.859a2.3 2.3 0 0 1-.77 1.074c-.529.417-1.346.625-2.468.625h-.192c-1.122 0-1.955-.208-2.468-.625a2.3 2.3 0 0 1-.77-1.074c-.16-.448-.24-1.057-.24-1.859v-1.025c0-.786.08-1.395.24-1.843a2.4 2.4 0 0 1 .77-1.09c.513-.417 1.346-.625 2.468-.625h.192c1.122 0 1.94.208 2.468.625.353.288.61.641.77 1.074.16.448.24 1.057.24 1.843m6.388 2.949v.913c0 .24-.048.401-.112.481s-.208.112-.4.112h-1.283c-1.154 0-1.923-.192-2.275-.593-.32-.337-.465-.978-.465-1.939v-3.318h-.865c-.16 0-.257-.016-.321-.08s-.08-.16-.08-.32v-.818c0-.192.016-.32.08-.384.048-.064.16-.112.337-.161l.849-.208v-1.57c0-.161.032-.273.112-.353.08-.064.224-.112.433-.112h1.474c.193 0 .337.048.417.112.08.08.128.192.128.353v1.538h1.33c.16 0 .257.032.32.096.065.064.097.177.097.369v1.074q0 .288-.096.384c-.064.064-.16.08-.32.08H27.5v3.029c0 .289.031.465.127.561.097.112.305.161.625.161h.706c.192 0 .336.048.4.128s.112.24.112.465m3.537-3.045v1.25c0 .625.096 1.025.288 1.218.145.16.37.224.674.224h.064c.288 0 .512-.064.673-.224.192-.193.288-.593.288-1.218v-1.25c0-.609-.096-1.026-.288-1.218-.16-.145-.385-.225-.673-.225h-.064c-.305 0-.53.08-.674.225-.192.192-.288.609-.288 1.218m4.568.096v1.041c0 .802-.08 1.411-.24 1.859a2.3 2.3 0 0 1-.77 1.074c-.529.417-1.346.625-2.468.625h-.193c-1.121 0-1.955-.208-2.468-.625a2.3 2.3 0 0 1-.769-1.074c-.16-.448-.24-1.057-.24-1.859v-1.025c0-.786.08-1.395.24-1.843a2.4 2.4 0 0 1 .77-1.09c.512-.417 1.346-.625 2.467-.625h.193c1.122 0 1.939.208 2.468.625.352.288.609.641.77 1.074.16.448.24 1.057.24 1.843m-4.889-5.513 2.517-2.148a.45.45 0 0 1 .304-.144c.112 0 .224.08.32.208l.77.994a.47.47 0 0 1 .096.272c0 .128-.096.257-.256.385l-2.533 1.731a.56.56 0 0 1-.32.112c-.128 0-.257-.064-.385-.224l-.48-.561c-.129-.145-.177-.273-.177-.369s.048-.192.144-.256m10.364 2.5h1.378c.224 0 .384.032.465.096.08.064.144.192.176.384 0 .065.288 1.491.85 4.264h.047c.289-1.683.545-3.238.754-4.68.016-.176.064-.289.128-.353q.096-.096.336-.096h1.635c.176 0 .288.048.353.112.048.08.064.209.032.369-.257 1.25-.577 2.628-.93 4.135-.352 1.506-.609 2.452-.77 2.852-.063.161-.143.273-.223.321s-.209.064-.37.064H45.15c-.337 0-.545-.112-.609-.369-.304-1.089-.561-2.468-.785-4.134h-.064a44 44 0 0 1-.802 4.134c-.064.257-.256.369-.577.369h-1.73c-.321 0-.53-.112-.61-.353-.16-.432-.432-1.426-.817-2.964a75 75 0 0 1-.897-4.055c-.049-.176-.032-.305.032-.369s.192-.112.384-.112h1.57c.161 0 .29.032.37.096.064.064.112.193.144.353.224 1.49.48 3.045.785 4.68h.064c.385-1.988.657-3.414.785-4.264.032-.208.08-.336.16-.4.08-.048.241-.08.498-.08m9.667 4.359v2.644c0 .161-.048.289-.128.353-.08.08-.225.112-.417.112h-1.474c-.209 0-.353-.032-.433-.112-.08-.064-.112-.192-.112-.353v-9.92c0-.16.032-.273.112-.353.08-.064.224-.112.433-.112h1.474c.192 0 .337.048.417.112.08.08.128.193.128.353v5.225h.112l1.523-2.324c.144-.241.368-.369.673-.369h1.859c.176 0 .272.064.272.192 0 .064-.048.177-.128.305l-1.843 2.756c-.144.225-.208.385-.208.481 0 .112.064.273.208.481l1.971 3.109c.064.128.096.208.096.273 0 .176-.112.256-.336.256h-1.78c-.223 0-.4-.016-.496-.08q-.144-.072-.288-.337l-1.523-2.692zm7.554-1.442v1.25c0 .625.096 1.025.288 1.218.144.16.369.224.673.224h.064c.289 0 .513-.064.673-.224.193-.193.289-.593.289-1.218v-1.25c0-.609-.096-1.026-.289-1.218-.16-.145-.384-.225-.673-.225h-.064c-.304 0-.529.08-.673.225-.192.192-.288.609-.288 1.218m4.567.096v1.041c0 .802-.08 1.411-.24 1.859a2.3 2.3 0 0 1-.77 1.074c-.528.417-1.346.625-2.468.625h-.192c-1.122 0-1.955-.208-2.468-.625a2.3 2.3 0 0 1-.77-1.074c-.16-.448-.24-1.057-.24-1.859v-1.025c0-.786.08-1.395.24-1.843a2.4 2.4 0 0 1 .77-1.09c.513-.417 1.346-.625 2.468-.625h.192c1.122 0 1.94.208 2.468.625.353.288.61.641.77 1.074.16.448.24 1.057.24 1.843m5.475-3.013h1.378c.225 0 .385.032.465.096s.144.192.176.384c0 .065.289 1.491.85 4.264h.048c.288-1.683.545-3.238.753-4.68.016-.176.064-.289.128-.353q.096-.096.337-.096h1.635c.176 0 .288.048.352.112.048.08.064.209.032.369-.256 1.25-.577 2.628-.93 4.135-.352 1.506-.608 2.452-.769 2.852-.064.161-.144.273-.224.321s-.208.064-.368.064h-1.763c-.337 0-.545-.112-.61-.369-.304-1.089-.56-2.468-.785-4.134h-.064a44 44 0 0 1-.801 4.134c-.064.257-.257.369-.577.369h-1.73c-.321 0-.53-.112-.61-.353-.16-.432-.433-1.426-.817-2.964a75 75 0 0 1-.898-4.055c-.048-.176-.032-.305.032-.369s.193-.112.385-.112h1.57c.16 0 .289.032.37.096.063.064.111.193.143.353.225 1.49.481 3.045.786 4.68h.064c.384-1.988.657-3.414.785-4.264.032-.208.08-.336.16-.4.08-.048.24-.08.497-.08m14.118.096c-.225 1.506-.641 3.173-1.25 5.016a34 34 0 0 1-2.26 5.225c-.112.224-.257.336-.449.336-.128 0-.272-.032-.465-.128l-.817-.353c-.288-.128-.417-.256-.417-.4 0-.064.016-.16.08-.273.545-1.105.866-1.746.93-1.923-.449-.16-.785-.513-1.042-1.09-.288-.641-.625-1.618-.993-2.964q-.553-2.02-.818-3.462c-.032-.16-.016-.273.064-.353.08-.064.225-.112.417-.112h1.459c.176 0 .304.032.384.08s.144.144.176.305c.37 2.019.786 3.814 1.25 5.369h.08c.45-1.283.866-3.045 1.25-5.321q.025-.24.145-.337c.08-.064.208-.096.368-.096h1.475c.176 0 .304.048.369.112.064.064.08.193.064.369m-72.222 25.535v-2.035c0-.401-.064-.689-.193-.849-.144-.161-.4-.257-.753-.257h-.16c-.353 0-.593.096-.737.273-.16.176-.225.673-.225 1.506v.705c0 .77.08 1.25.24 1.411.129.16.37.224.738.224h.176c.305 0 .529-.064.69-.208.143-.145.224-.401.224-.77m-.032-4.872h.032v-2.676c0-.16.032-.273.112-.353.08-.064.224-.112.433-.112h1.49c.192 0 .337.048.417.112.064.08.112.193.112.353v7.292c0 1.122-.208 1.891-.625 2.34-.305.32-.673.561-1.106.689-.449.144-1.042.208-1.795.208h-.272c-1.186 0-2.036-.24-2.58-.721-.562-.481-.834-1.378-.834-2.708v-1.283c0-1.282.256-2.179.801-2.692.513-.481 1.218-.737 2.132-.737h.192q.915 0 1.49.288m6.447 3.158v1.25c0 .625.096 1.025.288 1.218.145.16.369.224.674.224h.064c.288 0 .512-.064.673-.224.192-.193.288-.593.288-1.218v-1.25c0-.609-.096-1.026-.288-1.218-.16-.145-.385-.225-.673-.225h-.064c-.305 0-.53.08-.674.225-.192.192-.288.609-.288 1.218m4.567.096v1.041c0 .802-.08 1.411-.24 1.859a2.3 2.3 0 0 1-.77 1.074c-.528.417-1.346.625-2.467.625h-.193c-1.122 0-1.955-.208-2.468-.625a2.3 2.3 0 0 1-.769-1.074c-.16-.448-.24-1.057-.24-1.859v-1.025c0-.786.08-1.395.24-1.843a2.4 2.4 0 0 1 .77-1.09c.512-.417 1.346-.625 2.467-.625h.193c1.122 0 1.939.208 2.468.625.352.288.609.641.769 1.074.16.448.24 1.057.24 1.843m9.434-5.671h-.078c-.82 0-1.717.176-2.692.507-.332.117-.527.02-.605-.292l-.351-1.405c-.098-.351 0-.605.312-.722 1.21-.507 2.536-.761 4-.761h.058c1.288 0 2.283.293 2.985.859.703.565 1.054 1.424 1.054 2.556v.234c0 1.014-.215 1.795-.625 2.38-.429.585-1.092 1.112-1.99 1.541l-1.014.488c-.937.468-1.522.819-1.795 1.054-.273.234-.41.565-.41.956v.214h5.112c.273 0 .468.059.546.137s.117.253.117.507v1.288c0 .234-.058.39-.136.468q-.147.117-.527.117h-7.531q-.41 0-.527-.117c-.098-.078-.137-.234-.137-.468v-1.249c0-1.249.215-2.244.683-2.946.449-.702 1.23-1.288 2.342-1.795l.838-.371c.683-.292 1.152-.566 1.386-.839.234-.253.37-.604.37-1.053v-.156c0-.742-.468-1.132-1.385-1.132m16.586 2.966v1.697c0 1.834-.39 3.239-1.152 4.195-.78.975-2.068 1.444-3.863 1.444s-3.082-.469-3.863-1.444c-.78-.956-1.15-2.361-1.15-4.195v-1.697c0-1.834.37-3.22 1.15-4.195.78-.956 2.068-1.444 3.863-1.444s3.083.488 3.863 1.444c.761.975 1.152 2.361 1.152 4.195m-3.337 1.365v-1.034c0-1.268-.117-2.146-.312-2.614s-.644-.722-1.327-.722h-.078c-.702.02-1.15.254-1.346.722-.195.468-.292 1.346-.292 2.614v1.034c0 1.288.097 2.147.292 2.615s.644.722 1.346.722h.078c.683 0 1.132-.234 1.327-.703s.312-1.346.312-2.634m14.654-1.365v1.697c0 1.834-.39 3.239-1.151 4.195-.78.975-2.068 1.444-3.863 1.444s-3.083-.469-3.863-1.444c-.78-.956-1.151-2.361-1.151-4.195v-1.697c0-1.834.37-3.22 1.15-4.195.781-.956 2.069-1.444 3.864-1.444s3.083.488 3.863 1.444c.76.975 1.151 2.361 1.151 4.195m-3.336 1.365v-1.034c0-1.268-.117-2.146-.312-2.614s-.644-.722-1.327-.722h-.078c-.703.02-1.151.254-1.346.722s-.293 1.346-.293 2.614v1.034c0 1.288.098 2.147.293 2.615s.644.722 1.346.722h.078c.683 0 1.132-.234 1.327-.703s.312-1.346.312-2.634m15.313 3.961v1.112c0 .293-.058.488-.136.585-.079.098-.254.137-.488.137H70.32c-1.405 0-2.341-.234-2.77-.722-.39-.41-.566-1.19-.566-2.361v-4.038H65.93c-.195 0-.312-.02-.39-.098s-.098-.195-.098-.39v-.995c0-.234.02-.39.098-.468.058-.078.195-.137.41-.195l1.034-.254v-1.912c0-.195.039-.332.136-.429.098-.078.273-.137.527-.137h1.795c.234 0 .41.059.507.137.098.097.156.234.156.429v1.873h1.62c.195 0 .312.039.39.117s.117.215.117.449v1.307q0 .351-.117.468c-.078.078-.195.098-.39.098h-1.62v3.687c0 .351.04.566.156.683.117.137.371.195.761.195h.859c.234 0 .41.059.487.156.079.098.137.293.137.566m9.749-7.141c-.273 1.834-.78 3.863-1.522 6.107a41.4 41.4 0 0 1-2.75 6.36c-.138.274-.313.41-.547.41-.156 0-.332-.039-.566-.156l-.995-.429c-.351-.156-.507-.312-.507-.488 0-.078.02-.195.097-.332.664-1.346 1.054-2.126 1.132-2.341-.546-.195-.956-.624-1.268-1.327-.352-.78-.761-1.97-1.21-3.609q-.673-2.459-.995-4.214c-.039-.195-.02-.332.078-.43.098-.078.273-.136.507-.136h1.776c.214 0 .37.039.468.097s.176.176.215.371c.448 2.458.956 4.644 1.521 6.536h.098c.546-1.561 1.053-3.707 1.522-6.477q.03-.293.175-.41c.098-.078.254-.117.45-.117h1.794c.215 0 .37.058.449.136.078.079.097.235.078.449m.886 2.556v-.254c0-.956.254-1.677.761-2.185.585-.585 1.58-.878 2.966-.878h.195c1.092 0 2.048.117 2.848.352q.234.087.293.175a.55.55 0 0 1 .039.332l-.215 1.6c-.039.253-.214.331-.526.253-.781-.175-1.483-.273-2.069-.273h-.02c-.428 0-.74.039-.897.117-.175.078-.253.215-.253.41v.058c0 .196.058.332.214.41s.45.176.898.254l.917.195c.839.195 1.444.488 1.795.878s.526.995.526 1.795v.292c0 2.049-1.287 3.064-3.823 3.064h-.196c-1.287 0-2.36-.176-3.258-.527-.175-.059-.292-.137-.331-.234-.04-.078-.04-.234 0-.449l.273-1.288c.058-.37.273-.487.663-.37.898.312 1.678.448 2.341.448h.059c.429 0 .722-.039.897-.136.156-.078.254-.234.254-.449v-.059a.42.42 0 0 0-.215-.37q-.234-.117-.936-.293l-.859-.195q-1.287-.293-1.814-.878c-.351-.39-.527-.975-.527-1.795m12.138 4.78v.195c0 1.093-.527 1.62-1.56 1.62h-.216c-1.053 0-1.56-.527-1.56-1.62v-.195c0-.566.117-.975.39-1.21.254-.234.644-.37 1.17-.37h.215c.507 0 .898.136 1.17.37.254.235.391.644.391 1.21m9.111-5.443h-3.103c-.195 0-.331-.02-.409-.098s-.098-.234-.098-.468v-1.346c0-.234.02-.371.098-.449q.117-.117.409-.117h6.595c.195 0 .332.039.429.117.078.078.137.234.137.449v.37c0 .508-.156.976-.429 1.386l-3.356 4.76h3.336c.195 0 .312.039.39.117s.117.215.117.449v1.346q0 .351-.117.468c-.078.078-.195.098-.39.098h-6.712c-.409 0-.604-.176-.604-.566v-.449c0-.507.136-.956.429-1.385zm9.49 4.546h.624c.195 0 .351.058.429.136.078.098.137.273.137.527v1.21c0 .273-.059.448-.137.526-.078.098-.234.137-.429.137h-1.483c-.975 0-1.658-.176-2.049-.566-.39-.37-.585-1.034-.585-1.97v-2.107l-.644.409c-.253.156-.429.234-.507.234-.156 0-.215-.117-.215-.351v-1.814c0-.195.02-.332.098-.43.059-.078.176-.195.371-.331l.897-.566v-5.151c0-.195.039-.331.137-.429.097-.078.273-.137.527-.137h1.794c.235 0 .41.059.508.137.097.098.156.234.156.429v3.161l.878-.566c.234-.156.41-.234.507-.234.137 0 .215.117.215.351v1.815c0 .195-.039.351-.098.429a1.6 1.6 0 0 1-.371.332l-1.131.721v3.727c0 .156.019.254.078.293.039.058.136.078.293.078"/></svg>