<svg xmlns="http://www.w3.org/2000/svg" fill="none" viewBox="0 0 33 5"><path fill="#fff" d="M2.068 2.84h-.962l-.006-.3h.834a.9.9 0 0 0 .425-.088.6.6 0 0 0 .268-.262.9.9 0 0 0 .094-.427.9.9 0 0 0-.092-.433.55.55 0 0 0-.27-.254 1.05 1.05 0 0 0-.453-.085h-.72v3.842H.86V.686h1.045a1.6 1.6 0 0 1 .476.066.9.9 0 0 1 .361.196q.148.132.225.336.08.206.08.487 0 .257-.1.462a.881.881 0 0 1-.7.498zm-.023 1.993H.995l.173-.304h.877q.252 0 .428-.103a.7.7 0 0 0 .27-.296q.097-.194.097-.462 0-.233-.082-.421a.65.65 0 0 0-.254-.296.8.8 0 0 0-.436-.111h-.62l.005-.3h.869l.062.109q.24.029.413.17a.95.95 0 0 1 .274.362q.096.22.097.482 0 .378-.143.64a.97.97 0 0 1-.393.396q-.25.134-.587.134M3.653.686 4.682 2.94 5.716.686h.376L4.844 3.273v1.56H4.52v-1.56L3.272.685zM8.62 4.537v.296H6.418v-.267l1.14-1.541q.213-.288.338-.504.126-.22.18-.4a1.2 1.2 0 0 0 .054-.35q0-.248-.083-.438a.67.67 0 0 0-.236-.3.67.67 0 0 0-.388-.108.7.7 0 0 0-.41.126.8.8 0 0 0-.262.339q-.09.213-.091.493h-.316q0-.346.128-.627.129-.285.37-.456a1 1 0 0 1 .581-.17q.317 0 .544.133a.88.88 0 0 1 .356.382q.126.247.126.595 0 .188-.057.379a2 2 0 0 1-.151.379q-.094.188-.22.373a8 8 0 0 1-.256.364l-.963 1.302zm.907-1.752-.25-.076.17-2.023H11.2v.322H9.718l-.12 1.39q.091-.077.26-.15a.9.9 0 0 1 .381-.075q.237 0 .425.094.188.091.324.265.137.174.211.421.075.249.074.559 0 .299-.063.55a1.3 1.3 0 0 1-.193.438.9.9 0 0 1-.328.288 1 1 0 0 1-.47.102q-.208 0-.39-.068a1 1 0 0 1-.328-.214 1.1 1.1 0 0 1-.233-.359 1.6 1.6 0 0 1-.114-.507h.302q.028.277.125.468.097.19.257.287a.7.7 0 0 0 .381.097q.18 0 .316-.071a.6.6 0 0 0 .234-.208 1 1 0 0 0 .14-.339 2 2 0 0 0 .048-.459 1.5 1.5 0 0 0-.051-.404 1 1 0 0 0-.151-.328.7.7 0 0 0-.245-.216.67.67 0 0 0-.33-.08.8.8 0 0 0-.388.08 1.1 1.1 0 0 0-.265.216m4.331-.381v.698q0 .458-.074.797-.075.336-.21.556a.9.9 0 0 1-.34.327.9.9 0 0 1-.45.108 1 1 0 0 1-.37-.068.84.84 0 0 1-.3-.208 1.2 1.2 0 0 1-.221-.356 2.2 2.2 0 0 1-.14-.501 4 4 0 0 1-.048-.655v-.698q0-.459.074-.792.074-.336.213-.553a.9.9 0 0 1 .336-.324.93.93 0 0 1 .453-.109q.203 0 .368.069a.84.84 0 0 1 .299.208q.134.136.222.347.09.21.14.499.048.287.048.655m-.316.737v-.783q0-.282-.031-.51a2 2 0 0 0-.092-.401 1 1 0 0 0-.153-.29.597.597 0 0 0-.484-.234.6.6 0 0 0-.334.09.7.7 0 0 0-.236.274q-.094.18-.143.45a3.5 3.5 0 0 0-.048.621v.783q0 .28.031.51.032.228.091.405.063.177.154.296.094.12.214.182.123.06.273.06a.6.6 0 0 0 .333-.094.73.73 0 0 0 .237-.282q.095-.187.14-.456.048-.27.048-.62m1.266 1.419h.057q.379 0 .632-.131a1 1 0 0 0 .402-.365q.149-.235.21-.55.066-.315.066-.683V2.25q0-.325-.06-.573a1.3 1.3 0 0 0-.165-.413.7.7 0 0 0-.25-.25.6.6 0 0 0-.314-.086.56.56 0 0 0-.316.091.8.8 0 0 0-.236.251 1.3 1.3 0 0 0-.148.365 1.834 1.834 0 0 0-.006.843q.048.196.14.353a.8.8 0 0 0 .227.25q.137.092.317.092.195 0 .35-.091a.9.9 0 0 0 .268-.242q.114-.152.173-.325.063-.177.069-.342l.156-.003q0 .26-.08.496a1.4 1.4 0 0 1-.224.416 1.1 1.1 0 0 1-.337.287.86.86 0 0 1-.415.103.8.8 0 0 1-.436-.114 1 1 0 0 1-.313-.313 1.5 1.5 0 0 1-.188-.445 2.1 2.1 0 0 1-.063-.518q0-.3.071-.561.072-.262.205-.462.136-.201.334-.316a.87.87 0 0 1 .444-.114.96.96 0 0 1 .495.123q.21.122.345.344.137.223.202.524.069.303.069.664v.325q0 .368-.046.703-.046.336-.154.621-.105.282-.293.493-.185.208-.467.325a1.8 1.8 0 0 1-.664.114h-.06zm4.46-.023v.296h-2.202v-.267l1.139-1.541q.213-.288.339-.504.124-.22.18-.4a1.2 1.2 0 0 0 .053-.35q0-.248-.082-.438a.66.66 0 0 0-.237-.3.67.67 0 0 0-.387-.108.7.7 0 0 0-.41.126.8.8 0 0 0-.262.339q-.09.213-.091.493h-.317q0-.346.129-.627.128-.285.37-.456a1 1 0 0 1 .581-.17q.316 0 .544.133a.88.88 0 0 1 .356.382q.126.247.125.595 0 .188-.056.379a2 2 0 0 1-.151.379q-.094.188-.22.373a8 8 0 0 1-.256.364l-.963 1.302zm.907-1.752-.251-.076.17-2.023h1.753v.322h-1.482l-.12 1.39q.093-.077.26-.15a.9.9 0 0 1 .382-.075q.236 0 .424.094.188.091.325.265t.21.421q.075.249.075.559 0 .299-.063.55a1.3 1.3 0 0 1-.194.438.9.9 0 0 1-.327.288 1 1 0 0 1-.47.102q-.208 0-.39-.068a1 1 0 0 1-.328-.214 1.1 1.1 0 0 1-.233-.359 1.6 1.6 0 0 1-.114-.507h.302q.027.277.125.468.096.19.256.287a.7.7 0 0 0 .382.097q.18 0 .316-.071a.6.6 0 0 0 .234-.208q.093-.14.14-.339.047-.203.048-.459 0-.218-.052-.404a1 1 0 0 0-.15-.328.7.7 0 0 0-.576-.296.8.8 0 0 0-.387.08 1.1 1.1 0 0 0-.265.216m4.524.707v.296h-2.478v-.2L23.825.687h.262l-.35.71-1.134 2.096zM24.164.686v4.147h-.313V.686zm3.04 3.045q0 .379-.148.638a1 1 0 0 1-.398.39 1.2 1.2 0 0 1-.561.131q-.316 0-.567-.13a1 1 0 0 1-.399-.39 1.3 1.3 0 0 1-.145-.639q0-.244.082-.447.082-.206.228-.353.149-.15.35-.234.204-.082.445-.082.316 0 .567.145.254.143.398.393.15.25.149.578m-.318.003a.96.96 0 0 0-.106-.461.75.75 0 0 0-.689-.42.76.76 0 0 0-.41.112.76.76 0 0 0-.28.308q-.099.196-.099.46 0 .274.1.468a.72.72 0 0 0 .282.293q.18.1.413.1a.8.8 0 0 0 .41-.1.7.7 0 0 0 .276-.293 1 1 0 0 0 .103-.467m.23-1.98q0 .305-.136.542a1 1 0 0 1-.368.373q-.23.134-.518.134a1.03 1.03 0 0 1-.527-.134 1 1 0 0 1-.362-.373 1.1 1.1 0 0 1-.13-.542q0-.36.13-.612a.94.94 0 0 1 .362-.382q.23-.13.521-.13.297 0 .527.13a.93.93 0 0 1 .365.382q.135.25.136.612m-.316-.002a.9.9 0 0 0-.094-.428.7.7 0 0 0-.253-.29.63.63 0 0 0-.365-.109.67.67 0 0 0-.362.1.7.7 0 0 0-.247.285q-.09.184-.089.442 0 .247.089.43.09.18.247.279a.7.7 0 0 0 .368.097.7.7 0 0 0 .364-.097.7.7 0 0 0 .251-.28.95.95 0 0 0 .091-.43M29.875.686v.2L28.4 4.833h-.33l1.469-3.85h-1.963V.685zm2.617 1.718v.698q0 .458-.075.797-.074.336-.21.556a.9.9 0 0 1-.34.327.9.9 0 0 1-.45.108 1 1 0 0 1-.37-.068.84.84 0 0 1-.299-.208 1.2 1.2 0 0 1-.222-.356 2.2 2.2 0 0 1-.14-.501 4 4 0 0 1-.048-.655v-.698q0-.459.074-.792.074-.336.214-.553a.9.9 0 0 1 .336-.324.93.93 0 0 1 .453-.109q.202 0 .367.069a.84.84 0 0 1 .3.208q.133.136.221.347.092.21.14.499.049.287.049.655m-.317.737v-.783q0-.282-.031-.51a2 2 0 0 0-.091-.401 1 1 0 0 0-.154-.29.597.597 0 0 0-.484-.234.6.6 0 0 0-.334.09.7.7 0 0 0-.236.274q-.094.18-.142.45a3.5 3.5 0 0 0-.049.621v.783q0 .28.032.51.03.228.09.405.064.177.155.296.093.12.213.182.123.06.274.06a.6.6 0 0 0 .333-.094.73.73 0 0 0 .236-.282q.095-.187.14-.456.048-.27.048-.62"/></svg>