<svg xmlns="http://www.w3.org/2000/svg" fill="none" viewBox="0 0 137 46"><path fill="#fff" d="M1.902.378h9.57v16.289H8.306V3.133H5.068v13.534H1.902zm12.366 16.289V.62c.894-.193 2.103-.314 3.311-.314 1.885 0 3.36.266 4.422 1.257.967.845 1.402 2.199 1.402 3.576 0 1.764-.531 2.997-1.377 3.915-1.015 1.063-2.659 1.547-3.964 1.547h-.628v6.066zm3.166-13.679v5.027c.145.048.314.048.508.048 1.595 0 2.32-1.135 2.32-2.658 0-1.426-.58-2.537-2.055-2.537-.29 0-.58.048-.773.12m7.88-2.61h2.802V3.98c0 2.997-.193 5.8-.314 7.492h.049c.459-1.402 1.28-3.528 1.764-4.785L32.007.378h2.876v16.289h-2.779v-3.674c0-3.262.12-5.679.193-7.322h-.048c-.363 1.474-1.088 3.432-1.62 4.785l-2.392 6.21h-2.924zm16.236 0h9.57v16.289h-3.166V3.133h-3.238v13.534H41.55zm12.367 16.289V.62c.894-.193 2.102-.314 3.31-.314 1.886 0 3.36.266 4.423 1.257.967.845 1.402 2.199 1.402 3.576 0 1.764-.532 2.997-1.378 3.915-1.015 1.063-2.658 1.547-3.963 1.547h-.628v6.066zm3.166-13.679v5.027c.145.048.314.048.507.048 1.595 0 2.32-1.135 2.32-2.658 0-1.426-.58-2.537-2.054-2.537-.29 0-.58.048-.773.12m7.879-2.61h2.803V3.98c0 2.997-.193 5.8-.314 7.492h.048c.46-1.402 1.28-3.528 1.764-4.785L71.656.378h2.876v16.289h-2.78v-3.674c0-3.262.121-5.679.194-7.322h-.049c-.362 1.474-1.087 3.432-1.619 4.785l-2.392 6.21h-2.924zM84.239 6.88v2.634h-3.722v4.399h4.206v2.755h-7.371V.378h7.08v2.755h-3.915V6.88zm12.87 9.788-.29-5.704c-.072-1.546-.193-3.649-.145-5.389h-.072a71 71 0 0 1-1.04 5.003L94.162 16.4h-2.248l-1.353-5.728c-.314-1.305-.75-3.335-.99-5.099h-.073a181 181 0 0 1-.242 5.438l-.266 5.655h-2.73L87.442.378h3.335l1.305 5.897c.459 2.054.87 3.867 1.16 5.703h.048c.242-1.812.604-3.649 1.04-5.703L95.61.378h3.335l.99 16.289zm12.028-9.788v2.634h-3.721v4.399h4.205v2.755h-7.371V.378h7.081v2.755h-3.915V6.88zM7.412 41.945H4.488l-.726 3.722H.694l3.529-16.289h3.794l3.166 16.289h-3.07zm-2.61-2.465h2.32l-.532-3.407c-.17-.991-.387-2.61-.532-3.698h-.072c-.17 1.087-.411 2.78-.58 3.722zm8.168-10.102h3.166v6.525h3.31v-6.525h3.167v16.289h-3.166v-6.815h-3.311v6.815H12.97zm14.202 16.289V32.303h-2.876v-2.925h8.941v2.925h-2.9v13.364zm7.723-16.289h2.803v3.601c0 2.997-.193 5.8-.314 7.492h.048c.46-1.402 1.281-3.528 1.764-4.785l2.393-6.308h2.876v16.289h-2.78v-3.674c0-3.262.121-5.679.194-7.322h-.048c-.363 1.474-1.088 3.432-1.62 4.785l-2.392 6.21h-2.924zm12.39 0h8.313v2.707h-5.171v3.407c.459-.096.821-.12 1.28-.12 1.402 0 2.635.435 3.529 1.208.967.846 1.547 2.127 1.547 3.77 0 1.57-.484 2.828-1.354 3.697-1.111 1.185-2.852 1.74-5.196 1.74-1.208 0-2.223-.072-2.948-.169zm3.166 8.604v5.22c.217.048.435.048.7.048.75 0 1.354-.29 1.74-.773.412-.484.605-1.16.605-1.885 0-.75-.218-1.426-.629-1.885a2.18 2.18 0 0 0-1.691-.798 3.4 3.4 0 0 0-.725.073m8.233-8.604h2.803v3.601c0 2.997-.193 5.8-.314 7.492h.048c.46-1.402 1.281-3.528 1.765-4.785l2.392-6.308h2.876v16.289h-2.78v-3.674c0-3.262.122-5.679.194-7.322h-.048c-.363 1.474-1.088 3.432-1.62 4.785l-2.392 6.21h-2.924zm16.957-.193c3.94 0 5.051 4.326 5.051 8.048 0 6.138-2.175 8.627-5.268 8.627-3.698 0-5.148-3.915-5.148-8.386 0-4.446 1.765-8.289 5.365-8.289m-.12 2.755c-1.257 0-1.958 2.078-1.958 5.583 0 3.697.701 5.582 1.982 5.582 1.329 0 1.837-2.417 1.837-5.727 0-2.852-.436-5.438-1.861-5.438m8.622 13.727V32.303h-2.876v-2.925h8.942v2.925h-2.9v13.364zm7.723-16.289h2.803v3.601c0 2.997-.193 5.8-.314 7.492h.048c.46-1.402 1.281-3.528 1.764-4.785l2.393-6.308h2.876v16.289h-2.78v-3.674c0-3.262.121-5.679.194-7.322h-.048c-.363 1.474-1.088 3.432-1.62 4.785l-2.392 6.21h-2.924zm12.39 0h3.093v7.081h.242l2.658-7.08h3.48l-3.746 7.54c1.668.628 2.224 2.15 2.683 4.132.362 1.57.628 3.117 1.112 4.616h-3.166c-.387-1.16-.629-2.49-.894-3.77-.387-1.91-.822-3.142-2.127-3.142h-.242v6.912h-3.093zm15.306-.193c3.939 0 5.05 4.326 5.05 8.048 0 6.138-2.175 8.627-5.268 8.627-3.697 0-5.147-3.915-5.147-8.386 0-4.446 1.764-8.289 5.365-8.289m-.121 2.755c-1.257 0-1.958 2.078-1.958 5.583 0 3.697.701 5.582 1.982 5.582 1.329 0 1.837-2.417 1.837-5.727 0-2.852-.435-5.438-1.861-5.438m7.188 13.678V29.62c.967-.218 2.223-.314 3.601-.314 1.522 0 2.997.193 4.132 1.16.87.725 1.233 1.812 1.233 2.948 0 1.45-.749 2.852-2.368 3.553v.096c1.885.532 2.9 2.103 2.9 3.891 0 1.353-.435 2.393-1.209 3.19-.966 1.064-2.61 1.644-5.341 1.644a23 23 0 0 1-2.948-.17m3.166-13.847v4.301h.677c1.135 0 2.005-.966 2.005-2.295 0-1.184-.555-2.103-1.86-2.103-.339 0-.629.024-.822.097m0 6.646v4.881c.193.049.411.049.701.049 1.281 0 2.344-.774 2.344-2.441 0-1.62-1.112-2.465-2.368-2.49z"/></svg>