<svg xmlns="http://www.w3.org/2000/svg" fill="none" viewBox="0 0 220 46"><path fill="#fff" d="M.235 1.378h9.57v16.289H6.639V4.133H3.401v13.534H.235zm12.367 16.289V1.62c.894-.193 2.102-.314 3.31-.314 1.885 0 3.36.266 4.423 1.257.966.845 1.401 2.199 1.401 3.576 0 1.764-.531 2.997-1.377 3.915-1.015 1.063-2.658 1.547-3.963 1.547h-.629v6.066zm3.165-13.679v5.027c.145.048.314.048.508.048 1.595 0 2.32-1.135 2.32-2.658 0-1.426-.58-2.537-2.054-2.537-.29 0-.58.048-.774.12m12.447-2.803c3.939 0 5.05 4.326 5.05 8.048 0 6.138-2.174 8.627-5.268 8.627-3.697 0-5.147-3.915-5.147-8.386 0-4.446 1.764-8.289 5.365-8.289m-.121 2.755c-1.257 0-1.957 2.078-1.957 5.583 0 3.697.7 5.582 1.981 5.582 1.33 0 1.837-2.417 1.837-5.727 0-2.852-.435-5.438-1.861-5.438M39.656.798h2.779v1.233c2.924.387 5.147 2.682 5.147 7.37 0 5.003-2.247 7.106-5.147 7.517v1.329H39.63v-1.33c-2.948-.434-5.147-2.513-5.147-7.443 0-4.785 2.634-7.056 5.172-7.443zm0 13.8V4.326c-.967.29-2.006 1.595-2.006 5.196 0 3.359 1.015 4.857 2.006 5.075M42.41 4.326v10.27c1.063-.217 2.005-1.522 2.005-5.171 0-3.698-1.087-4.882-2.005-5.1m7.172-2.949h2.803V4.98c0 2.997-.193 5.8-.314 7.492h.049c.459-1.402 1.28-3.528 1.764-4.785l2.392-6.308h2.876v16.289h-2.78v-3.674c0-3.262.122-5.679.194-7.322h-.048c-.363 1.474-1.088 3.431-1.62 4.785l-2.392 6.21h-2.924zm13.019 0h8.482v16.289h-3.166V4.133h-2.417v4.302c0 3.746-.241 7.032-2.295 8.628-.605.483-1.378.797-2.175.797l-.677-2.682c.387-.097.797-.29 1.087-.58.943-.967 1.16-2.707 1.16-5.873zm16.8 12.567h-2.925l-.725 3.722h-3.069l3.528-16.289h3.794l3.166 16.289h-3.069zm-2.61-2.465h2.32l-.532-3.407c-.17-.991-.387-2.61-.532-3.698h-.073c-.169 1.088-.41 2.78-.58 3.722zM84.96 1.378h3.093V8.46h.242l2.658-7.08h3.48l-3.746 7.54c1.668.628 2.224 2.15 2.683 4.132.362 1.57.628 3.117 1.111 4.616h-3.165c-.387-1.16-.629-2.49-.895-3.77-.386-1.91-.821-3.142-2.126-3.142h-.242v6.912H84.96zm13.116 16.289V4.303H95.2V1.378h8.942v2.925h-2.9v13.364zm7.723-16.289h2.803V4.98c0 2.997-.193 5.8-.314 7.492h.048c.46-1.402 1.281-3.528 1.765-4.785l2.392-6.308h2.876v16.289h-2.779v-3.674c0-3.262.121-5.679.193-7.322h-.048c-.363 1.474-1.088 3.431-1.619 4.785l-2.393 6.21h-2.924zm12.39 0h3.093V8.46h.242l2.658-7.08h3.48l-3.745 7.54c1.667.628 2.223 2.15 2.682 4.132.363 1.57.628 3.117 1.112 4.616h-3.166c-.387-1.16-.628-2.49-.894-3.77-.387-1.91-.822-3.142-2.127-3.142h-.242v6.912h-3.093zm16.838 12.567h-2.924l-.725 3.722h-3.069l3.528-16.289h3.794l3.166 16.289h-3.069zm-2.61-2.465h2.32l-.532-3.407c-.169-.991-.386-2.61-.531-3.698h-.073c-.169 1.088-.411 2.78-.58 3.722zm12.016 6.138V1.62c.966-.217 2.223-.314 3.6-.314 1.523 0 2.997.193 4.133 1.16.87.725 1.232 1.812 1.232 2.948 0 1.45-.749 2.852-2.368 3.553v.096c1.885.532 2.9 2.103 2.9 3.891 0 1.353-.435 2.393-1.208 3.19-.967 1.064-2.61 1.644-5.341 1.644a23 23 0 0 1-2.948-.17m3.165-13.847v4.302h.677c1.136 0 2.006-.967 2.006-2.296 0-1.184-.556-2.103-1.861-2.103-.338 0-.628.024-.822.097m0 6.646v4.881c.194.049.411.049.701.049 1.281 0 2.344-.774 2.344-2.441 0-1.62-1.111-2.465-2.368-2.49zm8.178-5.849-.531-2.44c.7-.484 2.054-.943 3.6-.943 3.094 0 4.544 1.885 4.544 4.012 0 1.667-1.112 3.286-2.755 3.697v.049c1.909.386 3.238 1.836 3.238 4.084 0 3.117-2.658 4.833-5.582 4.833-1.354 0-2.538-.314-3.287-.725l.459-2.586c.701.411 1.619.653 2.513.653 1.692 0 2.586-.967 2.586-2.272 0-1.812-1.498-2.537-3.214-2.537h-.459V8h.314c1.45 0 2.9-.7 2.9-2.2 0-1.135-.701-1.908-2.054-1.908-.749 0-1.643.314-2.272.676m11.468-3.19h8.385V14.96l1.281.048-.145 6.211h-2.392l-.121-3.552h-7.081l-.121 3.552h-2.416l-.121-6.21 1.16-.049c.507-1.233.846-2.465 1.111-3.794.315-1.861.46-3.77.46-5.68zm2.9 2.755v1.885c0 1.861-.121 3.746-.387 5.486-.193 1.16-.483 2.417-.822 3.408h3.553V4.133zm6.747-2.755h3.407l1.499 6.139c.217.918.411 1.885.531 2.61h.073c.145-.774.242-1.764.387-2.683l1.087-6.066h3.214l-2.416 8.676c-.556 2.054-1.185 4.278-2.006 5.68-.774 1.28-1.958 2.126-3.311 2.126-.556 0-.967-.048-1.281-.145l.121-2.586c.145.024.387.073.773.073.822 0 1.499-.846 1.74-1.644.121-.338.097-.604-.024-.966zm13.957 16.289V4.303h-2.875V1.378h8.941v2.925h-2.9v13.364zm7.723-16.289h2.804V4.98c0 2.997-.194 5.8-.314 7.492h.048c.459-1.402 1.281-3.528 1.764-4.785l2.393-6.308h2.875v16.289h-2.779v-3.674c0-3.262.121-5.679.194-7.322h-.049c-.362 1.474-1.087 3.431-1.619 4.785l-2.392 6.21h-2.925zm14.493 16.289h-3.359c.217-.484.435-1.112.628-1.74.435-1.644.435-3.915 1.644-5.196.29-.314.725-.58 1.16-.701v-.048c-1.716-.532-2.804-1.861-2.804-3.915 0-1.668.629-2.828 1.499-3.553 1.039-.846 2.489-1.208 4.132-1.208 1.208 0 2.465.097 3.456.314v16.047h-3.166v-6.501h-.338c-.556 0-.991.217-1.305.604-.701.894-.822 3.263-1.088 4.47-.121.484-.241.968-.459 1.427m3.19-8.966V3.843c-.169-.024-.362-.072-.628-.072-1.474 0-2.103 1.184-2.103 2.417 0 1.546.919 2.537 2.296 2.537.193 0 .266 0 .435-.024M.234 25.378h2.804v3.601c0 2.997-.193 5.8-.314 7.492h.048c.46-1.402 1.281-3.528 1.765-4.785l2.392-6.308h2.876v16.289h-2.78v-3.674c0-3.262.122-5.679.194-7.322h-.048c-.363 1.474-1.088 3.432-1.62 4.785l-2.392 6.21H.235zm17.809 0h8.386V38.96l1.28.048-.145 6.211h-2.392l-.12-3.552H17.97l-.12 3.552h-2.417l-.121-6.21 1.16-.049c.507-1.233.846-2.465 1.112-3.794a34 34 0 0 0 .459-5.68zm2.9 2.755v1.885c0 1.861-.121 3.746-.387 5.486-.193 1.16-.483 2.417-.822 3.408h3.553V28.133zm8.533-2.755h2.803v3.601c0 2.997-.193 5.8-.314 7.492h.048c.46-1.402 1.281-3.528 1.764-4.785l2.393-6.308h2.876v16.289h-2.78v-3.674c0-3.262.121-5.679.194-7.322h-.049c-.362 1.474-1.087 3.432-1.619 4.785l-2.392 6.21h-2.924zm17.9 12.567h-2.924l-.725 3.722h-3.07l3.529-16.289h3.794l3.166 16.289h-3.07zm-2.61-2.465h2.32l-.532-3.407c-.17-.991-.387-2.61-.532-3.698h-.072c-.17 1.087-.41 2.78-.58 3.722zm8.168 6.187V25.62c.895-.193 2.103-.314 3.311-.314 1.885 0 3.36.266 4.423 1.256.966.846 1.401 2.2 1.401 3.577 0 1.764-.531 2.997-1.377 3.915-1.015 1.063-2.659 1.547-3.964 1.547H56.1v6.066zM56.1 27.988v5.027c.145.048.314.048.508.048 1.595 0 2.32-1.136 2.32-2.658 0-1.426-.58-2.538-2.054-2.538-.29 0-.58.049-.774.121m14.767 3.891v2.634h-3.722v4.399h4.205v2.755h-7.37V25.378h7.08v2.755h-3.915v3.746zm2.623-6.5h2.803v3.6c0 2.997-.193 5.8-.314 7.492h.049c.459-1.402 1.28-3.528 1.764-4.785l2.392-6.308h2.876v16.289h-2.779v-3.674c0-3.262.12-5.679.193-7.322h-.048c-.362 1.474-1.088 3.432-1.62 4.785l-2.392 6.21H73.49z"/></svg>