<svg xmlns="http://www.w3.org/2000/svg" fill="none" viewBox="0 0 209 80"><path fill="#fff" d="M5.841 16.612h.099c.726-1.188 1.947-1.782 3.696-1.782h1.32c.33 0 .594.066.726.198s.231.363.231.726v2.409c0 .363-.066.594-.198.726q-.198.198-.693.198h-.99c-1.221 0-2.046.231-2.508.693-.396.396-.561 1.155-.561 2.277v7.986c0 .33-.099.594-.264.726-.165.165-.462.231-.858.231H2.805c-.429 0-.726-.066-.891-.231-.165-.132-.231-.396-.231-.726V15.754c0-.33.066-.561.231-.693s.462-.231.891-.231h1.584c.363 0 .627.066.792.165q.247.198.396.594zm12.68 5.016v2.574c0 1.287.198 2.112.594 2.508.297.33.759.462 1.386.462h.132c.594 0 1.056-.132 1.386-.462.396-.396.594-1.221.594-2.508v-2.574c0-1.254-.198-2.112-.594-2.508-.33-.297-.792-.462-1.386-.462H20.5c-.627 0-1.09.165-1.386.462-.396.396-.594 1.254-.594 2.508m9.405.198v2.145c0 1.65-.165 2.904-.495 3.828s-.858 1.65-1.584 2.211c-1.09.858-2.772 1.287-5.082 1.287h-.396c-2.31 0-4.026-.429-5.082-1.287-.726-.561-1.254-1.287-1.584-2.211s-.495-2.178-.495-3.828v-2.112c0-1.617.165-2.871.495-3.795a5 5 0 0 1 1.584-2.244c1.056-.858 2.772-1.287 5.082-1.287h.396c2.31 0 3.993.429 5.082 1.287a5.1 5.1 0 0 1 1.584 2.211c.33.924.495 2.178.495 3.795m2.396-1.683v-.429c0-1.617.43-2.838 1.287-3.696.99-.99 2.673-1.485 5.016-1.485h.33c1.848 0 3.465.198 4.818.594q.397.149.495.297c.066.132.1.297.066.561l-.363 2.706c-.066.429-.363.561-.89.429-1.32-.297-2.509-.462-3.499-.462h-.033c-.726 0-1.254.066-1.518.198-.297.132-.429.363-.429.693v.099c0 .33.1.561.363.693.264.132.76.297 1.518.429l1.551.33c1.42.33 2.442.825 3.036 1.485s.891 1.683.891 3.036v.495c0 3.465-2.178 5.181-6.468 5.181h-.33c-2.178 0-3.993-.297-5.51-.891-.298-.099-.496-.231-.562-.396-.066-.132-.066-.396 0-.759l.462-2.178c.1-.627.462-.825 1.122-.627 1.518.528 2.838.759 3.96.759h.1c.725 0 1.22-.066 1.517-.231.264-.132.43-.396.43-.759v-.099a.71.71 0 0 0-.364-.627q-.396-.198-1.584-.495l-1.452-.33q-2.178-.495-3.069-1.485c-.594-.66-.89-1.65-.89-3.036m24.095-5.61h.264c1.913 0 3.333.462 4.19 1.353.792.858 1.221 2.31 1.221 4.356v9.801c0 .33-.099.594-.264.726-.165.165-.462.231-.858.231h-3.035c-.43 0-.727-.066-.892-.231-.164-.132-.23-.396-.23-.726v-9.339c0-.726-.133-1.254-.364-1.518-.264-.264-.758-.429-1.451-.429H52.8c-.726 0-1.188.165-1.453.429-.264.264-.363.792-.363 1.518v9.339c0 .33-.099.594-.264.726-.164.165-.462.231-.858.231h-3.035c-.43 0-.727-.066-.892-.231-.165-.132-.23-.396-.23-.726V15.754c0-.33.066-.561.23-.693.165-.132.462-.231.892-.231h1.55c.396 0 .66.066.825.165q.248.149.397.594l.198.627h.099c1.056-1.122 2.54-1.683 4.52-1.683m18.356 15.114h-.066c-.726 1.122-2.178 1.65-4.323 1.65h-.495c-1.683 0-3.003-.429-3.927-1.287-.957-.858-1.42-2.145-1.42-3.795v-.363c0-1.782.496-3.069 1.519-3.795s2.673-1.089 4.983-1.089h.23c.859 0 1.65.066 2.31.132v-.693c0-.693-.197-1.188-.56-1.452-.396-.231-1.056-.363-1.98-.363-1.122 0-2.376.198-3.828.561-.396.099-.693.099-.825 0-.165-.099-.264-.297-.297-.627l-.264-1.749c-.066-.33-.066-.561-.066-.66 0-.396.264-.693.792-.858 1.683-.462 3.564-.726 5.643-.726 2.54 0 4.356.561 5.412 1.617.825.858 1.254 2.244 1.254 4.125v9.801c0 .495-.198.792-.528.924-.825.33-1.518.792-2.046 1.386-.561.594-.825 1.221-.825 1.848v.099q0 .891.89.891h.1c.396 0 .89-.066 1.419-.264.165-.033.297-.066.396-.066.165 0 .297.165.396.429l.165.693c.099.462.165.693.165.759 0 .198-.165.363-.462.495a7.4 7.4 0 0 1-2.673.495h-.198c-1.122 0-2.013-.231-2.607-.726s-.891-1.188-.891-2.046v-.165c0-.792.264-1.551.825-2.277.528-.726 1.254-1.32 2.112-1.782zm-1.188-4.224v-.924Q71.04 24.4 70 24.4h-.363q-1.188 0-1.683.297c-.33.198-.462.594-.462 1.188v.132c0 .594.132.99.462 1.188.297.231.759.33 1.386.33h.23c.66 0 1.156-.165 1.552-.495.297-.264.462-.825.462-1.617m16.128 1.617h.264c.89 0 1.847-.132 2.87-.429.33-.066.529-.099.628-.099.33 0 .528.198.594.561l.296 1.683c.067.462.133.759.133.891 0 .396-.297.693-.859.891-1.451.528-3.035.759-4.751.759h-.397c-2.376 0-4.124-.528-5.213-1.65q-1.684-1.683-1.684-5.643V22.09c0-1.551.133-2.772.397-3.63a5.2 5.2 0 0 1 1.287-2.178c1.154-1.155 2.97-1.749 5.444-1.749h.33c1.98 0 3.697.363 5.082 1.089.397.231.627.495.627.825 0 .198-.099.528-.263.99l-.627 1.584q-.247.594-.694.594c-.132 0-.33-.033-.594-.165-1.055-.429-2.046-.66-2.936-.66h-.133c-.858 0-1.484.231-1.88.627-.496.495-.727 1.518-.727 3.036v1.122c0 1.353.199 2.277.66 2.772.43.462 1.156.693 2.146.693m-4.06-16.566 5.182-4.422c.198-.198.428-.297.627-.297.23 0 .462.165.66.429l1.584 2.046c.132.198.197.363.197.561 0 .264-.198.528-.528.792l-5.213 3.564a1.14 1.14 0 0 1-.66.231c-.264 0-.528-.132-.792-.462l-.99-1.155c-.264-.297-.364-.561-.364-.759s.1-.396.297-.528M6.963 60.935v4.224c0 .759.132 1.287.462 1.584.264.297.759.429 1.485.429h.297c.759 0 1.287-.198 1.617-.66q.396-.594.396-2.871v-1.419c0-1.65-.165-2.673-.429-3.003-.297-.33-.858-.528-1.65-.528h-.132c-.759 0-1.287.165-1.617.495-.297.297-.429.891-.429 1.749m0-5.511h.066q1.435-.891 3.762-.891h.297c1.98 0 3.432.594 4.323 1.782.726 1.023 1.122 2.838 1.122 5.445v2.376c0 2.64-.561 4.488-1.683 5.511-1.188 1.122-3.069 1.65-5.643 1.65h-.66c-2.706 0-4.554-.528-5.544-1.617-.891-.957-1.32-2.508-1.32-4.686V49.616c0-.33.066-.561.231-.726.132-.132.429-.231.858-.231h3.069c.396 0 .693.099.858.231.165.165.264.396.264.726zM27.229 67.04h.363c1.122 0 2.31-.132 3.498-.429.33-.066.528-.099.627-.099.33 0 .528.198.594.561l.264 1.65c.066.462.132.759.132.891 0 .396-.297.693-.858.891-1.518.528-3.2.792-4.983.792h-.627q-4.059 0-5.742-1.683a4.73 4.73 0 0 1-1.32-2.244c-.23-.858-.33-2.013-.33-3.432V62.09c0-2.871.66-4.884 1.98-6.072 1.122-.99 2.838-1.485 5.181-1.485h.462c2.31 0 3.993.561 4.983 1.65 1.056 1.188 1.584 3.135 1.584 5.907v1.716c0 .627-.33.924-.957.924h-7.92v.264c0 .792.198 1.32.66 1.617.43.297 1.221.429 2.41.429m-3.069-5.742h3.63c.264 0 .396-.132.396-.429v-.528c0-.66-.132-1.155-.33-1.518-.264-.396-.792-.594-1.518-.594h-.297c-.66 0-1.122.165-1.386.462q-.495.594-.495 1.782zm17.062-2.277h-5.247c-.33 0-.56-.033-.693-.165s-.165-.396-.165-.792v-2.277c0-.396.033-.627.165-.759q.198-.198.693-.198H47.13c.33 0 .561.066.726.198.132.132.231.396.231.759v.627c0 .858-.264 1.65-.726 2.343l-5.676 8.052h5.643c.33 0 .528.066.66.198s.198.363.198.759v2.277q0 .594-.198.792c-.132.132-.33.165-.66.165H35.975c-.693 0-1.023-.297-1.023-.957v-.759c0-.858.231-1.617.726-2.343zm21.127 2.607v2.574c0 1.287.198 2.112.594 2.508.297.33.759.462 1.386.462h.132c.594 0 1.056-.132 1.386-.462.396-.396.594-1.221.594-2.508v-2.574c0-1.254-.198-2.112-.594-2.508-.33-.297-.792-.462-1.386-.462h-.132c-.627 0-1.09.165-1.386.462-.396.396-.594 1.254-.594 2.508m9.405.198v2.145c0 1.65-.165 2.904-.495 3.828s-.858 1.65-1.584 2.211c-1.09.858-2.772 1.287-5.082 1.287h-.396c-2.31 0-4.026-.429-5.082-1.287-.726-.561-1.254-1.287-1.584-2.211s-.495-2.178-.495-3.828v-2.112c0-1.617.165-2.871.495-3.795a5 5 0 0 1 1.584-2.244c1.056-.858 2.772-1.287 5.082-1.287h.396c2.31 0 3.993.429 5.082 1.287a5.1 5.1 0 0 1 1.584 2.211c.33.924.495 2.178.495 3.795m10.118 7.656h-.89c-4.686 0-6.996-2.112-6.996-6.369v-2.211c0-2.178.56-3.762 1.715-4.818 1.123-1.023 2.872-1.551 5.182-1.551h.462c.428-2.376 2.177-3.597 5.28-3.597h1.617c.33 0 .527.066.66.165.099.132.165.363.165.693v1.815c0 .33-.066.528-.198.627-.132.132-.364.165-.66.165h-1.552c-.725 0-1.22.165-1.517.495 2.475.66 3.728 2.673 3.728 6.006v2.211c0 2.376-.66 3.96-1.947 4.818.858.462 1.518 1.056 2.013 1.782.496.726.76 1.518.76 2.343v.231c0 3.267-2.608 4.884-7.755 4.884h-.627c-2.245 0-4.422-.396-6.468-1.188-.594-.198-.825-.627-.66-1.254l.594-2.112c.164-.627.56-.858 1.188-.66 1.947.66 3.663.957 5.18.957h.463q2.87 0 2.87-1.683v-.099c0-.627-.33-1.188-.99-1.716-.528.066-1.089.066-1.617.066m-.56-4.125h.23c.727 0 1.221-.132 1.552-.462.363-.363.56-1.122.56-2.244v-1.287c0-1.122-.197-1.848-.56-2.244-.33-.297-.825-.462-1.551-.462h-.232c-.726 0-1.254.165-1.55.462-.396.396-.561 1.122-.561 2.244v1.287c0 1.122.165 1.881.56 2.244.297.33.825.462 1.551.462m14.667-8.745h.099c.726-1.188 1.947-1.782 3.696-1.782h1.32c.33 0 .594.066.726.198s.231.363.231.726v2.409c0 .363-.066.594-.198.726q-.198.198-.693.198h-.99c-1.221 0-2.046.231-2.508.693-.396.396-.561 1.155-.561 2.277v7.986c0 .33-.1.594-.264.726-.165.165-.462.231-.858.231h-3.036c-.43 0-.726-.066-.891-.231-.165-.132-.231-.396-.231-.726V55.754c0-.33.066-.561.23-.693.166-.132.463-.231.892-.231h1.584c.363 0 .627.066.792.165q.248.198.396.594zm17.045 13.035h-.066c-.726 1.122-2.178 1.65-4.323 1.65h-.495c-1.683 0-3.003-.429-3.927-1.287-.957-.858-1.419-2.145-1.419-3.795v-.363c0-1.782.495-3.069 1.518-3.795s2.673-1.089 4.983-1.089h.231c.858 0 1.65.066 2.31.132v-.693c0-.693-.198-1.188-.561-1.452-.396-.231-1.056-.363-1.98-.363-1.122 0-2.376.198-3.828.561-.396.099-.693.099-.825 0-.165-.099-.264-.297-.297-.627l-.264-1.749c-.066-.297-.066-.528-.066-.66 0-.396.264-.693.792-.858 1.683-.462 3.564-.726 5.643-.726 2.541 0 4.356.561 5.412 1.617.825.858 1.254 2.244 1.254 4.125v9.801c0 .33-.099.594-.264.726s-.462.198-.858.198h-1.551c-.396 0-.66-.033-.825-.132s-.297-.297-.396-.627zm-1.188-4.224v-.924q-.545-.099-1.584-.099h-.363q-1.188 0-1.683.297c-.33.198-.462.594-.462 1.188v.132c0 .594.132.99.462 1.188.297.231.759.33 1.386.33h.231c.66 0 1.155-.165 1.551-.495.297-.264.462-.825.462-1.617m17.121-10.89h.264c1.914 0 3.333.462 4.191 1.353.792.858 1.221 2.31 1.221 4.356v9.801c0 .33-.099.594-.264.726-.165.165-.462.231-.858.231h-3.036c-.429 0-.726-.066-.891-.231-.165-.132-.231-.396-.231-.726v-9.339c0-.726-.132-1.254-.363-1.518-.264-.264-.759-.429-1.452-.429h-.198c-.726 0-1.188.165-1.452.429s-.363.792-.363 1.518v9.339c0 .33-.099.594-.264.726-.165.165-.462.231-.858.231h-3.036c-.429 0-.726-.066-.891-.231-.165-.132-.231-.396-.231-.726V55.754c0-.33.066-.561.231-.693s.462-.231.891-.231h1.551c.396 0 .66.066.825.165q.248.148.396.594l.198.627h.099c1.056-1.122 2.541-1.683 4.521-1.683m14.165 1.254v14.256c0 .33-.099.594-.264.726-.165.165-.462.231-.858.231h-3.036c-.429 0-.726-.066-.891-.231-.165-.132-.231-.396-.231-.726V55.787c0-.33.066-.561.231-.726.165-.132.462-.231.891-.231H142c.396 0 .693.099.858.231.165.165.264.396.264.726m-2.442-2.211h-.396c-1.782 0-2.673-.891-2.673-2.739v-.165c0-1.815.891-2.739 2.673-2.739h.396c1.782 0 2.673.924 2.673 2.739v.165c0 1.848-.891 2.739-2.673 2.739m13.451 13.464h.264c.891 0 1.848-.132 2.871-.429.33-.066.528-.099.627-.099.33 0 .528.198.594.561l.297 1.683c.066.462.132.759.132.891 0 .396-.297.693-.858.891-1.452.528-3.036.759-4.752.759h-.396c-2.376 0-4.125-.528-5.214-1.65q-1.683-1.683-1.683-5.643V62.09c0-1.551.132-2.772.396-3.63a5.2 5.2 0 0 1 1.287-2.178c1.155-1.155 2.97-1.749 5.445-1.749h.33c1.98 0 3.696.363 5.082 1.089.396.231.627.495.627.825 0 .198-.099.528-.264.99l-.627 1.584q-.248.594-.693.594c-.132 0-.33-.033-.594-.165-1.056-.429-2.046-.66-2.937-.66h-.132c-.858 0-1.485.231-1.881.627-.495.495-.726 1.518-.726 3.036v1.122c0 1.353.198 2.277.66 2.772.429.462 1.155.693 2.145.693m12.775-8.019h-5.247c-.33 0-.561-.033-.693-.165s-.165-.396-.165-.792v-2.277c0-.396.033-.627.165-.759q.198-.198.693-.198h11.154c.33 0 .561.066.726.198.132.132.231.396.231.759v.627c0 .858-.264 1.65-.726 2.343l-5.676 8.052h5.643c.33 0 .528.066.66.198s.198.363.198.759v2.277q0 .594-.198.792c-.132.132-.33.165-.66.165h-11.352c-.693 0-1.023-.297-1.023-.957v-.759c0-.858.231-1.617.726-2.343zm17.041 8.019h.363c1.122 0 2.31-.132 3.498-.429.33-.066.528-.099.627-.099.33 0 .528.198.594.561l.264 1.65c.066.462.132.759.132.891 0 .396-.297.693-.858.891-1.518.528-3.201.792-4.983.792h-.627q-4.059 0-5.742-1.683a4.73 4.73 0 0 1-1.32-2.244c-.231-.858-.33-2.013-.33-3.432V62.09c0-2.871.66-4.884 1.98-6.072 1.122-.99 2.838-1.485 5.181-1.485h.462c2.31 0 3.993.561 4.983 1.65 1.056 1.188 1.584 3.135 1.584 5.907v1.716c0 .627-.33.924-.957.924h-7.92v.264c0 .792.198 1.32.66 1.617.429.297 1.221.429 2.409.429m-3.069-5.742h3.63c.264 0 .396-.132.396-.429v-.528c0-.66-.132-1.155-.33-1.518-.264-.396-.792-.594-1.518-.594h-.297c-.66 0-1.122.165-1.386.462q-.495.594-.495 1.782zm20.395-6.765h.264c1.914 0 3.333.462 4.191 1.353.792.858 1.221 2.31 1.221 4.356v9.801c0 .33-.099.594-.264.726-.165.165-.462.231-.858.231h-3.036c-.429 0-.726-.066-.891-.231-.165-.132-.231-.396-.231-.726v-9.339c0-.726-.132-1.254-.363-1.518-.264-.264-.759-.429-1.452-.429h-.198c-.726 0-1.188.165-1.452.429s-.363.792-.363 1.518v9.339c0 .33-.099.594-.264.726-.165.165-.462.231-.858.231h-3.036c-.429 0-.726-.066-.891-.231-.165-.132-.231-.396-.231-.726V55.754c0-.33.066-.561.231-.693s.462-.231.891-.231h1.551c.396 0 .66.066.825.165q.248.148.396.594l.198.627h.099c1.056-1.122 2.541-1.683 4.521-1.683m-4.653-4.059 5.181-4.422c.198-.198.429-.297.627-.297.231 0 .462.165.66.429l1.584 2.046c.132.198.198.363.198.561 0 .264-.198.528-.528.792l-5.214 3.564c-.264.165-.462.231-.66.231-.264 0-.528-.132-.792-.462l-.99-1.155c-.264-.297-.363-.561-.363-.759s.099-.396.297-.528"/></svg>