<svg xmlns="http://www.w3.org/2000/svg" fill="none" viewBox="0 0 238 78"><path fill="#fff" d="M13.827 17.935v-1.221c0-2.673-.33-4.323-.924-4.95q-.792-.792-2.178-.792h-.462q-1.386 0-2.178.792c-.627.627-.924 2.277-.924 4.95v1.221c0 2.706.297 4.356.924 4.95q.792.792 2.178.792h.462q1.386 0 2.178-.792c.594-.594.924-2.244.924-4.95m5.643-1.881v2.541c0 3.993-.924 6.699-2.772 8.151-1.32 1.056-3.366 1.551-6.072 1.551h-.264c-2.739 0-4.752-.495-6.072-1.551-1.848-1.452-2.772-4.158-2.772-8.151v-2.541c0-3.96.924-6.699 2.772-8.151 1.32-1.023 3.333-1.551 6.072-1.551h.264c2.706 0 4.752.528 6.072 1.551 1.848 1.452 2.772 4.191 2.772 8.151m13.78 8.844v1.881c0 .495-.1.825-.232.99s-.429.231-.825.231h-2.64c-2.376 0-3.96-.396-4.686-1.221-.66-.693-.957-2.013-.957-3.993v-6.831h-1.782c-.33 0-.528-.033-.66-.165s-.165-.33-.165-.66v-1.683c0-.396.033-.66.165-.792.1-.132.33-.231.693-.33l1.75-.429V8.662c0-.33.065-.561.23-.726.165-.132.462-.231.891-.231h3.036c.396 0 .693.099.858.231.165.165.264.396.264.726v3.168h2.74c.33 0 .527.066.66.198.131.132.197.363.197.759v2.211q0 .594-.198.792c-.132.132-.33.165-.66.165H29.19v6.237c0 .594.066.957.264 1.155.198.231.627.33 1.287.33h1.452c.396 0 .693.099.825.264s.231.495.231.957m10.944-12.276h2.838c.463 0 .793.066.958.198s.296.396.362.792c0 .132.595 3.069 1.75 8.778h.099c.593-3.465 1.121-6.666 1.55-9.636.034-.363.133-.594.265-.726q.198-.198.693-.198h3.365c.364 0 .595.099.727.231.099.165.131.429.066.759-.528 2.574-1.188 5.412-1.914 8.514-.727 3.102-1.255 5.049-1.585 5.874-.132.33-.297.561-.462.66-.164.099-.428.132-.758.132h-3.63c-.694 0-1.123-.231-1.255-.759-.626-2.244-1.154-5.082-1.616-8.514h-.133a91 91 0 0 1-1.65 8.514c-.131.528-.527.759-1.187.759h-3.565c-.66 0-1.089-.231-1.254-.726-.33-.891-.89-2.937-1.682-6.105a153 153 0 0 1-1.849-8.349c-.099-.363-.066-.627.067-.759.132-.132.395-.231.791-.231h3.234c.33 0 .595.066.76.198.131.132.23.396.296.726.462 3.069.99 6.27 1.617 9.636h.133c.791-4.092 1.352-7.029 1.617-8.778.066-.429.165-.693.33-.825.165-.099.495-.165 1.023-.165m19.412 6.006v2.574c0 1.287.198 2.112.594 2.508.297.33.759.462 1.386.462h.132c.594 0 1.056-.132 1.386-.462.396-.396.594-1.221.594-2.508v-2.574c0-1.254-.198-2.112-.594-2.508-.33-.297-.792-.462-1.386-.462h-.132c-.627 0-1.09.165-1.386.462-.396.396-.594 1.254-.594 2.508m9.405.198v2.145c0 1.65-.165 2.904-.495 3.828s-.858 1.65-1.584 2.211c-1.09.858-2.772 1.287-5.082 1.287h-.396c-2.31 0-4.026-.429-5.082-1.287-.726-.561-1.254-1.287-1.584-2.211s-.495-2.178-.495-3.828v-2.112c0-1.617.165-2.871.495-3.795a5 5 0 0 1 1.584-2.244c1.056-.858 2.772-1.287 5.082-1.287h.396c2.31 0 3.993.429 5.082 1.287a5.1 5.1 0 0 1 1.584 2.211c.33.924.495 2.178.495 3.795M62.946 7.474l5.18-4.422c.199-.198.43-.297.628-.297.23 0 .462.165.66.429l1.584 2.046c.132.198.198.363.198.561 0 .264-.198.528-.528.792l-5.214 3.564a1.14 1.14 0 0 1-.66.231c-.264 0-.528-.132-.792-.462l-.99-1.155c-.264-.297-.363-.561-.363-.759s.099-.396.297-.528m17.048 6.138h.1c.725-1.188 1.946-1.782 3.695-1.782h1.32c.33 0 .594.066.726.198s.231.363.231.726v2.409c0 .363-.066.594-.198.726q-.198.198-.693.198h-.99c-1.22 0-2.046.231-2.508.693-.396.396-.56 1.155-.56 2.277v7.986c0 .33-.1.594-.265.726-.165.165-.462.231-.858.231h-3.036c-.429 0-.726-.066-.89-.231-.166-.132-.232-.396-.232-.726V12.754c0-.33.066-.561.231-.693s.462-.231.891-.231h1.584c.363 0 .627.066.792.165q.248.198.396.594zm13.403 2.409H88.15c-.33 0-.561-.033-.693-.165s-.165-.396-.165-.792v-2.277c0-.396.033-.627.165-.759q.198-.198.693-.198h11.154c.33 0 .561.066.726.198.132.132.231.396.231.759v.627c0 .858-.264 1.65-.726 2.343l-5.676 8.052h5.643c.33 0 .528.066.66.198s.198.363.198.759v2.277q0 .594-.198.792c-.132.132-.33.165-.66.165H88.15c-.693 0-1.023-.297-1.023-.957v-.759c0-.858.231-1.617.726-2.343zm21.622 5.577v5.445c0 .33-.099.594-.264.726-.165.165-.462.231-.858.231h-3.036c-.429 0-.726-.066-.891-.231-.165-.132-.231-.396-.231-.726V6.616c0-.33.066-.561.231-.726.165-.132.462-.231.891-.231h3.036c.396 0 .693.099.858.231.165.165.264.396.264.726v10.758h.231l3.135-4.785c.297-.495.759-.759 1.386-.759h3.828c.363 0 .561.132.561.396 0 .132-.099.363-.264.627l-3.795 5.676c-.297.462-.429.792-.429.99 0 .231.132.561.429.99l4.059 6.402c.132.264.198.429.198.561 0 .363-.231.528-.693.528h-3.663c-.462 0-.825-.033-1.023-.165q-.297-.148-.594-.693l-3.135-5.544zm15.553-2.97v2.574c0 1.287.198 2.112.594 2.508.297.33.759.462 1.386.462h.132c.594 0 1.056-.132 1.386-.462.396-.396.594-1.221.594-2.508v-2.574c0-1.254-.198-2.112-.594-2.508-.33-.297-.792-.462-1.386-.462h-.132c-.627 0-1.089.165-1.386.462-.396.396-.594 1.254-.594 2.508m9.405.198v2.145c0 1.65-.165 2.904-.495 3.828s-.858 1.65-1.584 2.211c-1.089.858-2.772 1.287-5.082 1.287h-.396c-2.31 0-4.026-.429-5.082-1.287-.726-.561-1.254-1.287-1.584-2.211s-.495-2.178-.495-3.828v-2.112c0-1.617.165-2.871.495-3.795a5 5 0 0 1 1.584-2.244c1.056-.858 2.772-1.287 5.082-1.287h.396c2.31 0 3.993.429 5.082 1.287a5.1 5.1 0 0 1 1.584 2.211c.33.924.495 2.178.495 3.795m11.538-7.293h.264c1.914 0 3.333.462 4.191 1.353.792.858 1.221 2.31 1.221 4.356v9.801c0 .33-.099.594-.264.726-.165.165-.462.231-.858.231h-3.036c-.429 0-.726-.066-.891-.231-.165-.132-.231-.396-.231-.726v-9.339c0-.726-.132-1.254-.363-1.518-.264-.264-.759-.429-1.452-.429h-.198c-.726 0-1.188.165-1.452.429s-.363.792-.363 1.518v9.339c0 .33-.099.594-.264.726-.165.165-.462.231-.858.231h-3.036c-.429 0-.726-.066-.891-.231-.165-.132-.231-.396-.231-.726V12.754c0-.33.066-.561.231-.693s.462-.231.891-.231h1.551c.396 0 .66.066.825.165q.248.149.396.594l.198.627h.099c1.056-1.122 2.541-1.683 4.521-1.683m19.148 13.365v1.881c0 .495-.099.825-.231.99s-.429.231-.825.231h-2.64c-2.376 0-3.96-.396-4.686-1.221-.66-.693-.957-2.013-.957-3.993v-6.831h-1.782c-.33 0-.528-.033-.66-.165s-.165-.33-.165-.66v-1.683c0-.396.033-.66.165-.792.099-.132.33-.231.693-.33l1.749-.429V8.662c0-.33.066-.561.231-.726.165-.132.462-.231.891-.231h3.036c.396 0 .693.099.858.231.165.165.264.396.264.726v3.168h2.739c.33 0 .528.066.66.198s.198.363.198.759v2.211q0 .594-.198.792c-.132.132-.33.165-.66.165h-2.739v6.237c0 .594.066.957.264 1.155.198.231.627.33 1.287.33h1.452c.396 0 .693.099.825.264s.231.495.231.957m7.283-6.27v2.574c0 1.287.198 2.112.594 2.508.297.33.759.462 1.386.462h.132c.594 0 1.056-.132 1.386-.462.396-.396.594-1.221.594-2.508v-2.574c0-1.254-.198-2.112-.594-2.508-.33-.297-.792-.462-1.386-.462h-.132c-.627 0-1.089.165-1.386.462-.396.396-.594 1.254-.594 2.508m9.405.198v2.145c0 1.65-.165 2.904-.495 3.828s-.858 1.65-1.584 2.211c-1.089.858-2.772 1.287-5.082 1.287h-.396c-2.31 0-4.026-.429-5.082-1.287-.726-.561-1.254-1.287-1.584-2.211s-.495-2.178-.495-3.828v-2.112c0-1.617.165-2.871.495-3.795a5 5 0 0 1 1.584-2.244c1.056-.858 2.772-1.287 5.082-1.287h.396c2.31 0 3.993.429 5.082 1.287a5.1 5.1 0 0 1 1.584 2.211c.33.924.495 2.178.495 3.795M6.963 60.935v4.224c0 .759.132 1.287.462 1.584.264.297.759.429 1.485.429h.297c.759 0 1.287-.198 1.617-.66q.396-.594.396-2.871v-1.419c0-1.65-.165-2.673-.429-3.003-.297-.33-.858-.528-1.65-.528h-.132c-.759 0-1.287.165-1.617.495-.297.297-.429.891-.429 1.749m0-5.511h.066q1.435-.891 3.762-.891h.297c1.98 0 3.432.594 4.323 1.782.726 1.023 1.122 2.838 1.122 5.445v2.376c0 2.64-.561 4.488-1.683 5.511-1.188 1.122-3.069 1.65-5.643 1.65h-.66c-2.706 0-4.554-.528-5.544-1.617-.891-.957-1.32-2.508-1.32-4.686V49.616c0-.33.066-.561.231-.726.132-.132.429-.231.858-.231h3.069c.396 0 .693.099.858.231.165.165.264.396.264.726zm21.95 14.223h-.067c-.726 1.122-2.178 1.65-4.323 1.65h-.495c-1.683 0-3.003-.429-3.927-1.287-.957-.858-1.419-2.145-1.419-3.795v-.363c0-1.782.495-3.069 1.518-3.795s2.673-1.089 4.983-1.089h.231c.858 0 1.65.066 2.31.132v-.693c0-.693-.198-1.188-.56-1.452-.397-.231-1.057-.363-1.98-.363-1.123 0-2.377.198-3.829.561-.396.099-.693.099-.825 0-.165-.099-.264-.297-.297-.627l-.264-1.749c-.066-.297-.066-.528-.066-.66 0-.396.264-.693.792-.858 1.683-.462 3.564-.726 5.643-.726 2.541 0 4.356.561 5.412 1.617.825.858 1.254 2.244 1.254 4.125v9.801c0 .33-.099.594-.264.726s-.462.198-.858.198h-1.55c-.397 0-.66-.033-.826-.132s-.297-.297-.396-.627zm-1.189-4.224v-.924q-.544-.099-1.584-.099h-.363q-1.188 0-1.683.297c-.33.198-.462.594-.462 1.188v.132c0 .594.132.99.462 1.188.297.231.76.33 1.386.33h.231c.66 0 1.155-.165 1.551-.495.297-.264.462-.825.462-1.617m17.121-10.89h.264c1.914 0 3.333.462 4.191 1.353.792.858 1.221 2.31 1.221 4.356v9.801c0 .33-.099.594-.264.726-.165.165-.462.231-.858.231h-3.036c-.429 0-.726-.066-.89-.231-.166-.132-.232-.396-.232-.726v-9.339c0-.726-.132-1.254-.363-1.518-.264-.264-.759-.429-1.452-.429h-.198c-.726 0-1.188.165-1.452.429s-.363.792-.363 1.518v9.339c0 .33-.099.594-.264.726-.165.165-.462.231-.858.231h-3.036c-.429 0-.726-.066-.89-.231-.166-.132-.232-.396-.232-.726V55.754c0-.33.066-.561.231-.693s.462-.231.891-.231h1.551c.396 0 .66.066.825.165q.247.148.396.594l.198.627h.1c1.055-1.122 2.54-1.683 4.52-1.683m14.1 10.065v5.445c0 .33-.1.594-.265.726-.165.165-.462.231-.858.231h-3.036c-.429 0-.726-.066-.89-.231-.166-.132-.232-.396-.232-.726V49.616c0-.33.066-.561.231-.726.165-.132.462-.231.891-.231h3.036c.396 0 .693.099.858.231.165.165.264.396.264.726v10.758h.231l3.135-4.785c.297-.495.76-.759 1.386-.759h3.828c.363 0 .561.132.561.396 0 .132-.099.363-.264.627l-3.795 5.676c-.297.462-.429.792-.429.99 0 .231.132.561.43.99l4.058 6.402c.132.264.198.429.198.561 0 .363-.23.528-.693.528h-3.663c-.462 0-.825-.033-1.023-.165q-.297-.148-.594-.693l-3.135-5.544zm15.553-2.97v2.574c0 1.287.198 2.112.594 2.508.297.33.76.462 1.386.462h.132c.594 0 1.056-.132 1.386-.462.396-.396.594-1.221.594-2.508v-2.574c0-1.254-.198-2.112-.594-2.508-.33-.297-.792-.462-1.386-.462h-.132c-.627 0-1.089.165-1.386.462-.396.396-.594 1.254-.594 2.508m9.405.198v2.145c0 1.65-.165 2.904-.495 3.828s-.858 1.65-1.584 2.211c-1.089.858-2.772 1.287-5.082 1.287h-.396c-2.31 0-4.026-.429-5.082-1.287-.726-.561-1.254-1.287-1.584-2.211s-.495-2.178-.495-3.828v-2.112c0-1.617.165-2.871.495-3.795a5 5 0 0 1 1.584-2.244c1.056-.858 2.772-1.287 5.082-1.287h.396c2.31 0 3.993.429 5.082 1.287a5.1 5.1 0 0 1 1.584 2.211c.33.924.495 2.178.495 3.795m11.274-6.204h2.838c.462 0 .792.066.957.198s.297.396.363.792c0 .132.594 3.069 1.749 8.778h.099c.594-3.465 1.122-6.666 1.551-9.636.033-.363.132-.594.264-.726q.198-.198.693-.198h3.366c.363 0 .594.099.726.231.099.165.132.429.066.759-.528 2.574-1.188 5.412-1.914 8.514s-1.254 5.049-1.584 5.874c-.132.33-.297.561-.462.66s-.429.132-.759.132H99.5c-.693 0-1.122-.231-1.254-.759-.627-2.244-1.155-5.082-1.617-8.514h-.132a91 91 0 0 1-1.65 8.514c-.132.528-.528.759-1.188.759h-3.564c-.66 0-1.09-.231-1.254-.726-.33-.891-.891-2.937-1.683-6.105a153 153 0 0 1-1.848-8.349c-.1-.363-.066-.627.066-.759s.396-.231.792-.231h3.234c.33 0 .594.066.759.198.132.132.23.396.297.726.462 3.069.99 6.27 1.617 9.636h.132c.792-4.092 1.353-7.029 1.617-8.778.066-.429.165-.693.33-.825.165-.099.495-.165 1.023-.165m22.48 11.418h.363c1.122 0 2.31-.132 3.498-.429.33-.066.528-.099.627-.099.33 0 .528.198.594.561l.264 1.65c.066.462.132.759.132.891 0 .396-.297.693-.858.891-1.518.528-3.201.792-4.983.792h-.627q-4.059 0-5.742-1.683a4.73 4.73 0 0 1-1.32-2.244c-.231-.858-.33-2.013-.33-3.432V62.09c0-2.871.66-4.884 1.98-6.072 1.122-.99 2.838-1.485 5.181-1.485h.462c2.31 0 3.993.561 4.983 1.65 1.056 1.188 1.584 3.135 1.584 5.907v1.716c0 .627-.33.924-.957.924h-7.92v.264c0 .792.198 1.32.66 1.617.429.297 1.221.429 2.409.429m-3.069-5.742h3.63c.264 0 .396-.132.396-.429v-.528c0-.66-.132-1.155-.33-1.518-.264-.396-.792-.594-1.518-.594h-.297c-.66 0-1.122.165-1.386.462q-.495.594-.495 1.782zm24.216-2.277h-5.247c-.33 0-.561-.033-.693-.165s-.165-.396-.165-.792v-2.277c0-.396.033-.627.165-.759q.198-.198.693-.198h11.154c.33 0 .561.066.726.198.132.132.231.396.231.759v.627c0 .858-.264 1.65-.726 2.343l-5.676 8.052h5.643c.33 0 .528.066.66.198s.198.363.198.759v2.277q0 .594-.198.792c-.132.132-.33.165-.66.165h-11.352c-.693 0-1.023-.297-1.023-.957v-.759c0-.858.231-1.617.726-2.343zm18.725 10.626h-.066c-.726 1.122-2.178 1.65-4.323 1.65h-.495c-1.683 0-3.003-.429-3.927-1.287-.957-.858-1.419-2.145-1.419-3.795v-.363c0-1.782.495-3.069 1.518-3.795s2.673-1.089 4.983-1.089h.231c.858 0 1.65.066 2.31.132v-.693c0-.693-.198-1.188-.561-1.452-.396-.231-1.056-.363-1.98-.363-1.122 0-2.376.198-3.828.561-.396.099-.693.099-.825 0-.165-.099-.264-.297-.297-.627l-.264-1.749c-.066-.297-.066-.528-.066-.66 0-.396.264-.693.792-.858 1.683-.462 3.564-.726 5.643-.726 2.541 0 4.356.561 5.412 1.617.825.858 1.254 2.244 1.254 4.125v9.801c0 .33-.099.594-.264.726s-.462.198-.858.198h-1.551c-.396 0-.66-.033-.825-.132s-.297-.297-.396-.627zm-1.188-4.224v-.924q-.544-.099-1.584-.099h-.363q-1.188 0-1.683.297c-.33.198-.462.594-.462 1.188v.132c0 .594.132.99.462 1.188.297.231.759.33 1.386.33h.231c.66 0 1.155-.165 1.551-.495.297-.264.462-.825.462-1.617m37.401-10.204v3.741c0 4.042-.86 7.138-2.537 9.245-1.72 2.15-4.558 3.182-8.514 3.182s-6.794-1.032-8.514-3.182c-1.72-2.107-2.537-5.203-2.537-9.245v-3.741c0-4.042.817-7.095 2.537-9.245 1.72-2.107 4.558-3.182 8.514-3.182s6.794 1.075 8.514 3.182c1.677 2.15 2.537 5.203 2.537 9.245m-7.353 3.01V55.95c0-2.795-.258-4.73-.688-5.762s-1.419-1.591-2.924-1.591h-.172c-1.548.043-2.537.559-2.967 1.591s-.645 2.967-.645 5.762v2.279c0 2.838.215 4.73.645 5.762s1.419 1.591 2.967 1.591h.172c1.505 0 2.494-.516 2.924-1.548s.688-2.967.688-5.805m27.299-2.838h-6.837c-.43 0-.731-.043-.903-.215s-.215-.516-.215-1.032v-2.967c0-.516.043-.817.215-.989q.258-.258.903-.258h14.534c.43 0 .731.086.946.258.172.172.301.516.301.989v.817c0 1.118-.344 2.15-.946 3.053l-7.396 10.492h7.353c.43 0 .688.086.86.258s.258.473.258.989v2.967q0 .774-.258 1.032c-.172.172-.43.215-.86.215h-14.792c-.903 0-1.333-.387-1.333-1.247v-.989a5.23 5.23 0 0 1 .946-3.053zm20.916 10.019h1.376c.43 0 .774.129.946.301.172.215.301.602.301 1.161v2.666c0 .602-.129.989-.301 1.161-.172.215-.516.301-.946.301h-3.268c-2.15 0-3.655-.387-4.515-1.247-.86-.817-1.29-2.279-1.29-4.343v-4.644l-1.419.903c-.559.344-.946.516-1.118.516-.344 0-.473-.258-.473-.774v-3.999c0-.43.043-.731.215-.946.129-.172.387-.43.817-.731l1.978-1.247V43.136c0-.43.086-.731.301-.946.215-.172.602-.301 1.161-.301h3.956c.516 0 .903.129 1.118.301.215.215.344.516.344.946v6.966l1.935-1.247c.516-.344.903-.516 1.118-.516.301 0 .473.258.473.774v3.999c0 .43-.086.774-.215.946a3.6 3.6 0 0 1-.817.731l-2.494 1.591v8.213c0 .344.043.559.172.645.086.129.301.172.645.172"/></svg>