<svg xmlns="http://www.w3.org/2000/svg" fill="none" viewBox="0 0 236 90"><path fill="#fff" d="M11.868 25.778h.344c1.376 0 2.537-.258 3.526-.774v-.602c0-2.365-.258-3.956-.731-4.773s-1.333-1.247-2.623-1.247h-.387q-3.225 0-3.225 3.483v.387c0 1.29.215 2.193.731 2.709.516.559 1.29.817 2.365.817M4.085 40.14c-.516-.172-.731-.473-.731-.989q0-.258.129-.774l.688-2.752c.172-.688.688-.946 1.462-.731 2.064.645 3.87.946 5.418.946h.129c1.548 0 2.623-.387 3.311-1.247q1.032-1.225 1.161-3.87c-1.419.602-2.967.86-4.644.86h-.473c-3.053 0-5.246-.731-6.622-2.279-1.376-1.505-2.021-3.827-2.021-6.923v-.602c0-2.752.817-4.945 2.494-6.579 1.677-1.591 4.128-2.408 7.353-2.408h.602c3.87 0 6.622 1.032 8.17 3.01s2.365 5.246 2.365 9.804v1.032c0 2.451-.215 4.558-.645 6.364s-.989 3.268-1.677 4.3a7.8 7.8 0 0 1-2.623 2.537c-1.032.645-2.064 1.075-3.096 1.247-1.032.215-2.236.301-3.569.301h-.043c-2.494 0-4.902-.387-7.138-1.247m50.95-12.556v12.169c0 .43-.13.774-.344.946-.215.215-.602.301-1.118.301h-3.956c-.56 0-.946-.086-1.161-.301-.215-.172-.301-.516-.301-.946V27.584c0-.946-.172-1.634-.473-1.978-.344-.344-.99-.559-1.892-.559h-.086c-.946 0-1.548.215-1.892.559s-.473 1.032-.473 1.978v12.169c0 .43-.13.774-.344.946-.215.215-.602.301-1.118.301H37.92c-.56 0-.946-.086-1.161-.301-.215-.172-.301-.516-.301-.946V21.134c0-.43.086-.731.3-.903.216-.172.603-.301 1.162-.301h2.02c.517 0 .86.086 1.076.215q.323.194.516.774l.258.817h.129c1.376-1.462 3.31-2.193 5.89-2.193h.173c2.45 0 4.343.688 5.676 1.978 1.376-1.29 3.354-1.978 5.848-1.978h.172c2.494 0 4.343.602 5.46 1.763 1.033 1.118 1.592 3.01 1.592 5.676v12.771c0 .43-.13.774-.344.946-.215.215-.602.301-1.118.301h-3.956c-.56 0-.946-.086-1.161-.301-.215-.172-.301-.516-.301-.946V27.584c0-.946-.172-1.634-.473-1.978-.344-.344-.99-.559-1.892-.559H57.4c-.946 0-1.548.215-1.892.559s-.473 1.032-.473 1.978m22.74-6.407v18.576c0 .43-.13.774-.345.946-.215.215-.602.301-1.118.301h-3.956c-.559 0-.946-.086-1.16-.301-.216-.172-.302-.516-.302-.946V21.177c0-.43.086-.731.301-.946.215-.172.602-.301 1.161-.301h3.956c.516 0 .903.129 1.118.301.215.215.344.516.344.946m-3.183-2.881h-.516c-2.322 0-3.483-1.161-3.483-3.569v-.215c0-2.365 1.161-3.569 3.483-3.569h.516c2.322 0 3.483 1.204 3.483 3.569v.215c0 2.408-1.16 3.569-3.483 3.569M92.464 35.84h.473c1.462 0 3.01-.172 4.558-.559.43-.086.688-.129.817-.129.43 0 .688.258.774.731l.344 2.15c.086.602.172.989.172 1.161 0 .516-.387.903-1.118 1.161-1.978.688-4.17 1.032-6.493 1.032h-.817q-5.289 0-7.482-2.193c-.86-.817-1.419-1.806-1.72-2.924s-.43-2.623-.43-4.472V29.39c0-3.741.86-6.364 2.58-7.912 1.462-1.29 3.698-1.935 6.751-1.935h.602c3.01 0 5.203.731 6.493 2.15 1.376 1.548 2.064 4.085 2.064 7.697v2.236c0 .817-.43 1.204-1.247 1.204h-10.32v.344c0 1.032.258 1.72.86 2.107.56.387 1.591.559 3.14.559m-3.999-7.482h4.73c.344 0 .516-.172.516-.559v-.688c0-.86-.172-1.505-.43-1.978-.344-.516-1.032-.774-1.978-.774h-.387c-.86 0-1.462.215-1.806.602q-.645.774-.645 2.322zm14.664-1.505v-.559c0-2.107.559-3.698 1.677-4.816 1.29-1.29 3.483-1.935 6.536-1.935h.43c2.408 0 4.515.258 6.278.774q.516.194.645.387c.086.172.129.387.086.731l-.473 3.526c-.086.559-.473.731-1.161.559-1.72-.387-3.268-.602-4.558-.602h-.043c-.946 0-1.634.086-1.978.258-.387.172-.559.473-.559.903v.129c0 .43.129.731.473.903s.989.387 1.978.559l2.021.43c1.849.43 3.182 1.075 3.956 1.935s1.161 2.193 1.161 3.956v.645c0 4.515-2.838 6.751-8.428 6.751h-.43c-2.838 0-5.203-.387-7.181-1.161-.387-.129-.645-.301-.731-.516-.086-.172-.086-.516 0-.989l.602-2.838c.129-.817.602-1.075 1.462-.817 1.978.688 3.698.989 5.16.989h.129c.946 0 1.591-.086 1.978-.301.344-.172.559-.516.559-.989v-.129a.92.92 0 0 0-.473-.817q-.516-.258-2.064-.645l-1.892-.43q-2.838-.645-3.999-1.935c-.774-.86-1.161-2.15-1.161-3.956m27.009-5.676v18.576c0 .43-.129.774-.344.946-.215.215-.602.301-1.118.301h-3.956c-.559 0-.946-.086-1.161-.301-.215-.172-.301-.516-.301-.946V21.177c0-.43.086-.731.301-.946.215-.172.602-.301 1.161-.301h3.956c.516 0 .903.129 1.118.301.215.215.344.516.344.946m-3.182-2.881h-.516c-2.322 0-3.483-1.161-3.483-3.569v-.215c0-2.365 1.161-3.569 3.483-3.569h.516c2.322 0 3.483 1.204 3.483 3.569v.215c0 2.408-1.161 3.569-3.483 3.569m17.872 17.544h.473c1.462 0 3.01-.172 4.558-.559.43-.086.688-.129.817-.129.43 0 .688.258.774.731l.344 2.15c.086.602.172.989.172 1.161 0 .516-.387.903-1.118 1.161a6.24 6.24 0 0 0-2.752 2.064c-.731.946-1.075 1.892-1.075 2.752v.129c0 .817.387 1.204 1.161 1.204h.215c.473 0 1.075-.086 1.763-.344.215-.043.387-.086.516-.086.215 0 .387.215.516.559l.215.903c.129.602.215.903.215.989 0 .258-.215.473-.602.645a9.6 9.6 0 0 1-3.483.645h-.258c-1.505 0-2.623-.301-3.397-.946s-1.161-1.548-1.161-2.752v-.129c0-.774.258-1.634.817-2.494s1.29-1.548 2.236-2.15c-.344.043-.817.043-1.419.043h-.817q-5.289 0-7.482-2.193c-.86-.817-1.419-1.806-1.72-2.924s-.43-2.623-.43-4.472V29.39c0-3.741.86-6.364 2.58-7.912 1.462-1.29 3.698-1.935 6.751-1.935h.602c3.01 0 5.203.731 6.493 2.15 1.376 1.548 2.064 4.085 2.064 7.697v2.236c0 .817-.43 1.204-1.247 1.204h-10.32v.344c0 1.032.258 1.72.86 2.107.559.387 1.591.559 3.139.559m-3.999-7.482h4.73c.344 0 .516-.172.516-.559v-.688c0-.86-.172-1.505-.43-1.978-.344-.516-1.032-.774-1.978-.774h-.387c-.86 0-1.462.215-1.806.602q-.645.774-.645 2.322zm25.113 7.482h.344c1.161 0 2.408-.172 3.741-.559.43-.086.688-.129.817-.129.43 0 .688.258.774.731l.387 2.193c.086.602.172.989.172 1.161 0 .516-.387.903-1.118 1.161-1.892.688-3.956.989-6.192.989h-.516c-3.096 0-5.375-.688-6.794-2.15q-2.193-2.193-2.193-7.353V29.39c0-2.021.172-3.612.516-4.73q.516-1.677 1.677-2.838c1.505-1.505 3.87-2.279 7.095-2.279h.43c2.58 0 4.816.473 6.622 1.419.516.301.817.645.817 1.075 0 .258-.129.688-.344 1.29l-.817 2.064q-.322.774-.903.774c-.172 0-.43-.043-.774-.215-1.376-.559-2.666-.86-3.827-.86h-.172c-1.118 0-1.935.301-2.451.817-.645.645-.946 1.978-.946 3.956v1.462c0 1.763.258 2.967.86 3.612.559.602 1.505.903 2.795.903m28.625-14.62c-.602 4.042-1.72 8.514-3.354 13.459-1.677 4.945-3.698 9.632-6.063 14.018-.301.602-.688.903-1.204.903-.344 0-.731-.086-1.247-.344l-2.193-.946c-.774-.344-1.118-.688-1.118-1.075 0-.172.043-.43.215-.731 1.462-2.967 2.322-4.687 2.494-5.16-1.204-.43-2.107-1.376-2.795-2.924-.774-1.72-1.677-4.343-2.666-7.955q-1.483-5.418-2.193-9.288c-.086-.43-.043-.731.172-.946.215-.172.602-.301 1.118-.301h3.913c.473 0 .817.086 1.032.215s.387.387.473.817c.989 5.418 2.107 10.234 3.354 14.405h.215c1.204-3.44 2.322-8.17 3.354-14.276q.065-.645.387-.903c.215-.172.559-.258.989-.258h3.956c.473 0 .817.129.989.301s.215.516.172.989M8.811 81.297h-.396c-2.31 0-4.323-.297-6.039-.924-.726-.231-1.056-.66-.924-1.32l.429-2.673c.066-.66.462-.891 1.155-.66 1.914.693 3.696 1.023 5.28 1.023h.165c.99 0 1.716-.132 2.145-.429.396-.264.627-.759.627-1.452v-.33c0-.66-.198-1.089-.528-1.353-.363-.231-1.056-.462-2.079-.66l-2.244-.429c-1.848-.33-3.168-.99-3.894-1.914-.759-.924-1.122-2.211-1.122-3.894v-.924c0-1.848.495-3.234 1.485-4.224 1.188-1.188 3.399-1.782 6.567-1.782h.231c2.211 0 4.092.297 5.61.858.33.132.561.33.66.528.066.231.066.561-.033.957l-.561 2.409c-.132.594-.561.792-1.221.561q-2.277-.693-4.356-.693h-.132c-1.089 0-1.848.132-2.244.363-.429.264-.627.693-.627 1.287v.297c0 .528.132.924.429 1.122.264.231.858.429 1.716.594l2.508.495c1.98.396 3.333 1.023 4.092 1.815.726.792 1.122 2.178 1.122 4.125v.792c0 2.244-.627 3.861-1.848 4.884-1.221 1.056-3.201 1.551-5.973 1.551m14.817-15.048c1.155-1.122 2.805-1.716 4.917-1.716h.297c2.046 0 3.498.594 4.389 1.716.792 1.056 1.188 2.838 1.188 5.412v2.475c0 1.386-.132 2.541-.33 3.399-.231.858-.627 1.584-1.188 2.145-1.122 1.089-2.64 1.617-4.62 1.617h-.363q-1.88 0-3.07-.693v5.082c0 .495-.098.825-.263.957-.198.132-.561.198-1.122.198h-2.508c-.561 0-.924-.066-1.122-.231-.198-.132-.264-.462-.264-.924v-19.8c0-.396.066-.66.264-.825.165-.132.462-.231.89-.231h1.387c.396 0 .693.066.858.132.132.099.264.297.363.561l.23.726zm1.22 4.686v4.224c0 .759.133 1.287.463 1.584.297.297.792.429 1.485.429h.297c.759 0 1.287-.198 1.617-.66q.396-.594.396-2.871v-1.419c0-1.584-.132-2.574-.396-2.937-.33-.396-.858-.594-1.65-.594h-.231c-.726 0-1.221.165-1.551.495-.297.297-.43.891-.43 1.749m17.198.693v2.574c0 1.287.198 2.112.594 2.508.297.33.76.462 1.386.462h.132c.594 0 1.056-.132 1.386-.462.396-.396.594-1.221.594-2.508v-2.574c0-1.254-.198-2.112-.594-2.508-.33-.297-.792-.462-1.386-.462h-.132c-.627 0-1.089.165-1.386.462-.396.396-.594 1.254-.594 2.508m9.405.198v2.145c0 1.65-.165 2.904-.495 3.828s-.858 1.65-1.584 2.211c-1.089.858-2.772 1.287-5.082 1.287h-.396c-2.31 0-4.026-.429-5.082-1.287-.726-.561-1.254-1.287-1.584-2.211s-.495-2.178-.495-3.828v-2.112c0-1.617.165-2.871.495-3.795a5 5 0 0 1 1.584-2.244c1.056-.858 2.772-1.287 5.082-1.287h.396c2.31 0 3.993.429 5.082 1.287a5.1 5.1 0 0 1 1.584 2.211c.33.924.495 2.178.495 3.795m13.155 6.072v1.881c0 .495-.1.825-.231.99-.132.165-.43.231-.825.231h-2.64c-2.376 0-3.96-.396-4.686-1.221-.66-.693-.957-2.013-.957-3.993v-6.831h-1.782c-.33 0-.528-.033-.66-.165s-.165-.33-.165-.66v-1.683c0-.396.033-.66.165-.792.099-.132.33-.231.693-.33l1.749-.429v-3.234c0-.33.066-.561.23-.726.166-.132.463-.231.892-.231h3.036c.396 0 .693.099.858.231.165.165.264.396.264.726v3.168h2.739c.33 0 .528.066.66.198s.198.363.198.759v2.211q0 .594-.198.792c-.132.132-.33.165-.66.165h-2.74v6.237c0 .594.067.957.265 1.155.198.231.627.33 1.287.33h1.452c.396 0 .693.099.825.264s.23.495.23.957m7.843-12.111v14.256c0 .33-.1.594-.264.726-.165.165-.462.231-.858.231H68.29c-.43 0-.726-.066-.891-.231-.165-.132-.231-.396-.231-.726V65.787c0-.33.066-.561.23-.726.166-.132.463-.231.892-.231h3.036c.396 0 .693.099.858.231.165.165.264.396.264.726m-2.442-2.211h-.396c-1.782 0-2.673-.891-2.673-2.739v-.165c0-1.815.89-2.739 2.673-2.739h.396c1.782 0 2.673.924 2.673 2.739v.165c0 1.848-.891 2.739-2.673 2.739m6.852 5.379h-1.782c-.33 0-.561-.033-.66-.132-.133-.099-.166-.33-.166-.693v-1.617c0-.396.033-.693.132-.825.1-.132.33-.264.727-.363l1.749-.429v-1.419c0-1.848.428-3.168 1.32-3.927q1.386-1.188 4.355-1.188h.33c1.32 0 2.442.132 3.432.363.33.099.561.231.66.396.066.165.1.429.066.792l-.198 2.079c-.066.33-.132.528-.23.594-.132.066-.363.099-.726.066-.858-.066-1.453-.132-1.849-.132h-.198c-.725 0-1.154.099-1.352.297-.231.231-.33.627-.33 1.155v.858h2.739c.33 0 .528.066.66.198s.198.363.198.759v2.211q0 .594-.199.792c-.132.132-.33.165-.66.165h-2.739v11.088c0 .33-.099.594-.264.726-.164.165-.462.231-.858.231h-3.035c-.43 0-.727-.066-.891-.231-.166-.132-.231-.396-.231-.726zm25.344-3.135c-.462 3.102-1.32 6.534-2.574 10.329-1.287 3.795-2.838 7.392-4.653 10.758-.23.462-.528.693-.924.693-.264 0-.56-.066-.957-.264l-1.683-.726c-.594-.264-.858-.528-.858-.825 0-.132.033-.33.165-.561 1.122-2.277 1.782-3.597 1.914-3.96-.924-.33-1.617-1.056-2.145-2.244-.594-1.32-1.287-3.333-2.046-6.105q-1.138-4.158-1.683-7.128c-.066-.33-.033-.561.132-.726.165-.132.462-.231.858-.231h3.003c.363 0 .627.066.792.165s.297.297.363.627c.76 4.158 1.617 7.854 2.574 11.055h.165c.924-2.64 1.782-6.27 2.574-10.956q.05-.495.297-.693c.165-.132.43-.198.76-.198h3.035c.363 0 .627.099.759.231s.165.396.132.759m17.201-2.013h-.429c-.462 0-.924.033-1.452.066-.198.033-.264.165-.264.396v5.214h1.716c1.188 0 1.98-.165 2.442-.561.396-.33.594-.957.594-1.947v-.825c0-.792-.198-1.386-.561-1.749-.396-.396-1.089-.594-2.046-.594m-2.145 10.197v5.973c0 .693-.396 1.023-1.155 1.023h-3.234c-.429 0-.726-.066-.891-.231-.198-.132-.264-.396-.264-.792V61.002q0-.792.297-1.089c.198-.198.561-.33 1.155-.396 1.188-.099 3.036-.165 5.577-.165h.396c3.366 0 5.676.66 6.963 1.947.99 1.056 1.485 2.64 1.485 4.785v1.122c0 2.475-.693 4.224-2.079 5.214-1.452 1.056-3.663 1.584-6.666 1.584zm16.908-7.392h.099c.726-1.188 1.947-1.782 3.696-1.782h1.32c.33 0 .594.066.726.198s.231.363.231.726v2.409c0 .363-.066.594-.198.726q-.198.198-.693.198h-.99c-1.221 0-2.046.231-2.508.693-.396.396-.561 1.155-.561 2.277v7.986c0 .33-.099.594-.264.726-.165.165-.462.231-.858.231h-3.036c-.429 0-.726-.066-.891-.231-.165-.132-.231-.396-.231-.726V65.754c0-.33.066-.561.231-.693s.462-.231.891-.231h1.584c.363 0 .627.066.792.165q.248.198.396.594zm15.749 10.428h.363c1.122 0 2.31-.132 3.498-.429.33-.066.528-.099.627-.099.33 0 .528.198.594.561l.264 1.65c.066.462.132.759.132.891 0 .396-.297.693-.858.891-1.518.528-3.201.792-4.983.792h-.627q-4.059 0-5.742-1.683a4.73 4.73 0 0 1-1.32-2.244c-.231-.858-.33-2.013-.33-3.432V72.09c0-2.871.66-4.884 1.98-6.072 1.122-.99 2.838-1.485 5.181-1.485h.462c2.31 0 3.993.561 4.983 1.65 1.056 1.188 1.584 3.135 1.584 5.907v1.716c0 .627-.33.924-.957.924h-7.92v.264c0 .792.198 1.32.66 1.617.429.297 1.221.429 2.409.429m-3.069-5.742h3.63c.264 0 .396-.132.396-.429v-.528c0-.66-.132-1.155-.33-1.518-.264-.396-.792-.594-1.518-.594h-.297c-.66 0-1.122.165-1.386.462q-.495.594-.495 1.782zm25.939-.594v9.339c0 .33-.099.594-.264.726-.165.165-.462.231-.858.231h-3.036c-.429 0-.726-.066-.891-.231-.165-.132-.231-.396-.231-.726v-9.339c0-.726-.132-1.254-.363-1.518-.264-.264-.759-.429-1.452-.429h-.066c-.726 0-1.188.165-1.452.429s-.363.792-.363 1.518v9.339c0 .33-.099.594-.264.726-.165.165-.462.231-.858.231h-3.036c-.429 0-.726-.066-.891-.231-.165-.132-.231-.396-.231-.726V65.754c0-.33.066-.561.231-.693s.462-.231.891-.231h1.551c.396 0 .66.066.825.165q.247.149.396.594l.198.627h.099c1.056-1.122 2.541-1.683 4.521-1.683h.132c1.881 0 3.333.528 4.356 1.518 1.056-.99 2.574-1.518 4.488-1.518h.132c1.914 0 3.333.462 4.191 1.353.792.858 1.221 2.31 1.221 4.356v9.801c0 .33-.099.594-.264.726-.165.165-.462.231-.858.231h-3.036c-.429 0-.726-.066-.891-.231-.165-.132-.231-.396-.231-.726v-9.339c0-.726-.132-1.254-.363-1.518-.264-.264-.759-.429-1.452-.429h-.066c-.726 0-1.188.165-1.452.429s-.363.792-.363 1.518m17.451-4.917v14.256c0 .33-.099.594-.264.726-.165.165-.462.231-.858.231h-3.036c-.429 0-.726-.066-.891-.231-.165-.132-.231-.396-.231-.726V65.787c0-.33.066-.561.231-.726.165-.132.462-.231.891-.231h3.036c.396 0 .693.099.858.231.165.165.264.396.264.726m-2.442-2.211h-.396c-1.782 0-2.673-.891-2.673-2.739v-.165c0-1.815.891-2.739 2.673-2.739h.396c1.782 0 2.673.924 2.673 2.739v.165c0 1.848-.891 2.739-2.673 2.739m14.541 11.517v-9.306c0-.33.066-.561.231-.726.165-.132.462-.231.891-.231h3.036c.396 0 .693.099.858.231.165.165.264.396.264.726v9.768q0 3.02-1.485 4.356c-1.056.924-2.904 1.386-5.61 1.386s-4.587-.462-5.61-1.386q-1.485-1.337-1.485-4.356v-9.768c0-.33.066-.561.231-.726.165-.132.462-.231.891-.231h3.036c.396 0 .693.099.858.231.165.165.264.396.264.726v9.306c0 .759.099 1.254.363 1.518.264.297.726.429 1.452.429.693 0 1.188-.132 1.452-.429.231-.264.363-.759.363-1.518m22.657-4.389v9.339c0 .33-.099.594-.264.726-.165.165-.462.231-.858.231h-3.036c-.429 0-.726-.066-.891-.231-.165-.132-.231-.396-.231-.726v-9.339c0-.726-.132-1.254-.363-1.518-.264-.264-.759-.429-1.452-.429h-.066c-.726 0-1.188.165-1.452.429s-.363.792-.363 1.518v9.339c0 .33-.099.594-.264.726-.165.165-.462.231-.858.231h-3.036c-.429 0-.726-.066-.891-.231-.165-.132-.231-.396-.231-.726V65.754c0-.33.066-.561.231-.693s.462-.231.891-.231h1.551c.396 0 .66.066.825.165q.248.149.396.594l.198.627h.099c1.056-1.122 2.541-1.683 4.521-1.683h.132c1.881 0 3.333.528 4.356 1.518 1.056-.99 2.574-1.518 4.488-1.518h.132c1.914 0 3.333.462 4.191 1.353.792.858 1.221 2.31 1.221 4.356v9.801c0 .33-.099.594-.264.726-.165.165-.462.231-.858.231h-3.036c-.429 0-.726-.066-.891-.231-.165-.132-.231-.396-.231-.726v-9.339c0-.726-.132-1.254-.363-1.518-.264-.264-.759-.429-1.452-.429h-.066c-.726 0-1.188.165-1.452.429s-.363.792-.363 1.518"/></svg>