<svg xmlns="http://www.w3.org/2000/svg" fill="none" viewBox="0 0 199 40"><path fill="#fff" d="M6.963 20.935v4.224c0 .759.132 1.287.462 1.584.264.297.759.429 1.485.429h.297c.759 0 1.287-.198 1.617-.66q.396-.594.396-2.871v-1.419c0-1.65-.165-2.673-.429-3.003-.297-.33-.858-.528-1.65-.528h-.132c-.759 0-1.287.165-1.617.495-.297.297-.429.891-.429 1.749m0-5.511h.066q1.435-.891 3.762-.891h.297c1.98 0 3.432.594 4.323 1.782.726 1.023 1.122 2.838 1.122 5.445v2.376c0 2.64-.561 4.488-1.683 5.511-1.188 1.122-3.069 1.65-5.643 1.65h-.66c-2.706 0-4.554-.528-5.544-1.617-.891-.957-1.32-2.508-1.32-4.686V9.616c0-.33.066-.561.231-.726.132-.132.429-.231.858-.231h3.069c.396 0 .693.099.858.231.165.165.264.396.264.726zM27.229 27.04h.363c1.122 0 2.31-.132 3.498-.429.33-.066.528-.099.627-.099.33 0 .528.198.594.561l.264 1.65c.066.462.132.759.132.891 0 .396-.297.693-.858.891-1.518.528-3.2.792-4.983.792h-.627q-4.059 0-5.742-1.683a4.73 4.73 0 0 1-1.32-2.244c-.23-.858-.33-2.013-.33-3.432V22.09c0-2.871.66-4.884 1.98-6.072 1.122-.99 2.838-1.485 5.181-1.485h.462c2.31 0 3.993.561 4.983 1.65 1.056 1.188 1.584 3.135 1.584 5.907v1.716c0 .627-.33.924-.957.924h-7.92v.264c0 .792.198 1.32.66 1.617.43.297 1.221.429 2.41.429m-3.069-5.742h3.63c.264 0 .396-.132.396-.429v-.528c0-.66-.132-1.155-.33-1.518-.264-.396-.792-.594-1.518-.594h-.297c-.66 0-1.122.165-1.386.462q-.495.594-.495 1.782zm17.062-2.277h-5.247c-.33 0-.56-.033-.693-.165s-.165-.396-.165-.792v-2.277c0-.396.033-.627.165-.759q.198-.198.693-.198H47.13c.33 0 .561.066.726.198.132.132.231.396.231.759v.627c0 .858-.264 1.65-.726 2.343l-5.676 8.052h5.643c.33 0 .528.066.66.198s.198.363.198.759v2.277q0 .594-.198.792c-.132.132-.33.165-.66.165H35.975c-.693 0-1.023-.297-1.023-.957v-.759c0-.858.231-1.617.726-2.343zm24.79-3.399h2.838c.462 0 .792.066.957.198s.297.396.363.792c0 .132.594 3.069 1.749 8.778h.099c.594-3.465 1.122-6.666 1.55-9.636.034-.363.133-.594.265-.726q.198-.198.693-.198h3.366c.363 0 .594.099.726.231.099.165.132.429.066.759-.528 2.574-1.188 5.412-1.914 8.514s-1.254 5.049-1.584 5.874c-.132.33-.297.561-.462.66s-.43.132-.76.132h-3.63c-.692 0-1.121-.231-1.253-.759-.627-2.244-1.155-5.082-1.617-8.514h-.132a91 91 0 0 1-1.65 8.514c-.132.528-.528.759-1.188.759H60.93c-.66 0-1.09-.231-1.254-.726-.33-.891-.891-2.937-1.683-6.105a153 153 0 0 1-1.848-8.349c-.1-.363-.066-.627.066-.759s.396-.231.792-.231h3.234c.33 0 .594.066.759.198.132.132.23.396.297.726.462 3.069.99 6.27 1.617 9.636h.132c.792-4.092 1.353-7.029 1.617-8.778.066-.429.165-.693.33-.825.165-.099.495-.165 1.023-.165m23.905 14.025h-.066c-.726 1.122-2.178 1.65-4.323 1.65h-.495c-1.683 0-3.003-.429-3.927-1.287-.957-.858-1.419-2.145-1.419-3.795v-.363c0-1.782.495-3.069 1.518-3.795s2.673-1.089 4.983-1.089h.231c.858 0 1.65.066 2.31.132v-.693c0-.693-.198-1.188-.56-1.452-.397-.231-1.057-.363-1.98-.363-1.123 0-2.377.198-3.829.561-.396.099-.693.099-.825 0-.165-.099-.264-.297-.297-.627l-.264-1.749c-.066-.297-.066-.528-.066-.66 0-.396.264-.693.792-.858 1.683-.462 3.564-.726 5.643-.726 2.541 0 4.356.561 5.412 1.617.825.858 1.254 2.244 1.254 4.125v9.801c0 .33-.099.594-.264.726s-.462.198-.858.198h-1.55c-.397 0-.66-.033-.826-.132s-.297-.297-.396-.627zm-1.188-4.224v-.924q-.544-.099-1.584-.099h-.363q-1.188 0-1.683.297c-.33.198-.462.594-.462 1.188v.132c0 .594.132.99.462 1.188.297.231.76.33 1.386.33h.231c.66 0 1.155-.165 1.551-.495.297-.264.462-.825.462-1.617m12.567-8.811h.099c.726-1.188 1.947-1.782 3.696-1.782h1.32c.33 0 .594.066.726.198s.231.363.231.726v2.409c0 .363-.066.594-.198.726q-.198.198-.693.198h-.99c-1.221 0-2.046.231-2.508.693-.396.396-.561 1.155-.561 2.277v7.986c0 .33-.099.594-.264.726-.165.165-.462.231-.858.231H98.26c-.429 0-.726-.066-.89-.231-.166-.132-.232-.396-.232-.726V15.754c0-.33.066-.561.231-.693s.462-.231.891-.231h1.584c.363 0 .627.066.792.165q.248.198.396.594zm16.703 8.481v-9.306c0-.33.066-.561.231-.726.165-.132.462-.231.891-.231h3.036c.396 0 .693.099.858.231.165.165.264.396.264.726v9.768q0 3.02-1.485 4.356c-1.056.924-2.904 1.386-5.61 1.386s-4.587-.462-5.61-1.386q-1.485-1.337-1.485-4.356v-9.768c0-.33.066-.561.231-.726.165-.132.462-.231.891-.231h3.036c.396 0 .693.099.858.231.165.165.264.396.264.726v9.306c0 .759.099 1.254.363 1.518.264.297.726.429 1.452.429.693 0 1.188-.132 1.452-.429.231-.264.363-.759.363-1.518m17.113-10.56h.264c1.914 0 3.333.462 4.191 1.353.792.858 1.221 2.31 1.221 4.356v9.801c0 .33-.099.594-.264.726-.165.165-.462.231-.858.231h-3.036c-.429 0-.726-.066-.891-.231-.165-.132-.231-.396-.231-.726v-9.339c0-.726-.132-1.254-.363-1.518-.264-.264-.759-.429-1.452-.429h-.198c-.726 0-1.188.165-1.452.429s-.363.792-.363 1.518v9.339c0 .33-.099.594-.264.726-.165.165-.462.231-.858.231h-3.036c-.429 0-.726-.066-.891-.231-.165-.132-.231-.396-.231-.726V15.754c0-.33.066-.561.231-.693s.462-.231.891-.231h1.551c.396 0 .66.066.825.165q.247.149.396.594l.198.627h.099c1.056-1.122 2.541-1.683 4.521-1.683m14.099 10.065v5.445c0 .33-.099.594-.264.726-.165.165-.462.231-.858.231h-3.036c-.429 0-.726-.066-.891-.231-.165-.132-.231-.396-.231-.726V9.616c0-.33.066-.561.231-.726.165-.132.462-.231.891-.231h3.036c.396 0 .693.099.858.231.165.165.264.396.264.726v10.758h.231l3.135-4.785c.297-.495.759-.759 1.386-.759h3.828c.363 0 .561.132.561.396 0 .132-.099.363-.264.627l-3.795 5.676c-.297.462-.429.792-.429.99 0 .231.132.561.429.99l4.059 6.402c.132.264.198.429.198.561 0 .363-.231.528-.693.528h-3.663c-.462 0-.825-.033-1.023-.165q-.297-.148-.594-.693l-3.135-5.544zm15.554-2.97v2.574c0 1.287.198 2.112.594 2.508.297.33.759.462 1.386.462h.132c.594 0 1.056-.132 1.386-.462.396-.396.594-1.221.594-2.508v-2.574c0-1.254-.198-2.112-.594-2.508-.33-.297-.792-.462-1.386-.462h-.132c-.627 0-1.089.165-1.386.462-.396.396-.594 1.254-.594 2.508m9.405.198v2.145c0 1.65-.165 2.904-.495 3.828s-.858 1.65-1.584 2.211c-1.089.858-2.772 1.287-5.082 1.287h-.396c-2.31 0-4.026-.429-5.082-1.287-.726-.561-1.254-1.287-1.584-2.211s-.495-2.178-.495-3.828v-2.112c0-1.617.165-2.871.495-3.795a5 5 0 0 1 1.584-2.244c1.056-.858 2.772-1.287 5.082-1.287h.396c2.31 0 3.993.429 5.082 1.287a5.1 5.1 0 0 1 1.584 2.211c.33.924.495 2.178.495 3.795m-10.065-11.352 5.181-4.422c.198-.198.429-.297.627-.297.231 0 .462.165.66.429l1.584 2.046c.132.198.198.363.198.561 0 .264-.198.528-.528.792l-5.214 3.564a1.14 1.14 0 0 1-.66.231c-.264 0-.528-.132-.792-.462l-.99-1.155c-.264-.297-.363-.561-.363-.759s.099-.396.297-.528m21.339 5.148h2.838c.462 0 .792.066.957.198s.297.396.363.792c0 .132.594 3.069 1.749 8.778h.099c.594-3.465 1.122-6.666 1.551-9.636.033-.363.132-.594.264-.726q.198-.198.692-.198h3.367c.363 0 .594.099.726.231.099.165.132.429.066.759-.528 2.574-1.188 5.412-1.914 8.514s-1.254 5.049-1.584 5.874c-.132.33-.297.561-.462.66s-.429.132-.759.132h-3.63c-.693 0-1.122-.231-1.254-.759-.627-2.244-1.155-5.082-1.617-8.514h-.132a91 91 0 0 1-1.65 8.514c-.132.528-.528.759-1.188.759h-3.564c-.66 0-1.089-.231-1.254-.726-.33-.891-.891-2.937-1.683-6.105a153 153 0 0 1-1.848-8.349c-.099-.363-.066-.627.066-.759s.396-.231.792-.231h3.233c.331 0 .595.066.76.198.132.132.231.396.297.726.462 3.069.99 6.27 1.617 9.636h.132c.792-4.092 1.353-7.029 1.617-8.778.066-.429.165-.693.33-.825.165-.099.495-.165 1.023-.165"/></svg>