<svg xmlns="http://www.w3.org/2000/svg" fill="none" viewBox="0 0 220 36"><path fill="#fff" d="M7.029 13.787v14.256c0 .33-.099.594-.264.726-.165.165-.462.231-.858.231H2.871c-.429 0-.726-.066-.891-.231-.165-.132-.231-.396-.231-.726V13.787c0-.33.066-.561.231-.726.165-.132.462-.231.891-.231h3.036c.396 0 .693.099.858.231.165.165.264.396.264.726m-2.442-2.211h-.396c-1.782 0-2.673-.891-2.673-2.739v-.165c0-1.815.891-2.739 2.673-2.739h.396c1.782 0 2.673.924 2.673 2.739v.165c0 1.848-.891 2.739-2.673 2.739m18.395 5.445h-5.247c-.33 0-.561-.033-.693-.165s-.165-.396-.165-.792v-2.277c0-.396.033-.627.165-.759q.198-.198.693-.198h11.154c.33 0 .56.066.726.198.132.132.23.396.23.759v.627c0 .858-.263 1.65-.725 2.343l-5.676 8.052h5.643c.33 0 .528.066.66.198s.198.363.198.759v2.277q0 .594-.198.792c-.132.132-.33.165-.66.165H17.735c-.693 0-1.023-.297-1.023-.957v-.759c0-.858.23-1.617.726-2.343zm16.48 10.461h-.89c-4.687 0-6.997-2.112-6.997-6.369v-2.211c0-2.178.561-3.762 1.716-4.818 1.122-1.023 2.871-1.551 5.181-1.551h.462c.43-2.376 2.178-3.597 5.28-3.597h1.617c.33 0 .528.066.66.165.1.132.165.363.165.693v1.815c0 .33-.066.528-.198.627-.132.132-.363.165-.66.165h-1.55c-.727 0-1.222.165-1.519.495 2.475.66 3.73 2.673 3.73 6.006v2.211c0 2.376-.66 3.96-1.948 4.818.858.462 1.518 1.056 2.013 1.782s.76 1.518.76 2.343v.231c0 3.267-2.608 4.884-7.756 4.884h-.627c-2.244 0-4.422-.396-6.468-1.188-.594-.198-.825-.627-.66-1.254l.594-2.112c.165-.627.561-.858 1.188-.66 1.947.66 3.663.957 5.181.957h.462q2.871 0 2.871-1.683v-.099c0-.627-.33-1.188-.99-1.716-.528.066-1.089.066-1.617.066m-.56-4.125h.23c.726 0 1.221-.132 1.551-.462.363-.363.561-1.122.561-2.244v-1.287c0-1.122-.198-1.848-.56-2.244-.33-.297-.826-.462-1.552-.462h-.23c-.727 0-1.255.165-1.552.462-.396.396-.56 1.122-.56 2.244v1.287c0 1.122.164 1.881.56 2.244.297.33.825.462 1.551.462m20.045 4.29h-.066c-.725 1.122-2.178 1.65-4.322 1.65h-.495c-1.684 0-3.004-.429-3.928-1.287-.957-.858-1.419-2.145-1.419-3.795v-.363c0-1.782.495-3.069 1.519-3.795 1.023-.726 2.672-1.089 4.983-1.089h.23c.858 0 1.65.066 2.31.132v-.693c0-.693-.197-1.188-.56-1.452-.396-.231-1.056-.363-1.98-.363-1.123 0-2.376.198-3.828.561-.396.099-.694.099-.825 0-.166-.099-.265-.297-.297-.627l-.264-1.749c-.067-.297-.067-.528-.067-.66 0-.396.264-.693.792-.858 1.684-.462 3.565-.726 5.644-.726 2.54 0 4.355.561 5.411 1.617.826.858 1.255 2.244 1.255 4.125v9.801c0 .33-.1.594-.264.726-.166.132-.463.198-.859.198h-1.55c-.396 0-.66-.033-.825-.132-.166-.099-.297-.297-.397-.627zm-1.187-4.224v-.924q-.545-.099-1.584-.099h-.364q-1.187 0-1.682.297c-.33.198-.463.594-.463 1.188v.132c0 .594.133.99.462 1.188.297.231.76.33 1.387.33h.23c.66 0 1.155-.165 1.551-.495.297-.264.463-.825.463-1.617m12.566-8.811h.1c.725-1.188 1.946-1.782 3.695-1.782h1.32c.33 0 .594.066.726.198s.231.363.231.726v2.409c0 .363-.066.594-.198.726q-.198.198-.693.198h-.99c-1.22 0-2.046.231-2.508.693-.396.396-.56 1.155-.56 2.277v7.986c0 .33-.1.594-.265.726-.165.165-.462.231-.858.231H67.29c-.429 0-.726-.066-.89-.231-.166-.132-.232-.396-.232-.726V13.754c0-.33.066-.561.231-.693s.462-.231.891-.231h1.584c.363 0 .627.066.792.165q.248.198.396.594zm16.736-2.079h.264c1.914 0 3.333.462 4.191 1.353.792.858 1.221 2.31 1.221 4.356v9.801c0 .33-.099.594-.264.726-.165.165-.462.231-.858.231H88.58c-.429 0-.726-.066-.891-.231-.165-.132-.231-.396-.231-.726v-9.339c0-.726-.132-1.254-.363-1.518-.264-.264-.759-.429-1.452-.429h-.198c-.726 0-1.188.165-1.452.429s-.363.792-.363 1.518v9.339c0 .33-.099.594-.264.726-.165.165-.462.231-.858.231h-3.036c-.429 0-.726-.066-.891-.231-.165-.132-.231-.396-.231-.726V13.754c0-.33.066-.561.231-.693s.462-.231.891-.231h1.551c.396 0 .66.066.825.165q.248.149.396.594l.198.627h.099c1.056-1.122 2.541-1.683 4.521-1.683m14.165 1.254v14.256c0 .33-.099.594-.264.726-.165.165-.462.231-.858.231h-3.036c-.429 0-.726-.066-.89-.231-.166-.132-.232-.396-.232-.726V13.787c0-.33.066-.561.231-.726.165-.132.462-.231.891-.231h3.036c.396 0 .693.099.858.231.165.165.264.396.264.726m-2.442-2.211h-.396c-1.782 0-2.673-.891-2.673-2.739v-.165c0-1.815.891-2.739 2.673-2.739h.396c1.782 0 2.673.924 2.673 2.739v.165c0 1.848-.891 2.739-2.673 2.739m5.268 23.298h-1.914c-.33 0-.594-.066-.726-.231-.132-.132-.198-.429-.198-.825v-2.31c0-.33.066-.594.198-.726s.396-.231.726-.231h.825c.594 0 1.056-.132 1.353-.462.264-.264.396-.957.396-2.046V13.787c0-.33.066-.561.231-.726.165-.132.462-.231.891-.231h3.036c.396 0 .693.099.858.231.165.165.264.396.264.726v14.619c0 2.376-.429 4.026-1.287 4.983q-1.337 1.485-4.653 1.485m3.498-23.298h-.396c-1.782 0-2.673-.891-2.673-2.739v-.165c0-1.815.891-2.739 2.673-2.739h.396c1.782 0 2.673.924 2.673 2.739v.165c0 1.848-.891 2.739-2.673 2.739m19.88 13.134h1.056c.33 0 .594.099.726.231.132.165.231.462.231.891v2.046c0 .462-.099.759-.231.891-.132.165-.396.231-.726.231h-2.508c-1.65 0-2.805-.297-3.465-.957-.66-.627-.99-1.749-.99-3.333v-3.564l-1.089.693c-.429.264-.726.396-.858.396-.264 0-.363-.198-.363-.594v-3.069c0-.33.033-.561.165-.726.099-.132.297-.33.627-.561l1.518-.957V7.616c0-.33.066-.561.231-.726.165-.132.462-.231.891-.231h3.036c.396 0 .693.099.858.231.165.165.264.396.264.726v5.346l1.485-.957c.396-.264.693-.396.858-.396.231 0 .363.198.363.594v3.069c0 .33-.066.594-.165.726-.132.165-.33.363-.627.561l-1.914 1.221v6.303c0 .264.033.429.132.495.066.099.231.132.495.132m13.727 2.937h-.066c-.726 1.122-2.178 1.65-4.323 1.65h-.495c-1.683 0-3.003-.429-3.927-1.287-.957-.858-1.419-2.145-1.419-3.795v-.363c0-1.782.495-3.069 1.518-3.795s2.673-1.089 4.983-1.089h.231c.858 0 1.65.066 2.31.132v-.693c0-.693-.198-1.188-.561-1.452-.396-.231-1.056-.363-1.98-.363-1.122 0-2.376.198-3.828.561-.396.099-.693.099-.825 0-.165-.099-.264-.297-.297-.627l-.264-1.749c-.066-.33-.066-.561-.066-.66 0-.396.264-.693.792-.858 1.683-.462 3.564-.726 5.643-.726 2.541 0 4.356.561 5.412 1.617.825.858 1.254 2.244 1.254 4.125v9.801c0 .495-.198.792-.528.924-.825.33-1.518.792-2.046 1.386-.561.594-.825 1.221-.825 1.848v.099q0 .891.891.891h.099c.396 0 .891-.066 1.419-.264.165-.033.297-.066.396-.066.165 0 .297.165.396.429l.165.693c.099.462.165.693.165.759 0 .198-.165.363-.462.495a7.4 7.4 0 0 1-2.673.495h-.198c-1.122 0-2.013-.231-2.607-.726s-.891-1.188-.891-2.046v-.165c0-.792.264-1.551.825-2.277.528-.726 1.254-1.32 2.112-1.782zm-1.188-4.224v-.924q-.544-.099-1.584-.099h-.363q-1.188 0-1.683.297c-.33.198-.462.594-.462 1.188v.132c0 .594.132.99.462 1.188.297.231.759.33 1.386.33h.231c.66 0 1.155-.165 1.551-.495.297-.264.462-.825.462-1.617m16.127 1.617h.264c.891 0 1.848-.132 2.871-.429.33-.066.528-.099.627-.099.33 0 .528.198.594.561l.297 1.683c.066.462.132.759.132.891 0 .396-.297.693-.858.891-1.452.528-3.036.759-4.752.759h-.396c-2.376 0-4.125-.528-5.214-1.65q-1.683-1.683-1.683-5.643V20.09c0-1.551.132-2.772.396-3.63a5.2 5.2 0 0 1 1.287-2.178c1.155-1.155 2.97-1.749 5.445-1.749h.33c1.98 0 3.696.363 5.082 1.089.396.231.627.495.627.825 0 .198-.099.528-.264.99l-.627 1.584q-.248.594-.693.594c-.132 0-.33-.033-.594-.165-1.056-.429-2.046-.66-2.937-.66h-.132c-.858 0-1.485.231-1.881.627-.495.495-.726 1.518-.726 3.036v1.122c0 1.353.198 2.277.66 2.772.429.462 1.155.693 2.145.693m12.775-8.019h-5.247c-.33 0-.561-.033-.693-.165s-.165-.396-.165-.792v-2.277c0-.396.033-.627.165-.759q.198-.198.693-.198h11.154c.33 0 .561.066.726.198.132.132.231.396.231.759v.627c0 .858-.264 1.65-.726 2.343l-5.676 8.052h5.643c.33 0 .528.066.66.198s.198.363.198.759v2.277q0 .594-.198.792c-.132.132-.33.165-.66.165h-11.352c-.693 0-1.023-.297-1.023-.957v-.759c0-.858.231-1.617.726-2.343zm17.899-4.488h.264c1.914 0 3.333.462 4.191 1.353.792.858 1.221 2.31 1.221 4.356v9.801c0 .33-.099.594-.264.726-.165.165-.462.231-.858.231h-3.036c-.429 0-.726-.066-.891-.231-.165-.132-.231-.396-.231-.726v-9.339c0-.726-.132-1.254-.363-1.518-.264-.264-.759-.429-1.452-.429h-.198c-.726 0-1.188.165-1.452.429s-.363.792-.363 1.518v9.339c0 .33-.099.594-.264.726-.165.165-.462.231-.858.231h-3.036c-.429 0-.726-.066-.891-.231-.165-.132-.231-.396-.231-.726V13.754c0-.33.066-.561.231-.693s.462-.231.891-.231h1.551c.396 0 .66.066.825.165q.247.149.396.594l.198.627h.099c1.056-1.122 2.541-1.683 4.521-1.683m14.165 1.254v14.256c0 .33-.099.594-.264.726-.165.165-.462.231-.858.231h-3.036c-.429 0-.726-.066-.891-.231-.165-.132-.231-.396-.231-.726V13.787c0-.33.066-.561.231-.726.165-.132.462-.231.891-.231h3.036c.396 0 .693.099.858.231.165.165.264.396.264.726m-2.442-2.211h-.396c-1.782 0-2.673-.891-2.673-2.739v-.165c0-1.815.891-2.739 2.673-2.739h.396c1.782 0 2.673.924 2.673 2.739v.165c0 1.848-.891 2.739-2.673 2.739M212.21 25.04h.363c1.122 0 2.31-.132 3.498-.429.33-.066.528-.099.627-.099.33 0 .528.198.594.561l.264 1.65c.066.462.132.759.132.891 0 .396-.297.693-.858.891-1.518.528-3.201.792-4.983.792h-.627q-4.059 0-5.742-1.683a4.73 4.73 0 0 1-1.32-2.244c-.231-.858-.33-2.013-.33-3.432V20.09c0-2.871.66-4.884 1.98-6.072 1.122-.99 2.838-1.485 5.181-1.485h.462c2.31 0 3.993.561 4.983 1.65 1.056 1.188 1.584 3.135 1.584 5.907v1.716c0 .627-.33.924-.957.924h-7.92v.264c0 .792.198 1.32.66 1.617.429.297 1.221.429 2.409.429m-3.069-5.742h3.63c.264 0 .396-.132.396-.429v-.528c0-.66-.132-1.155-.33-1.518-.264-.396-.792-.594-1.518-.594h-.297c-.66 0-1.122.165-1.386.462q-.495.594-.495 1.782z"/></svg>