<svg xmlns="http://www.w3.org/2000/svg" fill="none" viewBox="0 0 105 30"><g clip-path="url(#a)"><path fill="#fff" d="M25.678 19.08h1.639v-7.03h-1.64v4.487l-3.313-4.487h-1.675v7.03h1.675v-4.486zM57.8 12.05h-5.594v1.537h2.744l-3.332 5.51h5.986v-1.554h-3.1zm-10.832 3.515c0-1.166-.855-2.049-2.013-2.049s-2.013.901-2.013 2.05c0 1.2.908 2.048 1.995 2.048 1.158-.018 2.031-.883 2.031-2.049m-5.826-.018c0-2.084 1.728-3.62 3.813-3.62s3.795 1.536 3.795 3.638-1.728 3.621-3.83 3.621-3.778-1.448-3.778-3.639m-7.554 2.014h.374c1.336 0 2.227-.689 2.227-1.996s-.748-1.943-2.227-1.943h-.374zm-1.746 1.52v-7.03h2.031c2.405 0 4.098 1.183 4.098 3.514 0 2.332-1.657 3.515-3.973 3.515zM12.85 16.43h1.657l-.356-1.007c-.16-.46-.303-.919-.446-1.378q-.214.69-.48 1.378zm2.566 2.65-.464-1.343H12.37l-.481 1.342h-1.87l2.903-7.03h1.568l2.869 7.03zM2 17.896l.944-1.042c.446.618.998.918 1.568.918.517 0 .82-.265.82-.706 0-.442-.285-.636-1.087-.972-1.123-.441-1.906-.936-1.906-2.102s1.015-2.084 2.405-2.084c1.015 0 1.728.37 2.245.936l-.91 1.095c-.284-.37-.694-.618-1.228-.618-.428 0-.749.23-.749.583s.339.53 1.158.865c1.176.46 1.853 1.043 1.853 2.226 0 1.342-1.05 2.19-2.494 2.19-1.247 0-2.138-.53-2.619-1.29"/><path fill="#fff" d="m94.733 13.958.535 1.607h-1.07zm3.082-1.184v4.434h2.637v-.919h-1.567v-3.515zm-3.705 0-.927 2.791-.285.848-.267.83h1.016l.267-.83h1.621l.267.83h1.016l-.267-.83-.285-.848-.927-2.79zm-6.076 0L89.353 15l-1.443 2.226h1.247l.89-1.484.891 1.484h1.248L90.725 15l1.336-2.226h-1.176l-.82 1.449-.82-1.449zm-3.705 0v4.434h2.708v-.883H85.38v-.972h1.568v-.848H85.38v-.865h1.657v-.883zm-4.953 0v4.434h1.069v-1.82h1.425v1.82h1.069v-4.433H81.87v1.695h-1.425v-1.696z"/><path fill="#fff" d="M94.858 18.904c-.588 0-1.069.476-1.069 1.06v5.422h1.07v-5.423h5.487v-1.06zm-15.41 0v1.06h5.469v5.422h1.069v-5.423c0-.583-.481-1.06-1.07-1.06zM93.806 4.632v5.422c0 .583.481 1.06 1.069 1.06h5.47v-1.06h-5.47V4.632zm-8.89 0v5.422h-5.47v1.06h5.47c.588 0 1.069-.477 1.069-1.06V4.632zm.285-1.572h9.371s.32 0 .535.23l.017.017 6.646 6.588c.035.036.16.195.16.477v9.256c0 .282-.125.441-.16.477l-6.646 6.588-.017.018c-.232.23-.535.23-.535.23h-9.371s-.321 0-.535-.23l-.018-.018-6.645-6.588c-.036-.036-.16-.195-.16-.477v-9.256c0-.282.124-.441.16-.477l6.645-6.588.018-.018c.232-.23.535-.23.535-.23M85.273 2s-.802 0-1.283.477l-6.627 6.57-.018.018c-.09.089-.552.636-.552 1.413v9.044c0 .777.463 1.325.552 1.413l.018.017 6.627 6.571c.481.477 1.283.477 1.283.477h9.247s.801 0 1.282-.477l6.628-6.57.018-.018c.089-.088.552-.636.552-1.413v-9.044c0-.777-.463-1.324-.552-1.413l-.018-.017-6.628-6.571C95.322 2 94.52 2 94.52 2z"/><path stroke="#fff" stroke-miterlimit="10" stroke-width="2.3" d="M67.243 4.332v22.52"/></g><defs><clipPath id="a"><rect width="105" height="30" fill="#fff"/></clipPath></defs></svg>