<svg xmlns="http://www.w3.org/2000/svg" fill="none" viewBox="0 0 112 48"><path fill="#fff" d="m15.31 3.047 1.33-.697-1.33-.698.551-.955 1.272.803-.059-1.5h1.102l-.047 1.5 1.248-.803.55.955-1.306.698 1.307.697-.551.96-1.248-.802.047 1.5h-1.102l.059-1.5-1.272.803zm8.32 5.52V.562h1.524l3.88 5.689V.562h1.476v8.004H29.02l-3.914-5.76v5.76zm8.427-6.516V.562h1.511v1.489zm.046 6.515v-5.63h1.419v5.63zm2.608-2.818q0-.61.223-1.154.222-.551.615-.955.399-.41.955-.65t1.23-.24q.685-.001 1.248.245t.961.662l-.902.914a1.668 1.668 0 0 0-1.307-.586q-.41 0-.709.153-.298.146-.498.386a1.6 1.6 0 0 0-.299.563 2.4 2.4 0 0 0-.093.662q0 .323.093.639.1.31.3.562.198.252.497.41.3.153.71.153a1.77 1.77 0 0 0 1.353-.604l.844.914a3.1 3.1 0 0 1-.938.674q-.54.252-1.26.252t-1.289-.217a2.65 2.65 0 0 1-.949-.61 2.7 2.7 0 0 1-.586-.948 3.6 3.6 0 0 1-.2-1.225m6.17 2.818V.562h1.389v2.954q.216-.24.632-.47.417-.227 1.06-.228.517 0 .92.17.41.165.68.475.276.305.416.738.147.428.147.944v3.421h-1.418v-3.41q0-.539-.293-.832t-.762-.293q-.286 0-.539.117-.252.112-.433.317a1.5 1.5 0 0 0-.287.474q-.1.27-.1.58v3.047zm6.346-2.818q0-.61.222-1.154.223-.551.616-.955.397-.41.955-.65.555-.24 1.23-.24t1.23.24q.558.24.95.65a2.9 2.9 0 0 1 .62.949q.224.545.223 1.16 0 .61-.222 1.16a3 3 0 0 1-.621.961 2.9 2.9 0 0 1-.95.65q-.555.24-1.23.24t-1.23-.24a2.9 2.9 0 0 1-.956-.65 3.1 3.1 0 0 1-.837-2.12m1.423 0q0 .31.094.621.1.31.299.58.2.264.498.428.3.158.709.158.41 0 .709-.158.3-.165.492-.428.199-.27.293-.58.1-.31.1-.62 0-.3-.1-.616a1.7 1.7 0 0 0-.293-.58 1.44 1.44 0 0 0-.498-.416q-.3-.165-.703-.164-.41 0-.709.164-.3.158-.498.416a1.8 1.8 0 0 0-.299.58 2.2 2.2 0 0 0-.094.615m5.754 2.818V.562h1.412v8.004zm2.45-1.646q0-.48.181-.856.182-.38.504-.638.323-.258.78-.387.456-.135 1.007-.135a13 13 0 0 1 .768.024q.216.012.445.029v-.135a.77.77 0 0 0-.34-.662q-.334-.24-.873-.24-.598 0-.96.158-.358.159-.634.334l-.65-.955a7 7 0 0 1 .387-.246q.216-.129.504-.229a4 4 0 0 1 .662-.17q.381-.063.885-.064.539 0 .978.152.44.147.75.416.31.27.48.65.17.375.17.821v3.78h-1.324l-.035-.528q-.228.276-.697.492a2.46 2.46 0 0 1-1.735.106 1.9 1.9 0 0 1-.62-.328 1.7 1.7 0 0 1-.458-.569 1.8 1.8 0 0 1-.176-.82m1.359-.059a.68.68 0 0 0 .258.563q.258.205.761.205.252 0 .487-.082a1.3 1.3 0 0 0 .41-.229q.182-.146.293-.334a.8.8 0 0 0 .117-.41v-.55L60.117 6a10 10 0 0 0-.668-.023q-.685 0-.96.27a.84.84 0 0 0-.276.614m4.775 1.02.85-.92q.263.263.662.44.404.17.92.17.458 0 .732-.118.276-.123.276-.398a.5.5 0 0 0-.047-.217.5.5 0 0 0-.205-.2 2 2 0 0 0-.428-.193 6 6 0 0 0-.744-.205 5 5 0 0 1-.604-.193 2.4 2.4 0 0 1-.58-.328 1.8 1.8 0 0 1-.445-.504q-.17-.3-.17-.703 0-.423.2-.75a1.75 1.75 0 0 1 .532-.551q.334-.223.745-.34.416-.123.837-.123.745 0 1.266.158.522.153.944.463l-.733.996a2.3 2.3 0 0 0-.603-.304 2.5 2.5 0 0 0-.874-.141q-.503 0-.703.152-.198.153-.199.364 0 .263.328.416.334.152 1.032.316.433.094.773.24.34.147.586.363.246.217.375.51.135.294.135.703 0 .41-.194.739a1.7 1.7 0 0 1-.521.556q-.328.23-.768.352a3.3 3.3 0 0 1-.931.129 4.3 4.3 0 0 1-1.43-.223q-.633-.222-1.014-.656m8.315.685V.562h1.511V3.78h3.973V.563H78.3v8.003h-1.512V5.121h-3.973v3.445zM79.47 6.92q0-.48.181-.856.182-.38.504-.638.323-.258.78-.387.456-.135 1.007-.135a13 13 0 0 1 .768.024q.217.012.445.029v-.135a.77.77 0 0 0-.34-.662q-.333-.24-.873-.24-.597 0-.96.158-.359.159-.633.334l-.65-.955q.168-.117.386-.246a2.8 2.8 0 0 1 .504-.229q.287-.105.662-.17.381-.063.885-.064.54 0 .978.152.44.147.75.416.31.27.48.65.17.375.17.821v3.78h-1.324l-.035-.528q-.228.276-.697.492a2.46 2.46 0 0 1-1.734.106 1.9 1.9 0 0 1-.621-.328 1.7 1.7 0 0 1-.457-.569 1.8 1.8 0 0 1-.176-.82m1.36-.059a.68.68 0 0 0 .257.563q.258.205.762.205.252 0 .486-.082a1.3 1.3 0 0 0 .41-.229q.182-.146.293-.334a.8.8 0 0 0 .117-.41v-.55L82.734 6a10 10 0 0 0-.668-.023q-.685 0-.96.27a.84.84 0 0 0-.276.614m5.05 1.705V.562h1.412v8.004zm2.812 0V.562h1.413v8.004zm2.871-5.46.264-2.532h1.623l-.82 2.531zm2.877 4.775.85-.92q.264.263.662.44.404.17.92.17.457 0 .733-.118.275-.123.275-.398a.5.5 0 0 0-.047-.217.5.5 0 0 0-.205-.2 2 2 0 0 0-.428-.193 6 6 0 0 0-.744-.205 5 5 0 0 1-.603-.193 2.4 2.4 0 0 1-.58-.328 1.8 1.8 0 0 1-.446-.504q-.17-.3-.17-.703 0-.423.2-.75a1.75 1.75 0 0 1 .533-.551q.333-.223.744-.34a3 3 0 0 1 .838-.123q.744 0 1.265.158.522.153.944.463l-.733.996a2.3 2.3 0 0 0-.603-.304 2.5 2.5 0 0 0-.873-.141q-.504 0-.704.152-.198.153-.199.364 0 .263.328.416.335.152 1.032.316.434.094.773.24.34.147.586.363.247.217.375.51.135.294.135.703 0 .41-.194.739a1.7 1.7 0 0 1-.521.556 2.5 2.5 0 0 1-.768.352 3.3 3.3 0 0 1-.931.129 4.3 4.3 0 0 1-1.43-.223q-.633-.222-1.014-.656M0 18.83q0-.623.223-1.173.222-.556.632-.96a3 3 0 0 1 1.002-.645 3.6 3.6 0 0 1 1.319-.235q.732 0 1.347.123.622.118 1.008.246v5.473q0 .585-.205 1.043t-.568.768q-.358.316-.85.474-.492.164-1.066.164a7 7 0 0 1-.785-.04 4 4 0 0 1-.616-.118 2.71 2.71 0 0 1-.902-.428l.633-1.043q.335.229.726.329.393.1.92.1.551 0 .92-.335.375-.333.375-.937v-.61q-.287.24-.633.393-.34.146-.902.146a2.7 2.7 0 0 1-1.084-.205 2.4 2.4 0 0 1-.814-.568 2.5 2.5 0 0 1-.51-.867A3.4 3.4 0 0 1 0 18.83m1.436-.036q0 .65.322 1.096.328.44 1.049.44.65 0 .978-.276t.328-.88V17.16a2 2 0 0 0-.351-.088 4 4 0 0 0-.557-.029q-.434 0-.762.146-.322.141-.55.381a1.6 1.6 0 0 0-.346.563 2 2 0 0 0-.111.662m5.484 2.771v-8.003h1.412v8.003zm2.549-2.818q0-.61.222-1.154.223-.551.616-.955.398-.41.955-.65t1.23-.241q.675 0 1.23.24.558.24.95.65a2.9 2.9 0 0 1 .621.95q.223.545.223 1.16 0 .61-.223 1.16a3 3 0 0 1-.621.961q-.393.41-.95.65-.555.24-1.23.24t-1.23-.24a2.9 2.9 0 0 1-.955-.65 3.1 3.1 0 0 1-.838-2.121m1.424 0q0 .31.093.621.1.31.3.58.198.264.497.428.3.158.71.158t.708-.158q.3-.164.492-.428.199-.27.293-.58.1-.31.1-.621 0-.3-.1-.615a1.7 1.7 0 0 0-.293-.58 1.44 1.44 0 0 0-.498-.416q-.298-.165-.703-.164-.41 0-.709.164a1.5 1.5 0 0 0-.498.416 1.8 1.8 0 0 0-.299.58 2.2 2.2 0 0 0-.093.615m5.753 2.637v-7.823h1.413v2.76q.145-.146.55-.322.411-.182.99-.182.61 0 1.085.229.474.228.808.615.34.381.51.908a3.5 3.5 0 0 1 .176 1.114q0 .638-.223 1.195a2.9 2.9 0 0 1-.639.973 3 3 0 0 1-1.001.662q-.586.246-1.319.246t-1.353-.123a7 7 0 0 1-.997-.252m1.413-.973q.17.059.351.094.182.03.563.03.433 0 .756-.147.322-.153.55-.405.23-.252.34-.58.117-.333.117-.68 0-.321-.076-.62a1.6 1.6 0 0 0-.246-.54 1.2 1.2 0 0 0-.428-.369 1.27 1.27 0 0 0-.615-.14q-.65 0-.984.334-.328.328-.328.902zm4.88-.492q0-.48.182-.856.182-.38.504-.638.323-.258.78-.387.456-.135 1.007-.135a13 13 0 0 1 .768.024q.216.012.445.029v-.135a.77.77 0 0 0-.34-.662q-.334-.24-.873-.24-.598 0-.96.158-.359.159-.634.334l-.65-.955q.17-.117.387-.246a2.8 2.8 0 0 1 .504-.229q.287-.105.662-.17.381-.063.884-.064.54 0 .979.152.44.147.75.416.31.27.48.65.17.375.17.821v3.78H26.66l-.035-.528q-.229.276-.697.492a2.45 2.45 0 0 1-1.735.106 1.9 1.9 0 0 1-.62-.328 1.7 1.7 0 0 1-.458-.569 1.8 1.8 0 0 1-.175-.82m1.36-.059a.68.68 0 0 0 .258.563q.258.205.761.205.252 0 .487-.082a1.3 1.3 0 0 0 .41-.229q.181-.146.293-.334a.8.8 0 0 0 .117-.41v-.55L26.203 19a10 10 0 0 0-.668-.023q-.686 0-.96.27a.84.84 0 0 0-.276.614m5.05 1.705v-8.003h1.413v8.003zm4.811-3.96q0-.88.299-1.641.304-.768.85-1.342a4.025 4.025 0 0 1 2.97-1.254q.585 0 1.078.129.492.123.891.34.405.216.715.51.316.293.556.632l-1.072.944a3.3 3.3 0 0 0-.896-.885q-.504-.334-1.272-.334-.586 0-1.06.235a2.4 2.4 0 0 0-.797.62 2.8 2.8 0 0 0-.504.915 3.4 3.4 0 0 0-.176 1.095q0 .574.176 1.078.175.505.498.88.323.368.774.585.45.217 1.013.217.516 0 .879-.117.369-.123.627-.299.258-.182.434-.38.175-.2.316-.346l1.06.914a3 3 0 0 1-.503.568q-.316.287-.75.533-.428.246-.944.399a3.7 3.7 0 0 1-1.095.158q-.902 0-1.647-.31a3.9 3.9 0 0 1-1.277-.874 4 4 0 0 1-.844-1.312 4.5 4.5 0 0 1-.299-1.658m8.467 3.96v-8.003h1.512v3.216h3.972v-3.216h1.512v8.003h-1.512v-3.445H44.14v3.445zm8.361-3.96q0-.88.3-1.641.303-.768.849-1.342a4.025 4.025 0 0 1 2.97-1.254q.586 0 1.078.129.493.123.891.34.405.216.715.51.317.293.557.632l-1.073.944a3.3 3.3 0 0 0-.896-.885q-.504-.334-1.272-.334-.586 0-1.06.235-.469.228-.797.62a2.8 2.8 0 0 0-.504.915 3.4 3.4 0 0 0-.176 1.095q0 .574.176 1.078.175.505.498.88.322.368.774.585.45.217 1.013.217.516 0 .88-.117.368-.123.626-.299.257-.182.434-.38.175-.2.316-.346l1.06.914a3 3 0 0 1-.503.568q-.316.287-.75.533-.428.246-.944.399a3.7 3.7 0 0 1-1.095.158q-.902 0-1.647-.31a3.9 3.9 0 0 1-1.277-.874 4 4 0 0 1-.844-1.312 4.5 4.5 0 0 1-.299-1.658m10.23 1.247q0-.661.188-1.154.195-.498.48-.85.24-.286.528-.48.292-.193.586-.316a2.7 2.7 0 0 1 1.049-.235q.275 0 .457.018.181.018.322.047.147.03.264.082l.275.105v-2.508h1.406v8.004h-1.37l-.036-.55q-.105.117-.264.252a2 2 0 0 1-.363.24q-.21.105-.468.176-.258.075-.58.076-.457 0-.903-.194a2.4 2.4 0 0 1-.797-.562 3 3 0 0 1-.562-.914q-.21-.54-.211-1.236m1.425 0q0 .721.357 1.202.363.48 1.049.48.357 0 .61-.135.257-.14.41-.357.157-.217.228-.475a2 2 0 0 0 .07-.498v-1.728a1.15 1.15 0 0 0-.474-.235 3 3 0 0 0-.686-.064q-.422 0-.697.164a1.6 1.6 0 0 0-.48.422q-.183.24-.288.562-.1.316-.1.663m5.156 1.067q0-.48.181-.856.183-.38.504-.638.322-.258.78-.387.456-.135 1.008-.135a13 13 0 0 1 .767.024q.217.012.445.029v-.135a.77.77 0 0 0-.34-.662q-.333-.24-.873-.24-.597 0-.96.158a5 5 0 0 0-.633.334l-.65-.955q.169-.117.386-.246a2.8 2.8 0 0 1 .504-.229q.287-.105.662-.17.381-.063.885-.064.54 0 .978.152.44.147.75.416.311.27.48.65.17.375.17.821v3.78H71.52l-.035-.528q-.228.276-.697.492a2.45 2.45 0 0 1-1.734.106 1.9 1.9 0 0 1-.621-.328 1.7 1.7 0 0 1-.457-.569 1.8 1.8 0 0 1-.176-.82m1.36-.059a.68.68 0 0 0 .257.563q.258.205.762.205.252 0 .486-.082t.41-.229q.182-.146.293-.334a.8.8 0 0 0 .117-.41v-.55L71.063 19a10 10 0 0 0-.669-.023q-.686 0-.96.27a.84.84 0 0 0-.276.614m4.57-2.771v-1.155h.96v-1.822h1.413v1.822h1.511v1.155h-1.511v2.46q0 .481.164.74.164.256.521.257.334 0 .533-.094.2-.099.381-.228l.598.873q-.422.345-.832.498a2.6 2.6 0 0 1-.908.152 2.3 2.3 0 0 1-.88-.152 1.4 1.4 0 0 1-.58-.422 1.7 1.7 0 0 1-.316-.668 3.7 3.7 0 0 1-.094-.861V17.09zm4.945 2.83q0-.48.181-.856.183-.38.504-.638.322-.258.78-.387.456-.135 1.008-.135a13 13 0 0 1 .767.024q.217.012.445.029v-.135a.77.77 0 0 0-.34-.662q-.333-.24-.873-.24-.597 0-.96.158a5 5 0 0 0-.633.334l-.65-.955q.169-.117.386-.246a2.8 2.8 0 0 1 .504-.229q.287-.105.662-.17.381-.063.885-.064.54 0 .978.152.44.147.75.416.311.27.48.65.17.375.17.821v3.78h-1.324l-.035-.528q-.228.276-.697.492a2.45 2.45 0 0 1-1.734.106 1.9 1.9 0 0 1-.621-.328 1.7 1.7 0 0 1-.457-.569 1.8 1.8 0 0 1-.176-.82m1.36-.059a.68.68 0 0 0 .257.563q.258.205.762.205.252 0 .486-.082t.41-.229q.182-.146.293-.334a.8.8 0 0 0 .117-.41v-.55L81.938 19a10 10 0 0 0-.669-.023q-.686 0-.96.27a.84.84 0 0 0-.276.614m5.05 1.524v-7.823h1.412v2.76q.147-.146.55-.322.41-.182.991-.182.61 0 1.084.229.475.228.809.615.339.381.51.908a3.5 3.5 0 0 1 .175 1.114q0 .638-.222 1.195a2.9 2.9 0 0 1-.64.973 3 3 0 0 1-1.001.662q-.586.246-1.318.246t-1.354-.123a7 7 0 0 1-.996-.252m1.412-.973q.17.059.352.094.18.03.562.03.434 0 .756-.147.322-.153.55-.405.23-.252.34-.58.118-.333.118-.68 0-.321-.076-.62a1.6 1.6 0 0 0-.246-.54 1.2 1.2 0 0 0-.428-.369 1.27 1.27 0 0 0-.615-.14q-.65 0-.985.334-.328.328-.328.902zm4.881-.492q0-.48.182-.856.18-.38.504-.638.321-.258.779-.387.457-.135 1.008-.135a13 13 0 0 1 .767.024q.217.012.445.029v-.135a.77.77 0 0 0-.34-.662q-.333-.24-.872-.24-.599 0-.961.158-.358.159-.633.334l-.65-.955q.17-.117.386-.246a2.8 2.8 0 0 1 .504-.229q.288-.105.662-.17.381-.063.885-.064.54 0 .978.152.44.147.75.416.311.27.481.65.17.375.17.821v3.78h-1.324l-.035-.528q-.229.276-.698.492a2.45 2.45 0 0 1-1.734.106 1.9 1.9 0 0 1-.621-.328 1.7 1.7 0 0 1-.457-.569 1.8 1.8 0 0 1-.176-.82m1.36-.059a.68.68 0 0 0 .257.563q.258.205.762.205.252 0 .486-.082a1.3 1.3 0 0 0 .41-.229q.182-.146.293-.334a.8.8 0 0 0 .118-.41v-.55L94.64 19a10 10 0 0 0-.668-.023q-.686 0-.961.27a.84.84 0 0 0-.276.614m4.775 1.02.85-.92q.263.263.661.44.405.17.92.17.457 0 .733-.118.275-.123.275-.398a.5.5 0 0 0-.047-.217.47.47 0 0 0-.205-.2 2 2 0 0 0-.428-.193 6 6 0 0 0-.744-.205 5 5 0 0 1-.603-.193 2.4 2.4 0 0 1-.58-.328 1.8 1.8 0 0 1-.446-.504 1.4 1.4 0 0 1-.17-.703q0-.423.2-.75.204-.335.533-.551.334-.223.744-.34.416-.123.838-.123.744 0 1.266.158.521.153.943.463l-.732.996a2.4 2.4 0 0 0-.604-.304 2.5 2.5 0 0 0-.873-.141q-.504 0-.703.152-.2.153-.2.364 0 .263.329.416.333.152 1.031.316.434.095.773.24.34.147.586.363.246.217.375.51.135.294.135.703 0 .41-.193.739a1.7 1.7 0 0 1-.522.556q-.327.23-.767.352a3.3 3.3 0 0 1-.932.129 4.3 4.3 0 0 1-1.43-.223q-.633-.222-1.013-.656m5.742-2.197q0-.623.205-1.155.211-.533.586-.925a2.8 2.8 0 0 1 .902-.627 2.9 2.9 0 0 1 1.16-.229q.768 0 1.301.281.534.282.856.739.328.456.468 1.03.147.575.147 1.179v.199h-4.201q0 .31.14.568.14.252.358.434a1.74 1.74 0 0 0 1.066.369q.41 0 .715-.076.305-.083.516-.182a2 2 0 0 0 .568-.404l.768.867-.2.2a2.3 2.3 0 0 1-.468.339 3.4 3.4 0 0 1-.78.322 3.9 3.9 0 0 1-1.131.147q-.674 0-1.224-.229a2.8 2.8 0 0 1-.944-.627 2.8 2.8 0 0 1-.603-.966 3.7 3.7 0 0 1-.205-1.254m1.412-.528h2.76q0-.216-.082-.427a1.2 1.2 0 0 0-.662-.68 1.35 1.35 0 0 0-.575-.117q-.345 0-.615.117-.27.111-.451.287a1.3 1.3 0 0 0-.281.393 1.1 1.1 0 0 0-.094.427m5.402 5.127.756-1.717h-.609v-1.67h1.717v1.647l-1.02 1.74zM5.666 34.566v-8.004h2.988q.938 0 1.717.24t1.342.733q.569.492.879 1.26t.31 1.81q0 .997-.316 1.735-.317.738-.89 1.236-.57.498-1.348.744a5.6 5.6 0 0 1-1.705.246zm1.512-1.341h1.336q1.365 0 2.086-.663.72-.66.72-1.933 0-1.26-.668-1.992-.662-.733-2.138-.733H7.178zm7.195 1.341v-8.004h2.748q.638 0 1.125.165.486.157.809.445.323.28.492.662.17.375.17.814 0 .423-.158.739-.159.31-.37.521-.204.205-.416.31-.21.1-.328.1.217.023.504.135.288.105.545.334t.434.598q.18.363.181.89 0 .65-.228 1.09-.228.435-.633.703-.399.27-.943.387a6 6 0 0 1-1.184.111zm1.453-1.283h1.283q.217 0 .475-.03t.486-.14q.23-.117.381-.34.159-.222.158-.609 0-.357-.152-.58a1.04 1.04 0 0 0-.37-.346 1.5 1.5 0 0 0-.485-.175 3 3 0 0 0-.493-.047h-1.283zm0-3.527h1.225q.228 0 .445-.047.218-.053.387-.17a.9.9 0 0 0 .275-.299.9.9 0 0 0 .106-.457.86.86 0 0 0-.112-.457.8.8 0 0 0-.28-.287 1.1 1.1 0 0 0-.388-.152 2.3 2.3 0 0 0-.433-.041h-1.225zm5.531 1.306q0-.937.211-1.722.217-.786.639-1.354a2.9 2.9 0 0 1 1.043-.884q.627-.31 1.453-.311.334 0 .621.053.293.053.54.134.245.076.427.165.188.081.31.152l-.615 1.113a2.8 2.8 0 0 0-.767-.305 2 2 0 0 0-.528-.064q-.433 0-.779.188-.345.18-.598.492a2.3 2.3 0 0 0-.392.691q-.14.381-.14.791.263-.157.632-.346.375-.187.955-.187.515 0 .95.17.438.17.744.486.31.316.48.774.176.456.176 1.043a3 3 0 0 1-.17 1.007q-.165.48-.492.844-.323.358-.809.574a2.7 2.7 0 0 1-1.107.217q-.598 0-1.114-.217a2.3 2.3 0 0 1-.884-.673q-.37-.457-.58-1.155-.206-.703-.206-1.675m1.413.276q0 .639.105 1.066.111.422.299.674.187.253.44.363.25.105.527.106.562 0 .902-.399.346-.404.346-1.054 0-.55-.323-.88-.316-.333-.832-.333-.539 0-.896.158a3.6 3.6 0 0 0-.569.299m5.244 4.945.756-1.717h-.61v-1.67h1.717v1.647l-1.02 1.74zm5.472-1.717.387-8.004h1.4l2.221 3.78 2.186-3.78h1.4l.387 8.004H39.99l-.263-5.543-1.922 3.264h-.71l-1.927-3.181-.264 5.46zm8.784 0 3.035-8.004h1.564l3.035 8.004h-1.681l-.698-2.027H44.55l-.692 2.027zm2.7-3.275h2.128l-1.06-3.111zm5.274-3.398v-1.33h6.938v1.33h-2.713v6.673h-1.512v-6.673zm9.908 2.666a4.2 4.2 0 0 1 1.207-2.983q.556-.569 1.319-.896a4 4 0 0 1 1.64-.334q.88 0 1.63.334a4.17 4.17 0 0 1 2.208 2.232q.322.767.322 1.647a4.2 4.2 0 0 1-.351 1.716 4.3 4.3 0 0 1-.967 1.377l.903 1.155-.903.755-.96-1.224a4.5 4.5 0 0 1-.903.322 4 4 0 0 1-.979.123q-.879 0-1.634-.328a4.2 4.2 0 0 1-1.319-.908 4.3 4.3 0 0 1-.89-1.342 4.2 4.2 0 0 1-.323-1.646m1.582-.036q0 .563.182 1.079.181.515.516.908.34.387.808.615.475.228 1.078.228.516 0 .973-.181L64.377 32l.902-.756.944 1.225q.322-.387.498-.885.175-.498.175-1.06 0-.575-.181-1.085a2.6 2.6 0 0 0-.516-.896 2.3 2.3 0 0 0-.814-.604 2.5 2.5 0 0 0-1.067-.222q-.597 0-1.072.223a2.4 2.4 0 0 0-.814.603 2.7 2.7 0 0 0-.516.896q-.182.51-.182 1.084m7.758 2.59v-1.19l3.299-4.915h1.418v4.904h.78v1.201h-.78v1.453h-1.36v-1.453zm1.365-1.2h1.993V29zm7.377-3.733q.147-.24.358-.48.216-.247.527-.452a2.8 2.8 0 0 1 .733-.328q.42-.129.96-.129.65 0 1.12.176a2.1 2.1 0 0 1 .767.463q.3.287.44.656.146.363.146.744 0 .411-.135.756-.128.345-.345.65-.217.3-.493.563-.274.264-.562.504-.346.287-.656.527-.305.24-.533.469a2.3 2.3 0 0 0-.364.463q-.129.234-.129.521h3.264v1.283h-4.857v-.949q0-.516.17-.931.175-.423.45-.774.282-.357.616-.656t.674-.592q.334-.287.592-.486.257-.206.439-.393.181-.188.27-.375.087-.193.087-.445 0-.159-.052-.322a.7.7 0 0 0-.182-.293.9.9 0 0 0-.328-.211 1.3 1.3 0 0 0-.516-.088q-.275 0-.498.088a1.5 1.5 0 0 0-.398.216 1.7 1.7 0 0 0-.299.288q-.123.152-.21.293zm6.334 2.508q0-.88.188-1.594.187-.72.556-1.23.375-.51.932-.792.556-.28 1.29-.281.731 0 1.282.281.552.281.92.791.375.51.563 1.23.187.721.187 1.595a6.8 6.8 0 0 1-.187 1.652q-.188.75-.563 1.283a2.7 2.7 0 0 1-.925.838q-.557.3-1.29.299-.731 0-1.283-.3a2.75 2.75 0 0 1-.925-.837 3.9 3.9 0 0 1-.557-1.283 6.8 6.8 0 0 1-.188-1.653m1.454 0q0 .585.093 1.095.1.505.287.88.194.367.475.585.287.217.656.217t.65-.217q.287-.217.47-.586a3.3 3.3 0 0 0 .28-.879q.1-.504.1-1.096a5 5 0 0 0-.1-1.043 2.7 2.7 0 0 0-.287-.82 1.5 1.5 0 0 0-.468-.533 1.13 1.13 0 0 0-.656-.193q-.37 0-.657.193a1.5 1.5 0 0 0-.468.533q-.182.34-.282.82a5.5 5.5 0 0 0-.093 1.044m5.29-2.508q.147-.24.358-.48.216-.247.527-.452.316-.205.733-.328.42-.129.96-.129.65 0 1.12.176a2.1 2.1 0 0 1 .767.463q.3.287.44.656.146.363.146.744 0 .411-.135.756-.127.345-.345.65-.218.3-.492.563-.276.264-.563.504-.346.287-.656.527-.305.24-.533.469a2.2 2.2 0 0 0-.364.463q-.129.234-.129.521h3.264v1.283h-4.857v-.949q0-.516.17-.931.175-.423.45-.774.282-.357.616-.656t.674-.592q.334-.287.592-.486.257-.206.44-.393.18-.188.269-.375.088-.193.088-.445 0-.159-.053-.322a.7.7 0 0 0-.182-.293.9.9 0 0 0-.328-.211 1.3 1.3 0 0 0-.516-.088q-.275 0-.498.088a1.5 1.5 0 0 0-.398.216 1.7 1.7 0 0 0-.299.288q-.123.152-.21.293zm6.504 4.933v-1.19l3.299-4.915h1.418v4.904h.779v1.201h-.779v1.453h-1.359v-1.453zm1.366-1.2h1.992V29zm5.507 4.37.756-1.717h-.609v-1.67h1.717v1.647l-1.02 1.74zm.147-5.69v-1.657h1.717v1.658zm-79.043 14.02v-5.05h1.512v4.787q0 .456.088.826.094.363.298.62.206.26.54.4.333.135.826.134.492 0 .826-.135.34-.14.539-.398a1.6 1.6 0 0 0 .293-.621 3.4 3.4 0 0 0 .094-.826v-4.788h1.511v5.051q0 .674-.217 1.248-.21.574-.632 1.002t-1.032.674q-.603.246-1.382.246-.78 0-1.389-.246a3 3 0 0 1-1.025-.674 2.9 2.9 0 0 1-.633-1.002 3.5 3.5 0 0 1-.217-1.248m8.004 2.953v-5.63h1.353l.035.638a7 7 0 0 1 .247-.258q.14-.14.334-.246.198-.106.457-.175.263-.077.597-.077 1.113 0 1.694.815.434-.445.879-.627.45-.188 1.048-.188 1.067 0 1.635.633.574.627.574 1.694v3.421h-1.412v-3.41q0-.539-.275-.832-.27-.293-.733-.293-.286 0-.533.117-.24.112-.416.317a1.4 1.4 0 0 0-.263.474 1.9 1.9 0 0 0-.088.58v3.047h-1.412v-3.41q0-.539-.27-.832t-.738-.293q-.287 0-.528.117-.24.112-.416.317a1.4 1.4 0 0 0-.27.474 1.9 1.9 0 0 0-.087.58v3.047zm9.943-.685.85-.92q.264.264.662.44.405.17.92.17.458 0 .732-.118.276-.123.276-.398a.5.5 0 0 0-.047-.217.5.5 0 0 0-.205-.2 2 2 0 0 0-.428-.193 6 6 0 0 0-.744-.205 5 5 0 0 1-.604-.193 2.4 2.4 0 0 1-.58-.328 1.8 1.8 0 0 1-.445-.504q-.17-.3-.17-.703 0-.423.2-.75.204-.335.533-.551.333-.223.744-.34.415-.123.838-.123.744 0 1.265.158.522.153.944.463l-.733.996a2.4 2.4 0 0 0-.603-.305 2.5 2.5 0 0 0-.873-.14q-.504 0-.704.152-.2.153-.199.363 0 .264.328.417.335.152 1.031.316.434.094.774.24.34.147.586.364.246.216.375.51.135.293.135.702 0 .41-.194.739a1.7 1.7 0 0 1-.521.556q-.329.23-.768.352a3.3 3.3 0 0 1-.931.129 4.3 4.3 0 0 1-1.43-.223q-.633-.222-1.014-.656m5.643-.961q0-.48.181-.855.182-.382.504-.64.323-.257.78-.386.456-.135 1.008-.135a13 13 0 0 1 .767.024q.217.011.445.029v-.135a.77.77 0 0 0-.34-.662q-.333-.24-.873-.24-.597 0-.96.158-.358.159-.633.334l-.65-.955q.169-.117.386-.246a2.8 2.8 0 0 1 .504-.229q.287-.105.662-.17.381-.064.885-.064.54 0 .978.152.44.147.75.416.31.27.48.65.17.375.17.821v3.78h-1.324l-.035-.528q-.228.276-.697.492a2.45 2.45 0 0 1-1.734.106 1.9 1.9 0 0 1-.621-.328 1.7 1.7 0 0 1-.457-.569 1.8 1.8 0 0 1-.176-.82m1.36-.059a.68.68 0 0 0 .257.563q.258.204.762.205.252 0 .486-.082a1.3 1.3 0 0 0 .41-.229q.182-.146.293-.334a.8.8 0 0 0 .117-.41v-.55L52.647 45a10 10 0 0 0-.669-.023q-.685 0-.96.27a.84.84 0 0 0-.276.614m4.57-2.771v-1.155h.96v-1.822h1.412v1.822h1.512v1.155h-1.512v2.46q0 .481.165.74.164.256.521.257.334 0 .533-.094.2-.1.381-.228l.598.873q-.422.345-.832.498a2.6 2.6 0 0 1-.908.152 2.3 2.3 0 0 1-.88-.152 1.4 1.4 0 0 1-.58-.422 1.7 1.7 0 0 1-.316-.668 3.7 3.7 0 0 1-.094-.861V43.09zm5.162 4.476v-1.078l2.87-3.363h-2.782v-1.19h4.546v1.108l-2.964 3.37h2.964v1.153zm7.986-6.515v-1.489h1.512v1.489zm.047 6.515v-5.63h1.418v5.63zm2.87 0v-5.63h1.354l.036.638q.105-.117.257-.252t.364-.246.474-.181q.264-.077.598-.077 1.055 0 1.605.633.557.627.557 1.694v3.421h-1.418v-3.41q0-.539-.293-.832t-.762-.293q-.286 0-.539.117-.252.112-.433.317a1.5 1.5 0 0 0-.287.474q-.1.27-.1.58v3.047zm8.48-2.472.275-.885h.656a2 2 0 0 1-.012-.24v-.481q0-.111.012-.228h-.932l.276-.89h.79q.147-.564.4-1.038.257-.474.626-.82.375-.352.856-.54.48-.192 1.084-.193.732 0 1.224.246.492.247.885.627l-.756.961a1.8 1.8 0 0 0-.568-.398q-.294-.13-.75-.13-.621 0-.996.358-.375.352-.54.926h2.268l-.275.89h-2.15a2 2 0 0 0-.012.23v.48q0 .117.012.24h2.302l-.275.885H82.4q.17.574.54.925.369.346.984.346.456 0 .75-.123a1.9 1.9 0 0 0 .568-.404l.756.96a3.6 3.6 0 0 1-.89.634q-.487.24-1.22.24-.585 0-1.078-.188a2.7 2.7 0 0 1-.85-.533 3.4 3.4 0 0 1-.626-.82 4.4 4.4 0 0 1-.398-1.037zm6.954 2.472v-1.658h1.717v1.658z"/></svg>