<svg xmlns="http://www.w3.org/2000/svg" fill="none" viewBox="0 0 263 65"><path fill="#fff" d="m0 24.38.725-6.961h4.463l-2.24 6.96zm6.365 0 .725-6.961h4.463l-2.24 6.96zm9.297 0 .725-6.961h4.464l-2.24 6.96zm9.41-2.37V0h4.158v8.846h10.924V0h4.157v22.01h-4.157v-9.474H29.23v9.475zm23.397-6.074v-9.41h3.883v9.378q0 1.482.806 2.304.822.806 2.11.806.79 0 1.483-.306.693-.322 1.176-.887.5-.563.774-1.305a4.3 4.3 0 0 0 .29-1.595V6.526h3.9V22.01h-3.74l-.096-1.757a8 8 0 0 1-.725.693q-.435.37-.999.693a5.5 5.5 0 0 1-1.273.5 6.5 6.5 0 0 1-1.66.193q-2.9 0-4.415-1.724-1.514-1.74-1.514-4.673m17.483 4.19 2.336-2.53q.725.725 1.82 1.208 1.113.468 2.53.468 1.258 0 2.015-.323.757-.337.757-1.096 0-.321-.129-.596-.129-.29-.564-.548-.418-.274-1.176-.531-.757-.274-2.046-.564a13 13 0 0 1-1.66-.532 6.7 6.7 0 0 1-1.595-.902 5 5 0 0 1-1.225-1.386q-.467-.822-.467-1.934 0-1.16.548-2.062a4.8 4.8 0 0 1 1.466-1.515 7.3 7.3 0 0 1 2.046-.934 8 8 0 0 1 2.305-.339q2.046 0 3.48.435a8.2 8.2 0 0 1 2.594 1.273l-2.014 2.74q-.628-.468-1.66-.838-1.015-.387-2.4-.387t-1.934.419q-.548.42-.548.999 0 .725.903 1.144.918.42 2.835.87 1.192.258 2.127.66.934.404 1.612 1 .676.596 1.031 1.402.37.805.37 1.933t-.531 2.03a4.6 4.6 0 0 1-1.434 1.531q-.903.629-2.111.967a9 9 0 0 1-2.562.355q-2.175 0-3.932-.613-1.74-.612-2.787-1.805M81.147 9.7V6.526h2.642V1.515h3.883v5.01h4.158V9.7h-4.158v6.768q0 1.32.452 2.03.45.71 1.434.709.917 0 1.466-.258a8 8 0 0 0 1.047-.628l1.644 2.4q-1.16.951-2.288 1.37-1.112.42-2.498.42-1.417 0-2.417-.42-.983-.402-1.595-1.16-.612-.773-.87-1.837-.258-1.08-.258-2.368V9.7zm14.856 17.032 2.079-4.721h-1.676v-4.592h4.721v4.527l-2.804 4.786zm14.921-4.721V0h3.819v8.121q.596-.66 1.74-1.289t2.916-.628q1.419 0 2.53.467 1.128.45 1.869 1.305.758.838 1.144 2.03.403 1.177.403 2.595v9.41h-3.899v-9.378q0-1.482-.806-2.288-.805-.806-2.095-.806-.789 0-1.482.322a3.4 3.4 0 0 0-1.192.87q-.5.548-.79 1.306a4.6 4.6 0 0 0-.274 1.595v8.379zm18.111-6.075v-9.41h3.883v9.378q0 1.482.806 2.304.822.806 2.111.806.789 0 1.482-.306.693-.322 1.177-.887.499-.563.773-1.305.29-.741.29-1.595V6.526h3.9V22.01h-3.739l-.096-1.757a8 8 0 0 1-.726.693q-.435.37-.999.693-.548.306-1.272.5a6.5 6.5 0 0 1-1.66.193q-2.9 0-4.415-1.724-1.515-1.74-1.515-4.673m17.483 4.19 2.336-2.53q.726.725 1.821 1.208 1.113.468 2.53.468 1.257 0 2.014-.323.758-.337.758-1.096 0-.321-.129-.596-.129-.29-.564-.548-.42-.274-1.177-.531-.757-.274-2.046-.564a13 13 0 0 1-1.66-.532 6.7 6.7 0 0 1-1.595-.902 5 5 0 0 1-1.224-1.386q-.468-.822-.468-1.934 0-1.16.548-2.062a4.8 4.8 0 0 1 1.466-1.515 7.3 7.3 0 0 1 2.047-.934 8 8 0 0 1 2.304-.339q2.046 0 3.48.435a8.2 8.2 0 0 1 2.595 1.273l-2.014 2.74q-.629-.468-1.66-.838-1.015-.387-2.401-.387t-1.934.419q-.547.42-.547.999 0 .725.902 1.144.918.42 2.836.87 1.192.258 2.127.66.934.404 1.611 1t1.031 1.402q.37.805.371 1.933 0 1.128-.532 2.03a4.6 4.6 0 0 1-1.434 1.531q-.902.629-2.111.967a9 9 0 0 1-2.562.355q-2.175 0-3.931-.613-1.74-.612-2.788-1.805M161.713 9.7V6.526h2.642V1.515h3.884v5.01h4.157V9.7h-4.157v6.768q0 1.32.451 2.03.452.71 1.434.709.918 0 1.466-.258a8 8 0 0 0 1.048-.628l1.643 2.4q-1.16.951-2.288 1.37-1.112.42-2.497.42-1.419 0-2.417-.42a3.9 3.9 0 0 1-1.596-1.16 4.7 4.7 0 0 1-.87-1.837q-.258-1.08-.258-2.368V9.7zm14.856 17.032 2.079-4.721h-1.676v-4.592h4.721v4.527l-2.803 4.786zm14.921-4.721V0h3.819v8.121q.597-.66 1.74-1.289t2.917-.628q1.417 0 2.53.467 1.128.45 1.869 1.305.757.838 1.144 2.03.402 1.177.403 2.595v9.41h-3.9v-9.378q0-1.482-.805-2.288-.807-.806-2.095-.806-.79 0-1.483.322a3.4 3.4 0 0 0-1.192.87q-.5.548-.79 1.306a4.6 4.6 0 0 0-.273 1.595v8.379zm18.112-6.075v-9.41h3.883v9.378q0 1.482.806 2.304.821.806 2.11.806.79 0 1.483-.306.693-.322 1.176-.887.5-.563.773-1.305a4.3 4.3 0 0 0 .291-1.595V6.526h3.899V22.01h-3.738l-.097-1.757a8 8 0 0 1-.725.693q-.435.37-.999.693-.548.306-1.273.5a6.5 6.5 0 0 1-1.66.193q-2.9 0-4.415-1.724-1.514-1.74-1.514-4.673m17.482 4.19 2.337-2.53q.725.725 1.821 1.208 1.112.468 2.529.468 1.257 0 2.015-.323.757-.337.757-1.096 0-.321-.129-.596-.129-.29-.564-.548-.418-.274-1.176-.531-.757-.274-2.047-.564a13 13 0 0 1-1.659-.532 6.7 6.7 0 0 1-1.595-.902 5 5 0 0 1-1.225-1.386q-.468-.822-.467-1.934 0-1.16.548-2.062a4.8 4.8 0 0 1 1.466-1.515 7.3 7.3 0 0 1 2.046-.934 8 8 0 0 1 2.304-.339q2.047 0 3.481.435 1.434.42 2.594 1.273l-2.014 2.74q-.628-.468-1.66-.838-1.014-.387-2.401-.387-1.385 0-1.933.419-.548.42-.548.999 0 .725.902 1.144.92.42 2.836.87 1.192.258 2.127.66.934.404 1.612 1 .676.596 1.031 1.402.37.805.37 1.933t-.531 2.03a4.6 4.6 0 0 1-1.434 1.531q-.903.629-2.111.967a9 9 0 0 1-2.562.355q-2.175 0-3.932-.613-1.74-.612-2.788-1.805M242.279 9.7V6.526h2.643V1.515h3.883v5.01h4.157V9.7h-4.157v6.768q0 1.32.451 2.03t1.434.709q.92 0 1.467-.258a8 8 0 0 0 1.047-.628l1.644 2.4q-1.16.951-2.288 1.37-1.113.42-2.498.42-1.418 0-2.417-.42-.983-.402-1.595-1.16a4.7 4.7 0 0 1-.87-1.837q-.258-1.08-.258-2.368V9.7zm14.261-2.707 2.255-6.96h2.933l-.725 6.96zM25.878 58.011V42.526H29.6l.097 1.756q.29-.323.709-.693.42-.37.999-.676.58-.306 1.305-.5a6 6 0 0 1 1.643-.21q2.901 0 4.416 1.74 1.53 1.725 1.53 4.658v9.41h-3.9v-9.378q0-1.483-.805-2.288-.805-.806-2.095-.806-.789 0-1.482.322-.694.307-1.192.87-.5.548-.79 1.306a4.6 4.6 0 0 0-.274 1.595v8.379zm18.208-17.918V36h4.157v4.093zm.129 17.918V42.526h3.9V58.01zm7.17-7.75q0-1.677.613-3.175a8.1 8.1 0 0 1 1.692-2.626 8.1 8.1 0 0 1 2.626-1.79q1.53-.66 3.384-.66 1.884 0 3.432.677a8.1 8.1 0 0 1 2.642 1.82l-2.481 2.515a4.7 4.7 0 0 0-1.547-1.177q-.886-.435-2.046-.435-1.128 0-1.95.42a4.1 4.1 0 0 0-1.37 1.063q-.548.66-.821 1.547a6.5 6.5 0 0 0-.258 1.82q0 .887.258 1.757a4.9 4.9 0 0 0 .821 1.546q.548.693 1.37 1.128.822.42 1.95.42 1.16 0 2.11-.452.95-.45 1.612-1.208l2.32 2.513a8.4 8.4 0 0 1-2.578 1.853q-1.482.693-3.464.693-1.983 0-3.545-.596-1.548-.596-2.61-1.676a7.5 7.5 0 0 1-1.612-2.61q-.548-1.53-.548-3.368m16.968 7.75V36h3.818v8.121q.597-.66 1.74-1.289 1.145-.628 2.917-.628 1.418 0 2.53.467 1.128.45 1.87 1.305.756.838 1.143 2.03.403 1.177.403 2.595v9.41h-3.9v-9.378q0-1.483-.805-2.288-.806-.806-2.095-.806-.789 0-1.482.322-.693.307-1.193.87-.5.548-.79 1.306a4.6 4.6 0 0 0-.273 1.595v8.379zM85.207 45.7v-3.175h2.643v-5.011h3.883v5.01h4.157V45.7h-4.157v6.768q0 1.32.451 2.03.45.71 1.434.709.919 0 1.467-.258a8 8 0 0 0 1.047-.628l1.643 2.4q-1.16.952-2.288 1.37-1.11.42-2.497.42-1.418 0-2.417-.42-.983-.402-1.595-1.16-.614-.773-.87-1.837-.258-1.08-.258-2.368V45.7zm19.835 4.785a8.5 8.5 0 0 1 .613-3.223 7.65 7.65 0 0 1 1.74-2.642q1.144-1.128 2.755-1.773 1.628-.645 3.626-.644 2.014 0 3.706.338 1.708.322 2.771.677v15.05q0 1.611-.564 2.868a5.9 5.9 0 0 1-1.563 2.11 6.5 6.5 0 0 1-2.336 1.306q-1.353.45-2.933.45-1.224 0-2.159-.112a11.6 11.6 0 0 1-1.692-.322 7.414 7.414 0 0 1-2.481-1.176l1.74-2.869q.918.63 1.998.903t2.53.274q1.515 0 2.53-.919 1.03-.918 1.031-2.578v-1.676q-.789.66-1.74 1.08-.934.403-2.482.403-1.676 0-2.981-.564a6.6 6.6 0 0 1-2.239-1.563 6.95 6.95 0 0 1-1.402-2.385q-.468-1.37-.468-3.013m3.948-.097q0 1.788.886 3.013.903 1.209 2.885 1.209 1.788 0 2.691-.758.902-.757.902-2.416v-5.543a6 6 0 0 0-.967-.242q-.483-.08-1.531-.08-1.192 0-2.094.402a4.6 4.6 0 0 0-1.515 1.048q-.628.66-.951 1.546a5.5 5.5 0 0 0-.306 1.821m14.357-.306q0-1.709.564-3.174a7.8 7.8 0 0 1 1.611-2.546 7.6 7.6 0 0 1 2.482-1.724q1.45-.63 3.19-.629 2.112 0 3.577.774 1.467.773 2.353 2.03a8.1 8.1 0 0 1 1.289 2.836 13 13 0 0 1 .403 3.239v.547h-11.553q0 .854.386 1.563.387.693.983 1.193.613.483 1.386.757a5 5 0 0 0 1.547.258q1.128 0 1.966-.21a8.6 8.6 0 0 0 1.418-.499 5.4 5.4 0 0 0 1.563-1.112l2.111 2.385-.548.548q-.435.435-1.289.934-.838.5-2.143.887-1.306.402-3.11.402-1.853 0-3.368-.628a7.8 7.8 0 0 1-2.594-1.724 7.6 7.6 0 0 1-1.66-2.659q-.564-1.563-.564-3.448m3.883-1.45h7.59q0-.597-.226-1.177a3.3 3.3 0 0 0-.677-1.079 3.4 3.4 0 0 0-1.144-.79q-.692-.322-1.579-.322-.95 0-1.692.322a3.9 3.9 0 0 0-1.24.79 3.6 3.6 0 0 0-.774 1.08q-.258.596-.258 1.176m13.117-2.933v-3.174h2.626v-.95q0-1.677.532-2.853t1.353-1.917a5 5 0 0 1 1.837-1.064 6.5 6.5 0 0 1 2.031-.338q1.063 0 2.336.306 1.29.29 2.481 1.305l-1.82 2.578a5 5 0 0 0-1.144-.596 3.4 3.4 0 0 0-1.225-.225q-1.16 0-1.837.74-.677.742-.677 2.128v.886h3.996V45.7h-3.963v12.31h-3.9V45.7zm12.632 6.236v-9.41h3.884v9.378q0 1.482.805 2.304.822.806 2.111.806.79 0 1.483-.306.693-.322 1.176-.887.5-.563.773-1.305.29-.741.29-1.595v-8.395h3.9V58.01h-3.738l-.097-1.757a8 8 0 0 1-.725.693q-.435.37-.999.693-.548.306-1.273.5a6.5 6.5 0 0 1-1.66.193q-2.9 0-4.415-1.724-1.515-1.74-1.515-4.673m18.241 6.075V42.526h3.722l.097 1.756q.29-.323.709-.693.418-.37.999-.676.579-.306 1.305-.5a6 6 0 0 1 1.643-.21q2.901 0 4.415 1.74 1.531 1.725 1.531 4.658v9.41h-3.899v-9.378q0-1.483-.806-2.288-.805-.806-2.095-.806-.789 0-1.482.322a3.4 3.4 0 0 0-1.192.87q-.5.548-.79 1.306a4.6 4.6 0 0 0-.274 1.595v8.379zm17.45-7.46q0-1.822.516-3.175.532-1.37 1.321-2.336a7 7 0 0 1 1.451-1.322 10 10 0 0 1 1.611-.87 7.3 7.3 0 0 1 1.563-.5 7 7 0 0 1 1.321-.144q.758 0 1.257.048.5.048.886.129.403.081.725.225l.758.29V36h3.867v22.01h-3.771l-.096-1.514a8 8 0 0 1-.725.693q-.42.354-1 .66a7 7 0 0 1-1.289.484q-.708.21-1.595.21a6.2 6.2 0 0 1-2.481-.532 6.7 6.7 0 0 1-2.192-1.547q-.95-1.032-1.547-2.514-.58-1.482-.58-3.4m3.916 0q0 1.981.983 3.302.999 1.322 2.884 1.322.983 0 1.676-.37a3.25 3.25 0 0 0 1.128-.984q.435-.596.628-1.305.194-.709.194-1.37v-4.753a3.2 3.2 0 0 0-1.306-.645q-.74-.177-1.885-.177-1.16 0-1.917.452-.758.434-1.322 1.16-.5.66-.789 1.547a6 6 0 0 0-.274 1.82m14.454-.468q0-1.709.564-3.174a7.8 7.8 0 0 1 1.611-2.546 7.6 7.6 0 0 1 2.481-1.724q1.45-.63 3.191-.629 2.11 0 3.577.774 1.466.773 2.352 2.03a8.1 8.1 0 0 1 1.289 2.836 13 13 0 0 1 .403 3.239v.547h-11.553q0 .854.387 1.563.387.693.983 1.193.612.483 1.385.757a5 5 0 0 0 1.547.258q1.129 0 1.966-.21a8.6 8.6 0 0 0 1.418-.499 5.4 5.4 0 0 0 1.563-1.112l2.111 2.385-.548.548q-.435.435-1.289.934-.838.5-2.143.887-1.305.402-3.11.402-1.853 0-3.368-.628a7.8 7.8 0 0 1-2.594-1.724 7.6 7.6 0 0 1-1.659-2.659q-.564-1.563-.564-3.448m3.883-1.45h7.589q0-.597-.225-1.177a3.3 3.3 0 0 0-.677-1.079 3.4 3.4 0 0 0-1.144-.79q-.693-.322-1.579-.322-.951 0-1.692.322a3.9 3.9 0 0 0-1.241.79 3.6 3.6 0 0 0-.773 1.08q-.258.596-.258 1.176m14.598 9.378V42.526h3.723l.096 1.756q.29-.323.709-.693.42-.37.999-.676.58-.306 1.306-.5a6 6 0 0 1 1.643-.21q2.9 0 4.415 1.74 1.531 1.725 1.531 4.658v9.41h-3.9v-9.378q0-1.483-.805-2.288-.806-.806-2.095-.806-.789 0-1.482.322-.693.307-1.193.87-.5.548-.789 1.306a4.6 4.6 0 0 0-.274 1.595v8.379zm18.499 0v-4.56h4.721v4.56zm8.733-14.357V36h3.69v7.654zm5.607 0V36h3.69v7.654z"/></svg>