<svg xmlns="http://www.w3.org/2000/svg" fill="none" viewBox="0 0 248 127"><path fill="#fff" d="m.924 25.438 3.889-3.567q.537.624 1.246 1.31.73.667 1.632 1.268.903.58 2.02.988 1.117.387 2.535.387 2.6 0 3.846-1.181t1.246-2.858q0-.924-.344-1.654t-1.181-1.268q-.84-.558-2.192-.988-1.331-.45-3.309-.838-2.019-.387-3.501-1.224-1.483-.86-2.45-1.998a8.1 8.1 0 0 1-1.46-2.514 8.9 8.9 0 0 1-.473-2.858q0-1.675.601-3.18a7.4 7.4 0 0 1 1.89-2.685Q6.21 1.418 8.122.71T12.633 0q2.342 0 3.996.537 1.675.516 2.793 1.225 1.14.709 1.74 1.396.624.667.902.988l-3.652 3.417q-.215-.173-.709-.624a6.6 6.6 0 0 0-1.224-.902q-.71-.45-1.74-.795-1.01-.365-2.278-.365-1.14 0-1.977.322-.838.3-1.396.795-.537.473-.817 1.074-.257.58-.257 1.118 0 .794.279 1.418.3.6.967 1.138.687.516 1.869.945 1.203.409 3.008.774 1.719.344 3.287 1.053 1.59.708 2.793 1.826a8 8 0 0 1 1.933 2.728q.73 1.612.73 3.846 0 1.935-.794 3.566a8.6 8.6 0 0 1-2.191 2.858q-1.397 1.225-3.352 1.912-1.934.687-4.211.688-2.19 0-3.975-.538a15 15 0 0 1-3.222-1.332 14 14 0 0 1-2.47-1.783 18 18 0 0 1-1.741-1.848M28.252 6.252V.795h5.543v5.457zm.172 23.89V9.497h5.199v20.647zm9.56-10.57q0-2.277.752-4.232a10.4 10.4 0 0 1 2.149-3.395 10.2 10.2 0 0 1 3.308-2.299q1.934-.837 4.254-.837 2.815 0 4.77 1.03 1.955 1.032 3.136 2.708a10.8 10.8 0 0 1 1.72 3.781q.536 2.105.536 4.319v.73H43.205q0 1.14.516 2.084.516.924 1.31 1.59.816.645 1.848 1.01 1.053.343 2.062.343 1.505 0 2.621-.279 1.118-.3 1.891-.666a7.2 7.2 0 0 0 2.084-1.482l2.815 3.18-.73.73q-.581.58-1.72 1.246-1.117.666-2.857 1.181-1.74.538-4.147.538-2.47 0-4.49-.838t-3.459-2.3q-1.44-1.482-2.213-3.544-.752-2.085-.752-4.598m5.178-1.933h10.12q0-.795-.301-1.569-.301-.795-.903-1.44-.601-.644-1.525-1.052-.924-.43-2.106-.43-1.268 0-2.256.43-.988.408-1.654 1.053t-1.031 1.44a3.9 3.9 0 0 0-.344 1.568m27.414 12.504V.795h5.092v10.828q.795-.88 2.32-1.719 1.525-.837 3.889-.838 1.89 0 3.373.623 1.504.603 2.492 1.74 1.01 1.118 1.526 2.708.537 1.567.537 3.459v12.547h-5.2V17.639q0-1.977-1.074-3.051t-2.793-1.074a4.6 4.6 0 0 0-1.976.43 4.6 4.6 0 0 0-1.59 1.16 5.4 5.4 0 0 0-1.053 1.74 6.1 6.1 0 0 0-.365 2.127v11.172zm24.149-8.1V9.496h5.177V22q0 1.977 1.075 3.072 1.095 1.075 2.814 1.075 1.053 0 1.977-.409a4.6 4.6 0 0 0 1.568-1.181 5.4 5.4 0 0 0 1.031-1.74 5.8 5.8 0 0 0 .387-2.128V9.497h5.199v20.647h-4.984l-.129-2.342q-.387.429-.967.924-.58.494-1.332.923a7.4 7.4 0 0 1-1.697.666q-.967.258-2.213.258-3.867 0-5.887-2.299-2.02-2.32-2.02-6.23m23.31 5.586 3.115-3.373q.967.966 2.428 1.611 1.482.624 3.373.623 1.676 0 2.686-.43 1.01-.45 1.009-1.46 0-.43-.171-.795-.173-.387-.752-.73-.56-.366-1.569-.71-1.01-.365-2.728-.752a18 18 0 0 1-2.213-.709 9 9 0 0 1-2.127-1.203 6.7 6.7 0 0 1-1.633-1.848q-.623-1.096-.623-2.578 0-1.545.731-2.75a6.4 6.4 0 0 1 1.955-2.02 9.7 9.7 0 0 1 2.728-1.245 10.8 10.8 0 0 1 3.072-.451q2.728 0 4.641.58 1.913.558 3.459 1.697l-2.686 3.652q-.838-.622-2.212-1.117-1.354-.516-3.202-.516t-2.578.56-.73 1.331q0 .967 1.203 1.525 1.224.56 3.781 1.16 1.59.345 2.836.881a8 8 0 0 1 2.149 1.332 5.34 5.34 0 0 1 1.375 1.87q.494 1.074.494 2.578t-.709 2.707a6.2 6.2 0 0 1-1.912 2.04q-1.204.84-2.815 1.29a12 12 0 0 1-3.416.473q-2.9 0-5.242-.817-2.32-.816-3.717-2.406m20.26-13.9V9.496h3.523V2.814h5.178v6.682h5.543v4.233h-5.543v9.023q0 1.761.602 2.707.601.945 1.912.945 1.224 0 1.955-.343.73-.366 1.396-.838l2.192 3.2q-1.547 1.269-3.051 1.827-1.482.559-3.33.559-1.891 0-3.223-.559-1.31-.537-2.127-1.547-.816-1.03-1.16-2.45-.344-1.439-.344-3.157v-9.367zm18.498 5.843q0-2.277.752-4.232a10.4 10.4 0 0 1 2.148-3.395 10.2 10.2 0 0 1 3.309-2.299q1.933-.837 4.254-.837 2.814 0 4.769 1.03 1.956 1.032 3.137 2.708a10.8 10.8 0 0 1 1.719 3.781q.537 2.105.537 4.319v.73h-15.404q0 1.14.515 2.084a5.7 5.7 0 0 0 1.311 1.59 6.4 6.4 0 0 0 1.848 1.01q1.052.343 2.062.343 1.504 0 2.621-.279 1.117-.3 1.891-.666a7.2 7.2 0 0 0 2.084-1.482l2.814 3.18-.73.73q-.58.58-1.719 1.246-1.117.666-2.857 1.181-1.741.538-4.147.538-2.47 0-4.49-.838t-3.459-2.3q-1.44-1.482-2.213-3.544-.752-2.085-.752-4.598m5.178-1.933h10.119q0-.795-.301-1.569-.3-.795-.902-1.44t-1.526-1.052q-.924-.43-2.105-.43-1.268 0-2.256.43-.988.408-1.654 1.053t-1.032 1.44a3.9 3.9 0 0 0-.343 1.568m19.465 12.504V9.496h4.962l.129 2.342q.387-.43.946-.924t1.332-.902a8.3 8.3 0 0 1 1.74-.666q.967-.28 2.191-.28 3.868 0 5.887 2.32 2.041 2.3 2.041 6.21v12.547h-5.199V17.639q0-1.977-1.074-3.051t-2.793-1.074a4.6 4.6 0 0 0-1.977.43 4.6 4.6 0 0 0-1.59 1.16 5.4 5.4 0 0 0-1.052 1.74 6.1 6.1 0 0 0-.366 2.127v11.172zm24.664 0v-6.08h6.295v6.08zM0 48.795h6.08l4.791 21.957 5.693-21.12h5.006l5.715 21.12 4.748-21.957h5.822l-7.712 29.348h-5.801l-5.457-19.4-5.543 19.4H7.627zm40.885 5.457v-5.457h5.543v5.457zm.172 23.89V57.497h5.199v20.647zm10.527 0V57.497h4.963l.129 2.6q.344-.43.902-.946.559-.537 1.31-.966a8.5 8.5 0 0 1 1.74-.774q.99-.323 2.257-.3.752 0 1.332.085.6.087 1.224.301l-1.052 4.898a5 5 0 0 0-1.096-.3 6.7 6.7 0 0 0-1.29-.108q-1.05 0-2.019.366a4.7 4.7 0 0 0-1.675 1.01 5.1 5.1 0 0 0-1.14 1.59q-.407.923-.407 2.062v11.129zm24.75 0V48.796h5.178v29.348zM85.68 67.81q0-2.234.816-4.233a10.8 10.8 0 0 1 2.256-3.502q1.46-1.503 3.502-2.384 2.04-.882 4.512-.881 2.47 0 4.511.88 2.041.882 3.481 2.385a10.6 10.6 0 0 1 2.277 3.48q.816 1.999.817 4.255 0 2.234-.817 4.254a11.1 11.1 0 0 1-2.277 3.523q-1.44 1.503-3.481 2.385-2.04.88-4.511.88t-4.512-.88-3.502-2.385a11.3 11.3 0 0 1-2.256-3.523 11.2 11.2 0 0 1-.816-4.254m4.533-14.18v-4.791h5.07v4.79zm.687 14.18q0 1.139.344 2.277.366 1.14 1.096 2.127a5.7 5.7 0 0 0 1.826 1.568q1.095.58 2.6.58 1.503 0 2.6-.58a5.5 5.5 0 0 0 1.804-1.568 6.9 6.9 0 0 0 1.074-2.127q.365-1.14.365-2.277 0-1.096-.365-2.256a6.3 6.3 0 0 0-1.074-2.127 5.3 5.3 0 0 0-1.826-1.526q-1.096-.6-2.578-.601-1.505 0-2.6.601-1.096.58-1.826 1.526a6.7 6.7 0 0 0-1.096 2.127 8 8 0 0 0-.344 2.256m7.456-14.18v-4.791h5.048v4.79zm12.632 22 3.116-3.373q.966.966 2.427 1.611 1.483.623 3.373.623 1.676 0 2.686-.43 1.01-.45 1.01-1.46 0-.43-.172-.795-.173-.387-.752-.73-.559-.366-1.569-.71-1.01-.365-2.728-.752a18 18 0 0 1-2.213-.709 9 9 0 0 1-2.127-1.203 6.7 6.7 0 0 1-1.633-1.847q-.623-1.096-.623-2.579 0-1.545.731-2.75a6.4 6.4 0 0 1 1.955-2.02 9.7 9.7 0 0 1 2.728-1.245q1.525-.451 3.073-.451 2.728 0 4.64.58 1.913.558 3.459 1.697l-2.685 3.652q-.839-.623-2.213-1.117-1.355-.516-3.201-.516-1.848 0-2.579.56-.73.558-.73 1.331 0 .967 1.203 1.526 1.225.558 3.781 1.16 1.59.343 2.836.88a8 8 0 0 1 2.149 1.332 5.3 5.3 0 0 1 1.375 1.87q.494 1.074.494 2.578t-.709 2.707q-.687 1.203-1.912 2.04-1.203.84-2.815 1.29a12 12 0 0 1-3.416.473q-2.9 0-5.242-.817-2.32-.816-3.717-2.406m21.055-8.057q0-2.277.752-4.232a10.4 10.4 0 0 1 2.148-3.395 10.2 10.2 0 0 1 3.309-2.298q1.933-.839 4.254-.838 2.814 0 4.769 1.03 1.955 1.032 3.137 2.708a10.8 10.8 0 0 1 1.719 3.781q.537 2.105.537 4.319v.73h-15.404q0 1.14.515 2.084a5.7 5.7 0 0 0 1.311 1.59 6.4 6.4 0 0 0 1.848 1.01q1.052.343 2.062.343 1.504 0 2.621-.279 1.117-.3 1.891-.666a7.2 7.2 0 0 0 2.084-1.482l2.814 3.18-.73.73q-.58.58-1.719 1.246-1.117.666-2.857 1.181-1.741.538-4.147.538-2.47 0-4.49-.838t-3.459-2.3q-1.44-1.482-2.213-3.544-.752-2.085-.752-4.598m5.178-1.933h10.119q0-.795-.301-1.569-.3-.795-.902-1.44t-1.526-1.052q-.924-.43-2.105-.43-1.268 0-2.256.43-.988.408-1.654 1.053t-1.032 1.44a3.9 3.9 0 0 0-.343 1.568m19.465 12.504V57.496h4.962l.129 2.342q.387-.43.946-.924t1.332-.902a8.3 8.3 0 0 1 1.74-.666q.967-.28 2.191-.28 3.868 0 5.887 2.32 2.041 2.3 2.041 6.21v12.547h-5.199V65.639q0-1.977-1.074-3.051-1.076-1.074-2.793-1.074a4.6 4.6 0 0 0-1.977.43 4.6 4.6 0 0 0-1.59 1.16 5.4 5.4 0 0 0-1.052 1.74 6.1 6.1 0 0 0-.366 2.127v11.172zm24.664 0v-6.08h6.295v6.08zm-178.707 48V96.795h5.543v11.795h14.566V96.795h5.543v29.348h-5.543V113.51H8.186v12.633zm31.195-8.1v-12.547h5.178V118q0 1.977 1.074 3.072 1.095 1.074 2.814 1.074 1.053 0 1.977-.408a4.6 4.6 0 0 0 1.568-1.181 5.5 5.5 0 0 0 1.032-1.741 5.8 5.8 0 0 0 .386-2.127v-11.193h5.2v20.647h-4.985l-.129-2.342q-.387.429-.967.924a8.7 8.7 0 0 1-1.332.923 7.3 7.3 0 0 1-1.697.666q-.967.258-2.213.258-3.867 0-5.887-2.299-2.02-2.32-2.02-6.23m23.31 5.586 3.116-3.373q.966.967 2.427 1.611 1.483.623 3.373.623 1.677 0 2.686-.429 1.01-.452 1.01-1.461a1.84 1.84 0 0 0-.172-.795q-.172-.387-.752-.731-.559-.365-1.568-.709-1.01-.365-2.729-.752a18 18 0 0 1-2.213-.709 9 9 0 0 1-2.127-1.203 6.7 6.7 0 0 1-1.633-1.847q-.623-1.096-.623-2.579 0-1.547.73-2.75a6.4 6.4 0 0 1 1.956-2.019 9.7 9.7 0 0 1 2.728-1.246 10.8 10.8 0 0 1 3.073-.451q2.729 0 4.64.58 1.912.558 3.46 1.697l-2.686 3.652q-.838-.622-2.213-1.117-1.355-.516-3.201-.516-1.849 0-2.578.559-.73.558-.73 1.332 0 .967 1.202 1.525 1.225.56 3.782 1.161 1.59.343 2.835.88 1.246.538 2.149 1.333a5.3 5.3 0 0 1 1.375 1.869q.494 1.074.494 2.578t-.709 2.707q-.687 1.203-1.912 2.041-1.203.837-2.815 1.289a12 12 0 0 1-3.416.473q-2.9 0-5.242-.817-2.32-.816-3.717-2.406m20.26-13.9v-4.233h3.524v-6.681h5.177v6.681h5.543v4.233H86.11v9.023q0 1.761.602 2.707.601.945 1.912.945 1.224 0 1.955-.343.73-.366 1.397-.838l2.191 3.201q-1.547 1.268-3.05 1.826-1.484.559-3.33.559-1.891 0-3.224-.559-1.31-.537-2.126-1.547-.817-1.031-1.16-2.449-.344-1.44-.344-3.158v-9.367zm18.498 5.843q0-2.277.752-4.232a10.4 10.4 0 0 1 2.149-3.395 10.2 10.2 0 0 1 3.308-2.299q1.933-.837 4.254-.837 2.814 0 4.77 1.031t3.136 2.707a10.8 10.8 0 0 1 1.719 3.781q.537 2.106.537 4.318v.731h-15.404q0 1.139.516 2.084.515.924 1.31 1.59.816.644 1.848 1.01a6.6 6.6 0 0 0 2.062.343q1.505 0 2.621-.279 1.117-.301 1.891-.666.795-.387 1.311-.795t.773-.687l2.814 3.179-.73.731q-.58.58-1.719 1.246-1.117.666-2.857 1.181-1.74.538-4.147.538-2.47 0-4.49-.838t-3.459-2.299q-1.44-1.482-2.213-3.545-.752-2.084-.752-4.598m5.178-1.933h10.119q0-.795-.301-1.569a4.35 4.35 0 0 0-.902-1.439q-.602-.645-1.525-1.053-.924-.43-2.106-.43-1.267 0-2.256.43-.988.408-1.654 1.053-.666.644-1.031 1.439a3.9 3.9 0 0 0-.344 1.569m19.465 12.504v-20.647h4.963l.129 2.342q.386-.43.945-.924t1.332-.902a8.3 8.3 0 0 1 1.74-.666q.967-.28 2.192-.28 3.867 0 5.886 2.321 2.041 2.298 2.041 6.209v12.547h-5.199v-12.504q0-1.977-1.074-3.051t-2.793-1.074q-1.053 0-1.977.429a4.55 4.55 0 0 0-1.589 1.161 5.4 5.4 0 0 0-1.053 1.74 6.1 6.1 0 0 0-.365 2.127v11.172zm29.842 0 11.129-29.348h5.736l11.129 29.348h-6.166l-2.557-7.434h-10.914l-2.535 7.434zm9.904-12.01h7.799l-3.889-11.408zm20.26-2.514q0-3.223 1.095-6.015 1.118-2.815 3.116-4.92 1.998-2.127 4.769-3.352 2.772-1.246 6.123-1.246 2.148 0 3.953.473 1.805.45 3.266 1.246 1.482.795 2.621 1.869a14.8 14.8 0 0 1 2.041 2.32l-3.932 3.459q-1.418-2.02-3.287-3.244-1.846-1.225-4.662-1.225-2.148 0-3.888.86a8.75 8.75 0 0 0-2.922 2.277q-1.203 1.44-1.848 3.352a12.5 12.5 0 0 0-.645 4.017q0 2.106.645 3.953.644 1.848 1.826 3.223a8.7 8.7 0 0 0 2.836 2.148q1.655.795 3.717.795 1.89 0 3.223-.429 1.353-.451 2.298-1.096a9 9 0 0 0 1.59-1.396q.645-.73 1.16-1.268l3.889 3.351q-.666 1.01-1.848 2.084-1.16 1.053-2.75 1.956a16 16 0 0 1-3.459 1.46q-1.89.58-4.017.581-3.309 0-6.037-1.139-2.707-1.161-4.684-3.201t-3.094-4.813q-1.095-2.77-1.095-6.08m29.906 0q0-3.223 1.096-6.015 1.117-2.815 3.115-4.92 1.998-2.127 4.769-3.352 2.772-1.246 6.123-1.246 2.149 0 3.954.473 1.804.45 3.265 1.246 1.482.795 2.621 1.869a14.8 14.8 0 0 1 2.041 2.32l-3.931 3.459q-1.418-2.02-3.287-3.244-1.848-1.225-4.663-1.225-2.148 0-3.888.86a8.75 8.75 0 0 0-2.922 2.277q-1.203 1.44-1.848 3.352a12.5 12.5 0 0 0-.644 4.017q0 2.106.644 3.953.645 1.848 1.826 3.223a8.7 8.7 0 0 0 2.836 2.148q1.655.795 3.717.795 1.891 0 3.223-.429 1.353-.451 2.299-1.096.945-.666 1.589-1.396.645-.73 1.161-1.268l3.888 3.351q-.666 1.01-1.847 2.084-1.16 1.053-2.75 1.956a16 16 0 0 1-3.459 1.46 13.6 13.6 0 0 1-4.018.581q-3.309 0-6.037-1.139-2.707-1.161-4.684-3.201-1.976-2.041-3.093-4.813-1.096-2.77-1.096-6.08m30.959 14.524v-6.081h6.295v6.081z"/></svg>