<svg xmlns="http://www.w3.org/2000/svg" fill="none" viewBox="0 0 110 16"><g clip-path="url(#a)"><path fill="#fff" d="m.29 12.427 1.843-2.045c.868 1.235 1.953 1.806 3.06 1.806 1.014 0 1.62-.536 1.62-1.4 0-.865-.57-1.274-2.118-1.918C2.5 8.006.934 7.026.934 4.723S2.905.595 5.636.595c1.991 0 3.392.737 4.406 1.863l-1.77 2.176C7.7 3.897 6.905 3.419 5.875 3.419c-.85 0-1.455.459-1.455 1.142s.664 1.034 2.269 1.697c2.322.903 3.63 2.045 3.63 4.406 0 2.635-2.064 4.333-4.903 4.333-2.435 0-4.167-1.07-5.124-2.562zm26.3 2.323-.904-2.635h-5.088l-.957 2.635h-3.65L21.686.853h3.078l5.622 13.9h-3.797zm-5.05-5.236h3.244l-.683-1.99a89 89 0 0 1-.884-2.728c-.293.903-.61 1.806-.941 2.708zm37.236 5.236V.853h3.982c4.718 0 8.017 2.323 8.017 6.948 0 4.626-3.245 6.949-7.797 6.949zm3.41-3.006h.738c2.616 0 4.352-1.365 4.352-3.943 0-2.577-1.474-3.854-4.352-3.854h-.737zm14.82-3.962c0-4.109 3.39-7.172 7.484-7.172 4.074 0 7.446 3.04 7.446 7.207s-3.391 7.172-7.504 7.172-7.427-2.894-7.427-7.207m11.411.039c0-2.284-1.678-4.055-3.942-4.055-2.23 0-3.943 1.786-3.943 4.035 0 2.377 1.786 4.036 3.908 4.036 2.268 0 3.981-1.713 3.981-4.02zM109.648.853H98.676v3.025h5.362l-6.527 10.876h11.743v-3.08h-6.084zM46.701 14.75h3.225V.853h-3.225v8.854L40.196.853h-3.298v13.9h3.298V5.9l6.509 8.855z"/></g><defs><clipPath id="a"><rect width="110" height="15.053" fill="#fff" transform="translate(0 .305)"/></clipPath></defs></svg>