<svg xmlns="http://www.w3.org/2000/svg" fill="none" viewBox="0 0 116 41"><path fill="#fff" d="M1.218.846h2.751v5.67h2.877V.846h2.751V15H6.846V9.078H3.969V15H1.218zm15.596 10.92h-2.541L13.643 15h-2.667L14.042.846h3.297L20.089 15h-2.666zm-2.268-2.142h2.016L16.1 6.663c-.147-.861-.336-2.268-.462-3.213h-.063c-.147.945-.357 2.415-.504 3.234zm6.927-6.006-.462-2.121c.609-.42 1.785-.819 3.129-.819 2.688 0 3.948 1.638 3.948 3.486 0 1.449-.966 2.856-2.394 3.213v.042c1.659.336 2.814 1.596 2.814 3.549 0 2.709-2.31 4.2-4.851 4.2-1.176 0-2.205-.273-2.856-.63l.399-2.247c.609.357 1.407.567 2.184.567 1.47 0 2.247-.84 2.247-1.974 0-1.575-1.302-2.205-2.793-2.205h-.4V6.6h.274c1.26 0 2.52-.609 2.52-1.911 0-.987-.61-1.659-1.785-1.659-.651 0-1.428.273-1.974.588M30.175.846h2.751v5.67h2.877V.846h2.751V15h-2.751V9.078h-2.877V15h-2.751zm15.596 10.92H43.23L42.6 15h-2.667L42.999.846h3.297L49.046 15H46.38zm-2.268-2.142h2.016l-.462-2.961c-.147-.861-.336-2.268-.462-3.213h-.063c-.147.945-.357 2.415-.504 3.234zM50.496.846h2.709V5.55c0 1.155.44 1.974 1.554 1.974.399 0 .86-.126 1.134-.294V.846h2.709V15h-2.71V9.351h-.062c-.651.294-1.281.483-2.016.483-2.436 0-3.318-1.638-3.318-3.969zm10.543 0h2.436v3.129c0 2.604-.168 5.04-.273 6.51h.042c.4-1.218 1.113-3.066 1.533-4.158l2.08-5.481h2.498V15H66.94v-3.192c0-2.835.105-4.935.168-6.363h-.042c-.315 1.281-.945 2.982-1.407 4.158L63.58 15h-2.54zm11.313 0h7.37V15h-2.75V3.24h-2.1v3.738c0 3.255-.21 6.111-1.995 7.497-.525.42-1.197.693-1.89.693l-.588-2.331c.336-.084.693-.252.945-.504.819-.84 1.008-2.352 1.008-5.103zm9.81 0h2.436v3.129c0 2.604-.168 5.04-.273 6.51h.042c.4-1.218 1.113-3.066 1.533-4.158L87.98.846h2.498V15h-2.415v-3.192c0-2.835.105-4.935.168-6.363h-.042c-.315 1.281-.945 2.982-1.407 4.158L84.703 15h-2.54zM6.006 36.766H3.465L2.835 40H.168l3.066-14.154h3.297L9.282 40H6.615zm-2.268-2.142h2.016l-.462-2.961c-.147-.861-.336-2.268-.462-3.213h-.063c-.147.945-.357 2.415-.504 3.234zm7.098-8.778h2.751v5.67h2.877v-5.67h2.751V40h-2.75v-5.922h-2.878V40h-2.75zM23.176 40V28.387h-2.498v-2.541h7.77v2.541h-2.52V40zm6.712-14.154h2.436v3.129c0 2.604-.168 5.04-.273 6.51h.042c.399-1.218 1.113-3.066 1.533-4.158l2.079-5.481h2.499V40h-2.415v-3.192c0-2.835.105-4.935.168-6.363h-.042c-.315 1.281-.945 2.982-1.407 4.158L32.428 40h-2.54zm10.766 0h7.224v2.352h-4.493v2.961a5 5 0 0 1 1.113-.105c1.218 0 2.288.378 3.066 1.05.84.735 1.343 1.848 1.343 3.276 0 1.365-.42 2.457-1.175 3.213-.966 1.029-2.478 1.512-4.515 1.512-1.05 0-1.932-.063-2.562-.147zm2.752 7.476v4.536c.188.042.377.042.608.042.651 0 1.176-.252 1.512-.672.357-.42.525-1.008.525-1.638 0-.651-.189-1.239-.546-1.638a1.9 1.9 0 0 0-1.47-.693 3 3 0 0 0-.63.063m7.154-7.476h2.436v3.129c0 2.604-.168 5.04-.273 6.51h.042c.399-1.218 1.113-3.066 1.533-4.158l2.079-5.481h2.499V40H56.46v-3.192c0-2.835.105-4.935.168-6.363h-.042c-.315 1.281-.945 2.982-1.407 4.158L53.1 40h-2.54zm14.735-.168c3.423 0 4.39 3.759 4.39 6.993 0 5.334-1.89 7.497-4.579 7.497-3.213 0-4.473-3.402-4.473-7.287 0-3.864 1.533-7.203 4.662-7.203m-.105 2.394c-1.092 0-1.7 1.806-1.7 4.851 0 3.213.608 4.851 1.721 4.851 1.155 0 1.596-2.1 1.596-4.977 0-2.478-.378-4.725-1.617-4.725M72.683 40V28.387h-2.5v-2.541h7.77v2.541h-2.52V40zm6.71-14.154h2.437v3.129c0 2.604-.168 5.04-.273 6.51h.042c.399-1.218 1.113-3.066 1.533-4.158l2.079-5.481h2.499V40h-2.415v-3.192c0-2.835.105-4.935.168-6.363h-.042c-.315 1.281-.945 2.982-1.407 4.158L81.934 40h-2.54zm10.767 0h2.688v6.153h.21l2.31-6.153h3.024l-3.255 6.552c1.45.546 1.932 1.869 2.331 3.591.315 1.365.546 2.709.966 4.011h-2.75c-.337-1.008-.547-2.163-.778-3.276-.336-1.659-.714-2.73-1.848-2.73h-.21V40H90.16zm9.537 0h2.436v3.129c0 2.604-.168 5.04-.273 6.51h.042c.399-1.218 1.113-3.066 1.533-4.158l2.079-5.481h2.499V40h-2.415v-3.192c0-2.835.105-4.935.168-6.363h-.042c-.315 1.281-.945 2.982-1.407 4.158L102.238 40h-2.541zm13.727 9.786h-2.331l-.042-.378c-.147-1.239.336-2.352 1.113-3.57.609-.903.903-1.533.903-2.331 0-.777-.525-1.302-1.386-1.302-.462 0-.945.084-1.344.378l-.462-2.121c.441-.294 1.428-.63 2.457-.63 2.772 0 3.549 1.827 3.549 3.234 0 1.449-.819 2.625-1.554 3.696-.567.861-.924 1.596-.903 2.583zm-1.134 4.536c-.903 0-1.575-.714-1.575-1.68 0-1.029.735-1.701 1.554-1.722.903 0 1.575.693 1.575 1.722 0 .966-.588 1.68-1.554 1.68"/></svg>