<svg xmlns="http://www.w3.org/2000/svg" fill="none" viewBox="0 0 120 105"><path fill="#fff" d="M.127 0H3.72l2.83 12.975L9.916.495h2.958l3.377 12.48L19.056 0h3.44L17.94 17.342H14.51L11.286 5.878 8.011 17.342H4.634zM23.69 11.096q0-1.346.444-2.501a6.1 6.1 0 0 1 1.27-2.006 6 6 0 0 1 1.954-1.359q1.143-.495 2.514-.495 1.663 0 2.818.61t1.854 1.6q.71.99 1.016 2.234.317 1.245.317 2.551v.432h-9.103q0 .674.305 1.232.305.546.774.939.483.381 1.092.597.622.203 1.22.203.887 0 1.548-.165.66-.178 1.117-.394a4.2 4.2 0 0 0 1.232-.876l1.663 1.88-.432.43q-.342.345-1.016.737-.66.393-1.688.698-1.029.318-2.45.318-1.46 0-2.654-.495a6.1 6.1 0 0 1-2.044-1.359 6 6 0 0 1-1.307-2.094q-.444-1.232-.445-2.717m3.059-1.143h5.98q0-.47-.178-.927a2.6 2.6 0 0 0-.533-.85 2.7 2.7 0 0 0-.902-.622 2.9 2.9 0 0 0-1.244-.254q-.75 0-1.333.254-.584.24-.978.622a2.8 2.8 0 0 0-.609.85 2.3 2.3 0 0 0-.203.927m11.502 7.389v-12.2h2.933l.076 1.383q.228-.253.558-.546.33-.291.788-.533.456-.24 1.028-.393.57-.165 1.295-.165 2.285 0 3.478 1.37 1.206 1.36 1.206 3.67v7.414h-3.072V9.953q0-1.168-.635-1.803-.635-.634-1.65-.634-.622 0-1.168.254-.546.24-.94.685-.394.432-.622 1.028-.216.585-.216 1.257v6.602zm14.32 0v-12.2h2.933l.076 1.383q.228-.253.559-.546.33-.291.787-.533.456-.24 1.028-.393.572-.165 1.295-.165 2.285 0 3.478 1.37 1.207 1.36 1.207 3.67v7.414H60.86V9.953q0-1.168-.634-1.803-.636-.634-1.65-.634-.623 0-1.169.254-.546.24-.94.685-.393.432-.621 1.028-.216.585-.216 1.257v6.602zm18.447-5.878q0-1.435.406-2.501.42-1.08 1.04-1.84a5.5 5.5 0 0 1 1.143-1.042q.636-.42 1.27-.685a5.8 5.8 0 0 1 1.231-.394 5.6 5.6 0 0 1 1.041-.114q.597 0 .99.038.394.038.699.101.318.064.571.178l.597.229V0h3.047v17.342h-2.971l-.076-1.194q-.23.255-.571.546-.33.28-.788.52-.457.23-1.015.382-.559.165-1.257.165-.99 0-1.955-.42a5.3 5.3 0 0 1-1.727-1.218q-.749-.813-1.218-1.98-.457-1.169-.457-2.68m3.085 0q0 1.56.774 2.602.787 1.041 2.272 1.041.775 0 1.32-.292.56-.304.89-.774.342-.47.495-1.028.152-.559.152-1.08V8.189a2.5 2.5 0 0 0-1.028-.507q-.585-.14-1.486-.14-.915 0-1.51.355a3.6 3.6 0 0 0-1.042.915q-.394.52-.622 1.218a4.8 4.8 0 0 0-.215 1.435m11.387-.368q0-1.346.445-2.501a6.1 6.1 0 0 1 1.27-2.006 6 6 0 0 1 1.954-1.359q1.143-.495 2.514-.495 1.663 0 2.818.61t1.854 1.6q.71.99 1.015 2.234.318 1.245.318 2.551v.432h-9.103q0 .674.305 1.232.304.546.774.939.483.381 1.092.597.622.203 1.219.203.888 0 1.549-.165.66-.178 1.117-.394a4.2 4.2 0 0 0 1.231-.876l1.663 1.88-.431.43q-.343.345-1.016.737-.66.393-1.688.698-1.03.318-2.45.318-1.46 0-2.654-.495a6.1 6.1 0 0 1-2.044-1.359 6 6 0 0 1-1.307-2.094q-.445-1.232-.445-2.717m3.06-1.143h5.98q0-.47-.178-.927a2.6 2.6 0 0 0-.534-.85 2.7 2.7 0 0 0-.901-.622 2.9 2.9 0 0 0-1.244-.254q-.75 0-1.333.254-.584.24-.978.622a2.8 2.8 0 0 0-.61.85 2.3 2.3 0 0 0-.202.927m11.527-6.728V0h3.276v3.225zm.102 14.117v-12.2h3.072v12.2zm6.22 0v-12.2h2.933l.076 1.383q.23-.253.559-.546.33-.291.787-.533.457-.24 1.028-.393.572-.165 1.295-.165 2.285 0 3.479 1.37 1.206 1.36 1.206 3.67v7.414h-3.073V9.953q0-1.168-.634-1.803-.635-.634-1.651-.634-.622 0-1.168.254a2.7 2.7 0 0 0-.939.685q-.393.432-.622 1.028-.216.585-.216 1.257v6.602zm-104.71 29V29h3.3l8.405 12.327V29h3.199v17.342h-3.225l-8.48-12.48v12.48zm17.443-3.568q0-1.04.393-1.853a3.9 3.9 0 0 1 1.092-1.384q.698-.559 1.689-.838a7.7 7.7 0 0 1 2.183-.292 29 29 0 0 1 1.663.051q.47.025.965.064v-.292q0-.915-.736-1.435-.724-.52-1.892-.52-1.294 0-2.082.342-.774.343-1.37.724l-1.41-2.07q.368-.253.838-.533a6 6 0 0 1 1.092-.495 8 8 0 0 1 1.434-.368q.826-.14 1.917-.14 1.169 0 2.12.33a4.7 4.7 0 0 1 1.625.902q.674.584 1.041 1.409.369.813.369 1.777v8.189h-2.87l-.076-1.143q-.495.597-1.51 1.067t-2.26.47q-.75 0-1.498-.242-.737-.229-1.346-.71a3.7 3.7 0 0 1-.99-1.232q-.381-.761-.381-1.778m2.945-.127q0 .775.559 1.22.558.443 1.65.444.546 0 1.054-.178t.889-.495q.394-.318.634-.724.255-.419.254-.889v-1.193l-.914-.05q-.367-.026-.774-.039a21 21 0 0 0-.673-.013q-1.485 0-2.082.585-.597.583-.597 1.333m9.56-8.505h3.542l3.275 8.747 3.276-8.747h3.351l-5.142 12.2h-3.123zm15.12-1.917V29h3.275v3.225zm.101 14.117v-12.2h3.073v12.2zm10.347-5.878q0-1.434.406-2.501.42-1.08 1.041-1.84a5.5 5.5 0 0 1 1.143-1.042q.634-.42 1.27-.686a5.7 5.7 0 0 1 1.23-.393 5.6 5.6 0 0 1 1.042-.114q.597 0 .99.038.394.038.698.101.317.064.572.178l.596.229V29h3.047v17.342h-2.97l-.077-1.194q-.228.255-.57.546-.331.28-.788.52-.457.23-1.016.382-.558.165-1.257.165-.99 0-1.955-.42a5.3 5.3 0 0 1-1.726-1.218q-.75-.813-1.219-1.98-.457-1.169-.457-2.68m3.085 0q0 1.56.775 2.602.787 1.041 2.272 1.041.774 0 1.32-.292.56-.304.889-.774.342-.47.495-1.028.153-.559.152-1.08v-3.745a2.5 2.5 0 0 0-1.028-.507q-.584-.14-1.485-.14-.915 0-1.511.356a3.6 3.6 0 0 0-1.041.913q-.394.521-.622 1.22a4.8 4.8 0 0 0-.216 1.434m11.984-8.24V29h3.276v3.225zm.102 14.118v-12.2h3.072v12.2zm5.65-6.107q0-1.32.482-2.5a6.4 6.4 0 0 1 1.333-2.07 6.4 6.4 0 0 1 2.07-1.41q1.205-.52 2.665-.52 1.486 0 2.704.534a6.4 6.4 0 0 1 2.082 1.434l-1.955 1.98a3.7 3.7 0 0 0-1.218-.926q-.698-.343-1.613-.343-.888 0-1.536.33-.647.318-1.08.838a3.5 3.5 0 0 0-.646 1.219 5.1 5.1 0 0 0-.204 1.434q0 .699.204 1.384.215.673.647 1.219t1.079.889q.648.33 1.536.33a3.83 3.83 0 0 0 2.933-1.308l1.828 1.98a6.6 6.6 0 0 1-2.031 1.46q-1.168.546-2.73.546-1.56 0-2.793-.47-1.219-.469-2.056-1.32a5.9 5.9 0 0 1-1.27-2.056q-.432-1.206-.432-2.654m13.368 6.107V29h3.008v6.398q.47-.52 1.371-1.015.902-.495 2.298-.495 1.118 0 1.993.368.89.356 1.473 1.028.597.66.901 1.6.318.927.318 2.044v7.414h-3.072v-7.389q0-1.169-.635-1.803t-1.65-.634q-.623 0-1.168.254-.546.24-.94.685-.394.431-.622 1.028a3.6 3.6 0 0 0-.216 1.257v6.602zm-90.01 29v-12.2h2.932l.077 1.383a7 7 0 0 1 .558-.546q.33-.291.787-.533.457-.24 1.029-.393.57-.165 1.295-.165 2.285 0 3.478 1.37 1.206 1.36 1.206 3.67v7.414H9.674v-7.389q0-1.168-.635-1.803-.635-.634-1.65-.634-.622 0-1.168.253-.546.242-.94.686-.394.431-.622 1.028-.216.585-.216 1.257v6.602zM15.73 61.225V58h3.275v3.225zm.101 14.117v-12.2h3.072v12.2zm5.65-6.107q0-1.32.482-2.5a6.4 6.4 0 0 1 1.333-2.07 6.4 6.4 0 0 1 2.07-1.41q1.205-.52 2.665-.52 1.486 0 2.704.534a6.4 6.4 0 0 1 2.082 1.434l-1.955 1.98a3.7 3.7 0 0 0-1.218-.926q-.699-.343-1.613-.343-.888 0-1.536.33-.647.318-1.079.838a3.5 3.5 0 0 0-.647 1.219 5.1 5.1 0 0 0-.204 1.434q0 .699.204 1.384.215.673.647 1.219t1.08.889q.646.33 1.535.33a3.83 3.83 0 0 0 2.933-1.308l1.828 1.98a6.6 6.6 0 0 1-2.031 1.46q-1.168.546-2.73.546-1.56 0-2.793-.47-1.218-.469-2.056-1.32a5.9 5.9 0 0 1-1.27-2.056q-.431-1.206-.431-2.654m13.368 6.107V58h3.008v6.398q.47-.52 1.371-1.015t2.298-.495q1.118 0 1.993.368.89.356 1.473 1.028.597.66.902 1.6.317.927.317 2.044v7.414h-3.072v-7.389q0-1.168-.635-1.803-.635-.634-1.65-.634-.622 0-1.169.253-.545.242-.939.686-.394.431-.622 1.028-.216.585-.216 1.257v6.602zm13.279-9.7v-2.5h2.082v-3.949h3.06v3.949h3.275v2.5h-3.276v5.333q0 1.04.356 1.6.356.558 1.13.558.723 0 1.155-.203.432-.217.825-.495l1.295 1.891q-.914.75-1.803 1.08-.876.33-1.967.33-1.118 0-1.904-.33a3.1 3.1 0 0 1-1.257-.915 3.7 3.7 0 0 1-.686-1.447 8 8 0 0 1-.203-1.866v-5.535zM0 92.143h3.542l3.275 8.747 3.276-8.747h3.351l-5.141 12.2H5.18zm14.523 5.954q0-1.346.445-2.501a6.1 6.1 0 0 1 1.27-2.006 6 6 0 0 1 1.954-1.358q1.143-.496 2.514-.496 1.663 0 2.818.61t1.854 1.6q.71.99 1.016 2.234.317 1.245.317 2.552v.431h-9.103q0 .673.305 1.232.304.545.774.939.483.381 1.092.597.622.203 1.219.203.888 0 1.549-.165.66-.178 1.117-.394a4.2 4.2 0 0 0 1.231-.876l1.664 1.879-.432.432q-.343.343-1.016.736-.66.393-1.688.698-1.028.318-2.45.318-1.46 0-2.654-.495a6.1 6.1 0 0 1-2.044-1.359 6 6 0 0 1-1.307-2.095q-.445-1.23-.445-2.716m3.06-1.143h5.98q0-.47-.178-.927a2.6 2.6 0 0 0-.533-.85 2.7 2.7 0 0 0-.902-.622 2.9 2.9 0 0 0-1.244-.254q-.75 0-1.333.254-.584.24-.978.622a2.8 2.8 0 0 0-.609.85 2.3 2.3 0 0 0-.203.927m11.502 7.389v-12.2h2.933l.076 1.536q.203-.255.533-.559.33-.317.774-.571.446-.267 1.029-.457a4 4 0 0 1 1.333-.178q.444 0 .787.05.355.052.723.179l-.622 2.894a3 3 0 0 0-.647-.178 4 4 0 0 0-.762-.063 3.4 3.4 0 0 0-1.193.216q-.572.203-.99.596-.42.394-.673.94-.242.546-.242 1.219v6.576zm9.331-1.486 1.84-1.993q.573.572 1.435.952.876.369 1.994.369.99 0 1.587-.254.596-.267.596-.864 0-.253-.101-.469-.102-.23-.445-.432-.33-.216-.927-.419a14 14 0 0 0-1.612-.444 11 11 0 0 1-1.307-.42 5.3 5.3 0 0 1-1.257-.71 4 4 0 0 1-.965-1.092q-.368-.648-.368-1.523 0-.914.431-1.625.445-.724 1.156-1.194a5.7 5.7 0 0 1 1.612-.736 6.4 6.4 0 0 1 1.815-.267q1.613 0 2.743.343 1.13.33 2.044 1.003L47.1 95.24q-.495-.368-1.308-.66-.8-.305-1.892-.305-1.09 0-1.523.33t-.432.788q0 .57.711.901.724.33 2.235.685a9 9 0 0 1 1.675.521q.736.318 1.27.787.533.47.812 1.105.292.635.292 1.523 0 .89-.418 1.6-.407.711-1.13 1.206a5.4 5.4 0 0 1-1.664.761 7.1 7.1 0 0 1-2.018.28q-1.714 0-3.098-.483-1.371-.481-2.196-1.422m11.972-8.213v-2.501h2.082v-3.949h3.06v3.949h3.275v2.5h-3.276v5.333q0 1.041.356 1.599.355.56 1.13.559.723 0 1.155-.203.432-.216.825-.495l1.295 1.891q-.914.75-1.803 1.079-.876.33-1.968.33-1.116 0-1.904-.33a3.1 3.1 0 0 1-1.257-.914 3.7 3.7 0 0 1-.685-1.447 8 8 0 0 1-.203-1.866v-5.535zm10.93 3.453q0-1.346.445-2.501a6.1 6.1 0 0 1 1.27-2.006 6 6 0 0 1 1.954-1.358q1.143-.496 2.514-.496 1.663 0 2.818.61t1.854 1.6q.71.99 1.016 2.234.317 1.245.317 2.552v.431h-9.103q0 .673.305 1.232.305.545.774.939a3.8 3.8 0 0 0 1.092.597q.622.203 1.219.203.888 0 1.549-.165.66-.178 1.117-.394a4.2 4.2 0 0 0 1.231-.876l1.663 1.879-.431.432q-.343.343-1.016.736-.66.393-1.688.698-1.028.318-2.45.318-1.46 0-2.654-.495a6.1 6.1 0 0 1-2.044-1.359 6 6 0 0 1-1.307-2.095q-.444-1.23-.445-2.716m3.06-1.143h5.98q0-.47-.178-.927a2.6 2.6 0 0 0-.534-.85 2.7 2.7 0 0 0-.9-.622A2.9 2.9 0 0 0 67.5 94.3q-.75 0-1.333.254-.584.24-.978.622a2.8 2.8 0 0 0-.609.85 2.3 2.3 0 0 0-.203.927m11.502 7.389V87h3.009v6.398q.47-.52 1.37-1.015.903-.495 2.299-.495 1.117 0 1.993.368.888.356 1.472 1.028.597.66.902 1.6.317.927.317 2.044v7.414H84.17v-7.389q0-1.168-.635-1.803-.635-.634-1.65-.634-.622 0-1.168.253-.546.242-.94.686-.394.431-.622 1.028-.216.585-.216 1.257v6.602zm13.28-9.7v-2.5h2.081v-3.949h3.06v3.949h3.275v2.5h-3.275v5.333q0 1.041.355 1.599.356.56 1.13.559.725 0 1.155-.203.432-.216.826-.495l1.294 1.891q-.914.75-1.802 1.079-.876.33-1.968.33-1.118 0-1.904-.33a3.1 3.1 0 0 1-1.257-.914 3.7 3.7 0 0 1-.686-1.447 8 8 0 0 1-.203-1.866v-5.535zm11.755 9.7v-3.593h3.72v3.593zm7.262 0v-3.593h3.719v3.593zm7.261 0v-3.593h3.72v3.593z"/></svg>