<svg xmlns="http://www.w3.org/2000/svg" fill="none" viewBox="0 0 108 95"><path fill="#fff" d="m3.89 17.73.528-5.062h3.246l-1.629 5.063zm4.63 0 .527-5.062h3.246l-1.629 5.063zm6.808-1.722V0h10.348v2.66h-7.324v4.16h5.472v2.684h-5.472v6.504zM27.891 2.977V0h3.023v2.977zm.093 13.03V4.748h2.836v11.26zm5.743 0V4.748h2.707l.07 1.276q.21-.234.516-.503.305-.27.726-.493.422-.223.95-.363a4.3 4.3 0 0 1 1.195-.152q2.109 0 3.21 1.265 1.114 1.254 1.114 3.387v6.844h-2.836v-6.82q0-1.08-.586-1.665-.585-.585-1.523-.585-.575 0-1.079.234-.504.223-.867.633a3 3 0 0 0-.574.949q-.2.54-.2 1.16v6.094zm12.691-5.425q0-1.324.375-2.309.387-.996.96-1.699.481-.575 1.056-.96.585-.388 1.172-.634.585-.257 1.136-.363a5 5 0 0 1 .961-.105q.55 0 .914.035.363.035.645.094.292.058.527.164l.55.21V0h2.813v16.008h-2.742l-.07-1.102q-.21.234-.528.504a4 4 0 0 1-.726.48q-.422.211-.938.352a4 4 0 0 1-1.16.152q-.914 0-1.804-.386a4.9 4.9 0 0 1-1.594-1.125q-.692-.75-1.125-1.828-.422-1.079-.422-2.473m2.848 0q0 1.442.715 2.402.726.961 2.097.961.715 0 1.219-.27.516-.28.82-.714.317-.434.457-.95.14-.515.14-.995V7.559a2.3 2.3 0 0 0-.948-.47q-.54-.128-1.371-.128-.845 0-1.395.328-.55.316-.96.844-.364.48-.575 1.125-.2.633-.2 1.324m10.511-.34q0-1.242.41-2.308a5.7 5.7 0 0 1 1.172-1.852 5.55 5.55 0 0 1 1.805-1.254q1.055-.457 2.32-.457 1.536 0 2.602.563a4.8 4.8 0 0 1 1.71 1.476q.657.914.938 2.063.293 1.148.293 2.355v.399h-8.402q0 .621.281 1.136.282.504.715.867.445.352 1.008.551.574.188 1.125.188.82 0 1.43-.153.61-.164 1.03-.363a3.9 3.9 0 0 0 1.138-.808l1.535 1.734-.399.398q-.316.317-.937.68-.61.363-1.559.645-.949.293-2.261.293-1.348 0-2.45-.457a5.7 5.7 0 0 1-1.886-1.254 5.5 5.5 0 0 1-1.208-1.934q-.41-1.137-.41-2.508m2.825-1.055h5.52q0-.433-.165-.855-.164-.433-.492-.785a2.5 2.5 0 0 0-.832-.574 2.7 2.7 0 0 0-1.149-.235q-.69 0-1.23.235-.54.222-.902.574-.364.351-.563.785-.187.434-.187.855m14.425 1.395q0-1.324.375-2.309.387-.996.961-1.699.48-.575 1.055-.96.585-.388 1.172-.634a5.3 5.3 0 0 1 1.137-.363 5 5 0 0 1 .96-.105q.551 0 .915.035.363.035.644.094.293.058.527.164l.551.21V0h2.813v16.008h-2.743l-.07-1.102q-.21.234-.527.504a4 4 0 0 1-.727.48q-.42.211-.937.352a4 4 0 0 1-1.16.152q-.915 0-1.805-.386a4.9 4.9 0 0 1-1.594-1.125q-.69-.75-1.125-1.828-.422-1.079-.422-2.473m2.848 0q0 1.442.715 2.402.726.961 2.097.961.715 0 1.22-.27.514-.28.82-.714.315-.434.457-.95.14-.515.14-.995V7.559a2.3 2.3 0 0 0-.949-.47q-.54-.128-1.371-.128-.844 0-1.395.328-.55.316-.96.844-.364.48-.575 1.125-.2.633-.199 1.324m11.063-7.605V0h3.023v2.977zm.093 13.03V4.748h2.836v11.26zm5.215-5.765q0-1.242.41-2.308a5.7 5.7 0 0 1 1.172-1.852 5.55 5.55 0 0 1 1.805-1.254q1.054-.457 2.32-.457 1.536 0 2.602.563a4.8 4.8 0 0 1 1.711 1.476q.656.914.937 2.063.293 1.148.293 2.355v.399h-8.402q0 .621.281 1.136.282.504.715.867a3.5 3.5 0 0 0 1.008.551q.573.188 1.125.188a6 6 0 0 0 1.429-.153q.61-.164 1.032-.363a3.9 3.9 0 0 0 1.136-.808l1.535 1.734-.398.398q-.316.317-.937.68-.61.363-1.559.645-.95.293-2.262.293-1.347 0-2.449-.457a5.7 5.7 0 0 1-1.887-1.254 5.5 5.5 0 0 1-1.207-1.934q-.41-1.137-.41-2.508m2.824-1.055h5.52q0-.433-.164-.855-.165-.433-.492-.785a2.5 2.5 0 0 0-.832-.574 2.7 2.7 0 0 0-1.149-.235q-.691 0-1.23.235-.54.222-.903.574-.364.351-.562.785-.188.434-.188.855M0 40.638l1.7-1.84q.526.527 1.323.879.81.34 1.84.34.915 0 1.465-.235.55-.246.55-.797 0-.234-.093-.433-.094-.21-.41-.399-.304-.199-.855-.386-.552-.2-1.489-.41a10 10 0 0 1-1.207-.387 4.9 4.9 0 0 1-1.16-.657 3.7 3.7 0 0 1-.89-1.007q-.34-.598-.34-1.407 0-.843.398-1.5a3.5 3.5 0 0 1 1.066-1.101 5.3 5.3 0 0 1 1.489-.68 5.9 5.9 0 0 1 1.676-.246q1.488 0 2.53.317a6 6 0 0 1 1.887.925l-1.464 1.992q-.457-.34-1.207-.609-.74-.28-1.747-.281-1.007 0-1.406.304-.398.306-.398.727 0 .528.656.832.668.304 2.063.633a8.4 8.4 0 0 1 1.546.48q.68.294 1.172.727.492.434.75 1.02.27.585.27 1.406 0 .82-.387 1.476-.375.657-1.043 1.114-.657.457-1.535.703a6.6 6.6 0 0 1-1.863.258q-1.582 0-2.86-.446Q.762 41.504 0 40.637m11.484-4.266q0-1.218.446-2.309a5.9 5.9 0 0 1 1.23-1.91 5.9 5.9 0 0 1 1.91-1.3q1.114-.48 2.461-.48 1.371 0 2.496.491a5.9 5.9 0 0 1 1.922 1.325l-1.805 1.828a3.4 3.4 0 0 0-1.124-.856q-.645-.316-1.489-.316-.82 0-1.418.304-.597.294-.996.774-.398.48-.598 1.125-.187.645-.187 1.324 0 .645.188 1.277.199.622.597 1.125a3.1 3.1 0 0 0 .996.82q.598.306 1.418.305a3.53 3.53 0 0 0 2.707-1.207l1.688 1.828a6.1 6.1 0 0 1-1.875 1.348q-1.079.504-2.52.504-1.44 0-2.578-.434a5.3 5.3 0 0 1-1.898-1.218 5.5 5.5 0 0 1-1.172-1.899q-.399-1.113-.399-2.449m12.34 5.637V26h2.778v5.906q.433-.48 1.265-.937t2.121-.457q1.032 0 1.84.34.82.327 1.36.949.55.609.831 1.476.294.856.294 1.887v6.844h-2.836v-6.82q0-1.08-.586-1.665-.587-.585-1.524-.586-.574 0-1.078.235-.504.223-.867.633a3 3 0 0 0-.574.949q-.2.54-.2 1.16v6.094zm13.219 0V30.746h2.707l.07 1.277q.21-.234.516-.504.304-.27.727-.492.42-.223.949-.363.527-.153 1.195-.152 2.11 0 3.211 1.265 1.113 1.254 1.113 3.387v6.844h-2.836v-6.82q0-1.08-.586-1.665-.585-.585-1.523-.586-.574 0-1.078.235-.504.223-.867.633a3 3 0 0 0-.575.949q-.198.54-.199 1.16v6.094zm12.691-5.766q0-1.242.41-2.308a5.7 5.7 0 0 1 1.172-1.852 5.55 5.55 0 0 1 1.805-1.254q1.055-.457 2.32-.457 1.536 0 2.602.563a4.8 4.8 0 0 1 1.71 1.476q.657.914.938 2.063.293 1.147.293 2.355v.399h-8.402q0 .621.281 1.136.282.504.715.867.446.352 1.008.551.574.188 1.125.188.82 0 1.43-.153.61-.163 1.03-.363a3.9 3.9 0 0 0 1.138-.809l1.535 1.735-.399.398q-.316.317-.937.68-.61.363-1.559.645-.949.293-2.261.293-1.348 0-2.45-.458a5.7 5.7 0 0 1-1.886-1.253 5.5 5.5 0 0 1-1.207-1.934q-.41-1.137-.41-2.508m2.825-1.054h5.52q0-.435-.165-.856a2.4 2.4 0 0 0-.492-.785 2.5 2.5 0 0 0-.832-.574 2.7 2.7 0 0 0-1.149-.235q-.69 0-1.23.235-.54.223-.902.574-.364.351-.563.785-.187.434-.187.855m10.617 6.82V26H66v16.008zm5.625 0V26h2.824v16.008zm5.074-1.371 1.7-1.84q.526.527 1.323.879.81.34 1.84.34.915 0 1.465-.235.55-.246.55-.797 0-.234-.093-.433-.094-.21-.41-.399-.304-.199-.856-.386a13 13 0 0 0-1.488-.41 10 10 0 0 1-1.207-.387 4.9 4.9 0 0 1-1.16-.657 3.7 3.7 0 0 1-.89-1.007q-.34-.598-.34-1.407 0-.843.398-1.5a3.5 3.5 0 0 1 1.066-1.101 5.3 5.3 0 0 1 1.489-.68 5.9 5.9 0 0 1 1.675-.246q1.489 0 2.532.317a6 6 0 0 1 1.887.925l-1.465 1.992q-.457-.34-1.207-.609-.74-.28-1.746-.281-1.008 0-1.407.304-.398.306-.398.727 0 .528.656.832.668.304 2.063.633a8.4 8.4 0 0 1 1.546.48q.68.294 1.172.727.492.434.75 1.02.27.585.27 1.406 0 .82-.387 1.476-.374.657-1.043 1.114a5 5 0 0 1-1.535.703 6.6 6.6 0 0 1-1.863.258q-1.582 0-2.86-.446-1.266-.445-2.027-1.312m11.05-7.582v-2.309h1.923v-3.644h2.824v3.644h3.023v2.309h-3.023v4.922q0 .96.328 1.476t1.043.516q.667 0 1.066-.188a6 6 0 0 0 .762-.457l1.195 1.746q-.843.691-1.664.996-.808.305-1.816.305-1.031 0-1.758-.305a2.85 2.85 0 0 1-1.16-.843 3.4 3.4 0 0 1-.633-1.336 7.4 7.4 0 0 1-.187-1.723v-5.11zm10.09 3.187q0-1.242.41-2.308a5.7 5.7 0 0 1 1.173-1.852 5.55 5.55 0 0 1 1.804-1.254q1.055-.457 2.321-.457 1.534 0 2.601.563a4.8 4.8 0 0 1 1.711 1.476q.656.914.938 2.063.293 1.147.293 2.355v.399h-8.403q0 .621.281 1.136.282.504.715.867.446.352 1.008.551.574.188 1.125.188a6 6 0 0 0 1.43-.153q.61-.163 1.031-.363a3.9 3.9 0 0 0 1.137-.809l1.535 1.735-.398.398q-.317.317-.938.68-.61.363-1.559.645-.948.293-2.261.293-1.348 0-2.45-.458a5.7 5.7 0 0 1-1.886-1.253 5.5 5.5 0 0 1-1.207-1.934q-.41-1.137-.41-2.508m2.825-1.054h5.519q0-.435-.164-.856a2.4 2.4 0 0 0-.492-.785 2.5 2.5 0 0 0-.832-.574 2.7 2.7 0 0 0-1.148-.235 3.1 3.1 0 0 0-1.23.235q-.54.223-.903.574a2.6 2.6 0 0 0-.563.785q-.187.434-.187.855m-72.727 32.82V52h5.309q1.512 0 2.566.457 1.055.457 1.7 1.172.655.703.949 1.547a4.7 4.7 0 0 1 .304 1.605q0 1.512-.668 2.672-.656 1.161-2.015 1.863l3.691 6.692h-3.41l-3.234-6.317H28.02v6.317zm2.907-8.813h2.425q1.149 0 1.782-.668.645-.668.644-1.629 0-1.031-.68-1.675-.668-.657-1.746-.657H28.02zm10.347 3.176q0-1.218.446-2.309a5.9 5.9 0 0 1 1.23-1.91 5.9 5.9 0 0 1 1.91-1.3q1.114-.48 2.461-.48 1.348 0 2.461.48t1.898 1.3q.798.81 1.243 1.899.445 1.09.445 2.32 0 1.22-.445 2.32a6.1 6.1 0 0 1-1.243 1.922 5.7 5.7 0 0 1-1.898 1.301q-1.113.48-2.46.48-1.35 0-2.462-.48a5.9 5.9 0 0 1-1.91-1.3 6.2 6.2 0 0 1-1.23-1.923 6.1 6.1 0 0 1-.446-2.32m2.848 0q0 .621.187 1.242.2.621.598 1.16.399.528.996.856.597.315 1.418.316.82 0 1.418-.316a3 3 0 0 0 .984-.856q.399-.539.586-1.16.2-.621.2-1.242 0-.598-.2-1.23a3.5 3.5 0 0 0-.586-1.16 2.9 2.9 0 0 0-.996-.833q-.597-.328-1.406-.328-.82 0-1.418.328-.597.317-.996.832t-.598 1.16a4.3 4.3 0 0 0-.187 1.231m11.46 1.219v-6.844H55.5v6.82q0 1.08.586 1.676.597.585 1.535.586.574 0 1.078-.222a2.5 2.5 0 0 0 .856-.645q.364-.41.562-.95.21-.538.211-1.16v-6.105h2.836v11.262h-2.719l-.07-1.277q-.21.234-.527.503-.316.27-.727.504-.398.223-.926.364a4.7 4.7 0 0 1-1.207.14q-2.109 0-3.21-1.254-1.102-1.265-1.102-3.398m12.306-4.535v-2.309h1.921v-3.644h2.825v3.644h3.023v2.309h-3.023v4.922q0 .96.328 1.476.327.516 1.043.516.667 0 1.066-.188a6 6 0 0 0 .762-.457l1.195 1.746q-.843.692-1.664.996-.808.305-1.816.305-1.032 0-1.758-.305a2.85 2.85 0 0 1-1.16-.843 3.4 3.4 0 0 1-.633-1.336 7.4 7.4 0 0 1-.188-1.723v-5.11zm10.09 3.187q0-1.242.41-2.308a5.7 5.7 0 0 1 1.171-1.852 5.55 5.55 0 0 1 1.805-1.254q1.055-.457 2.32-.457 1.536 0 2.602.563t1.71 1.476q.656.915.938 2.063.294 1.148.293 2.355v.399h-8.402q0 .62.281 1.136.282.504.715.868.445.35 1.008.55.575.188 1.125.188.82 0 1.43-.153.61-.163 1.03-.363a3.9 3.9 0 0 0 1.137-.809l1.536 1.735-.399.398q-.315.317-.937.68-.61.363-1.559.645-.95.292-2.262.292-1.347 0-2.449-.457a5.7 5.7 0 0 1-1.886-1.253 5.5 5.5 0 0 1-1.207-1.934q-.41-1.137-.41-2.508m2.823-1.054h5.52q0-.435-.164-.856a2.4 2.4 0 0 0-.492-.785 2.5 2.5 0 0 0-.832-.574 2.7 2.7 0 0 0-1.149-.235q-.69 0-1.23.235-.54.223-.903.574-.364.351-.562.785-.187.434-.187.855m-64.113 32.82V82.746h2.707l.07 1.277q.211-.234.516-.504.304-.27.727-.492.421-.223.949-.363.528-.153 1.195-.152 2.11 0 3.211 1.265 1.113 1.254 1.114 3.387v6.844h-2.836v-6.82q0-1.08-.586-1.665-.587-.585-1.524-.585-.574 0-1.078.234-.504.223-.867.633a3 3 0 0 0-.574.949q-.2.54-.2 1.16v6.094zm12.492-3.293q0-.96.364-1.711a3.6 3.6 0 0 1 1.008-1.277q.645-.516 1.558-.774.914-.27 2.016-.27a27 27 0 0 1 1.535.047q.434.024.89.06v-.27q0-.844-.68-1.325-.666-.48-1.745-.48-1.196 0-1.922.316a9.5 9.5 0 0 0-1.266.668l-1.3-1.91q.34-.234.773-.492.434-.258 1.008-.457a7.6 7.6 0 0 1 1.324-.34 11 11 0 0 1 1.77-.129q1.077 0 1.956.305a4.4 4.4 0 0 1 1.5.832q.622.54.961 1.3.34.75.34 1.641v7.559h-2.648l-.07-1.055q-.458.55-1.395.984-.937.435-2.086.434-.69 0-1.383-.223a3.8 3.8 0 0 1-1.242-.656 3.4 3.4 0 0 1-.914-1.136q-.351-.704-.352-1.641m2.72-.117q0 .714.515 1.125.515.41 1.523.41.504 0 .973-.164a2.6 2.6 0 0 0 .82-.457 2.5 2.5 0 0 0 .586-.668q.234-.387.235-.82v-1.102l-.844-.047a19 19 0 0 0-.715-.035 20 20 0 0 0-.621-.012q-1.371 0-1.922.54-.55.538-.55 1.23m9.573-2.227q0-1.218.446-2.308a5.9 5.9 0 0 1 1.23-1.91 5.9 5.9 0 0 1 1.91-1.301q1.114-.48 2.461-.48 1.371 0 2.496.491a5.9 5.9 0 0 1 1.922 1.325l-1.804 1.828a3.4 3.4 0 0 0-1.125-.856q-.645-.315-1.489-.316-.82 0-1.418.304-.597.294-.996.774-.398.48-.597 1.125-.188.645-.188 1.324 0 .645.188 1.277.199.623.597 1.125.399.505.996.82.598.306 1.418.305a3.53 3.53 0 0 0 2.707-1.207l1.688 1.828a6.1 6.1 0 0 1-1.875 1.348q-1.078.504-2.52.504-1.44 0-2.578-.433a5.3 5.3 0 0 1-1.898-1.22 5.5 5.5 0 0 1-1.172-1.898q-.399-1.113-.399-2.449m12.34 5.637V78h2.778v5.906q.433-.48 1.265-.937.833-.457 2.121-.457 1.032 0 1.84.34.82.328 1.36.949.55.609.832 1.476.293.856.293 1.887v6.844h-2.836v-6.82q0-1.08-.586-1.665-.587-.585-1.524-.585-.574 0-1.078.234-.504.223-.867.633a3 3 0 0 0-.574.949q-.2.54-.2 1.16v6.094zm17.79 0V90.69h3.433v3.317zm6.702 0V90.69h3.434v3.317zm6.704 0V90.69h3.433v3.317zm6.585-10.922.528-5.063h3.246l-1.64 5.063zm4.56 0 .526-5.063h3.246l-1.64 5.063z"/></svg>