<svg xmlns="http://www.w3.org/2000/svg" fill="none" viewBox="0 0 127 102"><path fill="#fff" d="m1.367 18.47.55-5.274h3.38l-1.696 5.273zm4.822 0 .55-5.274h3.38l-1.696 5.273zm7.092-1.795V0h3.15v6.848L22.607 0h3.577l-6.152 6.824 6.823 9.85H23.06l-5.078-7.58-1.55 1.734v5.847zm14.478-3.43q0-1.002.378-1.783a3.74 3.74 0 0 1 1.05-1.33q.672-.537 1.624-.806a7.4 7.4 0 0 1 2.1-.28 28 28 0 0 1 1.598.048q.451.025.928.061v-.28q0-.879-.708-1.38-.696-.5-1.819-.5-1.245 0-2.002.33-.744.328-1.318.695l-1.355-1.99q.354-.243.806-.512a5.7 5.7 0 0 1 1.05-.476 8 8 0 0 1 1.379-.354q.793-.135 1.843-.135 1.123 0 2.039.318.915.305 1.562.866.647.562 1.001 1.355.354.78.354 1.71v7.873H35.51l-.073-1.099q-.476.574-1.453 1.026-.975.45-2.173.451-.72 0-1.44-.232a4 4 0 0 1-1.294-.683 3.5 3.5 0 0 1-.952-1.184q-.366-.733-.366-1.71m2.832-.122q0 .745.537 1.171.537.428 1.587.428.525 0 1.013-.171t.855-.476q.378-.306.61-.696.244-.403.244-.855v-1.147l-.879-.049a20 20 0 0 0-.745-.037 21 21 0 0 0-.647-.012q-1.428 0-2.001.562-.574.56-.574 1.282m10.522 3.552V4.944h2.82l.073 1.33q.22-.243.538-.524a3.8 3.8 0 0 1 .756-.513q.44-.232.99-.379a4.5 4.5 0 0 1 1.244-.158q2.198 0 3.345 1.318 1.16 1.306 1.16 3.528v7.129h-2.955V9.57q0-1.122-.61-1.733-.61-.61-1.587-.61a2.6 2.6 0 0 0-1.123.244q-.524.231-.903.659a3.1 3.1 0 0 0-.598.989 3.5 3.5 0 0 0-.208 1.208v6.348zm13.77 0V4.944h2.82l.073 1.33q.219-.243.537-.524t.757-.513q.439-.232.989-.379a4.5 4.5 0 0 1 1.245-.158q2.198 0 3.344 1.318 1.16 1.306 1.16 3.528v7.129h-2.954V9.57q0-1.122-.61-1.733-.61-.61-1.587-.61a2.6 2.6 0 0 0-1.123.244q-.525.231-.904.659a3.1 3.1 0 0 0-.598.989 3.5 3.5 0 0 0-.207 1.208v6.348zM1.245 33.298l.55-5.274h3.38l-1.708 5.274zm6.568 11.377V28h2.893v6.152q.45-.5 1.318-.976.867-.477 2.21-.476 1.073 0 1.916.354a3.6 3.6 0 0 1 1.416.988q.573.635.867 1.539.305.891.305 1.965v7.129h-2.954V37.57q0-1.122-.61-1.733-.611-.61-1.588-.61a2.6 2.6 0 0 0-1.123.244 2.6 2.6 0 0 0-.903.659 3.1 3.1 0 0 0-.598.989 3.5 3.5 0 0 0-.208 1.208v6.348zm13.72-4.602v-7.13h2.942v7.105q0 1.123.61 1.746.622.61 1.6.61.598 0 1.123-.232.525-.243.89-.671.379-.427.587-.989.22-.561.22-1.208v-6.36h2.954v11.73h-2.833l-.073-1.33q-.22.244-.55.525-.328.28-.756.525a4.2 4.2 0 0 1-.964.379 5 5 0 0 1-1.258.146q-2.197 0-3.344-1.306-1.148-1.32-1.148-3.54m13.245 3.174 1.77-1.917q.549.55 1.38.916.841.354 1.916.354.951 0 1.526-.245.573-.255.573-.83 0-.244-.097-.451-.098-.22-.427-.415-.319-.208-.892-.403-.573-.208-1.55-.427a10 10 0 0 1-1.257-.403 5 5 0 0 1-1.209-.684 3.8 3.8 0 0 1-.928-1.05q-.353-.622-.353-1.465 0-.878.415-1.562a3.65 3.65 0 0 1 1.11-1.147q.696-.465 1.55-.708a6.1 6.1 0 0 1 1.746-.257q1.551 0 2.637.33 1.087.317 1.965.964l-1.526 2.075q-.476-.354-1.257-.634-.77-.293-1.819-.293-1.05 0-1.465.317-.415.318-.415.757 0 .55.684.866.696.318 2.148.66.904.195 1.612.5.708.306 1.22.757.513.452.782 1.062.28.61.28 1.465t-.402 1.538q-.39.684-1.087 1.16a5.3 5.3 0 0 1-1.599.732 6.9 6.9 0 0 1-1.94.269q-1.649 0-2.98-.464-1.317-.465-2.111-1.367m11.511-7.898v-2.405h2.002v-3.797h2.942v3.797h3.15v2.405h-3.15v5.127q0 1 .342 1.538.342.537 1.086.537.696 0 1.111-.196.415-.207.793-.476l1.245 1.82q-.878.72-1.733 1.037-.842.317-1.892.317-1.074 0-1.831-.317a2.97 2.97 0 0 1-1.209-.88 3.6 3.6 0 0 1-.659-1.39 7.7 7.7 0 0 1-.195-1.795v-5.322zm11.255 12.903 1.575-3.577h-1.27v-3.48h3.577v3.431l-2.124 3.626zm15.82-3.577V28h2.893v6.152q.451-.5 1.319-.976.867-.477 2.21-.476 1.073 0 1.916.354a3.6 3.6 0 0 1 1.416.988q.573.635.866 1.539.306.891.306 1.965v7.129h-2.955V37.57q0-1.122-.61-1.733-.61-.61-1.587-.61a2.6 2.6 0 0 0-1.123.244q-.524.231-.903.659a3.1 3.1 0 0 0-.598.989 3.5 3.5 0 0 0-.208 1.208v6.348zm13.721-4.602v-7.13h2.942v7.105q0 1.123.61 1.746.622.61 1.6.61.597 0 1.122-.232.525-.243.892-.671a3.1 3.1 0 0 0 .585-.989q.22-.561.22-1.208v-6.36h2.954v11.73h-2.832l-.073-1.33q-.22.244-.55.525-.33.28-.756.525-.415.231-.965.379a5 5 0 0 1-1.257.146q-2.197 0-3.345-1.306-1.147-1.32-1.147-3.54m13.245 3.174 1.77-1.917q.55.55 1.379.916.842.354 1.917.354.952 0 1.525-.245.574-.255.574-.83 0-.244-.098-.451-.097-.22-.427-.415-.316-.208-.891-.403-.573-.208-1.55-.427a10 10 0 0 1-1.258-.403 5 5 0 0 1-1.208-.684 3.8 3.8 0 0 1-.928-1.05q-.354-.622-.354-1.465 0-.878.415-1.562a3.65 3.65 0 0 1 1.111-1.147q.696-.465 1.55-.708a6.1 6.1 0 0 1 1.746-.257q1.55 0 2.637.33a6.2 6.2 0 0 1 1.965.964l-1.526 2.075q-.475-.354-1.257-.634-.77-.293-1.819-.293-1.05 0-1.465.317-.415.318-.415.757 0 .55.684.866.696.318 2.148.66.903.195 1.612.5.707.306 1.22.757.513.452.781 1.062.282.61.281 1.465t-.403 1.538q-.39.684-1.086 1.16a5.3 5.3 0 0 1-1.599.732 6.9 6.9 0 0 1-1.941.269q-1.648 0-2.979-.464-1.318-.465-2.111-1.367m11.511-7.898v-2.405h2.002v-3.797h2.942v3.797h3.149v2.405h-3.149v5.127q0 1 .341 1.538.342.537 1.087.537.696 0 1.111-.196.414-.207.793-.476l1.245 1.82q-.879.72-1.733 1.037-.843.317-1.892.317-1.075 0-1.831-.317a2.97 2.97 0 0 1-1.209-.88 3.6 3.6 0 0 1-.659-1.39 7.7 7.7 0 0 1-.195-1.795v-5.322zm11.255 12.903 1.574-3.577h-1.269v-3.48h3.577v3.431l-2.124 3.626zM1.123 72.675V56h2.893v6.152q.451-.5 1.318-.976.867-.477 2.21-.476 1.074 0 1.916.354a3.6 3.6 0 0 1 1.416.988q.574.635.867 1.539.305.891.305 1.965v7.129H9.094V65.57q0-1.122-.61-1.733-.61-.61-1.587-.61a2.6 2.6 0 0 0-1.123.244q-.525.231-.903.659a3.1 3.1 0 0 0-.599.989 3.5 3.5 0 0 0-.207 1.208v6.348zm13.72-4.602v-7.13h2.943v7.105q0 1.123.61 1.746.622.61 1.6.61.597 0 1.122-.232.525-.243.891-.671a3.1 3.1 0 0 0 .586-.989q.22-.561.22-1.208v-6.36h2.954v11.73h-2.832l-.073-1.33q-.22.244-.55.525-.33.28-.756.525-.416.232-.965.378a5 5 0 0 1-1.257.147q-2.198 0-3.345-1.306-1.147-1.32-1.147-3.54m13.245 3.174 1.77-1.917q.55.549 1.38.916.842.354 1.916.354.953 0 1.526-.244.574-.257.574-.83 0-.245-.098-.452-.097-.22-.427-.415-.318-.208-.891-.403-.575-.207-1.55-.427a10 10 0 0 1-1.258-.403 5 5 0 0 1-1.208-.684 3.8 3.8 0 0 1-.928-1.05q-.354-.623-.354-1.464 0-.879.415-1.563a3.65 3.65 0 0 1 1.11-1.147q.697-.465 1.551-.708a6.1 6.1 0 0 1 1.746-.257q1.55 0 2.636.33 1.087.317 1.966.964l-1.526 2.075q-.475-.354-1.257-.634-.77-.293-1.82-.293t-1.464.317-.415.757q0 .549.684.867.695.316 2.148.659.904.195 1.611.5.709.306 1.221.757t.781 1.062q.28.61.281 1.465 0 .855-.403 1.538-.39.684-1.086 1.16a5.3 5.3 0 0 1-1.6.732 6.9 6.9 0 0 1-1.94.269q-1.648 0-2.979-.464-1.319-.465-2.112-1.367M39.6 63.349v-2.405h2.002v-3.797h2.942v3.797h3.149v2.405h-3.15v5.127q0 1 .342 1.538.342.537 1.087.537.695 0 1.11-.195.416-.208.794-.477l1.245 1.82q-.88.72-1.733 1.037-.842.317-1.892.317-1.075 0-1.831-.317a2.97 2.97 0 0 1-1.209-.88 3.6 3.6 0 0 1-.66-1.39 7.7 7.7 0 0 1-.194-1.795v-5.322zm11.181-2.051.55-5.274h3.38l-1.708 5.274zm11.084 11.377V60.944h2.82l.073 1.33q.22-.243.537-.525.318-.28.757-.512a4.7 4.7 0 0 1 .989-.379 4.5 4.5 0 0 1 1.245-.158q2.197 0 3.345 1.318 1.16 1.306 1.16 3.528v7.129h-2.955V65.57q0-1.122-.61-1.733-.61-.61-1.587-.61a2.6 2.6 0 0 0-1.123.244q-.524.231-.903.659a3.1 3.1 0 0 0-.598.989 3.5 3.5 0 0 0-.208 1.208v6.348zM75.66 59.1V56h3.15v3.1zm.098 13.574V60.944h2.954v11.73zm5.432-5.872q0-1.27.464-2.405a6.1 6.1 0 0 1 1.282-1.99 6.1 6.1 0 0 1 1.99-1.354q1.159-.5 2.563-.5 1.428 0 2.6.512a6.15 6.15 0 0 1 2.002 1.38l-1.88 1.904a3.6 3.6 0 0 0-1.172-.891q-.67-.33-1.55-.33-.855 0-1.477.317-.622.306-1.038.806a3.4 3.4 0 0 0-.622 1.172q-.195.67-.196 1.38 0 .67.196 1.33.208.647.622 1.172.416.524 1.038.854.622.318 1.477.318a3.68 3.68 0 0 0 2.82-1.258l1.757 1.904a6.4 6.4 0 0 1-1.953 1.404q-1.122.525-2.624.525-1.501 0-2.686-.451a5.5 5.5 0 0 1-1.977-1.27 5.7 5.7 0 0 1-1.221-1.977q-.415-1.16-.415-2.552m12.854 5.872V56h2.893v6.152q.451-.5 1.318-.976.867-.477 2.21-.476 1.074 0 1.916.354.855.342 1.416.988.575.635.867 1.539a6 6 0 0 1 .305 1.965v7.129h-2.954V65.57q0-1.122-.61-1.733-.61-.61-1.587-.61a2.6 2.6 0 0 0-1.123.244q-.525.231-.904.659a3.1 3.1 0 0 0-.598.989 3.5 3.5 0 0 0-.207 1.208v6.348zm12.769-9.326v-2.405h2.001v-3.797h2.942v3.797h3.15v2.405h-3.15v5.127q0 1 .342 1.538.342.537 1.087.537.695 0 1.11-.195.416-.208.794-.477l1.245 1.82q-.88.72-1.733 1.037-.843.317-1.892.317-1.075 0-1.832-.317a2.97 2.97 0 0 1-1.208-.88 3.6 3.6 0 0 1-.659-1.39 7.7 7.7 0 0 1-.196-1.795v-5.322zM0 91.349v-2.405h1.99v-.122q0-1.526.488-2.54.489-1.012 1.294-1.623a5 5 0 0 1 1.88-.854 9.7 9.7 0 0 1 2.246-.257q.452 0 1.013.074.561.073 1.16.231.598.147 1.208.391.61.232 1.136.562l-1.221 2.221q-.574-.353-1.502-.647a5.8 5.8 0 0 0-1.818-.305q-1.551 0-2.259.525-.696.525-.696 1.721v.623h7.3v11.731H9.265v-9.326H4.944v9.326H1.99v-9.326zm15.259 9.326V88.944h2.82l.073 1.33a7 7 0 0 1 .537-.525q.318-.28.757-.512a4.7 4.7 0 0 1 .989-.379 4.5 4.5 0 0 1 1.245-.158q2.198 0 3.344 1.318 1.16 1.306 1.16 3.528v7.129H23.23V93.57q0-1.122-.61-1.733-.61-.61-1.587-.61a2.6 2.6 0 0 0-1.123.244q-.525.231-.904.659a3.1 3.1 0 0 0-.598.989 3.5 3.5 0 0 0-.207 1.208v6.348zm13.22-5.652q0-1.38.39-2.405.404-1.038 1.002-1.77.5-.598 1.098-1a7.5 7.5 0 0 1 1.22-.66 5.5 5.5 0 0 1 1.185-.378q.574-.11 1.001-.11.574 0 .952.036.378.037.672.098.304.061.549.17.256.1.574.22V84h2.93v16.675h-2.857l-.073-1.148q-.22.244-.55.525a4.2 4.2 0 0 1-.757.501 5.4 5.4 0 0 1-.976.366q-.537.159-1.209.159a4.7 4.7 0 0 1-1.88-.403 5.1 5.1 0 0 1-1.66-1.172q-.72-.781-1.171-1.904-.44-1.125-.44-2.576m2.966 0q0 1.5.745 2.502.757 1.002 2.185 1.001.745 0 1.27-.28.537-.294.854-.745.33-.451.476-.989.147-.537.147-1.037v-3.601a2.4 2.4 0 0 0-.99-.489q-.56-.135-1.427-.134-.879 0-1.453.342a3.4 3.4 0 0 0-1.001.879 4 4 0 0 0-.598 1.172q-.207.659-.208 1.379m10.95-.354q0-1.294.427-2.405a5.9 5.9 0 0 1 1.221-1.929 5.8 5.8 0 0 1 1.88-1.306q1.098-.476 2.417-.476 1.6 0 2.71.586t1.782 1.538q.684.952.977 2.149a10 10 0 0 1 .305 2.453v.415H45.36q0 .647.293 1.184.294.525.745.904.465.366 1.05.574.598.195 1.172.195.855 0 1.489-.159.635-.171 1.074-.378a4.1 4.1 0 0 0 1.184-.843l1.6 1.807-.416.415q-.33.33-.976.708-.635.378-1.624.671-.988.306-2.356.306-1.404 0-2.551-.476a5.9 5.9 0 0 1-1.965-1.307 5.75 5.75 0 0 1-1.258-2.014q-.427-1.184-.427-2.612m2.942-1.099h5.75a2.4 2.4 0 0 0-.172-.89 2.5 2.5 0 0 0-.512-.819 2.6 2.6 0 0 0-.867-.598 2.8 2.8 0 0 0-1.196-.244q-.72 0-1.282.244a3 3 0 0 0-.94.598 2.7 2.7 0 0 0-.586.818q-.195.452-.195.891m11.06 7.105V88.944h2.82l.073 1.33a7 7 0 0 1 .537-.525q.317-.28.757-.512a4.7 4.7 0 0 1 .988-.379 4.5 4.5 0 0 1 1.245-.158q2.198 0 3.345 1.318 1.16 1.306 1.16 3.528v7.129h-2.954V93.57q0-1.122-.61-1.733-.612-.61-1.588-.61a2.6 2.6 0 0 0-1.123.244q-.524.231-.903.659a3.1 3.1 0 0 0-.598.989 3.5 3.5 0 0 0-.208 1.208v6.348zm14.013 0V97.22h3.577v3.455zm6.86-11.377.55-5.274H81.2l-1.709 5.274zm4.749 0 .55-5.274h3.38l-1.708 5.274z"/></svg>