<svg xmlns="http://www.w3.org/2000/svg" fill="none" viewBox="0 0 510 42"><path fill="#000" d="M1.524 6.956v.324c0 1.32.18 2.184.54 2.604.312.372.792.552 1.428.552.696 0 1.188-.204 1.5-.624.312-.432.468-1.272.468-2.532v-.324c0-.624-.036-1.14-.096-1.548s-.18-.732-.372-.996c-.312-.408-.804-.612-1.5-.612q-1.026 0-1.476.612c-.336.432-.492 1.284-.492 2.544m4.812-.144v.624c0 1.392-.252 2.352-.732 2.904-.456.516-1.152.768-2.112.768-.9 0-1.572-.228-2.028-.684C.912 9.872.648 8.876.648 7.436v-.624c0-1.392.252-2.376.756-2.94.444-.492 1.14-.744 2.088-.744.936 0 1.632.252 2.088.744.504.564.756 1.548.756 2.94m3.888 4.296c-.768 0-1.32-.204-1.644-.636h-.024v2.52c0 .096-.048.132-.12.132h-.54c-.084 0-.12-.036-.12-.132v-7.74c0-.084.036-.132.12-.132h.36c.084 0 .132.048.144.132l.072.48h.024c.336-.48.924-.72 1.74-.72.78 0 1.344.216 1.68.648s.516 1.104.516 2.04v.624q0 1.386-.504 2.088c-.336.468-.9.696-1.704.696m-.096-5.424c-1.056 0-1.572.504-1.572 1.512v1.692c0 .516.132.9.42 1.164.276.264.672.384 1.176.384.528 0 .924-.144 1.164-.444q.324-.396.324-1.728v-.456c0-.84-.132-1.416-.372-1.716-.24-.264-.612-.408-1.14-.408M14.377 11h-.384c-.132 0-.192-.048-.192-.156V5.252c0-.084.048-.132.144-.132h.348c.072 0 .12.048.144.132l.048.624h.024c.264-.504.732-.756 1.392-.756h.312c.096 0 .156.048.156.144v.408c0 .096-.06.132-.156.132h-.324c-.528 0-.9.168-1.092.492-.144.24-.216.552-.216.948v3.6c0 .108-.072.156-.204.156m3.525-3.06v.228c0 .6.036 1.032.12 1.32.18.636.648.948 1.392.948s1.212-.312 1.404-.948c.072-.288.12-.72.12-1.32V7.94c0-.588-.048-1.032-.12-1.32q-.27-.936-1.404-.936c-.756 0-1.224.312-1.392.936-.084.288-.12.732-.12 1.32m3.828-.12v.48c0 1.08-.216 1.836-.624 2.244-.384.384-.948.564-1.692.564s-1.296-.18-1.68-.564c-.42-.408-.624-1.164-.624-2.244v-.48c0-1.08.204-1.836.624-2.256.372-.36.936-.552 1.68-.552s1.308.192 1.692.552c.408.42.624 1.176.624 2.256m4.916 2.472.084.276q.036.126 0 .18c-.024.036-.084.072-.204.12-.396.168-.852.24-1.368.24-.744 0-1.296-.168-1.656-.516-.468-.42-.696-1.212-.696-2.376V7.82c0-1.056.24-1.812.732-2.268q.576-.54 1.62-.54c.312 0 .636.06.948.156.312.108.576.228.768.372.06.048.06.12.012.192l-.204.336c-.048.072-.108.084-.204.024-.456-.264-.888-.408-1.32-.408-.468 0-.828.132-1.08.372-.324.324-.48.948-.48 1.872v.204c0 .912.12 1.536.384 1.848.24.312.636.456 1.212.456.384 0 .768-.072 1.164-.228.156-.06.252-.036.288.084m5.437-3.228v.984c0 .168-.036.288-.096.36-.072.072-.18.096-.348.096h-3.096c.024.72.144 1.224.384 1.512.228.288.624.42 1.188.42a3.4 3.4 0 0 0 1.32-.24c.156-.06.252-.036.288.084l.084.276a.23.23 0 0 1-.012.18q-.036.072-.252.144c-.408.156-.888.228-1.428.228-.876 0-1.488-.216-1.836-.66-.36-.432-.528-1.152-.528-2.148v-.48c0-.96.168-1.668.516-2.124.336-.456.924-.684 1.74-.684.684 0 1.2.168 1.548.492.348.348.528.864.528 1.56m-2.064-1.38c-.528 0-.912.156-1.128.456-.228.312-.348.864-.348 1.68h2.58c.06 0 .108 0 .132-.024s.036-.072.036-.156v-.456c0-.516-.096-.888-.276-1.116-.216-.252-.54-.384-.996-.384m7.945 5.112c0 .144-.084.204-.228.204H37.4q-.144 0-.18-.036c-.024-.024-.036-.072-.036-.168V7.292c0-.708-.192-1.176-.552-1.404-.24-.144-.564-.228-.972-.228-.564 0-.96.168-1.176.504q-.216.324-.216.936v3.72q0 .18-.216.18h-.372c-.132 0-.192-.06-.192-.18V5.252c0-.084.036-.132.12-.132h.36c.084 0 .132.048.144.132l.06.48h.024c.096-.168.264-.312.492-.456.3-.168.672-.264 1.128-.264.924 0 1.548.276 1.86.804q.288.504.288 1.548zm4.102.204h-.564c-.623 0-1.08-.156-1.344-.48-.264-.312-.395-.768-.395-1.38V5.804h-.732c-.084 0-.12-.036-.12-.132v-.24c0-.096.035-.144.12-.156l.732-.156V3.764q0-.144.144-.144h.504c.084 0 .131.048.131.144V5.12h1.404c.073 0 .12.048.12.12v.444c0 .084-.047.12-.12.12h-1.404v3.24c0 .48.072.816.216.984.145.204.444.3.877.3h.431c.096 0 .145.048.145.132v.408c0 .096-.048.132-.145.132m1.793-3.06v.228c0 .6.036 1.032.12 1.32.18.636.648.948 1.392.948s1.212-.312 1.404-.948c.072-.288.12-.72.12-1.32V7.94c0-.588-.048-1.032-.12-1.32q-.27-.936-1.404-.936c-.756 0-1.224.312-1.392.936-.084.288-.12.732-.12 1.32m3.828-.12v.48c0 1.08-.216 1.836-.624 2.244-.384.384-.948.564-1.692.564s-1.296-.18-1.68-.564c-.42-.408-.624-1.164-.624-2.244v-.48c0-1.08.204-1.836.624-2.256.372-.36.936-.552 1.68-.552s1.308.192 1.692.552c.408.42.624 1.176.624 2.256m4.268-2.412h.54c.216 0 .36.12.408.336a64 64 0 0 0 1.092 4.644h.06c.444-1.704.816-3.42 1.116-5.124 0-.072.024-.108.048-.12a.4.4 0 0 1 .168-.024h.372q.126 0 .18.036c.024.024.036.06.036.132q-.396 2.016-1.224 5.22c-.096.336-.264.492-.504.492h-.408c-.156 0-.276-.036-.348-.108-.084-.072-.144-.192-.192-.384a76 76 0 0 1-1.032-4.38h-.084c-.312 1.5-.66 2.964-1.032 4.38a.8.8 0 0 1-.192.384.53.53 0 0 1-.348.108h-.408c-.252 0-.42-.156-.504-.492q-.846-3.204-1.224-5.22c-.012-.072 0-.108.036-.132q.036-.036.18-.036h.372q.18 0 .216.144c.288 1.704.66 3.42 1.116 5.124h.06a80 80 0 0 0 1.092-4.644c.048-.216.18-.336.408-.336m8.34 5.472-.023-.408h-.024c-.264.432-.696.636-1.272.636h-.6c-.576 0-.996-.144-1.284-.432s-.432-.66-.432-1.128v-.36q0-1.134.936-1.512c.264-.108.744-.168 1.44-.168h.36c.288 0 .564.012.804.036V6.86c0-.432-.12-.744-.348-.912-.24-.168-.6-.264-1.104-.264-.42 0-.828.06-1.236.18-.192.048-.288.024-.312-.096l-.06-.252c-.048-.144 0-.228.132-.276a5.5 5.5 0 0 1 1.536-.228c.768 0 1.32.144 1.656.42s.516.72.516 1.344v4.104c0 .084-.048.12-.132.12h-.396c-.108 0-.156-.036-.156-.12M60.2 9.2v-.996a6 6 0 0 0-.72-.036h-.672c-.504 0-.852.084-1.056.24s-.3.42-.3.792v.252c0 .36.084.624.252.78.144.144.396.216.732.216h.492c.396 0 .708-.096.936-.312.216-.216.336-.528.336-.936m6.85 1.596c0 .144-.084.204-.228.204h-.336q-.144 0-.18-.036c-.024-.024-.036-.072-.036-.168V7.292c0-.708-.192-1.176-.552-1.404-.24-.144-.564-.228-.972-.228-.564 0-.96.168-1.176.504q-.216.324-.216.936v3.72q0 .18-.216.18h-.372c-.132 0-.192-.06-.192-.18V5.252c0-.084.036-.132.12-.132h.36c.084 0 .132.048.144.132l.06.48h.024c.096-.168.264-.312.492-.456.3-.168.672-.264 1.128-.264.924 0 1.548.276 1.86.804q.288.504.288 1.548zm2.53-5.544v5.652c0 .072-.036.096-.108.096h-.576c-.072 0-.096-.024-.096-.096V5.252c0-.084.048-.132.144-.132h.492c.096 0 .144.048.144.132m.168-1.716v.072c0 .384-.18.576-.528.576h-.048c-.372 0-.552-.192-.552-.576v-.072c0-.372.18-.564.552-.564h.048c.348 0 .528.192.528.564m5.683 3.528v.984c0 .168-.036.288-.096.36-.072.072-.18.096-.348.096H71.89c.024.72.144 1.224.384 1.512.228.288.624.42 1.188.42a3.4 3.4 0 0 0 1.32-.24c.156-.06.252-.036.288.084l.084.276a.23.23 0 0 1-.012.18q-.036.072-.252.144c-.408.156-.888.228-1.428.228-.876 0-1.488-.216-1.836-.66-.36-.432-.528-1.152-.528-2.148v-.48c0-.96.168-1.668.516-2.124.336-.456.924-.684 1.74-.684.684 0 1.2.168 1.548.492.348.348.528.864.528 1.56m-2.064-1.38c-.528 0-.912.156-1.128.456-.228.312-.348.864-.348 1.68h2.58c.06 0 .108 0 .132-.024s.036-.072.036-.156v-.456c0-.516-.096-.888-.276-1.116-.216-.252-.54-.384-.996-.384M80.236 11h-.384c-.132 0-.192-.048-.192-.156V5.252c0-.084.048-.132.144-.132h.348c.072 0 .12.048.144.132l.048.624h.024c.264-.504.732-.756 1.392-.756h.312c.096 0 .156.048.156.144v.408c0 .096-.06.132-.156.132h-.324c-.528 0-.9.168-1.092.492-.144.24-.216.552-.216.948v3.6c0 .108-.072.156-.204.156m3.526-3.06v.228c0 .6.036 1.032.12 1.32.18.636.648.948 1.392.948s1.212-.312 1.404-.948c.072-.288.12-.72.12-1.32V7.94c0-.588-.048-1.032-.12-1.32q-.27-.936-1.404-.936c-.756 0-1.224.312-1.392.936-.084.288-.12.732-.12 1.32m3.828-.12v.48c0 1.08-.216 1.836-.624 2.244-.384.384-.948.564-1.692.564s-1.296-.18-1.68-.564c-.42-.408-.624-1.164-.624-2.244v-.48c0-1.08.204-1.836.624-2.256.372-.36.936-.552 1.68-.552s1.308.192 1.692.552c.408.42.624 1.176.624 2.256m4.915 2.472.084.276q.036.126 0 .18c-.024.036-.084.072-.204.12-.396.168-.852.24-1.368.24-.744 0-1.296-.168-1.656-.516-.468-.42-.696-1.212-.696-2.376V7.82c0-1.056.24-1.812.732-2.268q.576-.54 1.62-.54c.312 0 .636.06.948.156.312.108.576.228.768.372.06.048.06.12.012.192l-.204.336c-.048.072-.108.084-.204.024-.456-.264-.888-.408-1.32-.408-.468 0-.828.132-1.08.372-.324.324-.48.948-.48 1.872v.204c0 .912.12 1.536.384 1.848.24.312.636.456 1.212.456.384 0 .768-.072 1.164-.228.156-.06.252-.036.288.084m4.945.156v.432c0 .084-.048.12-.12.12h-3.744c-.084 0-.12-.036-.12-.12v-.204c0-.12.072-.288.216-.528l2.64-4.356H93.67c-.084 0-.12-.036-.12-.12V5.24c0-.072.036-.12.12-.12h3.552c.072 0 .12.048.12.12v.168c0 .144-.108.384-.312.72l-2.58 4.2h2.88c.072 0 .12.048.12.12m5.659.348c0 .144-.084.204-.228.204h-.336q-.144 0-.18-.036c-.024-.024-.036-.072-.036-.168V7.292c0-.708-.192-1.176-.552-1.404-.24-.144-.564-.228-.972-.228-.564 0-.96.168-1.176.504q-.216.324-.216.936v3.72q0 .18-.216.18h-.372c-.132 0-.192-.06-.192-.18V5.252c0-.084.036-.132.12-.132h.36c.084 0 .132.048.144.132l.06.48h.024c.096-.168.264-.312.492-.456.3-.168.672-.264 1.128-.264.924 0 1.548.276 1.86.804q.288.504.288 1.548zm5.638-3.732v.984c0 .168-.036.288-.096.36-.072.072-.18.096-.348.096h-3.096c.024.72.144 1.224.384 1.512.228.288.624.42 1.188.42a3.4 3.4 0 0 0 1.32-.24c.156-.06.252-.036.288.084l.084.276a.23.23 0 0 1-.012.18q-.036.072-.252.144c-.408.156-.888.228-1.428.228-.876 0-1.488-.216-1.836-.66-.36-.432-.528-1.152-.528-2.148v-.48c0-.96.168-1.668.516-2.124.336-.456.924-.684 1.74-.684.684 0 1.2.168 1.548.492.348.348.528.864.528 1.56m-2.064-1.38c-.528 0-.912.156-1.128.456-.228.312-.348.864-.348 1.68h2.58c.06 0 .108 0 .132-.024s.036-.072.036-.156v-.456c0-.516-.096-.888-.276-1.116-.216-.252-.54-.384-.996-.384m10.649-2.676v6.024c0 .624-.156 1.104-.444 1.452-.36.42-.96.624-1.812.624-.864 0-1.476-.192-1.836-.588-.372-.384-.552-1.104-.552-2.16v-.564c0-.948.18-1.644.564-2.1q.558-.684 1.764-.684 1.044 0 1.512.576h.024v-2.58c0-.084.048-.132.144-.132h.492c.096 0 .144.048.144.132m-.78 5.916V7.28c0-.504-.132-.888-.372-1.176-.24-.276-.6-.42-1.08-.42-.54 0-.936.144-1.176.408-.3.336-.444.924-.444 1.764v.408q0 1.332.432 1.8c.216.252.6.372 1.152.372.6 0 1.02-.144 1.236-.456.168-.228.252-.576.252-1.056m3.194-5.916v6.42q0 .63.108.756c.06.096.204.132.432.132h.324c.096 0 .144.048.144.132v.408c0 .096-.048.144-.12.144h-.456c-.432 0-.744-.084-.924-.276-.192-.192-.288-.564-.288-1.104V3.008c0-.084.048-.132.144-.132h.492c.096 0 .144.048.144.132m5.495 7.872-.024-.408h-.024c-.264.432-.696.636-1.272.636h-.6c-.576 0-.996-.144-1.284-.432s-.432-.66-.432-1.128v-.36q0-1.134.936-1.512c.264-.108.744-.168 1.44-.168h.36c.288 0 .564.012.804.036V6.86c0-.432-.12-.744-.348-.912-.24-.168-.6-.264-1.104-.264-.42 0-.828.06-1.236.18-.192.048-.288.024-.312-.096l-.06-.252c-.048-.144 0-.228.132-.276a5.5 5.5 0 0 1 1.536-.228c.768 0 1.32.144 1.656.42s.516.72.516 1.344v4.104c0 .084-.048.12-.132.12h-.396c-.108 0-.156-.036-.156-.12m-.096-1.68v-.996a6 6 0 0 0-.72-.036h-.672c-.504 0-.852.084-1.056.24s-.3.42-.3.792v.252c0 .36.084.624.252.78.144.144.396.216.732.216h.492c.396 0 .708-.096.936-.312.216-.216.336-.528.336-.936m5.955-6.192V7.52h.6c.12 0 .228-.06.312-.192l1.392-2.076a.26.26 0 0 1 .228-.132h.516c.132 0 .156.072.084.192l-1.704 2.472c-.048.072-.048.132 0 .192l1.764 2.892c.048.096.012.132-.084.132h-.624c-.072 0-.12-.024-.144-.084l-1.512-2.556c-.048-.084-.132-.132-.252-.132h-.576v2.676c0 .072-.036.096-.108.096h-.564c-.072 0-.108-.024-.108-.096V3.008c0-.084.048-.132.144-.132h.492c.096 0 .144.048.144.132m4.681 4.932v.228c0 .6.036 1.032.12 1.32.18.636.648.948 1.392.948s1.212-.312 1.404-.948c.072-.288.12-.72.12-1.32V7.94c0-.588-.048-1.032-.12-1.32q-.27-.936-1.404-.936c-.756 0-1.224.312-1.392.936-.084.288-.12.732-.12 1.32m3.828-.12v.48c0 1.08-.216 1.836-.624 2.244-.384.384-.948.564-1.692.564s-1.296-.18-1.68-.564c-.42-.408-.624-1.164-.624-2.244v-.48c0-1.08.204-1.836.624-2.256.372-.36.936-.552 1.68-.552s1.308.192 1.692.552c.408.42.624 1.176.624 2.256m5.84 2.976c0 .144-.084.204-.228.204h-.336q-.144 0-.18-.036c-.024-.024-.036-.072-.036-.168V7.292c0-.708-.192-1.176-.552-1.404-.24-.144-.564-.228-.972-.228-.564 0-.96.168-1.176.504q-.216.324-.216.936v3.72q0 .18-.216.18h-.372c-.132 0-.192-.06-.192-.18V5.252c0-.084.036-.132.12-.132h.36c.084 0 .132.048.144.132l.06.48h.024c.096-.168.264-.312.492-.456.3-.168.672-.264 1.128-.264.924 0 1.548.276 1.86.804q.288.504.288 1.548zm4.102.204h-.564c-.624 0-1.08-.156-1.344-.48-.264-.312-.396-.768-.396-1.38V5.804h-.732c-.084 0-.12-.036-.12-.132v-.24c0-.096.036-.144.12-.156l.732-.156V3.764q0-.144.144-.144h.504c.084 0 .132.048.132.144V5.12h1.404c.072 0 .12.048.12.12v.444c0 .084-.048.12-.12.12h-1.404v3.24c0 .48.072.816.216.984.144.204.444.3.876.3h.432c.096 0 .144.048.144.132v.408c0 .096-.048.132-.144.132m4.577-.12-.024-.408h-.024c-.264.432-.696.636-1.272.636h-.6c-.576 0-.996-.144-1.284-.432s-.432-.66-.432-1.128v-.36q0-1.134.936-1.512c.264-.108.744-.168 1.44-.168h.36c.288 0 .564.012.804.036V6.86c0-.432-.12-.744-.348-.912-.24-.168-.6-.264-1.104-.264-.42 0-.828.06-1.236.18-.192.048-.288.024-.312-.096l-.06-.252c-.048-.144 0-.228.132-.276a5.5 5.5 0 0 1 1.536-.228c.768 0 1.32.144 1.656.42s.516.72.516 1.344v4.104c0 .084-.048.12-.132.12h-.396c-.108 0-.156-.036-.156-.12m-.096-1.68v-.996a6 6 0 0 0-.72-.036h-.672c-.504 0-.852.084-1.056.24s-.3.42-.3.792v.252c0 .36.084.624.252.78.144.144.396.216.732.216h.492c.396 0 .708-.096.936-.312.216-.216.336-.528.336-.936m5.702-1.26v.228c0 .6.036 1.032.12 1.32.18.636.648.948 1.392.948s1.212-.312 1.404-.948c.072-.288.12-.72.12-1.32V7.94c0-.588-.048-1.032-.12-1.32q-.27-.936-1.404-.936c-.756 0-1.224.312-1.392.936-.084.288-.12.732-.12 1.32m3.828-.12v.48c0 1.08-.216 1.836-.624 2.244-.384.384-.948.564-1.692.564s-1.296-.18-1.68-.564c-.42-.408-.624-1.164-.624-2.244v-.48c0-1.08.204-1.836.624-2.256.372-.36.936-.552 1.68-.552s1.308.192 1.692.552c.408.42.624 1.176.624 2.256m2.828 3.288c-.636 0-1.176-.096-1.632-.288-.12-.048-.168-.108-.144-.204l.096-.348c.024-.12.108-.168.228-.12a4 4 0 0 0 1.452.288c.48 0 .816-.072 1.02-.24.192-.156.3-.408.3-.768v-.072c0-.396-.108-.66-.324-.804-.132-.072-.408-.156-.84-.252l-.336-.06c-.408-.072-.72-.168-.936-.3-.408-.228-.612-.648-.612-1.248v-.12c0-1.032.636-1.56 1.92-1.56.492 0 .936.06 1.344.168q.216.072.18.216l-.072.312c-.048.144-.132.204-.276.156a4.5 4.5 0 0 0-1.188-.18c-.456 0-.78.084-.948.24-.168.144-.24.36-.24.624v.084c0 .264.06.468.192.588q.216.234.936.36l.312.06c.672.144 1.104.336 1.308.576.192.264.3.624.3 1.056v.12c0 .48-.12.852-.336 1.116-.324.408-.888.6-1.704.6m6.904-.66v.432c0 .084-.048.12-.12.12h-3.744c-.084 0-.12-.036-.12-.12v-.204c0-.12.072-.288.216-.528l2.64-4.356h-2.652c-.084 0-.12-.036-.12-.12V5.24c0-.072.036-.12.12-.12h3.552c.072 0 .12.048.12.12v.168c0 .144-.108.384-.312.72l-2.58 4.2h2.88c.072 0 .12.048.12.12m4.734-.156.084.276q.036.126 0 .18c-.024.036-.084.072-.204.12-.396.168-.852.24-1.368.24-.744 0-1.296-.168-1.656-.516-.468-.42-.696-1.212-.696-2.376V7.82c0-1.056.24-1.812.732-2.268q.576-.54 1.62-.54c.312 0 .636.06.948.156.312.108.576.228.768.372.06.048.06.12.012.192l-.204.336c-.048.072-.108.084-.204.024-.456-.264-.888-.408-1.32-.408-.468 0-.828.132-1.08.372-.324.324-.48.948-.48 1.872v.204c0 .912.12 1.536.384 1.848.24.312.636.456 1.212.456.384 0 .768-.072 1.164-.228.156-.06.252-.036.288.084m4.946.156v.432c0 .084-.048.12-.12.12h-3.744c-.084 0-.12-.036-.12-.12v-.204c0-.12.072-.288.216-.528l2.64-4.356h-2.652c-.084 0-.12-.036-.12-.12V5.24c0-.072.036-.12.12-.12h3.552c.072 0 .12.048.12.12v.168c0 .144-.108.384-.312.72l-2.58 4.2h2.88c.072 0 .12.048.12.12m5.226-3.384v.948c0 .18-.036.312-.108.384q-.108.108-.36.108h-3.072c.024.72.144 1.224.384 1.512q.342.432 1.188.432a3.4 3.4 0 0 0 1.32-.24c.156-.06.252-.036.288.084l.072.228c0 .024.012.036.012.048v.036c0 .012-.012.024-.012.036l-.024.024c0 .012-.012.024-.024.036-.012.024-.024.036-.024.036l-.036.036c-.024.012-.036.024-.048.024l-.048.048c-.024.024-.036.036-.048.036-.384.312-.648.564-.792.768a1.14 1.14 0 0 0-.204.648c0 .288.168.432.516.432.192 0 .384-.036.576-.132.084-.036.144-.012.168.06l.072.336c.024.084-.012.144-.096.18a2.3 2.3 0 0 1-.888.18q-1.152 0-1.152-.9c0-.54.312-1.008.948-1.392-.228.036-.42.048-.576.048-.876 0-1.488-.216-1.836-.66-.36-.432-.528-1.152-.528-2.148v-.48c0-.96.168-1.668.516-2.124.336-.456.924-.684 1.74-.684.684 0 1.2.168 1.548.492.348.348.528.864.528 1.56m-2.064-1.392c-.528 0-.912.156-1.128.468-.228.312-.348.864-.348 1.68h2.58c.06 0 .108 0 .132-.024s.036-.072.036-.156v-.456c0-.528-.096-.9-.276-1.128-.216-.252-.54-.384-.996-.384m7.825-2.664v6.024c0 .624-.156 1.104-.444 1.452-.36.42-.96.624-1.812.624-.864 0-1.476-.192-1.836-.588-.372-.384-.552-1.104-.552-2.16v-.564c0-.948.18-1.644.564-2.1q.558-.684 1.764-.684 1.044 0 1.512.576h.024v-2.58c0-.084.048-.132.144-.132h.492c.096 0 .144.048.144.132m-.78 5.916V7.28c0-.504-.132-.888-.372-1.176-.24-.276-.6-.42-1.08-.42-.54 0-.936.144-1.176.408-.3.336-.444.924-.444 1.764v.408q0 1.332.432 1.8c.216.252.6.372 1.152.372.6 0 1.02-.144 1.236-.456.168-.228.252-.576.252-1.056m6.853 1.872c0 .144-.084.204-.228.204h-.336q-.144 0-.18-.036c-.024-.024-.036-.072-.036-.168V7.292c0-.708-.192-1.176-.552-1.404-.24-.144-.564-.228-.972-.228-.564 0-.96.168-1.176.504q-.216.324-.216.936v3.72q0 .18-.216.18h-.372c-.132 0-.192-.06-.192-.18V5.252c0-.084.036-.132.12-.132h.36c.084 0 .132.048.144.132l.06.48h.024c.096-.168.264-.312.492-.456.3-.168.672-.264 1.128-.264.924 0 1.548.276 1.86.804q.288.504.288 1.548zm2.099-2.856v.228c0 .6.036 1.032.12 1.32.18.636.648.948 1.392.948s1.212-.312 1.404-.948c.072-.288.12-.72.12-1.32V7.94c0-.588-.048-1.032-.12-1.32q-.27-.936-1.404-.936c-.756 0-1.224.312-1.392.936-.084.288-.12.732-.12 1.32m3.828-.12v.48c0 1.08-.216 1.836-.624 2.244-.384.384-.948.564-1.692.564s-1.296-.18-1.68-.564c-.42-.408-.624-1.164-.624-2.244v-.48c0-1.08.204-1.836.624-2.256.372-.36.936-.552 1.68-.552s1.308.192 1.692.552c.408.42.624 1.176.624 2.256m2.827 3.288c-.636 0-1.176-.096-1.632-.288-.12-.048-.168-.108-.144-.204l.096-.348c.024-.12.108-.168.228-.12a4 4 0 0 0 1.452.288c.48 0 .816-.072 1.02-.24.192-.156.3-.408.3-.768v-.072c0-.396-.108-.66-.324-.804-.132-.072-.408-.156-.84-.252l-.336-.06c-.408-.072-.72-.168-.936-.3-.408-.228-.612-.648-.612-1.248v-.12c0-1.032.636-1.56 1.92-1.56.492 0 .936.06 1.344.168q.216.072.18.216l-.072.312c-.048.144-.132.204-.276.156a4.5 4.5 0 0 0-1.188-.18c-.456 0-.78.084-.948.24-.168.144-.24.36-.24.624v.084c0 .264.06.468.192.588q.216.234.936.36l.312.06c.672.144 1.104.336 1.308.576.192.264.3.624.3 1.056v.12c0 .48-.12.852-.336 1.116-.324.408-.888.6-1.704.6m-.816-7.596 2.04-.996c.156-.072.264-.036.324.084l.204.42c.048.12-.012.216-.156.288l-2.052.78c-.156.06-.252.036-.3-.072l-.12-.264c-.048-.108-.036-.192.06-.24m7.721 6.78.084.276q.036.126 0 .18c-.024.036-.084.072-.204.12-.396.168-.852.24-1.368.24-.744 0-1.296-.168-1.656-.516-.468-.42-.696-1.212-.696-2.376V7.82c0-1.056.24-1.812.732-2.268q.576-.54 1.62-.54c.312 0 .635.06.948.156.312.108.576.228.768.372.06.048.06.12.012.192l-.204.336c-.048.072-.108.084-.204.024-.456-.264-.888-.408-1.32-.408-.468 0-.828.132-1.08.372-.324.324-.48.948-.48 1.872v.204c0 .912.12 1.536.384 1.848.24.312.636.456 1.212.456.384 0 .768-.072 1.164-.228.156-.06.252-.036.288.084m2.329-5.04v5.652c0 .072-.036.096-.108.096h-.576c-.072 0-.096-.024-.096-.096V5.252c0-.084.048-.132.144-.132h.492c.096 0 .144.048.144.132m.168-1.716v.072c0 .384-.18.576-.528.576h-.048c-.372 0-.552-.192-.552-.576v-.072c0-.372.18-.564.552-.564h.048c.348 0 .528.192.528.564m2.142 4.404v.228c0 .6.036 1.032.12 1.32.18.636.648.948 1.392.948s1.212-.312 1.404-.948c.072-.288.12-.72.12-1.32V7.94c0-.588-.048-1.032-.12-1.32q-.27-.936-1.404-.936c-.756 0-1.224.312-1.392.936-.084.288-.12.732-.12 1.32m3.828-.12v.48c0 1.08-.216 1.836-.624 2.244-.384.384-.948.564-1.692.564s-1.296-.18-1.68-.564c-.42-.408-.624-1.164-.624-2.244v-.48c0-1.08.204-1.836.624-2.256.372-.36.936-.552 1.68-.552s1.308.192 1.692.552c.408.42.624 1.176.624 2.256m4.267-2.412h.54c.216 0 .36.12.408.336a64 64 0 0 0 1.092 4.644h.06c.444-1.704.816-3.42 1.116-5.124 0-.072.024-.108.048-.12a.4.4 0 0 1 .168-.024h.372q.126 0 .18.036c.024.024.036.06.036.132q-.396 2.016-1.224 5.22c-.096.336-.264.492-.504.492h-.408c-.156 0-.276-.036-.348-.108-.084-.072-.144-.192-.192-.384a76 76 0 0 1-1.032-4.38h-.084c-.312 1.5-.66 2.964-1.032 4.38a.8.8 0 0 1-.192.384.53.53 0 0 1-.348.108h-.408c-.252 0-.42-.156-.504-.492q-.846-3.204-1.224-5.22c-.012-.072 0-.108.036-.132q.036-.036.18-.036h.372q.18 0 .216.144c.288 1.704.66 3.42 1.116 5.124h.06a80 80 0 0 0 1.092-4.644c.048-.216.18-.336.408-.336m9.144 1.656v.984c0 .168-.036.288-.096.36-.072.072-.18.096-.348.096h-3.096c.024.72.144 1.224.384 1.512.228.288.624.42 1.188.42a3.4 3.4 0 0 0 1.32-.24c.156-.06.252-.036.288.084l.084.276a.23.23 0 0 1-.012.18q-.036.072-.252.144c-.408.156-.888.228-1.428.228-.876 0-1.488-.216-1.836-.66-.36-.432-.528-1.152-.528-2.148v-.48c0-.96.168-1.668.516-2.124.336-.456.924-.684 1.74-.684.684 0 1.2.168 1.548.492.348.348.528.864.528 1.56m-2.064-1.38c-.528 0-.912.156-1.128.456-.228.312-.348.864-.348 1.68h2.58c.06 0 .108 0 .132-.024s.036-.072.036-.156v-.456c0-.516-.096-.888-.276-1.116-.216-.252-.54-.384-.996-.384M242.6 9.32a2.4 2.4 0 0 1-.312.24c.684.444 1.032 1.008 1.032 1.68v.132c0 .648-.216 1.116-.648 1.416-.432.312-1.032.456-1.776.456-.768 0-1.5-.156-2.172-.492-.084-.036-.12-.096-.096-.192l.132-.36q.036-.144.216-.072a4.1 4.1 0 0 0 1.836.444c.576 0 1.008-.084 1.272-.264q.396-.27.396-.972v-.096c0-.624-.3-1.104-.888-1.416-.192.048-.42.06-.708.06-.684 0-1.212-.144-1.596-.444-.42-.36-.624-.936-.624-1.752v-.492c0-.828.204-1.416.624-1.764.336-.276.876-.42 1.596-.42.168 0 .3.012.384.012.192-.576.648-.876 1.344-.876h.288c.108 0 .168.06.168.168v.468c0 .012-.012.024-.012.036-.012.012-.024.024-.048.024-.024.012-.06.012-.084.012h-.36c-.312 0-.504.108-.6.3.216.084.396.18.528.276.408.348.624.936.624 1.764v.492c0 .708-.18 1.248-.516 1.632m-3.12-2.04v.312c0 .384.036.708.132.948.168.492.6.732 1.272.732.684 0 1.116-.24 1.296-.732.072-.228.12-.552.12-.96v-.3c0-.408-.048-.72-.12-.936a.97.97 0 0 0-.456-.552c-.204-.108-.48-.168-.84-.168-.348 0-.624.06-.828.168s-.348.288-.444.552c-.096.24-.132.552-.132.936m5.684.66v.228c0 .6.036 1.032.12 1.32.18.636.648.948 1.392.948s1.212-.312 1.404-.948c.072-.288.12-.72.12-1.32V7.94c0-.588-.048-1.032-.12-1.32q-.27-.936-1.404-.936c-.756 0-1.224.312-1.392.936-.084.288-.12.732-.12 1.32m3.828-.12v.48c0 1.08-.216 1.836-.624 2.244-.384.384-.948.564-1.692.564s-1.296-.18-1.68-.564c-.42-.408-.624-1.164-.624-2.244v-.48c0-1.08.204-1.836.624-2.256.372-.36.936-.552 1.68-.552s1.308.192 1.692.552c.408.42.624 1.176.624 2.256m7.092-2.412h.54c.216 0 .36.12.408.336a64 64 0 0 0 1.092 4.644h.06c.444-1.704.816-3.42 1.116-5.124 0-.072.024-.108.048-.12a.4.4 0 0 1 .168-.024h.372q.126 0 .18.036c.024.024.036.06.036.132q-.396 2.016-1.224 5.22c-.096.336-.264.492-.504.492h-.408c-.156 0-.276-.036-.348-.108-.084-.072-.144-.192-.192-.384a76 76 0 0 1-1.032-4.38h-.084c-.312 1.5-.66 2.964-1.032 4.38a.8.8 0 0 1-.192.384.53.53 0 0 1-.348.108h-.408c-.252 0-.42-.156-.504-.492q-.846-3.204-1.224-5.22c-.012-.072 0-.108.036-.132q.036-.036.18-.036h.372q.18 0 .216.144c.288 1.704.66 3.42 1.116 5.124h.06a80 80 0 0 0 1.092-4.644c.048-.216.18-.336.408-.336m8.776 2.616v2.772c0 .144-.072.204-.192.204h-.444c-.132 0-.192-.06-.192-.204V3.524c0-.156.072-.252.216-.276.492-.072 1.044-.12 1.668-.12q1.548 0 2.196.54c.432.36.66.96.66 1.8v.156c0 1.608-.936 2.412-2.796 2.412-.48 0-.852 0-1.116-.012m.24-4.188c-.168.024-.24.12-.24.288V7.34c.192.024.528.024 1.02.024.696 0 1.212-.132 1.536-.396.312-.264.48-.72.48-1.368v-.156c0-.576-.156-.996-.444-1.26-.3-.252-.792-.384-1.488-.384q-.54 0-.864.036m5.795-.396v6.48c0 .168.024.276.096.324.072.06.192.084.372.084h1.956c.12 0 .18.06.18.156v.36c0 .108-.06.156-.18.156h-2.16c-.384 0-.66-.072-.828-.228-.18-.156-.264-.396-.264-.732v-6.6c0-.132.06-.204.192-.204h.432c.132 0 .204.072.204.204m7.703 7.188-3.144-6.588h-.084v6.756c0 .144-.06.204-.168.204h-.432c-.12 0-.168-.06-.168-.204v-7.2c0-.144.024-.24.084-.288.048-.048.156-.072.312-.072h.588c.144 0 .264.036.336.084q.108.09.216.288l3.144 6.612h.084V3.44c0-.132.048-.204.168-.204h.432c.108 0 .168.072.168.204v7.2c0 .144-.036.24-.084.288-.06.048-.168.072-.312.072h-.588c-.156 0-.276-.024-.348-.084-.072-.048-.144-.144-.204-.288m3.714-5.316h.12c.336 0 .516.156.516.468v.288c0 .312-.18.468-.516.468h-.12c-.348 0-.516-.156-.516-.468V5.78c0-.312.168-.468.516-.468m0 4.572h.12c.336 0 .516.156.516.468v.288c0 .312-.18.468-.516.468h-.12c-.348 0-.516-.156-.516-.468v-.288c0-.312.168-.468.516-.468m8.254-.876h-3.288c-.156 0-.228-.072-.228-.24v-.204q0-.126.216-.504l2.724-4.632c.072-.12.192-.192.384-.192h.72c.192 0 .3.096.3.264v4.8h.78c.132 0 .204.06.204.168v.348c0 .132-.072.192-.204.192h-.78v1.788c0 .144-.072.204-.192.204h-.456c-.12 0-.18-.06-.18-.204zm0-.708V3.968h-.084L287.926 8.3zm3.402 1.584h.18c.372 0 .564.204.564.612v.228c0 .264-.06.552-.156.864q-.198.522-.504.9c-.072.096-.156.12-.252.06l-.216-.132c-.096-.048-.096-.12-.012-.228.072-.096.144-.228.24-.396.072-.144.132-.276.168-.408.024-.096.012-.168-.06-.216l-.216-.108c-.156-.072-.228-.24-.228-.492v-.228c0-.3.156-.456.492-.456m5.823-1.248v-.108c0-.564-.132-.984-.372-1.272-.264-.276-.648-.42-1.176-.42s-.996.132-1.416.396c-.108.072-.192.084-.264.048l-.18-.072c-.084-.024-.12-.096-.096-.204l.252-3.552c0-.144.084-.216.24-.216h3.144c.144 0 .216.072.216.192v.288c0 .132-.084.192-.24.192h-2.544c-.108 0-.168.06-.168.156l-.168 2.424c.372-.24.84-.36 1.416-.36.768 0 1.344.228 1.728.672.336.408.504.984.504 1.704v.132c0 .84-.24 1.464-.696 1.872s-1.092.6-1.932.6a4.1 4.1 0 0 1-1.872-.432c-.132-.06-.18-.144-.132-.252l.12-.324c.036-.12.12-.144.264-.084.492.288 1.032.42 1.632.42s1.044-.144 1.32-.444c.276-.288.42-.732.42-1.356m7.266-1.68v.324c0 1.548-.264 2.604-.78 3.18-.384.432-.96.648-1.716.648-.768 0-1.332-.216-1.716-.648-.528-.576-.78-1.632-.78-3.18v-.324c0-1.536.252-2.604.78-3.18.384-.432.948-.648 1.716-.648.756 0 1.332.216 1.716.648.516.576.78 1.644.78 3.18m-4.116.084v.156c0 1.296.144 2.172.456 2.64.24.408.636.6 1.164.6s.912-.192 1.164-.6c.3-.468.456-1.344.456-2.64V7.04c0-1.284-.156-2.16-.456-2.64-.252-.396-.636-.6-1.164-.6s-.924.204-1.164.6c-.312.48-.456 1.356-.456 2.64m6.871 3.912 4.248-7.68a.25.25 0 0 1 .228-.144h.456c.12 0 .156.06.108.156l-4.248 7.68a.29.29 0 0 1-.264.144h-.42c-.12 0-.156-.048-.108-.156m1.56-5.76v.132c0 .828-.156 1.392-.468 1.704q-.36.36-1.044.36t-1.044-.36c-.312-.312-.468-.876-.468-1.704v-.132c0-.816.156-1.392.468-1.704q.36-.36 1.044-.36t1.044.36c.312.312.468.888.468 1.704m-.732.12v-.108q0-.828-.18-1.152c-.12-.204-.312-.312-.6-.312s-.492.108-.612.312c-.12.216-.168.6-.168 1.152v.108c0 .564.048.948.168 1.152.12.216.324.312.612.312s.48-.096.6-.312q.18-.306.18-1.152m5.676 3.6v.132c0 .828-.156 1.392-.468 1.704q-.36.36-1.044.36t-1.044-.36c-.312-.312-.468-.876-.468-1.704v-.132c0-.816.156-1.392.468-1.704q.36-.36 1.044-.36t1.044.36c.312.312.468.888.468 1.704m-.732.12v-.108q0-.828-.18-1.152c-.12-.204-.312-.312-.6-.312s-.492.108-.612.312c-.12.216-.168.6-.168 1.152v.108c0 .564.048.948.168 1.152.12.216.324.312.612.312s.48-.096.6-.312q.18-.306.18-1.152m6.775-6.228c.084-.108.192-.132.312-.084l.288.144c.096.06.12.132.06.228-.984 1.32-1.476 2.808-1.476 4.476q0 1.296.324 2.34c.216.696.6 1.416 1.14 2.136.072.096.036.18-.084.24l-.276.144c-.108.06-.204.036-.276-.072-1.128-1.44-1.692-3.036-1.692-4.764 0-.864.12-1.68.384-2.436.252-.744.684-1.536 1.296-2.352m4.658 2.604h.54c.216 0 .36.12.408.336a64 64 0 0 0 1.092 4.644h.06c.444-1.704.816-3.42 1.116-5.124 0-.072.024-.108.048-.12a.4.4 0 0 1 .168-.024h.372q.126 0 .18.036c.024.024.036.06.036.132q-.396 2.016-1.224 5.22c-.096.336-.264.492-.504.492h-.408c-.156 0-.276-.036-.348-.108-.084-.072-.144-.192-.192-.384a76 76 0 0 1-1.032-4.38h-.084c-.312 1.5-.66 2.964-1.032 4.38a.8.8 0 0 1-.192.384.53.53 0 0 1-.348.108h-.408c-.252 0-.42-.156-.504-.492q-.846-3.204-1.224-5.22c-.012-.072 0-.108.036-.132q.036-.036.18-.036h.372q.18 0 .216.144c.288 1.704.66 3.42 1.116 5.124h.06a80 80 0 0 0 1.092-4.644c.048-.216.18-.336.408-.336M337.449 11h-.564c-.624 0-1.08-.156-1.344-.48-.264-.312-.396-.768-.396-1.38V5.804h-.732c-.084 0-.12-.036-.12-.132v-.24c0-.096.036-.144.12-.156l.732-.156V3.764q0-.144.144-.144h.504c.084 0 .132.048.132.144V5.12h1.404c.072 0 .12.048.12.12v.444c0 .084-.048.12-.12.12h-1.404v3.24c0 .48.072.816.216.984.144.204.444.3.876.3h.432c.096 0 .144.048.144.132v.408c0 .096-.048.132-.144.132m2.045 1.836c.324-.636.612-1.272.876-1.92-.36 0-.636-.252-.804-.756a26 26 0 0 1-.672-2.064 53 53 0 0 1-.732-2.82c-.024-.096.012-.156.132-.156h.54c.072 0 .108.036.132.108.168.852.384 1.74.636 2.664.132.528.336 1.176.6 1.944.048.144.096.252.156.3.048.06.132.084.228.084h.048c.456-1.248.888-2.916 1.308-5.004.012-.06.06-.096.132-.096h.552c.048 0 .072.012.096.036s.024.048.024.072c-.372 1.74-.756 3.18-1.14 4.332a38 38 0 0 1-1.404 3.576c-.048.108-.132.132-.252.084l-.396-.144c-.108-.036-.132-.12-.06-.24m4.377-2.016V5.252c0-.084.036-.132.132-.132h.348c.084 0 .132.048.144.132l.06.48h.024c.096-.168.264-.312.492-.456.3-.168.672-.264 1.116-.264.84 0 1.44.276 1.788.828h.024c.42-.552 1.044-.828 1.86-.828.72 0 1.248.192 1.584.564.312.372.48.972.48 1.788v3.456c0 .12-.072.18-.192.18h-.408q-.18 0-.18-.18V7.316c0-.552-.108-.948-.3-1.212-.24-.276-.6-.42-1.104-.42q-.972 0-1.512.72c.048.312.072.636.072.96v3.456q0 .18-.18.18h-.408c-.132 0-.192-.06-.192-.18V7.316q0-.882-.36-1.26c-.24-.24-.624-.372-1.128-.372-.552 0-.948.168-1.164.504q-.216.324-.216.936v3.696q0 .18-.18.18h-.42q-.18 0-.18-.18m12.973-2.88v.228c0 .6.036 1.032.12 1.32.18.636.648.948 1.392.948s1.212-.312 1.404-.948c.072-.288.12-.72.12-1.32V7.94c0-.588-.048-1.032-.12-1.32q-.27-.936-1.404-.936c-.756 0-1.224.312-1.392.936-.084.288-.12.732-.12 1.32m3.828-.12v.48c0 1.08-.216 1.836-.624 2.244-.384.384-.948.564-1.692.564s-1.296-.18-1.68-.564c-.42-.408-.624-1.164-.624-2.244v-.48c0-1.08.204-1.836.624-2.256.372-.36.936-.552 1.68-.552s1.308.192 1.692.552c.408.42.624 1.176.624 2.256m3.775 3.288c-.768 0-1.32-.204-1.644-.636h-.024v2.52c0 .096-.048.132-.12.132h-.54c-.084 0-.12-.036-.12-.132v-7.74c0-.084.036-.132.12-.132h.36c.084 0 .132.048.144.132l.072.48h.024c.336-.48.924-.72 1.74-.72.78 0 1.344.216 1.68.648s.516 1.104.516 2.04v.624q0 1.386-.504 2.088c-.336.468-.9.696-1.704.696m-.096-5.424c-1.056 0-1.572.504-1.572 1.512v1.692c0 .516.132.9.42 1.164.276.264.672.384 1.176.384.528 0 .924-.144 1.164-.444q.324-.396.324-1.728v-.456c0-.84-.132-1.416-.372-1.716-.24-.264-.612-.408-1.14-.408M368.599 11h-.384c-.132 0-.192-.048-.192-.156V5.252c0-.084.048-.132.144-.132h.348c.072 0 .12.048.144.132l.048.624h.024c.264-.504.732-.756 1.392-.756h.312c.096 0 .156.048.156.144v.408c0 .096-.06.132-.156.132h-.324c-.528 0-.9.168-1.092.492-.144.24-.216.552-.216.948v3.6c0 .108-.072.156-.204.156m3.526-3.06v.228c0 .6.036 1.032.12 1.32.18.636.648.948 1.392.948s1.212-.312 1.404-.948c.072-.288.12-.72.12-1.32V7.94c0-.588-.048-1.032-.12-1.32q-.27-.936-1.404-.936c-.756 0-1.224.312-1.392.936-.084.288-.12.732-.12 1.32m3.828-.12v.48c0 1.08-.216 1.836-.624 2.244-.384.384-.948.564-1.692.564s-1.296-.18-1.68-.564c-.42-.408-.624-1.164-.624-2.244v-.48c0-1.08.204-1.836.624-2.256.372-.36.936-.552 1.68-.552s1.308.192 1.692.552c.408.42.624 1.176.624 2.256m4.915 2.472.084.276q.036.126 0 .18c-.024.036-.084.072-.204.12-.396.168-.852.24-1.368.24-.744 0-1.296-.168-1.656-.516-.468-.42-.696-1.212-.696-2.376V7.82c0-1.056.24-1.812.732-2.268q.576-.54 1.62-.54c.312 0 .636.06.948.156.312.108.576.228.768.372.06.048.06.12.012.192l-.204.336c-.048.072-.108.084-.204.024-.456-.264-.888-.408-1.32-.408-.468 0-.828.132-1.08.372-.324.324-.48.948-.48 1.872v.204c0 .912.12 1.536.384 1.848.24.312.636.456 1.212.456.384 0 .768-.072 1.164-.228.156-.06.252-.036.288.084m5.438-3.228v.984c0 .168-.036.288-.096.36-.072.072-.18.096-.348.096h-3.096c.024.72.144 1.224.384 1.512.228.288.624.42 1.188.42a3.4 3.4 0 0 0 1.32-.24c.156-.06.252-.036.288.084l.084.276a.23.23 0 0 1-.012.18q-.036.072-.252.144c-.408.156-.888.228-1.428.228-.876 0-1.488-.216-1.836-.66-.36-.432-.528-1.152-.528-2.148v-.48c0-.96.168-1.668.516-2.124.336-.456.924-.684 1.74-.684.684 0 1.2.168 1.548.492.348.348.528.864.528 1.56m-2.064-1.38c-.528 0-.912.156-1.128.456-.228.312-.348.864-.348 1.68h2.58c.06 0 .108 0 .132-.024s.036-.072.036-.156v-.456c0-.516-.096-.888-.276-1.116-.216-.252-.54-.384-.996-.384m7.945 5.112c0 .144-.084.204-.228.204h-.336q-.144 0-.18-.036c-.024-.024-.036-.072-.036-.168V7.292c0-.708-.192-1.176-.552-1.404-.24-.144-.564-.228-.972-.228-.564 0-.96.168-1.176.504q-.216.324-.216.936v3.72q0 .18-.216.18h-.372c-.132 0-.192-.06-.192-.18V5.252c0-.084.036-.132.12-.132h.36c.084 0 .132.048.144.132l.06.48h.024c.096-.168.264-.312.492-.456.3-.168.672-.264 1.128-.264.924 0 1.548.276 1.86.804q.288.504.288 1.548zm4.102.204h-.564c-.624 0-1.08-.156-1.344-.48-.264-.312-.396-.768-.396-1.38V5.804h-.732c-.084 0-.12-.036-.12-.132v-.24c0-.096.036-.144.12-.156l.732-.156V3.764q0-.144.144-.144h.504c.084 0 .132.048.132.144V5.12h1.404c.072 0 .12.048.12.12v.444c0 .084-.048.12-.12.12h-1.404v3.24c0 .48.072.816.216.984.144.204.444.3.876.3h.432c.096 0 .144.048.144.132v.408c0 .096-.048.132-.144.132m1.793-3.06v.228c0 .6.036 1.032.12 1.32.18.636.648.948 1.392.948s1.212-.312 1.404-.948c.072-.288.12-.72.12-1.32V7.94c0-.588-.048-1.032-.12-1.32q-.27-.936-1.404-.936c-.756 0-1.224.312-1.392.936-.084.288-.12.732-.12 1.32m3.828-.12v.48c0 1.08-.216 1.836-.624 2.244-.384.384-.948.564-1.692.564s-1.296-.18-1.68-.564c-.42-.408-.624-1.164-.624-2.244v-.48c0-1.08.204-1.836.624-2.256.372-.36.936-.552 1.68-.552s1.308.192 1.692.552c.408.42.624 1.176.624 2.256m4.267-2.412h.54c.216 0 .36.12.408.336a64 64 0 0 0 1.092 4.644h.06c.444-1.704.816-3.42 1.116-5.124 0-.072.024-.108.048-.12a.4.4 0 0 1 .168-.024h.372q.126 0 .18.036c.024.024.036.06.036.132q-.396 2.016-1.224 5.22c-.096.336-.264.492-.504.492h-.408c-.156 0-.276-.036-.348-.108-.084-.072-.144-.192-.192-.384a76 76 0 0 1-1.032-4.38h-.084c-.312 1.5-.66 2.964-1.032 4.38a.8.8 0 0 1-.192.384.53.53 0 0 1-.348.108h-.408c-.252 0-.42-.156-.504-.492q-.846-3.204-1.224-5.22c-.012-.072 0-.108.036-.132q.036-.036.18-.036h.372q.18 0 .216.144c.288 1.704.66 3.42 1.116 5.124h.06a80 80 0 0 0 1.092-4.644c.048-.216.18-.336.408-.336m8.341 5.472-.024-.408h-.024c-.264.432-.696.636-1.272.636h-.6c-.576 0-.996-.144-1.284-.432s-.432-.66-.432-1.128v-.36q0-1.134.936-1.512c.264-.108.744-.168 1.44-.168h.36c.288 0 .564.012.804.036V6.86c0-.432-.12-.744-.348-.912-.24-.168-.6-.264-1.104-.264-.42 0-.828.06-1.236.18-.192.048-.288.024-.312-.096l-.06-.252c-.048-.144 0-.228.132-.276a5.5 5.5 0 0 1 1.536-.228c.768 0 1.32.144 1.656.42s.516.72.516 1.344v4.104c0 .084-.048.12-.132.12h-.396c-.108 0-.156-.036-.156-.12m-.096-1.68v-.996a6 6 0 0 0-.72-.036h-.672c-.504 0-.852.084-1.056.24s-.3.42-.3.792v.252c0 .36.084.624.252.78.144.144.396.216.732.216h.492c.396 0 .708-.096.936-.312.216-.216.336-.528.336-.936m6.851 1.596c0 .144-.084.204-.228.204h-.336q-.144 0-.18-.036c-.024-.024-.036-.072-.036-.168V7.292c0-.708-.192-1.176-.552-1.404-.24-.144-.564-.228-.972-.228-.564 0-.96.168-1.176.504q-.216.324-.216.936v3.72q0 .18-.216.18h-.372c-.132 0-.192-.06-.192-.18V5.252c0-.084.036-.132.12-.132h.36c.084 0 .132.048.144.132l.06.48h.024c.096-.168.264-.312.492-.456.3-.168.672-.264 1.128-.264.924 0 1.548.276 1.86.804q.288.504.288 1.548zm2.53-5.544v5.652c0 .072-.036.096-.108.096h-.576c-.072 0-.096-.024-.096-.096V5.252c0-.084.048-.132.144-.132h.492c.096 0 .144.048.144.132m.168-1.716v.072c0 .384-.18.576-.528.576h-.048c-.372 0-.552-.192-.552-.576v-.072c0-.372.18-.564.552-.564h.048c.348 0 .528.192.528.564m5.682 3.528v.984c0 .168-.036.288-.096.36-.072.072-.18.096-.348.096h-3.096c.024.72.144 1.224.384 1.512.228.288.624.42 1.188.42a3.4 3.4 0 0 0 1.32-.24c.156-.06.252-.036.288.084l.084.276a.23.23 0 0 1-.012.18q-.036.072-.252.144c-.408.156-.888.228-1.428.228-.876 0-1.488-.216-1.836-.66-.36-.432-.528-1.152-.528-2.148v-.48c0-.96.168-1.668.516-2.124.336-.456.924-.684 1.74-.684.684 0 1.2.168 1.548.492.348.348.528.864.528 1.56m-2.064-1.38c-.528 0-.912.156-1.128.456-.228.312-.348.864-.348 1.68h2.58c.06 0 .108 0 .132-.024s.036-.072.036-.156v-.456c0-.516-.096-.888-.276-1.116-.216-.252-.54-.384-.996-.384m8.502 4.752c.6 0 1.008-.156 1.236-.468.228-.324.348-.9.348-1.716v-.408c0-.864-.168-1.464-.48-1.788-.252-.24-.636-.372-1.14-.372-.516 0-.888.12-1.128.36a1.04 1.04 0 0 0-.264.456c-.048.18-.06.444-.06.78v1.644c0 .48.084.828.252 1.056.216.312.624.456 1.236.456m-1.488-7.428v2.58h.024q.45-.576 1.512-.576 1.188 0 1.764.684c.372.456.564 1.152.564 2.1v.552c0 1.008-.204 1.728-.6 2.136-.396.42-.996.624-1.788.624-.864 0-1.464-.204-1.812-.624-.3-.348-.444-.84-.444-1.476v-6c0-.084.048-.132.144-.132h.492c.096 0 .144.048.144.132m8.521 7.872-.024-.408h-.024c-.264.432-.696.636-1.272.636h-.6c-.576 0-.996-.144-1.284-.432s-.432-.66-.432-1.128v-.36q0-1.134.936-1.512c.264-.108.744-.168 1.44-.168h.36c.288 0 .564.012.804.036V6.86c0-.432-.12-.744-.348-.912-.24-.168-.6-.264-1.104-.264-.42 0-.828.06-1.236.18-.192.048-.288.024-.312-.096l-.06-.252c-.048-.144 0-.228.132-.276a5.5 5.5 0 0 1 1.536-.228c.768 0 1.32.144 1.656.42s.516.72.516 1.344v4.104c0 .084-.048.12-.132.12h-.396c-.108 0-.156-.036-.156-.12m-.096-1.68v-.996a6 6 0 0 0-.72-.036h-.672c-.504 0-.852.084-1.056.24s-.3.42-.3.792v.252c0 .36.084.624.252.78.144.144.396.216.732.216h.492c.396 0 .708-.096.936-.312.216-.216.336-.528.336-.936m5.926 1.248v.432c0 .084-.048.12-.12.12h-3.744c-.084 0-.12-.036-.12-.12v-.204c0-.12.072-.288.216-.528l2.64-4.356h-2.652c-.084 0-.12-.036-.12-.12V5.24c0-.072.036-.12.12-.12h3.552c.072 0 .12.048.12.12v.168c0 .144-.108.384-.312.72l-2.58 4.2h2.88c.072 0 .12.048.12.12m1.569-2.508v.228c0 .6.036 1.032.12 1.32.18.636.648.948 1.392.948s1.212-.312 1.404-.948c.072-.288.12-.72.12-1.32V7.94c0-.588-.048-1.032-.12-1.32q-.27-.936-1.404-.936c-.756 0-1.224.312-1.392.936-.084.288-.12.732-.12 1.32m3.828-.12v.48c0 1.08-.216 1.836-.624 2.244-.384.384-.948.564-1.692.564s-1.296-.18-1.68-.564c-.42-.408-.624-1.164-.624-2.244v-.48c0-1.08.204-1.836.624-2.256.372-.36.936-.552 1.68-.552s1.308.192 1.692.552c.408.42.624 1.176.624 2.256m4.268-2.412h.54c.216 0 .36.12.408.336a64 64 0 0 0 1.092 4.644h.06c.444-1.704.816-3.42 1.116-5.124 0-.072.024-.108.048-.12a.4.4 0 0 1 .168-.024h.372q.126 0 .18.036c.024.024.036.06.036.132q-.396 2.016-1.224 5.22c-.096.336-.264.492-.504.492h-.408c-.156 0-.276-.036-.348-.108-.084-.072-.144-.192-.192-.384a76 76 0 0 1-1.032-4.38h-.084c-.312 1.5-.66 2.964-1.032 4.38a.8.8 0 0 1-.192.384.53.53 0 0 1-.348.108h-.408c-.252 0-.42-.156-.504-.492q-.846-3.204-1.224-5.22c-.012-.072 0-.108.036-.132q.036-.036.18-.036h.372q.18 0 .216.144c.288 1.704.66 3.42 1.116 5.124h.06a80 80 0 0 0 1.092-4.644c.048-.216.18-.336.408-.336m9.144 1.656v.984c0 .168-.036.288-.096.36-.072.072-.18.096-.348.096h-3.096c.024.72.144 1.224.384 1.512.228.288.624.42 1.188.42a3.4 3.4 0 0 0 1.32-.24c.156-.06.252-.036.288.084l.084.276a.23.23 0 0 1-.012.18q-.036.072-.252.144c-.408.156-.888.228-1.428.228-.876 0-1.488-.216-1.836-.66-.36-.432-.528-1.152-.528-2.148v-.48c0-.96.168-1.668.516-2.124.336-.456.924-.684 1.74-.684.684 0 1.2.168 1.548.492.348.348.528.864.528 1.56m-2.064-1.38c-.528 0-.912.156-1.128.456-.228.312-.348.864-.348 1.68h2.58c.06 0 .108 0 .132-.024s.036-.072.036-.156v-.456c0-.516-.096-.888-.276-1.116-.216-.252-.54-.384-.996-.384m3.973-.372h.12c.336 0 .516.156.516.468v.288c0 .312-.18.468-.516.468h-.12c-.348 0-.516-.156-.516-.468V5.78c0-.312.168-.468.516-.468m0 4.572h.12c.336 0 .516.156.516.468v.288c0 .312-.18.468-.516.468h-.12c-.348 0-.516-.156-.516-.468v-.288c0-.312.168-.468.516-.468m9.897-2.928v.324c0 1.548-.264 2.604-.78 3.18-.384.432-.96.648-1.716.648-.768 0-1.332-.216-1.716-.648-.528-.576-.78-1.632-.78-3.18v-.324c0-1.536.252-2.604.78-3.18.384-.432.948-.648 1.716-.648.756 0 1.332.216 1.716.648.516.576.78 1.644.78 3.18m-4.116.084v.156c0 1.296.144 2.172.456 2.64.24.408.636.6 1.164.6s.912-.192 1.164-.6c.3-.468.456-1.344.456-2.64V7.04c0-1.284-.156-2.16-.456-2.64-.252-.396-.636-.6-1.164-.6s-.924.204-1.164.6c-.312.48-.456 1.356-.456 2.64m5.875 2.844h.18c.372 0 .564.204.564.612v.228c0 .264-.06.552-.156.864q-.198.522-.504.9c-.072.096-.156.12-.252.06l-.216-.132c-.096-.048-.096-.12-.012-.228.072-.096.144-.228.24-.396.072-.144.132-.276.168-.408.024-.096.012-.168-.06-.216l-.216-.108c-.156-.072-.228-.24-.228-.492v-.228c0-.3.156-.456.492-.456m6.854-2.928v.324c0 1.548-.264 2.604-.78 3.18-.384.432-.96.648-1.716.648-.768 0-1.332-.216-1.716-.648-.528-.576-.78-1.632-.78-3.18v-.324c0-1.536.252-2.604.78-3.18.384-.432.948-.648 1.716-.648.756 0 1.332.216 1.716.648.516.576.78 1.644.78 3.18m-4.116.084v.156c0 1.296.144 2.172.456 2.64.24.408.636.6 1.164.6s.912-.192 1.164-.6c.3-.468.456-1.344.456-2.64V7.04c0-1.284-.156-2.16-.456-2.64-.252-.396-.636-.6-1.164-.6s-.924.204-1.164.6c-.312.48-.456 1.356-.456 2.64m9.319 1.596v-.108c0-.564-.132-.984-.372-1.272-.264-.276-.648-.42-1.176-.42s-.996.132-1.416.396c-.108.072-.192.084-.264.048l-.18-.072c-.084-.024-.12-.096-.096-.204l.252-3.552c0-.144.084-.216.24-.216h3.144c.144 0 .216.072.216.192v.288c0 .132-.084.192-.24.192h-2.544c-.108 0-.168.06-.168.156l-.168 2.424c.372-.24.84-.36 1.416-.36.768 0 1.344.228 1.728.672.336.408.504.984.504 1.704v.132c0 .84-.24 1.464-.696 1.872s-1.092.6-1.932.6a4.1 4.1 0 0 1-1.872-.432c-.132-.06-.18-.144-.132-.252l.12-.324c.036-.12.12-.144.264-.084.492.288 1.032.42 1.632.42s1.044-.144 1.32-.444c.276-.288.42-.732.42-1.356m3.786 2.316 4.248-7.68a.25.25 0 0 1 .228-.144h.456c.12 0 .156.06.108.156l-4.248 7.68a.29.29 0 0 1-.264.144h-.42c-.12 0-.156-.048-.108-.156m1.56-5.76v.132c0 .828-.156 1.392-.468 1.704q-.36.36-1.044.36t-1.044-.36c-.312-.312-.468-.876-.468-1.704v-.132c0-.816.156-1.392.468-1.704q.36-.36 1.044-.36t1.044.36c.312.312.468.888.468 1.704m-.732.12v-.108q0-.828-.18-1.152c-.12-.204-.312-.312-.6-.312s-.492.108-.612.312c-.12.216-.168.6-.168 1.152v.108c0 .564.048.948.168 1.152.12.216.324.312.612.312s.48-.096.6-.312q.18-.306.18-1.152m5.676 3.6v.132c0 .828-.156 1.392-.468 1.704q-.36.36-1.044.36t-1.044-.36c-.312-.312-.468-.876-.468-1.704v-.132c0-.816.156-1.392.468-1.704q.36-.36 1.044-.36t1.044.36c.312.312.468.888.468 1.704m-.732.12v-.108q0-.828-.18-1.152c-.12-.204-.312-.312-.6-.312s-.492.108-.612.312c-.12.216-.168.6-.168 1.152v.108c0 .564.048.948.168 1.152.12.216.324.312.612.312s.48-.096.6-.312q.18-.306.18-1.152m2.595.852h.18c.372 0 .564.204.564.612v.228c0 .264-.06.552-.156.864q-.198.522-.504.9c-.072.096-.156.12-.252.06l-.216-.132c-.096-.048-.096-.12-.012-.228.072-.096.144-.228.24-.396.072-.144.132-.276.168-.408.024-.096.012-.168-.06-.216l-.216-.108c-.156-.072-.228-.24-.228-.492v-.228c0-.3.156-.456.492-.456M1.332 21.94v.228c0 .6.036 1.032.12 1.32.18.636.648.948 1.392.948s1.212-.312 1.404-.948c.072-.288.12-.72.12-1.32v-.228c0-.588-.048-1.032-.12-1.32q-.27-.936-1.404-.936c-.756 0-1.224.312-1.392.936-.084.288-.12.732-.12 1.32m3.828-.12v.48c0 1.08-.216 1.836-.624 2.244-.384.384-.948.564-1.692.564s-1.296-.18-1.68-.564C.744 24.136.54 23.38.54 22.3v-.48c0-1.08.204-1.836.624-2.256.372-.36.936-.552 1.68-.552s1.308.192 1.692.552c.408.42.624 1.176.624 2.256m3.775 3.288c-.768 0-1.32-.204-1.644-.636h-.024v2.52c0 .096-.048.132-.12.132h-.54c-.084 0-.12-.036-.12-.132v-7.74c0-.084.036-.132.12-.132h.36c.084 0 .132.048.144.132l.072.48h.024c.336-.48.924-.72 1.74-.72.78 0 1.344.216 1.68.648s.516 1.104.516 2.04v.624q0 1.386-.504 2.088c-.336.468-.9.696-1.704.696m-.096-5.424c-1.056 0-1.572.504-1.572 1.512v1.692c0 .516.132.9.42 1.164.276.264.672.384 1.176.384.528 0 .924-.144 1.164-.444q.324-.396.324-1.728v-.456c0-.84-.132-1.416-.372-1.716-.24-.264-.612-.408-1.14-.408M13.088 25h-.384c-.132 0-.192-.048-.192-.156v-5.592c0-.084.048-.132.144-.132h.348c.072 0 .12.048.144.132l.048.624h.024c.264-.504.732-.756 1.392-.756h.312c.096 0 .156.048.156.144v.408c0 .096-.06.132-.156.132H14.6c-.528 0-.9.168-1.092.492-.144.24-.216.552-.216.948v3.6c0 .108-.072.156-.204.156m3.525-3.06v.228c0 .6.036 1.032.12 1.32.18.636.648.948 1.392.948s1.212-.312 1.404-.948c.072-.288.12-.72.12-1.32v-.228c0-.588-.048-1.032-.12-1.32q-.27-.936-1.404-.936c-.756 0-1.224.312-1.392.936-.084.288-.12.732-.12 1.32m3.828-.12v.48c0 1.08-.216 1.836-.624 2.244-.384.384-.948.564-1.692.564s-1.296-.18-1.68-.564c-.42-.408-.624-1.164-.624-2.244v-.48c0-1.08.204-1.836.624-2.256.372-.36.936-.552 1.68-.552s1.308.192 1.692.552c.408.42.624 1.176.624 2.256m4.916 2.472.084.276q.036.126 0 .18c-.024.036-.084.072-.204.12-.396.168-.852.24-1.368.24-.744 0-1.296-.168-1.656-.516-.468-.42-.696-1.212-.696-2.376v-.396c0-1.056.24-1.812.732-2.268q.576-.54 1.62-.54c.312 0 .636.06.948.156.312.108.576.228.768.372.06.048.06.12.012.192l-.204.336c-.048.072-.108.084-.204.024-.456-.264-.888-.408-1.32-.408-.468 0-.828.132-1.08.372-.324.324-.48.948-.48 1.872v.204c0 .912.12 1.536.384 1.848.24.312.636.456 1.212.456.384 0 .768-.072 1.164-.228.156-.06.252-.036.288.084m5.437-3.228v.984c0 .168-.036.288-.096.36-.072.072-.18.096-.348.096h-3.096c.024.72.144 1.224.384 1.512.228.288.624.42 1.188.42a3.4 3.4 0 0 0 1.32-.24c.156-.06.252-.036.288.084l.084.276a.23.23 0 0 1-.012.18q-.036.072-.252.144c-.408.156-.888.228-1.428.228-.876 0-1.488-.216-1.836-.66-.36-.432-.528-1.152-.528-2.148v-.48c0-.96.168-1.668.516-2.124.336-.456.924-.684 1.74-.684.684 0 1.2.168 1.548.492.348.348.528.864.528 1.56m-2.064-1.38c-.528 0-.912.156-1.128.456-.228.312-.348.864-.348 1.68h2.58c.06 0 .108 0 .132-.024s.036-.072.036-.156v-.456c0-.516-.096-.888-.276-1.116-.216-.252-.54-.384-.996-.384m7.945 5.112c0 .144-.084.204-.228.204h-.336q-.144 0-.18-.036c-.024-.024-.036-.072-.036-.168v-3.504c0-.708-.192-1.176-.552-1.404-.24-.144-.564-.228-.972-.228-.564 0-.96.168-1.176.504q-.216.324-.216.936v3.72q0 .18-.216.18h-.372c-.132 0-.192-.06-.192-.18v-5.568c0-.084.036-.132.12-.132h.36c.084 0 .132.048.144.132l.06.48h.024c.096-.168.264-.312.492-.456.3-.168.672-.264 1.128-.264.924 0 1.548.276 1.86.804q.288.504.288 1.548zm4.102.204h-.564c-.624 0-1.08-.156-1.344-.48-.264-.312-.396-.768-.396-1.38v-3.336h-.732c-.084 0-.12-.036-.12-.132v-.24c0-.096.036-.144.12-.156l.732-.156v-1.356q0-.144.144-.144h.504c.084 0 .132.048.132.144v1.356h1.404c.072 0 .12.048.12.12v.444c0 .084-.048.12-.12.12h-1.404v3.24c0 .48.072.816.216.984.144.204.444.3.876.3h.432c.096 0 .144.048.144.132v.408c0 .096-.048.132-.144.132m1.793-3.06v.228c0 .6.036 1.032.12 1.32.18.636.648.948 1.392.948s1.212-.312 1.404-.948c.072-.288.12-.72.12-1.32v-.228c0-.588-.048-1.032-.12-1.32q-.27-.936-1.404-.936c-.756 0-1.224.312-1.392.936-.084.288-.12.732-.12 1.32m3.828-.12v.48c0 1.08-.216 1.836-.624 2.244-.384.384-.948.564-1.692.564s-1.296-.18-1.68-.564c-.42-.408-.624-1.164-.624-2.244v-.48c0-1.08.204-1.836.624-2.256.372-.36.936-.552 1.68-.552s1.308.192 1.692.552c.408.42.624 1.176.624 2.256m4.268-2.412h.54c.216 0 .36.12.408.336a64 64 0 0 0 1.092 4.644h.06c.444-1.704.816-3.42 1.116-5.124 0-.072.024-.108.048-.12a.4.4 0 0 1 .168-.024h.372q.126 0 .18.036c.024.024.036.06.036.132q-.396 2.016-1.224 5.22c-.096.336-.264.492-.504.492h-.408c-.156 0-.276-.036-.348-.108-.084-.072-.144-.192-.192-.384a76 76 0 0 1-1.032-4.38h-.084c-.312 1.5-.66 2.964-1.032 4.38a.8.8 0 0 1-.192.384.53.53 0 0 1-.348.108h-.408c-.252 0-.42-.156-.504-.492q-.846-3.204-1.224-5.22c-.012-.072 0-.108.036-.132q.036-.036.18-.036h.372q.18 0 .216.144c.288 1.704.66 3.42 1.116 5.124h.06a80 80 0 0 0 1.092-4.644c.048-.216.18-.336.408-.336m8.34 5.472-.023-.408h-.024c-.264.432-.696.636-1.272.636h-.6c-.576 0-.996-.144-1.284-.432s-.432-.66-.432-1.128v-.36q0-1.134.936-1.512c.264-.108.744-.168 1.44-.168h.36c.288 0 .564.012.804.036v-.684c0-.432-.12-.744-.348-.912-.24-.168-.6-.264-1.104-.264-.42 0-.828.06-1.236.18-.192.048-.288.024-.312-.096l-.06-.252c-.048-.144 0-.228.132-.276a5.5 5.5 0 0 1 1.536-.228c.768 0 1.32.144 1.656.42s.516.72.516 1.344v4.104c0 .084-.048.12-.132.12h-.396c-.108 0-.156-.036-.156-.12m-.095-1.68v-.996a6 6 0 0 0-.72-.036h-.672c-.504 0-.852.084-1.056.24s-.3.42-.3.792v.252c0 .36.084.624.252.78.144.144.396.216.732.216h.492c.396 0 .708-.096.936-.312.216-.216.336-.528.336-.936m6.85 1.596c0 .144-.084.204-.228.204h-.336q-.144 0-.18-.036c-.024-.024-.036-.072-.036-.168v-3.504c0-.708-.192-1.176-.552-1.404-.24-.144-.564-.228-.972-.228-.564 0-.96.168-1.176.504q-.216.324-.216.936v3.72q0 .18-.216.18h-.372c-.132 0-.192-.06-.192-.18v-5.568c0-.084.036-.132.12-.132h.36c.084 0 .132.048.144.132l.06.48h.024c.096-.168.264-.312.492-.456.3-.168.672-.264 1.128-.264.924 0 1.548.276 1.86.804q.288.504.288 1.548zm2.53-5.544v5.652c0 .072-.036.096-.108.096h-.576c-.072 0-.096-.024-.096-.096v-5.652c0-.084.048-.132.144-.132h.492c.096 0 .144.048.144.132m.168-1.716v.072c0 .384-.18.576-.528.576h-.048c-.372 0-.552-.192-.552-.576v-.072c0-.372.18-.564.552-.564h.048c.348 0 .528.192.528.564m5.682 3.528v.984c0 .168-.035.288-.096.36-.072.072-.18.096-.347.096h-3.096c.023.72.144 1.224.383 1.512.228.288.624.42 1.189.42a3.4 3.4 0 0 0 1.32-.24c.156-.06.252-.036.287.084l.084.276a.23.23 0 0 1-.011.18q-.037.072-.252.144c-.409.156-.889.228-1.428.228-.877 0-1.489-.216-1.837-.66-.36-.432-.528-1.152-.528-2.148v-.48c0-.96.169-1.668.517-2.124.336-.456.924-.684 1.74-.684.683 0 1.2.168 1.547.492.349.348.528.864.528 1.56m-2.064-1.38c-.528 0-.912.156-1.127.456-.228.312-.349.864-.349 1.68h2.58c.06 0 .109 0 .133-.024s.036-.072.036-.156v-.456c0-.516-.096-.888-.276-1.116-.216-.252-.54-.384-.996-.384m8.706 5.424c-.768 0-1.32-.204-1.644-.636h-.024v2.52c0 .096-.048.132-.12.132h-.54c-.084 0-.12-.036-.12-.132v-7.74c0-.084.036-.132.12-.132h.36c.084 0 .132.048.144.132l.072.48h.024c.336-.48.924-.72 1.74-.72.78 0 1.344.216 1.68.648s.516 1.104.516 2.04v.624q0 1.386-.504 2.088c-.336.468-.9.696-1.704.696m-.096-5.424c-1.056 0-1.572.504-1.572 1.512v1.692c0 .516.132.9.42 1.164.276.264.672.384 1.176.384.528 0 .924-.144 1.164-.444q.324-.396.324-1.728v-.456c0-.84-.132-1.416-.372-1.716-.24-.264-.612-.408-1.14-.408M84.935 25h-.384c-.132 0-.192-.048-.192-.156v-5.592c0-.084.048-.132.144-.132h.348c.072 0 .12.048.144.132l.048.624h.024c.264-.504.732-.756 1.392-.756h.312c.096 0 .156.048.156.144v.408c0 .096-.06.132-.156.132h-.324c-.528 0-.9.168-1.092.492-.144.24-.216.552-.216.948v3.6c0 .108-.072.156-.204.156m3.526-3.06v.228c0 .6.036 1.032.12 1.32.18.636.648.948 1.392.948s1.212-.312 1.404-.948c.072-.288.12-.72.12-1.32v-.228c0-.588-.048-1.032-.12-1.32q-.27-.936-1.404-.936c-.756 0-1.224.312-1.392.936-.084.288-.12.732-.12 1.32m3.828-.12v.48c0 1.08-.216 1.836-.624 2.244-.384.384-.948.564-1.692.564s-1.296-.18-1.68-.564c-.42-.408-.624-1.164-.624-2.244v-.48c0-1.08.204-1.836.624-2.256.372-.36.936-.552 1.68-.552s1.308.192 1.692.552c.408.42.624 1.176.624 2.256m1.363 3v-5.568c0-.084.036-.132.132-.132h.348c.084 0 .132.048.144.132l.06.48h.024c.096-.168.264-.312.492-.456.3-.168.672-.264 1.116-.264.84 0 1.44.276 1.788.828h.024c.42-.552 1.044-.828 1.86-.828.72 0 1.248.192 1.584.564.312.372.48.972.48 1.788v3.456c0 .12-.072.18-.192.18h-.408q-.18 0-.18-.18v-3.504c0-.552-.108-.948-.3-1.212-.24-.276-.6-.42-1.104-.42q-.972 0-1.512.72c.048.312.072.636.072.96v3.456q0 .18-.18.18h-.408c-.132 0-.192-.06-.192-.18v-3.504q0-.882-.36-1.26c-.24-.24-.624-.372-1.128-.372-.552 0-.948.168-1.164.504q-.216.324-.216.936v3.696q0 .18-.18.18h-.42q-.18 0-.18-.18m10.149-2.88v.228c0 .6.036 1.032.12 1.32.18.636.648.948 1.392.948s1.212-.312 1.404-.948c.072-.288.12-.72.12-1.32v-.228c0-.588-.048-1.032-.12-1.32q-.27-.936-1.404-.936c-.756 0-1.224.312-1.392.936-.084.288-.12.732-.12 1.32m3.828-.12v.48c0 1.08-.216 1.836-.624 2.244-.384.384-.948.564-1.692.564s-1.296-.18-1.68-.564c-.42-.408-.624-1.164-.624-2.244v-.48c0-1.08.204-1.836.624-2.256.372-.36.936-.552 1.68-.552s1.308.192 1.692.552c.408.42.624 1.176.624 2.256m4.915 2.472.084.276q.036.126 0 .18c-.024.036-.084.072-.204.12-.396.168-.852.24-1.368.24-.744 0-1.296-.168-1.656-.516-.468-.42-.696-1.212-.696-2.376v-.396c0-1.056.24-1.812.732-2.268q.576-.54 1.62-.54c.312 0 .636.06.948.156.312.108.576.228.768.372.06.048.06.12.012.192l-.204.336c-.048.072-.108.084-.204.024-.456-.264-.888-.408-1.32-.408-.468 0-.828.132-1.08.372-.324.324-.48.948-.48 1.872v.204c0 .912.12 1.536.384 1.848.24.312.636.456 1.212.456.384 0 .768-.072 1.164-.228.156-.06.252-.036.288.084m2.36 2.544c.324-.636.612-1.272.876-1.92-.36 0-.636-.252-.804-.756a26 26 0 0 1-.672-2.064 53 53 0 0 1-.732-2.82c-.024-.096.012-.156.132-.156h.54c.072 0 .108.036.132.108.168.852.384 1.74.636 2.664.132.528.336 1.176.6 1.944.048.144.096.252.156.3.048.06.132.084.228.084h.048c.456-1.248.888-2.916 1.308-5.004.012-.06.06-.096.132-.096h.552c.048 0 .072.012.096.036s.024.048.024.072c-.372 1.74-.756 3.18-1.14 4.332a38 38 0 0 1-1.404 3.576c-.048.108-.132.132-.252.084l-.396-.144c-.108-.036-.132-.12-.06-.24m5.325-7.584v5.676c0 .588-.108 1.056-.3 1.392-.312.552-.852.816-1.62.816h-.432c-.096 0-.132-.048-.132-.144v-.396c0-.096.036-.144.132-.144h.408c.48 0 .816-.18.984-.552.12-.264.18-.6.18-1.032v-5.616c0-.084.048-.132.144-.132h.492c.096 0 .144.048.144.132m.168-1.716v.072c0 .384-.18.576-.528.576h-.048c-.372 0-.552-.192-.552-.576v-.072c0-.372.18-.564.552-.564h.048c.348 0 .528.192.528.564m6.126 7.26c0 .144-.084.204-.228.204h-.336q-.144 0-.18-.036c-.024-.024-.036-.072-.036-.168v-3.504c0-.708-.192-1.176-.552-1.404-.24-.144-.564-.228-.972-.228-.564 0-.96.168-1.176.504q-.216.324-.216.936v3.72q0 .18-.216.18h-.372c-.132 0-.192-.06-.192-.18v-5.568c0-.084.036-.132.12-.132h.36c.084 0 .132.048.144.132l.06.48h.024c.096-.168.264-.312.492-.456.3-.168.672-.264 1.128-.264.924 0 1.548.276 1.86.804q.288.504.288 1.548zm5.638-3.732v.984c0 .168-.036.288-.096.36-.072.072-.18.096-.348.096h-3.096c.024.72.144 1.224.384 1.512.228.288.624.42 1.188.42a3.4 3.4 0 0 0 1.32-.24c.156-.06.252-.036.288.084l.084.276a.23.23 0 0 1-.012.18q-.036.072-.252.144c-.408.156-.888.228-1.428.228-.876 0-1.488-.216-1.836-.66-.36-.432-.528-1.152-.528-2.148v-.48c0-.96.168-1.668.516-2.124.336-.456.924-.684 1.74-.684.684 0 1.2.168 1.548.492.348.348.528.864.528 1.56m-2.064-1.38c-.528 0-.912.156-1.128.456-.228.312-.348.864-.348 1.68h2.58c.06 0 .108 0 .132-.024s.036-.072.036-.156v-.456c0-.516-.096-.888-.276-1.116-.216-.252-.54-.384-.996-.384m3.973-.372h.12c.336 0 .516.156.516.468v.288c0 .312-.18.468-.516.468h-.12c-.348 0-.516-.156-.516-.468v-.288c0-.312.168-.468.516-.468m0 4.572h.12c.336 0 .516.156.516.468v.288c0 .312-.18.468-.516.468h-.12c-.348 0-.516-.156-.516-.468v-.288c0-.312.168-.468.516-.468m8.254-.876h-3.288c-.156 0-.228-.072-.228-.24v-.204q0-.126.216-.504l2.724-4.632c.072-.12.192-.192.384-.192h.72c.192 0 .3.096.3.264v4.8h.78c.132 0 .204.06.204.168v.348c0 .132-.072.192-.204.192h-.78v1.788c0 .144-.072.204-.192.204h-.456c-.12 0-.18-.06-.18-.204zm0-.708v-4.332h-.084l-2.556 4.332zm3.402 1.584h.18c.372 0 .564.204.564.612v.228c0 .264-.06.552-.156.864q-.198.522-.504.9c-.072.096-.156.12-.252.06l-.216-.132c-.096-.048-.096-.12-.012-.228.072-.096.144-.228.24-.396.072-.144.132-.276.168-.408.024-.096.012-.168-.06-.216l-.216-.108c-.156-.072-.228-.24-.228-.492v-.228c0-.3.156-.456.492-.456m5.211-.876h-3.288c-.156 0-.228-.072-.228-.24v-.204q0-.126.216-.504l2.724-4.632c.072-.12.192-.192.384-.192h.72c.192 0 .3.096.3.264v4.8h.78c.132 0 .204.06.204.168v.348c0 .132-.072.192-.204.192h-.78v1.788c0 .144-.072.204-.192.204h-.456c-.12 0-.18-.06-.18-.204zm0-.708v-4.332h-.084l-2.556 4.332zm6.846.336v-.108c0-.564-.132-.984-.372-1.272-.264-.276-.648-.42-1.176-.42s-.996.132-1.416.396c-.108.072-.192.084-.264.048l-.18-.072c-.084-.024-.12-.096-.096-.204l.252-3.552c0-.144.084-.216.24-.216h3.144c.144 0 .216.072.216.192v.288c0 .132-.084.192-.24.192h-2.544c-.108 0-.168.06-.168.156l-.168 2.424c.372-.24.84-.36 1.416-.36.768 0 1.344.228 1.728.672.336.408.504.984.504 1.704v.132c0 .84-.24 1.464-.696 1.872s-1.092.6-1.932.6a4.1 4.1 0 0 1-1.872-.432c-.132-.06-.18-.144-.132-.252l.12-.324c.036-.12.12-.144.264-.084.492.288 1.032.42 1.632.42s1.044-.144 1.32-.444c.276-.288.42-.732.42-1.356m3.787 2.316 4.248-7.68a.25.25 0 0 1 .228-.144h.456c.12 0 .156.06.108.156l-4.248 7.68a.29.29 0 0 1-.264.144h-.42c-.12 0-.156-.048-.108-.156m1.56-5.76v.132c0 .828-.156 1.392-.468 1.704q-.36.36-1.044.36t-1.044-.36c-.312-.312-.468-.876-.468-1.704v-.132c0-.816.156-1.392.468-1.704q.36-.36 1.044-.36t1.044.36c.312.312.468.888.468 1.704m-.732.12v-.108q0-.828-.18-1.152c-.12-.204-.312-.312-.6-.312s-.492.108-.612.312c-.12.216-.168.6-.168 1.152v.108c0 .564.048.948.168 1.152.12.216.324.312.612.312s.48-.096.6-.312q.18-.306.18-1.152m5.676 3.6v.132c0 .828-.156 1.392-.468 1.704q-.36.36-1.044.36t-1.044-.36c-.312-.312-.468-.876-.468-1.704v-.132c0-.816.156-1.392.468-1.704q.36-.36 1.044-.36t1.044.36c.312.312.468.888.468 1.704m-.732.12v-.108q0-.828-.18-1.152c-.12-.204-.312-.312-.6-.312s-.492.108-.612.312c-.12.216-.168.6-.168 1.152v.108c0 .564.048.948.168 1.152.12.216.324.312.612.312s.48-.096.6-.312q.18-.306.18-1.152m2.367 3.324c-.096.12-.192.144-.312.084l-.288-.144c-.108-.048-.132-.132-.06-.228.984-1.308 1.476-2.796 1.476-4.476 0-.852-.12-1.632-.336-2.328s-.6-1.416-1.128-2.148c-.072-.096-.048-.168.084-.24l.276-.144c.096-.048.192-.024.276.072 1.128 1.452 1.692 3.036 1.692 4.764 0 .876-.132 1.692-.384 2.436-.264.756-.696 1.536-1.296 2.352m3.59-2.472h.12c.336 0 .516.156.516.468v.288c0 .312-.18.468-.516.468h-.12c-.348 0-.516-.156-.516-.468v-.288c0-.312.168-.468.516-.468m5.565-2.928v.324c0 1.32.18 2.184.54 2.604.312.372.792.552 1.428.552.696 0 1.188-.204 1.5-.624.312-.432.468-1.272.468-2.532v-.324c0-.624-.036-1.14-.096-1.548s-.18-.732-.372-.996c-.312-.408-.804-.612-1.5-.612q-1.026 0-1.476.612c-.336.432-.492 1.284-.492 2.544m4.812-.144v.624c0 1.392-.252 2.352-.732 2.904-.456.516-1.152.768-2.112.768-.9 0-1.572-.228-2.028-.684-.552-.552-.816-1.548-.816-2.988v-.624c0-1.392.252-2.376.756-2.94.444-.492 1.14-.744 2.088-.744.936 0 1.632.252 2.088.744.504.564.756 1.548.756 2.94M186.064 25h-.504q-.144 0-.144-.144v-5.052h-.732c-.084 0-.12-.036-.12-.132v-.24c0-.096.036-.144.12-.156l.732-.156v-.372c0-.528.084-.924.252-1.212.3-.504.84-.768 1.608-.768.384 0 .696.036.96.108q.144.054.144.18l-.06.336c-.024.108-.096.144-.204.12a4 4 0 0 0-.72-.072c-.384 0-.66.084-.84.228-.24.192-.36.552-.36 1.092v.36h1.284c.072 0 .12.048.12.12v.444c0 .084-.048.12-.12.12h-1.284v5.052c0 .096-.048.144-.132.144m6.613-3.936v.984c0 .168-.036.288-.096.36-.072.072-.18.096-.348.096h-3.096c.024.72.144 1.224.384 1.512.228.288.624.42 1.188.42a3.4 3.4 0 0 0 1.32-.24c.156-.06.252-.036.288.084l.084.276a.23.23 0 0 1-.012.18q-.036.072-.252.144c-.408.156-.888.228-1.428.228-.876 0-1.488-.216-1.836-.66-.36-.432-.528-1.152-.528-2.148v-.48c0-.96.168-1.668.516-2.124.336-.456.924-.684 1.74-.684.684 0 1.2.168 1.548.492.348.348.528.864.528 1.56m-2.064-1.38c-.528 0-.912.156-1.128.456-.228.312-.348.864-.348 1.68h2.58c.06 0 .108 0 .132-.024s.036-.072.036-.156v-.456c0-.516-.096-.888-.276-1.116-.216-.252-.54-.384-.996-.384M194.658 25h-.384c-.132 0-.192-.048-.192-.156v-5.592c0-.084.048-.132.144-.132h.348c.072 0 .12.048.144.132l.048.624h.024c.264-.504.732-.756 1.392-.756h.312c.096 0 .156.048.156.144v.408c0 .096-.06.132-.156.132h-.324c-.528 0-.9.168-1.092.492-.144.24-.216.552-.216.948v3.6c0 .108-.072.156-.204.156m5.741 0h-.564c-.624 0-1.08-.156-1.344-.48-.264-.312-.396-.768-.396-1.38v-3.336h-.732c-.084 0-.12-.036-.12-.132v-.24c0-.096.036-.144.12-.156l.732-.156v-1.356q0-.144.144-.144h.504c.083 0 .132.048.132.144v1.356h1.404c.072 0 .12.048.12.12v.444c0 .084-.048.12-.12.12h-1.404v3.24c0 .48.072.816.216.984.144.204.444.3.876.3h.432c.096 0 .144.048.144.132v.408c0 .096-.048.132-.144.132m4.576-.12-.024-.408h-.024c-.264.432-.696.636-1.272.636h-.6c-.576 0-.996-.144-1.284-.432s-.432-.66-.432-1.128v-.36q0-1.134.936-1.512c.264-.108.744-.168 1.44-.168h.36c.288 0 .564.012.804.036v-.684c0-.432-.12-.744-.348-.912-.24-.168-.6-.264-1.104-.264-.42 0-.828.06-1.236.18-.192.048-.288.024-.312-.096l-.06-.252c-.048-.144 0-.228.132-.276a5.5 5.5 0 0 1 1.536-.228c.768 0 1.32.144 1.656.42s.516.72.516 1.344v4.104c0 .084-.048.12-.132.12h-.396c-.108 0-.156-.036-.156-.12m-.096-1.68v-.996a6 6 0 0 0-.72-.036h-.672c-.504 0-.852.084-1.056.24s-.3.42-.3.792v.252c0 .36.084.624.252.78.144.144.396.216.732.216h.492c.396 0 .708-.096.936-.312.216-.216.336-.528.336-.936m5.703-1.26v.228c0 .6.036 1.032.12 1.32.18.636.648.948 1.392.948s1.212-.312 1.404-.948c.072-.288.12-.72.12-1.32v-.228c0-.588-.048-1.032-.12-1.32q-.27-.936-1.404-.936c-.756 0-1.224.312-1.392.936-.084.288-.12.732-.12 1.32m3.828-.12v.48c0 1.08-.216 1.836-.624 2.244-.384.384-.948.564-1.692.564s-1.296-.18-1.68-.564c-.42-.408-.624-1.164-.624-2.244v-.48c0-1.08.204-1.836.624-2.256.372-.36.936-.552 1.68-.552s1.308.192 1.692.552c.408.42.624 1.176.624 2.256m3.571 2.616c.6 0 1.008-.156 1.236-.468.228-.324.348-.9.348-1.716v-.408c0-.864-.168-1.464-.48-1.788-.252-.24-.636-.372-1.14-.372-.516 0-.888.12-1.128.36a1.04 1.04 0 0 0-.264.456c-.048.18-.06.444-.06.78v1.644c0 .48.084.828.252 1.056.216.312.624.456 1.236.456m-1.488-7.428v2.58h.024q.45-.576 1.512-.576 1.188 0 1.764.684c.372.456.564 1.152.564 2.1v.552c0 1.008-.204 1.728-.6 2.136-.396.42-.996.624-1.788.624-.864 0-1.464-.204-1.812-.624-.3-.348-.444-.84-.444-1.476v-6c0-.084.048-.132.144-.132h.492c.096 0 .144.048.144.132m5.737 4.932v.228c0 .6.036 1.032.12 1.32.18.636.648.948 1.392.948s1.212-.312 1.404-.948c.072-.288.12-.72.12-1.32v-.228c0-.588-.048-1.032-.12-1.32q-.27-.936-1.404-.936c-.756 0-1.224.312-1.392.936-.084.288-.12.732-.12 1.32m3.828-.12v.48c0 1.08-.216 1.836-.624 2.244-.384.384-.948.564-1.692.564s-1.296-.18-1.68-.564c-.42-.408-.624-1.164-.624-2.244v-.48c0-1.08.204-1.836.624-2.256.372-.36.936-.552 1.68-.552s1.308.192 1.692.552c.408.42.624 1.176.624 2.256m4.268-2.412h.54c.216 0 .36.12.408.336a64 64 0 0 0 1.092 4.644h.06c.444-1.704.816-3.42 1.116-5.124 0-.072.024-.108.048-.12a.4.4 0 0 1 .168-.024h.372q.126 0 .18.036c.024.024.036.06.036.132q-.396 2.016-1.224 5.22c-.096.336-.264.492-.504.492h-.408c-.156 0-.276-.036-.348-.108-.084-.072-.144-.192-.192-.384a76 76 0 0 1-1.032-4.38h-.084c-.312 1.5-.66 2.964-1.032 4.38a.8.8 0 0 1-.192.384.53.53 0 0 1-.348.108h-.408c-.252 0-.42-.156-.504-.492q-.846-3.204-1.224-5.22c-.012-.072 0-.108.036-.132q.036-.036.18-.036h.372q.18 0 .216.144c.288 1.704.66 3.42 1.116 5.124h.06a80 80 0 0 0 1.092-4.644c.048-.216.18-.336.408-.336m6.036-.156v5.652c0 .072-.036.096-.108.096h-.576c-.072 0-.096-.024-.096-.096v-5.652c0-.084.048-.132.144-.132h.492c.096 0 .144.048.144.132m.168-1.716v.072c0 .384-.18.576-.528.576h-.048c-.372 0-.552-.192-.552-.576v-.072c0-.372.18-.564.552-.564h.048c.348 0 .528.192.528.564m4.914 7.416-.012-.48h-.024c-.264.432-.696.636-1.272.636h-.6c-.576 0-.996-.144-1.284-.432s-.432-.66-.432-1.128v-.36q0-1.134.936-1.512c.264-.108.744-.168 1.44-.168h.36c.288 0 .564.012.804.036v-.684c0-.432-.12-.744-.348-.912-.24-.168-.6-.264-1.104-.264-.42 0-.828.06-1.236.18-.192.048-.288.024-.312-.096l-.06-.252c-.048-.144 0-.228.132-.276a5.5 5.5 0 0 1 1.536-.228c.768 0 1.32.144 1.656.42s.504.72.504 1.344v4.008c0 .096-.036.18-.108.24-.288.264-.504.48-.624.672a1 1 0 0 0-.192.6c0 .288.168.432.516.432.192 0 .384-.036.576-.132.084-.036.144-.012.168.06l.072.336c.024.084-.012.144-.096.18a2.3 2.3 0 0 1-.888.18q-1.152 0-1.152-.9 0-.468.252-.792c.168-.216.432-.456.792-.708m-.084-1.74v-1.008a6 6 0 0 0-.72-.036h-.672c-.504 0-.852.084-1.056.24s-.3.42-.3.792v.24q0 .558.252.792c.144.144.396.216.732.216h.492c.396 0 .708-.096.936-.312.216-.204.336-.516.336-.924m5.915 1.236v.432c0 .084-.048.12-.12.12h-3.744c-.084 0-.12-.036-.12-.12v-.204c0-.12.072-.288.216-.528l2.64-4.356h-2.652c-.084 0-.12-.036-.12-.12v-.432c0-.072.036-.12.12-.12h3.552c.072 0 .12.048.12.12v.168c0 .144-.108.384-.312.72l-2.58 4.2h2.88c.072 0 .12.048.12.12m4.818-5.328h.504c.084 0 .132.06.132.156v4.032c0 .612-.18 1.068-.528 1.368-.336.288-.888.432-1.632.432s-1.296-.144-1.632-.432q-.54-.45-.54-1.368v-3.996c0-.12.048-.192.168-.192h.444c.108 0 .168.06.168.168v3.924c0 .444.096.756.312.936q.324.288 1.08.288c.504 0 .864-.108 1.104-.336.18-.168.276-.468.276-.888v-3.936c0-.096.048-.156.144-.156m3.183.132v5.676c0 .588-.108 1.056-.3 1.392-.312.552-.852.816-1.62.816h-.432c-.096 0-.132-.048-.132-.144v-.396c0-.096.036-.144.132-.144h.408c.48 0 .816-.18.984-.552.12-.264.18-.6.18-1.032v-5.616c0-.084.048-.132.144-.132h.492c.096 0 .144.048.144.132m.168-1.716v.072c0 .384-.18.576-.528.576h-.048c-.372 0-.552-.192-.552-.576v-.072c0-.372.18-.564.552-.564h.048c.348 0 .528.192.528.564m5.694 3.528v.984c0 .168-.036.288-.096.36-.072.072-.18.096-.348.096h-3.096c.024.72.144 1.224.384 1.512.228.288.624.42 1.188.42a3.4 3.4 0 0 0 1.32-.24c.156-.06.252-.036.288.084l.084.276a.23.23 0 0 1-.012.18q-.036.072-.252.144c-.408.156-.888.228-1.428.228-.876 0-1.488-.216-1.836-.66-.36-.432-.528-1.152-.528-2.148v-.48c0-.96.168-1.668.516-2.124.336-.456.924-.684 1.74-.684.684 0 1.2.168 1.548.492.348.348.528.864.528 1.56m-2.064-1.38c-.528 0-.912.156-1.128.456-.228.312-.348.864-.348 1.68h2.58c.06 0 .108 0 .132-.024s.036-.072.036-.156v-.456c0-.516-.096-.888-.276-1.116-.216-.252-.54-.384-.996-.384m10.649-2.676v6.024c0 .624-.156 1.104-.444 1.452-.36.42-.96.624-1.812.624-.864 0-1.476-.192-1.836-.588-.372-.384-.552-1.104-.552-2.16v-.564c0-.948.18-1.644.564-2.1q.558-.684 1.764-.684 1.044 0 1.512.576h.024v-2.58c0-.084.048-.132.144-.132h.492c.096 0 .144.048.144.132m-.78 5.916V21.28c0-.504-.132-.888-.372-1.176-.24-.276-.6-.42-1.08-.42-.54 0-.936.144-1.176.408-.3.336-.444.924-.444 1.764v.408q0 1.332.432 1.8c.216.252.6.372 1.152.372.6 0 1.02-.144 1.236-.456.168-.228.252-.576.252-1.056m2.881-.984v.228c0 .6.036 1.032.12 1.32.18.636.648.948 1.392.948s1.212-.312 1.404-.948c.072-.288.12-.72.12-1.32v-.228c0-.588-.048-1.032-.12-1.32q-.27-.936-1.404-.936c-.756 0-1.224.312-1.392.936-.084.288-.12.732-.12 1.32m3.828-.12v.48c0 1.08-.216 1.836-.624 2.244-.384.384-.948.564-1.692.564s-1.296-.18-1.68-.564c-.42-.408-.624-1.164-.624-2.244v-.48c0-1.08.204-1.836.624-2.256.372-.36.936-.552 1.68-.552s1.308.192 1.692.552c.408.42.624 1.176.624 2.256m6.168 2.616c.552 0 .984-.132 1.272-.396.252-.24.384-.612.384-1.104v-.108c0-.6-.168-1.02-.492-1.248s-.828-.348-1.512-.348h-.36c-.12 0-.168-.048-.168-.156v-.36c0-.108.06-.168.192-.168h.276c1.272 0 1.908-.468 1.908-1.428v-.108q0-.594-.36-.9c-.24-.204-.576-.312-.996-.312-.48 0-.96.096-1.428.276-.168.06-.264.036-.288-.084l-.096-.312c-.036-.108.024-.192.168-.24a5 5 0 0 1 1.728-.312q1.026 0 1.584.468c.372.312.564.756.564 1.356v.156c0 .9-.42 1.476-1.236 1.728v.036c.408.084.732.288.996.612.264.336.396.756.396 1.272v.156c0 1.464-.84 2.196-2.496 2.196a6.5 6.5 0 0 1-1.824-.24c-.144-.036-.192-.12-.168-.24l.072-.312c.024-.12.108-.168.264-.12a5.1 5.1 0 0 0 1.62.24m7.11-.108h1.68q.18 0 .18.18v.336c0 .108-.06.156-.18.156h-4.236q-.18 0-.18-.18v-.312q0-.18.18-.18h1.728v-6.276h-.084l-1.236.744c-.108.072-.192.048-.252-.06l-.192-.312c-.072-.096-.048-.168.06-.228l1.32-.816a.93.93 0 0 1 .516-.144h.408q.288 0 .288.252zm3.642-.444h.12c.336 0 .516.156.516.468v.288c0 .312-.18.468-.516.468h-.12c-.348 0-.516-.156-.516-.468v-.288c0-.312.168-.468.516-.468m6.833-2.928v.324c0 1.548-.264 2.604-.78 3.18-.384.432-.96.648-1.716.648-.768 0-1.332-.216-1.716-.648-.528-.576-.78-1.632-.78-3.18v-.324c0-1.536.252-2.604.78-3.18.384-.432.948-.648 1.716-.648.756 0 1.332.216 1.716.648.516.576.78 1.644.78 3.18m-4.116.084v.156c0 1.296.144 2.172.456 2.64.24.408.636.6 1.164.6s.912-.192 1.164-.6c.3-.468.456-1.344.456-2.64v-.156c0-1.284-.156-2.16-.456-2.64-.252-.396-.636-.6-1.164-.6s-.924.204-1.164.6c-.312.48-.456 1.356-.456 2.64m7.542 3.396c.552 0 .984-.132 1.272-.396.252-.24.384-.612.384-1.104v-.108c0-.6-.168-1.02-.492-1.248s-.828-.348-1.512-.348h-.36c-.12 0-.168-.048-.168-.156v-.36c0-.108.06-.168.192-.168h.276c1.272 0 1.908-.468 1.908-1.428v-.108q0-.594-.36-.9c-.24-.204-.576-.312-.996-.312-.48 0-.96.096-1.428.276-.168.06-.264.036-.288-.084l-.096-.312c-.036-.108.024-.192.168-.24a5 5 0 0 1 1.728-.312q1.026 0 1.584.468c.372.312.564.756.564 1.356v.156c0 .9-.42 1.476-1.236 1.728v.036c.408.084.732.288.996.612.264.336.396.756.396 1.272v.156c0 1.464-.84 2.196-2.496 2.196a6.5 6.5 0 0 1-1.824-.24c-.144-.036-.192-.12-.168-.24l.072-.312c.024-.12.108-.168.264-.12a5.1 5.1 0 0 0 1.62.24m4.519-.552h.12c.336 0 .516.156.516.468v.288c0 .312-.18.468-.516.468h-.12c-.348 0-.516-.156-.516-.468v-.288c0-.312.168-.468.516-.468m2.44-6.432a5.8 5.8 0 0 1 1.884-.324c.708 0 1.248.144 1.608.408q.648.504.648 1.548v.156c0 .564-.132 1.008-.372 1.32-.252.324-.684.612-1.284.876l-.828.36c-.468.204-.78.456-.936.768s-.228.768-.228 1.344v.42h3.348c.096 0 .156.06.156.156v.36c0 .108-.06.156-.156.156h-3.9c-.108 0-.18-.012-.216-.06-.048-.048-.06-.12-.06-.228v-.696c0-.72.108-1.296.336-1.752.216-.444.636-.804 1.236-1.068l.828-.36c.468-.204.78-.42.948-.648q.252-.324.252-.936v-.084c0-.504-.132-.876-.396-1.092-.24-.18-.588-.276-1.044-.276-.504 0-1.044.108-1.608.3-.168.06-.264.024-.288-.096l-.096-.312c-.024-.108.024-.192.168-.24m10.627 3.504v.324c0 1.548-.264 2.604-.78 3.18-.384.432-.96.648-1.716.648-.768 0-1.332-.216-1.716-.648-.528-.576-.78-1.632-.78-3.18v-.324c0-1.536.252-2.604.78-3.18.384-.432.948-.648 1.716-.648.756 0 1.332.216 1.716.648.516.576.78 1.644.78 3.18m-4.116.084v.156c0 1.296.144 2.172.456 2.64.24.408.636.6 1.164.6s.912-.192 1.164-.6c.3-.468.456-1.344.456-2.64v-.156c0-1.284-.156-2.16-.456-2.64-.252-.396-.636-.6-1.164-.6s-.924.204-1.164.6c-.312.48-.456 1.356-.456 2.64m5.958-3.588a5.8 5.8 0 0 1 1.884-.324c.708 0 1.248.144 1.608.408q.648.504.648 1.548v.156c0 .564-.132 1.008-.372 1.32-.252.324-.684.612-1.284.876l-.828.36c-.468.204-.78.456-.936.768s-.228.768-.228 1.344v.42h3.348c.096 0 .156.06.156.156v.36c0 .108-.06.156-.156.156h-3.9c-.108 0-.18-.012-.216-.06-.048-.048-.06-.12-.06-.228v-.696c0-.72.108-1.296.336-1.752.216-.444.636-.804 1.236-1.068l.828-.36c.468-.204.78-.42.948-.648q.252-.324.252-.936v-.084c0-.504-.132-.876-.396-1.092-.24-.18-.588-.276-1.044-.276-.504 0-1.044.108-1.608.3-.168.06-.264.024-.288-.096l-.096-.312c-.024-.108.024-.192.168-.24m9.931-.156c.144.048.204.132.18.228l-.084.3c-.048.132-.132.18-.252.132a4 4 0 0 0-1.092-.156c-.66 0-1.164.24-1.512.708-.312.42-.516 1.164-.588 2.232.216-.18.48-.324.816-.444.336-.108.66-.168.984-.168.684 0 1.224.204 1.608.6s.588.948.588 1.656v.216c0 .78-.216 1.392-.636 1.836-.432.456-1.008.672-1.752.672-.912 0-1.56-.288-1.944-.876-.384-.576-.564-1.464-.564-2.664v-.288c0-.696.072-1.332.228-1.932q.216-.9.648-1.368c.492-.564 1.224-.852 2.184-.852.48 0 .876.06 1.188.168m-1.704 3.54c-.624 0-1.176.252-1.668.732v.168c0 .912.12 1.596.36 2.04s.648.66 1.224.66c.492 0 .876-.144 1.152-.456.264-.312.408-.756.408-1.344v-.156q0-.81-.396-1.224c-.264-.276-.624-.42-1.08-.42m4.11 3.048h.12c.336 0 .516.156.516.468v.288c0 .312-.18.468-.516.468h-.12c-.348 0-.516-.156-.516-.468v-.288c0-.312.168-.468.516-.468m6.645 1.224c-.744 0-1.404-.108-1.992-.348-.108-.036-.144-.108-.12-.204l.096-.396c.024-.12.108-.144.252-.096.552.252 1.14.372 1.74.372.552 0 .972-.12 1.26-.372s.432-.612.432-1.092v-.132c0-.432-.096-.744-.264-.936s-.504-.36-1.008-.48l-.804-.192c-.588-.144-1.02-.36-1.296-.672-.276-.3-.408-.72-.408-1.272v-.18c0-.636.204-1.128.612-1.464s.972-.516 1.692-.516a6.2 6.2 0 0 1 1.716.228c.132.048.18.132.156.264l-.084.288q-.054.18-.288.108a5.2 5.2 0 0 0-1.476-.216c-.996 0-1.488.444-1.488 1.32v.12c0 .408.096.696.288.876s.516.324.972.42l.756.18c.648.156 1.104.384 1.368.672q.396.45.396 1.332v.192c0 .732-.216 1.284-.648 1.644-.432.372-1.044.552-1.86.552m7.354-.66v.432c0 .084-.048.12-.12.12h-3.744c-.084 0-.12-.036-.12-.12v-.204c0-.12.072-.288.216-.528l2.64-4.356h-2.652c-.084 0-.12-.036-.12-.12v-.432c0-.072.036-.12.12-.12h3.552c.072 0 .12.048.12.12v.168c0 .144-.108.384-.312.72l-2.58 4.2h2.88c.072 0 .12.048.12.12m4.734-.156.084.276q.036.126 0 .18c-.024.036-.084.072-.204.12-.396.168-.852.24-1.368.24-.744 0-1.296-.168-1.656-.516-.468-.42-.696-1.212-.696-2.376v-.396c0-1.056.24-1.812.732-2.268q.576-.54 1.62-.54c.312 0 .636.06.948.156.312.108.576.228.768.372.06.048.06.12.012.192l-.204.336c-.048.072-.108.084-.204.024-.456-.264-.888-.408-1.32-.408-.468 0-.828.132-1.08.372-.324.324-.48.948-.48 1.872v.204c0 .912.12 1.536.384 1.848.24.312.636.456 1.212.456.384 0 .768-.072 1.164-.228.156-.06.252-.036.288.084m4.946.156v.432c0 .084-.048.12-.12.12h-3.744c-.084 0-.12-.036-.12-.12v-.204c0-.12.072-.288.216-.528l2.64-4.356h-2.652c-.084 0-.12-.036-.12-.12v-.432c0-.072.036-.12.12-.12h3.552c.072 0 .12.048.12.12v.168c0 .144-.108.384-.312.72l-2.58 4.2h2.88c.072 0 .12.048.12.12m5.226-3.384v.984c0 .168-.036.288-.096.36-.072.072-.18.096-.348.096h-3.096c.024.72.144 1.224.384 1.512.228.288.624.42 1.188.42a3.4 3.4 0 0 0 1.32-.24c.156-.06.252-.036.288.084l.084.276a.23.23 0 0 1-.012.18q-.036.072-.252.144c-.408.156-.888.228-1.428.228-.876 0-1.488-.216-1.836-.66-.36-.432-.528-1.152-.528-2.148v-.48c0-.96.168-1.668.516-2.124.336-.456.924-.684 1.74-.684.684 0 1.2.168 1.548.492.348.348.528.864.528 1.56m-2.064-1.38c-.528 0-.912.156-1.128.456-.228.312-.348.864-.348 1.68h2.58c.06 0 .108 0 .132-.024s.036-.072.036-.156v-.456c0-.516-.096-.888-.276-1.116-.216-.252-.54-.384-.996-.384m7.093 3.636a2.4 2.4 0 0 1-.312.24c.684.444 1.032 1.008 1.032 1.68v.132c0 .648-.216 1.116-.648 1.416-.432.312-1.032.456-1.776.456-.768 0-1.5-.156-2.172-.492-.084-.036-.12-.096-.096-.192l.132-.36q.036-.144.216-.072a4.1 4.1 0 0 0 1.836.444c.576 0 1.008-.084 1.272-.264q.396-.27.396-.972v-.096c0-.624-.3-1.104-.888-1.416-.192.048-.42.06-.708.06-.684 0-1.212-.144-1.596-.444-.42-.36-.624-.936-.624-1.752v-.492c0-.828.204-1.416.624-1.764.336-.276.876-.42 1.596-.42.168 0 .3.012.384.012.192-.576.648-.876 1.344-.876h.288c.108 0 .168.06.168.168v.468c0 .012-.012.024-.012.036-.012.012-.024.024-.048.024-.024.012-.06.012-.084.012h-.36c-.312 0-.504.108-.6.3.216.084.396.18.528.276.408.348.624.936.624 1.764v.492c0 .708-.18 1.248-.516 1.632m-3.12-2.04v.312c0 .384.036.708.132.948.168.492.6.732 1.272.732.684 0 1.116-.24 1.296-.732.072-.228.12-.552.12-.96v-.3c0-.408-.048-.72-.12-.936a.97.97 0 0 0-.456-.552c-.204-.108-.48-.168-.84-.168-.348 0-.624.06-.828.168s-.348.288-.444.552c-.096.24-.132.552-.132.936m5.684.66v.228c0 .6.036 1.032.12 1.32.18.636.648.948 1.392.948s1.212-.312 1.404-.948c.072-.288.12-.72.12-1.32v-.228c0-.588-.048-1.032-.12-1.32q-.27-.936-1.404-.936c-.756 0-1.224.312-1.392.936-.084.288-.12.732-.12 1.32m3.828-.12v.48c0 1.08-.216 1.836-.624 2.244-.384.384-.948.564-1.692.564s-1.296-.18-1.68-.564c-.42-.408-.624-1.164-.624-2.244v-.48c0-1.08.204-1.836.624-2.256.372-.36.936-.552 1.68-.552s1.308.192 1.692.552c.408.42.624 1.176.624 2.256m-3.468-4.308 2.04-.996c.156-.072.264-.036.324.084l.204.42c.048.12-.012.216-.156.288l-2.052.78c-.156.06-.252.036-.3-.072l-.12-.264c-.048-.108-.036-.192.06-.24m5.647-.504v3.096l1.188-.78c.132-.072.204-.036.204.132v.42c0 .144-.06.264-.18.336l-1.212.804v2.412q0 .63.108.756c.06.096.204.132.432.132h.324c.096 0 .144.048.144.132v.408c0 .096-.048.144-.12.144h-.456c-.432 0-.744-.084-.924-.276-.192-.192-.288-.564-.288-1.104v-2.088l-.828.54c-.144.084-.204.036-.204-.132v-.42c0-.144.06-.252.18-.336l.852-.564v-3.612c0-.084.048-.132.144-.132h.492c.096 0 .144.048.144.132m2.963 9.828c.324-.636.612-1.272.876-1.92-.36 0-.636-.252-.804-.756a26 26 0 0 1-.672-2.064 53 53 0 0 1-.732-2.82c-.024-.096.012-.156.132-.156h.54c.072 0 .108.036.132.108.168.852.384 1.74.636 2.664.132.528.336 1.176.6 1.944.048.144.096.252.156.3.048.06.132.084.228.084h.048c.456-1.248.888-2.916 1.308-5.004.012-.06.06-.096.132-.096h.552c.048 0 .072.012.096.036s.024.048.024.072c-.372 1.74-.756 3.18-1.14 4.332a38 38 0 0 1-1.404 3.576c-.048.108-.132.132-.252.084l-.396-.144c-.108-.036-.132-.12-.06-.24m8.137-7.584v5.652c0 .072-.035.096-.107.096h-.576c-.072 0-.096-.024-.096-.096v-5.652c0-.084.048-.132.144-.132h.492c.096 0 .143.048.143.132m.169-1.716v.072c0 .384-.18.576-.528.576h-.048c-.372 0-.552-.192-.552-.576v-.072c0-.372.18-.564.552-.564h.048c.348 0 .528.192.528.564M393.408 25h-.384c-.132 0-.192-.048-.192-.156v-5.592c0-.084.048-.132.144-.132h.348c.072 0 .12.048.144.132l.048.624h.024c.264-.504.732-.756 1.392-.756h.312c.096 0 .156.048.156.144v.408c0 .096-.06.132-.156.132h-.324c-.528 0-.9.168-1.092.492-.144.24-.216.552-.216.948v3.6c0 .108-.072.156-.204.156m7.101-3.936v.984c0 .168-.036.288-.096.36-.072.072-.18.096-.348.096h-3.096c.024.72.144 1.224.384 1.512.228.288.624.42 1.188.42a3.4 3.4 0 0 0 1.32-.24c.156-.06.252-.036.288.084l.084.276a.23.23 0 0 1-.012.18q-.036.072-.252.144c-.408.156-.888.228-1.428.228-.876 0-1.488-.216-1.836-.66-.36-.432-.528-1.152-.528-2.148v-.48c0-.96.168-1.668.516-2.124.336-.456.924-.684 1.74-.684.684 0 1.2.168 1.548.492.348.348.528.864.528 1.56m-2.064-1.38c-.528 0-.912.156-1.128.456-.228.312-.348.864-.348 1.68h2.58c.06 0 .108 0 .132-.024s.036-.072.036-.156v-.456c0-.516-.096-.888-.276-1.116-.216-.252-.54-.384-.996-.384m7.093 3.636a2.4 2.4 0 0 1-.312.24c.684.444 1.032 1.008 1.032 1.68v.132c0 .648-.216 1.116-.648 1.416-.432.312-1.032.456-1.776.456-.768 0-1.5-.156-2.172-.492-.084-.036-.12-.096-.096-.192l.132-.36q.036-.144.216-.072a4.1 4.1 0 0 0 1.836.444c.576 0 1.008-.084 1.272-.264q.396-.27.396-.972v-.096c0-.624-.3-1.104-.888-1.416-.192.048-.42.06-.708.06-.684 0-1.212-.144-1.596-.444-.42-.36-.624-.936-.624-1.752v-.492c0-.828.204-1.416.624-1.764.336-.276.876-.42 1.596-.42.168 0 .3.012.384.012.192-.576.648-.876 1.344-.876h.288c.108 0 .168.06.168.168v.468c0 .012-.012.024-.012.036-.012.012-.024.024-.048.024-.024.012-.06.012-.084.012h-.36c-.312 0-.504.108-.6.3.216.084.396.18.528.276.408.348.624.936.624 1.764v.492c0 .708-.18 1.248-.516 1.632m-3.12-2.04v.312c0 .384.036.708.132.948.168.492.6.732 1.272.732.684 0 1.116-.24 1.296-.732.072-.228.12-.552.12-.96v-.3c0-.408-.048-.72-.12-.936a.97.97 0 0 0-.456-.552c-.204-.108-.48-.168-.84-.168-.348 0-.624.06-.828.168s-.348.288-.444.552c-.096.24-.132.552-.132.936m8.816-2.16h.504c.084 0 .132.06.132.156v4.032c0 .612-.18 1.068-.528 1.368-.336.288-.888.432-1.632.432s-1.296-.144-1.632-.432q-.54-.45-.54-1.368v-3.996c0-.12.048-.192.168-.192h.444c.108 0 .168.06.168.168v3.924c0 .444.096.756.312.936q.324.288 1.08.288c.504 0 .864-.108 1.104-.336.18-.168.276-.468.276-.888v-3.936c0-.096.048-.156.144-.156m3.051-2.112v6.42q0 .63.108.756c.06.096.204.132.432.132h.324c.096 0 .144.048.144.132v.408c0 .096-.048.144-.12.144h-.456c-.432 0-.744-.084-.924-.276-.192-.192-.288-.564-.288-1.104v-6.612c0-.084.048-.132.144-.132h.492c.096 0 .144.048.144.132m5.495 7.872-.024-.408h-.024c-.264.432-.696.636-1.272.636h-.6c-.576 0-.996-.144-1.284-.432s-.432-.66-.432-1.128v-.36q0-1.134.936-1.512c.264-.108.744-.168 1.44-.168h.36c.288 0 .564.012.804.036v-.684c0-.432-.12-.744-.348-.912-.24-.168-.6-.264-1.104-.264-.42 0-.828.06-1.236.18-.192.048-.288.024-.312-.096l-.06-.252c-.048-.144 0-.228.132-.276a5.5 5.5 0 0 1 1.536-.228c.768 0 1.32.144 1.656.42s.516.72.516 1.344v4.104c0 .084-.048.12-.132.12h-.396c-.108 0-.156-.036-.156-.12m-.096-1.68v-.996a6 6 0 0 0-.72-.036h-.672c-.504 0-.852.084-1.056.24s-.3.42-.3.792v.252c0 .36.084.624.252.78.144.144.396.216.732.216h.492c.396 0 .708-.096.936-.312.216-.216.336-.528.336-.936m2.374 1.62v-5.568c0-.084.036-.132.132-.132h.348c.084 0 .132.048.144.132l.06.48h.024c.096-.168.264-.312.492-.456.3-.168.672-.264 1.116-.264.84 0 1.44.276 1.788.828h.024c.42-.552 1.044-.828 1.86-.828.72 0 1.248.192 1.584.564.312.372.48.972.48 1.788v3.456c0 .12-.072.18-.192.18h-.408q-.18 0-.18-.18v-3.504c0-.552-.108-.948-.3-1.212-.24-.276-.6-.42-1.104-.42q-.972 0-1.512.72c.048.312.072.636.072.96v3.456q0 .18-.18.18h-.408c-.132 0-.192-.06-.192-.18v-3.504q0-.882-.36-1.26c-.24-.24-.624-.372-1.128-.372-.552 0-.948.168-1.164.504q-.216.324-.216.936v3.696q0 .18-.18.18h-.42q-.18 0-.18-.18m10.581-5.568v5.652c0 .072-.036.096-.108.096h-.576c-.072 0-.096-.024-.096-.096v-5.652c0-.084.048-.132.144-.132h.492c.096 0 .144.048.144.132m.168-1.716v.072c0 .384-.18.576-.528.576h-.048c-.372 0-.552-.192-.552-.576v-.072c0-.372.18-.564.552-.564h.048c.348 0 .528.192.528.564m6.114 7.26c0 .144-.084.204-.228.204h-.336q-.144 0-.18-.036c-.024-.024-.036-.072-.036-.168v-3.504c0-.708-.192-1.176-.552-1.404-.24-.144-.564-.228-.972-.228-.564 0-.96.168-1.176.504q-.216.324-.216.936v3.72q0 .18-.216.18h-.372c-.132 0-.192-.06-.192-.18v-5.568c0-.084.036-.132.12-.132h.36c.084 0 .132.048.144.132l.06.48h.024c.096-.168.264-.312.492-.456.3-.168.672-.264 1.128-.264.924 0 1.548.276 1.86.804q.288.504.288 1.548zm2.099-5.484h.12c.336 0 .516.156.516.468v.288c0 .312-.18.468-.516.468h-.12c-.348 0-.516-.156-.516-.468v-.288c0-.312.168-.468.516-.468m0 4.572h.12c.336 0 .516.156.516.468v.288c0 .312-.18.468-.516.468h-.12c-.348 0-.516-.156-.516-.468v-.288c0-.312.168-.468.516-.468m8.745-4.764h.504c.084 0 .132.06.132.156v4.032c0 .612-.18 1.068-.528 1.368-.336.288-.888.432-1.632.432s-1.296-.144-1.632-.432q-.54-.45-.54-1.368v-3.996c0-.12.048-.192.168-.192h.444c.108 0 .168.06.168.168v3.924c0 .444.096.756.312.936q.324.288 1.08.288c.504 0 .864-.108 1.104-.336.18-.168.276-.468.276-.888v-3.936c0-.096.048-.156.144-.156m6.711 5.676c0 .144-.084.204-.228.204h-.336q-.144 0-.18-.036c-.024-.024-.036-.072-.036-.168v-3.504c0-.708-.192-1.176-.552-1.404-.24-.144-.564-.228-.972-.228-.564 0-.96.168-1.176.504q-.216.324-.216.936v3.72q0 .18-.216.18h-.372c-.132 0-.192-.06-.192-.18v-5.568c0-.084.036-.132.12-.132h.36c.084 0 .132.048.144.132l.06.48h.024c.096-.168.264-.312.492-.456.3-.168.672-.264 1.128-.264.924 0 1.548.276 1.86.804q.288.504.288 1.548zm2.53-5.544v5.652c0 .072-.036.096-.108.096h-.576c-.072 0-.096-.024-.096-.096v-5.652c0-.084.048-.132.144-.132h.492c.096 0 .144.048.144.132m.168-1.716v.072c0 .384-.18.576-.528.576h-.048c-.372 0-.552-.192-.552-.576v-.072c0-.372.18-.564.552-.564h.048c.348 0 .528.192.528.564m5.19 6.756.084.276q.036.126 0 .18c-.024.036-.084.072-.204.12-.396.168-.852.24-1.368.24-.744 0-1.296-.168-1.656-.516-.468-.42-.696-1.212-.696-2.376v-.396c0-1.056.24-1.812.732-2.268q.576-.54 1.62-.54c.312 0 .636.06.948.156.312.108.576.228.768.372.06.048.06.12.012.192l-.204.336c-.048.072-.108.084-.204.024-.456-.264-.888-.408-1.32-.408-.468 0-.828.132-1.08.372-.324.324-.48.948-.48 1.872v.204c0 .912.12 1.536.384 1.848.24.312.636.456 1.212.456.384 0 .768-.072 1.164-.228.156-.06.252-.036.288.084m1.97.708h-.384c-.132 0-.192-.048-.192-.156v-5.592c0-.084.048-.132.144-.132h.348c.072 0 .12.048.144.132l.048.624h.024c.264-.504.732-.756 1.392-.756h.312c.096 0 .156.048.156.144v.408c0 .096-.06.132-.156.132h-.324c-.528 0-.9.168-1.092.492-.144.24-.216.552-.216.948v3.6c0 .108-.072.156-.204.156m7.101-3.936v.984c0 .168-.036.288-.096.36-.072.072-.18.096-.348.096h-3.096c.024.72.144 1.224.384 1.512.228.288.624.42 1.188.42a3.4 3.4 0 0 0 1.32-.24c.156-.06.252-.036.288.084l.084.276a.23.23 0 0 1-.012.18q-.036.072-.252.144c-.408.156-.888.228-1.428.228-.876 0-1.488-.216-1.836-.66-.36-.432-.528-1.152-.528-2.148v-.48c0-.96.168-1.668.516-2.124.336-.456.924-.684 1.74-.684.684 0 1.2.168 1.548.492.348.348.528.864.528 1.56m-2.064-1.38c-.528 0-.912.156-1.128.456-.228.312-.348.864-.348 1.68h2.58c.06 0 .108 0 .132-.024s.036-.072.036-.156v-.456c0-.516-.096-.888-.276-1.116-.216-.252-.54-.384-.996-.384m7.825-2.676v6.024c0 .624-.156 1.104-.444 1.452-.36.42-.96.624-1.812.624-.864 0-1.476-.192-1.836-.588-.372-.384-.552-1.104-.552-2.16v-.564c0-.948.18-1.644.564-2.1q.558-.684 1.764-.684 1.044 0 1.512.576h.024v-2.58c0-.084.048-.132.144-.132h.492c.096 0 .144.048.144.132m-.78 5.916V21.28c0-.504-.132-.888-.372-1.176-.24-.276-.6-.42-1.08-.42-.54 0-.936.144-1.176.408-.3.336-.444.924-.444 1.764v.408q0 1.332.432 1.8c.216.252.6.372 1.152.372.6 0 1.02-.144 1.236-.456.168-.228.252-.576.252-1.056m3.313-3.672v5.652c0 .072-.036.096-.108.096h-.576c-.072 0-.096-.024-.096-.096v-5.652c0-.084.048-.132.144-.132h.492c.096 0 .144.048.144.132m.168-1.716v.072c0 .384-.18.576-.528.576h-.048c-.372 0-.552-.192-.552-.576v-.072c0-.372.18-.564.552-.564h.048c.348 0 .528.192.528.564M486.043 25h-.564c-.624 0-1.08-.156-1.344-.48-.264-.312-.396-.768-.396-1.38v-3.336h-.732c-.084 0-.12-.036-.12-.132v-.24c0-.096.036-.144.12-.156l.732-.156v-1.356q0-.144.144-.144h.504c.084 0 .132.048.132.144v1.356h1.404c.072 0 .12.048.12.12v.444c0 .084-.048.12-.12.12h-1.404v3.24c0 .48.072.816.216.984.144.204.444.3.876.3h.432c.096 0 .144.048.144.132v.408c0 .096-.048.132-.144.132m1.553-1.116h.12c.336 0 .516.156.516.468v.288c0 .312-.18.468-.516.468h-.12c-.348 0-.516-.156-.516-.468v-.288c0-.312.168-.468.516-.468m4.457 1.224c-.768 0-1.32-.204-1.644-.636h-.024v2.52c0 .096-.048.132-.12.132h-.54c-.084 0-.121-.036-.121-.132v-7.74c0-.084.037-.132.121-.132h.36c.084 0 .132.048.144.132l.072.48h.024c.336-.48.924-.72 1.74-.72.78 0 1.344.216 1.68.648s.516 1.104.516 2.04v.624q0 1.386-.504 2.088c-.336.468-.9.696-1.704.696m-.096-5.424c-1.056 0-1.572.504-1.572 1.512v1.692c0 .516.132.9.42 1.164.276.264.672.384 1.175.384.529 0 .925-.144 1.165-.444q.324-.396.324-1.728v-.456c0-.84-.132-1.416-.372-1.716-.24-.264-.612-.408-1.14-.408m4.488-2.676v6.42q0 .63.108.756c.06.096.204.132.432.132h.324c.096 0 .144.048.144.132v.408c0 .096-.048.144-.12.144h-.456c-.432 0-.744-.084-.924-.276-.192-.192-.288-.564-.288-1.104v-6.612c0-.084.048-.132.144-.132h.492c.096 0 .144.048.144.132m2.471 6.876h.12c.336 0 .516.156.516.468v.288c0 .312-.18.468-.516.468h-.12c-.348 0-.516-.156-.516-.468v-.288c0-.312.168-.468.516-.468M3.12 39h-.492c-.12 0-.168-.06-.168-.18v-6.912H.42q-.18 0-.18-.18v-.336c0-.096.06-.156.18-.156h4.908q.18 0 .18.18v.312q0 .18-.18.18h-2.04v6.912c0 .12-.06.18-.168.18m3.087-3.06v.228c0 .6.036 1.032.12 1.32.18.636.648.948 1.392.948s1.212-.312 1.404-.948c.072-.288.12-.72.12-1.32v-.228c0-.588-.048-1.032-.12-1.32q-.27-.936-1.404-.936c-.756 0-1.224.312-1.392.936-.084.288-.12.732-.12 1.32m3.828-.12v.48c0 1.08-.216 1.836-.624 2.244-.384.384-.948.564-1.692.564s-1.296-.18-1.68-.564c-.42-.408-.624-1.164-.624-2.244v-.48c0-1.08.204-1.836.624-2.256.372-.36.936-.552 1.68-.552s1.308.192 1.692.552c.408.42.624 1.176.624 2.256m8.664 2.976c0 .144-.085.204-.229.204h-.335q-.146 0-.18-.036c-.024-.024-.036-.072-.036-.168v-3.504c0-.708-.192-1.176-.553-1.404-.24-.144-.564-.228-.971-.228-.564 0-.96.168-1.176.504q-.216.324-.216.936v3.72q0 .18-.216.18h-.373c-.131 0-.191-.06-.191-.18v-5.568c0-.084.035-.132.12-.132h.36c.084 0 .132.048.144.132l.06.48h.024c.096-.168.264-.312.492-.456.3-.168.672-.264 1.127-.264.924 0 1.549.276 1.86.804q.288.504.288 1.548zm2.53-5.544v5.652c0 .072-.036.096-.108.096h-.576c-.072 0-.096-.024-.096-.096v-5.652c0-.084.048-.132.144-.132h.492c.096 0 .144.048.144.132m.168-1.716v.072c0 .384-.18.576-.528.576h-.048c-.372 0-.552-.192-.552-.576v-.072c0-.372.18-.564.552-.564h.048c.348 0 .528.192.528.564m5.682 3.528v.984c0 .168-.036.288-.096.36-.072.072-.18.096-.348.096h-3.096c.024.72.144 1.224.384 1.512.228.288.624.42 1.188.42a3.4 3.4 0 0 0 1.32-.24c.156-.06.252-.036.288.084l.084.276a.23.23 0 0 1-.012.18q-.036.072-.252.144c-.408.156-.888.228-1.428.228-.876 0-1.488-.216-1.836-.66-.36-.432-.528-1.152-.528-2.148v-.48c0-.96.168-1.668.516-2.124.336-.456.924-.684 1.74-.684.684 0 1.2.168 1.548.492.348.348.528.864.528 1.56m-2.064-1.38c-.528 0-.912.156-1.128.456-.228.312-.348.864-.348 1.68h2.58c.06 0 .108 0 .132-.024s.036-.072.036-.156v-.456c0-.516-.096-.888-.276-1.116-.216-.252-.54-.384-.996-.384m7.242-.432v5.676c0 .588-.108 1.056-.3 1.392-.312.552-.852.816-1.62.816h-.433c-.096 0-.131-.048-.131-.144v-.396c0-.096.035-.144.131-.144h.409c.48 0 .816-.18.984-.552.12-.264.18-.6.18-1.032v-5.616c0-.084.047-.132.143-.132h.492c.096 0 .145.048.145.132m.168-1.716v.072c0 .384-.18.576-.528.576h-.048c-.372 0-.552-.192-.552-.576v-.072c0-.372.18-.564.552-.564h.047c.349 0 .529.192.529.564m5.693 3.528v.984c0 .168-.036.288-.096.36-.072.072-.18.096-.348.096h-3.096c.024.72.144 1.224.384 1.512.228.288.624.42 1.188.42a3.4 3.4 0 0 0 1.32-.24c.156-.06.252-.036.288.084l.084.276a.23.23 0 0 1-.012.18q-.036.072-.252.144c-.408.156-.888.228-1.428.228-.876 0-1.488-.216-1.836-.66-.36-.432-.528-1.152-.528-2.148v-.48c0-.96.168-1.668.516-2.124.336-.456.924-.684 1.74-.684.684 0 1.2.168 1.548.492.348.348.528.864.528 1.56m-2.064-1.38c-.528 0-.912.156-1.128.456-.228.312-.348.864-.348 1.68h2.58c.06 0 .108 0 .132-.024s.036-.072.036-.156v-.456c0-.516-.096-.888-.276-1.116-.216-.252-.54-.384-.996-.384m4.933 5.424c-.636 0-1.176-.096-1.632-.288-.12-.048-.168-.108-.144-.204l.096-.348c.024-.12.108-.168.228-.12a4 4 0 0 0 1.452.288c.48 0 .816-.072 1.02-.24.192-.156.3-.408.3-.768v-.072c0-.396-.108-.66-.324-.804-.132-.072-.408-.156-.84-.252l-.336-.06c-.408-.072-.72-.168-.936-.3-.408-.228-.612-.648-.612-1.248v-.12c0-1.032.636-1.56 1.92-1.56.492 0 .936.06 1.344.168q.216.072.18.216l-.072.312c-.048.144-.132.204-.276.156a4.5 4.5 0 0 0-1.188-.18c-.456 0-.78.084-.948.24-.168.144-.24.36-.24.624v.084c0 .264.06.468.192.588q.216.234.936.36l.312.06c.672.144 1.104.336 1.308.576.192.264.3.624.3 1.056v.12c0 .48-.12.852-.336 1.116-.324.408-.888.6-1.704.6m5.86-.108h-.563c-.624 0-1.08-.156-1.344-.48-.264-.312-.396-.768-.396-1.38v-3.336h-.732c-.084 0-.12-.036-.12-.132v-.24c0-.096.036-.144.12-.156l.732-.156v-1.356q0-.144.144-.144h.504c.084 0 .132.048.132.144v1.356h1.404c.072 0 .12.048.12.12v.444c0 .084-.048.12-.12.12h-1.404v3.24c0 .48.072.816.216.984.144.204.444.3.876.3h.432c.096 0 .144.048.144.132v.408c0 .096-.048.132-.144.132m4.618-3.06v.228c0 .6.036 1.032.12 1.32.18.636.648.948 1.392.948s1.212-.312 1.404-.948c.072-.288.12-.72.12-1.32v-.228c0-.588-.048-1.032-.12-1.32q-.27-.936-1.404-.936c-.756 0-1.224.312-1.392.936-.084.288-.12.732-.12 1.32m3.828-.12v.48c0 1.08-.216 1.836-.624 2.244-.384.384-.948.564-1.692.564s-1.296-.18-1.68-.564c-.42-.408-.624-1.164-.624-2.244v-.48c0-1.08.204-1.836.624-2.256.372-.36.936-.552 1.68-.552s1.308.192 1.692.552c.408.42.624 1.176.624 2.256M57.568 39h-.504q-.144 0-.144-.144v-5.052h-.732c-.084 0-.12-.036-.12-.132v-.24c0-.096.036-.144.12-.156l.732-.156v-.372c0-.528.084-.924.252-1.212.3-.504.84-.768 1.608-.768.384 0 .696.036.96.108q.144.054.144.18l-.06.336c-.024.108-.096.144-.204.12a4 4 0 0 0-.72-.072c-.384 0-.66.084-.84.228-.24.192-.36.552-.36 1.092v.36h1.284c.072 0 .12.048.12.12v.444c0 .084-.048.12-.12.12H57.7v5.052c0 .096-.048.144-.132.144m6.613-3.936v.984c0 .168-.036.288-.096.36-.072.072-.18.096-.348.096H60.64c.024.72.144 1.224.384 1.512.228.288.624.42 1.188.42a3.4 3.4 0 0 0 1.32-.24c.156-.06.252-.036.288.084l.084.276a.23.23 0 0 1-.012.18q-.036.072-.252.144c-.408.156-.888.228-1.428.228-.876 0-1.488-.216-1.836-.66-.36-.432-.528-1.152-.528-2.148v-.48c0-.96.168-1.668.516-2.124.336-.456.924-.684 1.74-.684.684 0 1.2.168 1.548.492.348.348.528.864.528 1.56m-2.064-1.38c-.528 0-.912.156-1.128.456-.228.312-.348.864-.348 1.68h2.58c.06 0 .108 0 .132-.024s.036-.072.036-.156v-.456c0-.516-.096-.888-.276-1.116-.216-.252-.54-.384-.996-.384M66.162 39h-.384c-.132 0-.192-.048-.192-.156v-5.592c0-.084.048-.132.144-.132h.348c.072 0 .12.048.144.132l.048.624h.024c.264-.504.732-.756 1.392-.756h.312c.096 0 .156.048.156.144v.408c0 .096-.06.132-.156.132h-.324c-.528 0-.9.168-1.092.492-.144.24-.216.552-.216.948v3.6c0 .108-.072.156-.204.156m5.74 0h-.564c-.624 0-1.08-.156-1.344-.48-.264-.312-.396-.768-.396-1.38v-3.336h-.732c-.084 0-.12-.036-.12-.132v-.24c0-.096.036-.144.12-.156l.732-.156v-1.356q0-.144.144-.144h.504c.084 0 .132.048.132.144v1.356h1.404c.072 0 .12.048.12.12v.444c0 .084-.048.12-.12.12h-1.404v3.24c0 .48.072.816.216.984.144.204.444.3.876.3h.432c.096 0 .144.048.144.132v.408c0 .096-.048.132-.144.132m4.577-.12-.024-.408h-.024c-.264.432-.696.636-1.272.636h-.6c-.576 0-.996-.144-1.284-.432s-.432-.66-.432-1.128v-.36q0-1.134.936-1.512c.264-.108.744-.168 1.44-.168h.36c.288 0 .564.012.804.036v-.684c0-.432-.12-.744-.348-.912-.24-.168-.6-.264-1.104-.264-.42 0-.828.06-1.236.18-.192.048-.288.024-.312-.096l-.06-.252c-.048-.144 0-.228.132-.276a5.5 5.5 0 0 1 1.536-.228c.768 0 1.32.144 1.656.42s.516.72.516 1.344v4.104c0 .084-.048.12-.132.12h-.396c-.108 0-.156-.036-.156-.12m-.096-1.68v-.996a6 6 0 0 0-.72-.036h-.672c-.504 0-.852.084-1.056.24s-.3.42-.3.792v.252c0 .36.084.624.252.78.144.144.396.216.732.216h.492c.396 0 .708-.096.936-.312.216-.216.336-.528.336-.936m2.639.684h.12c.336 0 .516.156.516.468v.288c0 .312-.18.468-.516.468h-.12c-.348 0-.516-.156-.516-.468v-.288c0-.312.168-.468.516-.468"/></svg>