<svg xmlns="http://www.w3.org/2000/svg" fill="none" viewBox="0 0 416 43"><path fill="#fff" d="M8.964 15.64c-.432.036-.612.252-.612.612v11.952c0 .504.18.792.576.792.288.036.828.036 1.62.036h.18c1.404 0 2.448-.324 3.168-1.044.9-.9 1.368-2.556 1.368-5.004v-1.476c0-2.448-.432-4.068-1.224-4.932-.648-.648-1.764-1.008-3.348-1.008h-.18c-.504 0-1.044.036-1.548.072M9.396 34H8.64c-2.484 0-4.14-.036-4.968-.144-.936-.072-1.368-.54-1.368-1.404V12.796q0-1.026.324-1.404c.216-.252.648-.432 1.296-.504a65 65 0 0 1 5.652-.252h.504c4.104 0 7.056.864 8.82 2.52 1.656 1.656 2.52 4.356 2.52 8.028v2.088c0 3.78-.864 6.48-2.556 8.1C17.028 33.136 13.86 34 9.396 34m25.766-1.476h-.072c-.792 1.224-2.376 1.8-4.716 1.8h-.54c-1.836 0-3.276-.468-4.284-1.404-1.044-.936-1.548-2.34-1.548-4.14v-.396c0-1.944.54-3.348 1.656-4.14s2.916-1.188 5.436-1.188h.252c.936 0 1.8.072 2.52.144v-.756c0-.756-.216-1.296-.612-1.584-.432-.252-1.152-.396-2.16-.396-1.224 0-2.592.216-4.176.612-.432.108-.756.108-.9 0-.18-.108-.288-.324-.324-.684l-.288-1.908c-.072-.324-.072-.576-.072-.72 0-.432.288-.756.864-.936 1.836-.504 3.888-.792 6.156-.792 2.772 0 4.752.612 5.904 1.764.9.936 1.368 2.448 1.368 4.5v10.692c0 .36-.108.648-.288.792s-.504.216-.936.216H36.71c-.432 0-.72-.036-.9-.144s-.324-.324-.432-.684zm-1.296-4.608v-1.008q-.594-.108-1.728-.108h-.396q-1.296 0-1.836.324c-.36.216-.504.648-.504 1.296v.144c0 .648.144 1.08.504 1.296.324.252.828.36 1.512.36h.252c.72 0 1.26-.18 1.692-.54.324-.288.504-.9.504-1.764m8.525 12.492h-2.088c-.36 0-.648-.072-.792-.252-.144-.144-.216-.468-.216-.9v-2.52c0-.36.072-.648.216-.792s.432-.252.792-.252h.9c.648 0 1.152-.144 1.476-.504.288-.288.432-1.044.432-2.232V17.404c0-.36.072-.612.252-.792.18-.144.504-.252.972-.252h3.312c.432 0 .756.108.936.252.18.18.288.432.288.792v15.948c0 2.592-.468 4.392-1.404 5.436q-1.458 1.62-5.076 1.62m3.816-25.416h-.432c-1.944 0-2.916-.972-2.916-2.988v-.18c0-1.98.972-2.988 2.916-2.988h.432c1.944 0 2.916 1.008 2.916 2.988v.18c0 2.016-.972 2.988-2.916 2.988m19.42 8.784v2.808c0 1.404.215 2.304.647 2.736.324.36.828.504 1.512.504h.144c.648 0 1.152-.144 1.512-.504.432-.432.648-1.332.648-2.736v-2.808c0-1.368-.216-2.304-.648-2.736-.36-.324-.864-.504-1.512-.504h-.144c-.684 0-1.188.18-1.512.504-.432.432-.648 1.368-.648 2.736m10.26.216v2.34c0 1.8-.18 3.168-.54 4.176s-.937 1.8-1.729 2.412c-1.188.936-3.024 1.404-5.544 1.404h-.432c-2.52 0-4.392-.468-5.544-1.404-.792-.612-1.368-1.404-1.728-2.412s-.54-2.376-.54-4.176v-2.304c0-1.764.18-3.132.54-4.14s.936-1.8 1.728-2.448c1.152-.936 3.024-1.404 5.544-1.404h.432c2.52 0 4.356.468 5.544 1.404a5.54 5.54 0 0 1 1.728 2.412c.36 1.008.54 2.376.54 4.14m2.614-1.836v-.468c0-1.764.468-3.096 1.404-4.032 1.08-1.08 2.916-1.62 5.472-1.62h.36c2.016 0 3.78.216 5.256.648q.432.162.54.324c.072.144.108.324.072.612l-.396 2.952c-.072.468-.396.612-.972.468-1.44-.324-2.736-.504-3.816-.504h-.036c-.792 0-1.368.072-1.656.216-.324.144-.468.396-.468.756v.108c0 .36.108.612.396.756s.828.324 1.656.468l1.692.36c1.548.36 2.664.9 3.312 1.62s.972 1.836.972 3.312v.54c0 3.78-2.376 5.652-7.056 5.652h-.36c-2.376 0-4.356-.324-6.012-.972-.324-.108-.54-.252-.612-.432-.072-.144-.072-.432 0-.828l.504-2.376c.108-.684.504-.9 1.224-.684 1.656.576 3.096.828 4.32.828h.108c.792 0 1.332-.072 1.656-.252.288-.144.468-.432.468-.828v-.108a.77.77 0 0 0-.396-.684q-.432-.216-1.728-.54l-1.584-.36q-2.376-.54-3.348-1.62c-.648-.72-.972-1.8-.972-3.312m22.648-1.224h-5.724c-.36 0-.612-.036-.756-.18s-.18-.432-.18-.864v-2.484c0-.432.036-.684.18-.828q.216-.216.756-.216h12.168c.36 0 .612.072.792.216.144.144.252.432.252.828v.684c0 .936-.288 1.8-.792 2.556l-6.192 8.784h6.156c.36 0 .576.072.72.216s.216.396.216.828v2.484q0 .648-.216.864c-.144.144-.36.18-.72.18H95.425c-.756 0-1.116-.324-1.116-1.044v-.828c0-.936.252-1.764.792-2.556zm18.303 8.748h.288c.972 0 2.016-.144 3.132-.468.36-.072.576-.108.684-.108.36 0 .576.216.648.612l.324 1.836c.072.504.144.828.144.972 0 .432-.324.756-.936.972-1.584.576-3.312.828-5.184.828h-.432c-2.592 0-4.5-.576-5.688-1.8q-1.836-1.836-1.836-6.156V24.28c0-1.692.144-3.024.432-3.96q.432-1.404 1.404-2.376c1.26-1.26 3.24-1.908 5.94-1.908h.36c2.16 0 4.032.396 5.544 1.188.432.252.684.54.684.9 0 .216-.108.576-.288 1.08l-.684 1.728q-.27.648-.756.648c-.144 0-.36-.036-.648-.18-1.152-.468-2.232-.72-3.204-.72h-.144c-.936 0-1.62.252-2.052.684-.54.54-.792 1.656-.792 3.312V25.9c0 1.476.216 2.484.72 3.024.468.504 1.26.756 2.34.756m13.936-8.748h-5.724c-.36 0-.612-.036-.756-.18s-.18-.432-.18-.864v-2.484c0-.432.036-.684.18-.828q.216-.216.756-.216h12.168c.36 0 .612.072.792.216.144.144.252.432.252.828v.684c0 .936-.288 1.8-.792 2.556l-6.192 8.784h6.156c.36 0 .576.072.72.216s.216.396.216.828v2.484q0 .648-.216.864c-.144.144-.36.18-.72.18h-12.384c-.756 0-1.116-.324-1.116-1.044v-.828c0-.936.252-1.764.792-2.556zm18.59 8.748h.396c1.224 0 2.52-.144 3.816-.468.36-.072.576-.108.684-.108.36 0 .576.216.648.612l.288 1.8c.072.504.144.828.144.972 0 .432-.324.756-.936.972a5.2 5.2 0 0 0-2.304 1.728c-.612.792-.9 1.584-.9 2.304v.108c0 .684.324 1.008.972 1.008h.18c.396 0 .9-.072 1.476-.288.18-.036.324-.072.432-.072.18 0 .324.18.432.468l.18.756c.108.504.18.756.18.828 0 .216-.18.396-.504.54q-1.404.54-2.916.54h-.216c-1.26 0-2.196-.252-2.844-.792s-.972-1.296-.972-2.304v-.108c0-.648.216-1.368.684-2.088s1.08-1.296 1.872-1.8c-.288.036-.684.036-1.188.036h-.684q-4.428 0-6.264-1.836a5.16 5.16 0 0 1-1.44-2.448c-.252-.936-.36-2.196-.36-3.744V24.28c0-3.132.72-5.328 2.16-6.624 1.224-1.08 3.096-1.62 5.652-1.62h.504c2.52 0 4.356.612 5.436 1.8 1.152 1.296 1.728 3.42 1.728 6.444v1.872c0 .684-.36 1.008-1.044 1.008h-8.64v.288c0 .864.216 1.44.72 1.764.468.324 1.332.468 2.628.468m-3.348-6.264h3.96c.288 0 .432-.144.432-.468v-.576c0-.72-.144-1.26-.36-1.656-.288-.432-.864-.648-1.656-.648h-.324c-.72 0-1.224.18-1.512.504q-.54.648-.54 1.944zm22.609 4.212v-4.572c0-.9-.144-1.548-.432-1.908-.324-.36-.9-.576-1.692-.576h-.36c-.792 0-1.332.216-1.656.612-.36.396-.504 1.512-.504 3.384v1.584c0 1.728.18 2.808.54 3.168.288.36.828.504 1.656.504h.396c.684 0 1.188-.144 1.548-.468.324-.324.504-.9.504-1.728m-.072-10.944h.072v-6.012c0-.36.072-.612.252-.792.18-.144.504-.252.972-.252h3.348c.432 0 .756.108.936.252.144.18.252.432.252.792v16.38c0 2.52-.468 4.248-1.404 5.256-.684.72-1.512 1.26-2.484 1.548-1.008.324-2.34.468-4.032.468h-.612c-2.664 0-4.572-.54-5.796-1.62-1.26-1.08-1.872-3.096-1.872-6.084v-2.88c0-2.88.576-4.896 1.8-6.048 1.152-1.08 2.736-1.656 4.788-1.656h.432q2.052 0 3.348.648m18.767-.648h.288c2.088 0 3.636.504 4.572 1.476.864.936 1.332 2.52 1.332 4.752v10.692c0 .36-.108.648-.288.792-.18.18-.504.252-.936.252h-3.312c-.468 0-.792-.072-.972-.252-.18-.144-.252-.432-.252-.792V22.768c0-.792-.144-1.368-.396-1.656-.288-.288-.828-.468-1.584-.468h-.216c-.792 0-1.296.18-1.584.468s-.396.864-.396 1.656v10.188c0 .36-.108.648-.288.792-.18.18-.504.252-.936.252h-3.312c-.468 0-.792-.072-.972-.252-.18-.144-.252-.432-.252-.792V17.368c0-.36.072-.612.252-.756s.504-.252.972-.252h1.692c.432 0 .72.072.9.18q.27.162.432.648l.216.684h.108c1.152-1.224 2.772-1.836 4.932-1.836m14.841 7.74v2.808c0 1.404.216 2.304.648 2.736.324.36.828.504 1.512.504h.144c.648 0 1.152-.144 1.512-.504.432-.432.648-1.332.648-2.736v-2.808c0-1.368-.216-2.304-.648-2.736-.36-.324-.864-.504-1.512-.504h-.144c-.684 0-1.188.18-1.512.504-.432.432-.648 1.368-.648 2.736m10.26.216v2.34c0 1.8-.18 3.168-.54 4.176s-.936 1.8-1.728 2.412c-1.188.936-3.024 1.404-5.544 1.404h-.432c-2.52 0-4.392-.468-5.544-1.404-.792-.612-1.368-1.404-1.728-2.412s-.54-2.376-.54-4.176v-2.304c0-1.764.18-3.132.54-4.14s.936-1.8 1.728-2.448c1.152-.936 3.024-1.404 5.544-1.404h.432c2.52 0 4.356.468 5.544 1.404a5.54 5.54 0 0 1 1.728 2.412c.36 1.008.54 2.376.54 4.14m2.614-1.836v-.468c0-1.764.468-3.096 1.404-4.032 1.08-1.08 2.916-1.62 5.472-1.62h.36c2.016 0 3.78.216 5.256.648q.432.162.54.324c.072.144.108.324.072.612l-.396 2.952c-.072.468-.396.612-.972.468-1.44-.324-2.736-.504-3.816-.504h-.036c-.792 0-1.368.072-1.656.216-.324.144-.468.396-.468.756v.108c0 .36.108.612.396.756s.828.324 1.656.468l1.692.36c1.548.36 2.664.9 3.312 1.62s.972 1.836.972 3.312v.54c0 3.78-2.376 5.652-7.056 5.652h-.36c-2.376 0-4.356-.324-6.012-.972-.324-.108-.54-.252-.612-.432-.072-.144-.072-.432 0-.828l.504-2.376c.108-.684.504-.9 1.224-.684 1.656.576 3.096.828 4.32.828h.108c.792 0 1.332-.072 1.656-.252.288-.144.468-.432.468-.828v-.108a.77.77 0 0 0-.396-.684q-.432-.216-1.728-.54l-1.584-.36q-2.376-.54-3.348-1.62c-.648-.72-.972-1.8-.972-3.312m3.348-10.548 5.652-4.824c.216-.216.468-.324.684-.324.252 0 .504.18.72.468l1.728 2.232c.144.216.216.396.216.612 0 .288-.216.576-.576.864l-5.688 3.888c-.288.18-.504.252-.72.252-.288 0-.576-.144-.864-.504l-1.08-1.26c-.288-.324-.396-.612-.396-.828s.108-.432.324-.576M242.71 29.68h.288c.972 0 2.016-.144 3.132-.468.36-.072.576-.108.684-.108.36 0 .576.216.648.612l.324 1.836c.072.504.144.828.144.972 0 .432-.324.756-.936.972-1.584.576-3.312.828-5.184.828h-.432c-2.592 0-4.5-.576-5.688-1.8q-1.836-1.836-1.836-6.156V24.28c0-1.692.144-3.024.432-3.96q.432-1.404 1.404-2.376c1.26-1.26 3.24-1.908 5.94-1.908h.36c2.16 0 4.032.396 5.544 1.188.432.252.684.54.684.9 0 .216-.108.576-.288 1.08l-.684 1.728q-.27.648-.756.648c-.144 0-.36-.036-.648-.18-1.152-.468-2.232-.72-3.204-.72h-.144c-.936 0-1.62.252-2.052.684-.54.54-.792 1.656-.792 3.312V25.9c0 1.476.216 2.484.72 3.024.468.504 1.26.756 2.34.756m13.899-12.276v15.552c0 .36-.108.648-.288.792-.18.18-.504.252-.936.252h-3.312c-.468 0-.792-.072-.972-.252-.18-.144-.252-.432-.252-.792V17.404c0-.36.072-.612.252-.792.18-.144.504-.252.972-.252h3.312c.432 0 .756.108.936.252.18.18.288.432.288.792m-2.664-2.412h-.432c-1.944 0-2.916-.972-2.916-2.988v-.18c0-1.98.972-2.988 2.916-2.988h.432c1.944 0 2.916 1.008 2.916 2.988v.18c0 2.016-.972 2.988-2.916 2.988m11.615 8.784v2.808c0 1.404.216 2.304.648 2.736.324.36.828.504 1.512.504h.144c.648 0 1.152-.144 1.512-.504.432-.432.648-1.332.648-2.736v-2.808c0-1.368-.216-2.304-.648-2.736-.36-.324-.864-.504-1.512-.504h-.144c-.684 0-1.188.18-1.512.504-.432.432-.648 1.368-.648 2.736m10.26.216v2.34c0 1.8-.18 3.168-.54 4.176s-.936 1.8-1.728 2.412c-1.188.936-3.024 1.404-5.544 1.404h-.432c-2.52 0-4.392-.468-5.544-1.404-.792-.612-1.368-1.404-1.728-2.412s-.54-2.376-.54-4.176v-2.304c0-1.764.18-3.132.54-4.14s.936-1.8 1.728-2.448c1.152-.936 3.024-1.404 5.544-1.404h.432c2.52 0 4.356.468 5.544 1.404a5.54 5.54 0 0 1 1.728 2.412c.36 1.008.54 2.376.54 4.14m18.634-1.224v10.188c0 .36-.108.648-.288.792-.18.18-.504.252-.936.252h-3.312c-.468 0-.792-.072-.972-.252-.18-.144-.252-.432-.252-.792V22.768c0-.792-.144-1.368-.396-1.656-.288-.288-.828-.468-1.584-.468h-.072c-.792 0-1.296.18-1.584.468s-.396.864-.396 1.656v10.188c0 .36-.108.648-.288.792-.18.18-.504.252-.936.252h-3.312c-.468 0-.792-.072-.972-.252-.18-.144-.252-.432-.252-.792V17.368c0-.36.072-.612.252-.756s.504-.252.972-.252h1.692c.432 0 .72.072.9.18q.27.162.432.648l.216.684h.108c1.152-1.224 2.772-1.836 4.932-1.836h.144c2.052 0 3.636.576 4.752 1.656 1.152-1.08 2.808-1.656 4.896-1.656h.144c2.088 0 3.636.504 4.572 1.476.864.936 1.332 2.52 1.332 4.752v10.692c0 .36-.108.648-.288.792-.18.18-.504.252-.936.252h-3.312c-.468 0-.792-.072-.972-.252-.18-.144-.252-.432-.252-.792V22.768c0-.792-.144-1.368-.396-1.656-.288-.288-.828-.468-1.584-.468h-.072c-.792 0-1.296.18-1.584.468s-.396.864-.396 1.656m25.547-4.464h.108c.792-1.296 2.124-1.944 4.032-1.944h1.44c.36 0 .648.072.792.216s.252.396.252.792v2.628c0 .396-.072.648-.216.792q-.216.216-.756.216h-1.08c-1.332 0-2.232.252-2.736.756-.432.432-.612 1.26-.612 2.484v8.712c0 .36-.108.648-.288.792-.18.18-.504.252-.936.252h-3.312c-.468 0-.792-.072-.972-.252-.18-.144-.252-.432-.252-.792V17.368c0-.36.072-.612.252-.756s.504-.252.972-.252h1.728c.396 0 .684.072.864.18q.27.216.432.648zm13.832 5.472v2.808c0 1.404.216 2.304.648 2.736.324.36.828.504 1.512.504h.144c.648 0 1.152-.144 1.512-.504.432-.432.648-1.332.648-2.736v-2.808c0-1.368-.216-2.304-.648-2.736-.36-.324-.864-.504-1.512-.504h-.144c-.684 0-1.188.18-1.512.504-.432.432-.648 1.368-.648 2.736m10.26.216v2.34c0 1.8-.18 3.168-.54 4.176s-.936 1.8-1.728 2.412c-1.188.936-3.024 1.404-5.544 1.404h-.432c-2.52 0-4.392-.468-5.544-1.404-.792-.612-1.368-1.404-1.728-2.412s-.54-2.376-.54-4.176v-2.304c0-1.764.18-3.132.54-4.14s.936-1.8 1.728-2.448c1.152-.936 3.024-1.404 5.544-1.404h.432c2.52 0 4.356.468 5.544 1.404a5.54 5.54 0 0 1 1.728 2.412c.36 1.008.54 2.376.54 4.14m2.615-1.836v-.468c0-1.764.468-3.096 1.404-4.032 1.08-1.08 2.916-1.62 5.472-1.62h.36c2.016 0 3.78.216 5.256.648q.432.162.54.324c.072.144.108.324.072.612l-.396 2.952c-.072.468-.396.612-.972.468-1.44-.324-2.736-.504-3.816-.504h-.036c-.792 0-1.368.072-1.656.216-.324.144-.468.396-.468.756v.108c0 .36.108.612.396.756s.828.324 1.656.468l1.692.36c1.548.36 2.664.9 3.312 1.62s.972 1.836.972 3.312v.54c0 3.78-2.376 5.652-7.056 5.652h-.36c-2.376 0-4.356-.324-6.012-.972-.324-.108-.54-.252-.612-.432-.072-.144-.072-.432 0-.828l.504-2.376c.108-.684.504-.9 1.224-.684 1.656.576 3.096.828 4.32.828h.108c.792 0 1.332-.072 1.656-.252.288-.144.468-.432.468-.828v-.108a.77.77 0 0 0-.396-.684q-.432-.216-1.728-.54l-1.584-.36q-2.376-.54-3.348-1.62c-.648-.72-.972-1.8-.972-3.312m26.284-6.12h.288c2.088 0 3.636.504 4.572 1.476.864.936 1.332 2.52 1.332 4.752v10.692c0 .36-.108.648-.288.792-.18.18-.504.252-.936.252h-3.312c-.468 0-.792-.072-.972-.252-.18-.144-.252-.432-.252-.792V22.768c0-.792-.144-1.368-.396-1.656-.288-.288-.828-.468-1.584-.468h-.216c-.792 0-1.296.18-1.584.468s-.396.864-.396 1.656v10.188c0 .36-.108.648-.288.792-.18.18-.504.252-.936.252h-3.312c-.468 0-.792-.072-.972-.252-.18-.144-.252-.432-.252-.792V17.368c0-.36.072-.612.252-.756s.504-.252.972-.252h1.692c.432 0 .72.072.9.18q.27.162.432.648l.216.684h.108c1.152-1.224 2.772-1.836 4.932-1.836m20.025 16.488h-.072c-.792 1.224-2.376 1.8-4.716 1.8h-.54c-1.836 0-3.276-.468-4.284-1.404-1.044-.936-1.548-2.34-1.548-4.14v-.396c0-1.944.54-3.348 1.656-4.14s2.916-1.188 5.436-1.188h.252c.936 0 1.8.072 2.52.144v-.756c0-.756-.216-1.296-.612-1.584-.432-.252-1.152-.396-2.16-.396-1.224 0-2.592.216-4.176.612-.432.108-.756.108-.9 0-.18-.108-.288-.324-.324-.684l-.288-1.908c-.072-.36-.072-.612-.072-.72 0-.432.288-.756.864-.936 1.836-.504 3.888-.792 6.156-.792 2.772 0 4.752.612 5.904 1.764.9.936 1.368 2.448 1.368 4.5v10.692c0 .54-.216.864-.576 1.008-.9.36-1.656.864-2.232 1.512-.612.648-.9 1.332-.9 2.016v.108q0 .972.972.972h.108c.432 0 .972-.072 1.548-.288.18-.036.324-.072.432-.072.18 0 .324.18.432.468l.18.756c.108.504.18.756.18.828 0 .216-.18.396-.504.54q-1.404.54-2.916.54h-.216c-1.224 0-2.196-.252-2.844-.792s-.972-1.296-.972-2.232v-.18c0-.864.288-1.692.9-2.484.576-.792 1.368-1.44 2.304-1.944zm-1.296-4.608v-1.008q-.594-.108-1.728-.108h-.396q-1.296 0-1.836.324c-.36.216-.504.648-.504 1.296v.144c0 .648.144 1.08.504 1.296.324.252.828.36 1.512.36h.252c.72 0 1.26-.18 1.692-.54.324-.288.504-.9.504-1.764m17.594 1.764h.288c.972 0 2.016-.144 3.132-.468.36-.072.576-.108.684-.108.36 0 .576.216.648.612l.324 1.836c.072.504.144.828.144.972 0 .432-.324.756-.936.972-1.584.576-3.312.828-5.184.828h-.432c-2.592 0-4.5-.576-5.688-1.8q-1.836-1.836-1.836-6.156V24.28c0-1.692.144-3.024.432-3.96q.432-1.404 1.404-2.376c1.26-1.26 3.24-1.908 5.94-1.908h.36c2.16 0 4.032.396 5.544 1.188.432.252.684.54.684.9 0 .216-.108.576-.288 1.08l-.684 1.728q-.27.648-.756.648c-.144 0-.36-.036-.648-.18-1.152-.468-2.232-.72-3.204-.72h-.144c-.936 0-1.62.252-2.052.684-.54.54-.792 1.656-.792 3.312V25.9c0 1.476.216 2.484.72 3.024.468.504 1.26.756 2.34.756m-4.428-18.072 5.652-4.824c.216-.216.468-.324.684-.324.252 0 .504.18.72.468l1.728 2.232c.144.216.216.396.216.612 0 .288-.216.576-.576.864l-5.688 3.888c-.252.18-.504.252-.72.252-.288 0-.576-.144-.864-.504l-1.08-1.26c-.288-.324-.396-.612-.396-.828s.108-.432.324-.576"/></svg>