<svg xmlns="http://www.w3.org/2000/svg" fill="none" viewBox="0 0 254 43"><path fill="#fff" d="M7.596 23.02v4.608c0 .828.144 1.404.504 1.728.288.324.828.468 1.62.468h.324c.828 0 1.404-.216 1.764-.72q.432-.648.432-3.132v-1.548c0-1.8-.18-2.916-.468-3.276-.324-.36-.936-.576-1.8-.576h-.144c-.828 0-1.404.18-1.764.54-.324.324-.468.972-.468 1.908m0-6.012h.072q1.566-.972 4.104-.972h.324c2.16 0 3.744.648 4.716 1.944.792 1.116 1.224 3.096 1.224 5.94v2.592c0 2.88-.612 4.896-1.836 6.012-1.296 1.224-3.348 1.8-6.156 1.8h-.72c-2.952 0-4.968-.576-6.048-1.764-.972-1.044-1.44-2.736-1.44-5.112V10.672c0-.36.072-.612.252-.792.144-.144.468-.252.936-.252h3.348c.432 0 .756.108.936.252.18.18.288.432.288.792zM29.705 29.68h.396c1.224 0 2.52-.144 3.816-.468.36-.072.576-.108.684-.108.36 0 .576.216.648.612l.288 1.8c.072.504.144.828.144.972 0 .432-.324.756-.936.972-1.656.576-3.492.864-5.436.864h-.684q-4.428 0-6.264-1.836a5.16 5.16 0 0 1-1.44-2.448c-.252-.936-.36-2.196-.36-3.744V24.28c0-3.132.72-5.328 2.16-6.624 1.224-1.08 3.096-1.62 5.652-1.62h.504c2.52 0 4.356.612 5.436 1.8 1.152 1.296 1.728 3.42 1.728 6.444v1.872c0 .684-.36 1.008-1.044 1.008h-8.64v.288c0 .864.216 1.44.72 1.764.468.324 1.332.468 2.628.468m-3.348-6.264h3.96c.288 0 .432-.144.432-.468v-.576c0-.72-.144-1.26-.36-1.656-.288-.432-.864-.648-1.656-.648h-.324c-.72 0-1.224.18-1.512.504q-.54.648-.54 1.944zm18.613-2.484h-5.724c-.36 0-.612-.036-.756-.18s-.18-.432-.18-.864v-2.484c0-.432.036-.684.18-.828q.216-.216.756-.216h12.168c.36 0 .612.072.792.216.144.144.252.432.252.828v.684c0 .936-.288 1.8-.792 2.556l-6.192 8.784h6.156c.36 0 .576.072.72.216s.216.396.216.828v2.484q0 .648-.216.864c-.144.144-.36.18-.72.18H39.246c-.756 0-1.116-.324-1.116-1.044v-.828c0-.936.252-1.764.792-2.556zm24.27 8.388h1.153c.36 0 .648.108.792.252.144.18.252.504.252.972v2.232c0 .504-.108.828-.252.972-.144.18-.432.252-.792.252h-2.736c-1.8 0-3.06-.324-3.78-1.044-.72-.684-1.08-1.908-1.08-3.636V10.672c0-.36.072-.612.252-.792.18-.144.504-.252.972-.252h3.312c.432 0 .756.108.936.252.18.18.288.432.288.792v17.964c0 .288.036.468.144.54.072.108.252.144.54.144m10.393-11.916v15.552c0 .36-.108.648-.288.792-.18.18-.504.252-.936.252h-3.312c-.468 0-.792-.072-.972-.252-.18-.144-.252-.432-.252-.792V17.404c0-.36.072-.612.252-.792.18-.144.504-.252.972-.252h3.312c.432 0 .756.108.936.252.18.18.288.432.288.792m-2.664-2.412h-.432c-1.944 0-2.916-.972-2.916-2.988v-.18c0-1.98.972-2.988 2.916-2.988h.432c1.944 0 2.916 1.008 2.916 2.988v.18c0 2.016-.972 2.988-2.916 2.988m21.946 7.776v10.188c0 .36-.108.648-.288.792-.18.18-.504.252-.936.252H94.38c-.468 0-.792-.072-.972-.252-.18-.144-.252-.432-.252-.792V22.768c0-.792-.144-1.368-.396-1.656-.288-.288-.828-.468-1.584-.468h-.072c-.792 0-1.296.18-1.584.468s-.396.864-.396 1.656v10.188c0 .36-.108.648-.288.792-.18.18-.504.252-.936.252h-3.312c-.468 0-.792-.072-.972-.252-.18-.144-.252-.432-.252-.792V17.368c0-.36.072-.612.252-.756s.504-.252.972-.252h1.692c.432 0 .72.072.9.18q.27.162.432.648l.216.684h.108c1.152-1.224 2.772-1.836 4.932-1.836h.144c2.052 0 3.636.576 4.752 1.656 1.152-1.08 2.808-1.656 4.896-1.656h.144c2.088 0 3.636.504 4.572 1.476.864.936 1.332 2.52 1.332 4.752v10.692c0 .36-.108.648-.288.792-.18.18-.504.252-.936.252h-3.312c-.468 0-.792-.072-.972-.252-.18-.144-.252-.432-.252-.792V22.768c0-.792-.144-1.368-.396-1.656-.288-.288-.828-.468-1.584-.468h-.072c-.792 0-1.296.18-1.584.468s-.396.864-.396 1.656m19.038-5.364v15.552c0 .36-.108.648-.288.792-.18.18-.504.252-.936.252h-3.312c-.468 0-.792-.072-.972-.252-.18-.144-.252-.432-.252-.792V17.404c0-.36.072-.612.252-.792.18-.144.504-.252.972-.252h3.312c.432 0 .756.108.936.252.18.18.288.432.288.792m-2.664-2.412h-.432c-1.944 0-2.916-.972-2.916-2.988v-.18c0-1.98.972-2.988 2.916-2.988h.432c1.944 0 2.916 1.008 2.916 2.988v.18c0 2.016-.972 2.988-2.916 2.988m17.663 15.624v2.052c0 .54-.108.9-.252 1.08s-.468.252-.9.252h-2.88c-2.592 0-4.32-.432-5.112-1.332-.72-.756-1.044-2.196-1.044-4.356V20.86h-1.944c-.36 0-.576-.036-.72-.18s-.18-.36-.18-.72v-1.836c0-.432.036-.72.18-.864.108-.144.36-.252.756-.36l1.908-.468v-3.528c0-.36.072-.612.252-.792.18-.144.504-.252.972-.252h3.312c.432 0 .756.108.936.252.18.18.288.432.288.792v3.456h2.988c.36 0 .576.072.72.216s.216.396.216.828v2.412q0 .648-.216.864c-.144.144-.36.18-.72.18h-2.988v6.804c0 .648.072 1.044.288 1.26.216.252.684.36 1.404.36h1.584c.432 0 .756.108.9.288s.252.54.252 1.044m12.192-3.06V17.404c0-.36.072-.612.252-.792.18-.144.504-.252.972-.252h3.312c.432 0 .756.108.936.252.18.18.288.432.288.792V28.06q0 3.294-1.62 4.752c-1.152 1.008-3.168 1.512-6.12 1.512s-5.004-.504-6.12-1.512q-1.62-1.458-1.62-4.752V17.404c0-.36.072-.612.252-.792.18-.144.504-.252.972-.252h3.312c.432 0 .756.108.936.252.18.18.288.432.288.792v10.152c0 .828.108 1.368.396 1.656.288.324.792.468 1.584.468.756 0 1.296-.144 1.584-.468.252-.288.396-.828.396-1.656m22.729-.54v5.94c0 .36-.108.648-.288.792-.18.18-.504.252-.936.252h-3.312c-.468 0-.792-.072-.972-.252-.18-.144-.252-.432-.252-.792V10.672c0-.36.072-.612.252-.792.18-.144.504-.252.972-.252h3.312c.432 0 .756.108.936.252.18.18.288.432.288.792v11.736h.252l3.42-5.22c.324-.54.828-.828 1.512-.828h4.176c.396 0 .612.144.612.432 0 .144-.108.396-.288.684l-4.14 6.192c-.324.504-.468.864-.468 1.08 0 .252.144.612.468 1.08l4.428 6.984c.144.288.216.468.216.612 0 .396-.252.576-.756.576h-3.996c-.504 0-.9-.036-1.116-.18q-.324-.162-.648-.756l-3.42-6.048zm21.527-9.792h3.096c.504 0 .864.072 1.044.216s.324.432.396.864c0 .144.648 3.348 1.908 9.576h.108c.648-3.78 1.224-7.272 1.692-10.512.036-.396.144-.648.288-.792q.216-.216.756-.216h3.672c.396 0 .648.108.792.252.108.18.144.468.072.828-.576 2.808-1.296 5.904-2.088 9.288s-1.368 5.508-1.728 6.408c-.144.36-.324.612-.504.72s-.468.144-.828.144h-3.96c-.756 0-1.224-.252-1.368-.828-.684-2.448-1.26-5.544-1.764-9.288h-.144a99 99 0 0 1-1.8 9.288c-.144.576-.576.828-1.296.828h-3.888c-.72 0-1.188-.252-1.368-.792-.36-.972-.972-3.204-1.836-6.66a167 167 0 0 1-2.016-9.108c-.108-.396-.072-.684.072-.828s.432-.252.864-.252h3.528c.36 0 .648.072.828.216.144.144.252.432.324.792.504 3.348 1.08 6.84 1.764 10.512h.144c.864-4.464 1.476-7.668 1.764-9.576.072-.468.18-.756.36-.9.18-.108.54-.18 1.116-.18m21.176 6.552v2.808c0 1.404.216 2.304.648 2.736.324.36.828.504 1.512.504h.144c.648 0 1.152-.144 1.512-.504.432-.432.648-1.332.648-2.736v-2.808c0-1.368-.216-2.304-.648-2.736-.36-.324-.864-.504-1.512-.504h-.144c-.684 0-1.188.18-1.512.504-.432.432-.648 1.368-.648 2.736m10.26.216v2.34c0 1.8-.18 3.168-.54 4.176s-.936 1.8-1.728 2.412c-1.188.936-3.024 1.404-5.544 1.404h-.432c-2.52 0-4.392-.468-5.544-1.404-.792-.612-1.368-1.404-1.728-2.412s-.54-2.376-.54-4.176v-2.304c0-1.764.18-3.132.54-4.14s.936-1.8 1.728-2.448c1.152-.936 3.024-1.404 5.544-1.404h.432c2.52 0 4.356.468 5.544 1.404a5.54 5.54 0 0 1 1.728 2.412c.36 1.008.54 2.376.54 4.14m14.35 6.624v2.052c0 .54-.108.9-.252 1.08s-.468.252-.9.252h-2.88c-2.592 0-4.32-.432-5.112-1.332-.72-.756-1.044-2.196-1.044-4.356V20.86h-1.944c-.36 0-.576-.036-.72-.18s-.18-.36-.18-.72v-1.836c0-.432.036-.72.18-.864.108-.144.36-.252.756-.36l1.908-.468v-3.528c0-.36.072-.612.252-.792.18-.144.504-.252.972-.252h3.312c.432 0 .756.108.936.252.18.18.288.432.288.792v3.456h2.988c.36 0 .576.072.72.216s.216.396.216.828v2.412q0 .648-.216.864c-.144.144-.36.18-.72.18h-2.988v6.804c0 .648.072 1.044.288 1.26.216.252.684.36 1.404.36h1.584c.432 0 .756.108.9.288s.252.54.252 1.044m17.988-13.176c-.504 3.384-1.44 7.128-2.808 11.268-1.404 4.14-3.096 8.064-5.076 11.736-.252.504-.576.756-1.008.756-.288 0-.612-.072-1.044-.288l-1.836-.792c-.648-.288-.936-.576-.936-.9 0-.144.036-.36.18-.612 1.224-2.484 1.944-3.924 2.088-4.32-1.008-.36-1.764-1.152-2.34-2.448-.648-1.44-1.404-3.636-2.232-6.66q-1.242-4.536-1.836-7.776c-.072-.36-.036-.612.144-.792.18-.144.504-.252.936-.252h3.276c.396 0 .684.072.864.18s.324.324.396.684c.828 4.536 1.764 8.568 2.808 12.06h.18c1.008-2.88 1.944-6.84 2.808-11.952q.054-.54.324-.756c.18-.144.468-.216.828-.216h3.312c.396 0 .684.108.828.252s.18.432.144.828"/></svg>