<svg xmlns="http://www.w3.org/2000/svg" fill="none" viewBox="0 0 291 24"><path fill="#007990" d="M5.94 8.58h-.26c-.28 0-.56.02-.88.04-.12.02-.16.1-.16.24v3.16h1.04c.72 0 1.2-.1 1.48-.34.24-.2.36-.58.36-1.18V10c0-.48-.12-.84-.34-1.06-.24-.24-.66-.36-1.24-.36m-1.3 6.18v3.62c0 .42-.24.62-.7.62H1.98c-.26 0-.44-.04-.54-.14-.12-.08-.16-.24-.16-.48V6.88q0-.48.18-.66c.12-.12.34-.2.7-.24.72-.06 1.84-.1 3.38-.1h.24c2.04 0 3.44.4 4.22 1.18.6.64.9 1.6.9 2.9v.68c0 1.5-.42 2.56-1.26 3.16-.88.64-2.22.96-4.04.96zm10.354-1.44v1.56c0 .78.12 1.28.36 1.52.18.2.46.28.84.28h.08c.36 0 .64-.08.84-.28.24-.24.36-.74.36-1.52v-1.56c0-.76-.12-1.28-.36-1.52-.2-.18-.48-.28-.84-.28h-.08c-.38 0-.66.1-.84.28-.24.24-.36.76-.36 1.52m5.7.12v1.3c0 1-.1 1.76-.3 2.32s-.52 1-.96 1.34c-.66.52-1.68.78-3.08.78h-.24c-1.4 0-2.44-.26-3.08-.78-.44-.34-.76-.78-.96-1.34s-.3-1.32-.3-2.32v-1.28c0-.98.1-1.74.3-2.3s.52-1 .96-1.36c.64-.52 1.68-.78 3.08-.78h.24c1.4 0 2.42.26 3.08.78.44.36.76.8.96 1.34.2.56.3 1.32.3 2.3m4.913-.54v2.56c0 .46.08.78.28.96.16.18.46.26.9.26h.18c.46 0 .78-.12.98-.4q.24-.36.24-1.74v-.86c0-1-.1-1.62-.26-1.82-.18-.2-.52-.32-1-.32h-.08c-.46 0-.78.1-.98.3-.18.18-.26.54-.26 1.06m0-3.34h.04q.87-.54 2.28-.54h.18c1.2 0 2.08.36 2.62 1.08.44.62.68 1.72.68 3.3v1.44c0 1.6-.34 2.72-1.02 3.34-.72.68-1.86 1-3.42 1h-.4c-1.64 0-2.76-.32-3.36-.98-.54-.58-.8-1.52-.8-2.84V6.04c0-.2.04-.34.14-.44.08-.08.26-.14.52-.14h1.86c.24 0 .42.06.52.14.1.1.16.24.16.44zm10.762.22v8.64c0 .2-.06.36-.16.44-.1.1-.28.14-.52.14h-1.84c-.26 0-.44-.04-.54-.14-.1-.08-.14-.24-.14-.44V9.78c0-.2.04-.34.14-.44.1-.08.28-.14.54-.14h1.84c.24 0 .42.06.52.14.1.1.16.24.16.44m-1.48-1.34h-.24c-1.08 0-1.62-.54-1.62-1.66v-.1c0-1.1.54-1.66 1.62-1.66h.24c1.08 0 1.62.56 1.62 1.66v.1c0 1.12-.54 1.66-1.62 1.66m8.313 8.16h.22c.68 0 1.4-.08 2.12-.26.2-.04.32-.06.38-.06.2 0 .32.12.36.34l.16 1c.04.28.08.46.08.54 0 .24-.18.42-.52.54-.92.32-1.94.48-3.02.48h-.38q-2.46 0-3.48-1.02c-.4-.38-.66-.84-.8-1.36s-.2-1.22-.2-2.08V13.6c0-1.74.4-2.96 1.2-3.68.68-.6 1.72-.9 3.14-.9h.28c1.4 0 2.42.34 3.02 1 .64.72.96 1.9.96 3.58v1.04c0 .38-.2.56-.58.56h-4.8v.16c0 .48.12.8.4.98.26.18.74.26 1.46.26m-1.86-3.48h2.2c.16 0 .24-.08.24-.26v-.32c0-.4-.08-.7-.2-.92-.16-.24-.48-.36-.92-.36h-.18c-.4 0-.68.1-.84.28q-.3.36-.3 1.08zm9.6-2.84h.06c.44-.72 1.18-1.08 2.24-1.08h.8c.2 0 .36.04.44.12s.14.22.14.44v1.46c0 .22-.04.36-.12.44q-.12.12-.42.12h-.6c-.74 0-1.24.14-1.52.42-.24.24-.34.7-.34 1.38v4.84c0 .2-.06.36-.16.44-.1.1-.28.14-.52.14h-1.84c-.26 0-.44-.04-.54-.14-.1-.08-.14-.24-.14-.44V9.76c0-.2.04-.34.14-.42s.28-.14.54-.14h.96c.22 0 .38.04.48.1q.15.12.24.36zm8.123 1.46h-3.18c-.2 0-.34-.02-.42-.1s-.1-.24-.1-.48V9.78c0-.24.02-.38.1-.46q.12-.12.42-.12h6.76c.2 0 .34.04.44.12.08.08.14.24.14.46v.38c0 .52-.16 1-.44 1.42l-3.44 4.88h3.42c.2 0 .32.04.4.12s.12.22.12.46v1.38q0 .36-.12.48c-.08.08-.2.1-.4.1h-6.88c-.42 0-.62-.18-.62-.58v-.46c0-.52.14-.98.44-1.42zm15.684 6.44h-.04c-.44.68-1.32 1-2.62 1h-.3c-1.02 0-1.82-.26-2.38-.78-.58-.52-.86-1.3-.86-2.3v-.22c0-1.08.3-1.86.92-2.3s1.62-.66 3.02-.66h.14c.52 0 1 .04 1.4.08v-.42c0-.42-.12-.72-.34-.88-.24-.14-.64-.22-1.2-.22-.68 0-1.44.12-2.32.34-.24.06-.42.06-.5 0-.1-.06-.16-.18-.18-.38l-.16-1.06c-.04-.18-.04-.32-.04-.4 0-.24.16-.42.48-.52 1.02-.28 2.16-.44 3.42-.44 1.54 0 2.64.34 3.28.98.5.52.76 1.36.76 2.5v5.94c0 .2-.06.36-.16.44s-.28.12-.52.12h-.94c-.24 0-.4-.02-.5-.08s-.18-.18-.24-.38zm-.72-2.56v-.56q-.33-.06-.96-.06h-.22q-.72 0-1.02.18c-.2.12-.28.36-.28.72v.08c0 .36.08.6.28.72.18.14.46.2.84.2h.14c.4 0 .7-.1.94-.3.18-.16.28-.5.28-.98m7.557-5.56c.7-.68 1.7-1.04 2.98-1.04h.18c1.24 0 2.12.36 2.66 1.04.48.64.72 1.72.72 3.28v1.5c0 .84-.08 1.54-.2 2.06-.14.52-.38.96-.72 1.3-.68.66-1.6.98-2.8.98h-.22q-1.14 0-1.86-.42v3.08c0 .3-.06.5-.16.58-.12.08-.34.12-.68.12h-1.52c-.34 0-.56-.04-.68-.14-.12-.08-.16-.28-.16-.56v-12c0-.24.04-.4.16-.5.1-.08.28-.14.54-.14h.84c.24 0 .42.04.52.08.08.06.16.18.22.34l.14.44zm.74 2.84v2.56c0 .46.08.78.28.96.18.18.48.26.9.26h.18c.46 0 .78-.12.98-.4q.24-.36.24-1.74v-.86c0-.96-.08-1.56-.24-1.78-.2-.24-.52-.36-1-.36h-.14c-.44 0-.74.1-.94.3-.18.18-.26.54-.26 1.06m11.102 3.5h.64c.2 0 .36.06.44.14.08.1.14.28.14.54v1.24c0 .28-.06.46-.14.54-.08.1-.24.14-.44.14h-1.52c-1 0-1.7-.18-2.1-.58-.4-.38-.6-1.06-.6-2.02V6.04c0-.2.04-.34.14-.44.1-.08.28-.14.54-.14h1.84c.24 0 .42.06.52.14.1.1.16.24.16.44v9.98c0 .16.02.26.08.3.04.06.14.08.3.08m5.773-6.62v8.64c0 .2-.06.36-.16.44-.1.1-.28.14-.52.14h-1.84c-.26 0-.44-.04-.54-.14-.1-.08-.14-.24-.14-.44V9.78c0-.2.04-.34.14-.44.1-.08.28-.14.54-.14h1.84c.24 0 .42.06.52.14.1.1.16.24.16.44m-1.48-1.34h-.24c-1.08 0-1.62-.54-1.62-1.66v-.1c0-1.1.54-1.66 1.62-1.66h.24c1.08 0 1.62.56 1.62 1.66v.1c0 1.12-.54 1.66-1.62 1.66m6.753 6.68v3.3c0 .2-.06.36-.16.44-.1.1-.28.14-.52.14h-1.84c-.26 0-.44-.04-.54-.14-.1-.08-.14-.24-.14-.44V6.04c0-.2.04-.34.14-.44.1-.08.28-.14.54-.14h1.84c.24 0 .42.06.52.14.1.1.16.24.16.44v6.52h.14l1.9-2.9c.18-.3.46-.46.84-.46h2.32c.22 0 .34.08.34.24 0 .08-.06.22-.16.38l-2.3 3.44c-.18.28-.26.48-.26.6 0 .14.08.34.26.6l2.46 3.88c.08.16.12.26.12.34 0 .22-.14.32-.42.32h-2.22c-.28 0-.5-.02-.62-.1q-.18-.09-.36-.42l-1.9-3.36zm12.463 3.06h-.04c-.44.68-1.32 1-2.62 1h-.3c-1.02 0-1.82-.26-2.38-.78-.58-.52-.86-1.3-.86-2.3v-.22c0-1.08.3-1.86.92-2.3s1.62-.66 3.02-.66h.14c.52 0 1 .04 1.4.08v-.42c0-.42-.12-.72-.34-.88-.24-.14-.64-.22-1.2-.22-.68 0-1.44.12-2.32.34-.24.06-.42.06-.5 0-.1-.06-.16-.18-.18-.38l-.16-1.06c-.04-.18-.04-.32-.04-.4 0-.24.16-.42.48-.52 1.02-.28 2.16-.44 3.42-.44 1.54 0 2.64.34 3.28.98.5.52.76 1.36.76 2.5v5.94c0 .2-.06.36-.16.44s-.28.12-.52.12h-.94c-.24 0-.4-.02-.5-.08s-.18-.18-.24-.38zm-.72-2.56v-.56q-.33-.06-.96-.06h-.22q-.72 0-1.02.18c-.2.12-.28.36-.28.72v.08c0 .36.08.6.28.72.18.14.46.2.84.2h.14c.4 0 .7-.1.94-.3.18-.16.28-.5.28-.98m9.696.98h.16c.54 0 1.12-.08 1.74-.26.2-.04.32-.06.38-.06.2 0 .32.12.36.34l.18 1.02c.04.28.08.46.08.54 0 .24-.18.42-.52.54-.88.32-1.84.46-2.88.46h-.24c-1.44 0-2.5-.32-3.16-1q-1.02-1.02-1.02-3.42V13.6c0-.94.08-1.68.24-2.2q.24-.78.78-1.32c.7-.7 1.8-1.06 3.3-1.06h.2c1.2 0 2.24.22 3.08.66.24.14.38.3.38.5 0 .12-.06.32-.16.6l-.38.96q-.15.36-.42.36c-.08 0-.2-.02-.36-.1-.64-.26-1.24-.4-1.78-.4h-.08c-.52 0-.9.14-1.14.38-.3.3-.44.92-.44 1.84v.68c0 .82.12 1.38.4 1.68.26.28.7.42 1.3.42m4.122 5.96h-1.16c-.2 0-.36-.04-.44-.14-.08-.08-.12-.26-.12-.5v-1.4c0-.2.04-.36.12-.44s.24-.14.44-.14h.5c.36 0 .64-.08.82-.28.16-.16.24-.58.24-1.24V9.78c0-.2.04-.34.14-.44.1-.08.28-.14.54-.14h1.84c.24 0 .42.06.52.14.1.1.16.24.16.44v8.86c0 1.44-.26 2.44-.78 3.02q-.81.9-2.82.9m2.12-14.12h-.24c-1.08 0-1.62-.54-1.62-1.66v-.1c0-1.1.54-1.66 1.62-1.66h.24c1.08 0 1.62.56 1.62 1.66v.1c0 1.12-.54 1.66-1.62 1.66m8.313 8.16h.22c.68 0 1.4-.08 2.12-.26.2-.04.32-.06.38-.06.2 0 .32.12.36.34l.16 1c.04.28.08.46.08.54 0 .24-.18.42-.52.54-.52.2-.94.52-1.28.96s-.5.88-.5 1.28V21c0 .38.18.56.54.56h.1c.22 0 .5-.04.82-.16.1-.02.18-.04.24-.04.1 0 .18.1.24.26l.1.42c.06.28.1.42.1.46 0 .12-.1.22-.28.3q-.78.3-1.62.3h-.12c-.7 0-1.22-.14-1.58-.44s-.54-.72-.54-1.28v-.06c0-.36.12-.76.38-1.16s.6-.72 1.04-1c-.16.02-.38.02-.66.02h-.38q-2.46 0-3.48-1.02c-.4-.38-.66-.84-.8-1.36s-.2-1.22-.2-2.08V13.6c0-1.74.4-2.96 1.2-3.68.68-.6 1.72-.9 3.14-.9h.28c1.4 0 2.42.34 3.02 1 .64.72.96 1.9.96 3.58v1.04c0 .38-.2.56-.58.56h-4.8v.16c0 .48.12.8.4.98.26.18.74.26 1.46.26m-1.86-3.48h2.2c.16 0 .24-.08.24-.26v-.32c0-.4-.08-.7-.2-.92-.16-.24-.48-.36-.92-.36h-.18c-.4 0-.68.1-.84.28q-.3.36-.3 1.08zm14.616-.22v2.56c0 .46.08.78.28.96.16.18.46.26.9.26h.18c.46 0 .78-.12.98-.4q.24-.36.24-1.74v-.86c0-1-.1-1.62-.26-1.82-.18-.2-.52-.32-1-.32h-.08c-.46 0-.78.1-.98.3-.18.18-.26.54-.26 1.06m0-3.34h.04q.87-.54 2.28-.54h.18c1.2 0 2.08.36 2.62 1.08.44.62.68 1.72.68 3.3v1.44c0 1.6-.34 2.72-1.02 3.34-.72.68-1.86 1-3.42 1h-.4c-1.64 0-2.76-.32-3.36-.98-.54-.58-.8-1.52-.8-2.84V6.04c0-.2.04-.34.14-.44.08-.08.26-.14.52-.14h1.86c.24 0 .42.06.52.14.1.1.16.24.16.44zm13.303 8.62h-.04c-.44.68-1.32 1-2.62 1h-.3c-1.02 0-1.82-.26-2.38-.78-.58-.52-.86-1.3-.86-2.3v-.22c0-1.08.3-1.86.92-2.3s1.62-.66 3.02-.66h.14c.52 0 1 .04 1.4.08v-.42c0-.42-.12-.72-.34-.88-.24-.14-.64-.22-1.2-.22-.68 0-1.44.12-2.32.34-.24.06-.42.06-.5 0-.1-.06-.16-.18-.18-.38l-.16-1.06c-.04-.18-.04-.32-.04-.4 0-.24.16-.42.48-.52 1.02-.28 2.16-.44 3.42-.44 1.54 0 2.64.34 3.28.98.5.52.76 1.36.76 2.5v5.94c0 .2-.06.36-.16.44s-.28.12-.52.12h-.94c-.24 0-.4-.02-.5-.08s-.18-.18-.24-.38zm-.72-2.56v-.56q-.33-.06-.96-.06h-.22q-.72 0-1.02.18c-.2.12-.28.36-.28.72v.08c0 .36.08.6.28.72.18.14.46.2.84.2h.14c.4 0 .7-.1.94-.3.18-.16.28-.5.28-.98m10.376-6.6h.16c1.16 0 2.02.28 2.54.82.48.52.74 1.4.74 2.64v5.94c0 .2-.06.36-.16.44-.1.1-.28.14-.52.14h-1.84c-.26 0-.44-.04-.54-.14-.1-.08-.14-.24-.14-.44v-5.66c0-.44-.08-.76-.22-.92-.16-.16-.46-.26-.88-.26h-.12c-.44 0-.72.1-.88.26s-.22.48-.22.92v5.66c0 .2-.06.36-.16.44-.1.1-.28.14-.52.14h-1.84c-.26 0-.44-.04-.54-.14-.1-.08-.14-.24-.14-.44V9.76c0-.2.04-.34.14-.42s.28-.14.54-.14h.94c.24 0 .4.04.5.1q.15.09.24.36l.12.38h.06c.64-.68 1.54-1.02 2.74-1.02m8.545 6.1v3.3c0 .2-.06.36-.16.44-.1.1-.28.14-.52.14h-1.84c-.26 0-.44-.04-.54-.14-.1-.08-.14-.24-.14-.44V6.04c0-.2.04-.34.14-.44.1-.08.28-.14.54-.14h1.84c.24 0 .42.06.52.14.1.1.16.24.16.44v6.52h.14l1.9-2.9c.18-.3.46-.46.84-.46h2.32c.22 0 .34.08.34.24 0 .08-.06.22-.16.38l-2.3 3.44c-.18.28-.26.48-.26.6 0 .14.08.34.26.6l2.46 3.88c.08.16.12.26.12.34 0 .22-.14.32-.42.32h-2.22c-.28 0-.5-.02-.62-.1q-.18-.09-.36-.42l-1.9-3.36zm11.943.3V9.78c0-.2.04-.34.14-.44.1-.08.28-.14.54-.14h1.84c.24 0 .42.06.52.14.1.1.16.24.16.44v5.92q0 1.83-.9 2.64c-.64.56-1.76.84-3.4.84s-2.78-.28-3.4-.84q-.9-.81-.9-2.64V9.78c0-.2.04-.34.14-.44.1-.08.28-.14.54-.14h1.84c.24 0 .42.06.52.14.1.1.16.24.16.44v5.64c0 .46.06.76.22.92.16.18.44.26.88.26.42 0 .72-.08.88-.26.14-.16.22-.46.22-.92m16.567-1.04v-7.7c0-.28.02-.44.1-.52.08-.06.28-.1.6-.1h1.96c.32 0 .5.04.58.1.08.08.12.24.12.52v7.8c0 .88-.1 1.6-.28 2.16-.2.56-.5 1.04-.94 1.44-.82.74-2.12 1.1-3.88 1.1h-.24c-1.8 0-3.1-.36-3.9-1.1q-1.2-1.11-1.2-3.6v-7.8c0-.28.02-.44.1-.52.08-.06.28-.1.6-.1h1.96c.32 0 .52.04.6.1.08.08.12.24.12.52v7.7c0 .8.12 1.34.4 1.6.26.28.72.4 1.4.4h.1c.66 0 1.12-.12 1.4-.4.26-.26.4-.8.4-1.6m10.738-5.36h.16c1.16 0 2.02.28 2.54.82.48.52.74 1.4.74 2.64v5.94c0 .2-.06.36-.16.44-.1.1-.28.14-.52.14h-1.84c-.26 0-.44-.04-.54-.14-.1-.08-.14-.24-.14-.44v-5.66c0-.44-.08-.76-.22-.92-.16-.16-.46-.26-.88-.26h-.12c-.44 0-.72.1-.88.26s-.22.48-.22.92v5.66c0 .2-.06.36-.16.44-.1.1-.28.14-.52.14h-1.84c-.26 0-.44-.04-.54-.14-.1-.08-.14-.24-.14-.44V9.76c0-.2.04-.34.14-.42s.28-.14.54-.14h.94c.24 0 .4.04.5.1q.15.09.24.36l.12.38h.06c.64-.68 1.54-1.02 2.74-1.02m8.585.76v8.64c0 .2-.06.36-.16.44-.1.1-.28.14-.52.14h-1.84c-.26 0-.44-.04-.54-.14-.1-.08-.14-.24-.14-.44V9.78c0-.2.04-.34.14-.44.1-.08.28-.14.54-.14h1.84c.24 0 .42.06.52.14.1.1.16.24.16.44m-1.48-1.34h-.24c-1.08 0-1.62-.54-1.62-1.66v-.1c0-1.1.54-1.66 1.62-1.66h.24c1.08 0 1.62.56 1.62 1.66v.1c0 1.12-.54 1.66-1.62 1.66m8.952 10.74h-.2c-1.94 0-3.32-.44-4.16-1.34q-1.14-1.2-1.14-4.08V11.3c0-1.88.38-3.24 1.16-4.06.84-.9 2.24-1.36 4.16-1.36h.14c1.5 0 2.8.3 3.92.88q.42.24.24.72l-.66 1.68c-.08.2-.2.3-.34.3-.12 0-.26-.02-.38-.1-.94-.44-1.82-.68-2.64-.68h-.08c-.86 0-1.44.24-1.72.72-.26.44-.38 1.22-.38 2.38v1.42c0 1.28.18 2.14.56 2.56.36.42 1 .62 1.88.62h.08c.8 0 1.64-.18 2.48-.56.12-.04.24-.08.32-.08q.24 0 .36.42l.34 1.44c.04.16.06.3.06.38 0 .24-.2.42-.6.56-1.1.44-2.24.64-3.4.64m8.331-8.9h.06c.44-.72 1.18-1.08 2.24-1.08h.8c.2 0 .36.04.44.12s.14.22.14.44v1.46c0 .22-.04.36-.12.44q-.12.12-.42.12h-.6c-.74 0-1.24.14-1.52.42-.24.24-.34.7-.34 1.38v4.84c0 .2-.06.36-.16.44-.1.1-.28.14-.52.14h-1.84c-.26 0-.44-.04-.54-.14-.1-.08-.14-.24-.14-.44V9.76c0-.2.04-.34.14-.42s.28-.14.54-.14h.96c.22 0 .38.04.48.1q.15.12.24.36zm9.545 6.32h.22c.68 0 1.4-.08 2.12-.26.2-.04.32-.06.38-.06.2 0 .32.12.36.34l.16 1c.04.28.08.46.08.54 0 .24-.18.42-.52.54-.92.32-1.94.48-3.02.48h-.38q-2.46 0-3.48-1.02c-.4-.38-.66-.84-.8-1.36s-.2-1.22-.2-2.08V13.6c0-1.74.4-2.96 1.2-3.68.68-.6 1.72-.9 3.14-.9h.28c1.4 0 2.42.34 3.02 1 .64.72.96 1.9.96 3.58v1.04c0 .38-.2.56-.58.56h-4.8v.16c0 .48.12.8.4.98.26.18.74.26 1.46.26m-1.86-3.48h2.2c.16 0 .24-.08.24-.26v-.32c0-.4-.08-.7-.2-.92-.16-.24-.48-.36-.92-.36h-.18c-.4 0-.68.1-.84.28q-.3.36-.3 1.08zm12.56 2.34v-2.54c0-.5-.08-.86-.24-1.06-.18-.2-.5-.32-.94-.32h-.2c-.44 0-.74.12-.92.34-.2.22-.28.84-.28 1.88v.88c0 .96.1 1.56.3 1.76.16.2.46.28.92.28h.22c.38 0 .66-.08.86-.26.18-.18.28-.5.28-.96m-.04-6.08h.04V6.04c0-.2.04-.34.14-.44.1-.08.28-.14.54-.14h1.86c.24 0 .42.06.52.14.08.1.14.24.14.44v9.1c0 1.4-.26 2.36-.78 2.92-.38.4-.84.7-1.38.86-.56.18-1.3.26-2.24.26h-.34c-1.48 0-2.54-.3-3.22-.9-.7-.6-1.04-1.72-1.04-3.38v-1.6c0-1.6.32-2.72 1-3.36.64-.6 1.52-.92 2.66-.92h.24q1.14 0 1.86.36m8.386.4v8.64c0 .2-.06.36-.16.44-.1.1-.28.14-.52.14h-1.84c-.26 0-.44-.04-.54-.14-.1-.08-.14-.24-.14-.44V9.78c0-.2.04-.34.14-.44.1-.08.28-.14.54-.14h1.84c.24 0 .42.06.52.14.1.1.16.24.16.44m-1.48-1.34h-.24c-1.08 0-1.62-.54-1.62-1.66v-.1c0-1.1.54-1.66 1.62-1.66h.24c1.08 0 1.62.56 1.62 1.66v.1c0 1.12-.54 1.66-1.62 1.66m9.813 8.68v1.14c0 .3-.06.5-.14.6s-.26.14-.5.14h-1.6c-1.44 0-2.4-.24-2.84-.74-.4-.42-.58-1.22-.58-2.42V11.7h-1.08c-.2 0-.32-.02-.4-.1s-.1-.2-.1-.4v-1.02c0-.24.02-.4.1-.48.06-.08.2-.14.42-.2l1.06-.26V7.28c0-.2.04-.34.14-.44.1-.08.28-.14.54-.14h1.84c.24 0 .42.06.52.14.1.1.16.24.16.44V9.2h1.66c.2 0 .32.04.4.12s.12.22.12.46v1.34q0 .36-.12.48c-.08.08-.2.1-.4.1h-1.66v3.78c0 .36.04.58.16.7.12.14.38.2.78.2h.88c.24 0 .42.06.5.16s.14.3.14.58m4.633.2v.2c0 1.12-.54 1.66-1.6 1.66h-.22c-1.08 0-1.6-.54-1.6-1.66v-.2c0-.58.12-1 .4-1.24.26-.24.66-.38 1.2-.38h.22c.52 0 .92.14 1.2.38.26.24.4.66.4 1.24"/></svg>