<svg xmlns="http://www.w3.org/2000/svg" fill="none" viewBox="0 0 210 58"><g fill="#fff" clip-path="url(#a)"><path d="m207.71 34.35-3.925 4.575h-1.95l2.55-4.575zm1.6 17.65h-2.95v-7.025c0-1.7-.675-2.275-2-2.275-1.025 0-1.975.525-2.55 1.075V52h-2.95V40.525l2.95-.4v1.825c1.025-1.125 2.4-1.85 3.8-1.85 2.325 0 3.7 1.5 3.7 3.975z"/><path d="M189.109 46.8v.075c.125 1.875 1.4 3.15 3.45 3.15 1.225 0 2.55-.4 3.6-1.05l.375 2.45c-1.1.6-2.625.95-4.175.95-3.7 0-6.15-2.35-6.15-6.025 0-3.75 2.5-6.25 5.95-6.25 3.05 0 4.75 1.85 4.75 4.675 0 .625-.1 1.425-.25 1.925zm.075-1.725 4.95-.025v-.2c0-1.55-.675-2.525-2.2-2.525-1.625 0-2.6 1.325-2.75 2.75"/><path d="M184.23 52h-2.95V35.3l2.95-.4z"/><path d="M179.571 51.925c-.875.3-1.675.45-2.675.45-2.575 0-3.925-1.125-3.825-3.9l.175-5.425-1.8-.2.075-1.875 1.8-.575.05-2.55h2.85l-.05 2.7h3.25l-.075 2.425h-3.35l-.15 5.325c-.025 1.075.525 1.575 1.525 1.575.6 0 1.2-.15 1.8-.35z"/><path d="M163.07 46.8v.075c.125 1.875 1.4 3.15 3.45 3.15 1.225 0 2.55-.4 3.6-1.05l.375 2.45c-1.1.6-2.625.95-4.175.95-3.7 0-6.15-2.35-6.15-6.025 0-3.75 2.5-6.25 5.95-6.25 3.05 0 4.75 1.85 4.75 4.675 0 .625-.1 1.425-.25 1.925zm.075-1.725 4.95-.025v-.2c0-1.55-.675-2.525-2.2-2.525-1.625 0-2.6 1.325-2.75 2.75"/><path d="M158.541 36.6c0 1.075-.65 1.775-1.825 1.775-1.15 0-1.8-.7-1.8-1.775 0-1.05.65-1.775 1.8-1.775 1.175 0 1.825.725 1.825 1.775m-.35 15.4h-2.95V40.55l2.95-.425z"/><path d="M142.578 52.05h-2.875l-3.425-11.575h3.075l2 8.1 2.3-8.075h2.95l2.475 8.025 1.725-8.05h3.125l-3.375 11.575h-2.9l-2.575-8.1z"/><path d="m135.337 34.35-3.925 4.575h-1.95l2.55-4.575zm.3 14.3c0 2.15-1.85 3.75-4.8 3.75-1.5 0-3.325-.425-4.475-1.075l.65-2.3c1.15.65 2.625 1.075 3.9 1.075 1.15 0 1.9-.475 1.9-1.275 0-.9-.975-1.225-2.325-1.55-2.175-.5-3.9-1.4-3.9-3.575s1.825-3.6 4.6-3.6c1.425 0 3.125.375 4.2.925l-.65 2.3c-1.125-.575-2.6-.95-3.625-.95-1.075 0-1.725.4-1.725 1.15 0 .875.975 1.175 2.325 1.5 2.2.525 3.925 1.375 3.925 3.625"/><path d="m126.246 40.475-4.4 11.3-.675 1.8c-1.15 3.15-2.45 4.1-4.575 4.1-1.05 0-2-.25-2.925-.675l.875-2.425c.675.325 1.225.55 1.825.55.85 0 1.3-.375 1.925-1.95l.5-1.325-4.5-11.375h3.175l2.875 8.25 2.75-8.25z"/><path d="M103.111 52.05h-2.875l-3.425-11.575h3.075l2 8.1 2.3-8.075h2.95l2.475 8.025 1.725-8.05h3.125l-3.375 11.575h-2.9l-2.575-8.1z"/><path d="m89.94 47.86.81.75q-.66 1.29-1.5 2.16-.84.84-1.83 1.26-.96.42-2.07.42-.84 0-1.32-.3-.48-.27-.63-.78-.12-.54 0-1.26t.45-1.62l.81-2.25q.42-1.17.78-2.25l.66-1.83q.18-.45.15-.81 0-.36-.18-.57t-.63-.21q-.75 0-1.56.6t-1.59 1.62q-.78.99-1.44 2.22-.63 1.2-1.08 2.4-.24.57-.48 1.29-.24.69-.51 1.53-.24.84-.54 1.8-.66 0-1.32.03-.66.06-1.23.09-.57.06-1.05.12a213 213 0 0 0 1.62-5.22q.42-1.32.75-2.49.36-1.17.6-2.04t.33-1.32q.09-.33 0-.45-.09-.15-.33-.15-.36-.03-.9-.03-.51-.03-.93-.03l.39-1.11q1.41-.06 2.91-.24t2.85-.48q-.15.6-.36 1.38-.21.75-.45 1.56-.21.81-.45 1.53.84-1.17 1.83-2.19 1.02-1.02 2.25-1.65a5.44 5.44 0 0 1 2.61-.66q.63 0 1.08.15t.72.39q.48.36.57.93.12.57 0 1.26t-.39 1.47q-.27.81-.6 1.74-.33.9-.66 1.86-.33.93-.63 1.8-.3.84-.51 1.47-.09.33-.03.57t.33.24q.54 0 1.29-.78.78-.78 1.41-1.92"/><path d="m69.54 33.58.36-1.08q1.2-.03 2.37-.09 1.2-.06 2.16-.18.99-.12 1.59-.27-.27.78-.63 1.95-.36 1.14-.87 2.88-.51 1.71-1.23 4.2-.63 2.1-1.14 3.81t-.87 2.97q-.36 1.23-.54 1.98-.09.39 0 .6t.3.21q.39 0 .87-.36t.96-.96q.48-.63.87-1.38l.75.75q-.63 1.29-1.5 2.16-.84.84-1.8 1.26-.93.42-1.98.42T67.68 52t-.48-1.26q0-.84.3-1.95.27-.93.51-1.8.27-.87.54-1.77l.57-1.89q.3-1.02.63-2.22.48-1.56.78-2.67.33-1.11.54-1.86.21-.78.36-1.29t.24-.9q.09-.36-.03-.51-.09-.15-.39-.18-.33-.06-.81-.09-.45-.03-.9-.03"/><path d="m65.712 47.83.78.75q-.99 1.98-2.37 2.94-1.35.93-3.06.93-.84 0-1.32-.3-.45-.3-.57-.84-.12-.57 0-1.29.15-.75.48-1.62.39-1.08.75-2.16.39-1.08.75-2.1.39-1.05.66-1.89.18-.45.21-.81.03-.39-.15-.63t-.66-.24q-.78 0-1.59.63-.81.6-1.59 1.65-.78 1.02-1.44 2.28a20 20 0 0 0-1.08 2.52q-.21.51-.45 1.17-.21.66-.48 1.47-.24.78-.54 1.74-1.05.03-2.01.09l-1.62.15q.36-.99.72-2.16.39-1.2.75-2.4.39-1.23.72-2.34t.57-1.98q.27-.87.39-1.35.12-.36.12-.69 0-.36-.18-.57-.15-.21-.6-.21-.63 0-1.41.51-.75.51-1.5 1.44t-1.44 2.16q-.69 1.2-1.2 2.61-.27.63-.54 1.41-.27.75-.54 1.59-.24.84-.54 1.77-.99 0-1.98.06-.96.09-1.59.18.51-1.62 1.02-3.27.54-1.68.99-3.21t.78-2.73.48-1.86q.09-.39-.03-.51-.09-.15-.42-.15-.3-.03-.81-.03h-.87l.36-1.11q.48-.03 1.05-.06.57-.06 1.2-.12.66-.06 1.29-.15t1.2-.18 1.05-.21q-.15.54-.36 1.32t-.45 1.62q-.21.81-.45 1.56.6-.84 1.29-1.65t1.5-1.44a7.4 7.4 0 0 1 1.8-1.05q.99-.39 2.1-.39.87 0 1.35.27.51.27.69.75.18.45.12 1.08-.03.63-.24 1.35-.06.18-.12.39l-.12.36q-.03.18-.09.33.84-1.2 1.83-2.22a8.8 8.8 0 0 1 2.22-1.68q1.23-.63 2.7-.63.69 0 1.14.18t.72.45q.39.39.45.96.09.57-.03 1.23-.12.63-.39 1.32-.27.87-.63 1.86t-.72 1.95q-.33.96-.6 1.77-.27.78-.42 1.26-.12.33-.09.63.06.27.33.27.39 0 .84-.36.48-.36.96-.99.51-.63.93-1.38"/><path d="m36.589 33.28.15 1.11q-1.68.21-3.18.81-1.47.6-2.7 1.56-1.23.93-2.16 2.25-.93 1.29-1.56 2.91 1.17-.93 2.22-1.32 1.05-.42 2.22-.42 1.2 0 2.16.54t1.5 1.56q.57 1.02.57 2.49 0 1.71-.75 3.27a7.95 7.95 0 0 1-2.07 2.67q-.99.84-2.22 1.29t-2.79.45q-1.8 0-3.03-.72-1.2-.72-1.83-2.01-.6-1.29-.6-3 0-1.98.69-3.96.72-1.98 2.04-3.72 1.35-1.77 3.27-3.09 1.5-1.02 2.97-1.56 1.5-.57 2.82-.81 1.32-.27 2.28-.3m-6.66 8.55q-.66 0-1.23.21-.54.21-.99.6-.42.36-.75.87-.27.39-.48 1.11t-.36 1.62q-.12.87-.12 1.8 0 .99.24 1.74t.72 1.17q.48.39 1.2.39.66 0 1.23-.33.6-.33 1.11-1.05.51-.69.84-1.59.36-.9.54-1.86.21-.99.21-1.83t-.21-1.47q-.18-.66-.66-1.02t-1.29-.36"/><path d="m13.991 55.3-.24-.93q1.41-.3 2.4-1.05t1.23-1.56q-.18.06-.42.09-.21.03-.51.03-.66 0-1.14-.48t-.48-1.23q0-1.02.69-1.74t1.71-.72q.93 0 1.5.66t.57 1.8q0 1.35-.75 2.46t-1.98 1.8q-1.2.69-2.58.87"/><path d="m11.826 50.95-.33 1.11q-.36 0-.99-.03-.6 0-1.38-.03h-6.45q-.75.03-1.35.03-.6.03-.96.03l.3-1.11q.84-.06 1.56-.09t1.17-.12q.48-.06.75-.3.27-.27.48-1.05l3.78-13.41a.44.44 0 0 0-.03-.36q-.06-.15-.27-.18-.24-.03-.81-.03-.54-.03-1.17-.03h-1.23l.36-1.11q.99-.06 2.1-.18 1.14-.12 2.22-.24 1.08-.15 1.92-.27.87-.15 1.32-.27l.18.21q-.24.72-.54 1.65-.27.9-.57 1.98l-3.42 12.24q-.18.69-.09.96t.48.36q.3.06.75.12.48.03 1.05.06z"/><path d="M179.535 24.916a8.7 8.7 0 0 1-2.996.504c-2.884 0-4.396-1.26-4.284-4.368l.196-6.076-2.016-.224.084-2.1 2.016-.644.056-2.856h3.192l-.056 3.024h3.64l-.084 2.716h-3.752l-.168 5.964c-.028 1.204.588 1.764 1.708 1.764.672 0 1.344-.168 2.016-.392z"/><path d="M169.395 7.752c0 1.204-.728 1.988-2.044 1.988-1.288 0-2.016-.784-2.016-1.988 0-1.176.728-1.988 2.016-1.988 1.316 0 2.044.812 2.044 1.988M169.003 25h-3.304V12.176l3.304-.476z"/><path d="M162.463 25h-3.388v-7.336h-8.316V25h-3.416V7.5h3.416v7.196h8.316V7.5h3.388z"/><path d="m140.142 12.092-4.928 12.656-.756 2.016c-1.288 3.528-2.744 4.592-5.124 4.592-1.176 0-2.24-.28-3.276-.756l.98-2.716c.756.364 1.372.616 2.044.616.952 0 1.456-.42 2.156-2.184l.56-1.484-5.04-12.74h3.556l3.22 9.24 3.08-9.24z"/><path d="M114.231 25.056h-3.22l-3.836-12.964h3.444l2.24 9.072 2.576-9.044h3.304l2.772 8.988 1.932-9.016h3.5l-3.78 12.964h-3.248l-2.884-9.072z"/><path d="M106.803 18.532c0 4.228-2.912 6.888-6.692 6.888s-6.524-2.576-6.524-6.86c0-4.256 2.884-6.916 6.692-6.916s6.524 2.632 6.524 6.888m-3.276.028c0-2.492-1.232-4.256-3.36-4.256-2.156 0-3.332 1.736-3.332 4.228 0 2.464 1.232 4.2 3.388 4.2 2.128 0 3.304-1.68 3.304-4.172"/><path d="M92.564 24.916a8.7 8.7 0 0 1-2.996.504c-2.884 0-4.396-1.26-4.284-4.368l.196-6.076-2.016-.224.084-2.1 2.016-.644.056-2.856h3.192l-.056 3.024h3.64l-.084 2.716H88.56l-.168 5.964c-.028 1.204.588 1.764 1.708 1.764.672 0 1.344-.168 2.016-.392z"/><path d="M78.972 23.516h-.112c-.924 1.12-2.044 1.904-3.64 1.904-2.324 0-4.004-1.596-4.004-3.64 0-2.38 1.736-4.396 7.644-4.592v-.308c0-1.736-.728-2.464-2.576-2.464-1.316 0-2.912.588-4.284 1.372l-.672-2.604c1.26-.784 3.276-1.512 5.404-1.512 3.976 0 5.516 1.764 5.432 5.32v4.62c0 .98.168 1.12 1.148 1.176l-.252 2.492c-2.464.28-3.612-.476-4.088-1.764m-.112-1.624v-2.968c-3.22.392-4.396 1.036-4.396 2.408 0 .98.756 1.68 1.932 1.68 1.036 0 1.876-.476 2.464-1.12"/><path d="M69.504 7.752c0 1.204-.728 1.988-2.044 1.988-1.288 0-2.016-.784-2.016-1.988 0-1.176.728-1.988 2.016-1.988 1.316 0 2.044.812 2.044 1.988M69.112 25h-3.304V12.176l3.304-.476z"/><path d="M51.625 25.056h-3.22l-3.836-12.964h3.444l2.24 9.072 2.576-9.044h3.304l2.772 8.988 1.932-9.016h3.5l-3.78 12.964h-3.248l-2.884-9.072z"/><path d="M41.486.668 37.09 5.792h-2.184L37.762.668zm-4.452 21.868c1.904 0 3.248-.924 3.248-2.324 0-1.456-1.316-1.988-3.892-2.688-2.52-.7-5.432-1.82-5.432-5.264 0-3.108 2.38-5.18 6.272-5.18 2.38 0 4.34.588 6.02 1.54l-.84 2.884c-1.54-.924-3.5-1.512-5.152-1.512-2.044 0-2.94.868-2.94 2.072 0 1.428 1.568 1.988 3.976 2.632 2.632.728 5.348 1.932 5.348 5.264 0 3.192-2.548 5.46-6.664 5.46-2.324 0-4.648-.616-6.3-1.624l.784-2.94c1.624.98 3.472 1.68 5.572 1.68"/></g><defs><clipPath id="a"><rect width="208.944" height="57.007" fill="#fff" transform="translate(.366 .668)"/></clipPath></defs></svg>