<svg xmlns="http://www.w3.org/2000/svg" fill="none" viewBox="0 0 102 21"><path fill="#fff" d="M8 6.637v7.448a.842.842 0 0 0 1.36.663l5.264-3.724a.842.842 0 0 0 0-1.326L9.36 5.974A.842.842 0 0 0 8 6.637"/><path fill="#fff" d="M17 14.713V6.036h4.385v1.161h-3.12V9.8h3.12v1.16h-3.12v3.753z"/><path fill="#fff" d="M22.702 14.713V8.217h1.22v6.496z"/><path fill="#fff" d="M25.416 14.713V6.036h1.266v7.516h3.124v1.16z"/><path fill="#fff" d="M39.108 14.713V7.384h-.036l-2.974 7.329h-.777l-2.986-7.329h-.024v7.329h-1.29V6.036h2.03l2.652 6.648 2.664-6.648h2.03v8.677z"/><path fill="#fff" d="M44.287 14.713V6.035h4.737v1.947h-2.615v1.477h2.521v1.947h-2.52v3.307z"/><path fill="#fff" d="m64.358 14.713-2.005-2.803h-.023v2.803h-2.123V6.035h2.838c.903 0 1.595.117 2.052.317.938.422 1.595 1.442 1.595 2.673 0 1.372-.821 2.498-2.158 2.733l2.357 2.955zm-1.208-4.316c.88 0 1.42-.41 1.42-1.243 0-.75-.564-1.172-1.396-1.172h-.844v2.415z"/><path fill="#fff" d="M72.18 14.699v-3.154l-2.59-5.523h2.403l1.29 3.482 1.302-3.482h2.38l-2.568 5.523v3.154z"/><path fill="#fff" d="M76.577 10.56c0-2.686 1.934-4.703 4.573-4.703 2.533 0 4.585 1.959 4.585 4.445 0 2.568-1.994 4.561-4.48 4.561-2.415 0-4.678-1.735-4.678-4.304m6.942-.188c0-1.36-.974-2.568-2.369-2.568-1.384 0-2.358 1.16-2.358 2.533 0 1.43.974 2.58 2.393 2.58 1.372 0 2.334-1.161 2.334-2.545"/><path fill="#fff" d="M91.622 14.699v-.868h-.035c-.423.657-1.232 1.032-2.088 1.032-1.876 0-2.896-1.09-2.896-3.447V6.022h2.216v5.194c0 1.08.458 1.69 1.384 1.69.81 0 1.302-.587 1.302-1.525V6.02h2.216V14.7z"/><path fill="#fff" d="M23.312 5.87a.882.882 0 0 0 0 1.764.882.882 0 1 0 0-1.764"/><path fill="#fff" d="M58.372 6.787a3.23 3.23 0 0 0-2.34-.993c-.483 0-.95.105-1.375.303a.24.24 0 0 1-.201 0 3.24 3.24 0 0 0-1.376-.303c-.887 0-1.72.353-2.339.992-1.25 1.29-1.14 3.382.13 4.652l3.352 3.352a.47.47 0 0 0 .667 0l3.35-3.35c1.27-1.271 1.38-3.362.132-4.653m-1.2 3.419-.313.312-2.127 2.127a.25.25 0 0 1-.353 0l-2.127-2.127-.311-.312c-.624-.623-.716-1.65-.126-2.305a1.63 1.63 0 0 1 2.364-.063l.377.357.377-.357a1.63 1.63 0 0 1 2.491.224c.465.659.317 1.573-.252 2.144"/></svg>