<svg xmlns="http://www.w3.org/2000/svg" fill="none" viewBox="0 0 347 82"><path fill="#000" d="M60.97 8.813c1.08 0 2.16-.13 3.412-.26v.951c-2.376.26-2.808.562-2.808 3.715v24.71h-.518l-13.78-25.487v20.476c0 3.197.474 3.456 3.153 3.716v.95c-1.167-.13-2.463-.26-3.629-.26h-.13c-1.08 0-2.16.13-3.412.26v-.95c2.376-.26 2.808-.562 2.808-3.716V10.714c-.432-.562-1.167-.95-2.808-1.167v-.95c1.728.173 2.246.216 3.326.216.778 0 1.512-.043 2.29-.13l11.49 21.211V13.262c0-3.196-.474-3.499-3.153-3.758v-.95c1.34.172 2.463.259 3.629.259zm24.194 24.321c.994 3.11 1.296 3.24 3.24 3.5v.95c-1.857-.173-2.721-.26-4.104-.26-1.339 0-2.462.087-4.536.26v-.95c2.376-.26 2.895-.432 1.944-3.543l-1.339-4.406h-8.294l-1.253 4.406c-.864 3.067-.432 3.283 1.944 3.543v.95c-1.167-.13-2.549-.26-3.543-.26-.993 0-1.814.13-2.937.26v-.95c2.03-.26 2.462-.692 3.283-3.543l7.042-24.883h.518zM72.42 27.475h7.56l-3.888-12.7zm33.324-18.662c.864 0 1.858-.087 2.938-.26v.951c-2.031.26-2.592.691-3.413 3.542L98.141 37.93h-.519l-7.776-24.927c-.95-3.11-1.425-3.24-3.37-3.499v-.95c1.772.172 2.722.259 4.062.259 1.382 0 2.505-.087 4.708-.26v.951c-2.548.26-2.764.475-1.857 3.542l5.357 18.101 5.27-18.1c.907-3.025.691-3.284-1.858-3.543v-.95c1.253.13 2.549.259 3.586.259M119.622 5.4h-1.771L113.186.432h1.252l4.277 2.592 4.277-2.592h1.253zm2.333 16.848c3.024 1.771 4.839 4.018 4.839 7.776 0 4.234-3.37 7.906-7.949 7.906-2.463 0-4.666-1.08-5.832-2.636l-1.123 2.852h-.605v-9.893h.864c.734 5.357 2.635 8.553 6.566 8.553 3.327 0 5.271-1.944 5.271-5.097 0-3.283-1.685-5.055-4.45-6.696l-3.154-1.858c-2.937-1.728-4.838-3.888-4.838-7.69 0-4.665 3.542-7.257 7.042-7.257 2.462 0 4.363 1.382 5.356 2.894l.864-2.937h.605v8.64h-.777c-.692-4.19-2.592-7.474-5.876-7.474-2.894 0-4.579 1.987-4.579 5.011 0 2.765 1.512 4.234 4.018 5.703zM148.284 8.64l.561 7.085h-.864c-.864-4.666-1.555-5.875-5.011-5.875h-1.728v23.068c0 3.197.475 3.456 3.11 3.716v.95c-1.987-.173-3.24-.26-4.752-.26s-2.764.087-4.752.26v-.95c2.636-.26 3.111-.519 3.111-3.716V9.85h-1.728c-3.456 0-4.147 1.21-5.011 5.875h-.864l.561-7.085zm6.819 4.58c0-3.154-.432-3.457-2.808-3.716v-.95c2.636.216 3.024.259 4.45.259s1.814-.043 4.45-.26v.951c-2.376.26-2.808.562-2.808 3.715v19.7c0 3.153.432 3.455 2.808 3.715v.95c-2.636-.216-3.024-.26-4.45-.26s-1.814.044-4.45.26v-.95c2.376-.26 2.808-.562 2.808-3.716zm27.628-4.407c.864 0 1.858-.087 2.938-.26v.951c-2.031.26-2.592.691-3.413 3.542l-7.128 24.884h-.518l-7.776-24.927c-.951-3.11-1.426-3.24-3.37-3.499v-.95c1.771.172 2.722.259 4.061.259 1.382 0 2.505-.087 4.709-.26v.951c-2.549.26-2.765.475-1.858 3.542l5.357 18.101 5.27-18.1c.907-3.025.691-3.284-1.857-3.543v-.95c1.252.13 2.548.259 3.585.259m22.723-.173.562 7.085h-.864c-.864-4.666-1.555-5.875-5.011-5.875h-1.728v23.068c0 3.197.475 3.456 3.11 3.716v.95c-1.987-.173-3.24-.26-4.752-.26s-2.765.087-4.752.26v-.95c2.635-.26 3.111-.519 3.111-3.716V9.85h-1.728c-3.456 0-4.148 1.21-5.012 5.875h-.864l.562-7.085zm20.515 21.773h.864l-.735 7.085h-16.632v-.95c2.376-.13 2.808-.52 2.808-3.457V13.046c0-2.937-.432-3.326-2.808-3.456v-.95h15.725l.605 6.696h-.864c-.821-4.32-1.642-5.486-5.055-5.486h-4.32v12.096h5.012c1.468 0 1.857-.778 1.987-3.5h.864v8.208h-.864c-.087-2.721-.519-3.499-1.987-3.499h-5.012V34.56c0 1.21.26 1.728 2.117 1.728h3.111c3.542 0 4.147-1.253 5.184-5.875m31.687-21.6c1.08 0 2.16-.13 3.413-.26v.951c-2.376.26-2.808.562-2.808 3.715v24.71h-.518l-13.781-25.487v20.476c0 3.197.475 3.456 3.153 3.716v.95c-1.166-.13-2.462-.26-3.628-.26h-.13c-1.08 0-2.16.13-3.413.26v-.95c2.376-.26 2.808-.562 2.808-3.716V10.714c-.432-.562-1.166-.95-2.808-1.167v-.95c1.728.173 2.247.216 3.327.216.777 0 1.512-.043 2.289-.13l11.491 21.211V13.262c0-3.196-.475-3.499-3.153-3.758v-.95c1.339.172 2.462.259 3.629.259zm19.486-5.573-4.536 2.549h-1.253l3.888-4.666C275.889.346 276.278 0 277.056 0c.691 0 1.425.605 1.425 1.512 0 .432-.086 1.037-1.339 1.728m4.709 29.894c.993 3.11 1.296 3.24 3.24 3.5v.95c-1.858-.173-2.722-.26-4.104-.26-1.339 0-2.463.087-4.536.26v-.95c2.376-.26 2.894-.432 1.944-3.543l-1.339-4.406h-8.295l-1.253 4.406c-.864 3.067-.432 3.283 1.944 3.543v.95c-1.166-.13-2.548-.26-3.542-.26s-1.814.13-2.938.26v-.95c2.031-.26 2.463-.692 3.284-3.543l7.041-24.883h.519zm-12.744-5.659h7.56l-3.888-12.7zM296.239 5.4h-1.771L289.803.432h1.252l4.277 2.592 4.277-2.592h1.253zm2.333 16.848c3.024 1.771 4.839 4.018 4.839 7.776 0 4.234-3.37 7.906-7.949 7.906-2.463 0-4.666-1.08-5.832-2.636l-1.123 2.852h-.605v-9.893h.864c.734 5.357 2.635 8.553 6.566 8.553 3.327 0 5.271-1.944 5.271-5.097 0-3.283-1.685-5.055-4.45-6.696l-3.154-1.858c-2.937-1.728-4.838-3.888-4.838-7.69 0-4.665 3.542-7.257 7.042-7.257 2.462 0 4.363 1.382 5.356 2.894l.864-2.937h.605v8.64h-.777c-.692-4.19-2.592-7.474-5.876-7.474-2.894 0-4.579 1.987-4.579 5.011 0 2.765 1.512 4.234 4.018 5.703zM10.022 80.93C4.536 80.93 0 75.789 0 66.069s4.536-14.861 10.022-14.861 10.023 5.14 10.023 14.86S15.509 80.93 10.022 80.93m0-1.124c4.407 0 6.524-5.227 6.524-13.737S14.429 52.33 10.022 52.33c-4.406 0-6.523 5.227-6.523 13.738s2.117 13.737 6.523 13.737m31.843-27.993c1.08 0 2.16-.13 3.412-.26v.951c-2.376.26-2.808.562-2.808 3.715v24.71h-.518L28.17 55.443v20.476c0 3.197.474 3.456 3.153 3.716v.95c-1.167-.13-2.463-.26-3.63-.26h-.129c-1.08 0-2.16.13-3.413.26v-.95c2.377-.26 2.808-.562 2.808-3.716V53.714c-.431-.562-1.166-.95-2.808-1.167v-.95c1.729.173 2.247.216 3.327.216.777 0 1.512-.043 2.29-.13l11.49 21.211V56.262c0-3.196-.474-3.499-3.153-3.758v-.95c1.34.172 2.462.259 3.629.259zm24.488 20.865-1.124 7.82H49.116v-.95c2.376-.13 2.808-.52 2.808-3.457V56.22c0-3.153-.432-3.456-2.808-3.715v-.95c2.635.216 3.024.259 4.45.259 1.511 0 2.116-.043 4.708-.26v.951c-2.592.26-3.067.518-3.067 3.715V77.56c0 1.21.26 1.728 2.117 1.728h2.592c2.98 0 4.45-1.382 5.573-6.61zm6.104-16.459c0-3.153-.432-3.456-2.808-3.715v-.95c2.635.216 3.024.259 4.45.259 1.425 0 1.814-.043 4.45-.26v.951c-2.377.26-2.809.562-2.809 3.715v19.7c0 3.153.432 3.455 2.808 3.715v.95c-2.635-.216-3.024-.26-4.45-.26-1.425 0-1.814.044-4.449.26v-.95c2.376-.26 2.808-.562 2.808-3.716zm27.844-4.406c1.08 0 2.16-.13 3.413-.26v.951c-2.376.26-2.808.562-2.808 3.715v24.71h-.519l-13.78-25.487v20.476c0 3.197.475 3.456 3.153 3.716v.95c-1.166-.13-2.462-.26-3.629-.26h-.13c-1.08 0-2.16.13-3.412.26v-.95c2.376-.26 2.808-.562 2.808-3.716V53.714c-.432-.562-1.166-.95-2.808-1.167v-.95c1.728.173 2.246.216 3.326.216.778 0 1.512-.043 2.29-.13l11.491 21.211V56.262c0-3.196-.475-3.499-3.153-3.758v-.95c1.339.172 2.462.259 3.628.259zm23.754 21.6h.864l-.735 7.085h-16.632v-.95c2.376-.13 2.808-.52 2.808-3.457V56.046c0-2.937-.432-3.326-2.808-3.456v-.95h15.725l.605 6.696h-.864c-.821-4.32-1.642-5.486-5.055-5.486h-4.32v12.096h5.012c1.468 0 1.857-.778 1.987-3.5h.864v8.208h-.864c-.087-2.721-.519-3.499-1.987-3.499h-5.012V77.56c0 1.21.26 1.728 2.117 1.728h3.111c3.542 0 4.147-1.253 5.184-5.875m25.25-8.165c3.024 1.771 4.839 4.018 4.839 7.776 0 4.234-3.37 7.906-7.949 7.906-2.463 0-4.666-1.08-5.832-2.636l-1.123 2.852h-.605v-9.893h.864c.734 5.357 2.635 8.553 6.566 8.553 3.327 0 5.271-1.944 5.271-5.097 0-3.283-1.685-5.055-4.45-6.696l-3.154-1.858c-2.937-1.728-4.838-3.888-4.838-7.69 0-4.665 3.542-7.257 7.042-7.257 2.462 0 4.363 1.382 5.356 2.894l.864-2.937h.605v8.64h-.777c-.692-4.19-2.592-7.474-5.876-7.474-2.894 0-4.579 1.987-4.579 5.011 0 2.765 1.512 4.234 4.018 5.703zm30.994-12.744c-2.376.26-2.808.562-2.808 3.715v19.7c0 3.153.432 3.455 2.808 3.715v.95c-2.635-.216-3.024-.26-4.449-.26-1.426 0-1.815.044-4.45.26v-.95c2.376-.26 2.808-.562 2.808-3.716v-9.72h-9.806v9.72c0 3.154.432 3.456 2.808 3.716v.95c-2.636-.216-3.024-.26-4.45-.26s-1.814.044-4.45.26v-.95c2.376-.26 2.808-.562 2.808-3.716V56.22c0-3.153-.432-3.456-2.808-3.715v-.95c2.636.216 3.024.259 4.45.259s1.814-.043 4.45-.26v.951c-2.376.26-2.808.562-2.808 3.715v8.77h9.806v-8.77c0-3.153-.432-3.456-2.808-3.715v-.95c2.635.216 3.024.259 4.45.259 1.425 0 1.814-.043 4.449-.26zm14.145 28.426c-5.486 0-10.022-5.141-10.022-14.861s4.536-14.861 10.022-14.861 10.023 5.14 10.023 14.86-4.536 14.862-10.023 14.862m0-1.124c4.407 0 6.523-5.227 6.523-13.737s-2.116-13.738-6.523-13.738c-4.406 0-6.523 5.227-6.523 13.738s2.117 13.737 6.523 13.737m39.879-27.993c.907 0 1.814-.087 2.851-.26v.951c-1.858.26-2.29.562-2.938 3.629l-5.227 24.797h-.518l-6.437-22.335-6.135 22.335h-.518l-5.659-24.84c-.691-3.068-1.08-3.327-2.851-3.586v-.95c2.03.216 2.635.259 3.801.259 1.469 0 2.29-.043 4.536-.26v.951c-2.592.26-2.678.475-2.03 3.629l3.585 16.977 5.919-21.902h.518l6.221 21.86 3.542-16.935c.648-3.11.519-3.37-2.073-3.629v-.95c1.253.172 2.289.259 3.413.259m23.26 25.445c.821 2.116 1.382 2.419 3.456 2.419v.95c-.691.173-1.642.26-2.463.26-1.9 0-3.715-.605-4.708-3.5l-2.204-6.307c-.907-2.592-1.987-4.406-5.011-4.406h-.907v9.244c0 3.154.432 3.456 2.808 3.716v.95c-2.635-.216-3.024-.26-4.45-.26-1.425 0-1.814.044-4.449.26v-.95c2.376-.26 2.808-.562 2.808-3.716V56.046c0-2.937-.432-3.326-2.808-3.456v-.95h9.201c5.012 0 8.122 2.894 8.122 7.387 0 4.018-3.283 6.826-7.214 7.258 1.771.302 4.19 1.469 5.486 4.838zm-9.375-24.408h-2.462v12.614h2.506c3.628 0 5.227-2.42 5.227-6.264 0-3.888-1.599-6.35-5.271-6.35m24.754 28.08c-5.486 0-10.022-5.141-10.022-14.861s4.536-14.861 10.022-14.861 10.022 5.14 10.022 14.86-4.536 14.862-10.022 14.862m0-1.124c4.406 0 6.523-5.227 6.523-13.737s-2.117-13.738-6.523-13.738-6.523 5.227-6.523 13.738 2.117 13.737 6.523 13.737m24.879 1.124c-5.487 0-10.023-5.141-10.023-14.861s4.536-14.861 10.023-14.861c5.486 0 10.022 5.14 10.022 14.86s-4.536 14.862-10.022 14.862m0-1.124c4.406 0 6.523-5.227 6.523-13.737s-2.117-13.738-6.523-13.738c-4.407 0-6.523 5.227-6.523 13.738s2.116 13.737 6.523 13.737m37.848-3.888c.086 3.154.561 3.456 2.937 3.716v.95c-2.635-.216-3.024-.26-4.449-.26h-.087c-1.512 0-2.592.087-4.665.26v-.95c2.635-.26 3.067-.519 2.98-3.716l-.604-20.779-7.517 24.797h-.519l-7.387-24.754-.648 20.736c-.086 3.197.346 3.456 2.981 3.716v.95c-1.642-.173-2.506-.26-3.672-.26h-.043c-1.08 0-2.16.13-3.413.26v-.95c2.376-.26 2.851-.562 2.938-3.716l.604-19.699c.087-3.153-.302-3.456-2.678-3.715v-.95c2.635.216 3.024.259 4.018.259 1.08 0 1.684-.043 2.332-.13l6.308 21.341 6.436-21.34c.605.086 1.426.129 2.204.129.993 0 1.382-.043 4.017-.216v.95c-2.376.216-2.765.519-2.678 3.672zm9.064 5.012c-1.296 0-2.16-.95-2.16-2.204 0-1.252.864-2.203 2.16-2.203s2.16.95 2.16 2.203-.864 2.204-2.16 2.204"/></svg>