<svg xmlns="http://www.w3.org/2000/svg" fill="none" viewBox="0 0 297 73"><path fill="#000" d="M2.831 34.992v-.994c2.42-.388 4.795-2.332 4.795-6.868V5.054c0-3.153-.432-3.456-2.808-3.715V.39c2.636.216 3.024.259 4.45.259s1.814-.043 4.45-.26v.951c-2.376.26-2.808.562-2.808 3.715v18.792c0 8.554-4.71 10.584-8.079 11.146m31.224-12.744h.864l-.735 7.085H17.552v-.95c2.376-.13 2.808-.519 2.808-3.457V4.882c0-2.938-.432-3.327-2.808-3.456v-.95h15.725l.605 6.695h-.864c-.82-4.32-1.642-5.486-5.054-5.486h-4.32V13.78h5.01c1.47 0 1.858-.778 1.988-3.5h.864v8.209h-.864c-.086-2.722-.518-3.5-1.987-3.5h-5.011v11.405c0 1.21.259 1.728 2.116 1.728h3.11c3.543 0 4.148-1.253 5.185-5.875M47.615.475c6.178 0 11.233 5.616 11.233 14.429s-5.055 14.429-11.232 14.429h-8.813v-.95c2.376-.13 2.808-.519 2.808-3.457V4.882c0-2.938-.432-3.327-2.808-3.456v-.95zm-.604 27.648h.26c5.486 0 8.078-5.486 8.078-13.219s-2.592-13.22-8.079-13.22h-2.376v24.711c0 1.21.26 1.728 2.117 1.728m32.33-5.875h.864l-.735 7.085H62.838v-.95c2.376-.13 2.808-.519 2.808-3.457V4.882c0-2.938-.432-3.327-2.808-3.456v-.95h15.725l.605 6.695h-.864c-.821-4.32-1.642-5.486-5.055-5.486h-4.32V13.78h5.011c1.47 0 1.858-.778 1.988-3.5h.864v8.209h-.864c-.087-2.722-.519-3.5-1.987-3.5h-5.012v11.405c0 1.21.26 1.728 2.117 1.728h3.11c3.543 0 4.148-1.253 5.185-5.875M101.8.648c1.08 0 2.16-.13 3.413-.26v.951c-2.376.26-2.808.562-2.808 3.715v24.71h-.519L88.107 4.278v20.477c0 3.196.475 3.456 3.153 3.715v.95c-1.166-.13-2.462-.259-3.629-.259h-.13c-1.08 0-2.16.13-3.412.26v-.951c2.376-.26 2.808-.562 2.808-3.715V2.549c-.432-.562-1.167-.95-2.808-1.167v-.95c1.728.173 2.246.216 3.326.216.778 0 1.512-.043 2.29-.13l11.491 21.212V5.098c0-3.197-.475-3.5-3.154-3.759V.39c1.34.173 2.463.259 3.629.259zm27.753 13.435c3.024 1.771 4.839 4.018 4.839 7.776 0 4.234-3.37 7.906-7.949 7.906-2.462 0-4.666-1.08-5.832-2.635l-1.123 2.85h-.605v-9.892h.864c.734 5.357 2.635 8.554 6.566 8.554 3.327 0 5.271-1.944 5.271-5.098 0-3.283-1.685-5.054-4.45-6.696l-3.153-1.858c-2.938-1.728-4.839-3.888-4.839-7.69 0-4.665 3.543-7.257 7.042-7.257 2.462 0 4.363 1.383 5.357 2.895L132.406 0h.604v8.64h-.777c-.691-4.19-2.592-7.474-5.875-7.474-2.895 0-4.58 1.988-4.58 5.012 0 2.764 1.512 4.233 4.018 5.702zm18.121 2.117h-3.024v8.554c0 3.153.864 3.499 3.585 3.715v.95c-1.987-.173-3.196-.259-4.752-.259h-.475c-1.425 0-1.814.043-4.449.26v-.951c2.376-.26 2.808-.562 2.808-3.715V4.882c0-2.938-.432-3.327-2.808-3.456v-.95h9.201c5.573 0 8.77 3.023 8.77 7.732 0 4.838-3.975 7.992-8.856 7.992m-.562-14.515h-2.462v13.262h2.549c4.017 0 5.832-2.505 5.832-6.523 0-4.147-1.815-6.74-5.919-6.74m30.583 24.408c.821 2.117 1.383 2.419 3.456 2.419v.95c-.691.173-1.641.26-2.462.26-1.901 0-3.715-.605-4.709-3.5l-2.203-6.307c-.907-2.592-1.987-4.406-5.011-4.406h-.908v9.245c0 3.153.432 3.456 2.808 3.715v.95c-2.635-.216-3.024-.259-4.449-.259-1.426 0-1.815.043-4.45.26v-.951c2.376-.26 2.808-.562 2.808-3.715V4.882c0-2.938-.432-3.327-2.808-3.456v-.95h9.202c5.011 0 8.121 2.894 8.121 7.386 0 4.018-3.283 6.826-7.214 7.258 1.771.302 4.19 1.469 5.486 4.838zm-9.374-24.408h-2.463v12.614h2.506c3.629 0 5.227-2.419 5.227-6.264 0-3.888-1.598-6.35-5.27-6.35m17.488 3.37c0-3.154-.432-3.457-2.808-3.716V.39c2.635.216 3.024.259 4.449.259 1.426 0 1.815-.043 4.45-.26v.951c-2.376.26-2.808.562-2.808 3.715v19.7c0 3.153.432 3.456 2.808 3.715v.95c-2.635-.216-3.024-.259-4.45-.259-1.425 0-1.814.043-4.449.26v-.951c2.376-.26 2.808-.562 2.808-3.715zM213.653.647c1.08 0 2.16-.13 3.413-.26v.951c-2.376.26-2.808.562-2.808 3.715v24.71h-.518L199.959 4.278v20.477c0 3.196.475 3.456 3.154 3.715v.95c-1.167-.13-2.463-.259-3.629-.259h-.13c-1.08 0-2.16.13-3.413.26v-.951c2.376-.26 2.808-.562 2.808-3.715V2.549c-.432-.562-1.166-.95-2.808-1.167v-.95c1.728.173 2.247.216 3.327.216.777 0 1.512-.043 2.289-.13l11.492 21.212V5.098c0-3.197-.476-3.5-3.154-3.759V.39c1.339.173 2.462.259 3.629.259zm24.575-.173.561 7.085h-.864c-.864-4.666-1.555-5.875-5.011-5.875h-1.728v23.069c0 3.196.475 3.456 3.111 3.715v.95c-1.988-.173-3.24-.259-4.752-.259s-2.765.086-4.752.26v-.951c2.635-.26 3.11-.519 3.11-3.715V1.684h-1.728c-3.456 0-4.147 1.21-5.011 5.876h-.864l.561-7.085zm20.514 21.773h.864l-.734 7.085H242.24v-.95c2.376-.13 2.808-.519 2.808-3.457V4.882c0-2.938-.432-3.327-2.808-3.456v-.95h15.724l.605 6.695h-.864c-.821-4.32-1.641-5.486-5.054-5.486h-4.32V13.78h5.011c1.469 0 1.858-.778 1.987-3.5h.864v8.209h-.864c-.086-2.722-.518-3.5-1.987-3.5h-5.011v11.405c0 1.21.259 1.728 2.117 1.728h3.11c3.542 0 4.147-1.253 5.184-5.875m22.676 3.845c.821 2.117 1.383 2.419 3.456 2.419v.95c-.691.173-1.641.26-2.462.26-1.901 0-3.715-.605-4.709-3.5l-2.203-6.307c-.907-2.592-1.987-4.406-5.011-4.406h-.907v9.245c0 3.153.432 3.456 2.808 3.715v.95c-2.636-.216-3.024-.259-4.45-.259s-1.814.043-4.45.26v-.951c2.376-.26 2.808-.562 2.808-3.715V4.882c0-2.938-.432-3.327-2.808-3.456v-.95h9.202c5.011 0 8.122 2.894 8.122 7.386 0 4.018-3.284 6.826-7.215 7.258 1.771.302 4.191 1.469 5.487 4.838zm-9.374-24.408h-2.462v12.614h2.505c3.629 0 5.227-2.419 5.227-6.264 0-3.888-1.598-6.35-5.27-6.35m17.479 28.08c-1.296 0-2.16-.95-2.16-2.203s.864-2.204 2.16-2.204 2.16.95 2.16 2.204c0 1.252-.864 2.203-2.16 2.203M17.928 43.475l.562 7.085h-.864c-.864-4.666-1.556-5.875-5.012-5.875h-1.728v23.069c0 3.196.476 3.456 3.11 3.715v.95c-1.986-.173-3.24-.259-4.751-.259s-2.765.086-4.752.26v-.951c2.635-.26 3.11-.519 3.11-3.715v-23.07H5.875c-3.456 0-4.147 1.21-5.011 5.876H0l.562-7.085zm14.043 29.29c-5.486 0-10.022-5.141-10.022-14.861s4.536-14.86 10.022-14.86 10.023 5.14 10.023 14.86-4.536 14.86-10.023 14.86m0-1.123c4.407 0 6.524-5.228 6.524-13.738s-2.117-13.738-6.524-13.738c-4.406 0-6.523 5.228-6.523 13.738s2.117 13.738 6.523 13.738m31.367-7.128-1.123 7.819H46.101v-.95c2.377-.13 2.809-.519 2.809-3.457V48.054c0-3.153-.432-3.456-2.808-3.715v-.95c2.635.216 3.024.259 4.45.259 1.511 0 2.116-.043 4.708-.26v.951c-2.592.26-3.067.519-3.067 3.715v21.341c0 1.21.259 1.728 2.117 1.728H56.9c2.981 0 4.45-1.382 5.573-6.61zm6.105-16.46c0-3.153-.432-3.456-2.808-3.715v-.95c2.635.216 3.024.259 4.45.259 1.425 0 1.814-.043 4.45-.26v.951c-2.377.26-2.809.562-2.809 3.715v19.7c0 3.153.432 3.456 2.808 3.715v.95c-2.635-.216-3.024-.259-4.45-.259-1.425 0-1.814.043-4.449.26v-.951c2.376-.26 2.808-.562 2.808-3.715zm28.103 20.78c1.123 1.857 1.685 2.376 3.499 2.635v.95c-1.814-.216-2.678-.259-4.147-.259-1.555 0-2.894.043-4.838.26v-.951c2.29-.26 3.023-.389 1.511-2.981l-6.393-10.886h-1.512v10.152c0 3.153.432 3.456 2.808 3.715v.95c-2.635-.216-3.024-.259-4.45-.259-1.425 0-1.814.043-4.45.26v-.951c2.377-.26 2.809-.562 2.809-3.715v-19.7c0-3.153-.432-3.456-2.808-3.715v-.95c2.635.216 3.024.259 4.45.259 1.425 0 1.814-.043 4.449-.26v.951c-2.376.26-2.808.562-2.808 3.715v8.338h1.512l6.523-9.331c1.512-2.16.519-2.506-1.857-2.722v-.95c1.641.173 2.85.259 4.104.259 1.123 0 2.29-.086 3.801-.26v.951c-2.246.26-2.937.346-4.58 2.722l-5.701 8.165zm38.46-1.08c.087 3.153.562 3.456 2.938 3.715v.95c-2.635-.216-3.024-.259-4.45-.259h-.086c-1.512 0-2.592.086-4.666.26v-.951c2.636-.26 3.068-.519 2.981-3.715l-.605-20.78-7.516 24.797h-.519l-7.387-24.753-.648 20.736c-.086 3.196.346 3.456 2.981 3.715v.95c-1.642-.173-2.506-.259-3.672-.259h-.043c-1.08 0-2.16.13-3.413.26v-.951c2.376-.26 2.851-.562 2.937-3.715l.605-19.7c.087-3.153-.302-3.456-2.678-3.715v-.95c2.635.216 3.024.259 4.017.259 1.08 0 1.685-.043 2.333-.13l6.307 21.341 6.437-21.34c.605.086 1.426.129 2.203.129.994 0 1.383-.043 4.018-.216v.95c-2.376.216-2.765.519-2.678 3.672zm16.677 5.01c-5.486 0-10.022-5.14-10.022-14.86s4.536-14.86 10.022-14.86 10.023 5.14 10.023 14.86-4.536 14.86-10.023 14.86m0-1.122c4.407 0 6.524-5.228 6.524-13.738s-2.117-13.738-6.524-13.738c-4.406 0-6.523 5.228-6.523 13.738s2.117 13.738 6.523 13.738m23.805-31.407h-1.771l-4.666-4.968h1.253l4.277 2.592 4.277-2.592h1.253zm6.264 24.149h.864l-.95 7.949h-16.632v-.346l13.392-27.302h-5.659c-3.37 0-4.191 1.296-5.012 6.091h-.864l.562-7.3h14.99v.345l-13.392 27.302h6.869c3.975 0 4.666-1.425 5.832-6.739m22.433-20.736c1.08 0 2.16-.13 3.413-.26v.951c-2.376.26-2.808.562-2.808 3.715v24.71h-.518l-13.781-25.487v20.477c0 3.196.475 3.456 3.154 3.715v.95c-1.167-.13-2.463-.259-3.629-.259h-.13c-1.08 0-2.16.13-3.413.26v-.951c2.376-.26 2.808-.562 2.808-3.715V45.549c-.432-.562-1.166-.95-2.808-1.167v-.95c1.728.173 2.247.216 3.327.216.777 0 1.512-.043 2.289-.13l11.492 21.212V48.098c0-3.197-.476-3.5-3.154-3.759v-.95c1.339.173 2.462.259 3.629.259zm17.325 29.117c-5.486 0-10.022-5.141-10.022-14.861s4.536-14.86 10.022-14.86 10.023 5.14 10.023 14.86-4.536 14.86-10.023 14.86m0-1.123c4.407 0 6.524-5.228 6.524-13.738s-2.117-13.738-6.524-13.738c-4.406 0-6.523 5.228-6.523 13.738s2.117 13.738 6.523 13.738m25.743-14.559c3.024 1.771 4.839 4.018 4.839 7.776 0 4.234-3.37 7.906-7.949 7.906-2.463 0-4.666-1.08-5.832-2.635l-1.123 2.85h-.605v-9.892h.864c.734 5.357 2.635 8.554 6.566 8.554 3.327 0 5.271-1.944 5.271-5.098 0-3.283-1.685-5.054-4.45-6.696l-3.154-1.858c-2.937-1.728-4.838-3.888-4.838-7.69 0-4.665 3.542-7.257 7.042-7.257 2.462 0 4.363 1.383 5.356 2.895l.864-2.938h.605v8.64h-.777c-.692-4.19-2.592-7.474-5.876-7.474-2.894 0-4.579 1.988-4.579 5.012 0 2.764 1.512 4.233 4.018 5.702zm26.329-13.608.561 7.085h-.864c-.864-4.666-1.555-5.875-5.011-5.875h-1.728v23.069c0 3.196.475 3.456 3.11 3.715v.95c-1.987-.173-3.24-.259-4.752-.259s-2.764.086-4.752.26v-.951c2.636-.26 3.111-.519 3.111-3.715v-23.07h-1.728c-3.456 0-4.147 1.21-5.011 5.876h-.864l.561-7.085zm6.258-2.851 3.888-4.666c.648-.777 1.037-1.123 1.814-1.123.691 0 1.426.605 1.426 1.512 0 .432-.087 1.037-1.339 1.728l-4.536 2.549zm.561 7.43c0-3.153-.432-3.456-2.808-3.715v-.95c2.636.216 3.024.259 4.45.259s1.814-.043 4.45-.26v.951c-2.376.26-2.808.562-2.808 3.715v19.7c0 3.153.432 3.456 2.808 3.715v.95c-2.636-.216-3.024-.259-4.45-.259s-1.814.043-4.45.26v-.951c2.376-.26 2.808-.562 2.808-3.715zm12.551 24.71c-1.296 0-2.16-.95-2.16-2.202s.864-2.204 2.16-2.204 2.16.95 2.16 2.204c0 1.252-.864 2.203-2.16 2.203"/></svg>