<svg xmlns="http://www.w3.org/2000/svg" fill="none" viewBox="0 0 222 82"><path fill="#000" d="M57.339 8.813c1.08 0 2.16-.13 3.413-.26v.951c-2.376.26-2.809.562-2.809 3.715v24.71h-.518l-13.78-25.487v20.476c0 3.197.474 3.456 3.153 3.716v.95c-1.166-.13-2.462-.26-3.629-.26h-.13c-1.08 0-2.16.13-3.412.26v-.95c2.376-.26 2.808-.562 2.808-3.716V10.714c-.432-.562-1.167-.95-2.808-1.167v-.95c1.728.173 2.246.216 3.326.216.778 0 1.512-.043 2.29-.13l11.49 21.211V13.262c0-3.196-.474-3.499-3.153-3.758v-.95c1.34.172 2.463.259 3.63.259zm24.194 24.321c.994 3.11 1.296 3.24 3.24 3.5v.95c-1.857-.173-2.721-.26-4.104-.26-1.339 0-2.462.087-4.536.26v-.95c2.376-.26 2.895-.432 1.944-3.543l-1.339-4.406h-8.294L67.19 33.09c-.864 3.067-.432 3.283 1.944 3.543v.95c-1.166-.13-2.549-.26-3.542-.26-.994 0-1.815.13-2.938.26v-.95c2.03-.26 2.462-.692 3.283-3.543L72.98 8.208h.518zM68.79 27.475h7.56l-3.888-12.7zm49.87 5.443c.086 3.154.562 3.456 2.938 3.716v.95c-2.636-.216-3.024-.26-4.45-.26h-.086c-1.512 0-2.592.087-4.666.26v-.95c2.635-.26 3.067-.519 2.981-3.716l-.605-20.779-7.517 24.797h-.518l-7.387-24.754-.648 20.736c-.087 3.197.345 3.456 2.98 3.716v.95c-1.641-.173-2.505-.26-3.671-.26h-.044c-1.08 0-2.16.13-3.412.26v-.95c2.376-.26 2.85-.562 2.937-3.716l.605-19.699c.086-3.153-.303-3.456-2.678-3.715v-.95c2.635.216 3.023.259 4.017.259 1.08 0 1.685-.043 2.333-.13l6.307 21.341 6.437-21.34c.605.086 1.425.129 2.203.129.994 0 1.382-.043 4.018-.216v.95c-2.376.216-2.765.519-2.679 3.672zm8.892-27.13 3.888-4.665C132.087.346 132.476 0 133.253 0c.691 0 1.426.605 1.426 1.512 0 .432-.087 1.037-1.339 1.728l-4.536 2.549zm.561 7.431c0-3.153-.432-3.456-2.808-3.715v-.95c2.636.216 3.024.259 4.45.259s1.814-.043 4.45-.26v.951c-2.376.26-2.808.562-2.808 3.715v19.7c0 3.153.432 3.455 2.808 3.715v.95c-2.636-.216-3.024-.26-4.45-.26s-1.814.044-4.45.26v-.95c2.376-.26 2.808-.562 2.808-3.716zm28.06 21.039c.821 2.116 1.383 2.419 3.456 2.419v.95c-.691.173-1.641.26-2.462.26-1.901 0-3.715-.605-4.709-3.5l-2.203-6.307c-.907-2.592-1.987-4.406-5.011-4.406h-.908v9.244c0 3.154.432 3.456 2.808 3.716v.95c-2.635-.216-3.024-.26-4.449-.26-1.426 0-1.815.044-4.45.26v-.95c2.376-.26 2.808-.562 2.808-3.716V13.046c0-2.937-.432-3.326-2.808-3.456v-.95h9.202c5.011 0 8.121 2.894 8.121 7.387 0 4.018-3.283 6.826-7.214 7.258 1.771.302 4.19 1.469 5.486 4.838zM146.798 9.85h-2.463v12.614h2.506c3.629 0 5.227-2.42 5.227-6.264 0-3.888-1.598-6.35-5.27-6.35m31.628 3.37c0-3.154-.432-3.457-2.808-3.716v-.95c1.253.13 2.333.259 3.413.259s2.16-.13 3.413-.26v.951c-2.376.26-2.808.562-2.808 3.715v16.287c0 5.572-2.938 8.424-7.906 8.424-5.184 0-8.381-3.068-8.381-8.122V13.219c0-3.153-.432-3.456-2.808-3.715v-.95c2.636.216 3.024.259 4.45.259s1.814-.043 4.45-.26v.951c-2.376.26-2.808.562-2.808 3.715v16.157c0 4.795 2.203 6.869 5.659 6.869 3.974 0 6.134-2.074 6.134-6.869zM8.813 51.64c6.177 0 11.232 5.616 11.232 14.429S14.99 80.498 8.813 80.498H0v-.95c2.376-.13 2.808-.52 2.808-3.457V56.046c0-2.937-.432-3.326-2.808-3.456v-.95zm-.605 27.648h.26c5.486 0 8.078-5.486 8.078-13.22 0-7.732-2.592-13.218-8.079-13.218H6.091v24.71c0 1.21.26 1.728 2.117 1.728m26.66 1.642c-5.486 0-10.022-5.141-10.022-14.861s4.536-14.861 10.022-14.861 10.023 5.14 10.023 14.86S40.355 80.93 34.868 80.93m0-1.124c4.407 0 6.523-5.227 6.523-13.737S39.275 52.33 34.868 52.33c-4.406 0-6.523 5.227-6.523 13.738s2.117 13.737 6.523 13.737m32.162-14.99c3.327.734 6.35 3.24 6.35 7.906 0 5.313-3.844 8.208-8.078 8.208-3.758 0-6.696-2.722-6.696-7.085h1.08c0 3.456 2.42 5.832 5.141 5.832 3.542 0 5.227-3.024 5.227-7.128 0-4.19-1.771-7.042-5.573-7.042h-.993v-1.08h.993c3.5 0 4.71-3.37 4.71-6.307 0-2.635-.994-5.789-4.364-5.789-2.851 0-4.406 2.722-4.406 5.443h-1.08c0-3.37 1.987-6.566 6.134-6.566 4.19 0 6.998 2.851 6.998 6.653 0 3.672-2.635 6.091-5.443 6.955m43.83 11.102c.087 3.154.562 3.456 2.938 3.716v.95c-2.635-.216-3.024-.26-4.45-.26h-.086c-1.512 0-2.592.087-4.666.26v-.95c2.635-.26 3.067-.519 2.981-3.716l-.605-20.779-7.516 24.797h-.519L91.55 55.182l-.648 20.736c-.087 3.197.346 3.456 2.98 3.716v.95c-1.64-.173-2.505-.26-3.671-.26h-.043c-1.08 0-2.16.13-3.413.26v-.95c2.376-.26 2.85-.562 2.937-3.716l.605-19.699c.087-3.153-.302-3.456-2.678-3.715v-.95c2.635.216 3.024.259 4.017.259 1.08 0 1.685-.043 2.333-.13l6.307 21.341 6.437-21.34c.605.086 1.426.129 2.203.129.994 0 1.383-.043 4.018-.216v.95c-2.376.216-2.765.519-2.679 3.672zM127.528 48.4h-1.771l-4.666-4.968h1.253l4.277 2.592 4.277-2.592h1.252zm6.48 25.013h.864l-.734 7.085h-16.632v-.95c2.376-.13 2.808-.52 2.808-3.457V56.046c0-2.937-.432-3.326-2.808-3.456v-.95h15.724l.605 6.696h-.864c-.821-4.32-1.641-5.486-5.054-5.486h-4.32v12.096h5.011c1.469 0 1.858-.778 1.987-3.5h.864v8.208h-.864c-.086-2.721-.518-3.499-1.987-3.499h-5.011V77.56c0 1.21.259 1.728 2.117 1.728h3.11c3.542 0 4.147-1.253 5.184-5.875m16.024-8.165c3.024 1.771 4.838 4.018 4.838 7.776 0 4.234-3.37 7.906-7.949 7.906-2.462 0-4.665-1.08-5.832-2.636l-1.123 2.852h-.605v-9.893h.864c.735 5.357 2.635 8.553 6.567 8.553 3.326 0 5.27-1.944 5.27-5.097 0-3.283-1.685-5.055-4.45-6.696l-3.153-1.858c-2.938-1.728-4.839-3.888-4.839-7.69 0-4.665 3.543-7.257 7.042-7.257 2.462 0 4.363 1.382 5.357 2.894l.864-2.937h.605v8.64h-.778c-.691-4.19-2.592-7.474-5.875-7.474-2.895 0-4.579 1.987-4.579 5.011 0 2.765 1.512 4.234 4.017 5.703zm11.251-16.46 3.888-4.665c.648-.777 1.037-1.123 1.815-1.123.691 0 1.425.605 1.425 1.512 0 .432-.086 1.037-1.339 1.728l-4.536 2.549zm.562 7.431c0-3.153-.432-3.456-2.808-3.715v-.95c2.635.216 3.024.259 4.449.259 1.426 0 1.815-.043 4.45-.26v.951c-2.376.26-2.808.562-2.808 3.715v19.7c0 3.153.432 3.455 2.808 3.715v.95c-2.635-.216-3.024-.26-4.45-.26-1.425 0-1.814.044-4.449.26v-.95c2.376-.26 2.808-.562 2.808-3.716zm26.469 14.472h1.123c-.345 7.215-3.585 10.239-7.689 10.239-5.487 0-9.677-5.184-9.677-14.861s4.406-14.861 9.806-14.861c2.549 0 4.45 1.253 5.53 2.765l.95-2.765h.605v9.072h-.777c-.994-5.53-2.938-7.949-6.308-7.949-4.276 0-6.307 5.141-6.307 13.738 0 8.77 2.16 13.349 6.826 13.349 2.894 0 5.573-2.376 5.918-8.727m16.652-21.902c-1.944 0-3.499-1.512-3.499-3.456s1.555-3.456 3.499-3.456 3.5 1.512 3.5 3.456-1.556 3.456-3.5 3.456m0-1.123c1.253 0 2.247-.95 2.247-2.333S206.219 43 204.966 43s-2.246.95-2.246 2.333c0 1.382.994 2.333 2.246 2.333m6.264 8.553c0-3.153-.432-3.456-2.808-3.715v-.95c1.253.13 2.333.259 3.413.259s2.16-.13 3.413-.26v.951c-2.376.26-2.808.562-2.808 3.715v16.287c0 5.572-2.938 8.424-7.906 8.424-5.184 0-8.38-3.068-8.38-8.122V56.219c0-3.153-.432-3.456-2.808-3.715v-.95c2.635.216 3.024.259 4.449.259 1.426 0 1.815-.043 4.45-.26v.951c-2.376.26-2.808.562-2.808 3.715v16.157c0 4.795 2.203 6.869 5.659 6.869 3.974 0 6.134-2.074 6.134-6.869zm8.114 24.71c-1.296 0-2.16-.95-2.16-2.203s.864-2.203 2.16-2.203 2.16.95 2.16 2.203-.864 2.204-2.16 2.204"/></svg>