<svg xmlns="http://www.w3.org/2000/svg" fill="none" viewBox="0 0 275 81"><path fill="#000" d="M10.67 22.248c3.024 1.771 4.839 4.018 4.839 7.776 0 4.234-3.37 7.906-7.949 7.906-2.462 0-4.666-1.08-5.832-2.636L.605 38.146H0v-9.893h.864c.734 5.357 2.635 8.553 6.566 8.553 3.327 0 5.27-1.944 5.27-5.097 0-3.283-1.684-5.055-4.449-6.696l-3.153-1.858C2.16 21.427.259 19.267.259 15.465c0-4.665 3.543-7.257 7.042-7.257 2.462 0 4.363 1.382 5.357 2.894l.864-2.937h.604v8.64h-.777c-.691-4.19-2.592-7.474-5.875-7.474-2.895 0-4.58 1.987-4.58 5.011 0 2.765 1.512 4.234 4.018 5.703zm26.977 11.75c1.123 1.858 1.685 2.376 3.499 2.636v.95c-1.814-.216-2.678-.26-4.147-.26-1.555 0-2.895.044-4.839.26v-.95c2.29-.26 3.024-.39 1.512-2.981L27.28 22.766h-1.512v10.152c0 3.154.432 3.456 2.808 3.716v.95c-2.635-.216-3.024-.26-4.45-.26-1.425 0-1.814.044-4.45.26v-.95c2.377-.26 2.809-.562 2.809-3.716V13.22c0-3.153-.432-3.456-2.808-3.715v-.95c2.635.216 3.024.259 4.45.259 1.425 0 1.814-.043 4.449-.26v.951c-2.376.26-2.808.562-2.808 3.715v8.338h1.512l6.523-9.331c1.512-2.16.518-2.506-1.858-2.722v-.95c1.642.172 2.852.259 4.104.259 1.124 0 2.29-.087 3.802-.26v.951c-2.246.26-2.938.346-4.58 2.722l-5.702 8.164zm23.427-4.32-1.123 7.82H43.837v-.95c2.376-.13 2.808-.52 2.808-3.457V13.22c0-3.153-.432-3.456-2.808-3.715v-.95c2.635.216 3.024.259 4.45.259 1.512 0 2.117-.043 4.709-.26v.951c-2.592.26-3.068.518-3.068 3.715V34.56c0 1.21.26 1.728 2.117 1.728h2.592c2.981 0 4.45-1.382 5.573-6.61zm20.62 3.456c.993 3.11 1.296 3.24 3.24 3.5v.95c-1.858-.173-2.722-.26-4.104-.26-1.34 0-2.462.087-4.536.26v-.95c2.376-.26 2.894-.432 1.944-3.543l-1.34-4.406h-8.294l-1.252 4.406c-.865 3.067-.433 3.283 1.944 3.543v.95c-1.167-.13-2.55-.26-3.543-.26s-1.814.13-2.937.26v-.95c2.03-.26 2.462-.692 3.283-3.543L73.14 8.208h.519zM68.95 27.475h7.56l-3.888-12.7zM95.953 8.64c6.178 0 11.232 5.616 11.232 14.429s-5.054 14.429-11.232 14.429H87.14v-.95c2.376-.13 2.808-.52 2.808-3.457V13.046c0-2.937-.432-3.326-2.808-3.456v-.95zm-.605 27.648h.26c5.486 0 8.078-5.486 8.078-13.22 0-7.732-2.592-13.218-8.079-13.218h-2.376v24.71c0 1.21.26 1.728 2.117 1.728m26.66 1.642c-5.486 0-10.022-5.141-10.022-14.861s4.536-14.861 10.022-14.861 10.023 5.14 10.023 14.86-4.536 14.862-10.023 14.862m0-1.124c4.407 0 6.523-5.227 6.523-13.737S126.415 9.33 122.008 9.33c-4.406 0-6.523 5.227-6.523 13.738s2.117 13.737 6.523 13.737m31.205-27.993c.864 0 1.857-.087 2.937-.26v.951c-2.03.26-2.592.691-3.413 3.542l-7.128 24.884h-.518l-7.776-24.927c-.95-3.11-1.426-3.24-3.37-3.499v-.95c1.772.172 2.722.259 4.061.259 1.383 0 2.506-.087 4.709-.26v.951c-2.549.26-2.765.475-1.858 3.542l5.357 18.101 5.271-18.1c.907-3.025.691-3.284-1.858-3.543v-.95c1.253.13 2.549.259 3.586.259m18.1-5.573-4.536 2.549h-1.252l3.888-4.666C170.061.346 170.449 0 171.227 0c.691 0 1.426.605 1.426 1.512 0 .432-.087 1.037-1.34 1.728m3.802 27.173h.864l-.734 7.085h-16.632v-.95c2.376-.13 2.808-.52 2.808-3.457V13.046c0-2.937-.432-3.326-2.808-3.456v-.95h15.724l.605 6.696h-.864c-.821-4.32-1.641-5.486-5.054-5.486h-4.32v12.096h5.011c1.469 0 1.858-.778 1.987-3.5h.864v8.208h-.864c-.086-2.721-.518-3.499-1.987-3.499h-5.011V34.56c0 1.21.259 1.728 2.117 1.728h3.11c3.542 0 4.147-1.253 5.184-5.875m30.164-21.6c.864 0 1.857-.087 2.937-.26v.951c-2.03.26-2.592.691-3.413 3.542l-7.128 24.884h-.518l-7.776-24.927c-.95-3.11-1.426-3.24-3.37-3.499v-.95c1.772.172 2.722.259 4.061.259 1.383 0 2.506-.087 4.709-.26v.951c-2.549.26-2.765.475-1.858 3.542l5.357 18.101 5.271-18.1c.907-3.025.691-3.284-1.858-3.543v-.95c1.253.13 2.549.259 3.586.259m14.798 29.117c-5.486 0-10.022-5.141-10.022-14.861s4.536-14.861 10.022-14.861 10.023 5.14 10.023 14.86-4.536 14.862-10.023 14.862m0-1.124c4.407 0 6.524-5.227 6.524-13.737S224.484 9.33 220.077 9.33c-4.406 0-6.523 5.227-6.523 13.738s2.117 13.737 6.523 13.737m30.069-7.257h.864l-.95 7.949h-16.632v-.346L246.82 9.85h-5.659c-3.37 0-4.191 1.296-5.012 6.09h-.864l.562-7.3h14.99v.346l-13.392 27.302h6.869c3.975 0 4.666-1.426 5.832-6.74m21.526-20.736c.864 0 1.685-.087 2.679-.26v.951c-1.901.26-2.376.346-3.672 3.326l-4.925 11.103v8.985c-.043 3.197.475 3.456 2.981 3.716v.95c-2.722-.216-3.154-.26-4.623-.26-1.468 0-2.073.044-4.622.26v-.95c2.506-.26 3.024-.519 2.981-3.716v-8.51l-5.659-11.62c-1.34-2.766-1.728-3.025-3.5-3.284v-.95c2.247.216 2.852.259 4.148.259 1.252 0 2.548-.087 4.363-.26v.951c-2.592.26-2.851.562-1.512 3.24l4.795 9.59 4.277-9.504c1.253-2.808.907-3.11-1.426-3.326v-.95c1.296.172 2.592.259 3.715.259M44.524 65.248c3.629.648 6.394 3.413 6.394 7.474 0 4.752-3.672 7.776-8.165 7.776h-9.936v-.95c2.376-.13 2.808-.52 2.808-3.457V56.046c0-2.937-.432-3.326-2.808-3.456v-.95H41.5c5.011 0 8.122 2.722 8.122 6.912 0 3.283-2.117 5.702-5.098 6.696M40.895 52.85h-1.987v12.139h1.987c3.63 0 5.228-2.333 5.228-6.091 0-3.716-1.599-6.048-5.228-6.048m1.426 26.438c3.542 0 5.098-2.506 5.098-6.566 0-4.018-1.556-6.524-5.098-6.524h-3.413V77.56c0 1.21.26 1.728 2.117 1.728zm29.135-5.875h.864l-.734 7.085H54.954v-.95c2.376-.13 2.808-.52 2.808-3.457V56.046c0-2.937-.432-3.326-2.808-3.456v-.95h15.724l.605 6.696h-.864c-.82-4.32-1.641-5.486-5.054-5.486h-4.32v12.096h5.011c1.469 0 1.858-.778 1.987-3.5h.864v8.208h-.864c-.086-2.721-.518-3.499-1.987-3.499h-5.011V77.56c0 1.21.259 1.728 2.117 1.728h3.11c3.542 0 4.147-1.253 5.184-5.875m20.603-.864h.864l-.95 7.949H75.34v-.346L88.732 52.85h-5.659c-3.37 0-4.19 1.296-5.011 6.09h-.864l.562-7.3h14.99v.346L79.358 79.288h6.869c3.974 0 4.665-1.426 5.832-6.74M116.937 48.4h-1.771l-4.666-4.968h1.253l4.277 2.592 4.276-2.592h1.253zm5.745 22.291h1.124c-.346 7.215-3.586 10.239-7.69 10.239-5.486 0-9.677-5.184-9.677-14.861s4.407-14.861 9.807-14.861c2.548 0 4.449 1.253 5.529 2.765l.951-2.765h.604v9.072h-.777c-.994-5.53-2.938-7.949-6.307-7.949-4.277 0-6.308 5.141-6.308 13.738 0 8.77 2.16 13.349 6.826 13.349 2.894 0 5.573-2.376 5.918-8.727m21.88 2.722h.864l-.735 7.085h-16.632v-.95c2.376-.13 2.808-.52 2.808-3.457V56.046c0-2.937-.432-3.326-2.808-3.456v-.95h15.725l.605 6.696h-.864c-.821-4.32-1.642-5.486-5.054-5.486h-4.32v12.096h5.011c1.469 0 1.857-.778 1.987-3.5h.864v8.208h-.864c-.086-2.721-.518-3.499-1.987-3.499h-5.011V77.56c0 1.21.259 1.728 2.116 1.728h3.111c3.542 0 4.147-1.253 5.184-5.875m22.719 3.585c1.124 1.858 1.685 2.376 3.5 2.636v.95c-1.815-.216-2.679-.26-4.148-.26-1.555 0-2.894.044-4.838.26v-.95c2.29-.26 3.024-.39 1.512-2.981l-6.394-10.887h-1.512v10.152c0 3.154.432 3.456 2.808 3.716v.95c-2.635-.216-3.024-.26-4.449-.26-1.426 0-1.815.044-4.45.26v-.95c2.376-.26 2.808-.562 2.808-3.716V56.22c0-3.153-.432-3.456-2.808-3.715v-.95c2.635.216 3.024.259 4.45.259 1.425 0 1.814-.043 4.449-.26v.951c-2.376.26-2.808.562-2.808 3.715v8.338h1.512l6.524-9.331c1.512-2.16.518-2.506-1.858-2.722v-.95c1.642.172 2.851.259 4.104.259 1.123 0 2.29-.087 3.802-.26v.951c-2.247.26-2.938.346-4.58 2.722l-5.702 8.164zm19.396-30.758-4.536 2.549h-1.253l3.888-4.666c.648-.777 1.037-1.123 1.814-1.123.692 0 1.426.605 1.426 1.512 0 .432-.086 1.037-1.339 1.728m4.709 29.894c.993 3.11 1.296 3.24 3.24 3.5v.95c-1.858-.173-2.722-.26-4.104-.26-1.34 0-2.463.087-4.536.26v-.95c2.376-.26 2.894-.432 1.944-3.543l-1.34-4.406h-8.294l-1.253 4.406c-.864 3.067-.432 3.283 1.944 3.543v.95c-1.166-.13-2.549-.26-3.542-.26-.994 0-1.815.13-2.938.26v-.95c2.031-.26 2.463-.692 3.283-3.543l7.042-24.883h.518zm-12.744-5.659h7.56l-3.888-12.7zm35.902-18.662c1.08 0 2.16-.13 3.413-.26v.951c-2.376.26-2.808.562-2.808 3.715v24.71h-.519l-13.781-25.487v20.476c0 3.197.476 3.456 3.154 3.716v.95c-1.166-.13-2.462-.26-3.629-.26h-.129c-1.08 0-2.16.13-3.413.26v-.95c2.376-.26 2.808-.562 2.808-3.716V53.714c-.432-.562-1.167-.95-2.808-1.167v-.95c1.728.173 2.246.216 3.326.216.778 0 1.512-.043 2.29-.13l11.491 21.211V56.262c0-3.196-.475-3.499-3.154-3.758v-.95c1.34.172 2.463.259 3.629.259zm9.497-3.024 3.888-4.666c.648-.777 1.037-1.123 1.815-1.123.691 0 1.425.605 1.425 1.512 0 .432-.086 1.037-1.339 1.728l-4.536 2.549zm.562 7.43c0-3.153-.432-3.456-2.808-3.715v-.95c2.635.216 3.024.259 4.45.259 1.425 0 1.814-.043 4.449-.26v.951c-2.376.26-2.808.562-2.808 3.715v19.7c0 3.153.432 3.455 2.808 3.715v.95c-2.635-.216-3.024-.26-4.449-.26-1.426 0-1.815.044-4.45.26v-.95c2.376-.26 2.808-.562 2.808-3.716zm12.551 24.71c-1.296 0-2.16-.95-2.16-2.203s.864-2.203 2.16-2.203 2.16.95 2.16 2.203-.864 2.204-2.16 2.204"/></svg>