<svg xmlns="http://www.w3.org/2000/svg" fill="none" viewBox="0 0 62 32"><path fill="#fff" d="M4.506 18.044h3.689v-5.93h-.027zm9.328 3.32h-1.37v2.766c0 .396-.08.633-.185.738-.132.106-.395.132-.764.132H9.196c-.421 0-.685-.026-.817-.132-.131-.105-.184-.342-.184-.738v-2.766h-6.72q-.552 0-.71-.158-.159-.159-.159-.712v-.632c0-.527.026-.922.105-1.186.053-.237.238-.58.501-1.001l5.507-8.88c.211-.343.395-.58.606-.685q.316-.159.87-.158h3.188c.422 0 .712.079.87.21.131.158.21.448.21.896v8.986h1.37c.317 0 .501.052.607.131.079.106.132.29.132.58v1.897c0 .316-.053.5-.132.58-.106.105-.29.132-.606.132m4.455-.712h.369c.79 0 1.344.211 1.686.58.343.395.527.975.527 1.765v.343c0 .817-.263 1.818-.737 3.03a11.5 11.5 0 0 1-2.082 3.32c-.158.211-.343.29-.527.29a.77.77 0 0 1-.422-.132l-1.317-.79c-.316-.158-.343-.422-.08-.764.238-.316.58-.817 1.055-1.529.316-.474.474-.816.474-1.08 0-.132-.08-.237-.21-.342l-.264-.185c-.448-.316-.66-.87-.66-1.66v-.738c0-1.396.712-2.108 2.188-2.108m15.337-9.196h-5.323c-.263 0-.369.132-.369.343l-.079 2.45q1.185-.395 2.609-.395h.263c1.687 0 2.925.395 3.716 1.16.843.843 1.29 2.24 1.29 4.189v.369c0 2.003-.579 3.452-1.685 4.374-1.055.87-2.688 1.291-4.902 1.291h-.263q-2.57 0-5.217-.948c-.37-.106-.527-.317-.527-.607 0-.105.026-.342.131-.711l.37-1.344c.105-.369.236-.606.42-.711.159-.08.37-.053.633.052 1.476.554 2.82.817 4.032.817h.263c.764 0 1.37-.158 1.845-.474q.632-.395.632-1.74v-.184c0-.79-.184-1.37-.553-1.686-.343-.29-.843-.448-1.502-.448h-.158q-1.383 0-3.083.633c-.264.105-.448.131-.527.131-.158 0-.37-.079-.606-.237l-.843-.553c-.264-.185-.396-.422-.396-.685 0-.159 0-.501.053-1.054l.343-6.746c0-.527.316-.79.895-.79h8.59c.317 0 .554.052.66.158.105.105.184.29.184.606v2.029c0 .29-.08.474-.185.58-.131.105-.369.131-.711.131m13.309.975v.264c0 1.739-.448 2.977-1.291 3.768-.79.632-1.819.948-3.03.948-1.37 0-2.398-.342-3.11-1.027-.79-.738-1.186-1.898-1.186-3.426v-.79c0-1.529.396-2.662 1.186-3.426.712-.685 1.74-1.028 3.11-1.028 1.211 0 2.24.317 3.03.949.843.79 1.29 2.055 1.29 3.768m-4.48 11.858 9.723-16.021c.132-.211.29-.37.448-.448.158-.053.396-.106.738-.106h1.924c.817 0 1.054.317.685.949l-9.723 16.02c-.158.238-.29.396-.448.449-.158.079-.422.105-.738.105H43.14c-.843 0-1.054-.316-.685-.948m-.58-12.438v1.423c0 .554.053.923.185 1.107.105.184.29.263.527.263h.053c.21 0 .395-.079.527-.263.105-.184.184-.553.184-1.107v-1.423c0-.527-.079-.896-.184-1.08a.64.64 0 0 0-.527-.29h-.053a.58.58 0 0 0-.527.29c-.132.184-.184.553-.184 1.08m18.498 8.406v.263c0 1.74-.448 2.978-1.29 3.768-.791.633-1.82.95-3.031.95-1.37 0-2.398-.343-3.11-1.029-.79-.737-1.185-1.87-1.185-3.425v-.79c0-1.529.395-2.688 1.186-3.426.711-.685 1.739-1.028 3.109-1.028 1.212 0 2.24.317 3.03.949.843.79 1.291 2.055 1.291 3.768m-5.059-.58V21.1c0 .553.053.922.184 1.107.106.184.29.263.528.263h.052c.211 0 .395-.079.527-.263.106-.185.185-.553.185-1.107v-1.423c0-.527-.08-.896-.185-1.08a.64.64 0 0 0-.527-.29h-.053a.58.58 0 0 0-.526.29c-.132.184-.185.553-.185 1.08"/></svg>