<svg xmlns="http://www.w3.org/2000/svg" fill="none" viewBox="0 0 100 34"><path fill="#fff" d="M3.598 5.63c-.173.015-.246.102-.246.246v4.798c0 .202.073.317.232.317.115.015.332.015.65.015h.072c.564 0 .983-.13 1.272-.42.36-.36.549-1.025.549-2.008v-.592c0-.983-.174-1.633-.491-1.98-.26-.26-.709-.404-1.344-.404h-.073c-.202 0-.419.014-.621.028M3.771 13h-.303c-.997 0-1.662-.014-1.994-.058-.376-.029-.55-.217-.55-.563v-7.89q0-.412.13-.564c.088-.1.261-.173.521-.202.665-.058 1.43-.101 2.269-.101h.202c1.647 0 2.832.347 3.54 1.011.665.665 1.012 1.749 1.012 3.223v.838c0 1.517-.347 2.6-1.026 3.251-.737.708-2.009 1.055-3.8 1.055m10.343-.592h-.03c-.317.49-.953.722-1.892.722h-.217c-.737 0-1.315-.188-1.72-.564-.419-.375-.62-.939-.62-1.661v-.16c0-.78.216-1.343.664-1.66.448-.319 1.17-.478 2.182-.478h.1c.377 0 .723.03 1.012.058v-.303c0-.304-.086-.52-.245-.636-.174-.101-.463-.16-.867-.16-.492 0-1.04.088-1.676.246-.174.044-.304.044-.362 0-.072-.043-.115-.13-.13-.274l-.115-.766c-.03-.13-.03-.231-.03-.289 0-.173.116-.303.348-.376a9.3 9.3 0 0 1 2.47-.318c1.113 0 1.908.246 2.37.708.361.376.55.983.55 1.807v4.291c0 .145-.044.26-.116.318s-.202.087-.376.087h-.68c-.172 0-.288-.014-.36-.058-.073-.043-.13-.13-.174-.274zm-.52-1.85v-.405a4 4 0 0 0-.694-.043h-.16q-.52 0-.736.13c-.145.087-.202.26-.202.52v.058c0 .26.057.434.202.52.13.101.332.145.607.145h.1c.29 0 .507-.072.68-.217.13-.116.202-.361.202-.708m3.421 5.014h-.838c-.144 0-.26-.029-.318-.101-.057-.058-.086-.188-.086-.361v-1.012c0-.144.029-.26.086-.318.058-.057.174-.1.318-.1h.361c.26 0 .463-.059.593-.203.116-.116.173-.42.173-.896V6.339c0-.145.03-.246.102-.318.072-.058.202-.101.39-.101h1.329c.173 0 .303.043.376.1a.43.43 0 0 1 .115.319v6.4c0 1.041-.187 1.764-.563 2.183q-.585.65-2.038.65M18.547 5.37h-.173c-.78 0-1.17-.39-1.17-1.199V4.1c0-.795.39-1.2 1.17-1.2h.173c.78 0 1.17.405 1.17 1.2v.072c0 .81-.39 1.2-1.17 1.2M2.832 25.896v1.127c0 .564.087.925.26 1.099.13.144.333.202.607.202h.058c.26 0 .462-.058.607-.203.173-.173.26-.534.26-1.098v-1.127c0-.549-.087-.925-.26-1.098-.145-.13-.347-.202-.607-.202h-.058c-.274 0-.477.072-.607.202-.173.173-.26.55-.26 1.098m4.118.087v.94c0 .722-.072 1.27-.216 1.675a2.07 2.07 0 0 1-.694.969c-.477.375-1.214.563-2.225.563H3.64c-1.011 0-1.762-.188-2.225-.563a2.07 2.07 0 0 1-.693-.969c-.145-.404-.217-.953-.217-1.676v-.925c0-.708.072-1.257.217-1.661.144-.405.375-.723.693-.983.463-.376 1.214-.564 2.225-.564h.174c1.011 0 1.748.188 2.225.564.318.26.55.578.694.968.144.405.216.954.216 1.662M8 25.246v-.188c0-.708.188-1.243.563-1.618.434-.434 1.17-.65 2.197-.65h.144c.81 0 1.518.086 2.11.26q.174.064.217.13a.4.4 0 0 1 .029.245l-.16 1.185c-.028.188-.158.246-.39.188-.577-.13-1.098-.202-1.531-.202h-.015c-.317 0-.549.029-.664.086-.13.058-.188.16-.188.304v.043c0 .145.043.246.159.304.115.057.332.13.665.188l.679.144c.621.145 1.069.361 1.33.65.26.29.39.737.39 1.33v.216c0 1.518-.954 2.27-2.833 2.27h-.145c-.953 0-1.748-.131-2.413-.391-.13-.043-.216-.101-.245-.173-.03-.058-.03-.174 0-.333l.202-.954c.043-.274.202-.36.491-.274.665.231 1.243.332 1.734.332h.044c.318 0 .534-.029.664-.1.116-.059.188-.174.188-.333v-.044a.31.31 0 0 0-.159-.274q-.173-.087-.693-.217l-.636-.144q-.954-.218-1.344-.65c-.26-.29-.39-.723-.39-1.33m9.09-.491h-2.297c-.144 0-.245-.015-.303-.073s-.072-.173-.072-.346v-.997c0-.174.014-.275.072-.333q.086-.087.303-.087h4.884c.145 0 .246.03.318.087.058.058.101.174.101.332v.275c0 .376-.115.723-.318 1.026l-2.485 3.526h2.471c.145 0 .231.029.289.087s.087.159.087.332v.997q0 .26-.087.347c-.058.057-.145.072-.289.072h-4.97c-.304 0-.449-.13-.449-.42v-.331c0-.376.101-.708.318-1.026zm7.347 3.511h.116c.39 0 .809-.058 1.257-.188.145-.029.231-.043.274-.043.145 0 .232.087.26.245l.13.737c.03.203.058.333.058.39 0 .174-.13.304-.375.39-.636.232-1.33.333-2.081.333h-.173c-1.04 0-1.807-.231-2.283-.723q-.738-.736-.738-2.47v-.838c0-.68.058-1.214.174-1.59q.174-.564.563-.954c.506-.506 1.301-.766 2.385-.766h.144c.867 0 1.619.16 2.226.477.173.101.274.217.274.362 0 .086-.043.23-.116.433l-.274.694q-.109.26-.303.26a.6.6 0 0 1-.26-.073c-.463-.187-.896-.288-1.287-.288h-.058c-.375 0-.65.1-.823.274-.217.217-.318.665-.318 1.33v.49c0 .593.087.998.289 1.214.188.203.506.304.94.304m5.594-3.511h-2.298c-.144 0-.245-.015-.303-.073s-.072-.173-.072-.346v-.997c0-.174.014-.275.072-.333q.087-.087.303-.087h4.884c.145 0 .246.03.318.087.058.058.101.174.101.332v.275c0 .376-.115.723-.318 1.026l-2.485 3.526h2.471c.145 0 .231.029.29.087.057.057.086.159.086.332v.997q0 .26-.087.347c-.058.057-.144.072-.289.072h-4.97c-.304 0-.449-.13-.449-.42v-.331c0-.376.102-.708.318-1.026zm7.462 3.511h.159a6.3 6.3 0 0 0 1.532-.188c.144-.029.23-.043.274-.043.145 0 .231.087.26.245l.116.723c.029.202.058.332.058.39 0 .174-.13.303-.376.39-.376.145-.68.376-.925.694-.246.318-.361.636-.361.925v.043c0 .275.13.405.39.405h.072c.16 0 .361-.03.593-.116.072-.014.13-.029.173-.029.072 0 .13.072.174.188l.072.303c.043.203.072.304.072.333 0 .086-.072.159-.202.216a3.2 3.2 0 0 1-1.17.217h-.088c-.505 0-.88-.1-1.141-.318-.26-.216-.39-.52-.39-.924v-.044c0-.26.087-.549.274-.838a2.4 2.4 0 0 1 .752-.722c-.116.014-.275.014-.477.014h-.275q-1.777 0-2.514-.737a2.07 2.07 0 0 1-.578-.983c-.101-.375-.144-.881-.144-1.502v-.81c0-1.257.289-2.138.867-2.658.49-.434 1.242-.65 2.268-.65h.203c1.011 0 1.748.245 2.182.722.462.52.693 1.373.693 2.587v.75c0 .275-.144.406-.419.406h-3.468v.115c0 .347.087.578.289.708.188.13.535.188 1.055.188m-1.344-2.514h1.59c.115 0 .173-.058.173-.188v-.231c0-.29-.058-.506-.145-.665-.115-.174-.346-.26-.664-.26h-.13c-.29 0-.492.072-.607.202q-.217.261-.217.78zm9.075 1.69v-1.835c0-.361-.058-.621-.173-.766-.13-.144-.362-.23-.68-.23h-.144c-.318 0-.535.086-.665.245-.144.159-.202.607-.202 1.358v.636c0 .694.072 1.127.217 1.271.115.145.332.203.664.203h.16c.274 0 .476-.058.62-.188.13-.13.203-.361.203-.694m-.029-4.393h.029v-2.413c0-.144.029-.245.101-.317.072-.058.202-.102.39-.102h1.344c.174 0 .304.044.376.102a.5.5 0 0 1 .101.317v6.575c0 1.012-.188 1.705-.564 2.11a2.25 2.25 0 0 1-.997.621c-.404.13-.939.188-1.618.188h-.246c-1.069 0-1.835-.217-2.326-.65-.506-.434-.751-1.243-.751-2.442v-1.156c0-1.156.23-1.966.722-2.428.462-.433 1.098-.665 1.922-.665h.173q.824 0 1.344.26m7.533-.26h.115c.838 0 1.46.203 1.836.593.346.376.534 1.011.534 1.907v4.292c0 .144-.043.26-.115.318-.073.072-.203.101-.376.101h-1.33c-.187 0-.317-.029-.39-.101-.072-.058-.1-.174-.1-.318v-4.09c0-.317-.059-.549-.16-.664-.115-.116-.332-.188-.636-.188h-.086c-.318 0-.52.072-.636.188-.116.115-.159.347-.159.665v4.089c0 .144-.043.26-.116.318-.072.072-.202.101-.375.101h-1.33c-.187 0-.318-.029-.39-.101-.072-.058-.101-.174-.101-.318v-6.257c0-.144.029-.246.101-.303.072-.058.203-.102.39-.102h.68c.173 0 .288.03.36.073q.109.065.174.26l.087.274h.043c.463-.49 1.113-.737 1.98-.737m5.957 3.107v1.127c0 .564.087.925.26 1.099.13.144.332.202.607.202h.058c.26 0 .462-.058.607-.203.173-.173.26-.534.26-1.098v-1.127c0-.549-.087-.925-.26-1.098-.145-.13-.347-.202-.607-.202h-.058c-.275 0-.477.072-.607.202-.173.173-.26.55-.26 1.098m4.118.087v.94c0 .722-.072 1.27-.217 1.675a2.07 2.07 0 0 1-.693.969c-.477.375-1.214.563-2.226.563h-.173c-1.011 0-1.763-.188-2.225-.563a2.07 2.07 0 0 1-.694-.969c-.144-.404-.217-.953-.217-1.676v-.925c0-.708.073-1.257.217-1.661s.376-.723.694-.983c.462-.376 1.214-.564 2.225-.564h.173c1.012 0 1.749.188 2.226.564.318.26.549.578.693.968.145.405.217.954.217 1.662m1.05-.737v-.188c0-.708.187-1.243.563-1.618.434-.434 1.17-.65 2.197-.65h.144c.81 0 1.517.086 2.11.26q.173.064.216.13c.03.057.044.13.03.245l-.16 1.185c-.029.188-.159.246-.39.188-.578-.13-1.098-.202-1.532-.202h-.014c-.318 0-.549.029-.665.086-.13.058-.187.16-.187.304v.043c0 .145.043.246.158.304.116.057.333.13.665.188l.68.144c.62.145 1.069.361 1.329.65s.39.737.39 1.33v.216c0 1.518-.954 2.27-2.832 2.27h-.145c-.953 0-1.748-.131-2.413-.391-.13-.043-.217-.101-.246-.173-.029-.058-.029-.174 0-.333l.203-.954c.043-.274.202-.36.491-.274.665.231 1.243.332 1.734.332h.043c.318 0 .535-.029.665-.1.116-.059.188-.174.188-.333v-.044a.31.31 0 0 0-.16-.274q-.173-.087-.693-.217l-.635-.144q-.954-.218-1.344-.65c-.26-.29-.39-.723-.39-1.33m1.343-4.234 2.269-1.936a.4.4 0 0 1 .275-.13c.1 0 .202.072.289.188l.693.895a.42.42 0 0 1 .087.246c0 .116-.087.231-.231.347l-2.283 1.56a.54.54 0 0 1-.29.102c-.115 0-.23-.058-.346-.203l-.434-.505c-.115-.13-.159-.246-.159-.333 0-.086.044-.173.13-.23m8.716 7.254h.115c.39 0 .81-.058 1.257-.188.145-.029.231-.043.275-.043.144 0 .231.087.26.245l.13.737c.029.203.058.333.058.39 0 .174-.13.304-.376.39-.636.232-1.33.333-2.08.333h-.174c-1.04 0-1.806-.231-2.283-.723q-.737-.736-.737-2.47v-.838c0-.68.058-1.214.173-1.59q.174-.564.564-.954c.506-.506 1.3-.766 2.384-.766h.145c.867 0 1.618.16 2.225.477.173.101.274.217.274.362 0 .086-.043.23-.115.433l-.275.694q-.108.26-.303.26a.6.6 0 0 1-.26-.073c-.463-.187-.896-.288-1.286-.288h-.058c-.376 0-.65.1-.824.274-.217.217-.318.665-.318 1.33v.49c0 .593.087.998.29 1.214.187.203.505.304.939.304m5.579-4.927v6.242c0 .144-.044.26-.116.318-.072.072-.202.101-.376.101H77.67c-.188 0-.318-.029-.39-.101-.072-.058-.101-.174-.101-.318v-6.242c0-.145.029-.246.1-.318.073-.058.203-.102.391-.102H79c.173 0 .303.044.375.102a.43.43 0 0 1 .116.317m-1.07-.969h-.173c-.78 0-1.17-.39-1.17-1.199v-.072c0-.795.39-1.2 1.17-1.2h.173c.78 0 1.17.405 1.17 1.2v.072c0 .81-.39 1.2-1.17 1.2m4.662 3.526v1.127c0 .564.087.925.26 1.099.13.144.333.202.607.202h.058c.26 0 .463-.058.607-.203.173-.173.26-.534.26-1.098v-1.127c0-.549-.087-.925-.26-1.098-.144-.13-.347-.202-.607-.202h-.058c-.274 0-.477.072-.607.202-.173.173-.26.55-.26 1.098m4.119.087v.94c0 .722-.073 1.27-.217 1.675a2.07 2.07 0 0 1-.694.969c-.477.375-1.214.563-2.225.563h-.174c-1.011 0-1.762-.188-2.225-.563a2.07 2.07 0 0 1-.693-.969c-.145-.404-.217-.953-.217-1.676v-.925c0-.708.072-1.257.217-1.661.144-.405.375-.723.693-.983.463-.376 1.214-.564 2.225-.564h.174c1.011 0 1.748.188 2.225.564.318.26.55.578.694.968.144.405.217.954.217 1.662m7.48-.491v4.089c0 .144-.044.26-.116.318-.073.072-.203.101-.376.101h-1.33c-.187 0-.317-.029-.39-.101-.072-.058-.1-.174-.1-.318v-4.09c0-.317-.059-.549-.16-.664-.115-.116-.332-.188-.635-.188h-.03c-.317 0-.52.072-.635.188-.116.115-.16.347-.16.665v4.089c0 .144-.043.26-.115.318-.072.072-.202.101-.375.101h-1.33c-.188 0-.318-.029-.39-.101-.072-.058-.101-.174-.101-.318v-6.257c0-.144.029-.246.101-.303.072-.058.202-.102.39-.102h.68c.173 0 .288.03.36.073q.109.065.174.26l.087.274h.043c.462-.49 1.113-.737 1.98-.737h.057c.824 0 1.46.232 1.908.665.462-.433 1.127-.665 1.965-.665h.058c.838 0 1.46.203 1.835.593.347.376.535 1.011.535 1.907v4.292c0 .144-.044.26-.116.318-.072.072-.202.101-.376.101h-1.329c-.188 0-.318-.029-.39-.101-.072-.058-.101-.174-.101-.318v-4.09c0-.317-.058-.549-.16-.664-.115-.116-.332-.188-.635-.188h-.029c-.318 0-.52.072-.636.188-.115.115-.159.347-.159.665"/></svg>