<svg xmlns="http://www.w3.org/2000/svg" fill="none" viewBox="0 0 104 156"><path fill="#000" d="M1.397 6.293v.297c0 1.21.165 2.002.495 2.387.286.341.726.506 1.309.506.638 0 1.089-.187 1.375-.572.286-.396.429-1.166.429-2.321v-.297c0-.572-.033-1.045-.088-1.419s-.165-.671-.341-.913C4.29 3.587 3.839 3.4 3.201 3.4q-.94 0-1.353.561c-.308.396-.451 1.177-.451 2.332m4.411-.132v.572c0 1.276-.231 2.156-.671 2.662-.418.473-1.056.704-1.936.704-.825 0-1.441-.209-1.859-.627C.836 8.966.594 8.053.594 6.733v-.572c0-1.276.231-2.178.693-2.695.407-.451 1.045-.682 1.914-.682.858 0 1.496.231 1.914.682.462.517.693 1.419.693 2.695m3.564 3.938c-.704 0-1.21-.187-1.507-.583h-.022v2.31c0 .088-.044.121-.11.121h-.495c-.077 0-.11-.033-.11-.121V4.731c0-.077.033-.121.11-.121h.33c.077 0 .121.044.132.121l.066.44h.022c.308-.44.847-.66 1.595-.66.715 0 1.232.198 1.54.594s.473 1.012.473 1.87v.572q0 1.27-.462 1.914c-.308.429-.825.638-1.562.638m-.088-4.972c-.968 0-1.44.462-1.44 1.386v1.551c0 .473.12.825.384 1.067.253.242.616.352 1.078.352.484 0 .847-.132 1.067-.407q.297-.363.297-1.584v-.418c0-.77-.12-1.298-.34-1.573-.22-.242-.562-.374-1.046-.374M13.18 10h-.352c-.121 0-.176-.044-.176-.143V4.731c0-.077.044-.121.132-.121h.319c.066 0 .11.044.132.121l.044.572h.022c.242-.462.67-.693 1.276-.693h.286c.088 0 .143.044.143.132v.374c0 .088-.055.121-.143.121h-.297c-.484 0-.825.154-1.001.451-.132.22-.198.506-.198.869v3.3c0 .099-.066.143-.187.143m3.231-2.805v.209c0 .55.034.946.11 1.21.166.583.595.869 1.277.869s1.11-.286 1.287-.869c.066-.264.11-.66.11-1.21v-.209c0-.539-.044-.946-.11-1.21q-.248-.858-1.287-.858c-.694 0-1.123.286-1.277.858-.076.264-.11.671-.11 1.21m3.51-.11v.44c0 .99-.199 1.683-.573 2.057-.352.352-.869.517-1.55.517-.683 0-1.189-.165-1.54-.517-.386-.374-.573-1.067-.573-2.057v-.44c0-.99.188-1.683.572-2.068.341-.33.858-.506 1.54-.506.683 0 1.2.176 1.552.506.373.385.572 1.078.572 2.068m4.505 2.266.077.253q.033.116 0 .165c-.022.033-.077.066-.187.11-.363.154-.78.22-1.254.22-.682 0-1.188-.154-1.518-.473-.429-.385-.638-1.111-.638-2.178v-.363c0-.968.22-1.661.671-2.079q.528-.495 1.485-.495c.286 0 .583.055.87.143.285.099.527.209.703.341.055.044.055.11.011.176l-.187.308c-.044.066-.099.077-.187.022-.418-.242-.814-.374-1.21-.374-.429 0-.759.121-.99.341-.297.297-.44.869-.44 1.716v.187c0 .836.11 1.408.352 1.694.22.286.583.418 1.111.418.352 0 .704-.066 1.067-.209.143-.055.231-.033.264.077m4.984-2.959v.902c0 .154-.033.264-.088.33-.066.066-.165.088-.319.088h-2.838c.022.66.132 1.122.352 1.386.21.264.572.385 1.09.385.428 0 .835-.066 1.21-.22.142-.055.23-.033.263.077l.077.253a.2.2 0 0 1-.01.165q-.034.066-.232.132c-.374.143-.814.209-1.309.209-.803 0-1.364-.198-1.683-.605-.33-.396-.484-1.056-.484-1.969v-.44c0-.88.154-1.529.473-1.947.308-.418.847-.627 1.595-.627.627 0 1.1.154 1.42.451.318.319.483.792.483 1.43m-1.892-1.265c-.484 0-.836.143-1.034.418-.209.286-.319.792-.319 1.54h2.365c.055 0 .1 0 .121-.022.022-.022.033-.066.033-.143v-.418c0-.473-.088-.814-.253-1.023-.198-.231-.495-.352-.913-.352m7.284 4.686c0 .132-.078.187-.21.187h-.308q-.13 0-.165-.033c-.022-.022-.032-.066-.032-.154V6.601c0-.649-.176-1.078-.506-1.287-.22-.132-.517-.209-.892-.209-.517 0-.88.154-1.078.462q-.197.297-.197.858v3.41q0 .165-.198.165h-.341c-.121 0-.176-.055-.176-.165V4.731c0-.077.032-.121.11-.121h.33c.076 0 .12.044.131.121l.056.44h.021c.088-.154.242-.286.451-.418.275-.154.616-.242 1.034-.242.847 0 1.42.253 1.705.737q.264.462.264 1.419zm3.76.187h-.517c-.572 0-.99-.143-1.232-.44-.242-.286-.363-.704-.363-1.265V5.237h-.671c-.077 0-.11-.033-.11-.121v-.22c0-.088.033-.132.11-.143l.67-.143V3.367q0-.132.133-.132h.462c.077 0 .12.044.12.132V4.61h1.288c.066 0 .11.044.11.11v.407c0 .077-.044.11-.11.11h-1.287v2.97c0 .44.066.748.198.902.132.187.407.275.803.275h.396c.088 0 .132.044.132.121v.374c0 .088-.044.121-.132.121m1.643-2.805v.209c0 .55.033.946.11 1.21.165.583.594.869 1.276.869s1.111-.286 1.287-.869c.066-.264.11-.66.11-1.21v-.209c0-.539-.044-.946-.11-1.21q-.247-.858-1.287-.858c-.693 0-1.122.286-1.276.858-.077.264-.11.671-.11 1.21m3.51-.11v.44c0 .99-.199 1.683-.573 2.057-.352.352-.869.517-1.55.517-.683 0-1.189-.165-1.54-.517-.386-.374-.573-1.067-.573-2.057v-.44c0-.99.187-1.683.572-2.068.341-.33.858-.506 1.54-.506s1.2.176 1.551.506c.374.385.572 1.078.572 2.068m3.911-2.211h.495c.198 0 .33.11.374.308a59 59 0 0 0 1.001 4.257h.055a60 60 0 0 0 1.023-4.697c0-.066.022-.099.044-.11a.4.4 0 0 1 .154-.022h.341q.115 0 .165.033c.022.022.033.055.033.121q-.363 1.848-1.122 4.785c-.088.308-.242.451-.462.451h-.374c-.143 0-.253-.033-.319-.099-.077-.066-.132-.176-.176-.352a69 69 0 0 1-.946-4.015h-.077a80 80 0 0 1-.946 4.015.74.74 0 0 1-.176.352.48.48 0 0 1-.319.099h-.374c-.23 0-.385-.143-.462-.451q-.775-2.937-1.122-4.785c-.01-.066 0-.099.033-.121q.033-.033.165-.033h.341q.165 0 .198.132a51 51 0 0 0 1.023 4.697h.055a74 74 0 0 0 1.001-4.257c.044-.198.165-.308.374-.308m7.646 5.016-.022-.374h-.022c-.242.396-.638.583-1.166.583h-.55c-.528 0-.913-.132-1.177-.396s-.396-.605-.396-1.034v-.33q0-1.04.858-1.386c.242-.099.682-.154 1.32-.154h.33c.264 0 .517.011.737.033v-.627c0-.396-.11-.682-.319-.836-.22-.154-.55-.242-1.012-.242-.385 0-.759.055-1.133.165-.176.044-.264.022-.286-.088l-.055-.231c-.044-.132 0-.209.121-.253a5 5 0 0 1 1.408-.209c.704 0 1.21.132 1.518.385s.473.66.473 1.232V9.89c0 .077-.044.11-.121.11h-.363c-.099 0-.143-.033-.143-.11m-.088-1.54v-.913a6 6 0 0 0-.66-.033h-.616c-.462 0-.781.077-.968.22s-.275.385-.275.726v.231c0 .33.077.572.231.715.132.132.363.198.671.198h.451c.363 0 .649-.088.858-.286.198-.198.308-.484.308-.858m6.28 1.463c0 .132-.077.187-.21.187h-.307q-.132 0-.165-.033c-.022-.022-.033-.066-.033-.154V6.601c0-.649-.176-1.078-.506-1.287-.22-.132-.517-.209-.891-.209-.517 0-.88.154-1.078.462q-.198.297-.198.858v3.41q0 .165-.198.165h-.341c-.121 0-.176-.055-.176-.165V4.731c0-.077.033-.121.11-.121h.33c.077 0 .12.044.132.121l.055.44h.022c.088-.154.242-.286.45-.418.276-.154.617-.242 1.035-.242.847 0 1.419.253 1.705.737q.264.462.264 1.419zm2.319-5.082v5.181c0 .066-.033.088-.099.088h-.528c-.066 0-.088-.022-.088-.088V4.731c0-.077.044-.121.132-.121h.451c.088 0 .132.044.132.121m.154-1.573v.066c0 .352-.165.528-.484.528h-.044c-.341 0-.506-.176-.506-.528v-.066c0-.341.165-.517.506-.517h.044c.319 0 .484.176.484.517m5.209 3.234v.902c0 .154-.033.264-.088.33-.066.066-.165.088-.32.088H65.9c.022.66.132 1.122.352 1.386.209.264.572.385 1.089.385.429 0 .836-.066 1.21-.22.143-.055.23-.033.264.077l.077.253a.2.2 0 0 1-.011.165q-.034.066-.231.132c-.374.143-.814.209-1.31.209-.802 0-1.363-.198-1.682-.605-.33-.396-.484-1.056-.484-1.969v-.44c0-.88.154-1.529.473-1.947.308-.418.847-.627 1.595-.627.627 0 1.1.154 1.419.451.319.319.484.792.484 1.43m-1.892-1.265c-.484 0-.836.143-1.034.418-.21.286-.32.792-.32 1.54h2.366c.055 0 .099 0 .12-.022.023-.022.034-.066.034-.143v-.418c0-.473-.088-.814-.253-1.023-.198-.231-.495-.352-.913-.352M1.287 23H.935c-.121 0-.176-.044-.176-.143v-5.126c0-.077.044-.121.132-.121h.319c.066 0 .11.044.132.121l.044.572h.022c.242-.462.671-.693 1.276-.693h.286c.088 0 .143.044.143.132v.374c0 .088-.055.121-.143.121h-.297c-.484 0-.825.154-1.001.451-.132.22-.198.506-.198.869v3.3c0 .099-.066.143-.187.143m3.232-2.805v.209c0 .55.033.946.11 1.21.165.583.594.869 1.276.869s1.11-.286 1.287-.869c.066-.264.11-.66.11-1.21v-.209c0-.539-.044-.946-.11-1.21q-.248-.858-1.287-.858c-.693 0-1.122.286-1.276.858-.077.264-.11.671-.11 1.21m3.509-.11v.44c0 .99-.198 1.683-.572 2.057-.352.352-.87.517-1.551.517-.682 0-1.188-.165-1.54-.517-.385-.374-.572-1.067-.572-2.057v-.44c0-.99.187-1.683.572-2.068.34-.33.858-.506 1.54-.506s1.199.176 1.55.506c.375.385.573 1.078.573 2.068m4.506 2.266.077.253q.033.116 0 .165c-.022.033-.077.066-.187.11-.363.154-.781.22-1.254.22-.682 0-1.188-.154-1.518-.473-.43-.385-.638-1.111-.638-2.178v-.363c0-.968.22-1.661.67-2.079q.53-.495 1.486-.495c.286 0 .583.055.869.143.286.099.528.209.704.341.055.044.055.11.01.176l-.186.308c-.044.066-.1.077-.187.022-.418-.242-.814-.374-1.21-.374-.43 0-.76.121-.99.341-.297.297-.44.869-.44 1.716v.187c0 .836.11 1.408.352 1.694.22.286.583.418 1.11.418.353 0 .705-.066 1.068-.209.143-.055.23-.033.264.077m4.533.143v.396c0 .077-.044.11-.11.11h-3.432c-.077 0-.11-.033-.11-.11v-.187c0-.11.066-.264.198-.484l2.42-3.993h-2.431c-.077 0-.11-.033-.11-.11v-.396c0-.066.033-.11.11-.11h3.256c.066 0 .11.044.11.11v.154c0 .132-.1.352-.286.66l-2.365 3.85h2.64c.066 0 .11.044.11.11m5.187.319c0 .132-.077.187-.21.187h-.307q-.132 0-.165-.033c-.022-.022-.033-.066-.033-.154v-3.212c0-.649-.176-1.078-.506-1.287-.22-.132-.517-.209-.891-.209-.517 0-.88.154-1.078.462q-.198.297-.198.858v3.41q0 .165-.198.165h-.341c-.121 0-.176-.055-.176-.165v-5.104c0-.077.033-.121.11-.121h.33c.077 0 .12.044.132.121l.055.44h.022c.088-.154.242-.286.45-.418.276-.154.617-.242 1.035-.242.847 0 1.419.253 1.705.737q.264.462.264 1.419zm5.168-3.421v.902c0 .154-.033.264-.088.33-.066.066-.165.088-.319.088h-2.838c.022.66.132 1.122.352 1.386.21.264.572.385 1.09.385.428 0 .835-.066 1.21-.22.142-.055.23-.033.263.077l.077.253a.2.2 0 0 1-.01.165q-.034.066-.232.132c-.374.143-.814.209-1.309.209-.803 0-1.364-.198-1.683-.605-.33-.396-.484-1.056-.484-1.969v-.44c0-.88.154-1.529.473-1.947.308-.418.847-.627 1.595-.627.627 0 1.1.154 1.42.451.318.319.483.792.483 1.43m-1.892-1.265c-.484 0-.836.143-1.034.418-.209.286-.319.792-.319 1.54h2.365c.055 0 .1 0 .121-.022.022-.022.033-.066.033-.143v-.418c0-.473-.088-.814-.253-1.023-.198-.231-.495-.352-.913-.352m9.762-2.453v5.522c0 .572-.143 1.012-.407 1.331-.33.385-.88.572-1.661.572-.792 0-1.353-.176-1.683-.539-.341-.352-.506-1.012-.506-1.98v-.517c0-.869.165-1.507.517-1.925q.512-.627 1.617-.627.957 0 1.386.528h.022v-2.365c0-.077.044-.121.132-.121h.451c.088 0 .132.044.132.121m-.715 5.423V19.59c0-.462-.121-.814-.341-1.078-.22-.253-.55-.385-.99-.385-.495 0-.858.132-1.078.374-.275.308-.407.847-.407 1.617v.374q0 1.221.396 1.65c.198.231.55.341 1.056.341.55 0 .935-.132 1.133-.418.154-.209.231-.528.231-.968m2.927-5.423v5.885q0 .578.1.693c.054.088.186.121.395.121h.297c.088 0 .132.044.132.121v.374c0 .088-.044.132-.11.132H37.9c-.396 0-.682-.077-.847-.253-.176-.176-.264-.517-.264-1.012v-6.061c0-.077.044-.121.132-.121h.451c.088 0 .132.044.132.121m5.038 7.216-.022-.374h-.022c-.242.396-.638.583-1.166.583h-.55c-.528 0-.913-.132-1.177-.396s-.396-.605-.396-1.034v-.33q0-1.04.858-1.386c.242-.099.682-.154 1.32-.154h.33c.264 0 .517.011.737.033v-.627c0-.396-.11-.682-.32-.836-.22-.154-.55-.242-1.011-.242q-.575 0-1.133.165c-.176.044-.264.022-.286-.088l-.055-.231c-.044-.132 0-.209.12-.253a5 5 0 0 1 1.409-.209c.704 0 1.21.132 1.518.385s.473.66.473 1.232v3.762c0 .077-.044.11-.121.11h-.363c-.1 0-.143-.033-.143-.11m-.088-1.54v-.913a6 6 0 0 0-.66-.033h-.616c-.462 0-.781.077-.968.22s-.275.385-.275.726v.231c0 .33.077.572.23.715.133.132.364.198.672.198h.45c.364 0 .65-.088.859-.286.198-.198.308-.484.308-.858m5.458-5.676v4.136h.55c.11 0 .209-.055.286-.176l1.276-1.903a.24.24 0 0 1 .209-.121h.473c.121 0 .143.066.077.176l-1.562 2.266c-.044.066-.044.121 0 .176l1.617 2.651c.044.088.011.121-.077.121h-.572c-.066 0-.11-.022-.132-.077l-1.386-2.343c-.044-.077-.121-.121-.231-.121h-.528v2.453c0 .066-.033.088-.099.088h-.517c-.066 0-.099-.022-.099-.088v-7.238c0-.077.044-.121.132-.121h.451c.088 0 .132.044.132.121m4.291 4.521v.209c0 .55.033.946.11 1.21.165.583.594.869 1.276.869s1.111-.286 1.287-.869c.066-.264.11-.66.11-1.21v-.209c0-.539-.044-.946-.11-1.21q-.247-.858-1.287-.858c-.693 0-1.122.286-1.276.858-.077.264-.11.671-.11 1.21m3.51-.11v.44c0 .99-.199 1.683-.573 2.057-.352.352-.869.517-1.55.517-.683 0-1.189-.165-1.54-.517-.386-.374-.573-1.067-.573-2.057v-.44c0-.99.187-1.683.572-2.068.341-.33.858-.506 1.54-.506s1.2.176 1.551.506c.374.385.572 1.078.572 2.068m5.352 2.728c0 .132-.077.187-.209.187h-.308q-.132 0-.165-.033c-.022-.022-.033-.066-.033-.154v-3.212c0-.649-.176-1.078-.506-1.287-.22-.132-.517-.209-.89-.209q-.779 0-1.079.462-.198.297-.198.858v3.41q0 .165-.198.165h-.34c-.122 0-.177-.055-.177-.165v-5.104c0-.077.033-.121.11-.121h.33c.077 0 .121.044.132.121l.055.44h.022c.088-.154.242-.286.451-.418.275-.154.616-.242 1.034-.242.847 0 1.42.253 1.705.737q.264.462.264 1.419zm3.76.187h-.516c-.572 0-.99-.143-1.232-.44-.242-.286-.363-.704-.363-1.265v-3.058h-.671c-.077 0-.11-.033-.11-.121v-.22c0-.088.033-.132.11-.143l.67-.143v-1.243q0-.132.133-.132h.462c.077 0 .12.044.12.132v1.243h1.288c.066 0 .11.044.11.11v.407c0 .077-.044.11-.11.11h-1.287v2.97c0 .44.066.748.198.902.132.187.407.275.803.275h.396c.088 0 .132.044.132.121v.374c0 .088-.044.121-.132.121m4.196-.11-.022-.374h-.022c-.242.396-.638.583-1.166.583h-.55c-.528 0-.913-.132-1.177-.396s-.396-.605-.396-1.034v-.33q0-1.04.858-1.386c.242-.099.682-.154 1.32-.154h.33c.264 0 .517.011.737.033v-.627c0-.396-.11-.682-.319-.836-.22-.154-.55-.242-1.012-.242-.385 0-.759.055-1.133.165-.176.044-.264.022-.286-.088l-.055-.231c-.044-.132 0-.209.121-.253a5 5 0 0 1 1.408-.209c.704 0 1.21.132 1.518.385s.473.66.473 1.232v3.762c0 .077-.044.11-.121.11h-.363c-.099 0-.143-.033-.143-.11m-.088-1.54v-.913a6 6 0 0 0-.66-.033h-.616c-.462 0-.781.077-.968.22s-.275.385-.275.726v.231c0 .33.077.572.231.715.132.132.363.198.671.198h.451c.363 0 .649-.088.858-.286.198-.198.308-.484.308-.858M1.221 33.195v.209c0 .55.033.946.11 1.21.165.583.594.869 1.276.869s1.111-.286 1.287-.869c.066-.264.11-.66.11-1.21v-.209c0-.539-.044-.946-.11-1.21q-.247-.858-1.287-.858c-.693 0-1.122.286-1.276.858-.077.264-.11.671-.11 1.21m3.509-.11v.44c0 .99-.198 1.683-.572 2.057-.352.352-.869.517-1.551.517s-1.188-.165-1.54-.517c-.385-.374-.572-1.067-.572-2.057v-.44c0-.99.187-1.683.572-2.068.341-.33.858-.506 1.54-.506s1.199.176 1.551.506c.374.385.572 1.078.572 2.068m2.592 3.014c-.583 0-1.078-.088-1.496-.264-.11-.044-.154-.099-.132-.187l.088-.319c.022-.11.099-.154.209-.11a3.6 3.6 0 0 0 1.33.264c.44 0 .749-.066.936-.22.176-.143.275-.374.275-.704v-.066c0-.363-.1-.605-.297-.737-.121-.066-.374-.143-.77-.231l-.308-.055c-.374-.066-.66-.154-.858-.275-.374-.209-.561-.594-.561-1.144v-.11c0-.946.583-1.43 1.76-1.43.45 0 .858.055 1.232.154q.198.066.165.198l-.066.286c-.044.132-.121.187-.253.143a4 4 0 0 0-1.09-.165c-.417 0-.714.077-.868.22-.154.132-.22.33-.22.572v.077c0 .242.055.429.176.539q.198.215.858.33l.286.055c.616.132 1.012.308 1.199.528.176.242.275.572.275.968v.11c0 .44-.11.781-.308 1.023-.297.374-.814.55-1.562.55m6.329-.605v.396c0 .077-.044.11-.11.11h-3.432c-.077 0-.11-.033-.11-.11v-.187c0-.11.066-.264.198-.484l2.42-3.993h-2.431c-.077 0-.11-.033-.11-.11v-.396c0-.066.033-.11.11-.11h3.256c.066 0 .11.044.11.11v.154c0 .132-.1.352-.286.66l-2.365 3.85h2.64c.066 0 .11.044.11.11m4.34-.143.077.253q.033.115 0 .165c-.022.033-.077.066-.187.11-.363.154-.781.22-1.254.22-.682 0-1.188-.154-1.518-.473-.43-.385-.638-1.111-.638-2.178v-.363c0-.968.22-1.661.67-2.079q.53-.495 1.486-.495c.286 0 .583.055.869.143.286.099.528.209.704.341.055.044.055.11.01.176l-.186.308c-.044.066-.1.077-.187.022-.418-.242-.814-.374-1.21-.374-.43 0-.76.121-.99.341-.297.297-.44.869-.44 1.716v.187c0 .836.11 1.408.352 1.694.22.286.583.418 1.11.418.353 0 .705-.066 1.068-.209.143-.055.23-.033.264.077m4.533.143v.396c0 .077-.044.11-.11.11h-3.432c-.077 0-.11-.033-.11-.11v-.187c0-.11.066-.264.198-.484l2.42-3.993h-2.431c-.077 0-.11-.033-.11-.11v-.396c0-.066.033-.11.11-.11h3.256c.066 0 .11.044.11.11v.154c0 .132-.1.352-.286.66l-2.365 3.85h2.64c.066 0 .11.044.11.11m4.79-3.102v.869c0 .165-.032.286-.098.352q-.099.099-.33.099H24.07c.022.66.132 1.122.352 1.386q.314.396 1.089.396c.429 0 .836-.066 1.21-.22.143-.055.23-.033.264.077l.066.209c0 .022.01.033.01.044v.033c0 .011-.01.022-.01.033l-.022.022c0 .011-.011.022-.022.033a.1.1 0 0 1-.022.033l-.033.033c-.022.011-.033.022-.044.022l-.044.044c-.022.022-.033.033-.044.033-.352.286-.594.517-.726.704a1.05 1.05 0 0 0-.187.594c0 .264.154.396.473.396.176 0 .352-.033.528-.121.077-.033.132-.011.154.055l.066.308c.022.077-.011.132-.088.165a2.1 2.1 0 0 1-.814.165q-1.056 0-1.056-.825c0-.495.286-.924.869-1.276a3.4 3.4 0 0 1-.528.044c-.803 0-1.364-.198-1.683-.605-.33-.396-.484-1.056-.484-1.969v-.44c0-.88.154-1.529.473-1.947.308-.418.847-.627 1.595-.627.627 0 1.1.154 1.419.451.319.319.484.792.484 1.43m-1.891-1.276c-.484 0-.836.143-1.034.429-.21.286-.32.792-.32 1.54h2.366c.055 0 .099 0 .12-.022.023-.022.034-.066.034-.143v-.418c0-.484-.088-.825-.253-1.034-.198-.231-.495-.352-.913-.352m7.173-2.442v5.522c0 .572-.143 1.012-.407 1.331-.33.385-.88.572-1.661.572-.792 0-1.353-.176-1.683-.539-.341-.352-.506-1.012-.506-1.98v-.517c0-.869.165-1.507.517-1.925q.51-.627 1.617-.627.957 0 1.386.528h.022v-2.365c0-.077.044-.121.132-.121h.45c.089 0 .133.044.133.121m-.715 5.423V32.59c0-.462-.121-.814-.341-1.078-.22-.253-.55-.385-.99-.385-.495 0-.858.132-1.078.374-.275.308-.407.847-.407 1.617v.374q0 1.221.396 1.65c.198.231.55.341 1.056.341.55 0 .935-.132 1.133-.418.154-.209.23-.528.23-.968m6.282 1.716c0 .132-.077.187-.21.187h-.307q-.132 0-.165-.033c-.022-.022-.033-.066-.033-.154v-3.212c0-.649-.176-1.078-.506-1.287-.22-.132-.517-.209-.891-.209-.517 0-.88.154-1.078.462q-.198.297-.198.858v3.41q0 .165-.198.165h-.341c-.121 0-.176-.055-.176-.165v-5.104c0-.077.033-.121.11-.121h.33c.077 0 .12.044.132.121l.055.44h.022c.088-.154.242-.286.45-.418.276-.154.617-.242 1.035-.242.847 0 1.419.253 1.705.737q.264.462.264 1.419zm1.923-2.618v.209c0 .55.033.946.11 1.21.165.583.594.869 1.276.869s1.111-.286 1.287-.869c.066-.264.11-.66.11-1.21v-.209c0-.539-.044-.946-.11-1.21q-.247-.858-1.287-.858c-.693 0-1.122.286-1.276.858-.077.264-.11.671-.11 1.21m3.51-.11v.44c0 .99-.199 1.683-.573 2.057-.352.352-.869.517-1.55.517-.683 0-1.189-.165-1.54-.517-.386-.374-.573-1.067-.573-2.057v-.44c0-.99.187-1.683.572-2.068.341-.33.858-.506 1.54-.506s1.2.176 1.551.506c.374.385.572 1.078.572 2.068m2.59 3.014c-.582 0-1.077-.088-1.495-.264-.11-.044-.154-.099-.132-.187l.088-.319c.022-.11.099-.154.209-.11a3.6 3.6 0 0 0 1.33.264c.44 0 .749-.066.936-.22.176-.143.275-.374.275-.704v-.066c0-.363-.1-.605-.297-.737-.121-.066-.374-.143-.77-.231l-.308-.055c-.374-.066-.66-.154-.858-.275-.374-.209-.561-.594-.561-1.144v-.11c0-.946.583-1.43 1.76-1.43.45 0 .858.055 1.232.154q.198.066.165.198l-.066.286c-.044.132-.121.187-.253.143a4 4 0 0 0-1.09-.165c-.417 0-.714.077-.868.22-.154.132-.22.33-.22.572v.077c0 .242.055.429.176.539q.198.215.858.33l.286.055c.616.132 1.012.308 1.199.528.176.242.275.572.275.968v.11c0 .44-.11.781-.308 1.023-.297.374-.814.55-1.562.55m-.747-6.963 1.87-.913c.143-.066.242-.033.297.077l.187.385c.044.11-.011.198-.143.264l-1.881.715c-.143.055-.231.033-.275-.066l-.11-.242c-.044-.099-.033-.176.055-.22m7.077 6.215.077.253q.033.115 0 .165c-.022.033-.077.066-.187.11-.363.154-.781.22-1.254.22-.682 0-1.188-.154-1.518-.473-.429-.385-.638-1.111-.638-2.178v-.363c0-.968.22-1.661.671-2.079q.528-.495 1.485-.495c.286 0 .583.055.869.143.286.099.528.209.704.341.055.044.055.11.011.176l-.187.308c-.044.066-.099.077-.187.022-.418-.242-.814-.374-1.21-.374-.429 0-.759.121-.99.341-.297.297-.44.869-.44 1.716v.187c0 .836.11 1.408.352 1.694.22.286.583.418 1.111.418.352 0 .704-.066 1.067-.209.143-.055.231-.033.264.077m2.135-4.62v5.181c0 .066-.033.088-.099.088h-.528c-.066 0-.088-.022-.088-.088v-5.181c0-.077.044-.121.132-.121h.451c.088 0 .132.044.132.121m.154-1.573v.066c0 .352-.165.528-.484.528h-.044c-.34 0-.506-.176-.506-.528v-.066c0-.341.165-.517.506-.517h.044c.32 0 .484.176.484.517m1.964 4.037v.209c0 .55.033.946.11 1.21.165.583.594.869 1.276.869s1.11-.286 1.287-.869c.066-.264.11-.66.11-1.21v-.209c0-.539-.044-.946-.11-1.21q-.248-.858-1.287-.858c-.693 0-1.122.286-1.276.858-.077.264-.11.671-.11 1.21m3.509-.11v.44c0 .99-.198 1.683-.572 2.057-.352.352-.87.517-1.551.517-.682 0-1.188-.165-1.54-.517-.385-.374-.572-1.067-.572-2.057v-.44c0-.99.187-1.683.572-2.068.34-.33.858-.506 1.54-.506s1.199.176 1.55.506c.375.385.573 1.078.573 2.068m3.912-2.211h.495c.198 0 .33.11.374.308a59 59 0 0 0 1 4.257h.056a60 60 0 0 0 1.023-4.697c0-.066.022-.099.044-.11a.4.4 0 0 1 .154-.022h.34q.117 0 .166.033c.022.022.033.055.033.121q-.363 1.848-1.122 4.785c-.088.308-.242.451-.462.451h-.374c-.143 0-.253-.033-.32-.099-.076-.066-.131-.176-.175-.352a69 69 0 0 1-.946-4.015h-.077a80 80 0 0 1-.946 4.015.74.74 0 0 1-.176.352.48.48 0 0 1-.32.099h-.373c-.231 0-.385-.143-.462-.451q-.776-2.937-1.122-4.785c-.011-.066 0-.099.033-.121q.033-.033.165-.033h.34q.166 0 .199.132a51 51 0 0 0 1.023 4.697h.055a74 74 0 0 0 1-4.257c.045-.198.166-.308.375-.308m8.382 1.518v.902c0 .154-.034.264-.088.33-.066.066-.165.088-.32.088h-2.838c.023.66.133 1.122.353 1.386.209.264.572.385 1.088.385.43 0 .837-.066 1.21-.22.144-.055.231-.033.264.077l.078.253a.2.2 0 0 1-.011.165q-.034.066-.232.132c-.373.143-.813.209-1.308.209-.803 0-1.365-.198-1.683-.605-.33-.396-.484-1.056-.484-1.969v-.44c0-.88.153-1.529.472-1.947.309-.418.848-.627 1.596-.627.627 0 1.1.154 1.419.451.319.319.484.792.484 1.43m-1.892-1.265c-.485 0-.837.143-1.035.418-.209.286-.319.792-.319 1.54h2.366c.055 0 .099 0 .12-.022.023-.022.034-.066.034-.143v-.418c0-.473-.089-.814-.254-1.023-.198-.231-.495-.352-.912-.352m6.502 3.333a2 2 0 0 1-.286.22c.627.407.946.924.946 1.54v.121c0 .594-.198 1.023-.594 1.298-.396.286-.946.418-1.628.418a4.4 4.4 0 0 1-1.991-.451c-.077-.033-.11-.088-.088-.176l.12-.33q.034-.132.199-.066a3.8 3.8 0 0 0 1.683.407c.528 0 .924-.077 1.166-.242q.363-.248.363-.891v-.088c0-.572-.275-1.012-.814-1.298a2.7 2.7 0 0 1-.65.055c-.626 0-1.11-.132-1.462-.407-.385-.33-.572-.858-.572-1.606v-.451c0-.759.187-1.298.572-1.617.308-.253.803-.385 1.463-.385.154 0 .275.011.352.011.176-.528.594-.803 1.232-.803h.264c.099 0 .154.055.154.154v.429c0 .011-.011.022-.011.033-.011.011-.022.022-.044.022-.022.011-.055.011-.077.011h-.33c-.286 0-.462.099-.55.275.198.077.363.165.484.253.374.319.572.858.572 1.617v.451c0 .649-.165 1.144-.473 1.496m-2.86-1.87v.286c0 .352.033.649.12.869.155.451.55.671 1.167.671.627 0 1.023-.22 1.188-.671.066-.209.11-.506.11-.88v-.275c0-.374-.044-.66-.11-.858a.9.9 0 0 0-.418-.506c-.187-.099-.44-.154-.77-.154-.32 0-.572.055-.76.154-.186.099-.318.264-.406.506-.088.22-.121.506-.121.858m5.21.605v.209c0 .55.032.946.11 1.21.165.583.594.869 1.276.869.681 0 1.11-.286 1.286-.869.067-.264.11-.66.11-1.21v-.209c0-.539-.043-.946-.11-1.21q-.246-.858-1.286-.858c-.694 0-1.123.286-1.277.858-.077.264-.11.671-.11 1.21m3.508-.11v.44c0 .99-.198 1.683-.572 2.057-.352.352-.868.517-1.55.517-.683 0-1.189-.165-1.54-.517-.385-.374-.573-1.067-.573-2.057v-.44c0-.99.188-1.683.572-2.068.342-.33.859-.506 1.54-.506.683 0 1.2.176 1.552.506.374.385.572 1.078.572 2.068M3.421 43.874h.495c.198 0 .33.11.374.308a59 59 0 0 0 1.001 4.257h.055a60 60 0 0 0 1.023-4.697c0-.066.022-.099.044-.11a.4.4 0 0 1 .154-.022h.341q.115 0 .165.033c.022.022.033.055.033.121q-.363 1.848-1.122 4.785c-.088.308-.242.451-.462.451h-.374c-.143 0-.253-.033-.319-.099-.077-.066-.132-.176-.176-.352a69 69 0 0 1-.946-4.015H3.63a80 80 0 0 1-.946 4.015.74.74 0 0 1-.176.352.48.48 0 0 1-.319.099h-.374c-.231 0-.385-.143-.462-.451Q.578 45.612.231 43.764c-.011-.066 0-.099.033-.121q.033-.033.165-.033H.77q.165 0 .198.132a51 51 0 0 0 1.023 4.697h.055a74 74 0 0 0 1.001-4.257c.044-.198.165-.308.374-.308m8.045 2.398v2.541c0 .132-.066.187-.176.187h-.407c-.121 0-.176-.055-.176-.187v-6.666c0-.143.066-.231.198-.253.45-.066.957-.11 1.529-.11q1.419 0 2.013.495c.396.33.605.88.605 1.65v.143c0 1.474-.858 2.211-2.563 2.211-.44 0-.781 0-1.023-.011m.22-3.839c-.154.022-.22.11-.22.264v2.948c.176.022.484.022.935.022q.959 0 1.408-.363c.286-.242.44-.66.44-1.254v-.143c0-.528-.143-.913-.407-1.155-.275-.231-.726-.352-1.364-.352q-.495 0-.792.033m5.312-.363v5.94c0 .154.022.253.088.297.066.055.176.077.341.077h1.793c.11 0 .165.055.165.143v.33c0 .099-.055.143-.165.143h-1.98c-.352 0-.605-.066-.759-.209-.165-.143-.242-.363-.242-.671v-6.05c0-.121.055-.187.176-.187h.396c.121 0 .187.066.187.187m7.061 6.589-2.882-6.039H21.1v6.193c0 .132-.055.187-.154.187h-.396c-.11 0-.154-.055-.154-.187v-6.6c0-.132.022-.22.077-.264.044-.044.143-.066.286-.066h.54c.131 0 .241.033.307.077a.9.9 0 0 1 .198.264l2.882 6.061h.077V42.07c0-.121.044-.187.154-.187h.396c.1 0 .154.066.154.187v6.6c0 .132-.033.22-.077.264-.055.044-.154.066-.286.066h-.539c-.143 0-.253-.022-.319-.077a.6.6 0 0 1-.187-.264m3.405-4.873h.11c.308 0 .473.143.473.429v.264c0 .286-.165.429-.473.429h-.11c-.319 0-.473-.143-.473-.429v-.264c0-.286.154-.429.473-.429m0 4.191h.11c.308 0 .473.143.473.429v.264c0 .286-.165.429-.473.429h-.11c-.319 0-.473-.143-.473-.429v-.264c0-.286.154-.429.473-.429m7.566-.803h-3.014c-.143 0-.21-.066-.21-.22v-.187q0-.115.199-.462l2.497-4.246c.066-.11.176-.176.352-.176h.66c.176 0 .275.088.275.242v4.4h.715c.12 0 .187.055.187.154v.319c0 .121-.066.176-.187.176h-.715v1.639c0 .132-.066.187-.176.187h-.418c-.11 0-.165-.055-.165-.187zm0-.649v-3.971h-.077l-2.343 3.971zm3.118 1.452h.165c.341 0 .517.187.517.561v.209c0 .242-.054.506-.142.792a3 3 0 0 1-.463.825c-.066.088-.142.11-.23.055l-.198-.121c-.088-.044-.088-.11-.011-.209.066-.088.131-.209.22-.363.066-.132.12-.253.154-.374.022-.088.01-.154-.055-.198l-.198-.099c-.143-.066-.21-.22-.21-.451v-.209c0-.275.143-.418.451-.418m5.338-1.144v-.099c0-.517-.12-.902-.34-1.166-.243-.253-.595-.385-1.079-.385a2.4 2.4 0 0 0-1.298.363c-.099.066-.176.077-.242.044l-.165-.066c-.077-.022-.11-.088-.088-.187l.231-3.256c0-.132.077-.198.22-.198h2.882c.132 0 .198.066.198.176v.264c0 .121-.077.176-.22.176h-2.332c-.099 0-.154.055-.154.143l-.154 2.222c.341-.22.77-.33 1.298-.33.704 0 1.232.209 1.584.616.308.374.462.902.462 1.562v.121c0 .77-.22 1.342-.638 1.716s-1 .55-1.77.55a3.8 3.8 0 0 1-1.717-.396c-.12-.055-.165-.132-.12-.231l.11-.297c.032-.11.11-.132.241-.077a2.9 2.9 0 0 0 1.496.385c.55 0 .957-.132 1.21-.407.253-.264.385-.671.385-1.243m6.661-1.54v.297c0 1.419-.242 2.387-.715 2.915-.352.396-.88.594-1.573.594-.704 0-1.221-.198-1.573-.594-.484-.528-.715-1.496-.715-2.915v-.297c0-1.408.231-2.387.715-2.915.352-.396.869-.594 1.573-.594.693 0 1.221.198 1.573.594.473.528.715 1.507.715 2.915m-3.773.077v.143c0 1.188.132 1.991.418 2.42.22.374.583.55 1.067.55s.836-.176 1.067-.55c.275-.429.418-1.232.418-2.42v-.143c0-1.177-.143-1.98-.418-2.42-.231-.363-.583-.55-1.067-.55s-.847.187-1.067.55c-.286.44-.418 1.243-.418 2.42m6.298 3.586 3.894-7.04a.23.23 0 0 1 .209-.132h.418c.11 0 .143.055.099.143l-3.894 7.04a.26.26 0 0 1-.242.132h-.385c-.11 0-.143-.044-.1-.143m1.43-5.28v.121c0 .759-.143 1.276-.43 1.562q-.33.33-.956.33-.627 0-.957-.33c-.286-.286-.43-.803-.43-1.562v-.121c0-.748.144-1.276.43-1.562q.33-.33.957-.33t.957.33c.286.286.429.814.429 1.562m-.671.11v-.099q0-.759-.165-1.056c-.11-.187-.286-.286-.55-.286s-.451.099-.561.286c-.11.198-.154.55-.154 1.056v.099c0 .517.044.869.154 1.056.11.198.297.286.56.286.265 0 .44-.088.55-.286q.166-.28.166-1.056m5.203 3.3v.121c0 .759-.143 1.276-.43 1.562q-.33.33-.956.33-.627 0-.957-.33c-.286-.286-.43-.803-.43-1.562v-.121c0-.748.144-1.276.43-1.562q.33-.33.957-.33t.957.33c.286.286.429.814.429 1.562m-.671.11v-.099q0-.759-.165-1.056c-.11-.187-.286-.286-.55-.286s-.451.099-.561.286c-.11.198-.154.55-.154 1.056v.099c0 .517.044.869.154 1.056.11.198.297.286.56.286.265 0 .44-.088.55-.286q.166-.28.166-1.056M2.288 54.487c.077-.099.176-.121.286-.077l.264.132c.088.055.11.121.055.209-.902 1.21-1.353 2.574-1.353 4.103q0 1.188.297 2.145c.198.638.55 1.298 1.045 1.958.066.088.033.165-.077.22l-.253.132c-.099.055-.187.033-.253-.066C1.265 61.923.748 60.46.748 58.876c0-.792.11-1.54.352-2.233.231-.682.627-1.408 1.188-2.156m4.27 2.387h.495c.198 0 .33.11.374.308a59 59 0 0 0 1 4.257h.056a60 60 0 0 0 1.023-4.697c0-.066.022-.099.044-.11a.4.4 0 0 1 .154-.022h.34q.117 0 .166.033c.022.022.033.055.033.121q-.363 1.848-1.122 4.785c-.088.308-.242.451-.462.451h-.374c-.143 0-.253-.033-.32-.099-.076-.066-.131-.176-.175-.352a69 69 0 0 1-.946-4.015h-.077a80 80 0 0 1-.946 4.015.74.74 0 0 1-.176.352.48.48 0 0 1-.32.099h-.373c-.231 0-.385-.143-.462-.451q-.776-2.937-1.122-4.785c-.011-.066 0-.099.033-.121q.033-.033.165-.033h.34q.165 0 .199.132a51 51 0 0 0 1.023 4.697h.055a74 74 0 0 0 1-4.257c.045-.198.166-.308.375-.308M16.12 62h-.517c-.572 0-.99-.143-1.232-.44-.242-.286-.364-.704-.364-1.265v-3.058h-.67c-.077 0-.11-.033-.11-.121v-.22c0-.088.033-.132.11-.143l.67-.143v-1.243q0-.132.133-.132h.461q.119 0 .121.132v1.243h1.287c.066 0 .11.044.11.11v.407c0 .077-.044.11-.11.11h-1.287v2.97c0 .44.066.748.198.902.133.187.408.275.804.275h.396c.088 0 .132.044.132.121v.374c0 .088-.044.121-.133.121m1.874 1.683c.297-.583.561-1.166.803-1.76-.33 0-.583-.231-.737-.693a24 24 0 0 1-.616-1.892 48 48 0 0 1-.671-2.585c-.022-.088.011-.143.121-.143h.495c.066 0 .099.033.121.099.154.781.352 1.595.583 2.442.121.484.308 1.078.55 1.782.044.132.088.231.143.275.044.055.121.077.209.077h.044c.418-1.144.814-2.673 1.199-4.587.011-.055.055-.088.121-.088h.506c.044 0 .066.011.088.033s.022.044.022.066c-.341 1.595-.693 2.915-1.045 3.971a35 35 0 0 1-1.287 3.278c-.044.099-.121.121-.231.077l-.363-.132c-.099-.033-.121-.11-.055-.22m4.012-1.848v-5.104c0-.077.033-.121.121-.121h.319c.077 0 .121.044.132.121l.055.44h.022c.088-.154.242-.286.451-.418.275-.154.616-.242 1.023-.242.77 0 1.32.253 1.639.759h.022c.385-.506.957-.759 1.705-.759.66 0 1.144.176 1.452.517.286.341.44.891.44 1.639v3.168c0 .11-.066.165-.176.165h-.374q-.165 0-.165-.165v-3.212c0-.506-.099-.869-.275-1.111-.22-.253-.55-.385-1.012-.385q-.891 0-1.386.66c.044.286.066.583.066.88v3.168q0 .165-.165.165h-.374c-.121 0-.176-.055-.176-.165v-3.212q0-.809-.33-1.155c-.22-.22-.572-.341-1.034-.341-.506 0-.869.154-1.067.462q-.198.297-.198.858v3.388q0 .165-.165.165h-.385q-.165 0-.165-.165m11.892-2.64v.209c0 .55.033.946.11 1.21.165.583.594.869 1.276.869s1.11-.286 1.287-.869c.066-.264.11-.66.11-1.21v-.209c0-.539-.044-.946-.11-1.21q-.247-.858-1.287-.858c-.693 0-1.122.286-1.276.858-.077.264-.11.671-.11 1.21m3.509-.11v.44c0 .99-.198 1.683-.572 2.057-.352.352-.87.517-1.551.517-.682 0-1.188-.165-1.54-.517-.385-.374-.572-1.067-.572-2.057v-.44c0-.99.187-1.683.572-2.068.34-.33.858-.506 1.54-.506s1.199.176 1.55.506c.375.385.573 1.078.573 2.068m3.46 3.014c-.704 0-1.21-.187-1.507-.583h-.022v2.31c0 .088-.044.121-.11.121h-.495c-.077 0-.11-.033-.11-.121v-7.095c0-.077.033-.121.11-.121h.33c.077 0 .121.044.132.121l.066.44h.022c.308-.44.847-.66 1.595-.66.715 0 1.232.198 1.54.594s.473 1.012.473 1.87v.572q0 1.27-.462 1.914c-.308.429-.825.638-1.562.638m-.088-4.972c-.968 0-1.44.462-1.44 1.386v1.551c0 .473.12.825.384 1.067.253.242.616.352 1.078.352.484 0 .847-.132 1.067-.407q.297-.363.297-1.584v-.418c0-.77-.12-1.298-.34-1.573-.22-.242-.562-.374-1.046-.374M44.675 62h-.352c-.121 0-.176-.044-.176-.143v-5.126c0-.077.044-.121.132-.121h.319c.066 0 .11.044.132.121l.044.572h.022c.242-.462.67-.693 1.276-.693h.286c.088 0 .143.044.143.132v.374c0 .088-.055.121-.143.121h-.297c-.484 0-.825.154-1.001.451-.132.22-.198.506-.198.869v3.3c0 .099-.066.143-.187.143m3.232-2.805v.209c0 .55.033.946.11 1.21.164.583.593.869 1.275.869s1.111-.286 1.288-.869c.066-.264.11-.66.11-1.21v-.209c0-.539-.044-.946-.11-1.21q-.248-.858-1.288-.858c-.693 0-1.122.286-1.276.858-.076.264-.11.671-.11 1.21m3.509-.11v.44c0 .99-.198 1.683-.572 2.057-.352.352-.87.517-1.552.517-.681 0-1.187-.165-1.54-.517-.385-.374-.572-1.067-.572-2.057v-.44c0-.99.188-1.683.572-2.068.341-.33.858-.506 1.54-.506s1.2.176 1.551.506c.374.385.572 1.078.572 2.068m4.505 2.266.077.253q.033.115 0 .165c-.022.033-.077.066-.187.11-.363.154-.78.22-1.254.22-.682 0-1.188-.154-1.518-.473-.429-.385-.638-1.111-.638-2.178v-.363c0-.968.22-1.661.671-2.079q.528-.495 1.485-.495c.286 0 .583.055.87.143.285.099.527.209.703.341.055.044.055.11.011.176l-.187.308c-.044.066-.099.077-.187.022-.418-.242-.814-.374-1.21-.374-.429 0-.759.121-.99.341-.297.297-.44.869-.44 1.716v.187c0 .836.11 1.408.352 1.694.22.286.583.418 1.111.418.352 0 .704-.066 1.067-.209.143-.055.231-.033.264.077m4.985-2.959v.902c0 .154-.033.264-.088.33-.066.066-.165.088-.32.088h-2.837c.021.66.131 1.122.352 1.386.209.264.572.385 1.089.385.429 0 .836-.066 1.21-.22.143-.055.23-.033.264.077l.077.253a.2.2 0 0 1-.011.165q-.034.066-.232.132c-.373.143-.813.209-1.308.209-.803 0-1.364-.198-1.683-.605-.33-.396-.484-1.056-.484-1.969v-.44c0-.88.154-1.529.472-1.947.309-.418.848-.627 1.596-.627.627 0 1.1.154 1.419.451.319.319.484.792.484 1.43m-1.892-1.265c-.485 0-.837.143-1.035.418-.209.286-.319.792-.319 1.54h2.366c.054 0 .098 0 .12-.022.023-.022.033-.066.033-.143v-.418c0-.473-.087-.814-.253-1.023-.198-.231-.495-.352-.913-.352m7.283 4.686c0 .132-.077.187-.21.187h-.307q-.132 0-.165-.033c-.022-.022-.033-.066-.033-.154v-3.212c0-.649-.176-1.078-.506-1.287-.22-.132-.517-.209-.891-.209-.517 0-.88.154-1.078.462q-.198.297-.198.858v3.41q0 .165-.198.165h-.341c-.121 0-.176-.055-.176-.165v-5.104c0-.077.033-.121.11-.121h.33c.077 0 .12.044.132.121l.055.44h.022c.088-.154.242-.286.45-.418.276-.154.617-.242 1.035-.242.847 0 1.419.253 1.705.737q.264.462.264 1.419zm3.76.187h-.517c-.572 0-.99-.143-1.232-.44-.242-.286-.363-.704-.363-1.265v-3.058h-.671c-.077 0-.11-.033-.11-.121v-.22c0-.088.033-.132.11-.143l.671-.143v-1.243q0-.132.132-.132h.462c.077 0 .121.044.121.132v1.243h1.287c.066 0 .11.044.11.11v.407c0 .077-.044.11-.11.11H68.66v2.97c0 .44.066.748.198.902.132.187.407.275.803.275h.396c.088 0 .132.044.132.121v.374c0 .088-.044.121-.132.121m1.644-2.805v.209c0 .55.033.946.11 1.21.164.583.593.869 1.275.869.683 0 1.112-.286 1.288-.869.066-.264.11-.66.11-1.21v-.209c0-.539-.044-.946-.11-1.21q-.248-.858-1.287-.858c-.694 0-1.123.286-1.276.858-.078.264-.11.671-.11 1.21m3.509-.11v.44c0 .99-.198 1.683-.572 2.057-.353.352-.87.517-1.552.517-.681 0-1.187-.165-1.54-.517-.385-.374-.572-1.067-.572-2.057v-.44c0-.99.188-1.683.572-2.068.341-.33.858-.506 1.54-.506.683 0 1.2.176 1.552.506.373.385.572 1.078.572 2.068m3.911-2.211h.495c.198 0 .33.11.374.308a59 59 0 0 0 1.001 4.257h.055a60 60 0 0 0 1.023-4.697c0-.066.022-.099.044-.11a.4.4 0 0 1 .154-.022h.341q.115 0 .165.033c.022.022.033.055.033.121q-.363 1.848-1.122 4.785c-.088.308-.242.451-.462.451h-.374c-.143 0-.253-.033-.319-.099-.077-.066-.132-.176-.176-.352a69 69 0 0 1-.946-4.015h-.077a80 80 0 0 1-.946 4.015.74.74 0 0 1-.176.352.48.48 0 0 1-.319.099h-.374c-.23 0-.385-.143-.462-.451q-.775-2.937-1.122-4.785c-.01-.066 0-.099.033-.121q.033-.033.165-.033h.341q.165 0 .198.132a51 51 0 0 0 1.023 4.697h.055a74 74 0 0 0 1.001-4.257c.044-.198.165-.308.374-.308m7.646 5.016-.022-.374h-.022c-.242.396-.638.583-1.166.583h-.55c-.528 0-.913-.132-1.177-.396s-.396-.605-.396-1.034v-.33q0-1.04.858-1.386c.242-.099.682-.154 1.32-.154h.33c.264 0 .517.011.737.033v-.627c0-.396-.11-.682-.319-.836-.22-.154-.55-.242-1.012-.242-.385 0-.759.055-1.133.165-.176.044-.264.022-.286-.088l-.055-.231c-.044-.132 0-.209.121-.253a5 5 0 0 1 1.408-.209c.704 0 1.21.132 1.518.385s.473.66.473 1.232v3.762c0 .077-.044.11-.12.11h-.364c-.099 0-.143-.033-.143-.11m-.088-1.54v-.913a6 6 0 0 0-.66-.033h-.616c-.462 0-.78.077-.968.22s-.275.385-.275.726v.231c0 .33.077.572.231.715.132.132.363.198.671.198h.451c.363 0 .65-.088.858-.286.198-.198.308-.484.308-.858m6.28 1.463c0 .132-.077.187-.21.187h-.307q-.132 0-.165-.033c-.022-.022-.033-.066-.033-.154v-3.212c0-.649-.176-1.078-.506-1.287-.22-.132-.517-.209-.891-.209-.517 0-.88.154-1.078.462q-.198.297-.198.858v3.41q0 .165-.198.165h-.341c-.121 0-.176-.055-.176-.165v-5.104c0-.077.033-.121.11-.121h.33c.077 0 .12.044.132.121l.055.44h.022c.088-.154.242-.286.45-.418.276-.154.617-.242 1.035-.242.847 0 1.419.253 1.705.737q.264.462.264 1.419zm2.32-5.082v5.181c0 .066-.034.088-.1.088h-.528c-.066 0-.088-.022-.088-.088v-5.181c0-.077.044-.121.132-.121h.451c.088 0 .132.044.132.121m.153-1.573v.066c0 .352-.165.528-.484.528h-.044c-.34 0-.506-.176-.506-.528v-.066c0-.341.165-.517.506-.517h.044c.32 0 .484.176.484.517m5.209 3.234v.902c0 .154-.033.264-.088.33-.066.066-.165.088-.319.088h-2.838c.022.66.132 1.122.352 1.386.209.264.572.385 1.089.385.429 0 .836-.066 1.21-.22.143-.055.231-.033.264.077l.077.253a.2.2 0 0 1-.011.165q-.033.066-.231.132c-.374.143-.814.209-1.31.209-.802 0-1.363-.198-1.682-.605-.33-.396-.484-1.056-.484-1.969v-.44c0-.88.154-1.529.473-1.947.308-.418.847-.627 1.595-.627.627 0 1.1.154 1.419.451.319.319.484.792.484 1.43m-1.892-1.265c-.484 0-.836.143-1.034.418-.21.286-.32.792-.32 1.54h2.366c.055 0 .099 0 .12-.022.023-.022.034-.066.034-.143v-.418c0-.473-.088-.814-.253-1.023-.198-.231-.495-.352-.913-.352M2.783 74.483c.55 0 .924-.143 1.133-.429.209-.297.319-.825.319-1.573v-.374c0-.792-.154-1.342-.44-1.639-.231-.22-.583-.341-1.045-.341-.473 0-.814.11-1.034.33a.95.95 0 0 0-.242.418c-.044.165-.055.407-.055.715v1.507c0 .44.077.759.231.968.198.286.572.418 1.133.418m-1.364-6.809v2.365h.022q.413-.528 1.386-.528 1.089 0 1.617.627c.341.418.517 1.056.517 1.925v.506c0 .924-.187 1.584-.55 1.958-.363.385-.913.572-1.639.572-.792 0-1.342-.187-1.661-.572-.275-.319-.407-.77-.407-1.353v-5.5c0-.077.044-.121.132-.121h.451c.088 0 .132.044.132.121M9.23 74.89l-.022-.374h-.022c-.242.396-.638.583-1.166.583h-.55c-.528 0-.913-.132-1.177-.396s-.396-.605-.396-1.034v-.33q0-1.04.858-1.386c.242-.099.682-.154 1.32-.154h.33c.264 0 .517.011.737.033v-.627c0-.396-.11-.682-.319-.836-.22-.154-.55-.242-1.012-.242-.385 0-.759.055-1.133.165-.176.044-.264.022-.286-.088l-.055-.231c-.044-.132 0-.209.121-.253a5 5 0 0 1 1.408-.209c.704 0 1.21.132 1.518.385s.473.66.473 1.232v3.762c0 .077-.044.11-.121.11h-.363c-.099 0-.143-.033-.143-.11m-.088-1.54v-.913a6 6 0 0 0-.66-.033h-.616c-.462 0-.781.077-.968.22s-.275.385-.275.726v.231c0 .33.077.572.231.715.132.132.363.198.671.198h.451c.363 0 .649-.088.858-.286.198-.198.308-.484.308-.858m5.433 1.144v.396c0 .077-.044.11-.11.11h-3.432c-.077 0-.11-.033-.11-.11v-.187c0-.11.066-.264.198-.484l2.42-3.993H11.11c-.077 0-.11-.033-.11-.11v-.396c0-.066.033-.11.11-.11h3.256c.066 0 .11.044.11.11v.154c0 .132-.1.352-.286.66l-2.365 3.85h2.64c.066 0 .11.044.11.11m1.438-2.299v.209c0 .55.033.946.11 1.21.165.583.594.869 1.276.869s1.111-.286 1.287-.869c.066-.264.11-.66.11-1.21v-.209c0-.539-.044-.946-.11-1.21q-.248-.858-1.287-.858c-.693 0-1.122.286-1.276.858-.077.264-.11.671-.11 1.21m3.509-.11v.44c0 .99-.198 1.683-.572 2.057-.352.352-.869.517-1.551.517s-1.188-.165-1.54-.517c-.385-.374-.572-1.067-.572-2.057v-.44c0-.99.187-1.683.572-2.068.341-.33.858-.506 1.54-.506s1.199.176 1.551.506c.374.385.572 1.078.572 2.068m3.912-2.211h.495c.198 0 .33.11.374.308a59 59 0 0 0 1 4.257h.056a60 60 0 0 0 1.023-4.697c0-.066.022-.099.044-.11a.4.4 0 0 1 .154-.022h.34q.117 0 .166.033c.022.022.033.055.033.121q-.363 1.848-1.122 4.785c-.088.308-.242.451-.462.451h-.374c-.143 0-.253-.033-.32-.099-.076-.066-.131-.176-.175-.352a69 69 0 0 1-.946-4.015h-.077a80 80 0 0 1-.946 4.015.74.74 0 0 1-.176.352.48.48 0 0 1-.32.099h-.373c-.231 0-.385-.143-.462-.451q-.776-2.937-1.122-4.785c-.011-.066 0-.099.033-.121q.033-.033.165-.033h.34q.165 0 .199.132a51 51 0 0 0 1.023 4.697h.055a74 74 0 0 0 1-4.257c.045-.198.166-.308.375-.308m8.382 1.518v.902c0 .154-.033.264-.088.33-.066.066-.165.088-.32.088h-2.837c.022.66.132 1.122.352 1.386.209.264.572.385 1.089.385.429 0 .836-.066 1.21-.22.143-.055.23-.033.264.077l.077.253a.2.2 0 0 1-.011.165q-.034.066-.231.132c-.374.143-.814.209-1.31.209-.802 0-1.363-.198-1.682-.605-.33-.396-.484-1.056-.484-1.969v-.44c0-.88.154-1.529.473-1.947.308-.418.847-.627 1.595-.627.627 0 1.1.154 1.419.451.319.319.484.792.484 1.43m-1.892-1.265c-.484 0-.836.143-1.034.418-.21.286-.32.792-.32 1.54h2.366c.055 0 .099 0 .12-.022.023-.022.034-.066.034-.143v-.418c0-.473-.088-.814-.253-1.023-.198-.231-.495-.352-.913-.352m3.642-.341h.11c.308 0 .473.143.473.429v.264c0 .286-.165.429-.473.429h-.11c-.32 0-.473-.143-.473-.429v-.264c0-.286.154-.429.473-.429m0 4.191h.11c.308 0 .473.143.473.429v.264c0 .286-.165.429-.473.429h-.11c-.32 0-.473-.143-.473-.429v-.264c0-.286.154-.429.473-.429m9.072-2.684v.297c0 1.419-.242 2.387-.715 2.915-.352.396-.88.594-1.573.594-.704 0-1.22-.198-1.573-.594-.484-.528-.715-1.496-.715-2.915v-.297c0-1.408.231-2.387.715-2.915.352-.396.87-.594 1.573-.594.693 0 1.221.198 1.573.594.473.528.715 1.507.715 2.915m-3.773.077v.143c0 1.188.132 1.991.418 2.42.22.374.583.55 1.067.55s.836-.176 1.067-.55c.275-.429.418-1.232.418-2.42v-.143c0-1.177-.143-1.98-.418-2.42-.23-.363-.583-.55-1.067-.55s-.847.187-1.067.55c-.286.44-.418 1.243-.418 2.42m5.385 2.607h.165c.341 0 .517.187.517.561v.209c0 .242-.055.506-.143.792a3 3 0 0 1-.462.825c-.066.088-.143.11-.23.055l-.199-.121c-.088-.044-.088-.11-.01-.209.065-.088.131-.209.22-.363.065-.132.12-.253.153-.374.022-.088.011-.154-.055-.198l-.198-.099c-.143-.066-.209-.22-.209-.451v-.209c0-.275.143-.418.451-.418m6.284-2.684v.297c0 1.419-.242 2.387-.715 2.915-.352.396-.88.594-1.573.594-.704 0-1.221-.198-1.573-.594-.484-.528-.715-1.496-.715-2.915v-.297c0-1.408.23-2.387.715-2.915.352-.396.869-.594 1.573-.594q1.041 0 1.573.594c.473.528.715 1.507.715 2.915m-3.773.077v.143c0 1.188.132 1.991.418 2.42.22.374.583.55 1.067.55s.836-.176 1.067-.55c.275-.429.418-1.232.418-2.42v-.143c0-1.177-.143-1.98-.418-2.42-.231-.363-.583-.55-1.067-.55s-.847.187-1.067.55c-.286.44-.418 1.243-.418 2.42m8.542 1.463v-.099c0-.517-.121-.902-.341-1.166-.242-.253-.594-.385-1.078-.385a2.4 2.4 0 0 0-1.298.363c-.1.066-.176.077-.242.044l-.165-.066c-.077-.022-.11-.088-.088-.187l.23-3.256c0-.132.078-.198.22-.198h2.883c.132 0 .198.066.198.176v.264c0 .121-.077.176-.22.176H53.07c-.1 0-.154.055-.154.143l-.154 2.222q.508-.33 1.298-.33c.704 0 1.232.209 1.584.616.308.374.462.902.462 1.562v.121c0 .77-.22 1.342-.638 1.716s-1.001.55-1.771.55a3.8 3.8 0 0 1-1.716-.396c-.121-.055-.165-.132-.121-.231l.11-.297c.033-.11.11-.132.242-.077a2.9 2.9 0 0 0 1.496.385c.55 0 .957-.132 1.21-.407.253-.264.385-.671.385-1.243m3.47 2.123 3.894-7.04a.23.23 0 0 1 .21-.132h.417c.11 0 .143.055.1.143l-3.895 7.04a.26.26 0 0 1-.242.132h-.385c-.11 0-.143-.044-.099-.143m1.43-5.28v.121c0 .759-.143 1.276-.429 1.562q-.33.33-.957.33t-.957-.33c-.286-.286-.429-.803-.429-1.562v-.121c0-.748.143-1.276.43-1.562q.33-.33.956-.33.627 0 .957.33c.286.286.43.814.43 1.562m-.67.11v-.099q0-.759-.166-1.056c-.11-.187-.286-.286-.55-.286s-.45.099-.56.286c-.11.198-.155.55-.155 1.056v.099c0 .517.044.869.154 1.056.11.198.297.286.561.286s.44-.088.55-.286q.165-.28.165-1.056m5.202 3.3v.121c0 .759-.143 1.276-.429 1.562q-.33.33-.957.33t-.957-.33c-.286-.286-.429-.803-.429-1.562v-.121c0-.748.143-1.276.43-1.562q.33-.33.956-.33.627 0 .957.33c.286.286.43.814.43 1.562m-.67.11v-.099q0-.759-.166-1.056c-.11-.187-.286-.286-.55-.286s-.45.099-.56.286c-.11.198-.155.55-.155 1.056v.099c0 .517.044.869.154 1.056.11.198.297.286.561.286s.44-.088.55-.286q.165-.28.165-1.056m2.378.781h.165c.341 0 .517.187.517.561v.209c0 .242-.055.506-.143.792a3 3 0 0 1-.462.825c-.066.088-.143.11-.23.055l-.199-.121c-.088-.044-.088-.11-.01-.209.065-.088.131-.209.22-.363.065-.132.12-.253.153-.374.022-.088.011-.154-.055-.198l-.198-.099c-.143-.066-.209-.22-.209-.451v-.209c0-.275.143-.418.451-.418M1.221 85.195v.209c0 .55.033.946.11 1.21.165.583.594.869 1.276.869s1.111-.286 1.287-.869c.066-.264.11-.66.11-1.21v-.209c0-.539-.044-.946-.11-1.21q-.247-.858-1.287-.858c-.693 0-1.122.286-1.276.858-.077.264-.11.671-.11 1.21m3.509-.11v.44c0 .99-.198 1.683-.572 2.057-.352.352-.869.517-1.551.517s-1.188-.165-1.54-.517c-.385-.374-.572-1.067-.572-2.057v-.44c0-.99.187-1.683.572-2.068.341-.33.858-.506 1.54-.506s1.199.176 1.551.506c.374.385.572 1.078.572 2.068m3.46 3.014c-.703 0-1.21-.187-1.506-.583h-.022v2.31c0 .088-.044.121-.11.121h-.495c-.077 0-.11-.033-.11-.121v-7.095c0-.077.033-.121.11-.121h.33c.077 0 .12.044.132.121l.066.44h.022c.308-.44.847-.66 1.595-.66.715 0 1.232.198 1.54.594s.473 1.012.473 1.87v.572q0 1.27-.462 1.914c-.308.429-.825.638-1.562.638m-.087-4.972c-.968 0-1.441.462-1.441 1.386v1.551c0 .473.12.825.385 1.067.253.242.616.352 1.078.352.484 0 .847-.132 1.067-.407q.297-.363.297-1.584v-.418c0-.77-.121-1.298-.341-1.573-.22-.242-.561-.374-1.045-.374M11.997 88h-.352c-.121 0-.176-.044-.176-.143v-5.126c0-.077.044-.121.132-.121h.319c.066 0 .11.044.132.121l.044.572h.022c.242-.462.671-.693 1.276-.693h.286c.088 0 .143.044.143.132v.374c0 .088-.055.121-.143.121h-.297c-.484 0-.825.154-1.001.451-.132.22-.198.506-.198.869v3.3c0 .099-.066.143-.187.143m3.232-2.805v.209c0 .55.033.946.11 1.21.165.583.594.869 1.276.869s1.11-.286 1.287-.869c.066-.264.11-.66.11-1.21v-.209c0-.539-.044-.946-.11-1.21q-.248-.858-1.287-.858c-.693 0-1.122.286-1.276.858-.077.264-.11.671-.11 1.21m3.509-.11v.44c0 .99-.198 1.683-.572 2.057-.352.352-.87.517-1.551.517-.682 0-1.188-.165-1.54-.517-.385-.374-.572-1.067-.572-2.057v-.44c0-.99.187-1.683.572-2.068.34-.33.858-.506 1.54-.506s1.199.176 1.55.506c.375.385.573 1.078.573 2.068m4.506 2.266.076.253q.034.116 0 .165c-.021.033-.076.066-.186.11-.364.154-.782.22-1.255.22-.681 0-1.187-.154-1.518-.473-.428-.385-.637-1.111-.637-2.178v-.363c0-.968.22-1.661.67-2.079q.53-.495 1.486-.495c.286 0 .582.055.869.143.286.099.527.209.704.341.055.044.055.11.01.176l-.187.308c-.043.066-.099.077-.186.022-.418-.242-.814-.374-1.21-.374-.43 0-.76.121-.99.341-.297.297-.44.869-.44 1.716v.187c0 .836.11 1.408.352 1.694.22.286.582.418 1.11.418.353 0 .704-.066 1.068-.209.142-.055.23-.033.264.077m4.984-2.959v.902c0 .154-.033.264-.088.33-.066.066-.165.088-.32.088h-2.837c.022.66.132 1.122.352 1.386.209.264.572.385 1.089.385.429 0 .836-.066 1.21-.22.143-.055.23-.033.264.077l.077.253a.2.2 0 0 1-.011.165q-.034.066-.231.132c-.374.143-.814.209-1.31.209-.802 0-1.363-.198-1.682-.605-.33-.396-.484-1.056-.484-1.969v-.44c0-.88.154-1.529.473-1.947.308-.418.847-.627 1.595-.627.627 0 1.1.154 1.419.451.319.319.484.792.484 1.43m-1.892-1.265c-.484 0-.836.143-1.034.418-.21.286-.32.792-.32 1.54h2.366c.055 0 .099 0 .12-.022.023-.022.034-.066.034-.143v-.418c0-.473-.088-.814-.253-1.023-.198-.231-.495-.352-.913-.352m7.283 4.686c0 .132-.077.187-.21.187h-.307q-.132 0-.165-.033c-.022-.022-.033-.066-.033-.154v-3.212c0-.649-.176-1.078-.506-1.287-.22-.132-.517-.209-.891-.209-.517 0-.88.154-1.078.462q-.198.297-.198.858v3.41q0 .165-.198.165h-.341c-.121 0-.176-.055-.176-.165v-5.104c0-.077.033-.121.11-.121h.33c.077 0 .12.044.132.121l.055.44h.022c.088-.154.242-.286.45-.418.276-.154.617-.242 1.035-.242.847 0 1.419.253 1.705.737q.264.462.264 1.419zm3.76.187h-.517c-.572 0-.99-.143-1.232-.44-.242-.286-.363-.704-.363-1.265v-3.058h-.67c-.078 0-.11-.033-.11-.121v-.22c0-.088.032-.132.11-.143l.67-.143v-1.243q0-.132.132-.132h.462c.077 0 .121.044.121.132v1.243h1.287c.066 0 .11.044.11.11v.407c0 .077-.044.11-.11.11h-1.287v2.97c0 .44.066.748.198.902.132.187.407.275.803.275h.396c.088 0 .132.044.132.121v.374c0 .088-.044.121-.132.121m1.644-2.805v.209c0 .55.033.946.11 1.21.165.583.594.869 1.276.869s1.11-.286 1.287-.869c.066-.264.11-.66.11-1.21v-.209c0-.539-.044-.946-.11-1.21q-.247-.858-1.287-.858c-.693 0-1.122.286-1.276.858-.077.264-.11.671-.11 1.21m3.509-.11v.44c0 .99-.198 1.683-.572 2.057-.352.352-.87.517-1.551.517-.682 0-1.188-.165-1.54-.517-.385-.374-.572-1.067-.572-2.057v-.44c0-.99.187-1.683.572-2.068.34-.33.858-.506 1.54-.506s1.199.176 1.55.506c.375.385.573 1.078.573 2.068m3.912-2.211h.494c.198 0 .33.11.374.308a59 59 0 0 0 1.002 4.257h.054a60 60 0 0 0 1.023-4.697c0-.066.023-.099.044-.11a.4.4 0 0 1 .154-.022h.342q.116 0 .165.033c.022.022.033.055.033.121q-.363 1.848-1.122 4.785c-.088.308-.242.451-.462.451h-.375c-.142 0-.253-.033-.319-.099-.076-.066-.132-.176-.175-.352a69 69 0 0 1-.947-4.015h-.076a80 80 0 0 1-.947 4.015.74.74 0 0 1-.175.352.48.48 0 0 1-.32.099h-.373c-.232 0-.386-.143-.462-.451q-.776-2.937-1.122-4.785c-.011-.066 0-.099.032-.121q.034-.033.166-.033h.34q.165 0 .198.132a51 51 0 0 0 1.023 4.697h.056a74 74 0 0 0 1-4.257c.044-.198.165-.308.374-.308m7.645 5.016-.022-.374h-.022c-.242.396-.638.583-1.166.583h-.55c-.528 0-.913-.132-1.177-.396s-.396-.605-.396-1.034v-.33q0-1.04.858-1.386c.242-.099.682-.154 1.32-.154h.33c.264 0 .517.011.737.033v-.627c0-.396-.11-.682-.319-.836-.22-.154-.55-.242-1.012-.242-.385 0-.759.055-1.133.165-.176.044-.264.022-.286-.088l-.055-.231c-.044-.132 0-.209.121-.253a5 5 0 0 1 1.408-.209c.704 0 1.21.132 1.518.385s.473.66.473 1.232v3.762c0 .077-.044.11-.12.11h-.364c-.099 0-.143-.033-.143-.11m-.088-1.54v-.913a6 6 0 0 0-.66-.033h-.616c-.462 0-.78.077-.968.22s-.275.385-.275.726v.231c0 .33.077.572.231.715.132.132.363.198.671.198h.451c.363 0 .65-.088.858-.286.198-.198.308-.484.308-.858m6.28 1.463c0 .132-.077.187-.21.187h-.307q-.132 0-.165-.033c-.022-.022-.033-.066-.033-.154v-3.212c0-.649-.176-1.078-.506-1.287-.22-.132-.517-.209-.891-.209-.517 0-.88.154-1.078.462q-.198.297-.198.858v3.41q0 .165-.198.165h-.341c-.121 0-.176-.055-.176-.165v-5.104c0-.077.033-.121.11-.121h.33c.077 0 .12.044.132.121l.055.44h.022c.088-.154.242-.286.45-.418.276-.154.617-.242 1.035-.242.847 0 1.419.253 1.705.737q.264.462.264 1.419zm2.32-5.082v5.181c0 .066-.034.088-.1.088h-.528c-.066 0-.088-.022-.088-.088v-5.181c0-.077.044-.121.132-.121h.451c.088 0 .132.044.132.121m.153-1.573v.066c0 .352-.165.528-.484.528h-.044c-.34 0-.506-.176-.506-.528v-.066c0-.341.165-.517.506-.517h.044c.32 0 .484.176.484.517m5.21 3.234v.902c0 .154-.034.264-.089.33-.066.066-.165.088-.319.088h-2.838c.022.66.132 1.122.352 1.386.21.264.572.385 1.09.385.428 0 .835-.066 1.21-.22.142-.055.23-.033.263.077l.077.253a.2.2 0 0 1-.01.165q-.034.066-.232.132c-.374.143-.814.209-1.309.209-.803 0-1.364-.198-1.683-.605-.33-.396-.484-1.056-.484-1.969v-.44c0-.88.154-1.529.473-1.947.308-.418.847-.627 1.595-.627.627 0 1.1.154 1.42.451.318.319.483.792.483 1.43m-1.893-1.265c-.484 0-.836.143-1.034.418-.209.286-.319.792-.319 1.54h2.365c.055 0 .1 0 .121-.022.022-.022.033-.066.033-.143v-.418c0-.473-.088-.814-.253-1.023-.198-.231-.495-.352-.913-.352M2.97 101.099c-.704 0-1.21-.187-1.507-.583h-.022v2.31c0 .088-.044.121-.11.121H.836c-.077 0-.11-.033-.11-.121v-7.095c0-.077.033-.121.11-.121h.33c.077 0 .121.044.132.121l.066.44h.022c.308-.44.847-.66 1.595-.66.715 0 1.232.198 1.54.594s.473 1.012.473 1.87v.572q0 1.27-.462 1.914c-.308.429-.825.638-1.562.638m-.088-4.972c-.968 0-1.441.462-1.441 1.386v1.551c0 .473.121.825.385 1.067.253.242.616.352 1.078.352.484 0 .847-.132 1.067-.407q.297-.363.297-1.584v-.418c0-.77-.121-1.298-.341-1.573-.22-.242-.561-.374-1.045-.374M6.776 101h-.352c-.12 0-.176-.044-.176-.143v-5.126c0-.077.044-.121.132-.121h.32c.065 0 .11.044.131.121l.044.572h.022c.242-.462.671-.693 1.276-.693h.286c.088 0 .143.044.143.132v.374c0 .088-.055.121-.143.121h-.297c-.484 0-.825.154-1 .451-.133.22-.199.506-.199.869v3.3c0 .099-.066.143-.187.143m3.232-2.805v.209c0 .55.033.946.11 1.21.165.583.594.869 1.276.869s1.111-.286 1.287-.869c.066-.264.11-.66.11-1.21v-.209c0-.539-.044-.946-.11-1.21q-.247-.858-1.287-.858c-.693 0-1.122.286-1.276.858-.077.264-.11.671-.11 1.21m3.51-.11v.44c0 .99-.199 1.683-.573 2.057-.352.352-.869.517-1.55.517-.683 0-1.189-.165-1.54-.517-.386-.374-.573-1.067-.573-2.057v-.44c0-.99.187-1.683.572-2.068.341-.33.858-.506 1.54-.506s1.2.176 1.551.506c.374.385.572 1.078.572 2.068m1.249 2.75v-5.104c0-.077.033-.121.12-.121h.32c.077 0 .12.044.132.121l.055.44h.022c.088-.154.242-.286.45-.418.276-.154.617-.242 1.024-.242.77 0 1.32.253 1.639.759h.022c.385-.506.957-.759 1.705-.759.66 0 1.144.176 1.452.517.286.341.44.891.44 1.639v3.168c0 .11-.066.165-.176.165h-.374q-.165 0-.165-.165v-3.212c0-.506-.1-.869-.275-1.111-.22-.253-.55-.385-1.012-.385q-.891 0-1.386.66c.044.286.066.583.066.88v3.168q0 .165-.165.165h-.374c-.121 0-.176-.055-.176-.165v-3.212q0-.809-.33-1.155c-.22-.22-.572-.341-1.034-.341-.506 0-.87.154-1.067.462q-.198.297-.198.858v3.388q0 .165-.165.165h-.385q-.165 0-.165-.165m9.303-2.64v.209c0 .55.033.946.11 1.21.165.583.594.869 1.276.869s1.11-.286 1.287-.869c.066-.264.11-.66.11-1.21v-.209c0-.539-.044-.946-.11-1.21q-.248-.858-1.287-.858c-.693 0-1.122.286-1.276.858-.077.264-.11.671-.11 1.21m3.509-.11v.44c0 .99-.198 1.683-.572 2.057-.352.352-.87.517-1.551.517-.682 0-1.188-.165-1.54-.517-.385-.374-.572-1.067-.572-2.057v-.44c0-.99.187-1.683.572-2.068.34-.33.858-.506 1.54-.506s1.199.176 1.55.506c.375.385.573 1.078.573 2.068m4.505 2.266.077.253q.033.116 0 .165c-.022.033-.077.066-.187.11-.363.154-.78.22-1.254.22-.682 0-1.188-.154-1.518-.473-.429-.385-.638-1.111-.638-2.178v-.363c0-.968.22-1.661.671-2.079q.528-.495 1.485-.495c.286 0 .583.055.87.143.285.099.527.209.703.341.055.044.055.11.011.176l-.187.308c-.044.066-.099.077-.187.022-.418-.242-.814-.374-1.21-.374-.429 0-.759.121-.99.341-.297.297-.44.869-.44 1.716v.187c0 .836.11 1.408.352 1.694.22.286.583.418 1.111.418.352 0 .704-.066 1.067-.209.143-.055.231-.033.264.077m2.164 2.332c.297-.583.56-1.166.803-1.76-.33 0-.583-.231-.737-.693a24 24 0 0 1-.616-1.892 48 48 0 0 1-.671-2.585c-.022-.088.01-.143.12-.143h.496c.066 0 .099.033.12.099.155.781.353 1.595.584 2.442.12.484.308 1.078.55 1.782.044.132.088.231.143.275.044.055.12.077.209.077h.044c.418-1.144.814-2.673 1.199-4.587.01-.055.055-.088.12-.088h.507c.044 0 .066.011.088.033s.022.044.022.066c-.341 1.595-.693 2.915-1.045 3.971a35 35 0 0 1-1.287 3.278c-.044.099-.121.121-.231.077l-.363-.132c-.1-.033-.121-.11-.055-.22m4.881-6.952v5.203c0 .539-.099.968-.275 1.276-.286.506-.781.748-1.485.748h-.396c-.088 0-.121-.044-.121-.132v-.363c0-.088.033-.132.121-.132h.374c.44 0 .748-.165.902-.506.11-.242.165-.55.165-.946v-5.148c0-.077.044-.121.132-.121h.451c.088 0 .132.044.132.121m.154-1.573v.066c0 .352-.165.528-.484.528h-.044c-.341 0-.506-.176-.506-.528v-.066c0-.341.165-.517.506-.517h.044c.319 0 .484.176.484.517m5.615 6.655c0 .132-.077.187-.209.187h-.308q-.132 0-.165-.033c-.022-.022-.033-.066-.033-.154v-3.212c0-.649-.176-1.078-.506-1.287-.22-.132-.517-.209-.89-.209q-.779 0-1.079.462-.198.297-.198.858v3.41q0 .165-.198.165h-.34c-.122 0-.177-.055-.177-.165v-5.104c0-.077.033-.121.11-.121h.33c.077 0 .121.044.132.121l.055.44h.022c.088-.154.242-.286.451-.418.275-.154.616-.242 1.034-.242.847 0 1.42.253 1.705.737q.264.462.264 1.419zm5.169-3.421v.902c0 .154-.033.264-.088.33-.066.066-.165.088-.32.088h-2.837c.022.66.132 1.122.352 1.386.209.264.572.385 1.089.385.429 0 .836-.066 1.21-.22.143-.055.23-.033.264.077l.077.253a.2.2 0 0 1-.011.165q-.034.066-.231.132c-.374.143-.814.209-1.31.209-.802 0-1.363-.198-1.682-.605-.33-.396-.484-1.056-.484-1.969v-.44c0-.88.154-1.529.473-1.947.308-.418.847-.627 1.595-.627.627 0 1.1.154 1.419.451.319.319.484.792.484 1.43m-1.892-1.265c-.484 0-.836.143-1.034.418-.21.286-.32.792-.32 1.54h2.366c.055 0 .099 0 .12-.022.023-.022.034-.066.034-.143v-.418c0-.473-.088-.814-.253-1.023-.198-.231-.495-.352-.913-.352m3.642-.341h.11c.308 0 .473.143.473.429v.264c0 .286-.165.429-.473.429h-.11c-.32 0-.473-.143-.473-.429v-.264c0-.286.154-.429.473-.429m0 4.191h.11c.308 0 .473.143.473.429v.264c0 .286-.165.429-.473.429h-.11c-.32 0-.473-.143-.473-.429v-.264c0-.286.154-.429.473-.429m7.565-.803h-3.014c-.143 0-.209-.066-.209-.22v-.187q0-.115.198-.462l2.497-4.246c.066-.11.176-.176.352-.176h.66c.176 0 .275.088.275.242v4.4h.715c.121 0 .187.055.187.154v.319c0 .121-.066.176-.187.176h-.715v1.639c0 .132-.066.187-.176.187h-.418c-.11 0-.165-.055-.165-.187zm0-.649v-3.971h-.077l-2.343 3.971zm3.12 1.452h.164c.341 0 .517.187.517.561v.209c0 .242-.055.506-.143.792a3 3 0 0 1-.462.825c-.066.088-.143.11-.23.055l-.199-.121c-.088-.044-.088-.11-.01-.209.065-.088.131-.209.22-.363.065-.132.12-.253.153-.374.022-.088.011-.154-.055-.198l-.198-.099c-.143-.066-.209-.22-.209-.451v-.209c0-.275.143-.418.451-.418m4.776-.803h-3.014c-.143 0-.21-.066-.21-.22v-.187q0-.115.199-.462l2.497-4.246c.066-.11.176-.176.352-.176h.66c.176 0 .275.088.275.242v4.4h.715c.12 0 .187.055.187.154v.319c0 .121-.066.176-.187.176h-.715v1.639c0 .132-.066.187-.176.187h-.418c-.11 0-.165-.055-.165-.187zm0-.649v-3.971H67.2l-2.343 3.971zm6.276.308v-.099c0-.517-.121-.902-.341-1.166-.242-.253-.594-.385-1.078-.385a2.4 2.4 0 0 0-1.298.363c-.1.066-.176.077-.242.044l-.165-.066c-.077-.022-.11-.088-.088-.187l.23-3.256c0-.132.078-.198.22-.198h2.883c.132 0 .198.066.198.176v.264c0 .121-.077.176-.22.176H71.32c-.1 0-.154.055-.154.143l-.154 2.222c.34-.22.77-.33 1.298-.33.704 0 1.232.209 1.584.616.308.374.462.902.462 1.562v.121c0 .77-.22 1.342-.638 1.716s-1.001.55-1.771.55a3.8 3.8 0 0 1-1.716-.396c-.121-.055-.165-.132-.121-.231l.11-.297c.033-.11.11-.132.242-.077a2.9 2.9 0 0 0 1.496.385c.55 0 .957-.132 1.21-.407.253-.264.385-.671.385-1.243m3.47 2.123 3.894-7.04a.23.23 0 0 1 .21-.132h.417c.11 0 .143.055.1.143l-3.895 7.04a.26.26 0 0 1-.242.132h-.385c-.11 0-.143-.044-.099-.143m1.43-5.28v.121c0 .759-.143 1.276-.429 1.562q-.33.33-.957.33t-.957-.33c-.286-.286-.429-.803-.429-1.562v-.121c0-.748.143-1.276.43-1.562q.33-.33.956-.33.627 0 .957.33c.286.286.43.814.43 1.562m-.67.11v-.099q0-.759-.166-1.056c-.11-.187-.286-.286-.55-.286s-.45.099-.56.286c-.11.198-.155.55-.155 1.056v.099c0 .517.044.869.154 1.056.11.198.297.286.561.286s.44-.088.55-.286q.165-.28.165-1.056m5.202 3.3v.121c0 .759-.143 1.276-.429 1.562q-.33.33-.957.33t-.957-.33c-.286-.286-.429-.803-.429-1.562v-.121c0-.748.143-1.276.43-1.562q.33-.33.956-.33.627 0 .957.33c.286.286.43.814.43 1.562m-.67.11v-.099q0-.759-.166-1.056c-.11-.187-.286-.286-.55-.286s-.45.099-.56.286c-.11.198-.155.55-.155 1.056v.099c0 .517.044.869.154 1.056.11.198.297.286.561.286s.44-.088.55-.286q.165-.28.165-1.056m2.17 3.047c-.089.11-.177.132-.287.077l-.264-.132c-.099-.044-.12-.121-.055-.209.902-1.199 1.353-2.563 1.353-4.103a7.2 7.2 0 0 0-.308-2.134c-.198-.638-.55-1.298-1.034-1.969-.066-.088-.044-.154.077-.22l.253-.132c.088-.044.176-.022.253.066 1.034 1.331 1.551 2.783 1.551 4.367 0 .803-.12 1.551-.352 2.233-.242.693-.638 1.408-1.188 2.156m3.29-2.266h.11c.308 0 .473.143.473.429v.264c0 .286-.165.429-.473.429h-.11c-.319 0-.473-.143-.473-.429v-.264c0-.286.154-.429.473-.429M1.397 110.293v.297c0 1.21.165 2.002.495 2.387.286.341.726.506 1.309.506.638 0 1.089-.187 1.375-.572.286-.396.429-1.166.429-2.321v-.297c0-.572-.033-1.045-.088-1.419s-.165-.671-.341-.913c-.286-.374-.737-.561-1.375-.561q-.94 0-1.353.561c-.308.396-.451 1.177-.451 2.332m4.411-.132v.572c0 1.276-.231 2.156-.671 2.662-.418.473-1.056.704-1.936.704-.825 0-1.441-.209-1.859-.627-.506-.506-.748-1.419-.748-2.739v-.572c0-1.276.231-2.178.693-2.695.407-.451 1.045-.682 1.914-.682.858 0 1.496.231 1.914.682.462.517.693 1.419.693 2.695M7.998 114h-.463q-.132 0-.132-.132v-4.631h-.67c-.078 0-.11-.033-.11-.121v-.22c0-.088.032-.132.11-.143l.67-.143v-.341c0-.484.077-.847.231-1.111.275-.462.77-.704 1.474-.704.352 0 .638.033.88.099q.132.05.132.165l-.055.308c-.022.099-.088.132-.187.11a3.7 3.7 0 0 0-.66-.066c-.352 0-.605.077-.77.209-.22.176-.33.506-.33 1.001v.33h1.177c.066 0 .11.044.11.11v.407c0 .077-.044.11-.11.11H8.118v4.631c0 .088-.044.132-.12.132m6.06-3.608v.902c0 .154-.032.264-.087.33-.066.066-.165.088-.32.088h-2.837c.022.66.132 1.122.352 1.386.209.264.572.385 1.089.385.429 0 .836-.066 1.21-.22.143-.055.23-.033.264.077l.077.253a.2.2 0 0 1-.011.165q-.034.066-.231.132c-.374.143-.814.209-1.31.209-.802 0-1.363-.198-1.682-.605-.33-.396-.484-1.056-.484-1.969v-.44c0-.88.154-1.529.473-1.947.308-.418.847-.627 1.595-.627.627 0 1.1.154 1.419.451.319.319.484.792.484 1.43m-1.891-1.265c-.484 0-.836.143-1.034.418-.21.286-.32.792-.32 1.54h2.366c.055 0 .099 0 .12-.022.023-.022.034-.066.034-.143v-.418c0-.473-.088-.814-.253-1.023-.198-.231-.495-.352-.913-.352M15.875 114h-.352c-.121 0-.176-.044-.176-.143v-5.126c0-.077.044-.121.132-.121h.319c.066 0 .11.044.132.121l.044.572h.022q.365-.693 1.276-.693h.286c.088 0 .143.044.143.132v.374c0 .088-.055.121-.143.121h-.297c-.484 0-.825.154-1.001.451-.132.22-.198.506-.198.869v3.3c0 .099-.066.143-.187.143m5.262 0h-.517c-.572 0-.99-.143-1.232-.44-.242-.286-.363-.704-.363-1.265v-3.058h-.67c-.078 0-.11-.033-.11-.121v-.22c0-.088.032-.132.11-.143l.67-.143v-1.243q0-.132.132-.132h.462c.077 0 .121.044.121.132v1.243h1.287c.066 0 .11.044.11.11v.407c0 .077-.044.11-.11.11H19.74v2.97c0 .44.066.748.198.902.132.187.407.275.803.275h.396c.088 0 .132.044.132.121v.374c0 .088-.044.121-.132.121m4.196-.11-.022-.374h-.022c-.242.396-.638.583-1.166.583h-.55c-.528 0-.913-.132-1.177-.396s-.396-.605-.396-1.034v-.33q0-1.04.858-1.386c.242-.099.682-.154 1.32-.154h.33c.264 0 .517.011.737.033v-.627c0-.396-.11-.682-.32-.836-.22-.154-.55-.242-1.011-.242-.385 0-.76.055-1.133.165-.176.044-.264.022-.286-.088l-.055-.231c-.044-.132 0-.209.12-.253a5 5 0 0 1 1.409-.209c.704 0 1.21.132 1.518.385s.473.66.473 1.232v3.762c0 .077-.044.11-.121.11h-.363c-.1 0-.143-.033-.143-.11m-.088-1.54v-.913a6 6 0 0 0-.66-.033h-.616c-.462 0-.781.077-.968.22s-.275.385-.275.726v.231c0 .33.077.572.23.715.133.132.364.198.672.198h.45c.364 0 .65-.088.859-.286.198-.198.308-.484.308-.858m5.227-1.155v.209c0 .55.033.946.11 1.21.165.583.594.869 1.276.869s1.111-.286 1.287-.869c.066-.264.11-.66.11-1.21v-.209c0-.539-.044-.946-.11-1.21q-.247-.858-1.287-.858c-.693 0-1.122.286-1.276.858-.077.264-.11.671-.11 1.21m3.509-.11v.44c0 .99-.198 1.683-.572 2.057-.352.352-.869.517-1.551.517s-1.188-.165-1.54-.517c-.385-.374-.572-1.067-.572-2.057v-.44c0-.99.187-1.683.572-2.068.341-.33.858-.506 1.54-.506s1.199.176 1.551.506c.374.385.572 1.078.572 2.068m3.274 2.398c.55 0 .924-.143 1.133-.429.209-.297.319-.825.319-1.573v-.374c0-.792-.154-1.342-.44-1.639-.231-.22-.583-.341-1.045-.341-.473 0-.814.11-1.034.33a.95.95 0 0 0-.242.418c-.044.165-.055.407-.055.715v1.507c0 .44.077.759.23.968.199.286.573.418 1.134.418m-1.364-6.809v2.365h.022q.413-.528 1.386-.528 1.089 0 1.617.627c.34.418.517 1.056.517 1.925v.506c0 .924-.187 1.584-.55 1.958-.363.385-.913.572-1.64.572-.791 0-1.341-.187-1.66-.572-.275-.319-.407-.77-.407-1.353v-5.5c0-.077.044-.121.132-.121h.45c.089 0 .133.044.133.121m5.259 4.521v.209c0 .55.033.946.11 1.21.165.583.594.869 1.276.869s1.11-.286 1.287-.869c.066-.264.11-.66.11-1.21v-.209c0-.539-.044-.946-.11-1.21q-.248-.858-1.287-.858c-.693 0-1.122.286-1.276.858-.077.264-.11.671-.11 1.21m3.509-.11v.44c0 .99-.198 1.683-.572 2.057-.352.352-.87.517-1.551.517-.682 0-1.188-.165-1.54-.517-.385-.374-.572-1.067-.572-2.057v-.44c0-.99.187-1.683.572-2.068.34-.33.858-.506 1.54-.506s1.199.176 1.55.506c.375.385.573 1.078.573 2.068m3.911-2.211h.495c.198 0 .33.11.374.308a59 59 0 0 0 1.001 4.257h.055a60 60 0 0 0 1.023-4.697c0-.066.022-.099.044-.11a.4.4 0 0 1 .154-.022h.341q.115 0 .165.033c.022.022.033.055.033.121q-.363 1.848-1.122 4.785c-.088.308-.242.451-.462.451h-.374c-.143 0-.253-.033-.319-.099-.077-.066-.132-.176-.176-.352a69 69 0 0 1-.946-4.015h-.077a80 80 0 0 1-.946 4.015.74.74 0 0 1-.176.352.48.48 0 0 1-.319.099h-.374c-.23 0-.385-.143-.462-.451q-.775-2.937-1.122-4.785c-.01-.066 0-.099.033-.121q.033-.033.165-.033h.341q.165 0 .198.132a51 51 0 0 0 1.023 4.697h.055a74 74 0 0 0 1.001-4.257c.044-.198.165-.308.374-.308m5.533-.143v5.181c0 .066-.033.088-.099.088h-.528c-.066 0-.088-.022-.088-.088v-5.181c0-.077.044-.121.132-.121h.451c.088 0 .132.044.132.121m.154-1.573v.066c0 .352-.165.528-.484.528h-.044c-.34 0-.506-.176-.506-.528v-.066c0-.341.165-.517.506-.517h.044c.32 0 .484.176.484.517m4.505 6.798-.011-.44h-.022c-.242.396-.638.583-1.166.583h-.55c-.528 0-.913-.132-1.177-.396s-.396-.605-.396-1.034v-.33q0-1.04.858-1.386c.242-.099.682-.154 1.32-.154h.33c.264 0 .517.011.737.033v-.627c0-.396-.11-.682-.319-.836-.22-.154-.55-.242-1.012-.242-.385 0-.759.055-1.133.165-.176.044-.264.022-.286-.088l-.055-.231c-.044-.132 0-.209.121-.253a5 5 0 0 1 1.408-.209c.704 0 1.21.132 1.518.385s.462.66.462 1.232v3.674a.28.28 0 0 1-.099.22c-.264.242-.462.44-.572.616a.93.93 0 0 0-.176.55c0 .264.154.396.473.396.176 0 .352-.033.528-.121.077-.033.132-.011.154.055l.066.308c.022.077-.011.132-.088.165a2.1 2.1 0 0 1-.814.165q-1.056 0-1.056-.825 0-.429.231-.726c.154-.198.396-.418.726-.649m-.077-1.595v-.924a6 6 0 0 0-.66-.033h-.616c-.462 0-.781.077-.968.22s-.275.385-.275.726v.22q0 .511.231.726c.132.132.363.198.671.198h.451c.363 0 .649-.088.858-.286.198-.187.308-.473.308-.847m5.422 1.133v.396c0 .077-.044.11-.11.11h-3.432c-.077 0-.11-.033-.11-.11v-.187c0-.11.066-.264.198-.484l2.42-3.993h-2.431c-.077 0-.11-.033-.11-.11v-.396c0-.066.033-.11.11-.11h3.256c.066 0 .11.044.11.11v.154c0 .132-.1.352-.286.66l-2.365 3.85h2.64c.066 0 .11.044.11.11m4.417-4.884h.462c.077 0 .12.055.12.143v3.696c0 .561-.164.979-.483 1.254-.308.264-.814.396-1.496.396s-1.188-.132-1.496-.396q-.495-.412-.495-1.254v-3.663c0-.11.044-.176.154-.176h.407c.099 0 .154.055.154.154v3.597c0 .407.088.693.286.858q.297.264.99.264c.462 0 .792-.099 1.012-.308.165-.154.253-.429.253-.814v-3.608c0-.088.044-.143.132-.143m2.918.121v5.203c0 .539-.1.968-.275 1.276-.287.506-.782.748-1.486.748h-.395c-.088 0-.121-.044-.121-.132v-.363c0-.088.032-.132.12-.132h.374c.44 0 .748-.165.902-.506.11-.242.165-.55.165-.946v-5.148c0-.077.044-.121.133-.121h.45c.088 0 .133.044.133.121m.154-1.573v.066c0 .352-.166.528-.484.528h-.044c-.341 0-.507-.176-.507-.528v-.066c0-.341.165-.517.506-.517h.045c.319 0 .484.176.484.517m5.219 3.234v.902c0 .154-.033.264-.088.33-.066.066-.165.088-.32.088H73.57c.022.66.132 1.122.352 1.386.209.264.572.385 1.089.385.429 0 .836-.066 1.21-.22.143-.055.23-.033.264.077l.077.253a.2.2 0 0 1-.011.165q-.034.066-.231.132c-.374.143-.814.209-1.31.209-.802 0-1.363-.198-1.682-.605-.33-.396-.484-1.056-.484-1.969v-.44c0-.88.154-1.529.473-1.947.308-.418.847-.627 1.595-.627.627 0 1.1.154 1.419.451.319.319.484.792.484 1.43m-1.892-1.265c-.484 0-.836.143-1.034.418-.21.286-.32.792-.32 1.54h2.366c.055 0 .099 0 .12-.022.023-.022.034-.066.034-.143v-.418c0-.473-.088-.814-.253-1.023-.198-.231-.495-.352-.913-.352M4.752 119.674v5.522c0 .572-.143 1.012-.407 1.331-.33.385-.88.572-1.661.572-.792 0-1.353-.176-1.683-.539-.341-.352-.506-1.012-.506-1.98v-.517c0-.869.165-1.507.517-1.925q.512-.627 1.617-.627.957 0 1.386.528h.022v-2.365c0-.077.044-.121.132-.121h.451c.088 0 .132.044.132.121m-.715 5.423v-1.507c0-.462-.121-.814-.341-1.078-.22-.253-.55-.385-.99-.385-.495 0-.858.132-1.078.374-.275.308-.407.847-.407 1.617v.374q0 1.221.396 1.65c.198.231.55.341 1.056.341.55 0 .935-.132 1.133-.418.154-.209.231-.528.231-.968m2.641-.902v.209c0 .55.033.946.11 1.21.165.583.594.869 1.276.869s1.111-.286 1.287-.869c.066-.264.11-.66.11-1.21v-.209c0-.539-.044-.946-.11-1.21q-.248-.858-1.287-.858c-.693 0-1.122.286-1.276.858-.077.264-.11.671-.11 1.21m3.509-.11v.44c0 .99-.198 1.683-.572 2.057-.352.352-.869.517-1.551.517s-1.188-.165-1.54-.517c-.385-.374-.572-1.067-.572-2.057v-.44c0-.99.187-1.683.572-2.068.341-.33.858-.506 1.54-.506s1.199.176 1.551.506c.374.385.572 1.078.572 2.068m5.654 2.398c.506 0 .902-.121 1.166-.363.23-.22.352-.561.352-1.012v-.099c0-.55-.154-.935-.451-1.144s-.76-.319-1.386-.319h-.33c-.11 0-.154-.044-.154-.143v-.33c0-.099.055-.154.176-.154h.253c1.166 0 1.749-.429 1.749-1.309v-.099q0-.544-.33-.825c-.22-.187-.528-.286-.913-.286-.44 0-.88.088-1.31.253-.153.055-.241.033-.263-.077l-.088-.286c-.033-.099.022-.176.154-.22a4.5 4.5 0 0 1 1.584-.286q.94 0 1.452.429c.34.286.517.693.517 1.243v.143c0 .825-.385 1.353-1.133 1.584v.033c.374.077.67.264.913.561.242.308.363.693.363 1.166v.143c0 1.342-.77 2.013-2.288 2.013a6 6 0 0 1-1.672-.22c-.132-.033-.176-.11-.154-.22l.066-.286c.022-.11.099-.154.242-.11.462.154.957.22 1.485.22m6.517-.099h1.54q.165 0 .165.165v.308c0 .099-.055.143-.165.143h-3.883q-.165 0-.165-.165v-.286q0-.165.165-.165H21.6v-5.753h-.077l-1.133.682c-.099.066-.176.044-.23-.055l-.177-.286c-.066-.088-.044-.154.055-.209l1.21-.748a.85.85 0 0 1 .473-.132h.374q.264 0 .264.231zm3.34-.407h.11c.307 0 .472.143.472.429v.264c0 .286-.165.429-.473.429h-.11c-.319 0-.473-.143-.473-.429v-.264c0-.286.154-.429.473-.429m6.262-2.684v.297c0 1.419-.242 2.387-.715 2.915-.352.396-.88.594-1.573.594-.704 0-1.22-.198-1.573-.594-.483-.528-.715-1.496-.715-2.915v-.297c0-1.408.232-2.387.715-2.915.352-.396.87-.594 1.573-.594.694 0 1.221.198 1.573.594.473.528.715 1.507.715 2.915m-3.773.077v.143c0 1.188.133 1.991.418 2.42.22.374.584.55 1.067.55.485 0 .837-.176 1.067-.55.276-.429.418-1.232.418-2.42v-.143c0-1.177-.142-1.98-.418-2.42-.23-.363-.582-.55-1.067-.55-.483 0-.846.187-1.067.55-.285.44-.418 1.243-.418 2.42m6.914 3.113c.506 0 .902-.121 1.166-.363.231-.22.352-.561.352-1.012v-.099c0-.55-.154-.935-.45-1.144-.298-.209-.76-.319-1.387-.319h-.33c-.11 0-.154-.044-.154-.143v-.33c0-.099.055-.154.176-.154h.253c1.166 0 1.75-.429 1.75-1.309v-.099q0-.544-.33-.825c-.22-.187-.529-.286-.914-.286-.44 0-.88.088-1.309.253-.154.055-.242.033-.264-.077l-.088-.286c-.033-.099.022-.176.154-.22a4.5 4.5 0 0 1 1.584-.286q.94 0 1.452.429c.341.286.517.693.517 1.243v.143c0 .825-.385 1.353-1.133 1.584v.033c.374.077.671.264.913.561.242.308.363.693.363 1.166v.143c0 1.342-.77 2.013-2.288 2.013a6 6 0 0 1-1.672-.22c-.132-.033-.176-.11-.154-.22l.066-.286c.022-.11.1-.154.242-.11.462.154.957.22 1.485.22m4.142-.506h.11c.308 0 .473.143.473.429v.264c0 .286-.165.429-.473.429h-.11c-.319 0-.473-.143-.473-.429v-.264c0-.286.154-.429.473-.429m2.237-5.896a5.3 5.3 0 0 1 1.727-.297c.65 0 1.144.132 1.474.374q.594.462.594 1.419v.143c0 .517-.12.924-.34 1.21-.232.297-.628.561-1.178.803l-.759.33c-.429.187-.715.418-.858.704s-.209.704-.209 1.232v.385h3.07c.087 0 .142.055.142.143v.33c0 .099-.055.143-.143.143h-3.575c-.099 0-.165-.011-.198-.055-.044-.044-.055-.11-.055-.209v-.638c0-.66.1-1.188.308-1.606.198-.407.583-.737 1.133-.979l.76-.33c.428-.187.714-.385.868-.594q.231-.297.231-.858v-.077c0-.462-.12-.803-.363-1.001-.22-.165-.539-.253-.957-.253-.462 0-.957.099-1.474.275-.154.055-.242.022-.264-.088l-.088-.286c-.022-.099.022-.176.154-.22m9.741 3.212v.297c0 1.419-.242 2.387-.715 2.915-.352.396-.88.594-1.573.594-.704 0-1.22-.198-1.573-.594-.484-.528-.715-1.496-.715-2.915v-.297c0-1.408.231-2.387.715-2.915.352-.396.87-.594 1.573-.594.693 0 1.221.198 1.573.594.473.528.715 1.507.715 2.915m-3.773.077v.143c0 1.188.132 1.991.418 2.42.22.374.583.55 1.067.55s.836-.176 1.067-.55c.275-.429.418-1.232.418-2.42v-.143c0-1.177-.143-1.98-.418-2.42-.23-.363-.583-.55-1.067-.55s-.847.187-1.067.55c-.286.44-.418 1.243-.418 2.42m5.462-3.289a5.3 5.3 0 0 1 1.727-.297c.65 0 1.144.132 1.474.374q.594.462.594 1.419v.143c0 .517-.12.924-.34 1.21-.232.297-.628.561-1.178.803l-.759.33c-.429.187-.715.418-.858.704s-.209.704-.209 1.232v.385h3.07c.087 0 .142.055.142.143v.33c0 .099-.055.143-.143.143h-3.575c-.099 0-.165-.011-.198-.055-.044-.044-.055-.11-.055-.209v-.638c0-.66.1-1.188.308-1.606.198-.407.583-.737 1.133-.979l.76-.33c.428-.187.714-.385.868-.594q.231-.297.231-.858v-.077c0-.462-.12-.803-.363-1.001-.22-.165-.539-.253-.957-.253-.462 0-.957.099-1.474.275-.154.055-.242.022-.264-.088l-.088-.286c-.022-.099.022-.176.154-.22m9.103-.143c.132.044.187.121.165.209l-.077.275c-.044.121-.121.165-.231.121a3.7 3.7 0 0 0-1.001-.143c-.605 0-1.067.22-1.386.649-.286.385-.473 1.067-.54 2.046.199-.165.44-.297.749-.407.308-.099.605-.154.902-.154.627 0 1.122.187 1.474.55s.539.869.539 1.518v.198c0 .715-.198 1.276-.583 1.683-.396.418-.924.616-1.606.616-.836 0-1.43-.264-1.782-.803-.352-.528-.517-1.342-.517-2.442v-.264c0-.638.066-1.221.209-1.771q.198-.825.594-1.254c.45-.517 1.122-.781 2.002-.781.44 0 .803.055 1.089.154m-1.562 3.245c-.572 0-1.078.231-1.53.671v.154c0 .836.11 1.463.33 1.87s.595.605 1.123.605c.45 0 .803-.132 1.056-.418.242-.286.374-.693.374-1.232v-.143q0-.743-.363-1.122c-.242-.253-.572-.385-.99-.385m3.768 2.794h.11c.308 0 .473.143.473.429v.264c0 .286-.165.429-.473.429h-.11c-.32 0-.473-.143-.473-.429v-.264c0-.286.154-.429.473-.429M2.387 140.099c-.682 0-1.287-.099-1.826-.319-.099-.033-.132-.099-.11-.187l.088-.363c.022-.11.099-.132.231-.088a3.8 3.8 0 0 0 1.595.341c.506 0 .891-.11 1.155-.341s.396-.561.396-1.001v-.121c0-.396-.088-.682-.242-.858s-.462-.33-.924-.44l-.737-.176c-.539-.132-.935-.33-1.188-.616-.253-.275-.374-.66-.374-1.166v-.165c0-.583.187-1.034.561-1.342s.891-.473 1.551-.473c.594 0 1.111.077 1.573.209.121.044.165.121.143.242l-.077.264q-.05.165-.264.099a4.8 4.8 0 0 0-1.353-.198c-.913 0-1.364.407-1.364 1.21v.11c0 .374.088.638.264.803s.473.297.891.385l.693.165c.594.143 1.012.352 1.254.616q.363.412.363 1.221v.176c0 .671-.198 1.177-.594 1.507-.396.341-.957.506-1.705.506m6.741-.605v.396c0 .077-.044.11-.11.11H5.586c-.077 0-.11-.033-.11-.11v-.187c0-.11.066-.264.198-.484l2.42-3.993h-2.43c-.078 0-.11-.033-.11-.11v-.396c0-.066.032-.11.11-.11h3.255c.066 0 .11.044.11.11v.154c0 .132-.099.352-.286.66l-2.365 3.85h2.64c.066 0 .11.044.11.11m4.34-.143.077.253q.033.115 0 .165c-.022.033-.077.066-.187.11-.363.154-.78.22-1.254.22-.682 0-1.188-.154-1.518-.473-.429-.385-.638-1.111-.638-2.178v-.363c0-.968.22-1.661.671-2.079q.528-.495 1.485-.495c.286 0 .583.055.87.143.285.099.527.209.703.341.055.044.055.11.011.176l-.187.308c-.044.066-.099.077-.187.022-.418-.242-.814-.374-1.21-.374-.429 0-.759.121-.99.341-.297.297-.44.869-.44 1.716v.187c0 .836.11 1.408.352 1.694.22.286.583.418 1.111.418.352 0 .704-.066 1.067-.209.143-.055.231-.033.264.077m4.533.143v.396c0 .077-.044.11-.11.11H14.46c-.077 0-.11-.033-.11-.11v-.187c0-.11.066-.264.198-.484l2.42-3.993h-2.43c-.078 0-.11-.033-.11-.11v-.396c0-.066.032-.11.11-.11h3.255c.066 0 .11.044.11.11v.154c0 .132-.099.352-.286.66l-2.365 3.85h2.64c.066 0 .11.044.11.11m4.791-3.102v.902c0 .154-.033.264-.088.33-.066.066-.165.088-.319.088h-2.838c.022.66.132 1.122.352 1.386.21.264.572.385 1.09.385.428 0 .835-.066 1.21-.22.142-.055.23-.033.263.077l.077.253a.2.2 0 0 1-.01.165q-.034.066-.232.132c-.374.143-.814.209-1.309.209-.803 0-1.364-.198-1.683-.605-.33-.396-.484-1.056-.484-1.969v-.44c0-.88.154-1.529.473-1.947.308-.418.847-.627 1.595-.627.627 0 1.1.154 1.42.451.318.319.483.792.483 1.43m-1.892-1.265c-.484 0-.836.143-1.034.418-.209.286-.319.792-.319 1.54h2.365c.055 0 .1 0 .121-.022.022-.022.033-.066.033-.143v-.418c0-.473-.088-.814-.253-1.023-.198-.231-.495-.352-.913-.352m6.502 3.333a2 2 0 0 1-.286.22c.627.407.946.924.946 1.54v.121c0 .594-.198 1.023-.594 1.298-.396.286-.946.418-1.628.418a4.4 4.4 0 0 1-1.99-.451c-.078-.033-.11-.088-.089-.176l.121-.33q.033-.132.198-.066a3.8 3.8 0 0 0 1.683.407c.528 0 .924-.077 1.166-.242q.363-.248.363-.891v-.088c0-.572-.275-1.012-.814-1.298a2.7 2.7 0 0 1-.649.055c-.627 0-1.11-.132-1.463-.407-.385-.33-.572-.858-.572-1.606v-.451c0-.759.187-1.298.572-1.617.308-.253.803-.385 1.463-.385.154 0 .275.011.352.011.176-.528.594-.803 1.232-.803h.264c.1 0 .154.055.154.154v.429c0 .011-.01.022-.01.033-.012.011-.023.022-.045.022-.022.011-.055.011-.077.011h-.33c-.286 0-.462.099-.55.275.198.077.363.165.484.253.374.319.572.858.572 1.617v.451c0 .649-.165 1.144-.473 1.496m-2.86-1.87v.286c0 .352.033.649.121.869.154.451.55.671 1.166.671.627 0 1.023-.22 1.188-.671.066-.209.11-.506.11-.88v-.275c0-.374-.044-.66-.11-.858a.9.9 0 0 0-.418-.506c-.187-.099-.44-.154-.77-.154-.319 0-.572.055-.759.154s-.319.264-.407.506c-.088.22-.12.506-.12.858m5.21.605v.209c0 .55.033.946.11 1.21.165.583.594.869 1.276.869s1.111-.286 1.287-.869c.066-.264.11-.66.11-1.21v-.209c0-.539-.044-.946-.11-1.21q-.247-.858-1.287-.858c-.693 0-1.122.286-1.276.858-.077.264-.11.671-.11 1.21m3.51-.11v.44c0 .99-.199 1.683-.573 2.057-.352.352-.869.517-1.55.517-.683 0-1.189-.165-1.54-.517-.386-.374-.573-1.067-.573-2.057v-.44c0-.99.187-1.683.572-2.068.341-.33.858-.506 1.54-.506s1.2.176 1.551.506c.374.385.572 1.078.572 2.068m-3.18-3.949 1.87-.913c.143-.066.242-.033.297.077l.187.385c.044.11-.01.198-.143.264l-1.88.715c-.144.055-.232.033-.276-.066l-.11-.242c-.044-.099-.033-.176.055-.22m5.177-.462v2.838l1.089-.715c.121-.066.187-.033.187.121v.385a.34.34 0 0 1-.165.308l-1.111.737v2.211q0 .578.099.693c.055.088.187.121.396.121h.297c.088 0 .132.044.132.121v.374c0 .088-.044.132-.11.132h-.418c-.396 0-.682-.077-.847-.253-.176-.176-.264-.517-.264-1.012v-1.914l-.759.495c-.132.077-.187.033-.187-.121v-.385c0-.132.055-.231.165-.308l.781-.517v-3.311c0-.077.044-.121.132-.121h.451c.088 0 .132.044.132.121m2.716 9.009c.297-.583.561-1.166.803-1.76-.33 0-.583-.231-.737-.693a24 24 0 0 1-.616-1.892 48 48 0 0 1-.67-2.585c-.023-.088.01-.143.12-.143h.495c.066 0 .1.033.121.099.154.781.352 1.595.583 2.442.121.484.308 1.078.55 1.782.044.132.088.231.143.275.044.055.121.077.21.077h.043c.418-1.144.814-2.673 1.2-4.587.01-.055.054-.088.12-.088h.506c.044 0 .066.011.088.033s.022.044.022.066c-.34 1.595-.693 2.915-1.045 3.971a35 35 0 0 1-1.287 3.278c-.044.099-.12.121-.23.077l-.364-.132c-.099-.033-.12-.11-.055-.22m7.46-6.952v5.181c0 .066-.034.088-.1.088h-.528c-.066 0-.088-.022-.088-.088v-5.181c0-.077.044-.121.132-.121h.451c.088 0 .132.044.132.121m.153-1.573v.066c0 .352-.165.528-.484.528h-.044c-.34 0-.506-.176-.506-.528v-.066c0-.341.165-.517.506-.517h.044c.32 0 .484.176.484.517M50.207 140h-.352c-.121 0-.176-.044-.176-.143v-5.126c0-.077.044-.121.132-.121h.319c.066 0 .11.044.132.121l.044.572h.022q.365-.693 1.276-.693h.286c.088 0 .143.044.143.132v.374c0 .088-.055.121-.143.121h-.297c-.484 0-.825.154-1.001.451-.132.22-.198.506-.198.869v3.3c0 .099-.066.143-.187.143m6.509-3.608v.902c0 .154-.033.264-.088.33-.066.066-.165.088-.319.088h-2.838c.022.66.132 1.122.352 1.386.209.264.572.385 1.089.385.429 0 .836-.066 1.21-.22.143-.055.231-.033.264.077l.077.253a.2.2 0 0 1-.011.165q-.033.066-.231.132c-.374.143-.814.209-1.309.209-.803 0-1.364-.198-1.683-.605-.33-.396-.484-1.056-.484-1.969v-.44c0-.88.154-1.529.473-1.947.308-.418.847-.627 1.595-.627.627 0 1.1.154 1.419.451.319.319.484.792.484 1.43m-1.892-1.265c-.484 0-.836.143-1.034.418-.209.286-.319.792-.319 1.54h2.365c.055 0 .099 0 .121-.022s.033-.066.033-.143v-.418c0-.473-.088-.814-.253-1.023-.198-.231-.495-.352-.913-.352m6.502 3.333a2 2 0 0 1-.286.22c.627.407.946.924.946 1.54v.121c0 .594-.198 1.023-.594 1.298-.396.286-.946.418-1.628.418a4.4 4.4 0 0 1-1.99-.451c-.078-.033-.11-.088-.089-.176l.121-.33q.033-.132.198-.066a3.8 3.8 0 0 0 1.683.407c.528 0 .924-.077 1.166-.242q.363-.248.363-.891v-.088c0-.572-.275-1.012-.814-1.298a2.7 2.7 0 0 1-.649.055c-.627 0-1.11-.132-1.463-.407-.385-.33-.572-.858-.572-1.606v-.451c0-.759.187-1.298.572-1.617.308-.253.803-.385 1.463-.385.154 0 .275.011.352.011.176-.528.594-.803 1.232-.803h.264c.1 0 .154.055.154.154v.429c0 .011-.01.022-.01.033-.012.011-.023.022-.045.022-.022.011-.055.011-.077.011h-.33c-.286 0-.462.099-.55.275.198.077.363.165.484.253.374.319.572.858.572 1.617v.451c0 .649-.165 1.144-.473 1.496m-2.86-1.87v.286c0 .352.033.649.121.869.154.451.55.671 1.166.671.627 0 1.023-.22 1.188-.671.066-.209.11-.506.11-.88v-.275c0-.374-.044-.66-.11-.858a.9.9 0 0 0-.418-.506c-.187-.099-.44-.154-.77-.154-.319 0-.572.055-.759.154s-.319.264-.407.506c-.088.22-.12.506-.12.858m8.081-1.98h.462c.077 0 .121.055.121.143v3.696c0 .561-.165.979-.484 1.254-.308.264-.814.396-1.496.396s-1.188-.132-1.496-.396q-.495-.412-.495-1.254v-3.663c0-.11.044-.176.154-.176h.407c.1 0 .154.055.154.154v3.597c0 .407.088.693.286.858q.297.264.99.264c.462 0 .792-.099 1.012-.308.165-.154.253-.429.253-.814v-3.608c0-.088.044-.143.132-.143m2.797-1.936v5.885q0 .578.099.693c.055.088.187.121.396.121h.297c.088 0 .132.044.132.121v.374c0 .088-.044.132-.11.132h-.418c-.396 0-.682-.077-.847-.253-.176-.176-.264-.517-.264-1.012v-6.061c0-.077.044-.121.132-.121h.45c.089 0 .133.044.133.121m5.037 7.216-.022-.374h-.022c-.242.396-.638.583-1.166.583h-.55c-.528 0-.913-.132-1.177-.396s-.396-.605-.396-1.034v-.33q0-1.04.858-1.386c.242-.099.682-.154 1.32-.154h.33c.264 0 .517.011.737.033v-.627c0-.396-.11-.682-.319-.836-.22-.154-.55-.242-1.012-.242-.385 0-.759.055-1.133.165-.176.044-.264.022-.286-.088l-.055-.231c-.044-.132 0-.209.121-.253a5 5 0 0 1 1.408-.209c.704 0 1.21.132 1.518.385s.473.66.473 1.232v3.762c0 .077-.044.11-.12.11h-.364c-.099 0-.143-.033-.143-.11m-.088-1.54v-.913a6 6 0 0 0-.66-.033h-.616c-.462 0-.78.077-.968.22s-.275.385-.275.726v.231c0 .33.077.572.231.715.132.132.363.198.671.198h.451c.363 0 .65-.088.858-.286.198-.198.308-.484.308-.858m2.177 1.485v-5.104c0-.077.033-.121.12-.121h.32c.077 0 .12.044.132.121l.055.44h.022c.088-.154.242-.286.45-.418.276-.154.617-.242 1.024-.242.77 0 1.32.253 1.639.759h.022c.385-.506.957-.759 1.705-.759.66 0 1.144.176 1.452.517.286.341.44.891.44 1.639v3.168c0 .11-.066.165-.176.165H83.3q-.165 0-.165-.165v-3.212c0-.506-.1-.869-.275-1.111-.22-.253-.55-.385-1.012-.385q-.891 0-1.386.66c.044.286.066.583.066.88v3.168q0 .165-.165.165h-.374c-.121 0-.176-.055-.176-.165v-3.212q0-.808-.33-1.155c-.22-.22-.572-.341-1.034-.341-.506 0-.87.154-1.067.462q-.198.297-.198.858v3.388q0 .165-.165.165h-.385q-.165 0-.165-.165m9.699-5.104v5.181c0 .066-.033.088-.1.088h-.527c-.066 0-.088-.022-.088-.088v-5.181c0-.077.044-.121.132-.121h.45c.089 0 .133.044.133.121m.154-1.573v.066c0 .352-.165.528-.484.528h-.044c-.341 0-.506-.176-.506-.528v-.066c0-.341.165-.517.506-.517h.044c.319 0 .484.176.484.517m5.604 6.655c0 .132-.077.187-.209.187h-.308q-.132 0-.165-.033c-.022-.022-.033-.066-.033-.154v-3.212c0-.649-.176-1.078-.506-1.287-.22-.132-.517-.209-.89-.209q-.779 0-1.079.462-.198.297-.198.858v3.41q0 .165-.198.165h-.34c-.122 0-.177-.055-.177-.165v-5.104c0-.077.033-.121.11-.121h.33c.077 0 .121.044.132.121l.055.44h.022c.088-.154.242-.286.451-.418.275-.154.616-.242 1.034-.242.847 0 1.42.253 1.705.737q.264.462.264 1.419zm1.924-5.027h.11c.308 0 .473.143.473.429v.264c0 .286-.165.429-.473.429h-.11c-.32 0-.473-.143-.473-.429v-.264c0-.286.154-.429.473-.429m0 4.191h.11c.308 0 .473.143.473.429v.264c0 .286-.165.429-.473.429h-.11c-.32 0-.473-.143-.473-.429v-.264c0-.286.154-.429.473-.429M4.092 147.61h.462c.077 0 .121.055.121.143v3.696c0 .561-.165.979-.484 1.254-.308.264-.814.396-1.496.396s-1.188-.132-1.496-.396q-.495-.412-.495-1.254v-3.663c0-.11.044-.176.154-.176h.407c.099 0 .154.055.154.154v3.597c0 .407.088.693.286.858q.297.264.99.264c.462 0 .792-.099 1.012-.308.165-.154.253-.429.253-.814v-3.608c0-.088.044-.143.132-.143m6.152 5.203c0 .132-.077.187-.21.187h-.307q-.132 0-.165-.033c-.022-.022-.033-.066-.033-.154v-3.212c0-.649-.176-1.078-.506-1.287-.22-.132-.517-.209-.891-.209-.517 0-.88.154-1.078.462q-.198.297-.198.858v3.41q0 .165-.198.165h-.341c-.121 0-.176-.055-.176-.165v-5.104c0-.077.033-.121.11-.121h.33c.077 0 .12.044.132.121l.055.44h.022c.088-.154.242-.286.45-.418.276-.154.617-.242 1.035-.242.847 0 1.419.253 1.705.737q.264.462.264 1.419zm2.32-5.082v5.181c0 .066-.034.088-.1.088h-.528c-.066 0-.088-.022-.088-.088v-5.181c0-.077.044-.121.132-.121h.451c.088 0 .132.044.132.121m.153-1.573v.066c0 .352-.165.528-.484.528h-.044q-.508 0-.506-.528v-.066c0-.341.165-.517.506-.517h.044c.32 0 .484.176.484.517m4.758 6.193.077.253q.033.115 0 .165c-.022.033-.077.066-.187.11-.363.154-.781.22-1.254.22-.682 0-1.188-.154-1.518-.473-.429-.385-.638-1.111-.638-2.178v-.363c0-.968.22-1.661.671-2.079q.528-.495 1.485-.495c.286 0 .583.055.869.143.286.099.528.209.704.341.055.044.055.11.011.176l-.187.308c-.044.066-.099.077-.187.022-.418-.242-.814-.374-1.21-.374-.429 0-.759.121-.99.341-.297.297-.44.869-.44 1.716v.187c0 .836.11 1.408.352 1.694.22.286.583.418 1.111.418.352 0 .704-.066 1.067-.209.143-.055.231-.033.264.077m1.805.649h-.352c-.12 0-.176-.044-.176-.143v-5.126c0-.077.044-.121.132-.121h.32c.065 0 .11.044.131.121l.044.572h.022c.242-.462.671-.693 1.276-.693h.286c.088 0 .143.044.143.132v.374c0 .088-.055.121-.143.121h-.297c-.484 0-.825.154-1 .451-.133.22-.199.506-.199.869v3.3c0 .099-.066.143-.187.143m6.51-3.608v.902c0 .154-.034.264-.089.33-.066.066-.165.088-.319.088h-2.838c.022.66.132 1.122.352 1.386.21.264.572.385 1.09.385.428 0 .835-.066 1.21-.22.142-.055.23-.033.263.077l.077.253a.2.2 0 0 1-.01.165q-.034.066-.232.132c-.374.143-.814.209-1.309.209-.803 0-1.364-.198-1.683-.605-.33-.396-.484-1.056-.484-1.969v-.44c0-.88.154-1.529.473-1.947.308-.418.847-.627 1.595-.627.627 0 1.1.154 1.42.451.318.319.483.792.483 1.43m-1.893-1.265c-.484 0-.836.143-1.034.418-.209.286-.319.792-.319 1.54h2.365c.055 0 .1 0 .121-.022.022-.022.033-.066.033-.143v-.418c0-.473-.088-.814-.253-1.023-.198-.231-.495-.352-.913-.352m7.173-2.453v5.522c0 .572-.143 1.012-.407 1.331-.33.385-.88.572-1.66.572-.793 0-1.354-.176-1.684-.539q-.508-.528-.506-1.98v-.517c0-.869.165-1.507.517-1.925q.512-.627 1.617-.627.957 0 1.386.528h.022v-2.365c0-.077.044-.121.132-.121h.451c.088 0 .132.044.132.121m-.715 5.423v-1.507c0-.462-.12-.814-.34-1.078-.22-.253-.55-.385-.99-.385-.496 0-.859.132-1.079.374-.275.308-.407.847-.407 1.617v.374q0 1.221.396 1.65c.198.231.55.341 1.056.341.55 0 .935-.132 1.133-.418.154-.209.231-.528.231-.968m3.037-3.366v5.181c0 .066-.033.088-.099.088h-.528c-.066 0-.088-.022-.088-.088v-5.181c0-.077.044-.121.132-.121h.451c.088 0 .132.044.132.121m.154-1.573v.066c0 .352-.165.528-.484.528h-.044c-.34 0-.506-.176-.506-.528v-.066c0-.341.165-.517.506-.517h.044c.32 0 .484.176.484.517M37.347 153h-.517c-.572 0-.99-.143-1.232-.44-.242-.286-.363-.704-.363-1.265v-3.058h-.67c-.078 0-.11-.033-.11-.121v-.22c0-.088.032-.132.11-.143l.67-.143v-1.243q0-.132.132-.132h.462c.077 0 .121.044.121.132v1.243h1.287c.066 0 .11.044.11.11v.407c0 .077-.044.11-.11.11H35.95v2.97c0 .44.066.748.198.902.132.187.407.275.803.275h.396c.088 0 .132.044.132.121v.374c0 .088-.044.121-.132.121m1.423-1.023h.11c.308 0 .473.143.473.429v.264c0 .286-.165.429-.473.429h-.11c-.319 0-.473-.143-.473-.429v-.264c0-.286.155-.429.474-.429m4.086 1.122c-.704 0-1.21-.187-1.507-.583h-.022v2.31c0 .088-.044.121-.11.121h-.495c-.077 0-.11-.033-.11-.121v-7.095c0-.077.033-.121.11-.121h.33c.077 0 .12.044.132.121l.066.44h.022c.308-.44.847-.66 1.595-.66.715 0 1.232.198 1.54.594s.473 1.012.473 1.87v.572q0 1.27-.462 1.914c-.308.429-.825.638-1.562.638m-.088-4.972c-.968 0-1.441.462-1.441 1.386v1.551c0 .473.12.825.385 1.067.253.242.616.352 1.078.352.484 0 .847-.132 1.067-.407q.297-.363.297-1.584v-.418c0-.77-.121-1.298-.341-1.573-.22-.242-.561-.374-1.045-.374m4.114-2.453v5.885q0 .578.099.693c.055.088.187.121.396.121h.297c.088 0 .132.044.132.121v.374c0 .088-.044.132-.11.132h-.418c-.396 0-.682-.077-.847-.253-.176-.176-.264-.517-.264-1.012v-6.061c0-.077.044-.121.132-.121h.451c.088 0 .132.044.132.121"/></svg>