<svg xmlns="http://www.w3.org/2000/svg" fill="none" viewBox="0 0 92 34"><path fill="#fff" d="M2.558 6.7H2.6c.318-.52.853-.78 1.618-.78h.578c.145 0 .26.028.318.086s.101.16.101.318V7.38c0 .159-.028.26-.086.318q-.088.087-.304.087h-.433c-.535 0-.896.1-1.098.303-.174.173-.246.506-.246.997v3.497c0 .144-.043.26-.116.318-.072.072-.202.101-.375.101h-1.33c-.188 0-.318-.029-.39-.101-.072-.058-.101-.174-.101-.318V6.324c0-.144.029-.246.101-.303.072-.058.202-.101.39-.101h.694a.7.7 0 0 1 .347.072q.108.086.173.26zM8.11 8.896v1.127c0 .564.087.925.26 1.098.13.145.332.203.607.203h.058c.26 0 .462-.058.607-.203.173-.173.26-.534.26-1.098V8.896c0-.549-.087-.925-.26-1.098-.145-.13-.347-.202-.607-.202h-.058c-.275 0-.477.072-.607.202-.173.173-.26.55-.26 1.098m4.118.087v.94c0 .722-.072 1.27-.217 1.675a2.07 2.07 0 0 1-.693.968c-.477.376-1.214.564-2.226.564H8.92c-1.011 0-1.763-.188-2.225-.564A2.07 2.07 0 0 1 6 11.599c-.144-.404-.217-.953-.217-1.676v-.925c0-.708.073-1.257.217-1.661s.376-.723.694-.983c.462-.376 1.214-.564 2.225-.564h.173c1.012 0 1.749.188 2.226.564.318.26.549.578.693.968.145.405.217.954.217 1.662m1.05-.737v-.188c0-.708.187-1.243.563-1.618.434-.434 1.17-.65 2.197-.65h.144c.81 0 1.517.086 2.11.26q.173.064.216.13c.03.057.044.13.03.245l-.16 1.185c-.029.188-.159.246-.39.188-.578-.13-1.098-.202-1.532-.202h-.014c-.318 0-.549.029-.665.086-.13.058-.187.16-.187.304v.043c0 .145.043.246.159.304.115.057.332.13.664.188l.68.144c.62.145 1.069.361 1.329.65s.39.737.39 1.33v.216c0 1.518-.954 2.27-2.832 2.27h-.145c-.953 0-1.748-.131-2.413-.391-.13-.043-.217-.101-.246-.174-.028-.057-.028-.173 0-.332l.203-.954c.043-.274.202-.36.491-.274.665.231 1.243.332 1.734.332h.043c.318 0 .535-.029.665-.1.116-.059.188-.174.188-.333v-.044a.31.31 0 0 0-.16-.274q-.172-.087-.693-.217l-.636-.144q-.953-.218-1.343-.65c-.26-.29-.39-.723-.39-1.33m10.55-2.457h.115c.838 0 1.46.203 1.836.593.346.376.534 1.011.534 1.907v4.292c0 .144-.043.26-.115.318-.073.072-.203.101-.376.101h-1.33c-.187 0-.317-.029-.39-.101-.072-.058-.1-.174-.1-.318V8.49c0-.317-.059-.548-.16-.664-.115-.116-.332-.188-.636-.188h-.086c-.318 0-.52.072-.636.188-.116.115-.159.347-.159.665v4.089c0 .144-.043.26-.116.318-.072.072-.202.101-.375.101h-1.33c-.187 0-.318-.029-.39-.101-.072-.058-.101-.174-.101-.318V6.324c0-.144.029-.246.101-.303.072-.058.203-.101.39-.101h.68c.173 0 .288.028.36.072q.109.065.174.26l.087.274h.043c.463-.49 1.113-.737 1.98-.737m8.038 6.619h-.03c-.317.49-.953.722-1.892.722h-.217c-.737 0-1.315-.188-1.72-.564-.419-.375-.62-.939-.62-1.661v-.16c0-.78.216-1.343.664-1.66.448-.319 1.17-.478 2.182-.478h.1c.377 0 .723.03 1.012.058v-.303c0-.304-.086-.52-.245-.636-.174-.101-.463-.16-.867-.16-.492 0-1.04.088-1.676.246-.174.044-.304.044-.362 0-.072-.043-.115-.13-.13-.274l-.115-.766c-.03-.144-.03-.246-.03-.289 0-.173.116-.303.348-.376a9.3 9.3 0 0 1 2.47-.318c1.113 0 1.908.246 2.37.708.362.376.55.983.55 1.807v4.291c0 .217-.087.347-.232.405a2.34 2.34 0 0 0-.896.607c-.245.26-.36.535-.36.81v.043q0 .39.39.39h.043c.173 0 .39-.03.62-.116.073-.014.131-.029.174-.029.073 0 .13.072.174.188l.072.303c.043.203.072.304.072.333 0 .087-.072.159-.202.216a3.2 3.2 0 0 1-1.17.217h-.087c-.491 0-.882-.1-1.142-.318-.26-.216-.39-.52-.39-.896v-.072c0-.347.116-.679.361-.997.232-.318.55-.578.925-.78zm-.52-1.85v-.405a4 4 0 0 0-.694-.043h-.16q-.52 0-.736.13c-.145.087-.202.26-.202.52v.058c0 .26.057.434.202.52.13.101.332.145.607.145h.101c.289 0 .506-.072.68-.217.13-.116.201-.361.201-.708m7.061.708h.116c.39 0 .81-.058 1.257-.188.145-.029.231-.043.275-.043.144 0 .23.086.26.245l.13.737c.029.203.058.333.058.39 0 .174-.13.304-.376.39-.636.232-1.33.333-2.08.333h-.174c-1.04 0-1.806-.231-2.283-.723q-.737-.735-.737-2.47v-.838c0-.68.057-1.214.173-1.59q.174-.564.564-.954c.505-.505 1.3-.766 2.384-.766h.144c.867 0 1.619.16 2.226.477.173.101.274.217.274.362 0 .086-.043.23-.115.433l-.275.694q-.108.26-.303.26a.6.6 0 0 1-.26-.073c-.463-.187-.896-.288-1.286-.288h-.058c-.376 0-.65.1-.824.274-.217.217-.318.665-.318 1.33v.49c0 .593.087.998.29 1.215.187.202.505.303.938.303M36.63 4.012 38.9 2.076a.4.4 0 0 1 .274-.13c.101 0 .203.072.29.188l.693.896a.42.42 0 0 1 .087.245c0 .116-.087.231-.232.347l-2.283 1.56a.5.5 0 0 1-.289.102c-.115 0-.23-.058-.346-.203l-.434-.505c-.116-.13-.159-.246-.159-.333 0-.086.043-.173.13-.23M3.05 25.592v1.85c0 .333.058.564.202.694.116.13.333.188.65.188h.13c.333 0 .564-.087.709-.29q.173-.26.173-1.256v-.622c0-.722-.072-1.17-.188-1.315-.13-.144-.376-.23-.722-.23h-.058c-.332 0-.564.071-.708.216-.13.13-.188.39-.188.766m0-2.412h.029q.628-.39 1.647-.39h.13c.867 0 1.503.26 1.893.78.318.448.491 1.242.491 2.384v1.04c0 1.156-.245 1.966-.736 2.413-.52.492-1.344.723-2.471.723h-.29c-1.184 0-1.994-.231-2.427-.708-.39-.42-.578-1.098-.578-2.052v-6.734c0-.144.029-.245.101-.317.058-.058.188-.102.376-.102h1.344c.173 0 .303.044.375.102a.43.43 0 0 1 .116.317zm8.874 5.086h.16a6.3 6.3 0 0 0 1.53-.188c.145-.029.232-.043.275-.043.145 0 .232.087.26.245l.116.723c.029.202.058.332.058.39 0 .174-.13.303-.376.39a6.6 6.6 0 0 1-2.182.347h-.274q-1.777 0-2.515-.737a2.07 2.07 0 0 1-.578-.983c-.1-.375-.144-.881-.144-1.502v-.81c0-1.257.289-2.138.867-2.658.491-.434 1.243-.65 2.269-.65h.202c1.011 0 1.748.245 2.182.722.462.52.693 1.373.693 2.587v.75c0 .275-.144.406-.419.406H10.58v.115c0 .347.087.578.29.708.187.13.534.188 1.054.188m-1.344-2.514h1.59c.115 0 .173-.058.173-.188v-.231c0-.29-.058-.506-.144-.665-.116-.174-.347-.26-.665-.26h-.13c-.289 0-.491.072-.607.202q-.216.261-.217.78zm7.471-.997h-2.297c-.145 0-.246-.015-.304-.073s-.072-.173-.072-.346v-.997c0-.174.014-.275.072-.333q.088-.087.304-.087h4.884c.144 0 .245.03.318.087.058.058.1.174.1.332v.275c0 .376-.115.723-.317 1.026l-2.485 3.526h2.47c.145 0 .232.029.29.087s.086.159.086.332v.997q0 .26-.086.347c-.058.057-.145.072-.29.072h-4.97c-.304 0-.448-.13-.448-.42v-.331c0-.376.101-.708.318-1.026zm9.251 1.141v1.127c0 .564.087.925.26 1.099.13.144.333.202.607.202h.058c.26 0 .462-.058.607-.203.173-.173.26-.534.26-1.098v-1.127c0-.549-.087-.925-.26-1.098-.145-.13-.347-.202-.607-.202h-.058c-.274 0-.477.072-.607.202-.173.173-.26.55-.26 1.098m4.119.087v.94c0 .722-.073 1.27-.217 1.675a2.07 2.07 0 0 1-.694.969c-.477.375-1.214.563-2.225.563h-.174c-1.011 0-1.762-.188-2.225-.563a2.07 2.07 0 0 1-.694-.969c-.144-.404-.216-.953-.216-1.676v-.925c0-.708.072-1.257.216-1.661s.376-.723.694-.983c.462-.376 1.214-.564 2.225-.564h.174c1.011 0 1.748.188 2.225.564.318.26.55.578.694.968.144.405.216.954.216 1.662m4.43 3.352h-.39c-2.052 0-3.063-.925-3.063-2.789v-.968c0-.953.245-1.647.751-2.11.491-.447 1.257-.679 2.269-.679h.202c.188-1.04.954-1.575 2.312-1.575h.708c.145 0 .231.03.29.073.042.057.071.159.071.303v.795c0 .144-.029.231-.086.274-.058.058-.16.073-.29.073h-.678c-.318 0-.535.072-.665.216 1.084.29 1.633 1.17 1.633 2.63v.968c0 1.04-.29 1.734-.853 2.11.376.202.665.463.882.78.216.318.332.665.332 1.026v.102c0 1.43-1.142 2.138-3.396 2.138h-.274a7.8 7.8 0 0 1-2.833-.52c-.26-.087-.36-.275-.289-.55l.26-.924c.073-.274.246-.376.52-.289.853.29 1.605.42 2.27.42h.202q1.257 0 1.257-.738v-.043c0-.275-.145-.52-.434-.752-.23.03-.477.03-.708.03m-.245-1.806h.1c.319 0 .535-.058.68-.202.159-.16.245-.492.245-.983v-.563c0-.492-.086-.81-.245-.983-.145-.13-.361-.202-.68-.202h-.1c-.318 0-.55.072-.68.202-.173.173-.245.491-.245.983v.563c0 .491.072.824.245.983.13.144.362.202.68.202m6.422-3.83h.043c.318-.52.853-.78 1.619-.78h.578c.144 0 .26.03.318.087.057.058.1.16.1.318v1.055c0 .159-.028.26-.086.318q-.087.087-.303.087h-.434c-.535 0-.896.1-1.098.303-.173.173-.246.506-.246.997v3.497c0 .144-.043.26-.115.318-.072.072-.203.101-.376.101h-1.33c-.187 0-.317-.029-.39-.101-.072-.058-.1-.174-.1-.318v-6.257c0-.144.028-.246.1-.303.073-.058.203-.102.39-.102h.694a.7.7 0 0 1 .347.073q.108.086.173.26zm7.464 5.708h-.03c-.317.492-.953.723-1.892.723h-.217c-.737 0-1.315-.188-1.72-.563-.418-.376-.62-.94-.62-1.662v-.16c0-.78.216-1.343.664-1.661s1.17-.477 2.182-.477h.101c.376 0 .722.03 1.011.058v-.303c0-.304-.086-.52-.245-.636-.174-.101-.463-.16-.867-.16-.491 0-1.04.088-1.676.246-.174.044-.304.044-.362 0-.072-.043-.115-.13-.13-.274l-.115-.766c-.03-.13-.03-.231-.03-.289 0-.173.116-.303.348-.376a9.3 9.3 0 0 1 2.47-.318c1.113 0 1.908.246 2.37.708.362.376.55.983.55 1.807v4.291c0 .145-.044.26-.116.318s-.202.087-.376.087h-.679c-.173 0-.289-.015-.361-.058s-.13-.13-.174-.274zm-.52-1.85v-.404a4 4 0 0 0-.694-.043h-.16q-.519 0-.736.13c-.145.087-.202.26-.202.52v.058c0 .26.057.433.202.52.13.101.332.145.607.145h.101c.289 0 .506-.073.68-.217.13-.116.202-.361.202-.708m7.496-4.768h.116c.838 0 1.46.203 1.835.593.347.376.535 1.011.535 1.907v4.292c0 .144-.044.26-.116.318-.072.072-.202.101-.376.101h-1.329c-.188 0-.318-.029-.39-.101-.072-.058-.101-.174-.101-.318v-4.09c0-.317-.058-.549-.16-.664-.115-.116-.332-.188-.635-.188h-.087c-.318 0-.52.072-.636.188-.115.115-.158.347-.158.665v4.089c0 .144-.044.26-.116.318-.072.072-.202.101-.376.101h-1.33c-.187 0-.317-.029-.39-.101-.072-.058-.1-.174-.1-.318v-6.257c0-.144.028-.246.1-.303.073-.058.203-.102.39-.102h.68c.173 0 .289.03.361.073q.109.065.174.26l.086.274h.044c.462-.49 1.112-.737 1.98-.737m6.203.55v6.242c0 .144-.043.26-.116.318-.072.072-.202.101-.375.101h-1.33c-.188 0-.318-.029-.39-.101-.072-.058-.101-.174-.101-.318v-6.242c0-.145.029-.246.101-.318.072-.058.202-.102.39-.102h1.33c.173 0 .303.044.375.102a.43.43 0 0 1 .116.317m-1.07-.969h-.173c-.78 0-1.17-.39-1.17-1.199v-.072c0-.795.39-1.2 1.17-1.2h.174c.78 0 1.17.405 1.17 1.2v.072c0 .81-.39 1.2-1.17 1.2m5.89 5.896h.117c.39 0 .809-.058 1.257-.188.144-.029.23-.043.274-.043.145 0 .231.087.26.245l.13.737c.03.203.058.333.058.39 0 .174-.13.304-.376.39-.635.232-1.329.333-2.08.333h-.174c-1.04 0-1.806-.231-2.283-.723q-.737-.736-.737-2.47v-.838c0-.68.058-1.214.174-1.59q.173-.564.563-.954c.506-.506 1.3-.766 2.384-.766h.145c.867 0 1.618.16 2.225.477.174.101.275.217.275.362 0 .086-.044.23-.116.433l-.274.694q-.11.26-.304.26a.6.6 0 0 1-.26-.073c-.462-.187-.896-.288-1.286-.288h-.058c-.376 0-.65.1-.823.274-.217.217-.318.665-.318 1.33v.49c0 .593.086.998.289 1.214.188.203.505.304.939.304m5.595-3.511h-2.298c-.145 0-.246-.015-.303-.073-.058-.057-.073-.173-.073-.346v-.997c0-.174.015-.275.073-.333q.086-.087.303-.087h4.884c.144 0 .246.03.318.087.058.058.101.174.101.332v.275c0 .376-.115.723-.318 1.026l-2.485 3.526h2.47c.145 0 .232.029.29.087s.086.159.086.332v.997q0 .26-.086.347c-.058.057-.145.072-.29.072h-4.97c-.303 0-.448-.13-.448-.42v-.331c0-.376.101-.708.318-1.026zm7.462 3.511h.159a6.3 6.3 0 0 0 1.531-.188c.145-.029.231-.043.275-.043.144 0 .231.087.26.245l.115.723c.03.202.058.332.058.39 0 .174-.13.303-.375.39a6.6 6.6 0 0 1-2.182.347h-.275q-1.778 0-2.514-.737a2.07 2.07 0 0 1-.578-.983c-.101-.375-.145-.881-.145-1.502v-.81c0-1.257.29-2.138.867-2.658.492-.434 1.243-.65 2.269-.65h.202c1.012 0 1.749.245 2.182.722.463.52.694 1.373.694 2.587v.75c0 .275-.145.406-.42.406h-3.467v.115c0 .347.086.578.289.708.188.13.534.188 1.055.188m-1.344-2.514h1.59c.115 0 .173-.058.173-.188v-.231c0-.29-.058-.506-.145-.665-.115-.174-.347-.26-.665-.26h-.13c-.289 0-.49.072-.606.202q-.217.261-.217.78zm8.93-2.963h.116c.838 0 1.46.203 1.835.593.347.376.534 1.011.534 1.907v4.292c0 .144-.043.26-.115.318-.072.072-.202.101-.376.101h-1.33c-.187 0-.317-.029-.39-.101-.072-.058-.1-.174-.1-.318v-4.09c0-.317-.058-.549-.16-.664-.115-.116-.332-.188-.635-.188h-.087c-.318 0-.52.072-.636.188-.115.115-.159.347-.159.665v4.089c0 .144-.043.26-.115.318-.073.072-.203.101-.376.101h-1.33c-.187 0-.317-.029-.39-.101-.072-.058-.1-.174-.1-.318v-6.257c0-.144.028-.246.1-.303.073-.058.203-.102.39-.102h.68c.173 0 .289.03.361.073q.108.065.173.26l.087.274h.043c.463-.49 1.113-.737 1.98-.737m-2.037-1.777 2.268-1.936a.4.4 0 0 1 .275-.13c.101 0 .202.072.289.188l.694.895a.42.42 0 0 1 .086.246c0 .116-.087.231-.231.347l-2.283 1.56a.54.54 0 0 1-.29.102c-.115 0-.23-.058-.346-.203l-.433-.505c-.116-.13-.16-.246-.16-.333 0-.086.044-.173.13-.23"/></svg>