<svg xmlns="http://www.w3.org/2000/svg" fill="none" viewBox="0 0 102 34"><path fill="#007990" d="M4.158 5.706h-.182c-.196 0-.392.014-.616.028-.084.014-.112.07-.112.168v2.212h.728c.504 0 .84-.07 1.036-.238.168-.14.252-.406.252-.826V6.7c0-.336-.084-.588-.238-.742-.168-.168-.462-.252-.868-.252m-.91 4.326v2.534c0 .294-.168.434-.49.434H1.386c-.182 0-.308-.028-.378-.098-.084-.056-.112-.168-.112-.336v-8.05q0-.336.126-.462c.084-.084.238-.14.49-.168.504-.042 1.288-.07 2.366-.07h.168c1.428 0 2.408.28 2.954.826.42.448.63 1.12.63 2.03v.476c0 1.05-.294 1.792-.882 2.212-.616.448-1.554.672-2.828.672zm7.248-1.008v1.092c0 .546.084.896.252 1.064.126.14.322.196.588.196h.056c.252 0 .448-.056.588-.196.168-.168.252-.518.252-1.064V9.024c0-.532-.084-.896-.252-1.064-.14-.126-.336-.196-.588-.196h-.056c-.266 0-.462.07-.588.196-.168.168-.252.532-.252 1.064m3.99.084v.91c0 .7-.07 1.232-.21 1.624s-.364.7-.672.938c-.462.364-1.176.546-2.156.546h-.168c-.98 0-1.708-.182-2.156-.546a2 2 0 0 1-.672-.938c-.14-.392-.21-.924-.21-1.624v-.896c0-.686.07-1.218.21-1.61s.364-.7.672-.952c.448-.364 1.176-.546 2.156-.546h.168c.98 0 1.694.182 2.156.546.308.252.532.56.672.938.14.392.21.924.21 1.61m3.439-.378v1.792c0 .322.056.546.196.672.112.126.322.182.63.182h.126c.322 0 .546-.084.686-.28q.168-.252.168-1.218v-.602c0-.7-.07-1.134-.182-1.274-.126-.14-.364-.224-.7-.224h-.056c-.322 0-.546.07-.686.21-.126.126-.182.378-.182.742m0-2.338h.028q.609-.378 1.596-.378h.126c.84 0 1.456.252 1.834.756.308.434.476 1.204.476 2.31v1.008c0 1.12-.238 1.904-.714 2.338-.504.476-1.302.7-2.394.7h-.28c-1.148 0-1.932-.224-2.352-.686-.378-.406-.56-1.064-.56-1.988V3.928c0-.14.028-.238.098-.308.056-.056.182-.098.364-.098h1.302c.168 0 .294.042.364.098.07.07.112.168.112.308zm7.534.154v6.048c0 .14-.042.252-.112.308-.07.07-.196.098-.364.098h-1.288c-.182 0-.308-.028-.378-.098-.07-.056-.098-.168-.098-.308V6.546c0-.14.028-.238.098-.308.07-.056.196-.098.378-.098h1.288c.168 0 .294.042.364.098.07.07.112.168.112.308m-1.036-.938h-.168c-.756 0-1.134-.378-1.134-1.162v-.07c0-.77.378-1.162 1.134-1.162h.168c.756 0 1.134.392 1.134 1.162v.07c0 .784-.378 1.162-1.134 1.162m5.818 5.712h.154c.476 0 .98-.056 1.484-.182.14-.028.224-.042.266-.042.14 0 .224.084.252.238l.112.7c.028.196.056.322.056.378 0 .168-.126.294-.364.378a6.4 6.4 0 0 1-2.114.336h-.266q-1.722 0-2.436-.714a2 2 0 0 1-.56-.952c-.098-.364-.14-.854-.14-1.456V9.22c0-1.218.28-2.072.84-2.576.476-.42 1.204-.63 2.198-.63h.196c.98 0 1.694.238 2.114.7.448.504.672 1.33.672 2.506v.728c0 .266-.14.392-.406.392h-3.36v.112c0 .336.084.56.28.686.182.126.518.182 1.022.182M28.94 8.884h1.54c.112 0 .168-.056.168-.182v-.224c0-.28-.056-.49-.14-.644-.112-.168-.336-.252-.644-.252h-.126c-.28 0-.476.07-.588.196q-.21.252-.21.756zm6.72-1.988h.043c.308-.504.826-.756 1.568-.756h.56c.14 0 .252.028.308.084s.098.154.098.308v1.022c0 .154-.028.252-.084.308q-.084.084-.294.084h-.42c-.518 0-.868.098-1.064.294-.168.168-.238.49-.238.966v3.388c0 .14-.042.252-.112.308-.07.07-.196.098-.364.098h-1.288c-.182 0-.308-.028-.378-.098-.07-.056-.098-.168-.098-.308V6.532c0-.14.028-.238.098-.294s.196-.098.378-.098h.672c.154 0 .266.028.336.07a.57.57 0 0 1 .168.252zm5.687 1.022H39.12c-.14 0-.238-.014-.294-.07s-.07-.168-.07-.336v-.966c0-.168.014-.266.07-.322q.084-.084.294-.084h4.732c.14 0 .238.028.308.084.056.056.098.168.098.322v.266c0 .364-.112.7-.308.994l-2.408 3.416h2.394c.14 0 .224.028.28.084s.084.154.084.322v.966q0 .252-.084.336c-.056.056-.14.07-.28.07H39.12c-.294 0-.434-.126-.434-.406v-.322c0-.364.098-.686.308-.994zm10.979 4.508h-.029c-.307.476-.923.7-1.834.7h-.21c-.714 0-1.274-.182-1.666-.546-.405-.364-.602-.91-.602-1.61v-.154c0-.756.21-1.302.645-1.61.434-.308 1.134-.462 2.114-.462h.097c.364 0 .7.028.98.056v-.294c0-.294-.084-.504-.237-.616-.169-.098-.448-.154-.84-.154-.477 0-1.009.084-1.625.238-.168.042-.294.042-.35 0-.07-.042-.111-.126-.126-.266l-.111-.742c-.029-.126-.029-.224-.029-.28 0-.168.112-.294.337-.364a9 9 0 0 1 2.394-.308c1.078 0 1.848.238 2.296.686.35.364.531.952.531 1.75v4.158c0 .14-.041.252-.111.308s-.197.084-.364.084h-.659c-.168 0-.28-.014-.35-.056s-.126-.126-.168-.266zm-.505-1.792v-.392a4 4 0 0 0-.672-.042h-.154q-.504 0-.713.126c-.14.084-.197.252-.197.504v.056c0 .252.056.42.197.504.126.098.322.14.587.14h.099c.28 0 .49-.07.657-.21.127-.112.197-.35.197-.686m5.29-3.892c.49-.476 1.19-.728 2.086-.728h.126c.868 0 1.484.252 1.862.728.336.448.504 1.204.504 2.296v1.05c0 .588-.056 1.078-.14 1.442a2 2 0 0 1-.504.91c-.476.462-1.12.686-1.96.686h-.154q-.798 0-1.302-.294v2.156c0 .21-.042.35-.112.406-.084.056-.238.084-.476.084h-1.064c-.238 0-.392-.028-.476-.098-.084-.056-.112-.196-.112-.392v-8.4c0-.168.028-.28.112-.35.07-.056.196-.098.378-.098h.588c.168 0 .294.028.364.056a.54.54 0 0 1 .154.238l.098.308zm.518 1.988v1.792c0 .322.056.546.196.672.126.126.336.182.63.182h.126c.322 0 .546-.084.686-.28q.168-.252.168-1.218v-.602c0-.672-.056-1.092-.168-1.246-.14-.168-.364-.252-.7-.252h-.098c-.308 0-.518.07-.658.21-.126.126-.182.378-.182.742m7.772 2.45h.448c.14 0 .252.042.308.098.056.07.098.196.098.378v.868c0 .196-.042.322-.098.378-.056.07-.168.098-.308.098h-1.064c-.7 0-1.19-.126-1.47-.406-.28-.266-.42-.742-.42-1.414V3.928c0-.14.028-.238.098-.308.07-.056.196-.098.378-.098h1.288c.168 0 .294.042.364.098.07.07.112.168.112.308v6.986c0 .112.014.182.056.21.028.042.098.056.21.056m4.041-4.634v6.048c0 .14-.042.252-.112.308-.07.07-.196.098-.364.098h-1.288c-.182 0-.308-.028-.378-.098-.07-.056-.098-.168-.098-.308V6.546c0-.14.028-.238.098-.308.07-.056.196-.098.378-.098h1.288c.168 0 .294.042.364.098.07.07.112.168.112.308m-1.036-.938h-.168c-.756 0-1.134-.378-1.134-1.162v-.07c0-.77.378-1.162 1.134-1.162h.168c.756 0 1.134.392 1.134 1.162v.07c0 .784-.378 1.162-1.134 1.162m4.727 4.676v2.31c0 .14-.042.252-.112.308-.07.07-.196.098-.364.098h-1.288c-.182 0-.308-.028-.378-.098-.07-.056-.098-.168-.098-.308V3.928c0-.14.028-.238.098-.308.07-.056.196-.098.378-.098h1.288c.168 0 .294.042.364.098.07.07.112.168.112.308v4.564h.098l1.33-2.03a.64.64 0 0 1 .588-.322h1.624c.154 0 .238.056.238.168 0 .056-.042.154-.112.266l-1.61 2.408c-.126.196-.182.336-.182.42 0 .098.056.238.182.42l1.722 2.716c.056.112.084.182.084.238 0 .154-.098.224-.294.224h-1.554c-.196 0-.35-.014-.434-.07q-.126-.063-.252-.294l-1.33-2.352zm8.724 2.142h-.028c-.308.476-.924.7-1.834.7h-.21c-.714 0-1.274-.182-1.666-.546-.406-.364-.602-.91-.602-1.61v-.154c0-.756.21-1.302.644-1.61s1.134-.462 2.114-.462h.098c.364 0 .7.028.98.056v-.294c0-.294-.084-.504-.238-.616-.168-.098-.448-.154-.84-.154-.476 0-1.008.084-1.624.238-.168.042-.294.042-.35 0-.07-.042-.112-.126-.126-.266l-.112-.742c-.028-.126-.028-.224-.028-.28 0-.168.112-.294.336-.364a9 9 0 0 1 2.394-.308c1.078 0 1.848.238 2.296.686.35.364.532.952.532 1.75v4.158c0 .14-.042.252-.112.308s-.196.084-.364.084h-.658c-.168 0-.28-.014-.35-.056s-.126-.126-.168-.266zm-.504-1.792v-.392a4 4 0 0 0-.672-.042h-.154q-.504 0-.714.126c-.14.084-.196.252-.196.504v.056c0 .252.056.42.196.504.126.098.322.14.588.14h.098c.28 0 .49-.07.658-.21.126-.112.196-.35.196-.686m6.787.686h.112c.378 0 .784-.056 1.218-.182.14-.028.224-.042.266-.042.14 0 .224.084.252.238l.126.714c.028.196.056.322.056.378 0 .168-.126.294-.364.378-.616.224-1.288.322-2.016.322h-.168c-1.008 0-1.75-.224-2.212-.7q-.714-.714-.714-2.394V9.22c0-.658.056-1.176.168-1.54q.168-.546.546-.924c.49-.49 1.26-.742 2.31-.742h.14c.84 0 1.568.154 2.156.462.168.098.266.21.266.35 0 .084-.042.224-.112.42l-.266.672q-.105.252-.294.252a.6.6 0 0 1-.252-.07c-.448-.182-.868-.28-1.246-.28h-.056c-.364 0-.63.098-.798.266-.21.21-.308.644-.308 1.288v.476c0 .574.084.966.28 1.176.182.196.49.294.91.294m2.886 4.172h-.812c-.14 0-.252-.028-.308-.098-.056-.056-.085-.182-.085-.35v-.98c0-.14.029-.252.085-.308.055-.056.168-.098.308-.098h.35c.251 0 .447-.056.573-.196.113-.112.169-.406.169-.868V6.546c0-.14.027-.238.097-.308.07-.056.197-.098.379-.098h1.287c.169 0 .294.042.365.098.07.07.111.168.111.308v6.202c0 1.008-.181 1.708-.545 2.114q-.567.63-1.974.63m1.483-9.884h-.167c-.756 0-1.134-.378-1.134-1.162v-.07c0-.77.378-1.162 1.134-1.162h.168c.755 0 1.133.392 1.133 1.162v.07c0 .784-.377 1.162-1.133 1.162m5.82 5.712h.153c.476 0 .98-.056 1.484-.182.14-.028.224-.042.266-.042.14 0 .224.084.252.238l.112.7c.028.196.056.322.056.378 0 .168-.126.294-.364.378-.364.14-.658.364-.896.672s-.35.616-.35.896v.042c0 .266.126.392.378.392h.07c.154 0 .35-.028.574-.112.07-.014.126-.028.168-.028.07 0 .126.07.168.182l.07.294c.042.196.07.294.07.322 0 .084-.07.154-.196.21a3.1 3.1 0 0 1-1.134.21h-.084c-.49 0-.854-.098-1.106-.308s-.378-.504-.378-.896v-.042c0-.252.084-.532.266-.812s.42-.504.728-.7c-.112.014-.266.014-.462.014h-.266q-1.722 0-2.436-.714a2 2 0 0 1-.56-.952c-.098-.364-.14-.854-.14-1.456V9.22c0-1.218.28-2.072.84-2.576.476-.42 1.204-.63 2.198-.63h.196c.98 0 1.694.238 2.114.7.448.504.672 1.33.672 2.506v.728c0 .266-.14.392-.406.392h-3.36v.112c0 .336.084.56.28.686.182.126.518.182 1.022.182m-1.303-2.436h1.54c.112 0 .168-.056.168-.182v-.224c0-.28-.056-.49-.14-.644-.112-.168-.336-.252-.644-.252h-.126c-.28 0-.476.07-.588.196q-.21.252-.21.756zM2.954 25.73v1.792c0 .322.056.546.196.672.112.126.322.182.63.182h.126c.322 0 .546-.084.686-.28q.168-.252.168-1.218v-.602c0-.7-.07-1.134-.182-1.274-.126-.14-.364-.224-.7-.224h-.056c-.322 0-.546.07-.686.21-.126.126-.182.378-.182.742m0-2.338h.028q.609-.378 1.596-.378h.126c.84 0 1.456.252 1.834.756.308.434.476 1.204.476 2.31v1.008c0 1.12-.238 1.904-.714 2.338-.504.476-1.302.7-2.394.7h-.28c-1.148 0-1.932-.224-2.352-.686-.378-.406-.56-1.064-.56-1.988v-6.524c0-.14.028-.238.098-.308.056-.056.182-.098.364-.098h1.302c.168 0 .294.042.364.098.07.07.112.168.112.308zm9.312 6.034h-.028c-.308.476-.924.7-1.834.7h-.21c-.714 0-1.274-.182-1.666-.546-.406-.364-.602-.91-.602-1.61v-.154c0-.756.21-1.302.644-1.61s1.134-.462 2.114-.462h.098c.364 0 .7.028.98.056v-.294c0-.294-.084-.504-.238-.616-.168-.098-.448-.154-.84-.154-.476 0-1.008.084-1.624.238-.168.042-.294.042-.35 0-.07-.042-.112-.126-.126-.266l-.112-.742c-.028-.126-.028-.224-.028-.28 0-.168.112-.294.336-.364a9 9 0 0 1 2.394-.308c1.078 0 1.848.238 2.296.686.35.364.532.952.532 1.75v4.158c0 .14-.042.252-.112.308s-.196.084-.364.084h-.658c-.168 0-.28-.014-.35-.056s-.126-.126-.168-.266zm-.504-1.792v-.392a4 4 0 0 0-.672-.042h-.154q-.504 0-.714.126c-.14.084-.196.252-.196.504v.056c0 .252.056.42.196.504.126.098.322.14.588.14h.098c.28 0 .49-.07.658-.21.126-.112.196-.35.196-.686m7.263-4.62h.112c.812 0 1.414.196 1.778.574.336.364.518.98.518 1.848v4.158c0 .14-.042.252-.112.308-.07.07-.196.098-.364.098H19.67c-.182 0-.308-.028-.378-.098-.07-.056-.098-.168-.098-.308v-3.962c0-.308-.056-.532-.154-.644-.112-.112-.322-.182-.616-.182h-.084c-.308 0-.504.07-.616.182s-.154.336-.154.644v3.962c0 .14-.042.252-.112.308-.07.07-.196.098-.364.098h-1.288c-.182 0-.308-.028-.378-.098-.07-.056-.098-.168-.098-.308v-6.062c0-.14.028-.238.098-.294s.196-.098.378-.098h.658c.168 0 .28.028.35.07q.105.063.168.252l.084.266h.042c.448-.476 1.078-.714 1.918-.714m5.982 4.27v2.31c0 .14-.042.252-.112.308-.07.07-.196.098-.364.098h-1.288c-.182 0-.308-.028-.378-.098-.07-.056-.098-.168-.098-.308v-8.666c0-.14.028-.238.098-.308.07-.056.196-.098.378-.098h1.288c.168 0 .294.042.364.098.07.07.112.168.112.308v4.564h.098l1.33-2.03a.64.64 0 0 1 .588-.322h1.624c.154 0 .238.056.238.168 0 .056-.042.154-.112.266l-1.61 2.408c-.126.196-.182.336-.182.42 0 .098.056.238.182.42l1.722 2.716c.056.112.084.182.084.238 0 .154-.098.224-.294.224H27.12c-.196 0-.35-.014-.434-.07q-.126-.063-.252-.294l-1.33-2.352zm8.36.21v-3.948c0-.14.028-.238.098-.308.07-.056.196-.098.378-.098h1.288c.168 0 .294.042.364.098.07.07.112.168.112.308v4.144q0 1.281-.63 1.848c-.448.392-1.232.588-2.38.588s-1.946-.196-2.38-.588q-.63-.567-.63-1.848v-4.144c0-.14.028-.238.098-.308.07-.056.196-.098.378-.098h1.288c.168 0 .294.042.364.098.07.07.112.168.112.308v3.948c0 .322.042.532.154.644.112.126.308.182.616.182.294 0 .504-.056.616-.182.098-.112.154-.322.154-.644m11.597-.728v-5.39c0-.196.014-.308.07-.364.056-.042.196-.07.42-.07h1.372c.224 0 .35.028.406.07.056.056.084.168.084.364v5.46c0 .616-.07 1.12-.196 1.512a2.4 2.4 0 0 1-.658 1.008c-.574.518-1.484.77-2.716.77h-.168c-1.26 0-2.17-.252-2.73-.77q-.84-.777-.84-2.52v-5.46c0-.196.014-.308.07-.364.056-.042.196-.07.42-.07h1.372c.224 0 .364.028.42.07.056.056.084.168.084.364v5.39c0 .56.084.938.28 1.12.182.196.504.28.98.28h.07c.462 0 .784-.084.98-.28.182-.182.28-.56.28-1.12m7.516-3.752h.112c.812 0 1.414.196 1.778.574.336.364.518.98.518 1.848v4.158c0 .14-.042.252-.112.308-.07.07-.196.098-.364.098h-1.288c-.182 0-.308-.028-.378-.098-.07-.056-.098-.168-.098-.308v-3.962c0-.308-.056-.532-.154-.644-.112-.112-.322-.182-.616-.182h-.084c-.308 0-.504.07-.616.182s-.154.336-.154.644v3.962c0 .14-.042.252-.112.308-.07.07-.196.098-.364.098H49.26c-.182 0-.308-.028-.378-.098-.07-.056-.098-.168-.098-.308v-6.062c0-.14.028-.238.098-.294s.196-.098.378-.098h.658c.168 0 .28.028.35.07q.105.063.168.252l.084.266h.042c.448-.476 1.078-.714 1.918-.714m6.01.532v6.048c0 .14-.042.252-.112.308-.07.07-.196.098-.364.098h-1.288c-.182 0-.308-.028-.378-.098-.07-.056-.098-.168-.098-.308v-6.048c0-.14.028-.238.098-.308.07-.056.196-.098.378-.098h1.288c.168 0 .294.042.364.098.07.07.112.168.112.308m-1.036-.938h-.168c-.756 0-1.134-.378-1.134-1.162v-.07c0-.77.378-1.162 1.134-1.162h.168c.756 0 1.134.392 1.134 1.162v.07c0 .784-.378 1.162-1.134 1.162m6.267 7.518h-.14c-1.358 0-2.324-.308-2.912-.938q-.798-.84-.798-2.856V24.61c0-1.316.266-2.268.812-2.842.588-.63 1.568-.952 2.912-.952h.098c1.05 0 1.96.21 2.744.616q.294.168.168.504l-.462 1.176c-.056.14-.14.21-.238.21a.48.48 0 0 1-.266-.07c-.658-.308-1.274-.476-1.848-.476h-.056c-.602 0-1.008.168-1.204.504-.182.308-.266.854-.266 1.666v.994c0 .896.126 1.498.392 1.792.252.294.7.434 1.316.434h.056a4.2 4.2 0 0 0 1.736-.392c.084-.028.168-.056.224-.056q.168 0 .252.294l.238 1.008c.028.112.042.21.042.266 0 .168-.14.294-.42.392a6.4 6.4 0 0 1-2.38.448m5.831-6.23h.042c.308-.504.826-.756 1.568-.756h.56c.14 0 .252.028.308.084s.098.154.098.308v1.022c0 .154-.028.252-.084.308q-.084.084-.294.084h-.42c-.518 0-.868.098-1.064.294-.168.168-.238.49-.238.966v3.388c0 .14-.042.252-.112.308-.07.07-.196.098-.364.098h-1.288c-.182 0-.308-.028-.378-.098-.07-.056-.098-.168-.098-.308v-6.062c0-.14.028-.238.098-.294s.196-.098.378-.098h.672c.154 0 .266.028.336.07a.57.57 0 0 1 .168.252zm6.682 4.424h.154c.475 0 .98-.056 1.483-.182.14-.028.225-.042.267-.042.14 0 .224.084.251.238l.112.7c.028.196.056.322.056.378 0 .168-.126.294-.364.378a6.4 6.4 0 0 1-2.114.336h-.265q-1.722 0-2.436-.714a2 2 0 0 1-.56-.952c-.099-.364-.14-.854-.14-1.456v-.784c0-1.218.28-2.072.84-2.576.475-.42 1.204-.63 2.198-.63h.196c.98 0 1.694.238 2.113.7.448.504.672 1.33.672 2.506v.728c0 .266-.14.392-.406.392h-3.36v.112c0 .336.085.56.28.686.183.126.519.182 1.023.182m-1.302-2.436h1.54c.112 0 .168-.056.168-.182v-.224c0-.28-.056-.49-.14-.644-.112-.168-.337-.252-.644-.252h-.126c-.28 0-.477.07-.589.196q-.21.252-.21.756zm8.792 1.638v-1.778c0-.35-.056-.602-.168-.742-.126-.14-.35-.224-.658-.224h-.14c-.308 0-.518.084-.644.238-.14.154-.196.588-.196 1.316v.616c0 .672.07 1.092.21 1.232.112.14.322.196.644.196h.154c.266 0 .462-.056.602-.182.126-.126.196-.35.196-.672m-.028-4.256h.028v-2.338c0-.14.028-.238.098-.308.07-.056.196-.098.378-.098h1.302c.168 0 .294.042.364.098.056.07.098.168.098.308v6.37c0 .98-.182 1.652-.546 2.044-.266.28-.588.49-.966.602-.392.126-.91.182-1.568.182h-.238c-1.036 0-1.778-.21-2.254-.63-.49-.42-.728-1.204-.728-2.366v-1.12c0-1.12.224-1.904.7-2.352.448-.42 1.064-.644 1.862-.644h.168q.798 0 1.302.252m5.87.28v6.048c0 .14-.042.252-.112.308-.07.07-.196.098-.364.098h-1.288c-.182 0-.308-.028-.378-.098-.07-.056-.098-.168-.098-.308v-6.048c0-.14.028-.238.098-.308.07-.056.196-.098.378-.098h1.288c.168 0 .294.042.364.098.07.07.112.168.112.308m-1.036-.938h-.168c-.756 0-1.134-.378-1.134-1.162v-.07c0-.77.378-1.162 1.134-1.162h.168c.756 0 1.134.392 1.134 1.162v.07c0 .784-.378 1.162-1.134 1.162m6.869 6.076v.798c0 .21-.042.35-.098.42s-.182.098-.35.098h-1.12c-1.008 0-1.68-.168-1.988-.518-.28-.294-.406-.854-.406-1.694V24.89h-.756c-.14 0-.224-.014-.28-.07s-.07-.14-.07-.28v-.714c0-.168.014-.28.07-.336.042-.056.14-.098.294-.14l.742-.182v-1.372c0-.14.028-.238.098-.308.07-.056.196-.098.378-.098H93.2c.168 0 .294.042.364.098.07.07.112.168.112.308v1.344h1.162c.14 0 .224.028.28.084s.084.154.084.322v.938q0 .252-.084.336c-.056.056-.14.07-.28.07h-1.162v2.646c0 .252.028.406.112.49.084.098.266.14.546.14h.616c.168 0 .294.042.35.112s.098.21.098.406m3.243.14v.14c0 .784-.378 1.162-1.12 1.162h-.154c-.756 0-1.12-.378-1.12-1.162v-.14c0-.406.084-.7.28-.868.182-.168.462-.266.84-.266h.154c.364 0 .644.098.84.266.182.168.28.462.28.868"/></svg>