<svg xmlns="http://www.w3.org/2000/svg" fill="none" viewBox="0 0 129 18"><g clip-path="url(#a)"><path fill="#fff" d="m.337 14.109 2.146-2.38c1.01 1.437 2.272 2.101 3.561 2.101 1.181 0 1.886-.624 1.886-1.63s-.665-1.482-2.465-2.231C2.91 8.963 1.087 7.822 1.087 5.142S3.38.337 6.56.337c2.317 0 3.947.858 5.128 2.169l-2.06 2.532c-.665-.857-1.59-1.414-2.79-1.414-.987 0-1.692.534-1.692 1.329s.772 1.203 2.64 1.976c2.703 1.05 4.226 2.38 4.226 5.127 0 3.067-2.403 5.043-5.708 5.043-2.833 0-4.849-1.244-5.963-2.982zm30.61 2.703-1.05-3.067h-5.923l-1.114 3.067h-4.248L25.24.638h3.583l6.542 16.178h-4.418zm-5.878-6.094h3.777l-.795-2.317c-.364-1.073-.71-2.123-1.028-3.174a88 88 0 0 1-1.096 3.152zm43.34 6.094V.638h4.634c5.492 0 9.331 2.703 9.331 8.087s-3.776 8.087-9.075 8.087zm3.97-3.498h.857c3.045 0 5.065-1.59 5.065-4.59S76.586 4.24 73.236 4.24h-.857zm17.247-4.612c0-4.782 3.947-8.347 8.711-8.347 4.742 0 8.666 3.538 8.666 8.388s-3.947 8.347-8.733 8.347-8.644-3.368-8.644-8.388m13.282.045c0-2.658-1.953-4.72-4.589-4.72-2.595 0-4.589 2.08-4.589 4.698 0 2.766 2.079 4.697 4.549 4.697 2.64 0 4.634-1.994 4.634-4.68zm24.71-8.11h-12.77v3.521h6.241l-7.597 12.658h13.668v-3.583h-7.081zM54.355 16.813h3.754V.638h-3.754v10.305L46.785.638h-3.84v16.178h3.84V6.511l7.574 10.305z"/></g><defs><clipPath id="a"><rect width="128.028" height="17.52" fill="#fff"/></clipPath></defs></svg>