<svg xmlns="http://www.w3.org/2000/svg" fill="none" viewBox="0 0 227 85"><path fill="#fff" d="M1.1.352h17.424v29.656H12.76V5.368H6.864v24.64H1.1zM31.932 0c7.172 0 9.196 7.876 9.196 14.652 0 11.176-3.96 15.708-9.592 15.708-6.732 0-9.372-7.128-9.372-15.268C22.164 6.996 25.376 0 31.932 0m-.22 5.016c-2.288 0-3.564 3.784-3.564 10.164 0 6.732 1.276 10.164 3.608 10.164 2.42 0 3.344-4.4 3.344-10.428 0-5.192-.792-9.9-3.388-9.9M46.585.352h15.268V25.08l2.332.088-.264 11.308h-4.356l-.22-6.468H46.453l-.22 6.468h-4.4l-.22-11.308 2.112-.088c.924-2.244 1.54-4.488 2.024-6.908.572-3.388.836-6.864.836-10.34zm5.28 5.016V8.8c0 3.388-.22 6.82-.704 9.988-.352 2.112-.88 4.4-1.496 6.204h6.468V5.368zM70.605.352h15.267V25.08l2.332.088-.263 11.308h-4.356l-.22-6.468H70.473l-.22 6.468h-4.4l-.22-11.308 2.112-.088c.923-2.244 1.54-4.488 2.023-6.908.573-3.388.837-6.864.837-10.34zm5.28 5.016V8.8c0 3.388-.22 6.82-.705 9.988-.352 2.112-.88 4.4-1.496 6.204h6.469V5.368zm28.075 6.82v4.796h-6.776v8.008h7.656v5.016H91.42V.352h12.892v5.016h-7.128v6.82zm4.777 17.82V.792c1.628-.352 3.828-.572 6.028-.572 3.432 0 6.116.484 8.052 2.288 1.76 1.54 2.552 4.004 2.552 6.512 0 3.212-.968 5.456-2.508 7.128-1.848 1.936-4.84 2.816-7.216 2.816h-1.144v11.044zm5.764-24.904v9.152c.264.088.572.088.924.088 2.904 0 4.224-2.068 4.224-4.84 0-2.596-1.056-4.62-3.74-4.62-.528 0-1.056.088-1.408.22M125.916.352h6.512l5.456 12.76h.396V.352h5.236v12.76h.44l5.456-12.76h6.512l-7.964 13.552c4.048.748 5.456 4.84 6.248 8.448.572 2.552 1.1 5.192 1.98 7.656H150.6c-.66-1.848-1.144-4.312-1.628-6.204-.66-2.816-1.672-6.38-4.928-6.38h-.528v12.584h-5.236V17.424h-.44c-3.3 0-4.312 3.564-5.016 6.38-.484 1.892-.924 4.356-1.628 6.204h-5.544c.88-2.464 1.452-5.104 1.98-7.656.792-3.608 2.2-7.7 6.248-8.448zm32.922 0h5.632v12.892h.44L169.75.352h6.336l-6.82 13.728c3.036 1.144 4.048 3.916 4.884 7.524.66 2.86 1.144 5.676 2.024 8.404h-5.764c-.704-2.112-1.144-4.532-1.628-6.864-.704-3.476-1.496-5.72-3.872-5.72h-.44v12.584h-5.632zm30.657 22.88h-5.324l-1.32 6.776h-5.588L183.687.352h6.908l5.764 29.656h-5.588zm-4.752-4.488h4.224l-.968-6.204c-.308-1.804-.704-4.752-.968-6.732h-.132c-.308 1.98-.748 5.06-1.056 6.776zM19.756 83.008l-.528-10.384c-.132-2.816-.352-6.644-.264-9.812h-.132c-.528 3.168-1.32 6.82-1.892 9.108l-2.552 10.604h-4.092L7.832 72.096c-.572-2.376-1.364-6.072-1.804-9.284h-.132a328 328 0 0 1-.44 9.9l-.484 10.296H0l2.156-29.656h6.072l2.376 10.736c.836 3.74 1.584 7.04 2.112 10.384h.088c.44-3.3 1.1-6.644 1.892-10.384l2.332-10.736H23.1l1.804 29.656zm9.36-29.656h5.104v6.556c0 5.456-.352 10.56-.572 13.64h.088c.836-2.552 2.332-6.424 3.212-8.712l4.356-11.484h5.236v29.656h-5.06V76.32c0-5.94.22-10.34.352-13.332h-.088c-.66 2.684-1.98 6.248-2.948 8.712L34.44 83.008h-5.324zm22.558 0h5.632v12.892h.44l4.84-12.892h6.336l-6.82 13.728c3.036 1.144 4.048 3.916 4.884 7.524.66 2.86 1.144 5.676 2.024 8.404h-5.764c-.704-2.112-1.144-4.532-1.628-6.864-.704-3.476-1.496-5.72-3.872-5.72h-.44v12.584h-5.632zm19.98 29.656V53.792c1.629-.352 3.829-.572 6.029-.572 3.432 0 6.116.484 8.052 2.288 1.76 1.54 2.552 4.004 2.552 6.512 0 3.212-.968 5.456-2.508 7.128-1.848 1.936-4.84 2.816-7.216 2.816h-1.144v11.044zm5.765-24.904v9.152c.264.088.572.088.924.088 2.904 0 4.224-2.068 4.224-4.84 0-2.596-1.056-4.62-3.74-4.62-.528 0-1.056.088-1.408.22M100.08 53c7.172 0 9.196 7.876 9.196 14.652 0 11.176-3.96 15.708-9.592 15.708-6.732 0-9.372-7.128-9.372-15.268 0-8.096 3.212-15.092 9.768-15.092m-.22 5.016c-2.288 0-3.564 3.784-3.564 10.164 0 6.732 1.276 10.164 3.608 10.164 2.42 0 3.344-4.4 3.344-10.428 0-5.192-.792-9.9-3.388-9.9m21.052-5.72h5.06v2.244c5.324.704 9.372 4.884 9.372 13.42 0 9.108-4.092 12.936-9.372 13.684v2.42h-5.104v-2.42c-5.368-.792-9.372-4.576-9.372-13.552 0-8.712 4.796-12.848 9.416-13.552zm0 25.124v-18.7c-1.76.528-3.652 2.904-3.652 9.46 0 6.116 1.848 8.844 3.652 9.24m5.016-18.7v18.7c1.936-.396 3.652-2.772 3.652-9.416 0-6.732-1.98-8.888-3.652-9.284m13.902-5.368h15.444v29.656h-5.764v-24.64h-4.4V66.2c0 6.82-.44 12.804-4.18 15.708-1.1.88-2.508 1.452-3.96 1.452l-1.232-4.884c.704-.176 1.452-.528 1.98-1.056 1.716-1.76 2.112-4.928 2.112-10.692zM168.701 53c7.172 0 9.196 7.876 9.196 14.652 0 11.176-3.96 15.708-9.592 15.708-6.732 0-9.372-7.128-9.372-15.268 0-8.096 3.212-15.092 9.768-15.092m-.22 5.016c-2.288 0-3.564 3.784-3.564 10.164 0 6.732 1.276 10.164 3.608 10.164 2.42 0 3.344-4.4 3.344-10.428 0-5.192-.792-9.9-3.388-9.9m13.088 24.992V53.792c1.628-.352 3.828-.572 6.028-.572 3.432 0 6.116.484 8.052 2.288 1.76 1.54 2.552 4.004 2.552 6.512 0 3.212-.968 5.456-2.508 7.128-1.848 1.936-4.84 2.816-7.216 2.816h-1.144v11.044zm5.764-24.904v9.152c.264.088.572.088.924.088 2.904 0 4.224-2.068 4.224-4.84 0-2.596-1.056-4.62-3.74-4.62-.528 0-1.056.088-1.408.22m14.345-4.752h5.72V64.44c.704-.132 1.496-.176 2.156-.176 5.28 0 9.02 3.52 9.02 8.932 0 2.992-.924 5.236-2.464 6.864-2.024 2.112-5.236 3.168-9.416 3.168-1.848 0-3.696-.132-5.016-.308zm5.764 15.664v9.504c.396.088.748.088 1.056.088 2.42 0 4.092-2.2 4.092-4.84 0-2.86-1.54-4.884-3.916-4.884-.396 0-.88.044-1.232.132m13.288-15.664h5.808v29.656h-5.808z"/></svg>