<svg xmlns="http://www.w3.org/2000/svg" fill="none" viewBox="0 0 247 84"><path fill="#fff" d="M2.2.132h17.424v29.656H13.86V5.148H7.964v24.64H2.2zm22.516 29.656V.572C26.344.22 28.544 0 30.744 0c3.432 0 6.116.484 8.052 2.288 1.76 1.54 2.552 4.004 2.552 6.512 0 3.212-.968 5.456-2.508 7.128-1.848 1.936-4.84 2.816-7.216 2.816H30.48v11.044zM30.48 4.884v9.152c.264.088.572.088.924.088 2.904 0 4.224-2.068 4.224-4.84 0-2.596-1.056-4.62-3.74-4.62-.528 0-1.056.088-1.408.22M44.825.132h5.104v6.556c0 5.456-.352 10.56-.572 13.64h.088c.836-2.552 2.332-6.424 3.212-8.712L57.013.132h5.236v29.656h-5.06V23.1c0-5.94.22-10.34.352-13.332h-.088c-.66 2.684-1.98 6.248-2.948 8.712l-4.356 11.308h-5.324zm29.562 0h17.424v29.656h-5.764V5.148h-5.896v24.64h-5.764zm22.516 29.656V.572C98.531.22 100.731 0 102.931 0c3.432 0 6.116.484 8.052 2.288 1.76 1.54 2.552 4.004 2.552 6.512 0 3.212-.968 5.456-2.508 7.128-1.848 1.936-4.84 2.816-7.216 2.816h-1.144v11.044zm5.764-24.904v9.152c.264.088.572.088.924.088 2.904 0 4.224-2.068 4.224-4.84 0-2.596-1.056-4.62-3.74-4.62-.528 0-1.056.088-1.408.22M117.012.132h5.104v6.556c0 5.456-.352 10.56-.572 13.64h.088c.836-2.552 2.332-6.424 3.212-8.712L129.2.132h5.236v29.656h-5.06V23.1c0-5.94.22-10.34.352-13.332h-.088c-.66 2.684-1.98 6.248-2.948 8.712l-4.356 11.308h-5.324zm35.099 11.836v4.796h-6.776v8.008h7.656v5.016h-13.42V.132h12.892v5.016h-7.128v6.82zm23.432 17.82-.528-10.384c-.132-2.816-.352-6.644-.264-9.812h-.132c-.528 3.168-1.32 6.82-1.892 9.108l-2.552 10.604h-4.092l-2.464-10.428c-.572-2.376-1.364-6.072-1.804-9.284h-.132a328 328 0 0 1-.44 9.9l-.484 10.296h-4.972L157.943.132h6.072l2.376 10.736c.836 3.74 1.584 7.04 2.112 10.384h.088c.44-3.3 1.1-6.644 1.892-10.384L172.815.132h6.072l1.804 29.656zm21.9-17.82v4.796h-6.776v8.008h7.656v5.016h-13.42V.132h12.892v5.016h-7.128v6.82zM12.232 76.012H6.908l-1.32 6.776H0l6.424-29.656h6.908l5.764 29.656h-5.588zM7.48 71.524h4.224l-.968-6.204c-.308-1.804-.704-4.752-.968-6.732h-.132c-.308 1.98-.748 5.06-1.056 6.776zm14.872-18.392h5.764v11.88h6.028v-11.88h5.764v29.656h-5.764V70.38h-6.028v12.408h-5.764zM48.21 82.788V58.456h-5.236v-5.324h16.28v5.324h-5.28v24.332zM62.27 53.132h5.104v6.556c0 5.456-.352 10.56-.572 13.64h.088c.836-2.552 2.332-6.424 3.212-8.712l4.356-11.484h5.236v29.656h-5.06V76.1c0-5.94.22-10.34.352-13.332h-.088c-.66 2.684-1.98 6.248-2.948 8.712l-4.356 11.308H62.27zm22.559 0h15.136v4.928h-9.416v6.204c.836-.176 1.496-.22 2.332-.22 2.552 0 4.796.792 6.424 2.2 1.76 1.54 2.816 3.872 2.816 6.864 0 2.86-.88 5.148-2.464 6.732-2.024 2.156-5.192 3.168-9.46 3.168-2.2 0-4.048-.132-5.368-.308zm5.764 15.664V78.3c.396.088.792.088 1.276.088 1.364 0 2.464-.528 3.168-1.408.748-.88 1.1-2.112 1.1-3.432 0-1.364-.396-2.596-1.144-3.432-.748-.88-1.804-1.452-3.08-1.452q-.726 0-1.32.132m14.99-15.664h5.104v6.556c0 5.456-.352 10.56-.572 13.64h.088c.836-2.552 2.332-6.424 3.212-8.712l4.356-11.484h5.236v29.656h-5.06V76.1c0-5.94.22-10.34.352-13.332h-.088c-.66 2.684-1.98 6.248-2.948 8.712l-4.356 11.308h-5.324zm30.874-.352c7.172 0 9.196 7.876 9.196 14.652 0 11.176-3.96 15.708-9.592 15.708-6.732 0-9.372-7.128-9.372-15.268 0-8.096 3.212-15.092 9.768-15.092m-.22 5.016c-2.288 0-3.564 3.784-3.564 10.164 0 6.732 1.276 10.164 3.608 10.164 2.42 0 3.344-4.4 3.344-10.428 0-5.192-.792-9.9-3.388-9.9m15.698 24.992V58.456h-5.236v-5.324h16.28v5.324h-5.28v24.332zm14.062-29.656h5.104v6.556c0 5.456-.352 10.56-.572 13.64h.088c.836-2.552 2.332-6.424 3.212-8.712l4.356-11.484h5.236v29.656h-5.06V76.1c0-5.94.22-10.34.352-13.332h-.088c-.66 2.684-1.98 6.248-2.948 8.712l-4.356 11.308h-5.324zm22.558 0h5.632v12.892h.44l4.84-12.892h6.336l-6.82 13.728c3.036 1.144 4.048 3.916 4.884 7.524.66 2.86 1.144 5.676 2.024 8.404h-5.764c-.704-2.112-1.144-4.532-1.628-6.864-.704-3.476-1.496-5.72-3.872-5.72h-.44v12.584h-5.632zm27.867-.352c7.172 0 9.196 7.876 9.196 14.652 0 11.176-3.96 15.708-9.592 15.708-6.732 0-9.372-7.128-9.372-15.268 0-8.096 3.212-15.092 9.768-15.092m-.22 5.016c-2.288 0-3.564 3.784-3.564 10.164 0 6.732 1.276 10.164 3.608 10.164 2.42 0 3.344-4.4 3.344-10.428 0-5.192-.792-9.9-3.388-9.9M229.29 82.7V53.572c1.76-.396 4.048-.572 6.556-.572 2.772 0 5.456.352 7.524 2.112 1.584 1.32 2.244 3.3 2.244 5.368 0 2.64-1.364 5.192-4.312 6.468v.176c3.432.968 5.28 3.828 5.28 7.084 0 2.464-.792 4.356-2.2 5.808-1.76 1.936-4.752 2.992-9.724 2.992-2.2 0-4.048-.132-5.368-.308m5.764-25.212v7.832h1.232c2.068 0 3.652-1.76 3.652-4.18 0-2.156-1.012-3.828-3.388-3.828-.616 0-1.144.044-1.496.176m0 12.1v8.888c.352.088.748.088 1.276.088 2.332 0 4.268-1.408 4.268-4.444 0-2.948-2.024-4.488-4.312-4.532z"/></svg>