<svg xmlns="http://www.w3.org/2000/svg" fill="none" viewBox="0 0 223 66"><path fill="#000" d="M8.645 18.025c2.45 1.435 3.92 3.255 3.92 6.3 0 3.43-2.73 6.405-6.44 6.405-1.995 0-3.78-.875-4.725-2.135l-.91 2.31H0V22.89h.7c.595 4.34 2.135 6.93 5.32 6.93 2.695 0 4.27-1.575 4.27-4.13 0-2.66-1.365-4.095-3.605-5.425L4.13 18.76C1.75 17.36.21 15.61.21 12.53c0-3.78 2.87-5.88 5.705-5.88 1.995 0 3.535 1.12 4.34 2.345l.7-2.38h.49v7h-.63c-.56-3.395-2.1-6.055-4.76-6.055-2.345 0-3.71 1.61-3.71 4.06 0 2.24 1.225 3.43 3.255 4.62zm21.856 9.52c.91 1.505 1.365 1.925 2.835 2.135v.77c-1.47-.175-2.17-.21-3.36-.21-1.26 0-2.345.035-3.92.21v-.77c1.855-.21 2.45-.315 1.225-2.415l-5.18-8.82h-1.225v8.225c0 2.555.35 2.8 2.275 3.01v.77c-2.135-.175-2.45-.21-3.605-.21s-1.47.035-3.605.21v-.77c1.925-.21 2.275-.455 2.275-3.01V10.71c0-2.555-.35-2.8-2.275-3.01v-.77c2.135.175 2.45.21 3.605.21s1.47-.035 3.605-.21v.77c-1.925.21-2.275.455-2.275 3.01v6.755H22.1l5.285-7.56c1.225-1.75.42-2.03-1.505-2.205v-.77c1.33.14 2.31.21 3.325.21.91 0 1.855-.07 3.08-.21v.77c-1.82.21-2.38.28-3.71 2.205l-4.62 6.615zm18.98-3.5-.91 6.335H35.516v-.77c1.925-.105 2.275-.42 2.275-2.8v-16.1c0-2.555-.35-2.8-2.275-3.01v-.77c2.135.175 2.45.21 3.605.21 1.225 0 1.715-.035 3.815-.21v.77c-2.1.21-2.485.42-2.485 3.01V28c0 .98.21 1.4 1.715 1.4h2.1c2.415 0 3.605-1.12 4.515-5.355zm16.706 2.8c.805 2.52 1.05 2.625 2.625 2.835v.77c-1.505-.14-2.205-.21-3.325-.21-1.085 0-1.995.07-3.675.21v-.77c1.925-.21 2.345-.35 1.575-2.87l-1.085-3.57h-6.72l-1.015 3.57c-.7 2.485-.35 2.66 1.575 2.87v.77c-.945-.105-2.065-.21-2.87-.21s-1.47.105-2.38.21v-.77c1.645-.21 1.995-.56 2.66-2.87l5.705-20.16h.42zM55.862 22.26h6.125l-3.15-10.29zM77.74 7c5.005 0 9.1 4.55 9.1 11.69s-4.095 11.69-9.1 11.69H70.6v-.77c1.925-.105 2.275-.42 2.275-2.8V10.57c0-2.38-.35-2.695-2.275-2.8V7zm-.49 22.4h.21c4.445 0 6.545-4.445 6.545-10.71s-2.1-10.71-6.545-10.71h-1.925V28c0 .98.21 1.4 1.715 1.4m21.6 1.33c-4.446 0-8.12-4.165-8.12-12.04s3.674-12.04 8.12-12.04c4.444 0 8.119 4.165 8.119 12.04s-3.675 12.04-8.12 12.04m0-.91c3.569 0 5.284-4.235 5.284-11.13s-1.715-11.13-5.285-11.13-5.285 4.235-5.285 11.13 1.715 11.13 5.285 11.13M124.13 7.14c.7 0 1.505-.07 2.38-.21v.77c-1.645.21-2.1.56-2.765 2.87l-5.775 20.16h-.42l-6.3-20.195c-.77-2.52-1.155-2.625-2.73-2.835v-.77c1.435.14 2.205.21 3.29.21 1.12 0 2.03-.07 3.815-.21v.77c-2.065.21-2.24.385-1.505 2.87l4.34 14.665 4.27-14.665c.735-2.45.56-2.66-1.505-2.87v-.77c1.015.105 2.065.21 2.905.21m14.665-4.515-3.675 2.065h-1.015l3.15-3.78c.525-.63.84-.91 1.47-.91.56 0 1.155.49 1.155 1.225 0 .35-.07.84-1.085 1.4m3.08 22.015h.7l-.595 5.74h-13.475v-.77c1.925-.105 2.275-.42 2.275-2.8V10.57c0-2.38-.35-2.695-2.275-2.8V7h12.74l.49 5.425h-.7c-.665-3.5-1.33-4.445-4.095-4.445h-3.5v9.8h4.06c1.19 0 1.505-.63 1.61-2.835h.7v6.65h-.7c-.07-2.205-.42-2.835-1.61-2.835h-4.06V28c0 .98.21 1.4 1.715 1.4h2.52c2.87 0 3.36-1.015 4.2-4.76m24.438-17.5c.7 0 1.505-.07 2.38-.21v.77c-1.645.21-2.1.56-2.765 2.87l-5.775 20.16h-.42l-6.3-20.195c-.77-2.52-1.155-2.625-2.73-2.835v-.77c1.435.14 2.205.21 3.29.21 1.12 0 2.03-.07 3.815-.21v.77c-2.065.21-2.24.385-1.505 2.87l4.34 14.665 4.27-14.665c.735-2.45.56-2.66-1.505-2.87v-.77c1.015.105 2.065.21 2.905.21m11.989 23.59c-4.445 0-8.12-4.165-8.12-12.04s3.675-12.04 8.12-12.04 8.12 4.165 8.12 12.04-3.675 12.04-8.12 12.04m0-.91c3.57 0 5.285-4.235 5.285-11.13s-1.715-11.13-5.285-11.13-5.285 4.235-5.285 11.13 1.715 11.13 5.285 11.13m24.362-5.88h.7l-.77 6.44H189.12v-.28l10.85-22.12h-4.585c-2.73 0-3.395 1.05-4.06 4.935h-.7L191.08 7h12.145v.28l-10.85 22.12h5.565c3.22 0 3.78-1.155 4.725-5.46m17.44-16.8c.7 0 1.365-.07 2.17-.21v.77c-1.54.21-1.925.28-2.975 2.695l-3.99 8.995v7.28c-.035 2.59.385 2.8 2.415 3.01v.77c-2.205-.175-2.555-.21-3.745-.21s-1.68.035-3.745.21v-.77c2.03-.21 2.45-.42 2.415-3.01v-6.895l-4.585-9.415c-1.085-2.24-1.4-2.45-2.835-2.66v-.77c1.82.175 2.31.21 3.36.21 1.015 0 2.065-.07 3.535-.21v.77c-2.1.21-2.31.455-1.225 2.625l3.885 7.77 3.465-7.7c1.015-2.275.735-2.52-1.155-2.695v-.77c1.05.14 2.1.21 3.01.21M36.073 53.025c2.94.525 5.18 2.765 5.18 6.055 0 3.85-2.975 6.3-6.615 6.3h-8.05v-.77c1.925-.105 2.275-.42 2.275-2.8V45.57c0-2.38-.35-2.695-2.275-2.8V42h7.035c4.06 0 6.58 2.205 6.58 5.6 0 2.66-1.715 4.62-4.13 5.425m-2.94-10.045h-1.61v9.835h1.61c2.94 0 4.235-1.89 4.235-4.935 0-3.01-1.295-4.9-4.235-4.9m1.155 21.42c2.87 0 4.13-2.03 4.13-5.32 0-3.255-1.26-5.285-4.13-5.285h-2.765V63c0 .98.21 1.4 1.715 1.4zm23.605-4.76h.7l-.595 5.74H44.523v-.77c1.925-.105 2.275-.42 2.275-2.8V45.57c0-2.38-.35-2.695-2.275-2.8V42h12.74l.49 5.425h-.7c-.665-3.5-1.33-4.445-4.095-4.445h-3.5v9.8h4.06c1.19 0 1.505-.63 1.61-2.835h.7v6.65h-.7c-.07-2.205-.42-2.835-1.61-2.835h-4.06V63c0 .98.21 1.4 1.715 1.4h2.52c2.87 0 3.36-1.015 4.2-4.76m16.692-.7h.7l-.77 6.44H61.04v-.28l10.85-22.12h-4.585c-2.73 0-3.395 1.05-4.06 4.935h-.7L63 42h12.145v.28L64.295 64.4h5.565c3.22 0 3.78-1.155 4.725-5.46M94.74 39.375h-1.436l-3.78-4.025h1.015l3.465 2.1 3.466-2.1h1.014zm4.654 18.06h.91c-.28 5.845-2.905 8.295-6.23 8.295-4.445 0-7.84-4.2-7.84-12.04s3.57-12.04 7.945-12.04c2.066 0 3.605 1.015 4.48 2.24l.77-2.24h.49V49h-.63c-.805-4.48-2.38-6.44-5.11-6.44-3.465 0-5.11 4.165-5.11 11.13 0 7.105 1.75 10.815 5.53 10.815 2.346 0 4.516-1.925 4.796-7.07m17.727 2.205h.7l-.595 5.74h-13.475v-.77c1.925-.105 2.275-.42 2.275-2.8V45.57c0-2.38-.35-2.695-2.275-2.8V42h12.74l.49 5.425h-.7c-.665-3.5-1.33-4.445-4.095-4.445h-3.5v9.8h4.06c1.19 0 1.505-.63 1.61-2.835h.7v6.65h-.7c-.07-2.205-.42-2.835-1.61-2.835h-4.06V63c0 .98.21 1.4 1.715 1.4h2.52c2.87 0 3.36-1.015 4.2-4.76m18.407 2.905c.91 1.505 1.365 1.925 2.835 2.135v.77c-1.47-.175-2.17-.21-3.36-.21-1.26 0-2.345.035-3.92.21v-.77c1.855-.21 2.45-.315 1.225-2.415l-5.18-8.82h-1.225v8.225c0 2.555.35 2.8 2.275 3.01v.77c-2.135-.175-2.45-.21-3.605-.21s-1.47.035-3.605.21v-.77c1.925-.21 2.275-.455 2.275-3.01V45.71c0-2.555-.35-2.8-2.275-3.01v-.77c2.135.175 2.45.21 3.605.21s1.47-.035 3.605-.21v.77c-1.925.21-2.275.455-2.275 3.01v6.755h1.225l5.285-7.56c1.225-1.75.42-2.03-1.505-2.205v-.77c1.33.14 2.31.21 3.325.21.91 0 1.855-.07 3.08-.21v.77c-1.82.21-2.38.28-3.71 2.205l-4.62 6.615zm15.714-24.92-3.675 2.065h-1.015l3.15-3.78c.525-.63.84-.91 1.47-.91.56 0 1.155.49 1.155 1.225 0 .35-.07.84-1.085 1.4m3.815 24.22c.805 2.52 1.05 2.625 2.625 2.835v.77c-1.505-.14-2.205-.21-3.325-.21-1.085 0-1.995.07-3.675.21v-.77c1.925-.21 2.345-.35 1.575-2.87l-1.085-3.57h-6.72l-1.015 3.57c-.7 2.485-.35 2.66 1.575 2.87v.77c-.945-.105-2.065-.21-2.87-.21s-1.47.105-2.38.21v-.77c1.645-.21 1.995-.56 2.66-2.87l5.705-20.16h.42zm-10.325-4.585h6.125l-3.15-10.29zm29.087-15.12c.875 0 1.75-.105 2.765-.21v.77c-1.925.21-2.275.455-2.275 3.01v20.02h-.42l-11.165-20.65v16.59c0 2.59.385 2.8 2.555 3.01v.77c-.945-.105-1.995-.21-2.94-.21h-.105c-.875 0-1.75.105-2.765.21v-.77c1.925-.21 2.275-.455 2.275-3.01V43.68c-.35-.455-.945-.77-2.275-.945v-.77c1.4.14 1.82.175 2.695.175.63 0 1.225-.035 1.855-.105l9.31 17.185V45.745c0-2.59-.385-2.835-2.555-3.045v-.77c1.085.14 1.995.21 2.94.21zm7.695-2.45 3.15-3.78c.525-.63.84-.91 1.47-.91.56 0 1.155.49 1.155 1.225 0 .35-.07.84-1.085 1.4l-3.675 2.065zm.455 6.02c0-2.555-.35-2.8-2.275-3.01v-.77c2.135.175 2.45.21 3.605.21s1.47-.035 3.605-.21v.77c-1.925.21-2.275.455-2.275 3.01v15.96c0 2.555.35 2.8 2.275 3.01v.77c-2.135-.175-2.45-.21-3.605-.21s-1.47.035-3.605.21v-.77c1.925-.21 2.275-.455 2.275-3.01zm10.169 20.02c-1.05 0-1.75-.77-1.75-1.785s.7-1.785 1.75-1.785 1.75.77 1.75 1.785-.7 1.785-1.75 1.785"/></svg>