<svg xmlns="http://www.w3.org/2000/svg" fill="none" viewBox="0 0 180 66"><path fill="#000" d="M46.455 7.14c.875 0 1.75-.105 2.765-.21v.77c-1.925.21-2.275.455-2.275 3.01v20.02h-.42L35.36 10.08v16.59c0 2.59.385 2.8 2.555 3.01v.77c-.945-.105-1.995-.21-2.94-.21h-.105c-.875 0-1.75.105-2.765.21v-.77c1.925-.21 2.275-.455 2.275-3.01V8.68c-.35-.455-.945-.77-2.275-.945v-.77c1.4.14 1.82.175 2.695.175.63 0 1.225-.035 1.855-.105l9.31 17.185V10.745c0-2.59-.385-2.835-2.555-3.045v-.77c1.085.14 1.995.21 2.94.21zm19.602 19.705c.805 2.52 1.05 2.625 2.625 2.835v.77c-1.505-.14-2.205-.21-3.325-.21-1.085 0-1.995.07-3.675.21v-.77c1.925-.21 2.345-.35 1.575-2.87l-1.085-3.57h-6.72l-1.015 3.57c-.7 2.485-.35 2.66 1.575 2.87v.77c-.945-.105-2.065-.21-2.87-.21s-1.47.105-2.38.21v-.77c1.645-.21 1.995-.56 2.66-2.87l5.705-20.16h.42zM55.732 22.26h6.125l-3.15-10.29zm40.404 4.41c.07 2.555.455 2.8 2.38 3.01v.77c-2.135-.175-2.45-.21-3.605-.21h-.07c-1.225 0-2.1.07-3.78.21v-.77c2.135-.21 2.485-.42 2.415-3.01l-.49-16.835-6.09 20.09h-.42L80.49 9.87l-.525 16.8c-.07 2.59.28 2.8 2.415 3.01v.77c-1.33-.14-2.03-.21-2.975-.21h-.035c-.875 0-1.75.105-2.765.21v-.77c1.925-.21 2.31-.455 2.38-3.01l.49-15.96c.07-2.555-.245-2.8-2.17-3.01v-.77c2.135.175 2.45.21 3.255.21.875 0 1.365-.035 1.89-.105l5.11 17.29 5.215-17.29c.49.07 1.155.105 1.785.105.805 0 1.12-.035 3.255-.175v.77c-1.925.175-2.24.42-2.17 2.975zm7.204-21.98 3.15-3.78c.525-.63.84-.91 1.47-.91.56 0 1.155.49 1.155 1.225 0 .35-.07.84-1.085 1.4l-3.675 2.065zm.455 6.02c0-2.555-.35-2.8-2.275-3.01v-.77c2.135.175 2.45.21 3.605.21s1.47-.035 3.605-.21v.77c-1.925.21-2.275.455-2.275 3.01v15.96c0 2.555.35 2.8 2.275 3.01v.77c-2.135-.175-2.45-.21-3.605-.21s-1.47.035-3.605.21v-.77c1.925-.21 2.275-.455 2.275-3.01zm22.733 17.045c.665 1.715 1.12 1.96 2.8 1.96v.77c-.56.14-1.33.21-1.995.21-1.54 0-3.01-.49-3.815-2.835l-1.785-5.11c-.735-2.1-1.61-3.57-4.06-3.57h-.735v7.49c0 2.555.35 2.8 2.275 3.01v.77c-2.135-.175-2.45-.21-3.605-.21s-1.47.035-3.605.21v-.77c1.925-.21 2.275-.455 2.275-3.01v-16.1c0-2.38-.35-2.695-2.275-2.8V7h7.455c4.06 0 6.58 2.345 6.58 5.985 0 3.255-2.66 5.53-5.845 5.88 1.435.245 3.395 1.19 4.445 3.92zM118.933 7.98h-1.995V18.2h2.03c2.94 0 4.235-1.96 4.235-5.075 0-3.15-1.295-5.145-4.27-5.145m25.625 2.73c0-2.555-.35-2.8-2.275-3.01v-.77c1.015.105 1.89.21 2.765.21s1.75-.105 2.765-.21v.77c-1.925.21-2.275.455-2.275 3.01v13.195c0 4.515-2.38 6.825-6.405 6.825-4.2 0-6.79-2.485-6.79-6.58V10.71c0-2.555-.35-2.8-2.275-3.01v-.77c2.135.175 2.45.21 3.605.21s1.47-.035 3.605-.21v.77c-1.925.21-2.275.455-2.275 3.01V23.8c0 3.885 1.785 5.565 4.585 5.565 3.22 0 4.97-1.68 4.97-5.565zM7.14 42c5.005 0 9.1 4.55 9.1 11.69s-4.095 11.69-9.1 11.69H0v-.77c1.925-.105 2.275-.42 2.275-2.8V45.57c0-2.38-.35-2.695-2.275-2.8V42zm-.49 22.4h.21c4.445 0 6.545-4.445 6.545-10.71s-2.1-10.71-6.545-10.71H4.935V63c0 .98.21 1.4 1.715 1.4m21.6 1.33c-4.445 0-8.12-4.165-8.12-12.04s3.675-12.04 8.12-12.04 8.12 4.165 8.12 12.04-3.675 12.04-8.12 12.04m0-.91c3.57 0 5.285-4.235 5.285-11.13S31.82 42.56 28.25 42.56s-5.285 4.235-5.285 11.13 1.715 11.13 5.285 11.13m26.057-12.145c2.695.595 5.145 2.625 5.145 6.405 0 4.305-3.115 6.65-6.545 6.65-3.045 0-5.425-2.205-5.425-5.74h.875c0 2.8 1.96 4.725 4.165 4.725 2.87 0 4.235-2.45 4.235-5.775 0-3.395-1.435-5.705-4.515-5.705h-.805v-.875h.805c2.835 0 3.815-2.73 3.815-5.11 0-2.135-.805-4.69-3.535-4.69-2.31 0-3.57 2.205-3.57 4.41h-.875c0-2.73 1.61-5.32 4.97-5.32 3.395 0 5.67 2.31 5.67 5.39 0 2.975-2.135 4.935-4.41 5.635m35.51 8.995c.07 2.555.455 2.8 2.38 3.01v.77c-2.135-.175-2.45-.21-3.605-.21h-.07c-1.225 0-2.1.07-3.78.21v-.77c2.135-.21 2.485-.42 2.415-3.01l-.49-16.835-6.09 20.09h-.42L74.172 44.87l-.525 16.8c-.07 2.59.28 2.8 2.415 3.01v.77c-1.33-.14-2.03-.21-2.975-.21h-.035c-.875 0-1.75.105-2.765.21v-.77c1.925-.21 2.31-.455 2.38-3.01l.49-15.96c.07-2.555-.245-2.8-2.17-3.01v-.77c2.135.175 2.45.21 3.255.21.875 0 1.365-.035 1.89-.105l5.11 17.29 5.215-17.29c.49.07 1.155.105 1.785.105.805 0 1.12-.035 3.255-.175v.77c-1.925.175-2.24.42-2.17 2.975zm13.504-22.295h-1.435l-3.78-4.025h1.015l3.465 2.1 3.465-2.1h1.015zm5.25 20.265h.7l-.595 5.74H95.201v-.77c1.925-.105 2.275-.42 2.275-2.8V45.57c0-2.38-.35-2.695-2.275-2.8V42h12.74l.49 5.425h-.7c-.665-3.5-1.33-4.445-4.095-4.445h-3.5v9.8h4.06c1.19 0 1.505-.63 1.61-2.835h.7v6.65h-.7c-.07-2.205-.42-2.835-1.61-2.835h-4.06V63c0 .98.21 1.4 1.715 1.4h2.52c2.87 0 3.36-1.015 4.2-4.76m12.982-6.615c2.45 1.435 3.92 3.255 3.92 6.3 0 3.43-2.73 6.405-6.44 6.405-1.995 0-3.78-.875-4.725-2.135l-.91 2.31h-.49V57.89h.7c.595 4.34 2.135 6.93 5.32 6.93 2.695 0 4.27-1.575 4.27-4.13 0-2.66-1.365-4.095-3.605-5.425l-2.555-1.505c-2.38-1.4-3.92-3.15-3.92-6.23 0-3.78 2.87-5.88 5.705-5.88 1.995 0 3.535 1.12 4.34 2.345l.7-2.38h.49v7h-.63c-.56-3.395-2.1-6.055-4.76-6.055-2.345 0-3.71 1.61-3.71 4.06 0 2.24 1.225 3.43 3.255 4.62zm9.116-13.335 3.15-3.78c.525-.63.84-.91 1.47-.91.56 0 1.155.49 1.155 1.225 0 .35-.07.84-1.085 1.4l-3.675 2.065zm.455 6.02c0-2.555-.35-2.8-2.275-3.01v-.77c2.135.175 2.45.21 3.605.21s1.47-.035 3.605-.21v.77c-1.925.21-2.275.455-2.275 3.01v15.96c0 2.555.35 2.8 2.275 3.01v.77c-2.135-.175-2.45-.21-3.605-.21s-1.47.035-3.605.21v-.77c1.925-.21 2.275-.455 2.275-3.01zm21.445 11.725h.91c-.28 5.845-2.905 8.295-6.23 8.295-4.445 0-7.84-4.2-7.84-12.04s3.57-12.04 7.945-12.04c2.065 0 3.605 1.015 4.48 2.24l.77-2.24h.49V49h-.63c-.805-4.48-2.38-6.44-5.11-6.44-3.465 0-5.11 4.165-5.11 11.13 0 7.105 1.75 10.815 5.53 10.815 2.345 0 4.515-1.925 4.795-7.07m13.492-17.745c-1.575 0-2.835-1.225-2.835-2.8s1.26-2.8 2.835-2.8 2.835 1.225 2.835 2.8-1.26 2.8-2.835 2.8m0-.91c1.015 0 1.82-.77 1.82-1.89s-.805-1.89-1.82-1.89-1.82.77-1.82 1.89.805 1.89 1.82 1.89m5.075 6.93c0-2.555-.35-2.8-2.275-3.01v-.77c1.015.105 1.89.21 2.765.21s1.75-.105 2.765-.21v.77c-1.925.21-2.275.455-2.275 3.01v13.195c0 4.515-2.38 6.825-6.405 6.825-4.2 0-6.79-2.485-6.79-6.58V45.71c0-2.555-.35-2.8-2.275-3.01v-.77c2.135.175 2.45.21 3.605.21s1.47-.035 3.605-.21v.77c-1.925.21-2.275.455-2.275 3.01V58.8c0 3.885 1.785 5.565 4.585 5.565 3.22 0 4.97-1.68 4.97-5.565zm6.573 20.02c-1.05 0-1.75-.77-1.75-1.785s.7-1.785 1.75-1.785 1.75.77 1.75 1.785-.7 1.785-1.75 1.785"/></svg>