<svg xmlns="http://www.w3.org/2000/svg" fill="none" viewBox="0 0 240 60"><path fill="#000" d="M2.294 28.35v-.805c1.96-.315 3.885-1.89 3.885-5.565V4.095c0-2.555-.35-2.8-2.275-3.01v-.77c2.135.175 2.45.21 3.605.21s1.47-.035 3.605-.21v.77c-1.925.21-2.275.455-2.275 3.01V19.32c0 6.93-3.815 8.575-6.545 9.03M27.59 18.025h.7l-.595 5.74H14.22v-.77c1.925-.105 2.275-.42 2.275-2.8V3.955c0-2.38-.35-2.695-2.275-2.8v-.77h12.74l.49 5.425h-.7c-.665-3.5-1.33-4.445-4.095-4.445h-3.5v9.8h4.06c1.19 0 1.505-.63 1.61-2.835h.7v6.65h-.7c-.07-2.205-.42-2.835-1.61-2.835h-4.06v9.24c0 .98.21 1.4 1.715 1.4h2.52c2.87 0 3.36-1.015 4.2-4.76M38.578.385c5.005 0 9.1 4.55 9.1 11.69s-4.095 11.69-9.1 11.69h-7.14v-.77c1.925-.105 2.275-.42 2.275-2.8V3.955c0-2.38-.35-2.695-2.275-2.8v-.77zm-.49 22.4h.21c4.445 0 6.545-4.445 6.545-10.71s-2.1-10.71-6.545-10.71h-1.925v20.02c0 .98.21 1.4 1.715 1.4m26.193-4.76h.7l-.596 5.74H50.91v-.77c1.926-.105 2.276-.42 2.276-2.8V3.955c0-2.38-.35-2.695-2.276-2.8v-.77h12.74l.49 5.425h-.7c-.664-3.5-1.33-4.445-4.094-4.445h-3.5v9.8h4.06c1.19 0 1.505-.63 1.61-2.835h.7v6.65h-.7c-.07-2.205-.42-2.835-1.61-2.835h-4.06v9.24c0 .98.21 1.4 1.715 1.4h2.52c2.87 0 3.36-1.015 4.2-4.76M82.478.525c.875 0 1.75-.105 2.765-.21v.77c-1.925.21-2.275.455-2.275 3.01v20.02h-.42L71.382 3.465v16.59c0 2.59.385 2.8 2.555 3.01v.77c-.944-.105-1.995-.21-2.94-.21h-.105c-.874 0-1.75.105-2.764.21v-.77c1.924-.21 2.275-.455 2.275-3.01V2.065c-.35-.455-.946-.77-2.276-.945V.35c1.4.14 1.82.175 2.696.175.63 0 1.225-.035 1.855-.105l9.31 17.185V4.13c0-2.59-.385-2.835-2.555-3.045v-.77c1.084.14 1.994.21 2.94.21zm22.485 10.885c2.45 1.435 3.92 3.255 3.92 6.3 0 3.43-2.73 6.405-6.44 6.405-1.995 0-3.78-.875-4.725-2.135l-.91 2.31h-.49v-8.015h.7c.595 4.34 2.135 6.93 5.32 6.93 2.695 0 4.27-1.575 4.27-4.13 0-2.66-1.365-4.095-3.605-5.425l-2.555-1.505c-2.38-1.4-3.92-3.15-3.92-6.23 0-3.78 2.87-5.88 5.705-5.88 1.995 0 3.535 1.12 4.34 2.345l.7-2.38h.49v7h-.63c-.56-3.395-2.1-6.055-4.76-6.055-2.345 0-3.71 1.61-3.71 4.06 0 2.24 1.225 3.43 3.255 4.62zm14.681 1.715h-2.45v6.93c0 2.555.7 2.835 2.905 3.01v.77c-1.61-.14-2.59-.21-3.85-.21h-.385c-1.155 0-1.47.035-3.605.21v-.77c1.925-.21 2.275-.455 2.275-3.01v-16.1c0-2.38-.35-2.695-2.275-2.8v-.77h7.455c4.515 0 7.105 2.45 7.105 6.265 0 3.92-3.22 6.475-7.175 6.475m-.455-11.76h-1.995V12.11h2.065c3.255 0 4.725-2.03 4.725-5.285 0-3.36-1.47-5.46-4.795-5.46m24.778 19.775c.665 1.715 1.12 1.96 2.8 1.96v.77c-.56.14-1.33.21-1.995.21-1.54 0-3.01-.49-3.815-2.835l-1.785-5.11c-.735-2.1-1.61-3.57-4.06-3.57h-.735v7.49c0 2.555.35 2.8 2.275 3.01v.77c-2.135-.175-2.45-.21-3.605-.21s-1.47.035-3.605.21v-.77c1.925-.21 2.275-.455 2.275-3.01v-16.1c0-2.38-.35-2.695-2.275-2.8v-.77h7.455c4.06 0 6.58 2.345 6.58 5.985 0 3.255-2.66 5.53-5.845 5.88 1.435.245 3.395 1.19 4.445 3.92zm-7.595-19.775h-1.995v10.22h2.03c2.94 0 4.235-1.96 4.235-5.075 0-3.15-1.295-5.145-4.27-5.145m14.168 2.73c0-2.555-.35-2.8-2.275-3.01v-.77c2.135.175 2.45.21 3.605.21s1.47-.035 3.605-.21v.77c-1.925.21-2.275.455-2.275 3.01v15.96c0 2.555.35 2.8 2.275 3.01v.77c-2.135-.175-2.45-.21-3.605-.21s-1.47.035-3.605.21v-.77c1.925-.21 2.275-.455 2.275-3.01zm22.559-3.57c.875 0 1.75-.105 2.765-.21v.77c-1.925.21-2.275.455-2.275 3.01v20.02h-.42l-11.165-20.65v16.59c0 2.59.385 2.8 2.555 3.01v.77c-.945-.105-1.995-.21-2.94-.21h-.105c-.875 0-1.75.105-2.765.21v-.77c1.925-.21 2.275-.455 2.275-3.01V2.065c-.35-.455-.945-.77-2.275-.945V.35c1.4.14 1.82.175 2.695.175.63 0 1.225-.035 1.855-.105l9.31 17.185V4.13c0-2.59-.385-2.835-2.555-3.045v-.77c1.085.14 1.995.21 2.94.21zm19.91-.14.455 5.74h-.7c-.7-3.78-1.26-4.76-4.06-4.76h-1.4v18.69c0 2.59.385 2.8 2.52 3.01v.77c-1.61-.14-2.625-.21-3.85-.21s-2.24.07-3.85.21v-.77c2.135-.21 2.52-.42 2.52-3.01V1.365h-1.4c-2.8 0-3.36.98-4.06 4.76h-.7l.455-5.74zm16.62 17.64h.7l-.595 5.74h-13.475v-.77c1.925-.105 2.275-.42 2.275-2.8V3.955c0-2.38-.35-2.695-2.275-2.8v-.77h12.74l.49 5.425h-.7c-.665-3.5-1.33-4.445-4.095-4.445h-3.5v9.8h4.06c1.19 0 1.505-.63 1.61-2.835h.7v6.65h-.7c-.07-2.205-.42-2.835-1.61-2.835h-4.06v9.24c0 .98.21 1.4 1.715 1.4h2.52c2.87 0 3.36-1.015 4.2-4.76m18.372 3.115c.665 1.715 1.12 1.96 2.8 1.96v.77c-.56.14-1.33.21-1.995.21-1.54 0-3.01-.49-3.815-2.835l-1.785-5.11c-.735-2.1-1.61-3.57-4.06-3.57h-.735v7.49c0 2.555.35 2.8 2.275 3.01v.77c-2.135-.175-2.45-.21-3.605-.21s-1.47.035-3.605.21v-.77c1.925-.21 2.275-.455 2.275-3.01v-16.1c0-2.38-.35-2.695-2.275-2.8v-.77h7.455c4.06 0 6.58 2.345 6.58 5.985 0 3.255-2.66 5.53-5.845 5.88 1.435.245 3.395 1.19 4.445 3.92zm-7.595-19.775h-1.995v10.22h2.03c2.94 0 4.235-1.96 4.235-5.075 0-3.15-1.295-5.145-4.27-5.145m14.161 22.75c-1.05 0-1.75-.77-1.75-1.785s.7-1.785 1.75-1.785 1.75.77 1.75 1.785-.7 1.785-1.75 1.785M14.525 35.385l.455 5.74h-.7c-.7-3.78-1.26-4.76-4.06-4.76h-1.4v18.69c0 2.59.385 2.8 2.52 3.01v.77c-1.61-.14-2.625-.21-3.85-.21s-2.24.07-3.85.21v-.77c2.135-.21 2.52-.42 2.52-3.01v-18.69h-1.4c-2.8 0-3.36.98-4.06 4.76H0l.455-5.74zm11.378 23.73c-4.445 0-8.12-4.165-8.12-12.04s3.675-12.04 8.12-12.04 8.12 4.165 8.12 12.04-3.675 12.04-8.12 12.04m0-.91c3.57 0 5.285-4.235 5.285-11.13s-1.715-11.13-5.285-11.13-5.285 4.235-5.285 11.13 1.715 11.13 5.285 11.13m25.413-5.775-.91 6.335H37.35v-.77c1.925-.105 2.275-.42 2.275-2.8v-16.1c0-2.555-.35-2.8-2.275-3.01v-.77c2.135.175 2.45.21 3.605.21 1.225 0 1.715-.035 3.815-.21v.77c-2.1.21-2.485.42-2.485 3.01v17.29c0 .98.21 1.4 1.715 1.4h2.1c2.415 0 3.605-1.12 4.515-5.355zm4.946-13.335c0-2.555-.35-2.8-2.275-3.01v-.77c2.135.175 2.45.21 3.605.21s1.47-.035 3.605-.21v.77c-1.925.21-2.275.455-2.275 3.01v15.96c0 2.555.35 2.8 2.275 3.01v.77c-2.135-.175-2.45-.21-3.605-.21s-1.47.035-3.605.21v-.77c1.925-.21 2.275-.455 2.275-3.01zM79.03 55.93c.91 1.505 1.365 1.925 2.835 2.135v.77c-1.47-.175-2.17-.21-3.36-.21-1.26 0-2.345.035-3.92.21v-.77c1.855-.21 2.45-.315 1.225-2.415l-5.18-8.82h-1.225v8.225c0 2.555.35 2.8 2.275 3.01v.77c-2.135-.175-2.45-.21-3.605-.21s-1.47.035-3.605.21v-.77c1.925-.21 2.275-.455 2.275-3.01v-15.96c0-2.555-.35-2.8-2.275-3.01v-.77c2.135.175 2.45.21 3.605.21s1.47-.035 3.605-.21v.77c-1.925.21-2.275.455-2.275 3.01v6.755h1.225l5.285-7.56c1.225-1.75.42-2.03-1.505-2.205v-.77c1.33.14 2.31.21 3.325.21.91 0 1.855-.07 3.08-.21v.77c-1.82.21-2.38.28-3.71 2.205l-4.62 6.615zm31.16-.875c.07 2.555.455 2.8 2.38 3.01v.77c-2.135-.175-2.45-.21-3.605-.21h-.07c-1.225 0-2.1.07-3.78.21v-.77c2.135-.21 2.485-.42 2.415-3.01l-.49-16.835-6.09 20.09h-.42l-5.985-20.055-.525 16.8c-.07 2.59.28 2.8 2.415 3.01v.77c-1.33-.14-2.03-.21-2.975-.21h-.035c-.875 0-1.75.105-2.765.21v-.77c1.925-.21 2.31-.455 2.38-3.01l.49-15.96c.07-2.555-.245-2.8-2.17-3.01v-.77c2.135.175 2.45.21 3.255.21.875 0 1.365-.035 1.89-.105l5.11 17.29 5.215-17.29c.49.07 1.155.105 1.785.105.805 0 1.12-.035 3.255-.175v.77c-1.925.175-2.24.42-2.17 2.975zm13.512 4.06c-4.445 0-8.12-4.165-8.12-12.04s3.675-12.04 8.12-12.04 8.12 4.165 8.12 12.04-3.675 12.04-8.12 12.04m0-.91c3.57 0 5.285-4.235 5.285-11.13s-1.715-11.13-5.285-11.13-5.285 4.235-5.285 11.13 1.715 11.13 5.285 11.13m19.286-25.445h-1.435l-3.78-4.025h1.015l3.465 2.1 3.465-2.1h1.015zm5.075 19.565h.7l-.77 6.44h-13.475v-.28l10.85-22.12h-4.585c-2.73 0-3.395 1.05-4.06 4.935h-.7l.455-5.915h12.145v.28l-10.85 22.12h5.565c3.22 0 3.78-1.155 4.725-5.46m18.175-16.8c.875 0 1.75-.105 2.765-.21v.77c-1.925.21-2.275.455-2.275 3.01v20.02h-.42l-11.165-20.65v16.59c0 2.59.385 2.8 2.555 3.01v.77c-.945-.105-1.995-.21-2.94-.21h-.105c-.875 0-1.75.105-2.765.21v-.77c1.925-.21 2.275-.455 2.275-3.01v-17.99c-.35-.455-.945-.77-2.275-.945v-.77c1.4.14 1.82.175 2.695.175.63 0 1.225-.035 1.855-.105l9.31 17.185V39.13c0-2.59-.385-2.835-2.555-3.045v-.77c1.085.14 1.995.21 2.94.21zm14.037 23.59c-4.445 0-8.12-4.165-8.12-12.04s3.675-12.04 8.12-12.04 8.12 4.165 8.12 12.04-3.675 12.04-8.12 12.04m0-.91c3.57 0 5.285-4.235 5.285-11.13s-1.715-11.13-5.285-11.13-5.285 4.235-5.285 11.13 1.715 11.13 5.285 11.13m20.856-11.795c2.45 1.435 3.92 3.255 3.92 6.3 0 3.43-2.73 6.405-6.44 6.405-1.995 0-3.78-.875-4.725-2.135l-.91 2.31h-.49v-8.015h.7c.595 4.34 2.135 6.93 5.32 6.93 2.695 0 4.27-1.575 4.27-4.13 0-2.66-1.365-4.095-3.605-5.425l-2.555-1.505c-2.38-1.4-3.92-3.15-3.92-6.23 0-3.78 2.87-5.88 5.705-5.88 1.995 0 3.535 1.12 4.34 2.345l.7-2.38h.49v7h-.63c-.56-3.395-2.1-6.055-4.76-6.055-2.345 0-3.71 1.61-3.71 4.06 0 2.24 1.225 3.43 3.255 4.62zm21.331-11.025.455 5.74h-.7c-.7-3.78-1.26-4.76-4.06-4.76h-1.4v18.69c0 2.59.385 2.8 2.52 3.01v.77c-1.61-.14-2.625-.21-3.85-.21s-2.24.07-3.85.21v-.77c2.135-.21 2.52-.42 2.52-3.01v-18.69h-1.4c-2.8 0-3.36.98-4.06 4.76h-.7l.455-5.74zm5.07-2.31 3.15-3.78c.525-.63.84-.91 1.47-.91.56 0 1.155.49 1.155 1.225 0 .35-.07.84-1.085 1.4l-3.675 2.065zm.455 6.02c0-2.555-.35-2.8-2.275-3.01v-.77c2.135.175 2.45.21 3.605.21s1.47-.035 3.605-.21v.77c-1.925.21-2.275.455-2.275 3.01v15.96c0 2.555.35 2.8 2.275 3.01v.77c-2.135-.175-2.45-.21-3.605-.21s-1.47.035-3.605.21v-.77c1.925-.21 2.275-.455 2.275-3.01zm10.169 20.02c-1.05 0-1.75-.77-1.75-1.785s.7-1.785 1.75-1.785 1.75.77 1.75 1.785-.7 1.785-1.75 1.785"/></svg>