<svg xmlns="http://www.w3.org/2000/svg" fill="none" viewBox="0 0 282 66"><path fill="#000" d="M49.397 7.14c.875 0 1.75-.105 2.765-.21v.77c-1.925.21-2.275.455-2.275 3.01v20.02h-.42L38.302 10.08v16.59c0 2.59.385 2.8 2.555 3.01v.77c-.945-.105-1.995-.21-2.94-.21h-.105c-.875 0-1.75.105-2.765.21v-.77c1.925-.21 2.275-.455 2.275-3.01V8.68c-.35-.455-.945-.77-2.275-.945v-.77c1.4.14 1.82.175 2.695.175.63 0 1.225-.035 1.855-.105l9.31 17.185V10.745c0-2.59-.385-2.835-2.555-3.045v-.77c1.085.14 1.995.21 2.94.21zm19.602 19.705c.805 2.52 1.05 2.625 2.625 2.835v.77c-1.505-.14-2.205-.21-3.325-.21-1.085 0-1.995.07-3.675.21v-.77c1.925-.21 2.345-.35 1.575-2.87l-1.085-3.57h-6.72l-1.015 3.57c-.7 2.485-.35 2.66 1.575 2.87v.77c-.945-.105-2.065-.21-2.87-.21s-1.47.105-2.38.21v-.77c1.645-.21 1.995-.56 2.66-2.87l5.705-20.16h.42zM58.674 22.26h6.125l-3.15-10.29zM85.672 7.14c.7 0 1.505-.07 2.38-.21v.77c-1.645.21-2.1.56-2.765 2.87l-5.775 20.16h-.42l-6.3-20.195c-.77-2.52-1.155-2.625-2.73-2.835v-.77c1.435.14 2.205.21 3.29.21 1.12 0 2.03-.07 3.815-.21v.77c-2.065.21-2.24.385-1.505 2.87l4.34 14.665 4.27-14.665c.735-2.45.56-2.66-1.505-2.87v-.77c1.015.105 2.065.21 2.905.21m11.244-2.765h-1.435L91.701.35h1.015l3.465 2.1 3.465-2.1h1.015zm1.89 13.65c2.45 1.435 3.92 3.255 3.92 6.3 0 3.43-2.73 6.405-6.44 6.405-1.995 0-3.78-.875-4.725-2.135l-.91 2.31h-.49V22.89h.7c.595 4.34 2.135 6.93 5.32 6.93 2.695 0 4.27-1.575 4.27-4.13 0-2.66-1.365-4.095-3.605-5.425l-2.555-1.505c-2.38-1.4-3.92-3.15-3.92-6.23 0-3.78 2.87-5.88 5.705-5.88 1.995 0 3.535 1.12 4.34 2.345l.7-2.38h.49v7h-.63c-.56-3.395-2.1-6.055-4.76-6.055-2.345 0-3.71 1.61-3.71 4.06 0 2.24 1.225 3.43 3.255 4.62zM120.137 7l.455 5.74h-.7c-.7-3.78-1.26-4.76-4.06-4.76h-1.4v18.69c0 2.59.385 2.8 2.52 3.01v.77c-1.61-.14-2.625-.21-3.85-.21s-2.24.07-3.85.21v-.77c2.135-.21 2.52-.42 2.52-3.01V7.98h-1.4c-2.8 0-3.36.98-4.06 4.76h-.7l.455-5.74zm5.525 3.71c0-2.555-.35-2.8-2.275-3.01v-.77c2.135.175 2.45.21 3.605.21s1.47-.035 3.605-.21v.77c-1.925.21-2.275.455-2.275 3.01v15.96c0 2.555.35 2.8 2.275 3.01v.77c-2.135-.175-2.45-.21-3.605-.21s-1.47.035-3.605.21v-.77c1.925-.21 2.275-.455 2.275-3.01zm22.384-3.57c.7 0 1.505-.07 2.38-.21v.77c-1.645.21-2.1.56-2.765 2.87l-5.775 20.16h-.42l-6.3-20.195c-.77-2.52-1.155-2.625-2.73-2.835v-.77c1.435.14 2.205.21 3.29.21 1.12 0 2.03-.07 3.815-.21v.77c-2.065.21-2.24.385-1.505 2.87l4.34 14.665 4.27-14.665c.735-2.45.56-2.66-1.505-2.87v-.77c1.015.105 2.065.21 2.905.21m18.41-.14.455 5.74h-.7c-.7-3.78-1.26-4.76-4.06-4.76h-1.4v18.69c0 2.59.385 2.8 2.52 3.01v.77c-1.61-.14-2.625-.21-3.85-.21s-2.24.07-3.85.21v-.77c2.135-.21 2.52-.42 2.52-3.01V7.98h-1.4c-2.8 0-3.36.98-4.06 4.76h-.7l.455-5.74zm16.62 17.64h.7l-.595 5.74h-13.475v-.77c1.925-.105 2.275-.42 2.275-2.8V10.57c0-2.38-.35-2.695-2.275-2.8V7h12.74l.49 5.425h-.7c-.665-3.5-1.33-4.445-4.095-4.445h-3.5v9.8h4.06c1.19 0 1.505-.63 1.61-2.835h.7v6.65h-.7c-.07-2.205-.42-2.835-1.61-2.835h-4.06V28c0 .98.21 1.4 1.715 1.4h2.52c2.87 0 3.36-1.015 4.2-4.76m25.673-17.5c.875 0 1.75-.105 2.765-.21v.77c-1.925.21-2.275.455-2.275 3.01v20.02h-.42l-11.165-20.65v16.59c0 2.59.385 2.8 2.555 3.01v.77c-.945-.105-1.995-.21-2.94-.21h-.105c-.875 0-1.75.105-2.765.21v-.77c1.925-.21 2.275-.455 2.275-3.01V8.68c-.35-.455-.945-.77-2.275-.945v-.77c1.4.14 1.82.175 2.695.175.63 0 1.225-.035 1.855-.105l9.31 17.185V10.745c0-2.59-.385-2.835-2.555-3.045v-.77c1.085.14 1.995.21 2.94.21zm15.787-4.515-3.675 2.065h-1.015l3.15-3.78c.525-.63.84-.91 1.47-.91.56 0 1.155.49 1.155 1.225 0 .35-.07.84-1.085 1.4m3.815 24.22c.805 2.52 1.05 2.625 2.625 2.835v.77c-1.505-.14-2.205-.21-3.325-.21-1.085 0-1.995.07-3.675.21v-.77c1.925-.21 2.345-.35 1.575-2.87l-1.085-3.57h-6.72l-1.015 3.57c-.7 2.485-.35 2.66 1.575 2.87v.77c-.945-.105-2.065-.21-2.87-.21s-1.47.105-2.38.21v-.77c1.645-.21 1.995-.56 2.66-2.87l5.705-20.16h.42zm-10.325-4.585h6.125l-3.15-10.29zm21.983-17.885h-1.435L234.794.35h1.015l3.465 2.1 3.465-2.1h1.015zm1.89 13.65c2.45 1.435 3.92 3.255 3.92 6.3 0 3.43-2.73 6.405-6.44 6.405-1.995 0-3.78-.875-4.725-2.135l-.91 2.31h-.49V22.89h.7c.595 4.34 2.135 6.93 5.32 6.93 2.695 0 4.27-1.575 4.27-4.13 0-2.66-1.365-4.095-3.605-5.425l-2.555-1.505c-2.38-1.4-3.92-3.15-3.92-6.23 0-3.78 2.87-5.88 5.705-5.88 1.995 0 3.535 1.12 4.34 2.345l.7-2.38h.49v7h-.63c-.56-3.395-2.1-6.055-4.76-6.055-2.345 0-3.71 1.61-3.71 4.06 0 2.24 1.225 3.43 3.255 4.62zM8.12 65.73C3.675 65.73 0 61.565 0 53.69s3.675-12.04 8.12-12.04 8.12 4.165 8.12 12.04-3.675 12.04-8.12 12.04m0-.91c3.57 0 5.285-4.235 5.285-11.13S11.69 42.56 8.12 42.56s-5.285 4.235-5.285 11.13S4.55 64.82 8.12 64.82m25.798-22.68c.875 0 1.75-.105 2.765-.21v.77c-1.925.21-2.275.455-2.275 3.01v20.02h-.42L22.823 45.08v16.59c0 2.59.385 2.8 2.555 3.01v.77c-.945-.105-1.995-.21-2.94-.21h-.105c-.875 0-1.75.105-2.765.21v-.77c1.925-.21 2.275-.455 2.275-3.01V43.68c-.35-.455-.945-.77-2.275-.945v-.77c1.4.14 1.82.175 2.695.175.63 0 1.225-.035 1.855-.105l9.31 17.185V45.745c0-2.59-.385-2.835-2.555-3.045v-.77c1.085.14 1.995.21 2.94.21zm19.84 16.905-.91 6.335H39.793v-.77c1.925-.105 2.275-.42 2.275-2.8v-16.1c0-2.555-.35-2.8-2.275-3.01v-.77c2.135.175 2.45.21 3.605.21 1.225 0 1.715-.035 3.815-.21v.77c-2.1.21-2.485.42-2.485 3.01V63c0 .98.21 1.4 1.715 1.4h2.1c2.415 0 3.605-1.12 4.515-5.355zm4.946-13.335c0-2.555-.35-2.8-2.275-3.01v-.77c2.135.175 2.45.21 3.605.21s1.47-.035 3.605-.21v.77c-1.925.21-2.275.455-2.275 3.01v15.96c0 2.555.35 2.8 2.275 3.01v.77c-2.135-.175-2.45-.21-3.605-.21s-1.47.035-3.605.21v-.77c1.925-.21 2.275-.455 2.275-3.01zm22.558-3.57c.875 0 1.75-.105 2.765-.21v.77c-1.925.21-2.275.455-2.275 3.01v20.02h-.42L70.167 45.08v16.59c0 2.59.385 2.8 2.555 3.01v.77c-.945-.105-1.995-.21-2.94-.21h-.105c-.875 0-1.75.105-2.765.21v-.77c1.925-.21 2.275-.455 2.275-3.01V43.68c-.35-.455-.945-.77-2.275-.945v-.77c1.4.14 1.82.175 2.695.175.63 0 1.225-.035 1.855-.105l9.31 17.185V45.745c0-2.59-.385-2.835-2.555-3.045v-.77c1.085.14 1.995.21 2.94.21zm19.245 17.5h.7l-.595 5.74H87.137v-.77c1.925-.105 2.275-.42 2.275-2.8V45.57c0-2.38-.35-2.695-2.275-2.8V42h12.74l.49 5.425h-.7c-.665-3.5-1.33-4.445-4.095-4.445h-3.5v9.8h4.06c1.19 0 1.505-.63 1.61-2.835h.7v6.65h-.7c-.07-2.205-.42-2.835-1.61-2.835h-4.06V63c0 .98.21 1.4 1.715 1.4h2.52c2.87 0 3.36-1.015 4.2-4.76m20.458-6.615c2.45 1.435 3.92 3.255 3.92 6.3 0 3.43-2.73 6.405-6.44 6.405-1.995 0-3.78-.875-4.725-2.135l-.91 2.31h-.49V57.89h.7c.595 4.34 2.135 6.93 5.32 6.93 2.695 0 4.27-1.575 4.27-4.13 0-2.66-1.365-4.095-3.605-5.425l-2.555-1.505c-2.38-1.4-3.92-3.15-3.92-6.23 0-3.78 2.87-5.88 5.705-5.88 1.995 0 3.535 1.12 4.34 2.345l.7-2.38h.49v7h-.63c-.56-3.395-2.1-6.055-4.76-6.055-2.345 0-3.71 1.61-3.71 4.06 0 2.24 1.225 3.43 3.255 4.62zM146.076 42.7c-1.925.21-2.275.455-2.275 3.01v15.96c0 2.555.35 2.8 2.275 3.01v.77c-2.135-.175-2.45-.21-3.605-.21s-1.47.035-3.605.21v-.77c1.925-.21 2.275-.455 2.275-3.01v-7.875h-7.945v7.875c0 2.555.35 2.8 2.275 3.01v.77c-2.135-.175-2.45-.21-3.605-.21s-1.47.035-3.605.21v-.77c1.925-.21 2.275-.455 2.275-3.01V45.71c0-2.555-.35-2.8-2.275-3.01v-.77c2.135.175 2.45.21 3.605.21s1.47-.035 3.605-.21v.77c-1.925.21-2.275.455-2.275 3.01v7.105h7.945V45.71c0-2.555-.35-2.8-2.275-3.01v-.77c2.135.175 2.45.21 3.605.21s1.47-.035 3.605-.21zm11.46 23.03c-4.445 0-8.12-4.165-8.12-12.04s3.675-12.04 8.12-12.04 8.12 4.165 8.12 12.04-3.675 12.04-8.12 12.04m0-.91c3.57 0 5.285-4.235 5.285-11.13s-1.715-11.13-5.285-11.13-5.285 4.235-5.285 11.13 1.715 11.13 5.285 11.13m32.309-22.68c.735 0 1.47-.07 2.31-.21v.77c-1.505.21-1.855.455-2.38 2.94l-4.235 20.09h-.42l-5.215-18.095-4.97 18.095h-.42l-4.585-20.125c-.56-2.485-.875-2.695-2.31-2.905v-.77c1.645.175 2.135.21 3.08.21 1.19 0 1.855-.035 3.675-.21v.77c-2.1.21-2.17.385-1.645 2.94l2.905 13.755 4.795-17.745h.42l5.04 17.71 2.87-13.72c.525-2.52.42-2.73-1.68-2.94v-.77c1.015.14 1.855.21 2.765.21m18.845 20.615c.665 1.715 1.12 1.96 2.8 1.96v.77c-.56.14-1.33.21-1.995.21-1.54 0-3.01-.49-3.815-2.835l-1.785-5.11c-.735-2.1-1.61-3.57-4.06-3.57h-.735v7.49c0 2.555.35 2.8 2.275 3.01v.77c-2.135-.175-2.45-.21-3.605-.21s-1.47.035-3.605.21v-.77c1.925-.21 2.275-.455 2.275-3.01v-16.1c0-2.38-.35-2.695-2.275-2.8V42h7.455c4.06 0 6.58 2.345 6.58 5.985 0 3.255-2.66 5.53-5.845 5.88 1.435.245 3.395 1.19 4.445 3.92zm-7.595-19.775H199.1V53.2h2.03c2.94 0 4.235-1.96 4.235-5.075 0-3.15-1.295-5.145-4.27-5.145m20.055 22.75c-4.445 0-8.12-4.165-8.12-12.04s3.675-12.04 8.12-12.04 8.12 4.165 8.12 12.04-3.675 12.04-8.12 12.04m0-.91c3.57 0 5.285-4.235 5.285-11.13s-1.715-11.13-5.285-11.13-5.285 4.235-5.285 11.13 1.715 11.13 5.285 11.13m20.156.91c-4.445 0-8.12-4.165-8.12-12.04s3.675-12.04 8.12-12.04 8.12 4.165 8.12 12.04-3.675 12.04-8.12 12.04m0-.91c3.57 0 5.285-4.235 5.285-11.13s-1.715-11.13-5.285-11.13-5.285 4.235-5.285 11.13 1.715 11.13 5.285 11.13m30.664-3.15c.07 2.555.455 2.8 2.38 3.01v.77c-2.135-.175-2.45-.21-3.605-.21h-.07c-1.225 0-2.1.07-3.78.21v-.77c2.135-.21 2.485-.42 2.415-3.01l-.49-16.835-6.09 20.09h-.42l-5.985-20.055-.525 16.8c-.07 2.59.28 2.8 2.415 3.01v.77c-1.33-.14-2.03-.21-2.975-.21h-.035c-.875 0-1.75.105-2.765.21v-.77c1.925-.21 2.31-.455 2.38-3.01l.49-15.96c.07-2.555-.245-2.8-2.17-3.01v-.77c2.135.175 2.45.21 3.255.21.875 0 1.365-.035 1.89-.105l5.11 17.29 5.215-17.29c.49.07 1.155.105 1.785.105.805 0 1.12-.035 3.255-.175v.77c-1.925.175-2.24.42-2.17 2.975zm7.344 4.06c-1.05 0-1.75-.77-1.75-1.785s.7-1.785 1.75-1.785 1.75.77 1.75 1.785-.7 1.785-1.75 1.785"/></svg>