<svg xmlns="http://www.w3.org/2000/svg" fill="none" viewBox="0 0 120 134"><path fill="#fff" d="M.127 0H3.72l2.83 12.975L9.916.495h2.958l3.377 12.48L19.056 0h3.44L17.94 17.342H14.51L11.286 5.878 8.011 17.342H4.634zM23.69 11.096q0-1.346.444-2.501a6.1 6.1 0 0 1 1.27-2.006 6 6 0 0 1 1.954-1.359q1.143-.495 2.514-.495 1.663 0 2.818.61t1.854 1.6q.71.99 1.016 2.234.317 1.245.317 2.551v.432h-9.103q0 .674.305 1.232.305.546.774.939.483.381 1.092.597.622.203 1.22.203.887 0 1.548-.165.66-.178 1.117-.394a4.2 4.2 0 0 0 1.232-.876l1.663 1.88-.432.43q-.342.345-1.016.737-.66.393-1.688.698-1.029.318-2.45.318-1.46 0-2.654-.495a6.1 6.1 0 0 1-2.044-1.359 6 6 0 0 1-1.307-2.094q-.444-1.232-.445-2.717m3.059-1.143h5.98q0-.47-.178-.927a2.6 2.6 0 0 0-.533-.85 2.7 2.7 0 0 0-.902-.622 2.9 2.9 0 0 0-1.244-.254q-.75 0-1.333.254-.584.24-.978.622a2.8 2.8 0 0 0-.609.85 2.3 2.3 0 0 0-.203.927m11.502 7.389v-12.2h2.933l.076 1.383q.228-.253.558-.546.33-.291.788-.533.456-.24 1.028-.393.57-.165 1.295-.165 2.285 0 3.478 1.37 1.206 1.36 1.206 3.67v7.414h-3.072V9.953q0-1.168-.635-1.803-.635-.634-1.65-.634-.622 0-1.168.254-.546.24-.94.685-.394.432-.622 1.028-.216.585-.216 1.257v6.602zm14.32 0v-12.2h2.933l.076 1.383q.228-.253.559-.546.33-.291.787-.533.456-.24 1.028-.393.572-.165 1.295-.165 2.285 0 3.478 1.37 1.207 1.36 1.207 3.67v7.414H60.86V9.953q0-1.168-.634-1.803-.636-.634-1.65-.634-.623 0-1.169.254-.546.24-.94.685-.393.432-.621 1.028-.216.585-.216 1.257v6.602zm18.447-5.878q0-1.435.406-2.501.42-1.08 1.04-1.84a5.5 5.5 0 0 1 1.143-1.042q.636-.42 1.27-.685a5.8 5.8 0 0 1 1.231-.394 5.6 5.6 0 0 1 1.041-.114q.597 0 .99.038.394.038.699.101.318.064.571.178l.597.229V0h3.047v17.342h-2.971l-.076-1.194q-.23.255-.571.546-.33.28-.788.52-.457.23-1.015.382-.559.165-1.257.165-.99 0-1.955-.42a5.3 5.3 0 0 1-1.727-1.218q-.749-.813-1.218-1.98-.457-1.169-.457-2.68m3.085 0q0 1.56.774 2.602.787 1.041 2.272 1.041.775 0 1.32-.292.56-.304.89-.774.342-.47.495-1.028.152-.559.152-1.08V8.189a2.5 2.5 0 0 0-1.028-.507q-.585-.14-1.486-.14-.915 0-1.51.355a3.6 3.6 0 0 0-1.042.915q-.394.52-.622 1.218a4.8 4.8 0 0 0-.215 1.435m11.387-.368q0-1.346.445-2.501a6.1 6.1 0 0 1 1.27-2.006 6 6 0 0 1 1.954-1.359q1.143-.495 2.514-.495 1.663 0 2.818.61t1.854 1.6q.71.99 1.015 2.234.318 1.245.318 2.551v.432h-9.103q0 .674.305 1.232.304.546.774.939.483.381 1.092.597.622.203 1.219.203.888 0 1.549-.165.66-.178 1.117-.394a4.2 4.2 0 0 0 1.231-.876l1.663 1.88-.431.43q-.343.345-1.016.737-.66.393-1.688.698-1.03.318-2.45.318-1.46 0-2.654-.495a6.1 6.1 0 0 1-2.044-1.359 6 6 0 0 1-1.307-2.094q-.445-1.232-.445-2.717m3.06-1.143h5.98q0-.47-.178-.927a2.6 2.6 0 0 0-.534-.85 2.7 2.7 0 0 0-.901-.622 2.9 2.9 0 0 0-1.244-.254q-.75 0-1.333.254-.584.24-.978.622a2.8 2.8 0 0 0-.61.85 2.3 2.3 0 0 0-.202.927m11.527-6.728V0h3.276v3.225zm.102 14.117v-12.2h3.072v12.2zm6.22 0v-12.2h2.933l.076 1.383q.23-.253.559-.546.33-.291.787-.533.457-.24 1.028-.393.572-.165 1.295-.165 2.285 0 3.479 1.37 1.206 1.36 1.206 3.67v7.414h-3.073V9.953q0-1.168-.634-1.803-.635-.634-1.651-.634-.622 0-1.168.254a2.7 2.7 0 0 0-.939.685q-.393.432-.622 1.028-.216.585-.216 1.257v6.602zM.673 43.562l2.298-2.108q.317.368.736.774.432.394.965.75.533.342 1.193.584.66.228 1.498.228 1.536 0 2.273-.698.736-.699.736-1.689 0-.546-.203-.977-.203-.432-.698-.75-.495-.33-1.295-.583a15.5 15.5 0 0 0-1.955-.495q-1.194-.23-2.07-.724a5.5 5.5 0 0 1-1.447-1.18 4.8 4.8 0 0 1-.863-1.486 5.2 5.2 0 0 1-.28-1.688q0-.99.356-1.88.368-.901 1.117-1.586.762-.685 1.892-1.105t2.666-.419q1.384 0 2.361.318.99.304 1.65.723.674.42 1.029.825.368.394.533.584L11.007 33a10 10 0 0 1-.42-.368 4 4 0 0 0-.723-.533 4.7 4.7 0 0 0-1.028-.47 4 4 0 0 0-1.346-.216q-.673 0-1.168.19-.495.179-.825.47a1.9 1.9 0 0 0-.482.635 1.6 1.6 0 0 0-.153.66q0 .47.165.838.179.355.572.673.406.305 1.104.559.712.24 1.777.457a9 9 0 0 1 1.943.622q.939.419 1.65 1.079.724.66 1.143 1.612.432.952.432 2.273 0 1.142-.47 2.107a5.1 5.1 0 0 1-1.295 1.688q-.825.725-1.98 1.13a7.4 7.4 0 0 1-2.489.407q-1.294 0-2.349-.318a8.8 8.8 0 0 1-1.904-.787 8.2 8.2 0 0 1-1.46-1.054q-.61-.571-1.028-1.091m16.123 2.78v-12.2h2.933l.076 1.383q.228-.253.533-.558t.723-.533a5 5 0 0 1 .99-.381q.572-.165 1.296-.165 2.411 0 3.669 1.764.939-.965 1.904-1.358.979-.406 2.272-.406 2.31 0 3.542 1.37 1.245 1.36 1.244 3.67v7.414h-3.06v-7.389q0-1.169-.596-1.803-.584-.634-1.587-.634-.622 0-1.155.254-.52.24-.901.685-.368.431-.572 1.028-.19.585-.19 1.257v6.602h-3.06v-7.389q0-1.169-.584-1.803-.583-.634-1.6-.634-.621 0-1.142.254-.52.24-.901.685a3 3 0 0 0-.584 1.028 4 4 0 0 0-.19 1.257v6.602zm21.353-3.568q0-1.04.394-1.853a3.9 3.9 0 0 1 1.092-1.384q.698-.559 1.688-.838a7.7 7.7 0 0 1 2.184-.292 29 29 0 0 1 1.663.051q.47.025.965.064v-.292q0-.915-.737-1.435-.724-.52-1.891-.52-1.294 0-2.082.342-.775.343-1.371.724l-1.41-2.07q.369-.253.838-.533a6 6 0 0 1 1.092-.495 8 8 0 0 1 1.435-.368q.825-.14 1.917-.14 1.167 0 2.12.33a4.7 4.7 0 0 1 1.625.902q.674.584 1.04 1.409.37.813.37 1.777v8.189h-2.87l-.076-1.143q-.495.597-1.511 1.067-1.015.47-2.26.47-.749 0-1.498-.242-.736-.229-1.346-.71a3.7 3.7 0 0 1-.99-1.232q-.38-.761-.38-1.778m2.946-.127q0 .775.558 1.22.56.443 1.65.444.547 0 1.054-.178.508-.178.89-.495.392-.318.634-.724.255-.419.254-.889v-1.193l-.914-.05q-.369-.026-.775-.039a21 21 0 0 0-.673-.013q-1.485 0-2.082.585-.596.583-.596 1.333m10.943 3.695v-12.2h2.933l.076 1.536q.203-.255.533-.559.33-.317.775-.571.444-.267 1.028-.457a4 4 0 0 1 1.333-.178q.444 0 .787.05.355.052.724.179l-.622 2.894a3 3 0 0 0-.648-.178 4 4 0 0 0-.762-.063 3.4 3.4 0 0 0-1.193.216q-.57.203-.99.596-.42.394-.673.94-.24.546-.241 1.219v6.576zm8.887-9.7v-2.5h2.082v-3.949h3.06v3.949h3.275v2.5h-3.276v5.333q0 1.04.356 1.6.356.558 1.13.558.723 0 1.155-.203a6 6 0 0 0 .825-.495l1.295 1.891q-.914.75-1.803 1.08-.876.33-1.967.33-1.118 0-1.905-.33a3.1 3.1 0 0 1-1.257-.915 3.7 3.7 0 0 1-.685-1.447 8 8 0 0 1-.203-1.866v-5.535zM.673 72.563l2.298-2.108q.317.369.736.775.432.393.965.749.533.342 1.193.584.66.228 1.498.228 1.536 0 2.273-.698.736-.698.736-1.689 0-.546-.203-.977-.203-.432-.698-.75-.495-.33-1.295-.583a15.5 15.5 0 0 0-1.955-.495q-1.194-.23-2.07-.724a5.5 5.5 0 0 1-1.447-1.18 4.8 4.8 0 0 1-.863-1.486 5.2 5.2 0 0 1-.28-1.688q0-.99.356-1.88.368-.901 1.117-1.586.762-.686 1.892-1.105 1.13-.42 2.666-.419 1.384 0 2.361.318.99.305 1.65.723.674.42 1.029.826.368.392.533.584l-2.158 2.018a10 10 0 0 1-.42-.368 4 4 0 0 0-.723-.533 4.7 4.7 0 0 0-1.028-.47 4 4 0 0 0-1.346-.216q-.673 0-1.168.19-.495.179-.825.47a1.9 1.9 0 0 0-.482.635 1.6 1.6 0 0 0-.153.66q0 .47.165.838.179.355.572.673.406.305 1.104.558.712.242 1.777.458a9 9 0 0 1 1.943.622q.939.419 1.65 1.079.724.66 1.143 1.612.432.952.432 2.273 0 1.142-.47 2.107a5.1 5.1 0 0 1-1.295 1.688q-.825.725-1.98 1.13a7.4 7.4 0 0 1-2.489.406q-1.294 0-2.349-.317a8.8 8.8 0 0 1-1.904-.787 8.2 8.2 0 0 1-1.46-1.054q-.61-.57-1.028-1.092m16.123 7.985V63.142h2.958l.076 1.383a5.4 5.4 0 0 1 .584-.546q.355-.292.838-.52a6 6 0 0 1 1.092-.38q.61-.166 1.37-.166 1.41 0 2.426.546a5.04 5.04 0 0 1 1.7 1.447 6.3 6.3 0 0 1 1.016 2.044 8.2 8.2 0 0 1 .343 2.361q0 1.436-.419 2.45a7 7 0 0 1-1.04 1.765q-1.042 1.245-2.273 1.74a6.8 6.8 0 0 1-2.54.495 9 9 0 0 1-1.028-.051 5 5 0 0 1-.787-.152 7 7 0 0 1-.647-.204 37 37 0 0 0-.635-.24v5.433zm3.034-8.201q.915.75 2.755.761.838 0 1.485-.317.648-.33 1.105-.863a3.6 3.6 0 0 0 .685-1.206q.242-.686.242-1.41 0-.774-.178-1.447a3.2 3.2 0 0 0-.546-1.193 2.56 2.56 0 0 0-.965-.8q-.597-.305-1.485-.305-.699 0-1.27.305-.571.292-.977.762t-.635 1.028a3 3 0 0 0-.216 1.08zm11.248-3.25q0-1.346.445-2.501a6.1 6.1 0 0 1 1.269-2.006 6 6 0 0 1 1.955-1.358q1.143-.495 2.514-.496 1.663 0 2.818.61t1.854 1.6a6.4 6.4 0 0 1 1.015 2.234q.318 1.245.318 2.552v.431h-9.103q0 .674.305 1.232.305.545.774.939.483.381 1.092.597.622.203 1.219.203.888 0 1.549-.165.66-.178 1.117-.394a4.2 4.2 0 0 0 1.231-.876l1.663 1.88-.431.43q-.343.345-1.016.737-.66.393-1.688.698-1.03.318-2.45.318-1.46 0-2.654-.495a6.1 6.1 0 0 1-2.044-1.359 6 6 0 0 1-1.307-2.094q-.445-1.233-.445-2.717m3.06-1.143h5.98q0-.47-.178-.927a2.6 2.6 0 0 0-.534-.85 2.7 2.7 0 0 0-.901-.622 2.9 2.9 0 0 0-1.244-.254q-.75 0-1.333.254-.584.24-.978.622a2.8 2.8 0 0 0-.61.85 2.3 2.3 0 0 0-.202.927m10.715 3.821q0-1.04.393-1.853a3.9 3.9 0 0 1 1.092-1.384q.698-.559 1.688-.838a7.7 7.7 0 0 1 2.184-.292 29 29 0 0 1 1.663.051q.47.025.965.064v-.293q0-.913-.736-1.434-.724-.52-1.892-.52-1.295 0-2.082.342-.774.343-1.371.724l-1.41-2.07q.369-.253.838-.533a6 6 0 0 1 1.092-.495 8 8 0 0 1 1.435-.368q.825-.14 1.917-.14 1.168 0 2.12.33a4.7 4.7 0 0 1 1.625.902q.673.584 1.041 1.409.368.813.368 1.777v8.189h-2.869l-.076-1.143q-.495.597-1.51 1.067-1.017.47-2.26.47-.75 0-1.499-.242-.736-.229-1.345-.71a3.7 3.7 0 0 1-.99-1.232q-.382-.761-.382-1.778m2.945-.127q0 .775.558 1.22.56.443 1.65.444.547 0 1.054-.178.509-.178.89-.495.393-.318.634-.724.255-.42.254-.889v-1.193l-.914-.05q-.369-.026-.775-.039a21 21 0 0 0-.672-.012q-1.486 0-2.082.584-.597.584-.597 1.332m10.943 3.695V58h3.06v9.458l4.405-4.316h3.605l-4.57 4.506 5.091 7.694h-3.669l-3.53-5.611-1.332 1.294v4.317zm12.734-6.246q0-1.346.444-2.501a6.1 6.1 0 0 1 1.27-2.006 6 6 0 0 1 1.955-1.358q1.142-.495 2.513-.496 1.663 0 2.819.61t1.853 1.6a6.4 6.4 0 0 1 1.016 2.234q.317 1.245.317 2.552v.431H74.56q0 .674.304 1.232.305.545.775.939.482.381 1.092.597.621.203 1.218.203.89 0 1.549-.165.66-.178 1.117-.394a4.2 4.2 0 0 0 1.232-.876l1.663 1.88-.432.43q-.342.345-1.016.737-.66.393-1.688.698-1.028.318-2.45.318-1.46 0-2.654-.495a6.1 6.1 0 0 1-2.043-1.359 6 6 0 0 1-1.308-2.094q-.444-1.233-.444-2.717m3.06-1.143h5.979q0-.47-.178-.927a2.6 2.6 0 0 0-.533-.85 2.7 2.7 0 0 0-.902-.622 2.9 2.9 0 0 0-1.244-.254q-.75 0-1.333.254-.584.24-.977.622a2.8 2.8 0 0 0-.61.85 2.3 2.3 0 0 0-.203.927m11.501 7.389v-12.2h2.933l.076 1.536q.203-.255.533-.559.33-.317.775-.571.444-.267 1.028-.457a4 4 0 0 1 1.333-.178q.444 0 .787.05.355.052.724.179l-.622 2.894a3 3 0 0 0-.648-.178 4 4 0 0 0-.762-.063A3.4 3.4 0 0 0 91 66.01q-.57.203-.99.596-.42.394-.673.94-.24.546-.241 1.219v6.576zM.813 98.464q0-1.435.406-2.501.419-1.08 1.04-1.84a5.5 5.5 0 0 1 1.143-1.042q.636-.42 1.27-.686a5.8 5.8 0 0 1 1.231-.393 5.6 5.6 0 0 1 1.041-.114q.597 0 .99.038.394.038.699.101.317.064.571.178l.597.229V87h3.047v17.342H9.877l-.076-1.194q-.229.255-.572.546-.33.28-.787.521a5.6 5.6 0 0 1-1.015.381q-.56.165-1.257.165-.99 0-1.955-.419a5.3 5.3 0 0 1-1.727-1.219q-.75-.813-1.218-1.98-.457-1.168-.457-2.68m3.084 0q0 1.56.775 2.602.787 1.041 2.272 1.041.776 0 1.32-.292.56-.304.89-.774.342-.47.494-1.028a4 4 0 0 0 .153-1.08v-3.745a2.5 2.5 0 0 0-1.029-.507q-.583-.14-1.485-.14-.915 0-1.51.356a3.6 3.6 0 0 0-1.042.913q-.394.522-.622 1.22a4.8 4.8 0 0 0-.216 1.434m11.985-8.24V87h3.275v3.225zm.101 14.118v-12.2h3.073v12.2zm5.65-6.107q0-1.32.482-2.5a6.4 6.4 0 0 1 1.333-2.07 6.4 6.4 0 0 1 2.07-1.41q1.206-.52 2.666-.52 1.485 0 2.704.534a6.4 6.4 0 0 1 2.082 1.434l-1.955 1.98a3.7 3.7 0 0 0-1.22-.926q-.698-.343-1.611-.343-.89 0-1.537.33-.646.318-1.079.838a3.5 3.5 0 0 0-.647 1.219 5.1 5.1 0 0 0-.203 1.434q0 .699.203 1.384.216.673.647 1.219t1.08.889q.646.33 1.536.33a3.83 3.83 0 0 0 2.932-1.308l1.828 1.98a6.6 6.6 0 0 1-2.03 1.46q-1.17.546-2.73.546-1.562 0-2.793-.469-1.219-.47-2.057-1.321a5.9 5.9 0 0 1-1.27-2.056q-.43-1.206-.431-2.654M35 104.342V87h3.009v6.398q.47-.52 1.37-1.015.903-.495 2.299-.495 1.117 0 1.993.368.888.356 1.473 1.028.596.66.9 1.6.318.927.318 2.044v7.414h-3.072v-7.389q0-1.168-.635-1.803-.635-.634-1.65-.634-.622 0-1.168.253-.546.242-.94.686-.394.431-.622 1.028-.216.585-.216 1.257v6.602zm19.018 0v-12.2h2.932l.076 1.383a7 7 0 0 1 .559-.546 4 4 0 0 1 .787-.533q.458-.24 1.028-.393.572-.165 1.295-.165 2.285 0 3.479 1.37 1.206 1.36 1.206 3.67v7.414h-3.072v-7.389q0-1.168-.635-1.803-.635-.634-1.65-.634-.623 0-1.169.253-.545.242-.939.686-.394.431-.622 1.028a3.6 3.6 0 0 0-.216 1.257v6.602zm14.345-14.117V87h3.276v3.225zm.102 14.117v-12.2h3.072v12.2zm5.65-6.107q0-1.32.482-2.5a6.4 6.4 0 0 1 1.333-2.07A6.4 6.4 0 0 1 78 92.255q1.206-.52 2.666-.52 1.485 0 2.704.534a6.4 6.4 0 0 1 2.082 1.434l-1.955 1.98a3.7 3.7 0 0 0-1.219-.926q-.698-.343-1.612-.343-.889 0-1.536.33-.647.318-1.08.838a3.5 3.5 0 0 0-.647 1.219 5.1 5.1 0 0 0-.203 1.434q0 .699.203 1.384.216.673.648 1.219.43.546 1.079.889.647.33 1.536.33a3.83 3.83 0 0 0 2.933-1.308l1.828 1.98a6.6 6.6 0 0 1-2.032 1.46q-1.167.546-2.729.546-1.561 0-2.793-.469-1.218-.47-2.057-1.321a5.9 5.9 0 0 1-1.27-2.056q-.43-1.206-.43-2.654m13.367 6.107V87h3.01v6.398q.469-.52 1.37-1.015t2.298-.495q1.118 0 1.993.368.89.356 1.473 1.028.597.66.901 1.6.318.927.318 2.044v7.414h-3.073v-7.389q0-1.168-.634-1.803-.635-.634-1.65-.634-.623 0-1.169.253-.546.242-.94.686-.392.431-.621 1.028-.216.585-.216 1.257v6.602zm13.28-9.7v-2.5h2.082v-3.949h3.059v3.949h3.276v2.5h-3.276v5.333q0 1.041.356 1.599.355.56 1.13.559.723 0 1.155-.203.432-.216.825-.495l1.295 1.891q-.914.75-1.803 1.079-.876.33-1.967.33-1.117 0-1.905-.33a3.1 3.1 0 0 1-1.257-.914 3.7 3.7 0 0 1-.685-1.447 8 8 0 0 1-.203-1.866v-5.535zM0 121.143h3.542l3.275 8.747 3.276-8.747h3.351l-5.141 12.2H5.18zm14.523 5.954q0-1.346.445-2.501a6.1 6.1 0 0 1 1.27-2.006 6 6 0 0 1 1.954-1.359q1.143-.495 2.514-.495 1.663 0 2.818.61 1.155.609 1.854 1.599.71.99 1.016 2.235.317 1.244.317 2.551v.432h-9.103q0 .673.305 1.232.304.545.774.939.483.381 1.092.597.622.203 1.219.203.888 0 1.549-.165.66-.178 1.117-.394a4.2 4.2 0 0 0 1.231-.876l1.664 1.879-.432.432q-.343.343-1.016.736-.66.393-1.688.698-1.028.318-2.45.318-1.46 0-2.654-.495a6.1 6.1 0 0 1-2.044-1.359 6 6 0 0 1-1.307-2.095q-.445-1.23-.445-2.716m3.06-1.143h5.98q0-.47-.178-.927a2.6 2.6 0 0 0-.533-.85 2.7 2.7 0 0 0-.902-.622 2.9 2.9 0 0 0-1.244-.254q-.75 0-1.333.254-.584.241-.978.622a2.8 2.8 0 0 0-.609.85 2.3 2.3 0 0 0-.203.927m11.502 7.389v-12.2h2.933l.076 1.536a5 5 0 0 1 .533-.559q.33-.317.774-.571.446-.267 1.029-.457a4.1 4.1 0 0 1 1.333-.178 5.4 5.4 0 0 1 .787.051q.355.05.723.178l-.622 2.894a3 3 0 0 0-.647-.178 4 4 0 0 0-.762-.063q-.621 0-1.193.216-.572.203-.99.596-.42.394-.673.94-.242.546-.242 1.219v6.576zm9.331-1.486 1.84-1.993q.573.572 1.435.952.876.369 1.994.369.99 0 1.587-.254.596-.267.596-.864 0-.253-.101-.469-.102-.23-.445-.432-.33-.215-.927-.419a14 14 0 0 0-1.612-.444q-.622-.153-1.307-.419a5.3 5.3 0 0 1-1.257-.711 4 4 0 0 1-.965-1.092q-.368-.648-.368-1.523 0-.915.431-1.625a3.8 3.8 0 0 1 1.156-1.194 5.7 5.7 0 0 1 1.612-.736 6.4 6.4 0 0 1 1.815-.267q1.613 0 2.743.343 1.13.33 2.044 1.003l-1.587 2.158q-.495-.368-1.308-.66-.8-.305-1.892-.305-1.09 0-1.523.33-.432.331-.432.788 0 .57.711.901.724.33 2.235.686a9 9 0 0 1 1.675.52q.736.318 1.27.787.533.47.812 1.105.292.635.292 1.523 0 .89-.418 1.6-.407.711-1.13 1.206a5.4 5.4 0 0 1-1.664.761 7.1 7.1 0 0 1-2.018.28q-1.714 0-3.098-.483-1.371-.482-2.196-1.422m11.972-8.213v-2.501h2.082v-3.949h3.06v3.949h3.275v2.501h-3.276v5.332q0 1.041.356 1.599.355.56 1.13.559.723 0 1.155-.203.432-.216.825-.495l1.295 1.891q-.914.75-1.803 1.079-.876.33-1.968.33-1.116 0-1.904-.33a3.1 3.1 0 0 1-1.257-.914 3.7 3.7 0 0 1-.685-1.447 8 8 0 0 1-.203-1.866v-5.535zm10.93 3.453q0-1.346.445-2.501a6.1 6.1 0 0 1 1.27-2.006 6 6 0 0 1 1.954-1.359q1.143-.495 2.514-.495 1.663 0 2.818.61 1.155.609 1.854 1.599.71.99 1.016 2.235.317 1.244.317 2.551v.432h-9.103q0 .673.305 1.232.305.545.774.939a3.8 3.8 0 0 0 1.092.597q.622.203 1.219.203.888 0 1.549-.165.66-.178 1.117-.394a4.2 4.2 0 0 0 1.231-.876l1.663 1.879-.431.432q-.343.343-1.016.736-.66.393-1.688.698-1.028.318-2.45.318-1.46 0-2.654-.495a6.1 6.1 0 0 1-2.044-1.359 6 6 0 0 1-1.307-2.095q-.444-1.23-.445-2.716m3.06-1.143h5.98q0-.47-.178-.927a2.6 2.6 0 0 0-.534-.85 2.7 2.7 0 0 0-.9-.622 2.9 2.9 0 0 0-1.245-.254q-.75 0-1.333.254-.584.241-.978.622a2.8 2.8 0 0 0-.609.85 2.3 2.3 0 0 0-.203.927m11.502 7.389V116h3.009v6.398q.47-.52 1.37-1.015.903-.495 2.299-.495 1.117 0 1.993.368a3.8 3.8 0 0 1 1.472 1.028q.597.66.902 1.6.317.927.317 2.044v7.414H84.17v-7.389q0-1.168-.635-1.803-.635-.634-1.65-.634-.622 0-1.168.254-.546.24-.94.685-.394.432-.622 1.028-.216.585-.216 1.257v6.602zm13.28-9.699v-2.501h2.081v-3.949h3.06v3.949h3.275v2.501h-3.275v5.332q0 1.041.355 1.599.356.56 1.13.559.725 0 1.155-.203.432-.216.826-.495l1.294 1.891q-.914.75-1.802 1.079-.876.33-1.968.33-1.118 0-1.904-.33a3.1 3.1 0 0 1-1.257-.914 3.7 3.7 0 0 1-.686-1.447 8 8 0 0 1-.203-1.866v-5.535zm11.755 9.699v-3.593h3.72v3.593zm7.262 0v-3.593h3.719v3.593zm7.261 0v-3.593h3.72v3.593z"/></svg>