<svg xmlns="http://www.w3.org/2000/svg" fill="none" viewBox="0 0 143 92"><path fill="#fff" d="M.156 0h4.422l3.484 15.969L12.204.609h3.64L20 15.97 23.453 0h4.235l-5.61 21.344H17.86l-3.968-14.11-4.032 14.11H5.703zm29.735 3.969V0h4.03v3.969zm.125 17.375V6.328h3.78v15.016zm7.656 0V6.328h3.61l.093 1.89q.25-.312.656-.687.407-.39.953-.703a6.2 6.2 0 0 1 1.266-.562q.72-.235 1.64-.22.547 0 .97.063.437.063.89.22l-.766 3.562a3.6 3.6 0 0 0-.797-.22 5 5 0 0 0-.937-.077q-.765 0-1.469.265a3.4 3.4 0 0 0-1.218.735 3.7 3.7 0 0 0-.829 1.156 3.7 3.7 0 0 0-.297 1.5v8.094zM0 41.328h4.36l4.03 10.766 4.032-10.766h4.125l-6.328 15.016H6.375zm17.875 7.328q0-1.656.547-3.078a7.6 7.6 0 0 1 1.562-2.469 7.4 7.4 0 0 1 2.407-1.672q1.406-.609 3.093-.609 2.047 0 3.47.75 1.42.75 2.28 1.969.876 1.218 1.25 2.75.39 1.531.391 3.14v.532H21.672q0 .828.375 1.515.375.672.953 1.157.594.468 1.344.734.765.25 1.5.25 1.093 0 1.906-.203a8.3 8.3 0 0 0 1.375-.484 5.2 5.2 0 0 0 1.516-1.079l2.047 2.313-.532.531q-.422.421-1.25.906-.812.485-2.078.86-1.266.39-3.015.39-1.797 0-3.266-.609a7.5 7.5 0 0 1-2.516-1.672A7.4 7.4 0 0 1 18.421 52q-.546-1.515-.546-3.344m3.766-1.406H29q0-.578-.219-1.14a3.2 3.2 0 0 0-.656-1.047 3.3 3.3 0 0 0-1.11-.766q-.671-.312-1.53-.313-.922 0-1.641.313-.72.297-1.203.766a3.5 3.5 0 0 0-.75 1.046 2.9 2.9 0 0 0-.25 1.141m14.156 9.094V41.328h3.61l.093 1.89a6.4 6.4 0 0 1 .656-.687q.407-.39.953-.703a6.2 6.2 0 0 1 1.266-.562q.72-.235 1.64-.22.547 0 .97.063.437.063.89.22l-.766 3.562a3.6 3.6 0 0 0-.797-.22 5 5 0 0 0-.937-.077q-.765 0-1.469.265a3.4 3.4 0 0 0-1.218.735 3.7 3.7 0 0 0-.829 1.156 3.7 3.7 0 0 0-.297 1.5v8.094zm11.484-1.828 2.266-2.453q.703.703 1.766 1.171 1.077.453 2.453.453 1.218 0 1.953-.312.735-.329.734-1.062a1.34 1.34 0 0 0-.125-.579q-.125-.28-.547-.53-.405-.267-1.14-.517-.735-.266-1.985-.546a13 13 0 0 1-1.61-.516 6.5 6.5 0 0 1-1.546-.875 4.9 4.9 0 0 1-1.187-1.344q-.454-.797-.454-1.875 0-1.125.532-2a4.7 4.7 0 0 1 1.422-1.468 7 7 0 0 1 1.984-.907 7.8 7.8 0 0 1 2.234-.328q1.985 0 3.375.422a8 8 0 0 1 2.516 1.234l-1.953 2.657q-.61-.453-1.61-.813-.984-.375-2.328-.375t-1.875.406-.531.97q0 .703.875 1.108.89.407 2.75.844 1.155.25 2.063.64.906.391 1.562.97.656.577 1 1.359.36.78.36 1.875t-.516 1.969a4.5 4.5 0 0 1-1.39 1.484q-.876.61-2.048.938-1.172.343-2.484.343-2.109 0-3.813-.593-1.687-.594-2.703-1.75m14.735-10.11v-3.078h2.562v-4.86h3.766v4.86h4.031v3.078h-4.031v6.563q0 1.281.437 1.968.438.688 1.39.688.892 0 1.423-.25.531-.265 1.015-.61l1.594 2.329q-1.125.921-2.219 1.328-1.078.406-2.421.406-1.375 0-2.344-.406a3.8 3.8 0 0 1-1.547-1.125 4.56 4.56 0 0 1-.844-1.781 10 10 0 0 1-.25-2.297v-6.813zm13.453 4.25q0-1.656.547-3.078a7.6 7.6 0 0 1 1.562-2.469 7.4 7.4 0 0 1 2.406-1.672q1.407-.609 3.094-.609 2.047 0 3.469.75t2.281 1.969q.876 1.218 1.25 2.75.39 1.531.39 3.14v.532H79.267q0 .828.375 1.515a4.1 4.1 0 0 0 .953 1.157q.594.468 1.344.734.765.25 1.5.25 1.093 0 1.906-.203.812-.219 1.375-.484a5.2 5.2 0 0 0 1.515-1.079l2.047 2.313-.531.531q-.422.421-1.25.906-.812.485-2.078.86-1.266.39-3.016.39-1.797 0-3.265-.609a7.5 7.5 0 0 1-2.516-1.672A7.4 7.4 0 0 1 76.015 52q-.546-1.515-.546-3.344m3.765-1.406h7.36q0-.578-.219-1.14a3.2 3.2 0 0 0-.656-1.047 3.3 3.3 0 0 0-1.11-.766q-.671-.312-1.53-.313-.922 0-1.641.313-.719.297-1.204.766a3.5 3.5 0 0 0-.75 1.046q-.25.579-.25 1.141m14.157 9.094V35h3.703v7.875q.578-.64 1.687-1.25 1.11-.61 2.828-.61 1.376 0 2.453.454 1.095.437 1.813 1.265.734.813 1.109 1.97.391 1.14.391 2.515v9.125h-3.781V47.25q0-1.437-.782-2.219-.78-.78-2.031-.781-.766 0-1.437.313-.672.296-1.156.843a4 4 0 0 0-.766 1.266q-.266.719-.266 1.547v8.125zm16.921-7.688q0-1.656.547-3.078a7.6 7.6 0 0 1 1.563-2.469 7.4 7.4 0 0 1 2.406-1.672q1.407-.609 3.094-.609 2.047 0 3.469.75t2.281 1.969q.875 1.218 1.25 2.75.39 1.531.39 3.14v.532h-11.203q0 .828.375 1.515.375.672.954 1.157.593.468 1.343.734a4.8 4.8 0 0 0 1.5.25q1.094 0 1.907-.203.812-.219 1.374-.484a5.2 5.2 0 0 0 1.516-1.079l2.047 2.313-.531.531q-.422.421-1.25.906-.813.485-2.078.86-1.266.39-3.016.39-1.796 0-3.266-.609a7.5 7.5 0 0 1-2.515-1.672 7.4 7.4 0 0 1-1.61-2.578q-.547-1.515-.547-3.344m3.766-1.406h7.36a3.1 3.1 0 0 0-.219-1.14 3.2 3.2 0 0 0-.657-1.047 3.3 3.3 0 0 0-1.109-.766q-.672-.312-1.531-.313-.923 0-1.641.313-.719.297-1.203.766a3.5 3.5 0 0 0-.75 1.046q-.25.579-.25 1.141m14.156 9.094V41.328h3.61l.094 1.703q.28-.312.687-.672.406-.36.969-.656t1.265-.484q.703-.204 1.594-.203 2.813 0 4.281 1.687 1.485 1.672 1.485 4.516v9.125h-3.781V47.25q0-1.437-.782-2.219-.781-.78-2.031-.781-.766 0-1.437.313-.672.296-1.157.843a4 4 0 0 0-.765 1.266 4.4 4.4 0 0 0-.266 1.547v8.125zm-126.156 35V70H6.11v8.578h10.594V70h4.031v21.344h-4.03v-9.188H6.108v9.188zm22.688-5.89v-9.126h3.765v9.094q0 1.437.782 2.234.796.781 2.046.781.766 0 1.438-.296a3.3 3.3 0 0 0 1.14-.86q.484-.546.75-1.265.282-.72.282-1.547v-8.14h3.781v15.015h-3.625l-.094-1.703a7 7 0 0 1-.703.671q-.422.36-.969.672-.53.297-1.234.485a6.3 6.3 0 0 1-1.61.187q-2.812 0-4.28-1.672-1.47-1.687-1.47-4.53m16.953 4.062 2.265-2.454q.705.704 1.766 1.172 1.078.454 2.453.454 1.22 0 1.953-.313.735-.328.735-1.062a1.34 1.34 0 0 0-.125-.579q-.126-.28-.547-.53-.407-.267-1.14-.516-.735-.267-1.985-.547a13 13 0 0 1-1.61-.516 6.5 6.5 0 0 1-1.547-.875 4.9 4.9 0 0 1-1.187-1.344q-.453-.797-.453-1.875 0-1.125.531-2a4.7 4.7 0 0 1 1.422-1.469 7 7 0 0 1 1.984-.906 7.8 7.8 0 0 1 2.235-.328q1.985 0 3.375.422a8 8 0 0 1 2.515 1.234l-1.953 2.657q-.609-.454-1.61-.813-.983-.375-2.327-.375t-1.875.406q-.531.406-.532.97 0 .702.876 1.109.89.406 2.75.843 1.156.25 2.062.64.906.391 1.563.97.655.578 1 1.359.36.78.359 1.875 0 1.094-.516 1.969a4.5 4.5 0 0 1-1.39 1.484q-.876.61-2.047.938-1.173.343-2.485.343-2.11 0-3.812-.593-1.687-.594-2.703-1.75m14.734-10.11v-3.078h2.563v-4.86h3.765v4.86h4.032v3.078H62.78v6.563q0 1.28.438 1.969.437.687 1.39.687.891 0 1.422-.25.531-.265 1.016-.61l1.594 2.329q-1.125.921-2.22 1.328-1.077.406-2.421.406-1.375 0-2.344-.406a3.8 3.8 0 0 1-1.547-1.125 4.56 4.56 0 0 1-.843-1.781 10 10 0 0 1-.25-2.297v-6.813zm13.453 4.25q0-1.656.547-3.078a7.6 7.6 0 0 1 1.563-2.469 7.4 7.4 0 0 1 2.406-1.671q1.406-.61 3.094-.61 2.046 0 3.468.75t2.282 1.969q.875 1.218 1.25 2.75.39 1.531.39 3.14v.532H73.703q0 .828.375 1.515.375.672.953 1.157.594.468 1.344.734.765.25 1.5.25 1.095 0 1.906-.203a8.3 8.3 0 0 0 1.375-.484 5.2 5.2 0 0 0 1.516-1.079l2.047 2.313-.531.531q-.422.422-1.25.906-.813.485-2.079.86-1.265.39-3.015.39-1.797 0-3.266-.609a7.5 7.5 0 0 1-2.516-1.672A7.4 7.4 0 0 1 70.454 87q-.547-1.515-.547-3.344m3.766-1.406h7.36q0-.578-.22-1.14a3.2 3.2 0 0 0-.656-1.047 3.3 3.3 0 0 0-1.11-.766q-.671-.313-1.53-.313-.922 0-1.641.313-.72.297-1.203.766a3.5 3.5 0 0 0-.75 1.046q-.25.579-.25 1.141m14.156 9.094V76.328h3.61l.093 1.703a9 9 0 0 1 .688-.672q.406-.36.969-.656.561-.297 1.265-.484.703-.204 1.594-.203 2.813 0 4.281 1.687 1.484 1.672 1.484 4.516v9.125h-3.78V82.25q0-1.437-.782-2.219-.78-.78-2.031-.781-.765 0-1.438.313-.672.296-1.156.843a4 4 0 0 0-.766 1.266q-.265.719-.265 1.547v8.125zm17.938 0v-4.422h4.578v4.422z"/></svg>