<svg xmlns="http://www.w3.org/2000/svg" fill="none" viewBox="0 0 136 69"><path fill="#fff" d="m.504 13.875 2.121-1.945q.293.34.68.715.398.363.89.69.492.318 1.102.54.609.21 1.383.21 1.417 0 2.097-.644.68-.645.68-1.558 0-.504-.187-.902-.187-.4-.645-.692-.457-.305-1.195-.539a14 14 0 0 0-1.805-.457q-1.101-.21-1.91-.668a5 5 0 0 1-1.336-1.09 4.4 4.4 0 0 1-.797-1.37 4.8 4.8 0 0 1-.258-1.56q0-.913.328-1.734a4.04 4.04 0 0 1 1.032-1.465Q3.386.774 4.43.386 5.472 0 6.89 0q1.278 0 2.18.293.914.28 1.524.668.62.387.949.762.34.363.492.539l-1.992 1.863a9 9 0 0 1-.387-.34 3.6 3.6 0 0 0-.668-.492 4.3 4.3 0 0 0-.949-.434 3.6 3.6 0 0 0-1.242-.199q-.621 0-1.078.176-.457.164-.762.434a1.8 1.8 0 0 0-.445.585q-.14.317-.14.61 0 .434.151.773.165.329.528.621.375.282 1.02.516.656.223 1.64.422a8.3 8.3 0 0 1 1.793.574q.867.387 1.523.996.668.61 1.055 1.488.398.88.398 2.098 0 1.055-.433 1.945a4.7 4.7 0 0 1-1.195 1.559A5.5 5.5 0 0 1 9.023 16.5a6.8 6.8 0 0 1-2.296.375q-1.196 0-2.168-.293a8 8 0 0 1-1.758-.727 7.6 7.6 0 0 1-1.348-.972 10 10 0 0 1-.95-1.008M15.41 3.41V.434h3.024V3.41zm.094 13.031V5.18h2.836V16.44zm5.215-5.765q0-1.242.41-2.309A5.7 5.7 0 0 1 22.3 6.516a5.55 5.55 0 0 1 1.805-1.254q1.054-.457 2.32-.457 1.535 0 2.601.562a4.8 4.8 0 0 1 1.711 1.477q.657.915.938 2.062.293 1.149.293 2.356v.398h-8.403q0 .621.282 1.137.28.504.715.867.444.351 1.007.55.574.189 1.125.188.82 0 1.43-.152.61-.164 1.031-.363a3.9 3.9 0 0 0 1.137-.809l1.535 1.735-.398.398q-.317.315-.938.68-.61.363-1.558.644-.95.293-2.262.293-1.348 0-2.45-.457a5.7 5.7 0 0 1-1.886-1.254 5.5 5.5 0 0 1-1.207-1.933q-.41-1.137-.41-2.508m2.824-1.055h5.52q0-.434-.165-.855-.164-.434-.492-.786a2.5 2.5 0 0 0-.832-.574 2.7 2.7 0 0 0-1.148-.234q-.691 0-1.23.234-.54.223-.903.574-.364.352-.562.786-.189.434-.188.855m14.953 6.82V.434h2.777V6.34q.434-.48 1.266-.938t2.121-.457q1.031 0 1.84.34.82.328 1.36.95.55.609.831 1.476.293.856.293 1.887v6.843h-2.836v-6.82q0-1.078-.586-1.664-.585-.585-1.523-.586-.574 0-1.078.234-.504.224-.867.633a3 3 0 0 0-.575.95q-.199.539-.199 1.16v6.093zm13.172-4.418V5.18h2.824V12q0 1.078.586 1.676.598.585 1.535.586.574 0 1.078-.223.504-.234.856-.644.363-.41.562-.95.211-.54.211-1.16V5.18h2.836V16.44h-2.718l-.07-1.277q-.212.234-.528.504t-.727.504q-.398.223-.925.363t-1.208.14q-2.109 0-3.21-1.253-1.102-1.266-1.102-3.399m12.715 3.047 1.699-1.84q.528.528 1.324.88.81.34 1.84.34.915 0 1.465-.235.55-.246.55-.797 0-.234-.093-.434-.094-.21-.41-.398-.305-.2-.856-.387-.55-.2-1.488-.41a10 10 0 0 1-1.207-.387 4.9 4.9 0 0 1-1.16-.656 3.7 3.7 0 0 1-.89-1.008q-.34-.597-.34-1.406 0-.843.398-1.5A3.5 3.5 0 0 1 66.28 5.73a5.3 5.3 0 0 1 1.488-.68 5.9 5.9 0 0 1 1.676-.245q1.489 0 2.532.316a6 6 0 0 1 1.886.926l-1.465 1.992q-.456-.34-1.207-.61-.738-.28-1.746-.28-1.007 0-1.406.304-.398.304-.398.727 0 .527.656.832.668.305 2.062.633a8.4 8.4 0 0 1 1.547.48q.68.293 1.172.727.492.433.75 1.02.27.585.27 1.405t-.387 1.477q-.375.656-1.043 1.113a5 5 0 0 1-1.535.703 6.6 6.6 0 0 1-1.864.258q-1.581 0-2.859-.445-1.266-.446-2.027-1.313m11.05-7.582V5.18h1.922V1.535h2.825V5.18h3.023v2.308H80.18v4.922q0 .96.328 1.477.328.515 1.043.515.667 0 1.066-.187a6 6 0 0 0 .762-.457l1.195 1.746q-.843.69-1.664.996-.808.305-1.816.305-1.032 0-1.758-.305a2.85 2.85 0 0 1-1.16-.844 3.4 3.4 0 0 1-.633-1.336 7.4 7.4 0 0 1-.187-1.722v-5.11zm10.09 3.188q0-1.242.41-2.309a5.7 5.7 0 0 1 1.172-1.851 5.55 5.55 0 0 1 1.805-1.254q1.055-.457 2.32-.457 1.536 0 2.602.562a4.8 4.8 0 0 1 1.711 1.477q.657.915.938 2.062.292 1.149.292 2.356v.398h-8.402q0 .621.281 1.137.282.504.715.867.445.351 1.008.55.575.189 1.125.188a6 6 0 0 0 1.43-.152q.61-.164 1.03-.363a3.9 3.9 0 0 0 1.138-.809l1.535 1.735-.399.398q-.316.315-.937.68-.61.363-1.559.644-.948.293-2.261.293-1.348 0-2.45-.457a5.7 5.7 0 0 1-1.886-1.254 5.5 5.5 0 0 1-1.207-1.933q-.41-1.137-.41-2.508m2.825-1.055h5.52q0-.434-.165-.855-.164-.434-.492-.786a2.5 2.5 0 0 0-.832-.574 2.7 2.7 0 0 0-1.148-.234q-.693 0-1.231.234-.54.223-.902.574-.363.352-.563.786-.187.434-.187.855m10.617 6.82V5.18h2.707l.07 1.277a7 7 0 0 1 .516-.504 3.7 3.7 0 0 1 .726-.492q.422-.224.95-.363.527-.153 1.195-.153 2.109 0 3.211 1.266 1.113 1.254 1.113 3.387v6.843h-2.836v-6.82q0-1.078-.586-1.664-.585-.585-1.523-.586-.574 0-1.078.234-.504.224-.868.633a3 3 0 0 0-.574.95q-.2.539-.199 1.16v6.093zm13.453 0v-3.316h3.434v3.316zM0 26.434h3.316L5.93 38.41l3.105-11.52h2.73l3.118 11.52 2.59-11.976h3.175L16.441 42.44h-3.164L10.301 31.86 7.277 42.441H4.16zm22.3 2.976v-2.976h3.024v2.976zm.095 13.031V31.18h2.835V42.44zm5.742 0V31.18h2.707l.07 1.418a5 5 0 0 1 .492-.516q.305-.293.715-.527a4.6 4.6 0 0 1 .95-.422q.538-.176 1.23-.164.41 0 .726.047.33.046.668.164l-.574 2.672a2.7 2.7 0 0 0-.598-.164 3.6 3.6 0 0 0-.703-.06q-.575 0-1.101.2a2.6 2.6 0 0 0-.914.55 2.8 2.8 0 0 0-.621.868q-.223.504-.223 1.125v6.07zm13.5 0V26.434h2.824V42.44zm5.097-5.636q0-1.219.446-2.309a5.9 5.9 0 0 1 1.23-1.91 5.9 5.9 0 0 1 1.91-1.3q1.114-.481 2.461-.481 1.348 0 2.461.48t1.899 1.3q.796.81 1.242 1.9t.445 2.32q0 1.218-.445 2.32a6.1 6.1 0 0 1-1.242 1.922 5.7 5.7 0 0 1-1.899 1.3q-1.113.481-2.46.481-1.35 0-2.462-.48a5.9 5.9 0 0 1-1.91-1.301 6.2 6.2 0 0 1-1.23-1.922 6.1 6.1 0 0 1-.446-2.32m2.473-7.735v-2.613h2.766v2.613zm.375 7.735q0 .621.188 1.242.199.62.597 1.16.399.528.996.855.598.317 1.418.317t1.418-.316a3 3 0 0 0 .985-.856q.397-.54.586-1.16.198-.621.199-1.242 0-.599-.2-1.23a3.5 3.5 0 0 0-.585-1.16 2.9 2.9 0 0 0-.996-.833q-.599-.328-1.407-.328-.82 0-1.418.328-.597.316-.996.832-.398.515-.597 1.16a4.3 4.3 0 0 0-.188 1.23m4.066-7.735v-2.613h2.754v2.613zm6.891 12 1.7-1.84q.526.528 1.324.88.808.34 1.84.34.913 0 1.464-.235.55-.246.551-.797 0-.233-.094-.434-.093-.21-.41-.398-.305-.2-.855-.387a13 13 0 0 0-1.489-.41 10 10 0 0 1-1.207-.387 4.9 4.9 0 0 1-1.16-.656 3.7 3.7 0 0 1-.89-1.008q-.34-.597-.34-1.406 0-.843.398-1.5a3.5 3.5 0 0 1 1.066-1.102 5.3 5.3 0 0 1 1.489-.68 5.9 5.9 0 0 1 1.676-.245q1.488 0 2.53.316a6 6 0 0 1 1.887.926l-1.464 1.992q-.457-.34-1.207-.61-.739-.28-1.746-.28t-1.407.304q-.398.304-.398.727 0 .527.656.832.668.305 2.063.633a8.4 8.4 0 0 1 1.546.48q.68.293 1.172.727.493.434.75 1.02.27.585.27 1.405t-.387 1.477q-.375.656-1.043 1.113-.656.458-1.535.703a6.6 6.6 0 0 1-1.863.258q-1.582 0-2.86-.445-1.266-.446-2.027-1.313m11.484-4.394q0-1.242.41-2.309a5.7 5.7 0 0 1 1.172-1.851 5.55 5.55 0 0 1 1.805-1.254q1.055-.457 2.32-.457 1.536 0 2.602.562a4.8 4.8 0 0 1 1.711 1.477q.657.915.938 2.062.292 1.149.292 2.356v.398h-8.402q0 .621.281 1.137.282.504.715.867.445.352 1.008.55.575.188 1.125.188a6 6 0 0 0 1.43-.152q.61-.164 1.03-.363a3.9 3.9 0 0 0 1.138-.809l1.535 1.734-.399.399q-.316.315-.937.68-.61.363-1.559.644-.948.293-2.261.293-1.348 0-2.45-.457a5.7 5.7 0 0 1-1.886-1.254 5.5 5.5 0 0 1-1.207-1.933q-.41-1.137-.41-2.508m2.825-1.055h5.52q0-.433-.165-.855a2.4 2.4 0 0 0-.492-.785 2.5 2.5 0 0 0-.832-.575 2.7 2.7 0 0 0-1.148-.234 3.1 3.1 0 0 0-1.231.234q-.54.223-.902.575-.363.351-.563.785-.187.434-.187.855m10.617 6.82V31.18h2.707l.07 1.277q.21-.234.516-.504.304-.27.726-.492.422-.223.95-.363.527-.153 1.195-.153 2.11 0 3.21 1.266 1.114 1.254 1.114 3.387v6.843h-2.836v-6.82q0-1.078-.586-1.664-.585-.586-1.523-.586-.574 0-1.078.234-.504.223-.868.633a3 3 0 0 0-.574.95q-.199.539-.199 1.16v6.093zm13.453 0v-3.316h3.434v3.316zm-97.477 26V52.434h3.024v6.433h7.945v-6.433h3.024V68.44H12.41v-6.89H4.465v6.89zm17.016-4.418V57.18h2.824V64q0 1.078.586 1.676.598.585 1.535.586.574 0 1.078-.223a2.5 2.5 0 0 0 .856-.645q.363-.41.562-.949.211-.54.211-1.16V57.18h2.836V68.44h-2.718l-.07-1.277q-.212.234-.528.504t-.727.504q-.398.223-.925.363-.528.14-1.207.14-2.11 0-3.211-1.253-1.102-1.266-1.102-3.399m12.715 3.047 1.7-1.84q.526.528 1.323.88.81.34 1.84.34.915 0 1.465-.235.55-.246.55-.797 0-.233-.093-.434-.094-.21-.41-.398-.304-.2-.856-.387a13 13 0 0 0-1.488-.41 10 10 0 0 1-1.207-.387 4.9 4.9 0 0 1-1.16-.656 3.7 3.7 0 0 1-.89-1.008q-.34-.597-.34-1.406 0-.843.398-1.5a3.5 3.5 0 0 1 1.066-1.102 5.3 5.3 0 0 1 1.489-.68 5.9 5.9 0 0 1 1.675-.245q1.489 0 2.532.316a6 6 0 0 1 1.886.926l-1.465 1.992q-.456-.34-1.206-.61-.74-.28-1.747-.28t-1.406.304q-.398.304-.398.727 0 .527.656.832.668.305 2.062.633a8.4 8.4 0 0 1 1.547.48q.68.293 1.172.727t.75 1.02q.27.585.27 1.405t-.387 1.477q-.375.656-1.043 1.113-.657.458-1.535.703a6.6 6.6 0 0 1-1.863.258q-1.582 0-2.86-.445-1.265-.446-2.027-1.313m11.05-7.582V57.18h1.922v-3.645h2.825v3.645h3.023v2.308H46.97v4.922q0 .96.328 1.477.328.515 1.043.515.667 0 1.066-.187.399-.2.762-.457l1.195 1.746q-.843.69-1.664.996-.808.305-1.816.305-1.032 0-1.758-.305a2.85 2.85 0 0 1-1.16-.844 3.4 3.4 0 0 1-.633-1.336 7.4 7.4 0 0 1-.187-1.722v-5.11zm10.09 3.188q0-1.242.41-2.309a5.7 5.7 0 0 1 1.172-1.851 5.55 5.55 0 0 1 1.805-1.254q1.055-.457 2.32-.457 1.536 0 2.602.562a4.8 4.8 0 0 1 1.711 1.477q.657.915.938 2.062.292 1.149.292 2.356v.398H55.16q0 .621.281 1.137.282.504.715.867.446.352 1.008.55.575.189 1.125.188a6 6 0 0 0 1.43-.152q.61-.164 1.031-.363a3.9 3.9 0 0 0 1.137-.809l1.535 1.734-.399.399q-.316.315-.937.68-.61.363-1.559.644-.949.293-2.261.293-1.348 0-2.45-.457a5.7 5.7 0 0 1-1.886-1.254 5.5 5.5 0 0 1-1.207-1.933q-.41-1.137-.41-2.508m2.825-1.055h5.52q0-.433-.165-.855A2.4 2.4 0 0 0 60 59.98a2.5 2.5 0 0 0-.832-.575 2.7 2.7 0 0 0-1.148-.234q-.692 0-1.23.234-.54.223-.903.575-.363.351-.563.785-.187.434-.187.855m10.617 6.82V57.18h2.707l.07 1.277q.21-.234.516-.504.304-.27.726-.492.422-.223.95-.363.527-.153 1.195-.153 2.109 0 3.21 1.266 1.114 1.254 1.114 3.387v6.843h-2.836v-6.82q0-1.078-.586-1.664-.585-.586-1.523-.586-.574 0-1.078.234-.504.223-.867.633a3 3 0 0 0-.575.95q-.2.539-.199 1.16v6.093zm16.277 0 6.07-16.007h3.13L97.3 68.44h-3.364l-1.394-4.054H86.59l-1.383 4.054zm5.403-6.55h4.254l-2.122-6.223zm11.05-1.371q0-1.758.598-3.282a8.3 8.3 0 0 1 1.699-2.683 7.9 7.9 0 0 1 2.602-1.828q1.512-.68 3.34-.68 1.172 0 2.156.258.984.245 1.781.68a6.7 6.7 0 0 1 1.43 1.019q.633.585 1.113 1.266l-2.144 1.886q-.774-1.101-1.793-1.77-1.008-.667-2.543-.667-1.173 0-2.121.468a4.8 4.8 0 0 0-1.594 1.243A5.6 5.6 0 0 0 102 58.258a6.8 6.8 0 0 0-.352 2.191q0 1.149.352 2.157.351 1.007.996 1.757.645.739 1.547 1.172.903.435 2.027.434 1.032 0 1.758-.235.738-.246 1.254-.597a5 5 0 0 0 .867-.762q.353-.399.633-.691l2.121 1.828q-.363.55-1.008 1.136a8.4 8.4 0 0 1-1.5 1.067 8.7 8.7 0 0 1-1.886.797 7.4 7.4 0 0 1-2.192.316q-1.805 0-3.293-.621a7.8 7.8 0 0 1-2.554-1.746 8.1 8.1 0 0 1-1.688-2.625q-.597-1.512-.598-3.316m16.313 0q0-1.758.598-3.282a8.3 8.3 0 0 1 1.699-2.683 7.9 7.9 0 0 1 2.601-1.828q1.512-.68 3.34-.68 1.172 0 2.156.258a7.5 7.5 0 0 1 1.782.68 6.6 6.6 0 0 1 1.429 1.019q.633.585 1.114 1.266l-2.145 1.886q-.773-1.101-1.793-1.77-1.007-.667-2.543-.667-1.172 0-2.121.468a4.8 4.8 0 0 0-1.594 1.243 5.6 5.6 0 0 0-1.008 1.828 6.8 6.8 0 0 0-.351 2.191q0 1.149.351 2.157.352 1.007.997 1.757a4.8 4.8 0 0 0 1.546 1.172q.903.435 2.028.434 1.03 0 1.758-.235.738-.246 1.254-.597.515-.364.867-.762.351-.399.633-.691l2.121 1.828a6.2 6.2 0 0 1-1.008 1.136 8.4 8.4 0 0 1-1.5 1.067 8.7 8.7 0 0 1-1.887.797 7.4 7.4 0 0 1-2.191.316q-1.805 0-3.293-.621a7.8 7.8 0 0 1-2.555-1.746 8 8 0 0 1-1.687-2.625q-.598-1.512-.598-3.316m16.887 7.921v-3.316h3.433v3.316z"/></svg>