<svg xmlns="http://www.w3.org/2000/svg" fill="none" viewBox="0 0 98 73"><path fill="#fff" d="m23.543 17.73.527-5.062h3.246l-1.628 5.063zm4.629 0 .527-5.062h3.246l-1.629 5.063zm6.808-1.722V0h3.024v6.434h7.945V0h3.024v16.008h-3.024v-6.89h-7.945v6.89zm16.536-5.766q0-1.242.41-2.308a5.7 5.7 0 0 1 1.172-1.852 5.55 5.55 0 0 1 1.804-1.254q1.055-.457 2.32-.457 1.536 0 2.602.563a4.8 4.8 0 0 1 1.711 1.476q.656.914.938 2.063.293 1.148.293 2.355v.399h-8.403q0 .621.282 1.136.28.504.714.867.446.352 1.008.551.575.188 1.125.188.82 0 1.43-.153.61-.164 1.031-.363a3.9 3.9 0 0 0 1.137-.808l1.535 1.734-.398.398q-.317.317-.938.68-.61.363-1.559.645-.948.293-2.261.293-1.348 0-2.45-.457a5.7 5.7 0 0 1-1.886-1.254 5.5 5.5 0 0 1-1.207-1.934q-.41-1.137-.41-2.508m2.824-1.055h5.52q0-.433-.165-.855-.164-.433-.492-.785a2.5 2.5 0 0 0-.832-.574 2.7 2.7 0 0 0-1.148-.235q-.692 0-1.23.235-.54.222-.903.574a2.6 2.6 0 0 0-.563.785q-.187.434-.187.855m9.34-4.44h3.27l3.21 7.71 2.836-7.71h3.094l-4.7 11.26q-.34.844-.68 1.723a8 8 0 0 1-.82 1.641 4.2 4.2 0 0 1-1.218 1.242q-.715.48-1.816.48-.961 0-1.606-.234a3.5 3.5 0 0 1-1.113-.632l1.277-1.993q.234.188.516.375.292.188.726.188.575 0 .95-.48.374-.48.785-1.489l.351-.914zM2.8 39.44l2.122-1.945q.293.34.68.715.398.363.89.691.492.317 1.102.54.609.21 1.383.21 1.418 0 2.097-.644.68-.645.68-1.559 0-.504-.188-.902-.188-.399-.644-.691-.457-.305-1.195-.54a14 14 0 0 0-1.805-.457q-1.101-.21-1.91-.668a5 5 0 0 1-1.336-1.09 4.4 4.4 0 0 1-.797-1.37 4.8 4.8 0 0 1-.258-1.56q0-.913.328-1.733a4.04 4.04 0 0 1 1.031-1.465q.704-.633 1.747-1.02t2.46-.387q1.278 0 2.18.293.914.282 1.524.668.62.387.949.762.339.363.492.54L12.34 29.69a9 9 0 0 1-.387-.34 3.6 3.6 0 0 0-.668-.492 4.3 4.3 0 0 0-.95-.433 3.6 3.6 0 0 0-1.241-.2 3 3 0 0 0-1.078.176q-.457.165-.762.434a1.8 1.8 0 0 0-.445.586q-.141.316-.141.61 0 .432.152.773.164.327.528.62.375.282 1.02.516.656.224 1.64.422a8.3 8.3 0 0 1 1.793.575q.867.386 1.523.996.668.609 1.055 1.488.399.879.398 2.098 0 1.054-.433 1.945a4.7 4.7 0 0 1-1.196 1.558 5.5 5.5 0 0 1-1.828 1.043 6.8 6.8 0 0 1-2.297.375q-1.195 0-2.168-.293a8 8 0 0 1-1.757-.726 7.6 7.6 0 0 1-1.348-.973 10 10 0 0 1-.95-1.008m14.884 7.371V30.747h2.73l.07 1.277q.21-.234.54-.504.327-.27.773-.48.445-.21 1.008-.352a4.8 4.8 0 0 1 1.265-.152q1.301 0 2.239.504a4.65 4.65 0 0 1 1.57 1.336q.62.82.937 1.887.317 1.055.317 2.18 0 1.323-.387 2.261a6.5 6.5 0 0 1-.96 1.629q-.962 1.148-2.099 1.605a6.2 6.2 0 0 1-2.343.458q-.55 0-.95-.047a4.6 4.6 0 0 1-.726-.141 6 6 0 0 1-.598-.187q-.27-.105-.586-.223v5.016zm2.8-7.57q.844.692 2.543.703.774 0 1.371-.293a3.3 3.3 0 0 0 1.653-1.91q.222-.633.222-1.3 0-.715-.164-1.337a3 3 0 0 0-.504-1.101 2.36 2.36 0 0 0-.89-.738q-.55-.282-1.371-.282-.645 0-1.172.282a3 3 0 0 0-.902.703q-.376.433-.586.949-.2.516-.2.996zm10.383-3q0-1.242.41-2.308a5.7 5.7 0 0 1 1.172-1.852 5.55 5.55 0 0 1 1.805-1.254q1.055-.457 2.32-.457 1.535 0 2.602.563a4.8 4.8 0 0 1 1.71 1.476q.657.914.938 2.063.294 1.147.293 2.355v.399h-8.402q0 .621.281 1.136.282.504.715.867.445.352 1.008.551.575.188 1.125.188.82 0 1.43-.153.61-.163 1.03-.363a3.9 3.9 0 0 0 1.137-.809l1.536 1.735-.399.398q-.316.317-.937.68-.61.363-1.559.645-.95.293-2.262.293-1.348 0-2.449-.458a5.7 5.7 0 0 1-1.887-1.253 5.5 5.5 0 0 1-1.207-1.934q-.41-1.137-.41-2.508m2.824-1.054h5.52q0-.435-.164-.856a2.4 2.4 0 0 0-.492-.785 2.5 2.5 0 0 0-.832-.574 2.7 2.7 0 0 0-1.149-.235q-.69 0-1.23.235-.54.223-.903.574-.364.351-.562.785-.188.434-.188.855m9.891 3.527q0-.96.363-1.711a3.6 3.6 0 0 1 1.008-1.277q.645-.516 1.559-.774.914-.27 2.015-.27a27 27 0 0 1 1.535.047q.434.024.891.06v-.27q0-.844-.68-1.325-.667-.48-1.746-.48-1.195 0-1.922.316a9.5 9.5 0 0 0-1.265.668l-1.3-1.91q.339-.234.773-.492.433-.258 1.007-.457a7.6 7.6 0 0 1 1.325-.34 11 11 0 0 1 1.77-.129q1.077 0 1.956.305a4.4 4.4 0 0 1 1.5.832q.62.54.961 1.3.34.75.34 1.641v7.559h-2.649l-.07-1.055q-.458.55-1.394.984-.937.434-2.086.434-.691 0-1.383-.223a3.8 3.8 0 0 1-1.242-.656 3.4 3.4 0 0 1-.914-1.136q-.352-.704-.352-1.641m2.719-.117q0 .714.515 1.125.516.41 1.524.41.504 0 .972-.164a2.6 2.6 0 0 0 .82-.457 2.5 2.5 0 0 0 .587-.668q.234-.388.234-.82v-1.102l-.844-.047a19 19 0 0 0-.715-.035q-.363-.012-.62-.012-1.372 0-1.922.54-.552.538-.551 1.23m10.101 3.41V26h2.825v8.73l4.066-3.984h3.328l-4.219 4.16 4.7 7.102h-3.387l-3.258-5.18-1.23 1.195v3.985zm11.754-5.766q0-1.242.41-2.308a5.7 5.7 0 0 1 1.172-1.852 5.55 5.55 0 0 1 1.805-1.254q1.054-.457 2.32-.457 1.535 0 2.602.563a4.8 4.8 0 0 1 1.71 1.476q.657.914.938 2.063.294 1.147.293 2.355v.399h-8.402q0 .621.281 1.136.282.504.715.867.446.352 1.008.551.574.188 1.125.188.82 0 1.43-.153.61-.163 1.03-.363a3.9 3.9 0 0 0 1.138-.809l1.535 1.735-.399.398q-.315.317-.937.68-.61.363-1.559.645-.95.293-2.262.293-1.347 0-2.449-.458a5.7 5.7 0 0 1-1.887-1.253 5.5 5.5 0 0 1-1.207-1.934q-.41-1.137-.41-2.508m2.825-1.054H76.5q0-.435-.164-.856a2.4 2.4 0 0 0-.492-.785 2.5 2.5 0 0 0-.832-.574 2.7 2.7 0 0 0-1.149-.235q-.69 0-1.23.235-.54.223-.902.574-.364.351-.563.785-.187.434-.187.855m10.617 6.82V30.746h2.707l.07 1.418q.188-.234.492-.516.305-.292.715-.527.41-.246.95-.422.538-.176 1.23-.164.41 0 .726.047.329.047.668.164l-.574 2.672a2.7 2.7 0 0 0-.598-.164 3.6 3.6 0 0 0-.703-.059q-.575 0-1.101.2a2.6 2.6 0 0 0-.914.55 2.8 2.8 0 0 0-.622.867q-.222.504-.222 1.126v6.07zm9.398 0V38.69h3.434v3.317zM91.148 26h3.141l-.047 10.992h-3.047zM0 65.441l2.121-1.945q.293.34.68.715.398.364.89.691.493.317 1.102.54.609.21 1.383.21 1.418 0 2.097-.644.68-.645.68-1.559 0-.504-.187-.902-.187-.399-.645-.691-.457-.305-1.195-.54a14 14 0 0 0-1.805-.457q-1.101-.21-1.91-.668a5 5 0 0 1-1.336-1.09 4.4 4.4 0 0 1-.797-1.37 4.8 4.8 0 0 1-.258-1.56q0-.913.328-1.733a4.04 4.04 0 0 1 1.032-1.465q.702-.633 1.746-1.02 1.043-.387 2.46-.387 1.278 0 2.18.293.915.282 1.524.668.62.387.95.762.34.363.491.54L9.54 55.69a9 9 0 0 1-.387-.34 3.6 3.6 0 0 0-.668-.492 4.3 4.3 0 0 0-.949-.433 3.6 3.6 0 0 0-1.242-.2 3 3 0 0 0-1.078.176q-.457.165-.762.434a1.8 1.8 0 0 0-.445.586q-.14.316-.14.61 0 .432.152.773.164.327.527.62.375.282 1.02.516.656.224 1.64.422A8.3 8.3 0 0 1 9 58.938q.867.386 1.523.996.668.609 1.055 1.488.399.879.399 2.098 0 1.054-.434 1.945a4.7 4.7 0 0 1-1.195 1.558 5.5 5.5 0 0 1-1.828 1.043 6.8 6.8 0 0 1-2.297.375q-1.196 0-2.168-.293a8 8 0 0 1-1.758-.726 7.6 7.6 0 0 1-1.348-.973A10 10 0 0 1 0 65.441m14.883 7.371V56.747h2.73l.07 1.277q.21-.234.54-.504.327-.27.773-.48t1.008-.352a4.8 4.8 0 0 1 1.265-.152q1.302 0 2.239.504a4.65 4.65 0 0 1 1.57 1.336q.621.82.938 1.887.316 1.055.316 2.18 0 1.323-.387 2.261a6.5 6.5 0 0 1-.96 1.629q-.961 1.148-2.098 1.606a6.2 6.2 0 0 1-2.344.456 8 8 0 0 1-.95-.046 4.6 4.6 0 0 1-.726-.141 6 6 0 0 1-.598-.187q-.27-.105-.585-.223v5.016zm2.8-7.57q.844.691 2.544.703.773 0 1.37-.293a3.3 3.3 0 0 0 1.653-1.91q.223-.633.223-1.3 0-.715-.164-1.337a3 3 0 0 0-.504-1.101 2.36 2.36 0 0 0-.89-.738q-.552-.282-1.372-.282-.645 0-1.172.282a3 3 0 0 0-.902.703q-.376.433-.586.949-.2.516-.2.996zm10.934-10.265V52h3.024v2.977zm.094 13.03v-11.26h2.836v11.26zm5.215-5.765q0-1.242.41-2.308a5.7 5.7 0 0 1 1.172-1.852 5.55 5.55 0 0 1 1.804-1.254q1.056-.457 2.32-.457 1.536 0 2.602.563a4.8 4.8 0 0 1 1.711 1.476q.656.915.938 2.063.293 1.148.293 2.355v.399h-8.403q0 .62.282 1.136.28.504.715.868.444.35 1.007.55.575.188 1.125.188.82 0 1.43-.153.61-.163 1.031-.363a3.9 3.9 0 0 0 1.137-.809l1.535 1.735-.398.398q-.317.317-.938.68-.61.363-1.558.645-.95.292-2.262.292-1.347 0-2.45-.457a5.7 5.7 0 0 1-1.886-1.253 5.5 5.5 0 0 1-1.207-1.934q-.41-1.137-.41-2.508m2.824-1.054h5.52q0-.435-.165-.856a2.4 2.4 0 0 0-.492-.785 2.5 2.5 0 0 0-.832-.574 2.7 2.7 0 0 0-1.148-.235q-.692 0-1.23.235-.54.223-.903.574-.364.351-.562.785-.188.434-.188.855m10.617 6.82V52h2.824v16.008zm5.098-5.766q0-1.242.41-2.308a5.7 5.7 0 0 1 1.172-1.852 5.55 5.55 0 0 1 1.805-1.254q1.054-.457 2.32-.457 1.535 0 2.601.563a4.8 4.8 0 0 1 1.711 1.476q.657.915.938 2.063.293 1.148.293 2.355v.399h-8.403q0 .62.282 1.136.28.504.715.868.445.35 1.007.55.575.188 1.125.188.82 0 1.43-.153.61-.163 1.031-.363a3.9 3.9 0 0 0 1.137-.809l1.535 1.735-.398.398q-.317.317-.938.68-.609.363-1.558.645-.95.292-2.262.292-1.347 0-2.45-.457a5.7 5.7 0 0 1-1.886-1.253 5.5 5.5 0 0 1-1.207-1.934q-.41-1.137-.41-2.508m2.824-1.054h5.52q0-.435-.164-.856a2.4 2.4 0 0 0-.493-.785 2.5 2.5 0 0 0-.832-.574 2.7 2.7 0 0 0-1.148-.235q-.692 0-1.23.235-.54.223-.903.574-.364.351-.562.785-.188.434-.188.855m15.188 6.82V64.69h3.433v3.317zm6.164 0V64.69h3.433v3.317zm6.246 0V64.69h3.433v3.317zm6.14-10.922 1.641-5.063h2.133l-.528 5.063zm4.559 0 1.64-5.063h2.133l-.527 5.063z"/></svg>