<svg xmlns="http://www.w3.org/2000/svg" fill="none" viewBox="0 0 212 73"><path fill="#fff" d="M1.672 5.404.836 1.566C1.938.806 4.066.084 6.498.084c4.864 0 7.144 2.964 7.144 6.308 0 2.622-1.748 5.168-4.332 5.814v.076c3.002.608 5.092 2.888 5.092 6.422 0 4.902-4.18 7.6-8.778 7.6-2.128 0-3.99-.494-5.168-1.14l.722-4.066c1.102.646 2.546 1.026 3.952 1.026 2.66 0 4.066-1.52 4.066-3.572 0-2.85-2.356-3.99-5.054-3.99H3.42V10.8h.494c2.28 0 4.56-1.102 4.56-3.458 0-1.786-1.102-3.002-3.23-3.002-1.178 0-2.584.494-3.572 1.064m24.41 14.744h-4.597L20.345 26h-4.826L21.067.388h5.966L32.01 26h-4.826zm-4.103-3.876h3.648l-.836-5.358c-.266-1.558-.608-4.104-.836-5.814h-.114c-.266 1.71-.646 4.37-.912 5.852zM34.823.388h13.072v4.256h-8.132v5.358c.722-.152 1.292-.19 2.014-.19 2.204 0 4.142.684 5.548 1.9 1.52 1.33 2.432 3.344 2.432 5.928 0 2.47-.76 4.446-2.128 5.814-1.748 1.862-4.484 2.736-8.17 2.736-1.9 0-3.496-.114-4.636-.266zm4.978 13.528v8.208c.342.076.684.076 1.102.076 1.178 0 2.128-.456 2.736-1.216.646-.76.95-1.824.95-2.964 0-1.178-.342-2.242-.988-2.964-.646-.76-1.558-1.254-2.66-1.254q-.627 0-1.14.114M60.041.084c6.193 0 7.941 6.802 7.941 12.654 0 9.652-3.42 13.566-8.284 13.566-5.814 0-8.094-6.156-8.094-13.186 0-6.992 2.774-13.034 8.436-13.034m-.19 4.332c-1.977 0-3.079 3.268-3.079 8.778 0 5.814 1.102 8.778 3.116 8.778 2.09 0 2.888-3.8 2.888-9.006 0-4.484-.684-8.55-2.926-8.55M73.407 26V4.986h-4.522V.388h14.06v4.598h-4.56V26zm19.1-5.852h-4.597L86.77 26h-4.826L87.493.388h5.966L98.437 26H93.61zm-4.103-3.876h3.648l-.836-5.358c-.266-1.558-.608-4.104-.836-5.814h-.114c-.266 1.71-.646 4.37-.912 5.852zM9.386 46.084c6.194 0 7.942 6.802 7.942 12.654 0 9.652-3.42 13.566-8.284 13.566C3.23 72.304.95 66.148.95 59.118c0-6.992 2.774-13.034 8.436-13.034m-.19 4.332c-1.976 0-3.078 3.268-3.078 8.778 0 5.814 1.102 8.778 3.116 8.778 2.09 0 2.888-3.8 2.888-9.006 0-4.484-.684-8.55-2.926-8.55M42.66 72l-.456-8.968c-.114-2.432-.304-5.738-.228-8.474h-.114a112 112 0 0 1-1.634 7.866l-2.204 9.158H34.49l-2.128-9.006c-.494-2.052-1.178-5.244-1.558-8.018h-.114a284 284 0 0 1-.38 8.55L29.892 72h-4.294l1.862-25.612h5.244l2.052 9.272c.722 3.23 1.368 6.08 1.824 8.968h.076c.38-2.85.95-5.738 1.634-8.968l2.014-9.272h5.244L47.106 72zm8.083-25.612h4.408v5.662c0 4.712-.304 9.12-.494 11.78h.076c.722-2.204 2.014-5.548 2.774-7.524l3.762-9.918h4.522V72h-4.37v-5.776c0-5.13.19-8.93.304-11.514h-.076c-.57 2.318-1.71 5.396-2.546 7.524L55.341 72h-4.598zm19.482 0h4.865v11.134h.38l4.18-11.134h5.471l-5.89 11.856c2.623.988 3.497 3.382 4.219 6.498.57 2.47.987 4.902 1.748 7.258H80.22c-.608-1.824-.989-3.914-1.406-5.928-.608-3.002-1.292-4.94-3.344-4.94h-.38V72h-4.865zM87.482 72V46.768c1.406-.304 3.306-.494 5.206-.494 2.964 0 5.282.418 6.954 1.976 1.52 1.33 2.204 3.458 2.204 5.624 0 2.774-.836 4.712-2.166 6.156-1.596 1.672-4.18 2.432-6.232 2.432h-.988V72zm4.978-21.508v7.904c.228.076.494.076.798.076 2.508 0 3.648-1.786 3.648-4.18 0-2.242-.912-3.99-3.23-3.99-.456 0-.912.076-1.216.19m19.572-4.408c6.194 0 7.942 6.802 7.942 12.654 0 9.652-3.42 13.566-8.284 13.566-5.814 0-8.094-6.156-8.094-13.186 0-6.992 2.774-13.034 8.436-13.034m-.19 4.332c-1.976 0-3.078 3.268-3.078 8.778 0 5.814 1.102 8.778 3.116 8.778 2.09 0 2.888-3.8 2.888-9.006 0-4.484-.684-8.55-2.926-8.55m18.18-4.94h4.37v1.938c4.598.608 8.094 4.218 8.094 11.59 0 7.866-3.534 11.172-8.094 11.818v2.09h-4.408v-2.09c-4.636-.684-8.094-3.952-8.094-11.704 0-7.524 4.142-11.096 8.132-11.704zm0 21.698v-16.15c-1.52.456-3.154 2.508-3.154 8.17 0 5.282 1.596 7.638 3.154 7.98m4.332-16.15v16.15c1.672-.342 3.154-2.394 3.154-8.132 0-5.814-1.71-7.676-3.154-8.018m12.007-4.636h13.338V72h-4.978V50.72h-3.8v6.764c0 5.89-.38 11.058-3.61 13.566-.95.76-2.166 1.254-3.42 1.254l-1.064-4.218c.608-.152 1.254-.456 1.71-.912 1.482-1.52 1.824-4.256 1.824-9.234zm24.934-.304c6.194 0 7.942 6.802 7.942 12.654 0 9.652-3.42 13.566-8.284 13.566-5.814 0-8.094-6.156-8.094-13.186 0-6.992 2.774-13.034 8.436-13.034m-.19 4.332c-1.976 0-3.078 3.268-3.078 8.778 0 5.814 1.102 8.778 3.116 8.778 2.09 0 2.888-3.8 2.888-9.006 0-4.484-.684-8.55-2.926-8.55M182.407 72V46.768c1.406-.304 3.306-.494 5.206-.494 2.964 0 5.282.418 6.954 1.976 1.52 1.33 2.204 3.458 2.204 5.624 0 2.774-.836 4.712-2.166 6.156-1.596 1.672-4.18 2.432-6.232 2.432h-.988V72zm4.978-21.508v7.904c.228.076.494.076.798.076 2.508 0 3.648-1.786 3.648-4.18 0-2.242-.912-3.99-3.23-3.99-.456 0-.912.076-1.216.19m23.219 6.118v4.142h-5.852v6.916h6.612V72h-11.59V46.388h11.134v4.332h-6.156v5.89z"/></svg>