<svg xmlns="http://www.w3.org/2000/svg" fill="none" viewBox="0 0 255 161"><path fill="#fff" d="M6.959 12.91h-5.15c-.512 0-.865-.079-1.023-.236Q.55 12.438.55 11.73V8.782c0-.472.079-.826.236-.983.158-.157.472-.236 1.023-.236h16.944c.512 0 .865.079 1.023.236s.236.51.236.983v2.948c0 .472-.118.787-.276.944-.157.157-.51.236-.983.236h-5.15v18.832c0 .511-.118.865-.275 1.022q-.295.236-1.18.236H8.414q-.943 0-1.179-.236c-.197-.157-.275-.511-.275-1.022zm18.562 8.924v3.067c0 1.533.235 2.516.707 2.988.354.393.904.55 1.651.55h.158c.707 0 1.258-.157 1.651-.55.472-.472.708-1.455.708-2.988v-3.067c0-1.494-.236-2.516-.708-2.988-.393-.353-.944-.55-1.651-.55h-.157c-.747 0-1.298.197-1.652.55-.472.472-.707 1.494-.707 2.988m11.204.236v2.556c0 1.966-.196 3.46-.59 4.56-.392 1.101-1.021 1.966-1.886 2.634-1.298 1.023-3.303 1.534-6.055 1.534h-.472c-2.752 0-4.796-.511-6.054-1.533-.865-.669-1.494-1.534-1.887-2.635-.394-1.1-.59-2.594-.59-4.56V22.11c0-1.927.196-3.42.59-4.522a5.95 5.95 0 0 1 1.887-2.673c1.258-1.022 3.302-1.533 6.054-1.533h.472c2.752 0 4.757.51 6.055 1.533a6.05 6.05 0 0 1 1.887 2.634c.393 1.1.59 2.595.59 4.521m8.203-6.644c1.376-1.337 3.342-2.044 5.858-2.044h.353c2.438 0 4.168.707 5.23 2.044.943 1.258 1.415 3.381 1.415 6.448v2.948c0 1.652-.157 3.028-.393 4.05-.276 1.022-.747 1.887-1.416 2.555-1.336 1.298-3.145 1.927-5.504 1.927h-.432q-2.241 0-3.657-.826v6.055c0 .59-.118.983-.314 1.14-.236.157-.669.236-1.337.236h-2.988c-.668 0-1.1-.079-1.337-.275-.236-.158-.314-.55-.314-1.101v-23.59c0-.471.078-.786.314-.982.197-.158.55-.275 1.062-.275h1.651c.472 0 .826.078 1.022.157.158.118.315.354.433.668l.275.865zm1.454 5.583v5.032c0 .904.158 1.534.55 1.887.355.354.944.511 1.77.511h.354c.904 0 1.533-.236 1.926-.786q.472-.708.472-3.42v-1.69c0-1.888-.157-3.067-.472-3.5-.393-.472-1.022-.708-1.965-.708h-.276c-.865 0-1.454.197-1.848.59-.353.354-.51 1.062-.51 2.084m20.489.825v3.067c0 1.533.236 2.516.708 2.988.353.393.904.55 1.65.55h.158c.708 0 1.258-.157 1.651-.55.472-.472.708-1.455.708-2.988v-3.067c0-1.494-.236-2.516-.708-2.988-.393-.353-.943-.55-1.651-.55h-.157c-.747 0-1.298.197-1.651.55-.472.472-.708 1.494-.708 2.988m11.205.236v2.556c0 1.966-.197 3.46-.59 4.56-.393 1.101-1.022 1.966-1.887 2.634-1.297 1.023-3.303 1.534-6.055 1.534h-.471c-2.753 0-4.797-.511-6.055-1.533-.865-.669-1.494-1.534-1.887-2.635s-.59-2.594-.59-4.56V22.11c0-1.927.197-3.42.59-4.522a5.95 5.95 0 0 1 1.887-2.673c1.258-1.022 3.302-1.533 6.055-1.533h.471c2.752 0 4.758.51 6.055 1.533a6.05 6.05 0 0 1 1.887 2.634c.393 1.1.59 2.595.59 4.521m13.43-7.391h3.382c.55 0 .944.079 1.14.236.197.157.354.472.433.944 0 .157.707 3.656 2.083 10.457h.118c.708-4.128 1.337-7.941 1.848-11.48.039-.432.157-.707.315-.865q.236-.236.825-.236h4.01c.433 0 .708.118.865.276.118.196.158.51.079.904-.629 3.067-1.415 6.448-2.28 10.143s-1.494 6.015-1.887 6.998c-.158.394-.354.669-.551.787-.196.118-.511.157-.904.157h-4.325c-.825 0-1.337-.275-1.494-.904-.747-2.674-1.376-6.055-1.926-10.144h-.157c-.512 3.539-1.18 6.92-1.966 10.144-.158.629-.63.904-1.416.904h-4.246c-.786 0-1.297-.275-1.494-.865-.393-1.061-1.061-3.499-2.005-7.273a183 183 0 0 1-2.201-9.947c-.118-.432-.08-.747.078-.904.157-.158.472-.275.944-.275h3.853c.393 0 .707.078.904.235.157.158.275.472.354.865.55 3.657 1.18 7.47 1.926 11.48h.157c.944-4.875 1.612-8.374 1.927-10.457.079-.512.197-.826.393-.983.197-.118.59-.197 1.219-.197m26.783 13.603h.433c1.336 0 2.752-.157 4.167-.51.393-.08.629-.119.747-.119.393 0 .629.236.708.669l.314 1.965c.079.55.158.905.158 1.062 0 .471-.354.825-1.023 1.061-1.808.63-3.813.944-5.936.944h-.747q-4.836 0-6.841-2.005a5.64 5.64 0 0 1-1.573-2.674c-.275-1.022-.393-2.398-.393-4.088v-2.202c0-3.42.786-5.819 2.359-7.234 1.337-1.18 3.381-1.77 6.173-1.77h.55c2.752 0 4.757.669 5.937 1.966 1.258 1.416 1.887 3.735 1.887 7.038v2.044c0 .747-.393 1.101-1.14 1.101h-9.436v.315c0 .943.236 1.572.786 1.926.511.354 1.455.511 2.87.511m-3.656-6.84h4.325c.314 0 .471-.158.471-.512v-.629c0-.786-.157-1.376-.393-1.808-.314-.472-.943-.708-1.808-.708h-.354c-.786 0-1.337.197-1.651.55q-.59.708-.59 2.123zM8.296 64.371v6.488c0 .393-.118.707-.315.865-.197.196-.55.275-1.022.275H3.342c-.511 0-.865-.079-1.062-.275-.196-.157-.275-.472-.275-.865V46.524c0-.394.079-.669.275-.865.197-.158.55-.276 1.062-.276h3.617c.472 0 .825.118 1.022.276.197.196.315.471.315.865V59.34h.275l3.735-5.7c.354-.59.904-.904 1.651-.904h4.56c.433 0 .669.157.669.471 0 .157-.118.433-.315.747l-4.52 6.763c-.355.55-.512.943-.512 1.179 0 .275.157.668.511 1.18l4.836 7.627c.157.314.236.51.236.668 0 .432-.275.629-.826.629h-4.364c-.55 0-.983-.04-1.219-.197q-.354-.176-.707-.825L8.57 64.373zm23.476.59V53.877c0-.393.079-.669.276-.865.196-.158.55-.276 1.061-.276h3.617c.472 0 .826.118 1.022.276.197.196.315.471.315.865v11.637q0 3.597-1.77 5.19c-1.258 1.1-3.46 1.65-6.683 1.65-3.224 0-5.465-.55-6.684-1.65q-1.77-1.593-1.769-5.19V53.876c0-.393.079-.669.275-.865.197-.158.55-.276 1.062-.276h3.617c.472 0 .826.118 1.022.276.197.196.315.471.315.865v11.087c0 .904.118 1.494.432 1.808.315.354.865.511 1.73.511.826 0 1.415-.157 1.73-.51.275-.316.432-.905.432-1.81m14.963-10.104h.118c.865-1.415 2.32-2.122 4.403-2.122h1.573c.393 0 .707.078.865.235.157.158.275.433.275.865v2.87c0 .433-.079.708-.236.865q-.235.236-.826.236h-1.179c-1.455 0-2.438.275-2.988.826-.472.472-.668 1.376-.668 2.712v9.515c0 .393-.118.707-.315.865-.196.196-.55.275-1.022.275h-3.617c-.511 0-.865-.079-1.062-.275-.196-.157-.275-.472-.275-.865V53.836c0-.393.079-.668.275-.825.197-.158.55-.276 1.062-.276h1.887c.432 0 .747.08.944.197q.295.236.471.708zm9.048 4.207v-.51c0-1.927.511-3.382 1.533-4.404 1.18-1.18 3.185-1.77 5.976-1.77h.393c2.202 0 4.129.236 5.74.708q.472.177.59.354c.079.157.118.354.079.669l-.433 3.223c-.078.511-.432.669-1.061.511-1.573-.353-2.988-.55-4.168-.55h-.039c-.865 0-1.494.079-1.808.236-.354.157-.511.432-.511.826v.117c0 .394.117.669.432.826s.904.354 1.808.511l1.848.393c1.69.394 2.91.983 3.617 1.77.708.786 1.062 2.005 1.062 3.617v.59c0 4.127-2.595 6.172-7.706 6.172h-.393c-2.595 0-4.757-.354-6.566-1.062-.354-.118-.59-.275-.668-.472-.079-.157-.079-.471 0-.904l.55-2.594c.118-.748.55-.983 1.337-.748 1.808.63 3.381.905 4.718.905h.118c.865 0 1.454-.079 1.808-.275.315-.158.511-.472.511-.905v-.118a.84.84 0 0 0-.432-.747q-.473-.235-1.887-.59l-1.73-.393q-2.595-.589-3.657-1.769c-.707-.786-1.061-1.965-1.061-3.617m34.996-5.15c-.55 3.696-1.573 7.784-3.067 12.306-1.533 4.52-3.381 8.806-5.544 12.816-.275.55-.629.826-1.1.826-.315 0-.669-.079-1.14-.314l-2.005-.865c-.708-.315-1.023-.63-1.023-.983 0-.157.04-.393.197-.669 1.337-2.712 2.123-4.285 2.28-4.718-1.1-.393-1.926-1.258-2.555-2.673-.708-1.573-1.534-3.97-2.438-7.273q-1.356-4.955-2.005-8.492c-.079-.393-.04-.669.157-.865.197-.158.55-.276 1.022-.276h3.578c.433 0 .747.08.944.197s.354.354.432.747c.904 4.954 1.927 9.357 3.067 13.17h.196c1.101-3.145 2.123-7.47 3.067-13.052q.06-.59.354-.826c.196-.157.51-.235.904-.235h3.617c.433 0 .747.117.904.275.158.157.197.471.158.904m20.885-.236h3.381c.55 0 .943.079 1.14.236s.354.472.432.944c0 .157.708 3.656 2.084 10.457h.118c.708-4.128 1.337-7.941 1.848-11.48.039-.432.157-.707.314-.865q.237-.235.826-.235h4.01c.433 0 .708.117.865.275.118.196.157.51.079.904-.629 3.066-1.416 6.448-2.281 10.143-.864 3.696-1.494 6.015-1.887 6.998-.157.394-.353.669-.55.787s-.511.157-.904.157h-4.325c-.826 0-1.337-.275-1.494-.904-.747-2.674-1.376-6.055-1.926-10.144h-.158a108 108 0 0 1-1.965 10.144c-.158.629-.63.904-1.416.904h-4.246c-.786 0-1.297-.275-1.494-.865-.393-1.062-1.061-3.499-2.005-7.273a183 183 0 0 1-2.202-9.947c-.118-.432-.078-.747.079-.904s.472-.276.944-.276h3.852c.394 0 .708.08.905.236.157.158.275.472.354.865.55 3.657 1.179 7.47 1.926 11.48h.157c.944-4.875 1.612-8.374 1.927-10.458.078-.51.196-.825.393-.982.196-.118.59-.197 1.219-.197m28.48 16.71h-.079c-.865 1.336-2.594 1.965-5.15 1.965h-.59c-2.005 0-3.577-.511-4.678-1.534-1.14-1.022-1.691-2.555-1.691-4.52v-.433c0-2.123.59-3.657 1.809-4.522 1.218-.864 3.184-1.297 5.936-1.297h.276c1.022 0 1.965.079 2.752.157v-.825c0-.826-.236-1.416-.669-1.73-.472-.275-1.258-.433-2.359-.433-1.336 0-2.83.236-4.56.669-.472.118-.826.118-.983 0-.197-.118-.315-.354-.354-.747l-.314-2.084c-.079-.354-.079-.629-.079-.786 0-.472.314-.826.943-1.022 2.006-.55 4.247-.865 6.723-.865 3.028 0 5.19.668 6.448 1.926.983 1.022 1.494 2.673 1.494 4.914V70.9c0 .393-.118.708-.314.865-.197.157-.551.236-1.023.236h-1.847c-.472 0-.787-.04-.983-.157-.197-.118-.354-.354-.472-.747zm-1.415-5.033v-1.101q-.65-.118-1.888-.118h-.432q-1.416 0-2.005.354c-.393.236-.55.707-.55 1.415v.157c0 .708.157 1.18.55 1.416.354.275.904.393 1.651.393h.275c.787 0 1.376-.197 1.848-.59.354-.314.551-.983.551-1.926m17.055 1.533h1.258c.393 0 .708.118.865.275.157.197.275.55.275 1.062v2.437c0 .55-.118.904-.275 1.062-.157.196-.472.275-.865.275h-2.988c-1.966 0-3.342-.354-4.128-1.14-.786-.747-1.179-2.084-1.179-3.971V46.524c0-.394.078-.669.275-.865.196-.158.55-.276 1.061-.276h3.617c.472 0 .826.118 1.023.276.196.196.314.471.314.865v19.618c0 .315.039.511.157.59.079.118.276.157.59.157m15.32-1.926V53.876c0-.393.079-.669.275-.865.197-.158.551-.276 1.062-.276h3.617c.471 0 .825.118 1.022.276.196.196.314.471.314.865v11.637q0 3.597-1.769 5.19c-1.258 1.1-3.46 1.65-6.683 1.65-3.224 0-5.465-.55-6.684-1.65q-1.77-1.593-1.769-5.19V53.876c0-.393.078-.669.275-.865.197-.158.55-.276 1.061-.276h3.617c.472 0 .826.118 1.023.276.196.196.314.471.314.865v11.087c0 .904.118 1.494.433 1.808.314.354.865.511 1.73.511.825 0 1.415-.157 1.729-.51.276-.316.433-.905.433-1.81m22.314 3.341v2.241c0 .59-.117.983-.275 1.18-.157.196-.511.275-.983.275h-3.145c-2.831 0-4.718-.472-5.583-1.455-.786-.825-1.14-2.398-1.14-4.757V57.65h-2.123c-.393 0-.629-.04-.786-.197s-.197-.393-.197-.786v-2.005c0-.472.04-.786.197-.944.118-.157.393-.275.825-.393l2.084-.51V48.96c0-.393.079-.668.275-.865.197-.157.551-.275 1.062-.275h3.617c.472 0 .826.118 1.022.275.197.197.315.472.315.865v3.775h3.263c.393 0 .629.078.786.235.157.158.236.433.236.905v2.634q0 .707-.236.943c-.157.158-.393.197-.786.197h-3.263v7.43c0 .708.078 1.14.314 1.377.236.275.747.393 1.533.393h1.73c.472 0 .826.118.983.314.158.197.275.59.275 1.14M8.374 97.876v16.984c0 .393-.118.708-.314.865-.197.196-.55.275-1.023.275H3.42c-.51 0-.864-.079-1.061-.275-.197-.157-.275-.472-.275-.865V97.876c0-.394.078-.669.275-.865.196-.158.55-.275 1.061-.275h3.617c.472 0 .826.117 1.023.275.196.196.314.472.314.865m-2.91-2.635h-.471c-2.123 0-3.184-1.061-3.184-3.263v-.196c0-2.163 1.061-3.263 3.184-3.263h.472c2.123 0 3.184 1.1 3.184 3.263v.196c0 2.202-1.061 3.264-3.184 3.264m21.798 13.132v6.487c0 .393-.118.708-.314.865-.197.196-.55.275-1.023.275h-3.617c-.51 0-.864-.079-1.061-.275-.197-.157-.275-.472-.275-.865V90.524c0-.394.078-.669.275-.865.197-.158.55-.276 1.061-.276h3.617c.472 0 .826.118 1.023.276.196.196.314.471.314.865v12.816h.275l3.735-5.7c.354-.59.905-.904 1.652-.904h4.56c.433 0 .669.157.669.471 0 .158-.118.433-.315.747l-4.521 6.762c-.354.551-.511.944-.511 1.18 0 .275.157.668.51 1.179l4.837 7.628c.157.314.235.511.235.668 0 .432-.275.629-.825.629h-4.364c-.55 0-.983-.039-1.219-.197q-.354-.177-.708-.825l-3.735-6.605zm18.53-3.539v3.067c0 1.533.236 2.516.708 2.988.354.393.904.55 1.651.55h.158c.707 0 1.258-.157 1.651-.55.472-.472.708-1.455.708-2.988v-3.067c0-1.494-.236-2.516-.708-2.988-.393-.353-.944-.55-1.651-.55h-.157c-.748 0-1.298.197-1.652.55-.471.472-.707 1.494-.707 2.988m11.206.236v2.556c0 1.966-.197 3.46-.59 4.56-.393 1.101-1.023 1.966-1.887 2.635-1.298 1.022-3.303 1.533-6.055 1.533h-.472c-2.752 0-4.796-.511-6.054-1.533-.865-.669-1.494-1.534-1.887-2.635-.394-1.1-.59-2.594-.59-4.56v-2.516c0-1.927.196-3.421.59-4.522a5.95 5.95 0 0 1 1.887-2.673c1.258-1.022 3.302-1.533 6.054-1.533h.472c2.752 0 4.757.51 6.055 1.533a6.05 6.05 0 0 1 1.887 2.634c.393 1.101.59 2.595.59 4.521m13.745-8.688h.315c2.28 0 3.97.55 4.993 1.612.943 1.022 1.454 2.752 1.454 5.189v11.677c0 .393-.118.708-.314.865-.197.196-.55.275-1.022.275h-3.617c-.512 0-.865-.079-1.062-.275-.197-.157-.275-.472-.275-.865v-11.126c0-.865-.157-1.494-.433-1.809-.314-.314-.904-.511-1.73-.511h-.235c-.865 0-1.416.197-1.73.511-.315.315-.433.944-.433 1.809v11.126c0 .393-.118.708-.314.865-.197.196-.55.275-1.022.275H61.7c-.511 0-.865-.079-1.062-.275-.197-.157-.275-.472-.275-.865V97.836c0-.393.079-.668.275-.825.197-.158.55-.275 1.062-.275h1.847c.472 0 .787.078.983.196q.295.177.472.708l.236.747h.118c1.258-1.337 3.027-2.005 5.386-2.005m22.813 15.922v2.241c0 .59-.118.983-.275 1.18s-.511.275-.983.275h-3.145c-2.831 0-4.718-.472-5.583-1.455-.787-.825-1.14-2.398-1.14-4.757v-8.138h-2.123c-.394 0-.63-.039-.787-.197-.157-.157-.196-.393-.196-.786v-2.005c0-.472.039-.786.196-.944.118-.157.393-.275.826-.393l2.084-.51V92.96c0-.393.078-.668.275-.865.196-.157.55-.275 1.061-.275h3.617c.472 0 .826.118 1.023.275.196.197.314.472.314.865v3.775h3.263c.393 0 .63.078.787.235.157.158.235.433.235.905v2.634q0 .708-.235.943c-.158.158-.394.197-.787.197H88.72v7.43c0 .708.079 1.141.315 1.377.236.275.747.393 1.533.393h1.73c.472 0 .825.118.983.314.157.197.275.59.275 1.14m8.676-7.47v3.067c0 1.533.236 2.516.707 2.988.354.393.905.55 1.652.55h.157c.708 0 1.258-.157 1.651-.55.472-.472.708-1.455.708-2.988v-3.067c0-1.494-.236-2.516-.708-2.988-.393-.353-.943-.55-1.651-.55h-.157c-.747 0-1.298.197-1.652.55-.471.472-.707 1.494-.707 2.988m11.205.236v2.556c0 1.966-.197 3.46-.59 4.56-.393 1.101-1.022 1.966-1.887 2.635-1.298 1.022-3.303 1.533-6.055 1.533h-.472c-2.752 0-4.796-.511-6.054-1.533-.865-.669-1.494-1.534-1.887-2.635-.394-1.1-.59-2.594-.59-4.56v-2.516c0-1.927.197-3.421.59-4.522a5.95 5.95 0 0 1 1.887-2.673c1.258-1.022 3.302-1.533 6.054-1.533h.472c2.752 0 4.757.51 6.055 1.533a6.05 6.05 0 0 1 1.887 2.634c.393 1.101.59 2.595.59 4.521m18.298-3.341h-6.251c-.394 0-.669-.04-.826-.197s-.197-.472-.197-.944v-2.712c0-.472.04-.747.197-.905q.235-.236.826-.236h13.288c.393 0 .669.08.865.236.157.158.275.472.275.905v.747a5 5 0 0 1-.865 2.791l-6.762 9.593h6.723c.393 0 .629.079.786.236s.236.432.236.904v2.713q0 .708-.236.943c-.157.158-.393.197-.786.197h-13.524c-.826 0-1.219-.354-1.219-1.14v-.904a4.78 4.78 0 0 1 .865-2.792zm22.308 12.659h-.079c-.865 1.337-2.595 1.966-5.15 1.966h-.59c-2.005 0-3.578-.511-4.679-1.533-1.14-1.023-1.69-2.556-1.69-4.522v-.432c0-2.123.59-3.657 1.808-4.521 1.219-.865 3.185-1.298 5.937-1.298h.275c1.022 0 1.966.079 2.752.157v-.825c0-.826-.236-1.416-.668-1.73-.472-.275-1.258-.433-2.359-.433-1.337 0-2.831.236-4.561.669-.471.118-.825.118-.983 0-.196-.118-.314-.354-.353-.747l-.315-2.084c-.079-.354-.079-.629-.079-.786 0-.472.315-.826.944-1.022 2.005-.55 4.246-.865 6.723-.865 3.027 0 5.19.668 6.448 1.926.983 1.022 1.494 2.674 1.494 4.915v11.676c0 .393-.118.708-.315.865-.196.157-.55.236-1.022.236h-1.848c-.472 0-.786-.039-.983-.157s-.354-.354-.472-.747zm-1.416-5.032v-1.101q-.648-.118-1.887-.118h-.432q-1.416 0-2.005.354c-.394.236-.551.707-.551 1.415v.157c0 .708.157 1.18.551 1.416.353.275.904.393 1.651.393h.275c.786 0 1.376-.197 1.848-.59.354-.314.55-.983.55-1.926m42.717-10.921v4.164c0 4.499-.957 7.945-2.824 10.29-1.914 2.393-5.073 3.542-9.476 3.542s-7.563-1.149-9.477-3.542c-1.915-2.345-2.824-5.791-2.824-10.29v-4.164c0-4.5.909-7.898 2.824-10.29 1.914-2.346 5.073-3.543 9.477-3.543 4.403 0 7.562 1.197 9.476 3.542 1.867 2.393 2.824 5.791 2.824 10.29m-8.184 3.35v-2.537c0-3.11-.287-5.265-.766-6.413s-1.579-1.771-3.255-1.771h-.191c-1.723.048-2.824.622-3.303 1.77-.478 1.15-.717 3.303-.717 6.414v2.537c0 3.159.239 5.265.717 6.413.479 1.149 1.58 1.771 3.303 1.771h.191c1.676 0 2.776-.574 3.255-1.723.479-1.148.766-3.302.766-6.461m30.386-3.159h-7.61c-.478 0-.813-.048-1.005-.24-.191-.19-.239-.574-.239-1.148v-3.302c0-.575.048-.91.239-1.101q.288-.287 1.005-.287h16.178c.478 0 .813.095 1.053.287.191.191.335.574.335 1.1v.91c0 1.244-.383 2.393-1.053 3.398l-8.233 11.678h8.185c.478 0 .766.096.957.288.192.191.287.526.287 1.101v3.302q0 .861-.287 1.149c-.191.191-.479.239-.957.239h-16.465c-1.005 0-1.483-.431-1.483-1.388v-1.101c0-1.244.335-2.345 1.052-3.398zm23.281 11.152h1.531c.479 0 .862.143 1.053.335.192.239.335.67.335 1.292v2.968c0 .67-.143 1.101-.335 1.292-.191.239-.574.335-1.053.335h-3.637c-2.393 0-4.068-.431-5.026-1.388-.957-.909-1.436-2.537-1.436-4.834v-5.169l-1.579 1.005c-.622.383-1.053.574-1.244.574-.383 0-.527-.287-.527-.861v-4.451c0-.479.048-.814.239-1.053.144-.192.431-.479.91-.814l2.201-1.388V84.985c0-.478.096-.813.336-1.053.239-.191.67-.335 1.292-.335h4.403c.574 0 1.005.144 1.245.335.239.24.382.575.382 1.053v7.754l2.154-1.388c.575-.383 1.005-.574 1.245-.574.335 0 .526.287.526.861v4.451c0 .479-.096.862-.239 1.053-.192.24-.479.527-.91.814l-2.776 1.77v9.143c0 .382.048.622.192.717.096.144.335.192.718.192M8.296 143.009v5.032c0 .904.157 1.533.55 1.887.314.354.904.511 1.77.511h.353c.904 0 1.533-.235 1.926-.786q.472-.708.472-3.42v-1.691c0-1.966-.196-3.184-.51-3.578-.355-.393-1.023-.629-1.967-.629h-.157c-.904 0-1.533.197-1.926.59-.354.354-.511 1.062-.511 2.084m0-6.566h.078q1.71-1.061 4.482-1.061h.354c2.359 0 4.089.707 5.15 2.123.865 1.218 1.337 3.381 1.337 6.487v2.83c0 3.146-.668 5.347-2.005 6.566-1.415 1.337-3.656 1.966-6.723 1.966h-.786c-3.224 0-5.426-.629-6.605-1.927-1.062-1.14-1.573-2.988-1.573-5.582v-18.321c0-.394.079-.669.275-.865.158-.158.511-.276 1.022-.276H6.96c.472 0 .825.118 1.022.276.197.196.315.471.315.865zm24.144 13.839h.433c1.337 0 2.752-.157 4.167-.511.394-.079.63-.118.747-.118.394 0 .63.236.708.668l.315 1.966c.078.551.157.904.157 1.062 0 .472-.354.825-1.022 1.061-1.809.629-3.814.944-5.937.944h-.747q-4.836 0-6.84-2.005a5.64 5.64 0 0 1-1.573-2.674c-.276-1.022-.394-2.398-.394-4.088v-2.202c0-3.421.787-5.819 2.36-7.234 1.336-1.18 3.38-1.769 6.172-1.769h.55c2.752 0 4.757.668 5.937 1.965 1.258 1.416 1.887 3.735 1.887 7.038v2.044c0 .747-.393 1.101-1.14 1.101h-9.436v.315c0 .943.236 1.572.786 1.926.511.354 1.455.511 2.87.511m-3.656-6.841h4.325c.314 0 .472-.157.472-.511v-.629c0-.786-.158-1.376-.394-1.808-.314-.472-.943-.708-1.808-.708h-.354c-.786 0-1.337.197-1.651.55q-.59.708-.59 2.123zm20.327-2.712H42.86c-.393 0-.669-.04-.826-.197s-.196-.472-.196-.944v-2.712c0-.472.039-.747.196-.905q.236-.236.826-.236h13.289c.393 0 .668.079.864.236.158.158.276.472.276.905v.747a5 5 0 0 1-.865 2.791l-6.763 9.593h6.723c.394 0 .63.079.787.236s.236.432.236.904v2.713q0 .708-.236.943c-.158.158-.393.197-.787.197H42.86c-.826 0-1.219-.354-1.219-1.14v-.904c0-1.023.275-1.927.865-2.792zm29.534-4.05h3.381c.55 0 .944.079 1.14.236.197.157.354.472.433.943 0 .158.707 3.657 2.083 10.458h.118c.708-4.128 1.337-7.941 1.848-11.48.04-.432.157-.707.315-.865q.236-.236.825-.236h4.01c.433 0 .708.118.865.276.118.196.158.511.079.904-.629 3.067-1.415 6.448-2.28 10.143s-1.494 6.016-1.887 6.998c-.158.394-.354.669-.55.787s-.512.157-.905.157h-4.325c-.825 0-1.337-.275-1.494-.904-.747-2.674-1.376-6.055-1.926-10.144h-.157c-.512 3.539-1.18 6.92-1.966 10.144-.157.629-.63.904-1.416.904H72.59c-.786 0-1.297-.275-1.494-.865-.393-1.061-1.061-3.499-2.005-7.273a183 183 0 0 1-2.201-9.947c-.118-.433-.079-.747.078-.904s.472-.276.944-.276h3.853c.393 0 .707.079.904.236.157.158.275.472.354.865.55 3.657 1.18 7.47 1.926 11.48h.157c.944-4.875 1.612-8.374 1.927-10.458.079-.511.197-.825.393-.982.197-.118.59-.197 1.219-.197m28.48 16.709h-.078c-.865 1.337-2.595 1.966-5.151 1.966h-.589c-2.006 0-3.578-.511-4.679-1.533-1.14-1.023-1.69-2.556-1.69-4.522v-.432c0-2.123.59-3.657 1.808-4.521 1.219-.865 3.185-1.298 5.937-1.298h.275c1.022 0 1.966.079 2.752.157v-.825c0-.826-.236-1.416-.669-1.73-.471-.275-1.258-.433-2.358-.433-1.337 0-2.831.236-4.561.669-.472.118-.826.118-.983 0-.197-.118-.314-.354-.354-.747l-.314-2.084c-.079-.354-.079-.629-.079-.786 0-.472.315-.826.944-1.022 2.005-.551 4.246-.865 6.723-.865 3.027 0 5.189.668 6.447 1.926.983 1.022 1.494 2.674 1.494 4.915v11.676c0 .393-.118.708-.314.865-.197.157-.551.236-1.022.236h-1.848c-.472 0-.787-.039-.983-.157-.197-.118-.354-.354-.472-.747zm-1.415-5.032v-1.101q-.65-.118-1.887-.118h-.433q-1.415 0-2.005.354c-.393.236-.55.707-.55 1.415v.157c0 .708.157 1.18.55 1.416.354.275.904.393 1.651.393h.276c.786 0 1.376-.197 1.847-.59.354-.314.551-.983.551-1.926m14.972-10.498h.118c.865-1.415 2.319-2.123 4.403-2.123h1.573c.393 0 .707.079.864.236.158.158.276.433.276.865v2.87c0 .433-.079.708-.236.865q-.236.236-.826.236h-1.179c-1.455 0-2.438.275-2.988.826-.472.472-.669 1.376-.669 2.713v9.514c0 .393-.118.708-.314.865-.197.196-.551.275-1.022.275h-3.617c-.511 0-.865-.079-1.062-.275-.196-.157-.275-.472-.275-.865v-17.024c0-.393.079-.668.275-.825.197-.158.551-.276 1.062-.276h1.887c.432 0 .747.079.943.197q.295.236.472.708zm19.899 10.105v-11.087c0-.394.078-.669.275-.865.197-.158.55-.276 1.061-.276h3.617c.472 0 .826.118 1.023.276.196.196.314.471.314.865v11.637q0 3.597-1.769 5.19c-1.258 1.1-3.46 1.651-6.684 1.651-3.223 0-5.464-.551-6.683-1.651q-1.77-1.593-1.769-5.19v-11.637c0-.394.078-.669.275-.865.196-.158.55-.276 1.061-.276h3.617c.472 0 .826.118 1.023.276.196.196.314.471.314.865v11.087c0 .904.118 1.494.433 1.808.314.354.864.511 1.729.511.826 0 1.416-.157 1.73-.511.275-.314.433-.904.433-1.808m20.388-12.581h.314c2.281 0 3.971.55 4.993 1.612.944 1.022 1.455 2.752 1.455 5.189v11.677c0 .393-.118.708-.314.865-.197.196-.551.275-1.023.275h-3.617c-.511 0-.865-.079-1.061-.275-.197-.157-.275-.472-.275-.865v-11.126c0-.865-.158-1.494-.433-1.809-.314-.314-.904-.511-1.73-.511h-.236c-.865 0-1.415.197-1.729.511-.315.315-.433.944-.433 1.809v11.126c0 .393-.118.708-.314.865-.197.196-.551.275-1.023.275h-3.617c-.511 0-.865-.079-1.061-.275-.197-.157-.275-.472-.275-.865v-17.024c0-.393.078-.668.275-.825.196-.158.55-.276 1.061-.276h1.848c.472 0 .786.079.983.197q.295.177.472.708l.236.747h.118c1.258-1.337 3.027-2.005 5.386-2.005m16.797 11.991v6.487c0 .393-.118.708-.314.865-.197.196-.551.275-1.022.275h-3.617c-.511 0-.865-.079-1.062-.275-.196-.157-.275-.472-.275-.865v-24.336c0-.394.079-.669.275-.865.197-.158.551-.276 1.062-.276h3.617c.471 0 .825.118 1.022.276.196.196.314.471.314.865v12.816h.276l3.735-5.7c.353-.59.904-.905 1.651-.905h4.56c.433 0 .669.158.669.472 0 .158-.118.433-.315.747l-4.521 6.762c-.354.551-.511.944-.511 1.18 0 .275.157.668.511 1.179l4.836 7.628c.157.314.236.511.236.668 0 .432-.276.629-.826.629h-4.364c-.55 0-.983-.039-1.219-.197q-.354-.177-.707-.825l-3.735-6.605zm18.531-3.539v3.067c0 1.533.236 2.516.707 2.988.354.393.905.55 1.652.55h.157c.708 0 1.258-.157 1.651-.55.472-.472.708-1.455.708-2.988v-3.067c0-1.494-.236-2.516-.708-2.988-.393-.353-.943-.55-1.651-.55h-.157c-.747 0-1.298.197-1.652.55-.471.472-.707 1.494-.707 2.988m11.205.236v2.556c0 1.966-.197 3.46-.59 4.56-.393 1.101-1.022 1.966-1.887 2.635-1.298 1.022-3.303 1.533-6.055 1.533h-.472c-2.752 0-4.796-.511-6.054-1.533-.865-.669-1.494-1.534-1.887-2.635s-.59-2.594-.59-4.56v-2.516c0-1.927.197-3.421.59-4.522a5.95 5.95 0 0 1 1.887-2.673c1.258-1.022 3.302-1.533 6.054-1.533h.472c2.752 0 4.757.511 6.055 1.533a6.05 6.05 0 0 1 1.887 2.634c.393 1.101.59 2.595.59 4.521m-11.992-13.524 6.173-5.268c.236-.236.511-.354.747-.354.275 0 .55.196.786.511l1.887 2.437c.158.236.236.433.236.669 0 .314-.236.629-.629.943l-6.212 4.246a1.36 1.36 0 0 1-.786.276c-.314 0-.629-.158-.943-.551l-1.18-1.376c-.314-.354-.432-.668-.432-.904s.118-.472.353-.629m25.423 6.133h3.381c.55 0 .943.079 1.14.236s.354.472.433.943c0 .158.707 3.657 2.083 10.458h.118c.708-4.128 1.337-7.941 1.848-11.48.039-.432.157-.707.315-.865q.236-.236.825-.236h4.01c.433 0 .708.118.865.276.118.196.158.511.079.904-.629 3.067-1.415 6.448-2.28 10.143s-1.494 6.016-1.888 6.998c-.157.394-.353.669-.55.787s-.511.157-.904.157h-4.325c-.826 0-1.337-.275-1.494-.904-.747-2.674-1.376-6.055-1.926-10.144h-.158a108 108 0 0 1-1.965 10.144c-.158.629-.629.904-1.416.904h-4.246c-.786 0-1.297-.275-1.494-.865-.393-1.061-1.061-3.499-2.005-7.273a184 184 0 0 1-2.202-9.947c-.117-.433-.078-.747.079-.904s.472-.276.944-.276h3.853c.393 0 .707.079.904.236.157.158.275.472.354.865a332 332 0 0 0 1.926 11.48h.157c.944-4.875 1.612-8.374 1.927-10.458.078-.511.196-.825.393-.982.197-.118.59-.197 1.219-.197"/></svg>