<svg xmlns="http://www.w3.org/2000/svg" fill="none" viewBox="0 0 274 173"><path fill="#fff" d="M6.463 16.396c1.3-1.263 3.158-1.931 5.535-1.931h.334c2.303 0 3.938.668 4.94 1.931.892 1.189 1.338 3.195 1.338 6.092v2.786c0 1.56-.149 2.86-.372 3.826-.26.965-.706 1.783-1.337 2.414-1.263 1.226-2.972 1.82-5.2 1.82h-.409q-2.117 0-3.454-.78v5.72c0 .558-.112.93-.298 1.078-.222.148-.631.223-1.262.223H3.454c-.631 0-1.04-.075-1.262-.26-.223-.149-.298-.52-.298-1.04V15.988c0-.446.075-.743.298-.929.185-.149.52-.26 1.002-.26h1.56c.446 0 .78.074.966.149.149.111.297.334.409.631l.26.817zm1.375 5.275v4.754c0 .855.148 1.449.52 1.783.334.335.891.483 1.671.483h.335c.854 0 1.448-.223 1.82-.743q.445-.668.445-3.231v-1.598c0-1.782-.148-2.897-.445-3.305-.372-.446-.966-.67-1.858-.67h-.26c-.817 0-1.374.187-1.746.558-.334.334-.482 1.003-.482 1.969m20.62 6.5h1.189c.371 0 .668.112.817.26.148.186.26.52.26 1.003v2.303c0 .52-.112.854-.26 1.003-.149.186-.446.26-.817.26h-2.823c-1.858 0-3.158-.334-3.9-1.077-.744-.706-1.115-1.969-1.115-3.752V8.93c0-.371.074-.631.26-.817.186-.149.52-.26 1.003-.26h3.417c.446 0 .78.111.966.26.186.186.297.446.297.817v18.535c0 .298.037.483.149.558.074.111.26.148.557.148m14.474-1.82V15.876c0-.371.074-.631.26-.817.186-.149.52-.26 1.003-.26h3.417c.446 0 .78.111.966.26.186.186.297.446.297.817v10.995q0 3.399-1.671 4.903c-1.189 1.04-3.269 1.56-6.315 1.56s-5.163-.52-6.315-1.56q-1.671-1.504-1.671-4.903V15.876c0-.371.074-.631.26-.817.186-.149.52-.26 1.003-.26h3.417c.446 0 .78.111.966.26.186.186.297.446.297.817v10.475c0 .854.112 1.412.409 1.709.297.334.817.483 1.634.483.78 0 1.337-.149 1.634-.483.26-.297.41-.855.41-1.709m8.974-5.572v-.483c0-1.82.482-3.194 1.448-4.16 1.114-1.114 3.009-1.671 5.646-1.671h.372c2.08 0 3.9.223 5.423.668q.446.168.557.335c.074.148.111.334.074.631l-.408 3.046c-.075.483-.409.631-1.003.483-1.486-.334-2.823-.52-3.938-.52h-.037c-.817 0-1.411.074-1.708.223-.335.148-.483.408-.483.78v.111c0 .372.111.632.408.78s.855.335 1.709.483l1.746.372c1.597.37 2.748.928 3.417 1.671s1.003 1.894 1.003 3.417v.558c0 3.9-2.452 5.831-7.28 5.831h-.372c-2.451 0-4.494-.334-6.203-1.003-.334-.111-.557-.26-.632-.445-.074-.149-.074-.446 0-.855l.52-2.451c.112-.706.52-.929 1.263-.706 1.71.594 3.195.854 4.458.854h.111c.818 0 1.375-.074 1.709-.26.297-.148.483-.445.483-.854v-.111a.8.8 0 0 0-.409-.706q-.445-.224-1.783-.557l-1.634-.372q-2.452-.556-3.455-1.671c-.668-.743-1.002-1.858-1.002-3.418m33.093 7.392h1.188c.372 0 .669.112.818.26.148.186.26.52.26 1.003v2.303c0 .52-.112.854-.26 1.003-.149.186-.446.26-.818.26h-2.823c-1.857 0-3.157-.334-3.9-1.077-.743-.706-1.114-1.969-1.114-3.752V24.16l-1.226.78c-.483.297-.817.445-.966.445-.297 0-.408-.223-.408-.668v-3.455c0-.371.037-.631.185-.817.112-.149.335-.372.706-.631l1.709-1.078V8.93c0-.371.074-.631.26-.817.186-.149.52-.26 1.003-.26h3.417c.446 0 .78.111.966.26.186.186.297.446.297.817v6.018l1.672-1.078c.445-.297.78-.445.965-.445.26 0 .409.223.409.668v3.455c0 .371-.074.668-.186.817a3 3 0 0 1-.706.631l-2.154 1.375v7.094c0 .298.037.483.149.558.074.111.26.148.557.148m15.451 3.306h-.075c-.817 1.263-2.451 1.857-4.866 1.857h-.557c-1.894 0-3.38-.483-4.42-1.448-1.077-.966-1.597-2.415-1.597-4.272v-.409c0-2.005.557-3.454 1.708-4.271 1.152-.818 3.01-1.226 5.61-1.226h.26c.965 0 1.856.074 2.6.149v-.78c0-.78-.223-1.338-.632-1.635-.446-.26-1.189-.409-2.229-.409-1.263 0-2.674.223-4.308.632-.446.111-.78.111-.93 0-.185-.111-.296-.334-.334-.706l-.297-1.968c-.074-.372-.074-.632-.074-.743 0-.446.297-.78.892-.966 1.894-.52 4.011-.817 6.351-.817 2.861 0 4.903.631 6.092 1.82.929.965 1.412 2.526 1.412 4.643V31.96c0 .557-.223.891-.595 1.04-.928.371-1.708.892-2.303 1.56-.631.669-.928 1.374-.928 2.08v.112q0 1.002 1.003 1.003h.111c.446 0 1.003-.075 1.597-.298.186-.037.335-.074.446-.074.186 0 .334.186.446.483l.185.78c.112.52.186.78.186.854 0 .223-.186.409-.52.558a8.3 8.3 0 0 1-3.009.557h-.222c-1.263 0-2.266-.26-2.935-.818-.668-.557-1.003-1.337-1.003-2.302v-.186c0-.892.297-1.746.929-2.563.594-.817 1.411-1.486 2.377-2.006zm-1.338-4.754v-1.04q-.612-.112-1.782-.112h-.41q-1.336 0-1.894.334c-.371.223-.52.669-.52 1.337v.15c0 .668.149 1.114.52 1.336.335.26.855.372 1.56.372h.26c.743 0 1.3-.186 1.746-.557.335-.298.52-.929.52-1.82m18.154 1.82h.297c1.003 0 2.08-.149 3.232-.483.371-.075.594-.112.705-.112.372 0 .595.223.669.632l.334 1.894c.075.52.149.854.149 1.003 0 .446-.334.78-.966 1.003-1.634.594-3.417.854-5.349.854h-.445c-2.675 0-4.644-.594-5.869-1.857q-1.895-1.894-1.895-6.352v-2.154c0-1.746.149-3.12.446-4.086q.445-1.449 1.449-2.452c1.3-1.3 3.343-1.968 6.129-1.968h.371c2.229 0 4.16.408 5.72 1.225.446.26.706.558.706.93 0 .222-.111.593-.297 1.113l-.706 1.783q-.279.669-.78.669c-.148 0-.371-.037-.668-.186-1.189-.483-2.303-.743-3.306-.743h-.149c-.966 0-1.672.26-2.117.706-.557.557-.817 1.709-.817 3.417v1.263c0 1.523.222 2.563.742 3.12.483.52 1.301.78 2.415.78m14.379-9.027h-5.906c-.372 0-.632-.037-.78-.185-.149-.149-.186-.446-.186-.892v-2.563c0-.446.037-.706.186-.854q.222-.223.78-.223h12.555c.371 0 .631.074.817.223.149.148.26.446.26.854v.706c0 .966-.297 1.857-.817 2.637l-6.389 9.064h6.352c.371 0 .594.074.743.223.148.148.222.408.222.854v2.563q0 .668-.222.891c-.149.149-.372.186-.743.186h-12.778c-.78 0-1.152-.334-1.152-1.077v-.854c0-.966.26-1.82.817-2.638zm20.147-5.051h.298c2.154 0 3.751.52 4.717 1.523.892.965 1.374 2.6 1.374 4.903v11.032c0 .371-.111.668-.297.817-.185.186-.52.26-.966.26h-3.417c-.483 0-.817-.074-1.003-.26-.185-.149-.26-.446-.26-.817V21.41c0-.817-.148-1.412-.408-1.709-.298-.297-.855-.483-1.635-.483h-.223c-.817 0-1.337.186-1.634.483s-.409.892-.409 1.709v10.512c0 .371-.111.668-.297.817-.185.186-.52.26-.966.26h-3.417c-.483 0-.817-.074-1.003-.26-.186-.149-.26-.446-.26-.817V15.839c0-.371.074-.632.26-.78s.52-.26 1.003-.26h1.746c.446 0 .743.074.929.186q.278.167.445.668l.223.706h.112c1.188-1.263 2.86-1.894 5.088-1.894m15.945 1.411v16.047c0 .371-.111.668-.297.817-.186.186-.52.26-.966.26h-3.417c-.483 0-.818-.074-1.003-.26-.186-.149-.26-.446-.26-.817V15.876c0-.371.074-.631.26-.817.185-.149.52-.26 1.003-.26h3.417c.446 0 .78.111.966.26.186.186.297.446.297.817m-2.749-2.489h-.446c-2.005 0-3.008-1.003-3.008-3.083v-.185c0-2.043 1.003-3.083 3.008-3.083h.446c2.006 0 3.009 1.04 3.009 3.083v.185c0 2.08-1.003 3.083-3.009 3.083m15.439 15.156h.408c1.263 0 2.6-.149 3.938-.483.371-.075.594-.112.705-.112.372 0 .595.223.669.632l.297 1.857c.074.52.149.854.149 1.003 0 .446-.335.78-.966 1.003-1.709.594-3.603.891-5.609.891h-.706q-4.569 0-6.463-1.894a5.33 5.33 0 0 1-1.486-2.526c-.26-.966-.371-2.266-.371-3.863v-2.08c0-3.232.743-5.498 2.228-6.835 1.263-1.114 3.195-1.671 5.832-1.671h.52c2.6 0 4.495.631 5.609 1.857 1.189 1.337 1.783 3.529 1.783 6.649v1.931c0 .706-.371 1.04-1.077 1.04h-8.915v.298c0 .891.223 1.485.743 1.82.483.334 1.374.483 2.712.483m-3.455-6.464h4.086c.297 0 .446-.148.446-.483v-.594c0-.743-.149-1.3-.372-1.708-.297-.446-.891-.67-1.708-.67h-.335c-.743 0-1.263.187-1.56.52q-.557.67-.557 2.007zM12.481 66.992h.361c1.447 0 2.669-.271 3.708-.814v-.633c0-2.487-.27-4.16-.768-5.02-.498-.858-1.402-1.31-2.759-1.31h-.407q-3.39 0-3.391 3.662v.407c0 1.357.226 2.306.769 2.849.542.588 1.356.86 2.487.86M4.296 82.096c-.543-.181-.769-.498-.769-1.04q0-.272.136-.814l.723-2.895c.181-.723.724-.994 1.538-.768 2.17.678 4.07.995 5.697.995h.136c1.628 0 2.759-.407 3.482-1.312q1.085-1.289 1.221-4.07c-1.492.634-3.12.905-4.884.905h-.497c-3.21 0-5.517-.769-6.964-2.397-1.447-1.582-2.125-4.024-2.125-7.28v-.633c0-2.894.859-5.2 2.622-6.919 1.764-1.673 4.342-2.532 7.733-2.532h.633c4.07 0 6.964 1.085 8.592 3.165s2.487 5.517 2.487 10.31v1.085c0 2.578-.226 4.794-.678 6.693s-1.04 3.437-1.764 4.522a8.2 8.2 0 0 1-2.758 2.668c-1.085.678-2.17 1.13-3.256 1.311-1.085.227-2.352.317-3.753.317h-.046c-2.622 0-5.155-.407-7.506-1.311m53.58-13.205V81.69c0 .452-.136.814-.362.995-.226.226-.633.316-1.175.316h-4.16c-.589 0-.996-.09-1.222-.317-.226-.18-.316-.542-.316-.994V68.89c0-.995-.181-1.718-.498-2.08-.361-.362-1.04-.588-1.99-.588h-.09c-.995 0-1.628.227-1.99.588-.361.362-.497 1.085-.497 2.08V81.69c0 .452-.136.814-.362.995-.226.226-.633.316-1.175.316h-4.16c-.588 0-.995-.09-1.221-.317-.227-.18-.317-.542-.317-.994v-19.58c0-.453.09-.77.316-.95.227-.181.634-.317 1.221-.317h2.126c.542 0 .904.09 1.13.226q.339.204.543.814l.271.86h.136c1.447-1.538 3.482-2.307 6.195-2.307h.18c2.578 0 4.568.724 5.97 2.08 1.447-1.356 3.527-2.08 6.15-2.08h.18c2.623 0 4.568.633 5.744 1.854 1.085 1.176 1.673 3.166 1.673 5.97v13.43c0 .452-.136.814-.362.995-.226.226-.633.316-1.176.316h-4.16c-.588 0-.995-.09-1.22-.317-.227-.18-.317-.542-.317-.994V68.89c0-.995-.181-1.718-.498-2.08-.362-.362-1.04-.588-1.99-.588h-.09c-.995 0-1.628.227-1.99.588-.361.362-.497 1.085-.497 2.08m23.914-6.737v19.535c0 .452-.136.814-.362.995-.226.226-.633.316-1.176.316h-4.16c-.588 0-.995-.09-1.221-.317-.226-.18-.317-.542-.317-.994V62.154c0-.453.09-.77.317-.995.226-.181.633-.317 1.22-.317h4.161c.543 0 .95.136 1.176.317.226.226.362.542.362.995m-3.347-3.03h-.542c-2.442 0-3.663-1.221-3.663-3.753v-.227c0-2.487 1.22-3.753 3.663-3.753h.542c2.442 0 3.663 1.266 3.663 3.754v.226c0 2.532-1.22 3.753-3.663 3.753m18.795 18.45h.497c1.538 0 3.166-.181 4.794-.588.452-.09.723-.136.859-.136.452 0 .723.271.814.769l.361 2.26c.091.634.181 1.04.181 1.222 0 .542-.407.95-1.175 1.22-2.08.724-4.387 1.086-6.829 1.086h-.859q-5.561 0-7.868-2.306c-.904-.86-1.492-1.9-1.809-3.075s-.452-2.759-.452-4.703V70.79c0-3.934.904-6.693 2.713-8.32 1.538-1.357 3.89-2.036 7.1-2.036h.633c3.165 0 5.471.769 6.828 2.261 1.447 1.628 2.171 4.296 2.171 8.095v2.351c0 .86-.453 1.266-1.312 1.266H93.032v.362c0 1.085.272 1.809.905 2.216.588.407 1.673.588 3.3.588m-4.206-7.869h4.975c.361 0 .542-.18.542-.587v-.724c0-.904-.18-1.583-.452-2.08-.362-.543-1.085-.814-2.08-.814h-.407c-.904 0-1.538.226-1.9.633q-.677.815-.678 2.442zm15.421-1.582v-.588c0-2.216.588-3.89 1.764-5.065 1.357-1.356 3.663-2.035 6.873-2.035h.453c2.532 0 4.748.271 6.602.814q.543.204.678.407c.091.181.136.407.091.769l-.498 3.708c-.09.588-.497.769-1.221.588-1.809-.407-3.437-.633-4.793-.633h-.045c-.995 0-1.719.09-2.08.271-.407.18-.588.498-.588.95v.135c0 .453.135.77.497.95s1.04.407 2.08.588l2.126.452c1.944.452 3.346 1.13 4.16 2.035.814.904 1.221 2.306 1.221 4.16v.678c0 4.748-2.985 7.1-8.863 7.1h-.453c-2.984 0-5.471-.407-7.551-1.221-.407-.136-.679-.317-.769-.543-.091-.18-.091-.542 0-1.04l.633-2.984c.136-.86.633-1.13 1.537-.86 2.081.724 3.889 1.04 5.427 1.04h.136c.994 0 1.673-.09 2.08-.316.361-.18.588-.543.588-1.04v-.136a.97.97 0 0 0-.498-.859q-.543-.27-2.17-.678l-1.99-.452q-2.985-.678-4.206-2.035c-.814-.904-1.221-2.261-1.221-4.16m28.404-5.97V81.69c0 .452-.135.814-.361.995-.227.226-.634.316-1.176.316h-4.16c-.588 0-.995-.09-1.221-.317-.226-.18-.317-.542-.317-.994V62.154c0-.453.091-.77.317-.995.226-.181.633-.317 1.221-.317h4.16c.542 0 .949.136 1.176.317.226.226.361.542.361.995m-3.346-3.03h-.543c-2.442 0-3.662-1.22-3.662-3.752v-.227c0-2.487 1.22-3.753 3.662-3.753h.543c2.442 0 3.663 1.266 3.663 3.754v.226c0 2.532-1.221 3.753-3.663 3.753m18.795 18.45h.497c1.537 0 3.165-.18 4.793-.587.452-.09.724-.136.859-.136.453 0 .724.271.814.769l.362 2.26c.091.634.181 1.04.181 1.222 0 .542-.407.95-1.176 1.22a6.56 6.56 0 0 0-2.894 2.171c-.768.995-1.13 1.99-1.13 2.894v.136c0 .86.407 1.266 1.221 1.266h.226c.497 0 1.13-.09 1.854-.362.226-.045.407-.09.542-.09.227 0 .407.226.543.588l.226.95c.136.633.226.95.226 1.04 0 .27-.226.497-.633.678a10.1 10.1 0 0 1-3.663.678h-.271c-1.583 0-2.758-.316-3.572-.995-.814-.678-1.221-1.628-1.221-2.894v-.135c0-.814.271-1.719.859-2.623s1.357-1.628 2.351-2.261c-.361.045-.859.045-1.492.045h-.859q-5.562 0-7.868-2.306c-.905-.86-1.493-1.9-1.809-3.075-.317-1.176-.452-2.759-.452-4.703V70.79c0-3.934.904-6.693 2.713-8.32 1.537-1.357 3.889-2.036 7.099-2.036h.633c3.166 0 5.472.769 6.829 2.261 1.447 1.628 2.17 4.296 2.17 8.095v2.351c0 .86-.452 1.266-1.311 1.266H148.1v.362c0 1.085.271 1.809.904 2.216.588.407 1.674.588 3.302.588m-4.206-7.868h4.974c.362 0 .543-.18.543-.587v-.724c0-.904-.181-1.583-.452-2.08-.362-.543-1.086-.814-2.08-.814h-.407c-.905 0-1.538.226-1.9.633q-.678.815-.678 2.442zm26.41 7.869h.361c1.221 0 2.533-.181 3.935-.588.452-.09.723-.136.859-.136.452 0 .723.271.814.769l.407 2.306c.09.633.181 1.04.181 1.221 0 .543-.407.95-1.176 1.22-1.99.724-4.16 1.041-6.512 1.041h-.543c-3.255 0-5.652-.724-7.144-2.261q-2.306-2.306-2.306-7.733v-2.622c0-2.126.18-3.799.542-4.975q.543-1.763 1.764-2.984c1.582-1.583 4.07-2.397 7.461-2.397h.452c2.713 0 5.065.498 6.964 1.492.543.317.859.679.859 1.131 0 .271-.135.724-.361 1.357l-.86 2.17q-.339.814-.949.814c-.181 0-.452-.045-.814-.226-1.447-.588-2.804-.904-4.025-.904h-.181c-1.175 0-2.035.316-2.577.859-.679.678-.995 2.08-.995 4.16v1.538c0 1.854.271 3.12.904 3.798.588.633 1.583.95 2.94.95m30.102-15.375c-.633 4.25-1.809 8.953-3.527 14.154-1.764 5.2-3.889 10.129-6.377 14.741-.316.634-.723.95-1.266.95-.361 0-.768-.09-1.311-.362l-2.306-.995c-.814-.361-1.176-.723-1.176-1.13 0-.181.045-.452.226-.769 1.538-3.12 2.442-4.929 2.623-5.426-1.266-.452-2.216-1.447-2.939-3.075-.814-1.809-1.764-4.567-2.804-8.366q-1.56-5.697-2.306-9.767c-.091-.453-.046-.77.181-.995.226-.181.633-.317 1.175-.317h4.115c.498 0 .86.09 1.086.226s.407.407.497.86c1.04 5.697 2.216 10.762 3.527 15.148h.226c1.266-3.617 2.442-8.592 3.527-15.013q.069-.678.407-.95c.227-.18.588-.27 1.04-.27h4.161c.497 0 .859.135 1.04.316.181.18.226.542.181 1.04M9.918 124.334h-.446c-2.6 0-4.866-.334-6.798-1.04-.817-.26-1.188-.743-1.04-1.486l.483-3.008c.075-.743.52-1.003 1.3-.743 2.155.78 4.16 1.151 5.944 1.151h.185c1.115 0 1.932-.148 2.415-.483.445-.297.705-.854.705-1.634v-.371c0-.743-.222-1.226-.594-1.523-.408-.26-1.188-.52-2.34-.743l-2.526-.483c-2.08-.372-3.566-1.115-4.383-2.155-.854-1.04-1.263-2.488-1.263-4.383v-1.04c0-2.08.557-3.64 1.672-4.754 1.337-1.338 3.826-2.006 7.392-2.006h.26c2.488 0 4.605.334 6.314.966.372.148.632.371.743.594.074.26.074.631-.037 1.077l-.632 2.712c-.148.668-.631.891-1.374.631q-2.563-.78-4.903-.78h-.149c-1.225 0-2.08.149-2.526.409-.482.297-.705.78-.705 1.448v.335c0 .594.148 1.04.483 1.263.297.26.965.483 1.931.668l2.823.557c2.229.446 3.752 1.152 4.606 2.043.817.892 1.263 2.452 1.263 4.644v.891c0 2.526-.706 4.346-2.08 5.497-1.374 1.189-3.603 1.746-6.723 1.746m16.678-16.938c1.3-1.263 3.157-1.931 5.534-1.931h.334c2.303 0 3.938.668 4.94 1.931.892 1.189 1.338 3.195 1.338 6.092v2.786c0 1.56-.149 2.86-.371 3.826-.26.966-.706 1.783-1.338 2.414-1.263 1.226-2.971 1.82-5.2 1.82h-.409q-2.117 0-3.454-.78v5.721c0 .557-.111.928-.297 1.077-.223.148-.632.223-1.263.223h-2.823c-.632 0-1.04-.075-1.263-.26-.223-.149-.297-.52-.297-1.04v-22.287c0-.446.074-.743.297-.929.186-.149.52-.26 1.003-.26h1.56c.446 0 .78.074.966.149.148.111.297.334.408.631l.26.817zm1.374 5.275v4.754c0 .855.149 1.449.52 1.783.334.335.891.483 1.671.483h.335c.854 0 1.448-.223 1.82-.743q.446-.668.446-3.231v-1.598c0-1.783-.149-2.897-.446-3.305-.372-.446-.966-.669-1.857-.669h-.26c-.818 0-1.375.186-1.746.557-.334.334-.483 1.003-.483 1.969m19.357.78v2.897c0 1.449.223 2.377.669 2.823.334.372.854.52 1.56.52h.149c.668 0 1.188-.148 1.56-.52.446-.446.668-1.374.668-2.823v-2.897c0-1.412-.222-2.377-.668-2.823-.372-.335-.892-.52-1.56-.52h-.149c-.706 0-1.226.185-1.56.52-.446.446-.669 1.411-.669 2.823m10.587.223v2.414c0 1.857-.186 3.269-.558 4.309-.37 1.04-.965 1.857-1.782 2.489-1.226.965-3.12 1.448-5.72 1.448h-.447c-2.6 0-4.531-.483-5.72-1.448-.817-.632-1.411-1.449-1.783-2.489s-.557-2.452-.557-4.309v-2.377c0-1.82.186-3.232.557-4.272a5.6 5.6 0 0 1 1.783-2.526c1.189-.965 3.12-1.448 5.72-1.448h.446c2.6 0 4.495.483 5.72 1.448a5.7 5.7 0 0 1 1.783 2.489c.372 1.04.558 2.452.558 4.272m14.807 6.834v2.118c0 .557-.112.928-.26 1.114s-.483.26-.929.26H68.56c-2.674 0-4.457-.446-5.274-1.374-.743-.78-1.077-2.266-1.077-4.495v-7.689h-2.006c-.372 0-.595-.037-.743-.186-.149-.148-.186-.371-.186-.743v-1.894c0-.446.037-.743.186-.891.111-.149.371-.26.78-.372l1.969-.483v-3.64c0-.371.074-.631.26-.817.185-.149.52-.26 1.002-.26h3.418c.446 0 .78.111.966.26.185.186.297.446.297.817v3.566h3.083c.371 0 .594.074.743.223.148.148.223.408.223.854v2.489q0 .669-.223.891c-.149.149-.372.186-.743.186h-3.083v7.02c0 .669.074 1.078.297 1.301.223.26.706.371 1.449.371h1.634c.446 0 .78.111.929.297.148.186.26.557.26 1.077m8.828-13.632v16.047c0 .371-.112.668-.297.817-.186.186-.52.26-.966.26h-3.417c-.483 0-.817-.074-1.003-.26-.186-.149-.26-.446-.26-.817v-16.047c0-.371.074-.631.26-.817.186-.149.52-.26 1.003-.26h3.417c.446 0 .78.111.966.26.186.186.297.446.297.817m-2.749-2.489h-.445c-2.006 0-3.01-1.002-3.01-3.083v-.185c0-2.043 1.004-3.083 3.01-3.083h.445c2.006 0 3.009 1.04 3.009 3.083v.185c0 2.081-1.003 3.083-3.009 3.083m7.712 6.055h-2.005c-.372 0-.632-.037-.743-.149-.149-.111-.186-.371-.186-.78v-1.82c0-.445.037-.78.149-.928s.371-.297.817-.409l1.968-.483v-1.597c0-2.08.483-3.566 1.486-4.42q1.56-1.337 4.903-1.337h.372c1.486 0 2.749.148 3.863.408.371.112.631.26.743.446.074.186.111.483.074.891l-.223 2.34c-.074.372-.148.595-.26.669-.148.074-.408.112-.817.074-.966-.074-1.634-.148-2.08-.148h-.223c-.817 0-1.3.111-1.523.334-.26.26-.371.706-.371 1.3v.966h3.083c.371 0 .594.074.743.223.148.148.222.408.222.854v2.489q0 .669-.222.891c-.149.149-.372.186-.743.186h-3.083v12.481c0 .371-.112.668-.297.817-.186.186-.52.26-.966.26h-3.418c-.483 0-.817-.074-1.003-.26-.185-.149-.26-.446-.26-.817zm28.529-3.529c-.52 3.492-1.486 7.355-2.898 11.627-1.448 4.271-3.194 8.32-5.237 12.109-.26.52-.594.78-1.04.78-.297 0-.632-.074-1.077-.297l-1.895-.817c-.668-.298-.966-.595-.966-.929 0-.149.038-.371.186-.631 1.263-2.563 2.006-4.049 2.155-4.458-1.04-.371-1.82-1.188-2.415-2.526-.668-1.486-1.448-3.751-2.303-6.872q-1.282-4.68-1.894-8.023c-.075-.371-.037-.631.148-.817.186-.149.52-.26.966-.26h3.38c.409 0 .706.074.892.186.186.111.334.334.408.705.855 4.681 1.821 8.841 2.898 12.444h.185c1.041-2.972 2.006-7.058 2.898-12.332q.055-.558.334-.78c.186-.149.483-.223.854-.223h3.418c.408 0 .706.111.854.26s.186.446.149.854m19.36-2.266h-.483c-.52 0-1.04.038-1.634.075-.223.037-.297.185-.297.445v5.869h1.931c1.338 0 2.229-.185 2.749-.631.446-.372.669-1.077.669-2.192v-.928c0-.892-.223-1.56-.632-1.969-.445-.446-1.225-.669-2.303-.669m-2.414 11.478v6.724c0 .78-.446 1.151-1.3 1.151h-3.64c-.483 0-.818-.074-1.003-.26-.223-.149-.297-.446-.297-.891V101.49q0-.891.334-1.226c.223-.223.631-.371 1.3-.445 1.337-.112 3.417-.186 6.277-.186h.446c3.789 0 6.389.743 7.838 2.191 1.114 1.189 1.671 2.972 1.671 5.386v1.263c0 2.786-.78 4.755-2.34 5.869-1.634 1.189-4.123 1.783-7.503 1.783zm19.032-8.32h.112c.817-1.337 2.191-2.006 4.16-2.006h1.486c.371 0 .668.074.817.223.149.148.26.408.26.817v2.712c0 .408-.074.668-.223.817q-.222.222-.78.223h-1.114c-1.375 0-2.303.26-2.823.78-.446.445-.632 1.3-.632 2.563v8.989c0 .371-.111.668-.297.817-.186.186-.52.26-.966.26h-3.417c-.483 0-.817-.074-1.003-.26-.186-.149-.26-.446-.26-.817v-16.084c0-.371.074-.631.26-.78s.52-.26 1.003-.26h1.783c.409 0 .706.074.891.186q.28.222.446.668zm17.727 11.738h.409c1.263 0 2.6-.149 3.937-.483.372-.075.595-.112.706-.112.371 0 .594.223.669.632l.297 1.857c.074.52.148.854.148 1.003 0 .446-.334.78-.965 1.003-1.709.594-3.604.891-5.609.891h-.706q-4.569 0-6.463-1.894a5.33 5.33 0 0 1-1.486-2.526c-.26-.966-.372-2.266-.372-3.863v-2.08c0-3.232.743-5.498 2.229-6.835 1.263-1.114 3.195-1.671 5.832-1.671h.52c2.6 0 4.494.631 5.609 1.857 1.188 1.337 1.783 3.529 1.783 6.649v1.931c0 .706-.372 1.04-1.077 1.04h-8.915v.298c0 .891.223 1.485.743 1.82.483.334 1.374.483 2.711.483m-3.454-6.464h4.086c.297 0 .445-.148.445-.483v-.594c0-.743-.148-1.3-.371-1.709-.297-.445-.891-.668-1.709-.668h-.334c-.743 0-1.263.186-1.56.52q-.558.668-.557 2.006zm29.197-.668v10.512c0 .371-.112.668-.298.817-.185.186-.52.26-.965.26h-3.418c-.483 0-.817-.074-1.003-.26-.185-.149-.26-.446-.26-.817v-10.512c0-.817-.148-1.412-.408-1.709-.297-.297-.855-.483-1.635-.483h-.074c-.817 0-1.337.186-1.634.483s-.409.892-.409 1.709v10.512c0 .371-.111.668-.297.817-.186.186-.52.26-.966.26h-3.417c-.483 0-.817-.074-1.003-.26-.186-.149-.26-.446-.26-.817v-16.084c0-.371.074-.631.26-.78s.52-.26 1.003-.26h1.746c.445 0 .743.074.928.186q.28.167.446.668l.223.706h.111c1.189-1.263 2.861-1.894 5.089-1.894h.149c2.117 0 3.751.594 4.903 1.708 1.189-1.114 2.897-1.708 5.052-1.708h.148c2.155 0 3.752.52 4.718 1.523.891.965 1.374 2.6 1.374 4.903v11.032c0 .371-.111.668-.297.817-.186.186-.52.26-.966.26h-3.417c-.483 0-.817-.074-1.003-.26-.186-.149-.26-.446-.26-.817v-10.512c0-.817-.149-1.412-.409-1.709-.297-.297-.854-.483-1.634-.483h-.074c-.818 0-1.338.186-1.635.483s-.408.892-.408 1.709m19.643-5.535v16.047c0 .371-.112.668-.297.817-.186.186-.52.26-.966.26h-3.417c-.483 0-.818-.074-1.003-.26-.186-.149-.26-.446-.26-.817v-16.047c0-.371.074-.631.26-.817.185-.149.52-.26 1.003-.26h3.417c.446 0 .78.111.966.26.185.186.297.446.297.817m-2.749-2.489h-.446c-2.005 0-3.008-1.002-3.008-3.083v-.185c0-2.043 1.003-3.083 3.008-3.083h.446c2.006 0 3.009 1.04 3.009 3.083v.185c0 2.081-1.003 3.083-3.009 3.083m16.367 12.964v-10.475c0-.371.075-.631.26-.817.186-.149.52-.26 1.003-.26h3.417c.446 0 .781.111.966.26.186.186.297.446.297.817v10.995q0 3.399-1.671 4.903c-1.189 1.04-3.269 1.56-6.315 1.56s-5.163-.52-6.314-1.56q-1.672-1.504-1.672-4.903v-10.995c0-.371.074-.631.26-.817.186-.149.52-.26 1.003-.26h3.417c.446 0 .78.111.966.26.186.186.297.446.297.817v10.475c0 .854.112 1.412.409 1.709.297.334.817.483 1.634.483.78 0 1.337-.149 1.635-.483.26-.297.408-.855.408-1.709m25.503-4.94v10.512c0 .371-.111.668-.297.817-.186.186-.52.26-.966.26h-3.417c-.483 0-.817-.074-1.003-.26-.186-.149-.26-.446-.26-.817v-10.512c0-.817-.149-1.412-.409-1.709-.297-.297-.854-.483-1.634-.483h-.074c-.817 0-1.338.186-1.635.483s-.408.892-.408 1.709v10.512c0 .371-.112.668-.297.817-.186.186-.52.26-.966.26h-3.418c-.482 0-.817-.074-1.002-.26-.186-.149-.26-.446-.26-.817v-16.084c0-.371.074-.631.26-.78.185-.149.52-.26 1.002-.26h1.746c.446 0 .743.074.929.186q.278.167.446.668l.223.706h.111c1.189-1.263 2.86-1.894 5.089-1.894h.148c2.118 0 3.752.594 4.904 1.708 1.188-1.114 2.897-1.708 5.051-1.708h.149c2.154 0 3.751.52 4.717 1.523.892.965 1.375 2.6 1.375 4.903v11.032c0 .371-.112.668-.298.817-.185.186-.52.26-.965.26h-3.418c-.483 0-.817-.074-1.003-.26-.185-.149-.26-.446-.26-.817v-10.512c0-.817-.148-1.412-.408-1.709-.297-.297-.855-.483-1.635-.483h-.074c-.817 0-1.337.186-1.634.483s-.409.892-.409 1.709m-243.15 50.88H9.101c-5.275 0-7.875-2.377-7.875-7.169v-2.488c0-2.452.631-4.235 1.931-5.424 1.263-1.151 3.232-1.745 5.832-1.745h.52c.483-2.675 2.452-4.049 5.943-4.049h1.82c.372 0 .595.074.743.186.112.148.186.408.186.78v2.043c0 .371-.074.594-.223.705-.148.149-.408.186-.743.186H15.49c-.818 0-1.375.186-1.71.557 2.787.743 4.198 3.009 4.198 6.761v2.488c0 2.675-.743 4.458-2.191 5.424.965.52 1.708 1.188 2.265 2.005.558.818.855 1.709.855 2.638v.26c0 3.677-2.935 5.497-8.73 5.497h-.705c-2.526 0-4.977-.446-7.28-1.337-.67-.223-.93-.706-.743-1.412l.668-2.377c.186-.706.632-.966 1.337-.743 2.192.743 4.124 1.077 5.832 1.077h.52q3.232 0 3.232-1.894v-.111c0-.706-.372-1.338-1.114-1.932-.595.074-1.226.074-1.82.074m-.631-4.643h.26c.817 0 1.374-.148 1.746-.52.408-.408.631-1.263.631-2.526v-1.448c0-1.263-.223-2.08-.631-2.526-.372-.335-.929-.52-1.746-.52h-.26c-.817 0-1.412.185-1.746.52-.446.446-.631 1.263-.631 2.526v1.448c0 1.263.185 2.118.631 2.526.334.372.929.52 1.746.52m16.51-9.843h.11c.818-1.337 2.193-2.006 4.161-2.006h1.486c.371 0 .669.074.817.223.149.148.26.408.26.817v2.712c0 .408-.074.668-.223.817q-.222.223-.78.223H30.7c-1.375 0-2.303.26-2.823.78-.446.445-.632 1.3-.632 2.563v8.989c0 .371-.111.668-.297.817-.185.186-.52.26-.965.26h-3.418c-.483 0-.817-.074-1.003-.26-.186-.149-.26-.446-.26-.817v-16.084c0-.371.075-.631.26-.78.186-.149.52-.26 1.003-.26h1.783c.409 0 .706.074.892.186q.278.222.445.668zm19.185 14.672h-.074c-.817 1.263-2.451 1.857-4.866 1.857h-.557c-1.894 0-3.38-.483-4.42-1.448-1.078-.966-1.597-2.415-1.597-4.272v-.409c0-2.005.557-3.454 1.708-4.271 1.152-.817 3.009-1.226 5.61-1.226h.26c.965 0 1.856.074 2.6.148v-.78c0-.78-.224-1.337-.632-1.634-.446-.26-1.189-.409-2.229-.409-1.263 0-2.674.223-4.309.632-.446.111-.78.111-.928 0-.186-.111-.297-.334-.335-.706l-.297-1.968c-.074-.335-.074-.595-.074-.743 0-.446.297-.78.891-.966 1.895-.52 4.012-.817 6.352-.817 2.86 0 4.903.631 6.092 1.82.928.966 1.411 2.526 1.411 4.643v11.032c0 .371-.111.669-.297.817-.185.149-.52.223-.965.223h-1.746c-.446 0-.743-.037-.929-.149s-.334-.334-.446-.705zm-1.337-4.755v-1.04q-.613-.111-1.783-.111h-.408q-1.338 0-1.895.334c-.371.223-.52.669-.52 1.338v.148c0 .669.149 1.114.52 1.337.335.26.855.372 1.56.372h.26c.743 0 1.3-.186 1.746-.557.334-.298.52-.929.52-1.821m21.092 2.786v2.118c0 .557-.112.928-.26 1.114s-.483.26-.929.26h-2.972c-2.674 0-4.457-.446-5.274-1.374-.743-.78-1.077-2.266-1.077-4.495v-7.689h-2.006c-.372 0-.595-.037-.743-.186-.149-.148-.186-.371-.186-.743v-1.894c0-.446.037-.743.186-.891.111-.149.371-.26.78-.372l1.969-.483v-3.64c0-.371.074-.631.26-.817.185-.149.52-.26 1.002-.26h3.418c.446 0 .78.111.966.26.185.186.297.446.297.817v3.566h3.083c.371 0 .594.074.743.223.148.148.223.408.223.854v2.489q0 .669-.223.891c-.149.149-.372.186-.743.186h-3.083v7.02c0 .669.074 1.078.297 1.301.223.26.706.371 1.449.371h1.634c.446 0 .78.111.929.297.148.186.26.557.26 1.077m8.828-13.632v16.047c0 .371-.112.668-.297.817-.186.186-.52.26-.966.26H69.07c-.483 0-.817-.074-1.003-.26-.186-.149-.26-.446-.26-.817v-16.047c0-.371.074-.631.26-.817.186-.149.52-.26 1.003-.26h3.417c.446 0 .78.111.966.26.185.186.297.446.297.817m-2.749-2.489h-.446c-2.005 0-3.008-1.002-3.008-3.083v-.185c0-2.043 1.003-3.083 3.008-3.083h.446c2.006 0 3.009 1.04 3.009 3.083v.185c0 2.081-1.003 3.083-3.009 3.083m6.115 7.392v-.483c0-1.82.483-3.194 1.449-4.16 1.114-1.114 3.009-1.671 5.646-1.671h.371c2.08 0 3.9.223 5.424.668q.445.167.557.335c.074.148.111.334.074.631l-.409 3.046c-.074.483-.408.631-1.002.483-1.486-.335-2.823-.52-3.938-.52h-.037c-.817 0-1.412.074-1.709.223-.334.148-.483.408-.483.78v.111c0 .372.112.632.409.78s.854.334 1.709.483l1.745.371c1.598.372 2.75.929 3.418 1.672s1.003 1.894 1.003 3.417v.558c0 3.9-2.452 5.831-7.28 5.831h-.372c-2.452 0-4.495-.334-6.203-1.003-.335-.111-.558-.26-.632-.445-.074-.149-.074-.446 0-.855l.52-2.451c.112-.706.52-.929 1.263-.706 1.709.594 3.195.854 4.458.854h.111c.817 0 1.374-.074 1.709-.26.297-.148.483-.445.483-.854v-.111a.8.8 0 0 0-.409-.706q-.445-.224-1.783-.557l-1.634-.372q-2.452-.556-3.455-1.671c-.668-.743-1.003-1.858-1.003-3.418"/></svg>