<svg xmlns="http://www.w3.org/2000/svg" fill="none" viewBox="0 0 728 90"><rect width="728" height="90" fill="#999"/><path fill="#fff" d="M80.117 41v-1.758l6.281-7.14h-6v-1.774h8.422v1.774l-6.164 7.14h6.29V41zm10.578-2.945v-4.563h1.883v4.547q0 .72.39 1.117.4.39 1.024.39.383 0 .719-.148.336-.156.57-.43.243-.273.375-.632.14-.36.14-.773v-4.07h1.891V41h-1.812l-.047-.852q-.14.157-.351.336-.212.18-.485.336-.266.15-.617.242a3.1 3.1 0 0 1-.805.094q-1.405 0-2.14-.836-.735-.843-.735-2.265M102.617 41V30.328h3.539q1.008 0 1.711.305.704.304 1.133.781.438.469.633 1.031.203.555.203 1.07 0 1.008-.445 1.782-.438.774-1.344 1.242L110.508 41h-2.274l-2.156-4.21h-1.523V41zm1.938-5.875h1.617q.765 0 1.187-.445.43-.446.43-1.086 0-.688-.453-1.117-.445-.438-1.164-.438h-1.617zm7.265-2.812v-1.985h2.016v1.985zm.063 8.687v-7.508h1.89V41zm3.461-.914 1.133-1.227q.351.352.882.586.54.227 1.227.227.61 0 .976-.156.368-.165.368-.532 0-.156-.063-.289-.062-.14-.273-.265a2.6 2.6 0 0 0-.571-.258 9 9 0 0 0-.992-.274 6.5 6.5 0 0 1-.804-.257 3.3 3.3 0 0 1-.774-.438 2.5 2.5 0 0 1-.594-.672 1.87 1.87 0 0 1-.226-.937q0-.563.265-1 .275-.445.711-.735a3.5 3.5 0 0 1 .993-.453q.554-.165 1.117-.164.992 0 1.687.211.696.203 1.258.617l-.976 1.328a3.2 3.2 0 0 0-.805-.406q-.492-.187-1.164-.187t-.938.203-.265.484q0 .353.437.555.445.203 1.375.422.578.125 1.031.32.453.196.782.484.327.29.5.68.179.39.179.938 0 .546-.258.984-.25.439-.695.742-.437.305-1.023.469a4.4 4.4 0 0 1-1.242.172q-1.055 0-1.907-.297-.844-.297-1.351-.875m8.023-7.773v-1.985h2.016v1.985zM123.43 41v-7.508h1.89V41zm3.828 0V30.328h1.883v5.82l2.711-2.656h2.218l-2.812 2.774L134.391 41h-2.258l-2.172-3.453-.82.797V41zm7.836-3.844q0-.828.273-1.539a3.8 3.8 0 0 1 .781-1.234 3.7 3.7 0 0 1 2.75-1.14q1.024 0 1.735.374.711.375 1.14.985.438.609.625 1.375a6.3 6.3 0 0 1 .196 1.57v.266h-5.602q0 .414.188.757.188.336.476.578.297.236.672.368.383.125.75.125.547 0 .953-.102.406-.11.688-.242a2.6 2.6 0 0 0 .758-.54l1.023 1.157-.266.266q-.21.21-.625.453-.405.241-1.039.43-.632.195-1.508.195a4.2 4.2 0 0 1-1.632-.305 3.8 3.8 0 0 1-1.258-.836 3.7 3.7 0 0 1-.805-1.289 4.9 4.9 0 0 1-.273-1.672m1.883-.703h3.679a1.6 1.6 0 0 0-.109-.57 1.6 1.6 0 0 0-.328-.524 1.7 1.7 0 0 0-.555-.382 1.8 1.8 0 0 0-.766-.157q-.46 0-.82.157-.359.148-.601.382-.243.235-.375.524a1.4 1.4 0 0 0-.125.57M144.055 41v-7.508h1.804l.047.852q.141-.156.344-.336t.484-.328q.282-.15.633-.242.352-.102.797-.102 1.406 0 2.141.844.741.836.742 2.258V41h-1.891v-4.547q0-.718-.39-1.11-.391-.39-1.016-.39-.383 0-.719.156-.335.15-.578.422a2 2 0 0 0-.383.633q-.132.36-.132.773V41zm11.672-2.945v-4.563h1.882v4.547q0 .72.391 1.117.399.39 1.023.39.383 0 .719-.148.336-.156.57-.43a2 2 0 0 0 .376-.632q.14-.36.14-.773v-4.07h1.891V41h-1.813l-.047-.852a4 4 0 0 1-.351.336q-.211.18-.485.336a2.7 2.7 0 0 1-.617.242 3.1 3.1 0 0 1-.804.094q-1.406 0-2.141-.836-.734-.843-.734-2.265M164.57 41v-7.508h1.805l.047.852q.14-.156.344-.336.202-.18.484-.328.281-.15.633-.242.351-.102.797-.102 1.406 0 2.14.844.742.836.742 2.258V41h-1.89v-4.547q0-.718-.391-1.11-.39-.39-1.015-.39-.383 0-.719.156-.336.15-.578.422a2 2 0 0 0-.383.633q-.133.36-.133.773V41zm8.461-3.617q0-.883.25-1.54.258-.663.641-1.132.32-.383.703-.64.39-.259.781-.423.391-.171.758-.242t.641-.07q.367 0 .609.023.243.024.43.063.195.038.351.11.165.061.367.14v-3.344h1.876V41h-1.829l-.047-.734q-.14.156-.351.336a2.7 2.7 0 0 1-.484.32 3.4 3.4 0 0 1-.625.234 2.7 2.7 0 0 1-.774.102q-.609 0-1.203-.258a3.25 3.25 0 0 1-1.063-.75 4 4 0 0 1-.75-1.219q-.28-.718-.281-1.648m1.899 0q0 .96.476 1.601.484.64 1.399.641.476 0 .812-.18.344-.188.547-.476.211-.29.305-.633.093-.344.093-.664v-2.305a1.54 1.54 0 0 0-.632-.312 4 4 0 0 0-.914-.086q-.562 0-.93.218-.367.212-.641.563a2.6 2.6 0 0 0-.383.75 3 3 0 0 0-.132.883M185.367 41V30.328h2.031l5.172 7.586v-7.586h1.969V41h-1.984l-5.219-7.68V41zm10.867-3.844q0-.828.274-1.539.281-.71.781-1.234.509-.531 1.203-.836a3.85 3.85 0 0 1 1.547-.305q1.023 0 1.734.375t1.141.985q.438.609.625 1.375.195.765.195 1.57v.266h-5.601q0 .414.187.757.188.336.477.578.297.236.672.368.383.125.75.125.546 0 .953-.102.406-.11.687-.242a2.6 2.6 0 0 0 .758-.54l1.024 1.157-.266.266q-.211.21-.625.453a4.6 4.6 0 0 1-1.039.43q-.633.195-1.508.195a4.2 4.2 0 0 1-1.633-.305 3.8 3.8 0 0 1-1.258-.836 3.7 3.7 0 0 1-.804-1.289 4.9 4.9 0 0 1-.274-1.672m1.883-.703h3.68a1.6 1.6 0 0 0-.109-.57 1.6 1.6 0 0 0-.329-.524 1.7 1.7 0 0 0-.554-.382 1.8 1.8 0 0 0-.766-.157q-.461 0-.82.157-.36.148-.602.382t-.375.524a1.4 1.4 0 0 0-.125.57m7.078 4.305v-10.43h1.883v3.68q.195-.196.734-.43.547-.242 1.321-.242.812 0 1.445.305.633.304 1.078.82.453.508.68 1.21.234.704.234 1.485a4.3 4.3 0 0 1-.297 1.594 3.8 3.8 0 0 1-.851 1.297q-.547.555-1.336.883-.781.328-1.758.328a9.3 9.3 0 0 1-1.805-.164 9.4 9.4 0 0 1-1.328-.336m1.883-1.297q.226.078.469.125.242.039.75.039a2.4 2.4 0 0 0 1.008-.195q.43-.203.734-.54.305-.335.453-.773.156-.445.156-.906 0-.43-.101-.828a2.1 2.1 0 0 0-.328-.719 1.6 1.6 0 0 0-.571-.492 1.7 1.7 0 0 0-.82-.188q-.867 0-1.312.446-.438.436-.438 1.203zm6.641-2.305q0-.828.273-1.539a3.8 3.8 0 0 1 .781-1.234 3.7 3.7 0 0 1 2.75-1.14q1.024 0 1.735.374.711.375 1.14.985.438.609.625 1.375a6.3 6.3 0 0 1 .196 1.57v.266h-5.602q0 .414.188.757.188.336.476.578.297.236.672.368.383.125.75.125.547 0 .953-.102.406-.11.688-.242a2.6 2.6 0 0 0 .758-.54l1.023 1.157-.266.266q-.21.21-.625.453-.405.241-1.039.43-.633.195-1.507.195a4.2 4.2 0 0 1-1.633-.305 3.8 3.8 0 0 1-1.258-.836 3.7 3.7 0 0 1-.805-1.289 4.9 4.9 0 0 1-.273-1.672m1.883-.703h3.679a1.6 1.6 0 0 0-.109-.57 1.6 1.6 0 0 0-.328-.524 1.7 1.7 0 0 0-.555-.382 1.8 1.8 0 0 0-.766-.157q-.46 0-.82.157-.359.148-.601.382-.243.235-.375.524a1.4 1.4 0 0 0-.125.57M222.68 41v-7.508h1.804l.047.852q.141-.156.344-.336t.484-.328q.282-.15.633-.242.352-.102.797-.102 1.406 0 2.141.844.741.836.742 2.258V41h-1.891v-4.547q0-.718-.39-1.11-.391-.39-1.016-.39-.383 0-.719.156-.335.15-.578.422a2 2 0 0 0-.383.633q-.132.36-.133.773V41zm8.023-7.508h2.086l1.438 5.219 1.585-5.219h1.579l1.601 5.219 1.43-5.219h1.984L239.859 41h-1.828l-1.531-4.531L235.008 41h-1.758zm12.789-1.18v-1.984h2.016v1.985zm.063 8.688v-7.508h1.89V41zm3.828 0v-7.508h1.805l.046.946q.126-.158.328-.344a2.4 2.4 0 0 1 .477-.352q.273-.165.633-.281.359-.117.82-.11.273 0 .485.032.218.03.445.11l-.383 1.78a2.432 2.432 0 0 0-.867-.148q-.383 0-.734.133a1.7 1.7 0 0 0-.61.367q-.258.242-.414.578a1.8 1.8 0 0 0-.148.75V41zm6.109 0V30.328h1.883v5.82l2.711-2.656h2.219l-2.813 2.774L260.625 41h-2.258l-2.172-3.453-.82.797V41zm8.156-2.945v-4.563h1.883v4.547q0 .72.391 1.117.399.39 1.023.39.383 0 .719-.148.336-.156.57-.43a2 2 0 0 0 .375-.632q.141-.36.141-.773v-4.07h1.891V41h-1.813l-.047-.852a4 4 0 0 1-.351.336q-.211.18-.485.336-.266.15-.617.242a3.1 3.1 0 0 1-.805.094q-1.406 0-2.14-.836-.735-.843-.735-2.265M270.492 41v-7.508h1.805l.047.852q.14-.156.344-.336.202-.18.484-.328.28-.15.633-.242.351-.102.797-.102 1.406 0 2.14.844.742.836.742 2.258V41h-1.89v-4.547q0-.718-.391-1.11-.39-.39-1.015-.39-.384 0-.719.156-.336.15-.578.422a2 2 0 0 0-.383.633q-.133.36-.133.773V41zm8.461-3.648q0-.828.297-1.563.297-.742.844-1.281.555-.547 1.336-.86a4.7 4.7 0 0 1 1.758-.312q.977 0 1.796.164.828.156 1.344.328v7.297q0 .78-.273 1.39a2.9 2.9 0 0 1-.758 1.024 3.1 3.1 0 0 1-1.133.633 4.5 4.5 0 0 1-1.422.219 9 9 0 0 1-1.047-.055 5.6 5.6 0 0 1-.82-.156 3.61 3.61 0 0 1-1.203-.57l.844-1.391q.444.305.968.437.523.133 1.227.133.734 0 1.227-.445.5-.446.5-1.25v-.813a3.5 3.5 0 0 1-.844.524q-.453.195-1.203.195-.813 0-1.446-.273a3.2 3.2 0 0 1-1.086-.758 3.4 3.4 0 0 1-.679-1.157 4.5 4.5 0 0 1-.227-1.46m1.914-.047q0 .867.43 1.46.438.587 1.398.587.867 0 1.305-.368.438-.366.438-1.172v-2.687a3 3 0 0 0-.469-.117 5 5 0 0 0-.742-.04q-.578 0-1.016.196a2.2 2.2 0 0 0-.734.508 2.1 2.1 0 0 0-.461.75 2.6 2.6 0 0 0-.149.883m6.961-.149q0-.828.274-1.539.28-.71.781-1.234a3.7 3.7 0 0 1 1.203-.836 3.85 3.85 0 0 1 1.547-.305q1.023 0 1.734.375.71.375 1.141.985.437.609.625 1.375.195.765.195 1.57v.266h-5.601q0 .414.187.757.188.336.477.578.296.236.671.368.384.125.75.125.548 0 .954-.102.406-.11.687-.242a2.6 2.6 0 0 0 .758-.54l1.023 1.157-.265.266q-.211.21-.625.453a4.6 4.6 0 0 1-1.039.43q-.633.195-1.508.195a4.2 4.2 0 0 1-1.633-.305 3.8 3.8 0 0 1-1.258-.836 3.7 3.7 0 0 1-.804-1.289 4.9 4.9 0 0 1-.274-1.672m1.883-.703h3.68a1.6 1.6 0 0 0-.11-.57 1.6 1.6 0 0 0-.328-.524 1.7 1.7 0 0 0-.555-.382 1.8 1.8 0 0 0-.765-.157q-.46 0-.821.157-.359.148-.601.382-.243.235-.375.524a1.4 1.4 0 0 0-.125.57M296.789 41v-7.508h1.805l.047.852q.14-.156.343-.336t.485-.328q.28-.15.633-.242.351-.102.796-.102 1.407 0 2.141.844.742.836.742 2.258V41h-1.89v-4.547q0-.718-.391-1.11-.39-.39-1.016-.39a1.7 1.7 0 0 0-.718.156q-.336.15-.578.422-.243.266-.383.633-.133.36-.133.773V41zm11.703 0V30.328h1.883V41zm3.399-3.844q0-.828.273-1.539a3.8 3.8 0 0 1 .781-1.234q.509-.531 1.203-.836a3.85 3.85 0 0 1 1.547-.305q1.024 0 1.735.375t1.14.985q.438.609.625 1.375a6.3 6.3 0 0 1 .196 1.57v.266h-5.602q0 .414.188.757.187.336.476.578.297.236.672.368.382.125.75.125.547 0 .953-.102.406-.11.688-.242a2.6 2.6 0 0 0 .757-.54l1.024 1.157-.266.266q-.21.21-.625.453a4.6 4.6 0 0 1-1.039.43q-.632.195-1.508.195a4.2 4.2 0 0 1-1.632-.305 3.8 3.8 0 0 1-1.258-.836 3.7 3.7 0 0 1-.805-1.289 4.9 4.9 0 0 1-.273-1.672m1.882-.703h3.68a1.6 1.6 0 0 0-.109-.57 1.6 1.6 0 0 0-.883-.906 1.8 1.8 0 0 0-.766-.157q-.46 0-.82.157-.36.148-.602.382t-.375.524a1.4 1.4 0 0 0-.125.57m6.711 3.633 1.133-1.227q.352.352.883.586.538.227 1.227.227.609 0 .976-.156.367-.165.367-.532a.7.7 0 0 0-.062-.289q-.063-.14-.274-.265a2.6 2.6 0 0 0-.57-.258 9 9 0 0 0-.992-.274 6.5 6.5 0 0 1-.805-.257 3.2 3.2 0 0 1-.773-.438 2.4 2.4 0 0 1-.594-.672 1.87 1.87 0 0 1-.227-.937q0-.563.266-1 .273-.445.711-.735.446-.297.992-.453.555-.165 1.117-.164.993 0 1.688.211.695.203 1.258.617l-.977 1.328a3.1 3.1 0 0 0-.805-.406q-.492-.187-1.164-.187t-.937.203q-.266.203-.266.484 0 .353.438.555.445.203 1.375.422.578.125 1.031.32.453.196.781.484.329.29.5.68.18.39.18.938 0 .546-.258.984-.25.439-.695.742-.438.305-1.024.469-.585.171-1.242.172-1.054 0-1.906-.297-.844-.297-1.352-.875m7.657-2.93q0-.828.273-1.539a3.8 3.8 0 0 1 .781-1.234q.509-.531 1.203-.836a3.85 3.85 0 0 1 1.547-.305q1.024 0 1.735.375t1.14.985q.438.609.625 1.375a6.3 6.3 0 0 1 .196 1.57v.266h-5.602q0 .414.188.757.187.336.476.578.297.236.672.368.382.125.75.125.547 0 .953-.102.406-.11.688-.242a2.6 2.6 0 0 0 .757-.54l1.024 1.157-.266.266q-.21.21-.625.453a4.6 4.6 0 0 1-1.039.43q-.632.195-1.508.195a4.2 4.2 0 0 1-1.632-.305 3.8 3.8 0 0 1-1.258-.836 3.7 3.7 0 0 1-.805-1.289 4.9 4.9 0 0 1-.273-1.672m1.882-.703h3.68a1.6 1.6 0 0 0-.109-.57 1.6 1.6 0 0 0-.883-.906 1.8 1.8 0 0 0-.766-.157q-.46 0-.82.157-.36.148-.602.382t-.375.524a1.4 1.4 0 0 0-.125.57M337.102 41v-7.508h1.804l.047.852q.14-.156.344-.336t.484-.328q.282-.15.633-.242.351-.102.797-.102 1.406 0 2.141.844.741.836.742 2.258V41h-1.891v-4.547q0-.718-.391-1.11-.39-.39-1.015-.39-.383 0-.719.156-.336.15-.578.422a2 2 0 0 0-.383.633q-.132.36-.133.773V41zm11.265-1.71 1.414-1.298q.195.227.453.477.266.242.594.46.329.212.734.36.407.14.922.14.946 0 1.399-.429a1.38 1.38 0 0 0 .453-1.04q0-.335-.125-.6a1.13 1.13 0 0 0-.43-.462 3.2 3.2 0 0 0-.797-.359 10 10 0 0 0-1.203-.305 4.2 4.2 0 0 1-1.273-.445 3.4 3.4 0 0 1-.891-.727 3 3 0 0 1-.531-.914 3.2 3.2 0 0 1 .047-2.195q.226-.555.687-.976a3.6 3.6 0 0 1 1.164-.68q.696-.258 1.641-.258.852 0 1.453.195a4.2 4.2 0 0 1 1.016.446q.414.257.633.508.226.241.328.359l-1.328 1.242a6 6 0 0 1-.258-.227 2.4 2.4 0 0 0-.446-.328 2.8 2.8 0 0 0-.632-.289 2.4 2.4 0 0 0-.829-.133q-.414 0-.718.118-.305.11-.508.289-.195.172-.297.39-.093.211-.094.407 0 .288.102.515.11.219.351.414.25.188.68.344.438.149 1.094.281.625.126 1.195.383.579.258 1.016.664.445.407.703.992.266.586.266 1.399 0 .703-.29 1.297a3.1 3.1 0 0 1-.796 1.039 3.7 3.7 0 0 1-1.219.695q-.703.25-1.531.25a5 5 0 0 1-1.446-.195 5.4 5.4 0 0 1-1.172-.485 5 5 0 0 1-.898-.648 7 7 0 0 1-.633-.672m9.938-6.977v-1.985h2.015v1.985zm.062 8.687v-7.508h1.891V41zm3.477-3.844q0-.828.273-1.539a3.8 3.8 0 0 1 .781-1.234 3.7 3.7 0 0 1 2.75-1.14q1.024 0 1.735.374.711.375 1.14.985.438.609.625 1.375a6.3 6.3 0 0 1 .196 1.57v.266h-5.602q0 .414.188.757.188.336.476.578.297.236.672.368.382.125.75.125.547 0 .953-.102.406-.11.688-.242a2.6 2.6 0 0 0 .758-.54l1.023 1.157-.266.266q-.21.21-.625.453-.405.241-1.039.43-.632.195-1.508.195a4.2 4.2 0 0 1-1.632-.305 3.8 3.8 0 0 1-1.258-.836 3.7 3.7 0 0 1-.805-1.289 4.9 4.9 0 0 1-.273-1.672m1.883-.703h3.679a1.6 1.6 0 0 0-.109-.57 1.6 1.6 0 0 0-.328-.524 1.7 1.7 0 0 0-.555-.382 1.8 1.8 0 0 0-.766-.157q-.46 0-.82.157-.359.148-.601.382-.243.235-.375.524a1.4 1.4 0 0 0-.125.57m9.617.93q0-.883.25-1.54.258-.663.64-1.132.32-.383.704-.64.39-.259.781-.423.39-.171.758-.242.367-.07.64-.07.367 0 .61.023.241.024.429.063.195.038.352.11.164.061.367.14v-3.344h1.875V41h-1.828l-.047-.734a4 4 0 0 1-.352.336 2.7 2.7 0 0 1-.484.32 3.4 3.4 0 0 1-.625.234 2.7 2.7 0 0 1-.773.102q-.61 0-1.203-.258a3.25 3.25 0 0 1-1.063-.75 4 4 0 0 1-.75-1.219q-.28-.718-.281-1.648m1.898 0q0 .96.477 1.601.484.64 1.398.641.477 0 .813-.18.343-.188.547-.476.21-.29.304-.633a2.5 2.5 0 0 0 .094-.664v-2.305a1.5 1.5 0 0 0-.633-.312 4 4 0 0 0-.914-.086q-.562 0-.93.218-.367.212-.64.563a2.5 2.5 0 0 0-.383.75 2.9 2.9 0 0 0-.133.883m7.375-5.07v-1.985h2.016v1.985zM382.68 41v-7.508h1.89V41zm3.476-3.844q0-.828.274-1.539.281-.71.781-1.234.508-.531 1.203-.836a3.85 3.85 0 0 1 1.547-.305q1.023 0 1.734.375.71.375 1.141.985.438.609.625 1.375.195.765.195 1.57v.266h-5.601q0 .414.187.757.188.336.477.578.297.236.672.368.382.125.75.125.546 0 .953-.102.406-.11.687-.242a2.6 2.6 0 0 0 .758-.54l1.023 1.157-.265.266q-.211.21-.625.453a4.6 4.6 0 0 1-1.039.43q-.633.195-1.508.195a4.2 4.2 0 0 1-1.633-.305 3.8 3.8 0 0 1-1.258-.836 3.7 3.7 0 0 1-.804-1.289 4.9 4.9 0 0 1-.274-1.672m1.883-.703h3.68a1.6 1.6 0 0 0-.11-.57 1.6 1.6 0 0 0-.328-.524 1.7 1.7 0 0 0-.554-.382 1.8 1.8 0 0 0-.766-.157q-.461 0-.82.157-.36.148-.602.382-.241.235-.375.524a1.4 1.4 0 0 0-.125.57M398.195 41V30.328h3.43q1.117 0 1.828.344t1.125.851q.422.5.578 1.079.165.578.164 1.054 0 .899-.32 1.54-.32.632-.836 1.046-.507.407-1.148.602a4.5 4.5 0 0 1-1.266.187h-1.617V41zm1.938-5.664h1.461q.765 0 1.218-.445.462-.453.461-1.172 0-.75-.484-1.219-.477-.477-1.195-.477h-1.461zm6.312 3.469q0-.641.243-1.14.242-.51.671-.852.43-.345 1.039-.516.61-.18 1.344-.18a18 18 0 0 1 1.024.031q.288.015.593.04v-.18q0-.563-.453-.883-.445-.32-1.164-.32-.797 0-1.281.21-.477.212-.844.446l-.867-1.273q.226-.157.516-.329.288-.172.672-.304.382-.141.882-.227a7 7 0 0 1 1.18-.086q.718 0 1.305.203.585.195 1 .555.414.36.64.867.227.5.227 1.094V41h-1.766l-.047-.703q-.305.367-.929.656-.626.29-1.391.29-.461 0-.922-.15a2.5 2.5 0 0 1-.828-.437 2.25 2.25 0 0 1-.609-.758 2.4 2.4 0 0 1-.235-1.093m1.813-.078q0 .476.344.75.343.273 1.015.273.336 0 .649-.11.312-.109.546-.304.243-.196.391-.445.156-.258.156-.547v-.735l-.562-.03a13 13 0 0 0-.891-.032q-.913 0-1.281.36-.367.358-.367.82m6.383-1.485q0-.811.297-1.539.296-.735.82-1.273a3.9 3.9 0 0 1 1.273-.867 4.1 4.1 0 0 1 1.641-.32q.914 0 1.664.327.75.329 1.281.883l-1.203 1.219a2.3 2.3 0 0 0-.75-.57 2.2 2.2 0 0 0-.992-.211q-.548 0-.945.203-.399.195-.665.515a2.2 2.2 0 0 0-.398.75q-.125.43-.125.883 0 .43.125.852.133.414.398.75.266.336.665.547.397.203.945.203a2.35 2.35 0 0 0 1.805-.805l1.125 1.219a4.1 4.1 0 0 1-1.25.898q-.72.336-1.68.336-.962 0-1.719-.289a3.5 3.5 0 0 1-1.265-.812 3.7 3.7 0 0 1-.782-1.266 4.8 4.8 0 0 1-.265-1.633M422.867 41V30.328h1.883v5.82l2.711-2.656h2.219l-2.813 2.774L430 41h-2.258l-2.172-3.453-.82.797V41zm8.156-2.945v-4.563h1.883v4.547q0 .72.391 1.117.398.39 1.023.39.383 0 .719-.148.336-.156.57-.43a2 2 0 0 0 .375-.632q.141-.36.141-.773v-4.07h1.891V41h-1.813l-.047-.852a4 4 0 0 1-.351.336q-.211.18-.485.336a2.7 2.7 0 0 1-.617.242 3.1 3.1 0 0 1-.805.094q-1.406 0-2.14-.836-.735-.843-.735-2.265M439.867 41v-7.508h1.805l.047.852q.14-.156.343-.336t.485-.328q.28-.15.633-.242.351-.102.797-.102 1.406 0 2.14.844.742.836.742 2.258V41h-1.89v-4.547q0-.718-.391-1.11-.39-.39-1.016-.39a1.7 1.7 0 0 0-.718.156q-.336.15-.578.422a2 2 0 0 0-.383.633q-.133.36-.133.773V41zm8.461-3.648q0-.828.297-1.563.297-.742.844-1.281.555-.547 1.336-.86a4.7 4.7 0 0 1 1.757-.312q.977 0 1.797.164.828.156 1.344.328v7.297q0 .78-.273 1.39a2.9 2.9 0 0 1-.758 1.024 3.1 3.1 0 0 1-1.133.633 4.5 4.5 0 0 1-1.422.219 9 9 0 0 1-1.047-.055 5.6 5.6 0 0 1-.82-.156 3.61 3.61 0 0 1-1.203-.57l.844-1.391q.445.305.968.437.523.133 1.227.133.735 0 1.226-.445.5-.446.5-1.25v-.813a3.5 3.5 0 0 1-.843.524q-.453.195-1.203.195-.813 0-1.446-.273a3.2 3.2 0 0 1-1.086-.758 3.4 3.4 0 0 1-.679-1.157 4.5 4.5 0 0 1-.227-1.46m1.914-.047q0 .867.43 1.46.438.587 1.398.587.867 0 1.305-.368.438-.366.437-1.172v-2.687a3 3 0 0 0-.468-.117 5 5 0 0 0-.742-.04q-.578 0-1.016.196a2.2 2.2 0 0 0-.734.508 2.1 2.1 0 0 0-.461.75 2.6 2.6 0 0 0-.149.883m6.946 2.78 1.132-1.226q.352.352.883.586.538.227 1.227.227.609 0 .976-.156.367-.165.367-.532 0-.156-.062-.289-.063-.14-.273-.265a2.6 2.6 0 0 0-.571-.258 9 9 0 0 0-.992-.274 7 7 0 0 1-.805-.257 3.2 3.2 0 0 1-.773-.438 2.4 2.4 0 0 1-.594-.672 1.87 1.87 0 0 1-.226-.937q0-.563.265-1 .273-.445.711-.735.446-.297.992-.453.555-.165 1.117-.164.992 0 1.688.211.696.203 1.258.617l-.977 1.328a3.1 3.1 0 0 0-.804-.406q-.493-.187-1.165-.187-.671 0-.937.203t-.266.484q0 .353.438.555.445.203 1.375.422.578.125 1.031.32.453.196.781.484.329.29.5.68.18.39.18.938 0 .546-.258.984-.25.439-.695.742-.438.305-1.023.469a4.4 4.4 0 0 1-1.243.172q-1.054 0-1.906-.297-.843-.297-1.351-.875m8.007.673v-10.43h1.883v3.68q.195-.196.734-.43.547-.242 1.321-.242.812 0 1.445.305.633.304 1.078.82.453.508.68 1.21.234.704.234 1.485a4.3 4.3 0 0 1-.297 1.594 3.8 3.8 0 0 1-.851 1.297q-.547.555-1.336.883-.782.328-1.758.328a9.3 9.3 0 0 1-1.805-.164 9.4 9.4 0 0 1-1.328-.336m1.883-1.297q.226.078.469.125.241.039.75.039a2.4 2.4 0 0 0 1.008-.195q.43-.203.734-.54.304-.335.453-.773.156-.445.156-.906 0-.43-.101-.828a2.1 2.1 0 0 0-.328-.719 1.6 1.6 0 0 0-.571-.492 1.7 1.7 0 0 0-.82-.188q-.867 0-1.312.446-.438.436-.438 1.203zm6.641-2.305q0-.828.273-1.539a3.8 3.8 0 0 1 .781-1.234 3.7 3.7 0 0 1 2.75-1.14q1.024 0 1.735.374.711.375 1.14.985.438.609.625 1.375a6.3 6.3 0 0 1 .196 1.57v.266h-5.602q0 .414.188.757.188.336.476.578.297.236.672.368.382.125.75.125.547 0 .953-.102.406-.11.688-.242a2.6 2.6 0 0 0 .758-.54l1.023 1.157-.266.266q-.21.21-.625.453-.405.241-1.039.43-.633.195-1.507.195a4.2 4.2 0 0 1-1.633-.305 3.8 3.8 0 0 1-1.258-.836 3.7 3.7 0 0 1-.805-1.289 4.9 4.9 0 0 1-.273-1.672m1.883-.703h3.679a1.6 1.6 0 0 0-.109-.57 1.6 1.6 0 0 0-.328-.524 1.7 1.7 0 0 0-.555-.382 1.8 1.8 0 0 0-.766-.157q-.46 0-.82.157-.359.148-.601.382-.243.235-.375.524a1.4 1.4 0 0 0-.125.57m7.093-4.14v-1.985h2.016v1.985zm.063 8.687v-7.508h1.89V41zm3.828 0V30.328h1.883V41zm3.266-2.195q0-.641.242-1.14.241-.51.672-.852.429-.345 1.039-.516.61-.18 1.343-.18a18 18 0 0 1 1.024.031q.289.015.594.04v-.18q0-.563-.454-.883-.444-.32-1.164-.32-.797 0-1.281.21-.477.212-.844.446l-.867-1.273q.226-.157.516-.329t.672-.304q.382-.141.883-.227a7 7 0 0 1 1.179-.086q.719 0 1.305.203.586.195 1 .555t.641.867q.226.5.226 1.094V41h-1.766l-.046-.703q-.305.367-.93.656t-1.391.29a3 3 0 0 1-.922-.15 2.5 2.5 0 0 1-.828-.437 2.25 2.25 0 0 1-.609-.758 2.4 2.4 0 0 1-.234-1.093m1.812-.078q0 .476.344.75.344.273 1.015.273.337 0 .649-.11.312-.109.547-.304.241-.196.39-.445.157-.258.157-.547v-.735l-.563-.03a13 13 0 0 0-.891-.032q-.913 0-1.281.36-.367.358-.367.82m6.383-1.375q0-.828.297-1.563.297-.742.844-1.281a4 4 0 0 1 1.335-.86 4.7 4.7 0 0 1 1.758-.312q.977 0 1.797.164.828.156 1.344.328v7.297q0 .78-.274 1.39a2.9 2.9 0 0 1-.757 1.024 3.1 3.1 0 0 1-1.133.633 4.5 4.5 0 0 1-1.422.219 9 9 0 0 1-1.047-.055 5.6 5.6 0 0 1-.82-.156 3.4 3.4 0 0 1-.657-.242 3.7 3.7 0 0 1-.546-.329l.843-1.39q.446.305.969.437.524.133 1.227.133.734 0 1.226-.445.5-.446.5-1.25v-.813a3.5 3.5 0 0 1-.843.524q-.454.195-1.204.195-.812 0-1.445-.273a3.2 3.2 0 0 1-1.086-.758 3.4 3.4 0 0 1-.68-1.157 4.5 4.5 0 0 1-.226-1.46m1.914-.047q0 .867.43 1.46.436.587 1.398.587.867 0 1.305-.368.437-.366.437-1.172v-2.687a3 3 0 0 0-.469-.117 5 5 0 0 0-.742-.04q-.578 0-1.015.196a2.145 2.145 0 0 0-1.196 1.258 2.6 2.6 0 0 0-.148.883m6.961-.149q0-.828.273-1.539.281-.71.782-1.234a3.7 3.7 0 0 1 1.203-.836 3.85 3.85 0 0 1 1.547-.305q1.023 0 1.734.375.71.375 1.141.985.437.609.625 1.375.195.765.195 1.57v.266h-5.602q0 .414.188.757.188.336.476.578.297.236.672.368.382.125.75.125.548 0 .953-.102.406-.11.688-.242a2.6 2.6 0 0 0 .758-.54l1.023 1.157-.266.266a3 3 0 0 1-.624.453 4.6 4.6 0 0 1-1.04.43q-.632.195-1.507.195a4.2 4.2 0 0 1-1.633-.305 3.8 3.8 0 0 1-1.258-.836 3.7 3.7 0 0 1-.805-1.289 4.9 4.9 0 0 1-.273-1.672m1.883-.703h3.679a1.6 1.6 0 0 0-.109-.57 1.6 1.6 0 0 0-.328-.524 1.7 1.7 0 0 0-.555-.382 1.8 1.8 0 0 0-.765-.157q-.462 0-.821.157-.359.148-.601.382-.243.235-.375.524a1.4 1.4 0 0 0-.125.57m9.937 1.602v-4.563h1.883v4.547q0 .72.391 1.117.397.39 1.023.39.383 0 .719-.148.336-.156.57-.43a2 2 0 0 0 .375-.632q.141-.36.141-.773v-4.07h1.89V41h-1.812l-.047-.852a4 4 0 0 1-.352.336 2.677 2.677 0 0 1-1.101.578 3.1 3.1 0 0 1-.805.094q-1.406 0-2.14-.836-.735-.843-.735-2.265M527.586 41v-7.508h1.805l.047.852q.14-.156.343-.336t.485-.328q.28-.15.632-.242.352-.102.797-.102 1.406 0 2.141.844.742.836.742 2.258V41h-1.89v-4.547q0-.718-.391-1.11-.391-.39-1.016-.39-.383 0-.719.156-.335.15-.578.422a2 2 0 0 0-.382.633q-.133.36-.133.773V41zm8.461-3.617q0-.883.25-1.54.258-.663.641-1.132.32-.383.703-.64.39-.259.781-.423.39-.171.758-.242.366-.07.64-.07.367 0 .61.023.241.024.429.063.196.038.352.11.164.061.367.14v-3.344h1.875V41h-1.828l-.047-.734a4 4 0 0 1-.351.336 2.7 2.7 0 0 1-.485.32 3.4 3.4 0 0 1-.625.234 2.7 2.7 0 0 1-.773.102q-.61 0-1.203-.258a3.25 3.25 0 0 1-1.063-.75 4 4 0 0 1-.75-1.219q-.28-.718-.281-1.648m1.898 0q0 .96.477 1.601.485.64 1.398.641.477 0 .813-.18.343-.188.547-.476.21-.29.304-.633a2.5 2.5 0 0 0 .094-.664v-2.305a1.5 1.5 0 0 0-.633-.312 4 4 0 0 0-.914-.086q-.563 0-.929.218-.368.212-.641.563a2.5 2.5 0 0 0-.383.75 3 3 0 0 0-.133.883m9.532-2.352v-1.539h1.273v-.46q0-.813.258-1.384.257-.57.656-.93a2.4 2.4 0 0 1 .891-.515q.5-.164.984-.164.515 0 1.133.148.626.141 1.203.633l-.883 1.25a2.5 2.5 0 0 0-.554-.289 1.7 1.7 0 0 0-.594-.11q-.562 0-.891.36t-.328 1.032v.43h1.937v1.538h-1.921V41h-1.891v-5.969zM553.633 41v-7.508h1.805l.046.946q.126-.158.328-.344a2.4 2.4 0 0 1 .477-.352q.273-.165.633-.281.359-.117.82-.11.273 0 .485.032.218.03.445.11l-.383 1.78a2.432 2.432 0 0 0-.867-.148q-.383 0-.734.133a1.7 1.7 0 0 0-.61.367q-.258.242-.414.578a1.8 1.8 0 0 0-.148.75V41zm5.625-2.195q0-.641.242-1.14.241-.51.672-.852a2.9 2.9 0 0 1 1.039-.516q.609-.18 1.344-.18a18 18 0 0 1 1.023.031q.29.015.594.04v-.18q0-.563-.453-.883-.446-.32-1.164-.32-.798 0-1.282.21-.476.212-.843.446l-.868-1.273q.227-.157.516-.329t.672-.304q.382-.141.883-.227a7 7 0 0 1 1.179-.086q.72 0 1.305.203.586.195 1 .555t.641.867q.226.5.226 1.094V41h-1.765l-.047-.703q-.305.367-.93.656a3.27 3.27 0 0 1-2.312.14 2.5 2.5 0 0 1-.828-.437 2.25 2.25 0 0 1-.61-.758 2.4 2.4 0 0 1-.234-1.093m1.812-.078q0 .476.344.75.344.273 1.016.273.336 0 .648-.11.312-.109.547-.304a1.7 1.7 0 0 0 .391-.445q.156-.258.156-.547v-.735l-.563-.03a13 13 0 0 0-.89-.032q-.915 0-1.281.36-.368.358-.368.82m6.383-1.375q0-.828.297-1.563.297-.742.844-1.281.555-.547 1.336-.86a4.7 4.7 0 0 1 1.758-.312q.977 0 1.796.164.828.156 1.344.328v7.297q0 .78-.273 1.39a2.9 2.9 0 0 1-.758 1.024 3.1 3.1 0 0 1-1.133.633 4.5 4.5 0 0 1-1.422.219 9 9 0 0 1-1.047-.055 5.6 5.6 0 0 1-.82-.156 3.61 3.61 0 0 1-1.203-.57l.844-1.391q.444.305.968.437.524.133 1.227.133.734 0 1.227-.445.5-.446.5-1.25v-.813a3.5 3.5 0 0 1-.844.524q-.453.195-1.203.195-.813 0-1.446-.273a3.2 3.2 0 0 1-1.086-.758 3.4 3.4 0 0 1-.679-1.157 4.5 4.5 0 0 1-.227-1.46m1.914-.047q0 .867.43 1.46.438.587 1.398.587.867 0 1.305-.368.438-.366.438-1.172v-2.687a3 3 0 0 0-.469-.117 5 5 0 0 0-.742-.04q-.578 0-1.016.196a2.2 2.2 0 0 0-.734.508 2.1 2.1 0 0 0-.461.75 2.6 2.6 0 0 0-.149.883m6.961-.149q0-.828.274-1.539.28-.71.781-1.234a3.7 3.7 0 0 1 1.203-.836 3.85 3.85 0 0 1 1.547-.305q1.023 0 1.734.375.71.375 1.141.985.437.609.625 1.375.195.765.195 1.57v.266h-5.601q0 .414.187.757.188.336.477.578.297.236.671.368.384.125.75.125.548 0 .954-.102.406-.11.687-.242a2.6 2.6 0 0 0 .758-.54l1.023 1.157-.265.266q-.211.21-.625.453a4.6 4.6 0 0 1-1.039.43q-.633.195-1.508.195a4.2 4.2 0 0 1-1.633-.305 3.8 3.8 0 0 1-1.258-.836 3.7 3.7 0 0 1-.804-1.289 4.9 4.9 0 0 1-.274-1.672m1.883-.703h3.68a1.6 1.6 0 0 0-.11-.57 1.6 1.6 0 0 0-.328-.524 1.7 1.7 0 0 0-.555-.382 1.8 1.8 0 0 0-.765-.157q-.46 0-.821.157-.359.148-.601.382-.243.235-.375.524a1.4 1.4 0 0 0-.125.57M585.289 41v-7.508h1.805l.047.852q.14-.156.343-.336t.485-.328q.28-.15.633-.242.351-.102.796-.102 1.406 0 2.141.844.742.836.742 2.258V41h-1.89v-4.547q0-.718-.391-1.11-.39-.39-1.016-.39a1.7 1.7 0 0 0-.718.156q-.336.15-.578.422-.243.266-.383.633-.133.36-.133.773V41zm11.266-1.71 1.414-1.298q.195.227.453.477.265.242.594.46.327.212.734.36.406.14.922.14.945 0 1.398-.429a1.38 1.38 0 0 0 .453-1.04q0-.335-.125-.6a1.1 1.1 0 0 0-.429-.462 3.2 3.2 0 0 0-.797-.359 10 10 0 0 0-1.203-.305 4.2 4.2 0 0 1-1.274-.445 3.4 3.4 0 0 1-.89-.727 2.9 2.9 0 0 1-.532-.914 3.2 3.2 0 0 1-.171-1.039q0-.609.218-1.156.227-.555.688-.976.468-.423 1.164-.68.695-.258 1.64-.258.852 0 1.454.195a4.2 4.2 0 0 1 1.015.446q.414.257.633.508.226.241.328.359l-1.328 1.242a6 6 0 0 1-.258-.227 2.4 2.4 0 0 0-.445-.328 3 3 0 0 0-.633-.289 2.4 2.4 0 0 0-.828-.133 2 2 0 0 0-.719.118q-.304.11-.508.289a1.2 1.2 0 0 0-.296.39 1 1 0 0 0-.094.407q0 .288.101.515.11.219.352.414.25.188.68.344.437.149 1.093.281.625.126 1.196.383.578.258 1.015.664.446.407.703.992.266.586.266 1.399 0 .703-.289 1.297a3.1 3.1 0 0 1-.797 1.039 3.7 3.7 0 0 1-1.219.695q-.702.25-1.531.25a5 5 0 0 1-1.445-.195 5.4 5.4 0 0 1-1.172-.485 5 5 0 0 1-.898-.648 7 7 0 0 1-.633-.672m9.937-6.977v-1.985h2.016v1.985zm.063 8.687v-7.508h1.89V41zm3.476-3.844q0-.828.274-1.539.281-.71.781-1.234.508-.531 1.203-.836a3.85 3.85 0 0 1 1.547-.305q1.023 0 1.734.375.71.375 1.141.985.438.609.625 1.375.195.765.195 1.57v.266h-5.601q0 .414.187.757.188.336.477.578.297.236.672.368.383.125.75.125.546 0 .953-.102.407-.11.687-.242a2.6 2.6 0 0 0 .758-.54l1.024 1.157-.266.266q-.211.21-.625.453a4.6 4.6 0 0 1-1.039.43q-.633.195-1.508.195a4.2 4.2 0 0 1-1.633-.305 3.8 3.8 0 0 1-1.258-.836 3.7 3.7 0 0 1-.804-1.289 4.9 4.9 0 0 1-.274-1.672m1.883-.703h3.68a1.6 1.6 0 0 0-.11-.57 1.6 1.6 0 0 0-.328-.524 1.7 1.7 0 0 0-.554-.382 1.8 1.8 0 0 0-.766-.157q-.461 0-.82.157-.36.148-.602.382-.241.235-.375.524a1.4 1.4 0 0 0-.125.57M622.07 41V30.328h2.016V41zm4.063 0V30.328h1.851v3.938q.29-.32.844-.625.555-.305 1.414-.305.688 0 1.227.227.546.218.906.632.368.407.555.985.195.57.195 1.258V41h-1.891v-4.547q0-.718-.39-1.11-.391-.39-1.016-.39-.383 0-.719.156-.336.15-.578.422a2 2 0 0 0-.383.633q-.132.36-.132.773V41zm8.812 0v-7.508h1.805l.047.946q.125-.158.328-.344.203-.195.477-.352a3 3 0 0 1 .632-.281q.36-.117.821-.11.273 0 .484.032.219.03.445.11l-.382 1.78a1.8 1.8 0 0 0-.399-.109 2.4 2.4 0 0 0-.469-.039q-.383 0-.734.133a1.7 1.7 0 0 0-.609.367q-.258.242-.414.578a1.8 1.8 0 0 0-.149.75V41zm5.758-3.844q0-.828.274-1.539.28-.71.781-1.234a3.7 3.7 0 0 1 1.203-.836 3.85 3.85 0 0 1 1.547-.305q1.023 0 1.734.375.71.375 1.141.985.437.609.625 1.375.195.765.195 1.57v.266h-5.601q0 .414.187.757.188.336.477.578.297.236.672.368.383.125.75.125.546 0 .953-.102.406-.11.687-.242a2.6 2.6 0 0 0 .758-.54l1.023 1.157-.265.266q-.211.21-.625.453a4.6 4.6 0 0 1-1.039.43q-.633.195-1.508.195a4.2 4.2 0 0 1-1.633-.305 3.8 3.8 0 0 1-1.258-.836 3.7 3.7 0 0 1-.804-1.289 4.9 4.9 0 0 1-.274-1.672m1.883-.703h3.68a1.6 1.6 0 0 0-.11-.57 1.6 1.6 0 0 0-.328-.524 1.7 1.7 0 0 0-.555-.382 1.8 1.8 0 0 0-.765-.157q-.461 0-.82.157-.36.148-.602.382-.243.235-.375.524a1.4 1.4 0 0 0-.125.57M221.438 59l4.046-10.672h2.086L231.617 59h-2.242l-.93-2.703h-3.968L223.555 59zm2.39-11.79v-1.874h1.969v1.875zm1.211 7.423h2.836l-1.414-4.149zm2.195-7.422v-1.875h1.969v1.875zM232.633 59v-7.508h1.805l.046.946q.126-.158.328-.344a2.4 2.4 0 0 1 .477-.352q.273-.165.633-.281.359-.117.82-.11.273 0 .485.032.218.03.445.11l-.383 1.78a2.432 2.432 0 0 0-.867-.148q-.383 0-.734.133a1.7 1.7 0 0 0-.61.367q-.258.242-.414.578a1.8 1.8 0 0 0-.148.75V59zm5.914 0v-1.437l3.828-4.485h-3.711v-1.586h6.063v1.477l-3.954 4.492h3.954V59zm7.101-5.969v-1.539h1.282v-2.43h1.882v2.43h2.016v1.54h-2.016v3.28q0 .642.219.985.219.344.696.344.444 0 .711-.125.265-.133.507-.305l.797 1.164a4 4 0 0 1-1.109.664q-.54.204-1.211.203-.687 0-1.172-.203a1.9 1.9 0 0 1-.773-.562 2.3 2.3 0 0 1-.422-.891 5 5 0 0 1-.125-1.148V53.03zm7.094-2.718v-1.985h2.016v1.984zm.063 8.687v-7.508h1.89V59zm3.828 0v-7.508h1.805l.046.852q.141-.156.344-.336.204-.18.484-.328.282-.15.633-.242.352-.102.797-.102 1.406 0 2.141.844.742.836.742 2.258V59h-1.891v-4.547q0-.718-.39-1.11-.391-.39-1.016-.39-.383 0-.719.156-.335.15-.578.422a2 2 0 0 0-.383.633q-.132.36-.132.773V59zm8.937 2.29 1.008-2.29h-.812v-2.227h2.289v2.196l-1.36 2.32zm7.422-2.29V48.328h2.016V59zm4.063 0V48.328h1.851v3.938q.29-.32.844-.625.555-.305 1.414-.305.687 0 1.227.227.546.218.906.632.367.407.555.985.195.57.195 1.258V59h-1.891v-4.547q0-.718-.39-1.11-.391-.39-1.016-.39-.383 0-.719.156-.335.15-.578.422a2 2 0 0 0-.383.633q-.132.36-.132.773V59zm8.812 0v-7.508h1.805l.047.946q.124-.158.328-.344.203-.195.476-.352.274-.165.633-.281.36-.117.821-.11.273 0 .484.032.219.03.445.11l-.383 1.78a1.8 1.8 0 0 0-.398-.109 2.4 2.4 0 0 0-.469-.039q-.383 0-.734.133a1.7 1.7 0 0 0-.61.367 1.9 1.9 0 0 0-.414.578 1.8 1.8 0 0 0-.148.75V59zm5.758-3.844q0-.828.273-1.539.281-.71.782-1.234a3.7 3.7 0 0 1 1.203-.836 3.85 3.85 0 0 1 1.547-.305q1.023 0 1.734.375.71.375 1.141.985.437.609.625 1.375.195.765.195 1.57v.266h-5.602q0 .414.188.757.188.336.477.578.296.236.671.368.384.125.75.125.548 0 .953-.102.406-.11.688-.242a2.6 2.6 0 0 0 .758-.54l1.023 1.157-.265.266q-.211.21-.625.453a4.6 4.6 0 0 1-1.039.43q-.633.195-1.508.195a4.2 4.2 0 0 1-1.633-.305 3.8 3.8 0 0 1-1.258-.836 3.7 3.7 0 0 1-.805-1.289 4.9 4.9 0 0 1-.273-1.672m1.883-.703h3.68a1.6 1.6 0 0 0-.11-.57 1.6 1.6 0 0 0-.328-.524 1.7 1.7 0 0 0-.555-.382 1.8 1.8 0 0 0-.765-.157q-.462 0-.821.157-.359.148-.601.382-.243.235-.375.524a1.4 1.4 0 0 0-.125.57M300.586 59v-7.508h1.805l.047.852q.14-.156.343-.336t.485-.328q.28-.15.632-.242.352-.102.797-.102 1.406 0 2.141.844.742.836.742 2.258V59h-1.89v-4.547q0-.718-.391-1.11-.391-.39-1.016-.39-.383 0-.719.156-.335.15-.578.422a2 2 0 0 0-.382.633q-.133.36-.133.773V59zm10.852 0 4.046-10.672h2.086L321.617 59h-2.242l-.93-2.703h-3.968L313.555 59zm3.601-4.367h2.836l-1.414-4.149zM322.633 59v-7.508h1.805l.046.946q.126-.158.328-.344a2.4 2.4 0 0 1 .477-.352q.273-.165.633-.281.359-.117.82-.11.273 0 .485.032.218.03.445.11l-.383 1.78a2.432 2.432 0 0 0-.867-.148q-.383 0-.734.133a1.7 1.7 0 0 0-.61.367q-.258.242-.414.578a1.8 1.8 0 0 0-.148.75V59zm5.914 0v-1.437l3.828-4.485h-3.711v-1.586h6.063v1.477l-3.954 4.492h3.954V59zm7.101-5.969v-1.539h1.282v-2.43h1.882v2.43h2.016v1.54h-2.016v3.28q0 .642.219.985.219.344.696.344.444 0 .711-.125.265-.133.507-.305l.797 1.164a4 4 0 0 1-1.109.664q-.54.204-1.211.203-.687 0-1.172-.203a1.9 1.9 0 0 1-.773-.562 2.3 2.3 0 0 1-.422-.891 5 5 0 0 1-.125-1.148V53.03zm9.618 2.211q0-.811.296-1.539.297-.735.821-1.273a3.9 3.9 0 0 1 1.273-.867 4.1 4.1 0 0 1 1.641-.32 4.1 4.1 0 0 1 1.641.32q.741.32 1.265.867.531.539.828 1.265.297.727.297 1.547 0 .813-.297 1.547a4 4 0 0 1-.828 1.281 3.8 3.8 0 0 1-1.265.867 4.1 4.1 0 0 1-1.641.32 4.1 4.1 0 0 1-1.641-.32 3.9 3.9 0 0 1-1.273-.867 4.105 4.105 0 0 1-1.117-2.828m1.898 0q0 .414.125.828.133.414.399.774.265.351.664.57.397.21.945.211.547 0 .945-.21.4-.22.656-.571.267-.36.391-.774.133-.414.133-.828 0-.398-.133-.82a2.3 2.3 0 0 0-.391-.774 1.9 1.9 0 0 0-.664-.554 1.9 1.9 0 0 0-.937-.219q-.548 0-.945.219a2 2 0 0 0-.664.554q-.266.344-.399.774a2.9 2.9 0 0 0-.125.82m7.32.14q0-.882.25-1.538.258-.664.641-1.133.32-.383.703-.64.391-.259.781-.423.391-.171.758-.242.368-.07.641-.07.368 0 .609.023.243.024.43.063.195.038.351.11.164.061.368.14v-3.344h1.875V59h-1.829l-.046-.734a4 4 0 0 1-.352.336 2.7 2.7 0 0 1-.484.32 3.4 3.4 0 0 1-.625.234 2.7 2.7 0 0 1-.774.102q-.609 0-1.203-.258a3.2 3.2 0 0 1-1.062-.75 3.9 3.9 0 0 1-.75-1.219q-.282-.718-.282-1.648m1.899 0q0 .962.476 1.602.484.64 1.399.641a1.7 1.7 0 0 0 .812-.18q.344-.188.547-.476.211-.29.305-.633t.094-.664v-2.305a1.55 1.55 0 0 0-.633-.312 4 4 0 0 0-.914-.086q-.563 0-.93.218-.367.212-.641.563a2.5 2.5 0 0 0-.382.75 2.9 2.9 0 0 0-.133.883m7.008-.226q0-.828.273-1.539a3.8 3.8 0 0 1 .781-1.234q.509-.531 1.203-.836a3.85 3.85 0 0 1 1.547-.305q1.024 0 1.735.375t1.14.985q.438.609.625 1.375a6.3 6.3 0 0 1 .196 1.57v.266h-5.602q0 .414.188.757.187.336.476.578.297.236.672.368.382.125.75.125.547 0 .953-.102.406-.11.688-.242a2.6 2.6 0 0 0 .757-.54l1.024 1.157-.266.266q-.21.21-.625.453a4.6 4.6 0 0 1-1.039.43q-.632.195-1.508.195a4.2 4.2 0 0 1-1.632-.305 3.8 3.8 0 0 1-1.258-.836 3.7 3.7 0 0 1-.805-1.289 4.9 4.9 0 0 1-.273-1.672m1.882-.703h3.68a1.6 1.6 0 0 0-.109-.57 1.6 1.6 0 0 0-.883-.906 1.8 1.8 0 0 0-.766-.157q-.46 0-.82.157-.36.148-.602.382t-.375.524a1.4 1.4 0 0 0-.125.57M372.352 59v-7.508h1.804l.047.946q.125-.158.328-.344a2.4 2.4 0 0 1 .477-.352q.273-.165.633-.281.359-.117.82-.11.274 0 .484.032.22.03.446.11l-.383 1.78a1.8 1.8 0 0 0-.399-.109 2.4 2.4 0 0 0-.468-.039q-.383 0-.735.133a1.7 1.7 0 0 0-.609.367q-.258.242-.414.578a1.8 1.8 0 0 0-.149.75V59zm9.015-8.687v-1.985h2.016v1.984zM381.43 59v-7.508h1.89V59zm3.828 0v-7.508h1.804l.047.852q.141-.156.344-.336.204-.18.485-.328.28-.15.632-.242.352-.102.797-.102 1.406 0 2.141.844.742.836.742 2.258V59h-1.891v-4.547q0-.718-.39-1.11-.391-.39-1.016-.39-.383 0-.719.156-.335.15-.578.422a2 2 0 0 0-.383.633q-.132.36-.132.773V59zm11.89 0V48.328h2.016V59zm4.063 0V48.328h1.851v3.938q.29-.32.844-.625.555-.305 1.414-.305.688 0 1.227.227.547.218.906.632.368.407.555.985.195.57.195 1.258V59h-1.891v-4.547q0-.718-.39-1.11-.391-.39-1.016-.39-.383 0-.718.156-.336.15-.579.422a2 2 0 0 0-.382.633q-.133.36-.133.773V59zm8.812 0v-7.508h1.805l.047.946q.125-.158.328-.344.203-.195.477-.352a3 3 0 0 1 .632-.281q.36-.117.821-.11.274 0 .484.032.219.03.445.11l-.382 1.78a1.8 1.8 0 0 0-.399-.109 2.4 2.4 0 0 0-.469-.039q-.383 0-.734.133a1.7 1.7 0 0 0-.609.367q-.258.242-.414.578a1.8 1.8 0 0 0-.149.75V59zm5.758-3.844q0-.828.274-1.539.281-.71.781-1.234.508-.531 1.203-.836a3.85 3.85 0 0 1 1.547-.305q1.023 0 1.734.375.71.375 1.141.985.438.609.625 1.375.195.765.195 1.57v.266h-5.601q0 .414.187.757.188.336.477.578.297.236.672.368.382.125.75.125.546 0 .953-.102.406-.11.687-.242a2.6 2.6 0 0 0 .758-.54l1.024 1.157-.266.266q-.211.21-.625.453a4.6 4.6 0 0 1-1.039.43q-.633.195-1.508.195a4.2 4.2 0 0 1-1.633-.305 3.8 3.8 0 0 1-1.258-.836 3.7 3.7 0 0 1-.804-1.289 4.9 4.9 0 0 1-.274-1.672m1.883-.703h3.68a1.6 1.6 0 0 0-.11-.57 1.6 1.6 0 0 0-.328-.524 1.7 1.7 0 0 0-.554-.382 1.8 1.8 0 0 0-.766-.157q-.461 0-.82.157-.36.148-.602.382-.241.235-.375.524a1.4 1.4 0 0 0-.125.57M424.742 59v-7.508h1.805l.047.946q.124-.158.328-.344.203-.195.476-.352.274-.165.633-.281.36-.117.821-.11.273 0 .484.032.219.03.445.11l-.383 1.78a1.8 1.8 0 0 0-.398-.109 2.4 2.4 0 0 0-.469-.039q-.383 0-.734.133a1.7 1.7 0 0 0-.609.367q-.258.242-.415.578a1.8 1.8 0 0 0-.148.75V59zm8.149 0 4.047-10.672h2.085L443.07 59h-2.242l-.93-2.703h-3.968L435.008 59zm3.601-4.367h2.836l-1.414-4.149zm7.594 7.57v-10.71h1.82l.047.85q.141-.155.359-.335.219-.18.516-.32t.672-.235a3.2 3.2 0 0 1 .844-.101q.867 0 1.492.336a3.1 3.1 0 0 1 1.047.89q.414.547.625 1.258.21.703.211 1.453 0 .883-.258 1.508a4.3 4.3 0 0 1-.641 1.086q-.64.765-1.398 1.07a4.2 4.2 0 0 1-1.563.305q-.366 0-.632-.031a3.998 3.998 0 0 1-.883-.219q-.18-.07-.391-.149v3.344zm1.867-5.047q.563.462 1.695.469.516 0 .914-.195.4-.204.68-.532.281-.328.422-.742.148-.421.148-.867 0-.476-.109-.89a2 2 0 0 0-.336-.735 1.6 1.6 0 0 0-.594-.492q-.366-.188-.914-.188-.43 0-.781.188-.351.18-.601.469a2.3 2.3 0 0 0-.391.632 1.8 1.8 0 0 0-.133.664zm6.922-1.914q0-.811.297-1.539.297-.735.82-1.273a3.9 3.9 0 0 1 1.274-.867 4.1 4.1 0 0 1 1.64-.32 4.1 4.1 0 0 1 1.641.32q.743.32 1.265.867.532.539.829 1.265.297.727.297 1.547 0 .813-.297 1.547a4 4 0 0 1-.829 1.281q-.522.548-1.265.867a4.1 4.1 0 0 1-1.641.32 4.1 4.1 0 0 1-1.64-.32 3.9 3.9 0 0 1-1.274-.867 4.12 4.12 0 0 1-1.117-2.828m1.898 0q0 .414.125.828.134.414.399.774.265.351.664.57.399.21.945.211.547 0 .946-.21.398-.22.656-.571a2.5 2.5 0 0 0 .39-.774q.133-.414.133-.828 0-.398-.133-.82a2.3 2.3 0 0 0-.39-.774 1.9 1.9 0 0 0-.664-.554 1.9 1.9 0 0 0-.938-.219q-.546 0-.945.219a2 2 0 0 0-.664.554q-.265.344-.399.774a2.9 2.9 0 0 0-.125.82m7.032-2.21v-1.54h1.281v-2.43h1.883v2.43h2.015v1.54h-2.015v3.28q0 .642.219.985.218.344.695.344.445 0 .711-.125.265-.133.508-.305l.796 1.164a4 4 0 0 1-1.109.664 3.4 3.4 0 0 1-1.211.203q-.687 0-1.172-.203a1.9 1.9 0 0 1-.773-.562 2.3 2.3 0 0 1-.422-.891 5 5 0 0 1-.125-1.148V53.03zM468.883 59V48.328h1.851v3.938q.29-.32.844-.625.555-.305 1.414-.305.688 0 1.227.227.546.218.906.632.368.407.555.985.195.57.195 1.258V59h-1.891v-4.547q0-.718-.39-1.11-.391-.39-1.016-.39-.383 0-.719.156-.335.15-.578.422a2 2 0 0 0-.383.633q-.132.36-.132.773V59zm8.461-3.844q0-.828.273-1.539a3.8 3.8 0 0 1 .781-1.234 3.7 3.7 0 0 1 2.75-1.14q1.024 0 1.735.374.711.375 1.14.985.438.609.625 1.375a6.3 6.3 0 0 1 .196 1.57v.266h-5.602q0 .414.188.757.188.336.476.578.297.236.672.368.382.125.75.125.547 0 .953-.102.406-.11.688-.242a2.6 2.6 0 0 0 .758-.54l1.023 1.157-.266.266q-.21.21-.625.453-.405.241-1.039.43-.632.195-1.508.195a4.2 4.2 0 0 1-1.632-.305 3.8 3.8 0 0 1-1.258-.836 3.7 3.7 0 0 1-.805-1.289 4.9 4.9 0 0 1-.273-1.672m1.883-.703h3.679a1.6 1.6 0 0 0-.109-.57 1.6 1.6 0 0 0-.328-.524 1.7 1.7 0 0 0-.555-.382 1.8 1.8 0 0 0-.766-.157q-.46 0-.82.157-.359.148-.601.382-.243.235-.375.524a1.4 1.4 0 0 0-.125.57M486.305 59V48.328h1.883v5.82l2.71-2.656h2.219l-2.812 2.774L493.438 59h-2.258l-2.172-3.453-.82.797V59zm7.836-3.844q0-.828.273-1.539a3.8 3.8 0 0 1 .781-1.234q.509-.531 1.203-.836a3.85 3.85 0 0 1 1.547-.305q1.024 0 1.735.375t1.14.985q.438.609.625 1.375a6.3 6.3 0 0 1 .196 1.57v.266h-5.602q0 .414.188.757.187.336.476.578.297.236.672.368.382.125.75.125.547 0 .953-.102.406-.11.688-.242a2.6 2.6 0 0 0 .757-.54l1.024 1.157-.266.266q-.21.21-.625.453a4.6 4.6 0 0 1-1.039.43q-.632.195-1.508.195a4.2 4.2 0 0 1-1.632-.305 3.8 3.8 0 0 1-1.258-.836 3.7 3.7 0 0 1-.805-1.289 4.9 4.9 0 0 1-.273-1.672m1.882-.703h3.68a1.6 1.6 0 0 0-.109-.57 1.6 1.6 0 0 0-.883-.906 1.8 1.8 0 0 0-.766-.157q-.46 0-.82.157-.36.148-.602.382t-.375.524a1.4 1.4 0 0 0-.125.57M503.258 59v-2.21h2.289V59z"/><path fill="#fff" d="m582.078 73 3.035-8.004h1.565L589.713 73h-1.682l-.697-2.027h-2.977L583.666 73zm2.701-3.275h2.127l-1.06-3.112zm5.274-3.399v-1.33h6.937v1.33h-2.713V73h-1.511v-6.674zm7.728.287q.147-.24.358-.48a2.6 2.6 0 0 1 1.259-.78q.423-.128.961-.128.65 0 1.12.175a2.1 2.1 0 0 1 .767.463q.299.287.44.656.146.363.146.745 0 .41-.135.755-.129.347-.345.65-.217.3-.493.563-.275.264-.562.504-.346.287-.656.528-.305.24-.534.468a2.3 2.3 0 0 0-.363.463q-.129.235-.129.522h3.264V73h-4.858v-.95q0-.515.17-.93.177-.423.452-.774.28-.358.615-.657.333-.299.674-.591.334-.288.591-.487.258-.204.44-.392.182-.187.269-.375a1.1 1.1 0 0 0 .088-.446q0-.157-.052-.322a.7.7 0 0 0-.182-.293.9.9 0 0 0-.328-.21 1.3 1.3 0 0 0-.516-.089q-.274 0-.498.088a1.5 1.5 0 0 0-.398.217 1.7 1.7 0 0 0-.299.287q-.123.153-.211.293zm6.504 4.934v-1.19l3.299-4.916h1.418v4.905h.779v1.2h-.779V73h-1.359v-1.453zm1.365-1.201h1.993v-2.912zm5.004-1.225q0-.879.188-1.594.187-.72.556-1.23.375-.51.932-.791t1.289-.281 1.283.28.92.792q.375.51.563 1.23t.187 1.594a6.8 6.8 0 0 1-.187 1.652q-.188.75-.563 1.284a2.7 2.7 0 0 1-.926.837q-.556.3-1.289.3t-1.283-.3a2.75 2.75 0 0 1-.926-.837 3.9 3.9 0 0 1-.556-1.284 6.8 6.8 0 0 1-.188-1.652m1.453 0q0 .585.094 1.096.1.504.287.879.193.369.475.586.287.216.656.216t.651-.216q.286-.217.468-.586.188-.375.282-.88.099-.502.099-1.095a5 5 0 0 0-.099-1.043 2.7 2.7 0 0 0-.288-.82 1.5 1.5 0 0 0-.468-.533 1.13 1.13 0 0 0-.657-.194q-.369 0-.656.194a1.5 1.5 0 0 0-.469.533 3 3 0 0 0-.281.82 5.5 5.5 0 0 0-.094 1.043m5.268-1.26q0-.526.17-1.002a2.43 2.43 0 0 1 1.336-1.418 2.7 2.7 0 0 1 1.119-.216q.598 0 1.107.216.516.218.885.674.375.452.586 1.154.211.704.211 1.676 0 .926-.193 1.7a4 4 0 0 1-.592 1.341 2.8 2.8 0 0 1-.996.891q-.598.316-1.424.316-.334 0-.65-.058a5.3 5.3 0 0 1-1.049-.287 3 3 0 0 1-.328-.159l.574-1.142q.205.117.445.205.205.07.475.135.269.058.556.058.433 0 .75-.175.317-.177.539-.47.223-.292.334-.667a3 3 0 0 0 .129-.791q-.193.158-.574.34-.375.175-1.049.175-.527 0-.961-.193a2.4 2.4 0 0 1-.744-.539 2.6 2.6 0 0 1-.486-.791q-.17-.45-.17-.973m1.33.018q0 .527.328.873.335.346.897.346.585 0 .902-.141.323-.141.539-.287 0-.64-.111-1.06-.106-.428-.293-.68a1 1 0 0 0-.434-.358 1.3 1.3 0 0 0-.533-.111q-.563 0-.932.387-.363.38-.363 1.03m5.233-1.266q.145-.24.357-.48a2.6 2.6 0 0 1 1.26-.78q.421-.128.961-.128.65 0 1.119.175a2.1 2.1 0 0 1 .767.463q.3.287.44.656.146.363.146.745 0 .41-.134.755-.13.347-.346.65-.217.3-.492.563-.275.264-.563.504-.345.287-.656.528-.305.24-.533.468a2.2 2.2 0 0 0-.364.463q-.129.235-.129.522h3.264V73h-4.857v-.95q0-.515.17-.93.175-.423.451-.774.28-.358.615-.657t.674-.591q.334-.288.592-.487.258-.204.439-.392a1.4 1.4 0 0 0 .27-.375 1.08 1.08 0 0 0 .035-.768.7.7 0 0 0-.182-.293.9.9 0 0 0-.328-.21 1.3 1.3 0 0 0-.516-.089q-.275 0-.498.088a1.5 1.5 0 0 0-.398.217 1.8 1.8 0 0 0-.299.287q-.123.153-.211.293zm6.275 5.725.814-.996q.322.287.715.463.393.175.897.175.65 0 1.031-.351.381-.357.381-.932 0-.252-.065-.474a.9.9 0 0 0-.222-.381 1.04 1.04 0 0 0-.405-.258 1.7 1.7 0 0 0-.615-.1q-.17 0-.351.035a9 9 0 0 0-.323.07l-.416-.667 1.928-2.174h-2.83v-1.295h4.523v1.078L633.6 68.5q1.007.117 1.476.72.475.599.475 1.489 0 .585-.223 1.055a2.2 2.2 0 0 1-.615.797 2.8 2.8 0 0 1-.926.486q-.527.17-1.137.17-.814 0-1.418-.246a3.4 3.4 0 0 1-1.019-.633m6.961-2.842q0-.938.211-1.723.216-.784.638-1.353a2.9 2.9 0 0 1 1.043-.885q.627-.31 1.454-.31.333 0 .621.052.293.052.539.135.246.076.427.164.188.082.311.153l-.615 1.113a2.8 2.8 0 0 0-.768-.305 2 2 0 0 0-.527-.064q-.434 0-.779.187-.346.181-.598.492a2.3 2.3 0 0 0-.393.692q-.14.38-.14.79.263-.158.632-.345.375-.187.956-.187.515 0 .949.17.44.17.744.486.31.316.48.773.177.458.176 1.043 0 .528-.17 1.008-.164.48-.492.844-.322.358-.809.574a2.7 2.7 0 0 1-1.107.217q-.597 0-1.113-.217a2.3 2.3 0 0 1-.885-.674q-.369-.457-.58-1.154-.205-.704-.205-1.676m1.412.276q0 .637.105 1.066.112.422.299.674.188.252.44.363.251.105.527.106.563 0 .902-.399.346-.404.346-1.055 0-.55-.322-.879-.316-.333-.832-.334-.54 0-.897.159a3.5 3.5 0 0 0-.568.299m4.887 1.107q0-.732.381-1.26a2.4 2.4 0 0 1 1.019-.808 2.1 2.1 0 0 1-.656-.64 1.65 1.65 0 0 1-.287-.943q0-.445.17-.814.175-.375.486-.639.31-.263.75-.404a3.1 3.1 0 0 1 .978-.146q.587 0 1.032.146.445.141.744.398.298.258.457.622.158.357.158.779 0 .563-.305.978a2.05 2.05 0 0 1-.679.616q.685.287 1.06.82t.375 1.266q0 .386-.158.802a2.1 2.1 0 0 1-.498.756q-.34.34-.879.563t-1.307.222q-.779 0-1.318-.216a2.7 2.7 0 0 1-.885-.551 2.1 2.1 0 0 1-.492-.75 2.4 2.4 0 0 1-.146-.797m1.435-.041q0 .322.123.545.13.222.334.369t.457.21q.252.066.492.065.241 0 .493-.064t.457-.211.328-.363q.129-.223.129-.551a.97.97 0 0 0-.123-.475 1.4 1.4 0 0 0-.317-.404 2 2 0 0 0-.457-.299 2.2 2.2 0 0 0-.533-.187 2.1 2.1 0 0 0-.527.187 1.8 1.8 0 0 0-.44.299 1.5 1.5 0 0 0-.304.404 1.04 1.04 0 0 0-.112.475m.352-3.61q0 .311.287.628.287.315.767.45.481-.135.768-.45.287-.317.287-.663a.84.84 0 0 0-.293-.656q-.293-.258-.762-.258-.444 0-.75.264a.86.86 0 0 0-.304.685m4.57 5.11.815-.996q.322.287.714.463.393.175.897.175.65 0 1.031-.351.381-.357.381-.932 0-.252-.064-.474a.9.9 0 0 0-.223-.381 1 1 0 0 0-.404-.258 1.7 1.7 0 0 0-.616-.1q-.17 0-.351.035a9 9 0 0 0-.322.07l-.417-.667 1.928-2.174h-2.83v-1.295h4.524v1.078l-1.676 1.969q1.008.117 1.476.72.475.599.475 1.489 0 .585-.223 1.055a2.2 2.2 0 0 1-.615.797 2.8 2.8 0 0 1-.926.486 3.7 3.7 0 0 1-1.136.17q-.815 0-1.418-.246a3.4 3.4 0 0 1-1.02-.633m6.803-5.725q.146-.24.357-.48.217-.246.528-.451a2.8 2.8 0 0 1 .732-.329 3.3 3.3 0 0 1 .961-.128q.651 0 1.119.175.469.17.768.463.298.287.439.656.147.363.147.745 0 .41-.135.755-.129.347-.346.65-.216.3-.492.563-.275.264-.563.504-.345.287-.656.528-.305.24-.533.468a2.3 2.3 0 0 0-.363.463q-.129.235-.129.522h3.263V73h-4.857v-.95q0-.515.17-.93a3.3 3.3 0 0 1 .451-.774 5 5 0 0 1 .615-.657q.335-.299.674-.591.334-.288.592-.487.258-.204.439-.392.182-.187.27-.375a1.1 1.1 0 0 0 .088-.446q0-.157-.053-.322a.7.7 0 0 0-.181-.293.9.9 0 0 0-.329-.21 1.3 1.3 0 0 0-.515-.089q-.276 0-.498.088a1.5 1.5 0 0 0-.399.217 1.8 1.8 0 0 0-.299.287q-.123.153-.21.293zm6.299 6.58 3.193-8.414h1.365l-3.152 8.414zm5.144-4.072q0-.879.188-1.594.187-.72.556-1.23.375-.51.932-.791t1.289-.281 1.283.28.92.792q.375.51.563 1.23t.187 1.594a6.8 6.8 0 0 1-.187 1.652q-.188.75-.563 1.284a2.7 2.7 0 0 1-.926.837q-.556.3-1.289.3t-1.283-.3a2.75 2.75 0 0 1-.926-.837 3.9 3.9 0 0 1-.556-1.284 6.8 6.8 0 0 1-.188-1.652m1.453 0q0 .585.094 1.096.1.504.287.879.193.369.475.586.287.216.656.216t.65-.216a1.6 1.6 0 0 0 .469-.586q.188-.375.281-.88.1-.502.1-1.095 0-.563-.1-1.043a2.7 2.7 0 0 0-.287-.82 1.5 1.5 0 0 0-.468-.533 1.13 1.13 0 0 0-.657-.194q-.37 0-.656.194a1.5 1.5 0 0 0-.469.533q-.182.34-.281.82a5.5 5.5 0 0 0-.094 1.043m5.268-1.26q0-.526.17-1.002a2.43 2.43 0 0 1 1.336-1.418 2.7 2.7 0 0 1 1.119-.216 2.8 2.8 0 0 1 1.107.216q.516.218.885.674.375.452.586 1.154.211.704.211 1.676 0 .926-.193 1.7a4 4 0 0 1-.592 1.341 2.8 2.8 0 0 1-.996.891q-.598.316-1.424.316-.334 0-.651-.058a5.3 5.3 0 0 1-1.048-.287 3 3 0 0 1-.328-.159l.574-1.142q.204.117.445.205.205.07.475.135.269.058.556.058.433 0 .75-.175.317-.177.539-.47.223-.292.334-.667.117-.381.129-.791-.193.158-.574.34-.375.175-1.049.175-.527 0-.961-.193a2.4 2.4 0 0 1-.744-.539 2.6 2.6 0 0 1-.486-.791q-.17-.45-.17-.973m1.33.018q0 .527.328.873.335.346.897.346.585 0 .902-.141a3.4 3.4 0 0 0 .539-.287q0-.64-.111-1.06-.106-.428-.293-.68a1 1 0 0 0-.434-.358 1.3 1.3 0 0 0-.533-.111q-.563 0-.932.387-.363.38-.363 1.03m4.717 5.9h6v.662h-6zm6.515-7.166q.147-.24.358-.48a2.6 2.6 0 0 1 1.26-.78q.421-.128.961-.128.65 0 1.119.175a2.1 2.1 0 0 1 .767.463q.299.287.44.656.146.363.146.745 0 .41-.135.755-.129.347-.345.65-.217.3-.492.563a12 12 0 0 1-.563.504q-.345.287-.656.528-.305.24-.533.468a2.2 2.2 0 0 0-.364.463q-.129.235-.129.522h3.264V73H687.6v-.95q0-.515.17-.93.175-.423.451-.774.28-.358.615-.657t.674-.591q.333-.288.592-.487.257-.204.439-.392a1.4 1.4 0 0 0 .27-.375q.087-.194.087-.446 0-.157-.052-.322a.7.7 0 0 0-.182-.293.9.9 0 0 0-.328-.21 1.3 1.3 0 0 0-.516-.089q-.275 0-.498.088a1.5 1.5 0 0 0-.398.217 1.8 1.8 0 0 0-.299.287q-.123.153-.211.293zm6.334 2.508q0-.879.188-1.594.187-.72.557-1.23.375-.51.931-.791.557-.282 1.289-.281t1.283.28q.552.282.92.792.375.51.563 1.23t.187 1.594a6.8 6.8 0 0 1-.187 1.652q-.188.75-.563 1.284a2.7 2.7 0 0 1-.925.837q-.557.3-1.29.3-.732 0-1.283-.3a2.75 2.75 0 0 1-.925-.837 3.9 3.9 0 0 1-.557-1.284 6.8 6.8 0 0 1-.188-1.652m1.453 0q0 .585.094 1.096.1.504.287.879.193.369.475.586.287.216.656.216t.651-.216q.286-.217.468-.586.188-.375.282-.88.099-.502.099-1.095a5 5 0 0 0-.099-1.043 2.7 2.7 0 0 0-.288-.82 1.5 1.5 0 0 0-.468-.533 1.13 1.13 0 0 0-.657-.194q-.369 0-.656.194a1.5 1.5 0 0 0-.469.533 3 3 0 0 0-.281.82 5.5 5.5 0 0 0-.094 1.043m5.292-2.508q.145-.24.357-.48a2.6 2.6 0 0 1 1.26-.78q.421-.128.961-.128.65 0 1.119.175a2.1 2.1 0 0 1 .767.463q.3.287.44.656.146.363.146.745 0 .41-.134.755-.13.347-.346.65-.217.3-.492.563-.275.264-.563.504-.345.287-.656.528-.305.24-.533.468a2.2 2.2 0 0 0-.364.463q-.129.235-.129.522h3.264V73h-4.857v-.95q0-.515.17-.93.175-.423.451-.774.28-.358.615-.657t.674-.591q.334-.288.592-.487.258-.204.439-.392a1.4 1.4 0 0 0 .27-.375 1.08 1.08 0 0 0 .035-.768.7.7 0 0 0-.182-.293.9.9 0 0 0-.328-.21 1.3 1.3 0 0 0-.516-.089q-.275 0-.498.088a1.5 1.5 0 0 0-.398.217 1.8 1.8 0 0 0-.299.287q-.123.153-.211.293zm6.503 4.934v-1.19l3.299-4.916h1.418v4.905h.78v1.2h-.78V73h-1.359v-1.453zm1.366-1.201h1.992v-2.912z"/></svg>