<svg xmlns="http://www.w3.org/2000/svg" fill="none" viewBox="0 0 70 10"><g clip-path="url(#a)"><path fill="#fff" d="m.349 8.14 1.16-1.286c.545.776 1.227 1.135 1.923 1.135.638 0 1.019-.337 1.019-.88 0-.544-.36-.8-1.332-1.206C1.739 5.36.754 4.743.754 3.295S1.994.7 3.71.7c1.252 0 2.132.463 2.77 1.171L5.368 3.24c-.36-.463-.859-.764-1.507-.764-.533 0-.914.289-.914.718 0 .43.417.65 1.426 1.068 1.46.567 2.283 1.285 2.283 2.77 0 1.657-1.298 2.724-3.083 2.724-1.531 0-2.62-.672-3.222-1.61zM16.886 9.6l-.568-1.657h-3.2L12.517 9.6h-2.295l3.58-8.738h1.936l3.535 8.74h-2.387zM13.71 6.308h2.04l-.429-1.252a56 56 0 0 1-.555-1.715 47 47 0 0 1-.592 1.703zM37.125 9.6V.862h2.503c2.967 0 5.041 1.46 5.041 4.37 0 2.908-2.04 4.368-4.903 4.368zm2.144-1.89h.464c1.644 0 2.736-.858 2.736-2.479s-.927-2.423-2.736-2.423h-.464zm9.318-2.491c0-2.584 2.132-4.51 4.706-4.51 2.562 0 4.682 1.912 4.682 4.532s-2.132 4.51-4.718 4.51-4.67-1.82-4.67-4.532m7.176.024c0-1.436-1.056-2.55-2.48-2.55-1.402 0-2.479 1.124-2.479 2.538 0 1.494 1.123 2.538 2.457 2.538 1.427 0 2.504-1.078 2.504-2.528zM69.112.863h-6.9v1.901h3.373L61.48 9.602h7.385V7.667h-3.826zM29.532 9.6h2.028V.862h-2.028V6.43L25.442.862h-2.074v8.74h2.074V4.035l4.092 5.567z"/></g><defs><clipPath id="a"><rect width="69.167" height="9.465" fill="#fff" transform="translate(.167 .518)"/></clipPath></defs></svg>