<svg xmlns="http://www.w3.org/2000/svg" fill="none" viewBox="0 0 221 77"><path fill="#fff" d="M2.32 1.04h5.24v10.8h5.48V1.04h5.24V28h-5.24V16.72H7.56V28H2.32zm29.706 20.8h-4.84l-1.2 6.16h-5.08l5.84-26.96h6.28L38.266 28h-5.08zm-4.32-4.08h3.84l-.88-5.64c-.28-1.64-.64-4.32-.88-6.12h-.12c-.28 1.8-.68 4.6-.96 6.16zM40.9 6.32l-.88-4.04c1.16-.8 3.4-1.56 5.96-1.56 5.12 0 7.52 3.12 7.52 6.64 0 2.76-1.84 5.44-4.56 6.12v.08c3.16.64 5.36 3.04 5.36 6.76 0 5.16-4.4 8-9.24 8-2.24 0-4.2-.52-5.44-1.2l.76-4.28c1.16.68 2.68 1.08 4.16 1.08 2.8 0 4.28-1.6 4.28-3.76 0-3-2.48-4.2-5.32-4.2h-.76V12h.52c2.4 0 4.8-1.16 4.8-3.64 0-1.88-1.16-3.16-3.4-3.16-1.24 0-2.72.52-3.76 1.12m16.575-5.28h5.24v10.8h5.48V1.04h5.24V28h-5.24V16.72h-5.48V28h-5.24zm29.706 20.8h-4.84l-1.2 6.16h-5.08l5.84-26.96h6.28L93.422 28h-5.08zm-4.32-4.08h3.84l-.88-5.64c-.28-1.64-.64-4.32-.88-6.12h-.12c-.28 1.8-.68 4.6-.96 6.16zm13.32-16.72h5.161V10c0 2.2.84 3.76 2.96 3.76.76 0 1.64-.24 2.16-.56V1.04h5.16V28h-5.16V17.24h-.12c-1.24.56-2.44.92-3.84.92-4.64 0-6.32-3.12-6.32-7.56zm20.083 0h4.64V7c0 4.96-.32 9.6-.52 12.4h.08c.76-2.32 2.12-5.84 2.92-7.92l3.96-10.44h4.76V28h-4.6v-6.08c0-5.4.2-9.4.32-12.12h-.08c-.6 2.44-1.8 5.68-2.68 7.92L121.105 28h-4.84zm21.548 0h14.04V28h-5.24V5.6h-4v7.12c0 6.2-.4 11.64-3.8 14.28-1 .8-2.28 1.32-3.6 1.32l-1.12-4.44c.64-.16 1.32-.48 1.8-.96 1.56-1.6 1.92-4.48 1.92-9.72zm18.687 0h4.64V7c0 4.96-.32 9.6-.52 12.4h.08c.76-2.32 2.12-5.84 2.92-7.92l3.96-10.44h4.76V28h-4.6v-6.08c0-5.4.2-9.4.32-12.12h-.08c-.6 2.44-1.8 5.68-2.68 7.92L161.34 28h-4.84zM11.44 69.84H6.6L5.4 76H.32l5.84-26.96h6.28L17.68 76H12.6zm-4.32-4.08h3.84l-.88-5.64C9.8 58.48 9.44 55.8 9.2 54h-.12c-.28 1.8-.68 4.6-.96 6.16zm13.52-16.72h5.24v10.8h5.48v-10.8h5.24V76h-5.24V64.72h-5.48V76h-5.24zM44.146 76V53.88h-4.76v-4.84h14.8v4.84h-4.8V76zM56.93 49.04h4.64V55c0 4.96-.32 9.6-.52 12.4h.08c.76-2.32 2.12-5.84 2.92-7.92l3.96-10.44h4.76V76h-4.6v-6.08c0-5.4.2-9.4.32-12.12h-.08c-.6 2.44-1.8 5.68-2.68 7.92L61.77 76h-4.84zm20.508 0h13.76v4.48h-8.56v5.64c.76-.16 1.36-.2 2.12-.2 2.32 0 4.36.72 5.84 2 1.6 1.4 2.56 3.52 2.56 6.24 0 2.6-.8 4.68-2.24 6.12-1.84 1.96-4.72 2.88-8.6 2.88-2 0-3.68-.12-4.88-.28zm5.24 14.24v8.64c.36.08.72.08 1.16.08 1.24 0 2.24-.48 2.88-1.28.68-.8 1-1.92 1-3.12 0-1.24-.36-2.36-1.04-3.12-.68-.8-1.64-1.32-2.8-1.32q-.66 0-1.2.12m13.627-14.24h4.64V55c0 4.96-.32 9.6-.52 12.4h.08c.76-2.32 2.12-5.84 2.92-7.92l3.96-10.44h4.76V76h-4.6v-6.08c0-5.4.2-9.4.32-12.12h-.08c-.6 2.44-1.8 5.68-2.68 7.92L101.144 76h-4.84zm28.068-.32c6.52 0 8.36 7.16 8.36 13.32 0 10.16-3.6 14.28-8.72 14.28-6.12 0-8.52-6.48-8.52-13.88 0-7.36 2.92-13.72 8.88-13.72m-.2 4.56c-2.08 0-3.24 3.44-3.24 9.24 0 6.12 1.16 9.24 3.28 9.24 2.2 0 3.04-4 3.04-9.48 0-4.72-.72-9-3.08-9M138.443 76V53.88h-4.76v-4.84h14.8v4.84h-4.8V76zm12.783-26.96h4.64V55c0 4.96-.32 9.6-.52 12.4h.08c.76-2.32 2.12-5.84 2.92-7.92l3.96-10.44h4.76V76h-4.6v-6.08c0-5.4.2-9.4.32-12.12h-.08c-.6 2.44-1.8 5.68-2.68 7.92L156.066 76h-4.84zm20.508 0h5.12v11.72h.4l4.4-11.72h5.76l-6.2 12.48c2.76 1.04 3.68 3.56 4.44 6.84.6 2.6 1.04 5.16 1.84 7.64h-5.24c-.64-1.92-1.04-4.12-1.48-6.24-.64-3.16-1.36-5.2-3.52-5.2h-.4V76h-5.12zm18.164 0h4.64V55c0 4.96-.32 9.6-.52 12.4h.08c.76-2.32 2.12-5.84 2.92-7.92l3.96-10.44h4.76V76h-4.6v-6.08c0-5.4.2-9.4.32-12.12h-.08c-.6 2.44-1.8 5.68-2.68 7.92L194.738 76h-4.84zm26.148 18.64h-4.44l-.08-.72c-.28-2.36.64-4.48 2.12-6.8 1.16-1.72 1.72-2.92 1.72-4.44 0-1.48-1-2.48-2.64-2.48-.88 0-1.8.16-2.56.72l-.88-4.04c.84-.56 2.72-1.2 4.68-1.2 5.28 0 6.76 3.48 6.76 6.16 0 2.76-1.56 5-2.96 7.04-1.08 1.64-1.76 3.04-1.72 4.92zm-2.16 8.64c-1.72 0-3-1.36-3-3.2 0-1.96 1.4-3.24 2.96-3.28 1.72 0 3 1.32 3 3.28 0 1.84-1.12 3.2-2.96 3.2"/></svg>