<svg xmlns="http://www.w3.org/2000/svg" fill="none" viewBox="0 0 349 24"><path fill="#fff" d="M2.91 11.522c.586-.569 1.423-.87 2.493-.87h.15c1.038 0 1.774.302 2.226.87.401.536.602 1.439.602 2.744v1.254c0 .703-.067 1.288-.167 1.724a2.4 2.4 0 0 1-.602 1.087c-.57.552-1.339.82-2.342.82h-.184q-.954 0-1.556-.352v2.576c0 .251-.05.419-.134.486-.1.066-.284.1-.569.1H1.556c-.285 0-.469-.034-.569-.117-.1-.067-.134-.234-.134-.469V11.338c0-.2.034-.334.134-.418.084-.067.234-.117.452-.117h.702c.201 0 .352.033.435.067.067.05.134.15.184.284l.117.368zm.62 2.376v2.141c0 .385.067.652.234.803.15.15.401.218.753.218h.15c.385 0 .653-.1.82-.335q.2-.3.2-1.456v-.719c0-.803-.066-1.305-.2-1.489-.167-.2-.435-.3-.836-.3h-.118c-.368 0-.618.083-.786.25-.15.15-.217.452-.217.887m9.286 2.927h.536c.167 0 .3.05.368.117.067.084.117.235.117.452v1.037c0 .234-.05.385-.117.452-.067.084-.201.117-.368.117H12.08c-.836 0-1.422-.15-1.756-.485-.335-.318-.502-.887-.502-1.69V8.16c0-.167.033-.285.117-.368.084-.067.234-.117.452-.117h1.539c.2 0 .351.05.435.117.083.083.134.2.134.368v8.347c0 .134.016.218.066.251.034.05.118.067.251.067m6.519-.82v-4.717c0-.167.033-.284.117-.368.084-.067.234-.117.452-.117h1.539c.2 0 .351.05.435.117.083.084.134.2.134.368v4.952q0 1.53-.753 2.208c-.535.468-1.472.703-2.844.703s-2.325-.235-2.844-.703q-.753-.678-.753-2.208v-4.952c0-.167.034-.284.117-.368.084-.067.234-.117.452-.117h1.54c.2 0 .35.05.434.117.084.084.134.2.134.368v4.718c0 .384.05.635.184.77.134.15.368.217.736.217.351 0 .602-.067.736-.218.117-.134.184-.385.184-.77m4.041-2.509v-.217c0-.82.218-1.439.653-1.874.502-.502 1.355-.753 2.543-.753h.167c.937 0 1.756.1 2.442.302q.201.075.251.15c.034.067.05.15.034.284l-.184 1.372c-.034.218-.184.285-.452.218-.67-.15-1.271-.235-1.773-.235h-.017c-.368 0-.636.034-.77.1-.15.068-.217.185-.217.352v.05c0 .168.05.285.184.352s.385.15.77.217l.786.167c.719.168 1.238.419 1.539.753.3.335.451.853.451 1.54v.25c0 1.757-1.104 2.627-3.279 2.627h-.167c-1.104 0-2.024-.151-2.793-.452-.151-.05-.251-.117-.285-.2-.033-.068-.033-.202 0-.386l.234-1.104c.05-.318.235-.418.57-.318.769.268 1.438.385 2.007.385h.05c.368 0 .619-.033.77-.117.133-.067.217-.2.217-.385v-.05a.36.36 0 0 0-.184-.318q-.201-.1-.803-.25l-.736-.168q-1.104-.25-1.556-.753c-.301-.334-.452-.836-.452-1.539m14.904 3.33h.536c.167 0 .3.05.368.116.067.084.117.235.117.452v1.037c0 .234-.05.385-.117.452-.067.084-.201.117-.368.117h-1.272c-.836 0-1.422-.15-1.756-.485-.335-.318-.502-.887-.502-1.69V15.02l-.552.35c-.218.135-.368.202-.435.202-.134 0-.184-.1-.184-.301v-1.556c0-.168.017-.285.083-.368.05-.067.151-.168.318-.285l.77-.485V8.16c0-.167.033-.285.117-.368.084-.067.234-.117.452-.117h1.539c.2 0 .35.05.435.117.083.083.133.2.133.368v2.71l.753-.485c.2-.134.351-.201.435-.201.117 0 .184.1.184.301v1.556c0 .167-.033.301-.084.368a1.4 1.4 0 0 1-.317.284l-.97.62v3.194c0 .134.016.218.066.251.034.05.117.067.251.067m6.959 1.488h-.034c-.368.569-1.104.837-2.191.837h-.251c-.853 0-1.522-.218-1.99-.653-.486-.435-.72-1.087-.72-1.924v-.184c0-.903.25-1.555.77-1.924.518-.367 1.354-.551 2.525-.551h.117c.435 0 .837.033 1.171.066v-.35c0-.352-.1-.603-.284-.737-.2-.117-.535-.184-1.004-.184-.568 0-1.204.1-1.94.284-.2.05-.351.05-.418 0-.084-.05-.134-.15-.15-.317l-.135-.887c-.033-.167-.033-.284-.033-.335 0-.2.134-.351.401-.435a10.8 10.8 0 0 1 2.86-.368c1.289 0 2.21.285 2.744.82.419.435.636 1.138.636 2.091v4.969c0 .25-.1.401-.268.468-.418.167-.77.401-1.037.703-.284.3-.418.619-.418.936v.05q0 .453.452.452h.05c.2 0 .452-.033.72-.134.083-.016.15-.033.2-.033.084 0 .15.084.2.218l.084.35c.05.235.084.352.084.385 0 .1-.084.184-.234.252q-.653.25-1.355.25h-.1c-.57 0-1.021-.117-1.322-.368-.301-.25-.452-.602-.452-1.037v-.084c0-.401.134-.786.418-1.154a3.15 3.15 0 0 1 1.071-.903zm-.602-2.141v-.469a5 5 0 0 0-.803-.05h-.184q-.603 0-.854.15c-.167.101-.234.302-.234.603v.067c0 .301.067.502.234.602.15.117.385.168.703.168h.117c.335 0 .586-.084.786-.251.15-.134.234-.419.234-.82m8.175.82h.134a5.2 5.2 0 0 0 1.455-.218c.168-.033.268-.05.318-.05.167 0 .268.1.301.284l.15.853c.034.235.068.385.068.452 0 .2-.15.351-.435.452-.736.268-1.54.385-2.41.385h-.2c-1.204 0-2.09-.268-2.643-.837q-.853-.853-.853-2.86v-.97c0-.787.067-1.406.2-1.84q.202-.654.653-1.105c.586-.585 1.506-.887 2.76-.887h.168c1.003 0 1.873.184 2.576.552.2.117.318.251.318.419 0 .1-.05.267-.134.502l-.318.803q-.125.3-.351.3a.7.7 0 0 1-.302-.083c-.535-.217-1.037-.335-1.488-.335h-.067c-.435 0-.753.117-.954.318-.25.251-.368.77-.368 1.54v.568c0 .686.1 1.154.335 1.405.217.235.585.352 1.087.352m6.476-4.065h-2.66c-.167 0-.284-.017-.351-.084s-.084-.2-.084-.402v-1.154c0-.2.017-.318.084-.385q.1-.1.351-.1h5.654c.168 0 .285.033.368.1.067.067.117.201.117.385v.318c0 .435-.133.836-.368 1.188l-2.877 4.081h2.86c.168 0 .268.034.335.1.067.068.1.185.1.386v1.154q0 .3-.1.401c-.067.067-.167.084-.334.084h-5.755c-.351 0-.519-.15-.519-.485v-.385c0-.435.117-.82.368-1.188zm9.074-2.276h.133c.97 0 1.69.235 2.125.686.401.435.619 1.171.619 2.208v4.969c0 .167-.05.301-.134.368-.084.084-.234.117-.435.117h-1.539c-.217 0-.368-.034-.452-.117-.083-.067-.117-.2-.117-.368V13.78c0-.368-.067-.636-.184-.77-.133-.134-.384-.217-.736-.217h-.1c-.368 0-.602.083-.736.217s-.184.402-.184.77v4.734c0 .167-.05.301-.134.368-.084.084-.234.117-.435.117h-1.539c-.218 0-.368-.034-.452-.117-.083-.067-.117-.2-.117-.368V11.27c0-.167.034-.284.117-.351.084-.067.234-.117.452-.117h.786c.201 0 .335.033.419.084q.125.075.2.3l.1.319h.05c.536-.57 1.289-.854 2.293-.854m7.18.636v7.227c0 .167-.05.301-.133.368-.084.084-.235.117-.435.117h-1.54c-.217 0-.367-.034-.451-.117-.084-.067-.117-.2-.117-.368v-7.227c0-.167.033-.284.117-.368.084-.067.234-.117.452-.117h1.539c.2 0 .35.05.435.117.083.084.133.2.133.368m-1.237-1.12h-.201c-.904 0-1.355-.452-1.355-1.39v-.083c0-.92.451-1.388 1.355-1.388h.2c.904 0 1.355.468 1.355 1.388v.084c0 .937-.451 1.388-1.355 1.388m6.952 6.825h.184c.57 0 1.171-.067 1.774-.218.167-.033.267-.05.317-.05.168 0 .268.1.302.284l.133.837c.034.234.067.384.067.451 0 .201-.15.352-.435.452a7.7 7.7 0 0 1-2.526.402h-.317q-2.059 0-2.911-.854a2.4 2.4 0 0 1-.67-1.137c-.117-.435-.167-1.02-.167-1.74v-.937c0-1.455.335-2.476 1.004-3.078.569-.502 1.439-.753 2.626-.753h.235c1.17 0 2.024.285 2.526.837.535.602.803 1.589.803 2.994v.87c0 .318-.168.469-.486.469h-4.014v.133c0 .402.1.67.334.82.218.15.62.218 1.221.218m-1.555-2.911h1.84c.134 0 .2-.067.2-.218v-.267c0-.335-.066-.586-.167-.77-.134-.2-.401-.301-.77-.301h-.15c-.335 0-.569.084-.703.234q-.25.3-.25.904zm14.316-2.291h.163c.652 0 1.202-.123 1.67-.367v-.285c0-1.12-.122-1.874-.346-2.26-.224-.388-.631-.591-1.242-.591h-.184q-1.527 0-1.527 1.65v.183c0 .61.102 1.038.346 1.283.245.264.611.387 1.12.387m-3.686 6.802c-.244-.082-.346-.224-.346-.469q0-.122.061-.366l.326-1.304c.081-.326.326-.448.692-.346.978.306 1.833.448 2.566.448h.061c.734 0 1.243-.183 1.569-.59q.489-.58.55-1.833c-.673.285-1.406.407-2.2.407h-.224c-1.446 0-2.485-.346-3.136-1.08-.652-.712-.957-1.812-.957-3.278v-.285c0-1.304.386-2.342 1.18-3.116.795-.754 1.956-1.14 3.483-1.14h.285c1.833 0 3.137.488 3.87 1.425s1.12 2.484 1.12 4.643v.489c0 1.16-.102 2.159-.306 3.014-.203.855-.468 1.548-.794 2.037-.326.509-.753.916-1.242 1.201-.489.306-.978.51-1.466.59-.49.103-1.06.143-1.69.143h-.021c-1.181 0-2.322-.183-3.38-.59m24.131-5.947v5.763c0 .204-.061.367-.163.448-.102.102-.285.143-.53.143h-1.873c-.265 0-.448-.04-.55-.143-.102-.081-.143-.244-.143-.448v-5.763c0-.448-.081-.774-.224-.937-.163-.163-.468-.265-.896-.265h-.041c-.448 0-.733.102-.896.265s-.224.489-.224.937v5.763c0 .204-.061.367-.163.448-.101.102-.285.143-.529.143h-1.874c-.265 0-.448-.04-.55-.143-.101-.081-.142-.244-.142-.448V9.591c0-.203.041-.346.142-.427.102-.082.285-.143.55-.143h.957c.245 0 .408.04.51.102q.152.09.244.366l.122.387h.061c.652-.692 1.568-1.038 2.79-1.038h.082c1.161 0 2.057.326 2.688.936.652-.61 1.588-.936 2.77-.936h.081c1.181 0 2.057.285 2.587.835.488.53.753 1.425.753 2.688v6.048c0 .204-.061.367-.163.448-.102.102-.285.143-.529.143h-1.874c-.265 0-.448-.04-.55-.143-.102-.081-.142-.244-.142-.448v-5.763c0-.448-.082-.774-.224-.937-.163-.163-.469-.265-.897-.265h-.04c-.448 0-.733.102-.896.265s-.224.489-.224.937m10.769-3.034v8.797c0 .204-.061.367-.162.448-.102.102-.286.143-.53.143h-1.874c-.264 0-.448-.04-.549-.143-.102-.081-.143-.244-.143-.448V9.612c0-.204.041-.347.143-.448.101-.082.285-.143.549-.143h1.874c.244 0 .428.061.53.143.101.101.162.244.162.448m-1.507-1.365h-.244c-1.1 0-1.65-.55-1.65-1.69v-.102c0-1.12.55-1.69 1.65-1.69h.244c1.1 0 1.65.57 1.65 1.69v.102c0 1.14-.55 1.69-1.65 1.69m8.465 8.31h.224c.692 0 1.425-.082 2.159-.266.203-.04.325-.06.386-.06.204 0 .326.121.367.345l.163 1.019c.041.285.081.468.081.55 0 .244-.183.427-.529.55-.937.325-1.976.488-3.075.488h-.387q-2.505 0-3.544-1.038a2.9 2.9 0 0 1-.814-1.385c-.143-.53-.204-1.243-.204-2.118v-1.14c0-1.772.407-3.015 1.222-3.748.692-.61 1.751-.916 3.197-.916h.285c1.426 0 2.465.346 3.076 1.018.651.733.977 1.935.977 3.645v1.06c0 .386-.204.57-.591.57h-4.887v.162c0 .49.122.815.407.998.265.184.754.265 1.487.265m-1.894-3.544h2.24c.163 0 .244-.082.244-.265v-.326c0-.407-.081-.713-.203-.937-.163-.244-.489-.366-.937-.366h-.183c-.408 0-.693.101-.856.285q-.305.365-.305 1.1zm6.945-.713v-.265c0-.998.265-1.751.794-2.28.611-.612 1.65-.917 3.096-.917h.203c1.141 0 2.139.122 2.974.366q.244.091.305.184c.041.081.061.183.041.346l-.224 1.67c-.041.264-.224.346-.55.264-.815-.183-1.548-.285-2.159-.285h-.02c-.448 0-.774.041-.937.123-.183.081-.265.224-.265.427v.061c0 .204.061.347.224.428s.469.183.937.265l.957.203c.876.204 1.507.51 1.874.917s.55 1.038.55 1.873v.306c0 2.138-1.344 3.197-3.992 3.197h-.203c-1.345 0-2.465-.183-3.401-.55-.184-.06-.306-.142-.347-.244-.04-.081-.04-.244 0-.468l.285-1.344c.062-.387.286-.51.693-.387.937.325 1.751.468 2.444.468h.061c.448 0 .753-.04.937-.143.163-.081.264-.244.264-.468v-.061a.44.44 0 0 0-.224-.387q-.244-.122-.977-.306l-.896-.203q-1.344-.306-1.894-.917c-.367-.407-.55-1.018-.55-1.873m12.792-2.688v8.797c0 .204-.061.367-.163.448-.102.102-.285.143-.53.143h-1.873c-.265 0-.448-.04-.55-.143-.102-.081-.143-.244-.143-.448V9.612c0-.204.041-.347.143-.448.102-.082.285-.143.55-.143h1.873c.245 0 .428.061.53.143.102.101.163.244.163.448m-1.507-1.365h-.245c-1.099 0-1.649-.55-1.649-1.69v-.102c0-1.12.55-1.69 1.649-1.69h.245c1.1 0 1.649.57 1.649 1.69v.102c0 1.14-.549 1.69-1.649 1.69m8.464 8.31h.224c.693 0 1.426-.082 2.159-.266.204-.04.326-.06.387-.06.204 0 .326.121.366.345l.163 1.019c.041.285.082.468.082.55 0 .244-.183.427-.53.55-.529.203-.957.529-1.303.977s-.509.896-.509 1.303v.061c0 .387.183.57.55.57h.102c.224 0 .509-.04.834-.162.102-.02.184-.04.245-.04.102 0 .183.1.244.264l.102.428c.061.285.102.427.102.468 0 .122-.102.224-.285.305a4.6 4.6 0 0 1-1.65.306h-.122c-.713 0-1.242-.143-1.609-.448-.366-.306-.55-.733-.55-1.303v-.062c0-.366.122-.773.387-1.18.265-.408.611-.734 1.059-1.02-.163.021-.387.021-.672.021h-.387q-2.505 0-3.543-1.038a2.9 2.9 0 0 1-.815-1.385c-.143-.53-.204-1.243-.204-2.118v-1.14c0-1.772.408-3.015 1.222-3.748.693-.61 1.752-.916 3.198-.916h.285c1.425 0 2.464.346 3.075 1.018.652.733.977 1.935.977 3.645v1.06c0 .386-.203.57-.59.57h-4.888v.162c0 .49.122.815.408.998.264.184.753.265 1.486.265m-1.894-3.544h2.24c.163 0 .245-.082.245-.265v-.326c0-.407-.082-.713-.204-.937-.163-.244-.489-.366-.937-.366h-.183c-.407 0-.692.101-.855.285q-.306.365-.306 1.1zm11.894 3.543h.163c.55 0 1.14-.081 1.772-.265.203-.04.326-.06.387-.06.203 0 .326.121.366.345l.184 1.04c.04.284.081.468.081.549 0 .244-.183.428-.529.55-.897.326-1.874.468-2.933.468h-.244c-1.467 0-2.546-.326-3.218-1.018q-1.04-1.038-1.039-3.482V13.5c0-.957.082-1.71.245-2.24a3.2 3.2 0 0 1 .794-1.344c.713-.713 1.833-1.08 3.36-1.08h.204c1.222 0 2.281.225 3.136.673.244.142.387.305.387.509 0 .122-.061.326-.163.61l-.387.978q-.153.367-.428.367a.8.8 0 0 1-.366-.102c-.652-.265-1.263-.407-1.813-.407h-.081c-.53 0-.917.142-1.161.387-.305.305-.448.937-.448 1.873v.693c0 .835.122 1.405.407 1.71.265.286.713.428 1.324.428m13.557-6.924c-.285 1.914-.815 4.032-1.589 6.374a43 43 0 0 1-2.871 6.64c-.143.284-.326.427-.57.427-.163 0-.347-.04-.591-.163l-1.039-.448c-.366-.163-.529-.326-.529-.509 0-.081.02-.204.102-.346.692-1.405 1.099-2.22 1.181-2.444-.57-.204-.998-.652-1.324-1.385-.366-.814-.794-2.057-1.262-3.767q-.703-2.566-1.039-4.4c-.041-.203-.02-.346.081-.447.102-.082.285-.143.53-.143h1.853c.224 0 .387.04.489.102.102.06.183.183.224.387.468 2.566.998 4.847 1.588 6.822h.102c.57-1.63 1.1-3.87 1.589-6.761q.03-.306.183-.428c.102-.081.265-.122.468-.122h1.874c.224 0 .387.061.468.143s.102.244.082.468m8.244 9.519h-.2c-1.171 0-2.192-.151-3.062-.469-.368-.117-.535-.334-.468-.669l.217-1.355c.034-.335.235-.452.586-.335.97.352 1.873.519 2.676.519h.084c.502 0 .87-.067 1.087-.217.201-.134.318-.385.318-.736v-.168c0-.334-.1-.552-.267-.686-.184-.117-.536-.234-1.054-.334l-1.138-.218c-.937-.167-1.606-.502-1.974-.97-.385-.468-.569-1.12-.569-1.974v-.468c0-.937.251-1.64.753-2.142.602-.602 1.723-.903 3.329-.903h.117c1.121 0 2.075.15 2.844.435.167.067.285.167.335.268a1 1 0 0 1-.017.485l-.284 1.22c-.067.302-.285.402-.619.285a7.6 7.6 0 0 0-2.209-.351h-.066c-.552 0-.937.067-1.138.184-.217.134-.318.351-.318.652v.151c0 .268.067.468.218.569.133.117.435.217.87.3l1.271.252c1.004.2 1.69.518 2.074.92.368.401.569 1.104.569 2.091v.402c0 1.137-.318 1.957-.937 2.475-.619.536-1.622.787-3.028.787m7.511-7.629c.586-.569 1.422-.87 2.493-.87h.151c1.037 0 1.773.302 2.224.87.402.536.603 1.439.603 2.744v1.254c0 .703-.067 1.288-.168 1.724-.117.434-.317.803-.602 1.087-.569.552-1.338.82-2.342.82h-.184q-.953 0-1.556-.352v2.576c0 .251-.05.419-.133.486-.101.066-.285.1-.569.1h-1.272c-.284 0-.468-.034-.568-.117-.101-.067-.134-.234-.134-.469V11.338c0-.2.033-.334.134-.418.083-.067.234-.117.451-.117h.703c.201 0 .351.033.435.067a.64.64 0 0 1 .184.284l.117.368zm.619 2.376v2.141c0 .385.067.652.235.803.15.15.401.218.752.218h.151c.385 0 .652-.1.82-.335q.2-.3.2-1.456v-.719c0-.803-.067-1.305-.2-1.489-.168-.2-.435-.3-.837-.3h-.117c-.368 0-.619.083-.786.25-.151.15-.218.452-.218.887m8.718.351v1.305c0 .652.101 1.07.301 1.271.151.168.385.235.703.235h.067c.301 0 .535-.067.702-.235.201-.2.302-.619.302-1.271v-1.305c0-.636-.101-1.07-.302-1.271-.167-.15-.401-.235-.702-.235h-.067c-.318 0-.552.084-.703.235-.2.2-.301.635-.301 1.271m4.768.1v1.088c0 .836-.084 1.472-.251 1.94a2.4 2.4 0 0 1-.803 1.121c-.552.435-1.405.653-2.576.653h-.201c-1.171 0-2.041-.218-2.576-.653a2.4 2.4 0 0 1-.803-1.12c-.167-.47-.251-1.105-.251-1.941v-1.07c0-.82.084-1.456.251-1.925.167-.468.435-.836.803-1.137.535-.435 1.405-.653 2.576-.653h.201c1.171 0 2.024.218 2.576.653.368.3.636.669.803 1.12.167.469.251 1.105.251 1.924m6.668 3.078v.954c0 .251-.05.418-.117.502s-.217.117-.418.117h-1.338c-1.205 0-2.008-.2-2.376-.619-.334-.351-.485-1.02-.485-2.024v-3.463h-.903c-.167 0-.268-.017-.335-.084s-.083-.167-.083-.334v-.853c0-.201.016-.335.083-.402.05-.067.168-.117.352-.167l.886-.218V9.197c0-.167.034-.284.117-.368.084-.067.234-.117.452-.117h1.539c.201 0 .351.05.435.117.084.084.134.2.134.368v1.606h1.388c.168 0 .268.033.335.1s.1.184.1.385v1.12q0 .302-.1.402c-.067.067-.167.084-.335.084h-1.388v3.162c0 .3.033.485.134.585.1.117.317.168.652.168h.736c.201 0 .351.05.418.133.067.084.117.251.117.485m3.976-6.139v7.227c0 .167-.05.301-.133.368-.084.084-.235.117-.435.117h-1.539c-.218 0-.369-.034-.452-.117-.084-.067-.117-.2-.117-.368v-7.227c0-.167.033-.284.117-.368.083-.067.234-.117.452-.117h1.539c.2 0 .351.05.435.117.083.084.133.2.133.368m-1.238-1.12h-.2c-.904 0-1.355-.452-1.355-1.39v-.083c0-.92.451-1.388 1.355-1.388h.2c.904 0 1.355.468 1.355 1.388v.084c0 .937-.451 1.388-1.355 1.388m3.474 2.726h-.904c-.167 0-.284-.017-.334-.067-.067-.05-.084-.167-.084-.351v-.82c0-.2.017-.351.067-.418s.167-.134.368-.184l.887-.218v-.719c0-.937.217-1.606.669-1.99q.702-.603 2.208-.603h.167c.669 0 1.238.067 1.74.184.167.05.285.117.335.2.033.085.05.218.033.402l-.1 1.054c-.034.168-.067.268-.117.301-.067.034-.184.05-.368.034-.435-.034-.736-.067-.937-.067h-.101c-.368 0-.585.05-.685.15-.118.118-.168.318-.168.586v.435h1.389c.167 0 .267.033.334.1s.101.184.101.385v1.12q0 .302-.101.402c-.067.067-.167.084-.334.084h-1.389v5.62c0 .168-.05.302-.134.369-.083.084-.234.117-.434.117h-1.54c-.217 0-.368-.034-.451-.117-.084-.067-.117-.2-.117-.368zm12.848-1.59c-.234 1.573-.669 3.313-1.305 5.237a35.6 35.6 0 0 1-2.359 5.453c-.117.235-.267.352-.468.352-.134 0-.285-.034-.485-.134l-.854-.368c-.301-.134-.434-.268-.434-.418 0-.067.016-.168.083-.285.569-1.154.904-1.823.97-2.007-.468-.168-.819-.535-1.087-1.138-.301-.669-.652-1.69-1.037-3.094q-.577-2.108-.853-3.614c-.034-.167-.017-.284.067-.368.083-.067.234-.117.435-.117h1.522c.184 0 .318.033.401.084.084.05.151.15.184.317.385 2.108.82 3.982 1.305 5.604h.084c.468-1.338.903-3.178 1.305-5.553q.025-.252.15-.352c.084-.067.218-.1.385-.1h1.539c.184 0 .318.05.385.117s.083.2.067.385m8.719-1.02h-.217c-.235 0-.469.017-.736.034-.101.017-.134.083-.134.2v2.644h.87c.602 0 1.003-.084 1.238-.285.2-.167.301-.485.301-.987v-.418c0-.401-.101-.702-.285-.886-.2-.201-.552-.302-1.037-.302m-1.087 5.17v3.027c0 .352-.201.519-.586.519h-1.639c-.218 0-.368-.034-.452-.117-.1-.067-.134-.2-.134-.402V8.862q0-.4.151-.552c.1-.1.284-.167.585-.2.603-.05 1.539-.084 2.828-.084h.2c1.707 0 2.878.335 3.53.987.502.535.753 1.338.753 2.426v.568c0 1.255-.352 2.142-1.054 2.643-.736.536-1.857.803-3.379.803zm8.571-3.748h.05c.368-.602.987-.903 1.874-.903h.669c.167 0 .301.033.368.1s.117.184.117.368v1.221c0 .184-.033.302-.1.369q-.1.1-.351.1h-.502c-.619 0-1.037.117-1.272.351-.2.201-.284.586-.284 1.155v4.048c0 .167-.05.301-.134.368-.083.084-.234.117-.435.117h-1.539c-.217 0-.368-.034-.452-.117-.083-.067-.117-.2-.117-.368V11.27c0-.167.034-.284.117-.351.084-.067.235-.117.452-.117h.803c.184 0 .318.033.402.084q.125.1.2.3zm7.984 5.287h.184a7.3 7.3 0 0 0 1.773-.218c.167-.033.268-.05.318-.05.167 0 .267.1.301.284l.134.837c.033.234.067.384.067.451 0 .201-.151.352-.435.452a7.7 7.7 0 0 1-2.526.402h-.318q-2.058 0-2.911-.854a2.4 2.4 0 0 1-.669-1.137c-.117-.435-.167-1.02-.167-1.74v-.937c0-1.455.334-2.476 1.003-3.078.569-.502 1.439-.753 2.627-.753h.234c1.171 0 2.024.285 2.526.837.535.602.803 1.589.803 2.994v.87c0 .318-.167.469-.485.469h-4.015v.133c0 .402.1.67.335.82.217.15.618.218 1.221.218m-1.556-2.911h1.84c.134 0 .201-.067.201-.218v-.267c0-.335-.067-.586-.167-.77-.134-.2-.402-.301-.77-.301h-.151c-.334 0-.568.084-.702.234q-.25.3-.251.904zm13.149-.301v4.734c0 .167-.05.301-.134.368-.083.084-.234.117-.435.117h-1.539c-.217 0-.368-.034-.451-.117-.084-.067-.117-.2-.117-.368V13.78c0-.368-.067-.636-.184-.77-.134-.134-.385-.217-.737-.217h-.033c-.368 0-.602.083-.736.217s-.184.402-.184.77v4.734c0 .167-.05.301-.134.368-.084.084-.234.117-.435.117h-1.539c-.217 0-.368-.034-.452-.117-.083-.067-.117-.2-.117-.368V11.27c0-.167.034-.284.117-.351.084-.067.235-.117.452-.117h.786c.201 0 .335.033.419.084q.125.075.2.3l.101.319h.05c.535-.57 1.288-.854 2.292-.854h.067c.953 0 1.689.268 2.208.77.535-.502 1.305-.77 2.275-.77h.067c.97 0 1.689.235 2.124.686.402.435.619 1.171.619 2.208v4.969c0 .167-.05.301-.134.368-.083.084-.234.117-.434.117h-1.539c-.218 0-.369-.034-.452-.117-.084-.067-.117-.2-.117-.368V13.78c0-.368-.067-.636-.184-.77-.134-.134-.385-.217-.736-.217h-.034c-.368 0-.602.083-.736.217s-.184.402-.184.77m8.847-2.493v7.227c0 .167-.05.301-.134.368-.084.084-.234.117-.435.117h-1.539c-.218 0-.368-.034-.452-.117-.083-.067-.117-.2-.117-.368v-7.227c0-.167.034-.284.117-.368.084-.067.234-.117.452-.117h1.539c.201 0 .351.05.435.117.084.084.134.2.134.368m-1.238-1.12h-.201c-.903 0-1.355-.452-1.355-1.39v-.083c0-.92.452-1.388 1.355-1.388h.201c.903 0 1.355.468 1.355 1.388v.084c0 .937-.452 1.388-1.355 1.388m7.371 5.838v-4.718c0-.167.033-.284.117-.368.084-.067.234-.117.452-.117h1.539c.2 0 .351.05.435.117.083.084.133.2.133.368v4.952q0 1.53-.752 2.208c-.536.468-1.472.703-2.844.703s-2.325-.235-2.844-.703q-.753-.678-.753-2.208v-4.952c0-.167.034-.284.117-.368.084-.067.234-.117.452-.117h1.539c.201 0 .351.05.435.117.084.084.134.2.134.368v4.718c0 .384.05.635.184.77.134.15.368.217.736.217.351 0 .602-.067.736-.218.117-.134.184-.385.184-.77m11.485-2.225v4.734c0 .167-.05.301-.133.368-.084.084-.235.117-.435.117h-1.539c-.218 0-.368-.034-.452-.117-.084-.067-.117-.2-.117-.368V13.78c0-.368-.067-.636-.184-.77-.134-.134-.385-.217-.736-.217h-.034c-.368 0-.602.083-.736.217s-.184.402-.184.77v4.734c0 .167-.05.301-.134.368-.083.084-.234.117-.435.117h-1.539c-.217 0-.368-.034-.451-.117-.084-.067-.117-.2-.117-.368V11.27c0-.167.033-.284.117-.351.083-.067.234-.117.451-.117h.787c.2 0 .334.033.418.084q.125.075.201.3l.1.319h.05c.536-.57 1.288-.854 2.292-.854h.067c.953 0 1.69.268 2.208.77.535-.502 1.305-.77 2.275-.77h.067c.97 0 1.69.235 2.125.686.401.435.619 1.171.619 2.208v4.969c0 .167-.051.301-.134.368-.084.084-.234.117-.435.117h-1.539c-.218 0-.368-.034-.452-.117-.083-.067-.117-.2-.117-.368V13.78c0-.368-.067-.636-.184-.77-.134-.134-.385-.217-.736-.217h-.033c-.369 0-.603.083-.737.217-.133.134-.184.402-.184.77m13.461 4.45h-.452c-2.375 0-3.546-1.071-3.546-3.23v-1.12c0-1.104.284-1.907.87-2.442.568-.519 1.455-.787 2.626-.787h.234c.218-1.204 1.104-1.823 2.677-1.823h.819c.168 0 .268.033.335.084.05.066.084.184.084.35v.921c0 .167-.034.268-.101.318-.067.067-.184.083-.334.083h-.787c-.368 0-.619.084-.769.251 1.255.335 1.89 1.355 1.89 3.045v1.12c0 1.205-.334 2.008-.987 2.443.435.234.77.536 1.021.904s.385.77.385 1.187v.117c0 1.657-1.322 2.476-3.932 2.476h-.318c-1.137 0-2.241-.2-3.278-.602-.302-.1-.419-.318-.335-.636l.301-1.07c.084-.318.285-.435.602-.335.987.335 1.857.485 2.627.485h.234q1.455 0 1.455-.853v-.05c0-.318-.167-.602-.501-.87-.268.034-.553.034-.82.034m-.285-2.092h.118c.368 0 .618-.066.786-.234.184-.184.284-.569.284-1.137v-.653c0-.569-.1-.937-.284-1.137-.168-.15-.418-.235-.786-.235h-.118c-.368 0-.635.084-.786.235-.201.2-.284.568-.284 1.137v.653c0 .568.083.953.284 1.137.151.168.418.234.786.234m7.436-4.433h.05c.368-.602.987-.903 1.873-.903h.67c.167 0 .301.033.368.1s.117.184.117.368v1.221c0 .184-.034.302-.101.369q-.1.1-.351.1h-.502c-.619 0-1.037.117-1.271.351-.201.201-.285.586-.285 1.155v4.048c0 .167-.05.301-.133.368-.084.084-.235.117-.435.117h-1.539c-.218 0-.368-.034-.452-.117-.084-.067-.117-.2-.117-.368V11.27c0-.167.033-.284.117-.351s.234-.117.452-.117h.803c.184 0 .317.033.401.084a.7.7 0 0 1 .201.3zm8.64 6.608h-.033c-.368.569-1.104.837-2.192.837h-.251c-.853 0-1.522-.218-1.99-.653-.485-.435-.72-1.087-.72-1.924v-.184c0-.903.251-1.555.77-1.924.519-.367 1.355-.551 2.526-.551h.117c.435 0 .837.033 1.171.066v-.35c0-.352-.1-.603-.284-.737-.201-.117-.536-.184-1.004-.184-.569 0-1.205.1-1.941.284-.2.05-.351.05-.418 0-.083-.05-.134-.15-.15-.317l-.134-.887c-.034-.15-.034-.268-.034-.335 0-.2.134-.351.402-.435a10.8 10.8 0 0 1 2.86-.368c1.289 0 2.209.285 2.744.82.418.435.636 1.138.636 2.091v4.969c0 .167-.051.3-.134.368-.084.067-.234.1-.435.1h-.786c-.201 0-.335-.017-.419-.067s-.15-.15-.2-.318zm-.602-2.141v-.469a5 5 0 0 0-.803-.05h-.184q-.602 0-.853.15c-.167.101-.234.302-.234.603v.067c0 .301.067.502.234.602.15.117.385.168.703.168h.117c.334 0 .585-.084.786-.251.15-.134.234-.419.234-.82m9.499 1.255v.953c0 .251-.05.418-.117.502s-.218.117-.418.117h-1.339c-1.204 0-2.007-.2-2.375-.619-.335-.351-.485-1.02-.485-2.024v-3.463h-.904c-.167 0-.267-.017-.334-.084s-.084-.167-.084-.334v-.853c0-.201.017-.335.084-.402.05-.067.167-.117.351-.167l.887-.218V9.197c0-.167.033-.284.117-.368.083-.067.234-.117.451-.117h1.539c.201 0 .352.05.435.117.084.084.134.2.134.368v1.606h1.389c.167 0 .267.033.334.1s.101.184.101.385v1.12q0 .302-.101.402c-.067.067-.167.084-.334.084h-1.389v3.162c0 .3.034.485.134.585.1.117.318.168.652.168h.737c.2 0 .351.05.418.133.067.084.117.251.117.485m3.976-6.14v7.227c0 .167-.05.301-.134.368-.084.084-.234.117-.435.117h-1.539c-.218 0-.368-.034-.452-.117-.083-.067-.117-.2-.117-.368v-7.227c0-.167.034-.284.117-.368.084-.067.234-.117.452-.117h1.539c.201 0 .351.05.435.117.084.084.134.2.134.368m-1.238-1.12h-.201c-.903 0-1.355-.452-1.355-1.39v-.083c0-.92.452-1.388 1.355-1.388h.201c.903 0 1.355.468 1.355 1.388v.084c0 .937-.452 1.388-1.355 1.388m2.754 3.328v-.217c0-.82.217-1.439.652-1.874.502-.502 1.355-.753 2.543-.753h.167c.937 0 1.757.1 2.443.302q.2.075.251.15c.033.067.05.15.033.284l-.184 1.372c-.033.218-.184.285-.452.218-.669-.15-1.271-.235-1.773-.235h-.017c-.368 0-.635.034-.769.1-.151.068-.218.185-.218.352v.05c0 .168.051.285.184.352.134.067.385.15.77.217l.786.167c.72.168 1.238.419 1.539.753.301.335.452.853.452 1.54v.25c0 1.757-1.104 2.627-3.279 2.627h-.167c-1.104 0-2.024-.151-2.794-.452-.15-.05-.251-.117-.284-.2-.034-.068-.034-.202 0-.386l.234-1.104c.05-.318.234-.418.569-.318.769.268 1.438.385 2.007.385h.05c.368 0 .619-.033.77-.117.134-.067.217-.2.217-.385v-.05a.36.36 0 0 0-.184-.318q-.2-.1-.803-.25l-.736-.168q-1.103-.25-1.556-.753c-.301-.334-.451-.836-.451-1.539"/></svg>