<svg xmlns="http://www.w3.org/2000/svg" fill="none" viewBox="0 0 353 24"><path fill="#fff" d="M2.961 10.452H.77c-.218 0-.369-.034-.435-.1q-.1-.102-.1-.402V8.695c0-.2.033-.351.1-.418.066-.067.2-.1.435-.1h7.21c.217 0 .368.033.435.1.066.067.1.217.1.418V9.95c0 .2-.05.334-.117.401s-.218.1-.418.1H5.788v8.014c0 .217-.05.368-.117.435q-.125.1-.502.1H3.58q-.4 0-.5-.1c-.085-.067-.118-.218-.118-.435zm7.898 3.797v1.305c0 .652.1 1.07.301 1.271.15.168.385.235.703.235h.067c.3 0 .535-.067.702-.235.201-.2.301-.619.301-1.271v-1.305c0-.636-.1-1.07-.3-1.271-.168-.15-.402-.235-.703-.235h-.067c-.318 0-.552.084-.703.235-.2.2-.301.635-.301 1.271m4.768.1v1.088c0 .836-.084 1.472-.251 1.94a2.4 2.4 0 0 1-.803 1.121c-.552.435-1.405.653-2.576.653h-.201c-1.171 0-2.041-.218-2.576-.653a2.4 2.4 0 0 1-.803-1.12c-.168-.47-.251-1.105-.251-1.941v-1.07c0-.82.083-1.456.25-1.925a2.53 2.53 0 0 1 .804-1.137c.535-.435 1.405-.653 2.576-.653h.2c1.172 0 2.025.218 2.577.653.368.3.636.669.803 1.12.167.469.25 1.105.25 1.924m3.49-2.827c.585-.569 1.422-.87 2.492-.87h.15c1.038 0 1.774.302 2.226.87.401.536.602 1.439.602 2.744v1.254c0 .703-.067 1.288-.167 1.724a2.4 2.4 0 0 1-.603 1.087c-.568.552-1.338.82-2.341.82h-.184q-.954 0-1.556-.352v2.576c0 .251-.05.419-.134.486-.1.066-.285.1-.569.1h-1.271c-.285 0-.469-.034-.57-.117-.1-.067-.133-.234-.133-.469V11.338c0-.2.034-.334.134-.418.084-.067.234-.117.452-.117h.702c.201 0 .351.033.435.067.067.05.134.15.184.284l.117.368zm.619 2.376v2.141c0 .385.067.652.234.803.15.15.401.218.753.218h.15c.385 0 .653-.1.82-.335q.2-.3.2-1.456v-.719c0-.803-.066-1.305-.2-1.489-.167-.2-.435-.3-.837-.3h-.117c-.368 0-.619.083-.786.25-.15.15-.217.452-.217.887m8.718.351v1.305c0 .652.1 1.07.3 1.271.151.168.385.235.703.235h.067c.301 0 .535-.067.703-.235.2-.2.3-.619.3-1.271v-1.305c0-.636-.1-1.07-.3-1.271-.168-.15-.402-.235-.703-.235h-.067c-.318 0-.552.084-.702.235-.201.2-.301.635-.301 1.271m4.767.1v1.088c0 .836-.083 1.472-.25 1.94a2.4 2.4 0 0 1-.804 1.121c-.552.435-1.405.653-2.576.653h-.2c-1.172 0-2.041-.218-2.577-.653a2.4 2.4 0 0 1-.803-1.12c-.167-.47-.25-1.105-.25-1.941v-1.07c0-.82.083-1.456.25-1.925a2.53 2.53 0 0 1 .803-1.137c.535-.435 1.405-.653 2.576-.653h.201c1.171 0 2.024.218 2.576.653.368.3.636.669.803 1.12.168.469.251 1.105.251 1.924m5.715-3.145h1.439c.234 0 .401.034.485.1.084.068.15.201.184.402 0 .067.301 1.556.887 4.45h.05c.3-1.756.569-3.38.786-4.885.017-.184.067-.3.134-.368q.1-.1.351-.1h1.706c.184 0 .302.05.369.117.05.084.067.217.033.385a166 166 0 0 1-.97 4.316c-.368 1.572-.636 2.56-.803 2.978-.067.167-.15.284-.234.334s-.218.067-.385.067h-1.84c-.352 0-.57-.117-.636-.385-.318-1.137-.585-2.576-.82-4.316h-.067a46 46 0 0 1-.836 4.316c-.067.268-.268.385-.602.385H36.36c-.335 0-.552-.117-.636-.368-.167-.452-.451-1.489-.853-3.095a78 78 0 0 1-.937-4.232c-.05-.184-.033-.318.034-.385s.2-.117.401-.117h1.64c.167 0 .3.033.384.1.067.067.117.201.151.368.234 1.556.502 3.179.82 4.885h.067c.401-2.074.686-3.563.82-4.45.033-.217.083-.351.167-.418.083-.05.25-.084.518-.084m11.396 5.789h.184c.569 0 1.171-.067 1.773-.218.168-.033.268-.05.318-.05.168 0 .268.1.301.284l.134.837c.034.234.067.384.067.451 0 .201-.15.352-.435.452a7.7 7.7 0 0 1-2.526.402h-.318q-2.057 0-2.91-.854a2.4 2.4 0 0 1-.67-1.137c-.117-.435-.167-1.02-.167-1.74v-.937c0-1.455.335-2.476 1.004-3.078.569-.502 1.438-.753 2.626-.753h.234c1.171 0 2.024.285 2.526.837.536.602.803 1.589.803 2.994v.87c0 .318-.167.469-.485.469h-4.015v.133c0 .402.1.67.335.82.217.15.619.218 1.221.218m-1.556-2.911h1.84c.134 0 .201-.067.201-.218v-.267c0-.335-.067-.586-.167-.77-.134-.2-.401-.301-.77-.301h-.15c-.335 0-.569.084-.703.234q-.25.3-.25.904zm12.226 1.673v2.76c0 .167-.05.301-.134.368-.084.084-.234.117-.435.117h-1.539c-.217 0-.368-.034-.451-.117-.084-.067-.118-.2-.118-.368V8.16c0-.167.034-.285.117-.368.084-.067.235-.117.452-.117h1.54c.2 0 .35.05.434.117.084.083.134.2.134.368v5.453h.117l1.59-2.425c.15-.251.384-.385.702-.385h1.94c.184 0 .285.067.285.2 0 .068-.05.185-.134.319l-1.924 2.877c-.15.234-.217.401-.217.502 0 .117.067.284.217.502l2.058 3.245c.067.134.1.217.1.284 0 .184-.117.268-.351.268h-1.857c-.234 0-.418-.017-.518-.084q-.15-.075-.302-.35l-1.589-2.811zm9.99.25v-4.717c0-.167.033-.284.117-.368.083-.067.234-.117.451-.117h1.54c.2 0 .35.05.434.117.084.084.134.2.134.368v4.952q0 1.53-.753 2.208c-.535.468-1.472.703-2.844.703s-2.325-.235-2.844-.703q-.752-.678-.752-2.208v-4.952c0-.167.033-.284.117-.368.083-.067.234-.117.451-.117h1.54c.2 0 .35.05.434.117.084.084.134.2.134.368v4.718c0 .384.05.635.184.77.134.15.368.217.736.217.352 0 .603-.067.736-.218.117-.134.184-.385.184-.77m6.366-4.299h.05c.368-.602.987-.903 1.874-.903h.669c.167 0 .301.033.368.1s.117.184.117.368v1.221c0 .184-.033.302-.1.369q-.1.1-.352.1h-.501c-.62 0-1.038.117-1.272.351-.2.201-.284.586-.284 1.155v4.048c0 .167-.05.301-.134.368-.084.084-.234.117-.435.117h-1.539c-.218 0-.368-.034-.452-.117-.083-.067-.117-.2-.117-.368V11.27c0-.167.034-.284.117-.351.084-.067.234-.117.452-.117h.803c.184 0 .318.033.401.084a.7.7 0 0 1 .201.3zm3.85 1.79v-.217c0-.82.217-1.439.652-1.874.502-.502 1.355-.753 2.543-.753h.167c.937 0 1.757.1 2.443.302q.2.075.25.15c.034.067.05.15.034.284l-.184 1.372c-.033.218-.184.285-.451.218-.67-.15-1.272-.235-1.774-.235h-.017c-.367 0-.635.034-.769.1-.15.068-.218.185-.218.352v.05c0 .168.05.285.185.352.133.067.384.15.77.217l.785.167c.72.168 1.238.419 1.54.753.3.335.451.853.451 1.54v.25c0 1.757-1.104 2.627-3.279 2.627h-.167c-1.104 0-2.024-.151-2.794-.452-.15-.05-.25-.117-.284-.2-.034-.068-.034-.202 0-.386l.234-1.104c.05-.318.234-.418.569-.318.77.268 1.438.385 2.007.385h.05c.369 0 .62-.033.77-.117.134-.067.218-.2.218-.385v-.05a.36.36 0 0 0-.185-.318q-.2-.1-.803-.25l-.736-.168q-1.104-.25-1.555-.753c-.301-.334-.452-.836-.452-1.539m14.89-2.191c-.234 1.572-.669 3.312-1.304 5.236a35.5 35.5 0 0 1-2.359 5.453c-.117.235-.268.352-.468.352-.134 0-.285-.034-.486-.134l-.853-.368c-.3-.134-.435-.268-.435-.418 0-.067.017-.168.084-.285.569-1.154.903-1.823.97-2.007-.468-.168-.82-.535-1.087-1.138-.301-.669-.653-1.69-1.037-3.094q-.578-2.108-.853-3.614c-.034-.167-.017-.284.067-.368.083-.067.234-.117.434-.117h1.523c.184 0 .318.033.401.084.084.05.15.15.184.317.385 2.108.82 3.982 1.305 5.604h.084c.468-1.338.903-3.178 1.305-5.553q.025-.252.15-.352c.084-.067.218-.1.385-.1h1.539c.184 0 .318.05.385.117s.083.2.067.385m8.887-.1h1.439c.234 0 .401.033.485.1s.151.2.184.401c0 .067.301 1.556.887 4.45h.05c.301-1.756.569-3.38.786-4.885.017-.184.067-.3.134-.368q.1-.1.351-.1h1.707c.184 0 .301.05.368.117.05.084.066.217.033.385a168 168 0 0 1-.97 4.316c-.368 1.572-.636 2.56-.803 2.978-.067.167-.151.284-.234.334s-.218.067-.385.067h-1.84c-.352 0-.569-.117-.636-.385-.318-1.137-.586-2.576-.82-4.316h-.067a46 46 0 0 1-.836 4.316c-.067.268-.268.385-.602.385h-1.807c-.335 0-.552-.117-.636-.368-.167-.452-.451-1.489-.853-3.095a79 79 0 0 1-.937-4.232c-.05-.184-.033-.318.034-.385s.201-.117.401-.117h1.64c.167 0 .301.033.384.1.067.067.118.201.151.368.234 1.556.502 3.179.82 4.885h.067c.401-2.074.685-3.563.819-4.45.034-.217.084-.351.168-.418.083-.05.251-.084.518-.084m12.119 7.11h-.034c-.368.568-1.104.836-2.191.836h-.251c-.853 0-1.523-.218-1.991-.653-.485-.435-.719-1.087-.719-1.924v-.184c0-.903.251-1.555.769-1.924.519-.367 1.355-.551 2.526-.551h.117c.435 0 .837.033 1.171.066v-.35c0-.352-.1-.603-.284-.737-.201-.117-.535-.184-1.004-.184-.569 0-1.204.1-1.94.284-.201.05-.352.05-.419 0-.083-.05-.133-.15-.15-.317l-.134-.887c-.033-.15-.033-.268-.033-.335 0-.2.133-.351.401-.435a10.8 10.8 0 0 1 2.861-.368c1.288 0 2.208.285 2.743.82.418.435.636 1.138.636 2.091v4.969c0 .167-.05.3-.134.368-.084.067-.234.1-.435.1h-.786c-.201 0-.335-.017-.418-.067-.084-.05-.151-.15-.201-.318zm-.603-2.142v-.469a5 5 0 0 0-.803-.05h-.184q-.602 0-.853.15c-.167.101-.234.302-.234.603v.067c0 .301.067.502.234.602.151.117.385.168.703.168h.117c.334 0 .585-.084.786-.251.151-.134.234-.419.234-.82m7.257.652h.536c.167 0 .301.05.368.117.067.084.117.235.117.452v1.037c0 .234-.05.385-.117.452-.067.084-.201.117-.368.117h-1.272c-.836 0-1.422-.15-1.756-.485-.335-.318-.502-.887-.502-1.69V8.16c0-.167.033-.285.117-.368.084-.067.234-.117.452-.117h1.539c.201 0 .351.05.435.117.083.083.134.2.134.368v8.347c0 .134.016.218.067.251.033.05.117.067.25.067m6.519-.82v-4.717c0-.167.033-.284.117-.368.084-.067.234-.117.452-.117h1.539c.201 0 .351.05.435.117.083.084.134.2.134.368v4.952q0 1.53-.753 2.208c-.535.468-1.472.703-2.844.703s-2.325-.235-2.844-.703q-.753-.678-.753-2.208v-4.952c0-.167.034-.284.117-.368.084-.067.235-.117.452-.117h1.539c.201 0 .351.05.435.117.084.084.134.2.134.368v4.718c0 .384.05.635.184.77.134.15.368.217.736.217.351 0 .602-.067.736-.218.117-.134.184-.385.184-.77m9.495 1.422v.954c0 .251-.05.418-.117.502s-.218.117-.418.117h-1.339c-1.204 0-2.007-.2-2.375-.619-.335-.351-.485-1.02-.485-2.024v-3.463h-.904c-.167 0-.267-.017-.334-.084s-.084-.167-.084-.334v-.853c0-.201.017-.335.084-.402.05-.067.167-.117.351-.167l.887-.218V9.197c0-.167.033-.284.117-.368.083-.067.234-.117.451-.117h1.539c.201 0 .352.05.435.117.084.084.134.2.134.368v1.606h1.389c.167 0 .267.033.334.1s.101.184.101.385v1.12q0 .302-.101.402c-.067.067-.167.084-.334.084h-1.389v3.162c0 .3.034.485.134.585.1.117.318.168.653.168h.736c.2 0 .351.05.418.133.067.084.117.251.117.485m7.603-6.139v7.227c0 .167-.051.301-.134.368-.084.084-.234.117-.435.117h-1.539c-.218 0-.368-.034-.452-.117-.084-.067-.117-.2-.117-.368v-7.227c0-.167.033-.284.117-.368.084-.067.234-.117.452-.117h1.539c.201 0 .351.05.435.117.083.084.134.2.134.368m-1.238-1.12h-.201c-.903 0-1.355-.452-1.355-1.39v-.083c0-.92.452-1.388 1.355-1.388h.201c.903 0 1.355.468 1.355 1.388v.084c0 .937-.452 1.388-1.355 1.388m9.274 5.587v2.76c0 .167-.05.301-.133.368-.084.084-.235.117-.435.117h-1.539c-.218 0-.368-.034-.452-.117-.084-.067-.117-.2-.117-.368V8.16c0-.167.033-.285.117-.368.084-.067.234-.117.452-.117h1.539c.2 0 .351.05.435.117.083.083.133.2.133.368v5.453h.117l1.59-2.425c.15-.251.384-.385.702-.385h1.941c.184 0 .284.067.284.2 0 .068-.05.185-.134.319l-1.923 2.877c-.151.234-.218.401-.218.502 0 .117.067.284.218.502l2.057 3.245c.067.134.101.217.101.284 0 .184-.117.268-.352.268h-1.857c-.234 0-.418-.017-.518-.084q-.151-.075-.301-.35l-1.59-2.811zm7.885-1.506v1.305c0 .652.1 1.07.301 1.271.151.168.385.235.703.235h.067c.301 0 .535-.067.702-.235.201-.2.301-.619.301-1.271v-1.305c0-.636-.1-1.07-.301-1.271-.167-.15-.401-.235-.702-.235h-.067c-.318 0-.552.084-.703.235-.201.2-.301.635-.301 1.271m4.768.1v1.088c0 .836-.084 1.472-.251 1.94a2.4 2.4 0 0 1-.803 1.121c-.552.435-1.405.653-2.576.653h-.201c-1.171 0-2.041-.218-2.576-.653a2.4 2.4 0 0 1-.803-1.12c-.168-.47-.251-1.105-.251-1.941v-1.07c0-.82.083-1.456.251-1.925.167-.468.435-.836.803-1.137.535-.435 1.405-.653 2.576-.653h.201c1.171 0 2.024.218 2.576.653.368.3.636.669.803 1.12.167.469.251 1.105.251 1.924m5.849-3.697h.133c.971 0 1.69.235 2.125.686.401.435.619 1.171.619 2.208v4.969c0 .167-.05.301-.134.368-.084.084-.234.117-.435.117h-1.539c-.217 0-.368-.034-.452-.117-.083-.067-.117-.2-.117-.368V13.78c0-.368-.067-.636-.184-.77-.134-.134-.384-.217-.736-.217h-.1c-.368 0-.602.083-.736.217s-.184.402-.184.77v4.734c0 .167-.05.301-.134.368-.084.084-.234.117-.435.117h-1.539c-.218 0-.368-.034-.452-.117-.083-.067-.117-.2-.117-.368V11.27c0-.167.034-.284.117-.351.084-.067.234-.117.452-.117h.786c.201 0 .335.033.418.084q.126.075.201.3l.101.319h.05c.535-.57 1.288-.854 2.292-.854m9.706 6.775v.954c0 .251-.05.418-.117.502s-.217.117-.418.117h-1.338c-1.205 0-2.008-.2-2.376-.619-.334-.351-.485-1.02-.485-2.024v-3.463h-.903c-.167 0-.268-.017-.335-.084s-.083-.167-.083-.334v-.853c0-.201.016-.335.083-.402.05-.067.168-.117.352-.167l.886-.218V9.197c0-.167.034-.284.117-.368.084-.067.234-.117.452-.117h1.539c.201 0 .351.05.435.117.084.084.134.2.134.368v1.606h1.388c.168 0 .268.033.335.1s.1.184.1.385v1.12q0 .302-.1.402c-.067.067-.167.084-.335.084h-1.388v3.162c0 .3.033.485.134.585.1.117.317.168.652.168h.736c.201 0 .351.05.418.133.067.084.117.251.117.485m3.692-3.178v1.305c0 .652.1 1.07.301 1.271.151.168.385.235.703.235h.067c.301 0 .535-.067.702-.235.201-.2.301-.619.301-1.271v-1.305c0-.636-.1-1.07-.301-1.271-.167-.15-.401-.235-.702-.235h-.067c-.318 0-.552.084-.703.235-.201.2-.301.635-.301 1.271m4.768.1v1.088c0 .836-.084 1.472-.251 1.94a2.4 2.4 0 0 1-.803 1.121c-.552.435-1.405.653-2.577.653h-.2c-1.171 0-2.041-.218-2.576-.653a2.4 2.4 0 0 1-.803-1.12c-.168-.47-.251-1.105-.251-1.941v-1.07c0-.82.083-1.456.251-1.925.167-.468.435-.836.803-1.137.535-.435 1.405-.653 2.576-.653h.2c1.172 0 2.025.218 2.577.653.368.3.635.669.803 1.12.167.469.251 1.105.251 1.924m7.786-1.421h-2.66c-.168 0-.285-.017-.352-.084s-.083-.2-.083-.402v-1.154c0-.2.016-.318.083-.385q.1-.1.352-.1h5.654c.167 0 .284.033.368.1.067.067.117.201.117.385v.318c0 .435-.134.836-.368 1.188l-2.877 4.081h2.86c.168 0 .268.034.335.1.067.068.1.185.1.386v1.154q0 .3-.1.401c-.067.067-.167.084-.335.084h-5.754c-.352 0-.519-.15-.519-.485v-.385c0-.435.117-.82.368-1.188zm9.492 5.386h-.034c-.368.569-1.104.837-2.191.837h-.251c-.853 0-1.523-.218-1.991-.653-.485-.435-.719-1.087-.719-1.924v-.184c0-.903.251-1.555.769-1.924.519-.367 1.355-.551 2.526-.551h.117c.435 0 .837.033 1.171.066v-.35c0-.352-.1-.603-.284-.737-.201-.117-.535-.184-1.004-.184-.569 0-1.204.1-1.94.284-.201.05-.352.05-.419 0-.083-.05-.133-.15-.15-.317l-.134-.887c-.033-.15-.033-.268-.033-.335 0-.2.133-.351.401-.435a10.8 10.8 0 0 1 2.861-.368c1.288 0 2.208.285 2.743.82.418.435.636 1.138.636 2.091v4.969c0 .167-.05.3-.134.368-.084.067-.234.1-.435.1h-.786c-.201 0-.335-.017-.418-.067-.084-.05-.151-.15-.201-.318zm-.603-2.141v-.469a5 5 0 0 0-.803-.05h-.184q-.602 0-.853.15c-.167.101-.234.302-.234.603v.067c0 .301.067.502.234.602.151.117.385.168.703.168h.117c.334 0 .585-.084.786-.251.151-.134.234-.419.234-.82m18.176-4.647v1.772c0 1.914-.407 3.38-1.201 4.378-.815 1.019-2.159 1.507-4.033 1.507-1.873 0-3.217-.488-4.032-1.507-.814-.998-1.201-2.464-1.201-4.378v-1.772c0-1.914.387-3.36 1.201-4.379.815-.998 2.159-1.507 4.032-1.507s3.218.51 4.033 1.507c.794 1.019 1.201 2.465 1.201 4.379m-3.482 1.425v-1.079c0-1.324-.122-2.24-.326-2.729s-.672-.753-1.385-.753h-.081c-.733.02-1.202.264-1.405.753s-.306 1.405-.306 2.73v1.079c0 1.344.102 2.24.306 2.728.203.49.672.754 1.405.754h.081c.713 0 1.181-.244 1.385-.733s.326-1.405.326-2.75m12.929-1.344h-3.238c-.203 0-.346-.02-.427-.101-.082-.082-.102-.245-.102-.49V9.613c0-.245.02-.387.102-.469q.122-.122.427-.122h6.884c.203 0 .346.04.448.122.081.082.142.245.142.469v.386c0 .53-.163 1.019-.448 1.446l-3.502 4.97h3.482c.204 0 .326.04.407.122.082.081.122.224.122.468v1.405q0 .367-.122.49c-.081.08-.203.101-.407.101h-7.006c-.427 0-.631-.183-.631-.59v-.469c0-.53.143-.998.448-1.446zm9.906 4.746h.652c.204 0 .367.06.448.142.081.102.143.285.143.55v1.263c0 .285-.062.468-.143.55-.081.101-.244.142-.448.142h-1.548c-1.018 0-1.731-.183-2.138-.59-.408-.387-.611-1.08-.611-2.058v-2.199l-.672.428c-.265.163-.448.244-.53.244-.163 0-.224-.122-.224-.366v-1.894c0-.204.021-.347.102-.448a1.7 1.7 0 0 1 .387-.347l.937-.59V5.803c0-.203.041-.346.142-.448.102-.081.286-.142.55-.142h1.874c.244 0 .428.06.529.142.102.102.163.245.163.448v3.3l.917-.591c.244-.163.427-.245.529-.245.143 0 .224.123.224.367v1.894c0 .204-.04.367-.102.448a1.7 1.7 0 0 1-.387.346l-1.181.754v3.89c0 .162.021.264.082.305.04.061.142.081.305.081m9.492-2.455v2.141c0 .385.067.652.234.803.134.15.385.218.753.218h.151c.384 0 .652-.1.819-.335q.201-.3.201-1.456v-.719c0-.836-.084-1.355-.217-1.522-.151-.167-.435-.268-.837-.268h-.067c-.384 0-.652.084-.819.251-.151.15-.218.452-.218.887m0-2.794h.034q.727-.452 1.907-.452h.15c1.004 0 1.74.302 2.192.904.368.518.568 1.438.568 2.76v1.204c0 1.339-.284 2.276-.853 2.794-.602.569-1.555.837-2.86.837h-.335c-1.372 0-2.308-.268-2.81-.82-.452-.485-.669-1.271-.669-2.376V8.16c0-.167.033-.285.117-.368.067-.067.217-.117.435-.117h1.555c.201 0 .352.05.435.117.084.083.134.2.134.368zm10.274 5.889h.184a7.3 7.3 0 0 0 1.773-.218c.167-.033.268-.05.318-.05.167 0 .268.1.301.284l.134.837c.033.234.067.384.067.451 0 .201-.151.352-.435.452a7.7 7.7 0 0 1-2.526.402h-.318q-2.058 0-2.911-.854a2.4 2.4 0 0 1-.669-1.137c-.117-.435-.167-1.02-.167-1.74v-.937c0-1.455.334-2.476 1.003-3.078.569-.502 1.439-.753 2.627-.753h.234c1.171 0 2.024.285 2.526.837.535.602.803 1.589.803 2.994v.87c0 .318-.167.469-.485.469h-4.015v.133c0 .402.1.67.335.82.217.15.619.218 1.221.218m-1.556-2.911h1.84c.134 0 .201-.067.201-.218v-.267c0-.335-.067-.586-.167-.77-.134-.2-.402-.301-.77-.301h-.15c-.335 0-.569.084-.703.234q-.25.3-.251.904zm8.649-1.155h-2.66c-.167 0-.284-.016-.351-.083s-.084-.2-.084-.402v-1.154c0-.2.017-.318.084-.385q.1-.1.351-.1h5.655c.167 0 .284.033.368.1.067.067.117.201.117.385v.318c0 .435-.134.836-.368 1.188l-2.878 4.081h2.861c.167 0 .268.034.335.1.066.068.1.185.1.386v1.154q0 .3-.1.401c-.067.067-.168.084-.335.084h-5.755c-.351 0-.518-.15-.518-.485v-.385c0-.435.117-.82.368-1.188zm12.567-1.723h1.438c.235 0 .402.034.486.1.083.068.15.201.184.402 0 .067.301 1.556.886 4.45h.05c.302-1.756.569-3.38.787-4.885.016-.184.067-.3.134-.368q.1-.1.351-.1h1.706c.184 0 .301.05.368.117.05.084.067.217.034.385a168 168 0 0 1-.971 4.316c-.368 1.572-.635 2.56-.803 2.978-.067.167-.15.284-.234.334-.083.05-.217.067-.385.067h-1.84c-.351 0-.569-.117-.635-.385-.318-1.137-.586-2.576-.82-4.316h-.067a46 46 0 0 1-.836 4.316c-.067.268-.268.385-.603.385h-1.806c-.335 0-.552-.117-.636-.368-.167-.452-.452-1.489-.853-3.095a77 77 0 0 1-.937-4.232c-.05-.184-.034-.318.033-.385s.201-.117.402-.117h1.639c.168 0 .301.033.385.1.067.067.117.201.151.368.234 1.556.501 3.179.819 4.885h.067c.402-2.074.686-3.563.82-4.45.033-.217.084-.351.167-.418.084-.05.251-.084.519-.084m12.118 7.11h-.033c-.368.569-1.104.837-2.192.837h-.251c-.853 0-1.522-.218-1.99-.653-.486-.435-.72-1.087-.72-1.924v-.184c0-.903.251-1.555.77-1.924.518-.367 1.355-.551 2.526-.551h.117c.435 0 .836.033 1.171.066v-.35c0-.352-.1-.603-.284-.737-.201-.117-.536-.184-1.004-.184-.569 0-1.205.1-1.941.284-.2.05-.351.05-.418 0-.084-.05-.134-.15-.15-.317l-.134-.887c-.034-.15-.034-.268-.034-.335 0-.2.134-.351.402-.435a10.8 10.8 0 0 1 2.86-.368c1.288 0 2.209.285 2.744.82.418.435.636 1.138.636 2.091v4.969c0 .167-.051.3-.134.368-.084.067-.235.1-.435.1h-.787c-.2 0-.334-.017-.418-.067s-.15-.15-.2-.318zm-.602-2.141v-.469a5 5 0 0 0-.803-.05h-.184q-.603 0-.853.15c-.168.101-.234.302-.234.603v.067c0 .301.066.502.234.602.15.117.385.168.702.168h.117c.335 0 .586-.084.787-.251.15-.134.234-.419.234-.82m6.37-4.467h.051c.368-.602.987-.903 1.873-.903h.669c.168 0 .302.033.368.1.067.067.118.184.118.368v1.221c0 .184-.034.302-.101.369q-.1.1-.351.1h-.502c-.619 0-1.037.117-1.271.351-.201.201-.285.586-.285 1.155v4.048c0 .167-.05.301-.134.368-.083.084-.234.117-.435.117h-1.539c-.217 0-.368-.034-.451-.117-.084-.067-.117-.2-.117-.368V11.27c0-.167.033-.284.117-.351.083-.067.234-.117.451-.117h.803c.184 0 .318.033.402.084q.125.1.201.3zm8.468 4.3v-4.718c0-.167.033-.284.117-.368.083-.067.234-.117.451-.117h1.539c.201 0 .352.05.435.117.084.084.134.2.134.368v4.952q0 1.53-.753 2.208c-.535.468-1.472.703-2.844.703s-2.325-.235-2.843-.703q-.753-.678-.753-2.208v-4.952c0-.167.033-.284.117-.368.084-.067.234-.117.452-.117h1.539c.2 0 .351.05.435.117.083.084.133.2.133.368v4.718c0 .384.051.635.184.77.134.15.368.217.736.217.352 0 .603-.067.737-.218.117-.134.184-.385.184-.77m8.675-5.354h.134c.97 0 1.689.235 2.124.686.402.435.619 1.171.619 2.208v4.969c0 .167-.05.301-.134.368-.083.084-.234.117-.435.117h-1.539c-.217 0-.368-.034-.451-.117-.084-.067-.118-.2-.118-.368V13.78c0-.368-.066-.636-.184-.77-.133-.134-.384-.217-.736-.217h-.1c-.368 0-.602.083-.736.217s-.184.402-.184.77v4.734c0 .167-.05.301-.134.368-.084.084-.234.117-.435.117h-1.539c-.217 0-.368-.034-.452-.117-.083-.067-.117-.2-.117-.368V11.27c0-.167.034-.284.117-.351.084-.067.235-.117.452-.117h.786c.201 0 .335.033.419.084q.125.075.2.3l.101.319h.05c.535-.57 1.288-.854 2.292-.854m7.147 5.103v2.76c0 .167-.05.301-.134.368-.083.084-.234.117-.435.117h-1.539c-.217 0-.368-.034-.451-.117-.084-.067-.118-.2-.118-.368V8.16c0-.167.034-.285.118-.368.083-.067.234-.117.451-.117h1.539c.201 0 .352.05.435.117.084.083.134.2.134.368v5.453h.117l1.589-2.425c.151-.251.385-.385.703-.385h1.94c.184 0 .285.067.285.2 0 .068-.05.185-.134.319l-1.924 2.877c-.15.234-.217.401-.217.502 0 .117.067.284.217.502l2.058 3.245c.067.134.1.217.1.284 0 .184-.117.268-.351.268h-1.857c-.234 0-.418-.017-.519-.084q-.15-.075-.301-.35l-1.589-2.811zm7.885-1.506v1.305c0 .652.1 1.07.301 1.271.15.168.385.235.702.235h.067c.301 0 .536-.067.703-.235.201-.2.301-.619.301-1.271v-1.305c0-.636-.1-1.07-.301-1.271-.167-.15-.402-.235-.703-.235h-.067c-.317 0-.552.084-.702.235-.201.2-.301.635-.301 1.271m4.767.1v1.088c0 .836-.083 1.472-.251 1.94a2.4 2.4 0 0 1-.802 1.121c-.553.435-1.406.653-2.577.653h-.2c-1.171 0-2.041-.218-2.577-.653a2.4 2.4 0 0 1-.803-1.12c-.167-.47-.251-1.105-.251-1.941v-1.07c0-.82.084-1.456.251-1.925.168-.468.435-.836.803-1.137.536-.435 1.406-.653 2.577-.653h.2c1.171 0 2.024.218 2.577.653.368.3.635.669.802 1.12.168.469.251 1.105.251 1.924m-5.102-5.754 2.627-2.242c.1-.1.217-.15.317-.15.118 0 .235.083.335.217l.803 1.037c.067.1.1.184.1.285 0 .133-.1.267-.267.401l-2.643 1.807a.6.6 0 0 1-.335.117c-.134 0-.268-.067-.402-.234l-.501-.586c-.134-.15-.184-.284-.184-.385 0-.1.05-.2.15-.267m10.817 2.61h1.439c.234 0 .402.033.485.1.084.067.151.2.184.401 0 .067.301 1.556.887 4.45h.05c.301-1.756.569-3.38.786-4.885.017-.184.067-.3.134-.368q.1-.1.351-.1h1.707c.184 0 .301.05.368.117.05.084.067.217.033.385a163 163 0 0 1-.97 4.316c-.368 1.572-.636 2.56-.803 2.978-.067.167-.151.284-.234.334s-.218.067-.385.067h-1.84c-.351 0-.569-.117-.636-.385-.318-1.137-.585-2.576-.82-4.316h-.066a46 46 0 0 1-.837 4.316c-.067.268-.268.385-.602.385h-1.807c-.334 0-.552-.117-.636-.368-.167-.452-.451-1.489-.853-3.095a79 79 0 0 1-.937-4.232c-.05-.184-.033-.318.034-.385s.201-.117.401-.117h1.64c.167 0 .301.033.385.1.067.067.117.201.15.368.234 1.556.502 3.179.82 4.885h.067c.401-2.074.686-3.563.819-4.45.034-.217.084-.351.168-.418.083-.05.251-.084.518-.084"/></svg>