<svg xmlns="http://www.w3.org/2000/svg" fill="none" viewBox="0 0 102 36"><path fill="#fff" d="M1.044.868h7.128V13H5.814V2.92H3.402V13H1.044zM10.254 13V1.048c.667-.144 1.567-.234 2.467-.234 1.404 0 2.502.198 3.294.936.72.63 1.044 1.638 1.044 2.664 0 1.314-.396 2.232-1.026 2.916-.756.792-1.98 1.152-2.952 1.152h-.468V13zm2.359-10.188v3.744c.108.036.234.036.378.036 1.188 0 1.728-.846 1.728-1.98 0-1.062-.432-1.89-1.53-1.89-.216 0-.432.036-.576.09M18.482.868h2.088V3.55c0 2.232-.145 4.32-.235 5.58h.037c.341-1.044.954-2.628 1.314-3.564L23.468.868h2.142V13h-2.07v-2.736c0-2.43.09-4.23.143-5.454h-.035c-.27 1.098-.81 2.556-1.206 3.564L20.66 13h-2.178zm12.093 0h7.128V13h-2.358V2.92h-2.412V13h-2.358zM39.786 13V1.048c.666-.144 1.566-.234 2.466-.234 1.404 0 2.502.198 3.294.936.72.63 1.044 1.638 1.044 2.664 0 1.314-.396 2.232-1.026 2.916-.756.792-1.98 1.152-2.952 1.152h-.468V13zm2.358-10.188v3.744c.108.036.234.036.378.036 1.188 0 1.728-.846 1.728-1.98 0-1.062-.432-1.89-1.53-1.89-.216 0-.432.036-.576.09M48.013.868H50.1V3.55c0 2.232-.144 4.32-.234 5.58h.036c.342-1.044.954-2.628 1.314-3.564L52.999.868h2.142V13h-2.07v-2.736c0-2.43.09-4.23.144-5.454h-.036c-.27 1.098-.81 2.556-1.206 3.564L50.19 13h-2.178zM62.37 5.71v1.962H59.6v3.276h3.132V13h-5.49V.868h5.274V2.92H59.6v2.79zM71.957 13l-.216-4.248c-.054-1.152-.144-2.718-.108-4.014h-.054a53 53 0 0 1-.774 3.726l-1.044 4.338h-1.674L67.08 8.536c-.234-.972-.558-2.484-.738-3.798h-.054a134 134 0 0 1-.18 4.05L65.91 13h-2.034L64.757.868h2.484l.972 4.392c.342 1.53.648 2.88.864 4.248h.036c.18-1.35.45-2.718.774-4.248l.954-4.392h2.484L74.063 13zm8.96-7.29v1.962h-2.773v3.276h3.132V13h-5.49V.868h5.274V2.92h-2.916v2.79zM5.147 32.228H2.97L2.43 35H.144l2.628-12.132h2.826L7.956 35H5.67zm-1.944-1.836h1.728l-.396-2.538A92 92 0 0 1 4.14 25.1h-.054c-.126.81-.306 2.07-.432 2.772zm6.084-7.524h2.358v4.86h2.466v-4.86h2.358V35h-2.358v-5.076h-2.466V35H9.288zM19.866 35v-9.954h-2.142v-2.178h6.66v2.178h-2.16V35zm5.752-12.132h2.088v2.682c0 2.232-.144 4.32-.234 5.58h.036c.342-1.044.954-2.628 1.314-3.564l1.782-4.698h2.142V35h-2.07v-2.736c0-2.43.09-4.23.144-5.454h-.036c-.27 1.098-.81 2.556-1.206 3.564L27.796 35h-2.178zm9.229 0h6.192v2.016h-3.852v2.538c.342-.072.612-.09.954-.09 1.044 0 1.962.324 2.628.9.72.63 1.152 1.584 1.152 2.808 0 1.17-.36 2.106-1.008 2.754-.828.882-2.124 1.296-3.87 1.296-.9 0-1.656-.054-2.196-.126zm2.358 6.408v3.888c.162.036.324.036.522.036.558 0 1.008-.216 1.296-.576.306-.36.45-.864.45-1.404 0-.558-.162-1.062-.468-1.404a1.63 1.63 0 0 0-1.26-.594q-.297 0-.54.054m6.132-6.408h2.088v2.682c0 2.232-.144 4.32-.234 5.58h.036c.342-1.044.954-2.628 1.314-3.564l1.782-4.698h2.142V35h-2.07v-2.736c0-2.43.09-4.23.144-5.454h-.036c-.27 1.098-.81 2.556-1.206 3.564L45.515 35h-2.178zm12.63-.144c2.935 0 3.763 3.222 3.763 5.994 0 4.572-1.62 6.426-3.924 6.426-2.754 0-3.834-2.916-3.834-6.246 0-3.312 1.313-6.174 3.996-6.174m-.09 2.052c-.936 0-1.458 1.548-1.458 4.158 0 2.754.523 4.158 1.477 4.158.99 0 1.367-1.8 1.367-4.266 0-2.124-.323-4.05-1.386-4.05M62.3 35v-9.954h-2.142v-2.178h6.66v2.178h-2.16V35zm5.753-12.132h2.088v2.682c0 2.232-.144 4.32-.234 5.58h.036c.342-1.044.954-2.628 1.314-3.564l1.782-4.698h2.142V35h-2.07v-2.736c0-2.43.09-4.23.144-5.454h-.036c-.27 1.098-.81 2.556-1.206 3.564L70.23 35h-2.178zm9.228 0h2.304v5.274h.18l1.98-5.274h2.592l-2.79 5.616c1.242.468 1.656 1.602 1.998 3.078.27 1.17.468 2.322.828 3.438h-2.358c-.288-.864-.468-1.854-.666-2.808-.288-1.422-.612-2.34-1.584-2.34h-.18V35H77.28zm11.4-.144c2.934 0 3.762 3.222 3.762 5.994 0 4.572-1.62 6.426-3.924 6.426-2.754 0-3.834-2.916-3.834-6.246 0-3.312 1.314-6.174 3.996-6.174m-.09 2.052c-.936 0-1.458 1.548-1.458 4.158 0 2.754.522 4.158 1.476 4.158.99 0 1.368-1.8 1.368-4.266 0-2.124-.324-4.05-1.386-4.05m5.354 10.188V23.048c.72-.162 1.656-.234 2.682-.234 1.134 0 2.232.144 3.078.864.648.54.918 1.35.918 2.196 0 1.08-.558 2.124-1.764 2.646v.072c1.404.396 2.16 1.566 2.16 2.898 0 1.008-.324 1.782-.9 2.376-.72.792-1.944 1.224-3.978 1.224-.9 0-1.656-.054-2.196-.126m2.358-10.314v3.204h.504c.846 0 1.494-.72 1.494-1.71 0-.882-.414-1.566-1.386-1.566-.252 0-.468.018-.612.072m0 4.95v3.636c.144.036.306.036.522.036.954 0 1.746-.576 1.746-1.818 0-1.206-.828-1.836-1.764-1.854z"/></svg>