<svg xmlns="http://www.w3.org/2000/svg" fill="none" viewBox="0 0 112 30"><rect width="110.554" height="30" x=".723" fill="#e6ff00" rx="8"/><rect width="109.554" height="29" x="1.223" y=".5" stroke="#fff" stroke-opacity=".25" rx="7.5"/><path fill="#1e1e1e" d="M90.456 18.552v-1.061l3.656-4.585v-.06h-3.536v-1.385h5.581v1.14l-3.48 4.506v.06h3.6v1.385z"/><path fill="#1e1e1e" d="M85.267 18.695q-.674 0-1.214-.24a2 2 0 0 1-.85-.72q-.31-.476-.31-1.172 0-.6.222-.993.222-.392.605-.628.383-.235.864-.355a7 7 0 0 1 1.001-.18q.624-.065 1.011-.116.389-.055.563-.166.18-.115.18-.355v-.028q0-.522-.309-.808-.31-.285-.89-.286-.615 0-.975.268a1.33 1.33 0 0 0-.48.632l-1.56-.222q.184-.645.609-1.08.425-.438 1.039-.655.615-.222 1.357-.222.513 0 1.02.12.508.12.928.397.42.273.674.743.258.471.259 1.178v4.745h-1.607v-.974h-.055a2 2 0 0 1-.43.554q-.272.254-.687.411a2.8 2.8 0 0 1-.965.152m.434-1.228q.503 0 .872-.198.37-.203.568-.536.203-.332.203-.724v-.836a.8.8 0 0 1-.268.12q-.184.056-.415.097-.23.042-.457.074l-.393.055q-.373.051-.669.166a1.1 1.1 0 0 0-.466.324.8.8 0 0 0-.171.526q0 .462.337.697t.859.235"/><path fill="#1e1e1e" d="M78.342 18.552v-7.09h1.62v1.181h.074q.194-.615.665-.946a1.83 1.83 0 0 1 1.085-.337q.138 0 .31.014.174.01.29.032v1.537a2 2 0 0 0-.337-.064 3 3 0 0 0-.439-.033 1.7 1.7 0 0 0-.821.199q-.36.195-.568.54t-.208.799v4.168z"/><path fill="#1e1e1e" d="M73.918 18.69q-1.066 0-1.842-.442a3 3 0 0 1-1.186-1.265q-.416-.822-.416-1.935 0-1.095.416-1.92.42-.831 1.172-1.293.753-.466 1.768-.466.656 0 1.237.212.587.208 1.035.647.452.438.71 1.117.26.675.26 1.606v.513h-5.813v-1.127h4.21a1.8 1.8 0 0 0-.208-.854 1.5 1.5 0 0 0-.567-.595 1.6 1.6 0 0 0-.84-.217q-.513 0-.9.25-.388.243-.606.646a1.86 1.86 0 0 0-.217.872v.983q0 .62.227 1.062.225.438.632.674.406.23.951.23.364 0 .66-.1.296-.107.513-.31.216-.203.328-.503l1.56.175a2.43 2.43 0 0 1-.563 1.08 2.75 2.75 0 0 1-1.053.712q-.642.249-1.468.249"/><path fill="#1e1e1e" d="M69.6 11.461v1.293h-4.076v-1.293zm-3.07-1.698h1.671v6.656q0 .338.102.518.105.175.277.24.17.064.379.064.156 0 .286-.023.135-.023.203-.041l.282 1.306q-.134.046-.384.102a3 3 0 0 1-.6.064 2.7 2.7 0 0 1-1.13-.189 1.76 1.76 0 0 1-.8-.655q-.29-.444-.286-1.108z"/><path fill="#1e1e1e" d="M59.731 11.461h1.671v7.498q0 .765-.29 1.265-.291.498-.84.743-.55.244-1.335.244-.092 0-.17-.004-.08 0-.171-.005V19.84q.069.005.124.005.056.005.116.005.48 0 .688-.236.207-.231.207-.678zm.831-1.006a.98.98 0 0 1-.688-.263.85.85 0 0 1-.281-.642q0-.378.281-.642a.97.97 0 0 1 .688-.267q.397 0 .679.268.285.263.286.641 0 .374-.286.642a.96.96 0 0 1-.679.263"/><path fill="#1e1e1e" d="M54.45 18.695q-.675 0-1.214-.24a2 2 0 0 1-.85-.72q-.309-.476-.309-1.172 0-.6.222-.993.221-.392.604-.628.384-.235.864-.355a7 7 0 0 1 1.001-.18q.624-.065 1.011-.116.389-.055.564-.166.18-.115.18-.355v-.028q0-.522-.31-.808-.31-.285-.89-.286-.615 0-.975.268a1.33 1.33 0 0 0-.48.632l-1.56-.222q.184-.645.61-1.08.424-.438 1.038-.655.615-.222 1.357-.222.513 0 1.02.12.508.12.928.397.42.273.674.743.26.471.259 1.178v4.745h-1.607v-.974h-.055a2 2 0 0 1-.43.554q-.271.254-.687.411a2.8 2.8 0 0 1-.965.152m.434-1.228q.503 0 .872-.198.37-.203.568-.536.204-.332.203-.724v-.836a.8.8 0 0 1-.267.12q-.186.056-.416.097-.23.042-.457.074l-.392.055q-.375.051-.67.166a1.1 1.1 0 0 0-.466.324.8.8 0 0 0-.17.526q0 .462.336.697.337.235.859.235"/><path fill="#1e1e1e" d="M46.995 18.677a2.7 2.7 0 0 1-1.495-.43q-.66-.429-1.044-1.246-.383-.817-.383-1.985 0-1.182.388-1.994.392-.817 1.057-1.233.664-.42 1.482-.42.623 0 1.025.212.402.208.637.504.235.29.365.549h.069V9.098h1.676v9.454h-1.644v-1.117h-.101q-.13.26-.374.55-.245.285-.647.489-.4.203-1.01.203m.467-1.371q.53 0 .904-.286.375-.29.568-.808.195-.518.194-1.205 0-.688-.194-1.196a1.7 1.7 0 0 0-.563-.79q-.37-.28-.91-.28-.558 0-.932.29-.374.291-.563.803-.19.513-.19 1.173 0 .664.19 1.186.194.517.568.817.378.296.928.296"/><path fill="#1e1e1e" d="M39.083 18.695q-.675 0-1.215-.24a2 2 0 0 1-.849-.72q-.31-.476-.31-1.172 0-.6.222-.993.222-.392.605-.628.383-.235.863-.355a7 7 0 0 1 1.002-.18q.624-.065 1.011-.116.388-.055.563-.166.18-.115.18-.355v-.028q0-.522-.309-.808-.31-.285-.89-.286-.615 0-.975.268-.355.267-.48.632l-1.56-.222q.184-.645.609-1.08.425-.438 1.039-.655.613-.222 1.357-.222.513 0 1.02.12.508.12.928.397.42.273.674.743.258.471.259 1.178v4.745H41.22v-.974h-.055a2 2 0 0 1-.43.554q-.271.254-.688.411a2.8 2.8 0 0 1-.964.152m.434-1.228q.503 0 .872-.198.369-.203.568-.536.203-.332.203-.724v-.836a.8.8 0 0 1-.268.12q-.184.056-.415.097-.23.042-.457.074l-.393.055q-.373.051-.67.166a1.1 1.1 0 0 0-.465.324.8.8 0 0 0-.171.526q0 .462.337.697.336.235.858.235m2.419 3.772q-.596 0-.998-.314-.397-.314-.466-.905a1.7 1.7 0 0 1 .06-.73 1.8 1.8 0 0 1 .397-.687q.286-.318.757-.536l1.14.485q-.429.24-.72.508a.83.83 0 0 0-.29.628q0 .222.106.341.11.12.35.12a.9.9 0 0 0 .305-.046q.134-.045.227-.083l.166.942a2.4 2.4 0 0 1-.425.185 1.8 1.8 0 0 1-.61.092"/><path fill="#1e1e1e" d="M35.467 9.098v9.454h-1.672V9.098z"/><path fill="#1e1e1e" d="M28.897 21.36q-.9 0-1.546-.246-.646-.24-1.039-.646a2.24 2.24 0 0 1-.545-.9l1.505-.365q.102.208.296.411.194.208.521.342.333.138.836.138.71 0 1.177-.346.466-.342.466-1.126v-1.344h-.083q-.129.26-.378.531-.244.273-.651.457-.402.185-1.011.185a2.9 2.9 0 0 1-1.482-.384q-.66-.387-1.053-1.154-.387-.77-.387-1.93 0-1.167.387-1.97.393-.81 1.058-1.224.665-.42 1.482-.42.623 0 1.024.212.407.208.647.504.24.29.364.549h.093V11.46h1.648v7.207q0 .91-.434 1.505-.434.596-1.187.89-.751.297-1.708.296m.014-4.22q.531 0 .905-.259.375-.258.568-.743.194-.485.194-1.164 0-.67-.194-1.172a1.68 1.68 0 0 0-.563-.78q-.37-.282-.91-.282-.558 0-.932.291-.374.29-.564.799-.189.503-.189 1.145 0 .65.19 1.14.194.484.567.757.38.268.928.268"/><path fill="#1e1e1e" d="M24.411 13.825q0 1.528-.572 2.618-.569 1.084-1.551 1.662-.98.576-2.221.577-1.242 0-2.225-.577-.98-.582-1.551-1.667-.568-1.089-.568-2.613 0-1.529.568-2.613.572-1.09 1.55-1.666.984-.577 2.226-.577t2.22.577q.984.577 1.552 1.666.572 1.085.572 2.613m-1.722 0q0-1.076-.337-1.814-.333-.744-.923-1.122a2.45 2.45 0 0 0-1.362-.383q-.771 0-1.362.383-.59.378-.928 1.122-.332.738-.332 1.814 0 1.075.332 1.819.337.738.928 1.122a2.47 2.47 0 0 0 1.362.378q.771 0 1.362-.378.591-.384.923-1.122.337-.744.337-1.819"/></svg>