<svg xmlns="http://www.w3.org/2000/svg" fill="none" viewBox="0 0 158 78"><path fill="#fff" d="M151.374 60.037c0-1.032-.696-1.224-.888-1.272h4.704c-.168.024-1.296.288-2.112 2.76l-4.392 13.224h-1.92l-3.336-10.08-3.504 10.08h-1.848l-4.416-13.32c-.792-2.352-1.848-2.616-2.064-2.664h5.376c-.096.024-.696.168-.696 1.2 0 .36.096.792.288 1.392l3 9.024 3.024-8.472-.216-.696c-.672-2.16-1.512-2.424-1.68-2.448h4.896c-.36.12-.792.384-.792 1.248 0 .336.096.768.288 1.344l3 9.024 3.072-9.12c.168-.504.216-.912.216-1.224"/><path fill="#fff" d="M131.104 66.541c0 4.728-3.24 8.568-8.064 8.568-4.56 0-7.632-3.528-7.632-8.16 0-4.848 3.408-8.568 8.112-8.568 4.56 0 7.584 3.504 7.584 8.16m-2.664.6c0-3.96-2.136-6.888-5.448-6.888-2.736 0-4.896 2.256-4.896 5.976 0 4.176 2.232 6.984 5.448 6.984 2.76 0 4.896-2.352 4.896-6.072m-2.256-12.864-4.632 3.672 1.368-3.672z"/><path fill="#fff" d="M114.767 74.75h-4.176l-2.952-5.28c-.6-1.057-1.056-1.465-1.776-1.465h-.408v4.32c0 2.112.912 2.4 1.152 2.424h-4.872c.192-.024 1.152-.264 1.152-2.424v-11.04c0-2.184-1.08-2.472-1.296-2.52h6.144c3.432 0 5.376 2.136 5.376 4.536 0 1.968-1.296 4.056-4.104 4.344.408.168.84.672 1.224 1.344l2.424 4.176c.768 1.296 1.8 1.512 2.112 1.584m-4.344-11.353c0-1.512-1.08-2.952-3.192-2.952h-1.8v6h1.8c2.304 0 3.192-1.464 3.192-3.048"/><path fill="#fff" d="m100.499 70.91-.648 3.84H89.603c.168-.025 1.152-.24 1.152-2.569V61.237c0-2.16-1.08-2.424-1.296-2.472h10.008v3.576c-.336-1.032-.816-1.896-2.76-1.896H93.42v5.328h2.76c1.584 0 1.848-.648 1.896-.792v3.288c-.048-.144-.288-.792-1.848-.792H93.42v5.568h3.48c2.112 0 2.832-.552 3.6-2.136"/><path fill="#fff" d="m88.463 71.077-.552 3.672H77.638c.144 0 1.056-.216 1.056-2.688V61.237c0-2.16-.936-2.424-1.127-2.472h4.896c-.216.024-1.176.288-1.176 2.472v11.808h3.36c2.352 0 2.927-.312 3.816-1.968"/><path fill="#fff" d="m76.474 71.077-.552 3.672H65.65c.144 0 1.056-.216 1.056-2.688V61.237c0-2.16-.936-2.424-1.128-2.472h4.896c-.216.024-1.176.288-1.176 2.472v11.808h3.36c2.352 0 2.928-.312 3.816-1.968"/><path fill="#fff" d="M62.913 72.445c0 2.04.96 2.28 1.152 2.304h-4.968c.168-.024 1.176-.216 1.176-2.304V61.141c0-2.04-.984-2.328-1.176-2.376h4.968c-.144.024-1.152.288-1.152 2.376z"/><path fill="#fff" d="M58.456 74.75H54.28l-2.952-5.28c-.6-1.057-1.056-1.465-1.776-1.465h-.408v4.32c0 2.112.912 2.4 1.152 2.424h-4.872c.192-.024 1.152-.264 1.152-2.424v-11.04c0-2.184-1.08-2.472-1.296-2.52h6.144c3.432 0 5.376 2.136 5.376 4.536 0 1.968-1.296 4.056-4.104 4.344.408.168.84.672 1.224 1.344l2.424 4.176c.768 1.296 1.8 1.512 2.112 1.584m-4.344-11.353c0-1.512-1.08-2.952-3.192-2.952h-1.8v6h1.8c2.304 0 3.192-1.464 3.192-3.048"/><path fill="#fff" d="M42.669 72.301c0 2.136.912 2.424 1.152 2.448h-4.992c.192-.024 1.176-.264 1.176-2.448v-4.824h-7.656v4.824c0 2.136.912 2.424 1.152 2.448h-4.968c.192-.024 1.152-.264 1.152-2.448V61.213c0-2.136-.984-2.4-1.176-2.448H33.5c-.144.024-1.152.24-1.152 2.448v4.56h7.656v-4.56c0-2.16-.984-2.424-1.2-2.448h5.016c-.144.024-1.152.24-1.152 2.448z"/><path fill="#fff" d="M27.408 62.51c-.432-1.177-.888-2.065-2.856-2.065h-2.688v11.856c0 2.16.96 2.424 1.2 2.448h-5.112c.192-.024 1.176-.24 1.176-2.448V60.445h-2.976c-1.704 0-2.088.912-2.568 2.064.12-1.248.216-2.496.312-3.744H27.12z"/><path fill="#fff" d="M7.1 72.445c0 2.04.913 2.28 1.105 2.304H3.62c.192-.024 1.104-.24 1.104-2.304v-5.832c0-1.704-.576-2.016-1.248-2.016h-.288L7.1 63.013zm.217-12.504c0 .864-.6 1.56-1.584 1.56s-1.608-.696-1.608-1.56.624-1.536 1.608-1.536 1.584.672 1.584 1.536"/><path fill="#fff" d="M144.266 33.037c0-1.032-.696-1.224-.888-1.272h4.704c-.168.024-1.296.288-2.112 2.76l-4.392 13.224h-1.92l-3.336-10.08-3.504 10.08h-1.848l-4.416-13.32c-.792-2.352-1.848-2.616-2.064-2.664h5.376c-.096.024-.696.168-.696 1.2 0 .36.096.792.288 1.392l3 9.024 3.024-8.472-.216-.696c-.672-2.16-1.512-2.424-1.68-2.448h4.896c-.36.12-.792.384-.792 1.248 0 .336.096.768.288 1.344l3 9.024 3.072-9.12c.168-.504.216-.912.216-1.224"/><path fill="#fff" d="M123.996 39.541c0 4.728-3.24 8.568-8.064 8.568-4.56 0-7.632-3.528-7.632-8.16 0-4.848 3.408-8.568 8.112-8.568 4.56 0 7.584 3.504 7.584 8.16m-2.664.6c0-3.96-2.136-6.888-5.448-6.888-2.736 0-4.896 2.256-4.896 5.976 0 4.176 2.232 6.984 5.448 6.984 2.76 0 4.896-2.352 4.896-6.072m-2.256-12.864-4.632 3.672 1.368-3.672z"/><path fill="#fff" d="M107.659 47.75h-4.176l-2.952-5.28c-.6-1.057-1.056-1.465-1.776-1.465h-.408v4.32c0 2.112.912 2.4 1.152 2.424h-4.872c.192-.024 1.152-.264 1.152-2.424v-11.04c0-2.184-1.08-2.472-1.296-2.52h6.144c3.432 0 5.376 2.136 5.376 4.536 0 1.968-1.296 4.056-4.104 4.344.408.168.84.672 1.224 1.344l2.424 4.176c.768 1.296 1.8 1.512 2.112 1.584m-4.344-11.353c0-1.512-1.08-2.952-3.192-2.952h-1.8v6h1.8c2.304 0 3.192-1.464 3.192-3.048"/><path fill="#fff" d="M92.987 39.541c0 4.728-3.24 8.568-8.064 8.568-4.56 0-7.632-3.528-7.632-8.16 0-4.848 3.408-8.568 8.112-8.568 4.56 0 7.584 3.504 7.584 8.16m-2.664.6c0-3.96-2.136-6.888-5.448-6.888-2.736 0-4.896 2.256-4.896 5.976 0 4.176 2.232 6.984 5.448 6.984 2.76 0 4.896-2.352 4.896-6.072"/><path fill="#fff" d="M76.65 47.75h-4.176l-2.952-5.28c-.6-1.057-1.056-1.465-1.776-1.465h-.408v4.32c0 2.112.912 2.4 1.152 2.424h-4.872c.192-.024 1.152-.264 1.152-2.424v-11.04c0-2.184-1.08-2.472-1.296-2.52h6.144c3.432 0 5.376 2.136 5.376 4.536 0 1.968-1.296 4.056-4.104 4.344.408.168.84.672 1.224 1.344l2.424 4.176c.768 1.296 1.8 1.512 2.112 1.584m-4.344-11.353c0-1.512-1.08-2.952-3.192-2.952h-1.8v6h1.8c2.304 0 3.192-1.464 3.192-3.048"/><path fill="#fff" d="M62.833 47.75h-4.176l-2.952-5.28c-.6-1.057-1.056-1.465-1.776-1.465h-.408v4.32c0 2.112.912 2.4 1.152 2.424h-4.872c.192-.024 1.152-.264 1.152-2.424v-11.04c0-2.184-1.08-2.472-1.296-2.52h6.144c3.432 0 5.376 2.136 5.376 4.536 0 1.968-1.296 4.056-4.104 4.344.408.168.84.672 1.224 1.344l2.424 4.176c.768 1.296 1.8 1.512 2.112 1.584M58.49 36.396c0-1.512-1.08-2.952-3.192-2.952h-1.8v6h1.8c2.304 0 3.192-1.464 3.192-3.048"/><path fill="#fff" d="M48.161 39.541c0 4.728-3.24 8.568-8.064 8.568-4.56 0-7.632-3.528-7.632-8.16 0-4.848 3.408-8.568 8.112-8.568 4.56 0 7.584 3.504 7.584 8.16m-2.664.6c0-3.96-2.136-6.888-5.448-6.888-2.736 0-4.896 2.256-4.896 5.976 0 4.176 2.232 6.984 5.448 6.984 2.76 0 4.896-2.352 4.896-6.072"/><path fill="#fff" d="M29.854 45.301c0 2.136.912 2.424 1.152 2.448h-4.992c.192-.024 1.176-.264 1.176-2.448v-4.824h-7.656v4.824c0 2.136.912 2.424 1.152 2.448h-4.968c.192-.024 1.152-.264 1.152-2.448V34.213c0-2.136-.984-2.4-1.176-2.448h4.992c-.144.024-1.152.24-1.152 2.448v4.56h7.656v-4.56c0-2.16-.984-2.424-1.2-2.448h5.016c-.144.024-1.152.24-1.152 2.448z"/><path fill="#fff" d="M138.343 12.882v7.867h-2.58V3.082h2.545v6.573h.164a3.8 3.8 0 0 1 1.424-1.7q.957-.63 2.501-.63 1.364 0 2.381.562 1.027.56 1.588 1.673.569 1.104.569 2.76v8.43h-2.579V12.63q0-1.458-.751-2.26-.75-.81-2.088-.81-.914 0-1.639.387a2.8 2.8 0 0 0-1.13 1.14q-.405.741-.405 1.794"/><path fill="#fff" d="M128.047 21.017q-1.923 0-3.312-.872-1.38-.879-2.122-2.424t-.742-3.537q0-2.018.759-3.563.759-1.553 2.139-2.424 1.38-.87 3.253-.871 1.509 0 2.691.56a4.8 4.8 0 0 1 1.907 1.553q.733 1.002.871 2.338h-2.51a3 3 0 0 0-.949-1.604q-.734-.673-1.967-.673-1.079 0-1.89.57-.801.56-1.25 1.604-.449 1.035-.449 2.45 0 1.45.44 2.501.44 1.053 1.242 1.631.811.578 1.907.578.733 0 1.328-.267a2.7 2.7 0 0 0 1.01-.785q.413-.51.578-1.226h2.51a4.9 4.9 0 0 1-.837 2.295 4.8 4.8 0 0 1-1.872 1.588q-1.164.578-2.735.578"/><path fill="#fff" d="M111.273 25.718q-.578 0-1.052-.095a3.3 3.3 0 0 1-.707-.19l.621-2.113q.707.19 1.259.164.552-.027.975-.414.432-.39.759-1.268l.319-.88-4.848-13.424h2.761l3.355 10.284h.138l3.356-10.284h2.769l-5.46 15.02q-.38 1.035-.966 1.75a3.76 3.76 0 0 1-1.398 1.088q-.81.362-1.881.362"/><path fill="#fff" d="m92.955 20.75-3.9-13.252h2.666l2.597 9.731h.13l2.605-9.73h2.666l2.588 9.687h.129l2.579-9.688h2.666L103.79 20.75h-2.631l-2.691-9.567h-.199l-2.691 9.567z"/><path fill="#fff" d="M81.916 21.017q-1.864 0-3.253-.854-1.388-.855-2.156-2.39t-.768-3.589q0-2.061.768-3.606.767-1.545 2.156-2.398 1.389-.855 3.253-.854 1.863 0 3.252.854 1.389.855 2.157 2.398.767 1.545.767 3.606 0 2.053-.767 3.589-.768 1.535-2.157 2.39-1.389.854-3.252.854m.008-2.166q1.208 0 2.002-.638t1.173-1.7q.388-1.06.388-2.338 0-1.267-.388-2.329-.38-1.07-1.173-1.716-.795-.648-2.002-.647-1.216 0-2.018.647-.794.646-1.182 1.716a6.9 6.9 0 0 0-.38 2.33q0 1.276.38 2.337.389 1.061 1.182 1.7.801.638 2.018.638"/><path fill="#fff" d="M55.35 20.75V7.497h2.476v2.157h.164q.415-1.096 1.354-1.708.94-.621 2.252-.621 1.329 0 2.226.621.906.622 1.337 1.708h.138a3.73 3.73 0 0 1 1.51-1.69q1.035-.64 2.467-.64 1.803 0 2.942 1.131 1.147 1.13 1.147 3.408v8.885h-2.58v-8.644q0-1.346-.733-1.95T68.3 9.553q-1.26 0-1.958.776-.699.768-.699 1.976v8.445h-2.57v-8.808q0-1.078-.674-1.734-.673-.655-1.75-.655-.735 0-1.355.388-.614.38-.992 1.06-.372.683-.371 1.58v8.17z"/><path fill="#fff" d="M46.513 20.75V7.497h2.493v2.105h.138a3.2 3.2 0 0 1 1.277-1.682 3.65 3.65 0 0 1 2.087-.621 11 11 0 0 1 1.096.06v2.468a5 5 0 0 0-.552-.095q-.398-.06-.794-.06-.915 0-1.63.388a2.88 2.88 0 0 0-1.536 2.596v8.092z"/><path fill="#fff" d="M37.024 21.042q-1.26 0-2.277-.465a3.84 3.84 0 0 1-1.614-1.372q-.586-.897-.586-2.2 0-1.121.431-1.846a3.2 3.2 0 0 1 1.165-1.147 6 6 0 0 1 1.639-.639 16 16 0 0 1 1.846-.328l1.932-.224q.742-.095 1.079-.302t.336-.673v-.06q0-1.13-.638-1.751-.63-.621-1.88-.621-1.304 0-2.054.578-.742.57-1.027 1.268l-2.424-.552q.432-1.208 1.26-1.95.837-.75 1.923-1.087a7.5 7.5 0 0 1 2.287-.345q.794 0 1.682.19.897.18 1.673.673.785.49 1.286 1.406.5.906.5 2.355v8.8h-2.519v-1.812h-.103a3.7 3.7 0 0 1-.75.983q-.502.483-1.286.802-.785.32-1.88.32m.56-2.07q1.071 0 1.83-.423.767-.423 1.164-1.104.406-.69.406-1.475v-1.708q-.138.138-.535.259-.388.111-.889.198-.5.077-.974.147-.475.06-.794.103-.75.095-1.372.32-.612.224-.983.646-.363.414-.363 1.105 0 .957.708 1.449.706.483 1.803.483"/><path fill="#fff" d="M22.049 20.75h-5.72V3.081h5.9q2.598 0 4.46 1.06 1.864 1.053 2.856 3.029 1 1.966 1.001 4.718 0 2.76-1.01 4.745-1 1.984-2.898 3.054-1.898 1.06-4.59 1.061m-3.054-2.33h2.907q2.018 0 3.356-.76 1.337-.767 2.001-2.216.665-1.458.665-3.555 0-2.079-.665-3.528-.656-1.45-1.958-2.2t-3.235-.75h-3.071z"/></svg>