<svg xmlns="http://www.w3.org/2000/svg" fill="none" viewBox="0 0 110 46"><path fill="#fff" d="M106 24.428h-9.51V35h-2.9V24.428H84v-2.984h9.59V11h2.9v10.444H106z"/><path fill="#fff" d="M77.698 22.303c0 12.694-5.159 21.041-13.332 21.041-7.651 0-13.1-6.782-13.1-19.07C51.266 11.288 56.599 3 64.598 3c7.767 0 13.1 7.42 13.1 19.303m-6.144 2.956c0-12.637-3.536-17.854-7.652-17.854-3.767 0-6.666 4.348-6.666 13.738 0 12.637 3.536 17.854 7.652 17.854 3.651 0 6.666-3.884 6.666-13.738"/><path fill="#fff" d="M48.46 22.303c0 12.694-5.16 21.041-13.333 21.041-7.651 0-13.1-6.782-13.1-19.07C22.027 11.288 27.36 3 35.36 3c7.768 0 13.1 7.42 13.1 19.303m-6.145 2.956c0-12.637-3.536-17.854-7.651-17.854-3.768 0-6.666 4.348-6.666 13.738 0 12.637 3.535 17.854 7.651 17.854 3.652 0 6.666-3.884 6.666-13.738"/><path fill="#fff" d="M19.636 42.436H7.696c.753-.406 3.072-1.565 3.072-7.246V12.12C8.39 14.786 4.159 19.308 3 20.64v-5.796c2.898-3.188 6.55-7.535 9.275-11.013h4.231v31.36c0 5.68 2.377 6.84 3.13 7.245"/></svg>