<svg xmlns="http://www.w3.org/2000/svg" fill="none" viewBox="0 0 205 56"><path fill="#fff" d="M.74.78h11.88V21H8.69V4.2H4.67V21H.74zM16.092 21V1.08c1.11-.24 2.61-.39 4.11-.39 2.34 0 4.17.33 5.49 1.56 1.2 1.05 1.74 2.73 1.74 4.44 0 2.19-.66 3.72-1.71 4.86-1.26 1.32-3.3 1.92-4.92 1.92h-.78V21zm3.93-16.98v6.24c.18.06.39.06.63.06 1.98 0 2.88-1.41 2.88-3.3 0-1.77-.72-3.15-2.55-3.15-.36 0-.72.06-.96.15M35.472.54c4.89 0 6.27 5.37 6.27 9.99 0 7.62-2.7 10.71-6.54 10.71-4.59 0-6.39-4.86-6.39-10.41 0-5.52 2.19-10.29 6.66-10.29m-.15 3.42c-1.56 0-2.43 2.58-2.43 6.93 0 4.59.87 6.93 2.46 6.93 1.65 0 2.28-3 2.28-7.11 0-3.54-.54-6.75-2.31-6.75M49.677.06h3.45v1.53c3.63.48 6.39 3.33 6.39 9.15 0 6.21-2.79 8.82-6.39 9.33v1.65h-3.48v-1.65c-3.66-.54-6.39-3.12-6.39-9.24 0-5.94 3.27-8.76 6.42-9.24zm0 17.13V4.44c-1.2.36-2.49 1.98-2.49 6.45 0 4.17 1.26 6.03 2.49 6.3m3.42-12.75v12.75c1.32-.27 2.49-1.89 2.49-6.42 0-4.59-1.35-6.06-2.49-6.33M62 .78h3.48v4.47c0 3.72-.24 7.2-.39 9.3h.06c.57-1.74 1.59-4.38 2.19-5.94L70.31.78h3.57V21h-3.45v-4.56c0-4.05.15-7.05.24-9.09h-.06c-.45 1.83-1.35 4.26-2.01 5.94L65.63 21H62zm16.16 0h10.53V21h-3.93V4.2h-3v5.34c0 4.65-.3 8.73-2.85 10.71-.75.6-1.71.99-2.7.99l-.84-3.33c.48-.12.99-.36 1.35-.72 1.17-1.2 1.44-3.36 1.44-7.29zm20.856 15.6h-3.63l-.9 4.62h-3.81L95.056.78h4.71l3.93 20.22h-3.81zm-3.24-3.06h2.88l-.66-4.23c-.21-1.23-.48-3.24-.66-4.59h-.09c-.21 1.35-.51 3.45-.72 4.62zM105.916.78h3.84v8.79h.3l3.3-8.79h4.32l-4.65 9.36c2.07.78 2.76 2.67 3.33 5.13.45 1.95.78 3.87 1.38 5.73h-3.93c-.48-1.44-.78-3.09-1.11-4.68-.48-2.37-1.02-3.9-2.64-3.9h-.3V21h-3.84zM122.198 21V4.41h-3.57V.78h11.1v3.63h-3.6V21zM131.785.78h3.48v4.47c0 3.72-.24 7.2-.39 9.3h.06c.57-1.74 1.59-4.38 2.19-5.94l2.97-7.83h3.57V21h-3.45v-4.56c0-4.05.15-7.05.24-9.09h-.06c-.45 1.83-1.35 4.26-2.01 5.94l-2.97 7.71h-3.63zm15.381 0h3.84v8.79h.3l3.3-8.79h4.32l-4.65 9.36c2.07.78 2.76 2.67 3.33 5.13.45 1.95.78 3.87 1.38 5.73h-3.93c-.48-1.44-.78-3.09-1.11-4.68-.48-2.37-1.02-3.9-2.64-3.9h-.3V21h-3.84zm20.902 15.6h-3.63l-.9 4.62h-3.81l4.38-20.22h4.71l3.93 20.22h-3.81zm-3.24-3.06h2.88l-.66-4.23c-.21-1.23-.48-3.24-.66-4.59h-.09c-.21 1.35-.51 3.45-.72 4.62zM.74 50.94V31.08c1.2-.27 2.76-.39 4.47-.39 1.89 0 3.72.24 5.13 1.44 1.08.9 1.53 2.25 1.53 3.66 0 1.8-.93 3.54-2.94 4.41v.12c2.34.66 3.6 2.61 3.6 4.83 0 1.68-.54 2.97-1.5 3.96-1.2 1.32-3.24 2.04-6.63 2.04-1.5 0-2.76-.09-3.66-.21m3.93-17.19v5.34h.84c1.41 0 2.49-1.2 2.49-2.85 0-1.47-.69-2.61-2.31-2.61-.42 0-.78.03-1.02.12m0 8.25v6.06c.24.06.51.06.87.06 1.59 0 2.91-.96 2.91-3.03 0-2.01-1.38-3.06-2.94-3.09zm10.152-7.26-.66-3.03c.87-.6 2.55-1.17 4.47-1.17 3.84 0 5.64 2.34 5.64 4.98 0 2.07-1.38 4.08-3.42 4.59v.06c2.37.48 4.02 2.28 4.02 5.07 0 3.87-3.3 6-6.93 6-1.68 0-3.15-.39-4.08-.9l.57-3.21c.87.51 2.01.81 3.12.81 2.1 0 3.21-1.2 3.21-2.82 0-2.25-1.86-3.15-3.99-3.15h-.57V39h.39c1.8 0 3.6-.87 3.6-2.73 0-1.41-.87-2.37-2.55-2.37-.93 0-2.04.39-2.82.84m14.235-3.96h10.41v16.86l1.59.06-.18 7.71h-2.97l-.15-4.41h-8.79l-.15 4.41h-3l-.15-7.71 1.44-.06c.63-1.53 1.05-3.06 1.38-4.71.39-2.31.57-4.68.57-7.05zm3.6 3.42v2.34c0 2.31-.15 4.65-.48 6.81-.24 1.44-.6 3-1.02 4.23h4.41V34.2zm8.376-3.42h4.23l1.86 7.62c.27 1.14.51 2.34.66 3.24h.09c.18-.96.3-2.19.48-3.33l1.35-7.53h3.99l-3 10.77c-.69 2.55-1.47 5.31-2.49 7.05-.96 1.59-2.43 2.64-4.11 2.64-.69 0-1.2-.06-1.59-.18l.15-3.21c.18.03.48.09.96.09 1.02 0 1.86-1.05 2.16-2.04.15-.42.12-.75-.03-1.2zM58.36 51V34.41h-3.57v-3.63h11.1v3.63h-3.6V51zm9.587-20.22h3.48v4.47c0 3.72-.24 7.2-.39 9.3h.06c.57-1.74 1.59-4.38 2.19-5.94l2.97-7.83h3.57V51h-3.45v-4.56c0-4.05.15-7.05.24-9.09h-.06c-.45 1.83-1.35 4.26-2.01 5.94L71.577 51h-3.63zM85.937 51h-4.17c.27-.6.54-1.38.78-2.16.54-2.04.54-4.86 2.04-6.45.36-.39.9-.72 1.44-.87v-.06c-2.13-.66-3.48-2.31-3.48-4.86 0-2.07.78-3.51 1.86-4.41 1.29-1.05 3.09-1.5 5.13-1.5 1.5 0 3.06.12 4.29.39V51h-3.93v-8.07h-.42c-.69 0-1.23.27-1.62.75-.87 1.11-1.02 4.05-1.35 5.55-.15.6-.3 1.2-.57 1.77m3.96-11.13v-6.03c-.21-.03-.45-.09-.78-.09-1.83 0-2.61 1.47-2.61 3 0 1.92 1.14 3.15 2.85 3.15.24 0 .33 0 .54-.03m12.181-9.09h3.48v4.47c0 3.72-.24 7.2-.39 9.3h.06c.57-1.74 1.59-4.38 2.19-5.94l2.97-7.83h3.57V51h-3.45v-4.56c0-4.05.15-7.05.24-9.09h-.06c-.45 1.83-1.35 4.26-2.01 5.94l-2.97 7.71h-3.63zm22.106 0h10.41v16.86l1.59.06-.18 7.71h-2.97l-.15-4.41h-8.79l-.15 4.41h-3l-.15-7.71 1.44-.06c.63-1.53 1.05-3.06 1.38-4.71.39-2.31.57-4.68.57-7.05zm3.6 3.42v2.34c0 2.31-.15 4.65-.48 6.81-.24 1.44-.6 3-1.02 4.23h4.41V34.2zm10.593-3.42h3.48v4.47c0 3.72-.24 7.2-.39 9.3h.06c.57-1.74 1.59-4.38 2.19-5.94l2.97-7.83h3.57V51h-3.45v-4.56c0-4.05.15-7.05.24-9.09h-.06c-.45 1.83-1.35 4.26-2.01 5.94l-2.97 7.71h-3.63zm22.221 15.6h-3.63l-.9 4.62h-3.81l4.38-20.22h4.71l3.93 20.22h-3.81zm-3.24-3.06h2.88l-.66-4.23c-.21-1.23-.48-3.24-.66-4.59h-.09c-.21 1.35-.51 3.45-.72 4.62zm10.14 7.68V31.08c1.11-.24 2.61-.39 4.11-.39 2.34 0 4.17.33 5.49 1.56 1.2 1.05 1.74 2.73 1.74 4.44 0 2.19-.66 3.72-1.71 4.86-1.26 1.32-3.3 1.92-4.92 1.92h-.78V51zm3.93-16.98v6.24c.18.06.39.06.63.06 1.98 0 2.88-1.41 2.88-3.3 0-1.77-.72-3.15-2.55-3.15-.36 0-.72.06-.96.15m18.331 4.83v3.27h-4.62v5.46h5.22V51h-9.15V30.78h8.79v3.42h-4.86v4.65zm3.256-8.07h3.48v4.47c0 3.72-.24 7.2-.39 9.3h.06c.57-1.74 1.59-4.38 2.19-5.94l2.97-7.83h3.57V51h-3.45v-4.56c0-4.05.15-7.05.24-9.09h-.06c-.45 1.83-1.35 4.26-2.01 5.94l-2.97 7.71h-3.63z"/></svg>