<svg xmlns="http://www.w3.org/2000/svg" fill="none" viewBox="0 0 258 142"><rect width="258" height="130" fill="#fff" transform="translate(0 6)"/><g clip-path="url(#a)"><rect width="100" height="6" fill="#fff" transform="translate(139 136)"/><path fill="#ae0000" d="M178.759 136H139v6.016h39.759z"/><path fill="#0065b1" d="M183.316 136h-4.544v6.016h4.544z"/><path fill="#008f20" d="M238.978 136H183.31v6.016h55.668z"/></g><g clip-path="url(#b)"><rect width="228" height="6" fill="#fff" transform="translate(11)"/><path fill="#ae0000" d="M178.498 0h-39.914v6.016h39.914z"/><path fill="#ff8600" d="M138.584 0H76.968v6.016h61.616z"/><path fill="#0065b1" d="M183.072 0h-4.562v6.016h4.562z"/><path fill="#e90a0a" d="M70.128 0H10.845v6.016h59.283z"/><path fill="#008f20" d="M238.95 0h-55.884v6.016h55.884z"/><path fill="#26221e" d="M76.968 0h-6.84v6.016h6.84z"/></g><g clip-path="url(#c)"><path fill="#008f20" d="M87.66 84.67H70.002v27.386h17.656z"/><path fill="#0065b1" d="M70.005 84.67h-1.441v27.386h1.441z"/><path fill="#ae0000" d="M68.56 84.67H55.95v27.386h12.61z"/><path fill="#ff8600" d="M55.949 84.67H36.483v27.386h19.466z"/><path fill="#26221e" d="M36.484 84.67h-2.162v27.386h2.162z"/><path fill="#e90a0a" d="M34.322 84.67h-18.73v27.386h18.73z"/><g fill="#fff"><path d="M37.975 99.075v4.948h-2.473v-4.564c0-1.399-.619-2.041-1.617-2.041-1.111 0-1.887.722-1.887 2.265v4.342h-2.474v-4.564c0-1.398-.586-2.04-1.617-2.04-1.098 0-1.867.722-1.867 2.265v4.341h-2.476v-6.72h-.952V95.38h2.933l.127 1.336c.618-.951 1.68-1.47 2.933-1.47 1.19 0 2.204.467 2.807 1.414.68-.883 1.79-1.414 3.076-1.414 2.03 0 3.488 1.189 3.488 3.824"/><path d="M49.802 100.955c0 1.943-1.521 3.068-4.438 3.068h-5.455v-9.129h-1.173v-2.117h6.31c2.774 0 4.201 1.172 4.201 2.924a2.73 2.73 0 0 1-.383 1.454 2.7 2.7 0 0 1-1.091 1.02c1.237.402 2.03 1.366 2.03 2.783zm-7.34-6.218v2.65h2.267c1.252 0 1.934-.444 1.934-1.335 0-.89-.682-1.317-1.934-1.317zm4.74 5.944c0-.948-.697-1.397-2.03-1.397h-2.71v2.783h2.71c1.333 0 2.03-.419 2.03-1.383"/><path d="M59.854 95.38v8.643h-2.362v-1.002c-.618.756-1.523 1.125-2.664 1.125-2.41 0-4.265-1.735-4.265-4.453s1.856-4.453 4.265-4.453c1.047 0 1.935.334 2.553 1.045v-.905zm-2.426 4.319c0-1.494-.951-2.394-2.171-2.394-1.221 0-2.189.9-2.189 2.394s.952 2.393 2.189 2.393c1.236 0 2.171-.899 2.171-2.393"/><path d="M70.7 99.074v4.949h-2.475v-4.564c0-1.399-.634-2.041-1.728-2.041-1.189 0-2.045.74-2.045 2.329v4.274h-2.473v-6.713h-.952V95.38h2.934l.126 1.349c.65-.964 1.758-1.478 3.076-1.478 2.014 0 3.536 1.188 3.536 3.823"/><path d="M81.131 104.023h-2.806l-2.41-3.743h-1.142v3.743H72.3v-11.92h2.473v6.265h1.142l2.283-2.988h2.759l-2.902 3.791z"/></g></g><g fill="#000"><path d="M113.048 63.262c0 .168-.028.406-.042.588h-5.698c.21.938 1.008 1.512 2.156 1.512.798 0 1.372-.238 1.89-.728l1.162 1.26c-.7.798-1.75 1.218-3.108 1.218-2.604 0-4.298-1.638-4.298-3.878 0-2.254 1.722-3.878 4.018-3.878 2.212 0 3.92 1.484 3.92 3.906m-3.906-2.254c-.994 0-1.708.602-1.862 1.568h3.71c-.154-.952-.868-1.568-1.848-1.568"/><path d="M101.463 59.468h2.184V67h-2.072v-.896c-.574.658-1.414 1.008-2.338 1.008-1.89 0-3.22-1.064-3.22-3.388v-4.256H98.2v3.934c0 1.26.56 1.82 1.526 1.82 1.008 0 1.736-.644 1.736-2.03z"/><path d="M91.427 67.112c-2.45 0-4.2-1.61-4.2-3.878s1.75-3.878 4.2-3.878c1.582 0 2.828.686 3.374 1.918l-1.694.91c-.406-.714-1.008-1.036-1.694-1.036-1.106 0-1.974.77-1.974 2.086s.868 2.086 1.974 2.086c.686 0 1.288-.308 1.694-1.036l1.694.924c-.546 1.204-1.792 1.904-3.374 1.904"/><path d="M82.884 67.112c-1.274 0-2.562-.35-3.262-.812l.728-1.568c.672.434 1.694.728 2.618.728 1.008 0 1.386-.266 1.386-.686 0-1.232-4.55.028-4.55-2.982 0-1.428 1.288-2.436 3.486-2.436 1.036 0 2.184.238 2.898.658l-.728 1.554a4.3 4.3 0 0 0-2.17-.56c-.98 0-1.4.308-1.4.7 0 1.288 4.55.042 4.55 3.01 0 1.4-1.302 2.394-3.556 2.394"/><path d="M78.896 63.262c0 .168-.028.406-.042.588h-5.698c.21.938 1.008 1.512 2.156 1.512.798 0 1.372-.238 1.89-.728l1.162 1.26c-.7.798-1.75 1.218-3.108 1.218-2.604 0-4.298-1.638-4.298-3.878 0-2.254 1.722-3.878 4.018-3.878 2.212 0 3.92 1.484 3.92 3.906m-3.906-2.254c-.994 0-1.708.602-1.862 1.568h3.71c-.154-.952-.868-1.568-1.848-1.568"/><path d="M70.057 67H67.62l-1.89-2.73h-2.086V67h-2.268v-7.952h-1.064V57.2h5.306c2.618 0 4.256 1.358 4.256 3.556 0 1.47-.742 2.548-2.016 3.094zm-2.478-6.244c0-1.078-.7-1.708-2.086-1.708h-1.848v3.416h1.848c1.386 0 2.086-.644 2.086-1.708"/><path d="M57.306 60.742c.504-.91 1.512-1.386 2.814-1.386v2.114c-.182-.014-.322-.028-.476-.028-1.218 0-2.016.616-2.016 2.002V67h-2.184v-5.852h-.84v-1.68h2.59z"/><path d="M53.808 63.262c0 .168-.028.406-.042.588h-5.698c.21.938 1.008 1.512 2.156 1.512.798 0 1.372-.238 1.89-.728l1.162 1.26c-.7.798-1.75 1.218-3.108 1.218-2.604 0-4.298-1.638-4.298-3.878 0-2.254 1.722-3.878 4.018-3.878 2.212 0 3.92 1.484 3.92 3.906m-3.906-2.254c-.994 0-1.708.602-1.862 1.568h3.71c-.154-.952-.868-1.568-1.848-1.568"/><path d="M41.216 59.356c2.114 0 3.752 1.512 3.752 3.878s-1.638 3.878-3.752 3.878c-1.008 0-1.82-.322-2.366-.98V67h-2.086V56.612h2.184v3.654c.56-.616 1.33-.91 2.268-.91m-.378 5.964c1.092 0 1.918-.784 1.918-2.086s-.826-2.086-1.918-2.086-1.918.784-1.918 2.086.826 2.086 1.918 2.086"/><path d="M32.544 59.468h2.184v6.272c0 2.8-1.47 4.088-4.102 4.088-1.386 0-2.73-.35-3.584-1.036l.868-1.568c.616.518 1.596.84 2.548.84 1.456 0 2.086-.686 2.086-2.044v-.252c-.574.574-1.358.868-2.226.868-1.89 0-3.22-1.05-3.22-3.388v-3.78h2.184v3.458c0 1.274.56 1.834 1.526 1.834 1.008 0 1.736-.644 1.736-2.03z"/><path d="M21.852 67.168c-3.038 0-5.306-2.114-5.306-5.068s2.268-5.068 5.32-5.068c1.694 0 3.108.616 4.032 1.736l-1.456 1.344c-.658-.756-1.484-1.148-2.464-1.148-1.834 0-3.136 1.288-3.136 3.136s1.302 3.136 3.136 3.136c.98 0 1.806-.392 2.464-1.162l1.456 1.344c-.924 1.134-2.338 1.75-4.046 1.75"/><path d="M182.252 42.468h1.932L181.454 50h-2.1l-1.694-4.676L175.91 50h-2.1l-2.716-7.532h2.058l1.778 5.096 1.848-5.096h1.848l1.792 5.096z"/><path d="m165.401 41.502 1.89-2.016h2.352l-2.534 2.016zm1.302 8.61c-2.394 0-4.144-1.61-4.144-3.878s1.75-3.878 4.144-3.878 4.13 1.61 4.13 3.878-1.736 3.878-4.13 3.878m0-1.792c1.092 0 1.918-.784 1.918-2.086s-.826-2.086-1.918-2.086-1.932.784-1.932 2.086.84 2.086 1.932 2.086"/><path d="m161.544 48.096.574 1.54c-.448.322-1.106.476-1.764.476-1.792 0-2.814-.91-2.814-2.702v-6.608h2.184v1.666h1.862v1.666h-1.862v3.248c0 .644.336.994.924.994.322 0 .644-.098.896-.28"/><path d="M152.679 50.112c-1.274 0-2.562-.35-3.262-.812l.728-1.568c.672.434 1.694.728 2.618.728 1.008 0 1.386-.266 1.386-.686 0-1.232-4.55.028-4.55-2.982 0-1.428 1.288-2.436 3.486-2.436 1.036 0 2.184.238 2.898.658l-.728 1.554a4.3 4.3 0 0 0-2.17-.56c-.98 0-1.4.308-1.4.7 0 1.288 4.55.042 4.55 3.01 0 1.4-1.302 2.394-3.556 2.394"/><path d="M147.026 41.418c-.812 0-1.358-.532-1.358-1.218s.546-1.218 1.358-1.218 1.358.504 1.358 1.176c0 .728-.546 1.26-1.358 1.26M145.934 50v-7.532h2.184V50z"/><path d="M141.723 50V39.612h2.184V50z"/><path d="M137.572 42.468h2.184V50h-2.086v-.868c-.546.658-1.344.98-2.352.98-2.128 0-3.766-1.512-3.766-3.878s1.638-3.878 3.766-3.878c.924 0 1.708.294 2.254.91zm-1.876 5.852c1.078 0 1.918-.784 1.918-2.086s-.84-2.086-1.918-2.086c-1.092 0-1.932.784-1.932 2.086s.84 2.086 1.932 2.086"/><path d="M129.051 41.418c-.812 0-1.358-.532-1.358-1.218s.546-1.218 1.358-1.218 1.358.504 1.358 1.176c0 .728-.546 1.26-1.358 1.26m-1.498 11.41c-.602 0-1.134-.126-1.568-.42l.588-1.582c.224.168.448.266.742.266.378 0 .644-.266.644-.812v-7.812h2.184v7.686c0 1.652-.938 2.674-2.59 2.674"/><path d="M123.187 50.112c-2.45 0-4.2-1.61-4.2-3.878s1.75-3.878 4.2-3.878c1.582 0 2.828.686 3.374 1.918l-1.694.91c-.406-.714-1.008-1.036-1.694-1.036-1.106 0-1.974.77-1.974 2.086s.868 2.086 1.974 2.086c.686 0 1.288-.308 1.694-1.036l1.694.924c-.546 1.204-1.792 1.904-3.374 1.904"/><path d="M118.093 46.262c0 .168-.028.406-.042.588h-5.698c.21.938 1.008 1.512 2.156 1.512.798 0 1.372-.238 1.89-.728l1.162 1.26c-.7.798-1.75 1.218-3.108 1.218-2.604 0-4.298-1.638-4.298-3.878 0-2.254 1.722-3.878 4.018-3.878 2.212 0 3.92 1.484 3.92 3.906m-3.906-2.254c-.994 0-1.708.602-1.862 1.568h3.71c-.154-.952-.868-1.568-1.848-1.568"/><path d="M105.505 42.356c2.114 0 3.752 1.512 3.752 3.878s-1.638 3.878-3.752 3.878c-.938 0-1.708-.294-2.268-.91v3.514h-2.184v-8.568h-.84v-1.68h2.59l.14 1.134c.546-.84 1.428-1.246 2.562-1.246m-.378 5.964c1.092 0 1.918-.784 1.918-2.086s-.826-2.086-1.918-2.086-1.918.784-1.918 2.086.826 2.086 1.918 2.086"/><path d="M95.968 50.112c-1.274 0-2.562-.35-3.262-.812l.728-1.568c.672.434 1.694.728 2.618.728 1.008 0 1.386-.266 1.386-.686 0-1.232-4.55.028-4.55-2.982 0-1.428 1.288-2.436 3.486-2.436 1.036 0 2.184.238 2.898.658l-.728 1.554a4.3 4.3 0 0 0-2.17-.56c-.98 0-1.4.308-1.4.7 0 1.288 4.55.042 4.55 3.01 0 1.4-1.302 2.394-3.556 2.394"/><path d="m87.516 51.932.308.994c-.336.182-.882.322-1.414.322-1.218 0-1.932-.63-1.932-1.568 0-.616.322-1.19 1.022-1.68h-.084v-.868c-.546.658-1.344.98-2.352.98-2.128 0-3.766-1.512-3.766-3.878s1.638-3.878 3.766-3.878c.924 0 1.708.294 2.254.91v-.798h2.184V50c-1.204.532-1.638.98-1.638 1.498 0 .392.308.644.798.644.308 0 .63-.084.854-.21m-4.074-3.612c1.078 0 1.918-.784 1.918-2.086s-.84-2.086-1.918-2.086c-1.092 0-1.932.784-1.932 2.086s.84 2.086 1.932 2.086"/><path d="M75.322 50.112c-2.45 0-4.2-1.61-4.2-3.878s1.75-3.878 4.2-3.878c1.582 0 2.828.686 3.374 1.918l-1.694.91c-.406-.714-1.008-1.036-1.694-1.036-1.106 0-1.974.77-1.974 2.086s.868 2.086 1.974 2.086c.686 0 1.288-.308 1.694-1.036l1.694.924c-.546 1.204-1.792 1.904-3.374 1.904"/><path d="M66.092 50.112c-2.394 0-4.144-1.61-4.144-3.878s1.75-3.878 4.144-3.878 4.13 1.61 4.13 3.878-1.736 3.878-4.13 3.878m0-1.792c1.092 0 1.918-.784 1.918-2.086s-.826-2.086-1.918-2.086-1.932.784-1.932 2.086.84 2.086 1.932 2.086"/><path d="M57.42 42.356c1.792 0 3.08 1.036 3.08 3.332V50h-2.184v-3.976c0-1.218-.546-1.778-1.428-1.778-.98 0-1.666.63-1.666 1.974V50h-2.184v-3.976c0-1.218-.518-1.778-1.428-1.778-.966 0-1.652.63-1.652 1.974V50h-2.184v-5.852h-.84v-1.68h2.59l.112 1.162c.546-.826 1.484-1.274 2.59-1.274 1.05 0 1.946.406 2.478 1.232.602-.77 1.582-1.232 2.716-1.232"/><path d="M42.002 50.112c-2.394 0-4.144-1.61-4.144-3.878s1.75-3.878 4.144-3.878 4.13 1.61 4.13 3.878-1.736 3.878-4.13 3.878m0-1.792c1.092 0 1.918-.784 1.918-2.086s-.826-2.086-1.918-2.086-1.932.784-1.932 2.086.84 2.086 1.932 2.086"/><path d="M33.208 42.356c2.114 0 3.752 1.512 3.752 3.878s-1.638 3.878-3.752 3.878c-.938 0-1.708-.294-2.268-.91v3.514h-2.184v-8.568h-.84v-1.68h2.59l.14 1.134c.546-.84 1.428-1.246 2.562-1.246m-.378 5.964c1.092 0 1.918-.784 1.918-2.086s-.826-2.086-1.918-2.086-1.918.784-1.918 2.086.826 2.086 1.918 2.086"/><path d="M19.248 48.32h3.962V50h-6.72v-1.316l3.836-4.536h-3.738v-1.68h6.496v1.316z"/><path d="M216.39 25.636h.994v6.468c0 2.534-1.162 3.682-3.43 3.682-1.26 0-2.506-.406-3.22-1.134l.504-.756c.63.63 1.596 1.008 2.66 1.008 1.708 0 2.492-.854 2.492-2.674v-.854c-.518.854-1.456 1.344-2.604 1.344-1.89 0-3.108-1.05-3.108-3.164v-3.92h.994v3.822c0 1.568.812 2.366 2.212 2.366 1.54 0 2.506-.994 2.506-2.674z"/><path d="m208.555 31.838.35.714c-.378.35-.966.518-1.54.518-1.386 0-2.156-.784-2.156-2.142v-6.902h.994v1.61h2.226v.84h-2.226v4.396c0 .868.434 1.344 1.26 1.344.42 0 .812-.126 1.092-.378"/><path d="M200.833 27.204c.434-1.05 1.442-1.624 2.856-1.624v1.008c-.084 0-.168-.014-.238-.014-1.54 0-2.478.938-2.478 2.674V33h-.994v-6.524h-1.036v-.84h1.82z"/><path d="M197.746 29.318c0 .084-.014.196-.014.308h-6.16c.112 1.54 1.288 2.562 2.898 2.562.896 0 1.694-.322 2.254-.966l.56.644c-.658.784-1.68 1.204-2.842 1.204-2.296 0-3.864-1.568-3.864-3.752s1.526-3.738 3.598-3.738 3.57 1.526 3.57 3.738m-3.57-2.884c-1.428 0-2.478 1.008-2.604 2.45h5.222c-.126-1.442-1.176-2.45-2.618-2.45"/><path d="M189.135 23.382c-.854 0-1.302.476-1.302 1.386v.868h2.267v.84h-2.239V33h-.994v-6.524h-1.316v-.84h1.316v-.91c0-1.316.783-2.184 2.225-2.184.546 0 1.106.154 1.47.462l-.335.742c-.28-.238-.672-.364-1.092-.364"/><path d="M180.931 33.07c-2.156 0-3.752-1.568-3.752-3.752s1.596-3.738 3.752-3.738 3.738 1.554 3.738 3.738-1.582 3.752-3.738 3.752m0-.882c1.568 0 2.73-1.148 2.73-2.87s-1.162-2.87-2.73-2.87-2.744 1.148-2.744 2.87 1.176 2.87 2.744 2.87"/><path d="M172.234 29.318c0 .084-.014.196-.014.308h-6.16c.112 1.54 1.288 2.562 2.898 2.562.896 0 1.694-.322 2.254-.966l.56.644c-.658.784-1.68 1.204-2.842 1.204-2.296 0-3.864-1.568-3.864-3.752s1.526-3.738 3.598-3.738 3.57 1.526 3.57 3.738m-3.57-2.884c-1.428 0-2.478 1.008-2.604 2.45h5.222c-.126-1.442-1.176-2.45-2.618-2.45"/><path d="M160.077 25.58c1.792 0 3.024 1.036 3.024 3.15V33h-.994v-4.172c0-1.554-.812-2.352-2.212-2.352-1.582 0-2.576.98-2.576 2.66V33h-.994v-6.524h-1.036v-.84h1.82l.07 1.54c.49-1.008 1.526-1.596 2.898-1.596"/><path d="M152.421 25.636h.994V33h-.952v-1.456c-.602.994-1.624 1.526-2.842 1.526-2.1 0-3.668-1.526-3.668-3.752s1.568-3.738 3.668-3.738c1.176 0 2.184.504 2.8 1.456zm-2.716 6.552c1.554 0 2.73-1.148 2.73-2.87s-1.176-2.87-2.73-2.87c-1.568 0-2.744 1.148-2.744 2.87s1.176 2.87 2.744 2.87"/><path d="M140.143 32.174h4.718V33h-5.992v-.658l4.634-5.866h-4.55v-.84h5.824v.658z"/><path d="M135.112 27.204c.434-1.05 1.442-1.624 2.856-1.624v1.008c-.084 0-.168-.014-.238-.014-1.54 0-2.478.938-2.478 2.674V33h-.994v-6.524h-1.036v-.84h1.82z"/><path d="M130.85 24.026a.72.72 0 0 1-.728-.714c0-.378.322-.7.728-.7s.728.308.728.686a.714.714 0 0 1-.728.728m-1.414 11.76c-.546 0-.98-.154-1.344-.476l.35-.756c.28.252.532.378.924.378.574 0 .994-.392.994-1.232v-8.064h.994v8.078c0 1.274-.756 2.072-1.918 2.072"/><path d="M128.183 29.318c0 .084-.014.196-.014.308h-6.16c.112 1.54 1.288 2.562 2.898 2.562.896 0 1.694-.322 2.254-.966l.56.644c-.658.784-1.68 1.204-2.842 1.204-2.296 0-3.864-1.568-3.864-3.752s1.526-3.738 3.598-3.738 3.57 1.526 3.57 3.738m-3.57-2.884c-1.428 0-2.478 1.008-2.604 2.45h5.222c-.126-1.442-1.176-2.45-2.618-2.45"/><path d="M117.995 22.612h.994V33h-.952v-1.456c-.602.994-1.624 1.526-2.842 1.526-2.1 0-3.668-1.526-3.668-3.752s1.568-3.738 3.668-3.738c1.176 0 2.184.504 2.8 1.456zm-2.716 9.576c1.554 0 2.73-1.148 2.73-2.87s-1.176-2.87-2.73-2.87c-1.568 0-2.744 1.148-2.744 2.87s1.176 2.87 2.744 2.87"/><path d="M106.501 33.07c-2.156 0-3.752-1.568-3.752-3.752s1.596-3.738 3.752-3.738 3.738 1.554 3.738 3.738-1.582 3.752-3.738 3.752m0-.882c1.568 0 2.73-1.148 2.73-2.87s-1.162-2.87-2.73-2.87-2.744 1.148-2.744 2.87 1.176 2.87 2.744 2.87"/><path d="M97.788 25.58c2.1 0 3.668 1.512 3.668 3.738 0 2.24-1.568 3.752-3.668 3.752-1.176 0-2.184-.504-2.8-1.456v4.102h-.994v-9.24h-1.036v-.84h1.82l.056 1.652c.588-1.106 1.666-1.708 2.954-1.708m-.07 6.608c1.554 0 2.744-1.148 2.744-2.87 0-1.708-1.19-2.87-2.744-2.87-1.568 0-2.744 1.162-2.744 2.87 0 1.722 1.176 2.87 2.744 2.87"/><path d="M86.923 24.026a.72.72 0 0 1-.728-.714c0-.378.322-.7.728-.7s.728.308.728.686a.714.714 0 0 1-.728.728m-1.414 11.76c-.546 0-.98-.154-1.344-.476l.35-.756c.28.252.532.378.924.378.574 0 .994-.392.994-1.232v-8.064h.994v8.078c0 1.274-.756 2.072-1.918 2.072"/><path d="M82.585 25.636h.994V33h-.952v-1.456c-.602.994-1.624 1.526-2.842 1.526-2.1 0-3.668-1.526-3.668-3.752s1.568-3.738 3.668-3.738c1.176 0 2.184.504 2.8 1.456zm-2.716 6.552c1.554 0 2.73-1.148 2.73-2.87s-1.176-2.87-2.73-2.87c-1.568 0-2.744 1.148-2.744 2.87s1.176 2.87 2.744 2.87"/><path d="M70.307 32.174h4.718V33h-5.992v-.658l4.634-5.866h-4.55v-.84h5.824v.658z"/><path d="M66.069 22.612h.994V33h-.952v-1.456c-.602.994-1.624 1.526-2.842 1.526-2.1 0-3.668-1.526-3.668-3.752s1.568-3.738 3.668-3.738c1.176 0 2.184.504 2.8 1.456zm-2.716 9.576c1.554 0 2.73-1.148 2.73-2.87s-1.176-2.87-2.73-2.87c-1.568 0-2.744 1.148-2.744 2.87s1.176 2.87 2.744 2.87"/><path d="M58.702 25.636h.91L56.826 33h-.938l-2.324-6.034L51.24 33h-.938l-2.772-7.364h.952l2.31 6.258 2.366-6.258h.854l2.352 6.258z"/><path d="M45.11 25.636h.994V33h-.952v-1.456c-.602.994-1.624 1.526-2.842 1.526-2.1 0-3.668-1.526-3.668-3.752s1.568-3.738 3.668-3.738c1.176 0 2.184.504 2.8 1.456zm-2.716 6.552c1.554 0 2.73-1.148 2.73-2.87s-1.176-2.87-2.73-2.87c-1.568 0-2.744 1.148-2.744 2.87s1.176 2.87 2.744 2.87"/><path d="M35.007 27.204c.434-1.05 1.442-1.624 2.856-1.624v1.008c-.084 0-.168-.014-.238-.014-1.54 0-2.478.938-2.478 2.674V33h-.994v-6.524h-1.036v-.84h1.82z"/><path d="M28.24 25.58c2.1 0 3.668 1.512 3.668 3.738 0 2.24-1.568 3.752-3.668 3.752-1.176 0-2.184-.504-2.8-1.456v4.102h-.994v-9.24H23.41v-.84h1.82l.056 1.652c.588-1.106 1.666-1.708 2.954-1.708m-.07 6.608c1.554 0 2.744-1.148 2.744-2.87 0-1.708-1.19-2.87-2.744-2.87-1.568 0-2.744 1.162-2.744 2.87 0 1.722 1.176 2.87 2.744 2.87"/><path d="M19.36 33.07c-1.218 0-2.394-.392-2.996-.91l.448-.784c.588.462 1.582.826 2.618.826 1.4 0 1.974-.476 1.974-1.204 0-1.918-4.774-.406-4.774-3.318 0-1.204 1.036-2.1 2.912-2.1.952 0 1.988.266 2.604.686l-.434.798c-.644-.448-1.414-.63-2.17-.63-1.33 0-1.918.518-1.918 1.218 0 1.988 4.774.49 4.774 3.318 0 1.274-1.12 2.1-3.038 2.1"/></g><defs><clipPath id="a"><rect width="100" height="6" fill="#fff" transform="translate(139 136)"/></clipPath><clipPath id="b"><rect width="228" height="6" fill="#fff" transform="translate(11)"/></clipPath><clipPath id="c"><rect width="72.067" height="27.386" fill="#fff" transform="translate(15.592 84.67)"/></clipPath></defs></svg>