<svg xmlns="http://www.w3.org/2000/svg" fill="none" viewBox="0 0 306 55"><path fill="#fff" d="M9.798 21.794v19.872c0 .46-.138.828-.368 1.012-.23.23-.644.322-1.196.322H4.002c-.598 0-1.012-.092-1.242-.322-.23-.184-.322-.552-.322-1.012V21.794c0-.46.092-.782.322-1.012.23-.184.644-.322 1.242-.322h4.232c.552 0 .966.138 1.196.322.23.23.368.552.368 1.012m-3.404-3.082h-.552c-2.484 0-3.726-1.242-3.726-3.818v-.23c0-2.53 1.242-3.818 3.726-3.818h.552c2.484 0 3.726 1.288 3.726 3.818v.23c0 2.576-1.242 3.818-3.726 3.818m25.641 7.59h-7.314c-.46 0-.782-.046-.966-.23s-.23-.552-.23-1.104v-3.174c0-.552.046-.874.23-1.058q.276-.276.966-.276H40.27c.46 0 .782.092 1.012.276.184.184.322.552.322 1.058v.874c0 1.196-.368 2.3-1.012 3.266L32.68 37.158h7.866c.46 0 .736.092.92.276s.276.506.276 1.058v3.174q0 .828-.276 1.104c-.184.184-.46.23-.92.23H24.721c-.966 0-1.426-.414-1.426-1.334v-1.058c0-1.196.322-2.254 1.012-3.266zm22.973 14.582h-1.242c-6.532 0-9.752-2.944-9.752-8.878v-3.082c0-3.036.782-5.244 2.392-6.716 1.564-1.426 4.002-2.162 7.222-2.162h.644c.598-3.312 3.036-5.014 7.36-5.014h2.254c.46 0 .736.092.92.23.138.184.23.506.23.966v2.53c0 .46-.092.736-.276.874-.184.184-.506.23-.92.23h-2.162c-1.012 0-1.702.23-2.116.69 3.45.92 5.198 3.726 5.198 8.372v3.082c0 3.312-.92 5.52-2.714 6.716 1.196.644 2.116 1.472 2.806 2.484s1.058 2.116 1.058 3.266v.322c0 4.554-3.634 6.808-10.81 6.808h-.874c-3.128 0-6.164-.552-9.016-1.656-.828-.276-1.15-.874-.92-1.748l.828-2.944c.23-.874.782-1.196 1.656-.92 2.714.92 5.106 1.334 7.222 1.334h.644q4.002 0 4.002-2.346v-.138c0-.874-.46-1.656-1.38-2.392-.736.092-1.518.092-2.254.092m-.782-5.75h.322c1.012 0 1.702-.184 2.162-.644.506-.506.782-1.564.782-3.128v-1.794c0-1.564-.276-2.576-.782-3.128-.46-.414-1.15-.644-2.162-.644h-.322c-1.012 0-1.748.23-2.162.644-.552.552-.782 1.564-.782 3.128v1.794c0 1.564.23 2.622.782 3.128.414.46 1.15.644 2.162.644m27.943 5.98h-.092c-1.012 1.564-3.036 2.3-6.026 2.3h-.69c-2.346 0-4.186-.598-5.474-1.794-1.334-1.196-1.978-2.99-1.978-5.29v-.506c0-2.484.69-4.278 2.116-5.29s3.726-1.518 6.946-1.518h.322c1.196 0 2.3.092 3.22.184v-.966c0-.966-.276-1.656-.782-2.024-.552-.322-1.472-.506-2.76-.506-1.564 0-3.312.276-5.336.782-.552.138-.966.138-1.15 0-.23-.138-.368-.414-.414-.874l-.368-2.438c-.092-.414-.092-.736-.092-.92 0-.552.368-.966 1.104-1.196 2.346-.644 4.968-1.012 7.866-1.012 3.542 0 6.072.782 7.544 2.254 1.15 1.196 1.748 3.128 1.748 5.75v13.662c0 .46-.138.828-.368 1.012S86.861 43 86.31 43h-2.162c-.552 0-.92-.046-1.15-.184s-.414-.414-.552-.874zm-1.656-5.888v-1.288q-.759-.138-2.208-.138H77.8q-1.656 0-2.346.414c-.46.276-.644.828-.644 1.656v.184c0 .828.184 1.38.644 1.656.414.322 1.058.46 1.932.46h.322c.92 0 1.61-.23 2.162-.69.414-.368.644-1.15.644-2.254m17.518-12.282h.138c1.012-1.656 2.714-2.484 5.152-2.484h1.84c.46 0 .828.092 1.012.276s.322.506.322 1.012v3.358c0 .506-.092.828-.276 1.012q-.276.276-.966.276h-1.38c-1.702 0-2.852.322-3.496.966-.552.552-.782 1.61-.782 3.174v11.132c0 .46-.138.828-.368 1.012-.23.23-.644.322-1.196.322h-4.232c-.598 0-1.012-.092-1.242-.322-.23-.184-.322-.552-.322-1.012V21.748c0-.46.092-.782.322-.966s.644-.322 1.242-.322h2.208c.506 0 .874.092 1.104.23q.345.276.552.828zm23.328-2.898h.368c2.668 0 4.646.644 5.842 1.886 1.104 1.196 1.702 3.22 1.702 6.072v13.662c0 .46-.138.828-.368 1.012-.23.23-.644.322-1.196.322h-4.232c-.598 0-1.012-.092-1.242-.322-.23-.184-.322-.552-.322-1.012V28.648c0-1.012-.184-1.748-.506-2.116-.368-.368-1.058-.598-2.024-.598h-.276c-1.012 0-1.656.23-2.024.598s-.506 1.104-.506 2.116v13.018c0 .46-.138.828-.368 1.012-.23.23-.644.322-1.196.322h-4.232c-.598 0-1.012-.092-1.242-.322-.23-.184-.322-.552-.322-1.012V21.748c0-.46.092-.782.322-.966s.644-.322 1.242-.322h2.162c.552 0 .92.092 1.15.23q.345.207.552.828l.276.874h.138c1.472-1.564 3.542-2.346 6.302-2.346m19.746 1.748v19.872c0 .46-.138.828-.368 1.012-.23.23-.644.322-1.196.322h-4.232c-.598 0-1.012-.092-1.242-.322-.23-.184-.322-.552-.322-1.012V21.794c0-.46.092-.782.322-1.012.23-.184.644-.322 1.242-.322h4.232c.552 0 .966.138 1.196.322.23.23.368.552.368 1.012m-3.404-3.082h-.552c-2.484 0-3.726-1.242-3.726-3.818v-.23c0-2.53 1.242-3.818 3.726-3.818h.552c2.484 0 3.726 1.288 3.726 3.818v.23c0 2.576-1.242 3.818-3.726 3.818m7.342 32.476h-2.668c-.46 0-.828-.092-1.012-.322-.184-.184-.276-.598-.276-1.15v-3.22c0-.46.092-.828.276-1.012s.552-.322 1.012-.322h1.15c.828 0 1.472-.184 1.886-.644.368-.368.552-1.334.552-2.852V21.794c0-.46.092-.782.322-1.012.23-.184.644-.322 1.242-.322h4.232c.552 0 .966.138 1.196.322.23.23.368.552.368 1.012v20.378c0 3.312-.598 5.612-1.794 6.946q-1.863 2.07-6.486 2.07m4.876-32.476h-.552c-2.484 0-3.726-1.242-3.726-3.818v-.23c0-2.53 1.242-3.818 3.726-3.818h.552c2.484 0 3.726 1.288 3.726 3.818v.23c0 2.576-1.242 3.818-3.726 3.818m27.712 18.308h1.472c.46 0 .828.138 1.012.322.184.23.322.644.322 1.242v2.852c0 .644-.138 1.058-.322 1.242-.184.23-.552.322-1.012.322h-3.496c-2.3 0-3.91-.414-4.83-1.334-.92-.874-1.38-2.438-1.38-4.646v-4.968l-1.518.966c-.598.368-1.012.552-1.196.552-.368 0-.506-.276-.506-.828v-4.278c0-.46.046-.782.23-1.012.138-.184.414-.46.874-.782l2.116-1.334V13.192c0-.46.092-.782.322-1.012.23-.184.644-.322 1.242-.322h4.232c.552 0 .966.138 1.196.322.23.23.368.552.368 1.012v7.452l2.07-1.334c.552-.368.966-.552 1.196-.552.322 0 .506.276.506.828v4.278c0 .46-.092.828-.23 1.012-.184.23-.46.506-.874.782l-2.668 1.702v8.786c0 .368.046.598.184.69.092.138.322.184.69.184m19.134 4.094h-.092c-1.012 1.564-3.036 2.3-6.026 2.3h-.69c-2.346 0-4.186-.598-5.474-1.794-1.334-1.196-1.978-2.99-1.978-5.29v-.506c0-2.484.69-4.278 2.116-5.29s3.726-1.518 6.946-1.518h.322c1.196 0 2.3.092 3.22.184v-.966c0-.966-.276-1.656-.782-2.024-.552-.322-1.472-.506-2.76-.506-1.564 0-3.312.276-5.336.782-.552.138-.966.138-1.15 0-.23-.138-.368-.414-.414-.874l-.368-2.438c-.092-.46-.092-.782-.092-.92 0-.552.368-.966 1.104-1.196 2.346-.644 4.968-1.012 7.866-1.012 3.542 0 6.072.782 7.544 2.254 1.15 1.196 1.748 3.128 1.748 5.75v13.662c0 .69-.276 1.104-.736 1.288-1.15.46-2.116 1.104-2.852 1.932-.782.828-1.15 1.702-1.15 2.576v.138q0 1.242 1.242 1.242h.138a5.7 5.7 0 0 0 1.978-.368c.23-.046.414-.092.552-.092.23 0 .414.23.552.598l.23.966c.138.644.23.966.23 1.058 0 .276-.23.506-.644.69q-1.794.69-3.726.69h-.276c-1.564 0-2.806-.322-3.634-1.012s-1.242-1.656-1.242-2.852v-.23c0-1.104.368-2.162 1.15-3.174.736-1.012 1.748-1.84 2.944-2.484zm-1.656-5.888v-1.288q-.759-.138-2.208-.138h-.506q-1.656 0-2.346.414c-.46.276-.644.828-.644 1.656v.184c0 .828.184 1.38.644 1.656.414.322 1.058.46 1.932.46h.322c.92 0 1.61-.23 2.162-.69.414-.368.644-1.15.644-2.254m22.481 2.254h.368c1.242 0 2.576-.184 4.002-.598.46-.092.736-.138.874-.138.46 0 .736.276.828.782l.414 2.346c.092.644.184 1.058.184 1.242 0 .552-.414.966-1.196 1.242-2.024.736-4.232 1.058-6.624 1.058h-.552c-3.312 0-5.75-.736-7.268-2.3q-2.346-2.346-2.346-7.866V30.58c0-2.162.184-3.864.552-5.06q.552-1.794 1.794-3.036c1.61-1.61 4.14-2.438 7.59-2.438h.46c2.76 0 5.152.506 7.084 1.518.552.322.874.69.874 1.15 0 .276-.138.736-.368 1.38l-.874 2.208q-.345.828-.966.828c-.184 0-.46-.046-.828-.23-1.472-.598-2.852-.92-4.094-.92h-.184c-1.196 0-2.07.322-2.622.874-.69.69-1.012 2.116-1.012 4.232v1.564c0 1.886.276 3.174.92 3.864.598.644 1.61.966 2.99.966m17.807-11.178h-7.314c-.46 0-.782-.046-.966-.23s-.23-.552-.23-1.104v-3.174c0-.552.046-.874.23-1.058q.276-.276.966-.276h15.548c.46 0 .782.092 1.012.276.184.184.322.552.322 1.058v.874c0 1.196-.368 2.3-1.012 3.266l-7.912 11.224h7.866c.46 0 .736.092.92.276s.276.506.276 1.058v3.174q0 .828-.276 1.104c-.184.184-.46.23-.92.23h-15.824c-.966 0-1.426-.414-1.426-1.334v-1.058c0-1.196.322-2.254 1.012-3.266zm24.95-6.256h.368c2.668 0 4.646.644 5.842 1.886 1.104 1.196 1.702 3.22 1.702 6.072v13.662c0 .46-.138.828-.368 1.012-.23.23-.644.322-1.196.322h-4.232c-.598 0-1.012-.092-1.242-.322-.23-.184-.322-.552-.322-1.012V28.648c0-1.012-.184-1.748-.506-2.116-.368-.368-1.058-.598-2.024-.598h-.276c-1.012 0-1.656.23-2.024.598s-.506 1.104-.506 2.116v13.018c0 .46-.138.828-.368 1.012-.23.23-.644.322-1.196.322h-4.232c-.598 0-1.012-.092-1.242-.322-.23-.184-.322-.552-.322-1.012V21.748c0-.46.092-.782.322-.966s.644-.322 1.242-.322h2.162c.552 0 .92.092 1.15.23q.345.207.552.828l.276.874h.138c1.472-1.564 3.542-2.346 6.302-2.346m19.746 1.748v19.872c0 .46-.138.828-.368 1.012-.23.23-.644.322-1.196.322h-4.232c-.598 0-1.012-.092-1.242-.322-.23-.184-.322-.552-.322-1.012V21.794c0-.46.092-.782.322-1.012.23-.184.644-.322 1.242-.322h4.232c.552 0 .966.138 1.196.322.23.23.368.552.368 1.012m-3.404-3.082h-.552c-2.484 0-3.726-1.242-3.726-3.818v-.23c0-2.53 1.242-3.818 3.726-3.818h.552c2.484 0 3.726 1.288 3.726 3.818v.23c0 2.576-1.242 3.818-3.726 3.818m19.119 18.768h.506c1.564 0 3.22-.184 4.876-.598.46-.092.736-.138.874-.138.46 0 .736.276.828.782l.368 2.3c.092.644.184 1.058.184 1.242 0 .552-.414.966-1.196 1.242-2.116.736-4.462 1.104-6.946 1.104h-.874q-5.658 0-8.004-2.346c-.92-.874-1.518-1.932-1.84-3.128s-.46-2.806-.46-4.784V30.58c0-4.002.92-6.808 2.76-8.464 1.564-1.38 3.956-2.07 7.222-2.07h.644c3.22 0 5.566.782 6.946 2.3 1.472 1.656 2.208 4.37 2.208 8.234v2.392c0 .874-.46 1.288-1.334 1.288h-11.04v.368c0 1.104.276 1.84.92 2.254.598.414 1.702.598 3.358.598m-4.278-8.004h5.06c.368 0 .552-.184.552-.598v-.736c0-.92-.184-1.61-.46-2.116-.368-.552-1.104-.828-2.116-.828h-.414c-.92 0-1.564.23-1.932.644q-.69.828-.69 2.484z"/></svg>