<svg xmlns="http://www.w3.org/2000/svg" fill="none" viewBox="0 0 200 111"><rect width="200" height="100.775" fill="#fff" transform="translate(0 4.651)"/><g clip-path="url(#a)"><rect width="77.519" height="4.651" fill="#fff" transform="translate(107.752 105.426)"/><path fill="#ae0000" d="M138.573 105.426h-30.821v4.664h30.821z"/><path fill="#0065b1" d="M142.106 105.426h-3.523v4.664h3.523z"/><path fill="#008f20" d="M185.254 105.426h-43.153v4.664h43.153z"/></g><g clip-path="url(#b)"><rect width="176.744" height="4.651" fill="#fff" transform="translate(8.527)"/><path fill="#ae0000" d="M138.37 0h-30.94v4.663h30.94z"/><path fill="#ff8600" d="M107.43 0H59.665v4.663h47.765z"/><path fill="#0065b1" d="M141.917 0h-3.537v4.663h3.537z"/><path fill="#e90a0a" d="M54.363 0H8.407v4.663h45.956z"/><path fill="#008f20" d="M185.233 0h-43.321v4.663h43.321z"/><path fill="#26221e" d="M59.665 0h-5.302v4.663h5.302z"/></g><g clip-path="url(#c)"><path fill="#008f20" d="M67.953 65.636H54.266v21.229h13.687z"/><path fill="#0065b1" d="M54.267 65.636H53.15v21.229h1.117z"/><path fill="#ae0000" d="M53.148 65.636h-9.776v21.229h9.776z"/><path fill="#ff8600" d="M43.371 65.636h-15.09v21.229h15.09z"/><path fill="#26221e" d="M28.282 65.636h-1.676v21.229h1.676z"/><path fill="#e90a0a" d="M26.606 65.636H12.087v21.229h14.52z"/><g fill="#fff"><path d="M29.438 76.802v3.836H27.52V77.1c0-1.084-.48-1.582-1.254-1.582-.86 0-1.462.56-1.462 1.756v3.366h-1.918V77.1c0-1.084-.455-1.581-1.253-1.581-.852 0-1.448.56-1.448 1.756v3.365h-1.92v-5.209h-.737v-1.494h2.274l.098 1.035c.479-.737 1.302-1.139 2.273-1.139.923 0 1.709.362 2.176 1.096.528-.684 1.388-1.096 2.385-1.096 1.573 0 2.704.922 2.704 2.965"/><path d="M38.606 78.26c0 1.506-1.18 2.378-3.44 2.378h-4.228V73.56h-.91V71.92h4.892c2.15 0 3.256.909 3.256 2.267.008.397-.095.787-.297 1.127a2.1 2.1 0 0 1-.846.79c.96.312 1.573 1.06 1.573 2.158zm-5.69-4.82v2.055h1.758c.97 0 1.5-.346 1.5-1.036s-.53-1.021-1.5-1.021zm3.675 4.607c0-.734-.54-1.083-1.574-1.083h-2.101v2.157h2.102c1.033 0 1.573-.324 1.573-1.071"/><path d="M46.399 73.938v6.7h-1.831v-.777c-.48.586-1.18.873-2.066.873-1.867 0-3.306-1.346-3.306-3.452 0-2.107 1.439-3.452 3.306-3.452.812 0 1.5.259 1.98.81v-.702zm-1.88 3.348c0-1.158-.738-1.855-1.684-1.855-.947 0-1.697.697-1.697 1.855s.738 1.855 1.697 1.855c.958 0 1.683-.697 1.683-1.855"/><path d="M54.806 76.802v3.836h-1.918V77.1c0-1.084-.492-1.582-1.34-1.582-.921 0-1.586.573-1.586 1.805v3.313h-1.917v-5.204h-.737v-1.494h2.274l.098 1.046c.504-.748 1.362-1.146 2.384-1.146 1.561 0 2.742.921 2.742 2.964"/><path d="M62.893 80.638h-2.176l-1.868-2.901h-.886v2.9h-1.916v-9.24h1.916v4.857h.886l1.77-2.316h2.138l-2.249 2.94z"/></g></g><g fill="#000"><path d="M87.634 49.04c0 .13-.022.315-.032.456h-4.417c.162.727.781 1.172 1.67 1.172.62 0 1.064-.184 1.466-.564l.9.977c-.542.618-1.356.944-2.409.944-2.018 0-3.331-1.27-3.331-3.006 0-1.748 1.335-3.007 3.114-3.007 1.715 0 3.04 1.15 3.04 3.028m-3.028-1.747c-.77 0-1.324.467-1.443 1.215h2.876c-.12-.738-.673-1.215-1.433-1.215"/><path d="M78.653 46.1h1.693v5.838H78.74v-.695c-.445.51-1.096.782-1.812.782-1.465 0-2.496-.825-2.496-2.626v-3.3h1.693v3.05c0 .977.434 1.41 1.183 1.41.781 0 1.345-.498 1.345-1.573z"/><path d="M70.874 52.025c-1.9 0-3.256-1.248-3.256-3.006 0-1.759 1.357-3.007 3.256-3.007 1.226 0 2.192.532 2.615 1.487l-1.313.706c-.314-.554-.781-.803-1.313-.803-.857 0-1.53.596-1.53 1.617s.673 1.617 1.53 1.617c.532 0 .999-.24 1.313-.803l1.313.716c-.423.933-1.389 1.476-2.615 1.476"/><path d="M64.251 52.025c-.988 0-1.986-.272-2.529-.63l.565-1.215c.52.336 1.313.564 2.03.564.78 0 1.074-.206 1.074-.532 0-.955-3.528.022-3.528-2.311 0-1.107.999-1.889 2.703-1.889.803 0 1.693.185 2.246.51l-.564 1.205a3.35 3.35 0 0 0-1.682-.434c-.76 0-1.086.239-1.086.543 0 .998 3.528.032 3.528 2.333 0 1.085-1.01 1.856-2.757 1.856"/><path d="M61.16 49.04c0 .13-.022.315-.033.456H56.71c.163.727.781 1.172 1.671 1.172.619 0 1.064-.184 1.465-.564l.901.977c-.542.618-1.356.944-2.41.944-2.018 0-3.331-1.27-3.331-3.006 0-1.748 1.335-3.007 3.115-3.007 1.715 0 3.038 1.15 3.038 3.028m-3.028-1.747c-.77 0-1.324.467-1.444 1.215h2.876c-.12-.738-.673-1.215-1.432-1.215"/><path d="M54.308 51.938h-1.889l-1.465-2.116h-1.617v2.116H47.58v-6.164h-.825V44.34h4.113c2.03 0 3.3 1.053 3.3 2.757 0 1.14-.576 1.975-1.563 2.398zm-1.921-4.84c0-.836-.543-1.324-1.617-1.324h-1.433v2.648h1.433c1.074 0 1.617-.5 1.617-1.324"/><path d="M44.423 47.087c.39-.706 1.172-1.075 2.182-1.075v1.64c-.141-.012-.25-.023-.37-.023-.944 0-1.562.478-1.562 1.552v2.757H42.98V47.4h-.651V46.1h2.007z"/><path d="M41.712 49.04c0 .13-.022.315-.033.456h-4.417c.163.727.781 1.172 1.671 1.172.619 0 1.064-.184 1.465-.564l.901.977c-.542.618-1.356.944-2.41.944-2.018 0-3.331-1.27-3.331-3.006 0-1.748 1.335-3.007 3.115-3.007 1.715 0 3.038 1.15 3.038 3.028m-3.028-1.747c-.77 0-1.324.467-1.444 1.215h2.876c-.12-.738-.673-1.215-1.432-1.215"/><path d="M31.95 46.012c1.639 0 2.909 1.172 2.909 3.007 0 1.834-1.27 3.006-2.909 3.006-.781 0-1.41-.25-1.834-.76v.673H28.5v-8.053h1.693v2.833c.434-.478 1.031-.706 1.758-.706m-.293 4.624c.847 0 1.487-.608 1.487-1.617 0-1.01-.64-1.617-1.487-1.617-.846 0-1.487.607-1.487 1.617 0 1.009.64 1.617 1.487 1.617"/><path d="M25.228 46.1h1.693v4.861c0 2.17-1.14 3.17-3.18 3.17-1.074 0-2.116-.272-2.778-.804l.673-1.215c.477.401 1.237.65 1.975.65 1.129 0 1.617-.531 1.617-1.584v-.195c-.445.445-1.053.673-1.726.673-1.465 0-2.496-.814-2.496-2.626V46.1H22.7v2.68c0 .987.434 1.422 1.183 1.422.782 0 1.346-.5 1.346-1.574z"/><path d="M16.94 52.068c-2.356 0-4.114-1.639-4.114-3.928 0-2.29 1.758-3.93 4.124-3.93 1.314 0 2.41.478 3.126 1.347l-1.129 1.041c-.51-.586-1.15-.89-1.91-.89-1.421 0-2.43.999-2.43 2.432s1.009 2.43 2.43 2.43c.76 0 1.4-.303 1.91-.9l1.129 1.042c-.716.879-1.812 1.356-3.137 1.356"/><path d="M141.281 32.92h1.497l-2.116 5.84h-1.628l-1.313-3.625-1.357 3.625h-1.628l-2.105-5.84h1.595l1.379 3.951 1.432-3.95h1.433l1.389 3.95z"/><path d="m128.218 32.172 1.465-1.563h1.823l-1.964 1.563zm1.009 6.675c-1.855 0-3.212-1.249-3.212-3.007s1.357-3.006 3.212-3.006 3.202 1.248 3.202 3.006-1.346 3.006-3.202 3.006m0-1.39c.847 0 1.487-.607 1.487-1.617 0-1.009-.64-1.617-1.487-1.617-.846 0-1.497.608-1.497 1.617 0 1.01.651 1.617 1.497 1.617"/><path d="m125.228 37.284.445 1.194c-.347.25-.857.368-1.367.368-1.39 0-2.182-.705-2.182-2.094v-5.123h1.693v1.292h1.444v1.291h-1.444v2.518c0 .5.261.77.717.77.249 0 .499-.075.694-.216"/><path d="M118.356 38.847c-.988 0-1.986-.272-2.529-.63l.564-1.215c.521.336 1.313.564 2.03.564.781 0 1.074-.206 1.074-.532 0-.955-3.527.022-3.527-2.312 0-1.107.998-1.888 2.702-1.888.803 0 1.693.185 2.247.51l-.565 1.205a3.35 3.35 0 0 0-1.682-.434c-.759 0-1.085.238-1.085.542 0 .999 3.527.033 3.527 2.334 0 1.085-1.009 1.855-2.756 1.855"/><path d="M113.973 32.107c-.629 0-1.052-.412-1.052-.944s.423-.944 1.052-.944c.63 0 1.053.39 1.053.911 0 .565-.423.977-1.053.977m-.846 6.653V32.92h1.693v5.839z"/><path d="M109.863 38.76v-8.053h1.693v8.053z"/><path d="M106.645 32.92h1.693v5.84h-1.617v-.673c-.424.51-1.042.76-1.824.76-1.649 0-2.919-1.173-2.919-3.007s1.27-3.006 2.919-3.006c.717 0 1.324.228 1.748.705zm-1.455 4.537c.836 0 1.487-.607 1.487-1.617 0-1.009-.651-1.617-1.487-1.617-.846 0-1.497.608-1.497 1.617 0 1.01.651 1.617 1.497 1.617"/><path d="M100.039 32.107c-.63 0-1.052-.412-1.052-.944s.423-.944 1.052-.944c.63 0 1.053.39 1.053.911 0 .565-.423.977-1.053.977m-1.161 8.845c-.467 0-.88-.098-1.216-.326l.456-1.226c.174.13.348.206.575.206.294 0 .5-.206.5-.63v-6.055h1.693v5.958c0 1.28-.727 2.073-2.008 2.073"/><path d="M95.494 38.847c-1.9 0-3.256-1.249-3.256-3.007s1.357-3.006 3.256-3.006c1.226 0 2.192.532 2.615 1.487l-1.313.705c-.315-.553-.781-.803-1.313-.803-.857 0-1.53.597-1.53 1.617s.673 1.617 1.53 1.617c.532 0 .998-.238 1.313-.803l1.313.716c-.423.934-1.389 1.477-2.615 1.477"/><path d="M91.545 35.862c0 .13-.022.315-.033.456h-4.417c.163.727.782 1.172 1.672 1.172.618 0 1.063-.185 1.465-.564l.9.976c-.542.619-1.356.944-2.409.944-2.018 0-3.332-1.27-3.332-3.006 0-1.747 1.335-3.006 3.115-3.006 1.715 0 3.039 1.15 3.039 3.028m-3.028-1.747c-.77 0-1.324.466-1.443 1.215h2.876c-.12-.738-.673-1.215-1.433-1.215"/><path d="M81.787 32.834c1.639 0 2.909 1.172 2.909 3.006s-1.27 3.006-2.909 3.006c-.727 0-1.324-.227-1.758-.705v2.724h-1.693v-6.642h-.651v-1.302h2.007l.109.879c.423-.651 1.107-.966 1.986-.966m-.293 4.623c.847 0 1.487-.607 1.487-1.617 0-1.009-.64-1.617-1.487-1.617s-1.487.608-1.487 1.617c0 1.01.64 1.617 1.487 1.617"/><path d="M74.394 38.847c-.988 0-1.986-.272-2.53-.63l.565-1.215c.521.336 1.314.564 2.03.564.781 0 1.074-.206 1.074-.532 0-.955-3.527.022-3.527-2.312 0-1.107.998-1.888 2.702-1.888.803 0 1.693.185 2.247.51l-.564 1.205a3.35 3.35 0 0 0-1.683-.434c-.76 0-1.085.238-1.085.542 0 .999 3.527.033 3.527 2.334 0 1.085-1.01 1.855-2.756 1.855"/><path d="m67.842 40.257.238.77c-.26.142-.683.25-1.096.25-.944 0-1.497-.488-1.497-1.215 0-.477.25-.922.792-1.302h-.065v-.673c-.424.51-1.042.76-1.824.76-1.65 0-2.919-1.173-2.919-3.007s1.27-3.006 2.92-3.006c.716 0 1.323.228 1.747.705v-.618h1.693v5.839c-.934.412-1.27.76-1.27 1.16 0 .305.239.5.618.5.24 0 .489-.065.663-.163m-3.159-2.8c.836 0 1.487-.607 1.487-1.617 0-1.009-.65-1.617-1.487-1.617-.846 0-1.497.608-1.497 1.617 0 1.01.65 1.617 1.497 1.617"/><path d="M58.389 38.847c-1.9 0-3.256-1.249-3.256-3.007s1.357-3.006 3.256-3.006c1.226 0 2.192.532 2.615 1.487l-1.313.705c-.314-.553-.781-.803-1.313-.803-.857 0-1.53.597-1.53 1.617s.673 1.617 1.53 1.617c.532 0 .999-.238 1.313-.803l1.313.716c-.423.934-1.389 1.477-2.615 1.477"/><path d="M51.234 38.847c-1.856 0-3.212-1.249-3.212-3.007s1.356-3.006 3.212-3.006 3.202 1.248 3.202 3.006-1.346 3.006-3.202 3.006m0-1.39c.847 0 1.487-.607 1.487-1.617 0-1.009-.64-1.617-1.487-1.617-.846 0-1.498.608-1.498 1.617 0 1.01.652 1.617 1.498 1.617"/><path d="M44.512 32.834c1.389 0 2.387.803 2.387 2.583v3.343h-1.693v-3.082c0-.945-.423-1.379-1.107-1.379-.76 0-1.291.489-1.291 1.53v2.93h-1.693v-3.081c0-.945-.402-1.379-1.107-1.379-.75 0-1.28.489-1.28 1.53v2.93h-1.694v-4.536h-.651v-1.302h2.008l.087.9c.423-.64 1.15-.987 2.007-.987.814 0 1.509.315 1.921.955.467-.597 1.227-.955 2.106-.955"/><path d="M32.56 38.847c-1.856 0-3.213-1.249-3.213-3.007s1.357-3.006 3.213-3.006 3.201 1.248 3.201 3.006-1.345 3.006-3.201 3.006m0-1.39c.846 0 1.487-.607 1.487-1.617 0-1.009-.64-1.617-1.487-1.617s-1.498.608-1.498 1.617c0 1.01.651 1.617 1.498 1.617"/><path d="M25.743 32.834c1.639 0 2.909 1.172 2.909 3.006s-1.27 3.006-2.909 3.006c-.727 0-1.324-.227-1.758-.705v2.724h-1.693v-6.642h-.651v-1.302h2.007l.109.879c.423-.651 1.107-.966 1.986-.966m-.293 4.623c.846 0 1.487-.607 1.487-1.617 0-1.009-.64-1.617-1.487-1.617s-1.487.608-1.487 1.617c0 1.01.64 1.617 1.487 1.617"/><path d="M14.92 37.457h3.072v1.303h-5.21v-1.02l2.975-3.517h-2.898v-1.302h5.036v1.02z"/><path d="M167.744 19.873h.771v5.014c0 1.964-.901 2.854-2.659 2.854-.977 0-1.943-.315-2.496-.879l.391-.586c.488.488 1.237.781 2.062.781 1.324 0 1.931-.662 1.931-2.073v-.662c-.401.662-1.128 1.042-2.018 1.042-1.465 0-2.409-.814-2.409-2.452v-3.04h.77v2.964c0 1.215.63 1.834 1.715 1.834 1.194 0 1.942-.77 1.942-2.073z"/><path d="m161.67 24.68.272.554c-.293.271-.749.402-1.194.402-1.075 0-1.672-.608-1.672-1.66v-5.351h.771v1.248h1.726v.651h-1.726v3.408c0 .673.336 1.042.977 1.042.325 0 .629-.098.846-.293"/><path d="M155.684 21.088c.337-.814 1.118-1.259 2.214-1.259v.782c-.065 0-.13-.011-.184-.011-1.194 0-1.921.727-1.921 2.073v2.908h-.771v-5.057h-.803v-.651h1.411z"/><path d="M153.291 22.727c0 .065-.011.152-.011.239h-4.775c.087 1.194.999 1.986 2.247 1.986.694 0 1.313-.25 1.747-.749l.434.5c-.51.607-1.302.933-2.203.933-1.78 0-2.995-1.216-2.995-2.909s1.183-2.898 2.789-2.898 2.767 1.183 2.767 2.898m-2.767-2.236c-1.107 0-1.921.782-2.019 1.9h4.048c-.098-1.118-.911-1.9-2.029-1.9"/><path d="M146.616 18.126c-.662 0-1.009.368-1.009 1.074v.673h1.758v.651h-1.737v5.057h-.77v-5.057h-1.02v-.651h1.02v-.706c0-1.02.608-1.693 1.725-1.693.424 0 .858.12 1.14.358l-.261.576c-.217-.185-.521-.283-.846-.283"/><path d="M140.257 25.636c-1.672 0-2.909-1.216-2.909-2.909s1.237-2.898 2.909-2.898 2.897 1.205 2.897 2.898-1.226 2.909-2.897 2.909m0-.684c1.215 0 2.116-.89 2.116-2.225s-.901-2.225-2.116-2.225-2.127.89-2.127 2.225.911 2.225 2.127 2.225"/><path d="M133.515 22.727c0 .065-.011.152-.011.239h-4.775c.086 1.194.998 1.986 2.246 1.986.695 0 1.313-.25 1.747-.749l.434.5c-.51.607-1.302.933-2.203.933-1.779 0-2.995-1.216-2.995-2.909s1.183-2.898 2.789-2.898 2.768 1.183 2.768 2.898m-2.768-2.236c-1.107 0-1.921.782-2.018 1.9h4.048c-.098-1.118-.912-1.9-2.03-1.9"/><path d="M124.09 19.83c1.389 0 2.344.802 2.344 2.441v3.31h-.77v-3.234c0-1.205-.629-1.823-1.715-1.823-1.226 0-1.997.76-1.997 2.062v2.995h-.77v-5.057h-.803v-.651h1.411l.054 1.194c.38-.782 1.183-1.238 2.246-1.238"/><path d="M118.155 19.873h.771v5.708h-.738v-1.128c-.467.77-1.259 1.183-2.203 1.183-1.628 0-2.843-1.183-2.843-2.909s1.215-2.898 2.843-2.898c.912 0 1.693.391 2.17 1.129zm-2.105 5.079c1.205 0 2.116-.89 2.116-2.225s-.911-2.225-2.116-2.225c-1.215 0-2.127.89-2.127 2.225s.912 2.225 2.127 2.225"/><path d="M108.638 24.941h3.658v.64h-4.645v-.51l3.592-4.547h-3.527v-.651h4.514v.51z"/><path d="M104.738 21.088c.336-.814 1.118-1.259 2.214-1.259v.782c-.065 0-.13-.011-.184-.011-1.194 0-1.921.727-1.921 2.073v2.908h-.771v-5.057h-.803v-.651h1.411z"/><path d="M101.434 18.625a.56.56 0 0 1-.564-.554c0-.293.25-.542.564-.542.315 0 .565.238.565.532a.554.554 0 0 1-.565.564m-1.096 9.116c-.423 0-.76-.12-1.042-.369l.272-.586c.217.195.412.293.716.293.445 0 .771-.304.771-.955v-6.251h.77v6.262c0 .987-.586 1.606-1.487 1.606"/><path d="M99.367 22.727c0 .065-.011.152-.011.239H94.58c.087 1.194.998 1.986 2.246 1.986.695 0 1.313-.25 1.748-.749l.434.5c-.51.607-1.303.933-2.204.933-1.78 0-2.995-1.216-2.995-2.909s1.183-2.898 2.79-2.898 2.767 1.183 2.767 2.898m-2.768-2.236c-1.107 0-1.92.782-2.018 1.9h4.048c-.098-1.118-.912-1.9-2.03-1.9"/><path d="M91.469 17.529h.77v8.052h-.738v-1.128c-.466.77-1.258 1.183-2.203 1.183-1.628 0-2.843-1.183-2.843-2.909s1.215-2.898 2.843-2.898c.912 0 1.693.391 2.17 1.13zm-2.106 7.423c1.205 0 2.117-.89 2.117-2.225s-.912-2.225-2.117-2.225c-1.215 0-2.127.89-2.127 2.225s.912 2.225 2.127 2.225"/><path d="M82.56 25.636c-1.672 0-2.91-1.216-2.91-2.909s1.238-2.898 2.91-2.898c1.67 0 2.897 1.205 2.897 2.898s-1.226 2.909-2.898 2.909m0-.684c1.215 0 2.116-.89 2.116-2.225s-.901-2.225-2.117-2.225-2.127.89-2.127 2.225.912 2.225 2.127 2.225"/><path d="M75.805 19.83c1.628 0 2.843 1.171 2.843 2.897 0 1.736-1.215 2.909-2.843 2.909-.912 0-1.693-.391-2.17-1.13v3.18h-.771v-7.162h-.803v-.651h1.41l.044 1.28c.456-.857 1.291-1.324 2.29-1.324m-.054 5.122c1.204 0 2.127-.89 2.127-2.225 0-1.324-.923-2.225-2.127-2.225-1.216 0-2.127.901-2.127 2.225 0 1.335.911 2.225 2.127 2.225"/><path d="M67.382 18.625a.56.56 0 0 1-.565-.554c0-.293.25-.542.565-.542s.564.238.564.532a.554.554 0 0 1-.564.564m-1.096 9.116c-.424 0-.76-.12-1.042-.369l.271-.586c.217.195.413.293.716.293.445 0 .771-.304.771-.955v-6.251h.77v6.262c0 .987-.586 1.606-1.486 1.606"/><path d="M64.02 19.873h.77v5.708h-.738v-1.128c-.467.77-1.26 1.183-2.203 1.183-1.628 0-2.844-1.183-2.844-2.909s1.216-2.898 2.844-2.898c.911 0 1.693.391 2.17 1.129zm-2.106 5.079c1.204 0 2.116-.89 2.116-2.225s-.912-2.225-2.116-2.225c-1.216 0-2.127.89-2.127 2.225s.911 2.225 2.127 2.225"/><path d="M54.502 24.941h3.657v.64h-4.645v-.51l3.592-4.547H53.58v-.651h4.515v.51z"/><path d="M51.216 17.529h.77v8.052h-.737v-1.128c-.467.77-1.26 1.183-2.203 1.183-1.628 0-2.844-1.183-2.844-2.909s1.216-2.898 2.844-2.898c.911 0 1.693.391 2.17 1.13zm-2.105 7.423c1.205 0 2.116-.89 2.116-2.225s-.911-2.225-2.116-2.225c-1.216 0-2.127.89-2.127 2.225s.911 2.225 2.127 2.225"/><path d="M45.505 19.873h.706l-2.16 5.708h-.727l-1.801-4.677-1.802 4.677h-.727l-2.15-5.708h.739l1.79 4.851 1.835-4.851h.662l1.823 4.851z"/><path d="M34.969 19.873h.77v5.708h-.737v-1.128c-.467.77-1.26 1.183-2.204 1.183-1.627 0-2.843-1.183-2.843-2.909s1.216-2.898 2.843-2.898c.912 0 1.694.391 2.171 1.129zm-2.105 5.079c1.204 0 2.116-.89 2.116-2.225s-.912-2.225-2.116-2.225c-1.216 0-2.127.89-2.127 2.225s.911 2.225 2.127 2.225"/><path d="M27.137 21.088c.336-.814 1.118-1.259 2.214-1.259v.782c-.065 0-.13-.011-.185-.011-1.193 0-1.92.727-1.92 2.073v2.908h-.771v-5.057h-.803v-.651h1.41z"/><path d="M21.891 19.83c1.628 0 2.844 1.171 2.844 2.897 0 1.736-1.216 2.909-2.844 2.909-.911 0-1.693-.391-2.17-1.13v3.18h-.77v-7.162h-.804v-.651h1.41l.044 1.28c.456-.857 1.292-1.324 2.29-1.324m-.054 5.122c1.205 0 2.127-.89 2.127-2.225 0-1.324-.922-2.225-2.127-2.225-1.216 0-2.127.901-2.127 2.225 0 1.335.911 2.225 2.127 2.225"/><path d="M15.008 25.636c-.944 0-1.856-.304-2.323-.706l.348-.608c.455.358 1.226.64 2.029.64 1.085 0 1.53-.368 1.53-.933 0-1.486-3.7-.314-3.7-2.572 0-.933.803-1.628 2.257-1.628.738 0 1.54.206 2.018.532l-.336.619c-.5-.348-1.096-.489-1.682-.489-1.031 0-1.487.402-1.487.945 0 1.54 3.7.38 3.7 2.572 0 .987-.867 1.628-2.354 1.628"/></g><defs><clipPath id="a"><rect width="77.519" height="4.651" fill="#fff" transform="translate(107.752 105.426)"/></clipPath><clipPath id="b"><rect width="176.744" height="4.651" fill="#fff" transform="translate(8.527)"/></clipPath><clipPath id="c"><rect width="55.866" height="21.229" fill="#fff" transform="translate(12.087 65.636)"/></clipPath></defs></svg>