<svg xmlns="http://www.w3.org/2000/svg" fill="none" viewBox="0 0 531 55"><path fill="#fff" d="M11.454 19.54c-.552.046-.782.322-.782.782v15.272c0 .644.23 1.012.736 1.012.368.046 1.058.046 2.07.046h.23c1.794 0 3.128-.414 4.048-1.334 1.15-1.15 1.748-3.266 1.748-6.394v-1.886c0-3.128-.552-5.198-1.564-6.302-.828-.828-2.254-1.288-4.278-1.288h-.23c-.644 0-1.334.046-1.978.092M12.006 43h-.966c-3.174 0-5.29-.046-6.348-.184-1.196-.092-1.748-.69-1.748-1.794V15.906q0-1.311.414-1.794c.276-.322.828-.552 1.656-.644a83 83 0 0 1 7.222-.322h.644c5.244 0 9.016 1.104 11.27 3.22 2.116 2.116 3.22 5.566 3.22 10.258v2.668c0 4.83-1.104 8.28-3.266 10.35C21.758 41.896 17.71 43 12.006 43m32.923-1.886h-.092c-1.012 1.564-3.036 2.3-6.026 2.3h-.69c-2.346 0-4.186-.598-5.474-1.794-1.334-1.196-1.978-2.99-1.978-5.29v-.506c0-2.484.69-4.278 2.116-5.29s3.726-1.518 6.946-1.518h.322c1.196 0 2.3.092 3.22.184v-.966c0-.966-.276-1.656-.782-2.024-.552-.322-1.472-.506-2.76-.506-1.564 0-3.312.276-5.336.782-.552.138-.966.138-1.15 0-.23-.138-.368-.414-.414-.874l-.368-2.438c-.092-.414-.092-.736-.092-.92 0-.552.368-.966 1.104-1.196 2.346-.644 4.968-1.012 7.866-1.012 3.542 0 6.072.782 7.544 2.254 1.15 1.196 1.748 3.128 1.748 5.75v13.662c0 .46-.138.828-.368 1.012S49.621 43 49.07 43h-2.162c-.552 0-.92-.046-1.15-.184s-.414-.414-.552-.874zm-1.656-5.888v-1.288q-.759-.138-2.208-.138h-.506q-1.656 0-2.346.414c-.46.276-.644.828-.644 1.656v.184c0 .828.184 1.38.644 1.656.414.322 1.058.46 1.932.46h.322c.92 0 1.61-.23 2.162-.69.414-.368.644-1.15.644-2.254m10.893 15.962h-2.668c-.46 0-.828-.092-1.012-.322-.184-.184-.276-.598-.276-1.15v-3.22c0-.46.092-.828.276-1.012s.552-.322 1.012-.322h1.15c.828 0 1.472-.184 1.886-.644.368-.368.552-1.334.552-2.852V21.794c0-.46.092-.782.322-1.012.23-.184.644-.322 1.242-.322h4.232c.552 0 .966.138 1.196.322.23.23.368.552.368 1.012v20.378c0 3.312-.598 5.612-1.794 6.946q-1.863 2.07-6.486 2.07m4.876-32.476h-.552c-2.484 0-3.726-1.242-3.726-3.818v-.23c0-2.53 1.242-3.818 3.726-3.818h.552c2.484 0 3.726 1.288 3.726 3.818v.23c0 2.576-1.242 3.818-3.726 3.818m24.814 11.224v3.588c0 1.794.276 2.944.828 3.496.414.46 1.058.644 1.932.644h.184c.828 0 1.472-.184 1.932-.644.552-.552.828-1.702.828-3.496v-3.588c0-1.748-.276-2.944-.828-3.496-.46-.414-1.104-.644-1.932-.644h-.184c-.874 0-1.518.23-1.932.644-.552.552-.828 1.748-.828 3.496m13.11.276v2.99c0 2.3-.23 4.048-.69 5.336s-1.196 2.3-2.208 3.082c-1.518 1.196-3.864 1.794-7.084 1.794h-.552c-3.22 0-5.612-.598-7.084-1.794-1.012-.782-1.748-1.794-2.208-3.082s-.69-3.036-.69-5.336v-2.944c0-2.254.23-4.002.69-5.29a6.96 6.96 0 0 1 2.208-3.128c1.472-1.196 3.864-1.794 7.084-1.794h.552c3.22 0 5.566.598 7.084 1.794a7.1 7.1 0 0 1 2.208 3.082c.46 1.288.69 3.036.69 5.29m3.341-2.346v-.598c0-2.254.598-3.956 1.794-5.152 1.38-1.38 3.726-2.07 6.992-2.07h.46c2.576 0 4.83.276 6.716.828q.552.207.69.414c.092.184.138.414.092.782l-.506 3.772c-.092.598-.506.782-1.242.598-1.84-.414-3.496-.644-4.876-.644h-.046c-1.012 0-1.748.092-2.116.276-.414.184-.598.506-.598.966v.138c0 .46.138.782.506.966s1.058.414 2.116.598l2.162.46c1.978.46 3.404 1.15 4.232 2.07s1.242 2.346 1.242 4.232v.69c0 4.83-3.036 7.222-9.016 7.222h-.46c-3.036 0-5.566-.414-7.682-1.242-.414-.138-.69-.322-.782-.552-.092-.184-.092-.552 0-1.058l.644-3.036c.138-.874.644-1.15 1.564-.874 2.116.736 3.956 1.058 5.52 1.058h.138c1.012 0 1.702-.092 2.116-.322.368-.184.598-.552.598-1.058v-.138a.99.99 0 0 0-.506-.874q-.552-.276-2.208-.69l-2.024-.46q-3.036-.69-4.278-2.07c-.828-.92-1.242-2.3-1.242-4.232m28.939-1.564h-7.314c-.46 0-.782-.046-.966-.23s-.23-.552-.23-1.104v-3.174c0-.552.046-.874.23-1.058q.276-.276.966-.276h15.548c.46 0 .782.092 1.012.276.184.184.322.552.322 1.058v.874c0 1.196-.368 2.3-1.012 3.266l-7.912 11.224h7.866c.46 0 .736.092.92.276s.276.506.276 1.058v3.174q0 .828-.276 1.104c-.184.184-.46.23-.92.23h-15.824c-.966 0-1.426-.414-1.426-1.334v-1.058c0-1.196.322-2.254 1.012-3.266zm23.387 11.178h.368c1.242 0 2.576-.184 4.002-.598.46-.092.736-.138.874-.138.46 0 .736.276.828.782l.414 2.346c.092.644.184 1.058.184 1.242 0 .552-.414.966-1.196 1.242-2.024.736-4.232 1.058-6.624 1.058h-.552c-3.312 0-5.75-.736-7.268-2.3q-2.346-2.346-2.346-7.866V30.58c0-2.162.184-3.864.552-5.06q.552-1.794 1.794-3.036c1.61-1.61 4.14-2.438 7.59-2.438h.46c2.76 0 5.152.506 7.084 1.518.552.322.874.69.874 1.15 0 .276-.138.736-.368 1.38l-.874 2.208q-.345.828-.966.828c-.184 0-.46-.046-.828-.23-1.472-.598-2.852-.92-4.094-.92h-.184c-1.196 0-2.07.322-2.622.874-.69.69-1.012 2.116-1.012 4.232v1.564c0 1.886.276 3.174.92 3.864.598.644 1.61.966 2.99.966m17.807-11.178h-7.314c-.46 0-.782-.046-.966-.23s-.23-.552-.23-1.104v-3.174c0-.552.046-.874.23-1.058q.276-.276.966-.276h15.548c.46 0 .782.092 1.012.276.184.184.322.552.322 1.058v.874c0 1.196-.368 2.3-1.012 3.266l-7.912 11.224h7.866c.46 0 .736.092.92.276s.276.506.276 1.058v3.174q0 .828-.276 1.104c-.184.184-.46.23-.92.23h-15.824c-.966 0-1.426-.414-1.426-1.334v-1.058c0-1.196.322-2.254 1.012-3.266zm23.754 11.178h.506c1.564 0 3.22-.184 4.876-.598.46-.092.736-.138.874-.138.46 0 .736.276.828.782l.368 2.3c.092.644.184 1.058.184 1.242 0 .552-.414.966-1.196 1.242a6.67 6.67 0 0 0-2.944 2.208c-.782 1.012-1.15 2.024-1.15 2.944v.138c0 .874.414 1.288 1.242 1.288h.23c.506 0 1.15-.092 1.886-.368.23-.046.414-.092.552-.092.23 0 .414.23.552.598l.23.966c.138.644.23.966.23 1.058 0 .276-.23.506-.644.69q-1.794.69-3.726.69h-.276c-1.61 0-2.806-.322-3.634-1.012s-1.242-1.656-1.242-2.944v-.138c0-.828.276-1.748.874-2.668s1.38-1.656 2.392-2.3c-.368.046-.874.046-1.518.046h-.874q-5.658 0-8.004-2.346c-.92-.874-1.518-1.932-1.84-3.128s-.46-2.806-.46-4.784V30.58c0-4.002.92-6.808 2.76-8.464 1.564-1.38 3.956-2.07 7.222-2.07h.644c3.22 0 5.566.782 6.946 2.3 1.472 1.656 2.208 4.37 2.208 8.234v2.392c0 .874-.46 1.288-1.334 1.288h-11.04v.368c0 1.104.276 1.84.92 2.254.598.414 1.702.598 3.358.598m-4.278-8.004h5.06c.368 0 .552-.184.552-.598v-.736c0-.92-.184-1.61-.46-2.116-.368-.552-1.104-.828-2.116-.828h-.414c-.92 0-1.564.23-1.932.644q-.69.828-.69 2.484zm28.889 5.382v-5.842c0-1.15-.184-1.978-.552-2.438-.414-.46-1.15-.736-2.162-.736h-.46c-1.012 0-1.702.276-2.116.782-.46.506-.644 1.932-.644 4.324v2.024c0 2.208.23 3.588.69 4.048.368.46 1.058.644 2.116.644h.506c.874 0 1.518-.184 1.978-.598.414-.414.644-1.15.644-2.208m-.092-13.984h.092v-7.682c0-.46.092-.782.322-1.012.23-.184.644-.322 1.242-.322h4.278c.552 0 .966.138 1.196.322.184.23.322.552.322 1.012v20.93c0 3.22-.598 5.428-1.794 6.716-.874.92-1.932 1.61-3.174 1.978-1.288.414-2.99.598-5.152.598h-.782c-3.404 0-5.842-.69-7.406-2.07-1.61-1.38-2.392-3.956-2.392-7.774v-3.68c0-3.68.736-6.256 2.3-7.728 1.472-1.38 3.496-2.116 6.118-2.116h.552q2.622 0 4.278.828m23.98-.828h.368c2.668 0 4.646.644 5.842 1.886 1.104 1.196 1.702 3.22 1.702 6.072v13.662c0 .46-.138.828-.368 1.012-.23.23-.644.322-1.196.322h-4.232c-.598 0-1.012-.092-1.242-.322-.23-.184-.322-.552-.322-1.012V28.648c0-1.012-.184-1.748-.506-2.116-.368-.368-1.058-.598-2.024-.598h-.276c-1.012 0-1.656.23-2.024.598s-.506 1.104-.506 2.116v13.018c0 .46-.138.828-.368 1.012-.23.23-.644.322-1.196.322h-4.232c-.598 0-1.012-.092-1.242-.322-.23-.184-.322-.552-.322-1.012V21.748c0-.46.092-.782.322-.966s.644-.322 1.242-.322h2.162c.552 0 .92.092 1.15.23q.345.207.552.828l.276.874h.138c1.472-1.564 3.542-2.346 6.302-2.346m18.964 9.89v3.588c0 1.794.276 2.944.828 3.496.414.46 1.058.644 1.932.644h.184c.828 0 1.472-.184 1.932-.644.552-.552.828-1.702.828-3.496v-3.588c0-1.748-.276-2.944-.828-3.496-.46-.414-1.104-.644-1.932-.644h-.184c-.874 0-1.518.23-1.932.644-.552.552-.828 1.748-.828 3.496m13.11.276v2.99c0 2.3-.23 4.048-.69 5.336s-1.196 2.3-2.208 3.082c-1.518 1.196-3.864 1.794-7.084 1.794h-.552c-3.22 0-5.612-.598-7.084-1.794-1.012-.782-1.748-1.794-2.208-3.082s-.69-3.036-.69-5.336v-2.944c0-2.254.23-4.002.69-5.29a6.96 6.96 0 0 1 2.208-3.128c1.472-1.196 3.864-1.794 7.084-1.794h.552c3.22 0 5.566.598 7.084 1.794a7.1 7.1 0 0 1 2.208 3.082c.46 1.288.69 3.036.69 5.29m3.34-2.346v-.598c0-2.254.598-3.956 1.794-5.152 1.38-1.38 3.726-2.07 6.992-2.07h.46c2.576 0 4.83.276 6.716.828q.552.207.69.414c.092.184.138.414.092.782l-.506 3.772c-.092.598-.506.782-1.242.598-1.84-.414-3.496-.644-4.876-.644h-.046c-1.012 0-1.748.092-2.116.276-.414.184-.598.506-.598.966v.138c0 .46.138.782.506.966s1.058.414 2.116.598l2.162.46c1.978.46 3.404 1.15 4.232 2.07s1.242 2.346 1.242 4.232v.69c0 4.83-3.036 7.222-9.016 7.222h-.46c-3.036 0-5.566-.414-7.682-1.242-.414-.138-.69-.322-.782-.552-.092-.184-.092-.552 0-1.058l.644-3.036c.138-.874.644-1.15 1.564-.874 2.116.736 3.956 1.058 5.52 1.058h.138c1.012 0 1.702-.092 2.116-.322.368-.184.598-.552.598-1.058v-.138a.99.99 0 0 0-.506-.874q-.552-.276-2.208-.69l-2.024-.46q-3.036-.69-4.278-2.07c-.828-.92-1.242-2.3-1.242-4.232m4.278-13.478 7.222-6.164c.276-.276.598-.414.874-.414.322 0 .644.23.92.598l2.208 2.852c.184.276.276.506.276.782 0 .368-.276.736-.736 1.104l-7.268 4.968c-.368.23-.644.322-.92.322-.368 0-.736-.184-1.104-.644l-1.38-1.61c-.368-.414-.506-.782-.506-1.058s.138-.552.414-.736m27.744 23.092h.368c1.242 0 2.576-.184 4.002-.598.46-.092.736-.138.874-.138.46 0 .736.276.828.782l.414 2.346c.092.644.184 1.058.184 1.242 0 .552-.414.966-1.196 1.242-2.024.736-4.232 1.058-6.624 1.058h-.552c-3.312 0-5.75-.736-7.268-2.3q-2.346-2.346-2.346-7.866V30.58c0-2.162.184-3.864.552-5.06q.552-1.794 1.794-3.036c1.61-1.61 4.14-2.438 7.59-2.438h.46c2.76 0 5.152.506 7.084 1.518.552.322.874.69.874 1.15 0 .276-.138.736-.368 1.38l-.874 2.208q-.345.828-.966.828c-.184 0-.46-.046-.828-.23-1.472-.598-2.852-.92-4.094-.92h-.184c-1.196 0-2.07.322-2.622.874-.69.69-1.012 2.116-1.012 4.232v1.564c0 1.886.276 3.174.92 3.864.598.644 1.61.966 2.99.966m17.761-15.686v19.872c0 .46-.138.828-.368 1.012-.23.23-.644.322-1.196.322h-4.232c-.598 0-1.012-.092-1.242-.322-.23-.184-.322-.552-.322-1.012V21.794c0-.46.092-.782.322-1.012.23-.184.644-.322 1.242-.322h4.232c.552 0 .966.138 1.196.322.23.23.368.552.368 1.012m-3.404-3.082h-.552c-2.484 0-3.726-1.242-3.726-3.818v-.23c0-2.53 1.242-3.818 3.726-3.818h.552c2.484 0 3.726 1.288 3.726 3.818v.23c0 2.576-1.242 3.818-3.726 3.818m14.841 11.224v3.588c0 1.794.276 2.944.828 3.496.414.46 1.058.644 1.932.644h.184c.828 0 1.472-.184 1.932-.644.552-.552.828-1.702.828-3.496v-3.588c0-1.748-.276-2.944-.828-3.496-.46-.414-1.104-.644-1.932-.644h-.184c-.874 0-1.518.23-1.932.644-.552.552-.828 1.748-.828 3.496m13.11.276v2.99c0 2.3-.23 4.048-.69 5.336s-1.196 2.3-2.208 3.082c-1.518 1.196-3.864 1.794-7.084 1.794h-.552c-3.22 0-5.612-.598-7.084-1.794-1.012-.782-1.748-1.794-2.208-3.082s-.69-3.036-.69-5.336v-2.944c0-2.254.23-4.002.69-5.29a6.96 6.96 0 0 1 2.208-3.128c1.472-1.196 3.864-1.794 7.084-1.794h.552c3.22 0 5.566.598 7.084 1.794a7.1 7.1 0 0 1 2.208 3.082c.46 1.288.69 3.036.69 5.29m23.81-1.564v13.018c0 .46-.138.828-.368 1.012-.23.23-.644.322-1.196.322h-4.232c-.598 0-1.012-.092-1.242-.322-.23-.184-.322-.552-.322-1.012V28.648c0-1.012-.184-1.748-.506-2.116-.368-.368-1.058-.598-2.024-.598h-.092c-1.012 0-1.656.23-2.024.598s-.506 1.104-.506 2.116v13.018c0 .46-.138.828-.368 1.012-.23.23-.644.322-1.196.322h-4.232c-.598 0-1.012-.092-1.242-.322-.23-.184-.322-.552-.322-1.012V21.748c0-.46.092-.782.322-.966s.644-.322 1.242-.322h2.162c.552 0 .92.092 1.15.23q.345.207.552.828l.276.874h.138c1.472-1.564 3.542-2.346 6.302-2.346h.184c2.622 0 4.646.736 6.072 2.116 1.472-1.38 3.588-2.116 6.256-2.116h.184c2.668 0 4.646.644 5.842 1.886 1.104 1.196 1.702 3.22 1.702 6.072v13.662c0 .46-.138.828-.368 1.012-.23.23-.644.322-1.196.322h-4.232c-.598 0-1.012-.092-1.242-.322-.23-.184-.322-.552-.322-1.012V28.648c0-1.012-.184-1.748-.506-2.116-.368-.368-1.058-.598-2.024-.598h-.092c-1.012 0-1.656.23-2.024.598s-.506 1.104-.506 2.116m32.643-5.704h.138c1.012-1.656 2.714-2.484 5.152-2.484h1.84c.46 0 .828.092 1.012.276s.322.506.322 1.012v3.358c0 .506-.092.828-.276 1.012q-.276.276-.966.276h-1.38c-1.702 0-2.852.322-3.496.966-.552.552-.782 1.61-.782 3.174v11.132c0 .46-.138.828-.368 1.012-.23.23-.644.322-1.196.322h-4.232c-.598 0-1.012-.092-1.242-.322-.23-.184-.322-.552-.322-1.012V21.748c0-.46.092-.782.322-.966s.644-.322 1.242-.322h2.208c.506 0 .874.092 1.104.23q.345.276.552.828zm17.675 6.992v3.588c0 1.794.276 2.944.828 3.496.414.46 1.058.644 1.932.644h.184c.828 0 1.472-.184 1.932-.644.552-.552.828-1.702.828-3.496v-3.588c0-1.748-.276-2.944-.828-3.496-.46-.414-1.104-.644-1.932-.644h-.184c-.874 0-1.518.23-1.932.644-.552.552-.828 1.748-.828 3.496m13.11.276v2.99c0 2.3-.23 4.048-.69 5.336s-1.196 2.3-2.208 3.082c-1.518 1.196-3.864 1.794-7.084 1.794h-.552c-3.22 0-5.612-.598-7.084-1.794-1.012-.782-1.748-1.794-2.208-3.082s-.69-3.036-.69-5.336v-2.944c0-2.254.23-4.002.69-5.29a6.96 6.96 0 0 1 2.208-3.128c1.472-1.196 3.864-1.794 7.084-1.794h.552c3.22 0 5.566.598 7.084 1.794a7.1 7.1 0 0 1 2.208 3.082c.46 1.288.69 3.036.69 5.29m3.341-2.346v-.598c0-2.254.598-3.956 1.794-5.152 1.38-1.38 3.726-2.07 6.992-2.07h.46c2.576 0 4.83.276 6.716.828q.552.207.69.414c.092.184.138.414.092.782l-.506 3.772c-.092.598-.506.782-1.242.598-1.84-.414-3.496-.644-4.876-.644h-.046c-1.012 0-1.748.092-2.116.276-.414.184-.598.506-.598.966v.138c0 .46.138.782.506.966s1.058.414 2.116.598l2.162.46c1.978.46 3.404 1.15 4.232 2.07s1.242 2.346 1.242 4.232v.69c0 4.83-3.036 7.222-9.016 7.222h-.46c-3.036 0-5.566-.414-7.682-1.242-.414-.138-.69-.322-.782-.552-.092-.184-.092-.552 0-1.058l.644-3.036c.138-.874.644-1.15 1.564-.874 2.116.736 3.956 1.058 5.52 1.058h.138c1.012 0 1.702-.092 2.116-.322.368-.184.598-.552.598-1.058v-.138a.99.99 0 0 0-.506-.874q-.552-.276-2.208-.69l-2.024-.46q-3.036-.69-4.278-2.07c-.828-.92-1.242-2.3-1.242-4.232m33.585-7.82h.368c2.668 0 4.646.644 5.842 1.886 1.104 1.196 1.702 3.22 1.702 6.072v13.662c0 .46-.138.828-.368 1.012-.23.23-.644.322-1.196.322h-4.232c-.598 0-1.012-.092-1.242-.322-.23-.184-.322-.552-.322-1.012V28.648c0-1.012-.184-1.748-.506-2.116-.368-.368-1.058-.598-2.024-.598h-.276c-1.012 0-1.656.23-2.024.598s-.506 1.104-.506 2.116v13.018c0 .46-.138.828-.368 1.012-.23.23-.644.322-1.196.322h-4.232c-.598 0-1.012-.092-1.242-.322-.23-.184-.322-.552-.322-1.012V21.748c0-.46.092-.782.322-.966s.644-.322 1.242-.322h2.162c.552 0 .92.092 1.15.23q.345.207.552.828l.276.874h.138c1.472-1.564 3.542-2.346 6.302-2.346m25.588 21.068h-.092c-1.012 1.564-3.036 2.3-6.026 2.3h-.69c-2.346 0-4.186-.598-5.474-1.794-1.334-1.196-1.978-2.99-1.978-5.29v-.506c0-2.484.69-4.278 2.116-5.29s3.726-1.518 6.946-1.518h.322c1.196 0 2.3.092 3.22.184v-.966c0-.966-.276-1.656-.782-2.024-.552-.322-1.472-.506-2.76-.506-1.564 0-3.312.276-5.336.782-.552.138-.966.138-1.15 0-.23-.138-.368-.414-.414-.874l-.368-2.438c-.092-.46-.092-.782-.092-.92 0-.552.368-.966 1.104-1.196 2.346-.644 4.968-1.012 7.866-1.012 3.542 0 6.072.782 7.544 2.254 1.15 1.196 1.748 3.128 1.748 5.75v13.662c0 .69-.276 1.104-.736 1.288-1.15.46-2.116 1.104-2.852 1.932-.782.828-1.15 1.702-1.15 2.576v.138q0 1.242 1.242 1.242h.138a5.7 5.7 0 0 0 1.978-.368c.23-.046.414-.092.552-.092.23 0 .414.23.552.598l.23.966c.138.644.23.966.23 1.058 0 .276-.23.506-.644.69q-1.794.69-3.726.69h-.276c-1.564 0-2.806-.322-3.634-1.012s-1.242-1.656-1.242-2.852v-.23c0-1.104.368-2.162 1.15-3.174.736-1.012 1.748-1.84 2.944-2.484zm-1.656-5.888v-1.288q-.759-.138-2.208-.138h-.506q-1.656 0-2.346.414c-.46.276-.644.828-.644 1.656v.184c0 .828.184 1.38.644 1.656.414.322 1.058.46 1.932.46h.322c.92 0 1.61-.23 2.162-.69.414-.368.644-1.15.644-2.254m22.481 2.254h.368c1.242 0 2.576-.184 4.002-.598.46-.092.736-.138.874-.138.46 0 .736.276.828.782l.414 2.346c.092.644.184 1.058.184 1.242 0 .552-.414.966-1.196 1.242-2.024.736-4.232 1.058-6.624 1.058h-.552c-3.312 0-5.75-.736-7.268-2.3q-2.346-2.346-2.346-7.866V30.58c0-2.162.184-3.864.552-5.06q.552-1.794 1.794-3.036c1.61-1.61 4.14-2.438 7.59-2.438h.46c2.76 0 5.152.506 7.084 1.518.552.322.874.69.874 1.15 0 .276-.138.736-.368 1.38l-.874 2.208q-.345.828-.966.828c-.184 0-.46-.046-.828-.23-1.472-.598-2.852-.92-4.094-.92h-.184c-1.196 0-2.07.322-2.622.874-.69.69-1.012 2.116-1.012 4.232v1.564c0 1.886.276 3.174.92 3.864.598.644 1.61.966 2.99.966m-5.658-23.092 7.222-6.164c.276-.276.598-.414.874-.414.322 0 .644.23.92.598l2.208 2.852c.184.276.276.506.276.782 0 .368-.276.736-.736 1.104l-7.268 4.968c-.322.23-.644.322-.92.322-.368 0-.736-.184-1.104-.644l-1.38-1.61c-.368-.414-.506-.782-.506-1.058s.138-.552.414-.736"/></svg>