<svg xmlns="http://www.w3.org/2000/svg" fill="none" viewBox="0 0 324 55"><path fill="#fff" d="M9.706 28.97v5.888c0 1.058.184 1.794.644 2.208.368.414 1.058.598 2.07.598h.414c1.058 0 1.794-.276 2.254-.92q.552-.828.552-4.002v-1.978c0-2.3-.23-3.726-.598-4.186-.414-.46-1.196-.736-2.3-.736h-.184c-1.058 0-1.794.23-2.254.69-.414.414-.598 1.242-.598 2.438m0-7.682h.092q2.001-1.242 5.244-1.242h.414c2.76 0 4.784.828 6.026 2.484 1.012 1.426 1.564 3.956 1.564 7.59v3.312c0 3.68-.782 6.256-2.346 7.682-1.656 1.564-4.278 2.3-7.866 2.3h-.92c-3.772 0-6.348-.736-7.728-2.254-1.242-1.334-1.84-3.496-1.84-6.532V13.192c0-.46.092-.782.322-1.012.184-.184.598-.322 1.196-.322h4.278c.552 0 .966.138 1.196.322.23.23.368.552.368 1.012zm28.25 16.192h.506c1.564 0 3.22-.184 4.876-.598.46-.092.736-.138.874-.138.46 0 .736.276.828.782l.368 2.3c.092.644.184 1.058.184 1.242 0 .552-.414.966-1.196 1.242-2.116.736-4.462 1.104-6.946 1.104h-.874q-5.658 0-8.004-2.346c-.92-.874-1.518-1.932-1.84-3.128s-.46-2.806-.46-4.784V30.58c0-4.002.92-6.808 2.76-8.464 1.564-1.38 3.956-2.07 7.222-2.07h.644c3.22 0 5.566.782 6.946 2.3 1.472 1.656 2.208 4.37 2.208 8.234v2.392c0 .874-.46 1.288-1.334 1.288h-11.04v.368c0 1.104.276 1.84.92 2.254.598.414 1.702.598 3.358.598m-4.278-8.004h5.06c.368 0 .552-.184.552-.598v-.736c0-.92-.184-1.61-.46-2.116-.368-.552-1.104-.828-2.116-.828H36.3c-.92 0-1.564.23-1.932.644q-.69.828-.69 2.484zm23.783-3.174h-7.314c-.46 0-.782-.046-.966-.23s-.23-.552-.23-1.104v-3.174c0-.552.046-.874.23-1.058q.276-.276.966-.276h15.548c.46 0 .782.092 1.012.276.184.184.322.552.322 1.058v.874c0 1.196-.368 2.3-1.012 3.266l-7.912 11.224h7.866c.46 0 .736.092.92.276s.276.506.276 1.058v3.174q0 .828-.276 1.104c-.184.184-.46.23-.92.23H50.147c-.966 0-1.426-.414-1.426-1.334v-1.058c0-1.196.322-2.254 1.012-3.266zM88.475 37.02h1.472c.46 0 .828.138 1.011.322.184.23.323.644.323 1.242v2.852c0 .644-.139 1.058-.323 1.242-.183.23-.552.322-1.011.322H86.45c-2.3 0-3.91-.414-4.83-1.334-.92-.874-1.38-2.438-1.38-4.646V13.192c0-.46.091-.782.322-1.012.23-.184.644-.322 1.242-.322h4.231c.552 0 .966.138 1.197.322.23.23.367.552.367 1.012v22.954c0 .368.047.598.184.69.092.138.322.184.69.184m13.278-15.226v19.872c0 .46-.138.828-.368 1.012-.23.23-.644.322-1.196.322h-4.232c-.598 0-1.012-.092-1.242-.322-.23-.184-.322-.552-.322-1.012V21.794c0-.46.092-.782.322-1.012.23-.184.644-.322 1.242-.322h4.232c.552 0 .966.138 1.196.322.23.23.368.552.368 1.012m-3.404-3.082h-.552c-2.484 0-3.726-1.242-3.726-3.818v-.23c0-2.53 1.242-3.818 3.726-3.818h.552c2.484 0 3.726 1.288 3.726 3.818v.23c0 2.576-1.242 3.818-3.726 3.818m28.043 9.936v13.018c0 .46-.138.828-.368 1.012-.23.23-.644.322-1.196.322h-4.232c-.598 0-1.012-.092-1.242-.322-.23-.184-.322-.552-.322-1.012V28.648c0-1.012-.184-1.748-.506-2.116-.368-.368-1.058-.598-2.024-.598h-.092c-1.012 0-1.656.23-2.024.598s-.506 1.104-.506 2.116v13.018c0 .46-.138.828-.368 1.012-.23.23-.644.322-1.196.322h-4.232c-.598 0-1.012-.092-1.242-.322-.23-.184-.322-.552-.322-1.012V21.748c0-.46.092-.782.322-.966s.644-.322 1.242-.322h2.162c.552 0 .92.092 1.15.23q.345.207.552.828l.276.874h.138c1.472-1.564 3.542-2.346 6.302-2.346h.184c2.622 0 4.646.736 6.072 2.116 1.472-1.38 3.588-2.116 6.256-2.116h.184c2.668 0 4.646.644 5.842 1.886 1.104 1.196 1.702 3.22 1.702 6.072v13.662c0 .46-.138.828-.368 1.012-.23.23-.644.322-1.196.322h-4.232c-.598 0-1.012-.092-1.242-.322-.23-.184-.322-.552-.322-1.012V28.648c0-1.012-.184-1.748-.506-2.116-.368-.368-1.058-.598-2.024-.598h-.092c-1.012 0-1.656.23-2.024.598s-.506 1.104-.506 2.116m24.326-6.854v19.872c0 .46-.138.828-.368 1.012-.23.23-.644.322-1.196.322h-4.232c-.598 0-1.012-.092-1.242-.322-.23-.184-.322-.552-.322-1.012V21.794c0-.46.092-.782.322-1.012.23-.184.644-.322 1.242-.322h4.232c.552 0 .966.138 1.196.322.23.23.368.552.368 1.012m-3.404-3.082h-.552c-2.484 0-3.726-1.242-3.726-3.818v-.23c0-2.53 1.242-3.818 3.726-3.818h.552c2.484 0 3.726 1.288 3.726 3.818v.23c0 2.576-1.242 3.818-3.726 3.818m22.569 19.964v2.622c0 .69-.138 1.15-.322 1.38s-.598.322-1.15.322h-3.68c-3.312 0-5.52-.552-6.532-1.702-.92-.966-1.334-2.806-1.334-5.566V26.21h-2.484c-.46 0-.736-.046-.92-.23s-.23-.46-.23-.92v-2.346c0-.552.046-.92.23-1.104.138-.184.46-.322.966-.46l2.438-.598v-4.508c0-.46.092-.782.322-1.012.23-.184.644-.322 1.242-.322h4.232c.552 0 .966.138 1.196.322.23.23.368.552.368 1.012v4.416h3.818c.46 0 .736.092.92.276s.276.506.276 1.058v3.082q0 .828-.276 1.104c-.184.184-.46.23-.92.23h-3.818v8.694c0 .828.092 1.334.368 1.61.276.322.874.46 1.794.46h2.024c.552 0 .966.138 1.15.368s.322.69.322 1.334m15.579-3.91V21.794c0-.46.092-.782.322-1.012.23-.184.644-.322 1.242-.322h4.232c.552 0 .966.138 1.196.322.23.23.368.552.368 1.012V35.41q0 4.209-2.07 6.072c-1.472 1.288-4.048 1.932-7.82 1.932s-6.394-.644-7.82-1.932q-2.07-1.863-2.07-6.072V21.794c0-.46.092-.782.322-1.012.23-.184.644-.322 1.242-.322h4.232c.552 0 .966.138 1.196.322.23.23.368.552.368 1.012v12.972c0 1.058.138 1.748.506 2.116.368.414 1.012.598 2.024.598.966 0 1.656-.184 2.024-.598.322-.368.506-1.058.506-2.116m29.043-.69v7.59c0 .46-.138.828-.368 1.012-.23.23-.644.322-1.196.322h-4.232c-.598 0-1.012-.092-1.242-.322-.23-.184-.322-.552-.322-1.012V13.192c0-.46.092-.782.322-1.012.23-.184.644-.322 1.242-.322h4.232c.552 0 .966.138 1.196.322.23.23.368.552.368 1.012v14.996h.322l4.37-6.67c.414-.69 1.058-1.058 1.932-1.058h5.336c.506 0 .782.184.782.552 0 .184-.138.506-.368.874l-5.29 7.912c-.414.644-.598 1.104-.598 1.38 0 .322.184.782.598 1.38l5.658 8.924c.184.368.276.598.276.782 0 .506-.322.736-.966.736h-5.106c-.644 0-1.15-.046-1.426-.23q-.414-.207-.828-.966l-4.37-7.728zm27.506-12.512h3.956c.644 0 1.104.092 1.334.276s.414.552.506 1.104c0 .184.828 4.278 2.438 12.236h.138c.828-4.83 1.564-9.292 2.162-13.432.046-.506.184-.828.368-1.012q.276-.276.966-.276h4.692c.506 0 .828.138 1.012.322.138.23.184.598.092 1.058-.736 3.588-1.656 7.544-2.668 11.868s-1.748 7.038-2.208 8.188c-.184.46-.414.782-.644.92s-.598.184-1.058.184h-5.06c-.966 0-1.564-.322-1.748-1.058-.874-3.128-1.61-7.084-2.254-11.868h-.184c-.598 4.14-1.38 8.096-2.3 11.868-.184.736-.736 1.058-1.656 1.058h-4.968c-.92 0-1.518-.322-1.748-1.012-.46-1.242-1.242-4.094-2.346-8.51a214 214 0 0 1-2.576-11.638c-.138-.506-.092-.874.092-1.058s.552-.322 1.104-.322h4.508c.46 0 .828.092 1.058.276.184.184.322.552.414 1.012.644 4.278 1.38 8.74 2.254 13.432h.184c1.104-5.704 1.886-9.798 2.254-12.236.092-.598.23-.966.46-1.15.23-.138.69-.23 1.426-.23m27.058 8.372v3.588c0 1.794.276 2.944.828 3.496.414.46 1.058.644 1.932.644h.184c.828 0 1.472-.184 1.932-.644.552-.552.828-1.702.828-3.496v-3.588c0-1.748-.276-2.944-.828-3.496-.46-.414-1.104-.644-1.932-.644h-.184c-.874 0-1.518.23-1.932.644-.552.552-.828 1.748-.828 3.496m13.11.276v2.99c0 2.3-.23 4.048-.69 5.336s-1.196 2.3-2.208 3.082c-1.518 1.196-3.864 1.794-7.084 1.794h-.552c-3.22 0-5.612-.598-7.084-1.794-1.012-.782-1.748-1.794-2.208-3.082s-.69-3.036-.69-5.336v-2.944c0-2.254.23-4.002.69-5.29a6.96 6.96 0 0 1 2.208-3.128c1.472-1.196 3.864-1.794 7.084-1.794h.552c3.22 0 5.566.598 7.084 1.794a7.1 7.1 0 0 1 2.208 3.082c.46 1.288.69 3.036.69 5.29m18.336 8.464v2.622c0 .69-.138 1.15-.322 1.38s-.598.322-1.15.322h-3.68c-3.312 0-5.52-.552-6.532-1.702-.92-.966-1.334-2.806-1.334-5.566V26.21h-2.484c-.46 0-.736-.046-.92-.23s-.23-.46-.23-.92v-2.346c0-.552.046-.92.23-1.104.138-.184.46-.322.966-.46l2.438-.598v-4.508c0-.46.092-.782.322-1.012.23-.184.644-.322 1.242-.322h4.232c.552 0 .966.138 1.196.322.23.23.368.552.368 1.012v4.416h3.818c.46 0 .736.092.92.276s.276.506.276 1.058v3.082q0 .828-.276 1.104c-.184.184-.46.23-.92.23h-3.818v8.694c0 .828.092 1.334.368 1.61.276.322.874.46 1.794.46h2.024c.552 0 .966.138 1.15.368s.322.69.322 1.334M323.5 21.84c-.644 4.324-1.84 9.108-3.588 14.398-1.794 5.29-3.956 10.304-6.486 14.996-.322.644-.736.966-1.288.966-.368 0-.782-.092-1.334-.368l-2.346-1.012c-.828-.368-1.196-.736-1.196-1.15 0-.184.046-.46.23-.782 1.564-3.174 2.484-5.014 2.668-5.52-1.288-.46-2.254-1.472-2.99-3.128-.828-1.84-1.794-4.646-2.852-8.51q-1.587-5.796-2.346-9.936c-.092-.46-.046-.782.184-1.012.23-.184.644-.322 1.196-.322h4.186c.506 0 .874.092 1.104.23s.414.414.506.874c1.058 5.796 2.254 10.948 3.588 15.41h.23c1.288-3.68 2.484-8.74 3.588-15.272q.069-.69.414-.966c.23-.184.598-.276 1.058-.276h4.232c.506 0 .874.138 1.058.322s.23.552.184 1.058"/></svg>