<svg xmlns="http://www.w3.org/2000/svg" fill="none" viewBox="0 0 245 85"><path fill="#fff" d="M1.936 6.152.968 1.708C2.244.828 4.708-.008 7.524-.008c5.632 0 8.272 3.432 8.272 7.304 0 3.036-2.024 5.984-5.016 6.732v.088c3.476.704 5.896 3.344 5.896 7.436 0 5.676-4.84 8.8-10.164 8.8-2.464 0-4.62-.572-5.984-1.32l.836-4.708c1.276.748 2.948 1.188 4.576 1.188 3.08 0 4.708-1.76 4.708-4.136 0-3.3-2.728-4.62-5.852-4.62H3.96V12.4h.572c2.64 0 5.28-1.276 5.28-4.004 0-2.068-1.276-3.476-3.74-3.476-1.364 0-2.992.572-4.136 1.232m28.265 17.072h-5.324L23.557 30H17.97L24.393.344h6.908L37.065 30h-5.588zm-4.752-4.488h4.224l-.968-6.204c-.308-1.804-.704-4.752-.968-6.732h-.132c-.308 1.98-.748 5.06-1.056 6.776zM40.321.344h15.137v4.928h-9.416v6.204c.835-.176 1.495-.22 2.331-.22 2.553 0 4.797.792 6.425 2.2 1.76 1.54 2.816 3.872 2.816 6.864 0 2.86-.88 5.148-2.464 6.732-2.024 2.156-5.192 3.168-9.46 3.168-2.2 0-4.048-.132-5.368-.308zm5.765 15.664v9.504c.395.088.791.088 1.276.088 1.363 0 2.463-.528 3.167-1.408.749-.88 1.1-2.112 1.1-3.432 0-1.364-.395-2.596-1.143-3.432-.748-.88-1.804-1.452-3.08-1.452q-.727 0-1.32.132M69.52-.008c7.172 0 9.196 7.876 9.196 14.652 0 11.176-3.96 15.708-9.592 15.708-6.732 0-9.372-7.128-9.372-15.268 0-8.096 3.212-15.092 9.768-15.092m-.22 5.016c-2.288 0-3.564 3.784-3.564 10.164 0 6.732 1.276 10.164 3.608 10.164 2.42 0 3.344-4.4 3.344-10.428 0-5.192-.792-9.9-3.388-9.9M84.998 30V5.668h-5.236V.344h16.28v5.324h-5.28V30zm22.117-6.776h-5.324L100.471 30h-5.588L101.307.344h6.908L113.979 30h-5.588zm-4.752-4.488h4.224l-.968-6.204c-.308-1.804-.704-4.752-.968-6.732h-.132c-.308 1.98-.748 5.06-1.056 6.776zM10.868 52.992c7.172 0 9.196 7.876 9.196 14.652 0 11.176-3.96 15.708-9.592 15.708-6.732 0-9.372-7.128-9.372-15.268 0-8.096 3.212-15.092 9.768-15.092m-.22 5.016c-2.288 0-3.564 3.784-3.564 10.164 0 6.732 1.276 10.164 3.608 10.164 2.42 0 3.344-4.4 3.344-10.428 0-5.192-.792-9.9-3.388-9.9M49.396 83l-.529-10.384c-.131-2.816-.351-6.644-.264-9.812h-.132c-.527 3.168-1.32 6.82-1.891 9.108l-2.552 10.604h-4.093l-2.464-10.428c-.571-2.376-1.363-6.072-1.803-9.284h-.133a328 328 0 0 1-.44 9.9L34.613 83H29.64l2.156-29.656h6.072l2.375 10.736c.837 3.74 1.584 7.04 2.112 10.384h.089c.44-3.3 1.1-6.644 1.892-10.384l2.331-10.736h6.072L54.545 83zm9.36-29.656h5.103V59.9c0 5.456-.352 10.56-.572 13.64h.088c.836-2.552 2.332-6.424 3.212-8.712l4.356-11.484h5.236V83h-5.06v-6.688c0-5.94.22-10.34.352-13.332h-.088c-.66 2.684-1.98 6.248-2.948 8.712L64.08 83h-5.324zm22.558 0h5.632v12.892h.44l4.84-12.892h6.336l-6.82 13.728c3.036 1.144 4.048 3.916 4.884 7.524.66 2.86 1.144 5.676 2.024 8.404h-5.764c-.704-2.112-1.144-4.532-1.628-6.864-.704-3.476-1.496-5.72-3.872-5.72h-.44V83h-5.632zM101.294 83V53.784c1.628-.352 3.828-.572 6.028-.572 3.432 0 6.116.484 8.052 2.288 1.76 1.54 2.552 4.004 2.552 6.512 0 3.212-.968 5.456-2.508 7.128-1.848 1.936-4.84 2.816-7.216 2.816h-1.144V83zm5.764-24.904v9.152c.264.088.572.088.924.088 2.904 0 4.224-2.068 4.224-4.84 0-2.596-1.056-4.62-3.74-4.62-.528 0-1.056.088-1.408.22m22.662-5.104c7.172 0 9.196 7.876 9.196 14.652 0 11.176-3.96 15.708-9.592 15.708-6.732 0-9.372-7.128-9.372-15.268 0-8.096 3.212-15.092 9.768-15.092m-.22 5.016c-2.288 0-3.564 3.784-3.564 10.164 0 6.732 1.276 10.164 3.608 10.164 2.42 0 3.344-4.4 3.344-10.428 0-5.192-.792-9.9-3.388-9.9m21.051-5.72h5.06v2.244c5.324.704 9.372 4.884 9.372 13.42 0 9.108-4.092 12.936-9.372 13.684v2.42h-5.104v-2.42c-5.368-.792-9.372-4.576-9.372-13.552 0-8.712 4.796-12.848 9.416-13.552zm0 25.124v-18.7c-1.76.528-3.652 2.904-3.652 9.46 0 6.116 1.848 8.844 3.652 9.24m5.016-18.7v18.7c1.936-.396 3.652-2.772 3.652-9.416 0-6.732-1.98-8.888-3.652-9.284m13.902-5.368h15.444V83h-5.764V58.36h-4.4v7.832c0 6.82-.44 12.804-4.18 15.708-1.1.88-2.508 1.452-3.96 1.452l-1.232-4.884c.704-.176 1.452-.528 1.98-1.056 1.716-1.76 2.112-4.928 2.112-10.692zm28.872-.352c7.172 0 9.196 7.876 9.196 14.652 0 11.176-3.96 15.708-9.592 15.708-6.732 0-9.372-7.128-9.372-15.268 0-8.096 3.212-15.092 9.768-15.092m-.22 5.016c-2.288 0-3.564 3.784-3.564 10.164 0 6.732 1.276 10.164 3.608 10.164 2.42 0 3.344-4.4 3.344-10.428 0-5.192-.792-9.9-3.388-9.9M211.208 83V53.784c1.628-.352 3.828-.572 6.028-.572 3.432 0 6.116.484 8.052 2.288 1.76 1.54 2.552 4.004 2.552 6.512 0 3.212-.968 5.456-2.508 7.128-1.848 1.936-4.84 2.816-7.216 2.816h-1.144V83zm5.764-24.904v9.152c.264.088.572.088.924.088 2.904 0 4.224-2.068 4.224-4.84 0-2.596-1.056-4.62-3.74-4.62-.528 0-1.056.088-1.408.22m26.886 7.084v4.796h-6.776v8.008h7.656V83h-13.42V53.344h12.892v5.016h-7.128v6.82z"/></svg>