<svg xmlns="http://www.w3.org/2000/svg" fill="none" viewBox="0 0 272 24"><path fill="#fff" d="m1.99 5.116-.715-3.28c.941-.65 2.76-1.267 4.84-1.267 4.156 0 6.105 2.533 6.105 5.391 0 2.241-1.494 4.418-3.702 4.97v.065c2.566.52 4.352 2.468 4.352 5.489 0 4.19-3.573 6.496-7.503 6.496-1.819 0-3.41-.422-4.417-.975l.617-3.475c.942.552 2.176.877 3.378.877 2.273 0 3.475-1.3 3.475-3.053 0-2.436-2.014-3.41-4.32-3.41h-.617V9.728h.422c1.95 0 3.898-.942 3.898-2.956 0-1.526-.942-2.566-2.76-2.566-1.008 0-2.21.423-3.054.91m20.864 12.602h-3.93l-.974 5.002h-4.125L18.567.828h5.099l4.255 21.892h-4.125zm-3.508-3.313h3.118l-.714-4.58c-.228-1.331-.52-3.507-.715-4.969h-.097c-.228 1.462-.552 3.735-.78 5.002zM30.325.828h11.173v3.638h-6.951v4.58a7.7 7.7 0 0 1 1.722-.163c1.883 0 3.54.585 4.742 1.625 1.299 1.136 2.078 2.858 2.078 5.066 0 2.112-.65 3.8-1.819 4.97-1.494 1.591-3.832 2.338-6.983 2.338-1.624 0-2.988-.097-3.962-.227zm4.255 11.563v7.016c.292.065.584.065.941.065 1.007 0 1.82-.39 2.339-1.04.552-.649.812-1.558.812-2.533 0-1.007-.292-1.916-.844-2.533-.553-.65-1.332-1.072-2.274-1.072q-.536 0-.974.097M51.879.57c5.294 0 6.788 5.814 6.788 10.816 0 8.25-2.923 11.595-7.08 11.595-4.97 0-6.919-5.262-6.919-11.27 0-5.977 2.371-11.141 7.21-11.141m-.163 3.702c-1.689 0-2.63 2.794-2.63 7.503 0 4.97.941 7.503 2.663 7.503 1.786 0 2.468-3.248 2.468-7.698 0-3.832-.584-7.308-2.5-7.308M63.304 22.72V4.759H59.44V.829h12.018v3.93h-3.898V22.72zm16.326-5.002H75.7l-.974 5.002h-4.125L75.343.828h5.1l4.254 21.892h-4.125zm-3.507-3.313h3.118l-.715-4.58c-.227-1.331-.52-3.507-.714-4.969h-.098c-.227 1.462-.552 3.735-.78 5.002zM98.41.57c5.294 0 6.788 5.814 6.788 10.816 0 8.25-2.923 11.595-7.08 11.595-4.97 0-6.918-5.262-6.918-11.27C91.2 5.732 93.57.568 98.41.568m-.162 3.702c-1.69 0-2.631 2.794-2.631 7.503 0 4.97.942 7.503 2.663 7.503 1.787 0 2.469-3.248 2.469-7.698 0-3.832-.585-7.308-2.501-7.308M126.85 22.72l-.389-7.665c-.098-2.079-.26-4.905-.195-7.243h-.098a95 95 0 0 1-1.396 6.723l-1.884 7.828h-3.021l-1.819-7.698c-.422-1.754-1.007-4.482-1.331-6.853h-.098a242 242 0 0 1-.325 7.308l-.357 7.6h-3.67L113.858.828h4.483l1.754 7.926c.617 2.76 1.169 5.196 1.559 7.665h.065c.324-2.436.812-4.905 1.396-7.665l1.722-7.926h4.482l1.332 21.892zM133.759.828h3.768v4.84c0 4.027-.26 7.795-.422 10.069h.065c.617-1.884 1.721-4.742 2.371-6.431l3.215-8.478h3.866V22.72h-3.736v-4.937c0-4.385.163-7.633.26-9.841h-.065c-.487 1.98-1.461 4.612-2.176 6.43l-3.215 8.348h-3.931zm16.653 0h4.157v9.517h.325l3.573-9.517h4.677l-5.034 10.134c2.241.845 2.988 2.89 3.605 5.554.487 2.112.844 4.19 1.494 6.204h-4.255c-.52-1.56-.844-3.345-1.202-5.067-.519-2.566-1.104-4.222-2.858-4.222h-.325v9.289h-4.157zm14.749 21.892V1.153c1.202-.26 2.826-.422 4.45-.422 2.533 0 4.514.357 5.944 1.689 1.299 1.137 1.883 2.956 1.883 4.807 0 2.371-.714 4.028-1.851 5.262-1.364 1.429-3.573 2.079-5.327 2.079h-.844v8.152zm4.255-18.384v6.756c.195.065.422.065.682.065 2.144 0 3.118-1.526 3.118-3.573 0-1.916-.779-3.41-2.761-3.41-.39 0-.779.065-1.039.162M186.144.57c5.294 0 6.788 5.814 6.788 10.816 0 8.25-2.923 11.595-7.08 11.595-4.97 0-6.918-5.262-6.918-11.27 0-5.977 2.371-11.141 7.21-11.141m-.162 3.702c-1.689 0-2.631 2.794-2.631 7.503 0 4.97.942 7.503 2.663 7.503 1.787 0 2.469-3.248 2.469-7.698 0-3.832-.585-7.308-2.501-7.308M201.522.05h3.735v1.656c3.93.52 6.918 3.606 6.918 9.907 0 6.723-3.021 9.549-6.918 10.101V23.5h-3.768v-1.787c-3.962-.585-6.918-3.378-6.918-10.004 0-6.43 3.54-9.484 6.951-10.004zm0 18.546V4.791c-1.3.39-2.696 2.144-2.696 6.983 0 4.515 1.364 6.529 2.696 6.821m3.702-13.804v13.804c1.429-.292 2.696-2.046 2.696-6.95 0-4.97-1.461-6.562-2.696-6.854M215.487.828h11.4V22.72h-4.255V4.531h-3.248v5.782c0 5.034-.324 9.451-3.085 11.595-.812.65-1.852 1.072-2.923 1.072l-.91-3.605c.52-.13 1.072-.39 1.462-.78 1.266-1.3 1.559-3.638 1.559-7.893zm21.312-.26c5.294 0 6.788 5.815 6.788 10.817 0 8.25-2.923 11.595-7.08 11.595-4.97 0-6.919-5.262-6.919-11.27 0-5.977 2.371-11.141 7.211-11.141m-.162 3.703c-1.689 0-2.631 2.794-2.631 7.503 0 4.97.942 7.503 2.663 7.503 1.786 0 2.469-3.248 2.469-7.698 0-3.832-.585-7.308-2.501-7.308m9.661 18.449V1.153c1.201-.26 2.825-.422 4.449-.422 2.534 0 4.515.357 5.944 1.689 1.299 1.137 1.884 2.956 1.884 4.807 0 2.371-.715 4.028-1.851 5.262-1.364 1.429-3.573 2.079-5.327 2.079h-.845v8.152zm4.254-18.384v6.756c.195.065.423.065.683.065 2.143 0 3.118-1.526 3.118-3.573 0-1.916-.78-3.41-2.761-3.41-.39 0-.78.065-1.04.162m19.847 5.23v3.54h-5.002v5.911h5.651v3.703h-9.906V.828h9.517v3.703h-5.262v5.035z"/></svg>