<svg xmlns="http://www.w3.org/2000/svg" fill="none" viewBox="0 0 180 62"><path fill="#fff" d="M2.444.828h4.255v8.77h4.45V.828h4.254V22.72H11.15v-9.16h-4.45v9.16H2.444zm24.121 16.89h-3.93l-.974 5.002h-4.125L22.278.828h5.1l4.254 21.892h-4.125zm-3.508-3.313h3.118l-.714-4.58c-.228-1.331-.52-3.507-.715-4.969h-.097c-.228 1.462-.552 3.735-.78 5.002zm10.714-9.29-.714-3.28c.942-.65 2.76-1.266 4.84-1.266 4.157 0 6.105 2.533 6.105 5.391 0 2.241-1.494 4.418-3.702 4.97v.065c2.566.52 4.352 2.468 4.352 5.489 0 4.19-3.573 6.496-7.503 6.496-1.819 0-3.41-.422-4.417-.975l.617-3.475c.942.552 2.176.877 3.378.877 2.274 0 3.475-1.3 3.475-3.053 0-2.436-2.013-3.41-4.32-3.41h-.617V9.728h.423c1.948 0 3.897-.942 3.897-2.956 0-1.526-.942-2.566-2.76-2.566-1.008 0-2.21.423-3.054.91M47.231.829h4.255v8.77h4.45V.828h4.254V22.72h-4.255v-9.16h-4.45v9.16h-4.254zm24.12 16.89h-3.93l-.974 5.002h-4.125L67.066.828h5.099l4.255 21.892h-4.125zm-3.507-3.313h3.118l-.714-4.58c-.228-1.331-.52-3.507-.715-4.969h-.097c-.228 1.462-.553 3.735-.78 5.002zM78.66.828h4.19v7.276c0 1.786.682 3.053 2.404 3.053.617 0 1.331-.195 1.753-.455V.828h4.19V22.72h-4.19v-8.737h-.097c-1.007.455-1.981.747-3.118.747-3.768 0-5.132-2.533-5.132-6.139zm16.307 0h3.768v4.84c0 4.027-.26 7.795-.422 10.069h.065c.617-1.884 1.721-4.742 2.371-6.431l3.215-8.478h3.866V22.72h-3.736v-4.937c0-4.385.163-7.633.26-9.841h-.065c-.487 1.98-1.461 4.612-2.176 6.43l-3.216 8.348h-3.93zm17.497 0h11.401V22.72h-4.255V4.531h-3.248v5.782c0 5.034-.325 9.451-3.086 11.595-.812.65-1.851 1.072-2.923 1.072l-.909-3.605c.519-.13 1.071-.39 1.461-.78 1.267-1.3 1.559-3.638 1.559-7.893zm15.174 0h3.767v4.84c0 4.027-.259 7.795-.422 10.069h.065c.617-1.884 1.722-4.742 2.371-6.431l3.216-8.478h3.865V22.72h-3.735v-4.937c0-4.385.162-7.633.259-9.841h-.064c-.488 1.98-1.462 4.612-2.177 6.43l-3.215 8.348h-3.93zM9.849 56.718H5.92l-.974 5.002H.82l4.742-21.891h5.1l4.254 21.891h-4.125zm-3.508-3.313H9.46l-.715-4.58c-.227-1.331-.52-3.507-.715-4.969h-.097c-.227 1.462-.552 3.735-.78 5.002zM17.32 39.828h4.255v8.77h4.45v-8.77h4.255V61.72h-4.255v-9.16h-4.45v9.16H17.32zM36.407 61.72V43.759h-3.865v-3.93h12.017v3.93h-3.897V61.72zm10.38-21.891h3.767v4.839c0 4.028-.26 7.795-.422 10.069h.065c.617-1.884 1.721-4.742 2.371-6.431l3.216-8.477h3.865V61.72h-3.736v-4.937c0-4.385.163-7.633.26-9.841h-.065c-.487 1.98-1.461 4.612-2.176 6.43l-3.215 8.348h-3.93zm16.652 0h11.173v3.637h-6.95v4.58a7.7 7.7 0 0 1 1.72-.163c1.885 0 3.541.585 4.743 1.624 1.3 1.137 2.079 2.859 2.079 5.067 0 2.112-.65 3.8-1.82 4.97-1.493 1.591-3.832 2.338-6.982 2.338-1.624 0-2.989-.097-3.963-.227zm4.255 11.562v7.016c.292.065.584.065.942.065 1.007 0 1.819-.39 2.338-1.04.552-.649.812-1.558.812-2.533 0-1.007-.292-1.916-.844-2.533-.552-.65-1.332-1.072-2.274-1.072q-.536 0-.974.097M78.759 39.83h3.768v4.839c0 4.028-.26 7.795-.422 10.069h.064c.618-1.884 1.722-4.742 2.372-6.431l3.215-8.477h3.865V61.72h-3.735v-4.937c0-4.385.162-7.633.26-9.841h-.065c-.487 1.98-1.462 4.612-2.176 6.43l-3.216 8.348h-3.93zm22.791-.26c5.294 0 6.789 5.813 6.789 10.816 0 8.25-2.924 11.595-7.081 11.595-4.97 0-6.918-5.262-6.918-11.27 0-5.977 2.37-11.141 7.21-11.141m-.162 3.702c-1.69 0-2.631 2.794-2.631 7.503 0 4.97.942 7.503 2.663 7.503 1.787 0 2.469-3.248 2.469-7.698 0-3.832-.585-7.308-2.501-7.308m11.588 18.449V43.759h-3.865v-3.93h12.017v3.93h-3.897V61.72zm10.38-21.891h3.767v4.839c0 4.028-.259 7.795-.422 10.069h.065c.617-1.884 1.722-4.742 2.371-6.431l3.216-8.477h3.865V61.72h-3.735v-4.937c0-4.385.162-7.633.259-9.841h-.065c-.487 1.98-1.461 4.612-2.176 6.43l-3.215 8.348h-3.93zm16.652 0h4.158v9.516h.324l3.573-9.516h4.677l-5.034 10.133c2.241.845 2.988 2.89 3.605 5.554.487 2.111.845 4.19 1.494 6.204h-4.255c-.519-1.56-.844-3.346-1.201-5.067-.52-2.566-1.105-4.222-2.859-4.222h-.324v9.289h-4.158zm14.749 0h3.768v4.839c0 4.028-.26 7.795-.422 10.069h.065c.617-1.884 1.721-4.742 2.371-6.431l3.215-8.477h3.865V61.72h-3.735v-4.937c0-4.385.163-7.633.26-9.841h-.065c-.487 1.98-1.462 4.612-2.176 6.43l-3.216 8.348h-3.93zm21.232 15.135h-3.605l-.065-.584c-.227-1.917.52-3.638 1.721-5.522.942-1.397 1.397-2.371 1.397-3.605 0-1.202-.812-2.014-2.144-2.014-.714 0-1.461.13-2.078.585l-.715-3.281c.682-.455 2.209-.974 3.8-.974 4.288 0 5.489 2.825 5.489 5.002 0 2.24-1.266 4.06-2.403 5.716-.877 1.332-1.429 2.468-1.397 3.995zm-1.754 7.016c-1.396 0-2.436-1.104-2.436-2.599 0-1.591 1.137-2.63 2.404-2.663 1.397 0 2.436 1.072 2.436 2.663 0 1.495-.91 2.599-2.404 2.599"/></svg>