<svg xmlns="http://www.w3.org/2000/svg" fill="none" viewBox="0 0 80 12"><g clip-path="url(#a)"><path fill="#fff" d="m.21 9.269 1.342-1.487c.631.897 1.42 1.313 2.225 1.313.738 0 1.178-.39 1.178-1.019s-.415-.926-1.54-1.394C1.818 6.053.679 5.34.679 3.665S2.113.663 4.1.663c1.448 0 2.467.536 3.205 1.355L6.016 3.601c-.415-.536-.993-.884-1.743-.884-.617 0-1.057.334-1.057.83 0 .497.482.753 1.65 1.235 1.689.657 2.64 1.487 2.64 3.204 0 1.917-1.501 3.151-3.567 3.151-1.77 0-3.03-.777-3.726-1.863zm19.128 1.689L18.68 9.04h-3.7l-.697 1.917H11.63L15.772.85h2.239l4.088 10.11h-2.761zM15.665 7.15h2.36l-.497-1.448a65 65 0 0 1-.642-1.983 55 55 0 0 1-.685 1.97zm27.082 3.808V.85h2.895c3.432 0 5.83 1.69 5.83 5.053 0 3.365-2.359 5.054-5.67 5.054zm2.48-2.186h.536c1.902 0 3.165-.993 3.165-2.868s-1.072-2.803-3.165-2.803h-.536zM56.004 5.89c0-2.988 2.466-5.216 5.443-5.216 2.963 0 5.416 2.211 5.416 5.242 0 3.03-2.467 5.216-5.458 5.216s-5.4-2.105-5.4-5.242m8.3.028c0-1.66-1.22-2.948-2.868-2.948-1.622 0-2.867 1.299-2.867 2.934 0 1.729 1.299 2.935 2.842 2.935 1.65 0 2.895-1.245 2.895-2.923zM79.744.851h-7.98v2.2h3.9l-4.747 7.91h8.54V8.72h-4.424zm-45.78 10.107h2.346V.85h-2.346v6.44L29.235.85h-2.4v10.11h2.4V4.52l4.733 6.44z"/></g><defs><clipPath id="a"><rect width="80" height="10.947" fill="#fff" transform="translate(0 .453)"/></clipPath></defs></svg>