<svg xmlns="http://www.w3.org/2000/svg" fill="none" viewBox="0 0 55 9"><path fill="#fff" d="M2.26 4.582H.61L.6 4.069h1.43q.43 0 .728-.151.303-.15.459-.45.16-.297.161-.732 0-.45-.156-.742a.94.94 0 0 0-.464-.434q-.308-.147-.776-.147H.746V8H.19V.89h1.792q.453 0 .815.113.365.108.62.337.255.225.386.576.137.352.137.835 0 .44-.171.791a1.511 1.511 0 0 1-1.201.854zM2.22 8H.42l.297-.522h1.504q.429-.001.732-.176.303-.18.464-.508a1.75 1.75 0 0 0 .166-.791q0-.4-.141-.723a1.12 1.12 0 0 0-.435-.508q-.292-.19-.747-.19H1.196l.01-.513h1.489l.107.186q.41.048.708.293.303.245.469.62.166.376.166.825 0 .65-.244 1.099a1.67 1.67 0 0 1-.674.679Q2.797 8 2.22 8M4.979.89 6.74 4.754 8.513.89h.644L7.02 5.324V8h-.557V5.324L4.323.891zm8.513 6.602V8H9.717v-.459l1.953-2.642q.367-.492.58-.864a3.4 3.4 0 0 0 .308-.683q.093-.309.093-.601 0-.425-.141-.752a1.14 1.14 0 0 0-.406-.513 1.14 1.14 0 0 0-.664-.185q-.405 0-.703.215a1.33 1.33 0 0 0-.45.58 2.1 2.1 0 0 0-.155.845H9.59q0-.59.22-1.074.219-.488.634-.781t.996-.293q.542 0 .933.23.396.224.61.654.215.424.215 1.02 0 .323-.098.65a3.7 3.7 0 0 1-.258.65 6 6 0 0 1-.376.639q-.21.317-.44.625l-1.65 2.231zm1.556-3.003-.43-.132.293-3.466h3.003v.551h-2.54l-.204 2.383q.156-.132.444-.259.288-.126.654-.127.405 0 .728.162.322.156.556.454t.362.722q.127.426.127.957 0 .513-.108.943a2.3 2.3 0 0 1-.332.752 1.5 1.5 0 0 1-.561.493 1.7 1.7 0 0 1-.806.176q-.356 0-.669-.118a1.7 1.7 0 0 1-.562-.366 1.9 1.9 0 0 1-.4-.615 2.8 2.8 0 0 1-.195-.87h.517q.05.475.215.802t.44.493q.273.166.654.166.308 0 .542-.122.24-.122.4-.357.162-.24.24-.58.083-.348.083-.787 0-.376-.088-.693a1.8 1.8 0 0 0-.259-.562 1.2 1.2 0 0 0-.42-.37 1.14 1.14 0 0 0-.566-.138q-.42 0-.664.137-.24.137-.454.371m7.424-.654v1.196q0 .786-.127 1.367a3 3 0 0 1-.361.953q-.234.375-.581.561a1.6 1.6 0 0 1-.772.186 1.7 1.7 0 0 1-.634-.118 1.45 1.45 0 0 1-.513-.356 2.1 2.1 0 0 1-.381-.61 3.8 3.8 0 0 1-.24-.86 7 7 0 0 1-.082-1.123V3.835q0-.786.127-1.357.126-.577.366-.948.24-.375.576-.556.342-.186.776-.186.348 0 .63.117.288.117.513.357.23.234.38.595.157.361.24.855.083.493.083 1.123M21.93 5.1V3.757q0-.483-.054-.874a3.5 3.5 0 0 0-.156-.689 1.6 1.6 0 0 0-.264-.498 1.024 1.024 0 0 0-.83-.4q-.327 0-.57.156-.24.156-.406.469a2.7 2.7 0 0 0-.244.771q-.084.459-.083 1.065V5.1q0 .478.053.874.054.39.157.693.107.303.263.508.162.205.366.312.21.103.47.103.326 0 .57-.161.244-.166.406-.484.16-.322.24-.78.081-.465.082-1.065M24.1 7.53h.099q.649 0 1.083-.224.435-.225.689-.625.255-.405.361-.943.113-.542.113-1.172v-.996q0-.556-.103-.981a2.2 2.2 0 0 0-.283-.708 1.23 1.23 0 0 0-.43-.43 1 1 0 0 0-.537-.146.97.97 0 0 0-.542.156 1.3 1.3 0 0 0-.405.43q-.166.273-.254.625a3 3 0 0 0-.088.742q0 .36.078.703.082.337.24.605.16.27.39.43a.95.95 0 0 0 .542.156q.337 0 .6-.156.27-.161.46-.415.195-.258.297-.557.108-.302.118-.586l.268-.004q0 .444-.137.85-.136.4-.385.712a1.85 1.85 0 0 1-.576.493 1.5 1.5 0 0 1-.713.176q-.426 0-.748-.195a1.8 1.8 0 0 1-.537-.537 2.6 2.6 0 0 1-.322-.762 3.7 3.7 0 0 1-.107-.889q0-.513.122-.962.121-.45.351-.79a1.74 1.74 0 0 1 .572-.543q.336-.195.761-.195.494 0 .85.21.361.21.59.59.235.382.348.9.117.516.117 1.137v.557q0 .63-.079 1.206-.078.576-.263 1.064-.18.483-.503.845a2.16 2.16 0 0 1-.8.556q-.48.195-1.138.196h-.103zm7.645-.039V8H27.97v-.459l1.953-2.642q.366-.492.58-.864.216-.375.308-.683.093-.309.093-.601 0-.425-.141-.752a1.14 1.14 0 0 0-.406-.513 1.14 1.14 0 0 0-.664-.185q-.405 0-.703.215a1.33 1.33 0 0 0-.449.58 2.1 2.1 0 0 0-.156.845h-.542q0-.59.22-1.074.22-.488.634-.781.416-.293.996-.293.543 0 .933.23.396.224.61.654.215.424.215 1.02 0 .323-.098.65a3.7 3.7 0 0 1-.258.65 6 6 0 0 1-.376.639q-.21.317-.44.625l-1.65 2.231zM33.3 4.49l-.43-.132.293-3.466h3.003v.551h-2.54l-.204 2.383a1.9 1.9 0 0 1 .444-.259q.288-.126.654-.127.405 0 .728.162.322.156.556.454t.362.722q.127.426.127.957 0 .513-.108.943a2.3 2.3 0 0 1-.332.752 1.5 1.5 0 0 1-.561.493 1.7 1.7 0 0 1-.806.176q-.355 0-.669-.118a1.7 1.7 0 0 1-.561-.366 1.9 1.9 0 0 1-.4-.615 2.8 2.8 0 0 1-.196-.87h.518q.048.475.214.802.167.327.44.493t.654.166q.308 0 .542-.122.24-.122.4-.357.162-.24.24-.58a3.4 3.4 0 0 0 .083-.787q0-.376-.088-.693a1.8 1.8 0 0 0-.259-.562 1.2 1.2 0 0 0-.42-.37 1.14 1.14 0 0 0-.566-.138q-.42 0-.664.137-.24.137-.454.371M41.056 5.7v.508h-4.248v-.342l2.75-4.975h.448l-.6 1.215L37.462 5.7zM40.138.89V8h-.537V.89zm5.213 5.22q0 .65-.254 1.094a1.7 1.7 0 0 1-.684.67q-.43.224-.961.224-.543 0-.972-.225a1.7 1.7 0 0 1-.684-.669q-.249-.444-.249-1.094 0-.42.142-.766a1.768 1.768 0 0 1 .991-1.006q.346-.142.762-.142.542 0 .971.25.435.243.684.673.254.43.254.991m-.547.005q0-.454-.18-.79a1.299 1.299 0 0 0-1.182-.718q-.396 0-.703.19-.303.186-.479.527-.17.338-.17.791 0 .47.17.801.176.327.484.503.307.17.708.17t.703-.17a1.2 1.2 0 0 0 .473-.503q.176-.332.176-.8m.396-3.393q0 .522-.235.927t-.63.64q-.395.23-.888.23-.508 0-.904-.23a1.7 1.7 0 0 1-.62-.64q-.224-.405-.224-.927 0-.621.224-1.05.23-.43.62-.654.396-.225.894-.225.508 0 .903.225.396.224.625.654.235.429.235 1.05m-.542-.005q0-.415-.162-.733a1.2 1.2 0 0 0-.434-.498 1.1 1.1 0 0 0-.625-.185q-.347 0-.62.17a1.2 1.2 0 0 0-.425.489q-.15.318-.151.757 0 .425.151.737.156.308.425.479.273.166.63.166.35 0 .625-.166a1.2 1.2 0 0 0 .43-.479q.155-.312.156-.737M49.928.89v.341L47.4 8h-.567l2.52-6.602h-3.364V.891zm4.486 2.944v1.196q0 .786-.127 1.367a3 3 0 0 1-.361.953q-.235.375-.581.561a1.6 1.6 0 0 1-.772.186 1.7 1.7 0 0 1-.635-.118 1.45 1.45 0 0 1-.512-.356 2.1 2.1 0 0 1-.381-.61 3.8 3.8 0 0 1-.24-.86 7 7 0 0 1-.082-1.123V3.835q0-.786.127-1.357.126-.577.366-.948.24-.375.576-.556a1.6 1.6 0 0 1 .776-.186q.347 0 .63.117.288.117.513.357.23.234.38.595.157.361.24.855.083.493.083 1.123M53.872 5.1V3.757q0-.483-.054-.874a3.5 3.5 0 0 0-.156-.689 1.6 1.6 0 0 0-.264-.498 1.023 1.023 0 0 0-.83-.4q-.327 0-.57.156-.24.156-.406.469a2.7 2.7 0 0 0-.244.771q-.083.459-.083 1.065V5.1q0 .478.053.874.054.39.157.693.107.303.263.508.162.205.367.312.21.103.468.103.327 0 .572-.161.243-.166.405-.484a2.8 2.8 0 0 0 .24-.78q.081-.465.082-1.065"/></svg>