<svg xmlns="http://www.w3.org/2000/svg" fill="none" viewBox="0 0 199 69"><path fill="#fff" d="M2.088.736h4.716v9.72h4.932V.736h4.716V25h-4.716V14.848H6.804V25H2.088zm26.735 18.72h-4.356L23.387 25h-4.572L24.071.736h5.652L34.44 25h-4.572zm-3.888-3.672h3.456l-.792-5.076c-.252-1.476-.576-3.888-.792-5.508H26.7c-.252 1.62-.612 4.14-.864 5.544zM36.811 5.488l-.792-3.636c1.044-.72 3.06-1.404 5.364-1.404 4.608 0 6.768 2.808 6.768 5.976 0 2.484-1.656 4.896-4.104 5.508v.072c2.844.576 4.824 2.736 4.824 6.084 0 4.644-3.96 7.2-8.316 7.2-2.016 0-3.78-.468-4.896-1.08l.684-3.852c1.044.612 2.412.972 3.744.972 2.52 0 3.852-1.44 3.852-3.384 0-2.7-2.232-3.78-4.788-3.78h-.684V10.6h.468c2.16 0 4.32-1.044 4.32-3.276 0-1.692-1.044-2.844-3.06-2.844-1.116 0-2.448.468-3.384 1.008M51.729.736h4.716v9.72h4.932V.736h4.716V25h-4.716V14.848h-4.932V25h-4.716zm26.735 18.72h-4.356L73.028 25h-4.572L73.712.736h5.652L84.08 25h-4.572zm-3.888-3.672h3.456l-.792-5.076c-.252-1.476-.576-3.888-.792-5.508h-.108c-.252 1.62-.612 4.14-.864 5.544zM86.564.736h4.644V8.8c0 1.98.756 3.384 2.664 3.384.684 0 1.476-.216 1.944-.504V.736h4.644V25h-4.644v-9.684h-.108c-1.116.504-2.196.828-3.456.828-4.176 0-5.688-2.808-5.688-6.804zm18.075 0h4.176V6.1c0 4.464-.288 8.64-.468 11.16h.072c.684-2.088 1.908-5.256 2.628-7.128l3.564-9.396h4.284V25h-4.14v-5.472c0-4.86.18-8.46.288-10.908h-.072c-.54 2.196-1.62 5.112-2.412 7.128L108.995 25h-4.356zm19.393 0h12.636V25h-4.716V4.84h-3.6v6.408c0 5.58-.36 10.476-3.42 12.852-.9.72-2.052 1.188-3.24 1.188l-1.008-3.996c.576-.144 1.188-.432 1.62-.864 1.404-1.44 1.728-4.032 1.728-8.748zm16.818 0h4.176V6.1c0 4.464-.288 8.64-.468 11.16h.072c.684-2.088 1.908-5.256 2.628-7.128l3.564-9.396h4.284V25h-4.14v-5.472c0-4.86.18-8.46.288-10.908h-.072c-.54 2.196-1.62 5.112-2.412 7.128L145.206 25h-4.356zM10.296 62.456H5.94L4.86 68H.288l5.256-24.264h5.652L15.912 68H11.34zm-3.888-3.672h3.456l-.792-5.076c-.252-1.476-.576-3.888-.792-5.508h-.108c-.252 1.62-.612 4.14-.864 5.544zm12.168-15.048h4.716v9.72h4.932v-9.72h4.716V68h-4.716V57.848h-4.932V68h-4.716zM39.732 68V48.092h-4.284v-4.356h13.32v4.356h-4.32V68zm11.504-24.264h4.176V49.1c0 4.464-.288 8.64-.468 11.16h.072c.684-2.088 1.908-5.256 2.628-7.128l3.564-9.396h4.284V68h-4.14v-5.472c0-4.86.18-8.46.288-10.908h-.072c-.54 2.196-1.62 5.112-2.412 7.128L55.592 68h-4.356zm18.458 0h12.383v4.032h-7.703v5.076c.684-.144 1.224-.18 1.907-.18 2.088 0 3.924.648 5.256 1.8 1.44 1.26 2.304 3.168 2.304 5.616 0 2.34-.72 4.212-2.015 5.508-1.656 1.764-4.248 2.592-7.74 2.592-1.8 0-3.312-.108-4.392-.252zm4.715 12.816v7.776c.325.072.648.072 1.044.072 1.117 0 2.016-.432 2.593-1.152.611-.72.9-1.728.9-2.808 0-1.116-.325-2.124-.936-2.808-.613-.72-1.477-1.188-2.52-1.188q-.594 0-1.08.108m12.265-12.816h4.176V49.1c0 4.464-.288 8.64-.468 11.16h.072c.684-2.088 1.908-5.256 2.628-7.128l3.564-9.396h4.284V68h-4.14v-5.472c0-4.86.18-8.46.288-10.908h-.072c-.54 2.196-1.62 5.112-2.412 7.128L91.03 68h-4.356zm25.261-.288c5.868 0 7.524 6.444 7.524 11.988 0 9.144-3.24 12.852-7.848 12.852-5.508 0-7.668-5.832-7.668-12.492 0-6.624 2.628-12.348 7.992-12.348m-.18 4.104c-1.872 0-2.916 3.096-2.916 8.316 0 5.508 1.044 8.316 2.952 8.316 1.98 0 2.736-3.6 2.736-8.532 0-4.248-.648-8.1-2.772-8.1M124.599 68V48.092h-4.284v-4.356h13.32v4.356h-4.32V68zm11.505-24.264h4.176V49.1c0 4.464-.288 8.64-.468 11.16h.072c.684-2.088 1.908-5.256 2.628-7.128l3.564-9.396h4.284V68h-4.14v-5.472c0-4.86.18-8.46.288-10.908h-.072c-.54 2.196-1.62 5.112-2.412 7.128L140.46 68h-4.356zm18.457 0h4.608v10.548h.36l3.96-10.548h5.184l-5.58 11.232c2.484.936 3.312 3.204 3.996 6.156.54 2.34.936 4.644 1.656 6.876h-4.716c-.576-1.728-.936-3.708-1.332-5.616-.576-2.844-1.224-4.68-3.168-4.68h-.36V68h-4.608zm16.347 0h4.176V49.1c0 4.464-.288 8.64-.468 11.16h.072c.684-2.088 1.908-5.256 2.628-7.128l3.564-9.396h4.284V68h-4.14v-5.472c0-4.86.18-8.46.288-10.908h-.072c-.54 2.196-1.62 5.112-2.412 7.128L175.264 68h-4.356zm23.533 16.776h-3.996l-.072-.648c-.252-2.124.576-4.032 1.908-6.12 1.044-1.548 1.548-2.628 1.548-3.996 0-1.332-.9-2.232-2.376-2.232-.792 0-1.62.144-2.304.648l-.792-3.636c.756-.504 2.448-1.08 4.212-1.08 4.752 0 6.084 3.132 6.084 5.544 0 2.484-1.404 4.5-2.664 6.336-.972 1.476-1.584 2.736-1.548 4.428zm-1.944 7.776c-1.548 0-2.7-1.224-2.7-2.88 0-1.764 1.26-2.916 2.664-2.952 1.548 0 2.7 1.188 2.7 2.952 0 1.656-1.008 2.88-2.664 2.88"/></svg>