<svg xmlns="http://www.w3.org/2000/svg" fill="none" viewBox="0 0 432 27"><path fill="#000" d="M12.3 6.12c.75 0 1.5-.09 2.37-.18v.66c-1.65.18-1.95.39-1.95 2.58v17.16h-.36L2.79 8.64v14.22c0 2.22.33 2.4 2.19 2.58v.66c-.81-.09-1.71-.18-2.52-.18h-.09c-.75 0-1.5.09-2.37.18v-.66c1.65-.18 1.95-.39 1.95-2.58V7.44c-.3-.39-.81-.66-1.95-.81v-.66c1.2.12 1.56.15 2.31.15.54 0 1.05-.03 1.59-.09l7.98 14.73V9.21c0-2.22-.33-2.43-2.19-2.61v-.66c.93.12 1.71.18 2.52.18zm16.802 16.89c.69 2.16.9 2.25 2.25 2.43v.66c-1.29-.12-1.89-.18-2.85-.18-.93 0-1.71.06-3.15.18v-.66c1.65-.18 2.01-.3 1.35-2.46l-.93-3.06h-5.76l-.87 3.06c-.6 2.13-.3 2.28 1.35 2.46v.66c-.81-.09-1.77-.18-2.46-.18s-1.26.09-2.04.18v-.66c1.41-.18 1.71-.48 2.28-2.46l4.89-17.28h.36zm-8.85-3.93h5.25l-2.7-8.82zM43.393 6.12c.6 0 1.29-.06 2.04-.18v.66c-1.41.18-1.8.48-2.37 2.46l-4.95 17.28h-.36l-5.4-17.31c-.66-2.16-.99-2.25-2.34-2.43v-.66c1.23.12 1.89.18 2.82.18.96 0 1.74-.06 3.27-.18v.66c-1.77.18-1.92.33-1.29 2.46l3.72 12.57 3.66-12.57c.63-2.1.48-2.28-1.29-2.46v-.66c.87.09 1.77.18 2.49.18m9.638-2.37h-1.23L48.561.3h.87l2.97 1.8 2.97-1.8h.87zm1.62 11.7c2.1 1.23 3.36 2.79 3.36 5.4a5.48 5.48 0 0 1-5.52 5.49c-1.71 0-3.24-.75-4.05-1.83l-.78 1.98h-.42v-6.87h.6c.51 3.72 1.83 5.94 4.56 5.94 2.31 0 3.66-1.35 3.66-3.54 0-2.28-1.17-3.51-3.09-4.65l-2.19-1.29c-2.04-1.2-3.36-2.7-3.36-5.34 0-3.24 2.46-5.04 4.89-5.04 1.71 0 3.03.96 3.72 2.01l.6-2.04h.42v6h-.54c-.48-2.91-1.8-5.19-4.08-5.19-2.01 0-3.18 1.38-3.18 3.48 0 1.92 1.05 2.94 2.79 3.96zM72.935 6l.39 4.92h-.6c-.6-3.24-1.08-4.08-3.48-4.08h-1.2v16.02c0 2.22.33 2.4 2.16 2.58v.66c-1.38-.12-2.25-.18-3.3-.18s-1.92.06-3.3.18v-.66c1.83-.18 2.16-.36 2.16-2.58V6.84h-1.2c-2.4 0-2.88.84-3.48 4.08h-.6l.39-4.92zm4.736 3.18c0-2.19-.3-2.4-1.95-2.58v-.66c1.83.15 2.1.18 3.09.18s1.26-.03 3.09-.18v.66c-1.65.18-1.95.39-1.95 2.58v13.68c0 2.19.3 2.4 1.95 2.58v.66c-1.83-.15-2.1-.18-3.09-.18s-1.26.03-3.09.18v-.66c1.65-.18 1.95-.39 1.95-2.58zm19.186-3.06c.6 0 1.29-.06 2.04-.18v.66c-1.41.18-1.8.48-2.37 2.46l-4.95 17.28h-.36l-5.4-17.31c-.66-2.16-.99-2.25-2.34-2.43v-.66c1.23.12 1.89.18 2.82.18.96 0 1.74-.06 3.27-.18v.66c-1.77.18-1.92.33-1.29 2.46l3.72 12.57 3.66-12.57c.63-2.1.48-2.28-1.29-2.46v-.66c.87.09 1.77.18 2.49.18m15.78-.12.39 4.92h-.6c-.6-3.24-1.08-4.08-3.48-4.08h-1.2v16.02c0 2.22.33 2.4 2.16 2.58v.66c-1.38-.12-2.25-.18-3.3-.18s-1.92.06-3.3.18v-.66c1.83-.18 2.16-.36 2.16-2.58V6.84h-1.2c-2.4 0-2.88.84-3.48 4.08h-.6l.39-4.92zm14.246 15.12h.6l-.51 4.92h-11.55v-.66c1.65-.09 1.95-.36 1.95-2.4V9.06c0-2.04-.3-2.31-1.95-2.4V6h10.92l.42 4.65h-.6c-.57-3-1.14-3.81-3.51-3.81h-3v8.4h3.48c1.02 0 1.29-.54 1.38-2.43h.6v5.7h-.6c-.06-1.89-.36-2.43-1.38-2.43h-3.48V24c0 .84.18 1.2 1.47 1.2h2.16c2.46 0 2.88-.87 3.6-4.08m22.005-15c.75 0 1.5-.09 2.37-.18v.66c-1.65.18-1.95.39-1.95 2.58v17.16h-.36l-9.57-17.7v14.22c0 2.22.33 2.4 2.19 2.58v.66c-.81-.09-1.71-.18-2.52-.18h-.09c-.75 0-1.5.09-2.37.18v-.66c1.65-.18 1.95-.39 1.95-2.58V7.44c-.3-.39-.81-.66-1.95-.81v-.66c1.2.12 1.56.15 2.31.15.54 0 1.05-.03 1.59-.09l7.98 14.73V9.21c0-2.22-.33-2.43-2.19-2.61v-.66c.93.12 1.71.18 2.52.18zm13.532-3.87-3.15 1.77h-.87l2.7-3.24c.45-.54.72-.78 1.26-.78.48 0 .99.42.99 1.05 0 .3-.06.72-.93 1.2m3.27 20.76c.69 2.16.9 2.25 2.25 2.43v.66c-1.29-.12-1.89-.18-2.85-.18-.93 0-1.71.06-3.15.18v-.66c1.65-.18 2.01-.3 1.35-2.46l-.93-3.06h-5.76l-.87 3.06c-.6 2.13-.3 2.28 1.35 2.46v.66c-.81-.09-1.77-.18-2.46-.18s-1.26.09-2.04.18v-.66c1.41-.18 1.71-.48 2.28-2.46l4.89-17.28h.36zm-8.85-3.93h5.25l-2.7-8.82zm18.842-15.33h-1.23L171.212.3h.87l2.97 1.8 2.97-1.8h.87zm1.62 11.7c2.1 1.23 3.36 2.79 3.36 5.4a5.48 5.48 0 0 1-5.52 5.49c-1.71 0-3.24-.75-4.05-1.83l-.78 1.98h-.42v-6.87h.6c.51 3.72 1.83 5.94 4.56 5.94 2.31 0 3.66-1.35 3.66-3.54 0-2.28-1.17-3.51-3.09-4.65l-2.19-1.29c-2.04-1.2-3.36-2.7-3.36-5.34 0-3.24 2.46-5.04 4.89-5.04 1.71 0 3.03.96 3.72 2.01l.6-2.04h.42v6h-.54c-.48-2.91-1.8-5.19-4.08-5.19-2.01 0-3.18 1.38-3.18 3.48 0 1.92 1.05 2.94 2.79 3.96zm19.891 10.89c-3.81 0-6.96-3.57-6.96-10.32s3.15-10.32 6.96-10.32 6.96 3.57 6.96 10.32-3.15 10.32-6.96 10.32m0-.78c3.06 0 4.53-3.63 4.53-9.54s-1.47-9.54-4.53-9.54-4.53 3.63-4.53 9.54 1.47 9.54 4.53 9.54m22.113-19.44c.75 0 1.5-.09 2.37-.18v.66c-1.65.18-1.95.39-1.95 2.58v17.16h-.36l-9.57-17.7v14.22c0 2.22.33 2.4 2.19 2.58v.66c-.81-.09-1.71-.18-2.52-.18h-.09c-.75 0-1.5.09-2.37.18v-.66c1.65-.18 1.95-.39 1.95-2.58V7.44c-.3-.39-.81-.66-1.95-.81v-.66c1.2.12 1.56.15 2.31.15.54 0 1.05-.03 1.59-.09l7.98 14.73V9.21c0-2.22-.33-2.43-2.19-2.61v-.66c.93.12 1.71.18 2.52.18zm17.005 14.49-.78 5.43h-11.19v-.66c1.65-.09 1.95-.36 1.95-2.4V9.18c0-2.19-.3-2.4-1.95-2.58v-.66c1.83.15 2.1.18 3.09.18 1.05 0 1.47-.03 3.27-.18v.66c-1.8.18-2.13.36-2.13 2.58V24c0 .84.18 1.2 1.47 1.2h1.8c2.07 0 3.09-.96 3.87-4.59zm4.24-11.43c0-2.19-.3-2.4-1.95-2.58v-.66c1.83.15 2.1.18 3.09.18s1.26-.03 3.09-.18v.66c-1.65.18-1.95.39-1.95 2.58v13.68c0 2.19.3 2.4 1.95 2.58v.66c-1.83-.15-2.1-.18-3.09-.18s-1.26.03-3.09.18v-.66c1.65-.18 1.95-.39 1.95-2.58zm19.336-3.06c.75 0 1.5-.09 2.37-.18v.66c-1.65.18-1.95.39-1.95 2.58v17.16h-.36l-9.57-17.7v14.22c0 2.22.33 2.4 2.19 2.58v.66c-.81-.09-1.71-.18-2.52-.18h-.09c-.75 0-1.5.09-2.37.18v-.66c1.65-.18 1.95-.39 1.95-2.58V7.44c-.3-.39-.81-.66-1.95-.81v-.66c1.2.12 1.56.15 2.31.15.54 0 1.05-.03 1.59-.09l7.98 14.73V9.21c0-2.22-.33-2.43-2.19-2.61v-.66c.93.12 1.71.18 2.52.18zm16.495 15h.6l-.51 4.92h-11.55v-.66c1.65-.09 1.95-.36 1.95-2.4V9.06c0-2.04-.3-2.31-1.95-2.4V6h10.92l.42 4.65h-.6c-.57-3-1.14-3.81-3.51-3.81h-3v8.4h3.48c1.02 0 1.29-.54 1.38-2.43h.6v5.7h-.6c-.06-1.89-.36-2.43-1.38-2.43h-3.48V24c0 .84.18 1.2 1.47 1.2h2.16c2.46 0 2.88-.87 3.6-4.08m17.535-5.67c2.1 1.23 3.36 2.79 3.36 5.4a5.48 5.48 0 0 1-5.52 5.49c-1.71 0-3.24-.75-4.05-1.83l-.78 1.98h-.42v-6.87h.6c.51 3.72 1.83 5.94 4.56 5.94 2.31 0 3.66-1.35 3.66-3.54 0-2.28-1.17-3.51-3.09-4.65l-2.19-1.29c-2.04-1.2-3.36-2.7-3.36-5.34 0-3.24 2.46-5.04 4.89-5.04 1.71 0 3.03.96 3.72 2.01l.6-2.04h.42v6h-.54c-.48-2.91-1.8-5.19-4.08-5.19-2.01 0-3.18 1.38-3.18 3.48 0 1.92 1.05 2.94 2.79 3.96zm21.524-8.85c-1.65.18-1.95.39-1.95 2.58v13.68c0 2.19.3 2.4 1.95 2.58v.66c-1.83-.15-2.1-.18-3.09-.18s-1.26.03-3.09.18v-.66c1.65-.18 1.95-.39 1.95-2.58v-6.75h-6.81v6.75c0 2.19.3 2.4 1.95 2.58v.66c-1.83-.15-2.1-.18-3.09-.18s-1.26.03-3.09.18v-.66c1.65-.18 1.95-.39 1.95-2.58V9.18c0-2.19-.3-2.4-1.95-2.58v-.66c1.83.15 2.1.18 3.09.18s1.26-.03 3.09-.18v.66c-1.65.18-1.95.39-1.95 2.58v6.09h6.81V9.18c0-2.19-.3-2.4-1.95-2.58v-.66c1.83.15 2.1.18 3.09.18s1.26-.03 3.09-.18zm9.823 19.74c-3.81 0-6.96-3.57-6.96-10.32s3.15-10.32 6.96-10.32 6.96 3.57 6.96 10.32-3.15 10.32-6.96 10.32m0-.78c3.06 0 4.53-3.63 4.53-9.54s-1.47-9.54-4.53-9.54-4.53 3.63-4.53 9.54 1.47 9.54 4.53 9.54m27.693-19.44c.63 0 1.26-.06 1.98-.18v.66c-1.29.18-1.59.39-2.04 2.52l-3.63 17.22h-.36l-4.47-15.51-4.26 15.51h-.36l-3.93-17.25c-.48-2.13-.75-2.31-1.98-2.49v-.66c1.41.15 1.83.18 2.64.18 1.02 0 1.59-.03 3.15-.18v.66c-1.8.18-1.86.33-1.41 2.52l2.49 11.79 4.11-15.21h.36l4.32 15.18 2.46-11.76c.45-2.16.36-2.34-1.44-2.52v-.66c.87.12 1.59.18 2.37.18m16.153 17.67c.57 1.47.96 1.68 2.4 1.68v.66c-.48.12-1.14.18-1.71.18-1.32 0-2.58-.42-3.27-2.43L365 19.5c-.63-1.8-1.38-3.06-3.48-3.06h-.63v6.42c0 2.19.3 2.4 1.95 2.58v.66c-1.83-.15-2.1-.18-3.09-.18s-1.26.03-3.09.18v-.66c1.65-.18 1.95-.39 1.95-2.58V9.06c0-2.04-.3-2.31-1.95-2.4V6h6.39c3.48 0 5.64 2.01 5.64 5.13 0 2.79-2.28 4.74-5.01 5.04 1.23.21 2.91 1.02 3.81 3.36zM362.6 6.84h-1.71v8.76h1.74c2.52 0 3.63-1.68 3.63-4.35 0-2.7-1.11-4.41-3.66-4.41m17.19 19.5c-3.81 0-6.96-3.57-6.96-10.32s3.15-10.32 6.96-10.32 6.96 3.57 6.96 10.32-3.15 10.32-6.96 10.32m0-.78c3.06 0 4.53-3.63 4.53-9.54s-1.47-9.54-4.53-9.54-4.53 3.63-4.53 9.54 1.47 9.54 4.53 9.54m17.277.78c-3.81 0-6.96-3.57-6.96-10.32s3.15-10.32 6.96-10.32 6.96 3.57 6.96 10.32-3.15 10.32-6.96 10.32m0-.78c3.06 0 4.53-3.63 4.53-9.54s-1.47-9.54-4.53-9.54-4.53 3.63-4.53 9.54 1.47 9.54 4.53 9.54m26.283-2.7c.06 2.19.39 2.4 2.04 2.58v.66c-1.83-.15-2.1-.18-3.09-.18h-.06c-1.05 0-1.8.06-3.24.18v-.66c1.83-.18 2.13-.36 2.07-2.58l-.42-14.43-5.22 17.22h-.36l-5.13-17.19-.45 14.4c-.06 2.22.24 2.4 2.07 2.58v.66c-1.14-.12-1.74-.18-2.55-.18h-.03c-.75 0-1.5.09-2.37.18v-.66c1.65-.18 1.98-.39 2.04-2.58l.42-13.68c.06-2.19-.21-2.4-1.86-2.58v-.66c1.83.15 2.1.18 2.79.18.75 0 1.17-.03 1.62-.09L416 20.85l4.47-14.82c.42.06.99.09 1.53.09.69 0 .96-.03 2.79-.15v.66c-1.65.15-1.92.36-1.86 2.55zm6.295 3.48c-.9 0-1.5-.66-1.5-1.53s.6-1.53 1.5-1.53 1.5.66 1.5 1.53-.6 1.53-1.5 1.53"/></svg>