<svg xmlns="http://www.w3.org/2000/svg" fill="none" viewBox="0 0 365 29"><path fill="#000" d="M7.904 16.48c2.24 1.312 3.584 2.976 3.584 5.76A5.845 5.845 0 0 1 5.6 28.096c-1.824 0-3.456-.8-4.32-1.952l-.832 2.112H0v-7.328h.64c.544 3.968 1.952 6.336 4.864 6.336 2.464 0 3.904-1.44 3.904-3.776 0-2.432-1.248-3.744-3.296-4.96l-2.336-1.376C1.6 15.872.192 14.272.192 11.456.192 8 2.816 6.08 5.408 6.08c1.824 0 3.232 1.024 3.968 2.144l.64-2.176h.448v6.4h-.576c-.512-3.104-1.92-5.536-4.352-5.536-2.144 0-3.392 1.472-3.392 3.712 0 2.048 1.12 3.136 2.976 4.224zm19.983 8.704c.831 1.376 1.247 1.76 2.592 1.952v.704c-1.344-.16-1.985-.192-3.072-.192-1.152 0-2.145.032-3.584.192v-.704c1.695-.192 2.24-.288 1.12-2.208l-4.737-8.064h-1.12v7.52c0 2.336.32 2.56 2.08 2.752v.704c-1.951-.16-2.24-.192-3.296-.192s-1.344.032-3.296.192v-.704c1.76-.192 2.08-.416 2.08-2.752V9.792c0-2.336-.32-2.56-2.08-2.752v-.704c1.952.16 2.24.192 3.297.192s1.344-.032 3.296-.192v.704c-1.76.192-2.08.416-2.08 2.752v6.176h1.12l4.831-6.912c1.12-1.6.384-1.856-1.375-2.016v-.704c1.215.128 2.111.192 3.04.192.832 0 1.695-.064 2.816-.192v.704c-1.664.192-2.176.256-3.392 2.016l-4.224 6.048zm17.353-3.2-.832 5.792H32.472v-.704c1.76-.096 2.08-.384 2.08-2.56V9.792c0-2.336-.32-2.56-2.08-2.752v-.704c1.952.16 2.24.192 3.296.192 1.12 0 1.568-.032 3.488-.192v.704c-1.92.192-2.272.384-2.272 2.752V25.6c0 .896.192 1.28 1.568 1.28h1.92c2.208 0 3.296-1.024 4.128-4.896zm15.274 2.56c.736 2.304.96 2.4 2.4 2.592v.704c-1.376-.128-2.016-.192-3.04-.192-.992 0-1.824.064-3.36.192v-.704c1.76-.192 2.144-.32 1.44-2.624l-.992-3.264h-6.144l-.928 3.264c-.64 2.272-.32 2.432 1.44 2.624v.704c-.864-.096-1.888-.192-2.624-.192s-1.344.096-2.176.192v-.704c1.504-.192 1.824-.512 2.432-2.624L54.178 6.08h.384zm-9.44-4.192h5.6l-2.88-9.408zM71.076 6.4c4.576 0 8.32 4.16 8.32 10.688s-3.744 10.688-8.32 10.688h-6.528v-.704c1.76-.096 2.08-.384 2.08-2.56V9.664c0-2.176-.32-2.464-2.08-2.56V6.4zm-.448 20.48h.192c4.064 0 5.984-4.064 5.984-9.792s-1.92-9.792-5.984-9.792h-1.76V25.6c0 .896.192 1.28 1.568 1.28m19.748 1.216c-4.064 0-7.424-3.808-7.424-11.008S86.313 6.08 90.377 6.08 97.8 9.888 97.8 17.088s-3.36 11.008-7.424 11.008m0-.832c3.264 0 4.832-3.872 4.832-10.176S93.642 6.912 90.377 6.912s-4.832 3.872-4.832 10.176 1.569 10.176 4.832 10.176m23.115-20.736c.64 0 1.376-.064 2.176-.192v.704c-1.504.192-1.92.512-2.528 2.624l-5.28 18.432h-.384l-5.76-18.464c-.704-2.304-1.056-2.4-2.496-2.592v-.704c1.312.128 2.016.192 3.008.192 1.024 0 1.856-.064 3.488-.192v.704c-1.888.192-2.048.352-1.376 2.624l3.968 13.408 3.904-13.408c.672-2.24.512-2.432-1.376-2.624v-.704c.928.096 1.888.192 2.656.192M126.899 2.4l-3.36 1.888h-.928l2.88-3.456c.48-.576.768-.832 1.344-.832.512 0 1.056.448 1.056 1.12 0 .32-.064.768-.992 1.28m2.816 20.128h.64l-.544 5.248h-12.32v-.704c1.76-.096 2.08-.384 2.08-2.56V9.664c0-2.176-.32-2.464-2.08-2.56V6.4h11.648l.448 4.96h-.64c-.608-3.2-1.216-4.064-3.744-4.064h-3.2v8.96h3.712c1.088 0 1.376-.576 1.472-2.592h.64v6.08h-.64c-.064-2.016-.384-2.592-1.472-2.592h-3.712V25.6c0 .896.192 1.28 1.568 1.28h2.304c2.624 0 3.072-.928 3.84-4.352m22.343-16c.64 0 1.376-.064 2.176-.192v.704c-1.504.192-1.92.512-2.528 2.624l-5.28 18.432h-.384l-5.76-18.464c-.704-2.304-1.056-2.4-2.496-2.592v-.704c1.312.128 2.016.192 3.008.192 1.024 0 1.856-.064 3.488-.192v.704c-1.888.192-2.048.352-1.376 2.624l3.968 13.408 3.904-13.408c.672-2.24.512-2.432-1.376-2.624v-.704c.928.096 1.888.192 2.656.192m10.962 21.568c-4.064 0-7.424-3.808-7.424-11.008s3.36-11.008 7.424-11.008 7.424 3.808 7.424 11.008-3.36 11.008-7.424 11.008m0-.832c3.264 0 4.832-3.872 4.832-10.176s-1.568-10.176-4.832-10.176-4.832 3.872-4.832 10.176 1.568 10.176 4.832 10.176m22.273-5.376h.64l-.704 5.888h-12.32v-.256l9.92-20.224h-4.192c-2.496 0-3.104.96-3.712 4.512h-.64l.416-5.408h11.104v.256l-9.92 20.224h5.088c2.944 0 3.456-1.056 4.32-4.992m15.946-15.36c.64 0 1.248-.064 1.984-.192v.704c-1.408.192-1.76.256-2.72 2.464l-3.648 8.224v6.656c-.032 2.368.352 2.56 2.208 2.752v.704c-2.016-.16-2.336-.192-3.424-.192s-1.536.032-3.424.192v-.704c1.856-.192 2.24-.384 2.208-2.752V18.08l-4.192-8.608c-.992-2.048-1.28-2.24-2.592-2.432v-.704c1.664.16 2.112.192 3.072.192.928 0 1.888-.064 3.232-.192v.704c-1.92.192-2.112.416-1.12 2.4l3.552 7.104 3.168-7.04c.928-2.08.672-2.304-1.056-2.464v-.704c.96.128 1.92.192 2.752.192m18.55 9.952c2.688.48 4.736 2.528 4.736 5.536 0 3.52-2.72 5.76-6.048 5.76h-7.36v-.704c1.76-.096 2.08-.384 2.08-2.56V9.664c0-2.176-.32-2.464-2.08-2.56V6.4h6.432c3.712 0 6.016 2.016 6.016 5.12 0 2.432-1.568 4.224-3.776 4.96m-2.688-9.184h-1.472v8.992h1.472c2.688 0 3.872-1.728 3.872-4.512 0-2.752-1.184-4.48-3.872-4.48m1.056 19.584c2.624 0 3.776-1.856 3.776-4.864 0-2.976-1.152-4.832-3.776-4.832h-2.528V25.6c0 .896.192 1.28 1.568 1.28zm21.581-4.352h.64l-.544 5.248h-12.32v-.704c1.76-.096 2.08-.384 2.08-2.56V9.664c0-2.176-.32-2.464-2.08-2.56V6.4h11.648l.448 4.96h-.64c-.608-3.2-1.216-4.064-3.744-4.064h-3.2v8.96h3.712c1.088 0 1.376-.576 1.472-2.592h.64v6.08h-.64c-.064-2.016-.384-2.592-1.472-2.592h-3.712V25.6c0 .896.192 1.28 1.568 1.28h2.304c2.624 0 3.072-.928 3.84-4.352m15.262-.64h.64l-.704 5.888h-12.32v-.256l9.92-20.224h-4.192c-2.496 0-3.104.96-3.712 4.512h-.64l.416-5.408h11.104v.256l-9.92 20.224h5.088c2.944 0 3.456-1.056 4.32-4.992M273.428 4h-1.312L268.66.32h.928l3.168 1.92 3.168-1.92h.928zm4.256 16.512h.832c-.256 5.344-2.656 7.584-5.696 7.584-4.064 0-7.168-3.84-7.168-11.008s3.264-11.008 7.264-11.008c1.888 0 3.296.928 4.096 2.048l.704-2.048h.448v6.72h-.576c-.736-4.096-2.176-5.888-4.672-5.888-3.168 0-4.672 3.808-4.672 10.176 0 6.496 1.6 9.888 5.056 9.888 2.144 0 4.128-1.76 4.384-6.464m16.207 2.016h.64l-.544 5.248h-12.32v-.704c1.76-.096 2.08-.384 2.08-2.56V9.664c0-2.176-.32-2.464-2.08-2.56V6.4h11.648l.448 4.96h-.64c-.608-3.2-1.216-4.064-3.744-4.064h-3.2v8.96h3.712c1.088 0 1.376-.576 1.472-2.592h.64v6.08h-.64c-.064-2.016-.384-2.592-1.472-2.592h-3.712V25.6c0 .896.192 1.28 1.568 1.28h2.304c2.624 0 3.072-.928 3.84-4.352m16.829 2.656c.832 1.376 1.248 1.76 2.592 1.952v.704c-1.344-.16-1.984-.192-3.072-.192-1.152 0-2.144.032-3.584.192v-.704c1.696-.192 2.24-.288 1.12-2.208l-4.736-8.064h-1.12v7.52c0 2.336.32 2.56 2.08 2.752v.704c-1.952-.16-2.24-.192-3.296-.192s-1.344.032-3.296.192v-.704c1.76-.192 2.08-.416 2.08-2.752V9.792c0-2.336-.32-2.56-2.08-2.752v-.704c1.952.16 2.24.192 3.296.192s1.344-.032 3.296-.192v.704c-1.76.192-2.08.416-2.08 2.752v6.176h1.12l4.832-6.912c1.12-1.6.384-1.856-1.376-2.016v-.704c1.216.128 2.112.192 3.04.192.832 0 1.696-.064 2.816-.192v.704c-1.664.192-2.176.256-3.392 2.016l-4.224 6.048zM325.087 2.4l-3.36 1.888h-.928l2.88-3.456c.48-.576.768-.832 1.344-.832.512 0 1.056.448 1.056 1.12 0 .32-.064.768-.992 1.28m3.488 22.144c.736 2.304.96 2.4 2.4 2.592v.704c-1.376-.128-2.016-.192-3.04-.192-.992 0-1.824.064-3.36.192v-.704c1.76-.192 2.144-.32 1.44-2.624l-.992-3.264h-6.144l-.928 3.264c-.64 2.272-.32 2.432 1.44 2.624v.704c-.864-.096-1.888-.192-2.624-.192s-1.344.096-2.176.192v-.704c1.504-.192 1.824-.512 2.432-2.624l5.216-18.432h.384zm-9.44-4.192h5.6l-2.88-9.408zm26.594-13.824c.8 0 1.6-.096 2.528-.192v.704c-1.76.192-2.08.416-2.08 2.752v18.304h-.384l-10.208-18.88v15.168c0 2.368.352 2.56 2.336 2.752v.704c-.864-.096-1.824-.192-2.688-.192h-.096c-.8 0-1.6.096-2.528.192v-.704c1.76-.192 2.08-.416 2.08-2.752V7.936c-.32-.416-.864-.704-2.08-.864v-.704c1.28.128 1.664.16 2.464.16.576 0 1.12-.032 1.696-.096l8.512 15.712V9.824c0-2.368-.352-2.592-2.336-2.784v-.704c.992.128 1.824.192 2.688.192zm7.036-2.24 2.88-3.456c.48-.576.768-.832 1.344-.832.512 0 1.056.448 1.056 1.12 0 .32-.064.768-.992 1.28l-3.36 1.888zm.416 5.504c0-2.336-.32-2.56-2.08-2.752v-.704c1.952.16 2.24.192 3.296.192s1.344-.032 3.296-.192v.704c-1.76.192-2.08.416-2.08 2.752v14.592c0 2.336.32 2.56 2.08 2.752v.704c-1.952-.16-2.24-.192-3.296-.192s-1.344.032-3.296.192v-.704c1.76-.192 2.08-.416 2.08-2.752zm9.297 18.304c-.96 0-1.6-.704-1.6-1.632s.64-1.632 1.6-1.632 1.6.704 1.6 1.632-.64 1.632-1.6 1.632"/></svg>