<svg xmlns="http://www.w3.org/2000/svg" fill="none" viewBox="0 0 297 31"><path fill="#000" d="M13.94 7.82c.85 0 1.7-.102 2.686-.204v.748c-1.87.204-2.21.442-2.21 2.924v19.448h-.408L3.162 10.676v16.116c0 2.516.374 2.72 2.482 2.924v.748c-.918-.102-1.938-.204-2.856-.204h-.102c-.85 0-1.7.102-2.686.204v-.748c1.87-.204 2.21-.442 2.21-2.924V9.316c-.34-.442-.918-.748-2.21-.918V7.65c1.36.136 1.768.17 2.618.17.612 0 1.19-.034 1.802-.102l9.044 16.694v-13.09c0-2.516-.374-2.754-2.482-2.958v-.748c1.054.136 1.938.204 2.856.204zm19.042 19.142c.782 2.448 1.02 2.55 2.55 2.754v.748c-1.462-.136-2.142-.204-3.23-.204-1.054 0-1.938.068-3.57.204v-.748c1.87-.204 2.278-.34 1.53-2.788l-1.054-3.468H22.68l-.986 3.468c-.68 2.414-.34 2.584 1.53 2.788v.748c-.918-.102-2.006-.204-2.788-.204s-1.428.102-2.312.204v-.748c1.598-.204 1.938-.544 2.584-2.788L26.25 7.344h.408zm-10.03-4.454h5.95l-3.06-9.996zm39.25 4.284c.067 2.482.441 2.72 2.311 2.924v.748c-2.074-.17-2.38-.204-3.502-.204h-.068c-1.19 0-2.04.068-3.672.204v-.748c2.074-.204 2.414-.408 2.346-2.924l-.476-16.354-5.916 19.516h-.408l-5.814-19.482-.51 16.32c-.068 2.516.272 2.72 2.346 2.924v.748c-1.292-.136-1.972-.204-2.89-.204h-.034c-.85 0-1.7.102-2.686.204v-.748c1.87-.204 2.244-.442 2.312-2.924l.476-15.504c.068-2.482-.238-2.72-2.108-2.924v-.748c2.074.17 2.38.204 3.162.204.85 0 1.326-.034 1.836-.102l4.964 16.796 5.066-16.796c.476.068 1.122.102 1.734.102.782 0 1.088-.034 3.162-.17v.748c-1.87.17-2.176.408-2.108 2.89zM69.2 5.44l3.06-3.672c.51-.612.816-.884 1.428-.884.544 0 1.122.476 1.122 1.19 0 .34-.068.816-1.054 1.36l-3.57 2.006zm.442 5.848c0-2.482-.34-2.72-2.21-2.924v-.748c2.074.17 2.38.204 3.502.204s1.428-.034 3.502-.204v.748c-1.87.204-2.21.442-2.21 2.924v15.504c0 2.482.34 2.72 2.21 2.924v.748c-2.074-.17-2.38-.204-3.502-.204s-1.428.034-3.502.204v-.748c1.87-.204 2.21-.442 2.21-2.924zm22.084 16.558c.646 1.666 1.088 1.904 2.72 1.904v.748c-.544.136-1.292.204-1.938.204-1.496 0-2.924-.476-3.706-2.754l-1.734-4.964c-.714-2.04-1.564-3.468-3.944-3.468h-.714v7.276c0 2.482.34 2.72 2.21 2.924v.748c-2.074-.17-2.38-.204-3.502-.204s-1.428.034-3.502.204v-.748c1.87-.204 2.21-.442 2.21-2.924v-15.64c0-2.312-.34-2.618-2.21-2.72v-.748h7.242c3.944 0 6.392 2.278 6.392 5.814 0 3.162-2.584 5.372-5.678 5.712 1.394.238 3.298 1.156 4.318 3.808zm-7.378-19.21H82.41v9.928h1.972c2.856 0 4.114-1.904 4.114-4.93 0-3.06-1.258-4.998-4.148-4.998m24.892 2.652c0-2.482-.34-2.72-2.21-2.924v-.748c.986.102 1.836.204 2.686.204s1.7-.102 2.686-.204v.748c-1.87.204-2.21.442-2.21 2.924v12.818c0 4.386-2.312 6.63-6.222 6.63-4.08 0-6.596-2.414-6.596-6.392V11.288c0-2.482-.34-2.72-2.21-2.924v-.748c2.074.17 2.38.204 3.502.204s1.428-.034 3.502-.204v.748c-1.87.204-2.21.442-2.21 2.924v12.716c0 3.774 1.734 5.406 4.454 5.406 3.128 0 4.828-1.632 4.828-5.406zm20.307-3.604c4.862 0 8.84 4.42 8.84 11.356s-3.978 11.356-8.84 11.356h-6.936v-.748c1.87-.102 2.21-.408 2.21-2.72V11.152c0-2.312-.34-2.618-2.21-2.72v-.748zm-.476 21.76h.204c4.318 0 6.358-4.318 6.358-10.404s-2.04-10.404-6.358-10.404h-1.87v19.448c0 .952.204 1.36 1.666 1.36m20.983 1.292c-4.318 0-7.888-4.046-7.888-11.696s3.57-11.696 7.888-11.696 7.888 4.046 7.888 11.696-3.57 11.696-7.888 11.696m0-.884c3.468 0 5.134-4.114 5.134-10.812s-1.666-10.812-5.134-10.812-5.134 4.114-5.134 10.812 1.666 10.812 5.134 10.812m25.312-11.798c2.618.578 4.998 2.55 4.998 6.222 0 4.182-3.026 6.46-6.358 6.46-2.958 0-5.27-2.142-5.27-5.576h.85c0 2.72 1.904 4.59 4.046 4.59 2.788 0 4.114-2.38 4.114-5.61 0-3.298-1.394-5.542-4.386-5.542h-.782v-.85h.782c2.754 0 3.706-2.652 3.706-4.964 0-2.074-.782-4.556-3.434-4.556-2.244 0-3.468 2.142-3.468 4.284h-.85c0-2.652 1.564-5.168 4.828-5.168 3.298 0 5.508 2.244 5.508 5.236 0 2.89-2.074 4.794-4.284 5.474m34.496 8.738c.068 2.482.442 2.72 2.312 2.924v.748c-2.074-.17-2.38-.204-3.502-.204h-.068c-1.19 0-2.04.068-3.672.204v-.748c2.074-.204 2.414-.408 2.346-2.924l-.476-16.354-5.916 19.516h-.408l-5.814-19.482-.51 16.32c-.068 2.516.272 2.72 2.346 2.924v.748c-1.292-.136-1.972-.204-2.89-.204h-.034c-.85 0-1.7.102-2.686.204v-.748c1.87-.204 2.244-.442 2.312-2.924l.476-15.504c.068-2.482-.238-2.72-2.108-2.924v-.748c2.074.17 2.38.204 3.162.204.85 0 1.326-.034 1.836-.102l4.964 16.796 5.066-16.796c.476.068 1.122.102 1.734.102.782 0 1.088-.034 3.162-.17v.748c-1.87.17-2.176.408-2.108 2.89zm13.119-21.658h-1.394l-3.672-3.91h.986l3.366 2.04 3.366-2.04h.986zm5.1 19.686h.68l-.578 5.576h-13.09v-.748c1.87-.102 2.21-.408 2.21-2.72V11.152c0-2.312-.34-2.618-2.21-2.72v-.748h12.376l.476 5.27h-.68c-.646-3.4-1.292-4.318-3.978-4.318h-3.4v9.52h3.944c1.156 0 1.462-.612 1.564-2.754h.68v6.46h-.68c-.068-2.142-.408-2.754-1.564-2.754h-3.944v8.976c0 .952.204 1.36 1.666 1.36h2.448c2.788 0 3.264-.986 4.08-4.624m12.611-6.426c2.38 1.394 3.808 3.162 3.808 6.12a6.21 6.21 0 0 1-6.256 6.222c-1.938 0-3.672-.85-4.59-2.074l-.884 2.244h-.476V23.12h.68c.578 4.216 2.074 6.732 5.168 6.732 2.618 0 4.148-1.53 4.148-4.012 0-2.584-1.326-3.978-3.502-5.27l-2.482-1.462c-2.312-1.36-3.808-3.06-3.808-6.052 0-3.672 2.788-5.712 5.542-5.712 1.938 0 3.434 1.088 4.216 2.278l.68-2.312h.476v6.8h-.612c-.544-3.298-2.04-5.882-4.624-5.882-2.278 0-3.604 1.564-3.604 3.944 0 2.176 1.19 3.332 3.162 4.488zm8.855-12.954 3.06-3.672c.51-.612.816-.884 1.428-.884.544 0 1.122.476 1.122 1.19 0 .34-.068.816-1.054 1.36l-3.57 2.006zm.442 5.848c0-2.482-.34-2.72-2.21-2.924v-.748c2.074.17 2.38.204 3.502.204s1.428-.034 3.502-.204v.748c-1.87.204-2.21.442-2.21 2.924v15.504c0 2.482.34 2.72 2.21 2.924v.748c-2.074-.17-2.38-.204-3.502-.204s-1.428.034-3.502.204v-.748c1.87-.204 2.21-.442 2.21-2.924zm20.832 11.39h.884c-.272 5.678-2.822 8.058-6.052 8.058-4.318 0-7.616-4.08-7.616-11.696s3.468-11.696 7.718-11.696c2.006 0 3.502.986 4.352 2.176l.748-2.176h.476v7.14h-.612c-.782-4.352-2.312-6.256-4.964-6.256-3.366 0-4.964 4.046-4.964 10.812 0 6.902 1.7 10.506 5.372 10.506 2.278 0 4.386-1.87 4.658-6.868M283.927 5.44c-1.53 0-2.754-1.19-2.754-2.72S282.397 0 283.927 0s2.754 1.19 2.754 2.72-1.224 2.72-2.754 2.72m0-.884c.986 0 1.768-.748 1.768-1.836s-.782-1.836-1.768-1.836-1.768.748-1.768 1.836.782 1.836 1.768 1.836m4.93 6.732c0-2.482-.34-2.72-2.21-2.924v-.748c.986.102 1.836.204 2.686.204s1.7-.102 2.686-.204v.748c-1.87.204-2.21.442-2.21 2.924v12.818c0 4.386-2.312 6.63-6.222 6.63-4.08 0-6.596-2.414-6.596-6.392V11.288c0-2.482-.34-2.72-2.21-2.924v-.748c2.074.17 2.38.204 3.502.204s1.428-.034 3.502-.204v.748c-1.87.204-2.21.442-2.21 2.924v12.716c0 3.774 1.734 5.406 4.454 5.406 3.128 0 4.828-1.632 4.828-5.406zm6.386 19.448c-1.02 0-1.7-.748-1.7-1.734s.68-1.734 1.7-1.734 1.7.748 1.7 1.734-.68 1.734-1.7 1.734"/></svg>