<svg xmlns="http://www.w3.org/2000/svg" fill="none" viewBox="0 0 443 32"><path fill="#000" d="M0 31.968v-.736c1.792-.288 3.552-1.728 3.552-5.088V9.792c0-2.336-.32-2.56-2.08-2.752v-.704c1.952.16 2.24.192 3.296.192s1.344-.032 3.296-.192v.704c-1.76.192-2.08.416-2.08 2.752v13.92c0 6.336-3.488 7.84-5.984 8.256m23.129-9.44h.64l-.544 5.248h-12.32v-.704c1.76-.096 2.08-.384 2.08-2.56V9.664c0-2.176-.32-2.464-2.08-2.56V6.4h11.647L23 11.36h-.64c-.607-3.2-1.215-4.064-3.744-4.064h-3.2v8.96h3.712c1.088 0 1.377-.576 1.473-2.592h.64v6.08h-.64c-.064-2.016-.384-2.592-1.473-2.592h-3.712V25.6c0 .896.192 1.28 1.569 1.28h2.303c2.625 0 3.072-.928 3.84-4.352M33.174 6.4c4.576 0 8.32 4.16 8.32 10.688s-3.744 10.688-8.32 10.688h-6.528v-.704c1.76-.096 2.08-.384 2.08-2.56V9.664c0-2.176-.32-2.464-2.08-2.56V6.4zm-.448 20.48h.192c4.064 0 5.984-4.064 5.984-9.792s-1.92-9.792-5.984-9.792h-1.76V25.6c0 .896.192 1.28 1.568 1.28m23.947-4.352h.64l-.544 5.248H44.45v-.704c1.76-.096 2.08-.384 2.08-2.56V9.664c0-2.176-.32-2.464-2.08-2.56V6.4h11.648l.448 4.96h-.64c-.608-3.2-1.215-4.064-3.744-4.064h-3.2v8.96h3.712c1.088 0 1.377-.576 1.472-2.592h.64v6.08h-.64c-.064-2.016-.384-2.592-1.472-2.592h-3.712V25.6c0 .896.193 1.28 1.569 1.28h2.303c2.625 0 3.073-.928 3.84-4.352m16.638-16c.8 0 1.6-.096 2.528-.192v.704c-1.76.192-2.08.416-2.08 2.752v18.304h-.384L63.167 9.216v15.168c0 2.368.352 2.56 2.336 2.752v.704c-.864-.096-1.824-.192-2.688-.192h-.096c-.8 0-1.6.096-2.528.192v-.704c1.76-.192 2.08-.416 2.08-2.752V7.936c-.32-.416-.864-.704-2.08-.864v-.704c1.28.128 1.664.16 2.464.16.576 0 1.12-.032 1.696-.096l8.512 15.712V9.824c0-2.368-.352-2.592-2.336-2.784v-.704c.992.128 1.824.192 2.688.192zm20.558 9.952c2.24 1.312 3.584 2.976 3.584 5.76a5.845 5.845 0 0 1-5.888 5.856c-1.824 0-3.456-.8-4.32-1.952l-.832 2.112h-.448v-7.328h.64c.544 3.968 1.952 6.336 4.864 6.336 2.464 0 3.904-1.44 3.904-3.776 0-2.432-1.248-3.744-3.296-4.96l-2.336-1.376c-2.176-1.28-3.584-2.88-3.584-5.696 0-3.456 2.624-5.376 5.216-5.376 1.824 0 3.232 1.024 3.968 2.144l.64-2.176h.448v6.4h-.576c-.512-3.104-1.92-5.536-4.352-5.536-2.144 0-3.392 1.472-3.392 3.712 0 2.048 1.12 3.136 2.976 4.224zm13.423 1.568h-2.24v6.336c0 2.336.64 2.592 2.656 2.752v.704c-1.472-.128-2.368-.192-3.52-.192h-.352c-1.056 0-1.344.032-3.296.192v-.704c1.76-.192 2.08-.416 2.08-2.752V9.664c0-2.176-.32-2.464-2.08-2.56V6.4h6.816c4.128 0 6.496 2.24 6.496 5.728 0 3.584-2.944 5.92-6.56 5.92m-.416-10.752h-1.824v9.824h1.888c2.976 0 4.32-1.856 4.32-4.832 0-3.072-1.344-4.992-4.384-4.992m22.654 18.08c.608 1.568 1.024 1.792 2.56 1.792v.704c-.512.128-1.216.192-1.824.192-1.408 0-2.752-.448-3.488-2.592l-1.632-4.672c-.672-1.92-1.472-3.264-3.712-3.264h-.672v6.848c0 2.336.32 2.56 2.08 2.752v.704c-1.952-.16-2.24-.192-3.296-.192s-1.344.032-3.296.192v-.704c1.76-.192 2.08-.416 2.08-2.752V9.664c0-2.176-.32-2.464-2.08-2.56V6.4h6.816c3.712 0 6.016 2.144 6.016 5.472 0 2.976-2.432 5.056-5.344 5.376 1.312.224 3.104 1.088 4.064 3.584zm-6.944-18.08h-1.824v9.344h1.856c2.688 0 3.872-1.792 3.872-4.64 0-2.88-1.184-4.704-3.904-4.704m12.954 2.496c0-2.336-.32-2.56-2.08-2.752v-.704c1.952.16 2.24.192 3.296.192s1.344-.032 3.296-.192v.704c-1.76.192-2.08.416-2.08 2.752v14.592c0 2.336.32 2.56 2.08 2.752v.704c-1.952-.16-2.24-.192-3.296-.192s-1.344.032-3.296.192v-.704c1.76-.192 2.08-.416 2.08-2.752zm20.625-3.264c.8 0 1.6-.096 2.528-.192v.704c-1.76.192-2.08.416-2.08 2.752v18.304h-.384l-10.208-18.88v15.168c0 2.368.352 2.56 2.336 2.752v.704c-.864-.096-1.824-.192-2.688-.192h-.096c-.8 0-1.6.096-2.528.192v-.704c1.76-.192 2.08-.416 2.08-2.752V7.936c-.32-.416-.864-.704-2.08-.864v-.704c1.28.128 1.664.16 2.464.16.576 0 1.12-.032 1.696-.096l8.512 15.712V9.824c0-2.368-.352-2.592-2.336-2.784v-.704c.992.128 1.824.192 2.688.192zm18.203-.128.416 5.248h-.64c-.64-3.456-1.152-4.352-3.712-4.352h-1.28v17.088c0 2.368.352 2.56 2.304 2.752v.704c-1.472-.128-2.4-.192-3.52-.192s-2.048.064-3.52.192v-.704c1.952-.192 2.304-.384 2.304-2.752V7.296h-1.28c-2.56 0-3.072.896-3.712 4.352h-.64l.416-5.248zm15.196 16.128h.64l-.544 5.248h-12.32v-.704c1.76-.096 2.08-.384 2.08-2.56V9.664c0-2.176-.32-2.464-2.08-2.56V6.4h11.648l.448 4.96h-.64c-.608-3.2-1.216-4.064-3.744-4.064h-3.2v8.96h3.712c1.088 0 1.376-.576 1.472-2.592h.64v6.08h-.64c-.064-2.016-.384-2.592-1.472-2.592h-3.712V25.6c0 .896.192 1.28 1.568 1.28h2.304c2.624 0 3.072-.928 3.84-4.352m16.797 2.848c.608 1.568 1.024 1.792 2.56 1.792v.704c-.512.128-1.216.192-1.824.192-1.408 0-2.752-.448-3.488-2.592l-1.632-4.672c-.672-1.92-1.472-3.264-3.712-3.264h-.672v6.848c0 2.336.32 2.56 2.08 2.752v.704c-1.952-.16-2.24-.192-3.296-.192s-1.344.032-3.296.192v-.704c1.76-.192 2.08-.416 2.08-2.752V9.664c0-2.176-.32-2.464-2.08-2.56V6.4h6.816c3.712 0 6.016 2.144 6.016 5.472 0 2.976-2.432 5.056-5.344 5.376 1.312.224 3.104 1.088 4.064 3.584zm-6.944-18.08h-1.824v9.344h1.856c2.688 0 3.872-1.792 3.872-4.64 0-2.88-1.184-4.704-3.904-4.704m12.947 20.8c-.96 0-1.6-.704-1.6-1.632s.64-1.632 1.6-1.632 1.6.704 1.6 1.632-.64 1.632-1.6 1.632M236.105 6.4l.416 5.248h-.64c-.64-3.456-1.152-4.352-3.712-4.352h-1.28v17.088c0 2.368.352 2.56 2.304 2.752v.704c-1.472-.128-2.4-.192-3.52-.192s-2.048.064-3.52.192v-.704c1.952-.192 2.304-.384 2.304-2.752V7.296h-1.28c-2.56 0-3.072.896-3.712 4.352h-.64l.416-5.248zm10.403 21.696c-4.064 0-7.424-3.808-7.424-11.008s3.36-11.008 7.424-11.008 7.424 3.808 7.424 11.008-3.36 11.008-7.424 11.008m0-.832c3.264 0 4.832-3.872 4.832-10.176s-1.568-10.176-4.832-10.176-4.832 3.872-4.832 10.176 1.568 10.176 4.832 10.176m23.235-5.28-.832 5.792h-11.936v-.704c1.76-.096 2.08-.384 2.08-2.56V9.792c0-2.336-.32-2.56-2.08-2.752v-.704c1.952.16 2.24.192 3.296.192 1.12 0 1.568-.032 3.488-.192v.704c-1.92.192-2.272.384-2.272 2.752V25.6c0 .896.192 1.28 1.568 1.28h1.92c2.208 0 3.296-1.024 4.128-4.896zm4.521-12.192c0-2.336-.32-2.56-2.08-2.752v-.704c1.952.16 2.24.192 3.296.192s1.344-.032 3.296-.192v.704c-1.76.192-2.08.416-2.08 2.752v14.592c0 2.336.32 2.56 2.08 2.752v.704c-1.952-.16-2.24-.192-3.296-.192s-1.344.032-3.296.192v-.704c1.76-.192 2.08-.416 2.08-2.752zm20.818 15.392c.832 1.376 1.248 1.76 2.592 1.952v.704c-1.344-.16-1.984-.192-3.072-.192-1.152 0-2.144.032-3.584.192v-.704c1.696-.192 2.24-.288 1.12-2.208l-4.736-8.064h-1.12v7.52c0 2.336.32 2.56 2.08 2.752v.704c-1.952-.16-2.24-.192-3.296-.192s-1.344.032-3.296.192v-.704c1.76-.192 2.08-.416 2.08-2.752V9.792c0-2.336-.32-2.56-2.08-2.752v-.704c1.952.16 2.24.192 3.296.192s1.344-.032 3.296-.192v.704c-1.76.192-2.08.416-2.08 2.752v6.176h1.12l4.832-6.912c1.12-1.6.384-1.856-1.376-2.016v-.704c1.216.128 2.112.192 3.04.192.832 0 1.696-.064 2.816-.192v.704c-1.664.192-2.176.256-3.392 2.016l-4.224 6.048zm28.489-.8c.064 2.336.416 2.56 2.176 2.752v.704c-1.952-.16-2.24-.192-3.296-.192h-.064c-1.12 0-1.92.064-3.456.192v-.704c1.952-.192 2.272-.384 2.208-2.752l-.448-15.392-5.568 18.368h-.384l-5.472-18.336-.48 15.36c-.064 2.368.256 2.56 2.208 2.752v.704c-1.216-.128-1.856-.192-2.72-.192h-.032c-.8 0-1.6.096-2.528.192v-.704c1.76-.192 2.112-.416 2.176-2.752l.448-14.592c.064-2.336-.224-2.56-1.984-2.752v-.704c1.952.16 2.24.192 2.976.192.8 0 1.248-.032 1.728-.096l4.672 15.808 4.768-15.808a12.5 12.5 0 0 0 1.632.096c.736 0 1.024-.032 2.976-.16v.704c-1.76.16-2.048.384-1.984 2.72zm12.353 3.712c-4.064 0-7.424-3.808-7.424-11.008s3.36-11.008 7.424-11.008 7.424 3.808 7.424 11.008-3.36 11.008-7.424 11.008m0-.832c3.264 0 4.832-3.872 4.832-10.176s-1.568-10.176-4.832-10.176-4.832 3.872-4.832 10.176 1.568 10.176 4.832 10.176M353.557 4h-1.312L348.789.32h.928l3.168 1.92 3.168-1.92h.928zm4.64 17.888h.64l-.704 5.888h-12.32v-.256l9.92-20.224h-4.192c-2.496 0-3.104.96-3.712 4.512h-.64l.416-5.408h11.104v.256l-9.92 20.224h5.088c2.944 0 3.456-1.056 4.32-4.992m16.618-15.36c.8 0 1.6-.096 2.528-.192v.704c-1.76.192-2.08.416-2.08 2.752v18.304h-.384l-10.208-18.88v15.168c0 2.368.352 2.56 2.336 2.752v.704c-.864-.096-1.824-.192-2.688-.192h-.096c-.8 0-1.6.096-2.528.192v-.704c1.76-.192 2.08-.416 2.08-2.752V7.936c-.32-.416-.864-.704-2.08-.864v-.704c1.28.128 1.664.16 2.464.16.576 0 1.12-.032 1.696-.096l8.512 15.712V9.824c0-2.368-.352-2.592-2.336-2.784v-.704c.992.128 1.824.192 2.688.192zm12.833 21.568c-4.064 0-7.424-3.808-7.424-11.008s3.36-11.008 7.424-11.008 7.424 3.808 7.424 11.008-3.36 11.008-7.424 11.008m0-.832c3.264 0 4.832-3.872 4.832-10.176s-1.568-10.176-4.832-10.176-4.832 3.872-4.832 10.176 1.568 10.176 4.832 10.176m19.069-10.784c2.24 1.312 3.584 2.976 3.584 5.76a5.845 5.845 0 0 1-5.888 5.856c-1.824 0-3.456-.8-4.32-1.952l-.832 2.112h-.448v-7.328h.64c.544 3.968 1.952 6.336 4.864 6.336 2.464 0 3.904-1.44 3.904-3.776 0-2.432-1.248-3.744-3.296-4.96l-2.336-1.376c-2.176-1.28-3.584-2.88-3.584-5.696 0-3.456 2.624-5.376 5.216-5.376 1.824 0 3.232 1.024 3.968 2.144l.64-2.176h.448v6.4h-.576c-.512-3.104-1.92-5.536-4.352-5.536-2.144 0-3.392 1.472-3.392 3.712 0 2.048 1.12 3.136 2.976 4.224zM426.219 6.4l.416 5.248h-.64c-.64-3.456-1.152-4.352-3.712-4.352h-1.28v17.088c0 2.368.352 2.56 2.304 2.752v.704c-1.472-.128-2.4-.192-3.52-.192s-2.048.064-3.52.192v-.704c1.952-.192 2.304-.384 2.304-2.752V7.296h-1.28c-2.56 0-3.072.896-3.712 4.352h-.64l.416-5.248zm4.636-2.112 2.88-3.456c.48-.576.768-.832 1.344-.832.512 0 1.056.448 1.056 1.12 0 .32-.064.768-.992 1.28l-3.36 1.888zm.416 5.504c0-2.336-.32-2.56-2.08-2.752v-.704c1.952.16 2.24.192 3.296.192s1.344-.032 3.296-.192v.704c-1.76.192-2.08.416-2.08 2.752v14.592c0 2.336.32 2.56 2.08 2.752v.704c-1.952-.16-2.24-.192-3.296-.192s-1.344.032-3.296.192v-.704c1.76-.192 2.08-.416 2.08-2.752zm9.297 18.304c-.96 0-1.6-.704-1.6-1.632s.64-1.632 1.6-1.632 1.6.704 1.6 1.632-.64 1.632-1.6 1.632"/></svg>