<svg xmlns="http://www.w3.org/2000/svg" fill="none" viewBox="0 0 56 8"><g clip-path="url(#a)"><path fill="#fff" d="m.479 6.312.928-1.029c.436.621.982.908 1.539.908.51 0 .815-.27.815-.704 0-.435-.288-.64-1.066-.964C1.591 4.088.803 3.595.803 2.436.803 1.278 1.795.36 3.17.36c1.001 0 1.706.37 2.216.937l-.89 1.095c-.288-.371-.688-.612-1.206-.612-.427 0-.732.231-.732.575s.334.52 1.142.854c1.168.454 1.826 1.028 1.826 2.216 0 1.325-1.038 2.18-2.467 2.18-1.224 0-2.096-.538-2.577-1.29zm13.23 1.168-.454-1.325h-2.56l-.482 1.325H8.378L11.242.49h1.549l2.827 6.992h-1.91zm-2.54-2.633H12.8l-.343-1.002a45 45 0 0 1-.445-1.372q-.221.68-.473 1.363zm18.73 2.633V.49h2.004c2.373 0 4.032 1.168 4.032 3.495S34.303 7.48 32.013 7.48zm1.716-1.512h.371c1.316 0 2.19-.687 2.19-1.983s-.742-1.939-2.19-1.939h-.37zm7.454-1.993c0-2.067 1.706-3.607 3.765-3.607 2.05 0 3.746 1.529 3.746 3.625S44.874 7.6 42.805 7.6 39.07 6.145 39.07 3.975m5.741.02c0-1.15-.844-2.04-1.983-2.04-1.122 0-1.984.899-1.984 2.03 0 1.195.899 2.03 1.966 2.03 1.141 0 2.003-.862 2.003-2.022zM55.49.49h-5.52V2.01h2.698l-3.284 5.471h5.908V5.933h-3.06zM23.825 7.48h1.623V.49h-1.623v4.454L20.553.49h-1.659v6.992h1.66V3.028l3.273 4.454z"/></g><defs><clipPath id="a"><rect width="55.333" height="7.572" fill="#fff" transform="translate(.333 .214)"/></clipPath></defs></svg>