<svg xmlns="http://www.w3.org/2000/svg" fill="none" viewBox="0 0 108 38"><path fill="#fff" d="M1.788.97h2.533v5.22h2.648V.97h2.533V14H6.969V8.548H4.321V14H1.788zm14.358 10.053h-2.34L13.227 14h-2.455L13.594.97h3.035L19.162 14h-2.455zM14.058 9.05h1.856l-.425-2.726a99 99 0 0 1-.426-2.958h-.058c-.135.87-.328 2.223-.464 2.977zm6.377-5.53L20.01 1.57c.56-.387 1.643-.754 2.88-.754 2.475 0 3.635 1.508 3.635 3.209 0 1.334-.889 2.63-2.204 2.958v.039c1.528.309 2.591 1.469 2.591 3.267 0 2.494-2.127 3.867-4.466 3.867-1.083 0-2.03-.252-2.63-.58l.368-2.069c.56.329 1.295.522 2.01.522 1.354 0 2.07-.773 2.07-1.817 0-1.45-1.2-2.03-2.572-2.03h-.367V6.267h.251c1.16 0 2.32-.561 2.32-1.76 0-.908-.56-1.527-1.643-1.527-.6 0-1.315.251-1.818.541M28.447.97h2.533v5.22h2.648V.97h2.533V14h-2.533V8.548H30.98V14h-2.533zm14.358 10.054h-2.34L39.885 14H37.43L40.253.97h3.035L45.821 14h-2.456zM40.717 9.05h1.856l-.426-2.726a99 99 0 0 1-.425-2.958h-.058c-.135.87-.329 2.223-.464 2.977zM47.155.969h2.494V5.3c0 1.063.406 1.817 1.43 1.817.368 0 .793-.116 1.045-.27V.969h2.494V14h-2.494V8.8h-.058c-.6.27-1.18.444-1.856.444-2.243 0-3.055-1.508-3.055-3.654zm9.707 0h2.242V3.85c0 2.397-.154 4.64-.251 5.993h.039c.367-1.121 1.024-2.822 1.41-3.828L62.218.97h2.3V14h-2.223v-2.939c0-2.61.097-4.543.155-5.858h-.039c-.29 1.18-.87 2.746-1.295 3.828L59.2 14h-2.34zm10.414 0h6.786V14H71.53V3.173h-1.934v3.442c0 2.996-.193 5.626-1.836 6.902-.484.386-1.102.638-1.74.638l-.542-2.146c.31-.078.638-.232.87-.464.754-.774.928-2.166.928-4.698zm9.032 0h2.243V3.85c0 2.397-.155 4.64-.252 5.993h.04c.367-1.121 1.024-2.822 1.41-3.828L81.665.97h2.3V14h-2.223v-2.939c0-2.61.097-4.543.154-5.858h-.038c-.29 1.18-.87 2.746-1.296 3.828L78.648 14h-2.339zM6.196 34.023h-2.34L3.277 37H.822l2.823-13.03h3.035L9.212 37H6.757zM4.108 32.05h1.856l-.425-2.726a99 99 0 0 1-.426-2.958h-.058c-.135.87-.328 2.223-.464 2.977zm6.535-8.082h2.532v5.22h2.65v-5.22h2.532V37h-2.533v-5.452h-2.649V37h-2.532zM22.004 37V26.309h-2.3v-2.34h7.153v2.34h-2.32V37zm6.179-13.03h2.242v2.88c0 2.397-.154 4.64-.251 5.993h.039c.367-1.121 1.024-2.822 1.41-3.828l1.915-5.046h2.3V37h-2.223v-2.939c0-2.61.097-4.543.155-5.858h-.039c-.29 1.18-.87 2.746-1.295 3.828L30.522 37h-2.34zm9.912 0h6.65v2.165h-4.137v2.726a4.6 4.6 0 0 1 1.025-.097c1.121 0 2.107.348 2.822.967.774.676 1.238 1.701 1.238 3.016 0 1.256-.387 2.262-1.083 2.958-.89.947-2.281 1.392-4.157 1.392-.966 0-1.778-.058-2.358-.136zm2.532 6.882v4.176c.174.039.348.039.561.039.6 0 1.083-.232 1.392-.619.329-.387.483-.928.483-1.508 0-.6-.174-1.14-.502-1.508a1.75 1.75 0 0 0-1.354-.638q-.319 0-.58.058m6.587-6.883h2.242v2.881c0 2.397-.154 4.64-.25 5.993h.038c.367-1.121 1.025-2.822 1.411-3.828l1.914-5.046h2.3V37h-2.222v-2.939c0-2.61.096-4.543.154-5.858h-.038c-.29 1.18-.87 2.746-1.296 3.828L49.553 37h-2.34zm13.566-.154c3.151 0 4.04 3.46 4.04 6.438 0 4.91-1.74 6.902-4.214 6.902-2.958 0-4.118-3.132-4.118-6.709 0-3.557 1.411-6.631 4.292-6.631m-.097 2.204c-1.005 0-1.566 1.662-1.566 4.466 0 2.958.56 4.466 1.586 4.466 1.063 0 1.469-1.934 1.469-4.582 0-2.282-.348-4.35-1.489-4.35M67.581 37V26.309h-2.3v-2.34h7.152v2.34h-2.32V37zm6.178-13.03h2.243v2.88c0 2.397-.155 4.64-.251 5.993h.038c.368-1.121 1.025-2.822 1.412-3.828l1.914-5.046h2.3V37h-2.223v-2.939c0-2.61.097-4.543.155-5.858h-.039c-.29 1.18-.87 2.746-1.295 3.828L76.099 37h-2.34zm9.912 0h2.475v5.664h.194l2.126-5.665h2.784l-2.996 6.032c1.334.503 1.778 1.721 2.145 3.306.29 1.257.503 2.494.89 3.693h-2.533c-.31-.928-.502-1.991-.715-3.016-.31-1.527-.657-2.513-1.701-2.513h-.194V37h-2.475zm8.78 0h2.243v2.88c0 2.397-.155 4.64-.252 5.993h.039c.367-1.121 1.025-2.822 1.411-3.828l1.914-5.046h2.301V37h-2.224v-2.939c0-2.61.097-4.543.155-5.858H98c-.29 1.18-.87 2.746-1.296 3.828L94.79 37h-2.34zm12.638 9.009h-2.146l-.039-.348c-.135-1.141.31-2.166 1.025-3.287.561-.831.831-1.411.831-2.146 0-.715-.483-1.199-1.276-1.199-.425 0-.87.078-1.237.348l-.425-1.952c.406-.271 1.314-.58 2.262-.58 2.552 0 3.267 1.682 3.267 2.977 0 1.334-.754 2.417-1.431 3.403-.522.792-.85 1.469-.831 2.378zm-1.044 4.176c-.831 0-1.45-.658-1.45-1.547 0-.947.677-1.566 1.431-1.585.831 0 1.45.638 1.45 1.585 0 .89-.542 1.547-1.431 1.547"/></svg>