<svg xmlns="http://www.w3.org/2000/svg" fill="none" viewBox="0 0 200 111"><rect width="200" height="100.775" fill="#fff" transform="translate(0 4.651)"/><g clip-path="url(#a)"><rect width="77.519" height="4.651" fill="#fff" transform="translate(107.752 105.426)"/><path fill="#ae0000" d="M138.573 105.426h-30.821v4.664h30.821z"/><path fill="#0065b1" d="M142.106 105.426h-3.523v4.664h3.523z"/><path fill="#008f20" d="M185.255 105.426h-43.154v4.664h43.154z"/></g><g clip-path="url(#b)"><rect width="176.744" height="4.651" fill="#fff" transform="translate(8.527)"/><path fill="#ae0000" d="M138.37 0h-30.94v4.663h30.94z"/><path fill="#ff8600" d="M107.43 0H59.665v4.663h47.765z"/><path fill="#0065b1" d="M141.917 0h-3.537v4.663h3.537z"/><path fill="#e90a0a" d="M54.363 0H8.407v4.663h45.956z"/><path fill="#008f20" d="M185.233 0h-43.321v4.663h43.321z"/><path fill="#26221e" d="M59.665 0h-5.302v4.663h5.302z"/></g><g clip-path="url(#c)"><path fill="#008f20" d="M67.953 65.636H54.266v21.229h13.687z"/><path fill="#0065b1" d="M54.267 65.636H53.15v21.229h1.117z"/><path fill="#ae0000" d="M53.148 65.636h-9.776v21.229h9.776z"/><path fill="#ff8600" d="M43.371 65.636h-15.09v21.229h15.09z"/><path fill="#26221e" d="M28.282 65.636h-1.676v21.229h1.676z"/><path fill="#e90a0a" d="M26.606 65.636h-14.52v21.229h14.52z"/><g fill="#fff"><path d="M29.438 76.802v3.836H27.52V77.1c0-1.084-.48-1.582-1.254-1.582-.86 0-1.462.56-1.462 1.756v3.366h-1.918V77.1c0-1.084-.455-1.581-1.253-1.581-.852 0-1.448.56-1.448 1.756v3.365h-1.92v-5.209h-.737v-1.494h2.274l.098 1.035c.479-.737 1.302-1.139 2.273-1.139.923 0 1.709.362 2.176 1.096.528-.684 1.388-1.096 2.385-1.096 1.573 0 2.704.922 2.704 2.965"/><path d="M38.606 78.26c0 1.506-1.18 2.378-3.44 2.378h-4.229V73.56h-.91V71.92h4.893c2.15 0 3.256.909 3.256 2.267.008.397-.095.787-.297 1.127-.203.339-.496.613-.846.79.96.312 1.573 1.06 1.573 2.158zm-5.69-4.82v2.055h1.758c.97 0 1.5-.346 1.5-1.036s-.53-1.021-1.5-1.021zm3.675 4.607c0-.734-.54-1.083-1.574-1.083h-2.101v2.157h2.102c1.032 0 1.573-.324 1.573-1.071"/><path d="M46.399 73.938v6.7h-1.831v-.777c-.48.586-1.18.873-2.066.873-1.867 0-3.306-1.346-3.306-3.452 0-2.107 1.439-3.452 3.306-3.452.812 0 1.5.259 1.98.81v-.702zm-1.88 3.348c0-1.158-.738-1.855-1.684-1.855-.947 0-1.697.697-1.697 1.855s.738 1.855 1.697 1.855c.958 0 1.683-.697 1.683-1.855"/><path d="M54.806 76.802v3.836h-1.918V77.1c0-1.084-.492-1.582-1.34-1.582-.921 0-1.586.573-1.586 1.805v3.313h-1.917v-5.204h-.737v-1.494h2.274l.098 1.046c.504-.748 1.362-1.146 2.384-1.146 1.561 0 2.742.921 2.742 2.964"/><path d="M62.893 80.638h-2.176l-1.868-2.901h-.886v2.9h-1.917v-9.24h1.917v4.857h.886l1.77-2.316h2.138l-2.249 2.94z"/></g></g><g fill="#000"><path d="M143.626 46.186c1.39 0 2.301.803 2.301 2.442v3.31h-.77v-3.234c0-1.205-.608-1.823-1.639-1.823-1.172 0-1.91.76-1.91 2.062v2.995h-.771v-3.234c0-1.205-.607-1.823-1.649-1.823-1.162 0-1.91.76-1.91 2.062v2.995h-.771v-5.057h-.803v-.652h1.411l.054 1.194c.369-.781 1.14-1.237 2.171-1.237.944 0 1.682.402 2.029 1.205.412-.738 1.226-1.205 2.257-1.205"/><path d="M134.776 49.084c0 .065-.011.152-.011.238h-4.775c.087 1.194.998 1.986 2.246 1.986.695 0 1.313-.25 1.748-.748l.434.499c-.51.608-1.303.933-2.203.933-1.78 0-2.996-1.215-2.996-2.908s1.183-2.898 2.789-2.898 2.768 1.183 2.768 2.898m-2.768-2.236c-1.107 0-1.921.781-2.018 1.9h4.048c-.098-1.119-.912-1.9-2.03-1.9"/><path d="M127.271 44.981a.56.56 0 0 1-.565-.553c0-.293.25-.543.565-.543s.564.239.564.532a.554.554 0 0 1-.564.564m-.391 6.957v-5.709h.77v5.709z"/><path d="m124.804 51.938-2.268-2.8h-1.096v2.8h-.771v-8.053h.771v4.613h1.096l2.17-2.269h.912l-2.398 2.54 2.507 3.169z"/><path d="M118.145 44.981a.56.56 0 0 1-.564-.553c0-.293.25-.543.564-.543.315 0 .565.239.565.532a.554.554 0 0 1-.565.564m-.39 6.957v-5.709h.77v5.709z"/><path d="M113.312 46.186c1.389 0 2.344.803 2.344 2.442v3.31h-.771v-3.234c0-1.205-.629-1.823-1.714-1.823-1.227 0-1.997.76-1.997 2.062v2.995h-.771v-5.057h-.803v-.652h1.411l.054 1.194c.38-.781 1.183-1.237 2.247-1.237"/><path d="M108.756 46.23h.706l-2.16 5.708h-.727l-1.802-4.678-1.801 4.678h-.727l-2.149-5.709h.738l1.791 4.852 1.834-4.852h.662l1.823 4.852z"/><path d="M96.772 51.992c-1.672 0-2.909-1.215-2.909-2.908s1.237-2.898 2.909-2.898 2.897 1.205 2.897 2.898-1.226 2.908-2.897 2.908m0-.683c1.215 0 2.116-.89 2.116-2.225s-.9-2.225-2.116-2.225-2.128.89-2.128 2.225.912 2.224 2.128 2.224"/><path d="M90.784 51.992c-1.704 0-2.94-1.204-2.94-2.908s1.237-2.898 2.94-2.898c.966 0 1.78.38 2.236 1.129l-.575.39c-.39-.575-.999-.846-1.66-.846-1.249 0-2.16.89-2.16 2.225 0 1.345.911 2.224 2.16 2.224.661 0 1.27-.26 1.66-.835l.575.39c-.456.739-1.27 1.13-2.236 1.13"/><path d="M85.555 46.23h.77v5.708h-.737v-1.129c-.467.77-1.26 1.183-2.204 1.183-1.627 0-2.843-1.183-2.843-2.908 0-1.726 1.216-2.898 2.843-2.898.912 0 1.694.39 2.171 1.129zm-2.106 5.079c1.205 0 2.117-.89 2.117-2.225s-.912-2.225-2.117-2.225c-1.215 0-2.127.89-2.127 2.225s.912 2.224 2.127 2.224"/><path d="M77.723 47.445c.336-.814 1.118-1.259 2.214-1.259v.781c-.065 0-.13-.01-.185-.01-1.194 0-1.92.727-1.92 2.072v2.909h-.771v-5.057h-.803v-.652h1.41z"/><path d="M72.477 46.186c1.628 0 2.843 1.172 2.843 2.898 0 1.736-1.215 2.908-2.843 2.908-.912 0-1.693-.39-2.17-1.128v3.18h-.771V46.88h-.803v-.652h1.41l.044 1.281c.456-.857 1.292-1.324 2.29-1.324m-.054 5.123c1.204 0 2.127-.89 2.127-2.225 0-1.324-.922-2.225-2.127-2.225-1.216 0-2.127.9-2.127 2.225 0 1.335.911 2.224 2.127 2.224"/><path d="M62.136 46.186c1.389 0 2.3.803 2.3 2.442v3.31h-.77v-3.234c0-1.205-.608-1.823-1.639-1.823-1.172 0-1.91.76-1.91 2.062v2.995h-.77v-3.234c0-1.205-.608-1.823-1.65-1.823-1.161 0-1.91.76-1.91 2.062v2.995h-.77v-5.057h-.804v-.652h1.411l.054 1.194c.37-.781 1.14-1.237 2.17-1.237.945 0 1.683.402 2.03 1.205.413-.738 1.227-1.205 2.258-1.205"/><path d="M51.936 46.23h.77v5.013c0 1.965-.9 2.855-2.658 2.855-.977 0-1.943-.315-2.496-.88l.39-.585c.489.488 1.238.781 2.063.781 1.323 0 1.931-.662 1.931-2.073v-.662c-.401.662-1.128 1.042-2.018 1.042-1.465 0-2.41-.814-2.41-2.453V46.23h.77v2.962c0 1.216.63 1.834 1.716 1.834 1.193 0 1.942-.77 1.942-2.073z"/><path d="M42.356 51.298h3.657v.64h-4.645v-.51l3.593-4.547h-3.527v-.651h4.514v.51z"/><path d="M38.208 51.992c-.945 0-1.856-.304-2.323-.705l.347-.608c.456.358 1.227.64 2.03.64 1.085 0 1.53-.369 1.53-.933 0-1.487-3.7-.315-3.7-2.572 0-.933.802-1.628 2.257-1.628.738 0 1.54.206 2.018.532l-.336.618c-.5-.347-1.096-.488-1.682-.488-1.031 0-1.487.402-1.487.944 0 1.541 3.7.38 3.7 2.572 0 .988-.868 1.628-2.354 1.628"/><path d="M33.814 46.23h.77v5.708h-.738v-1.129c-.466.77-1.258 1.183-2.203 1.183-1.628 0-2.843-1.183-2.843-2.908 0-1.726 1.215-2.898 2.843-2.898.912 0 1.693.39 2.17 1.129zm-2.106 5.079c1.205 0 2.117-.89 2.117-2.225s-.912-2.225-2.117-2.225c-1.215 0-2.127.89-2.127 2.225s.912 2.224 2.127 2.224"/><path d="M24.932 46.186c1.39 0 2.344.803 2.344 2.442v3.31h-.77v-3.234c0-1.205-.63-1.823-1.715-1.823-1.226 0-1.997.76-1.997 2.062v2.995h-.77v-5.057h-.803v-.652h1.41l.055 1.194c.38-.781 1.183-1.237 2.246-1.237"/><path d="M13.847 51.298h3.657v.64h-4.645v-.51l3.592-4.547h-3.527v-.651h4.515v.51z"/><path d="M150.406 38.12h3.658v.64h-4.645v-.51l3.592-4.548h-3.527v-.65h4.515v.51z"/><path d="M146.258 38.814c-.944 0-1.856-.304-2.323-.706l.348-.607c.455.358 1.226.64 2.029.64 1.085 0 1.53-.369 1.53-.933 0-1.487-3.7-.315-3.7-2.572 0-.934.803-1.628 2.257-1.628.738 0 1.541.206 2.018.531l-.336.62c-.499-.348-1.096-.49-1.682-.49-1.031 0-1.487.402-1.487.945 0 1.541 3.701.38 3.701 2.572 0 .988-.868 1.628-2.355 1.628"/><path d="M141.864 33.051h.771v5.709h-.738v-1.13c-.467.771-1.259 1.184-2.204 1.184-1.627 0-2.843-1.183-2.843-2.909s1.216-2.897 2.843-2.897c.912 0 1.693.39 2.171 1.128zm-2.105 5.08c1.204 0 2.116-.89 2.116-2.226 0-1.334-.912-2.224-2.116-2.224-1.216 0-2.128.89-2.128 2.224s.912 2.225 2.128 2.225"/><path d="M134.901 31.803a.56.56 0 0 1-.564-.553c0-.294.25-.543.564-.543.315 0 .565.239.565.532a.554.554 0 0 1-.565.564m-.39 6.957V33.05h.77v5.709z"/><path d="M132.836 33.051h.705l-2.159 5.709h-.728l-1.801-4.678-1.802 4.678h-.727l-2.149-5.709h.738l1.791 4.851 1.834-4.85h.662l1.823 4.85z"/><path d="M122.299 33.051h.771v5.709h-.738v-1.13c-.467.771-1.259 1.184-2.203 1.184-1.628 0-2.844-1.183-2.844-2.909s1.216-2.897 2.844-2.897c.912 0 1.693.39 2.17 1.128zm-2.105 5.08c1.205 0 2.116-.89 2.116-2.226 0-1.334-.911-2.224-2.116-2.224-1.215 0-2.127.89-2.127 2.224s.912 2.225 2.127 2.225"/><path d="M113.463 33.008c1.39 0 2.301.803 2.301 2.442v3.31h-.77v-3.234c0-1.205-.608-1.824-1.639-1.824-1.172 0-1.91.76-1.91 2.062v2.996h-.771v-3.234c0-1.205-.607-1.824-1.649-1.824-1.162 0-1.91.76-1.91 2.062v2.996h-.771v-5.058h-.803v-.65h1.411l.054 1.193c.369-.781 1.14-1.237 2.171-1.237.944 0 1.682.401 2.029 1.204.413-.738 1.226-1.204 2.257-1.204"/><path d="M101.007 38.12h3.658v.64h-4.645v-.51l3.592-4.548h-3.527v-.65h4.515v.51z"/><path d="M96.263 38.814c-1.671 0-2.909-1.216-2.909-2.909s1.238-2.897 2.909-2.897 2.898 1.204 2.898 2.897-1.227 2.909-2.898 2.909m0-.684c1.215 0 2.116-.89 2.116-2.225s-.9-2.224-2.116-2.224-2.127.89-2.127 2.224.911 2.225 2.127 2.225"/><path d="M90.536 34.267c.337-.814 1.118-1.26 2.214-1.26v.782c-.065 0-.13-.01-.184-.01-1.194 0-1.921.726-1.921 2.072v2.909h-.77v-5.058h-.804v-.65h1.411z"/><path d="M83.954 33.051h.77v5.014c0 1.964-.9 2.854-2.659 2.854-.976 0-1.942-.314-2.496-.879l.391-.586c.488.489 1.237.782 2.062.782 1.324 0 1.932-.662 1.932-2.073V37.5c-.402.662-1.129 1.042-2.019 1.042-1.465 0-2.41-.814-2.41-2.453V33.05h.771v2.963c0 1.215.63 1.834 1.715 1.834 1.194 0 1.943-.77 1.943-2.073z"/><path d="M74.374 38.12h3.657v.64h-4.645v-.51l3.592-4.548h-3.527v-.65h4.515v.51z"/><path d="M70.34 38.814c-1.704 0-2.941-1.205-2.941-2.909s1.237-2.897 2.941-2.897c.966 0 1.78.38 2.236 1.128l-.575.391c-.391-.575-.999-.846-1.66-.846-1.249 0-2.16.89-2.16 2.224 0 1.346.911 2.225 2.16 2.225.661 0 1.269-.26 1.66-.836l.575.391c-.456.738-1.27 1.129-2.236 1.129"/><path d="M62.652 36.741c.607 0 1.041.423 1.041 1.042 0 .282-.043.488-.292 1.085l-.62 1.563h-1.073l.477-1.726c-.358-.14-.586-.477-.586-.922 0-.63.456-1.042 1.053-1.042"/><path d="M58.739 32.92h1.693v5.84h-1.606v-.695c-.445.51-1.096.782-1.813.782-1.465 0-2.496-.825-2.496-2.627v-3.3h1.693v3.05c0 .977.434 1.411 1.183 1.411.782 0 1.346-.499 1.346-1.573z"/><path d="m51.834 35.482 2.105 3.278h-1.92l-1.65-2.53h-.782v2.53h-1.693v-8.053h1.693v4.233h.781l1.563-2.02h1.889z"/><path d="M43.943 32.834c1.378 0 2.42.803 2.42 2.583v3.343H44.67v-3.082c0-.945-.434-1.379-1.183-1.379-.814 0-1.4.5-1.4 1.574v2.887h-1.693v-4.537h-.651v-1.302h2.007l.087.912c.445-.652 1.205-.999 2.106-.999"/><path d="M37.035 32.92h1.693v5.84H37.11v-.673c-.424.51-1.042.76-1.824.76-1.65 0-2.919-1.173-2.919-3.007s1.27-3.006 2.92-3.006c.716 0 1.323.228 1.747.705zm-1.455 4.537c.836 0 1.487-.607 1.487-1.617 0-1.009-.651-1.617-1.487-1.617-.846 0-1.497.608-1.497 1.617 0 1.01.65 1.617 1.497 1.617"/><path d="M30.207 34.81c.847.27 1.39.922 1.39 1.877 0 1.313-1.043 2.073-3.04 2.073h-3.733v-6.165h-.803v-1.432h4.32c1.899 0 2.875.792 2.875 1.975 0 .76-.39 1.346-1.009 1.671m-2.084-2.323h-1.551v1.79h1.552c.857 0 1.324-.303 1.324-.9s-.467-.89-1.325-.89m.304 4.949c.912 0 1.39-.283 1.39-.934 0-.64-.478-.944-1.39-.944h-1.855v1.878z"/><path d="M20.803 32.834c1.39 0 2.388.803 2.388 2.583v3.343h-1.693v-3.082c0-.945-.424-1.379-1.107-1.379-.76 0-1.292.489-1.292 1.53v2.93h-1.693v-3.081c0-.945-.401-1.379-1.107-1.379-.749 0-1.28.489-1.28 1.53v2.93h-1.693v-4.536h-.652v-1.302h2.008l.087.9c.423-.64 1.15-.987 2.008-.987.814 0 1.508.315 1.92.955.467-.597 1.227-.955 2.106-.955"/><path d="M124.074 18.929c-.63 0-1.053-.413-1.053-.944 0-.532.423-.945 1.053-.945s1.052.391 1.052.912c0 .564-.423.977-1.052.977m-.847 6.652v-5.838h1.693v5.838z"/><path d="M120.854 18.929c-.629 0-1.052-.413-1.052-.944 0-.532.423-.945 1.052-.945.63 0 1.053.391 1.053.912 0 .564-.423.977-1.053.977m-1.161 8.845c-.467 0-.879-.098-1.215-.326l.455-1.226c.174.13.348.206.576.206.293 0 .499-.206.499-.63v-6.055h1.693V25.7c0 1.28-.727 2.073-2.008 2.073"/><path d="M116.309 25.668c-1.899 0-3.256-1.248-3.256-3.006s1.357-3.006 3.256-3.006c1.226 0 2.192.532 2.616 1.487l-1.314.705c-.314-.553-.781-.803-1.313-.803-.857 0-1.53.597-1.53 1.617s.673 1.617 1.53 1.617c.532 0 .999-.239 1.313-.803l1.314.716c-.424.933-1.39 1.476-2.616 1.476"/><path d="M110.269 19.743h1.693v5.838h-1.617v-.672c-.423.51-1.042.76-1.823.76-1.65 0-2.919-1.173-2.919-3.007s1.269-3.006 2.919-3.006c.716 0 1.324.228 1.747.705zm-1.454 4.536c.836 0 1.487-.608 1.487-1.617 0-1.01-.651-1.617-1.487-1.617-.847 0-1.498.608-1.498 1.617 0 1.01.651 1.617 1.498 1.617"/><path d="m103.469 22.304 2.105 3.277h-1.921l-1.649-2.528h-.782v2.528h-1.693V17.53h1.693v4.232h.782l1.562-2.018h1.889z"/><path d="M97.112 18.929c-.63 0-1.053-.413-1.053-.944 0-.532.423-.945 1.053-.945s1.052.391 1.052.912c0 .564-.423.977-1.052.977m-.847 6.652v-5.838h1.693v5.838z"/><path d="M93 25.581V17.53h1.694v8.052z"/><path d="M88.962 19.656c1.639 0 2.909 1.172 2.909 3.006s-1.27 3.006-2.909 3.006c-.727 0-1.324-.228-1.758-.705v2.724h-1.693v-6.642h-.651v-1.302h2.008l.108.879c.423-.651 1.107-.966 1.986-.966m-.293 4.623c.847 0 1.487-.608 1.487-1.617 0-1.01-.64-1.617-1.487-1.617-.846 0-1.487.608-1.487 1.617 0 1.01.64 1.617 1.487 1.617"/><path d="M82.152 19.743h1.693v5.838h-1.617v-.672c-.423.51-1.042.76-1.823.76-1.65 0-2.92-1.173-2.92-3.007s1.27-3.006 2.92-3.006c.716 0 1.323.228 1.747.705zm-1.454 4.536c.835 0 1.486-.608 1.486-1.617 0-1.01-.65-1.617-1.486-1.617-.847 0-1.498.608-1.498 1.617 0 1.01.651 1.617 1.498 1.617"/><path d="M72.561 19.743h1.498l-2.117 5.838h-1.628l-1.313-3.625-1.356 3.625h-1.628l-2.106-5.838h1.596l1.378 3.95 1.432-3.95h1.433l1.39 3.95z"/><path d="m60.22 17.431-1.965 1.563h-1.324l1.465-1.563zm-2.768 6.848h3.071v1.302h-5.209v-1.02l2.974-3.516H55.39v-1.302h5.036v1.02z"/><path d="M52.456 17.529h1.693v8.052h-1.617v-.672c-.424.51-1.042.76-1.824.76-1.65 0-2.919-1.173-2.919-3.007s1.27-3.006 2.92-3.006c.716 0 1.323.228 1.747.705zM51 24.279c.836 0 1.487-.608 1.487-1.617 0-1.01-.65-1.617-1.486-1.617-.847 0-1.498.608-1.498 1.617 0 1.01.651 1.617 1.498 1.617"/><path d="M46.51 19.743h1.498l-2.116 5.838h-1.628l-1.314-3.625-1.356 3.625h-1.628l-2.105-5.838h1.595l1.378 3.95 1.433-3.95h1.432l1.39 3.95z"/><path d="M35.413 19.743h1.693v5.838H35.49v-.672c-.423.51-1.042.76-1.823.76-1.65 0-2.92-1.173-2.92-3.007s1.27-3.006 2.92-3.006c.716 0 1.324.228 1.747.705zm-1.454 4.536c.835 0 1.487-.608 1.487-1.617 0-1.01-.651-1.617-1.487-1.617-.847 0-1.498.608-1.498 1.617 0 1.01.651 1.617 1.498 1.617"/><path d="M28.165 20.73c.391-.705 1.172-1.074 2.182-1.074v1.639c-.141-.011-.25-.022-.37-.022-.944 0-1.562.477-1.562 1.552v2.756h-1.693v-4.536h-.651v-1.302h2.007z"/><path d="M22.542 19.656c1.639 0 2.909 1.172 2.909 3.006s-1.27 3.006-2.909 3.006c-.727 0-1.324-.228-1.758-.705v2.724h-1.693v-6.642h-.651v-1.302h2.008l.108.879c.424-.651 1.107-.966 1.986-.966m-.293 4.623c.847 0 1.487-.608 1.487-1.617 0-1.01-.64-1.617-1.487-1.617-.846 0-1.487.608-1.487 1.617 0 1.01.64 1.617 1.487 1.617"/><path d="M15.149 25.668c-.988 0-1.986-.271-2.529-.63l.565-1.215c.52.337 1.313.564 2.029.564.781 0 1.074-.206 1.074-.531 0-.955-3.527.021-3.527-2.312 0-1.107.999-1.888 2.703-1.888.803 0 1.693.184 2.246.51l-.564 1.204a3.35 3.35 0 0 0-1.682-.434c-.76 0-1.086.24-1.086.543 0 .999 3.527.033 3.527 2.333 0 1.086-1.009 1.856-2.756 1.856"/></g><defs><clipPath id="a"><rect width="77.519" height="4.651" fill="#fff" transform="translate(107.752 105.426)"/></clipPath><clipPath id="b"><rect width="176.744" height="4.651" fill="#fff" transform="translate(8.527)"/></clipPath><clipPath id="c"><rect width="55.866" height="21.229" fill="#fff" transform="translate(12.087 65.636)"/></clipPath></defs></svg>