<svg xmlns="http://www.w3.org/2000/svg" fill="none" viewBox="0 0 258 31"><path fill="#fff" d="M6.467 2.402v.706H2.57v-.706zm.613 0V12h-.752V2.402zm-4.773 0h.752l-.205 4.443a37 37 0 0 1-.138 1.938 10 10 0 0 1-.244 1.457q-.152.606-.396.995-.237.39-.6.58Q1.12 12 .614 12h-.25v-.705l.21-.007q.324-.014.56-.152.238-.138.403-.448.17-.31.277-.824.112-.52.184-1.292.073-.771.119-1.832zm11.158 8.893V12H8.982v-.705zM9.187 2.402V12h-.752V2.402zM12.904 6.7v.706H8.982V6.7zm.528-4.298v.706h-4.45v-.706zm1.566 0V12h-.758V2.402zm5.03 0-3.56 5.102h-1.773l-.08-.712h1.405l3.065-4.39zM19.336 12l-3.33-4.594.43-.719L20.264 12zm4.15-9.018L20.724 12h-.778l3.052-9.598h.534zM25.971 12l-2.768-9.018-.033-.58h.527L26.749 12zm-.435-3.388v.705h-4.324v-.705zm4.5-.514h-2.274v-.706h2.274q.705 0 1.14-.277.435-.282.633-.758.204-.48.204-1.074 0-.587-.204-1.081a1.7 1.7 0 0 0-.633-.791q-.435-.303-1.14-.303h-2.037V12h-.751V2.402h2.788q.883 0 1.49.363.612.363.923 1.008.316.646.316 1.497 0 .883-.31 1.522a2.17 2.17 0 0 1-.916.97q-.606.336-1.503.336m8.534.91h.758q-.066 1.074-.435 1.766a2.4 2.4 0 0 1-1.015 1.028q-.639.336-1.536.336-.693 0-1.246-.27-.554-.27-.95-.778a3.8 3.8 0 0 1-.599-1.246 6.1 6.1 0 0 1-.204-1.647V6.14q0-.903.204-1.615.21-.72.606-1.22a2.65 2.65 0 0 1 .97-.77 3 3 0 0 1 1.272-.264q.87 0 1.503.33.639.33 1.002 1.02.362.693.428 1.787h-.758q-.06-.883-.316-1.417-.251-.534-.712-.771-.462-.244-1.147-.244-.554 0-.983.217-.42.212-.718.62-.29.402-.442.989a5.3 5.3 0 0 0-.151 1.325v2.07q0 .73.138 1.331.145.594.422 1.022.284.428.699.659.421.224.982.224.712 0 1.173-.224.468-.225.725-.751.264-.535.33-1.45m4.25-6.606V12h-.746V2.402zm2.735 0v.706h-6.203v-.706zm3.405 4.984h-2.228l-.013-.692h1.932q.58 0 .982-.205.408-.204.62-.606.216-.402.217-.989 0-.606-.211-1.002a1.27 1.27 0 0 0-.626-.587q-.415-.197-1.048-.197h-1.668V12h-.751V2.402h2.419q.612 0 1.1.152.495.145.838.455.343.303.52.778.185.474.185 1.127 0 .593-.23 1.068-.231.474-.647.778a2.04 2.04 0 0 1-.975.375zM48.908 12h-2.433l.402-.705h2.03q.58 0 .99-.238.407-.243.626-.685.224-.448.224-1.068 0-.54-.191-.976a1.5 1.5 0 0 0-.587-.685q-.396-.258-1.009-.257h-1.437l.014-.692h2.01l.145.25q.555.066.956.396.408.33.633.837.224.507.224 1.114 0 .877-.33 1.483-.33.6-.91.916-.58.31-1.357.31m8.58-.705V12h-4.483v-.705zM53.21 2.402V12h-.752V2.402zM56.928 6.7v.706h-3.923V6.7zm.527-4.298v.706h-4.45v-.706zM63.622 6.7v.706H58.83V6.7zm-4.634-4.298V12h-.751V2.402zm5.26 0V12h-.757V2.402zM70.984 6.7v.706h-4.792V6.7zM66.35 2.402V12h-.751V2.402zm5.26 0V12h-.758V2.402zm1.877 4.153h2.228q.876 0 1.47.343.6.335.903.95.303.605.303 1.416 0 .6-.178 1.108a2.4 2.4 0 0 1-.508.863q-.336.363-.837.567a3.1 3.1 0 0 1-1.153.198h-2.742V2.402h.758v8.893h1.984q.678 0 1.107-.284t.62-.751q.198-.468.197-1.009 0-.534-.197-.982a1.6 1.6 0 0 0-.62-.732q-.429-.276-1.107-.276h-2.228zm6.928-4.153V12h-.758V2.402zm2.172 8.168 4.476-8.168h.745V12h-.745V3.82L82.587 12h-.752V2.402h.752zM86.094.042h.673q0 .501-.231.884-.225.383-.653.6-.421.217-1.015.217-.89 0-1.404-.474-.507-.475-.507-1.227h.679q0 .455.276.791.278.33.956.33.66 0 .943-.336a1.18 1.18 0 0 0 .283-.785m11.182 2.36V12h-.758V3.108h-4.45V12h-.758V2.402zm4.157 5.696h-2.274v-.706h2.274q.705 0 1.14-.277a1.64 1.64 0 0 0 .633-.758q.204-.48.204-1.074 0-.587-.204-1.081a1.7 1.7 0 0 0-.633-.791q-.435-.303-1.14-.303h-2.037V12h-.751V2.402h2.788q.883 0 1.49.363.612.363.923 1.008.315.646.316 1.497 0 .883-.31 1.522a2.17 2.17 0 0 1-.916.97q-.606.336-1.503.336m8.573 3.197V12h-4.482v-.705zm-4.278-8.893V12h-.751V2.402zm3.718 4.298v.706h-3.922V6.7zm.528-4.298v.706h-4.45v-.706zm6.774 0V12h-.759V3.108h-4.449V12h-.758V2.402zm4.071.58L118.056 12h-.778l3.052-9.598h.534zM123.303 12l-2.769-9.018-.033-.58h.528L124.081 12zm-.435-3.388v.705h-4.324v-.705zm4.5-.514h-2.274v-.706h2.274q.705 0 1.14-.277a1.64 1.64 0 0 0 .633-.758q.204-.48.204-1.074 0-.587-.204-1.081a1.7 1.7 0 0 0-.633-.791q-.435-.303-1.14-.303h-2.037V12h-.752V2.402h2.789q.883 0 1.489.363.614.363.923 1.008.317.646.317 1.497 0 .883-.31 1.522a2.18 2.18 0 0 1-.916.97q-.607.336-1.503.336m5.337-5.116L129.943 12h-.778l3.052-9.598h.534zM135.19 12l-2.769-9.018-.033-.58h.528L135.968 12zm-.435-3.388v.705h-4.324v-.705zm3.603-6.21V12h-.745V2.402zm2.736 0v.706h-6.203v-.706zm-1.005 9.11q0-.23.145-.395a.52.52 0 0 1 .409-.165q.264 0 .415.165.152.164.152.395a.54.54 0 0 1-.152.39.55.55 0 0 1-.415.157q-.264 0-.409-.158a.56.56 0 0 1-.145-.389m10.543-9.11V12h-.759V3.108h-4.449V12h-.758V2.402zm6.398 8.893V12h-4.483v-.705zm-4.278-8.893V12H152V2.402zm3.717 4.298v.706h-3.922V6.7zm.528-4.298v.706h-4.45v-.706zm3.57 5.696h-2.274v-.706h2.274q.706 0 1.141-.277.435-.282.632-.758a2.7 2.7 0 0 0 .205-1.074q0-.587-.205-1.081a1.7 1.7 0 0 0-.632-.791q-.435-.303-1.141-.303h-2.037V12h-.751V2.402h2.788q.884 0 1.49.363.613.363.923 1.008.316.646.316 1.497 0 .883-.31 1.522a2.17 2.17 0 0 1-.916.97q-.606.336-1.503.336m8.574 3.197V12h-4.483v-.705zm-4.278-8.893V12h-.752V2.402zM168.58 6.7v.706h-3.922V6.7zm.528-4.298v.706h-4.45v-.706zm7.037 8.893V12h-6.288v-.705zm-6.137 0v3.039h-.751v-3.04zm6.777 0v3.032h-.752v-3.032zm-1.503-8.893v.706h-3.639v-.706zm.613 0V12h-.751V2.402zm-4.522 0h.745l-.132 3.474a17 17 0 0 1-.158 1.72 14 14 0 0 1-.277 1.45 8.6 8.6 0 0 1-.363 1.168q-.197.513-.421.89a3.2 3.2 0 0 1-.442.6q-.218.224-.429.296h-.428v-.705h.349q.14-.165.343-.54.211-.377.429-1.016.224-.645.395-1.595a16.6 16.6 0 0 0 .237-2.268zm14.194 0V12h-.758V3.108h-4.45V12h-.758V2.402zm4.157 5.696h-2.274v-.706h2.274q.705 0 1.14-.277a1.64 1.64 0 0 0 .633-.758q.204-.48.205-1.074 0-.587-.205-1.081a1.7 1.7 0 0 0-.633-.791q-.435-.303-1.14-.303h-2.037V12h-.751V2.402h2.788q.883 0 1.49.363.612.363.923 1.008.316.646.316 1.497 0 .883-.31 1.522a2.17 2.17 0 0 1-.916.97q-.606.336-1.503.336m4.322 2.472 4.476-8.168h.745V12h-.745V3.82L194.046 12h-.752V2.402h.752zm6.84-8.168h.758l2.907 8.438 2.92-8.438h.745L204.847 12h-.58zm-.231 0h.659l.093 5.419V12h-.752zm7.146 0h.665V12h-.751V7.82zm7.037 8.893V12h-4.482v-.705zm-4.278-8.893V12h-.751V2.402zm3.718 4.298v.706h-3.922V6.7zm.527-4.298v.706h-4.449v-.706zm6.168 4.298v.706h-4.792V6.7zm-4.634-4.298V12h-.752V2.402zm5.26 0V12h-.758V2.402zm6.379 8.893V12h-4.483v-.705zm-4.279-8.893V12h-.751V2.402zm3.718 4.298v.706h-3.922V6.7zm.528-4.298v.706h-4.45v-.706zm6.167 4.298v.706h-4.792V6.7zm-4.634-4.298V12h-.751V2.402zm5.26 0V12h-.758V2.402zm2.127 8.168 4.476-8.168h.745V12h-.745V3.82L236.865 12h-.751V2.402h.751zm11.639.725V12h-4.483v-.705zm-4.278-8.893V12h-.752V2.402zm3.718 4.298v.706h-3.923V6.7zm.527-4.298v.706h-4.45v-.706zm1.013 0h.758l2.907 8.438 2.92-8.438h.745L253.445 12h-.58zm-.231 0h.659l.092 5.419V12h-.751zm7.145 0h.666V12h-.751V7.82zm-249.266 16V28h-.758v-8.892h-4.45V28h-.757v-9.598zm4.157 5.696H9.015v-.706h2.274q.705 0 1.14-.276.435-.284.634-.759.204-.48.204-1.074 0-.586-.204-1.081a1.7 1.7 0 0 0-.633-.791q-.435-.303-1.14-.303H9.252V28H8.5v-9.598h2.788q.884 0 1.49.363.613.363.923 1.008.316.646.316 1.497 0 .883-.31 1.523a2.17 2.17 0 0 1-.916.969q-.606.336-1.503.336m9.484-1.932v2.077q0 .956-.218 1.687-.21.726-.613 1.213a2.6 2.6 0 0 1-.969.745q-.573.25-1.292.25a3.2 3.2 0 0 1-1.285-.25 2.7 2.7 0 0 1-.976-.745 3.5 3.5 0 0 1-.633-1.213q-.217-.732-.217-1.687v-2.077q0-.95.217-1.68.218-.732.62-1.22.409-.488.976-.738.573-.258 1.285-.258.719 0 1.292.258.574.25.982.738t.62 1.22q.21.73.21 1.68m-.745 2.077v-2.09q0-.79-.159-1.378a2.8 2.8 0 0 0-.448-.988 1.86 1.86 0 0 0-.738-.594 2.5 2.5 0 0 0-1.015-.197q-.555 0-.995.197-.435.198-.739.594-.296.395-.455.988-.158.587-.158 1.378v2.09q0 .797.158 1.39.159.587.462.99.31.394.745.593.441.197.995.197.574 0 1.009-.197.441-.198.738-.594a2.9 2.9 0 0 0 .448-.988q.152-.594.152-1.391m1.75-5.84h.752v2.662q0 .831.218 1.325.225.495.652.712.436.218 1.075.218.316 0 .626-.033a6.7 6.7 0 0 0 1.2-.237q.297-.086.586-.192v.712q-.277.1-.553.185a10 10 0 0 1-.574.145q-.29.06-.613.092a7 7 0 0 1-.672.033q-.85 0-1.457-.29-.6-.29-.923-.942-.316-.653-.316-1.728zm4.879 0h.745V28h-.745zm2.884 8.167 4.476-8.168h.745V28h-.745v-8.18L29.541 28h-.75v-9.598h.75zm9.16-8.168V28h-.744v-9.598zm2.736 0v.706h-6.203v-.706zm2.786.58L41.461 28h-.777l3.052-9.598h.534zM46.708 28l-2.768-9.018-.033-.58h.527L47.486 28zm-.435-3.388v.705H41.95v-.705zm2.49 1.958 4.476-8.168h.744V28h-.744v-8.18L48.763 28h-.752v-9.598h.752zm3.507-10.527h.672q0 .5-.23.883-.225.382-.653.6-.422.217-1.016.217-.889 0-1.404-.474-.507-.475-.507-1.226h.679q0 .454.277.79.276.33.955.33.66 0 .943-.336a1.18 1.18 0 0 0 .284-.785m5.85 2.36V28h-.744v-9.598zm2.736 0v.705h-6.203v-.706zm5.64 8.892V28h-4.482v-.705zm-4.278-8.893V28h-.751v-9.598zm3.718 4.298v.706h-3.922V22.7zm.527-4.298v.706h-4.449v-.706zm3.648 8.168 4.475-8.168h.745V28h-.745v-8.18L70.111 28h-.752v-9.598h.752zm11.994-3.87v.706h-4.792V22.7zm-4.634-4.298V28h-.751v-9.598zm5.26 0V28h-.757v-9.598zm6.34 6.605h.758q-.067 1.075-.435 1.767a2.4 2.4 0 0 1-1.016 1.028q-.639.336-1.536.336-.692 0-1.245-.27-.555-.27-.95-.778a3.8 3.8 0 0 1-.6-1.245 6.1 6.1 0 0 1-.204-1.648V22.14q0-.903.204-1.615.211-.72.607-1.22.402-.507.969-.77a3 3 0 0 1 1.272-.265q.87 0 1.503.33.639.33 1.002 1.022t.428 1.786h-.758q-.06-.883-.316-1.417-.25-.534-.712-.771-.462-.244-1.147-.244-.553 0-.982.217a2 2 0 0 0-.718.62q-.29.402-.442.989a5.3 5.3 0 0 0-.152 1.325v2.07q0 .73.139 1.331.144.594.422 1.022.282.428.698.659.422.225.982.224.712 0 1.174-.224.467-.225.725-.751.263-.535.33-1.45m4.249-6.605V28h-.745v-9.598zm2.735 0v.706h-6.203v-.706zm3.4 5.696H97.18v-.706h2.274q.705 0 1.141-.276a1.64 1.64 0 0 0 .633-.759q.204-.48.204-1.074 0-.586-.204-1.081a1.7 1.7 0 0 0-.633-.791q-.435-.303-1.14-.303h-2.037V28h-.752v-9.598h2.788q.884 0 1.49.363.613.363.923 1.008.316.646.316 1.497 0 .883-.309 1.523a2.17 2.17 0 0 1-.917.969q-.606.336-1.503.336m6.127.679 2.327-6.375h.884l-3.039 7.95q-.118.283-.264.6-.145.31-.369.58a1.7 1.7 0 0 1-.541.442q-.322.164-.784.164-.125 0-.297-.026a1 1 0 0 1-.23-.046l.052-.679q.073.02.225.033.157.013.25.013.35 0 .573-.178.231-.184.383-.474.158-.29.283-.613zm-2.406-6.375 2.624 6.322.217.738-.646.139-3.052-7.199zm7.045 0V28h-.758v-9.598zm5.029 0-3.559 5.102h-1.774l-.079-.712h1.404l3.066-4.39zM114.558 28l-3.329-4.594.429-.719L115.487 28zm8.191-.718-.059 3.032h-.686V28h-.797v-.718zm-6.763.718v-9.598h.758v8.893h4.45v-8.893h.758V28zm8.251-1.43 4.475-8.168h.745V28h-.745v-8.18L124.237 28h-.752v-9.598h.752zm7.486-8.168V28h-.758v-9.598zm1.924 4.404v.685h-2.01v-.685zm5.762-.64v2.077q0 .956-.218 1.687-.211.726-.613 1.213a2.65 2.65 0 0 1-.976.745q-.573.25-1.292.25-.705 0-1.278-.25a2.7 2.7 0 0 1-.983-.745 3.5 3.5 0 0 1-.632-1.213q-.218-.732-.218-1.687v-2.077q0-.95.218-1.68.217-.732.619-1.22.41-.488.982-.738a3.1 3.1 0 0 1 1.279-.258q.726 0 1.299.258.573.25.975.738.403.488.62 1.22.218.73.218 1.68m-.752 2.077v-2.09q0-.79-.158-1.378a2.8 2.8 0 0 0-.448-.988 1.86 1.86 0 0 0-.739-.594 2.5 2.5 0 0 0-1.015-.197 2.4 2.4 0 0 0-1.002.197q-.435.198-.731.594-.297.395-.455.988-.159.587-.158 1.378v2.09q0 .797.151 1.39.159.587.468.99.31.394.745.593.435.197.995.197.574 0 1.009-.197.442-.198.738-.594.297-.402.449-.988.151-.594.151-1.391m1.613 3.27q0-.232.145-.396a.51.51 0 0 1 .408-.165.537.537 0 0 1 .567.56.54.54 0 0 1-.151.39.55.55 0 0 1-.416.157q-.263 0-.408-.158a.55.55 0 0 1-.145-.389"/></svg>