<svg xmlns="http://www.w3.org/2000/svg" fill="none" viewBox="0 0 39 7"><path fill="#fff" d="M2.082 3.607H.927L.92 3.25H1.92q.3 0 .51-.106a.7.7 0 0 0 .32-.315q.114-.208.114-.513 0-.314-.11-.52a.66.66 0 0 0-.324-.303 1.3 1.3 0 0 0-.544-.103h-.865V6h-.39V1.023h1.255q.318 0 .57.08.258.075.435.235.179.158.27.403.096.247.096.585 0 .308-.12.553a1.058 1.058 0 0 1-.84.598zM2.055 6H.793l.209-.366h1.053q.3 0 .512-.123a.83.83 0 0 0 .325-.355q.117-.233.116-.554 0-.28-.099-.506a.8.8 0 0 0-.304-.355.94.94 0 0 0-.523-.134h-.745l.007-.358h1.042l.075.13a.94.94 0 0 1 .496.204q.211.172.328.435t.116.577q0 .455-.17.77a1.17 1.17 0 0 1-.472.474q-.3.16-.704.161m1.93-4.977 1.233 2.704 1.24-2.704h.452L5.413 4.127V6h-.39V4.127L3.526 1.023zm5.959 4.622V6H7.302v-.321l1.367-1.85q.255-.345.407-.604.15-.264.215-.479t.065-.42q0-.298-.1-.527a.8.8 0 0 0-.283-.359.8.8 0 0 0-.465-.13q-.284 0-.492.15a.93.93 0 0 0-.314.408q-.11.256-.11.591h-.38q0-.413.155-.752.153-.342.444-.547.29-.205.697-.205.379 0 .653.16.277.158.427.459.15.297.15.714 0 .225-.068.455-.065.225-.18.454-.114.225-.264.448-.146.222-.308.438L7.763 5.645zm1.088-2.103-.3-.092.205-2.427h2.102v.387h-1.777l-.144 1.668q.11-.093.311-.182.201-.088.458-.088.284 0 .51.112.225.11.389.318.165.21.253.506.09.297.089.67 0 .36-.075.66t-.233.526a1.06 1.06 0 0 1-.393.345 1.2 1.2 0 0 1-.564.123q-.249 0-.468-.082a1.2 1.2 0 0 1-.393-.256 1.3 1.3 0 0 1-.28-.43 2 2 0 0 1-.137-.61h.362q.034.333.15.561a.83.83 0 0 0 .308.346q.191.116.458.116a.8.8 0 0 0 .38-.086.75.75 0 0 0 .28-.25q.112-.165.167-.406.058-.243.058-.55 0-.264-.061-.485a1.2 1.2 0 0 0-.181-.394.84.84 0 0 0-.294-.26.8.8 0 0 0-.397-.095q-.293 0-.465.096a1.3 1.3 0 0 0-.317.26m5.198-.458v.838q0 .55-.09.957-.088.403-.252.666-.164.264-.407.393-.24.13-.54.13-.243 0-.444-.082a1 1 0 0 1-.359-.25 1.5 1.5 0 0 1-.267-.426 2.7 2.7 0 0 1-.167-.602 5 5 0 0 1-.058-.786v-.838q0-.55.089-.95.088-.404.256-.663.168-.263.403-.39.24-.13.544-.13.242 0 .44.083.202.081.36.25.16.164.266.416.11.253.168.598.058.346.058.786m-.38.886v-.94q0-.339-.037-.612a2.5 2.5 0 0 0-.11-.482 1.2 1.2 0 0 0-.184-.349.716.716 0 0 0-.581-.28.73.73 0 0 0-.4.11.86.86 0 0 0-.284.328 1.9 1.9 0 0 0-.17.54 4 4 0 0 0-.059.745v.94q0 .334.038.612.037.273.11.485t.184.355.256.22a.74.74 0 0 0 .328.07.7.7 0 0 0 .4-.112.9.9 0 0 0 .284-.338 2 2 0 0 0 .167-.547q.058-.325.058-.745m1.52 1.702h.068q.454 0 .759-.157.305-.158.482-.438.177-.284.253-.66.078-.378.079-.82V2.9q0-.39-.072-.687a1.5 1.5 0 0 0-.198-.496.86.86 0 0 0-.301-.3.7.7 0 0 0-.376-.103.7.7 0 0 0-.38.11.9.9 0 0 0-.283.3 1.6 1.6 0 0 0-.178.438 2.2 2.2 0 0 0-.007 1.012q.059.236.168.423a1 1 0 0 0 .273.3q.165.11.38.11a.8.8 0 0 0 .42-.109q.188-.113.321-.29.136-.181.209-.39.075-.212.082-.41l.188-.004q0 .312-.096.595a1.7 1.7 0 0 1-.27.499q-.17.218-.403.345a1.04 1.04 0 0 1-.5.123 1 1 0 0 1-.522-.137 1.2 1.2 0 0 1-.376-.375 1.8 1.8 0 0 1-.226-.534q-.075-.3-.075-.622 0-.358.085-.673t.246-.554q.165-.242.4-.38.236-.136.534-.136.345 0 .594.147.253.147.414.414.165.266.242.629.083.362.083.796v.39q0 .44-.055.844a3.4 3.4 0 0 1-.185.745 1.9 1.9 0 0 1-.352.591 1.5 1.5 0 0 1-.56.39 2.1 2.1 0 0 1-.797.137h-.072zm5.35-.027V6H20.08v-.321l1.367-1.85q.255-.345.407-.604.15-.264.215-.479t.065-.42q0-.298-.1-.527a.8.8 0 0 0-.283-.359.8.8 0 0 0-.465-.13q-.284 0-.492.15a.93.93 0 0 0-.314.408q-.11.256-.11.591h-.38q0-.413.155-.752.153-.342.444-.547.29-.205.697-.205.379 0 .653.16.277.158.427.459.15.297.15.714 0 .225-.067.455-.066.225-.182.454-.113.225-.263.448-.146.222-.308.438L20.54 5.645zm1.09-2.103-.301-.092.205-2.427h2.102v.387H24.04l-.144 1.668q.11-.093.311-.182.202-.088.458-.088.285 0 .51.112.225.11.39.318.163.21.252.506.09.297.089.67 0 .36-.075.66t-.233.526a1.06 1.06 0 0 1-.393.345 1.2 1.2 0 0 1-.564.123q-.249 0-.468-.082a1.2 1.2 0 0 1-.393-.256 1.3 1.3 0 0 1-.28-.43 2 2 0 0 1-.137-.61h.362q.035.333.15.561a.83.83 0 0 0 .308.346q.192.116.458.116a.8.8 0 0 0 .38-.086.75.75 0 0 0 .28-.25 1.2 1.2 0 0 0 .167-.406q.06-.243.059-.55 0-.264-.062-.485a1.2 1.2 0 0 0-.181-.394.84.84 0 0 0-.294-.26.8.8 0 0 0-.397-.095q-.293 0-.464.096-.168.095-.318.26m5.43.848v.356h-2.974v-.24l1.924-3.483h.314l-.42.852-1.36 2.515zm-.643-3.367V6h-.376V1.023zm3.649 3.654q0 .455-.178.766a1.2 1.2 0 0 1-.479.468q-.3.157-.673.157-.38 0-.68-.157-.3-.16-.479-.468-.174-.311-.174-.766 0-.294.1-.536.097-.247.273-.424.177-.181.42-.28t.533-.1q.38 0 .68.175.305.17.479.471.177.3.178.694m-.383.004q0-.318-.127-.554a.9.9 0 0 0-.827-.502.9.9 0 0 0-.492.133.9.9 0 0 0-.335.369 1.2 1.2 0 0 0-.12.554q0 .327.12.56.123.23.338.352.216.12.496.12t.492-.12a.85.85 0 0 0 .332-.352q.123-.233.123-.56m.277-2.376q0 .365-.164.65-.165.284-.441.447-.277.16-.622.161-.355 0-.633-.16a1.2 1.2 0 0 1-.434-.448 1.3 1.3 0 0 1-.157-.65q0-.434.157-.735.16-.3.434-.458.277-.157.626-.157.356 0 .632.157.277.158.438.458.164.3.164.735m-.38-.003q0-.291-.113-.513a.86.86 0 0 0-.304-.349.76.76 0 0 0-.437-.13.8.8 0 0 0-.434.12.83.83 0 0 0-.298.342q-.105.222-.106.53 0 .297.106.516a.83.83 0 0 0 .298.335.83.83 0 0 0 .44.116q.247 0 .438-.116a.83.83 0 0 0 .301-.335q.11-.219.11-.516m3.69-1.279v.24L33.68 6h-.397l1.764-4.621h-2.355v-.356zm3.14 2.061v.838q0 .55-.089.957-.09.403-.253.666a1.1 1.1 0 0 1-.407.393q-.24.13-.54.13a1.2 1.2 0 0 1-.444-.082 1 1 0 0 1-.359-.25 1.5 1.5 0 0 1-.267-.426 2.7 2.7 0 0 1-.167-.602 5 5 0 0 1-.058-.786v-.838q0-.55.089-.95.088-.404.256-.663.168-.263.403-.39.24-.13.544-.13.243 0 .44.083.203.081.36.25.16.164.266.416.11.253.168.598.058.346.058.786m-.38.886v-.94q0-.339-.037-.612a2.5 2.5 0 0 0-.11-.482 1.2 1.2 0 0 0-.184-.349.716.716 0 0 0-.581-.28.73.73 0 0 0-.4.11.86.86 0 0 0-.284.328 1.9 1.9 0 0 0-.17.54 4 4 0 0 0-.059.745v.94q0 .334.038.612.037.273.11.485t.184.355.256.22a.74.74 0 0 0 .328.07.7.7 0 0 0 .4-.112.9.9 0 0 0 .284-.338q.112-.226.167-.547.059-.325.058-.745"/></svg>