<svg xmlns="http://www.w3.org/2000/svg" fill="none" viewBox="0 0 264 55"><path fill="#fff" d="M.682 1.454h11.484V21H8.367V4.76H4.481V21H.682zM15.522 21V1.744c1.073-.232 2.523-.377 3.973-.377 2.262 0 4.03.319 5.307 1.508 1.16 1.015 1.682 2.639 1.682 4.292 0 2.117-.638 3.596-1.653 4.698-1.218 1.276-3.19 1.856-4.756 1.856h-.754V21zM19.32 4.586v6.032c.174.058.377.058.609.058 1.914 0 2.784-1.363 2.784-3.19 0-1.711-.696-3.045-2.465-3.045-.348 0-.696.058-.928.145m14.936-3.364c4.727 0 6.06 5.191 6.06 9.657 0 7.366-2.61 10.353-6.321 10.353-4.437 0-6.177-4.698-6.177-10.063 0-5.336 2.117-9.947 6.438-9.947m-.145 3.306c-1.508 0-2.35 2.494-2.35 6.699 0 4.437.842 6.699 2.379 6.699 1.595 0 2.204-2.9 2.204-6.873 0-3.422-.522-6.525-2.233-6.525M47.987.758h3.335v1.479c3.509.464 6.177 3.219 6.177 8.845 0 6.003-2.697 8.526-6.177 9.019v1.595h-3.364v-1.595c-3.538-.522-6.177-3.016-6.177-8.932 0-5.742 3.16-8.468 6.206-8.932zm0 16.559V4.992c-1.16.348-2.407 1.914-2.407 6.235 0 4.031 1.218 5.829 2.407 6.09m3.306-12.325v12.325c1.276-.261 2.407-1.827 2.407-6.206 0-4.437-1.305-5.858-2.407-6.119M59.9 1.454h3.364v4.321c0 3.596-.232 6.96-.377 8.99h.058c.55-1.682 1.537-4.234 2.117-5.742l2.87-7.569h3.452V21h-3.335v-4.408c0-3.915.145-6.815.232-8.787h-.058c-.435 1.769-1.305 4.118-1.943 5.742L63.409 21h-3.51zm15.622 0H85.7V21h-3.8V4.76h-2.9v5.162c0 4.495-.29 8.439-2.754 10.353-.725.58-1.653.957-2.61.957l-.812-3.219c.464-.116.957-.348 1.305-.696 1.13-1.16 1.392-3.248 1.392-7.047zm20.16 15.08h-3.51L91.303 21H87.62l4.234-19.546h4.553L100.206 21h-3.683zm-3.132-2.958h2.784l-.638-4.089c-.203-1.189-.464-3.132-.638-4.437h-.087c-.203 1.305-.493 3.335-.696 4.466zm9.802-12.122h3.712v8.497h.29l3.19-8.497h4.176l-4.495 9.048c2.001.754 2.668 2.581 3.219 4.959.435 1.885.754 3.741 1.334 5.539h-3.799c-.464-1.392-.754-2.987-1.073-4.524-.464-2.291-.986-3.77-2.552-3.77h-.29V21h-3.712zM118.091 21V4.963h-3.451V1.454h10.73v3.509h-3.48V21zm9.268-19.546h3.364v4.321c0 3.596-.232 6.96-.377 8.99h.058c.551-1.682 1.537-4.234 2.117-5.742l2.871-7.569h3.451V21h-3.335v-4.408c0-3.915.145-6.815.232-8.787h-.058c-.435 1.769-1.305 4.118-1.943 5.742L130.868 21h-3.509zm14.868 0h3.712v8.497h.29l3.19-8.497h4.176l-4.495 9.048c2.001.754 2.668 2.581 3.219 4.959.435 1.885.754 3.741 1.334 5.539h-3.799c-.464-1.392-.754-2.987-1.073-4.524-.464-2.291-.986-3.77-2.552-3.77h-.29V21h-3.712zm20.206 15.08h-3.509l-.87 4.466h-3.683l4.234-19.546h4.553L166.957 21h-3.683zm-3.132-2.958h2.784l-.638-4.089c-.203-1.189-.464-3.132-.638-4.437h-.087c-.203 1.305-.493 3.335-.696 4.466zm14.418 7.366V1.744c1.16-.261 2.668-.377 4.321-.377 1.827 0 3.596.232 4.959 1.392 1.044.87 1.479 2.175 1.479 3.538 0 1.74-.899 3.422-2.842 4.263v.116c2.262.638 3.48 2.523 3.48 4.669 0 1.624-.522 2.871-1.45 3.828-1.16 1.276-3.132 1.972-6.409 1.972-1.45 0-2.668-.087-3.538-.203m3.799-16.617v5.162h.812c1.363 0 2.407-1.16 2.407-2.755 0-1.421-.667-2.523-2.233-2.523-.406 0-.754.029-.986.116m0 7.975v5.858c.232.058.493.058.841.058 1.537 0 2.813-.928 2.813-2.929 0-1.943-1.334-2.958-2.842-2.987zm9.814-7.018-.638-2.929c.841-.58 2.465-1.131 4.321-1.131 3.712 0 5.452 2.262 5.452 4.814 0 2.001-1.334 3.944-3.306 4.437v.058c2.291.464 3.886 2.204 3.886 4.901 0 3.741-3.19 5.8-6.699 5.8-1.624 0-3.045-.377-3.944-.87l.551-3.103c.841.493 1.943.783 3.016.783 2.03 0 3.103-1.16 3.103-2.726 0-2.175-1.798-3.045-3.857-3.045h-.551V9.4h.377c1.74 0 3.48-.841 3.48-2.639 0-1.363-.841-2.291-2.465-2.291-.899 0-1.972.377-2.726.812m13.76-3.828h10.063v16.298l1.537.058-.174 7.453h-2.871L209.502 21h-8.497l-.145 4.263h-2.9l-.145-7.453 1.392-.058c.609-1.479 1.015-2.958 1.334-4.553a41 41 0 0 0 .551-6.815zm3.48 3.306v2.262c0 2.233-.145 4.495-.464 6.583-.232 1.392-.58 2.9-.986 4.089h4.263V4.76zm8.097-3.306h4.089l1.798 7.366c.261 1.102.493 2.262.638 3.132h.087c.174-.928.29-2.117.464-3.219l1.305-7.279h3.857l-2.9 10.411c-.667 2.465-1.421 5.133-2.407 6.815-.928 1.537-2.349 2.552-3.973 2.552-.667 0-1.16-.058-1.537-.174l.145-3.103c.174.029.464.087.928.087.986 0 1.798-1.015 2.088-1.972.145-.406.116-.725-.029-1.16zM229.418 21V4.963h-3.451V1.454h10.73v3.509h-3.48V21zm9.268-19.546h3.364v4.321c0 3.596-.232 6.96-.377 8.99h.058c.551-1.682 1.537-4.234 2.117-5.742l2.871-7.569h3.451V21h-3.335v-4.408c0-3.915.145-6.815.232-8.787h-.058c-.435 1.769-1.305 4.118-1.943 5.742L242.195 21h-3.509zM256.077 21h-4.031c.261-.58.522-1.334.754-2.088.522-1.972.522-4.698 1.972-6.235.348-.377.87-.696 1.392-.841v-.058c-2.059-.638-3.364-2.233-3.364-4.698 0-2.001.754-3.393 1.798-4.263 1.247-1.015 2.987-1.45 4.959-1.45 1.45 0 2.958.116 4.147.377V21h-3.799v-7.801h-.406c-.667 0-1.189.261-1.566.725-.841 1.073-.986 3.915-1.305 5.365-.145.58-.29 1.16-.551 1.711m3.828-10.759V4.412c-.203-.029-.435-.087-.754-.087-1.769 0-2.523 1.421-2.523 2.9 0 1.856 1.102 3.045 2.755 3.045.232 0 .319 0 .522-.029M.682 30.454h3.364v4.321c0 3.596-.232 6.96-.377 8.99h.058c.551-1.682 1.537-4.234 2.117-5.742l2.871-7.569h3.451V50H8.831v-4.408c0-3.915.145-6.815.232-8.787h-.058c-.435 1.769-1.305 4.118-1.943 5.742L4.191 50H.682zm21.37 0h10.062v16.298l1.537.058-.174 7.453h-2.87L30.46 50h-8.497l-.145 4.263h-2.9l-.145-7.453 1.392-.058c.61-1.479 1.015-2.958 1.334-4.553a41 41 0 0 0 .551-6.815zm3.48 3.306v2.262c0 2.233-.146 4.495-.465 6.583-.232 1.392-.58 2.9-.986 4.089h4.263V33.76zm10.239-3.306h3.364v4.321c0 3.596-.232 6.96-.377 8.99h.058c.55-1.682 1.537-4.234 2.117-5.742l2.87-7.569h3.452V50H43.92v-4.408c0-3.915.145-6.815.232-8.787h-.058c-.435 1.769-1.305 4.118-1.943 5.742L39.28 50h-3.51zm21.48 15.08h-3.509L52.872 50h-3.683l4.234-19.546h4.553L61.775 50h-3.683zm-3.132-2.958h2.784l-.638-4.089c-.203-1.189-.464-3.132-.638-4.437h-.087c-.203 1.305-.493 3.335-.696 4.466zM63.921 50V30.744c1.073-.232 2.523-.377 3.973-.377 2.262 0 4.031.319 5.307 1.508 1.16 1.015 1.682 2.639 1.682 4.292 0 2.117-.638 3.596-1.653 4.698-1.218 1.276-3.19 1.856-4.756 1.856h-.754V50zm3.8-16.414v6.032c.173.058.376.058.608.058 1.914 0 2.784-1.363 2.784-3.19 0-1.711-.696-3.045-2.465-3.045-.348 0-.696.058-.928.145m17.72 4.669v3.161h-4.467v5.278h5.046V50h-8.845V30.454h8.497v3.306h-4.698v4.495zm3.147-7.801h3.364v4.321c0 3.596-.232 6.96-.377 8.99h.058c.551-1.682 1.537-4.234 2.117-5.742l2.871-7.569h3.451V50h-3.335v-4.408c0-3.915.145-6.815.232-8.787h-.058c-.435 1.769-1.305 4.118-1.943 5.742L92.098 50h-3.51z"/></svg>