<svg xmlns="http://www.w3.org/2000/svg" fill="none" viewBox="0 0 162 56"><path fill="#fff" d="M1.276 4.282.638 1.353C1.479.773 3.103.222 4.959.222c3.712 0 5.452 2.262 5.452 4.814 0 2.001-1.334 3.944-3.306 4.437v.058c2.291.464 3.886 2.204 3.886 4.901 0 3.741-3.19 5.8-6.699 5.8-1.624 0-3.045-.377-3.944-.87l.551-3.103c.841.493 1.943.783 3.016.783 2.03 0 3.103-1.16 3.103-2.726 0-2.175-1.798-3.045-3.857-3.045H2.61V8.4h.377c1.74 0 3.48-.841 3.48-2.639 0-1.363-.841-2.291-2.465-2.291-.899 0-1.972.377-2.726.812m18.63 11.252h-3.51L15.526 20h-3.683L16.077.454h4.553L24.43 20h-3.684zm-3.133-2.958h2.784l-.638-4.089c-.203-1.189-.464-3.132-.638-4.437h-.087c-.203 1.305-.493 3.335-.696 4.466zM26.576.454h9.976v3.248h-6.206v4.089a7 7 0 0 1 1.537-.145c1.682 0 3.16.522 4.234 1.45 1.16 1.015 1.856 2.552 1.856 4.524 0 1.885-.58 3.393-1.624 4.437-1.334 1.421-3.422 2.088-6.235 2.088-1.45 0-2.668-.087-3.538-.203zm3.799 10.324v6.264c.26.058.522.058.84.058.9 0 1.625-.348 2.089-.928.493-.58.725-1.392.725-2.262 0-.899-.261-1.711-.754-2.262-.493-.58-1.19-.957-2.03-.957q-.48 0-.87.087M45.82.222c4.727 0 6.061 5.191 6.061 9.657 0 7.366-2.61 10.353-6.322 10.353-4.437 0-6.177-4.698-6.177-10.063 0-5.336 2.117-9.947 6.438-9.947m-.145 3.306c-1.508 0-2.349 2.494-2.349 6.699 0 4.437.841 6.699 2.378 6.699 1.595 0 2.204-2.9 2.204-6.873 0-3.422-.522-6.525-2.233-6.525M56.022 20V3.963H52.57V.454H63.3v3.509h-3.48V20zm14.577-4.466h-3.51L66.22 20h-3.682L66.77.454h4.553L75.123 20H71.44zm-3.132-2.958h2.784l-.638-4.089c-.203-1.189-.464-3.132-.638-4.437h-.087c-.203 1.305-.493 3.335-.696 4.466zM7.163 35.222c4.727 0 6.061 5.191 6.061 9.657 0 7.366-2.61 10.353-6.322 10.353-4.437 0-6.177-4.698-6.177-10.063 0-5.336 2.117-9.947 6.438-9.947m-.145 3.306c-1.508 0-2.349 2.494-2.349 6.699 0 4.437.841 6.699 2.378 6.699 1.595 0 2.204-2.9 2.204-6.873 0-3.422-.522-6.525-2.233-6.525M32.556 55l-.348-6.844c-.087-1.856-.232-4.379-.174-6.467h-.087a85 85 0 0 1-1.247 6.003l-1.682 6.989h-2.697l-1.624-6.873c-.377-1.566-.899-4.002-1.189-6.119h-.087a217 217 0 0 1-.29 6.525L22.812 55h-3.277l1.421-19.546h4.002l1.566 7.076c.551 2.465 1.044 4.64 1.392 6.844h.058c.29-2.175.725-4.379 1.247-6.844l1.537-7.076h4.002L35.95 55zm6.169-19.546h3.364v4.321c0 3.596-.232 6.96-.377 8.99h.058c.551-1.682 1.537-4.234 2.117-5.742l2.871-7.569h3.451V55h-3.335v-4.408c0-3.915.145-6.815.232-8.787h-.058c-.435 1.769-1.305 4.118-1.943 5.742L42.234 55h-3.509zm14.868 0h3.712v8.497h.29l3.19-8.497h4.176l-4.495 9.048c2.001.754 2.668 2.581 3.22 4.959.434 1.885.753 3.741 1.333 5.539H61.22c-.464-1.392-.754-2.987-1.073-4.524-.464-2.291-.986-3.77-2.552-3.77h-.29V55h-3.712zM66.763 55V35.744c1.072-.232 2.522-.377 3.972-.377 2.262 0 4.031.319 5.307 1.508 1.16 1.015 1.682 2.639 1.682 4.292 0 2.117-.638 3.596-1.653 4.698-1.218 1.276-3.19 1.856-4.756 1.856h-.754V55zm3.798-16.414v6.032c.174.058.377.058.61.058 1.913 0 2.783-1.363 2.783-3.19 0-1.711-.696-3.045-2.465-3.045-.348 0-.696.058-.928.145m14.936-3.364c4.727 0 6.061 5.191 6.061 9.657 0 7.366-2.61 10.353-6.322 10.353-4.437 0-6.177-4.698-6.177-10.063 0-5.336 2.117-9.947 6.438-9.947m-.145 3.306c-1.508 0-2.349 2.494-2.349 6.699 0 4.437.841 6.699 2.378 6.699 1.595 0 2.204-2.9 2.204-6.873 0-3.422-.522-6.525-2.233-6.525m13.875-3.77h3.335v1.479c3.509.464 6.177 3.219 6.177 8.845 0 6.003-2.697 8.526-6.177 9.019v1.595h-3.364v-1.595c-3.538-.522-6.177-3.016-6.177-8.932 0-5.742 3.16-8.468 6.206-8.932zm0 16.559V38.992c-1.16.348-2.407 1.914-2.407 6.235 0 4.031 1.218 5.829 2.407 6.09m3.306-12.325v12.325c1.276-.261 2.407-1.827 2.407-6.206 0-4.437-1.305-5.858-2.407-6.119m9.163-3.538h10.179V55h-3.799V38.76h-2.9v5.162c0 4.495-.29 8.439-2.755 10.353-.725.58-1.653.957-2.61.957l-.812-3.219c.464-.116.957-.348 1.305-.696 1.131-1.16 1.392-3.248 1.392-7.047zm19.029-.232c4.727 0 6.061 5.191 6.061 9.657 0 7.366-2.61 10.353-6.322 10.353-4.437 0-6.177-4.698-6.177-10.063 0-5.336 2.117-9.947 6.438-9.947m-.145 3.306c-1.508 0-2.349 2.494-2.349 6.699 0 4.437.841 6.699 2.378 6.699 1.595 0 2.204-2.9 2.204-6.873 0-3.422-.522-6.525-2.233-6.525M139.205 55V35.744c1.073-.232 2.523-.377 3.973-.377 2.262 0 4.031.319 5.307 1.508 1.16 1.015 1.682 2.639 1.682 4.292 0 2.117-.638 3.596-1.653 4.698-1.218 1.276-3.19 1.856-4.756 1.856h-.754V55zm3.799-16.414v6.032c.174.058.377.058.609.058 1.914 0 2.784-1.363 2.784-3.19 0-1.711-.696-3.045-2.465-3.045-.348 0-.696.058-.928.145m17.72 4.669v3.161h-4.466v5.278h5.046V55h-8.845V35.454h8.497v3.306h-4.698v4.495z"/></svg>