<svg xmlns="http://www.w3.org/2000/svg" fill="none" viewBox="0 0 135 22"><path fill="#fff" d="M4.319 8.653v8.759c0 .203-.061.365-.163.446-.1.101-.283.142-.527.142H1.764c-.264 0-.446-.04-.547-.142-.102-.081-.142-.243-.142-.446V8.653c0-.203.04-.345.142-.446.1-.081.283-.142.547-.142h1.865c.244 0 .426.06.527.142.102.101.163.243.163.446m-1.5-1.358h-.244C1.48 7.295.933 6.747.933 5.612V5.51c0-1.115.547-1.683 1.642-1.683h.243c1.095 0 1.643.568 1.643 1.683v.102c0 1.135-.548 1.683-1.643 1.683M14.12 10.64h-3.223c-.203 0-.345-.02-.426-.101-.081-.082-.102-.244-.102-.487V8.653c0-.243.02-.385.102-.466q.121-.122.425-.122h6.854c.202 0 .344.04.446.122.08.08.141.243.141.466v.385a2.57 2.57 0 0 1-.445 1.44l-3.488 4.947h3.467c.203 0 .325.04.406.122.08.08.121.223.121.466v1.399q0 .365-.121.487c-.081.08-.203.101-.406.101h-6.974c-.426 0-.63-.183-.63-.588v-.466c0-.527.143-.994.447-1.44zm10.126 6.427h-.547c-2.88 0-4.299-1.297-4.299-3.913v-1.358c0-1.338.345-2.312 1.054-2.96.69-.629 1.764-.953 3.184-.953h.284c.263-1.46 1.338-2.21 3.244-2.21h.993c.203 0 .325.04.406.1.06.082.101.224.101.427v1.115c0 .203-.04.324-.122.385-.08.081-.223.101-.405.101h-.953c-.446 0-.75.102-.933.305 1.52.405 2.291 1.642 2.291 3.69v1.358c0 1.46-.405 2.433-1.196 2.96.527.284.933.65 1.237 1.095.304.446.466.933.466 1.44v.142c0 2.007-1.602 3-4.764 3H23.9c-1.378 0-2.717-.243-3.974-.73-.365-.121-.507-.385-.405-.77l.365-1.297c.101-.386.344-.528.73-.406 1.196.406 2.25.588 3.183.588h.284q1.764 0 1.764-1.034v-.06c0-.386-.203-.73-.609-1.055-.324.04-.669.04-.993.04m-.345-2.534h.142c.446 0 .75-.081.953-.284.223-.223.345-.69.345-1.379v-.79c0-.69-.122-1.136-.345-1.38-.203-.182-.507-.283-.953-.283h-.142c-.446 0-.77.101-.953.284-.243.243-.344.69-.344 1.379v.79c0 .69.101 1.156.344 1.379.183.203.507.284.953.284m12.317 2.636h-.04c-.447.69-1.339 1.014-2.657 1.014h-.304c-1.034 0-1.845-.264-2.413-.791-.588-.527-.872-1.318-.872-2.332v-.223c0-1.095.305-1.886.933-2.332s1.642-.669 3.062-.669h.142c.527 0 1.013.04 1.419.081v-.425c0-.426-.122-.73-.345-.893-.243-.142-.649-.223-1.216-.223-.69 0-1.46.122-2.352.345-.244.06-.426.06-.507 0-.102-.06-.162-.182-.183-.385l-.162-1.075c-.04-.182-.04-.324-.04-.405 0-.244.162-.426.486-.527a13 13 0 0 1 3.467-.446c1.561 0 2.677.344 3.325.993.507.527.77 1.379.77 2.535v6.021c0 .203-.06.365-.161.446s-.284.122-.527.122h-.953c-.244 0-.406-.02-.507-.081-.102-.06-.183-.183-.244-.385zm-.73-2.596v-.567a6 6 0 0 0-.973-.061h-.223q-.73 0-1.034.182c-.203.122-.284.365-.284.73v.081c0 .365.08.609.284.73.182.142.466.203.851.203h.142c.406 0 .71-.101.953-.304.182-.162.284-.507.284-.994m7.721-5.413h.06c.447-.73 1.197-1.095 2.272-1.095h.81c.203 0 .366.04.447.122.08.08.142.223.142.446v1.48c0 .223-.04.365-.122.446q-.121.122-.426.122h-.608c-.75 0-1.257.142-1.541.425-.243.244-.345.71-.345 1.4v4.906c0 .203-.06.365-.162.446-.101.101-.284.142-.527.142h-1.865c-.264 0-.446-.04-.548-.142-.101-.081-.142-.243-.142-.446v-8.78c0-.202.04-.344.142-.425s.284-.142.548-.142h.973c.223 0 .385.04.486.101a.8.8 0 0 1 .244.365zm10.282-1.277h.163c1.176 0 2.047.283 2.575.83.486.528.75 1.42.75 2.677v6.022c0 .203-.061.365-.162.446-.102.101-.284.142-.528.142h-1.865c-.263 0-.446-.04-.547-.142-.102-.081-.142-.243-.142-.446v-5.738c0-.446-.081-.77-.223-.933-.163-.162-.467-.263-.892-.263h-.122c-.446 0-.73.101-.892.263-.162.163-.223.487-.223.933v5.738c0 .203-.061.365-.162.446-.102.101-.284.142-.527.142h-1.866c-.264 0-.446-.04-.547-.142-.102-.081-.142-.243-.142-.446v-8.78c0-.202.04-.344.142-.425s.284-.142.547-.142h.953c.243 0 .406.04.507.101q.151.092.243.365l.122.386h.06c.65-.69 1.562-1.034 2.779-1.034m8.704.77v8.759c0 .203-.061.365-.163.446-.1.101-.283.142-.527.142H59.64c-.264 0-.446-.04-.547-.142-.102-.081-.142-.243-.142-.446V8.653c0-.203.04-.345.142-.446.1-.081.283-.142.547-.142h1.865c.244 0 .426.06.527.142.102.101.163.243.163.446m-1.5-1.358h-.244c-1.095 0-1.642-.548-1.642-1.683V5.51c0-1.115.547-1.683 1.642-1.683h.243c1.095 0 1.643.568 1.643 1.683v.102c0 1.135-.548 1.683-1.643 1.683m3.236 14.314h-1.176c-.203 0-.365-.04-.446-.142-.081-.081-.122-.264-.122-.507v-1.42c0-.202.04-.364.122-.445.08-.081.243-.142.446-.142h.507c.365 0 .648-.081.831-.284.162-.162.243-.588.243-1.257V8.653c0-.203.04-.345.142-.446.102-.081.284-.142.548-.142h1.865c.243 0 .426.06.527.142.101.101.162.243.162.446v8.982c0 1.46-.263 2.474-.79 3.062q-.821.912-2.86.912M66.08 7.295h-.243c-1.095 0-1.643-.548-1.643-1.683V5.51c0-1.115.548-1.683 1.643-1.683h.243c1.095 0 1.642.568 1.642 1.683v.102c0 1.135-.547 1.683-1.642 1.683m12.214 8.07h.65c.202 0 .364.06.445.141.081.101.142.284.142.548v1.257c0 .284-.06.466-.142.547-.08.101-.243.142-.446.142h-1.54c-1.015 0-1.724-.183-2.13-.588-.405-.385-.608-1.075-.608-2.048v-2.19l-.669.426c-.264.162-.446.244-.527.244-.162 0-.223-.122-.223-.365v-1.886c0-.203.02-.345.101-.446.061-.081.183-.203.385-.345l.933-.588V4.862c0-.203.04-.345.142-.447.101-.08.284-.141.547-.141h1.866c.243 0 .425.06.527.141.101.102.162.244.162.447v3.284l.912-.588c.244-.162.426-.243.528-.243.142 0 .223.121.223.365v1.885c0 .203-.04.365-.102.447a1.7 1.7 0 0 1-.385.344l-1.176.75v3.873c0 .162.02.264.081.304.04.06.142.081.304.081m8.434 1.804h-.04c-.447.69-1.339 1.014-2.657 1.014h-.304c-1.034 0-1.845-.264-2.412-.791-.588-.527-.872-1.318-.872-2.332v-.223c0-1.095.304-1.886.932-2.332s1.643-.669 3.062-.669h.142c.527 0 1.014.04 1.42.081v-.425c0-.426-.122-.73-.346-.893-.243-.142-.648-.223-1.216-.223-.69 0-1.46.122-2.352.345-.243.06-.426.06-.507 0-.101-.06-.162-.182-.182-.385l-.162-1.075c-.041-.202-.041-.344-.041-.405 0-.244.162-.426.487-.527a13 13 0 0 1 3.467-.446c1.56 0 2.676.344 3.325.993.507.527.77 1.379.77 2.535v6.021c0 .304-.121.487-.324.568-.507.203-.933.487-1.257.852-.345.364-.507.75-.507 1.135v.06q0 .549.547.548h.061c.243 0 .548-.04.872-.162.101-.02.183-.04.243-.04.102 0 .183.1.244.263l.101.426c.06.284.101.426.101.466 0 .122-.101.223-.283.304a4.5 4.5 0 0 1-1.643.305h-.121c-.69 0-1.237-.142-1.602-.447-.365-.304-.548-.73-.548-1.257v-.101c0-.487.163-.953.507-1.4.325-.445.77-.81 1.298-1.094zm-.73-2.596v-.567a6 6 0 0 0-.973-.061h-.223q-.73 0-1.034.182c-.203.122-.284.365-.284.73v.081c0 .365.081.609.284.73.182.142.466.203.852.203h.141c.406 0 .71-.101.953-.304.183-.162.284-.507.284-.994m9.91.994h.161c.548 0 1.136-.081 1.764-.264.203-.04.325-.06.386-.06.202 0 .324.121.365.344l.182 1.034c.04.284.081.467.081.548 0 .243-.182.425-.527.547-.892.325-1.865.466-2.92.466h-.243c-1.46 0-2.534-.324-3.203-1.013q-1.035-1.035-1.035-3.467v-1.176c0-.953.082-1.703.244-2.23a3.2 3.2 0 0 1 .79-1.339c.71-.71 1.825-1.074 3.346-1.074h.203c1.216 0 2.27.223 3.122.669.243.142.385.304.385.507 0 .121-.06.324-.162.608l-.385.973q-.152.365-.426.365a.8.8 0 0 1-.365-.101c-.649-.264-1.257-.406-1.804-.406h-.082c-.527 0-.912.142-1.155.385-.304.305-.446.933-.446 1.866v.689c0 .831.121 1.399.405 1.703.264.284.71.426 1.318.426m7.848-4.927h-3.224c-.203 0-.345-.02-.426-.101-.081-.082-.101-.244-.101-.487V8.653c0-.243.02-.385.101-.466q.121-.122.426-.122h6.853c.203 0 .345.04.446.122.081.08.142.243.142.466v.385a2.57 2.57 0 0 1-.446 1.44l-3.487 4.947h3.467c.203 0 .324.04.405.122.081.08.122.223.122.466v1.399q0 .365-.122.487c-.081.08-.202.101-.405.101h-6.975c-.426 0-.629-.183-.629-.588v-.466c0-.527.142-.994.447-1.44zm10.997-2.757h.163c1.176 0 2.047.283 2.575.83.486.528.75 1.42.75 2.677v6.022c0 .203-.061.365-.162.446-.102.101-.284.142-.528.142h-1.865c-.264 0-.446-.04-.547-.142-.102-.081-.142-.243-.142-.446v-5.738c0-.446-.081-.77-.223-.933-.163-.162-.467-.263-.892-.263h-.122c-.446 0-.73.101-.892.263-.162.163-.223.487-.223.933v5.738c0 .203-.061.365-.162.446-.102.101-.284.142-.528.142h-1.865c-.264 0-.446-.04-.547-.142-.102-.081-.142-.243-.142-.446v-8.78c0-.202.04-.344.142-.425s.283-.142.547-.142h.953c.243 0 .405.04.507.101q.151.092.243.365l.122.386h.061c.648-.69 1.561-1.034 2.777-1.034m8.704.77v8.759c0 .203-.061.365-.163.446-.101.101-.283.142-.527.142h-1.865c-.264 0-.446-.04-.548-.142-.101-.081-.141-.243-.141-.446V8.653c0-.203.04-.345.141-.446.102-.081.284-.142.548-.142h1.865c.244 0 .426.06.527.142.102.101.163.243.163.446m-1.501-1.358h-.243c-1.095 0-1.642-.548-1.642-1.683V5.51c0-1.115.547-1.683 1.642-1.683h.243c1.095 0 1.643.568 1.643 1.683v.102c0 1.135-.548 1.683-1.643 1.683m8.427 8.272h.223c.69 0 1.419-.081 2.149-.264.203-.04.325-.06.386-.06.202 0 .324.121.365.344l.162 1.014c.04.284.081.466.081.547 0 .244-.183.426-.527.548-.933.324-1.967.486-3.062.486h-.385q-2.495 0-3.528-1.034a2.9 2.9 0 0 1-.811-1.378c-.142-.527-.203-1.237-.203-2.109v-1.135c0-1.764.406-3.001 1.217-3.731.689-.608 1.743-.912 3.183-.912h.284c1.419 0 2.453.344 3.061 1.013.649.73.974 1.926.974 3.63v1.054c0 .385-.203.568-.588.568h-4.866v.162c0 .486.121.81.405.993.264.183.75.264 1.48.264m-1.885-3.528h2.23c.162 0 .243-.081.243-.264v-.324c0-.405-.081-.71-.203-.933-.162-.243-.486-.365-.932-.365h-.183c-.405 0-.689.102-.851.284q-.304.366-.304 1.095z"/></svg>