<svg xmlns="http://www.w3.org/2000/svg" fill="none" viewBox="0 0 140 45"><path fill="#fff" d="M8.134 10.08V9.36c0-1.572-.195-2.543-.544-2.912q-.466-.465-1.281-.465h-.272q-.815 0-1.281.465c-.369.37-.544 1.34-.544 2.912v.718c0 1.592.175 2.563.544 2.912q.466.465 1.281.466h.272q.814 0 1.281-.466c.35-.35.544-1.32.544-2.912m3.319-1.107v1.495c0 2.348-.544 3.94-1.63 4.794-.777.621-1.98.913-3.572.913h-.156c-1.61 0-2.795-.292-3.571-.913-1.088-.854-1.631-2.446-1.631-4.794V8.973c0-2.33.543-3.94 1.63-4.795.777-.602 1.961-.912 3.572-.912h.156c1.591 0 2.795.31 3.571.912 1.087.854 1.63 2.466 1.63 4.795m8.105 5.202v1.107c0 .29-.058.485-.136.582-.077.097-.252.136-.485.136h-1.553c-1.397 0-2.33-.233-2.756-.718-.388-.408-.563-1.184-.563-2.35V8.916h-1.048c-.194 0-.31-.02-.389-.097-.077-.078-.097-.194-.097-.389v-.99c0-.233.02-.388.097-.465.059-.078.194-.136.408-.195l1.029-.252V4.625c0-.194.039-.33.136-.427.097-.078.271-.136.524-.136h1.786c.233 0 .407.058.505.136.097.097.155.233.155.427v1.863h1.61c.195 0 .312.04.39.117.077.077.116.213.116.446v1.3q0 .35-.117.467c-.078.077-.194.097-.388.097H17.17v3.669c0 .349.039.563.155.679.116.136.369.194.757.194h.854c.233 0 .408.058.485.155s.136.291.136.563m6.439-7.22h1.67c.27 0 .465.038.562.116.097.077.175.233.214.465 0 .078.349 1.806 1.028 5.164h.059c.35-2.038.66-3.921.912-5.668.02-.214.078-.35.155-.427q.117-.117.408-.117h1.98c.214 0 .35.058.427.136.058.097.078.252.039.447a193 193 0 0 1-1.126 5.008c-.427 1.824-.738 2.97-.932 3.455-.077.194-.175.33-.271.388-.098.059-.253.078-.447.078H28.54c-.408 0-.66-.136-.738-.447-.369-1.32-.68-2.989-.951-5.008h-.078a53 53 0 0 1-.97 5.009c-.078.31-.311.446-.7.446h-2.096c-.388 0-.64-.136-.737-.427-.194-.524-.524-1.728-.99-3.591a90 90 0 0 1-1.087-4.911c-.059-.214-.04-.37.038-.447s.233-.136.466-.136H22.6c.194 0 .35.04.446.117.078.077.136.233.175.427.272 1.805.582 3.688.951 5.668h.078c.466-2.407.796-4.135.95-5.164.04-.252.098-.407.195-.485.097-.058.291-.097.602-.097m11.418 3.532v1.514c0 .757.117 1.242.35 1.476.174.194.446.271.815.271h.078c.349 0 .62-.077.815-.271.233-.234.35-.719.35-1.476v-1.514c0-.738-.117-1.242-.35-1.475-.194-.175-.466-.272-.816-.272h-.077c-.369 0-.64.097-.816.272-.232.233-.349.737-.349 1.475m5.532.117v1.261c0 .97-.097 1.708-.29 2.252-.195.544-.505.97-.932 1.3-.641.505-1.631.758-2.99.758h-.233c-1.359 0-2.368-.253-2.99-.757a2.78 2.78 0 0 1-.931-1.3c-.194-.545-.291-1.282-.291-2.253v-1.242c0-.951.097-1.689.291-2.232s.505-.971.932-1.32c.62-.505 1.63-.757 2.99-.757h.232c1.359 0 2.349.252 2.99.757.427.349.737.776.931 1.3.194.544.291 1.281.291 2.233m-5.92-6.678 3.047-2.601a.54.54 0 0 1 .37-.175c.135 0 .271.097.388.252l.931 1.204a.57.57 0 0 1 .117.33c0 .155-.117.31-.31.466l-3.068 2.096a.67.67 0 0 1-.388.136c-.155 0-.31-.078-.466-.272l-.582-.68c-.156-.174-.214-.33-.214-.446s.058-.232.175-.31m10.029 3.61h.058c.427-.698 1.145-1.048 2.174-1.048h.776c.194 0 .35.04.427.117s.136.213.136.427v1.417c0 .213-.039.35-.116.427q-.117.116-.408.116h-.582c-.718 0-1.204.136-1.476.408-.233.233-.33.68-.33 1.34v4.697c0 .194-.058.35-.155.427-.097.097-.272.136-.505.136H45.27c-.253 0-.428-.039-.525-.136-.097-.078-.135-.233-.135-.427V7.032c0-.194.038-.33.136-.408.096-.078.271-.136.524-.136h.931c.214 0 .37.04.466.097a.8.8 0 0 1 .233.35zm7.883 1.418h-3.086c-.194 0-.33-.02-.408-.098-.077-.077-.097-.232-.097-.465V7.05c0-.233.02-.369.097-.446q.117-.117.408-.117h6.561c.194 0 .33.04.427.117.078.077.136.233.136.446v.369c0 .505-.155.97-.427 1.378l-3.339 4.737h3.32c.194 0 .31.038.388.116s.116.214.116.447v1.34q0 .348-.116.465c-.078.078-.194.097-.388.097h-6.678c-.408 0-.602-.175-.602-.563v-.446c0-.505.136-.952.427-1.379zm12.719 3.28v3.203c0 .194-.058.35-.155.427-.097.097-.272.136-.505.136h-1.786c-.252 0-.427-.039-.524-.136-.097-.078-.136-.233-.136-.427V3.421c0-.194.039-.33.136-.427.097-.078.272-.136.524-.136h1.786c.233 0 .408.058.505.136.097.097.155.233.155.427V9.75h.136l1.844-2.814c.175-.291.447-.447.815-.447h2.252c.214 0 .33.078.33.233 0 .078-.058.214-.155.369l-2.233 3.339c-.174.272-.252.466-.252.582 0 .136.078.33.252.583l2.388 3.765c.078.156.117.253.117.33 0 .214-.136.311-.408.311h-2.155c-.272 0-.485-.02-.602-.097q-.175-.087-.349-.408l-1.844-3.26zm9.15-1.747v1.514c0 .757.116 1.242.349 1.476.175.194.446.271.815.271h.078c.35 0 .62-.077.815-.271.233-.234.35-.719.35-1.476v-1.514c0-.738-.117-1.242-.35-1.475-.194-.175-.466-.272-.815-.272h-.078c-.369 0-.64.097-.815.272-.233.233-.35.737-.35 1.475m5.532.117v1.261c0 .97-.097 1.708-.291 2.252-.195.544-.505.97-.932 1.3-.64.505-1.63.758-2.99.758h-.233c-1.358 0-2.368-.253-2.989-.757a2.8 2.8 0 0 1-.932-1.3c-.194-.545-.29-1.282-.29-2.253v-1.242c0-.951.096-1.689.29-2.232s.505-.971.932-1.32c.621-.505 1.63-.757 2.99-.757h.232c1.36 0 2.35.252 2.99.757.427.349.737.776.931 1.3.195.544.292 1.281.292 2.233m6.786-4.29h.156c1.126 0 1.96.271 2.465.795.466.505.718 1.36.718 2.563v5.765c0 .194-.058.35-.155.427-.097.097-.272.136-.505.136H90.02c-.252 0-.427-.039-.524-.136-.097-.078-.136-.233-.136-.427V9.944c0-.428-.077-.738-.213-.893-.155-.156-.447-.253-.854-.253h-.117c-.427 0-.698.097-.854.253-.155.155-.213.465-.213.893v5.493c0 .194-.059.35-.156.427-.097.097-.271.136-.504.136h-1.786c-.253 0-.427-.039-.524-.136-.097-.078-.136-.233-.136-.427V7.032c0-.194.039-.33.136-.408s.271-.136.524-.136h.912c.233 0 .388.04.486.097q.145.088.232.35l.117.369h.058c.621-.66 1.495-.99 2.66-.99m11.264 7.861v1.107c0 .29-.058.485-.136.582-.077.097-.252.136-.485.136h-1.553c-1.397 0-2.33-.233-2.756-.718-.389-.408-.563-1.184-.563-2.35V8.916h-1.049c-.194 0-.31-.02-.388-.097-.077-.078-.097-.194-.097-.389v-.99c0-.233.02-.388.097-.465.059-.078.194-.136.408-.195l1.029-.252V4.625c0-.194.038-.33.136-.427.097-.078.271-.136.524-.136h1.786c.233 0 .407.058.504.136.097.097.156.233.156.427v1.863h1.61c.195 0 .311.04.389.117s.116.213.116.446v1.3q0 .35-.116.467c-.078.077-.194.097-.388.097h-1.611v3.669c0 .349.038.563.155.679.116.136.369.194.757.194h.854c.233 0 .408.058.485.155s.136.291.136.563m4.284-3.688v1.514c0 .757.116 1.242.349 1.476.175.194.447.271.816.271h.077c.35 0 .621-.077.816-.271.232-.234.349-.719.349-1.476v-1.514c0-.738-.117-1.242-.349-1.475-.195-.175-.466-.272-.816-.272h-.077c-.369 0-.641.097-.816.272-.233.233-.349.737-.349 1.475m5.532.117v1.261c0 .97-.097 1.708-.291 2.252s-.505.97-.932 1.3c-.64.505-1.63.758-2.989.758h-.233c-1.359 0-2.368-.253-2.989-.757a2.77 2.77 0 0 1-.932-1.3c-.194-.545-.291-1.282-.291-2.253v-1.242c0-.951.097-1.689.291-2.232s.504-.971.932-1.32c.621-.505 1.63-.757 2.989-.757h.233c1.359 0 2.349.252 2.989.757.427.349.738.776.932 1.3.194.544.291 1.281.291 2.233M4.096 35.079v2.485c0 .447.078.757.272.932.155.175.446.252.873.252h.175c.446 0 .757-.116.951-.388q.233-.35.233-1.689v-.834c0-.971-.097-1.573-.252-1.767-.175-.194-.505-.31-.97-.31h-.079c-.446 0-.757.096-.95.29-.175.175-.253.525-.253 1.03m0-3.241h.039q.844-.524 2.213-.524h.174c1.165 0 2.02.349 2.543 1.048.427.602.66 1.67.66 3.203v1.397c0 1.553-.33 2.64-.99 3.242-.699.66-1.805.97-3.32.97h-.387c-1.592 0-2.68-.31-3.262-.95-.524-.563-.776-1.476-.776-2.757v-9.046c0-.194.039-.33.136-.427.078-.078.252-.136.505-.136h1.805c.233 0 .408.058.505.136.097.097.155.233.155.427zm12.911 8.366h-.039c-.427.66-1.28.97-2.543.97h-.29c-.99 0-1.767-.252-2.31-.756-.564-.505-.835-1.262-.835-2.233v-.213c0-1.049.29-1.806.893-2.233.601-.427 1.572-.64 2.93-.64h.137c.504 0 .97.039 1.358.078v-.408c0-.408-.116-.699-.33-.854-.232-.136-.62-.214-1.164-.214-.66 0-1.398.117-2.252.33-.233.058-.408.058-.485 0-.097-.058-.156-.175-.175-.369l-.155-1.029c-.04-.174-.04-.31-.04-.388 0-.233.156-.407.467-.504.99-.272 2.096-.427 3.32-.427 1.494 0 2.561.33 3.183.95.485.505.737 1.32.737 2.427v5.765c0 .195-.058.35-.155.427s-.272.117-.505.117h-.912c-.233 0-.388-.02-.485-.078s-.175-.174-.233-.368zm-.699-2.485v-.543a5.6 5.6 0 0 0-.931-.058h-.214q-.699 0-.99.174c-.194.117-.272.35-.272.7v.077c0 .35.078.582.272.699.175.136.447.194.816.194h.135c.389 0 .68-.097.913-.291.174-.156.271-.486.271-.952m10.072-6.405h.155c1.126 0 1.96.271 2.465.795.466.505.718 1.36.718 2.563v5.765c0 .194-.058.35-.155.427-.097.097-.272.136-.505.136h-1.785c-.253 0-.428-.039-.525-.136-.097-.078-.136-.233-.136-.427v-5.493c0-.428-.077-.738-.213-.893-.155-.156-.447-.253-.854-.253h-.117c-.427 0-.698.097-.854.253-.155.155-.213.465-.213.892v5.494c0 .194-.059.35-.156.427-.097.097-.271.136-.504.136h-1.786c-.252 0-.427-.039-.524-.136-.097-.078-.136-.233-.136-.427v-8.405c0-.194.039-.33.136-.408s.272-.136.524-.136h.912c.233 0 .388.04.485.097q.146.087.233.35l.117.369h.058c.621-.66 1.495-.99 2.66-.99m8.293 5.92v3.203c0 .194-.058.35-.155.427-.097.097-.272.136-.505.136h-1.786c-.252 0-.427-.039-.524-.136-.097-.078-.136-.233-.136-.427V28.421c0-.194.04-.33.136-.427.097-.078.272-.136.524-.136h1.786c.233 0 .408.058.505.136.097.097.155.233.155.427v6.328h.136l1.844-2.814c.175-.291.447-.447.816-.447h2.251c.214 0 .33.078.33.233 0 .078-.058.214-.155.369l-2.232 3.339c-.175.272-.253.466-.253.582 0 .136.078.33.253.582l2.387 3.766c.078.156.117.253.117.33 0 .214-.136.311-.408.311h-2.155c-.271 0-.485-.02-.601-.097q-.175-.087-.35-.408l-1.844-3.26zm9.15-1.747v1.514c0 .757.116 1.242.349 1.476.175.194.446.271.815.271h.078c.35 0 .621-.077.815-.271.233-.233.35-.719.35-1.476v-1.514c0-.738-.117-1.242-.35-1.475-.194-.175-.466-.272-.815-.272h-.078c-.369 0-.64.097-.815.272-.233.233-.35.737-.35 1.475m5.532.116v1.262c0 .97-.097 1.709-.291 2.252-.194.544-.505.97-.932 1.3-.64.505-1.63.758-2.99.758h-.232c-1.36 0-2.369-.253-2.99-.757a2.78 2.78 0 0 1-.932-1.3c-.194-.544-.29-1.282-.29-2.253v-1.242c0-.951.096-1.689.29-2.232s.505-.971.932-1.32c.621-.505 1.63-.757 2.99-.757h.233c1.358 0 2.348.252 2.989.757.427.349.738.776.932 1.3.194.544.29 1.281.29 2.232m6.631-3.649h1.67c.272 0 .466.039.563.117.097.077.175.233.213.465 0 .078.35 1.806 1.03 5.164h.057c.35-2.038.66-3.921.913-5.668.02-.214.077-.35.155-.427q.116-.117.408-.117h1.98c.213 0 .35.059.427.136.058.097.077.253.038.447-.31 1.514-.698 3.183-1.125 5.008s-.738 2.97-.932 3.455c-.078.194-.175.33-.272.388-.097.059-.252.078-.446.078h-2.136c-.407 0-.66-.136-.737-.447-.37-1.32-.68-2.989-.952-5.008h-.077a53 53 0 0 1-.97 5.008c-.078.311-.311.447-.7.447h-2.096c-.388 0-.64-.136-.738-.427-.194-.524-.524-1.728-.99-3.591a90 90 0 0 1-1.087-4.911c-.058-.214-.038-.37.04-.447.077-.077.232-.136.465-.136h1.902c.194 0 .35.04.447.117.078.077.136.233.175.427.271 1.805.582 3.688.95 5.668h.078c.466-2.407.796-4.135.952-5.164.038-.252.097-.407.194-.485.097-.058.29-.097.601-.097m13.224 6.717h.214c.66 0 1.358-.078 2.057-.253.194-.039.31-.058.37-.058.193 0 .31.117.349.33l.155.97c.039.272.077.447.077.525 0 .233-.174.407-.504.524-.893.31-1.883.466-2.931.466h-.37q-2.387 0-3.377-.99a2.8 2.8 0 0 1-.776-1.32c-.136-.505-.195-1.184-.195-2.02V35.76c0-1.689.389-2.873 1.165-3.572.66-.582 1.67-.873 3.048-.873h.272c1.358 0 2.348.33 2.93.97.622.699.932 1.844.932 3.475v1.01c0 .368-.194.543-.562.543h-4.66v.155c0 .466.117.776.389.951.252.175.718.253 1.417.253m-1.805-3.378h2.135c.155 0 .233-.078.233-.252v-.311c0-.388-.078-.68-.194-.893-.155-.233-.466-.35-.893-.35h-.175c-.388 0-.66.098-.815.272q-.291.35-.291 1.049zm14.245-1.34h-3.087c-.194 0-.33-.019-.408-.097-.077-.077-.097-.233-.097-.465v-1.34c0-.233.02-.369.097-.446q.117-.117.408-.117h6.561c.194 0 .33.04.427.117.078.077.136.233.136.446v.369c0 .505-.155.97-.427 1.378l-3.339 4.737h3.32c.194 0 .31.039.388.116s.116.214.116.447v1.34q0 .348-.116.465c-.078.078-.194.097-.388.097h-6.678c-.408 0-.602-.175-.602-.563v-.446c0-.505.136-.952.427-1.379zm11.014 6.251h-.039c-.427.66-1.281.97-2.543.97h-.291c-.99 0-1.766-.252-2.31-.756-.563-.505-.835-1.262-.835-2.233v-.213c0-1.049.291-1.806.893-2.233s1.573-.64 2.931-.64h.136c.505 0 .97.039 1.36.078v-.408c0-.408-.117-.699-.33-.854-.234-.136-.622-.214-1.166-.214-.66 0-1.397.117-2.251.33-.233.058-.408.058-.486 0-.097-.058-.155-.175-.174-.369l-.156-1.029c-.038-.174-.038-.31-.038-.388 0-.233.155-.407.465-.504.99-.272 2.097-.427 3.32-.427 1.494 0 2.562.33 3.183.95.486.505.738 1.32.738 2.427v5.765c0 .195-.058.35-.155.427s-.272.117-.505.117h-.912c-.233 0-.389-.02-.486-.078s-.174-.174-.233-.368zm-.699-2.485v-.543a5.6 5.6 0 0 0-.932-.058h-.213q-.699 0-.99.174c-.194.117-.272.35-.272.7v.077c0 .35.078.582.272.699.174.136.446.194.815.194h.136c.388 0 .68-.097.912-.291.175-.156.272-.486.272-.952m22.001-6.002v2.2c0 2.378-.506 4.2-1.493 5.439-1.011 1.265-2.681 1.872-5.008 1.872s-3.996-.607-5.008-1.872c-1.012-1.24-1.492-3.06-1.492-5.438v-2.2c0-2.379.48-4.174 1.492-5.44 1.012-1.239 2.681-1.87 5.008-1.87s3.997.631 5.008 1.87c.987 1.266 1.493 3.061 1.493 5.44m-4.326 1.77v-1.34c0-1.644-.151-2.782-.404-3.39-.253-.606-.835-.935-1.72-.935h-.101c-.911.025-1.493.329-1.746.936s-.379 1.745-.379 3.39v1.34c0 1.67.126 2.782.379 3.39.253.606.835.935 1.746.935h.101c.885 0 1.467-.304 1.72-.91.253-.608.404-1.746.404-3.415m16.059-1.669h-4.022c-.253 0-.43-.025-.531-.126s-.126-.304-.126-.607v-1.746c0-.303.025-.48.126-.581q.151-.152.531-.152h8.55c.253 0 .43.05.556.152.101.1.177.303.177.581v.481c0 .658-.202 1.265-.556 1.796l-4.351 6.172h4.325c.253 0 .405.05.506.151.101.102.152.279.152.582v1.745q0 .455-.152.608c-.101.1-.253.126-.506.126h-8.701c-.531 0-.784-.228-.784-.733v-.582c0-.658.177-1.24.557-1.796zm12.303 5.894h.81c.253 0 .455.076.556.177.101.126.177.354.177.683v1.568c0 .354-.076.582-.177.683-.101.126-.303.177-.556.177h-1.923c-1.264 0-2.15-.228-2.656-.733-.505-.481-.758-1.341-.758-2.555V34.98l-.835.531c-.329.203-.557.304-.658.304-.202 0-.278-.152-.278-.456v-2.352c0-.253.025-.43.126-.556.076-.102.228-.253.481-.43l1.164-.734V24.61c0-.253.05-.43.177-.556.126-.101.354-.177.683-.177h2.327c.303 0 .531.076.657.177.127.126.203.303.203.556v4.098l1.138-.733c.303-.203.531-.304.658-.304.177 0 .278.152.278.455v2.353c0 .253-.051.455-.127.556a2.1 2.1 0 0 1-.48.43l-1.467.936v4.831c0 .203.025.329.101.38.05.076.177.1.379.1"/></svg>