<svg xmlns="http://www.w3.org/2000/svg" fill="none" viewBox="0 0 117 23"><path fill="#fff" d="M4.096 12.08v2.484c0 .447.078.757.272.932.155.175.446.252.873.252h.175c.446 0 .757-.116.951-.388q.233-.35.233-1.689v-.835c0-.97-.097-1.572-.252-1.766-.175-.194-.505-.31-.97-.31h-.079c-.446 0-.757.097-.95.29-.175.175-.253.525-.253 1.03m0-3.242h.039q.844-.524 2.213-.524h.174c1.165 0 2.02.349 2.543 1.048.427.602.66 1.67.66 3.203v1.397c0 1.553-.33 2.64-.99 3.242-.699.66-1.805.97-3.32.97h-.387c-1.592 0-2.68-.31-3.262-.95-.524-.563-.776-1.476-.776-2.757V5.421c0-.194.039-.33.136-.427.078-.078.252-.136.505-.136h1.805c.233 0 .408.058.505.136.097.097.155.233.155.427zm11.921 6.833h.214c.66 0 1.359-.078 2.057-.253a2.5 2.5 0 0 1 .37-.058c.193 0 .31.117.349.33l.155.97c.039.272.078.447.078.525 0 .233-.175.407-.505.524-.893.31-1.883.466-2.931.466h-.37q-2.386 0-3.377-.99a2.8 2.8 0 0 1-.776-1.32c-.136-.505-.194-1.184-.194-2.02V12.76c0-1.689.388-2.873 1.164-3.572.66-.582 1.67-.873 3.048-.873h.272c1.359 0 2.349.33 2.931.97.621.699.932 1.844.932 3.475v1.01c0 .368-.194.543-.563.543h-4.659v.155c0 .466.117.776.388.951.253.175.719.253 1.417.253m-1.805-3.378h2.135c.156 0 .233-.078.233-.252v-.311c0-.388-.077-.68-.194-.893-.155-.233-.466-.35-.893-.35h-.175c-.388 0-.66.098-.815.272q-.291.35-.291 1.049zm10.036-1.34h-3.086c-.194 0-.33-.019-.408-.096-.077-.078-.097-.233-.097-.466V9.05c0-.233.02-.369.097-.446q.117-.117.408-.117h6.561c.194 0 .33.04.427.117.078.077.136.233.136.446v.369c0 .505-.155.97-.427 1.378l-3.339 4.737h3.32c.194 0 .31.038.388.116.077.078.116.214.116.447v1.34q0 .348-.116.465c-.078.078-.194.097-.389.097h-6.677c-.408 0-.602-.175-.602-.563v-.446c0-.505.136-.952.427-1.379zm14.583-1.999H40.5c.272 0 .466.039.563.117.097.077.175.233.213.465 0 .078.35 1.806 1.03 5.164h.057c.35-2.038.66-3.921.913-5.668.02-.214.077-.35.155-.427q.117-.117.408-.117h1.98c.213 0 .35.058.427.136.058.097.077.252.039.447-.311 1.514-.7 3.183-1.126 5.008-.427 1.824-.738 2.97-.932 3.455-.078.194-.175.33-.272.388-.097.059-.252.078-.446.078h-2.136c-.407 0-.66-.136-.737-.447-.369-1.32-.68-2.989-.951-5.008h-.078a53 53 0 0 1-.97 5.009c-.078.31-.311.446-.7.446h-2.096c-.388 0-.64-.136-.738-.427-.194-.524-.524-1.728-.99-3.591a90 90 0 0 1-1.087-4.911c-.058-.214-.038-.37.04-.447.077-.078.232-.136.465-.136h1.902c.195 0 .35.04.447.117.078.077.136.233.175.427.271 1.805.582 3.688.95 5.668h.078c.466-2.407.796-4.135.952-5.164.038-.252.097-.407.194-.485.097-.058.29-.097.602-.097m14.061 8.25h-.038c-.427.66-1.282.97-2.543.97h-.291c-.99 0-1.767-.252-2.31-.756-.563-.505-.835-1.262-.835-2.233v-.213c0-1.048.291-1.806.893-2.233s1.572-.64 2.931-.64h.136c.505 0 .97.039 1.359.078v-.408c0-.408-.117-.699-.33-.854-.233-.136-.621-.214-1.165-.214-.66 0-1.398.117-2.252.33-.233.058-.407.058-.485 0-.097-.058-.155-.175-.175-.369l-.155-1.028c-.039-.175-.039-.311-.039-.389 0-.233.155-.407.466-.504.99-.272 2.097-.427 3.32-.427 1.494 0 2.562.33 3.183.95.485.505.738 1.32.738 2.427v5.765c0 .195-.059.35-.156.428-.097.077-.271.116-.504.116h-.913c-.233 0-.388-.02-.485-.078s-.175-.174-.233-.369zm-.698-2.485v-.543a5.6 5.6 0 0 0-.932-.058h-.214q-.698 0-.99.174c-.194.117-.271.35-.271.7v.077c0 .35.077.582.271.699.175.135.447.194.816.194h.136c.388 0 .679-.097.912-.291.175-.156.272-.486.272-.952m7.392-5.183h.058c.427-.698 1.145-1.048 2.174-1.048h.777c.194 0 .35.04.427.117s.136.213.136.427v1.417c0 .213-.04.35-.117.427q-.116.116-.407.116h-.583c-.718 0-1.203.136-1.475.408-.233.233-.33.68-.33 1.34v4.697c0 .194-.058.35-.155.427-.097.097-.272.136-.505.136H57.8c-.252 0-.427-.039-.524-.136-.097-.078-.136-.233-.136-.427V9.032c0-.194.039-.33.136-.408s.272-.136.524-.136h.932c.213 0 .369.04.466.097a.8.8 0 0 1 .233.35zm9.825 4.99V9.05c0-.194.039-.33.136-.427.097-.078.272-.136.524-.136h1.786c.233 0 .407.058.505.136.097.097.155.233.155.427v5.746q0 1.776-.874 2.562c-.62.544-1.708.816-3.3.816s-2.698-.272-3.3-.816q-.873-.786-.873-2.562V9.051c0-.194.039-.33.136-.427.097-.078.272-.136.524-.136h1.786c.233 0 .407.058.504.136.097.097.156.233.156.427v5.474c0 .447.058.738.213.893.155.175.427.253.854.253.408 0 .7-.078.855-.253.135-.155.213-.446.213-.893m10.067-6.212h.155c1.126 0 1.96.271 2.465.795.466.505.718 1.36.718 2.563v5.765c0 .194-.058.35-.155.427-.097.097-.272.136-.505.136h-1.785c-.253 0-.428-.039-.525-.136-.097-.078-.136-.233-.136-.427v-5.494c0-.426-.077-.737-.213-.892-.155-.156-.447-.253-.854-.253h-.117c-.427 0-.698.097-.854.253-.155.155-.213.466-.213.893v5.493c0 .194-.059.35-.156.427-.097.097-.271.136-.504.136h-1.786c-.253 0-.427-.039-.524-.136-.097-.078-.136-.233-.136-.427V9.032c0-.194.039-.33.136-.408s.271-.136.524-.136h.912c.233 0 .388.04.486.097q.145.088.232.35l.117.369h.058c.621-.66 1.495-.99 2.66-.99m8.293 5.92v3.203c0 .194-.058.35-.155.427-.097.097-.272.136-.505.136h-1.786c-.252 0-.427-.039-.524-.136-.097-.078-.136-.233-.136-.427V5.421c0-.194.04-.33.136-.427.097-.078.272-.136.524-.136h1.786c.233 0 .408.058.505.136.097.097.155.233.155.427v6.328h.136l1.844-2.814c.175-.291.447-.447.816-.447h2.251c.214 0 .33.078.33.233 0 .078-.058.214-.155.369l-2.232 3.339c-.175.272-.253.466-.253.582 0 .136.078.33.253.583l2.387 3.765c.078.156.117.253.117.33 0 .214-.136.311-.408.311h-2.155c-.271 0-.485-.02-.601-.097q-.175-.087-.35-.408l-1.844-3.26zm9.15-1.747v1.514c0 .757.116 1.242.349 1.476.175.194.446.271.815.271h.078c.35 0 .621-.077.815-.271.233-.234.35-.719.35-1.476v-1.514c0-.738-.117-1.242-.35-1.475-.194-.175-.466-.272-.815-.272h-.078c-.369 0-.64.097-.815.272-.233.233-.35.737-.35 1.475m5.532.117v1.261c0 .97-.097 1.708-.291 2.252s-.505.97-.932 1.3c-.641.505-1.63.758-2.99.758h-.232c-1.36 0-2.369-.253-2.99-.757a2.78 2.78 0 0 1-.932-1.3c-.194-.544-.29-1.282-.29-2.253v-1.242c0-.951.096-1.689.29-2.232.195-.544.505-.971.932-1.32.621-.505 1.63-.757 2.99-.757h.233c1.358 0 2.348.252 2.989.757.427.349.738.776.932 1.3.194.544.291 1.281.291 2.233m-5.92-6.678 3.047-2.601a.54.54 0 0 1 .369-.175c.136 0 .272.097.388.252l.932 1.204a.57.57 0 0 1 .116.33c0 .155-.116.31-.31.466l-3.067 2.096a.67.67 0 0 1-.389.136c-.155 0-.31-.078-.466-.272l-.582-.68c-.155-.174-.213-.33-.213-.446s.058-.232.174-.31m12.551 3.028h1.67c.272 0 .466.039.563.117.097.077.174.233.213.465 0 .078.35 1.806 1.029 5.164h.058c.35-2.038.66-3.921.913-5.668.019-.214.077-.35.155-.427q.117-.117.408-.117h1.98c.213 0 .349.058.427.136.058.097.077.252.039.447a195 195 0 0 1-1.126 5.008c-.427 1.824-.738 2.97-.932 3.455-.078.194-.175.33-.272.388-.097.059-.252.078-.446.078h-2.136c-.407 0-.66-.136-.737-.447-.369-1.32-.68-2.989-.951-5.008h-.078a53 53 0 0 1-.971 5.009c-.077.31-.31.446-.699.446h-2.096c-.388 0-.641-.136-.738-.427-.194-.524-.524-1.728-.99-3.591a90 90 0 0 1-1.087-4.911c-.058-.214-.039-.37.039-.447s.233-.136.466-.136h1.902c.194 0 .35.04.447.117.077.077.136.233.175.427.271 1.805.582 3.688.951 5.668h.077c.466-2.407.796-4.135.952-5.164.038-.252.097-.407.194-.485.097-.058.291-.097.601-.097"/></svg>