<svg xmlns="http://www.w3.org/2000/svg" fill="none" viewBox="0 0 145 55"><path fill="#fff" d="M7.292 15.648h.211c.846 0 1.559-.159 2.167-.476v-.37c0-1.453-.159-2.43-.45-2.932-.29-.502-.819-.767-1.611-.767H7.37q-1.98 0-1.981 2.14v.238c0 .793.132 1.348.449 1.665.317.343.792.502 1.453.502M2.51 24.472c-.317-.106-.45-.291-.45-.608q0-.159.08-.476l.423-1.69c.105-.423.422-.582.898-.45 1.268.397 2.378.582 3.329.582h.08c.95 0 1.61-.238 2.033-.766q.634-.754.714-2.378c-.872.37-1.823.528-2.854.528h-.29c-1.876 0-3.223-.449-4.069-1.4-.845-.925-1.242-2.351-1.242-4.254v-.37c0-1.69.502-3.038 1.533-4.042 1.03-.977 2.536-1.48 4.518-1.48h.37c2.377 0 4.068.635 5.02 1.85.95 1.215 1.452 3.223 1.452 6.024v.634c0 1.506-.132 2.8-.396 3.91s-.608 2.008-1.03 2.642a4.8 4.8 0 0 1-1.612 1.559c-.634.396-1.268.66-1.902.766-.634.132-1.374.185-2.193.185h-.027c-1.532 0-3.011-.238-4.385-.766m31.304-7.715v7.477c0 .264-.08.475-.212.581-.132.132-.37.185-.687.185h-2.43c-.344 0-.581-.053-.713-.185-.133-.106-.185-.317-.185-.581v-7.477c0-.581-.106-1.004-.291-1.215-.211-.211-.608-.344-1.162-.344h-.053c-.582 0-.951.133-1.163.344-.211.211-.29.634-.29 1.215v7.477c0 .264-.08.475-.212.581-.132.132-.37.185-.687.185H23.3c-.344 0-.581-.053-.714-.185-.132-.106-.185-.317-.185-.581v-11.44c0-.264.053-.449.185-.555.133-.105.37-.185.714-.185h1.241c.317 0 .529.053.66.133q.2.118.318.475l.158.502h.08c.845-.898 2.034-1.347 3.62-1.347h.105c1.506 0 2.668.422 3.487 1.215.846-.793 2.06-1.215 3.593-1.215h.106c1.532 0 2.668.37 3.355 1.083.634.687.978 1.85.978 3.487v7.847c0 .264-.08.475-.212.581-.132.132-.37.185-.686.185H37.67c-.344 0-.581-.053-.713-.185-.133-.106-.185-.317-.185-.581v-7.477c0-.581-.106-1.004-.291-1.215-.211-.211-.608-.344-1.162-.344h-.053c-.582 0-.951.133-1.163.344-.211.211-.29.634-.29 1.215m13.971-3.936v11.413c0 .264-.08.475-.211.581-.132.132-.37.185-.687.185h-2.43c-.344 0-.582-.053-.714-.185-.132-.106-.185-.317-.185-.581V12.82c0-.265.053-.45.185-.582.132-.105.37-.185.713-.185h2.43c.318 0 .556.08.688.185.132.132.211.317.211.582m-1.955-1.77h-.317c-1.427 0-2.14-.714-2.14-2.193v-.132c0-1.453.713-2.193 2.14-2.193h.317c1.427 0 2.14.74 2.14 2.193v.132c0 1.48-.713 2.192-2.14 2.192M56.81 21.83h.291c.898 0 1.85-.106 2.8-.344.265-.053.423-.08.503-.08.264 0 .422.16.475.45l.212 1.321c.052.37.105.608.105.713 0 .317-.238.555-.687.714-1.215.422-2.562.634-3.989.634h-.502q-3.25 0-4.597-1.348a3.8 3.8 0 0 1-1.057-1.796c-.185-.687-.264-1.612-.264-2.748v-1.48c0-2.298.528-3.91 1.585-4.86.898-.793 2.272-1.19 4.148-1.19h.37c1.85 0 3.197.45 3.99 1.322.845.95 1.267 2.51 1.267 4.729v1.374c0 .502-.264.74-.766.74h-6.34v.21c0 .635.158 1.057.528 1.295.343.238.977.344 1.929.344m-2.456-4.597h2.906c.211 0 .317-.106.317-.344v-.422c0-.529-.106-.925-.264-1.216-.212-.317-.635-.475-1.216-.475h-.238c-.528 0-.898.132-1.11.37q-.395.475-.395 1.426zm9.01-.925v-.344c0-1.294.343-2.271 1.03-2.958.792-.793 2.14-1.19 4.015-1.19h.264c1.48 0 2.775.16 3.858.476q.316.12.396.238c.053.106.08.238.053.45l-.29 2.165c-.053.344-.291.45-.714.344-1.057-.238-2.008-.37-2.8-.37h-.027c-.581 0-1.004.053-1.215.159-.238.105-.344.29-.344.554v.08c0 .264.08.449.291.554s.608.238 1.215.344l1.242.264c1.136.264 1.955.66 2.43 1.189.476.528.714 1.347.714 2.43v.397c0 2.774-1.744 4.148-5.178 4.148h-.264c-1.744 0-3.197-.238-4.413-.714-.237-.079-.396-.184-.449-.317-.053-.105-.053-.317 0-.607l.37-1.744c.08-.502.37-.66.898-.502 1.216.423 2.273.608 3.17.608h.08c.581 0 .978-.053 1.215-.185.212-.106.344-.317.344-.608v-.08a.57.57 0 0 0-.29-.501q-.318-.159-1.269-.396l-1.162-.265q-1.745-.396-2.457-1.188c-.476-.529-.714-1.321-.714-2.431m16.594-3.487v11.413c0 .264-.08.475-.211.581-.132.132-.37.185-.687.185h-2.43c-.344 0-.582-.053-.714-.185-.132-.106-.185-.317-.185-.581V12.82c0-.265.053-.45.185-.582.132-.105.37-.185.713-.185h2.43c.318 0 .556.08.688.185.132.132.211.317.211.582m-1.955-1.77h-.317c-1.427 0-2.14-.714-2.14-2.193v-.132c0-1.453.713-2.193 2.14-2.193h.317c1.427 0 2.14.74 2.14 2.193v.132c0 1.48-.713 2.192-2.14 2.192m10.98 10.779h.291c.898 0 1.85-.106 2.8-.344.265-.053.423-.08.503-.08.264 0 .422.16.475.45l.211 1.321c.053.37.106.608.106.713 0 .317-.238.555-.687.714a3.83 3.83 0 0 0-1.69 1.268c-.45.581-.661 1.162-.661 1.69v.08c0 .502.238.74.713.74h.132c.291 0 .66-.053 1.084-.212.132-.026.237-.053.317-.053.132 0 .237.133.317.344l.132.555c.079.37.132.555.132.607 0 .159-.132.291-.37.397a5.9 5.9 0 0 1-2.14.396h-.159c-.924 0-1.611-.185-2.087-.581-.475-.396-.713-.951-.713-1.691v-.08c0-.475.159-1.003.502-1.532.343-.528.793-.95 1.374-1.32-.212.026-.502.026-.872.026h-.502q-3.25 0-4.597-1.348a3.8 3.8 0 0 1-1.057-1.796c-.185-.687-.264-1.612-.264-2.748v-1.48c0-2.298.528-3.91 1.585-4.86.898-.793 2.272-1.19 4.148-1.19h.37c1.85 0 3.197.45 3.99 1.322.845.95 1.267 2.51 1.267 4.729v1.374c0 .502-.264.74-.766.74h-6.34v.21c0 .635.158 1.057.528 1.295.343.238.977.344 1.928.344m-2.457-4.597h2.907c.211 0 .317-.106.317-.344v-.422c0-.529-.106-.925-.264-1.216-.212-.317-.635-.475-1.216-.475h-.238c-.528 0-.898.132-1.11.37q-.395.475-.395 1.426zm15.43 4.597h.211c.714 0 1.48-.106 2.299-.344.264-.053.423-.08.502-.08.264 0 .423.16.475.45l.238 1.347c.053.37.106.608.106.714 0 .317-.238.555-.687.713-1.162.423-2.431.608-3.804.608h-.317c-1.903 0-3.303-.423-4.175-1.321q-1.347-1.348-1.347-4.518v-1.532c0-1.242.106-2.22.317-2.906a4.14 4.14 0 0 1 1.03-1.744c.925-.925 2.378-1.4 4.36-1.4h.264c1.585 0 2.959.29 4.068.871.317.185.502.397.502.661 0 .159-.079.423-.211.793l-.502 1.268q-.198.475-.555.475c-.106 0-.264-.026-.475-.132-.846-.343-1.638-.528-2.352-.528h-.105c-.687 0-1.189.185-1.506.502-.397.396-.582 1.215-.582 2.43v.899c0 1.083.159 1.823.529 2.219.343.37.925.555 1.717.555m17.587-8.983c-.37 2.484-1.057 5.231-2.061 8.27a56 56 0 0 1-3.725 8.612c-.185.37-.423.555-.74.555-.211 0-.449-.053-.766-.211l-1.347-.582c-.476-.211-.687-.422-.687-.66a.9.9 0 0 1 .132-.45c.898-1.822 1.427-2.879 1.532-3.17-.739-.264-1.294-.845-1.717-1.796-.475-1.057-1.03-2.668-1.638-4.888q-.912-3.329-1.347-5.706c-.053-.265-.027-.45.105-.582.132-.105.37-.185.687-.185h2.404c.291 0 .502.053.635.133.132.079.237.237.29.502.608 3.328 1.295 6.287 2.061 8.85h.132c.74-2.114 1.427-5.02 2.061-8.771q.039-.397.237-.555c.133-.106.344-.159.608-.159h2.431c.29 0 .502.08.607.185.106.106.132.317.106.608M5.413 49.182H5.17c-1.419 0-2.656-.182-3.71-.567-.446-.142-.649-.406-.568-.811l.264-1.643c.04-.405.284-.547.71-.405 1.175.426 2.27.629 3.243.629h.102c.608 0 1.054-.082 1.318-.264.243-.162.385-.466.385-.892v-.203c0-.406-.122-.67-.324-.831-.224-.142-.65-.284-1.278-.406l-1.379-.263c-1.135-.203-1.946-.609-2.392-1.176-.466-.568-.69-1.359-.69-2.393v-.568c0-1.135.305-1.986.913-2.595.73-.73 2.088-1.095 4.035-1.095h.142c1.358 0 2.514.183 3.447.528.202.08.344.202.405.324.04.142.04.345-.02.588l-.345 1.48c-.081.365-.345.487-.75.345q-1.4-.426-2.676-.426H5.92c-.669 0-1.135.081-1.378.223-.264.162-.386.426-.386.79v.183c0 .325.082.568.264.69.162.141.527.263 1.054.364l1.541.305c1.217.243 2.048.628 2.514 1.115.447.486.69 1.338.69 2.534v.487c0 1.379-.385 2.372-1.136 3-.75.65-1.966.953-3.67.953m9.104-9.245c.71-.69 1.724-1.054 3.021-1.054h.183c1.257 0 2.149.364 2.696 1.054.487.649.73 1.744.73 3.325v1.52c0 .852-.081 1.562-.203 2.09-.142.526-.385.972-.73 1.317-.689.67-1.622.993-2.838.993h-.223q-1.156 0-1.886-.425v3.122c0 .304-.06.507-.162.588-.122.081-.345.122-.69.122h-1.54c-.345 0-.568-.04-.69-.142-.121-.081-.162-.284-.162-.568V39.714c0-.243.04-.406.162-.507.102-.081.284-.142.548-.142h.851c.244 0 .426.04.527.081.082.061.163.183.224.345l.141.446zm.75 2.879v2.595c0 .467.081.791.284.974.183.182.487.263.912.263h.183c.466 0 .79-.122.994-.406q.243-.364.243-1.763v-.872c0-.974-.081-1.582-.243-1.805-.203-.243-.528-.365-1.014-.365h-.142c-.446 0-.75.102-.953.304-.183.183-.264.548-.264 1.075m10.566.426v1.581c0 .791.122 1.298.365 1.541.183.203.467.284.852.284h.081c.365 0 .649-.081.852-.284.243-.243.365-.75.365-1.54v-1.582c0-.77-.122-1.298-.365-1.541-.203-.183-.487-.284-.852-.284h-.081c-.385 0-.67.101-.852.284-.243.243-.365.77-.365 1.54m5.779.121v1.318c0 1.014-.101 1.785-.304 2.352a2.9 2.9 0 0 1-.973 1.359c-.67.527-1.704.79-3.123.79h-.243c-1.42 0-2.474-.263-3.123-.79a2.9 2.9 0 0 1-.973-1.359c-.203-.567-.304-1.338-.304-2.352v-1.297c0-.994.102-1.764.304-2.332a3.07 3.07 0 0 1 .973-1.379c.65-.527 1.704-.79 3.123-.79h.243c1.42 0 2.454.263 3.123.79.446.365.77.811.973 1.359.203.568.304 1.338.304 2.331m8.082 3.731v1.156c0 .304-.06.507-.142.608-.08.101-.263.142-.507.142h-1.622c-1.46 0-2.433-.243-2.879-.75-.405-.426-.588-1.237-.588-2.453V41.6h-1.095c-.202 0-.324-.02-.405-.102s-.102-.203-.102-.405v-1.035c0-.243.02-.405.102-.486.06-.081.203-.142.426-.203l1.074-.263v-1.987c0-.203.04-.345.142-.447.102-.08.284-.141.548-.141h1.865c.243 0 .426.06.527.142.102.1.162.243.162.446v1.946h1.683c.203 0 .325.04.406.122.08.08.121.223.121.466v1.358q0 .366-.121.487c-.081.081-.203.102-.406.102H37.2v3.831c0 .366.04.589.162.71.122.142.386.203.791.203h.892c.244 0 .426.06.507.162s.142.304.142.588m4.82-7.441v8.759c0 .203-.062.365-.163.446-.102.101-.284.142-.527.142h-1.866c-.263 0-.446-.04-.547-.142-.101-.081-.142-.243-.142-.446v-8.759c0-.203.04-.345.142-.446.101-.081.284-.142.547-.142h1.866c.243 0 .425.06.527.142.101.101.162.243.162.446m-1.501-1.358h-.244c-1.094 0-1.642-.548-1.642-1.683v-.102c0-1.115.547-1.682 1.642-1.682h.244c1.095 0 1.642.567 1.642 1.682v.102c0 1.135-.547 1.683-1.642 1.683m4.21 3.304h-1.096c-.202 0-.344-.02-.405-.08-.081-.061-.101-.203-.101-.426v-.994c0-.243.02-.426.08-.507.062-.08.203-.162.447-.223l1.074-.263v-.872c0-1.136.264-1.947.811-2.413q.852-.73 2.677-.73h.203c.81 0 1.5.081 2.108.223.203.06.345.142.406.243.04.102.06.264.04.487l-.121 1.277c-.041.203-.081.325-.142.365-.081.04-.223.061-.446.04-.528-.04-.893-.08-1.136-.08h-.121c-.447 0-.71.06-.832.182-.142.142-.202.386-.202.71v.527h1.682c.203 0 .325.04.406.122.08.08.121.223.121.466v1.358q0 .366-.121.487c-.081.081-.203.102-.406.102h-1.682v6.812c0 .203-.061.365-.163.446-.101.101-.284.142-.527.142h-1.865c-.264 0-.446-.04-.548-.142-.101-.081-.142-.243-.142-.446zm15.571-1.926c-.283 1.906-.81 4.015-1.581 6.346a43 43 0 0 1-2.859 6.61c-.142.284-.324.426-.568.426-.162 0-.344-.04-.588-.162l-1.034-.446c-.365-.162-.527-.325-.527-.507a.7.7 0 0 1 .102-.345c.689-1.399 1.094-2.21 1.175-2.433-.567-.203-.993-.649-1.317-1.379-.365-.81-.791-2.047-1.257-3.75q-.7-2.555-1.035-4.38c-.04-.203-.02-.345.082-.446.101-.081.283-.142.527-.142h1.845c.223 0 .385.04.486.101.102.061.183.183.224.386.466 2.554.993 4.825 1.581 6.792h.101c.568-1.622 1.095-3.852 1.582-6.732q.03-.303.182-.425c.102-.081.264-.122.467-.122h1.865c.223 0 .385.06.466.142s.102.243.081.466m10.568-1.236H73.1c-.284 0-.568.02-.892.04-.122.02-.163.101-.163.243v3.204H73.1c.73 0 1.216-.102 1.5-.345.243-.203.365-.588.365-1.196v-.507c0-.487-.122-.851-.345-1.075-.243-.243-.669-.364-1.257-.364m-1.318 6.265v3.67c0 .425-.243.628-.71.628h-1.986c-.264 0-.446-.04-.548-.142-.121-.081-.162-.243-.162-.486V36.713q0-.486.183-.669c.121-.122.344-.203.71-.243.73-.061 1.865-.102 3.426-.102h.243c2.068 0 3.487.406 4.278 1.197.609.648.913 1.622.913 2.94v.689c0 1.52-.426 2.595-1.278 3.203-.892.65-2.25.974-4.095.974zm10.39-4.542h.06c.446-.73 1.196-1.095 2.27-1.095h.812c.203 0 .365.04.446.122.081.08.142.223.142.446v1.48c0 .223-.04.365-.122.446q-.121.122-.425.122h-.609c-.75 0-1.257.142-1.54.425-.244.244-.345.71-.345 1.4v4.906c0 .203-.061.365-.163.446-.101.101-.283.142-.527.142h-1.865c-.264 0-.446-.04-.548-.142-.1-.081-.141-.243-.141-.446v-8.78c0-.202.04-.344.141-.425.102-.081.284-.142.548-.142h.973c.223 0 .385.04.487.101a.8.8 0 0 1 .243.365zm9.675 6.407h.223c.69 0 1.42-.081 2.15-.264.202-.04.324-.06.385-.06.203 0 .324.121.365.344l.162 1.014c.04.284.081.466.081.547 0 .244-.182.426-.527.548-.933.324-1.967.486-3.062.486h-.385q-2.495 0-3.528-1.034a2.9 2.9 0 0 1-.81-1.378c-.143-.528-.204-1.237-.204-2.109v-1.135c0-1.764.406-3.001 1.217-3.731.69-.608 1.744-.912 3.183-.912h.284c1.42 0 2.453.344 3.062 1.013.648.73.973 1.926.973 3.63v1.054c0 .385-.203.568-.588.568h-4.866v.162c0 .486.121.81.405.993.264.183.75.264 1.48.264m-1.885-3.528h2.23c.162 0 .243-.081.243-.264v-.324c0-.406-.08-.71-.202-.933-.163-.243-.487-.365-.933-.365h-.183c-.405 0-.689.102-.851.284q-.304.365-.304 1.095zm15.937-.365v5.738c0 .203-.061.365-.163.446-.101.101-.283.142-.527.142h-1.865c-.264 0-.446-.04-.547-.142-.102-.081-.142-.243-.142-.446v-5.738c0-.446-.081-.77-.223-.933-.163-.162-.467-.263-.893-.263h-.04c-.446 0-.73.101-.892.263-.162.163-.223.487-.223.933v5.738c0 .203-.061.365-.162.446-.102.101-.284.142-.528.142h-1.865c-.263 0-.446-.04-.547-.142-.102-.081-.142-.243-.142-.446v-8.78c0-.202.04-.344.142-.425s.284-.142.547-.142h.953c.243 0 .406.04.507.101q.151.092.243.365l.122.386h.06c.649-.69 1.562-1.034 2.778-1.034h.082c1.155 0 2.047.324 2.676.932.649-.608 1.581-.932 2.757-.932h.081c1.176 0 2.048.283 2.575.83.487.528.751 1.42.751 2.677v6.022c0 .203-.061.365-.163.446-.101.101-.283.142-.527.142h-1.865c-.264 0-.446-.04-.548-.142-.101-.081-.141-.243-.141-.446v-5.738c0-.446-.082-.77-.223-.933-.163-.162-.467-.263-.893-.263h-.04c-.446 0-.73.101-.892.263-.162.163-.223.487-.223.933m10.722-3.021v8.759c0 .203-.061.365-.162.446-.102.101-.284.142-.527.142h-1.866c-.263 0-.446-.04-.547-.142-.102-.081-.142-.243-.142-.446v-8.759c0-.203.04-.345.142-.446.101-.081.284-.142.547-.142h1.866c.243 0 .425.06.527.142.101.101.162.243.162.446m-1.5-1.358h-.244c-1.095 0-1.642-.548-1.642-1.683v-.102c0-1.115.547-1.682 1.642-1.682h.244c1.094 0 1.642.567 1.642 1.682v.102c0 1.135-.548 1.683-1.642 1.683m8.933 7.076v-5.718c0-.203.041-.345.142-.446.102-.081.284-.142.548-.142h1.865c.243 0 .426.06.527.142.102.101.162.243.162.446v6.002q0 1.854-.912 2.676c-.649.568-1.784.851-3.447.851-1.662 0-2.818-.283-3.447-.851q-.912-.822-.912-2.676v-6.002c0-.203.041-.345.142-.446.101-.081.284-.142.547-.142h1.866c.243 0 .426.06.527.142.101.101.162.243.162.446v5.718c0 .466.061.77.223.932.162.183.446.264.892.264.426 0 .73-.081.892-.264.142-.162.223-.466.223-.932m13.921-2.697v5.738c0 .203-.061.365-.162.446-.102.101-.284.142-.527.142h-1.866c-.263 0-.446-.04-.547-.142-.101-.081-.142-.243-.142-.446v-5.738c0-.446-.081-.77-.223-.933-.162-.162-.466-.263-.892-.263h-.041c-.446 0-.73.101-.892.263-.162.163-.223.487-.223.933v5.738c0 .203-.061.365-.162.446-.101.101-.284.142-.527.142h-1.866c-.263 0-.446-.04-.547-.142-.101-.081-.142-.243-.142-.446v-8.78c0-.202.041-.344.142-.425s.284-.142.547-.142h.953c.244 0 .406.04.507.101q.153.092.244.365l.121.386h.061c.649-.69 1.561-1.034 2.778-1.034h.081c1.156 0 2.048.324 2.676.932.649-.608 1.582-.932 2.758-.932h.081c1.176 0 2.048.283 2.575.83.486.528.75 1.42.75 2.677v6.022c0 .203-.061.365-.162.446-.102.101-.284.142-.527.142h-1.866c-.263 0-.446-.04-.547-.142-.102-.081-.142-.243-.142-.446v-5.738c0-.446-.081-.77-.223-.933-.162-.162-.466-.263-.892-.263h-.041c-.446 0-.73.101-.892.263-.162.163-.223.487-.223.933"/></svg>