<svg xmlns="http://www.w3.org/2000/svg" fill="none" viewBox="0 0 136 29"><rect width="135.118" height="28.647" fill="#01748c" rx="14.323"/><path fill="#fff" d="M19.552 16.241v3.269c0 .134-.03.224-.075.254-.045.045-.134.06-.254.06h-.806c-.134 0-.224-.015-.269-.06-.044-.03-.06-.12-.06-.254v-8.866q0-.247.09-.358.09-.09.314-.135c.597-.075 1.328-.12 2.194-.12 1.269 0 2.18.225 2.746.672.568.448.851 1.21.851 2.254v.24c0 2.044-1.179 3.06-3.537 3.06-.553 0-.956 0-1.194-.016m.223-4.985c-.149.015-.223.104-.223.283v3.523c.209.015.522.015.94.015q1.254 0 1.791-.403c.358-.269.537-.776.537-1.508v-.179c0-.642-.164-1.104-.477-1.373-.329-.269-.866-.403-1.627-.403q-.56 0-.94.045m10.118 4.761c0-.865-.09-1.477-.239-1.836-.209-.462-.672-.701-1.373-.701-.717 0-1.165.239-1.373.701-.165.359-.24.97-.24 1.836v.299c0 .88.075 1.492.24 1.836.208.477.656.701 1.373.701.701 0 1.164-.224 1.373-.701.15-.344.239-.956.239-1.836v-.299m1.403-.104v.507c0 1.359-.254 2.284-.746 2.777-.508.507-1.27.76-2.27.76-1.014 0-1.76-.253-2.268-.76-.508-.493-.746-1.418-.746-2.777v-.507c0-1.344.238-2.27.746-2.777.507-.507 1.254-.76 2.269-.76 1 0 1.761.253 2.269.76.492.508.746 1.433.746 2.777m4.512 2.91c.627 0 1.075-.149 1.328-.462.24-.314.373-.97.373-1.956v-.477c0-.896-.119-1.508-.358-1.866q-.358-.537-1.298-.537c-.538 0-.956.134-1.224.402q-.403.404-.403 1.389v1.925q0 .94.358 1.254c.239.224.642.328 1.224.328m-1.582-8.836v3.03h.03c.388-.418 1.014-.642 1.865-.642.97 0 1.672.284 2.12.836q.672.828.672 2.642v.597c0 1.284-.254 2.18-.762 2.717-.507.537-1.298.79-2.388.79-1 0-1.731-.178-2.209-.566-.478-.373-.702-1.045-.702-2.03V9.987c0-.18.09-.269.299-.269h.776c.105 0 .18.03.224.06.045.045.075.12.075.209m7.743 2.791v6.777c0 .104-.03.179-.075.209-.044.045-.119.06-.224.06h-.776c-.209 0-.298-.09-.298-.27v-6.776c0-.179.09-.269.298-.269h.776c.105 0 .18.03.224.06.045.045.075.12.075.21m-1.582-2.09v-.104c0-.284.074-.493.239-.642q.224-.224.627-.224h.074c.567 0 .851.299.851.866v.104c0 .583-.284.866-.85.866h-.076c-.268 0-.477-.06-.626-.209-.165-.149-.24-.358-.24-.657m8.946 4.672v1.075c0 .299-.149.433-.418.433h-3.85c.014.746.149 1.254.388 1.538.238.283.716.417 1.432.417a4.2 4.2 0 0 0 1.583-.283c.119-.03.194-.06.238-.06.075 0 .135.06.18.164l.104.359c.045.179.075.283.075.313q0 .134-.18.224c-.611.284-1.328.418-2.164.418-1.15 0-1.94-.269-2.388-.806q-.672-.806-.672-2.732v-.507c0-1.21.224-2.105.672-2.672s1.194-.866 2.254-.866q1.365 0 2.06.717c.447.477.686 1.239.686 2.268m-4.283.389h2.76c.12 0 .195-.06.195-.21q0-1.096-.314-1.567c-.209-.298-.582-.462-1.134-.462-.597 0-1 .179-1.209.522s-.298.91-.298 1.717m6.923-3.016.075.732h.03c.194-.329.432-.582.716-.732.269-.149.657-.224 1.134-.224h.299c.12 0 .194.03.239.06.044.045.074.12.074.21v.656c0 .18-.104.254-.313.254h-.328c-.613 0-1.03.149-1.27.418-.223.268-.328.701-.328 1.298v4.15c0 .104-.03.179-.074.209-.045.045-.12.06-.224.06h-.776c-.21 0-.299-.09-.299-.27v-6.82c0-.15.075-.225.239-.225h.522c.18 0 .27.075.284.224m8.641 6.195v.642c0 .179-.09.253-.254.253h-4.627c-.224 0-.328-.09-.328-.268v-.299c0-.179.09-.418.298-.731l3.12-4.851h-3c-.18 0-.254-.075-.254-.254v-.642c0-.09.015-.164.045-.209.03-.03.09-.06.209-.06h4.508c.149 0 .238.09.238.24v.298c0 .179-.134.477-.388.866l-3.09 4.746h3.27c.164 0 .253.09.253.269m8.91.686-.06-.432h-.03c-.254.522-.85.776-1.791.776h-.463c-1.478 0-2.21-.717-2.21-2.15v-.238c0-.806.24-1.404.717-1.762.389-.313 1.165-.477 2.3-.477h.357c.329 0 .642.014.91.044v-.626c0-.463-.119-.777-.343-.956-.238-.179-.612-.268-1.134-.268-.507 0-1.045.074-1.627.223-.164.045-.269.06-.313.06-.105 0-.165-.06-.194-.209l-.06-.284a2 2 0 0 1-.06-.387c0-.105.06-.18.21-.224a7.2 7.2 0 0 1 2.163-.329c.956 0 1.657.194 2.09.567.418.389.642 1.045.642 1.97v4.702c0 .15-.09.21-.239.21h-.582c-.164 0-.254-.06-.284-.21m-.27-2.044v-1.075a7 7 0 0 0-.805-.045h-.657c-.537 0-.91.09-1.12.239q-.312.247-.313.895v.21c0 .388.075.656.239.805.15.165.418.24.806.24h.493c.447 0 .79-.09 1.014-.3.224-.208.344-.522.344-.97m4.577 1.79v2.837c0 .104-.03.179-.075.209-.044.045-.119.06-.224.06h-.776c-.209 0-.298-.09-.298-.27v-9.433c0-.164.075-.254.239-.254h.522c.15 0 .239.075.269.21l.09.477h.03c.462-.537 1.193-.82 2.178-.82.956 0 1.642.253 2.09.76.433.508.657 1.389.657 2.642v.672c0 1.21-.224 2.09-.642 2.657-.433.567-1.164.85-2.21.85-.835 0-1.447-.193-1.835-.596zm1.642-5.835c-.612 0-1.045.134-1.284.388-.238.268-.358.686-.358 1.268v2.03c0 .568.134.986.403 1.24.269.253.687.372 1.254.372.627 0 1.06-.164 1.299-.522.223-.358.343-.985.343-1.896v-.492c0-.896-.12-1.523-.343-1.866-.24-.343-.672-.523-1.314-.523m6.026-3.538v7.866c0 .299.03.508.12.627q.111.18.492.18h.373c.09 0 .15.03.194.059.03.03.06.104.06.194v.642c0 .179-.09.268-.24.268h-.641q-.94 0-1.343-.402c-.27-.27-.388-.717-.388-1.359V9.987c0-.18.089-.269.298-.269h.776c.105 0 .18.03.224.06.045.045.075.12.075.209m4.083 2.791v6.777c0 .104-.03.179-.074.209-.045.045-.12.06-.224.06h-.776c-.21 0-.299-.09-.299-.27v-6.776c0-.179.09-.269.299-.269h.776c.104 0 .179.03.224.06.044.045.074.12.074.21M84 10.688v-.104c0-.284.075-.493.239-.642q.224-.224.627-.224h.074c.568 0 .851.299.851.866v.104c0 .583-.283.866-.85.866h-.075c-.269 0-.478-.06-.627-.209-.164-.149-.239-.358-.239-.657m4.976 5.867v3c0 .104-.03.179-.074.209-.045.045-.12.06-.224.06h-.776c-.21 0-.299-.09-.299-.27V9.988c0-.18.09-.269.299-.269h.776c.104 0 .179.03.224.06.044.045.074.12.074.209v5.358h.567c.12 0 .21-.044.284-.164l1.627-2.462c.09-.135.224-.21.418-.21h.866c.239 0 .298.105.179.299l-2.075 3a.28.28 0 0 0-.06.15c0 .06.015.119.06.164l1.97 3.12c.15.253.24.402.24.447 0 .09-.076.134-.21.134h-.88c-.195 0-.344-.074-.433-.223l-1.777-2.911a.3.3 0 0 0-.253-.134zm9.41 3.06-.06-.433h-.03c-.254.522-.851.776-1.792.776h-.462c-1.478 0-2.21-.717-2.21-2.15v-.238c0-.806.24-1.404.717-1.762.388-.313 1.164-.477 2.299-.477h.358c.328 0 .642.014.91.044v-.626c0-.463-.119-.777-.343-.956-.239-.179-.612-.268-1.134-.268-.508 0-1.045.074-1.627.223-.164.045-.269.06-.314.06-.104 0-.164-.06-.194-.209l-.06-.284a2 2 0 0 1-.06-.387c0-.105.06-.18.21-.224a7.2 7.2 0 0 1 2.164-.329c.956 0 1.657.194 2.09.567.418.389.642 1.045.642 1.97v4.702c0 .15-.09.21-.239.21h-.582c-.164 0-.254-.06-.284-.21m-.27-2.045v-1.075a7 7 0 0 0-.805-.045h-.657c-.538 0-.91.09-1.12.239q-.313.247-.313.895v.21c0 .388.074.656.239.805.149.165.418.24.806.24h.492c.448 0 .791-.09 1.015-.3.224-.208.344-.522.344-.97m7.905 1.104.09.314c.045.164.075.283.075.343 0 .12-.075.194-.224.254-.568.253-1.239.373-2.015.373-.986 0-1.702-.21-2.135-.642-.552-.508-.821-1.493-.821-2.926v-.477c0-.761.06-1.344.179-1.762.12-.403.314-.746.612-1.03.523-.492 1.269-.746 2.239-.746.866 0 1.597.21 2.224.627.09.06.135.134.135.194s-.06.18-.15.358l-.209.389c-.059.104-.119.149-.179.149a.3.3 0 0 1-.179-.06c-.537-.328-1.06-.493-1.597-.493s-.925.12-1.194.359c-.164.149-.284.343-.343.567a2.2 2.2 0 0 0-.12.627c-.015.179-.015.492-.015.94v.239c0 1.06.12 1.746.373 2.06.269.328.717.492 1.359.492q.761 0 1.477-.268c.09-.03.165-.06.224-.06.09 0 .15.06.194.18m3.191-5.896v6.807c0 .97-.164 1.656-.463 2.074-.388.553-1.105.821-2.149.821h-.463c-.179 0-.254-.074-.254-.238v-.717c0-.15.075-.239.224-.239h.343c.582 0 .956-.134 1.135-.403.164-.268.253-.746.253-1.448v-6.657c0-.179.09-.269.299-.269h.776c.105 0 .179.03.224.06.045.045.075.12.075.21m-1.583-2.09v-.104c0-.284.075-.493.239-.642q.225-.224.627-.224h.075c.567 0 .851.299.851.866v.104c0 .583-.284.866-.851.866h-.075c-.268 0-.477-.06-.627-.209-.164-.149-.239-.358-.239-.657m8.961 4.657v1.09c0 .299-.149.433-.418.433h-3.851c.015.746.149 1.254.388 1.538.239.283.717.417 1.433.417.567 0 1.105-.09 1.582-.283.12-.03.194-.06.239-.06.075 0 .134.06.179.164l.105.359c.029.134.059.223.059.283q0 .134-.179.224c-.507.299-.88.597-1.104.88a1.56 1.56 0 0 0-.329.97c0 .374.179.553.553.553q.335 0 .716-.134c.09-.03.134-.045.149-.045.06 0 .105.045.12.134l.059.27c.03.118.045.208.045.253q0 .112-.179.179c-.373.15-.746.224-1.105.224-1.015 0-1.507-.388-1.507-1.18q0-1.006 1.075-1.701c-.209.03-.433.045-.642.045-1.15 0-1.941-.269-2.388-.806q-.672-.806-.672-2.732v-.507c0-1.21.224-2.105.672-2.672.447-.567 1.194-.866 2.268-.866.911 0 1.598.239 2.045.702.448.477.687 1.224.687 2.268m-4.284.404h2.761c.12 0 .194-.06.194-.21q0-1.096-.313-1.567c-.209-.298-.582-.462-1.134-.462-.597 0-1 .179-1.209.522s-.299.91-.299 1.717"/></svg>