<svg xmlns="http://www.w3.org/2000/svg" fill="none" viewBox="0 0 233 40"><path fill="#fff" d="M6.963 20.935v4.224c0 .759.132 1.287.462 1.584.264.297.759.429 1.485.429h.297c.759 0 1.287-.198 1.617-.66q.396-.594.396-2.871v-1.419c0-1.65-.165-2.673-.429-3.003-.297-.33-.858-.528-1.65-.528h-.132c-.759 0-1.287.165-1.617.495-.297.297-.429.891-.429 1.749m0-5.511h.066q1.435-.891 3.762-.891h.297c1.98 0 3.432.594 4.323 1.782.726 1.023 1.122 2.838 1.122 5.445v2.376c0 2.64-.561 4.488-1.683 5.511-1.188 1.122-3.069 1.65-5.643 1.65h-.66c-2.706 0-4.554-.528-5.544-1.617-.891-.957-1.32-2.508-1.32-4.686V9.616c0-.33.066-.561.231-.726.132-.132.429-.231.858-.231h3.069c.396 0 .693.099.858.231.165.165.264.396.264.726zM27.229 27.04h.363c1.122 0 2.31-.132 3.498-.429.33-.066.528-.099.627-.099.33 0 .528.198.594.561l.264 1.65c.066.462.132.759.132.891 0 .396-.297.693-.858.891-1.518.528-3.2.792-4.983.792h-.627q-4.059 0-5.742-1.683a4.73 4.73 0 0 1-1.32-2.244c-.23-.858-.33-2.013-.33-3.432V22.09c0-2.871.66-4.884 1.98-6.072 1.122-.99 2.838-1.485 5.181-1.485h.462c2.31 0 3.993.561 4.983 1.65 1.056 1.188 1.584 3.135 1.584 5.907v1.716c0 .627-.33.924-.957.924h-7.92v.264c0 .792.198 1.32.66 1.617.43.297 1.221.429 2.41.429m-3.069-5.742h3.63c.264 0 .396-.132.396-.429v-.528c0-.66-.132-1.155-.33-1.518-.264-.396-.792-.594-1.518-.594h-.297c-.66 0-1.122.165-1.386.462q-.495.594-.495 1.782zm17.062-2.277h-5.247c-.33 0-.56-.033-.693-.165s-.165-.396-.165-.792v-2.277c0-.396.033-.627.165-.759q.198-.198.693-.198H47.13c.33 0 .561.066.726.198.132.132.231.396.231.759v.627c0 .858-.264 1.65-.726 2.343l-5.676 8.052h5.643c.33 0 .528.066.66.198s.198.363.198.759v2.277q0 .594-.198.792c-.132.132-.33.165-.66.165H35.975c-.693 0-1.023-.297-1.023-.957v-.759c0-.858.231-1.617.726-2.343zm22.249 7.689h1.056c.33 0 .594.099.726.231.132.165.23.462.23.891v2.046c0 .462-.098.759-.23.891-.132.165-.396.231-.726.231h-2.508c-1.65 0-2.805-.297-3.465-.957-.66-.627-.99-1.749-.99-3.333V9.616c0-.33.066-.561.23-.726.166-.132.463-.231.892-.231h3.036c.396 0 .693.099.858.231.165.165.264.396.264.726v16.467c0 .264.033.429.132.495.066.099.23.132.495.132m9.526-10.923v14.256c0 .33-.1.594-.264.726-.165.165-.462.231-.858.231h-3.036c-.43 0-.726-.066-.891-.231-.165-.132-.231-.396-.231-.726V15.787c0-.33.066-.561.23-.726.166-.132.463-.231.892-.231h3.036c.396 0 .693.099.858.231.165.165.264.396.264.726m-2.442-2.211h-.396c-1.782 0-2.673-.891-2.673-2.739v-.165c0-1.815.89-2.739 2.673-2.739h.396c1.782 0 2.673.924 2.673 2.739v.165c0 1.848-.891 2.739-2.673 2.739m20.117 7.128v9.339c0 .33-.099.594-.264.726-.165.165-.462.231-.858.231h-3.036c-.429 0-.726-.066-.89-.231-.166-.132-.232-.396-.232-.726v-9.339c0-.726-.132-1.254-.363-1.518-.264-.264-.759-.429-1.452-.429h-.066c-.726 0-1.188.165-1.452.429s-.363.792-.363 1.518v9.339c0 .33-.099.594-.264.726-.165.165-.462.231-.858.231h-3.036c-.429 0-.726-.066-.89-.231-.166-.132-.232-.396-.232-.726V15.754c0-.33.066-.561.231-.693s.462-.231.891-.231h1.551c.396 0 .66.066.825.165q.248.149.396.594l.198.627h.1c1.055-1.122 2.54-1.683 4.52-1.683h.132c1.881 0 3.333.528 4.356 1.518 1.056-.99 2.574-1.518 4.488-1.518h.132c1.914 0 3.333.462 4.191 1.353.792.858 1.221 2.31 1.221 4.356v9.801c0 .33-.099.594-.264.726-.165.165-.462.231-.858.231H95.49c-.429 0-.726-.066-.89-.231-.166-.132-.232-.396-.232-.726v-9.339c0-.726-.132-1.254-.363-1.518-.264-.264-.759-.429-1.452-.429h-.066c-.726 0-1.188.165-1.452.429s-.363.792-.363 1.518m17.452-4.917v14.256c0 .33-.099.594-.264.726-.165.165-.462.231-.858.231h-3.036c-.429 0-.726-.066-.891-.231-.165-.132-.231-.396-.231-.726V15.787c0-.33.066-.561.231-.726.165-.132.462-.231.891-.231h3.036c.396 0 .693.099.858.231.165.165.264.396.264.726m-2.442-2.211h-.396c-1.782 0-2.673-.891-2.673-2.739v-.165c0-1.815.891-2.739 2.673-2.739h.396c1.782 0 2.673.924 2.673 2.739v.165c0 1.848-.891 2.739-2.673 2.739m16.19 14.322v1.881c0 .495-.099.825-.231.99s-.429.231-.825.231h-2.64c-2.376 0-3.96-.396-4.686-1.221-.66-.693-.957-2.013-.957-3.993v-6.831h-1.782c-.33 0-.528-.033-.66-.165s-.165-.33-.165-.66v-1.683c0-.396.033-.66.165-.792.099-.132.33-.231.693-.33l1.749-.429v-3.234c0-.33.066-.561.231-.726.165-.132.462-.231.891-.231h3.036c.396 0 .693.099.858.231.165.165.264.396.264.726v3.168h2.739c.33 0 .528.066.66.198s.198.363.198.759v2.211q0 .594-.198.792c-.132.132-.33.165-.66.165h-2.739v6.237c0 .594.066.957.264 1.155.198.231.627.33 1.287.33h1.452c.396 0 .693.099.825.264s.231.495.231.957m11.177-2.805v-9.306c0-.33.066-.561.231-.726.165-.132.462-.231.891-.231h3.036c.396 0 .693.099.858.231.165.165.264.396.264.726v9.768q0 3.02-1.485 4.356c-1.056.924-2.904 1.386-5.61 1.386s-4.587-.462-5.61-1.386q-1.485-1.337-1.485-4.356v-9.768c0-.33.066-.561.231-.726.165-.132.462-.231.891-.231h3.036c.396 0 .693.099.858.231.165.165.264.396.264.726v9.306c0 .759.099 1.254.363 1.518.264.297.726.429 1.452.429.693 0 1.188-.132 1.452-.429.231-.264.363-.759.363-1.518m20.835-.495v5.445c0 .33-.099.594-.264.726-.165.165-.462.231-.858.231h-3.036c-.429 0-.726-.066-.891-.231-.165-.132-.231-.396-.231-.726V9.616c0-.33.066-.561.231-.726.165-.132.462-.231.891-.231h3.036c.396 0 .693.099.858.231.165.165.264.396.264.726v10.758h.231l3.135-4.785c.297-.495.759-.759 1.386-.759h3.828c.363 0 .561.132.561.396 0 .132-.099.363-.264.627l-3.795 5.676c-.297.462-.429.792-.429.99 0 .231.132.561.429.99l4.059 6.402c.132.264.198.429.198.561 0 .363-.231.528-.693.528h-3.663c-.462 0-.825-.033-1.023-.165q-.297-.148-.594-.693l-3.135-5.544zm19.732-8.976h2.838c.462 0 .792.066.957.198s.297.396.363.792c0 .132.594 3.069 1.749 8.778h.099c.594-3.465 1.122-6.666 1.551-9.636.033-.363.132-.594.264-.726q.198-.198.693-.198h3.366c.363 0 .594.099.726.231.099.165.132.429.066.759-.528 2.574-1.188 5.412-1.914 8.514s-1.254 5.049-1.584 5.874c-.132.33-.297.561-.462.66s-.429.132-.759.132h-3.63c-.693 0-1.122-.231-1.254-.759-.627-2.244-1.155-5.082-1.617-8.514h-.132a91 91 0 0 1-1.65 8.514c-.132.528-.528.759-1.188.759h-3.564c-.66 0-1.089-.231-1.254-.726-.33-.891-.891-2.937-1.683-6.105a153 153 0 0 1-1.848-8.349c-.099-.363-.066-.627.066-.759s.396-.231.792-.231h3.234c.33 0 .594.066.759.198.132.132.231.396.297.726.462 3.069.99 6.27 1.617 9.636h.132c.792-4.092 1.353-7.029 1.617-8.778.066-.429.165-.693.33-.825.165-.099.495-.165 1.023-.165m19.412 6.006v2.574c0 1.287.198 2.112.594 2.508.297.33.759.462 1.386.462h.132c.594 0 1.056-.132 1.386-.462.396-.396.594-1.221.594-2.508v-2.574c0-1.254-.198-2.112-.594-2.508-.33-.297-.792-.462-1.386-.462h-.132c-.627 0-1.089.165-1.386.462-.396.396-.594 1.254-.594 2.508m9.405.198v2.145c0 1.65-.165 2.904-.495 3.828s-.858 1.65-1.584 2.211c-1.089.858-2.772 1.287-5.082 1.287h-.396c-2.31 0-4.026-.429-5.082-1.287-.726-.561-1.254-1.287-1.584-2.211s-.495-2.178-.495-3.828v-2.112c0-1.617.165-2.871.495-3.795a5 5 0 0 1 1.584-2.244c1.056-.858 2.772-1.287 5.082-1.287h.396c2.31 0 3.993.429 5.082 1.287a5.1 5.1 0 0 1 1.584 2.211c.33.924.495 2.178.495 3.795m13.154 6.072v1.881c0 .495-.099.825-.231.99s-.429.231-.825.231h-2.64c-2.376 0-3.96-.396-4.686-1.221-.66-.693-.957-2.013-.957-3.993v-6.831h-1.782c-.33 0-.528-.033-.66-.165s-.165-.33-.165-.66v-1.683c0-.396.033-.66.165-.792.099-.132.33-.231.693-.33l1.749-.429v-3.234c0-.33.066-.561.231-.726.165-.132.462-.231.891-.231h3.036c.396 0 .693.099.858.231.165.165.264.396.264.726v3.168h2.739c.33 0 .528.066.66.198s.198.363.198.759v2.211q0 .594-.198.792c-.132.132-.33.165-.66.165h-2.739v6.237c0 .594.066.957.264 1.155.198.231.627.33 1.287.33h1.452c.396 0 .693.099.825.264s.231.495.231.957m16.489-12.078c-.462 3.102-1.32 6.534-2.574 10.329-1.287 3.795-2.838 7.392-4.653 10.758-.231.462-.528.693-.924.693-.264 0-.561-.066-.957-.264l-1.683-.726c-.594-.264-.858-.528-.858-.825 0-.132.033-.33.165-.561 1.122-2.277 1.782-3.597 1.914-3.96-.924-.33-1.617-1.056-2.145-2.244-.594-1.32-1.287-3.333-2.046-6.105q-1.138-4.158-1.683-7.128c-.066-.33-.033-.561.132-.726.165-.132.462-.231.858-.231h3.003c.363 0 .627.066.792.165s.297.297.363.627c.759 4.158 1.617 7.854 2.574 11.055h.165c.924-2.64 1.782-6.27 2.574-10.956q.05-.495.297-.693c.165-.132.429-.198.759-.198h3.036c.363 0 .627.099.759.231s.165.396.132.759"/></svg>