<svg xmlns="http://www.w3.org/2000/svg" fill="none" viewBox="0 0 267 80"><path fill="#fff" d="M10.395 14.533h.264c1.914 0 3.333.462 4.191 1.353.792.858 1.221 2.31 1.221 4.356v9.801c0 .33-.099.594-.264.726-.165.165-.462.231-.858.231h-3.036c-.429 0-.726-.066-.891-.231-.165-.132-.231-.396-.231-.726v-9.339c0-.726-.132-1.254-.363-1.518-.264-.264-.759-.429-1.452-.429h-.198c-.726 0-1.188.165-1.452.429s-.363.792-.363 1.518v9.339c0 .33-.099.594-.264.726-.165.165-.462.231-.858.231H2.805c-.429 0-.726-.066-.891-.231-.165-.132-.231-.396-.231-.726V15.754c0-.33.066-.561.231-.693s.462-.231.891-.231h1.551c.396 0 .66.066.825.165q.247.149.396.594l.198.627h.099c1.056-1.122 2.541-1.683 4.521-1.683m18.356 15.114h-.066c-.726 1.122-2.178 1.65-4.323 1.65h-.495c-1.683 0-3.003-.429-3.927-1.287-.957-.858-1.419-2.145-1.419-3.795v-.363c0-1.782.495-3.069 1.518-3.795s2.673-1.089 4.983-1.089h.231c.858 0 1.65.066 2.31.132v-.693c0-.693-.198-1.188-.56-1.452-.397-.231-1.057-.363-1.98-.363-1.123 0-2.377.198-3.829.561-.396.099-.693.099-.825 0-.165-.099-.264-.297-.297-.627l-.264-1.749c-.066-.297-.066-.528-.066-.66 0-.396.264-.693.792-.858 1.683-.462 3.564-.726 5.643-.726 2.541 0 4.356.561 5.412 1.617.825.858 1.254 2.244 1.254 4.125v9.801c0 .33-.099.594-.264.726s-.462.198-.858.198h-1.55c-.397 0-.66-.033-.826-.132s-.297-.297-.396-.627zm-1.188-4.224v-.924q-.544-.099-1.584-.099h-.363q-1.188 0-1.683.297c-.33.198-.462.594-.462 1.188v.132c0 .594.132.99.462 1.188.297.231.76.33 1.386.33h.231c.66 0 1.155-.165 1.551-.495.297-.264.462-.825.462-1.617m20.843-.825v5.445c0 .33-.099.594-.264.726-.165.165-.462.231-.858.231h-3.036c-.429 0-.726-.066-.89-.231-.166-.132-.232-.396-.232-.726V9.616c0-.33.066-.561.231-.726.165-.132.462-.231.891-.231h3.036c.396 0 .693.099.858.231.165.165.264.396.264.726v10.758h.231l3.135-4.785c.297-.495.76-.759 1.386-.759h3.828c.363 0 .561.132.561.396 0 .132-.099.363-.264.627l-3.795 5.676c-.297.462-.429.792-.429.99 0 .231.132.561.43.99l4.058 6.402c.132.264.198.429.198.561 0 .363-.23.528-.693.528H53.39c-.462 0-.825-.033-1.023-.165q-.297-.148-.594-.693l-3.135-5.544zm15.554-2.97v2.574c0 1.287.198 2.112.594 2.508.297.33.76.462 1.386.462h.132c.594 0 1.056-.132 1.386-.462.396-.396.594-1.221.594-2.508v-2.574c0-1.254-.198-2.112-.594-2.508-.33-.297-.792-.462-1.386-.462h-.132c-.627 0-1.089.165-1.386.462-.396.396-.594 1.254-.594 2.508m9.405.198v2.145c0 1.65-.165 2.904-.495 3.828s-.858 1.65-1.584 2.211c-1.089.858-2.772 1.287-5.082 1.287h-.396c-2.31 0-4.026-.429-5.082-1.287-.726-.561-1.254-1.287-1.584-2.211s-.495-2.178-.495-3.828v-2.112c0-1.617.165-2.871.495-3.795a5 5 0 0 1 1.584-2.244c1.056-.858 2.772-1.287 5.082-1.287h.396c2.31 0 3.993.429 5.082 1.287a5.1 5.1 0 0 1 1.584 2.211c.33.924.495 2.178.495 3.795m11.538-7.293h.264c1.914 0 3.333.462 4.19 1.353.793.858 1.222 2.31 1.222 4.356v9.801c0 .33-.1.594-.264.726-.165.165-.462.231-.858.231H86.42c-.43 0-.726-.066-.891-.231-.165-.132-.231-.396-.231-.726v-9.339c0-.726-.132-1.254-.363-1.518-.264-.264-.76-.429-1.452-.429h-.198c-.726 0-1.188.165-1.452.429s-.363.792-.363 1.518v9.339c0 .33-.1.594-.264.726-.165.165-.462.231-.858.231h-3.036c-.43 0-.726-.066-.891-.231-.165-.132-.231-.396-.231-.726V15.754c0-.33.066-.561.23-.693.166-.132.463-.231.892-.231h1.55c.397 0 .66.066.826.165q.248.149.396.594l.198.627h.099c1.056-1.122 2.54-1.683 4.52-1.683m16.409 12.507h.264c.891 0 1.848-.132 2.871-.429.33-.066.528-.099.627-.099.33 0 .528.198.594.561l.297 1.683c.066.462.132.759.132.891 0 .396-.297.693-.858.891-1.452.528-3.036.759-4.752.759h-.396c-2.376 0-4.125-.528-5.214-1.65q-1.683-1.683-1.683-5.643V22.09c0-1.551.132-2.772.396-3.63a5.2 5.2 0 0 1 1.287-2.178c1.155-1.155 2.97-1.749 5.445-1.749h.33c1.98 0 3.696.363 5.082 1.089.396.231.627.495.627.825 0 .198-.099.528-.264.99l-.627 1.584q-.248.594-.693.594c-.132 0-.33-.033-.594-.165-1.056-.429-2.046-.66-2.937-.66h-.132c-.858 0-1.485.231-1.88.627-.496.495-.727 1.518-.727 3.036v1.122c0 1.353.198 2.277.66 2.772.43.462 1.155.693 2.145.693m12.741-11.253v14.256c0 .33-.099.594-.264.726-.165.165-.462.231-.858.231h-3.036c-.429 0-.726-.066-.891-.231-.165-.132-.231-.396-.231-.726V15.787c0-.33.066-.561.231-.726.165-.132.462-.231.891-.231h3.036c.396 0 .693.099.858.231.165.165.264.396.264.726m-2.442-2.211h-.396c-1.782 0-2.673-.891-2.673-2.739v-.165c0-1.815.891-2.739 2.673-2.739h.396c1.782 0 2.673.924 2.673 2.739v.165c0 1.848-.891 2.739-2.673 2.739m13.716 13.464h.363c1.122 0 2.31-.132 3.498-.429.33-.066.528-.099.627-.099.33 0 .528.198.594.561l.264 1.65c.066.462.132.759.132.891 0 .396-.297.693-.858.891-1.518.528-3.201.792-4.983.792h-.627q-4.059 0-5.742-1.683a4.73 4.73 0 0 1-1.32-2.244c-.231-.858-.33-2.013-.33-3.432V22.09c0-2.871.66-4.884 1.98-6.072 1.122-.99 2.838-1.485 5.181-1.485h.462c2.31 0 3.993.561 4.983 1.65 1.056 1.188 1.584 3.135 1.584 5.907v1.716c0 .627-.33.924-.957.924h-7.92v.264c0 .792.198 1.32.66 1.617.429.297 1.221.429 2.409.429m-3.069-5.742h3.63c.264 0 .396-.132.396-.429v-.528c0-.66-.132-1.155-.33-1.518-.264-.396-.792-.594-1.518-.594h-.297c-.66 0-1.122.165-1.386.462q-.495.594-.495 1.782zM6.468 61.628v2.574c0 1.287.198 2.112.594 2.508.297.33.759.462 1.386.462h.132c.594 0 1.056-.132 1.386-.462.396-.396.594-1.221.594-2.508v-2.574c0-1.254-.198-2.112-.594-2.508-.33-.297-.792-.462-1.386-.462h-.132c-.627 0-1.089.165-1.386.462-.396.396-.594 1.254-.594 2.508m9.405.198v2.145c0 1.65-.165 2.904-.495 3.828s-.858 1.65-1.584 2.211c-1.089.858-2.772 1.287-5.082 1.287h-.396c-2.31 0-4.026-.429-5.082-1.287-.726-.561-1.254-1.287-1.584-2.211s-.495-2.178-.495-3.828v-2.112c0-1.617.165-2.871.495-3.795a5 5 0 0 1 1.584-2.244c1.056-.858 2.772-1.287 5.082-1.287h.396c2.31 0 3.993.429 5.082 1.287a5.1 5.1 0 0 1 1.584 2.211c.33.924.495 2.178.495 3.795m2.397-1.683v-.429c0-1.617.429-2.838 1.287-3.696.99-.99 2.673-1.485 5.016-1.485h.33c1.848 0 3.465.198 4.818.594q.396.148.495.297c.066.132.099.297.066.561l-.363 2.706c-.066.429-.363.561-.891.429-1.32-.297-2.508-.462-3.498-.462h-.033c-.726 0-1.254.066-1.518.198-.297.132-.43.363-.43.693v.099c0 .33.1.561.364.693s.759.297 1.518.429l1.55.33c1.42.33 2.443.825 3.037 1.485s.89 1.683.89 3.036v.495c0 3.465-2.177 5.181-6.467 5.181h-.33c-2.178 0-3.993-.297-5.511-.891-.297-.099-.495-.231-.561-.396-.066-.132-.066-.396 0-.759l.462-2.178c.099-.627.462-.825 1.122-.627 1.518.528 2.838.759 3.96.759h.099c.726 0 1.22-.066 1.518-.231.264-.132.429-.396.429-.759v-.099a.71.71 0 0 0-.363-.627q-.396-.198-1.584-.495l-1.452-.33q-2.178-.495-3.07-1.485c-.593-.66-.89-1.65-.89-3.036m20.76-1.122h-5.246c-.33 0-.561-.033-.693-.165s-.165-.396-.165-.792v-2.277c0-.396.033-.627.165-.759q.198-.198.693-.198h11.154c.33 0 .56.066.726.198.132.132.23.396.23.759v.627c0 .858-.263 1.65-.725 2.343l-5.676 8.052h5.643c.33 0 .528.066.66.198s.198.363.198.759v2.277q0 .594-.198.792c-.132.132-.33.165-.66.165H33.784c-.693 0-1.023-.297-1.023-.957v-.759c0-.858.23-1.617.726-2.343zm16.778 8.019h.264c.891 0 1.848-.132 2.871-.429.33-.066.528-.099.627-.099.33 0 .528.198.594.561l.297 1.683c.066.462.132.759.132.891 0 .396-.297.693-.858.891-1.452.528-3.036.759-4.752.759h-.396c-2.376 0-4.125-.528-5.214-1.65q-1.683-1.683-1.683-5.643V62.09c0-1.551.132-2.772.396-3.63a5.2 5.2 0 0 1 1.287-2.178c1.155-1.155 2.97-1.749 5.445-1.749h.33c1.98 0 3.696.363 5.082 1.089.396.231.627.495.627.825 0 .198-.099.528-.264.99l-.627 1.584q-.248.594-.693.594c-.132 0-.33-.033-.594-.165-1.056-.429-2.046-.66-2.937-.66h-.132c-.858 0-1.485.231-1.88.627-.496.495-.727 1.518-.727 3.036v1.122c0 1.353.198 2.277.66 2.772.43.462 1.155.693 2.145.693m12.774-8.019h-5.246c-.33 0-.561-.033-.694-.165s-.165-.396-.165-.792v-2.277c0-.396.034-.627.166-.759q.197-.198.693-.198H74.49c.33 0 .56.066.726.198.132.132.23.396.23.759v.627c0 .858-.263 1.65-.725 2.343l-5.677 8.052h5.644c.33 0 .528.066.66.198s.198.363.198.759v2.277q0 .594-.199.792c-.131.132-.33.165-.66.165H63.337c-.694 0-1.023-.297-1.023-.957v-.759c0-.858.23-1.617.725-2.343zm17.042 8.019h.363c1.122 0 2.31-.132 3.498-.429.33-.066.528-.099.627-.099.33 0 .528.198.594.561l.264 1.65c.066.462.132.759.132.891 0 .396-.297.693-.858.891a4.8 4.8 0 0 0-2.112 1.584c-.561.726-.825 1.452-.825 2.112v.099c0 .627.297.924.89.924h.166c.363 0 .825-.066 1.353-.264.165-.033.297-.066.396-.066.165 0 .297.165.396.429l.165.693c.099.462.165.693.165.759 0 .198-.165.363-.462.495a7.4 7.4 0 0 1-2.673.495h-.198c-1.155 0-2.013-.231-2.607-.726s-.891-1.188-.891-2.112v-.099c0-.594.198-1.254.627-1.914s.99-1.188 1.716-1.65c-.264.033-.627.033-1.09.033h-.626q-4.059 0-5.742-1.683a4.73 4.73 0 0 1-1.32-2.244c-.231-.858-.33-2.013-.33-3.432V62.09c0-2.871.66-4.884 1.98-6.072 1.122-.99 2.838-1.485 5.18-1.485h.463c2.31 0 3.993.561 4.983 1.65 1.056 1.188 1.584 3.135 1.584 5.907v1.716c0 .627-.33.924-.957.924h-7.92v.264c0 .792.198 1.32.66 1.617.429.297 1.22.429 2.409.429m-3.07-5.742h3.63c.265 0 .397-.132.397-.429v-.528c0-.66-.132-1.155-.33-1.518-.264-.396-.792-.594-1.518-.594h-.297c-.66 0-1.122.165-1.386.462q-.495.594-.495 1.782zm20.726 3.861v-4.191c0-.825-.132-1.419-.396-1.749-.297-.33-.825-.528-1.551-.528h-.33c-.726 0-1.221.198-1.518.561-.33.363-.462 1.386-.462 3.102v1.452c0 1.584.165 2.574.495 2.904.264.33.759.462 1.518.462h.363c.627 0 1.089-.132 1.419-.429.297-.297.462-.825.462-1.584m-.066-10.032h.066v-5.511c0-.33.066-.561.231-.726.165-.132.462-.231.891-.231h3.069c.396 0 .693.099.858.231.132.165.231.396.231.726v15.015c0 2.31-.429 3.894-1.287 4.818a5.13 5.13 0 0 1-2.277 1.419c-.924.297-2.145.429-3.696.429h-.561c-2.442 0-4.191-.495-5.313-1.485-1.155-.99-1.716-2.838-1.716-5.577v-2.64c0-2.64.528-4.488 1.65-5.544 1.056-.99 2.508-1.518 4.389-1.518h.396q1.881 0 3.069.594m17.202-.594h.264c1.914 0 3.333.462 4.191 1.353.792.858 1.221 2.31 1.221 4.356v9.801c0 .33-.099.594-.264.726-.165.165-.462.231-.858.231h-3.036c-.429 0-.726-.066-.891-.231-.165-.132-.231-.396-.231-.726v-9.339c0-.726-.132-1.254-.363-1.518-.264-.264-.759-.429-1.452-.429h-.198c-.726 0-1.188.165-1.452.429s-.363.792-.363 1.518v9.339c0 .33-.099.594-.264.726-.165.165-.462.231-.858.231h-3.036c-.429 0-.726-.066-.891-.231-.165-.132-.231-.396-.231-.726V55.754c0-.33.066-.561.231-.693s.462-.231.891-.231h1.551c.396 0 .66.066.825.165q.247.148.396.594l.198.627h.099c1.056-1.122 2.541-1.683 4.521-1.683m13.605 7.095v2.574c0 1.287.198 2.112.594 2.508.297.33.759.462 1.386.462h.132c.594 0 1.056-.132 1.386-.462.396-.396.594-1.221.594-2.508v-2.574c0-1.254-.198-2.112-.594-2.508-.33-.297-.792-.462-1.386-.462h-.132c-.627 0-1.089.165-1.386.462-.396.396-.594 1.254-.594 2.508m9.405.198v2.145c0 1.65-.165 2.904-.495 3.828s-.858 1.65-1.584 2.211c-1.089.858-2.772 1.287-5.082 1.287h-.396c-2.31 0-4.026-.429-5.082-1.287-.726-.561-1.254-1.287-1.584-2.211s-.495-2.178-.495-3.828v-2.112c0-1.617.165-2.871.495-3.795a5 5 0 0 1 1.584-2.244c1.056-.858 2.772-1.287 5.082-1.287h.396c2.31 0 3.993.429 5.082 1.287a5.1 5.1 0 0 1 1.584 2.211c.33.924.495 2.178.495 3.795m2.396-1.683v-.429c0-1.617.429-2.838 1.287-3.696.99-.99 2.673-1.485 5.016-1.485h.33c1.848 0 3.465.198 4.818.594q.396.148.495.297c.066.132.099.297.066.561l-.363 2.706c-.066.429-.363.561-.891.429-1.32-.297-2.508-.462-3.498-.462h-.033c-.726 0-1.254.066-1.518.198-.297.132-.429.363-.429.693v.099c0 .33.099.561.363.693s.759.297 1.518.429l1.551.33c1.419.33 2.442.825 3.036 1.485s.891 1.683.891 3.036v.495c0 3.465-2.178 5.181-6.468 5.181h-.33c-2.178 0-3.993-.297-5.511-.891-.297-.099-.495-.231-.561-.396-.066-.132-.066-.396 0-.759l.462-2.178c.099-.627.462-.825 1.122-.627 1.518.528 2.838.759 3.96.759h.099c.726 0 1.221-.066 1.518-.231.264-.132.429-.396.429-.759v-.099a.71.71 0 0 0-.363-.627q-.396-.198-1.584-.495l-1.452-.33q-2.178-.495-3.069-1.485c-.594-.66-.891-1.65-.891-3.036m3.069-9.669 5.181-4.422c.198-.198.429-.297.627-.297.231 0 .462.165.66.429l1.584 2.046c.132.198.198.363.198.561 0 .264-.198.528-.528.792l-5.214 3.564c-.264.165-.462.231-.66.231-.264 0-.528-.132-.792-.462l-.99-1.155c-.264-.297-.363-.561-.363-.759s.099-.396.297-.528m19.903 16.566h.264c.891 0 1.848-.132 2.871-.429.33-.066.528-.099.627-.099.33 0 .528.198.594.561l.297 1.683c.066.462.132.759.132.891 0 .396-.297.693-.858.891-1.452.528-3.036.759-4.752.759h-.396c-2.376 0-4.125-.528-5.214-1.65q-1.683-1.683-1.683-5.643V62.09c0-1.551.132-2.772.396-3.63a5.2 5.2 0 0 1 1.287-2.178c1.155-1.155 2.97-1.749 5.445-1.749h.33c1.98 0 3.696.363 5.082 1.089.396.231.627.495.627.825 0 .198-.099.528-.264.99l-.627 1.584q-.248.594-.693.594c-.132 0-.33-.033-.594-.165-1.056-.429-2.046-.66-2.937-.66h-.132c-.858 0-1.485.231-1.881.627-.495.495-.726 1.518-.726 3.036v1.122c0 1.353.198 2.277.66 2.772.429.462 1.155.693 2.145.693m12.742-11.253v14.256c0 .33-.099.594-.264.726-.165.165-.462.231-.858.231h-3.036c-.429 0-.726-.066-.891-.231-.165-.132-.231-.396-.231-.726V55.787c0-.33.066-.561.231-.726.165-.132.462-.231.891-.231h3.036c.396 0 .693.099.858.231.165.165.264.396.264.726m-2.442-2.211h-.396c-1.782 0-2.673-.891-2.673-2.739v-.165c0-1.815.891-2.739 2.673-2.739h.396c1.782 0 2.673.924 2.673 2.739v.165c0 1.848-.891 2.739-2.673 2.739m10.646 8.052v2.574c0 1.287.198 2.112.594 2.508.297.33.759.462 1.386.462h.132c.594 0 1.056-.132 1.386-.462.396-.396.594-1.221.594-2.508v-2.574c0-1.254-.198-2.112-.594-2.508-.33-.297-.792-.462-1.386-.462h-.132c-.627 0-1.089.165-1.386.462-.396.396-.594 1.254-.594 2.508m9.405.198v2.145c0 1.65-.165 2.904-.495 3.828s-.858 1.65-1.584 2.211c-1.089.858-2.772 1.287-5.082 1.287h-.396c-2.31 0-4.026-.429-5.082-1.287-.726-.561-1.254-1.287-1.584-2.211s-.495-2.178-.495-3.828v-2.112c0-1.617.165-2.871.495-3.795a5 5 0 0 1 1.584-2.244c1.056-.858 2.772-1.287 5.082-1.287h.396c2.31 0 3.993.429 5.082 1.287a5.1 5.1 0 0 1 1.584 2.211c.33.924.495 2.178.495 3.795m11.274-6.204h2.838c.462 0 .792.066.957.198s.297.396.363.792c0 .132.594 3.069 1.749 8.778h.099c.594-3.465 1.122-6.666 1.551-9.636.033-.363.132-.594.264-.726q.198-.198.693-.198h3.366c.363 0 .594.099.726.231.099.165.132.429.066.759-.528 2.574-1.188 5.412-1.914 8.514s-1.254 5.049-1.584 5.874c-.132.33-.297.561-.462.66s-.429.132-.759.132h-3.63c-.693 0-1.122-.231-1.254-.759-.627-2.244-1.155-5.082-1.617-8.514h-.132a91 91 0 0 1-1.65 8.514c-.132.528-.528.759-1.188.759h-3.564c-.66 0-1.089-.231-1.254-.726-.33-.891-.891-2.937-1.683-6.105a153 153 0 0 1-1.848-8.349c-.099-.363-.066-.627.066-.759s.396-.231.792-.231h3.234c.33 0 .594.066.759.198.132.132.231.396.297.726.462 3.069.99 6.27 1.617 9.636h.132c.792-4.092 1.353-7.029 1.617-8.778.066-.429.165-.693.33-.825.165-.099.495-.165 1.023-.165m29.069.198c-.462 3.102-1.32 6.534-2.574 10.329-1.287 3.795-2.838 7.392-4.653 10.758-.231.462-.528.693-.924.693-.264 0-.561-.066-.957-.264l-1.683-.726c-.594-.264-.858-.528-.858-.825 0-.132.033-.33.165-.561 1.122-2.277 1.782-3.597 1.914-3.96-.924-.33-1.617-1.056-2.145-2.244-.594-1.32-1.287-3.333-2.046-6.105q-1.138-4.158-1.683-7.128c-.066-.33-.033-.561.132-.726.165-.132.462-.231.858-.231h3.003c.363 0 .627.066.792.165s.297.297.363.627c.759 4.158 1.617 7.854 2.574 11.055h.165c.924-2.64 1.782-6.27 2.574-10.956q.05-.495.297-.693c.165-.132.429-.198.759-.198h3.036c.363 0 .627.099.759.231s.165.396.132.759m16.184 4.884v9.339c0 .33-.099.594-.264.726-.165.165-.462.231-.858.231h-3.036c-.429 0-.726-.066-.891-.231-.165-.132-.231-.396-.231-.726v-9.339c0-.726-.132-1.254-.363-1.518-.264-.264-.759-.429-1.452-.429h-.066c-.726 0-1.188.165-1.452.429s-.363.792-.363 1.518v9.339c0 .33-.099.594-.264.726-.165.165-.462.231-.858.231h-3.036c-.429 0-.726-.066-.891-.231-.165-.132-.231-.396-.231-.726V55.754c0-.33.066-.561.231-.693s.462-.231.891-.231h1.551c.396 0 .66.066.825.165q.248.148.396.594l.198.627h.099c1.056-1.122 2.541-1.683 4.521-1.683h.132c1.881 0 3.333.528 4.356 1.518 1.056-.99 2.574-1.518 4.488-1.518h.132c1.914 0 3.333.462 4.191 1.353.792.858 1.221 2.31 1.221 4.356v9.801c0 .33-.099.594-.264.726-.165.165-.462.231-.858.231h-3.036c-.429 0-.726-.066-.891-.231-.165-.132-.231-.396-.231-.726v-9.339c0-.726-.132-1.254-.363-1.518-.264-.264-.759-.429-1.452-.429h-.066c-.726 0-1.188.165-1.452.429s-.363.792-.363 1.518"/></svg>