<svg xmlns="http://www.w3.org/2000/svg" fill="none" viewBox="0 0 273 82"><path fill="#fff" d="M.32 1.04h15.84V28h-5.24V5.6H5.56V28H.32zM20.789 28V1.44c1.48-.32 3.48-.52 5.48-.52 3.12 0 5.56.44 7.32 2.08 1.6 1.4 2.32 3.64 2.32 5.92 0 2.92-.88 4.96-2.28 6.48-1.68 1.76-4.4 2.56-6.56 2.56h-1.04V28zm5.24-22.64v8.32c.24.08.52.08.84.08 2.64 0 3.84-1.88 3.84-4.4 0-2.36-.96-4.2-3.4-4.2-.48 0-.96.08-1.28.2M46.63.72c6.52 0 8.36 7.16 8.36 13.32 0 10.16-3.6 14.28-8.72 14.28-6.12 0-8.52-6.48-8.52-13.88 0-7.36 2.92-13.72 8.88-13.72m-.2 4.56c-2.08 0-3.24 3.44-3.24 9.24 0 6.12 1.16 9.24 3.28 9.24 2.2 0 3.04-4 3.04-9.48 0-4.72-.72-9-3.08-9M65.568.08h4.6v2.04c4.84.64 8.52 4.44 8.52 12.2 0 8.28-3.72 11.76-8.52 12.44v2.2h-4.64v-2.2c-4.88-.72-8.52-4.16-8.52-12.32 0-7.92 4.36-11.68 8.56-12.32zm0 22.84v-17c-1.6.48-3.32 2.64-3.32 8.6 0 5.56 1.68 8.04 3.32 8.4m4.56-17v17c1.76-.36 3.32-2.52 3.32-8.56 0-6.12-1.8-8.08-3.32-8.44M82 1.04h4.64V7c0 4.96-.32 9.6-.52 12.4h.08c.76-2.32 2.12-5.84 2.92-7.92l3.96-10.44h4.76V28h-4.6v-6.08c0-5.4.2-9.4.32-12.12h-.08c-.6 2.44-1.8 5.68-2.68 7.92L86.84 28H82zm21.548 0h14.04V28h-5.24V5.6h-4v7.12c0 6.2-.4 11.64-3.8 14.28-1 .8-2.28 1.32-3.6 1.32l-1.12-4.44c.64-.16 1.32-.48 1.8-.96 1.56-1.6 1.92-4.48 1.92-9.72zm27.806 20.8h-4.84l-1.2 6.16h-5.08l5.84-26.96h6.28l5.24 26.96h-5.08zm-4.32-4.08h3.84l-.88-5.64c-.28-1.64-.64-4.32-.88-6.12h-.12c-.28 1.8-.68 4.6-.96 6.16zm13.52-16.72h5.12v11.72h.4l4.4-11.72h5.76l-6.2 12.48c2.76 1.04 3.68 3.56 4.44 6.84.6 2.6 1.04 5.16 1.84 7.64h-5.24c-.64-1.92-1.04-4.12-1.48-6.24-.64-3.16-1.36-5.2-3.52-5.2h-.4V28h-5.12zM162.263 28V5.88h-4.76V1.04h14.8v4.84h-4.8V28zm12.784-26.96h4.64V7c0 4.96-.32 9.6-.52 12.4h.08c.76-2.32 2.12-5.84 2.92-7.92l3.96-10.44h4.76V28h-4.6v-6.08c0-5.4.2-9.4.32-12.12h-.08c-.6 2.44-1.8 5.68-2.68 7.92L179.887 28h-4.84zm20.507 0h5.12v11.72h.4l4.4-11.72h5.76l-6.2 12.48c2.76 1.04 3.68 3.56 4.44 6.84.6 2.6 1.04 5.16 1.84 7.64h-5.24c-.64-1.92-1.04-4.12-1.48-6.24-.64-3.16-1.36-5.2-3.52-5.2h-.4V28h-5.12zm27.87 20.8h-4.84l-1.2 6.16h-5.08l5.84-26.96h6.28l5.24 26.96h-5.08zm-4.32-4.08h3.84l-.88-5.64c-.28-1.64-.64-4.32-.88-6.12h-.12c-.28 1.8-.68 4.6-.96 6.16zM.32 75.92V49.44c1.6-.36 3.68-.52 5.96-.52 2.52 0 4.96.32 6.84 1.92 1.44 1.2 2.04 3 2.04 4.88 0 2.4-1.24 4.72-3.92 5.88v.16c3.12.88 4.8 3.48 4.8 6.44 0 2.24-.72 3.96-2 5.28-1.6 1.76-4.32 2.72-8.84 2.72-2 0-3.68-.12-4.88-.28M5.56 53v7.12h1.12c1.88 0 3.32-1.6 3.32-3.8 0-1.96-.92-3.48-3.08-3.48-.56 0-1.04.04-1.36.16m0 11v8.08c.32.08.68.08 1.16.08 2.12 0 3.88-1.28 3.88-4.04 0-2.68-1.84-4.08-3.92-4.12zm13.536-9.68-.88-4.04c1.16-.8 3.4-1.56 5.96-1.56 5.12 0 7.52 3.12 7.52 6.64 0 2.76-1.84 5.44-4.56 6.12v.08c3.16.64 5.36 3.04 5.36 6.76 0 5.16-4.4 8-9.24 8-2.24 0-4.2-.52-5.44-1.2l.76-4.28c1.16.68 2.68 1.08 4.16 1.08 2.8 0 4.28-1.6 4.28-3.76 0-3-2.48-4.2-5.32-4.2h-.76V60h.52c2.4 0 4.8-1.16 4.8-3.64 0-1.88-1.16-3.16-3.4-3.16-1.24 0-2.72.52-3.76 1.12m18.98-5.28h13.88v22.48l2.12.08-.24 10.28h-3.96l-.2-5.88h-11.72l-.2 5.88h-4l-.2-10.28 1.92-.08c.84-2.04 1.4-4.08 1.84-6.28.52-3.08.76-6.24.76-9.4zm4.8 4.56v3.12c0 3.08-.2 6.2-.64 9.08-.32 1.92-.8 4-1.36 5.64h5.88V53.6zm11.168-4.56h5.64l2.48 10.16c.36 1.52.68 3.12.88 4.32h.12c.24-1.28.4-2.92.64-4.44l1.8-10.04h5.32l-4 14.36c-.92 3.4-1.96 7.08-3.32 9.4-1.28 2.12-3.24 3.52-5.48 3.52-.92 0-1.6-.08-2.12-.24l.2-4.28c.24.04.64.12 1.28.12 1.36 0 2.48-1.4 2.88-2.72.2-.56.16-1-.04-1.6zM77.146 76V53.88h-4.76v-4.84h14.8v4.84h-4.8V76zM89.93 49.04h4.64V55c0 4.96-.32 9.6-.52 12.4h.08c.76-2.32 2.12-5.84 2.92-7.92l3.96-10.44h4.76V76h-4.6v-6.08c0-5.4.2-9.4.32-12.12h-.08c-.6 2.44-1.8 5.68-2.68 7.92L94.77 76h-4.84zM113.917 76h-5.56c.36-.8.72-1.84 1.04-2.88.72-2.72.72-6.48 2.72-8.6.48-.52 1.2-.96 1.92-1.16v-.08c-2.84-.88-4.64-3.08-4.64-6.48 0-2.76 1.04-4.68 2.48-5.88 1.72-1.4 4.12-2 6.84-2 2 0 4.08.16 5.72.52V76h-5.24V65.24h-.56c-.92 0-1.64.36-2.16 1-1.16 1.48-1.36 5.4-1.8 7.4-.2.8-.4 1.6-.76 2.36m5.28-14.84v-8.04c-.28-.04-.6-.12-1.04-.12-2.44 0-3.48 1.96-3.48 4 0 2.56 1.52 4.2 3.8 4.2.32 0 .44 0 .72-.04m16.24-12.12h4.64V55c0 4.96-.32 9.6-.52 12.4h.08c.76-2.32 2.12-5.84 2.92-7.92l3.96-10.44h4.76V76h-4.6v-6.08c0-5.4.2-9.4.32-12.12h-.08c-.6 2.44-1.8 5.68-2.68 7.92L140.277 76h-4.84zm29.475 0h13.88v22.48l2.12.08-.24 10.28h-3.96l-.2-5.88h-11.72l-.2 5.88h-4l-.2-10.28 1.92-.08c.84-2.04 1.4-4.08 1.84-6.28.52-3.08.76-6.24.76-9.4zm4.8 4.56v3.12c0 3.08-.2 6.2-.64 9.08-.32 1.92-.8 4-1.36 5.64h5.88V53.6zm14.124-4.56h4.64V55c0 4.96-.32 9.6-.52 12.4h.08c.76-2.32 2.12-5.84 2.92-7.92l3.96-10.44h4.76V76h-4.6v-6.08c0-5.4.2-9.4.32-12.12h-.08c-.6 2.44-1.8 5.68-2.68 7.92L188.676 76h-4.84zm29.627 20.8h-4.84l-1.2 6.16h-5.08l5.84-26.96h6.28l5.24 26.96h-5.08zm-4.32-4.08h3.84l-.88-5.64c-.28-1.64-.64-4.32-.88-6.12h-.12c-.28 1.8-.68 4.6-.96 6.16zM222.664 76V49.44c1.48-.32 3.48-.52 5.48-.52 3.12 0 5.56.44 7.32 2.08 1.6 1.4 2.32 3.64 2.32 5.92 0 2.92-.88 4.96-2.28 6.48-1.68 1.76-4.4 2.56-6.56 2.56h-1.04V76zm5.24-22.64v8.32c.24.08.52.08.84.08 2.64 0 3.84-1.88 3.84-4.4 0-2.36-.96-4.2-3.4-4.2-.48 0-.96.08-1.28.2m24.441 6.44v4.36h-6.16v7.28h6.96V76h-12.2V49.04h11.72v4.56h-6.48v6.2zm4.342-10.76h4.64V55c0 4.96-.32 9.6-.52 12.4h.08c.76-2.32 2.12-5.84 2.92-7.92l3.96-10.44h4.76V76h-4.6v-6.08c0-5.4.2-9.4.32-12.12h-.08c-.6 2.44-1.8 5.68-2.68 7.92L261.527 76h-4.84z"/></svg>