<svg xmlns="http://www.w3.org/2000/svg" fill="none" viewBox="0 0 94 16"><path fill="#fff" d="M2.805 8.945v1.702c0 .306.053.518.186.638.107.12.306.173.598.173h.12c.306 0 .518-.08.651-.266q.16-.24.16-1.157v-.571c0-.665-.067-1.077-.173-1.21-.12-.133-.346-.213-.665-.213H3.63c-.305 0-.518.067-.651.2-.12.12-.173.359-.173.704m0-2.22h.027q.578-.36 1.515-.359h.12c.797 0 1.382.24 1.741.718.293.412.452 1.143.452 2.194v.957c0 1.063-.226 1.808-.678 2.22-.478.452-1.236.665-2.273.665h-.266c-1.09 0-1.834-.213-2.233-.652-.36-.385-.532-1.01-.532-1.887V4.385c0-.132.027-.226.093-.292C.824 4.04.944 4 1.117 4h1.236c.16 0 .28.04.346.093.066.066.106.16.106.292zm8.164 4.68h.147c.452 0 .93-.053 1.409-.173a2 2 0 0 1 .252-.04c.133 0 .213.08.24.226l.106.665c.027.186.053.306.053.359 0 .16-.12.279-.345.359a6.1 6.1 0 0 1-2.008.319h-.253q-1.634 0-2.313-.678a1.9 1.9 0 0 1-.531-.904c-.093-.346-.133-.811-.133-1.383v-.744c0-1.157.266-1.968.797-2.446.452-.4 1.144-.599 2.087-.599h.187c.93 0 1.608.226 2.007.665.425.479.638 1.263.638 2.38v.69c0 .253-.133.373-.385.373H9.733v.107c0 .319.08.531.266.65.173.12.492.174.97.174M9.733 9.092h1.462c.107 0 .16-.054.16-.173v-.213c0-.266-.053-.465-.133-.611-.106-.16-.32-.24-.612-.24h-.12c-.265 0-.451.067-.558.186q-.2.24-.199.718zm6.873-.918h-2.114c-.132 0-.226-.013-.279-.066s-.066-.16-.066-.32v-.917c0-.16.013-.252.066-.305q.08-.08.28-.08h4.493c.133 0 .226.027.292.08.054.053.093.16.093.305v.253c0 .346-.106.665-.292.944l-2.287 3.244h2.274c.133 0 .212.026.266.08.053.053.08.146.08.305v.918q0 .238-.08.319c-.054.053-.133.066-.266.066h-4.573c-.28 0-.413-.12-.413-.386v-.305c0-.346.094-.652.293-.944zm8.963 3.098h.425c.134 0 .24.04.293.093.053.066.093.186.093.359v.824c0 .186-.04.306-.093.359-.053.066-.16.093-.293.093h-1.01c-.665 0-1.13-.12-1.396-.386-.265-.252-.399-.704-.399-1.342V4.385c0-.132.027-.226.094-.292.066-.053.186-.093.358-.093h1.224c.16 0 .279.04.345.093.067.066.107.16.107.292v6.634c0 .107.013.173.053.2.026.04.093.053.2.053m3.838-4.4v5.743c0 .132-.04.239-.107.292-.066.066-.186.093-.345.093h-1.223c-.173 0-.293-.027-.36-.093-.066-.053-.092-.16-.092-.293V6.871c0-.132.026-.226.093-.292.066-.053.186-.093.359-.093h1.223c.16 0 .279.04.345.093.067.066.107.16.107.292m-.984-.891h-.16c-.718 0-1.077-.36-1.077-1.104v-.066c0-.731.36-1.104 1.077-1.104h.16c.718 0 1.077.373 1.077 1.104v.066c0 .745-.36 1.104-1.077 1.104m8.104 2.871v3.762c0 .133-.04.24-.106.293-.067.066-.186.093-.346.093h-1.223c-.173 0-.292-.027-.359-.093-.066-.053-.093-.16-.093-.293V8.853c0-.292-.053-.505-.146-.611-.106-.107-.306-.173-.585-.173h-.027c-.292 0-.478.066-.585.173s-.146.319-.146.611v3.762c0 .133-.04.24-.106.293-.067.066-.186.093-.346.093h-1.223c-.173 0-.292-.027-.359-.093-.066-.053-.093-.16-.093-.293V6.858c0-.133.027-.226.093-.279.067-.053.186-.093.36-.093h.624c.16 0 .266.027.332.066q.1.06.16.24l.08.252h.04c.425-.452 1.023-.678 1.82-.678h.054c.758 0 1.343.213 1.755.612.425-.399 1.037-.612 1.808-.612h.053c.771 0 1.343.186 1.688.545.32.346.492.93.492 1.755v3.948c0 .133-.04.24-.106.293-.067.066-.186.093-.346.093h-1.223c-.173 0-.292-.027-.359-.093-.066-.053-.093-.16-.093-.293V8.853c0-.292-.053-.505-.146-.611-.106-.107-.306-.173-.585-.173h-.027c-.292 0-.478.066-.585.173s-.146.319-.146.611m7.03-1.98v5.743c0 .132-.04.239-.106.292-.066.066-.186.093-.346.093h-1.223c-.172 0-.292-.027-.358-.093-.067-.053-.094-.16-.094-.293V6.871c0-.132.027-.226.093-.292.067-.053.187-.093.36-.093h1.222c.16 0 .28.04.346.093.067.066.106.16.106.292m-.983-.891h-.16c-.718 0-1.077-.36-1.077-1.104v-.066c0-.731.36-1.104 1.077-1.104h.16c.718 0 1.077.373 1.077 1.104v.066c0 .745-.36 1.104-1.077 1.104m6.522 5.77v.757c0 .2-.04.333-.093.399s-.173.093-.332.093h-1.064c-.957 0-1.595-.16-1.888-.492-.266-.28-.385-.81-.385-1.608V8.148h-.718c-.133 0-.213-.014-.266-.067s-.066-.133-.066-.266v-.678c0-.16.013-.266.066-.319.04-.053.133-.093.28-.133l.704-.172V5.21c0-.133.026-.226.093-.293.066-.053.186-.093.359-.093h1.223c.16 0 .28.04.346.093.066.067.106.16.106.293v1.276h1.103c.133 0 .213.027.266.08s.08.146.08.305v.891q0 .24-.08.32c-.053.052-.133.066-.266.066h-1.103v2.512c0 .24.026.386.106.466.08.093.253.133.519.133h.585c.16 0 .279.04.332.106s.093.2.093.385m4.502-1.13V6.87c0-.132.027-.226.093-.292.067-.053.187-.093.36-.093h1.222c.16 0 .28.04.346.093.067.066.106.16.106.292v3.935q0 1.217-.598 1.755c-.425.373-1.17.559-2.26.559s-1.848-.186-2.26-.559q-.598-.538-.598-1.755V6.871c0-.132.027-.226.093-.292.067-.053.186-.093.359-.093h1.223c.16 0 .28.04.346.093.066.066.106.16.106.292v3.75c0 .305.04.505.146.61.107.12.293.174.585.174.28 0 .479-.053.585-.173.093-.106.146-.306.146-.612m8.394-.2v2.194c0 .132-.04.239-.106.292-.067.066-.187.093-.346.093h-1.223c-.173 0-.293-.027-.36-.093-.066-.053-.092-.16-.092-.293V4.386c0-.132.026-.226.093-.292.066-.053.186-.093.359-.093h1.223c.16 0 .28.04.346.093.066.066.106.16.106.292V8.72h.093l1.263-1.927a.61.61 0 0 1 .558-.306h1.542c.147 0 .226.053.226.16 0 .053-.04.146-.106.252l-1.529 2.287c-.12.186-.173.319-.173.398 0 .094.053.226.173.4l1.635 2.578c.053.107.08.173.08.226 0 .146-.093.213-.28.213H64c-.186 0-.332-.013-.412-.066q-.12-.06-.24-.28l-1.262-2.233zm7.95-3.616h1.142c.186 0 .32.027.386.08s.12.16.146.319c0 .053.24 1.236.705 3.536h.04c.239-1.396.452-2.685.624-3.882.014-.146.054-.24.107-.292q.08-.08.279-.08h1.356c.146 0 .24.04.292.093.04.066.054.173.027.306a132 132 0 0 1-.771 3.43c-.293 1.25-.505 2.034-.638 2.366-.053.133-.12.226-.186.266-.067.04-.173.053-.306.053h-1.462c-.28 0-.452-.093-.506-.306-.252-.904-.465-2.047-.651-3.43h-.053a37 37 0 0 1-.665 3.43c-.053.213-.213.306-.478.306h-1.436c-.266 0-.439-.093-.505-.293-.133-.358-.36-1.183-.678-2.459a62 62 0 0 1-.745-3.363c-.04-.146-.026-.253.027-.306s.16-.093.319-.093h1.303c.133 0 .239.027.305.08.054.053.093.16.12.292.186 1.237.399 2.526.651 3.882h.054c.319-1.648.545-2.832.651-3.536.027-.173.067-.28.133-.333.066-.04.2-.066.412-.066m7.819 2.42v1.036c0 .519.08.851.24 1.01.119.134.305.187.557.187h.054c.239 0 .425-.053.558-.186.16-.16.24-.492.24-1.01V9.224c0-.506-.08-.851-.24-1.01-.133-.12-.319-.187-.558-.187h-.053c-.253 0-.44.067-.559.186-.16.16-.24.505-.24 1.01m3.789.08v.863c0 .665-.067 1.17-.2 1.543a1.9 1.9 0 0 1-.638.89c-.439.346-1.117.519-2.047.519h-.16c-.93 0-1.621-.173-2.047-.519a1.9 1.9 0 0 1-.638-.89c-.133-.373-.2-.878-.2-1.543v-.85c0-.652.067-1.157.2-1.53a2 2 0 0 1 .638-.903c.425-.346 1.117-.519 2.047-.519h.16c.93 0 1.608.173 2.047.519.293.24.505.532.638.89.133.373.2.878.2 1.53m5.299 2.445v.758c0 .2-.04.333-.093.399s-.173.093-.332.093H85.36c-.957 0-1.595-.16-1.888-.492-.266-.28-.385-.81-.385-1.608V8.148h-.718c-.133 0-.213-.014-.266-.067s-.066-.133-.066-.266v-.678c0-.16.013-.266.066-.319.04-.053.133-.093.28-.133l.704-.172V5.21c0-.133.026-.226.093-.293.066-.053.186-.093.359-.093h1.223c.16 0 .279.04.346.093.066.067.106.16.106.293v1.276h1.103c.133 0 .213.027.266.08s.08.146.08.305v.891q0 .24-.08.32c-.053.052-.133.066-.266.066h-1.103v2.512c0 .24.026.386.106.466.08.093.253.133.519.133h.585c.16 0 .279.04.332.106s.093.2.093.385m6.643-4.865c-.187 1.25-.532 2.632-1.037 4.16a28 28 0 0 1-1.875 4.335c-.093.186-.212.279-.372.279a.85.85 0 0 1-.385-.107l-.678-.292c-.24-.106-.346-.213-.346-.332a.46.46 0 0 1 .066-.226c.452-.918.718-1.45.771-1.596-.372-.133-.651-.425-.864-.904-.239-.531-.518-1.342-.824-2.459a35 35 0 0 1-.678-2.872c-.027-.132-.013-.226.053-.292.067-.053.186-.093.346-.093h1.21c.146 0 .252.027.319.066.066.04.12.12.146.253.306 1.675.651 3.164 1.037 4.454h.066c.373-1.064.718-2.526 1.037-4.414q.02-.2.12-.28c.066-.052.173-.08.306-.08h1.223c.146 0 .252.04.305.094.054.053.067.16.054.306"/></svg>