<svg xmlns="http://www.w3.org/2000/svg" fill="none" viewBox="0 0 108 32"><path fill="#fff" d="M4.188 6.366h.106c.771 0 1.343.186 1.688.545.32.346.492.93.492 1.755v3.948c0 .133-.04.24-.106.293-.067.066-.186.093-.346.093H4.8c-.173 0-.292-.027-.359-.093-.066-.053-.093-.16-.093-.293V8.853c0-.292-.053-.505-.146-.611-.106-.107-.306-.173-.585-.173h-.08c-.292 0-.478.066-.585.173s-.146.319-.146.611v3.762c0 .133-.04.24-.106.293-.067.066-.186.093-.346.093H1.13c-.173 0-.292-.027-.359-.093-.066-.053-.093-.16-.093-.293V6.858c0-.133.027-.226.093-.279.067-.053.186-.093.359-.093h.625c.16 0 .266.027.332.066q.1.06.16.24l.08.252h.04c.425-.452 1.023-.678 1.82-.678m7.394 6.089h-.026c-.293.452-.878.665-1.742.665h-.2c-.677 0-1.209-.173-1.581-.519-.386-.346-.572-.864-.572-1.529v-.146c0-.718.2-1.236.612-1.529S9.15 8.96 10.08 8.96h.093c.346 0 .665.026.93.053v-.28c0-.279-.079-.478-.225-.584-.16-.093-.426-.147-.798-.147-.452 0-.957.08-1.542.226-.16.04-.28.04-.332 0-.067-.04-.107-.12-.12-.252L7.98 7.27c-.027-.12-.027-.212-.027-.266 0-.16.106-.279.32-.345a8.6 8.6 0 0 1 2.273-.293c1.023 0 1.754.226 2.18.652.332.345.505.904.505 1.661v3.949c0 .133-.04.24-.107.292-.066.053-.186.08-.345.08h-.625c-.16 0-.266-.013-.332-.053-.067-.04-.12-.12-.16-.253zm-.478-1.702v-.372a4 4 0 0 0-.638-.04h-.146q-.48 0-.679.12c-.132.08-.186.24-.186.478v.054c0 .239.054.398.186.478.12.093.306.133.559.133h.093c.266 0 .465-.066.625-.2.12-.106.186-.332.186-.65m8.396-.332v2.194c0 .132-.04.239-.106.292-.066.066-.186.093-.346.093h-1.223c-.172 0-.292-.027-.359-.093-.066-.053-.093-.16-.093-.293V4.386c0-.132.027-.226.093-.292.067-.053.187-.093.36-.093h1.222c.16 0 .28.04.346.093.067.066.106.16.106.292V8.72h.093l1.263-1.927a.61.61 0 0 1 .559-.306h1.542c.146 0 .226.053.226.16 0 .053-.04.146-.107.252l-1.528 2.287c-.12.186-.173.319-.173.398 0 .094.053.226.173.4l1.635 2.578c.053.107.08.173.08.226 0 .146-.093.213-.28.213h-1.475c-.186 0-.332-.013-.412-.066q-.12-.06-.24-.28l-1.263-2.233zm6.266-1.196v1.036c0 .519.08.851.24 1.01.12.134.305.187.558.187h.053c.24 0 .425-.053.558-.186.16-.16.24-.492.24-1.01V9.224c0-.506-.08-.851-.24-1.01-.133-.12-.319-.187-.558-.187h-.053c-.253 0-.439.067-.558.186-.16.16-.24.505-.24 1.01m3.79.08v.863c0 .665-.067 1.17-.2 1.543a1.9 1.9 0 0 1-.639.89c-.438.346-1.116.519-2.047.519h-.16c-.93 0-1.621-.173-2.047-.519a1.9 1.9 0 0 1-.638-.89c-.133-.373-.2-.878-.2-1.543v-.85c0-.652.067-1.157.2-1.53a2 2 0 0 1 .639-.903c.425-.346 1.116-.519 2.047-.519h.16c.93 0 1.608.173 2.047.519.292.24.505.532.638.89.133.373.2.878.2 1.53m4.647-2.939h.106c.771 0 1.343.186 1.689.545.319.346.492.93.492 1.755v3.948c0 .133-.04.24-.107.293-.066.066-.186.093-.346.093h-1.222c-.173 0-.293-.027-.36-.093-.066-.053-.093-.16-.093-.293V8.853c0-.292-.053-.505-.146-.611-.106-.107-.306-.173-.585-.173h-.08c-.292 0-.478.066-.584.173-.107.106-.147.319-.147.611v3.762c0 .133-.04.24-.106.293-.066.066-.186.093-.346.093h-1.223c-.172 0-.292-.027-.359-.093-.066-.053-.093-.16-.093-.293V6.858c0-.133.027-.226.093-.279.067-.053.186-.093.36-.093h.624c.16 0 .266.027.332.066q.1.06.16.24l.08.252h.04c.425-.452 1.023-.678 1.821-.678m6.61 5.039h.107a4.1 4.1 0 0 0 1.156-.173 2 2 0 0 1 .253-.04c.133 0 .213.08.24.226l.119.678c.026.186.053.306.053.359 0 .16-.12.28-.346.359-.585.213-1.223.306-1.914.306h-.16c-.957 0-1.661-.213-2.1-.665q-.678-.678-.678-2.273V9.41c0-.625.053-1.117.16-1.463q.16-.518.518-.877c.465-.465 1.197-.705 2.194-.705h.133c.797 0 1.488.147 2.047.439.16.093.252.2.252.332 0 .08-.04.213-.106.4l-.252.637q-.1.24-.28.24a.54.54 0 0 1-.239-.067c-.425-.173-.824-.266-1.183-.266h-.053c-.346 0-.599.093-.758.253-.2.2-.293.611-.293 1.223v.452c0 .545.08.917.266 1.117.173.186.466.279.864.279m5.133-4.534v5.743c0 .133-.04.24-.106.293-.067.066-.186.093-.346.093h-1.223c-.173 0-.292-.027-.359-.093-.066-.053-.093-.16-.093-.293V6.871c0-.132.027-.226.093-.292.067-.053.186-.093.36-.093h1.222c.16 0 .28.04.346.093.066.066.106.16.106.292m-.983-.89h-.16c-.718 0-1.077-.36-1.077-1.104v-.066c0-.731.36-1.104 1.077-1.104h.16c.717 0 1.076.373 1.076 1.104v.066c0 .745-.359 1.104-1.077 1.104m5.525 5.424h.146c.452 0 .93-.053 1.41-.173.132-.027.212-.04.252-.04.133 0 .212.08.24.226l.105.665c.027.186.054.306.054.359 0 .16-.12.279-.346.359a6.1 6.1 0 0 1-2.007.319h-.253q-1.635 0-2.313-.678a1.9 1.9 0 0 1-.532-.904c-.093-.346-.133-.811-.133-1.383v-.744c0-1.157.266-1.968.798-2.446.452-.4 1.143-.599 2.087-.599h.186c.93 0 1.609.226 2.007.665.426.479.639 1.263.639 2.38v.69c0 .253-.133.373-.386.373h-3.19v.107c0 .319.08.531.265.65.173.12.492.174.97.174m-1.236-2.313h1.462c.106 0 .16-.054.16-.173v-.213c0-.266-.054-.465-.134-.611-.106-.16-.319-.24-.611-.24h-.12c-.266 0-.452.067-.558.186q-.2.24-.2.718zM2.605 25.224v1.037c0 .519.08.851.239 1.01.12.134.306.187.558.187h.053c.24 0 .426-.053.559-.186.16-.16.24-.492.24-1.01v-1.038c0-.505-.08-.85-.24-1.01-.133-.12-.32-.186-.559-.186h-.053c-.252 0-.438.067-.558.186-.16.16-.24.505-.24 1.01m3.788.08v.864c0 .665-.066 1.17-.199 1.543a1.9 1.9 0 0 1-.638.89c-.439.346-1.117.519-2.047.519h-.16c-.93 0-1.622-.173-2.047-.519a1.9 1.9 0 0 1-.638-.89c-.133-.373-.2-.878-.2-1.543v-.85c0-.652.067-1.157.2-1.53a2 2 0 0 1 .638-.903c.425-.346 1.117-.519 2.047-.519h.16c.93 0 1.608.173 2.047.519.292.24.505.531.638.89.133.373.2.878.2 1.53m.966-.678v-.173c0-.651.173-1.143.518-1.488.4-.4 1.077-.599 2.021-.599h.133c.744 0 1.396.08 1.94.24q.16.06.2.12c.027.052.04.119.027.225l-.146 1.09c-.027.173-.147.226-.36.173-.531-.12-1.01-.186-1.408-.186h-.014c-.292 0-.505.027-.611.08-.12.053-.173.146-.173.279v.04c0 .133.04.226.146.279.107.053.306.12.612.173l.625.133c.571.133.983.332 1.223.598.239.266.358.678.358 1.223v.2c0 1.395-.877 2.087-2.605 2.087h-.133c-.877 0-1.609-.12-2.22-.36-.12-.04-.2-.092-.226-.159-.027-.053-.027-.16 0-.306l.186-.877c.04-.253.186-.332.452-.253.611.213 1.143.306 1.595.306h.04c.293 0 .492-.026.612-.093.106-.053.173-.16.173-.306v-.04c0-.106-.054-.199-.147-.252q-.16-.08-.638-.2l-.585-.132q-.877-.2-1.236-.599c-.24-.266-.36-.664-.36-1.223m8.363-.452H13.61c-.133 0-.226-.013-.28-.066-.053-.053-.066-.16-.066-.32v-.916c0-.16.013-.253.067-.306q.08-.08.279-.08h4.493c.133 0 .226.026.293.08.053.053.093.16.093.306v.252c0 .346-.107.665-.293.944l-2.286 3.244h2.273c.133 0 .213.026.266.08.053.053.08.146.08.305v.918q0 .238-.08.319c-.053.053-.133.066-.266.066H13.61c-.28 0-.412-.12-.412-.386v-.305c0-.346.093-.652.292-.944zm6.76 3.23h.106c.359 0 .744-.052 1.156-.172a2 2 0 0 1 .253-.04c.133 0 .212.08.239.226l.12.678c.026.186.053.306.053.359 0 .16-.12.28-.346.359-.585.213-1.223.306-1.914.306h-.16c-.957 0-1.661-.213-2.1-.665q-.678-.678-.678-2.273v-.771c0-.625.053-1.117.16-1.463q.16-.518.518-.877c.465-.465 1.196-.705 2.193-.705h.133c.798 0 1.49.146 2.048.439.16.093.252.2.252.332 0 .08-.04.213-.106.4l-.253.637q-.1.24-.279.24a.54.54 0 0 1-.24-.067c-.425-.173-.823-.266-1.182-.266h-.053c-.346 0-.599.093-.758.253-.2.2-.293.611-.293 1.223v.452c0 .545.08.917.266 1.116.173.187.465.28.864.28m5.145-3.23h-2.113c-.133 0-.226-.013-.28-.066-.053-.053-.066-.16-.066-.32v-.916c0-.16.013-.253.066-.306q.08-.08.28-.08h4.493c.133 0 .226.026.293.08.053.053.093.16.093.306v.252c0 .346-.107.665-.293.944l-2.286 3.244h2.273c.133 0 .212.026.266.08.053.053.08.146.08.305v.918q0 .238-.08.319c-.053.053-.133.066-.266.066h-4.573c-.28 0-.413-.12-.413-.386v-.305c0-.346.094-.652.293-.944zm6.865 3.23h.147c.452 0 .93-.052 1.409-.172.133-.027.213-.04.252-.04.133 0 .213.08.24.226l.106.665c.027.186.053.306.053.359 0 .16-.12.279-.345.359a1.93 1.93 0 0 0-.851.638c-.226.292-.332.585-.332.85v.04c0 .253.12.373.358.373h.067c.146 0 .332-.027.545-.107.066-.013.12-.026.16-.026.066 0 .12.066.159.172l.066.28c.04.186.067.279.067.305 0 .08-.067.147-.186.2q-.519.2-1.077.2h-.08c-.465 0-.81-.094-1.05-.293-.24-.2-.359-.479-.359-.851v-.04c0-.24.08-.505.253-.77a2.2 2.2 0 0 1 .69-.666c-.105.014-.252.014-.438.014h-.252q-1.635 0-2.313-.678a1.9 1.9 0 0 1-.532-.904c-.093-.346-.133-.811-.133-1.383v-.744c0-1.157.266-1.968.797-2.447.452-.398 1.144-.598 2.088-.598h.186c.93 0 1.608.226 2.007.665.425.479.638 1.263.638 2.38v.69c0 .254-.133.373-.385.373h-3.19v.107c0 .319.079.531.265.65.173.12.492.174.97.174m-1.236-2.312h1.462c.107 0 .16-.054.16-.173v-.213c0-.266-.053-.465-.133-.611-.106-.16-.319-.24-.611-.24h-.12c-.266 0-.452.067-.559.186q-.198.24-.199.718zm8.35 1.555v-1.688c0-.333-.054-.572-.16-.705-.12-.133-.333-.213-.625-.213h-.133c-.293 0-.492.08-.612.226-.133.147-.186.559-.186 1.25v.585c0 .638.067 1.037.2 1.17.106.133.305.186.611.186h.146c.253 0 .439-.053.572-.173.12-.12.186-.332.186-.638m-.027-4.041h.026v-2.22c0-.133.027-.226.093-.293.067-.053.186-.093.36-.093h1.235c.16 0 .28.04.346.093.053.067.093.16.093.293v6.048c0 .93-.173 1.569-.518 1.941a2.07 2.07 0 0 1-.918.572c-.372.12-.864.173-1.489.173h-.226c-.983 0-1.688-.2-2.14-.599-.465-.398-.691-1.143-.691-2.246V25.21c0-1.063.213-1.808.665-2.233.425-.399 1.01-.612 1.768-.612h.16q.756 0 1.236.24m6.93-.24h.106c.771 0 1.343.186 1.688.545.32.346.492.93.492 1.755v3.948c0 .133-.04.24-.106.293-.067.066-.186.093-.346.093h-1.223c-.173 0-.292-.027-.359-.093-.066-.053-.093-.16-.093-.293v-3.762c0-.292-.053-.505-.146-.611-.107-.107-.306-.173-.585-.173h-.08c-.292 0-.478.066-.585.173s-.146.319-.146.611v3.762c0 .133-.04.24-.106.293-.067.066-.186.093-.346.093h-1.223c-.173 0-.292-.027-.359-.093-.066-.053-.093-.16-.093-.293v-5.756c0-.133.027-.226.093-.279s.186-.093.359-.093h.625c.16 0 .266.026.332.066q.1.06.16.24l.08.252h.04c.425-.452 1.023-.678 1.82-.678m5.48 2.858v1.037c0 .519.08.851.24 1.01.119.134.305.187.558.187h.053c.24 0 .425-.053.558-.186.16-.16.24-.492.24-1.01v-1.038c0-.505-.08-.85-.24-1.01-.133-.12-.319-.186-.558-.186h-.053c-.253 0-.439.067-.559.186-.16.16-.239.505-.239 1.01m3.789.08v.864c0 .665-.067 1.17-.2 1.543a1.9 1.9 0 0 1-.638.89c-.438.346-1.116.519-2.047.519h-.16c-.93 0-1.621-.173-2.047-.519a1.9 1.9 0 0 1-.638-.89c-.133-.373-.2-.878-.2-1.543v-.85c0-.652.067-1.157.2-1.53a2 2 0 0 1 .638-.903c.426-.346 1.117-.519 2.047-.519h.16c.93 0 1.609.173 2.047.519.293.24.505.531.638.89.133.373.2.878.2 1.53m.965-.678v-.173c0-.651.173-1.143.519-1.488.399-.4 1.077-.599 2.02-.599h.133c.745 0 1.396.08 1.941.24q.16.06.2.12c.026.052.04.119.026.225l-.146 1.09c-.026.173-.146.226-.359.173-.532-.12-1.01-.186-1.409-.186h-.013c-.293 0-.505.027-.612.08-.12.053-.173.146-.173.279v.04c0 .133.04.226.147.279s.305.12.611.173l.625.133c.572.133.984.332 1.223.598s.359.678.359 1.223v.2c0 1.395-.877 2.087-2.606 2.087h-.133c-.877 0-1.608-.12-2.22-.36-.12-.04-.2-.092-.226-.159-.026-.053-.026-.16 0-.306l.186-.877c.04-.253.186-.332.452-.253.612.213 1.144.306 1.596.306h.04c.292 0 .491-.026.611-.093.106-.053.173-.16.173-.306v-.04c0-.106-.053-.199-.146-.252q-.16-.08-.639-.2l-.584-.132q-.878-.2-1.237-.599c-.239-.266-.359-.664-.359-1.223m1.237-3.895 2.087-1.781c.08-.08.173-.12.252-.12.093 0 .187.067.266.173l.638.824a.4.4 0 0 1 .08.226c0 .107-.08.213-.212.32l-2.101 1.435a.5.5 0 0 1-.266.093c-.106 0-.213-.053-.319-.186l-.399-.465c-.106-.12-.146-.226-.146-.306s.04-.16.12-.213m8.018 6.674h.106a4.1 4.1 0 0 0 1.156-.173 2 2 0 0 1 .253-.04c.133 0 .213.08.24.226l.12.678c.026.186.052.306.052.359 0 .16-.12.28-.345.359-.585.213-1.224.306-1.915.306h-.16c-.956 0-1.661-.213-2.1-.665q-.678-.678-.678-2.273v-.771c0-.625.053-1.117.16-1.463q.16-.518.518-.877c.466-.465 1.197-.705 2.194-.705h.133c.797 0 1.489.146 2.047.439.16.093.253.2.253.332 0 .08-.04.213-.107.4l-.252.637q-.1.24-.28.24a.54.54 0 0 1-.239-.067c-.425-.173-.824-.266-1.183-.266h-.053c-.346 0-.598.093-.758.253-.2.2-.292.611-.292 1.223v.452c0 .545.08.917.266 1.116.172.187.465.28.864.28m5.132-4.533v5.743c0 .132-.04.239-.106.292-.066.066-.186.093-.346.093h-1.223c-.172 0-.292-.027-.359-.093-.066-.053-.093-.16-.093-.293v-5.742c0-.134.027-.227.093-.293.067-.053.187-.093.36-.093h1.222c.16 0 .28.04.346.093.067.066.106.16.106.293m-.983-.891h-.16c-.718 0-1.077-.36-1.077-1.104v-.066c0-.731.36-1.104 1.077-1.104h.16c.718 0 1.077.373 1.077 1.104v.066c0 .745-.36 1.104-1.077 1.104m4.289 3.243v1.037c0 .519.08.851.239 1.01.12.134.306.187.558.187h.053c.24 0 .426-.053.559-.186.16-.16.24-.492.24-1.01v-1.038c0-.505-.08-.85-.24-1.01-.133-.12-.32-.186-.559-.186h-.053c-.252 0-.438.067-.558.186-.16.16-.24.505-.24 1.01m3.788.08v.864c0 .665-.066 1.17-.199 1.543a1.9 1.9 0 0 1-.638.89c-.439.346-1.117.519-2.047.519h-.16c-.93 0-1.622-.173-2.047-.519a1.9 1.9 0 0 1-.638-.89c-.133-.373-.2-.878-.2-1.543v-.85c0-.652.067-1.157.2-1.53a2 2 0 0 1 .638-.903c.425-.346 1.117-.519 2.047-.519h.16c.93 0 1.608.173 2.047.519.292.24.505.531.638.89.133.373.2.878.2 1.53m4.542-2.499h1.143c.186 0 .32.027.386.08s.12.16.146.319c0 .053.24 1.236.705 3.536h.04c.239-1.396.451-2.685.624-3.882.014-.146.053-.24.107-.292q.08-.08.279-.08h1.356c.146 0 .24.04.292.093.04.066.053.173.027.306-.213 1.037-.479 2.18-.771 3.43s-.505 2.034-.638 2.366c-.053.133-.12.226-.186.266-.067.04-.173.053-.306.053h-1.463c-.279 0-.451-.093-.505-.306-.252-.904-.465-2.047-.651-3.43h-.053a37 37 0 0 1-.665 3.43c-.053.213-.213.306-.478.306H82.72c-.266 0-.439-.093-.505-.293-.133-.358-.36-1.183-.678-2.459a62 62 0 0 1-.745-3.363c-.04-.147-.026-.253.027-.306s.16-.093.319-.093h1.303c.132 0 .239.026.305.08.053.053.093.16.12.292.186 1.236.399 2.526.651 3.882h.054c.319-1.648.545-2.832.651-3.536.027-.173.066-.28.133-.332.066-.04.2-.067.412-.067m11.71.08c-.186 1.25-.531 2.632-1.036 4.16a28 28 0 0 1-1.875 4.335c-.093.186-.213.279-.372.279a.85.85 0 0 1-.386-.107l-.678-.292c-.239-.106-.345-.213-.345-.332a.46.46 0 0 1 .066-.226c.452-.918.718-1.45.771-1.596-.372-.133-.651-.425-.864-.904-.24-.531-.518-1.342-.824-2.459a35 35 0 0 1-.678-2.871c-.027-.134-.013-.227.053-.293.067-.053.186-.093.346-.093h1.21c.146 0 .252.026.319.066.066.04.12.12.146.253.306 1.675.651 3.164 1.037 4.454h.066c.372-1.064.718-2.526 1.037-4.414q.02-.2.12-.28c.066-.053.173-.08.306-.08h1.223c.146 0 .252.04.305.094.054.053.067.16.054.306m6.52 1.967v3.762c0 .133-.04.24-.106.293-.067.066-.186.093-.346.093h-1.223c-.173 0-.292-.027-.359-.093-.066-.053-.093-.16-.093-.293v-3.762c0-.292-.053-.505-.146-.611-.106-.107-.306-.173-.585-.173h-.027c-.292 0-.478.066-.584.173-.107.106-.147.319-.147.611v3.762c0 .133-.04.24-.106.293-.067.066-.186.093-.346.093h-1.223c-.173 0-.292-.027-.359-.093-.066-.053-.093-.16-.093-.293v-5.756c0-.133.027-.226.093-.279.067-.053.186-.093.36-.093h.624c.16 0 .266.026.332.066q.1.06.16.24l.08.252h.04c.425-.452 1.023-.678 1.821-.678h.053c.758 0 1.343.213 1.755.612.425-.399 1.037-.612 1.808-.612h.053c.771 0 1.343.186 1.688.545.319.346.492.93.492 1.755v3.948c0 .133-.04.24-.106.293-.067.066-.186.093-.346.093h-1.223c-.173 0-.292-.027-.359-.093-.066-.053-.093-.16-.093-.293v-3.762c0-.292-.053-.505-.146-.611-.106-.107-.306-.173-.585-.173h-.027c-.292 0-.478.066-.585.173s-.146.319-.146.611"/></svg>