<svg xmlns="http://www.w3.org/2000/svg" fill="none" viewBox="0 0 88 28"><path fill="#007990" d="m5.304 10.664-2.64-3.708H2.64v3.636c0 .168-.036.288-.084.336-.06.048-.168.072-.336.072H1.212c-.168 0-.288-.024-.348-.084-.072-.048-.096-.156-.096-.324v-6.96c0-.156.024-.264.084-.312s.168-.084.336-.084h.528c.36 0 .612.12.768.336l2.64 3.936h.024V3.644c0-.156.024-.264.096-.324.06-.048.18-.084.348-.084H6.6c.168 0 .276.036.336.084.048.048.084.156.084.324v6.96c0 .168-.036.276-.096.324Q6.834 11 6.6 11h-.528c-.36 0-.612-.108-.768-.336m4.841-3.072v.936c0 .468.072.768.216.912.108.12.276.168.504.168h.048c.216 0 .384-.048.504-.168.144-.144.216-.444.216-.912v-.936c0-.456-.072-.768-.216-.912-.12-.108-.288-.168-.504-.168h-.048c-.228 0-.396.06-.504.168-.144.144-.216.456-.216.912m3.42.072v.78c0 .6-.06 1.056-.18 1.392s-.312.6-.576.804c-.396.312-1.008.468-1.848.468h-.144c-.84 0-1.464-.156-1.848-.468a1.7 1.7 0 0 1-.576-.804c-.12-.336-.18-.792-.18-1.392v-.768c0-.588.06-1.044.18-1.38s.312-.6.576-.816c.384-.312 1.008-.468 1.848-.468h.144c.84 0 1.452.156 1.848.468.264.216.456.48.576.804.12.336.18.792.18 1.38m4.1-2.256h1.032c.168 0 .288.024.348.072s.107.144.131.288c0 .048.216 1.116.637 3.192h.036c.215-1.26.407-2.424.564-3.504.011-.132.047-.216.096-.264q.07-.072.252-.072h1.224c.131 0 .216.036.264.084.036.06.048.156.024.276-.192.936-.433 1.968-.697 3.096s-.456 1.836-.576 2.136c-.047.12-.108.204-.168.24s-.155.048-.276.048h-1.32c-.252 0-.408-.084-.456-.276-.228-.816-.42-1.848-.588-3.096h-.047a33 33 0 0 1-.6 3.096c-.049.192-.193.276-.433.276h-1.295c-.24 0-.396-.084-.457-.264-.12-.324-.323-1.068-.611-2.22a56 56 0 0 1-.673-3.036c-.036-.132-.024-.228.024-.276.049-.048.145-.084.289-.084h1.176c.12 0 .216.024.276.072.048.048.084.144.107.264.168 1.116.36 2.28.588 3.504h.048c.288-1.488.492-2.556.588-3.192.024-.156.06-.252.12-.3.06-.036.18-.06.372-.06m8.692 5.1h-.024c-.264.408-.792.6-1.572.6h-.18c-.612 0-1.092-.156-1.428-.468-.348-.312-.516-.78-.516-1.38v-.132c0-.648.18-1.116.552-1.38s.972-.396 1.812-.396h.084c.312 0 .6.024.84.048v-.252c0-.252-.072-.432-.204-.528-.144-.084-.384-.132-.72-.132-.408 0-.864.072-1.392.204-.144.036-.252.036-.3 0-.06-.036-.096-.108-.108-.228l-.096-.636c-.024-.108-.024-.192-.024-.24 0-.144.096-.252.288-.312a7.7 7.7 0 0 1 2.052-.264c.924 0 1.584.204 1.968.588.3.312.456.816.456 1.5v3.564c0 .12-.036.216-.096.264s-.168.072-.312.072h-.564c-.144 0-.24-.012-.3-.048s-.108-.108-.144-.228zm-.432-1.536v-.336a3.5 3.5 0 0 0-.576-.036h-.132q-.432 0-.612.108c-.12.072-.168.216-.168.432v.048c0 .216.048.36.168.432.108.084.276.12.504.12h.084c.24 0 .42-.06.564-.18.108-.096.168-.3.168-.588m7.58-1.632v1.536c0 .276.048.468.168.576.096.108.276.156.54.156h.108c.276 0 .468-.072.588-.24q.144-.216.144-1.044v-.516c0-.6-.06-.972-.156-1.092-.108-.12-.312-.192-.6-.192h-.048c-.276 0-.468.06-.588.18-.108.108-.156.324-.156.636m0-2.004h.024q.522-.324 1.368-.324h.108c.72 0 1.248.216 1.572.648.264.372.408 1.032.408 1.98v.864c0 .96-.204 1.632-.612 2.004-.432.408-1.116.6-2.052.6h-.24c-.984 0-1.656-.192-2.016-.588-.324-.348-.48-.912-.48-1.704V3.224c0-.12.024-.204.084-.264.048-.048.156-.084.312-.084h1.116a.5.5 0 0 1 .312.084c.06.06.096.144.096.264zm7.981 5.172h-.024c-.264.408-.792.6-1.572.6h-.18c-.612 0-1.092-.156-1.428-.468-.348-.312-.516-.78-.516-1.38v-.132c0-.648.18-1.116.552-1.38s.972-.396 1.812-.396h.084c.312 0 .6.024.84.048v-.252c0-.252-.072-.432-.204-.528-.144-.084-.384-.132-.72-.132-.408 0-.864.072-1.392.204-.144.036-.252.036-.3 0-.06-.036-.096-.108-.108-.228l-.096-.636c-.024-.108-.024-.192-.024-.24 0-.144.096-.252.288-.312a7.7 7.7 0 0 1 2.052-.264c.924 0 1.584.204 1.968.588.3.312.456.816.456 1.5v3.564c0 .12-.036.216-.096.264s-.168.072-.312.072h-.564c-.144 0-.24-.012-.3-.048s-.108-.108-.144-.228zm-.432-1.536v-.336a3.5 3.5 0 0 0-.576-.036h-.132q-.432 0-.612.108c-.12.072-.168.216-.168.432v.048c0 .216.048.36.168.432.108.084.276.12.504.12h.084c.24 0 .42-.06.564-.18.108-.096.168-.3.168-.588m6.226-3.96h.096c.696 0 1.212.168 1.524.492.288.312.444.84.444 1.584v3.564c0 .12-.036.216-.096.264-.06.06-.168.084-.312.084h-1.104c-.156 0-.264-.024-.324-.084-.06-.048-.084-.144-.084-.264V7.256c0-.264-.048-.456-.132-.552-.096-.096-.276-.156-.528-.156h-.072c-.264 0-.432.06-.528.156s-.132.288-.132.552v3.396c0 .12-.036.216-.096.264-.06.06-.168.084-.312.084H44.52c-.156 0-.264-.024-.324-.084-.06-.048-.084-.144-.084-.264V5.456c0-.12.024-.204.084-.252s.168-.084.324-.084h.564c.144 0 .24.024.3.06q.09.054.144.216l.072.228h.036c.384-.408.924-.612 1.644-.612m5.127 3.66v1.98c0 .12-.036.216-.096.264-.06.06-.168.084-.312.084h-1.104c-.156 0-.264-.024-.324-.084-.06-.048-.084-.144-.084-.264V3.224c0-.12.024-.204.084-.264.06-.048.168-.084.324-.084h1.104a.5.5 0 0 1 .312.084c.06.06.096.144.096.264v3.912h.084l1.14-1.74a.55.55 0 0 1 .504-.276h1.392c.132 0 .204.048.204.144a.54.54 0 0 1-.096.228l-1.38 2.064c-.108.168-.156.288-.156.36 0 .084.048.204.156.36l1.476 2.328a.5.5 0 0 1 .072.204c0 .132-.084.192-.252.192h-1.332c-.168 0-.3-.012-.372-.06q-.108-.054-.216-.252l-1.14-2.016zm5.656-1.08v.936c0 .468.072.768.216.912.108.12.276.168.504.168h.048c.216 0 .384-.048.504-.168.144-.144.216-.444.216-.912v-.936c0-.456-.072-.768-.216-.912-.12-.108-.288-.168-.504-.168h-.048c-.228 0-.396.06-.504.168-.144.144-.216.456-.216.912m3.42.072v.78c0 .6-.06 1.056-.18 1.392s-.312.6-.576.804c-.396.312-1.008.468-1.848.468h-.144c-.84 0-1.464-.156-1.848-.468a1.7 1.7 0 0 1-.576-.804c-.12-.336-.18-.792-.18-1.392v-.768c0-.588.06-1.044.18-1.38s.312-.6.576-.816c.384-.312 1.008-.468 1.848-.468h.144c.84 0 1.452.156 1.848.468.264.216.456.48.576.804.12.336.18.792.18 1.38m4.1-2.256h1.031c.168 0 .288.024.348.072s.108.144.132.288c0 .048.216 1.116.636 3.192h.036c.216-1.26.408-2.424.564-3.504.012-.132.048-.216.096-.264q.072-.072.252-.072h1.224c.132 0 .216.036.264.084.036.06.048.156.024.276-.192.936-.432 1.968-.696 3.096s-.456 1.836-.576 2.136c-.048.12-.108.204-.168.24s-.156.048-.276.048h-1.32c-.252 0-.408-.084-.456-.276-.228-.816-.42-1.848-.588-3.096h-.048a33 33 0 0 1-.6 3.096c-.048.192-.192.276-.432.276h-1.296c-.24 0-.396-.084-.456-.264-.12-.324-.324-1.068-.612-2.22a56 56 0 0 1-.672-3.036c-.036-.132-.024-.228.024-.276s.144-.084.288-.084h1.176c.12 0 .216.024.276.072.048.048.084.144.108.264.168 1.116.36 2.28.588 3.504h.048c.288-1.488.492-2.556.588-3.192.024-.156.06-.252.12-.3.06-.036.18-.06.372-.06m7.058 2.184v.936c0 .468.072.768.216.912.108.12.276.168.504.168h.048c.216 0 .384-.048.504-.168.144-.144.216-.444.216-.912v-.936c0-.456-.072-.768-.216-.912-.12-.108-.288-.168-.504-.168h-.048c-.228 0-.396.06-.504.168-.144.144-.216.456-.216.912m3.42.072v.78c0 .6-.06 1.056-.18 1.392s-.312.6-.576.804c-.396.312-1.008.468-1.848.468h-.144c-.84 0-1.464-.156-1.848-.468a1.7 1.7 0 0 1-.576-.804c-.12-.336-.18-.792-.18-1.392v-.768c0-.588.06-1.044.18-1.38s.312-.6.576-.816c.384-.312 1.008-.468 1.848-.468h.144c.84 0 1.452.156 1.848.468.264.216.456.48.576.804.12.336.18.792.18 1.38m.872-.612v-.156c0-.588.156-1.032.468-1.344.36-.36.972-.54 1.824-.54h.12c.672 0 1.26.072 1.752.216q.144.054.18.108a.34.34 0 0 1 .024.204l-.132.984c-.024.156-.132.204-.324.156a6 6 0 0 0-1.272-.168h-.012c-.264 0-.456.024-.552.072-.108.048-.156.132-.156.252v.036c0 .12.036.204.132.252s.276.108.552.156l.564.12c.516.12.888.3 1.104.54s.324.612.324 1.104v.18c0 1.26-.792 1.884-2.352 1.884h-.12c-.792 0-1.452-.108-2.004-.324-.108-.036-.18-.084-.204-.144-.024-.048-.024-.144 0-.276l.168-.792c.036-.228.168-.3.408-.228.552.192 1.032.276 1.44.276h.036c.264 0 .444-.024.552-.084.096-.048.156-.144.156-.276v-.036a.26.26 0 0 0-.132-.228q-.144-.072-.576-.18l-.528-.12q-.792-.18-1.116-.54c-.216-.24-.324-.6-.324-1.104m1.116-3.516 1.884-1.608a.34.34 0 0 1 .228-.108c.084 0 .168.06.24.156l.576.744a.35.35 0 0 1 .072.204c0 .096-.072.192-.192.288L78.96 4.508a.45.45 0 0 1-.24.084c-.096 0-.192-.048-.288-.168l-.36-.42c-.096-.108-.132-.204-.132-.276a.23.23 0 0 1 .108-.192m7.237 6.024h.096c.324 0 .672-.048 1.044-.156.12-.024.192-.036.228-.036.12 0 .192.072.216.204l.108.612c.024.168.048.276.048.324 0 .144-.108.252-.312.324-.528.192-1.104.276-1.728.276h-.144c-.864 0-1.5-.192-1.896-.6q-.612-.612-.612-2.052V7.76c0-.564.048-1.008.144-1.32q.144-.468.468-.792c.42-.42 1.08-.636 1.98-.636h.12c.72 0 1.344.132 1.848.396.144.084.228.18.228.3 0 .072-.036.192-.096.36l-.228.576q-.09.216-.252.216a.5.5 0 0 1-.216-.06c-.384-.156-.744-.24-1.068-.24h-.048c-.312 0-.54.084-.684.228-.18.18-.264.552-.264 1.104V8.3c0 .492.072.828.24 1.008.156.168.42.252.78.252M83.81 3.536l1.884-1.608a.34.34 0 0 1 .228-.108c.084 0 .168.06.24.156l.576.744a.35.35 0 0 1 .072.204c0 .096-.072.192-.192.288l-1.896 1.296a.4.4 0 0 1-.24.084c-.096 0-.192-.048-.288-.168l-.36-.42c-.096-.108-.132-.204-.132-.276a.23.23 0 0 1 .108-.192M2.568 20.644H.66c-.12 0-.204-.012-.252-.06s-.06-.144-.06-.288v-.828c0-.144.012-.228.06-.276q.072-.072.252-.072h4.056c.12 0 .204.024.264.072.048.048.084.144.084.276v.228c0 .312-.096.6-.264.852l-2.064 2.928h2.052c.12 0 .192.024.24.072s.072.132.072.276v.828q0 .216-.072.288c-.048.048-.12.06-.24.06H.66c-.252 0-.372-.108-.372-.348v-.276c0-.312.084-.588.264-.852zm6.809 3.864h-.024c-.264.408-.792.6-1.572.6H7.6c-.612 0-1.092-.156-1.428-.468-.348-.312-.516-.78-.516-1.38v-.132c0-.648.18-1.116.552-1.38s.972-.396 1.812-.396h.084c.312 0 .6.024.84.048v-.252c0-.252-.072-.432-.204-.528-.144-.084-.384-.132-.72-.132-.408 0-.864.072-1.392.204-.144.036-.252.036-.3 0-.06-.036-.096-.108-.108-.228l-.096-.636c-.024-.108-.024-.192-.024-.24 0-.144.096-.252.288-.312a7.7 7.7 0 0 1 2.052-.264c.924 0 1.584.204 1.968.588.3.312.456.816.456 1.5v3.564c0 .12-.036.216-.096.264S10.6 25 10.457 25h-.564c-.144 0-.24-.012-.3-.048s-.108-.108-.144-.228zm-.432-1.536v-.336a3.5 3.5 0 0 0-.576-.036h-.132q-.432 0-.612.108c-.12.072-.168.216-.168.432v.048c0 .216.048.36.168.432.108.084.276.12.504.12h.084c.24 0 .42-.06.564-.18.108-.096.168-.3.168-.588m5.818.588h.096c.324 0 .672-.048 1.044-.156.12-.024.192-.036.228-.036.12 0 .192.072.216.204l.108.612c.024.168.048.276.048.324 0 .144-.108.252-.312.324-.528.192-1.104.276-1.728.276h-.144c-.864 0-1.5-.192-1.896-.6q-.612-.612-.612-2.052v-.696c0-.564.048-1.008.144-1.32q.144-.468.468-.792c.42-.42 1.08-.636 1.98-.636h.12c.72 0 1.344.132 1.848.396.144.084.228.18.228.3 0 .072-.036.192-.096.36l-.228.576q-.09.216-.252.216a.5.5 0 0 1-.216-.06c-.384-.156-.744-.24-1.068-.24h-.048c-.312 0-.54.084-.684.228-.18.18-.264.552-.264 1.104v.408c0 .492.072.828.24 1.008.156.168.42.252.78.252m4.645-2.916H17.5c-.12 0-.204-.012-.252-.06s-.06-.144-.06-.288v-.828c0-.144.012-.228.06-.276q.072-.072.252-.072h4.056c.12 0 .204.024.264.072.048.048.084.144.084.276v.228c0 .312-.096.6-.264.852l-2.064 2.928h2.052c.12 0 .192.024.24.072s.072.132.072.276v.828q0 .216-.072.288c-.048.048-.12.06-.24.06H17.5c-.252 0-.372-.108-.372-.348v-.276c0-.312.084-.588.264-.852zm8.429-1.164c-.168 1.128-.48 2.376-.936 3.756a25.5 25.5 0 0 1-1.692 3.912c-.084.168-.192.252-.336.252a.8.8 0 0 1-.348-.096l-.612-.264c-.216-.096-.312-.192-.312-.3 0-.048.012-.12.06-.204.408-.828.648-1.308.696-1.44-.336-.12-.588-.384-.78-.816-.216-.48-.468-1.212-.744-2.22a32 32 0 0 1-.612-2.592c-.024-.12-.012-.204.048-.264a.5.5 0 0 1 .312-.084h1.092c.132 0 .228.024.288.06s.108.108.132.228c.276 1.512.588 2.856.936 4.02h.06c.336-.96.648-2.28.936-3.984q.018-.18.108-.252c.06-.048.156-.072.276-.072h1.104c.132 0 .228.036.276.084s.06.144.048.276m3.869-.468h.096c.696 0 1.212.168 1.524.492.288.312.444.84.444 1.584v3.564c0 .12-.036.216-.096.264-.06.06-.168.084-.312.084h-1.104c-.156 0-.264-.024-.324-.084-.06-.048-.084-.144-.084-.264v-3.396c0-.264-.048-.456-.132-.552-.096-.096-.276-.156-.528-.156h-.072c-.264 0-.432.06-.528.156s-.132.288-.132.552v3.396c0 .12-.036.216-.096.264-.06.06-.168.084-.312.084h-1.104c-.156 0-.264-.024-.324-.084-.06-.048-.084-.144-.084-.264v-5.196c0-.12.024-.204.084-.252s.168-.084.324-.084h.564c.144 0 .24.024.3.06q.09.054.144.216l.072.228h.036c.384-.408.924-.612 1.644-.612m6.675 5.496h-.024c-.264.408-.792.6-1.572.6h-.18c-.612 0-1.092-.156-1.428-.468-.348-.312-.516-.78-.516-1.38v-.132c0-.648.18-1.116.552-1.38s.972-.396 1.812-.396h.084c.312 0 .6.024.84.048v-.252c0-.252-.072-.432-.204-.528-.144-.084-.384-.132-.72-.132-.408 0-.864.072-1.392.204-.144.036-.252.036-.3 0-.06-.036-.096-.108-.108-.228l-.096-.636c-.024-.108-.024-.192-.024-.24 0-.144.096-.252.288-.312a7.7 7.7 0 0 1 2.052-.264c.924 0 1.584.204 1.968.588.3.312.456.816.456 1.5v3.564c0 .12-.036.216-.096.264s-.168.072-.312.072h-.564c-.144 0-.24-.012-.3-.048s-.108-.108-.144-.228zm-.432-1.536v-.336a3.5 3.5 0 0 0-.576-.036h-.132q-.432 0-.612.108c-.12.072-.168.216-.168.432v.048c0 .216.048.36.168.432.108.084.276.12.504.12h.084c.24 0 .42-.06.564-.18.108-.096.168-.3.168-.588m5.503-1.92v-.156c0-.588.156-1.032.468-1.344.36-.36.972-.54 1.824-.54h.12c.672 0 1.26.072 1.752.216q.144.054.18.108c.024.048.036.108.024.204l-.132.984c-.024.156-.132.204-.324.156a6 6 0 0 0-1.272-.168h-.012c-.264 0-.456.024-.552.072-.108.048-.156.132-.156.252v.036c0 .12.036.204.132.252s.276.108.552.156l.564.12c.516.12.888.3 1.104.54s.324.612.324 1.104v.18c0 1.26-.792 1.884-2.352 1.884h-.12c-.792 0-1.452-.108-2.004-.324-.108-.036-.18-.084-.204-.144-.024-.048-.024-.144 0-.276l.168-.792c.036-.228.168-.3.408-.228.552.192 1.032.276 1.44.276h.036c.264 0 .444-.024.552-.084.096-.048.156-.144.156-.276v-.036a.26.26 0 0 0-.132-.228q-.144-.072-.576-.18l-.528-.12q-.792-.18-1.116-.54c-.216-.24-.324-.6-.324-1.104m7.538-1.584v5.184c0 .12-.036.216-.096.264-.06.06-.168.084-.312.084h-1.104c-.156 0-.264-.024-.324-.084-.06-.048-.084-.144-.084-.264v-5.184c0-.12.024-.204.084-.264.06-.048.168-.084.324-.084h1.104a.5.5 0 0 1 .312.084c.06.06.096.144.096.264m-.888-.804h-.144c-.648 0-.972-.324-.972-.996v-.06c0-.66.324-.996.972-.996h.144c.648 0 .972.336.972.996v.06c0 .672-.324.996-.972.996m4.987 4.896h.132c.408 0 .84-.048 1.272-.156.12-.024.192-.036.228-.036.12 0 .192.072.216.204l.096.6c.024.168.048.276.048.324 0 .144-.108.252-.312.324a1.74 1.74 0 0 0-.768.576c-.204.264-.3.528-.3.768v.036c0 .228.108.336.324.336h.06c.132 0 .3-.024.492-.096.06-.012.108-.024.144-.024.06 0 .108.06.144.156l.06.252c.036.168.06.252.06.276 0 .072-.06.132-.168.18q-.468.18-.972.18h-.072c-.42 0-.732-.084-.948-.264s-.324-.432-.324-.768v-.036c0-.216.072-.456.228-.696s.36-.432.624-.6c-.096.012-.228.012-.396.012h-.228q-1.476 0-2.088-.612a1.7 1.7 0 0 1-.48-.816c-.084-.312-.12-.732-.12-1.248v-.672c0-1.044.24-1.776.72-2.208.408-.36 1.032-.54 1.884-.54h.168c.84 0 1.452.204 1.812.6.384.432.576 1.14.576 2.148v.624c0 .228-.12.336-.348.336h-2.88v.096c0 .288.072.48.24.588.156.108.444.156.876.156m-1.116-2.088h1.32c.096 0 .144-.048.144-.156v-.192c0-.24-.048-.42-.12-.552-.096-.144-.288-.216-.552-.216h-.108c-.24 0-.408.06-.504.168q-.18.216-.18.648zm10.606 2.4v.684c0 .18-.036.3-.084.36s-.156.084-.3.084h-.96c-.864 0-1.44-.144-1.704-.444-.24-.252-.348-.732-.348-1.452V20.62h-.648c-.12 0-.192-.012-.24-.06s-.06-.12-.06-.24v-.612c0-.144.012-.24.06-.288.036-.048.12-.084.252-.12l.636-.156v-1.176c0-.12.024-.204.084-.264.06-.048.168-.084.324-.084h1.104a.5.5 0 0 1 .312.084c.06.06.096.144.096.264v1.152h.996c.12 0 .192.024.24.072s.072.132.072.276v.804q0 .216-.072.288c-.048.048-.12.06-.24.06h-.996v2.268c0 .216.024.348.096.42.072.084.228.12.468.12h.528c.144 0 .252.036.3.096s.084.18.084.348m4.064-1.02v-3.384c0-.12.024-.204.084-.264.06-.048.168-.084.324-.084h1.104a.5.5 0 0 1 .312.084c.06.06.096.144.096.264v3.552q0 1.098-.54 1.584c-.384.336-1.056.504-2.04.504s-1.668-.168-2.04-.504q-.54-.486-.54-1.584v-3.552c0-.12.024-.204.084-.264.06-.048.168-.084.324-.084h1.104a.5.5 0 0 1 .312.084c.06.06.096.144.096.264v3.384c0 .276.036.456.132.552.096.108.264.156.528.156.252 0 .432-.048.528-.156.084-.096.132-.276.132-.552m4.927 1.14v.12c0 .672-.324.996-.96.996h-.132c-.648 0-.96-.324-.96-.996v-.12c0-.348.072-.6.24-.744.156-.144.396-.228.72-.228h.132c.312 0 .552.084.72.228.156.144.24.396.24.744"/></svg>