<svg xmlns="http://www.w3.org/2000/svg" fill="none" viewBox="0 0 542 57"><path fill="#000" d="M2.032 9.608v.432c0 1.76.24 2.912.72 3.472.416.496 1.056.736 1.904.736.928 0 1.584-.272 2-.832.416-.576.624-1.696.624-3.376v-.432c0-.832-.048-1.52-.128-2.064s-.24-.976-.496-1.328c-.416-.544-1.072-.816-2-.816q-1.368 0-1.968.816c-.448.576-.656 1.712-.656 3.392m6.416-.192v.832c0 1.856-.336 3.136-.976 3.872-.608.688-1.536 1.024-2.816 1.024-1.2 0-2.096-.304-2.704-.912-.736-.736-1.088-2.064-1.088-3.984v-.832c0-1.856.336-3.168 1.008-3.92.592-.656 1.52-.992 2.784-.992 1.248 0 2.176.336 2.784.992.672.752 1.008 2.064 1.008 3.92m5.185 5.728c-1.024 0-1.76-.272-2.192-.848h-.033v3.36c0 .128-.063.176-.16.176h-.72c-.112 0-.16-.048-.16-.176V7.336c0-.112.048-.176.16-.176h.48c.113 0 .177.064.193.176l.095.64h.033c.447-.64 1.231-.96 2.32-.96 1.04 0 1.792.288 2.24.864s.688 1.472.688 2.72v.832q0 1.848-.673 2.784c-.447.624-1.2.928-2.271.928m-.128-7.232c-1.408 0-2.097.672-2.097 2.016v2.256c0 .688.177 1.2.56 1.552.368.352.896.512 1.569.512.704 0 1.231-.192 1.551-.592q.433-.528.433-2.304v-.608c0-1.12-.177-1.888-.497-2.288-.32-.352-.815-.544-1.52-.544M19.169 15h-.512c-.176 0-.256-.064-.256-.208V7.336c0-.112.064-.176.192-.176h.464c.096 0 .16.064.192.176l.064.832h.032c.352-.672.976-1.008 1.856-1.008h.416c.128 0 .208.064.208.192v.544c0 .128-.08.176-.208.176h-.432c-.704 0-1.2.224-1.456.656-.192.32-.288.736-.288 1.264v4.8c0 .144-.096.208-.272.208m4.7-4.08v.304c0 .8.049 1.376.16 1.76.24.848.865 1.264 1.857 1.264s1.616-.416 1.872-1.264c.096-.384.16-.96.16-1.76v-.304c0-.784-.064-1.376-.16-1.76q-.36-1.248-1.872-1.248c-1.008 0-1.632.416-1.856 1.248-.112.384-.16.976-.16 1.76m5.105-.16v.64c0 1.44-.288 2.448-.832 2.992-.512.512-1.264.752-2.256.752s-1.728-.24-2.24-.752c-.56-.544-.832-1.552-.832-2.992v-.64c0-1.44.272-2.448.832-3.008.496-.48 1.248-.736 2.24-.736s1.744.256 2.256.736c.544.56.832 1.568.832 3.008m6.554 3.296.111.368q.048.168 0 .24c-.032.048-.111.096-.272.16-.527.224-1.136.32-1.823.32-.992 0-1.728-.224-2.208-.688-.624-.56-.928-1.616-.928-3.168v-.528c0-1.408.32-2.416.976-3.024q.767-.72 2.16-.72c.416 0 .848.08 1.264.208.416.144.767.304 1.023.496.08.064.08.16.016.256l-.272.448c-.064.096-.144.112-.272.032-.607-.352-1.183-.544-1.76-.544-.623 0-1.103.176-1.44.496-.431.432-.64 1.264-.64 2.496v.272c0 1.216.16 2.048.512 2.464.32.416.849.608 1.617.608.511 0 1.023-.096 1.552-.304.208-.08.336-.048.384.112m7.25-4.304v1.312c0 .224-.049.384-.129.48-.096.096-.24.128-.464.128h-4.128c.032.96.192 1.632.512 2.016.304.384.832.56 1.584.56.624 0 1.216-.096 1.76-.32.208-.08.336-.048.384.112l.112.368a.3.3 0 0 1-.016.24q-.048.096-.336.192c-.544.208-1.184.304-1.904.304-1.168 0-1.984-.288-2.448-.88-.48-.576-.704-1.536-.704-2.864v-.64c0-1.28.224-2.224.688-2.832.448-.608 1.232-.912 2.32-.912.912 0 1.6.224 2.064.656.464.464.704 1.152.704 2.08m-2.753-1.84c-.704 0-1.216.208-1.504.608-.304.416-.464 1.152-.464 2.24h3.44c.08 0 .144 0 .176-.032s.048-.096.048-.208v-.608c0-.688-.128-1.184-.368-1.488-.288-.336-.72-.512-1.328-.512m10.594 6.816c0 .192-.112.272-.304.272h-.448q-.192 0-.24-.048c-.032-.032-.048-.096-.048-.224v-4.672c0-.944-.256-1.568-.736-1.872-.32-.192-.752-.304-1.296-.304-.752 0-1.28.224-1.568.672q-.288.432-.288 1.248v4.96q0 .24-.288.24h-.496c-.176 0-.256-.08-.256-.24V7.336c0-.112.048-.176.16-.176h.48c.112 0 .176.064.192.176l.08.64h.032c.128-.224.352-.416.656-.608.4-.224.896-.352 1.504-.352 1.232 0 2.064.368 2.48 1.072q.384.672.384 2.064zm5.47.272h-.752c-.832 0-1.44-.208-1.792-.64-.352-.416-.528-1.024-.528-1.84V8.072h-.976c-.112 0-.16-.048-.16-.176v-.32c0-.128.048-.192.16-.208l.976-.208V5.352q0-.192.192-.192h.672c.112 0 .176.064.176.192V7.16h1.872c.096 0 .16.064.16.16v.592c0 .112-.064.16-.16.16h-1.872v4.32c0 .64.096 1.088.288 1.312.192.272.592.4 1.168.4h.576c.128 0 .192.064.192.176v.544c0 .128-.064.176-.192.176m2.39-4.08v.304c0 .8.048 1.376.16 1.76.24.848.864 1.264 1.856 1.264s1.616-.416 1.872-1.264c.096-.384.16-.96.16-1.76v-.304c0-.784-.064-1.376-.16-1.76q-.36-1.248-1.872-1.248c-1.008 0-1.632.416-1.856 1.248-.112.384-.16.976-.16 1.76m5.104-.16v.64c0 1.44-.288 2.448-.832 2.992-.512.512-1.264.752-2.256.752s-1.728-.24-2.24-.752c-.56-.544-.832-1.552-.832-2.992v-.64c0-1.44.272-2.448.832-3.008.496-.48 1.248-.736 2.24-.736s1.744.256 2.256.736c.544.56.832 1.568.832 3.008m5.69-3.216h.72c.288 0 .48.16.544.448.464 2.304.944 4.368 1.456 6.192h.08a87 87 0 0 0 1.488-6.832c0-.096.032-.144.064-.16a.5.5 0 0 1 .224-.032h.496q.168 0 .24.048c.032.032.048.08.048.176q-.528 2.688-1.632 6.96c-.128.448-.352.656-.672.656h-.544c-.208 0-.368-.048-.464-.144-.112-.096-.192-.256-.256-.512a101 101 0 0 1-1.376-5.84h-.112c-.416 2-.88 3.952-1.376 5.84-.064.256-.16.416-.256.512-.112.096-.272.144-.464.144h-.544c-.336 0-.56-.208-.672-.656q-1.128-4.272-1.632-6.96c-.016-.096 0-.144.048-.176q.048-.048.24-.048h.496q.24 0 .288.192c.384 2.272.88 4.56 1.488 6.832h.08c.496-1.824.976-3.888 1.456-6.192.064-.288.24-.448.544-.448m11.121 7.296-.032-.544h-.032c-.352.576-.928.848-1.696.848h-.8c-.768 0-1.328-.192-1.712-.576s-.576-.88-.576-1.504v-.48q0-1.512 1.248-2.016c.352-.144.992-.224 1.92-.224h.48c.384 0 .752.016 1.072.048V9.48c0-.576-.16-.992-.464-1.216-.32-.224-.8-.352-1.472-.352-.56 0-1.104.08-1.648.24-.256.064-.384.032-.416-.128l-.08-.336c-.064-.192 0-.304.176-.368a7.4 7.4 0 0 1 2.048-.304c1.024 0 1.76.192 2.208.56s.688.96.688 1.792v5.472c0 .112-.064.16-.176.16h-.528c-.144 0-.208-.048-.208-.16m-.128-2.24v-1.328a8 8 0 0 0-.96-.048h-.896c-.672 0-1.136.112-1.408.32s-.4.56-.4 1.056v.336c0 .48.112.832.336 1.04.192.192.528.288.976.288h.656c.528 0 .944-.128 1.248-.416.288-.288.448-.704.448-1.248m9.134 2.128c0 .192-.112.272-.304.272h-.448q-.192 0-.24-.048c-.032-.032-.048-.096-.048-.224v-4.672c0-.944-.256-1.568-.736-1.872-.32-.192-.752-.304-1.296-.304-.752 0-1.28.224-1.568.672q-.288.432-.288 1.248v4.96q0 .24-.288.24h-.496c-.176 0-.256-.08-.256-.24V7.336c0-.112.048-.176.16-.176h.48c.112 0 .176.064.192.176l.08.64h.032c.128-.224.352-.416.656-.608.4-.224.896-.352 1.504-.352 1.232 0 2.064.368 2.48 1.072q.384.672.384 2.064zm3.374-7.392v7.536c0 .096-.048.128-.144.128h-.768c-.096 0-.128-.032-.128-.128V7.336c0-.112.064-.176.192-.176h.656c.128 0 .192.064.192.176m.224-2.288v.096c0 .512-.24.768-.704.768h-.064c-.496 0-.736-.256-.736-.768v-.096c0-.496.24-.752.736-.752h.064c.464 0 .704.256.704.752m7.576 4.704v1.312c0 .224-.048.384-.128.48-.096.096-.24.128-.464.128h-4.128c.032.96.192 1.632.512 2.016.304.384.832.56 1.584.56.624 0 1.216-.096 1.76-.32.208-.08.336-.048.384.112l.112.368a.3.3 0 0 1-.016.24q-.048.096-.336.192c-.544.208-1.184.304-1.904.304-1.168 0-1.984-.288-2.448-.88-.48-.576-.704-1.536-.704-2.864v-.64c0-1.28.224-2.224.688-2.832.448-.608 1.232-.912 2.32-.912.912 0 1.6.224 2.064.656.464.464.704 1.152.704 2.08m-2.752-1.84c-.704 0-1.216.208-1.504.608-.304.416-.464 1.152-.464 2.24h3.44c.08 0 .144 0 .176-.032s.048-.096.048-.208v-.608c0-.688-.128-1.184-.368-1.488-.288-.336-.72-.512-1.328-.512M106.981 15h-.512c-.176 0-.256-.064-.256-.208V7.336c0-.112.064-.176.192-.176h.464c.096 0 .16.064.192.176l.064.832h.032c.352-.672.976-1.008 1.856-1.008h.416c.128 0 .208.064.208.192v.544c0 .128-.08.176-.208.176h-.432c-.704 0-1.2.224-1.456.656-.192.32-.288.736-.288 1.264v4.8c0 .144-.096.208-.272.208m4.701-4.08v.304c0 .8.048 1.376.16 1.76.24.848.864 1.264 1.856 1.264s1.616-.416 1.872-1.264c.096-.384.16-.96.16-1.76v-.304c0-.784-.064-1.376-.16-1.76q-.36-1.248-1.872-1.248c-1.008 0-1.632.416-1.856 1.248-.112.384-.16.976-.16 1.76m5.104-.16v.64c0 1.44-.288 2.448-.832 2.992-.512.512-1.264.752-2.256.752s-1.728-.24-2.24-.752c-.56-.544-.832-1.552-.832-2.992v-.64c0-1.44.272-2.448.832-3.008.496-.48 1.248-.736 2.24-.736s1.744.256 2.256.736c.544.56.832 1.568.832 3.008m6.554 3.296.112.368q.048.168 0 .24c-.032.048-.112.096-.272.16-.528.224-1.136.32-1.824.32-.992 0-1.728-.224-2.208-.688-.624-.56-.928-1.616-.928-3.168v-.528c0-1.408.32-2.416.976-3.024q.768-.72 2.16-.72c.416 0 .848.08 1.264.208.416.144.768.304 1.024.496.08.064.08.16.016.256l-.272.448c-.064.096-.144.112-.272.032-.608-.352-1.184-.544-1.76-.544-.624 0-1.104.176-1.44.496-.432.432-.64 1.264-.64 2.496v.272c0 1.216.16 2.048.512 2.464.32.416.848.608 1.616.608.512 0 1.024-.096 1.552-.304.208-.08.336-.048.384.112m6.594.208v.576c0 .112-.064.16-.16.16h-4.992c-.112 0-.16-.048-.16-.16v-.272c0-.16.096-.384.288-.704l3.52-5.808h-3.536c-.112 0-.16-.048-.16-.16V7.32c0-.096.048-.16.16-.16h4.736c.096 0 .16.064.16.16v.224c0 .192-.144.512-.416.96l-3.44 5.6h3.84c.096 0 .16.064.16.16m7.544.464c0 .192-.112.272-.304.272h-.448q-.192 0-.24-.048c-.032-.032-.048-.096-.048-.224v-4.672c0-.944-.256-1.568-.736-1.872-.32-.192-.752-.304-1.296-.304-.752 0-1.28.224-1.568.672q-.288.432-.288 1.248v4.96q0 .24-.288.24h-.496c-.176 0-.256-.08-.256-.24V7.336c0-.112.048-.176.16-.176h.48c.112 0 .176.064.192.176l.08.64h.032c.128-.224.352-.416.656-.608.4-.224.896-.352 1.504-.352 1.232 0 2.064.368 2.48 1.072q.384.672.384 2.064zm7.518-4.976v1.312c0 .224-.048.384-.128.48-.096.096-.24.128-.464.128h-4.128c.032.96.192 1.632.512 2.016.304.384.832.56 1.584.56.624 0 1.216-.096 1.76-.32.208-.08.336-.048.384.112l.112.368a.3.3 0 0 1-.016.24q-.048.096-.336.192c-.544.208-1.184.304-1.904.304-1.168 0-1.984-.288-2.448-.88-.48-.576-.704-1.536-.704-2.864v-.64c0-1.28.224-2.224.688-2.832.448-.608 1.232-.912 2.32-.912.912 0 1.6.224 2.064.656.464.464.704 1.152.704 2.08m-2.752-1.84c-.704 0-1.216.208-1.504.608-.304.416-.464 1.152-.464 2.24h3.44c.08 0 .144 0 .176-.032s.048-.096.048-.208v-.608c0-.688-.128-1.184-.368-1.488-.288-.336-.72-.512-1.328-.512m14.199-3.568v8.032c0 .832-.208 1.472-.592 1.936-.48.56-1.28.832-2.416.832-1.152 0-1.968-.256-2.448-.784-.496-.512-.736-1.472-.736-2.88v-.752c0-1.264.24-2.192.752-2.8q.744-.912 2.352-.912 1.392 0 2.016.768h.032v-3.44c0-.112.064-.176.192-.176h.656c.128 0 .192.064.192.176m-1.04 7.888V10.04c0-.672-.176-1.184-.496-1.568-.32-.368-.8-.56-1.44-.56-.72 0-1.248.192-1.568.544-.4.448-.592 1.232-.592 2.352v.544q0 1.776.576 2.4c.288.336.8.496 1.536.496.8 0 1.36-.192 1.648-.608.224-.304.336-.768.336-1.408m4.258-7.888v8.56q0 .84.144 1.008c.08.128.272.176.576.176h.432c.128 0 .192.064.192.176v.544c0 .128-.064.192-.16.192h-.608c-.576 0-.992-.112-1.232-.368-.256-.256-.384-.752-.384-1.472V4.344c0-.112.064-.176.192-.176h.656c.128 0 .192.064.192.176m7.327 10.496-.032-.544h-.032c-.352.576-.928.848-1.696.848h-.8c-.768 0-1.328-.192-1.712-.576s-.576-.88-.576-1.504v-.48q0-1.512 1.248-2.016c.352-.144.992-.224 1.92-.224h.48c.384 0 .752.016 1.072.048V9.48c0-.576-.16-.992-.464-1.216-.32-.224-.8-.352-1.472-.352-.56 0-1.104.08-1.648.24-.256.064-.384.032-.416-.128l-.08-.336c-.064-.192 0-.304.176-.368a7.4 7.4 0 0 1 2.048-.304c1.024 0 1.76.192 2.208.56s.688.96.688 1.792v5.472c0 .112-.064.16-.176.16h-.528c-.144 0-.208-.048-.208-.16m-.128-2.24v-1.328a8 8 0 0 0-.96-.048h-.896c-.672 0-1.136.112-1.408.32s-.4.56-.4 1.056v.336c0 .48.112.832.336 1.04.192.192.528.288.976.288h.656c.528 0 .944-.128 1.248-.416.288-.288.448-.704.448-1.248m7.939-8.256v6.016h.801c.16 0 .304-.08.416-.256l1.856-2.768a.34.34 0 0 1 .304-.176h.688c.176 0 .208.096.112.256l-2.272 3.296c-.064.096-.064.176 0 .256l2.352 3.856c.064.128.016.176-.112.176h-.832c-.096 0-.16-.032-.192-.112l-2.016-3.408c-.064-.112-.176-.176-.336-.176h-.769v3.568c0 .096-.047.128-.143.128h-.752c-.096 0-.144-.032-.144-.128V4.344c0-.112.064-.176.192-.176h.656c.128 0 .191.064.191.176m6.243 6.576v.304c0 .8.048 1.376.16 1.76.24.848.864 1.264 1.856 1.264s1.616-.416 1.872-1.264c.096-.384.16-.96.16-1.76v-.304c0-.784-.064-1.376-.16-1.76q-.36-1.248-1.872-1.248c-1.008 0-1.632.416-1.856 1.248-.112.384-.16.976-.16 1.76m5.104-.16v.64c0 1.44-.288 2.448-.832 2.992-.512.512-1.264.752-2.256.752s-1.728-.24-2.24-.752c-.56-.544-.832-1.552-.832-2.992v-.64c0-1.44.272-2.448.832-3.008.496-.48 1.248-.736 2.24-.736s1.744.256 2.256.736c.544.56.832 1.568.832 3.008m7.785 3.968c0 .192-.112.272-.304.272h-.448q-.192 0-.24-.048c-.032-.032-.048-.096-.048-.224v-4.672c0-.944-.256-1.568-.736-1.872-.32-.192-.752-.304-1.296-.304-.752 0-1.28.224-1.568.672q-.288.432-.288 1.248v4.96q0 .24-.288.24h-.496c-.176 0-.256-.08-.256-.24V7.336c0-.112.048-.176.16-.176h.48c.112 0 .176.064.192.176l.08.64h.032c.128-.224.352-.416.656-.608.4-.224.896-.352 1.504-.352 1.232 0 2.064.368 2.48 1.072q.384.672.384 2.064zm5.47.272h-.752c-.832 0-1.44-.208-1.792-.64-.352-.416-.528-1.024-.528-1.84V8.072h-.976c-.112 0-.16-.048-.16-.176v-.32c0-.128.048-.192.16-.208l.976-.208V5.352q0-.192.192-.192h.672c.112 0 .176.064.176.192V7.16h1.872c.096 0 .16.064.16.16v.592c0 .112-.064.16-.16.16h-1.872v4.32c0 .64.096 1.088.288 1.312.192.272.592.4 1.168.4h.576c.128 0 .192.064.192.176v.544c0 .128-.064.176-.192.176m6.103-.16-.032-.544h-.032c-.352.576-.928.848-1.696.848h-.8c-.768 0-1.328-.192-1.712-.576s-.576-.88-.576-1.504v-.48q0-1.512 1.248-2.016c.352-.144.992-.224 1.92-.224h.48c.384 0 .752.016 1.072.048V9.48c0-.576-.16-.992-.464-1.216-.32-.224-.8-.352-1.472-.352-.56 0-1.104.08-1.648.24-.256.064-.384.032-.416-.128l-.08-.336c-.064-.192 0-.304.176-.368a7.4 7.4 0 0 1 2.048-.304c1.024 0 1.76.192 2.208.56s.688.96.688 1.792v5.472c0 .112-.064.16-.176.16h-.528c-.144 0-.208-.048-.208-.16m-.128-2.24v-1.328a8 8 0 0 0-.96-.048h-.896c-.672 0-1.136.112-1.408.32s-.4.56-.4 1.056v.336c0 .48.112.832.336 1.04.192.192.528.288.976.288h.656c.528 0 .944-.128 1.248-.416.288-.288.448-.704.448-1.248m7.603-1.68v.304c0 .8.048 1.376.16 1.76.24.848.864 1.264 1.856 1.264s1.616-.416 1.872-1.264c.096-.384.16-.96.16-1.76v-.304c0-.784-.064-1.376-.16-1.76q-.36-1.248-1.872-1.248c-1.008 0-1.632.416-1.856 1.248-.112.384-.16.976-.16 1.76m5.104-.16v.64c0 1.44-.288 2.448-.832 2.992-.512.512-1.264.752-2.256.752s-1.728-.24-2.24-.752c-.56-.544-.832-1.552-.832-2.992v-.64c0-1.44.272-2.448.832-3.008.496-.48 1.248-.736 2.24-.736s1.744.256 2.256.736c.544.56.832 1.568.832 3.008m3.77 4.384c-.848 0-1.568-.128-2.176-.384-.16-.064-.224-.144-.192-.272l.128-.464c.032-.16.144-.224.304-.16a5.3 5.3 0 0 0 1.936.384c.64 0 1.088-.096 1.36-.32.256-.208.4-.544.4-1.024v-.096c0-.528-.144-.88-.432-1.072-.176-.096-.544-.208-1.12-.336l-.448-.08c-.544-.096-.96-.224-1.248-.4-.544-.304-.816-.864-.816-1.664v-.16c0-1.376.848-2.08 2.56-2.08.656 0 1.248.08 1.792.224q.288.096.24.288l-.096.416c-.064.192-.176.272-.368.208a6 6 0 0 0-1.584-.24c-.608 0-1.04.112-1.264.32-.224.192-.32.48-.32.832v.112c0 .352.08.624.256.784q.288.312 1.248.48l.416.08c.896.192 1.472.448 1.744.768.256.352.4.832.4 1.408v.16c0 .64-.16 1.136-.448 1.488-.432.544-1.184.8-2.272.8m9.206-.88v.576c0 .112-.064.16-.16.16h-4.992c-.112 0-.16-.048-.16-.16v-.272c0-.16.096-.384.288-.704l3.52-5.808h-3.536c-.112 0-.16-.048-.16-.16V7.32c0-.096.048-.16.16-.16h4.736c.096 0 .16.064.16.16v.224c0 .192-.144.512-.416.96l-3.44 5.6h3.84c.096 0 .16.064.16.16m6.312-.208.112.368q.048.168 0 .24c-.032.048-.112.096-.272.16-.528.224-1.136.32-1.824.32-.992 0-1.728-.224-2.208-.688-.624-.56-.928-1.616-.928-3.168v-.528c0-1.408.32-2.416.976-3.024q.768-.72 2.16-.72c.416 0 .848.08 1.264.208.416.144.768.304 1.024.496.08.064.08.16.016.256l-.272.448c-.064.096-.144.112-.272.032-.608-.352-1.184-.544-1.76-.544-.624 0-1.104.176-1.44.496-.432.432-.64 1.264-.64 2.496v.272c0 1.216.16 2.048.512 2.464.32.416.848.608 1.616.608.512 0 1.024-.096 1.552-.304.208-.08.336-.048.384.112m6.594.208v.576c0 .112-.064.16-.16.16h-4.992c-.112 0-.16-.048-.16-.16v-.272c0-.16.096-.384.288-.704l3.52-5.808h-3.536c-.112 0-.16-.048-.16-.16V7.32c0-.096.048-.16.16-.16h4.736c.096 0 .16.064.16.16v.224c0 .192-.144.512-.416.96l-3.44 5.6h3.84c.096 0 .16.064.16.16m6.969-4.512v1.264c0 .24-.048.416-.144.512q-.144.144-.48.144h-4.096c.032.96.192 1.632.512 2.016q.456.576 1.584.576c.624 0 1.216-.096 1.76-.32.208-.08.336-.048.384.112l.096.304c0 .032.016.048.016.064v.048c0 .016-.016.032-.016.048l-.032.032c0 .016-.016.032-.032.048-.016.032-.032.048-.032.048l-.048.048c-.032.016-.048.032-.064.032l-.064.064c-.032.032-.048.048-.064.048-.512.416-.864.752-1.056 1.024a1.52 1.52 0 0 0-.272.864c0 .384.224.576.688.576.256 0 .512-.048.768-.176.112-.048.192-.016.224.08l.096.448c.032.112-.016.192-.128.24-.384.16-.768.24-1.184.24q-1.536 0-1.536-1.2c0-.72.416-1.344 1.264-1.856-.304.048-.56.064-.768.064-1.168 0-1.984-.288-2.448-.88-.48-.576-.704-1.536-.704-2.864v-.64c0-1.28.224-2.224.688-2.832.448-.608 1.232-.912 2.32-.912.912 0 1.6.224 2.064.656.464.464.704 1.152.704 2.08m-2.752-1.856c-.704 0-1.216.208-1.504.624-.304.416-.464 1.152-.464 2.24h3.44c.08 0 .144 0 .176-.032s.048-.096.048-.208v-.608c0-.704-.128-1.2-.368-1.504-.288-.336-.72-.512-1.328-.512m10.433-3.552v8.032c0 .832-.208 1.472-.592 1.936-.48.56-1.28.832-2.416.832-1.152 0-1.968-.256-2.448-.784-.496-.512-.736-1.472-.736-2.88v-.752c0-1.264.24-2.192.752-2.8q.744-.912 2.352-.912 1.392 0 2.016.768h.032v-3.44c0-.112.064-.176.192-.176h.656c.128 0 .192.064.192.176m-1.04 7.888V10.04c0-.672-.176-1.184-.496-1.568-.32-.368-.8-.56-1.44-.56-.72 0-1.248.192-1.568.544-.4.448-.592 1.232-.592 2.352v.544q0 1.776.576 2.4c.288.336.8.496 1.536.496.8 0 1.36-.192 1.648-.608.224-.304.336-.768.336-1.408m9.138 2.496c0 .192-.112.272-.304.272h-.448q-.192 0-.24-.048c-.032-.032-.048-.096-.048-.224v-4.672c0-.944-.256-1.568-.736-1.872-.32-.192-.752-.304-1.296-.304-.752 0-1.28.224-1.568.672q-.288.432-.288 1.248v4.96q0 .24-.288.24h-.496c-.176 0-.256-.08-.256-.24V7.336c0-.112.048-.176.16-.176h.48c.112 0 .176.064.192.176l.08.64h.032c.128-.224.352-.416.656-.608.4-.224.896-.352 1.504-.352 1.232 0 2.064.368 2.48 1.072q.384.672.384 2.064zm2.797-3.808v.304c0 .8.048 1.376.16 1.76.24.848.864 1.264 1.856 1.264s1.616-.416 1.872-1.264c.096-.384.16-.96.16-1.76v-.304c0-.784-.064-1.376-.16-1.76q-.36-1.248-1.872-1.248c-1.008 0-1.632.416-1.856 1.248-.112.384-.16.976-.16 1.76m5.104-.16v.64c0 1.44-.288 2.448-.832 2.992-.512.512-1.264.752-2.256.752s-1.728-.24-2.24-.752c-.56-.544-.832-1.552-.832-2.992v-.64c0-1.44.272-2.448.832-3.008.496-.48 1.248-.736 2.24-.736s1.744.256 2.256.736c.544.56.832 1.568.832 3.008m3.77 4.384c-.848 0-1.568-.128-2.176-.384-.16-.064-.224-.144-.192-.272l.128-.464c.032-.16.144-.224.304-.16a5.3 5.3 0 0 0 1.936.384c.64 0 1.088-.096 1.36-.32.256-.208.4-.544.4-1.024v-.096c0-.528-.144-.88-.432-1.072-.176-.096-.544-.208-1.12-.336l-.448-.08c-.544-.096-.96-.224-1.248-.4-.544-.304-.816-.864-.816-1.664v-.16c0-1.376.848-2.08 2.56-2.08.656 0 1.248.08 1.792.224q.288.096.24.288l-.096.416c-.064.192-.176.272-.368.208a6 6 0 0 0-1.584-.24c-.608 0-1.04.112-1.264.32-.224.192-.32.48-.32.832v.112c0 .352.08.624.256.784q.288.312 1.248.48l.416.08c.896.192 1.472.448 1.744.768.256.352.4.832.4 1.408v.16c0 .64-.16 1.136-.448 1.488-.432.544-1.184.8-2.272.8m-1.088-10.128 2.72-1.328c.208-.096.352-.048.432.112l.272.56c.064.16-.016.288-.208.384l-2.736 1.04c-.208.08-.336.048-.4-.096l-.16-.352c-.064-.144-.048-.256.08-.32m10.294 9.04.112.368q.048.168 0 .24c-.032.048-.112.096-.272.16-.528.224-1.136.32-1.824.32-.992 0-1.728-.224-2.208-.688-.624-.56-.928-1.616-.928-3.168v-.528c0-1.408.32-2.416.976-3.024q.768-.72 2.16-.72c.416 0 .848.08 1.264.208.416.144.768.304 1.024.496.08.064.08.16.016.256l-.272.448c-.064.096-.144.112-.272.032-.608-.352-1.184-.544-1.76-.544-.624 0-1.104.176-1.44.496-.432.432-.64 1.264-.64 2.496v.272c0 1.216.16 2.048.512 2.464.32.416.848.608 1.616.608.512 0 1.024-.096 1.552-.304.208-.08.336-.048.384.112m3.106-6.72v7.536c0 .096-.048.128-.144.128h-.768c-.096 0-.128-.032-.128-.128V7.336c0-.112.064-.176.192-.176h.656c.128 0 .192.064.192.176m.224-2.288v.096c0 .512-.24.768-.704.768h-.064c-.496 0-.736-.256-.736-.768v-.096c0-.496.24-.752.736-.752h.064c.464 0 .704.256.704.752m2.856 5.872v.304c0 .8.048 1.376.16 1.76.24.848.864 1.264 1.856 1.264s1.616-.416 1.872-1.264c.096-.384.16-.96.16-1.76v-.304c0-.784-.064-1.376-.16-1.76q-.36-1.248-1.872-1.248c-1.008 0-1.632.416-1.856 1.248-.112.384-.16.976-.16 1.76m5.104-.16v.64c0 1.44-.288 2.448-.832 2.992-.512.512-1.264.752-2.256.752s-1.728-.24-2.24-.752c-.56-.544-.832-1.552-.832-2.992v-.64c0-1.44.272-2.448.832-3.008.496-.48 1.248-.736 2.24-.736s1.744.256 2.256.736c.544.56.832 1.568.832 3.008m5.69-3.216h.72c.288 0 .48.16.544.448.464 2.304.944 4.368 1.456 6.192h.08a87 87 0 0 0 1.488-6.832c0-.096.032-.144.064-.16a.5.5 0 0 1 .224-.032h.496q.168 0 .24.048c.032.032.048.08.048.176q-.528 2.688-1.632 6.96c-.128.448-.352.656-.672.656h-.544c-.208 0-.368-.048-.464-.144-.112-.096-.192-.256-.256-.512a101 101 0 0 1-1.376-5.84h-.112c-.416 2-.88 3.952-1.376 5.84-.064.256-.16.416-.256.512-.112.096-.272.144-.464.144h-.544c-.336 0-.56-.208-.672-.656q-1.128-4.272-1.632-6.96c-.016-.096 0-.144.048-.176q.048-.048.24-.048h.496q.24 0 .288.192c.384 2.272.88 4.56 1.488 6.832h.08c.496-1.824.976-3.888 1.456-6.192.064-.288.24-.448.544-.448m12.192 2.208v1.312c0 .224-.048.384-.128.48-.096.096-.24.128-.464.128h-4.128c.032.96.192 1.632.512 2.016.304.384.832.56 1.584.56.624 0 1.216-.096 1.76-.32.208-.08.336-.048.384.112l.112.368a.3.3 0 0 1-.016.24q-.048.096-.336.192c-.544.208-1.184.304-1.904.304-1.168 0-1.984-.288-2.448-.88-.48-.576-.704-1.536-.704-2.864v-.64c0-1.28.224-2.224.688-2.832.448-.608 1.232-.912 2.32-.912.912 0 1.6.224 2.064.656.464.464.704 1.152.704 2.08m-2.752-1.84c-.704 0-1.216.208-1.504.608-.304.416-.464 1.152-.464 2.24h3.44c.08 0 .144 0 .176-.032s.048-.096.048-.208v-.608c0-.688-.128-1.184-.368-1.488-.288-.336-.72-.512-1.328-.512m9.457 4.848a3 3 0 0 1-.416.32c.912.592 1.376 1.344 1.376 2.24v.176c0 .864-.288 1.488-.864 1.888-.576.416-1.376.608-2.368.608-1.024 0-2-.208-2.896-.656-.112-.048-.16-.128-.128-.256l.176-.48q.048-.192.288-.096c.816.4 1.632.592 2.448.592.768 0 1.344-.112 1.696-.352q.528-.36.528-1.296v-.128c0-.832-.4-1.472-1.184-1.888-.256.064-.56.08-.944.08-.912 0-1.616-.192-2.128-.592-.56-.48-.832-1.248-.832-2.336v-.656c0-1.104.272-1.888.832-2.352.448-.368 1.168-.56 2.128-.56.224 0 .4.016.512.016.256-.768.864-1.168 1.792-1.168h.384c.144 0 .224.08.224.224v.624c0 .016-.016.032-.016.048-.016.016-.032.032-.064.032-.032.016-.08.016-.112.016h-.48c-.416 0-.672.144-.8.4.288.112.528.24.704.368.544.464.832 1.248.832 2.352v.656c0 .944-.24 1.664-.688 2.176m-4.16-2.72v.416c0 .512.048.944.176 1.264.224.656.8.976 1.696.976.912 0 1.488-.32 1.728-.976.096-.304.16-.736.16-1.28v-.4c0-.544-.064-.96-.16-1.248-.128-.352-.336-.592-.608-.736s-.64-.224-1.12-.224c-.464 0-.832.08-1.104.224s-.464.384-.592.736c-.128.32-.176.736-.176 1.248m7.578.88v.304c0 .8.048 1.376.16 1.76.24.848.864 1.264 1.856 1.264s1.616-.416 1.872-1.264c.096-.384.16-.96.16-1.76v-.304c0-.784-.064-1.376-.16-1.76q-.36-1.248-1.872-1.248c-1.008 0-1.632.416-1.856 1.248-.112.384-.16.976-.16 1.76m5.104-.16v.64c0 1.44-.288 2.448-.832 2.992-.512.512-1.264.752-2.256.752s-1.728-.24-2.24-.752c-.56-.544-.832-1.552-.832-2.992v-.64c0-1.44.272-2.448.832-3.008.496-.48 1.248-.736 2.24-.736s1.744.256 2.256.736c.544.56.832 1.568.832 3.008m9.456-3.216h.72c.288 0 .48.16.544.448.464 2.304.944 4.368 1.456 6.192h.08a87 87 0 0 0 1.488-6.832c0-.096.032-.144.064-.16a.5.5 0 0 1 .224-.032h.496q.168 0 .24.048c.032.032.048.08.048.176q-.528 2.688-1.632 6.96c-.128.448-.352.656-.672.656h-.544c-.208 0-.368-.048-.464-.144-.112-.096-.192-.256-.256-.512a101 101 0 0 1-1.376-5.84h-.112c-.416 2-.88 3.952-1.376 5.84-.064.256-.16.416-.256.512-.112.096-.272.144-.464.144h-.544c-.336 0-.56-.208-.672-.656q-1.128-4.272-1.632-6.96c-.016-.096 0-.144.048-.176q.048-.048.24-.048h.496q.24 0 .288.192c.384 2.272.88 4.56 1.488 6.832h.08c.496-1.824.976-3.888 1.456-6.192.064-.288.24-.448.544-.448m11.701 3.488v3.696c0 .192-.096.272-.256.272h-.592c-.176 0-.256-.08-.256-.272V5.032c0-.208.096-.336.288-.368.656-.096 1.392-.16 2.224-.16q2.064 0 2.928.72c.576.48.88 1.28.88 2.4v.208c0 2.144-1.248 3.216-3.728 3.216-.64 0-1.136 0-1.488-.016m.32-5.584c-.224.032-.32.16-.32.384v4.288c.256.032.704.032 1.36.032.928 0 1.616-.176 2.048-.528.416-.352.64-.96.64-1.824v-.208c0-.768-.208-1.328-.592-1.68-.4-.336-1.056-.512-1.984-.512q-.72 0-1.152.048m7.727-.528v8.64c0 .224.032.368.128.432.096.08.256.112.496.112h2.608c.16 0 .24.08.24.208v.48c0 .144-.08.208-.24.208h-2.88c-.512 0-.88-.096-1.104-.304-.24-.208-.352-.528-.352-.976v-8.8c0-.176.08-.272.256-.272h.576c.176 0 .272.096.272.272m10.271 9.584-4.192-8.784h-.112v9.008c0 .192-.08.272-.224.272h-.576c-.16 0-.224-.08-.224-.272v-9.6c0-.192.032-.32.112-.384.064-.064.208-.096.416-.096h.784c.192 0 .352.048.448.112q.144.12.288.384l4.192 8.816h.112V4.92c0-.176.064-.272.224-.272h.576c.144 0 .224.096.224.272v9.6c0 .192-.048.32-.112.384-.08.064-.224.096-.416.096h-.784c-.208 0-.368-.032-.464-.112-.096-.064-.192-.192-.272-.384m4.953-7.088h.16c.448 0 .688.208.688.624v.384c0 .416-.24.624-.688.624h-.16c-.464 0-.688-.208-.688-.624V8.04c0-.416.224-.624.688-.624m0 6.096h.16c.448 0 .688.208.688.624v.384c0 .416-.24.624-.688.624h-.16c-.464 0-.688-.208-.688-.624v-.384c0-.416.224-.624.688-.624m11.004-1.168h-4.384c-.208 0-.304-.096-.304-.32v-.272q0-.168.288-.672l3.632-6.176c.096-.16.256-.256.512-.256h.96c.256 0 .4.128.4.352v6.4h1.04c.176 0 .272.08.272.224v.464c0 .176-.096.256-.272.256h-1.04v2.384c0 .192-.096.272-.256.272h-.608c-.16 0-.24-.08-.24-.272zm0-.944V5.624h-.112l-3.408 5.776zm4.537 2.112h.24c.496 0 .752.272.752.816v.304c0 .352-.08.736-.208 1.152q-.264.696-.672 1.2c-.096.128-.208.16-.336.08l-.288-.176c-.128-.064-.128-.16-.016-.304.096-.128.192-.304.32-.528.096-.192.176-.368.224-.544.032-.128.016-.224-.08-.288l-.288-.144c-.208-.096-.304-.32-.304-.656v-.304c0-.4.208-.608.656-.608m7.763-1.664v-.144c0-.752-.176-1.312-.496-1.696-.352-.368-.864-.56-1.568-.56s-1.328.176-1.888.528c-.144.096-.256.112-.352.064l-.24-.096c-.112-.032-.16-.128-.128-.272l.336-4.736c0-.192.112-.288.32-.288h4.192c.192 0 .288.096.288.256v.384c0 .176-.112.256-.32.256h-3.392c-.144 0-.224.08-.224.208l-.224 3.232c.496-.32 1.12-.48 1.888-.48 1.024 0 1.792.304 2.304.896.448.544.672 1.312.672 2.272v.176c0 1.12-.32 1.952-.928 2.496s-1.456.8-2.576.8a5.5 5.5 0 0 1-2.496-.576c-.176-.08-.24-.192-.176-.336l.16-.432c.048-.16.16-.192.352-.112.656.384 1.376.56 2.176.56s1.392-.192 1.76-.592c.368-.384.56-.976.56-1.808m9.689-2.24v.432c0 2.064-.352 3.472-1.04 4.24-.512.576-1.28.864-2.288.864-1.024 0-1.776-.288-2.288-.864-.704-.768-1.04-2.176-1.04-4.24v-.432c0-2.048.336-3.472 1.04-4.24.512-.576 1.264-.864 2.288-.864 1.008 0 1.776.288 2.288.864.688.768 1.04 2.192 1.04 4.24m-5.488.112v.208c0 1.728.192 2.896.608 3.52.32.544.848.8 1.552.8s1.216-.256 1.552-.8c.4-.624.608-1.792.608-3.52V9.72c0-1.712-.208-2.88-.608-3.52-.336-.528-.848-.8-1.552-.8s-1.232.272-1.552.8c-.416.64-.608 1.808-.608 3.52m9.16 5.216 5.664-10.24a.33.33 0 0 1 .304-.192h.608c.16 0 .208.08.144.208l-5.664 10.24a.38.38 0 0 1-.352.192h-.56c-.16 0-.208-.064-.144-.208m2.08-7.68v.176c0 1.104-.208 1.856-.624 2.272q-.48.48-1.392.48t-1.392-.48c-.416-.416-.624-1.168-.624-2.272v-.176c0-1.088.208-1.856.624-2.272q.48-.48 1.392-.48t1.392.48c.416.416.624 1.184.624 2.272m-.976.16v-.144q0-1.104-.24-1.536c-.16-.272-.416-.416-.8-.416s-.656.144-.816.416c-.16.288-.224.8-.224 1.536v.144c0 .752.064 1.264.224 1.536.16.288.432.416.816.416s.64-.128.8-.416q.24-.408.24-1.536m7.568 4.8v.176c0 1.104-.208 1.856-.624 2.272q-.48.48-1.392.48t-1.392-.48c-.416-.416-.624-1.168-.624-2.272v-.176c0-1.088.208-1.856.624-2.272q.48-.48 1.392-.48t1.392.48c.416.416.624 1.184.624 2.272m-.976.16v-.144q0-1.104-.24-1.536c-.16-.272-.416-.416-.8-.416s-.656.144-.816.416c-.16.288-.224.8-.224 1.536v.144c0 .752.064 1.264.224 1.536.16.288.432.416.816.416s.64-.128.8-.416q.24-.408.24-1.536M3.328 23.072c.112-.144.256-.176.416-.112l.384.192c.128.08.16.176.08.304-1.312 1.76-1.968 3.744-1.968 5.968q0 1.728.432 3.12c.288.928.8 1.888 1.52 2.848.096.128.048.24-.112.32l-.368.192c-.144.08-.272.048-.368-.096-1.504-1.92-2.256-4.048-2.256-6.352 0-1.152.16-2.24.512-3.248.336-.992.912-2.048 1.728-3.136m6.21 3.472h.72c.289 0 .48.16.545.448.463 2.304.943 4.368 1.455 6.192h.08a87 87 0 0 0 1.489-6.832c0-.096.031-.144.063-.16a.5.5 0 0 1 .224-.032h.496q.17 0 .24.048c.033.032.049.08.049.176q-.528 2.688-1.632 6.96c-.128.448-.352.656-.672.656h-.545c-.208 0-.368-.048-.464-.144-.111-.096-.191-.256-.255-.512a101 101 0 0 1-1.376-5.84h-.113c-.415 2-.88 3.952-1.376 5.84-.063.256-.16.416-.255.512-.113.096-.272.144-.465.144h-.544c-.335 0-.56-.208-.671-.656q-1.128-4.272-1.632-6.96c-.016-.096 0-.144.048-.176q.048-.048.24-.048h.495q.24 0 .289.192c.383 2.272.88 4.56 1.487 6.832h.08c.496-1.824.976-3.888 1.457-6.192.064-.288.24-.448.544-.448M23.449 34h-.752c-.832 0-1.44-.208-1.792-.64-.352-.416-.528-1.024-.528-1.84v-4.448H19.4c-.112 0-.16-.048-.16-.176v-.32c0-.128.048-.192.16-.208l.976-.208v-1.808q0-.192.192-.192h.672c.112 0 .176.064.176.192v1.808h1.872c.096 0 .16.064.16.16v.592c0 .112-.064.16-.16.16h-1.872v4.32c0 .64.096 1.088.288 1.312.192.272.592.4 1.168.4h.576c.128 0 .192.064.192.176v.544c0 .128-.064.176-.192.176m2.726 2.448c.433-.848.817-1.696 1.169-2.56-.48 0-.849-.336-1.073-1.008a34 34 0 0 1-.895-2.752c-.384-1.36-.72-2.608-.977-3.76-.032-.128.017-.208.177-.208h.72c.095 0 .143.048.175.144a51 51 0 0 0 .849 3.552c.175.704.448 1.568.8 2.592.064.192.128.336.207.4.064.08.177.112.305.112h.064c.607-1.664 1.183-3.888 1.744-6.672.015-.08.08-.128.175-.128h.736c.064 0 .096.016.128.048s.032.064.032.096c-.495 2.32-1.008 4.24-1.52 5.776a50 50 0 0 1-1.871 4.768c-.064.144-.177.176-.337.112l-.527-.192c-.145-.048-.177-.16-.08-.32m5.836-2.688v-7.424c0-.112.048-.176.176-.176h.464c.112 0 .176.064.192.176l.08.64h.032c.128-.224.352-.416.656-.608.4-.224.896-.352 1.488-.352 1.12 0 1.92.368 2.384 1.104h.032c.56-.736 1.392-1.104 2.48-1.104.96 0 1.664.256 2.112.752.416.496.64 1.296.64 2.384v4.608c0 .16-.096.24-.256.24h-.544q-.24 0-.24-.24v-4.672c0-.736-.144-1.264-.4-1.616-.32-.368-.8-.56-1.472-.56q-1.296 0-2.016.96c.064.416.096.848.096 1.28v4.608q0 .24-.24.24h-.544c-.176 0-.256-.08-.256-.24v-4.672q0-1.176-.48-1.68c-.32-.32-.832-.496-1.504-.496-.736 0-1.264.224-1.552.672q-.288.432-.288 1.248v4.928q0 .24-.24.24h-.56q-.24 0-.24-.24m17.297-3.84v.304c0 .8.048 1.376.16 1.76.24.848.864 1.264 1.856 1.264s1.616-.416 1.872-1.264c.096-.384.16-.96.16-1.76v-.304c0-.784-.064-1.376-.16-1.76q-.36-1.248-1.872-1.248c-1.008 0-1.632.416-1.856 1.248-.112.384-.16.976-.16 1.76m5.104-.16v.64c0 1.44-.288 2.448-.832 2.992-.512.512-1.264.752-2.256.752s-1.728-.24-2.24-.752c-.56-.544-.832-1.552-.832-2.992v-.64c0-1.44.272-2.448.832-3.008.496-.48 1.248-.736 2.24-.736s1.744.256 2.256.736c.544.56.832 1.568.832 3.008m5.034 4.384c-1.024 0-1.76-.272-2.192-.848h-.032v3.36c0 .128-.064.176-.16.176h-.72c-.112 0-.16-.048-.16-.176v-10.32c0-.112.048-.176.16-.176h.48c.112 0 .176.064.192.176l.096.64h.032c.448-.64 1.232-.96 2.32-.96 1.04 0 1.792.288 2.24.864s.688 1.472.688 2.72v.832q0 1.848-.672 2.784c-.448.624-1.2.928-2.272.928m-.128-7.232c-1.408 0-2.096.672-2.096 2.016v2.256c0 .688.176 1.2.56 1.552.368.352.896.512 1.568.512.704 0 1.232-.192 1.552-.592q.432-.528.432-2.304v-.608c0-1.12-.176-1.888-.496-2.288-.32-.352-.816-.544-1.52-.544M64.981 34h-.512c-.176 0-.256-.064-.256-.208v-7.456c0-.112.064-.176.192-.176h.464c.096 0 .16.064.192.176l.064.832h.032c.352-.672.976-1.008 1.856-1.008h.416c.128 0 .208.064.208.192v.544c0 .128-.08.176-.208.176h-.432c-.704 0-1.2.224-1.456.656-.192.32-.288.736-.288 1.264v4.8c0 .144-.096.208-.272.208m4.701-4.08v.304c0 .8.048 1.376.16 1.76.24.848.864 1.264 1.856 1.264s1.616-.416 1.872-1.264c.096-.384.16-.96.16-1.76v-.304c0-.784-.064-1.376-.16-1.76q-.36-1.248-1.872-1.248c-1.008 0-1.632.416-1.856 1.248-.112.384-.16.976-.16 1.76m5.104-.16v.64c0 1.44-.288 2.448-.832 2.992-.512.512-1.264.752-2.256.752s-1.728-.24-2.24-.752c-.56-.544-.832-1.552-.832-2.992v-.64c0-1.44.272-2.448.832-3.008.496-.48 1.248-.736 2.24-.736s1.744.256 2.256.736c.544.56.832 1.568.832 3.008m6.554 3.296.112.368q.048.168 0 .24c-.032.048-.112.096-.272.16-.528.224-1.136.32-1.824.32-.992 0-1.728-.224-2.208-.688-.624-.56-.928-1.616-.928-3.168v-.528c0-1.408.32-2.416.976-3.024q.768-.72 2.16-.72c.416 0 .848.08 1.264.208.416.144.768.304 1.024.496.08.064.08.16.016.256l-.272.448c-.064.096-.144.112-.272.032-.608-.352-1.184-.544-1.76-.544-.624 0-1.104.176-1.44.496-.432.432-.64 1.264-.64 2.496v.272c0 1.216.16 2.048.512 2.464.32.416.848.608 1.616.608.512 0 1.024-.096 1.552-.304.208-.08.336-.048.384.112m7.25-4.304v1.312c0 .224-.048.384-.128.48-.096.096-.24.128-.464.128H83.87c.032.96.192 1.632.512 2.016.304.384.832.56 1.584.56.624 0 1.216-.096 1.76-.32.208-.08.336-.048.384.112l.112.368a.3.3 0 0 1-.016.24q-.048.096-.336.192c-.544.208-1.184.304-1.904.304-1.168 0-1.984-.288-2.448-.88-.48-.576-.704-1.536-.704-2.864v-.64c0-1.28.224-2.224.688-2.832.448-.608 1.232-.912 2.32-.912.912 0 1.6.224 2.064.656.464.464.704 1.152.704 2.08m-2.752-1.84c-.704 0-1.216.208-1.504.608-.304.416-.464 1.152-.464 2.24h3.44c.08 0 .144 0 .176-.032s.048-.096.048-.208v-.608c0-.688-.128-1.184-.368-1.488-.288-.336-.72-.512-1.328-.512m10.593 6.816c0 .192-.112.272-.304.272h-.448q-.192 0-.24-.048c-.032-.032-.048-.096-.048-.224v-4.672c0-.944-.256-1.568-.736-1.872-.32-.192-.752-.304-1.296-.304-.752 0-1.28.224-1.568.672q-.288.432-.288 1.248v4.96q0 .24-.288.24h-.496c-.176 0-.256-.08-.256-.24v-7.424c0-.112.048-.176.16-.176h.48c.112 0 .176.064.192.176l.08.64h.032c.128-.224.352-.416.656-.608.4-.224.896-.352 1.504-.352 1.232 0 2.064.368 2.48 1.072q.384.672.384 2.064zm5.47.272h-.752c-.832 0-1.44-.208-1.792-.64-.352-.416-.528-1.024-.528-1.84v-4.448h-.976c-.112 0-.16-.048-.16-.176v-.32c0-.128.048-.192.16-.208l.976-.208v-1.808q0-.192.192-.192h.672c.112 0 .176.064.176.192v1.808h1.872c.096 0 .16.064.16.16v.592c0 .112-.064.16-.16.16h-1.872v4.32c0 .64.096 1.088.288 1.312.192.272.592.4 1.168.4h.576c.128 0 .192.064.192.176v.544c0 .128-.064.176-.192.176m2.391-4.08v.304c0 .8.048 1.376.16 1.76.24.848.864 1.264 1.856 1.264s1.616-.416 1.872-1.264c.096-.384.16-.96.16-1.76v-.304c0-.784-.064-1.376-.16-1.76q-.36-1.248-1.872-1.248c-1.008 0-1.632.416-1.856 1.248-.112.384-.16.976-.16 1.76m5.104-.16v.64c0 1.44-.288 2.448-.832 2.992-.512.512-1.264.752-2.256.752s-1.728-.24-2.24-.752c-.56-.544-.832-1.552-.832-2.992v-.64c0-1.44.272-2.448.832-3.008.496-.48 1.248-.736 2.24-.736s1.744.256 2.256.736c.544.56.832 1.568.832 3.008m5.689-3.216h.72c.288 0 .48.16.544.448.464 2.304.944 4.368 1.456 6.192h.08a87 87 0 0 0 1.488-6.832c0-.096.032-.144.064-.16a.5.5 0 0 1 .224-.032h.496q.168 0 .24.048c.032.032.048.08.048.176q-.528 2.688-1.632 6.96c-.128.448-.352.656-.672.656h-.544c-.208 0-.368-.048-.464-.144-.112-.096-.192-.256-.256-.512a101 101 0 0 1-1.376-5.84h-.112c-.416 2-.88 3.952-1.376 5.84-.064.256-.16.416-.256.512-.112.096-.272.144-.464.144h-.544c-.336 0-.56-.208-.672-.656q-1.128-4.272-1.632-6.96c-.016-.096 0-.144.048-.176q.048-.048.24-.048h.496q.24 0 .288.192c.384 2.272.88 4.56 1.488 6.832h.08c.496-1.824.976-3.888 1.456-6.192.064-.288.24-.448.544-.448m11.122 7.296-.032-.544h-.032c-.352.576-.928.848-1.696.848h-.8c-.768 0-1.328-.192-1.712-.576s-.576-.88-.576-1.504v-.48q0-1.512 1.248-2.016c.352-.144.992-.224 1.92-.224h.48c.384 0 .752.016 1.072.048v-.912c0-.576-.16-.992-.464-1.216-.32-.224-.8-.352-1.472-.352-.56 0-1.104.08-1.648.24-.256.064-.384.032-.416-.128l-.08-.336c-.064-.192 0-.304.176-.368a7.4 7.4 0 0 1 2.048-.304c1.024 0 1.76.192 2.208.56s.688.96.688 1.792v5.472c0 .112-.064.16-.176.16h-.528c-.144 0-.208-.048-.208-.16m-.128-2.24v-1.328a8 8 0 0 0-.96-.048h-.896c-.672 0-1.136.112-1.408.32s-.4.56-.4 1.056v.336c0 .48.112.832.336 1.04.192.192.528.288.976.288h.656c.528 0 .944-.128 1.248-.416.288-.288.448-.704.448-1.248m9.134 2.128c0 .192-.112.272-.304.272h-.448q-.192 0-.24-.048c-.032-.032-.048-.096-.048-.224v-4.672c0-.944-.256-1.568-.736-1.872-.32-.192-.752-.304-1.296-.304-.752 0-1.28.224-1.568.672q-.288.432-.288 1.248v4.96q0 .24-.288.24h-.496c-.176 0-.256-.08-.256-.24v-7.424c0-.112.048-.176.16-.176h.48c.112 0 .176.064.192.176l.08.64h.032c.128-.224.352-.416.656-.608.4-.224.896-.352 1.504-.352 1.232 0 2.064.368 2.48 1.072q.384.672.384 2.064zm3.373-7.392v7.536c0 .096-.048.128-.144.128h-.768c-.096 0-.128-.032-.128-.128v-7.536c0-.112.064-.176.192-.176h.656c.128 0 .192.064.192.176m.224-2.288v.096c0 .512-.24.768-.704.768h-.064c-.496 0-.736-.256-.736-.768v-.096c0-.496.24-.752.736-.752h.064c.464 0 .704.256.704.752m7.577 4.704v1.312c0 .224-.048.384-.128.48-.096.096-.24.128-.464.128h-4.128c.032.96.192 1.632.512 2.016.304.384.832.56 1.584.56.624 0 1.216-.096 1.76-.32.208-.08.336-.048.384.112l.112.368a.3.3 0 0 1-.016.24q-.048.096-.336.192c-.544.208-1.184.304-1.904.304-1.168 0-1.984-.288-2.448-.88-.48-.576-.704-1.536-.704-2.864v-.64c0-1.28.224-2.224.688-2.832.448-.608 1.232-.912 2.32-.912.912 0 1.6.224 2.064.656.464.464.704 1.152.704 2.08m-2.752-1.84c-.704 0-1.216.208-1.504.608-.304.416-.464 1.152-.464 2.24h3.44c.08 0 .144 0 .176-.032s.048-.096.048-.208v-.608c0-.688-.128-1.184-.368-1.488-.288-.336-.72-.512-1.328-.512m11.335 6.336c.8 0 1.344-.208 1.648-.624.304-.432.464-1.2.464-2.288v-.544c0-1.152-.224-1.952-.64-2.384-.336-.32-.848-.496-1.52-.496-.688 0-1.184.16-1.504.48a1.4 1.4 0 0 0-.352.608c-.064.24-.08.592-.08 1.04v2.192c0 .64.112 1.104.336 1.408.288.416.832.608 1.648.608m-1.984-9.904v3.44h.032q.6-.768 2.016-.768 1.584 0 2.352.912c.496.608.752 1.536.752 2.8v.736c0 1.344-.272 2.304-.8 2.848-.528.56-1.328.832-2.384.832-1.152 0-1.952-.272-2.416-.832-.4-.464-.592-1.12-.592-1.968v-8c0-.112.064-.176.192-.176h.656c.128 0 .192.064.192.176m11.361 10.496-.032-.544h-.032c-.352.576-.928.848-1.696.848h-.8c-.768 0-1.328-.192-1.712-.576s-.576-.88-.576-1.504v-.48q0-1.512 1.248-2.016c.352-.144.992-.224 1.92-.224h.48c.384 0 .752.016 1.072.048v-.912c0-.576-.16-.992-.464-1.216-.32-.224-.8-.352-1.472-.352-.56 0-1.104.08-1.648.24-.256.064-.384.032-.416-.128l-.08-.336c-.064-.192 0-.304.176-.368a7.4 7.4 0 0 1 2.048-.304c1.024 0 1.76.192 2.208.56s.688.96.688 1.792v5.472c0 .112-.064.16-.176.16h-.528c-.144 0-.208-.048-.208-.16m-.128-2.24v-1.328a8 8 0 0 0-.96-.048h-.896c-.672 0-1.136.112-1.408.32s-.4.56-.4 1.056v.336c0 .48.112.832.336 1.04.192.192.528.288.976.288h.656c.528 0 .944-.128 1.248-.416.288-.288.448-.704.448-1.248m7.902 1.664v.576c0 .112-.064.16-.16.16h-4.992c-.112 0-.16-.048-.16-.16v-.272c0-.16.096-.384.288-.704l3.52-5.808h-3.536c-.112 0-.16-.048-.16-.16v-.576c0-.096.048-.16.16-.16h4.736c.096 0 .16.064.16.16v.224c0 .192-.144.512-.416.96l-3.44 5.6h3.84c.096 0 .16.064.16.16m2.093-3.344v.304c0 .8.048 1.376.16 1.76.24.848.864 1.264 1.856 1.264s1.616-.416 1.872-1.264c.096-.384.16-.96.16-1.76v-.304c0-.784-.064-1.376-.16-1.76q-.36-1.248-1.872-1.248c-1.008 0-1.632.416-1.856 1.248-.112.384-.16.976-.16 1.76m5.104-.16v.64c0 1.44-.288 2.448-.832 2.992-.512.512-1.264.752-2.256.752s-1.728-.24-2.24-.752c-.56-.544-.832-1.552-.832-2.992v-.64c0-1.44.272-2.448.832-3.008.496-.48 1.248-.736 2.24-.736s1.744.256 2.256.736c.544.56.832 1.568.832 3.008m5.689-3.216h.72c.288 0 .48.16.544.448.464 2.304.944 4.368 1.456 6.192h.08a87 87 0 0 0 1.488-6.832c0-.096.032-.144.064-.16a.5.5 0 0 1 .224-.032h.496q.168 0 .24.048c.032.032.048.08.048.176q-.528 2.688-1.632 6.96c-.128.448-.352.656-.672.656h-.544c-.208 0-.368-.048-.464-.144-.112-.096-.192-.256-.256-.512a101 101 0 0 1-1.376-5.84h-.112c-.416 2-.88 3.952-1.376 5.84-.064.256-.16.416-.256.512-.112.096-.272.144-.464.144h-.544c-.336 0-.56-.208-.672-.656q-1.128-4.272-1.632-6.96c-.016-.096 0-.144.048-.176q.048-.048.24-.048h.496q.24 0 .288.192c.384 2.272.88 4.56 1.488 6.832h.08c.496-1.824.976-3.888 1.456-6.192.064-.288.24-.448.544-.448m12.192 2.208v1.312c0 .224-.048.384-.128.48-.096.096-.24.128-.464.128h-4.128c.032.96.192 1.632.512 2.016.304.384.832.56 1.584.56.624 0 1.216-.096 1.76-.32.208-.08.336-.048.384.112l.112.368a.3.3 0 0 1-.016.24q-.048.096-.336.192c-.544.208-1.184.304-1.904.304-1.168 0-1.984-.288-2.448-.88-.48-.576-.704-1.536-.704-2.864v-.64c0-1.28.224-2.224.688-2.832.448-.608 1.232-.912 2.32-.912.912 0 1.6.224 2.064.656.464.464.704 1.152.704 2.08m-2.752-1.84c-.704 0-1.216.208-1.504.608-.304.416-.464 1.152-.464 2.24h3.44c.08 0 .144 0 .176-.032s.048-.096.048-.208v-.608c0-.688-.128-1.184-.368-1.488-.288-.336-.72-.512-1.328-.512m5.298-.496h.16c.448 0 .688.208.688.624v.384c0 .416-.24.624-.688.624h-.16c-.464 0-.688-.208-.688-.624v-.384c0-.416.224-.624.688-.624m0 6.096h.16c.448 0 .688.208.688.624v.384c0 .416-.24.624-.688.624h-.16c-.464 0-.688-.208-.688-.624v-.384c0-.416.224-.624.688-.624m13.196-3.904v.432c0 2.064-.352 3.472-1.04 4.24-.512.576-1.28.864-2.288.864-1.024 0-1.776-.288-2.288-.864-.704-.768-1.04-2.176-1.04-4.24v-.432c0-2.048.336-3.472 1.04-4.24.512-.576 1.264-.864 2.288-.864 1.008 0 1.776.288 2.288.864.688.768 1.04 2.192 1.04 4.24m-5.488.112v.208c0 1.728.192 2.896.608 3.52.32.544.848.8 1.552.8s1.216-.256 1.552-.8c.4-.624.608-1.792.608-3.52v-.208c0-1.712-.208-2.88-.608-3.52-.336-.528-.848-.8-1.552-.8s-1.232.272-1.552.8c-.416.64-.608 1.808-.608 3.52m7.833 3.792h.24c.496 0 .752.272.752.816v.304c0 .352-.08.736-.208 1.152q-.264.696-.672 1.2c-.096.128-.208.16-.336.08l-.288-.176c-.128-.064-.128-.16-.016-.304.096-.128.192-.304.32-.528.096-.192.176-.368.224-.544.032-.128.016-.224-.08-.288l-.288-.144c-.208-.096-.304-.32-.304-.656v-.304c0-.4.208-.608.656-.608m9.14-3.904v.432c0 2.064-.352 3.472-1.04 4.24-.512.576-1.28.864-2.288.864-1.024 0-1.776-.288-2.288-.864-.704-.768-1.04-2.176-1.04-4.24v-.432c0-2.048.336-3.472 1.04-4.24.512-.576 1.264-.864 2.288-.864 1.008 0 1.776.288 2.288.864.688.768 1.04 2.192 1.04 4.24m-5.488.112v.208c0 1.728.192 2.896.608 3.52.32.544.848.8 1.552.8s1.216-.256 1.552-.8c.4-.624.608-1.792.608-3.52v-.208c0-1.712-.208-2.88-.608-3.52-.336-.528-.848-.8-1.552-.8s-1.232.272-1.552.8c-.416.64-.608 1.808-.608 3.52m12.424 2.128v-.144c0-.752-.176-1.312-.496-1.696-.352-.368-.864-.56-1.568-.56s-1.328.176-1.888.528c-.144.096-.256.112-.352.064l-.24-.096c-.112-.032-.16-.128-.128-.272l.336-4.736c0-.192.112-.288.32-.288h4.192c.192 0 .288.096.288.256v.384c0 .176-.112.256-.32.256h-3.392c-.144 0-.224.08-.224.208l-.224 3.232c.496-.32 1.12-.48 1.888-.48 1.024 0 1.792.304 2.304.896.448.544.672 1.312.672 2.272v.176c0 1.12-.32 1.952-.928 2.496s-1.456.8-2.576.8a5.5 5.5 0 0 1-2.496-.576c-.176-.08-.24-.192-.176-.336l.16-.432c.048-.16.16-.192.352-.112.656.384 1.376.56 2.176.56s1.392-.192 1.76-.592c.368-.384.56-.976.56-1.808m5.049 3.088 5.664-10.24a.33.33 0 0 1 .303-.192h.609c.16 0 .208.08.144.208l-5.664 10.24a.38.38 0 0 1-.352.192h-.56c-.16 0-.208-.064-.144-.208m2.08-7.68v.176c0 1.104-.208 1.856-.624 2.272q-.48.48-1.392.48t-1.392-.48c-.416-.416-.624-1.168-.624-2.272v-.176c0-1.088.208-1.856.624-2.272q.48-.48 1.392-.48t1.392.48c.416.416.624 1.184.624 2.272m-.976.16v-.144q0-1.104-.24-1.536c-.16-.272-.416-.416-.8-.416s-.656.144-.816.416c-.16.288-.224.8-.224 1.536v.144c0 .752.064 1.264.224 1.536.16.288.432.416.816.416s.64-.128.8-.416q.24-.408.24-1.536m7.568 4.8v.176c0 1.104-.208 1.856-.624 2.272q-.48.48-1.392.48t-1.392-.48c-.416-.416-.624-1.168-.624-2.272v-.176c0-1.088.208-1.856.624-2.272q.48-.48 1.392-.48t1.392.48c.416.416.624 1.184.624 2.272m-.976.16v-.144q0-1.104-.24-1.536c-.16-.272-.416-.416-.8-.416s-.656.144-.816.416c-.16.288-.224.8-.224 1.536v.144c0 .752.064 1.264.224 1.536.16.288.432.416.816.416s.64-.128.8-.416q.24-.408.24-1.536m3.46 1.136h.24c.496 0 .752.272.752.816v.304c0 .352-.08.736-.208 1.152q-.264.696-.672 1.2c-.096.128-.208.16-.336.08l-.288-.176c-.128-.064-.128-.16-.016-.304.096-.128.192-.304.32-.528.096-.192.176-.368.224-.544.032-.128.016-.224-.08-.288l-.288-.144c-.208-.096-.304-.32-.304-.656v-.304c0-.4.208-.608.656-.608m7.193-2.592v.304c0 .8.048 1.376.16 1.76.24.848.864 1.264 1.856 1.264s1.616-.416 1.872-1.264c.096-.384.16-.96.16-1.76v-.304c0-.784-.064-1.376-.16-1.76q-.36-1.248-1.872-1.248c-1.008 0-1.632.416-1.856 1.248-.112.384-.16.976-.16 1.76m5.104-.16v.64c0 1.44-.288 2.448-.832 2.992-.512.512-1.264.752-2.256.752s-1.728-.24-2.24-.752c-.56-.544-.832-1.552-.832-2.992v-.64c0-1.44.272-2.448.832-3.008.496-.48 1.248-.736 2.24-.736s1.744.256 2.256.736c.544.56.832 1.568.832 3.008m5.034 4.384c-1.024 0-1.76-.272-2.192-.848h-.032v3.36c0 .128-.064.176-.16.176h-.72c-.112 0-.16-.048-.16-.176v-10.32c0-.112.048-.176.16-.176h.48c.112 0 .176.064.192.176l.096.64h.032c.448-.64 1.232-.96 2.32-.96 1.04 0 1.792.288 2.24.864s.688 1.472.688 2.72v.832q0 1.848-.672 2.784c-.448.624-1.2.928-2.272.928m-.128-7.232c-1.408 0-2.096.672-2.096 2.016v2.256c0 .688.176 1.2.56 1.552.368.352.896.512 1.568.512.704 0 1.232-.192 1.552-.592q.432-.528.432-2.304v-.608c0-1.12-.176-1.888-.496-2.288-.32-.352-.816-.544-1.52-.544M270.435 34h-.512c-.176 0-.256-.064-.256-.208v-7.456c0-.112.064-.176.192-.176h.464c.096 0 .16.064.192.176l.064.832h.032c.352-.672.976-1.008 1.856-1.008h.416c.128 0 .208.064.208.192v.544c0 .128-.08.176-.208.176h-.432c-.704 0-1.2.224-1.456.656-.192.32-.288.736-.288 1.264v4.8c0 .144-.096.208-.272.208m4.7-4.08v.304c0 .8.048 1.376.16 1.76.24.848.864 1.264 1.856 1.264s1.616-.416 1.872-1.264c.096-.384.16-.96.16-1.76v-.304c0-.784-.064-1.376-.16-1.76q-.36-1.248-1.872-1.248c-1.008 0-1.632.416-1.856 1.248-.112.384-.16.976-.16 1.76m5.104-.16v.64c0 1.44-.288 2.448-.832 2.992-.512.512-1.264.752-2.256.752s-1.728-.24-2.24-.752c-.56-.544-.832-1.552-.832-2.992v-.64c0-1.44.272-2.448.832-3.008.496-.48 1.248-.736 2.24-.736s1.744.256 2.256.736c.544.56.832 1.568.832 3.008m6.554 3.296.112.368q.048.168 0 .24c-.032.048-.112.096-.272.16-.528.224-1.136.32-1.824.32-.992 0-1.728-.224-2.208-.688-.624-.56-.928-1.616-.928-3.168v-.528c0-1.408.32-2.416.976-3.024q.768-.72 2.16-.72c.416 0 .848.08 1.264.208.416.144.768.304 1.024.496.08.064.08.16.016.256l-.272.448c-.064.096-.144.112-.272.032-.608-.352-1.184-.544-1.76-.544-.624 0-1.104.176-1.44.496-.432.432-.64 1.264-.64 2.496v.272c0 1.216.16 2.048.512 2.464.32.416.848.608 1.616.608.512 0 1.024-.096 1.552-.304.208-.08.336-.048.384.112m7.25-4.304v1.312c0 .224-.048.384-.128.48-.096.096-.24.128-.464.128h-4.128c.032.96.192 1.632.512 2.016.304.384.832.56 1.584.56.624 0 1.216-.096 1.76-.32.208-.08.336-.048.384.112l.112.368a.3.3 0 0 1-.016.24q-.048.096-.336.192c-.544.208-1.184.304-1.904.304-1.168 0-1.984-.288-2.448-.88-.48-.576-.704-1.536-.704-2.864v-.64c0-1.28.224-2.224.688-2.832.448-.608 1.232-.912 2.32-.912.912 0 1.6.224 2.064.656.464.464.704 1.152.704 2.08m-2.752-1.84c-.704 0-1.216.208-1.504.608-.304.416-.464 1.152-.464 2.24h3.44c.08 0 .144 0 .176-.032s.048-.096.048-.208v-.608c0-.688-.128-1.184-.368-1.488-.288-.336-.72-.512-1.328-.512m10.594 6.816c0 .192-.112.272-.304.272h-.448q-.192 0-.24-.048c-.032-.032-.048-.096-.048-.224v-4.672c0-.944-.256-1.568-.736-1.872-.32-.192-.752-.304-1.297-.304-.751 0-1.279.224-1.567.672q-.288.432-.288 1.248v4.96q0 .24-.288.24h-.496c-.176 0-.256-.08-.256-.24v-7.424c0-.112.048-.176.16-.176h.48c.112 0 .176.064.192.176l.08.64h.032c.128-.224.352-.416.656-.608.4-.224.896-.352 1.504-.352 1.232 0 2.064.368 2.48 1.072q.384.672.384 2.064zm5.469.272h-.752c-.832 0-1.44-.208-1.792-.64-.352-.416-.528-1.024-.528-1.84v-4.448h-.976c-.112 0-.16-.048-.16-.176v-.32c0-.128.048-.192.16-.208l.976-.208v-1.808q0-.192.192-.192h.672c.112 0 .176.064.176.192v1.808h1.872c.096 0 .16.064.16.16v.592c0 .112-.064.16-.16.16h-1.872v4.32c0 .64.096 1.088.288 1.312.192.272.592.4 1.168.4h.576c.128 0 .192.064.192.176v.544c0 .128-.064.176-.192.176m2.391-4.08v.304c0 .8.048 1.376.16 1.76.24.848.864 1.264 1.856 1.264s1.616-.416 1.872-1.264c.096-.384.16-.96.16-1.76v-.304c0-.784-.064-1.376-.16-1.76q-.36-1.248-1.872-1.248c-1.008 0-1.632.416-1.856 1.248-.112.384-.16.976-.16 1.76m5.104-.16v.64c0 1.44-.288 2.448-.832 2.992-.512.512-1.264.752-2.256.752s-1.728-.24-2.24-.752c-.56-.544-.832-1.552-.832-2.992v-.64c0-1.44.272-2.448.832-3.008.496-.48 1.248-.736 2.24-.736s1.744.256 2.256.736c.544.56.832 1.568.832 3.008m5.69-3.216h.72c.288 0 .48.16.544.448.464 2.304.944 4.368 1.456 6.192h.08a87 87 0 0 0 1.488-6.832c0-.096.032-.144.064-.16a.5.5 0 0 1 .224-.032h.496q.168 0 .24.048c.032.032.048.08.048.176q-.528 2.688-1.632 6.96c-.128.448-.352.656-.672.656h-.544c-.208 0-.368-.048-.464-.144-.112-.096-.192-.256-.256-.512a101 101 0 0 1-1.376-5.84h-.112c-.416 2-.88 3.952-1.376 5.84-.064.256-.16.416-.256.512-.112.096-.272.144-.464.144h-.544c-.336 0-.56-.208-.672-.656q-1.128-4.272-1.632-6.96c-.016-.096 0-.144.048-.176q.048-.048.24-.048h.496q.24 0 .288.192c.384 2.272.88 4.56 1.488 6.832h.08c.496-1.824.976-3.888 1.456-6.192.064-.288.24-.448.544-.448m11.121 7.296-.032-.544h-.032c-.352.576-.928.848-1.696.848h-.8c-.768 0-1.328-.192-1.712-.576s-.576-.88-.576-1.504v-.48q0-1.512 1.248-2.016c.352-.144.992-.224 1.92-.224h.48c.384 0 .752.016 1.072.048v-.912c0-.576-.16-.992-.464-1.216-.32-.224-.8-.352-1.472-.352-.56 0-1.104.08-1.648.24-.256.064-.384.032-.416-.128l-.08-.336c-.064-.192 0-.304.176-.368a7.4 7.4 0 0 1 2.048-.304c1.024 0 1.76.192 2.208.56s.688.96.688 1.792v5.472c0 .112-.064.16-.176.16h-.528c-.144 0-.208-.048-.208-.16m-.128-2.24v-1.328a8 8 0 0 0-.96-.048h-.896c-.672 0-1.136.112-1.408.32s-.4.56-.4 1.056v.336c0 .48.112.832.336 1.04.192.192.528.288.976.288h.656c.528 0 .944-.128 1.248-.416.288-.288.448-.704.448-1.248m9.134 2.128c0 .192-.112.272-.304.272h-.448q-.192 0-.24-.048c-.032-.032-.048-.096-.048-.224v-4.672c0-.944-.256-1.568-.736-1.872-.32-.192-.752-.304-1.296-.304-.752 0-1.28.224-1.568.672q-.288.432-.288 1.248v4.96q0 .24-.288.24h-.496c-.176 0-.256-.08-.256-.24v-7.424c0-.112.048-.176.16-.176h.48c.112 0 .176.064.192.176l.08.64h.032c.128-.224.352-.416.656-.608.4-.224.896-.352 1.504-.352 1.232 0 2.064.368 2.48 1.072q.384.672.384 2.064zm3.373-7.392v7.536c0 .096-.047.128-.143.128h-.768c-.096 0-.128-.032-.128-.128v-7.536c0-.112.064-.176.192-.176h.656c.128 0 .191.064.191.176m.225-2.288v.096c0 .512-.24.768-.704.768h-.064c-.496 0-.736-.256-.736-.768v-.096c0-.496.24-.752.736-.752h.064c.464 0 .704.256.704.752m7.576 4.704v1.312c0 .224-.048.384-.128.48-.096.096-.24.128-.464.128h-4.128c.032.96.192 1.632.512 2.016.304.384.832.56 1.584.56.624 0 1.216-.096 1.76-.32.208-.08.336-.048.384.112l.112.368a.3.3 0 0 1-.016.24q-.048.096-.336.192c-.544.208-1.184.304-1.904.304-1.168 0-1.984-.288-2.448-.88-.48-.576-.704-1.536-.704-2.864v-.64c0-1.28.224-2.224.688-2.832.448-.608 1.232-.912 2.32-.912.912 0 1.6.224 2.064.656.464.464.704 1.152.704 2.08m-2.752-1.84c-.704 0-1.216.208-1.504.608-.304.416-.464 1.152-.464 2.24h3.44c.08 0 .144 0 .176-.032s.048-.096.048-.208v-.608c0-.688-.128-1.184-.368-1.488-.288-.336-.72-.512-1.328-.512m11.607 7.232c-1.024 0-1.76-.272-2.192-.848h-.032v3.36c0 .128-.064.176-.16.176h-.72c-.112 0-.16-.048-.16-.176v-10.32c0-.112.048-.176.16-.176h.48c.112 0 .176.064.192.176l.096.64h.032c.448-.64 1.232-.96 2.32-.96 1.04 0 1.792.288 2.24.864s.688 1.472.688 2.72v.832q0 1.848-.672 2.784c-.448.624-1.2.928-2.272.928m-.128-7.232c-1.408 0-2.096.672-2.096 2.016v2.256c0 .688.176 1.2.56 1.552.368.352.896.512 1.568.512.704 0 1.232-.192 1.552-.592q.432-.528.432-2.304v-.608c0-1.12-.176-1.888-.496-2.288-.32-.352-.816-.544-1.52-.544M366.231 34h-.512c-.176 0-.256-.064-.256-.208v-7.456c0-.112.064-.176.192-.176h.464c.096 0 .16.064.192.176l.064.832h.032c.352-.672.976-1.008 1.856-1.008h.416c.128 0 .208.064.208.192v.544c0 .128-.08.176-.208.176h-.432c-.704 0-1.2.224-1.456.656-.192.32-.288.736-.288 1.264v4.8c0 .144-.096.208-.272.208m4.701-4.08v.304c0 .8.048 1.376.16 1.76.24.848.864 1.264 1.856 1.264s1.616-.416 1.872-1.264c.096-.384.16-.96.16-1.76v-.304c0-.784-.064-1.376-.16-1.76q-.36-1.248-1.872-1.248c-1.008 0-1.632.416-1.856 1.248-.112.384-.16.976-.16 1.76m5.104-.16v.64c0 1.44-.288 2.448-.832 2.992-.512.512-1.264.752-2.256.752s-1.728-.24-2.24-.752c-.56-.544-.832-1.552-.832-2.992v-.64c0-1.44.272-2.448.832-3.008.496-.48 1.248-.736 2.24-.736s1.744.256 2.256.736c.544.56.832 1.568.832 3.008m1.818 4v-7.424c0-.112.048-.176.176-.176h.464c.112 0 .176.064.192.176l.08.64h.032c.128-.224.352-.416.656-.608.4-.224.896-.352 1.488-.352 1.12 0 1.92.368 2.384 1.104h.032c.56-.736 1.392-1.104 2.48-1.104.96 0 1.664.256 2.112.752.416.496.64 1.296.64 2.384v4.608c0 .16-.096.24-.256.24h-.544q-.24 0-.24-.24v-4.672c0-.736-.144-1.264-.4-1.616-.32-.368-.8-.56-1.472-.56q-1.296 0-2.016.96c.064.416.096.848.096 1.28v4.608q0 .24-.24.24h-.544c-.176 0-.256-.08-.256-.24v-4.672q0-1.176-.48-1.68c-.32-.32-.832-.496-1.504-.496-.736 0-1.264.224-1.552.672q-.288.432-.288 1.248v4.928q0 .24-.24.24h-.56q-.24 0-.24-.24m13.531-3.84v.304c0 .8.048 1.376.16 1.76.24.848.864 1.264 1.856 1.264s1.616-.416 1.872-1.264c.096-.384.16-.96.16-1.76v-.304c0-.784-.064-1.376-.16-1.76q-.36-1.248-1.872-1.248c-1.008 0-1.632.416-1.856 1.248-.112.384-.16.976-.16 1.76m5.104-.16v.64c0 1.44-.288 2.448-.832 2.992-.512.512-1.264.752-2.256.752s-1.728-.24-2.24-.752c-.56-.544-.832-1.552-.832-2.992v-.64c0-1.44.272-2.448.832-3.008.496-.48 1.248-.736 2.24-.736s1.744.256 2.256.736c.544.56.832 1.568.832 3.008m6.554 3.296.112.368q.048.168 0 .24c-.032.048-.112.096-.272.16-.528.224-1.136.32-1.824.32-.992 0-1.728-.224-2.208-.688-.624-.56-.928-1.616-.928-3.168v-.528c0-1.408.32-2.416.976-3.024q.768-.72 2.16-.72c.416 0 .848.08 1.264.208.416.144.768.304 1.024.496.08.064.08.16.016.256l-.272.448c-.064.096-.144.112-.272.032-.608-.352-1.184-.544-1.76-.544-.624 0-1.104.176-1.44.496-.432.432-.64 1.264-.64 2.496v.272c0 1.216.16 2.048.512 2.464.32.416.848.608 1.616.608.512 0 1.024-.096 1.552-.304.208-.08.336-.048.384.112m3.147 3.392c.432-.848.816-1.696 1.168-2.56-.48 0-.848-.336-1.072-1.008a34 34 0 0 1-.896-2.752c-.384-1.36-.72-2.608-.976-3.76-.032-.128.016-.208.176-.208h.72c.096 0 .144.048.176.144a51 51 0 0 0 .848 3.552c.176.704.448 1.568.8 2.592.064.192.128.336.208.4.064.08.176.112.304.112h.064c.608-1.664 1.184-3.888 1.744-6.672.016-.08.08-.128.176-.128h.736c.064 0 .096.016.128.048s.032.064.032.096c-.496 2.32-1.008 4.24-1.52 5.776a50 50 0 0 1-1.872 4.768c-.064.144-.176.176-.336.112l-.528-.192c-.144-.048-.176-.16-.08-.32m7.1-10.112v7.568c0 .784-.144 1.408-.4 1.856-.416.736-1.136 1.088-2.16 1.088h-.576c-.128 0-.176-.064-.176-.192v-.528c0-.128.048-.192.176-.192h.544c.64 0 1.088-.24 1.312-.736.16-.352.24-.8.24-1.376v-7.488c0-.112.064-.176.192-.176h.656c.128 0 .192.064.192.176m.224-2.288v.096c0 .512-.24.768-.704.768h-.064c-.496 0-.736-.256-.736-.768v-.096c0-.496.24-.752.736-.752h.064c.464 0 .704.256.704.752m8.167 9.68c0 .192-.112.272-.304.272h-.448q-.192 0-.24-.048c-.032-.032-.048-.096-.048-.224v-4.672c0-.944-.256-1.568-.736-1.872-.32-.192-.752-.304-1.296-.304-.752 0-1.28.224-1.568.672q-.288.432-.288 1.248v4.96q0 .24-.288.24h-.496c-.176 0-.256-.08-.256-.24v-7.424c0-.112.048-.176.16-.176h.48c.112 0 .176.064.192.176l.08.64h.032c.128-.224.352-.416.656-.608.4-.224.896-.352 1.504-.352 1.232 0 2.064.368 2.48 1.072q.384.672.384 2.064zm7.518-4.976v1.312c0 .224-.048.384-.128.48-.096.096-.24.128-.464.128h-4.128c.032.96.192 1.632.512 2.016.304.384.832.56 1.584.56.624 0 1.216-.096 1.76-.32.208-.08.336-.048.384.112l.112.368a.3.3 0 0 1-.016.24q-.048.096-.336.192c-.544.208-1.184.304-1.904.304-1.168 0-1.984-.288-2.448-.88-.48-.576-.704-1.536-.704-2.864v-.64c0-1.28.224-2.224.688-2.832.448-.608 1.232-.912 2.32-.912.912 0 1.6.224 2.064.656.464.464.704 1.152.704 2.08m-2.752-1.84c-.704 0-1.216.208-1.504.608-.304.416-.464 1.152-.464 2.24h3.44c.08 0 .144 0 .176-.032s.048-.096.048-.208v-.608c0-.688-.128-1.184-.368-1.488-.288-.336-.72-.512-1.328-.512m5.298-.496h.16c.448 0 .688.208.688.624v.384c0 .416-.24.624-.688.624h-.16c-.464 0-.688-.208-.688-.624v-.384c0-.416.224-.624.688-.624m0 6.096h.16c.448 0 .688.208.688.624v.384c0 .416-.24.624-.688.624h-.16c-.464 0-.688-.208-.688-.624v-.384c0-.416.224-.624.688-.624m11.004-1.168h-4.384c-.208 0-.304-.096-.304-.32v-.272q0-.168.288-.672l3.632-6.176c.096-.16.256-.256.512-.256h.96c.256 0 .4.128.4.352v6.4h1.04c.176 0 .272.08.272.224v.464c0 .176-.096.256-.272.256h-1.04v2.384c0 .192-.096.272-.256.272h-.608c-.16 0-.24-.08-.24-.272zm0-.944v-5.776h-.112l-3.408 5.776zm4.537 2.112h.24c.496 0 .752.272.752.816v.304c0 .352-.08.736-.208 1.152q-.264.696-.672 1.2c-.096.128-.208.16-.336.08l-.288-.176c-.128-.064-.128-.16-.016-.304.096-.128.192-.304.32-.528.096-.192.176-.368.224-.544.032-.128.016-.224-.08-.288l-.288-.144c-.208-.096-.304-.32-.304-.656v-.304c0-.4.208-.608.656-.608m6.948-1.168h-4.384c-.208 0-.304-.096-.304-.32v-.272q0-.168.288-.672l3.632-6.176c.096-.16.256-.256.512-.256h.96c.256 0 .4.128.4.352v6.4h1.04c.176 0 .272.08.272.224v.464c0 .176-.096.256-.272.256h-1.04v2.384c0 .192-.096.272-.256.272h-.608c-.16 0-.24-.08-.24-.272zm0-.944v-5.776h-.112l-3.408 5.776zm9.128.448v-.144c0-.752-.176-1.312-.496-1.696-.352-.368-.864-.56-1.568-.56s-1.328.176-1.888.528c-.144.096-.256.112-.352.064l-.24-.096c-.112-.032-.16-.128-.128-.272l.336-4.736c0-.192.112-.288.32-.288h4.192c.192 0 .288.096.288.256v.384c0 .176-.112.256-.32.256h-3.392c-.144 0-.224.08-.224.208l-.224 3.232c.496-.32 1.12-.48 1.888-.48 1.024 0 1.792.304 2.304.896.448.544.672 1.312.672 2.272v.176c0 1.12-.32 1.952-.928 2.496s-1.456.8-2.576.8a5.5 5.5 0 0 1-2.496-.576c-.176-.08-.24-.192-.176-.336l.16-.432c.048-.16.16-.192.352-.112.656.384 1.376.56 2.176.56s1.392-.192 1.76-.592c.368-.384.56-.976.56-1.808m5.049 3.088 5.664-10.24a.33.33 0 0 1 .303-.192h.609c.16 0 .208.08.144.208l-5.664 10.24a.38.38 0 0 1-.352.192h-.56c-.16 0-.208-.064-.144-.208m2.08-7.68v.176c0 1.104-.208 1.856-.624 2.272q-.48.48-1.392.48t-1.392-.48c-.416-.416-.624-1.168-.624-2.272v-.176c0-1.088.208-1.856.624-2.272q.48-.48 1.392-.48t1.392.48c.416.416.624 1.184.624 2.272m-.976.16v-.144q0-1.104-.24-1.536c-.16-.272-.416-.416-.8-.416s-.656.144-.816.416c-.16.288-.224.8-.224 1.536v.144c0 .752.064 1.264.224 1.536.16.288.432.416.816.416s.64-.128.8-.416q.24-.408.24-1.536m7.568 4.8v.176c0 1.104-.208 1.856-.624 2.272q-.48.48-1.392.48t-1.392-.48c-.416-.416-.624-1.168-.624-2.272v-.176c0-1.088.208-1.856.624-2.272q.48-.48 1.392-.48t1.392.48c.416.416.624 1.184.624 2.272m-.976.16v-.144q0-1.104-.24-1.536c-.16-.272-.416-.416-.8-.416s-.656.144-.816.416c-.16.288-.224.8-.224 1.536v.144c0 .752.064 1.264.224 1.536.16.288.432.416.816.416s.64-.128.8-.416q.24-.408.24-1.536m3.156 4.432c-.128.16-.256.192-.416.112l-.384-.192c-.144-.064-.176-.176-.08-.304 1.312-1.744 1.968-3.728 1.968-5.968 0-1.136-.16-2.176-.448-3.104s-.8-1.888-1.504-2.864c-.096-.128-.064-.224.112-.32l.368-.192c.128-.064.256-.032.368.096 1.504 1.936 2.256 4.048 2.256 6.352a10.1 10.1 0 0 1-.512 3.248c-.352 1.008-.928 2.048-1.728 3.136m4.787-3.296h.16c.448 0 .688.208.688.624v.384c0 .416-.24.624-.688.624h-.16c-.464 0-.688-.208-.688-.624v-.384c0-.416.224-.624.688-.624M2.032 47.608v.432c0 1.76.24 2.912.72 3.472.416.496 1.056.736 1.904.736.928 0 1.584-.272 2-.832.416-.576.624-1.696.624-3.376v-.432c0-.832-.048-1.52-.128-2.064s-.24-.976-.496-1.328c-.416-.544-1.072-.816-2-.816q-1.368 0-1.968.816c-.448.576-.656 1.712-.656 3.392m6.416-.192v.832c0 1.856-.336 3.136-.976 3.872-.608.688-1.536 1.024-2.816 1.024-1.2 0-2.096-.304-2.704-.912-.736-.736-1.088-2.064-1.088-3.984v-.832c0-1.856.336-3.168 1.008-3.92.592-.656 1.52-.992 2.784-.992 1.248 0 2.176.336 2.784.992.672.752 1.008 2.064 1.008 3.92M11.633 53h-.672q-.193 0-.193-.192v-6.736h-.976c-.111 0-.16-.048-.16-.176v-.32c0-.128.049-.192.16-.208l.976-.208v-.496c0-.704.112-1.232.336-1.616.4-.672 1.12-1.024 2.145-1.024.511 0 .928.048 1.28.144q.19.072.191.24l-.08.448c-.032.144-.128.192-.272.16a5.4 5.4 0 0 0-.96-.096c-.511 0-.88.112-1.12.304-.32.256-.48.736-.48 1.456v.48h1.713c.095 0 .16.064.16.16v.592c0 .112-.064.16-.16.16h-1.713v6.736c0 .128-.063.192-.175.192m8.816-5.248v1.312c0 .224-.048.384-.128.48-.096.096-.24.128-.464.128H15.73c.032.96.192 1.632.512 2.016.304.384.832.56 1.584.56.624 0 1.216-.096 1.76-.32.208-.08.336-.048.384.112l.112.368a.3.3 0 0 1-.016.24q-.048.096-.336.192c-.544.208-1.184.304-1.904.304-1.168 0-1.984-.288-2.448-.88-.48-.576-.704-1.536-.704-2.864v-.64c0-1.28.224-2.224.688-2.832.448-.608 1.232-.912 2.32-.912.912 0 1.6.224 2.064.656.464.464.704 1.152.704 2.08m-2.752-1.84c-.704 0-1.216.208-1.504.608-.304.416-.464 1.152-.464 2.24h3.44c.08 0 .144 0 .176-.032s.048-.096.048-.208v-.608c0-.688-.128-1.184-.368-1.488-.288-.336-.72-.512-1.328-.512M23.091 53h-.512c-.176 0-.256-.064-.256-.208v-7.456c0-.112.064-.176.192-.176h.464c.096 0 .16.064.192.176l.064.832h.032c.352-.672.976-1.008 1.856-1.008h.416c.128 0 .208.064.208.192v.544c0 .128-.08.176-.208.176h-.432c-.704 0-1.2.224-1.456.656-.192.32-.288.736-.288 1.264v4.8c0 .144-.096.208-.272.208m7.654 0h-.752c-.832 0-1.44-.208-1.792-.64-.352-.416-.528-1.024-.528-1.84v-4.448h-.976c-.112 0-.16-.048-.16-.176v-.32c0-.128.048-.192.16-.208l.976-.208v-1.808q0-.192.192-.192h.672c.112 0 .176.064.176.192v1.808h1.872c.096 0 .16.064.16.16v.592c0 .112-.064.16-.16.16h-1.872v4.32c0 .64.096 1.088.288 1.312.192.272.592.4 1.168.4h.576c.128 0 .192.064.192.176v.544c0 .128-.064.176-.192.176m6.102-.16-.032-.544h-.032c-.352.576-.928.848-1.696.848h-.8c-.768 0-1.328-.192-1.712-.576S32 51.688 32 51.064v-.48q0-1.512 1.248-2.016c.352-.144.992-.224 1.92-.224h.48c.384 0 .752.016 1.072.048v-.912c0-.576-.16-.992-.464-1.216-.32-.224-.8-.352-1.472-.352-.56 0-1.104.08-1.648.24-.256.064-.384.032-.416-.128l-.08-.336c-.064-.192 0-.304.176-.368a7.4 7.4 0 0 1 2.048-.304c1.024 0 1.76.192 2.208.56s.688.96.688 1.792v5.472c0 .112-.064.16-.176.16h-.528c-.144 0-.208-.048-.208-.16m-.128-2.24v-1.328a8 8 0 0 0-.96-.048h-.896c-.672 0-1.136.112-1.408.32s-.4.56-.4 1.056v.336c0 .48.112.832.336 1.04.192.192.528.288.976.288h.656c.528 0 .944-.128 1.248-.416.288-.288.448-.704.448-1.248m7.604-1.68v.304c0 .8.048 1.376.16 1.76.24.848.864 1.264 1.856 1.264s1.616-.416 1.872-1.264c.096-.384.16-.96.16-1.76v-.304c0-.784-.064-1.376-.16-1.76q-.36-1.248-1.872-1.248c-1.008 0-1.632.416-1.856 1.248-.112.384-.16.976-.16 1.76m5.104-.16v.64c0 1.44-.288 2.448-.832 2.992-.512.512-1.264.752-2.256.752s-1.728-.24-2.24-.752c-.56-.544-.832-1.552-.832-2.992v-.64c0-1.44.272-2.448.832-3.008.496-.48 1.248-.736 2.24-.736s1.744.256 2.256.736c.544.56.832 1.568.832 3.008m4.762 3.488c.8 0 1.344-.208 1.648-.624.304-.432.464-1.2.464-2.288v-.544c0-1.152-.224-1.952-.64-2.384-.336-.32-.848-.496-1.52-.496-.688 0-1.184.16-1.504.48a1.4 1.4 0 0 0-.352.608c-.064.24-.08.592-.08 1.04v2.192c0 .64.112 1.104.336 1.408.288.416.832.608 1.648.608m-1.984-9.904v3.44h.032q.6-.768 2.016-.768 1.584 0 2.352.912c.496.608.752 1.536.752 2.8v.736c0 1.344-.272 2.304-.8 2.848-.528.56-1.328.832-2.384.832-1.152 0-1.952-.272-2.416-.832-.4-.464-.592-1.12-.592-1.968v-8c0-.112.064-.176.192-.176h.656c.128 0 .192.064.192.176m7.65 6.576v.304c0 .8.047 1.376.16 1.76.24.848.863 1.264 1.855 1.264s1.616-.416 1.872-1.264c.096-.384.16-.96.16-1.76v-.304c0-.784-.064-1.376-.16-1.76q-.36-1.248-1.872-1.248c-1.008 0-1.632.416-1.856 1.248-.112.384-.16.976-.16 1.76m5.103-.16v.64c0 1.44-.288 2.448-.832 2.992-.512.512-1.264.752-2.256.752s-1.728-.24-2.24-.752c-.56-.544-.832-1.552-.832-2.992v-.64c0-1.44.272-2.448.832-3.008.496-.48 1.248-.736 2.24-.736s1.744.256 2.256.736c.544.56.832 1.568.832 3.008m5.69-3.216h.72c.288 0 .48.16.544.448.464 2.304.944 4.368 1.456 6.192h.08a87 87 0 0 0 1.488-6.832c0-.096.032-.144.064-.16a.5.5 0 0 1 .224-.032h.496q.168 0 .24.048c.032.032.048.08.048.176q-.528 2.688-1.632 6.96c-.128.448-.352.656-.672.656h-.544c-.208 0-.368-.048-.464-.144-.112-.096-.192-.256-.256-.512a101 101 0 0 1-1.376-5.84h-.112c-.416 2-.88 3.952-1.376 5.84-.064.256-.16.416-.256.512-.112.096-.272.144-.464.144h-.544c-.336 0-.56-.208-.672-.656q-1.128-4.272-1.632-6.96c-.016-.096 0-.144.048-.176q.048-.048.24-.048h.496q.24 0 .288.192c.384 2.272.88 4.56 1.488 6.832h.08c.496-1.824.976-3.888 1.456-6.192.064-.288.24-.448.544-.448m8.048-.208v7.536c0 .096-.048.128-.144.128h-.768c-.096 0-.128-.032-.128-.128v-7.536c0-.112.064-.176.192-.176h.656c.128 0 .192.064.192.176m.224-2.288v.096c0 .512-.24.768-.704.768h-.064c-.496 0-.736-.256-.736-.768v-.096c0-.496.24-.752.736-.752h.064c.464 0 .704.256.704.752m6.552 9.888-.016-.64h-.032c-.352.576-.928.848-1.696.848h-.8c-.768 0-1.328-.192-1.712-.576s-.576-.88-.576-1.504v-.48q0-1.512 1.248-2.016c.352-.144.992-.224 1.92-.224h.48c.384 0 .752.016 1.072.048v-.912c0-.576-.16-.992-.464-1.216-.32-.224-.8-.352-1.472-.352-.56 0-1.104.08-1.648.24-.256.064-.384.032-.416-.128l-.08-.336c-.064-.192 0-.304.176-.368a7.4 7.4 0 0 1 2.048-.304c1.024 0 1.76.192 2.208.56s.672.96.672 1.792v5.344c0 .128-.048.24-.144.32-.384.352-.672.64-.832.896a1.36 1.36 0 0 0-.256.8c0 .384.224.576.688.576.256 0 .512-.048.768-.176.112-.048.192-.016.224.08l.096.448c.032.112-.016.192-.128.24-.384.16-.768.24-1.184.24q-1.536 0-1.536-1.2 0-.624.336-1.056c.224-.288.576-.608 1.056-.944m-.112-2.32v-1.344a8 8 0 0 0-.96-.048h-.896c-.672 0-1.136.112-1.408.32s-.4.56-.4 1.056v.32q0 .744.336 1.056c.192.192.528.288.976.288h.656c.528 0 .944-.128 1.248-.416.288-.272.448-.688.448-1.232m7.886 1.648v.576c0 .112-.064.16-.16.16h-4.992c-.112 0-.16-.048-.16-.16v-.272c0-.16.096-.384.288-.704l3.52-5.808h-3.536c-.112 0-.16-.048-.16-.16v-.576c0-.096.048-.16.16-.16h4.736c.096 0 .16.064.16.16v.224c0 .192-.144.512-.416.96l-3.44 5.6h3.84c.096 0 .16.064.16.16m6.425-7.104h.672c.112 0 .176.08.176.208v5.376c0 .816-.24 1.424-.704 1.824-.448.384-1.184.576-2.176.576s-1.728-.192-2.176-.576q-.72-.6-.72-1.824v-5.328c0-.16.064-.256.224-.256h.592c.144 0 .224.08.224.224v5.232c0 .592.128 1.008.416 1.248q.432.384 1.44.384c.672 0 1.152-.144 1.472-.448.24-.224.368-.624.368-1.184v-5.248c0-.128.064-.208.192-.208m4.244.176v7.568c0 .784-.144 1.408-.4 1.856-.416.736-1.136 1.088-2.16 1.088h-.576c-.128 0-.176-.064-.176-.192v-.528c0-.128.048-.192.176-.192h.544c.64 0 1.088-.24 1.312-.736.16-.352.24-.8.24-1.376v-7.488c0-.112.064-.176.192-.176h.656c.128 0 .192.064.192.176m.224-2.288v.096c0 .512-.24.768-.704.768h-.064c-.496 0-.736-.256-.736-.768v-.096c0-.496.24-.752.736-.752h.064c.464 0 .704.256.704.752m7.591 4.704v1.312c0 .224-.048.384-.128.48-.096.096-.24.128-.464.128h-4.128c.032.96.192 1.632.512 2.016.304.384.832.56 1.584.56.624 0 1.216-.096 1.76-.32.208-.08.336-.048.384.112l.112.368a.3.3 0 0 1-.016.24q-.048.096-.336.192c-.544.208-1.184.304-1.904.304-1.168 0-1.984-.288-2.448-.88-.48-.576-.704-1.536-.704-2.864v-.64c0-1.28.224-2.224.688-2.832.448-.608 1.232-.912 2.32-.912.912 0 1.6.224 2.064.656.464.464.704 1.152.704 2.08m-2.752-1.84c-.704 0-1.216.208-1.504.608-.304.416-.464 1.152-.464 2.24h3.44c.08 0 .144 0 .176-.032s.048-.096.048-.208v-.608c0-.688-.128-1.184-.368-1.488-.288-.336-.72-.512-1.328-.512m14.2-3.568v8.032c0 .832-.208 1.472-.592 1.936-.48.56-1.28.832-2.416.832-1.152 0-1.968-.256-2.448-.784-.496-.512-.736-1.472-.736-2.88v-.752c0-1.264.24-2.192.752-2.8q.744-.912 2.352-.912 1.392 0 2.016.768h.032v-3.44c0-.112.064-.176.192-.176h.656c.128 0 .192.064.192.176m-1.04 7.888V48.04c0-.672-.176-1.184-.496-1.568-.32-.368-.8-.56-1.44-.56-.72 0-1.248.192-1.568.544-.4.448-.592 1.232-.592 2.352v.544q0 1.776.576 2.4c.288.336.8.496 1.536.496.8 0 1.36-.192 1.648-.608.224-.304.336-.768.336-1.408m3.841-1.312v.304c0 .8.048 1.376.16 1.76.24.848.864 1.264 1.856 1.264s1.616-.416 1.872-1.264c.096-.384.16-.96.16-1.76v-.304c0-.784-.064-1.376-.16-1.76q-.36-1.248-1.872-1.248c-1.008 0-1.632.416-1.856 1.248-.112.384-.16.976-.16 1.76m5.104-.16v.64c0 1.44-.288 2.448-.832 2.992-.512.512-1.264.752-2.256.752s-1.728-.24-2.24-.752c-.56-.544-.832-1.552-.832-2.992v-.64c0-1.44.272-2.448.832-3.008.496-.48 1.248-.736 2.24-.736s1.744.256 2.256.736c.544.56.832 1.568.832 3.008m8.224 3.488c.736 0 1.312-.176 1.696-.528.336-.32.512-.816.512-1.472v-.144c0-.8-.224-1.36-.656-1.664s-1.104-.464-2.016-.464h-.48c-.16 0-.224-.064-.224-.208v-.48c0-.144.08-.224.256-.224h.368c1.696 0 2.544-.624 2.544-1.904v-.144q0-.792-.48-1.2c-.32-.272-.768-.416-1.328-.416-.64 0-1.28.128-1.904.368-.224.08-.352.048-.384-.112l-.128-.416c-.048-.144.032-.256.224-.32a6.6 6.6 0 0 1 2.304-.416q1.368 0 2.112.624c.496.416.752 1.008.752 1.808v.208c0 1.2-.56 1.968-1.648 2.304v.048a2.24 2.24 0 0 1 1.328.816c.352.448.528 1.008.528 1.696v.208c0 1.952-1.12 2.928-3.328 2.928-.848 0-1.664-.096-2.432-.32-.192-.048-.256-.16-.224-.32l.096-.416c.032-.16.144-.224.352-.16.672.224 1.392.32 2.16.32m9.48-.144h2.24q.24 0 .24.24v.448c0 .144-.08.208-.24.208h-5.648q-.24 0-.24-.24v-.416q0-.24.24-.24h2.304v-8.368h-.112l-1.648.992c-.144.096-.256.064-.336-.08l-.256-.416c-.096-.128-.064-.224.08-.304l1.76-1.088c.192-.128.432-.192.688-.192h.544q.384 0 .384.336zm4.857-.592h.16c.448 0 .688.208.688.624v.384c0 .416-.24.624-.688.624h-.16c-.464 0-.688-.208-.688-.624v-.384c0-.416.224-.624.688-.624m9.11-3.904v.432c0 2.064-.352 3.472-1.04 4.24-.512.576-1.28.864-2.288.864-1.024 0-1.776-.288-2.288-.864-.704-.768-1.04-2.176-1.04-4.24v-.432c0-2.048.336-3.472 1.04-4.24.512-.576 1.264-.864 2.288-.864 1.008 0 1.776.288 2.288.864.688.768 1.04 2.192 1.04 4.24m-5.488.112v.208c0 1.728.192 2.896.608 3.52.32.544.848.8 1.552.8s1.216-.256 1.552-.8c.4-.624.608-1.792.608-3.52v-.208c0-1.712-.208-2.88-.608-3.52-.336-.528-.848-.8-1.552-.8s-1.232.272-1.552.8c-.416.64-.608 1.808-.608 3.52m10.056 4.528c.736 0 1.312-.176 1.696-.528.336-.32.512-.816.512-1.472v-.144c0-.8-.224-1.36-.656-1.664s-1.104-.464-2.016-.464h-.48c-.16 0-.224-.064-.224-.208v-.48c0-.144.08-.224.256-.224h.368c1.696 0 2.544-.624 2.544-1.904v-.144q0-.792-.48-1.2c-.32-.272-.768-.416-1.328-.416-.64 0-1.28.128-1.904.368-.224.08-.352.048-.384-.112l-.128-.416c-.048-.144.032-.256.224-.32a6.6 6.6 0 0 1 2.304-.416q1.368 0 2.112.624c.496.416.752 1.008.752 1.808v.208c0 1.2-.56 1.968-1.648 2.304v.048a2.24 2.24 0 0 1 1.328.816c.352.448.528 1.008.528 1.696v.208c0 1.952-1.12 2.928-3.328 2.928-.848 0-1.664-.096-2.432-.32-.192-.048-.256-.16-.224-.32l.096-.416c.032-.16.144-.224.352-.16.672.224 1.392.32 2.16.32m6.025-.736h.16c.448 0 .688.208.688.624v.384c0 .416-.24.624-.688.624h-.16c-.464 0-.688-.208-.688-.624v-.384c0-.416.224-.624.688-.624m3.254-8.576a7.7 7.7 0 0 1 2.512-.432c.944 0 1.664.192 2.144.544q.864.672.864 2.064v.208c0 .752-.176 1.344-.496 1.76-.336.432-.912.816-1.712 1.168l-1.104.48c-.624.272-1.04.608-1.248 1.024s-.304 1.024-.304 1.792v.56h4.464c.128 0 .208.08.208.208v.48c0 .144-.08.208-.208.208h-5.2c-.144 0-.24-.016-.288-.08-.064-.064-.08-.16-.08-.304v-.928c0-.96.144-1.728.448-2.336.288-.592.848-1.072 1.648-1.424l1.104-.48c.624-.272 1.04-.56 1.264-.864q.336-.432.336-1.248v-.112c0-.672-.176-1.168-.528-1.456-.32-.24-.784-.368-1.392-.368-.672 0-1.392.144-2.144.4-.224.08-.352.032-.384-.128l-.128-.416c-.032-.144.032-.256.224-.32m14.168 4.672v.432c0 2.064-.352 3.472-1.04 4.24-.512.576-1.28.864-2.288.864-1.024 0-1.776-.288-2.288-.864-.704-.768-1.04-2.176-1.04-4.24v-.432c0-2.048.336-3.472 1.04-4.24.512-.576 1.264-.864 2.288-.864 1.008 0 1.776.288 2.288.864.688.768 1.04 2.192 1.04 4.24m-5.488.112v.208c0 1.728.192 2.896.608 3.52.32.544.848.8 1.552.8s1.216-.256 1.552-.8c.4-.624.608-1.792.608-3.52v-.208c0-1.712-.208-2.88-.608-3.52-.336-.528-.848-.8-1.552-.8s-1.232.272-1.552.8c-.416.64-.608 1.808-.608 3.52m7.945-4.784a7.7 7.7 0 0 1 2.512-.432c.944 0 1.664.192 2.144.544q.864.672.864 2.064v.208c0 .752-.176 1.344-.496 1.76-.336.432-.912.816-1.712 1.168l-1.104.48c-.624.272-1.04.608-1.248 1.024s-.304 1.024-.304 1.792v.56h4.464c.128 0 .208.08.208.208v.48c0 .144-.08.208-.208.208h-5.2c-.144 0-.24-.016-.288-.08-.064-.064-.08-.16-.08-.304v-.928c0-.96.144-1.728.448-2.336.288-.592.848-1.072 1.648-1.424l1.104-.48c.624-.272 1.04-.56 1.264-.864q.336-.432.336-1.248v-.112c0-.672-.176-1.168-.528-1.456-.32-.24-.784-.368-1.392-.368-.672 0-1.392.144-2.144.4-.224.08-.352.032-.384-.128l-.128-.416c-.032-.144.032-.256.224-.32m13.24-.208c.192.064.272.176.24.304l-.112.4c-.064.176-.176.24-.336.176a5.3 5.3 0 0 0-1.456-.208c-.88 0-1.552.32-2.016.944-.416.56-.688 1.552-.784 2.976.288-.24.64-.432 1.088-.592.448-.144.88-.224 1.312-.224.912 0 1.632.272 2.144.8s.784 1.264.784 2.208v.288c0 1.04-.288 1.856-.848 2.448-.576.608-1.344.896-2.336.896-1.216 0-2.08-.384-2.592-1.168-.512-.768-.752-1.952-.752-3.552v-.384c0-.928.096-1.776.304-2.576q.288-1.2.864-1.824c.656-.752 1.632-1.136 2.912-1.136.64 0 1.168.08 1.584.224m-2.272 4.72c-.832 0-1.568.336-2.224.976v.224c0 1.216.16 2.128.48 2.72s.864.88 1.632.88c.656 0 1.168-.192 1.536-.608.352-.416.544-1.008.544-1.792v-.208q0-1.08-.528-1.632c-.352-.368-.832-.56-1.44-.56m5.481 4.064h.16c.448 0 .688.208.688.624v.384c0 .416-.24.624-.688.624h-.16c-.464 0-.688-.208-.688-.624v-.384c0-.416.224-.624.688-.624m8.86 1.632c-.992 0-1.872-.144-2.656-.464-.144-.048-.192-.144-.16-.272l.128-.528c.032-.16.144-.192.336-.128a5.55 5.55 0 0 0 2.32.496c.736 0 1.296-.16 1.68-.496s.576-.816.576-1.456v-.176c0-.576-.128-.992-.352-1.248s-.672-.48-1.345-.64l-1.071-.256c-.784-.192-1.36-.48-1.728-.896-.368-.4-.544-.96-.544-1.696v-.24c0-.848.272-1.504.816-1.952s1.296-.688 2.256-.688c.864 0 1.616.112 2.288.304.176.064.24.176.208.352l-.112.384q-.072.24-.384.144a7 7 0 0 0-1.968-.288c-1.328 0-1.984.592-1.984 1.76v.16c0 .544.128.928.384 1.168s.688.432 1.296.56l1.008.24c.864.208 1.472.512 1.824.896q.528.6.528 1.776v.256c0 .976-.288 1.712-.864 2.192-.576.496-1.392.736-2.48.736m9.805-.88v.576c0 .112-.064.16-.16.16h-4.992c-.112 0-.16-.048-.16-.16v-.272c0-.16.096-.384.288-.704l3.52-5.808H223.3c-.112 0-.16-.048-.16-.16v-.576c0-.096.048-.16.16-.16h4.736c.096 0 .16.064.16.16v.224c0 .192-.144.512-.416.96l-3.44 5.6h3.84c.096 0 .16.064.16.16m6.313-.208.112.368q.048.168 0 .24c-.032.048-.112.096-.272.16-.528.224-1.136.32-1.824.32-.992 0-1.728-.224-2.208-.688-.624-.56-.928-1.616-.928-3.168v-.528c0-1.408.32-2.416.976-3.024q.768-.72 2.16-.72c.416 0 .847.08 1.264.208.416.144.768.304 1.024.496.08.064.08.16.016.256l-.272.448c-.064.096-.144.112-.272.032-.608-.352-1.184-.544-1.76-.544-.624 0-1.104.176-1.44.496-.432.432-.64 1.264-.64 2.496v.272c0 1.216.16 2.048.512 2.464.32.416.848.608 1.616.608.512 0 1.024-.096 1.552-.304.208-.08.336-.048.384.112m6.593.208v.576c0 .112-.064.16-.16.16h-4.992c-.112 0-.16-.048-.16-.16v-.272c0-.16.096-.384.288-.704l3.52-5.808h-3.536c-.112 0-.16-.048-.16-.16v-.576c0-.096.048-.16.16-.16h4.736c.096 0 .16.064.16.16v.224c0 .192-.144.512-.416.96l-3.44 5.6h3.84c.096 0 .16.064.16.16m6.969-4.512v1.312c0 .224-.048.384-.128.48-.096.096-.24.128-.464.128h-4.128c.032.96.192 1.632.512 2.016.304.384.832.56 1.584.56.624 0 1.216-.096 1.76-.32.208-.08.336-.048.384.112l.112.368a.3.3 0 0 1-.016.24q-.048.096-.336.192c-.544.208-1.184.304-1.904.304-1.168 0-1.984-.288-2.448-.88-.48-.576-.704-1.536-.704-2.864v-.64c0-1.28.224-2.224.688-2.832.448-.608 1.232-.912 2.32-.912.912 0 1.6.224 2.064.656.464.464.704 1.152.704 2.08m-2.752-1.84c-.704 0-1.216.208-1.504.608-.304.416-.464 1.152-.464 2.24h3.44c.08 0 .144 0 .176-.032s.048-.096.048-.208v-.608c0-.688-.128-1.184-.368-1.488-.288-.336-.72-.512-1.328-.512m9.457 4.848a3 3 0 0 1-.416.32c.912.592 1.376 1.344 1.376 2.24v.176c0 .864-.288 1.488-.864 1.888-.576.416-1.376.608-2.368.608-1.024 0-2-.208-2.896-.656-.112-.048-.16-.128-.128-.256l.176-.48q.048-.192.288-.096c.816.4 1.632.592 2.448.592.768 0 1.344-.112 1.696-.352q.528-.36.528-1.296v-.128c0-.832-.4-1.472-1.184-1.888-.256.064-.56.08-.944.08-.912 0-1.616-.192-2.128-.592-.56-.48-.832-1.248-.832-2.336v-.656c0-1.104.272-1.888.832-2.352.448-.368 1.168-.56 2.128-.56.224 0 .4.016.512.016.256-.768.864-1.168 1.792-1.168h.384c.144 0 .224.08.224.224v.624c0 .016-.016.032-.016.048-.016.016-.032.032-.064.032-.032.016-.08.016-.112.016h-.48c-.416 0-.672.144-.8.4.288.112.528.24.704.368.544.464.832 1.248.832 2.352v.656c0 .944-.24 1.664-.688 2.176m-4.16-2.72v.416c0 .512.048.944.176 1.264.224.656.8.976 1.696.976.912 0 1.488-.32 1.728-.976.096-.304.16-.736.16-1.28v-.4c0-.544-.064-.96-.16-1.248-.128-.352-.336-.592-.608-.736s-.64-.224-1.12-.224c-.464 0-.832.08-1.104.224s-.464.384-.592.736c-.128.32-.176.736-.176 1.248m7.579.88v.304c0 .8.048 1.376.16 1.76.24.848.864 1.264 1.856 1.264s1.616-.416 1.872-1.264c.096-.384.16-.96.16-1.76v-.304c0-.784-.064-1.376-.16-1.76q-.36-1.248-1.872-1.248c-1.008 0-1.632.416-1.856 1.248-.112.384-.16.976-.16 1.76m5.104-.16v.64c0 1.44-.288 2.448-.832 2.992-.512.512-1.264.752-2.256.752s-1.728-.24-2.24-.752c-.56-.544-.832-1.552-.832-2.992v-.64c0-1.44.272-2.448.832-3.008.496-.48 1.248-.736 2.24-.736s1.744.256 2.256.736c.544.56.832 1.568.832 3.008m-4.624-5.744 2.72-1.328c.208-.096.352-.048.432.112l.272.56c.064.16-.016.288-.208.384l-2.736 1.04c-.208.08-.336.048-.4-.096l-.16-.352c-.065-.144-.048-.256.08-.32m7.529-.672v4.128l1.584-1.04c.176-.096.272-.048.272.176v.56c0 .192-.08.352-.24.448l-1.616 1.072v3.216q0 .84.144 1.008c.08.128.272.176.576.176h.432c.128 0 .192.064.192.176v.544c0 .128-.064.192-.16.192h-.608c-.576 0-.992-.112-1.232-.368-.256-.256-.384-.752-.384-1.472v-2.784l-1.104.72c-.192.112-.272.048-.272-.176v-.56c0-.192.08-.336.24-.448l1.136-.752v-4.816c0-.112.064-.176.192-.176h.656c.128 0 .192.064.192.176m3.951 13.104a33 33 0 0 0 1.169-2.56c-.48 0-.848-.336-1.072-1.008a34 34 0 0 1-.896-2.752c-.384-1.36-.72-2.608-.976-3.76-.032-.128.016-.208.176-.208h.72c.096 0 .144.048.176.144a51 51 0 0 0 .848 3.552c.176.704.448 1.568.8 2.592.064.192.128.336.208.4.064.08.176.112.304.112h.064c.608-1.664 1.184-3.888 1.744-6.672.016-.08.08-.128.176-.128h.736c.064 0 .096.016.128.048s.032.064.032.096c-.496 2.32-1.008 4.24-1.52 5.776a50 50 0 0 1-1.872 4.768c-.064.144-.176.176-.336.112l-.528-.192c-.144-.048-.176-.16-.081-.32m10.85-10.112v7.536c0 .096-.048.128-.144.128h-.768c-.096 0-.128-.032-.128-.128v-7.536c0-.112.064-.176.192-.176h.656c.128 0 .192.064.192.176m.224-2.288v.096c0 .512-.24.768-.704.768h-.064c-.496 0-.736-.256-.736-.768v-.096c0-.496.24-.752.736-.752h.064c.464 0 .704.256.704.752M288.091 53h-.512c-.176 0-.256-.064-.256-.208v-7.456c0-.112.064-.176.192-.176h.464c.096 0 .16.064.192.176l.064.832h.032c.352-.672.976-1.008 1.856-1.008h.416c.128 0 .208.064.208.192v.544c0 .128-.08.176-.208.176h-.432c-.704 0-1.2.224-1.456.656-.192.32-.288.736-.288 1.264v4.8c0 .144-.096.208-.272.208m9.468-5.248v1.312c0 .224-.048.384-.128.48-.096.096-.24.128-.464.128h-4.128c.032.96.192 1.632.512 2.016.304.384.832.56 1.584.56.624 0 1.216-.096 1.76-.32.208-.08.336-.048.384.112l.112.368a.3.3 0 0 1-.016.24q-.048.096-.336.192c-.544.208-1.184.304-1.904.304-1.168 0-1.984-.288-2.448-.88-.48-.576-.704-1.536-.704-2.864v-.64c0-1.28.224-2.224.688-2.832.448-.608 1.232-.912 2.32-.912.912 0 1.6.224 2.064.656.464.464.704 1.152.704 2.08m-2.752-1.84c-.704 0-1.216.208-1.504.608-.304.416-.464 1.152-.464 2.24h3.44c.08 0 .144 0 .176-.032s.048-.096.048-.208v-.608c0-.688-.128-1.184-.368-1.488-.288-.336-.72-.512-1.328-.512m9.457 4.848a3 3 0 0 1-.416.32c.912.592 1.376 1.344 1.376 2.24v.176c0 .864-.288 1.488-.864 1.888-.576.416-1.376.608-2.368.608-1.024 0-2-.208-2.896-.656-.112-.048-.16-.128-.128-.256l.176-.48q.048-.192.288-.096c.816.4 1.632.592 2.448.592.768 0 1.344-.112 1.696-.352q.528-.36.528-1.296v-.128c0-.832-.4-1.472-1.184-1.888-.256.064-.56.08-.944.08-.912 0-1.616-.192-2.128-.592-.56-.48-.832-1.248-.832-2.336v-.656c0-1.104.272-1.888.832-2.352.448-.368 1.168-.56 2.128-.56.224 0 .4.016.512.016.256-.768.864-1.168 1.792-1.168h.384c.144 0 .224.08.224.224v.624c0 .016-.016.032-.016.048-.016.016-.032.032-.064.032-.032.016-.08.016-.112.016h-.48c-.416 0-.672.144-.8.4.288.112.528.24.704.368.544.464.832 1.248.832 2.352v.656c0 .944-.24 1.664-.688 2.176m-4.16-2.72v.416c0 .512.048.944.176 1.264.224.656.8.976 1.696.976.912 0 1.488-.32 1.728-.976.096-.304.16-.736.16-1.28v-.4c0-.544-.064-.96-.16-1.248-.128-.352-.336-.592-.608-.736s-.64-.224-1.12-.224c-.464 0-.832.08-1.104.224s-.464.384-.592.736c-.128.32-.176.736-.176 1.248m11.754-2.88h.672c.112 0 .176.08.176.208v5.376c0 .816-.24 1.424-.704 1.824-.448.384-1.184.576-2.176.576s-1.728-.192-2.176-.576q-.72-.6-.72-1.824v-5.328c0-.16.064-.256.224-.256h.592c.144 0 .224.08.224.224v5.232c0 .592.128 1.008.416 1.248q.432.384 1.44.384c.672 0 1.152-.144 1.472-.448.24-.224.368-.624.368-1.184v-5.248c0-.128.064-.208.192-.208m4.068-2.816v8.56q0 .84.144 1.008c.08.128.272.176.576.176h.432c.128 0 .192.064.192.176v.544c0 .128-.064.192-.16.192h-.608c-.576 0-.992-.112-1.232-.368-.256-.256-.384-.752-.384-1.472v-8.816c0-.112.064-.176.192-.176h.656c.128 0 .192.064.192.176m7.328 10.496-.032-.544h-.032c-.352.576-.928.848-1.696.848h-.8c-.768 0-1.328-.192-1.712-.576s-.576-.88-.576-1.504v-.48q0-1.512 1.248-2.016c.352-.144.992-.224 1.92-.224h.48c.384 0 .752.016 1.072.048v-.912c0-.576-.16-.992-.464-1.216-.32-.224-.8-.352-1.472-.352-.56 0-1.104.08-1.648.24-.256.064-.384.032-.416-.128l-.08-.336c-.064-.192 0-.304.176-.368a7.4 7.4 0 0 1 2.048-.304c1.024 0 1.76.192 2.208.56s.688.96.688 1.792v5.472c0 .112-.064.16-.176.16h-.528c-.144 0-.208-.048-.208-.16m-.128-2.24v-1.328a8 8 0 0 0-.96-.048h-.896c-.672 0-1.136.112-1.408.32s-.4.56-.4 1.056v.336c0 .48.112.832.336 1.04.192.192.528.288.976.288h.656c.528 0 .944-.128 1.248-.416.288-.288.448-.704.448-1.248m3.166 2.16v-7.424c0-.112.048-.176.176-.176h.464c.112 0 .176.064.192.176l.08.64h.032c.128-.224.352-.416.656-.608.4-.224.896-.352 1.488-.352 1.12 0 1.92.368 2.384 1.104h.032c.56-.736 1.392-1.104 2.48-1.104.96 0 1.664.256 2.112.752.416.496.64 1.296.64 2.384v4.608c0 .16-.096.24-.256.24h-.544q-.24 0-.24-.24v-4.672c0-.736-.144-1.264-.4-1.616-.32-.368-.8-.56-1.472-.56q-1.296 0-2.016.96c.064.416.096.848.096 1.28v4.608q0 .24-.24.24h-.544c-.176 0-.256-.08-.256-.24v-4.672q0-1.176-.48-1.68c-.32-.32-.832-.496-1.504-.496-.736 0-1.264.224-1.552.672q-.288.432-.288 1.248v4.928q0 .24-.24.24h-.56q-.24 0-.24-.24m14.107-7.424v7.536c0 .096-.048.128-.144.128h-.768c-.096 0-.128-.032-.128-.128v-7.536c0-.112.064-.176.192-.176h.656c.128 0 .192.064.192.176m.224-2.288v.096c0 .512-.24.768-.704.768h-.064c-.496 0-.736-.256-.736-.768v-.096c0-.496.24-.752.736-.752h.064c.464 0 .704.256.704.752m8.152 9.68c0 .192-.112.272-.304.272h-.448q-.192 0-.24-.048c-.032-.032-.048-.096-.048-.224v-4.672c0-.944-.256-1.568-.736-1.872-.32-.192-.752-.304-1.296-.304-.752 0-1.28.224-1.568.672q-.288.432-.288 1.248v4.96q0 .24-.288.24h-.496c-.176 0-.256-.08-.256-.24v-7.424c0-.112.048-.176.16-.176h.48c.112 0 .176.064.192.176l.08.64h.032c.128-.224.352-.416.656-.608.4-.224.896-.352 1.504-.352 1.232 0 2.064.368 2.48 1.072q.384.672.384 2.064zm2.798-7.312h.16c.448 0 .688.208.688.624v.384c0 .416-.24.624-.688.624h-.16c-.464 0-.688-.208-.688-.624v-.384c0-.416.224-.624.688-.624m0 6.096h.16c.448 0 .688.208.688.624v.384c0 .416-.24.624-.688.624h-.16c-.464 0-.688-.208-.688-.624v-.384c0-.416.224-.624.688-.624m11.66-6.352h.672c.112 0 .176.08.176.208v5.376c0 .816-.24 1.424-.704 1.824-.448.384-1.184.576-2.176.576s-1.728-.192-2.176-.576q-.72-.6-.72-1.824v-5.328c0-.16.064-.256.224-.256h.592c.144 0 .224.08.224.224v5.232c0 .592.128 1.008.416 1.248q.432.384 1.44.384c.672 0 1.152-.144 1.472-.448.24-.224.368-.624.368-1.184v-5.248c0-.128.064-.208.192-.208m8.948 7.568c0 .192-.112.272-.304.272h-.448q-.192 0-.24-.048c-.032-.032-.048-.096-.048-.224v-4.672c0-.944-.256-1.568-.736-1.872-.32-.192-.752-.304-1.296-.304-.752 0-1.28.224-1.568.672q-.288.432-.288 1.248v4.96q0 .24-.288.24h-.496c-.176 0-.256-.08-.256-.24v-7.424c0-.112.048-.176.16-.176h.48c.112 0 .176.064.192.176l.08.64h.032c.128-.224.352-.416.656-.608.4-.224.896-.352 1.504-.352 1.232 0 2.064.368 2.48 1.072q.384.672.384 2.064zm3.374-7.392v7.536c0 .096-.048.128-.144.128h-.768c-.096 0-.128-.032-.128-.128v-7.536c0-.112.064-.176.192-.176h.656c.128 0 .192.064.192.176m.224-2.288v.096c0 .512-.24.768-.704.768h-.064c-.496 0-.736-.256-.736-.768v-.096c0-.496.24-.752.736-.752h.064c.464 0 .704.256.704.752m6.92 9.008.112.368q.048.168 0 .24c-.032.048-.112.096-.272.16-.528.224-1.136.32-1.824.32-.992 0-1.728-.224-2.208-.688-.624-.56-.928-1.616-.928-3.168v-.528c0-1.408.32-2.416.976-3.024q.768-.72 2.16-.72c.416 0 .848.08 1.264.208.416.144.768.304 1.024.496.08.064.08.16.016.256l-.272.448c-.064.096-.144.112-.272.032-.608-.352-1.184-.544-1.76-.544-.624 0-1.104.176-1.44.496-.432.432-.64 1.264-.64 2.496v.272c0 1.216.16 2.048.512 2.464.32.416.848.608 1.616.608.512 0 1.024-.096 1.552-.304.208-.08.336-.048.384.112m2.626.944h-.512c-.176 0-.256-.064-.256-.208v-7.456c0-.112.064-.176.192-.176h.464c.096 0 .16.064.192.176l.064.832h.032c.352-.672.976-1.008 1.856-1.008h.416c.128 0 .208.064.208.192v.544c0 .128-.08.176-.208.176h-.432c-.704 0-1.2.224-1.456.656-.192.32-.288.736-.288 1.264v4.8c0 .144-.096.208-.272.208m9.468-5.248v1.312c0 .224-.048.384-.128.48-.096.096-.24.128-.464.128h-4.128c.032.96.192 1.632.512 2.016.304.384.832.56 1.584.56.624 0 1.216-.096 1.76-.32.208-.08.336-.048.384.112l.112.368a.3.3 0 0 1-.016.24q-.048.096-.336.192c-.544.208-1.184.304-1.904.304-1.168 0-1.984-.288-2.448-.88-.48-.576-.704-1.536-.704-2.864v-.64c0-1.28.224-2.224.688-2.832.448-.608 1.232-.912 2.32-.912.912 0 1.6.224 2.064.656.464.464.704 1.152.704 2.08m-2.752-1.84c-.704 0-1.216.208-1.504.608-.304.416-.464 1.152-.464 2.24h3.44c.08 0 .144 0 .176-.032s.048-.096.048-.208v-.608c0-.688-.128-1.184-.368-1.488-.288-.336-.72-.512-1.328-.512m10.434-3.568v8.032c0 .832-.208 1.472-.592 1.936-.48.56-1.28.832-2.416.832-1.152 0-1.968-.256-2.448-.784-.496-.512-.736-1.472-.736-2.88v-.752c0-1.264.24-2.192.752-2.8q.744-.912 2.352-.912 1.392 0 2.016.768h.032v-3.44c0-.112.064-.176.192-.176h.656c.128 0 .192.064.192.176m-1.04 7.888V48.04c0-.672-.176-1.184-.496-1.568-.32-.368-.8-.56-1.44-.56-.72 0-1.248.192-1.568.544-.4.448-.592 1.232-.592 2.352v.544q0 1.776.575 2.4c.289.336.801.496 1.537.496.8 0 1.36-.192 1.648-.608.224-.304.336-.768.336-1.408m4.417-4.896v7.536c0 .096-.048.128-.144.128h-.768c-.096 0-.128-.032-.128-.128v-7.536c0-.112.064-.176.192-.176h.656c.128 0 .192.064.192.176m.224-2.288v.096c0 .512-.24.768-.704.768h-.064c-.496 0-.736-.256-.736-.768v-.096c0-.496.24-.752.736-.752h.064c.464 0 .704.256.704.752M411.604 53h-.752c-.832 0-1.44-.208-1.792-.64-.352-.416-.528-1.024-.528-1.84v-4.448h-.976c-.112 0-.16-.048-.16-.176v-.32c0-.128.048-.192.16-.208l.976-.208v-1.808q0-.192.192-.192h.672c.112 0 .176.064.176.192v1.808h1.872c.096 0 .16.064.16.16v.592c0 .112-.064.16-.16.16h-1.872v4.32c0 .64.096 1.088.288 1.312.192.272.592.4 1.168.4h.576c.128 0 .192.064.192.176v.544c0 .128-.064.176-.192.176m2.071-1.488h.16c.448 0 .688.208.688.624v.384c0 .416-.24.624-.688.624h-.16c-.464 0-.688-.208-.688-.624v-.384c0-.416.224-.624.688-.624m5.942 1.632c-1.024 0-1.76-.272-2.192-.848h-.032v3.36c0 .128-.064.176-.16.176h-.72c-.112 0-.16-.048-.16-.176v-10.32c0-.112.048-.176.16-.176h.48c.112 0 .176.064.192.176l.096.64h.032c.448-.64 1.232-.96 2.32-.96 1.04 0 1.792.288 2.24.864s.688 1.472.688 2.72v.832q0 1.848-.672 2.784c-.448.624-1.2.928-2.272.928m-.128-7.232c-1.408 0-2.096.672-2.096 2.016v2.256c0 .688.176 1.2.56 1.552.368.352.896.512 1.568.512.704 0 1.232-.192 1.552-.592q.432-.528.432-2.304v-.608c0-1.12-.176-1.888-.496-2.288-.32-.352-.816-.544-1.52-.544m5.984-3.568v8.56q0 .84.144 1.008c.08.128.272.176.576.176h.432c.128 0 .192.064.192.176v.544c0 .128-.064.192-.16.192h-.608c-.576 0-.992-.112-1.232-.368-.256-.256-.384-.752-.384-1.472v-8.816c0-.112.064-.176.192-.176h.656c.128 0 .192.064.192.176m3.296 9.168h.16c.448 0 .688.208.688.624v.384c0 .416-.24.624-.688.624h-.16c-.464 0-.688-.208-.688-.624v-.384c0-.416.224-.624.688-.624M438.316 53h-.656c-.16 0-.224-.08-.224-.24v-9.216h-2.72q-.24 0-.24-.24v-.448c0-.128.08-.208.24-.208h6.544q.24 0 .24.24v.416q0 .24-.24.24h-2.72v9.216c0 .16-.08.24-.224.24m4.116-4.08v.304c0 .8.048 1.376.16 1.76.24.848.864 1.264 1.856 1.264s1.616-.416 1.872-1.264c.096-.384.16-.96.16-1.76v-.304c0-.784-.064-1.376-.16-1.76q-.36-1.248-1.872-1.248c-1.008 0-1.632.416-1.856 1.248-.112.384-.16.976-.16 1.76m5.104-.16v.64c0 1.44-.288 2.448-.832 2.992-.512.512-1.264.752-2.256.752s-1.728-.24-2.24-.752c-.56-.544-.832-1.552-.832-2.992v-.64c0-1.44.272-2.448.832-3.008.496-.48 1.248-.736 2.24-.736s1.744.256 2.256.736c.544.56.832 1.568.832 3.008m11.552 3.968c0 .192-.112.272-.304.272h-.448q-.192 0-.24-.048c-.032-.032-.048-.096-.048-.224v-4.672c0-.944-.256-1.568-.736-1.872-.32-.192-.752-.304-1.296-.304-.752 0-1.28.224-1.568.672q-.288.432-.288 1.248v4.96q0 .24-.288.24h-.496c-.176 0-.256-.08-.256-.24v-7.424c0-.112.048-.176.16-.176h.48c.112 0 .176.064.192.176l.08.64h.032c.128-.224.352-.416.656-.608.4-.224.896-.352 1.504-.352 1.232 0 2.064.368 2.48 1.072q.384.672.384 2.064zm3.373-7.392v7.536c0 .096-.048.128-.144.128h-.768c-.096 0-.128-.032-.128-.128v-7.536c0-.112.064-.176.192-.176h.656c.128 0 .192.064.192.176m.224-2.288v.096c0 .512-.24.768-.704.768h-.064c-.496 0-.736-.256-.736-.768v-.096c0-.496.24-.752.736-.752h.064c.464 0 .704.256.704.752m7.577 4.704v1.312c0 .224-.048.384-.128.48-.096.096-.24.128-.464.128h-4.128c.032.96.192 1.632.512 2.016.304.384.832.56 1.584.56.624 0 1.216-.096 1.76-.32.208-.08.336-.048.384.112l.112.368a.3.3 0 0 1-.016.24q-.048.096-.336.192c-.544.208-1.184.304-1.904.304-1.168 0-1.984-.288-2.448-.88-.48-.576-.704-1.536-.704-2.864v-.64c0-1.28.224-2.224.688-2.832.448-.608 1.232-.912 2.32-.912.912 0 1.6.224 2.064.656.464.464.704 1.152.704 2.08m-2.752-1.84c-.704 0-1.216.208-1.504.608-.304.416-.464 1.152-.464 2.24h3.44c.08 0 .144 0 .176-.032s.048-.096.048-.208v-.608c0-.688-.128-1.184-.368-1.488-.288-.336-.72-.512-1.328-.512m9.655-.576v7.568c0 .784-.144 1.408-.4 1.856-.416.736-1.136 1.088-2.16 1.088h-.576c-.128 0-.176-.064-.176-.192v-.528c0-.128.048-.192.176-.192h.544c.64 0 1.088-.24 1.312-.736.16-.352.24-.8.24-1.376v-7.488c0-.112.064-.176.192-.176h.656c.128 0 .192.064.192.176m.224-2.288v.096c0 .512-.24.768-.704.768h-.064c-.496 0-.736-.256-.736-.768v-.096c0-.496.24-.752.736-.752h.064c.464 0 .704.256.704.752m7.591 4.704v1.312c0 .224-.048.384-.128.48-.096.096-.24.128-.464.128h-4.128c.032.96.192 1.632.512 2.016.304.384.832.56 1.584.56.624 0 1.216-.096 1.76-.32.208-.08.336-.048.384.112l.112.368a.3.3 0 0 1-.016.24q-.048.096-.336.192c-.544.208-1.184.304-1.904.304-1.168 0-1.984-.288-2.448-.88-.48-.576-.704-1.536-.704-2.864v-.64c0-1.28.224-2.224.688-2.832.448-.608 1.232-.912 2.32-.912.912 0 1.6.224 2.064.656.464.464.704 1.152.704 2.08m-2.752-1.84c-.704 0-1.216.208-1.504.608-.304.416-.464 1.152-.464 2.24h3.44c.08 0 .144 0 .176-.032s.048-.096.048-.208v-.608c0-.688-.128-1.184-.368-1.488-.288-.336-.72-.512-1.328-.512m6.578 7.232c-.848 0-1.568-.128-2.176-.384-.16-.064-.224-.144-.192-.272l.128-.464c.032-.16.144-.224.304-.16a5.3 5.3 0 0 0 1.936.384c.64 0 1.088-.096 1.36-.32.256-.208.4-.544.4-1.024v-.096c0-.528-.144-.88-.432-1.072-.176-.096-.544-.208-1.12-.336l-.448-.08c-.544-.096-.96-.224-1.248-.4-.544-.304-.816-.864-.816-1.664v-.16c0-1.376.848-2.08 2.56-2.08.656 0 1.248.08 1.792.224q.288.096.24.288l-.096.416c-.064.192-.176.272-.368.208a6 6 0 0 0-1.584-.24c-.608 0-1.04.112-1.264.32-.224.192-.32.48-.32.832v.112c0 .352.08.624.256.784q.288.312 1.248.48l.416.08c.896.192 1.472.448 1.744.768.256.352.4.832.4 1.408v.16c0 .64-.16 1.136-.448 1.488-.432.544-1.184.8-2.272.8M496.62 53h-.752c-.832 0-1.44-.208-1.792-.64-.352-.416-.528-1.024-.528-1.84v-4.448h-.976c-.112 0-.16-.048-.16-.176v-.32c0-.128.048-.192.16-.208l.976-.208v-1.808q0-.192.192-.192h.672c.112 0 .176.064.176.192v1.808h1.872c.096 0 .16.064.16.16v.592c0 .112-.064.16-.16.16h-1.872v4.32c0 .64.096 1.088.288 1.312.192.272.592.4 1.168.4h.576c.128 0 .192.064.192.176v.544c0 .128-.064.176-.192.176m6.156-4.08v.304c0 .8.048 1.376.16 1.76.24.848.864 1.264 1.856 1.264s1.616-.416 1.872-1.264c.096-.384.16-.96.16-1.76v-.304c0-.784-.064-1.376-.16-1.76q-.36-1.248-1.872-1.248c-1.008 0-1.632.416-1.856 1.248-.112.384-.16.976-.16 1.76m5.104-.16v.64c0 1.44-.288 2.448-.832 2.992-.512.512-1.264.752-2.256.752s-1.728-.24-2.24-.752c-.56-.544-.832-1.552-.832-2.992v-.64c0-1.44.272-2.448.832-3.008.496-.48 1.248-.736 2.24-.736s1.744.256 2.256.736c.544.56.832 1.568.832 3.008m3.034 4.24h-.672q-.192 0-.192-.192v-6.736h-.976c-.112 0-.16-.048-.16-.176v-.32c0-.128.048-.192.16-.208l.976-.208v-.496c0-.704.112-1.232.336-1.616.4-.672 1.12-1.024 2.144-1.024.512 0 .928.048 1.28.144q.192.072.192.24l-.08.448c-.032.144-.128.192-.272.16a5.4 5.4 0 0 0-.96-.096c-.512 0-.88.112-1.12.304-.32.256-.48.736-.48 1.456v.48h1.712c.096 0 .16.064.16.16v.592c0 .112-.064.16-.16.16h-1.712v6.736c0 .128-.064.192-.176.192m8.816-5.248v1.312c0 .224-.048.384-.128.48-.096.096-.24.128-.464.128h-4.128c.032.96.192 1.632.512 2.016.304.384.832.56 1.584.56.624 0 1.216-.096 1.76-.32.208-.08.336-.048.384.112l.112.368a.3.3 0 0 1-.016.24q-.048.096-.336.192c-.544.208-1.184.304-1.904.304-1.168 0-1.984-.288-2.448-.88-.48-.576-.704-1.536-.704-2.864v-.64c0-1.28.224-2.224.688-2.832.448-.608 1.232-.912 2.32-.912.912 0 1.6.224 2.064.656.464.464.704 1.152.704 2.08m-2.752-1.84c-.704 0-1.216.208-1.504.608-.304.416-.464 1.152-.464 2.24h3.44c.08 0 .144 0 .176-.032s.048-.096.048-.208v-.608c0-.688-.128-1.184-.368-1.488-.288-.336-.72-.512-1.328-.512M522.372 53h-.512c-.176 0-.256-.064-.256-.208v-7.456c0-.112.064-.176.192-.176h.464c.096 0 .16.064.192.176l.064.832h.032c.352-.672.976-1.008 1.856-1.008h.416c.128 0 .208.064.208.192v.544c0 .128-.08.176-.208.176h-.432c-.704 0-1.2.224-1.456.656-.192.32-.288.736-.288 1.264v4.8c0 .144-.096.208-.272.208m7.654 0h-.752c-.832 0-1.44-.208-1.792-.64-.352-.416-.528-1.024-.528-1.84v-4.448h-.976c-.112 0-.16-.048-.16-.176v-.32c0-.128.048-.192.16-.208l.976-.208v-1.808q0-.192.192-.192h.672c.112 0 .176.064.176.192v1.808h1.872c.096 0 .16.064.16.16v.592c0 .112-.064.16-.16.16h-1.872v4.32c0 .64.096 1.088.288 1.312.192.272.592.4 1.168.4h.576c.128 0 .192.064.192.176v.544c0 .128-.064.176-.192.176m6.103-.16-.032-.544h-.032c-.352.576-.928.848-1.696.848h-.8c-.768 0-1.328-.192-1.712-.576s-.576-.88-.576-1.504v-.48q0-1.512 1.248-2.016c.352-.144.992-.224 1.92-.224h.48c.384 0 .752.016 1.072.048v-.912c0-.576-.16-.992-.464-1.216-.32-.224-.8-.352-1.472-.352-.56 0-1.104.08-1.648.24-.256.064-.384.032-.416-.128l-.08-.336c-.064-.192 0-.304.176-.368a7.4 7.4 0 0 1 2.048-.304c1.024 0 1.76.192 2.208.56s.688.96.688 1.792v5.472c0 .112-.064.16-.176.16h-.528c-.144 0-.208-.048-.208-.16m-.128-2.24v-1.328a8 8 0 0 0-.96-.048h-.896c-.672 0-1.136.112-1.408.32s-.4.56-.4 1.056v.336c0 .48.112.832.336 1.04.192.192.528.288.976.288h.656c.528 0 .944-.128 1.248-.416.288-.288.448-.704.448-1.248m3.518.912h.16c.448 0 .688.208.688.624v.384c0 .416-.24.624-.688.624h-.16c-.464 0-.688-.208-.688-.624v-.384c0-.416.224-.624.688-.624"/></svg>