<svg xmlns="http://www.w3.org/2000/svg" fill="none" viewBox="0 0 470 31"><path fill="#fff" d="M6.474 10.74c-.312.026-.442.182-.442.442v8.632c0 .364.13.572.416.572.208.026.598.026 1.17.026h.13c1.014 0 1.768-.234 2.288-.754.65-.65.988-1.846.988-3.614v-1.066c0-1.768-.312-2.938-.884-3.562-.468-.468-1.274-.728-2.418-.728h-.13c-.364 0-.754.026-1.118.052M6.786 24H6.24c-1.794 0-2.99-.026-3.588-.104-.676-.052-.988-.39-.988-1.014V8.686q0-.741.234-1.014c.156-.182.468-.312.936-.364a47 47 0 0 1 4.082-.182h.364c2.964 0 5.096.624 6.37 1.82 1.196 1.196 1.82 3.146 1.82 5.798v1.508c0 2.73-.624 4.68-1.846 5.85C12.298 23.376 10.01 24 6.786 24m18.609-1.066h-.052c-.572.884-1.716 1.3-3.406 1.3h-.39c-1.326 0-2.366-.338-3.094-1.014-.754-.676-1.118-1.69-1.118-2.99v-.286c0-1.404.39-2.418 1.196-2.99s2.106-.858 3.926-.858h.182c.676 0 1.3.052 1.82.104v-.546c0-.546-.156-.936-.442-1.144-.312-.182-.832-.286-1.56-.286-.884 0-1.872.156-3.016.442-.312.078-.546.078-.65 0-.13-.078-.208-.234-.234-.494l-.208-1.378c-.052-.234-.052-.416-.052-.52 0-.312.208-.546.624-.676 1.326-.364 2.808-.572 4.446-.572 2.002 0 3.432.442 4.264 1.274.65.676.988 1.768.988 3.25v7.722c0 .26-.078.468-.208.572s-.364.156-.676.156h-1.222c-.312 0-.52-.026-.65-.104s-.234-.234-.312-.494zm-.936-3.328v-.728q-.429-.078-1.248-.078h-.286q-.936 0-1.326.234c-.26.156-.364.468-.364.936v.104c0 .468.104.78.364.936.234.182.598.26 1.092.26h.182c.52 0 .91-.13 1.222-.39.234-.208.364-.65.364-1.274m6.157 9.022h-1.508c-.26 0-.468-.052-.572-.182-.104-.104-.156-.338-.156-.65v-1.82c0-.26.052-.468.156-.572s.312-.182.572-.182h.65c.468 0 .832-.104 1.066-.364.208-.208.312-.754.312-1.612V12.014c0-.26.052-.442.182-.572.13-.104.364-.182.702-.182h2.392c.312 0 .546.078.676.182.13.13.208.312.208.572v11.518c0 1.872-.338 3.172-1.014 3.926q-1.053 1.17-3.666 1.17m2.756-18.356h-.312c-1.404 0-2.106-.702-2.106-2.158v-.13c0-1.43.702-2.158 2.106-2.158h.312c1.404 0 2.106.728 2.106 2.158v.13c0 1.456-.702 2.158-2.106 2.158m14.025 6.344v2.028c0 1.014.156 1.664.468 1.976.234.26.598.364 1.092.364h.104c.468 0 .832-.104 1.092-.364.312-.312.468-.962.468-1.976v-2.028c0-.988-.156-1.664-.468-1.976-.26-.234-.624-.364-1.092-.364h-.104c-.494 0-.858.13-1.092.364-.312.312-.468.988-.468 1.976m7.41.156v1.69c0 1.3-.13 2.288-.39 3.016a3.7 3.7 0 0 1-1.248 1.742c-.858.676-2.184 1.014-4.004 1.014h-.312c-1.82 0-3.172-.338-4.004-1.014a3.7 3.7 0 0 1-1.248-1.742c-.26-.728-.39-1.716-.39-3.016v-1.664c0-1.274.13-2.262.39-2.99s.676-1.3 1.248-1.768c.832-.676 2.184-1.014 4.004-1.014h.312c1.82 0 3.146.338 4.004 1.014.572.468.988 1.04 1.248 1.742.26.728.39 1.716.39 2.99m1.888-1.326v-.338c0-1.274.338-2.236 1.014-2.912.78-.78 2.106-1.17 3.952-1.17h.26c1.456 0 2.73.156 3.796.468q.312.117.39.234c.052.104.078.234.052.442l-.286 2.132c-.052.338-.286.442-.702.338-1.04-.234-1.976-.364-2.756-.364h-.026c-.572 0-.988.052-1.196.156-.234.104-.338.286-.338.546v.078c0 .26.078.442.286.546s.598.234 1.196.338l1.222.26c1.118.26 1.924.65 2.392 1.17s.702 1.326.702 2.392v.39c0 2.73-1.716 4.082-5.096 4.082h-.26c-1.716 0-3.146-.234-4.342-.702-.234-.078-.39-.182-.442-.312-.052-.104-.052-.312 0-.598l.364-1.716c.078-.494.364-.65.884-.494 1.196.416 2.236.598 3.12.598h.078c.572 0 .962-.052 1.196-.182.208-.104.338-.312.338-.598v-.078a.56.56 0 0 0-.286-.494q-.312-.156-1.248-.39l-1.144-.26q-1.716-.39-2.418-1.17c-.468-.52-.702-1.3-.702-2.392m16.357-.884h-4.134c-.26 0-.442-.026-.546-.13s-.13-.312-.13-.624v-1.794c0-.312.026-.494.13-.598q.156-.156.546-.156h8.788c.26 0 .442.052.572.156.104.104.182.312.182.598v.494c0 .676-.208 1.3-.572 1.846l-4.472 6.344h4.446c.26 0 .416.052.52.156s.156.286.156.598v1.794q0 .468-.156.624c-.104.104-.26.13-.52.13h-8.944c-.546 0-.806-.234-.806-.754v-.598c0-.676.182-1.274.572-1.846zm13.219 6.318h.208c.702 0 1.456-.104 2.262-.338.26-.052.416-.078.494-.078.26 0 .416.156.468.442l.234 1.326c.052.364.104.598.104.702 0 .312-.234.546-.676.702-1.144.416-2.392.598-3.744.598h-.312c-1.872 0-3.25-.416-4.108-1.3q-1.326-1.326-1.326-4.446V16.98c0-1.222.104-2.184.312-2.86a4.1 4.1 0 0 1 1.014-1.716c.91-.91 2.34-1.378 4.29-1.378h.26c1.56 0 2.912.286 4.004.858.312.182.494.39.494.65 0 .156-.078.416-.208.78l-.494 1.248q-.195.468-.546.468c-.104 0-.26-.026-.468-.13-.832-.338-1.612-.52-2.314-.52h-.104c-.676 0-1.17.182-1.482.494-.39.39-.572 1.196-.572 2.392v.884c0 1.066.156 1.794.52 2.184.338.364.91.546 1.69.546m10.064-6.318h-4.133c-.26 0-.442-.026-.546-.13s-.13-.312-.13-.624v-1.794c0-.312.026-.494.13-.598q.155-.156.545-.156h8.788c.26 0 .442.052.572.156.104.104.182.312.182.598v.494c0 .676-.208 1.3-.572 1.846l-4.472 6.344h4.446c.26 0 .416.052.52.156s.156.286.156.598v1.794q0 .468-.156.624c-.104.104-.26.13-.52.13h-8.943c-.546 0-.806-.234-.806-.754v-.598c0-.676.181-1.274.572-1.846zm13.427 6.318h.286c.884 0 1.82-.104 2.756-.338.26-.052.416-.078.494-.078.26 0 .416.156.468.442l.208 1.3c.052.364.104.598.104.702 0 .312-.234.546-.676.702a3.77 3.77 0 0 0-1.664 1.248c-.442.572-.65 1.144-.65 1.664v.078c0 .494.234.728.702.728h.13c.286 0 .65-.052 1.066-.208.13-.026.234-.052.312-.052.13 0 .234.13.312.338l.13.546c.078.364.13.546.13.598 0 .156-.13.286-.364.39q-1.014.39-2.106.39h-.156c-.91 0-1.586-.182-2.054-.572s-.702-.936-.702-1.664v-.078c0-.468.156-.988.494-1.508s.78-.936 1.352-1.3c-.208.026-.494.026-.858.026h-.494q-3.198 0-4.524-1.326a3.73 3.73 0 0 1-1.04-1.768c-.182-.676-.26-1.586-.26-2.704V16.98c0-2.262.52-3.848 1.56-4.784.884-.78 2.236-1.17 4.082-1.17h.364c1.82 0 3.146.442 3.926 1.3.832.936 1.248 2.47 1.248 4.654v1.352c0 .494-.26.728-.754.728h-6.24v.208c0 .624.156 1.04.52 1.274.338.234.962.338 1.898.338m-2.418-4.524h2.86c.208 0 .312-.104.312-.338v-.416c0-.52-.104-.91-.26-1.196-.208-.312-.624-.468-1.196-.468h-.234c-.52 0-.884.13-1.092.364q-.39.468-.39 1.404zm16.329 3.042v-3.302c0-.65-.104-1.118-.312-1.378-.234-.26-.65-.416-1.222-.416h-.26c-.572 0-.962.156-1.196.442-.26.286-.364 1.092-.364 2.444v1.144c0 1.248.13 2.028.39 2.288.208.26.598.364 1.196.364h.286c.494 0 .858-.104 1.118-.338.234-.234.364-.65.364-1.248m-.052-7.904h.052V7.152c0-.26.052-.442.182-.572.13-.104.364-.182.702-.182h2.418c.312 0 .546.078.676.182.104.13.182.312.182.572v11.83c0 1.82-.338 3.068-1.014 3.796-.494.52-1.092.91-1.794 1.118-.728.234-1.69.338-2.912.338h-.442c-1.924 0-3.302-.39-4.186-1.17-.91-.78-1.352-2.236-1.352-4.394v-2.08c0-2.08.416-3.536 1.3-4.368.832-.78 1.976-1.196 3.458-1.196h.312q1.482 0 2.418.468m13.553-.468h.208c1.508 0 2.626.364 3.302 1.066.624.676.962 1.82.962 3.432v7.722c0 .26-.078.468-.208.572-.13.13-.364.182-.676.182h-2.392c-.338 0-.572-.052-.702-.182-.13-.104-.182-.312-.182-.572v-7.358c0-.572-.104-.988-.286-1.196-.208-.208-.598-.338-1.144-.338h-.156c-.572 0-.936.13-1.144.338s-.286.624-.286 1.196v7.358c0 .26-.078.468-.208.572-.13.13-.364.182-.676.182h-2.392c-.338 0-.572-.052-.702-.182-.13-.104-.182-.312-.182-.572V11.988c0-.26.052-.442.182-.546s.364-.182.702-.182h1.222c.312 0 .52.052.65.13q.195.117.312.468l.156.494h.078c.832-.884 2.002-1.326 3.562-1.326m10.719 5.59v2.028c0 1.014.156 1.664.468 1.976.234.26.598.364 1.092.364h.104c.468 0 .832-.104 1.092-.364.312-.312.468-.962.468-1.976v-2.028c0-.988-.156-1.664-.468-1.976-.26-.234-.624-.364-1.092-.364h-.104c-.494 0-.858.13-1.092.364-.312.312-.468.988-.468 1.976m7.41.156v1.69c0 1.3-.13 2.288-.39 3.016a3.7 3.7 0 0 1-1.248 1.742c-.858.676-2.184 1.014-4.004 1.014h-.312c-1.82 0-3.172-.338-4.004-1.014a3.7 3.7 0 0 1-1.248-1.742c-.26-.728-.39-1.716-.39-3.016v-1.664c0-1.274.13-2.262.39-2.99s.676-1.3 1.248-1.768c.832-.676 2.184-1.014 4.004-1.014h.312c1.82 0 3.146.338 4.004 1.014.572.468.988 1.04 1.248 1.742.26.728.39 1.716.39 2.99m1.888-1.326v-.338c0-1.274.338-2.236 1.014-2.912.78-.78 2.106-1.17 3.952-1.17h.26c1.456 0 2.73.156 3.796.468q.312.117.39.234c.052.104.078.234.052.442l-.286 2.132c-.052.338-.286.442-.702.338-1.04-.234-1.976-.364-2.756-.364h-.026c-.572 0-.988.052-1.196.156-.234.104-.338.286-.338.546v.078c0 .26.078.442.286.546s.598.234 1.196.338l1.222.26c1.118.26 1.924.65 2.392 1.17s.702 1.326.702 2.392v.39c0 2.73-1.716 4.082-5.096 4.082h-.26c-1.716 0-3.146-.234-4.342-.702-.234-.078-.39-.182-.442-.312-.052-.104-.052-.312 0-.598l.364-1.716c.078-.494.364-.65.884-.494 1.196.416 2.236.598 3.12.598h.078c.572 0 .962-.052 1.196-.182.208-.104.338-.312.338-.598v-.078a.56.56 0 0 0-.286-.494q-.312-.156-1.248-.39l-1.144-.26q-1.716-.39-2.418-1.17c-.468-.52-.702-1.3-.702-2.392m2.418-7.618 4.082-3.484c.156-.156.338-.234.494-.234.182 0 .364.13.52.338l1.248 1.612c.104.156.156.286.156.442 0 .208-.156.416-.416.624l-4.108 2.808c-.208.13-.364.182-.52.182-.208 0-.416-.104-.624-.364l-.78-.91c-.208-.234-.286-.442-.286-.598a.5.5 0 0 1 .234-.416M175.29 20.88h.208c.702 0 1.456-.104 2.262-.338.26-.052.416-.078.494-.078.26 0 .416.156.468.442l.234 1.326c.052.364.104.598.104.702 0 .312-.234.546-.676.702-1.144.416-2.392.598-3.744.598h-.312c-1.872 0-3.25-.416-4.108-1.3q-1.326-1.326-1.326-4.446V16.98c0-1.222.104-2.184.312-2.86a4.1 4.1 0 0 1 1.014-1.716c.91-.91 2.34-1.378 4.29-1.378h.26c1.56 0 2.912.286 4.004.858.312.182.494.39.494.65 0 .156-.078.416-.208.78l-.494 1.248q-.195.468-.546.468c-.104 0-.26-.026-.468-.13-.832-.338-1.612-.52-2.314-.52h-.104c-.676 0-1.17.182-1.482.494-.39.39-.572 1.196-.572 2.392v.884c0 1.066.156 1.794.52 2.184.338.364.91.546 1.69.546m10.039-8.866v11.232c0 .26-.078.468-.208.572-.13.13-.364.182-.676.182h-2.392c-.338 0-.572-.052-.702-.182-.13-.104-.182-.312-.182-.572V12.014c0-.26.052-.442.182-.572.13-.104.364-.182.702-.182h2.392c.312 0 .546.078.676.182.13.13.208.312.208.572m-1.924-1.742h-.312c-1.404 0-2.106-.702-2.106-2.158v-.13c0-1.43.702-2.158 2.106-2.158h.312c1.404 0 2.106.728 2.106 2.158v.13c0 1.456-.702 2.158-2.106 2.158m8.388 6.344v2.028c0 1.014.156 1.664.468 1.976.234.26.598.364 1.092.364h.104c.468 0 .832-.104 1.092-.364.312-.312.468-.962.468-1.976v-2.028c0-.988-.156-1.664-.468-1.976-.26-.234-.624-.364-1.092-.364h-.104c-.494 0-.858.13-1.092.364-.312.312-.468.988-.468 1.976m7.41.156v1.69c0 1.3-.13 2.288-.39 3.016a3.7 3.7 0 0 1-1.248 1.742c-.858.676-2.184 1.014-4.004 1.014h-.312c-1.82 0-3.172-.338-4.004-1.014a3.7 3.7 0 0 1-1.248-1.742c-.26-.728-.39-1.716-.39-3.016v-1.664c0-1.274.13-2.262.39-2.99s.676-1.3 1.248-1.768c.832-.676 2.184-1.014 4.004-1.014h.312c1.82 0 3.146.338 4.004 1.014.572.468.988 1.04 1.248 1.742.26.728.39 1.716.39 2.99m13.459-.884v7.358c0 .26-.078.468-.208.572-.13.13-.364.182-.676.182h-2.392c-.338 0-.572-.052-.702-.182-.13-.104-.182-.312-.182-.572v-7.358c0-.572-.104-.988-.286-1.196-.208-.208-.598-.338-1.144-.338h-.052c-.572 0-.936.13-1.144.338s-.286.624-.286 1.196v7.358c0 .26-.078.468-.208.572-.13.13-.364.182-.676.182h-2.392c-.338 0-.572-.052-.702-.182-.13-.104-.182-.312-.182-.572V11.988c0-.26.052-.442.182-.546s.364-.182.702-.182h1.222c.312 0 .52.052.65.13q.195.117.312.468l.156.494h.078c.832-.884 2.002-1.326 3.562-1.326h.104c1.482 0 2.626.416 3.432 1.196.832-.78 2.028-1.196 3.536-1.196h.104c1.508 0 2.626.364 3.302 1.066.624.676.962 1.82.962 3.432v7.722c0 .26-.078.468-.208.572-.13.13-.364.182-.676.182h-2.392c-.338 0-.572-.052-.702-.182-.13-.104-.182-.312-.182-.572v-7.358c0-.572-.104-.988-.286-1.196-.208-.208-.598-.338-1.144-.338h-.052c-.572 0-.936.13-1.144.338s-.286.624-.286 1.196m18.45-3.224h.078c.572-.936 1.534-1.404 2.912-1.404h1.04c.26 0 .468.052.572.156s.182.286.182.572v1.898c0 .286-.052.468-.156.572q-.156.156-.546.156h-.78c-.962 0-1.612.182-1.976.546-.312.312-.442.91-.442 1.794v6.292c0 .26-.078.468-.208.572-.13.13-.364.182-.676.182h-2.392c-.338 0-.572-.052-.702-.182-.13-.104-.182-.312-.182-.572V11.988c0-.26.052-.442.182-.546s.364-.182.702-.182h1.248c.286 0 .494.052.624.13q.195.156.312.468zm9.99 3.952v2.028c0 1.014.156 1.664.468 1.976.234.26.598.364 1.092.364h.104c.468 0 .832-.104 1.092-.364.312-.312.468-.962.468-1.976v-2.028c0-.988-.156-1.664-.468-1.976-.26-.234-.624-.364-1.092-.364h-.104c-.494 0-.858.13-1.092.364-.312.312-.468.988-.468 1.976m7.41.156v1.69c0 1.3-.13 2.288-.39 3.016a3.7 3.7 0 0 1-1.248 1.742c-.858.676-2.184 1.014-4.004 1.014h-.312c-1.82 0-3.172-.338-4.004-1.014a3.7 3.7 0 0 1-1.248-1.742c-.26-.728-.39-1.716-.39-3.016v-1.664c0-1.274.13-2.262.39-2.99s.676-1.3 1.248-1.768c.832-.676 2.184-1.014 4.004-1.014h.312c1.82 0 3.146.338 4.004 1.014.572.468.988 1.04 1.248 1.742.26.728.39 1.716.39 2.99m1.888-1.326v-.338c0-1.274.338-2.236 1.014-2.912.78-.78 2.106-1.17 3.952-1.17h.26c1.456 0 2.73.156 3.796.468q.312.117.39.234c.052.104.078.234.052.442l-.286 2.132c-.052.338-.286.442-.702.338-1.04-.234-1.976-.364-2.756-.364h-.026c-.572 0-.988.052-1.196.156-.234.104-.338.286-.338.546v.078c0 .26.078.442.286.546s.598.234 1.196.338l1.222.26c1.118.26 1.924.65 2.392 1.17s.702 1.326.702 2.392v.39c0 2.73-1.716 4.082-5.096 4.082h-.26c-1.716 0-3.146-.234-4.342-.702-.234-.078-.39-.182-.442-.312-.052-.104-.052-.312 0-.598l.364-1.716c.078-.494.364-.65.884-.494 1.196.416 2.236.598 3.12.598h.078c.572 0 .962-.052 1.196-.182.208-.104.338-.312.338-.598v-.078a.56.56 0 0 0-.286-.494q-.312-.156-1.248-.39l-1.144-.26q-1.716-.39-2.418-1.17c-.468-.52-.702-1.3-.702-2.392m18.983-4.42h.208c1.508 0 2.626.364 3.302 1.066.624.676.962 1.82.962 3.432v7.722c0 .26-.078.468-.208.572-.13.13-.364.182-.676.182h-2.392c-.338 0-.572-.052-.702-.182-.13-.104-.182-.312-.182-.572v-7.358c0-.572-.104-.988-.286-1.196-.208-.208-.598-.338-1.144-.338h-.156c-.572 0-.936.13-1.144.338s-.286.624-.286 1.196v7.358c0 .26-.078.468-.208.572-.13.13-.364.182-.676.182h-2.392c-.338 0-.572-.052-.702-.182-.13-.104-.182-.312-.182-.572V11.988c0-.26.052-.442.182-.546s.364-.182.702-.182h1.222c.312 0 .52.052.65.13q.195.117.312.468l.156.494h.078c.832-.884 2.002-1.326 3.562-1.326m14.463 11.908h-.052c-.572.884-1.716 1.3-3.406 1.3h-.39c-1.326 0-2.366-.338-3.094-1.014-.754-.676-1.118-1.69-1.118-2.99v-.286c0-1.404.39-2.418 1.196-2.99s2.106-.858 3.926-.858h.182c.676 0 1.3.052 1.82.104v-.546c0-.546-.156-.936-.442-1.144-.312-.182-.832-.286-1.56-.286-.884 0-1.872.156-3.016.442-.312.078-.546.078-.65 0-.13-.078-.208-.234-.234-.494l-.208-1.378c-.052-.26-.052-.442-.052-.52 0-.312.208-.546.624-.676 1.326-.364 2.808-.572 4.446-.572 2.002 0 3.432.442 4.264 1.274.65.676.988 1.768.988 3.25v7.722c0 .39-.156.624-.416.728-.65.26-1.196.624-1.612 1.092-.442.468-.65.962-.65 1.456v.078q0 .702.702.702h.078a3.2 3.2 0 0 0 1.118-.208c.13-.026.234-.052.312-.052.13 0 .234.13.312.338l.13.546c.078.364.13.546.13.598 0 .156-.13.286-.364.39q-1.014.39-2.106.39h-.156c-.884 0-1.586-.182-2.054-.572s-.702-.936-.702-1.612v-.13c0-.624.208-1.222.65-1.794.416-.572.988-1.04 1.664-1.404zm-.936-3.328v-.728q-.429-.078-1.248-.078h-.286q-.936 0-1.326.234c-.26.156-.364.468-.364.936v.104c0 .468.104.78.364.936.234.182.598.26 1.092.26h.182c.52 0 .91-.13 1.222-.39.234-.208.364-.65.364-1.274m12.707 1.274h.208c.702 0 1.456-.104 2.262-.338.26-.052.416-.078.494-.078.26 0 .416.156.468.442l.234 1.326c.052.364.104.598.104.702 0 .312-.234.546-.676.702-1.144.416-2.392.598-3.744.598h-.312c-1.872 0-3.25-.416-4.108-1.3q-1.326-1.326-1.326-4.446V16.98c0-1.222.104-2.184.312-2.86a4.1 4.1 0 0 1 1.014-1.716c.91-.91 2.34-1.378 4.29-1.378h.26c1.56 0 2.912.286 4.004.858.312.182.494.39.494.65 0 .156-.078.416-.208.78l-.494 1.248q-.195.468-.546.468c-.104 0-.26-.026-.468-.13-.832-.338-1.612-.52-2.314-.52h-.104c-.676 0-1.17.182-1.482.494-.39.39-.572 1.196-.572 2.392v.884c0 1.066.156 1.794.52 2.184.338.364.91.546 1.69.546m-3.198-13.052 4.082-3.484c.156-.156.338-.234.494-.234.182 0 .364.13.52.338l1.248 1.612c.104.156.156.286.156.442 0 .208-.156.416-.416.624l-4.108 2.808a.9.9 0 0 1-.52.182c-.208 0-.416-.104-.624-.364l-.78-.91c-.208-.234-.286-.442-.286-.598a.5.5 0 0 1 .234-.416m18.821 8.242v3.328c0 .598.104 1.014.364 1.248.208.234.598.338 1.17.338h.234c.598 0 1.014-.156 1.274-.52q.312-.468.312-2.262v-1.118c0-1.3-.13-2.106-.338-2.366-.234-.26-.676-.416-1.3-.416h-.104c-.598 0-1.014.13-1.274.39-.234.234-.338.702-.338 1.378m0-4.342h.052q1.131-.702 2.964-.702h.234c1.56 0 2.704.468 3.406 1.404.572.806.884 2.236.884 4.29v1.872c0 2.08-.442 3.536-1.326 4.342-.936.884-2.418 1.3-4.446 1.3h-.52c-2.132 0-3.588-.416-4.368-1.274-.702-.754-1.04-1.976-1.04-3.692V7.152c0-.26.052-.442.182-.572.104-.104.338-.182.676-.182h2.418c.312 0 .546.078.676.182.13.13.208.312.208.572zm15.967 9.152h.286c.884 0 1.82-.104 2.756-.338.26-.052.416-.078.494-.078.26 0 .416.156.468.442l.208 1.3c.052.364.104.598.104.702 0 .312-.234.546-.676.702-1.196.416-2.522.624-3.926.624h-.494q-3.198 0-4.524-1.326a3.73 3.73 0 0 1-1.04-1.768c-.182-.676-.26-1.586-.26-2.704V16.98c0-2.262.52-3.848 1.56-4.784.884-.78 2.236-1.17 4.082-1.17h.364c1.82 0 3.146.442 3.926 1.3.832.936 1.248 2.47 1.248 4.654v1.352c0 .494-.26.728-.754.728h-6.24v.208c0 .624.156 1.04.52 1.274.338.234.962.338 1.898.338m-2.418-4.524h2.86c.208 0 .312-.104.312-.338v-.416c0-.52-.104-.91-.26-1.196-.208-.312-.624-.468-1.196-.468h-.234c-.52 0-.884.13-1.092.364q-.39.468-.39 1.404zm13.443-1.794h-4.134c-.26 0-.442-.026-.546-.13s-.13-.312-.13-.624v-1.794c0-.312.026-.494.13-.598q.156-.156.546-.156h8.788c.26 0 .442.052.572.156.104.104.182.312.182.598v.494c0 .676-.208 1.3-.572 1.846l-4.472 6.344h4.446c.26 0 .416.052.52.156s.156.286.156.598v1.794q0 .468-.156.624c-.104.104-.26.13-.52.13h-8.944c-.546 0-.806-.234-.806-.754v-.598c0-.676.182-1.274.572-1.846zm16.645 2.054v2.028c0 1.014.156 1.664.468 1.976.234.26.598.364 1.092.364h.104c.468 0 .832-.104 1.092-.364.312-.312.468-.962.468-1.976v-2.028c0-.988-.156-1.664-.468-1.976-.26-.234-.624-.364-1.092-.364h-.104c-.494 0-.858.13-1.092.364-.312.312-.468.988-.468 1.976m7.41.156v1.69c0 1.3-.13 2.288-.39 3.016a3.7 3.7 0 0 1-1.248 1.742c-.858.676-2.184 1.014-4.004 1.014h-.312c-1.82 0-3.172-.338-4.004-1.014a3.7 3.7 0 0 1-1.248-1.742c-.26-.728-.39-1.716-.39-3.016v-1.664c0-1.274.13-2.262.39-2.99s.676-1.3 1.248-1.768c.832-.676 2.184-1.014 4.004-1.014h.312c1.82 0 3.146.338 4.004 1.014.572.468.988 1.04 1.248 1.742.26.728.39 1.716.39 2.99m7.973 6.032h-.702c-3.692 0-5.513-1.664-5.513-5.018v-1.742c0-1.716.443-2.964 1.353-3.796.884-.806 2.262-1.222 4.082-1.222h.364c.338-1.872 1.716-2.834 4.16-2.834h1.274c.26 0 .416.052.52.13.078.104.13.286.13.546v1.43c0 .26-.052.416-.156.494-.104.104-.286.13-.52.13h-1.222c-.572 0-.962.13-1.196.39 1.95.52 2.938 2.106 2.938 4.732v1.742c0 1.872-.52 3.12-1.534 3.796a4.4 4.4 0 0 1 1.586 1.404c.39.572.598 1.196.598 1.846v.182c0 2.574-2.054 3.848-6.11 3.848h-.494a14.1 14.1 0 0 1-5.096-.936c-.468-.156-.65-.494-.52-.988l.468-1.664c.13-.494.442-.676.936-.52 1.534.52 2.886.754 4.082.754h.363q2.263 0 2.263-1.326v-.078c0-.494-.26-.936-.78-1.352-.416.052-.858.052-1.274.052m-.442-3.25H370c.572 0 .962-.104 1.222-.364.286-.286.442-.884.442-1.768v-1.014c0-.884-.156-1.456-.442-1.768-.26-.234-.65-.364-1.222-.364h-.182c-.572 0-.988.13-1.222.364-.312.312-.442.884-.442 1.768v1.014c0 .884.13 1.482.442 1.768.234.26.65.364 1.222.364m11.555-6.89h.078c.572-.936 1.534-1.404 2.912-1.404h1.04c.26 0 .468.052.572.156s.182.286.182.572v1.898c0 .286-.052.468-.156.572q-.156.156-.546.156h-.78c-.962 0-1.612.182-1.976.546-.312.312-.442.91-.442 1.794v6.292c0 .26-.078.468-.208.572-.13.13-.364.182-.676.182h-2.392c-.338 0-.572-.052-.702-.182-.13-.104-.182-.312-.182-.572V11.988c0-.26.052-.442.182-.546s.364-.182.702-.182h1.248c.286 0 .494.052.624.13q.195.156.312.468zm13.43 10.27h-.052c-.572.884-1.716 1.3-3.406 1.3h-.39c-1.326 0-2.366-.338-3.094-1.014-.754-.676-1.118-1.69-1.118-2.99v-.286c0-1.404.39-2.418 1.196-2.99s2.106-.858 3.926-.858h.182c.676 0 1.3.052 1.82.104v-.546c0-.546-.156-.936-.442-1.144-.312-.182-.832-.286-1.56-.286-.884 0-1.872.156-3.016.442-.312.078-.546.078-.65 0-.13-.078-.208-.234-.234-.494l-.208-1.378c-.052-.234-.052-.416-.052-.52 0-.312.208-.546.624-.676 1.326-.364 2.808-.572 4.446-.572 2.002 0 3.432.442 4.264 1.274.65.676.988 1.768.988 3.25v7.722c0 .26-.078.468-.208.572s-.364.156-.676.156h-1.222c-.312 0-.52-.026-.65-.104s-.234-.234-.312-.494zm-.936-3.328v-.728q-.429-.078-1.248-.078h-.286q-.936 0-1.326.234c-.26.156-.364.468-.364.936v.104c0 .468.104.78.364.936.234.182.598.26 1.092.26h.182c.52 0 .91-.13 1.222-.39.234-.208.364-.65.364-1.274m13.489-8.58h.208c1.508 0 2.626.364 3.302 1.066.624.676.962 1.82.962 3.432v7.722c0 .26-.078.468-.208.572-.13.13-.364.182-.676.182h-2.392c-.338 0-.572-.052-.702-.182-.13-.104-.182-.312-.182-.572v-7.358c0-.572-.104-.988-.286-1.196-.208-.208-.598-.338-1.144-.338h-.156c-.572 0-.936.13-1.144.338s-.286.624-.286 1.196v7.358c0 .26-.078.468-.208.572-.13.13-.364.182-.676.182h-2.392c-.338 0-.572-.052-.702-.182-.13-.104-.182-.312-.182-.572V11.988c0-.26.052-.442.182-.546s.364-.182.702-.182h1.222c.312 0 .52.052.65.13q.195.117.312.468l.156.494h.078c.832-.884 2.002-1.326 3.562-1.326m11.161.988v11.232c0 .26-.078.468-.208.572-.13.13-.364.182-.676.182h-2.392c-.338 0-.572-.052-.702-.182-.13-.104-.182-.312-.182-.572V12.014c0-.26.052-.442.182-.572.13-.104.364-.182.702-.182h2.392c.312 0 .546.078.676.182.13.13.208.312.208.572m-1.924-1.742h-.312c-1.404 0-2.106-.702-2.106-2.158v-.13c0-1.43.702-2.158 2.106-2.158h.312c1.404 0 2.106.728 2.106 2.158v.13c0 1.456-.702 2.158-2.106 2.158m10.598 10.608h.208c.702 0 1.456-.104 2.262-.338.26-.052.416-.078.494-.078.26 0 .416.156.468.442l.234 1.326c.052.364.104.598.104.702 0 .312-.234.546-.676.702-1.144.416-2.392.598-3.744.598h-.312c-1.872 0-3.25-.416-4.108-1.3q-1.326-1.326-1.326-4.446V16.98c0-1.222.104-2.184.312-2.86a4.1 4.1 0 0 1 1.014-1.716c.91-.91 2.34-1.378 4.29-1.378h.26c1.56 0 2.912.286 4.004.858.312.182.494.39.494.65 0 .156-.078.416-.208.78l-.494 1.248q-.195.468-.546.468c-.104 0-.26-.026-.468-.13-.832-.338-1.612-.52-2.314-.52h-.104c-.676 0-1.17.182-1.482.494-.39.39-.572 1.196-.572 2.392v.884c0 1.066.156 1.794.52 2.184.338.364.91.546 1.69.546m10.064-6.318h-4.134c-.26 0-.442-.026-.546-.13s-.13-.312-.13-.624v-1.794c0-.312.026-.494.13-.598q.156-.156.546-.156h8.788c.26 0 .442.052.572.156.104.104.182.312.182.598v.494c0 .676-.208 1.3-.572 1.846l-4.472 6.344h4.446c.26 0 .416.052.52.156s.156.286.156.598v1.794q0 .468-.156.624c-.104.104-.26.13-.52.13h-8.944c-.546 0-.806-.234-.806-.754v-.598c0-.676.182-1.274.572-1.846zm13.427 6.318h.286c.884 0 1.82-.104 2.756-.338.26-.052.416-.078.494-.078.26 0 .416.156.468.442l.208 1.3c.052.364.104.598.104.702 0 .312-.234.546-.676.702-1.196.416-2.522.624-3.926.624h-.494q-3.198 0-4.524-1.326a3.73 3.73 0 0 1-1.04-1.768c-.182-.676-.26-1.586-.26-2.704V16.98c0-2.262.52-3.848 1.56-4.784.884-.78 2.236-1.17 4.082-1.17h.364c1.82 0 3.146.442 3.926 1.3.832.936 1.248 2.47 1.248 4.654v1.352c0 .494-.26.728-.754.728h-6.24v.208c0 .624.156 1.04.52 1.274.338.234.962.338 1.898.338m-2.418-4.524h2.86c.208 0 .312-.104.312-.338v-.416c0-.52-.104-.91-.26-1.196-.208-.312-.624-.468-1.196-.468h-.234c-.52 0-.884.13-1.092.364q-.39.468-.39 1.404zm16.069-5.33h.208c1.508 0 2.626.364 3.302 1.066.624.676.962 1.82.962 3.432v7.722c0 .26-.078.468-.208.572-.13.13-.364.182-.676.182h-2.392c-.338 0-.572-.052-.702-.182-.13-.104-.182-.312-.182-.572v-7.358c0-.572-.104-.988-.286-1.196-.208-.208-.598-.338-1.144-.338h-.156c-.572 0-.936.13-1.144.338s-.286.624-.286 1.196v7.358c0 .26-.078.468-.208.572-.13.13-.364.182-.676.182h-2.392c-.338 0-.572-.052-.702-.182-.13-.104-.182-.312-.182-.572V11.988c0-.26.052-.442.182-.546s.364-.182.702-.182h1.222c.312 0 .52.052.65.13q.195.117.312.468l.156.494h.078c.832-.884 2.002-1.326 3.562-1.326m-3.666-3.198 4.082-3.484c.156-.156.338-.234.494-.234.182 0 .364.13.52.338l1.248 1.612c.104.156.156.286.156.442 0 .208-.156.416-.416.624l-4.108 2.808c-.208.13-.364.182-.52.182-.208 0-.416-.104-.624-.364l-.78-.91c-.208-.234-.286-.442-.286-.598a.5.5 0 0 1 .234-.416"/></svg>