<svg xmlns="http://www.w3.org/2000/svg" fill="none" viewBox="0 0 94 33"><path fill="#fff" d="M.986.542h2.227v4.59h2.329V.542h2.227V12H5.542V7.206H3.213V12H.986zm12.625 8.84h-2.057L11.044 12H8.885L11.367.542h2.669L16.263 12h-2.159zm-1.836-1.734h1.632l-.374-2.397a87 87 0 0 1-.374-2.601h-.051c-.119.765-.289 1.955-.408 2.618zm5.608-4.862-.374-1.717c.493-.34 1.445-.663 2.533-.663 2.176 0 3.196 1.326 3.196 2.822 0 1.173-.782 2.312-1.938 2.601v.034c1.343.272 2.278 1.292 2.278 2.873 0 2.193-1.87 3.4-3.927 3.4-.952 0-1.785-.221-2.312-.51l.323-1.819c.493.289 1.139.459 1.768.459 1.19 0 1.819-.68 1.819-1.598 0-1.275-1.054-1.785-2.261-1.785h-.323V5.2h.22c1.02 0 2.04-.493 2.04-1.547 0-.799-.492-1.343-1.444-1.343-.527 0-1.156.221-1.598.476M24.427.542h2.227v4.59h2.33V.542h2.226V12h-2.227V7.206h-2.329V12h-2.227zm12.625 8.84h-2.057L34.485 12h-2.159L34.808.542h2.67L39.703 12h-2.159zm-1.836-1.734h1.632l-.374-2.397A87 87 0 0 1 36.1 2.65h-.05c-.12.765-.29 1.955-.409 2.618zM40.878.542h2.193V4.35c0 .935.357 1.598 1.258 1.598.323 0 .697-.102.918-.238V.542h2.193V12h-2.193V7.427h-.051c-.527.238-1.037.391-1.632.391-1.972 0-2.686-1.326-2.686-3.213zm8.535 0h1.972v2.533c0 2.108-.136 4.08-.221 5.27h.034c.323-.986.9-2.482 1.24-3.366L54.123.542h2.023V12H54.19V9.416c0-2.295.085-3.995.136-5.151h-.034c-.255 1.037-.765 2.414-1.14 3.366L51.47 12h-2.057zm9.158 0h5.967V12H62.31V2.48h-1.7v3.026c0 2.635-.17 4.947-1.615 6.069-.425.34-.97.561-1.53.561l-.476-1.887c.272-.068.56-.204.765-.408.663-.68.816-1.904.816-4.131zm7.941 0h1.972v2.533c0 2.108-.136 4.08-.22 5.27h.033c.323-.986.901-2.482 1.241-3.366L71.221.542h2.023V12H71.29V9.416c0-2.295.085-3.995.136-5.151h-.034c-.255 1.037-.765 2.414-1.139 3.366L68.57 12h-2.057zm-61.65 28.84H2.805L2.295 32H.136l2.482-11.458h2.669L7.514 32H5.355zm-1.836-1.734h1.632l-.374-2.397a87 87 0 0 1-.374-2.601h-.051c-.119.765-.289 1.955-.408 2.618zm5.746-7.106H11v4.59h2.33v-4.59h2.226V32h-2.227v-4.794H11V32H8.772zM18.762 32v-9.401H16.74v-2.057h6.29v2.057h-2.04V32zm5.433-11.458h1.972v2.533c0 2.108-.136 4.08-.221 5.27h.034c.323-.986.901-2.482 1.241-3.366l1.683-4.437h2.023V32h-1.955v-2.584c0-2.295.085-3.995.136-5.151h-.034c-.255 1.037-.765 2.414-1.139 3.366L26.252 32h-2.057zm8.716 0h5.848v1.904H35.12v2.397c.323-.068.578-.085.9-.085.987 0 1.854.306 2.483.85.68.595 1.088 1.496 1.088 2.652 0 1.105-.34 1.989-.952 2.601-.782.833-2.006 1.224-3.655 1.224-.85 0-1.564-.051-2.074-.119zm2.227 6.052v3.672c.153.034.306.034.493.034.527 0 .952-.204 1.224-.544.289-.34.425-.816.425-1.326 0-.527-.153-1.003-.442-1.326a1.54 1.54 0 0 0-1.19-.561q-.28 0-.51.051m5.791-6.052h1.972v2.533c0 2.108-.136 4.08-.22 5.27h.033c.323-.986.901-2.482 1.241-3.366l1.683-4.437h2.023V32h-1.955v-2.584c0-2.295.085-3.995.136-5.151h-.034c-.255 1.037-.765 2.414-1.139 3.366L42.986 32H40.93zm11.93-.136c2.77 0 3.552 3.043 3.552 5.661 0 4.318-1.53 6.069-3.706 6.069-2.6 0-3.62-2.754-3.62-5.899 0-3.128 1.24-5.831 3.773-5.831m-.086 1.938c-.884 0-1.377 1.462-1.377 3.927 0 2.601.493 3.927 1.394 3.927.935 0 1.292-1.7 1.292-4.029 0-2.006-.306-3.825-1.309-3.825M58.838 32v-9.401h-2.023v-2.057h6.29v2.057h-2.04V32zm5.433-11.458h1.972v2.533c0 2.108-.136 4.08-.22 5.27h.033c.323-.986.901-2.482 1.241-3.366l1.683-4.437h2.023V32h-1.955v-2.584c0-2.295.085-3.995.136-5.151h-.034c-.255 1.037-.765 2.414-1.139 3.366L66.328 32h-2.057zm8.716 0h2.176v4.981h.17l1.87-4.981h2.448l-2.635 5.304c1.173.442 1.564 1.513 1.887 2.907.255 1.105.442 2.193.782 3.247h-2.227c-.272-.816-.442-1.751-.629-2.652-.272-1.343-.578-2.21-1.496-2.21h-.17V32h-2.176zm7.72 0h1.972v2.533c0 2.108-.136 4.08-.221 5.27h.034c.323-.986.9-2.482 1.24-3.366l1.684-4.437h2.023V32h-1.955v-2.584c0-2.295.085-3.995.136-5.151h-.034c-.255 1.037-.765 2.414-1.14 3.366L82.765 32h-2.057zm11.113 7.922h-1.887l-.035-.306c-.118-1.003.273-1.904.901-2.89.493-.731.731-1.241.731-1.887 0-.629-.424-1.054-1.121-1.054-.375 0-.766.068-1.089.306l-.373-1.717c.356-.238 1.156-.51 1.989-.51 2.243 0 2.872 1.479 2.872 2.618 0 1.173-.663 2.125-1.258 2.992-.459.697-.748 1.292-.73 2.091zm-.918 3.672c-.731 0-1.276-.578-1.276-1.36 0-.833.596-1.377 1.258-1.394.731 0 1.275.561 1.275 1.394 0 .782-.476 1.36-1.258 1.36"/></svg>