<svg xmlns="http://www.w3.org/2000/svg" fill="none" viewBox="0 0 487 38"><path fill="#fff" d="M5.112 18.936v10.368c0 .24-.072.432-.192.528-.12.12-.336.168-.624.168H2.088c-.312 0-.528-.048-.648-.168-.12-.096-.168-.288-.168-.528V18.936c0-.24.048-.408.168-.528.12-.096.336-.168.648-.168h2.208c.288 0 .504.072.624.168.12.12.192.288.192.528m-1.776-1.608h-.288c-1.296 0-1.944-.648-1.944-1.992v-.12c0-1.32.648-1.992 1.944-1.992h.288c1.296 0 1.944.672 1.944 1.992v.12c0 1.344-.648 1.992-1.944 1.992m13.378 3.96h-3.816c-.24 0-.408-.024-.504-.12s-.12-.288-.12-.576v-1.656c0-.288.024-.456.12-.552q.144-.144.504-.144h8.112c.24 0 .408.048.528.144.096.096.168.288.168.552v.456c0 .624-.192 1.2-.528 1.704l-4.128 5.856h4.104c.24 0 .384.048.48.144s.144.264.144.552v1.656q0 .432-.144.576c-.096.096-.24.12-.48.12h-8.256c-.504 0-.744-.216-.744-.696v-.552c0-.624.168-1.176.528-1.704zM28.7 28.896h-.648c-3.408 0-5.088-1.536-5.088-4.632v-1.608c0-1.584.408-2.736 1.248-3.504.816-.744 2.088-1.128 3.768-1.128h.336c.312-1.728 1.584-2.616 3.84-2.616h1.176c.24 0 .384.048.48.12.072.096.12.264.12.504v1.32c0 .24-.048.384-.144.456-.096.096-.264.12-.48.12H32.18c-.528 0-.888.12-1.104.36 1.8.48 2.712 1.944 2.712 4.368v1.608c0 1.728-.48 2.88-1.416 3.504a4.06 4.06 0 0 1 1.464 1.296c.36.528.552 1.104.552 1.704v.168c0 2.376-1.896 3.552-5.64 3.552h-.456c-1.632 0-3.216-.288-4.704-.864-.432-.144-.6-.456-.48-.912l.432-1.536c.12-.456.408-.624.864-.48 1.416.48 2.664.696 3.768.696h.336q2.088 0 2.088-1.224v-.072c0-.456-.24-.864-.72-1.248-.384.048-.792.048-1.176.048m-.408-3h.168c.528 0 .888-.096 1.128-.336.264-.264.408-.816.408-1.632v-.936c0-.816-.144-1.344-.408-1.632-.24-.216-.6-.336-1.128-.336h-.168c-.528 0-.912.12-1.128.336-.288.288-.408.816-.408 1.632v.936c0 .816.12 1.368.408 1.632.216.24.6.336 1.128.336m14.579 3.12h-.048c-.528.816-1.584 1.2-3.144 1.2h-.36c-1.224 0-2.184-.312-2.856-.936-.696-.624-1.032-1.56-1.032-2.76v-.264c0-1.296.36-2.232 1.104-2.76s1.944-.792 3.624-.792h.168c.624 0 1.2.048 1.68.096v-.504c0-.504-.144-.864-.408-1.056-.288-.168-.768-.264-1.44-.264-.816 0-1.728.144-2.784.408-.288.072-.504.072-.6 0-.12-.072-.192-.216-.216-.456l-.192-1.272c-.048-.216-.048-.384-.048-.48 0-.288.192-.504.576-.624a15.5 15.5 0 0 1 4.104-.528c1.848 0 3.168.408 3.936 1.176.6.624.912 1.632.912 3v7.128c0 .24-.072.432-.192.528s-.336.144-.624.144h-1.128c-.288 0-.48-.024-.6-.096s-.216-.216-.288-.456zm-.864-3.072v-.672q-.396-.072-1.152-.072h-.264q-.864 0-1.224.216c-.24.144-.336.432-.336.864v.096c0 .432.096.72.336.864.216.168.552.24 1.008.24h.168c.48 0 .84-.12 1.128-.36.216-.192.336-.6.336-1.176m9.14-6.408h.071c.528-.864 1.416-1.296 2.688-1.296h.96c.24 0 .432.048.528.144s.168.264.168.528v1.752c0 .264-.048.432-.144.528q-.144.144-.504.144h-.72c-.888 0-1.488.168-1.824.504-.288.288-.408.84-.408 1.656v5.808c0 .24-.072.432-.192.528-.12.12-.336.168-.624.168h-2.208c-.312 0-.528-.048-.648-.168-.12-.096-.168-.288-.168-.528V18.912c0-.24.048-.408.168-.504s.336-.168.648-.168h1.152c.264 0 .456.048.576.12q.18.144.288.432zm12.17-1.512h.193c1.392 0 2.424.336 3.048.984.576.624.888 1.68.888 3.168v7.128c0 .24-.072.432-.192.528-.12.12-.336.168-.624.168h-2.208c-.312 0-.528-.048-.648-.168-.12-.096-.168-.288-.168-.528v-6.792c0-.528-.096-.912-.264-1.104-.192-.192-.552-.312-1.056-.312h-.144c-.528 0-.864.12-1.056.312s-.264.576-.264 1.104v6.792c0 .24-.072.432-.192.528-.12.12-.336.168-.624.168h-2.208c-.312 0-.528-.048-.648-.168-.12-.096-.168-.288-.168-.528V18.912c0-.24.048-.408.168-.504s.336-.168.648-.168h1.128c.288 0 .48.048.6.12q.18.108.288.432l.144.456h.072c.768-.816 1.848-1.224 3.288-1.224m10.303.912v10.368c0 .24-.072.432-.192.528-.12.12-.336.168-.624.168h-2.208c-.312 0-.528-.048-.648-.168-.12-.096-.168-.288-.168-.528V18.936c0-.24.048-.408.168-.528.12-.096.336-.168.648-.168h2.208c.288 0 .504.072.624.168.12.12.192.288.192.528m-1.776-1.608h-.288c-1.296 0-1.944-.648-1.944-1.992v-.12c0-1.32.648-1.992 1.944-1.992h.288c1.296 0 1.944.672 1.944 1.992v.12c0 1.344-.648 1.992-1.944 1.992m3.83 16.944h-1.391c-.24 0-.432-.048-.528-.168-.096-.096-.144-.312-.144-.6v-1.68c0-.24.048-.432.144-.528s.288-.168.528-.168h.6c.432 0 .768-.096.984-.336.192-.192.288-.696.288-1.488V18.936c0-.24.048-.408.168-.528.12-.096.336-.168.648-.168h2.208c.288 0 .504.072.624.168.12.12.192.288.192.528v10.632c0 1.728-.312 2.928-.936 3.624q-.972 1.08-3.384 1.08m2.545-16.944h-.288c-1.296 0-1.944-.648-1.944-1.992v-.12c0-1.32.648-1.992 1.944-1.992h.288c1.296 0 1.944.672 1.944 1.992v.12c0 1.344-.648 1.992-1.944 1.992m14.458 9.552h.768c.24 0 .432.072.528.168.096.12.168.336.168.648v1.488c0 .336-.072.552-.168.648-.096.12-.288.168-.528.168H91.62c-1.2 0-2.04-.216-2.52-.696-.48-.456-.72-1.272-.72-2.424v-2.592l-.792.504c-.312.192-.528.288-.624.288-.192 0-.264-.144-.264-.432v-2.232c0-.24.024-.408.12-.528.072-.096.216-.24.456-.408l1.104-.696v-6.336c0-.24.048-.408.168-.528.12-.096.336-.168.648-.168h2.208c.288 0 .504.072.624.168.12.12.192.288.192.528v3.888l1.08-.696c.288-.192.504-.288.624-.288.168 0 .264.144.264.432v2.232c0 .24-.048.432-.12.528-.096.12-.24.264-.456.408l-1.392.888v4.584c0 .192.024.312.096.36.048.072.168.096.36.096m9.983 2.136h-.048c-.528.816-1.584 1.2-3.144 1.2h-.36c-1.224 0-2.184-.312-2.856-.936-.696-.624-1.032-1.56-1.032-2.76v-.264c0-1.296.36-2.232 1.104-2.76s1.944-.792 3.624-.792h.168c.624 0 1.2.048 1.68.096v-.504c0-.504-.144-.864-.408-1.056-.288-.168-.768-.264-1.44-.264-.816 0-1.728.144-2.784.408-.288.072-.504.072-.6 0-.12-.072-.192-.216-.216-.456l-.192-1.272c-.048-.24-.048-.408-.048-.48 0-.288.192-.504.576-.624a15.5 15.5 0 0 1 4.104-.528c1.848 0 3.168.408 3.936 1.176.6.624.912 1.632.912 3v7.128c0 .36-.144.576-.384.672-.6.24-1.104.576-1.488 1.008-.408.432-.6.888-.6 1.344v.072q0 .648.648.648h.072c.288 0 .648-.048 1.032-.192.12-.024.216-.048.288-.048.12 0 .216.12.288.312l.12.504c.072.336.12.504.12.552 0 .144-.12.264-.336.36a5.4 5.4 0 0 1-1.944.36h-.144c-.816 0-1.464-.168-1.896-.528s-.648-.864-.648-1.488v-.12c0-.576.192-1.128.6-1.656.384-.528.912-.96 1.536-1.296zm-.864-3.072v-.672q-.396-.072-1.152-.072h-.264q-.864 0-1.224.216c-.24.144-.336.432-.336.864v.096c0 .432.096.72.336.864.216.168.552.24 1.008.24h.168c.48 0 .84-.12 1.128-.36.216-.192.336-.6.336-1.176m11.729 1.176h.192c.648 0 1.344-.096 2.088-.312.24-.048.384-.072.456-.072.24 0 .384.144.432.408l.216 1.224c.048.336.096.552.096.648 0 .288-.216.504-.624.648-1.056.384-2.208.552-3.456.552h-.288c-1.728 0-3-.384-3.792-1.2q-1.224-1.224-1.224-4.104V23.52c0-1.128.096-2.016.288-2.64a3.76 3.76 0 0 1 .936-1.584c.84-.84 2.16-1.272 3.96-1.272h.24c1.44 0 2.688.264 3.696.792.288.168.456.36.456.6 0 .144-.072.384-.192.72l-.456 1.152q-.18.432-.504.432a1 1 0 0 1-.432-.12c-.768-.312-1.488-.48-2.136-.48h-.096c-.624 0-1.08.168-1.368.456-.36.36-.528 1.104-.528 2.208v.816c0 .984.144 1.656.48 2.016.312.336.84.504 1.56.504m9.291-5.832H119c-.24 0-.408-.024-.504-.12s-.12-.288-.12-.576v-1.656c0-.288.024-.456.12-.552q.144-.144.504-.144h8.112c.24 0 .408.048.528.144.096.096.168.288.168.552v.456c0 .624-.192 1.2-.528 1.704l-4.128 5.856h4.104c.24 0 .384.048.48.144s.144.264.144.552v1.656q0 .432-.144.576c-.096.096-.24.12-.48.12H119c-.504 0-.744-.216-.744-.696v-.552c0-.624.168-1.176.528-1.704zm13.017-3.264h.192c1.392 0 2.424.336 3.048.984.576.624.888 1.68.888 3.168v7.128c0 .24-.072.432-.192.528-.12.12-.336.168-.624.168h-2.208c-.312 0-.528-.048-.648-.168-.12-.096-.168-.288-.168-.528v-6.792c0-.528-.096-.912-.264-1.104-.192-.192-.552-.312-1.056-.312h-.144c-.528 0-.864.12-1.056.312s-.264.576-.264 1.104v6.792c0 .24-.072.432-.192.528-.12.12-.336.168-.624.168h-2.208c-.312 0-.528-.048-.648-.168-.12-.096-.168-.288-.168-.528V18.912c0-.24.048-.408.168-.504s.336-.168.648-.168h1.128c.288 0 .48.048.6.12q.18.108.288.432l.144.456h.072c.768-.816 1.848-1.224 3.288-1.224m10.302.912v10.368c0 .24-.072.432-.192.528-.12.12-.336.168-.624.168h-2.208c-.312 0-.528-.048-.648-.168-.12-.096-.168-.288-.168-.528V18.936c0-.24.048-.408.168-.528.12-.096.336-.168.648-.168h2.208c.288 0 .504.072.624.168.12.12.192.288.192.528m-1.776-1.608h-.288c-1.296 0-1.944-.648-1.944-1.992v-.12c0-1.32.648-1.992 1.944-1.992h.288c1.296 0 1.944.672 1.944 1.992v.12c0 1.344-.648 1.992-1.944 1.992m9.975 9.792h.264c.816 0 1.68-.096 2.544-.312.24-.048.384-.072.456-.072.24 0 .384.144.432.408l.192 1.2c.048.336.096.552.096.648 0 .288-.216.504-.624.648-1.104.384-2.328.576-3.624.576h-.456q-2.952 0-4.176-1.224a3.44 3.44 0 0 1-.96-1.632c-.168-.624-.24-1.464-.24-2.496V23.52c0-2.088.48-3.552 1.44-4.416.816-.72 2.064-1.08 3.768-1.08h.336c1.68 0 2.904.408 3.624 1.2.768.864 1.152 2.28 1.152 4.296v1.248c0 .456-.24.672-.696.672h-5.76v.192c0 .576.144.96.48 1.176.312.216.888.312 1.752.312m-2.232-4.176h2.64c.192 0 .288-.096.288-.312v-.384c0-.48-.096-.84-.24-1.104-.192-.288-.576-.432-1.104-.432h-.216c-.48 0-.816.12-1.008.336q-.36.432-.36 1.296zm21.308-4.272h.256c1.024 0 1.888-.192 2.624-.576v-.448c0-1.76-.192-2.944-.544-3.552s-.992-.928-1.952-.928h-.288q-2.4 0-2.4 2.592v.288c0 .96.16 1.632.544 2.016.384.416.96.608 1.76.608m-5.792 10.688c-.384-.128-.544-.352-.544-.736q0-.192.096-.576l.512-2.048c.128-.512.512-.704 1.088-.544 1.536.48 2.88.704 4.032.704h.096c1.152 0 1.952-.288 2.464-.928q.768-.912.864-2.88c-1.056.448-2.208.64-3.456.64h-.352c-2.272 0-3.904-.544-4.928-1.696-1.024-1.12-1.504-2.848-1.504-5.152v-.448c0-2.048.608-3.68 1.856-4.896 1.248-1.184 3.072-1.792 5.472-1.792h.448c2.88 0 4.928.768 6.08 2.24s1.76 3.904 1.76 7.296v.768c0 1.824-.16 3.392-.48 4.736s-.736 2.432-1.248 3.2a5.8 5.8 0 0 1-1.952 1.888c-.768.48-1.536.8-2.304.928-.768.16-1.664.224-2.656.224h-.032c-1.856 0-3.648-.288-5.312-.928m37.916-9.344v9.056c0 .32-.096.576-.256.704-.16.16-.448.224-.832.224h-2.944c-.416 0-.704-.064-.864-.224-.16-.128-.224-.384-.224-.704v-9.056c0-.704-.128-1.216-.352-1.472-.256-.256-.736-.416-1.408-.416h-.064c-.704 0-1.152.16-1.408.416s-.352.768-.352 1.472v9.056c0 .32-.096.576-.256.704-.16.16-.448.224-.832.224h-2.944c-.416 0-.704-.064-.864-.224-.16-.128-.224-.384-.224-.704V15.216c0-.32.064-.544.224-.672s.448-.224.864-.224h1.504c.384 0 .64.064.8.16q.24.144.384.576l.192.608h.096c1.024-1.088 2.464-1.632 4.384-1.632h.128c1.824 0 3.232.512 4.224 1.472 1.024-.96 2.496-1.472 4.352-1.472h.128c1.856 0 3.232.448 4.064 1.312.768.832 1.184 2.24 1.184 4.224v9.504c0 .32-.096.576-.256.704-.16.16-.448.224-.832.224h-2.944c-.416 0-.704-.064-.864-.224-.16-.128-.224-.384-.224-.704v-9.056c0-.704-.128-1.216-.352-1.472-.256-.256-.736-.416-1.408-.416h-.064c-.704 0-1.152.16-1.408.416s-.352.768-.352 1.472m16.923-4.768v13.824c0 .32-.096.576-.256.704-.16.16-.448.224-.832.224h-2.944c-.416 0-.704-.064-.864-.224-.16-.128-.224-.384-.224-.704V15.248c0-.32.064-.544.224-.704.16-.128.448-.224.864-.224h2.944c.384 0 .672.096.832.224.16.16.256.384.256.704m-2.368-2.144h-.384c-1.728 0-2.592-.864-2.592-2.656v-.16c0-1.76.864-2.656 2.592-2.656h.384c1.728 0 2.592.896 2.592 2.656v.16c0 1.792-.864 2.656-2.592 2.656m13.3 13.056h.352c1.088 0 2.24-.128 3.392-.416.32-.064.512-.096.608-.096.32 0 .512.192.576.544l.256 1.6c.064.448.128.736.128.864 0 .384-.288.672-.832.864-1.472.512-3.104.768-4.832.768h-.608q-3.936 0-5.568-1.632a4.6 4.6 0 0 1-1.28-2.176c-.224-.832-.32-1.952-.32-3.328V21.36c0-2.784.64-4.736 1.92-5.888 1.088-.96 2.752-1.44 5.024-1.44h.448c2.24 0 3.872.544 4.832 1.6 1.024 1.152 1.536 3.04 1.536 5.728v1.664c0 .608-.32.896-.928.896h-7.68v.256c0 .768.192 1.28.64 1.568.416.288 1.184.416 2.336.416m-2.976-5.568h3.52c.256 0 .384-.128.384-.416v-.512c0-.64-.128-1.12-.32-1.472-.256-.384-.768-.576-1.472-.576h-.288c-.64 0-1.088.16-1.344.448q-.48.576-.48 1.728zm10.912-1.12v-.416c0-1.568.416-2.752 1.248-3.584.96-.96 2.592-1.44 4.864-1.44h.32c1.792 0 3.36.192 4.672.576q.384.144.48.288c.064.128.096.288.064.544l-.352 2.624c-.064.416-.352.544-.864.416-1.28-.288-2.432-.448-3.392-.448h-.032c-.704 0-1.216.064-1.472.192-.288.128-.416.352-.416.672v.096c0 .32.096.544.352.672s.736.288 1.472.416l1.504.32c1.376.32 2.368.8 2.944 1.44s.864 1.632.864 2.944v.48c0 3.36-2.112 5.024-6.272 5.024h-.32c-2.112 0-3.872-.288-5.344-.864-.288-.096-.48-.224-.544-.384-.064-.128-.064-.384 0-.736l.448-2.112c.096-.608.448-.8 1.088-.608 1.472.512 2.752.736 3.84.736h.096c.704 0 1.184-.064 1.472-.224.256-.128.416-.384.416-.736v-.096a.69.69 0 0 0-.352-.608q-.384-.192-1.536-.48l-1.408-.32q-2.112-.48-2.976-1.44c-.576-.64-.864-1.6-.864-2.944m20.1-4.224v13.824c0 .32-.096.576-.256.704-.16.16-.448.224-.832.224h-2.944c-.416 0-.704-.064-.864-.224-.16-.128-.224-.384-.224-.704V15.248c0-.32.064-.544.224-.704.16-.128.448-.224.864-.224h2.944c.384 0 .672.096.832.224.16.16.256.384.256.704m-2.368-2.144h-.384c-1.728 0-2.592-.864-2.592-2.656v-.16c0-1.76.864-2.656 2.592-2.656h.384c1.728 0 2.592.896 2.592 2.656v.16c0 1.792-.864 2.656-2.592 2.656m13.3 13.056h.352c1.088 0 2.24-.128 3.392-.416.32-.064.512-.096.608-.096.32 0 .512.192.576.544l.256 1.6c.064.448.128.736.128.864 0 .384-.288.672-.832.864a4.64 4.64 0 0 0-2.048 1.536c-.544.704-.8 1.408-.8 2.048v.096c0 .608.288.896.864.896h.16c.352 0 .8-.064 1.312-.256.16-.032.288-.064.384-.064.16 0 .288.16.384.416l.16.672c.096.448.16.672.16.736 0 .192-.16.352-.448.48a7.2 7.2 0 0 1-2.592.48h-.192c-1.12 0-1.952-.224-2.528-.704s-.864-1.152-.864-2.048v-.096c0-.576.192-1.216.608-1.856s.96-1.152 1.664-1.6c-.256.032-.608.032-1.056.032h-.608q-3.936 0-5.568-1.632a4.6 4.6 0 0 1-1.28-2.176c-.224-.832-.32-1.952-.32-3.328V21.36c0-2.784.64-4.736 1.92-5.888 1.088-.96 2.752-1.44 5.024-1.44h.448c2.24 0 3.872.544 4.832 1.6 1.024 1.152 1.536 3.04 1.536 5.728v1.664c0 .608-.32.896-.928.896h-7.68v.256c0 .768.192 1.28.64 1.568.416.288 1.184.416 2.336.416m-2.976-5.568h3.52c.256 0 .384-.128.384-.416v-.512c0-.64-.128-1.12-.32-1.472-.256-.384-.768-.576-1.472-.576h-.288c-.64 0-1.088.16-1.344.448q-.48.576-.48 1.728zm18.689 5.568h.256c.864 0 1.792-.128 2.784-.416.32-.064.512-.096.608-.096.32 0 .512.192.576.544l.288 1.632c.064.448.128.736.128.864 0 .384-.288.672-.832.864-1.408.512-2.944.736-4.608.736h-.384c-2.304 0-4-.512-5.056-1.6q-1.632-1.632-1.632-5.472V21.36c0-1.504.128-2.688.384-3.52a5 5 0 0 1 1.248-2.112c1.12-1.12 2.88-1.696 5.28-1.696h.32c1.92 0 3.584.352 4.928 1.056.384.224.608.48.608.8 0 .192-.096.512-.256.96l-.608 1.536q-.24.576-.672.576c-.128 0-.32-.032-.576-.16-1.024-.416-1.984-.64-2.848-.64h-.128c-.832 0-1.44.224-1.824.608-.48.48-.704 1.472-.704 2.944V22.8c0 1.312.192 2.208.64 2.688.416.448 1.12.672 2.08.672m21.302-10.88c-.448 3.008-1.28 6.336-2.496 10.016-1.248 3.68-2.752 7.168-4.512 10.432-.224.448-.512.672-.896.672-.256 0-.544-.064-.928-.256l-1.632-.704c-.576-.256-.832-.512-.832-.8 0-.128.032-.32.16-.544 1.088-2.208 1.728-3.488 1.856-3.84-.896-.32-1.568-1.024-2.08-2.176-.576-1.28-1.248-3.232-1.984-5.92q-1.104-4.032-1.632-6.912c-.064-.32-.032-.544.128-.704.16-.128.448-.224.832-.224h2.912c.352 0 .608.064.768.16s.288.288.352.608c.736 4.032 1.568 7.616 2.496 10.72h.16c.896-2.56 1.728-6.08 2.496-10.624q.048-.48.288-.672c.16-.128.416-.192.736-.192h2.944c.352 0 .608.096.736.224s.16.384.128.736m11.849 14.936h-.288c-1.68 0-3.144-.216-4.392-.672-.528-.168-.768-.48-.672-.96l.312-1.944c.048-.48.336-.648.84-.48 1.392.504 2.688.744 3.84.744h.119c.721 0 1.249-.096 1.561-.312.288-.192.456-.552.456-1.056v-.24c0-.48-.144-.792-.384-.984-.264-.168-.768-.336-1.512-.48l-1.632-.312c-1.344-.24-2.304-.72-2.832-1.392-.552-.672-.816-1.608-.816-2.832v-.672c0-1.344.36-2.352 1.08-3.072.864-.864 2.472-1.296 4.776-1.296h.168c1.608 0 2.976.216 4.08.624.24.096.408.24.48.384.048.168.048.408-.024.696l-.408 1.752c-.096.432-.408.576-.888.408q-1.656-.504-3.168-.504h-.096c-.792 0-1.344.096-1.632.264-.312.192-.456.504-.456.936v.216c0 .384.096.672.312.816.192.168.624.312 1.248.432l1.824.36c1.44.288 2.424.744 2.976 1.32.528.576.816 1.584.816 3v.576c0 1.632-.456 2.808-1.344 3.552-.888.768-2.328 1.128-4.344 1.128m10.775-10.944c.84-.816 2.04-1.248 3.576-1.248h.216c1.488 0 2.544.432 3.192 1.248.576.768.864 2.064.864 3.936v1.8c0 1.008-.096 1.848-.24 2.472-.168.624-.456 1.152-.864 1.56-.816.792-1.92 1.176-3.36 1.176h-.264q-1.368 0-2.232-.504v3.696c0 .36-.072.6-.192.696-.144.096-.408.144-.816.144h-1.824c-.408 0-.672-.048-.816-.168-.144-.096-.192-.336-.192-.672v-14.4c0-.288.048-.48.192-.6.12-.096.336-.168.648-.168h1.008c.288 0 .504.048.624.096.096.072.192.216.264.408l.168.528zm.888 3.408v3.072c0 .552.096.936.336 1.152.216.216.576.312 1.08.312h.216c.552 0 .936-.144 1.176-.48q.288-.432.288-2.088v-1.032c0-1.152-.096-1.872-.288-2.136-.24-.288-.624-.432-1.2-.432h-.168c-.528 0-.888.12-1.128.36-.216.216-.312.648-.312 1.272m12.508.504v1.872c0 .936.144 1.536.432 1.824.216.24.552.336 1.008.336h.096c.432 0 .768-.096 1.008-.336.288-.288.432-.888.432-1.824v-1.872c0-.912-.144-1.536-.432-1.824-.24-.216-.576-.336-1.008-.336h-.096c-.456 0-.792.12-1.008.336-.288.288-.432.912-.432 1.824m6.84.144v1.56c0 1.2-.12 2.112-.36 2.784s-.624 1.2-1.152 1.608c-.792.624-2.016.936-3.697.936h-.287c-1.68 0-2.928-.312-3.696-.936a3.43 3.43 0 0 1-1.152-1.608c-.24-.672-.36-1.584-.36-2.784v-1.536c0-1.176.12-2.088.36-2.76a3.63 3.63 0 0 1 1.152-1.632c.768-.624 2.016-.936 3.696-.936h.287c1.681 0 2.905.312 3.697.936.528.432.912.96 1.152 1.608.24.672.36 1.584.36 2.76m9.567 4.416v1.368c0 .36-.072.6-.168.72s-.312.168-.6.168h-1.92c-1.728 0-2.881-.288-3.408-.888-.48-.504-.696-1.464-.696-2.904V21.24h-1.296c-.24 0-.384-.024-.48-.12s-.12-.24-.12-.48v-1.224c0-.288.024-.48.12-.576.072-.096.24-.168.504-.24l1.272-.312v-2.352c0-.24.048-.408.168-.528.12-.096.336-.168.648-.168h2.208c.288 0 .504.072.624.168.12.12.192.288.192.528v2.304h1.992c.24 0 .384.048.48.144s.144.264.144.552v1.608q0 .432-.144.576c-.096.096-.24.12-.48.12h-1.992v4.536c0 .432.048.696.192.84.144.168.456.24.936.24h1.056c.288 0 .504.072.6.192s.168.36.168.696m5.704-8.808v10.368c0 .24-.072.432-.192.528-.12.12-.336.168-.624.168h-2.208c-.312 0-.528-.048-.648-.168-.12-.096-.168-.288-.168-.528V18.936c0-.24.048-.408.168-.528.12-.096.336-.168.648-.168h2.208c.288 0 .504.072.624.168.12.12.192.288.192.528m-1.776-1.608h-.288c-1.296 0-1.944-.648-1.944-1.992v-.12c0-1.32.648-1.992 1.944-1.992h.288c1.296 0 1.944.672 1.944 1.992v.12c0 1.344-.648 1.992-1.944 1.992m4.983 3.912h-1.296c-.24 0-.408-.024-.48-.096-.096-.072-.12-.24-.12-.504v-1.176c0-.288.024-.504.096-.6s.24-.192.528-.264l1.272-.312v-1.032c0-1.344.312-2.304.96-2.856q1.008-.864 3.168-.864h.24c.96 0 1.776.096 2.496.264.24.072.408.168.48.288.048.12.072.312.048.576l-.144 1.512c-.048.24-.096.384-.168.432-.096.048-.264.072-.528.048-.624-.048-1.056-.096-1.344-.096h-.144c-.528 0-.84.072-.984.216-.168.168-.24.456-.24.84v.624h1.992c.24 0 .384.048.48.144s.144.264.144.552v1.608q0 .432-.144.576c-.096.096-.24.12-.48.12h-1.992v8.064c0 .24-.072.432-.192.528-.12.12-.336.168-.624.168h-2.208c-.312 0-.528-.048-.648-.168-.12-.096-.168-.288-.168-.528zm18.432-2.28c-.336 2.256-.96 4.752-1.872 7.512a51 51 0 0 1-3.384 7.824c-.168.336-.384.504-.672.504-.192 0-.408-.048-.696-.192l-1.224-.528c-.432-.192-.624-.384-.624-.6a.83.83 0 0 1 .12-.408c.816-1.656 1.296-2.616 1.392-2.88-.672-.24-1.176-.768-1.56-1.632-.432-.96-.936-2.424-1.488-4.44q-.828-3.024-1.224-5.184c-.048-.24-.024-.408.096-.528.12-.096.336-.168.624-.168h2.184c.264 0 .456.048.576.12s.216.216.264.456c.552 3.024 1.176 5.712 1.872 8.04h.12c.672-1.92 1.296-4.56 1.872-7.968q.036-.36.216-.504c.12-.096.312-.144.552-.144h2.208c.264 0 .456.072.552.168s.12.288.096.552m12.509-1.464h-.312c-.336 0-.672.024-1.056.048-.144.024-.192.12-.192.288v3.792h1.248c.864 0 1.44-.12 1.776-.408.288-.24.432-.696.432-1.416v-.6c0-.576-.144-1.008-.408-1.272-.288-.288-.792-.432-1.488-.432m-1.56 7.416v4.344c0 .504-.288.744-.84.744h-2.352c-.312 0-.528-.048-.648-.168-.144-.096-.192-.288-.192-.576v-13.8q0-.576.216-.792c.144-.144.408-.24.84-.288.864-.072 2.208-.12 4.056-.12h.288c2.448 0 4.128.48 5.064 1.416.72.768 1.08 1.92 1.08 3.48v.816c0 1.8-.504 3.072-1.512 3.792-1.056.768-2.664 1.152-4.848 1.152zm12.298-5.376h.072c.528-.864 1.416-1.296 2.688-1.296h.96c.24 0 .432.048.528.144s.168.264.168.528v1.752c0 .264-.048.432-.144.528q-.144.144-.504.144h-.72c-.888 0-1.488.168-1.824.504-.288.288-.408.84-.408 1.656v5.808c0 .24-.072.432-.192.528-.12.12-.336.168-.624.168h-2.208c-.312 0-.528-.048-.648-.168-.12-.096-.168-.288-.168-.528V18.912c0-.24.048-.408.168-.504s.336-.168.648-.168h1.152c.264 0 .456.048.576.12q.18.144.288.432zm11.453 7.584h.264c.816 0 1.68-.096 2.544-.312.24-.048.384-.072.456-.072.24 0 .384.144.432.408l.192 1.2c.048.336.096.552.096.648 0 .288-.216.504-.624.648-1.104.384-2.328.576-3.624.576h-.456q-2.952 0-4.176-1.224a3.44 3.44 0 0 1-.96-1.632c-.168-.624-.24-1.464-.24-2.496V23.52c0-2.088.48-3.552 1.44-4.416.816-.72 2.064-1.08 3.768-1.08h.336c1.68 0 2.904.408 3.624 1.2.768.864 1.152 2.28 1.152 4.296v1.248c0 .456-.24.672-.696.672h-5.76v.192c0 .576.144.96.48 1.176.312.216.888.312 1.752.312m-2.232-4.176h2.64c.192 0 .288-.096.288-.312v-.384c0-.48-.096-.84-.24-1.104-.192-.288-.576-.432-1.104-.432h-.216c-.48 0-.816.12-1.008.336q-.36.432-.36 1.296zm18.865-.432v6.792c0 .24-.072.432-.192.528-.12.12-.336.168-.624.168h-2.208c-.312 0-.528-.048-.648-.168-.12-.096-.168-.288-.168-.528v-6.792c0-.528-.096-.912-.264-1.104-.192-.192-.552-.312-1.056-.312h-.048c-.528 0-.864.12-1.056.312s-.264.576-.264 1.104v6.792c0 .24-.072.432-.192.528-.12.12-.336.168-.624.168h-2.208c-.312 0-.528-.048-.648-.168-.12-.096-.168-.288-.168-.528V18.912c0-.24.048-.408.168-.504s.336-.168.648-.168h1.128c.288 0 .48.048.6.12q.18.108.288.432l.144.456h.072c.768-.816 1.848-1.224 3.288-1.224h.096c1.368 0 2.424.384 3.168 1.104.768-.72 1.872-1.104 3.264-1.104h.096c1.392 0 2.424.336 3.048.984.576.624.888 1.68.888 3.168v7.128c0 .24-.072.432-.192.528-.12.12-.336.168-.624.168h-2.208c-.312 0-.528-.048-.648-.168-.12-.096-.168-.288-.168-.528v-6.792c0-.528-.096-.912-.264-1.104-.192-.192-.552-.312-1.056-.312h-.048c-.528 0-.864.12-1.056.312s-.264.576-.264 1.104m12.692-3.576v10.368c0 .24-.072.432-.192.528-.12.12-.336.168-.624.168h-2.208c-.312 0-.528-.048-.648-.168-.12-.096-.168-.288-.168-.528V18.936c0-.24.048-.408.168-.528.12-.096.336-.168.648-.168h2.208c.288 0 .504.072.624.168.12.12.192.288.192.528m-1.776-1.608h-.288c-1.296 0-1.944-.648-1.944-1.992v-.12c0-1.32.648-1.992 1.944-1.992h.288c1.296 0 1.944.672 1.944 1.992v.12c0 1.344-.648 1.992-1.944 1.992m10.575 8.376v-6.768c0-.24.048-.408.168-.528.12-.096.336-.168.648-.168h2.208c.288 0 .504.072.624.168.12.12.192.288.192.528v7.104q0 2.196-1.08 3.168c-.768.672-2.112 1.008-4.08 1.008s-3.336-.336-4.08-1.008q-1.08-.972-1.08-3.168v-7.104c0-.24.048-.408.168-.528.12-.096.336-.168.648-.168h2.208c.288 0 .504.072.624.168.12.12.192.288.192.528v6.768c0 .552.072.912.264 1.104.192.216.528.312 1.056.312.504 0 .864-.096 1.056-.312.168-.192.264-.552.264-1.104m16.478-3.192v6.792c0 .24-.072.432-.192.528-.12.12-.336.168-.624.168h-2.208c-.312 0-.528-.048-.648-.168-.12-.096-.168-.288-.168-.528v-6.792c0-.528-.096-.912-.264-1.104-.192-.192-.552-.312-1.056-.312h-.048c-.528 0-.864.12-1.056.312s-.264.576-.264 1.104v6.792c0 .24-.072.432-.192.528-.12.12-.336.168-.624.168h-2.208c-.312 0-.528-.048-.648-.168-.12-.096-.168-.288-.168-.528V18.912c0-.24.048-.408.168-.504s.336-.168.648-.168h1.128c.288 0 .48.048.6.12q.18.108.288.432l.144.456h.072c.768-.816 1.848-1.224 3.288-1.224h.096c1.368 0 2.424.384 3.168 1.104.768-.72 1.872-1.104 3.264-1.104h.096c1.392 0 2.424.336 3.048.984.576.624.888 1.68.888 3.168v7.128c0 .24-.072.432-.192.528-.12.12-.336.168-.624.168h-2.208c-.312 0-.528-.048-.648-.168-.12-.096-.168-.288-.168-.528v-6.792c0-.528-.096-.912-.264-1.104-.192-.192-.552-.312-1.056-.312h-.048c-.528 0-.864.12-1.056.312s-.264.576-.264 1.104"/></svg>