<svg xmlns="http://www.w3.org/2000/svg" fill="none" viewBox="0 0 522 54"><path fill="#000" d="M2.1 10.28v3.465c0 .18-.09.255-.24.255h-.555c-.165 0-.24-.075-.24-.255v-9.09c0-.195.09-.315.27-.345.615-.09 1.305-.15 2.085-.15q1.935 0 2.745.675c.54.45.825 1.2.825 2.25v.195c0 2.01-1.17 3.015-3.495 3.015-.6 0-1.065 0-1.395-.015m.3-5.235c-.21.03-.3.15-.3.36v4.02c.24.03.66.03 1.275.03.87 0 1.515-.165 1.92-.495.39-.33.6-.9.6-1.71v-.195c0-.72-.195-1.245-.555-1.575C4.965 5.165 4.35 5 3.48 5q-.675 0-1.08.045M9.299 14h-.48c-.165 0-.24-.06-.24-.195v-6.99c0-.105.06-.165.18-.165h.435c.09 0 .15.06.18.165l.06.78h.03c.33-.63.915-.945 1.74-.945h.39c.12 0 .195.06.195.18v.51c0 .12-.075.165-.195.165h-.405c-.66 0-1.125.21-1.365.615-.18.3-.27.69-.27 1.185v4.5c0 .135-.09.195-.255.195m4.407-3.825v.285c0 .75.045 1.29.15 1.65.225.795.81 1.185 1.74 1.185s1.515-.39 1.755-1.185c.09-.36.15-.9.15-1.65v-.285c0-.735-.06-1.29-.15-1.65q-.337-1.17-1.755-1.17c-.945 0-1.53.39-1.74 1.17-.105.36-.15.915-.15 1.65m4.785-.15v.6c0 1.35-.27 2.295-.78 2.805-.48.48-1.185.705-2.115.705s-1.62-.225-2.1-.705c-.525-.51-.78-1.455-.78-2.805v-.6c0-1.35.255-2.295.78-2.82.465-.45 1.17-.69 2.1-.69s1.635.24 2.115.69c.51.525.78 1.47.78 2.82m1.704 3.75v-6.96c0-.105.045-.165.165-.165h.435c.105 0 .165.06.18.165l.075.6h.03c.12-.21.33-.39.615-.57.375-.21.84-.33 1.395-.33 1.05 0 1.8.345 2.235 1.035h.03c.525-.69 1.305-1.035 2.325-1.035.9 0 1.56.24 1.98.705.39.465.6 1.215.6 2.235v4.32c0 .15-.09.225-.24.225h-.51q-.225 0-.225-.225v-4.38c0-.69-.135-1.185-.375-1.515-.3-.345-.75-.525-1.38-.525q-1.215 0-1.89.9c.06.39.09.795.09 1.2v4.32q0 .225-.225.225h-.51c-.165 0-.24-.075-.24-.225v-4.38q0-1.102-.45-1.575c-.3-.3-.78-.465-1.41-.465-.69 0-1.185.21-1.455.63q-.27.405-.27 1.17v4.62q0 .225-.225.225h-.525q-.225 0-.225-.225m12.686-3.6v.285c0 .75.045 1.29.15 1.65.225.795.81 1.185 1.74 1.185s1.515-.39 1.755-1.185c.09-.36.15-.9.15-1.65v-.285c0-.735-.06-1.29-.15-1.65q-.337-1.17-1.755-1.17c-.945 0-1.53.39-1.74 1.17-.105.36-.15.915-.15 1.65m4.785-.15v.6c0 1.35-.27 2.295-.78 2.805-.48.48-1.185.705-2.115.705s-1.62-.225-2.1-.705c-.525-.51-.78-1.455-.78-2.805v-.6c0-1.35.255-2.295.78-2.82.465-.45 1.17-.69 2.1-.69s1.635.24 2.115.69c.51.525.78 1.47.78 2.82m6.144 3.09.105.345q.045.158 0 .225c-.03.045-.105.09-.255.15-.495.21-1.065.3-1.71.3-.93 0-1.62-.21-2.07-.645-.585-.525-.87-1.515-.87-2.97v-.495c0-1.32.3-2.265.915-2.835q.72-.675 2.025-.675c.39 0 .795.075 1.185.195.39.135.72.285.96.465.075.06.075.15.015.24l-.255.42c-.06.09-.135.105-.255.03-.57-.33-1.11-.51-1.65-.51-.585 0-1.035.165-1.35.465-.405.405-.6 1.185-.6 2.34v.255c0 1.14.15 1.92.48 2.31.3.39.795.57 1.515.57.48 0 .96-.09 1.455-.285.195-.075.315-.045.36.105m2.927-6.3v7.095c0 .735-.135 1.32-.375 1.74-.39.69-1.065 1.02-2.025 1.02h-.54c-.12 0-.165-.06-.165-.18v-.495c0-.12.045-.18.165-.18h.51c.6 0 1.02-.225 1.23-.69.15-.33.225-.75.225-1.29v-7.02c0-.105.06-.165.18-.165h.615c.12 0 .18.06.18.165m.21-2.145v.09c0 .48-.225.72-.66.72h-.06c-.465 0-.69-.24-.69-.72v-.09c0-.465.225-.705.69-.705h.06c.435 0 .66.24.66.705m6.172 9.18-.03-.51h-.03c-.33.54-.87.795-1.59.795h-.75c-.72 0-1.245-.18-1.605-.54s-.54-.825-.54-1.41v-.45q0-1.418 1.17-1.89c.33-.135.93-.21 1.8-.21h.45c.36 0 .705.015 1.005.045v-.855c0-.54-.15-.93-.435-1.14-.3-.21-.75-.33-1.38-.33-.525 0-1.035.075-1.545.225-.24.06-.36.03-.39-.12l-.075-.315c-.06-.18 0-.285.165-.345.63-.18 1.26-.285 1.92-.285.96 0 1.65.18 2.07.525s.645.9.645 1.68v5.13c0 .105-.06.15-.165.15h-.495c-.135 0-.195-.045-.195-.15m-.12-2.1v-1.245q-.36-.045-.9-.045h-.84c-.63 0-1.065.105-1.32.3s-.375.525-.375.99v.315c0 .45.105.78.315.975.18.18.495.27.915.27h.615c.495 0 .885-.12 1.17-.39.27-.27.42-.66.42-1.17m6.753-4.53h-.315c-.165 0-.24-.09-.24-.27l-.12-2.955c-.03-.21.06-.315.255-.315h.54c.18 0 .27.105.255.315l-.12 2.955c0 .18-.09.27-.255.27m2.295 0h-.315c-.165 0-.24-.09-.24-.27l-.12-2.955c-.03-.21.06-.315.255-.315h.54c.18 0 .27.105.255.315l-.12 2.955c0 .18-.09.27-.255.27m4.57 6.78h-2.16c-.24 0-.36-.12-.36-.375v-9c0-.225.105-.36.345-.39.48-.045 1.065-.075 1.755-.075 1.71 0 2.91.33 3.63.96.75.69 1.125 1.875 1.125 3.585v.75c0 1.605-.345 2.76-1.005 3.48-.675.72-1.785 1.065-3.33 1.065m-.165-9c-.57 0-.96.015-1.14.03q-.18.022-.18.225v7.71c0 .135.06.195.18.195h1.14q.945 0 1.485-.135c.36-.09.675-.255.975-.51.33-.27.57-.66.72-1.14s.225-1.17.225-2.04v-.48c0-1.425-.27-2.43-.78-3.015-.51-.555-1.395-.84-2.625-.84m10.456 8.85-.03-.51h-.03c-.33.54-.87.795-1.59.795h-.75c-.72 0-1.245-.18-1.605-.54s-.54-.825-.54-1.41v-.45q0-1.418 1.17-1.89c.33-.135.93-.21 1.8-.21h.45c.36 0 .705.015 1.005.045v-.855c0-.54-.15-.93-.435-1.14-.3-.21-.75-.33-1.38-.33-.525 0-1.035.075-1.545.225-.24.06-.36.03-.39-.12l-.075-.315c-.06-.18 0-.285.165-.345.63-.18 1.26-.285 1.92-.285.96 0 1.65.18 2.07.525s.645.9.645 1.68v5.13c0 .105-.06.15-.165.15h-.495c-.135 0-.195-.045-.195-.15m-.12-2.1v-1.245q-.36-.045-.9-.045h-.84c-.63 0-1.065.105-1.32.3s-.375.525-.375.99v.315c0 .45.105.78.315.975.18.18.495.27.915.27h.615c.495 0 .885-.12 1.17-.39.27-.27.42-.66.42-1.17M80.476 14h-.48c-.165 0-.24-.06-.24-.195v-6.99c0-.105.06-.165.18-.165h.435c.09 0 .15.06.18.165l.06.78h.03c.33-.63.915-.945 1.74-.945h.39c.12 0 .195.06.195.18v.51c0 .12-.075.165-.195.165h-.405c-.66 0-1.125.21-1.365.615-.18.3-.27.69-.27 1.185v4.5c0 .135-.09.195-.255.195m3.82-.225v-6.96c0-.105.046-.165.166-.165h.435c.105 0 .165.06.18.165l.075.6h.03c.12-.21.33-.39.615-.57.375-.21.84-.33 1.395-.33 1.05 0 1.8.345 2.235 1.035h.03c.525-.69 1.305-1.035 2.325-1.035.9 0 1.56.24 1.98.705.39.465.6 1.215.6 2.235v4.32c0 .15-.09.225-.24.225h-.51q-.225 0-.225-.225v-4.38c0-.69-.135-1.185-.375-1.515-.3-.345-.75-.525-1.38-.525q-1.215 0-1.89.9c.06.39.09.795.09 1.2v4.32q0 .225-.225.225h-.51c-.165 0-.24-.075-.24-.225v-4.38q0-1.102-.45-1.575c-.3-.3-.78-.465-1.41-.465-.69 0-1.185.21-1.455.63q-.27.405-.27 1.17v4.62q0 .225-.225.225h-.525q-.225 0-.225-.225m12.686-3.6v.285c0 .75.045 1.29.15 1.65.225.795.81 1.185 1.74 1.185s1.515-.39 1.755-1.185c.09-.36.15-.9.15-1.65v-.285c0-.735-.06-1.29-.15-1.65q-.338-1.17-1.755-1.17c-.945 0-1.53.39-1.74 1.17-.105.36-.15.915-.15 1.65m4.785-.15v.6c0 1.35-.27 2.295-.78 2.805-.48.48-1.185.705-2.115.705s-1.62-.225-2.1-.705c-.525-.51-.78-1.455-.78-2.805v-.6c0-1.35.255-2.295.78-2.82.465-.45 1.17-.69 2.1-.69s1.635.24 2.115.69c.51.525.78 1.47.78 2.82m5.335-3.015h.675c.27 0 .45.15.51.42.435 2.16.885 4.095 1.365 5.805h.075a82 82 0 0 0 1.395-6.405c0-.09.03-.135.06-.15s.09-.03.21-.03h.465q.157 0 .225.045c.03.03.045.075.045.165q-.495 2.52-1.53 6.525c-.12.42-.33.615-.63.615h-.51c-.195 0-.345-.045-.435-.135-.105-.09-.18-.24-.24-.48-.48-1.77-.9-3.6-1.29-5.475h-.105a109 109 0 0 1-1.29 5.475c-.06.24-.15.39-.24.48-.105.09-.255.135-.435.135h-.51c-.315 0-.525-.195-.63-.615q-1.058-4.005-1.53-6.525c-.015-.09 0-.135.045-.165q.045-.045.225-.045h.465q.225 0 .27.18c.36 2.13.825 4.275 1.395 6.405h.075c.465-1.71.915-3.645 1.365-5.805.06-.27.225-.42.51-.42m11.429 2.07v1.23c0 .21-.045.36-.12.45-.09.09-.225.12-.435.12h-3.87c.03.9.18 1.53.48 1.89.285.36.78.525 1.485.525.585 0 1.14-.09 1.65-.3.195-.075.315-.045.36.105l.105.345c.03.09.015.165-.015.225q-.045.09-.315.18c-.51.195-1.11.285-1.785.285-1.095 0-1.86-.27-2.295-.825-.45-.54-.66-1.44-.66-2.685v-.6c0-1.2.21-2.085.645-2.655.42-.57 1.155-.855 2.175-.855.855 0 1.5.21 1.935.615.435.435.66 1.08.66 1.95m-2.58-1.725c-.66 0-1.14.195-1.41.57-.285.39-.435 1.08-.435 2.1h3.225c.075 0 .135 0 .165-.03s.045-.09.045-.195v-.57c0-.645-.12-1.11-.345-1.395-.27-.315-.675-.48-1.245-.48m7.867 6.42v-6.96c0-.105.045-.165.165-.165h.435c.105 0 .165.06.18.165l.075.6h.03c.12-.21.33-.39.615-.57.375-.21.84-.33 1.395-.33 1.05 0 1.8.345 2.235 1.035h.03c.525-.69 1.305-1.035 2.325-1.035.9 0 1.56.24 1.98.705.39.465.6 1.215.6 2.235v4.32c0 .15-.09.225-.24.225h-.51q-.225 0-.225-.225v-4.38c0-.69-.135-1.185-.375-1.515-.3-.345-.75-.525-1.38-.525q-1.215 0-1.89.9c.06.39.09.795.09 1.2v4.32q0 .225-.225.225h-.51c-.165 0-.24-.075-.24-.225v-4.38q0-1.102-.45-1.575c-.3-.3-.78-.465-1.41-.465-.69 0-1.185.21-1.455.63q-.27.405-.27 1.17v4.62q0 .225-.225.225h-.525q-.225 0-.225-.225m13.226-6.96v7.065c0 .09-.045.12-.135.12h-.72c-.09 0-.12-.03-.12-.12V6.815c0-.105.06-.165.18-.165h.615c.12 0 .18.06.18.165m.21-2.145v.09c0 .48-.225.72-.66.72h-.06c-.465 0-.69-.24-.69-.72v-.09c0-.465.225-.705.69-.705h.06c.435 0 .66.24.66.705m7.103 4.41v1.23c0 .21-.045.36-.12.45-.09.09-.225.12-.435.12h-3.87c.03.9.18 1.53.48 1.89.285.36.78.525 1.485.525.585 0 1.14-.09 1.65-.3.195-.075.315-.045.36.105l.105.345c.03.09.015.165-.015.225q-.045.09-.315.18c-.51.195-1.11.285-1.785.285-1.095 0-1.86-.27-2.295-.825-.45-.54-.66-1.44-.66-2.685v-.6c0-1.2.21-2.085.645-2.655.42-.57 1.155-.855 2.175-.855.855 0 1.5.21 1.935.615.435.435.66 1.08.66 1.95m-2.58-1.725c-.66 0-1.14.195-1.41.57-.285.39-.435 1.08-.435 2.1h3.225c.075 0 .135 0 .165-.03s.045-.09.045-.195v-.57c0-.645-.12-1.11-.345-1.395-.27-.315-.675-.48-1.245-.48m6.166 6.78c-.795 0-1.47-.12-2.04-.36-.15-.06-.21-.135-.18-.255l.12-.435c.03-.15.135-.21.285-.15a5 5 0 0 0 1.815.36c.6 0 1.02-.09 1.275-.3.24-.195.375-.51.375-.96v-.09c0-.495-.135-.825-.405-1.005-.165-.09-.51-.195-1.05-.315l-.42-.075c-.51-.09-.9-.21-1.17-.375-.51-.285-.765-.81-.765-1.56v-.15c0-1.29.795-1.95 2.4-1.95.615 0 1.17.075 1.68.21q.27.09.225.27l-.09.39c-.06.18-.165.255-.345.195a5.6 5.6 0 0 0-1.485-.225c-.57 0-.975.105-1.185.3-.21.18-.3.45-.3.78v.105c0 .33.075.585.24.735q.27.293 1.17.45l.39.075c.84.18 1.38.42 1.635.72.24.33.375.78.375 1.32v.15c0 .6-.15 1.065-.42 1.395-.405.51-1.11.75-2.13.75m5.361-7.32v7.065c0 .09-.045.12-.135.12h-.72c-.09 0-.12-.03-.12-.12V6.815c0-.105.06-.165.18-.165h.615c.12 0 .18.06.18.165m.21-2.145v.09c0 .48-.225.72-.66.72h-.06c-.465 0-.69-.24-.69-.72v-.09c0-.465.225-.705.69-.705h.06c.435 0 .66.24.66.705m6.142 9.27-.015-.6h-.03c-.33.54-.87.795-1.59.795h-.75c-.72 0-1.245-.18-1.605-.54s-.54-.825-.54-1.41v-.45q0-1.418 1.17-1.89c.33-.135.93-.21 1.8-.21h.45c.36 0 .705.015 1.005.045v-.855c0-.54-.15-.93-.435-1.14-.3-.21-.75-.33-1.38-.33-.525 0-1.035.075-1.545.225-.24.06-.36.03-.39-.12l-.075-.315c-.06-.18 0-.285.165-.345.63-.18 1.26-.285 1.92-.285.96 0 1.65.18 2.07.525s.63.9.63 1.68v5.01c0 .12-.045.225-.135.3-.36.33-.63.6-.78.84-.165.24-.24.48-.24.75 0 .36.21.54.645.54.24 0 .48-.045.72-.165.105-.045.18-.015.21.075l.09.42c.03.105-.015.18-.12.225-.36.15-.72.225-1.11.225q-1.44 0-1.44-1.125 0-.585.315-.99c.21-.27.54-.57.99-.885m-.105-2.175v-1.26q-.36-.045-.9-.045h-.84c-.63 0-1.065.105-1.32.3s-.375.525-.375.99v.3q0 .698.315.99c.18.18.495.27.915.27h.615c.495 0 .885-.12 1.17-.39.27-.255.42-.645.42-1.155m7.394 1.35.105.345q.045.158 0 .225c-.03.045-.105.09-.255.15-.495.21-1.065.3-1.71.3-.93 0-1.62-.21-2.07-.645-.585-.525-.87-1.515-.87-2.97v-.495c0-1.32.3-2.265.915-2.835q.72-.675 2.025-.675c.39 0 .795.075 1.185.195.39.135.72.285.96.465.075.06.075.15.015.24l-.255.42c-.06.09-.135.105-.255.03-.57-.33-1.11-.51-1.65-.51-.585 0-1.035.165-1.35.465-.405.405-.6 1.185-.6 2.34v.255c0 1.14.15 1.92.48 2.31.3.39.795.57 1.515.57.48 0 .96-.09 1.455-.285.195-.075.315-.045.36.105m6.796-4.035v1.23c0 .21-.045.36-.12.45-.09.09-.225.12-.435.12h-3.87c.03.9.18 1.53.48 1.89.285.36.78.525 1.485.525.585 0 1.14-.09 1.65-.3.195-.075.315-.045.36.105l.105.345c.03.09.015.165-.015.225q-.045.09-.315.18c-.51.195-1.11.285-1.785.285-1.095 0-1.86-.27-2.295-.825-.45-.54-.66-1.44-.66-2.685v-.6c0-1.2.21-2.085.645-2.655.42-.57 1.155-.855 2.175-.855.855 0 1.5.21 1.935.615.435.435.66 1.08.66 1.95m-2.58-1.725c-.66 0-1.14.195-1.41.57-.285.39-.435 1.08-.435 2.1h3.225c.075 0 .135 0 .165-.03s.045-.09.045-.195v-.57c0-.645-.12-1.11-.345-1.395-.27-.315-.675-.48-1.245-.48m11.497-.345h.675c.27 0 .45.15.51.42.435 2.16.885 4.095 1.365 5.805h.075a82 82 0 0 0 1.395-6.405c0-.09.03-.135.06-.15s.09-.03.21-.03h.465q.157 0 .225.045c.03.03.045.075.045.165q-.495 2.52-1.53 6.525c-.12.42-.33.615-.63.615h-.51c-.195 0-.345-.045-.435-.135-.105-.09-.18-.24-.24-.48-.48-1.77-.9-3.6-1.29-5.475h-.105a109 109 0 0 1-1.29 5.475c-.06.24-.15.39-.24.48-.105.09-.255.135-.435.135h-.51c-.315 0-.525-.195-.63-.615q-1.058-4.005-1.53-6.525c-.015-.09 0-.135.045-.165q.045-.045.225-.045h.465q.225 0 .27.18c.36 2.13.825 4.275 1.395 6.405h.075c.465-1.71.915-3.645 1.365-5.805.06-.27.225-.42.51-.42m12.125 7.125c-.93 0-1.755-.135-2.49-.435-.135-.045-.18-.135-.15-.255l.12-.495c.03-.15.135-.18.315-.12.69.315 1.425.465 2.175.465.69 0 1.215-.15 1.575-.465s.54-.765.54-1.365V11.3c0-.54-.12-.93-.33-1.17s-.63-.45-1.26-.6l-1.005-.24c-.735-.18-1.275-.45-1.62-.84-.345-.375-.51-.9-.51-1.59v-.225c0-.795.255-1.41.765-1.83s1.215-.645 2.115-.645c.81 0 1.515.105 2.145.285.165.06.225.165.195.33l-.105.36q-.067.225-.36.135a6.5 6.5 0 0 0-1.845-.27c-1.245 0-1.86.555-1.86 1.65v.15c0 .51.12.87.36 1.095s.645.405 1.215.525l.945.225c.81.195 1.38.48 1.71.84q.495.563.495 1.665v.24c0 .915-.27 1.605-.81 2.055-.54.465-1.305.69-2.325.69m7.768 0c-.96 0-1.65-.255-2.055-.795h-.03v3.15c0 .12-.06.165-.15.165h-.675c-.105 0-.15-.045-.15-.165V6.815c0-.105.045-.165.15-.165h.45c.105 0 .165.06.18.165l.09.6h.03c.42-.6 1.155-.9 2.175-.9.975 0 1.68.27 2.1.81s.645 1.38.645 2.55v.78q0 1.732-.63 2.61c-.42.585-1.125.87-2.13.87m-.12-6.78c-1.32 0-1.965.63-1.965 1.89v2.115c0 .645.165 1.125.525 1.455.345.33.84.48 1.47.48.66 0 1.155-.18 1.455-.555q.405-.495.405-2.16v-.57c0-1.05-.165-1.77-.465-2.145-.3-.33-.765-.51-1.425-.51m5.22 2.82v.285c0 .75.045 1.29.15 1.65.225.795.81 1.185 1.74 1.185s1.515-.39 1.755-1.185c.09-.36.15-.9.15-1.65v-.285c0-.735-.06-1.29-.15-1.65q-.338-1.17-1.755-1.17c-.945 0-1.53.39-1.74 1.17-.105.36-.15.915-.15 1.65m4.785-.15v.6c0 1.35-.27 2.295-.78 2.805-.48.48-1.185.705-2.115.705s-1.62-.225-2.1-.705c-.525-.51-.78-1.455-.78-2.805v-.6c0-1.35.255-2.295.78-2.82.465-.45 1.17-.69 2.1-.69s1.635.24 2.115.69c.51.525.78 1.47.78 2.82M217.275 14h-.705c-.78 0-1.35-.195-1.68-.6-.33-.39-.495-.96-.495-1.725v-4.17h-.915c-.105 0-.15-.045-.15-.165v-.3c0-.12.045-.18.15-.195l.915-.195V4.955q0-.18.18-.18h.63c.105 0 .165.06.165.18V6.65h1.755c.09 0 .15.06.15.15v.555c0 .105-.06.15-.15.15h-1.755v4.05c0 .6.09 1.02.27 1.23.18.255.555.375 1.095.375h.54c.12 0 .18.06.18.165v.51c0 .12-.06.165-.18.165m2.782-7.185v7.065c0 .09-.045.12-.135.12h-.72c-.09 0-.12-.03-.12-.12V6.815c0-.105.06-.165.18-.165h.615c.12 0 .18.06.18.165m.21-2.145v.09c0 .48-.225.72-.66.72h-.06c-.465 0-.69-.24-.69-.72v-.09c0-.465.225-.705.69-.705h.06c.435 0 .66.24.66.705m3.187 9.33h-.63q-.18 0-.18-.18V7.505h-.915c-.105 0-.15-.045-.15-.165v-.3c0-.12.045-.18.15-.195l.915-.195v-.465c0-.66.105-1.155.315-1.515.375-.63 1.05-.96 2.01-.96.48 0 .87.045 1.2.135q.18.067.18.225l-.075.42c-.03.135-.12.18-.255.15a5 5 0 0 0-.9-.09c-.48 0-.825.105-1.05.285-.3.24-.45.69-.45 1.365v.45h1.605c.09 0 .15.06.15.15v.555c0 .105-.06.15-.15.15h-1.605v6.315c0 .12-.06.18-.165.18m4.302 2.295c.405-.795.765-1.59 1.095-2.4-.45 0-.795-.315-1.005-.945-.33-.87-.6-1.74-.84-2.58a66 66 0 0 1-.915-3.525c-.03-.12.015-.195.165-.195h.675c.09 0 .135.045.165.135.21 1.065.48 2.175.795 3.33.165.66.42 1.47.75 2.43.06.18.12.315.195.375.06.075.165.105.285.105h.06c.57-1.56 1.11-3.645 1.635-6.255.015-.075.075-.12.165-.12h.69c.06 0 .09.015.12.045s.03.06.03.09c-.465 2.175-.945 3.975-1.425 5.415a47 47 0 0 1-1.755 4.47c-.06.135-.165.165-.315.105l-.495-.18c-.135-.045-.165-.15-.075-.3m5.726-9.075h-.315c-.165 0-.24-.09-.24-.27l-.12-2.955c-.03-.21.06-.315.255-.315h.54c.18 0 .27.105.255.315l-.12 2.955c0 .18-.09.27-.255.27m2.295 0h-.315c-.165 0-.24-.09-.24-.27l-.12-2.955c-.03-.21.06-.315.255-.315h.54c.18 0 .27.105.255.315l-.12 2.955c0 .18-.09.27-.255.27m6.181 2.955v.285c0 .75.045 1.29.15 1.65.225.795.81 1.185 1.74 1.185s1.515-.39 1.755-1.185c.09-.36.15-.9.15-1.65v-.285c0-.735-.06-1.29-.15-1.65q-.338-1.17-1.755-1.17c-.945 0-1.53.39-1.74 1.17-.105.36-.15.915-.15 1.65m4.785-.15v.6c0 1.35-.27 2.295-.78 2.805-.48.48-1.185.705-2.115.705s-1.62-.225-2.1-.705c-.525-.51-.78-1.455-.78-2.805v-.6c0-1.35.255-2.295.78-2.82.465-.45 1.17-.69 2.1-.69s1.635.24 2.115.69c.51.525.78 1.47.78 2.82m4.464 3.27c.75 0 1.26-.195 1.545-.585.285-.405.435-1.125.435-2.145v-.51c0-1.08-.21-1.83-.6-2.235-.315-.3-.795-.465-1.425-.465-.645 0-1.11.15-1.41.45-.165.165-.27.36-.33.57-.06.225-.075.555-.075.975v2.055c0 .6.105 1.035.315 1.32.27.39.78.57 1.545.57m-1.86-9.285v3.225h.03q.563-.72 1.89-.72 1.485 0 2.205.855c.465.57.705 1.44.705 2.625v.69c0 1.26-.255 2.16-.75 2.67-.495.525-1.245.78-2.235.78-1.08 0-1.83-.255-2.265-.78-.375-.435-.555-1.05-.555-1.845v-7.5c0-.105.06-.165.18-.165h.615c.12 0 .18.06.18.165m11.597 5.07v1.23c0 .21-.045.36-.12.45-.09.09-.225.12-.435.12h-3.87c.03.9.18 1.53.48 1.89.285.36.78.525 1.485.525.585 0 1.14-.09 1.65-.3.195-.075.315-.045.36.105l.105.345c.03.09.015.165-.015.225q-.045.09-.315.18c-.51.195-1.11.285-1.785.285-1.095 0-1.86-.27-2.295-.825-.45-.54-.66-1.44-.66-2.685v-.6c0-1.2.21-2.085.645-2.655.42-.57 1.155-.855 2.175-.855.855 0 1.5.21 1.935.615.435.435.66 1.08.66 1.95m-2.58-1.725c-.66 0-1.14.195-1.41.57-.285.39-.435 1.08-.435 2.1h3.225c.075 0 .135 0 .165-.03s.045-.09.045-.195v-.57c0-.645-.12-1.11-.345-1.395-.27-.315-.675-.48-1.245-.48m5.521-.54v7.095c0 .735-.135 1.32-.375 1.74-.39.69-1.065 1.02-2.025 1.02h-.54c-.12 0-.165-.06-.165-.18v-.495c0-.12.045-.18.165-.18h.51c.6 0 1.02-.225 1.23-.69.15-.33.225-.75.225-1.29v-7.02c0-.105.06-.165.18-.165h.615c.12 0 .18.06.18.165m.21-2.145v.09c0 .48-.225.72-.66.72h-.06c-.465 0-.69-.24-.69-.72v-.09c0-.465.225-.705.69-.705h.06c.435 0 .66.24.66.705m2.062 9.105v-6.96c0-.105.045-.165.165-.165h.435c.105 0 .165.06.18.165l.075.6h.03c.12-.21.33-.39.615-.57.375-.21.84-.33 1.395-.33 1.05 0 1.8.345 2.235 1.035h.03c.525-.69 1.305-1.035 2.325-1.035.9 0 1.56.24 1.98.705.39.465.6 1.215.6 2.235v4.32c0 .15-.09.225-.24.225h-.51q-.225 0-.225-.225v-4.38c0-.69-.135-1.185-.375-1.515-.3-.345-.75-.525-1.38-.525q-1.215 0-1.89.9c.06.39.09.795.09 1.2v4.32q0 .225-.225.225h-.51c-.165 0-.24-.075-.24-.225v-4.38q0-1.102-.45-1.575c-.3-.3-.78-.465-1.41-.465-.69 0-1.185.21-1.455.63q-.27.405-.27 1.17v4.62q0 .225-.225.225h-.525q-.225 0-.225-.225m16.601-7.125h.63c.105 0 .165.075.165.195v5.04c0 .765-.225 1.335-.66 1.71-.42.36-1.11.54-2.04.54s-1.62-.18-2.04-.54q-.675-.562-.675-1.71V6.89c0-.15.06-.24.21-.24h.555c.135 0 .21.075.21.21v4.905c0 .555.12.945.39 1.17q.405.36 1.35.36c.63 0 1.08-.135 1.38-.42.225-.21.345-.585.345-1.11v-4.92c0-.12.06-.195.18-.195m3.979.165v7.095c0 .735-.135 1.32-.375 1.74-.39.69-1.065 1.02-2.025 1.02h-.54c-.12 0-.165-.06-.165-.18v-.495c0-.12.045-.18.165-.18h.51c.6 0 1.02-.225 1.23-.69.15-.33.225-.75.225-1.29v-7.02c0-.105.06-.165.18-.165h.615c.12 0 .18.06.18.165m.21-2.145v.09c0 .48-.225.72-.66.72h-.06c-.465 0-.69-.24-.69-.72v-.09c0-.465.225-.705.69-.705h.06c.435 0 .66.24.66.705m7.117 4.41v1.23c0 .21-.045.36-.12.45-.09.09-.225.12-.435.12h-3.87c.03.9.18 1.53.48 1.89.285.36.78.525 1.485.525.585 0 1.14-.09 1.65-.3.195-.075.315-.045.36.105l.105.345c.03.09.015.165-.015.225q-.045.09-.315.18c-.51.195-1.11.285-1.785.285-1.095 0-1.86-.27-2.295-.825-.45-.54-.66-1.44-.66-2.685v-.6c0-1.2.21-2.085.645-2.655.42-.57 1.155-.855 2.175-.855.855 0 1.5.21 1.935.615.435.435.66 1.08.66 1.95m-2.58-1.725c-.66 0-1.14.195-1.41.57-.285.39-.435 1.08-.435 2.1h3.225c.075 0 .135 0 .165-.03s.045-.09.045-.195v-.57c0-.645-.12-1.11-.345-1.395-.27-.315-.675-.48-1.245-.48m10.341 5.94c.69 0 1.23-.165 1.59-.495.315-.3.48-.765.48-1.38v-.135c0-.75-.21-1.275-.615-1.56s-1.035-.435-1.89-.435h-.45c-.15 0-.21-.06-.21-.195v-.45c0-.135.075-.21.24-.21h.345c1.59 0 2.385-.585 2.385-1.785v-.135q0-.743-.45-1.125c-.3-.255-.72-.39-1.245-.39-.6 0-1.2.12-1.785.345-.21.075-.33.045-.36-.105l-.12-.39c-.045-.135.03-.24.21-.3.69-.255 1.41-.39 2.16-.39q1.283 0 1.98.585c.465.39.705.945.705 1.695v.195c0 1.125-.525 1.845-1.545 2.16v.045a2.1 2.1 0 0 1 1.245.765c.33.42.495.945.495 1.59v.195c0 1.83-1.05 2.745-3.12 2.745-.795 0-1.56-.09-2.28-.3-.18-.045-.24-.15-.21-.3l.09-.39c.03-.15.135-.21.33-.15.63.21 1.305.3 2.025.3m9.794-9.285v5.64h.75c.15 0 .285-.075.39-.24l1.74-2.595a.32.32 0 0 1 .285-.165h.645c.165 0 .195.09.105.24l-2.13 3.09c-.06.09-.06.165 0 .24l2.205 3.615c.06.12.015.165-.105.165h-.78c-.09 0-.15-.03-.18-.105l-1.89-3.195c-.06-.105-.165-.165-.315-.165h-.72v3.345c0 .09-.045.12-.135.12h-.705c-.09 0-.135-.03-.135-.12V4.01c0-.105.06-.165.18-.165h.615c.12 0 .18.06.18.165m5.852 6.165v.285c0 .75.045 1.29.15 1.65.225.795.81 1.185 1.74 1.185s1.515-.39 1.755-1.185c.09-.36.15-.9.15-1.65v-.285c0-.735-.06-1.29-.15-1.65q-.338-1.17-1.755-1.17c-.945 0-1.53.39-1.74 1.17-.105.36-.15.915-.15 1.65m4.785-.15v.6c0 1.35-.27 2.295-.78 2.805-.48.48-1.185.705-2.115.705s-1.62-.225-2.1-.705c-.525-.51-.78-1.455-.78-2.805v-.6c0-1.35.255-2.295.78-2.82.465-.45 1.17-.69 2.1-.69s1.635.24 2.115.69c.51.525.78 1.47.78 2.82m7.149-6.015v7.53c0 .78-.195 1.38-.555 1.815-.45.525-1.2.78-2.265.78-1.08 0-1.845-.24-2.295-.735-.465-.48-.69-1.38-.69-2.7v-.705c0-1.185.225-2.055.705-2.625q.697-.855 2.205-.855 1.305 0 1.89.72h.03V4.01c0-.105.06-.165.18-.165h.615c.12 0 .18.06.18.165m-.975 7.395V9.35c0-.63-.165-1.11-.465-1.47-.3-.345-.75-.525-1.35-.525-.675 0-1.17.18-1.47.51-.375.42-.555 1.155-.555 2.205v.51q0 1.665.54 2.25c.27.315.75.465 1.44.465.75 0 1.275-.18 1.545-.57.21-.285.315-.72.315-1.32m3.916 4.89c.405-.795.765-1.59 1.095-2.4-.45 0-.795-.315-1.005-.945-.33-.87-.6-1.74-.84-2.58a66 66 0 0 1-.915-3.525c-.03-.12.015-.195.165-.195h.675c.09 0 .135.045.165.135.21 1.065.48 2.175.795 3.33.165.66.42 1.47.75 2.43.06.18.12.315.195.375.06.075.165.105.285.105h.06c.57-1.56 1.11-3.645 1.635-6.255.015-.075.075-.12.165-.12h.69c.06 0 .09.015.12.045s.03.06.03.09c-.465 2.175-.945 3.975-1.425 5.415a47 47 0 0 1-1.755 4.47c-.06.135-.165.165-.315.105l-.495-.18c-.135-.045-.165-.15-.075-.3m13.442-2.985v.54c0 .105-.06.15-.15.15h-4.68c-.105 0-.151-.045-.151-.15v-.255c0-.15.091-.36.271-.66l3.3-5.445h-3.315c-.105 0-.15-.045-.15-.15V6.8c0-.09.045-.15.15-.15h4.44c.09 0 .15.06.15.15v.21c0 .18-.135.48-.39.9l-3.225 5.25h3.6c.09 0 .15.06.15.15m7.072.435c0 .18-.105.255-.285.255h-.42q-.18 0-.225-.045c-.03-.03-.045-.09-.045-.21v-4.38c0-.885-.24-1.47-.69-1.755-.3-.18-.705-.285-1.215-.285-.705 0-1.2.21-1.47.63q-.27.405-.27 1.17v4.65q0 .225-.27.225h-.465c-.165 0-.24-.075-.24-.225v-6.96c0-.105.045-.165.15-.165h.45c.105 0 .165.06.18.165l.075.6h.03c.12-.21.33-.39.615-.57.375-.21.84-.33 1.41-.33 1.155 0 1.935.345 2.325 1.005q.36.63.36 1.935zm3.163-6.93v7.065c0 .09-.045.12-.135.12h-.72c-.09 0-.12-.03-.12-.12V6.815c0-.105.06-.165.18-.165h.615c.12 0 .18.06.18.165m.21-2.145v.09c0 .48-.225.72-.66.72h-.06c-.465 0-.69-.24-.69-.72v-.09c0-.465.225-.705.69-.705h.06c.435 0 .66.24.66.705m6.488 8.64v.54c0 .105-.06.15-.15.15h-4.68c-.105 0-.15-.045-.15-.15v-.255c0-.15.09-.36.27-.66l3.3-5.445h-3.315c-.105 0-.15-.045-.15-.15V6.8c0-.09.045-.15.15-.15h4.44c.09 0 .15.06.15.15v.21c0 .18-.135.48-.39.9l-3.225 5.25h3.6c.09 0 .15.06.15.15m-3.315-8.865c0-.24.075-.45.255-.63s.39-.27.645-.27q.36 0 .63.27t.27.63c0 .255-.09.465-.27.645a.85.85 0 0 1-.63.255.86.86 0 0 1-.645-.255.86.86 0 0 1-.255-.645m5.738-.435v5.64h.75c.15 0 .285-.075.39-.24l1.74-2.595a.32.32 0 0 1 .285-.165h.645c.165 0 .195.09.105.24l-2.13 3.09c-.06.09-.06.165 0 .24l2.205 3.615c.06.12.015.165-.105.165h-.78c-.09 0-.15-.03-.18-.105l-1.89-3.195c-.06-.105-.165-.165-.315-.165h-.72v3.345c0 .09-.045.12-.135.12h-.705c-.09 0-.135-.03-.135-.12V4.01c0-.105.06-.165.18-.165h.615c.12 0 .18.06.18.165m5.852 6.165v.285c0 .75.045 1.29.15 1.65.225.795.81 1.185 1.74 1.185s1.515-.39 1.755-1.185c.09-.36.15-.9.15-1.65v-.285c0-.735-.06-1.29-.15-1.65q-.338-1.17-1.755-1.17c-.945 0-1.53.39-1.74 1.17-.105.36-.15.915-.15 1.65m4.785-.15v.6c0 1.35-.27 2.295-.78 2.805-.48.48-1.185.705-2.115.705s-1.62-.225-2.1-.705c-.525-.51-.78-1.455-.78-2.805v-.6c0-1.35.255-2.295.78-2.82.465-.45 1.17-.69 2.1-.69s1.635.24 2.115.69c.51.525.78 1.47.78 2.82m5.334-3.015h.675c.27 0 .45.15.51.42.435 2.16.885 4.095 1.365 5.805h.075a82 82 0 0 0 1.395-6.405c0-.09.03-.135.06-.15s.09-.03.21-.03h.465q.158 0 .225.045c.03.03.045.075.045.165q-.495 2.52-1.53 6.525c-.12.42-.33.615-.63.615h-.51c-.195 0-.345-.045-.435-.135-.105-.09-.18-.24-.24-.48-.48-1.77-.9-3.6-1.29-5.475h-.105a109 109 0 0 1-1.29 5.475c-.06.24-.15.39-.24.48-.105.09-.255.135-.435.135h-.51c-.315 0-.525-.195-.63-.615q-1.058-4.005-1.53-6.525c-.015-.09 0-.135.045-.165q.045-.045.225-.045h.465q.225 0 .27.18c.36 2.13.825 4.275 1.395 6.405h.075c.465-1.71.915-3.645 1.365-5.805.06-.27.225-.42.51-.42m11.43 2.07v1.23c0 .21-.045.36-.12.45-.09.09-.225.12-.435.12h-3.87c.03.9.18 1.53.48 1.89.285.36.78.525 1.485.525.585 0 1.14-.09 1.65-.3.195-.075.315-.045.36.105l.105.345c.03.09.015.165-.015.225q-.045.09-.315.18c-.51.195-1.11.285-1.785.285-1.095 0-1.86-.27-2.295-.825-.45-.54-.66-1.44-.66-2.685v-.6c0-1.2.21-2.085.645-2.655.42-.57 1.155-.855 2.175-.855.855 0 1.5.21 1.935.615.435.435.66 1.08.66 1.95m-2.58-1.725c-.66 0-1.14.195-1.41.57-.285.39-.435 1.08-.435 2.1h3.225c.075 0 .135 0 .165-.03s.045-.09.045-.195v-.57c0-.645-.12-1.11-.345-1.395-.27-.315-.675-.48-1.245-.48m4.967-.465h.15c.42 0 .645.195.645.585v.36c0 .39-.225.585-.645.585h-.15c-.435 0-.645-.195-.645-.585v-.36c0-.39.21-.585.645-.585m0 5.715h.15c.42 0 .645.195.645.585v.36c0 .39-.225.585-.645.585h-.15c-.435 0-.645-.195-.645-.585v-.36c0-.39.21-.585.645-.585m7.331-8.595v5.64h.75c.15 0 .285-.075.39-.24l1.74-2.595a.32.32 0 0 1 .285-.165h.645c.165 0 .195.09.105.24l-2.13 3.09c-.06.09-.06.165 0 .24l2.205 3.615c.06.12.015.165-.105.165h-.78c-.09 0-.15-.03-.18-.105l-1.89-3.195c-.06-.105-.165-.165-.315-.165h-.72v3.345c0 .09-.045.12-.135.12h-.705c-.09 0-.135-.03-.135-.12V4.01c0-.105.06-.165.18-.165h.615c.12 0 .18.06.18.165m9.449 9.84-.03-.51h-.03c-.33.54-.87.795-1.59.795h-.75c-.72 0-1.245-.18-1.605-.54s-.54-.825-.54-1.41v-.45q0-1.418 1.17-1.89c.33-.135.93-.21 1.8-.21h.45c.36 0 .705.015 1.005.045v-.855c0-.54-.15-.93-.435-1.14-.3-.21-.75-.33-1.38-.33-.525 0-1.035.075-1.545.225-.24.06-.36.03-.39-.12l-.075-.315c-.06-.18 0-.285.165-.345.63-.18 1.26-.285 1.92-.285.96 0 1.65.18 2.07.525s.645.9.645 1.68v5.13c0 .105-.06.15-.165.15h-.495c-.135 0-.195-.045-.195-.15m-.12-2.1v-1.245q-.36-.045-.9-.045h-.84c-.63 0-1.065.105-1.32.3s-.375.525-.375.99v.315c0 .45.105.78.315.975.18.18.495.27.915.27h.615c.495 0 .885-.12 1.17-.39.27-.27.42-.66.42-1.17M419 13.31v.54c0 .105-.06.15-.15.15h-4.68c-.105 0-.15-.045-.15-.15v-.255c0-.15.09-.36.27-.66l3.3-5.445h-3.315c-.105 0-.15-.045-.15-.15V6.8c0-.09.045-.15.15-.15h4.44c.09 0 .15.06.15.15v.21c0 .18-.135.48-.39.9l-3.225 5.25h3.6c.09 0 .15.06.15.15m-3.315-8.865c0-.24.075-.45.255-.63s.39-.27.645-.27q.36 0 .63.27t.27.63c0 .255-.09.465-.27.645a.85.85 0 0 1-.63.255.86.86 0 0 1-.645-.255.86.86 0 0 1-.255-.645m10.238-.435v7.53c0 .78-.195 1.38-.555 1.815-.45.525-1.2.78-2.265.78-1.08 0-1.845-.24-2.295-.735-.465-.48-.69-1.38-.69-2.7v-.705c0-1.185.225-2.055.705-2.625q.697-.855 2.205-.855 1.305 0 1.89.72h.03V4.01c0-.105.06-.165.18-.165h.615c.12 0 .18.06.18.165m-.975 7.395V9.35c0-.63-.165-1.11-.465-1.47-.3-.345-.75-.525-1.35-.525-.675 0-1.17.18-1.47.51-.375.42-.555 1.155-.555 2.205v.51q0 1.665.54 2.25c.27.315.75.465 1.44.465.75 0 1.275-.18 1.545-.57.21-.285.315-.72.315-1.32m3.917 4.89c.405-.795.765-1.59 1.095-2.4-.45 0-.795-.315-1.005-.945-.33-.87-.6-1.74-.84-2.58a66 66 0 0 1-.915-3.525c-.03-.12.015-.195.165-.195h.675c.09 0 .135.045.165.135.21 1.065.48 2.175.795 3.33.165.66.42 1.47.75 2.43.06.18.12.315.195.375.06.075.165.105.285.105h.06c.57-1.56 1.11-3.645 1.635-6.255.015-.075.075-.12.165-.12h.69c.06 0 .09.015.12.045s.03.06.03.09c-.465 2.175-.945 3.975-1.425 5.415a47 47 0 0 1-1.755 4.47c-.06.135-.165.165-.315.105l-.495-.18c-.135-.045-.165-.15-.075-.3m14.596-2.55c0 .18-.105.255-.285.255h-.42q-.18 0-.225-.045c-.03-.03-.045-.09-.045-.21v-4.38c0-.885-.24-1.47-.69-1.755-.3-.18-.705-.285-1.215-.285-.705 0-1.2.21-1.47.63q-.27.405-.27 1.17v4.65q0 .225-.27.225h-.465c-.165 0-.24-.075-.24-.225v-6.96c0-.105.045-.165.15-.165h.45c.105 0 .165.06.18.165l.075.6h.03c.12-.21.33-.39.615-.57.375-.21.84-.33 1.41-.33 1.155 0 1.935.345 2.325 1.005q.36.63.36 1.935zm6.103.105-.03-.51h-.03c-.33.54-.87.795-1.59.795h-.75c-.72 0-1.245-.18-1.605-.54s-.54-.825-.54-1.41v-.45q0-1.418 1.17-1.89c.33-.135.93-.21 1.8-.21h.45c.36 0 .705.015 1.005.045v-.855c0-.54-.15-.93-.435-1.14-.3-.21-.75-.33-1.38-.33-.525 0-1.035.075-1.545.225-.24.06-.36.03-.39-.12l-.075-.315c-.06-.18 0-.285.165-.345.63-.18 1.26-.285 1.92-.285.96 0 1.65.18 2.07.525s.645.9.645 1.68v5.13c0 .105-.06.15-.165.15h-.495c-.135 0-.195-.045-.195-.15m-.12-2.1v-1.245q-.36-.045-.9-.045h-.84c-.63 0-1.065.105-1.32.3s-.375.525-.375.99v.315c0 .45.105.78.315.975.18.18.495.27.915.27h.615c.495 0 .885-.12 1.17-.39.27-.27.42-.66.42-1.17m8.973 1.545c.69 0 1.23-.165 1.59-.495.315-.3.48-.765.48-1.38v-.135c0-.75-.21-1.275-.615-1.56s-1.035-.435-1.89-.435h-.45c-.15 0-.21-.06-.21-.195v-.45c0-.135.075-.21.24-.21h.345c1.59 0 2.385-.585 2.385-1.785v-.135q0-.743-.45-1.125c-.3-.255-.72-.39-1.245-.39-.6 0-1.2.12-1.785.345-.21.075-.33.045-.36-.105l-.12-.39c-.045-.135.03-.24.21-.3.69-.255 1.41-.39 2.16-.39q1.282 0 1.98.585c.465.39.705.945.705 1.695v.195c0 1.125-.525 1.845-1.545 2.16v.045a2.1 2.1 0 0 1 1.245.765c.33.42.495.945.495 1.59v.195c0 1.83-1.05 2.745-3.12 2.745-.795 0-1.56-.09-2.28-.3-.18-.045-.24-.15-.21-.3l.09-.39c.03-.15.135-.21.33-.15.63.21 1.305.3 2.025.3m8.848.48v-6.96c0-.105.045-.165.165-.165h.435c.105 0 .165.06.18.165l.075.6h.03c.12-.21.33-.39.615-.57.375-.21.84-.33 1.395-.33 1.05 0 1.8.345 2.235 1.035h.03c.525-.69 1.305-1.035 2.325-1.035.9 0 1.56.24 1.98.705.39.465.6 1.215.6 2.235v4.32c0 .15-.09.225-.24.225h-.51q-.225 0-.225-.225v-4.38c0-.69-.135-1.185-.375-1.515-.3-.345-.75-.525-1.38-.525q-1.215 0-1.89.9c.06.39.09.795.09 1.2v4.32q0 .225-.225.225h-.51c-.165 0-.24-.075-.24-.225v-4.38q0-1.102-.45-1.575c-.3-.3-.78-.465-1.41-.465-.69 0-1.185.21-1.455.63q-.27.405-.27 1.17v4.62q0 .225-.225.225h-.525q-.225 0-.225-.225m13.226-6.96v7.065c0 .09-.045.12-.135.12h-.72c-.09 0-.12-.03-.12-.12V6.815c0-.105.06-.165.18-.165h.615c.12 0 .18.06.18.165m.21-2.145v.09c0 .48-.225.72-.66.72h-.06c-.465 0-.69-.24-.69-.72v-.09c0-.465.225-.705.69-.705h.06c.435 0 .66.24.66.705m7.103 4.41v1.23c0 .21-.045.36-.12.45-.09.09-.225.12-.435.12h-3.87c.03.9.18 1.53.48 1.89.285.36.78.525 1.485.525.585 0 1.14-.09 1.65-.3.195-.075.315-.045.36.105l.105.345c.03.09.015.165-.015.225q-.045.09-.315.18c-.51.195-1.11.285-1.785.285-1.095 0-1.86-.27-2.295-.825-.45-.54-.66-1.44-.66-2.685v-.6c0-1.2.21-2.085.645-2.655.42-.57 1.155-.855 2.175-.855.855 0 1.5.21 1.935.615.435.435.66 1.08.66 1.95m-2.58-1.725c-.66 0-1.14.195-1.41.57-.285.39-.435 1.08-.435 2.1h3.225c.075 0 .135 0 .165-.03s.045-.09.045-.195v-.57c0-.645-.12-1.11-.345-1.395-.27-.315-.675-.48-1.245-.48m6.166 6.78c-.795 0-1.47-.12-2.04-.36-.15-.06-.21-.135-.18-.255l.12-.435c.03-.15.135-.21.285-.15a5 5 0 0 0 1.815.36c.6 0 1.02-.09 1.275-.3.24-.195.375-.51.375-.96v-.09c0-.495-.135-.825-.405-1.005-.165-.09-.51-.195-1.05-.315l-.42-.075c-.51-.09-.9-.21-1.17-.375-.51-.285-.765-.81-.765-1.56v-.15c0-1.29.795-1.95 2.4-1.95.615 0 1.17.075 1.68.21q.27.09.225.27l-.09.39c-.06.18-.165.255-.345.195a5.6 5.6 0 0 0-1.485-.225c-.57 0-.975.105-1.185.3-.21.18-.3.45-.3.78v.105c0 .33.075.585.24.735q.27.293 1.17.45l.39.075c.84.18 1.38.42 1.635.72.24.33.375.78.375 1.32v.15c0 .6-.15 1.065-.42 1.395-.405.51-1.11.75-2.13.75m5.361-7.32v7.065c0 .09-.045.12-.135.12h-.72c-.09 0-.12-.03-.12-.12V6.815c0-.105.06-.165.18-.165h.615c.12 0 .18.06.18.165m.21-2.145v.09c0 .48-.225.72-.66.72h-.06c-.465 0-.69-.24-.69-.72v-.09c0-.465.225-.705.69-.705h.06c.435 0 .66.24.66.705m6.143 9.27-.015-.6h-.03c-.33.54-.87.795-1.59.795h-.75c-.72 0-1.245-.18-1.605-.54s-.54-.825-.54-1.41v-.45q0-1.418 1.17-1.89c.33-.135.93-.21 1.8-.21h.45c.36 0 .705.015 1.005.045v-.855c0-.54-.15-.93-.435-1.14-.3-.21-.75-.33-1.38-.33-.525 0-1.035.075-1.545.225-.24.06-.36.03-.39-.12l-.075-.315c-.06-.18 0-.285.165-.345.63-.18 1.26-.285 1.92-.285.96 0 1.65.18 2.07.525s.63.9.63 1.68v5.01c0 .12-.045.225-.135.3-.36.33-.63.6-.78.84-.165.24-.24.48-.24.75 0 .36.21.54.645.54.24 0 .48-.045.72-.165.105-.045.18-.015.21.075l.09.42c.03.105-.015.18-.12.225-.36.15-.72.225-1.11.225q-1.44 0-1.44-1.125 0-.585.315-.99c.21-.27.54-.57.99-.885m-.105-2.175v-1.26q-.36-.045-.9-.045h-.84c-.63 0-1.065.105-1.32.3s-.375.525-.375.99v.3q0 .698.315.99c.18.18.495.27.915.27h.615c.495 0 .885-.12 1.17-.39.27-.255.42-.645.42-1.155m7.393 1.35.105.345q.045.158 0 .225c-.03.045-.105.09-.255.15-.495.21-1.065.3-1.71.3-.93 0-1.62-.21-2.07-.645-.585-.525-.87-1.515-.87-2.97v-.495c0-1.32.3-2.265.915-2.835q.72-.675 2.025-.675c.39 0 .795.075 1.185.195.39.135.72.285.96.465.075.06.075.15.015.24l-.255.42c-.06.09-.135.105-.255.03-.57-.33-1.11-.51-1.65-.51-.585 0-1.035.165-1.35.465-.405.405-.6 1.185-.6 2.34v.255c0 1.14.15 1.92.48 2.31.3.39.795.57 1.515.57.48 0 .96-.09 1.455-.285.195-.075.315-.045.36.105m6.797-4.035v1.23c0 .21-.045.36-.12.45-.09.09-.225.12-.435.12h-3.87c.03.9.18 1.53.48 1.89.285.36.78.525 1.485.525.585 0 1.14-.09 1.65-.3.195-.075.315-.045.36.105l.105.345c.03.09.015.165-.015.225q-.045.09-.315.18c-.51.195-1.11.285-1.785.285-1.095 0-1.86-.27-2.295-.825-.45-.54-.66-1.44-.66-2.685v-.6c0-1.2.21-2.085.645-2.655.42-.57 1.155-.855 2.175-.855.855 0 1.5.21 1.935.615.435.435.66 1.08.66 1.95m-2.58-1.725c-.66 0-1.14.195-1.41.57-.285.39-.435 1.08-.435 2.1h3.225c.075 0 .135 0 .165-.03s.045-.09.045-.195v-.57c0-.645-.12-1.11-.345-1.395-.27-.315-.675-.48-1.245-.48M2.865 32.135c-.795 0-1.47-.12-2.04-.36-.15-.06-.21-.135-.18-.255l.12-.435c.03-.15.135-.21.285-.15a5 5 0 0 0 1.815.36c.6 0 1.02-.09 1.275-.3.24-.195.375-.51.375-.96v-.09c0-.495-.135-.825-.405-1.005-.165-.09-.51-.195-1.05-.315l-.42-.075c-.51-.09-.9-.21-1.17-.375-.51-.285-.765-.81-.765-1.56v-.15c0-1.29.795-1.95 2.4-1.95.615 0 1.17.075 1.68.21q.27.09.225.27l-.09.39c-.06.18-.165.255-.345.195a5.6 5.6 0 0 0-1.485-.225c-.57 0-.975.105-1.185.3-.21.18-.3.45-.3.78v.105c0 .33.075.585.24.735q.27.292 1.17.45l.39.075c.84.18 1.38.42 1.635.72.24.33.375.78.375 1.32v.15c0 .6-.15 1.065-.42 1.395-.405.51-1.11.75-2.13.75m8.736-7.485h.63c.104 0 .165.075.165.195v5.04c0 .765-.226 1.335-.66 1.71-.42.36-1.11.54-2.04.54s-1.62-.18-2.04-.54q-.675-.562-.675-1.71V24.89c0-.15.06-.24.21-.24h.555c.135 0 .21.075.21.21v4.905c0 .555.12.945.39 1.17q.405.36 1.35.36c.63 0 1.08-.135 1.38-.42.224-.21.345-.585.345-1.11v-4.92c0-.12.06-.195.18-.195m5.553 6.645c.75 0 1.26-.195 1.545-.585.285-.405.435-1.125.435-2.145v-.51c0-1.08-.21-1.83-.6-2.235-.315-.3-.795-.465-1.425-.465-.645 0-1.11.15-1.41.45-.165.165-.27.36-.33.57-.06.225-.075.555-.075.975v2.055c0 .6.105 1.035.315 1.32.27.39.78.57 1.545.57m-1.86-9.285v3.225h.03q.563-.72 1.89-.72 1.485 0 2.205.855c.465.57.705 1.44.705 2.625v.69c0 1.26-.255 2.16-.75 2.67-.495.525-1.245.78-2.235.78-1.08 0-1.83-.255-2.265-.78-.375-.435-.555-1.05-.555-1.845v-7.5c0-.105.06-.165.18-.165h.615c.12 0 .18.06.18.165m8.372 10.125c-.795 0-1.47-.12-2.04-.36-.15-.06-.21-.135-.18-.255l.12-.435c.03-.15.135-.21.285-.15a5 5 0 0 0 1.815.36c.6 0 1.02-.09 1.275-.3.24-.195.375-.51.375-.96v-.09c0-.495-.135-.825-.405-1.005-.165-.09-.51-.195-1.05-.315l-.42-.075c-.51-.09-.9-.21-1.17-.375-.51-.285-.765-.81-.765-1.56v-.15c0-1.29.795-1.95 2.4-1.95.615 0 1.17.075 1.68.21q.27.09.225.27l-.09.39c-.06.18-.165.255-.345.195a5.6 5.6 0 0 0-1.485-.225c-.57 0-.975.105-1.185.3-.21.18-.3.45-.3.78v.105c0 .33.075.585.24.735q.27.292 1.17.45l.39.075c.84.18 1.38.42 1.635.72.24.33.375.78.375 1.32v.15c0 .6-.15 1.065-.42 1.395-.405.51-1.11.75-2.13.75M28.8 22.01v5.64h.75c.15 0 .285-.075.39-.24l1.74-2.595a.32.32 0 0 1 .285-.165h.645c.165 0 .195.09.105.24l-2.13 3.09c-.06.09-.06.165 0 .24l2.205 3.615c.06.12.015.165-.105.165h-.78c-.09 0-.15-.03-.18-.105l-1.89-3.195c-.06-.105-.165-.165-.315-.165h-.72v3.345c0 .09-.045.12-.135.12h-.705c-.09 0-.135-.03-.135-.12v-9.87c0-.105.06-.165.18-.165h.615c.12 0 .18.06.18.165m6.06 9.99h-.48c-.166 0-.24-.06-.24-.195v-6.99c0-.105.06-.165.18-.165h.434c.09 0 .15.06.18.165l.06.78h.03c.33-.63.916-.945 1.74-.945h.39c.12 0 .195.06.195.18v.51c0 .12-.075.165-.194.165h-.405c-.66 0-1.125.21-1.365.615-.18.3-.27.69-.27 1.185v4.5c0 .135-.09.195-.255.195m4.766 2.295c.404-.795.764-1.59 1.094-2.4-.45 0-.794-.315-1.004-.945-.33-.87-.6-1.74-.84-2.58a66 66 0 0 1-.916-3.525c-.03-.12.016-.195.166-.195h.674c.09 0 .136.045.166.135.21 1.065.48 2.175.794 3.33.165.66.42 1.47.75 2.43.06.18.12.315.195.375.06.075.165.105.285.105h.06c.57-1.56 1.11-3.645 1.636-6.255.015-.075.075-.12.165-.12h.69c.06 0 .09.015.12.045s.03.06.03.09c-.465 2.175-.946 3.975-1.425 5.415a47 47 0 0 1-1.756 4.47c-.06.135-.165.165-.315.105l-.494-.18c-.136-.045-.166-.15-.075-.3m8.485-2.16c-.96 0-1.65-.255-2.055-.795h-.03v3.15c0 .12-.06.165-.15.165h-.675c-.105 0-.15-.045-.15-.165v-9.675c0-.105.045-.165.15-.165h.45c.105 0 .166.06.18.165l.09.6h.03c.42-.6 1.156-.9 2.175-.9.975 0 1.68.27 2.1.81s.646 1.38.646 2.55v.78q0 1.732-.63 2.61c-.42.585-1.126.87-2.13.87m-.12-6.78c-1.32 0-1.964.63-1.964 1.89v2.115c0 .645.165 1.125.525 1.455.345.33.84.48 1.47.48.66 0 1.154-.18 1.454-.555q.406-.495.406-2.16v-.57c0-1.05-.166-1.77-.466-2.145-.3-.33-.764-.51-1.425-.51m9.03 5.76.106.345q.045.157 0 .225c-.03.045-.105.09-.255.15-.495.21-1.065.3-1.71.3-.93 0-1.62-.21-2.07-.645-.585-.525-.87-1.515-.87-2.97v-.495c0-1.32.3-2.265.915-2.835q.72-.675 2.025-.675c.39 0 .795.075 1.185.195.39.135.72.285.96.465.075.06.075.15.015.24l-.255.42c-.06.09-.135.105-.255.03-.57-.33-1.11-.51-1.65-.51-.585 0-1.035.165-1.35.465-.405.405-.6 1.185-.6 2.34v.255c0 1.14.15 1.92.48 2.31.3.39.795.57 1.515.57.48 0 .96-.09 1.455-.285.195-.075.315-.045.36.105m2.928-6.3v7.095c0 .735-.136 1.32-.376 1.74-.39.69-1.064 1.02-2.024 1.02h-.54c-.12 0-.166-.06-.166-.18v-.495c0-.12.045-.18.166-.18h.51c.6 0 1.02-.225 1.23-.69.15-.33.224-.75.224-1.29v-7.02c0-.105.06-.165.18-.165h.615c.12 0 .18.06.18.165m.21-2.145v.09c0 .48-.225.72-.66.72h-.06c-.465 0-.69-.24-.69-.72v-.09c0-.465.224-.705.69-.705h.06c.434 0 .66.24.66.705m3.232 2.145v7.065c0 .09-.046.12-.136.12h-.72c-.09 0-.12-.03-.12-.12v-7.065c0-.105.06-.165.18-.165h.616c.12 0 .18.06.18.165m.21-2.145v.09c0 .48-.225.72-.66.72h-.06c-.465 0-.69-.24-.69-.72v-.09c0-.465.224-.705.69-.705h.06c.434 0 .66.24.66.705m7.798 9.465c-.93 0-1.756-.135-2.49-.435-.135-.045-.18-.135-.15-.255l.12-.495c.03-.15.135-.18.315-.12.69.315 1.425.465 2.175.465.69 0 1.215-.15 1.575-.465s.54-.765.54-1.365V29.3c0-.54-.12-.93-.33-1.17s-.63-.45-1.26-.6l-1.005-.24c-.736-.18-1.275-.45-1.62-.84-.346-.375-.51-.9-.51-1.59v-.225c0-.795.254-1.41.764-1.83s1.216-.645 2.115-.645c.81 0 1.516.105 2.145.285.165.06.225.165.195.33l-.105.36q-.066.225-.36.135A6.5 6.5 0 0 0 71.67 23c-1.246 0-1.86.555-1.86 1.65v.15c0 .51.12.87.36 1.095s.644.405 1.215.525l.944.225c.81.195 1.38.48 1.71.84q.495.563.495 1.665v.24c0 .915-.27 1.605-.81 2.055-.54.465-1.305.69-2.325.69m7.767 0c-.96 0-1.65-.255-2.055-.795h-.03v3.15c0 .12-.06.165-.15.165h-.675c-.105 0-.15-.045-.15-.165v-9.675c0-.105.045-.165.15-.165h.45c.105 0 .165.06.18.165l.09.6h.03c.42-.6 1.155-.9 2.175-.9.975 0 1.68.27 2.1.81s.645 1.38.645 2.55v.78q0 1.732-.63 2.61c-.42.585-1.125.87-2.13.87m-.12-6.78c-1.32 0-1.965.63-1.965 1.89v2.115c0 .645.165 1.125.525 1.455.345.33.84.48 1.47.48.66 0 1.155-.18 1.455-.555q.405-.495.405-2.16v-.57c0-1.05-.165-1.77-.465-2.145-.3-.33-.765-.51-1.425-.51m5.22 2.82v.285c0 .75.046 1.29.15 1.65.225.795.81 1.185 1.74 1.185s1.516-.39 1.755-1.185c.09-.36.15-.9.15-1.65v-.285c0-.735-.06-1.29-.15-1.65q-.337-1.17-1.755-1.17c-.944 0-1.53.39-1.74 1.17-.105.36-.15.915-.15 1.65m4.785-.15v.6c0 1.35-.27 2.295-.78 2.805-.48.48-1.184.705-2.115.705-.93 0-1.62-.225-2.1-.705-.525-.51-.78-1.455-.78-2.805v-.6c0-1.35.255-2.295.78-2.82.465-.45 1.17-.69 2.1-.69s1.636.24 2.115.69c.51.525.78 1.47.78 2.82M93.893 32h-.705c-.78 0-1.35-.195-1.68-.6-.33-.39-.495-.96-.495-1.725v-4.17h-.915c-.105 0-.15-.045-.15-.165v-.3c0-.12.045-.18.15-.195l.915-.195v-1.695q0-.18.18-.18h.63c.105 0 .165.06.165.18v1.695h1.755c.09 0 .15.06.15.15v.555c0 .105-.06.15-.15.15h-1.755v4.05c0 .6.09 1.02.27 1.23.18.255.555.375 1.095.375h.54c.12 0 .18.06.18.165v.51c0 .12-.06.165-.18.165m2.78-7.185v7.065c0 .09-.044.12-.134.12h-.72c-.09 0-.12-.03-.12-.12v-7.065c0-.105.06-.165.18-.165h.615c.12 0 .18.06.18.165m.21-2.145v.09c0 .48-.224.72-.66.72h-.06c-.464 0-.69-.24-.69-.72v-.09c0-.465.226-.705.69-.705h.06c.436 0 .66.24.66.705m3.189 9.33h-.63q-.18 0-.18-.18v-6.315h-.915c-.106 0-.15-.045-.15-.165v-.3c0-.12.044-.18.15-.195l.914-.195v-.465c0-.66.105-1.155.316-1.515.375-.63 1.05-.96 2.01-.96.48 0 .87.045 1.2.135q.18.068.18.225l-.075.42c-.03.135-.12.18-.255.15a5 5 0 0 0-.9-.09c-.48 0-.825.105-1.05.285-.3.24-.45.69-.45 1.365v.45h1.605c.09 0 .15.06.15.15v.555c0 .105-.06.15-.15.15h-1.605v6.315c0 .12-.06.18-.165.18m4.302 2.295c.405-.795.765-1.59 1.095-2.4-.45 0-.795-.315-1.005-.945-.33-.87-.6-1.74-.84-2.58a66 66 0 0 1-.915-3.525c-.03-.12.015-.195.165-.195h.675c.09 0 .135.045.165.135.21 1.065.48 2.175.795 3.33.165.66.42 1.47.75 2.43.06.18.12.315.195.375.06.075.165.105.285.105h.06c.57-1.56 1.11-3.645 1.635-6.255.015-.075.075-.12.165-.12h.69c.06 0 .09.015.12.045s.03.06.03.09c-.465 2.175-.945 3.975-1.425 5.415a47 47 0 0 1-1.755 4.47c-.06.135-.165.165-.315.105l-.495-.18c-.135-.045-.165-.15-.075-.3m9.346-12h.54c.165 0 .255.09.255.255v9.195c0 .18-.09.255-.255.255h-.525c-.18 0-.255-.075-.255-.255V22.55c0-.165.075-.255.24-.255m8.56 9.45c0 .18-.105.255-.285.255h-.42q-.18 0-.225-.045c-.03-.03-.045-.09-.045-.21v-4.38c0-.885-.24-1.47-.69-1.755-.3-.18-.705-.285-1.215-.285-.705 0-1.2.21-1.47.63q-.27.405-.27 1.17v4.65q0 .225-.27.225h-.465c-.165 0-.24-.075-.24-.225v-6.96c0-.105.045-.165.15-.165h.45c.105 0 .165.06.18.165l.075.6h.03c.12-.21.33-.39.615-.57.375-.21.84-.33 1.41-.33 1.155 0 1.935.345 2.325 1.005q.36.63.36 1.935zm7.438-9.735v7.53c0 .78-.195 1.38-.555 1.815-.45.525-1.2.78-2.265.78-1.08 0-1.845-.24-2.295-.735-.465-.48-.69-1.38-.69-2.7v-.705c0-1.185.225-2.055.705-2.625q.698-.855 2.205-.855 1.305 0 1.89.72h.03V22.01c0-.105.06-.165.18-.165h.615c.12 0 .18.06.18.165m-.975 7.395V27.35c0-.63-.165-1.11-.465-1.47-.3-.345-.75-.525-1.35-.525-.675 0-1.17.18-1.47.51-.375.42-.555 1.155-.555 2.205v.51q0 1.665.54 2.25c.27.315.75.465 1.44.465.75 0 1.275-.18 1.545-.57.21-.285.315-.72.315-1.32m4.142-4.59v7.065c0 .09-.045.12-.135.12h-.72c-.09 0-.12-.03-.12-.12v-7.065c0-.105.06-.165.18-.165h.615c.12 0 .18.06.18.165m.21-2.145v.09c0 .48-.225.72-.66.72h-.06c-.465 0-.69-.24-.69-.72v-.09c0-.465.225-.705.69-.705h.06c.435 0 .66.24.66.705m4.567 9.33h-.555c-.18 0-.315-.03-.405-.12-.09-.075-.18-.225-.255-.45-.84-2.25-1.515-4.44-1.995-6.57-.03-.135.015-.21.165-.21h.57c.135 0 .21.06.24.18.51 2.1 1.14 4.23 1.89 6.405h.135a71 71 0 0 0 1.89-6.405c.015-.12.09-.18.24-.18h.57c.135 0 .195.075.165.21a53 53 0 0 1-1.995 6.57q-.135.337-.27.45c-.09.09-.225.12-.39.12m5.198-7.185v7.065c0 .09-.045.12-.135.12h-.72c-.09 0-.12-.03-.12-.12v-7.065c0-.105.06-.165.18-.165h.615c.12 0 .18.06.18.165m.21-2.145v.09c0 .48-.225.72-.66.72h-.06c-.465 0-.69-.24-.69-.72v-.09c0-.465.225-.705.69-.705h.06c.435 0 .66.24.66.705m7.493-.66v7.53c0 .78-.195 1.38-.555 1.815-.45.525-1.2.78-2.265.78-1.08 0-1.845-.24-2.295-.735-.465-.48-.69-1.38-.69-2.7v-.705c0-1.185.225-2.055.705-2.625q.697-.855 2.205-.855 1.305 0 1.89.72h.03V22.01c0-.105.06-.165.18-.165h.615c.12 0 .18.06.18.165m-.975 7.395V27.35c0-.63-.165-1.11-.465-1.47-.3-.345-.75-.525-1.35-.525-.675 0-1.17.18-1.47.51-.375.42-.555 1.155-.555 2.205v.51q0 1.665.54 2.25c.27.315.75.465 1.44.465.75 0 1.275-.18 1.545-.57.21-.285.315-.72.315-1.32m7.516-4.755h.63c.105 0 .165.075.165.195v5.04c0 .765-.225 1.335-.66 1.71-.42.36-1.11.54-2.04.54s-1.62-.18-2.04-.54q-.675-.562-.675-1.71V24.89c0-.15.06-.24.21-.24h.555c.135 0 .21.075.21.21v4.905c0 .555.12.945.39 1.17q.405.36 1.35.36c.63 0 1.08-.135 1.38-.42.225-.21.345-.585.345-1.11v-4.92c0-.12.06-.195.18-.195m6.904 7.2-.03-.51h-.03c-.33.54-.87.795-1.59.795h-.75c-.72 0-1.245-.18-1.605-.54s-.54-.825-.54-1.41v-.45q0-1.417 1.17-1.89c.33-.135.93-.21 1.8-.21h.45c.36 0 .705.015 1.005.045v-.855c0-.54-.15-.93-.435-1.14-.3-.21-.75-.33-1.38-.33-.525 0-1.035.075-1.545.225-.24.06-.36.03-.39-.12l-.075-.315c-.06-.18 0-.285.165-.345.63-.18 1.26-.285 1.92-.285.96 0 1.65.18 2.07.525s.645.9.645 1.68v5.13c0 .105-.06.15-.165.15h-.495c-.135 0-.195-.045-.195-.15m-.12-2.1v-1.245q-.36-.045-.9-.045h-.84c-.63 0-1.065.105-1.32.3s-.375.525-.375.99v.315c0 .45.105.78.315.975.18.18.495.27.915.27h.615c.495 0 .885-.12 1.17-.39.27-.27.42-.66.42-1.17m3.988-7.74v8.025q0 .787.135.945c.075.12.255.165.54.165h.405c.12 0 .18.06.18.165v.51c0 .12-.06.18-.15.18h-.57c-.54 0-.93-.105-1.155-.345-.24-.24-.36-.705-.36-1.38V22.01c0-.105.06-.165.18-.165h.615c.12 0 .18.06.18.165m3.09 8.595h.15c.42 0 .645.195.645.585v.36c0 .39-.225.585-.645.585h-.15c-.435 0-.645-.195-.645-.585v-.36c0-.39.21-.585.645-.585m7.151-2.325v3.465c0 .18-.09.255-.24.255h-.555c-.165 0-.24-.075-.24-.255v-9.09c0-.195.09-.315.27-.345.615-.09 1.305-.15 2.085-.15q1.935 0 2.745.675c.54.45.825 1.2.825 2.25v.195c0 2.01-1.17 3.015-3.495 3.015-.6 0-1.065 0-1.395-.015m.3-5.235c-.21.03-.3.15-.3.36v4.02c.24.03.66.03 1.275.03.87 0 1.515-.165 1.92-.495.39-.33.6-.9.6-1.71v-.195c0-.72-.195-1.245-.555-1.575-.375-.315-.99-.48-1.86-.48q-.675 0-1.08.045M185.315 32h-.48c-.165 0-.24-.06-.24-.195v-6.99c0-.105.06-.165.18-.165h.435c.09 0 .15.06.18.165l.06.78h.03c.33-.63.915-.945 1.74-.945h.39c.12 0 .195.06.195.18v.51c0 .12-.075.165-.195.165h-.405c-.66 0-1.125.21-1.365.615-.18.3-.27.69-.27 1.185v4.5c0 .135-.09.195-.255.195m4.407-3.825v.285c0 .75.045 1.29.15 1.65.225.795.81 1.185 1.74 1.185s1.515-.39 1.755-1.185c.09-.36.15-.9.15-1.65v-.285c0-.735-.06-1.29-.15-1.65q-.338-1.17-1.755-1.17c-.945 0-1.53.39-1.74 1.17-.105.36-.15.915-.15 1.65m4.785-.15v.6c0 1.35-.27 2.295-.78 2.805-.48.48-1.185.705-2.115.705s-1.62-.225-2.1-.705c-.525-.51-.78-1.455-.78-2.805v-.6c0-1.35.255-2.295.78-2.82.465-.45 1.17-.69 2.1-.69s1.635.24 2.115.69c.51.525.78 1.47.78 2.82m1.704 3.75v-6.96c0-.105.045-.165.165-.165h.435c.105 0 .165.06.18.165l.075.6h.03c.12-.21.33-.39.615-.57.375-.21.84-.33 1.395-.33 1.05 0 1.8.345 2.235 1.035h.03c.525-.69 1.305-1.035 2.325-1.035.9 0 1.56.24 1.98.705.39.465.6 1.215.6 2.235v4.32c0 .15-.09.225-.24.225h-.51q-.225 0-.225-.225v-4.38c0-.69-.135-1.185-.375-1.515-.3-.345-.75-.525-1.38-.525q-1.215 0-1.89.9c.06.39.09.795.09 1.2v4.32q0 .225-.225.225h-.51c-.165 0-.24-.075-.24-.225v-4.38q0-1.102-.45-1.575c-.3-.3-.78-.465-1.41-.465-.69 0-1.185.21-1.455.63q-.27.405-.27 1.17v4.62q0 .225-.225.225h-.525q-.225 0-.225-.225m12.685-3.6v.285c0 .75.045 1.29.15 1.65.225.795.81 1.185 1.74 1.185s1.515-.39 1.755-1.185c.09-.36.15-.9.15-1.65v-.285c0-.735-.06-1.29-.15-1.65q-.338-1.17-1.755-1.17c-.945 0-1.53.39-1.74 1.17-.105.36-.15.915-.15 1.65m4.785-.15v.6c0 1.35-.27 2.295-.78 2.805-.48.48-1.185.705-2.115.705s-1.62-.225-2.1-.705c-.525-.51-.78-1.455-.78-2.805v-.6c0-1.35.255-2.295.78-2.82.465-.45 1.17-.69 2.1-.69s1.635.24 2.115.69c.51.525.78 1.47.78 2.82m6.145 3.09.105.345q.045.157 0 .225c-.03.045-.105.09-.255.15-.495.21-1.065.3-1.71.3-.93 0-1.62-.21-2.07-.645-.585-.525-.87-1.515-.87-2.97v-.495c0-1.32.3-2.265.915-2.835q.72-.675 2.025-.675c.39 0 .795.075 1.185.195.39.135.72.285.96.465.075.06.075.15.015.24l-.255.42c-.06.09-.135.105-.255.03-.57-.33-1.11-.51-1.65-.51-.585 0-1.035.165-1.35.465-.405.405-.6 1.185-.6 2.34v.255c0 1.14.15 1.92.48 2.31.3.39.795.57 1.515.57.48 0 .96-.09 1.455-.285.195-.075.315-.045.36.105m2.926-6.3v7.095c0 .735-.135 1.32-.375 1.74-.39.69-1.065 1.02-2.025 1.02h-.54c-.12 0-.165-.06-.165-.18v-.495c0-.12.045-.18.165-.18h.51c.6 0 1.02-.225 1.23-.69.15-.33.225-.75.225-1.29v-7.02c0-.105.06-.165.18-.165h.615c.12 0 .18.06.18.165m.21-2.145v.09c0 .48-.225.72-.66.72h-.06c-.465 0-.69-.24-.69-.72v-.09c0-.465.225-.705.69-.705h.06c.435 0 .66.24.66.705m6.172 9.18-.03-.51h-.03c-.33.54-.87.795-1.59.795h-.75c-.72 0-1.245-.18-1.605-.54s-.54-.825-.54-1.41v-.45q0-1.417 1.17-1.89c.33-.135.93-.21 1.8-.21h.45c.36 0 .705.015 1.005.045v-.855c0-.54-.15-.93-.435-1.14-.3-.21-.75-.33-1.38-.33-.525 0-1.035.075-1.545.225-.24.06-.36.03-.39-.12l-.075-.315c-.06-.18 0-.285.165-.345.63-.18 1.26-.285 1.92-.285.96 0 1.65.18 2.07.525s.645.9.645 1.68v5.13c0 .105-.06.15-.165.15h-.495c-.135 0-.195-.045-.195-.15m-.12-2.1v-1.245q-.36-.045-.9-.045h-.84c-.63 0-1.065.105-1.32.3s-.375.525-.375.99v.315c0 .45.105.78.315.975.18.18.495.27.915.27h.615c.495 0 .885-.12 1.17-.39.27-.27.42-.66.42-1.17m7.129-1.575v.285c0 .75.045 1.29.15 1.65.225.795.81 1.185 1.74 1.185s1.515-.39 1.755-1.185c.09-.36.15-.9.15-1.65v-.285c0-.735-.06-1.29-.15-1.65q-.338-1.17-1.755-1.17c-.945 0-1.53.39-1.74 1.17-.105.36-.15.915-.15 1.65m4.785-.15v.6c0 1.35-.27 2.295-.78 2.805-.48.48-1.185.705-2.115.705s-1.62-.225-2.1-.705c-.525-.51-.78-1.455-.78-2.805v-.6c0-1.35.255-2.295.78-2.82.465-.45 1.17-.69 2.1-.69s1.635.24 2.115.69c.51.525.78 1.47.78 2.82m4.464 3.27c.75 0 1.26-.195 1.545-.585.285-.405.435-1.125.435-2.145v-.51c0-1.08-.21-1.83-.6-2.235-.315-.3-.795-.465-1.425-.465-.645 0-1.11.15-1.41.45-.165.165-.27.36-.33.57-.06.225-.075.555-.075.975v2.055c0 .6.105 1.035.315 1.32.27.39.78.57 1.545.57m-1.86-9.285v3.225h.03q.563-.72 1.89-.72 1.485 0 2.205.855c.465.57.705 1.44.705 2.625v.69c0 1.26-.255 2.16-.75 2.67-.495.525-1.245.78-2.235.78-1.08 0-1.83-.255-2.265-.78-.375-.435-.555-1.05-.555-1.845v-7.5c0-.105.06-.165.18-.165h.615c.12 0 .18.06.18.165m7.171 6.165v.285c0 .75.045 1.29.15 1.65.225.795.81 1.185 1.74 1.185s1.515-.39 1.755-1.185c.09-.36.15-.9.15-1.65v-.285c0-.735-.06-1.29-.15-1.65q-.338-1.17-1.755-1.17c-.945 0-1.53.39-1.74 1.17-.105.36-.15.915-.15 1.65m4.785-.15v.6c0 1.35-.27 2.295-.78 2.805-.48.48-1.185.705-2.115.705s-1.62-.225-2.1-.705c-.525-.51-.78-1.455-.78-2.805v-.6c0-1.35.255-2.295.78-2.82.465-.45 1.17-.69 2.1-.69s1.635.24 2.115.69c.51.525.78 1.47.78 2.82m5.334-3.015h.675c.27 0 .45.15.51.42.435 2.16.885 4.095 1.365 5.805h.075a82 82 0 0 0 1.395-6.405c0-.09.03-.135.06-.15s.09-.03.21-.03h.465q.158 0 .225.045c.03.03.045.075.045.165q-.495 2.52-1.53 6.525c-.12.42-.33.615-.63.615h-.51c-.195 0-.345-.045-.435-.135-.105-.09-.18-.24-.24-.48-.48-1.77-.9-3.6-1.29-5.475h-.105a109 109 0 0 1-1.29 5.475c-.06.24-.15.39-.24.48-.105.09-.255.135-.435.135h-.51c-.315 0-.525-.195-.63-.615q-1.057-4.005-1.53-6.525c-.015-.09 0-.135.045-.165q.045-.045.225-.045h.465q.225 0 .27.18c.36 2.13.825 4.275 1.395 6.405h.075c.465-1.71.915-3.645 1.365-5.805.06-.27.225-.42.51-.42m7.545-.195v7.065c0 .09-.045.12-.135.12h-.72c-.09 0-.12-.03-.12-.12v-7.065c0-.105.06-.165.18-.165h.615c.12 0 .18.06.18.165m.21-2.145v.09c0 .48-.225.72-.66.72h-.06c-.465 0-.69-.24-.69-.72v-.09c0-.465.225-.705.69-.705h.06c.435 0 .66.24.66.705m6.143 9.27-.015-.6h-.03c-.33.54-.87.795-1.59.795h-.75c-.72 0-1.245-.18-1.605-.54s-.54-.825-.54-1.41v-.45q0-1.417 1.17-1.89c.33-.135.93-.21 1.8-.21h.45c.36 0 .705.015 1.005.045v-.855c0-.54-.15-.93-.435-1.14-.3-.21-.75-.33-1.38-.33-.525 0-1.035.075-1.545.225-.24.06-.36.03-.39-.12l-.075-.315c-.06-.18 0-.285.165-.345.63-.18 1.26-.285 1.92-.285.96 0 1.65.18 2.07.525s.63.9.63 1.68v5.01c0 .12-.045.225-.135.3-.36.33-.63.6-.78.84-.165.24-.24.48-.24.75 0 .36.21.54.645.54.24 0 .48-.045.72-.165.105-.045.18-.015.21.075l.09.42c.03.105-.015.18-.12.225-.36.15-.72.225-1.11.225q-1.44 0-1.44-1.125 0-.585.315-.99c.21-.27.54-.57.99-.885m-.105-2.175v-1.26q-.36-.045-.9-.045h-.84c-.63 0-1.065.105-1.32.3s-.375.525-.375.99v.3q0 .698.315.99c.18.18.495.27.915.27h.615c.495 0 .885-.12 1.17-.39.27-.255.42-.645.42-1.155m7.393 1.545v.54c0 .105-.06.15-.15.15h-4.68c-.105 0-.15-.045-.15-.15v-.255c0-.15.09-.36.27-.66l3.3-5.445h-3.315c-.105 0-.15-.045-.15-.15v-.54c0-.09.045-.15.15-.15h4.44c.09 0 .15.06.15.15v.21c0 .18-.135.48-.39.9l-3.225 5.25h3.6c.09 0 .15.06.15.15m6.023-6.66h.63c.105 0 .165.075.165.195v5.04c0 .765-.225 1.335-.66 1.71-.42.36-1.11.54-2.04.54s-1.62-.18-2.04-.54q-.675-.562-.675-1.71V24.89c0-.15.06-.24.21-.24h.555c.135 0 .21.075.21.21v4.905c0 .555.12.945.39 1.17q.405.36 1.35.36c.63 0 1.08-.135 1.38-.42.225-.21.345-.585.345-1.11v-4.92c0-.12.06-.195.18-.195m3.979.165v7.095c0 .735-.135 1.32-.375 1.74-.39.69-1.065 1.02-2.025 1.02h-.54c-.12 0-.165-.06-.165-.18v-.495c0-.12.045-.18.165-.18h.51c.6 0 1.02-.225 1.23-.69.15-.33.225-.75.225-1.29v-7.02c0-.105.06-.165.18-.165h.615c.12 0 .18.06.18.165m.21-2.145v.09c0 .48-.225.72-.66.72h-.06c-.465 0-.69-.24-.69-.72v-.09c0-.465.225-.705.69-.705h.06c.435 0 .66.24.66.705m7.117 4.41v1.23c0 .21-.045.36-.12.45-.09.09-.225.12-.435.12h-3.87c.03.9.18 1.53.48 1.89.285.36.78.525 1.485.525.585 0 1.14-.09 1.65-.3.195-.075.315-.045.36.105l.105.345c.03.09.015.165-.015.225q-.045.09-.315.18c-.51.195-1.11.285-1.785.285-1.095 0-1.86-.27-2.295-.825-.45-.54-.66-1.44-.66-2.685v-.6c0-1.2.21-2.085.645-2.655.42-.57 1.155-.855 2.175-.855.855 0 1.5.21 1.935.615.435.435.66 1.08.66 1.95m-2.58-1.725c-.66 0-1.14.195-1.41.57-.285.39-.435 1.08-.435 2.1h3.225c.075 0 .135 0 .165-.03s.045-.09.045-.195v-.57c0-.645-.12-1.11-.345-1.395-.27-.315-.675-.48-1.245-.48m13.312-3.345v7.53c0 .78-.195 1.38-.555 1.815-.45.525-1.2.78-2.265.78-1.08 0-1.845-.24-2.295-.735-.465-.48-.69-1.38-.69-2.7v-.705c0-1.185.225-2.055.705-2.625q.697-.855 2.205-.855 1.305 0 1.89.72h.03V22.01c0-.105.06-.165.18-.165h.615c.12 0 .18.06.18.165m-.975 7.395V27.35c0-.63-.165-1.11-.465-1.47-.3-.345-.75-.525-1.35-.525-.675 0-1.17.18-1.47.51-.375.42-.555 1.155-.555 2.205v.51q0 1.665.54 2.25c.27.315.75.465 1.44.465.75 0 1.275-.18 1.545-.57.21-.285.315-.72.315-1.32m3.601-1.23v.285c0 .75.045 1.29.15 1.65.225.795.81 1.185 1.74 1.185s1.515-.39 1.755-1.185c.09-.36.15-.9.15-1.65v-.285c0-.735-.06-1.29-.15-1.65q-.338-1.17-1.755-1.17c-.945 0-1.53.39-1.74 1.17-.105.36-.15.915-.15 1.65m4.785-.15v.6c0 1.35-.27 2.295-.78 2.805-.48.48-1.185.705-2.115.705s-1.62-.225-2.1-.705c-.525-.51-.78-1.455-.78-2.805v-.6c0-1.35.255-2.295.78-2.82.465-.45 1.17-.69 2.1-.69s1.635.24 2.115.69c.51.525.78 1.47.78 2.82m7.71 3.27c.69 0 1.23-.165 1.59-.495.315-.3.48-.765.48-1.38v-.135c0-.75-.21-1.275-.615-1.56s-1.035-.435-1.89-.435h-.45c-.15 0-.21-.06-.21-.195v-.45c0-.135.075-.21.24-.21h.345c1.59 0 2.385-.585 2.385-1.785v-.135q0-.742-.45-1.125c-.3-.255-.72-.39-1.245-.39-.6 0-1.2.12-1.785.345-.21.075-.33.045-.36-.105l-.12-.39c-.045-.135.03-.24.21-.3.69-.255 1.41-.39 2.16-.39q1.283 0 1.98.585c.465.39.705.945.705 1.695v.195c0 1.125-.525 1.845-1.545 2.16v.045a2.1 2.1 0 0 1 1.245.765c.33.42.495.945.495 1.59v.195c0 1.83-1.05 2.745-3.12 2.745-.795 0-1.56-.09-2.28-.3-.18-.045-.24-.15-.21-.3l.09-.39c.03-.15.135-.21.33-.15.63.21 1.305.3 2.025.3m8.888-.135h2.1q.225 0 .225.225v.42c0 .135-.075.195-.225.195h-5.295q-.225 0-.225-.225v-.39q0-.225.225-.225h2.16v-7.845h-.105l-1.545.93c-.135.09-.24.06-.315-.075l-.24-.39c-.09-.12-.06-.21.075-.285l1.65-1.02c.18-.12.405-.18.645-.18h.51q.36 0 .36.315zm4.553-.555h.15c.42 0 .645.195.645.585v.36c0 .39-.225.585-.645.585h-.15c-.435 0-.645-.195-.645-.585v-.36c0-.39.21-.585.645-.585m6.125.555h2.1q.225 0 .225.225v.42c0 .135-.075.195-.225.195h-5.295q-.225 0-.225-.225v-.39q0-.225.225-.225h2.16v-7.845h-.105l-1.545.93c-.135.09-.24.06-.315-.075l-.24-.39c-.09-.12-.06-.21.075-.285l1.65-1.02c.18-.12.405-.18.645-.18h.51q.36 0 .36.315zm4.718-8.595a7.2 7.2 0 0 1 2.355-.405c.885 0 1.56.18 2.01.51q.81.63.81 1.935v.195c0 .705-.165 1.26-.465 1.65-.315.405-.855.765-1.605 1.095l-1.035.45c-.585.255-.975.57-1.17.96s-.285.96-.285 1.68v.525h4.185c.12 0 .195.075.195.195v.45c0 .135-.075.195-.195.195h-4.875c-.135 0-.225-.015-.27-.075-.06-.06-.075-.15-.075-.285v-.87c0-.9.135-1.62.42-2.19.27-.555.795-1.005 1.545-1.335l1.035-.45c.585-.255.975-.525 1.185-.81q.315-.405.315-1.17v-.105c0-.63-.165-1.095-.495-1.365-.3-.225-.735-.345-1.305-.345-.63 0-1.305.135-2.01.375-.21.075-.33.03-.36-.12l-.12-.39c-.03-.135.03-.24.21-.3m7.628 8.04h.15c.42 0 .645.195.645.585v.36c0 .39-.225.585-.645.585h-.15c-.435 0-.645-.195-.645-.585v-.36c0-.39.21-.585.645-.585m3.051-8.04a7.2 7.2 0 0 1 2.355-.405c.885 0 1.56.18 2.01.51q.81.63.81 1.935v.195c0 .705-.165 1.26-.465 1.65-.315.405-.855.765-1.605 1.095l-1.035.45c-.585.255-.975.57-1.17.96s-.285.96-.285 1.68v.525h4.185c.12 0 .195.075.195.195v.45c0 .135-.075.195-.195.195h-4.875c-.135 0-.225-.015-.27-.075-.06-.06-.075-.15-.075-.285v-.87c0-.9.135-1.62.42-2.19.27-.555.795-1.005 1.545-1.335l1.035-.45c.585-.255.975-.525 1.185-.81q.315-.405.315-1.17v-.105c0-.63-.165-1.095-.495-1.365-.3-.225-.735-.345-1.305-.345-.63 0-1.305.135-2.01.375-.21.075-.33.03-.36-.12l-.12-.39c-.03-.135.03-.24.21-.3m13.283 4.38v.405c0 1.935-.33 3.255-.975 3.975-.48.54-1.2.81-2.145.81-.96 0-1.665-.27-2.145-.81-.66-.72-.975-2.04-.975-3.975v-.405c0-1.92.315-3.255.975-3.975.48-.54 1.185-.81 2.145-.81.945 0 1.665.27 2.145.81.645.72.975 2.055.975 3.975m-5.145.105v.195c0 1.62.18 2.715.57 3.3.3.51.795.75 1.455.75s1.14-.24 1.455-.75c.375-.585.57-1.68.57-3.3v-.195c0-1.605-.195-2.7-.57-3.3-.315-.495-.795-.75-1.455-.75s-1.155.255-1.455.75c-.39.6-.57 1.695-.57 3.3m7.448-4.485a7.2 7.2 0 0 1 2.355-.405c.885 0 1.56.18 2.01.51q.81.63.81 1.935v.195c0 .705-.165 1.26-.465 1.65-.315.405-.855.765-1.605 1.095l-1.035.45c-.585.255-.975.57-1.17.96s-.285.96-.285 1.68v.525h4.185c.12 0 .195.075.195.195v.45c0 .135-.075.195-.195.195h-4.875c-.135 0-.225-.015-.27-.075-.06-.06-.075-.15-.075-.285v-.87c0-.9.135-1.62.42-2.19.27-.555.795-1.005 1.545-1.335l1.035-.45c.585-.255.975-.525 1.185-.81q.315-.405.315-1.17v-.105c0-.63-.165-1.095-.495-1.365-.3-.225-.735-.345-1.305-.345-.63 0-1.305.135-2.01.375-.21.075-.33.03-.36-.12l-.12-.39c-.03-.135.03-.24.21-.3m11.993 6.48v-.135c0-.705-.165-1.23-.465-1.59-.33-.345-.81-.525-1.47-.525s-1.245.165-1.77.495c-.135.09-.24.105-.33.06l-.225-.09c-.105-.03-.15-.12-.12-.255l.315-4.44c0-.18.105-.27.3-.27h3.93c.18 0 .27.09.27.24v.36c0 .165-.105.24-.3.24h-3.18c-.135 0-.21.075-.21.195l-.21 3.03c.465-.3 1.05-.45 1.77-.45.96 0 1.68.285 2.16.84.42.51.63 1.23.63 2.13v.165c0 1.05-.3 1.83-.87 2.34s-1.365.75-2.415.75q-1.26 0-2.34-.54c-.165-.075-.225-.18-.165-.315l.15-.405c.045-.15.15-.18.33-.105.615.36 1.29.525 2.04.525s1.305-.18 1.65-.555c.345-.36.525-.915.525-1.695m12.073-7.035v7.53c0 .78-.195 1.38-.555 1.815-.45.525-1.2.78-2.265.78-1.08 0-1.845-.24-2.295-.735-.465-.48-.69-1.38-.69-2.7v-.705c0-1.185.225-2.055.705-2.625q.697-.855 2.205-.855 1.305 0 1.89.72h.03V22.01c0-.105.06-.165.18-.165h.615c.12 0 .18.06.18.165m-.975 7.395V27.35c0-.63-.165-1.11-.465-1.47-.3-.345-.75-.525-1.35-.525-.675 0-1.17.18-1.47.51-.375.42-.555 1.155-.555 2.205v.51q0 1.665.54 2.25c.27.315.75.465 1.44.465.75 0 1.275-.18 1.545-.57.21-.285.315-.72.315-1.32m3.992-7.395v8.025q0 .787.135.945c.075.12.255.165.54.165h.405c.12 0 .18.06.18.165v.51c0 .12-.06.18-.15.18h-.57c-.54 0-.93-.105-1.155-.345-.24-.24-.36-.705-.36-1.38V22.01c0-.105.06-.165.18-.165h.615c.12 0 .18.06.18.165m6.869 9.84-.03-.51h-.03c-.33.54-.87.795-1.59.795h-.75c-.72 0-1.245-.18-1.605-.54s-.54-.825-.54-1.41v-.45q0-1.417 1.17-1.89c.33-.135.93-.21 1.8-.21h.45c.36 0 .705.015 1.005.045v-.855c0-.54-.15-.93-.435-1.14-.3-.21-.75-.33-1.38-.33-.525 0-1.035.075-1.545.225-.24.06-.36.03-.39-.12l-.075-.315c-.06-.18 0-.285.165-.345.63-.18 1.26-.285 1.92-.285.96 0 1.65.18 2.07.525s.645.9.645 1.68v5.13c0 .105-.06.15-.165.15h-.495c-.135 0-.195-.045-.195-.15m-.12-2.1v-1.245q-.36-.045-.9-.045h-.84c-.63 0-1.065.105-1.32.3s-.375.525-.375.99v.315c0 .45.105.78.315.975.18.18.495.27.915.27h.615c.495 0 .885-.12 1.17-.39.27-.27.42-.66.42-1.17m12.093 1.995c0 .18-.105.255-.285.255h-.42q-.18 0-.225-.045c-.03-.03-.045-.09-.045-.21v-4.38c0-.885-.24-1.47-.69-1.755-.3-.18-.705-.285-1.215-.285-.705 0-1.2.21-1.47.63q-.27.405-.27 1.17v4.65q0 .225-.27.225h-.465c-.165 0-.24-.075-.24-.225v-6.96c0-.105.045-.165.15-.165h.45c.105 0 .165.06.18.165l.075.6h.03c.12-.21.33-.39.615-.57.375-.21.84-.33 1.41-.33 1.155 0 1.935.345 2.325 1.005q.36.63.36 1.935zm2.623-3.57v.285c0 .75.045 1.29.15 1.65.225.795.81 1.185 1.74 1.185s1.515-.39 1.755-1.185c.09-.36.15-.9.15-1.65v-.285c0-.735-.06-1.29-.15-1.65q-.337-1.17-1.755-1.17c-.945 0-1.53.39-1.74 1.17-.105.36-.15.915-.15 1.65m4.785-.15v.6c0 1.35-.27 2.295-.78 2.805-.48.48-1.185.705-2.115.705s-1.62-.225-2.1-.705c-.525-.51-.78-1.455-.78-2.805v-.6c0-1.35.255-2.295.78-2.82.465-.45 1.17-.69 2.1-.69s1.635.24 2.115.69c.51.525.78 1.47.78 2.82m5.334-3.015h.675c.27 0 .45.15.51.42.435 2.16.885 4.095 1.365 5.805h.075a82 82 0 0 0 1.395-6.405c0-.09.03-.135.06-.15s.09-.03.21-.03h.465q.158 0 .225.045c.03.03.045.075.045.165q-.495 2.52-1.53 6.525c-.12.42-.33.615-.63.615h-.51c-.195 0-.345-.045-.435-.135-.105-.09-.18-.24-.24-.48-.48-1.77-.9-3.6-1.29-5.475h-.105a109 109 0 0 1-1.29 5.475c-.06.24-.15.39-.24.48-.105.09-.255.135-.435.135h-.51c-.315 0-.525-.195-.63-.615q-1.058-4.005-1.53-6.525c-.015-.09 0-.135.045-.165q.045-.045.225-.045h.465q.225 0 .27.18c.36 2.13.825 4.275 1.395 6.405h.075c.465-1.71.915-3.645 1.365-5.805.06-.27.225-.42.51-.42m7.437 9.285c.405-.795.765-1.59 1.095-2.4-.45 0-.795-.315-1.005-.945-.33-.87-.6-1.74-.84-2.58a66 66 0 0 1-.915-3.525c-.03-.12.015-.195.165-.195h.675c.09 0 .135.045.165.135.21 1.065.48 2.175.795 3.33.165.66.42 1.47.75 2.43.06.18.12.315.195.375.06.075.165.105.285.105h.06c.57-1.56 1.11-3.645 1.635-6.255.015-.075.075-.12.165-.12h.69c.06 0 .09.015.12.045s.03.06.03.09c-.465 2.175-.945 3.975-1.425 5.415a47 47 0 0 1-1.755 4.47c-.06.135-.165.165-.315.105l-.495-.18c-.135-.045-.165-.15-.075-.3m9.911-3.18.105.345q.045.157 0 .225c-.03.045-.105.09-.255.15-.495.21-1.065.3-1.71.3-.93 0-1.62-.21-2.07-.645-.585-.525-.87-1.515-.87-2.97v-.495c0-1.32.3-2.265.915-2.835q.72-.675 2.025-.675c.39 0 .795.075 1.185.195.39.135.72.285.96.465.075.06.075.15.015.24l-.255.42c-.06.09-.135.105-.255.03-.57-.33-1.11-.51-1.65-.51-.585 0-1.035.165-1.35.465-.405.405-.6 1.185-.6 2.34v.255c0 1.14.15 1.92.48 2.31.3.39.795.57 1.515.57.48 0 .96-.09 1.455-.285.195-.075.315-.045.36.105m2.687-9.105v3.285c.12-.165.3-.315.525-.45.375-.21.84-.33 1.41-.33 1.155 0 1.935.345 2.325 1.005q.36.63.36 1.935v4.335c0 .15-.09.21-.27.21h-.435c-.18 0-.27-.06-.27-.21v-4.395c0-.885-.24-1.47-.69-1.755-.3-.18-.705-.285-1.215-.285-.69 0-1.185.21-1.47.63q-.27.405-.27 1.17v4.62q0 .225-.27.225h-.465c-.165 0-.24-.075-.24-.225V22.01c0-.105.06-.165.18-.165h.615c.12 0 .18.06.18.165m11.089 0v5.64h.75c.15 0 .285-.075.39-.24l1.74-2.595a.32.32 0 0 1 .285-.165h.645c.165 0 .195.09.105.24l-2.13 3.09c-.06.09-.06.165 0 .24l2.205 3.615c.06.12.015.165-.105.165h-.78c-.09 0-.15-.03-.18-.105l-1.89-3.195c-.06-.105-.165-.165-.315-.165h-.72v3.345c0 .09-.045.12-.135.12h-.705c-.09 0-.135-.03-.135-.12v-9.87c0-.105.06-.165.18-.165h.615c.12 0 .18.06.18.165m6.359 0v8.025q0 .787.135.945c.075.12.255.165.54.165h.405c.12 0 .18.06.18.165v.51c0 .12-.06.18-.15.18h-.57c-.54 0-.93-.105-1.155-.345-.24-.24-.36-.705-.36-1.38V22.01c0-.105.06-.165.18-.165h.615c.12 0 .18.06.18.165m3.929 2.805v7.065c0 .09-.045.12-.135.12h-.72c-.09 0-.12-.03-.12-.12v-7.065c0-.105.06-.165.18-.165h.615c.12 0 .18.06.18.165m.21-2.145v.09c0 .48-.225.72-.66.72h-.06c-.465 0-.69-.24-.69-.72v-.09c0-.465.225-.705.69-.705h.06c.435 0 .66.24.66.705m7.103 4.41v1.23c0 .21-.045.36-.12.45-.09.09-.225.12-.435.12h-3.87c.03.9.18 1.53.48 1.89.285.36.78.525 1.485.525.585 0 1.14-.09 1.65-.3.195-.075.315-.045.36.105l.105.345c.03.09.015.165-.015.225q-.045.09-.315.18c-.51.195-1.11.285-1.785.285-1.095 0-1.86-.27-2.295-.825-.45-.54-.66-1.44-.66-2.685v-.6c0-1.2.21-2.085.645-2.655.42-.57 1.155-.855 2.175-.855.855 0 1.5.21 1.935.615.435.435.66 1.08.66 1.95m-2.58-1.725c-.66 0-1.14.195-1.41.57-.285.39-.435 1.08-.435 2.1h3.225c.075 0 .135 0 .165-.03s.045-.09.045-.195v-.57c0-.645-.12-1.11-.345-1.395-.27-.315-.675-.48-1.245-.48m9.932 6.39c0 .18-.105.255-.285.255h-.42q-.18 0-.225-.045c-.03-.03-.045-.09-.045-.21v-4.38c0-.885-.24-1.47-.69-1.755-.3-.18-.705-.285-1.215-.285-.705 0-1.2.21-1.47.63q-.27.405-.27 1.17v4.65q0 .225-.27.225h-.465c-.165 0-.24-.075-.24-.225v-6.96c0-.105.045-.165.15-.165h.45c.105 0 .165.06.18.165l.075.6h.03c.12-.21.33-.39.615-.57.375-.21.84-.33 1.41-.33 1.155 0 1.935.345 2.325 1.005q.36.63.36 1.935zm5.127.255h-.705c-.78 0-1.35-.195-1.68-.6-.33-.39-.495-.96-.495-1.725v-4.17h-.915c-.105 0-.15-.045-.15-.165v-.3c0-.12.045-.18.15-.195l.915-.195v-1.695q0-.18.18-.18h.63c.105 0 .165.06.165.18v1.695h1.755c.09 0 .15.06.15.15v.555c0 .105-.06.15-.15.15h-1.755v4.05c0 .6.09 1.02.27 1.23.18.255.555.375 1.095.375h.54c.12 0 .18.06.18.165v.51c0 .12-.06.165-.18.165m2.242-3.825v.285c0 .75.045 1.29.15 1.65.225.795.81 1.185 1.74 1.185s1.515-.39 1.755-1.185c.09-.36.15-.9.15-1.65v-.285c0-.735-.06-1.29-.15-1.65q-.337-1.17-1.755-1.17c-.945 0-1.53.39-1.74 1.17-.105.36-.15.915-.15 1.65m4.785-.15v.6c0 1.35-.27 2.295-.78 2.805-.48.48-1.185.705-2.115.705s-1.62-.225-2.1-.705c-.525-.51-.78-1.455-.78-2.805v-.6c0-1.35.255-2.295.78-2.82.465-.45 1.17-.69 2.1-.69s1.635.24 2.115.69c.51.525.78 1.47.78 2.82m-4.335-5.385 2.55-1.245c.195-.09.33-.045.405.105l.255.525c.06.15-.015.27-.195.36l-2.565.975c-.195.075-.315.045-.375-.09l-.15-.33c-.06-.135-.045-.24.075-.3m9.669 2.37h.675c.27 0 .45.15.51.42.435 2.16.885 4.095 1.365 5.805h.075a82 82 0 0 0 1.395-6.405c0-.09.03-.135.06-.15s.09-.03.21-.03h.465q.157 0 .225.045c.03.03.045.075.045.165q-.495 2.52-1.53 6.525c-.12.42-.33.615-.63.615h-.51c-.195 0-.345-.045-.435-.135-.105-.09-.18-.24-.24-.48-.48-1.77-.9-3.6-1.29-5.475h-.105a109 109 0 0 1-1.29 5.475c-.06.24-.15.39-.24.48-.105.09-.255.135-.435.135h-.51c-.315 0-.525-.195-.63-.615q-1.058-4.005-1.53-6.525c-.015-.09 0-.135.045-.165q.045-.045.225-.045h.465q.225 0 .27.18c.36 2.13.825 4.275 1.395 6.405h.075c.465-1.71.915-3.645 1.365-5.805.06-.27.225-.42.51-.42M1.98 40.01v5.64h.75c.15 0 .285-.075.39-.24l1.74-2.595a.32.32 0 0 1 .285-.165h.645c.165 0 .195.09.105.24l-2.13 3.09c-.06.09-.06.165 0 .24l2.205 3.615c.06.12.015.165-.105.165h-.78c-.09 0-.15-.03-.18-.105L3.015 46.7c-.06-.105-.165-.165-.315-.165h-.72v3.345c0 .09-.045.12-.135.12H1.14c-.09 0-.135-.03-.135-.12v-9.87c0-.105.06-.165.18-.165H1.8c.12 0 .18.06.18.165m5.852 6.165v.285c0 .75.045 1.29.15 1.65.225.795.81 1.185 1.74 1.185s1.515-.39 1.755-1.185c.09-.36.15-.9.15-1.65v-.285c0-.735-.06-1.29-.15-1.65q-.338-1.17-1.755-1.17c-.945 0-1.53.39-1.74 1.17-.105.36-.15.915-.15 1.65m4.785-.15v.6c0 1.35-.27 2.295-.78 2.805-.48.48-1.185.705-2.115.705s-1.62-.225-2.1-.705c-.525-.51-.78-1.455-.78-2.805v-.6c0-1.35.255-2.295.78-2.82.465-.45 1.17-.69 2.1-.69s1.635.24 2.115.69c.51.525.78 1.47.78 2.82m7.3 3.72c0 .18-.106.255-.286.255h-.42q-.18 0-.225-.045c-.03-.03-.045-.09-.045-.21v-4.38c0-.885-.24-1.47-.69-1.755-.3-.18-.705-.285-1.215-.285-.705 0-1.2.21-1.47.63q-.27.405-.27 1.17v4.65q0 .225-.27.225h-.465c-.165 0-.24-.075-.24-.225v-6.96c0-.105.045-.165.15-.165h.45c.105 0 .165.06.18.165l.075.6h.03c.12-.21.33-.39.615-.57.375-.21.84-.33 1.41-.33 1.155 0 1.935.345 2.325 1.005q.36.63.36 1.935zm5.127.255h-.705c-.78 0-1.35-.195-1.68-.6-.33-.39-.495-.96-.495-1.725v-4.17h-.915c-.105 0-.15-.045-.15-.165v-.3c0-.12.045-.18.15-.195l.915-.195v-1.695q0-.18.18-.18h.63c.105 0 .165.06.165.18v1.695h1.755c.09 0 .15.06.15.15v.555c0 .105-.06.15-.15.15h-1.755v4.05c0 .6.09 1.02.27 1.23.18.255.555.375 1.095.375h.54c.12 0 .18.06.18.165v.51c0 .12-.06.165-.18.165m5.721-.15-.03-.51h-.03c-.33.54-.87.795-1.59.795h-.75c-.72 0-1.245-.18-1.605-.54s-.54-.825-.54-1.41v-.45q0-1.418 1.17-1.89c.33-.135.93-.21 1.8-.21h.45c.36 0 .705.015 1.005.045v-.855c0-.54-.15-.93-.435-1.14-.3-.21-.75-.33-1.38-.33-.525 0-1.035.075-1.545.225-.24.06-.36.03-.39-.12l-.075-.315c-.06-.18 0-.285.165-.345.63-.18 1.26-.285 1.92-.285.96 0 1.65.18 2.07.525s.645.9.645 1.68v5.13c0 .105-.06.15-.165.15h-.495c-.135 0-.195-.045-.195-.15m-.12-2.1v-1.245q-.36-.045-.9-.045h-.84c-.63 0-1.065.105-1.32.3s-.375.525-.375.99v.315c0 .45.105.78.315.975.18.18.495.27.915.27h.615c.495 0 .885-.12 1.17-.39.27-.27.42-.66.42-1.17m7.128-1.575v.285c0 .75.045 1.29.15 1.65.225.795.81 1.185 1.74 1.185s1.515-.39 1.755-1.185c.09-.36.15-.9.15-1.65v-.285c0-.735-.06-1.29-.15-1.65q-.337-1.17-1.755-1.17c-.945 0-1.53.39-1.74 1.17-.105.36-.15.915-.15 1.65m4.785-.15v.6c0 1.35-.27 2.295-.78 2.805-.48.48-1.185.705-2.115.705s-1.62-.225-2.1-.705c-.525-.51-.78-1.455-.78-2.805v-.6c0-1.35.255-2.295.78-2.82.465-.45 1.17-.69 2.1-.69s1.635.24 2.115.69c.51.525.78 1.47.78 2.82m3.535 4.11c-.796 0-1.47-.12-2.04-.36-.15-.06-.21-.135-.18-.255l.12-.435c.03-.15.134-.21.285-.15a5 5 0 0 0 1.815.36c.6 0 1.02-.09 1.274-.3.24-.195.376-.51.376-.96v-.09c0-.495-.136-.825-.406-1.005-.165-.09-.51-.195-1.05-.315l-.42-.075c-.51-.09-.9-.21-1.17-.375-.51-.285-.765-.81-.765-1.56v-.15c0-1.29.795-1.95 2.4-1.95.615 0 1.17.075 1.68.21q.27.09.225.27l-.09.39c-.06.18-.164.255-.344.195a5.6 5.6 0 0 0-1.485-.225c-.57 0-.975.105-1.185.3-.21.18-.3.45-.3.78v.105c0 .33.075.585.24.735q.27.292 1.17.45l.39.075c.84.18 1.38.42 1.634.72.24.33.375.78.375 1.32v.15c0 .6-.15 1.065-.42 1.395-.404.51-1.11.75-2.13.75m4.82-3.96v.285c0 .75.045 1.29.15 1.65.225.795.81 1.185 1.74 1.185s1.515-.39 1.755-1.185c.09-.36.15-.9.15-1.65v-.285c0-.735-.06-1.29-.15-1.65q-.337-1.17-1.755-1.17c-.945 0-1.53.39-1.74 1.17-.105.36-.15.915-.15 1.65m4.785-.15v.6c0 1.35-.27 2.295-.78 2.805-.48.48-1.185.705-2.115.705s-1.62-.225-2.1-.705c-.525-.51-.78-1.455-.78-2.805v-.6c0-1.35.255-2.295.78-2.82.465-.45 1.17-.69 2.1-.69s1.635.24 2.115.69c.51.525.78 1.47.78 2.82m4.464 3.27c.75 0 1.26-.195 1.545-.585.285-.405.435-1.125.435-2.145v-.51c0-1.08-.21-1.83-.6-2.235-.315-.3-.795-.465-1.425-.465-.645 0-1.11.15-1.41.45-.165.165-.27.36-.33.57-.06.225-.075.555-.075.975v2.055c0 .6.105 1.035.315 1.32.27.39.78.57 1.545.57m-1.86-9.285v3.225h.03q.563-.72 1.89-.72 1.485 0 2.205.855c.465.57.705 1.44.705 2.625v.69c0 1.26-.255 2.16-.75 2.67-.495.525-1.245.78-2.235.78-1.08 0-1.83-.255-2.265-.78-.375-.435-.555-1.05-.555-1.845v-7.5c0-.105.06-.165.18-.165h.615c.12 0 .18.06.18.165m7.712 2.805v7.065c0 .09-.045.12-.135.12h-.72c-.09 0-.12-.03-.12-.12v-7.065c0-.105.06-.165.18-.165h.615c.12 0 .18.06.18.165m.21-2.145v.09c0 .48-.225.72-.66.72h-.06c-.465 0-.69-.24-.69-.72v-.09c0-.465.225-.705.69-.705h.06c.435 0 .66.24.66.705m3.877 9.465c-.795 0-1.47-.12-2.04-.36-.15-.06-.21-.135-.18-.255l.12-.435c.03-.15.135-.21.285-.15a5 5 0 0 0 1.815.36c.6 0 1.02-.09 1.275-.3.24-.195.375-.51.375-.96v-.09c0-.495-.135-.825-.405-1.005-.165-.09-.51-.195-1.05-.315l-.42-.075c-.51-.09-.9-.21-1.17-.375-.51-.285-.765-.81-.765-1.56v-.15c0-1.29.795-1.95 2.4-1.95.615 0 1.17.075 1.68.21q.27.09.225.27l-.09.39c-.06.18-.165.255-.345.195a5.6 5.6 0 0 0-1.485-.225c-.57 0-.975.105-1.185.3-.21.18-.3.45-.3.78v.105c0 .33.075.585.24.735q.27.292 1.17.45l.39.075c.84.18 1.38.42 1.635.72.24.33.375.78.375 1.32v.15c0 .6-.15 1.065-.42 1.395-.405.51-1.11.75-2.13.75M77.427 50h-.705c-.78 0-1.35-.195-1.68-.6-.33-.39-.495-.96-.495-1.725v-4.17h-.915c-.105 0-.15-.045-.15-.165v-.3c0-.12.045-.18.15-.195l.915-.195v-1.695q0-.18.18-.18h.63c.105 0 .165.06.165.18v1.695h1.755c.09 0 .15.06.15.15v.555c0 .105-.06.15-.15.15h-1.755v4.05c0 .6.09 1.02.27 1.23.18.255.555.375 1.095.375h.54c.12 0 .18.06.18.165v.51c0 .12-.06.165-.18.165m6.666-4.92v1.23c0 .21-.045.36-.12.45-.09.09-.225.12-.435.12h-3.87c.03.9.18 1.53.48 1.89.285.36.78.525 1.485.525.585 0 1.14-.09 1.65-.3.195-.075.315-.045.36.105l.105.345c.03.09.015.165-.015.225q-.045.09-.315.18c-.51.195-1.11.285-1.785.285-1.095 0-1.86-.27-2.295-.825-.45-.54-.66-1.44-.66-2.685v-.6c0-1.2.21-2.085.645-2.655.42-.57 1.155-.855 2.175-.855.855 0 1.5.21 1.935.615.435.435.66 1.08.66 1.95m-2.58-1.725c-.66 0-1.14.195-1.41.57-.285.39-.435 1.08-.435 2.1h3.225c.075 0 .135 0 .165-.03s.045-.09.045-.195v-.57c0-.645-.12-1.11-.345-1.395-.27-.315-.675-.48-1.245-.48m8.866 4.545c-.135.12-.27.225-.39.3.855.555 1.29 1.26 1.29 2.1v.165c0 .81-.27 1.395-.81 1.77-.54.39-1.29.57-2.22.57-.96 0-1.874-.195-2.715-.615-.105-.045-.15-.12-.12-.24l.165-.45q.045-.18.27-.09c.766.375 1.53.555 2.295.555.72 0 1.26-.105 1.59-.33q.495-.337.496-1.215v-.12c0-.78-.376-1.38-1.11-1.77-.24.06-.526.075-.886.075-.855 0-1.514-.18-1.994-.555-.525-.45-.78-1.17-.78-2.19v-.615c0-1.035.255-1.77.78-2.205.42-.345 1.095-.525 1.995-.525.21 0 .374.015.48.015.24-.72.81-1.095 1.68-1.095h.36c.135 0 .21.075.21.21v.585c0 .015-.016.03-.016.045-.014.015-.03.03-.06.03-.03.015-.075.015-.105.015h-.45c-.39 0-.63.135-.75.375.27.105.495.225.66.345.51.435.78 1.17.78 2.205v.615c0 .885-.225 1.56-.645 2.04m-3.9-2.55v.39c0 .48.046.885.165 1.185.21.615.75.915 1.59.915.856 0 1.395-.3 1.62-.915.09-.285.15-.69.15-1.2v-.375c0-.51-.06-.9-.15-1.17-.12-.33-.314-.555-.57-.69s-.6-.21-1.05-.21c-.434 0-.78.075-1.034.21-.255.135-.436.36-.556.69-.12.3-.165.69-.165 1.17m7.105.825v.285c0 .75.045 1.29.15 1.65.225.795.81 1.185 1.74 1.185s1.515-.39 1.755-1.185c.09-.36.15-.9.15-1.65v-.285c0-.735-.06-1.29-.15-1.65q-.338-1.17-1.755-1.17c-.945 0-1.53.39-1.74 1.17-.105.36-.15.915-.15 1.65m4.785-.15v.6c0 1.35-.27 2.295-.78 2.805-.48.48-1.185.705-2.115.705s-1.62-.225-2.1-.705c-.525-.51-.78-1.455-.78-2.805v-.6c0-1.35.255-2.295.78-2.82.465-.45 1.17-.69 2.1-.69s1.635.24 2.115.69c.51.525.78 1.47.78 2.82m11.939-5.475v6.3c0 1.125-.27 1.95-.81 2.49-.555.54-1.41.795-2.55.795-1.155 0-2.01-.255-2.55-.795s-.81-1.365-.81-2.49v-6.3c0-.165.075-.255.24-.255h.555c.15 0 .24.09.24.255v6.24c0 .855.165 1.47.525 1.86.375.435.975.645 1.8.645.81 0 1.41-.21 1.8-.645.345-.39.525-1.005.525-1.86v-6.24c0-.165.075-.255.24-.255h.555c.15 0 .24.09.24.255m7.65 9.195c0 .18-.105.255-.285.255h-.42q-.18 0-.225-.045c-.03-.03-.045-.09-.045-.21v-4.38c0-.885-.24-1.47-.69-1.755-.3-.18-.705-.285-1.215-.285-.705 0-1.2.21-1.47.63q-.27.405-.27 1.17v4.65q0 .225-.27.225h-.465c-.165 0-.24-.075-.24-.225v-6.96c0-.105.045-.165.15-.165h.45c.105 0 .165.06.18.165l.075.6h.03c.12-.21.33-.39.615-.57.375-.21.84-.33 1.41-.33 1.155 0 1.935.345 2.325 1.005q.36.63.36 1.935zm3.163-6.93v7.065c0 .09-.045.12-.135.12h-.72c-.09 0-.12-.03-.12-.12v-7.065c0-.105.06-.165.18-.165h.615c.12 0 .18.06.18.165m.21-2.145v.09c0 .48-.225.72-.66.72h-.06c-.465 0-.69-.24-.69-.72v-.09c0-.465.225-.705.69-.705h.06c.435 0 .66.24.66.705m7.883.195c.12.075.135.165.075.285l-.255.39c-.075.105-.18.12-.3.045-.66-.39-1.35-.585-2.055-.585-.735 0-1.305.225-1.71.645q-.45.45-.585 1.17-.135.742-.135 2.115v.42c0 .93.03 1.635.12 2.115s.27.855.54 1.155c.39.45 1.035.675 1.92.675.645 0 1.32-.12 2.025-.39.18-.06.3-.015.345.135l.105.33c.03.15-.03.27-.195.33-.735.3-1.5.435-2.28.435-1.35 0-2.295-.315-2.85-.975-.555-.645-.825-1.845-.825-3.615v-.795c0-.975.09-1.77.27-2.4s.48-1.125.93-1.485c.57-.465 1.335-.705 2.28-.705s1.8.24 2.58.705M131.657 50h-.48c-.165 0-.24-.06-.24-.195v-6.99c0-.105.06-.165.18-.165h.435c.09 0 .15.06.18.165l.06.78h.03c.33-.63.915-.945 1.74-.945h.39c.12 0 .195.06.195.18v.51c0 .12-.075.165-.195.165h-.405c-.66 0-1.125.21-1.365.615-.18.3-.27.69-.27 1.185v4.5c0 .135-.09.195-.255.195m8.876-4.92v1.23c0 .21-.045.36-.12.45-.09.09-.225.12-.435.12h-3.87c.03.9.18 1.53.48 1.89.285.36.78.525 1.485.525.585 0 1.14-.09 1.65-.3.195-.075.315-.045.36.105l.105.345c.03.09.015.165-.015.225q-.045.09-.315.18c-.51.195-1.11.285-1.785.285-1.095 0-1.86-.27-2.295-.825-.45-.54-.66-1.44-.66-2.685v-.6c0-1.2.21-2.085.645-2.655.42-.57 1.155-.855 2.175-.855.855 0 1.5.21 1.935.615.435.435.66 1.08.66 1.95m-2.58-1.725c-.66 0-1.14.195-1.41.57-.285.39-.435 1.08-.435 2.1h3.225c.075 0 .135 0 .165-.03s.045-.09.045-.195v-.57c0-.645-.12-1.11-.345-1.395-.27-.315-.675-.48-1.245-.48m9.782-3.345v7.53c0 .78-.195 1.38-.555 1.815-.45.525-1.2.78-2.265.78-1.08 0-1.845-.24-2.295-.735-.465-.48-.69-1.38-.69-2.7v-.705c0-1.185.225-2.055.705-2.625q.697-.855 2.205-.855 1.305 0 1.89.72h.03V40.01c0-.105.06-.165.18-.165h.615c.12 0 .18.06.18.165m-.975 7.395V45.35c0-.63-.165-1.11-.465-1.47-.3-.345-.75-.525-1.35-.525-.675 0-1.17.18-1.47.51-.375.42-.555 1.155-.555 2.205v.51q0 1.665.54 2.25c.27.315.75.465 1.44.465.75 0 1.275-.18 1.545-.57.21-.285.315-.72.315-1.32m4.141-4.59v7.065c0 .09-.045.12-.135.12h-.72c-.09 0-.12-.03-.12-.12v-7.065c0-.105.06-.165.18-.165h.615c.12 0 .18.06.18.165m.21-2.145v.09c0 .48-.225.72-.66.72h-.06c-.465 0-.69-.24-.69-.72v-.09c0-.465.225-.705.69-.705h.06c.435 0 .66.24.66.705m5.183 9.33h-.705c-.78 0-1.35-.195-1.68-.6-.33-.39-.495-.96-.495-1.725v-4.17h-.915c-.105 0-.15-.045-.15-.165v-.3c0-.12.045-.18.15-.195l.915-.195v-1.695q0-.18.18-.18h.63c.105 0 .165.06.165.18v1.695h1.755c.09 0 .15.06.15.15v.555c0 .105-.06.15-.15.15h-1.755v4.05c0 .6.09 1.02.27 1.23.18.255.555.375 1.095.375h.54c.12 0 .18.06.18.165v.51c0 .12-.06.165-.18.165m1.941-1.395h.15c.42 0 .645.195.645.585v.36c0 .39-.225.585-.645.585h-.15c-.435 0-.645-.195-.645-.585v-.36c0-.39.21-.585.645-.585m8.306 1.53c-.93 0-1.755-.135-2.49-.435-.135-.045-.18-.135-.15-.255l.12-.495c.03-.15.135-.18.315-.12.69.315 1.425.465 2.175.465.69 0 1.215-.15 1.575-.465s.54-.765.54-1.365V47.3c0-.54-.12-.93-.33-1.17s-.63-.45-1.26-.6l-1.005-.24c-.735-.18-1.275-.45-1.62-.84-.345-.375-.51-.9-.51-1.59v-.225c0-.795.255-1.41.765-1.83s1.215-.645 2.115-.645c.81 0 1.515.105 2.145.285.165.06.225.165.195.33l-.105.36q-.067.225-.36.135a6.5 6.5 0 0 0-1.845-.27c-1.245 0-1.86.555-1.86 1.65v.15c0 .51.12.87.36 1.095s.645.405 1.215.525l.945.225c.81.195 1.38.48 1.71.84q.495.563.495 1.665v.24c0 .915-.27 1.605-.81 2.055-.54.465-1.305.69-2.325.69m9.193-.825v.54c0 .105-.06.15-.15.15h-4.68c-.105 0-.15-.045-.15-.15v-.255c0-.15.09-.36.27-.66l3.3-5.445h-3.315c-.105 0-.15-.045-.15-.15v-.54c0-.09.045-.15.15-.15h4.44c.09 0 .15.06.15.15v.21c0 .18-.135.48-.39.9l-3.225 5.25h3.6c.09 0 .15.06.15.15m5.918-.195.105.345q.045.157 0 .225c-.03.045-.105.09-.255.15-.495.21-1.065.3-1.71.3-.93 0-1.62-.21-2.07-.645-.585-.525-.87-1.515-.87-2.97v-.495c0-1.32.3-2.265.915-2.835q.72-.675 2.025-.675c.39 0 .795.075 1.185.195.39.135.72.285.96.465.075.06.075.15.015.24l-.255.42c-.06.09-.135.105-.255.03-.57-.33-1.11-.51-1.65-.51-.585 0-1.035.165-1.35.465-.405.405-.6 1.185-.6 2.34v.255c0 1.14.15 1.92.48 2.31.3.39.795.57 1.515.57.48 0 .96-.09 1.455-.285.195-.075.315-.045.36.105m6.181.195v.54c0 .105-.06.15-.15.15h-4.68c-.105 0-.15-.045-.15-.15v-.255c0-.15.09-.36.27-.66l3.3-5.445h-3.315c-.105 0-.15-.045-.15-.15v-.54c0-.09.045-.15.15-.15h4.44c.09 0 .15.06.15.15v.21c0 .18-.135.48-.39.9l-3.225 5.25h3.6c.09 0 .15.06.15.15m6.533-4.23v1.23c0 .21-.045.36-.12.45-.09.09-.225.12-.435.12h-3.87c.03.9.18 1.53.48 1.89.285.36.78.525 1.485.525.585 0 1.14-.09 1.65-.3.195-.075.315-.045.36.105l.105.345c.03.09.015.165-.015.225q-.045.09-.315.18c-.51.195-1.11.285-1.785.285-1.095 0-1.86-.27-2.295-.825-.45-.54-.66-1.44-.66-2.685v-.6c0-1.2.21-2.085.645-2.655.42-.57 1.155-.855 2.175-.855.855 0 1.5.21 1.935.615.435.435.66 1.08.66 1.95m-2.58-1.725c-.66 0-1.14.195-1.41.57-.285.39-.435 1.08-.435 2.1h3.225c.075 0 .135 0 .165-.03s.045-.09.045-.195v-.57c0-.645-.12-1.11-.345-1.395-.27-.315-.675-.48-1.245-.48m8.867 4.545c-.135.12-.27.225-.39.3.855.555 1.29 1.26 1.29 2.1v.165c0 .81-.27 1.395-.81 1.77-.54.39-1.29.57-2.22.57-.96 0-1.875-.195-2.715-.615-.105-.045-.15-.12-.12-.24l.165-.45q.045-.18.27-.09c.765.375 1.53.555 2.295.555.72 0 1.26-.105 1.59-.33q.495-.337.495-1.215v-.12c0-.78-.375-1.38-1.11-1.77-.24.06-.525.075-.885.075-.855 0-1.515-.18-1.995-.555-.525-.45-.78-1.17-.78-2.19v-.615c0-1.035.255-1.77.78-2.205.42-.345 1.095-.525 1.995-.525.21 0 .375.015.48.015.24-.72.81-1.095 1.68-1.095h.36c.135 0 .21.075.21.21v.585c0 .015-.015.03-.015.045-.015.015-.03.03-.06.03-.03.015-.075.015-.105.015h-.45c-.39 0-.63.135-.75.375.27.105.495.225.66.345.51.435.78 1.17.78 2.205v.615c0 .885-.225 1.56-.645 2.04m-3.9-2.55v.39c0 .48.045.885.165 1.185.21.615.75.915 1.59.915.855 0 1.395-.3 1.62-.915.09-.285.15-.69.15-1.2v-.375c0-.51-.06-.9-.15-1.17-.12-.33-.315-.555-.57-.69s-.6-.21-1.05-.21c-.435 0-.78.075-1.035.21s-.435.36-.555.69c-.12.3-.165.69-.165 1.17m7.104.825v.285c0 .75.045 1.29.15 1.65.225.795.81 1.185 1.74 1.185s1.515-.39 1.755-1.185c.09-.36.15-.9.15-1.65v-.285c0-.735-.06-1.29-.15-1.65q-.338-1.17-1.755-1.17c-.945 0-1.53.39-1.74 1.17-.105.36-.15.915-.15 1.65m4.785-.15v.6c0 1.35-.27 2.295-.78 2.805-.48.48-1.185.705-2.115.705s-1.62-.225-2.1-.705c-.525-.51-.78-1.455-.78-2.805v-.6c0-1.35.255-2.295.78-2.82.465-.45 1.17-.69 2.1-.69s1.635.24 2.115.69c.51.525.78 1.47.78 2.82m-4.335-5.385 2.55-1.245c.195-.09.33-.045.405.105l.255.525c.06.15-.015.27-.195.36l-2.565.975c-.195.075-.315.045-.375-.09l-.15-.33c-.06-.135-.045-.24.075-.3m7.06-.63v3.87l1.485-.975c.165-.09.255-.045.255.165v.525c0 .18-.075.33-.225.42l-1.515 1.005v3.015q0 .788.135.945c.075.12.255.165.54.165h.405c.12 0 .18.06.18.165v.51c0 .12-.06.18-.15.18h-.57c-.54 0-.93-.105-1.155-.345-.24-.24-.36-.705-.36-1.38v-2.61l-1.035.675c-.18.105-.255.045-.255-.165v-.525c0-.18.075-.315.225-.42l1.065-.705V40.01c0-.105.06-.165.18-.165h.615c.12 0 .18.06.18.165m3.704 12.285c.405-.795.765-1.59 1.095-2.4-.45 0-.795-.315-1.005-.945-.33-.87-.6-1.74-.84-2.58a66 66 0 0 1-.915-3.525c-.03-.12.015-.195.165-.195h.675c.09 0 .135.045.165.135.21 1.065.48 2.175.795 3.33.165.66.42 1.47.75 2.43.06.18.12.315.195.375.06.075.165.105.285.105h.06c.57-1.56 1.11-3.645 1.635-6.255.015-.075.075-.12.165-.12h.69c.06 0 .09.015.12.045s.03.06.03.09c-.465 2.175-.945 3.975-1.425 5.415a47 47 0 0 1-1.755 4.47c-.06.135-.165.165-.315.105l-.495-.18c-.135-.045-.165-.15-.075-.3m10.171-9.48v7.065c0 .09-.045.12-.135.12h-.72c-.09 0-.12-.03-.12-.12v-7.065c0-.105.06-.165.18-.165h.615c.12 0 .18.06.18.165m.21-2.145v.09c0 .48-.225.72-.66.72h-.06c-.465 0-.69-.24-.69-.72v-.09c0-.465.225-.705.69-.705h.06c.435 0 .66.24.66.705M231.75 50h-.48c-.165 0-.24-.06-.24-.195v-6.99c0-.105.06-.165.18-.165h.435c.09 0 .15.06.18.165l.06.78h.03c.33-.63.915-.945 1.74-.945h.39c.12 0 .195.06.195.18v.51c0 .12-.075.165-.195.165h-.405c-.66 0-1.125.21-1.365.615-.18.3-.27.69-.27 1.185v4.5c0 .135-.09.195-.255.195m8.876-4.92v1.23c0 .21-.045.36-.12.45-.09.09-.225.12-.435.12h-3.87c.03.9.18 1.53.48 1.89.285.36.78.525 1.485.525.585 0 1.14-.09 1.65-.3.195-.075.315-.045.36.105l.105.345c.03.09.015.165-.015.225q-.045.09-.315.18c-.51.195-1.11.285-1.785.285-1.095 0-1.86-.27-2.295-.825-.45-.54-.66-1.44-.66-2.685v-.6c0-1.2.21-2.085.645-2.655.42-.57 1.155-.855 2.175-.855.855 0 1.5.21 1.935.615.435.435.66 1.08.66 1.95m-2.58-1.725c-.66 0-1.14.195-1.41.57-.285.39-.435 1.08-.435 2.1h3.225c.075 0 .135 0 .165-.03s.045-.09.045-.195v-.57c0-.645-.12-1.11-.345-1.395-.27-.315-.675-.48-1.245-.48m8.867 4.545c-.135.12-.27.225-.39.3.855.555 1.29 1.26 1.29 2.1v.165c0 .81-.27 1.395-.81 1.77-.54.39-1.29.57-2.22.57-.96 0-1.875-.195-2.715-.615-.105-.045-.15-.12-.12-.24l.165-.45q.045-.18.27-.09c.765.375 1.53.555 2.295.555.72 0 1.26-.105 1.59-.33q.495-.337.495-1.215v-.12c0-.78-.375-1.38-1.11-1.77-.24.06-.525.075-.885.075-.855 0-1.515-.18-1.995-.555-.525-.45-.78-1.17-.78-2.19v-.615c0-1.035.255-1.77.78-2.205.42-.345 1.095-.525 1.995-.525.21 0 .375.015.48.015.24-.72.81-1.095 1.68-1.095h.36c.135 0 .21.075.21.21v.585c0 .015-.015.03-.015.045-.015.015-.03.03-.06.03-.03.015-.075.015-.105.015h-.45c-.39 0-.63.135-.75.375.27.105.495.225.66.345.51.435.78 1.17.78 2.205v.615c0 .885-.225 1.56-.645 2.04m-3.9-2.55v.39c0 .48.045.885.165 1.185.21.615.75.915 1.59.915.855 0 1.395-.3 1.62-.915.09-.285.15-.69.15-1.2v-.375c0-.51-.06-.9-.15-1.17-.12-.33-.315-.555-.57-.69s-.6-.21-1.05-.21c-.435 0-.78.075-1.035.21s-.435.36-.555.69c-.12.3-.165.69-.165 1.17m11.019-2.7h.63c.105 0 .165.075.165.195v5.04c0 .765-.225 1.335-.66 1.71-.42.36-1.11.54-2.04.54s-1.62-.18-2.04-.54q-.675-.562-.675-1.71V42.89c0-.15.06-.24.21-.24h.555c.135 0 .21.075.21.21v4.905c0 .555.12.945.39 1.17q.405.36 1.35.36c.63 0 1.08-.135 1.38-.42.225-.21.345-.585.345-1.11v-4.92c0-.12.06-.195.18-.195m3.814-2.64v8.025q0 .788.135.945c.075.12.255.165.54.165h.405c.12 0 .18.06.18.165v.51c0 .12-.06.18-.15.18h-.57c-.54 0-.93-.105-1.155-.345-.24-.24-.36-.705-.36-1.38V40.01c0-.105.06-.165.18-.165h.615c.12 0 .18.06.18.165m6.869 9.84-.03-.51h-.03c-.33.54-.87.795-1.59.795h-.75c-.72 0-1.245-.18-1.605-.54s-.54-.825-.54-1.41v-.45q0-1.418 1.17-1.89c.33-.135.93-.21 1.8-.21h.45c.36 0 .705.015 1.005.045v-.855c0-.54-.15-.93-.435-1.14-.3-.21-.75-.33-1.38-.33-.525 0-1.035.075-1.545.225-.24.06-.36.03-.39-.12l-.075-.315c-.06-.18 0-.285.165-.345.63-.18 1.26-.285 1.92-.285.96 0 1.65.18 2.07.525s.645.9.645 1.68v5.13c0 .105-.06.15-.165.15h-.495c-.135 0-.195-.045-.195-.15m-.12-2.1v-1.245q-.36-.045-.9-.045h-.84c-.63 0-1.065.105-1.32.3s-.375.525-.375.99v.315c0 .45.105.78.315.975.18.18.495.27.915.27h.615c.495 0 .885-.12 1.17-.39.27-.27.42-.66.42-1.17m2.968 2.025v-6.96c0-.105.045-.165.165-.165h.435c.105 0 .165.06.18.165l.075.6h.03c.12-.21.33-.39.615-.57.375-.21.84-.33 1.395-.33 1.05 0 1.8.345 2.235 1.035h.03c.525-.69 1.305-1.035 2.325-1.035.9 0 1.56.24 1.98.705.39.465.6 1.215.6 2.235v4.32c0 .15-.09.225-.24.225h-.51q-.225 0-.225-.225v-4.38c0-.69-.135-1.185-.375-1.515-.3-.345-.75-.525-1.38-.525q-1.215 0-1.89.9c.06.39.09.795.09 1.2v4.32q0 .225-.225.225h-.51c-.165 0-.24-.075-.24-.225v-4.38q0-1.102-.45-1.575c-.3-.3-.78-.465-1.41-.465-.69 0-1.185.21-1.455.63q-.27.405-.27 1.17v4.62q0 .225-.225.225h-.525q-.225 0-.225-.225m13.226-6.96v7.065c0 .09-.045.12-.135.12h-.72c-.09 0-.12-.03-.12-.12v-7.065c0-.105.06-.165.18-.165h.615c.12 0 .18.06.18.165m.21-2.145v.09c0 .48-.225.72-.66.72h-.06c-.465 0-.69-.24-.69-.72v-.09c0-.465.225-.705.69-.705h.06c.435 0 .66.24.66.705m7.643 9.075c0 .18-.105.255-.285.255h-.42q-.18 0-.225-.045c-.03-.03-.045-.09-.045-.21v-4.38c0-.885-.24-1.47-.69-1.755-.3-.18-.705-.285-1.215-.285-.705 0-1.2.21-1.47.63q-.27.405-.27 1.17v4.65q0 .225-.27.225h-.465c-.165 0-.24-.075-.24-.225v-6.96c0-.105.045-.165.15-.165h.45c.105 0 .165.06.18.165l.075.6h.03c.12-.21.33-.39.615-.57.375-.21.84-.33 1.41-.33 1.155 0 1.935.345 2.325 1.005q.36.63.36 1.935zm2.623-6.855h.15c.42 0 .645.195.645.585v.36c0 .39-.225.585-.645.585h-.15c-.435 0-.645-.195-.645-.585v-.36c0-.39.21-.585.645-.585m0 5.715h.15c.42 0 .645.195.645.585v.36c0 .39-.225.585-.645.585h-.15c-.435 0-.645-.195-.645-.585v-.36c0-.39.21-.585.645-.585m10.931-5.955h.63c.105 0 .165.075.165.195v5.04c0 .765-.225 1.335-.66 1.71-.42.36-1.11.54-2.04.54s-1.62-.18-2.04-.54q-.675-.562-.675-1.71V42.89c0-.15.06-.24.21-.24h.555c.135 0 .21.075.21.21v4.905c0 .555.12.945.39 1.17q.405.36 1.35.36c.63 0 1.08-.135 1.38-.42.225-.21.345-.585.345-1.11v-4.92c0-.12.06-.195.18-.195m8.389 7.095c0 .18-.105.255-.285.255h-.42q-.18 0-.225-.045c-.03-.03-.045-.09-.045-.21v-4.38c0-.885-.24-1.47-.69-1.755-.3-.18-.705-.285-1.215-.285-.705 0-1.2.21-1.47.63q-.27.405-.27 1.17v4.65q0 .225-.27.225h-.465c-.165 0-.24-.075-.24-.225v-6.96c0-.105.045-.165.15-.165h.45c.105 0 .165.06.18.165l.075.6h.03c.12-.21.33-.39.615-.57.375-.21.84-.33 1.41-.33 1.155 0 1.935.345 2.325 1.005q.36.63.36 1.935zm3.163-6.93v7.065c0 .09-.045.12-.135.12h-.72c-.09 0-.12-.03-.12-.12v-7.065c0-.105.06-.165.18-.165h.615c.12 0 .18.06.18.165m.21-2.145v.09c0 .48-.225.72-.66.72h-.06c-.465 0-.69-.24-.69-.72v-.09c0-.465.225-.705.69-.705h.06c.435 0 .66.24.66.705m6.488 8.445.105.345q.045.157 0 .225c-.03.045-.105.09-.255.15-.495.21-1.065.3-1.71.3-.93 0-1.62-.21-2.07-.645-.585-.525-.87-1.515-.87-2.97v-.495c0-1.32.3-2.265.915-2.835q.72-.675 2.025-.675c.39 0 .795.075 1.185.195.39.135.72.285.96.465.075.06.075.15.015.24l-.255.42c-.06.09-.135.105-.255.03-.57-.33-1.11-.51-1.65-.51-.585 0-1.035.165-1.35.465-.405.405-.6 1.185-.6 2.34v.255c0 1.14.15 1.92.48 2.31.3.39.795.57 1.515.57.48 0 .96-.09 1.455-.285.195-.075.315-.045.36.105m2.461.885h-.48c-.165 0-.24-.06-.24-.195v-6.99c0-.105.06-.165.18-.165h.435c.09 0 .15.06.18.165l.06.78h.03c.33-.63.915-.945 1.74-.945h.39c.12 0 .195.06.195.18v.51c0 .12-.075.165-.195.165h-.405c-.66 0-1.125.21-1.365.615-.18.3-.27.69-.27 1.185v4.5c0 .135-.09.195-.255.195m8.876-4.92v1.23c0 .21-.045.36-.12.45-.09.09-.225.12-.435.12h-3.87c.03.9.18 1.53.48 1.89.285.36.78.525 1.485.525.585 0 1.14-.09 1.65-.3.195-.075.315-.045.36.105l.105.345c.03.09.015.165-.015.225q-.045.09-.315.18c-.51.195-1.11.285-1.785.285-1.095 0-1.86-.27-2.295-.825-.45-.54-.66-1.44-.66-2.685v-.6c0-1.2.21-2.085.645-2.655.42-.57 1.155-.855 2.175-.855.855 0 1.5.21 1.935.615.435.435.66 1.08.66 1.95m-2.58-1.725c-.66 0-1.14.195-1.41.57-.285.39-.435 1.08-.435 2.1h3.225c.075 0 .135 0 .165-.03s.045-.09.045-.195v-.57c0-.645-.12-1.11-.345-1.395-.27-.315-.675-.48-1.245-.48m9.782-3.345v7.53c0 .78-.195 1.38-.555 1.815-.45.525-1.2.78-2.265.78-1.08 0-1.845-.24-2.295-.735-.465-.48-.69-1.38-.69-2.7v-.705c0-1.185.225-2.055.705-2.625q.697-.855 2.205-.855 1.305 0 1.89.72h.03V40.01c0-.105.06-.165.18-.165h.615c.12 0 .18.06.18.165m-.975 7.395V45.35c0-.63-.165-1.11-.465-1.47-.3-.345-.75-.525-1.35-.525-.675 0-1.17.18-1.47.51-.375.42-.555 1.155-.555 2.205v.51q0 1.665.54 2.25c.27.315.75.465 1.44.465.75 0 1.275-.18 1.545-.57.21-.285.315-.72.315-1.32m4.141-4.59v7.065c0 .09-.045.12-.135.12h-.72c-.09 0-.12-.03-.12-.12v-7.065c0-.105.06-.165.18-.165h.615c.12 0 .18.06.18.165m.21-2.145v.09c0 .48-.225.72-.66.72h-.06c-.465 0-.69-.24-.69-.72v-.09c0-.465.225-.705.69-.705h.06c.435 0 .66.24.66.705m5.183 9.33h-.705c-.78 0-1.35-.195-1.68-.6-.33-.39-.495-.96-.495-1.725v-4.17h-.915c-.105 0-.15-.045-.15-.165v-.3c0-.12.045-.18.15-.195l.915-.195v-1.695q0-.18.18-.18h.63c.105 0 .165.06.165.18v1.695h1.755c.09 0 .15.06.15.15v.555c0 .105-.06.15-.15.15h-1.755v4.05c0 .6.09 1.02.27 1.23.18.255.555.375 1.095.375h.54c.12 0 .18.06.18.165v.51c0 .12-.06.165-.18.165m1.941-1.395h.15c.42 0 .645.195.645.585v.36c0 .39-.225.585-.645.585h-.15c-.435 0-.645-.195-.645-.585v-.36c0-.39.21-.585.645-.585m5.571 1.53c-.96 0-1.65-.255-2.055-.795h-.03v3.15c0 .12-.06.165-.15.165h-.675c-.105 0-.15-.045-.15-.165v-9.675c0-.105.045-.165.15-.165h.45c.105 0 .165.06.18.165l.09.6h.03c.42-.6 1.155-.9 2.175-.9.975 0 1.68.27 2.1.81s.645 1.38.645 2.55v.78q0 1.733-.63 2.61c-.42.585-1.125.87-2.13.87m-.12-6.78c-1.32 0-1.965.63-1.965 1.89v2.115c0 .645.165 1.125.525 1.455.345.33.84.48 1.47.48.66 0 1.155-.18 1.455-.555q.405-.495.405-2.16v-.57c0-1.05-.165-1.77-.465-2.145-.3-.33-.765-.51-1.425-.51m5.61-3.345v8.025q0 .788.135.945c.075.12.255.165.54.165h.405c.12 0 .18.06.18.165v.51c0 .12-.06.18-.15.18h-.57c-.54 0-.93-.105-1.155-.345-.24-.24-.36-.705-.36-1.38V40.01c0-.105.06-.165.18-.165h.615c.12 0 .18.06.18.165m3.09 8.595h.15c.42 0 .645.195.645.585v.36c0 .39-.225.585-.645.585h-.15c-.435 0-.645-.195-.645-.585v-.36c0-.39.21-.585.645-.585M372.587 50h-.615c-.15 0-.21-.075-.21-.225v-8.64h-2.55q-.225 0-.225-.225v-.42c0-.12.075-.195.225-.195h6.135q.225 0 .225.225v.39q0 .225-.225.225h-2.55v8.64c0 .15-.075.225-.21.225m3.858-3.825v.285c0 .75.045 1.29.15 1.65.225.795.81 1.185 1.74 1.185s1.515-.39 1.755-1.185c.09-.36.15-.9.15-1.65v-.285c0-.735-.06-1.29-.15-1.65q-.338-1.17-1.755-1.17c-.945 0-1.53.39-1.74 1.17-.105.36-.15.915-.15 1.65m4.785-.15v.6c0 1.35-.27 2.295-.78 2.805-.48.48-1.185.705-2.115.705s-1.62-.225-2.1-.705c-.525-.51-.78-1.455-.78-2.805v-.6c0-1.35.255-2.295.78-2.82.465-.45 1.17-.69 2.1-.69s1.635.24 2.115.69c.51.525.78 1.47.78 2.82m10.83 3.72c0 .18-.105.255-.285.255h-.42q-.18 0-.225-.045c-.03-.03-.045-.09-.045-.21v-4.38c0-.885-.24-1.47-.69-1.755-.3-.18-.705-.285-1.215-.285-.705 0-1.2.21-1.47.63q-.27.405-.27 1.17v4.65q0 .225-.27.225h-.465c-.165 0-.24-.075-.24-.225v-6.96c0-.105.045-.165.15-.165h.45c.105 0 .165.06.18.165l.075.6h.03c.12-.21.33-.39.615-.57.375-.21.84-.33 1.41-.33 1.155 0 1.935.345 2.325 1.005q.36.63.36 1.935zm3.163-6.93v7.065c0 .09-.045.12-.135.12h-.72c-.09 0-.12-.03-.12-.12v-7.065c0-.105.06-.165.18-.165h.615c.12 0 .18.06.18.165m.21-2.145v.09c0 .48-.225.72-.66.72h-.06c-.465 0-.69-.24-.69-.72v-.09c0-.465.225-.705.69-.705h.06c.435 0 .66.24.66.705m7.102 4.41v1.23c0 .21-.045.36-.12.45-.09.09-.225.12-.435.12h-3.87c.03.9.18 1.53.48 1.89.285.36.78.525 1.485.525.585 0 1.14-.09 1.65-.3.195-.075.315-.045.36.105l.105.345c.03.09.015.165-.015.225q-.045.09-.315.18c-.51.195-1.11.285-1.785.285-1.095 0-1.86-.27-2.295-.825-.45-.54-.66-1.44-.66-2.685v-.6c0-1.2.21-2.085.645-2.655.42-.57 1.155-.855 2.175-.855.855 0 1.5.21 1.935.615.435.435.66 1.08.66 1.95m-2.58-1.725c-.66 0-1.14.195-1.41.57-.285.39-.435 1.08-.435 2.1h3.225c.075 0 .135 0 .165-.03s.045-.09.045-.195v-.57c0-.645-.12-1.11-.345-1.395-.27-.315-.675-.48-1.245-.48m9.052-.54v7.095c0 .735-.135 1.32-.375 1.74-.39.69-1.065 1.02-2.025 1.02h-.54c-.12 0-.165-.06-.165-.18v-.495c0-.12.045-.18.165-.18h.51c.6 0 1.02-.225 1.23-.69.15-.33.225-.75.225-1.29v-7.02c0-.105.06-.165.18-.165h.615c.12 0 .18.06.18.165m.21-2.145v.09c0 .48-.225.72-.66.72h-.06c-.465 0-.69-.24-.69-.72v-.09c0-.465.225-.705.69-.705h.06c.435 0 .66.24.66.705m7.117 4.41v1.23c0 .21-.045.36-.12.45-.09.09-.225.12-.435.12h-3.87c.03.9.18 1.53.48 1.89.285.36.78.525 1.485.525.585 0 1.14-.09 1.65-.3.195-.075.315-.045.36.105l.105.345c.03.09.015.165-.015.225q-.045.09-.315.18c-.51.195-1.11.285-1.785.285-1.095 0-1.86-.27-2.295-.825-.45-.54-.66-1.44-.66-2.685v-.6c0-1.2.21-2.085.645-2.655.42-.57 1.155-.855 2.175-.855.855 0 1.5.21 1.935.615.435.435.66 1.08.66 1.95m-2.58-1.725c-.66 0-1.14.195-1.41.57-.285.39-.435 1.08-.435 2.1h3.225c.075 0 .135 0 .165-.03s.045-.09.045-.195v-.57c0-.645-.12-1.11-.345-1.395-.27-.315-.675-.48-1.245-.48m6.167 6.78c-.795 0-1.47-.12-2.04-.36-.15-.06-.21-.135-.18-.255l.12-.435c.03-.15.135-.21.285-.15a5 5 0 0 0 1.815.36c.6 0 1.02-.09 1.275-.3.24-.195.375-.51.375-.96v-.09c0-.495-.135-.825-.405-1.005-.165-.09-.51-.195-1.05-.315l-.42-.075c-.51-.09-.9-.21-1.17-.375-.51-.285-.765-.81-.765-1.56v-.15c0-1.29.795-1.95 2.4-1.95.615 0 1.17.075 1.68.21q.27.09.225.27l-.09.39c-.06.18-.165.255-.345.195a5.6 5.6 0 0 0-1.485-.225c-.57 0-.975.105-1.185.3-.21.18-.3.45-.3.78v.105c0 .33.075.585.24.735q.27.292 1.17.45l.39.075c.84.18 1.38.42 1.635.72.24.33.375.78.375 1.32v.15c0 .6-.15 1.065-.42 1.395-.405.51-1.11.75-2.13.75m7.325-.135h-.705c-.78 0-1.35-.195-1.68-.6-.33-.39-.495-.96-.495-1.725v-4.17h-.915c-.105 0-.15-.045-.15-.165v-.3c0-.12.045-.18.15-.195l.915-.195v-1.695q0-.18.18-.18h.63c.105 0 .165.06.165.18v1.695h1.755c.09 0 .15.06.15.15v.555c0 .105-.06.15-.15.15h-1.755v4.05c0 .6.09 1.02.27 1.23.18.255.555.375 1.095.375h.54c.12 0 .18.06.18.165v.51c0 .12-.06.165-.18.165m5.772-3.825v.285c0 .75.045 1.29.15 1.65.225.795.81 1.185 1.74 1.185s1.515-.39 1.755-1.185c.09-.36.15-.9.15-1.65v-.285c0-.735-.06-1.29-.15-1.65q-.338-1.17-1.755-1.17c-.945 0-1.53.39-1.74 1.17-.105.36-.15.915-.15 1.65m4.785-.15v.6c0 1.35-.27 2.295-.78 2.805-.48.48-1.185.705-2.115.705s-1.62-.225-2.1-.705c-.525-.51-.78-1.455-.78-2.805v-.6c0-1.35.255-2.295.78-2.82.465-.45 1.17-.69 2.1-.69s1.635.24 2.115.69c.51.525.78 1.47.78 2.82M440.647 50h-.63q-.18 0-.18-.18v-6.315h-.915c-.105 0-.15-.045-.15-.165v-.3c0-.12.045-.18.15-.195l.915-.195v-.465c0-.66.105-1.155.315-1.515.375-.63 1.05-.96 2.01-.96.48 0 .87.045 1.2.135q.18.067.18.225l-.075.42c-.03.135-.12.18-.255.15a5 5 0 0 0-.9-.09c-.48 0-.825.105-1.05.285-.3.24-.45.69-.45 1.365v.45h1.605c.09 0 .15.06.15.15v.555c0 .105-.06.15-.15.15h-1.605v6.315c0 .12-.06.18-.165.18m8.265-4.92v1.23c0 .21-.045.36-.12.45-.09.09-.225.12-.435.12h-3.87c.03.9.18 1.53.48 1.89.285.36.78.525 1.485.525.585 0 1.14-.09 1.65-.3.195-.075.315-.045.36.105l.105.345c.03.09.015.165-.015.225q-.045.09-.315.18c-.51.195-1.11.285-1.785.285-1.095 0-1.86-.27-2.295-.825-.45-.54-.66-1.44-.66-2.685v-.6c0-1.2.21-2.085.645-2.655.42-.57 1.155-.855 2.175-.855.855 0 1.5.21 1.935.615.435.435.66 1.08.66 1.95m-2.58-1.725c-.66 0-1.14.195-1.41.57-.285.39-.435 1.08-.435 2.1h3.225c.075 0 .135 0 .165-.03s.045-.09.045-.195v-.57c0-.645-.12-1.11-.345-1.395-.27-.315-.675-.48-1.245-.48M451.389 50h-.48c-.165 0-.24-.06-.24-.195v-6.99c0-.105.06-.165.18-.165h.435c.09 0 .15.06.18.165l.06.78h.03c.33-.63.915-.945 1.74-.945h.39c.12 0 .195.06.195.18v.51c0 .12-.075.165-.195.165h-.405c-.66 0-1.125.21-1.365.615-.18.3-.27.69-.27 1.185v4.5c0 .135-.09.195-.255.195m7.176 0h-.705c-.78 0-1.35-.195-1.68-.6-.33-.39-.495-.96-.495-1.725v-4.17h-.915c-.105 0-.15-.045-.15-.165v-.3c0-.12.045-.18.15-.195l.915-.195v-1.695q0-.18.18-.18h.63c.105 0 .165.06.165.18v1.695h1.755c.09 0 .15.06.15.15v.555c0 .105-.06.15-.15.15h-1.755v4.05c0 .6.09 1.02.27 1.23.18.255.555.375 1.095.375h.54c.12 0 .18.06.18.165v.51c0 .12-.06.165-.18.165m5.721-.15-.03-.51h-.03c-.33.54-.87.795-1.59.795h-.75c-.72 0-1.245-.18-1.605-.54s-.54-.825-.54-1.41v-.45q0-1.418 1.17-1.89c.33-.135.93-.21 1.8-.21h.45c.36 0 .705.015 1.005.045v-.855c0-.54-.15-.93-.435-1.14-.3-.21-.75-.33-1.38-.33-.525 0-1.035.075-1.545.225-.24.06-.36.03-.39-.12l-.075-.315c-.06-.18 0-.285.165-.345.63-.18 1.26-.285 1.92-.285.96 0 1.65.18 2.07.525s.645.9.645 1.68v5.13c0 .105-.06.15-.165.15h-.495c-.135 0-.195-.045-.195-.15m-.12-2.1v-1.245q-.36-.045-.9-.045h-.84c-.63 0-1.065.105-1.32.3s-.375.525-.375.99v.315c0 .45.105.78.315.975.18.18.495.27.915.27h.615c.495 0 .885-.12 1.17-.39.27-.27.42-.66.42-1.17m3.298.855h.15c.42 0 .645.195.645.585v.36c0 .39-.225.585-.645.585h-.15c-.435 0-.645-.195-.645-.585v-.36c0-.39.21-.585.645-.585"/></svg>