<svg xmlns="http://www.w3.org/2000/svg" fill="none" viewBox="0 0 504 41"><path fill="#fff" d="M10.894 24.07v-.962c0-2.106-.26-3.406-.728-3.9q-.624-.624-1.716-.624h-.364q-1.092 0-1.716.624c-.494.494-.728 1.794-.728 3.9v.962c0 2.132.234 3.432.728 3.9q.624.624 1.716.624h.364q1.092 0 1.716-.624c.468-.468.728-1.768.728-3.9m4.446-1.482v2.002c0 3.146-.728 5.278-2.184 6.422-1.04.832-2.652 1.222-4.784 1.222h-.208c-2.158 0-3.744-.39-4.784-1.222-1.456-1.144-2.184-3.276-2.184-6.422v-2.002c0-3.12.728-5.278 2.184-6.422 1.04-.806 2.626-1.222 4.784-1.222h.208c2.132 0 3.744.416 4.784 1.222 1.456 1.144 2.184 3.302 2.184 6.422m10.856 6.968v1.482c0 .39-.078.65-.182.78s-.338.182-.65.182h-2.08c-1.872 0-3.12-.312-3.692-.962-.52-.546-.754-1.586-.754-3.146V22.51h-1.404c-.26 0-.416-.026-.52-.13s-.13-.26-.13-.52v-1.326c0-.312.026-.52.13-.624.078-.104.26-.182.546-.26l1.378-.338v-2.548c0-.26.052-.442.182-.572.13-.104.364-.182.702-.182h2.392c.312 0 .546.078.676.182.13.13.208.312.208.572v2.496h2.158c.26 0 .416.052.52.156s.156.286.156.598v1.742q0 .468-.156.624c-.104.104-.26.13-.52.13h-2.158v4.914c0 .468.052.754.208.91.156.182.494.26 1.014.26h1.144c.312 0 .546.078.65.208s.182.39.182.754m8.624-9.672h2.236c.364 0 .624.052.754.156s.234.312.286.624c0 .104.468 2.418 1.378 6.916h.078c.468-2.73.884-5.252 1.222-7.592.026-.286.104-.468.208-.572q.156-.156.546-.156h2.652c.286 0 .468.078.572.182.078.13.104.338.052.598-.416 2.028-.936 4.264-1.508 6.708s-.988 3.978-1.248 4.628c-.104.26-.234.442-.364.52s-.338.104-.598.104h-2.86c-.546 0-.884-.182-.988-.598-.494-1.768-.91-4.004-1.274-6.708h-.104a71 71 0 0 1-1.3 6.708c-.104.416-.416.598-.936.598h-2.808c-.52 0-.858-.182-.988-.572-.26-.702-.702-2.314-1.326-4.81a121 121 0 0 1-1.456-6.578c-.078-.286-.052-.494.052-.598s.312-.182.624-.182h2.548c.26 0 .468.052.598.156.104.104.182.312.234.572.364 2.418.78 4.94 1.274 7.592h.104c.624-3.224 1.066-5.538 1.274-6.916.052-.338.13-.546.26-.65.13-.078.39-.13.806-.13m15.294 4.732v2.028c0 1.014.156 1.664.468 1.976.234.26.598.364 1.092.364h.104c.468 0 .832-.104 1.092-.364.312-.312.468-.962.468-1.976v-2.028c0-.988-.156-1.664-.468-1.976-.26-.234-.624-.364-1.092-.364h-.104c-.494 0-.858.13-1.092.364-.312.312-.468.988-.468 1.976m7.41.156v1.69c0 1.3-.13 2.288-.39 3.016a3.7 3.7 0 0 1-1.248 1.742c-.858.676-2.184 1.014-4.004 1.014h-.312c-1.82 0-3.172-.338-4.004-1.014a3.7 3.7 0 0 1-1.248-1.742c-.26-.728-.39-1.716-.39-3.016v-1.664c0-1.274.13-2.262.39-2.99s.676-1.3 1.248-1.768c.832-.676 2.184-1.014 4.004-1.014h.312c1.82 0 3.146.338 4.004 1.014.572.468.988 1.04 1.248 1.742.26.728.39 1.716.39 2.99m-7.93-8.944 4.082-3.484c.156-.156.338-.234.494-.234.182 0 .364.13.52.338l1.248 1.612c.104.156.156.286.156.442 0 .208-.156.416-.416.624l-4.108 2.808a.9.9 0 0 1-.52.182c-.208 0-.416-.104-.624-.364l-.78-.91c-.208-.234-.286-.442-.286-.598a.5.5 0 0 1 .234-.416m13.432 4.836h.078c.572-.936 1.534-1.404 2.912-1.404h1.04c.26 0 .468.052.572.156s.182.286.182.572v1.898c0 .286-.052.468-.156.572q-.156.156-.546.156h-.78c-.962 0-1.612.182-1.976.546-.312.312-.442.91-.442 1.794v6.292c0 .26-.078.468-.208.572-.13.13-.364.182-.676.182h-2.392c-.338 0-.572-.052-.702-.182-.13-.104-.182-.312-.182-.572V19.988c0-.26.052-.442.182-.546s.364-.182.702-.182h1.248c.286 0 .494.052.624.13q.195.156.312.468zm10.56 1.898H69.45c-.26 0-.441-.026-.545-.13s-.13-.312-.13-.624v-1.794c0-.312.026-.494.13-.598q.155-.156.545-.156h8.789c.26 0 .442.052.572.156.103.104.181.312.181.598v.494c0 .676-.207 1.3-.572 1.846l-4.472 6.344h4.447c.26 0 .415.052.52.156.103.104.156.286.156.598v1.794q0 .468-.157.624c-.104.104-.26.13-.52.13h-8.943c-.546 0-.806-.234-.806-.754v-.598c0-.676.181-1.274.572-1.846zm17.035 4.394v4.29c0 .26-.078.468-.208.572-.13.13-.364.182-.676.182h-2.392c-.338 0-.572-.052-.702-.182-.13-.104-.182-.312-.182-.572V15.152c0-.26.052-.442.182-.572.13-.104.364-.182.702-.182h2.392c.312 0 .546.078.676.182.13.13.208.312.208.572v8.476h.182l2.47-3.77c.234-.39.598-.598 1.092-.598h3.016c.286 0 .442.104.442.312 0 .104-.078.286-.208.494l-2.99 4.472c-.234.364-.338.624-.338.78 0 .182.104.442.338.78l3.198 5.044c.104.208.156.338.156.442 0 .286-.182.416-.546.416h-2.886c-.364 0-.65-.026-.806-.13q-.234-.117-.468-.546l-2.47-4.368zm12.254-2.34v2.028c0 1.014.156 1.664.468 1.976.234.26.598.364 1.092.364h.104c.468 0 .832-.104 1.092-.364.312-.312.468-.962.468-1.976v-2.028c0-.988-.156-1.664-.468-1.976-.26-.234-.624-.364-1.092-.364h-.104c-.494 0-.858.13-1.092.364-.312.312-.468.988-.468 1.976m7.41.156v1.69c0 1.3-.13 2.288-.39 3.016a3.7 3.7 0 0 1-1.248 1.742c-.858.676-2.184 1.014-4.004 1.014h-.312c-1.82 0-3.172-.338-4.004-1.014a3.7 3.7 0 0 1-1.248-1.742c-.26-.728-.39-1.716-.39-3.016v-1.664c0-1.274.13-2.262.39-2.99s.676-1.3 1.248-1.768c.832-.676 2.184-1.014 4.004-1.014h.312c1.82 0 3.146.338 4.004 1.014.572.468.988 1.04 1.248 1.742.26.728.39 1.716.39 2.99m9.091-5.746h.208c1.508 0 2.626.364 3.302 1.066.624.676.962 1.82.962 3.432v7.722c0 .26-.078.468-.208.572-.13.13-.364.182-.676.182h-2.392c-.338 0-.572-.052-.702-.182-.13-.104-.182-.312-.182-.572v-7.358c0-.572-.104-.988-.286-1.196-.208-.208-.598-.338-1.144-.338h-.156c-.572 0-.936.13-1.144.338s-.286.624-.286 1.196v7.358c0 .26-.078.468-.208.572-.13.13-.364.182-.676.182h-2.392c-.338 0-.572-.052-.702-.182-.13-.104-.182-.312-.182-.572V19.988c0-.26.052-.442.182-.546s.364-.182.702-.182h1.222c.312 0 .52.052.65.13q.195.117.312.468l.156.494h.078c.832-.884 2.002-1.326 3.562-1.326m15.086 10.53v1.482c0 .39-.078.65-.182.78s-.338.182-.65.182h-2.08c-1.872 0-3.12-.312-3.692-.962-.52-.546-.754-1.586-.754-3.146V22.51H125.7c-.26 0-.416-.026-.52-.13s-.13-.26-.13-.52v-1.326c0-.312.026-.52.13-.624.078-.104.26-.182.546-.26l1.378-.338v-2.548c0-.26.052-.442.182-.572.13-.104.364-.182.702-.182h2.392c.312 0 .546.078.676.182.13.13.208.312.208.572v2.496h2.158c.26 0 .416.052.52.156s.156.286.156.598v1.742q0 .468-.156.624c-.104.104-.26.13-.52.13h-2.158v4.914c0 .468.052.754.208.91.156.182.494.26 1.014.26h1.144c.312 0 .546.078.65.208s.182.39.182.754m5.738-4.94v2.028c0 1.014.156 1.664.468 1.976.234.26.598.364 1.092.364h.104c.468 0 .832-.104 1.092-.364.312-.312.468-.962.468-1.976v-2.028c0-.988-.156-1.664-.468-1.976-.26-.234-.624-.364-1.092-.364h-.104c-.494 0-.858.13-1.092.364-.312.312-.468.988-.468 1.976m7.41.156v1.69c0 1.3-.13 2.288-.39 3.016a3.7 3.7 0 0 1-1.248 1.742c-.858.676-2.184 1.014-4.004 1.014h-.312c-1.82 0-3.172-.338-4.004-1.014a3.7 3.7 0 0 1-1.248-1.742c-.26-.728-.39-1.716-.39-3.016v-1.664c0-1.274.13-2.262.39-2.99s.676-1.3 1.248-1.768c.832-.676 2.184-1.014 4.004-1.014h.312c1.82 0 3.146.338 4.004 1.014.572.468.988 1.04 1.248 1.742.26.728.39 1.716.39 2.99m12.022-.702v3.328c0 .598.104 1.014.364 1.248.208.234.598.338 1.17.338h.234c.598 0 1.014-.156 1.274-.52q.312-.468.312-2.262v-1.118c0-1.3-.13-2.106-.338-2.366-.234-.26-.676-.416-1.3-.416h-.104c-.598 0-1.014.13-1.274.39-.234.234-.338.702-.338 1.378m0-4.342h.052q1.131-.702 2.964-.702h.234c1.56 0 2.704.468 3.406 1.404.572.806.884 2.236.884 4.29v1.872c0 2.08-.442 3.536-1.326 4.342-.936.884-2.418 1.3-4.446 1.3h-.52c-2.132 0-3.588-.416-4.368-1.274-.702-.754-1.04-1.976-1.04-3.692V15.152c0-.26.052-.442.182-.572.104-.104.338-.182.676-.182h2.418c.312 0 .546.078.676.182.13.13.208.312.208.572zm17.294 11.206h-.052c-.572.884-1.716 1.3-3.406 1.3h-.39c-1.326 0-2.366-.338-3.094-1.014-.754-.676-1.118-1.69-1.118-2.99v-.286c0-1.404.39-2.418 1.196-2.99s2.106-.858 3.926-.858h.182c.676 0 1.3.052 1.82.104v-.546c0-.546-.156-.936-.442-1.144-.312-.182-.832-.286-1.56-.286-.884 0-1.872.156-3.016.442-.312.078-.546.078-.65 0-.13-.078-.208-.234-.234-.494l-.208-1.378c-.052-.234-.052-.416-.052-.52 0-.312.208-.546.624-.676 1.326-.364 2.808-.572 4.446-.572 2.002 0 3.432.442 4.264 1.274.65.676.988 1.768.988 3.25v7.722c0 .26-.078.468-.208.572s-.364.156-.676.156h-1.222c-.312 0-.52-.026-.65-.104s-.234-.234-.312-.494zm-.936-3.328v-.728q-.429-.078-1.248-.078h-.286q-.936 0-1.326.234c-.26.156-.364.468-.364.936v.104c0 .468.104.78.364.936.234.182.598.26 1.092.26h.182c.52 0 .91-.13 1.222-.39.234-.208.364-.65.364-1.274m13.489-8.58h.208c1.508 0 2.626.364 3.302 1.066.624.676.962 1.82.962 3.432v7.722c0 .26-.078.468-.208.572-.13.13-.364.182-.676.182h-2.392c-.338 0-.572-.052-.702-.182-.13-.104-.182-.312-.182-.572v-7.358c0-.572-.104-.988-.286-1.196-.208-.208-.598-.338-1.144-.338h-.156c-.572 0-.936.13-1.144.338s-.286.624-.286 1.196v7.358c0 .26-.078.468-.208.572-.13.13-.364.182-.676.182h-2.392c-.338 0-.572-.052-.702-.182-.13-.104-.182-.312-.182-.572V19.988c0-.26.052-.442.182-.546s.364-.182.702-.182h1.222c.312 0 .52.052.65.13q.195.117.312.468l.156.494h.078c.832-.884 2.002-1.326 3.562-1.326m11.109 7.93v4.29c0 .26-.078.468-.208.572-.13.13-.364.182-.676.182h-2.392c-.338 0-.572-.052-.702-.182-.13-.104-.182-.312-.182-.572V15.152c0-.26.052-.442.182-.572.13-.104.364-.182.702-.182h2.392c.312 0 .546.078.676.182.13.13.208.312.208.572v8.476h.182l2.47-3.77c.234-.39.598-.598 1.092-.598h3.016c.286 0 .442.104.442.312 0 .104-.078.286-.208.494l-2.99 4.472c-.234.364-.338.624-.338.78 0 .182.104.442.338.78l3.198 5.044c.104.208.156.338.156.442 0 .286-.182.416-.546.416h-2.886c-.364 0-.65-.026-.806-.13q-.234-.117-.468-.546l-2.47-4.368zm12.254-2.34v2.028c0 1.014.156 1.664.468 1.976.234.26.598.364 1.092.364h.104c.468 0 .832-.104 1.092-.364.312-.312.468-.962.468-1.976v-2.028c0-.988-.156-1.664-.468-1.976-.26-.234-.624-.364-1.092-.364h-.104c-.494 0-.858.13-1.092.364-.312.312-.468.988-.468 1.976m7.41.156v1.69c0 1.3-.13 2.288-.39 3.016a3.7 3.7 0 0 1-1.248 1.742c-.858.676-2.184 1.014-4.004 1.014h-.312c-1.82 0-3.172-.338-4.004-1.014a3.7 3.7 0 0 1-1.248-1.742c-.26-.728-.39-1.716-.39-3.016v-1.664c0-1.274.13-2.262.39-2.99s.676-1.3 1.248-1.768c.832-.676 2.184-1.014 4.004-1.014h.312c1.82 0 3.146.338 4.004 1.014.572.468.988 1.04 1.248 1.742.26.728.39 1.716.39 2.99m8.882-4.888h2.236c.364 0 .624.052.754.156s.234.312.286.624c0 .104.468 2.418 1.378 6.916h.078c.468-2.73.884-5.252 1.222-7.592.026-.286.104-.468.208-.572q.156-.156.546-.156h2.652c.286 0 .468.078.572.182.078.13.104.338.052.598-.416 2.028-.936 4.264-1.508 6.708s-.988 3.978-1.248 4.628c-.104.26-.234.442-.364.52s-.338.104-.598.104h-2.86c-.546 0-.884-.182-.988-.598-.494-1.768-.91-4.004-1.274-6.708h-.104a71 71 0 0 1-1.3 6.708c-.104.416-.416.598-.936.598h-2.808c-.52 0-.858-.182-.988-.572-.26-.702-.702-2.314-1.326-4.81a121 121 0 0 1-1.456-6.578c-.078-.286-.052-.494.052-.598s.312-.182.624-.182h2.548c.26 0 .468.052.598.156.104.104.182.312.234.572.364 2.418.78 4.94 1.274 7.592h.104c.624-3.224 1.066-5.538 1.274-6.916.052-.338.13-.546.26-.65.13-.078.39-.13.806-.13m17.712 8.996h.286c.884 0 1.82-.104 2.756-.338.26-.052.416-.078.494-.078.26 0 .416.156.468.442l.208 1.3c.052.364.104.598.104.702 0 .312-.234.546-.676.702-1.196.416-2.522.624-3.926.624h-.494q-3.198 0-4.524-1.326a3.73 3.73 0 0 1-1.04-1.768c-.182-.676-.26-1.586-.26-2.704V24.98c0-2.262.52-3.848 1.56-4.784.884-.78 2.236-1.17 4.082-1.17h.364c1.82 0 3.146.442 3.926 1.3.832.936 1.248 2.47 1.248 4.654v1.352c0 .494-.26.728-.754.728h-6.24v.208c0 .624.156 1.04.52 1.274.338.234.962.338 1.898.338m-2.418-4.524h2.86c.208 0 .312-.104.312-.338v-.416c0-.52-.104-.91-.26-1.196-.208-.312-.624-.468-1.196-.468h-.234c-.52 0-.884.13-1.092.364q-.39.468-.39 1.404zm19.079-1.794h-4.134c-.26 0-.442-.026-.546-.13s-.13-.312-.13-.624v-1.794c0-.312.026-.494.13-.598q.156-.156.546-.156h8.788c.26 0 .442.052.572.156.104.104.182.312.182.598v.494c0 .676-.208 1.3-.572 1.846l-4.472 6.344h4.446c.26 0 .416.052.52.156s.156.286.156.598v1.794q0 .468-.156.624c-.104.104-.26.13-.52.13h-8.944c-.546 0-.806-.234-.806-.754v-.598c0-.676.182-1.274.572-1.846zm14.753 8.372h-.052c-.572.884-1.716 1.3-3.406 1.3h-.39c-1.326 0-2.366-.338-3.094-1.014-.754-.676-1.118-1.69-1.118-2.99v-.286c0-1.404.39-2.418 1.196-2.99s2.106-.858 3.926-.858h.182c.676 0 1.3.052 1.82.104v-.546c0-.546-.156-.936-.442-1.144-.312-.182-.832-.286-1.56-.286-.884 0-1.872.156-3.016.442-.312.078-.546.078-.65 0-.13-.078-.208-.234-.234-.494l-.208-1.378c-.052-.234-.052-.416-.052-.52 0-.312.208-.546.624-.676 1.326-.364 2.808-.572 4.446-.572 2.002 0 3.432.442 4.264 1.274.65.676.988 1.768.988 3.25v7.722c0 .26-.078.468-.208.572s-.364.156-.676.156h-1.222c-.312 0-.52-.026-.65-.104s-.234-.234-.312-.494zm-.936-3.328v-.728q-.429-.078-1.248-.078h-.286q-.936 0-1.326.234c-.26.156-.364.468-.364.936v.104c0 .468.104.78.364.936.234.182.598.26 1.092.26h.182c.52 0 .91-.13 1.222-.39.234-.208.364-.65.364-1.274m29.534-8.084v2.958c0 3.196-.68 5.644-2.006 7.31-1.36 1.7-3.604 2.516-6.732 2.516s-5.372-.816-6.732-2.516c-1.36-1.666-2.006-4.114-2.006-7.31v-2.958c0-3.196.646-5.61 2.006-7.31 1.36-1.666 3.604-2.516 6.732-2.516s5.372.85 6.732 2.516c1.326 1.7 2.006 4.114 2.006 7.31m-5.814 2.38V20.1c0-2.21-.204-3.74-.544-4.556s-1.122-1.258-2.312-1.258h-.136c-1.224.034-2.006.442-2.346 1.258s-.51 2.346-.51 4.556v1.802c0 2.244.17 3.74.51 4.556s1.122 1.258 2.346 1.258h.136c1.19 0 1.972-.408 2.312-1.224s.544-2.346.544-4.59m21.586-2.244h-5.406c-.34 0-.578-.034-.714-.17s-.17-.408-.17-.816v-2.346c0-.408.034-.646.17-.782q.204-.204.714-.204h11.492c.34 0 .578.068.748.204.136.136.238.408.238.782v.646c0 .884-.272 1.7-.748 2.414l-5.848 8.296h5.814c.34 0 .544.068.68.204s.204.374.204.782v2.346q0 .612-.204.816c-.136.136-.34.17-.68.17h-11.696c-.714 0-1.054-.306-1.054-.986v-.782c0-.884.238-1.666.748-2.414zm16.537 7.922h1.088c.34 0 .612.102.748.238.136.17.238.476.238.918v2.108c0 .476-.102.782-.238.918-.136.17-.408.238-.748.238h-2.584c-1.7 0-2.89-.306-3.57-.986-.68-.646-1.02-1.802-1.02-3.434v-3.672l-1.122.714c-.442.272-.748.408-.884.408-.272 0-.374-.204-.374-.612v-3.162c0-.34.034-.578.17-.748.102-.136.306-.34.646-.578l1.564-.986V9.968c0-.34.068-.578.238-.748.17-.136.476-.238.918-.238h3.128c.408 0 .714.102.884.238.17.17.272.408.272.748v5.508l1.53-.986c.408-.272.714-.408.884-.408.238 0 .374.204.374.612v3.162c0 .34-.068.612-.17.748-.136.17-.34.374-.646.578l-1.972 1.258v6.494c0 .272.034.442.136.51.068.102.238.136.51.136m13.706-3.51v3.328c0 .598.104 1.014.364 1.248.208.234.598.338 1.17.338h.234c.598 0 1.014-.156 1.274-.52q.312-.468.312-2.262v-1.118c0-1.3-.13-2.106-.338-2.366-.234-.26-.676-.416-1.3-.416h-.104c-.598 0-1.014.13-1.274.39-.234.234-.338.702-.338 1.378m0-4.342h.052q1.131-.702 2.964-.702h.234c1.56 0 2.704.468 3.406 1.404.572.806.884 2.236.884 4.29v1.872c0 2.08-.442 3.536-1.326 4.342-.936.884-2.418 1.3-4.446 1.3h-.52c-2.132 0-3.588-.416-4.368-1.274-.702-.754-1.04-1.976-1.04-3.692V15.152c0-.26.052-.442.182-.572.104-.104.338-.182.676-.182h2.418c.312 0 .546.078.676.182.13.13.208.312.208.572zm15.967 9.152h.286c.884 0 1.82-.104 2.756-.338.26-.052.416-.078.494-.078.26 0 .416.156.468.442l.208 1.3c.052.364.104.598.104.702 0 .312-.234.546-.676.702-1.196.416-2.522.624-3.926.624h-.494q-3.198 0-4.524-1.326a3.73 3.73 0 0 1-1.04-1.768c-.182-.676-.26-1.586-.26-2.704V24.98c0-2.262.52-3.848 1.56-4.784.884-.78 2.236-1.17 4.082-1.17h.364c1.82 0 3.146.442 3.926 1.3.832.936 1.248 2.47 1.248 4.654v1.352c0 .494-.26.728-.754.728h-6.24v.208c0 .624.156 1.04.52 1.274.338.234.962.338 1.898.338m-2.418-4.524h2.86c.208 0 .312-.104.312-.338v-.416c0-.52-.104-.91-.26-1.196-.208-.312-.624-.468-1.196-.468h-.234c-.52 0-.884.13-1.092.364q-.39.468-.39 1.404zm13.443-1.794h-4.134c-.26 0-.442-.026-.546-.13s-.13-.312-.13-.624v-1.794c0-.312.026-.494.13-.598q.156-.156.546-.156h8.788c.26 0 .442.052.572.156.104.104.182.312.182.598v.494c0 .676-.208 1.3-.572 1.846l-4.472 6.344h4.446c.26 0 .416.052.52.156s.156.286.156.598v1.794q0 .468-.156.624c-.104.104-.26.13-.52.13h-8.944c-.546 0-.806-.234-.806-.754v-.598c0-.676.182-1.274.572-1.846zm19.531-2.678h2.236c.364 0 .624.052.754.156s.234.312.286.624c0 .104.468 2.418 1.378 6.916h.078c.468-2.73.884-5.252 1.222-7.592.026-.286.104-.468.208-.572q.156-.156.546-.156h2.652c.286 0 .468.078.572.182.078.13.104.338.052.598-.416 2.028-.936 4.264-1.508 6.708s-.988 3.978-1.248 4.628c-.104.26-.234.442-.364.52s-.338.104-.598.104h-2.86c-.546 0-.884-.182-.988-.598-.494-1.768-.91-4.004-1.274-6.708h-.104a71 71 0 0 1-1.3 6.708c-.104.416-.416.598-.936.598h-2.808c-.52 0-.858-.182-.988-.572-.26-.702-.702-2.314-1.326-4.81a121 121 0 0 1-1.456-6.578c-.078-.286-.052-.494.052-.598s.312-.182.624-.182h2.548c.26 0 .468.052.598.156.104.104.182.312.234.572.364 2.418.78 4.94 1.274 7.592h.104c.624-3.224 1.066-5.538 1.274-6.916.052-.338.13-.546.26-.65.13-.078.39-.13.806-.13m18.835 11.05h-.052c-.572.884-1.716 1.3-3.406 1.3h-.39c-1.326 0-2.366-.338-3.094-1.014-.754-.676-1.118-1.69-1.118-2.99v-.286c0-1.404.39-2.418 1.196-2.99s2.106-.858 3.926-.858h.182c.676 0 1.3.052 1.82.104v-.546c0-.546-.156-.936-.442-1.144-.312-.182-.832-.286-1.56-.286-.884 0-1.872.156-3.016.442-.312.078-.546.078-.65 0-.13-.078-.208-.234-.234-.494l-.208-1.378c-.052-.234-.052-.416-.052-.52 0-.312.208-.546.624-.676 1.326-.364 2.808-.572 4.446-.572 2.002 0 3.432.442 4.264 1.274.65.676.988 1.768.988 3.25v7.722c0 .26-.078.468-.208.572s-.364.156-.676.156h-1.222c-.312 0-.52-.026-.65-.104s-.234-.234-.312-.494zm-.936-3.328v-.728q-.429-.078-1.248-.078h-.286q-.936 0-1.326.234c-.26.156-.364.468-.364.936v.104c0 .468.104.78.364.936.234.182.598.26 1.092.26h.182c.52 0 .91-.13 1.222-.39.234-.208.364-.65.364-1.274m9.901-6.942h.078c.572-.936 1.534-1.404 2.912-1.404h1.04c.26 0 .468.052.572.156s.182.286.182.572v1.898c0 .286-.052.468-.156.572q-.156.156-.546.156h-.78c-.962 0-1.612.182-1.976.546-.312.312-.442.91-.442 1.794v6.292c0 .26-.078.468-.208.572-.13.13-.364.182-.676.182h-2.392c-.338 0-.572-.052-.702-.182-.13-.104-.182-.312-.182-.572V19.988c0-.26.052-.442.182-.546s.364-.182.702-.182h1.248c.286 0 .494.052.624.13q.195.156.312.468zm13.159 6.682v-7.332c0-.26.052-.442.182-.572.13-.104.364-.182.702-.182h2.392c.312 0 .546.078.676.182.13.13.208.312.208.572v7.696q0 2.379-1.17 3.432c-.832.728-2.288 1.092-4.42 1.092s-3.614-.364-4.42-1.092q-1.17-1.053-1.17-3.432v-7.696c0-.26.052-.442.182-.572.13-.104.364-.182.702-.182h2.392c.312 0 .546.078.676.182.13.13.208.312.208.572v7.332c0 .598.078.988.286 1.196.208.234.572.338 1.144.338.546 0 .936-.104 1.144-.338.182-.208.286-.598.286-1.196m13.483-8.32h.208c1.508 0 2.626.364 3.302 1.066.624.676.962 1.82.962 3.432v7.722c0 .26-.078.468-.208.572-.13.13-.364.182-.676.182h-2.392c-.338 0-.572-.052-.702-.182-.13-.104-.182-.312-.182-.572v-7.358c0-.572-.104-.988-.286-1.196-.208-.208-.598-.338-1.144-.338h-.156c-.572 0-.936.13-1.144.338s-.286.624-.286 1.196v7.358c0 .26-.078.468-.208.572-.13.13-.364.182-.676.182h-2.392c-.338 0-.572-.052-.702-.182-.13-.104-.182-.312-.182-.572V19.988c0-.26.052-.442.182-.546s.364-.182.702-.182h1.222c.312 0 .52.052.65.13q.195.117.312.468l.156.494h.078c.832-.884 2.002-1.326 3.562-1.326m11.109 7.93v4.29c0 .26-.078.468-.208.572-.13.13-.364.182-.676.182h-2.392c-.338 0-.572-.052-.702-.182-.13-.104-.182-.312-.182-.572V15.152c0-.26.052-.442.182-.572.13-.104.364-.182.702-.182h2.392c.312 0 .546.078.676.182.13.13.208.312.208.572v8.476h.182l2.47-3.77c.234-.39.598-.598 1.092-.598h3.016c.286 0 .442.104.442.312 0 .104-.078.286-.208.494l-2.99 4.472c-.234.364-.338.624-.338.78 0 .182.104.442.338.78l3.198 5.044c.104.208.156.338.156.442 0 .286-.182.416-.546.416h-2.886c-.364 0-.65-.026-.806-.13q-.234-.117-.468-.546l-2.47-4.368zm12.254-2.34v2.028c0 1.014.156 1.664.468 1.976.234.26.598.364 1.092.364h.104c.468 0 .832-.104 1.092-.364.312-.312.468-.962.468-1.976v-2.028c0-.988-.156-1.664-.468-1.976-.26-.234-.624-.364-1.092-.364h-.104c-.494 0-.858.13-1.092.364-.312.312-.468.988-.468 1.976m7.41.156v1.69c0 1.3-.13 2.288-.39 3.016a3.7 3.7 0 0 1-1.248 1.742c-.858.676-2.184 1.014-4.004 1.014h-.312c-1.82 0-3.172-.338-4.004-1.014a3.7 3.7 0 0 1-1.248-1.742c-.26-.728-.39-1.716-.39-3.016v-1.664c0-1.274.13-2.262.39-2.99s.676-1.3 1.248-1.768c.832-.676 2.184-1.014 4.004-1.014h.312c1.82 0 3.146.338 4.004 1.014.572.468.988 1.04 1.248 1.742.26.728.39 1.716.39 2.99m-7.93-8.944 4.082-3.484c.156-.156.338-.234.494-.234.182 0 .364.13.52.338l1.248 1.612c.104.156.156.286.156.442 0 .208-.156.416-.416.624l-4.108 2.808a.9.9 0 0 1-.52.182c-.208 0-.416-.104-.624-.364l-.78-.91c-.208-.234-.286-.442-.286-.598a.5.5 0 0 1 .234-.416m16.813 4.056h2.236c.364 0 .624.052.754.156s.234.312.286.624c0 .104.468 2.418 1.378 6.916h.078c.468-2.73.884-5.252 1.222-7.592.026-.286.104-.468.208-.572q.156-.156.546-.156h2.652c.286 0 .468.078.572.182.078.13.104.338.052.598-.416 2.028-.936 4.264-1.508 6.708s-.988 3.978-1.248 4.628c-.104.26-.234.442-.364.52s-.338.104-.598.104h-2.86c-.546 0-.884-.182-.988-.598-.494-1.768-.91-4.004-1.274-6.708h-.104a71 71 0 0 1-1.3 6.708c-.104.416-.416.598-.936.598h-2.808c-.52 0-.858-.182-.988-.572-.26-.702-.702-2.314-1.326-4.81a121 121 0 0 1-1.456-6.578c-.078-.286-.052-.494.052-.598s.312-.182.624-.182h2.548c.26 0 .468.052.598.156.104.104.182.312.234.572.364 2.418.78 4.94 1.274 7.592h.104c.624-3.224 1.066-5.538 1.274-6.916.052-.338.13-.546.26-.65.13-.078.39-.13.806-.13"/></svg>