<svg xmlns="http://www.w3.org/2000/svg" fill="none" viewBox="0 0 160 600"><path fill="#fff" d="M124.222 337.358v-7.733q0-.23.23-.267a10 10 0 0 1 1.745-.14c1.962 0 2.943.764 2.943 2.267v.268c0 .56-.14 1.019-.408 1.388-.28.37-.662.625-1.172.752l2.089 3.491c.077.127.039.191-.101.191h-.663a.24.24 0 0 1-.217-.115l-1.974-3.414c-.102.013-.268.013-.472.013-.535 0-.917 0-1.121-.013v3.312c0 .153-.076.217-.204.217h-.458c-.153 0-.217-.064-.217-.217m.879-7.147v3.109c.433.025.854.025 1.262.025.637 0 1.108-.127 1.401-.382s.446-.688.446-1.287v-.165c0-.574-.166-.981-.472-1.223-.305-.23-.815-.357-1.528-.357a7 7 0 0 0-.918.051c-.089.013-.14.038-.165.064-.026.025-.026.089-.026.165m5.74 7.147v-7.733q0-.23.229-.267c.51-.089 1.083-.14 1.746-.14 1.962 0 2.943.764 2.943 2.267v.268c0 .56-.14 1.019-.408 1.388-.28.37-.662.625-1.172.752l2.089 3.491c.077.127.039.191-.102.191h-.662a.24.24 0 0 1-.217-.115l-1.974-3.414c-.102.013-.268.013-.472.013-.535 0-.917 0-1.121-.013v3.312c0 .153-.076.217-.204.217h-.458c-.153 0-.217-.064-.217-.217m.879-7.147v3.109c.433.025.854.025 1.261.025.637 0 1.109-.127 1.402-.382s.446-.688.446-1.287v-.165c0-.574-.166-.981-.472-1.223-.305-.23-.815-.357-1.529-.357-.407 0-.713.025-.917.051-.089.013-.14.038-.165.064-.026.025-.026.089-.026.165m7.6 7.479c-.79 0-1.491-.115-2.115-.37-.115-.038-.153-.114-.127-.216l.102-.421c.025-.127.114-.153.267-.102.586.268 1.21.395 1.847.395.586 0 1.032-.127 1.338-.395.306-.267.459-.649.459-1.159v-.14c0-.459-.102-.79-.281-.994-.178-.204-.535-.382-1.07-.51l-.853-.203c-.625-.153-1.083-.383-1.376-.714-.293-.318-.433-.764-.433-1.35v-.191c0-.676.216-1.198.649-1.555.434-.356 1.032-.547 1.797-.547.688 0 1.286.089 1.822.242.14.051.191.14.165.28l-.089.306q-.057.19-.306.114a5.6 5.6 0 0 0-1.567-.229c-1.057 0-1.58.471-1.58 1.401v.128c0 .433.102.739.306.93s.548.344 1.032.446l.803.191c.688.165 1.172.408 1.452.713q.42.478.421 1.414v.204c0 .777-.23 1.363-.688 1.746-.459.395-1.109.586-1.975.586m4.775-4.408v.344c0 1.401.192 2.318.574 2.764.331.395.841.586 1.516.586.739 0 1.261-.216 1.592-.662.332-.459.497-1.351.497-2.688v-.344c0-.663-.038-1.211-.102-1.644-.063-.433-.191-.777-.395-1.057-.331-.433-.853-.65-1.592-.65q-1.09 0-1.567.65c-.357.458-.523 1.363-.523 2.701m5.109-.153v.662c0 1.478-.267 2.497-.777 3.083-.484.548-1.223.816-2.242.816-.956 0-1.669-.242-2.153-.727-.586-.586-.867-1.643-.867-3.172v-.662c0-1.478.268-2.523.803-3.122.471-.522 1.21-.789 2.217-.789.994 0 1.732.267 2.217.789.535.599.802 1.644.802 3.122"/><path fill="#fff" d="M72.544 314.512h.233c.932 0 1.718-.175 2.388-.525v-.407c0-1.602-.175-2.679-.495-3.233-.32-.553-.903-.844-1.776-.844h-.262q-2.184 0-2.184 2.359v.262c0 .873.145 1.485.495 1.834.35.379.873.554 1.601.554m-5.27 9.726c-.35-.117-.496-.321-.496-.67q0-.175.088-.524l.466-1.864c.116-.466.466-.641.99-.495 1.398.437 2.62.641 3.669.641h.087c1.049 0 1.777-.262 2.243-.845q.699-.83.786-2.621c-.961.408-2.01.583-3.145.583h-.32c-2.068 0-3.553-.495-4.485-1.544-.932-1.019-1.369-2.591-1.369-4.688v-.408c0-1.863.554-3.348 1.69-4.455 1.135-1.077 2.795-1.631 4.979-1.631h.408c2.62 0 4.484.699 5.532 2.039 1.049 1.339 1.602 3.552 1.602 6.639v.699c0 1.66-.146 3.087-.437 4.31s-.67 2.213-1.135 2.912a5.3 5.3 0 0 1-1.777 1.718c-.699.437-1.398.728-2.096.844-.7.146-1.515.204-2.417.204h-.03c-1.689 0-3.32-.262-4.833-.844m17.445-4.223h.407c.874 0 1.486.233 1.864.641.379.437.583 1.077.583 1.951v.378c0 .903-.292 2.01-.816 3.349a12.7 12.7 0 0 1-2.3 3.669c-.175.233-.379.321-.583.321a.85.85 0 0 1-.466-.146l-1.456-.874c-.35-.174-.378-.465-.087-.844.262-.349.64-.903 1.165-1.689.35-.524.524-.903.524-1.194 0-.145-.087-.262-.233-.378l-.291-.204c-.495-.35-.728-.961-.728-1.835v-.815c0-1.544.786-2.33 2.417-2.33m11.94-5.503h.233c.932 0 1.718-.175 2.388-.525v-.407c0-1.602-.175-2.679-.495-3.233-.32-.553-.903-.844-1.776-.844h-.262q-2.184 0-2.184 2.359v.262c0 .873.145 1.485.495 1.834.35.379.873.554 1.601.554m-5.27 9.726c-.35-.117-.495-.321-.495-.67q0-.175.087-.524l.466-1.864c.116-.466.466-.641.99-.495 1.398.437 2.62.641 3.669.641h.087c1.049 0 1.777-.262 2.243-.845q.698-.83.786-2.621c-.961.408-2.01.583-3.145.583h-.32c-2.068 0-3.553-.495-4.485-1.544-.932-1.019-1.369-2.591-1.369-4.688v-.408c0-1.863.554-3.348 1.69-4.455 1.135-1.077 2.795-1.631 4.979-1.631h.408c2.62 0 4.484.699 5.532 2.039 1.049 1.339 1.602 3.552 1.602 6.639v.699c0 1.66-.146 3.087-.437 4.31s-.67 2.213-1.135 2.912a5.3 5.3 0 0 1-1.777 1.718c-.699.437-1.398.728-2.096.844-.7.146-1.515.204-2.417.204h-.03c-1.688 0-3.32-.262-4.833-.844m22.162-9.726h.233c.932 0 1.718-.175 2.388-.525v-.407c0-1.602-.175-2.679-.495-3.233-.32-.553-.903-.844-1.776-.844h-.262q-2.184 0-2.184 2.359v.262c0 .873.145 1.485.495 1.834.349.379.873.554 1.601.554m-5.271 9.726c-.349-.117-.495-.321-.495-.67q0-.175.088-.524l.466-1.864c.116-.466.466-.641.99-.495 1.398.437 2.621.641 3.669.641h.087c1.049 0 1.777-.262 2.242-.845q.699-.83.787-2.621c-.961.408-2.01.583-3.145.583h-.321c-2.067 0-3.552-.495-4.484-1.544-.932-1.019-1.369-2.591-1.369-4.688v-.408c0-1.863.554-3.348 1.689-4.455 1.136-1.077 2.796-1.631 4.98-1.631h.407c2.621 0 4.485.699 5.533 2.039 1.049 1.339 1.602 3.552 1.602 6.639v.699c0 1.66-.146 3.087-.437 4.31s-.67 2.213-1.136 2.912a5.26 5.26 0 0 1-1.776 1.718c-.699.437-1.398.728-2.097.844-.698.146-1.514.204-2.417.204h-.029c-1.689 0-3.319-.262-4.834-.844m24.988-13.308v.291c0 1.922-.495 3.291-1.427 4.164-.874.699-2.009 1.048-3.349 1.048-1.514 0-2.65-.378-3.436-1.135-.874-.816-1.311-2.097-1.311-3.786v-.873c0-1.689.437-2.942 1.311-3.786.786-.757 1.922-1.136 3.436-1.136 1.34 0 2.475.35 3.349 1.049.932.873 1.427 2.271 1.427 4.164m-4.951 13.104 10.746-17.705c.145-.233.32-.408.495-.495.174-.058.436-.117.815-.117h2.126c.902 0 1.165.35.757 1.049l-10.745 17.705c-.175.262-.321.436-.495.495-.175.087-.466.116-.816.116h-2.126c-.931 0-1.164-.349-.757-1.048m-.64-13.745v1.573c0 .611.058 1.019.203 1.223.117.203.321.291.583.291h.058a.68.68 0 0 0 .583-.291c.116-.204.203-.612.203-1.223v-1.573c0-.582-.087-.99-.203-1.194a.71.71 0 0 0-.583-.32h-.058a.64.64 0 0 0-.583.32c-.145.204-.203.612-.203 1.194m20.442 9.289v.292c0 1.922-.495 3.29-1.427 4.164-.874.699-2.009 1.048-3.349 1.048-1.514 0-2.65-.378-3.436-1.136-.874-.815-1.31-2.067-1.31-3.785v-.874c0-1.689.436-2.97 1.31-3.785.786-.758 1.922-1.136 3.436-1.136 1.34 0 2.475.349 3.349 1.048.932.874 1.427 2.272 1.427 4.164m-5.591-.64v1.572c0 .612.058 1.019.204 1.223.116.204.32.291.582.291h.058a.68.68 0 0 0 .583-.291c.116-.204.204-.611.204-1.223v-1.572c0-.583-.088-.99-.204-1.194a.71.71 0 0 0-.583-.32h-.058c-.262 0-.466.116-.582.32-.146.204-.204.611-.204 1.194"/><path fill="#fff" d="M12.349 141.935h-.24c-1.403 0-2.625-.18-3.667-.561-.44-.14-.64-.4-.56-.801l.26-1.623c.04-.4.28-.541.701-.4 1.162.42 2.244.621 3.205.621h.1c.601 0 1.042-.08 1.303-.261.24-.16.38-.46.38-.881v-.2c0-.401-.12-.662-.32-.822-.22-.14-.641-.28-1.262-.4l-1.363-.261c-1.121-.2-1.923-.601-2.363-1.162-.461-.561-.682-1.342-.682-2.364v-.561c0-1.121.3-1.963.902-2.564.721-.721 2.063-1.082 3.986-1.082h.14c1.343 0 2.485.181 3.406.521.2.08.34.201.4.321.041.14.041.34-.02.581l-.34 1.462c-.08.361-.34.481-.74.341q-1.383-.421-2.645-.421h-.08c-.662 0-1.122.08-1.363.22-.26.161-.38.421-.38.782v.18c0 .32.08.561.26.681.16.14.521.26 1.042.361l1.522.3c1.202.241 2.024.621 2.485 1.102.44.481.68 1.322.68 2.504v.481c0 1.362-.38 2.344-1.121 2.965-.741.641-1.943.941-3.626.941m11.8-3.766v-5.649c0-.201.04-.341.14-.441.1-.08.28-.14.54-.14h1.843c.24 0 .42.06.521.14.1.1.16.24.16.441v5.93q0 1.833-.901 2.644c-.641.561-1.763.841-3.406.841-1.642 0-2.784-.28-3.405-.841q-.902-.811-.902-2.644v-5.93c0-.201.04-.341.14-.441.1-.08.28-.14.541-.14h1.843c.24 0 .421.06.521.14.1.1.16.24.16.441v5.649c0 .461.06.761.22.922.161.18.442.26.882.26.421 0 .721-.08.882-.26.14-.161.22-.461.22-.922m7.563-5.369c.701-.681 1.703-1.041 2.985-1.041h.18c1.242 0 2.124.36 2.665 1.041.48.641.72 1.723.72 3.286v1.502c0 .842-.08 1.543-.2 2.064-.14.52-.38.961-.72 1.302-.682.661-1.603.981-2.805.981h-.22q-1.143 0-1.864-.42v3.085c0 .3-.06.501-.16.581-.12.08-.34.12-.681.12h-1.523c-.34 0-.56-.04-.68-.14-.12-.081-.16-.281-.16-.561v-12.02c0-.241.04-.401.16-.501.1-.08.28-.14.54-.14h.842c.24 0 .42.04.52.08.08.06.16.18.22.341l.141.44zm.741 2.845v2.564c0 .461.08.781.28.962.181.18.482.26.902.26h.18c.461 0 .782-.12.982-.4q.24-.362.24-1.743v-.862c0-.961-.08-1.562-.24-1.783-.2-.24-.52-.36-1.001-.36h-.14c-.441 0-.742.1-.942.3-.18.18-.26.541-.26 1.062m12.303 3.706h.22c.682 0 1.403-.08 2.124-.26.2-.04.32-.06.38-.06.201 0 .321.12.361.34l.16 1.002c.04.28.08.46.08.541 0 .24-.18.42-.52.541-.922.32-1.943.48-3.025.48h-.38q-2.465 0-3.486-1.021a2.9 2.9 0 0 1-.802-1.363c-.14-.52-.2-1.222-.2-2.083v-1.122c0-1.743.4-2.965 1.202-3.686.681-.601 1.723-.901 3.145-.901h.28c1.403 0 2.424.34 3.026 1.001.64.721.961 1.903.961 3.586v1.042c0 .38-.2.561-.58.561h-4.809v.16c0 .481.12.801.4.982.261.18.742.26 1.463.26m-1.863-3.486h2.204c.16 0 .24-.08.24-.26v-.321c0-.4-.08-.701-.2-.921-.16-.241-.48-.361-.922-.361h-.18c-.4 0-.681.1-.841.281q-.3.36-.3 1.081zm9.617-2.844h.06c.44-.722 1.181-1.082 2.243-1.082h.802c.2 0 .36.04.44.12s.14.22.14.441v1.462c0 .221-.04.361-.12.441q-.12.12-.42.12h-.601c-.742 0-1.242.14-1.523.421-.24.24-.34.701-.34 1.382v4.848c0 .2-.06.361-.16.441-.1.1-.281.14-.521.14h-1.843c-.261 0-.441-.04-.541-.14-.1-.08-.14-.241-.14-.441V132.5c0-.201.04-.341.14-.421s.28-.14.54-.14h.962c.22 0 .38.04.48.1q.151.12.241.361zm4.61 2.143v-.26c0-.982.26-1.723.781-2.244.601-.601 1.623-.901 3.045-.901h.2c1.122 0 2.104.12 2.925.36q.24.09.3.18a.57.57 0 0 1 .04.341l-.22 1.643c-.04.26-.22.34-.54.26-.802-.18-1.523-.28-2.124-.28h-.02c-.44 0-.761.04-.921.12-.18.08-.26.22-.26.421v.06c0 .2.06.34.22.42s.46.181.921.261l.942.2c.861.2 1.482.501 1.843.902.36.4.54 1.021.54 1.843v.3c0 2.104-1.322 3.145-3.926 3.145h-.2c-1.322 0-2.424-.18-3.346-.541-.18-.06-.3-.14-.34-.24-.04-.08-.04-.24 0-.461l.28-1.322c.06-.381.28-.501.681-.381.922.321 1.723.461 2.404.461h.06c.441 0 .742-.04.922-.14.16-.08.26-.24.26-.461v-.06c0-.16-.08-.3-.22-.381q-.24-.12-.962-.3l-.881-.2q-1.323-.301-1.863-.902c-.36-.4-.541-1.001-.541-1.843m12.603-.681h-3.185c-.2 0-.34-.02-.42-.1s-.1-.241-.1-.481v-1.382c0-.241.02-.381.1-.461q.12-.12.42-.12h6.771c.2 0 .34.04.44.12.08.08.141.24.141.461v.38c0 .521-.16 1.002-.44 1.423l-3.446 4.888h3.425c.2 0 .32.04.4.12s.121.22.121.461v1.382q0 .36-.12.481c-.08.08-.2.1-.4.1h-6.892c-.42 0-.621-.18-.621-.581v-.461c0-.521.14-.981.44-1.422zm14.072-1.943c-.281 1.883-.802 3.966-1.563 6.27a42.5 42.5 0 0 1-2.825 6.531c-.14.28-.32.421-.56.421-.16 0-.341-.04-.582-.161l-1.021-.44c-.36-.161-.521-.321-.521-.501 0-.08.02-.201.1-.341.681-1.382 1.082-2.183 1.162-2.404-.561-.2-.982-.641-1.302-1.362-.36-.801-.782-2.023-1.242-3.706q-.692-2.524-1.022-4.327c-.04-.201-.02-.341.08-.441.1-.08.28-.14.521-.14h1.823c.22 0 .38.04.48.1.101.06.181.18.221.381.46 2.524.982 4.767 1.563 6.711h.1c.56-1.603 1.082-3.807 1.563-6.651q.03-.301.18-.421c.1-.08.26-.12.46-.12h1.844c.22 0 .38.06.46.14s.1.24.08.461m4.375 3.105v2.564c0 .461.08.781.28.962.16.18.461.26.902.26h.18c.461 0 .782-.12.982-.4q.24-.362.24-1.743v-.862c0-1.001-.1-1.622-.26-1.823-.18-.2-.52-.32-1.002-.32h-.08c-.46 0-.781.1-.982.3-.18.18-.26.541-.26 1.062m0-3.346h.04q.871-.54 2.284-.54h.18c1.202 0 2.084.36 2.625 1.081.44.621.68 1.723.68 3.306v1.442c0 1.603-.34 2.725-1.021 3.346-.721.681-1.863 1.001-3.426 1.001h-.4c-1.643 0-2.765-.32-3.366-.981-.54-.581-.801-1.523-.801-2.845v-9.335c0-.201.04-.341.14-.441.08-.08.26-.14.52-.14h1.864c.24 0 .42.06.52.14.101.1.161.24.161.441zm10.74 5.57v3.305c0 .2-.06.361-.16.441-.1.1-.28.14-.52.14h-1.844c-.26 0-.44-.04-.54-.14-.1-.08-.14-.241-.14-.441v-12.4c0-.201.04-.341.14-.441.1-.08.28-.14.54-.14h1.843c.24 0 .421.06.521.14.1.1.16.24.16.441v6.53h.14l1.904-2.904c.18-.301.461-.461.841-.461h2.324c.22 0 .341.08.341.24 0 .08-.06.221-.161.381l-2.303 3.446c-.181.28-.261.48-.261.601 0 .14.08.34.261.601l2.464 3.886c.08.16.12.26.12.34 0 .221-.14.321-.421.321h-2.224c-.28 0-.5-.02-.621-.1q-.18-.09-.36-.421l-1.903-3.365zm9.94-5.349v8.654c0 .2-.06.361-.161.441-.1.1-.28.14-.52.14h-1.844c-.26 0-.44-.04-.54-.14-.101-.08-.141-.241-.141-.441v-8.654c0-.201.04-.341.141-.441.1-.08.28-.14.54-.14h1.844c.24 0 .42.06.52.14.101.1.161.24.161.441m-1.483-1.342h-.24c-1.082 0-1.623-.541-1.623-1.663v-.1c0-1.102.541-1.663 1.623-1.663h.24c1.082 0 1.623.561 1.623 1.663v.1c0 1.122-.541 1.663-1.623 1.663m-96.14 28.691v3.305c0 .2-.06.361-.16.441-.1.1-.28.14-.521.14H8.703c-.26 0-.44-.04-.541-.14-.1-.08-.14-.241-.14-.441v-12.4c0-.201.04-.341.14-.441.1-.08.28-.14.54-.14h1.844c.24 0 .42.06.52.14.1.1.161.24.161.441v6.53h.14l1.903-2.904c.18-.301.461-.461.842-.461h2.324c.22 0 .34.08.34.24 0 .08-.06.221-.16.381l-2.304 3.446c-.18.28-.26.48-.26.601 0 .14.08.34.26.601l2.464 3.886c.08.16.12.26.12.34 0 .221-.14.321-.42.321h-2.224c-.28 0-.5-.02-.621-.1q-.18-.09-.36-.421l-1.904-3.365zm9.218-4.848h.06c.44-.722 1.182-1.082 2.244-1.082h.801c.2 0 .36.04.44.12s.141.22.141.441v1.462c0 .221-.04.361-.12.441q-.12.12-.42.12h-.602c-.741 0-1.242.14-1.522.421-.24.24-.34.701-.34 1.382v4.848c0 .2-.061.361-.161.441-.1.1-.28.14-.521.14h-1.843c-.26 0-.44-.04-.541-.14-.1-.08-.14-.241-.14-.441V154.5c0-.201.04-.341.14-.421s.28-.14.54-.14h.963c.22 0 .38.04.48.1q.15.12.24.361zm9.56 6.33h.22c.682 0 1.403-.08 2.124-.26.2-.04.32-.06.38-.06.201 0 .321.12.361.34l.16 1.002c.04.28.08.46.08.541 0 .24-.18.42-.52.541-.922.32-1.943.48-3.025.48h-.38q-2.464 0-3.486-1.021a2.9 2.9 0 0 1-.802-1.363c-.14-.52-.2-1.222-.2-2.083v-1.122c0-1.743.4-2.965 1.202-3.686.681-.601 1.723-.901 3.145-.901h.28c1.403 0 2.425.34 3.026 1.001.64.721.961 1.903.961 3.586v1.042c0 .38-.2.561-.58.561h-4.809v.16c0 .481.12.801.401.982.26.18.741.26 1.462.26m-1.863-3.486h2.204c.16 0 .24-.08.24-.26v-.321c0-.4-.08-.701-.2-.921-.16-.241-.48-.361-.921-.361h-.18c-.401 0-.682.1-.842.281q-.3.36-.3 1.081zm12.582 2.344v-2.544c0-.501-.08-.861-.24-1.062-.181-.2-.502-.32-.942-.32h-.2c-.441 0-.742.12-.922.34-.2.221-.28.842-.28 1.883v.882c0 .961.1 1.562.3 1.763.16.2.46.28.921.28h.22c.381 0 .662-.08.862-.26.18-.181.28-.501.28-.962m-.04-6.09h.04v-3.345c0-.201.04-.341.14-.441.1-.08.28-.14.54-.14h1.864c.24 0 .42.06.52.14.08.1.14.24.14.441v9.115c0 1.402-.26 2.364-.78 2.924-.381.401-.842.702-1.383.862-.56.18-1.302.26-2.243.26h-.341c-1.482 0-2.544-.3-3.225-.901-.702-.601-1.042-1.723-1.042-3.386v-1.602c0-1.603.32-2.725 1.002-3.366.64-.601 1.522-.921 2.664-.921h.24q1.143 0 1.864.36m13.648.421c-.28 1.883-.801 3.966-1.563 6.27a42.5 42.5 0 0 1-2.824 6.531c-.14.28-.32.421-.561.421-.16 0-.34-.04-.581-.161l-1.022-.44c-.36-.161-.52-.321-.52-.501 0-.08.02-.201.1-.341.68-1.382 1.081-2.183 1.161-2.404-.56-.2-.981-.641-1.302-1.362-.36-.801-.781-2.023-1.242-3.706q-.69-2.524-1.022-4.327c-.04-.201-.02-.341.08-.441.1-.08.281-.14.521-.14h1.823c.22 0 .381.04.481.1s.18.18.22.381c.461 2.524.982 4.767 1.563 6.711h.1c.561-1.603 1.082-3.807 1.563-6.651q.03-.301.18-.421c.1-.08.26-.12.46-.12h1.844c.22 0 .38.06.46.14s.1.24.08.461m7.93 7.332v1.142c0 .3-.06.501-.14.601s-.261.14-.501.14h-1.603c-1.442 0-2.404-.24-2.845-.741-.4-.421-.58-1.222-.58-2.424v-4.147H55.51c-.2 0-.32-.02-.4-.1s-.1-.201-.1-.401v-1.022c0-.24.02-.4.1-.48.06-.08.2-.141.42-.201l1.062-.26v-1.963c0-.201.04-.341.14-.441.1-.08.281-.14.541-.14h1.843c.24 0 .421.06.521.14.1.1.16.24.16.441v1.923h1.663c.2 0 .32.04.401.12.08.08.12.22.12.461v1.342q0 .36-.12.481c-.08.08-.2.1-.4.1h-1.663v3.786c0 .361.04.581.16.701.12.141.38.201.781.201h.882c.24 0 .42.06.5.16s.14.3.14.581m-49.813 22.961h-.54c-2.846 0-4.248-1.282-4.248-3.866v-1.342c0-1.322.34-2.284 1.042-2.925.68-.621 1.743-.941 3.145-.941h.28c.26-1.443 1.323-2.184 3.206-2.184h.981c.2 0 .32.04.401.1.06.08.1.22.1.421v1.102c0 .2-.04.32-.12.38-.08.08-.22.1-.4.1h-.942c-.441 0-.741.101-.922.301 1.503.401 2.264 1.623 2.264 3.646v1.342c0 1.442-.4 2.404-1.182 2.925.52.28.922.641 1.222 1.082.3.44.46.921.46 1.422v.14c0 1.984-1.582 2.965-4.707 2.965h-.38c-1.363 0-2.685-.24-3.927-.721-.36-.12-.5-.381-.4-.761l.36-1.282c.1-.381.34-.521.721-.401 1.182.401 2.224.581 3.145.581h.28q1.744 0 1.744-1.022v-.06c0-.38-.2-.721-.601-1.042-.32.04-.661.04-.982.04m-.34-2.504h.14c.44 0 .74-.08.941-.28.22-.22.34-.681.34-1.362v-.782c0-.681-.12-1.121-.34-1.362-.2-.18-.5-.28-.941-.28h-.14c-.441 0-.762.1-.942.28-.24.241-.34.681-.34 1.362v.782c0 .681.1 1.142.34 1.362.18.2.5.28.941.28m9.284-2.263v1.562c0 .781.12 1.282.36 1.523.18.2.461.28.842.28h.08c.36 0 .641-.08.841-.28.24-.241.361-.742.361-1.523v-1.562c0-.762-.12-1.282-.36-1.523-.2-.18-.481-.28-.842-.28h-.08c-.38 0-.661.1-.841.28-.24.241-.361.761-.361 1.523m5.71.12v1.302c0 1.002-.1 1.763-.301 2.324s-.521 1.001-.962 1.342c-.66.521-1.683.781-3.085.781h-.24c-1.402 0-2.444-.26-3.085-.781a2.87 2.87 0 0 1-.962-1.342c-.2-.561-.3-1.322-.3-2.324v-1.282c0-.982.1-1.743.3-2.304s.521-1.002.962-1.362c.64-.521 1.683-.781 3.085-.781h.24c1.402 0 2.424.26 3.085.781.441.36.762.801.962 1.342.2.561.3 1.322.3 2.304m7.985 3.686v1.142c0 .3-.06.501-.14.601s-.26.14-.501.14h-1.603c-1.442 0-2.404-.24-2.844-.741-.401-.421-.581-1.222-.581-2.424v-4.147h-1.082c-.2 0-.32-.02-.4-.1s-.101-.201-.101-.401v-1.022c0-.24.02-.4.1-.48.06-.08.2-.141.42-.201l1.063-.26v-1.963c0-.201.04-.341.14-.441.1-.08.28-.14.54-.14h1.844c.24 0 .42.06.52.14.1.1.16.24.16.441v1.923h1.664c.2 0 .32.04.4.12s.12.22.12.461v1.342q0 .36-.12.481c-.08.08-.2.1-.4.1h-1.663v3.786c0 .361.04.581.16.701.12.141.38.201.782.201h.88c.241 0 .422.06.502.16s.14.3.14.581m4.42-3.806v1.562c0 .781.12 1.282.361 1.523.18.2.461.28.842.28h.08c.36 0 .64-.08.841-.28.24-.241.36-.742.36-1.523v-1.562c0-.762-.12-1.282-.36-1.523-.2-.18-.48-.28-.841-.28h-.08c-.38 0-.661.1-.842.28-.24.241-.36.761-.36 1.523m5.71.12v1.302c0 1.002-.1 1.763-.3 2.324s-.521 1.001-.962 1.342c-.661.521-1.683.781-3.085.781h-.24c-1.403 0-2.444-.26-3.086-.781a2.87 2.87 0 0 1-.961-1.342c-.2-.561-.3-1.322-.3-2.324v-1.282c0-.982.1-1.743.3-2.304s.52-1.002.961-1.362c.642-.521 1.683-.781 3.086-.781h.24c1.402 0 2.424.26 3.085.781.44.36.761.801.962 1.342.2.561.3 1.322.3 2.304m-6.11-6.892 3.145-2.684c.12-.12.26-.18.38-.18.141 0 .281.1.401.26l.962 1.242c.08.12.12.221.12.341 0 .16-.12.32-.32.481l-3.165 2.163c-.14.1-.28.14-.401.14-.16 0-.32-.08-.48-.28l-.602-.701c-.16-.181-.22-.341-.22-.461s.06-.24.18-.321m12.954 3.126h1.723c.28 0 .48.04.58.12s.181.24.221.481c0 .08.36 1.863 1.062 5.328h.06c.36-2.103.681-4.046.941-5.849.02-.221.08-.361.16-.441q.12-.12.421-.12h2.044c.22 0 .36.06.44.14.06.1.08.26.04.461a199 199 0 0 1-1.161 5.168c-.441 1.883-.762 3.065-.962 3.566-.08.201-.18.341-.28.401s-.26.08-.461.08h-2.204c-.42 0-.68-.14-.761-.461-.38-1.362-.701-3.085-.982-5.168h-.08a55 55 0 0 1-1.001 5.168c-.08.321-.321.461-.722.461h-2.163c-.4 0-.661-.14-.761-.441-.2-.541-.541-1.783-1.022-3.706a93 93 0 0 1-1.122-5.068c-.06-.221-.04-.381.04-.461s.24-.14.48-.14h1.964c.2 0 .36.04.46.12.081.08.141.24.181.441.28 1.863.601 3.806.982 5.849h.08c.48-2.484.821-4.267.981-5.328.04-.261.1-.421.2-.501.101-.06.301-.1.622-.1m12.084 5.449v3.305c0 .2-.06.361-.16.441-.1.1-.28.14-.521.14h-1.843c-.26 0-.44-.04-.54-.14-.101-.08-.141-.241-.141-.441v-12.4c0-.201.04-.341.14-.441.1-.08.28-.14.541-.14h1.843c.24 0 .42.06.52.14.101.1.161.24.161.441v6.53h.14l1.903-2.904c.18-.301.461-.461.842-.461h2.324c.22 0 .34.08.34.24 0 .08-.06.221-.16.381l-2.304 3.446c-.18.28-.26.48-.26.601 0 .14.08.34.26.601l2.464 3.886c.08.16.12.26.12.34 0 .221-.14.321-.42.321H67.17c-.28 0-.5-.02-.62-.1q-.181-.09-.362-.421l-1.903-3.365zm9.442-1.803v1.562c0 .781.12 1.282.36 1.523.181.2.462.28.842.28h.08c.361 0 .641-.08.842-.28.24-.241.36-.742.36-1.523v-1.562c0-.762-.12-1.282-.36-1.523-.2-.18-.481-.28-.842-.28h-.08c-.38 0-.66.1-.841.28-.24.241-.36.761-.36 1.523m5.71.12v1.302c0 1.002-.1 1.763-.3 2.324-.201.561-.522 1.001-.962 1.342-.662.521-1.683.781-3.085.781h-.24c-1.403 0-2.445-.26-3.086-.781a2.87 2.87 0 0 1-.962-1.342c-.2-.561-.3-1.322-.3-2.324v-1.282c0-.982.1-1.743.3-2.304s.521-1.002.962-1.362c.641-.521 1.683-.781 3.085-.781h.24c1.403 0 2.424.26 3.086.781.44.36.76.801.961 1.342.2.561.3 1.322.3 2.304m6.843-3.766h1.723c.28 0 .481.04.581.12s.18.24.22.481c0 .08.361 1.863 1.062 5.328h.06c.361-2.103.682-4.046.942-5.849.02-.221.08-.361.16-.441q.12-.12.421-.12h2.043c.22 0 .36.06.441.14.06.1.08.26.04.461-.32 1.562-.721 3.285-1.162 5.168s-.761 3.065-.961 3.566c-.08.201-.18.341-.28.401s-.261.08-.462.08h-2.203c-.42 0-.681-.14-.762-.461-.38-1.362-.7-3.085-.981-5.168h-.08a55 55 0 0 1-1.002 5.168c-.08.321-.32.461-.721.461h-2.164c-.4 0-.66-.14-.76-.441-.201-.541-.542-1.783-1.023-3.706a93 93 0 0 1-1.121-5.068c-.06-.221-.04-.381.04-.461s.24-.14.48-.14h1.964c.2 0 .36.04.46.12.08.08.14.24.18.441.281 1.863.602 3.806.982 5.849h.08c.481-2.484.822-4.267.982-5.328.04-.261.1-.421.2-.501.1-.06.3-.1.621-.1m17.647.12c-.28 1.883-.801 3.966-1.562 6.27a42.6 42.6 0 0 1-2.825 6.531c-.14.28-.32.421-.56.421-.161 0-.341-.04-.582-.161l-1.021-.44c-.361-.161-.521-.321-.521-.501 0-.08.02-.201.1-.341.681-1.382 1.082-2.183 1.162-2.404-.561-.2-.982-.641-1.302-1.362-.361-.801-.782-2.023-1.242-3.706q-.692-2.524-1.022-4.327c-.04-.201-.02-.341.08-.441.1-.08.28-.14.52-.14h1.824c.22 0 .38.04.48.1s.181.18.221.381c.46 2.524.982 4.767 1.563 6.711h.1c.56-1.603 1.082-3.807 1.562-6.651q.03-.301.181-.421c.1-.08.26-.12.46-.12h1.843c.221 0 .381.06.461.14s.1.24.08.461m-90.277 32.669v-2.544c0-.501-.08-.861-.24-1.062-.181-.2-.502-.32-.942-.32h-.2c-.441 0-.742.12-.922.34-.2.221-.28.842-.28 1.883v.882c0 .961.1 1.562.3 1.763.16.2.46.28.922.28h.22c.38 0 .66-.08.861-.26.18-.181.28-.501.28-.962m-.04-6.09h.04v-3.345c0-.201.04-.341.14-.441.1-.08.28-.14.54-.14h1.864c.24 0 .42.06.52.14.08.1.141.24.141.441v9.115c0 1.402-.26 2.364-.781 2.924-.38.401-.842.702-1.383.862-.56.18-1.302.26-2.243.26h-.34c-1.483 0-2.545-.3-3.226-.901-.701-.601-1.042-1.723-1.042-3.386v-1.602c0-1.603.32-2.725 1.002-3.366.64-.601 1.522-.921 2.664-.921h.24q1.143 0 1.864.36m8.059 3.947v1.562c0 .781.12 1.282.36 1.523.18.2.461.28.842.28h.08c.36 0 .641-.08.841-.28.24-.241.361-.742.361-1.523v-1.562c0-.762-.12-1.282-.36-1.523-.201-.18-.481-.28-.842-.28h-.08c-.38 0-.661.1-.841.28-.24.241-.361.761-.361 1.523m5.71.12v1.302c0 1.002-.1 1.763-.301 2.324s-.521 1.001-.962 1.342c-.66.521-1.683.781-3.085.781h-.24c-1.403 0-2.444-.26-3.085-.781a2.87 2.87 0 0 1-.962-1.342c-.2-.561-.3-1.322-.3-2.324v-1.282c0-.982.1-1.743.3-2.304s.52-1.002.962-1.362c.64-.521 1.682-.781 3.085-.781h.24c1.402 0 2.424.26 3.085.781.44.36.761.801.962 1.342.2.561.3 1.322.3 2.304m11.792-7.088h-.098c-1.024 0-2.146.219-3.366.634-.414.146-.658.024-.756-.366l-.439-1.756c-.122-.439 0-.756.39-.902 1.513-.634 3.171-.952 5-.952h.073c1.61 0 2.854.366 3.732 1.074.878.707 1.317 1.78 1.317 3.194v.293c0 1.268-.269 2.244-.78 2.975-.537.732-1.366 1.39-2.488 1.927l-1.269.61c-1.17.585-1.902 1.024-2.243 1.317-.342.292-.512.707-.512 1.195v.268h6.39c.34 0 .585.073.682.171.098.097.146.317.146.634v1.609c0 .293-.073.488-.17.586q-.183.146-.659.146H34.57q-.513 0-.659-.146c-.122-.098-.17-.293-.17-.586v-1.56c0-1.561.268-2.805.853-3.683.56-.878 1.536-1.61 2.926-2.244l1.05-.463c.853-.366 1.438-.707 1.73-1.049.293-.317.464-.756.464-1.317v-.195c0-.927-.585-1.414-1.731-1.414m20.731 3.707v2.121c0 2.293-.488 4.049-1.439 5.244-.975 1.219-2.585 1.804-4.828 1.804s-3.854-.585-4.83-1.804c-.975-1.195-1.438-2.951-1.438-5.244v-2.121c0-2.293.463-4.024 1.439-5.244.975-1.195 2.585-1.805 4.828-1.805s3.854.61 4.83 1.805c.95 1.22 1.438 2.951 1.438 5.244m-4.17 1.707v-1.293c0-1.585-.147-2.682-.39-3.268s-.805-.902-1.659-.902h-.097c-.878.024-1.44.317-1.683.902-.244.586-.366 1.683-.366 3.268v1.293c0 1.609.122 2.682.366 3.268s.805.902 1.683.902h.097c.854 0 1.415-.293 1.659-.878.243-.585.39-1.683.39-3.292m18.317-1.707v2.121c0 2.293-.488 4.049-1.439 5.244-.975 1.219-2.585 1.804-4.829 1.804s-3.853-.585-4.828-1.804c-.976-1.195-1.44-2.951-1.44-5.244v-2.121c0-2.293.464-4.024 1.44-5.244.975-1.195 2.585-1.805 4.828-1.805s3.854.61 4.83 1.805c.95 1.22 1.438 2.951 1.438 5.244m-4.17 1.707v-1.293c0-1.585-.146-2.682-.39-3.268s-.805-.902-1.659-.902h-.097c-.878.024-1.44.317-1.683.902-.244.586-.366 1.683-.366 3.268v1.293c0 1.609.122 2.682.366 3.268s.805.902 1.683.902h.097c.854 0 1.415-.293 1.659-.878s.39-1.683.39-3.292m19.141 4.951v1.39c0 .365-.073.609-.17.731s-.317.171-.61.171H86.15c-1.756 0-2.927-.293-3.463-.902-.488-.512-.707-1.488-.707-2.951v-5.049h-1.317c-.244 0-.39-.024-.488-.122-.098-.097-.122-.243-.122-.487V202c0-.293.024-.488.122-.585.073-.098.244-.171.512-.244l1.293-.317v-2.39c0-.244.048-.415.17-.537.122-.097.342-.171.659-.171h2.243c.293 0 .513.074.634.171.122.122.196.293.196.537v2.341h2.024c.244 0 .39.049.488.146.097.098.146.268.146.561v1.634q0 .44-.146.585c-.098.098-.244.122-.488.122h-2.024v4.61c0 .439.048.707.195.853.146.171.463.244.95.244h1.074c.293 0 .512.073.61.195s.17.366.17.708m12.186-8.926c-.341 2.292-.975 4.828-1.902 7.633a52 52 0 0 1-3.439 7.95c-.17.342-.39.513-.683.513-.195 0-.414-.049-.707-.195l-1.244-.537c-.439-.195-.634-.39-.634-.61a.84.84 0 0 1 .122-.414c.83-1.683 1.317-2.659 1.415-2.927-.683-.244-1.195-.78-1.585-1.658-.44-.976-.951-2.463-1.513-4.512q-.84-3.073-1.243-5.268c-.049-.244-.025-.414.097-.536.122-.098.342-.171.634-.171h2.22c.268 0 .463.049.585.122s.22.219.268.463c.561 3.073 1.195 5.805 1.903 8.17h.121c.683-1.951 1.317-4.634 1.903-8.097q.036-.365.22-.512c.121-.097.316-.146.56-.146h2.244c.268 0 .463.073.561.171.097.097.122.292.097.561m1.108 3.194v-.317c0-1.195.317-2.097.951-2.731.732-.732 1.976-1.098 3.707-1.098h.244c1.366 0 2.561.147 3.561.439q.292.11.366.22c.048.097.073.219.048.414l-.268 2c-.049.317-.268.415-.658.317-.976-.219-1.854-.341-2.586-.341h-.024c-.536 0-.927.049-1.122.146-.219.098-.317.268-.317.512v.074c0 .243.073.414.268.512.196.097.561.219 1.122.317l1.147.244c1.048.243 1.804.609 2.243 1.097s.659 1.244.659 2.244v.366c0 2.56-1.61 3.828-4.78 3.828h-.244c-1.61 0-2.951-.219-4.073-.658-.22-.073-.366-.171-.415-.293-.048-.097-.048-.292 0-.561l.342-1.609c.073-.464.341-.61.829-.464 1.122.391 2.097.561 2.927.561h.073c.536 0 .902-.048 1.122-.17.195-.098.317-.293.317-.561v-.073a.52.52 0 0 0-.269-.464q-.292-.145-1.17-.366l-1.073-.243q-1.61-.366-2.268-1.098c-.439-.488-.659-1.219-.659-2.244m15.172 5.975v.244c0 1.366-.658 2.024-1.951 2.024h-.268c-1.317 0-1.951-.658-1.951-2.024v-.244c0-.707.146-1.219.488-1.512.317-.292.805-.463 1.463-.463h.268c.635 0 1.122.171 1.464.463.317.293.487.805.487 1.512m11.389-6.804h-3.878c-.244 0-.415-.024-.512-.122-.098-.097-.122-.292-.122-.585v-1.683c0-.293.024-.463.122-.561q.146-.146.512-.146h8.243c.244 0 .415.049.537.146.097.098.17.293.17.561v.464c0 .634-.195 1.219-.536 1.731l-4.195 5.951h4.17c.244 0 .391.049.488.146.098.098.147.268.147.561v1.683q0 .439-.147.585c-.097.098-.244.122-.488.122h-8.389c-.512 0-.756-.219-.756-.707v-.561c0-.634.171-1.195.537-1.732zm11.862 5.683h.781c.243 0 .439.073.536.17.098.122.171.342.171.659v1.512c0 .341-.073.561-.171.658-.097.122-.293.171-.536.171h-1.854c-1.219 0-2.073-.219-2.561-.707-.487-.464-.731-1.293-.731-2.463v-2.634l-.805.512c-.317.195-.537.292-.634.292-.195 0-.268-.146-.268-.439v-2.268c0-.243.024-.414.122-.536a2 2 0 0 1 .463-.415l1.122-.707v-6.438c0-.244.049-.415.17-.537.122-.098.342-.171.659-.171h2.244c.292 0 .512.073.634.171.122.122.195.293.195.537v3.95l1.097-.707c.293-.195.512-.292.634-.292.171 0 .269.146.269.439v2.268c0 .243-.049.439-.122.536a2 2 0 0 1-.464.415l-1.414.902v4.658c0 .195.024.317.097.366.049.073.171.098.366.098"/></svg>