<svg xmlns="http://www.w3.org/2000/svg" fill="none" viewBox="0 0 160 600"><g fill="#fff"><path d="M100.237 331.985c.542-.526 1.315-.805 2.305-.805h.139c.96 0 1.64.279 2.058.805.371.495.557 1.33.557 2.537v1.16c0 .65-.062 1.191-.155 1.594a2.2 2.2 0 0 1-.557 1.005c-.526.511-1.237.758-2.166.758h-.17q-.882 0-1.438-.325v2.383c0 .232-.047.387-.124.448-.093.062-.263.093-.526.093h-1.176c-.263 0-.433-.031-.526-.108-.093-.062-.124-.217-.124-.433v-9.282c0-.186.031-.31.124-.387.077-.062.217-.108.418-.108h.65c.185 0 .324.031.402.062a.6.6 0 0 1 .17.263l.108.34zm.573 2.197v1.98c0 .356.061.603.216.742.139.14.371.202.696.202h.139c.356 0 .604-.093.758-.31q.186-.279.186-1.346v-.665c0-.743-.062-1.207-.186-1.377-.154-.185-.402-.278-.773-.278h-.108c-.341 0-.573.077-.727.232-.14.139-.201.417-.201.82m7.768-2.027h.046c.34-.557.913-.835 1.733-.835h.618c.155 0 .279.031.341.093.062.061.108.17.108.34v1.129c0 .17-.031.279-.093.341q-.093.092-.325.092h-.464c-.572 0-.959.109-1.176.325-.185.186-.263.542-.263 1.068v3.743c0 .155-.046.279-.123.341-.078.077-.217.108-.402.108h-1.424c-.201 0-.34-.031-.417-.108-.078-.062-.109-.186-.109-.341v-6.698c0-.155.031-.263.109-.325.077-.062.216-.108.417-.108h.743c.17 0 .294.031.371.077a.64.64 0 0 1 .186.279zm5.944 2.352v1.206c0 .604.092.99.278 1.176.139.155.356.217.65.217h.062c.278 0 .495-.062.649-.217.186-.186.279-.572.279-1.176v-1.206c0-.588-.093-.991-.279-1.176-.154-.139-.371-.217-.649-.217h-.062c-.294 0-.511.078-.65.217-.186.185-.278.588-.278 1.176m4.409.092v1.006c0 .773-.078 1.361-.232 1.794a2.2 2.2 0 0 1-.743 1.037c-.511.402-1.3.603-2.382.603h-.186c-1.083 0-1.887-.201-2.382-.603a2.2 2.2 0 0 1-.743-1.037c-.155-.433-.232-1.021-.232-1.794v-.99c0-.758.077-1.346.232-1.779s.402-.774.743-1.052c.495-.402 1.299-.604 2.382-.604h.186c1.082 0 1.871.202 2.382.604.34.278.588.619.743 1.036.154.433.232 1.021.232 1.779m5.284-2.908h1.331c.216 0 .371.031.449.093.077.062.139.185.17.371 0 .062.278 1.439.82 4.115h.046c.278-1.624.526-3.125.727-4.517.016-.17.062-.279.124-.34q.093-.093.325-.093h1.578c.17 0 .278.046.34.108.046.077.062.201.031.356a157 157 0 0 1-.897 3.991c-.341 1.454-.588 2.367-.743 2.754-.062.154-.139.263-.216.309-.078.047-.202.062-.356.062h-1.702c-.325 0-.526-.108-.588-.356-.294-1.052-.541-2.382-.758-3.991h-.062a43 43 0 0 1-.773 3.991c-.062.248-.248.356-.557.356h-1.671c-.309 0-.51-.108-.588-.34-.154-.418-.417-1.377-.789-2.862a73 73 0 0 1-.866-3.914c-.046-.17-.031-.294.031-.356s.186-.108.371-.108h1.516c.155 0 .279.031.356.093.062.061.108.185.139.34.217 1.439.464 2.939.758 4.517h.062c.371-1.918.634-3.295.758-4.115.031-.201.078-.325.155-.387.077-.046.232-.077.479-.077m9.363.077v6.683c0 .155-.046.279-.124.341-.077.077-.216.108-.402.108h-1.423c-.201 0-.34-.031-.418-.108-.077-.062-.108-.186-.108-.341v-6.683c0-.154.031-.263.108-.34.078-.062.217-.108.418-.108h1.423c.186 0 .325.046.402.108a.45.45 0 0 1 .124.34m-1.145-1.036h-.185c-.836 0-1.253-.418-1.253-1.284v-.077c0-.851.417-1.285 1.253-1.285h.185c.836 0 1.254.434 1.254 1.285v.077c0 .866-.418 1.284-1.254 1.284m5.27 2.552h-2.46c-.155 0-.263-.015-.325-.077s-.077-.186-.077-.371v-1.068c0-.185.015-.294.077-.355q.093-.093.325-.093h5.229c.155 0 .263.031.34.093.062.061.109.185.109.355v.294c0 .403-.124.774-.341 1.099l-2.66 3.774h2.645c.155 0 .247.031.309.093s.093.17.093.356v1.067q0 .279-.093.372c-.062.062-.154.077-.309.077h-5.322c-.325 0-.479-.139-.479-.449v-.355c0-.403.108-.758.34-1.099zm4.028 8.37h-.897c-.155 0-.278-.031-.34-.109-.062-.061-.093-.201-.093-.386v-1.083c0-.155.031-.279.093-.341.062-.061.185-.108.34-.108h.387c.278 0 .495-.062.634-.216.124-.124.186-.449.186-.96v-6.683c0-.154.031-.263.108-.34.077-.062.217-.108.418-.108h1.423c.186 0 .325.046.402.108a.45.45 0 0 1 .124.34v6.854c0 1.113-.201 1.887-.603 2.336q-.627.696-2.182.696m1.64-10.922h-.185c-.836 0-1.253-.418-1.253-1.284v-.077c0-.851.417-1.285 1.253-1.285h.185c.836 0 1.253.434 1.253 1.285v.077c0 .866-.417 1.284-1.253 1.284m5.254 1.036v6.683c0 .155-.046.279-.124.341-.077.077-.216.108-.402.108h-1.423c-.201 0-.34-.031-.418-.108-.077-.062-.108-.186-.108-.341v-6.683c0-.154.031-.263.108-.34.078-.062.217-.108.418-.108h1.423c.186 0 .325.046.402.108a.45.45 0 0 1 .124.34m-1.145-1.036h-.185c-.836 0-1.253-.418-1.253-1.284v-.077c0-.851.417-1.285 1.253-1.285h.185c.836 0 1.254.434 1.254 1.285v.077c0 .866-.418 1.284-1.254 1.284"/><path d="M121.42 312.458v2.533c0 2.738-.583 4.834-1.719 6.261-1.164 1.456-3.086 2.155-5.765 2.155s-4.601-.699-5.766-2.155c-1.165-1.427-1.718-3.523-1.718-6.261v-2.533c0-2.737.553-4.805 1.718-6.261 1.165-1.427 3.087-2.155 5.766-2.155s4.601.728 5.765 2.155c1.136 1.456 1.719 3.524 1.719 6.261m-4.98 2.038v-1.543c0-1.893-.175-3.203-.466-3.902s-.961-1.078-1.98-1.078h-.117c-1.048.03-1.718.379-2.009 1.078s-.437 2.009-.437 3.902v1.543c0 1.922.146 3.204.437 3.902.291.699.961 1.078 2.009 1.078h.117c1.019 0 1.689-.35 1.98-1.048s.466-2.01.466-3.932m16.805-5.241v.291c0 1.922-.496 3.291-1.427 4.164-.874.699-2.01 1.048-3.349 1.048-1.514 0-2.65-.378-3.436-1.135-.874-.816-1.311-2.097-1.311-3.786v-.873c0-1.689.437-2.942 1.311-3.786.786-.757 1.922-1.136 3.436-1.136 1.339 0 2.475.35 3.349 1.049.931.873 1.427 2.271 1.427 4.164m-4.951 13.104 10.745-17.705c.146-.233.321-.408.495-.495.175-.058.437-.117.816-.117h2.126c.902 0 1.164.35.757 1.049l-10.746 17.705c-.174.262-.32.436-.495.495-.174.087-.466.116-.815.116h-2.126c-.932 0-1.165-.349-.757-1.048m-.641-13.745v1.573c0 .611.059 1.019.204 1.223.117.203.321.291.583.291h.058a.68.68 0 0 0 .582-.291c.117-.204.204-.612.204-1.223v-1.573c0-.582-.087-.99-.204-1.194a.7.7 0 0 0-.582-.32h-.058a.64.64 0 0 0-.583.32c-.145.204-.204.612-.204 1.194m20.443 9.289v.292c0 1.922-.495 3.29-1.427 4.164-.874.699-2.009 1.048-3.349 1.048-1.514 0-2.65-.378-3.436-1.136-.874-.815-1.311-2.067-1.311-3.785v-.874c0-1.689.437-2.97 1.311-3.785.786-.758 1.922-1.136 3.436-1.136 1.34 0 2.475.349 3.349 1.048.932.874 1.427 2.272 1.427 4.164m-5.591-.64v1.572c0 .612.058 1.019.204 1.223.116.204.32.291.582.291h.058a.68.68 0 0 0 .583-.291c.116-.204.203-.611.203-1.223v-1.572c0-.583-.087-.99-.203-1.194a.71.71 0 0 0-.583-.32h-.058c-.262 0-.466.116-.582.32-.146.204-.204.611-.204 1.194"/><path d="M15.394 138.938h-.12c-.421 2.063-.942 4.267-1.543 6.611q-.18.661-1.142.661h-1.803c-.36 0-.62-.04-.781-.14-.16-.08-.26-.241-.32-.481a138 138 0 0 1-2.505-11.82c-.04-.18 0-.32.08-.4q.12-.12.541-.12h1.984c.24 0 .44.04.56.1.12.08.18.22.22.42.682 4.588 1.143 7.533 1.343 8.835h.08c.16-.761.42-2.083.822-4.007.4-1.903.68-3.245.861-4.046.06-.341.34-.521.841-.521h1.643c.48 0 .761.18.841.521.16.801.441 2.143.842 4.046.4 1.924.681 3.246.841 4.007h.08c.1-.681.3-1.983.601-3.946.28-1.944.541-3.566.742-4.889.02-.2.1-.34.22-.42.12-.06.3-.1.56-.1h1.984c.26 0 .44.04.521.12.08.08.12.22.1.4-.821 4.528-1.663 8.454-2.504 11.82-.08.24-.18.401-.34.481-.16.1-.401.14-.762.14h-1.803q-.96 0-1.142-.661a102 102 0 0 1-1.542-6.611m13.574 4.868h.22c.682 0 1.403-.08 2.124-.26.2-.04.32-.06.381-.06.2 0 .32.12.36.34l.16 1.002c.04.28.081.46.081.541 0 .24-.18.42-.52.54-.922.321-1.944.481-3.026.481h-.38q-2.465 0-3.486-1.021a2.9 2.9 0 0 1-.802-1.363c-.14-.52-.2-1.222-.2-2.083v-1.122c0-1.743.4-2.965 1.202-3.686.681-.601 1.723-.901 3.145-.901h.28c1.403 0 2.425.34 3.026 1.001.64.721.961 1.903.961 3.586v1.042c0 .38-.2.561-.58.561h-4.809v.16c0 .481.12.801.401.982.26.18.741.26 1.462.26m-1.863-3.486h2.204c.16 0 .24-.08.24-.26v-.321c0-.4-.08-.701-.2-.921-.16-.241-.48-.361-.921-.361h-.18c-.401 0-.682.1-.842.281q-.3.36-.3 1.081zm10.358-1.382h-3.185c-.2 0-.34-.02-.42-.1-.081-.08-.101-.241-.101-.481v-1.382c0-.241.02-.381.1-.461q.12-.12.42-.12h6.772c.2 0 .34.04.44.12.08.08.14.24.14.461v.38c0 .521-.16 1.002-.44 1.423l-3.446 4.888h3.426c.2 0 .32.04.4.12s.121.22.121.461v1.382q0 .36-.12.481c-.08.08-.2.1-.4.1h-6.892c-.42 0-.621-.18-.621-.581v-.461c0-.521.14-.981.44-1.422zm-1.543-5.189 3.146-2.684c.12-.12.26-.18.38-.18.14 0 .28.1.4.26l.963 1.242c.08.12.12.221.12.341 0 .16-.12.32-.32.481l-3.166 2.163c-.16.1-.28.14-.4.14-.161 0-.321-.08-.481-.28l-.601-.701c-.16-.181-.22-.341-.22-.461s.06-.24.18-.321m-22.77 25.126h1.723c.28 0 .48.04.58.12.101.08.181.24.221.481 0 .08.36 1.863 1.062 5.328h.06c.36-2.103.681-4.046.942-5.849.02-.221.08-.361.16-.441q.12-.12.42-.12h2.044c.22 0 .36.06.44.14.06.1.08.26.04.461-.32 1.562-.72 3.285-1.161 5.168-.44 1.883-.761 3.065-.962 3.566-.08.201-.18.341-.28.401s-.26.08-.46.08h-2.204c-.421 0-.682-.14-.762-.461-.38-1.362-.701-3.085-.981-5.168h-.08a55 55 0 0 1-1.002 5.168c-.08.321-.32.461-.721.461h-2.164c-.4 0-.661-.14-.761-.441-.2-.541-.541-1.783-1.022-3.706a93 93 0 0 1-1.122-5.068c-.06-.221-.04-.381.04-.461s.24-.14.481-.14h1.963c.2 0 .361.04.461.12.08.08.14.24.18.441.28 1.863.601 3.806.982 5.849h.08c.481-2.484.822-4.267.982-5.328.04-.261.1-.421.2-.501.1-.06.3-.1.621-.1m19.012 8.514h-.04c-.441.681-1.323 1.001-2.625 1.001h-.3c-1.022 0-1.823-.26-2.384-.781-.581-.521-.861-1.302-.861-2.304v-.22c0-1.082.3-1.863.921-2.304s1.623-.661 3.025-.661h.14c.521 0 1.002.04 1.403.08v-.421c0-.42-.12-.721-.341-.881-.24-.14-.641-.22-1.202-.22-.681 0-1.442.12-2.324.34-.24.06-.42.06-.5 0-.1-.06-.16-.18-.18-.38l-.161-1.062c-.04-.181-.04-.321-.04-.401 0-.24.16-.421.48-.521 1.022-.28 2.164-.44 3.426-.44 1.543 0 2.644.34 3.286.981.5.521.76 1.362.76 2.504v5.95c0 .2-.06.361-.16.441s-.28.12-.52.12h-.942c-.24 0-.4-.02-.5-.08s-.18-.18-.241-.381zm-.721-2.565v-.561q-.33-.06-.962-.06h-.22q-.722 0-1.022.181c-.2.12-.28.36-.28.721v.08c0 .361.08.601.28.721.18.14.46.201.841.201h.14c.401 0 .702-.101.942-.301.18-.16.28-.501.28-.982m7.568-5.569c.701-.681 1.703-1.041 2.985-1.041h.18c1.243 0 2.124.36 2.665 1.041.48.641.721 1.723.721 3.286v1.502c0 .842-.08 1.543-.2 2.064-.14.52-.38.961-.721 1.302-.682.661-1.603.981-2.805.981h-.22q-1.143 0-1.863-.42v3.085c0 .3-.06.501-.16.581-.12.08-.341.12-.682.12h-1.522c-.34 0-.561-.04-.681-.14-.12-.081-.16-.281-.16-.561v-12.02c0-.241.04-.401.16-.501.1-.08.28-.14.54-.14h.842c.24 0 .42.04.52.08.08.06.16.18.221.341l.14.44zm.742 2.845v2.564c0 .461.08.781.28.962.18.18.48.26.901.26h.18c.462 0 .782-.12.982-.4q.24-.362.24-1.743v-.862c0-.961-.08-1.562-.24-1.783-.2-.24-.52-.36-1.001-.36h-.14c-.441 0-.742.1-.942.3-.18.18-.26.541-.26 1.062m11.12 3.506h.642c.2 0 .36.06.44.14.08.1.14.28.14.541v1.242c0 .28-.06.461-.14.541-.08.1-.24.14-.44.14H49.99c-1.002 0-1.703-.18-2.103-.581-.401-.381-.601-1.062-.601-2.023v-10.377c0-.201.04-.341.14-.441.1-.08.28-.14.54-.14h1.844c.24 0 .42.06.52.14.1.1.16.24.16.441v9.996c0 .16.02.261.081.301.04.06.14.08.3.08m5.783-6.631v8.654c0 .2-.06.361-.16.441-.1.1-.28.14-.52.14H54.13c-.26 0-.44-.04-.54-.14-.1-.08-.141-.241-.141-.441v-8.654c0-.201.04-.341.14-.441.1-.08.28-.14.541-.14h1.843c.24 0 .42.06.521.14.1.1.16.24.16.441m-1.482-1.342h-.24c-1.082 0-1.623-.541-1.623-1.663v-.1c0-1.102.54-1.663 1.623-1.663h.24c1.082 0 1.623.561 1.623 1.663v.1c0 1.122-.541 1.663-1.623 1.663m6.764 6.691v3.305c0 .2-.06.361-.16.441-.1.1-.281.14-.522.14h-1.843c-.26 0-.44-.04-.54-.14-.1-.08-.14-.241-.14-.441v-12.4c0-.201.04-.341.14-.441.1-.08.28-.14.54-.14h1.843c.24 0 .421.06.521.14.1.1.16.24.16.441v6.53h.14l1.904-2.904c.18-.301.46-.461.841-.461h2.324c.22 0 .34.08.34.24 0 .08-.06.221-.16.381l-2.303 3.446c-.18.28-.26.48-.26.601 0 .14.08.34.26.6l2.464 3.887c.08.16.12.26.12.34 0 .221-.14.321-.42.321H64.96c-.28 0-.5-.02-.62-.1q-.18-.09-.361-.421l-1.903-3.365zm12.483 3.065h-.04c-.44.681-1.322 1.001-2.625 1.001h-.3c-1.022 0-1.823-.26-2.384-.781-.58-.521-.861-1.302-.861-2.304v-.22c0-1.082.3-1.863.921-2.304s1.623-.661 3.025-.661h.14c.521 0 1.002.04 1.403.08v-.421c0-.42-.12-.721-.34-.881-.241-.14-.642-.22-1.203-.22-.681 0-1.442.12-2.324.34-.24.06-.42.06-.5 0-.1-.06-.16-.18-.18-.38l-.161-1.062c-.04-.181-.04-.321-.04-.401 0-.24.16-.421.48-.521 1.022-.28 2.164-.44 3.426-.44 1.543 0 2.645.34 3.286.981.5.521.761 1.362.761 2.504v5.95c0 .2-.06.361-.16.441s-.28.12-.521.12h-.942c-.24 0-.4-.02-.5-.08s-.18-.18-.24-.381zm-.721-2.565v-.561q-.33-.06-.962-.06h-.22q-.722 0-1.022.181c-.2.12-.28.36-.28.721v.08c0 .361.08.601.28.721.18.14.46.201.841.201h.14c.401 0 .702-.101.942-.301.18-.16.28-.501.28-.982m9.712.982h.16c.541 0 1.122-.08 1.743-.26.2-.04.32-.06.38-.06.201 0 .321.12.361.34l.18 1.022c.04.28.08.461.08.541 0 .24-.18.42-.52.541-.882.32-1.843.46-2.885.46h-.24c-1.443 0-2.504-.32-3.165-1.001q-1.023-1.022-1.022-3.426v-1.162c0-.941.08-1.683.24-2.204q.24-.78.782-1.322c.7-.701 1.802-1.061 3.305-1.061h.2c1.202 0 2.244.22 3.085.661.24.14.381.3.381.5 0 .121-.06.321-.16.601l-.38.962q-.151.36-.422.361c-.08 0-.2-.02-.36-.101-.641-.26-1.242-.4-1.783-.4h-.08c-.521 0-.902.14-1.142.38-.3.301-.44.922-.44 1.843v.682c0 .821.12 1.382.4 1.682.26.281.7.421 1.302.421m4.129 5.97h-1.162c-.2 0-.36-.04-.44-.14-.081-.08-.121-.261-.121-.501v-1.403c0-.2.04-.36.12-.44s.24-.14.44-.14h.502c.36 0 .64-.081.821-.281.16-.16.24-.581.24-1.242v-8.654c0-.201.04-.341.14-.441.1-.08.281-.14.542-.14h1.843c.24 0 .42.06.52.14.1.1.16.24.16.441v8.874c0 1.443-.26 2.444-.78 3.025q-.812.902-2.825.902m2.123-14.143h-.24c-1.082 0-1.623-.541-1.623-1.663v-.1c0-1.102.541-1.663 1.623-1.663h.24c1.082 0 1.623.561 1.623 1.663v.1c0 1.122-.541 1.663-1.623 1.663m6.804 1.342v8.654c0 .2-.06.361-.16.441-.1.1-.28.14-.521.14h-1.843c-.26 0-.44-.04-.541-.14-.1-.08-.14-.241-.14-.441v-8.654c0-.201.04-.341.14-.441.1-.08.28-.14.54-.14h1.844c.24 0 .42.06.52.14.1.1.161.24.161.441m-1.482-1.342h-.24c-1.083 0-1.623-.541-1.623-1.663v-.1c0-1.102.54-1.663 1.622-1.663h.24c1.082 0 1.623.561 1.623 1.663v.1c0 1.122-.54 1.663-1.622 1.663M11.227 184.1v2.564c0 .461.08.781.28.962.16.18.461.26.902.26h.18c.461 0 .781-.12.982-.4q.24-.362.24-1.743v-.862c0-1.001-.1-1.622-.26-1.823-.18-.2-.521-.32-1.002-.32h-.08c-.46 0-.781.1-.982.3-.18.18-.26.541-.26 1.062m0-3.346h.04q.871-.54 2.284-.54h.18c1.202 0 2.084.36 2.624 1.081.441.621.681 1.723.681 3.306v1.442c0 1.603-.34 2.725-1.021 3.346-.721.681-1.863 1.001-3.426 1.001h-.4c-1.643 0-2.765-.32-3.366-.981-.54-.581-.801-1.523-.801-2.845v-9.335c0-.201.04-.341.14-.441.08-.08.26-.14.52-.14h1.864c.24 0 .42.06.52.14.1.1.161.24.161.441zm12.303 7.052h.22c.681 0 1.403-.08 2.124-.26.2-.04.32-.06.38-.06.2 0 .32.12.361.34l.16 1.002c.04.28.08.46.08.541 0 .24-.18.42-.52.54-.922.321-1.944.481-3.026.481h-.38q-2.465 0-3.486-1.021a2.9 2.9 0 0 1-.801-1.363c-.14-.52-.2-1.222-.2-2.083v-1.122c0-1.743.4-2.965 1.201-3.686.682-.601 1.723-.901 3.146-.901h.28c1.402 0 2.424.34 3.025 1.001.641.721.962 1.903.962 3.586v1.042c0 .38-.2.561-.581.561h-4.808v.16c0 .481.12.801.4.982.26.18.742.26 1.463.26m-1.863-3.486h2.203c.16 0 .24-.08.24-.26v-.321c0-.4-.08-.701-.2-.921-.16-.241-.48-.361-.921-.361h-.18c-.401 0-.681.1-.842.281q-.3.36-.3 1.081zm10.357-1.382H28.84c-.2 0-.34-.02-.42-.1s-.1-.241-.1-.481v-1.382c0-.241.02-.381.1-.461q.12-.12.42-.12h6.771c.2 0 .34.04.441.12.08.08.14.24.14.461v.38c0 .521-.16 1.002-.44 1.423l-3.446 4.888h3.425c.2 0 .321.04.401.12s.12.22.12.461v1.382q0 .36-.12.481c-.08.08-.2.1-.4.1h-6.892c-.42 0-.62-.18-.62-.581v-.461c0-.521.14-.981.44-1.422zm13.186 0h-3.185c-.2 0-.34-.02-.42-.1s-.101-.241-.101-.481v-1.382c0-.241.02-.381.1-.461q.12-.12.42-.12h6.772c.2 0 .34.04.44.12.08.08.141.24.141.461v.38c0 .521-.16 1.002-.44 1.423l-3.446 4.888h3.425c.2 0 .32.04.4.12s.121.22.121.461v1.382q0 .36-.12.481c-.08.08-.2.1-.4.1h-6.892c-.42 0-.621-.18-.621-.581v-.461c0-.521.14-.981.44-1.422zm11.367 6.451h-.04c-.44.681-1.322 1.001-2.624 1.001h-.3c-1.023 0-1.824-.26-2.385-.781-.58-.521-.861-1.302-.861-2.304v-.22c0-1.082.3-1.863.921-2.304s1.623-.661 3.025-.661h.14c.521 0 1.002.04 1.403.08v-.421c0-.42-.12-.721-.34-.881-.241-.14-.642-.22-1.203-.22-.68 0-1.442.12-2.324.34-.24.06-.42.06-.5 0-.1-.06-.16-.18-.18-.38l-.161-1.062c-.04-.181-.04-.321-.04-.401 0-.24.16-.421.48-.521 1.022-.28 2.164-.44 3.426-.44 1.543 0 2.645.34 3.286.981.5.521.761 1.362.761 2.504v5.95c0 .2-.06.361-.16.441s-.28.12-.521.12h-.942c-.24 0-.4-.02-.5-.08s-.18-.18-.24-.381zm-.721-2.565v-.561q-.33-.06-.962-.06h-.22q-.721 0-1.022.181c-.2.12-.28.36-.28.721v.08c0 .361.08.601.28.721.18.14.46.201.842.201h.14c.4 0 .7-.101.941-.301.18-.16.28-.501.28-.982m8.31-.5v3.305c0 .2-.06.361-.16.441-.1.1-.281.14-.521.14h-1.843c-.26 0-.441-.04-.541-.14-.1-.08-.14-.241-.14-.441v-12.4c0-.201.04-.341.14-.441.1-.08.28-.14.54-.14h1.844c.24 0 .42.06.52.14.1.1.16.24.16.441v6.53h.141l1.903-2.904c.18-.301.46-.461.841-.461h2.324c.22 0 .34.08.34.24 0 .08-.06.221-.16.381l-2.303 3.446c-.18.28-.26.48-.26.601 0 .14.08.34.26.6l2.464 3.887c.08.16.12.26.12.34 0 .221-.14.321-.42.321H67.19c-.28 0-.501-.02-.621-.1q-.18-.09-.36-.421l-1.904-3.365zm10.86 1.282h.642c.2 0 .36.06.44.14.08.1.14.28.14.541v1.242c0 .28-.06.461-.14.541-.08.1-.24.14-.44.14h-1.523c-1.002 0-1.703-.18-2.103-.581-.401-.381-.602-1.062-.602-2.023v-2.164l-.66.421c-.261.16-.441.24-.521.24-.16 0-.22-.12-.22-.36v-1.863c0-.201.02-.341.1-.441.06-.08.18-.2.38-.341l.921-.581v-5.288c0-.201.04-.341.14-.441.1-.08.281-.14.542-.14h1.843c.24 0 .42.06.52.14.1.1.16.24.16.441v3.245l.902-.581c.24-.16.421-.24.521-.24.14 0 .22.12.22.36v1.863c0 .201-.04.361-.1.441-.08.1-.2.22-.38.341l-1.162.741v3.826c0 .16.02.261.08.301.04.06.14.08.3.08m8.333 1.783h-.04c-.44.681-1.322 1.001-2.624 1.001h-.3c-1.022 0-1.823-.26-2.384-.781-.581-.521-.862-1.302-.862-2.304v-.22c0-1.082.3-1.863.922-2.304.62-.441 1.622-.661 3.025-.661h.14c.52 0 1.001.04 1.402.08v-.421c0-.42-.12-.721-.34-.881-.24-.14-.641-.22-1.202-.22-.681 0-1.443.12-2.324.34-.24.06-.42.06-.501 0-.1-.06-.16-.18-.18-.38l-.16-1.062c-.04-.181-.04-.321-.04-.401 0-.24.16-.421.48-.521 1.022-.28 2.164-.44 3.426-.44 1.542 0 2.644.34 3.285.981.501.521.762 1.362.762 2.504v5.95c0 .2-.06.361-.16.441-.101.08-.281.12-.522.12h-.941c-.24 0-.4-.02-.501-.08s-.18-.18-.24-.381zm-.72-2.565v-.561q-.332-.06-.962-.06h-.22q-.722 0-1.022.181c-.2.12-.28.36-.28.721v.08c0 .361.08.601.28.721.18.14.46.201.84.201h.141c.4 0 .701-.101.942-.301.18-.16.28-.501.28-.982m10.593-.16v-2.544c0-.501-.08-.861-.24-1.062-.18-.2-.501-.32-.942-.32h-.2c-.441 0-.742.12-.922.34-.2.221-.28.842-.28 1.883v.882c0 .961.1 1.562.3 1.763.16.2.46.28.922.28h.22c.38 0 .661-.08.861-.26.18-.181.28-.501.28-.962m-.04-6.09h.04v-3.345c0-.201.04-.341.14-.441.1-.08.28-.14.541-.14h1.863c.24 0 .42.06.52.14.081.1.141.24.141.441v9.115c0 1.402-.26 2.364-.781 2.924-.38.401-.842.702-1.382.862-.561.18-1.302.26-2.244.26h-.34c-1.483 0-2.545-.3-3.226-.901-.701-.601-1.042-1.723-1.042-3.386v-1.602c0-1.603.32-2.725 1.002-3.366.641-.601 1.522-.921 2.664-.921h.24q1.143 0 1.864.36m10.944 8.815h-.04c-.441.681-1.322 1.001-2.625 1.001h-.3c-1.022 0-1.823-.26-2.384-.781-.581-.521-.861-1.302-.861-2.304v-.22c0-1.082.3-1.863.921-2.304s1.623-.661 3.025-.661h.14c.521 0 1.002.04 1.403.08v-.421c0-.42-.121-.721-.341-.881-.24-.14-.641-.22-1.202-.22-.681 0-1.442.12-2.324.34-.24.06-.42.06-.5 0-.1-.06-.16-.18-.18-.38l-.161-1.062c-.04-.181-.04-.321-.04-.401 0-.24.16-.421.48-.521 1.022-.28 2.164-.44 3.426-.44 1.543 0 2.645.34 3.286.981.5.521.761 1.362.761 2.504v5.95c0 .2-.06.361-.16.441-.101.08-.281.12-.521.12h-.942c-.24 0-.4-.02-.501-.08s-.18-.18-.24-.381zm-.721-2.565v-.561a6 6 0 0 0-.962-.06h-.22q-.722 0-1.022.181c-.2.12-.28.36-.28.721v.08c0 .361.08.601.28.721.18.14.461.201.841.201h.141c.4 0 .701-.101.941-.301.18-.16.281-.501.281-.982m10.393-6.61h.16c1.162 0 2.024.28 2.544.821.481.521.742 1.402.742 2.644v5.95c0 .2-.06.361-.161.441-.1.1-.28.14-.52.14h-1.844c-.26 0-.44-.04-.54-.14-.101-.08-.141-.241-.141-.441v-5.669c0-.441-.08-.762-.22-.922-.16-.16-.461-.26-.881-.26h-.121c-.44 0-.721.1-.881.26s-.22.481-.22.922v5.669c0 .2-.061.361-.161.441-.1.1-.28.14-.521.14H109.2c-.26 0-.44-.04-.541-.14-.1-.08-.14-.241-.14-.441v-8.674c0-.201.04-.341.14-.421.101-.08.281-.14.541-.14h.942c.24 0 .401.04.501.1q.15.09.24.361l.12.38h.06c.642-.681 1.543-1.021 2.745-1.021m8.599.761v8.654c0 .2-.06.361-.16.441-.1.1-.281.14-.521.14h-1.843c-.26 0-.441-.04-.541-.14-.1-.08-.14-.241-.14-.441v-8.654c0-.201.04-.341.14-.441.1-.08.281-.14.541-.14h1.843c.24 0 .421.06.521.14.1.1.16.24.16.441m-1.482-1.342h-.241c-1.081 0-1.622-.541-1.622-1.663v-.1c0-1.102.541-1.663 1.622-1.663h.241c1.081 0 1.622.561 1.622 1.663v.1c0 1.122-.541 1.663-1.622 1.663m9.348 9.756h-.04c-.441.681-1.323 1.001-2.625 1.001h-.3c-1.022 0-1.823-.26-2.384-.781-.581-.521-.862-1.302-.862-2.304v-.22c0-1.082.301-1.863.922-2.304s1.623-.661 3.025-.661h.14c.521 0 1.002.04 1.402.08v-.421c0-.42-.12-.721-.34-.881-.241-.14-.641-.22-1.202-.22-.681 0-1.443.12-2.324.34-.24.06-.421.06-.501 0-.1-.06-.16-.18-.18-.38l-.16-1.062c-.04-.181-.04-.321-.04-.401 0-.24.16-.421.48-.521 1.022-.28 2.164-.44 3.426-.44 1.543 0 2.644.34 3.285.981.501.521.762 1.362.762 2.504v5.95c0 .2-.06.361-.161.441-.1.08-.28.12-.52.12h-.942c-.24 0-.401-.02-.501-.08s-.18-.18-.24-.381zm-.722-2.565v-.561q-.33-.06-.961-.06h-.221q-.72 0-1.021.181c-.201.12-.281.36-.281.721v.08c0 .361.08.601.281.721.18.14.461.201.841.201h.14c.401 0 .702-.101.942-.301.18-.16.28-.501.28-.982m-118.324 21.5v3.305c0 .2-.06.361-.16.441-.1.1-.28.14-.521.14H8.703c-.26 0-.44-.04-.541-.14-.1-.08-.14-.241-.14-.441v-12.4c0-.201.04-.341.14-.441.1-.08.28-.14.54-.14h1.844c.24 0 .42.06.52.14.1.1.161.24.161.441v6.53h.14l1.903-2.904c.18-.301.461-.461.842-.461h2.324c.22 0 .34.08.34.24 0 .08-.06.221-.16.381l-2.304 3.446c-.18.28-.26.48-.26.601 0 .14.08.34.26.6l2.464 3.887c.08.16.12.26.12.34 0 .221-.14.321-.42.321h-2.224c-.28 0-.5-.02-.621-.1q-.18-.09-.36-.421l-1.904-3.365zm9.442-1.803v1.562c0 .781.12 1.282.36 1.523.181.2.461.28.842.28h.08c.36 0 .641-.08.842-.28.24-.241.36-.742.36-1.523v-1.562c0-.762-.12-1.282-.36-1.523-.2-.18-.481-.28-.842-.28h-.08c-.38 0-.661.1-.841.28-.24.241-.36.761-.36 1.523m5.71.12v1.302c0 1.002-.1 1.763-.301 2.324s-.52 1.001-.962 1.342c-.66.521-1.682.781-3.085.781h-.24c-1.402 0-2.444-.26-3.085-.781a2.87 2.87 0 0 1-.962-1.342c-.2-.561-.3-1.322-.3-2.324v-1.282c0-.982.1-1.743.3-2.304s.521-1.002.962-1.362c.64-.521 1.683-.781 3.085-.781h.24c1.403 0 2.424.26 3.085.781.441.36.762.801.962 1.342.2.561.3 1.322.3 2.304m7.003-4.427h.16c1.163 0 2.024.28 2.545.821.48.521.741 1.402.741 2.644v5.95c0 .2-.06.361-.16.441-.1.1-.28.14-.52.14h-1.844c-.26 0-.44-.04-.54-.14-.101-.08-.141-.241-.141-.441v-5.669c0-.441-.08-.762-.22-.922-.16-.16-.461-.26-.882-.26h-.12c-.44 0-.721.1-.882.26-.16.16-.22.481-.22.922v5.669c0 .2-.06.361-.16.441-.1.1-.28.14-.521.14h-1.843c-.26 0-.44-.04-.541-.14-.1-.08-.14-.241-.14-.441v-8.674c0-.201.04-.341.14-.421s.28-.14.54-.14h.942c.24 0 .401.04.501.1q.15.09.24.361l.12.38h.061c.641-.681 1.543-1.021 2.744-1.021m11.625 8.113v1.142c0 .3-.06.501-.14.601s-.261.14-.501.14h-1.603c-1.442 0-2.404-.24-2.845-.741-.4-.421-.58-1.222-.58-2.424v-4.147h-1.082c-.2 0-.321-.02-.401-.1s-.1-.201-.1-.401v-1.022c0-.24.02-.4.1-.48.06-.08.2-.141.42-.201l1.062-.26v-1.963c0-.201.04-.341.14-.441.1-.08.281-.14.542-.14h1.843c.24 0 .42.06.52.14.1.1.16.24.16.441v1.923h1.663c.2 0 .32.04.401.12.08.08.12.22.12.461v1.342q0 .36-.12.481c-.08.08-.2.1-.4.1h-1.663v3.786c0 .361.04.581.16.701.12.141.38.201.781.201h.882c.24 0 .42.06.5.16s.14.3.14.581m7.305 1.062h-.04c-.44.681-1.322 1.001-2.624 1.001h-.3c-1.022 0-1.824-.26-2.385-.781-.58-.521-.861-1.302-.861-2.304v-.22c0-1.082.3-1.863.921-2.304s1.623-.661 3.025-.661h.14c.521 0 1.002.04 1.403.08v-.421c0-.42-.12-.721-.34-.881-.241-.14-.642-.22-1.203-.22-.68 0-1.442.12-2.323.34-.24.06-.421.06-.501 0-.1-.06-.16-.18-.18-.38l-.16-1.062c-.04-.181-.04-.321-.04-.401 0-.24.16-.421.48-.521 1.022-.28 2.163-.44 3.426-.44 1.542 0 2.644.34 3.285.981.5.521.761 1.362.761 2.504v5.95c0 .2-.06.361-.16.441s-.28.12-.52.12h-.942c-.24 0-.401-.02-.501-.08s-.18-.18-.24-.381zm-.721-2.565v-.561q-.33-.06-.962-.06h-.22q-.72 0-1.022.181c-.2.12-.28.36-.28.721v.08c0 .361.08.601.28.721.18.14.461.201.842.201h.14c.4 0 .701-.101.941-.301.18-.16.281-.501.281-.982"/></g></svg>