<svg xmlns="http://www.w3.org/2000/svg" fill="none" viewBox="0 0 186 46"><path fill="#000" d="M1.77 21.87v-.621c1.512-.243 2.997-1.458 2.997-4.293V3.159c0-1.971-.27-2.16-1.755-2.322V.243c1.647.135 1.89.162 2.78.162.892 0 1.135-.027 2.782-.162v.594c-1.485.162-1.755.351-1.755 2.322v11.745c0 5.346-2.943 6.615-5.05 6.966m19.514-7.965h.54l-.459 4.428H10.97v-.594c1.485-.081 1.755-.324 1.755-2.16V3.051c0-1.836-.27-2.079-1.755-2.16V.297h9.828l.378 4.185h-.54c-.513-2.7-1.026-3.429-3.159-3.429h-2.7v7.56h3.132c.918 0 1.161-.486 1.242-2.187h.54v5.13h-.54c-.054-1.701-.324-2.187-1.242-2.187h-3.132v7.128c0 .756.162 1.08 1.323 1.08h1.944c2.214 0 2.592-.783 3.24-3.672M29.76.297c3.86 0 7.02 3.51 7.02 9.018s-3.16 9.018-7.02 9.018h-5.508v-.594c1.485-.081 1.755-.324 1.755-2.16V3.051c0-1.836-.27-2.079-1.755-2.16V.297zm-.378 17.28h.162c3.429 0 5.049-3.429 5.049-8.262s-1.62-8.262-5.05-8.262H28.06v15.444c0 .756.162 1.08 1.323 1.08m20.206-3.672h.54l-.46 4.428H39.275v-.594c1.485-.081 1.755-.324 1.755-2.16V3.051c0-1.836-.27-2.079-1.755-2.16V.297h9.828l.378 4.185h-.54c-.513-2.7-1.026-3.429-3.16-3.429h-2.7v7.56h3.133c.918 0 1.16-.486 1.242-2.187h.54v5.13h-.54c-.054-1.701-.324-2.187-1.242-2.187H43.08v7.128c0 .756.162 1.08 1.323 1.08h1.944c2.214 0 2.592-.783 3.24-3.672M63.626.405c.675 0 1.35-.081 2.133-.162v.594c-1.486.162-1.755.351-1.755 2.322v15.444h-.325l-8.613-15.93v12.798c0 1.998.297 2.16 1.971 2.322v.594c-.728-.081-1.538-.162-2.267-.162h-.082c-.675 0-1.35.081-2.133.162v-.594c1.486-.162 1.755-.351 1.755-2.322V1.593c-.27-.351-.729-.594-1.755-.729V.27c1.08.108 1.404.135 2.08.135.486 0 .945-.027 1.43-.081l7.183 13.257V3.186c0-1.998-.297-2.187-1.971-2.349V.243c.837.108 1.538.162 2.267.162zm17.346 8.397c1.89 1.107 3.024 2.511 3.024 4.86a4.93 4.93 0 0 1-4.968 4.941c-1.54 0-2.916-.675-3.646-1.647l-.702 1.782h-.378v-6.183h.54c.46 3.348 1.648 5.346 4.105 5.346 2.078 0 3.293-1.215 3.293-3.186 0-2.052-1.052-3.159-2.78-4.185l-1.971-1.161c-1.837-1.08-3.025-2.43-3.025-4.806 0-2.916 2.215-4.536 4.401-4.536 1.54 0 2.728.864 3.349 1.809L82.754 0h.377v5.4h-.486c-.431-2.619-1.62-4.671-3.671-4.671-1.81 0-2.862 1.242-2.862 3.132 0 1.728.945 2.646 2.51 3.564zm11.325 1.323h-1.89v5.346c0 1.971.54 2.187 2.24 2.322v.594c-1.241-.108-1.997-.162-2.97-.162h-.296c-.891 0-1.134.027-2.781.162v-.594c1.485-.162 1.755-.351 1.755-2.322V3.051c0-1.836-.27-2.079-1.755-2.16V.297h5.75c3.484 0 5.482 1.89 5.482 4.833 0 3.024-2.484 4.995-5.535 4.995m-.351-9.072h-1.54v8.289H92c2.51 0 3.645-1.566 3.645-4.077 0-2.592-1.134-4.212-3.7-4.212m19.114 15.255c.513 1.323.864 1.512 2.16 1.512v.594c-.432.108-1.026.162-1.539.162-1.188 0-2.322-.378-2.943-2.187l-1.377-3.942c-.567-1.62-1.242-2.754-3.132-2.754h-.567v5.778c0 1.971.27 2.16 1.755 2.322v.594c-1.647-.135-1.89-.162-2.781-.162s-1.134.027-2.78.162v-.594c1.484-.162 1.754-.351 1.754-2.322V3.051c0-1.836-.27-2.079-1.755-2.16V.297h5.751c3.132 0 5.076 1.809 5.076 4.617 0 2.511-2.052 4.266-4.509 4.536 1.107.189 2.619.918 3.429 3.024zm-5.859-15.255h-1.539v7.884h1.566c2.268 0 3.267-1.512 3.267-3.915 0-2.43-.999-3.969-3.294-3.969m10.93 2.106c0-1.971-.27-2.16-1.755-2.322V.243c1.647.135 1.89.162 2.781.162s1.134-.027 2.781-.162v.594c-1.485.162-1.755.351-1.755 2.322v12.312c0 1.971.27 2.16 1.755 2.322v.594c-1.647-.135-1.89-.162-2.781-.162s-1.134.027-2.781.162v-.594c1.485-.162 1.755-.351 1.755-2.322zM133.533.405c.675 0 1.35-.081 2.133-.162v.594c-1.485.162-1.755.351-1.755 2.322v15.444h-.324l-8.613-15.93v12.798c0 1.998.297 2.16 1.971 2.322v.594c-.729-.081-1.539-.162-2.268-.162h-.081c-.675 0-1.35.081-2.133.162v-.594c1.485-.162 1.755-.351 1.755-2.322V1.593c-.27-.351-.729-.594-1.755-.729V.27c1.08.108 1.404.135 2.079.135.486 0 .945-.027 1.431-.081l7.182 13.257V3.186c0-1.998-.297-2.187-1.971-2.349V.243c.837.108 1.539.162 2.268.162zm15.359-.108.351 4.428h-.54c-.54-2.916-.972-3.672-3.132-3.672h-1.08v14.418c0 1.998.297 2.16 1.944 2.322v.594c-1.242-.108-2.025-.162-2.97-.162s-1.728.054-2.97.162v-.594c1.647-.162 1.944-.324 1.944-2.322V1.053h-1.08c-2.16 0-2.592.756-3.132 3.672h-.54l.351-4.428zm12.822 13.608h.54l-.459 4.428H151.4v-.594c1.485-.081 1.755-.324 1.755-2.16V3.051c0-1.836-.27-2.079-1.755-2.16V.297h9.828l.378 4.185h-.54c-.513-2.7-1.026-3.429-3.159-3.429h-2.7v7.56h3.132c.918 0 1.161-.486 1.242-2.187h.54v5.13h-.54c-.054-1.701-.324-2.187-1.242-2.187h-3.132v7.128c0 .756.162 1.08 1.323 1.08h1.944c2.214 0 2.592-.783 3.24-3.672m14.172 2.403c.513 1.323.864 1.512 2.16 1.512v.594c-.432.108-1.026.162-1.539.162-1.188 0-2.322-.378-2.943-2.187l-1.377-3.942c-.567-1.62-1.242-2.754-3.132-2.754h-.567v5.778c0 1.971.27 2.16 1.755 2.322v.594c-1.647-.135-1.89-.162-2.781-.162s-1.134.027-2.781.162v-.594c1.485-.162 1.755-.351 1.755-2.322V3.051c0-1.836-.27-2.079-1.755-2.16V.297h5.751c3.132 0 5.076 1.809 5.076 4.617 0 2.511-2.052 4.266-4.509 4.536 1.107.189 2.619.918 3.429 3.024zm-5.859-15.255h-1.539v7.884h1.566c2.268 0 3.267-1.512 3.267-3.915 0-2.43-.999-3.969-3.294-3.969m10.925 17.55c-.81 0-1.35-.594-1.35-1.377s.54-1.377 1.35-1.377 1.35.594 1.35 1.377-.54 1.377-1.35 1.377M11.205 27.297l.351 4.428h-.54c-.54-2.916-.972-3.672-3.132-3.672h-1.08v14.418c0 1.998.297 2.16 1.944 2.322v.594c-1.242-.108-2.025-.162-2.97-.162s-1.728.054-2.97.162v-.594c1.647-.162 1.944-.324 1.944-2.322V28.053h-1.08c-2.16 0-2.592.756-3.132 3.672H0l.351-4.428zm8.777 18.306c-3.429 0-6.264-3.213-6.264-9.288s2.835-9.288 6.264-9.288 6.264 3.213 6.264 9.288-2.835 9.288-6.264 9.288m0-.702c2.754 0 4.077-3.267 4.077-8.586s-1.323-8.586-4.077-8.586-4.077 3.267-4.077 8.586 1.323 8.586 4.077 8.586m19.604-4.455-.702 4.887h-10.07v-.594c1.484-.081 1.754-.324 1.754-2.16v-12.42c0-1.971-.27-2.16-1.755-2.322v-.594c1.647.135 1.89.162 2.781.162.945 0 1.323-.027 2.943-.162v.594c-1.62.162-1.917.324-1.917 2.322v13.338c0 .756.162 1.08 1.323 1.08h1.62c1.863 0 2.781-.864 3.483-4.131zm3.816-10.287c0-1.971-.27-2.16-1.755-2.322v-.594c1.647.135 1.89.162 2.78.162.892 0 1.135-.027 2.782-.162v.594c-1.485.162-1.755.351-1.755 2.322v12.312c0 1.971.27 2.16 1.755 2.322v.594c-1.647-.135-1.89-.162-2.781-.162s-1.134.027-2.781.162v-.594c1.485-.162 1.755-.351 1.755-2.322zm17.564 12.987c.702 1.161 1.053 1.485 2.187 1.647v.594c-1.134-.135-1.674-.162-2.592-.162-.972 0-1.809.027-3.024.162v-.594c1.431-.162 1.89-.243.945-1.863l-3.996-6.804h-.945v6.345c0 1.971.27 2.16 1.755 2.322v.594c-1.647-.135-1.89-.162-2.78-.162-.892 0-1.135.027-2.782.162v-.594c1.485-.162 1.755-.351 1.755-2.322V30.159c0-1.971-.27-2.16-1.755-2.322v-.594c1.647.135 1.89.162 2.781.162s1.134-.027 2.781-.162v.594c-1.485.162-1.755.351-1.755 2.322v5.211h.945l4.077-5.832c.945-1.35.324-1.566-1.16-1.701v-.594c1.025.108 1.781.162 2.564.162.702 0 1.431-.054 2.376-.162v.594c-1.404.162-1.836.216-2.862 1.701l-3.564 5.103zm24.038-.675c.054 1.971.351 2.16 1.836 2.322v.594c-1.647-.135-1.89-.162-2.781-.162h-.054c-.945 0-1.62.054-2.916.162v-.594c1.647-.162 1.917-.324 1.863-2.322l-.378-12.987-4.698 15.498h-.324l-4.617-15.471-.405 12.96c-.054 1.998.216 2.16 1.863 2.322v.594c-1.026-.108-1.566-.162-2.295-.162h-.027c-.675 0-1.35.081-2.133.162v-.594c1.485-.162 1.782-.351 1.836-2.322l.378-12.312c.054-1.971-.189-2.16-1.674-2.322v-.594c1.647.135 1.89.162 2.511.162.675 0 1.053-.027 1.458-.081l3.942 13.338 4.023-13.338c.378.054.891.081 1.377.081.621 0 .864-.027 2.511-.135v.594c-1.485.135-1.728.324-1.674 2.295zm10.423 3.132c-3.429 0-6.264-3.213-6.264-9.288s2.835-9.288 6.264-9.288 6.264 3.213 6.264 9.288-2.835 9.288-6.264 9.288m0-.702c2.754 0 4.077-3.267 4.077-8.586s-1.323-8.586-4.077-8.586-4.077 3.267-4.077 8.586 1.323 8.586 4.077 8.586m14.878-19.629h-1.107l-2.916-3.105h.783l2.673 1.62 2.673-1.62h.783zm3.915 15.093h.54l-.594 4.968h-10.395v-.216l8.37-17.064h-3.537c-2.106 0-2.619.81-3.132 3.807h-.54l.351-4.563h9.369v.216l-8.37 17.064h4.293c2.484 0 2.916-.891 3.645-4.212m14.021-12.96c.675 0 1.35-.081 2.133-.162v.594c-1.485.162-1.755.351-1.755 2.322v15.444h-.324l-8.613-15.93v12.798c0 1.998.297 2.16 1.971 2.322v.594c-.729-.081-1.539-.162-2.268-.162h-.081c-.675 0-1.35.081-2.133.162v-.594c1.485-.162 1.755-.351 1.755-2.322V28.593c-.27-.351-.729-.594-1.755-.729v-.594c1.08.108 1.404.135 2.079.135.486 0 .945-.027 1.431-.081l7.182 13.257V30.186c0-1.998-.297-2.187-1.971-2.349v-.594c.837.108 1.539.162 2.268.162zm10.828 18.198c-3.429 0-6.264-3.213-6.264-9.288s2.835-9.288 6.264-9.288 6.264 3.213 6.264 9.288-2.835 9.288-6.264 9.288m0-.702c2.754 0 4.077-3.267 4.077-8.586s-1.323-8.586-4.077-8.586-4.077 3.267-4.077 8.586 1.323 8.586 4.077 8.586m16.089-9.099c1.89 1.107 3.024 2.511 3.024 4.86a4.93 4.93 0 0 1-4.968 4.941c-1.539 0-2.916-.675-3.645-1.647l-.702 1.782h-.378v-6.183h.54c.459 3.348 1.647 5.346 4.104 5.346 2.079 0 3.294-1.215 3.294-3.186 0-2.052-1.053-3.159-2.781-4.185l-1.971-1.161c-1.836-1.08-3.024-2.43-3.024-4.806 0-2.916 2.214-4.536 4.401-4.536 1.539 0 2.727.864 3.348 1.809l.54-1.836h.378v5.4h-.486c-.432-2.619-1.62-4.671-3.672-4.671-1.809 0-2.862 1.242-2.862 3.132 0 1.728.945 2.646 2.511 3.564zm16.455-8.505.351 4.428h-.54c-.54-2.916-.972-3.672-3.132-3.672h-1.08v14.418c0 1.998.297 2.16 1.944 2.322v.594c-1.242-.108-2.025-.162-2.97-.162s-1.728.054-2.97.162v-.594c1.647-.162 1.944-.324 1.944-2.322V28.053h-1.08c-2.16 0-2.592.756-3.132 3.672h-.54l.351-4.428zm3.912-1.782 2.43-2.916c.405-.486.648-.702 1.134-.702.432 0 .891.378.891.945 0 .27-.054.648-.837 1.08l-2.835 1.593zm.351 4.644c0-1.971-.27-2.16-1.755-2.322v-.594c1.647.135 1.89.162 2.781.162s1.134-.027 2.781-.162v.594c-1.485.162-1.755.351-1.755 2.322v12.312c0 1.971.27 2.16 1.755 2.322v.594c-1.647-.135-1.89-.162-2.781-.162s-1.134.027-2.781.162v-.594c1.485-.162 1.755-.351 1.755-2.322zm7.844 15.444c-.81 0-1.35-.594-1.35-1.377s.54-1.377 1.35-1.377 1.35.594 1.35 1.377-.54 1.377-1.35 1.377"/></svg>