<svg xmlns="http://www.w3.org/2000/svg" fill="none" viewBox="0 0 217 51"><path fill="#000" d="M38.106 5.508c.675 0 1.35-.081 2.133-.162v.594c-1.485.162-1.755.351-1.755 2.322v15.444h-.324l-8.613-15.93v12.798c0 1.998.297 2.16 1.971 2.322v.594c-.729-.081-1.539-.162-2.268-.162h-.081c-.675 0-1.35.081-2.133.162v-.594c1.485-.162 1.755-.351 1.755-2.322V6.696c-.27-.351-.729-.594-1.755-.729v-.594c1.08.108 1.404.135 2.079.135.486 0 .945-.027 1.431-.081l7.182 13.257V8.289c0-1.998-.297-2.187-1.971-2.349v-.594c.837.108 1.539.162 2.268.162zm15.122 15.201c.62 1.944.81 2.025 2.025 2.187v.594c-1.161-.108-1.701-.162-2.565-.162-.837 0-1.54.054-2.835.162v-.594c1.485-.162 1.809-.27 1.215-2.214l-.837-2.754h-5.184l-.783 2.754c-.54 1.917-.27 2.052 1.215 2.214v.594c-.73-.081-1.593-.162-2.214-.162s-1.134.081-1.836.162v-.594c1.269-.162 1.539-.432 2.052-2.214l4.4-15.552h.325zm-7.965-3.537h4.725l-2.43-7.938zM66.09 5.508c.54 0 1.161-.054 1.836-.162v.594c-1.269.162-1.62.432-2.133 2.214l-4.455 15.552h-.324l-4.86-15.579c-.594-1.944-.891-2.025-2.106-2.187v-.594c1.107.108 1.701.162 2.538.162.864 0 1.566-.054 2.943-.162v.594c-1.593.162-1.728.297-1.161 2.214l3.348 11.313L65.01 8.154c.567-1.89.432-2.052-1.161-2.214v-.594c.783.081 1.593.162 2.241.162m8.674-2.133h-1.107L70.74.27h.783l2.673 1.62L76.87.27h.783zm1.458 10.53c1.89 1.107 3.024 2.511 3.024 4.86a4.93 4.93 0 0 1-4.968 4.941c-1.54 0-2.916-.675-3.645-1.647l-.702 1.782h-.378v-6.183h.54c.459 3.348 1.647 5.346 4.104 5.346 2.079 0 3.294-1.215 3.294-3.186 0-2.052-1.053-3.159-2.781-4.185l-1.971-1.161c-1.836-1.08-3.024-2.43-3.024-4.806 0-2.916 2.214-4.536 4.4-4.536 1.54 0 2.728.864 3.349 1.809l.54-1.836h.378v5.4h-.486c-.432-2.619-1.62-4.671-3.672-4.671-1.81 0-2.862 1.242-2.862 3.132 0 1.728.945 2.646 2.51 3.564zM92.677 5.4l.351 4.428h-.54c-.54-2.916-.972-3.672-3.132-3.672h-1.08v14.418c0 1.998.297 2.16 1.944 2.322v.594c-1.242-.108-2.025-.162-2.97-.162s-1.728.054-2.97.162v-.594c1.647-.162 1.944-.324 1.944-2.322V6.156h-1.08c-2.16 0-2.592.756-3.132 3.672h-.54l.351-4.428zm4.263 2.862c0-1.971-.27-2.16-1.755-2.322v-.594c1.647.135 1.89.162 2.78.162.892 0 1.135-.027 2.782-.162v.594c-1.485.162-1.755.351-1.755 2.322v12.312c0 1.971.27 2.16 1.755 2.322v.594c-1.647-.135-1.89-.162-2.781-.162s-1.134.027-2.781.162v-.594c1.485-.162 1.755-.351 1.755-2.322zm17.267-2.754c.54 0 1.161-.054 1.836-.162v.594c-1.269.162-1.62.432-2.133 2.214l-4.455 15.552h-.324l-4.86-15.579c-.594-1.944-.891-2.025-2.106-2.187v-.594c1.107.108 1.701.162 2.538.162.864 0 1.566-.054 2.943-.162v.594c-1.593.162-1.728.297-1.161 2.214l3.348 11.313 3.294-11.313c.567-1.89.432-2.052-1.161-2.214v-.594c.783.081 1.593.162 2.241.162m14.202-.108.351 4.428h-.54c-.54-2.916-.972-3.672-3.132-3.672h-1.08v14.418c0 1.998.297 2.16 1.944 2.322v.594c-1.242-.108-2.025-.162-2.97-.162s-1.728.054-2.97.162v-.594c1.647-.162 1.944-.324 1.944-2.322V6.156h-1.08c-2.16 0-2.592.756-3.132 3.672h-.54l.351-4.428zm12.821 13.608h.54l-.459 4.428h-10.395v-.594c1.485-.081 1.755-.324 1.755-2.16V8.154c0-1.836-.27-2.079-1.755-2.16V5.4h9.828l.378 4.185h-.54c-.513-2.7-1.026-3.429-3.159-3.429h-2.7v7.56h3.132c.918 0 1.161-.486 1.242-2.187h.54v5.13h-.54c-.054-1.701-.324-2.187-1.242-2.187h-3.132V21.6c0 .756.162 1.08 1.323 1.08h1.944c2.214 0 2.592-.783 3.24-3.672m19.805-13.5c.675 0 1.35-.081 2.133-.162v.594c-1.485.162-1.755.351-1.755 2.322v15.444h-.324l-8.613-15.93v12.798c0 1.998.297 2.16 1.971 2.322v.594c-.729-.081-1.539-.162-2.268-.162h-.081c-.675 0-1.35.081-2.133.162v-.594c1.485-.162 1.755-.351 1.755-2.322V6.696c-.27-.351-.729-.594-1.755-.729v-.594c1.08.108 1.404.135 2.079.135.486 0 .945-.027 1.431-.081l7.182 13.257V8.289c0-1.998-.297-2.187-1.971-2.349v-.594c.837.108 1.539.162 2.268.162zm12.179-3.483-2.835 1.593h-.783l2.43-2.916c.405-.486.648-.702 1.134-.702.432 0 .891.378.891.945 0 .27-.054.648-.837 1.08m2.943 18.684c.621 1.944.81 2.025 2.025 2.187v.594c-1.161-.108-1.701-.162-2.565-.162-.837 0-1.539.054-2.835.162v-.594c1.485-.162 1.809-.27 1.215-2.214l-.837-2.754h-5.184l-.783 2.754c-.54 1.917-.27 2.052 1.215 2.214v.594c-.729-.081-1.593-.162-2.214-.162s-1.134.081-1.836.162v-.594c1.269-.162 1.539-.432 2.052-2.214l4.401-15.552h.324zm-7.965-3.537h4.725l-2.43-7.938zM185.15 3.375h-1.107L181.127.27h.783l2.673 1.62 2.673-1.62h.783zm1.458 10.53c1.89 1.107 3.024 2.511 3.024 4.86a4.93 4.93 0 0 1-4.968 4.941c-1.539 0-2.916-.675-3.645-1.647l-.702 1.782h-.378v-6.183h.54c.459 3.348 1.647 5.346 4.104 5.346 2.079 0 3.294-1.215 3.294-3.186 0-2.052-1.053-3.159-2.781-4.185l-1.971-1.161c-1.836-1.08-3.024-2.43-3.024-4.806 0-2.916 2.214-4.536 4.401-4.536 1.539 0 2.727.864 3.348 1.809l.54-1.836h.378v5.4h-.486c-.432-2.619-1.62-4.671-3.672-4.671-1.809 0-2.862 1.242-2.862 3.132 0 1.728.945 2.646 2.511 3.564zM6.264 50.706C2.835 50.706 0 47.493 0 41.418s2.835-9.288 6.264-9.288 6.264 3.213 6.264 9.288-2.835 9.288-6.264 9.288m0-.702c2.754 0 4.077-3.267 4.077-8.586s-1.323-8.586-4.077-8.586-4.077 3.267-4.077 8.586 1.323 8.586 4.077 8.586m19.901-17.496c.675 0 1.35-.081 2.133-.162v.594c-1.485.162-1.755.351-1.755 2.322v15.444h-.324l-8.613-15.93v12.798c0 1.998.297 2.16 1.971 2.322v.594c-.729-.081-1.539-.162-2.268-.162h-.08c-.676 0-1.35.081-2.134.162v-.594c1.485-.162 1.755-.351 1.755-2.322V33.696c-.27-.351-.729-.594-1.755-.729v-.594c1.08.108 1.404.135 2.08.135.485 0 .944-.027 1.43-.081l7.182 13.257V35.289c0-1.998-.297-2.187-1.97-2.349v-.594c.836.108 1.538.162 2.267.162zM41.47 45.549l-.702 4.887h-10.07v-.594c1.484-.081 1.754-.324 1.754-2.16v-12.42c0-1.971-.27-2.16-1.755-2.322v-.594c1.647.135 1.89.162 2.781.162.945 0 1.323-.027 2.943-.162v.594c-1.62.162-1.917.324-1.917 2.322V48.6c0 .756.162 1.08 1.323 1.08h1.62c1.863 0 2.781-.864 3.483-4.131zm3.816-10.287c0-1.971-.27-2.16-1.755-2.322v-.594c1.647.135 1.89.162 2.78.162.892 0 1.135-.027 2.782-.162v.594c-1.485.162-1.755.351-1.755 2.322v12.312c0 1.971.27 2.16 1.755 2.322v.594c-1.647-.135-1.89-.162-2.781-.162s-1.134.027-2.781.162v-.594c1.485-.162 1.755-.351 1.755-2.322zm17.402-2.754c.675 0 1.35-.081 2.133-.162v.594c-1.485.162-1.755.351-1.755 2.322v15.444h-.324l-8.613-15.93v12.798c0 1.998.297 2.16 1.971 2.322v.594c-.729-.081-1.539-.162-2.268-.162h-.08c-.676 0-1.35.081-2.134.162v-.594c1.485-.162 1.755-.351 1.755-2.322V33.696c-.27-.351-.729-.594-1.755-.729v-.594c1.08.108 1.404.135 2.08.135.485 0 .944-.027 1.43-.081l7.182 13.257V35.289c0-1.998-.297-2.187-1.97-2.349v-.594c.836.108 1.538.162 2.267.162zm14.846 13.5h.54l-.459 4.428H67.22v-.594c1.485-.081 1.755-.324 1.755-2.16V35.154c0-1.836-.27-2.079-1.755-2.16V32.4h9.828l.378 4.185h-.54c-.513-2.7-1.026-3.429-3.159-3.429h-2.7v7.56h3.132c.918 0 1.161-.486 1.242-2.187h.54v5.13h-.54c-.054-1.701-.324-2.187-1.242-2.187h-3.132V48.6c0 .756.162 1.08 1.323 1.08h1.944c2.214 0 2.592-.783 3.24-3.672m15.782-5.103c1.89 1.107 3.024 2.511 3.024 4.86a4.93 4.93 0 0 1-4.968 4.941c-1.54 0-2.916-.675-3.645-1.647l-.702 1.782h-.378v-6.183h.54c.459 3.348 1.647 5.346 4.104 5.346 2.079 0 3.294-1.215 3.294-3.186 0-2.052-1.053-3.159-2.781-4.185l-1.971-1.161c-1.836-1.08-3.024-2.43-3.024-4.806 0-2.916 2.214-4.536 4.4-4.536 1.54 0 2.728.864 3.349 1.809l.54-1.836h.378v5.4h-.486c-.432-2.619-1.62-4.671-3.672-4.671-1.81 0-2.862 1.242-2.862 3.132 0 1.728.945 2.646 2.51 3.564zm19.371-7.965c-1.485.162-1.755.351-1.755 2.322v12.312c0 1.971.27 2.16 1.755 2.322v.594c-1.647-.135-1.89-.162-2.781-.162s-1.134.027-2.781.162v-.594c1.485-.162 1.755-.351 1.755-2.322v-6.075h-6.129v6.075c0 1.971.27 2.16 1.755 2.322v.594c-1.647-.135-1.89-.162-2.781-.162s-1.134.027-2.781.162v-.594c1.485-.162 1.755-.351 1.755-2.322V35.262c0-1.971-.27-2.16-1.755-2.322v-.594c1.647.135 1.89.162 2.781.162s1.134-.027 2.781-.162v.594c-1.485.162-1.755.351-1.755 2.322v5.481h6.129v-5.481c0-1.971-.27-2.16-1.755-2.322v-.594c1.647.135 1.89.162 2.781.162s1.134-.027 2.781-.162zm8.841 17.766c-3.429 0-6.264-3.213-6.264-9.288s2.835-9.288 6.264-9.288 6.264 3.213 6.264 9.288-2.835 9.288-6.264 9.288m0-.702c2.754 0 4.077-3.267 4.077-8.586s-1.323-8.586-4.077-8.586-4.077 3.267-4.077 8.586 1.323 8.586 4.077 8.586m24.924-17.496c.567 0 1.134-.054 1.782-.162v.594c-1.161.162-1.431.351-1.836 2.268l-3.267 15.498h-.324l-4.023-13.959-3.834 13.959h-.324l-3.537-15.525c-.432-1.917-.675-2.079-1.782-2.241v-.594c1.269.135 1.647.162 2.376.162.918 0 1.431-.027 2.835-.162v.594c-1.62.162-1.674.297-1.269 2.268l2.241 10.611 3.699-13.689h.324l3.888 13.662 2.214-10.584c.405-1.944.324-2.106-1.296-2.268v-.594c.783.108 1.431.162 2.133.162m14.537 15.903c.513 1.323.864 1.512 2.16 1.512v.594c-.432.108-1.026.162-1.539.162-1.188 0-2.322-.378-2.943-2.187l-1.377-3.942c-.567-1.62-1.242-2.754-3.132-2.754h-.567v5.778c0 1.971.27 2.16 1.755 2.322v.594c-1.647-.135-1.89-.162-2.781-.162s-1.134.027-2.781.162v-.594c1.485-.162 1.755-.351 1.755-2.322v-12.42c0-1.836-.27-2.079-1.755-2.16V32.4h5.751c3.132 0 5.076 1.809 5.076 4.617 0 2.511-2.052 4.266-4.509 4.536 1.107.189 2.619.918 3.429 3.024zm-5.859-15.255h-1.539v7.884h1.566c2.268 0 3.267-1.512 3.267-3.915 0-2.43-.999-3.969-3.294-3.969m15.471 17.55c-3.429 0-6.264-3.213-6.264-9.288s2.835-9.288 6.264-9.288 6.264 3.213 6.264 9.288-2.835 9.288-6.264 9.288m0-.702c2.754 0 4.077-3.267 4.077-8.586s-1.323-8.586-4.077-8.586-4.077 3.267-4.077 8.586 1.323 8.586 4.077 8.586m15.549.702c-3.429 0-6.264-3.213-6.264-9.288s2.835-9.288 6.264-9.288 6.264 3.213 6.264 9.288-2.835 9.288-6.264 9.288m0-.702c2.754 0 4.077-3.267 4.077-8.586s-1.323-8.586-4.077-8.586-4.077 3.267-4.077 8.586 1.323 8.586 4.077 8.586m23.655-2.43c.054 1.971.351 2.16 1.836 2.322v.594c-1.647-.135-1.89-.162-2.781-.162h-.054c-.945 0-1.62.054-2.916.162v-.594c1.647-.162 1.917-.324 1.863-2.322l-.378-12.987-4.698 15.498h-.324l-4.617-15.471-.405 12.96c-.054 1.998.216 2.16 1.863 2.322v.594c-1.026-.108-1.566-.162-2.295-.162h-.027c-.675 0-1.35.081-2.133.162v-.594c1.485-.162 1.782-.351 1.836-2.322l.378-12.312c.054-1.971-.189-2.16-1.674-2.322v-.594c1.647.135 1.89.162 2.511.162.675 0 1.053-.027 1.458-.081l3.942 13.338 4.023-13.338c.378.054.891.081 1.377.081.621 0 .864-.027 2.511-.135v.594c-1.485.135-1.728.324-1.674 2.295zm5.666 3.132c-.81 0-1.35-.594-1.35-1.377s.54-1.377 1.35-1.377 1.35.594 1.35 1.377-.54 1.377-1.35 1.377"/></svg>