<svg xmlns="http://www.w3.org/2000/svg" fill="none" viewBox="0 0 139 51"><path fill="#000" d="M35.837 5.508c.675 0 1.35-.081 2.133-.162v.594c-1.485.162-1.755.351-1.755 2.322v15.444h-.324l-8.613-15.93v12.798c0 1.998.297 2.16 1.97 2.322v.594c-.728-.081-1.538-.162-2.267-.162H26.9c-.675 0-1.35.081-2.133.162v-.594c1.485-.162 1.755-.351 1.755-2.322V6.696c-.27-.351-.73-.594-1.755-.729v-.594c1.08.108 1.404.135 2.079.135.486 0 .945-.027 1.43-.081l7.183 13.257V8.289c0-1.998-.297-2.187-1.971-2.349v-.594c.837.108 1.539.162 2.268.162zm15.121 15.201c.621 1.944.81 2.025 2.025 2.187v.594c-1.16-.108-1.7-.162-2.565-.162-.837 0-1.539.054-2.835.162v-.594c1.485-.162 1.81-.27 1.215-2.214l-.837-2.754h-5.184l-.783 2.754c-.54 1.917-.27 2.052 1.215 2.214v.594c-.729-.081-1.593-.162-2.214-.162-.62 0-1.134.081-1.836.162v-.594c1.27-.162 1.54-.432 2.052-2.214L45.612 5.13h.324zm-7.965-3.537h4.725l-2.43-7.938zm31.169 3.402c.054 1.971.35 2.16 1.836 2.322v.594c-1.647-.135-1.89-.162-2.781-.162h-.054c-.945 0-1.62.054-2.916.162v-.594c1.647-.162 1.917-.324 1.863-2.322l-.378-12.987-4.698 15.498h-.324L62.093 7.614l-.405 12.96c-.054 1.998.216 2.16 1.863 2.322v.594c-1.026-.108-1.566-.162-2.295-.162h-.027c-.675 0-1.35.081-2.133.162v-.594c1.485-.162 1.782-.351 1.836-2.322l.378-12.312c.054-1.971-.19-2.16-1.674-2.322v-.594c1.647.135 1.89.162 2.51.162.676 0 1.054-.027 1.459-.081l3.942 13.338L71.57 5.427c.378.054.89.081 1.377.081.62 0 .864-.027 2.51-.135v.594c-1.484.135-1.727.324-1.673 2.295zm5.557-16.956L82.15.702C82.554.216 82.797 0 83.283 0c.432 0 .891.378.891.945 0 .27-.054.648-.837 1.08l-2.835 1.593zm.351 4.644c0-1.971-.27-2.16-1.755-2.322v-.594c1.647.135 1.89.162 2.781.162s1.134-.027 2.781-.162v.594c-1.485.162-1.755.351-1.755 2.322v12.312c0 1.971.27 2.16 1.755 2.322v.594c-1.647-.135-1.89-.162-2.78-.162-.892 0-1.135.027-2.782.162v-.594c1.485-.162 1.755-.351 1.755-2.322zm17.538 13.149c.513 1.323.864 1.512 2.16 1.512v.594c-.432.108-1.026.162-1.54.162-1.187 0-2.321-.378-2.942-2.187l-1.377-3.942c-.567-1.62-1.242-2.754-3.132-2.754h-.567v5.778c0 1.971.27 2.16 1.755 2.322v.594c-1.647-.135-1.89-.162-2.781-.162s-1.134.027-2.781.162v-.594c1.485-.162 1.755-.351 1.755-2.322V8.154c0-1.836-.27-2.079-1.755-2.16V5.4h5.75c3.133 0 5.077 1.809 5.077 4.617 0 2.511-2.052 4.266-4.51 4.536 1.108.189 2.62.918 3.43 3.024zm-5.86-15.255H90.21v7.884h1.566c2.268 0 3.267-1.512 3.267-3.915 0-2.43-1-3.969-3.294-3.969m19.768 2.106c0-1.971-.27-2.16-1.755-2.322v-.594c.783.081 1.458.162 2.133.162s1.35-.081 2.133-.162v.594c-1.485.162-1.755.351-1.755 2.322v10.179c0 3.483-1.836 5.265-4.941 5.265-3.24 0-5.238-1.917-5.238-5.076V8.262c0-1.971-.27-2.16-1.755-2.322v-.594c1.647.135 1.89.162 2.781.162s1.134-.027 2.781-.162v.594c-1.485.162-1.755.351-1.755 2.322V18.36c0 2.997 1.377 4.293 3.537 4.293 2.484 0 3.834-1.296 3.834-4.293zM5.508 32.4c3.861 0 7.02 3.51 7.02 9.018s-3.159 9.018-7.02 9.018H0v-.594c1.485-.081 1.755-.324 1.755-2.16V35.154c0-1.836-.27-2.079-1.755-2.16V32.4zM5.13 49.68h.162c3.429 0 5.049-3.429 5.049-8.262s-1.62-8.262-5.049-8.262H3.807V48.6c0 .756.162 1.08 1.323 1.08m16.663 1.026c-3.43 0-6.264-3.213-6.264-9.288s2.835-9.288 6.264-9.288 6.264 3.213 6.264 9.288-2.835 9.288-6.264 9.288m0-.702c2.754 0 4.077-3.267 4.077-8.586s-1.323-8.586-4.077-8.586-4.077 3.267-4.077 8.586 1.323 8.586 4.077 8.586m20.1-9.369c2.08.459 3.97 2.025 3.97 4.941 0 3.321-2.403 5.13-5.05 5.13-2.348 0-4.184-1.701-4.184-4.428h.675c0 2.16 1.512 3.645 3.213 3.645 2.214 0 3.267-1.89 3.267-4.455 0-2.619-1.107-4.401-3.483-4.401h-.621v-.675h.62c2.188 0 2.944-2.106 2.944-3.942 0-1.647-.621-3.618-2.727-3.618-1.782 0-2.754 1.701-2.754 3.402h-.675c0-2.106 1.242-4.104 3.834-4.104 2.619 0 4.374 1.782 4.374 4.158 0 2.295-1.647 3.807-3.402 4.347m27.395 6.939c.054 1.971.35 2.16 1.836 2.322v.594c-1.647-.135-1.89-.162-2.781-.162h-.054c-.945 0-1.62.054-2.916.162v-.594c1.647-.162 1.917-.324 1.863-2.322l-.378-12.987-4.698 15.498h-.324l-4.617-15.471-.405 12.96c-.054 1.998.216 2.16 1.863 2.322v.594c-1.026-.108-1.566-.162-2.295-.162h-.027c-.675 0-1.35.081-2.133.162v-.594c1.485-.162 1.782-.351 1.836-2.322l.378-12.312c.054-1.971-.19-2.16-1.674-2.322v-.594c1.647.135 1.89.162 2.51.162.676 0 1.054-.027 1.459-.081l3.942 13.338 4.023-13.338c.378.054.89.081 1.377.081.62 0 .864-.027 2.51-.135v.594c-1.484.135-1.727.324-1.673 2.295zm10.417-17.199h-1.107l-2.916-3.105h.783l2.673 1.62 2.673-1.62h.783zm4.05 15.633h.54l-.459 4.428H73.441v-.594c1.485-.081 1.755-.324 1.755-2.16V35.154c0-1.836-.27-2.079-1.755-2.16V32.4h9.828l.378 4.185h-.54c-.513-2.7-1.026-3.429-3.159-3.429h-2.7v7.56h3.132c.918 0 1.161-.486 1.242-2.187h.54v5.13h-.54c-.054-1.701-.324-2.187-1.242-2.187h-3.132V48.6c0 .756.162 1.08 1.323 1.08h1.944c2.214 0 2.592-.783 3.24-3.672m10.015-5.103c1.89 1.107 3.024 2.511 3.024 4.86a4.93 4.93 0 0 1-4.968 4.941c-1.54 0-2.916-.675-3.645-1.647l-.702 1.782H87.1v-6.183h.54c.459 3.348 1.647 5.346 4.104 5.346 2.079 0 3.294-1.215 3.294-3.186 0-2.052-1.053-3.159-2.781-4.185l-1.971-1.161c-1.836-1.08-3.024-2.43-3.024-4.806 0-2.916 2.214-4.536 4.4-4.536 1.54 0 2.728.864 3.349 1.809l.54-1.836h.378v5.4h-.486c-.432-2.619-1.62-4.671-3.672-4.671-1.81 0-2.862 1.242-2.862 3.132 0 1.728.945 2.646 2.51 3.564zm7.032-10.287 2.43-2.916c.405-.486.648-.702 1.134-.702.432 0 .891.378.891.945 0 .27-.054.648-.837 1.08l-2.835 1.593zm.351 4.644c0-1.971-.27-2.16-1.755-2.322v-.594c1.647.135 1.89.162 2.781.162s1.134-.027 2.781-.162v.594c-1.485.162-1.755.351-1.755 2.322v12.312c0 1.971.27 2.16 1.755 2.322v.594c-1.647-.135-1.89-.162-2.781-.162s-1.134.027-2.781.162v-.594c1.485-.162 1.755-.351 1.755-2.322zm16.543 9.045h.702c-.216 4.509-2.241 6.399-4.806 6.399-3.429 0-6.048-3.24-6.048-9.288s2.754-9.288 6.129-9.288c1.593 0 2.781.783 3.456 1.728l.594-1.728h.378v5.67h-.486c-.621-3.456-1.836-4.968-3.942-4.968-2.673 0-3.942 3.213-3.942 8.586 0 5.481 1.35 8.343 4.266 8.343 1.809 0 3.483-1.485 3.699-5.454m10.408-13.689c-1.215 0-2.187-.945-2.187-2.16s.972-2.16 2.187-2.16 2.187.945 2.187 2.16-.972 2.16-2.187 2.16m0-.702c.783 0 1.404-.594 1.404-1.458S128.887 27 128.104 27s-1.404.594-1.404 1.458.621 1.458 1.404 1.458m3.915 5.346c0-1.971-.27-2.16-1.755-2.322v-.594c.783.081 1.458.162 2.133.162s1.35-.081 2.133-.162v.594c-1.485.162-1.755.351-1.755 2.322v10.179c0 3.483-1.836 5.265-4.941 5.265-3.24 0-5.238-1.917-5.238-5.076V35.262c0-1.971-.27-2.16-1.755-2.322v-.594c1.647.135 1.89.162 2.781.162s1.134-.027 2.781-.162v.594c-1.485.162-1.755.351-1.755 2.322V45.36c0 2.997 1.377 4.293 3.537 4.293 2.484 0 3.834-1.296 3.834-4.293zm5.071 15.444c-.81 0-1.35-.594-1.35-1.377s.54-1.377 1.35-1.377 1.35.594 1.35 1.377-.54 1.377-1.35 1.377"/></svg>