<svg xmlns="http://www.w3.org/2000/svg" fill="none" viewBox="0 0 172 51"><path fill="#000" d="M6.669 13.905c1.89 1.107 3.024 2.511 3.024 4.86a4.93 4.93 0 0 1-4.968 4.941c-1.539 0-2.916-.675-3.645-1.647l-.702 1.782H0v-6.183h.54c.459 3.348 1.647 5.346 4.104 5.346 2.079 0 3.294-1.215 3.294-3.186 0-2.052-1.053-3.159-2.781-4.185l-1.971-1.161C1.35 13.392.162 12.042.162 9.666c0-2.916 2.214-4.536 4.401-4.536 1.539 0 2.727.864 3.348 1.809l.54-1.836h.378v5.4h-.486c-.432-2.619-1.62-4.671-3.672-4.671-1.809 0-2.862 1.242-2.862 3.132 0 1.728.945 2.646 2.511 3.564zm16.86 7.344c.702 1.161 1.053 1.485 2.187 1.647v.594c-1.134-.135-1.674-.162-2.592-.162-.972 0-1.809.027-3.024.162v-.594c1.431-.162 1.89-.243.945-1.863l-3.996-6.804h-.945v6.345c0 1.971.27 2.16 1.755 2.322v.594c-1.647-.135-1.89-.162-2.78-.162-.892 0-1.135.027-2.782.162v-.594c1.485-.162 1.755-.351 1.755-2.322V8.262c0-1.971-.27-2.16-1.755-2.322v-.594c1.647.135 1.89.162 2.781.162s1.134-.027 2.781-.162v.594c-1.485.162-1.755.351-1.755 2.322v5.211h.945l4.077-5.832c.945-1.35.324-1.566-1.16-1.701v-.594c1.025.108 1.781.162 2.564.162.702 0 1.431-.054 2.376-.162v.594c-1.404.162-1.836.216-2.862 1.701l-3.564 5.103zm14.642-2.7-.702 4.887H27.4v-.594c1.484-.081 1.754-.324 1.754-2.16V8.262c0-1.971-.27-2.16-1.755-2.322v-.594c1.647.135 1.89.162 2.781.162.945 0 1.323-.027 2.943-.162v.594c-1.62.162-1.917.324-1.917 2.322V21.6c0 .756.162 1.08 1.323 1.08h1.62c1.863 0 2.781-.864 3.483-4.131zm12.888 2.16c.62 1.944.81 2.025 2.025 2.187v.594c-1.161-.108-1.701-.162-2.565-.162-.837 0-1.54.054-2.835.162v-.594c1.485-.162 1.809-.27 1.215-2.214l-.837-2.754h-5.184l-.783 2.754c-.54 1.917-.27 2.052 1.215 2.214v.594c-.73-.081-1.593-.162-2.214-.162s-1.134.081-1.836.162v-.594c1.269-.162 1.539-.432 2.052-2.214l4.4-15.552h.325zm-7.965-3.537h4.725l-2.43-7.938zM59.97 5.4c3.86 0 7.02 3.51 7.02 9.018s-3.16 9.018-7.02 9.018h-5.508v-.594c1.485-.081 1.755-.324 1.755-2.16V8.154c0-1.836-.27-2.079-1.755-2.16V5.4zm-.378 17.28h.162c3.429 0 5.049-3.429 5.049-8.262s-1.62-8.262-5.05-8.262H58.27V21.6c0 .756.162 1.08 1.323 1.08m16.662 1.026c-3.429 0-6.264-3.213-6.264-9.288s2.835-9.288 6.264-9.288 6.264 3.213 6.264 9.288-2.835 9.288-6.264 9.288m0-.702c2.754 0 4.077-3.267 4.077-8.586s-1.323-8.586-4.077-8.586-4.077 3.267-4.077 8.586 1.323 8.586 4.077 8.586M95.758 5.508c.54 0 1.16-.054 1.836-.162v.594c-1.27.162-1.62.432-2.133 2.214l-4.455 15.552h-.324l-4.86-15.579c-.594-1.944-.891-2.025-2.106-2.187v-.594c1.107.108 1.7.162 2.538.162.864 0 1.566-.054 2.943-.162v.594c-1.593.162-1.728.297-1.161 2.214l3.348 11.313 3.294-11.313c.567-1.89.432-2.052-1.161-2.214v-.594c.783.081 1.593.162 2.24.162m11.313-3.483-2.835 1.593h-.783l2.43-2.916c.405-.486.648-.702 1.134-.702.432 0 .891.378.891.945 0 .27-.054.648-.837 1.08m2.376 16.983h.54l-.459 4.428H99.133v-.594c1.485-.081 1.755-.324 1.755-2.16V8.154c0-1.836-.27-2.079-1.755-2.16V5.4h9.828l.378 4.185h-.54c-.513-2.7-1.026-3.429-3.159-3.429h-2.7v7.56h3.132c.918 0 1.161-.486 1.242-2.187h.54v5.13h-.54c-.054-1.701-.324-2.187-1.242-2.187h-3.132V21.6c0 .756.162 1.08 1.323 1.08h1.944c2.214 0 2.592-.783 3.24-3.672m18.852-13.5c.54 0 1.161-.054 1.836-.162v.594c-1.269.162-1.62.432-2.133 2.214l-4.455 15.552h-.324l-4.86-15.579c-.594-1.944-.891-2.025-2.106-2.187v-.594c1.107.108 1.701.162 2.538.162.864 0 1.566-.054 2.943-.162v.594c-1.593.162-1.728.297-1.161 2.214l3.348 11.313 3.294-11.313c.567-1.89.432-2.052-1.161-2.214v-.594c.783.081 1.593.162 2.241.162m9.249 18.198c-3.429 0-6.264-3.213-6.264-9.288s2.835-9.288 6.264-9.288 6.264 3.213 6.264 9.288-2.835 9.288-6.264 9.288m0-.702c2.754 0 4.077-3.267 4.077-8.586s-1.323-8.586-4.077-8.586-4.077 3.267-4.077 8.586 1.323 8.586 4.077 8.586m18.793-4.536h.54l-.594 4.968h-10.395v-.216l8.37-17.064h-3.537c-2.106 0-2.619.81-3.132 3.807h-.54l.351-4.563h9.369v.216l-8.37 17.064h4.293c2.484 0 2.916-.891 3.645-4.212m13.454-12.96a9.5 9.5 0 0 0 1.674-.162v.594c-1.188.162-1.485.216-2.295 2.079l-3.078 6.939v5.616c-.027 1.998.297 2.16 1.863 2.322v.594c-1.701-.135-1.971-.162-2.889-.162s-1.296.027-2.889.162v-.594c1.566-.162 1.89-.324 1.863-2.322v-5.319l-3.537-7.263c-.837-1.728-1.08-1.89-2.187-2.052v-.594c1.404.135 1.782.162 2.592.162.783 0 1.593-.054 2.727-.162v.594c-1.62.162-1.782.351-.945 2.025l2.997 5.994 2.673-5.94c.783-1.755.567-1.944-.891-2.079v-.594c.81.108 1.62.162 2.322.162M27.828 40.905c2.268.405 3.996 2.133 3.996 4.671 0 2.97-2.295 4.86-5.103 4.86h-6.21v-.594c1.485-.081 1.755-.324 1.755-2.16V35.154c0-1.836-.27-2.079-1.755-2.16V32.4h5.427c3.132 0 5.076 1.701 5.076 4.32 0 2.052-1.323 3.564-3.186 4.185m-2.268-7.749h-1.242v7.587h1.242c2.268 0 3.267-1.458 3.267-3.807 0-2.322-1-3.78-3.267-3.78m.89 16.524c2.215 0 3.187-1.566 3.187-4.104 0-2.511-.972-4.077-3.186-4.077h-2.133V48.6c0 .756.162 1.08 1.323 1.08zm18.21-3.672h.54l-.459 4.428H34.346v-.594c1.485-.081 1.755-.324 1.755-2.16V35.154c0-1.836-.27-2.079-1.755-2.16V32.4h9.828l.378 4.185h-.54c-.513-2.7-1.026-3.429-3.159-3.429h-2.7v7.56h3.132c.918 0 1.161-.486 1.242-2.187h.54v5.13h-.54c-.054-1.701-.324-2.187-1.242-2.187h-3.132V48.6c0 .756.162 1.08 1.323 1.08h1.944c2.214 0 2.592-.783 3.24-3.672m12.877-.54h.54l-.594 4.968H47.088v-.216l8.37-17.064H51.92c-2.106 0-2.62.81-3.132 3.807h-.54l.35-4.563h9.37v.216l-8.37 17.064h4.293c2.484 0 2.916-.891 3.645-4.212m15.548-15.093H71.98l-2.916-3.105h.782l2.674 1.62 2.672-1.62h.784zm3.592 13.932h.701c-.216 4.509-2.24 6.399-4.805 6.399-3.43 0-6.048-3.24-6.048-9.288s2.753-9.288 6.128-9.288c1.593 0 2.781.783 3.456 1.728l.595-1.728h.378v5.67h-.486c-.621-3.456-1.837-4.968-3.943-4.968-2.672 0-3.942 3.213-3.942 8.586 0 5.481 1.35 8.343 4.267 8.343 1.809 0 3.483-1.485 3.699-5.454m13.674 1.701h.54l-.459 4.428H80.037v-.594c1.485-.081 1.755-.324 1.755-2.16V35.154c0-1.836-.27-2.079-1.755-2.16V32.4h9.828l.378 4.185h-.54c-.513-2.7-1.026-3.429-3.159-3.429h-2.7v7.56h3.132c.918 0 1.161-.486 1.242-2.187h.54v5.13h-.54c-.054-1.701-.324-2.187-1.242-2.187h-3.132V48.6c0 .756.162 1.08 1.323 1.08h1.944c2.214 0 2.592-.783 3.24-3.672m14.2 2.241c.702 1.161 1.053 1.485 2.187 1.647v.594c-1.134-.135-1.674-.162-2.592-.162-.972 0-1.809.027-3.024.162v-.594c1.431-.162 1.89-.243.945-1.863l-3.996-6.804h-.945v6.345c0 1.971.27 2.16 1.755 2.322v.594c-1.647-.135-1.89-.162-2.781-.162s-1.134.027-2.781.162v-.594c1.485-.162 1.755-.351 1.755-2.322V35.262c0-1.971-.27-2.16-1.755-2.322v-.594c1.647.135 1.89.162 2.78.162.892 0 1.135-.027 2.782-.162v.594c-1.485.162-1.755.351-1.755 2.322v5.211h.945l4.077-5.832c.945-1.35.324-1.566-1.161-1.701v-.594c1.026.108 1.782.162 2.565.162.702 0 1.431-.054 2.376-.162v.594c-1.404.162-1.836.216-2.862 1.701l-3.564 5.103zm12.122-19.224-2.835 1.593h-.783l2.43-2.916c.405-.486.648-.702 1.134-.702.432 0 .891.378.891.945 0 .27-.054.648-.837 1.08m2.943 18.684c.621 1.944.81 2.025 2.025 2.187v.594c-1.161-.108-1.701-.162-2.565-.162-.837 0-1.539.054-2.835.162v-.594c1.485-.162 1.809-.27 1.215-2.214l-.837-2.754h-5.184l-.783 2.754c-.54 1.917-.27 2.052 1.215 2.214v.594c-.729-.081-1.593-.162-2.214-.162s-1.134.081-1.836.162v-.594c1.269-.162 1.539-.432 2.052-2.214l4.401-15.552h.324zm-7.965-3.537h4.725l-2.43-7.938zm22.439-11.664c.675 0 1.35-.081 2.133-.162v.594c-1.485.162-1.755.351-1.755 2.322v15.444h-.324l-8.613-15.93v12.798c0 1.998.297 2.16 1.971 2.322v.594c-.729-.081-1.539-.162-2.268-.162h-.081c-.675 0-1.35.081-2.133.162v-.594c1.485-.162 1.755-.351 1.755-2.322V33.696c-.27-.351-.729-.594-1.755-.729v-.594c1.08.108 1.404.135 2.079.135.486 0 .945-.027 1.431-.081l7.182 13.257V35.289c0-1.998-.297-2.187-1.971-2.349v-.594c.837.108 1.539.162 2.268.162zm5.936-1.89 2.43-2.916c.405-.486.648-.702 1.134-.702.432 0 .891.378.891.945 0 .27-.054.648-.837 1.08l-2.835 1.593zm.351 4.644c0-1.971-.27-2.16-1.755-2.322v-.594c1.647.135 1.89.162 2.781.162s1.134-.027 2.781-.162v.594c-1.485.162-1.755.351-1.755 2.322v12.312c0 1.971.27 2.16 1.755 2.322v.594c-1.647-.135-1.89-.162-2.781-.162s-1.134.027-2.781.162v-.594c1.485-.162 1.755-.351 1.755-2.322zm7.844 15.444c-.81 0-1.35-.594-1.35-1.377s.54-1.377 1.35-1.377 1.35.594 1.35 1.377-.54 1.377-1.35 1.377"/></svg>