<svg width="111" height="13" viewBox="0 0 111 13" fill="none" xmlns="http://www.w3.org/2000/svg">
<path d="M2.5 1.3L2.1 10.8V11C2.1 11.8 2.3 12 3.6 12.1V12.5C2.7 12.4 2.3 12.4 1.8 12.4C1.3 12.4 0.9 12.4 0 12.5V12.1C1.3 12 1.5 11.9 1.5 10.9L1.9 1.9V1.8C1.9 1 1.6 0.8 0.4 0.7V0.2C1.1 0.3 1.4 0.3 1.9 0.3C2.6 0.3 2.9 0.3 3.6 0.2L7 9.5L10.5 0.2C11.3 0.3 11.7 0.3 12.3 0.3C12.8 0.3 13.1 0.3 13.8 0.2V0.7C12.6 0.8 12.3 1 12.3 1.8V1.9L12.5 10.9C12.5 11.9 12.7 12 14 12.1V12.5C12.8 12.4 12.4 12.4 11.7 12.4C11 12.4 10.6 12.4 9.4 12.5V12.1C10.6 12 10.9 11.8 10.9 11V10.9L10.7 1.4L7.6 9.5L7.4 10.1L7.1 10.8L6.9 11.5L6.7 12.1H6.4L6.2 11.5L5.9 10.8L5.7 10.1L5.5 9.4L2.5 1.3ZM18.7 12.1C17 12.1 16.3 10.8 16.3 7.9H21.8C21.8 5.1 20.6 3.6 18.4 3.6C16.2 3.6 14.8 5.4 14.8 8.2C14.8 11 16.2 12.7 18.5 12.7C20.3 12.7 21.5 11.6 21.7 9.7H21C20.8 11.2 20 12.1 18.7 12.1ZM16.3 7.2C16.5 5.1 17.2 4 18.4 4C19.6 4 20.2 5 20.3 7.2H16.3ZM22.8 4.2V3.9C23.8 3.8 24.5 3.7 25.2 3.5C25.3 4.2 25.3 4.5 25.4 5V5.2C25.8 4.2 26.6 3.5 27.5 3.5C28.4 3.5 29.1 4.1 29.1 5C29.1 5.5 28.8 5.9 28.3 5.9C27.9 5.9 27.5 5.6 27.5 5.3C27.5 5.3 27.5 5.2 27.5 5.1V4.9V4.8C27.5 4.5 27.3 4.4 26.9 4.4C25.9 4.4 25.3 5.6 25.3 7.4V11.2C25.3 12 25.5 12.1 26.6 12.2V12.6C25.6 12.5 25.2 12.5 24.6 12.5C23.9 12.5 23.6 12.5 22.5 12.6V12.2C23.6 12.1 23.8 12 23.8 11.2V5.4V5.1C23.8 4.3 23.7 4.2 22.7 4.2H22.8ZM36.2 3.4V6.4H35.8C35.5 4.8 34.8 4 33.7 4C32.3 4 31.5 5.5 31.5 8.1C31.5 10.7 32.2 12 33.6 12C34.7 12 35.4 11.2 35.6 9.6H36.4C36.2 11.6 35.1 12.6 33.5 12.6C31.4 12.6 29.9 10.8 29.9 8.1C29.9 5.4 31.4 3.5 33.5 3.5C34.3 3.5 34.8 3.7 35.4 4.3L35.9 3.4H36.2ZM41.6 12.1C39.9 12.1 39.2 10.8 39.2 7.9H44.7C44.7 5.1 43.5 3.6 41.3 3.6C39.1 3.6 37.7 5.4 37.7 8.2C37.7 11 39.1 12.7 41.4 12.7C43.2 12.7 44.4 11.6 44.6 9.7H43.9C43.7 11.2 42.9 12.1 41.6 12.1ZM39.2 7.2C39.4 5.1 40.1 4 41.3 4C42.5 4 43.1 5 43.2 7.2H39.2ZM53.2 10.6V0C52.3 0.2 51.5 0.4 50.4 0.5V0.8C51.6 0.8 51.7 0.9 51.7 1.9V5.1C51 4 50.5 3.7 49.5 3.7C47.5 3.7 46.2 5.6 46.2 8.2C46.2 10.8 47.6 12.7 49.6 12.7C50.6 12.7 51.4 12.2 51.9 11.2C52 11.9 52 12 52.2 12.7C53 12.5 53.3 12.4 54.3 12.3H54.6V12C53.3 11.8 53.2 11.7 53.2 10.6ZM49.7 12.2C48.4 12.2 47.7 10.8 47.7 8.2C47.7 5.5 48.3 4.2 49.7 4.2C51.1 4.2 51.8 5.6 51.8 8.3C51.7 10.8 51 12.2 49.7 12.2ZM59.1 12.1C57.4 12.1 56.7 10.8 56.7 7.9H62.2C62.2 5.1 61 3.6 58.8 3.6C56.6 3.6 55.2 5.4 55.2 8.2C55.2 11 56.6 12.7 58.9 12.7C60.7 12.7 61.9 11.6 62.1 9.7H61.4C61.2 11.2 60.4 12.1 59.1 12.1ZM56.7 7.2C56.9 5.1 57.6 4 58.8 4C60 4 60.6 5 60.7 7.2H56.7ZM63.7 12.7V9.6H64.1C64.4 11.3 65.2 12.1 66.5 12.1C67.6 12.1 68.4 11.4 68.4 10.4C68.4 9.8 68.1 9.4 67.2 8.9L66.5 8.6L65.6 8.3C64.3 7.7 63.8 7.2 63.8 6.1C63.8 4.6 64.9 3.7 66.6 3.7C67.3 3.7 67.8 3.9 68.5 4.3L68.8 3.5H69.1V6.3H68.7C68.5 4.8 67.9 4.1 66.8 4.1C65.8 4.1 65.1 4.8 65.1 5.6C65.1 6.3 65.4 6.6 67 7.3L67.8 7.6C69.2 8.2 69.7 8.8 69.7 9.9C69.7 11.4 68.5 12.5 66.7 12.5C65.9 12.5 65.2 12.3 64.5 11.7L64.1 12.5H63.7V12.7ZM83.5 3.2C83.5 2.2 83.1 1.4 82.4 0.9C81.8 0.4 81.1 0.2 79.9 0.2H75.1V0.7C76.4 0.8 76.6 0.9 76.6 1.9V10.8C76.6 11.8 76.5 11.9 75.1 12V12.4H79.7C81.1 12.4 81.8 12.2 82.6 11.8C83.5 11.2 84.1 10.1 84.1 8.9C84.1 7.9 83.7 7 83 6.5C82.6 6.2 82.2 6 81.5 5.9C82.8 5.4 83.5 4.5 83.5 3.2ZM78.1 0.8H79.7C81.2 0.8 81.9 1.6 81.9 3.3C81.9 4.1 81.7 4.8 81.3 5.2C80.9 5.7 80.4 5.8 79.4 5.8H78.1V0.8ZM79.9 6.3C80.9 6.3 81.4 6.5 81.8 6.9C82.2 7.3 82.5 8.1 82.5 9C82.5 10.8 81.6 11.9 79.9 11.9H79.2C78.2 11.9 78.1 11.8 78.1 10.9V6.3H79.9ZM89.5 12.1C87.8 12.1 87.1 10.8 87.1 7.9H92.6C92.6 5.1 91.4 3.6 89.2 3.6C87 3.6 85.6 5.4 85.6 8.2C85.6 11 87 12.7 89.3 12.7C91.1 12.7 92.3 11.6 92.5 9.7H91.8C91.6 11.2 90.8 12.1 89.5 12.1ZM87.1 7.2C87.3 5.1 88 4 89.2 4C90.4 4 91 5 91.1 7.2H87.1ZM93.5 4.3V4C94.6 3.9 95.2 3.7 95.9 3.4C96 3.8 96 4.3 96.1 5C96.8 4 97.5 3.6 98.6 3.6C99.7 3.6 100.7 4.2 101 5.1C101.2 5.5 101.3 6.1 101.3 6.8V11.2C101.3 12 101.5 12.1 102.6 12.2V12.6C101.6 12.5 101.3 12.5 100.6 12.5C99.9 12.5 99.6 12.5 98.6 12.6V12.2C99.6 12.2 99.8 12 99.8 11.2V6.7C99.8 5.1 99.3 4.5 98.1 4.5C96.9 4.5 96.2 5.3 96.2 6.8V11.2C96.2 11.9 96.4 12.1 97.4 12.2V12.6C96.4 12.5 96.1 12.5 95.4 12.5C94.8 12.5 94.4 12.5 93.4 12.6V12.2C94.5 12.1 94.7 12 94.7 11.2V5.5V5.2C94.7 4.4 94.6 4.3 93.7 4.3C93.7 4.3 93.6 4.3 93.5 4.3ZM103.3 12.5L108.3 4.3H106C104.8 4.3 104.5 4.6 103.9 6.2H103.5L103.9 3.8H110.2L105.2 12H107.3C108.5 12 109.1 11.5 109.6 9.8H110L109.5 12.4L103.3 12.5C103.3 12.5 103.3 12.4 103.3 12.5Z" fill="black"/>
<path d="M75 7.22923H70.9V8.20616H75V7.22923Z" fill="black"/>
</svg>
