<svg xmlns="http://www.w3.org/2000/svg" fill="none" viewBox="0 0 323 60"><rect width="323" height="60" fill="#fff"/><g clip-path="url(#a)"><path fill="#008f20" d="M84.857 16.714h-15.75v24.429h15.75z"/><path fill="#0065b1" d="M69.11 16.714h-1.287v24.429h1.286z"/><path fill="#ae0000" d="M67.82 16.714H56.573v24.429H67.82z"/><path fill="#ff8600" d="M56.57 16.714H39.207v24.429h17.365z"/><path fill="#26221e" d="M39.207 16.714H37.28v24.429h1.928z"/><path fill="#e90a0a" d="M37.279 16.714H20.571v24.429H37.28z"/><g fill="#fff"><path d="M40.537 29.563v4.414h-2.206v-4.071c0-1.247-.551-1.82-1.442-1.82-.99 0-1.683.644-1.683 2.02v3.873H33v-4.071c0-1.248-.523-1.82-1.442-1.82-.98 0-1.666.644-1.666 2.02v3.873h-2.209v-5.994h-.848v-1.72h2.616l.113 1.192c.551-.848 1.499-1.31 2.616-1.31 1.061 0 1.966.415 2.504 1.26.608-.787 1.597-1.26 2.744-1.26 1.81 0 3.111 1.06 3.111 3.41"/><path d="M51.088 31.24c0 1.734-1.358 2.737-3.96 2.737h-4.865v-8.143h-1.046v-1.888h5.629c2.474 0 3.747 1.045 3.747 2.608.01.457-.11.906-.342 1.297s-.57.706-.973.91c1.103.358 1.81 1.218 1.81 2.482zm-6.548-5.546v2.365h2.022c1.117 0 1.726-.398 1.726-1.192s-.609-1.175-1.726-1.175zm4.23 5.302c0-.845-.623-1.246-1.812-1.246H44.54v2.482h2.418c1.189 0 1.811-.373 1.811-1.233"/><path d="M60.054 26.267v7.71h-2.107v-.894c-.551.675-1.358 1.004-2.376 1.004-2.149 0-3.804-1.548-3.804-3.972s1.655-3.972 3.804-3.972c.934 0 1.726.298 2.278.932v-.808zm-2.163 3.853c0-1.332-.849-2.135-1.938-2.135s-1.952.803-1.952 2.135c0 1.333.849 2.135 1.952 2.135 1.104 0 1.938-.802 1.938-2.135"/><path d="M69.729 29.563v4.414h-2.207v-4.071c0-1.247-.566-1.82-1.542-1.82-1.06 0-1.824.659-1.824 2.077v3.812H61.95v-5.988H61.1v-1.72h2.617l.112 1.204c.58-.86 1.568-1.319 2.744-1.319 1.797 0 3.155 1.06 3.155 3.411"/><path d="M79.034 33.977h-2.503l-2.15-3.338h-1.019v3.338h-2.206V23.344h2.206v5.589h1.02l2.036-2.666h2.46L76.29 29.65z"/></g></g><g fill="#000"><path d="M307.803 33.763c1.316 0 2.18.761 2.18 2.314v3.137h-.73V36.15c0-1.142-.576-1.728-1.553-1.728-1.111 0-1.81.72-1.81 1.954v2.84h-.731v-3.066c0-1.142-.576-1.728-1.563-1.728-1.101 0-1.81.72-1.81 1.954v2.84h-.731V34.42h-.761v-.617h1.337l.052 1.131c.349-.74 1.08-1.172 2.057-1.172.895 0 1.594.38 1.923 1.142.391-.7 1.163-1.142 2.14-1.142"/><path d="M299.414 36.51c0 .06-.01.143-.01.225h-4.526c.083 1.132.947 1.883 2.13 1.883.658 0 1.244-.237 1.656-.71l.411.473c-.483.576-1.234.885-2.088.885-1.687 0-2.839-1.152-2.839-2.757 0-1.604 1.121-2.746 2.644-2.746 1.522 0 2.622 1.121 2.622 2.746m-2.622-2.12c-1.05 0-1.821.74-1.914 1.8h3.837c-.093-1.06-.864-1.8-1.923-1.8"/><path d="M292.301 32.621a.53.53 0 0 1-.534-.524c0-.278.236-.515.534-.515s.535.227.535.504a.525.525 0 0 1-.535.535m-.37 6.593v-5.41h.73v5.41z"/><path d="m289.964 39.214-2.15-2.653h-1.039v2.653h-.73v-7.632h.73v4.372h1.039l2.057-2.15h.864l-2.273 2.407 2.376 3.003z"/><path d="M283.653 32.621a.53.53 0 0 1-.535-.524c0-.278.237-.515.535-.515s.535.227.535.504a.525.525 0 0 1-.535.535m-.37 6.593v-5.41h.73v5.41z"/><path d="M279.072 33.763c1.316 0 2.222.761 2.222 2.314v3.137h-.731V36.15c0-1.142-.596-1.728-1.625-1.728-1.162 0-1.892.72-1.892 1.954v2.84h-.731V34.42h-.761v-.617h1.337l.052 1.131c.36-.74 1.121-1.172 2.129-1.172"/><path d="M274.755 33.804h.668l-2.047 5.41h-.689l-1.707-4.433-1.708 4.433h-.689l-2.036-5.41h.699l1.697 4.598 1.738-4.598h.628l1.728 4.598z"/><path d="M263.396 39.266c-1.584 0-2.757-1.152-2.757-2.757 0-1.604 1.173-2.746 2.757-2.746s2.746 1.142 2.746 2.746-1.162 2.757-2.746 2.757m0-.648c1.152 0 2.006-.844 2.006-2.109s-.854-2.108-2.006-2.108-2.016.843-2.016 2.108.864 2.109 2.016 2.109"/><path d="M257.722 39.266c-1.615 0-2.788-1.142-2.788-2.757s1.173-2.746 2.788-2.746c.915 0 1.686.36 2.118 1.07l-.545.37c-.37-.545-.946-.802-1.573-.802-1.183 0-2.047.843-2.047 2.108 0 1.276.864 2.109 2.047 2.109.627 0 1.203-.247 1.573-.792l.545.37c-.432.7-1.203 1.07-2.118 1.07"/><path d="M252.765 33.804h.73v5.41h-.699v-1.07c-.442.73-1.193 1.122-2.088 1.122-1.543 0-2.695-1.121-2.695-2.757 0-1.635 1.152-2.746 2.695-2.746.864 0 1.605.37 2.057 1.07zm-1.995 4.814c1.141 0 2.005-.844 2.005-2.109s-.864-2.108-2.005-2.108c-1.152 0-2.016.843-2.016 2.108s.864 2.109 2.016 2.109"/><path d="M245.342 34.956c.319-.771 1.06-1.193 2.099-1.193v.74c-.062 0-.124-.01-.175-.01-1.132 0-1.821.69-1.821 1.965v2.756h-.73v-4.793h-.761v-.617h1.337z"/><path d="M240.371 33.763c1.542 0 2.694 1.11 2.694 2.746 0 1.646-1.152 2.757-2.694 2.757-.864 0-1.605-.37-2.058-1.07v3.014h-.73V34.42h-.761v-.617h1.337l.041 1.214c.432-.813 1.224-1.255 2.171-1.255m-.052 4.855c1.142 0 2.016-.844 2.016-2.109 0-1.255-.874-2.108-2.016-2.108-1.152 0-2.016.853-2.016 2.108 0 1.265.864 2.109 2.016 2.109"/><path d="M230.57 33.763c1.316 0 2.18.761 2.18 2.314v3.137h-.73V36.15c0-1.142-.576-1.728-1.553-1.728-1.111 0-1.811.72-1.811 1.954v2.84h-.73v-3.066c0-1.142-.576-1.728-1.563-1.728-1.101 0-1.811.72-1.811 1.954v2.84h-.73V34.42h-.761v-.617h1.337l.052 1.131c.349-.74 1.08-1.172 2.057-1.172.895 0 1.594.38 1.923 1.142.391-.7 1.162-1.142 2.14-1.142"/><path d="M220.903 33.804h.73v4.752c0 1.862-.854 2.705-2.52 2.705-.926 0-1.841-.298-2.366-.833l.371-.555c.463.462 1.172.74 1.954.74 1.255 0 1.831-.627 1.831-1.964v-.628c-.381.628-1.07.988-1.913.988-1.389 0-2.284-.772-2.284-2.325v-2.88h.731v2.808c0 1.152.596 1.738 1.625 1.738 1.131 0 1.841-.73 1.841-1.964z"/><path d="M211.823 38.607h3.466v.607h-4.402v-.483l3.405-4.31h-3.343v-.617h4.279v.483z"/><path d="M207.891 39.266c-.895 0-1.759-.288-2.201-.669l.329-.576c.432.34 1.163.607 1.924.607 1.028 0 1.45-.35 1.45-.885 0-1.409-3.507-.298-3.507-2.437 0-.885.761-1.543 2.139-1.543.699 0 1.461.195 1.913.504l-.319.586c-.473-.329-1.039-.463-1.594-.463-.977 0-1.409.38-1.409.895 0 1.46 3.507.36 3.507 2.438 0 .936-.823 1.543-2.232 1.543"/><path d="M203.727 33.804h.731v5.41h-.7v-1.07c-.442.73-1.193 1.122-2.088 1.122-1.543 0-2.695-1.121-2.695-2.757 0-1.635 1.152-2.746 2.695-2.746.864 0 1.605.37 2.057 1.07zm-1.995 4.814c1.142 0 2.006-.844 2.006-2.109s-.864-2.108-2.006-2.108c-1.152 0-2.016.843-2.016 2.108s.864 2.109 2.016 2.109"/><path d="M195.31 33.763c1.316 0 2.221.761 2.221 2.314v3.137h-.73V36.15c0-1.142-.596-1.728-1.625-1.728-1.162 0-1.893.72-1.893 1.954v2.84h-.73V34.42h-.761v-.617h1.337l.052 1.131c.36-.74 1.121-1.172 2.129-1.172"/><path d="M184.803 38.607h3.466v.607h-4.402v-.483l3.405-4.31h-3.343v-.617h4.279v.483z"/><path d="M176.858 38.607h3.466v.607h-4.402v-.483l3.404-4.31h-3.342v-.617h4.278v.483z"/><path d="M172.926 39.266c-.895 0-1.759-.288-2.201-.669l.329-.576c.432.34 1.162.607 1.923.607 1.029 0 1.451-.35 1.451-.885 0-1.409-3.508-.298-3.508-2.437 0-.885.761-1.543 2.14-1.543.699 0 1.46.195 1.913.504l-.319.586c-.473-.329-1.039-.463-1.594-.463-.977 0-1.409.38-1.409.895 0 1.46 3.507.36 3.507 2.438 0 .936-.823 1.543-2.232 1.543"/><path d="M168.762 33.804h.73v5.41h-.699v-1.07c-.443.73-1.194 1.122-2.088 1.122-1.543 0-2.695-1.121-2.695-2.757 0-1.635 1.152-2.746 2.695-2.746.864 0 1.604.37 2.057 1.07zm-1.996 4.814c1.142 0 2.006-.844 2.006-2.109s-.864-2.108-2.006-2.108c-1.152 0-2.016.843-2.016 2.108s.864 2.109 2.016 2.109"/><path d="M162.163 32.621a.53.53 0 0 1-.535-.524c0-.278.237-.515.535-.515s.535.227.535.504a.525.525 0 0 1-.535.535m-.37 6.593v-5.41h.73v5.41z"/><path d="M160.205 33.804h.669l-2.047 5.41h-.689l-1.708-4.433-1.707 4.433h-.689l-2.037-5.41h.7l1.697 4.598 1.738-4.598h.628l1.728 4.598z"/><path d="M150.22 33.804h.73v5.41h-.7v-1.07c-.442.73-1.193 1.122-2.088 1.122-1.542 0-2.694-1.121-2.694-2.757 0-1.635 1.152-2.746 2.694-2.746.864 0 1.605.37 2.058 1.07zm-1.996 4.814c1.142 0 2.006-.844 2.006-2.109s-.864-2.108-2.006-2.108c-1.152 0-2.016.843-2.016 2.108s.864 2.109 2.016 2.109"/><path d="M141.845 33.763c1.317 0 2.181.761 2.181 2.314v3.137h-.73V36.15c0-1.142-.576-1.728-1.554-1.728-1.11 0-1.81.72-1.81 1.954v2.84h-.73v-3.066c0-1.142-.576-1.728-1.564-1.728-1.1 0-1.81.72-1.81 1.954v2.84h-.73V34.42h-.761v-.617h1.337l.051 1.131c.35-.74 1.08-1.172 2.057-1.172.895 0 1.595.38 1.924 1.142.391-.7 1.162-1.142 2.139-1.142"/><path d="M130.04 38.607h3.466v.607h-4.402v-.483l3.404-4.31h-3.343v-.617h4.279v.483z"/><path d="M125.543 39.266c-1.584 0-2.756-1.152-2.756-2.757 0-1.604 1.172-2.746 2.756-2.746s2.746 1.142 2.746 2.746-1.162 2.757-2.746 2.757m0-.648c1.152 0 2.006-.844 2.006-2.109s-.854-2.108-2.006-2.108-2.016.843-2.016 2.108.864 2.109 2.016 2.109"/><path d="M120.116 34.956c.319-.771 1.059-1.193 2.098-1.193v.74c-.062 0-.123-.01-.175-.01-1.131 0-1.82.69-1.82 1.965v2.756h-.731v-4.793h-.761v-.617h1.337z"/><path d="M113.877 33.804h.731v4.752c0 1.862-.854 2.705-2.52 2.705-.926 0-1.842-.298-2.366-.833l.37-.555c.463.462 1.173.74 1.954.74 1.255 0 1.831-.627 1.831-1.964v-.628c-.38.628-1.069.988-1.913.988-1.388 0-2.283-.772-2.283-2.325v-2.88h.73v2.808c0 1.152.597 1.738 1.625 1.738 1.132 0 1.841-.73 1.841-1.964z"/><path d="M104.798 38.607h3.466v.607h-4.402v-.483l3.404-4.31h-3.343v-.617h4.279v.483z"/><path d="M100.975 39.266c-1.615 0-2.788-1.142-2.788-2.757s1.173-2.746 2.788-2.746c.915 0 1.687.36 2.119 1.07l-.546.37c-.37-.545-.946-.802-1.573-.802-1.183 0-2.047.843-2.047 2.108 0 1.276.864 2.109 2.047 2.109.627 0 1.203-.247 1.573-.792l.546.37c-.432.7-1.204 1.07-2.119 1.07"/><path d="M255.638 24.444c.576 0 .987.401.987.987 0 .268-.041.463-.277 1.029l-.587 1.481h-1.018l.453-1.635c-.34-.134-.556-.453-.556-.875 0-.596.432-.987.998-.987"/><path d="M251.93 20.823h1.604v5.534h-1.522V25.7c-.422.483-1.039.74-1.718.74-1.388 0-2.366-.781-2.366-2.489v-3.127h1.605v2.89c0 .926.411 1.338 1.121 1.338.741 0 1.276-.473 1.276-1.492z"/><path d="m245.385 23.25 1.995 3.107h-1.82l-1.564-2.396h-.74v2.396h-1.605v-7.632h1.605v4.012h.74l1.481-1.914h1.79z"/><path d="M237.906 20.741c1.306 0 2.294.761 2.294 2.448v3.168h-1.605v-2.921c0-.895-.411-1.306-1.121-1.306-.771 0-1.327.473-1.327 1.491v2.736h-1.604v-4.3h-.617v-1.234h1.902l.083.864c.421-.617 1.141-.946 1.995-.946"/><path d="M231.359 20.823h1.605v5.534h-1.533v-.638c-.401.484-.987.72-1.728.72-1.563 0-2.767-1.11-2.767-2.849 0-1.738 1.204-2.849 2.767-2.849.679 0 1.255.216 1.656.669zm-1.378 4.3c.792 0 1.409-.576 1.409-1.533 0-.956-.617-1.532-1.409-1.532-.802 0-1.42.576-1.42 1.532s.618 1.533 1.42 1.533"/><path d="M224.888 22.613c.803.257 1.317.874 1.317 1.78 0 1.244-.988 1.964-2.88 1.964h-3.538v-5.842h-.762v-1.358h4.094c1.8 0 2.726.751 2.726 1.872 0 .72-.37 1.276-.957 1.584m-1.975-2.201h-1.47v1.697h1.47c.813 0 1.255-.288 1.255-.854 0-.565-.442-.843-1.255-.843m.288 4.69c.864 0 1.317-.267 1.317-.884 0-.607-.453-.895-1.317-.895h-1.758v1.78z"/><path d="M215.975 20.741c1.317 0 2.263.761 2.263 2.448v3.168h-1.604v-2.921c0-.895-.401-1.306-1.049-1.306-.72 0-1.224.463-1.224 1.45v2.777h-1.605v-2.921c0-.895-.381-1.306-1.049-1.306-.71 0-1.214.463-1.214 1.45v2.777h-1.604v-4.3h-.618v-1.234h1.903l.083.854c.401-.607 1.09-.936 1.902-.936.772 0 1.43.298 1.821.905.442-.566 1.162-.905 1.995-.905"/><path d="M203.551 20.052c-.597 0-.998-.39-.998-.895 0-.504.401-.895.998-.895.596 0 .997.37.997.864 0 .535-.401.926-.997.926m-.803 6.305v-5.534h1.605v5.534z"/><path d="M200.499 20.052c-.596 0-.997-.39-.997-.895 0-.504.401-.895.997-.895.597 0 .998.37.998.864 0 .535-.401.926-.998.926m-1.1 8.383c-.442 0-.833-.093-1.152-.309l.432-1.162a.86.86 0 0 0 .545.195c.278 0 .473-.195.473-.596v-5.74h1.605v5.647c0 1.214-.689 1.965-1.903 1.965"/><path d="M196.192 26.44c-1.8 0-3.086-1.184-3.086-2.85s1.286-2.849 3.086-2.849c1.162 0 2.077.504 2.479 1.41l-1.245.668c-.298-.525-.741-.761-1.245-.761-.812 0-1.45.565-1.45 1.532s.638 1.533 1.45 1.533c.504 0 .947-.227 1.245-.761l1.245.679c-.402.884-1.317 1.398-2.479 1.398"/><path d="M190.467 20.823h1.605v5.534h-1.533v-.638c-.401.484-.987.72-1.728.72-1.563 0-2.767-1.11-2.767-2.849 0-1.738 1.204-2.849 2.767-2.849.679 0 1.255.216 1.656.669zm-1.378 4.3c.792 0 1.409-.576 1.409-1.533 0-.956-.617-1.532-1.409-1.532-.802 0-1.419.576-1.419 1.532s.617 1.533 1.419 1.533"/><path d="m184.022 23.25 1.996 3.107h-1.821l-1.563-2.396h-.741v2.396h-1.604v-7.632h1.604v4.012h.741l1.481-1.914h1.79z"/><path d="M177.997 20.052c-.597 0-.998-.39-.998-.895 0-.504.401-.895.998-.895s.998.37.998.864c0 .535-.401.926-.998.926m-.802 6.305v-5.534h1.604v5.534z"/><path d="M174.101 26.357v-7.632h1.605v7.632z"/><path d="M170.273 20.741c1.554 0 2.757 1.111 2.757 2.85 0 1.737-1.203 2.848-2.757 2.848-.689 0-1.254-.216-1.666-.668v2.581h-1.604v-6.294h-.618v-1.235h1.903l.103.834c.401-.618 1.049-.916 1.882-.916m-.277 4.382c.802 0 1.409-.576 1.409-1.533 0-.956-.607-1.532-1.409-1.532-.803 0-1.409.576-1.409 1.532s.606 1.533 1.409 1.533"/><path d="M163.819 20.823h1.604v5.534h-1.532v-.638c-.401.484-.988.72-1.728.72-1.564 0-2.767-1.11-2.767-2.849 0-1.738 1.203-2.849 2.767-2.849.679 0 1.255.216 1.656.669zm-1.378 4.3c.792 0 1.409-.576 1.409-1.533 0-.956-.617-1.532-1.409-1.532-.803 0-1.42.576-1.42 1.532s.617 1.533 1.42 1.533"/><path d="M154.729 20.823h1.42l-2.006 5.534H152.6l-1.245-3.435-1.285 3.435h-1.543l-1.996-5.534h1.512l1.307 3.744 1.357-3.744h1.358l1.317 3.744z"/><path d="m143.032 18.633-1.861 1.48h-1.255l1.388-1.48zm-2.622 6.49h2.91v1.234h-4.937v-.967l2.819-3.332h-2.747v-1.235h4.773v.967z"/><path d="M135.674 18.725h1.605v7.632h-1.533v-.638c-.401.484-.987.72-1.728.72-1.563 0-2.767-1.11-2.767-2.849 0-1.738 1.204-2.849 2.767-2.849.679 0 1.255.216 1.656.669zm-1.378 6.398c.792 0 1.409-.576 1.409-1.533 0-.956-.617-1.532-1.409-1.532-.802 0-1.419.576-1.419 1.532s.617 1.533 1.419 1.533"/><path d="M130.04 20.823h1.419l-2.006 5.534h-1.543l-1.244-3.435-1.286 3.435h-1.543l-1.995-5.534h1.512l1.306 3.744 1.358-3.744h1.358l1.316 3.744z"/><path d="M119.522 20.823h1.605v5.534h-1.533v-.638c-.401.484-.987.72-1.728.72-1.563 0-2.767-1.11-2.767-2.849 0-1.738 1.204-2.849 2.767-2.849.679 0 1.255.216 1.656.669zm-1.378 4.3c.792 0 1.409-.576 1.409-1.533 0-.956-.617-1.532-1.409-1.532-.803 0-1.42.576-1.42 1.532s.617 1.533 1.42 1.533"/><path d="M112.653 21.76c.37-.67 1.111-1.019 2.067-1.019v1.553c-.133-.01-.236-.02-.349-.02-.895 0-1.482.452-1.482 1.47v2.613h-1.604v-4.3h-.617v-1.234h1.903z"/><path d="M107.324 20.741c1.553 0 2.756 1.111 2.756 2.85 0 1.737-1.203 2.848-2.756 2.848-.69 0-1.255-.216-1.667-.668v2.581h-1.604v-6.294h-.617v-1.235h1.902l.103.834c.401-.618 1.049-.916 1.883-.916m-.278 4.382c.802 0 1.409-.576 1.409-1.533 0-.956-.607-1.532-1.409-1.532s-1.409.576-1.409 1.532.607 1.533 1.409 1.533"/><path d="M100.316 26.44c-.936 0-1.882-.258-2.396-.597l.535-1.152c.493.319 1.244.535 1.923.535.741 0 1.018-.196 1.018-.504 0-.905-3.342.02-3.342-2.191 0-1.05.946-1.79 2.561-1.79.761 0 1.604.175 2.129.483l-.535 1.142a3.2 3.2 0 0 0-1.594-.411c-.72 0-1.029.226-1.029.514 0 .946 3.343.031 3.343 2.211 0 1.03-.957 1.76-2.613 1.76"/></g><defs><clipPath id="a"><rect width="64.286" height="24.429" fill="#fff" transform="translate(20.572 16.714)"/></clipPath></defs></svg>