<svg xmlns="http://www.w3.org/2000/svg" fill="none" viewBox="0 0 110 24"><rect width="109.775" height="23.11" fill="#01748c" rx="11.555"/><path fill="#fff" d="M15.917 12.639v2.66c0 .11-.024.183-.06.208-.037.036-.11.048-.207.048h-.657c-.109 0-.182-.012-.218-.048-.037-.025-.049-.098-.049-.207V8.082q0-.2.073-.292a.5.5 0 0 1 .255-.11c.486-.06 1.082-.096 1.786-.096 1.033 0 1.775.182 2.236.546s.693.985.693 1.835v.195c0 1.665-.96 2.49-2.88 2.49-.45 0-.778 0-.972-.011m.182-4.059c-.121.012-.182.085-.182.23v2.869c.17.012.425.012.766.012q1.02 0 1.458-.328c.291-.219.437-.632.437-1.228V9.99c0-.523-.133-.9-.389-1.118-.267-.22-.704-.328-1.324-.328a7 7 0 0 0-.766.036m8.237 3.876c0-.704-.073-1.203-.194-1.494-.17-.377-.547-.571-1.119-.571-.583 0-.947.194-1.117.57-.134.292-.195.79-.195 1.495v.244c0 .716.06 1.215.195 1.494.17.389.534.571 1.117.571.572 0 .948-.182 1.119-.57.121-.28.194-.779.194-1.495v-.244m1.142-.085v.413c0 1.106-.206 1.86-.607 2.26-.414.414-1.033.62-1.848.62-.826 0-1.433-.206-1.847-.62-.413-.4-.607-1.154-.607-2.26v-.413c0-1.093.194-1.847.607-2.26.414-.413 1.021-.62 1.848-.62.814 0 1.433.207 1.847.62.4.413.607 1.167.607 2.26m3.673 2.37c.51 0 .875-.122 1.082-.377.194-.255.304-.79.304-1.592v-.389c0-.729-.098-1.227-.292-1.518q-.292-.438-1.057-.438c-.438 0-.778.11-.997.328q-.327.329-.328 1.13v1.568q0 .765.292 1.02c.194.183.522.268.996.268m-1.288-7.194v2.467h.025c.315-.34.826-.523 1.519-.523.79 0 1.36.231 1.725.68q.547.675.547 2.152v.486c0 1.045-.207 1.774-.62 2.211-.413.438-1.057.645-1.944.645-.814 0-1.41-.146-1.798-.462-.39-.304-.572-.85-.572-1.653V7.547c0-.146.073-.219.243-.219h.632c.085 0 .146.025.182.049a.24.24 0 0 1 .061.17m6.304 2.273v5.516c0 .085-.024.146-.06.17-.037.037-.098.05-.183.05h-.632c-.17 0-.243-.074-.243-.22V9.82c0-.145.073-.218.243-.218h.632c.085 0 .146.024.182.048a.24.24 0 0 1 .061.17M32.88 8.118v-.085c0-.23.06-.4.195-.522q.182-.183.51-.183h.06c.462 0 .693.243.693.705v.085c0 .474-.23.705-.692.705h-.061c-.219 0-.389-.049-.51-.17-.134-.122-.195-.292-.195-.535m7.284 3.804v.875c0 .243-.122.352-.34.352h-3.136c.012.608.122 1.02.316 1.252.194.23.583.34 1.167.34.461 0 .899-.073 1.288-.23.097-.025.158-.05.194-.05.06 0 .11.05.146.134l.085.292c.036.146.06.23.06.255q0 .11-.145.182c-.498.231-1.081.34-1.762.34-.936 0-1.58-.218-1.944-.656q-.547-.655-.547-2.223v-.414c0-.984.182-1.713.547-2.175.364-.462.972-.705 1.835-.705q1.11 0 1.677.584c.364.389.559 1.008.559 1.847m-3.488.316h2.248c.097 0 .158-.049.158-.17q0-.894-.255-1.276c-.17-.243-.474-.377-.924-.377-.486 0-.814.146-.984.425-.17.28-.243.742-.243 1.398m5.637-2.455.06.596h.025c.157-.268.352-.474.583-.596.219-.121.535-.182.923-.182h.243c.098 0 .158.024.195.048a.24.24 0 0 1 .06.17v.535c0 .146-.085.207-.255.207h-.267c-.498 0-.838.121-1.033.34-.182.219-.267.571-.267 1.057v3.378c0 .085-.025.146-.06.17-.037.037-.098.05-.183.05h-.632c-.17 0-.243-.074-.243-.22V9.783c0-.121.06-.182.194-.182h.426c.145 0 .218.06.23.182m7.034 5.043v.522c0 .146-.073.207-.206.207h-3.767c-.183 0-.268-.073-.268-.219v-.243c0-.146.073-.34.243-.595l2.54-3.95h-2.442c-.146 0-.207-.06-.207-.206v-.523c0-.072.012-.133.037-.17.024-.024.072-.048.17-.048h3.67c.12 0 .194.073.194.194v.243c0 .146-.11.39-.316.705l-2.516 3.864h2.662c.133 0 .206.073.206.219m7.254.559-.05-.352h-.023c-.207.425-.693.632-1.459.632h-.376c-1.203 0-1.799-.584-1.799-1.75v-.195c0-.656.195-1.142.584-1.434.315-.255.947-.389 1.87-.389h.292c.268 0 .523.013.742.037v-.51c0-.377-.098-.632-.28-.778-.194-.146-.498-.219-.923-.219-.413 0-.85.06-1.325.182a1.2 1.2 0 0 1-.255.049c-.085 0-.134-.049-.158-.17l-.049-.231a1.6 1.6 0 0 1-.048-.316c0-.085.048-.146.17-.182a5.9 5.9 0 0 1 1.762-.268c.778 0 1.349.158 1.701.462.34.316.523.85.523 1.604v3.828c0 .122-.073.17-.195.17h-.474c-.133 0-.206-.048-.23-.17m-.22-1.665v-.875a5 5 0 0 0-.656-.036h-.534c-.438 0-.741.073-.911.194q-.256.2-.256.73v.17c0 .315.061.534.195.656.121.133.34.194.656.194h.4c.365 0 .645-.073.827-.243s.28-.425.28-.79m3.726 1.458v2.31c0 .084-.024.145-.06.17-.037.036-.098.048-.183.048h-.632c-.17 0-.243-.073-.243-.219v-7.68c0-.133.061-.206.195-.206h.425c.122 0 .195.06.219.17l.073.389h.024c.377-.438.972-.669 1.774-.669.778 0 1.337.207 1.701.62.353.413.535 1.13.535 2.151v.547c0 .984-.182 1.701-.523 2.163-.352.462-.947.693-1.798.693-.68 0-1.179-.158-1.495-.487zm1.337-4.75c-.498 0-.85.108-1.045.315-.195.219-.292.559-.292 1.033v1.653c0 .461.11.802.328 1.008.22.207.56.304 1.021.304.51 0 .863-.134 1.057-.425.183-.292.28-.802.28-1.544v-.4c0-.73-.097-1.24-.28-1.52-.194-.28-.547-.425-1.069-.425m4.906-2.88v6.403c0 .243.024.413.097.51q.09.146.4.146h.305a.27.27 0 0 1 .157.049c.025.024.05.085.05.158v.522c0 .146-.074.22-.195.22h-.523q-.765 0-1.094-.329c-.218-.219-.315-.583-.315-1.106V7.547c0-.146.073-.219.243-.219h.632c.085 0 .145.025.182.049a.24.24 0 0 1 .06.17m3.324 2.271v5.517c0 .085-.024.146-.06.17-.037.037-.098.05-.183.05h-.632c-.17 0-.243-.074-.243-.22V9.82c0-.145.073-.218.243-.218h.632c.085 0 .146.024.182.048a.24.24 0 0 1 .061.17m-1.288-1.7v-.086c0-.23.06-.4.194-.522q.183-.183.51-.183h.061c.462 0 .693.243.693.705v.085c0 .474-.23.705-.693.705h-.06c-.219 0-.39-.049-.51-.17-.134-.122-.195-.292-.195-.535m4.051 4.775v2.442c0 .085-.024.146-.06.17-.037.037-.098.05-.183.05h-.632c-.17 0-.243-.074-.243-.22V7.547c0-.146.073-.219.243-.219h.632c.085 0 .146.025.182.049a.24.24 0 0 1 .061.17v4.363h.462c.097 0 .17-.037.23-.134l1.325-2.005c.073-.11.182-.17.34-.17h.705c.195 0 .243.085.146.243l-1.689 2.442a.23.23 0 0 0-.049.122c0 .048.012.097.049.133l1.604 2.54c.121.207.194.328.194.365 0 .073-.06.11-.17.11h-.717c-.158 0-.28-.062-.352-.183l-1.446-2.37a.24.24 0 0 0-.207-.11zm7.66 2.491-.049-.352h-.024c-.206.425-.693.632-1.458.632h-.377c-1.203 0-1.798-.584-1.798-1.75v-.195c0-.656.194-1.142.583-1.434.316-.255.948-.389 1.871-.389h.292c.267 0 .523.013.741.037v-.51c0-.377-.097-.632-.28-.778-.194-.146-.497-.219-.923-.219-.413 0-.85.06-1.324.182a1.2 1.2 0 0 1-.255.049c-.086 0-.134-.049-.159-.17l-.048-.231a1.6 1.6 0 0 1-.049-.316c0-.085.049-.146.17-.182a5.9 5.9 0 0 1 1.762-.268c.778 0 1.35.158 1.702.462.34.316.522.85.522 1.604v3.828c0 .122-.073.17-.194.17h-.474c-.134 0-.207-.048-.231-.17m-.219-1.665v-.875a5 5 0 0 0-.656-.036h-.535c-.437 0-.74.073-.911.194q-.255.2-.255.73v.17c0 .315.06.534.194.656.122.133.34.194.656.194h.401c.365 0 .644-.073.827-.243s.28-.425.28-.79m6.436.9.072.255c.037.133.061.23.061.28 0 .096-.06.157-.182.206-.462.206-1.009.303-1.64.303-.802 0-1.386-.17-1.738-.522-.45-.413-.668-1.215-.668-2.382v-.389c0-.62.048-1.093.145-1.434.097-.328.255-.607.499-.838.425-.401 1.032-.608 1.822-.608.705 0 1.3.17 1.81.51.074.05.11.11.11.159 0 .048-.048.146-.121.291l-.17.316c-.049.085-.098.122-.146.122a.23.23 0 0 1-.146-.049c-.437-.267-.863-.4-1.3-.4s-.754.097-.972.29a.95.95 0 0 0-.28.463c-.06.194-.097.364-.097.51-.012.146-.012.401-.012.766v.194c0 .863.097 1.422.303 1.677.22.267.584.4 1.106.4a3.4 3.4 0 0 0 1.203-.218c.073-.024.134-.048.183-.048.073 0 .121.048.158.145m2.597-4.8v5.54c0 .79-.134 1.35-.377 1.69-.316.45-.9.668-1.75.668h-.376c-.146 0-.207-.06-.207-.194v-.584c0-.121.06-.194.182-.194h.28c.474 0 .777-.11.923-.328.134-.219.207-.608.207-1.179V9.82c0-.145.073-.218.243-.218h.632c.085 0 .146.024.182.048a.24.24 0 0 1 .06.17m-1.288-1.702v-.085c0-.23.06-.4.194-.522q.183-.183.51-.183h.061c.462 0 .693.243.693.705v.085c0 .474-.23.705-.693.705h-.06c-.22 0-.39-.049-.51-.17-.134-.122-.195-.292-.195-.535m7.294 3.792v.887c0 .243-.121.352-.34.352h-3.135c.012.608.122 1.02.316 1.252.194.23.583.34 1.167.34.461 0 .899-.073 1.288-.23.097-.025.158-.05.194-.05.06 0 .11.05.146.134l.085.292c.024.11.049.182.049.23q0 .11-.146.183c-.413.243-.717.486-.9.717a1.27 1.27 0 0 0-.267.79c0 .303.146.45.45.45q.274 0 .583-.11c.073-.024.11-.037.122-.037.048 0 .085.037.097.11l.049.219c.024.097.036.17.036.206q0 .092-.146.146a2.4 2.4 0 0 1-.9.182c-.826 0-1.227-.316-1.227-.96q0-.82.876-1.385c-.17.024-.353.037-.523.037-.936 0-1.58-.22-1.944-.657q-.547-.655-.547-2.223v-.414c0-.984.182-1.713.547-2.175.364-.462.972-.705 1.847-.705.741 0 1.3.195 1.665.572.364.388.558.996.558 1.847m-3.487.328h2.248c.097 0 .158-.049.158-.17q0-.894-.255-1.276c-.17-.243-.474-.377-.924-.377-.486 0-.814.146-.984.425-.17.28-.243.742-.243 1.398"/></svg>