<svg xmlns="http://www.w3.org/2000/svg" fill="none" viewBox="0 0 76 12"><g clip-path="url(#a)"><path fill="#fff" d="M.2 9.333 1.474 7.92c.6.853 1.349 1.248 2.114 1.248.7 0 1.12-.37 1.12-.968 0-.597-.395-.88-1.464-1.325C1.727 6.278.645 5.601.645 4.01s1.362-2.852 3.25-2.852c1.375 0 2.342.509 3.043 1.287L5.715 3.95c-.395-.51-.944-.84-1.655-.84-.587 0-1.005.317-1.005.789s.458.714 1.567 1.173c1.605.624 2.508 1.413 2.508 3.044 0 1.82-1.426 2.993-3.388 2.993-1.682 0-2.878-.738-3.54-1.77zm18.17 1.605-.623-1.82h-3.516l-.66 1.82h-2.522l3.934-9.602h2.127l3.884 9.604H18.37zM14.883 7.32h2.241l-.472-1.376a62 62 0 0 1-.61-1.884 52 52 0 0 1-.65 1.87zm25.727 3.617V1.336h2.751c3.26 0 5.539 1.605 5.539 4.801s-2.242 4.8-5.387 4.8zm2.356-2.077h.51c1.807 0 3.006-.943 3.006-2.724 0-1.78-1.018-2.663-3.006-2.663h-.51zm10.239-2.737c0-2.84 2.343-4.955 5.17-4.955 2.816 0 5.145 2.1 5.145 4.979s-2.343 4.955-5.184 4.955-5.131-2-5.131-4.98m7.884.026c0-1.578-1.16-2.801-2.724-2.801-1.54 0-2.724 1.234-2.724 2.788 0 1.642 1.234 2.788 2.7 2.788 1.568 0 2.751-1.183 2.751-2.777zm14.669-4.814h-7.581v2.09h3.705l-4.51 7.514h8.114V8.813H71.28zm-43.49 9.602h2.227V1.336h-2.228v6.118l-4.494-6.118h-2.279v9.604h2.28V4.823l4.496 6.117z"/></g><defs><clipPath id="a"><rect width="76" height="10.4" fill="#fff" transform="translate(0 .958)"/></clipPath></defs></svg>