<svg xmlns="http://www.w3.org/2000/svg" fill="none" viewBox="0 0 580 54"><path fill="#fff" d="M7.695 30.12h6.3V19.995h-.045zm15.93 5.67h-2.34v4.725c0 .675-.135 1.08-.315 1.26-.225.18-.675.225-1.305.225h-3.96c-.72 0-1.17-.045-1.395-.225s-.315-.585-.315-1.26V35.79H2.52q-.945 0-1.215-.27t-.27-1.215v-1.08c0-.9.045-1.575.18-2.025.09-.405.405-.99.855-1.71l9.405-15.165c.36-.585.675-.99 1.035-1.17q.54-.27 1.485-.27h5.445c.72 0 1.215.135 1.485.36.225.27.36.765.36 1.53V30.12h2.34c.54 0 .855.09 1.035.225.135.18.225.495.225.99v3.24c0 .54-.09.855-.225.99-.18.18-.495.225-1.035.225m7.608-1.215h.63c1.35 0 2.295.36 2.88.99.585.675.9 1.665.9 3.015v.585c0 1.395-.45 3.105-1.26 5.175a19.7 19.7 0 0 1-3.555 5.67c-.27.36-.584.495-.9.495-.18 0-.45-.045-.72-.225l-2.25-1.35c-.54-.27-.584-.72-.134-1.305.404-.54.99-1.395 1.8-2.61.54-.81.81-1.395.81-1.845 0-.225-.136-.405-.36-.585l-.45-.315c-.765-.54-1.125-1.485-1.125-2.835v-1.26c0-2.385 1.215-3.6 3.735-3.6M57.427 18.87h-9.09c-.45 0-.63.225-.63.585l-.135 4.185q2.025-.675 4.455-.675h.45c2.88 0 4.995.675 6.345 1.98 1.44 1.44 2.205 3.825 2.205 7.155v.63c0 3.42-.99 5.895-2.88 7.47-1.8 1.485-4.59 2.205-8.37 2.205h-.45q-4.387 0-8.91-1.62c-.63-.18-.9-.54-.9-1.035 0-.18.045-.585.225-1.215l.63-2.295c.18-.63.405-1.035.72-1.215.27-.135.63-.09 1.08.09 2.52.945 4.815 1.395 6.885 1.395h.45c1.305 0 2.34-.27 3.15-.81q1.08-.675 1.08-2.97v-.315c0-1.35-.315-2.34-.945-2.88-.585-.495-1.44-.765-2.565-.765h-.27q-2.362 0-5.265 1.08c-.45.18-.765.225-.9.225-.27 0-.63-.135-1.035-.405l-1.44-.945c-.45-.315-.675-.72-.675-1.17 0-.27 0-.855.09-1.8l.585-11.52c0-.9.54-1.35 1.53-1.35h14.67c.54 0 .945.09 1.125.27s.315.495.315 1.035v3.465c0 .495-.135.81-.315.99-.225.18-.63.225-1.215.225m22.728 1.665v.45c0 2.97-.765 5.085-2.205 6.435-1.35 1.08-3.105 1.62-5.175 1.62-2.34 0-4.095-.585-5.31-1.755-1.35-1.26-2.025-3.24-2.025-5.85v-1.35c0-2.61.675-4.545 2.025-5.85 1.215-1.17 2.97-1.755 5.31-1.755 2.07 0 3.825.54 5.175 1.62 1.44 1.35 2.205 3.51 2.205 6.435m-7.65 20.25 16.605-27.36c.225-.36.495-.63.765-.765.27-.09.675-.18 1.26-.18h3.285c1.395 0 1.8.54 1.17 1.62L78.984 41.46c-.27.405-.495.675-.765.765-.27.135-.72.18-1.26.18h-3.285c-1.44 0-1.8-.54-1.17-1.62m-.99-21.24v2.43c0 .945.09 1.575.315 1.89.18.315.495.45.9.45h.09c.36 0 .675-.135.9-.45.18-.315.315-.945.315-1.89v-2.43c0-.9-.135-1.53-.315-1.845-.225-.315-.54-.495-.9-.495h-.09c-.405 0-.72.18-.9.495-.225.315-.315.945-.315 1.845m31.59 14.355v.45c0 2.97-.765 5.085-2.205 6.435-1.35 1.08-3.105 1.62-5.175 1.62-2.34 0-4.095-.585-5.31-1.755-1.35-1.26-2.025-3.195-2.025-5.85v-1.35c0-2.61.675-4.59 2.025-5.85 1.215-1.17 2.97-1.755 5.31-1.755 2.07 0 3.825.54 5.175 1.62 1.44 1.35 2.205 3.51 2.205 6.435m-8.64-.99v2.43c0 .945.09 1.575.315 1.89.18.315.495.45.9.45h.09c.36 0 .675-.135.9-.45.18-.315.315-.945.315-1.89v-2.43c0-.9-.135-1.53-.315-1.845-.225-.315-.54-.495-.9-.495h-.09c-.405 0-.72.18-.9.495-.225.315-.315.945-.315 1.845m23.46-2.886h.192c1.392 0 2.424.336 3.048.984.576.624.888 1.68.888 3.168v7.128c0 .24-.072.432-.192.528-.12.12-.336.168-.624.168h-2.208c-.312 0-.528-.048-.648-.168-.12-.096-.168-.288-.168-.528v-6.792c0-.528-.096-.912-.264-1.104-.192-.192-.552-.312-1.056-.312h-.144c-.528 0-.864.12-1.056.312s-.264.576-.264 1.104v6.792c0 .24-.072.432-.192.528-.12.12-.336.168-.624.168h-2.208c-.312 0-.528-.048-.648-.168-.12-.096-.168-.288-.168-.528V30.912c0-.24.048-.408.168-.504s.336-.168.648-.168h1.128c.288 0 .48.048.6.12q.18.108.288.432l.144.456h.072c.768-.816 1.848-1.224 3.288-1.224m13.35 10.992h-.048c-.528.816-1.584 1.2-3.144 1.2h-.36c-1.224 0-2.184-.312-2.856-.936-.696-.624-1.032-1.56-1.032-2.76v-.264c0-1.296.36-2.232 1.104-2.76s1.944-.792 3.624-.792h.168c.624 0 1.2.048 1.68.096v-.504c0-.504-.144-.864-.408-1.056-.288-.168-.768-.264-1.44-.264-.816 0-1.728.144-2.784.408-.288.072-.504.072-.6 0-.12-.072-.192-.216-.216-.456l-.192-1.272c-.048-.216-.048-.384-.048-.48 0-.288.192-.504.576-.624a15.5 15.5 0 0 1 4.104-.528c1.848 0 3.168.408 3.936 1.176.6.624.912 1.632.912 3v7.128c0 .24-.072.432-.192.528s-.336.144-.624.144h-1.128c-.288 0-.48-.024-.6-.096s-.216-.216-.288-.456zm-.864-3.072v-.672q-.396-.072-1.152-.072h-.264q-.864 0-1.224.216c-.24.144-.336.432-.336.864v.096c0 .432.096.72.336.864.216.168.552.24 1.008.24h.168c.48 0 .84-.12 1.128-.36.216-.192.336-.6.336-1.176m15.159-.6v3.96c0 .24-.072.432-.192.528-.12.12-.336.168-.624.168h-2.208c-.312 0-.528-.048-.648-.168-.12-.096-.168-.288-.168-.528V26.448c0-.24.048-.408.168-.528.12-.096.336-.168.648-.168h2.208c.288 0 .504.072.624.168.12.12.192.288.192.528v7.824h.168l2.28-3.48c.216-.36.552-.552 1.008-.552h2.784c.264 0 .408.096.408.288 0 .096-.072.264-.192.456l-2.76 4.128c-.216.336-.312.576-.312.72 0 .168.096.408.312.72l2.952 4.656c.096.192.144.312.144.408 0 .264-.168.384-.504.384h-2.664c-.336 0-.6-.024-.744-.12q-.216-.108-.432-.504l-2.28-4.032zm11.312-2.16v1.872c0 .936.144 1.536.432 1.824.216.24.552.336 1.008.336h.096c.432 0 .768-.096 1.008-.336.288-.288.432-.888.432-1.824v-1.872c0-.912-.144-1.536-.432-1.824-.24-.216-.576-.336-1.008-.336h-.096c-.456 0-.792.12-1.008.336-.288.288-.432.912-.432 1.824m6.84.144v1.56c0 1.2-.12 2.112-.36 2.784s-.624 1.2-1.152 1.608c-.792.624-2.016.936-3.696.936h-.288c-1.68 0-2.928-.312-3.696-.936a3.43 3.43 0 0 1-1.152-1.608c-.24-.672-.36-1.584-.36-2.784v-1.536c0-1.176.12-2.088.36-2.76a3.63 3.63 0 0 1 1.152-1.632c.768-.624 2.016-.936 3.696-.936h.288c1.68 0 2.904.312 3.696.936.528.432.912.96 1.152 1.608.24.672.36 1.584.36 2.76m8.391-5.304h.192c1.392 0 2.424.336 3.048.984.576.624.888 1.68.888 3.168v7.128c0 .24-.072.432-.192.528-.12.12-.336.168-.624.168h-2.208c-.312 0-.528-.048-.648-.168-.12-.096-.168-.288-.168-.528v-6.792c0-.528-.096-.912-.264-1.104-.192-.192-.552-.312-1.056-.312h-.144c-.528 0-.864.12-1.056.312s-.264.576-.264 1.104v6.792c0 .24-.072.432-.192.528-.12.12-.336.168-.624.168h-2.208c-.312 0-.528-.048-.648-.168-.12-.096-.168-.288-.168-.528V30.912c0-.24.048-.408.168-.504s.336-.168.648-.168h1.128c.288 0 .48.048.6.12q.18.108.288.432l.144.456h.072c.768-.816 1.848-1.224 3.288-1.224m11.934 9.096h.192c.648 0 1.344-.096 2.088-.312.24-.048.384-.072.456-.072.24 0 .384.144.432.408l.216 1.224c.048.336.096.552.096.648 0 .288-.216.504-.624.648-1.056.384-2.208.552-3.456.552h-.288c-1.728 0-3-.384-3.792-1.2q-1.224-1.224-1.224-4.104V35.52c0-1.128.096-2.016.288-2.64a3.76 3.76 0 0 1 .936-1.584c.84-.84 2.16-1.272 3.96-1.272h.24c1.44 0 2.688.264 3.696.792.288.168.456.36.456.6 0 .144-.072.384-.192.72l-.456 1.152q-.18.432-.504.432a1 1 0 0 1-.432-.12c-.768-.312-1.488-.48-2.136-.48h-.096c-.624 0-1.08.168-1.368.456-.36.36-.528 1.104-.528 2.208v.816c0 .984.144 1.656.48 2.016.312.336.84.504 1.56.504m9.266-8.184v10.368c0 .24-.072.432-.192.528-.12.12-.336.168-.624.168h-2.208c-.312 0-.528-.048-.648-.168-.12-.096-.168-.288-.168-.528V30.936c0-.24.048-.408.168-.528.12-.096.336-.168.648-.168h2.208c.288 0 .504.072.624.168.12.12.192.288.192.528m-1.776-1.608h-.288c-1.296 0-1.944-.648-1.944-1.992v-.12c0-1.32.648-1.992 1.944-1.992h.288c1.296 0 1.944.672 1.944 1.992v.12c0 1.344-.648 1.992-1.944 1.992m9.975 9.792h.264c.816 0 1.68-.096 2.544-.312.24-.048.384-.072.456-.072.24 0 .384.144.432.408l.192 1.2c.048.336.096.552.096.648 0 .288-.216.504-.624.648-1.104.384-2.328.576-3.624.576h-.456q-2.952 0-4.176-1.224a3.44 3.44 0 0 1-.96-1.632c-.168-.624-.24-1.464-.24-2.496V35.52c0-2.088.48-3.552 1.44-4.416.816-.72 2.064-1.08 3.768-1.08h.336c1.68 0 2.904.408 3.624 1.2.768.864 1.152 2.28 1.152 4.296v1.248c0 .456-.24.672-.696.672h-5.76v.192c0 .576.144.96.48 1.176.312.216.888.312 1.752.312m-2.232-4.176h2.64c.192 0 .288-.096.288-.312v-.384c0-.48-.096-.84-.24-1.104-.192-.288-.576-.432-1.104-.432h-.216c-.48 0-.816.12-1.008.336q-.36.432-.36 1.296zm17.18.24v1.872c0 .936.144 1.536.432 1.824.216.24.552.336 1.008.336h.096c.432 0 .768-.096 1.008-.336.288-.288.432-.888.432-1.824v-1.872c0-.912-.144-1.536-.432-1.824-.24-.216-.576-.336-1.008-.336h-.096c-.456 0-.792.12-1.008.336-.288.288-.432.912-.432 1.824m6.84.144v1.56c0 1.2-.12 2.112-.36 2.784s-.624 1.2-1.152 1.608c-.792.624-2.016.936-3.696.936h-.288c-1.68 0-2.928-.312-3.696-.936a3.43 3.43 0 0 1-1.152-1.608c-.24-.672-.36-1.584-.36-2.784v-1.536c0-1.176.12-2.088.36-2.76a3.63 3.63 0 0 1 1.152-1.632c.768-.624 2.016-.936 3.696-.936h.288c1.68 0 2.904.312 3.696.936.528.432.912.96 1.152 1.608.24.672.36 1.584.36 2.76m1.743-1.224v-.312c0-1.176.312-2.064.936-2.688.72-.72 1.944-1.08 3.648-1.08h.24c1.344 0 2.52.144 3.504.432q.288.108.36.216c.048.096.072.216.048.408l-.264 1.968c-.048.312-.264.408-.648.312-.96-.216-1.824-.336-2.544-.336h-.024c-.528 0-.912.048-1.104.144-.216.096-.312.264-.312.504v.072c0 .24.072.408.264.504s.552.216 1.104.312l1.128.24c1.032.24 1.776.6 2.208 1.08s.648 1.224.648 2.208v.36c0 2.52-1.584 3.768-4.704 3.768h-.24c-1.584 0-2.904-.216-4.008-.648-.216-.072-.36-.168-.408-.288-.048-.096-.048-.288 0-.552l.336-1.584c.072-.456.336-.6.816-.456 1.104.384 2.064.552 2.88.552h.072c.528 0 .888-.048 1.104-.168.192-.096.312-.288.312-.552v-.072a.52.52 0 0 0-.264-.456q-.288-.144-1.152-.36l-1.056-.24q-1.584-.36-2.232-1.08c-.432-.48-.648-1.2-.648-2.208m15.099-.816h-3.816c-.24 0-.408-.024-.504-.12s-.12-.288-.12-.576v-1.656c0-.288.024-.456.12-.552q.144-.144.504-.144h8.112c.24 0 .408.048.528.144.096.096.168.288.168.552v.456c0 .624-.192 1.2-.528 1.704l-4.128 5.856h4.104c.24 0 .384.048.48.144s.144.264.144.552v1.656q0 .432-.144.576c-.096.096-.24.12-.48.12h-8.256c-.504 0-.744-.216-.744-.696v-.552c0-.624.168-1.176.528-1.704zm12.202 5.832h.192c.648 0 1.344-.096 2.088-.312.24-.048.384-.072.456-.072.24 0 .384.144.432.408l.216 1.224c.048.336.096.552.096.648 0 .288-.216.504-.624.648-1.056.384-2.208.552-3.456.552h-.288c-1.728 0-3-.384-3.792-1.2q-1.224-1.224-1.224-4.104V35.52c0-1.128.096-2.016.288-2.64a3.76 3.76 0 0 1 .936-1.584c.84-.84 2.16-1.272 3.96-1.272h.24c1.44 0 2.688.264 3.696.792.288.168.456.36.456.6 0 .144-.072.384-.192.72l-.456 1.152q-.18.432-.504.432a1 1 0 0 1-.432-.12c-.768-.312-1.488-.48-2.136-.48h-.096c-.624 0-1.08.168-1.368.456-.36.36-.528 1.104-.528 2.208v.816c0 .984.144 1.656.48 2.016.312.336.84.504 1.56.504m9.29-5.832h-3.816c-.24 0-.408-.024-.504-.12s-.12-.288-.12-.576v-1.656c0-.288.024-.456.12-.552q.144-.144.504-.144h8.112c.24 0 .408.048.528.144.096.096.168.288.168.552v.456c0 .624-.192 1.2-.528 1.704l-4.128 5.856h4.104c.24 0 .384.048.48.144s.144.264.144.552v1.656q0 .432-.144.576c-.096.096-.24.12-.48.12h-8.256c-.504 0-.744-.216-.744-.696v-.552c0-.624.168-1.176.528-1.704zm12.394 5.832h.264c.816 0 1.68-.096 2.544-.312.24-.048.384-.072.456-.072.24 0 .384.144.432.408l.192 1.2c.048.336.096.552.096.648 0 .288-.216.504-.624.648a3.5 3.5 0 0 0-1.536 1.152c-.408.528-.6 1.056-.6 1.536v.072c0 .456.216.672.648.672h.12c.264 0 .6-.048.984-.192.12-.024.216-.048.288-.048.12 0 .216.12.288.312l.12.504c.072.336.12.504.12.552 0 .144-.12.264-.336.36a5.4 5.4 0 0 1-1.944.36h-.144c-.84 0-1.464-.168-1.896-.528s-.648-.864-.648-1.536v-.072c0-.432.144-.912.456-1.392s.72-.864 1.248-1.2c-.192.024-.456.024-.792.024h-.456q-2.952 0-4.176-1.224a3.44 3.44 0 0 1-.96-1.632c-.168-.624-.24-1.464-.24-2.496V35.52c0-2.088.48-3.552 1.44-4.416.816-.72 2.064-1.08 3.768-1.08h.336c1.68 0 2.904.408 3.624 1.2.768.864 1.152 2.28 1.152 4.296v1.248c0 .456-.24.672-.696.672h-5.76v.192c0 .576.144.96.48 1.176.312.216.888.312 1.752.312m-2.232-4.176h2.64c.192 0 .288-.096.288-.312v-.384c0-.48-.096-.84-.24-1.104-.192-.288-.576-.432-1.104-.432h-.216c-.48 0-.816.12-1.008.336q-.36.432-.36 1.296zm15.072 2.808v-3.048c0-.6-.096-1.032-.288-1.272-.216-.24-.6-.384-1.128-.384h-.24c-.528 0-.888.144-1.104.408-.24.264-.336 1.008-.336 2.256v1.056c0 1.152.12 1.872.36 2.112.192.24.552.336 1.104.336h.264c.456 0 .792-.096 1.032-.312.216-.216.336-.6.336-1.152m-.048-7.296h.048v-4.008c0-.24.048-.408.168-.528.12-.096.336-.168.648-.168h2.232c.288 0 .504.072.624.168.096.12.168.288.168.528v10.92c0 1.68-.312 2.832-.936 3.504-.456.48-1.008.84-1.656 1.032-.672.216-1.56.312-2.688.312h-.408c-1.776 0-3.048-.36-3.864-1.08-.84-.72-1.248-2.064-1.248-4.056v-1.92c0-1.92.384-3.264 1.2-4.032.768-.72 1.824-1.104 3.192-1.104h.288q1.368 0 2.232.432m12.512-.432h.192c1.392 0 2.424.336 3.048.984.576.624.888 1.68.888 3.168v7.128c0 .24-.072.432-.192.528-.12.12-.336.168-.624.168h-2.208c-.312 0-.528-.048-.648-.168-.12-.096-.168-.288-.168-.528v-6.792c0-.528-.096-.912-.264-1.104-.192-.192-.552-.312-1.056-.312h-.144c-.528 0-.864.12-1.056.312s-.264.576-.264 1.104v6.792c0 .24-.072.432-.192.528-.12.12-.336.168-.624.168h-2.208c-.312 0-.528-.048-.648-.168-.12-.096-.168-.288-.168-.528V30.912c0-.24.048-.408.168-.504s.336-.168.648-.168h1.128c.288 0 .48.048.6.12q.18.108.288.432l.144.456h.072c.768-.816 1.848-1.224 3.288-1.224m9.894 5.16v1.872c0 .936.144 1.536.432 1.824.216.24.552.336 1.008.336h.096c.432 0 .768-.096 1.008-.336.288-.288.432-.888.432-1.824v-1.872c0-.912-.144-1.536-.432-1.824-.24-.216-.576-.336-1.008-.336h-.096c-.456 0-.792.12-1.008.336-.288.288-.432.912-.432 1.824m6.84.144v1.56c0 1.2-.12 2.112-.36 2.784s-.624 1.2-1.152 1.608c-.792.624-2.016.936-3.696.936h-.288c-1.68 0-2.928-.312-3.696-.936a3.43 3.43 0 0 1-1.152-1.608c-.24-.672-.36-1.584-.36-2.784v-1.536c0-1.176.12-2.088.36-2.76a3.63 3.63 0 0 1 1.152-1.632c.768-.624 2.016-.936 3.696-.936h.288c1.68 0 2.904.312 3.696.936.528.432.912.96 1.152 1.608.24.672.36 1.584.36 2.76m1.743-1.224v-.312c0-1.176.312-2.064.936-2.688.72-.72 1.944-1.08 3.648-1.08h.24c1.344 0 2.52.144 3.504.432q.288.108.36.216c.048.096.072.216.048.408l-.264 1.968c-.048.312-.264.408-.648.312-.96-.216-1.824-.336-2.544-.336h-.024c-.528 0-.912.048-1.104.144-.216.096-.312.264-.312.504v.072c0 .24.072.408.264.504s.552.216 1.104.312l1.128.24c1.032.24 1.776.6 2.208 1.08s.648 1.224.648 2.208v.36c0 2.52-1.584 3.768-4.704 3.768h-.24c-1.584 0-2.904-.216-4.008-.648-.216-.072-.36-.168-.408-.288-.048-.096-.048-.288 0-.552l.336-1.584c.072-.456.336-.6.816-.456 1.104.384 2.064.552 2.88.552h.072c.528 0 .888-.048 1.104-.168.192-.096.312-.288.312-.552v-.072a.52.52 0 0 0-.264-.456q-.288-.144-1.152-.36l-1.056-.24q-1.584-.36-2.232-1.08c-.432-.48-.648-1.2-.648-2.208m2.232-7.032 3.768-3.216a.67.67 0 0 1 .456-.216c.168 0 .336.12.48.312l1.152 1.488c.096.144.144.264.144.408 0 .192-.144.384-.384.576l-3.792 2.592c-.192.12-.336.168-.48.168-.192 0-.384-.096-.576-.336l-.72-.84c-.192-.216-.264-.408-.264-.552s.072-.288.216-.384m14.475 12.048h.192c.648 0 1.344-.096 2.088-.312.24-.048.384-.072.456-.072.24 0 .384.144.432.408l.216 1.224c.048.336.096.552.096.648 0 .288-.216.504-.624.648-1.056.384-2.208.552-3.456.552h-.288c-1.728 0-3-.384-3.792-1.2q-1.224-1.224-1.224-4.104V35.52c0-1.128.096-2.016.288-2.64a3.76 3.76 0 0 1 .936-1.584c.84-.84 2.16-1.272 3.96-1.272h.24c1.44 0 2.688.264 3.696.792.288.168.456.36.456.6 0 .144-.072.384-.192.72l-.456 1.152q-.18.432-.504.432a1 1 0 0 1-.432-.12c-.768-.312-1.488-.48-2.136-.48h-.096c-.624 0-1.08.168-1.368.456-.36.36-.528 1.104-.528 2.208v.816c0 .984.144 1.656.48 2.016.312.336.84.504 1.56.504m9.266-8.184v10.368c0 .24-.072.432-.192.528-.12.12-.336.168-.624.168h-2.208c-.312 0-.528-.048-.648-.168-.12-.096-.168-.288-.168-.528V30.936c0-.24.048-.408.168-.528.12-.096.336-.168.648-.168h2.208c.288 0 .504.072.624.168.12.12.192.288.192.528m-1.776-1.608h-.288c-1.296 0-1.944-.648-1.944-1.992v-.12c0-1.32.648-1.992 1.944-1.992h.288c1.296 0 1.944.672 1.944 1.992v.12c0 1.344-.648 1.992-1.944 1.992m7.743 5.856v1.872c0 .936.144 1.536.432 1.824.216.24.552.336 1.008.336h.096c.432 0 .768-.096 1.008-.336.288-.288.432-.888.432-1.824v-1.872c0-.912-.144-1.536-.432-1.824-.24-.216-.576-.336-1.008-.336h-.096c-.456 0-.792.12-1.008.336-.288.288-.432.912-.432 1.824m6.84.144v1.56c0 1.2-.12 2.112-.36 2.784s-.624 1.2-1.152 1.608c-.792.624-2.016.936-3.696.936h-.288c-1.68 0-2.928-.312-3.696-.936a3.43 3.43 0 0 1-1.152-1.608c-.24-.672-.36-1.584-.36-2.784v-1.536c0-1.176.12-2.088.36-2.76a3.63 3.63 0 0 1 1.152-1.632c.768-.624 2.016-.936 3.696-.936h.288c1.68 0 2.904.312 3.696.936.528.432.912.96 1.152 1.608.24.672.36 1.584.36 2.76m8.199-4.512h2.064c.336 0 .576.048.696.144s.216.288.264.576c0 .096.432 2.232 1.272 6.384h.072c.432-2.52.816-4.848 1.128-7.008.024-.264.096-.432.192-.528q.144-.144.504-.144h2.448c.264 0 .432.072.528.168.072.12.096.312.048.552-.384 1.872-.864 3.936-1.392 6.192s-.912 3.672-1.152 4.272c-.096.24-.216.408-.336.48s-.312.096-.552.096h-2.64c-.504 0-.816-.168-.912-.552-.456-1.632-.84-3.696-1.176-6.192h-.096a66 66 0 0 1-1.2 6.192c-.096.384-.384.552-.864.552h-2.592c-.48 0-.792-.168-.912-.528-.24-.648-.648-2.136-1.224-4.44a112 112 0 0 1-1.344-6.072c-.072-.264-.048-.456.048-.552s.288-.168.576-.168h2.352c.24 0 .432.048.552.144.096.096.168.288.216.528.336 2.232.72 4.56 1.176 7.008h.096c.576-2.976.984-5.112 1.176-6.384.048-.312.12-.504.24-.6.12-.072.36-.12.744-.12m21.141.144c-.336 2.256-.96 4.752-1.872 7.512a51 51 0 0 1-3.384 7.824c-.168.336-.384.504-.672.504-.192 0-.408-.048-.696-.192l-1.224-.528c-.432-.192-.624-.384-.624-.6a.83.83 0 0 1 .12-.408c.816-1.656 1.296-2.616 1.392-2.88-.672-.24-1.176-.768-1.56-1.632-.432-.96-.936-2.424-1.488-4.44q-.828-3.024-1.224-5.184c-.048-.24-.024-.408.096-.528.12-.096.336-.168.624-.168h2.184c.264 0 .456.048.576.12s.216.216.264.456c.552 3.024 1.176 5.712 1.872 8.04h.12c.672-1.92 1.296-4.56 1.872-7.968q.036-.36.216-.504c.12-.096.312-.144.552-.144h2.208c.264 0 .456.072.552.168s.12.288.096.552m11.77 3.552v6.792c0 .24-.072.432-.192.528-.12.12-.336.168-.624.168h-2.208c-.312 0-.528-.048-.648-.168-.12-.096-.168-.288-.168-.528v-6.792c0-.528-.096-.912-.264-1.104-.192-.192-.552-.312-1.056-.312h-.048c-.528 0-.864.12-1.056.312s-.264.576-.264 1.104v6.792c0 .24-.072.432-.192.528-.12.12-.336.168-.624.168h-2.208c-.312 0-.528-.048-.648-.168-.12-.096-.168-.288-.168-.528V30.912c0-.24.048-.408.168-.504s.336-.168.648-.168h1.128c.288 0 .48.048.6.12q.18.108.288.432l.144.456h.072c.768-.816 1.848-1.224 3.288-1.224h.096c1.368 0 2.424.384 3.168 1.104.768-.72 1.872-1.104 3.264-1.104h.096c1.392 0 2.424.336 3.048.984.576.624.888 1.68.888 3.168v7.128c0 .24-.072.432-.192.528-.12.12-.336.168-.624.168h-2.208c-.312 0-.528-.048-.648-.168-.12-.096-.168-.288-.168-.528v-6.792c0-.528-.096-.912-.264-1.104-.192-.192-.552-.312-1.056-.312h-.048c-.528 0-.864.12-1.056.312s-.264.576-.264 1.104m17.847.168v3.072c0 .552.096.936.336 1.152.192.216.552.312 1.08.312h.216c.552 0 .936-.144 1.176-.48q.288-.432.288-2.088v-1.032c0-1.2-.12-1.944-.312-2.184-.216-.24-.624-.384-1.2-.384h-.096c-.552 0-.936.12-1.176.36-.216.216-.312.648-.312 1.272m0-4.008h.048q1.044-.648 2.736-.648h.216c1.44 0 2.496.432 3.144 1.296.528.744.816 2.064.816 3.96v1.728c0 1.92-.408 3.264-1.224 4.008-.864.816-2.232 1.2-4.104 1.2h-.48c-1.968 0-3.312-.384-4.032-1.176-.648-.696-.96-1.824-.96-3.408V26.448c0-.24.048-.408.168-.528.096-.096.312-.168.624-.168h2.232c.288 0 .504.072.624.168.12.12.192.288.192.528zm14.74 8.448h.264c.816 0 1.68-.096 2.544-.312.24-.048.384-.072.456-.072.24 0 .384.144.432.408l.192 1.2c.048.336.096.552.096.648 0 .288-.216.504-.624.648-1.104.384-2.328.576-3.624.576h-.456q-2.952 0-4.176-1.224a3.44 3.44 0 0 1-.96-1.632c-.168-.624-.24-1.464-.24-2.496V35.52c0-2.088.48-3.552 1.44-4.416.816-.72 2.064-1.08 3.768-1.08h.336c1.68 0 2.904.408 3.624 1.2.768.864 1.152 2.28 1.152 4.296v1.248c0 .456-.24.672-.696.672h-5.76v.192c0 .576.144.96.48 1.176.312.216.888.312 1.752.312m-2.232-4.176h2.64c.192 0 .288-.096.288-.312v-.384c0-.48-.096-.84-.24-1.104-.192-.288-.576-.432-1.104-.432h-.216c-.48 0-.816.12-1.008.336q-.36.432-.36 1.296zm12.408-1.656h-3.816c-.24 0-.408-.024-.504-.12s-.12-.288-.12-.576v-1.656c0-.288.024-.456.12-.552q.144-.144.504-.144h8.112c.24 0 .408.048.528.144.096.096.168.288.168.552v.456c0 .624-.192 1.2-.528 1.704l-4.128 5.856h4.104c.24 0 .384.048.48.144s.144.264.144.552v1.656q0 .432-.144.576c-.096.096-.24.12-.48.12h-8.256c-.504 0-.744-.216-.744-.696v-.552c0-.624.168-1.176.528-1.704zm16.181 5.592h.768c.24 0 .432.072.528.168.096.12.168.336.168.648v1.488c0 .336-.072.552-.168.648-.096.12-.288.168-.528.168h-1.824c-1.2 0-2.04-.216-2.52-.696-.48-.456-.72-1.272-.72-2.424V26.448c0-.24.048-.408.168-.528.12-.096.336-.168.648-.168h2.208c.288 0 .504.072.624.168.12.12.192.288.192.528v11.976c0 .192.024.312.096.36.048.072.168.096.36.096m6.928-7.944v10.368c0 .24-.072.432-.192.528-.12.12-.336.168-.624.168h-2.208c-.312 0-.528-.048-.648-.168-.12-.096-.168-.288-.168-.528V30.936c0-.24.048-.408.168-.528.12-.096.336-.168.648-.168h2.208c.288 0 .504.072.624.168.12.12.192.288.192.528m-1.776-1.608h-.288c-1.296 0-1.944-.648-1.944-1.992v-.12c0-1.32.648-1.992 1.944-1.992h.288c1.296 0 1.944.672 1.944 1.992v.12c0 1.344-.648 1.992-1.944 1.992m14.631 5.184v6.792c0 .24-.072.432-.192.528-.12.12-.336.168-.624.168h-2.208c-.312 0-.528-.048-.648-.168-.12-.096-.168-.288-.168-.528v-6.792c0-.528-.096-.912-.264-1.104-.192-.192-.552-.312-1.056-.312h-.048c-.528 0-.864.12-1.056.312s-.264.576-.264 1.104v6.792c0 .24-.072.432-.192.528-.12.12-.336.168-.624.168h-2.208c-.312 0-.528-.048-.648-.168-.12-.096-.168-.288-.168-.528V30.912c0-.24.048-.408.168-.504s.336-.168.648-.168h1.128c.288 0 .48.048.6.12q.18.108.288.432l.144.456h.072c.768-.816 1.848-1.224 3.288-1.224h.096c1.368 0 2.424.384 3.168 1.104.768-.72 1.872-1.104 3.264-1.104h.096c1.392 0 2.424.336 3.048.984.576.624.888 1.68.888 3.168v7.128c0 .24-.072.432-.192.528-.12.12-.336.168-.624.168h-2.208c-.312 0-.528-.048-.648-.168-.12-.096-.168-.288-.168-.528v-6.792c0-.528-.096-.912-.264-1.104-.192-.192-.552-.312-1.056-.312h-.048c-.528 0-.864.12-1.056.312s-.264.576-.264 1.104m12.692-3.576v10.368c0 .24-.072.432-.192.528-.12.12-.336.168-.624.168h-2.208c-.312 0-.528-.048-.648-.168-.12-.096-.168-.288-.168-.528V30.936c0-.24.048-.408.168-.528.12-.096.336-.168.648-.168h2.208c.288 0 .504.072.624.168.12.12.192.288.192.528m-1.776-1.608h-.288c-1.296 0-1.944-.648-1.944-1.992v-.12c0-1.32.648-1.992 1.944-1.992h.288c1.296 0 1.944.672 1.944 1.992v.12c0 1.344-.648 1.992-1.944 1.992m11.775 10.416v1.368c0 .36-.072.6-.168.72s-.312.168-.6.168h-1.92c-1.728 0-2.88-.288-3.408-.888-.48-.504-.696-1.464-.696-2.904V33.24h-1.296c-.24 0-.384-.024-.48-.12s-.12-.24-.12-.48v-1.224c0-.288.024-.48.12-.576.072-.096.24-.168.504-.24l1.272-.312v-2.352c0-.24.048-.408.168-.528.12-.096.336-.168.648-.168h2.208c.288 0 .504.072.624.168.12.12.192.288.192.528v2.304h1.992c.24 0 .384.048.48.144s.144.264.144.552v1.608q0 .432-.144.576c-.096.096-.24.12-.48.12h-1.992v4.536c0 .432.048.696.192.84.144.168.456.24.936.24h1.056c.288 0 .504.072.6.192s.168.36.168.696m8.128-2.04v-6.768c0-.24.048-.408.168-.528.12-.096.336-.168.648-.168h2.208c.288 0 .504.072.624.168.12.12.192.288.192.528v7.104q0 2.196-1.08 3.168c-.768.672-2.112 1.008-4.08 1.008s-3.336-.336-4.08-1.008q-1.08-.972-1.08-3.168v-7.104c0-.24.048-.408.168-.528.12-.096.336-.168.648-.168h2.208c.288 0 .504.072.624.168.12.12.192.288.192.528v6.768c0 .552.072.912.264 1.104.192.216.528.312 1.056.312.504 0 .864-.096 1.056-.312.168-.192.264-.552.264-1.104m15.153-.36v3.96c0 .24-.072.432-.192.528-.12.12-.336.168-.624.168h-2.208c-.312 0-.528-.048-.648-.168-.12-.096-.168-.288-.168-.528V26.448c0-.24.048-.408.168-.528.12-.096.336-.168.648-.168h2.208c.288 0 .504.072.624.168.12.12.192.288.192.528v7.824h.168l2.28-3.48c.216-.36.552-.552 1.008-.552h2.784c.264 0 .408.096.408.288 0 .096-.072.264-.192.456l-2.76 4.128c-.216.336-.312.576-.312.72 0 .168.096.408.312.72l2.952 4.656c.096.192.144.312.144.408 0 .264-.168.384-.504.384h-2.664c-.336 0-.6-.024-.744-.12q-.216-.108-.432-.504l-2.28-4.032zm14.351-6.528h2.064c.336 0 .576.048.696.144s.216.288.264.576c0 .096.432 2.232 1.272 6.384h.072c.432-2.52.816-4.848 1.128-7.008.024-.264.096-.432.192-.528q.144-.144.504-.144h2.448c.264 0 .432.072.528.168.072.12.096.312.048.552-.384 1.872-.864 3.936-1.392 6.192s-.912 3.672-1.152 4.272c-.096.24-.216.408-.336.48s-.312.096-.552.096h-2.64c-.504 0-.816-.168-.912-.552-.456-1.632-.84-3.696-1.176-6.192h-.096a66 66 0 0 1-1.2 6.192c-.096.384-.384.552-.864.552h-2.592c-.48 0-.792-.168-.912-.528-.24-.648-.648-2.136-1.224-4.44a112 112 0 0 1-1.344-6.072c-.072-.264-.048-.456.048-.552s.288-.168.576-.168h2.352c.24 0 .432.048.552.144.096.096.168.288.216.528.336 2.232.72 4.56 1.176 7.008h.096c.576-2.976.984-5.112 1.176-6.384.048-.312.12-.504.24-.6.12-.072.36-.12.744-.12m14.117 4.368v1.872c0 .936.144 1.536.432 1.824.216.24.552.336 1.008.336h.096c.432 0 .768-.096 1.008-.336.288-.288.432-.888.432-1.824v-1.872c0-.912-.144-1.536-.432-1.824-.24-.216-.576-.336-1.008-.336h-.096c-.456 0-.792.12-1.008.336-.288.288-.432.912-.432 1.824m6.84.144v1.56c0 1.2-.12 2.112-.36 2.784s-.624 1.2-1.152 1.608c-.792.624-2.016.936-3.696.936h-.288c-1.68 0-2.928-.312-3.696-.936a3.43 3.43 0 0 1-1.152-1.608c-.24-.672-.36-1.584-.36-2.784v-1.536c0-1.176.12-2.088.36-2.76a3.63 3.63 0 0 1 1.152-1.632c.768-.624 2.016-.936 3.696-.936h.288c1.68 0 2.904.312 3.696.936.528.432.912.96 1.152 1.608.24.672.36 1.584.36 2.76m9.567 4.416v1.368c0 .36-.072.6-.168.72s-.312.168-.6.168h-1.92c-1.728 0-2.88-.288-3.408-.888-.48-.504-.696-1.464-.696-2.904V33.24h-1.296c-.24 0-.384-.024-.48-.12s-.12-.24-.12-.48v-1.224c0-.288.024-.48.12-.576.072-.096.24-.168.504-.24l1.272-.312v-2.352c0-.24.048-.408.168-.528.12-.096.336-.168.648-.168h2.208c.288 0 .504.072.624.168.12.12.192.288.192.528v2.304h1.992c.24 0 .384.048.48.144s.144.264.144.552v1.608q0 .432-.144.576c-.096.096-.24.12-.48.12h-1.992v4.536c0 .432.048.696.192.84.144.168.456.24.936.24h1.056c.288 0 .504.072.6.192s.168.36.168.696m11.992-8.784c-.336 2.256-.96 4.752-1.872 7.512a51 51 0 0 1-3.384 7.824c-.168.336-.384.504-.672.504-.192 0-.408-.048-.696-.192l-1.224-.528c-.432-.192-.624-.384-.624-.6a.83.83 0 0 1 .12-.408c.816-1.656 1.296-2.616 1.392-2.88-.672-.24-1.176-.768-1.56-1.632-.432-.96-.936-2.424-1.488-4.44q-.828-3.024-1.224-5.184c-.048-.24-.024-.408.096-.528.12-.096.336-.168.624-.168h2.184c.264 0 .456.048.576.12s.216.216.264.456c.552 3.024 1.176 5.712 1.872 8.04h.12c.672-1.92 1.296-4.56 1.872-7.968q.036-.36.216-.504c.12-.096.312-.144.552-.144h2.208c.264 0 .456.072.552.168s.12.288.096.552"/></svg>