<svg xmlns="http://www.w3.org/2000/svg" fill="none" viewBox="0 0 204 33"><path fill="#fff" d="M0 .325h2.487l1.96 8.983 2.33-8.64h2.047l2.338 8.64L13.104.325h2.382l-3.155 12.006H9.958L7.726 4.395 5.458 12.33H3.12zm16.313 7.682q0-.931.307-1.732a4.3 4.3 0 0 1 .879-1.388q.57-.598 1.354-.94a4.3 4.3 0 0 1 1.74-.343q1.151 0 1.95.421.801.422 1.284 1.108.492.685.703 1.547.22.861.22 1.766v.3h-6.302q0 .465.211.852.211.377.536.65.334.264.756.413.431.14.844.14.615 0 1.072-.114.457-.123.774-.272a2.9 2.9 0 0 0 .852-.606l1.152 1.3-.3.3a3.5 3.5 0 0 1-.702.509q-.457.273-1.17.483-.711.22-1.696.22a4.8 4.8 0 0 1-1.837-.343 4.2 4.2 0 0 1-1.415-.94 4.1 4.1 0 0 1-.905-1.45 5.5 5.5 0 0 1-.308-1.881m2.118-.791h4.14q0-.325-.124-.642a1.8 1.8 0 0 0-.369-.589 1.9 1.9 0 0 0-.624-.43 2 2 0 0 0-.861-.176q-.52 0-.923.176-.404.167-.677.43a2 2 0 0 0-.422.59q-.14.324-.14.64m7.963 5.115V3.885h2.03l.053.958q.158-.176.386-.378.229-.202.545-.37.316-.165.712-.272.396-.114.897-.114 1.581 0 2.408.95.834.94.835 2.54v5.132h-2.127V7.216q0-.81-.44-1.248-.44-.44-1.142-.44-.43 0-.809.176-.378.167-.65.475-.273.298-.43.712-.15.405-.15.87v4.57zm9.914 0V3.885h2.03l.053.958q.158-.176.386-.378.229-.202.545-.37.316-.165.712-.272.396-.114.897-.114 1.581 0 2.408.95.834.94.835 2.54v5.132h-2.127V7.216q0-.81-.44-1.248-.438-.44-1.142-.44-.43 0-.809.176-.378.167-.65.475-.273.298-.43.712-.15.405-.15.87v4.57zm12.77-4.07q0-.992.281-1.73.29-.748.721-1.275a3.8 3.8 0 0 1 .791-.72q.44-.29.879-.475.44-.194.852-.273a4 4 0 0 1 .721-.079q.413 0 .686.026.272.027.483.07.22.045.396.124l.413.158V.325h2.11v12.006h-2.058l-.052-.826a4 4 0 0 1-.396.378 3 3 0 0 1-.545.36 4 4 0 0 1-.703.264 3 3 0 0 1-.87.114 3.4 3.4 0 0 1-1.353-.29 3.65 3.65 0 0 1-1.196-.844 4.5 4.5 0 0 1-.843-1.37q-.317-.81-.317-1.855m2.136 0q0 1.081.536 1.803.545.72 1.573.72.537 0 .914-.202.387-.211.615-.536.238-.325.343-.712t.106-.747V5.994a1.7 1.7 0 0 0-.712-.351 4.5 4.5 0 0 0-1.029-.097q-.632 0-1.045.246-.414.238-.721.633-.273.36-.43.844-.15.474-.15.993m7.884-.254q0-.931.307-1.732.316-.8.88-1.388a4.2 4.2 0 0 1 1.353-.94 4.3 4.3 0 0 1 1.74-.343q1.151 0 1.951.421.8.422 1.283 1.108.493.685.703 1.547.22.861.22 1.766v.3h-6.302q0 .465.211.852.212.377.536.65.334.264.756.413.431.14.844.14.615 0 1.072-.114.458-.123.774-.272a2.9 2.9 0 0 0 .852-.606l1.152 1.3-.3.3a3.5 3.5 0 0 1-.702.509q-.458.273-1.17.483-.712.22-1.695.22a4.8 4.8 0 0 1-1.837-.343 4.2 4.2 0 0 1-1.416-.94 4.1 4.1 0 0 1-.905-1.45 5.5 5.5 0 0 1-.307-1.881m2.118-.791h4.14q0-.325-.124-.642a1.8 1.8 0 0 0-.369-.589 1.9 1.9 0 0 0-.624-.43 2 2 0 0 0-.861-.176q-.518 0-.923.176-.404.167-.677.43a2 2 0 0 0-.422.59q-.14.324-.14.64m7.98-4.658V.325h2.268v2.233zm.07 9.773V3.885h2.128v8.446zm4.307 0V3.885h2.03l.053.958q.159-.176.387-.378t.545-.37q.315-.165.712-.272.395-.114.896-.114 1.582 0 2.409.95.834.94.834 2.54v5.132h-2.126V7.216q0-.81-.44-1.248-.44-.44-1.142-.44-.431 0-.81.176-.377.167-.65.475-.272.298-.43.712-.15.405-.15.87v4.57zm12.674-1.925 1.59-1.459q.22.255.51.536.3.273.669.519.369.237.826.404.457.159 1.037.159 1.063 0 1.573-.484.51-.483.51-1.169 0-.378-.14-.677a1.27 1.27 0 0 0-.484-.518 3.6 3.6 0 0 0-.897-.404 11 11 0 0 0-1.353-.343 4.7 4.7 0 0 1-1.433-.501 3.8 3.8 0 0 1-1.002-.818 3.3 3.3 0 0 1-.597-1.028 3.6 3.6 0 0 1-.194-1.169q0-.685.246-1.3a3 3 0 0 1 .774-1.1 4 4 0 0 1 1.31-.764q.78-.29 1.845-.29.958 0 1.635.22.686.21 1.142.5.466.29.712.572.255.272.37.404L93.4 3.094a7 7 0 0 1-.29-.255 2.7 2.7 0 0 0-.5-.37 3.2 3.2 0 0 0-.713-.324q-.412-.15-.931-.15-.465 0-.809.132-.343.123-.571.325a1.3 1.3 0 0 0-.334.44q-.106.237-.106.457 0 .325.115.58.123.246.395.466.282.211.765.386.492.168 1.23.317a6.2 6.2 0 0 1 1.345.43q.65.291 1.143.747.5.457.79 1.117.3.658.3 1.573 0 .791-.326 1.459a3.5 3.5 0 0 1-.896 1.169q-.571.501-1.371.782a5.1 5.1 0 0 1-1.723.281q-.897 0-1.626-.22a6 6 0 0 1-1.318-.544 5.7 5.7 0 0 1-1.011-.73 7.5 7.5 0 0 1-.712-.756m11.162 1.925V3.885h2.03l.053.958q.159-.176.37-.387.21-.21.5-.37.3-.157.686-.263a3.2 3.2 0 0 1 .896-.114q1.67 0 2.54 1.222.65-.67 1.319-.94.676-.282 1.573-.282 1.6 0 2.452.95.861.94.861 2.54v5.132h-2.118V7.216q0-.81-.413-1.248-.404-.44-1.098-.44-.431 0-.8.176-.36.167-.624.475-.255.298-.396.712-.132.405-.132.87v4.57h-2.118V7.216q0-.81-.404-1.248-.405-.44-1.107-.44-.431 0-.791.176-.361.167-.625.475-.263.298-.404.712a2.8 2.8 0 0 0-.132.87v4.57zm14.783-2.47q0-.72.273-1.283.272-.57.756-.958a3.3 3.3 0 0 1 1.169-.58 5.3 5.3 0 0 1 1.511-.202 20 20 0 0 1 1.152.035q.325.018.668.044v-.202q0-.633-.51-.993-.501-.36-1.31-.36-.896 0-1.441.237a7 7 0 0 0-.949.5l-.976-1.432q.255-.175.58-.37.325-.192.756-.342a5.7 5.7 0 0 1 .993-.255 8 8 0 0 1 1.327-.096 4.5 4.5 0 0 1 1.468.228q.66.22 1.125.624.466.405.721.976.255.563.255 1.23v5.67h-1.987l-.052-.792q-.343.413-1.046.738t-1.565.325q-.518 0-1.037-.166a2.8 2.8 0 0 1-.931-.493 2.5 2.5 0 0 1-.686-.852q-.264-.528-.264-1.23m2.039-.088q0 .538.387.844.387.308 1.143.308.378 0 .729-.123.352-.123.615-.343.273-.219.44-.501a1.17 1.17 0 0 0 .176-.615v-.826l-.633-.036a14 14 0 0 0-1.002-.035q-1.029 0-1.441.405-.414.405-.414.922m7.577 2.558V3.885h2.03l.053 1.063a3.5 3.5 0 0 1 .369-.386q.228-.22.536-.396.307-.185.712-.316.404-.133.923-.123.307 0 .545.035.246.034.501.123l-.431 2.004a2 2 0 0 0-.448-.123 2.7 2.7 0 0 0-.528-.044q-.43 0-.826.15a1.9 1.9 0 0 0-.685.412 2.1 2.1 0 0 0-.466.65 2.1 2.1 0 0 0-.167.844v4.553zm6.152-6.715V3.885h1.441V1.15h2.119v2.734h2.267v1.731h-2.267v3.692q0 .72.246 1.107t.782.387q.5 0 .8-.14.298-.15.571-.344l.896 1.31q-.631.519-1.248.747a3.8 3.8 0 0 1-1.362.229q-.774 0-1.318-.229a2.1 2.1 0 0 1-.87-.633 2.6 2.6 0 0 1-.475-1.002 5.6 5.6 0 0 1-.141-1.292V5.616zm10.723 4.79 1.59-1.459q.22.255.51.536.299.273.668.519.37.237.826.404.458.159 1.037.159 1.064 0 1.574-.484.51-.483.509-1.169 0-.378-.14-.677a1.27 1.27 0 0 0-.484-.518 3.6 3.6 0 0 0-.896-.404 11 11 0 0 0-1.354-.343 4.7 4.7 0 0 1-1.432-.501 3.8 3.8 0 0 1-1.002-.818 3.3 3.3 0 0 1-.598-1.028 3.6 3.6 0 0 1-.193-1.169q0-.685.246-1.3.255-.625.773-1.1a4 4 0 0 1 1.31-.764q.782-.29 1.846-.29.957 0 1.634.22.686.21 1.143.5.466.29.712.572.255.272.369.404l-1.494 1.398a7 7 0 0 1-.29-.255 2.7 2.7 0 0 0-.501-.37 3.2 3.2 0 0 0-.712-.324q-.413-.15-.932-.15-.466 0-.808.132-.343.123-.572.325a1.35 1.35 0 0 0-.334.44q-.105.237-.105.457 0 .325.114.58.123.246.396.466.28.211.764.386.493.168 1.231.317.703.14 1.345.43.65.291 1.142.747.501.457.791 1.117.299.658.299 1.573 0 .791-.325 1.459-.317.668-.897 1.169a4.1 4.1 0 0 1-1.371.782 5.1 5.1 0 0 1-1.722.281q-.897 0-1.626-.22a6 6 0 0 1-1.319-.544 5.7 5.7 0 0 1-1.01-.73 7 7 0 0 1-.712-.756m11.162 5.529V3.885h2.048l.052.958q.159-.176.405-.378t.58-.36q.333-.159.756-.264.421-.114.949-.114.976 0 1.678.377.713.378 1.178 1.002.466.615.703 1.415.238.792.238 1.635 0 .993-.29 1.697a5 5 0 0 1-.721 1.221q-.721.861-1.573 1.204a4.7 4.7 0 0 1-1.758.343q-.414 0-.712-.035a3.5 3.5 0 0 1-.545-.106 4 4 0 0 1-.448-.14 24 24 0 0 0-.44-.167v3.762zm2.1-5.678q.633.518 1.908.527a2.3 2.3 0 0 0 1.028-.22 2.48 2.48 0 0 0 1.239-1.432q.167-.475.167-.976 0-.536-.123-1.002a2.2 2.2 0 0 0-.378-.826 1.77 1.77 0 0 0-.668-.554q-.413-.21-1.028-.21-.483 0-.879.21-.395.202-.677.528a2.6 2.6 0 0 0-.439.712q-.15.386-.15.747zm7.787-2.25q0-.931.308-1.732a4.3 4.3 0 0 1 .879-1.388 4.2 4.2 0 0 1 1.353-.94 4.3 4.3 0 0 1 1.741-.343q1.151 0 1.951.421.8.422 1.283 1.108.493.685.703 1.547.22.861.22 1.766v.3h-6.302q0 .465.211.852.211.377.536.65.334.264.756.413.43.14.844.14.615 0 1.072-.114.457-.123.774-.272a3 3 0 0 0 .852-.606l1.151 1.3-.298.3a3.6 3.6 0 0 1-.704.509q-.457.273-1.168.483-.712.22-1.697.22a4.8 4.8 0 0 1-1.837-.343 4.3 4.3 0 0 1-1.415-.94 4.15 4.15 0 0 1-.905-1.45 5.5 5.5 0 0 1-.308-1.881m2.119-.791h4.139q0-.325-.123-.642a1.8 1.8 0 0 0-.369-.589 1.9 1.9 0 0 0-.624-.43 2 2 0 0 0-.861-.176q-.52 0-.923.176-.405.167-.677.43a2 2 0 0 0-.422.59q-.14.324-.14.64m7.418 2.645q0-.72.272-1.283.273-.57.756-.958a3.3 3.3 0 0 1 1.169-.58 5.3 5.3 0 0 1 1.512-.202 20 20 0 0 1 1.151.035q.325.018.668.044v-.202q0-.633-.51-.993-.5-.36-1.309-.36-.897 0-1.442.237a7 7 0 0 0-.949.5l-.976-1.432q.255-.175.58-.37.326-.192.756-.342a5.7 5.7 0 0 1 .993-.255 8 8 0 0 1 1.328-.096q.808 0 1.467.228.66.22 1.125.624.466.405.721.976.255.563.255 1.23v5.67h-1.986l-.053-.792q-.343.413-1.046.738t-1.564.325a3.4 3.4 0 0 1-1.038-.166 2.9 2.9 0 0 1-.931-.493 2.5 2.5 0 0 1-.686-.852q-.263-.528-.263-1.23m2.039-.088q0 .538.386.844.387.308 1.143.308.378 0 .729-.123.352-.123.616-.343.272-.219.439-.501a1.17 1.17 0 0 0 .176-.615v-.826l-.633-.036a14 14 0 0 0-1.002-.035q-1.028 0-1.441.405t-.413.922m7.576 2.558V.325h2.118v6.548l3.05-2.988h2.496l-3.164 3.12 3.524 5.326h-2.54l-2.443-3.885-.923.897v2.988zm8.815-4.324q0-.931.308-1.732a4.3 4.3 0 0 1 .879-1.388 4.2 4.2 0 0 1 1.353-.94 4.3 4.3 0 0 1 1.74-.343q1.151 0 1.952.421.8.422 1.283 1.108.492.685.703 1.547.22.861.22 1.766v.3h-6.302q0 .465.211.852.211.377.536.65.334.264.756.413.43.14.844.14.615 0 1.072-.114.457-.123.773-.272a2.9 2.9 0 0 0 .853-.606l1.151 1.3-.299.3a3.5 3.5 0 0 1-.703.509q-.456.273-1.169.483-.711.22-1.696.22a4.8 4.8 0 0 1-1.837-.343 4.2 4.2 0 0 1-1.415-.94 4.15 4.15 0 0 1-.905-1.45 5.5 5.5 0 0 1-.308-1.881m2.118-.791h4.14q0-.325-.123-.642a1.8 1.8 0 0 0-.369-.589 1.9 1.9 0 0 0-.624-.43 2 2 0 0 0-.862-.176 2.3 2.3 0 0 0-.922.176q-.405.167-.677.43a2 2 0 0 0-.422.59q-.141.324-.141.64m7.963 5.115V3.885h2.031l.052 1.063q.141-.176.369-.386.229-.22.537-.396.308-.185.711-.316.405-.133.923-.123.308 0 .545.035.246.034.501.123l-.43 2.004a2 2 0 0 0-.449-.123 2.7 2.7 0 0 0-.527-.044q-.431 0-.826.15a1.9 1.9 0 0 0-.686.412 2.1 2.1 0 0 0-.466.65 2.1 2.1 0 0 0-.167.844v4.553zM.475 28.261q0-.992.28-1.73.29-.748.722-1.275a3.8 3.8 0 0 1 .79-.72q.44-.29.88-.476a4 4 0 0 1 .852-.272q.413-.08.72-.079.414 0 .686.026.273.027.484.07.22.045.395.124l.413.158v-3.762h2.11v12.006H6.75l-.053-.826a4 4 0 0 1-.395.378 3 3 0 0 1-.545.36q-.316.159-.703.264a3 3 0 0 1-.87.114 3.4 3.4 0 0 1-1.354-.29 3.65 3.65 0 0 1-1.195-.844 4.4 4.4 0 0 1-.844-1.37q-.315-.81-.316-1.855m2.135 0q.001 1.082.536 1.803.546.72 1.574.72.536 0 .914-.202.387-.211.615-.536.237-.325.343-.712.105-.387.105-.747v-2.593a1.7 1.7 0 0 0-.712-.351 4.5 4.5 0 0 0-1.028-.097q-.632 0-1.046.246-.412.238-.72.633-.273.36-.431.844-.15.474-.15.993m8.297-5.703v-2.233h2.268v2.233zm.07 9.773v-8.446h2.127v8.446zm3.912-4.228q0-.914.334-1.73.334-.828.922-1.434.599-.615 1.433-.975a4.6 4.6 0 0 1 1.846-.36q1.028 0 1.872.369a4.4 4.4 0 0 1 1.441.993l-1.353 1.37a2.6 2.6 0 0 0-.844-.64 2.5 2.5 0 0 0-1.116-.238q-.615 0-1.064.229-.448.22-.747.58-.298.36-.448.843-.14.484-.14.994 0 .483.14.957.15.466.448.844.3.378.747.615.45.23 1.064.229a2.65 2.65 0 0 0 2.03-.905l1.266 1.37a4.6 4.6 0 0 1-1.406 1.012q-.81.378-1.89.377-1.08 0-1.934-.325a4 4 0 0 1-1.424-.914 4.1 4.1 0 0 1-.878-1.424 5.4 5.4 0 0 1-.3-1.837m9.255 4.228V20.325h2.083v4.43q.325-.36.949-.703t1.59-.343q.774 0 1.38.255.615.246 1.02.712.412.457.624 1.107.22.642.22 1.415v5.133h-2.127v-5.115q0-.81-.44-1.248-.44-.44-1.142-.44-.43 0-.809.176-.378.167-.65.475-.273.298-.43.712-.15.405-.15.87v4.57zm13.166 0v-8.446h2.03l.053.958a5 5 0 0 1 .386-.378 2.8 2.8 0 0 1 .545-.37q.317-.165.712-.272.396-.114.897-.114 1.581 0 2.408.95.834.94.835 2.54v5.132h-2.127v-5.115q0-.81-.44-1.248-.44-.44-1.142-.44-.43 0-.809.176-.378.167-.65.475-.273.298-.43.712-.15.405-.15.87v4.57zm9.931-9.773v-2.233h2.268v2.233zm.07 9.773v-8.446h2.127v8.446zm3.912-4.228q0-.914.334-1.73.334-.828.922-1.434.599-.615 1.433-.975a4.6 4.6 0 0 1 1.846-.36q1.028 0 1.872.369a4.4 4.4 0 0 1 1.441.993l-1.353 1.37a2.6 2.6 0 0 0-.844-.64 2.5 2.5 0 0 0-1.116-.238q-.615 0-1.064.229-.448.22-.747.58-.298.36-.448.843-.14.484-.14.994 0 .483.14.957.15.466.448.844.3.378.747.615.45.23 1.064.229a2.65 2.65 0 0 0 2.03-.905l1.266 1.37a4.6 4.6 0 0 1-1.407 1.012q-.808.378-1.89.377-1.08 0-1.933-.325a4 4 0 0 1-1.424-.914 4.1 4.1 0 0 1-.878-1.424 5.4 5.4 0 0 1-.3-1.837m9.255 4.228V20.325h2.082v4.43q.326-.36.95-.703t1.59-.343q.774 0 1.38.255.615.246 1.02.712.413.457.624 1.107.22.642.22 1.415v5.133h-2.127v-5.115q0-.81-.44-1.248-.44-.44-1.142-.44-.43 0-.809.176-.378.167-.65.475-.273.298-.43.712-.15.405-.15.87v4.57zm9.193-6.715v-1.731h1.441V21.15h2.119v2.734h2.267v1.731h-2.267v3.692q0 .72.246 1.107t.782.387q.5 0 .8-.14.3-.15.57-.344l.897 1.31q-.631.519-1.248.747a3.8 3.8 0 0 1-1.362.228q-.774 0-1.318-.228a2.14 2.14 0 0 1-.87-.633 2.6 2.6 0 0 1-.475-1.002 5.6 5.6 0 0 1-.14-1.292v-3.832zm10.257-1.731h2.452l2.267 6.055 2.268-6.055h2.32l-3.56 8.446h-2.161zm10.054 4.122q0-.931.308-1.732a4.3 4.3 0 0 1 .879-1.388q.57-.598 1.353-.94a4.3 4.3 0 0 1 1.74-.343q1.152 0 1.952.421.799.422 1.283 1.108.492.686.703 1.547.22.861.22 1.766v.3h-6.302q0 .465.211.852.211.378.536.65.334.263.756.413.431.14.844.14.615 0 1.072-.113.458-.123.773-.273a2.9 2.9 0 0 0 .853-.606l1.151 1.3-.298.3a3.5 3.5 0 0 1-.704.509q-.457.273-1.168.483-.712.22-1.697.22a4.8 4.8 0 0 1-1.837-.343 4.2 4.2 0 0 1-1.415-.94 4.1 4.1 0 0 1-.905-1.45 5.5 5.5 0 0 1-.308-1.881m2.119-.791h4.14q0-.325-.124-.642a1.8 1.8 0 0 0-.369-.589 1.9 1.9 0 0 0-.624-.43 2 2 0 0 0-.861-.176q-.52 0-.923.176-.404.167-.677.43a2 2 0 0 0-.422.59q-.14.325-.14.64m7.962 5.115v-8.446h2.031l.052 1.063a4 4 0 0 1 .37-.387q.228-.22.536-.395.307-.185.712-.316.404-.133.923-.123.307 0 .544.035.247.034.501.123l-.43 2.004a2 2 0 0 0-.448-.123 2.7 2.7 0 0 0-.528-.044q-.43 0-.826.15a1.9 1.9 0 0 0-.686.412 2.1 2.1 0 0 0-.465.65 2.05 2.05 0 0 0-.167.844v4.553zm6.46-1.028 1.275-1.38q.396.395.993.659.606.255 1.38.255.685 0 1.099-.176.413-.184.413-.598a.75.75 0 0 0-.071-.325q-.07-.158-.307-.299a3 3 0 0 0-.642-.29 10 10 0 0 0-1.116-.307 7 7 0 0 1-.905-.29 3.7 3.7 0 0 1-.871-.492 2.7 2.7 0 0 1-.667-.756q-.255-.449-.255-1.055 0-.633.298-1.125.308-.501.8-.826a4 4 0 0 1 1.116-.51 4.4 4.4 0 0 1 1.257-.184q1.116 0 1.899.237.782.229 1.415.694l-1.099 1.494a3.5 3.5 0 0 0-.905-.457q-.554-.21-1.31-.21t-1.054.228q-.3.228-.299.545 0 .395.492.624.501.228 1.547.474.65.141 1.16.36.51.22.879.546.37.324.562.764.203.44.203 1.055 0 .616-.29 1.107a2.5 2.5 0 0 1-.783.835 3.8 3.8 0 0 1-1.151.528q-.66.193-1.398.193-1.186 0-2.144-.334-.95-.333-1.521-.984m8.289-5.687v-1.731h1.441V21.15h2.118v2.734h2.268v1.731h-2.268v3.692q0 .72.246 1.107t.782.387q.501 0 .8-.14.299-.15.572-.344l.896 1.31q-.633.519-1.248.747a3.8 3.8 0 0 1-1.362.228q-.773 0-1.319-.228a2.14 2.14 0 0 1-.87-.633 2.6 2.6 0 0 1-.474-1.002 5.6 5.6 0 0 1-.141-1.292v-3.832zm7.567 2.39q0-.93.308-1.73.315-.8.878-1.39a4.2 4.2 0 0 1 1.354-.94 4.3 4.3 0 0 1 1.74-.343q1.152 0 1.951.422t1.284 1.108q.492.686.703 1.547a7.1 7.1 0 0 1 .219 1.766v.3h-6.301q0 .465.211.852.21.378.536.65.333.263.756.413.43.14.843.14.615 0 1.073-.113.456-.123.773-.273a2.9 2.9 0 0 0 .853-.606l1.151 1.3-.299.3a3.5 3.5 0 0 1-.703.509 5.2 5.2 0 0 1-1.169.483q-.712.22-1.696.22a4.8 4.8 0 0 1-1.837-.343 4.2 4.2 0 0 1-1.415-.94 4.1 4.1 0 0 1-.905-1.45 5.5 5.5 0 0 1-.308-1.881m2.118-.79h4.14q0-.325-.123-.642a1.8 1.8 0 0 0-.369-.589 1.9 1.9 0 0 0-.624-.43 2 2 0 0 0-.862-.176q-.518 0-.923.176a2.1 2.1 0 0 0-.676.43 1.9 1.9 0 0 0-.422.59q-.141.325-.141.64m7.963 5.115V20.325h2.083v4.43q.325-.36.949-.703t1.591-.343q.774 0 1.38.255a2.6 2.6 0 0 1 1.019.712q.414.457.624 1.107.22.642.22 1.415v5.133h-2.127v-5.115q0-.81-.439-1.248-.44-.44-1.143-.44-.43 0-.808.176a1.9 1.9 0 0 0-.651.475q-.272.298-.43.712-.15.405-.15.87v4.57zm9.193-6.715v-1.731h1.442V21.15h2.118v2.734h2.267v1.731h-2.267v3.692q0 .72.246 1.107t.782.387q.501 0 .8-.14.299-.15.571-.344l.897 1.31q-.633.519-1.248.747a3.9 3.9 0 0 1-1.363.228q-.773 0-1.318-.228a2.14 2.14 0 0 1-.87-.633 2.6 2.6 0 0 1-.475-1.002 5.6 5.6 0 0 1-.14-1.292v-3.832zm8.139 6.715v-2.487h2.575v2.487zm5.027 0v-2.487h2.576v2.487zm5.028 0v-2.487h2.575v2.487z"/></svg>