<svg xmlns="http://www.w3.org/2000/svg" fill="none" viewBox="0 0 291 86"><path fill="#000" d="M36.543 25.747h10.99v4.66h-18.64v-3.65l10.64-12.582H29.166v-4.66h18.019v3.65zM66.296 9.515h6.058v20.893h-5.787V28c-1.514 1.825-3.728 2.718-6.524 2.718-5.903 0-10.446-4.194-10.446-10.757S54.14 9.204 60.043 9.204c2.563 0 4.738.816 6.253 2.524zm-5.204 16.232c2.99 0 5.32-2.174 5.32-5.786s-2.33-5.786-5.32-5.786c-3.03 0-5.36 2.174-5.36 5.786s2.33 5.786 5.36 5.786m27.631-12.62-4.35 3.261v14.02h-6.057v-9.476l-2.136 1.592-2.253-3.029 4.389-3.3V1.592h6.058v10.019l2.136-1.592zm8.122-6.292 5.243-5.592h6.524l-7.029 5.592zm3.612 23.883c-6.64 0-11.495-4.466-11.495-10.757s4.854-10.757 11.495-10.757 11.456 4.466 11.456 10.757-4.816 10.757-11.456 10.757m0-4.97c3.029 0 5.32-2.175 5.32-5.787s-2.291-5.786-5.32-5.786-5.36 2.174-5.36 5.786 2.33 5.786 5.36 5.786M123.58 6.64c-1.903 0-3.262-1.398-3.262-3.3 0-1.865 1.359-3.263 3.262-3.263s3.262 1.398 3.262 3.262c0 1.903-1.359 3.301-3.262 3.301m-1.67 19.106h10.99v4.66h-18.64v-3.65l10.64-12.582h-10.368v-4.66h18.019v3.65zm39.967-7.067 7.534 11.728h-6.874l-5.902-9.049h-2.796v9.048h-6.059V1.593h6.059v15.145h2.796l5.592-7.223h6.757zm19.13 12.038c-6.64 0-11.495-4.466-11.495-10.757s4.855-10.757 11.495-10.757c6.641 0 11.456 4.466 11.456 10.757s-4.815 10.757-11.456 10.757m0-4.97c3.029 0 5.321-2.175 5.321-5.787s-2.292-5.786-5.321-5.786-5.359 2.174-5.359 5.786 2.33 5.786 5.359 5.786m28.709-16.544c4.932 0 8.66 2.874 8.66 9.243v11.96h-6.058V19.38c0-3.379-1.553-4.932-4.233-4.932-2.912 0-5.009 1.786-5.009 5.63v10.33h-6.058V14.176h-2.33v-4.66h7.184l.311 3.262c1.592-2.33 4.31-3.573 7.533-3.573m25.13 15.922 1.592 4.272c-1.242.893-3.068 1.32-4.893 1.32-4.971 0-7.806-2.524-7.806-7.495V4.893h6.059v4.622h5.165v4.621h-5.165v9.01c0 1.786.932 2.757 2.563 2.757.893 0 1.786-.272 2.485-.777m14.311 5.592c-6.641 0-11.495-4.466-11.495-10.757s4.854-10.757 11.495-10.757 11.456 4.466 11.456 10.757-4.816 10.757-11.456 10.757m0-4.97c3.029 0 5.32-2.175 5.32-5.787s-2.291-5.786-5.32-5.786-5.359 2.174-5.359 5.786 2.33 5.786 5.359 5.786M4.025 53.601c-2.253 0-3.767-1.476-3.767-3.378s1.514-3.379 3.767-3.379c2.252 0 3.767 1.398 3.767 3.262 0 2.02-1.515 3.495-3.767 3.495M.995 77.408V56.515h6.059v20.893zm28.893-4.66h10.99v4.66h-18.64v-3.65l10.64-12.583H22.509v-4.66h18.02v3.65zm30.017-16.233h6.058v17.397c0 7.767-4.077 11.34-11.378 11.34-3.845 0-7.573-.97-9.941-2.874l2.407-4.35c1.709 1.438 4.427 2.33 7.068 2.33 4.039 0 5.786-1.902 5.786-5.669v-.699c-1.592 1.592-3.767 2.408-6.174 2.408-5.243 0-8.932-2.913-8.932-9.398V56.515h6.058v9.592c0 3.534 1.553 5.087 4.233 5.087 2.796 0 4.815-1.786 4.815-5.63zM78.64 77.718c-3.534 0-7.106-.97-9.048-2.252l2.02-4.35c1.863 1.204 4.698 2.02 7.261 2.02 2.796 0 3.845-.738 3.845-1.903 0-3.418-12.621.078-12.621-8.272 0-3.96 3.572-6.757 9.67-6.757 2.873 0 6.057.66 8.038 1.825l-2.02 4.31c-2.058-1.164-4.116-1.553-6.019-1.553-2.718 0-3.883.855-3.883 1.942 0 3.573 12.621.117 12.621 8.35 0 3.883-3.612 6.64-9.864 6.64m27.699-12.038 7.533 11.727h-6.873l-5.903-9.048h-2.796v9.049H92.24V48.593h6.058v15.145h2.796l5.592-7.223h6.757zm24.333-9.165h6.059v20.893h-5.787V75c-1.514 1.825-3.728 2.718-6.524 2.718-5.903 0-10.446-4.194-10.446-10.757s4.543-10.757 10.446-10.757c2.563 0 4.738.816 6.252 2.524zm-5.203 16.232c2.99 0 5.32-2.174 5.32-5.786s-2.33-5.786-5.32-5.786c-3.029 0-5.359 2.175-5.359 5.786 0 3.612 2.33 5.786 5.359 5.786m20.136-19.145c-2.252 0-3.767-1.476-3.767-3.378s1.515-3.379 3.767-3.379 3.767 1.398 3.767 3.262c0 2.02-1.515 3.495-3.767 3.495m-4.155 31.65c-1.67 0-3.146-.35-4.35-1.165l1.631-4.388c.622.466 1.243.737 2.059.737 1.048 0 1.786-.737 1.786-2.252v-21.67h6.058v21.32c0 4.583-2.602 7.418-7.184 7.418m36.847-29.048c4.932 0 8.66 2.874 8.66 9.243v11.96h-6.058V66.38c0-3.379-1.553-4.932-4.233-4.932-2.912 0-5.009 1.786-5.009 5.63v10.33h-6.058V61.176h-2.33v-4.66h7.184l.311 3.262c1.592-2.33 4.31-3.573 7.533-3.573m29.437.31h6.058v20.893h-5.786V75c-1.515 1.825-3.728 2.718-6.524 2.718-5.903 0-10.447-4.194-10.447-10.757s4.544-10.757 10.447-10.757c2.563 0 4.737.816 6.252 2.524zm-5.204 16.233c2.99 0 5.32-2.174 5.32-5.786s-2.33-5.786-5.32-5.786c-3.029 0-5.359 2.175-5.359 5.786 0 3.612 2.33 5.786 5.359 5.786m44.913-16.232h5.359l-7.573 20.893h-5.825l-4.699-12.971-4.854 12.97h-5.825l-7.534-20.892h5.709l4.932 14.135 5.126-14.135h5.126l4.97 14.135zm26.517 10.524c0 .466-.078 1.126-.116 1.63h-15.806c.583 2.603 2.796 4.195 5.981 4.195 2.213 0 3.805-.66 5.242-2.02l3.223 3.496c-1.941 2.213-4.854 3.378-8.621 3.378-7.223 0-11.922-4.544-11.922-10.757 0-6.252 4.777-10.757 11.146-10.757 6.135 0 10.873 4.116 10.873 10.835m-10.835-6.253c-2.757 0-4.737 1.67-5.165 4.35h10.291c-.427-2.64-2.407-4.35-5.126-4.35m25.858 11.34 1.593 4.272c-1.243.893-3.068 1.32-4.893 1.32-4.971 0-7.806-2.524-7.806-7.495v-18.33h6.058v4.622h5.165v4.621h-5.165v9.01c0 1.786.932 2.757 2.563 2.757.893 0 1.786-.272 2.485-.777"/></svg>