<svg xmlns="http://www.w3.org/2000/svg" fill="none" viewBox="0 0 129 24"><rect width="129" height="24" fill="#f3141d" rx="12"/><path fill="#fff" d="M24.105 8.329h1.859l2.262 4.069 2.21-4.069h1.872L32.711 17h-1.963l-.247-5.668-1.794 3.38h-1.014l-1.898-3.341L25.574 17h-1.872zm15.753 8.008q-.104.065-.312.221-.208.142-.546.286a4.4 4.4 0 0 1-.78.247 4.2 4.2 0 0 1-1.04.117q-.78 0-1.404-.234a3.2 3.2 0 0 1-1.066-.676 3 3 0 0 1-.663-1.027 3.9 3.9 0 0 1-.22-1.339q0-.637.207-1.222a3.1 3.1 0 0 1 .624-1.04q.403-.443.988-.702a3.1 3.1 0 0 1 1.326-.273q.742 0 1.3.26.56.26.936.728.39.455.585 1.105.195.638.195 1.404v.312h-4.342q.013.495.43.871.427.364 1.17.364.727 0 1.182-.208.455-.22.663-.377zm-1.638-3.029q0-.195-.078-.39a1.14 1.14 0 0 0-.624-.65 1.24 1.24 0 0 0-.559-.117q-.325 0-.572.117-.247.104-.416.273a1.4 1.4 0 0 0-.247.377q-.078.195-.078.39zm2.836-4.979h1.86v3.159q.299-.351.792-.533.494-.195 1.001-.195 1.053 0 1.677.624.637.624.637 1.846V17h-1.859v-3.484q0-.533-.273-.832-.273-.3-.728-.299-.3 0-.533.117-.234.105-.39.286a1.2 1.2 0 0 0-.234.429 1.6 1.6 0 0 0-.078.507V17h-1.872zm7.338 2.574h1.794l.065.767q.234-.312.637-.598.416-.285 1.066-.286.247 0 .416.026.182.026.351.091l-.299 1.651a2.2 2.2 0 0 0-.676-.091q-.663 0-1.079.403-.403.39-.403 1.118V17h-1.872zm13.211 5.434q-.104.065-.312.221-.207.142-.546.286a4.4 4.4 0 0 1-.78.247 4.2 4.2 0 0 1-1.04.117q-.78 0-1.404-.234a3.2 3.2 0 0 1-1.066-.676 3 3 0 0 1-.663-1.027 3.9 3.9 0 0 1-.22-1.339q0-.637.207-1.222.222-.598.624-1.04.403-.443.988-.702a3.1 3.1 0 0 1 1.326-.273q.742 0 1.3.26.56.26.936.728.39.455.585 1.105.195.638.195 1.404v.312h-4.342q.013.495.43.871.427.364 1.17.364.728 0 1.182-.208.456-.22.663-.377zm-1.638-3.029q0-.195-.078-.39a1.14 1.14 0 0 0-.624-.65 1.24 1.24 0 0 0-.559-.117q-.324 0-.572.117-.246.104-.416.273a1.4 1.4 0 0 0-.247.377q-.078.195-.078.39zm2.836-2.405h1.794l.065.767q.234-.312.637-.598.417-.285 1.066-.286.248 0 .416.026.183.026.351.091l-.299 1.651a2.2 2.2 0 0 0-.676-.091q-.663 0-1.079.403-.403.39-.403 1.118V17h-1.872zm5.648 1.469h-.988v-1.469h.988v-.312q0-.65.208-1.118.221-.468.572-.767.351-.312.793-.455.456-.156.923-.156.494 0 1.001.143t.923.494q-.195.3-.403.598-.195.286-.39.585a1.55 1.55 0 0 0-.91-.299q-.39 0-.624.247-.234.248-.234.702v.338h1.443v1.469H70.31V17h-1.859zm7.562 4.056a2 2 0 0 1-.793.559q-.468.195-1.053.195-.325 0-.689-.091a2.2 2.2 0 0 1-.663-.299 1.9 1.9 0 0 1-.507-.585q-.195-.364-.195-.91 0-.533.208-.949.221-.416.598-.689.377-.286.884-.429.52-.143 1.118-.143.325 0 .65.013.338.013.442.039v-.13a.7.7 0 0 0-.104-.39.7.7 0 0 0-.26-.273.9.9 0 0 0-.364-.156 1.8 1.8 0 0 0-.442-.052q-.624 0-1.04.156a3.4 3.4 0 0 0-.689.351l-.767-1.144q.195-.142.442-.286.248-.143.585-.26.338-.117.754-.182.429-.078.975-.078 1.39 0 2.054.754.663.74.663 2.002V17h-1.755zm0-2.119a2 2 0 0 0-.247-.026 3 3 0 0 0-.416-.026q-.78 0-1.105.221a.71.71 0 0 0-.325.624q0 .754.91.754.22 0 .43-.065.22-.078.376-.208a.953.953 0 0 0 .377-.78zm3.154-5.98h1.86v3.159q.298-.351.793-.533.494-.195 1-.195 1.054 0 1.678.624.636.624.636 1.846V17h-1.859v-3.484q0-.533-.273-.832-.272-.3-.727-.299-.3 0-.534.117-.233.105-.39.286a1.2 1.2 0 0 0-.233.429 1.6 1.6 0 0 0-.078.507V17h-1.873zm7.338 2.574H88.3l.065.767q.235-.312.637-.598.417-.285 1.066-.286.248 0 .416.026.183.026.351.091l-.299 1.651a2.2 2.2 0 0 0-.676-.091q-.662 0-1.079.403-.402.39-.403 1.118V17h-1.872zm10.761 5.434q-.103.065-.312.221-.207.142-.546.286a4.4 4.4 0 0 1-.78.247 4.2 4.2 0 0 1-1.04.117q-.78 0-1.404-.234a3.2 3.2 0 0 1-1.066-.676 3 3 0 0 1-.663-1.027 3.9 3.9 0 0 1-.22-1.339q0-.637.207-1.222a3.1 3.1 0 0 1 .624-1.04q.403-.443.988-.702a3.1 3.1 0 0 1 1.326-.273q.741 0 1.3.26.56.26.936.728.39.455.585 1.105.195.638.195 1.404v.312h-4.342q.013.495.43.871.427.364 1.17.364.728 0 1.182-.208.456-.22.663-.377zm-1.638-3.029q0-.195-.078-.39a1.14 1.14 0 0 0-.624-.65 1.24 1.24 0 0 0-.559-.117q-.324 0-.572.117-.246.104-.416.273a1.4 1.4 0 0 0-.247.377q-.078.195-.078.39zm2.85-2.405h1.793l.052.663q.3-.365.78-.585.495-.22 1.027-.221 1.053 0 1.664.624.624.624.624 1.846V17h-1.872v-3.51q0-.507-.26-.806-.246-.3-.702-.299-.312 0-.546.117-.234.105-.39.286a1.2 1.2 0 0 0-.234.429 1.6 1.6 0 0 0-.078.507V17h-1.859z"/></svg>