<svg xmlns="http://www.w3.org/2000/svg" fill="none" viewBox="0 0 216 131"><path fill="#fff" d="M.161 0h4.56l3.593 16.468 4.27-15.84h3.755l4.286 15.84L24.186 0h4.367l-5.785 22.01h-4.35L14.325 7.46l-4.157 14.55H5.88zm29.906 14.083q0-1.708.564-3.174a7.8 7.8 0 0 1 1.612-2.546 7.6 7.6 0 0 1 2.481-1.724q1.45-.63 3.19-.629 2.111 0 3.578.774 1.465.773 2.352 2.03a8.1 8.1 0 0 1 1.29 2.836q.402 1.579.402 3.239v.548H33.983q0 .854.387 1.563.386.692.983 1.192.612.483 1.385.757a5 5 0 0 0 1.547.258q1.128 0 1.966-.21a8.6 8.6 0 0 0 1.418-.499 5.4 5.4 0 0 0 1.563-1.112l2.11 2.385-.547.548q-.435.435-1.29.934-.837.5-2.142.887-1.305.402-3.11.402-1.853 0-3.368-.628a7.8 7.8 0 0 1-2.594-1.724 7.6 7.6 0 0 1-1.66-2.659q-.564-1.563-.564-3.448m3.884-1.45h7.589q0-.597-.225-1.176a3.3 3.3 0 0 0-.677-1.08 3.4 3.4 0 0 0-1.144-.79q-.693-.321-1.58-.322-.95 0-1.691.322a3.9 3.9 0 0 0-1.241.79 3.6 3.6 0 0 0-.773 1.08q-.258.596-.258 1.176m14.598 9.378V6.526h3.723l.096 1.756q.29-.322.71-.693.417-.37.998-.676.58-.307 1.305-.5a6 6 0 0 1 1.644-.21q2.9 0 4.415 1.74 1.53 1.725 1.53 4.658v9.41h-3.899v-9.378q0-1.482-.805-2.288-.807-.806-2.095-.806-.789 0-1.483.322-.692.306-1.192.87a4.1 4.1 0 0 0-.79 1.306 4.6 4.6 0 0 0-.273 1.595v8.379zm18.176 0V6.526h3.722l.097 1.756q.29-.322.709-.693.42-.37.999-.676.58-.307 1.305-.5a6 6 0 0 1 1.644-.21q2.9 0 4.415 1.74 1.53 1.725 1.53 4.658v9.41h-3.899v-9.378q0-1.482-.806-2.288t-2.094-.806q-.79 0-1.483.322a3.4 3.4 0 0 0-1.192.87 4.1 4.1 0 0 0-.79 1.306 4.6 4.6 0 0 0-.274 1.595v8.379zm23.413-7.46q0-1.822.515-3.175.532-1.37 1.322-2.336.66-.79 1.45-1.322a10 10 0 0 1 1.611-.87 7.3 7.3 0 0 1 1.563-.5 7 7 0 0 1 1.321-.144q.758 0 1.257.048.5.048.886.129.404.081.726.225l.757.29V0h3.867v22.01h-3.77l-.097-1.514a8 8 0 0 1-.725.693 5.6 5.6 0 0 1-1 .66 7 7 0 0 1-1.288.484q-.71.21-1.596.21a6.2 6.2 0 0 1-2.48-.532 6.7 6.7 0 0 1-2.192-1.547q-.951-1.031-1.547-2.514-.58-1.482-.58-3.4m3.915 0q0 1.98.983 3.303 1 1.32 2.884 1.32.983 0 1.676-.37a3.25 3.25 0 0 0 1.128-.983q.435-.596.629-1.305.192-.709.193-1.37v-4.753a3.2 3.2 0 0 0-1.305-.644q-.742-.178-1.885-.178-1.16 0-1.918.452-.757.434-1.321 1.16-.5.66-.79 1.547a6 6 0 0 0-.274 1.82m14.454-.468q0-1.708.564-3.174a7.8 7.8 0 0 1 1.611-2.546 7.6 7.6 0 0 1 2.482-1.724q1.45-.63 3.19-.629 2.111 0 3.577.774 1.467.773 2.353 2.03a8.1 8.1 0 0 1 1.289 2.836q.403 1.579.403 3.239v.548h-11.554q0 .854.387 1.563.387.692.983 1.192a4.8 4.8 0 0 0 1.386.757 5 5 0 0 0 1.547.258q1.128 0 1.965-.21a8.5 8.5 0 0 0 1.418-.499 5.4 5.4 0 0 0 1.563-1.112l2.111 2.385-.548.548q-.434.435-1.289.934-.838.5-2.143.887-1.305.402-3.11.402-1.853 0-3.367-.628a7.8 7.8 0 0 1-2.595-1.724 7.6 7.6 0 0 1-1.659-2.659q-.564-1.563-.564-3.448m3.883-1.45h7.589q0-.597-.225-1.176a3.3 3.3 0 0 0-.677-1.08 3.4 3.4 0 0 0-1.144-.79q-.693-.321-1.579-.322-.951 0-1.692.322a3.9 3.9 0 0 0-1.241.79q-.499.483-.773 1.08-.258.596-.258 1.176m14.631-8.54V0h4.157v4.093zm.129 17.918V6.526h3.899V22.01zm7.895 0V6.526h3.723l.096 1.756a9 9 0 0 1 .709-.693q.42-.37.999-.676.58-.307 1.305-.5a6 6 0 0 1 1.644-.21q2.9 0 4.415 1.74 1.531 1.725 1.531 4.658v9.41h-3.9v-9.378q0-1.482-.805-2.288-.806-.806-2.095-.806-.79 0-1.482.322-.693.306-1.193.87-.5.548-.789 1.306a4.6 4.6 0 0 0-.274 1.595v8.379zM.854 54.48l2.917-2.674q.402.468.934.983.548.5 1.225.95.676.435 1.514.742.838.29 1.902.29 1.949 0 2.884-.886t.935-2.143a2.9 2.9 0 0 0-.258-1.241q-.258-.548-.886-.95-.63-.42-1.644-.742-.999-.339-2.481-.628-1.515-.29-2.627-.919-1.111-.645-1.837-1.498a6 6 0 0 1-1.096-1.886 6.6 6.6 0 0 1-.354-2.143q0-1.257.451-2.384a5.56 5.56 0 0 1 1.418-2.015q.967-.87 2.401-1.402t3.384-.531q1.756 0 2.997.403 1.257.387 2.095.918.854.532 1.305 1.047.467.5.676.742l-2.739 2.562a13 13 0 0 1-.532-.468 5 5 0 0 0-.918-.676 6 6 0 0 0-1.305-.597q-.757-.273-1.708-.273-.855 0-1.483.241-.628.226-1.047.596a2.4 2.4 0 0 0-.612.806 2.1 2.1 0 0 0-.194.838q0 .596.21 1.063.225.452.725.854.516.387 1.402.71.901.305 2.256.58 1.288.257 2.465.79a7.6 7.6 0 0 1 2.095 1.369 6 6 0 0 1 1.45 2.046q.548 1.209.548 2.884a6 6 0 0 1-.596 2.675 6.5 6.5 0 0 1-1.644 2.143q-1.047.919-2.514 1.434-1.45.516-3.158.516-1.645 0-2.98-.403a11.2 11.2 0 0 1-2.418-.999 10.4 10.4 0 0 1-1.853-1.337q-.773-.726-1.305-1.386m20.464 3.53V42.526h3.722l.097 1.756q.29-.322.677-.709.386-.387.918-.676a6 6 0 0 1 1.257-.484 6 6 0 0 1 1.643-.21q3.062 0 4.657 2.24 1.192-1.224 2.417-1.724 1.241-.515 2.884-.515 2.933 0 4.496 1.74 1.58 1.724 1.579 4.657v9.41h-3.883v-9.378q0-1.483-.758-2.288-.74-.806-2.014-.806-.79 0-1.466.322-.66.307-1.144.87-.468.548-.725 1.306a5.1 5.1 0 0 0-.242 1.595v8.379H31.55v-9.378q0-1.483-.741-2.288-.742-.806-2.03-.806-.79 0-1.45.322-.662.307-1.145.87-.484.548-.741 1.306a5.1 5.1 0 0 0-.242 1.595v8.379zm27.102-4.528q0-1.32.5-2.353a4.94 4.94 0 0 1 1.386-1.756q.886-.709 2.143-1.064 1.257-.37 2.771-.37a36 36 0 0 1 2.111.064q.596.033 1.225.081v-.37q0-1.161-.935-1.821-.919-.66-2.4-.661-1.644 0-2.643.435-.984.435-1.74.918l-1.79-2.626q.468-.322 1.064-.677a7.6 7.6 0 0 1 1.386-.628q.79-.291 1.82-.468 1.049-.177 2.434-.177 1.482 0 2.69.42 1.21.403 2.063 1.143a5.1 5.1 0 0 1 1.322 1.789q.467 1.031.467 2.256V58.01h-3.642l-.096-1.45q-.629.757-1.918 1.353-1.29.597-2.868.596a6.2 6.2 0 0 1-1.901-.306 5.2 5.2 0 0 1-1.708-.902 4.64 4.64 0 0 1-1.257-1.563q-.484-.968-.484-2.256m3.739-.161q0 .982.709 1.547.708.564 2.094.564a4 4 0 0 0 1.338-.226 3.6 3.6 0 0 0 1.128-.628q.5-.403.805-.919.323-.531.323-1.128v-1.514l-1.16-.065q-.468-.032-.983-.048-.5-.016-.854-.016-1.886 0-2.643.74-.757.742-.757 1.693m13.89 4.689V42.526h3.721l.097 1.95q.258-.323.677-.71.42-.403.983-.724a6.4 6.4 0 0 1 1.305-.58q.741-.243 1.692-.226.564 0 .999.064.45.065.918.226l-.79 3.674a3.7 3.7 0 0 0-.82-.226 5 5 0 0 0-.968-.08 4.3 4.3 0 0 0-1.514.273 3.55 3.55 0 0 0-1.257.758q-.533.5-.854 1.192a3.8 3.8 0 0 0-.306 1.547v8.347zM77.327 45.7v-3.175h2.642v-5.011h3.883v5.01h4.158V45.7h-4.157v6.768q0 1.32.45 2.03.453.71 1.435.709.917 0 1.466-.258a8 8 0 0 0 1.047-.628l1.644 2.4q-1.16.952-2.288 1.37-1.112.42-2.498.42-1.417 0-2.417-.42-.983-.402-1.595-1.16-.612-.773-.87-1.837-.258-1.08-.258-2.368V45.7zm19.658 8.78 2.916-2.674q.403.468.935.983.547.5 1.225.95.677.435 1.514.742.838.29 1.902.29 1.949 0 2.884-.886t.934-2.143q0-.693-.257-1.241-.258-.548-.887-.95-.628-.42-1.643-.742-.999-.339-2.482-.628-1.514-.29-2.626-.919-1.112-.645-1.837-1.498a6 6 0 0 1-1.096-1.886 6.6 6.6 0 0 1-.354-2.143q0-1.257.45-2.384a5.56 5.56 0 0 1 1.419-2.015q.966-.87 2.401-1.402t3.384-.531q1.756 0 2.997.403 1.257.387 2.094.918.855.532 1.306 1.047.467.5.676.742l-2.739 2.562a13 13 0 0 1-.532-.468 5 5 0 0 0-.918-.676 6 6 0 0 0-1.305-.597q-.758-.273-1.708-.273-.855 0-1.483.241-.629.226-1.047.596a2.4 2.4 0 0 0-.612.806 2.1 2.1 0 0 0-.194.838q0 .596.21 1.063.225.452.725.854.516.387 1.402.71.901.305 2.256.58 1.289.257 2.465.79a7.6 7.6 0 0 1 2.095 1.369 6 6 0 0 1 1.45 2.046q.548 1.209.548 2.884 0 1.45-.597 2.675a6.5 6.5 0 0 1-1.643 2.143q-1.047.919-2.514 1.434-1.45.516-3.158.516-1.644 0-2.981-.403a11.2 11.2 0 0 1-2.417-.999 10.4 10.4 0 0 1-1.853-1.337q-.773-.726-1.305-1.386m20.464 10.136V42.526h3.754l.097 1.756a7 7 0 0 1 .741-.693 5 5 0 0 1 1.063-.66 7.5 7.5 0 0 1 1.386-.484 6.7 6.7 0 0 1 1.74-.21q1.79 0 3.078.694a6.4 6.4 0 0 1 2.159 1.837 8 8 0 0 1 1.289 2.594q.435 1.45.435 2.997 0 1.82-.531 3.11a9 9 0 0 1-1.322 2.24q-1.321 1.578-2.884 2.207a8.6 8.6 0 0 1-3.223.628q-.757 0-1.305-.064a6.4 6.4 0 0 1-.999-.193 8 8 0 0 1-.822-.258 47 47 0 0 0-.805-.306v6.896zm3.851-10.409q1.16.95 3.496.967 1.064 0 1.886-.403a4.5 4.5 0 0 0 1.401-1.096q.58-.676.871-1.53.306-.87.306-1.79 0-.982-.226-1.836a4.1 4.1 0 0 0-.693-1.515 3.24 3.24 0 0 0-1.224-1.015q-.758-.387-1.886-.387a3.4 3.4 0 0 0-1.611.387q-.725.371-1.241.967a4.7 4.7 0 0 0-.805 1.305q-.274.71-.274 1.37zm14.276-4.125q0-1.709.564-3.174a7.8 7.8 0 0 1 1.611-2.546 7.6 7.6 0 0 1 2.482-1.724q1.45-.63 3.19-.629 2.112 0 3.577.774 1.467.773 2.353 2.03a8.1 8.1 0 0 1 1.289 2.836 13 13 0 0 1 .403 3.239v.547h-11.553q0 .854.386 1.563.387.693.983 1.193.613.483 1.386.757a5 5 0 0 0 1.547.258q1.128 0 1.966-.21a8.6 8.6 0 0 0 1.418-.499 5.4 5.4 0 0 0 1.563-1.112l2.111 2.385-.548.548q-.435.435-1.289.934-.838.5-2.143.887-1.306.402-3.11.402-1.853 0-3.368-.628a7.8 7.8 0 0 1-2.594-1.724 7.6 7.6 0 0 1-1.66-2.659q-.564-1.563-.564-3.448m3.883-1.45h7.59q0-.597-.226-1.177a3.3 3.3 0 0 0-.677-1.079 3.4 3.4 0 0 0-1.144-.79q-.692-.322-1.579-.322-.95 0-1.692.322a3.9 3.9 0 0 0-1.24.79 3.6 3.6 0 0 0-.774 1.08q-.258.596-.258 1.176m13.6 4.85q0-1.32.5-2.353a4.9 4.9 0 0 1 1.385-1.756q.886-.709 2.143-1.064 1.257-.37 2.772-.37a36 36 0 0 1 2.111.064q.596.033 1.224.081v-.37q0-1.161-.934-1.821-.92-.66-2.401-.661-1.644 0-2.643.435-.982.435-1.74.918l-1.789-2.626q.468-.322 1.064-.677a7.5 7.5 0 0 1 1.386-.628q.79-.291 1.82-.468 1.048-.177 2.434-.177 1.482 0 2.691.42 1.208.403 2.062 1.143a5.1 5.1 0 0 1 1.321 1.789q.468 1.031.468 2.256V58.01h-3.642l-.097-1.45q-.628.757-1.917 1.353-1.29.597-2.868.596a6.2 6.2 0 0 1-1.902-.306 5.2 5.2 0 0 1-1.708-.902 4.7 4.7 0 0 1-1.257-1.563q-.483-.968-.483-2.256m3.738-.161q0 .982.709 1.547.71.564 2.095.564.693 0 1.337-.226.645-.226 1.128-.628.5-.403.806-.919a2.14 2.14 0 0 0 .322-1.128v-1.514l-1.16-.065a26 26 0 0 0-.983-.048q-.499-.016-.854-.016-1.885 0-2.642.74-.758.742-.758 1.693m13.89 4.689V36h3.883v12.004l5.592-5.478h4.576l-5.801 5.72 6.461 9.765h-4.656l-4.48-7.122-1.692 1.643v5.479zm16.162-7.928q0-1.709.564-3.174a7.8 7.8 0 0 1 1.611-2.546 7.6 7.6 0 0 1 2.481-1.724q1.45-.63 3.191-.629 2.11 0 3.577.774 1.466.773 2.352 2.03a8.1 8.1 0 0 1 1.29 2.836q.402 1.579.402 3.239v.547h-11.553q0 .854.387 1.563.387.693.983 1.193a4.8 4.8 0 0 0 1.386.757 5 5 0 0 0 1.546.258q1.129 0 1.966-.21a8.6 8.6 0 0 0 1.418-.499 5.4 5.4 0 0 0 1.563-1.112l2.111 2.385-.548.548q-.435.435-1.289.934-.838.5-2.143.887-1.305.402-3.11.402-1.853 0-3.368-.628a7.8 7.8 0 0 1-2.594-1.724 7.6 7.6 0 0 1-1.659-2.659q-.564-1.563-.564-3.448m3.883-1.45h7.589q0-.597-.225-1.177a3.3 3.3 0 0 0-.677-1.079 3.4 3.4 0 0 0-1.144-.79q-.693-.322-1.579-.322-.951 0-1.692.322a3.9 3.9 0 0 0-1.241.79 3.6 3.6 0 0 0-.773 1.08q-.258.596-.258 1.176m14.599 9.378V42.526h3.722l.096 1.95q.258-.323.677-.71.419-.403.983-.724a6.4 6.4 0 0 1 1.305-.58q.741-.243 1.692-.226.564 0 .999.064.451.065.919.226l-.79 3.674a3.7 3.7 0 0 0-.822-.226 5 5 0 0 0-.967-.08q-.79 0-1.514.273a3.5 3.5 0 0 0-1.257.758q-.531.5-.854 1.192a3.8 3.8 0 0 0-.306 1.547v8.347zM1.032 86.55q0-1.822.515-3.175.532-1.37 1.321-2.336.66-.79 1.45-1.322a10 10 0 0 1 1.612-.87 7.3 7.3 0 0 1 1.563-.5 7 7 0 0 1 1.321-.144q.758 0 1.257.048.5.048.886.129.403.081.725.225l.758.29V72h3.867v22.01h-3.77l-.098-1.514a8 8 0 0 1-.725.693q-.418.355-.999.66a7 7 0 0 1-1.289.484q-.708.21-1.595.21a6.2 6.2 0 0 1-2.481-.532 6.7 6.7 0 0 1-2.192-1.547q-.951-1.031-1.547-2.514-.58-1.482-.58-3.4m3.915 0q0 1.981.983 3.302.999 1.322 2.884 1.322.983 0 1.676-.37a3.25 3.25 0 0 0 1.128-.984q.435-.596.628-1.305.194-.71.194-1.37v-4.753a3.2 3.2 0 0 0-1.306-.644q-.74-.178-1.885-.178-1.16 0-1.917.451-.758.435-1.322 1.16-.5.662-.79 1.547a6 6 0 0 0-.273 1.821m15.21-10.458V72h4.158v4.093zm.13 17.918V78.526h3.899V94.01zm7.17-7.75q0-1.677.612-3.175a8.1 8.1 0 0 1 1.692-2.626 8.1 8.1 0 0 1 2.627-1.79q1.53-.66 3.384-.66 1.884 0 3.432.677a8.1 8.1 0 0 1 2.642 1.82l-2.481 2.514a4.7 4.7 0 0 0-1.547-1.176q-.886-.435-2.046-.435-1.128 0-1.95.42a4.1 4.1 0 0 0-1.37 1.063q-.547.66-.822 1.546a6.5 6.5 0 0 0-.257 1.821q0 .886.257 1.757.274.854.822 1.547.548.692 1.37 1.127.821.42 1.95.42 1.16 0 2.11-.452.95-.45 1.612-1.208l2.32 2.513a8.4 8.4 0 0 1-2.578 1.853q-1.482.693-3.464.693-1.983 0-3.545-.596-1.548-.596-2.61-1.676a7.5 7.5 0 0 1-1.612-2.61q-.548-1.53-.548-3.368m16.967 7.75V72h3.82v8.121q.595-.66 1.74-1.289 1.143-.628 2.916-.628 1.417 0 2.53.467 1.128.45 1.869 1.305.757.838 1.144 2.03.402 1.177.403 2.595v9.41h-3.9v-9.378q0-1.483-.805-2.288-.807-.806-2.095-.806-.789 0-1.483.322-.692.307-1.192.87a4.1 4.1 0 0 0-.79 1.306 4.6 4.6 0 0 0-.273 1.595v8.379zm24.138 0V78.526h3.722l.097 1.756q.29-.323.709-.693.42-.37.999-.676.58-.306 1.305-.5a6 6 0 0 1 1.644-.21q2.9 0 4.415 1.74 1.53 1.725 1.53 4.658v9.41h-3.899v-9.378q0-1.483-.806-2.288-.805-.806-2.094-.806-.79 0-1.483.322-.694.307-1.192.87a4.1 4.1 0 0 0-.79 1.306 4.6 4.6 0 0 0-.274 1.595v8.379zM86.77 76.093V72h4.157v4.093zm.129 17.918V78.526h3.9V94.01zm7.17-7.75q0-1.677.613-3.175a8.1 8.1 0 0 1 1.692-2.626A8.1 8.1 0 0 1 99 78.67q1.53-.66 3.384-.66 1.885 0 3.432.677a8.1 8.1 0 0 1 2.642 1.82l-2.481 2.514a4.7 4.7 0 0 0-1.547-1.176q-.886-.435-2.046-.435-1.128 0-1.95.42a4.1 4.1 0 0 0-1.37 1.063q-.548.66-.821 1.546a6.5 6.5 0 0 0-.258 1.821q0 .886.258 1.757a4.9 4.9 0 0 0 .822 1.547q.547.692 1.369 1.127.822.42 1.95.42 1.16 0 2.111-.452a4.9 4.9 0 0 0 1.611-1.208l2.32 2.513a8.4 8.4 0 0 1-2.578 1.853q-1.482.693-3.464.693-1.983 0-3.545-.596-1.547-.596-2.61-1.676a7.5 7.5 0 0 1-1.612-2.61q-.548-1.53-.548-3.368m16.968 7.75V72h3.818v8.121q.597-.66 1.741-1.289t2.916-.628q1.419 0 2.53.467 1.128.45 1.869 1.305.757.838 1.144 2.03.403 1.177.403 2.595v9.41h-3.899v-9.378q0-1.483-.806-2.288-.805-.806-2.095-.806-.789 0-1.482.322-.693.307-1.193.87-.5.548-.789 1.306a4.6 4.6 0 0 0-.274 1.595v8.379zm16.854-12.31v-3.175h2.643v-5.011h3.883v5.01h4.157V81.7h-4.157v6.768q0 1.32.451 2.03.452.71 1.434.709.919 0 1.467-.258a8 8 0 0 0 1.047-.628l1.643 2.4q-1.16.952-2.288 1.37-1.111.42-2.497.42-1.418 0-2.417-.42-.983-.402-1.595-1.16a4.7 4.7 0 0 1-.87-1.837q-.258-1.08-.258-2.368V81.7zM0 114.525h4.496l4.157 11.102 4.157-11.102h4.254l-6.526 15.485H6.574zm18.434 7.557q0-1.708.564-3.174a7.8 7.8 0 0 1 1.61-2.546 7.6 7.6 0 0 1 2.482-1.724q1.45-.629 3.19-.629 2.112 0 3.578.774 1.466.773 2.352 2.03a8.1 8.1 0 0 1 1.29 2.836q.402 1.579.402 3.239v.548H22.35q0 .854.387 1.563.387.692.983 1.192.612.483 1.386.757a5 5 0 0 0 1.546.258q1.128 0 1.966-.209a8.6 8.6 0 0 0 1.418-.5 5.4 5.4 0 0 0 1.563-1.112l2.111 2.385-.548.548q-.435.435-1.289.934-.837.5-2.143.887-1.305.402-3.11.402-1.853 0-3.367-.628a7.8 7.8 0 0 1-2.595-1.724 7.6 7.6 0 0 1-1.66-2.659q-.563-1.563-.563-3.448m3.883-1.45h7.59q0-.597-.226-1.176a3.3 3.3 0 0 0-.677-1.08 3.5 3.5 0 0 0-1.144-.79q-.692-.321-1.58-.322-.95 0-1.691.322a3.9 3.9 0 0 0-1.24.79q-.501.483-.774 1.08a2.9 2.9 0 0 0-.258 1.176m14.599 9.378v-15.485h3.722l.096 1.95q.258-.323.677-.709a5 5 0 0 1 .983-.725 6.4 6.4 0 0 1 1.305-.581q.741-.242 1.692-.225.565 0 1 .064.45.064.918.226l-.79 3.674a3.7 3.7 0 0 0-.822-.226 5 5 0 0 0-.967-.08q-.789 0-1.514.273a3.55 3.55 0 0 0-1.257.758q-.533.5-.854 1.192a3.8 3.8 0 0 0-.306 1.547v8.347zm11.843-1.886 2.336-2.529q.725.725 1.821 1.208 1.112.468 2.53.467 1.258 0 2.014-.322.757-.338.757-1.095 0-.323-.129-.597-.128-.29-.564-.548-.418-.273-1.176-.531-.757-.275-2.046-.564a13 13 0 0 1-1.66-.532 6.7 6.7 0 0 1-1.595-.902 5 5 0 0 1-1.225-1.386q-.467-.821-.467-1.934 0-1.16.548-2.062a4.8 4.8 0 0 1 1.466-1.515 7.2 7.2 0 0 1 2.047-.934 8 8 0 0 1 2.304-.339q2.046 0 3.48.435 1.434.42 2.594 1.273l-2.014 2.74q-.628-.468-1.66-.838-1.014-.387-2.4-.387t-1.934.419q-.548.418-.548.999 0 .725.903 1.144.918.418 2.836.87 1.193.258 2.127.661a6 6 0 0 1 1.61.999q.678.595 1.032 1.402.37.805.37 1.933t-.531 2.03a4.6 4.6 0 0 1-1.434 1.531q-.902.628-2.111.967a9 9 0 0 1-2.562.354q-2.175 0-3.932-.612-1.74-.612-2.787-1.805M63.954 117.7v-3.174h2.642v-5.011h3.883v5.011h4.158v3.174H70.48v6.768q0 1.321.45 2.03.452.71 1.435.709.917 0 1.466-.258a8 8 0 0 0 1.047-.628l1.644 2.401q-1.16.95-2.288 1.369-1.112.42-2.498.419-1.417 0-2.417-.419-.983-.402-1.595-1.16-.612-.773-.87-1.837a10.2 10.2 0 0 1-.258-2.368V117.7zm13.873 4.383q0-1.708.564-3.174a7.8 7.8 0 0 1 1.611-2.546 7.6 7.6 0 0 1 2.482-1.724q1.45-.629 3.19-.629 2.111 0 3.577.774 1.467.773 2.353 2.03a8.1 8.1 0 0 1 1.29 2.836q.402 1.579.402 3.239v.548H81.743q0 .854.386 1.563.387.692.983 1.192.613.483 1.386.757a5 5 0 0 0 1.547.258q1.128 0 1.966-.209a8.6 8.6 0 0 0 1.418-.5 5.4 5.4 0 0 0 1.563-1.112l2.11 2.385-.547.548q-.435.435-1.29.934-.837.5-2.142.887-1.305.402-3.11.402-1.854 0-3.368-.628a7.8 7.8 0 0 1-2.594-1.724 7.6 7.6 0 0 1-1.66-2.659q-.564-1.563-.564-3.448m3.883-1.45h7.59q0-.597-.226-1.176a3.3 3.3 0 0 0-.677-1.08 3.5 3.5 0 0 0-1.144-.79q-.693-.321-1.579-.322-.95 0-1.692.322a3.9 3.9 0 0 0-1.24.79q-.5.483-.774 1.08a2.9 2.9 0 0 0-.258 1.176m14.6 9.378V108h3.818v8.121q.596-.66 1.74-1.289t2.917-.628q1.417 0 2.529.467a4.8 4.8 0 0 1 1.87 1.305q.757.838 1.144 2.03.402 1.177.402 2.595v9.41h-3.899v-9.378q0-1.482-.806-2.288t-2.094-.806a3.5 3.5 0 0 0-1.483.322 3.4 3.4 0 0 0-1.192.87 4.1 4.1 0 0 0-.79 1.306 4.6 4.6 0 0 0-.274 1.595v8.379zm16.854-12.311v-3.174h2.642v-5.011h3.883v5.011h4.158v3.174h-4.158v6.768q0 1.321.452 2.03.45.71 1.434.709.918 0 1.466-.258a8 8 0 0 0 1.047-.628l1.644 2.401q-1.16.95-2.288 1.369-1.112.42-2.498.419-1.418 0-2.417-.419-.983-.402-1.595-1.16-.612-.773-.87-1.837a10.2 10.2 0 0 1-.258-2.368V117.7zm14.92 12.311v-4.56h4.722v4.56zm9.217 0v-4.56h4.721v4.56zm9.217 0v-4.56h4.721v4.56z"/></svg>