<svg xmlns="http://www.w3.org/2000/svg" fill="none" viewBox="0 0 185 30"><rect width="184.248" height="30" fill="#fedf20" rx="8"/><rect width="183.248" height="29" x=".5" y=".5" stroke="#fff" stroke-opacity=".25" rx="7.5"/><path fill="#1e1e1e" d="M166.095 19.794q-1.066 0-1.842-.443a3 3 0 0 1-1.186-1.265q-.416-.821-.416-1.934 0-1.095.416-1.92.42-.832 1.172-1.293.753-.466 1.768-.466.656 0 1.238.212.585.207 1.034.646.452.44.711 1.117.258.675.258 1.607v.512h-5.812v-1.126h4.21a1.8 1.8 0 0 0-.208-.854 1.5 1.5 0 0 0-.567-.596 1.6 1.6 0 0 0-.841-.217 1.63 1.63 0 0 0-.9.25q-.387.244-.605.646a1.9 1.9 0 0 0-.217.873v.983q0 .618.227 1.062.225.438.632.674.406.23.951.23.364 0 .66-.101a1.5 1.5 0 0 0 .513-.31q.217-.203.327-.503l1.561.176a2.44 2.44 0 0 1-.563 1.08 2.75 2.75 0 0 1-1.053.71q-.642.25-1.468.25"/><path fill="#1e1e1e" d="M154.984 19.656V10.2h1.671v3.536h.07q.129-.258.364-.549.236-.296.637-.503.402-.213 1.025-.213.822 0 1.482.42.665.416 1.053 1.233.392.813.392 1.994 0 1.168-.383 1.986-.383.817-1.043 1.246t-1.496.43q-.609 0-1.011-.204a2.1 2.1 0 0 1-.646-.49 3 3 0 0 1-.374-.549h-.097v1.118zm1.639-3.546q0 .688.194 1.205.199.517.568.808.374.285.905.286.553 0 .928-.295.374-.3.563-.817.194-.522.194-1.187 0-.66-.19-1.172a1.76 1.76 0 0 0-.563-.804q-.374-.29-.932-.29-.536 0-.91.281-.373.282-.568.79-.189.507-.189 1.195"/><path fill="#1e1e1e" d="M151.664 16.674v-4.11h1.671v7.092h-1.621v-1.26h-.073q-.24.595-.79.973-.545.38-1.343.38a2.4 2.4 0 0 1-1.233-.31 2.15 2.15 0 0 1-.831-.91q-.3-.6-.3-1.45v-4.514h1.671v4.256q0 .675.37 1.071.369.397.969.397.37 0 .716-.18.345-.18.568-.535.226-.36.226-.9"/><path fill="#1e1e1e" d="M139.328 11.637V10.2h7.544v1.436h-2.923v8.019h-1.698v-8.02z"/><path fill="#1e1e1e" d="M137.083 16.674v-4.11h1.672v7.092h-1.621v-1.26h-.074q-.24.595-.789.973-.545.38-1.343.38a2.4 2.4 0 0 1-1.233-.31 2.15 2.15 0 0 1-.831-.91q-.3-.6-.3-1.45v-4.514h1.671v4.256q0 .675.369 1.071.37.397.97.397.37 0 .715-.18a1.45 1.45 0 0 0 .568-.535q.226-.36.226-.9"/><path fill="#1e1e1e" d="M127.891 19.794q-1.04 0-1.801-.457a3.1 3.1 0 0 1-1.181-1.279q-.416-.82-.416-1.92 0-1.099.416-1.925a3.1 3.1 0 0 1 1.181-1.283q.762-.457 1.801-.457t1.8.457q.762.456 1.177 1.283.421.826.421 1.925t-.421 1.92a3.07 3.07 0 0 1-1.177 1.28q-.762.456-1.8.456m.009-1.338q.563 0 .942-.31.378-.315.563-.84a3.5 3.5 0 0 0 .189-1.173q0-.65-.189-1.177a1.86 1.86 0 0 0-.563-.845q-.379-.314-.942-.314-.577 0-.96.314-.38.314-.568.845-.185.526-.185 1.177 0 .646.185 1.173.189.525.568.84.383.31.96.31"/><path fill="#1e1e1e" d="M116.535 10.201h1.935l2.312 4.183h.093l2.313-4.183h1.934l-3.439 5.928v3.527h-1.708v-3.527z"/><path fill="#1e1e1e" d="M108.745 19.799q-.675 0-1.214-.24a2 2 0 0 1-.85-.72q-.309-.475-.309-1.173 0-.6.222-.992a1.7 1.7 0 0 1 .604-.628q.383-.236.864-.356a7 7 0 0 1 1.001-.18q.624-.064 1.011-.115.389-.056.564-.166.18-.116.18-.356v-.028q0-.521-.31-.808-.309-.285-.891-.286-.614 0-.974.268-.356.268-.48.633l-1.56-.222q.184-.646.609-1.08.425-.439 1.039-.656a4 4 0 0 1 1.357-.222q.513 0 1.02.12.508.12.928.397.42.273.674.744.26.47.259 1.177v4.746h-1.607v-.974h-.055a2 2 0 0 1-.429.554q-.273.254-.688.41a2.8 2.8 0 0 1-.965.153m.434-1.228q.503 0 .872-.199.37-.203.568-.535.203-.333.203-.725v-.835a.8.8 0 0 1-.268.12q-.184.054-.415.097a13 13 0 0 1-.457.073l-.392.056a3 3 0 0 0-.67.166 1.1 1.1 0 0 0-.466.323.8.8 0 0 0-.171.526q0 .462.337.697.337.236.859.236"/><path fill="#1e1e1e" d="M100.597 15.5v4.156h-1.672v-7.091h1.598v1.205h.083q.244-.596.78-.947.54-.35 1.334-.35.735 0 1.279.313.549.315.849.91.306.596.3 1.445v4.515h-1.671v-4.257q0-.71-.369-1.112-.364-.402-1.011-.402-.438 0-.78.194a1.34 1.34 0 0 0-.531.55q-.189.36-.189.872"/><path fill="#1e1e1e" d="M88.595 19.656v-1.062l3.656-4.584v-.06h-3.536v-1.385h5.581v1.14l-3.48 4.506v.06h3.6v1.385z"/><path fill="#1e1e1e" d="M83.406 19.799q-.674 0-1.215-.24a2 2 0 0 1-.849-.72q-.31-.475-.31-1.173 0-.6.222-.992.222-.393.605-.628.384-.236.863-.356a7 7 0 0 1 1.002-.18q.624-.064 1.011-.115.389-.056.563-.166.18-.116.18-.356v-.028q0-.521-.309-.808-.31-.285-.89-.286-.615 0-.975.268-.356.268-.48.633l-1.56-.222q.184-.646.609-1.08.425-.439 1.039-.656.613-.222 1.357-.222.513 0 1.02.12.508.12.928.397.42.273.674.744.258.47.259 1.177v4.746h-1.607v-.974h-.055a2 2 0 0 1-.43.554q-.272.254-.687.41a2.8 2.8 0 0 1-.965.153m.434-1.228q.503 0 .872-.199.37-.203.568-.535.203-.333.203-.725v-.835a.8.8 0 0 1-.268.12 4 4 0 0 1-.415.097q-.23.041-.457.073l-.393.056q-.374.05-.669.166a1.1 1.1 0 0 0-.466.323.8.8 0 0 0-.171.526q0 .462.337.697.337.236.859.236"/><path fill="#1e1e1e" d="M76.48 19.656v-7.091h1.621v1.182h.074q.194-.614.665-.947a1.83 1.83 0 0 1 1.085-.337q.138 0 .309.014.176.01.29.032v1.538a1.8 1.8 0 0 0-.336-.065 3 3 0 0 0-.439-.032 1.7 1.7 0 0 0-.821.198q-.36.195-.568.54t-.208.799v4.169z"/><path fill="#1e1e1e" d="M72.057 19.794q-1.066 0-1.842-.443a3 3 0 0 1-1.186-1.265q-.416-.821-.416-1.934 0-1.095.416-1.92a3.14 3.14 0 0 1 1.172-1.293q.753-.466 1.768-.466.656 0 1.238.212.585.207 1.034.646.452.44.71 1.117.26.675.259 1.607v.512h-5.812v-1.126h4.21a1.8 1.8 0 0 0-.208-.854 1.5 1.5 0 0 0-.567-.596 1.6 1.6 0 0 0-.84-.217q-.513 0-.9.25-.39.244-.606.646a1.86 1.86 0 0 0-.217.873v.983q0 .618.227 1.062.225.438.632.674.406.23.951.23.364 0 .66-.101.295-.106.513-.31.217-.203.327-.503l1.56.176a2.43 2.43 0 0 1-.562 1.08 2.75 2.75 0 0 1-1.053.71q-.642.25-1.468.25"/><path fill="#1e1e1e" d="M67.74 12.565v1.292h-4.077v-1.292zm-3.07-1.699h1.67v6.657q0 .337.102.517.105.175.277.24.17.065.379.065.157 0 .286-.023.135-.024.203-.042l.282 1.306q-.134.047-.384.102a3 3 0 0 1-.6.065 2.7 2.7 0 0 1-1.13-.19 1.76 1.76 0 0 1-.8-.655q-.29-.444-.286-1.108z"/><path fill="#1e1e1e" d="M53.868 19.656v-1.062l3.656-4.584v-.06h-3.536v-1.385h5.581v1.14l-3.48 4.506v.06h3.6v1.385z"/><path fill="#1e1e1e" d="M49.693 19.794q-1.061 0-1.823-.466a3.1 3.1 0 0 1-1.168-1.288q-.407-.826-.407-1.902 0-1.08.416-1.907a3.1 3.1 0 0 1 1.172-1.292q.762-.466 1.801-.466.864 0 1.528.318.67.314 1.066.891.397.573.453 1.339h-1.598a1.53 1.53 0 0 0-.461-.854q-.36-.347-.965-.347-.513 0-.9.277-.388.273-.605.785-.213.513-.212 1.228 0 .725.212 1.247.213.516.596.798.387.277.909.277.369 0 .66-.138.296-.144.494-.411.199-.267.273-.65h1.597q-.06.75-.443 1.333a2.6 2.6 0 0 1-1.044.905q-.66.323-1.55.323"/><path fill="#1e1e1e" d="M41.319 19.799q-.675 0-1.214-.24a2 2 0 0 1-.85-.72q-.31-.475-.31-1.173 0-.6.222-.992.222-.393.605-.628.384-.236.864-.356a7 7 0 0 1 1.001-.18q.624-.064 1.011-.115.389-.056.563-.166.18-.116.18-.356v-.028q0-.521-.309-.808-.31-.285-.89-.286-.615 0-.975.268-.355.268-.48.633l-1.56-.222q.184-.646.61-1.08.424-.439 1.038-.656.615-.222 1.357-.222.513 0 1.02.12.508.12.928.397.42.273.674.744.26.47.259 1.177v4.746h-1.607v-.974h-.055a2 2 0 0 1-.43.554q-.271.254-.687.41a2.8 2.8 0 0 1-.965.153m.434-1.228q.503 0 .872-.199.37-.203.568-.535.204-.333.203-.725v-.835a.8.8 0 0 1-.268.12 4 4 0 0 1-.415.097q-.23.041-.457.073l-.392.056q-.375.05-.67.166a1.1 1.1 0 0 0-.466.323.8.8 0 0 0-.17.526q0 .462.336.697.337.236.859.236"/><path fill="#1e1e1e" d="M31.307 19.656V10.2h1.67v3.536h.07q.13-.258.365-.549.236-.296.637-.503.402-.213 1.025-.213.821 0 1.482.42.665.416 1.052 1.233.393.813.393 1.994 0 1.168-.384 1.986-.383.817-1.043 1.246t-1.496.43q-.61 0-1.01-.204a2.1 2.1 0 0 1-.647-.49 3.2 3.2 0 0 1-.374-.549h-.097v1.118zm1.639-3.546q0 .688.193 1.205.2.517.568.808.374.285.905.286.555 0 .928-.295.374-.3.563-.817.195-.522.194-1.187 0-.66-.19-1.172a1.76 1.76 0 0 0-.562-.804q-.374-.29-.933-.29-.535 0-.91.281-.373.282-.567.79-.19.507-.19 1.195"/><path fill="#1e1e1e" d="M26.56 19.794q-1.04 0-1.8-.457a3.1 3.1 0 0 1-1.183-1.279q-.415-.82-.415-1.92 0-1.099.415-1.925.42-.827 1.182-1.283.762-.457 1.8-.457 1.04 0 1.801.457.762.456 1.177 1.283.42.826.42 1.925t-.42 1.92q-.416.822-1.177 1.28-.762.456-1.8.456m.009-1.338q.563 0 .942-.31.378-.315.563-.84.19-.526.19-1.173a3.5 3.5 0 0 0-.19-1.177 1.86 1.86 0 0 0-.563-.845q-.38-.314-.942-.314-.578 0-.96.314-.38.314-.568.845-.185.526-.185 1.177 0 .646.185 1.173.189.525.568.84.383.31.96.31"/><path fill="#1e1e1e" d="M15.028 19.656v-1.067l4.847-6.952H15V10.2h6.999v1.067l-4.843 6.952h4.87v1.436z"/></svg>