<svg xmlns="http://www.w3.org/2000/svg" fill="none" viewBox="0 0 220 59"><path fill="#fff" d="M31.475 16.337c0 5.308-3.74 9.076-8.827 9.076-5.088 0-8.828-3.328-8.828-8.965 0-5.308 3.767-9.048 8.855-9.048 5.06 0 8.8 3.3 8.8 8.937m-3.355.11c0-3.767-2.172-6.242-5.527-6.242-3.273 0-5.39 2.475-5.39 6.132 0 3.768 2.145 6.27 5.5 6.27 3.272 0 5.417-2.502 5.417-6.16m6.891 9.076c-1.1-.386-1.925-1.183-1.925-2.2 0-1.155.935-2.2 2.338-2.668-1.403-.715-2.31-2.145-2.31-3.905 0-2.613 2.062-4.84 5.582-4.84 1.43 0 2.695.412 3.575.797l3.41-.302.138 2.833-2.42-.413c.33.357.577 1.32.577 1.98 0 2.585-2.172 4.62-5.307 4.62-.605 0-1.045-.055-1.733-.22-.44.165-.99.578-.99 1.1 0 .688.578.99 2.613.99h1.32c3.63 0 5.692 1.017 5.692 3.492 0 2.998-3.382 5.06-7.397 5.06-3.355 0-6.023-1.237-6.023-3.52 0-1.32.963-2.502 2.86-2.805m1.238-8.745c0 1.512.907 2.53 2.475 2.53 1.457 0 2.282-1.046 2.282-2.64 0-1.513-.797-2.558-2.42-2.558-1.43 0-2.337 1.072-2.337 2.668m.44 9.185c-.908.33-1.595.934-1.595 1.704 0 1.183 1.457 2.008 3.602 2.008 2.228 0 3.933-.825 3.933-2.145 0-1.183-1.155-1.457-3.52-1.457-.798 0-1.898-.056-2.42-.11M50.299 25h-3.244V6.63l3.245-.44zm9.685-1.457h-.11c-.908 1.1-2.008 1.87-3.575 1.87-2.283 0-3.933-1.568-3.933-3.576 0-2.337 1.705-4.317 7.508-4.51v-.302c0-1.677-.715-2.392-2.53-2.392-1.293 0-2.86.577-4.208 1.347l-.66-2.585c1.238-.77 3.218-1.485 5.335-1.485 3.905 0 5.418 1.733 5.335 5.253v4.482c0 .963.165 1.128 1.128 1.155l-.248 2.475c-1.76.11-3.135.88-3.135 2.173 0 .797.44 1.292 1.21 1.292.495 0 1.045-.165 1.403-.412l.522 1.925c-.632.44-1.485.77-2.667.77-1.87 0-3.135-1.073-3.135-2.75 0-1.596 1.182-2.833 2.667-3.52a2.34 2.34 0 0 1-.907-1.21m-.11-1.595v-2.916c-3.135.386-4.29 1.018-4.29 2.366 0 .962.742 1.65 1.87 1.65 1.017 0 1.842-.495 2.42-1.1m14.421-9.625V6.63l3.245-.44V25h-3.245v-1.238c-.852.825-2.007 1.65-3.575 1.65-3.355 0-5.527-2.722-5.527-6.654 0-4.043 2.805-6.848 6.407-6.848.908 0 1.898.165 2.695.412m0 2.915c-.632-.468-1.43-.743-2.392-.743-2.173 0-3.41 1.787-3.41 4.125 0 2.475 1.237 4.043 3.19 4.043 1.072 0 1.897-.386 2.612-1.046zm12.921 8.305h-.11c-.907 1.1-2.007 1.87-3.575 1.87-2.282 0-3.932-1.568-3.932-3.576 0-2.337 1.705-4.317 7.507-4.51v-.302c0-1.705-.715-2.42-2.53-2.42-1.292 0-2.86.577-4.207 1.348l-.66-2.558c1.237-.77 3.217-1.485 5.307-1.485 3.905 0 5.418 1.733 5.335 5.225v4.537c0 .963.165 1.1 1.128 1.156l-.248 2.447c-2.42.275-3.547-.467-4.015-1.732m-.11-1.595v-2.916c-3.162.386-4.317 1.018-4.317 2.366 0 .962.742 1.65 1.897 1.65 1.018 0 1.843-.468 2.42-1.1M96.771 8.06c0 1.182-.715 1.952-2.008 1.952-1.264 0-1.98-.77-1.98-1.952 0-1.155.716-1.953 1.98-1.953 1.293 0 2.008.798 2.008 1.953m-3.877 23.678-1.98-2.2c1.567-.743 2.227-1.76 2.227-4.483v-12.65l3.245-.467V25.11c0 3.685-.935 5.555-3.492 6.628M114.556 25h-10.78v-2.227l6.627-7.7h-6.38v-2.75h10.533v2.172l-6.655 7.728h6.655zm8.541-1.457h-.11c-.907 1.1-2.007 1.87-3.575 1.87-2.282 0-3.932-1.568-3.932-3.576 0-2.337 1.705-4.317 7.507-4.51v-.302c0-1.705-.715-2.42-2.53-2.42-1.292 0-2.86.577-4.207 1.348l-.66-2.558c1.237-.77 3.217-1.485 5.307-1.485 3.905 0 5.418 1.733 5.335 5.225v4.537c0 .963.165 1.1 1.128 1.156l-.248 2.447c-2.42.275-3.547-.467-4.015-1.732m-.11-1.595v-2.916c-3.162.386-4.317 1.018-4.317 2.366 0 .962.742 1.65 1.897 1.65 1.018 0 1.843-.468 2.42-1.1m20.102-9.625V6.63l3.245-.44V25h-3.245v-1.238c-.852.825-2.007 1.65-3.575 1.65-3.355 0-5.527-2.722-5.527-6.654 0-4.043 2.805-6.848 6.407-6.848.908 0 1.898.165 2.695.412m0 2.915c-.632-.468-1.43-.743-2.392-.743-2.173 0-3.41 1.787-3.41 4.125 0 2.475 1.237 4.043 3.19 4.043 1.072 0 1.897-.386 2.612-1.046zm12.921 8.305h-.11c-.907 1.1-2.007 1.87-3.575 1.87-2.282 0-3.932-1.568-3.932-3.576 0-2.337 1.705-4.317 7.507-4.51v-.302c0-1.705-.715-2.42-2.53-2.42-1.292 0-2.86.577-4.207 1.348l-.66-2.558c1.237-.77 3.217-1.485 5.307-1.485 3.905 0 5.418 1.733 5.335 5.225v4.537c0 .963.165 1.1 1.128 1.156l-.248 2.447c-2.42.275-3.547-.467-4.015-1.732m-.11-1.595v-2.916c-3.162.386-4.317 1.018-4.317 2.366 0 .962.742 1.65 1.897 1.65 1.018 0 1.843-.468 2.42-1.1m9.28-4.785V25h-3.245V12.405l3.245-.467V14c.798-1.348 1.815-2.09 3.3-2.09.77 0 1.568.165 2.255.578l-.715 2.915q-.907-.495-1.815-.495c-1.127 0-2.172.715-3.025 2.255M191.295 25h-3.245v-7.7c0-1.87-.743-2.53-2.09-2.53-1.128 0-2.008.578-2.64 1.128V25h-3.245v-7.7c0-1.87-.715-2.53-2.063-2.53a3.75 3.75 0 0 0-2.64 1.045V25h-3.245V12.378l3.245-.44v1.787c1.183-1.182 2.475-1.815 4.043-1.815 1.54 0 2.832.742 3.465 2.172 1.265-1.375 2.777-2.172 4.51-2.172 2.392 0 3.905 1.65 3.905 4.4zm15.051-6.352c0 4.152-2.86 6.765-6.572 6.765s-6.408-2.53-6.408-6.738c0-4.18 2.833-6.792 6.573-6.792s6.407 2.585 6.407 6.765m-3.217.027c0-2.448-1.21-4.18-3.3-4.18-2.118 0-3.273 1.705-3.273 4.153 0 2.42 1.21 4.125 3.328 4.125 2.09 0 3.245-1.65 3.245-4.098M23.921 54V39.975h3.382v3.3h.083V54zm9.845 0v-8.855q0-1.293-.66-1.953t-1.925-.66q-1.1 0-1.98.496a3.6 3.6 0 0 0-1.348 1.375q-.467.879-.467 2.035l-.358-3.355a5.8 5.8 0 0 1 2.09-2.448q1.375-.935 3.3-.935 2.283 0 3.548 1.292 1.292 1.293 1.292 3.438V54zm14.92 0q-.138-.55-.22-1.21-.055-.66-.055-1.595h-.11V44.54q0-1.1-.633-1.65-.604-.578-1.87-.578-1.238 0-1.98.468-.715.44-.88 1.292h-3.327q.22-1.952 1.87-3.162t4.427-1.21q2.888 0 4.373 1.32 1.485 1.293 1.485 3.822v6.353q0 .66.082 1.347.11.689.303 1.458zm-4.868.275q-2.117 0-3.382-1.045-1.238-1.072-1.238-2.86 0-1.924 1.403-3.052t3.96-1.513l4.372-.66v2.2l-3.795.578q-1.237.192-1.87.687-.605.495-.605 1.375 0 .798.578 1.237.577.413 1.595.413 1.485 0 2.475-.742t.99-1.815l.385 2.117q-.55 1.512-1.815 2.31-1.238.77-3.053.77M59.355 54V34.2h3.575V54zm1.705-7.947V43.22h11.138v2.833zm0-9.02V34.2h11.798v2.832zM74.975 54V39.975h3.465V54zm-.165-16.335v-3.822h3.768v3.822zM81.57 54V34.2h3.465V54zm6.593 0V39.975h3.383v3.3h.082V54zm9.433 0v-9.047q0-1.238-.633-1.815-.604-.605-1.732-.605-.99 0-1.815.467a3.5 3.5 0 0 0-1.32 1.32q-.468.852-.468 1.98l-.357-3.217q.715-1.54 2.062-2.448 1.349-.935 3.135-.935 2.145 0 3.383 1.237 1.237 1.21 1.237 3.136V54zm9.432 0v-9.047q0-1.238-.605-1.815-.604-.605-1.732-.605-1.017 0-1.843.467-.825.468-1.292 1.32t-.468 1.98l-.605-3.217a5.55 5.55 0 0 1 2.09-2.448q1.403-.935 3.245-.935 2.2 0 3.438 1.265 1.265 1.238 1.265 3.3V54zm11.104 0V34.2h8.882q2.173 0 3.713.742 1.567.743 2.392 2.09.853 1.348.853 3.19 0 1.816-.853 3.19-.852 1.376-2.392 2.145-1.54.743-3.713.743h-6.105v-2.805h5.94q1.705 0 2.613-.88.935-.88.935-2.393 0-1.485-.935-2.337-.907-.852-2.613-.852h-5.142V54zm17.93 0V34.2h3.465V54zm15.338 0a10 10 0 0 1-.22-1.21q-.055-.66-.055-1.595h-.11V44.54q0-1.1-.632-1.65-.606-.578-1.87-.578-1.238 0-1.98.468-.715.44-.88 1.292h-3.328q.22-1.952 1.87-3.162t4.428-1.21q2.887 0 4.372 1.32 1.485 1.293 1.485 3.822v6.353q0 .66.083 1.347.11.689.302 1.458zm-4.867.275q-2.118 0-3.383-1.045-1.237-1.072-1.237-2.86 0-1.924 1.402-3.052 1.403-1.128 3.96-1.513l4.373-.66v2.2l-3.795.578q-1.238.192-1.87.687-.605.495-.605 1.375 0 .798.577 1.237.578.413 1.595.413 1.485 0 2.475-.742t.99-1.815l.385 2.117q-.549 1.512-1.815 2.31-1.237.77-3.052.77M157.439 54V39.975h3.382v3.3h.083V54zm9.845 0v-8.855q0-1.293-.66-1.953t-1.925-.66q-1.101 0-1.98.496a3.6 3.6 0 0 0-1.348 1.375q-.467.879-.467 2.035l-.358-3.355a5.8 5.8 0 0 1 2.09-2.448q1.375-.935 3.3-.935 2.282 0 3.548 1.292 1.292 1.293 1.292 3.438V54zm12.741.275q-2.228 0-3.905-.935a6.73 6.73 0 0 1-2.585-2.585q-.908-1.65-.908-3.795t.908-3.767a6.54 6.54 0 0 1 2.585-2.558q1.65-.935 3.85-.935 2.09 0 3.63.88a5.96 5.96 0 0 1 2.392 2.42q.853 1.567.853 3.657 0 .386-.028.716-.027.33-.082.66h-11.963v-2.42h9.295l-.715.66q0-1.98-.907-2.97-.908-.99-2.53-.99-1.761 0-2.805 1.21-1.018 1.209-1.018 3.492 0 2.255 1.018 3.465 1.044 1.182 2.942 1.183 1.1 0 1.925-.413t1.21-1.265h3.273q-.688 1.98-2.338 3.135-1.622 1.155-4.097 1.155m14.865 0q-2.586 0-3.823-1.21-1.21-1.237-1.21-3.685V36.785l3.493-1.292v13.97q0 1.017.55 1.512t1.732.495q.468 0 .825-.055.385-.083.715-.193v2.695q-.33.165-.935.248-.605.11-1.347.11m-7.728-11.577v-2.723h10.01v2.722z"/></svg>