<svg xmlns="http://www.w3.org/2000/svg" fill="none" viewBox="0 0 186 30"><rect width="186" height="30" fill="#e6ff00" rx="8"/><rect width="185" height="29" x=".5" y=".5" stroke="#fff" stroke-opacity=".25" rx="7.5"/><path fill="#1a1a1a" d="M15.757 20v-1.066l4.847-6.953H15.73v-1.435h6.999v1.066l-4.843 6.952h4.87V20zm11.532.139q-1.038 0-1.8-.457a3.1 3.1 0 0 1-1.182-1.28q-.416-.82-.416-1.92 0-1.098.416-1.925.42-.826 1.182-1.283t1.8-.457q1.04 0 1.8.457.761.457 1.178 1.283.42.827.42 1.925 0 1.1-.42 1.92-.416.823-1.177 1.28-.762.456-1.8.457m.01-1.34q.563 0 .941-.309.379-.314.563-.84.19-.525.19-1.172a3.5 3.5 0 0 0-.19-1.178 1.86 1.86 0 0 0-.563-.844q-.378-.314-.942-.314-.576 0-.96.314-.378.313-.568.844-.184.527-.184 1.178 0 .645.184 1.172.19.527.568.84.384.31.96.31M32.035 20v-9.454h1.671v3.536h.07q.129-.26.364-.55.236-.295.637-.503.402-.212 1.025-.212.822 0 1.482.42.664.415 1.053 1.233.392.812.392 1.994 0 1.167-.383 1.985-.383.817-1.043 1.246-.661.43-1.496.43-.609 0-1.011-.203a2.1 2.1 0 0 1-.646-.49 3 3 0 0 1-.374-.55h-.097V20zm1.639-3.546q0 .689.194 1.205.198.517.568.808.373.287.905.287.553 0 .928-.296.373-.3.563-.817a3.4 3.4 0 0 0 .194-1.186q0-.66-.19-1.173a1.76 1.76 0 0 0-.563-.803q-.375-.291-.932-.291-.535 0-.91.281a1.73 1.73 0 0 0-.568.79q-.189.508-.189 1.195m8.373 3.69q-.675 0-1.214-.24a2 2 0 0 1-.85-.721q-.309-.476-.309-1.173 0-.6.222-.992.222-.393.605-.628.383-.236.863-.356a7 7 0 0 1 1.002-.18q.623-.064 1.01-.115.39-.055.564-.166.18-.116.18-.356v-.027q0-.522-.31-.808-.308-.287-.89-.287-.614 0-.974.268-.355.269-.48.633l-1.56-.222q.184-.645.609-1.08a2.65 2.65 0 0 1 1.038-.656q.614-.22 1.358-.221.511 0 1.02.12.508.12.928.397.42.272.674.743.258.47.258 1.177V20h-1.606v-.974h-.056a2 2 0 0 1-.429.554q-.272.255-.688.41a2.8 2.8 0 0 1-.965.153m.434-1.229q.504 0 .873-.198.369-.203.568-.536.203-.333.203-.725v-.835a.8.8 0 0 1-.268.12q-.185.055-.416.097-.23.04-.457.074l-.392.055q-.374.051-.67.166a1.1 1.1 0 0 0-.466.323.8.8 0 0 0-.17.527q0 .461.337.697.336.235.858.235m7.94 1.224q-1.06 0-1.823-.467a3.1 3.1 0 0 1-1.168-1.288q-.405-.826-.406-1.902 0-1.08.415-1.906a3.1 3.1 0 0 1 1.173-1.293q.762-.466 1.8-.466.864 0 1.529.318.669.315 1.066.891.397.572.452 1.34h-1.597a1.53 1.53 0 0 0-.462-.855q-.36-.346-.965-.346-.512 0-.9.277-.388.272-.604.785-.213.511-.213 1.227 0 .726.213 1.247.212.517.595.799.388.277.91.277.369 0 .66-.139.295-.143.494-.41.198-.269.272-.652h1.597q-.06.753-.443 1.334a2.6 2.6 0 0 1-1.043.905q-.66.324-1.551.323M54.598 20v-1.062l3.657-4.584v-.06h-3.537v-1.385H60.3v1.14l-3.481 4.506v.06h3.6V20zm13.872-7.09v1.292h-4.076v-1.293zm-3.07-1.7h1.671v6.657q0 .337.102.517.105.175.277.24.17.065.378.065.157 0 .286-.023.134-.024.204-.042l.281 1.307q-.135.045-.383.101a3 3 0 0 1-.6.065 2.7 2.7 0 0 1-1.131-.19 1.76 1.76 0 0 1-.799-.655q-.292-.443-.286-1.108zm7.388 8.929q-1.067 0-1.843-.444a3 3 0 0 1-1.186-1.265q-.415-.82-.415-1.934 0-1.095.415-1.92.42-.831 1.173-1.293.751-.466 1.768-.466.656 0 1.237.212.585.208 1.034.646.453.439.711 1.118.258.674.258 1.606v.513h-5.812v-1.127h4.21a1.8 1.8 0 0 0-.207-.854 1.5 1.5 0 0 0-.568-.595 1.6 1.6 0 0 0-.84-.217q-.513 0-.9.249-.388.244-.605.646a1.86 1.86 0 0 0-.217.873v.983q0 .618.226 1.062.226.438.633.674.405.23.95.23.366 0 .66-.1.297-.108.513-.31.217-.203.328-.503l1.56.175a2.43 2.43 0 0 1-.563 1.08 2.75 2.75 0 0 1-1.053.711q-.641.25-1.468.25M77.21 20v-7.09h1.62v1.18h.075q.193-.613.664-.945a1.83 1.83 0 0 1 1.085-.338q.14 0 .31.014.175.01.29.033v1.537a1.8 1.8 0 0 0-.337-.065 3 3 0 0 0-.438-.032 1.7 1.7 0 0 0-.822.198q-.36.195-.568.54-.207.348-.207.8V20zm6.925.143q-.675 0-1.214-.24a2 2 0 0 1-.85-.72q-.309-.476-.309-1.173 0-.6.222-.992.222-.393.605-.628.383-.236.863-.356a7 7 0 0 1 1.002-.18q.623-.064 1.01-.115.39-.055.564-.166.18-.116.18-.356v-.027q0-.522-.31-.808-.308-.287-.89-.287-.614 0-.974.268-.356.269-.48.633l-1.56-.222q.183-.645.609-1.08a2.65 2.65 0 0 1 1.038-.656q.615-.22 1.357-.221.513 0 1.02.12.509.12.929.397.42.272.674.743.258.47.258 1.177V20h-1.606v-.974h-.056a2 2 0 0 1-.43.554q-.27.255-.687.41a2.8 2.8 0 0 1-.965.153m.434-1.228q.503 0 .873-.198.369-.203.568-.536.203-.333.203-.725v-.835a.8.8 0 0 1-.268.12q-.185.055-.416.097-.23.04-.457.074l-.392.055q-.375.051-.67.166a1.1 1.1 0 0 0-.466.323.8.8 0 0 0-.17.527q0 .461.336.697.337.235.86.235M89.324 20v-1.062l3.656-4.584v-.06h-3.536v-1.385h5.581v1.14l-3.48 4.506v.06h3.6V20zm12.002-4.155V20h-1.671v-7.09h1.597v1.204h.083q.245-.596.781-.946.54-.351 1.334-.351.734 0 1.278.314.55.313.85.91.305.594.3 1.444V20h-1.671v-4.256q0-.711-.37-1.113-.364-.402-1.011-.402-.438 0-.78.194-.336.19-.531.55-.189.36-.189.872m8.148 4.298a3 3 0 0 1-1.214-.24 2 2 0 0 1-.849-.72q-.31-.476-.31-1.173 0-.6.222-.992.221-.393.605-.628.383-.236.863-.356a7 7 0 0 1 1.002-.18 40 40 0 0 0 1.011-.115q.387-.055.563-.166.18-.116.18-.356v-.027q0-.522-.309-.808t-.891-.287q-.614 0-.974.268-.355.269-.48.633l-1.561-.222q.184-.645.61-1.08.424-.439 1.038-.656.614-.22 1.358-.221.511 0 1.02.12.507.12.928.397a2 2 0 0 1 .674.743q.258.47.258 1.177V20h-1.606v-.974h-.056a2.02 2.02 0 0 1-1.117.965 2.8 2.8 0 0 1-.965.152m.434-1.228q.504 0 .873-.198.369-.203.568-.536.203-.333.203-.725v-.835a.8.8 0 0 1-.268.12q-.185.055-.416.097-.23.04-.457.074l-.392.055q-.373.051-.669.166a1.1 1.1 0 0 0-.467.323.8.8 0 0 0-.17.527q0 .461.337.697.336.235.858.235m7.357-8.37h1.934l2.313 4.183h.092l2.313-4.182h1.934l-3.439 5.927V20h-1.708v-3.527zm11.355 9.594q-1.038 0-1.8-.457a3.1 3.1 0 0 1-1.182-1.28q-.415-.82-.415-1.92 0-1.098.415-1.925.42-.826 1.182-1.283t1.8-.457q1.04 0 1.801.457.762.457 1.177 1.283.42.827.42 1.925 0 1.1-.42 1.92a3.07 3.07 0 0 1-1.177 1.28q-.762.456-1.801.457m.01-1.34q.563 0 .941-.309.379-.314.564-.84a3.5 3.5 0 0 0 .189-1.172q0-.651-.189-1.178a1.87 1.87 0 0 0-.564-.844q-.378-.314-.941-.314-.577 0-.961.314-.378.313-.568.844-.184.527-.184 1.178 0 .645.184 1.172.19.527.568.84.384.31.961.31m9.183-1.781v-4.109h1.671V20h-1.62v-1.26h-.074q-.24.595-.79.974-.544.378-1.343.378-.697 0-1.233-.309a2.15 2.15 0 0 1-.83-.91q-.301-.6-.301-1.449v-4.515h1.672v4.257q0 .674.369 1.07.369.398.969.398.37 0 .716-.18.346-.181.568-.536.226-.36.226-.9m2.245-5.037v-1.435h7.543v1.435h-2.922V20h-1.699v-8.019zm12.335 5.037v-4.109h1.671V20h-1.62v-1.26h-.074q-.24.595-.789.974-.544.378-1.344.378a2.4 2.4 0 0 1-1.232-.309 2.15 2.15 0 0 1-.831-.91q-.3-.6-.3-1.449v-4.515h1.671v4.257q0 .674.369 1.07.37.398.97.398.369 0 .715-.18.346-.181.568-.536.226-.36.226-.9M155.714 20v-9.454h1.671v3.536h.069q.13-.26.365-.55.235-.295.637-.503.402-.212 1.025-.212.822 0 1.482.42.665.415 1.052 1.233.393.812.393 1.994 0 1.167-.384 1.985-.383.817-1.043 1.246t-1.496.43q-.609 0-1.011-.203a2.1 2.1 0 0 1-.646-.49 3 3 0 0 1-.374-.55h-.097V20zm1.639-3.546q0 .689.193 1.205.2.517.568.808.374.287.905.287.554 0 .928-.296.374-.3.563-.817.194-.522.194-1.186 0-.66-.189-1.173a1.76 1.76 0 0 0-.563-.803q-.375-.291-.933-.291-.536 0-.909.281-.375.282-.568.79-.189.508-.189 1.195m9.472 3.685q-1.066 0-1.842-.444a3 3 0 0 1-1.187-1.265q-.415-.82-.415-1.934 0-1.095.415-1.92a3.14 3.14 0 0 1 1.173-1.293q.752-.466 1.768-.466.655 0 1.237.212a2.8 2.8 0 0 1 1.034.646q.453.439.711 1.118.259.674.259 1.606v.513h-5.813v-1.127h4.211a1.8 1.8 0 0 0-.208-.854 1.5 1.5 0 0 0-.568-.595 1.6 1.6 0 0 0-.84-.217q-.513 0-.9.249-.388.244-.605.646a1.85 1.85 0 0 0-.217.873v.983q0 .618.226 1.062.226.438.633.674.405.23.951.23.364 0 .66-.1.296-.108.512-.31.217-.203.328-.503l1.56.175a2.4 2.4 0 0 1-.563 1.08 2.75 2.75 0 0 1-1.052.711q-.643.25-1.468.25"/></svg>