<svg xmlns="http://www.w3.org/2000/svg" fill="none" viewBox="0 0 96 13"><path fill="#fff" d="M13.439 11.633V1.197h5.01v1.397h-3.564v3.13h3.564V7.12h-3.564v4.513z"/><path fill="#fff" d="M19.534 11.633V1.197h1.447v10.436z"/><path fill="#fff" d="M22.012 11.633V1.197h1.447v9.04h3.443v1.396z"/><path fill="#fff" d="m41.438 11.633-5.466-8.052h-.027v8.052h-1.072l-5.465-8.052h-.027v8.052h-1.447V1.197h1.5l5.037 7.235h.027V1.197h1.5l7.275 10.436z"/><path fill="#fff" d="M45.89 11.633V1.197h3.348c1.059-.014 1.85.141 2.372.395 1.071.522 1.741 1.72 1.741 3.131 0 1.932-1.018 3.638-3.858 3.638h-1.179v3.272zM49.4 6.02c1.017 0 1.526-.366 1.526-1.255 0-.846-.495-1.227-1.62-1.227h-.992V6.02z"/><path fill="#fff" d="M54.065 11.633V1.197h2.532v8.095h2.934v2.341z"/><path fill="#fff" d="m67.455 11.633.014-1.142h-.027c-.683.888-1.768 1.34-3.175 1.34-2.867 0-4.73-2.525-4.73-5.373 0-3.004 1.916-5.458 4.73-5.458 1.393 0 2.652.508 3.175 1.297h.027l-.014-1.1h2.532v10.436zm.014-5.204c0-1.55-1.032-3.088-2.706-3.088-1.635 0-2.693 1.326-2.693 3.046 0 1.749 1.072 3.102 2.733 3.102 1.62 0 2.666-1.48 2.666-3.06"/><path fill="#fff" d="M77.362 11.633 73.557 5.26l.067 6.374H71.2V1.197h2.183l3.859 6.6-.108-6.6h2.425v10.436z"/><path fill="#fff" d="M80.773 11.633V1.197h5.506v2.341h-3.082V5.16h2.988v2.341h-2.988v1.791h3.082v2.341z"/><path fill="#fff" d="M89.14 11.633V3.538h-1.956v-2.34h6.431v2.34h-1.942v8.095z"/><path fill="#fff" d="M2 2.163v8.503c0 .76.79 1.22 1.396.816L9.77 7.231c.567-.379.567-1.254 0-1.632L3.396 1.348C2.789.943 2 1.404 2 2.163"/></svg>