<svg xmlns="http://www.w3.org/2000/svg" fill="none" viewBox="0 0 112 30"><rect width="112" height="30" fill="#fedf20" rx="8"/><rect width="111" height="29" x=".5" y=".5" stroke="#fff" stroke-opacity=".25" rx="7.5"/><path fill="#1e1e1e" d="M24.38 15.273q0 1.527-.572 2.617-.567 1.085-1.55 1.662-.98.577-2.221.577t-2.226-.577q-.979-.582-1.55-1.666-.569-1.09-.568-2.613 0-1.529.567-2.613.573-1.09 1.551-1.667.984-.577 2.226-.577t2.22.577q.984.577 1.551 1.667.573 1.085.573 2.613m-1.721 0q0-1.076-.337-1.814-.333-.744-.924-1.122a2.45 2.45 0 0 0-1.361-.383q-.771 0-1.362.383-.591.378-.928 1.122-.333.738-.333 1.814 0 1.075.333 1.819.337.738.928 1.121a2.47 2.47 0 0 0 1.362.379q.771 0 1.361-.379.591-.383.924-1.121.337-.743.337-1.82m6.208 7.534q-.9 0-1.547-.245-.646-.24-1.038-.646a2.24 2.24 0 0 1-.545-.9l1.505-.365q.102.207.295.41.194.21.522.342.333.14.836.139.71 0 1.177-.346.465-.342.466-1.127v-1.343h-.083q-.129.259-.379.53-.245.273-.65.458-.402.184-1.012.184a2.9 2.9 0 0 1-1.481-.383q-.66-.387-1.053-1.154-.387-.77-.388-1.93 0-1.167.388-1.97.393-.81 1.057-1.224.665-.42 1.482-.42.623 0 1.025.212.406.208.646.503.24.29.365.55h.092v-1.173h1.648v7.206q0 .91-.434 1.505-.433.595-1.186.891t-1.708.296m.014-4.22q.53 0 .904-.258.376-.258.568-.743.194-.485.194-1.164 0-.67-.194-1.172a1.67 1.67 0 0 0-.563-.78q-.37-.282-.91-.282-.558 0-.932.29-.375.291-.563.8-.19.502-.19 1.144 0 .651.19 1.14.194.486.568.758.378.267.928.267m6.555-8.041V20h-1.671v-9.454zm3.616 9.597q-.675 0-1.214-.24a2 2 0 0 1-.85-.72q-.309-.476-.309-1.173 0-.6.222-.992.222-.393.605-.628.383-.236.863-.356a7 7 0 0 1 1.002-.18q.623-.064 1.01-.115.39-.055.564-.166.18-.116.18-.356v-.027q0-.522-.31-.808-.309-.287-.89-.287-.614 0-.974.268-.355.269-.48.633l-1.56-.222q.183-.645.608-1.08a2.65 2.65 0 0 1 1.04-.656q.613-.22 1.357-.221.512 0 1.02.12t.928.397q.42.272.674.743.258.47.258 1.177V20H41.19v-.974h-.056a2 2 0 0 1-.43.554q-.27.255-.687.41a2.8 2.8 0 0 1-.965.153m.434-1.228q.503 0 .873-.198.369-.203.567-.536.204-.333.204-.725v-.835a.8.8 0 0 1-.268.12 4 4 0 0 1-.416.097 13 13 0 0 1-.457.074l-.392.055q-.375.051-.67.166a1.1 1.1 0 0 0-.466.323.8.8 0 0 0-.17.527q0 .461.337.697.336.235.858.235m2.42 3.772q-.596 0-.998-.314-.397-.315-.466-.905a1.7 1.7 0 0 1 .06-.73q.11-.369.397-.687.285-.319.757-.536l1.14.485a3.8 3.8 0 0 0-.72.508.83.83 0 0 0-.29.628q0 .22.105.341.111.12.351.12a.9.9 0 0 0 .305-.046q.135-.045.226-.083l.166.942a2.4 2.4 0 0 1-.425.184 1.8 1.8 0 0 1-.609.093m5.059-2.562a2.7 2.7 0 0 1-1.496-.43q-.66-.429-1.043-1.246-.383-.818-.383-1.985 0-1.182.388-1.994.392-.817 1.057-1.233.665-.42 1.481-.42.624 0 1.025.212.401.208.638.503.234.29.364.55h.07v-3.536h1.675V20h-1.643v-1.117h-.102q-.129.258-.374.55-.244.285-.646.489-.402.203-1.011.203m.466-1.371q.531 0 .905-.287a1.8 1.8 0 0 0 .568-.808q.194-.517.194-1.204 0-.689-.194-1.196a1.7 1.7 0 0 0-.563-.79q-.37-.28-.91-.281-.558 0-.932.29a1.76 1.76 0 0 0-.564.804 3.4 3.4 0 0 0-.189 1.172q0 .666.19 1.187.193.517.567.817.38.296.928.296m6.989 1.39q-.675 0-1.215-.24a2 2 0 0 1-.85-.721q-.308-.476-.308-1.173 0-.6.221-.992.222-.393.605-.628.383-.236.863-.356a7 7 0 0 1 1.002-.18q.623-.064 1.011-.115.388-.055.563-.166.18-.116.18-.356v-.027q0-.522-.309-.808t-.891-.287q-.614 0-.974.268a1.33 1.33 0 0 0-.48.633l-1.56-.222q.184-.645.609-1.08a2.65 2.65 0 0 1 1.038-.656q.614-.22 1.358-.221.511 0 1.02.12.508.12.928.397.42.272.674.743.258.47.258 1.177V20h-1.606v-.974H56.5a2 2 0 0 1-.429.554q-.271.255-.688.41a2.8 2.8 0 0 1-.965.153m.433-1.229q.504 0 .873-.198.369-.203.568-.536.203-.333.203-.725v-.835a.8.8 0 0 1-.268.12q-.184.055-.415.097a13 13 0 0 1-.457.074l-.393.055q-.373.051-.67.166a1.1 1.1 0 0 0-.465.323.8.8 0 0 0-.171.527q0 .461.337.697.336.235.858.235m4.848-6.006h1.671v7.497q0 .767-.29 1.265-.292.499-.841.743-.55.245-1.334.245-.093 0-.171-.005-.079 0-.17-.004v-1.362q.068.005.124.005.055.004.115.004.48 0 .688-.235.208-.23.208-.679zm.83-1.006a.98.98 0 0 1-.687-.263.85.85 0 0 1-.282-.642q0-.378.282-.642a.97.97 0 0 1 .688-.268q.397 0 .678.268.287.264.287.642 0 .374-.287.642a.96.96 0 0 1-.678.263m9.039 1.006v1.293h-4.076v-1.293zM66.5 11.21h1.671v6.657q0 .337.102.517.105.175.277.24.171.065.378.065.157 0 .287-.023.133-.024.203-.042l.281 1.307q-.134.045-.383.101a3 3 0 0 1-.6.065 2.7 2.7 0 0 1-1.131-.19 1.76 1.76 0 0 1-.799-.655q-.292-.443-.286-1.108zm7.388 8.929q-1.067 0-1.842-.444a3 3 0 0 1-1.187-1.265q-.415-.82-.415-1.934 0-1.095.415-1.92.42-.831 1.173-1.293.752-.466 1.768-.466.656 0 1.237.212.587.208 1.034.646.453.439.711 1.118.258.674.259 1.606v.513h-5.812v-1.127h4.21a1.8 1.8 0 0 0-.208-.854 1.5 1.5 0 0 0-.568-.595 1.6 1.6 0 0 0-.84-.217q-.513 0-.9.249-.388.244-.605.646a1.86 1.86 0 0 0-.217.873v.983q0 .618.226 1.062.227.438.633.674.406.23.95.23.366 0 .66-.1.297-.108.513-.31a1.3 1.3 0 0 0 .328-.503l1.56.175a2.43 2.43 0 0 1-.563 1.08 2.75 2.75 0 0 1-1.052.711q-.642.25-1.468.25M78.31 20v-7.09h1.62v1.18h.075q.193-.613.665-.945a1.83 1.83 0 0 1 1.084-.338q.14 0 .31.014.176.01.29.033v1.537a1.8 1.8 0 0 0-.337-.065 3 3 0 0 0-.438-.032q-.458 0-.822.198-.36.195-.568.54-.207.348-.207.8V20zm6.925.143q-.674 0-1.214-.24a2 2 0 0 1-.85-.72q-.309-.476-.309-1.173 0-.6.222-.992.222-.393.605-.628.383-.236.863-.356a7 7 0 0 1 1.002-.18q.623-.064 1.01-.115.39-.055.564-.166.18-.116.18-.356v-.027q0-.522-.31-.808-.308-.287-.89-.287-.614 0-.974.268a1.33 1.33 0 0 0-.48.633l-1.56-.222q.184-.645.609-1.08a2.65 2.65 0 0 1 1.038-.656q.614-.22 1.358-.221.511 0 1.02.12.507.12.928.397.42.272.674.743.258.47.258 1.177V20h-1.606v-.974h-.056a2 2 0 0 1-.429.554q-.272.255-.688.41a2.8 2.8 0 0 1-.965.153m.434-1.228q.504 0 .873-.198.369-.203.568-.536.203-.333.203-.725v-.835a.8.8 0 0 1-.268.12q-.185.055-.416.097-.23.04-.456.074l-.393.055q-.374.051-.67.166a1.1 1.1 0 0 0-.466.323.8.8 0 0 0-.17.527q0 .461.337.697.336.235.858.235M90.425 20v-1.062l3.657-4.584v-.06h-3.537v-1.385h5.582v1.14l-3.481 4.506v.06h3.6V20z"/></svg>