<svg xmlns="http://www.w3.org/2000/svg" fill="none" viewBox="0 0 189 43"><g fill="#fff" clip-path="url(#a)"><path d="M141.929 35.112v.07c.118 1.763 1.316 2.961 3.244 2.961 1.151 0 2.397-.376 3.384-.987l.352 2.303c-1.034.564-2.467.893-3.924.893-3.479 0-5.782-2.209-5.782-5.664 0-3.525 2.35-5.875 5.593-5.875 2.868 0 4.466 1.739 4.466 4.395 0 .587-.094 1.34-.235 1.81zM142 33.49l4.653-.024v-.188c0-1.457-.634-2.373-2.068-2.373-1.528 0-2.444 1.245-2.585 2.585"/><path d="M138.053 34.477c0 3.455-2.397 5.852-5.476 5.852-.705 0-1.716-.141-2.421-.376l-2.655.4V24.3l2.773-.376V30.2c.728-.706 1.716-1.387 3.032-1.387 2.867 0 4.747 2.327 4.747 5.664m-2.82.117c0-2.115-1.011-3.454-2.726-3.454-.917 0-1.622.352-2.233.893v5.476c.517.4 1.222.61 2.045.61 1.856 0 2.914-1.503 2.914-3.525"/><path d="M115.253 29.165h2.773v6.605c0 1.598.659 2.115 1.834 2.115.987 0 1.856-.447 2.373-.94v-7.78h2.774V39.93l-2.774.377v-1.599c-.893.964-2.185 1.645-3.572 1.645-2.115 0-3.408-1.41-3.408-3.736z"/><path d="M115.839 27.826h-4.912V40h-2.844V27.826h-4.912V25.31h12.668z"/><path d="M91.91 29.165h2.774v6.605c0 1.598.658 2.115 1.833 2.115.987 0 1.857-.447 2.374-.94v-7.78h2.773V39.93l-2.773.377v-1.599c-.893.964-2.186 1.645-3.573 1.645-2.115 0-3.407-1.41-3.407-3.736z"/><path d="M90.15 34.57c0 3.55-2.445 5.782-5.618 5.782s-5.476-2.162-5.476-5.758c0-3.572 2.42-5.805 5.617-5.805S90.15 31 90.15 34.571m-2.75.024c0-2.091-1.035-3.572-2.821-3.572-1.81 0-2.797 1.457-2.797 3.549 0 2.068 1.034 3.525 2.844 3.525 1.786 0 2.773-1.41 2.773-3.502"/><path d="m80.185 25.311-5.1 9.001V40h-2.844v-5.711l-5.123-8.978h3.102l3.478 6.346 3.408-6.346z"/><path d="M58.422 38.754h-.094c-.775.94-1.715 1.599-3.055 1.599-1.95 0-3.36-1.34-3.36-3.056 0-1.997 1.456-3.69 6.415-3.854v-.259c0-1.457-.61-2.068-2.162-2.068-1.105 0-2.444.494-3.596 1.152l-.564-2.186c1.058-.658 2.75-1.27 4.536-1.27 3.337 0 4.63 1.482 4.56 4.466v3.878c0 .823.14.94.963.987l-.211 2.092c-2.069.235-3.032-.4-3.432-1.48m-.094-1.363V34.9c-2.703.329-3.69.87-3.69 2.021 0 .823.635 1.41 1.622 1.41.87 0 1.575-.4 2.068-.94"/><path d="M50.22 40h-2.774v-6.604c0-1.598-.634-2.139-1.88-2.139-.964 0-1.857.494-2.397 1.01V40h-2.773V29.212l2.773-.376v1.716c.963-1.058 2.256-1.74 3.572-1.74 2.186 0 3.479 1.411 3.479 3.738z"/><path d="M173.103 17.047H170.4l-3.22-10.882h2.891l1.88 7.615 2.162-7.591h2.774l2.326 7.544 1.622-7.568h2.938L180.6 17.047h-2.726l-2.421-7.615z"/><path d="M166.868 11.57c0 3.55-2.445 5.782-5.618 5.782-3.172 0-5.476-2.162-5.476-5.758 0-3.572 2.421-5.805 5.617-5.805s5.477 2.21 5.477 5.782m-2.75.024c0-2.091-1.034-3.572-2.821-3.572-1.809 0-2.796 1.457-2.796 3.549 0 2.068 1.034 3.525 2.843 3.525 1.787 0 2.774-1.41 2.774-3.502M165.434.407l-3.69 4.301h-1.833l2.397-4.3z"/><path d="M154.004 17h-2.773v-6.58c0-1.599-.635-2.163-1.787-2.163-.963 0-1.715.494-2.256.964V17h-2.773v-6.58c0-1.599-.611-2.163-1.763-2.163-.987 0-1.739.4-2.256.893V17h-2.773V6.212l2.773-.376v1.528c1.011-1.01 2.115-1.551 3.455-1.551 1.316 0 2.421.634 2.961 1.857 1.081-1.176 2.374-1.857 3.855-1.857 2.044 0 3.337 1.41 3.337 3.76z"/><path d="M135.128 17h-2.773V1.3l2.773-.376z"/><path d="M130.258 2.687c0 .987-.611 1.645-1.716 1.645s-1.692-.658-1.692-1.645c0-1.01.588-1.669 1.692-1.669s1.716.658 1.716 1.669m-4.16-1.575c0 .047-.541 2.421-.541 2.398-.493-.212-1.057-.4-1.598-.4-1.01 0-1.433.588-1.433 1.927v1.199h3.149l-.071 2.28h-3.008V17h-2.773V8.54l-1.88-.142.094-1.763 1.762-.517.024-1.151c.07-3.103 1.481-4.325 3.925-4.325.893 0 1.786.259 2.35.47M129.929 17h-2.773V6.236l2.773-.4z"/><path d="M112.031 17h-2.774v-6.604c0-1.598-.634-2.139-1.809-2.139-1.035 0-1.928.494-2.468 1.01V17h-2.773V1.3l2.773-.376V7.53c.963-1.058 2.256-1.716 3.666-1.716 2.092 0 3.385 1.41 3.385 3.737z"/><path d="M100.38 16.46c-.94.563-2.303.892-3.76.892-3.526 0-5.618-2.185-5.618-5.734 0-3.525 2.303-5.805 5.711-5.805 1.481 0 2.75.329 3.737.916l-.587 2.233a5.56 5.56 0 0 0-2.938-.87c-1.998 0-3.079 1.364-3.079 3.455 0 2.21 1.246 3.502 3.079 3.502 1.128 0 2.162-.305 3.008-.846z"/><path d="M90.797 6.165 86.66 16.79l-.634 1.692c-1.081 2.961-2.304 3.854-4.301 3.854-.987 0-1.88-.235-2.75-.634l.823-2.28c.634.305 1.151.517 1.715.517.8 0 1.222-.353 1.81-1.833l.47-1.246-4.23-10.694h2.984l2.703 7.756 2.585-7.756z"/><path d="M69.048 17.047h-2.703l-3.22-10.882h2.89l1.88 7.615 2.163-7.591h2.773l2.327 7.544 1.622-7.568h2.938l-3.173 10.882h-2.727l-2.42-7.615z"/><path d="M62.812 11.57c0 3.55-2.444 5.782-5.617 5.782s-5.476-2.162-5.476-5.758c0-3.572 2.421-5.805 5.617-5.805s5.476 2.21 5.476 5.782m-2.75.024c0-2.091-1.033-3.572-2.82-3.572-1.81 0-2.796 1.457-2.796 3.549 0 2.068 1.034 3.525 2.843 3.525 1.786 0 2.774-1.41 2.774-3.502"/><path d="M49.949 17h-2.774v-6.58c0-1.599-.634-2.163-1.786-2.163-.963 0-1.716.494-2.256.964V17H40.36v-6.58c0-1.599-.611-2.163-1.763-2.163-.987 0-1.74.4-2.256.893V17h-2.774V6.212l2.774-.376v1.528c1.01-1.01 2.115-1.551 3.455-1.551 1.316 0 2.42.634 2.96 1.857 1.082-1.176 2.375-1.857 3.855-1.857 2.045 0 3.338 1.41 3.338 3.76z"/><path d="M27.63 10.302V17h-2.773V6.236l2.773-.4V7.6c.682-1.152 1.551-1.786 2.82-1.786.659 0 1.34.14 1.928.493l-.611 2.492q-.775-.423-1.552-.423c-.963 0-1.856.61-2.585 1.927"/><path d="M19.793 15.754H19.7c-.775.94-1.715 1.598-3.055 1.598-1.95 0-3.36-1.34-3.36-3.055 0-1.998 1.456-3.69 6.415-3.854v-.259c0-1.457-.61-2.068-2.162-2.068-1.104 0-2.444.494-3.596 1.152l-.564-2.186c1.058-.658 2.75-1.27 4.536-1.27 3.337 0 4.63 1.481 4.56 4.466v3.878c0 .823.14.94.963.987l-.211 2.092c-2.068.235-3.032-.4-3.432-1.48m-.094-1.363V11.9c-2.702.329-3.69.87-3.69 2.021 0 .823.635 1.41 1.622 1.41.87 0 1.575-.4 2.068-.94"/><path d="M8.75 6.165V1.3l2.774-.376V17H8.751v-1.058c-.729.706-1.716 1.41-3.056 1.41-2.867 0-4.724-2.326-4.724-5.687 0-3.455 2.398-5.852 5.476-5.852.776 0 1.622.14 2.304.352m0 2.492c-.54-.4-1.221-.635-2.044-.635-1.857 0-2.914 1.528-2.914 3.525 0 2.116 1.057 3.455 2.726 3.455.917 0 1.622-.329 2.233-.893z"/></g><defs><clipPath id="a"><rect width="189" height="43" fill="#fff"/></clipPath></defs></svg>