<svg xmlns="http://www.w3.org/2000/svg" fill="none" viewBox="0 0 104 66"><path fill="#fff" d="M2.84 4.803H.737c-.209 0-.353-.032-.417-.096q-.096-.096-.096-.385V3.119c0-.193.032-.337.096-.401s.192-.096.417-.096H7.65c.209 0 .353.032.417.096.065.064.097.208.097.4v1.204c0 .192-.048.32-.113.385-.064.064-.208.096-.4.096H5.55v7.684c0 .208-.048.353-.112.417q-.12.096-.481.096H3.433q-.385 0-.482-.096c-.08-.064-.112-.209-.112-.417zm7.572 3.641v1.252c0 .625.097 1.026.29 1.219.143.16.368.224.673.224h.064c.289 0 .513-.064.674-.224.192-.193.288-.594.288-1.22v-1.25c0-.61-.096-1.027-.288-1.22-.16-.144-.385-.224-.674-.224h-.064c-.305 0-.53.08-.674.224-.192.193-.289.61-.289 1.22m4.572.097v1.042c0 .802-.08 1.412-.24 1.861-.161.45-.418.802-.77 1.075-.53.417-1.348.625-2.47.625h-.193c-1.123 0-1.957-.208-2.47-.625a2.3 2.3 0 0 1-.77-1.075c-.16-.45-.241-1.059-.241-1.86V8.556c0-.786.08-1.396.24-1.845s.418-.802.77-1.09c.514-.418 1.348-.626 2.47-.626h.193c1.123 0 1.941.208 2.47.625.353.289.61.642.77 1.075.16.45.241 1.059.241 1.845m3.347-2.711c.56-.546 1.363-.834 2.39-.834h.144c.994 0 1.7.288 2.133.834.385.513.578 1.38.578 2.63v1.204c0 .673-.064 1.235-.16 1.652a2.3 2.3 0 0 1-.578 1.042c-.546.53-1.283.786-2.246.786h-.176q-.915 0-1.492-.337v2.47c0 .241-.048.402-.128.466-.097.064-.273.096-.546.096h-1.219c-.272 0-.449-.032-.545-.112-.096-.064-.128-.225-.128-.45V5.654c0-.192.032-.32.128-.4.08-.065.224-.113.433-.113h.674c.192 0 .337.032.417.064a.6.6 0 0 1 .176.273l.112.353zm.593 2.278v2.053c0 .369.064.625.225.77.144.144.384.208.721.208h.145c.369 0 .625-.096.786-.32q.192-.29.192-1.396v-.69c0-.77-.064-1.251-.192-1.427-.16-.193-.417-.29-.802-.29h-.113c-.352 0-.593.081-.753.241-.145.145-.209.434-.209.85m8.36.336v1.252c0 .625.096 1.026.288 1.219.144.16.369.224.674.224h.064c.289 0 .513-.064.674-.224.192-.193.288-.594.288-1.22v-1.25c0-.61-.096-1.027-.288-1.22-.16-.144-.385-.224-.674-.224h-.064c-.305 0-.53.08-.674.224-.192.193-.289.61-.289 1.22m4.57.097v1.042c0 .802-.08 1.412-.24 1.861s-.417.802-.77 1.075c-.529.417-1.347.625-2.47.625h-.192c-1.123 0-1.957-.208-2.47-.625a2.3 2.3 0 0 1-.77-1.075c-.161-.45-.241-1.059-.241-1.86V8.556c0-.786.08-1.396.24-1.845s.417-.802.77-1.09c.514-.418 1.348-.626 2.47-.626h.193c1.123 0 1.941.208 2.47.625.353.289.61.642.77 1.075.16.45.24 1.059.24 1.845m5.48-3.016h1.38c.225 0 .385.032.465.096s.145.193.177.385c0 .064.289 1.492.85 4.267h.048c.289-1.684.546-3.24.754-4.684.016-.176.064-.289.128-.353q.097-.096.337-.096h1.636c.177 0 .29.048.353.112.048.08.064.209.032.37-.256 1.25-.577 2.63-.93 4.138s-.61 2.454-.77 2.855c-.064.16-.144.273-.224.32-.08.049-.209.065-.37.065h-1.764c-.337 0-.545-.112-.61-.369-.304-1.09-.56-2.47-.785-4.138h-.065a44 44 0 0 1-.802 4.138c-.064.257-.256.369-.577.369h-1.733c-.32 0-.529-.112-.609-.353-.16-.433-.433-1.428-.818-2.967a75 75 0 0 1-.898-4.059c-.049-.176-.032-.304.032-.369.064-.064.192-.112.385-.112h1.572c.16 0 .288.032.369.096.064.064.112.193.144.353.225 1.492.481 3.048.786 4.684h.064c.385-1.989.658-3.417.786-4.267.032-.208.08-.337.16-.4.08-.049.241-.081.498-.081m10.928 5.55h.176a7 7 0 0 0 1.7-.208 2 2 0 0 1 .306-.049c.16 0 .256.097.288.273l.129.802c.032.225.064.37.064.433 0 .193-.145.337-.417.433a7.4 7.4 0 0 1-2.422.385h-.305q-1.973 0-2.791-.818a2.3 2.3 0 0 1-.642-1.09c-.112-.418-.16-.979-.16-1.669V8.67c0-1.396.32-2.374.962-2.951.546-.482 1.38-.722 2.519-.722h.224c1.123 0 1.941.272 2.422.802.514.577.77 1.524.77 2.871v.834c0 .305-.16.45-.465.45h-3.85v.128c0 .385.096.641.321.786.209.144.593.208 1.171.208M46.77 8.284h1.765c.128 0 .192-.064.192-.208v-.257c0-.32-.064-.562-.16-.738-.129-.193-.385-.289-.738-.289h-.145c-.32 0-.545.08-.673.225q-.24.288-.24.866zM3.385 25.888v2.647c0 .16-.049.289-.129.353-.08.08-.224.112-.417.112H1.363c-.208 0-.352-.032-.433-.112-.08-.064-.112-.193-.112-.353v-9.93c0-.16.032-.272.112-.352.08-.064.225-.113.433-.113H2.84c.193 0 .337.049.417.113.08.08.129.192.129.353v5.229h.112l1.524-2.326c.144-.24.369-.369.673-.369h1.861c.177 0 .273.064.273.193 0 .064-.048.176-.128.304l-1.845 2.76c-.145.224-.209.384-.209.48 0 .113.064.273.209.482l1.973 3.112c.064.128.096.208.096.272 0 .177-.112.257-.337.257h-1.78c-.225 0-.401-.016-.498-.08q-.144-.072-.288-.337l-1.524-2.695zm9.578.24v-4.523c0-.16.032-.272.112-.353.08-.064.225-.112.434-.112h1.475c.193 0 .337.048.417.112.08.08.129.193.129.353v4.748q0 1.468-.722 2.118c-.514.449-1.412.673-2.727.673s-2.23-.224-2.727-.673q-.722-.65-.722-2.118v-4.748c0-.16.032-.272.112-.353.08-.064.225-.112.434-.112h1.475c.193 0 .337.048.417.112.08.08.129.193.129.353v4.524c0 .369.048.61.176.738.128.144.353.208.706.208.337 0 .577-.064.706-.208.112-.129.176-.37.176-.738m6.105-4.122h.048c.353-.577.946-.866 1.797-.866h.641c.16 0 .289.032.353.096s.112.177.112.353v1.171c0 .177-.032.289-.096.353q-.096.096-.337.096h-.481c-.593 0-.995.113-1.22.337-.192.193-.272.562-.272 1.107v3.882c0 .16-.048.289-.128.353-.08.08-.225.112-.417.112h-1.476c-.208 0-.353-.032-.433-.112-.08-.064-.112-.193-.112-.353v-6.946c0-.16.032-.272.112-.337.08-.064.225-.112.433-.112h.77c.177 0 .305.032.385.08q.12.096.192.289zm3.691 1.717v-.209c0-.786.209-1.38.626-1.796.481-.482 1.3-.722 2.438-.722h.16c.899 0 1.685.096 2.343.288q.192.073.24.145a.45.45 0 0 1 .032.273l-.176 1.315c-.032.208-.177.273-.433.208-.642-.144-1.22-.224-1.7-.224h-.017c-.352 0-.61.032-.737.096-.145.064-.209.176-.209.337v.048c0 .16.048.273.176.337.129.064.37.144.738.208l.754.16c.69.161 1.187.402 1.476.723s.433.818.433 1.475v.241c0 1.684-1.059 2.518-3.144 2.518h-.16c-1.059 0-1.941-.144-2.68-.433-.143-.048-.24-.112-.272-.192-.032-.064-.032-.193 0-.37l.225-1.058c.048-.305.224-.4.545-.305.738.257 1.38.37 1.925.37h.048c.353 0 .594-.033.738-.113.128-.064.209-.192.209-.369v-.048a.34.34 0 0 0-.177-.305q-.192-.096-.77-.24l-.706-.16q-1.058-.242-1.491-.723c-.29-.32-.434-.802-.434-1.475m14.279-2.102c-.225 1.508-.642 3.176-1.251 5.021a34 34 0 0 1-2.262 5.23c-.112.224-.257.336-.45.336a1 1 0 0 1-.465-.128l-.818-.353c-.288-.128-.417-.257-.417-.401 0-.064.016-.16.08-.273.546-1.107.867-1.748.93-1.925-.448-.16-.785-.513-1.042-1.09-.288-.642-.625-1.62-.994-2.968q-.554-2.02-.818-3.465c-.032-.16-.016-.272.064-.353.08-.064.224-.112.417-.112h1.46c.176 0 .304.032.384.08s.145.145.177.305c.369 2.021.786 3.818 1.251 5.374h.08c.45-1.284.867-3.048 1.252-5.326q.024-.24.144-.337c.08-.064.208-.096.369-.096h1.476c.176 0 .304.048.369.112.064.065.08.193.064.37m8.52-.096h1.38c.225 0 .385.032.465.096.08.065.145.193.177.385 0 .064.289 1.492.85 4.267h.048c.289-1.684.546-3.24.754-4.684.016-.176.064-.288.128-.353q.097-.096.337-.096h1.636c.177 0 .29.048.353.112.048.08.065.209.032.37-.256 1.25-.577 2.63-.93 4.138s-.61 2.454-.77 2.855c-.064.16-.144.273-.224.32-.08.049-.209.065-.37.065H47.66c-.337 0-.545-.112-.61-.369-.304-1.09-.56-2.47-.785-4.138H46.2a44 44 0 0 1-.802 4.138c-.064.257-.256.369-.577.369h-1.732c-.321 0-.53-.112-.61-.353-.16-.433-.433-1.427-.818-2.967a75 75 0 0 1-.898-4.059c-.048-.176-.032-.304.032-.369.064-.064.192-.112.385-.112h1.572c.16 0 .288.032.369.096.064.064.112.193.144.353.224 1.492.481 3.048.786 4.684h.064c.385-1.989.658-3.417.786-4.267.032-.208.08-.337.16-.4.08-.049.241-.081.498-.081m11.62 6.817h-.031c-.353.546-1.059.802-2.102.802h-.24c-.818 0-1.46-.208-1.91-.625-.464-.417-.689-1.043-.689-1.845v-.176c0-.867.24-1.492.738-1.845.497-.353 1.3-.53 2.422-.53h.112c.417 0 .803.033 1.123.065v-.337c0-.337-.096-.578-.272-.706-.193-.112-.514-.176-.963-.176-.545 0-1.155.096-1.86.272-.193.049-.337.049-.402 0-.08-.048-.128-.144-.144-.304l-.128-.85c-.032-.145-.032-.257-.032-.321 0-.193.128-.337.385-.417a10.3 10.3 0 0 1 2.743-.353c1.235 0 2.117.272 2.63.786.401.417.61 1.09.61 2.005v4.764c0 .16-.048.289-.129.353-.08.064-.224.096-.417.096h-.754c-.192 0-.32-.016-.4-.064s-.145-.145-.193-.305zm-.577-2.053v-.449a4.6 4.6 0 0 0-.77-.048h-.176q-.578 0-.818.144c-.16.096-.225.289-.225.578v.064c0 .289.064.481.225.577.144.113.369.16.673.16h.113c.32 0 .561-.08.754-.24.144-.128.224-.4.224-.786m6.959.626h.513c.16 0 .289.048.353.112.064.08.112.225.112.433v.995c0 .224-.048.369-.112.433-.064.08-.192.112-.353.112h-1.219c-.802 0-1.363-.144-1.684-.465-.32-.305-.481-.85-.481-1.62v-8.31c0-.16.032-.272.112-.352.08-.064.224-.113.433-.113h1.476c.192 0 .337.049.417.113.08.08.128.192.128.353v8.004c0 .128.016.209.064.24.032.049.113.065.24.065m6.25-.786v-4.524c0-.16.032-.272.113-.353.08-.064.224-.112.433-.112h1.476c.192 0 .336.048.417.112.08.08.128.193.128.353v4.748q0 1.468-.722 2.118c-.513.449-1.412.673-2.727.673s-2.23-.224-2.727-.673q-.722-.65-.722-2.118v-4.748c0-.16.032-.272.113-.353.08-.064.224-.112.433-.112H67.5c.193 0 .337.048.418.112.08.08.128.193.128.353v4.524c0 .369.048.61.176.738.129.144.353.208.706.208.337 0 .578-.064.706-.208.112-.129.176-.37.176-.738m9.105 1.363v.915c0 .24-.048.4-.113.48-.064.08-.208.113-.4.113h-1.284c-1.155 0-1.925-.192-2.278-.593-.32-.337-.465-.979-.465-1.941v-3.32h-.866c-.16 0-.257-.017-.32-.081-.065-.064-.081-.16-.081-.32v-.819c0-.192.016-.32.08-.385.048-.064.16-.112.337-.16l.85-.209V19.6c0-.16.032-.273.112-.353.08-.064.225-.112.434-.112h1.475c.193 0 .337.048.417.112.08.08.129.193.129.353v1.54h1.331c.16 0 .257.032.32.096.065.064.097.177.097.37v1.074q0 .288-.096.385c-.064.064-.16.08-.32.08h-1.332v3.032c0 .289.032.465.128.561.096.113.305.16.626.16h.705c.193 0 .337.049.401.129.065.08.113.24.113.465M3.417 39.605v6.93c0 .16-.048.289-.129.353-.08.08-.224.112-.417.112H1.396c-.209 0-.353-.032-.434-.112-.08-.064-.112-.193-.112-.353v-6.93c0-.16.032-.272.112-.353.08-.064.225-.112.434-.112H2.87c.193 0 .337.048.417.112.08.08.129.193.129.353M2.23 38.531h-.193c-.866 0-1.3-.434-1.3-1.332v-.08c0-.882.434-1.331 1.3-1.331h.193c.866 0 1.299.449 1.299 1.33v.081c0 .898-.433 1.332-1.3 1.332m8.893 5.357v2.647c0 .16-.048.289-.128.353-.08.08-.225.112-.417.112H9.102c-.209 0-.353-.032-.433-.112-.08-.064-.113-.193-.113-.353v-9.93c0-.16.033-.272.113-.352.08-.064.224-.112.433-.112h1.476c.192 0 .336.048.417.112.08.08.128.192.128.353v5.229h.112l1.524-2.326c.144-.24.369-.369.674-.369h1.86c.177 0 .273.064.273.193 0 .064-.048.176-.128.304l-1.845 2.76c-.144.224-.208.384-.208.48 0 .113.064.273.208.482l1.973 3.112c.064.128.096.208.096.272 0 .177-.112.257-.336.257h-1.78c-.226 0-.402-.016-.498-.08q-.144-.072-.289-.337l-1.524-2.695zm7.56-1.444v1.252c0 .625.097 1.026.29 1.219.143.16.368.224.673.224h.064c.289 0 .513-.064.674-.224.192-.193.288-.594.288-1.22v-1.25c0-.61-.096-1.027-.288-1.22-.16-.144-.385-.224-.674-.224h-.064c-.305 0-.53.08-.674.224-.192.193-.289.61-.289 1.22m4.572.097v1.042c0 .802-.08 1.412-.24 1.861-.161.45-.418.802-.77 1.075-.53.417-1.348.625-2.47.625h-.193c-1.123 0-1.957-.208-2.47-.625a2.3 2.3 0 0 1-.77-1.075c-.161-.45-.241-1.059-.241-1.86v-1.027c0-.786.08-1.396.24-1.845s.418-.802.77-1.09c.514-.418 1.348-.626 2.47-.626h.193c1.123 0 1.941.208 2.47.625.353.289.61.642.77 1.075.16.45.241 1.059.241 1.845m5.608-3.545h.128c.93 0 1.62.224 2.038.657.385.417.593 1.123.593 2.118v4.764c0 .16-.048.289-.128.353-.08.08-.225.112-.417.112H29.6c-.209 0-.353-.032-.433-.112-.08-.064-.112-.193-.112-.353v-4.54c0-.353-.065-.61-.177-.738-.128-.128-.369-.208-.706-.208h-.096c-.353 0-.577.08-.706.208-.128.129-.176.385-.176.738v4.54c0 .16-.048.289-.128.353-.08.08-.225.112-.417.112h-1.476c-.209 0-.353-.032-.433-.112-.08-.064-.113-.193-.113-.353v-6.946c0-.16.032-.273.113-.337.08-.064.224-.112.433-.112h.754c.192 0 .32.032.4.08q.121.072.193.289l.096.305h.049c.513-.546 1.235-.818 2.197-.818m9.308 6.496v.915c0 .24-.048.4-.112.48-.065.08-.209.113-.401.113h-1.284c-1.155 0-1.925-.193-2.278-.593-.32-.337-.465-.979-.465-1.941v-3.32h-.866c-.16 0-.257-.017-.32-.081-.065-.064-.08-.16-.08-.32v-.819c0-.192.015-.32.08-.385.047-.064.16-.112.336-.16l.85-.209V37.6c0-.16.032-.273.113-.353.08-.064.224-.112.433-.112h1.475c.193 0 .337.048.417.112.08.08.129.193.129.353v1.54h1.331c.16 0 .257.032.321.096.064.065.096.177.096.37v1.074q0 .288-.096.385c-.064.064-.16.08-.32.08h-1.332v3.032c0 .289.032.465.128.561.096.112.305.16.626.16h.706c.192 0 .336.049.4.129.065.08.113.24.113.465m3.54-3.048v1.252c0 .625.096 1.026.288 1.219.145.16.37.224.674.224h.064c.289 0 .513-.064.674-.224.192-.193.289-.594.289-1.22v-1.25c0-.61-.097-1.027-.29-1.22-.16-.144-.384-.224-.673-.224h-.064c-.305 0-.53.08-.674.224-.192.193-.288.61-.288 1.22m4.571.097v1.042c0 .802-.08 1.412-.24 1.861s-.418.802-.77 1.075c-.53.417-1.348.625-2.47.625h-.193c-1.123 0-1.957-.208-2.47-.625a2.3 2.3 0 0 1-.77-1.075c-.16-.45-.241-1.059-.241-1.86v-1.027c0-.786.08-1.396.24-1.845.161-.45.418-.802.77-1.09.514-.418 1.348-.626 2.47-.626h.193c1.123 0 1.941.208 2.47.625.353.289.61.642.77 1.075.16.45.241 1.059.241 1.845m7.466-1.364h-2.55c-.161 0-.273-.016-.337-.08-.065-.064-.08-.193-.08-.385v-1.107c0-.192.015-.304.08-.369q.096-.096.336-.096h5.422c.16 0 .273.032.353.096.064.065.112.193.112.37v.304c0 .417-.128.802-.353 1.139l-2.759 3.914h2.743c.16 0 .257.032.321.096s.096.177.096.369v1.107q0 .288-.096.385c-.064.064-.16.08-.32.08h-5.519c-.337 0-.497-.144-.497-.465v-.37c0-.416.112-.785.353-1.138zm9.101 5.165h-.032c-.353.546-1.058.802-2.101.802h-.24c-.819 0-1.46-.208-1.91-.625-.465-.417-.69-1.043-.69-1.845v-.176c0-.866.241-1.492.739-1.845.497-.353 1.299-.53 2.422-.53h.112c.417 0 .802.033 1.123.065v-.337c0-.337-.096-.578-.273-.706-.192-.112-.513-.176-.962-.176-.546 0-1.155.096-1.86.272-.193.048-.338.048-.402 0-.08-.048-.128-.144-.144-.304l-.129-.85c-.032-.145-.032-.257-.032-.321 0-.193.129-.337.385-.417a10.3 10.3 0 0 1 2.743-.353c1.235 0 2.118.272 2.63.786.402.417.61 1.09.61 2.005v4.764c0 .16-.048.289-.128.353s-.224.096-.417.096h-.754c-.192 0-.32-.016-.4-.064s-.145-.145-.193-.305zm-.577-2.053v-.449a4.6 4.6 0 0 0-.77-.048h-.177q-.577 0-.818.144c-.16.096-.224.289-.224.578v.064c0 .289.064.481.224.577.145.113.37.16.674.16h.112c.321 0 .562-.08.754-.24.145-.128.225-.4.225-.786M79.7 39.833v1.7c0 1.835-.391 3.24-1.153 4.198-.78.976-2.07 1.445-3.866 1.445s-3.086-.469-3.867-1.445c-.78-.957-1.152-2.363-1.152-4.199v-1.699c0-1.835.371-3.222 1.152-4.198.781-.957 2.07-1.445 3.867-1.445 1.796 0 3.085.488 3.866 1.445.762.976 1.153 2.363 1.153 4.198M76.36 41.2v-1.035c0-1.269-.117-2.148-.312-2.616-.196-.47-.645-.723-1.328-.723h-.078c-.703.02-1.152.254-1.348.723-.195.468-.293 1.347-.293 2.616V41.2c0 1.29.098 2.148.293 2.617.196.469.645.722 1.348.722h.078c.683 0 1.132-.234 1.328-.703.195-.468.312-1.347.312-2.636m12.398-1.289h-3.105c-.195 0-.332-.02-.41-.097-.078-.078-.098-.235-.098-.469v-1.347c0-.235.02-.371.098-.45q.117-.117.41-.117h6.6c.196 0 .332.04.43.118.078.078.137.234.137.449v.37c0 .508-.156.977-.43 1.387l-3.359 4.765h3.34c.195 0 .312.039.39.117s.117.215.117.45v1.347q0 .351-.117.468c-.078.078-.195.098-.39.098h-6.718c-.41 0-.605-.176-.605-.566v-.45c0-.507.136-.956.43-1.386zm9.498 4.55h.625c.195 0 .352.059.43.137.078.098.136.273.136.527v1.211c0 .273-.058.45-.136.527-.078.098-.234.137-.43.137h-1.484c-.976 0-1.66-.176-2.05-.566-.39-.371-.586-1.035-.586-1.973v-2.109l-.644.41c-.254.157-.43.235-.508.235-.156 0-.215-.117-.215-.352V40.83c0-.195.02-.332.098-.43.058-.078.175-.195.37-.331l.899-.567v-5.155c0-.195.039-.332.137-.43.097-.078.273-.136.527-.136h1.796c.235 0 .41.058.508.136.098.098.156.235.156.43v3.164l.88-.567c.233-.156.41-.234.507-.234.136 0 .215.117.215.351v1.816c0 .196-.04.352-.098.43a1.6 1.6 0 0 1-.371.332l-1.133.723v3.73c0 .156.02.253.078.292.04.059.137.078.293.078M3.385 58.108v2.053c0 .369.064.625.224.77.128.144.37.208.722.208h.144c.37 0 .626-.096.786-.32q.193-.29.193-1.396v-.69c0-.802-.08-1.3-.209-1.46-.144-.16-.417-.256-.802-.256H4.38c-.369 0-.625.08-.786.24-.144.145-.208.434-.208.85m0-2.68h.032q.697-.432 1.828-.432h.145c.962 0 1.668.288 2.101.866.353.497.545 1.38.545 2.647v1.154c0 1.284-.272 2.182-.818 2.68-.577.545-1.491.801-2.743.801h-.32c-1.316 0-2.214-.256-2.695-.786-.433-.465-.642-1.219-.642-2.277v-7.475c0-.16.032-.273.112-.353.065-.064.209-.112.417-.112H2.84c.193 0 .337.048.417.112.08.08.129.192.129.353zm9.85 5.647h.177c.545 0 1.123-.064 1.7-.208.16-.032.257-.048.305-.048.16 0 .257.096.289.272l.128.802c.032.225.064.37.064.433 0 .193-.144.337-.417.433a7.4 7.4 0 0 1-2.422.385h-.304q-1.973 0-2.792-.818a2.3 2.3 0 0 1-.641-1.09c-.113-.417-.16-.979-.16-1.669v-.898c0-1.395.32-2.374.962-2.951.545-.482 1.38-.722 2.518-.722h.225c1.123 0 1.94.272 2.422.802.513.577.77 1.524.77 2.871v.834c0 .305-.16.45-.465.45h-3.85v.128c0 .385.096.641.32.786.21.144.594.208 1.172.208m-1.491-2.791h1.764c.129 0 .193-.064.193-.209v-.256c0-.321-.064-.562-.16-.738-.129-.193-.386-.289-.738-.289h-.145c-.32 0-.545.08-.673.225q-.24.288-.241.866zm8.293-1.107h-2.55c-.16 0-.273-.016-.337-.08s-.08-.193-.08-.385v-1.107c0-.192.016-.304.08-.369q.096-.096.337-.096h5.422c.16 0 .272.032.353.096.064.065.112.193.112.37v.304c0 .417-.129.802-.353 1.139l-2.76 3.914h2.744c.16 0 .257.032.32.096.065.064.097.177.097.369v1.107q0 .288-.096.385c-.064.064-.16.08-.321.08h-5.518c-.337 0-.497-.144-.497-.465v-.37c0-.416.112-.785.353-1.138zm12.05-1.652h1.38c.224 0 .385.032.465.096s.144.193.176.385c0 .064.289 1.492.85 4.267h.049c.288-1.684.545-3.24.753-4.684.017-.176.065-.288.129-.353q.096-.096.337-.096h1.636c.176 0 .288.048.353.112.048.08.064.209.032.37-.257 1.25-.578 2.63-.93 4.138s-.61 2.454-.77 2.855c-.065.16-.145.273-.225.32-.08.049-.209.065-.37.065h-1.764c-.336 0-.545-.112-.61-.369-.304-1.09-.56-2.47-.785-4.138h-.064a44 44 0 0 1-.802 4.138c-.064.257-.257.369-.578.369h-1.732c-.321 0-.53-.112-.61-.353-.16-.433-.433-1.428-.818-2.967a75 75 0 0 1-.898-4.059c-.048-.176-.032-.305.032-.369s.192-.112.385-.112h1.572c.16 0 .289.032.369.096.064.065.112.193.144.353.225 1.492.482 3.048.786 4.684h.064c.385-1.989.658-3.417.786-4.267.033-.208.08-.337.16-.4.081-.049.242-.081.498-.081m11.62 6.817h-.032c-.353.546-1.059.802-2.101.802h-.24c-.819 0-1.46-.208-1.91-.625-.465-.417-.69-1.043-.69-1.845v-.176c0-.866.241-1.492.738-1.845.498-.353 1.3-.53 2.422-.53h.113c.417 0 .802.033 1.123.065v-.337c0-.337-.097-.578-.273-.706-.193-.112-.513-.176-.962-.176-.546 0-1.155.096-1.861.272-.193.048-.337.048-.401 0-.08-.048-.129-.144-.145-.304l-.128-.85c-.032-.145-.032-.257-.032-.321 0-.193.128-.337.385-.417a10.3 10.3 0 0 1 2.743-.353c1.235 0 2.117.272 2.63.786.402.417.61 1.09.61 2.005v4.764c0 .16-.048.289-.128.353s-.225.096-.417.096h-.754c-.193 0-.321-.016-.401-.064s-.145-.145-.193-.305zm-.577-2.053v-.449a4.6 4.6 0 0 0-.77-.048h-.177q-.577 0-.818.144c-.16.096-.224.289-.224.578v.064c0 .289.064.481.224.577.145.113.37.16.674.16h.112c.321 0 .562-.08.754-.24.144-.128.225-.4.225-.786m6.108-4.283h.048c.353-.577.947-.866 1.797-.866h.641c.16 0 .29.032.353.096.065.065.113.177.113.353v1.171c0 .177-.032.289-.097.353q-.096.096-.337.096h-.48c-.594 0-.995.113-1.22.337-.192.193-.273.562-.273 1.107v3.882c0 .16-.048.289-.128.353-.08.08-.224.112-.417.112h-1.476c-.208 0-.352-.032-.433-.112-.08-.064-.112-.193-.112-.353v-6.946c0-.16.032-.273.112-.337s.225-.112.433-.112h.77c.177 0 .305.032.385.08q.12.096.193.289zm8.119 4.123v-4.524c0-.16.032-.272.112-.353.08-.064.225-.112.433-.112h1.476c.193 0 .337.048.417.112.08.08.128.193.128.353v4.748q0 1.468-.721 2.118c-.514.449-1.412.673-2.727.673-1.316 0-2.23-.224-2.727-.673q-.722-.65-.722-2.118v-4.748c0-.16.032-.272.112-.353.08-.064.225-.112.433-.112h1.476c.193 0 .337.048.417.112.08.08.129.193.129.353v4.524c0 .369.048.61.176.738.128.144.353.208.706.208.337 0 .577-.064.706-.208.112-.129.176-.37.176-.738m8.318-5.133h.129c.93 0 1.62.224 2.037.657.385.417.593 1.123.593 2.118v4.764c0 .16-.048.289-.128.353-.08.08-.225.112-.417.112h-1.476c-.208 0-.353-.032-.433-.112-.08-.064-.112-.193-.112-.353v-4.54c0-.353-.064-.61-.177-.738-.128-.128-.369-.208-.706-.208h-.096c-.353 0-.577.08-.706.208-.128.129-.176.385-.176.738v4.54c0 .16-.048.289-.128.353-.08.08-.225.112-.417.112h-1.476c-.209 0-.353-.032-.433-.112-.08-.064-.112-.193-.112-.353v-6.946c0-.16.032-.273.112-.337s.224-.112.433-.112h.754c.192 0 .32.032.4.08q.121.073.193.289l.097.305h.048c.513-.546 1.235-.818 2.197-.818m6.854 4.892v2.647c0 .16-.048.289-.129.353-.08.08-.224.112-.417.112h-1.476c-.208 0-.352-.032-.433-.112-.08-.064-.112-.193-.112-.353v-9.93c0-.16.032-.272.112-.352.08-.064.225-.112.433-.112h1.476c.193 0 .337.048.417.112.08.08.129.192.129.353v5.229h.112l1.524-2.326c.144-.24.369-.369.673-.369H76.7c.177 0 .273.064.273.193 0 .064-.048.176-.128.304l-1.845 2.76c-.144.224-.209.384-.209.48 0 .113.065.273.209.482l1.973 3.112c.064.128.096.208.096.272 0 .177-.112.257-.337.257h-1.78c-.225 0-.401-.016-.497-.08q-.145-.072-.29-.337l-1.523-2.695zm7.56-1.444v1.252c0 .625.096 1.026.289 1.219.144.16.369.224.674.224h.064c.288 0 .513-.064.673-.224.193-.193.29-.594.29-1.22v-1.25c0-.61-.097-1.027-.29-1.22-.16-.144-.385-.224-.673-.224h-.064c-.305 0-.53.08-.674.224-.193.193-.289.61-.289 1.22m4.572.097v1.042c0 .802-.08 1.412-.24 1.861-.161.45-.418.802-.77 1.075-.53.417-1.348.625-2.471.625h-.193c-1.122 0-1.957-.208-2.47-.625a2.3 2.3 0 0 1-.77-1.075c-.16-.45-.24-1.059-.24-1.86v-1.027c0-.786.08-1.396.24-1.845s.417-.802.77-1.09c.513-.418 1.348-.626 2.47-.626h.193c1.123 0 1.94.208 2.47.625.353.289.61.642.77 1.075.16.45.24 1.059.24 1.845m-4.893-5.518 2.519-2.15a.45.45 0 0 1 .304-.144c.113 0 .225.08.321.208l.77.995a.47.47 0 0 1 .096.273c0 .128-.096.256-.256.385l-2.535 1.732a.56.56 0 0 1-.32.112c-.129 0-.257-.064-.385-.224l-.482-.562c-.128-.144-.176-.272-.176-.369s.048-.192.144-.256m10.373 2.502h1.38c.224 0 .384.032.464.096s.145.193.177.385c0 .064.288 1.492.85 4.267h.048c.289-1.684.545-3.24.754-4.684.016-.176.064-.288.128-.353q.097-.096.337-.096h1.636c.177 0 .289.048.353.112.048.08.064.209.032.37-.256 1.25-.577 2.63-.93 4.138s-.61 2.454-.77 2.855c-.064.16-.144.273-.225.32-.08.049-.208.065-.369.065h-1.764c-.337 0-.546-.112-.61-.369-.304-1.09-.561-2.47-.786-4.138h-.064a44 44 0 0 1-.802 4.138c-.064.257-.257.369-.577.369H87.67c-.32 0-.529-.112-.61-.353-.16-.433-.432-1.428-.817-2.967a75 75 0 0 1-.899-4.059c-.048-.176-.032-.305.032-.369.065-.064.193-.112.385-.112h1.573c.16 0 .288.032.368.096.065.065.113.193.145.353.224 1.492.481 3.048.786 4.684h.064c.385-1.989.658-3.417.786-4.267.032-.208.08-.337.16-.4.08-.049.24-.081.498-.081"/></svg>