<svg xmlns="http://www.w3.org/2000/svg" fill="none" viewBox="0 0 112 71"><path fill="#fff" d="M2.637 7.226c.53-.516 1.288-.788 2.258-.788h.137c.94 0 1.606.272 2.015.788.364.485.546 1.303.546 2.485v1.137c0 .636-.06 1.167-.152 1.56a2.16 2.16 0 0 1-.545.986c-.516.5-1.213.742-2.122.742h-.167q-.864 0-1.41-.318v2.334c0 .227-.045.379-.12.44-.091.06-.258.09-.516.09H1.41c-.257 0-.424-.03-.515-.106-.09-.06-.121-.212-.121-.424V7.059c0-.182.03-.303.121-.379.076-.06.212-.106.41-.106h.636c.182 0 .318.03.394.06.06.046.121.137.167.258l.106.334zm.56 2.152v1.94c0 .348.061.59.213.727.136.136.364.197.682.197h.136c.349 0 .591-.09.743-.303q.182-.273.182-1.319V9.97c0-.728-.06-1.182-.182-1.35-.152-.18-.394-.272-.758-.272h-.106c-.333 0-.56.076-.712.227-.137.137-.197.41-.197.804m8.414 2.652h.485c.151 0 .273.045.333.106.06.076.106.212.106.41v.939c0 .212-.045.348-.106.409-.06.076-.182.106-.333.106h-1.152c-.758 0-1.288-.136-1.591-.44-.303-.287-.455-.803-.455-1.53V4.18c0-.152.03-.258.106-.334.076-.06.212-.106.41-.106h1.394c.181 0 .318.045.394.106a.45.45 0 0 1 .12.333v7.563c0 .121.016.197.062.227.03.046.106.06.227.06m5.905-.743V7.013c0-.151.03-.257.106-.333.076-.06.212-.106.41-.106h1.394c.182 0 .318.045.394.106a.45.45 0 0 1 .121.333V11.5q0 1.388-.682 2c-.485.425-1.334.637-2.576.637-1.243 0-2.107-.212-2.577-.636q-.681-.615-.682-2V7.012c0-.151.03-.257.107-.333.075-.06.212-.106.409-.106h1.394c.182 0 .318.045.394.106a.45.45 0 0 1 .121.333v4.274c0 .349.046.576.167.697.121.137.333.197.667.197.318 0 .545-.06.667-.197.106-.12.166-.348.166-.697m3.661-2.273v-.197c0-.743.198-1.303.591-1.697.455-.455 1.228-.682 2.304-.682h.152c.848 0 1.59.09 2.212.272q.182.069.228.137c.03.06.045.136.03.257l-.167 1.243c-.03.197-.167.258-.409.197-.606-.136-1.152-.212-1.606-.212h-.016c-.333 0-.575.03-.697.09-.136.062-.197.168-.197.32v.045c0 .151.046.257.167.318.121.06.349.136.697.197l.712.151c.652.152 1.122.38 1.395.682s.409.773.409 1.395v.227c0 1.591-1 2.38-2.97 2.38h-.152c-1 0-1.834-.137-2.531-.41-.136-.045-.227-.106-.258-.182-.03-.06-.03-.181 0-.348l.212-1c.046-.288.213-.38.516-.288.697.242 1.303.348 1.818.348h.046c.333 0 .56-.03.697-.106.121-.06.197-.182.197-.348v-.046a.33.33 0 0 0-.167-.288q-.18-.09-.727-.227l-.667-.152q-1-.227-1.41-.682c-.272-.303-.409-.758-.409-1.394M34.68 12.03h.485c.152 0 .273.045.334.106.06.076.106.212.106.41v.939c0 .212-.045.348-.106.409-.06.076-.182.106-.334.106h-1.151c-.758 0-1.288-.136-1.592-.44-.303-.287-.454-.803-.454-1.53v-1.637l-.5.318c-.197.122-.334.182-.394.182-.122 0-.167-.09-.167-.273V9.211c0-.152.015-.258.076-.333.045-.061.136-.152.288-.258l.697-.44v-4c0-.152.03-.258.106-.334.076-.06.212-.106.409-.106h1.394c.182 0 .319.045.394.106a.45.45 0 0 1 .122.333v2.456l.681-.44c.182-.121.319-.182.395-.182.106 0 .166.091.166.273v1.41c0 .151-.03.272-.075.333-.061.076-.152.167-.288.258l-.88.56v2.895c0 .121.016.197.061.227.03.046.106.06.227.06m6.304 1.349h-.03c-.333.515-1 .757-1.985.757h-.228c-.772 0-1.379-.197-1.803-.59-.44-.395-.652-.986-.652-1.743v-.167c0-.819.228-1.41.698-1.743s1.227-.5 2.288-.5h.106c.394 0 .758.03 1.06.06v-.318c0-.318-.09-.545-.257-.667-.182-.106-.485-.166-.91-.166-.514 0-1.09.09-1.757.257-.182.046-.318.046-.379 0-.076-.045-.121-.136-.136-.288l-.122-.803c-.03-.151-.03-.258-.03-.303 0-.182.121-.318.364-.394a9.8 9.8 0 0 1 2.591-.333c1.167 0 2 .257 2.486.742.379.394.576 1.03.576 1.895v4.5c0 .228-.091.364-.243.425a2.46 2.46 0 0 0-.94.636c-.257.273-.378.561-.378.85v.045q0 .409.409.409h.045c.182 0 .41-.03.652-.121.076-.016.136-.03.182-.03.076 0 .136.075.182.196l.075.319c.046.212.076.318.076.348 0 .091-.076.167-.212.227a3.4 3.4 0 0 1-1.227.228h-.091c-.516 0-.925-.106-1.198-.334-.272-.227-.409-.545-.409-.94v-.075c0-.364.121-.712.38-1.046.242-.333.575-.606.969-.818zm-.545-1.94v-.425a4.4 4.4 0 0 0-.728-.045h-.166q-.546 0-.773.136c-.152.091-.212.273-.212.546v.06c0 .273.06.455.212.546.136.106.348.152.636.152h.106c.303 0 .53-.076.713-.228.136-.12.212-.378.212-.742m7.406.742h.122c.409 0 .848-.06 1.318-.197.152-.03.243-.045.288-.045.152 0 .243.09.273.258l.136.772c.03.213.061.349.061.41 0 .181-.136.318-.394.409-.667.242-1.394.348-2.182.348h-.182c-1.091 0-1.895-.242-2.395-.757q-.773-.774-.773-2.592v-.879c0-.712.06-1.273.182-1.667q.182-.59.591-1c.53-.53 1.364-.803 2.5-.803h.152c.91 0 1.698.166 2.334.5.182.106.288.227.288.379 0 .09-.045.242-.121.454l-.288.728q-.114.273-.318.272a.6.6 0 0 1-.273-.075c-.485-.197-.94-.303-1.349-.303h-.06c-.395 0-.682.106-.864.288-.228.227-.334.697-.334 1.394v.515c0 .621.091 1.046.303 1.273.197.212.53.318.985.318M53.711 8.5h-2.41c-.151 0-.257-.015-.318-.076-.06-.06-.076-.182-.076-.364V7.013c0-.181.016-.287.076-.348q.09-.09.318-.091h5.123c.151 0 .258.03.333.09.06.062.106.183.106.35V7.3c0 .394-.12.758-.333 1.076l-2.607 3.698h2.592c.151 0 .242.03.303.091.06.06.09.167.09.349v1.045q0 .274-.09.364c-.06.06-.152.076-.303.076H51.3c-.318 0-.47-.136-.47-.44v-.348c0-.394.107-.743.334-1.076zm8.22-2.061h.122c.879 0 1.53.212 1.924.62.364.395.561 1.062.561 2.001v4.502c0 .151-.045.272-.121.333-.076.076-.212.106-.394.106h-1.394c-.198 0-.334-.03-.41-.106-.075-.06-.106-.182-.106-.334V9.272c0-.334-.06-.576-.166-.698-.122-.12-.35-.197-.667-.197h-.091c-.334 0-.546.076-.667.197s-.167.364-.167.698v4.288c0 .152-.045.273-.121.334-.076.076-.212.106-.394.106h-1.394c-.197 0-.334-.03-.41-.106-.075-.06-.106-.182-.106-.334V6.998c0-.151.03-.257.106-.318.076-.06.213-.106.41-.106h.712c.182 0 .303.03.379.076q.114.067.182.273l.09.287h.046c.485-.515 1.167-.772 2.076-.772m6.506.575v6.547c0 .152-.046.273-.122.334-.075.076-.212.106-.394.106h-1.394c-.197 0-.333-.03-.41-.106-.075-.06-.105-.182-.105-.334V7.014c0-.151.03-.257.106-.333.076-.06.212-.106.41-.106h1.393c.182 0 .319.045.394.106a.45.45 0 0 1 .122.333m-1.122-1.015h-.182c-.818 0-1.227-.41-1.227-1.258v-.076c0-.833.409-1.257 1.227-1.257h.182c.819 0 1.228.424 1.228 1.257v.076c0 .849-.41 1.258-1.228 1.258m6.3 6.183h.166c.515 0 1.06-.06 1.606-.197.152-.03.243-.045.288-.045.152 0 .243.09.273.258l.121.757c.03.212.06.349.06.41 0 .181-.136.318-.393.409a7 7 0 0 1-2.289.363h-.288q-1.863 0-2.637-.772a2.17 2.17 0 0 1-.606-1.031c-.106-.394-.151-.925-.151-1.576v-.849c0-1.318.303-2.243.909-2.788.515-.455 1.303-.682 2.38-.682h.212c1.06 0 1.833.257 2.288.757.485.546.727 1.44.727 2.713v.788c0 .288-.151.425-.44.425h-3.636v.12c0 .364.09.607.303.743.197.137.56.197 1.106.197m-1.41-2.637h1.667c.12 0 .182-.06.182-.197v-.242c0-.303-.061-.53-.152-.697-.121-.182-.364-.273-.697-.273h-.136c-.304 0-.516.076-.637.212q-.227.273-.227.819zM5.092 27.47h.148c.59 0 1.088-.11 1.513-.332v-.259c0-1.014-.111-1.697-.314-2.047s-.572-.536-1.125-.536h-.167q-1.383 0-1.383 1.495v.166c0 .553.092.94.313 1.162.222.24.554.35 1.015.35m-3.34 6.162c-.22-.074-.313-.203-.313-.424q0-.111.055-.332l.296-1.181c.073-.295.295-.406.627-.314.886.277 1.66.406 2.325.406h.055c.664 0 1.125-.166 1.42-.535q.444-.526.499-1.66c-.61.258-1.273.368-1.993.368H4.52c-1.31 0-2.25-.313-2.841-.977-.59-.646-.867-1.642-.867-2.97v-.259c0-1.18.35-2.122 1.07-2.823.72-.683 1.771-1.033 3.155-1.033h.258c1.66 0 2.841.443 3.506 1.291.664.85 1.014 2.251 1.014 4.207v.443c0 1.051-.092 1.956-.276 2.73-.185.775-.425 1.402-.72 1.845-.295.462-.683.83-1.125 1.089-.443.277-.886.461-1.329.535-.443.092-.96.129-1.531.129h-.019c-1.07 0-2.103-.166-3.062-.535m21.861-5.387v5.221c0 .184-.055.332-.147.406-.093.092-.259.129-.48.129H21.29c-.24 0-.406-.037-.498-.13-.093-.073-.13-.22-.13-.405v-5.221c0-.406-.073-.701-.203-.849-.147-.148-.424-.24-.811-.24h-.037c-.406 0-.664.092-.812.24s-.203.443-.203.849v5.221c0 .184-.055.332-.147.406-.093.092-.259.129-.48.129H16.27c-.24 0-.405-.037-.498-.13-.092-.073-.129-.22-.129-.405v-7.989c0-.184.037-.313.13-.387.091-.074.258-.13.497-.13h.867c.222 0 .37.038.462.093q.138.083.221.332l.11.35h.056c.59-.627 1.42-.94 2.528-.94h.074c1.051 0 1.863.295 2.435.848.59-.553 1.44-.848 2.51-.848h.073c1.07 0 1.863.258 2.343.756.443.48.683 1.291.683 2.435v5.48c0 .184-.056.332-.148.406-.092.092-.258.129-.48.129h-1.697c-.24 0-.406-.037-.498-.13-.092-.073-.13-.22-.13-.405v-5.221c0-.406-.073-.701-.202-.849-.148-.148-.425-.24-.812-.24h-.037c-.406 0-.664.092-.812.24-.147.148-.203.443-.203.849m9.757-2.75v7.971c0 .184-.055.332-.148.406-.092.092-.258.129-.48.129h-1.696c-.24 0-.406-.037-.499-.13-.092-.073-.129-.22-.129-.405v-7.97c0-.185.037-.314.13-.406.092-.074.258-.13.498-.13h1.697c.221 0 .387.056.48.13.092.092.147.221.147.406m-1.365-1.235h-.222c-.996 0-1.494-.499-1.494-1.532v-.092c0-1.015.498-1.531 1.494-1.531h.222c.996 0 1.494.516 1.494 1.53v.093c0 1.033-.498 1.532-1.494 1.532m7.668 7.527h.203a8 8 0 0 0 1.956-.24c.184-.037.295-.055.35-.055.185 0 .295.11.332.314l.148.922c.037.258.074.424.074.498 0 .221-.166.388-.48.498-.849.295-1.79.443-2.786.443h-.35q-2.27 0-3.21-.94a2.65 2.65 0 0 1-.739-1.255c-.129-.48-.184-1.126-.184-1.92V29.02c0-1.606.369-2.731 1.107-3.395.627-.554 1.587-.83 2.896-.83h.259c1.291 0 2.232.313 2.786.922.59.664.885 1.753.885 3.303v.959c0 .35-.184.516-.535.516h-4.428v.148c0 .443.11.738.37.904.24.166.682.24 1.346.24m-1.716-3.21h2.03c.147 0 .221-.074.221-.24v-.295c0-.37-.074-.646-.184-.849-.148-.221-.443-.332-.85-.332h-.165c-.37 0-.627.092-.775.258q-.276.333-.277.997zm6.292-.646v-.24c0-.904.24-1.587.72-2.066.553-.554 1.494-.83 2.804-.83h.184c1.034 0 1.938.11 2.694.332q.222.082.277.166a.52.52 0 0 1 .037.313l-.203 1.513c-.037.24-.203.314-.498.24-.738-.166-1.403-.258-1.956-.258h-.019c-.405 0-.7.037-.848.11-.166.074-.24.203-.24.388v.055c0 .185.055.314.203.388.147.073.424.166.849.24l.867.184c.793.185 1.365.461 1.697.83.332.37.498.941.498 1.698v.276c0 1.938-1.217 2.897-3.616 2.897h-.184c-1.218 0-2.233-.166-3.081-.498-.166-.055-.277-.13-.314-.221-.037-.074-.037-.222 0-.425l.258-1.217c.056-.351.258-.462.627-.351.85.295 1.587.424 2.214.424h.056c.406 0 .682-.037.849-.129.147-.074.24-.221.24-.424v-.056a.4.4 0 0 0-.204-.35q-.22-.11-.885-.277l-.812-.184q-1.218-.278-1.716-.83c-.332-.37-.498-.923-.498-1.698m11.589-2.435v7.97c0 .184-.056.332-.148.406-.092.092-.258.129-.48.129h-1.697c-.24 0-.406-.037-.498-.13-.092-.073-.13-.22-.13-.405v-7.97c0-.185.038-.314.13-.406.092-.074.258-.13.498-.13h1.698c.22 0 .387.056.48.13a.54.54 0 0 1 .147.406m-1.366-1.236h-.22c-.997 0-1.495-.499-1.495-1.532v-.092c0-1.015.498-1.531 1.494-1.531h.221c.997 0 1.495.516 1.495 1.53v.093c0 1.033-.498 1.532-1.495 1.532m7.669 7.527h.203a8 8 0 0 0 1.955-.24c.185-.037.295-.055.35-.055.185 0 .296.11.333.314l.147.922c.037.258.074.424.074.498 0 .221-.166.388-.48.498-.48.185-.867.48-1.18.886-.314.406-.461.812-.461 1.18v.056c0 .35.166.517.498.517h.092c.203 0 .461-.037.756-.148.093-.018.166-.037.222-.037.092 0 .166.092.221.24l.093.387c.055.259.092.388.092.425 0 .11-.093.203-.259.276q-.72.277-1.494.277h-.11c-.646 0-1.126-.129-1.458-.406-.332-.276-.498-.664-.498-1.18v-.056c0-.332.11-.7.35-1.07.24-.369.554-.664.96-.922-.148.018-.351.018-.61.018h-.35q-2.27 0-3.21-.94a2.65 2.65 0 0 1-.738-1.255c-.13-.48-.185-1.126-.185-1.92V29.02c0-1.606.37-2.731 1.107-3.395.628-.554 1.587-.83 2.897-.83h.258c1.292 0 2.233.313 2.786.922.59.664.886 1.753.886 3.303v.959c0 .35-.185.516-.535.516h-4.428v.148c0 .443.11.738.369.904.24.166.683.24 1.347.24m-1.716-3.21h2.03c.147 0 .22-.074.22-.24v-.295c0-.37-.073-.646-.184-.849-.147-.221-.443-.332-.849-.332h-.166c-.368 0-.627.092-.774.258q-.277.333-.277.997zm10.775 3.21h.147c.499 0 1.034-.074 1.606-.24.184-.037.295-.055.35-.055.185 0 .295.11.332.314l.166.94c.037.259.074.425.074.499 0 .221-.166.387-.48.498-.811.295-1.697.424-2.656.424h-.222c-1.328 0-2.306-.295-2.915-.922q-.94-.942-.94-3.155v-1.07c0-.868.073-1.55.22-2.03q.222-.72.72-1.218c.646-.645 1.66-.977 3.044-.977h.185c1.107 0 2.066.203 2.841.608.222.13.35.277.35.462 0 .11-.055.295-.147.553l-.35.886q-.14.332-.388.332a.75.75 0 0 1-.332-.092c-.59-.24-1.144-.37-1.642-.37h-.074c-.48 0-.83.13-1.051.351-.277.277-.406.849-.406 1.697v.628c0 .756.11 1.273.369 1.55.24.258.645.387 1.199.387m12.282-6.273c-.259 1.734-.738 3.653-1.44 5.775a39 39 0 0 1-2.6 6.015c-.13.258-.296.387-.517.387-.148 0-.314-.037-.536-.148l-.94-.406c-.333-.147-.48-.295-.48-.46 0-.075.018-.185.092-.314.627-1.273.996-2.012 1.07-2.214-.516-.185-.904-.59-1.2-1.255-.331-.738-.719-1.863-1.143-3.413q-.637-2.325-.94-3.985c-.038-.185-.02-.314.073-.406.092-.074.258-.13.48-.13h1.678c.203 0 .351.038.443.093s.166.166.203.35c.425 2.325.904 4.392 1.44 6.181h.092c.516-1.476.996-3.505 1.439-6.125q.027-.277.166-.388c.092-.073.24-.11.424-.11h1.697c.203 0 .351.055.425.129s.092.221.074.424M4.046 51.136h-.181c-1.061 0-1.986-.136-2.774-.424-.333-.106-.485-.303-.424-.606l.197-1.228c.03-.303.212-.409.53-.303.88.318 1.698.47 2.425.47h.076c.455 0 .788-.06.985-.197.182-.121.288-.349.288-.667v-.151c0-.303-.091-.5-.243-.622-.166-.106-.485-.212-.954-.303l-1.03-.197c-.85-.151-1.456-.455-1.79-.879-.348-.424-.514-1.015-.514-1.788v-.425c0-.848.227-1.485.682-1.94.545-.545 1.56-.818 3.015-.818h.106c1.016 0 1.88.137 2.577.394.151.06.257.152.303.243a.9.9 0 0 1-.015.44l-.258 1.106c-.06.272-.257.363-.56.257a6.9 6.9 0 0 0-2.001-.318h-.06c-.5 0-.85.06-1.031.167-.197.12-.288.318-.288.59v.137c0 .243.06.424.197.515.121.107.394.197.788.273l1.152.227c.909.182 1.53.47 1.879.834.333.364.515 1 .515 1.894v.364c0 1.03-.288 1.773-.848 2.243-.561.485-1.47.712-2.744.712m6.805-6.91c.53-.516 1.288-.788 2.258-.788h.136c.94 0 1.607.272 2.016.788.364.485.546 1.303.546 2.485v1.137c0 .636-.06 1.167-.152 1.56a2.16 2.16 0 0 1-.545.986c-.516.5-1.213.742-2.122.742h-.167q-.864 0-1.41-.318v2.334c0 .227-.045.379-.12.44-.091.06-.258.09-.516.09H9.623c-.257 0-.424-.03-.515-.106-.09-.06-.121-.212-.121-.424v-9.093c0-.182.03-.303.121-.379.076-.06.212-.106.41-.106h.636c.182 0 .318.03.394.06.06.046.121.137.167.258l.106.334zm.56 2.152v1.94c0 .348.061.59.213.727.136.136.364.197.682.197h.136c.349 0 .591-.09.743-.303q.182-.273.182-1.319v-.651c0-.728-.06-1.182-.182-1.35-.152-.18-.394-.272-.758-.272h-.106c-.333 0-.56.076-.712.227-.137.137-.197.41-.197.804m7.899.318v1.182c0 .591.09.97.272 1.152.137.151.349.212.637.212h.06c.273 0 .486-.06.637-.212.182-.182.273-.56.273-1.152v-1.182c0-.576-.091-.97-.273-1.152-.151-.136-.364-.212-.637-.212h-.06c-.288 0-.5.076-.637.212-.181.182-.272.576-.272 1.152m4.319.09v.986c0 .758-.076 1.334-.228 1.758a2.17 2.17 0 0 1-.727 1.015c-.5.394-1.273.591-2.334.591h-.182c-1.06 0-1.849-.197-2.334-.59a2.17 2.17 0 0 1-.727-1.016c-.152-.424-.227-1-.227-1.758v-.97c0-.743.075-1.319.227-1.743.151-.424.394-.758.727-1.03.485-.394 1.273-.591 2.334-.591h.182c1.061 0 1.834.197 2.334.59.333.273.576.607.727 1.016.152.424.228 1 .228 1.743m6.041 2.79v.863c0 .228-.045.38-.106.455-.06.076-.197.106-.379.106h-1.212c-1.091 0-1.819-.182-2.152-.56-.304-.319-.44-.925-.44-1.834v-3.138h-.818c-.152 0-.243-.015-.303-.075-.061-.061-.076-.152-.076-.303v-.773c0-.182.015-.303.076-.364.045-.06.151-.106.318-.152l.803-.197V42.12c0-.151.03-.258.106-.333.076-.061.212-.106.41-.106h1.394c.181 0 .318.045.394.106a.45.45 0 0 1 .12.333v1.455h1.259c.151 0 .242.03.303.09.06.061.09.168.09.35v1.015q0 .273-.09.364c-.06.06-.152.075-.303.075h-1.258v2.865c0 .273.03.44.121.53.091.106.288.152.591.152h.667c.182 0 .318.045.379.12.06.077.106.228.106.44m3.602-5.562v6.546c0 .152-.045.273-.121.334-.076.076-.212.106-.394.106h-1.395c-.197 0-.333-.03-.409-.106-.075-.06-.106-.182-.106-.334v-6.547c0-.151.03-.257.106-.333.076-.06.212-.106.41-.106h1.394c.182 0 .318.045.394.106a.45.45 0 0 1 .121.334m-1.121-1.016h-.182c-.819 0-1.228-.41-1.228-1.258v-.076c0-.833.41-1.258 1.228-1.258h.181c.819 0 1.228.425 1.228 1.258v.076c0 .849-.41 1.258-1.227 1.258m3.146 2.47h-.818c-.152 0-.258-.015-.303-.06-.061-.046-.076-.152-.076-.319v-.742c0-.182.015-.318.06-.379.046-.06.152-.121.334-.167l.803-.197v-.651c0-.85.197-1.455.606-1.804q.638-.545 2-.545h.152c.606 0 1.122.06 1.577.166.151.046.257.106.303.182.03.076.045.197.03.364l-.091.955c-.03.151-.06.242-.106.272-.06.03-.167.046-.334.03-.394-.03-.666-.06-.848-.06h-.091c-.334 0-.53.046-.621.137-.107.106-.152.288-.152.53v.394h1.258c.151 0 .242.03.303.09.06.061.09.168.09.35v1.015q0 .273-.09.364c-.06.06-.152.075-.303.075h-1.258v5.092c0 .152-.046.273-.121.334-.076.076-.212.106-.394.106h-1.395c-.197 0-.333-.03-.409-.106-.076-.06-.106-.182-.106-.334zm11.64-1.44c-.213 1.425-.607 3.001-1.182 4.744a32 32 0 0 1-2.137 4.94c-.107.213-.243.319-.425.319a.96.96 0 0 1-.44-.121l-.772-.334c-.273-.12-.394-.242-.394-.379 0-.06.015-.151.076-.257.515-1.046.818-1.652.879-1.819-.425-.151-.743-.485-.986-1.03-.272-.607-.59-1.531-.94-2.804a40 40 0 0 1-.772-3.273c-.03-.152-.015-.258.06-.334.076-.06.213-.106.395-.106h1.379c.166 0 .288.03.364.076.075.045.136.136.166.288.349 1.91.743 3.607 1.182 5.077h.076c.424-1.213.818-2.88 1.182-5.032q.022-.227.137-.318c.075-.06.197-.091.348-.091h1.394c.167 0 .288.045.349.106.06.06.076.182.06.349m7.899-.924h-.197c-.212 0-.425.015-.667.03-.091.016-.121.076-.121.182v2.395h.788c.545 0 .909-.076 1.121-.258.182-.151.273-.44.273-.894v-.379c0-.364-.09-.636-.258-.803-.181-.182-.5-.273-.94-.273m-.985 4.683v2.743c0 .318-.182.47-.53.47h-1.486c-.197 0-.333-.03-.41-.106-.09-.06-.12-.182-.12-.364v-8.714q0-.364.136-.5c.09-.091.258-.152.53-.182.546-.045 1.395-.076 2.562-.076h.181c1.546 0 2.607.303 3.198.894.455.485.682 1.213.682 2.198v.515c0 1.137-.318 1.94-.955 2.395-.666.485-1.682.727-3.06.727zm7.765-3.395h.045c.334-.545.895-.818 1.698-.818h.606c.151 0 .273.03.333.09.061.061.106.168.106.334v1.107c0 .166-.03.272-.09.333q-.091.09-.319.091h-.454c-.561 0-.94.106-1.152.318-.182.182-.258.53-.258 1.046v3.667c0 .152-.045.273-.121.334-.076.076-.212.106-.394.106h-1.394c-.197 0-.334-.03-.41-.106-.075-.06-.106-.182-.106-.334v-6.562c0-.151.03-.257.106-.318.076-.06.213-.106.41-.106h.727c.167 0 .288.03.364.076q.114.09.182.273zm7.233 4.79h.166c.516 0 1.061-.061 1.607-.198.151-.03.242-.045.288-.045.151 0 .242.09.272.258l.122.757c.03.212.06.349.06.41 0 .181-.136.318-.394.409a7 7 0 0 1-2.288.363h-.288q-1.864 0-2.637-.773a2.17 2.17 0 0 1-.606-1.03c-.106-.394-.152-.925-.152-1.576v-.849c0-1.318.303-2.243.91-2.788.515-.455 1.303-.682 2.379-.682h.212c1.06 0 1.834.257 2.288.757.485.546.728 1.44.728 2.713v.788c0 .288-.152.425-.44.425H67.44v.12c0 .364.091.607.303.743.197.137.56.197 1.106.197m-1.41-2.638h1.667c.121 0 .182-.06.182-.197v-.242c0-.303-.06-.53-.152-.697-.12-.182-.363-.273-.697-.273h-.136c-.303 0-.515.076-.637.212q-.227.273-.227.819zm11.912-.272v4.288c0 .152-.045.273-.12.334-.077.076-.213.106-.395.106h-1.394c-.197 0-.334-.03-.41-.106-.075-.06-.105-.182-.105-.334v-4.288c0-.334-.061-.576-.167-.697-.121-.122-.349-.198-.667-.198h-.03c-.334 0-.546.076-.667.197s-.167.364-.167.698v4.288c0 .152-.045.273-.121.334-.076.076-.212.106-.394.106H73.32c-.197 0-.334-.03-.41-.106-.075-.06-.106-.182-.106-.334v-6.562c0-.151.03-.257.106-.318.076-.06.213-.106.41-.106h.712c.182 0 .303.03.379.076q.113.068.182.273l.09.288h.046c.485-.516 1.167-.773 2.076-.773h.06c.865 0 1.532.242 2.001.697.485-.455 1.183-.697 2.061-.697h.061c.88 0 1.53.212 1.925.62.364.395.56 1.062.56 2.001v4.502c0 .151-.045.272-.12.333-.076.076-.213.106-.395.106h-1.394c-.197 0-.333-.03-.41-.106-.075-.06-.105-.182-.105-.334v-4.288c0-.334-.06-.576-.167-.697-.121-.122-.349-.198-.667-.198h-.03c-.334 0-.546.076-.667.197s-.167.364-.167.698m8.015-2.258v6.546c0 .152-.046.273-.121.334-.076.076-.213.106-.394.106h-1.395c-.197 0-.333-.03-.409-.106-.076-.06-.106-.182-.106-.334v-6.547c0-.151.03-.257.106-.333.076-.06.212-.106.41-.106h1.394c.181 0 .318.045.394.106a.45.45 0 0 1 .12.334m-1.122-1.016h-.181c-.819 0-1.228-.41-1.228-1.258v-.076c0-.833.41-1.258 1.228-1.258h.181c.819 0 1.228.425 1.228 1.258v.076c0 .849-.41 1.258-1.228 1.258m6.678 5.29v-4.274c0-.152.03-.258.106-.334.076-.06.212-.106.41-.106h1.394c.181 0 .318.045.394.106a.45.45 0 0 1 .12.334v4.485q0 1.388-.681 2c-.485.425-1.334.637-2.576.637-1.243 0-2.107-.212-2.577-.636q-.681-.614-.682-2v-4.486c0-.152.03-.258.106-.334.076-.06.212-.106.41-.106h1.394c.182 0 .318.045.394.106a.45.45 0 0 1 .121.334v4.273c0 .349.046.576.167.697.121.137.333.197.667.197.318 0 .545-.06.666-.197.107-.12.167-.348.167-.697m10.405-2.016v4.288c0 .152-.045.273-.121.334-.076.076-.212.106-.394.106h-1.394c-.197 0-.334-.03-.409-.106-.076-.06-.107-.182-.107-.334v-4.288c0-.334-.06-.576-.166-.697-.121-.122-.349-.198-.667-.198h-.03c-.334 0-.546.076-.667.197s-.167.364-.167.698v4.288c0 .152-.045.273-.121.334-.076.076-.212.106-.394.106h-1.394c-.198 0-.334-.03-.41-.106-.075-.06-.106-.182-.106-.334v-6.562c0-.151.03-.257.106-.318.076-.06.213-.106.41-.106h.712c.182 0 .303.03.379.076q.114.068.182.273l.09.288h.046c.485-.516 1.167-.773 2.076-.773h.061c.864 0 1.531.242 2 .697.485-.455 1.182-.697 2.061-.697h.061c.879 0 1.531.212 1.925.62.363.395.561 1.062.561 2.001v4.502c0 .151-.046.272-.122.333-.076.076-.212.106-.394.106h-1.394c-.197 0-.333-.03-.409-.106-.076-.06-.106-.182-.106-.334v-4.288c0-.334-.061-.576-.167-.697-.121-.122-.349-.198-.667-.198h-.03c-.334 0-.546.076-.667.197s-.167.364-.167.698M4.122 67.302h-.409c-2.152 0-3.213-.97-3.213-2.924v-1.016c0-1 .258-1.727.788-2.212.515-.47 1.319-.712 2.38-.712h.212c.197-1.092 1-1.652 2.425-1.652h.742c.152 0 .243.03.303.075.046.061.076.167.076.319v.833c0 .152-.03.243-.09.288-.062.06-.168.076-.304.076H6.32c-.334 0-.561.076-.697.227 1.136.303 1.712 1.228 1.712 2.758v1.016c0 1.091-.303 1.819-.894 2.213.394.212.697.485.924.818s.349.697.349 1.076v.106c0 1.5-1.197 2.243-3.561 2.243h-.288c-1.031 0-2.031-.182-2.97-.546-.274-.09-.38-.287-.304-.575l.273-.97c.076-.288.257-.394.545-.303.895.303 1.683.439 2.38.439H4q1.318 0 1.318-.773v-.045c0-.288-.151-.546-.454-.788-.243.03-.5.03-.743.03m-.257-1.894h.106c.333 0 .56-.06.712-.212.167-.166.258-.515.258-1.03v-.591c0-.516-.091-.849-.258-1.03-.152-.137-.379-.213-.712-.213h-.106c-.334 0-.576.076-.713.212-.182.182-.257.515-.257 1.03v.592c0 .515.075.864.257 1.03.137.152.38.213.713.213m6.735-4.016h.046c.333-.545.894-.818 1.697-.818h.607c.151 0 .272.03.333.09.06.061.106.168.106.334v1.107c0 .166-.03.272-.09.333q-.092.09-.32.091h-.454c-.56 0-.94.106-1.152.318-.181.182-.257.53-.257 1.046v3.668c0 .151-.046.272-.121.333-.076.076-.213.106-.395.106H9.206c-.197 0-.333-.03-.409-.106-.076-.06-.106-.182-.106-.334v-6.562c0-.151.03-.257.106-.318.076-.06.212-.106.41-.106h.727c.166 0 .288.03.363.076q.114.09.182.273zm7.828 5.987h-.03c-.333.515-1 .757-1.985.757h-.228c-.773 0-1.379-.197-1.803-.59-.44-.395-.652-.986-.652-1.744v-.166c0-.819.227-1.41.697-1.743s1.228-.5 2.289-.5h.106c.394 0 .758.03 1.06.06v-.318c0-.318-.09-.545-.257-.667-.182-.106-.485-.166-.91-.166-.514 0-1.09.09-1.757.257-.182.046-.319.046-.38 0-.075-.045-.12-.136-.135-.288l-.122-.803c-.03-.136-.03-.242-.03-.303 0-.182.121-.318.364-.394a9.8 9.8 0 0 1 2.591-.333c1.167 0 2 .257 2.486.742.378.394.576 1.03.576 1.895v4.5c0 .152-.046.273-.122.334-.076.06-.212.091-.394.091h-.712c-.182 0-.303-.015-.379-.06-.076-.046-.136-.137-.182-.289zm-.545-1.94v-.425a4.4 4.4 0 0 0-.728-.045h-.166q-.546 0-.773.136c-.152.091-.213.273-.213.546v.06c0 .273.061.455.213.546.136.106.348.152.636.152h.106c.303 0 .53-.076.713-.228.136-.12.212-.379.212-.742m8.605 1.136v.864c0 .228-.045.38-.106.455-.06.076-.197.106-.379.106h-1.212c-1.091 0-1.819-.182-2.152-.56-.303-.319-.44-.925-.44-1.834v-3.138h-.818c-.152 0-.243-.015-.303-.075-.061-.061-.076-.152-.076-.303v-.773c0-.182.015-.303.076-.364.045-.06.151-.106.318-.152l.803-.197V59.12c0-.151.03-.258.106-.333.076-.061.212-.106.41-.106h1.394c.181 0 .318.045.394.106a.45.45 0 0 1 .12.333v1.455h1.259c.151 0 .242.03.303.09.06.061.09.168.09.35v1.015q0 .273-.09.364c-.06.06-.152.075-.303.075h-1.258v2.865c0 .273.03.44.121.53.091.106.288.152.591.152h.667c.182 0 .318.045.379.12.06.077.106.228.106.44m3.602-5.562v6.548c0 .151-.046.272-.121.333-.076.076-.212.106-.394.106H28.18c-.197 0-.333-.03-.409-.106-.076-.06-.106-.182-.106-.334v-6.547c0-.151.03-.257.106-.333.076-.06.212-.106.41-.106h1.394c.182 0 .318.045.394.106a.45.45 0 0 1 .121.334m-1.122-1.015h-.181c-.819 0-1.228-.41-1.228-1.258v-.076c0-.833.41-1.258 1.228-1.258h.181c.819 0 1.228.425 1.228 1.258v.076c0 .849-.41 1.258-1.228 1.258m2.495 3.016v-.197c0-.743.197-1.303.591-1.697.455-.455 1.228-.682 2.304-.682h.152c.848 0 1.59.09 2.212.272q.182.069.228.137c.03.06.045.136.03.257l-.167 1.243c-.03.197-.166.258-.409.197-.606-.136-1.152-.212-1.606-.212h-.016c-.333 0-.575.03-.697.09-.136.062-.197.168-.197.32v.045c0 .151.046.257.167.318.121.06.349.136.697.197l.712.151c.652.152 1.122.38 1.395.682s.409.773.409 1.395v.227c0 1.591-1 2.38-2.97 2.38h-.152c-1 0-1.834-.137-2.531-.41-.136-.045-.227-.106-.258-.182-.03-.06-.03-.181 0-.348l.213-1c.045-.288.212-.38.515-.288.697.242 1.303.348 1.818.348h.046c.333 0 .56-.03.697-.106.121-.06.197-.182.197-.349v-.045a.33.33 0 0 0-.167-.288q-.18-.09-.727-.227l-.667-.152q-1-.227-1.41-.682c-.272-.303-.409-.758-.409-1.394"/></svg>