<svg xmlns="http://www.w3.org/2000/svg" fill="none" viewBox="0 0 106 16"><g clip-path="url(#a)"><path fill="#fff" d="m.279 12.355 1.777-1.97c.837 1.19 1.881 1.74 2.948 1.74.978 0 1.562-.517 1.562-1.35s-.55-1.227-2.041-1.848C2.409 8.094.9 7.15.9 4.931S2.8.953 5.432.953c1.918 0 3.268.71 4.245 1.795L7.971 4.845c-.55-.71-1.316-1.171-2.309-1.171-.818 0-1.401.442-1.401 1.1s.64.997 2.186 1.636c2.238.87 3.498 1.97 3.498 4.246 0 2.539-1.989 4.175-4.725 4.175-2.346 0-4.015-1.03-4.937-2.469zm25.344 2.238-.87-2.54h-4.904l-.922 2.54H15.41l5.487-13.391h2.967l5.417 13.395h-3.658zm-4.867-5.045h3.127l-.658-1.918A86 86 0 0 1 22.373 5c-.282.87-.587 1.74-.907 2.61zm35.883 5.045V1.202h3.837c4.547 0 7.725 2.238 7.725 6.695s-3.126 6.696-7.513 6.696zm3.287-2.896h.71c2.52 0 4.193-1.316 4.193-3.8s-1.42-3.714-4.193-3.714h-.71zm14.28-3.818c0-3.96 3.267-6.911 7.212-6.911 3.926 0 7.175 2.929 7.175 6.944s-3.268 6.911-7.231 6.911-7.157-2.788-7.157-6.944m10.996.037c0-2.201-1.617-3.907-3.8-3.907-2.148 0-3.799 1.72-3.799 3.888 0 2.29 1.722 3.889 3.766 3.889 2.186 0 3.837-1.65 3.837-3.874zm20.459-6.714H95.088v2.914h5.167l-6.29 10.48h11.317V11.63h-5.863zm-60.658 13.39h3.108V1.203h-3.108v8.532l-6.268-8.532h-3.179v13.395h3.179V6.064l6.272 8.533z"/></g><defs><clipPath id="a"><rect width="106" height="14.505" fill="#fff" transform="translate(0 .674)"/></clipPath></defs></svg>