<svg xmlns="http://www.w3.org/2000/svg" fill="none" viewBox="0 0 224 124"><rect width="224" height="112.868" fill="#fff" transform="translate(0 5.93)"/><g clip-path="url(#a)"><rect width="86.822" height="5.209" fill="#fff" transform="translate(120.682 118.797)"/><path fill="#ae0000" d="M155.202 118.797h-34.52v5.223h34.52z"/><path fill="#0065b1" d="M159.158 118.797h-3.945v5.223h3.945z"/><path fill="#008f20" d="M207.485 118.797h-48.332v5.223h48.332z"/></g><g clip-path="url(#b)"><rect width="197.953" height="5.209" fill="#fff" transform="translate(9.55 .72)"/><path fill="#ae0000" d="M154.975.72h-34.654v5.223h34.654z"/><path fill="#ff8600" d="M120.321.72H66.825v5.223h53.496z"/><path fill="#0065b1" d="M158.947.72h-3.961v5.223h3.961z"/><path fill="#e90a0a" d="M60.886.72H9.416v5.223h51.47z"/><path fill="#008f20" d="M207.461.72h-48.52v5.223h48.52z"/><path fill="#26221e" d="M66.825.72h-5.939v5.223h5.939z"/></g><g clip-path="url(#c)"><path fill="#008f20" d="M76.107 74.232h-15.33V98.01h15.33z"/><path fill="#0065b1" d="M60.78 74.232h-1.252V98.01h1.252z"/><path fill="#ae0000" d="M59.525 74.232H48.577V98.01h10.948z"/><path fill="#ff8600" d="M48.576 74.232H31.675V98.01h16.9z"/><path fill="#26221e" d="M31.676 74.232h-1.877V98.01h1.877z"/><path fill="#e90a0a" d="M29.799 74.232H13.537V98.01H29.8z"/><g fill="#fff"><path d="M32.97 86.738v4.296h-2.147v-3.962c0-1.214-.537-1.772-1.404-1.772-.964 0-1.637.627-1.637 1.967v3.77h-2.148v-3.963c0-1.214-.51-1.772-1.404-1.772-.954 0-1.622.627-1.622 1.967v3.77h-2.15v-5.835h-.826V83.53h2.547l.11 1.16c.537-.825 1.459-1.276 2.546-1.276 1.033 0 1.914.405 2.437 1.228.592-.767 1.555-1.228 2.67-1.228 1.764 0 3.03 1.033 3.03 3.32"/><path d="M43.239 88.37c0 1.688-1.321 2.664-3.853 2.664H34.65V83.11h-1.019V81.27h5.479c2.408 0 3.647 1.017 3.647 2.539a2.37 2.37 0 0 1-.333 1.261c-.226.38-.555.688-.947.886 1.074.35 1.762 1.186 1.762 2.417zm-6.373-5.397v2.3h1.968c1.088 0 1.68-.386 1.68-1.159s-.592-1.143-1.68-1.143zm4.116 5.16c0-.823-.605-1.213-1.762-1.213h-2.354v2.416h2.354c1.157 0 1.762-.363 1.762-1.2"/><path d="M51.966 83.53v7.504h-2.05v-.87c-.537.657-1.322.978-2.313.978-2.092 0-3.703-1.507-3.703-3.867 0-2.359 1.611-3.866 3.703-3.866.909 0 1.68.29 2.216.907v-.786zm-2.106 3.75c0-1.297-.826-2.078-1.885-2.078s-1.9.781-1.9 2.078.826 2.078 1.9 2.078 1.885-.78 1.885-2.078"/><path d="M61.382 86.738v4.296h-2.148v-3.962c0-1.214-.55-1.772-1.5-1.772-1.032 0-1.776.642-1.776 2.022v3.71h-2.147v-5.828h-.826V83.53h2.547l.11 1.172c.564-.837 1.525-1.284 2.67-1.284 1.748 0 3.07 1.032 3.07 3.32"/><path d="M70.44 91.034h-2.437l-2.092-3.25h-.992v3.25h-2.147v-10.35h2.147v5.44h.992l1.982-2.594h2.395l-2.519 3.292z"/></g></g><g fill="#000"><path d="M98.15 55.645c0 .146-.024.352-.036.51h-4.947c.182.815.875 1.313 1.872 1.313.692 0 1.19-.206 1.64-.632l1.01 1.094c-.608.693-1.52 1.058-2.699 1.058-2.26 0-3.732-1.422-3.732-3.367 0-1.957 1.496-3.367 3.489-3.367 1.92 0 3.403 1.288 3.403 3.391m-3.39-1.957c-.864 0-1.484.523-1.618 1.361h3.222c-.134-.826-.754-1.36-1.605-1.36"/><path d="M88.092 52.351h1.896v6.54h-1.799v-.778c-.498.571-1.228.875-2.03.875-1.64 0-2.796-.924-2.796-2.942v-3.695h1.897v3.416c0 1.094.486 1.58 1.325 1.58.875 0 1.507-.56 1.507-1.763z"/><path d="M79.379 58.988c-2.127 0-3.647-1.398-3.647-3.367s1.52-3.367 3.647-3.367c1.373 0 2.455.595 2.93 1.665l-1.472.79c-.352-.62-.875-.9-1.47-.9-.96 0-1.714.67-1.714 1.812s.753 1.81 1.714 1.81c.595 0 1.118-.267 1.47-.899l1.471.803c-.474 1.045-1.556 1.653-2.93 1.653"/><path d="M71.961 58.988c-1.106 0-2.224-.304-2.832-.705l.632-1.362c.584.377 1.47.632 2.273.632.875 0 1.203-.23 1.203-.595 0-1.07-3.95.024-3.95-2.59 0-1.24 1.118-2.114 3.027-2.114.9 0 1.896.206 2.516.571l-.632 1.35a3.76 3.76 0 0 0-1.884-.487c-.851 0-1.216.267-1.216.608 0 1.118 3.95.036 3.95 2.613 0 1.216-1.13 2.079-3.087 2.079"/><path d="M68.499 55.645c0 .146-.025.352-.037.51h-4.947c.182.815.875 1.313 1.872 1.313.693 0 1.191-.206 1.64-.632l1.01 1.094c-.608.693-1.52 1.058-2.699 1.058-2.26 0-3.731-1.422-3.731-3.367 0-1.957 1.495-3.367 3.488-3.367 1.92 0 3.404 1.288 3.404 3.391m-3.392-1.957c-.863 0-1.483.523-1.616 1.361h3.22c-.133-.826-.753-1.36-1.604-1.36"/><path d="M60.825 58.89H58.71l-1.641-2.37h-1.811v2.37h-1.97v-6.904h-.923v-1.604h4.606c2.273 0 3.696 1.179 3.696 3.087 0 1.277-.645 2.213-1.75 2.687zm-2.152-5.42c0-.937-.608-1.484-1.811-1.484h-1.605v2.966h1.605c1.203 0 1.811-.559 1.811-1.483"/><path d="M49.754 53.457c.438-.79 1.313-1.203 2.443-1.203v1.835c-.158-.012-.28-.024-.413-.024-1.058 0-1.75.535-1.75 1.738v3.087h-1.897v-5.08h-.729V52.35h2.249z"/><path d="M46.717 55.645c0 .146-.024.352-.036.51h-4.948c.183.815.876 1.313 1.872 1.313.693 0 1.191-.206 1.641-.632l1.009 1.094c-.608.693-1.52 1.058-2.698 1.058-2.261 0-3.732-1.422-3.732-3.367 0-1.957 1.495-3.367 3.488-3.367 1.921 0 3.404 1.288 3.404 3.391m-3.391-1.957c-.863 0-1.483.523-1.617 1.361h3.221c-.134-.826-.754-1.36-1.604-1.36"/><path d="M35.784 52.254c1.836 0 3.258 1.313 3.258 3.367s-1.422 3.367-3.258 3.367c-.875 0-1.58-.28-2.054-.851v.754h-1.81v-9.02h1.895v3.173c.486-.535 1.155-.79 1.97-.79m-.328 5.178c.948 0 1.665-.68 1.665-1.811s-.717-1.811-1.665-1.811-1.665.68-1.665 1.81c0 1.131.717 1.812 1.665 1.812"/><path d="M28.255 52.351h1.897v5.446c0 2.43-1.277 3.549-3.562 3.549-1.203 0-2.37-.304-3.111-.9l.753-1.36c.535.449 1.386.728 2.212.728 1.265 0 1.811-.595 1.811-1.774v-.219c-.498.498-1.179.754-1.932.754-1.641 0-2.796-.912-2.796-2.942v-3.282h1.896v3.002c0 1.107.487 1.593 1.325 1.593.875 0 1.507-.56 1.507-1.763z"/><path d="M18.972 59.036c-2.637 0-4.606-1.835-4.606-4.4s1.969-4.4 4.619-4.4c1.47 0 2.698.535 3.5 1.507l-1.264 1.167c-.571-.656-1.288-.996-2.14-.996-1.592 0-2.722 1.118-2.722 2.722 0 1.605 1.13 2.723 2.723 2.723.85 0 1.568-.34 2.139-1.009l1.264 1.167c-.802.984-2.03 1.52-3.513 1.52"/><path d="M158.234 37.591h1.678l-2.37 6.54h-1.824l-1.47-4.06-1.52 4.06h-1.823l-2.358-6.54h1.787l1.543 4.425 1.605-4.425h1.604l1.556 4.425z"/><path d="m143.604 36.753 1.641-1.75h2.042l-2.2 1.75zm1.131 7.475c-2.079 0-3.598-1.398-3.598-3.367s1.519-3.367 3.598-3.367 3.585 1.398 3.585 3.367-1.507 3.367-3.585 3.367m0-1.556c.948 0 1.665-.68 1.665-1.811s-.717-1.811-1.665-1.811-1.678.68-1.678 1.811.73 1.811 1.678 1.811"/><path d="m140.255 42.478.499 1.337c-.389.28-.96.413-1.532.413-1.556 0-2.443-.79-2.443-2.346v-5.737h1.896v1.446h1.617v1.447h-1.617v2.82c0 .559.292.863.803.863.279 0 .559-.085.777-.243"/><path d="M132.558 44.228c-1.106 0-2.224-.304-2.832-.705l.632-1.361c.584.377 1.471.632 2.273.632.875 0 1.204-.231 1.204-.596 0-1.07-3.951.024-3.951-2.589 0-1.24 1.118-2.115 3.027-2.115.899 0 1.896.207 2.516.571l-.632 1.35a3.76 3.76 0 0 0-1.884-.487c-.851 0-1.216.268-1.216.608 0 1.118 3.951.037 3.951 2.614 0 1.215-1.131 2.078-3.088 2.078"/><path d="M127.65 36.68c-.705 0-1.179-.462-1.179-1.058 0-.595.474-1.057 1.179-1.057s1.179.437 1.179 1.02c0 .633-.474 1.095-1.179 1.095m-.948 7.45v-6.539h1.896v6.54z"/><path d="M123.046 44.13v-9.018h1.896v9.019z"/><path d="M119.442 37.591h1.896v6.54h-1.811v-.754c-.474.572-1.167.851-2.042.851-1.848 0-3.27-1.313-3.27-3.367s1.422-3.367 3.27-3.367c.802 0 1.483.255 1.957.79zm-1.629 5.081c.936 0 1.665-.68 1.665-1.81 0-1.131-.729-1.812-1.665-1.812-.948 0-1.677.68-1.677 1.811s.729 1.811 1.677 1.811"/><path d="M112.044 36.68c-.705 0-1.179-.462-1.179-1.058 0-.595.474-1.057 1.179-1.057s1.179.437 1.179 1.02c0 .633-.474 1.095-1.179 1.095m-1.301 9.906c-.522 0-.984-.11-1.361-.364l.51-1.374c.195.146.389.23.645.23.328 0 .559-.23.559-.704V37.59h1.896v6.673c0 1.435-.814 2.322-2.249 2.322"/><path d="M106.953 44.228c-2.127 0-3.646-1.398-3.646-3.367s1.519-3.367 3.646-3.367c1.374 0 2.455.596 2.929 1.665l-1.47.79c-.353-.62-.875-.899-1.471-.899-.96 0-1.714.669-1.714 1.811 0 1.143.754 1.811 1.714 1.811.596 0 1.118-.267 1.471-.9l1.47.803c-.474 1.045-1.555 1.653-2.929 1.653"/><path d="M102.53 40.885c0 .146-.024.353-.036.51h-4.947c.182.815.875 1.314 1.872 1.314.693 0 1.191-.207 1.641-.632l1.009 1.093c-.608.693-1.52 1.058-2.699 1.058-2.26 0-3.732-1.422-3.732-3.367 0-1.957 1.496-3.367 3.49-3.367 1.92 0 3.402 1.289 3.402 3.391m-3.39-1.957c-.864 0-1.484.523-1.617 1.362h3.221c-.134-.827-.754-1.362-1.605-1.362"/><path d="M91.602 37.494c1.835 0 3.257 1.313 3.257 3.367s-1.422 3.367-3.257 3.367c-.815 0-1.483-.255-1.97-.79v3.05h-1.896V39.05h-.729v-1.459h2.249l.121.985c.474-.73 1.24-1.082 2.225-1.082m-.329 5.178c.949 0 1.666-.68 1.666-1.81 0-1.131-.717-1.812-1.666-1.812-.948 0-1.665.68-1.665 1.811s.717 1.811 1.665 1.811"/><path d="M83.32 44.228c-1.105 0-2.223-.304-2.831-.705l.632-1.361c.583.377 1.47.632 2.273.632.875 0 1.203-.231 1.203-.596 0-1.07-3.95.024-3.95-2.589 0-1.24 1.118-2.115 3.026-2.115.9 0 1.897.207 2.516.571l-.632 1.35a3.76 3.76 0 0 0-1.884-.487c-.85 0-1.215.268-1.215.608 0 1.118 3.95.037 3.95 2.614 0 1.215-1.13 2.078-3.087 2.078"/><path d="m75.983 45.808.267.863c-.292.158-.766.28-1.228.28-1.057 0-1.677-.547-1.677-1.362 0-.534.28-1.033.887-1.458h-.073v-.754c-.474.572-1.166.851-2.042.851-1.847 0-3.27-1.313-3.27-3.367s1.423-3.367 3.27-3.367c.802 0 1.483.255 1.957.79v-.693h1.896v6.54c-1.045.462-1.422.85-1.422 1.3 0 .34.268.56.693.56.268 0 .547-.073.742-.183m-3.538-3.136c.936 0 1.666-.68 1.666-1.81 0-1.131-.73-1.812-1.666-1.812-.948 0-1.677.68-1.677 1.811s.73 1.811 1.677 1.811"/><path d="M65.396 44.228c-2.127 0-3.647-1.398-3.647-3.367s1.52-3.367 3.647-3.367c1.373 0 2.455.596 2.93 1.665l-1.472.79c-.352-.62-.875-.899-1.47-.899-.96 0-1.714.669-1.714 1.811 0 1.143.753 1.811 1.714 1.811.595 0 1.118-.267 1.47-.9l1.471.803c-.474 1.045-1.556 1.653-2.93 1.653"/><path d="M57.382 44.228c-2.078 0-3.598-1.398-3.598-3.367s1.52-3.367 3.598-3.367c2.079 0 3.586 1.398 3.586 3.367s-1.507 3.367-3.586 3.367m0-1.556c.948 0 1.666-.68 1.666-1.81 0-1.131-.718-1.812-1.666-1.812s-1.677.68-1.677 1.811.73 1.811 1.677 1.811"/><path d="M49.853 37.494c1.556 0 2.674.9 2.674 2.893v3.744h-1.896v-3.452c0-1.058-.474-1.544-1.24-1.544-.85 0-1.446.547-1.446 1.714v3.282h-1.897v-3.452c0-1.058-.45-1.544-1.24-1.544-.838 0-1.434.547-1.434 1.714v3.282h-1.896V39.05h-.73v-1.459h2.25l.097 1.01c.474-.718 1.288-1.107 2.249-1.107.911 0 1.69.353 2.15 1.07.524-.669 1.374-1.07 2.359-1.07"/><path d="M36.467 44.228c-2.078 0-3.598-1.398-3.598-3.367s1.52-3.367 3.598-3.367 3.586 1.398 3.586 3.367-1.508 3.367-3.586 3.367m0-1.556c.948 0 1.665-.68 1.665-1.81 0-1.131-.717-1.812-1.665-1.812s-1.677.68-1.677 1.811.729 1.811 1.677 1.811"/><path d="M28.832 37.494c1.835 0 3.258 1.313 3.258 3.367s-1.423 3.367-3.258 3.367c-.814 0-1.483-.255-1.969-.79v3.05h-1.896V39.05h-.73v-1.459h2.25l.12.985c.475-.73 1.24-1.082 2.225-1.082m-.328 5.178c.948 0 1.665-.68 1.665-1.81 0-1.131-.717-1.812-1.665-1.812s-1.665.68-1.665 1.811.717 1.811 1.665 1.811"/><path d="M16.711 42.672h3.44v1.459h-5.834v-1.143l3.33-3.938h-3.245v-1.459h5.64v1.143z"/><path d="M187.874 22.978h.863v5.615c0 2.2-1.009 3.197-2.978 3.197-1.094 0-2.176-.353-2.796-.985l.438-.656c.547.547 1.385.875 2.309.875 1.483 0 2.164-.741 2.164-2.321v-.742c-.45.742-1.264 1.167-2.261 1.167-1.641 0-2.699-.912-2.699-2.747v-3.404h.864v3.319c0 1.361.704 2.054 1.92 2.054 1.337 0 2.176-.863 2.176-2.322z"/><path d="m181.071 28.362.304.62c-.329.304-.839.45-1.338.45-1.203 0-1.871-.68-1.871-1.86V21.58h.863v1.398h1.932v.729h-1.932v3.816c0 .754.376 1.167 1.094 1.167.364 0 .705-.109.948-.328"/><path d="M174.366 24.339c.377-.912 1.252-1.41 2.48-1.41v.875c-.073 0-.146-.012-.207-.012-1.337 0-2.151.814-2.151 2.321v3.258h-.863v-5.664h-.899v-.73h1.58z"/><path d="M171.686 26.174c0 .073-.012.17-.012.268h-5.348c.097 1.337 1.118 2.224 2.516 2.224.778 0 1.471-.28 1.957-.839l.486.56c-.571.68-1.459 1.045-2.467 1.045-1.994 0-3.355-1.362-3.355-3.258s1.325-3.245 3.124-3.245 3.099 1.325 3.099 3.245m-3.099-2.504c-1.24 0-2.152.875-2.261 2.127h4.534c-.11-1.251-1.021-2.127-2.273-2.127"/><path d="M164.21 21.02c-.742 0-1.131.414-1.131 1.204v.753h1.97v.73h-1.945v5.664h-.863v-5.664h-1.143v-.73h1.143v-.79c0-1.142.68-1.896 1.932-1.896.474 0 .961.134 1.277.401l-.292.645c-.243-.207-.584-.316-.948-.316"/><path d="M157.088 29.432c-1.872 0-3.258-1.362-3.258-3.258s1.386-3.245 3.258-3.245c1.871 0 3.245 1.349 3.245 3.245s-1.374 3.258-3.245 3.258m0-.766c1.361 0 2.37-.997 2.37-2.492s-1.009-2.492-2.37-2.492-2.383.997-2.383 2.492 1.021 2.492 2.383 2.492"/><path d="M149.536 26.174c0 .073-.012.17-.012.268h-5.348c.097 1.337 1.118 2.224 2.516 2.224.778 0 1.471-.28 1.957-.839l.486.56c-.571.68-1.458 1.045-2.467 1.045-1.994 0-3.355-1.362-3.355-3.258s1.325-3.245 3.124-3.245 3.099 1.325 3.099 3.245m-3.099-2.504c-1.24 0-2.152.875-2.261 2.127h4.534c-.11-1.251-1.021-2.127-2.273-2.127"/><path d="M138.981 22.929c1.556 0 2.626.9 2.626 2.735v3.707h-.863v-3.622c0-1.35-.705-2.042-1.921-2.042-1.373 0-2.236.85-2.236 2.31v3.354h-.863v-5.664h-.9v-.73h1.58l.061 1.337c.426-.875 1.325-1.385 2.516-1.385"/><path d="M132.334 22.978h.863v6.393h-.826v-1.264c-.523.863-1.41 1.325-2.468 1.325-1.823 0-3.184-1.325-3.184-3.258 0-1.932 1.361-3.245 3.184-3.245 1.021 0 1.896.437 2.431 1.264zm-2.358 5.688c1.349 0 2.37-.997 2.37-2.492s-1.021-2.492-2.37-2.492c-1.361 0-2.382.997-2.382 2.492s1.021 2.492 2.382 2.492"/><path d="M121.675 28.654h4.096v.717h-5.202V28.8l4.023-5.093h-3.95v-.73h5.056v.572z"/><path d="M117.307 24.339c.376-.912 1.252-1.41 2.479-1.41v.875c-.073 0-.146-.012-.206-.012-1.337 0-2.152.814-2.152 2.321v3.258h-.863v-5.664h-.899v-.73h1.58z"/><path d="M113.607 21.58a.626.626 0 0 1-.633-.62c0-.328.28-.608.633-.608.352 0 .632.268.632.596a.62.62 0 0 1-.632.632m-1.228 10.21c-.474 0-.851-.134-1.167-.413l.304-.657c.243.22.462.329.802.329.498 0 .863-.34.863-1.07v-7.001h.863v7.013c0 1.106-.656 1.8-1.665 1.8"/><path d="M111.291 26.174c0 .073-.012.17-.012.268h-5.349c.098 1.337 1.119 2.224 2.516 2.224.778 0 1.471-.28 1.957-.839l.487.56c-.572.68-1.459 1.045-2.468 1.045-1.993 0-3.355-1.362-3.355-3.258s1.325-3.245 3.124-3.245 3.1 1.325 3.1 3.245m-3.1-2.504c-1.24 0-2.151.875-2.261 2.127h4.534c-.109-1.251-1.021-2.127-2.273-2.127"/><path d="M102.445 20.352h.863v9.02h-.826v-1.265c-.523.863-1.41 1.325-2.468 1.325-1.823 0-3.184-1.325-3.184-3.258 0-1.932 1.36-3.245 3.184-3.245 1.021 0 1.896.438 2.431 1.264zm-2.358 8.314c1.349 0 2.37-.997 2.37-2.492s-1.021-2.491-2.37-2.491c-1.361 0-2.382.996-2.382 2.491s1.02 2.492 2.382 2.492"/><path d="M92.466 29.432c-1.871 0-3.257-1.362-3.257-3.258s1.385-3.245 3.257-3.245 3.246 1.349 3.246 3.245-1.374 3.258-3.246 3.258m0-.766c1.362 0 2.37-.997 2.37-2.492s-1.008-2.492-2.37-2.492c-1.36 0-2.382.997-2.382 2.492s1.021 2.492 2.382 2.492"/><path d="M84.902 22.929c1.823 0 3.184 1.313 3.184 3.245 0 1.945-1.361 3.258-3.184 3.258-1.021 0-1.897-.438-2.431-1.264v3.561h-.863v-8.022h-.9v-.73h1.58l.049 1.435c.51-.96 1.446-1.483 2.565-1.483m-.061 5.737c1.35 0 2.382-.997 2.382-2.492 0-1.483-1.033-2.492-2.382-2.492-1.361 0-2.382 1.01-2.382 2.492 0 1.495 1.02 2.492 2.382 2.492"/><path d="M75.468 21.58a.625.625 0 0 1-.632-.62c0-.328.28-.608.632-.608s.632.268.632.596a.62.62 0 0 1-.632.632M74.24 31.79c-.474 0-.85-.134-1.167-.413l.304-.657c.243.22.462.329.802.329.499 0 .863-.34.863-1.07v-7.001h.863v7.013c0 1.106-.656 1.8-1.665 1.8"/><path d="M71.701 22.978h.864v6.393h-.827v-1.264c-.523.863-1.41 1.325-2.468 1.325-1.823 0-3.184-1.325-3.184-3.258 0-1.932 1.361-3.245 3.184-3.245 1.022 0 1.897.437 2.431 1.264zm-2.358 5.688c1.35 0 2.37-.997 2.37-2.492s-1.02-2.492-2.37-2.492c-1.361 0-2.382.997-2.382 2.492s1.021 2.492 2.382 2.492"/><path d="M61.042 28.654h4.096v.717h-5.202V28.8l4.023-5.093h-3.95v-.73h5.056v.572z"/><path d="M57.362 20.352h.863v9.02H57.4v-1.265c-.523.863-1.41 1.325-2.468 1.325-1.823 0-3.184-1.325-3.184-3.258 0-1.932 1.361-3.245 3.184-3.245 1.021 0 1.897.438 2.431 1.264zm-2.358 8.314c1.35 0 2.37-.997 2.37-2.492s-1.02-2.491-2.37-2.491c-1.361 0-2.382.996-2.382 2.491s1.02 2.492 2.382 2.492"/><path d="M50.966 22.978h.79l-2.419 6.393h-.814l-2.018-5.239-2.018 5.24h-.814l-2.407-6.395h.827l2.005 5.434 2.055-5.434h.741l2.042 5.434z"/><path d="M39.165 22.978h.863v6.393h-.826v-1.264c-.523.863-1.41 1.325-2.468 1.325-1.823 0-3.184-1.325-3.184-3.258 0-1.932 1.361-3.245 3.184-3.245 1.021 0 1.896.437 2.431 1.264zm-2.358 5.688c1.35 0 2.37-.997 2.37-2.492s-1.02-2.492-2.37-2.492c-1.361 0-2.382.997-2.382 2.492s1.02 2.492 2.382 2.492"/><path d="M30.393 24.339c.377-.912 1.252-1.41 2.48-1.41v.875c-.073 0-.146-.012-.207-.012-1.337 0-2.151.814-2.151 2.321v3.258h-.863v-5.664h-.9v-.73h1.58z"/><path d="M24.518 22.929c1.823 0 3.185 1.313 3.185 3.245 0 1.945-1.361 3.258-3.185 3.258-1.02 0-1.896-.438-2.43-1.264v3.561h-.864v-8.022h-.9v-.73h1.58l.05 1.435c.51-.96 1.446-1.483 2.564-1.483m-.06 5.737c1.349 0 2.382-.997 2.382-2.492 0-1.483-1.033-2.492-2.383-2.492-1.36 0-2.382 1.01-2.382 2.492 0 1.495 1.021 2.492 2.382 2.492"/><path d="M16.809 29.432c-1.058 0-2.079-.34-2.602-.79l.39-.681c.51.401 1.373.717 2.272.717 1.216 0 1.714-.413 1.714-1.045 0-1.665-4.144-.353-4.144-2.88 0-1.046.899-1.824 2.528-1.824.826 0 1.726.23 2.26.595l-.376.693c-.56-.389-1.228-.547-1.884-.547-1.155 0-1.665.45-1.665 1.058 0 1.726 4.144.425 4.144 2.88 0 1.107-.972 1.824-2.637 1.824"/></g><defs><clipPath id="a"><rect width="86.822" height="5.209" fill="#fff" transform="translate(120.682 118.797)"/></clipPath><clipPath id="b"><rect width="197.953" height="5.209" fill="#fff" transform="translate(9.55 .72)"/></clipPath><clipPath id="c"><rect width="62.57" height="23.776" fill="#fff" transform="translate(13.537 74.232)"/></clipPath></defs></svg>