<svg xmlns="http://www.w3.org/2000/svg" fill="none" viewBox="0 0 150 77"><path fill="#fff" d="M10.944 43.104h8.96v-14.4h-.064zM33.6 51.168h-3.328v6.72c0 .96-.192 1.536-.448 1.792-.32.256-.96.32-1.856.32h-5.632c-1.024 0-1.664-.064-1.984-.32s-.448-.832-.448-1.792v-6.72H3.584q-1.344 0-1.728-.384t-.384-1.728V47.52c0-1.28.064-2.24.256-2.88.128-.576.576-1.408 1.216-2.432L16.32 20.64c.512-.832.96-1.408 1.472-1.664q.768-.384 2.112-.384h7.744c1.024 0 1.728.192 2.112.512.32.384.512 1.088.512 2.176v21.824H33.6c.768 0 1.216.128 1.472.32.192.256.32.704.32 1.408v4.608c0 .768-.128 1.216-.32 1.408-.256.256-.704.32-1.472.32m10.821-1.728h.896c1.92 0 3.264.512 4.096 1.408.832.96 1.28 2.368 1.28 4.288v.832c0 1.984-.64 4.416-1.792 7.36a28 28 0 0 1-5.056 8.064c-.384.512-.832.704-1.28.704-.256 0-.64-.064-1.024-.32l-3.2-1.92c-.768-.384-.832-1.024-.192-1.856.576-.768 1.408-1.984 2.56-3.712.768-1.152 1.152-1.984 1.152-2.624 0-.32-.192-.576-.512-.832l-.64-.448c-1.088-.768-1.6-2.112-1.6-4.032V54.56c0-3.392 1.728-5.12 5.312-5.12m37.251-22.336H68.744c-.64 0-.896.32-.896.832l-.192 5.952q2.88-.96 6.336-.96h.64c4.096 0 7.104.96 9.024 2.816 2.048 2.048 3.136 5.44 3.136 10.176v.896c0 4.864-1.408 8.384-4.096 10.624-2.56 2.112-6.528 3.136-11.904 3.136h-.64q-6.24 0-12.672-2.304c-.896-.256-1.28-.768-1.28-1.472 0-.256.064-.832.32-1.728l.896-3.264c.256-.896.576-1.472 1.024-1.728.384-.192.896-.128 1.536.128 3.584 1.344 6.848 1.984 9.792 1.984h.64c1.856 0 3.328-.384 4.48-1.152q1.536-.96 1.536-4.224v-.448c0-1.92-.448-3.328-1.344-4.096-.832-.704-2.048-1.088-3.648-1.088h-.384q-3.36 0-7.488 1.536c-.64.256-1.088.32-1.28.32-.384 0-.896-.192-1.472-.576L58.76 41.12c-.64-.448-.96-1.024-.96-1.664 0-.384 0-1.216.128-2.56l.832-16.384c0-1.28.768-1.92 2.176-1.92H81.8c.768 0 1.344.128 1.6.384s.448.704.448 1.472v4.928c0 .704-.192 1.152-.448 1.408-.32.256-.896.32-1.728.32m32.325 2.368v.64c0 4.224-1.088 7.232-3.136 9.152-1.92 1.536-4.416 2.304-7.36 2.304-3.328 0-5.824-.832-7.552-2.496-1.92-1.792-2.88-4.608-2.88-8.32v-1.92c0-3.712.96-6.464 2.88-8.32 1.728-1.664 4.224-2.496 7.552-2.496 2.944 0 5.44.768 7.36 2.304 2.048 1.92 3.136 4.992 3.136 9.152m-10.88 28.8 23.616-38.912c.32-.512.704-.896 1.088-1.088.384-.128.96-.256 1.792-.256h4.672c1.984 0 2.56.768 1.664 2.304l-23.616 38.912c-.384.576-.704.96-1.088 1.088-.384.192-1.024.256-1.792.256h-4.672c-2.048 0-2.56-.768-1.664-2.304m-1.408-30.208v3.456c0 1.344.128 2.24.448 2.688.256.448.704.64 1.28.64h.128c.512 0 .96-.192 1.28-.64.256-.448.448-1.344.448-2.688v-3.456c0-1.28-.192-2.176-.448-2.624-.32-.448-.768-.704-1.28-.704h-.128c-.576 0-1.024.256-1.28.704-.32.448-.448 1.344-.448 2.624m44.928 20.416v.64c0 4.224-1.088 7.232-3.136 9.152-1.92 1.536-4.416 2.304-7.36 2.304-3.328 0-5.824-.832-7.552-2.496-1.92-1.792-2.88-4.544-2.88-8.32v-1.92c0-3.712.96-6.528 2.88-8.32 1.728-1.664 4.224-2.496 7.552-2.496 2.944 0 5.44.768 7.36 2.304 2.048 1.92 3.136 4.992 3.136 9.152m-12.288-1.408v3.456c0 1.344.128 2.24.448 2.688.256.448.704.64 1.28.64h.128c.512 0 .96-.192 1.28-.64.256-.448.448-1.344.448-2.688v-3.456c0-1.28-.192-2.176-.448-2.624-.32-.448-.768-.704-1.28-.704h-.128c-.576 0-1.024.256-1.28.704-.32.448-.448 1.344-.448 2.624"/></svg>