<svg xmlns="http://www.w3.org/2000/svg" fill="none" viewBox="0 0 346 29"><path fill="#007990" d="M7.069 10.6h-.31c-.333 0-.666.024-1.047.048-.143.024-.19.119-.19.285v3.76h1.237c.857 0 1.428-.118 1.761-.404.286-.238.429-.69.429-1.404v-.595c0-.571-.143-1-.405-1.261-.285-.286-.785-.429-1.475-.429m-1.547 7.354v4.308c0 .5-.286.738-.833.738H2.356c-.31 0-.523-.048-.642-.167-.143-.095-.19-.285-.19-.57V8.576q0-.57.213-.785c.143-.143.405-.238.833-.286.857-.071 2.19-.119 4.023-.119h.285c2.428 0 4.094.476 5.022 1.404.714.762 1.071 1.904 1.071 3.451v.81c0 1.785-.5 3.046-1.5 3.76-1.047.762-2.641 1.142-4.807 1.142zm12.321-1.713v1.856c0 .928.143 1.523.428 1.809.215.238.548.333 1 .333h.095c.429 0 .762-.095 1-.333.285-.286.428-.88.428-1.809v-1.856c0-.905-.143-1.523-.428-1.809-.238-.214-.571-.333-1-.333h-.095c-.452 0-.785.119-1 .333-.285.286-.428.904-.428 1.809m6.783.143v1.547c0 1.19-.119 2.094-.357 2.76a3.4 3.4 0 0 1-1.142 1.595c-.786.619-2 .928-3.665.928h-.286c-1.666 0-2.904-.31-3.665-.928a3.4 3.4 0 0 1-1.143-1.595c-.238-.666-.357-1.57-.357-2.76v-1.524c0-1.166.12-2.07.357-2.737a3.6 3.6 0 0 1 1.143-1.618c.761-.619 1.999-.928 3.665-.928h.286c1.666 0 2.88.31 3.665.928a3.66 3.66 0 0 1 1.142 1.595c.238.666.357 1.57.357 2.737m5.846-.643v3.046c0 .548.095.929.333 1.143.19.214.548.31 1.071.31h.214c.548 0 .929-.144 1.167-.477q.285-.428.285-2.07v-1.024c0-1.19-.119-1.928-.31-2.166-.213-.238-.618-.38-1.19-.38h-.094c-.548 0-.929.119-1.167.357-.214.214-.309.642-.309 1.261m0-3.975h.048q1.035-.642 2.713-.642h.214c1.428 0 2.475.428 3.118 1.285.523.738.809 2.047.809 3.927v1.714c0 1.904-.405 3.236-1.214 3.974-.857.81-2.213 1.19-4.07 1.19h-.476c-1.951 0-3.284-.38-3.998-1.166-.643-.69-.952-1.809-.952-3.38V7.578c0-.238.048-.405.167-.524.095-.095.309-.167.618-.167h2.214c.285 0 .5.072.619.167.119.119.19.286.19.524zm12.808.262V22.31c0 .238-.072.428-.19.523-.12.12-.334.167-.62.167h-2.19c-.309 0-.523-.048-.642-.167-.119-.095-.166-.285-.166-.523V12.028c0-.238.047-.404.166-.523.12-.096.333-.167.643-.167h2.19c.285 0 .5.071.618.167.12.119.19.285.19.523m-1.762-1.594h-.285c-1.285 0-1.928-.643-1.928-1.976V8.34c0-1.309.643-1.975 1.928-1.975h.285c1.286 0 1.928.666 1.928 1.975v.12c0 1.332-.642 1.975-1.928 1.975m9.892 9.71h.262c.81 0 1.666-.095 2.523-.31.238-.047.38-.07.452-.07.238 0 .38.142.428.404l.19 1.19c.048.333.096.547.096.642 0 .286-.214.5-.619.643-1.095.38-2.308.571-3.594.571h-.452q-2.927 0-4.141-1.214c-.476-.452-.785-1-.952-1.618s-.238-1.452-.238-2.475v-1.333c0-2.07.476-3.522 1.428-4.38.81-.713 2.047-1.07 3.737-1.07h.333c1.666 0 2.88.404 3.594 1.19.761.857 1.142 2.26 1.142 4.26v1.238c0 .452-.238.666-.69.666h-5.712v.19c0 .572.143.952.476 1.167.31.214.88.309 1.737.309m-2.213-4.141h2.618c.19 0 .285-.095.285-.31v-.38c0-.476-.095-.833-.238-1.095-.19-.286-.57-.429-1.094-.429h-.215c-.476 0-.809.12-1 .334q-.356.428-.356 1.285zm11.424-3.38h.072c.523-.857 1.404-1.285 2.665-1.285h.952c.238 0 .429.048.524.143s.167.262.167.523v1.738c0 .262-.048.428-.143.523q-.143.143-.5.143h-.714c-.88 0-1.476.167-1.809.5-.285.286-.404.833-.404 1.642v5.76c0 .238-.072.428-.19.523-.12.12-.334.167-.62.167h-2.19c-.309 0-.523-.048-.642-.167-.119-.095-.166-.285-.166-.523V12.004c0-.238.047-.404.166-.5s.333-.166.643-.166h1.142c.262 0 .452.048.571.119a.97.97 0 0 1 .286.428zm9.666 1.738h-3.784c-.238 0-.404-.024-.5-.12-.095-.095-.118-.285-.118-.57v-1.643c0-.285.023-.452.118-.547q.144-.143.5-.143h8.045c.238 0 .404.048.523.143.096.095.167.285.167.547v.452c0 .62-.19 1.19-.524 1.69l-4.093 5.807h4.07c.237 0 .38.048.475.143.096.095.143.262.143.548v1.642q0 .428-.142.571c-.096.095-.239.119-.477.119h-8.187c-.5 0-.737-.214-.737-.69v-.548c0-.618.166-1.166.523-1.69zm18.665 7.663h-.048c-.524.81-1.57 1.19-3.118 1.19h-.357c-1.214 0-2.166-.31-2.832-.928-.69-.619-1.023-1.547-1.023-2.737v-.262c0-1.285.357-2.213 1.094-2.737.738-.523 1.928-.785 3.594-.785h.167c.619 0 1.19.047 1.666.095v-.5c0-.5-.143-.857-.405-1.047-.285-.167-.761-.262-1.428-.262-.809 0-1.713.143-2.76.405-.286.071-.5.071-.596 0-.119-.072-.19-.214-.214-.452l-.19-1.262c-.048-.214-.048-.38-.048-.476 0-.285.19-.5.571-.619a15.3 15.3 0 0 1 4.07-.523c1.833 0 3.142.404 3.903 1.166.595.619.905 1.618.905 2.975v7.069c0 .238-.072.428-.19.523-.12.095-.334.143-.62.143h-1.118c-.286 0-.476-.024-.595-.095s-.214-.214-.286-.452zm-.857-3.046v-.667q-.393-.07-1.143-.071h-.261q-.858 0-1.214.214c-.238.143-.333.429-.333.857v.095c0 .429.095.714.333.857.214.167.547.238 1 .238h.166c.476 0 .833-.119 1.119-.357.214-.19.333-.595.333-1.166m8.992-6.617c.833-.809 2.023-1.237 3.546-1.237h.214c1.476 0 2.523.428 3.166 1.237.571.762.856 2.047.856 3.904v1.785c0 1-.095 1.832-.238 2.451-.166.619-.452 1.142-.856 1.547-.81.785-1.904 1.166-3.332 1.166h-.262q-1.357 0-2.214-.5v3.666c0 .357-.071.595-.19.69-.143.095-.405.143-.81.143H95.16c-.405 0-.666-.048-.81-.167-.142-.095-.19-.333-.19-.666V12.1c0-.286.048-.476.19-.595.12-.096.334-.167.643-.167h1c.285 0 .5.048.619.095.095.072.19.214.261.405l.167.523zm.88 3.38v3.046c0 .548.096.929.334 1.143.214.214.57.31 1.07.31h.215c.547 0 .928-.144 1.166-.477q.285-.428.286-2.07v-1.024c0-1.142-.096-1.856-.286-2.118-.238-.286-.619-.428-1.19-.428h-.167c-.523 0-.88.119-1.118.357-.215.214-.31.642-.31 1.261m13.212 4.165h.762c.238 0 .428.071.524.167.095.119.166.333.166.642v1.476c0 .333-.071.547-.166.642-.096.12-.286.167-.524.167h-1.809c-1.19 0-2.023-.214-2.499-.69-.476-.452-.714-1.262-.714-2.404V7.578c0-.238.048-.405.167-.524.119-.095.333-.167.642-.167h2.19c.286 0 .5.072.619.167.119.119.19.286.19.524v11.876c0 .19.024.31.095.357.048.071.167.095.357.095m6.871-7.878V22.31c0 .238-.072.428-.191.523-.119.12-.333.167-.619.167h-2.189c-.31 0-.524-.048-.643-.167-.119-.095-.166-.285-.166-.523V12.028c0-.238.047-.404.166-.523.119-.096.333-.167.643-.167h2.189c.286 0 .5.071.619.167.119.119.191.285.191.523m-1.762-1.594h-.285c-1.285 0-1.928-.643-1.928-1.976V8.34c0-1.309.643-1.975 1.928-1.975h.285c1.286 0 1.928.666 1.928 1.975v.12c0 1.332-.642 1.975-1.928 1.975m8.036 7.949v3.927c0 .238-.071.428-.19.523-.119.12-.334.167-.619.167h-2.19c-.309 0-.523-.048-.642-.167-.119-.095-.167-.285-.167-.523V7.578c0-.238.048-.405.167-.524.119-.095.333-.167.642-.167h2.19c.285 0 .5.072.619.167.119.119.19.286.19.524v7.758h.167l2.261-3.45c.214-.358.547-.548.999-.548h2.761c.262 0 .405.095.405.286 0 .095-.072.261-.191.452l-2.737 4.093c-.214.334-.309.572-.309.714 0 .167.095.405.309.714l2.928 4.618c.095.19.142.309.142.404 0 .262-.166.381-.499.381h-2.642c-.333 0-.595-.024-.738-.119q-.215-.107-.428-.5l-2.261-3.998zm14.831 3.641h-.048c-.524.81-1.571 1.19-3.118 1.19h-.357c-1.214 0-2.166-.31-2.832-.928-.69-.619-1.023-1.547-1.023-2.737v-.262c0-1.285.357-2.213 1.094-2.737.738-.523 1.928-.785 3.594-.785h.167c.619 0 1.19.047 1.666.095v-.5c0-.5-.143-.857-.405-1.047-.285-.167-.761-.262-1.428-.262-.809 0-1.713.143-2.761.405-.285.071-.499.071-.595 0-.119-.072-.19-.214-.214-.452l-.19-1.262c-.048-.214-.048-.38-.048-.476 0-.285.191-.5.571-.619a15.3 15.3 0 0 1 4.07-.523c1.833 0 3.142.404 3.903 1.166.595.619.905 1.618.905 2.975v7.069c0 .238-.072.428-.191.523s-.333.143-.618.143h-1.119c-.286 0-.476-.024-.595-.095s-.214-.214-.286-.452zm-.857-3.046v-.667q-.393-.07-1.143-.071h-.261q-.858 0-1.214.214c-.238.143-.333.429-.333.857v.095c0 .429.095.714.333.857.214.167.547.238.999.238h.167c.476 0 .833-.119 1.119-.357.214-.19.333-.595.333-1.166m11.538 1.166h.191c.642 0 1.333-.095 2.07-.31.238-.047.381-.07.453-.07.238 0 .38.142.428.404l.214 1.214c.048.333.095.547.095.642 0 .286-.214.5-.618.643-1.048.38-2.19.547-3.428.547h-.285c-1.714 0-2.975-.38-3.761-1.19q-1.213-1.214-1.213-4.07v-1.38c0-1.119.095-2 .285-2.618q.286-.928.928-1.57c.833-.834 2.142-1.262 3.927-1.262h.238c1.428 0 2.666.262 3.666.785.285.167.452.357.452.595 0 .143-.072.381-.191.714l-.452 1.143q-.178.428-.5.428a1 1 0 0 1-.428-.119c-.762-.31-1.476-.476-2.118-.476h-.095c-.619 0-1.071.167-1.357.452-.357.357-.524 1.095-.524 2.19v.809c0 .976.143 1.642.476 2 .31.332.833.499 1.547.499m4.906 7.092h-1.381c-.238 0-.428-.047-.523-.166-.096-.095-.143-.31-.143-.595v-1.666c0-.238.047-.429.143-.524s.285-.166.523-.166h.595c.429 0 .762-.096.976-.334.19-.19.286-.69.286-1.475V12.028c0-.238.047-.404.166-.523.119-.096.333-.167.643-.167h2.189c.286 0 .5.071.619.167.119.119.191.285.191.523v10.544c0 1.713-.31 2.903-.929 3.593q-.963 1.071-3.355 1.071m2.522-16.802h-.285c-1.285 0-1.928-.643-1.928-1.976V8.34c0-1.309.643-1.975 1.928-1.975h.285c1.286 0 1.928.666 1.928 1.975v.12c0 1.332-.642 1.975-1.928 1.975m9.892 9.71h.262c.809 0 1.666-.095 2.523-.31.238-.047.381-.07.452-.07.238 0 .381.142.429.404l.19 1.19c.048.333.095.547.095.642 0 .286-.214.5-.619.643a3.46 3.46 0 0 0-1.523 1.142c-.404.524-.595 1.048-.595 1.524v.071c0 .452.214.666.643.666h.119c.262 0 .595-.047.976-.19.119-.024.214-.048.285-.048.119 0 .214.12.286.31l.119.5c.071.333.119.5.119.547 0 .143-.119.262-.333.357a5.3 5.3 0 0 1-1.928.357h-.143c-.833 0-1.452-.167-1.88-.524-.429-.357-.643-.856-.643-1.523v-.071c0-.429.143-.905.452-1.38.31-.477.714-.857 1.238-1.19-.19.023-.452.023-.785.023h-.453q-2.927 0-4.141-1.214c-.476-.452-.785-1-.952-1.618s-.238-1.452-.238-2.475v-1.333c0-2.07.476-3.522 1.428-4.38.809-.713 2.047-1.07 3.737-1.07h.333c1.666 0 2.88.404 3.594 1.19.761.857 1.142 2.26 1.142 4.26v1.238c0 .452-.238.666-.69.666h-5.712v.19c0 .572.143.952.476 1.167.309.214.881.309 1.737.309m-2.213-4.141h2.618c.19 0 .286-.095.286-.31v-.38c0-.476-.096-.833-.238-1.095-.191-.286-.572-.429-1.095-.429h-.214c-.476 0-.81.12-1 .334q-.357.428-.357 1.285zm17.393-.262v3.046c0 .548.096.929.334 1.143.19.214.547.31 1.071.31h.214c.547 0 .928-.144 1.166-.477q.285-.428.286-2.07v-1.024c0-1.19-.119-1.928-.31-2.166-.214-.238-.619-.38-1.19-.38h-.095c-.547 0-.928.119-1.166.357-.214.214-.31.642-.31 1.261m0-3.975h.048q1.035-.642 2.713-.642h.214c1.428 0 2.476.428 3.118 1.285.524.738.809 2.047.809 3.927v1.714c0 1.904-.404 3.236-1.213 3.974-.857.81-2.214 1.19-4.07 1.19h-.476c-1.952 0-3.285-.38-3.999-1.166-.642-.69-.952-1.809-.952-3.38V7.578c0-.238.048-.405.167-.524.095-.095.309-.167.619-.167h2.213c.286 0 .5.072.619.167.119.119.19.286.19.524zm15.831 10.258h-.048c-.524.81-1.571 1.19-3.118 1.19h-.357c-1.214 0-2.166-.31-2.832-.928-.69-.619-1.023-1.547-1.023-2.737v-.262c0-1.285.357-2.213 1.094-2.737.738-.523 1.928-.785 3.594-.785h.167c.619 0 1.19.047 1.666.095v-.5c0-.5-.143-.857-.405-1.047-.285-.167-.761-.262-1.428-.262-.809 0-1.713.143-2.761.405-.285.071-.499.071-.595 0-.119-.072-.19-.214-.214-.452l-.19-1.262c-.048-.214-.048-.38-.048-.476 0-.285.191-.5.571-.619a15.3 15.3 0 0 1 4.07-.523c1.833 0 3.142.404 3.903 1.166.595.619.905 1.618.905 2.975v7.069c0 .238-.072.428-.191.523s-.333.143-.618.143h-1.119c-.286 0-.476-.024-.595-.095s-.214-.214-.286-.452zm-.857-3.046v-.667q-.393-.07-1.143-.071h-.261q-.858 0-1.214.214c-.238.143-.333.429-.333.857v.095c0 .429.095.714.333.857.214.167.547.238.999.238h.167c.476 0 .833-.119 1.119-.357.214-.19.333-.595.333-1.166m12.348-7.854h.19c1.38 0 2.404.333 3.023.976.571.618.88 1.666.88 3.141v7.069c0 .238-.071.428-.19.523-.119.12-.333.167-.619.167h-2.19c-.309 0-.523-.048-.642-.167-.119-.095-.167-.285-.167-.523v-6.736c0-.523-.095-.904-.262-1.094-.19-.19-.547-.31-1.047-.31h-.143c-.523 0-.856.12-1.047.31s-.262.57-.262 1.094v6.736c0 .238-.071.428-.19.523-.119.12-.333.167-.619.167h-2.189c-.31 0-.524-.048-.643-.167-.119-.095-.167-.285-.167-.523V12.004c0-.238.048-.404.167-.5s.333-.166.643-.166h1.118c.286 0 .476.048.595.119q.178.107.286.428l.143.453h.071c.762-.81 1.833-1.214 3.261-1.214m10.168 7.259v3.927c0 .238-.071.428-.19.523-.119.12-.334.167-.619.167h-2.19c-.309 0-.523-.048-.642-.167-.119-.095-.167-.285-.167-.523V7.578c0-.238.048-.405.167-.524.119-.095.333-.167.642-.167h2.19c.285 0 .5.072.619.167.119.119.19.286.19.524v7.758h.167l2.261-3.45c.214-.358.547-.548.999-.548h2.761c.262 0 .405.095.405.286 0 .095-.072.261-.191.452l-2.737 4.093c-.214.334-.309.572-.309.714 0 .167.095.405.309.714l2.928 4.618c.095.19.142.309.142.404 0 .262-.166.381-.499.381h-2.642c-.333 0-.595-.024-.738-.119q-.215-.107-.428-.5l-2.261-3.998zm14.212.357v-6.712c0-.238.048-.404.167-.523.119-.096.333-.167.642-.167h2.19c.285 0 .5.071.619.167.119.119.19.285.19.523v7.045q0 2.178-1.071 3.142c-.762.666-2.094 1-4.046 1s-3.308-.334-4.046-1q-1.071-.964-1.071-3.142v-7.045c0-.238.048-.404.167-.523.119-.096.333-.167.642-.167h2.19c.285 0 .5.071.619.167.119.119.19.285.19.523v6.712c0 .547.071.904.262 1.095.19.214.523.309 1.047.309.5 0 .857-.095 1.047-.31.167-.19.262-.547.262-1.094m19.715-1.238V8.34c0-.333.024-.523.119-.619.096-.071.334-.119.714-.119h2.333c.381 0 .595.048.69.12.095.095.143.285.143.618v9.282c0 1.047-.119 1.904-.333 2.57-.238.667-.595 1.238-1.119 1.714-.976.88-2.523 1.31-4.617 1.31h-.286c-2.142 0-3.689-.43-4.641-1.31q-1.428-1.32-1.428-4.284V8.34c0-.333.024-.523.119-.619.095-.071.333-.119.714-.119h2.333c.38 0 .618.048.714.12.095.095.142.285.142.618v9.163c0 .952.143 1.595.476 1.904.31.333.857.476 1.666.476h.119c.786 0 1.333-.143 1.666-.476.31-.31.476-.952.476-1.904m12.778-6.378h.191c1.38 0 2.403.333 3.022.976.571.618.881 1.666.881 3.141v7.069c0 .238-.072.428-.191.523-.119.12-.333.167-.618.167h-2.19c-.309 0-.524-.048-.643-.167-.119-.095-.166-.285-.166-.523v-6.736c0-.523-.095-.904-.262-1.094-.19-.19-.547-.31-1.047-.31h-.143c-.524 0-.857.12-1.047.31-.191.19-.262.57-.262 1.094v6.736c0 .238-.071.428-.19.523-.119.12-.334.167-.619.167h-2.19c-.309 0-.523-.048-.642-.167-.119-.095-.167-.285-.167-.523V12.004c0-.238.048-.404.167-.5s.333-.166.642-.166h1.119c.285 0 .476.048.595.119q.179.107.285.428l.143.453h.072c.761-.81 1.832-1.214 3.26-1.214m10.216.904V22.31c0 .238-.071.428-.19.523-.119.12-.333.167-.619.167h-2.189c-.31 0-.524-.048-.643-.167-.119-.095-.167-.285-.167-.523V12.028c0-.238.048-.404.167-.523.119-.096.333-.167.643-.167h2.189c.286 0 .5.071.619.167.119.119.19.285.19.523m-1.761-1.594h-.285c-1.286 0-1.928-.643-1.928-1.976V8.34c0-1.309.642-1.975 1.928-1.975h.285c1.285 0 1.928.666 1.928 1.975v.12c0 1.332-.643 1.975-1.928 1.975m10.654 12.78h-.238c-2.309 0-3.951-.523-4.951-1.594q-1.356-1.427-1.356-4.856v-2.927c0-2.237.452-3.856 1.38-4.831 1-1.071 2.666-1.619 4.95-1.619h.167c1.785 0 3.332.357 4.665 1.047q.5.285.285.857l-.785 2c-.095.237-.238.356-.405.356a.8.8 0 0 1-.452-.119c-1.118-.523-2.166-.809-3.141-.809h-.096c-1.023 0-1.713.286-2.046.857-.31.524-.453 1.452-.453 2.832v1.69c0 1.523.215 2.547.667 3.046.428.5 1.19.738 2.237.738h.095c.952 0 1.952-.214 2.951-.666.143-.048.286-.095.381-.095q.286 0 .429.5l.404 1.713c.048.19.072.357.072.452 0 .286-.238.5-.714.667a10.8 10.8 0 0 1-4.046.761m9.913-10.59h.072c.523-.858 1.404-1.286 2.665-1.286h.952c.238 0 .429.048.524.143s.167.262.167.523v1.738c0 .262-.048.428-.143.523q-.143.143-.5.143h-.714c-.881 0-1.476.167-1.809.5-.285.286-.404.833-.404 1.642v5.76c0 .238-.072.428-.191.523-.119.12-.333.167-.619.167h-2.189c-.31 0-.524-.048-.643-.167-.119-.095-.166-.285-.166-.523V12.004c0-.238.047-.404.166-.5s.333-.166.643-.166h1.142c.262 0 .452.048.571.119a.97.97 0 0 1 .286.428zm11.359 7.52h.261c.81 0 1.666-.095 2.523-.31.238-.047.381-.07.452-.07.238 0 .381.142.429.404l.19 1.19c.048.333.095.547.095.642 0 .286-.214.5-.618.643-1.095.38-2.309.571-3.594.571h-.452q-2.928 0-4.142-1.214c-.476-.452-.785-1-.952-1.618s-.238-1.452-.238-2.475v-1.333c0-2.07.476-3.522 1.428-4.38.81-.713 2.047-1.07 3.737-1.07h.333c1.666 0 2.88.404 3.594 1.19.762.857 1.142 2.26 1.142 4.26v1.238c0 .452-.238.666-.69.666h-5.712v.19c0 .572.143.952.476 1.167.31.214.881.309 1.738.309m-2.214-4.141h2.618c.191 0 .286-.095.286-.31v-.38c0-.476-.095-.833-.238-1.095-.191-.286-.571-.429-1.095-.429h-.214c-.476 0-.809.12-1 .334q-.357.428-.357 1.285zm14.947 2.784v-3.022c0-.595-.095-1.024-.285-1.262-.215-.238-.595-.38-1.119-.38h-.238c-.524 0-.881.142-1.095.404-.238.262-.333 1-.333 2.237v1.048c0 1.142.119 1.856.357 2.094.19.238.547.333 1.095.333h.262c.452 0 .785-.095 1.023-.31.214-.213.333-.594.333-1.142m-.047-7.235h.047V7.578c0-.238.048-.405.167-.524.119-.095.333-.167.642-.167h2.214c.285 0 .5.072.619.167a.8.8 0 0 1 .166.524v10.829c0 1.666-.309 2.808-.928 3.474-.452.476-1 .833-1.642 1.024-.667.214-1.547.31-2.666.31h-.404c-1.762 0-3.023-.358-3.832-1.072-.833-.714-1.238-2.047-1.238-4.022v-1.904c0-1.904.381-3.237 1.19-3.998.762-.714 1.809-1.095 3.166-1.095h.285q1.357 0 2.214.428m9.979.476V22.31c0 .238-.072.428-.191.523-.119.12-.333.167-.618.167h-2.19c-.309 0-.524-.048-.643-.167-.119-.095-.166-.285-.166-.523V12.028c0-.238.047-.404.166-.523.119-.096.334-.167.643-.167h2.19c.285 0 .499.071.618.167.119.119.191.285.191.523m-1.761-1.594h-.286c-1.285 0-1.928-.643-1.928-1.976V8.34c0-1.309.643-1.975 1.928-1.975h.286c1.285 0 1.927.666 1.927 1.975v.12c0 1.332-.642 1.975-1.927 1.975m11.676 10.329v1.356c0 .357-.071.595-.166.714-.095.12-.31.167-.595.167h-1.904c-1.714 0-2.856-.286-3.38-.88-.476-.5-.69-1.452-.69-2.88v-4.927h-1.285c-.238 0-.381-.024-.476-.119s-.119-.238-.119-.476v-1.214c0-.285.024-.476.119-.571.071-.095.238-.167.5-.238l1.261-.31V9.054c0-.238.048-.404.167-.523.119-.096.333-.167.642-.167h2.19c.285 0 .5.071.619.167.119.119.19.285.19.523v2.285h1.975c.238 0 .381.048.476.143.096.095.143.262.143.547v1.595q0 .428-.143.571c-.095.095-.238.119-.476.119h-1.975v4.498c0 .429.048.69.19.833.143.167.453.238.929.238h1.047c.285 0 .5.072.595.19.095.12.166.358.166.69m5.514.238v.238c0 1.333-.642 1.975-1.904 1.975h-.262c-1.285 0-1.904-.642-1.904-1.975V21c0-.69.143-1.19.476-1.476.31-.285.786-.452 1.428-.452h.262c.619 0 1.095.167 1.428.452.31.286.476.786.476 1.476"/></svg>