<svg viewBox="0 0 100 38" fill="none" xmlns="http://www.w3.org/2000/svg">
<g clip-path="url(#clip0_2869_375)">
<path d="M100 0H94.3059V35.2941H100V0Z" fill="#FF0EB2"/>
<path d="M94.3059 3.90588H88.2353V37.2235H94.3059V3.90588Z" fill="#00FF00"/>
<path d="M88.2353 1.97644H23.5294V35.2941H88.2353V1.97644Z" fill="#0000FF"/>
<path d="M23.5294 37.2706H16.4235L16.3765 3.90588H23.5294V37.2706Z" fill="#FF0EB2"/>
<path d="M16.3765 1.97644H15.1059V36.4235H16.3765V1.97644Z" fill="#181716"/>
<path d="M15.153 34.0235H7.15295V0H15.1059L15.153 34.0235Z" fill="#0000FF"/>
<path d="M7.15294 2.91766H0V37.2235H7.15294V2.91766Z" fill="#00FF00"/>
<path d="M29.8353 19.6706V26.0706H26.5883V20.1412C26.5883 18.353 25.7883 17.5059 24.4706 17.5059C23.0118 17.5059 22.0235 18.4471 22.0235 20.4236V26.0235H18.8235V20.1412C18.8235 18.353 18.0706 17.5059 16.7059 17.5059C15.2941 17.5059 14.2588 18.4471 14.2588 20.4236V26.0235H11.0118V17.3647H9.78825V14.8706H13.6L13.7883 16.6118C14.5883 15.3883 16 14.7294 17.6 14.7294C19.153 14.7294 20.4706 15.3412 21.2706 16.5647C22.1647 15.4353 23.6235 14.7294 25.2706 14.7294C27.953 14.7294 29.8353 16.2824 29.8353 19.6706Z" fill="white"/>
<path d="M45.3177 22.0706C45.3177 24.5647 43.3412 26.0235 39.5294 26.0235H32.3765V14.2588H30.8236V11.5294H39.0588C42.6824 11.5294 44.5647 13.0353 44.5647 15.2941C44.5647 16.7529 43.8118 17.8824 42.6353 18.4941C44.2824 19.0118 45.3177 20.2824 45.3177 22.0706ZM35.7177 14.0706V17.5059H38.6824C40.3294 17.5059 41.2236 16.9412 41.2236 15.7647C41.2236 14.6353 40.3294 14.0706 38.6824 14.0706H35.7177ZM41.8824 21.7412C41.8824 20.5177 40.9883 19.9529 39.2471 19.9529H35.7177V23.5294H39.2471C40.9883 23.5294 41.8824 22.9647 41.8824 21.7412Z" fill="white"/>
<path d="M58.4471 14.9177V26.0706H55.3412V24.8C54.5412 25.7883 53.3647 26.2588 51.8589 26.2588C48.7059 26.2588 46.3059 24 46.3059 20.5177C46.3059 17.0353 48.7059 14.7765 51.8589 14.7765C53.2236 14.7765 54.4 15.2 55.2 16.1412V14.9647H58.4471V14.9177ZM55.2471 20.4706C55.2471 18.5412 54.0236 17.3647 52.4236 17.3647C50.8236 17.3647 49.553 18.5412 49.553 20.4706C49.553 22.4 50.7765 23.5765 52.4236 23.5765C54.0236 23.5765 55.2471 22.4 55.2471 20.4706Z" fill="white"/>
<path d="M72.6118 19.6706V26.0706H69.3647V20.1412C69.3647 18.353 68.5177 17.5059 67.1059 17.5059C65.553 17.5059 64.4236 18.4471 64.4236 20.5177V26.0235H61.1765V17.3647H59.953V14.8706H63.7647L63.953 16.6118C64.8 15.3883 66.2589 14.7294 67.953 14.7294C70.5883 14.7294 72.6118 16.2824 72.6118 19.6706Z" fill="white"/>
<path d="M86.2118 26.0235H82.5412L79.3882 21.1765H77.8824V26.0235H74.6353V10.6824H77.8824V18.7765H79.3882L82.353 14.9177H85.9765L82.1647 19.8118L86.2118 26.0235Z" fill="white"/>
</g>
<defs>
<clipPath id="clip0_2869_375">
<rect width="100" height="38" fill="white"/>
</clipPath>
</defs>
</svg>
