<svg xmlns="http://www.w3.org/2000/svg" fill="none" viewBox="0 0 195 59"><path fill="#000" d="M6.006 17.894h7.326V21H.906v-2.433l7.093-8.388H1.087V7.073H13.1v2.433zM25.839 7.073h4.038V21H26.02v-1.605c-1.01 1.217-2.485 1.812-4.35 1.812-3.934 0-6.963-2.796-6.963-7.17s3.029-7.171 6.964-7.171c1.708 0 3.158.543 4.168 1.682zm-3.47 10.82c1.994 0 3.547-1.45 3.547-3.857s-1.553-3.857-3.546-3.857c-2.02 0-3.573 1.45-3.573 3.858 0 2.407 1.553 3.857 3.573 3.857M40.79 9.48l-2.9 2.175V21h-4.038v-6.316l-1.424 1.061-1.501-2.02 2.925-2.2V1.792h4.038v6.679l1.424-1.062zm5.414-4.193 3.495-3.728h4.349L49.36 5.287zm2.407 15.92c-4.426 0-7.662-2.977-7.662-7.17 0-4.194 3.236-7.171 7.662-7.171s7.637 2.977 7.637 7.17c0 4.194-3.21 7.171-7.637 7.171m0-3.313c2.02 0 3.547-1.45 3.547-3.857s-1.527-3.858-3.547-3.858c-2.019 0-3.572 1.45-3.572 3.858 0 2.407 1.553 3.857 3.572 3.857M64.024 5.157c-1.268 0-2.174-.932-2.174-2.2 0-1.243.906-2.175 2.174-2.175 1.269 0 2.175.932 2.175 2.175 0 1.268-.906 2.2-2.175 2.2m-1.113 12.737h7.326V21H57.812v-2.433l7.093-8.388h-6.912V7.073h12.011v2.433zm26.642-4.712L94.575 21h-4.582l-3.935-6.032h-1.863V21h-4.039V1.792h4.039v10.096h1.863l3.728-4.815h4.504zm12.752 8.025c-4.426 0-7.662-2.977-7.662-7.17 0-4.194 3.236-7.171 7.662-7.171s7.637 2.977 7.637 7.17c0 4.194-3.21 7.171-7.637 7.171m0-3.313c2.019 0 3.547-1.45 3.547-3.857s-1.528-3.858-3.547-3.858-3.572 1.45-3.572 3.858c0 2.407 1.553 3.857 3.572 3.857m19.138-11.028c3.287 0 5.772 1.915 5.772 6.16V21h-4.038v-7.352c0-2.252-1.035-3.287-2.822-3.287-1.941 0-3.339 1.19-3.339 3.753V21h-4.038V10.18h-1.554V7.072h4.79l.207 2.174c1.061-1.553 2.873-2.381 5.022-2.381m16.751 10.613 1.061 2.848c-.828.595-2.045.88-3.261.88-3.314 0-5.204-1.683-5.204-4.996V3.992h4.039v3.08h3.443v3.081h-3.443v6.006c0 1.191.621 1.838 1.708 1.838.596 0 1.191-.181 1.657-.518m9.539 3.728c-4.426 0-7.662-2.977-7.662-7.17 0-4.194 3.236-7.171 7.662-7.171s7.637 2.977 7.637 7.17c0 4.194-3.21 7.171-7.637 7.171m0-3.313c2.02 0 3.547-1.45 3.547-3.857s-1.527-3.858-3.547-3.858c-2.019 0-3.572 1.45-3.572 3.858 0 2.407 1.553 3.857 3.572 3.857M3.883 37.13c-1.501 0-2.511-.983-2.511-2.252s1.01-2.252 2.511-2.252 2.511.932 2.511 2.175c0 1.346-1.01 2.33-2.511 2.33M1.863 53V39.073h4.04V53zm19.26-3.106h7.326V53H16.023v-2.433l7.093-8.388h-6.911v-3.106h12.011v2.433zm20.01-10.821h4.038V50.67c0 5.177-2.718 7.56-7.585 7.56-2.562 0-5.047-.648-6.627-1.916l1.605-2.9c1.14.958 2.952 1.553 4.712 1.553 2.692 0 3.857-1.268 3.857-3.78v-.465c-1.062 1.061-2.511 1.605-4.116 1.605-3.495 0-5.954-1.942-5.954-6.265v-6.99H35.1v6.395c0 2.356 1.036 3.391 2.822 3.391 1.864 0 3.21-1.19 3.21-3.753zM53.62 53.207c-2.356 0-4.737-.647-6.032-1.501l1.346-2.9c1.243.803 3.133 1.347 4.841 1.347 1.864 0 2.563-.492 2.563-1.269 0-2.278-8.413.052-8.413-5.514 0-2.64 2.381-4.504 6.446-4.504 1.915 0 4.038.44 5.358 1.217l-1.346 2.873c-1.372-.777-2.744-1.036-4.012-1.036-1.812 0-2.59.57-2.59 1.295 0 2.381 8.414.077 8.414 5.566 0 2.588-2.407 4.426-6.575 4.426m18.464-8.025L77.107 53h-4.582l-3.935-6.032h-1.864V53h-4.038V33.792h4.038v10.096h1.864l3.728-4.815h4.504zm16.22-6.11h4.039V53h-3.857v-1.605c-1.01 1.217-2.485 1.812-4.35 1.812-3.934 0-6.963-2.796-6.963-7.17s3.029-7.171 6.964-7.171c1.708 0 3.158.543 4.167 1.682zm-3.468 10.822c1.993 0 3.546-1.45 3.546-3.858 0-2.407-1.553-3.857-3.546-3.857-2.02 0-3.573 1.45-3.573 3.857s1.553 3.858 3.573 3.858M98.26 37.13c-1.502 0-2.511-.983-2.511-2.252s1.01-2.252 2.51-2.252c1.502 0 2.512.932 2.512 2.175 0 1.346-1.01 2.33-2.511 2.33M95.49 58.23c-1.113 0-2.097-.233-2.9-.776l1.088-2.926c.414.311.828.492 1.372.492.699 0 1.19-.492 1.19-1.501V39.073h4.039v14.212c0 3.054-1.735 4.944-4.79 4.944m24.562-19.363c3.288 0 5.773 1.915 5.773 6.16V53h-4.038v-7.352c0-2.252-1.036-3.288-2.822-3.288-1.942 0-3.339 1.191-3.339 3.754V53h-4.039V42.18h-1.553v-3.107h4.789l.207 2.174c1.062-1.553 2.874-2.381 5.022-2.381m19.623.207h4.038V53h-3.857v-1.605c-1.01 1.217-2.485 1.812-4.349 1.812-3.935 0-6.964-2.796-6.964-7.17s3.029-7.171 6.964-7.171c1.708 0 3.158.543 4.168 1.682zm-3.469 10.82c1.993 0 3.546-1.45 3.546-3.857s-1.553-3.857-3.546-3.857c-2.019 0-3.573 1.45-3.573 3.857s1.554 3.858 3.573 3.858m29.938-10.82h3.573L164.669 53h-3.883l-3.132-8.646L154.418 53h-3.883l-5.022-13.927h3.805l3.288 9.423 3.417-9.423h3.417l3.313 9.423zm17.677 7.015c0 .31-.052.75-.078 1.087h-10.536c.389 1.735 1.864 2.796 3.987 2.796 1.475 0 2.537-.44 3.495-1.346l2.148 2.33c-1.294 1.476-3.236 2.252-5.747 2.252-4.815 0-7.947-3.029-7.947-7.17 0-4.168 3.184-7.171 7.43-7.171 4.09 0 7.248 2.744 7.248 7.222m-7.223-4.168c-1.837 0-3.158 1.114-3.442 2.9h6.86c-.285-1.76-1.605-2.9-3.418-2.9m17.237 7.56 1.062 2.847c-.829.595-2.045.88-3.262.88-3.313 0-5.203-1.682-5.203-4.996V35.992h4.038v3.08h3.443v3.081h-3.443v6.006c0 1.191.621 1.838 1.709 1.838.595 0 1.19-.181 1.656-.518"/></svg>