<svg xmlns="http://www.w3.org/2000/svg" fill="none" viewBox="0 0 84 14"><path fill="#000" d="M2.373 7.877q0 .14.07.242.071.093.187.148a.7.7 0 0 0 .258.047q.203 0 .374-.086a.7.7 0 0 0 .28-.258.77.77 0 0 0 .11-.42l.125.467a.93.93 0 0 1-.187.585 1.2 1.2 0 0 1-.484.359q-.296.117-.64.117-.343 0-.64-.125a1.14 1.14 0 0 1-.467-.39 1.1 1.1 0 0 1-.172-.624q0-.514.367-.811.366-.304 1.037-.304.329 0 .585.062.265.063.453.156a1 1 0 0 1 .28.195v.523a1.3 1.3 0 0 0-.436-.21 1.7 1.7 0 0 0-.515-.079 1 1 0 0 0-.336.047.362.362 0 0 0-.25.359M1.85 6.512l-.398-.788q.305-.148.734-.28.429-.134.936-.133.475 0 .85.14.374.132.593.39a.94.94 0 0 1 .218.632V9H3.652V6.738a.5.5 0 0 0-.047-.226.4.4 0 0 0-.125-.172.5.5 0 0 0-.218-.101 1.2 1.2 0 0 0-.289-.031q-.241 0-.475.054-.227.055-.398.133a2 2 0 0 0-.25.117m3.815-3.596H6.85V9H5.665zm2.094 0H8.89V9H7.76zm2.434 2.496h1.412l-1.537 1.482L11.761 9h-1.389L8.656 6.894zm2.989 2.465q0 .14.07.242.07.093.187.148a.7.7 0 0 0 .257.047q.203 0 .375-.086a.7.7 0 0 0 .28-.258.77.77 0 0 0 .11-.42l.125.467a.93.93 0 0 1-.188.585 1.2 1.2 0 0 1-.483.359q-.297.117-.64.117t-.64-.125a1.14 1.14 0 0 1-.467-.39 1.1 1.1 0 0 1-.172-.624q0-.514.367-.811.366-.304 1.037-.304.327 0 .585.062.266.063.452.156a1 1 0 0 1 .281.195v.523a1.3 1.3 0 0 0-.437-.21 1.7 1.7 0 0 0-.514-.079 1 1 0 0 0-.336.047.362.362 0 0 0-.25.359m-.523-1.365-.398-.788q.304-.148.733-.28.429-.134.936-.133.477 0 .85.14.375.132.593.39a.94.94 0 0 1 .219.632V9H14.46V6.738a.5.5 0 0 0-.047-.226.4.4 0 0 0-.125-.172.5.5 0 0 0-.218-.101 1.2 1.2 0 0 0-.289-.031q-.242 0-.476.054-.226.055-.397.133a2 2 0 0 0-.25.117m3.815-3.596h1.185V9h-1.185zm7.578 3.775V9h-1.186V6.816q0-.327-.11-.491-.1-.172-.342-.172a.5.5 0 0 0-.281.078.5.5 0 0 0-.187.218 1 1 0 0 0-.063.367V9h-1.185V6.816q0-.327-.11-.491-.101-.172-.343-.172a.5.5 0 0 0-.28.078.5.5 0 0 0-.188.218 1 1 0 0 0-.062.367V9h-1.139V5.412h1.139v.53q.149-.288.405-.452.266-.165.632-.164.422 0 .671.156a.83.83 0 0 1 .359.437q.195-.28.483-.437.289-.156.656-.156.42 0 .663.164a.87.87 0 0 1 .358.46q.11.305.11.741m1.835 1.186q0 .14.07.242.07.093.188.148a.7.7 0 0 0 .257.047q.203 0 .374-.086a.7.7 0 0 0 .281-.258.77.77 0 0 0 .11-.42l.124.467a.93.93 0 0 1-.187.585 1.2 1.2 0 0 1-.484.359q-.295.117-.64.117-.342 0-.639-.125a1.14 1.14 0 0 1-.468-.39 1.1 1.1 0 0 1-.172-.624q0-.514.367-.811.366-.304 1.037-.304.329 0 .585.062.265.063.453.156a1 1 0 0 1 .28.195v.523a1.3 1.3 0 0 0-.436-.21 1.7 1.7 0 0 0-.515-.079 1 1 0 0 0-.335.047.362.362 0 0 0-.25.359m-.523-1.365-.397-.788q.304-.148.733-.28.429-.134.936-.133.475 0 .85.14.375.132.593.39a.94.94 0 0 1 .218.632V9h-1.13V6.738a.5.5 0 0 0-.048-.226.4.4 0 0 0-.124-.172.5.5 0 0 0-.219-.101 1.2 1.2 0 0 0-.288-.031q-.242 0-.476.054-.226.055-.398.133a2 2 0 0 0-.25.117m5.352-.031h-1.553V5.412h3.51l-1.794 2.52h1.545V9h-3.588zm3.45 1.45q0 .126.063.211.07.078.188.125a1.083 1.083 0 0 0 .663-.031.6.6 0 0 0 .296-.234q.11-.164.11-.453l.124.437q0 .343-.18.593a1.1 1.1 0 0 1-.475.374 1.7 1.7 0 0 1-.671.125q-.39 0-.687-.125a1.07 1.07 0 0 1-.46-.374 1.04 1.04 0 0 1-.156-.577q0-.374.195-.632.204-.265.554-.406a2.2 2.2 0 0 1 .803-.14q.273 0 .515.062.25.055.43.148a.8.8 0 0 1 .264.172v.554a1.5 1.5 0 0 0-.42-.219 1.5 1.5 0 0 0-.516-.078.9.9 0 0 0-.35.063.5.5 0 0 0-.219.156.43.43 0 0 0-.07.25m-.46-1.411-.397-.796q.305-.148.725-.28.429-.134.913-.133.483 0 .858.14.382.132.593.39a.94.94 0 0 1 .218.632V9h-1.13V6.707a.43.43 0 0 0-.172-.359q-.165-.14-.46-.14a2.2 2.2 0 0 0-.89.187q-.171.07-.257.125m2.582-2.847-1.403 1.17-.663-.336 1.17-1.248zm1.404 4.024q.273.226.492.36.226.123.397.179.172.046.297.046.18 0 .265-.078a.26.26 0 0 0 .086-.202.28.28 0 0 0-.07-.195.7.7 0 0 0-.242-.164 3 3 0 0 0-.453-.164 4 4 0 0 1-.491-.218 1.15 1.15 0 0 1-.374-.351q-.15-.219-.149-.562a.9.9 0 0 1 .172-.554q.18-.225.476-.343.304-.117.694-.117.312 0 .577.07.273.071.507.187.241.118.453.273l-.422.765a2 2 0 0 0-.514-.343 1.2 1.2 0 0 0-.53-.14q-.165 0-.25.062a.2.2 0 0 0-.078.163q0 .117.093.195.102.078.28.149.188.062.453.163.282.102.515.234.242.133.382.336.149.202.148.538 0 .577-.358.874-.352.288-.99.288a2.7 2.7 0 0 1-.726-.093 2.8 2.8 0 0 1-.609-.234 4 4 0 0 1-.522-.344zm3.292-3.634q0-.281.203-.453a.7.7 0 0 1 .483-.18q.29 0 .484.18a.56.56 0 0 1 .203.453q0 .28-.203.46a.69.69 0 0 1-.484.18.7.7 0 0 1-.483-.18.59.59 0 0 1-.203-.46m.117 1.349h1.139V9H41.1zm6.273 3.666q-.624 0-1.085-.226a1.7 1.7 0 0 1-.702-.655 1.9 1.9 0 0 1-.25-.991q0-.578.243-.998a1.6 1.6 0 0 1 .694-.648q.46-.226 1.084-.226t1.053.218q.43.21.655.617.226.405.226.982v.172a.5.5 0 0 1-.015.133H46V6.8h2.215l-.28.36a.5.5 0 0 0 .062-.133.4.4 0 0 0 .03-.14.9.9 0 0 0-.085-.406.63.63 0 0 0-.242-.266.7.7 0 0 0-.366-.093.8.8 0 0 0-.445.117.72.72 0 0 0-.273.359 1.9 1.9 0 0 0-.093.592q0 .328.093.562a.75.75 0 0 0 .28.359.85.85 0 0 0 .461.117q.312 0 .53-.117a.86.86 0 0 0 .36-.351l1.052.257a1.9 1.9 0 0 1-.764.796q-.476.265-1.162.265m2.646-6.162h1.185V9H50.02zm3.21 1.942-.718-.195.89-1.466.959.234zm1.458 0-.717-.195.881-1.466.967.234zm-2.777 2.348q0-.57.266-.99.264-.422.733-.656a2.3 2.3 0 0 1 1.053-.234q.585 0 1.045.234.468.234.733.655.273.421.273.991 0 .561-.273.983-.264.42-.733.655a2.3 2.3 0 0 1-1.045.234q-.585 0-1.053-.234a1.8 1.8 0 0 1-.733-.655 1.8 1.8 0 0 1-.266-.983m1.21 0q0 .28.116.484.117.195.305.304a.8.8 0 0 0 .42.109q.228 0 .414-.11a.8.8 0 0 0 .305-.303.95.95 0 0 0 .117-.484.95.95 0 0 0-.117-.484.806.806 0 0 0-.718-.421.8.8 0 0 0-.421.11.84.84 0 0 0-.305.311.95.95 0 0 0-.117.484m3.649-1.794h1.138V9H56.77zm1.91-1.778-1.403 1.17-.671-.336 1.17-1.248zm1.36 1.778V9H58.88V5.412zm1.038 1.217a.8.8 0 0 0-.203-.148.54.54 0 0 0-.257-.055.5.5 0 0 0-.304.094.6.6 0 0 0-.203.273q-.07.18-.07.436l-.281-.413q0-.428.164-.764.171-.336.444-.53a.93.93 0 0 1 .944-.117.6.6 0 0 1 .273.218zm1.92 1.302q0 .126.062.211.07.078.188.125a1.083 1.083 0 0 0 .663-.031.6.6 0 0 0 .296-.234q.11-.164.11-.453l.124.437q0 .343-.18.593a1.1 1.1 0 0 1-.475.374 1.7 1.7 0 0 1-.671.125q-.39 0-.686-.125a1.07 1.07 0 0 1-.46-.374 1.04 1.04 0 0 1-.157-.577q0-.374.195-.632.204-.265.554-.406a2.2 2.2 0 0 1 .804-.14q.273 0 .514.062.25.055.43.148a.8.8 0 0 1 .265.172v.554a1.5 1.5 0 0 0-.422-.219 1.5 1.5 0 0 0-.514-.078.9.9 0 0 0-.351.063.5.5 0 0 0-.219.156.43.43 0 0 0-.07.25m-.46-1.411-.398-.796q.305-.148.725-.28.429-.134.913-.133.483 0 .858.14.382.132.593.39a.94.94 0 0 1 .218.632V9h-1.13V6.707a.43.43 0 0 0-.172-.359q-.165-.14-.46-.14a2.2 2.2 0 0 0-.89.187q-.171.07-.257.125m2.582-2.847-1.404 1.17-.663-.336 1.17-1.248zm1.403 4.024q.273.226.492.36.226.123.397.179.172.046.297.046.18 0 .265-.078a.26.26 0 0 0 .086-.202.28.28 0 0 0-.07-.195.7.7 0 0 0-.242-.164 3 3 0 0 0-.453-.164 4 4 0 0 1-.491-.218 1.15 1.15 0 0 1-.374-.351q-.15-.219-.149-.562a.9.9 0 0 1 .172-.554q.18-.225.476-.343.304-.117.694-.117.312 0 .577.07.273.071.507.187.242.118.453.273l-.422.765a2 2 0 0 0-.514-.343 1.2 1.2 0 0 0-.53-.14q-.165 0-.25.062a.2.2 0 0 0-.078.163q0 .117.093.195.101.078.281.149.188.062.452.163.282.102.515.234.242.133.382.336.15.202.149.538 0 .577-.36.874-.35.288-.99.288a2.7 2.7 0 0 1-.725-.093 2.8 2.8 0 0 1-.609-.234 4 4 0 0 1-.522-.344z"/><path fill="#000" d="M1 9.975h68.425v.39H1z"/><path stroke="#d50c0c" stroke-linejoin="round" stroke-width=".9" d="m75.4 8.35-1.35 2.25-1.5-7.8 6.75 2.85L77.05 7l2.4 2.85-1.65 1.5z"/></svg>