<svg xmlns="http://www.w3.org/2000/svg" fill="none" viewBox="0 0 72 13"><path fill="#4d4d4d" d="M0 .48h.51V4.2h1.65v.48H0zm3.74 4.26q-.385 0-.685-.18a1.3 1.3 0 0 1-.462-.51 1.66 1.66 0 0 1-.162-.75q0-.432.168-.756.174-.324.48-.504.312-.18.72-.18t.696.174q.294.168.45.486a1.7 1.7 0 0 1 .15.846v.054H2.737v-.408h1.98l-.192.276a.4.4 0 0 0 .036-.09.4.4 0 0 0 .018-.108.85.85 0 0 0-.102-.426.7.7 0 0 0-.27-.282.8.8 0 0 0-.408-.102.9.9 0 0 0-.474.12.77.77 0 0 0-.3.336 1.3 1.3 0 0 0-.108.534q0 .324.102.552a.76.76 0 0 0 .3.348.9.9 0 0 0 .48.12q.282 0 .498-.12a1.04 1.04 0 0 0 .366-.378l.39.246a1.47 1.47 0 0 1-.546.528 1.6 1.6 0 0 1-.768.174M7.02 2.37h-1.53v-.45h2.4l-1.71 2.31h1.59v.45h-2.46zm1.626 1.5q0 .144.066.246a.43.43 0 0 0 .192.15 1 1 0 0 0 .324.048q.24 0 .426-.072a.6.6 0 0 0 .288-.228.7.7 0 0 0 .108-.414l.096.3a.74.74 0 0 1-.144.456.9.9 0 0 1-.372.288q-.234.096-.522.096-.282 0-.498-.096a.8.8 0 0 1-.336-.282.8.8 0 0 1-.114-.432.87.87 0 0 1 .576-.858q.27-.108.6-.108.264 0 .45.072.192.066.306.156a.8.8 0 0 1 .156.138v.282a1.5 1.5 0 0 0-.888-.282q-.24 0-.402.066a.5.5 0 0 0-.234.186.5.5 0 0 0-.078.288m0-1.302-.234-.366a2.2 2.2 0 0 1 .42-.228 1.6 1.6 0 0 1 .636-.114q.318 0 .552.102.24.096.372.282a.74.74 0 0 1 .138.456v1.98h-.48V2.7q0-.21-.18-.312a.75.75 0 0 0-.402-.108q-.198 0-.36.054a1.2 1.2 0 0 0-.282.12 2 2 0 0 0-.18.114M10.429.6l-1.08.9-.27-.18.9-.96zm1.394 1.32v2.76h-.48V1.92zm.834.528a.8.8 0 0 0-.174-.102.5.5 0 0 0-.198-.036q-.18 0-.282.09a.5.5 0 0 0-.144.246 1.6 1.6 0 0 0-.036.354h-.216q0-.33.114-.582.12-.258.306-.408a.6.6 0 0 1 .378-.15q.15 0 .276.042a.5.5 0 0 1 .24.15zm.959 1.422q0 .144.066.246a.43.43 0 0 0 .192.15 1 1 0 0 0 .324.048q.24 0 .426-.072a.6.6 0 0 0 .288-.228.7.7 0 0 0 .108-.414l.096.3a.74.74 0 0 1-.144.456.9.9 0 0 1-.372.288q-.234.096-.522.096-.282 0-.498-.096a.8.8 0 0 1-.336-.282.8.8 0 0 1-.114-.432.87.87 0 0 1 .576-.858q.27-.108.6-.108.264 0 .45.072.192.066.306.156a.8.8 0 0 1 .156.138v.282a1.5 1.5 0 0 0-.888-.282q-.24 0-.402.066a.5.5 0 0 0-.234.186.5.5 0 0 0-.078.288m0-1.302-.234-.366a2.2 2.2 0 0 1 .42-.228 1.6 1.6 0 0 1 .636-.114q.318 0 .552.102.24.096.372.282a.74.74 0 0 1 .138.456v1.98h-.48V2.7q0-.21-.18-.312a.75.75 0 0 0-.402-.108q-.198 0-.36.054a1.2 1.2 0 0 0-.282.12 2 2 0 0 0-.18.114M15.398.6l-1.08.9-.27-.18.9-.96zm1.028 3.234q.084.126.192.234t.246.174q.144.06.312.06.204 0 .318-.09.12-.096.12-.258a.33.33 0 0 0-.096-.24.7.7 0 0 0-.234-.168 3 3 0 0 0-.306-.132 4 4 0 0 1-.366-.168 1.1 1.1 0 0 1-.306-.258.66.66 0 0 1-.12-.402q0-.246.126-.408a.8.8 0 0 1 .336-.24 1.23 1.23 0 0 1 1.194.186q.15.12.234.276l-.384.246a.9.9 0 0 0-.288-.258.73.73 0 0 0-.384-.102q-.15 0-.258.066a.22.22 0 0 0-.108.204q0 .108.084.192a.8.8 0 0 0 .216.15q.132.066.276.126.24.096.438.21.198.108.312.264a.64.64 0 0 1 .12.402q0 .36-.264.6-.258.24-.684.24-.276 0-.498-.096a1.3 1.3 0 0 1-.378-.258 1.2 1.2 0 0 1-.228-.318zM22.6 0h.48v4.68h-.48zm-2.31 3.3q0-.45.186-.768.186-.324.498-.498a1.4 1.4 0 0 1 .684-.174q.348 0 .606.174t.402.498q.15.318.15.768 0 .444-.15.768-.144.324-.402.498a1.06 1.06 0 0 1-.606.174 1.4 1.4 0 0 1-.684-.174 1.3 1.3 0 0 1-.498-.498 1.5 1.5 0 0 1-.186-.768m.486 0q0 .318.126.54.132.222.348.336t.468.114a.84.84 0 0 0 .414-.114.9.9 0 0 0 .336-.336q.132-.222.132-.54t-.132-.54a.9.9 0 0 0-.336-.336.84.84 0 0 0-.414-.114 1 1 0 0 0-.468.114.9.9 0 0 0-.348.336 1.1 1.1 0 0 0-.126.54m3.391.57q0 .144.066.246a.43.43 0 0 0 .192.15 1 1 0 0 0 .324.048q.24 0 .426-.072a.6.6 0 0 0 .288-.228.7.7 0 0 0 .108-.414l.096.3a.74.74 0 0 1-.144.456.9.9 0 0 1-.372.288q-.234.096-.522.096-.282 0-.498-.096a.8.8 0 0 1-.336-.282.8.8 0 0 1-.114-.432.87.87 0 0 1 .576-.858q.27-.108.6-.108.264 0 .45.072.192.066.306.156a.8.8 0 0 1 .156.138v.282a1.5 1.5 0 0 0-.888-.282q-.24 0-.402.066a.5.5 0 0 0-.234.186.5.5 0 0 0-.078.288m0-1.302-.234-.366a2.2 2.2 0 0 1 .42-.228 1.6 1.6 0 0 1 .636-.114q.318 0 .552.102.24.096.372.282a.74.74 0 0 1 .138.456v1.98h-.48V2.7q0-.21-.18-.312a.75.75 0 0 0-.402-.108q-.198 0-.36.054a1.2 1.2 0 0 0-.282.12 2 2 0 0 0-.18.114M25.95.6l-1.08.9-.27-.18.9-.96zm.495 1.32h1.38v.45h-1.38zm.45-.96h.48v3.72h-.48zm1.89 2.64q0 .33.15.51t.439.18a.76.76 0 0 0 .366-.084.6.6 0 0 0 .246-.246.7.7 0 0 0 .09-.36V1.92h.48v2.76h-.48v-.432a1 1 0 0 1-.342.372.93.93 0 0 1-.48.12q-.432 0-.69-.294t-.258-.786V1.92h.48zm6.453-.66v1.74h-.48V3q0-.354-.132-.522-.126-.168-.396-.168a.67.67 0 0 0-.342.084.53.53 0 0 0-.222.234.8.8 0 0 0-.078.372v1.68h-.48V3q0-.354-.132-.522-.126-.168-.396-.168a.67.67 0 0 0-.342.084.53.53 0 0 0-.222.234.8.8 0 0 0-.078.372v1.68h-.48V1.92h.48v.402a.9.9 0 0 1 .312-.348.87.87 0 0 1 .45-.114q.288 0 .492.138.21.132.306.378a1 1 0 0 1 .36-.384.9.9 0 0 1 .492-.132q.282 0 .48.126a.78.78 0 0 1 .3.372q.108.24.108.582m1.118.888q0 .156.072.27a.5.5 0 0 0 .21.174.9.9 0 0 0 .312.054.85.85 0 0 0 .396-.09.69.69 0 0 0 .39-.636l.096.36a.62.62 0 0 1-.162.438.94.94 0 0 1-.39.258 1.3 1.3 0 0 1-.456.084q-.252 0-.474-.102a.9.9 0 0 1-.348-.306.85.85 0 0 1-.132-.48.8.8 0 0 1 .282-.642q.288-.246.798-.246.3 0 .498.072a1.1 1.1 0 0 1 .486.294v.282a1.4 1.4 0 0 0-.432-.204 1.7 1.7 0 0 0-.474-.066q-.234 0-.384.06a.47.47 0 0 0-.216.168.45.45 0 0 0-.072.258m-.072-1.272-.234-.354q.156-.114.426-.228.276-.114.66-.114.324 0 .564.102.246.096.378.282a.74.74 0 0 1 .138.456v1.98h-.48V2.766a.5.5 0 0 0-.048-.234.36.36 0 0 0-.138-.15.6.6 0 0 0-.198-.078 1.352 1.352 0 0 0-.612.024q-.162.048-.276.114a2 2 0 0 0-.18.114m2.865 1.884q0-.138.096-.234a.332.332 0 0 1 .564.234.33.33 0 0 1-.096.234.332.332 0 0 1-.468 0 .33.33 0 0 1-.096-.234m0-2.28q0-.138.096-.234a.332.332 0 0 1 .564.234.33.33 0 0 1-.096.234.332.332 0 0 1-.468 0 .33.33 0 0 1-.096-.234m3.147 2.52 1.986-2.118q.138-.15.234-.294.102-.15.15-.3a1 1 0 0 0 .054-.324.7.7 0 0 0-.216-.51.8.8 0 0 0-.252-.174.8.8 0 0 0-.342-.066.85.85 0 0 0-.468.126.76.76 0 0 0-.294.354 1.3 1.3 0 0 0-.102.546h-.51q0-.45.162-.786.162-.342.468-.528.312-.192.744-.192.348 0 .6.12.252.114.414.3a1.2 1.2 0 0 1 .318.792q0 .324-.156.642a2.2 2.2 0 0 1-.402.57L43.346 4.2h1.914v.48zm4.046-2.1q0 .366.072.678.072.306.21.534.138.222.33.348.198.12.438.12a.8.8 0 0 0 .438-.12q.192-.126.33-.348.138-.228.21-.534.072-.312.072-.678t-.072-.672a1.8 1.8 0 0 0-.21-.534 1 1 0 0 0-.33-.348.8.8 0 0 0-.438-.126.8.8 0 0 0-.438.126q-.192.12-.33.348a1.8 1.8 0 0 0-.21.534 3 3 0 0 0-.072.672m-.51 0q0-.63.198-1.116t.546-.762q.354-.282.816-.282t.81.282q.354.276.552.762t.198 1.116-.198 1.116-.552.768a1.27 1.27 0 0 1-.81.276 1.3 1.3 0 0 1-.816-.276 1.9 1.9 0 0 1-.546-.768 2.9 2.9 0 0 1-.198-1.116m3.478 2.1 1.986-2.118q.138-.15.234-.294.102-.15.15-.3a1 1 0 0 0 .054-.324.7.7 0 0 0-.216-.51.8.8 0 0 0-.252-.174.8.8 0 0 0-.342-.066.85.85 0 0 0-.468.126.76.76 0 0 0-.294.354 1.3 1.3 0 0 0-.102.546h-.51q0-.45.162-.786.162-.342.468-.528.312-.192.744-.192.348 0 .6.12.252.114.414.3a1.2 1.2 0 0 1 .318.792q0 .324-.156.642a2.2 2.2 0 0 1-.402.57L50.36 4.2h1.914v.48zm6.44-1.38q0 .36-.114.63t-.318.45-.468.27-.57.09q-.384 0-.672-.12a1.6 1.6 0 0 1-.486-.318 2.2 2.2 0 0 1-.336-.444l.432-.294q.096.18.252.342.162.156.372.258.21.096.438.096.3 0 .51-.12a.8.8 0 0 0 .318-.336q.114-.216.114-.504a1 1 0 0 0-.126-.504.85.85 0 0 0-.336-.336.95.95 0 0 0-.48-.12q-.198 0-.366.036-.162.03-.33.114a3 3 0 0 0-.378.228L53.758.48h1.98v.45h-1.584l-.282 1.11q.15-.078.306-.114.162-.042.318-.042.36 0 .642.18.288.18.45.498t.162.738m.813 1.14q0-.138.096-.234a.332.332 0 0 1 .564.234.33.33 0 0 1-.096.234.332.332 0 0 1-.468 0 .33.33 0 0 1-.096-.234m1.709-3.132V.78l1.44-.36v4.26h-.51V1.032zm2.97 1.272q0 .366.073.678.072.306.21.534.138.222.33.348.198.12.438.12a.8.8 0 0 0 .438-.12q.192-.126.33-.348.138-.228.21-.534.072-.312.072-.678t-.072-.672a1.8 1.8 0 0 0-.21-.534 1 1 0 0 0-.33-.348.8.8 0 0 0-.438-.126.8.8 0 0 0-.438.126q-.192.12-.33.348a1.8 1.8 0 0 0-.21.534 3 3 0 0 0-.072.672m-.51 0q0-.63.199-1.116.198-.486.546-.762.354-.282.816-.282t.81.282q.354.276.552.762t.198 1.116-.198 1.116-.552.768a1.27 1.27 0 0 1-.81.276 1.3 1.3 0 0 1-.816-.276 1.9 1.9 0 0 1-.546-.768 2.9 2.9 0 0 1-.198-1.116m3.928 1.86q0-.138.096-.234a.332.332 0 0 1 .564.234.33.33 0 0 1-.096.234.332.332 0 0 1-.468 0 .33.33 0 0 1-.096-.234m1.71-3.132V.78l1.44-.36v4.26h-.51V1.032zM69.375 3.3q0 .288.12.51a.95.95 0 0 0 .336.342.95.95 0 0 0 .486.126.92.92 0 0 0 .816-.468q.126-.222.126-.51t-.126-.51a.87.87 0 0 0-.336-.354.9.9 0 0 0-.48-.126.95.95 0 0 0-.486.126.9.9 0 0 0-.336.354q-.12.222-.12.51M70.57.48h.642l-1.314 1.734-.036-.03q.12-.15.276-.198a1.3 1.3 0 0 1 .846.054q.228.102.396.288.174.186.27.438.096.246.096.534 0 .432-.192.756a1.3 1.3 0 0 1-.51.504q-.318.18-.726.18-.402 0-.726-.18a1.36 1.36 0 0 1-.516-.504 1.5 1.5 0 0 1-.186-.756q0-.258.072-.48t.192-.39zM27.475 9.61h.57l1.5 2.07h-.63zm-.75-2.13h.51v4.2h-.51zm.282.45v-.45h.858q.408 0 .726.156.324.15.51.432.192.282.192.672 0 .384-.192.672a1.24 1.24 0 0 1-.51.438q-.318.15-.726.15h-.858v-.45h.858q.27 0 .474-.096a.73.73 0 0 0 .324-.276q.12-.18.12-.438a.77.77 0 0 0-.12-.438.73.73 0 0 0-.324-.276 1.1 1.1 0 0 0-.474-.096zm3.477 2.49.18-.48h1.86l.18.48zm1.098-1.992-.708 1.668-.048.108-.624 1.476h-.57l1.95-4.41 1.95 4.41h-.57l-.612-1.44-.048-.12zm2.461-.948h.51v4.2h-.51zm2.16 0h.63l-1.818 1.968 1.908 2.232h-.63l-1.896-2.22zm.994.48v-.48h2.67v.48h-1.08v3.72h-.51V7.96zm2.85 2.88 2.327-3.36h.21v4.2h-.51V8.614l-1.188 1.776h2.358v.45zm4.163-.54q0 .288.12.51a.95.95 0 0 0 .336.342.95.95 0 0 0 .486.126.92.92 0 0 0 .816-.468q.126-.222.126-.51t-.126-.51a.87.87 0 0 0-.336-.354.9.9 0 0 0-.48-.126.95.95 0 0 0-.486.126.9.9 0 0 0-.336.354q-.12.222-.12.51m1.194-2.82h.642l-1.314 1.734-.036-.03q.12-.15.276-.198a1.3 1.3 0 0 1 .846.054q.228.102.396.288.174.186.27.438.096.246.096.534 0 .432-.192.756a1.3 1.3 0 0 1-.51.504q-.318.18-.726.18-.402 0-.726-.18a1.36 1.36 0 0 1-.516-.504 1.5 1.5 0 0 1-.186-.756q0-.258.072-.48t.192-.39zm4.621 2.82q0 .36-.114.63t-.318.45-.468.27-.57.09q-.384 0-.672-.12a1.6 1.6 0 0 1-.486-.318 2.2 2.2 0 0 1-.336-.444l.432-.294q.096.18.252.342.162.156.372.258.21.096.438.096.3 0 .51-.12a.8.8 0 0 0 .318-.336q.114-.216.114-.504a1 1 0 0 0-.126-.504.85.85 0 0 0-.336-.336.95.95 0 0 0-.48-.12q-.198 0-.366.036-.162.03-.33.114a3 3 0 0 0-.378.228l.552-2.238h1.98v.45H48.43l-.282 1.11q.15-.078.306-.114.162-.042.318-.042.36 0 .642.18.288.18.45.498t.162.738m1.03 0q0 .288.12.51a.95.95 0 0 0 .335.342.95.95 0 0 0 .486.126.92.92 0 0 0 .816-.468q.126-.222.126-.51t-.126-.51a.87.87 0 0 0-.336-.354.9.9 0 0 0-.48-.126.95.95 0 0 0-.486.126.9.9 0 0 0-.336.354q-.12.222-.12.51m1.193-2.82h.642l-1.314 1.734-.036-.03q.12-.15.276-.198a1.3 1.3 0 0 1 .846.054q.228.102.396.288.174.186.27.438.096.246.096.534 0 .432-.192.756a1.3 1.3 0 0 1-.51.504q-.318.18-.726.18-.402 0-.726-.18a1.36 1.36 0 0 1-.516-.504 1.5 1.5 0 0 1-.186-.756q0-.258.072-.48t.192-.39zm3.997 0h.48l-2.43 5.1h-.48zm1.318 2.1q0 .366.072.678.072.306.21.534.138.222.33.348.198.12.438.12a.8.8 0 0 0 .438-.12q.192-.126.33-.348.138-.228.21-.534.072-.312.072-.678t-.072-.672a1.8 1.8 0 0 0-.21-.534 1 1 0 0 0-.33-.348.8.8 0 0 0-.438-.126.8.8 0 0 0-.438.126q-.192.12-.33.348a1.8 1.8 0 0 0-.21.534 3 3 0 0 0-.072.672m-.51 0q0-.63.198-1.116t.546-.762q.354-.282.816-.282t.81.282q.354.276.552.762t.198 1.116-.198 1.116-.552.768a1.27 1.27 0 0 1-.81.276 1.3 1.3 0 0 1-.816-.276 1.9 1.9 0 0 1-.546-.768 2.9 2.9 0 0 1-.198-1.116m6.028-.72a1 1 0 0 0-.126-.504.915.915 0 0 0-.816-.474.95.95 0 0 0-.486.126.94.94 0 0 0-.336.348q-.12.216-.12.504t.12.51a1 1 0 0 0 .336.354.95.95 0 0 0 .486.126q.27 0 .48-.126a.9.9 0 0 0 .336-.354q.126-.222.126-.51m-1.194 2.82h-.642l1.314-1.734.036.03a.56.56 0 0 1-.282.198 1.2 1.2 0 0 1-.36.048 1.18 1.18 0 0 1-.882-.39 1.4 1.4 0 0 1-.264-.432 1.5 1.5 0 0 1-.096-.54q0-.432.186-.756.192-.324.516-.504t.726-.18q.408 0 .726.18.324.18.51.504.192.324.192.756 0 .258-.072.48a1.4 1.4 0 0 1-.192.39zm2.129-.24q0-.138.096-.234a.332.332 0 0 1 .564.234.33.33 0 0 1-.096.234.332.332 0 0 1-.468 0 .33.33 0 0 1-.096-.234m1.349.24 1.986-2.118q.138-.15.234-.294.102-.15.15-.3a1 1 0 0 0 .054-.324.7.7 0 0 0-.216-.51.8.8 0 0 0-.252-.174.8.8 0 0 0-.342-.066.85.85 0 0 0-.468.126.76.76 0 0 0-.294.354 1.3 1.3 0 0 0-.102.546h-.51q0-.45.162-.786.162-.342.468-.528.312-.192.744-.192.348 0 .6.12.252.114.414.3a1.2 1.2 0 0 1 .318.792q0 .324-.156.642a2.2 2.2 0 0 1-.402.57L66.415 11.2h1.914v.48zm6.44-1.38q0 .36-.114.63t-.318.45-.468.27-.57.09q-.384 0-.672-.12a1.6 1.6 0 0 1-.486-.318 2.2 2.2 0 0 1-.336-.444l.432-.294q.096.18.252.342.162.156.372.258.21.096.438.096.3 0 .51-.12a.8.8 0 0 0 .318-.336q.114-.216.114-.504a1 1 0 0 0-.126-.504.85.85 0 0 0-.336-.336.95.95 0 0 0-.48-.12q-.198 0-.366.036-.162.03-.33.114a3 3 0 0 0-.378.228l.552-2.238h1.98v.45h-1.584l-.282 1.11q.15-.078.306-.114.162-.042.318-.042.36 0 .642.18.288.18.45.498t.162.738"/></svg>