<svg xmlns="http://www.w3.org/2000/svg" fill="none" viewBox="0 0 123 25"><path fill="#4d4d4d" d="M.768 4.624q.192.336.4.592.216.256.48.4t.6.144q.449 0 .72-.248a.82.82 0 0 0 .272-.632q0-.375-.176-.6a1.3 1.3 0 0 0-.464-.36 5 5 0 0 0-.6-.256 6 6 0 0 1-.464-.184 2.7 2.7 0 0 1-.488-.296 1.6 1.6 0 0 1-.384-.448 1.34 1.34 0 0 1-.144-.648q0-.415.208-.744t.576-.512a1.8 1.8 0 0 1 .84-.192q.456 0 .792.176.345.168.584.44.24.264.376.56l-.584.336a2.3 2.3 0 0 0-.264-.408 1.3 1.3 0 0 0-.392-.328 1.1 1.1 0 0 0-.552-.128q-.456 0-.664.224A.69.69 0 0 0 1.232 2q0 .232.12.432.12.192.4.368.287.168.776.336.225.08.472.208.248.128.456.328.216.192.352.472.136.272.136.656 0 .368-.144.664-.136.296-.384.504-.24.208-.552.32a1.8 1.8 0 0 1-.64.112q-.456 0-.848-.192a2.5 2.5 0 0 1-.68-.52 3.3 3.3 0 0 1-.472-.696zm4.423.56a.66.66 0 0 0 .096.36q.104.152.28.232.183.072.416.072.296 0 .528-.12a.92.92 0 0 0 .52-.848l.128.48q0 .353-.216.584-.208.233-.52.344a1.8 1.8 0 0 1-.608.112q-.336 0-.632-.136a1.2 1.2 0 0 1-.464-.408 1.13 1.13 0 0 1-.176-.64q0-.536.376-.856.383-.328 1.064-.328.4 0 .664.096.271.088.432.208.159.112.216.184v.376a1.9 1.9 0 0 0-.576-.272 2.2 2.2 0 0 0-.632-.088q-.312 0-.512.08a.6.6 0 0 0-.288.224.6.6 0 0 0-.096.344m-.096-1.696-.312-.472a3 3 0 0 1 .568-.304 2.3 2.3 0 0 1 .88-.152q.431 0 .752.136.327.127.504.376a1 1 0 0 1 .184.608v2.64h-.64V3.768a.66.66 0 0 0-.064-.312.5.5 0 0 0-.184-.2.8.8 0 0 0-.264-.104 1.802 1.802 0 0 0-.816.032 1.7 1.7 0 0 0-.368.152 3 3 0 0 0-.24.152m6.02.592q0-.456-.2-.688-.201-.232-.585-.232-.28 0-.496.12a.8.8 0 0 0-.328.32 1 1 0 0 0-.112.48v2.24h-.64V2.64h.64v.576q.184-.337.456-.496.28-.16.64-.16.585 0 .92.392.345.384.344 1.048v2.32h-.64zm4.602-4h.64v6.24h-.64zm-3.08 4.4q0-.6.248-1.024.248-.433.665-.664a1.84 1.84 0 0 1 .911-.232q.465 0 .809.232t.536.664q.2.424.2 1.024 0 .592-.2 1.024-.192.433-.536.664a1.4 1.4 0 0 1-.809.232 1.84 1.84 0 0 1-.912-.232 1.73 1.73 0 0 1-.663-.664q-.248-.433-.248-1.024m.649 0q0 .425.168.72.175.296.463.448t.624.152q.28 0 .553-.152.27-.151.447-.448.176-.295.176-.72t-.176-.72a1.2 1.2 0 0 0-.447-.448 1.1 1.1 0 0 0-.553-.152q-.335 0-.623.152-.288.151-.464.448a1.44 1.44 0 0 0-.168.72m3.914 0q0-.56.248-.992.256-.432.688-.68a1.9 1.9 0 0 1 .968-.248q.544 0 .968.248.432.248.68.68.256.432.256.992 0 .552-.256.992a1.8 1.8 0 0 1-.68.68 1.9 1.9 0 0 1-.968.248 1.9 1.9 0 0 1-.968-.248 1.87 1.87 0 0 1-.688-.68 2 2 0 0 1-.248-.992m.648 0q0 .384.16.68.168.296.448.472.288.168.648.168t.64-.168a1.23 1.23 0 0 0 .448-.472q.168-.296.168-.68t-.168-.68a1.16 1.16 0 0 0-.448-.472 1.2 1.2 0 0 0-.64-.168q-.36 0-.648.168-.28.168-.448.472-.16.296-.16.68m5.722-1.24h-2.04v-.6h3.2l-2.28 3.08h2.12v.6h-3.28zm4.694.36v-.64h3.84v.64zM31.648.72h.68v5.6h-.68zm-3.76 0h.68v5.6h-.68zm6.319 4.16q0 .44.2.68t.584.24q.28 0 .488-.112a.8.8 0 0 0 .328-.328.94.94 0 0 0 .12-.48V2.64h.64v3.68h-.64v-.576a1.33 1.33 0 0 1-.456.496 1.24 1.24 0 0 1-.64.16q-.575 0-.92-.392-.345-.391-.344-1.048V2.64h.64zm5.923-.8q0-.456-.2-.688t-.584-.232q-.28 0-.496.12a.8.8 0 0 0-.328.32 1 1 0 0 0-.112.48v2.24h-.64V2.64h.64v.576q.184-.337.456-.496.28-.16.64-.16.584 0 .92.392.344.384.344 1.048v2.32h-.64zm1.595 2.48h.648q0 .264.144.488.144.232.408.368.264.144.624.144.28 0 .552-.136.271-.136.448-.432.184-.288.184-.752v-3.6h.64v3.6q0 .631-.264 1.056a1.7 1.7 0 0 1-.68.648q-.415.216-.88.216-.536 0-.952-.2a1.54 1.54 0 0 1-.64-.568 1.5 1.5 0 0 1-.232-.832m-.072-2.08q0-.6.248-1.024.248-.433.664-.664t.912-.232q.465 0 .808.232t.536.664q.2.424.2 1.024 0 .592-.2 1.024-.192.433-.536.664a1.4 1.4 0 0 1-.808.232q-.495 0-.912-.232a1.73 1.73 0 0 1-.664-.664q-.248-.433-.248-1.024m.648 0q0 .425.168.72.176.296.464.448t.624.152q.28 0 .552-.152.271-.151.448-.448.176-.295.176-.72 0-.32-.104-.56a1.2 1.2 0 0 0-.28-.416 1.2 1.2 0 0 0-.376-.256 1.1 1.1 0 0 0-.416-.088q-.336 0-.624.152a1.17 1.17 0 0 0-.464.448 1.44 1.44 0 0 0-.168.72m4.523.76q0 .192.088.328a.6.6 0 0 0 .256.2q.175.064.432.064.32 0 .568-.096a.8.8 0 0 0 .384-.304q.144-.209.144-.552l.128.4a1 1 0 0 1-.192.608 1.2 1.2 0 0 1-.496.384q-.312.128-.696.128-.376 0-.664-.128a1.1 1.1 0 0 1-.448-.376 1.06 1.06 0 0 1-.152-.576q0-.432.208-.712.207-.288.56-.432.36-.144.8-.144.351 0 .6.096.255.088.408.208.151.112.208.184v.376a2 2 0 0 0-1.184-.376q-.32 0-.536.088a.67.67 0 0 0-.312.248.7.7 0 0 0-.104.384m0-1.736-.312-.488q.207-.152.56-.304.351-.152.848-.152.424 0 .736.136.32.127.496.376a1 1 0 0 1 .184.608v2.64h-.64V3.68a.45.45 0 0 0-.24-.416 1 1 0 0 0-.536-.144q-.264 0-.48.072-.217.064-.376.16a3 3 0 0 0-.24.152M49.2.88l-1.44 1.2-.36-.24L48.6.56zm1.858 1.76v3.68h-.64V2.64zm1.112.704a1 1 0 0 0-.232-.136.6.6 0 0 0-.264-.048q-.24 0-.376.12a.65.65 0 0 0-.192.328 2 2 0 0 0-.048.472h-.288q0-.44.152-.776.16-.344.408-.544a.8.8 0 0 1 .504-.2q.2 0 .368.056a.7.7 0 0 1 .32.2zm.99-2.224q0-.184.129-.312a.442.442 0 0 1 .752.312.44.44 0 0 1-.128.312.442.442 0 0 1-.624 0 .44.44 0 0 1-.128-.312m.12 1.52h.64v3.68h-.64zm2.247 2.544a.66.66 0 0 0 .096.36q.104.152.28.232.183.072.416.072.295 0 .528-.12a.92.92 0 0 0 .52-.848l.128.48q0 .353-.216.584-.208.233-.52.344a1.8 1.8 0 0 1-.608.112q-.336 0-.632-.136a1.2 1.2 0 0 1-.464-.408 1.13 1.13 0 0 1-.176-.64q0-.536.376-.856.383-.328 1.064-.328.4 0 .664.096.272.088.432.208.159.112.216.184v.376a1.9 1.9 0 0 0-.576-.272 2.2 2.2 0 0 0-.632-.088q-.312 0-.512.08a.6.6 0 0 0-.288.224.6.6 0 0 0-.096.344m-.096-1.696-.312-.472q.208-.152.568-.304a2.3 2.3 0 0 1 .88-.152q.431 0 .752.136.327.127.504.376a1 1 0 0 1 .184.608v2.64h-.64V3.768a.66.66 0 0 0-.064-.312.5.5 0 0 0-.184-.2.8.8 0 0 0-.264-.104 1.802 1.802 0 0 0-.816.032 1.7 1.7 0 0 0-.368.152q-.153.089-.24.152M61.529.72h.68v5.6h-.68zm2.88 0h.84l-2.424 2.624 2.544 2.976h-.84L62 3.36zm1.323 1.92h1.84v.6h-1.84zM67.508.848q-.08-.136-.192-.168a.6.6 0 0 0-.2-.04q-.12 0-.208.072a.44.44 0 0 0-.128.224 1.5 1.5 0 0 0-.048.424v4.96h-.64V1.28q0-.44.128-.72a.9.9 0 0 1 .36-.416A1.1 1.1 0 0 1 67.156 0q.176 0 .312.048a.86.86 0 0 1 .392.272zm.233 1.792h1.84v.6h-1.84zm.6-1.28h.64v4.96h-.64zM70.383 6q0-.184.128-.312a.442.442 0 0 1 .752.312.44.44 0 0 1-.128.312.442.442 0 0 1-.624 0A.44.44 0 0 1 70.383 6M.56 10.824v-.704l1.92-.48v5.68H1.8v-4.864zm3.602 0v-.704l1.92-.48v5.68h-.68v-4.864zm3.601 0v-.704l1.92-.48v5.68h-.68v-4.864zm3.122 3.376 3.104-4.48h.28v5.6h-.68v-4.088L12.005 13.6h3.144v.6zm8.078-1.84v-.376h.904q.28 0 .504-.096a.8.8 0 0 0 .352-.28.77.77 0 0 0 .128-.448q0-.4-.28-.616-.28-.224-.704-.224h-.76v4.4h.84q.36 0 .632-.128a.98.98 0 0 0 .432-.368q.16-.24.16-.584 0-.256-.088-.456a.9.9 0 0 0-.256-.336 1 1 0 0 0-.384-.2 1.6 1.6 0 0 0-.496-.072h-.984V12.2h.984q.408 0 .752.088.345.089.6.272.264.176.408.456t.144.664q0 .552-.256.92-.248.36-.68.544a2.5 2.5 0 0 1-.968.176h-1.52v-5.6h1.44q.504 0 .872.152.375.152.584.464.208.304.208.784 0 .391-.208.672a1.27 1.27 0 0 1-.584.424 2.4 2.4 0 0 1-.872.144zm4.525 1.52q0 .44.2.68t.584.24q.28 0 .488-.112a.8.8 0 0 0 .328-.328.94.94 0 0 0 .12-.48v-2.24h.64v3.68h-.64v-.576a1.33 1.33 0 0 1-.456.496q-.271.16-.64.16-.575 0-.92-.392-.344-.391-.344-1.048v-2.32h.64zm6.323-4.8h.64v6.24h-.64zm-3.08 4.4q0-.6.248-1.024.249-.433.664-.664a1.84 1.84 0 0 1 .912-.232q.465 0 .808.232.345.232.536.664.2.424.2 1.024 0 .592-.2 1.024-.191.433-.536.664a1.4 1.4 0 0 1-.808.232 1.84 1.84 0 0 1-.912-.232 1.73 1.73 0 0 1-.664-.664q-.248-.432-.248-1.024m.648 0q0 .424.168.72.176.296.464.448t.624.152q.28 0 .552-.152.272-.151.448-.448.176-.295.176-.72 0-.424-.176-.72a1.2 1.2 0 0 0-.448-.448 1.1 1.1 0 0 0-.552-.152q-.336 0-.624.152-.288.151-.464.448a1.44 1.44 0 0 0-.168.72m4.523.704a.66.66 0 0 0 .096.36q.104.152.28.232.183.072.416.072.295 0 .528-.12a.92.92 0 0 0 .52-.848l.128.48q0 .353-.216.584-.208.233-.52.344a1.8 1.8 0 0 1-.608.112q-.336 0-.632-.136a1.2 1.2 0 0 1-.464-.408 1.13 1.13 0 0 1-.176-.64q0-.536.376-.856.384-.328 1.064-.328.4 0 .664.096.272.088.432.208.159.112.216.184v.376a1.9 1.9 0 0 0-.576-.272 2.2 2.2 0 0 0-.632-.088q-.312 0-.512.08a.6.6 0 0 0-.288.224.6.6 0 0 0-.096.344m-.096-1.696-.312-.472a3 3 0 0 1 .568-.304 2.3 2.3 0 0 1 .88-.152q.431 0 .752.136.327.127.504.376a1 1 0 0 1 .184.608v2.64h-.64v-2.552a.66.66 0 0 0-.064-.312.5.5 0 0 0-.184-.2.8.8 0 0 0-.264-.104 1.8 1.8 0 0 0-.816.032 1.7 1.7 0 0 0-.368.152q-.153.089-.24.152m4.26 4.592h-.64v-5.44h.64zm3.08-3.6q0 .592-.249 1.024-.247.433-.664.664a1.8 1.8 0 0 1-.912.232q-.456 0-.808-.232a1.6 1.6 0 0 1-.544-.664q-.192-.432-.192-1.024 0-.6.192-1.024.2-.433.544-.664.352-.232.808-.232.504 0 .912.232.417.232.664.664.248.424.248 1.024m-.649 0q0-.424-.176-.72a1.1 1.1 0 0 0-.456-.448 1.3 1.3 0 0 0-.624-.152q-.279 0-.552.152-.271.151-.448.448a1.4 1.4 0 0 0-.176.72q0 .424.176.72.177.296.448.448.273.152.552.152.345 0 .624-.152.288-.151.456-.448.177-.295.176-.72m2.955 1.92q-.512 0-.912-.24a1.73 1.73 0 0 1-.616-.68 2.2 2.2 0 0 1-.216-1q0-.576.224-1.008a1.7 1.7 0 0 1 .64-.672q.416-.24.96-.24t.928.232q.392.224.6.648t.208 1.008a1 1 0 0 1-.008.12v.072h-3.144v-.544h2.64l-.256.368a.6.6 0 0 0 .048-.12.6.6 0 0 0 .024-.144q0-.328-.136-.568a.94.94 0 0 0-.36-.376 1.06 1.06 0 0 0-.544-.136q-.368 0-.632.16-.255.151-.4.448a1.7 1.7 0 0 0-.144.712q0 .432.136.736t.4.464.64.16.664-.16q.288-.168.488-.504l.52.328q-.288.465-.728.704-.432.232-1.024.232m2.845-1.208q.112.168.256.312t.328.232q.192.08.416.08.272 0 .424-.12.16-.128.16-.344a.43.43 0 0 0-.128-.32.9.9 0 0 0-.312-.224 4 4 0 0 0-.408-.176 6 6 0 0 1-.488-.224 1.4 1.4 0 0 1-.408-.344.88.88 0 0 1-.16-.536q0-.328.168-.544a1.05 1.05 0 0 1 .448-.32 1.64 1.64 0 0 1 1.592.248q.2.16.312.368l-.512.328a1.3 1.3 0 0 0-.384-.344.97.97 0 0 0-.512-.136.65.65 0 0 0-.344.088.3.3 0 0 0-.144.272q0 .144.112.256t.288.2.368.168q.32.128.584.28.264.144.416.352.16.208.16.536 0 .48-.352.8-.344.32-.912.32-.368 0-.664-.128a1.7 1.7 0 0 1-.504-.344 1.7 1.7 0 0 1-.304-.424zm2.515-2.552h1.84v.6h-1.84zm.6-1.28h.64v4.96h-.64zm2.465 4.08.64.24-.88 2-.464-.168zm4.852-2.08v-.376h.904q.279 0 .504-.096a.8.8 0 0 0 .352-.28.77.77 0 0 0 .128-.448q0-.4-.28-.616-.28-.224-.704-.224h-.76v4.4h.84q.36 0 .632-.128a.98.98 0 0 0 .432-.368q.16-.24.16-.584 0-.256-.088-.456a.9.9 0 0 0-.256-.336 1 1 0 0 0-.384-.2 1.6 1.6 0 0 0-.496-.072h-.984V12.2h.984q.408 0 .752.088.345.089.6.272.264.176.408.456t.144.664q0 .552-.256.92-.248.36-.68.544a2.5 2.5 0 0 1-.968.176h-1.52v-5.6h1.44q.504 0 .872.152.375.152.584.464.208.304.208.784 0 .391-.208.672a1.27 1.27 0 0 1-.584.424 2.4 2.4 0 0 1-.872.144zm4.173 1.824a.66.66 0 0 0 .096.36q.104.152.28.232.183.072.416.072.295 0 .528-.12a.92.92 0 0 0 .52-.848l.128.48q0 .353-.216.584-.208.233-.52.344a1.8 1.8 0 0 1-.608.112q-.336 0-.632-.136a1.2 1.2 0 0 1-.464-.408 1.13 1.13 0 0 1-.176-.64q0-.536.376-.856.383-.328 1.064-.328.4 0 .664.096.272.088.432.208.159.112.216.184v.376a1.9 1.9 0 0 0-.576-.272 2.2 2.2 0 0 0-.632-.088q-.312 0-.512.08a.6.6 0 0 0-.288.224.6.6 0 0 0-.096.344m-.096-1.696-.312-.472a3 3 0 0 1 .568-.304 2.3 2.3 0 0 1 .88-.152q.431 0 .752.136.327.127.504.376a1 1 0 0 1 .184.608v2.64h-.64v-2.552a.66.66 0 0 0-.064-.312.5.5 0 0 0-.184-.2.8.8 0 0 0-.264-.104 1.8 1.8 0 0 0-.816.032 1.7 1.7 0 0 0-.368.152q-.153.089-.24.152m4.3-.848v3.68h-.64v-3.68zm1.111.704a1 1 0 0 0-.232-.136.6.6 0 0 0-.264-.048q-.24 0-.376.12a.65.65 0 0 0-.192.328 2 2 0 0 0-.048.472h-.288q0-.44.152-.776.16-.344.408-.544a.8.8 0 0 1 .504-.2q.2 0 .368.056a.7.7 0 0 1 .32.2zm.43-.704h1.84v.6h-1.84zm.6-1.28h.64v4.96h-.64zm1.562 3.12q0-.56.248-.992.256-.432.688-.68a1.9 1.9 0 0 1 .968-.248q.545 0 .968.248.432.248.68.68.256.432.256.992 0 .552-.256.992a1.8 1.8 0 0 1-.68.68 1.9 1.9 0 0 1-.968.248 1.9 1.9 0 0 1-.968-.248 1.87 1.87 0 0 1-.688-.68 2 2 0 0 1-.248-.992m.648 0q0 .384.16.68.168.296.448.472.288.168.648.168t.64-.168q.288-.176.448-.472.168-.296.168-.68t-.168-.68a1.16 1.16 0 0 0-.448-.472 1.2 1.2 0 0 0-.64-.168q-.36 0-.648.168-.28.169-.448.472-.16.296-.16.68m2.536-3.76-1.44 1.2-.36-.24 1.2-1.28zm1.464-.64h.64v6.24h-.64zm2 2.56h.8l-1.6 1.52 1.76 2.16h-.8l-1.76-2.16zm4.537.72v-.376h.904q.28 0 .504-.096a.8.8 0 0 0 .352-.28.77.77 0 0 0 .128-.448q0-.4-.28-.616-.279-.224-.704-.224h-.76v4.4h.84q.36 0 .632-.128a.98.98 0 0 0 .432-.368q.16-.24.16-.584 0-.256-.088-.456a.9.9 0 0 0-.256-.336 1 1 0 0 0-.384-.2 1.6 1.6 0 0 0-.496-.072h-.984V12.2h.984q.408 0 .752.088.345.089.6.272.264.176.408.456t.144.664q0 .552-.256.92-.248.36-.68.544a2.5 2.5 0 0 1-.968.176h-1.52v-5.6h1.44q.504 0 .872.152.377.152.584.464.209.304.208.784 0 .391-.208.672a1.27 1.27 0 0 1-.584.424 2.4 2.4 0 0 1-.872.144zm3.973 1.28v-.544h2.456a1.25 1.25 0 0 0-.16-.504.82.82 0 0 0-.344-.344 1.04 1.04 0 0 0-.536-.128q-.32 0-.584.136a1.07 1.07 0 0 0-.424.392 1.1 1.1 0 0 0-.152.592l-.016.24q0 .424.144.72t.408.448.624.152q.273 0 .48-.08.216-.088.384-.232a1.5 1.5 0 0 0 .288-.352l.52.328a3 3 0 0 1-.408.496 1.6 1.6 0 0 1-.544.328q-.32.112-.8.112-.495 0-.896-.248a1.8 1.8 0 0 1-.624-.68 2.15 2.15 0 0 1-.224-.992 2.4 2.4 0 0 1 .032-.392q.08-.456.32-.8t.616-.536q.385-.192.856-.192.52 0 .912.232t.608.656q.216.415.216 1v.096a1 1 0 0 1-.008.096zm2.696-3.84-1.44 1.2-.36-.24 1.2-1.28zm1.334-.72h.64v6.24h-.64zm2.131 5.104a.66.66 0 0 0 .096.36q.105.152.28.232.185.072.416.072.297 0 .528-.12a.92.92 0 0 0 .52-.848l.128.48q0 .353-.216.584-.208.233-.52.344a1.8 1.8 0 0 1-.608.112q-.335 0-.632-.136a1.2 1.2 0 0 1-.464-.408 1.13 1.13 0 0 1-.176-.64q0-.536.376-.856.384-.328 1.064-.328.4 0 .664.096.273.088.432.208.16.112.216.184v.376a1.9 1.9 0 0 0-.576-.272 2.2 2.2 0 0 0-.632-.088q-.311 0-.512.08a.6.6 0 0 0-.288.224.6.6 0 0 0-.096.344m-.096-1.696-.312-.472q.208-.152.568-.304a2.3 2.3 0 0 1 .88-.152q.432 0 .752.136.328.127.504.376a1 1 0 0 1 .184.608v2.64h-.64v-2.552a.66.66 0 0 0-.064-.312.5.5 0 0 0-.184-.2.8.8 0 0 0-.264-.104 1.801 1.801 0 0 0-.816.032 1.7 1.7 0 0 0-.368.152q-.151.089-.24.152m8.418 2.832v-3.68h.64v3.68zm-1.72-1.44q0 .456.192.688.2.232.592.232a.96.96 0 0 0 .488-.12.8.8 0 0 0 .328-.328.93.93 0 0 0 .12-.472h.288q0 .44-.192.784a1.45 1.45 0 0 1-.496.536q-.312.2-.696.2-.567 0-.92-.36-.344-.368-.344-1.08v-2.32h.64zm1.816-4.16-1.44 1.2-.352-.24 1.2-1.28zm1.187 1.92h1.84v.6h-1.84zm.6-1.28h.64v4.96h-.64zm3.841 3.84 3.104-4.48h.28v5.6h-.68v-4.088l-1.584 2.368h3.144v.6zm6.528-1.64v-.44q.271 0 .48-.072.208-.08.352-.208a.9.9 0 0 0 .216-.312 1.06 1.06 0 0 0-.016-.84.7.7 0 0 0-.288-.32.9.9 0 0 0-.464-.112.95.95 0 0 0-.664.248.77.77 0 0 0-.272.608h-.648q0-.44.2-.768.207-.329.56-.512.36-.192.816-.192.48 0 .824.208.351.208.536.544.192.337.192.736 0 .392-.232.72a1.6 1.6 0 0 1-.64.52q-.409.192-.952.192m.24 2.84q-.408 0-.736-.12a1.7 1.7 0 0 1-.56-.328 1.489 1.489 0 0 1-.488-1.112h.688a.84.84 0 0 0 .136.472 1 1 0 0 0 .392.328q.247.12.568.12t.552-.12a.9.9 0 0 0 .368-.352 1.05 1.05 0 0 0 .128-.528.9.9 0 0 0-.104-.448.86.86 0 0 0-.272-.328 1.2 1.2 0 0 0-.408-.2 2 2 0 0 0-.504-.064v-.44q.408 0 .76.088.36.088.632.28.279.184.432.48.16.296.16.712 0 .473-.232.824-.225.352-.616.544-.393.192-.896.192m2.143-1.68v-.6h1.6v.6zm1.8.48 3.104-4.48h.28v5.6h-.68v-4.088l-1.584 2.368h3.144v.6zm4.744-3.84v-.64h3.92l-2.68 5.6h-.712l2.376-4.96zm3.926 4.64q0-.184.128-.312a.443.443 0 0 1 .624 0q.128.128.128.312a.44.44 0 0 1-.128.312.443.443 0 0 1-.624 0 .44.44 0 0 1-.128-.312M0 19.36v-.64h3.56v.64H2.12v4.96h-.68v-4.96zm4.866 5.04q-.512 0-.912-.24a1.73 1.73 0 0 1-.616-.68 2.2 2.2 0 0 1-.216-1q0-.576.224-1.008a1.7 1.7 0 0 1 .64-.672q.415-.24.96-.24t.928.232q.392.224.6.648t.208 1.008a1 1 0 0 1-.008.12v.072H3.53v-.544h2.64l-.256.368a.6.6 0 0 0 .048-.12.6.6 0 0 0 .024-.144q0-.328-.136-.568a.94.94 0 0 0-.36-.376 1.06 1.06 0 0 0-.544-.136q-.368 0-.632.16-.256.151-.4.448a1.7 1.7 0 0 0-.144.712q0 .432.136.736t.4.464.64.16.664-.16q.288-.168.488-.504l.52.328q-.288.465-.728.704-.433.232-1.024.232m2.693-6.32h.64v6.24h-.64zM9.563 24q0-.184.128-.312a.442.442 0 0 1 .752.312.44.44 0 0 1-.128.312.442.442 0 0 1-.624 0A.44.44 0 0 1 9.563 24m2.398 0q0-.184.128-.312a.442.442 0 0 1 .752.312.44.44 0 0 1-.128.312.442.442 0 0 1-.624 0 .44.44 0 0 1-.128-.312m0-3.04q0-.184.128-.312a.442.442 0 0 1 .752.312.44.44 0 0 1-.128.312.442.442 0 0 1-.624 0 .44.44 0 0 1-.128-.312m4.197 2.24 3.104-4.48h.28v5.6h-.68v-4.088L17.278 22.6h3.144v.6zm6.528-1.64v-.44q.272 0 .48-.072.208-.08.352-.208a.9.9 0 0 0 .216-.312 1.06 1.06 0 0 0-.016-.84.7.7 0 0 0-.288-.32.9.9 0 0 0-.464-.112.95.95 0 0 0-.664.248.78.78 0 0 0-.272.608h-.648q0-.44.2-.768a1.44 1.44 0 0 1 .56-.512q.36-.192.816-.192.48 0 .824.208.352.208.536.544.192.337.192.736 0 .392-.232.72a1.6 1.6 0 0 1-.64.52q-.409.192-.952.192m.24 2.84a2.1 2.1 0 0 1-.736-.12 1.7 1.7 0 0 1-.56-.328 1.6 1.6 0 0 1-.36-.496 1.5 1.5 0 0 1-.128-.616h.688q0 .264.136.472a1 1 0 0 0 .392.328q.248.12.568.12.321 0 .552-.12a.9.9 0 0 0 .368-.352q.128-.224.128-.528 0-.256-.104-.448a.86.86 0 0 0-.272-.328 1.2 1.2 0 0 0-.408-.2 2 2 0 0 0-.504-.064v-.44q.408 0 .76.088.36.088.632.28.28.185.432.48.16.296.16.712 0 .473-.232.824a1.5 1.5 0 0 1-.616.544q-.392.192-.896.192m3.103-2.88q0 .488.096.904.096.409.28.712.185.296.44.464.264.16.584.16.329 0 .584-.16.257-.168.44-.464.184-.304.28-.712.096-.416.096-.904t-.096-.896a2.3 2.3 0 0 0-.28-.712 1.4 1.4 0 0 0-.44-.464 1.04 1.04 0 0 0-.584-.168q-.32 0-.584.168-.255.16-.44.464a2.3 2.3 0 0 0-.28.712q-.096.407-.096.896m-.68 0q0-.84.264-1.488.264-.647.728-1.016.473-.376 1.088-.376.617 0 1.08.376.472.368.736 1.016t.264 1.488-.264 1.488-.736 1.024q-.464.368-1.08.368a1.72 1.72 0 0 1-1.088-.368q-.464-.375-.728-1.024-.264-.648-.264-1.488m4.517 1.2v-.6h1.6v.6zm1.8 1.6 2.648-2.824q.184-.2.312-.392.135-.2.2-.4.072-.209.072-.432a.94.94 0 0 0-.288-.68 1 1 0 0 0-.336-.232 1.1 1.1 0 0 0-.456-.088q-.36 0-.624.168-.255.16-.392.472-.136.304-.136.728h-.68q0-.6.216-1.048.216-.456.624-.704.416-.256.992-.256.465 0 .8.16.336.152.552.4a1.62 1.62 0 0 1 .424 1.056q0 .432-.208.856a3 3 0 0 1-.536.76l-1.784 1.816h2.552v.64zm5.035-4.248q0-.4.2-.72a1.5 1.5 0 0 1 .552-.52q.351-.192.792-.192.44 0 .784.192.351.192.552.52.207.32.208.72 0 .328-.112.592-.113.255-.32.44a1.3 1.3 0 0 1-.488.28 1.9 1.9 0 0 1-.624.096q-.344 0-.632-.096a1.4 1.4 0 0 1-.488-.28 1.3 1.3 0 0 1-.312-.44 1.5 1.5 0 0 1-.112-.592m.648.08q0 .263.12.464a.9.9 0 0 0 .328.312.93.93 0 0 0 .888 0 .84.84 0 0 0 .328-.312.84.84 0 0 0 .128-.464.93.93 0 0 0-.12-.472.8.8 0 0 0-.312-.32.9.9 0 0 0-.464-.12q-.257 0-.464.12a.84.84 0 0 0-.32.32 1 1 0 0 0-.112.472M36.5 22.8q0-.384.136-.68.144-.304.384-.504.248-.209.56-.312a2.14 2.14 0 0 1 1.32 0q.32.104.56.312.248.2.384.504.144.296.144.68 0 .328-.136.616a1.6 1.6 0 0 1-.368.512q-.233.225-.552.352-.312.12-.688.12-.377 0-.696-.12a1.8 1.8 0 0 1-.552-.352 1.7 1.7 0 0 1-.368-.512 1.5 1.5 0 0 1-.128-.616m.648-.08q0 .344.152.584.159.24.408.368.255.128.536.128.279 0 .528-.128.255-.128.408-.368.16-.24.16-.584a.96.96 0 0 0-.16-.544 1.1 1.1 0 0 0-.408-.392 1.03 1.03 0 0 0-.528-.144q-.28 0-.536.144a1.2 1.2 0 0 0-.408.392 1 1 0 0 0-.152.544m6.839-2.16q0-.384-.168-.672a1.22 1.22 0 0 0-1.088-.632q-.36 0-.648.168a1.25 1.25 0 0 0-.448.464q-.16.288-.16.672t.16.68q.168.296.448.472.288.168.648.168t.64-.168q.288-.176.448-.472.168-.296.168-.68m-1.592 3.76h-.856l1.752-2.312.048.04a.75.75 0 0 1-.376.264 1.6 1.6 0 0 1-.48.064 1.57 1.57 0 0 1-1.176-.52 1.9 1.9 0 0 1-.352-.576 2 2 0 0 1-.128-.72q0-.576.248-1.008.255-.432.688-.672.431-.24.968-.24.543 0 .968.24.432.24.68.672.255.432.256 1.008 0 .345-.096.64t-.256.52zm3.641-2.8q0 .488.096.904.096.409.28.712.185.296.44.464.264.16.584.16.328 0 .584-.16.256-.168.44-.464a2.5 2.5 0 0 0 .28-.712q.096-.416.096-.904t-.096-.896a2.3 2.3 0 0 0-.28-.712 1.4 1.4 0 0 0-.44-.464 1.04 1.04 0 0 0-.584-.168q-.32 0-.584.168-.255.16-.44.464a2.3 2.3 0 0 0-.28.712q-.096.407-.096.896m-.68 0q0-.84.264-1.488.264-.647.728-1.016.473-.376 1.088-.376t1.08.376q.472.368.736 1.016t.264 1.488-.264 1.488-.736 1.024q-.465.368-1.08.368a1.72 1.72 0 0 1-1.088-.368q-.464-.375-.728-1.024-.264-.648-.264-1.488m7.636.88q0-.184.127-.312a.442.442 0 0 1 .753.312.44.44 0 0 1-.128.312.442.442 0 0 1-.624 0 .44.44 0 0 1-.129-.312m4.076-1.76h.72l.92 2.392 1-2.672 1.072 2.688.928-2.408h.72l-1.6 3.96-1.112-2.68-1.048 2.68zm5.68 0h.72l.92 2.392 1-2.672 1.072 2.688.928-2.408h.72l-1.6 3.96-1.112-2.68-1.048 2.68zm5.68 0h.72l.92 2.392 1-2.672 1.072 2.688.928-2.408h.72l-1.6 3.96-1.112-2.68-1.048 2.68zm5.68 3.36q0-.184.129-.312a.442.442 0 0 1 .752.312.44.44 0 0 1-.128.312.442.442 0 0 1-.624 0A.44.44 0 0 1 74.11 24m2.391-.808q.112.168.256.312t.328.232q.192.08.416.08.272 0 .424-.12.16-.128.16-.344a.43.43 0 0 0-.128-.32.9.9 0 0 0-.312-.224 4 4 0 0 0-.408-.176 6 6 0 0 1-.488-.224 1.4 1.4 0 0 1-.408-.344.88.88 0 0 1-.16-.536q0-.328.168-.544a1.05 1.05 0 0 1 .448-.32 1.64 1.64 0 0 1 1.592.248q.2.16.312.368l-.512.328a1.3 1.3 0 0 0-.384-.344.97.97 0 0 0-.512-.136.65.65 0 0 0-.344.088.3.3 0 0 0-.144.272q0 .144.112.256t.288.2q.177.088.368.168.32.128.584.28.264.144.416.352.16.208.16.536 0 .48-.352.8-.344.32-.912.32-.368 0-.664-.128a1.7 1.7 0 0 1-.504-.344 1.7 1.7 0 0 1-.304-.424zm3.363-.008a.66.66 0 0 0 .096.36q.103.152.28.232.183.072.416.072.296 0 .528-.12a.92.92 0 0 0 .52-.848l.128.48q0 .353-.216.584-.208.233-.52.344a1.8 1.8 0 0 1-.608.112q-.336 0-.632-.136a1.2 1.2 0 0 1-.464-.408 1.13 1.13 0 0 1-.176-.64q0-.536.376-.856.383-.328 1.064-.328.4 0 .664.096.272.088.432.208.159.112.216.184v.376a1.9 1.9 0 0 0-.576-.272 2.2 2.2 0 0 0-.632-.088q-.312 0-.512.08a.6.6 0 0 0-.288.224.6.6 0 0 0-.096.344m-.096-1.696-.312-.472q.208-.152.568-.304a2.3 2.3 0 0 1 .88-.152q.431 0 .752.136.327.127.504.376a1 1 0 0 1 .184.608v2.64h-.64v-2.552a.66.66 0 0 0-.064-.312.5.5 0 0 0-.184-.2.8.8 0 0 0-.264-.104 1.801 1.801 0 0 0-.816.032 1.7 1.7 0 0 0-.368.152q-.153.089-.24.152m6.02.592q0-.456-.2-.688-.201-.232-.585-.232-.28 0-.496.12a.8.8 0 0 0-.328.32 1 1 0 0 0-.112.48v2.24h-.64v-3.68h.64v.576q.184-.337.456-.496.28-.16.64-.16.585 0 .92.392.345.384.344 1.048v2.32h-.64zm4.602-4h.64v6.24h-.64zm-3.08 4.4q0-.6.248-1.024.249-.433.664-.664a1.84 1.84 0 0 1 .912-.232q.465 0 .808.232.345.232.536.664.2.424.2 1.024 0 .592-.2 1.024-.191.432-.536.664a1.4 1.4 0 0 1-.808.232 1.84 1.84 0 0 1-.912-.232 1.73 1.73 0 0 1-.664-.664q-.248-.433-.248-1.024m.648 0q0 .424.168.72.176.296.464.448t.624.152q.28 0 .552-.152.273-.151.448-.448.176-.296.176-.72 0-.425-.176-.72a1.2 1.2 0 0 0-.448-.448 1.1 1.1 0 0 0-.552-.152q-.336 0-.624.152-.288.151-.464.448a1.44 1.44 0 0 0-.168.72m3.915 0q0-.56.248-.992.256-.432.688-.68a1.9 1.9 0 0 1 .968-.248q.543 0 .968.248.431.248.68.68.256.432.256.992 0 .552-.256.992a1.8 1.8 0 0 1-.68.68 1.9 1.9 0 0 1-.968.248 1.9 1.9 0 0 1-.968-.248 1.87 1.87 0 0 1-.688-.68 2 2 0 0 1-.248-.992m.648 0q0 .384.16.68.168.296.448.472.288.168.648.168t.64-.168q.288-.176.448-.472.168-.296.168-.68t-.168-.68a1.16 1.16 0 0 0-.448-.472 1.2 1.2 0 0 0-.64-.168q-.36 0-.648.168-.28.168-.448.472-.16.296-.16.68m5.722-1.24h-2.04v-.6h3.2l-2.28 3.08h2.12v.6h-3.28zm2.282 2.76q0-.184.128-.312a.44.44 0 0 1 .312-.128q.183 0 .312.128.128.128.128.312a.44.44 0 0 1-.128.312.43.43 0 0 1-.312.128.44.44 0 0 1-.44-.44m2.878-5.92v6.24h-.64v-6.24zm1.72 4q0-.456-.2-.688-.192-.232-.584-.232-.28 0-.496.12a.9.9 0 0 0-.328.328 1 1 0 0 0-.112.472h-.208q0-.44.168-.776.168-.344.456-.544.297-.2.68-.2t.664.16q.288.16.44.48.16.32.16.8v2.32h-.64zm2.483.8q0 .44.2.68t.584.24q.28 0 .488-.112a.8.8 0 0 0 .328-.328.94.94 0 0 0 .12-.48v-2.24h.64v3.68h-.64v-.576a1.3 1.3 0 0 1-.456.496q-.271.16-.64.16-.575 0-.92-.392-.344-.391-.344-1.048v-2.32h.64z"/></svg>