<svg xmlns="http://www.w3.org/2000/svg" fill="none" viewBox="0 0 266 73"><path fill="#fff" d="M.262 1.714h15.444V28h-5.109V6.16H5.371V28H.262zM20.219 28V2.104c1.443-.312 3.393-.507 5.343-.507 3.042 0 5.421.429 7.137 2.028 1.56 1.365 2.262 3.549 2.262 5.772 0 2.847-.858 4.836-2.223 6.318-1.638 1.716-4.29 2.496-6.396 2.496h-1.014V28zm5.109-22.074v8.112c.234.078.507.078.819.078 2.574 0 3.744-1.833 3.744-4.29 0-2.301-.936-4.095-3.315-4.095-.468 0-.936.078-1.248.195m20.086-4.524c6.357 0 8.151 6.981 8.151 12.987 0 9.906-3.51 13.923-8.502 13.923-5.967 0-8.307-6.318-8.307-13.533 0-7.176 2.847-13.377 8.658-13.377m-.195 4.446c-2.028 0-3.159 3.354-3.159 9.009 0 5.967 1.131 9.009 3.198 9.009 2.145 0 2.964-3.9 2.964-9.243 0-4.602-.702-8.775-3.003-8.775M63.88.778h4.485v1.989c4.719.624 8.307 4.329 8.307 11.895 0 8.073-3.627 11.466-8.307 12.129v2.145H63.84v-2.145c-4.758-.702-8.307-4.056-8.307-12.012 0-7.722 4.25-11.388 8.346-12.012zm0 22.269V6.472c-1.56.468-3.237 2.574-3.237 8.385 0 5.421 1.638 7.839 3.237 8.19m4.446-16.575v16.575c1.716-.351 3.237-2.457 3.237-8.346 0-5.967-1.755-7.878-3.237-8.229M79.9 1.714h4.524v5.811c0 4.836-.312 9.36-.507 12.09h.078c.74-2.262 2.067-5.694 2.847-7.722l3.86-10.179h4.642V28h-4.485v-5.928c0-5.265.195-9.165.312-11.817h-.078c-.585 2.379-1.755 5.538-2.613 7.722L84.619 28h-4.72zm21.009 0h13.689V28h-5.109V6.16h-3.9v6.942c0 6.045-.39 11.349-3.705 13.923-.975.78-2.223 1.287-3.51 1.287l-1.092-4.329c.624-.156 1.287-.468 1.755-.936 1.521-1.56 1.872-4.368 1.872-9.477zm27.111 20.28h-4.719L122.131 28h-4.953l5.694-26.286h6.123L134.104 28h-4.953zm-4.212-3.978h3.744l-.858-5.499c-.273-1.599-.624-4.212-.858-5.967h-.117c-.273 1.755-.663 4.485-.936 6.006zm13.183-16.302h4.992v11.427h.39l4.29-11.427h5.616l-6.045 12.168c2.691 1.014 3.588 3.471 4.329 6.669.585 2.535 1.014 5.031 1.794 7.449h-5.109c-.624-1.872-1.014-4.017-1.443-6.084-.624-3.081-1.326-5.07-3.432-5.07h-.39V28h-4.992zM158.157 28V6.433h-4.641V1.714h14.43v4.719h-4.68V28zM170.62 1.714h4.524v5.811c0 4.836-.312 9.36-.507 12.09h.078c.741-2.262 2.067-5.694 2.847-7.722l3.861-10.179h4.641V28h-4.485v-5.928c0-5.265.195-9.165.312-11.817h-.078c-.585 2.379-1.755 5.538-2.613 7.722L175.339 28h-4.719zm19.996 0h4.992v11.427h.39l4.29-11.427h5.616l-6.045 12.168c2.691 1.014 3.588 3.471 4.329 6.669.585 2.535 1.014 5.031 1.794 7.449h-5.109c-.624-1.872-1.014-4.017-1.443-6.084-.624-3.081-1.326-5.07-3.432-5.07h-.39V28h-4.992zm27.173 20.28h-4.719L211.9 28h-4.953l5.694-26.286h6.123L223.873 28h-4.953zm-4.212-3.978h3.744l-.858-5.499c-.273-1.599-.624-4.212-.858-5.967h-.117c-.273 1.755-.663 4.485-.936 6.006zM.262 66.922V41.104c1.56-.351 3.588-.507 5.811-.507 2.457 0 4.836.312 6.669 1.872 1.404 1.17 1.989 2.925 1.989 4.758 0 2.34-1.209 4.602-3.822 5.733v.156c3.042.858 4.68 3.393 4.68 6.279 0 2.184-.702 3.861-1.95 5.148-1.56 1.716-4.212 2.652-8.619 2.652-1.95 0-3.588-.117-4.758-.273m5.109-22.347v6.942h1.092c1.833 0 3.237-1.56 3.237-3.705 0-1.911-.897-3.393-3.003-3.393-.546 0-1.014.039-1.326.156m0 10.725v7.878c.312.078.663.078 1.131.078 2.067 0 3.783-1.248 3.783-3.939 0-2.613-1.794-3.978-3.822-4.017zm13.198-9.438-.858-3.939c1.13-.78 3.315-1.521 5.81-1.521 4.993 0 7.333 3.042 7.333 6.474 0 2.691-1.794 5.304-4.446 5.967v.078c3.08.624 5.226 2.964 5.226 6.591 0 5.031-4.29 7.8-9.01 7.8-2.183 0-4.094-.507-5.303-1.17l.74-4.173c1.131.663 2.613 1.053 4.057 1.053 2.73 0 4.173-1.56 4.173-3.666 0-2.925-2.419-4.095-5.187-4.095h-.741V51.4h.506c2.34 0 4.68-1.131 4.68-3.549 0-1.833-1.13-3.081-3.314-3.081-1.21 0-2.652.507-3.666 1.092m18.505-5.148h13.533v21.918l2.067.078-.234 10.023h-3.86L48.383 67H36.957l-.195 5.733h-3.9l-.195-10.023 1.872-.078c.82-1.989 1.365-3.978 1.794-6.123.507-3.003.741-6.084.741-9.165zm4.68 4.446v3.042c0 3.003-.195 6.045-.624 8.853-.312 1.872-.78 3.9-1.326 5.499h5.733V45.16zm10.89-4.446h5.498l2.418 9.906c.351 1.482.663 3.042.858 4.212h.117c.234-1.248.39-2.847.624-4.329l1.755-9.789h5.187l-3.9 14.001c-.897 3.315-1.91 6.903-3.237 9.165-1.248 2.067-3.159 3.432-5.343 3.432-.897 0-1.56-.078-2.067-.234l.195-4.173c.234.039.624.117 1.248.117 1.326 0 2.418-1.365 2.808-2.652.195-.546.156-.975-.039-1.56zM75.167 67V45.433h-4.641v-4.719h14.43v4.719h-4.68V67zM87.63 40.714h4.524v5.811c0 4.836-.312 9.36-.507 12.09h.078c.741-2.262 2.067-5.694 2.847-7.722l3.861-10.179h4.641V67H98.59v-5.928c0-5.265.195-9.165.312-11.817h-.078c-.585 2.379-1.755 5.538-2.613 7.722L92.351 67h-4.72zM111.02 67h-5.421c.351-.78.702-1.794 1.014-2.808.702-2.652.702-6.318 2.652-8.385a4.2 4.2 0 0 1 1.872-1.131v-.078c-2.769-.858-4.524-3.003-4.524-6.318 0-2.691 1.014-4.563 2.418-5.733 1.677-1.365 4.017-1.95 6.669-1.95 1.95 0 3.978.156 5.577.507V67h-5.109V56.509h-.546c-.897 0-1.599.351-2.106.975-1.131 1.443-1.326 5.265-1.755 7.215-.195.78-.39 1.56-.741 2.301m5.148-14.469v-7.839c-.273-.039-.585-.117-1.014-.117-2.379 0-3.393 1.911-3.393 3.9 0 2.496 1.482 4.095 3.705 4.095.312 0 .429 0 .702-.039m15.834-11.817h4.524v5.811c0 4.836-.312 9.36-.507 12.09h.078c.741-2.262 2.067-5.694 2.847-7.722l3.861-10.179h4.641V67h-4.485v-5.928c0-5.265.195-9.165.312-11.817h-.078c-.585 2.379-1.755 5.538-2.613 7.722L136.72 67h-4.719zm28.738 0h13.533v21.918l2.067.078-.234 10.023h-3.861L172.049 67h-11.427l-.195 5.733h-3.9l-.195-10.023 1.872-.078c.819-1.989 1.365-3.978 1.794-6.123.507-3.003.741-6.084.741-9.165zm4.68 4.446v3.042c0 3.003-.195 6.045-.624 8.853-.312 1.872-.78 3.9-1.326 5.499h5.733V45.16zm13.771-4.446h4.524v5.811c0 4.836-.312 9.36-.507 12.09h.078c.741-2.262 2.067-5.694 2.847-7.722l3.861-10.179h4.641V67h-4.485v-5.928c0-5.265.195-9.165.312-11.817h-.078c-.585 2.379-1.755 5.538-2.613 7.722L183.909 67h-4.719zm28.887 20.28h-4.719L202.188 67h-4.953l5.694-26.286h6.123L214.161 67h-4.953zm-4.212-3.978h3.744l-.858-5.499c-.273-1.599-.624-4.212-.858-5.967h-.117c-.273 1.755-.663 4.485-.936 6.006zM217.047 67V41.104c1.443-.312 3.393-.507 5.343-.507 3.042 0 5.421.429 7.137 2.028 1.56 1.365 2.262 3.549 2.262 5.772 0 2.847-.858 4.836-2.223 6.318-1.638 1.716-4.29 2.496-6.396 2.496h-1.014V67zm5.109-22.074v8.112c.234.078.507.078.819.078 2.574 0 3.744-1.833 3.744-4.29 0-2.301-.936-4.095-3.315-4.095-.468 0-.936.078-1.248.195m23.83 6.279v4.251h-6.006v7.098h6.786V67h-11.895V40.714h11.427v4.446h-6.318v6.045zm4.234-10.491h4.524v5.811c0 4.836-.312 9.36-.507 12.09h.078c.741-2.262 2.067-5.694 2.847-7.722l3.861-10.179h4.641V67h-4.485v-5.928c0-5.265.195-9.165.312-11.817h-.078c-.585 2.379-1.755 5.538-2.613 7.722L254.939 67h-4.719z"/></svg>