<svg xmlns="http://www.w3.org/2000/svg" fill="none" viewBox="0 0 214 73"><path fill="#fff" d="M2.204.388h15.048V26h-4.978V4.72H7.182V26H2.204zM21.649 26V.768c1.406-.304 3.306-.494 5.206-.494 2.964 0 5.282.418 6.954 1.976 1.52 1.33 2.204 3.458 2.204 5.624 0 2.774-.836 4.712-2.166 6.156-1.596 1.672-4.18 2.432-6.232 2.432h-.988V26zm4.978-21.508v7.904c.228.076.494.076.798.076 2.508 0 3.648-1.786 3.648-4.18 0-2.242-.912-3.99-3.23-3.99-.456 0-.912.076-1.216.19M39.017.388h4.407V6.05c0 4.712-.303 9.12-.493 11.78h.076c.721-2.204 2.014-5.548 2.774-7.524L49.542.388h4.523V26h-4.37v-5.776c0-5.13.19-8.93.303-11.514h-.075c-.57 2.318-1.71 5.396-2.547 7.524L43.616 26h-4.599zm25.53 0h15.049V26h-4.978V4.72h-5.092V26h-4.978zM83.994 26V.768C85.4.464 87.3.274 89.2.274c2.964 0 5.282.418 6.954 1.976 1.52 1.33 2.204 3.458 2.204 5.624 0 2.774-.836 4.712-2.166 6.156-1.596 1.672-4.18 2.432-6.232 2.432h-.988V26zm4.978-21.508v7.904c.228.076.494.076.798.076 2.508 0 3.648-1.786 3.648-4.18 0-2.242-.912-3.99-3.23-3.99-.456 0-.912.076-1.216.19M101.36.388h4.408V6.05c0 4.712-.304 9.12-.494 11.78h.076c.722-2.204 2.014-5.548 2.774-7.524l3.762-9.918h4.522V26h-4.37v-5.776c0-5.13.19-8.93.304-11.514h-.076c-.57 2.318-1.71 5.396-2.546 7.524L105.958 26h-4.598zm30.313 10.222v4.142h-5.852v6.916h6.612V26h-11.59V.388h11.134V4.72h-6.156v5.89zM151.91 26l-.456-8.968c-.114-2.432-.304-5.738-.228-8.474h-.114a112 112 0 0 1-1.634 7.866l-2.204 9.158h-3.534l-2.128-9.006c-.494-2.052-1.178-5.244-1.558-8.018h-.114a284 284 0 0 1-.38 8.55L139.142 26h-4.294L136.71.388h5.244l2.052 9.272c.722 3.23 1.368 6.08 1.824 8.968h.076c.38-2.85.95-5.738 1.634-8.968l2.014-9.272h5.244L156.356 26zm18.913-15.39v4.142h-5.852v6.916h6.612V26h-11.59V.388h11.134V4.72h-6.156v5.89zM10.868 66.148H6.27L5.13 72H.304l5.548-25.612h5.966L16.796 72H11.97zm-4.104-3.876h3.648l-.836-5.358c-.266-1.558-.608-4.104-.836-5.814h-.114c-.266 1.71-.646 4.37-.912 5.852zm12.844-15.884h4.978v10.26h5.206v-10.26h4.978V72h-4.978V61.284h-5.206V72h-4.978zM41.938 72V50.986h-4.521v-4.598h14.06v4.598h-4.56V72zm12.145-25.612h4.408v5.662c0 4.712-.304 9.12-.494 11.78h.076c.722-2.204 2.014-5.548 2.774-7.524l3.762-9.918h4.522V72h-4.37v-5.776c0-5.13.19-8.93.304-11.514h-.076c-.57 2.318-1.71 5.396-2.546 7.524L58.68 72h-4.598zm19.482 0h13.072v4.256h-8.132v5.358c.722-.152 1.292-.19 2.014-.19 2.204 0 4.142.684 5.548 1.9 1.52 1.33 2.432 3.344 2.432 5.928 0 2.47-.76 4.446-2.128 5.814-1.748 1.862-4.484 2.736-8.17 2.736-1.9 0-3.496-.114-4.636-.266zm4.978 13.528v8.208c.342.076.684.076 1.102.076 1.178 0 2.128-.456 2.736-1.216.646-.76.95-1.824.95-2.964 0-1.178-.342-2.242-.988-2.964-.646-.76-1.558-1.254-2.66-1.254q-.627 0-1.14.114M91.49 46.388h4.408v5.662c0 4.712-.304 9.12-.494 11.78h.076c.722-2.204 2.014-5.548 2.774-7.524l3.762-9.918h4.522V72h-4.37v-5.776c0-5.13.19-8.93.304-11.514h-.076c-.57 2.318-1.71 5.396-2.546 7.524L96.087 72H91.49zm26.665-.304c6.194 0 7.942 6.802 7.942 12.654 0 9.652-3.42 13.566-8.284 13.566-5.814 0-8.094-6.156-8.094-13.186 0-6.992 2.774-13.034 8.436-13.034m-.19 4.332c-1.976 0-3.078 3.268-3.078 8.778 0 5.814 1.102 8.778 3.116 8.778 2.09 0 2.888-3.8 2.888-9.006 0-4.484-.684-8.55-2.926-8.55M131.521 72V50.986h-4.522v-4.598h14.06v4.598h-4.56V72zm12.144-25.612h4.408v5.662c0 4.712-.304 9.12-.494 11.78h.076c.722-2.204 2.014-5.548 2.774-7.524l3.762-9.918h4.522V72h-4.37v-5.776c0-5.13.19-8.93.304-11.514h-.076c-.57 2.318-1.71 5.396-2.546 7.524L148.263 72h-4.598zm19.482 0h4.864v11.134h.38l4.18-11.134h5.472l-5.89 11.856c2.622.988 3.496 3.382 4.218 6.498.57 2.47.988 4.902 1.748 7.258h-4.978c-.608-1.824-.988-3.914-1.406-5.928-.608-3.002-1.292-4.94-3.344-4.94h-.38V72h-4.864zm24.067-.304c6.194 0 7.942 6.802 7.942 12.654 0 9.652-3.42 13.566-8.284 13.566-5.814 0-8.094-6.156-8.094-13.186 0-6.992 2.774-13.034 8.436-13.034m-.19 4.332c-1.976 0-3.078 3.268-3.078 8.778 0 5.814 1.102 8.778 3.116 8.778 2.09 0 2.888-3.8 2.888-9.006 0-4.484-.684-8.55-2.926-8.55m11.303 21.508V46.768c1.52-.342 3.496-.494 5.662-.494 2.394 0 4.712.304 6.498 1.824 1.368 1.14 1.938 2.85 1.938 4.636 0 2.28-1.178 4.484-3.724 5.586v.152c2.964.836 4.56 3.306 4.56 6.118 0 2.128-.684 3.762-1.9 5.016-1.52 1.672-4.104 2.584-8.398 2.584-1.9 0-3.496-.114-4.636-.266m4.978-21.774v6.764h1.064c1.786 0 3.154-1.52 3.154-3.61 0-1.862-.874-3.306-2.926-3.306-.532 0-.988.038-1.292.152m0 10.45v7.676c.304.076.646.076 1.102.076 2.014 0 3.686-1.216 3.686-3.838 0-2.546-1.748-3.876-3.724-3.914z"/></svg>