<svg xmlns="http://www.w3.org/2000/svg" fill="none" viewBox="0 0 289 35"><path fill="#fff" d="M7.803 3.33v.79H3.439v-.79zm.686 0v10.75h-.841V3.33zm-5.345 0h.842l-.23 4.977q-.058 1.225-.154 2.17t-.273 1.632q-.17.679-.443 1.115-.266.435-.672.65-.399.206-.967.206h-.28v-.79l.235-.007q.362-.015.628-.17t.45-.502q.193-.348.31-.923.126-.583.207-1.447t.133-2.052zm12.497 9.96v.79h-5.02v-.79zm-4.792-9.96v10.75h-.842V3.33zm4.164 4.814v.79H10.62v-.79zm.59-4.813v.79H10.62v-.79zm1.755 0V14.08h-.849V3.33zm5.633 0-3.987 5.714h-1.986l-.088-.797h1.572l3.433-4.917zm-.775 10.749-3.728-5.146.48-.805 4.289 5.951zm4.648-10.1-3.093 10.1H22.9l3.418-10.75h.598zm2.784 10.1-3.101-10.1-.037-.65h.59l3.419 10.75zm-.488-3.795v.79h-4.843v-.79zm5.04-.576h-2.547v-.79H34.2q.79 0 1.277-.31.488-.317.71-.849.228-.538.228-1.203a3.1 3.1 0 0 0-.229-1.21 1.9 1.9 0 0 0-.709-.887q-.486-.34-1.277-.34H31.92v9.96h-.842V3.33H34.2q.99 0 1.669.407.687.405 1.033 1.13.355.723.355 1.675 0 .99-.347 1.706a2.43 2.43 0 0 1-1.026 1.085q-.68.376-1.684.376m9.558 1.02h.85q-.075 1.203-.488 1.978t-1.137 1.151q-.715.377-1.72.377-.776 0-1.395-.303a3 3 0 0 1-1.064-.87 4.2 4.2 0 0 1-.671-1.396 6.9 6.9 0 0 1-.23-1.846V7.517q0-1.012.23-1.81.236-.803.679-1.365.45-.569 1.085-.864a3.3 3.3 0 0 1 1.425-.295q.974 0 1.683.37.717.368 1.122 1.143.407.776.48 2.001h-.849q-.066-.99-.354-1.587-.28-.598-.797-.864-.517-.273-1.285-.273-.62 0-1.1.244a2.2 2.2 0 0 0-.805.694q-.324.45-.494 1.107-.17.65-.17 1.484V9.82q0 .82.155 1.492.162.663.472 1.144.318.48.783.738.473.25 1.1.251.798 0 1.314-.25.525-.252.812-.843.295-.598.37-1.624m4.76-7.398V14.08h-.835V3.33zm3.063 0v.79h-6.947v-.79zm3.815 5.581H52.9l-.014-.775h2.163q.65 0 1.1-.229.457-.229.694-.68.243-.45.243-1.107 0-.679-.236-1.122a1.43 1.43 0 0 0-.701-.657q-.465-.221-1.174-.221h-1.868v9.959h-.842V3.33h2.71q.687 0 1.233.17.553.163.938.51.383.34.583.871.206.531.206 1.262a2.7 2.7 0 0 1-.258 1.197 2.284 2.284 0 0 1-1.816 1.292zm-.06 5.168h-2.724l.45-.79h2.275q.65 0 1.107-.266.458-.273.701-.767.252-.503.252-1.197a2.7 2.7 0 0 0-.215-1.092 1.7 1.7 0 0 0-.657-.768q-.443-.288-1.13-.288h-1.609l.015-.775h2.252l.162.28q.62.075 1.07.443.459.37.71.938t.25 1.248q0 .982-.369 1.66-.369.673-1.018 1.027-.65.347-1.521.347m9.61-.79v.79h-5.02v-.79zm-4.791-9.96v10.75h-.842V3.33zm4.164 4.814v.79h-4.393v-.79zm.59-4.813v.79h-4.983v-.79zm6.908 4.813v.79H66.45v-.79zm-5.19-4.813V14.08h-.842V3.33zm5.892 0V14.08h-.85V3.33zm7.542 4.813v.79h-5.367v-.79zm-5.19-4.813V14.08h-.842V3.33zm5.892 0V14.08h-.85V3.33zm2.1 4.65h2.496q.982 0 1.647.385.672.376 1.011 1.063.34.68.34 1.587 0 .672-.2 1.24a2.7 2.7 0 0 1-.568.968 2.6 2.6 0 0 1-.938.634 3.5 3.5 0 0 1-1.292.222h-3.07V3.33h.848v9.96h2.222q.76 0 1.24-.317a1.8 1.8 0 0 0 .695-.842q.22-.524.221-1.13 0-.597-.221-1.1a1.8 1.8 0 0 0-.694-.82q-.48-.31-1.24-.31h-2.496zm7.76-4.65V14.08h-.849V3.33zm2.434 9.147L98.07 3.33h.834V14.08h-.834V4.918l-5.013 9.162h-.842V3.33h.842zM96.985.688h.753q0 .56-.259.989a1.73 1.73 0 0 1-.73.672q-.474.243-1.138.243-.996 0-1.572-.531-.57-.532-.569-1.373h.76q0 .51.31.886.311.369 1.071.369.739 0 1.056-.377.318-.376.318-.878m12.523 2.643V14.08h-.849V4.12h-4.983v9.96h-.85V3.33zm4.656 6.378h-2.547v-.79h2.547q.79 0 1.277-.31.487-.317.709-.849.228-.538.229-1.203a3.2 3.2 0 0 0-.229-1.21 1.9 1.9 0 0 0-.709-.887q-.488-.34-1.277-.34h-2.281v9.96h-.842V3.33h3.123q.99 0 1.668.407.687.405 1.034 1.13.354.723.354 1.675 0 .99-.347 1.706a2.43 2.43 0 0 1-1.026 1.085q-.68.376-1.683.376m9.602 3.581v.79h-5.02v-.79zm-4.791-9.96v10.75h-.842V3.33zm4.164 4.814v.79h-4.393v-.79zm.59-4.813v.79h-4.983v-.79zm7.587 0V14.08h-.849V4.12h-4.983v9.96h-.849V3.33zm4.56.65-3.093 10.099h-.871l3.418-10.75h.598zm2.783 10.099-3.1-10.1-.037-.65h.59l3.419 10.75zm-.487-3.795v.79h-4.843v-.79zm5.04-.576h-2.547v-.79h2.547q.79 0 1.277-.31.487-.317.709-.849.228-.538.229-1.203a3.2 3.2 0 0 0-.229-1.21 1.9 1.9 0 0 0-.709-.887q-.487-.34-1.277-.34h-2.281v9.96h-.842V3.33h3.123q.99 0 1.668.407.687.405 1.034 1.13.354.723.354 1.675 0 .99-.347 1.706a2.43 2.43 0 0 1-1.026 1.085q-.68.376-1.683.376m5.977-5.729-3.093 10.1h-.871l3.418-10.75h.598zm2.784 10.1-3.101-10.1-.037-.65h.591l3.418 10.75zm-.488-3.795v.79h-4.843v-.79zm4.036-6.954V14.08h-.834V3.33zm3.064 0v.79h-6.947v-.79zm-1.125 10.203q0-.259.163-.443.162-.185.457-.185a.6.6 0 0 1 .465.185q.17.184.17.443a.6.6 0 0 1-.17.435q-.17.178-.465.178t-.457-.178a.62.62 0 0 1-.163-.435M169.267 3.33V14.08h-.849V4.12h-4.983v9.96h-.849V3.33zm7.166 9.96v.789h-5.02v-.79zm-4.791-9.96V14.08h-.842V3.33zm4.164 4.813v.79h-4.393v-.79zm.591-4.813v.79h-4.984v-.79zm3.998 6.378h-2.547v-.79h2.547q.79 0 1.278-.31.487-.317.708-.849.23-.538.229-1.203 0-.657-.229-1.21a1.9 1.9 0 0 0-.708-.887q-.487-.34-1.278-.34h-2.281v9.96h-.842V3.33h3.123q.99 0 1.669.407.687.405 1.033 1.13.355.723.355 1.675 0 .99-.347 1.706a2.44 2.44 0 0 1-1.026 1.085q-.68.376-1.684.376m9.603 3.581v.79h-5.021v-.79zm-4.792-9.96v10.75h-.841V3.33zm4.164 4.814v.79h-4.393v-.79zm.591-4.813v.79h-4.984v-.79zm7.882 9.96v.789H190.8v-.79zm-6.873 0v3.403h-.842V13.29zm7.589 0v3.395h-.842V13.29zm-1.683-9.96v.79h-4.075v-.79zm.686 0V14.08h-.841V3.33zm-5.064 0h.834l-.148 3.89q-.043 1.035-.177 1.927-.125.885-.31 1.625a10 10 0 0 1-.406 1.306 6.6 6.6 0 0 1-.472.997q-.244.414-.495.672a1.26 1.26 0 0 1-.48.332h-.48v-.79h.391q.156-.185.384-.605.237-.42.48-1.137.251-.724.443-1.787.2-1.07.266-2.54zm15.897 0V14.08h-.849V4.12h-4.983v9.96h-.849V3.33zm4.656 6.378h-2.547v-.79h2.547q.79 0 1.277-.31.487-.317.709-.849.23-.538.229-1.203 0-.657-.229-1.21a1.9 1.9 0 0 0-.709-.887q-.487-.34-1.277-.34h-2.281v9.96h-.842V3.33h3.123q.99 0 1.668.407.687.405 1.034 1.13.354.723.354 1.675 0 .99-.347 1.706a2.43 2.43 0 0 1-1.026 1.085q-.68.376-1.683.376m4.84 2.769 5.013-9.147h.835V14.08h-.835V4.918l-5.013 9.162h-.841V3.33h.841zm7.661-9.147h.849l3.256 9.45 3.271-9.45h.834l-3.773 10.749h-.649zm-.258 0h.738l.103 6.068v4.681h-.841zm8.003 0h.745V14.08h-.841V9.4zm7.882 9.96v.789h-5.02v-.79zm-4.792-9.96V14.08h-.841V3.33zm4.164 4.813v.79h-4.392v-.79zm.591-4.813v.79h-4.983v-.79zm6.908 4.813v.79h-5.368v-.79zm-5.19-4.813V14.08h-.842V3.33zm5.891 0V14.08h-.849V3.33zm7.144 9.96v.789h-5.02v-.79zm-4.792-9.96V14.08h-.841V3.33zm4.164 4.813v.79h-4.392v-.79zm.591-4.813v.79h-4.983v-.79zm6.908 4.813v.79h-5.368v-.79zm-5.19-4.813V14.08h-.842V3.33zm5.891 0V14.08h-.849V3.33zm2.382 9.147 5.013-9.147h.834V14.08h-.834V4.918l-5.013 9.162h-.842V3.33h.842zm13.035.812v.79h-5.02v-.79zm-4.791-9.96v10.75h-.842V3.33zm4.164 4.814v.79h-4.393v-.79zm.59-4.813v.79h-4.983v-.79zm1.135 0h.849l3.256 9.45 3.27-9.45h.834l-3.772 10.749h-.65zm-.259 0h.739l.103 6.068v4.681h-.842zm8.003 0h.746V14.08h-.842V9.4zm-279.178 18V32.08H7.7v-9.96H2.716v9.96h-.85V21.33zm4.656 6.378h-2.547v-.79h2.547q.79 0 1.277-.31.488-.316.71-.849.228-.538.228-1.203a3.1 3.1 0 0 0-.229-1.21 1.9 1.9 0 0 0-.709-.887q-.487-.34-1.277-.34h-2.281v9.96h-.842V21.33h3.123q.99 0 1.669.407.686.405 1.033 1.13.354.723.355 1.675 0 .99-.347 1.706a2.43 2.43 0 0 1-1.027 1.085q-.679.376-1.683.376m10.621-2.163v2.326q0 1.07-.243 1.89-.237.812-.687 1.358a2.9 2.9 0 0 1-1.085.834 3.6 3.6 0 0 1-1.447.281 3.6 3.6 0 0 1-1.44-.28 3.06 3.06 0 0 1-1.092-.835q-.459-.546-.71-1.358-.243-.82-.243-1.89v-2.326q0-1.063.244-1.882.243-.82.694-1.366.458-.546 1.092-.827a3.5 3.5 0 0 1 1.44-.288q.805 0 1.447.288.642.28 1.1.827t.694 1.366.236 1.882m-.834 2.326v-2.34q0-.886-.177-1.544-.17-.664-.502-1.107a2.1 2.1 0 0 0-.827-.664 2.76 2.76 0 0 0-1.137-.222q-.62 0-1.115.222-.487.221-.827.664-.331.443-.509 1.107-.177.658-.177 1.544v2.34q0 .893.177 1.558.177.657.517 1.107.347.443.834.665a2.7 2.7 0 0 0 1.115.22q.642 0 1.13-.22.495-.222.826-.665.334-.45.502-1.107.17-.665.17-1.558m1.961-6.541h.842v2.982q0 .93.244 1.484.25.554.73.798.487.243 1.204.243.354 0 .701-.037a7.5 7.5 0 0 0 1.344-.265q.331-.097.657-.215v.798q-.31.111-.62.207-.31.088-.642.162a7.284 7.284 0 0 1-1.44.14q-.952 0-1.632-.325-.672-.324-1.033-1.055-.355-.731-.355-1.935zm5.464 0h.834V32.08h-.834zm3.23 9.147 5.014-9.147h.834V32.08h-.834v-9.162l-5.013 9.162h-.842V21.33h.842zm10.26-9.147V32.08h-.834V21.33zm3.064 0v.79h-6.947v-.79zm3.12.65L46.997 32.08h-.871l3.418-10.75h.598zm2.783 10.099-3.1-10.1-.037-.65h.59l3.419 10.75zm-.487-3.795v.79h-4.843v-.79zm2.788 2.193 5.013-9.147h.835V32.08h-.835v-9.162l-5.013 9.162h-.841V21.33h.841zm3.928-11.79h.753q0 .56-.258.989a1.73 1.73 0 0 1-.731.672q-.473.243-1.137.243-.997 0-1.573-.531-.568-.532-.568-1.373h.76q0 .51.31.886.31.369 1.07.369.74 0 1.056-.377.318-.376.318-.878m6.553 2.643V32.08h-.834V21.33zm3.064 0v.79h-6.947v-.79zm6.317 9.96v.789h-5.02v-.79zm-4.791-9.96V32.08h-.842V21.33zm4.164 4.813v.79h-4.393v-.79zm.59-4.813v.79h-4.983v-.79zm4.085 9.147 5.013-9.147h.834V32.08h-.834v-9.162l-5.013 9.162h-.842V21.33h.842zm13.434-4.334v.79h-5.367v-.79zm-5.19-4.813V32.08h-.842V21.33zm5.891 0V32.08h-.849V21.33zm7.1 7.397h.849q-.074 1.203-.487 1.979a2.7 2.7 0 0 1-1.137 1.151q-.717.377-1.72.377-.775 0-1.396-.303a3 3 0 0 1-1.063-.87 4.2 4.2 0 0 1-.672-1.396 6.9 6.9 0 0 1-.229-1.846v-2.303q0-1.012.23-1.81.235-.803.678-1.365.45-.569 1.086-.864a3.3 3.3 0 0 1 1.425-.295q.974 0 1.683.37.715.368 1.122 1.143.406.776.48 2.001h-.849q-.066-.99-.354-1.587-.28-.598-.798-.864-.517-.273-1.284-.273-.62 0-1.1.244a2.2 2.2 0 0 0-.805.694q-.326.45-.495 1.107-.17.65-.17 1.484v2.318q0 .82.156 1.491.162.665.472 1.145.317.48.783.738.472.25 1.1.251.797 0 1.314-.25.524-.252.812-.843.296-.598.369-1.624m4.759-7.397V32.08h-.834V21.33zm3.064 0v.79h-6.947v-.79zm3.807 6.378h-2.547v-.79h2.547q.79 0 1.277-.31.487-.316.709-.849.23-.538.229-1.203 0-.657-.229-1.21a1.9 1.9 0 0 0-.709-.887q-.487-.34-1.277-.34h-2.281v9.96h-.842V21.33h3.123q.99 0 1.668.407.687.405 1.034 1.13.354.723.354 1.675 0 .99-.347 1.706a2.43 2.43 0 0 1-1.026 1.085q-.68.376-1.683.376m6.863.76 2.606-7.138h.99l-3.404 8.903q-.132.318-.295.672a3 3 0 0 1-.413.65 1.9 1.9 0 0 1-.606.494q-.362.185-.878.185-.141 0-.333-.03a1.1 1.1 0 0 1-.258-.051l.059-.76q.081.022.251.036.177.015.281.015.39 0 .642-.2.258-.206.428-.53.177-.326.318-.687zm-2.694-7.138 2.938 7.08.244.827-.724.155-3.418-8.062zm7.889 0V32.08h-.849V21.33zm5.633 0-3.986 5.714h-1.986l-.089-.797h1.573l3.433-4.917zm-.775 10.749-3.728-5.146.48-.805 4.289 5.951zm9.174-.805-.066 3.396h-.768V32.08h-.893v-.805zm-7.575.805V21.33h.849v9.96h4.984v-9.96h.849v10.75zm9.241-1.602 5.013-9.147h.834V32.08h-.834v-9.162l-5.013 9.162h-.842V21.33h.842zm8.384-9.147V32.08h-.849V21.33zm2.156 4.931v.768h-2.252v-.768zm6.453-.716v2.326q0 1.07-.244 1.89-.236.812-.687 1.358-.45.547-1.092.834-.642.282-1.447.281a3.55 3.55 0 0 1-1.433-.28 3.05 3.05 0 0 1-1.1-.835q-.457-.546-.708-1.358-.244-.82-.244-1.89v-2.326q0-1.063.244-1.882.243-.82.694-1.366.458-.546 1.1-.827a3.5 3.5 0 0 1 1.432-.288q.812 0 1.454.288.643.28 1.093.827t.694 1.366.244 1.882m-.842 2.326v-2.34q0-.886-.177-1.544-.17-.664-.502-1.107a2.1 2.1 0 0 0-.827-.664 2.8 2.8 0 0 0-1.137-.222q-.627 0-1.122.222a2.1 2.1 0 0 0-.82.664q-.332.443-.509 1.107-.177.658-.177 1.544v2.34q0 .893.17 1.558.176.657.524 1.107.346.443.834.665.487.22 1.115.22.642 0 1.129-.22.495-.222.827-.665.333-.45.502-1.107.17-.665.17-1.558m1.806 3.662q0-.259.163-.443.162-.185.457-.185a.6.6 0 0 1 .465.185q.17.184.17.443a.6.6 0 0 1-.17.435q-.17.177-.465.178-.295 0-.457-.178a.62.62 0 0 1-.163-.435"/></svg>