<svg xmlns="http://www.w3.org/2000/svg" fill="none" viewBox="0 0 183 62"><path fill="#fff" d="M1.644.668h12.862V22.56H10.25V4.371H5.9V22.56H1.644zm16.62 21.892V.993c1.202-.26 2.826-.422 4.45-.422 2.534 0 4.515.357 5.944 1.689 1.3 1.137 1.884 2.956 1.884 4.807 0 2.371-.715 4.028-1.851 5.262-1.365 1.429-3.573 2.079-5.327 2.079h-.845v8.152zM22.52 4.176v6.756c.195.065.423.065.682.065 2.144 0 3.119-1.526 3.119-3.573 0-1.916-.78-3.41-2.761-3.41-.39 0-.78.065-1.04.162M33.11.668h3.767v4.84c0 4.028-.26 7.795-.422 10.069h.065c.617-1.884 1.722-4.742 2.371-6.431L42.106.668h3.865V22.56h-3.735v-4.937c0-4.385.162-7.633.26-9.841h-.065c-.488 1.98-1.462 4.612-2.176 6.43l-3.216 8.348h-3.93zm21.822 0h12.862V22.56h-4.255V4.371h-4.352V22.56h-4.255zM71.552 22.56V.993c1.202-.26 2.826-.422 4.45-.422 2.533 0 4.514.357 5.944 1.689 1.299 1.137 1.883 2.956 1.883 4.807 0 2.371-.714 4.028-1.85 5.262-1.365 1.429-3.574 2.079-5.328 2.079h-.844v8.152zm4.255-18.384v6.756c.195.065.422.065.682.065 2.144 0 3.118-1.526 3.118-3.573 0-1.916-.78-3.41-2.76-3.41-.39 0-.78.065-1.04.162M86.397.668h3.767v4.84c0 4.028-.26 7.795-.422 10.069h.065c.617-1.884 1.721-4.742 2.37-6.431L95.394.668h3.865V22.56h-3.735v-4.937c0-4.385.163-7.633.26-9.841h-.065c-.487 1.98-1.462 4.612-2.176 6.43l-3.216 8.348h-3.93zm25.908 8.738v3.54h-5.001v5.911h5.651v3.703h-9.906V.668h9.516v3.703h-5.261v5.035zm17.298 13.154-.39-7.665c-.097-2.079-.26-4.905-.195-7.243h-.097a96 96 0 0 1-1.397 6.723l-1.884 7.828h-3.02l-1.819-7.698c-.422-1.754-1.007-4.482-1.332-6.853h-.097a242 242 0 0 1-.325 7.308l-.357 7.6h-3.671L116.611.668h4.482l1.754 7.926c.617 2.76 1.169 5.196 1.559 7.665h.065c.325-2.436.812-4.905 1.397-7.665l1.721-7.926h4.482l1.332 21.892zm16.166-13.154v3.54h-5.002v5.911h5.651v3.703h-9.906V.668h9.517v3.703h-5.262v5.035zM9.049 56.558H5.12l-.974 5.002H.02l4.742-21.891h5.1l4.254 21.891H9.991zm-3.508-3.313H8.66l-.715-4.58c-.227-1.331-.52-3.507-.715-4.969h-.097c-.227 1.462-.552 3.735-.78 5.002zM16.52 39.67h4.255v8.77h4.45v-8.77h4.255V61.56h-4.255V52.4h-4.45v9.16H16.52zM35.607 61.56V43.599h-3.865v-3.93h12.017v3.93h-3.897V61.56zm10.38-21.891h3.767v4.839c0 4.027-.26 7.795-.422 10.069h.065c.617-1.884 1.721-4.742 2.371-6.431l3.216-8.477h3.865V61.56h-3.735v-4.937c0-4.385.162-7.633.26-9.841h-.066c-.487 1.98-1.461 4.612-2.176 6.43l-3.215 8.348h-3.93zm16.652 0h11.173v3.637h-6.95v4.58a7.7 7.7 0 0 1 1.72-.163c1.885 0 3.541.585 4.743 1.624 1.3 1.137 2.079 2.859 2.079 5.067 0 2.112-.65 3.8-1.82 4.97-1.493 1.591-3.832 2.338-6.982 2.338-1.624 0-2.989-.097-3.963-.227zm4.255 11.562v7.016c.292.065.584.065.942.065 1.007 0 1.819-.39 2.338-1.04.552-.649.812-1.558.812-2.533 0-1.007-.292-1.916-.844-2.533-.552-.65-1.332-1.072-2.274-1.072q-.536 0-.974.097M77.959 39.67h3.768v4.839c0 4.027-.26 7.795-.422 10.069h.065c.617-1.884 1.721-4.742 2.37-6.431l3.216-8.477h3.865V61.56h-3.735v-4.937c0-4.385.162-7.633.26-9.841h-.065c-.487 1.98-1.462 4.612-2.176 6.43l-3.216 8.348h-3.93zm22.791-.26c5.294 0 6.789 5.814 6.789 10.816 0 8.25-2.924 11.595-7.081 11.595-4.97 0-6.918-5.262-6.918-11.27 0-5.977 2.37-11.141 7.21-11.141m-.162 3.702c-1.69 0-2.631 2.794-2.631 7.503 0 4.97.942 7.503 2.663 7.503 1.787 0 2.469-3.248 2.469-7.698 0-3.832-.585-7.308-2.501-7.308m11.588 18.449V43.599h-3.865v-3.93h12.017v3.93h-3.897V61.56zm10.38-21.891h3.767v4.839c0 4.027-.259 7.795-.422 10.069h.065c.617-1.884 1.722-4.742 2.371-6.431l3.216-8.477h3.865V61.56h-3.735v-4.937c0-4.385.162-7.633.259-9.841h-.065c-.487 1.98-1.461 4.612-2.176 6.43l-3.215 8.348h-3.93zm16.652 0h4.158v9.516h.324l3.573-9.516h4.677l-5.034 10.133c2.241.845 2.988 2.891 3.605 5.554.487 2.111.845 4.19 1.494 6.204h-4.255c-.519-1.559-.844-3.345-1.201-5.067-.52-2.566-1.105-4.222-2.859-4.222h-.324v9.289h-4.158zm20.571-.26c5.294 0 6.788 5.814 6.788 10.816 0 8.25-2.923 11.595-7.081 11.595-4.969 0-6.918-5.262-6.918-11.27 0-5.977 2.371-11.141 7.211-11.141m-.163 3.702c-1.689 0-2.63 2.794-2.63 7.503 0 4.97.941 7.503 2.663 7.503 1.786 0 2.468-3.248 2.468-7.698 0-3.832-.584-7.308-2.501-7.308m9.661 18.384V39.993c1.3-.292 2.989-.422 4.84-.422 2.046 0 4.027.26 5.554 1.56 1.169.974 1.657 2.435 1.657 3.962 0 1.948-1.007 3.832-3.184 4.774v.13c2.534.715 3.898 2.826 3.898 5.23 0 1.818-.585 3.215-1.624 4.287-1.299 1.429-3.508 2.208-7.178 2.208-1.624 0-2.988-.097-3.963-.227m4.255-18.611v5.781h.91c1.526 0 2.696-1.299 2.696-3.085 0-1.592-.747-2.826-2.501-2.826-.455 0-.845.033-1.105.13m0 8.932v6.561c.26.065.552.065.942.065 1.722 0 3.151-1.04 3.151-3.28 0-2.177-1.494-3.313-3.183-3.346z"/></svg>