<svg xmlns="http://www.w3.org/2000/svg" fill="none" viewBox="0 0 223 77"><path fill="#fff" d="M1.76 6.32.88 2.28C2.04 1.48 4.28.72 6.84.72c5.12 0 7.52 3.12 7.52 6.64 0 2.76-1.84 5.44-4.56 6.12v.08c3.16.64 5.36 3.04 5.36 6.76 0 5.16-4.4 8-9.24 8-2.24 0-4.2-.52-5.44-1.2l.76-4.28c1.16.68 2.68 1.08 4.16 1.08 2.8 0 4.28-1.6 4.28-3.76 0-3-2.48-4.2-5.32-4.2H3.6V12h.52c2.4 0 4.8-1.16 4.8-3.64 0-1.88-1.16-3.16-3.4-3.16-1.24 0-2.72.52-3.76 1.12m25.696 15.52h-4.84l-1.2 6.16h-5.08l5.84-26.96h6.28L33.696 28h-5.08zm-4.32-4.08h3.84l-.88-5.64c-.28-1.64-.64-4.32-.88-6.12h-.12c-.28 1.8-.68 4.6-.96 6.16zm13.52-16.72h13.76v4.48h-8.56v5.64c.76-.16 1.36-.2 2.12-.2 2.32 0 4.36.72 5.84 2 1.6 1.4 2.56 3.52 2.56 6.24 0 2.6-.8 4.68-2.24 6.12-1.84 1.96-4.72 2.88-8.6 2.88-2 0-3.68-.12-4.88-.28zm5.24 14.24v8.64c.36.08.72.08 1.16.08 1.24 0 2.24-.48 2.88-1.28.68-.8 1-1.92 1-3.12 0-1.24-.36-2.36-1.04-3.12-.68-.8-1.64-1.32-2.8-1.32q-.66 0-1.2.12M63.2.72c6.52 0 8.36 7.16 8.36 13.32 0 10.16-3.6 14.28-8.72 14.28-6.12 0-8.52-6.48-8.52-13.88C54.32 7.08 57.24.72 63.2.72M63 5.28c-2.08 0-3.24 3.44-3.24 9.24 0 6.12 1.16 9.24 3.28 9.24 2.2 0 3.04-4 3.04-9.48 0-4.72-.72-9-3.08-9M77.271 28V5.88h-4.76V1.04h14.8v4.84h-4.8V28zm20.106-6.16h-4.84l-1.2 6.16h-5.08l5.84-26.96h6.28L103.619 28h-5.08zm-4.32-4.08h3.84l-.88-5.64c-.28-1.64-.64-4.32-.88-6.12h-.12c-.28 1.8-.68 4.6-.96 6.16zM9.88 48.72c6.52 0 8.36 7.16 8.36 13.32 0 10.16-3.6 14.28-8.72 14.28C3.4 76.32 1 69.84 1 62.44c0-7.36 2.92-13.72 8.88-13.72m-.2 4.56c-2.08 0-3.24 3.44-3.24 9.24 0 6.12 1.16 9.24 3.28 9.24 2.2 0 3.04-4 3.04-9.48 0-4.72-.72-9-3.08-9M44.905 76l-.48-9.44c-.12-2.56-.32-6.04-.24-8.92h-.12c-.48 2.88-1.2 6.2-1.72 8.28l-2.32 9.64h-3.72l-2.24-9.48c-.52-2.16-1.24-5.52-1.64-8.44h-.12c-.08 2.92-.24 6.32-.4 9l-.44 9.36h-4.52l1.96-26.96h5.52l2.16 9.76c.76 3.4 1.44 6.4 1.92 9.44h.08c.4-3 1-6.04 1.72-9.44l2.12-9.76h5.52L49.585 76zm8.509-26.96h4.64V55c0 4.96-.32 9.6-.52 12.4h.08c.76-2.32 2.12-5.84 2.92-7.92l3.96-10.44h4.76V76h-4.6v-6.08c0-5.4.2-9.4.32-12.12h-.08c-.6 2.44-1.8 5.68-2.68 7.92L58.254 76h-4.84zm20.508 0h5.12v11.72h.4l4.4-11.72h5.76l-6.2 12.48c2.76 1.04 3.68 3.56 4.44 6.84.6 2.6 1.04 5.16 1.84 7.64h-5.24c-.64-1.92-1.04-4.12-1.48-6.24-.64-3.16-1.36-5.2-3.52-5.2h-.4V76h-5.12zM92.086 76V49.44c1.48-.32 3.48-.52 5.48-.52 3.12 0 5.56.44 7.32 2.08 1.6 1.4 2.32 3.64 2.32 5.92 0 2.92-.88 4.96-2.28 6.48-1.68 1.76-4.4 2.56-6.56 2.56h-1.04V76zm5.24-22.64v8.32c.24.08.52.08.84.08 2.64 0 3.84-1.88 3.84-4.4 0-2.36-.96-4.2-3.4-4.2-.48 0-.96.08-1.28.2m20.601-4.64c6.52 0 8.36 7.16 8.36 13.32 0 10.16-3.6 14.28-8.72 14.28-6.12 0-8.52-6.48-8.52-13.88 0-7.36 2.92-13.72 8.88-13.72m-.2 4.56c-2.08 0-3.24 3.44-3.24 9.24 0 6.12 1.16 9.24 3.28 9.24 2.2 0 3.04-4 3.04-9.48 0-4.72-.72-9-3.08-9m19.138-5.2h4.6v2.04c4.84.64 8.52 4.44 8.52 12.2 0 8.28-3.72 11.76-8.52 12.44v2.2h-4.64v-2.2c-4.88-.72-8.52-4.16-8.52-12.32 0-7.92 4.36-11.68 8.56-12.32zm0 22.84v-17c-1.6.48-3.32 2.64-3.32 8.6 0 5.56 1.68 8.04 3.32 8.4m4.56-17v17c1.76-.36 3.32-2.52 3.32-8.56 0-6.12-1.8-8.08-3.32-8.44m12.638-4.88h14.04V76h-5.24V53.6h-4v7.12c0 6.2-.4 11.64-3.8 14.28-1 .8-2.28 1.32-3.6 1.32l-1.12-4.44c.64-.16 1.32-.48 1.8-.96 1.56-1.6 1.92-4.48 1.92-9.72zm26.247-.32c6.52 0 8.36 7.16 8.36 13.32 0 10.16-3.6 14.28-8.72 14.28-6.12 0-8.52-6.48-8.52-13.88 0-7.36 2.92-13.72 8.88-13.72m-.2 4.56c-2.08 0-3.24 3.44-3.24 9.24 0 6.12 1.16 9.24 3.28 9.24 2.2 0 3.04-4 3.04-9.48 0-4.72-.72-9-3.08-9M192.008 76V49.44c1.48-.32 3.48-.52 5.48-.52 3.12 0 5.56.44 7.32 2.08 1.6 1.4 2.32 3.64 2.32 5.92 0 2.92-.88 4.96-2.28 6.48-1.68 1.76-4.4 2.56-6.56 2.56h-1.04V76zm5.24-22.64v8.32c.24.08.52.08.84.08 2.64 0 3.84-1.88 3.84-4.4 0-2.36-.96-4.2-3.4-4.2-.48 0-.96.08-1.28.2m24.441 6.44v4.36h-6.16v7.28h6.96V76h-12.2V49.04h11.72v4.56h-6.48v6.2z"/></svg>