<svg xmlns="http://www.w3.org/2000/svg" fill="none" viewBox="0 0 300 90"><g fill="#fff"><path d="m17.436 51.506-6.23-24.068 4.176-1.081 2.298 8.88q.465-.891 1.539-1.902t3.01-1.513q1.551-.401 2.9-.205 1.36.175 2.412.898 1.066.702 1.826 1.896.773 1.173 1.175 2.723l2.663 10.29-4.264 1.104-2.654-10.255q-.42-1.62-1.528-2.274-1.11-.653-2.519-.288a3.9 3.9 0 0 0-1.53.772q-.671.531-1.057 1.289a4.6 4.6 0 0 0-.494 1.65q-.09.889.152 1.823l2.371 9.162zm18.085-11.769-2.664-10.29 4.247-1.099 2.654 10.255q.42 1.62 1.533 2.291 1.126.648 2.536.284a4.1 4.1 0 0 0 1.534-.755q.667-.548 1.036-1.302a4.6 4.6 0 0 0 .476-1.646 4.9 4.9 0 0 0-.134-1.826l-2.376-9.18 4.264-1.103 4.382 16.932-4.087 1.058-.603-1.893q-.226.434-.597.962a7.4 7.4 0 0 1-.896 1.04 6.2 6.2 0 0 1-1.25.907q-.74.417-1.76.681-3.172.822-5.317-.635-2.148-1.474-2.978-4.681m20.302-.367 1.84-3.428q.997.587 2.332.806 1.348.197 2.899-.205 1.375-.355 2.11-.922.734-.584.519-1.413a1.6 1.6 0 0 0-.31-.615q-.223-.28-.772-.44-.536-.18-1.436-.248-.906-.086-2.398-.038-.918.013-1.965-.111a7.6 7.6 0 0 1-2-.535 5.7 5.7 0 0 1-1.73-1.169q-.745-.766-1.06-1.982-.327-1.27.016-2.41a5.4 5.4 0 0 1 1.175-2.072 8.2 8.2 0 0 1 1.973-1.6 9.1 9.1 0 0 1 2.424-1.023q2.237-.579 3.929-.51a9.3 9.3 0 0 1 3.197.658l-1.428 3.566q-.82-.333-2.051-.447-1.22-.136-2.735.257-1.515.392-1.996 1.005-.48.614-.316 1.248.206.792 1.31.995 1.124.198 3.348.15a13 13 0 0 1 2.512.12q1.137.175 2.045.636.909.46 1.524 1.24.634.777.953 2.01.319 1.234-.007 2.37a5.2 5.2 0 0 1-1.135 2.08q-.808.943-2.034 1.655-1.221.729-2.701 1.113-2.379.615-4.473.443-2.076-.177-3.559-1.184m13.665-15.7-.899-3.472 2.89-.747-1.419-5.48 4.247-1.1 1.418 5.48 4.546-1.176.898 3.47-4.546 1.177 1.916 7.4q.374 1.446 1.068 2.093t1.769.37q1.005-.26 1.53-.698.522-.454.967-.983l2.477 2.16q-1 1.368-2.114 2.145-1.098.773-2.613 1.165-1.55.402-2.761.226-1.189-.162-2.073-.817-.888-.672-1.471-1.763a11.5 11.5 0 0 1-.952-2.516l-1.989-7.682z"/><path d="m55.595 65.8-3.404-13.152 2.282-.59 1.256 4.852q.255-.486.84-1.039.587-.552 1.646-.827.847-.219 1.584-.112.743.096 1.319.491.582.384.997 1.036.423.64.642 1.488l1.456 5.623-2.33.603-1.45-5.604q-.23-.885-.836-1.242t-1.376-.157a2.14 2.14 0 0 0-.836.421 2.1 2.1 0 0 0-.578.705q-.215.404-.27.902a2.8 2.8 0 0 0 .083.995l1.296 5.007zm9.883-6.43-1.456-5.623 2.32-.601 1.451 5.604q.23.886.838 1.252.615.354 1.386.155.471-.123.838-.412.365-.3.566-.712a2.5 2.5 0 0 0 .26-.9q.06-.487-.073-.998l-1.299-5.016 2.33-.603 2.395 9.253-2.233.578-.33-1.035a5 5 0 0 1-.326.527 4 4 0 0 1-.49.568 3.4 3.4 0 0 1-.683.495q-.404.228-.962.373-1.733.448-2.904-.348-1.175-.806-1.628-2.558m11.094-.201 1.005-1.873q.546.32 1.275.44.737.108 1.584-.112.75-.194 1.153-.504.4-.32.284-.772a.85.85 0 0 0-.17-.336q-.122-.153-.422-.24a3.3 3.3 0 0 0-.785-.136 11 11 0 0 0-1.31-.02 8 8 0 0 1-1.074-.062 4.1 4.1 0 0 1-1.092-.292 3.1 3.1 0 0 1-.946-.639q-.407-.419-.578-1.083a2.4 2.4 0 0 1 .008-1.317q.195-.636.642-1.132.454-.508 1.078-.874a5 5 0 0 1 1.324-.56q1.224-.316 2.147-.277a5.1 5.1 0 0 1 1.747.359l-.78 1.948q-.447-.181-1.12-.244-.667-.074-1.495.14t-1.09.55q-.263.334-.174.682.113.432.716.544.615.108 1.83.08.752-.03 1.373.067.62.096 1.117.347.497.252.833.679.346.423.52 1.098.176.673-.003 1.295-.169.619-.62 1.137a4.3 4.3 0 0 1-1.112.904 5.6 5.6 0 0 1-1.476.608q-1.3.336-2.444.242-1.135-.097-1.945-.647m7.467-8.58-.49-1.896 1.578-.41-.775-2.994 2.32-.6.776 2.994 2.484-.643.49 1.897-2.484.643 1.047 4.044q.203.789.584 1.143t.966.202q.549-.143.837-.38.285-.25.528-.538l1.354 1.18q-.547.748-1.156 1.172-.6.423-1.427.637-.847.219-1.51.123a2.4 2.4 0 0 1-1.132-.446 2.9 2.9 0 0 1-.804-.963 6.3 6.3 0 0 1-.52-1.376l-1.087-4.197z"/><path d="m103.392 70.374-6.23-24.068 4.176-1.08 2.298 8.88q.465-.892 1.538-1.903 1.074-1.011 3.012-1.512 1.55-.401 2.898-.206 1.361.175 2.413.899 1.065.702 1.826 1.896.773 1.172 1.175 2.723l2.663 10.29-4.264 1.103-2.654-10.254q-.42-1.622-1.529-2.274-1.108-.654-2.518-.288a3.9 3.9 0 0 0-1.53.771q-.671.531-1.057 1.29a4.6 4.6 0 0 0-.494 1.65q-.09.889.152 1.822l2.371 9.162zm18.085-11.769-2.664-10.29 4.246-1.098 2.655 10.254q.418 1.62 1.533 2.292 1.126.648 2.536.283a4.1 4.1 0 0 0 1.534-.754q.667-.549 1.036-1.302a4.6 4.6 0 0 0 .476-1.646 4.9 4.9 0 0 0-.134-1.827l-2.377-9.18 4.264-1.103 4.383 16.932-4.088 1.058-.602-1.893q-.227.434-.597.963t-.896 1.04a6.3 6.3 0 0 1-1.251.907q-.738.417-1.76.68-3.171.822-5.316-.635-2.148-1.474-2.978-4.68m20.302-.367 1.839-3.427q.998.587 2.333.806 1.348.195 2.898-.205 1.375-.356 2.112-.923.732-.584.518-1.412a1.6 1.6 0 0 0-.31-.616q-.223-.28-.772-.44-.536-.18-1.437-.248-.904-.084-2.397-.037-.918.011-1.965-.112a7.6 7.6 0 0 1-2-.535 5.7 5.7 0 0 1-1.731-1.169q-.744-.765-1.058-1.982-.328-1.268.015-2.41a5.4 5.4 0 0 1 1.175-2.071 8.2 8.2 0 0 1 1.973-1.601 9.1 9.1 0 0 1 2.424-1.023q2.237-.579 3.928-.509a9.3 9.3 0 0 1 3.197.658l-1.427 3.565q-.819-.332-2.052-.446-1.22-.135-2.734.256-1.515.393-1.996 1.006-.48.612-.316 1.247.204.793 1.31.996 1.123.198 3.347.148 1.377-.055 2.513.12 1.136.177 2.045.637t1.524 1.241q.633.775.953 2.01.319 1.233-.007 2.37a5.2 5.2 0 0 1-1.135 2.08q-.808.943-2.034 1.654a10.2 10.2 0 0 1-2.702 1.113q-2.378.615-4.472.443-2.076-.176-3.559-1.184m13.664-15.7-.898-3.471 2.89-.748-1.419-5.48 4.246-1.099 1.419 5.48 4.546-1.177.898 3.471-4.546 1.177 1.916 7.4q.373 1.444 1.068 2.092.693.648 1.768.37 1.005-.26 1.531-.697.521-.455.967-.984l2.477 2.16q-1 1.368-2.114 2.145-1.098.774-2.613 1.165-1.55.402-2.761.226-1.19-.162-2.073-.817-.889-.672-1.471-1.762a11.5 11.5 0 0 1-.953-2.517l-1.988-7.682z"/></g></svg>