<svg xmlns="http://www.w3.org/2000/svg" fill="none" viewBox="0 0 26 4"><path fill="#fff" d="M1.054 2.072h-.77l-.004-.24h.667a.74.74 0 0 0 .34-.07.48.48 0 0 0 .214-.21.7.7 0 0 0 .075-.342.73.73 0 0 0-.073-.346.44.44 0 0 0-.216-.203.84.84 0 0 0-.362-.068H.348v3.074h-.26V.349h.837q.211 0 .38.052.17.05.29.158.118.105.18.268.063.165.063.39 0 .205-.08.37a.71.71 0 0 1-.56.398zm-.018 1.595h-.84l.138-.244h.702a.67.67 0 0 0 .342-.082.56.56 0 0 0 .217-.237.8.8 0 0 0 .077-.37.8.8 0 0 0-.066-.337.52.52 0 0 0-.203-.237.63.63 0 0 0-.349-.088H.558l.004-.24h.695l.05.087q.192.022.33.137a.76.76 0 0 1 .22.289.94.94 0 0 1 .077.385q0 .303-.114.513a.8.8 0 0 1-.314.317 1 1 0 0 1-.47.107M2.323.349l.822 1.802L3.972.35h.301l-.998 2.069v1.249h-.26v-1.25L2.017.35zm3.973 3.08v.238H4.534v-.215l.912-1.232a4 4 0 0 0 .27-.404 1.6 1.6 0 0 0 .144-.319.97.97 0 0 0-.022-.63.53.53 0 0 0-.19-.24.53.53 0 0 0-.31-.087.55.55 0 0 0-.328.1.6.6 0 0 0-.21.272 1 1 0 0 0-.072.394h-.253q0-.276.103-.501A.9.9 0 0 1 4.874.44a.8.8 0 0 1 .465-.137q.252 0 .435.107.184.105.285.306.1.197.1.476 0 .15-.046.303-.044.15-.12.303-.075.15-.176.299a6 6 0 0 1-.205.291l-.77 1.042zm.726-1.4-.201-.062.137-1.618h1.401v.257H7.174l-.096 1.112a.9.9 0 0 1 .208-.12.75.75 0 0 1 .305-.06.75.75 0 0 1 .6.287q.109.14.168.338t.06.446q0 .24-.05.44t-.156.351a.7.7 0 0 1-.262.23.8.8 0 0 1-.376.082.774.774 0 0 1-.574-.226.9.9 0 0 1-.187-.286 1.3 1.3 0 0 1-.091-.406h.242q.022.22.1.374.077.152.205.23a.6.6 0 0 0 .305.077.501.501 0 0 0 .44-.223.8.8 0 0 0 .112-.271 1.6 1.6 0 0 0 .038-.367 1.2 1.2 0 0 0-.04-.324.8.8 0 0 0-.121-.262.56.56 0 0 0-.46-.237.64.64 0 0 0-.31.064.9.9 0 0 0-.212.173m3.464-.306v.558q0 .367-.059.638-.06.27-.168.445a.7.7 0 0 1-.272.262.74.74 0 0 1-.36.086.8.8 0 0 1-.296-.054.7.7 0 0 1-.24-.167 1 1 0 0 1-.177-.285 1.8 1.8 0 0 1-.112-.4 3 3 0 0 1-.038-.525v-.558q0-.367.059-.634.06-.268.17-.442a.73.73 0 0 1 .27-.26.75.75 0 0 1 .362-.086q.162 0 .294.055.135.054.24.166.106.11.177.278.073.169.112.399.038.23.038.524m-.253.59v-.627q0-.225-.025-.407a1.7 1.7 0 0 0-.073-.322.8.8 0 0 0-.123-.232.477.477 0 0 0-.387-.187.5.5 0 0 0-.267.073.6.6 0 0 0-.189.219q-.075.143-.114.36a3 3 0 0 0-.038.496v.627q0 .224.025.408.024.183.073.324a.9.9 0 0 0 .123.237q.075.095.17.145a.5.5 0 0 0 .22.048q.152 0 .266-.075a.6.6 0 0 0 .189-.226q.075-.15.112-.364.038-.216.038-.497m1.013 1.135h.046q.302 0 .506-.105a.8.8 0 0 0 .321-.292q.119-.188.169-.44.052-.252.052-.546V1.6q0-.26-.048-.458a1 1 0 0 0-.132-.33.6.6 0 0 0-.2-.201.5.5 0 0 0-.251-.068.45.45 0 0 0-.253.073.6.6 0 0 0-.19.2 1 1 0 0 0-.118.292q-.04.165-.04.346 0 .169.036.328.039.158.111.283.075.125.183.2a.45.45 0 0 0 .253.073.54.54 0 0 0 .28-.073.7.7 0 0 0 .214-.193 1 1 0 0 0 .14-.26 1 1 0 0 0 .054-.274l.125-.002q0 .207-.064.397a1.1 1.1 0 0 1-.18.332.9.9 0 0 1-.268.23.7.7 0 0 1-.333.082.66.66 0 0 1-.349-.09.8.8 0 0 1-.25-.251 1.2 1.2 0 0 1-.15-.356 1.7 1.7 0 0 1-.051-.415q0-.24.057-.448a1.2 1.2 0 0 1 .164-.37.8.8 0 0 1 .267-.253.7.7 0 0 1 .355-.09q.23 0 .397.097a.8.8 0 0 1 .275.276q.11.178.162.42.055.24.055.53v.26q0 .294-.037.563a2.3 2.3 0 0 1-.123.497q-.084.225-.234.394-.15.165-.374.26-.223.09-.531.09h-.048zm3.568-.018v.237h-1.762v-.215l.912-1.232q.17-.23.271-.404.1-.175.144-.319a.97.97 0 0 0-.023-.63.53.53 0 0 0-.19-.24.53.53 0 0 0-.31-.087.55.55 0 0 0-.327.1.6.6 0 0 0-.21.272 1 1 0 0 0-.073.394h-.253q0-.276.103-.501a.9.9 0 0 1 .296-.365.8.8 0 0 1 .465-.137q.252 0 .435.107.184.105.285.306.1.197.1.476 0 .15-.045.303-.045.15-.121.303-.075.15-.176.299a6 6 0 0 1-.205.291l-.77 1.042zm.726-1.402-.2-.061.136-1.618h1.401v.257h-1.185l-.095 1.112a.9.9 0 0 1 .207-.12.75.75 0 0 1 .305-.06.75.75 0 0 1 .6.287q.11.14.168.338.06.198.06.446 0 .24-.05.44t-.156.351a.7.7 0 0 1-.262.23.8.8 0 0 1-.376.082.774.774 0 0 1-.574-.226.9.9 0 0 1-.187-.286 1.3 1.3 0 0 1-.09-.406h.24q.025.22.1.374.079.152.206.23a.6.6 0 0 0 .305.077.501.501 0 0 0 .44-.223.8.8 0 0 0 .112-.271q.038-.162.038-.367 0-.175-.04-.324a.8.8 0 0 0-.121-.262.56.56 0 0 0-.46-.237.64.64 0 0 0-.31.064.9.9 0 0 0-.212.173m3.62.565v.237h-1.983v-.16L18.46.35h.21l-.28.567-.908 1.677zM18.73.35v3.318h-.25V.349zm2.433 2.436q0 .303-.119.51a.8.8 0 0 1-.319.312.95.95 0 0 1-.449.105.96.96 0 0 1-.453-.105.8.8 0 0 1-.32-.312 1.03 1.03 0 0 1-.115-.51q0-.195.066-.358a.825.825 0 0 1 .463-.47.9.9 0 0 1 .355-.065.89.89 0 0 1 .772.43.9.9 0 0 1 .119.463m-.256.002a.8.8 0 0 0-.084-.37.6.6 0 0 0-.551-.334.6.6 0 0 0-.328.089.6.6 0 0 0-.224.246.8.8 0 0 0-.08.37q0 .218.08.373a.6.6 0 0 0 .226.234.7.7 0 0 0 .33.08.66.66 0 0 0 .328-.08.57.57 0 0 0 .221-.234.8.8 0 0 0 .082-.374m.185-1.584a.85.85 0 0 1-.11.433.8.8 0 0 1-.293.299.8.8 0 0 1-.415.107.8.8 0 0 1-.422-.107.8.8 0 0 1-.289-.299.9.9 0 0 1-.105-.433q0-.29.105-.49a.75.75 0 0 1 .29-.305.83.83 0 0 1 .416-.105q.237 0 .422.105.184.105.292.306.108.2.109.49m-.253-.002a.75.75 0 0 0-.075-.342.57.57 0 0 0-.203-.232.5.5 0 0 0-.292-.087.54.54 0 0 0-.289.08.55.55 0 0 0-.198.228.8.8 0 0 0-.07.353q0 .198.07.344.072.143.198.224a.56.56 0 0 0 .294.077.55.55 0 0 0 .292-.077.55.55 0 0 0 .2-.224.76.76 0 0 0 .073-.344M23.3.35v.16l-1.18 3.158h-.265L23.031.586h-1.57V.349zm2.093 1.374v.558q0 .367-.06.638-.058.27-.168.445a.7.7 0 0 1-.271.262.74.74 0 0 1-.36.086.8.8 0 0 1-.296-.054.7.7 0 0 1-.24-.167 1 1 0 0 1-.177-.285 1.8 1.8 0 0 1-.112-.4 3 3 0 0 1-.039-.525v-.558q0-.367.06-.634.06-.268.17-.442a.73.73 0 0 1 .27-.26.75.75 0 0 1 .362-.086q.162 0 .294.055.135.054.239.166.106.11.178.278t.111.399.04.524m-.253.59v-.627q0-.225-.025-.407a1.7 1.7 0 0 0-.073-.322.8.8 0 0 0-.123-.232.477.477 0 0 0-.387-.187.5.5 0 0 0-.267.073.6.6 0 0 0-.189.219q-.075.143-.114.36a3 3 0 0 0-.039.496v.627q0 .224.025.408t.073.324a.9.9 0 0 0 .123.237q.076.095.171.145a.5.5 0 0 0 .219.048q.152 0 .267-.075a.6.6 0 0 0 .189-.226q.075-.15.111-.364.04-.216.04-.497"/></svg>