<svg xmlns="http://www.w3.org/2000/svg" fill="none" viewBox="0 0 221 81"><path fill="#000" d="M57.073 8.772c1.075 0 2.15-.129 3.397-.258v.946c-2.365.258-2.795.559-2.795 3.698v24.596h-.516l-13.717-25.37v20.382c0 3.182.473 3.44 3.14 3.698v.946c-1.162-.129-2.452-.258-3.613-.258h-.129c-1.075 0-2.15.129-3.397.258v-.946c2.365-.258 2.795-.559 2.795-3.698V10.664c-.43-.559-1.16-.946-2.795-1.161v-.946c1.72.172 2.236.215 3.311.215.774 0 1.505-.043 2.28-.129L56.47 29.756V13.201c0-3.182-.473-3.483-3.139-3.741v-.946c1.333.172 2.451.258 3.612.258zm24.083 24.209c.989 3.096 1.29 3.225 3.225 3.483v.946c-1.849-.172-2.709-.258-4.085-.258-1.333 0-2.451.086-4.515.258v-.946c2.365-.258 2.881-.43 1.935-3.526l-1.333-4.386h-8.256l-1.247 4.386c-.86 3.053-.43 3.268 1.935 3.526v.946c-1.161-.129-2.537-.258-3.526-.258-.99 0-1.806.129-2.924.258v-.946c2.02-.258 2.45-.688 3.268-3.526L72.642 8.17h.516zm-12.685-5.633h7.525l-3.87-12.642zm49.639 5.418c.086 3.139.559 3.44 2.924 3.698v.946c-2.623-.215-3.01-.258-4.429-.258h-.086c-1.505 0-2.58.086-4.644.258v-.946c2.623-.258 3.053-.516 2.967-3.698l-.602-20.683-7.482 24.682h-.516l-7.353-24.639-.645 20.64c-.086 3.182.344 3.44 2.967 3.698v.946c-1.634-.172-2.494-.258-3.655-.258h-.043c-1.075 0-2.15.129-3.397.258v-.946c2.365-.258 2.838-.559 2.924-3.698l.602-19.608c.086-3.139-.301-3.44-2.666-3.698v-.946c2.623.215 3.01.258 3.999.258 1.075 0 1.677-.043 2.322-.129l6.278 21.242 6.407-21.242c.602.086 1.419.129 2.193.129.989 0 1.376-.043 3.999-.215v.946c-2.365.215-2.752.516-2.666 3.655zm8.85-27.004 3.87-4.644C131.475.344 131.862 0 132.636 0c.688 0 1.419.602 1.419 1.505 0 .43-.086 1.032-1.333 1.72l-4.515 2.537zm.559 7.396c0-3.139-.43-3.44-2.795-3.698v-.946c2.623.215 3.01.258 4.429.258s1.806-.043 4.429-.258v.946c-2.365.258-2.795.559-2.795 3.698v19.608c0 3.139.43 3.44 2.795 3.698v.946c-2.623-.215-3.01-.258-4.429-.258s-1.806.043-4.429.258v-.946c2.365-.258 2.795-.559 2.795-3.698zm27.93 20.941c.817 2.107 1.376 2.408 3.44 2.408v.946c-.688.172-1.634.258-2.451.258-1.892 0-3.698-.602-4.687-3.483l-2.193-6.278c-.903-2.58-1.978-4.386-4.988-4.386h-.903v9.202c0 3.139.43 3.44 2.795 3.698v.946c-2.623-.215-3.01-.258-4.429-.258s-1.806.043-4.429.258v-.946c2.365-.258 2.795-.559 2.795-3.698v-19.78c0-2.924-.43-3.311-2.795-3.44V8.6h9.159c4.988 0 8.084 2.881 8.084 7.353 0 3.999-3.268 6.794-7.181 7.224 1.763.301 4.171 1.462 5.461 4.816zm-9.331-24.295h-2.451V22.36h2.494c3.612 0 5.203-2.408 5.203-6.235 0-3.87-1.591-6.321-5.246-6.321m31.482 3.354c0-3.139-.43-3.44-2.795-3.698v-.946c1.247.129 2.322.258 3.397.258s2.15-.129 3.397-.258v.946c-2.365.258-2.795.559-2.795 3.698v16.211c0 5.547-2.924 8.385-7.869 8.385-5.16 0-8.342-3.053-8.342-8.084V13.158c0-3.139-.43-3.44-2.795-3.698v-.946c2.623.215 3.01.258 4.429.258s1.806-.043 4.429-.258v.946c-2.365.258-2.795.559-2.795 3.698V29.24c0 4.773 2.193 6.837 5.633 6.837 3.956 0 6.106-2.064 6.106-6.837zM8.772 51.6c6.149 0 11.18 5.59 11.18 14.362s-5.031 14.362-11.18 14.362H0v-.946c2.365-.129 2.795-.516 2.795-3.44V55.986c0-2.924-.43-3.311-2.795-3.44V51.6zM8.17 79.12h.258c5.461 0 8.041-5.461 8.041-13.158s-2.58-13.158-8.041-13.158H6.063V77.4c0 1.204.258 1.72 2.107 1.72m26.537 1.634c-5.461 0-9.976-5.117-9.976-14.792s4.515-14.792 9.976-14.792c5.46 0 9.976 5.117 9.976 14.792s-4.515 14.792-9.976 14.792m0-1.118c4.386 0 6.493-5.203 6.493-13.674s-2.107-13.674-6.493-13.674-6.493 5.203-6.493 13.674 2.107 13.674 6.493 13.674M66.72 64.715c3.31.731 6.32 3.225 6.32 7.869 0 5.289-3.826 8.17-8.04 8.17-3.741 0-6.665-2.709-6.665-7.052h1.075c0 3.44 2.408 5.805 5.117 5.805 3.526 0 5.203-3.01 5.203-7.095 0-4.171-1.763-7.009-5.547-7.009h-.99v-1.075h.99c3.483 0 4.687-3.354 4.687-6.278 0-2.623-.99-5.762-4.343-5.762-2.838 0-4.386 2.709-4.386 5.418h-1.075c0-3.354 1.978-6.536 6.106-6.536 4.17 0 6.966 2.838 6.966 6.622 0 3.655-2.623 6.063-5.418 6.923m43.627 11.051c.086 3.139.559 3.44 2.924 3.698v.946c-2.623-.215-3.01-.258-4.429-.258h-.086c-1.505 0-2.58.086-4.644.258v-.946c2.623-.258 3.053-.516 2.967-3.698l-.602-20.683-7.482 24.682h-.516l-7.353-24.639-.645 20.64c-.086 3.182.344 3.44 2.967 3.698v.946c-1.634-.172-2.494-.258-3.655-.258h-.043c-1.075 0-2.15.129-3.397.258v-.946c2.365-.258 2.838-.559 2.924-3.698l.602-19.608c.086-3.139-.3-3.44-2.666-3.698v-.946c2.623.215 3.01.258 4 .258 1.074 0 1.676-.043 2.321-.129l6.278 21.242 6.407-21.242c.602.086 1.419.129 2.193.129.989 0 1.376-.043 3.999-.215v.946c-2.365.215-2.752.516-2.666 3.655zm16.591-27.391h-1.763l-4.644-4.945h1.247l4.257 2.58 4.257-2.58h1.247zm6.45 24.897h.86l-.731 7.052h-16.555v-.946c2.365-.129 2.795-.516 2.795-3.44V55.986c0-2.924-.43-3.311-2.795-3.44V51.6h15.652l.602 6.665h-.86c-.817-4.3-1.634-5.461-5.031-5.461h-4.3v12.04h4.988c1.462 0 1.849-.774 1.978-3.483h.86v8.17h-.86c-.086-2.709-.516-3.483-1.978-3.483h-4.988V77.4c0 1.204.258 1.72 2.107 1.72h3.096c3.526 0 4.128-1.247 5.16-5.848m15.949-8.127c3.01 1.763 4.816 3.999 4.816 7.74 0 4.214-3.354 7.869-7.912 7.869-2.451 0-4.644-1.075-5.805-2.623l-1.118 2.838h-.602v-9.847h.86c.731 5.332 2.623 8.514 6.536 8.514 3.311 0 5.246-1.935 5.246-5.074 0-3.268-1.677-5.031-4.429-6.665l-3.139-1.849c-2.924-1.72-4.816-3.87-4.816-7.654 0-4.644 3.526-7.224 7.009-7.224 2.451 0 4.343 1.376 5.332 2.881l.86-2.924h.602v8.6h-.774c-.688-4.171-2.58-7.439-5.848-7.439-2.881 0-4.558 1.978-4.558 4.988 0 2.752 1.505 4.214 3.999 5.676zm11.199-16.383 3.87-4.644c.645-.774 1.032-1.118 1.806-1.118.688 0 1.419.602 1.419 1.505 0 .43-.086 1.032-1.333 1.72l-4.515 2.537zm.559 7.396c0-3.139-.43-3.44-2.795-3.698v-.946c2.623.215 3.01.258 4.429.258s1.806-.043 4.429-.258v.946c-2.365.258-2.795.559-2.795 3.698v19.608c0 3.139.43 3.44 2.795 3.698v.946c-2.623-.215-3.01-.258-4.429-.258s-1.806.043-4.429.258v-.946c2.365-.258 2.795-.559 2.795-3.698zm26.347 14.405h1.118c-.344 7.181-3.569 10.191-7.654 10.191-5.461 0-9.632-5.16-9.632-14.792s4.386-14.792 9.761-14.792c2.537 0 4.429 1.247 5.504 2.752l.946-2.752h.602v9.03h-.774c-.989-5.504-2.924-7.912-6.278-7.912-4.257 0-6.278 5.117-6.278 13.674 0 8.729 2.15 13.287 6.794 13.287 2.881 0 5.547-2.365 5.891-8.686m16.576-21.801c-1.935 0-3.483-1.505-3.483-3.44s1.548-3.44 3.483-3.44 3.483 1.505 3.483 3.44-1.548 3.44-3.483 3.44m0-1.118c1.247 0 2.236-.946 2.236-2.322S205.265 43 204.018 43s-2.236.946-2.236 2.322.989 2.322 2.236 2.322m6.235 8.514c0-3.139-.43-3.44-2.795-3.698v-.946c1.247.129 2.322.258 3.397.258s2.15-.129 3.397-.258v.946c-2.365.258-2.795.559-2.795 3.698v16.211c0 5.547-2.924 8.385-7.869 8.385-5.16 0-8.342-3.053-8.342-8.084V56.158c0-3.139-.43-3.44-2.795-3.698v-.946c2.623.215 3.01.258 4.429.258s1.806-.043 4.429-.258v.946c-2.365.258-2.795.559-2.795 3.698V72.24c0 4.773 2.193 6.837 5.633 6.837 3.956 0 6.106-2.064 6.106-6.837zm8.075 24.596c-1.29 0-2.15-.946-2.15-2.193s.86-2.193 2.15-2.193 2.15.946 2.15 2.193-.86 2.193-2.15 2.193"/></svg>