<svg xmlns="http://www.w3.org/2000/svg" fill="none" viewBox="0 0 346 81"><path fill="#000" d="M60.687 8.772c1.075 0 2.15-.129 3.397-.258v.946c-2.365.258-2.795.559-2.795 3.698v24.596h-.516l-13.717-25.37v20.382c0 3.182.473 3.44 3.14 3.698v.946c-1.162-.129-2.452-.258-3.613-.258h-.129c-1.075 0-2.15.129-3.397.258v-.946c2.365-.258 2.795-.559 2.795-3.698V10.664c-.43-.559-1.16-.946-2.795-1.161v-.946c1.72.172 2.236.215 3.311.215.774 0 1.505-.043 2.28-.129l11.437 21.113V13.201c0-3.182-.473-3.483-3.139-3.741v-.946c1.333.172 2.451.258 3.612.258zM84.77 32.981c.989 3.096 1.29 3.225 3.225 3.483v.946c-1.849-.172-2.709-.258-4.085-.258-1.333 0-2.451.086-4.515.258v-.946c2.365-.258 2.881-.43 1.935-3.526l-1.333-4.386h-8.256l-1.247 4.386c-.86 3.053-.43 3.268 1.935 3.526v.946c-1.161-.129-2.537-.258-3.526-.258s-1.806.129-2.924.258v-.946c2.021-.258 2.451-.688 3.268-3.526L76.256 8.17h.516zm-12.685-5.633h7.525l-3.87-12.642zm33.169-18.576c.86 0 1.849-.086 2.924-.258v.946c-2.021.258-2.58.688-3.397 3.526l-7.095 24.768h-.516l-7.74-24.811c-.946-3.096-1.419-3.225-3.354-3.483v-.946c1.763.172 2.71.258 4.042.258 1.376 0 2.494-.086 4.687-.258v.946c-2.537.258-2.752.473-1.849 3.526l5.332 18.017 5.246-18.017c.903-3.01.688-3.268-1.849-3.526v-.946c1.247.129 2.537.258 3.569.258m13.815-3.397h-1.763L112.662.43h1.247l4.257 2.58 4.257-2.58h1.247zm2.322 16.77c3.01 1.763 4.816 3.999 4.816 7.74 0 4.214-3.354 7.869-7.912 7.869-2.451 0-4.644-1.075-5.805-2.623l-1.118 2.838h-.602v-9.847h.86c.731 5.332 2.623 8.514 6.536 8.514 3.311 0 5.246-1.935 5.246-5.074 0-3.268-1.677-5.031-4.429-6.665l-3.139-1.849c-2.924-1.72-4.816-3.87-4.816-7.654 0-4.644 3.526-7.224 7.009-7.224 2.451 0 4.343 1.376 5.332 2.881l.86-2.924h.602v8.6h-.774c-.688-4.171-2.58-7.439-5.848-7.439-2.881 0-4.558 1.978-4.558 4.988 0 2.752 1.505 4.214 3.999 5.676zM147.597 8.6l.559 7.052h-.86c-.86-4.644-1.548-5.848-4.988-5.848h-1.72v22.962c0 3.182.473 3.44 3.096 3.698v.946c-1.978-.172-3.225-.258-4.73-.258s-2.752.086-4.73.258v-.946c2.623-.258 3.096-.516 3.096-3.698V9.804h-1.72c-3.44 0-4.128 1.204-4.988 5.848h-.86l.559-7.052zm6.788 4.558c0-3.139-.43-3.44-2.795-3.698v-.946c2.623.215 3.01.258 4.429.258s1.806-.043 4.429-.258v.946c-2.365.258-2.795.559-2.795 3.698v19.608c0 3.139.43 3.44 2.795 3.698v.946c-2.623-.215-3.01-.258-4.429-.258s-1.806.043-4.429.258v-.946c2.365-.258 2.795-.559 2.795-3.698zm27.5-4.386c.86 0 1.849-.086 2.924-.258v.946c-2.021.258-2.58.688-3.397 3.526l-7.095 24.768h-.516l-7.74-24.811c-.946-3.096-1.419-3.225-3.354-3.483v-.946c1.763.172 2.709.258 4.042.258 1.376 0 2.494-.086 4.687-.258v.946c-2.537.258-2.752.473-1.849 3.526l5.332 18.017 5.246-18.017c.903-3.01.688-3.268-1.849-3.526v-.946c1.247.129 2.537.258 3.569.258m22.618-.172.559 7.052h-.86c-.86-4.644-1.548-5.848-4.988-5.848h-1.72v22.962c0 3.182.473 3.44 3.096 3.698v.946c-1.978-.172-3.225-.258-4.73-.258s-2.752.086-4.73.258v-.946c2.623-.258 3.096-.516 3.096-3.698V9.804h-1.72c-3.44 0-4.128 1.204-4.988 5.848h-.86l.559-7.052zm20.419 21.672h.86l-.731 7.052h-16.555v-.946c2.365-.129 2.795-.516 2.795-3.44V12.986c0-2.924-.43-3.311-2.795-3.44V8.6h15.652l.602 6.665h-.86c-.817-4.3-1.634-5.461-5.031-5.461h-4.3v12.04h4.988c1.462 0 1.849-.774 1.978-3.483h.86v8.17h-.86c-.086-2.709-.516-3.483-1.978-3.483h-4.988V34.4c0 1.204.258 1.72 2.107 1.72h3.096c3.526 0 4.128-1.247 5.16-5.848m31.541-21.5c1.075 0 2.15-.129 3.397-.258v.946c-2.365.258-2.795.559-2.795 3.698v24.596h-.516l-13.717-25.37v20.382c0 3.182.473 3.44 3.139 3.698v.946c-1.161-.129-2.451-.258-3.612-.258h-.129c-1.075 0-2.15.129-3.397.258v-.946c2.365-.258 2.795-.559 2.795-3.698V10.664c-.43-.559-1.161-.946-2.795-1.161v-.946c1.72.172 2.236.215 3.311.215.774 0 1.505-.043 2.279-.129l11.438 21.113V13.201c0-3.182-.473-3.483-3.139-3.741v-.946c1.333.172 2.451.258 3.612.258zm19.396-5.547-4.515 2.537h-1.247l3.87-4.644C274.612.344 274.999 0 275.773 0c.688 0 1.419.602 1.419 1.505 0 .43-.086 1.032-1.333 1.72m4.687 29.756c.989 3.096 1.29 3.225 3.225 3.483v.946c-1.849-.172-2.709-.258-4.085-.258-1.333 0-2.451.086-4.515.258v-.946c2.365-.258 2.881-.43 1.935-3.526l-1.333-4.386h-8.256l-1.247 4.386c-.86 3.053-.43 3.268 1.935 3.526v.946c-1.161-.129-2.537-.258-3.526-.258s-1.806.129-2.924.258v-.946c2.021-.258 2.451-.688 3.268-3.526l7.009-24.768h.516zm-12.685-5.633h7.525l-3.87-12.642zm27.007-21.973h-1.763L288.461.43h1.247l4.257 2.58 4.257-2.58h1.247zm2.322 16.77c3.01 1.763 4.816 3.999 4.816 7.74 0 4.214-3.354 7.869-7.912 7.869-2.451 0-4.644-1.075-5.805-2.623l-1.118 2.838h-.602v-9.847h.86c.731 5.332 2.623 8.514 6.536 8.514 3.311 0 5.246-1.935 5.246-5.074 0-3.268-1.677-5.031-4.429-6.665l-3.139-1.849c-2.924-1.72-4.816-3.87-4.816-7.654 0-4.644 3.526-7.224 7.009-7.224 2.451 0 4.343 1.376 5.332 2.881l.86-2.924h.602v8.6h-.774c-.688-4.171-2.58-7.439-5.848-7.439-2.881 0-4.558 1.978-4.558 4.988 0 2.752 1.505 4.214 3.999 5.676zM9.976 80.754C4.515 80.754 0 75.637 0 65.962S4.515 51.17 9.976 51.17s9.976 5.117 9.976 14.792-4.515 14.792-9.976 14.792m0-1.118c4.386 0 6.493-5.203 6.493-13.674s-2.107-13.674-6.493-13.674-6.493 5.203-6.493 13.674S5.59 79.636 9.976 79.636m31.695-27.864c1.075 0 2.15-.129 3.397-.258v.946c-2.365.258-2.795.559-2.795 3.698v24.596h-.516L28.04 55.384v20.382c0 3.182.473 3.44 3.139 3.698v.946c-1.161-.129-2.451-.258-3.612-.258h-.13c-1.074 0-2.15.129-3.396.258v-.946c2.365-.258 2.795-.559 2.795-3.698V53.664c-.43-.559-1.161-.946-2.795-1.161v-.946c1.72.172 2.236.215 3.31.215.775 0 1.506-.043 2.28-.129l11.438 21.113V56.201c0-3.182-.473-3.483-3.14-3.741v-.946c1.334.172 2.452.258 3.613.258zm24.374 20.769-1.118 7.783H48.888v-.946c2.365-.129 2.795-.516 2.795-3.44v-19.78c0-3.139-.43-3.44-2.795-3.698v-.946c2.623.215 3.01.258 4.43.258 1.504 0 2.106-.043 4.686-.258v.946c-2.58.258-3.053.516-3.053 3.698V77.4c0 1.204.258 1.72 2.107 1.72h2.58c2.967 0 4.43-1.376 5.547-6.579zm6.077-16.383c0-3.139-.43-3.44-2.795-3.698v-.946c2.623.215 3.01.258 4.429.258s1.806-.043 4.429-.258v.946c-2.365.258-2.795.559-2.795 3.698v19.608c0 3.139.43 3.44 2.795 3.698v.946c-2.623-.215-3.01-.258-4.43-.258-1.418 0-1.805.043-4.428.258v-.946c2.365-.258 2.795-.559 2.795-3.698zm27.715-4.386c1.075 0 2.15-.129 3.397-.258v.946c-2.365.258-2.795.559-2.795 3.698v24.596h-.516l-13.717-25.37v20.382c0 3.182.473 3.44 3.139 3.698v.946c-1.161-.129-2.451-.258-3.612-.258h-.13c-1.074 0-2.15.129-3.396.258v-.946c2.365-.258 2.795-.559 2.795-3.698V53.664c-.43-.559-1.161-.946-2.795-1.161v-.946c1.72.172 2.236.215 3.31.215.775 0 1.506-.043 2.28-.129l11.438 21.113V56.201c0-3.182-.473-3.483-3.14-3.741v-.946c1.334.172 2.452.258 3.613.258zm23.643 21.5h.86l-.731 7.052h-16.555v-.946c2.365-.129 2.795-.516 2.795-3.44V55.986c0-2.924-.43-3.311-2.795-3.44V51.6h15.652l.602 6.665h-.86c-.817-4.3-1.634-5.461-5.031-5.461h-4.3v12.04h4.988c1.462 0 1.849-.774 1.978-3.483h.86v8.17h-.86c-.086-2.709-.516-3.483-1.978-3.483h-4.988V77.4c0 1.204.258 1.72 2.107 1.72h3.096c3.526 0 4.128-1.247 5.16-5.848m25.134-8.127c3.01 1.763 4.816 3.999 4.816 7.74 0 4.214-3.354 7.869-7.912 7.869-2.451 0-4.644-1.075-5.805-2.623l-1.118 2.838h-.602v-9.847h.86c.731 5.332 2.623 8.514 6.536 8.514 3.311 0 5.246-1.935 5.246-5.074 0-3.268-1.677-5.031-4.429-6.665l-3.139-1.849c-2.924-1.72-4.816-3.87-4.816-7.654 0-4.644 3.526-7.224 7.009-7.224 2.451 0 4.343 1.376 5.332 2.881l.86-2.924h.602v8.6h-.774c-.688-4.171-2.58-7.439-5.848-7.439-2.881 0-4.558 1.978-4.558 4.988 0 2.752 1.505 4.214 3.999 5.676zm30.851-12.685c-2.365.258-2.795.559-2.795 3.698v19.608c0 3.139.43 3.44 2.795 3.698v.946c-2.623-.215-3.01-.258-4.429-.258s-1.806.043-4.429.258v-.946c2.365-.258 2.795-.559 2.795-3.698v-9.675h-9.761v9.675c0 3.139.43 3.44 2.795 3.698v.946c-2.623-.215-3.01-.258-4.429-.258s-1.806.043-4.429.258v-.946c2.365-.258 2.795-.559 2.795-3.698V56.158c0-3.139-.43-3.44-2.795-3.698v-.946c2.623.215 3.01.258 4.429.258s1.806-.043 4.429-.258v.946c-2.365.258-2.795.559-2.795 3.698v8.729h9.761v-8.729c0-3.139-.43-3.44-2.795-3.698v-.946c2.623.215 3.01.258 4.429.258s1.806-.043 4.429-.258zm14.079 28.294c-5.461 0-9.976-5.117-9.976-14.792s4.515-14.792 9.976-14.792 9.976 5.117 9.976 14.792-4.515 14.792-9.976 14.792m0-1.118c4.386 0 6.493-5.203 6.493-13.674s-2.107-13.674-6.493-13.674-6.493 5.203-6.493 13.674 2.107 13.674 6.493 13.674m39.694-27.864c.903 0 1.806-.086 2.838-.258v.946c-1.849.258-2.279.559-2.924 3.612l-5.203 24.682h-.516l-6.407-22.231-6.106 22.231h-.516l-5.633-24.725c-.688-3.053-1.075-3.311-2.838-3.569v-.946c2.021.215 2.623.258 3.784.258 1.462 0 2.279-.043 4.515-.258v.946c-2.58.258-2.666.473-2.021 3.612l3.569 16.899 5.891-21.801h.516l6.192 21.758 3.526-16.856c.645-3.096.516-3.354-2.064-3.612v-.946c1.247.172 2.279.258 3.397.258m23.152 25.327c.817 2.107 1.376 2.408 3.44 2.408v.946c-.688.172-1.634.258-2.451.258-1.892 0-3.698-.602-4.687-3.483l-2.193-6.278c-.903-2.58-1.978-4.386-4.988-4.386h-.903v9.202c0 3.139.43 3.44 2.795 3.698v.946c-2.623-.215-3.01-.258-4.429-.258s-1.806.043-4.429.258v-.946c2.365-.258 2.795-.559 2.795-3.698v-19.78c0-2.924-.43-3.311-2.795-3.44V51.6h9.159c4.988 0 8.084 2.881 8.084 7.353 0 3.999-3.268 6.794-7.181 7.224 1.763.301 4.171 1.462 5.461 4.816zm-9.331-24.295h-2.451V65.36h2.494c3.612 0 5.203-2.408 5.203-6.235 0-3.87-1.591-6.321-5.246-6.321m24.639 27.95c-5.461 0-9.976-5.117-9.976-14.792s4.515-14.792 9.976-14.792 9.976 5.117 9.976 14.792-4.515 14.792-9.976 14.792m0-1.118c4.386 0 6.493-5.203 6.493-13.674s-2.107-13.674-6.493-13.674-6.493 5.203-6.493 13.674 2.107 13.674 6.493 13.674m24.764 1.118c-5.461 0-9.976-5.117-9.976-14.792s4.515-14.792 9.976-14.792 9.976 5.117 9.976 14.792-4.515 14.792-9.976 14.792m0-1.118c4.386 0 6.493-5.203 6.493-13.674s-2.107-13.674-6.493-13.674-6.493 5.203-6.493 13.674 2.107 13.674 6.493 13.674m37.673-3.87c.086 3.139.559 3.44 2.924 3.698v.946c-2.623-.215-3.01-.258-4.429-.258h-.086c-1.505 0-2.58.086-4.644.258v-.946c2.623-.258 3.053-.516 2.967-3.698l-.602-20.683-7.482 24.682h-.516l-7.353-24.639-.645 20.64c-.086 3.182.344 3.44 2.967 3.698v.946c-1.634-.172-2.494-.258-3.655-.258h-.043c-1.075 0-2.15.129-3.397.258v-.946c2.365-.258 2.838-.559 2.924-3.698l.602-19.608c.086-3.139-.301-3.44-2.666-3.698v-.946c2.623.215 3.01.258 3.999.258 1.075 0 1.677-.043 2.322-.129l6.278 21.242 6.407-21.242c.602.086 1.419.129 2.193.129.989 0 1.376-.043 3.999-.215v.946c-2.365.215-2.752.516-2.666 3.655zm9.022 4.988c-1.29 0-2.15-.946-2.15-2.193s.86-2.193 2.15-2.193 2.15.946 2.15 2.193-.86 2.193-2.15 2.193"/></svg>