<svg xmlns="http://www.w3.org/2000/svg" fill="none" viewBox="0 0 295 73"><path fill="#000" d="M2.818 34.83v-.989c2.408-.387 4.773-2.322 4.773-6.837V5.031c0-3.139-.43-3.44-2.795-3.698V.387c2.623.215 3.01.258 4.43.258 1.418 0 1.805-.043 4.428-.258v.946c-2.365.258-2.795.559-2.795 3.698v18.705c0 8.514-4.687 10.535-8.04 11.094m31.08-12.685h.86l-.732 7.052H17.471v-.946c2.365-.129 2.795-.516 2.795-3.44V4.859c0-2.924-.43-3.311-2.795-3.44V.473h15.652l.602 6.665h-.86c-.817-4.3-1.634-5.461-5.03-5.461h-4.3v12.04h4.987c1.462 0 1.85-.774 1.978-3.483h.86v8.17h-.86c-.086-2.709-.516-3.483-1.978-3.483h-4.988v11.352c0 1.204.258 1.72 2.107 1.72h3.096c3.526 0 4.128-1.247 5.16-5.848M47.394.473c6.15 0 11.18 5.59 11.18 14.362s-5.03 14.362-11.18 14.362h-8.772v-.946c2.365-.129 2.795-.516 2.795-3.44V4.859c0-2.924-.43-3.311-2.795-3.44V.473zm-.602 27.52h.258c5.461 0 8.041-5.461 8.041-13.158s-2.58-13.158-8.04-13.158h-2.366v24.596c0 1.204.258 1.72 2.107 1.72m32.18-5.848h.86l-.73 7.052H62.546v-.946c2.365-.129 2.795-.516 2.795-3.44V4.859c0-2.924-.43-3.311-2.795-3.44V.473H78.2l.602 6.665h-.86c-.817-4.3-1.634-5.461-5.03-5.461h-4.3v12.04h4.987c1.462 0 1.85-.774 1.978-3.483h.86v8.17h-.86c-.086-2.709-.516-3.483-1.978-3.483H68.61v11.352c0 1.204.258 1.72 2.107 1.72h3.096c3.526 0 4.128-1.247 5.16-5.848M101.33.645c1.075 0 2.15-.129 3.397-.258v.946c-2.365.258-2.795.559-2.795 3.698v24.596h-.516L87.698 4.257v20.382c0 3.182.474 3.44 3.14 3.698v.946c-1.161-.129-2.451-.258-3.612-.258h-.13c-1.075 0-2.15.129-3.397.258v-.946c2.365-.258 2.796-.559 2.796-3.698V2.537c-.43-.559-1.162-.946-2.796-1.161V.43c1.72.172 2.237.215 3.311.215.774 0 1.505-.043 2.28-.129l11.438 21.113V5.074c0-3.182-.473-3.483-3.14-3.741V.387c1.334.172 2.452.258 3.613.258zm27.625 13.373c3.01 1.763 4.816 3.999 4.816 7.74 0 4.214-3.354 7.869-7.912 7.869-2.451 0-4.644-1.075-5.805-2.623l-1.118 2.838h-.602v-9.847h.86c.731 5.332 2.623 8.514 6.536 8.514 3.311 0 5.246-1.935 5.246-5.074 0-3.268-1.677-5.031-4.429-6.665l-3.139-1.849c-2.924-1.72-4.816-3.87-4.816-7.654 0-4.644 3.526-7.224 7.009-7.224 2.451 0 4.343 1.376 5.332 2.881l.86-2.924h.602v8.6h-.774c-.688-4.171-2.58-7.439-5.848-7.439-2.881 0-4.558 1.978-4.558 4.988 0 2.752 1.505 4.214 3.999 5.676zm18.036 2.107h-3.01v8.514c0 3.139.86 3.483 3.569 3.698v.946c-1.978-.172-3.182-.258-4.73-.258h-.473c-1.419 0-1.806.043-4.429.258v-.946c2.365-.258 2.795-.559 2.795-3.698V4.859c0-2.924-.43-3.311-2.795-3.44V.473h9.159c5.547 0 8.729 3.01 8.729 7.697 0 4.816-3.956 7.955-8.815 7.955m-.559-14.448h-2.451v13.201h2.537c3.999 0 5.805-2.494 5.805-6.493 0-4.128-1.806-6.708-5.891-6.708m30.441 24.295c.817 2.107 1.376 2.408 3.44 2.408v.946c-.688.172-1.634.258-2.451.258-1.892 0-3.698-.602-4.687-3.483l-2.193-6.278c-.903-2.58-1.978-4.386-4.988-4.386h-.903v9.202c0 3.139.43 3.44 2.795 3.698v.946c-2.623-.215-3.01-.258-4.429-.258s-1.806.043-4.429.258v-.946c2.365-.258 2.795-.559 2.795-3.698V4.859c0-2.924-.43-3.311-2.795-3.44V.473h9.159c4.988 0 8.084 2.881 8.084 7.353 0 3.999-3.268 6.794-7.181 7.224 1.763.301 4.171 1.462 5.461 4.816zm-9.331-24.295h-2.451v12.556h2.494c3.612 0 5.203-2.408 5.203-6.235 0-3.87-1.591-6.321-5.246-6.321m17.407 3.354c0-3.139-.43-3.44-2.795-3.698V.387c2.623.215 3.01.258 4.429.258s1.806-.043 4.429-.258v.946c-2.365.258-2.795.559-2.795 3.698v19.608c0 3.139.43 3.44 2.795 3.698v.946c-2.623-.215-3.01-.258-4.429-.258s-1.806.043-4.429.258v-.946c2.365-.258 2.795-.559 2.795-3.698zM212.664.645c1.075 0 2.15-.129 3.397-.258v.946c-2.365.258-2.795.559-2.795 3.698v24.596h-.516l-13.717-25.37v20.382c0 3.182.473 3.44 3.139 3.698v.946c-1.161-.129-2.451-.258-3.612-.258h-.129c-1.075 0-2.15.129-3.397.258v-.946c2.365-.258 2.795-.559 2.795-3.698V2.537c-.43-.559-1.161-.946-2.795-1.161V.43c1.72.172 2.236.215 3.311.215.774 0 1.505-.043 2.279-.129l11.438 21.113V5.074c0-3.182-.473-3.483-3.139-3.741V.387c1.333.172 2.451.258 3.612.258zm24.461-.172.559 7.052h-.86c-.86-4.644-1.548-5.848-4.988-5.848h-1.72v22.962c0 3.182.473 3.44 3.096 3.698v.946c-1.978-.172-3.225-.258-4.73-.258s-2.752.086-4.73.258v-.946c2.623-.258 3.096-.516 3.096-3.698V1.677h-1.72c-3.44 0-4.128 1.204-4.988 5.848h-.86l.559-7.052zm20.419 21.672h.86l-.731 7.052h-16.555v-.946c2.365-.129 2.795-.516 2.795-3.44V4.859c0-2.924-.43-3.311-2.795-3.44V.473h15.652l.602 6.665h-.86c-.817-4.3-1.634-5.461-5.031-5.461h-4.3v12.04h4.988c1.462 0 1.849-.774 1.978-3.483h.86v8.17h-.86c-.086-2.709-.516-3.483-1.978-3.483h-4.988v11.352c0 1.204.258 1.72 2.107 1.72h3.096c3.526 0 4.128-1.247 5.16-5.848m22.571 3.827c.817 2.107 1.376 2.408 3.44 2.408v.946c-.688.172-1.634.258-2.451.258-1.892 0-3.698-.602-4.687-3.483l-2.193-6.278c-.903-2.58-1.978-4.386-4.988-4.386h-.903v9.202c0 3.139.43 3.44 2.795 3.698v.946c-2.623-.215-3.01-.258-4.429-.258s-1.806.043-4.429.258v-.946c2.365-.258 2.795-.559 2.795-3.698V4.859c0-2.924-.43-3.311-2.795-3.44V.473h9.159c4.988 0 8.084 2.881 8.084 7.353 0 3.999-3.268 6.794-7.181 7.224 1.763.301 4.171 1.462 5.461 4.816zm-9.331-24.295h-2.451v12.556h2.494c3.612 0 5.203-2.408 5.203-6.235 0-3.87-1.591-6.321-5.246-6.321m17.398 27.95c-1.29 0-2.15-.946-2.15-2.193s.86-2.193 2.15-2.193 2.15.946 2.15 2.193-.86 2.193-2.15 2.193M17.845 43.473l.559 7.052h-.86c-.86-4.644-1.548-5.848-4.988-5.848h-1.72v22.962c0 3.182.473 3.44 3.096 3.698v.946c-1.978-.172-3.225-.258-4.73-.258s-2.752.086-4.73.258v-.946c2.623-.258 3.096-.516 3.096-3.698V44.677h-1.72c-3.44 0-4.128 1.204-4.988 5.848H0l.559-7.052zm13.978 29.154c-5.46 0-9.976-5.117-9.976-14.792s4.515-14.792 9.976-14.792S41.8 48.16 41.8 57.835s-4.515 14.792-9.976 14.792m0-1.118c4.386 0 6.493-5.203 6.493-13.674s-2.107-13.674-6.493-13.674-6.493 5.203-6.493 13.674 2.107 13.674 6.493 13.674m31.222-7.095-1.118 7.783H45.888v-.946c2.365-.129 2.795-.516 2.795-3.44v-19.78c0-3.139-.43-3.44-2.795-3.698v-.946c2.623.215 3.01.258 4.43.258 1.504 0 2.106-.043 4.686-.258v.946c-2.58.258-3.053.516-3.053 3.698v21.242c0 1.204.258 1.72 2.107 1.72h2.58c2.967 0 4.43-1.376 5.547-6.579zm6.076-16.383c0-3.139-.43-3.44-2.794-3.698v-.946c2.623.215 3.01.258 4.429.258 1.418 0 1.805-.043 4.429-.258v.946c-2.365.258-2.796.559-2.796 3.698v19.608c0 3.139.43 3.44 2.796 3.698v.946c-2.624-.215-3.01-.258-4.43-.258-1.418 0-1.805.043-4.428.258v-.946c2.365-.258 2.794-.559 2.794-3.698zm27.973 20.683c1.118 1.849 1.677 2.365 3.483 2.623v.946c-1.806-.215-2.666-.258-4.128-.258-1.548 0-2.88.043-4.816.258v-.946c2.28-.258 3.01-.387 1.505-2.967l-6.364-10.836H85.27v10.105c0 3.139.43 3.44 2.795 3.698v.946c-2.623-.215-3.01-.258-4.429-.258s-1.806.043-4.429.258v-.946c2.365-.258 2.795-.559 2.795-3.698V48.031c0-3.139-.43-3.44-2.795-3.698v-.946c2.623.215 3.01.258 4.43.258 1.418 0 1.805-.043 4.428-.258v.946c-2.365.258-2.795.559-2.795 3.698v8.299h1.505l6.493-9.288c1.505-2.15.516-2.494-1.849-2.709v-.946c1.634.172 2.838.258 4.085.258 1.118 0 2.28-.086 3.784-.258v.946c-2.236.258-2.924.344-4.558 2.709l-5.676 8.127zm38.283-1.075c.086 3.139.559 3.44 2.924 3.698v.946c-2.623-.215-3.01-.258-4.429-.258h-.086c-1.505 0-2.58.086-4.644.258v-.946c2.623-.258 3.053-.516 2.967-3.698l-.602-20.683-7.482 24.682h-.516l-7.353-24.639-.645 20.64c-.086 3.182.344 3.44 2.967 3.698v.946c-1.634-.172-2.494-.258-3.655-.258h-.043c-1.075 0-2.15.129-3.397.258v-.946c2.365-.258 2.838-.559 2.924-3.698l.602-19.608c.086-3.139-.301-3.44-2.666-3.698v-.946c2.623.215 3.01.258 3.999.258 1.075 0 1.677-.043 2.322-.129l6.278 21.242 6.407-21.242c.602.086 1.419.129 2.193.129.989 0 1.376-.043 3.999-.215v.946c-2.365.215-2.752.516-2.666 3.655zm16.599 4.988c-5.461 0-9.976-5.117-9.976-14.792s4.515-14.792 9.976-14.792 9.976 5.117 9.976 14.792-4.515 14.792-9.976 14.792m0-1.118c4.386 0 6.493-5.203 6.493-13.674s-2.107-13.674-6.493-13.674-6.493 5.203-6.493 13.674 2.107 13.674 6.493 13.674m23.695-31.261h-1.763l-4.644-4.945h1.247l4.257 2.58 4.257-2.58h1.247zm6.235 24.037h.86l-.946 7.912h-16.555v-.344l13.33-27.176h-5.633c-3.354 0-4.171 1.29-4.988 6.063h-.86l.559-7.267h14.921v.344l-13.33 27.176h6.837c3.956 0 4.644-1.419 5.805-6.708m22.33-20.64c1.075 0 2.15-.129 3.397-.258v.946c-2.365.258-2.795.559-2.795 3.698v24.596h-.516l-13.717-25.37v20.382c0 3.182.473 3.44 3.139 3.698v.946c-1.161-.129-2.451-.258-3.612-.258h-.129c-1.075 0-2.15.129-3.397.258v-.946c2.365-.258 2.795-.559 2.795-3.698V45.537c-.43-.559-1.161-.946-2.795-1.161v-.946c1.72.172 2.236.215 3.311.215.774 0 1.505-.043 2.279-.129l11.438 21.113V48.074c0-3.182-.473-3.483-3.139-3.741v-.946c1.333.172 2.451.258 3.612.258zm17.244 28.982c-5.461 0-9.976-5.117-9.976-14.792s4.515-14.792 9.976-14.792 9.976 5.117 9.976 14.792-4.515 14.792-9.976 14.792m0-1.118c4.386 0 6.493-5.203 6.493-13.674s-2.107-13.674-6.493-13.674-6.493 5.203-6.493 13.674 2.107 13.674 6.493 13.674m25.624-14.491c3.01 1.763 4.816 3.999 4.816 7.74 0 4.214-3.354 7.869-7.912 7.869-2.451 0-4.644-1.075-5.805-2.623l-1.118 2.838h-.602v-9.847h.86c.731 5.332 2.623 8.514 6.536 8.514 3.311 0 5.246-1.935 5.246-5.074 0-3.268-1.677-5.031-4.429-6.665l-3.139-1.849c-2.924-1.72-4.816-3.87-4.816-7.654 0-4.644 3.526-7.224 7.009-7.224 2.451 0 4.343 1.376 5.332 2.881l.86-2.924h.602v8.6h-.774c-.688-4.171-2.58-7.439-5.848-7.439-2.881 0-4.558 1.978-4.558 4.988 0 2.752 1.505 4.214 3.999 5.676zm26.206-13.545.559 7.052h-.86c-.86-4.644-1.548-5.848-4.988-5.848h-1.72v22.962c0 3.182.473 3.44 3.096 3.698v.946c-1.978-.172-3.225-.258-4.73-.258s-2.752.086-4.73.258v-.946c2.623-.258 3.096-.516 3.096-3.698V44.677h-1.72c-3.44 0-4.128 1.204-4.988 5.848h-.86l.559-7.052zm6.23-2.838 3.87-4.644c.645-.774 1.032-1.118 1.806-1.118.688 0 1.419.602 1.419 1.505 0 .43-.086 1.032-1.333 1.72l-4.515 2.537zm.559 7.396c0-3.139-.43-3.44-2.795-3.698v-.946c2.623.215 3.01.258 4.429.258s1.806-.043 4.429-.258v.946c-2.365.258-2.795.559-2.795 3.698v19.608c0 3.139.43 3.44 2.795 3.698v.946c-2.623-.215-3.01-.258-4.429-.258s-1.806.043-4.429.258v-.946c2.365-.258 2.795-.559 2.795-3.698zm12.492 24.596c-1.29 0-2.15-.946-2.15-2.193s.86-2.193 2.15-2.193 2.15.946 2.15 2.193-.86 2.193-2.15 2.193"/></svg>