<svg xmlns="http://www.w3.org/2000/svg" fill="none" viewBox="0 0 218 18"><path fill="#007990" d="M4.454 6.187h-.195c-.21 0-.42.015-.66.03-.09.015-.12.075-.12.18v2.37h.78c.54 0 .9-.075 1.11-.255.18-.15.27-.435.27-.885v-.375c0-.36-.09-.63-.256-.795-.18-.18-.495-.27-.93-.27m-.975 4.634v2.714c0 .315-.18.465-.525.465h-1.47c-.194 0-.33-.03-.404-.105-.09-.06-.12-.18-.12-.36V4.913q0-.36.135-.495c.09-.09.255-.15.525-.18.54-.045 1.38-.075 2.534-.075h.18c1.53 0 2.579.3 3.164.885.45.48.674 1.2.674 2.174v.51c0 1.125-.314 1.92-.944 2.37-.66.48-1.665.719-3.03.719zm7.763-1.08v1.17c0 .585.09.96.27 1.14.135.15.345.21.63.21h.06c.27 0 .48-.06.63-.21.18-.18.27-.555.27-1.14v-1.17c0-.57-.09-.96-.27-1.14-.15-.134-.36-.21-.63-.21h-.06c-.285 0-.495.076-.63.21-.18.18-.27.57-.27 1.14m4.274.09v.975c0 .75-.075 1.32-.225 1.74s-.39.75-.72 1.004c-.495.39-1.26.585-2.31.585h-.18c-1.049 0-1.828-.195-2.308-.585a2.15 2.15 0 0 1-.72-1.005c-.15-.42-.225-.99-.225-1.739v-.96c0-.734.075-1.304.225-1.724s.39-.75.72-1.02c.48-.39 1.26-.585 2.309-.585h.18c1.05 0 1.814.195 2.31.585.33.27.569.6.719 1.005.15.42.225.99.225 1.724m3.683-.405v1.92c0 .345.06.585.21.72.12.135.345.194.675.194h.135c.345 0 .585-.09.735-.3q.18-.27.18-1.304v-.645c0-.75-.076-1.214-.195-1.364-.135-.15-.39-.24-.75-.24h-.06c-.345 0-.585.075-.735.225-.135.135-.195.405-.195.794m0-2.504h.03q.652-.405 1.71-.405h.134c.9 0 1.56.27 1.965.81.33.465.51 1.29.51 2.474v1.08c0 1.2-.255 2.04-.765 2.504-.54.51-1.395.75-2.564.75h-.3c-1.23 0-2.07-.24-2.52-.735-.404-.435-.6-1.14-.6-2.13V4.284c0-.15.03-.255.106-.33.06-.06.195-.105.39-.105h1.394c.18 0 .315.045.39.105.075.075.12.18.12.33zm8.07.165v6.478c0 .15-.045.27-.12.33-.075.075-.21.105-.39.105h-1.38c-.195 0-.33-.03-.405-.105-.075-.06-.105-.18-.105-.33V7.087c0-.15.03-.255.105-.33.075-.06.21-.105.405-.105h1.38c.18 0 .315.045.39.105.075.075.12.18.12.33m-1.11-1.005h-.18c-.81 0-1.215-.404-1.215-1.244v-.075c0-.825.405-1.245 1.215-1.245h.18c.81 0 1.215.42 1.215 1.245v.075c0 .84-.405 1.244-1.215 1.244m6.232 6.119h.165c.51 0 1.05-.06 1.59-.195.15-.03.24-.045.285-.045.15 0 .24.09.27.255l.12.75c.03.21.06.344.06.404 0 .18-.135.315-.39.405-.69.24-1.455.36-2.264.36h-.285q-1.845 0-2.61-.765a2.15 2.15 0 0 1-.6-1.02c-.104-.39-.15-.914-.15-1.559v-.84c0-1.304.3-2.22.9-2.759.51-.45 1.29-.675 2.355-.675h.21c1.05 0 1.814.255 2.264.75.48.54.72 1.425.72 2.684v.78c0 .285-.15.42-.435.42h-3.6v.12c0 .36.09.6.3.735.196.135.556.195 1.095.195m-1.394-2.61h1.65c.12 0 .18-.06.18-.195v-.24c0-.3-.06-.524-.15-.69-.12-.18-.36-.27-.69-.27h-.135c-.3 0-.51.076-.63.21q-.225.27-.225.81zm7.198-2.129h.045c.33-.54.885-.81 1.68-.81h.6c.15 0 .27.03.33.09s.104.165.104.33v1.095c0 .165-.03.27-.09.33q-.09.09-.315.09h-.45c-.554 0-.93.105-1.14.315-.18.18-.254.524-.254 1.034v3.63c0 .15-.045.27-.12.329-.075.075-.21.105-.39.105h-1.38c-.194 0-.33-.03-.404-.105-.075-.06-.105-.18-.105-.33V7.072c0-.15.03-.255.105-.315s.21-.105.404-.105h.72c.165 0 .285.03.36.075a.6.6 0 0 1 .18.27zm6.09 1.095h-2.384c-.15 0-.255-.015-.315-.075s-.075-.18-.075-.36V7.087c0-.18.015-.285.075-.345q.09-.09.315-.09h5.068c.15 0 .255.03.33.09.06.06.105.18.105.345v.285c0 .39-.12.75-.33 1.065l-2.579 3.659h2.564c.15 0 .24.03.3.09s.09.165.09.345v1.034q0 .27-.09.36c-.06.06-.15.075-.3.075h-5.158c-.315 0-.465-.135-.465-.435v-.345c0-.39.105-.735.33-1.064zm11.76 4.828h-.03c-.33.51-.99.75-1.965.75h-.225c-.765 0-1.364-.195-1.784-.585-.435-.39-.645-.975-.645-1.724v-.165c0-.81.225-1.395.69-1.725s1.215-.495 2.264-.495h.105c.39 0 .75.03 1.05.06v-.315c0-.314-.09-.54-.255-.66-.18-.104-.48-.164-.9-.164-.51 0-1.08.09-1.74.255-.18.045-.314.045-.374 0-.075-.045-.12-.135-.135-.285l-.12-.795c-.03-.135-.03-.24-.03-.3 0-.18.12-.315.36-.39.764-.21 1.62-.33 2.564-.33 1.155 0 1.98.255 2.46.735.374.39.57 1.02.57 1.875v4.453c0 .15-.046.27-.12.33-.076.06-.21.09-.39.09h-.706c-.18 0-.3-.015-.374-.06s-.135-.135-.18-.285zm-.54-1.92v-.42a4.3 4.3 0 0 0-.72-.044h-.165q-.54 0-.765.135c-.15.09-.21.27-.21.54v.06c0 .27.06.45.21.54.135.104.345.15.63.15h.105c.3 0 .525-.075.705-.225.135-.12.21-.375.21-.735m5.665-4.168c.525-.51 1.275-.78 2.234-.78h.135c.93 0 1.59.27 1.995.78.36.48.54 1.29.54 2.46v1.124c0 .63-.06 1.155-.15 1.544a2.14 2.14 0 0 1-.54.975c-.51.495-1.2.735-2.1.735h-.164q-.855 0-1.395-.315v2.31c0 .224-.045.374-.12.434-.09.06-.255.09-.51.09h-1.14c-.254 0-.42-.03-.51-.105-.09-.06-.12-.21-.12-.42V7.132c0-.18.03-.3.12-.375.076-.06.21-.105.406-.105h.63c.18 0 .314.03.39.06.06.045.12.135.164.255l.105.33zm.555 2.13v1.919c0 .345.06.585.21.72.135.135.36.194.675.194h.135c.345 0 .585-.09.735-.3q.18-.27.18-1.304v-.645c0-.72-.06-1.17-.18-1.334-.15-.18-.39-.27-.75-.27h-.105c-.33 0-.555.075-.705.225-.135.135-.195.405-.195.794m8.324 2.624h.48c.15 0 .27.045.33.105.06.074.105.21.105.404v.93c0 .21-.045.345-.105.405-.06.075-.18.105-.33.105h-1.14c-.75 0-1.274-.135-1.574-.435-.3-.285-.45-.795-.45-1.514V4.283c0-.15.03-.255.105-.33.075-.06.21-.105.405-.105h1.38c.18 0 .315.045.39.105.075.075.12.18.12.33v7.483c0 .12.015.195.06.225.03.045.105.06.224.06m4.33-4.964v6.478c0 .15-.046.27-.12.33-.076.075-.21.105-.39.105h-1.38c-.195 0-.33-.03-.405-.105-.075-.06-.105-.18-.105-.33V7.087c0-.15.03-.255.105-.33.075-.06.21-.105.405-.105h1.38c.18 0 .314.045.39.105.074.075.12.18.12.33m-1.11-1.005h-.18c-.81 0-1.215-.404-1.215-1.244v-.075c0-.825.405-1.245 1.215-1.245h.18c.81 0 1.214.42 1.214 1.245v.075c0 .84-.405 1.244-1.215 1.244m5.062 5.009v2.474c0 .15-.045.27-.12.33-.075.075-.21.105-.39.105h-1.38c-.194 0-.329-.03-.404-.105-.075-.06-.105-.18-.105-.33V4.283c0-.15.03-.255.105-.33.075-.06.21-.105.405-.105h1.38c.18 0 .314.045.39.105.074.075.12.18.12.33v4.888h.104l1.425-2.174a.69.69 0 0 1 .63-.345h1.74c.164 0 .254.06.254.18 0 .06-.045.165-.12.285l-1.724 2.58c-.135.21-.195.36-.195.45 0 .104.06.254.195.449l1.844 2.91c.06.12.09.194.09.254 0 .165-.105.24-.315.24h-1.664c-.21 0-.375-.015-.465-.075q-.135-.067-.27-.315l-1.425-2.52zm9.344 2.294h-.03c-.33.51-.99.75-1.964.75h-.225c-.765 0-1.364-.195-1.784-.585-.435-.39-.645-.975-.645-1.724v-.165c0-.81.225-1.395.69-1.725s1.214-.495 2.264-.495h.105c.39 0 .75.03 1.05.06v-.315c0-.314-.09-.54-.255-.66-.18-.104-.48-.164-.9-.164-.51 0-1.08.09-1.74.255-.18.045-.314.045-.374 0-.075-.045-.12-.135-.135-.285l-.12-.795c-.03-.135-.03-.24-.03-.3 0-.18.12-.315.36-.39.764-.21 1.62-.33 2.564-.33 1.154 0 1.98.255 2.46.735.374.39.569 1.02.569 1.875v4.453c0 .15-.045.27-.12.33s-.21.09-.39.09h-.705c-.18 0-.3-.015-.375-.06s-.134-.135-.18-.285zm-.54-1.92v-.42a4.3 4.3 0 0 0-.72-.044h-.164q-.54 0-.765.135c-.15.09-.21.27-.21.54v.06c0 .27.06.45.21.54.135.104.345.15.63.15h.105c.3 0 .525-.075.705-.225.135-.12.21-.375.21-.735m7.27.736h.12c.405 0 .84-.06 1.305-.195.15-.03.24-.045.285-.045.15 0 .24.09.27.255l.135.764c.03.21.06.345.06.405 0 .18-.135.315-.39.405-.66.24-1.38.345-2.16.345h-.18c-1.079 0-1.874-.24-2.368-.75q-.765-.764-.765-2.564v-.87c0-.705.06-1.26.18-1.65q.18-.585.584-.989c.525-.525 1.35-.795 2.475-.795h.15c.9 0 1.68.165 2.309.495.18.105.285.225.285.375 0 .09-.045.24-.12.45l-.285.72q-.113.27-.315.27a.6.6 0 0 1-.27-.075c-.48-.195-.93-.3-1.334-.3h-.06c-.39 0-.675.105-.855.285-.225.225-.33.69-.33 1.38v.509c0 .615.09 1.035.3 1.26.195.21.525.315.975.315m3.091 4.468h-.87c-.15 0-.27-.03-.33-.105-.06-.06-.09-.195-.09-.375v-1.05c0-.15.03-.27.09-.33s.18-.104.33-.104h.375c.27 0 .48-.06.615-.21.12-.12.18-.435.18-.93V7.087c0-.15.03-.255.105-.33.075-.06.21-.105.405-.105h1.38c.18 0 .314.045.389.105.075.075.12.18.12.33v6.643c0 1.08-.195 1.83-.584 2.264q-.608.675-2.115.675m1.59-10.587h-.18c-.81 0-1.215-.404-1.215-1.244v-.075c0-.825.405-1.245 1.215-1.245h.18c.81 0 1.214.42 1.214 1.245v.075c0 .84-.405 1.244-1.214 1.244m6.232 6.119h.165c.51 0 1.05-.06 1.59-.195.15-.03.24-.045.285-.045.149 0 .239.09.269.255l.12.75c.03.21.06.344.06.404 0 .18-.135.315-.39.405-.389.15-.704.39-.959.72s-.375.66-.375.96v.044c0 .285.135.42.405.42h.075c.165 0 .375-.03.615-.12.075-.015.135-.03.18-.03.074 0 .134.075.179.195l.075.315c.045.21.075.315.075.345 0 .09-.075.165-.21.225q-.584.225-1.214.225h-.09c-.525 0-.915-.105-1.185-.33s-.405-.54-.405-.96v-.045c0-.27.09-.57.285-.87s.45-.54.78-.749c-.12.015-.285.015-.495.015h-.285q-1.844 0-2.609-.765a2.15 2.15 0 0 1-.6-1.02c-.105-.39-.15-.914-.15-1.559v-.84c0-1.304.3-2.22.9-2.759.51-.45 1.29-.675 2.354-.675h.21c1.05 0 1.815.255 2.265.75.479.54.719 1.425.719 2.684v.78c0 .285-.15.42-.435.42h-3.598v.12c0 .36.09.6.299.735.195.135.555.195 1.095.195m-1.394-2.61h1.649c.12 0 .18-.06.18-.195v-.24c0-.3-.06-.524-.15-.69-.12-.18-.36-.27-.69-.27h-.135c-.3 0-.51.076-.629.21q-.225.27-.225.81zm10.958-.165v1.92c0 .345.06.585.21.72.12.135.345.194.675.194h.135c.345 0 .585-.09.735-.3q.18-.27.18-1.304v-.645c0-.75-.075-1.214-.195-1.364-.135-.15-.39-.24-.75-.24h-.06c-.345 0-.585.075-.735.225-.135.135-.195.405-.195.794m0-2.504h.03q.653-.405 1.71-.405h.135c.9 0 1.559.27 1.964.81.33.465.51 1.29.51 2.474v1.08c0 1.2-.255 2.04-.765 2.504-.539.51-1.394.75-2.564.75h-.3c-1.229 0-2.069-.24-2.519-.735-.405-.435-.6-1.14-.6-2.13V4.284c0-.15.03-.255.105-.33.06-.06.195-.105.39-.105h1.395c.18 0 .315.045.39.105.075.075.119.18.119.33zm9.974 6.463h-.03c-.329.51-.989.75-1.964.75h-.225c-.765 0-1.364-.195-1.784-.585-.435-.39-.645-.975-.645-1.724v-.165c0-.81.225-1.395.69-1.725s1.214-.495 2.264-.495h.105c.39 0 .75.03 1.05.06v-.315c0-.314-.09-.54-.255-.66-.18-.104-.48-.164-.9-.164-.51 0-1.08.09-1.74.255-.179.045-.314.045-.374 0-.075-.045-.12-.135-.135-.285l-.12-.795c-.03-.135-.03-.24-.03-.3 0-.18.12-.315.36-.39a9.7 9.7 0 0 1 2.564-.33c1.154 0 1.979.255 2.459.735.375.39.57 1.02.57 1.875v4.453c0 .15-.045.27-.12.33s-.21.09-.39.09h-.705c-.18 0-.3-.015-.375-.06s-.135-.135-.18-.285zm-.539-1.92v-.42a4.3 4.3 0 0 0-.72-.044h-.165q-.54 0-.765.135c-.15.09-.21.27-.21.54v.06c0 .27.06.45.21.54.135.104.345.15.63.15h.105c.3 0 .525-.075.705-.225.135-.12.21-.375.21-.735m7.779-4.948h.12c.87 0 1.515.21 1.905.615.36.39.555 1.05.555 1.98v4.453c0 .15-.045.27-.12.33-.075.075-.21.105-.39.105h-1.38c-.195 0-.33-.03-.405-.105-.075-.06-.105-.18-.105-.33V9.321c0-.33-.06-.57-.165-.69-.12-.12-.345-.194-.659-.194h-.09c-.33 0-.54.075-.66.195s-.165.36-.165.69v4.243c0 .15-.045.27-.12.33-.075.075-.21.105-.39.105h-1.38c-.195 0-.329-.03-.404-.105-.075-.06-.105-.18-.105-.33V7.072c0-.15.03-.255.105-.315s.209-.105.404-.105h.705c.18 0 .3.03.375.075q.112.067.18.27l.09.285h.045c.48-.51 1.155-.765 2.054-.765m6.407 4.574v2.474c0 .15-.045.27-.12.33-.075.075-.21.105-.39.105h-1.379c-.195 0-.33-.03-.405-.105-.075-.06-.105-.18-.105-.33V4.283c0-.15.03-.255.105-.33.075-.06.21-.105.405-.105h1.379c.18 0 .315.045.39.105.075.075.12.18.12.33v4.888h.105l1.425-2.174a.69.69 0 0 1 .629-.345h1.74c.165 0 .255.06.255.18 0 .06-.045.165-.12.285l-1.725 2.58c-.135.21-.195.36-.195.45 0 .104.06.254.195.449l1.845 2.91c.06.12.09.194.09.254 0 .165-.105.24-.315.24h-1.665c-.209 0-.374-.015-.464-.075q-.135-.067-.27-.315l-1.425-2.52zm8.954.225V7.087c0-.15.03-.255.105-.33.075-.06.21-.105.405-.105h1.38c.18 0 .315.045.39.105.075.075.12.18.12.33v4.439q0 1.372-.675 1.98c-.48.419-1.32.629-2.549.629-1.23 0-2.085-.21-2.549-.63q-.675-.607-.675-1.98V7.088c0-.15.03-.255.105-.33.075-.06.21-.105.405-.105h1.379c.18 0 .315.045.39.105.075.075.12.18.12.33v4.229c0 .345.045.57.165.69.12.135.33.195.66.195.315 0 .54-.06.66-.195.105-.12.164-.345.164-.69m12.422-.78V4.763c0-.21.015-.33.075-.39.06-.045.21-.075.45-.075h1.47c.24 0 .375.03.435.075.06.06.09.18.09.39v5.848c0 .66-.075 1.2-.21 1.62-.15.42-.375.78-.705 1.08-.615.554-1.59.824-2.909.824h-.18c-1.35 0-2.325-.27-2.924-.825q-.9-.832-.9-2.699V4.763c0-.21.015-.33.075-.39.06-.045.21-.075.45-.075h1.469c.24 0 .39.03.45.075.06.06.09.18.09.39v5.773c0 .6.09 1.005.3 1.2.195.21.54.3 1.05.3h.075c.495 0 .839-.09 1.049-.3.195-.195.3-.6.3-1.2m8.051-4.019h.12c.87 0 1.515.21 1.904.615.36.39.555 1.05.555 1.98v4.453c0 .15-.045.27-.12.33-.075.075-.21.105-.39.105h-1.379c-.195 0-.33-.03-.405-.105-.075-.06-.105-.18-.105-.33V9.321c0-.33-.06-.57-.165-.69-.12-.12-.345-.194-.66-.194h-.09c-.33 0-.54.075-.66.195-.119.12-.164.36-.164.69v4.243c0 .15-.045.27-.12.33-.075.075-.21.105-.39.105h-1.38c-.195 0-.33-.03-.405-.105-.075-.06-.105-.18-.105-.33V7.072c0-.15.03-.255.105-.315s.21-.105.405-.105h.705c.18 0 .3.03.375.075q.112.067.18.27l.09.285h.045c.48-.51 1.154-.765 2.054-.765m6.437.57v6.478c0 .15-.045.27-.12.33-.075.075-.21.105-.39.105h-1.38c-.195 0-.33-.03-.404-.105-.075-.06-.105-.18-.105-.33V7.087c0-.15.03-.255.105-.33.074-.06.209-.105.404-.105h1.38c.18 0 .315.045.39.105.075.075.12.18.12.33m-1.11-1.005h-.18c-.81 0-1.214-.404-1.214-1.244v-.075c0-.825.404-1.245 1.214-1.245h.18c.81 0 1.215.42 1.215 1.245v.075c0 .84-.405 1.244-1.215 1.244m6.712 8.053h-.149c-1.455 0-2.49-.33-3.12-1.005q-.854-.9-.854-3.059V8.227c0-1.41.285-2.43.869-3.044.63-.675 1.68-1.02 3.12-1.02h.104c1.125 0 2.1.225 2.94.66q.314.18.18.54l-.495 1.26c-.06.15-.15.224-.255.224a.5.5 0 0 1-.285-.075c-.705-.33-1.365-.51-1.98-.51h-.06c-.644 0-1.079.18-1.289.54-.195.33-.285.915-.285 1.785V9.65c0 .96.135 1.605.42 1.92.27.315.75.465 1.409.465h.06c.6 0 1.23-.135 1.86-.42.09-.03.18-.06.24-.06q.18 0 .27.315l.255 1.08c.03.12.045.224.045.284 0 .18-.15.315-.45.42-.825.33-1.68.48-2.55.48m6.247-6.673h.045c.33-.54.884-.81 1.679-.81h.6c.15 0 .27.03.33.09s.105.165.105.33v1.095c0 .165-.03.27-.09.33q-.09.09-.315.09h-.45c-.555 0-.93.105-1.14.315-.179.18-.254.524-.254 1.034v3.63c0 .15-.045.27-.12.329-.075.075-.21.105-.39.105h-1.38c-.195 0-.33-.03-.405-.105-.075-.06-.105-.18-.105-.33V7.072c0-.15.03-.255.105-.315s.21-.105.405-.105h.72c.165 0 .285.03.36.075a.6.6 0 0 1 .18.27zm7.156 4.739h.165c.51 0 1.05-.06 1.589-.195.15-.03.24-.045.285-.045.15 0 .24.09.27.255l.12.75c.03.21.06.344.06.404 0 .18-.135.315-.39.405-.689.24-1.454.36-2.264.36h-.285q-1.844 0-2.609-.765a2.15 2.15 0 0 1-.6-1.02c-.105-.39-.15-.914-.15-1.559v-.84c0-1.304.3-2.22.9-2.759.51-.45 1.29-.675 2.354-.675h.21c1.05 0 1.815.255 2.264.75.48.54.72 1.425.72 2.684v.78c0 .285-.15.42-.435.42h-3.599v.12c0 .36.09.6.3.735.195.135.555.195 1.095.195m-1.395-2.61h1.65c.12 0 .18-.06.18-.195v-.24c0-.3-.06-.524-.15-.69-.12-.18-.36-.27-.69-.27h-.135c-.3 0-.51.076-.63.21q-.225.27-.225.81zm9.418 1.755V9.44c0-.374-.06-.644-.18-.794-.135-.15-.375-.24-.705-.24h-.15c-.33 0-.555.09-.69.255-.15.165-.209.63-.209 1.41v.659c0 .72.074 1.17.224 1.32.12.15.345.21.69.21h.165c.285 0 .495-.06.645-.195.135-.135.21-.375.21-.72m-.03-4.559h.03V4.283c0-.15.03-.255.105-.33.075-.06.21-.105.405-.105h1.394c.18 0 .315.045.39.105.06.075.105.18.105.33v6.823c0 1.05-.195 1.77-.585 2.19a2.33 2.33 0 0 1-1.034.644c-.42.135-.975.195-1.68.195h-.255c-1.109 0-1.904-.225-2.414-.675-.525-.45-.78-1.29-.78-2.534v-1.2c0-1.2.24-2.04.75-2.519.48-.45 1.14-.69 1.994-.69h.18q.855 0 1.395.27m6.287.3v6.478c0 .15-.045.27-.12.33-.074.075-.209.105-.389.105h-1.38c-.195 0-.33-.03-.405-.105-.075-.06-.105-.18-.105-.33V7.087c0-.15.03-.255.105-.33.075-.06.21-.105.405-.105h1.38c.18 0 .315.045.389.105.075.075.12.18.12.33m-1.109-1.005h-.18c-.81 0-1.215-.404-1.215-1.244v-.075c0-.825.405-1.245 1.215-1.245h.18c.81 0 1.214.42 1.214 1.245v.075c0 .84-.404 1.244-1.214 1.244m7.357 6.508v.855c0 .225-.045.375-.105.45s-.195.105-.375.105h-1.2c-1.079 0-1.799-.18-2.129-.555-.3-.315-.435-.915-.435-1.814V8.527h-.81c-.15 0-.239-.015-.299-.075s-.075-.15-.075-.3v-.765c0-.18.015-.3.075-.36.045-.06.149-.105.314-.15l.795-.195v-1.47c0-.15.03-.254.105-.33.075-.06.21-.104.405-.104h1.38c.18 0 .315.045.389.105.075.075.12.18.12.33v1.44h1.245c.15 0 .24.03.3.09s.09.164.09.344v1.005q0 .27-.09.36c-.06.06-.15.075-.3.075h-1.245v2.834c0 .27.03.435.12.525.09.105.285.15.585.15h.66c.18 0 .315.045.375.12.06.074.105.224.105.434m3.474.15v.15c0 .84-.405 1.245-1.2 1.245h-.165c-.809 0-1.199-.405-1.199-1.245v-.15c0-.434.09-.75.3-.93.195-.18.494-.284.899-.284h.165c.39 0 .69.105.9.285.195.18.3.495.3.93"/></svg>