<svg xmlns="http://www.w3.org/2000/svg" fill="none" viewBox="0 0 121 69"><path fill="#fff" d="M.218.846h8.316V15H5.783V3.24H2.969V15H.218zM10.964 15V1.056c.777-.168 1.827-.273 2.877-.273 1.638 0 2.92.231 3.843 1.092.84.735 1.218 1.911 1.218 3.108 0 1.533-.462 2.604-1.197 3.402-.882.924-2.31 1.344-3.444 1.344h-.546V15zm2.751-11.886v4.368c.126.042.273.042.441.042 1.386 0 2.016-.987 2.016-2.31 0-1.239-.504-2.205-1.785-2.205-.252 0-.504.042-.672.105M24.531.678c3.423 0 4.389 3.759 4.389 6.993 0 5.334-1.89 7.497-4.578 7.497-3.213 0-4.473-3.402-4.473-7.287 0-3.864 1.533-7.203 4.662-7.203m-.105 2.394c-1.092 0-1.701 1.806-1.701 4.851 0 3.213.609 4.851 1.722 4.851 1.155 0 1.596-2.1 1.596-4.977 0-2.478-.378-4.725-1.617-4.725M34.473.342h2.415v1.071c2.541.336 4.473 2.331 4.473 6.405 0 4.347-1.953 6.174-4.473 6.531v1.155h-2.436v-1.155c-2.562-.378-4.473-2.184-4.473-6.468 0-4.158 2.29-6.132 4.494-6.468zm0 11.991V3.408c-.84.252-1.743 1.386-1.743 4.515 0 2.919.882 4.221 1.743 4.41m2.394-8.925v8.925c.924-.189 1.743-1.323 1.743-4.494 0-3.213-.945-4.242-1.743-4.431M43.1.846h2.436v3.129c0 2.604-.168 5.04-.273 6.51h.042c.399-1.218 1.113-3.066 1.533-4.158L48.917.846h2.499V15H49v-3.192c0-2.835.105-4.935.168-6.363h-.042c-.315 1.281-.945 2.982-1.407 4.158L45.64 15H43.1zm11.312 0h7.371V15h-2.75V3.24h-2.1v3.738c0 3.255-.21 6.111-1.996 7.497-.525.42-1.197.693-1.89.693l-.588-2.331c.336-.084.693-.252.945-.504.82-.84 1.008-2.352 1.008-5.103zm14.599 10.92H66.47L65.84 15h-2.667L66.239.846h3.297L72.286 15H69.62zm-2.268-2.142h2.016l-.462-2.961c-.147-.861-.336-2.268-.462-3.213h-.063c-.147.945-.357 2.415-.504 3.234zM73.84.846h2.688v6.153h.21l2.31-6.153h3.024l-3.255 6.552c1.449.546 1.932 1.869 2.331 3.591.315 1.365.546 2.709.966 4.011h-2.751c-.336-1.008-.546-2.163-.777-3.276-.336-1.659-.714-2.73-1.848-2.73h-.21V15h-2.688zM85.238 15V3.387H82.74V.846h7.77v2.541h-2.52V15zM91.95.846h2.436v3.129c0 2.604-.168 5.04-.273 6.51h.042c.4-1.218 1.113-3.066 1.533-4.158l2.08-5.481h2.498V15H97.85v-3.192c0-2.835.105-4.935.168-6.363h-.042c-.315 1.281-.945 2.982-1.407 4.158L94.49 15h-2.54zm10.767 0h2.688v6.153h.21l2.31-6.153h3.024l-3.255 6.552c1.449.546 1.932 1.869 2.331 3.591.315 1.365.546 2.709.966 4.011h-2.751c-.336-1.008-.546-2.163-.777-3.276-.336-1.659-.714-2.73-1.848-2.73h-.21V15h-2.688zm14.632 10.92h-2.541l-.63 3.234h-2.667L114.576.846h3.297L120.624 15h-2.667zm-2.268-2.142h2.016l-.462-2.961c-.147-.861-.336-2.268-.462-3.213h-.063c-.147.945-.357 2.415-.504 3.234zM.218 39.958V26.056c.84-.189 1.932-.273 3.129-.273 1.323 0 2.604.168 3.591 1.008.756.63 1.071 1.575 1.071 2.562 0 1.26-.651 2.478-2.058 3.087v.084c1.638.462 2.52 1.827 2.52 3.381 0 1.176-.378 2.079-1.05 2.772-.84.924-2.268 1.428-4.641 1.428-1.05 0-1.932-.063-2.562-.147m2.751-12.033v3.738h.588c.987 0 1.743-.84 1.743-1.995 0-1.029-.483-1.827-1.617-1.827-.294 0-.546.021-.714.084m0 5.775v4.242c.168.042.357.042.609.042 1.113 0 2.037-.672 2.037-2.121 0-1.407-.966-2.142-2.058-2.163zm7.106-5.082-.462-2.121c.61-.42 1.785-.819 3.13-.819 2.687 0 3.947 1.638 3.947 3.486 0 1.449-.966 2.856-2.394 3.213v.042c1.66.336 2.814 1.596 2.814 3.549 0 2.709-2.31 4.2-4.85 4.2-1.177 0-2.206-.273-2.857-.63l.4-2.247c.608.357 1.406.567 2.183.567 1.47 0 2.247-.84 2.247-1.974 0-1.575-1.302-2.205-2.793-2.205h-.399V31.6h.273c1.26 0 2.52-.609 2.52-1.911 0-.987-.609-1.659-1.785-1.659-.65 0-1.428.273-1.974.588m9.965-2.772h7.287v11.802l1.113.042-.126 5.397h-2.079L26.13 40h-6.153l-.105 3.087h-2.1l-.105-5.397 1.008-.042c.441-1.071.735-2.142.966-3.297.273-1.617.399-3.276.399-4.935zm2.52 2.394v1.638c0 1.617-.105 3.255-.336 4.767-.168 1.008-.42 2.1-.714 2.961h3.087V28.24zm5.863-2.394h2.961l1.302 5.334c.19.798.357 1.638.462 2.268h.063c.126-.672.21-1.533.336-2.331l.945-5.271h2.793l-2.1 7.539c-.483 1.785-1.029 3.717-1.743 4.935-.672 1.113-1.7 1.848-2.877 1.848-.483 0-.84-.042-1.113-.126l.105-2.247c.126.021.336.063.672.063.714 0 1.302-.735 1.512-1.428.105-.294.084-.525-.02-.84zM40.552 40V28.387h-2.5v-2.541h7.77v2.541h-2.52V40zm6.71-14.154H49.7v3.129c0 2.604-.168 5.04-.273 6.51h.042c.399-1.218 1.113-3.066 1.533-4.158l2.079-5.481h2.499V40h-2.415v-3.192c0-2.835.105-4.935.168-6.363h-.042c-.315 1.281-.945 2.982-1.407 4.158L49.803 40h-2.54zM59.857 40h-2.919c.19-.42.379-.966.547-1.512.377-1.428.377-3.402 1.427-4.515.252-.273.63-.504 1.008-.609v-.042c-1.49-.462-2.435-1.617-2.435-3.402 0-1.449.545-2.457 1.301-3.087.904-.735 2.164-1.05 3.592-1.05 1.05 0 2.142.084 3.002.273V40h-2.75v-5.649h-.294c-.483 0-.861.189-1.135.525-.608.777-.714 2.835-.945 3.885-.105.42-.21.84-.399 1.239m2.773-7.791v-4.221c-.148-.021-.316-.063-.546-.063-1.282 0-1.828 1.029-1.828 2.1 0 1.344.798 2.205 1.995 2.205.169 0 .231 0 .379-.021M.218 50.846h2.436v3.129c0 2.604-.168 5.04-.273 6.51h.042c.399-1.218 1.113-3.066 1.533-4.158l2.079-5.481h2.499V65H6.119v-3.192c0-2.835.105-4.935.168-6.363h-.042c-.315 1.281-.945 2.982-1.407 4.158L2.759 65H.218zm15.474 0h7.287v11.802l1.113.042-.126 5.397h-2.079L21.782 65H15.63l-.105 3.087h-2.1l-.105-5.397 1.008-.042c.441-1.071.735-2.142.966-3.297.273-1.617.4-3.276.4-4.935zm2.52 2.394v1.638c0 1.617-.105 3.255-.336 4.767-.168 1.008-.42 2.1-.714 2.961h3.087V53.24zm7.415-2.394h2.436v3.129c0 2.604-.168 5.04-.273 6.51h.042c.4-1.218 1.113-3.066 1.533-4.158l2.08-5.481h2.498V65h-2.415v-3.192c0-2.835.105-4.935.168-6.363h-.042c-.315 1.281-.945 2.982-1.407 4.158L28.168 65h-2.54zm15.555 10.92H38.64L38.01 65h-2.667l3.066-14.154h3.297L44.457 65h-2.666zm-2.268-2.142h2.016l-.462-2.961c-.147-.861-.336-2.268-.462-3.213h-.063c-.147.945-.357 2.415-.504 3.234zM46.012 65V51.056c.777-.168 1.827-.273 2.877-.273 1.638 0 2.919.231 3.843 1.092.84.735 1.218 1.911 1.218 3.108 0 1.533-.462 2.604-1.197 3.402-.882.924-2.31 1.344-3.444 1.344h-.546V65zm2.75-11.886v4.368c.127.042.274.042.442.042 1.386 0 2.016-.987 2.016-2.31 0-1.239-.504-2.205-1.785-2.205-.252 0-.504.042-.672.105m12.833 3.381v2.289H58.36v3.822h3.654V65H55.61V50.846h6.153v2.394H58.36v3.255zm2.28-5.649h2.435v3.129c0 2.604-.168 5.04-.273 6.51h.042c.4-1.218 1.113-3.066 1.533-4.158l2.08-5.481h2.498V65h-2.415v-3.192c0-2.835.105-4.935.168-6.363h-.042c-.315 1.281-.945 2.982-1.407 4.158L66.415 65h-2.54z"/></svg>