<svg xmlns="http://www.w3.org/2000/svg" fill="none" viewBox="0 0 135 47"><path fill="#fff" d="M1.392.824h9.504V17H7.752V3.56H4.536V17H1.392zM13.673 17V1.064c.888-.192 2.088-.312 3.288-.312 1.872 0 3.336.264 4.392 1.248.96.84 1.392 2.184 1.392 3.552 0 1.752-.528 2.976-1.368 3.888-1.008 1.056-2.64 1.536-3.936 1.536h-.624V17zm3.144-13.584v4.992c.144.048.312.048.504.048 1.584 0 2.304-1.128 2.304-2.64 0-1.416-.576-2.52-2.04-2.52-.288 0-.576.048-.768.12M24.642.824h2.784V4.4c0 2.976-.192 5.76-.312 7.44h.048c.456-1.392 1.272-3.504 1.752-4.752L31.29.824h2.856V17h-2.76v-3.648c0-3.24.12-5.64.192-7.272h-.048c-.36 1.464-1.08 3.408-1.608 4.752L27.546 17h-2.904zm16.125 0h9.504V17h-3.144V3.56h-3.216V17h-3.144zM53.048 17V1.064c.888-.192 2.088-.312 3.288-.312 1.872 0 3.336.264 4.392 1.248.96.84 1.392 2.184 1.392 3.552 0 1.752-.528 2.976-1.368 3.888-1.008 1.056-2.64 1.536-3.936 1.536h-.624V17zm3.144-13.584v4.992c.144.048.312.048.504.048C58.28 8.456 59 7.328 59 5.816c0-1.416-.576-2.52-2.04-2.52-.288 0-.576.048-.768.12M64.017.824h2.784V4.4c0 2.976-.192 5.76-.312 7.44h.048c.456-1.392 1.272-3.504 1.752-4.752L70.665.824h2.856V17h-2.76v-3.648c0-3.24.12-5.64.192-7.272h-.048c-.36 1.464-1.08 3.408-1.608 4.752L66.921 17h-2.904zM83.162 7.28v2.616h-3.696v4.368h4.176V17h-7.32V.824h7.032V3.56h-3.888v3.72zM95.943 17l-.288-5.664c-.072-1.536-.192-3.624-.144-5.352h-.072a71 71 0 0 1-1.032 4.968l-1.392 5.784h-2.232l-1.344-5.688c-.312-1.296-.744-3.312-.984-5.064h-.072a179 179 0 0 1-.24 5.4L87.879 17h-2.712L86.343.824h3.312l1.296 5.856c.456 2.04.864 3.84 1.152 5.664h.048c.24-1.8.6-3.624 1.032-5.664L94.455.824h3.312L98.751 17zm11.945-9.72v2.616h-3.696v4.368h4.176V17h-7.32V.824h7.032V3.56h-3.888v3.72zM6.864 42.304H3.96L3.24 46H.192l3.504-16.176h3.768L10.608 46H7.56zm-2.592-2.448h2.304l-.528-3.384c-.168-.984-.384-2.592-.528-3.672h-.072c-.168 1.08-.408 2.76-.576 3.696zm8.112-10.032h3.144v6.48h3.288v-6.48h3.144V46h-3.144v-6.768h-3.288V46h-3.144zM26.488 46V32.728h-2.856v-2.904h8.88v2.904h-2.88V46zm7.67-16.176h2.784V33.4c0 2.976-.192 5.76-.312 7.44h.048c.456-1.392 1.272-3.504 1.752-4.752l2.376-6.264h2.856V46h-2.76v-3.648c0-3.24.12-5.64.192-7.272h-.048c-.36 1.464-1.08 3.408-1.608 4.752L37.062 46h-2.904zm12.304 0h8.256v2.688h-5.136v3.384a5.7 5.7 0 0 1 1.272-.12c1.392 0 2.616.432 3.504 1.2.96.84 1.536 2.112 1.536 3.744 0 1.56-.48 2.808-1.344 3.672-1.104 1.176-2.832 1.728-5.16 1.728-1.2 0-2.208-.072-2.928-.168zm3.144 8.544v5.184c.216.048.432.048.696.048.744 0 1.344-.288 1.728-.768.408-.48.6-1.152.6-1.872 0-.744-.216-1.416-.624-1.872a2.17 2.17 0 0 0-1.68-.792q-.396 0-.72.072m8.177-8.544h2.784V33.4c0 2.976-.192 5.76-.312 7.44h.048c.456-1.392 1.272-3.504 1.752-4.752l2.376-6.264h2.856V46h-2.76v-3.648c0-3.24.12-5.64.192-7.272h-.048c-.36 1.464-1.08 3.408-1.608 4.752L60.687 46h-2.904zm16.84-.192c3.912 0 5.016 4.296 5.016 7.992 0 6.096-2.16 8.568-5.232 8.568-3.672 0-5.112-3.888-5.112-8.328 0-4.416 1.752-8.232 5.328-8.232m-.12 2.736c-1.248 0-1.944 2.064-1.944 5.544 0 3.672.696 5.544 1.968 5.544 1.32 0 1.824-2.4 1.824-5.688 0-2.832-.432-5.4-1.848-5.4M83.066 46V32.728H80.21v-2.904h8.88v2.904h-2.88V46zm7.67-16.176h2.784V33.4c0 2.976-.192 5.76-.312 7.44h.048c.456-1.392 1.272-3.504 1.752-4.752l2.376-6.264h2.856V46h-2.76v-3.648c0-3.24.12-5.64.192-7.272h-.048c-.36 1.464-1.08 3.408-1.608 4.752L93.64 46h-2.904zm12.304 0h3.072v7.032h.24l2.64-7.032h3.456l-3.72 7.488c1.656.624 2.208 2.136 2.664 4.104.36 1.56.624 3.096 1.104 4.584h-3.144c-.384-1.152-.624-2.472-.888-3.744-.384-1.896-.816-3.12-2.112-3.12h-.24V46h-3.072zm15.201-.192c3.912 0 5.016 4.296 5.016 7.992 0 6.096-2.16 8.568-5.232 8.568-3.672 0-5.112-3.888-5.112-8.328 0-4.416 1.752-8.232 5.328-8.232m-.12 2.736c-1.248 0-1.944 2.064-1.944 5.544 0 3.672.696 5.544 1.968 5.544 1.32 0 1.824-2.4 1.824-5.688 0-2.832-.432-5.4-1.848-5.4m7.138 13.584V30.064c.96-.216 2.208-.312 3.576-.312 1.512 0 2.976.192 4.104 1.152.864.72 1.224 1.8 1.224 2.928 0 1.44-.744 2.832-2.352 3.528v.096c1.872.528 2.88 2.088 2.88 3.864 0 1.344-.432 2.376-1.2 3.168-.96 1.056-2.592 1.632-5.304 1.632-1.2 0-2.208-.072-2.928-.168m3.144-13.752v4.272h.672c1.128 0 1.992-.96 1.992-2.28 0-1.176-.552-2.088-1.848-2.088-.336 0-.624.024-.816.096m0 6.6v4.848c.192.048.408.048.696.048 1.272 0 2.328-.768 2.328-2.424 0-1.608-1.104-2.448-2.352-2.472z"/></svg>