<svg xmlns="http://www.w3.org/2000/svg" fill="none" viewBox="0 0 92 80"><path fill="#fff" d="M6.706 3.047v.731h-4.04v-.731zm.636 0V13h-.78V3.047zm-4.95 0h.78L2.96 7.654a39 39 0 0 1-.144 2.01 10 10 0 0 1-.253 1.51q-.156.63-.41 1.033-.246.404-.622.602-.369.19-.895.191h-.26v-.731l.219-.007q.335-.014.58-.158.247-.143.418-.464.177-.322.287-.855.116-.54.191-1.34t.123-1.9zm11.571 9.222V13H9.315v-.731zM9.527 3.047V13h-.78V3.047zm3.855 4.457v.731H9.315v-.731zm.547-4.457v.731H9.315v-.731zm1.625 0V13h-.787V3.047zm5.216 0-3.692 5.29H15.24l-.082-.737h1.456l3.179-4.553zM20.052 13 16.6 8.235l.444-.745L21.016 13zm4.304-9.352L21.492 13h-.807l3.165-9.953h.554zM26.933 13l-2.871-9.352-.034-.601h.547L27.74 13zm-.451-3.514v.732h-4.485v-.732zm4.666-.533H28.79v-.731h2.358q.732 0 1.183-.287.451-.294.656-.787.213-.498.212-1.114 0-.609-.212-1.12a1.76 1.76 0 0 0-.656-.821q-.45-.315-1.183-.315h-2.112V13h-.78V3.047h2.892q.917 0 1.545.376.636.376.957 1.046.329.67.328 1.552 0 .915-.32 1.579-.322.656-.951 1.004-.63.35-1.559.35m8.85.943h.787q-.069 1.115-.452 1.832a2.48 2.48 0 0 1-1.052 1.067q-.663.348-1.593.349-.719 0-1.292-.28a2.8 2.8 0 0 1-.985-.807 3.9 3.9 0 0 1-.622-1.292 6.4 6.4 0 0 1-.212-1.71V6.924q0-.937.212-1.675.219-.745.63-1.265.416-.525 1.004-.8a3.1 3.1 0 0 1 1.32-.273q.901 0 1.558.342a2.4 2.4 0 0 1 1.04 1.06q.375.718.444 1.852h-.787q-.06-.915-.328-1.47-.26-.553-.738-.8-.478-.252-1.19-.252a2.2 2.2 0 0 0-1.018.225q-.438.219-.745.643-.3.417-.458 1.025a5.5 5.5 0 0 0-.157 1.374v2.147q0 .759.143 1.38.15.615.438 1.06.294.444.724.684a2.14 2.14 0 0 0 1.019.232q.738 0 1.217-.232.485-.233.752-.78.273-.553.341-1.504m4.407-6.85V13h-.772V3.047zm2.837 0v.732H40.81v-.731zm3.532 5.169h-2.31l-.014-.718h2.002q.602 0 1.02-.212a1.43 1.43 0 0 0 .642-.629q.225-.417.225-1.025 0-.63-.218-1.04a1.32 1.32 0 0 0-.65-.608q-.431-.204-1.087-.205h-1.73V13h-.779V3.047h2.51q.635 0 1.14.157.514.15.869.472.356.314.54.806.192.493.191 1.17 0 .615-.239 1.107a2.116 2.116 0 0 1-1.682 1.196zM50.719 13h-2.522l.417-.731h2.105q.602 0 1.026-.246.423-.254.649-.711.232-.466.232-1.108 0-.56-.198-1.012a1.57 1.57 0 0 0-.608-.71q-.41-.267-1.046-.267h-1.49l.013-.718h2.085l.15.26q.575.068.992.41.423.342.656.868.233.527.233 1.155 0 .91-.342 1.539a2.34 2.34 0 0 1-.944.95q-.6.321-1.408.321m8.898-.731V13h-4.648v-.731zm-4.436-9.222V13h-.78V3.047zm3.855 4.457v.731h-4.067v-.731zm.547-4.457v.731h-4.614v-.731zm6.396 4.457v.731h-4.97v-.731zm-4.806-4.457V13h-.78V3.047zm5.455 0V13h-.786V3.047zm6.984 4.457v.731h-4.97v-.731zm-4.806-4.457V13h-.779V3.047zm5.456 0V13h-.787V3.047zm1.945 4.307h2.31q.91 0 1.525.355.622.348.937.984.314.63.314 1.47 0 .622-.184 1.149a2.5 2.5 0 0 1-.527.895 2.4 2.4 0 0 1-.868.588 3.2 3.2 0 0 1-1.196.205h-2.844V3.047h.786v9.222h2.058q.704 0 1.148-.294.445-.294.643-.78a2.7 2.7 0 0 0 .205-1.046q0-.553-.205-1.018a1.65 1.65 0 0 0-.643-.759q-.444-.287-1.148-.287h-2.31zm7.185-4.307V13h-.786V3.047zm2.253 8.47 4.642-8.47h.772V13h-.772V4.517L85.645 13h-.779V3.047h.78zM89.282.6h.697q0 .519-.239.916-.232.396-.677.622-.436.225-1.053.225-.922 0-1.456-.492Q86.03 1.38 86.029.6h.704q0 .471.287.82.288.342.991.342.684 0 .978-.349.294-.348.294-.813M7.396 19.047V29H6.61v-9.222H1.996V29H1.21v-9.953zm4.312 5.906H9.349v-.731h2.358q.732 0 1.183-.287a1.7 1.7 0 0 0 .656-.787q.212-.499.212-1.114 0-.609-.212-1.12a1.76 1.76 0 0 0-.656-.821q-.45-.315-1.183-.315H9.596V29h-.78v-9.953h2.893q.915 0 1.544.376.636.376.957 1.046.33.67.329 1.551 0 .917-.322 1.58-.32.656-.95 1.005t-1.559.348m8.89 3.316V29H15.95v-.731zm-4.436-9.222V29h-.78v-9.953zm3.855 4.457v.731H15.95v-.731zm.547-4.457v.731H15.95v-.731zm7.025 0V29h-.786v-9.222H22.19V29h-.786v-9.953zm4.222.601L28.947 29h-.806l3.165-9.953h.553zM34.39 29l-2.872-9.352-.034-.601h.547L35.195 29zm-.452-3.514v.732h-4.484v-.732zm4.667-.533h-2.358v-.731h2.358q.732 0 1.182-.287.452-.294.657-.787.212-.499.212-1.114 0-.609-.212-1.12a1.76 1.76 0 0 0-.657-.821q-.45-.315-1.182-.315h-2.112V29h-.78v-9.953h2.892q.916 0 1.545.376.636.376.957 1.046.328.67.328 1.551 0 .917-.321 1.58-.322.656-.95 1.005-.63.348-1.56.348m5.535-5.305L41.274 29h-.806l3.165-9.953h.553zM46.716 29l-2.871-9.352-.035-.601h.547L47.522 29zm-.452-3.514v.732H41.78v-.732zm3.737-6.44V29h-.772v-9.953zm2.837 0v.732h-6.432v-.731zm-1.041 9.448a.6.6 0 0 1 .15-.41q.15-.17.424-.17t.43.17q.158.17.158.41t-.157.404a.57.57 0 0 1-.431.163q-.273 0-.424-.163a.57.57 0 0 1-.15-.404m10.932-9.447V29h-.786v-9.222H57.33V29h-.786v-9.953zm6.636 9.222V29h-4.649v-.731zm-4.437-9.222V29h-.78v-9.953zm3.856 4.457v.731h-4.068v-.731zm.546-4.457v.731h-4.614v-.731zm3.703 5.906h-2.358v-.731h2.358q.732 0 1.183-.287.451-.294.656-.787.212-.499.212-1.114 0-.609-.212-1.12a1.76 1.76 0 0 0-.656-.821q-.451-.315-1.183-.315h-2.112V29h-.78v-9.953h2.892q.916 0 1.545.376.636.376.957 1.046.328.67.328 1.551 0 .917-.321 1.58a2.25 2.25 0 0 1-.95 1.005q-.63.348-1.559.348m8.891 3.316V29h-4.648v-.731zm-4.437-9.222V29h-.779v-9.953zm3.856 4.457v.731h-4.067v-.731zm.547-4.457v.731h-4.614v-.731zm7.298 9.222V29h-6.521v-.731zm-6.364 0v3.15h-.78v-3.15zm7.027 0v3.144h-.779V28.27zm-1.558-9.222v.731h-3.774v-.731zm.635 0V29h-.779v-9.953zm-4.689 0h.772l-.136 3.602a17 17 0 0 1-.164 1.785 15 15 0 0 1-.287 1.503q-.165.678-.376 1.21a6 6 0 0 1-.438.923 3.3 3.3 0 0 1-.458.622q-.225.233-.444.308h-.445v-.731h.363q.143-.171.355-.561.219-.39.445-1.053.231-.67.41-1.654.184-.99.246-2.352zm-76.843 16V45H6.61v-9.222H1.996V45H1.21v-9.953zm4.312 5.906H9.349v-.731h2.358q.732 0 1.183-.287a1.7 1.7 0 0 0 .656-.787q.212-.498.212-1.114 0-.609-.212-1.12a1.76 1.76 0 0 0-.656-.821q-.45-.315-1.183-.315H9.596V45h-.78v-9.953h2.893q.915 0 1.544.376.636.376.957 1.046.33.67.329 1.551 0 .917-.322 1.58-.32.655-.95 1.005-.63.348-1.559.348m4.481 2.564 4.642-8.47h.773V45h-.773v-8.483L16.189 45h-.779v-9.953h.78zm7.094-8.47h.786l3.014 8.75 3.029-8.75h.772L27.391 45h-.601zm-.24 0h.684l.096 5.619V45h-.78zm7.41 0h.691V45h-.78v-4.334zm7.299 9.222V45h-4.649v-.731zm-4.437-9.222V45h-.779v-9.953zm3.856 4.457v.731h-4.068v-.731zm.547-4.457v.731h-4.615v-.731zm6.396 4.457v.731h-4.97v-.731zm-4.806-4.457V45h-.78v-9.953zm5.455 0V45h-.786v-9.953zm6.615 9.222V45h-4.649v-.731zm-4.437-9.222V45h-.779v-9.953zm3.856 4.457v.731h-4.068v-.731zm.547-4.457v.731h-4.615v-.731zm6.396 4.457v.731h-4.97v-.731zm-4.806-4.457V45h-.78v-9.953zm5.455 0V45h-.786v-9.953zm2.206 8.47 4.641-8.47h.773V45h-.773v-8.483L60.595 45h-.78v-9.953h.78zm12.07.752V45h-4.65v-.731zm-4.437-9.222V45h-.78v-9.953zm3.855 4.457v.731h-4.067v-.731zm.547-4.457v.731h-4.614v-.731zm1.05 0h.787l3.014 8.75 3.029-8.75h.772L77.789 45h-.602zm-.239 0h.684l.096 5.619V45h-.78zm7.41 0h.69V45h-.778v-4.334zm-73.455 16V61H6.61v-9.222H1.996V61H1.21v-9.953zm4.312 5.906H9.349v-.731h2.358q.732 0 1.183-.287a1.7 1.7 0 0 0 .656-.787q.212-.498.212-1.114 0-.609-.212-1.12a1.76 1.76 0 0 0-.656-.821q-.45-.315-1.183-.315H9.596V61h-.78v-9.953h2.893q.915 0 1.544.376.636.376.957 1.046.33.67.329 1.551 0 .917-.322 1.58-.32.655-.95 1.005-.63.348-1.559.348m9.834-2.003v2.153q0 .992-.226 1.75-.218.753-.635 1.258a2.7 2.7 0 0 1-1.005.773q-.595.26-1.34.26-.739 0-1.333-.26a2.8 2.8 0 0 1-1.012-.773q-.423-.505-.656-1.258-.226-.758-.226-1.75V54.95q0-.984.226-1.743.225-.758.642-1.265.424-.506 1.012-.765.595-.267 1.333-.267.746 0 1.34.267.595.26 1.019.765.423.507.642 1.265.219.759.219 1.743m-.773 2.153v-2.166q0-.82-.164-1.43a2.9 2.9 0 0 0-.464-1.025 1.93 1.93 0 0 0-.766-.615 2.55 2.55 0 0 0-1.053-.205 2.5 2.5 0 0 0-1.032.205q-.45.205-.766.615a3 3 0 0 0-.471 1.026q-.164.608-.164 1.428v2.167q0 .828.164 1.443.165.609.478 1.025.321.41.773.616a2.5 2.5 0 0 0 1.032.205q.594 0 1.046-.206a1.93 1.93 0 0 0 .765-.615q.308-.417.465-1.025a6 6 0 0 0 .158-1.443m1.816-6.056h.78v2.762q0 .861.225 1.374.232.512.677.738.45.225 1.114.226.329 0 .65-.035a7 7 0 0 0 1.244-.246q.308-.088.608-.198v.738q-.287.103-.574.192-.287.082-.595.15a6.767 6.767 0 0 1-1.333.13q-.882 0-1.51-.3-.623-.301-.957-.978-.33-.678-.329-1.791zm5.059 0h.772V61h-.772zm2.992 8.47 4.641-8.47h.773V61h-.773v-8.483L30.636 61h-.78v-9.953h.78zm9.5-8.47V61h-.773v-9.953zm2.836 0v.731H36.54v-.731zm2.89.601L42.996 61h-.807l3.165-9.953h.554zM48.437 61l-2.87-9.352-.035-.601h.547L49.245 61zm-.45-3.514v.732h-4.485v-.732zm2.58 2.03 4.642-8.47h.773V61h-.773v-8.483L50.57 61h-.78v-9.953h.78zM54.206 48.6h.698q0 .519-.24.916-.232.396-.676.622-.438.225-1.053.225-.922 0-1.456-.492-.526-.492-.526-1.271h.704q0 .47.287.82.287.342.99.342.685 0 .978-.349.294-.348.294-.813m6.068 2.447V61h-.772v-9.953zm2.837 0v.731h-6.432v-.731zm5.85 9.222V61h-4.65v-.731zm-4.437-9.222V61h-.78v-9.953zm3.855 4.457v.731h-4.067v-.731zm.547-4.457v.731h-4.614v-.731zM1.99 75.517l4.642-8.47h.772V77h-.772v-8.483L1.989 77H1.21v-9.953h.78zm12.44-4.013v.731h-4.97v-.731zm-4.806-4.457V77h-.78v-9.953zm5.455 0V77h-.787v-9.953zm6.573 6.85h.787q-.07 1.113-.452 1.831a2.48 2.48 0 0 1-1.052 1.067q-.664.349-1.593.349-.719 0-1.292-.28a2.8 2.8 0 0 1-.985-.807 3.9 3.9 0 0 1-.622-1.292 6.4 6.4 0 0 1-.212-1.71v-2.132q0-.936.212-1.675a3.7 3.7 0 0 1 .63-1.265q.416-.525 1.004-.8a3.1 3.1 0 0 1 1.32-.273q.901 0 1.558.342.663.342 1.04 1.06.375.718.444 1.852h-.787q-.06-.915-.328-1.47-.26-.553-.738-.8-.48-.252-1.19-.252a2.2 2.2 0 0 0-1.018.225q-.438.219-.745.643-.3.417-.458 1.025a5.5 5.5 0 0 0-.157 1.374v2.147q0 .758.143 1.38.15.615.438 1.06.294.444.724.684a2.14 2.14 0 0 0 1.019.232q.738 0 1.217-.232.485-.233.752-.78.273-.553.341-1.504m4.407-6.85V77h-.772v-9.953zm2.837 0v.731h-6.433v-.731zm3.525 5.906H30.06v-.731h2.359q.731 0 1.182-.287a1.7 1.7 0 0 0 .657-.787q.212-.498.212-1.114 0-.609-.212-1.12a1.76 1.76 0 0 0-.657-.821q-.45-.315-1.182-.315h-2.113V77h-.779v-9.953h2.892q.915 0 1.545.376.636.376.957 1.046.328.67.328 1.552 0 .916-.321 1.579-.322.656-.95 1.005-.63.348-1.56.348m6.355.704 2.413-6.61h.916l-3.151 8.244q-.124.294-.274.622a2.8 2.8 0 0 1-.383.602q-.225.28-.56.458-.336.17-.814.17-.13 0-.307-.027a1 1 0 0 1-.24-.048l.055-.704q.075.02.233.034.164.014.26.014.36 0 .594-.184.24-.192.396-.493.165-.3.294-.635zm-2.495-6.61L39 73.603l.226.765-.67.144-3.165-7.465zm7.305 0V77h-.786v-9.953zm5.216 0-3.692 5.29H43.27l-.082-.737h1.456l3.18-4.553zM48.083 77l-3.452-4.765.444-.745L49.047 77zm8.495-.745-.062 3.144h-.711V77h-.827v-.745zM49.564 77v-9.953h.786v9.222h4.614v-9.222h.786V77zm8.556-1.483 4.642-8.47h.772V77h-.772v-8.483L58.12 77h-.78v-9.953h.78zm7.763-8.47V77h-.786v-9.953zm1.996 4.566v.711h-2.085v-.71zm5.975-.663v2.153q0 .992-.226 1.75-.22.753-.635 1.258a2.76 2.76 0 0 1-1.012.773q-.595.26-1.34.26-.732 0-1.326-.26a2.8 2.8 0 0 1-1.019-.773q-.423-.505-.656-1.258-.225-.758-.226-1.75V70.95q0-.984.226-1.743.225-.758.642-1.265a2.75 2.75 0 0 1 1.02-.765 3.2 3.2 0 0 1 1.325-.267q.752 0 1.347.267.594.26 1.012.765.417.507.642 1.265.226.759.226 1.743m-.78 2.153v-2.166q0-.82-.163-1.43a2.9 2.9 0 0 0-.465-1.025 1.93 1.93 0 0 0-.766-.615 2.55 2.55 0 0 0-1.053-.205q-.58 0-1.039.205-.45.206-.759.615a3 3 0 0 0-.471 1.026q-.165.608-.164 1.428v2.167q0 .828.157 1.443.165.608.485 1.025.321.411.773.615.45.206 1.032.206.594 0 1.046-.206a1.93 1.93 0 0 0 .766-.615q.307-.417.464-1.025a6 6 0 0 0 .157-1.443m1.673 3.391a.6.6 0 0 1 .15-.41q.15-.17.424-.17.273 0 .43.17.158.17.158.41t-.157.403a.57.57 0 0 1-.43.164q-.275 0-.425-.164a.57.57 0 0 1-.15-.403"/></svg>