<svg xmlns="http://www.w3.org/2000/svg" fill="none" viewBox="0 0 160 600"><rect width="160" height="600" fill="#999"/><path fill="#fff" d="M29.805 242v-1.758l6.28-7.14h-6v-1.774h8.423v1.774l-6.164 7.14h6.289V242zm10.578-2.945v-4.563h1.883v4.547q0 .719.39 1.117.399.391 1.024.391.383 0 .718-.149.336-.156.57-.429.243-.274.376-.633.14-.36.14-.774v-4.07h1.891V242h-1.812l-.047-.852a3.5 3.5 0 0 1-.836.672q-.266.149-.617.242a3 3 0 0 1-.805.094q-1.407 0-2.14-.836-.735-.843-.735-2.265M52.305 242v-10.672h3.539q1.008 0 1.71.305.704.304 1.133.781.438.469.633 1.031.204.555.203 1.071 0 1.007-.445 1.781-.438.773-1.344 1.242L60.195 242h-2.273l-2.156-4.211h-1.524V242zm1.937-5.875h1.617q.766 0 1.188-.445.43-.445.43-1.086 0-.688-.454-1.117-.444-.438-1.164-.438h-1.617zm7.266-2.813v-1.984h2.015v1.984zM61.57 242v-7.508h1.89V242zm3.461-.914 1.133-1.227q.351.352.883.586.54.227 1.226.227.61 0 .977-.156.367-.165.367-.532 0-.156-.062-.289-.063-.14-.274-.265a2.6 2.6 0 0 0-.57-.258 9 9 0 0 0-.992-.274 6.5 6.5 0 0 1-.805-.257 3.3 3.3 0 0 1-.773-.438 2.4 2.4 0 0 1-.594-.672 1.86 1.86 0 0 1-.227-.937q0-.563.266-1 .274-.446.71-.735a3.5 3.5 0 0 1 .993-.453q.555-.164 1.117-.164.993 0 1.688.211.695.204 1.258.617l-.977 1.328a3.1 3.1 0 0 0-.805-.406q-.492-.187-1.164-.187t-.937.203-.266.484q0 .352.438.555.445.203 1.375.422.578.125 1.03.32.454.195.782.484.328.29.5.68.18.391.18.938t-.258.984a2.24 2.24 0 0 1-.695.742q-.438.305-1.024.469-.585.172-1.242.172-1.054 0-1.906-.297-.844-.297-1.352-.875m8.024-7.774v-1.984h2.015v1.984zm.062 8.688v-7.508h1.89V242zm3.828 0v-10.672h1.883v5.82l2.711-2.656h2.219l-2.813 2.774L84.078 242H81.82l-2.172-3.453-.82.797V242zm7.836-3.844q0-.828.274-1.539.281-.71.78-1.234a3.7 3.7 0 0 1 1.204-.836 3.85 3.85 0 0 1 1.547-.305q1.023 0 1.734.375t1.14.985q.438.609.626 1.375.195.765.195 1.57v.265H86.68q0 .415.187.758.188.336.477.578.297.235.672.368.382.125.75.125.546 0 .953-.102.406-.11.687-.242a2.6 2.6 0 0 0 .758-.539l1.023 1.156-.265.266q-.211.21-.625.453-.406.242-1.04.429-.632.196-1.507.196a4.2 4.2 0 0 1-1.633-.305 3.8 3.8 0 0 1-1.258-.836 3.7 3.7 0 0 1-.804-1.289 4.9 4.9 0 0 1-.274-1.672m1.883-.703h3.68q0-.29-.11-.57a1.6 1.6 0 0 0-.882-.906 1.8 1.8 0 0 0-.766-.157q-.46 0-.82.157-.36.148-.602.382a1.7 1.7 0 0 0-.375.524 1.4 1.4 0 0 0-.125.57M93.742 242v-7.508h1.805l.047.852q.14-.156.344-.336.202-.18.484-.328.28-.149.633-.242.351-.102.797-.102 1.405 0 2.14.844.742.836.742 2.258V242h-1.89v-4.547q0-.719-.39-1.109-.392-.391-1.016-.391-.383 0-.72.156-.335.149-.577.422a2 2 0 0 0-.383.633q-.133.36-.133.774V242zm11.672-2.945v-4.563h1.883v4.547q0 .719.391 1.117.398.391 1.023.391.383 0 .719-.149.336-.156.57-.429a2 2 0 0 0 .375-.633 2.1 2.1 0 0 0 .141-.774v-4.07h1.89V242h-1.812l-.047-.852a3.5 3.5 0 0 1-.836.672q-.266.149-.617.242a3.1 3.1 0 0 1-.805.094q-1.406 0-2.141-.836-.734-.843-.734-2.265m8.844 2.945v-7.508h1.804l.047.852q.141-.156.344-.336a2.5 2.5 0 0 1 .485-.328q.28-.149.632-.242.352-.102.797-.102 1.406 0 2.141.844.742.836.742 2.258V242h-1.891v-4.547q0-.719-.39-1.109-.391-.391-1.016-.391-.383 0-.719.156-.335.149-.578.422a2 2 0 0 0-.383.633q-.132.36-.132.774V242zm8.461-3.617q0-.883.25-1.539.258-.665.64-1.133.32-.383.703-.641.391-.258.782-.422a3.6 3.6 0 0 1 1.398-.312q.367 0 .61.023.242.024.429.063.196.039.352.109l.367.141v-3.344h1.875V242h-1.828l-.047-.734a4 4 0 0 1-.352.336 2.7 2.7 0 0 1-.484.32 3.3 3.3 0 0 1-.625.234 2.7 2.7 0 0 1-.773.102q-.61 0-1.204-.258a3.25 3.25 0 0 1-1.062-.75 4 4 0 0 1-.75-1.219q-.282-.718-.281-1.648m1.898 0q0 .96.477 1.601.484.64 1.398.641.477 0 .813-.18a1.6 1.6 0 0 0 .547-.476 1.9 1.9 0 0 0 .304-.633q.094-.344.094-.664v-2.305a1.5 1.5 0 0 0-.633-.312 4 4 0 0 0-.914-.086q-.562 0-.93.219-.367.21-.64.562a2.6 2.6 0 0 0-.383.75 2.9 2.9 0 0 0-.133.883M20.907 260v-10.672h2.03l5.172 7.586v-7.586h1.97V260h-1.985l-5.219-7.68V260zm10.866-3.844q0-.828.274-1.539.281-.71.781-1.234a3.7 3.7 0 0 1 1.203-.836 3.85 3.85 0 0 1 1.547-.305q1.023 0 1.734.375t1.141.985q.438.609.625 1.375.195.765.195 1.57v.265h-5.601q0 .415.187.758.188.336.477.578.297.235.672.368.383.125.75.125.546 0 .953-.102.406-.11.687-.242a2.6 2.6 0 0 0 .758-.539l1.024 1.156-.266.266q-.21.21-.625.453-.406.242-1.039.429-.633.196-1.508.196a4.2 4.2 0 0 1-1.633-.305 3.8 3.8 0 0 1-1.257-.836 3.7 3.7 0 0 1-.805-1.289 4.9 4.9 0 0 1-.274-1.672m1.883-.703h3.68q0-.29-.11-.57a1.6 1.6 0 0 0-.882-.906 1.8 1.8 0 0 0-.766-.157q-.46 0-.82.157-.36.148-.602.382a1.7 1.7 0 0 0-.375.524 1.4 1.4 0 0 0-.125.57m7.078 4.305v-10.43h1.883v3.68q.195-.196.735-.43.546-.242 1.32-.242.813 0 1.445.305a3.3 3.3 0 0 1 1.078.82q.453.507.68 1.211.234.703.234 1.484 0 .852-.297 1.594a3.8 3.8 0 0 1-.851 1.297q-.547.555-1.336.883-.78.327-1.758.328a9.3 9.3 0 0 1-1.804-.164 9 9 0 0 1-1.329-.336m1.883-1.297q.227.078.469.125.241.039.75.039a2.4 2.4 0 0 0 1.008-.195q.43-.204.734-.539a2.2 2.2 0 0 0 .453-.774q.156-.445.157-.906 0-.43-.102-.828a2.1 2.1 0 0 0-.328-.719 1.6 1.6 0 0 0-.57-.492 1.7 1.7 0 0 0-.82-.188q-.868 0-1.313.446-.438.436-.438 1.203zm6.64-2.305q0-.828.274-1.539.282-.71.782-1.234a3.7 3.7 0 0 1 1.203-.836 3.85 3.85 0 0 1 1.547-.305q1.023 0 1.734.375t1.14.985q.438.609.626 1.375.195.765.195 1.57v.265h-5.602q0 .415.188.758.188.336.476.578.297.235.672.368.383.125.75.125.548 0 .953-.102.406-.11.688-.242a2.6 2.6 0 0 0 .758-.539l1.023 1.156-.266.266q-.21.21-.625.453-.406.242-1.039.429-.633.196-1.507.196a4.2 4.2 0 0 1-1.633-.305 3.8 3.8 0 0 1-1.258-.836 3.7 3.7 0 0 1-.805-1.289 4.9 4.9 0 0 1-.273-1.672m1.884-.703h3.68q0-.29-.11-.57a1.6 1.6 0 0 0-.883-.906 1.8 1.8 0 0 0-.766-.157q-.46 0-.82.157-.36.148-.601.382a1.7 1.7 0 0 0-.375.524 1.4 1.4 0 0 0-.125.57M58.219 260v-7.508h1.804l.047.852q.141-.156.344-.336.204-.18.484-.328a3 3 0 0 1 .633-.242q.352-.102.797-.102 1.407 0 2.14.844.743.836.743 2.258V260h-1.89v-4.547q0-.719-.391-1.109-.391-.391-1.016-.391-.383 0-.719.156-.335.149-.578.422-.242.266-.383.633-.132.36-.132.774V260zm8.023-7.508h2.086l1.438 5.219 1.586-5.219h1.578l1.601 5.219 1.43-5.219h1.984L75.398 260H73.57l-1.53-4.531L70.546 260h-1.758zm12.79-1.18v-1.984h2.015v1.984zm.062 8.688v-7.508h1.89V260zm3.828 0v-7.508h1.805l.046.946q.126-.157.329-.344.203-.195.476-.352.273-.164.633-.281t.82-.109q.273 0 .485.031.218.031.445.109l-.383 1.781a1.8 1.8 0 0 0-.398-.109 2.4 2.4 0 0 0-.47-.039q-.382 0-.733.133a1.7 1.7 0 0 0-.61.367q-.258.242-.414.578a1.8 1.8 0 0 0-.148.75V260zm6.11 0v-10.672h1.882v5.82l2.711-2.656h2.219l-2.813 2.774L96.164 260h-2.258l-2.172-3.453-.82.797V260zm8.156-2.945v-4.563h1.882v4.547q0 .719.39 1.117.4.391 1.024.391.384 0 .719-.149.336-.156.57-.429.243-.274.375-.633a2.1 2.1 0 0 0 .141-.774v-4.07h1.891V260h-1.813l-.047-.852a3.5 3.5 0 0 1-.836.672q-.265.149-.617.242a3 3 0 0 1-.805.094q-1.405 0-2.14-.836-.734-.843-.734-2.265M106.03 260v-7.508h1.805l.047.852q.14-.156.344-.336.202-.18.484-.328.28-.149.633-.242.351-.102.797-.102 1.406 0 2.14.844.742.836.742 2.258V260h-1.89v-4.547q0-.719-.391-1.109-.39-.391-1.015-.391-.383 0-.719.156-.336.149-.578.422a2 2 0 0 0-.383.633q-.133.36-.133.774V260zm8.461-3.648q0-.829.297-1.563a3.7 3.7 0 0 1 .844-1.281 4 4 0 0 1 1.336-.86 4.7 4.7 0 0 1 1.758-.312q.977 0 1.796.164.829.157 1.344.328v7.297q0 .781-.273 1.391a2.9 2.9 0 0 1-.758 1.023 3.1 3.1 0 0 1-1.133.633 4.5 4.5 0 0 1-1.422.219q-.594 0-1.047-.055a6 6 0 0 1-.82-.156 3.5 3.5 0 0 1-.656-.242 3.6 3.6 0 0 1-.547-.329l.844-1.39q.445.305.968.437.523.133 1.227.133.734 0 1.227-.445.5-.446.5-1.25v-.813a3.6 3.6 0 0 1-.844.524q-.453.195-1.203.195-.813 0-1.446-.273a3.2 3.2 0 0 1-1.086-.758 3.4 3.4 0 0 1-.679-1.157 4.5 4.5 0 0 1-.227-1.46m1.914-.047q0 .867.43 1.461.438.585 1.398.586.867 0 1.305-.368.438-.366.438-1.172v-2.687a3 3 0 0 0-.469-.117 5 5 0 0 0-.742-.039q-.579 0-1.016.195a2.2 2.2 0 0 0-.734.508 2.1 2.1 0 0 0-.461.75 2.6 2.6 0 0 0-.149.883m6.961-.149q0-.828.274-1.539.281-.71.781-1.234a3.7 3.7 0 0 1 1.203-.836 3.85 3.85 0 0 1 1.547-.305q1.023 0 1.734.375.71.375 1.141.985.438.609.625 1.375.195.765.195 1.57v.265h-5.601q0 .415.187.758.188.336.477.578.297.235.672.368.383.125.75.125.546 0 .953-.102.406-.11.687-.242a2.6 2.6 0 0 0 .758-.539l1.023 1.156-.265.266a3.2 3.2 0 0 1-.625.453 4.6 4.6 0 0 1-1.039.429q-.633.196-1.508.196a4.2 4.2 0 0 1-1.633-.305 3.8 3.8 0 0 1-1.258-.836 3.7 3.7 0 0 1-.804-1.289 4.9 4.9 0 0 1-.274-1.672m1.883-.703h3.68q0-.29-.11-.57a1.59 1.59 0 0 0-.882-.906 1.8 1.8 0 0 0-.766-.157q-.461 0-.82.157-.36.148-.602.382a1.8 1.8 0 0 0-.375.524 1.4 1.4 0 0 0-.125.57m7.078 4.547v-7.508h1.805l.047.852q.14-.156.343-.336a2.5 2.5 0 0 1 .485-.328q.28-.149.633-.242.351-.102.797-.102 1.406 0 2.14.844.742.836.742 2.258V260h-1.89v-4.547q0-.719-.391-1.109-.39-.391-1.016-.391-.382 0-.718.156-.336.149-.578.422a2 2 0 0 0-.383.633q-.133.36-.133.774V260zm-94.71 18v-10.672H39.5V278zm3.398-3.844q0-.828.273-1.539.282-.71.781-1.234a3.7 3.7 0 0 1 1.203-.836 3.85 3.85 0 0 1 1.547-.305q1.023 0 1.735.375.711.375 1.14.985.438.609.625 1.375.196.765.196 1.57v.265h-5.602q0 .415.188.758.187.336.476.578.297.235.672.368.383.125.75.125.547 0 .953-.102.406-.11.688-.242a2.6 2.6 0 0 0 .757-.539l1.024 1.156-.266.266q-.21.21-.625.453a4.6 4.6 0 0 1-1.039.429q-.632.196-1.508.196a4.2 4.2 0 0 1-1.632-.305 3.8 3.8 0 0 1-1.258-.836 3.7 3.7 0 0 1-.805-1.289 4.9 4.9 0 0 1-.273-1.672m1.882-.703h3.68q0-.29-.11-.57a1.6 1.6 0 0 0-.882-.906 1.8 1.8 0 0 0-.766-.157q-.46 0-.82.157-.36.148-.602.382a1.7 1.7 0 0 0-.375.524 1.4 1.4 0 0 0-.125.57m6.711 3.633 1.133-1.227q.352.352.883.586.54.227 1.227.227.609 0 .976-.156.367-.165.367-.532 0-.156-.062-.289-.063-.14-.274-.265a2.6 2.6 0 0 0-.57-.258 9 9 0 0 0-.992-.274 6.5 6.5 0 0 1-.805-.257 3.3 3.3 0 0 1-.773-.438 2.4 2.4 0 0 1-.594-.672 1.86 1.86 0 0 1-.227-.937q0-.563.266-1 .274-.446.711-.735a3.5 3.5 0 0 1 .992-.453q.555-.164 1.117-.164.992 0 1.688.211.695.204 1.258.617l-.977 1.328a3.1 3.1 0 0 0-.805-.406q-.492-.187-1.164-.187t-.937.203-.266.484q0 .352.438.555.445.203 1.375.422.578.125 1.031.32.454.196.781.484.329.29.5.68.18.391.18.938t-.258.984a2.24 2.24 0 0 1-.695.742q-.438.305-1.024.469-.585.172-1.242.172-1.054 0-1.906-.297-.844-.297-1.352-.875m7.657-2.93q0-.828.273-1.539.282-.71.781-1.234a3.7 3.7 0 0 1 1.203-.836 3.85 3.85 0 0 1 1.547-.305q1.023 0 1.735.375.711.375 1.14.985.438.609.625 1.375.195.765.196 1.57v.265h-5.602q0 .415.188.758.187.336.476.578.297.235.672.368.383.125.75.125.547 0 .953-.102.406-.11.688-.242a2.6 2.6 0 0 0 .757-.539l1.024 1.156-.266.266q-.21.21-.625.453a4.6 4.6 0 0 1-1.039.429q-.632.196-1.508.196a4.2 4.2 0 0 1-1.632-.305 3.8 3.8 0 0 1-1.258-.836 3.7 3.7 0 0 1-.805-1.289 4.9 4.9 0 0 1-.273-1.672m1.882-.703h3.68q0-.29-.11-.57a1.6 1.6 0 0 0-.882-.906 1.8 1.8 0 0 0-.766-.157q-.46 0-.82.157-.36.148-.602.382a1.7 1.7 0 0 0-.375.524 1.4 1.4 0 0 0-.125.57M66.227 278v-7.508h1.804l.047.852q.141-.156.344-.336t.484-.328q.282-.149.633-.242.351-.102.797-.102 1.406 0 2.14.844.743.836.743 2.258V278h-1.89v-4.547q0-.719-.391-1.109-.391-.391-1.016-.391-.383 0-.719.156-.335.149-.578.422-.243.266-.383.633-.132.36-.133.774V278zm11.265-1.711 1.414-1.297q.195.227.453.477.266.242.594.461.329.21.734.359.407.141.922.141.945 0 1.399-.43a1.38 1.38 0 0 0 .453-1.039q0-.336-.125-.602a1.13 1.13 0 0 0-.43-.461 3.2 3.2 0 0 0-.797-.359 10 10 0 0 0-1.203-.305 4.2 4.2 0 0 1-1.273-.445 3.4 3.4 0 0 1-.89-.727 2.9 2.9 0 0 1-.532-.914 3.2 3.2 0 0 1-.172-1.039q0-.609.219-1.156.226-.555.687-.976.469-.423 1.164-.68t1.641-.258q.852 0 1.453.195.61.188 1.016.446.414.258.633.508.226.242.328.359l-1.328 1.242a6 6 0 0 1-.258-.227 2.5 2.5 0 0 0-.446-.328 3 3 0 0 0-.632-.289 2.4 2.4 0 0 0-.829-.133q-.413 0-.718.118a1.5 1.5 0 0 0-.508.289q-.196.172-.297.39a1 1 0 0 0-.094.407q0 .288.102.515.11.219.351.414.25.188.68.344a9 9 0 0 0 1.094.281 5.6 5.6 0 0 1 1.195.383q.578.258 1.016.664.445.407.703.992.266.586.266 1.399 0 .703-.29 1.297a3.1 3.1 0 0 1-.796 1.039 3.7 3.7 0 0 1-1.22.695q-.702.25-1.53.25a5 5 0 0 1-1.446-.195 5.4 5.4 0 0 1-1.172-.485 5 5 0 0 1-.898-.648 7 7 0 0 1-.633-.672m9.938-6.977v-1.984h2.015v1.984zm.062 8.688v-7.508h1.89V278zm3.477-3.844q0-.828.273-1.539.282-.71.781-1.234a3.7 3.7 0 0 1 1.204-.836 3.85 3.85 0 0 1 1.546-.305q1.023 0 1.735.375.711.375 1.14.985.438.609.625 1.375.195.765.196 1.57v.265h-5.602q0 .415.188.758.187.336.476.578.297.235.672.368.382.125.75.125.547 0 .953-.102.406-.11.688-.242a2.6 2.6 0 0 0 .758-.539l1.023 1.156-.266.266q-.21.21-.625.453-.406.242-1.039.429-.633.196-1.507.196a4.2 4.2 0 0 1-1.633-.305 3.8 3.8 0 0 1-1.258-.836 3.7 3.7 0 0 1-.805-1.289 4.9 4.9 0 0 1-.273-1.672m1.883-.703h3.68q0-.29-.11-.57a1.6 1.6 0 0 0-.883-.906 1.8 1.8 0 0 0-.766-.157q-.46 0-.82.157-.36.148-.601.382a1.7 1.7 0 0 0-.375.524 1.4 1.4 0 0 0-.125.57m9.617.93q0-.883.25-1.539.258-.665.64-1.133.32-.383.703-.641.391-.257.782-.422a3.6 3.6 0 0 1 1.398-.312q.367 0 .61.023.242.024.429.063.196.039.352.109l.367.141v-3.344h1.875V278h-1.828l-.047-.734a4 4 0 0 1-.352.336 2.7 2.7 0 0 1-.484.32 3.3 3.3 0 0 1-.625.234 2.7 2.7 0 0 1-.773.102q-.61 0-1.204-.258a3.25 3.25 0 0 1-1.062-.75 4 4 0 0 1-.75-1.219q-.282-.718-.281-1.648m1.898 0q0 .96.477 1.601.484.64 1.398.641.477 0 .813-.18a1.6 1.6 0 0 0 .547-.476 1.9 1.9 0 0 0 .304-.633q.094-.344.094-.664v-2.305a1.5 1.5 0 0 0-.633-.312 4 4 0 0 0-.914-.086q-.562 0-.93.219-.367.21-.64.562a2.6 2.6 0 0 0-.383.75 2.9 2.9 0 0 0-.133.883m7.375-5.071v-1.984h2.016v1.984zm.063 8.688v-7.508h1.89V278zm3.476-3.844q0-.828.274-1.539.281-.71.781-1.234.508-.531 1.203-.836a3.85 3.85 0 0 1 1.547-.305q1.023 0 1.734.375.71.375 1.141.985.438.609.625 1.375.195.765.195 1.57v.265h-5.601q0 .415.187.758.188.336.477.578.297.235.672.368.382.125.75.125.546 0 .953-.102.406-.11.687-.242a2.6 2.6 0 0 0 .758-.539l1.024 1.156-.266.266a3.2 3.2 0 0 1-.625.453 4.6 4.6 0 0 1-1.039.429q-.633.196-1.508.196a4.2 4.2 0 0 1-1.633-.305 3.8 3.8 0 0 1-1.258-.836 3.7 3.7 0 0 1-.804-1.289 4.9 4.9 0 0 1-.274-1.672m1.883-.703h3.68q0-.29-.11-.57a1.59 1.59 0 0 0-.882-.906 1.8 1.8 0 0 0-.766-.157q-.461 0-.82.157-.36.148-.602.382a1.8 1.8 0 0 0-.375.524 1.4 1.4 0 0 0-.125.57M22.18 296v-10.672h3.43q1.117 0 1.828.344t1.125.851q.421.5.578 1.079.164.578.164 1.054 0 .899-.32 1.539a3.1 3.1 0 0 1-.837 1.047 3.4 3.4 0 0 1-1.148.602 4.5 4.5 0 0 1-1.266.187h-1.617V296zm1.937-5.664h1.461q.766 0 1.219-.445.46-.453.46-1.172.001-.75-.484-1.219-.476-.477-1.195-.477h-1.46zm6.313 3.469q0-.641.242-1.141.242-.507.672-.852a2.9 2.9 0 0 1 1.039-.515q.609-.18 1.344-.18a19 19 0 0 1 1.023.031q.289.016.594.04v-.18q0-.562-.453-.883-.446-.32-1.164-.32-.798 0-1.282.211-.476.21-.843.445l-.868-1.273q.227-.157.516-.329t.672-.304q.383-.141.883-.227a7 7 0 0 1 1.18-.086q.718 0 1.304.203.585.196 1 .555t.64.867q.227.5.227 1.094V296h-1.765l-.047-.703q-.305.367-.93.656a3.27 3.27 0 0 1-2.312.141 2.5 2.5 0 0 1-.829-.438 2.25 2.25 0 0 1-.609-.758 2.4 2.4 0 0 1-.234-1.093m1.812-.078q0 .476.344.75.344.273 1.016.273.336 0 .648-.109.312-.11.547-.305.242-.196.39-.445a1.04 1.04 0 0 0 .157-.547v-.735l-.563-.031a13 13 0 0 0-.89-.031q-.915 0-1.282.359-.366.36-.367.821m6.383-1.485q0-.811.297-1.539.297-.734.82-1.273a3.9 3.9 0 0 1 1.274-.868 4.1 4.1 0 0 1 1.64-.32q.915 0 1.664.328.75.328 1.282.883l-1.204 1.219a2.3 2.3 0 0 0-.75-.57 2.2 2.2 0 0 0-.992-.211q-.547 0-.945.203-.399.195-.664.515-.265.321-.399.75a3.2 3.2 0 0 0-.125.883q0 .43.125.852.133.414.399.75.265.336.664.547.398.203.945.203a2.36 2.36 0 0 0 1.805-.805l1.125 1.219q-.53.562-1.25.898t-1.68.336-1.718-.289a3.5 3.5 0 0 1-1.266-.812 3.7 3.7 0 0 1-.781-1.266 4.8 4.8 0 0 1-.266-1.633M46.852 296v-10.672h1.882v5.82l2.711-2.656h2.22l-2.813 2.774L53.984 296h-2.257l-2.172-3.453-.82.797V296zm8.156-2.945v-4.563h1.883v4.547q0 .719.39 1.117.399.391 1.024.391.383 0 .718-.149.336-.156.57-.429.243-.274.376-.633.14-.36.14-.774v-4.07H62V296h-1.812l-.047-.852a3.5 3.5 0 0 1-.836.672q-.266.149-.617.242a3 3 0 0 1-.805.094q-1.407 0-2.14-.836-.735-.843-.735-2.265M63.852 296v-7.508h1.804l.047.852q.141-.156.344-.336t.484-.328q.282-.149.633-.242.351-.102.797-.102 1.406 0 2.14.844.743.836.743 2.258V296h-1.89v-4.547q0-.719-.391-1.109-.391-.391-1.016-.391-.383 0-.719.156-.335.149-.578.422-.243.266-.383.633-.132.36-.133.774V296zm8.46-3.648q0-.829.297-1.563.297-.743.844-1.281a4 4 0 0 1 1.336-.86 4.7 4.7 0 0 1 1.758-.312q.976 0 1.797.164.828.156 1.344.328v7.297q0 .781-.274 1.391a2.9 2.9 0 0 1-.758 1.023 3.1 3.1 0 0 1-1.133.633 4.5 4.5 0 0 1-1.421.219q-.594 0-1.047-.055a6 6 0 0 1-.82-.156 3.5 3.5 0 0 1-.657-.242 3.7 3.7 0 0 1-.547-.329l.844-1.39q.446.305.969.437a5 5 0 0 0 1.226.133q.735 0 1.227-.445.5-.446.5-1.25v-.813a3.5 3.5 0 0 1-.844.524Q76.5 296 75.75 296q-.812 0-1.445-.273a3.2 3.2 0 0 1-1.086-.758 3.4 3.4 0 0 1-.68-1.157 4.5 4.5 0 0 1-.227-1.46m1.915-.047q0 .867.43 1.461.436.585 1.398.586.867 0 1.304-.368.438-.366.438-1.172v-2.687a3 3 0 0 0-.469-.117 5 5 0 0 0-.742-.039q-.578 0-1.016.195a2.2 2.2 0 0 0-.734.508 2.1 2.1 0 0 0-.461.75 2.6 2.6 0 0 0-.148.883m6.945 2.781 1.133-1.227q.351.352.882.586.54.227 1.227.227.61 0 .977-.156.367-.165.367-.532 0-.156-.063-.289-.062-.14-.273-.265a2.6 2.6 0 0 0-.57-.258 9 9 0 0 0-.993-.274 6.5 6.5 0 0 1-.804-.257 3.3 3.3 0 0 1-.774-.438 2.4 2.4 0 0 1-.594-.672 1.86 1.86 0 0 1-.226-.937q0-.563.266-1 .273-.446.71-.735a3.5 3.5 0 0 1 .993-.453q.555-.164 1.117-.164.992 0 1.687.211.696.204 1.258.617l-.976 1.328a3.1 3.1 0 0 0-.805-.406q-.492-.187-1.164-.187t-.938.203-.265.484q0 .352.437.555.445.203 1.375.422.58.125 1.031.32.454.196.782.484.328.29.5.68.18.391.18.938t-.258.984a2.24 2.24 0 0 1-.696.742q-.437.305-1.023.469-.586.172-1.242.172-1.055 0-1.907-.297-.844-.297-1.351-.875m8.008.672v-10.43h1.882v3.68q.196-.195.735-.43.547-.242 1.32-.242.813 0 1.445.305.633.304 1.079.82.453.507.68 1.211.234.703.234 1.484 0 .852-.297 1.594a3.8 3.8 0 0 1-.852 1.297q-.547.555-1.336.883-.78.327-1.757.328a9.3 9.3 0 0 1-1.805-.164 9 9 0 0 1-1.328-.336m1.882-1.297q.227.078.47.125.24.039.75.039a2.4 2.4 0 0 0 1.007-.195q.43-.204.734-.539a2.2 2.2 0 0 0 .454-.774q.156-.445.156-.906 0-.43-.102-.828a2.1 2.1 0 0 0-.328-.719 1.6 1.6 0 0 0-.57-.492 1.7 1.7 0 0 0-.82-.188q-.868 0-1.313.446-.437.436-.437 1.203zm6.641-2.305q0-.828.274-1.539.28-.71.78-1.234a3.7 3.7 0 0 1 1.204-.836q.703-.305 1.547-.305 1.023 0 1.734.375.71.375 1.141.985.437.609.625 1.375.195.765.195 1.57v.265h-5.601q0 .415.187.758.188.336.477.578.297.235.672.368.383.125.75.125.546 0 .953-.102.406-.11.687-.242a2.6 2.6 0 0 0 .758-.539l1.023 1.156-.265.266a3.2 3.2 0 0 1-.625.453 4.6 4.6 0 0 1-1.039.429q-.633.196-1.508.196a4.2 4.2 0 0 1-1.633-.305 3.8 3.8 0 0 1-1.258-.836 3.7 3.7 0 0 1-.804-1.289 4.9 4.9 0 0 1-.274-1.672m1.883-.703h3.68q0-.29-.11-.57a1.59 1.59 0 0 0-.883-.906 1.8 1.8 0 0 0-.765-.157q-.461 0-.82.157-.36.148-.602.382a1.7 1.7 0 0 0-.375.524 1.4 1.4 0 0 0-.125.57m7.094-4.141v-1.984h2.015v1.984zm.062 8.688v-7.508h1.891V296zm3.828 0v-10.672h1.883V296zm3.266-2.195q0-.641.242-1.141a2.4 2.4 0 0 1 .672-.852 2.9 2.9 0 0 1 1.039-.515 4.7 4.7 0 0 1 1.344-.18 19 19 0 0 1 1.023.031q.29.016.594.04v-.18q0-.562-.453-.883-.445-.32-1.164-.32-.797 0-1.281.211-.477.21-.844.445l-.867-1.273q.227-.157.515-.329.29-.172.672-.304.383-.141.883-.227a7 7 0 0 1 1.18-.086q.719 0 1.304.203a2.9 2.9 0 0 1 1 .555q.414.36.641.867.226.5.226 1.094V296h-1.765l-.047-.703q-.305.367-.93.656a3.27 3.27 0 0 1-2.312.141 2.5 2.5 0 0 1-.828-.438 2.26 2.26 0 0 1-.61-.758 2.4 2.4 0 0 1-.234-1.093m1.812-.078q0 .476.344.75.344.273 1.016.273.336 0 .648-.109.313-.11.547-.305.243-.196.391-.445.156-.259.156-.547v-.735l-.562-.031a13 13 0 0 0-.891-.031q-.914 0-1.281.359-.368.36-.368.821m6.383-1.375q0-.829.297-1.563a3.7 3.7 0 0 1 .844-1.281 4 4 0 0 1 1.336-.86 4.7 4.7 0 0 1 1.758-.312q.977 0 1.796.164.829.156 1.344.328v7.297q0 .781-.273 1.391a2.9 2.9 0 0 1-.758 1.023 3.1 3.1 0 0 1-1.133.633 4.5 4.5 0 0 1-1.422.219q-.593 0-1.047-.055a6 6 0 0 1-.82-.156 3.5 3.5 0 0 1-.656-.242 3.6 3.6 0 0 1-.547-.329l.844-1.39q.446.305.968.437.523.133 1.227.133.735 0 1.227-.445.5-.446.5-1.25v-.813a3.6 3.6 0 0 1-.844.524q-.453.195-1.203.195-.813 0-1.446-.273a3.2 3.2 0 0 1-1.085-.758 3.4 3.4 0 0 1-.68-1.157 4.5 4.5 0 0 1-.227-1.46m1.914-.047q0 .867.43 1.461.438.585 1.398.586.868 0 1.305-.368.438-.366.438-1.172v-2.687a3 3 0 0 0-.469-.117 5 5 0 0 0-.742-.039q-.578 0-1.016.195a2.2 2.2 0 0 0-.734.508 2.1 2.1 0 0 0-.461.75 2.6 2.6 0 0 0-.149.883m6.961-.149q0-.828.274-1.539.281-.71.781-1.234.508-.531 1.203-.836a3.85 3.85 0 0 1 1.547-.305q1.023 0 1.734.375.71.375 1.141.985.438.609.625 1.375.195.765.195 1.57v.265h-5.601q0 .415.187.758.188.336.477.578.297.235.672.368.383.125.75.125.546 0 .953-.102.406-.11.687-.242a2.6 2.6 0 0 0 .758-.539l1.023 1.156-.265.266a3.2 3.2 0 0 1-.625.453 4.6 4.6 0 0 1-1.039.429q-.633.196-1.508.196a4.2 4.2 0 0 1-1.633-.305 3.8 3.8 0 0 1-1.258-.836 3.7 3.7 0 0 1-.804-1.289 4.9 4.9 0 0 1-.274-1.672m1.883-.703h3.68q0-.29-.11-.57a1.59 1.59 0 0 0-.882-.906 1.8 1.8 0 0 0-.766-.157q-.461 0-.82.157-.36.148-.602.382a1.8 1.8 0 0 0-.375.524 1.4 1.4 0 0 0-.125.57M15.453 311.055v-4.563h1.883v4.547q0 .719.39 1.117.399.391 1.024.391.383 0 .719-.149.336-.156.57-.429.243-.274.375-.633.14-.36.14-.774v-4.07h1.891V314h-1.812l-.047-.852a3.5 3.5 0 0 1-.836.672q-.266.149-.617.242a3 3 0 0 1-.805.094q-1.405 0-2.14-.836-.735-.843-.735-2.265M24.297 314v-7.508h1.805l.046.852q.141-.156.344-.336.204-.18.485-.328.28-.149.632-.242.352-.102.797-.102 1.407 0 2.14.844.743.836.743 2.258V314H29.4v-4.547q0-.719-.391-1.109-.391-.391-1.016-.391-.383 0-.719.156-.335.149-.578.422-.242.266-.383.633-.132.36-.132.774V314zm8.46-3.617q0-.883.25-1.539a4.1 4.1 0 0 1 .641-1.133q.32-.383.704-.641.39-.257.78-.422a3.6 3.6 0 0 1 1.4-.312q.366 0 .609.023.241.024.43.063.195.039.35.109l.368.141v-3.344h1.875V314h-1.828l-.047-.734a4 4 0 0 1-.352.336 2.7 2.7 0 0 1-.484.32 3.3 3.3 0 0 1-.625.234q-.344.102-.773.102-.61 0-1.203-.258a3.2 3.2 0 0 1-1.063-.75 4 4 0 0 1-.75-1.219q-.28-.718-.281-1.648m1.9 0q0 .96.476 1.601.484.64 1.398.641a1.7 1.7 0 0 0 .813-.18q.343-.188.547-.476a1.9 1.9 0 0 0 .304-.633q.094-.344.094-.664v-2.305a1.5 1.5 0 0 0-.633-.312 4 4 0 0 0-.914-.086q-.562 0-.93.219-.367.21-.64.562-.243.321-.383.75a3 3 0 0 0-.133.883m9.53-2.352v-1.539h1.274v-.461q0-.811.258-1.383.257-.57.656-.929.4-.36.89-.516.5-.164.985-.164.515 0 1.133.149.624.14 1.203.632l-.883 1.25a2.5 2.5 0 0 0-.555-.289 1.7 1.7 0 0 0-.593-.109q-.563 0-.89.359-.33.36-.33 1.031v.43h1.938v1.539h-1.921V314H45.46v-5.969zM50.345 314v-7.508h1.804l.047.946q.126-.157.328-.344a2.4 2.4 0 0 1 .477-.352q.273-.164.633-.281t.82-.109q.274 0 .484.031.22.031.446.109L55 308.273a1.8 1.8 0 0 0-.398-.109 2.4 2.4 0 0 0-.47-.039q-.382 0-.734.133a1.7 1.7 0 0 0-.609.367q-.258.242-.414.578a1.8 1.8 0 0 0-.148.75V314zm5.625-2.195q0-.641.242-1.141a2.4 2.4 0 0 1 .672-.852 2.9 2.9 0 0 1 1.039-.515 4.7 4.7 0 0 1 1.344-.18 19 19 0 0 1 1.023.031q.289.016.594.04v-.18q0-.562-.453-.883-.445-.32-1.164-.32-.798 0-1.282.211-.476.21-.843.445l-.868-1.273q.227-.157.516-.329t.672-.304q.383-.141.883-.227a7 7 0 0 1 1.18-.086q.718 0 1.304.203.585.196 1 .555.414.36.64.867.228.5.227 1.094V314H60.93l-.047-.703q-.304.367-.93.656a3.27 3.27 0 0 1-2.312.141 2.5 2.5 0 0 1-.828-.438 2.25 2.25 0 0 1-.61-.758 2.4 2.4 0 0 1-.234-1.093m1.812-.078q0 .476.344.75.345.273 1.016.273.336 0 .648-.109.312-.11.547-.305.242-.196.39-.445.157-.259.157-.547v-.735l-.563-.031a13 13 0 0 0-.89-.031q-.915 0-1.282.359-.367.36-.367.821m6.383-1.375q0-.829.297-1.563.297-.743.844-1.281a4 4 0 0 1 1.336-.86 4.7 4.7 0 0 1 1.757-.312q.977 0 1.797.164.828.156 1.344.328v7.297q0 .781-.273 1.391a2.9 2.9 0 0 1-.758 1.023 3.1 3.1 0 0 1-1.133.633 4.5 4.5 0 0 1-1.422.219q-.594 0-1.047-.055a6 6 0 0 1-.82-.156 3.5 3.5 0 0 1-.656-.242 3.7 3.7 0 0 1-.547-.329l.844-1.39q.445.305.968.437.524.133 1.227.133.734 0 1.226-.445.5-.446.5-1.25v-.813a3.5 3.5 0 0 1-.843.524q-.453.195-1.203.195-.813 0-1.446-.273a3.2 3.2 0 0 1-1.086-.758 3.4 3.4 0 0 1-.68-1.157 4.5 4.5 0 0 1-.226-1.46m1.914-.047q0 .867.43 1.461.437.585 1.398.586.867 0 1.305-.368.438-.366.437-1.172v-2.687a3 3 0 0 0-.468-.117 5 5 0 0 0-.743-.039q-.578 0-1.015.195a2.2 2.2 0 0 0-.734.508 2.1 2.1 0 0 0-.461.75 2.6 2.6 0 0 0-.149.883m6.961-.149q0-.828.273-1.539.282-.71.782-1.234a3.7 3.7 0 0 1 2.75-1.141q1.023 0 1.734.375t1.14.985q.438.609.626 1.375.195.765.195 1.57v.265h-5.602q0 .415.188.758.188.336.477.578.296.235.671.368.384.125.75.125.547 0 .954-.102.406-.11.687-.242a2.6 2.6 0 0 0 .758-.539l1.023 1.156-.265.266q-.211.21-.625.453-.407.242-1.04.429-.632.196-1.507.196a4.2 4.2 0 0 1-1.633-.305 3.8 3.8 0 0 1-1.258-.836 3.7 3.7 0 0 1-.805-1.289 4.9 4.9 0 0 1-.273-1.672m1.883-.703h3.68q0-.29-.11-.57a1.6 1.6 0 0 0-.883-.906 1.8 1.8 0 0 0-.765-.157q-.461 0-.82.157-.36.148-.602.382a1.7 1.7 0 0 0-.375.524 1.4 1.4 0 0 0-.125.57M82 314v-7.508h1.805l.047.852q.14-.156.343-.336t.485-.328q.28-.149.632-.242.352-.102.797-.102 1.406 0 2.141.844.742.836.742 2.258V314h-1.89v-4.547q0-.719-.391-1.109-.39-.391-1.016-.391-.382 0-.718.156-.336.149-.579.422a2 2 0 0 0-.382.633q-.133.36-.133.774V314zm11.266-1.711 1.414-1.297q.194.227.453.477.266.242.594.461.327.21.734.359.405.141.922.141.945 0 1.398-.43a1.38 1.38 0 0 0 .453-1.039q0-.336-.125-.602a1.13 1.13 0 0 0-.43-.461 3.2 3.2 0 0 0-.796-.359 10 10 0 0 0-1.203-.305 4.2 4.2 0 0 1-1.274-.445 3.4 3.4 0 0 1-.89-.727 2.9 2.9 0 0 1-.532-.914 3.2 3.2 0 0 1-.171-1.039q0-.609.218-1.156.226-.555.688-.976.468-.423 1.164-.68.695-.258 1.64-.258.852 0 1.454.195.609.188 1.015.446.414.258.633.508.226.242.328.359l-1.328 1.242a6 6 0 0 1-.258-.227 2.5 2.5 0 0 0-.445-.328 3 3 0 0 0-.633-.289 2.4 2.4 0 0 0-.828-.133q-.414 0-.719.118a1.5 1.5 0 0 0-.508.289q-.195.172-.296.39a1 1 0 0 0-.094.407q0 .288.101.515.11.219.352.414.25.188.68.344.437.149 1.093.281.625.126 1.196.383.578.258 1.015.664.445.407.703.992.266.586.266 1.399 0 .703-.289 1.297a3.1 3.1 0 0 1-.797 1.039 3.7 3.7 0 0 1-1.219.695q-.703.25-1.53.25a5 5 0 0 1-1.446-.195 5.4 5.4 0 0 1-1.172-.485 5 5 0 0 1-.899-.648 7 7 0 0 1-.632-.672m9.937-6.977v-1.984h2.016v1.984zm.063 8.688v-7.508h1.89V314zm3.476-3.844q0-.828.274-1.539.281-.71.781-1.234a3.7 3.7 0 0 1 1.203-.836 3.85 3.85 0 0 1 1.547-.305q1.023 0 1.734.375.71.375 1.141.985.438.609.625 1.375.195.765.195 1.57v.265h-5.601q0 .415.187.758.188.336.477.578.297.235.672.368.383.125.75.125.546 0 .953-.102.406-.11.687-.242a2.6 2.6 0 0 0 .758-.539l1.023 1.156-.265.266a3.2 3.2 0 0 1-.625.453 4.6 4.6 0 0 1-1.039.429q-.633.196-1.508.196a4.2 4.2 0 0 1-1.633-.305 3.8 3.8 0 0 1-1.258-.836 3.7 3.7 0 0 1-.804-1.289 4.9 4.9 0 0 1-.274-1.672m1.883-.703h3.68q0-.29-.11-.57a1.59 1.59 0 0 0-.883-.906 1.8 1.8 0 0 0-.765-.157q-.461 0-.82.157-.36.148-.602.382a1.8 1.8 0 0 0-.375.524 1.4 1.4 0 0 0-.125.57M118.781 314v-10.672h2.016V314zm4.063 0v-10.672h1.851v3.938q.29-.32.844-.625.555-.305 1.414-.305.687 0 1.227.226.546.219.906.633.368.406.555.985.195.57.195 1.258V314h-1.891v-4.547q0-.719-.39-1.109-.391-.391-1.016-.391-.383 0-.719.156-.335.149-.578.422a2 2 0 0 0-.383.633q-.132.36-.132.774V314zm8.812 0v-7.508h1.805l.047.946q.125-.157.328-.344.203-.195.476-.352.274-.164.633-.281a2.5 2.5 0 0 1 .821-.109q.273 0 .484.031.219.031.445.109l-.383 1.781a2.426 2.426 0 0 0-.867-.148q-.383 0-.734.133a1.7 1.7 0 0 0-.609.367 1.9 1.9 0 0 0-.414.578 1.8 1.8 0 0 0-.149.75V314zm5.758-3.844q0-.828.274-1.539.28-.71.781-1.234a3.7 3.7 0 0 1 1.203-.836 3.85 3.85 0 0 1 1.547-.305q1.023 0 1.734.375.71.375 1.141.985.437.609.625 1.375.195.765.195 1.57v.265h-5.602q0 .415.188.758.188.336.477.578.296.235.671.368.384.125.75.125.547 0 .954-.102.406-.11.687-.242a2.6 2.6 0 0 0 .758-.539l1.023 1.156-.265.266a3.2 3.2 0 0 1-.625.453 4.6 4.6 0 0 1-1.039.429q-.633.196-1.508.196a4.2 4.2 0 0 1-1.633-.305 3.8 3.8 0 0 1-1.258-.836 3.7 3.7 0 0 1-.804-1.289 4.9 4.9 0 0 1-.274-1.672m1.883-.703h3.68q0-.29-.11-.57a1.59 1.59 0 0 0-.883-.906 1.8 1.8 0 0 0-.765-.157q-.462 0-.821.157-.359.148-.601.382a1.7 1.7 0 0 0-.375.524 1.4 1.4 0 0 0-.125.57M19.859 332l4.047-10.672h2.086L30.04 332h-2.242l-.93-2.703h-3.969L21.977 332zm2.391-11.789v-1.875h1.969v1.875zm1.21 7.422h2.837l-1.414-4.149zm2.196-7.422v-1.875h1.969v1.875zM31.055 332v-7.508h1.804l.047.946q.126-.157.328-.344.204-.195.477-.352.273-.164.633-.281t.82-.109q.274 0 .484.031.22.031.446.109l-.383 1.781a1.8 1.8 0 0 0-.398-.109 2.4 2.4 0 0 0-.47-.039q-.383 0-.734.133a1.7 1.7 0 0 0-.609.367q-.258.242-.414.578a1.8 1.8 0 0 0-.148.75V332zm5.914 0v-1.438l3.828-4.484h-3.711v-1.586h6.062v1.477l-3.953 4.492h3.953V332zm7.101-5.969v-1.539h1.282v-2.43h1.882v2.43h2.016v1.539h-2.016v3.281q0 .642.22.985.218.344.694.344.445 0 .711-.125.266-.133.508-.305l.797 1.164a4 4 0 0 1-1.11.664q-.538.203-1.21.203-.689 0-1.172-.203a1.9 1.9 0 0 1-.774-.562 2.3 2.3 0 0 1-.421-.891 5 5 0 0 1-.125-1.148v-3.407zm7.094-2.719v-1.984h2.016v1.984zm.063 8.688v-7.508h1.89V332zm3.828 0v-7.508h1.804l.047.852q.141-.156.344-.336t.484-.328q.282-.149.633-.242.352-.102.797-.102 1.407 0 2.14.844.743.836.743 2.258V332h-1.89v-4.547q0-.719-.391-1.109-.391-.391-1.016-.391-.383 0-.719.156-.335.149-.578.422a2 2 0 0 0-.383.633q-.133.36-.133.774V332zm8.937 2.289L65 332h-.812v-2.227h2.289v2.196l-1.36 2.32zM71.414 332v-10.672h2.016V332zm4.063 0v-10.672h1.851v3.938q.29-.32.844-.625.555-.305 1.414-.305.687 0 1.227.226.546.219.906.633.368.406.554.985.195.57.196 1.258V332h-1.89v-4.547q0-.719-.391-1.109-.391-.391-1.016-.391-.383 0-.719.156-.335.149-.578.422-.243.266-.383.633-.132.36-.133.774V332zm8.812 0v-7.508h1.805l.047.946q.124-.157.328-.344.203-.195.476-.352.275-.164.633-.281.36-.118.82-.109.274 0 .485.031.219.031.445.109l-.383 1.781a1.8 1.8 0 0 0-.398-.109 2.4 2.4 0 0 0-.469-.039q-.383 0-.734.133a1.7 1.7 0 0 0-.61.367q-.257.242-.414.578a1.8 1.8 0 0 0-.148.75V332zm5.758-3.844q0-.828.273-1.539.281-.71.782-1.234a3.7 3.7 0 0 1 2.75-1.141q1.023 0 1.734.375t1.14.985q.438.609.626 1.375.195.765.195 1.57v.265h-5.602q0 .415.188.758.188.336.476.578.297.235.672.368.382.125.75.125.547 0 .953-.102.406-.11.688-.242a2.6 2.6 0 0 0 .758-.539l1.023 1.156-.266.266q-.21.21-.624.453-.407.242-1.04.429-.632.196-1.507.196a4.2 4.2 0 0 1-1.633-.305 3.8 3.8 0 0 1-1.258-.836 3.7 3.7 0 0 1-.805-1.289 4.9 4.9 0 0 1-.273-1.672m1.883-.703h3.68q0-.29-.11-.57a1.6 1.6 0 0 0-.883-.906 1.8 1.8 0 0 0-.765-.157q-.462 0-.82.157-.36.148-.602.382a1.7 1.7 0 0 0-.375.524 1.4 1.4 0 0 0-.125.57M99.008 332v-7.508h1.804l.047.852q.141-.156.344-.336a2.5 2.5 0 0 1 .485-.328q.28-.149.632-.242.352-.102.797-.102 1.406 0 2.141.844.742.836.742 2.258V332h-1.891v-4.547q0-.719-.39-1.109-.391-.391-1.016-.391-.383 0-.719.156-.335.149-.578.422a2 2 0 0 0-.383.633q-.132.36-.132.774V332zm10.851 0 4.047-10.672h2.086L120.039 332h-2.242l-.93-2.703h-3.969l-.921 2.703zm3.602-4.367h2.836l-1.414-4.149zm7.594 4.367v-7.508h1.804l.047.946q.126-.157.328-.344.204-.195.477-.352.273-.164.633-.281.359-.118.82-.109.273 0 .484.031.22.031.446.109l-.383 1.781a1.8 1.8 0 0 0-.399-.109 2.4 2.4 0 0 0-.468-.039q-.382 0-.735.133a1.7 1.7 0 0 0-.609.367 1.9 1.9 0 0 0-.414.578 1.8 1.8 0 0 0-.148.75V332zm5.914 0v-1.438l3.828-4.484h-3.711v-1.586h6.062v1.477l-3.953 4.492h3.953V332zm7.101-5.969v-1.539h1.282v-2.43h1.882v2.43h2.016v1.539h-2.016v3.281q0 .642.219.985.22.344.695.344.445 0 .711-.125a4 4 0 0 0 .508-.305l.797 1.164a4 4 0 0 1-1.109.664q-.54.203-1.211.203-.688 0-1.172-.203a1.9 1.9 0 0 1-.774-.562 2.3 2.3 0 0 1-.421-.891 5 5 0 0 1-.125-1.148v-3.407zm-96.11 20.211q0-.811.298-1.539a3.9 3.9 0 0 1 .82-1.273 3.9 3.9 0 0 1 1.274-.868 4.1 4.1 0 0 1 1.64-.32q.9 0 1.64.32a3.8 3.8 0 0 1 1.266.868q.532.539.829 1.265.297.727.296 1.547a4.042 4.042 0 0 1-1.125 2.828 3.8 3.8 0 0 1-1.265.868 4.1 4.1 0 0 1-1.64.32 4.1 4.1 0 0 1-1.641-.32 3.9 3.9 0 0 1-1.274-.868 4.1 4.1 0 0 1-1.117-2.828m1.9 0q0 .414.124.828.134.414.399.774.265.351.664.57.398.211.945.211t.946-.211q.398-.219.656-.57a2.5 2.5 0 0 0 .39-.774q.133-.414.133-.828 0-.398-.133-.82a2.3 2.3 0 0 0-.39-.774 1.9 1.9 0 0 0-.664-.554 1.9 1.9 0 0 0-.938-.219q-.547 0-.945.219-.399.21-.664.554-.266.344-.399.774a2.9 2.9 0 0 0-.125.82m7.32.141q0-.883.25-1.539a4.1 4.1 0 0 1 .64-1.133q.32-.383.703-.641.39-.257.782-.422a3.6 3.6 0 0 1 1.398-.312q.367 0 .61.023.241.024.43.063.195.039.35.109l.368.141v-3.344h1.875V350h-1.828l-.047-.734q-.14.156-.352.336a2.7 2.7 0 0 1-.484.32 3.3 3.3 0 0 1-.625.234q-.345.102-.773.102-.61 0-1.204-.258a3.25 3.25 0 0 1-1.062-.75 4 4 0 0 1-.75-1.219q-.282-.718-.281-1.648m1.898 0q0 .96.477 1.601.484.64 1.398.641a1.7 1.7 0 0 0 .813-.18q.343-.188.547-.476a1.9 1.9 0 0 0 .304-.633q.094-.344.094-.664v-2.305a1.5 1.5 0 0 0-.633-.312 4 4 0 0 0-.914-.086q-.562 0-.93.219-.366.21-.64.562-.243.321-.383.75a3 3 0 0 0-.133.883m7.008-.227q0-.828.273-1.539.282-.71.782-1.234a3.7 3.7 0 0 1 1.203-.836 3.85 3.85 0 0 1 1.547-.305q1.023 0 1.734.375t1.14.985q.437.609.626 1.375.195.765.195 1.57v.265h-5.602q0 .415.188.758.188.336.476.578.297.235.672.368.383.125.75.125.548 0 .953-.102.406-.11.688-.242a2.6 2.6 0 0 0 .758-.539l1.023 1.156-.265.266q-.212.21-.625.453-.407.242-1.04.429-.632.196-1.507.196a4.2 4.2 0 0 1-1.633-.305 3.8 3.8 0 0 1-1.258-.836 3.7 3.7 0 0 1-.805-1.289 4.9 4.9 0 0 1-.273-1.672m1.883-.703h3.68q0-.29-.11-.57a1.6 1.6 0 0 0-.883-.906 1.8 1.8 0 0 0-.765-.157q-.462 0-.82.157-.36.148-.602.382a1.7 1.7 0 0 0-.375.524 1.4 1.4 0 0 0-.125.57M65.047 350v-7.508h1.805l.046.946q.126-.157.329-.344.203-.195.476-.352.273-.164.633-.281t.82-.109q.273 0 .485.031.218.031.445.109l-.383 1.781a1.8 1.8 0 0 0-.398-.109 2.4 2.4 0 0 0-.47-.039q-.382 0-.733.133a1.7 1.7 0 0 0-.61.367q-.258.242-.414.578a1.8 1.8 0 0 0-.148.75V350zm9.016-8.688v-1.984h2.015v1.984zm.062 8.688v-7.508h1.89V350zm3.828 0v-7.508h1.805l.047.852q.14-.156.343-.336t.485-.328q.28-.149.633-.242.352-.102.796-.102 1.406 0 2.141.844.742.836.742 2.258V350h-1.89v-4.547q0-.719-.39-1.109-.391-.391-1.017-.391-.382 0-.718.156-.336.149-.578.422-.243.266-.383.633-.133.36-.133.774V350zm11.89 0v-10.672h2.016V350zm4.063 0v-10.672h1.852v3.938q.29-.32.844-.625t1.414-.305q.687 0 1.226.226.547.219.906.633.368.406.555.985.195.57.195 1.258V350h-1.89v-4.547q0-.719-.39-1.109-.392-.391-1.016-.391-.383 0-.72.156-.335.149-.577.422-.243.266-.383.633-.133.36-.133.774V350zm8.813 0v-7.508h1.804l.047.946q.126-.157.328-.344.204-.195.477-.352.273-.164.633-.281.359-.118.82-.109.273 0 .484.031.22.031.446.109l-.383 1.781a2.44 2.44 0 0 0-.867-.148q-.382 0-.735.133a1.7 1.7 0 0 0-.609.367 1.9 1.9 0 0 0-.414.578 1.8 1.8 0 0 0-.148.75V350zm5.758-3.844q0-.828.273-1.539.282-.71.781-1.234a3.7 3.7 0 0 1 1.203-.836 3.9 3.9 0 0 1 1.547-.305q1.024 0 1.735.375t1.14.985q.438.609.625 1.375.196.765.196 1.57v.265h-5.602q0 .415.187.758.188.336.477.578.297.235.672.368.382.125.75.125.547 0 .953-.102.406-.11.688-.242a2.6 2.6 0 0 0 .757-.539l1.024 1.156-.266.266a3.2 3.2 0 0 1-.625.453 4.6 4.6 0 0 1-1.039.429q-.632.196-1.508.196a4.2 4.2 0 0 1-1.633-.305 3.8 3.8 0 0 1-1.257-.836 3.7 3.7 0 0 1-.805-1.289 4.9 4.9 0 0 1-.273-1.672m1.882-.703h3.68q0-.29-.109-.57a1.6 1.6 0 0 0-.328-.524 1.7 1.7 0 0 0-.555-.382 1.8 1.8 0 0 0-.766-.157q-.46 0-.82.157-.36.148-.602.382a1.8 1.8 0 0 0-.375.524 1.4 1.4 0 0 0-.125.57m7.079 4.547v-7.508h1.804l.047.946q.125-.157.328-.344.203-.195.477-.352.273-.164.633-.281.359-.118.82-.109.274 0 .484.031.22.031.446.109l-.383 1.781a1.8 1.8 0 0 0-.399-.109 2.4 2.4 0 0 0-.468-.039q-.383 0-.735.133a1.7 1.7 0 0 0-.609.367 1.9 1.9 0 0 0-.414.578 1.8 1.8 0 0 0-.149.75V350zm-74.274 18 4.047-10.672h2.086L53.344 368h-2.242l-.93-2.703h-3.969L45.281 368zm3.602-4.367h2.836l-1.414-4.149zm7.593 7.57v-10.711h1.82l.048.852a3.4 3.4 0 0 1 .359-.336q.219-.18.516-.32t.671-.235q.375-.101.844-.101.868 0 1.492.336.633.335 1.047.89.415.547.625 1.258.21.703.211 1.453 0 .883-.258 1.508a4.4 4.4 0 0 1-.64 1.086q-.641.765-1.399 1.07a4.2 4.2 0 0 1-1.562.305q-.367 0-.633-.031a4.09 4.09 0 0 1-.883-.219q-.18-.07-.39-.149v3.344zm1.868-5.047q.563.462 1.695.469.516 0 .914-.195a2.2 2.2 0 0 0 1.102-1.274 2.6 2.6 0 0 0 .148-.867 3.5 3.5 0 0 0-.11-.891 2 2 0 0 0-.335-.734 1.6 1.6 0 0 0-.594-.492q-.368-.188-.914-.188-.43 0-.781.188-.352.18-.602.469a2.3 2.3 0 0 0-.39.632q-.134.344-.133.665zm6.921-1.914q0-.811.297-1.539a3.9 3.9 0 0 1 .82-1.273 3.9 3.9 0 0 1 1.274-.868 4.1 4.1 0 0 1 1.64-.32q.9 0 1.641.32a3.8 3.8 0 0 1 1.266.868q.531.539.828 1.265.297.727.297 1.547a4.042 4.042 0 0 1-1.125 2.828 3.8 3.8 0 0 1-1.266.868 4.1 4.1 0 0 1-1.64.32 4.1 4.1 0 0 1-1.64-.32 3.9 3.9 0 0 1-1.274-.868 4.1 4.1 0 0 1-1.118-2.828m1.899 0q0 .414.125.828.132.414.398.774.266.351.664.57.399.211.946.211t.945-.211q.398-.219.656-.57.266-.36.39-.774.135-.414.134-.828 0-.398-.133-.82a2.3 2.3 0 0 0-.39-.774 1.9 1.9 0 0 0-.665-.554 1.9 1.9 0 0 0-.937-.219q-.547 0-.946.219-.398.21-.664.554t-.398.774a2.9 2.9 0 0 0-.125.82m7.031-2.211v-1.539h1.281v-2.43h1.883v2.43h2.016v1.539h-2.016v3.281q0 .642.219.985.219.344.695.344.445 0 .711-.125.265-.133.508-.305l.797 1.164a4 4 0 0 1-1.11.664q-.539.203-1.21.203-.689 0-1.172-.203a1.9 1.9 0 0 1-.774-.562 2.3 2.3 0 0 1-.422-.891 5 5 0 0 1-.125-1.148v-3.407zM79.156 368v-10.672h1.852v3.938q.29-.32.844-.625t1.414-.305q.687 0 1.226.226.547.219.906.633.368.406.555.985.195.57.195 1.258V368h-1.89v-4.547q0-.719-.39-1.109-.392-.391-1.016-.391-.383 0-.72.156-.335.149-.577.422-.243.266-.383.633-.133.36-.133.774V368zm8.461-3.844q0-.828.274-1.539.28-.71.78-1.234a3.7 3.7 0 0 1 1.204-.836 3.85 3.85 0 0 1 1.547-.305q1.023 0 1.734.375t1.14.985q.438.609.626 1.375.195.765.195 1.57v.265h-5.601q0 .415.187.758.188.336.477.578.297.235.672.368.382.125.75.125.546 0 .953-.102.406-.11.687-.242a2.6 2.6 0 0 0 .758-.539l1.023 1.156-.265.266q-.211.21-.625.453-.406.242-1.04.429-.632.196-1.507.196a4.2 4.2 0 0 1-1.633-.305 3.8 3.8 0 0 1-1.258-.836 3.7 3.7 0 0 1-.804-1.289 4.9 4.9 0 0 1-.274-1.672m1.883-.703h3.68q0-.29-.11-.57a1.6 1.6 0 0 0-.882-.906 1.8 1.8 0 0 0-.766-.157q-.46 0-.82.157-.36.148-.602.382a1.7 1.7 0 0 0-.375.524 1.4 1.4 0 0 0-.125.57M96.578 368v-10.672h1.883v5.82l2.711-2.656h2.219l-2.813 2.774 3.133 4.734h-2.258l-2.172-3.453-.82.797V368zm7.836-3.844q0-.828.274-1.539.28-.71.781-1.234a3.7 3.7 0 0 1 1.203-.836 3.85 3.85 0 0 1 1.547-.305q1.023 0 1.734.375.71.375 1.141.985.437.609.625 1.375.195.765.195 1.57v.265h-5.602q0 .415.188.758.188.336.477.578.296.235.671.368.384.125.75.125.548 0 .954-.102.406-.11.687-.242a2.6 2.6 0 0 0 .758-.539l1.023 1.156-.265.266a3.2 3.2 0 0 1-.625.453 4.6 4.6 0 0 1-1.039.429q-.633.196-1.508.196a4.2 4.2 0 0 1-1.633-.305 3.8 3.8 0 0 1-1.258-.836 3.7 3.7 0 0 1-.804-1.289 4.9 4.9 0 0 1-.274-1.672m1.883-.703h3.68q0-.29-.11-.57a1.59 1.59 0 0 0-.883-.906 1.8 1.8 0 0 0-.765-.157q-.462 0-.821.157-.359.148-.601.382a1.7 1.7 0 0 0-.375.524 1.4 1.4 0 0 0-.125.57m7.234 4.547v-2.211h2.289V368z"/><path fill="#fff" d="m4.385 568 3.035-8.004h1.564L12.02 568h-1.682l-.697-2.027H6.664L5.973 568zm2.7-3.275h2.128l-1.06-3.112zm5.274-3.399v-1.33h6.938v1.33h-2.713V568h-1.512v-6.674zm7.729.287q.147-.24.357-.48a2.6 2.6 0 0 1 1.26-.779q.422-.129.961-.129.65 0 1.12.175.468.17.767.463.298.287.44.657.146.363.146.744 0 .41-.135.756-.129.345-.346.65a4 4 0 0 1-.492.562q-.276.264-.562.504-.347.288-.657.528-.304.24-.533.468a2.3 2.3 0 0 0-.363.463q-.13.235-.13.522h3.265V568h-4.858v-.949q0-.516.17-.932a3.3 3.3 0 0 1 .451-.773q.282-.358.615-.657.335-.298.674-.591.334-.288.592-.487.258-.204.44-.392.18-.187.27-.375a1.1 1.1 0 0 0 .087-.446q0-.157-.053-.322a.7.7 0 0 0-.181-.293.9.9 0 0 0-.329-.211 1.3 1.3 0 0 0-.515-.088q-.276 0-.498.088a1.5 1.5 0 0 0-.399.217 1.8 1.8 0 0 0-.299.287 3 3 0 0 0-.21.293zm6.31 5.737.791-1.02q.323.287.698.457t.949.17q.387 0 .656-.111.27-.117.44-.317a1.2 1.2 0 0 0 .252-.451q.081-.252.082-.527 0-.182-.07-.399a1.1 1.1 0 0 0-.235-.416 1.2 1.2 0 0 0-.463-.322q-.293-.135-.732-.135-.41 0-.65.082-.241.077-.446.147l-.72-.551.755-3.504h3.926v1.318h-2.906l-.3 1.454q.082-.035.288-.071.205-.04.492-.041.55 0 1.014.17.462.17.797.475.34.304.521.75.188.446.188.984 0 .528-.159 1.02a2.2 2.2 0 0 1-.51.873q-.35.375-.92.603-.568.23-1.382.229-.803 0-1.371-.24a3.5 3.5 0 0 1-.985-.627m7.079-5.696 2.22-1.213h1.237v6.323h1.248V568H34.22v-1.236h1.295v-4.776l-1.448.768zm6.539 0 2.22-1.213h1.237v6.323h1.248V568H40.76v-1.236h1.295v-4.776l-1.448.768zm6.023 2.467q0-.879.188-1.594.187-.72.556-1.23.375-.51.932-.791.555-.281 1.289-.281.732 0 1.283.281.55.28.92.791.375.51.563 1.23.186.721.187 1.594 0 .902-.187 1.652-.189.75-.563 1.284a2.7 2.7 0 0 1-.926.838q-.555.298-1.289.298-.732 0-1.283-.298a2.8 2.8 0 0 1-.926-.838 3.9 3.9 0 0 1-.556-1.284 6.8 6.8 0 0 1-.188-1.652m1.453 0q0 .586.094 1.096.1.504.287.879.193.369.475.586.287.216.656.216t.65-.216a1.6 1.6 0 0 0 .469-.586q.188-.375.281-.879.1-.504.1-1.096 0-.563-.1-1.043a2.7 2.7 0 0 0-.287-.82 1.5 1.5 0 0 0-.469-.533 1.13 1.13 0 0 0-.656-.194q-.37 0-.656.194a1.5 1.5 0 0 0-.469.533 3 3 0 0 0-.281.82q-.094.48-.094 1.043m5.45.375q0-.937.21-1.723.217-.785.639-1.353a2.9 2.9 0 0 1 1.043-.885q.627-.31 1.453-.31.334 0 .621.052.292.053.54.135.245.077.427.164.187.082.31.153l-.615 1.113a2.8 2.8 0 0 0-.767-.305 2 2 0 0 0-.528-.064q-.433 0-.779.187-.346.182-.598.492a2.3 2.3 0 0 0-.392.692q-.14.38-.14.791.263-.159.632-.346.375-.187.955-.187.515 0 .95.169.438.17.744.487.31.317.48.773.176.458.176 1.043 0 .528-.17 1.008-.165.48-.492.844a2.4 2.4 0 0 1-.809.574 2.7 2.7 0 0 1-1.107.217q-.598 0-1.114-.217a2.3 2.3 0 0 1-.884-.674q-.37-.457-.58-1.154-.206-.703-.206-1.676m1.411.275q0 .64.106 1.067.111.422.299.674.187.252.44.363.25.105.527.105.562 0 .902-.398.345-.404.346-1.055 0-.55-.323-.879-.316-.333-.832-.334-.539 0-.896.159a3.6 3.6 0 0 0-.569.298m5.28-3.117 2.22-1.213h1.237v6.323h1.248V568h-3.961v-1.236h1.295v-4.776l-1.447.768zm6.146 4.225q0-.732.381-1.26a2.4 2.4 0 0 1 1.02-.808 2.1 2.1 0 0 1-.657-.639 1.66 1.66 0 0 1-.287-.943q0-.446.17-.815.176-.375.487-.639.31-.263.75-.404.44-.146.978-.146.586 0 1.031.146.445.141.745.399.298.256.456.621.159.357.159.779 0 .562-.305.978-.3.41-.68.616.685.287 1.06.82.376.533.376 1.266 0 .386-.158.802a2.1 2.1 0 0 1-.498.756q-.34.34-.88.563-.538.222-1.306.222-.78 0-1.318-.216a2.7 2.7 0 0 1-.885-.551 2.1 2.1 0 0 1-.492-.75 2.4 2.4 0 0 1-.147-.797m1.436-.041q0 .322.123.545.129.222.334.369t.457.211.492.064.492-.064.457-.211a1.1 1.1 0 0 0 .328-.363q.13-.223.13-.551a1 1 0 0 0-.124-.475 1.4 1.4 0 0 0-.316-.404 2 2 0 0 0-.457-.299 2.2 2.2 0 0 0-.533-.187q-.276.058-.528.187a1.8 1.8 0 0 0-.44.299 1.5 1.5 0 0 0-.304.404 1.05 1.05 0 0 0-.111.475m.351-3.609q0 .31.287.626.288.317.768.452.48-.135.768-.452.287-.315.287-.662a.84.84 0 0 0-.293-.656q-.293-.258-.762-.258-.445 0-.75.264a.86.86 0 0 0-.305.686m4.8 4.318v-1.19l3.298-4.916h1.418v4.905h.78v1.201h-.78V568h-1.36v-1.453zm1.365-1.201h1.992v-2.912zm5.003-1.225q0-.879.188-1.594.187-.72.556-1.23.375-.51.932-.791.556-.281 1.29-.281.731 0 1.282.281.552.28.92.791.375.51.563 1.23.187.721.187 1.594 0 .902-.187 1.652-.188.75-.563 1.284a2.7 2.7 0 0 1-.925.838q-.556.298-1.29.298-.731 0-1.283-.298a2.8 2.8 0 0 1-.925-.838 3.9 3.9 0 0 1-.557-1.284 6.8 6.8 0 0 1-.188-1.652m1.454 0q0 .586.093 1.096.1.504.287.879.195.369.475.586.287.216.656.216t.65-.216q.287-.217.47-.586a3.3 3.3 0 0 0 .28-.879q.1-.504.1-1.096 0-.563-.1-1.043a2.7 2.7 0 0 0-.287-.82 1.5 1.5 0 0 0-.468-.533 1.13 1.13 0 0 0-.656-.194q-.37 0-.657.194a1.5 1.5 0 0 0-.469.533q-.18.34-.28.82-.094.48-.094 1.043m4.775 4.658h6v.662h-6zm6.369-2.062 1.06-.973q.148.17.34.358.2.182.446.345.246.159.55.27.305.105.692.105.709 0 1.049-.322.34-.323.34-.779 0-.252-.094-.451a.84.84 0 0 0-.322-.346 2.4 2.4 0 0 0-.598-.27 7 7 0 0 0-.902-.228 3.2 3.2 0 0 1-.956-.334 2.5 2.5 0 0 1-.668-.545 2.2 2.2 0 0 1-.398-.686 2.4 2.4 0 0 1 .035-1.646q.17-.416.516-.733a2.7 2.7 0 0 1 .873-.509q.522-.194 1.23-.194.64 0 1.09.147.457.14.762.334.31.193.475.381.17.182.246.269l-.996.932a4 4 0 0 1-.194-.17 1.8 1.8 0 0 0-.334-.246 2.1 2.1 0 0 0-.474-.217q-.276-.1-.621-.1-.31 0-.54.088-.228.082-.38.217a.9.9 0 0 0-.223.293.75.75 0 0 0-.07.305q0 .216.076.386.082.164.264.311.187.141.51.258.327.11.82.211.468.093.896.287.434.193.762.498.333.304.527.744.2.44.2 1.049 0 .527-.218.973-.21.444-.597.779a2.8 2.8 0 0 1-.914.521 3.4 3.4 0 0 1-1.149.188q-.597 0-1.084-.147a3.796 3.796 0 0 1-1.553-.849 5 5 0 0 1-.474-.504m6.961-3.194v-1.154h.96v-1.822h1.413v1.822h1.512v1.154h-1.512v2.461q0 .481.164.739.164.257.522.257.333 0 .533-.093.2-.1.381-.229l.597.873a2.9 2.9 0 0 1-.832.498 2.6 2.6 0 0 1-.908.153 2.3 2.3 0 0 1-.879-.153 1.4 1.4 0 0 1-.58-.422 1.7 1.7 0 0 1-.316-.668 3.7 3.7 0 0 1-.094-.861v-2.555zm4.945 2.831q0-.481.182-.856.181-.381.504-.639.322-.257.779-.386.458-.135 1.008-.135a13 13 0 0 1 .768.023q.216.012.445.03v-.135a.77.77 0 0 0-.34-.662q-.334-.24-.873-.24-.598 0-.961.158a5 5 0 0 0-.633.334l-.65-.955a6 6 0 0 1 .387-.246q.216-.13.503-.229.288-.105.663-.17.38-.064.884-.064.54 0 .979.152.44.146.75.416t.48.65q.17.375.17.821V568h-1.324l-.035-.527q-.23.274-.697.492a2.5 2.5 0 0 1-1.043.217q-.346 0-.692-.112a1.9 1.9 0 0 1-.621-.328 1.7 1.7 0 0 1-.457-.568 1.8 1.8 0 0 1-.176-.82m1.36-.059a.68.68 0 0 0 .257.562q.258.205.762.205.252 0 .487-.082.234-.081.41-.228.181-.147.293-.334a.8.8 0 0 0 .117-.41v-.551l-.422-.023a9 9 0 0 0-.668-.024q-.685 0-.961.27a.83.83 0 0 0-.275.615m5.05 1.705v-5.631h1.354l.035.639q.105-.117.258-.252.152-.135.363-.246a2.3 2.3 0 0 1 1.072-.258q1.056 0 1.606.633.557.627.557 1.693V568h-1.418v-3.41q0-.54-.293-.832-.294-.293-.762-.293-.287 0-.539.117a1.25 1.25 0 0 0-.434.316 1.5 1.5 0 0 0-.287.475 1.7 1.7 0 0 0-.099.58V568zm6.346-2.713q0-.662.188-1.154.193-.498.48-.85a2.6 2.6 0 0 1 .527-.48q.294-.194.586-.317.293-.129.569-.181.275-.053.48-.053.276 0 .457.018.182.017.323.046.146.03.263.082l.276.106v-2.508h1.406V568h-1.371l-.035-.551a3 3 0 0 1-.264.252 2.04 2.04 0 0 1-.832.416 2.247 2.247 0 0 1-1.483-.117 2.4 2.4 0 0 1-.796-.562 3 3 0 0 1-.563-.915 3.4 3.4 0 0 1-.211-1.236m1.424 0q0 .721.357 1.201.364.481 1.049.481.358 0 .61-.135.257-.141.41-.357.157-.217.228-.475.07-.258.071-.498v-1.729a1.16 1.16 0 0 0-.475-.234 3 3 0 0 0-.686-.064q-.421 0-.697.164a1.6 1.6 0 0 0-.48.421 1.9 1.9 0 0 0-.287.563q-.1.317-.1.662m7.816-3.633 2.221-1.213h1.236v6.323h1.248V568h-3.96v-1.236h1.294v-4.776l-1.447.768zm6.539 0 2.221-1.213h1.236v6.323h1.249V568h-3.961v-1.236h1.294v-4.776l-1.447.768zm5.989 6.539 3.193-8.414h1.365l-3.152 8.414zm5.349-6.58q.147-.24.358-.48.216-.246.527-.451.316-.205.733-.328a3.3 3.3 0 0 1 .96-.129q.65 0 1.12.175.468.17.767.463.299.287.44.657.146.363.146.744 0 .41-.135.756-.129.345-.345.65a4 4 0 0 1-.493.562q-.275.264-.562.504-.346.288-.656.528a6 6 0 0 0-.533.468 2.3 2.3 0 0 0-.364.463q-.129.235-.129.522h3.264V568h-4.857v-.949q0-.516.169-.932.177-.422.452-.773a5 5 0 0 1 .615-.657q.334-.298.674-.591.333-.288.592-.487a5 5 0 0 0 .439-.392q.182-.187.269-.375.088-.194.088-.446 0-.157-.052-.322a.7.7 0 0 0-.182-.293.9.9 0 0 0-.328-.211 1.3 1.3 0 0 0-.516-.088q-.274 0-.498.088a1.5 1.5 0 0 0-.398.217 1.7 1.7 0 0 0-.299.287 3 3 0 0 0-.211.293zm6.311 5.737.791-1.02q.322.287.697.457.376.17.949.17.387 0 .657-.111.269-.117.439-.317.175-.2.252-.451.082-.252.082-.527 0-.182-.07-.399a1.1 1.1 0 0 0-.235-.416 1.2 1.2 0 0 0-.463-.322q-.292-.135-.732-.135-.41 0-.65.082-.24.077-.446.147l-.72-.551.756-3.504h3.925v1.318h-2.906l-.299 1.454q.083-.035.287-.071.205-.04.493-.041.55 0 1.013.17t.797.475q.34.304.522.75.187.446.187.984 0 .528-.158 1.02a2.2 2.2 0 0 1-.51.873q-.351.375-.92.603-.569.23-1.383.229-.802 0-1.371-.24a3.5 3.5 0 0 1-.984-.627"/></svg>