<svg xmlns="http://www.w3.org/2000/svg" fill="none" viewBox="0 0 396 35"><path fill="#fff" d="M0 .97h15.998V28.2h-5.292V5.574H5.292V28.2H0zM28.309.646c6.585 0 8.444 7.232 8.444 13.454 0 10.261-3.636 14.422-8.808 14.422-6.18 0-8.605-6.544-8.605-14.018C19.34 7.07 22.29.646 28.31.646m-.202 4.606c-2.1 0-3.272 3.474-3.272 9.332 0 6.182 1.171 9.333 3.312 9.333 2.222 0 3.07-4.04 3.07-9.575 0-4.767-.726-9.09-3.11-9.09M41.764.97h14.018v22.704l2.142.081-.243 10.383h-4l-.201-5.939H41.642l-.202 5.939H37.4l-.202-10.383 1.94-.08c.848-2.061 1.413-4.121 1.858-6.343.525-3.111.767-6.303.767-9.494zm4.847 4.605v3.151c0 3.111-.201 6.262-.646 9.171-.323 1.94-.808 4.04-1.373 5.697h5.938V5.575zM63.819.97h14.019v22.704l2.14.081-.242 10.383h-4l-.201-5.939H63.697l-.202 5.939h-4.04l-.202-10.383 1.939-.08c.848-2.061 1.414-4.121 1.858-6.343.525-3.111.768-6.303.768-9.494zm4.848 4.605v3.151c0 3.111-.202 6.262-.647 9.171-.323 1.94-.808 4.04-1.373 5.697h5.939V5.575zm25.779 6.262v4.404h-6.222v7.353h7.03v4.605H82.93V.97h11.838v4.606h-6.545v6.262zM98.83 28.2V1.374c1.495-.324 3.515-.526 5.535-.526 3.151 0 5.615.445 7.393 2.101 1.616 1.414 2.343 3.677 2.343 5.98 0 2.949-.889 5.009-2.303 6.544-1.696 1.778-4.444 2.586-6.625 2.586h-1.051v10.14zm5.292-22.866v8.403c.243.08.526.08.849.08 2.666 0 3.878-1.898 3.878-4.443 0-2.384-.969-4.242-3.434-4.242-.485 0-.969.08-1.293.202M114.603.97h5.98l5.009 11.716h.364V.97h4.807v11.716h.404L136.177.97h5.979l-7.312 12.443c3.717.687 5.009 4.444 5.737 7.757.525 2.343 1.01 4.767 1.818 7.03h-5.131c-.606-1.698-1.051-3.96-1.495-5.697-.606-2.586-1.535-5.858-4.525-5.858h-.485v11.554h-4.807V16.645h-.404c-3.03 0-3.959 3.272-4.606 5.858-.444 1.737-.848 4-1.495 5.696h-5.09c.808-2.262 1.333-4.686 1.818-7.03.727-3.312 2.02-7.07 5.737-7.756zm30.229 0h5.172v11.837h.404L154.852.97h5.817l-6.262 12.604c2.788 1.05 3.717 3.596 4.485 6.909.606 2.626 1.05 5.211 1.858 7.716h-5.292c-.647-1.939-1.051-4.161-1.495-6.302-.647-3.192-1.374-5.252-3.555-5.252h-.404v11.554h-5.172zm28.149 21.008h-4.888l-1.212 6.221h-5.131L167.648.97h6.343l5.293 27.23h-5.131zm-4.363-4.121h3.878l-.888-5.697c-.283-1.656-.647-4.363-.889-6.18h-.121c-.283 1.817-.687 4.645-.97 6.22zm37.216 10.342-.485-9.534c-.121-2.586-.323-6.1-.242-9.01h-.121a118 118 0 0 1-1.738 8.363l-2.343 9.737h-3.757l-2.263-9.575c-.525-2.182-1.252-5.575-1.656-8.524h-.121c-.081 2.949-.242 6.383-.404 9.09l-.445 9.453h-4.565l1.98-27.23h5.575l2.182 9.858c.767 3.434 1.454 6.464 1.939 9.535h.081c.404-3.03 1.01-6.1 1.737-9.535L203.329.97h5.575l1.657 27.23zM214.428.97h4.686v6.02c0 5.01-.323 9.696-.525 12.524h.081c.767-2.343 2.141-5.898 2.949-7.999l4-10.544h4.807V28.2h-4.646v-6.142c0-5.454.202-9.494.323-12.24h-.08c-.606 2.464-1.818 5.736-2.707 7.998l-4 10.383h-4.888zm20.713 0h5.171v11.838h.404L245.16.97h5.817l-6.262 12.604c2.788 1.05 3.717 3.596 4.485 6.909.606 2.626 1.05 5.211 1.858 7.716h-5.292c-.647-1.939-1.051-4.161-1.495-6.302-.646-3.192-1.374-5.252-3.555-5.252h-.404v11.554h-5.171zm18.345 27.23V1.374c1.495-.324 3.515-.526 5.535-.526 3.151 0 5.616.445 7.393 2.101 1.616 1.414 2.344 3.677 2.344 5.98 0 2.949-.889 5.009-2.303 6.544-1.697 1.778-4.444 2.586-6.626 2.586h-1.05v10.14zm5.293-22.866v8.403c.242.08.525.08.848.08 2.667 0 3.879-1.898 3.879-4.443 0-2.384-.97-4.242-3.434-4.242-.485 0-.97.08-1.293.202M279.586.646c6.585 0 8.444 7.232 8.444 13.454 0 10.261-3.636 14.422-8.808 14.422-6.181 0-8.605-6.544-8.605-14.018 0-7.434 2.949-13.858 8.969-13.858m-.202 4.606c-2.101 0-3.272 3.474-3.272 9.332 0 6.182 1.171 9.333 3.312 9.333 2.222 0 3.071-4.04 3.071-9.575 0-4.767-.727-9.09-3.111-9.09M298.713 0h4.646v2.06c4.889.647 8.605 4.485 8.605 12.322 0 8.363-3.757 11.878-8.605 12.565v2.222h-4.686v-2.222c-4.929-.727-8.605-4.202-8.605-12.443 0-8 4.403-11.797 8.645-12.444zm0 23.068V5.898c-1.616.485-3.353 2.667-3.353 8.686 0 5.616 1.697 8.12 3.353 8.484m4.606-17.17v17.17c1.777-.363 3.353-2.545 3.353-8.645 0-6.181-1.818-8.161-3.353-8.525M316.084.97h14.18V28.2h-5.292V5.574h-4.04v7.191c0 6.262-.404 11.757-3.838 14.423-1.01.808-2.303 1.333-3.636 1.333l-1.132-4.484c.647-.162 1.334-.485 1.818-.97 1.576-1.616 1.94-4.524 1.94-9.817zm26.509-.324c6.585 0 8.443 7.232 8.443 13.454 0 10.261-3.636 14.422-8.807 14.422-6.181 0-8.605-6.544-8.605-14.018 0-7.434 2.949-13.858 8.969-13.858m-.202 4.606c-2.101 0-3.273 3.474-3.273 9.332 0 6.182 1.172 9.333 3.313 9.333 2.222 0 3.07-4.04 3.07-9.575 0-4.767-.727-9.09-3.11-9.09m12.016 22.947V1.374c1.495-.324 3.515-.526 5.535-.526 3.151 0 5.616.445 7.393 2.101 1.616 1.414 2.344 3.677 2.344 5.98 0 2.949-.889 5.009-2.303 6.544-1.697 1.778-4.444 2.586-6.626 2.586h-1.05v10.14zM359.7 5.333v8.403c.242.08.525.08.848.08 2.667 0 3.879-1.898 3.879-4.443 0-2.384-.97-4.242-3.434-4.242-.485 0-.97.08-1.293.202M372.871.97h5.252v10.18a11 11 0 0 1 1.98-.161c4.848 0 8.282 3.232 8.282 8.201 0 2.747-.848 4.808-2.262 6.302-1.859 1.94-4.808 2.91-8.646 2.91-1.697 0-3.394-.122-4.606-.284zm5.293 14.382v8.726c.363.081.687.081.969.081 2.222 0 3.758-2.02 3.758-4.444 0-2.626-1.414-4.484-3.596-4.484-.364 0-.808.04-1.131.121M390.365.97h5.332V28.2h-5.332z"/></svg>