<svg xmlns="http://www.w3.org/2000/svg" fill="none" viewBox="0 0 209 68"><path fill="#fff" d="M9.043 3.496v1.045H3.271V3.496zm.908 0v14.219H8.838V3.496zm-7.07 0h1.113l-.303 6.582a55 55 0 0 1-.205 2.871 15 15 0 0 1-.361 2.158q-.225.899-.586 1.475-.35.576-.889.86-.527.273-1.279.273H0V16.67l.313-.01q.478-.02.83-.224.351-.205.595-.665.254-.458.41-1.22.166-.772.274-1.914.107-1.143.176-2.715zM19.41 16.67v1.045H12.77V16.67zM13.072 3.496v14.219h-1.114V3.496zm5.508 6.367v1.045H12.77V9.863zm.78-6.367v1.045H12.77V3.496zm2.321 0v14.219H20.56V3.496zm7.452 0-5.274 7.559h-2.627L21.116 10h2.08l4.541-6.504zm-1.026 14.219-4.931-6.807.634-1.064 5.674 7.87zm6.149-13.36-4.092 13.36h-1.152l4.521-14.219h.791zm3.682 13.36-4.102-13.36-.049-.859h.782l4.521 14.219zm-.645-5.02v1.045h-6.406v-1.045zm6.667-.761h-3.37v-1.045h3.37q1.045 0 1.689-.41.645-.42.938-1.124a4 4 0 0 0 .302-1.591q0-.87-.303-1.602a2.5 2.5 0 0 0-.937-1.172q-.645-.45-1.69-.449h-3.017v13.174H39.83V3.496h4.13q1.31 0 2.208.537a3.4 3.4 0 0 1 1.367 1.494q.468.957.469 2.217 0 1.309-.46 2.256a3.2 3.2 0 0 1-1.357 1.435q-.898.5-2.226.499m12.642 1.347h1.124q-.098 1.592-.645 2.617-.547 1.026-1.504 1.524-.947.498-2.275.498-1.026 0-1.846-.4a4 4 0 0 1-1.406-1.153q-.576-.762-.889-1.846-.303-1.084-.303-2.44V9.032q0-1.338.303-2.392.313-1.065.898-1.807a3.9 3.9 0 0 1 1.436-1.143q.84-.39 1.885-.39 1.29 0 2.226.488.948.488 1.485 1.514.537 1.024.635 2.646h-1.123q-.089-1.308-.47-2.1-.37-.79-1.054-1.142-.683-.36-1.7-.361-.82 0-1.454.322a2.9 2.9 0 0 0-1.065.918q-.429.595-.654 1.465-.225.86-.225 1.963v3.066q0 1.084.206 1.973.215.879.624 1.513.42.636 1.036.977.624.332 1.455.332 1.054 0 1.738-.332.693-.332 1.074-1.113.39-.792.488-2.149M62.9 3.496v14.219h-1.104V3.496zm4.053 0v1.045h-9.19V3.496zm5.045 7.383h-3.3l-.02-1.025h2.86q.86 0 1.456-.303.606-.303.918-.899.322-.595.322-1.464 0-.9-.312-1.485a1.9 1.9 0 0 0-.928-.869q-.615-.293-1.553-.293h-2.47v13.174h-1.114V3.496h3.584q.91 0 1.631.225.733.215 1.24.674.508.449.772 1.152.273.703.273 1.67 0 .879-.341 1.582a3.06 3.06 0 0 1-.958 1.152q-.605.45-1.445.557zm-.078 6.836h-3.604l.596-1.045h3.008q.858 0 1.465-.352.605-.361.927-1.015.332-.664.332-1.582 0-.801-.283-1.446a2.24 2.24 0 0 0-.869-1.015q-.586-.381-1.494-.381h-2.129l.02-1.025h2.978l.215.37q.82.099 1.416.586.605.49.937 1.24.332.753.332 1.651 0 1.299-.488 2.197a3.34 3.34 0 0 1-1.348 1.358q-.86.459-2.011.459M84.63 16.67v1.045h-6.64V16.67zM78.292 3.496v14.219H77.18V3.496zM83.8 9.863v1.045h-5.81V9.863zm.781-6.367v1.045H77.99V3.496zm9.137 6.367v1.045h-7.1V9.863zm-6.865-6.367v14.219H85.74V3.496zm7.793 0v14.219h-1.123V3.496zm9.977 6.367v1.045h-7.1V9.863zm-6.865-6.367v14.219h-1.114V3.496zm7.793 0v14.219h-1.123V3.496zm2.779 6.152h3.301q1.299 0 2.178.508.888.498 1.338 1.406.449.9.449 2.1a4.9 4.9 0 0 1-.264 1.64q-.254.743-.752 1.28a3.4 3.4 0 0 1-1.24.84q-.742.293-1.709.293h-4.062V3.496h1.123V16.67h2.939q1.007 0 1.641-.42t.918-1.113q.293-.694.293-1.494a3.6 3.6 0 0 0-.293-1.456 2.36 2.36 0 0 0-.918-1.083q-.634-.41-1.641-.41h-3.301zm10.264-6.152v14.219h-1.123V3.496zm3.219 12.1 6.631-12.1h1.104v14.219h-1.104V5.595l-6.631 12.12H120.7V3.496h1.113zM127.009 0h.996q0 .742-.342 1.309a2.3 2.3 0 0 1-.967.888q-.625.323-1.504.323-1.318 0-2.08-.704-.752-.703-.752-1.816h1.006q0 .675.41 1.172.411.488 1.416.488.977 0 1.397-.498.42-.499.42-1.162m16.565 3.496v14.219h-1.123V4.54h-6.592v13.174h-1.123V3.496zm6.158 8.438h-3.369v-1.045h3.369q1.045 0 1.69-.41.645-.42.937-1.124a4 4 0 0 0 .303-1.591 4.2 4.2 0 0 0-.303-1.602 2.5 2.5 0 0 0-.937-1.172q-.645-.45-1.69-.449h-3.017v13.174h-1.113V3.496h4.13q1.309 0 2.207.537a3.4 3.4 0 0 1 1.368 1.494q.468.957.468 2.217 0 1.309-.459 2.256a3.2 3.2 0 0 1-1.357 1.435q-.898.5-2.227.499m12.702 4.736v1.045h-6.641V16.67zm-6.338-13.174v14.219h-1.113V3.496zm5.508 6.367v1.045h-5.811V9.863zm.781-6.367v1.045h-6.592V3.496zm10.036 0v14.219h-1.123V4.54h-6.592v13.174h-1.123V3.496zm6.031.86-4.091 13.359h-1.153l4.522-14.219h.791zm3.682 13.359-4.102-13.36-.048-.859h.781l4.521 14.219zm-.645-5.02v1.045h-6.406v-1.045zm6.667-.761h-3.369v-1.045h3.369q1.045 0 1.689-.41.644-.42.938-1.124a4 4 0 0 0 .303-1.591 4.2 4.2 0 0 0-.303-1.602 2.52 2.52 0 0 0-.938-1.172q-.644-.45-1.689-.449h-3.018v13.174h-1.113V3.496h4.131q1.308 0 2.207.537a3.4 3.4 0 0 1 1.367 1.494q.47.957.469 2.217 0 1.309-.459 2.256a3.22 3.22 0 0 1-1.358 1.435q-.898.5-2.226.499m7.906-7.579-4.091 13.36h-1.153l4.522-14.219h.791zm3.682 13.36-4.101-13.36-.049-.859h.781l4.521 14.219zm-.644-5.02v1.045h-6.407v-1.045zm5.338-9.199v14.219h-1.104V3.496zm4.053 0v1.045h-9.19V3.496zm-1.488 13.496q0-.342.215-.586t.605-.244.615.244.225.586a.8.8 0 0 1-.225.576q-.224.235-.615.235-.39 0-.605-.235a.82.82 0 0 1-.215-.576M10.029 26.496v14.219H8.906V27.54H2.314v13.174H1.191V26.496zm9.48 13.174v1.045h-6.641V39.67zM13.17 26.496v14.219h-1.113V26.496zm5.508 6.367v1.045h-5.81v-1.045zm.781-6.367v1.045h-6.591v-1.045zm5.29 8.438h-3.37v-1.045h3.37q1.044 0 1.69-.41.643-.42.937-1.123a4 4 0 0 0 .302-1.592q0-.87-.302-1.602a2.5 2.5 0 0 0-.938-1.172q-.645-.45-1.69-.449h-3.017v13.174h-1.113V26.496h4.13q1.31 0 2.208.537a3.4 3.4 0 0 1 1.367 1.494q.47.957.469 2.217 0 1.308-.46 2.256a3.22 3.22 0 0 1-1.357 1.435q-.898.5-2.226.499M37.45 39.67v1.045h-6.64V39.67zm-6.338-13.174v14.219H30V26.496zm5.508 6.367v1.045h-5.81v-1.045zm.782-6.367v1.045H30.81v-1.045zM47.828 39.67v1.045H38.51V39.67zm-9.092 0v4.502h-1.113V39.67zm10.039 0v4.492h-1.113V39.67zm-2.227-13.174v1.045h-5.39v-1.045zm.909 0v14.219h-1.114V26.496zm-6.7 0h1.104l-.195 5.147a25 25 0 0 1-.235 2.548q-.165 1.173-.41 2.149-.234.966-.537 1.728a8.6 8.6 0 0 1-.625 1.319q-.323.546-.654.888-.323.333-.635.44h-.635V39.67h.518q.204-.245.508-.8.313-.558.634-1.505.333-.956.586-2.363.264-1.416.352-3.36zm21.029 0v14.219h-1.123V27.54H54.07v13.174h-1.123V26.496zm6.158 8.438h-3.369v-1.045h3.37q1.044 0 1.689-.41.645-.42.937-1.123a4 4 0 0 0 .303-1.592q0-.87-.303-1.602a2.5 2.5 0 0 0-.937-1.172q-.645-.45-1.69-.449h-3.017v13.174h-1.114V26.496h4.131q1.309 0 2.207.537a3.4 3.4 0 0 1 1.367 1.494q.47.957.47 2.217 0 1.308-.46 2.256a3.2 3.2 0 0 1-1.357 1.435q-.899.5-2.227.499m6.403 3.662 6.63-12.1h1.104v14.219h-1.103v-12.12l-6.631 12.12h-1.113V26.496h1.113zm10.133-12.1h1.123l4.307 12.5 4.326-12.5h1.103l-4.99 14.219h-.86zm-.342 0h.977l.137 8.027v6.192h-1.114zm10.586 0h.986v14.219h-1.113v-6.192zM105.15 39.67v1.045h-6.64V39.67zm-6.338-13.174v14.219H97.7V26.496zm5.508 6.367v1.045h-5.81v-1.045zm.782-6.367v1.045H98.51v-1.045zm9.137 6.367v1.045h-7.1v-1.045zm-6.866-6.367v14.219h-1.113V26.496zm7.793 0v14.219h-1.123V26.496zm9.45 13.174v1.045h-6.641V39.67zm-6.338-13.174v14.219h-1.113V26.496zm5.508 6.367v1.045h-5.811v-1.045zm.781-6.367v1.045h-6.592v-1.045zm9.137 6.367v1.045h-7.099v-1.045zm-6.865-6.367v14.219h-1.113V26.496zm7.793 0v14.219h-1.123V26.496zm3.151 12.1 6.631-12.1h1.103v14.219h-1.103v-12.12l-6.631 12.12h-1.113V26.496h1.113zm17.242 1.074v1.045h-6.64V39.67zm-6.337-13.174v14.219h-1.114V26.496zm5.507 6.367v1.045h-5.81v-1.045zm.782-6.367v1.045h-6.592v-1.045zm1.5 0h1.123l4.307 12.5 4.326-12.5h1.103l-4.99 14.219h-.859zm-.342 0h.977l.136 8.027v6.192h-1.113zm10.586 0h.986v14.219h-1.113v-6.192zm-156.692 23v14.219H8.906V50.54H2.314v13.174H1.191V49.496zm6.159 8.438h-3.37v-1.045h3.37q1.045 0 1.69-.41.643-.42.937-1.123a4 4 0 0 0 .303-1.592q0-.87-.303-1.602a2.5 2.5 0 0 0-.938-1.172q-.644-.45-1.69-.449H13.17v13.174h-1.113V49.496h4.13q1.31 0 2.208.537a3.4 3.4 0 0 1 1.367 1.494q.47.957.469 2.217 0 1.309-.46 2.256a3.22 3.22 0 0 1-1.357 1.435q-.898.5-2.226.499m14.05-2.862v3.076q0 1.416-.323 2.5-.313 1.075-.908 1.797-.587.723-1.436 1.104-.849.37-1.914.37-1.055 0-1.904-.37a4.05 4.05 0 0 1-1.446-1.104q-.605-.721-.937-1.797-.322-1.084-.322-2.5v-3.076q0-1.406.322-2.49t.918-1.807a3.95 3.95 0 0 1 1.445-1.093q.85-.381 1.904-.381 1.065 0 1.915.38a3.9 3.9 0 0 1 1.455 1.094q.605.723.918 1.807.312 1.084.312 2.49m-1.104 3.076v-3.095q0-1.172-.235-2.041-.224-.88-.664-1.465a2.76 2.76 0 0 0-1.094-.879q-.654-.293-1.503-.293a3.6 3.6 0 0 0-1.475.293 2.85 2.85 0 0 0-1.094.879q-.439.585-.674 1.465-.234.87-.234 2.04v3.096q0 1.182.234 2.061.235.87.684 1.465.46.585 1.103.879.655.293 1.475.293.849 0 1.494-.293.654-.293 1.094-.88.44-.595.664-1.464.225-.88.225-2.06m2.594-8.652h1.113v3.945q0 1.23.322 1.963.333.733.967 1.055.644.322 1.592.322.468 0 .928-.049.459-.049.898-.136.45-.088.879-.215.44-.128.87-.283v1.054q-.411.148-.821.274-.41.117-.85.215-.43.087-.908.136a10 10 0 0 1-.996.05q-1.26 0-2.158-.43-.889-.43-1.367-1.397-.47-.967-.47-2.559zm7.226 0h1.104v14.219h-1.104zm4.274 12.1 6.631-12.1h1.103v14.219H49.86v-12.12l-6.63 12.12h-1.114V49.496h1.113zm13.57-12.1v14.219h-1.103V49.496zm4.054 0v1.045h-9.19v-1.045zm4.127.86-4.092 13.359h-1.152l4.521-14.219h.791zm3.682 13.359-4.102-13.36-.049-.859h.781l4.522 14.219zm-.645-5.02v1.045H61.61v-1.045zm3.688 2.9 6.63-12.099h1.104v14.219h-1.103v-12.12l-6.631 12.12H70.59V49.496h1.113zM76.899 46h.996q0 .742-.341 1.309a2.3 2.3 0 0 1-.967.888q-.625.322-1.504.322-1.32 0-2.08-.703-.752-.703-.752-1.816h1.006q0 .675.41 1.172.41.488 1.416.488.975 0 1.396-.498.42-.499.42-1.162m8.669 3.496v14.219h-1.104V49.496zm4.052 0v1.045h-9.19v-1.045zm8.356 13.174v1.045h-6.64V62.67zm-6.338-13.174v14.219h-1.113V49.496zm5.508 6.367v1.045h-5.81v-1.045zm.781-6.367v1.045h-6.592v-1.045zm5.403 12.1 6.631-12.1h1.104v14.219h-1.104v-12.12l-6.631 12.12h-1.113V49.496h1.113zm17.77-5.733v1.045h-7.099v-1.045zm-6.865-6.367v14.219h-1.113V49.496zm7.793 0v14.219h-1.123V49.496zm9.391 9.785h1.123q-.098 1.592-.644 2.617-.547 1.026-1.504 1.524-.947.498-2.276.498-1.025 0-1.845-.4a4 4 0 0 1-1.407-1.153q-.576-.762-.888-1.845-.303-1.084-.303-2.442v-3.047q0-1.338.303-2.392.313-1.065.898-1.807a3.9 3.9 0 0 1 1.436-1.143q.84-.39 1.884-.39 1.29 0 2.227.488.947.489 1.484 1.514t.635 2.646h-1.123q-.087-1.308-.469-2.1-.371-.79-1.054-1.142-.684-.36-1.7-.361-.819 0-1.455.322a2.9 2.9 0 0 0-1.064.918q-.43.595-.654 1.465-.225.86-.225 1.963v3.066q0 1.084.205 1.973.215.879.625 1.513.42.636 1.035.977.626.332 1.455.332 1.055 0 1.739-.332.693-.332 1.074-1.113.39-.792.488-2.149m6.295-9.785v14.219h-1.103V49.496zm4.053 0v1.045h-9.189v-1.045zm5.036 8.438h-3.369v-1.045h3.369q1.044 0 1.689-.41.644-.42.938-1.123a4 4 0 0 0 .302-1.592q0-.87-.302-1.602a2.52 2.52 0 0 0-.938-1.172q-.645-.45-1.689-.449h-3.018v13.174h-1.113V49.496h4.131q1.308 0 2.207.537a3.4 3.4 0 0 1 1.367 1.494q.469.957.469 2.217 0 1.309-.459 2.256a3.22 3.22 0 0 1-1.358 1.435q-.899.5-2.226.499m9.078 1.006 3.448-9.444h1.308l-4.502 11.777q-.175.42-.39.89a4 4 0 0 1-.547.859 2.55 2.55 0 0 1-.801.654q-.478.244-1.162.244-.185 0-.44-.04a1.5 1.5 0 0 1-.341-.068l.078-1.005q.107.03.332.048.234.02.371.02.517 0 .849-.264.342-.273.567-.703.234-.43.42-.908zm-3.564-9.444 3.887 9.365.322 1.094-.957.205-4.522-10.664zm10.436 0v14.219h-1.123V49.496zm7.451 0-5.274 7.559h-2.626L162.186 56h2.08l4.541-6.504zm-1.025 14.219-4.932-6.807.635-1.064 5.673 7.87zm12.135-1.065-.088 4.493h-1.016v-3.428h-1.181V62.65zm-10.02 1.065V49.496h1.123V62.67h6.592V49.496h1.123v14.219zm12.223-2.12 6.631-12.099h1.104v14.219h-1.104v-12.12l-6.631 12.12h-1.113V49.496h1.113zm11.09-12.099v14.219h-1.123V49.496zm2.852 6.523v1.016h-2.979V56.02zm8.535-.947v3.076q0 1.416-.322 2.5-.312 1.075-.908 1.797-.595.723-1.446 1.104-.849.37-1.914.37-1.044 0-1.894-.37a4 4 0 0 1-1.455-1.104q-.606-.721-.938-1.797-.322-1.084-.322-2.5v-3.076q0-1.406.322-2.49.323-1.084.918-1.807a3.9 3.9 0 0 1 1.455-1.093q.85-.381 1.895-.381 1.074 0 1.924.38a3.84 3.84 0 0 1 1.445 1.094q.595.723.918 1.807.322 1.084.322 2.49m-1.113 3.076v-3.095q0-1.172-.235-2.041-.224-.88-.664-1.465a2.76 2.76 0 0 0-1.093-.879q-.655-.293-1.504-.293a3.6 3.6 0 0 0-1.485.293 2.8 2.8 0 0 0-1.084.879q-.44.585-.673 1.465-.235.87-.235 2.04v3.096q0 1.182.225 2.061.234.87.693 1.465.459.585 1.104.879.644.293 1.474.293.85 0 1.494-.293a2.75 2.75 0 0 0 1.094-.88q.44-.595.664-1.464.225-.88.225-2.06m2.389 4.844q0-.342.215-.586t.605-.244q.391 0 .615.244.225.244.225.586a.8.8 0 0 1-.225.576q-.224.235-.615.235-.39 0-.605-.235a.82.82 0 0 1-.215-.576"/></svg>