<svg xmlns="http://www.w3.org/2000/svg" fill="none" viewBox="0 0 256 89"><path fill="#fff" d="M2.32.371h6.078V12.9h6.357V.371h6.079v31.274h-6.079V18.56H8.398v13.085H2.32zM36.779 24.5h-5.615l-1.392 7.146H23.88L30.654.37h7.285l6.078 31.274h-5.893zm-5.011-4.733h4.454l-1.02-6.542c-.325-1.902-.743-5.011-1.021-7.1h-.14c-.324 2.089-.788 5.337-1.113 7.146zm15.306-13.27L46.053 1.81C47.398.882 49.997 0 52.966 0c5.94 0 8.724 3.62 8.724 7.702 0 3.202-2.135 6.31-5.29 7.1v.092c3.666.743 6.218 3.527 6.218 7.842 0 5.986-5.105 9.28-10.719 9.28-2.598 0-4.872-.603-6.31-1.392l.881-4.965c1.346.789 3.11 1.253 4.826 1.253 3.248 0 4.965-1.856 4.965-4.362 0-3.48-2.877-4.872-6.172-4.872h-.881v-4.593h.603c2.784 0 5.568-1.346 5.568-4.223 0-2.18-1.346-3.665-3.944-3.665-1.438 0-3.155.603-4.361 1.299M66.3.371h6.079V12.9h6.357V.371h6.078v31.274h-6.078V18.56H72.38v13.085H66.3zM100.76 24.5h-5.614l-1.392 7.146H87.86L94.635.37h7.285l6.079 31.274h-5.893zm-5.011-4.733h4.454l-1.02-6.542c-.325-1.902-.743-5.011-1.021-7.1h-.14c-.324 2.089-.788 5.337-1.113 7.146zM111.201.371h5.985v10.394c0 2.552.975 4.361 3.434 4.361.881 0 1.902-.278 2.505-.65V.372h5.986v31.274h-5.986V19.163h-.139c-1.438.65-2.83 1.067-4.454 1.067-5.383 0-7.331-3.619-7.331-8.77zm23.296 0h5.382v6.914c0 5.753-.371 11.136-.603 14.384h.093c.881-2.691 2.459-6.775 3.387-9.187l4.593-12.11h5.522v31.273h-5.336v-7.053c0-6.264.232-10.904.371-14.06h-.093c-.696 2.831-2.088 6.59-3.108 9.188l-4.594 11.925h-5.614zm24.995 0h16.286v31.274H169.7V5.66h-4.64v8.259c0 7.192-.464 13.502-4.408 16.565-1.16.928-2.645 1.531-4.176 1.531l-1.299-5.15c.742-.186 1.531-.557 2.088-1.114 1.809-1.856 2.227-5.197 2.227-11.275zm21.676 0h5.383v6.914c0 5.753-.371 11.136-.603 14.384h.092c.882-2.691 2.46-6.775 3.388-9.187l4.593-12.11h5.522v31.273h-5.336v-7.053c0-6.264.232-10.904.371-14.06h-.093c-.696 2.831-2.088 6.59-3.109 9.188l-4.593 11.925h-5.615zM12.899 80.5H7.285l-1.392 7.146H0L6.774 56.37h7.285l6.079 31.274h-5.893zm-5.011-4.733h4.454l-1.02-6.542c-.325-1.902-.743-5.011-1.021-7.1h-.14c-.324 2.089-.788 5.337-1.113 7.146zm15.684-19.395h6.078V68.9h6.357V56.371h6.078v31.274h-6.078V74.56H29.65v13.085h-6.078zm27.267 31.274v-25.66h-5.522v-5.614h17.168v5.615h-5.568v25.659zM65.667 56.37h5.382v6.914c0 5.753-.37 11.136-.603 14.384h.093c.882-2.691 2.46-6.775 3.387-9.187l4.594-12.11h5.521v31.273h-5.336v-7.053c0-6.264.232-10.904.371-14.06h-.092c-.696 2.831-2.088 6.59-3.11 9.188l-4.593 11.925h-5.614zm23.789 0h15.962v5.197h-9.93v6.542c.882-.185 1.578-.232 2.46-.232 2.69 0 5.057.836 6.774 2.32 1.856 1.624 2.969 4.084 2.969 7.239 0 3.016-.928 5.429-2.598 7.099-2.135 2.274-5.475 3.34-9.976 3.34-2.32 0-4.269-.138-5.661-.324zm6.078 16.519v10.022c.418.093.836.093 1.346.093 1.438 0 2.598-.557 3.341-1.485.789-.928 1.16-2.227 1.16-3.62 0-1.438-.418-2.737-1.207-3.618-.788-.928-1.902-1.532-3.248-1.532q-.765 0-1.392.14m15.808-16.519h5.382v6.914c0 5.753-.371 11.136-.603 14.384h.093c.881-2.691 2.459-6.775 3.387-9.187l4.594-12.11h5.521v31.273h-5.336v-7.053c0-6.264.232-10.904.371-14.06h-.092c-.696 2.831-2.088 6.59-3.109 9.188l-4.594 11.925h-5.614zM143.901 56c7.563 0 9.697 8.306 9.697 15.451 0 11.786-4.176 16.565-10.115 16.565-7.099 0-9.883-7.517-9.883-16.1 0-8.538 3.387-15.916 10.301-15.916m-.232 5.29c-2.413 0-3.759 3.99-3.759 10.718 0 7.1 1.346 10.718 3.805 10.718 2.552 0 3.526-4.64 3.526-10.996 0-5.476-.835-10.44-3.572-10.44m16.554 26.355v-25.66h-5.522v-5.614h17.168v5.615h-5.568v25.659zm14.828-31.274h5.383v6.914c0 5.753-.372 11.136-.604 14.384h.093c.882-2.691 2.459-6.775 3.387-9.187l4.594-12.11h5.522v31.273h-5.336v-7.053c0-6.264.232-10.904.371-14.06h-.093c-.696 2.831-2.088 6.59-3.109 9.188l-4.593 11.925h-5.615zm23.789 0h5.94v13.595h.464l5.104-13.595h6.681l-7.192 14.477c3.202 1.206 4.269 4.13 5.151 7.934.696 3.016 1.206 5.986 2.134 8.863h-6.078c-.743-2.227-1.207-4.78-1.717-7.239-.743-3.665-1.578-6.032-4.083-6.032h-.464v13.27h-5.94zm21.071 0h5.382v6.914c0 5.753-.371 11.136-.603 14.384h.093c.881-2.691 2.459-6.775 3.387-9.187l4.593-12.11h5.522v31.273h-5.336v-7.053c0-6.264.232-10.904.371-14.06h-.093c-.696 2.831-2.088 6.59-3.108 9.188l-4.594 11.925h-5.614zm30.331 21.623h-5.15l-.093-.836c-.325-2.737.742-5.196 2.459-7.888 1.346-1.995 1.995-3.387 1.995-5.15 0-1.717-1.16-2.877-3.062-2.877-1.021 0-2.088.186-2.97.835l-1.02-4.686c.974-.65 3.155-1.392 5.428-1.392 6.125 0 7.842 4.037 7.842 7.146 0 3.201-1.81 5.8-3.434 8.166-1.252 1.902-2.041 3.526-1.995 5.707zm-2.505 10.022c-1.996 0-3.48-1.578-3.48-3.712 0-2.274 1.624-3.758 3.433-3.805 1.995 0 3.48 1.531 3.48 3.805 0 2.134-1.299 3.712-3.433 3.712"/></svg>