<svg xmlns="http://www.w3.org/2000/svg" fill="none" viewBox="0 0 100 14"><g clip-path="url(#a)"><path fill="#fff" d="M.263 11.274 1.94 9.373c.789 1.148 1.774 1.679 2.78 1.679.923 0 1.474-.499 1.474-1.303s-.52-1.184-1.926-1.783C2.273 7.162.848 6.251.848 4.109S2.642.269 5.125.269c1.81 0 3.083.686 4.006 1.733L7.52 4.026c-.52-.685-1.242-1.13-2.178-1.13-.772 0-1.323.427-1.323 1.062s.604.962 2.063 1.579c2.111.84 3.3 1.902 3.3 4.097 0 2.451-1.876 4.03-4.458 4.03-2.213 0-3.788-.994-4.657-2.383zm23.91 2.16-.821-2.45h-4.627l-.87 2.45h-3.317L19.715.51h2.798l5.11 12.928h-3.45zM19.58 8.565h2.95l-.621-1.851a85 85 0 0 1-.803-2.537q-.402 1.26-.856 2.519zm33.852 4.87V.51h3.62c4.29 0 7.288 2.16 7.288 6.462s-2.95 6.462-7.088 6.462zm3.1-2.796h.67c2.378 0 3.957-1.27 3.957-3.667s-1.34-3.585-3.956-3.585h-.67zm13.472-3.685c0-3.821 3.083-6.67 6.804-6.67 3.704 0 6.77 2.827 6.77 6.702s-3.084 6.67-6.822 6.67c-3.74 0-6.752-2.69-6.752-6.702m10.375.036c0-2.124-1.526-3.771-3.585-3.771-2.027 0-3.584 1.661-3.584 3.753 0 2.21 1.624 3.753 3.553 3.753 2.062 0 3.62-1.593 3.62-3.739zM99.68.51h-9.975v2.813h4.876l-5.935 10.115h10.676v-2.863h-5.53zM42.455 13.434h2.933V.51h-2.932v8.235L36.542.51h-2.998v12.928h2.998V5.203l5.917 8.235z"/></g><defs><clipPath id="a"><rect width="100" height="14" fill="#fff"/></clipPath></defs></svg>