<svg xmlns="http://www.w3.org/2000/svg" fill="none" viewBox="0 0 432 78"><path fill="#fff" d="M6.107 11.37h-4.52c-.448 0-.759-.068-.897-.206q-.207-.208-.207-.828V7.748c0-.414.069-.724.207-.862.138-.139.414-.208.897-.208h14.87c.448 0 .758.07.896.208s.207.448.207.862v2.587c0 .414-.103.69-.241.829-.138.138-.448.207-.863.207h-4.519v16.525c0 .448-.103.759-.242.897q-.258.207-1.034.207H7.383q-.828 0-1.035-.207c-.172-.138-.242-.448-.242-.897zm16.288 7.832v2.691c0 1.345.207 2.208.62 2.622.311.345.794.483 1.45.483h.138c.62 0 1.104-.138 1.449-.483.414-.414.62-1.277.62-2.622v-2.691c0-1.311-.206-2.208-.62-2.622-.345-.31-.828-.483-1.45-.483h-.137c-.656 0-1.139.172-1.45.483-.413.414-.62 1.311-.62 2.622m9.832.207v2.242c0 1.726-.172 3.037-.517 4.003-.345.965-.897 1.724-1.656 2.311-1.139.897-2.898 1.346-5.313 1.346h-.414c-2.415 0-4.21-.449-5.313-1.346-.76-.587-1.311-1.346-1.656-2.311-.345-.966-.518-2.277-.518-4.003v-2.207c0-1.691.173-3.002.518-3.968a5.2 5.2 0 0 1 1.656-2.346c1.104-.897 2.898-1.346 5.313-1.346h.414c2.415 0 4.174.449 5.313 1.346a5.3 5.3 0 0 1 1.656 2.311c.345.966.517 2.277.517 3.968m7.198-5.83c1.207-1.174 2.932-1.795 5.14-1.795h.31c2.14 0 3.658.621 4.59 1.794.827 1.104 1.241 2.968 1.241 5.659v2.587c0 1.449-.138 2.656-.345 3.553-.241.898-.655 1.657-1.242 2.243-1.173 1.139-2.76 1.69-4.83 1.69h-.38q-1.965 0-3.208-.724v5.313c0 .517-.103.862-.276 1-.207.139-.586.207-1.173.207H36.63c-.586 0-.966-.069-1.173-.241-.207-.138-.276-.483-.276-.966v-20.7c0-.414.07-.69.276-.863.173-.138.483-.241.932-.241h1.449c.414 0 .724.069.897.138.138.103.276.31.38.586l.24.76zm1.276 4.898v4.416c0 .794.138 1.346.483 1.656.31.311.828.449 1.553.449h.31c.794 0 1.346-.207 1.69-.69q.415-.622.415-3.001v-1.484c0-1.656-.138-2.691-.414-3.07-.345-.415-.897-.622-1.725-.622h-.242c-.759 0-1.276.173-1.621.518-.31.31-.449.931-.449 1.828m17.98.725v2.691c0 1.345.207 2.208.62 2.622.311.345.794.483 1.45.483h.138c.62 0 1.103-.138 1.448-.483.414-.414.621-1.277.621-2.622v-2.691c0-1.311-.206-2.208-.62-2.622-.346-.31-.828-.483-1.45-.483h-.137c-.656 0-1.139.172-1.45.483-.413.414-.62 1.311-.62 2.622m9.832.207v2.242c0 1.726-.172 3.037-.517 4.003-.346.965-.897 1.724-1.656 2.311-1.139.897-2.899 1.346-5.314 1.346h-.414c-2.415 0-4.209-.449-5.312-1.346-.76-.587-1.311-1.346-1.656-2.311-.346-.966-.518-2.277-.518-4.003v-2.207c0-1.691.172-3.002.518-3.968A5.2 5.2 0 0 1 55.3 13.13c1.104-.897 2.898-1.346 5.313-1.346h.413c2.415 0 4.175.449 5.313 1.346a5.3 5.3 0 0 1 1.657 2.311c.345.966.517 2.277.517 3.968m11.786-6.486h2.967c.483 0 .828.069 1 .207s.311.414.38.828c0 .138.621 3.208 1.829 9.177h.103c.621-3.623 1.173-6.969 1.621-10.074.035-.38.139-.621.276-.759q.208-.207.725-.207h3.519c.38 0 .621.103.759.241.104.173.138.449.069.794-.552 2.691-1.242 5.658-2.001 8.901s-1.311 5.279-1.656 6.141c-.138.345-.31.587-.483.69-.172.104-.448.138-.793.138h-3.796c-.724 0-1.172-.241-1.31-.794-.656-2.346-1.208-5.312-1.691-8.9h-.138a95 95 0 0 1-1.725 8.9c-.138.553-.552.794-1.242.794h-3.726c-.69 0-1.139-.241-1.311-.759-.345-.931-.931-3.07-1.76-6.382a160 160 0 0 1-1.931-8.729c-.104-.38-.07-.655.069-.794.138-.138.413-.241.828-.241h3.38c.346 0 .621.069.794.207.138.138.241.414.31.759a293 293 0 0 0 1.691 10.074h.138c.828-4.278 1.415-7.349 1.69-9.177.07-.449.173-.725.346-.863.172-.103.517-.172 1.069-.172m23.502 11.937h.38c1.173 0 2.415-.138 3.657-.448.345-.07.552-.104.655-.104.345 0 .552.207.621.587l.276 1.724c.069.483.138.794.138.932 0 .414-.31.725-.897.932-1.587.552-3.346.828-5.209.828h-.656q-4.243 0-6.003-1.76a4.95 4.95 0 0 1-1.38-2.346c-.241-.897-.345-2.104-.345-3.588v-1.932c0-3.001.69-5.106 2.07-6.348 1.173-1.035 2.967-1.553 5.417-1.553h.483c2.415 0 4.174.587 5.209 1.725 1.104 1.242 1.656 3.278 1.656 6.176v1.794c0 .656-.345.966-1 .966h-8.28v.276c0 .828.207 1.38.69 1.69.448.311 1.276.449 2.518.449m-3.208-6.003h3.795c.276 0 .414-.138.414-.448v-.552c0-.69-.138-1.208-.345-1.587-.276-.415-.828-.621-1.587-.621h-.311c-.69 0-1.173.172-1.449.482q-.517.622-.517 1.863zm25.213 3.45V28c0 .345-.104.62-.276.759-.173.172-.483.241-.897.241h-3.174c-.449 0-.759-.069-.932-.241-.172-.139-.241-.415-.241-.76V6.645c0-.345.069-.586.241-.759.173-.138.483-.241.932-.241h3.174c.414 0 .724.103.897.241.172.173.276.414.276.759v11.247h.241l3.278-5.002c.31-.518.793-.794 1.449-.794h4.002c.379 0 .586.138.586.414 0 .138-.103.38-.276.656l-3.967 5.934c-.311.482-.449.828-.449 1.035 0 .241.138.586.449 1.035l4.243 6.692c.138.276.207.449.207.587 0 .38-.241.552-.724.552h-3.83c-.483 0-.862-.035-1.069-.172q-.31-.155-.621-.725l-3.278-5.796zm20.601.518v-9.73c0-.344.069-.586.242-.759.172-.138.483-.241.931-.241h3.174c.414 0 .725.103.897.241.173.173.276.415.276.76v10.212q0 3.156-1.552 4.554c-1.104.966-3.036 1.449-5.865 1.449s-4.796-.483-5.865-1.45q-1.553-1.397-1.553-4.553V13.096c0-.345.069-.587.242-.76.172-.138.483-.241.931-.241h3.174c.414 0 .725.103.897.241.173.173.276.415.276.76v9.729c0 .793.104 1.31.38 1.587.276.31.759.448 1.518.448.724 0 1.242-.138 1.518-.448.241-.276.379-.794.379-1.587m13.13-8.867h.104c.759-1.242 2.035-1.863 3.864-1.863h1.38c.345 0 .621.069.759.207s.241.38.241.759v2.518c0 .38-.069.622-.207.76q-.207.207-.724.207h-1.035c-1.277 0-2.139.241-2.622.724-.414.414-.587 1.207-.587 2.38V28c0 .345-.103.62-.276.759-.172.172-.483.241-.897.241h-3.174c-.448 0-.759-.069-.931-.241-.173-.139-.242-.415-.242-.76V13.062c0-.345.069-.586.242-.725.172-.138.483-.241.931-.241h1.656c.38 0 .656.069.828.172q.26.208.414.622zm7.94 3.691v-.448c0-1.69.449-2.967 1.346-3.864 1.035-1.035 2.794-1.553 5.244-1.553h.345c1.932 0 3.622.207 5.037.621q.414.156.517.311c.069.138.104.31.069.587l-.379 2.828c-.069.449-.38.587-.932.449-1.38-.31-2.622-.483-3.657-.483h-.034c-.759 0-1.311.069-1.587.207-.311.138-.449.38-.449.725v.103c0 .345.104.586.38.724s.793.311 1.587.449l1.621.345c1.484.345 2.553.863 3.174 1.553s.932 1.759.932 3.174v.517c0 3.623-2.277 5.417-6.762 5.417h-.345c-2.277 0-4.175-.311-5.762-.932-.31-.104-.517-.242-.586-.414-.069-.138-.069-.414 0-.793l.483-2.277c.103-.656.483-.863 1.173-.656 1.587.552 2.967.793 4.14.793h.103c.759 0 1.277-.069 1.587-.241.276-.138.449-.414.449-.794v-.103a.74.74 0 0 0-.38-.655q-.414-.208-1.656-.518l-1.518-.345q-2.277-.518-3.208-1.553c-.621-.69-.932-1.724-.932-3.174m30.709-4.519c-.483 3.243-1.38 6.831-2.691 10.798-1.345 3.968-2.967 7.729-4.864 11.247-.242.483-.552.725-.966.725-.276 0-.587-.069-1.001-.276l-1.759-.759c-.621-.276-.897-.552-.897-.863 0-.138.034-.345.172-.586 1.173-2.38 1.863-3.76 2.001-4.14-.966-.345-1.69-1.104-2.242-2.346-.621-1.38-1.346-3.485-2.139-6.382q-1.19-4.347-1.76-7.452c-.069-.345-.034-.587.138-.76.173-.138.483-.241.897-.241h3.14c.379 0 .655.069.828.172.172.104.31.311.379.656.794 4.347 1.691 8.211 2.691 11.558h.173c.966-2.76 1.863-6.556 2.691-11.455q.052-.517.31-.724c.173-.138.449-.207.794-.207h3.174c.379 0 .655.103.793.241.138.139.173.415.138.794m18.327-.207h2.967c.483 0 .828.069 1.001.207s.31.414.379.828c0 .138.621 3.208 1.829 9.177h.103c.621-3.623 1.173-6.969 1.622-10.074.034-.38.138-.621.276-.759q.207-.207.724-.207h3.519c.38 0 .621.103.759.241.104.173.138.449.069.794-.552 2.691-1.242 5.658-2.001 8.901s-1.311 5.279-1.656 6.141c-.138.345-.31.587-.483.69-.172.104-.448.138-.793.138h-3.795c-.725 0-1.173-.241-1.311-.794-.656-2.346-1.208-5.312-1.691-8.9h-.138a95 95 0 0 1-1.725 8.9c-.138.553-.552.794-1.242.794H211.2c-.69 0-1.138-.241-1.311-.759-.345-.931-.931-3.07-1.759-6.382a160 160 0 0 1-1.932-8.729c-.104-.38-.069-.655.069-.794.138-.138.414-.241.828-.241h3.381c.345 0 .621.069.793.207.138.138.242.414.311.759a294 294 0 0 0 1.69 10.074h.138c.828-4.278 1.415-7.349 1.691-9.177.069-.449.172-.725.345-.863.172-.103.517-.172 1.069-.172m24.992 14.663h-.069c-.759 1.173-2.277 1.725-4.519 1.725h-.518c-1.759 0-3.139-.449-4.105-1.346-1.001-.897-1.484-2.242-1.484-3.968v-.379c0-1.863.518-3.208 1.587-3.967 1.07-.76 2.795-1.139 5.21-1.139h.241c.897 0 1.725.069 2.415.138v-.724c0-.725-.207-1.242-.586-1.518-.414-.242-1.104-.38-2.07-.38-1.173 0-2.484.207-4.002.587-.414.103-.725.103-.863 0-.172-.104-.276-.311-.31-.656l-.276-1.828c-.069-.311-.069-.553-.069-.69 0-.415.276-.725.828-.898 1.759-.482 3.726-.758 5.899-.758 2.657 0 4.554.586 5.658 1.69.863.897 1.311 2.346 1.311 4.313v10.246c0 .345-.103.621-.276.759-.172.138-.483.207-.897.207h-1.621c-.414 0-.69-.035-.863-.138-.172-.103-.31-.31-.414-.655zm-1.242-4.416v-.967q-.569-.103-1.656-.103h-.379q-1.242 0-1.76.31c-.345.207-.483.622-.483 1.242v.139c0 .62.138 1.035.483 1.241.311.242.794.346 1.449.346h.242c.69 0 1.207-.173 1.621-.518.311-.276.483-.863.483-1.69m14.967 1.345h1.104c.345 0 .621.104.759.241.138.173.241.483.241.932v2.139c0 .483-.103.793-.241.931-.138.173-.414.242-.759.242h-2.622c-1.725 0-2.933-.31-3.623-1-.69-.656-1.035-1.829-1.035-3.485V6.644c0-.345.069-.586.242-.759.172-.138.483-.241.931-.241h3.174c.414 0 .725.103.897.241.173.173.276.414.276.759V23.86c0 .276.035.448.138.517.069.104.242.138.518.138m13.443-1.69v-9.73c0-.344.069-.586.242-.759.172-.138.483-.241.931-.241h3.174c.414 0 .725.103.897.241.173.173.276.415.276.76v10.212q0 3.156-1.552 4.554c-1.104.966-3.036 1.449-5.865 1.449s-4.796-.483-5.865-1.45q-1.553-1.397-1.553-4.553V13.096c0-.345.069-.587.242-.76.172-.138.483-.241.931-.241h3.174c.414 0 .725.103.897.241.173.173.276.415.276.76v9.729c0 .793.104 1.31.38 1.587.276.31.759.448 1.518.448.724 0 1.242-.138 1.518-.448.241-.276.379-.794.379-1.587m19.582 2.932v1.967c0 .517-.104.862-.242 1.035s-.448.241-.862.241h-2.76c-2.484 0-4.14-.414-4.899-1.276-.69-.725-1.001-2.105-1.001-4.175v-7.142h-1.863c-.345 0-.552-.034-.69-.172s-.172-.345-.172-.69v-1.76c0-.414.034-.69.172-.828.104-.138.345-.241.725-.344l1.828-.449V8.783c0-.345.069-.586.242-.759.172-.138.483-.241.931-.241h3.174c.414 0 .725.103.897.241.173.173.276.414.276.759v3.312h2.864c.345 0 .552.069.69.207s.207.38.207.793v2.312q0 .621-.207.828c-.138.138-.345.172-.69.172h-2.864v6.521c0 .621.069 1 .276 1.207.207.242.656.345 1.346.345h1.518c.414 0 .724.104.862.276s.242.518.242 1.001M7.349 55.096V70c0 .344-.104.62-.277.758-.172.173-.482.242-.896.242H3.002c-.449 0-.76-.069-.932-.242-.172-.137-.241-.413-.241-.758V55.096c0-.345.069-.587.241-.76.173-.137.483-.241.932-.241h3.174c.414 0 .724.104.896.242.173.172.276.413.276.758m-2.554-2.312h-.413c-1.863 0-2.795-.931-2.795-2.864v-.172c0-1.898.932-2.863 2.795-2.863h.414c1.862 0 2.794.965 2.794 2.863v.172c0 1.932-.931 2.864-2.794 2.864m19.128 11.523v5.692c0 .346-.103.622-.276.76-.172.172-.483.241-.897.241h-3.174c-.448 0-.759-.069-.931-.242-.173-.137-.242-.413-.242-.758V48.643c0-.345.07-.587.242-.759.172-.138.483-.241.931-.241h3.174c.414 0 .725.103.897.241.173.172.276.414.276.759v11.247h.242l3.277-5.002c.31-.518.794-.794 1.45-.794h4.001c.38 0 .587.138.587.414 0 .138-.104.38-.276.655L29.236 61.1c-.31.483-.448.828-.448 1.035 0 .241.138.586.448 1.035l4.244 6.693c.138.276.207.448.207.586 0 .38-.242.552-.725.552h-3.83c-.482 0-.862-.034-1.069-.172q-.31-.156-.62-.725l-3.278-5.796zm16.26-3.105v2.691c0 1.346.208 2.208.622 2.622.31.345.793.483 1.449.483h.138c.62 0 1.104-.138 1.449-.483.414-.414.62-1.276.62-2.622v-2.691c0-1.311-.206-2.208-.62-2.622-.345-.31-.828-.483-1.45-.483h-.137c-.656 0-1.139.172-1.45.483-.413.414-.62 1.311-.62 2.622m9.833.207v2.242c0 1.725-.172 3.036-.517 4.002s-.897 1.725-1.656 2.312c-1.139.897-2.898 1.346-5.313 1.346h-.414c-2.415 0-4.21-.449-5.313-1.346-.76-.587-1.311-1.346-1.656-2.312s-.518-2.277-.518-4.002v-2.208c0-1.69.173-3.001.518-3.967a5.2 5.2 0 0 1 1.656-2.346c1.104-.897 2.898-1.346 5.313-1.346h.414c2.415 0 4.174.449 5.313 1.346a5.3 5.3 0 0 1 1.656 2.311c.345.966.517 2.277.517 3.968m12.062-7.624h.276c2.001 0 3.485.483 4.382 1.414.828.897 1.276 2.415 1.276 4.554v10.246c0 .346-.103.622-.276.76-.172.172-.483.241-.897.241h-3.174c-.448 0-.759-.069-.931-.242-.173-.137-.242-.413-.242-.758v-9.764c0-.759-.138-1.311-.38-1.587-.275-.276-.793-.449-1.517-.449h-.207c-.76 0-1.242.173-1.518.449s-.38.828-.38 1.587V70c0 .344-.103.62-.276.758-.172.173-.483.242-.897.242h-3.174c-.448 0-.759-.069-.931-.242-.173-.137-.242-.413-.242-.758V55.06c0-.345.07-.587.242-.724.172-.139.483-.242.931-.242h1.622c.414 0 .69.069.862.172q.259.156.414.621l.207.656h.104c1.104-1.173 2.656-1.76 4.726-1.76m20.02 13.972v1.966c0 .518-.104.863-.242 1.035-.138.173-.449.242-.863.242h-2.76c-2.484 0-4.14-.414-4.899-1.276-.69-.725-1-2.105-1-4.175v-7.142H70.47c-.345 0-.552-.034-.69-.172s-.173-.345-.173-.69v-1.76c0-.413.035-.69.173-.827.103-.139.345-.242.724-.346l1.829-.448v-3.381c0-.345.069-.587.241-.759.173-.138.483-.242.932-.242h3.174c.414 0 .724.104.897.242.172.172.276.414.276.759v3.312h2.863c.345 0 .552.069.69.207s.207.38.207.794v2.311q0 .621-.207.828c-.138.138-.345.172-.69.172h-2.863v6.521c0 .621.069 1 .276 1.207.207.242.655.346 1.345.346h1.518c.414 0 .725.103.863.276.138.172.241.517.241 1m7.612-6.555v2.691c0 1.346.207 2.208.621 2.622.31.345.794.483 1.45.483h.137c.621 0 1.104-.138 1.45-.483.413-.414.62-1.276.62-2.622v-2.691c0-1.311-.207-2.208-.62-2.622-.346-.31-.829-.483-1.45-.483h-.138c-.655 0-1.138.172-1.449.483-.414.414-.62 1.311-.62 2.622m9.833.207v2.242c0 1.725-.173 3.036-.518 4.002s-.897 1.725-1.656 2.312c-1.138.897-2.898 1.346-5.313 1.346h-.414c-2.415 0-4.209-.449-5.313-1.346-.759-.587-1.31-1.346-1.656-2.312s-.517-2.277-.517-4.002v-2.208c0-1.69.172-3.001.517-3.967a5.2 5.2 0 0 1 1.656-2.346c1.104-.897 2.898-1.346 5.313-1.346h.414c2.415 0 4.175.449 5.313 1.346a5.3 5.3 0 0 1 1.656 2.311c.345.966.518 2.277.518 3.968m16.057-2.932h-5.486c-.345 0-.586-.035-.724-.173s-.173-.414-.173-.828v-2.38c0-.414.035-.656.173-.794q.207-.207.724-.207h11.661c.345 0 .587.069.759.207.138.138.242.414.242.794v.655c0 .897-.276 1.725-.759 2.45l-5.934 8.417h5.899c.345 0 .552.07.69.208s.207.379.207.793v2.38q0 .622-.207.829c-.138.138-.345.172-.69.172h-11.868c-.724 0-1.069-.31-1.069-1v-.794c0-.897.241-1.69.759-2.45zm19.575 11.109h-.069c-.759 1.172-2.277 1.725-4.519 1.725h-.518c-1.759 0-3.139-.449-4.105-1.346-1.001-.897-1.484-2.243-1.484-3.968v-.379c0-1.863.518-3.208 1.587-3.967 1.07-.76 2.795-1.139 5.21-1.139h.241c.897 0 1.725.069 2.415.138v-.724c0-.725-.207-1.242-.586-1.519-.414-.241-1.104-.379-2.07-.379-1.173 0-2.484.207-4.002.587-.414.103-.725.103-.863 0-.172-.104-.276-.311-.31-.656l-.276-1.829c-.069-.31-.069-.552-.069-.69 0-.413.276-.724.828-.896 1.759-.483 3.726-.76 5.899-.76 2.657 0 4.554.587 5.658 1.691.863.897 1.311 2.346 1.311 4.313v10.246c0 .345-.103.621-.276.759-.172.138-.483.207-.897.207h-1.621c-.414 0-.69-.034-.863-.138-.172-.103-.31-.31-.414-.655zm-1.242-4.416v-.966q-.568-.105-1.656-.104h-.379q-1.242 0-1.76.31c-.345.208-.483.621-.483 1.243v.137c0 .621.138 1.035.483 1.242.311.242.794.346 1.449.346h.242c.69 0 1.207-.173 1.621-.518.311-.276.483-.862.483-1.69m37.485-9.584v3.654c0 3.948-.84 6.972-2.478 9.03-1.68 2.1-4.452 3.108-8.316 3.108s-6.636-1.008-8.316-3.108c-1.68-2.058-2.478-5.082-2.478-9.03v-3.654c0-3.948.798-6.93 2.478-9.03 1.68-2.058 4.452-3.108 8.316-3.108s6.636 1.05 8.316 3.108c1.638 2.1 2.478 5.082 2.478 9.03m-7.182 2.94V56.3c0-2.73-.252-4.62-.672-5.628s-1.386-1.554-2.856-1.554h-.168c-1.512.042-2.478.546-2.898 1.554s-.63 2.898-.63 5.628v2.226c0 2.772.21 4.62.63 5.628s1.386 1.554 2.898 1.554h.168c1.47 0 2.436-.504 2.856-1.512s.672-2.898.672-5.67m26.665-2.772h-6.678c-.42 0-.714-.042-.882-.21s-.21-.504-.21-1.008v-2.898c0-.504.042-.798.21-.966q.252-.252.882-.252h14.196c.42 0 .714.084.924.252.168.168.294.504.294.966v.798c0 1.092-.336 2.1-.924 2.982l-7.224 10.248h7.182c.42 0 .672.084.84.252s.252.462.252.966v2.898q0 .756-.252 1.008c-.168.168-.42.21-.84.21h-14.448c-.882 0-1.302-.378-1.302-1.218v-.966c0-1.092.294-2.058.924-2.982zm20.429 9.786h1.344c.42 0 .756.126.924.294.168.21.294.588.294 1.134v2.604c0 .588-.126.966-.294 1.134-.168.21-.504.294-.924.294h-3.192c-2.1 0-3.57-.378-4.41-1.218-.84-.798-1.26-2.226-1.26-4.242v-4.536l-1.386.882c-.546.336-.924.504-1.092.504-.336 0-.462-.252-.462-.756v-3.906c0-.42.042-.714.21-.924.126-.168.378-.42.798-.714l1.932-1.218V43.784c0-.42.084-.714.294-.924.21-.168.588-.294 1.134-.294h3.864c.504 0 .882.126 1.092.294.21.21.336.504.336.924v6.804l1.89-1.218c.504-.336.882-.504 1.092-.504.294 0 .462.252.462.756v3.906c0 .42-.084.756-.21.924-.168.21-.42.462-.798.714l-2.436 1.554v8.022c0 .336.042.546.168.63.084.126.294.168.63.168m19.575-5.063v4.417c0 .793.138 1.345.483 1.655.276.311.794.449 1.553.449h.31c.794 0 1.346-.207 1.691-.69q.414-.621.414-3.002v-1.483c0-1.725-.173-2.794-.449-3.14-.31-.344-.897-.551-1.725-.551h-.138c-.793 0-1.345.172-1.69.517-.311.31-.449.931-.449 1.828m0-5.761h.069q1.501-.931 3.933-.931h.311c2.07 0 3.588.62 4.519 1.863.759 1.069 1.173 2.966 1.173 5.692v2.484c0 2.76-.586 4.692-1.759 5.761-1.242 1.174-3.209 1.726-5.9 1.726h-.69c-2.829 0-4.761-.553-5.796-1.691-.931-1-1.38-2.622-1.38-4.899V48.644c0-.345.069-.587.242-.759.138-.138.448-.241.897-.241h3.208c.414 0 .725.103.897.241.173.172.276.414.276.759zm21.188 12.144h.38c1.173 0 2.415-.138 3.657-.448.345-.07.552-.104.655-.104.345 0 .552.207.621.586l.276 1.725c.069.484.138.794.138.932 0 .414-.31.724-.897.931-1.587.552-3.346.829-5.209.829h-.656q-4.244 0-6.003-1.76a4.95 4.95 0 0 1-1.38-2.346c-.241-.897-.345-2.105-.345-3.588v-1.932c0-3.001.69-5.106 2.07-6.348 1.173-1.035 2.967-1.553 5.417-1.553h.483c2.415 0 4.174.587 5.209 1.726 1.104 1.242 1.656 3.277 1.656 6.175v1.794c0 .656-.345.966-1 .966h-8.28v.276c0 .828.207 1.38.69 1.69.448.311 1.276.449 2.518.449m-3.208-6.003h3.795c.276 0 .414-.138.414-.449v-.552c0-.69-.138-1.207-.345-1.587-.276-.413-.828-.62-1.587-.62h-.311c-.69 0-1.173.172-1.449.483q-.517.62-.517 1.863zm17.837-2.38h-5.486c-.345 0-.586-.035-.724-.173s-.173-.414-.173-.828v-2.38c0-.414.035-.656.173-.794q.207-.207.724-.207h11.661c.345 0 .587.069.759.207.138.138.242.414.242.794v.655c0 .897-.276 1.725-.759 2.45l-5.934 8.417h5.899c.345 0 .552.07.69.208s.207.379.207.793v2.38q0 .622-.207.829c-.138.138-.345.172-.69.172h-11.868c-.724 0-1.069-.31-1.069-1v-.794c0-.897.241-1.69.759-2.45zm25.916-3.554h2.967c.483 0 .828.069 1.001.207s.31.414.379.828c0 .138.621 3.209 1.829 9.177h.103c.621-3.623 1.173-6.969 1.622-10.074.034-.38.138-.621.276-.759q.207-.207.724-.207h3.519c.38 0 .621.104.759.242.104.172.138.448.069.793-.552 2.691-1.242 5.658-2.001 8.901s-1.311 5.278-1.656 6.141c-.138.345-.31.587-.483.69-.172.104-.448.138-.793.138h-3.795c-.725 0-1.173-.242-1.311-.793-.656-2.346-1.208-5.313-1.691-8.901h-.138a95 95 0 0 1-1.725 8.9c-.138.552-.552.794-1.242.794h-3.726c-.69 0-1.138-.242-1.311-.759-.345-.931-.931-3.07-1.759-6.382a160 160 0 0 1-1.932-8.729c-.104-.38-.069-.656.069-.794.138-.137.414-.241.828-.241h3.381c.345 0 .621.069.793.207.138.138.242.414.311.759a294 294 0 0 0 1.69 10.074h.138c.828-4.278 1.415-7.349 1.691-9.177.069-.448.172-.724.345-.862.172-.104.517-.173 1.069-.173m24.992 14.662h-.069c-.759 1.174-2.277 1.726-4.519 1.726h-.518c-1.759 0-3.139-.449-4.105-1.346-1.001-.897-1.484-2.243-1.484-3.968v-.379c0-1.863.518-3.208 1.587-3.967 1.07-.76 2.795-1.139 5.21-1.139h.241c.897 0 1.725.069 2.415.138v-.724c0-.725-.207-1.242-.586-1.519-.414-.241-1.104-.379-2.07-.379-1.173 0-2.484.207-4.002.587-.414.103-.725.103-.863 0-.172-.104-.276-.311-.31-.656l-.276-1.829c-.069-.31-.069-.552-.069-.69 0-.413.276-.724.828-.896 1.759-.483 3.726-.76 5.899-.76 2.657 0 4.554.587 5.658 1.691.863.897 1.311 2.346 1.311 4.313v10.246c0 .345-.103.621-.276.759-.172.138-.483.207-.897.207h-1.621c-.414 0-.69-.034-.863-.138-.172-.103-.31-.31-.414-.655zm-1.242-4.415v-.966q-.569-.105-1.656-.104h-.379q-1.242 0-1.76.31c-.345.208-.483.621-.483 1.243v.137c0 .621.138 1.035.483 1.242.311.242.794.346 1.449.346h.242c.69 0 1.207-.173 1.621-.518.311-.276.483-.862.483-1.69m13.138-9.212h.104c.759-1.242 2.035-1.863 3.864-1.863h1.38c.345 0 .621.069.759.207s.241.38.241.759v2.519c0 .379-.069.62-.207.759q-.207.207-.724.206h-1.035c-1.277 0-2.139.242-2.622.725-.414.414-.587 1.207-.587 2.38V70c0 .344-.103.62-.276.758-.172.173-.483.242-.897.242h-3.174c-.448 0-.759-.069-.931-.242-.173-.137-.242-.413-.242-.758V55.06c0-.345.069-.587.242-.724.172-.139.483-.242.931-.242h1.656c.38 0 .656.069.828.172q.26.208.414.621zm17.462 8.867v-9.73c0-.344.069-.586.242-.758.172-.139.483-.242.931-.242h3.174c.414 0 .725.104.897.242.173.172.276.413.276.758v10.213q0 3.156-1.552 4.554c-1.104.966-3.036 1.449-5.865 1.449s-4.796-.484-5.865-1.45q-1.553-1.397-1.553-4.553V55.095c0-.344.069-.586.242-.758.172-.139.483-.242.931-.242h3.174c.414 0 .725.104.897.242.173.172.276.413.276.758v9.73c0 .793.104 1.31.38 1.587.276.31.759.448 1.518.448.724 0 1.242-.138 1.518-.448.241-.277.379-.794.379-1.588m17.891-11.04h.276c2.001 0 3.485.483 4.382 1.414.828.897 1.276 2.415 1.276 4.554v10.246c0 .346-.103.622-.276.76-.172.172-.483.241-.897.241h-3.174c-.448 0-.759-.069-.931-.242-.173-.137-.242-.413-.242-.758v-9.764c0-.759-.138-1.311-.379-1.587-.276-.276-.794-.449-1.518-.449h-.207c-.759 0-1.242.173-1.518.449s-.38.828-.38 1.587V70c0 .344-.103.62-.276.758-.172.173-.483.242-.897.242h-3.174c-.448 0-.759-.069-.931-.242-.173-.137-.242-.413-.242-.758V55.06c0-.345.069-.587.242-.724.172-.139.483-.242.931-.242h1.622c.414 0 .69.069.862.172q.26.156.414.621l.207.656h.104c1.104-1.173 2.656-1.76 4.726-1.76m14.74 10.522v5.692c0 .346-.103.622-.276.76-.172.172-.483.241-.897.241h-3.174c-.448 0-.759-.069-.931-.242-.173-.137-.242-.413-.242-.758V48.643c0-.345.069-.587.242-.759.172-.138.483-.241.931-.241h3.174c.414 0 .725.103.897.241.173.172.276.414.276.759v11.247h.242l3.277-5.002c.311-.518.794-.794 1.449-.794h4.002c.38 0 .587.138.587.414 0 .138-.104.38-.276.655l-3.968 5.935c-.31.483-.448.828-.448 1.035 0 .241.138.586.448 1.035l4.244 6.693c.138.276.207.448.207.586 0 .38-.242.552-.725.552h-3.829c-.483 0-.863-.034-1.07-.172q-.31-.156-.621-.725l-3.277-5.796zm16.261-3.105v2.691c0 1.346.207 2.208.621 2.622.311.345.794.483 1.449.483h.138c.621 0 1.104-.138 1.449-.483.414-.414.621-1.276.621-2.622v-2.691c0-1.311-.207-2.208-.621-2.622-.345-.31-.828-.483-1.449-.483h-.138c-.655 0-1.138.172-1.449.483-.414.414-.621 1.311-.621 2.622m9.833.207v2.242c0 1.725-.173 3.036-.518 4.002s-.897 1.725-1.656 2.312c-1.138.897-2.898 1.346-5.313 1.346h-.414c-2.415 0-4.209-.449-5.313-1.346-.759-.587-1.311-1.346-1.656-2.312s-.517-2.277-.517-4.002v-2.208c0-1.69.172-3.001.517-3.967a5.2 5.2 0 0 1 1.656-2.346c1.104-.897 2.898-1.346 5.313-1.346h.414c2.415 0 4.175.449 5.313 1.346a5.3 5.3 0 0 1 1.656 2.311c.345.966.518 2.277.518 3.968M395.19 49.541l5.417-4.623c.207-.207.448-.31.655-.31.242 0 .483.172.69.448l1.656 2.139c.138.207.207.38.207.587 0 .276-.207.552-.552.828l-5.451 3.726a1.2 1.2 0 0 1-.69.241c-.276 0-.552-.138-.828-.483l-1.035-1.208c-.276-.31-.379-.586-.379-.793s.103-.414.31-.552m22.309 5.382h2.967c.483 0 .828.069 1 .207s.311.414.38.828c0 .138.621 3.209 1.828 9.177h.104c.621-3.623 1.173-6.969 1.621-10.074.035-.38.138-.621.276-.759q.207-.207.725-.207h3.519c.379 0 .621.104.759.242.103.172.138.448.069.793-.552 2.691-1.242 5.658-2.001 8.901s-1.311 5.278-1.656 6.141c-.138.345-.311.587-.483.69-.173.104-.449.138-.794.138h-3.795c-.724 0-1.173-.242-1.311-.793-.655-2.346-1.207-5.313-1.69-8.901h-.138a95 95 0 0 1-1.725 8.9c-.138.552-.552.794-1.242.794h-3.726c-.69 0-1.139-.242-1.311-.759-.345-.931-.932-3.07-1.76-6.382a160 160 0 0 1-1.932-8.729c-.103-.38-.069-.656.069-.794.138-.137.414-.241.828-.241h3.381c.345 0 .621.069.794.207.138.138.241.414.31.759a292 292 0 0 0 1.691 10.074h.138c.828-4.278 1.414-7.349 1.69-9.177.069-.448.173-.724.345-.862.173-.104.518-.173 1.07-.173"/></svg>