<svg xmlns="http://www.w3.org/2000/svg" fill="none" viewBox="0 0 381 83"><path fill="#fff" d="M6.003 21.579c1.207-1.174 2.932-1.794 5.14-1.794h.311c2.139 0 3.657.62 4.589 1.793.828 1.105 1.242 2.968 1.242 5.659v2.587c0 1.449-.139 2.656-.346 3.553-.241.898-.655 1.656-1.242 2.243-1.172 1.139-2.76 1.69-4.83 1.69h-.379q-1.966 0-3.208-.724v5.313c0 .517-.104.862-.277 1-.207.139-.586.207-1.173.207H3.21c-.587 0-.966-.069-1.174-.241-.207-.138-.276-.483-.276-.966v-20.7c0-.414.07-.69.276-.863.173-.137.483-.241.932-.241h1.449c.414 0 .724.069.897.138.138.104.276.31.38.587l.241.758zm1.276 4.898v4.416c0 .794.139 1.346.484 1.657.31.31.828.448 1.552.448h.31c.794 0 1.346-.207 1.691-.69q.414-.622.414-3.001v-1.484c0-1.656-.138-2.691-.414-3.07-.345-.415-.897-.622-1.725-.622H9.35c-.76 0-1.277.173-1.622.518-.31.31-.449.931-.449 1.828m19.153 6.038h1.104c.345 0 .62.103.759.242.138.172.241.483.241.931v2.139c0 .483-.103.794-.241.931-.138.173-.414.242-.76.242h-2.621c-1.725 0-2.933-.31-3.623-1-.69-.656-1.035-1.829-1.035-3.485V14.644c0-.345.07-.587.242-.759.172-.138.483-.242.931-.242h3.174c.414 0 .725.104.897.242.173.172.276.414.276.759V31.86c0 .276.035.448.138.517.07.103.242.138.518.138m13.443-1.69v-9.73c0-.344.069-.586.242-.758.172-.139.483-.242.931-.242h3.174c.414 0 .724.104.897.242.172.172.276.413.276.759v10.212q0 3.156-1.553 4.554c-1.103.965-3.035 1.448-5.864 1.448-2.83 0-4.796-.483-5.866-1.449q-1.552-1.397-1.552-4.553V21.096c0-.346.069-.587.242-.76.172-.137.483-.241.931-.241h3.174c.414 0 .725.104.897.242.172.172.276.413.276.759v9.729c0 .793.104 1.31.38 1.586.276.311.758.449 1.517.449.725 0 1.242-.138 1.519-.449.241-.276.379-.793.379-1.587m8.334-5.175V25.2c0-1.69.449-2.967 1.346-3.864 1.035-1.035 2.794-1.552 5.244-1.552h.345c1.932 0 3.622.206 5.037.62q.414.155.517.311c.07.138.104.31.07.586l-.38 2.83c-.07.448-.38.586-.932.448-1.38-.31-2.622-.483-3.657-.483h-.034c-.76 0-1.311.069-1.587.207-.31.138-.449.38-.449.725v.103c0 .345.104.586.38.724s.793.311 1.587.449l1.621.345c1.484.345 2.553.863 3.174 1.553s.932 1.759.932 3.174v.517c0 3.623-2.277 5.416-6.762 5.416h-.345c-2.277 0-4.175-.31-5.762-.931-.31-.103-.517-.241-.586-.414-.07-.138-.07-.414 0-.794l.483-2.276c.103-.656.483-.863 1.173-.656 1.587.552 2.967.794 4.14.794h.103c.76 0 1.277-.07 1.587-.242.276-.138.449-.414.449-.793v-.104a.74.74 0 0 0-.38-.655q-.414-.208-1.656-.518l-1.518-.345q-2.277-.518-3.208-1.553c-.621-.69-.932-1.724-.932-3.174m30.737 6.865h1.104c.345 0 .621.103.76.242.137.172.24.483.24.931v2.139c0 .483-.103.794-.24.931-.139.173-.415.242-.76.242h-2.622c-1.725 0-2.932-.31-3.622-1-.69-.656-1.035-1.829-1.035-3.485v-3.726l-1.139.724c-.448.276-.759.414-.897.414-.276 0-.38-.206-.38-.62v-3.209c0-.345.035-.586.173-.759.104-.138.31-.345.656-.586l1.587-1.001v-9.108c0-.345.069-.587.241-.759.173-.138.483-.242.932-.242h3.174c.414 0 .724.104.897.242.172.172.276.414.276.759v5.589l1.552-1c.414-.277.725-.415.897-.415.242 0 .38.207.38.621v3.209c0 .345-.07.621-.173.759-.138.172-.345.38-.655.587L78.29 25.27v6.59c0 .276.034.448.138.517.069.103.241.138.517.138m14.35 3.07h-.068c-.76 1.173-2.277 1.725-4.52 1.725h-.517c-1.76 0-3.14-.448-4.106-1.345-1-.897-1.483-2.243-1.483-3.968v-.379c0-1.863.517-3.208 1.587-3.967 1.07-.76 2.794-1.139 5.21-1.139h.24c.898 0 1.726.069 2.416.138v-.724c0-.725-.207-1.242-.587-1.518-.414-.242-1.104-.38-2.07-.38-1.173 0-2.484.207-4.002.587-.414.103-.724.103-.862 0-.173-.104-.276-.311-.31-.656l-.277-1.828c-.069-.346-.069-.587-.069-.69 0-.415.276-.725.828-.897 1.76-.483 3.726-.76 5.9-.76 2.656 0 4.554.587 5.658 1.691.862.897 1.31 2.346 1.31 4.313v10.246c0 .517-.206.828-.551.966-.863.345-1.587.828-2.14 1.449-.586.621-.862 1.276-.862 1.932v.103q0 .932.932.932h.103a4.3 4.3 0 0 0 1.484-.276c.172-.035.31-.069.414-.069.172 0 .31.172.414.449l.172.724c.104.483.173.724.173.794 0 .207-.173.379-.483.517a7.7 7.7 0 0 1-2.795.517h-.207c-1.173 0-2.104-.241-2.725-.759-.621-.517-.932-1.242-.932-2.139v-.172c0-.828.276-1.622.863-2.38.552-.76 1.31-1.38 2.208-1.864zm-1.241-4.416v-.966q-.57-.103-1.656-.103h-.38q-1.242 0-1.76.31c-.344.207-.482.622-.482 1.242v.139c0 .62.138 1.034.483 1.241.31.242.793.346 1.449.346h.241c.69 0 1.208-.173 1.622-.518.31-.276.483-.863.483-1.69m16.861 1.691h.276c.931 0 1.932-.138 3.001-.449.345-.069.552-.103.656-.103.345 0 .552.207.621.587l.31 1.759c.069.483.138.793.138.931 0 .414-.31.725-.897.932-1.518.552-3.174.793-4.968.793h-.414c-2.484 0-4.312-.552-5.451-1.724q-1.76-1.76-1.759-5.9v-2.001c0-1.621.138-2.898.414-3.795q.414-1.345 1.345-2.277c1.208-1.207 3.105-1.828 5.693-1.828h.345c2.07 0 3.864.379 5.313 1.138.414.242.655.518.655.863 0 .206-.103.551-.276 1.034l-.655 1.657q-.259.62-.725.62c-.138 0-.345-.034-.621-.172-1.104-.448-2.139-.69-3.07-.69h-.138c-.897 0-1.553.242-1.967.656-.517.517-.759 1.587-.759 3.174v1.172c0 1.415.207 2.381.69 2.899.449.482 1.208.724 2.243.724m13.355-8.383h-5.486c-.345 0-.586-.035-.724-.173s-.173-.414-.173-.828v-2.38c0-.415.035-.656.173-.794q.207-.207.724-.207h11.661c.345 0 .587.069.759.207.138.138.242.414.242.794v.655c0 .897-.276 1.725-.759 2.45l-5.934 8.417h5.899c.345 0 .552.07.69.207.138.139.207.38.207.794v2.38q0 .621-.207.828c-.138.139-.345.173-.69.173h-11.868c-.724 0-1.069-.31-1.069-1v-.794c0-.897.241-1.69.759-2.45zm18.713-4.692h.276c2.001 0 3.484.482 4.381 1.414.828.897 1.277 2.415 1.277 4.554v10.246c0 .345-.104.621-.276.76-.173.172-.483.241-.897.241h-3.174c-.449 0-.759-.069-.932-.242-.172-.138-.241-.414-.241-.759v-9.763c0-.759-.138-1.311-.38-1.587-.276-.276-.793-.448-1.518-.448h-.207c-.759 0-1.242.172-1.518.448s-.379.828-.379 1.587v9.763c0 .345-.104.621-.276.76-.173.172-.483.241-.897.241h-3.174c-.449 0-.759-.069-.932-.242-.172-.138-.241-.414-.241-.759V21.061c0-.345.069-.587.241-.724.173-.139.483-.242.932-.242h1.621c.414 0 .69.069.863.172q.258.156.414.622l.207.655h.103c1.104-1.173 2.657-1.76 4.727-1.76m14.809 1.31V36c0 .345-.104.621-.276.76-.173.172-.483.241-.897.241h-3.174c-.449 0-.759-.069-.932-.242-.172-.138-.241-.414-.241-.759V21.095c0-.344.069-.586.241-.758.173-.139.483-.242.932-.242h3.174c.414 0 .724.104.897.242.172.172.276.413.276.759m-2.553-2.311h-.414c-1.863 0-2.795-.931-2.795-2.863v-.173c0-1.897.932-2.863 2.795-2.863h.414c1.863 0 2.794.966 2.794 2.863v.173c0 1.931-.931 2.863-2.794 2.863m14.339 14.076h.379c1.173 0 2.415-.138 3.657-.449.345-.069.552-.103.656-.103.345 0 .552.207.621.587l.276 1.724c.069.483.138.794.138.932 0 .414-.311.724-.897.931-1.587.553-3.347.828-5.21.828h-.655q-4.244 0-6.003-1.759a4.94 4.94 0 0 1-1.38-2.346c-.242-.897-.345-2.104-.345-3.588v-1.932c0-3.001.69-5.106 2.07-6.348 1.173-1.035 2.967-1.552 5.416-1.552h.483c2.415 0 4.175.586 5.21 1.724 1.104 1.242 1.656 3.278 1.656 6.176v1.794c0 .656-.345.966-1.001.966h-8.28v.276c0 .828.207 1.38.69 1.69.449.311 1.277.449 2.519.449m-3.209-6.003h3.795c.276 0 .414-.138.414-.448v-.552c0-.69-.138-1.208-.345-1.587-.276-.415-.828-.622-1.587-.622h-.31c-.69 0-1.173.173-1.449.483q-.518.622-.518 1.863zm29.526-4.725h.336c1.344 0 2.478-.252 3.444-.756v-.588c0-2.31-.252-3.864-.714-4.662s-1.302-1.218-2.562-1.218h-.378q-3.15 0-3.15 3.402v.378c0 1.26.21 2.142.714 2.646.504.546 1.26.798 2.31.798m-7.602 14.028c-.504-.168-.714-.462-.714-.966q0-.252.126-.756l.672-2.688c.168-.672.672-.924 1.428-.714 2.016.63 3.78.924 5.292.924h.126c1.512 0 2.562-.378 3.234-1.218q1.008-1.197 1.134-3.78c-1.386.588-2.898.84-4.536.84h-.462c-2.982 0-5.124-.714-6.468-2.226-1.344-1.47-1.974-3.738-1.974-6.762v-.588c0-2.688.798-4.83 2.436-6.426 1.638-1.554 4.032-2.352 7.182-2.352h.588c3.78 0 6.468 1.008 7.98 2.94s2.31 5.124 2.31 9.576v1.008c0 2.394-.21 4.452-.63 6.216s-.966 3.192-1.638 4.2a7.6 7.6 0 0 1-2.562 2.478c-1.008.63-2.016 1.05-3.024 1.218-1.008.21-2.184.294-3.486.294h-.042c-2.436 0-4.788-.378-6.972-1.218m49.765-12.264v11.886c0 .42-.126.756-.336.924-.21.21-.588.294-1.092.294h-3.864c-.546 0-.924-.084-1.134-.294-.21-.168-.294-.504-.294-.924V23.896c0-.924-.168-1.596-.462-1.932-.336-.336-.966-.546-1.848-.546h-.084c-.924 0-1.512.21-1.848.546s-.462 1.008-.462 1.932v11.886c0 .42-.126.756-.336.924-.21.21-.588.294-1.092.294h-3.864c-.546 0-.924-.084-1.134-.294-.21-.168-.294-.504-.294-.924V17.596c0-.42.084-.714.294-.882s.588-.294 1.134-.294h1.974c.504 0 .84.084 1.05.21q.315.189.504.756l.252.798h.126c1.344-1.428 3.234-2.142 5.754-2.142h.168c2.394 0 4.242.672 5.544 1.932 1.344-1.26 3.276-1.932 5.712-1.932h.168c2.436 0 4.242.588 5.334 1.722 1.008 1.092 1.554 2.94 1.554 5.544v12.474c0 .42-.126.756-.336.924-.21.21-.588.294-1.092.294h-3.864c-.546 0-.924-.084-1.134-.294-.21-.168-.294-.504-.294-.924V23.896c0-.924-.168-1.596-.462-1.932-.336-.336-.966-.546-1.848-.546h-.084c-.924 0-1.512.21-1.848.546s-.462 1.008-.462 1.932m22.211-6.258v18.144c0 .42-.126.756-.336.924-.21.21-.588.294-1.092.294h-3.864c-.546 0-.924-.084-1.134-.294-.21-.168-.294-.504-.294-.924V17.638c0-.42.084-.714.294-.924.21-.168.588-.294 1.134-.294h3.864c.504 0 .882.126 1.092.294.21.21.336.504.336.924m-3.108-2.814h-.504c-2.268 0-3.402-1.134-3.402-3.486v-.21c0-2.31 1.134-3.486 3.402-3.486h.504c2.268 0 3.402 1.176 3.402 3.486v.21c0 2.352-1.134 3.486-3.402 3.486m17.456 17.136h.462c1.428 0 2.94-.168 4.452-.546.42-.084.672-.126.798-.126.42 0 .672.252.756.714l.336 2.1c.084.588.168.966.168 1.134 0 .504-.378.882-1.092 1.134-1.932.672-4.074 1.008-6.342 1.008h-.798q-5.166 0-7.308-2.142c-.84-.798-1.386-1.764-1.68-2.856s-.42-2.562-.42-4.368V25.66c0-3.654.84-6.216 2.52-7.728 1.428-1.26 3.612-1.89 6.594-1.89h.588c2.94 0 5.082.714 6.342 2.1 1.344 1.512 2.016 3.99 2.016 7.518v2.184c0 .798-.42 1.176-1.218 1.176h-10.08v.336c0 1.008.252 1.68.84 2.058.546.378 1.554.546 3.066.546m-3.906-7.308h4.62c.336 0 .504-.168.504-.546v-.672c0-.84-.168-1.47-.42-1.932-.336-.504-1.008-.756-1.932-.756h-.378c-.84 0-1.428.21-1.764.588q-.63.756-.63 2.268zm14.323-1.47v-.546c0-2.058.546-3.612 1.638-4.704 1.26-1.26 3.402-1.89 6.384-1.89h.42c2.352 0 4.41.252 6.132.756q.504.189.63.378c.084.168.126.378.084.714l-.462 3.444c-.084.546-.462.714-1.134.546-1.68-.378-3.192-.588-4.452-.588h-.042c-.924 0-1.596.084-1.932.252-.378.168-.546.462-.546.882v.126c0 .42.126.714.462.882s.966.378 1.932.546l1.974.42c1.806.42 3.108 1.05 3.864 1.89s1.134 2.142 1.134 3.864v.63c0 4.41-2.772 6.594-8.232 6.594h-.42c-2.772 0-5.082-.378-7.014-1.134-.378-.126-.63-.294-.714-.504-.084-.168-.084-.504 0-.966l.588-2.772c.126-.798.588-1.05 1.428-.798 1.932.672 3.612.966 5.04.966h.126c.924 0 1.554-.084 1.932-.294.336-.168.546-.504.546-.966v-.126a.9.9 0 0 0-.462-.798q-.504-.252-2.016-.63l-1.848-.42q-2.772-.63-3.906-1.89c-.756-.84-1.134-2.1-1.134-3.864m26.381-5.544v18.144c0 .42-.126.756-.336.924-.21.21-.588.294-1.092.294h-3.864c-.546 0-.924-.084-1.134-.294-.21-.168-.294-.504-.294-.924V17.638c0-.42.084-.714.294-.924.21-.168.588-.294 1.134-.294h3.864c.504 0 .882.126 1.092.294.21.21.336.504.336.924m-3.108-2.814h-.504c-2.268 0-3.402-1.134-3.402-3.486v-.21c0-2.31 1.134-3.486 3.402-3.486h.504c2.268 0 3.402 1.176 3.402 3.486v.21c0 2.352-1.134 3.486-3.402 3.486m17.456 17.136h.462c1.428 0 2.94-.168 4.452-.546.42-.084.672-.126.798-.126.42 0 .672.252.756.714l.336 2.1c.084.588.168.966.168 1.134 0 .504-.378.882-1.092 1.134a6.1 6.1 0 0 0-2.688 2.016c-.714.924-1.05 1.848-1.05 2.688v.126c0 .798.378 1.176 1.134 1.176h.21c.462 0 1.05-.084 1.722-.336.21-.042.378-.084.504-.084.21 0 .378.21.504.546l.21.882c.126.588.21.882.21.966 0 .252-.21.462-.588.63a9.4 9.4 0 0 1-3.402.63h-.252c-1.47 0-2.562-.294-3.318-.924s-1.134-1.512-1.134-2.688v-.126c0-.756.252-1.596.798-2.436s1.26-1.512 2.184-2.1c-.336.042-.798.042-1.386.042h-.798q-5.166 0-7.308-2.142c-.84-.798-1.386-1.764-1.68-2.856s-.42-2.562-.42-4.368V25.66c0-3.654.84-6.216 2.52-7.728 1.428-1.26 3.612-1.89 6.594-1.89h.588c2.94 0 5.082.714 6.342 2.1 1.344 1.512 2.016 3.99 2.016 7.518v2.184c0 .798-.42 1.176-1.218 1.176h-10.08v.336c0 1.008.252 1.68.84 2.058.546.378 1.554.546 3.066.546m-3.906-7.308h4.62c.336 0 .504-.168.504-.546v-.672c0-.84-.168-1.47-.42-1.932-.336-.504-1.008-.756-1.932-.756h-.378c-.84 0-1.428.21-1.764.588q-.63.756-.63 2.268zm24.529 7.308h.336c1.134 0 2.352-.168 3.654-.546.42-.084.672-.126.798-.126.42 0 .672.252.756.714l.378 2.142c.084.588.168.966.168 1.134 0 .504-.378.882-1.092 1.134-1.848.672-3.864.966-6.048.966h-.504c-3.024 0-5.25-.672-6.636-2.1q-2.142-2.142-2.142-7.182V25.66c0-1.974.168-3.528.504-4.62q.504-1.638 1.638-2.772c1.47-1.47 3.78-2.226 6.93-2.226h.42c2.52 0 4.704.462 6.468 1.386.504.294.798.63.798 1.05 0 .252-.126.672-.336 1.26l-.798 2.016q-.315.756-.882.756c-.168 0-.42-.042-.756-.21-1.344-.546-2.604-.84-3.738-.84h-.168c-1.092 0-1.89.294-2.394.798-.63.63-.924 1.932-.924 3.864v1.428c0 1.722.252 2.898.84 3.528.546.588 1.47.882 2.73.882m27.959-14.28c-.588 3.948-1.68 8.316-3.276 13.146-1.638 4.83-3.612 9.408-5.922 13.692-.294.588-.672.882-1.176.882-.336 0-.714-.084-1.218-.336l-2.142-.924c-.756-.336-1.092-.672-1.092-1.05 0-.168.042-.42.21-.714 1.428-2.898 2.268-4.578 2.436-5.04-1.176-.42-2.058-1.344-2.73-2.856-.756-1.68-1.638-4.242-2.604-7.77q-1.449-5.292-2.142-9.072c-.084-.42-.042-.714.168-.924.21-.168.588-.294 1.092-.294h3.822c.462 0 .798.084 1.008.21s.378.378.462.798c.966 5.292 2.058 9.996 3.276 14.07h.21c1.176-3.36 2.268-7.98 3.276-13.944q.063-.63.378-.882c.21-.168.546-.252.966-.252h3.864c.462 0 .798.126.966.294s.21.504.168.966M9.212 75.31h-.415c-2.415 0-4.519-.31-6.313-.966-.759-.241-1.104-.69-.966-1.38l.448-2.794c.07-.69.484-.931 1.208-.69 2.001.724 3.864 1.07 5.52 1.07h.172c1.036 0 1.795-.138 2.243-.449.414-.276.656-.793.656-1.518v-.345c0-.69-.208-1.138-.553-1.415-.379-.241-1.104-.482-2.173-.69l-2.346-.448c-1.932-.345-3.312-1.035-4.071-2.001-.793-.966-1.173-2.311-1.173-4.071v-.966c0-1.932.517-3.381 1.553-4.416 1.242-1.242 3.553-1.863 6.865-1.863h.241c2.312 0 4.278.31 5.865.897.345.138.587.345.69.552.07.242.07.587-.034 1l-.587 2.519c-.138.621-.586.828-1.276.587q-2.38-.725-4.554-.725h-.138c-1.139 0-1.932.138-2.346.38-.449.275-.655.724-.655 1.345v.31c0 .553.137.967.448 1.174.276.241.897.448 1.794.62l2.622.518c2.07.414 3.485 1.07 4.278 1.898.759.828 1.173 2.276 1.173 4.312v.828c0 2.346-.655 4.037-1.932 5.106-1.276 1.104-3.346 1.622-6.244 1.622m15.49-15.732c1.207-1.172 2.932-1.794 5.14-1.794h.31c2.14 0 3.658.622 4.59 1.794.827 1.104 1.241 2.967 1.241 5.659v2.587c0 1.449-.138 2.657-.345 3.553-.241.898-.655 1.657-1.242 2.243-1.173 1.138-2.76 1.69-4.83 1.69h-.38q-1.966 0-3.208-.724v5.313c0 .517-.103.862-.276 1-.207.138-.586.207-1.173.207h-2.622c-.586 0-.966-.069-1.173-.241-.207-.138-.276-.483-.276-.966v-20.7c0-.414.07-.69.276-.862.173-.139.483-.242.932-.242h1.449c.414 0 .724.069.897.138.138.104.276.31.38.587l.24.758zm1.276 4.9v4.416c0 .793.138 1.345.483 1.655.31.311.828.449 1.553.449h.31c.794 0 1.346-.207 1.69-.69q.415-.621.415-3.002v-1.483c0-1.656-.138-2.691-.414-3.07-.345-.414-.897-.621-1.725-.621h-.242c-.759 0-1.276.172-1.621.517-.31.31-.449.931-.449 1.829m17.98.724v2.691c0 1.346.206 2.208.62 2.622.31.345.794.483 1.45.483h.137c.621 0 1.104-.138 1.45-.483.413-.414.62-1.276.62-2.622v-2.691c0-1.311-.207-2.208-.62-2.622-.346-.31-.829-.483-1.45-.483h-.138c-.655 0-1.138.172-1.449.483-.414.414-.62 1.311-.62 2.622m9.832.207v2.242c0 1.725-.173 3.037-.518 4.002-.345.966-.897 1.725-1.656 2.312-1.138.897-2.898 1.346-5.313 1.346h-.414c-2.415 0-4.209-.449-5.313-1.346-.759-.587-1.31-1.346-1.656-2.312s-.517-2.277-.517-4.002v-2.207c0-1.691.172-3.002.517-3.968a5.2 5.2 0 0 1 1.656-2.346c1.104-.897 2.898-1.346 5.313-1.346h.414c2.415 0 4.175.449 5.313 1.346a5.3 5.3 0 0 1 1.656 2.311c.345.966.518 2.277.518 3.968m13.752 6.348v1.966c0 .518-.103.863-.241 1.035-.138.173-.449.242-.863.242h-2.76c-2.484 0-4.14-.414-4.899-1.276-.69-.725-1-2.105-1-4.175v-7.142h-1.863c-.345 0-.552-.034-.69-.172s-.173-.345-.173-.69v-1.76c0-.413.035-.69.173-.827.103-.139.345-.242.724-.346l1.829-.448v-3.381c0-.345.069-.587.241-.759.173-.138.483-.242.932-.242h3.174c.414 0 .724.104.897.242.172.172.276.414.276.759v3.312h2.863c.345 0 .552.069.69.207s.207.38.207.794v2.311q0 .621-.207.828c-.138.138-.345.172-.69.172H63.3v6.521c0 .621.069 1 .276 1.207.207.242.655.346 1.345.346h1.518c.414 0 .725.103.863.276.138.172.241.517.241 1m8.2-12.662V74c0 .346-.103.622-.276.76-.172.172-.483.241-.897.241h-3.174c-.448 0-.759-.069-.931-.242-.173-.137-.242-.413-.242-.758V59.096c0-.345.07-.587.242-.76.172-.137.483-.241.931-.241h3.174c.414 0 .725.104.897.242.173.172.276.413.276.758m-2.553-2.311h-.414c-1.863 0-2.794-.931-2.794-2.864v-.172c0-1.898.931-2.863 2.794-2.863h.414c1.863 0 2.795.965 2.795 2.863v.172c0 1.932-.932 2.864-2.795 2.864m7.163 5.624H78.49c-.345 0-.586-.035-.69-.139-.138-.103-.172-.344-.172-.724v-1.69c0-.414.034-.725.138-.863.103-.138.345-.276.759-.38l1.828-.448v-1.483c0-1.932.449-3.312 1.38-4.106q1.449-1.242 4.554-1.242h.345c1.38 0 2.553.138 3.588.38.345.103.587.241.69.413.07.173.104.449.07.829l-.208 2.173c-.069.345-.138.552-.241.621-.138.069-.38.103-.76.069-.896-.069-1.517-.138-1.931-.138h-.207c-.76 0-1.208.103-1.415.31-.241.242-.345.656-.345 1.208v.897h2.864c.345 0 .552.069.69.207s.207.38.207.794v2.311q0 .621-.207.828c-.138.138-.345.172-.69.172h-2.864V74c0 .344-.103.62-.276.758-.172.173-.483.242-.897.242h-3.174c-.448 0-.759-.069-.931-.242-.173-.137-.242-.413-.242-.758zm26.497-3.278c-.483 3.243-1.38 6.831-2.691 10.798-1.346 3.968-2.967 7.728-4.865 11.248-.241.483-.552.724-.966.724-.276 0-.586-.069-1-.276l-1.76-.759c-.62-.276-.897-.552-.897-.862 0-.138.035-.346.173-.587 1.173-2.38 1.863-3.76 2-4.14-.965-.345-1.69-1.104-2.242-2.346-.62-1.38-1.345-3.485-2.139-6.383q-1.19-4.346-1.76-7.451c-.068-.345-.034-.587.139-.76.172-.137.483-.241.897-.241h3.14c.379 0 .655.069.827.172.173.104.31.311.38.656.793 4.347 1.69 8.211 2.69 11.558h.173c.966-2.76 1.863-6.555 2.691-11.454q.052-.519.311-.725c.172-.138.448-.207.793-.207h3.174c.38 0 .656.104.794.242.138.137.172.413.138.793m17.982-2.105h-.449c-.483 0-.966.035-1.518.07-.207.034-.276.172-.276.413v5.451h1.794c1.242 0 2.07-.172 2.553-.586.414-.345.621-1 .621-2.035v-.863c0-.828-.207-1.449-.586-1.828-.414-.414-1.139-.621-2.139-.621m-2.243 10.661v6.244c0 .725-.414 1.07-1.207 1.07H118c-.449 0-.759-.069-.932-.242-.207-.137-.276-.413-.276-.828V54.093q0-.828.311-1.139c.207-.206.586-.345 1.207-.413 1.242-.104 3.174-.173 5.831-.173h.414c3.519 0 5.934.69 7.279 2.035 1.035 1.105 1.553 2.76 1.553 5.003v1.173c0 2.587-.725 4.416-2.174 5.451-1.518 1.104-3.829 1.656-6.969 1.656zm17.678-7.728h.103c.759-1.242 2.036-1.863 3.864-1.863h1.38c.345 0 .621.069.759.207s.242.38.242.759v2.519c0 .379-.069.62-.207.759q-.207.207-.725.206h-1.035c-1.276 0-2.139.242-2.622.725-.414.414-.586 1.208-.586 2.38V74c0 .344-.104.62-.276.758-.173.173-.483.242-.897.242h-3.174c-.449 0-.759-.069-.932-.242-.172-.137-.241-.413-.241-.758V59.06c0-.345.069-.587.241-.724.173-.139.483-.242.932-.242h1.656c.379 0 .655.069.828.172q.258.208.414.621zM156.73 70.86h.38c1.173 0 2.415-.138 3.657-.448.345-.07.552-.104.655-.104.345 0 .552.207.621.586l.276 1.725c.069.484.138.794.138.932 0 .414-.31.724-.897.931-1.587.552-3.346.829-5.209.829h-.656q-4.244 0-6.003-1.76a4.95 4.95 0 0 1-1.38-2.346c-.241-.897-.345-2.105-.345-3.588v-1.932c0-3.001.69-5.106 2.07-6.348 1.173-1.035 2.967-1.553 5.417-1.553h.483c2.415 0 4.174.587 5.209 1.726 1.104 1.242 1.656 3.277 1.656 6.175v1.794c0 .656-.345.966-1 .966h-8.28v.276c0 .828.207 1.38.69 1.69.448.311 1.276.449 2.518.449m-3.208-6.003h3.795c.276 0 .414-.138.414-.448v-.553c0-.69-.138-1.207-.345-1.587-.276-.413-.828-.62-1.587-.62h-.311c-.69 0-1.173.172-1.449.483q-.517.62-.517 1.863zm27.118-.621v9.763c0 .346-.104.622-.276.76-.173.172-.483.241-.897.241h-3.174c-.449 0-.759-.069-.932-.242-.172-.137-.241-.413-.241-.758v-9.764c0-.759-.138-1.311-.38-1.587-.276-.276-.793-.449-1.518-.449h-.069c-.759 0-1.242.173-1.518.449s-.379.828-.379 1.587v9.763c0 .346-.104.622-.276.76-.173.172-.483.241-.897.241h-3.174c-.449 0-.759-.069-.932-.242-.172-.137-.241-.413-.241-.758V59.06c0-.345.069-.587.241-.724.173-.139.483-.242.932-.242h1.621c.414 0 .69.069.863.172q.258.156.414.621l.207.656h.103c1.104-1.173 2.657-1.76 4.727-1.76h.138c1.966 0 3.484.553 4.554 1.587 1.104-1.035 2.691-1.587 4.692-1.587h.138c2.001 0 3.484.483 4.381 1.415.828.897 1.277 2.415 1.277 4.554v10.246c0 .346-.104.622-.276.76-.173.172-.483.241-.897.241h-3.174c-.449 0-.759-.069-.932-.242-.172-.137-.241-.413-.241-.758v-9.764c0-.759-.138-1.311-.38-1.587-.276-.276-.793-.449-1.518-.449h-.069c-.759 0-1.242.173-1.518.449s-.379.828-.379 1.587m18.244-5.14V74c0 .344-.103.62-.276.758-.172.173-.483.242-.897.242h-3.174c-.448 0-.759-.069-.931-.242-.173-.137-.242-.413-.242-.758V59.096c0-.345.069-.587.242-.76.172-.137.483-.241.931-.241h3.174c.414 0 .725.104.897.242.173.172.276.413.276.758m-2.553-2.312h-.414c-1.863 0-2.794-.931-2.794-2.864v-.172c0-1.898.931-2.863 2.794-2.863h.414c1.863 0 2.795.965 2.795 2.863v.172c0 1.932-.932 2.864-2.795 2.864m15.202 12.04v-9.728c0-.345.069-.587.241-.76.173-.137.483-.241.932-.241h3.174c.414 0 .724.104.897.242.172.172.276.413.276.758v10.213q0 3.156-1.553 4.554c-1.104.966-3.036 1.449-5.865 1.449s-4.795-.484-5.865-1.45q-1.552-1.397-1.552-4.553V59.095c0-.344.069-.586.241-.758.173-.139.483-.242.932-.242h3.174c.414 0 .724.104.897.242.172.172.276.413.276.758v9.73c0 .793.103 1.31.379 1.587.276.31.759.448 1.518.448.725 0 1.242-.138 1.518-.448.242-.277.38-.794.38-1.588m23.687-4.588v9.763c0 .346-.104.622-.276.76-.173.172-.483.241-.897.241h-3.174c-.449 0-.759-.069-.932-.242-.172-.137-.241-.413-.241-.758v-9.764c0-.759-.138-1.311-.38-1.587-.276-.276-.793-.449-1.518-.449h-.069c-.759 0-1.242.173-1.518.449s-.379.828-.379 1.587v9.763c0 .346-.104.622-.276.76-.173.172-.483.241-.897.241h-3.174c-.449 0-.759-.069-.932-.242-.172-.137-.241-.413-.241-.758V59.06c0-.345.069-.587.241-.724.173-.139.483-.242.932-.242h1.621c.414 0 .69.069.863.172q.258.156.414.621l.207.656h.103c1.104-1.173 2.657-1.76 4.727-1.76h.138c1.966 0 3.484.553 4.554 1.587 1.104-1.035 2.691-1.587 4.692-1.587h.138c2.001 0 3.484.483 4.381 1.415.828.897 1.277 2.415 1.277 4.554v10.246c0 .346-.104.622-.276.76-.173.172-.483.241-.897.241h-3.174c-.449 0-.759-.069-.932-.242-.172-.137-.241-.413-.241-.758v-9.764c0-.759-.138-1.311-.38-1.587-.276-.276-.793-.449-1.518-.449h-.069c-.759 0-1.242.173-1.518.449s-.379.828-.379 1.587m27.759 9.177h-.931c-4.899 0-7.314-2.208-7.314-6.659v-2.311c0-2.277.586-3.933 1.794-5.037 1.173-1.07 3.001-1.621 5.416-1.621h.483c.449-2.484 2.277-3.761 5.52-3.761h1.691c.345 0 .552.069.69.172.103.139.172.38.172.725v1.898c0 .344-.069.551-.207.655-.138.138-.379.173-.69.173h-1.621c-.759 0-1.277.172-1.587.517 2.587.69 3.898 2.794 3.898 6.279v2.311c0 2.484-.69 4.14-2.035 5.037.897.484 1.587 1.105 2.104 1.864.518.758.794 1.587.794 2.449v.242c0 3.415-2.726 5.105-8.108 5.105h-.655c-2.346 0-4.623-.413-6.762-1.241-.621-.207-.863-.656-.69-1.311l.621-2.209c.172-.655.586-.897 1.242-.69 2.035.69 3.829 1.001 5.416 1.001h.483q3.002 0 3.002-1.76v-.103c0-.656-.345-1.242-1.035-1.794-.552.069-1.139.069-1.691.069m-.586-4.312h.241c.759 0 1.277-.138 1.622-.483.379-.38.586-1.173.586-2.346v-1.346c0-1.173-.207-1.932-.586-2.346-.345-.31-.863-.483-1.622-.483h-.241c-.759 0-1.311.172-1.622.483-.414.414-.586 1.173-.586 2.346v1.346c0 1.172.172 1.966.586 2.346.311.345.863.483 1.622.483m15.334-9.143h.103c.759-1.242 2.036-1.863 3.864-1.863h1.38c.345 0 .621.069.759.207s.242.38.242.759v2.519c0 .379-.069.62-.207.759q-.207.207-.725.206h-1.035c-1.276 0-2.139.242-2.622.725-.414.414-.586 1.208-.586 2.38V74c0 .344-.104.62-.276.758-.173.173-.483.242-.897.242h-3.174c-.449 0-.759-.069-.932-.242-.172-.137-.241-.413-.241-.758V59.06c0-.345.069-.587.241-.724.173-.139.483-.242.932-.242h1.656c.379 0 .655.069.828.172q.258.208.414.621zm17.819 13.627h-.069c-.759 1.174-2.277 1.726-4.519 1.726h-.518c-1.759 0-3.139-.449-4.105-1.346-1.001-.897-1.484-2.243-1.484-3.968v-.379c0-1.863.518-3.209 1.587-3.968 1.07-.759 2.795-1.138 5.21-1.138h.241c.897 0 1.725.069 2.415.138v-.725c0-.724-.207-1.241-.586-1.517-.414-.242-1.104-.38-2.07-.38-1.173 0-2.484.207-4.002.587-.414.103-.725.103-.863 0-.172-.104-.276-.311-.31-.656l-.276-1.829c-.069-.31-.069-.552-.069-.69 0-.413.276-.724.828-.896 1.759-.483 3.726-.76 5.899-.76 2.657 0 4.554.587 5.658 1.691.863.897 1.311 2.346 1.311 4.313v10.246c0 .345-.103.621-.276.759-.172.138-.483.207-.897.207h-1.621c-.414 0-.69-.034-.863-.138-.172-.103-.31-.31-.414-.655zm-1.242-4.415v-.966q-.568-.105-1.656-.104h-.379q-1.242 0-1.76.31c-.345.208-.483.621-.483 1.243v.137c0 .621.138 1.035.483 1.242.311.242.794.346 1.449.346h.242c.69 0 1.207-.173 1.621-.518.311-.276.483-.862.483-1.69m19.59 2.587v1.966c0 .518-.104.863-.242 1.035-.138.173-.448.242-.862.242h-2.76c-2.484 0-4.14-.414-4.899-1.276-.69-.725-1.001-2.105-1.001-4.175v-7.142h-1.863c-.345 0-.552-.034-.69-.172s-.172-.345-.172-.69v-1.76c0-.413.034-.69.172-.827.104-.139.345-.242.725-.346l1.828-.448v-3.381c0-.345.069-.587.242-.759.172-.138.483-.242.931-.242h3.174c.414 0 .725.104.897.242.173.172.276.414.276.759v3.312h2.864c.345 0 .552.069.69.207s.207.38.207.794v2.311q0 .621-.207.828c-.138.138-.345.172-.69.172h-2.864v6.521c0 .621.069 1 .276 1.207.207.242.656.346 1.346.346h1.518c.414 0 .724.103.862.276.138.172.242.517.242 1m8.2-12.662V74c0 .346-.104.622-.276.76-.173.172-.483.241-.897.241h-3.174c-.449 0-.759-.069-.932-.242-.172-.137-.241-.413-.241-.758V59.096c0-.345.069-.587.241-.76.173-.137.483-.241.932-.241h3.174c.414 0 .724.104.897.242.172.172.276.413.276.758m-2.553-2.311h-.414c-1.863 0-2.795-.931-2.795-2.864v-.172c0-1.898.932-2.863 2.795-2.863h.414c1.863 0 2.794.965 2.794 2.863v.172c0 1.932-.931 2.864-2.794 2.864m5.679 6.866V63.2c0-1.69.449-2.967 1.346-3.864 1.035-1.035 2.794-1.553 5.244-1.553h.345c1.932 0 3.622.208 5.037.622q.414.154.517.31c.069.138.104.31.069.587l-.379 2.829c-.069.448-.38.586-.932.448-1.38-.31-2.622-.483-3.657-.483h-.034c-.759 0-1.311.069-1.587.207-.311.138-.449.38-.449.724v.104c0 .345.104.587.38.724.276.139.793.311 1.587.449l1.621.345c1.484.345 2.553.862 3.174 1.552s.932 1.76.932 3.174v.518c0 3.622-2.277 5.416-6.762 5.416h-.345c-2.277 0-4.175-.31-5.762-.931-.31-.104-.517-.242-.586-.414-.069-.138-.069-.414 0-.794l.483-2.277c.103-.655.483-.862 1.173-.655 1.587.552 2.967.793 4.14.793h.103c.759 0 1.277-.069 1.587-.241.276-.138.449-.414.449-.793v-.104a.74.74 0 0 0-.38-.656q-.414-.207-1.656-.517l-1.518-.345q-2.277-.518-3.208-1.553c-.621-.69-.932-1.724-.932-3.173"/></svg>