<svg xmlns="http://www.w3.org/2000/svg" fill="none" viewBox="0 0 128 38"><path fill="#000" d="M16.782 11.457h4.808v2.039h-8.156v-1.597l4.656-5.505h-4.537V4.355h7.884v1.597zm13.016-7.102h2.65v9.14h-2.531v-1.053c-.663.799-1.631 1.19-2.854 1.19-2.583 0-4.57-1.835-4.57-4.707s1.987-4.706 4.57-4.706c1.121 0 2.072.357 2.735 1.104zm-2.277 7.102c1.309 0 2.328-.952 2.328-2.532s-1.02-2.531-2.328-2.531c-1.325 0-2.344.951-2.344 2.531s1.02 2.532 2.344 2.532m12.09-5.522-1.904 1.427v6.134h-2.65V9.35l-.935.697-.985-1.326 1.92-1.444V.89h2.65v4.383l.935-.696zm3.553-2.752L45.457.736h2.855l-3.076 2.447zm1.58 10.449c-2.906 0-5.03-1.954-5.03-4.707 0-2.752 2.124-4.706 5.03-4.706 2.905 0 5.012 1.954 5.012 4.706s-2.107 4.707-5.012 4.707m0-2.175c1.325 0 2.327-.952 2.327-2.532s-1.002-2.531-2.327-2.531c-1.326 0-2.345.951-2.345 2.531s1.02 2.532 2.345 2.532m10.116-8.36c-.832 0-1.427-.61-1.427-1.443 0-.816.595-1.428 1.427-1.428s1.427.612 1.427 1.428c0 .832-.594 1.444-1.427 1.444m-.73 8.36h4.808v2.039h-8.156v-1.597l4.656-5.505H50.9V4.355h7.884v1.597zm17.485-3.092 3.296 5.13h-3.007L69.32 9.538h-1.223v3.959h-2.65V.889h2.65v6.626h1.223l2.447-3.16h2.956zm8.37 5.267c-2.906 0-5.03-1.954-5.03-4.707 0-2.752 2.124-4.706 5.03-4.706 2.905 0 5.011 1.954 5.011 4.706s-2.106 4.707-5.012 4.707m0-2.175c1.325 0 2.327-.952 2.327-2.532s-1.002-2.531-2.328-2.531-2.344.951-2.344 2.531 1.02 2.532 2.344 2.532m12.56-7.238c2.157 0 3.788 1.257 3.788 4.044v5.233h-2.65V8.67c0-1.478-.68-2.157-1.852-2.157-1.274 0-2.192.781-2.192 2.463v4.52h-2.65V6.394h-1.02V4.355h3.144l.136 1.427c.696-1.02 1.886-1.563 3.296-1.563m10.994 6.966.696 1.869c-.543.39-1.342.578-2.14.578-2.175 0-3.415-1.105-3.415-3.28V2.333h2.65v2.022h2.26v2.022h-2.26v3.942c0 .781.408 1.206 1.122 1.206.39 0 .781-.12 1.087-.34m6.261 2.447c-2.905 0-5.029-1.954-5.029-4.707 0-2.752 2.124-4.706 5.029-4.706s5.012 1.954 5.012 4.706-2.107 4.707-5.012 4.707m0-2.175c1.325 0 2.327-.952 2.327-2.532s-1.002-2.531-2.327-2.531-2.345.951-2.345 2.531 1.02 2.532 2.345 2.532M2.555 24.08c-.986 0-1.648-.646-1.648-1.478 0-.833.662-1.479 1.648-1.479s1.648.612 1.648 1.428c0 .883-.663 1.529-1.648 1.529M1.229 34.496v-9.141h2.65v9.14zm12.64-2.04h4.809v2.04h-8.155v-1.597l4.655-5.505h-4.536v-2.039h7.883v1.597zm13.133-7.101h2.65v7.612c0 3.398-1.783 4.96-4.977 4.96-1.682 0-3.313-.424-4.35-1.257l1.054-1.903c.747.63 1.936 1.02 3.092 1.02 1.767 0 2.531-.833 2.531-2.48V33c-.696.696-1.648 1.053-2.701 1.053-2.294 0-3.908-1.274-3.908-4.112v-4.587h2.65v4.197c0 1.546.68 2.225 1.853 2.225 1.223 0 2.106-.781 2.106-2.463zm8.196 9.277c-1.546 0-3.109-.425-3.958-.986l.883-1.903c.816.527 2.056.884 3.177.884 1.224 0 1.682-.323 1.682-.833 0-1.495-5.521.034-5.521-3.619 0-1.733 1.563-2.956 4.23-2.956 1.257 0 2.65.289 3.517.799l-.883 1.886c-.901-.51-1.801-.68-2.634-.68-1.19 0-1.699.374-1.699.85 0 1.563 5.522.05 5.522 3.652 0 1.7-1.58 2.906-4.316 2.906m12.118-5.267 3.296 5.13h-3.007l-2.582-3.958h-1.224v3.959h-2.65V21.889h2.65v6.626h1.224l2.446-3.16h2.957zm10.646-4.01h2.65v9.14h-2.53v-1.053c-.663.799-1.632 1.19-2.855 1.19-2.582 0-4.57-1.835-4.57-4.707s1.988-4.706 4.57-4.706c1.121 0 2.073.357 2.736 1.104zm-2.276 7.102c1.308 0 2.328-.952 2.328-2.532s-1.02-2.531-2.328-2.531c-1.325 0-2.345.951-2.345 2.531s1.02 2.532 2.345 2.532m8.81-8.376c-.986 0-1.648-.646-1.648-1.478 0-.833.662-1.479 1.648-1.479s1.648.612 1.648 1.428c0 .883-.663 1.529-1.648 1.529m-1.818 13.847c-.731 0-1.377-.153-1.903-.51l.713-1.92c.272.204.544.323.9.323.46 0 .782-.323.782-.986v-9.48h2.65v9.327c0 2.005-1.138 3.246-3.142 3.246m16.12-12.709c2.158 0 3.79 1.257 3.79 4.044v5.233h-2.651V29.67c0-1.478-.68-2.157-1.852-2.157-1.274 0-2.192.781-2.192 2.463v4.52h-2.65v-7.102h-1.02v-2.039h3.143l.136 1.427c.697-1.02 1.886-1.563 3.296-1.563m12.879.136h2.65v9.14h-2.531v-1.053c-.663.799-1.631 1.19-2.855 1.19-2.582 0-4.57-1.835-4.57-4.707s1.988-4.706 4.57-4.706c1.122 0 2.073.357 2.736 1.104zM89.4 32.457c1.308 0 2.328-.952 2.328-2.532s-1.02-2.531-2.328-2.531c-1.325 0-2.344.951-2.344 2.531s1.019 2.532 2.344 2.532m19.65-7.102h2.344l-3.313 9.14h-2.548l-2.056-5.674-2.124 5.675h-2.548l-3.297-9.141h2.498l2.158 6.184 2.242-6.184h2.243l2.175 6.184zm11.601 4.604c0 .204-.034.493-.051.714h-6.915c.255 1.138 1.223 1.835 2.616 1.835.969 0 1.665-.289 2.294-.884l1.41 1.53c-.849.968-2.124 1.477-3.772 1.477-3.16 0-5.215-1.987-5.215-4.706 0-2.735 2.089-4.706 4.876-4.706 2.684 0 4.757 1.801 4.757 4.74m-4.74-2.735c-1.207 0-2.073.73-2.26 1.903h4.502c-.187-1.155-1.053-1.903-2.242-1.903m11.313 4.961.696 1.869c-.544.39-1.342.578-2.141.578-2.174 0-3.415-1.105-3.415-3.28v-8.019h2.651v2.022h2.26v2.022h-2.26v3.942c0 .781.408 1.206 1.121 1.206.391 0 .782-.12 1.088-.34"/></svg>