<svg xmlns="http://www.w3.org/2000/svg" fill="none" viewBox="0 0 184 113"><path fill="#fff" d="M.137 0h3.869l3.049 13.973L10.678.533h3.185l3.637 13.44L20.521 0h3.706l-4.909 18.676h-3.691L12.154 6.33 8.627 18.676H4.99zm25.375 11.95q0-1.45.478-2.694.492-1.245 1.367-2.16a6.5 6.5 0 0 1 2.106-1.463q1.23-.534 2.707-.533 1.791 0 3.035.656t1.996 1.723q.765 1.066 1.094 2.406.342 1.34.342 2.748v.465h-9.803q0 .725.328 1.326.329.588.834 1.011.519.41 1.176.643.67.219 1.312.219.957 0 1.668-.178a7.3 7.3 0 0 0 1.203-.424 4.6 4.6 0 0 0 1.327-.943l1.79 2.023-.464.465q-.368.369-1.094.793-.711.424-1.818.752-1.108.342-2.639.342-1.572 0-2.857-.533a6.6 6.6 0 0 1-2.202-1.463 6.4 6.4 0 0 1-1.408-2.256q-.478-1.326-.478-2.926m3.295-1.231h6.44q0-.506-.192-.998a2.8 2.8 0 0 0-.575-.916 2.9 2.9 0 0 0-.97-.67 3.14 3.14 0 0 0-1.34-.274q-.806 0-1.436.274a3.3 3.3 0 0 0-1.052.67 3 3 0 0 0-.657.916q-.218.506-.218.998m12.386 7.957V5.537h3.159l.082 1.49a8 8 0 0 1 .601-.588q.356-.314.848-.574a5.3 5.3 0 0 1 1.107-.424q.615-.177 1.395-.177 2.461 0 3.746 1.476 1.299 1.463 1.299 3.951v7.985H50.12v-7.957q0-1.258-.684-1.942-.683-.683-1.777-.683-.67 0-1.258.273-.588.26-1.011.738-.424.466-.67 1.108-.233.63-.233 1.353v7.11zm15.422 0V5.537h3.158l.082 1.49q.247-.273.602-.588.356-.314.848-.574a5.3 5.3 0 0 1 1.107-.424q.615-.177 1.395-.177 2.46 0 3.746 1.476 1.299 1.463 1.299 3.951v7.985h-3.309v-7.957q0-1.258-.684-1.942-.683-.683-1.777-.683-.67 0-1.258.273-.588.26-1.011.738-.424.466-.67 1.108-.233.63-.233 1.353v7.11zm19.866-6.33q0-1.545.437-2.694.45-1.161 1.121-1.982.561-.67 1.23-1.121.684-.451 1.368-.738.683-.301 1.326-.424a6 6 0 0 1 1.121-.123q.643 0 1.066.04.425.041.752.11.342.07.616.191l.642.247V0h3.281v18.676h-3.199l-.082-1.285q-.246.273-.615.588-.356.3-.848.56-.492.245-1.094.41a4.8 4.8 0 0 1-1.353.178q-1.066 0-2.106-.451a5.7 5.7 0 0 1-1.859-1.313q-.807-.874-1.312-2.133-.493-1.257-.492-2.884m3.322 0q0 1.68.834 2.802.847 1.122 2.447 1.122.834 0 1.422-.315.6-.328.957-.834.37-.505.533-1.107a4.4 4.4 0 0 0 .164-1.162V8.818a2.7 2.7 0 0 0-1.107-.547q-.63-.15-1.6-.15-.984 0-1.627.383a3.8 3.8 0 0 0-1.12.984 4.5 4.5 0 0 0-.67 1.313 5.1 5.1 0 0 0-.233 1.545m12.263-.397q0-1.45.479-2.693a6.6 6.6 0 0 1 1.367-2.16 6.5 6.5 0 0 1 2.106-1.463q1.23-.534 2.707-.533 1.79 0 3.035.656 1.244.656 1.996 1.723.765 1.066 1.094 2.406.34 1.34.341 2.748v.465h-9.802q0 .725.328 1.326.328.588.834 1.011.519.41 1.176.643.67.219 1.312.219.957 0 1.668-.178a7.3 7.3 0 0 0 1.203-.424 4.6 4.6 0 0 0 1.326-.943l1.791 2.023-.465.465q-.369.369-1.093.793-.71.424-1.819.752-1.107.342-2.638.342-1.572 0-2.858-.533a6.6 6.6 0 0 1-2.2-1.463 6.4 6.4 0 0 1-1.41-2.256q-.478-1.326-.478-2.926m3.295-1.23h6.44q0-.506-.192-.998a2.8 2.8 0 0 0-.574-.916 2.9 2.9 0 0 0-.971-.67 3.1 3.1 0 0 0-1.34-.274q-.806 0-1.435.274a3.3 3.3 0 0 0-1.053.67 3 3 0 0 0-.656.916 2.5 2.5 0 0 0-.219.998m12.414-7.246V0h3.528v3.473zm.11 15.203V5.537h3.308v13.139zm6.699 0V5.537h3.158l.082 1.49q.246-.273.602-.588.355-.314.847-.574a5.3 5.3 0 0 1 1.108-.424q.615-.177 1.394-.177 2.462 0 3.746 1.476 1.299 1.463 1.299 3.951v7.985h-3.308v-7.957q0-1.258-.684-1.942t-1.777-.683q-.67 0-1.258.273-.588.26-1.012.738a3.5 3.5 0 0 0-.67 1.108q-.232.63-.232 1.353v7.11zM.724 46.682l2.475-2.27q.342.396.793.834.464.424 1.04.807.573.37 1.284.629a4.9 4.9 0 0 0 1.614.246q1.654 0 2.447-.752.793-.753.793-1.819 0-.587-.219-1.052t-.752-.807q-.533-.356-1.394-.629a17 17 0 0 0-2.106-.533q-1.286-.246-2.228-.78a5.9 5.9 0 0 1-1.559-1.27 5.1 5.1 0 0 1-.93-1.6q-.3-.89-.3-1.819 0-1.065.382-2.023a4.7 4.7 0 0 1 1.204-1.71q.819-.737 2.037-1.189 1.216-.45 2.87-.45 1.491 0 2.544.34 1.065.33 1.777.78.724.451 1.108.889.396.423.574.629l-2.325 2.174a11 11 0 0 1-.45-.397 4.2 4.2 0 0 0-.78-.574q-.45-.287-1.107-.506a4.2 4.2 0 0 0-1.45-.232q-.725 0-1.257.205a2.7 2.7 0 0 0-.89.506q-.34.3-.519.683-.164.369-.164.711 0 .506.178.902.192.383.615.725.437.329 1.19.602.765.26 1.914.492 1.093.219 2.092.67 1.011.45 1.777 1.162.78.711 1.23 1.736.465 1.026.465 2.448 0 1.23-.506 2.269a5.5 5.5 0 0 1-1.394 1.818q-.89.78-2.133 1.217-1.23.438-2.68.438-1.394 0-2.529-.342a9.5 9.5 0 0 1-2.05-.848 8.8 8.8 0 0 1-1.573-1.135 12 12 0 0 1-1.107-1.175m17.364 2.994V36.537h3.158l.082 1.49q.247-.273.574-.601.33-.328.78-.574.465-.246 1.066-.41.615-.179 1.395-.178 2.597 0 3.95 1.9 1.013-1.039 2.052-1.463 1.052-.437 2.447-.437 2.488 0 3.814 1.476 1.34 1.463 1.34 3.951v7.985h-3.295v-7.957q0-1.258-.642-1.942-.63-.683-1.71-.683-.669 0-1.243.273-.561.26-.971.739-.397.464-.616 1.107-.204.63-.204 1.353v7.11h-3.296v-7.957q0-1.258-.628-1.942-.63-.683-1.723-.683-.67 0-1.23.273-.561.26-.971.739a3.2 3.2 0 0 0-.63 1.107q-.204.63-.204 1.353v7.11zm22.996-3.842q0-1.121.424-1.996a4.2 4.2 0 0 1 1.176-1.49q.75-.602 1.818-.903a8.3 8.3 0 0 1 2.351-.314 31 31 0 0 1 1.791.054q.506.029 1.04.069v-.314q0-.986-.793-1.545-.78-.561-2.038-.561-1.395 0-2.242.37-.834.368-1.476.778l-1.518-2.228q.397-.273.903-.574t1.175-.533a9 9 0 0 1 1.545-.397q.889-.15 2.065-.15 1.258 0 2.283.355a5.1 5.1 0 0 1 1.75.97q.725.63 1.121 1.518.396.876.396 1.914v8.819h-3.09l-.081-1.23q-.534.642-1.627 1.148-1.094.506-2.434.506a5.2 5.2 0 0 1-1.613-.26 4.4 4.4 0 0 1-1.45-.766 3.9 3.9 0 0 1-1.066-1.326q-.41-.82-.41-1.914m3.172-.137q0 .834.601 1.313.602.478 1.778.478.588 0 1.135-.191.546-.191.957-.533.423-.342.683-.78.274-.45.274-.957v-1.285l-.985-.054a22 22 0 0 0-.834-.041q-.424-.014-.724-.014-1.6 0-2.243.629t-.642 1.435m11.785 3.979V36.537h3.158l.082 1.654q.219-.273.575-.601.354-.342.834-.615a5.4 5.4 0 0 1 1.107-.493q.63-.204 1.435-.191.48 0 .848.055.382.054.78.191l-.67 3.117a3.2 3.2 0 0 0-.698-.191 4.2 4.2 0 0 0-.82-.069q-.67 0-1.285.233a3 3 0 0 0-1.067.642q-.45.424-.724 1.012-.26.588-.26 1.313v7.082zm9.57-10.446v-2.693h2.242v-4.252h3.295v4.252h3.528v2.694h-3.528v5.742q0 1.12.383 1.722t1.217.602q.78 0 1.244-.219.465-.233.889-.533l1.394 2.037q-.984.807-1.941 1.162-.943.356-2.12.356-1.202 0-2.05-.356a3.3 3.3 0 0 1-1.353-.984 4 4 0 0 1-.739-1.559 8.7 8.7 0 0 1-.219-2.01v-5.96zm16.68 7.452 2.475-2.27q.341.396.793.834.465.424 1.039.807.573.37 1.285.629a4.9 4.9 0 0 0 1.613.246q1.655 0 2.447-.752.793-.753.793-1.819 0-.587-.218-1.052-.22-.466-.752-.807-.533-.356-1.395-.629a17 17 0 0 0-2.105-.533q-1.285-.246-2.229-.78a5.9 5.9 0 0 1-1.559-1.27 5.1 5.1 0 0 1-.93-1.6q-.3-.89-.3-1.819 0-1.065.383-2.023a4.7 4.7 0 0 1 1.203-1.71q.82-.737 2.037-1.189 1.217-.45 2.871-.45 1.49 0 2.543.34 1.066.33 1.778.78.725.451 1.107.889.397.423.574.629l-2.324 2.174a11 11 0 0 1-.451-.397q-.315-.3-.78-.574-.45-.287-1.107-.506a4.2 4.2 0 0 0-1.45-.232q-.723 0-1.257.205a2.7 2.7 0 0 0-.889.506q-.341.3-.52.683-.163.369-.163.711 0 .506.178.902.19.383.615.725.437.329 1.19.602.765.26 1.913.492a9.7 9.7 0 0 1 2.092.67q1.012.45 1.777 1.162.78.711 1.23 1.736.466 1.026.466 2.448 0 1.23-.506 2.269a5.5 5.5 0 0 1-1.395 1.818q-.888.78-2.132 1.217-1.23.438-2.68.438-1.395 0-2.53-.342a9.5 9.5 0 0 1-2.05-.848 8.8 8.8 0 0 1-1.573-1.135q-.656-.615-1.107-1.175m17.363 8.6V36.536h3.186l.082 1.49q.246-.273.629-.587.383-.315.902-.561.519-.245 1.176-.41a5.7 5.7 0 0 1 1.476-.178q1.518 0 2.612.588a5.4 5.4 0 0 1 1.832 1.559 6.8 6.8 0 0 1 1.094 2.2q.369 1.231.369 2.544 0 1.545-.451 2.638a7.6 7.6 0 0 1-1.122 1.9q-1.12 1.34-2.447 1.874a7.3 7.3 0 0 1-2.734.533q-.643 0-1.108-.055a5.4 5.4 0 0 1-.847-.164 7 7 0 0 1-.698-.218 38 38 0 0 0-.683-.26v5.851zm3.268-8.833q.984.807 2.967.82.901 0 1.599-.341a3.9 3.9 0 0 0 1.19-.93q.492-.575.738-1.299.26-.738.26-1.517 0-.834-.192-1.559a3.45 3.45 0 0 0-.588-1.285 2.74 2.74 0 0 0-1.039-.861q-.642-.33-1.599-.329-.752 0-1.367.329-.616.315-1.053.82-.438.506-.684 1.107a3.2 3.2 0 0 0-.232 1.162zm12.113-3.5q0-1.45.479-2.693.492-1.245 1.367-2.16a6.5 6.5 0 0 1 2.105-1.463q1.231-.534 2.707-.533 1.791 0 3.036.656 1.243.656 1.996 1.722.766 1.068 1.093 2.407.342 1.34.342 2.748v.465h-9.803q0 .724.329 1.326.327.588.834 1.011.52.41 1.175.643.67.219 1.313.219.957 0 1.668-.178a7.3 7.3 0 0 0 1.203-.424 4.6 4.6 0 0 0 1.326-.943l1.791 2.023-.465.465q-.369.369-1.093.793-.711.424-1.819.752-1.107.342-2.639.342-1.572 0-2.857-.533a6.6 6.6 0 0 1-2.201-1.463 6.4 6.4 0 0 1-1.408-2.256q-.479-1.326-.479-2.926m3.295-1.23h6.44q0-.506-.192-.998a2.8 2.8 0 0 0-.574-.916 2.9 2.9 0 0 0-.971-.67 3.1 3.1 0 0 0-1.34-.274q-.806 0-1.435.274-.628.26-1.053.67a3 3 0 0 0-.656.916q-.219.506-.219.998m11.539 4.115q0-1.121.424-1.996a4.2 4.2 0 0 1 1.176-1.49q.751-.602 1.818-.903a8.3 8.3 0 0 1 2.352-.314 31 31 0 0 1 1.791.054q.505.029 1.039.069v-.314q0-.986-.793-1.545-.78-.561-2.037-.561-1.394 0-2.243.37a11 11 0 0 0-1.476.778l-1.518-2.228q.397-.273.903-.574t1.175-.533a9 9 0 0 1 1.545-.397q.89-.15 2.065-.15 1.257 0 2.283.355a5.1 5.1 0 0 1 1.75.97q.725.63 1.121 1.518.397.876.397 1.914v8.819h-3.09l-.082-1.23q-.534.642-1.627 1.148-1.094.506-2.434.506a5.2 5.2 0 0 1-1.613-.26 4.4 4.4 0 0 1-1.449-.766 3.94 3.94 0 0 1-1.067-1.326q-.41-.82-.41-1.914m3.172-.137q0 .834.602 1.313.601.478 1.777.478.588 0 1.135-.191a3.1 3.1 0 0 0 .957-.533 2.9 2.9 0 0 0 .683-.78q.274-.45.274-.957v-1.285l-.985-.054a22 22 0 0 0-.834-.041q-.424-.014-.724-.014-1.6 0-2.242.629-.643.629-.643 1.435m11.785 3.979V31h3.295v10.185l4.744-4.648h3.883l-4.922 4.854 5.483 8.285h-3.952l-3.8-6.043-1.436 1.394v4.649zm13.713-6.727q0-1.45.479-2.693.492-1.245 1.367-2.16a6.5 6.5 0 0 1 2.105-1.463q1.231-.534 2.707-.533 1.791 0 3.035.656t1.997 1.722q.765 1.068 1.093 2.407.342 1.34.342 2.748v.465h-9.803q0 .724.328 1.326.328.588.834 1.011.52.41 1.176.643.67.219 1.313.219.957 0 1.668-.178a7.3 7.3 0 0 0 1.203-.424 4.6 4.6 0 0 0 1.326-.943l1.791 2.023-.465.465q-.37.369-1.094.793-.711.424-1.818.752-1.107.342-2.639.342-1.572 0-2.857-.533a6.6 6.6 0 0 1-2.201-1.463 6.4 6.4 0 0 1-1.408-2.256q-.479-1.326-.479-2.926m3.295-1.23h6.439q0-.506-.191-.998a2.8 2.8 0 0 0-.574-.916 2.9 2.9 0 0 0-.971-.67 3.1 3.1 0 0 0-1.34-.274q-.806 0-1.435.274-.63.26-1.053.67a3 3 0 0 0-.656.916q-.219.506-.219.998m12.387 7.957V36.537h3.158l.082 1.654q.219-.273.574-.601a4.2 4.2 0 0 1 .834-.615 5.4 5.4 0 0 1 1.108-.493q.628-.204 1.435-.191.479 0 .848.055.383.054.779.191l-.67 3.117a3.2 3.2 0 0 0-.697-.191 4.2 4.2 0 0 0-.82-.069q-.67 0-1.286.233a3 3 0 0 0-1.066.642q-.451.424-.725 1.012-.26.588-.259 1.313v7.082zM.875 74.346q0-1.545.438-2.694.45-1.161 1.12-1.982.56-.67 1.231-1.121a8.4 8.4 0 0 1 1.367-.739q.684-.3 1.326-.423a6 6 0 0 1 1.122-.123q.642 0 1.066.04.423.042.752.11.342.069.615.192.287.108.643.246V62h3.28v18.676h-3.198l-.082-1.285q-.246.273-.616.587-.356.302-.847.561-.492.245-1.094.41a4.8 4.8 0 0 1-1.353.178q-1.066 0-2.106-.451a5.7 5.7 0 0 1-1.86-1.313q-.806-.875-1.312-2.132-.492-1.259-.492-2.885m3.322 0q0 1.68.834 2.802.848 1.121 2.448 1.121.834 0 1.421-.314.601-.329.957-.834.37-.505.534-1.107a4.4 4.4 0 0 0 .164-1.162v-4.034a2.7 2.7 0 0 0-1.108-.546q-.628-.15-1.6-.15-.984 0-1.626.382a3.8 3.8 0 0 0-1.121.984 4.5 4.5 0 0 0-.67 1.313 5.1 5.1 0 0 0-.233 1.545m12.907-8.873V62h3.527v3.473zm.109 15.203V67.537h3.308v13.139zm6.084-6.576q0-1.422.52-2.694.519-1.286 1.435-2.228a6.9 6.9 0 0 1 2.229-1.518q1.298-.56 2.87-.56 1.6 0 2.913.574a6.9 6.9 0 0 1 2.242 1.545L33.4 71.352a4 4 0 0 0-1.312-.999q-.752-.369-1.736-.369-.958 0-1.655.356a3.5 3.5 0 0 0-1.162.902q-.465.56-.697 1.313a5.5 5.5 0 0 0-.219 1.545q0 .751.219 1.49.232.724.697 1.312t1.162.957q.698.356 1.655.356a4.13 4.13 0 0 0 3.158-1.408l1.968 2.132a7.1 7.1 0 0 1-2.187 1.573q-1.257.588-2.94.588-1.68 0-3.007-.506-1.313-.506-2.215-1.422a6.4 6.4 0 0 1-1.367-2.215q-.465-1.299-.465-2.857m14.396 6.576V62h3.24v6.89q.507-.56 1.477-1.093t2.475-.533q1.203 0 2.146.396a4.05 4.05 0 0 1 1.586 1.108q.643.711.97 1.722.343 1 .343 2.201v7.985H46.62v-7.957q0-1.258-.684-1.942-.683-.683-1.777-.683-.67 0-1.258.273-.588.26-1.011.739-.424.464-.67 1.107-.233.63-.233 1.353v7.11zm20.48 0V67.537h3.159l.082 1.49q.246-.273.602-.588t.847-.574a5.3 5.3 0 0 1 1.108-.424q.615-.177 1.394-.177 2.461 0 3.746 1.476 1.3 1.464 1.3 3.951v7.985H67.1v-7.957q0-1.258-.683-1.942-.684-.683-1.777-.683-.67 0-1.258.273-.589.26-1.012.739-.423.464-.67 1.107-.232.63-.232 1.353v7.11zm15.45-15.203V62h3.527v3.473zm.11 15.203V67.537h3.308v13.139zm6.083-6.576q0-1.422.52-2.694.52-1.286 1.436-2.228A6.9 6.9 0 0 1 84 67.66q1.299-.56 2.871-.56 1.6 0 2.912.574a6.9 6.9 0 0 1 2.242 1.545l-2.105 2.133a4 4 0 0 0-1.313-.999q-.751-.369-1.736-.369-.958 0-1.654.356a3.5 3.5 0 0 0-1.162.902 3.8 3.8 0 0 0-.698 1.313 5.5 5.5 0 0 0-.218 1.545q0 .751.218 1.49.233.724.698 1.312t1.162.957q.697.356 1.654.356a4.13 4.13 0 0 0 3.158-1.408l1.969 2.132a7.1 7.1 0 0 1-2.187 1.573q-1.258.588-2.94.588t-3.008-.506q-1.312-.506-2.215-1.422a6.4 6.4 0 0 1-1.367-2.215q-.465-1.299-.465-2.857m14.397 6.576V62h3.24v6.89q.506-.56 1.477-1.093.97-.533 2.474-.533 1.203 0 2.147.396a4.06 4.06 0 0 1 1.586 1.108 4.7 4.7 0 0 1 .97 1.722q.342 1 .342 2.201v7.985h-3.308v-7.957q0-1.258-.684-1.942t-1.777-.683q-.67 0-1.258.273-.588.26-1.012.739a3.5 3.5 0 0 0-.67 1.107q-.232.63-.232 1.353v7.11zm14.301-10.445v-2.694h2.242v-4.252h3.295v4.252h3.527v2.694h-3.527v5.742q0 1.12.383 1.722.382.602 1.216.602.78 0 1.245-.219.464-.233.888-.533l1.395 2.037q-.985.807-1.942 1.162-.943.356-2.119.356-1.203 0-2.051-.356a3.3 3.3 0 0 1-1.353-.984 4 4 0 0 1-.738-1.559 8.6 8.6 0 0 1-.219-2.01v-5.96zM0 98.537h3.814l3.528 9.42 3.527-9.42h3.61L8.94 111.676H5.578zm15.64 6.412q0-1.45.48-2.693.491-1.245 1.366-2.16a6.5 6.5 0 0 1 2.106-1.463q1.23-.534 2.707-.533 1.791 0 3.035.656t1.996 1.723q.765 1.066 1.094 2.406.342 1.34.342 2.748v.465h-9.803q0 .724.328 1.326.329.588.834 1.012a4.1 4.1 0 0 0 1.176.642 4.2 4.2 0 0 0 1.312.219q.957 0 1.668-.178a7 7 0 0 0 1.203-.424 4.5 4.5 0 0 0 1.326-.943l1.792 2.023-.465.465q-.37.37-1.094.793-.711.424-1.818.752-1.108.342-2.64.342-1.571 0-2.857-.533a6.6 6.6 0 0 1-2.2-1.463 6.4 6.4 0 0 1-1.409-2.256q-.478-1.326-.478-2.926m3.296-1.23h6.439q0-.506-.191-.998a2.8 2.8 0 0 0-.575-.916 2.9 2.9 0 0 0-.97-.67 3.1 3.1 0 0 0-1.34-.274q-.806 0-1.436.274-.629.26-1.052.67a3 3 0 0 0-.657.916q-.218.506-.218.998m12.386 7.957V98.537h3.159l.081 1.654q.22-.273.575-.601a4.2 4.2 0 0 1 .834-.615 5.4 5.4 0 0 1 1.107-.493q.63-.204 1.436-.191.478 0 .847.055.383.054.78.191l-.67 3.117a3.2 3.2 0 0 0-.698-.191 4.2 4.2 0 0 0-.82-.068q-.67 0-1.285.232-.615.219-1.066.643-.452.423-.725 1.011-.26.588-.26 1.313v7.082zm10.05-1.6 1.981-2.146q.616.615 1.545 1.025.944.397 2.147.397 1.065 0 1.709-.274.642-.287.643-.93 0-.273-.11-.505-.11-.246-.478-.465-.356-.233-.998-.451-.644-.233-1.737-.479-.67-.164-1.408-.451a5.7 5.7 0 0 1-1.353-.766 4.3 4.3 0 0 1-1.04-1.176q-.396-.696-.396-1.64 0-.984.465-1.75.478-.78 1.244-1.285a6.2 6.2 0 0 1 1.736-.793 6.9 6.9 0 0 1 1.955-.287q1.737 0 2.953.369a7 7 0 0 1 2.202 1.08l-1.71 2.324q-.532-.396-1.407-.711-.862-.328-2.038-.328t-1.64.355q-.465.356-.465.848 0 .615.766.971.778.356 2.406.738a10 10 0 0 1 1.804.561q.794.342 1.368.847.573.507.875 1.19.315.683.314 1.64 0 .957-.451 1.723-.437.765-1.217 1.299a5.9 5.9 0 0 1-1.79.82 7.7 7.7 0 0 1-2.175.301q-1.845 0-3.336-.52-1.476-.519-2.365-1.531m12.892-8.846v-2.693h2.242v-4.252H59.8v4.252h3.527v2.693h-3.527v5.743q0 1.12.383 1.722.382.602 1.216.602.78 0 1.245-.219.465-.233.888-.533l1.395 2.037q-.985.807-1.942 1.162-.943.356-2.119.356-1.203 0-2.05-.356a3.3 3.3 0 0 1-1.354-.984 4 4 0 0 1-.738-1.559 8.7 8.7 0 0 1-.22-2.01v-5.961zm11.771 3.719q0-1.45.479-2.693.492-1.245 1.367-2.16a6.5 6.5 0 0 1 2.105-1.463q1.23-.534 2.707-.533 1.791 0 3.035.656t1.997 1.723q.765 1.066 1.093 2.406.342 1.34.342 2.748v.465h-9.803q0 .724.329 1.326.327.588.833 1.012a4.1 4.1 0 0 0 1.176.642 4.2 4.2 0 0 0 1.313.219q.957 0 1.668-.178a7 7 0 0 0 1.203-.424 4.5 4.5 0 0 0 1.326-.943l1.791 2.023-.465.465q-.368.37-1.094.793-.711.424-1.818.752-1.107.342-2.638.342-1.573 0-2.858-.533a6.6 6.6 0 0 1-2.201-1.463 6.4 6.4 0 0 1-1.408-2.256q-.48-1.326-.479-2.926m3.295-1.23h6.44q0-.506-.192-.998a2.8 2.8 0 0 0-.574-.916 2.9 2.9 0 0 0-.97-.67 3.1 3.1 0 0 0-1.34-.274q-.807 0-1.436.274-.63.26-1.053.67a3 3 0 0 0-.656.916 2.5 2.5 0 0 0-.219.998m12.387 7.957V93h3.24v6.89q.506-.56 1.477-1.093.97-.533 2.474-.533 1.203 0 2.147.396a4.05 4.05 0 0 1 1.586 1.108q.642.711.97 1.722a6.8 6.8 0 0 1 .342 2.201v7.985h-3.309v-7.957q0-1.258-.683-1.942-.684-.683-1.777-.683a2.95 2.95 0 0 0-1.258.273 2.9 2.9 0 0 0-1.012.738q-.424.465-.67 1.108-.232.629-.232 1.353v7.11zm14.3-10.446v-2.693h2.243v-4.252h3.295v4.252h3.527v2.693h-3.527v5.743q0 1.12.383 1.722.382.602 1.216.602.78 0 1.244-.219.466-.233.889-.533l1.395 2.037q-.985.807-1.942 1.162-.943.356-2.119.356-1.203 0-2.051-.356a3.3 3.3 0 0 1-1.353-.984 4 4 0 0 1-.739-1.559 8.7 8.7 0 0 1-.218-2.01v-5.961zm12.661 10.446v-3.869h4.006v3.869zm7.82 0v-3.869h4.006v3.869zm7.82 0v-3.869h4.006v3.869z"/></svg>