<svg xmlns="http://www.w3.org/2000/svg" fill="none" viewBox="0 0 278 9"><path fill="#fff" d="m0 2.285.998-.523L0 1.24.413.523l.954.602L1.323 0h.826l-.035 1.125.936-.602.413.716-.98.523.98.523-.413.72-.936-.601.035 1.125h-.826l.044-1.125-.954.602zm6.24 4.14V.422h1.143l2.909 4.267V.422h1.107v6.003h-1.116l-2.935-4.32v4.32zm6.32-4.887V.422h1.133v1.116zm.035 4.887V2.202h1.063v4.223zM14.55 4.31q0-.457.167-.866.167-.413.462-.716.299-.308.716-.488t.923-.18q.515 0 .936.185.422.184.72.496l-.676.686a1.252 1.252 0 0 0-.98-.44q-.308 0-.532.115-.225.11-.373.29-.15.18-.225.421-.07.242-.07.497 0 .241.07.479.075.233.225.422t.373.308q.225.114.532.114a1.33 1.33 0 0 0 1.015-.453l.633.686q-.3.316-.703.505a2.2 2.2 0 0 1-.945.189q-.54 0-.967-.163a2 2 0 0 1-.712-.457q-.285-.298-.44-.712-.149-.417-.149-.918m4.628 2.114V.422h1.041v2.215q.163-.18.475-.352t.795-.171q.387 0 .69.127.307.123.51.356.207.229.312.554.11.321.11.707v2.567h-1.064V3.867q0-.404-.22-.624a.77.77 0 0 0-.57-.22.95.95 0 0 0-.405.088.9.9 0 0 0-.325.238q-.137.15-.216.356-.075.202-.074.435v2.285zm4.759-2.114q0-.457.167-.866.167-.413.461-.716.3-.308.717-.488t.923-.18q.505 0 .922.18t.712.488q.3.303.466.712.167.408.167.87a2.3 2.3 0 0 1-.633 1.59 2.2 2.2 0 0 1-.712.489q-.417.18-.922.18t-.923-.18a2.2 2.2 0 0 1-.717-.488 2.32 2.32 0 0 1-.628-1.591m1.068 0q0 .232.07.466.075.233.224.435.15.198.374.32.225.12.532.12t.531-.12q.225-.122.37-.32.149-.203.22-.435.074-.232.074-.466 0-.225-.075-.461a1.3 1.3 0 0 0-.22-.435 1.1 1.1 0 0 0-.373-.312 1.1 1.1 0 0 0-.527-.124q-.308 0-.532.124-.224.119-.374.312-.15.192-.224.435a1.6 1.6 0 0 0-.07.461m4.315 2.114V.422h1.06v6.003zm1.837-1.235q0-.36.137-.642.135-.285.377-.479.242-.193.585-.29.342-.1.756-.1a10 10 0 0 1 .575.017q.163.009.334.022v-.101a.57.57 0 0 0-.255-.497q-.25-.18-.654-.18-.45 0-.721.119-.268.118-.475.25l-.487-.716q.127-.088.29-.185a2 2 0 0 1 .378-.171 3 3 0 0 1 .496-.128q.285-.048.664-.048.404 0 .734.114.33.111.562.312.232.203.36.488.128.282.128.615v2.835h-.993l-.027-.396q-.17.207-.523.37a1.84 1.84 0 0 1-1.3.079 1.4 1.4 0 0 1-.466-.247 1.27 1.27 0 0 1-.475-1.041m1.02-.044q0 .269.193.422.194.154.571.154.19 0 .365-.062a1 1 0 0 0 .308-.171.9.9 0 0 0 .22-.25.6.6 0 0 0 .087-.308v-.413l-.584-.031-.233-.005q-.514 0-.72.203a.63.63 0 0 0-.207.461m3.581.765.637-.69q.198.197.497.33.303.127.69.127.343 0 .55-.088.206-.092.206-.299a.4.4 0 0 0-.035-.163.36.36 0 0 0-.154-.149 1.5 1.5 0 0 0-.32-.145 5 5 0 0 0-.559-.154 4 4 0 0 1-.453-.145 1.8 1.8 0 0 1-.435-.246 1.4 1.4 0 0 1-.334-.378 1.05 1.05 0 0 1-.127-.527q0-.317.15-.563.153-.25.4-.413.25-.167.557-.255.312-.092.629-.092.558 0 .949.119.39.114.707.347l-.549.747a1.8 1.8 0 0 0-.453-.229 1.8 1.8 0 0 0-.654-.105q-.378 0-.528.114t-.149.273q0 .197.246.312.25.114.773.237.325.07.58.18t.44.273.281.382q.102.22.101.527t-.145.554a1.3 1.3 0 0 1-.39.417 1.9 1.9 0 0 1-.576.264q-.33.097-.7.097-.593 0-1.071-.167a1.77 1.77 0 0 1-.76-.492m6.236.514V.422h1.134v2.412h2.98V.422h1.133v6.003h-1.134V3.84h-2.98v2.584zM48.12 5.19q0-.36.136-.642.136-.285.378-.479.242-.193.585-.29.342-.1.756-.1a10 10 0 0 1 .575.017q.163.009.334.022v-.101a.57.57 0 0 0-.255-.497q-.25-.18-.654-.18-.45 0-.721.119-.268.118-.475.25l-.488-.716q.129-.088.29-.185a2 2 0 0 1 .378-.171 3 3 0 0 1 .497-.128q.285-.048.664-.048.405 0 .733.114.33.111.563.312.233.203.36.488.128.282.128.615v2.835h-.993l-.027-.396q-.17.207-.523.37a1.84 1.84 0 0 1-1.3.079 1.4 1.4 0 0 1-.466-.247 1.27 1.27 0 0 1-.475-1.041m1.02-.044q0 .269.193.422.194.154.571.154.19 0 .365-.062a1 1 0 0 0 .308-.171.9.9 0 0 0 .22-.25.6.6 0 0 0 .087-.308v-.413l-.584-.031-.233-.005q-.515 0-.72.203a.63.63 0 0 0-.207.461m3.788 1.279V.422h1.059v6.003zm2.11 0V.422h1.058v6.003zm2.152-4.096.198-1.898h1.218l-.616 1.898zm2.158 3.582.637-.69q.198.197.497.33.303.127.69.127.343 0 .55-.088.206-.092.206-.299a.4.4 0 0 0-.035-.163.36.36 0 0 0-.154-.149 1.5 1.5 0 0 0-.321-.145 5 5 0 0 0-.558-.154 4 4 0 0 1-.453-.145 1.8 1.8 0 0 1-.435-.246 1.4 1.4 0 0 1-.334-.378 1.05 1.05 0 0 1-.127-.527q0-.317.15-.563.153-.25.4-.413.25-.167.557-.255.312-.092.629-.092.558 0 .949.119.39.114.707.347l-.549.747a1.8 1.8 0 0 0-.453-.229 1.8 1.8 0 0 0-.654-.105q-.378 0-.528.114t-.15.273q0 .197.247.312.25.114.773.237.325.07.58.18t.44.273.281.382q.102.22.101.527t-.145.554a1.3 1.3 0 0 1-.39.417 1.9 1.9 0 0 1-.577.264 2.5 2.5 0 0 1-.698.097q-.593 0-1.073-.167a1.77 1.77 0 0 1-.76-.492m5.933-1.538q0-.466.167-.88.167-.417.474-.72.312-.308.752-.483.444-.176.989-.176.55 0 1.01.092.466.088.756.185v4.104q0 .44-.154.782-.153.343-.426.576a1.8 1.8 0 0 1-.637.356 2.5 2.5 0 0 1-.8.123q-.334 0-.589-.03-.254-.031-.461-.089a2.033 2.033 0 0 1-.677-.32l.475-.783q.25.173.545.246.294.075.69.075a1 1 0 0 0 .69-.25q.28-.251.28-.703V6.02q-.215.18-.474.294-.254.11-.677.11-.456 0-.813-.154a1.8 1.8 0 0 1-.61-.426 1.9 1.9 0 0 1-.383-.65 2.5 2.5 0 0 1-.127-.822m1.076-.027q0 .488.242.822.246.33.787.33.488 0 .734-.207.246-.206.246-.66v-1.51a1.6 1.6 0 0 0-.264-.067 3 3 0 0 0-.417-.022 1.4 1.4 0 0 0-.572.11q-.241.105-.413.286-.17.18-.26.422a1.5 1.5 0 0 0-.083.496m4.114 2.079V.422h1.059v6.003zm1.911-2.114q0-.457.167-.866a2.2 2.2 0 0 1 .462-.716q.299-.308.716-.488t.923-.18.923.18.712.488q.298.303.466.712.166.408.166.87a2.3 2.3 0 0 1-.632 1.59 2.2 2.2 0 0 1-.712.489q-.418.18-.923.18t-.923-.18a2.2 2.2 0 0 1-.716-.488 2.32 2.32 0 0 1-.629-1.591m1.068 0q0 .232.07.466.075.233.225.435.15.198.373.32.225.12.532.12t.532-.12q.224-.122.369-.32.15-.203.22-.435.075-.232.074-.466 0-.225-.075-.461a1.3 1.3 0 0 0-.22-.435 1.1 1.1 0 0 0-.373-.312 1.1 1.1 0 0 0-.527-.124q-.307 0-.532.124-.225.119-.373.312-.15.192-.225.435a1.6 1.6 0 0 0-.07.461m4.316 1.978V.422h1.059v2.07q.109-.11.413-.242.307-.135.743-.136.456 0 .813.171.355.171.606.462.255.285.382.68.132.396.132.836 0 .479-.167.896a2.15 2.15 0 0 1-.479.73 2.3 2.3 0 0 1-.751.496 2.5 2.5 0 0 1-.99.185q-.548 0-1.014-.092a5 5 0 0 1-.747-.19m1.059-.73q.128.045.263.07.137.022.422.022.326 0 .567-.11a1.3 1.3 0 0 0 .413-.303q.172-.188.255-.435a1.5 1.5 0 0 0 .088-.51q0-.24-.057-.465a1.2 1.2 0 0 0-.185-.405.9.9 0 0 0-.32-.277.95.95 0 0 0-.462-.105q-.488 0-.738.25-.246.247-.246.677zm3.66-.37q0-.36.137-.64.135-.286.377-.48.243-.193.585-.29.342-.1.756-.1a10 10 0 0 1 .575.017q.163.009.334.022v-.101a.57.57 0 0 0-.254-.497q-.251-.18-.655-.18-.45 0-.72.119-.27.118-.476.25l-.487-.716q.127-.088.29-.185.162-.096.378-.171.215-.079.496-.128.285-.048.664-.048.404 0 .734.114.33.111.562.312.233.203.36.488.129.282.128.615v2.835h-.993l-.026-.396q-.173.207-.523.37a1.84 1.84 0 0 1-1.301.079 1.4 1.4 0 0 1-.466-.247 1.27 1.27 0 0 1-.475-1.041m1.02-.043q0 .269.193.422.195.154.572.154.189 0 .364-.062a1 1 0 0 0 .308-.171.9.9 0 0 0 .22-.25.6.6 0 0 0 .087-.308v-.413l-.584-.031-.233-.005q-.515 0-.72.203a.63.63 0 0 0-.207.461m3.788 1.279V.422h1.06v6.003zm3.608-2.97q0-.66.224-1.231.228-.576.637-1.007.41-.435.976-.685A3 3 0 0 1 93.99.277q.44 0 .809.097.37.092.668.254.302.163.536.383.237.219.417.474l-.804.708a2.5 2.5 0 0 0-.672-.664q-.378-.25-.954-.25a1.77 1.77 0 0 0-1.393.641q-.246.295-.378.686-.132.39-.132.822 0 .43.132.808t.374.66q.24.276.58.439.338.163.76.163.387 0 .66-.088.275-.093.47-.224.193-.136.325-.286t.237-.26l.795.686a2.3 2.3 0 0 1-.377.426 3 3 0 0 1-.563.4q-.321.184-.708.3-.386.118-.821.118-.677 0-1.235-.233a2.9 2.9 0 0 1-.958-.655 3 3 0 0 1-.633-.984 3.4 3.4 0 0 1-.224-1.244m6.35 2.97V.422h1.134v2.412h2.979V.422h1.134v6.003h-1.134V3.84h-2.98v2.584zm6.271-2.97q0-.66.224-1.231.228-.576.637-1.007.41-.435.976-.685.567-.255 1.252-.255.44 0 .809.097.37.092.668.254.303.163.536.383.237.219.418.474l-.805.708a2.5 2.5 0 0 0-.672-.664q-.378-.25-.954-.25a1.8 1.8 0 0 0-.795.176q-.351.172-.598.465-.246.295-.378.686-.132.39-.132.822 0 .43.132.808t.374.66q.241.276.58.439t.76.163q.387 0 .659-.088.277-.093.471-.224.192-.136.325-.286.132-.15.237-.26l.796.686q-.136.207-.378.426a3.2 3.2 0 0 1-.563.4q-.321.184-.707.3a2.8 2.8 0 0 1-.822.118q-.677 0-1.235-.233a2.9 2.9 0 0 1-.958-.655 3 3 0 0 1-.633-.984 3.4 3.4 0 0 1-.224-1.244m7.673.935q0-.496.14-.866.145-.373.361-.637a2 2 0 0 1 .395-.36q.22-.146.44-.237a2 2 0 0 1 .786-.176q.207 0 .343.013t.242.035a1 1 0 0 1 .198.062l.206.079V.422h1.055v6.003h-1.028l-.027-.413a2 2 0 0 1-.198.189 1.5 1.5 0 0 1-.624.312 1.681 1.681 0 0 1-1.111-.088 1.8 1.8 0 0 1-.598-.422 2.2 2.2 0 0 1-.422-.686 2.5 2.5 0 0 1-.158-.927m1.068 0q0 .54.268.901.272.36.786.36a.96.96 0 0 0 .457-.1.9.9 0 0 0 .308-.269 1.1 1.1 0 0 0 .171-.356q.054-.193.053-.373V3.256a.86.86 0 0 0-.356-.175 2.3 2.3 0 0 0-.514-.049 1 1 0 0 0-.523.123 1.2 1.2 0 0 0-.36.317q-.136.18-.216.422a1.7 1.7 0 0 0-.074.496m3.867.8q0-.36.136-.642.136-.285.378-.479a1.6 1.6 0 0 1 .585-.29q.342-.1.755-.1a10 10 0 0 1 .576.017q.163.009.334.022v-.101a.57.57 0 0 0-.255-.497q-.25-.18-.655-.18-.448 0-.72.119-.268.118-.475.25l-.488-.716q.128-.088.29-.185.163-.096.378-.171.215-.079.497-.128.285-.048.663-.048.405 0 .734.114.33.111.563.312.233.203.36.488.128.282.128.615v2.835h-.994l-.026-.396q-.172.207-.523.37a1.84 1.84 0 0 1-1.301.079 1.4 1.4 0 0 1-.466-.247 1.3 1.3 0 0 1-.342-.426 1.36 1.36 0 0 1-.132-.615m1.019-.044q0 .269.194.422.193.154.571.154.19 0 .365-.062a1 1 0 0 0 .307-.171 1 1 0 0 0 .22-.25.6.6 0 0 0 .088-.308v-.413l-.316-.018a7 7 0 0 0-.501-.018q-.514 0-.721.203a.63.63 0 0 0-.207.461m3.428-2.079v-.865h.721V.835h1.059v1.367h1.134v.865h-1.134v1.846q0 .36.123.554.123.193.391.193.25 0 .4-.07.15-.075.286-.172l.448.655a2.2 2.2 0 0 1-.624.374 1.9 1.9 0 0 1-.681.114q-.387 0-.659-.114a1.1 1.1 0 0 1-.436-.317 1.3 1.3 0 0 1-.237-.5 2.8 2.8 0 0 1-.07-.647V3.067zm3.709 2.123q0-.36.136-.642.136-.285.378-.479a1.6 1.6 0 0 1 .585-.29 2.7 2.7 0 0 1 .756-.1 10 10 0 0 1 .575.017q.163.009.334.022v-.101a.57.57 0 0 0-.255-.497q-.25-.18-.654-.18-.448 0-.721.119-.268.118-.475.25l-.487-.716q.126-.088.29-.185.162-.096.377-.171a3 3 0 0 1 .497-.128 4 4 0 0 1 .664-.048q.404 0 .734.114.329.111.562.312.233.203.36.488.128.282.128.615v2.835h-.993l-.027-.396q-.17.207-.523.37a1.84 1.84 0 0 1-1.3.079 1.4 1.4 0 0 1-.466-.247 1.26 1.26 0 0 1-.475-1.041m1.02-.044q0 .269.193.422.193.154.571.154.19 0 .365-.062a1 1 0 0 0 .527-.422.6.6 0 0 0 .088-.307v-.413l-.316-.018a7 7 0 0 0-.501-.018q-.514 0-.721.203a.63.63 0 0 0-.206.461m3.788 1.143V.422h1.059v2.07q.11-.11.413-.242.308-.135.743-.136.456 0 .813.171.355.171.606.462.255.285.382.68.132.396.132.836 0 .479-.167.896a2.1 2.1 0 0 1-.479.73 2.3 2.3 0 0 1-.751.496 2.5 2.5 0 0 1-.989.185q-.55 0-1.015-.092a5 5 0 0 1-.747-.19m1.059-.73q.127.045.264.07.136.022.421.022.326 0 .567-.11a1.3 1.3 0 0 0 .413-.303q.173-.188.255-.435a1.5 1.5 0 0 0 .088-.51q0-.24-.057-.465a1.2 1.2 0 0 0-.185-.405.9.9 0 0 0-.32-.277.95.95 0 0 0-.462-.105q-.488 0-.738.25-.246.247-.246.677zm3.66-.37q0-.36.137-.64.137-.286.378-.48.242-.193.584-.29a2.7 2.7 0 0 1 .756-.1 10 10 0 0 1 .576.017q.162.009.334.022v-.101a.57.57 0 0 0-.255-.497q-.25-.18-.655-.18-.448 0-.721.119-.268.118-.474.25l-.488-.716q.128-.088.29-.185.162-.096.378-.171.215-.079.496-.128.286-.048.664-.048.405 0 .734.114.33.111.562.312.234.203.361.488.127.282.127.615v2.835h-.993l-.026-.396q-.172.207-.523.37a1.84 1.84 0 0 1-1.301.079 1.4 1.4 0 0 1-.466-.247 1.26 1.26 0 0 1-.475-1.041m1.02-.043q0 .269.193.422.194.154.572.154.189 0 .364-.062a1 1 0 0 0 .308-.171 1 1 0 0 0 .22-.25.6.6 0 0 0 .088-.308v-.413l-.585-.031-.233-.005q-.514 0-.72.203a.63.63 0 0 0-.207.461m3.582.765.637-.69q.198.197.496.33.303.127.69.127.343 0 .55-.088.206-.092.206-.299a.4.4 0 0 0-.035-.163.36.36 0 0 0-.154-.149 1.5 1.5 0 0 0-.321-.145 5 5 0 0 0-.558-.154 4 4 0 0 1-.452-.145 1.8 1.8 0 0 1-.435-.246 1.4 1.4 0 0 1-.334-.378 1.05 1.05 0 0 1-.128-.527q0-.317.15-.563.153-.25.399-.413.25-.167.559-.255.312-.092.628-.092.558 0 .949.119.392.114.708.347l-.55.747a1.8 1.8 0 0 0-.452-.229 1.8 1.8 0 0 0-.655-.105q-.378 0-.527.114t-.15.273q0 .197.246.312.25.114.774.237.325.07.58.18t.439.273.282.382q.1.22.101.527 0 .308-.145.554a1.3 1.3 0 0 1-.392.417 1.9 1.9 0 0 1-.575.264q-.33.097-.699.097-.593 0-1.072-.167a1.76 1.76 0 0 1-.76-.492m4.306-1.648q0-.466.154-.866.158-.4.439-.694a2.09 2.09 0 0 1 1.547-.642q.576 0 .976.211.4.21.642.554.246.342.351.773.11.431.11.883v.15h-3.151q0 .232.106.426.105.189.268.325a1.3 1.3 0 0 0 .799.277q.307 0 .537-.057.228-.061.386-.136a1.4 1.4 0 0 0 .427-.303l.575.65-.149.15q-.118.117-.352.254a2.6 2.6 0 0 1-.584.242q-.357.11-.848.11a2.4 2.4 0 0 1-.919-.172 2.1 2.1 0 0 1-.707-.47 2.05 2.05 0 0 1-.453-.725 2.7 2.7 0 0 1-.154-.94m1.059-.396h2.07a.892.892 0 0 0-.558-.83 1 1 0 0 0-.431-.088q-.259 0-.461.088a1 1 0 0 0-.338.215 1 1 0 0 0-.211.294.8.8 0 0 0-.071.321m4.052 3.845.567-1.287h-.457V5.172h1.287v1.235l-.764 1.305zm4.175-1.287V.422h2.241q.703 0 1.288.18.584.18 1.006.55.426.368.659.944t.233 1.358q0 .747-.237 1.3-.237.555-.668.928a2.8 2.8 0 0 1-1.011.558 4.2 4.2 0 0 1-1.279.185zm1.134-1.007h1.002q1.024 0 1.564-.496.54-.497.541-1.45 0-.945-.501-1.494-.497-.55-1.604-.55h-1.002zm5.396 1.007V.422h2.061q.479 0 .844.123.364.118.606.334.242.21.369.496.128.282.128.611 0 .317-.119.554a1.5 1.5 0 0 1-.277.391 1.2 1.2 0 0 1-.312.233.6.6 0 0 1-.246.075q.163.017.378.1.216.08.409.251.193.172.325.449.136.272.136.668 0 .487-.171.817a1.4 1.4 0 0 1-.475.527 2 2 0 0 1-.707.29 4.5 4.5 0 0 1-.888.084zm1.09-.963h.962q.163 0 .356-.022.194-.022.365-.105a.8.8 0 0 0 .286-.255q.118-.167.118-.457a.76.76 0 0 0-.114-.435.8.8 0 0 0-.277-.26 1.1 1.1 0 0 0-.365-.131 2 2 0 0 0-.369-.035h-.962zm0-2.645h.918q.172 0 .334-.035a.9.9 0 0 0 .29-.128.7.7 0 0 0 .207-.224.7.7 0 0 0 .079-.343.65.65 0 0 0-.083-.342.6.6 0 0 0-.211-.216.8.8 0 0 0-.29-.114 2 2 0 0 0-.326-.03h-.918zm4.148.98q0-.704.159-1.292.162-.59.479-1.015.316-.431.782-.664a2.4 2.4 0 0 1 1.09-.233q.25 0 .465.04a3 3 0 0 1 .405.1q.184.058.321.124.14.06.232.114l-.461.835a2 2 0 0 0-.576-.228 1.5 1.5 0 0 0-.395-.049q-.326 0-.585.14-.258.138-.448.37a1.7 1.7 0 0 0-.294.519q-.106.285-.106.593.198-.12.475-.26.28-.14.716-.14.387 0 .712.127.33.128.558.365.233.237.361.58.13.344.131.782 0 .396-.127.756-.123.36-.369.633a1.8 1.8 0 0 1-.607.43q-.365.164-.83.163-.448 0-.835-.162a1.7 1.7 0 0 1-.664-.506 2.6 2.6 0 0 1-.435-.865 4.5 4.5 0 0 1-.154-1.257m1.059.206q0 .48.08.8.083.317.224.506a.8.8 0 0 0 .329.272q.189.08.396.08.422 0 .677-.3.258-.303.259-.79 0-.414-.242-.66a.82.82 0 0 0-.624-.25q-.404 0-.672.118-.264.114-.427.224m3.934 3.71.566-1.288h-.457V5.172h1.288v1.235l-.765 1.305zm4.104-1.288.29-6.003h1.05l1.666 2.834 1.639-2.834h1.05l.29 6.003h-1.107l-.198-4.157-1.441 2.447h-.532l-1.446-2.386-.197 4.096zm6.587 0 2.277-6.003h1.173l2.277 6.003h-1.262l-.523-1.52h-2.232l-.519 1.52zm2.026-2.457h1.596l-.796-2.333zm3.955-2.549V.422h5.204v.997h-2.035v5.006h-1.134V1.419zm7.432 2a3.16 3.16 0 0 1 .905-2.237 3.1 3.1 0 0 1 .989-.672q.57-.25 1.23-.25t1.222.25a3.14 3.14 0 0 1 1.657 1.674q.241.575.241 1.235a3.15 3.15 0 0 1-.989 2.32l.677.866-.677.567-.72-.919a3.4 3.4 0 0 1-.677.242 3 3 0 0 1-.734.092 3.05 3.05 0 0 1-2.215-.927 3.3 3.3 0 0 1-.668-1.006 3.2 3.2 0 0 1-.241-1.235m1.186-.026q0 .42.136.808.137.387.387.681.255.29.607.462.355.171.808.171.387 0 .73-.136l-.686-.879.677-.567.707.919q.242-.29.374-.664a2.4 2.4 0 0 0 .132-.795 2.4 2.4 0 0 0-.137-.813 1.9 1.9 0 0 0-.386-.673 1.75 1.75 0 0 0-.611-.452 1.9 1.9 0 0 0-.8-.167q-.448 0-.804.167-.356.162-.611.452-.25.286-.387.673-.136.381-.136.813m5.818 1.942v-.892l2.475-3.687h1.063v3.678h.585v.901h-.585v1.09h-1.019v-1.09zm1.024-.9h1.495V2.25zm5.533-2.8q.11-.18.268-.36a1.97 1.97 0 0 1 .945-.585q.316-.097.721-.097.488 0 .839.132.351.127.576.347.224.216.329.492.11.273.11.559 0 .308-.101.566a2 2 0 0 1-.259.488q-.163.224-.369.422a9 9 0 0 1-.422.378q-.26.215-.492.396-.23.18-.4.351-.172.171-.273.347a.8.8 0 0 0-.096.391h2.447v.963h-3.643v-.712q0-.386.128-.699.131-.316.338-.58.211-.268.462-.492.25-.224.505-.444.25-.216.444-.365.194-.153.329-.294.137-.141.202-.281a.8.8 0 0 0 .066-.334q0-.12-.039-.242a.5.5 0 0 0-.136-.22.7.7 0 0 0-.246-.158 1 1 0 0 0-.387-.066q-.207 0-.374.066a1.1 1.1 0 0 0-.299.163 1.3 1.3 0 0 0-.224.215q-.092.114-.158.22zm4.751 1.88q0-.658.14-1.195.14-.54.418-.923.28-.381.698-.593.418-.21.967-.21t.963.21.69.593q.281.383.421.923.141.541.141 1.196 0 .676-.141 1.239a2.9 2.9 0 0 1-.421.962 2 2 0 0 1-.695.629q-.417.224-.967.224t-.962-.224a2.06 2.06 0 0 1-.694-.629 2.9 2.9 0 0 1-.418-.962 5 5 0 0 1-.14-1.24m1.089 0q0 .441.071.822.075.378.215.66.145.276.356.439a.8.8 0 0 0 .492.163.78.78 0 0 0 .488-.163q.216-.162.352-.44.14-.28.211-.659.074-.377.074-.821 0-.422-.074-.783a2 2 0 0 0-.216-.615 1.15 1.15 0 0 0-.351-.4.85.85 0 0 0-.493-.145.86.86 0 0 0-.492.145q-.21.145-.351.4-.136.255-.211.615-.07.36-.071.783m3.969-1.88q.11-.18.268-.36a1.96 1.96 0 0 1 .945-.585q.316-.097.72-.097a2.4 2.4 0 0 1 .84.132q.351.127.575.347.225.216.33.492.11.273.11.559 0 .308-.101.566a2.1 2.1 0 0 1-.26.488q-.162.224-.369.422a8 8 0 0 1-.422.378q-.258.215-.492.396-.228.18-.4.351-.171.171-.272.347a.8.8 0 0 0-.097.391h2.448v.963h-3.643v-.712q0-.386.127-.699.132-.316.339-.58.21-.268.461-.492t.505-.444q.25-.216.444-.365.193-.153.33-.294a1 1 0 0 0 .202-.281.8.8 0 0 0 .026-.576.5.5 0 0 0-.136-.22.7.7 0 0 0-.246-.158 1 1 0 0 0-.387-.066q-.206 0-.373.066a1.1 1.1 0 0 0-.299.163q-.128.096-.224.215a2 2 0 0 0-.158.22zm4.878 3.7v-.892l2.474-3.687h1.063v3.678h.585v.901h-.585v1.09h-1.019v-1.09zm1.024-.9h1.494V2.25zm4.13 3.277.567-1.287h-.457V5.172h1.288v1.235l-.765 1.305zm.11-4.267V2.202h1.288v1.243zm4.109.765V.422h1.134v3.59q0 .343.066.62.07.272.224.466.154.193.404.298.25.102.62.102t.62-.102a.97.97 0 0 0 .404-.298q.153-.195.22-.466.07-.277.07-.62V.422h1.134V4.21q0 .506-.163.936a2.1 2.1 0 0 1-.475.751q-.315.321-.773.506a2.7 2.7 0 0 1-1.037.184q-.585 0-1.042-.184a2.3 2.3 0 0 1-.769-.506 2.15 2.15 0 0 1-.474-.751 2.6 2.6 0 0 1-.163-.936m6.003 2.215V2.202h1.015l.027.479q.078-.088.184-.194.105-.106.251-.184a1.7 1.7 0 0 1 .791-.19q.834 0 1.27.612.324-.335.659-.47.338-.141.786-.141.8 0 1.227.474.43.47.43 1.27v2.567h-1.059V3.867q0-.404-.206-.624-.202-.22-.55-.22a.92.92 0 0 0-.712.326q-.128.15-.197.356-.066.202-.066.435v2.285h-1.059V3.867q0-.404-.203-.624-.201-.22-.553-.22a.9.9 0 0 0-.396.088.9.9 0 0 0-.312.238q-.132.15-.202.356-.066.202-.066.435v2.285zm7.458-.514.637-.69q.198.197.496.33.305.127.69.127.343 0 .55-.088.206-.092.206-.299a.4.4 0 0 0-.035-.163.36.36 0 0 0-.154-.149 1.5 1.5 0 0 0-.321-.145 5 5 0 0 0-.558-.154 4 4 0 0 1-.452-.145 1.8 1.8 0 0 1-.435-.246 1.4 1.4 0 0 1-.334-.378 1.05 1.05 0 0 1-.128-.527q0-.317.15-.563.153-.25.4-.413a2 2 0 0 1 .558-.255q.312-.092.628-.092.559 0 .949.119.392.114.708.347l-.55.747a1.8 1.8 0 0 0-.452-.229 1.8 1.8 0 0 0-.655-.105q-.378 0-.527.114t-.15.273q0 .197.246.312.25.114.774.237.325.07.58.18t.439.273q.185.162.282.382.1.22.101.527 0 .308-.145.554a1.3 1.3 0 0 1-.391.417 1.9 1.9 0 0 1-.576.264q-.33.097-.699.097-.593 0-1.072-.167a1.76 1.76 0 0 1-.76-.492m4.232-.721q0-.36.136-.642.137-.285.378-.479.242-.193.584-.29a2.7 2.7 0 0 1 .756-.1 10 10 0 0 1 .576.017q.162.009.334.022v-.101a.57.57 0 0 0-.255-.497q-.25-.18-.655-.18-.448 0-.721.119-.268.118-.474.25l-.488-.716q.128-.088.29-.185.162-.096.378-.171.215-.079.496-.128.286-.048.664-.048.404 0 .734.114.33.111.562.312.234.203.361.488.127.282.127.615v2.835h-.993l-.026-.396q-.172.207-.523.37a1.84 1.84 0 0 1-1.301.079 1.4 1.4 0 0 1-.466-.247 1.3 1.3 0 0 1-.343-.426 1.36 1.36 0 0 1-.131-.615m1.019-.044q0 .269.193.422.194.154.572.154.189 0 .364-.062a1 1 0 0 0 .308-.171 1 1 0 0 0 .22-.25.6.6 0 0 0 .088-.308v-.413l-.585-.031-.233-.005q-.514 0-.72.203a.63.63 0 0 0-.207.461m3.428-2.079v-.865h.721V.835h1.059v1.367h1.133v.865h-1.133v1.846q0 .36.123.554.123.193.391.193.25 0 .4-.07.149-.075.285-.172l.449.655a2.2 2.2 0 0 1-.624.374q-.304.114-.682.114-.386 0-.659-.114a1.06 1.06 0 0 1-.435-.317 1.3 1.3 0 0 1-.237-.5 2.8 2.8 0 0 1-.07-.647V3.067zm3.871 3.358v-.809l2.154-2.522h-2.088v-.892h3.41v.83l-2.223 2.527h2.223v.866zm5.99-4.887V.422h1.134v1.116zm.035 4.887V2.202h1.064v4.223zm2.154 0V2.202h1.015l.026.479q.08-.088.193-.19.115-.1.273-.184t.356-.136q.198-.057.448-.057.791 0 1.204.474.418.47.418 1.27v2.567h-1.064V3.867q0-.404-.219-.624a.77.77 0 0 0-.572-.22.95.95 0 0 0-.404.088.9.9 0 0 0-.325.238q-.137.15-.216.356-.074.202-.074.435v2.285zm6.359-1.855.206-.663h.492a2 2 0 0 1-.009-.18v-.36q0-.084.009-.172h-.698l.206-.668h.593a3.6 3.6 0 0 1 .299-.778q.194-.355.47-.615.282-.263.642-.405a2.2 2.2 0 0 1 .813-.145q.549 0 .918.185.37.185.664.47l-.567.721a1.4 1.4 0 0 0-.426-.299 1.4 1.4 0 0 0-.563-.097q-.465 0-.747.269a1.5 1.5 0 0 0-.404.694h1.701l-.207.668h-1.613a2 2 0 0 0-.009.171v.361q0 .087.009.18h1.727l-.206.663h-1.393q.127.43.404.695.277.26.738.259.343 0 .563-.092.219-.097.426-.304l.567.721a2.7 2.7 0 0 1-.668.475q-.365.18-.914.18-.44 0-.809-.14a2 2 0 0 1-.637-.4 2.6 2.6 0 0 1-.47-.616 3.3 3.3 0 0 1-.299-.778zm5.216 1.855V5.18h1.287v1.244z"/></svg>