<svg xmlns="http://www.w3.org/2000/svg" fill="none" viewBox="0 0 436 30"><path fill="#fff" d="M.772 1.684h13.464V24.6H9.782V5.56H5.226V24.6H.772zM18.171 24.6V2.024c1.258-.272 2.957-.442 4.657-.442 2.653 0 4.727.374 6.223 1.768 1.36 1.19 1.972 3.094 1.972 5.032 0 2.482-.748 4.216-1.939 5.508-1.427 1.496-3.74 2.176-5.575 2.176h-.884V24.6zm4.454-19.244v7.072c.203.068.442.068.713.068 2.244 0 3.264-1.598 3.264-3.74 0-2.006-.816-3.57-2.89-3.57-.407 0-.816.068-1.087.17m17.51-3.944c5.543 0 7.107 6.086 7.107 11.322 0 8.636-3.06 12.138-7.412 12.138-5.203 0-7.242-5.508-7.242-11.798 0-6.256 2.481-11.662 7.547-11.662m-.17 3.876c-1.768 0-2.754 2.924-2.754 7.854 0 5.202.986 7.854 2.788 7.854 1.87 0 2.584-3.4 2.584-8.058 0-4.012-.611-7.65-2.617-7.65M56.234.868h3.91v1.734c4.114.544 7.242 3.774 7.242 10.37 0 7.038-3.162 9.996-7.242 10.574v1.87h-3.944v-1.87c-4.148-.612-7.242-3.536-7.242-10.472 0-6.732 3.706-9.928 7.276-10.472zm0 19.414V5.832c-1.36.408-2.822 2.244-2.822 7.31 0 4.726 1.428 6.834 2.822 7.14m3.876-14.45v14.45c1.496-.306 2.822-2.142 2.822-7.276 0-5.202-1.53-6.868-2.822-7.174m10.09-4.148h3.945V6.75c0 4.216-.272 8.16-.442 10.54h.068c.646-1.972 1.802-4.964 2.482-6.732l3.366-8.874h4.046V24.6h-3.91v-5.168c0-4.59.17-7.99.272-10.302h-.068c-.51 2.074-1.53 4.828-2.278 6.732L74.314 24.6H70.2zm18.316 0h11.934V24.6h-4.454V5.56h-3.4v6.052c0 5.27-.34 9.894-3.23 12.138-.85.68-1.938 1.122-3.06 1.122l-.952-3.774c.544-.136 1.122-.408 1.53-.816 1.326-1.36 1.632-3.808 1.632-8.262zm23.636 17.68h-4.114l-1.02 5.236h-4.318l4.964-22.916h5.338l4.454 22.916h-4.318zm-3.672-3.468h3.264l-.748-4.794c-.238-1.394-.544-3.672-.748-5.202h-.102c-.238 1.53-.578 3.91-.816 5.236zm11.492-14.212h4.352v9.962h.34l3.74-9.962h4.896l-5.27 10.608c2.346.884 3.128 3.026 3.774 5.814.51 2.21.884 4.386 1.564 6.494h-4.454c-.544-1.632-.884-3.502-1.258-5.304-.544-2.686-1.156-4.42-2.992-4.42h-.34V24.6h-4.352zM138.424 24.6V5.798h-4.046V1.684h12.58v4.114h-4.08V24.6zM149.29 1.684h3.944V6.75c0 4.216-.272 8.16-.442 10.54h.068c.646-1.972 1.802-4.964 2.482-6.732l3.366-8.874h4.046V24.6h-3.91v-5.168c0-4.59.17-7.99.272-10.302h-.068c-.51 2.074-1.53 4.828-2.278 6.732l-3.366 8.738h-4.114zm17.431 0h4.352v9.962h.34l3.74-9.962h4.896l-5.27 10.608c2.346.884 3.128 3.026 3.774 5.814.51 2.21.884 4.386 1.564 6.494h-4.454c-.544-1.632-.884-3.502-1.258-5.304-.544-2.686-1.156-4.42-2.992-4.42h-.34V24.6h-4.352zm23.69 17.68h-4.114l-1.02 5.236h-4.318l4.964-22.916h5.338l4.454 22.916h-4.318zm-3.672-3.468h3.264l-.748-4.794c-.238-1.394-.544-3.672-.748-5.202h-.102c-.238 1.53-.578 3.91-.816 5.236zm16.904 8.636V2.024c1.36-.306 3.128-.442 5.066-.442 2.142 0 4.216.272 5.814 1.632 1.224 1.02 1.734 2.55 1.734 4.148 0 2.04-1.054 4.012-3.332 4.998v.136c2.652.748 4.08 2.958 4.08 5.474 0 1.904-.612 3.366-1.7 4.488-1.36 1.496-3.672 2.312-7.514 2.312-1.7 0-3.128-.102-4.148-.238m4.454-19.482v6.052h.952c1.598 0 2.822-1.36 2.822-3.23 0-1.666-.782-2.958-2.618-2.958-.476 0-.884.034-1.156.136m0 9.35v6.868c.272.068.578.068.986.068 1.802 0 3.298-1.088 3.298-3.434 0-2.278-1.564-3.468-3.332-3.502zm11.506-8.228-.748-3.434c.986-.68 2.89-1.326 5.066-1.326 4.352 0 6.392 2.652 6.392 5.644 0 2.346-1.564 4.624-3.876 5.202v.068c2.686.544 4.556 2.584 4.556 5.746 0 4.386-3.74 6.8-7.854 6.8-1.904 0-3.57-.442-4.624-1.02l.646-3.638c.986.578 2.278.918 3.536.918 2.38 0 3.638-1.36 3.638-3.196 0-2.55-2.108-3.57-4.522-3.57h-.646V11h.442c2.04 0 4.08-.986 4.08-3.094 0-1.598-.986-2.686-2.89-2.686-1.054 0-2.312.442-3.196.952m16.133-4.488h11.798v19.108l1.802.068-.204 8.738h-3.366l-.17-4.998h-9.962l-.17 4.998h-3.4l-.17-8.738 1.632-.068c.714-1.734 1.19-3.468 1.564-5.338.442-2.618.646-5.304.646-7.99zm4.08 3.876v2.652c0 2.618-.17 5.27-.544 7.718-.272 1.632-.68 3.4-1.156 4.794h4.998V5.56zm9.493-3.876h4.794l2.108 8.636c.306 1.292.578 2.652.748 3.672h.102c.204-1.088.34-2.482.544-3.774l1.53-8.534h4.522l-3.4 12.206c-.782 2.89-1.666 6.018-2.822 7.99-1.088 1.802-2.754 2.992-4.658 2.992-.782 0-1.36-.068-1.802-.204l.17-3.638c.204.034.544.102 1.088.102 1.156 0 2.108-1.19 2.448-2.312.17-.476.136-.85-.034-1.36zM268.945 24.6V5.798h-4.046V1.684h12.58v4.114h-4.08V24.6zm10.866-22.916h3.944V6.75c0 4.216-.272 8.16-.442 10.54h.068c.646-1.972 1.802-4.964 2.482-6.732l3.366-8.874h4.046V24.6h-3.91v-5.168c0-4.59.17-7.99.272-10.302h-.068c-.51 2.074-1.53 4.828-2.278 6.732l-3.366 8.738h-4.114zm20.39 22.916h-4.726c.306-.68.612-1.564.884-2.448.612-2.312.612-5.508 2.312-7.31a3.65 3.65 0 0 1 1.632-.986v-.068c-2.414-.748-3.944-2.618-3.944-5.508 0-2.346.884-3.978 2.108-4.998 1.462-1.19 3.502-1.7 5.814-1.7 1.7 0 3.468.136 4.862.442V24.6h-4.454v-9.146h-.476c-.782 0-1.394.306-1.836.85-.986 1.258-1.156 4.59-1.53 6.29-.17.68-.34 1.36-.646 2.006m4.488-12.614V5.152c-.238-.034-.51-.102-.884-.102-2.074 0-2.958 1.666-2.958 3.4 0 2.176 1.292 3.57 3.23 3.57.272 0 .374 0 .612-.034m13.804-10.302h3.944V6.75c0 4.216-.272 8.16-.442 10.54h.068c.646-1.972 1.802-4.964 2.482-6.732l3.366-8.874h4.046V24.6h-3.91v-5.168c0-4.59.17-7.99.272-10.302h-.068c-.51 2.074-1.53 4.828-2.278 6.732l-3.366 8.738h-4.114zm25.054 0h11.798v19.108l1.802.068-.204 8.738h-3.366l-.17-4.998h-9.962l-.17 4.998h-3.4l-.17-8.738 1.632-.068c.714-1.734 1.19-3.468 1.564-5.338.442-2.618.646-5.304.646-7.99zm4.08 3.876v2.652c0 2.618-.17 5.27-.544 7.718-.272 1.632-.68 3.4-1.156 4.794h4.998V5.56zm12.004-3.876h3.944V6.75c0 4.216-.272 8.16-.442 10.54h.068c.646-1.972 1.802-4.964 2.482-6.732l3.366-8.874h4.046V24.6h-3.91v-5.168c0-4.59.17-7.99.272-10.302h-.068c-.51 2.074-1.53 4.828-2.278 6.732l-3.366 8.738h-4.114zm25.184 17.68h-4.114l-1.02 5.236h-4.318l4.964-22.916h5.338l4.454 22.916h-4.318zm-3.672-3.468h3.264l-.748-4.794c-.238-1.394-.544-3.672-.748-5.202h-.102c-.238 1.53-.578 3.91-.816 5.236zm11.492 8.704V2.024c1.258-.272 2.958-.442 4.658-.442 2.652 0 4.726.374 6.222 1.768 1.36 1.19 1.972 3.094 1.972 5.032 0 2.482-.748 4.216-1.938 5.508-1.428 1.496-3.74 2.176-5.576 2.176h-.884V24.6zm4.454-19.244v7.072c.204.068.442.068.714.068 2.244 0 3.264-1.598 3.264-3.74 0-2.006-.816-3.57-2.89-3.57-.408 0-.816.068-1.088.17m20.775 5.474v3.706h-5.236v6.188h5.916V24.6h-10.37V1.684h9.962V5.56h-5.508v5.27zm3.691-9.146h3.944V6.75c0 4.216-.272 8.16-.442 10.54h.068c.646-1.972 1.802-4.964 2.482-6.732l3.366-8.874h4.046V24.6h-3.91v-5.168c0-4.59.17-7.99.272-10.302h-.068c-.51 2.074-1.53 4.828-2.278 6.732l-3.366 8.738h-4.114z"/></svg>