<svg xmlns="http://www.w3.org/2000/svg" fill="none" viewBox="0 0 224 124"><rect width="224" height="112.868" fill="#fff" transform="translate(0 5.93)"/><g clip-path="url(#a)"><rect width="86.822" height="5.209" fill="#fff" transform="translate(120.682 118.798)"/><path fill="#ae0000" d="M155.202 118.797h-34.52v5.223h34.52z"/><path fill="#0065b1" d="M159.158 118.797h-3.945v5.223h3.945z"/><path fill="#008f20" d="M207.485 118.797h-48.332v5.223h48.332z"/></g><g clip-path="url(#b)"><rect width="197.953" height="5.209" fill="#fff" transform="translate(9.55 .72)"/><path fill="#ae0000" d="M154.975.72h-34.654v5.223h34.654z"/><path fill="#ff8600" d="M120.321.72H66.825v5.223h53.496z"/><path fill="#0065b1" d="M158.947.72h-3.961v5.223h3.961z"/><path fill="#e90a0a" d="M60.886.72H9.416v5.223h51.47z"/><path fill="#008f20" d="M207.461.72h-48.52v5.223h48.52z"/><path fill="#26221e" d="M66.825.72h-5.939v5.223h5.939z"/></g><g clip-path="url(#c)"><path fill="#008f20" d="M76.107 74.232h-15.33V98.01h15.33z"/><path fill="#0065b1" d="M60.78 74.232h-1.252V98.01h1.252z"/><path fill="#ae0000" d="M59.525 74.232H48.576V98.01h10.95z"/><path fill="#ff8600" d="M48.575 74.232h-16.9V98.01h16.9z"/><path fill="#26221e" d="M31.676 74.232h-1.877V98.01h1.877z"/><path fill="#e90a0a" d="M29.799 74.232H13.537V98.01H29.8z"/><g fill="#fff"><path d="M32.97 86.738v4.296h-2.147v-3.962c0-1.214-.537-1.772-1.404-1.772-.964 0-1.637.627-1.637 1.967v3.77h-2.148v-3.963c0-1.214-.51-1.772-1.404-1.772-.954 0-1.622.627-1.622 1.967v3.77h-2.15v-5.835h-.826V83.53h2.547l.11 1.16c.537-.825 1.459-1.276 2.546-1.276 1.033 0 1.914.405 2.437 1.228.592-.767 1.555-1.228 2.67-1.228 1.764 0 3.03 1.033 3.03 3.32"/><path d="M43.239 88.37c0 1.688-1.321 2.664-3.853 2.664H34.65V83.11H33.63V81.27h5.479c2.408 0 3.647 1.017 3.647 2.539.01.444-.106.881-.333 1.261-.226.38-.555.688-.947.886 1.074.35 1.762 1.186 1.762 2.417zm-6.373-5.397v2.3h1.968c1.088 0 1.68-.386 1.68-1.159s-.592-1.143-1.68-1.143zm4.116 5.16c0-.823-.605-1.213-1.762-1.213h-2.354v2.416h2.354c1.157 0 1.762-.363 1.762-1.2"/><path d="M51.966 83.53v7.504h-2.05v-.87c-.537.657-1.322.978-2.313.978-2.092 0-3.703-1.507-3.703-3.867 0-2.359 1.61-3.866 3.703-3.866.909 0 1.68.29 2.216.907v-.786zm-2.106 3.75c0-1.297-.826-2.078-1.885-2.078s-1.9.781-1.9 2.078.826 2.078 1.9 2.078 1.885-.78 1.885-2.078"/><path d="M61.382 86.738v4.296h-2.148v-3.962c0-1.214-.55-1.772-1.5-1.772-1.032 0-1.776.642-1.776 2.022v3.71h-2.147v-5.828h-.826V83.53h2.547l.11 1.172c.564-.837 1.525-1.284 2.67-1.284 1.748 0 3.07 1.032 3.07 3.32"/><path d="M70.44 91.034h-2.437l-2.092-3.25h-.992v3.25h-2.147v-10.35h2.147v5.44h.992l1.982-2.594h2.395l-2.519 3.292z"/></g></g><g fill="#000"><path d="M160.862 52.448c1.556 0 2.577.9 2.577 2.735v3.708h-.863v-3.623c0-1.349-.681-2.042-1.836-2.042-1.313 0-2.139.851-2.139 2.31v3.355h-.863v-3.623c0-1.349-.681-2.042-1.848-2.042-1.3 0-2.139.851-2.139 2.31v3.355h-.863v-5.665h-.899v-.729h1.58l.06 1.337c.414-.875 1.277-1.386 2.431-1.386 1.058 0 1.884.45 2.273 1.35.462-.827 1.374-1.35 2.529-1.35"/><path d="M150.949 55.694c0 .073-.012.17-.012.267h-5.348c.097 1.337 1.118 2.224 2.516 2.224.778 0 1.47-.279 1.957-.838l.486.559c-.571.68-1.459 1.045-2.468 1.045-1.993 0-3.354-1.361-3.354-3.257s1.324-3.246 3.123-3.246 3.1 1.325 3.1 3.246m-3.1-2.504c-1.239 0-2.151.875-2.26 2.127h4.533c-.109-1.252-1.021-2.127-2.273-2.127"/><path d="M142.543 51.1a.625.625 0 0 1-.632-.62c0-.329.28-.608.632-.608.353 0 .632.267.632.595a.62.62 0 0 1-.632.632m-.438 7.79v-6.393h.864v6.394z"/><path d="m139.781 58.89-2.541-3.136h-1.227v3.137h-.863v-9.02h.863v5.166h1.227l2.431-2.54h1.021l-2.686 2.844 2.808 3.55z"/><path d="M132.323 51.1a.625.625 0 0 1-.632-.62c0-.329.279-.608.632-.608.352 0 .632.267.632.595a.62.62 0 0 1-.632.632m-.438 7.79v-6.393h.863v6.394z"/><path d="M126.909 52.448c1.556 0 2.626.9 2.626 2.735v3.708h-.863v-3.623c0-1.349-.705-2.042-1.921-2.042-1.373 0-2.236.851-2.236 2.31v3.355h-.863v-5.665h-.9v-.729h1.58l.061 1.337c.426-.875 1.325-1.386 2.516-1.386"/><path d="M121.807 52.497h.79l-2.419 6.394h-.814l-2.018-5.24-2.017 5.24h-.815l-2.407-6.394h.827l2.006 5.433 2.054-5.433h.741l2.042 5.433z"/><path d="M108.384 58.951c-1.872 0-3.257-1.361-3.257-3.257s1.385-3.246 3.257-3.246 3.246 1.35 3.246 3.246-1.374 3.257-3.246 3.257m0-.766c1.362 0 2.37-.996 2.37-2.491s-1.008-2.492-2.37-2.492c-1.361 0-2.382.997-2.382 2.492s1.021 2.491 2.382 2.491"/><path d="M101.678 58.951c-1.908 0-3.294-1.349-3.294-3.257s1.386-3.246 3.294-3.246c1.082 0 1.994.426 2.504 1.264l-.644.438c-.437-.644-1.118-.948-1.86-.948-1.397 0-2.418.997-2.418 2.492 0 1.507 1.021 2.491 2.418 2.491.742 0 1.423-.291 1.86-.935l.644.437c-.51.827-1.422 1.264-2.504 1.264"/><path d="M95.822 52.497h.863v6.394h-.827v-1.265c-.523.863-1.41 1.325-2.467 1.325-1.824 0-3.185-1.325-3.185-3.257s1.361-3.246 3.185-3.246c1.02 0 1.896.438 2.43 1.264zm-2.359 5.688c1.35 0 2.37-.996 2.37-2.491s-1.02-2.492-2.37-2.492c-1.36 0-2.382.997-2.382 2.492s1.021 2.491 2.382 2.491"/><path d="M87.05 53.858c.376-.911 1.252-1.41 2.48-1.41v.876c-.074 0-.147-.013-.207-.013-1.337 0-2.152.815-2.152 2.322v3.258h-.863v-5.665h-.9v-.729h1.58z"/><path d="M81.174 52.448c1.824 0 3.185 1.313 3.185 3.246 0 1.945-1.361 3.257-3.185 3.257-1.02 0-1.896-.437-2.43-1.264v3.562h-.864v-8.023h-.9v-.729h1.581l.049 1.434c.51-.96 1.446-1.483 2.564-1.483m-.06 5.737c1.349 0 2.382-.996 2.382-2.491 0-1.483-1.033-2.492-2.382-2.492-1.362 0-2.383 1.009-2.383 2.492 0 1.495 1.021 2.491 2.383 2.491"/><path d="M69.592 52.448c1.556 0 2.577.9 2.577 2.735v3.708h-.863v-3.623c0-1.349-.68-2.042-1.835-2.042-1.313 0-2.14.851-2.14 2.31v3.355h-.863v-3.623c0-1.349-.68-2.042-1.847-2.042-1.301 0-2.14.851-2.14 2.31v3.355h-.863v-5.665h-.9v-.729H62.3l.06 1.337c.414-.875 1.277-1.386 2.432-1.386 1.057 0 1.884.45 2.273 1.35.462-.827 1.373-1.35 2.528-1.35"/><path d="M58.169 52.497h.863v5.616c0 2.2-1.01 3.197-2.978 3.197-1.094 0-2.176-.353-2.796-.985l.438-.657c.547.547 1.385.876 2.309.876 1.483 0 2.164-.742 2.164-2.322v-.741c-.45.741-1.264 1.166-2.261 1.166-1.641 0-2.699-.911-2.699-2.746v-3.404h.863v3.318c0 1.362.705 2.055 1.92 2.055 1.338 0 2.177-.863 2.177-2.322z"/><path d="M47.439 58.174h4.096v.717h-5.202v-.572l4.023-5.093h-3.95v-.729h5.056v.571z"/><path d="M42.793 58.951c-1.058 0-2.079-.34-2.602-.79l.39-.68c.51.4 1.373.717 2.272.717 1.216 0 1.714-.414 1.714-1.046 0-1.665-4.145-.352-4.145-2.88 0-1.046.9-1.824 2.529-1.824.826 0 1.726.231 2.26.596l-.376.693c-.56-.39-1.228-.547-1.884-.547-1.155 0-1.666.45-1.666 1.057 0 1.726 4.145.426 4.145 2.881 0 1.106-.972 1.823-2.637 1.823"/><path d="M37.872 52.497h.862v6.394h-.826v-1.265c-.523.863-1.41 1.325-2.468 1.325-1.823 0-3.184-1.325-3.184-3.257s1.361-3.246 3.185-3.246c1.02 0 1.896.438 2.43 1.264zm-2.359 5.688c1.35 0 2.37-.996 2.37-2.491s-1.02-2.492-2.37-2.492c-1.361 0-2.382.997-2.382 2.492s1.021 2.491 2.382 2.491"/><path d="M27.924 52.448c1.556 0 2.626.9 2.626 2.735v3.708h-.863v-3.623c0-1.349-.705-2.042-1.92-2.042-1.374 0-2.237.851-2.237 2.31v3.355h-.863v-5.665h-.9v-.729h1.58l.061 1.337c.425-.875 1.325-1.386 2.516-1.386"/><path d="M15.508 58.174h4.096v.717h-5.202v-.572l4.023-5.093h-3.95v-.729h5.056v.571z"/><path d="M168.455 43.414h4.096v.717h-5.202v-.571l4.023-5.093h-3.95v-.73h5.056v.572z"/><path d="M163.809 44.192c-1.058 0-2.079-.34-2.601-.79l.388-.681c.511.4 1.374.717 2.273.717 1.216 0 1.714-.413 1.714-1.045 0-1.666-4.145-.353-4.145-2.881 0-1.045.9-1.823 2.529-1.823.826 0 1.726.23 2.261.595l-.377.693c-.559-.389-1.228-.547-1.884-.547-1.155 0-1.666.45-1.666 1.057 0 1.727 4.145.426 4.145 2.881 0 1.106-.972 1.823-2.637 1.823"/><path d="M158.888 37.737h.863v6.394h-.827v-1.264c-.522.863-1.41 1.325-2.467 1.325-1.824 0-3.185-1.325-3.185-3.258s1.361-3.245 3.185-3.245c1.021 0 1.896.437 2.431 1.264zm-2.358 5.689c1.349 0 2.37-.997 2.37-2.492s-1.021-2.492-2.37-2.492c-1.362 0-2.383.997-2.383 2.492s1.021 2.492 2.383 2.492"/><path d="M151.09 36.34a.625.625 0 0 1-.632-.62c0-.329.279-.608.632-.608.352 0 .632.267.632.595a.62.62 0 0 1-.632.632m-.438 7.79v-6.393h.863v6.394z"/><path d="M148.776 37.737h.79l-2.419 6.394h-.814l-2.018-5.239-2.017 5.239h-.815l-2.407-6.394h.827l2.006 5.434 2.054-5.434h.741l2.042 5.434z"/><path d="M136.975 37.737h.863v6.394h-.826v-1.264c-.523.863-1.41 1.325-2.468 1.325-1.823 0-3.184-1.325-3.184-3.258s1.361-3.245 3.184-3.245c1.021 0 1.897.437 2.431 1.264zm-2.358 5.689c1.349 0 2.371-.997 2.371-2.492s-1.022-2.492-2.371-2.492c-1.361 0-2.382.997-2.382 2.492s1.021 2.492 2.382 2.492"/><path d="M127.079 37.689c1.556 0 2.577.9 2.577 2.734v3.708h-.863v-3.622c0-1.35-.681-2.042-1.835-2.042-1.313 0-2.14.85-2.14 2.309v3.355h-.863v-3.622c0-1.35-.68-2.042-1.847-2.042-1.301 0-2.14.85-2.14 2.309v3.355h-.863v-5.664h-.899v-.73h1.58l.061 1.337c.413-.875 1.276-1.385 2.431-1.385 1.057 0 1.884.45 2.273 1.349.462-.827 1.373-1.35 2.528-1.35"/><path d="M113.128 43.414h4.096v.717h-5.202v-.571l4.023-5.093h-3.95v-.73h5.057v.572z"/><path d="M107.815 44.192c-1.872 0-3.258-1.362-3.258-3.258s1.386-3.245 3.258-3.245c1.871 0 3.245 1.349 3.245 3.245s-1.374 3.258-3.245 3.258m0-.766c1.361 0 2.37-.997 2.37-2.492s-1.009-2.492-2.37-2.492-2.383.997-2.383 2.492 1.021 2.492 2.383 2.492"/><path d="M101.401 39.099c.377-.912 1.252-1.41 2.479-1.41v.875c-.073 0-.146-.012-.206-.012-1.337 0-2.152.814-2.152 2.321v3.258h-.863v-5.664h-.9v-.73h1.581z"/><path d="M94.028 37.737h.863v5.616c0 2.2-1.009 3.197-2.978 3.197-1.094 0-2.175-.353-2.795-.985l.437-.656c.547.547 1.386.875 2.31.875 1.483 0 2.163-.742 2.163-2.322v-.741c-.45.741-1.264 1.167-2.26 1.167-1.641 0-2.699-.912-2.699-2.747v-3.404h.863v3.319c0 1.361.705 2.054 1.92 2.054 1.338 0 2.176-.863 2.176-2.322z"/><path d="M83.299 43.414h4.096v.717h-5.203v-.571l4.024-5.093h-3.95v-.73h5.056v.572z"/><path d="M78.781 44.192c-1.908 0-3.294-1.35-3.294-3.258s1.386-3.245 3.294-3.245c1.082 0 1.993.425 2.504 1.264l-.644.437c-.438-.644-1.119-.948-1.86-.948-1.398 0-2.419.997-2.419 2.492 0 1.507 1.021 2.492 2.419 2.492.741 0 1.422-.292 1.86-.936l.644.437c-.51.827-1.422 1.264-2.504 1.264"/><path d="M70.17 41.87c.68 0 1.167.474 1.167 1.167 0 .316-.049.547-.328 1.215l-.693 1.75h-1.204l.535-1.932c-.4-.158-.656-.535-.656-1.033 0-.705.51-1.167 1.179-1.167"/><path d="M65.788 37.591h1.896v6.54h-1.799v-.778c-.498.571-1.228.875-2.03.875-1.64 0-2.796-.924-2.796-2.941V37.59h1.897v3.416c0 1.094.486 1.58 1.325 1.58.875 0 1.507-.559 1.507-1.762z"/><path d="m58.054 40.46 2.358 3.67H58.26L56.413 41.3h-.875v2.832h-1.896v-9.02h1.896v4.741h.875l1.75-2.26h2.115z"/><path d="M49.216 37.494c1.544 0 2.71.9 2.71 2.893v3.744H50.03v-3.452c0-1.058-.486-1.544-1.325-1.544-.911 0-1.568.56-1.568 1.763v3.233h-1.896V39.05h-.73v-1.459h2.25l.097 1.021c.498-.729 1.349-1.118 2.358-1.118"/><path d="M41.479 37.591h1.896v6.54h-1.811v-.754c-.474.572-1.167.851-2.042.851-1.848 0-3.27-1.313-3.27-3.367s1.422-3.367 3.27-3.367c.802 0 1.483.255 1.957.79zm-1.629 5.081c.936 0 1.665-.68 1.665-1.81 0-1.131-.73-1.812-1.665-1.812-.948 0-1.677.68-1.677 1.811s.729 1.811 1.677 1.811"/><path d="M33.832 39.706c.948.304 1.556 1.033 1.556 2.103 0 1.47-1.167 2.322-3.403 2.322h-4.182v-6.904h-.9v-1.605h4.839c2.127 0 3.22.888 3.22 2.212 0 .851-.437 1.508-1.13 1.872m-2.334-2.6H29.76v2.005h1.738c.96 0 1.483-.34 1.483-1.01 0-.668-.522-.996-1.483-.996m.34 5.542c1.022 0 1.557-.316 1.557-1.046 0-.717-.535-1.057-1.556-1.057H29.76v2.103z"/><path d="M23.3 37.494c1.555 0 2.674.9 2.674 2.893v3.744h-1.897v-3.452c0-1.058-.474-1.544-1.24-1.544-.85 0-1.446.547-1.446 1.714v3.282h-1.896v-3.452c0-1.058-.45-1.544-1.24-1.544-.839 0-1.434.547-1.434 1.714v3.282h-1.896V39.05h-.73v-1.459h2.249l.097 1.01c.474-.718 1.289-1.107 2.249-1.107.912 0 1.69.353 2.151 1.07.523-.669 1.374-1.07 2.358-1.07"/><path d="M138.963 21.92c-.705 0-1.179-.462-1.179-1.057 0-.596.474-1.058 1.179-1.058s1.179.438 1.179 1.021c0 .632-.474 1.094-1.179 1.094m-.948 7.451v-6.54h1.896v6.54z"/><path d="M135.357 21.92c-.705 0-1.179-.462-1.179-1.057 0-.596.474-1.058 1.179-1.058s1.179.438 1.179 1.021c0 .632-.474 1.094-1.179 1.094m-1.301 9.906c-.522 0-.984-.109-1.361-.364l.51-1.374c.195.146.389.231.645.231.328 0 .559-.23.559-.705v-6.782h1.896v6.673c0 1.434-.814 2.322-2.249 2.322"/><path d="M130.266 29.468c-2.127 0-3.646-1.397-3.646-3.367s1.519-3.366 3.646-3.366c1.374 0 2.455.595 2.93 1.665l-1.471.79c-.353-.62-.875-.9-1.471-.9-.96 0-1.714.669-1.714 1.811 0 1.143.754 1.812 1.714 1.812.596 0 1.118-.268 1.471-.9l1.471.802c-.475 1.046-1.556 1.653-2.93 1.653"/><path d="M123.502 22.832h1.896v6.54h-1.811v-.755c-.474.572-1.167.851-2.042.851-1.848 0-3.27-1.312-3.27-3.367s1.422-3.366 3.27-3.366c.802 0 1.483.255 1.957.79zm-1.629 5.08c.936 0 1.665-.68 1.665-1.81 0-1.131-.729-1.812-1.665-1.812-.948 0-1.678.681-1.678 1.811s.73 1.812 1.678 1.812"/><path d="m115.885 25.7 2.358 3.671h-2.151l-1.848-2.832h-.875v2.832h-1.896v-9.019h1.896v4.74h.875l1.75-2.26h2.115z"/><path d="M108.765 21.92c-.705 0-1.179-.462-1.179-1.057 0-.596.474-1.058 1.179-1.058s1.179.438 1.179 1.021c0 .632-.474 1.094-1.179 1.094m-.948 7.451v-6.54h1.896v6.54z"/><path d="M104.161 29.371v-9.019h1.896v9.02z"/><path d="M99.638 22.735c1.835 0 3.257 1.312 3.257 3.366s-1.422 3.367-3.257 3.367c-.815 0-1.483-.255-1.97-.79v3.051h-1.896V24.29h-.729v-1.458h2.249l.121.984c.474-.729 1.24-1.081 2.225-1.081m-.329 5.178c.949 0 1.666-.681 1.666-1.812 0-1.13-.717-1.81-1.665-1.81s-1.666.68-1.666 1.81.717 1.812 1.665 1.812"/><path d="M92.01 22.832h1.896v6.54h-1.81v-.755c-.475.572-1.168.851-2.043.851-1.847 0-3.27-1.312-3.27-3.367s1.422-3.366 3.27-3.366c.802 0 1.483.255 1.957.79zm-1.629 5.08c.936 0 1.665-.68 1.665-1.81 0-1.131-.729-1.812-1.665-1.812-.948 0-1.677.681-1.677 1.811s.73 1.812 1.677 1.812"/><path d="M81.268 22.832h1.678l-2.37 6.54h-1.824l-1.47-4.06-1.52 4.06h-1.823l-2.358-6.54h1.787l1.543 4.424 1.605-4.424h1.604l1.556 4.424z"/><path d="m67.446 20.243-2.2 1.75h-1.483l1.64-1.75zm-3.1 7.67h3.44v1.458h-5.834V28.23l3.33-3.939h-3.245v-1.458h5.64v1.142z"/><path d="M58.75 20.352h1.897v9.02h-1.811v-.754c-.474.57-1.167.85-2.042.85-1.848 0-3.27-1.312-3.27-3.366s1.422-3.367 3.27-3.367c.802 0 1.482.255 1.957.79zm-1.628 7.56c.936 0 1.665-.68 1.665-1.81s-.73-1.812-1.665-1.812c-.948 0-1.678.681-1.678 1.812 0 1.13.73 1.81 1.678 1.81"/><path d="M52.091 22.832h1.678l-2.37 6.54h-1.824l-1.47-4.06-1.52 4.06h-1.823l-2.358-6.54h1.787l1.543 4.424 1.605-4.424h1.604l1.556 4.424z"/><path d="M39.663 22.832h1.896v6.54h-1.811v-.755c-.474.572-1.167.851-2.042.851-1.848 0-3.27-1.312-3.27-3.367s1.422-3.366 3.27-3.366c.802 0 1.483.255 1.957.79zm-1.63 5.08c.937 0 1.666-.68 1.666-1.81 0-1.131-.73-1.812-1.665-1.812-.948 0-1.678.681-1.678 1.811s.73 1.812 1.678 1.812"/><path d="M31.545 23.938c.438-.79 1.313-1.203 2.443-1.203v1.835c-.158-.012-.28-.024-.413-.024-1.057 0-1.75.534-1.75 1.738v3.087h-1.896v-5.08h-.73v-1.46h2.249z"/><path d="M25.247 22.735c1.836 0 3.258 1.312 3.258 3.366s-1.422 3.367-3.258 3.367c-.814 0-1.483-.255-1.969-.79v3.051h-1.896V24.29h-.73v-1.458h2.25l.12.984c.475-.729 1.24-1.081 2.225-1.081m-.328 5.178c.948 0 1.665-.681 1.665-1.812 0-1.13-.717-1.81-1.665-1.81s-1.665.68-1.665 1.81.717 1.812 1.665 1.812"/><path d="M16.967 29.468c-1.106 0-2.225-.303-2.832-.705l.632-1.361c.583.377 1.47.632 2.273.632.875 0 1.203-.23 1.203-.595 0-1.07-3.95.024-3.95-2.59 0-1.24 1.118-2.114 3.026-2.114.9 0 1.896.206 2.516.57l-.632 1.35a3.76 3.76 0 0 0-1.884-.486c-.85 0-1.215.267-1.215.607 0 1.119 3.95.037 3.95 2.614 0 1.215-1.13 2.078-3.087 2.078"/></g><defs><clipPath id="a"><rect width="86.822" height="5.209" fill="#fff" transform="translate(120.682 118.798)"/></clipPath><clipPath id="b"><rect width="197.953" height="5.209" fill="#fff" transform="translate(9.55 .72)"/></clipPath><clipPath id="c"><rect width="62.57" height="23.776" fill="#fff" transform="translate(13.537 74.232)"/></clipPath></defs></svg>