<svg xmlns="http://www.w3.org/2000/svg" fill="none" viewBox="0 0 202 18"><path fill="#fff" d="M.897 3.902.365 1.46c.7-.484 2.054-.943 3.6-.943C7.06.518 8.51 2.403 8.51 4.53c0 1.667-1.112 3.287-2.755 3.697v.049c1.91.386 3.238 1.837 3.238 4.084 0 3.117-2.658 4.833-5.582 4.833-1.353 0-2.538-.314-3.287-.725l.46-2.585c.7.41 1.619.652 2.513.652 1.691 0 2.586-.967 2.586-2.272 0-1.812-1.499-2.537-3.215-2.537h-.459V7.333h.314c1.45 0 2.9-.7 2.9-2.199 0-1.136-.7-1.909-2.054-1.909-.749 0-1.643.314-2.271.677m15.524 9.376h-2.924L12.772 17h-3.07L13.233.712h3.793L20.191 17h-3.07zm-2.61-2.465h2.32L15.6 7.406c-.169-.991-.386-2.61-.531-3.698h-.073c-.169 1.088-.41 2.78-.58 3.722zM21.98.712h8.313v2.706H25.12v3.408a5.8 5.8 0 0 1 1.281-.121c1.402 0 2.634.435 3.528 1.208.967.846 1.547 2.127 1.547 3.77 0 1.571-.483 2.828-1.353 3.698-1.112 1.184-2.852 1.74-5.196 1.74-1.208 0-2.223-.073-2.948-.17zm3.165 8.603v5.22c.218.048.435.048.701.048.75 0 1.354-.29 1.74-.773.411-.483.604-1.16.604-1.885 0-.75-.217-1.426-.628-1.885a2.18 2.18 0 0 0-1.692-.797q-.398 0-.725.072M38.017.518c3.939 0 5.05 4.326 5.05 8.048 0 6.138-2.174 8.627-5.268 8.627-3.697 0-5.147-3.915-5.147-8.386 0-4.446 1.764-8.289 5.365-8.289m-.121 2.755c-1.257 0-1.958 2.079-1.958 5.583 0 3.697.701 5.582 1.982 5.582 1.33 0 1.837-2.416 1.837-5.727 0-2.852-.435-5.438-1.861-5.438M46.518 17V3.636h-2.876V.712h8.942v2.924h-2.9V17zm12.148-3.722H55.74L55.016 17h-3.069L55.476.712h3.794L62.436 17h-3.07zm-2.61-2.465h2.32l-.532-3.407c-.17-.991-.387-2.61-.532-3.698h-.072c-.17 1.088-.411 2.78-.58 3.722zM72.638.518c3.94 0 5.051 4.326 5.051 8.048 0 6.138-2.175 8.627-5.268 8.627-3.698 0-5.148-3.915-5.148-8.386 0-4.446 1.765-8.289 5.365-8.289m-.12 2.755c-1.257 0-1.958 2.079-1.958 5.583 0 3.697.7 5.582 1.982 5.582 1.329 0 1.836-2.416 1.836-5.727 0-2.852-.435-5.438-1.86-5.438M93.799 17l-.29-5.703c-.072-1.547-.193-3.65-.145-5.39h-.072a71 71 0 0 1-1.04 5.003l-1.401 5.824h-2.248l-1.353-5.727c-.314-1.305-.749-3.335-.99-5.1h-.073a181 181 0 0 1-.242 5.438L85.68 17h-2.73L84.133.712h3.335l1.305 5.896c.459 2.055.87 3.867 1.16 5.704h.048c.242-1.813.604-3.65 1.04-5.704L92.3.712h3.335L96.626 17zM98.94.712h2.803v3.6c0 2.997-.193 5.8-.314 7.492h.049c.459-1.402 1.28-3.528 1.764-4.785l2.392-6.307h2.876V17h-2.779v-3.673c0-3.263.121-5.68.193-7.323h-.048c-.363 1.474-1.088 3.432-1.619 4.785L101.864 17H98.94zm12.39 0h3.094v7.08h.241l2.659-7.08h3.48l-3.746 7.54c1.667.628 2.223 2.15 2.682 4.132.363 1.571.629 3.118 1.112 4.616h-3.166c-.387-1.16-.628-2.49-.894-3.77-.387-1.91-.822-3.142-2.127-3.142h-.241V17h-3.094zM122.304 17V.953c.894-.193 2.103-.314 3.311-.314 1.885 0 3.359.266 4.423 1.257.966.846 1.401 2.199 1.401 3.577 0 1.764-.531 2.996-1.377 3.914-1.015 1.064-2.659 1.547-3.964 1.547h-.628V17zm3.166-13.678v5.026c.145.049.314.049.508.049 1.595 0 2.32-1.136 2.32-2.659 0-1.426-.58-2.537-2.055-2.537-.29 0-.58.048-.773.12M137.917.518c3.939 0 5.051 4.326 5.051 8.048 0 6.138-2.175 8.627-5.269 8.627-3.697 0-5.147-3.915-5.147-8.386 0-4.446 1.764-8.289 5.365-8.289m-.121 2.755c-1.257 0-1.958 2.079-1.958 5.583 0 3.697.701 5.582 1.982 5.582 1.329 0 1.837-2.416 1.837-5.727 0-2.852-.435-5.438-1.861-5.438M149.358.132h2.779v1.232c2.925.387 5.148 2.683 5.148 7.371 0 5.003-2.248 7.105-5.148 7.516v1.329h-2.803v-1.33c-2.948-.434-5.147-2.512-5.147-7.443 0-4.784 2.634-7.056 5.171-7.443zm0 13.799V3.66c-.966.29-2.006 1.595-2.006 5.196 0 3.359 1.015 4.857 2.006 5.075m2.755-10.271v10.27c1.064-.217 2.006-1.522 2.006-5.17 0-3.698-1.087-4.882-2.006-5.1m7.636-2.948h8.483V17h-3.166V3.467h-2.417v4.301c0 3.746-.242 7.033-2.296 8.628-.604.483-1.377.797-2.175.797l-.676-2.682c.386-.097.797-.29 1.087-.58.943-.967 1.16-2.707 1.16-5.873zm15.857-.194c3.94 0 5.051 4.326 5.051 8.048 0 6.138-2.175 8.627-5.268 8.627-3.698 0-5.148-3.915-5.148-8.386 0-4.446 1.765-8.289 5.365-8.289m-.12 2.755c-1.257 0-1.958 2.079-1.958 5.583 0 3.697.701 5.582 1.982 5.582 1.329 0 1.836-2.416 1.836-5.727 0-2.852-.435-5.438-1.86-5.438M182.674 17V.953c.894-.193 2.102-.314 3.311-.314 1.885 0 3.359.266 4.422 1.257.967.846 1.402 2.199 1.402 3.577 0 1.764-.532 2.996-1.378 3.914-1.015 1.064-2.658 1.547-3.963 1.547h-.628V17zm3.166-13.678v5.026c.145.049.314.049.507.049 1.595 0 2.32-1.136 2.32-2.659 0-1.426-.58-2.537-2.054-2.537-.29 0-.58.048-.773.12m14.766 3.89v2.635h-3.721v4.398h4.205V17h-7.371V.712h7.081v2.755h-3.915v3.746z"/></svg>