<svg xmlns="http://www.w3.org/2000/svg" fill="none" viewBox="0 0 134 47"><path fill="#fff" d="M1.235.712h3.166v6.525h3.31V.712h3.166V17H7.712v-6.815H4.4V17H1.235zm17.947 12.566h-2.924L15.533 17h-3.069L15.992.712h3.794L22.953 17h-3.069zm-2.61-2.465h2.32l-.531-3.407c-.17-.991-.387-2.61-.532-3.698h-.073c-.169 1.088-.41 2.78-.58 3.722zm7.972-6.911-.532-2.441c.701-.484 2.055-.943 3.601-.943 3.094 0 4.544 1.885 4.544 4.012 0 1.667-1.112 3.287-2.755 3.697v.049c1.909.386 3.238 1.837 3.238 4.084 0 3.117-2.658 4.833-5.583 4.833-1.353 0-2.537-.314-3.286-.725l.459-2.585c.7.41 1.62.652 2.513.652 1.692 0 2.586-.967 2.586-2.272 0-1.812-1.498-2.537-3.214-2.537h-.46V7.333h.315c1.45 0 2.9-.7 2.9-2.199 0-1.136-.7-1.909-2.054-1.909-.75 0-1.644.314-2.272.677M34.56.712h3.165v6.525h3.311V.712h3.166V17h-3.166v-6.815h-3.31V17h-3.166zm17.947 12.566h-2.924L48.857 17h-3.07L49.317.712h3.794L56.276 17h-3.07zm-2.61-2.465h2.32l-.532-3.407c-.169-.991-.386-2.61-.531-3.698h-.073c-.17 1.088-.41 2.78-.58 3.722zM57.944.712h3.117v5.413c0 1.33.508 2.272 1.788 2.272.46 0 .991-.145 1.305-.339V.712h3.118V17h-3.118v-6.5h-.072c-.75.338-1.474.555-2.32.555-2.803 0-3.818-1.885-3.818-4.567zm12.133 0h2.803v3.6c0 2.997-.193 5.8-.314 7.492h.048c.46-1.402 1.281-3.528 1.765-4.785L76.77.712h2.876V17h-2.78v-3.673c0-3.263.122-5.68.194-7.323h-.048c-.363 1.474-1.088 3.432-1.62 4.785L73.002 17h-2.924zm13.018 0h8.483V17h-3.166V3.467h-2.417v4.301c0 3.746-.241 7.033-2.295 8.628-.605.483-1.378.797-2.175.797l-.677-2.682c.387-.097.797-.29 1.087-.58.943-.967 1.16-2.707 1.16-5.873zm11.29 0h2.803v3.6c0 2.997-.193 5.8-.314 7.492h.049c.459-1.402 1.28-3.528 1.764-4.785l2.392-6.307h2.876V17h-2.779v-3.673c0-3.263.121-5.68.193-7.323h-.048c-.362 1.474-1.087 3.432-1.62 4.785L97.31 17h-2.924zM6.745 42.278H3.821L3.096 46H.026l3.529-16.288h3.794L10.515 46h-3.07zm-2.61-2.465h2.32l-.532-3.407c-.169-.991-.386-2.61-.531-3.698h-.073c-.169 1.088-.41 2.78-.58 3.722zm8.169-10.101h3.165v6.525h3.311v-6.525h3.166V46H18.78v-6.815h-3.31V46h-3.167zM26.505 46V32.636h-2.876v-2.924h8.942v2.924h-2.9V46zm7.723-16.288h2.803v3.6c0 2.997-.193 5.8-.314 7.492h.049c.459-1.401 1.28-3.528 1.764-4.785l2.392-6.307h2.876V46H41.02v-3.673c0-3.263.12-5.68.193-7.323h-.048c-.363 1.474-1.087 3.432-1.62 4.785L37.153 46h-2.924zm12.39 0h8.314v2.706H49.76v3.408c.46-.097.822-.121 1.28-.121 1.402 0 2.635.435 3.53 1.208.966.846 1.546 2.127 1.546 3.77 0 1.571-.484 2.828-1.354 3.698-1.111 1.184-2.851 1.74-5.195 1.74-1.209 0-2.224-.073-2.949-.17zm3.166 8.603v5.22c.218.048.435.048.7.048.75 0 1.354-.29 1.74-.773.412-.483.605-1.16.605-1.885 0-.75-.217-1.426-.628-1.885a2.18 2.18 0 0 0-1.692-.797 3.4 3.4 0 0 0-.725.072m8.233-8.603h2.803v3.6c0 2.997-.193 5.8-.314 7.492h.049c.459-1.401 1.28-3.528 1.764-4.785l2.392-6.307h2.876V46h-2.779v-3.673c0-3.263.12-5.68.193-7.323h-.048c-.362 1.474-1.088 3.432-1.62 4.785L60.942 46h-2.924zm16.958-.194c3.939 0 5.05 4.326 5.05 8.048 0 6.138-2.174 8.627-5.268 8.627-3.697 0-5.147-3.915-5.147-8.385 0-4.447 1.764-8.29 5.365-8.29m-.121 2.755c-1.257 0-1.957 2.079-1.957 5.583 0 3.697.7 5.582 1.981 5.582 1.33 0 1.837-2.416 1.837-5.727 0-2.852-.435-5.438-1.861-5.438M83.476 46V32.636H80.6v-2.924h8.942v2.924h-2.9V46zm7.723-16.288h2.803v3.6c0 2.997-.193 5.8-.314 7.492h.049c.459-1.401 1.28-3.528 1.764-4.785l2.392-6.307h2.876V46H97.99v-3.673c0-3.263.12-5.68.193-7.323h-.048c-.363 1.474-1.088 3.432-1.62 4.785L94.124 46H91.2zm12.39 0h3.094v7.08h.241l2.659-7.08h3.48l-3.746 7.54c1.667.628 2.223 2.15 2.682 4.132.363 1.571.629 3.118 1.112 4.616h-3.166c-.387-1.16-.628-2.49-.894-3.77-.387-1.91-.822-3.142-2.127-3.142h-.241V46h-3.094zm10.974 0h2.804v3.6c0 2.997-.194 5.8-.314 7.492h.048c.459-1.401 1.281-3.528 1.764-4.785l2.393-6.307h2.875V46h-2.779v-3.673c0-3.263.121-5.68.194-7.323h-.049c-.362 1.474-1.087 3.432-1.619 4.785L117.488 46h-2.925zm15.798 11.261h-2.682l-.049-.435c-.169-1.425.387-2.706 1.281-4.108.701-1.04 1.039-1.764 1.039-2.682 0-.895-.604-1.499-1.595-1.499-.531 0-1.087.097-1.546.435l-.532-2.44c.507-.339 1.643-.726 2.827-.726 3.19 0 4.085 2.103 4.085 3.722 0 1.667-.943 3.02-1.789 4.253-.652.991-1.063 1.837-1.039 2.973zm-1.305 5.22c-1.039 0-1.812-.821-1.812-1.933 0-1.184.845-1.957 1.788-1.982 1.039 0 1.812.798 1.812 1.982 0 1.112-.676 1.933-1.788 1.933"/></svg>