<svg xmlns="http://www.w3.org/2000/svg" fill="none" viewBox="0 0 111 33"><path fill="#000" d="M3.71 9.936h4.16V11.7H.816v-1.382l4.027-4.763H.917V3.791h6.821v1.382zm11.263-6.145h2.293V11.7h-2.19v-.911c-.574.69-1.412 1.029-2.47 1.029-2.235 0-3.954-1.588-3.954-4.072s1.72-4.072 3.954-4.072c.97 0 1.793.309 2.367.955zm-1.97 6.145c1.132 0 2.014-.823 2.014-2.19s-.882-2.19-2.014-2.19c-1.147 0-2.029.823-2.029 2.19s.882 2.19 2.029 2.19m10.46-4.777-1.647 1.234V11.7h-2.293V8.113l-.809.603-.852-1.147 1.66-1.25V.794h2.294v3.792l.808-.602zm3.074-2.382L28.52.66h2.47l-2.66 2.117zm1.367 9.04c-2.514 0-4.351-1.69-4.351-4.071 0-2.382 1.837-4.072 4.35-4.072 2.515 0 4.337 1.69 4.337 4.072 0 2.381-1.823 4.072-4.336 4.072m0-1.881c1.146 0 2.014-.823 2.014-2.19s-.868-2.19-2.014-2.19c-1.147 0-2.029.823-2.029 2.19s.882 2.19 2.029 2.19m8.753-7.232c-.72 0-1.235-.53-1.235-1.25 0-.705.514-1.235 1.235-1.235.72 0 1.235.53 1.235 1.235 0 .72-.515 1.25-1.235 1.25m-.632 7.232h4.16V11.7h-7.056v-1.382l4.028-4.763h-3.925V3.791h6.82v1.382zm15.128-2.675 2.852 4.439h-2.602L49.17 8.275H48.11V11.7h-2.294V.793h2.294v5.733h1.058l2.117-2.735h2.557zm7.242 4.557c-2.514 0-4.351-1.69-4.351-4.072s1.837-4.072 4.35-4.072 4.337 1.69 4.337 4.072c0 2.381-1.823 4.072-4.336 4.072m0-1.882c1.146 0 2.014-.823 2.014-2.19s-.868-2.19-2.014-2.19c-1.147 0-2.029.823-2.029 2.19s.882 2.19 2.029 2.19m10.867-6.262c1.867 0 3.278 1.088 3.278 3.498V11.7h-2.293V7.525c0-1.279-.588-1.867-1.602-1.867-1.103 0-1.897.677-1.897 2.132v3.91h-2.293V5.555h-.882V3.791h2.72l.117 1.235c.603-.882 1.632-1.352 2.852-1.352M78.775 9.7l.602 1.617c-.47.338-1.161.5-1.852.5-1.882 0-2.955-.956-2.955-2.837V2.042h2.294v1.75h1.955V5.54h-1.956v3.41c0 .676.353 1.044.97 1.044.339 0 .677-.103.942-.294m5.417 2.117c-2.514 0-4.352-1.69-4.352-4.072s1.838-4.072 4.352-4.072c2.513 0 4.336 1.69 4.336 4.072 0 2.381-1.823 4.072-4.336 4.072m0-1.882c1.146 0 2.014-.823 2.014-2.19s-.868-2.19-2.014-2.19c-1.147 0-2.029.823-2.029 2.19s.882 2.19 2.029 2.19M2.505 20.689c-.853 0-1.426-.559-1.426-1.279s.573-1.279 1.426-1.279 1.426.53 1.426 1.235c0 .764-.573 1.323-1.426 1.323M1.358 29.7v-7.909h2.294V29.7zm10.937-1.764h4.16V29.7H9.4v-1.382l4.028-4.763H9.502v-1.764h6.82v1.382zm11.363-6.145h2.293v6.586c0 2.94-1.544 4.292-4.307 4.292-1.455 0-2.867-.367-3.763-1.087l.911-1.647c.647.544 1.676.882 2.675.882 1.53 0 2.19-.72 2.19-2.146v-.265c-.602.603-1.425.912-2.337.912-1.984 0-3.38-1.103-3.38-3.558v-3.969h2.293v3.631c0 1.338.588 1.926 1.602 1.926 1.058 0 1.823-.676 1.823-2.131zm7.091 8.027c-1.338 0-2.69-.368-3.425-.853l.764-1.646c.706.455 1.779.764 2.75.764 1.058 0 1.454-.28 1.454-.72 0-1.294-4.777.03-4.777-3.131 0-1.5 1.352-2.558 3.66-2.558 1.088 0 2.293.25 3.043.69l-.764 1.632a4.54 4.54 0 0 0-2.279-.588c-1.029 0-1.47.324-1.47.735 0 1.353 4.778.044 4.778 3.16 0 1.47-1.367 2.515-3.734 2.515m10.485-4.557 2.852 4.439h-2.602l-2.235-3.425h-1.058V29.7h-2.293V18.793h2.293v5.733h1.058l2.117-2.735h2.558zm9.211-3.47h2.293V29.7h-2.19v-.911c-.573.69-1.411 1.029-2.47 1.029-2.234 0-3.954-1.588-3.954-4.072s1.72-4.072 3.954-4.072c.97 0 1.794.309 2.367.955zm-1.97 6.145c1.132 0 2.014-.823 2.014-2.19s-.882-2.19-2.014-2.19c-1.146 0-2.028.823-2.028 2.19s.882 2.19 2.028 2.19m7.622-7.247c-.852 0-1.425-.559-1.425-1.279s.573-1.279 1.425-1.279 1.426.53 1.426 1.235c0 .764-.573 1.323-1.426 1.323m-1.572 11.98c-.633 0-1.191-.132-1.647-.44l.618-1.662c.235.177.47.28.779.28.397 0 .676-.28.676-.853v-8.203h2.293v8.07c0 1.735-.985 2.808-2.72 2.808m13.948-10.995c1.867 0 3.278 1.088 3.278 3.498V29.7h-2.294v-4.175c0-1.279-.587-1.867-1.602-1.867-1.102 0-1.896.676-1.896 2.132v3.91h-2.293v-6.145h-.882v-1.764h2.72l.117 1.235c.603-.882 1.632-1.352 2.852-1.352m11.142.117h2.294V29.7h-2.19v-.911c-.574.69-1.412 1.029-2.47 1.029-2.235 0-3.955-1.588-3.955-4.072s1.72-4.072 3.955-4.072c.97 0 1.793.309 2.366.955zm-1.97 6.145c1.132 0 2.014-.823 2.014-2.19s-.882-2.19-2.014-2.19c-1.146 0-2.028.823-2.028 2.19s.882 2.19 2.028 2.19m17.001-6.145h2.029L93.808 29.7h-2.205l-1.778-4.91-1.838 4.91h-2.205l-2.852-7.909h2.161l1.867 5.351 1.94-5.35h1.941l1.882 5.35zm10.038 3.984c0 .177-.029.426-.044.617h-5.983c.22.985 1.059 1.588 2.264 1.588.838 0 1.44-.25 1.984-.764l1.22 1.323c-.735.838-1.837 1.279-3.263 1.279-2.734 0-4.513-1.72-4.513-4.072 0-2.367 1.808-4.072 4.219-4.072 2.323 0 4.116 1.558 4.116 4.101m-4.101-2.367c-1.044 0-1.794.633-1.955 1.647h3.895c-.162-1-.911-1.647-1.94-1.647m9.788 4.293.603 1.617c-.471.338-1.162.5-1.853.5-1.881 0-2.954-.956-2.954-2.838v-6.938h2.293v1.75h1.955v1.749h-1.955v3.41c0 .676.353 1.044.97 1.044.338 0 .676-.103.941-.294"/></svg>