<svg xmlns="http://www.w3.org/2000/svg" fill="none" viewBox="0 0 103 15"><g clip-path="url(#a)"><path fill="#fff" d="m.796 12.154 1.71-1.896c.805 1.145 1.81 1.675 2.837 1.675.941 0 1.503-.498 1.503-1.3 0-.8-.53-1.18-1.964-1.777-2.036-.801-3.488-1.71-3.488-3.846s1.828-3.828 4.36-3.828c1.846 0 3.145.684 4.086 1.728L8.198 4.928C7.668 4.245 6.932 3.8 5.976 3.8c-.787 0-1.348.426-1.348 1.059s.615.959 2.103 1.574c2.154.837 3.367 1.896 3.367 4.085 0 2.444-1.914 4.018-4.547 4.018-2.258 0-3.864-.991-4.751-2.376zm24.387 2.154-.837-2.443h-4.718l-.887 2.443h-3.385l5.28-12.886h2.855l5.213 12.89h-3.52zm-4.682-4.855h3.008l-.633-1.846a83 83 0 0 1-.82-2.529 70 70 0 0 1-.872 2.512zm34.529 4.855V1.422h3.692c4.375 0 7.434 2.154 7.434 6.443 0 4.29-3.01 6.443-7.23 6.443zm3.162-2.787h.684c2.425 0 4.035-1.266 4.035-3.656s-1.367-3.574-4.035-3.574h-.684zm13.741-3.674c0-3.81 3.145-6.65 6.94-6.65 3.778 0 6.905 2.819 6.905 6.682s-3.145 6.65-6.959 6.65-6.886-2.682-6.886-6.682m10.582.036c0-2.118-1.556-3.76-3.656-3.76-2.068 0-3.656 1.656-3.656 3.742 0 2.204 1.656 3.742 3.624 3.742 2.103 0 3.692-1.588 3.692-3.728zm19.686-6.46H92.027v2.804H97L90.947 14.31h10.89v-2.854h-5.642zM43.833 14.307h2.99V1.422h-2.99v8.21L37.8 1.422h-3.059v12.89h3.059v-8.21l6.035 8.21z"/></g><defs><clipPath id="a"><rect width="102" height="13.958" fill="#fff" transform="translate(.528 .914)"/></clipPath></defs></svg>