<svg xmlns="http://www.w3.org/2000/svg" fill="none" viewBox="0 0 256 89"><path fill="#fff" d="M2.491 1.327H8.57v12.528h6.356V1.326h6.079V32.6h-6.079V19.515H8.57V32.6H2.49zm34.46 24.128h-5.615L29.944 32.6H24.05l6.774-31.274h7.285L44.188 32.6h-5.892zm-5.012-4.733h4.454l-1.02-6.543c-.325-1.902-.743-5.01-1.021-7.099h-.14c-.324 2.088-.788 5.336-1.113 7.146zm15.306-13.27-1.021-4.687c1.346-.928 3.944-1.81 6.914-1.81 5.939 0 8.723 3.62 8.723 7.703 0 3.201-2.135 6.31-5.29 7.099v.093c3.666.742 6.218 3.526 6.218 7.841 0 5.986-5.104 9.28-10.719 9.28-2.598 0-4.872-.603-6.31-1.392l.882-4.965c1.345.79 3.108 1.253 4.825 1.253 3.248 0 4.965-1.856 4.965-4.361 0-3.48-2.877-4.872-6.171-4.872h-.882V14.04h.603c2.784 0 5.568-1.345 5.568-4.222 0-2.181-1.345-3.666-3.944-3.666-1.438 0-3.155.603-4.361 1.3m19.227-6.125h6.079v12.528h6.357V1.325h6.078V32.6h-6.078V19.515H72.55V32.6h-6.079zm34.459 24.128h-5.614L93.925 32.6h-5.893l6.775-31.274h7.284L108.17 32.6h-5.893zm-5.01-4.733h4.454l-1.021-6.543c-.325-1.902-.743-5.01-1.021-7.099h-.14c-.324 2.088-.788 5.336-1.113 7.146zm15.451-19.396h5.985V11.72c0 2.552.975 4.362 3.434 4.362.881 0 1.902-.279 2.505-.65V1.326h5.986V32.6h-5.986V20.12h-.139c-1.438.65-2.83 1.067-4.454 1.067-5.383 0-7.331-3.62-7.331-8.77zm23.296 0h5.382V8.24c0 5.754-.371 11.136-.603 14.384h.093c.881-2.691 2.459-6.774 3.387-9.187l4.594-12.11h5.521V32.6h-5.336v-7.053c0-6.264.232-10.904.371-14.059h-.092c-.696 2.83-2.088 6.589-3.109 9.187L140.282 32.6h-5.614zm24.995 0h16.287V32.6h-6.079V6.616h-4.64v8.26c0 7.191-.464 13.502-4.408 16.564-1.16.928-2.645 1.531-4.176 1.531l-1.299-5.15c.742-.186 1.531-.557 2.088-1.114 1.81-1.856 2.227-5.196 2.227-11.275zm21.677 0h5.382V8.24c0 5.754-.371 11.136-.603 14.384h.093c.881-2.691 2.459-6.774 3.387-9.187l4.593-12.11h5.522V32.6h-5.336v-7.053c0-6.264.232-10.904.371-14.059h-.093c-.696 2.83-2.088 6.589-3.108 9.187L186.954 32.6h-5.614zM13.07 81.456H7.456L6.064 88.6H.171l6.775-31.273h7.284L20.31 88.6h-5.893zm-5.01-4.733h4.454l-1.021-6.543c-.325-1.902-.743-5.01-1.021-7.099h-.14c-.324 2.088-.788 5.336-1.113 7.146zm15.683-19.395h6.078v12.528h6.357V57.326h6.078V88.6h-6.078V75.515h-6.357V88.6h-6.078zM51.01 88.6V62.94h-5.522v-5.613h17.168v5.614h-5.568V88.6zm14.828-31.273h5.383v6.913c0 5.754-.372 11.136-.604 14.384h.093c.882-2.691 2.46-6.774 3.387-9.187l4.594-12.11h5.522V88.6h-5.337v-7.053c0-6.264.233-10.904.372-14.059h-.093c-.696 2.83-2.088 6.589-3.109 9.187L71.452 88.6h-5.614zm23.79 0h15.961v5.196h-9.93v6.543c.882-.186 1.578-.232 2.46-.232 2.691 0 5.057.835 6.774 2.32 1.856 1.624 2.969 4.083 2.969 7.238 0 3.016-.928 5.429-2.598 7.1-2.134 2.273-5.475 3.34-9.976 3.34-2.32 0-4.269-.14-5.66-.325zm6.078 16.518v10.022c.417.093.835.093 1.345.093 1.439 0 2.599-.557 3.341-1.485.789-.928 1.16-2.227 1.16-3.619 0-1.438-.418-2.737-1.206-3.62-.79-.927-1.903-1.53-3.249-1.53q-.765 0-1.391.139m15.807-16.518h5.382v6.913c0 5.754-.371 11.136-.603 14.384h.093c.882-2.691 2.459-6.774 3.387-9.187l4.594-12.11h5.521V88.6h-5.336v-7.053c0-6.264.232-10.904.372-14.059h-.093c-.696 2.83-2.088 6.589-3.109 9.187L117.127 88.6h-5.614zm32.559-.372c7.563 0 9.697 8.306 9.697 15.451 0 11.786-4.176 16.565-10.115 16.565-7.099 0-9.883-7.517-9.883-16.1 0-8.538 3.387-15.916 10.301-15.916m-.232 5.29c-2.413 0-3.759 3.99-3.759 10.718 0 7.1 1.346 10.719 3.805 10.719 2.552 0 3.527-4.64 3.527-10.997 0-5.475-.836-10.44-3.573-10.44M160.394 88.6V62.94h-5.522v-5.613h17.168v5.614h-5.568V88.6zm14.828-31.273h5.383v6.913c0 5.754-.371 11.136-.603 14.384h.092c.882-2.691 2.46-6.774 3.388-9.187l4.593-12.11h5.522V88.6h-5.336v-7.053c0-6.264.232-10.904.371-14.059h-.093c-.696 2.83-2.088 6.589-3.109 9.187L180.837 88.6h-5.615zm23.79 0h5.939v13.595h.464l5.104-13.595h6.681l-7.192 14.476c3.202 1.207 4.269 4.13 5.151 7.935.696 3.016 1.206 5.985 2.134 8.862h-6.078c-.743-2.227-1.207-4.78-1.717-7.238-.742-3.666-1.578-6.032-4.083-6.032h-.464V88.6h-5.939zm21.07 0h5.382v6.913c0 5.754-.371 11.136-.603 14.384h.093c.881-2.691 2.459-6.774 3.387-9.187l4.594-12.11h5.521V88.6h-5.336v-7.053c0-6.264.232-10.904.371-14.059h-.092c-.696 2.83-2.088 6.589-3.109 9.187L225.696 88.6h-5.614zm30.331 21.622h-5.15l-.093-.835c-.325-2.738.742-5.197 2.459-7.888 1.346-1.995 1.995-3.388 1.995-5.15 0-1.717-1.16-2.877-3.062-2.877-1.021 0-2.088.185-2.97.835l-1.02-4.687c.974-.65 3.155-1.392 5.428-1.392 6.125 0 7.842 4.037 7.842 7.146 0 3.201-1.81 5.8-3.434 8.166-1.252 1.903-2.041 3.527-1.995 5.708zm-2.505 10.022c-1.996 0-3.48-1.577-3.48-3.712 0-2.273 1.624-3.758 3.433-3.805 1.995 0 3.48 1.532 3.48 3.805 0 2.135-1.299 3.712-3.433 3.712"/></svg>