<svg xmlns="http://www.w3.org/2000/svg" fill="none" viewBox="0 0 133 19"><g clip-path="url(#a)"><path fill="#fff" d="m.35 14.634 2.226-2.468c1.048 1.49 2.357 2.18 3.693 2.18 1.225 0 1.957-.648 1.957-1.691s-.69-1.537-2.557-2.315c-2.65-1.043-4.542-2.226-4.542-5.007S3.507.349 6.805.349c2.403 0 4.094.89 5.319 2.25L9.986 5.226c-.69-.89-1.649-1.467-2.892-1.467-1.025 0-1.756.554-1.756 1.378 0 .825.8 1.249 2.739 2.05 2.803 1.09 4.382 2.468 4.382 5.319 0 3.181-2.491 5.23-5.92 5.23-2.938 0-5.03-1.29-6.185-3.092zm31.75 2.804-1.09-3.18h-6.143l-1.155 3.18h-4.406L26.181.661h3.717l6.786 16.782H32.1zm-6.096-6.32h3.917l-.825-2.404a108 108 0 0 1-1.066-3.292 91 91 0 0 1-1.137 3.27zm44.955 6.32V.661h4.807c5.696 0 9.679 2.804 9.679 8.389s-3.917 8.388-9.413 8.388zm4.118-3.628h.89c3.157 0 5.253-1.649 5.253-4.76s-1.78-4.653-5.254-4.653h-.89zm17.89-4.783c0-4.96 4.094-8.659 9.036-8.659 4.918 0 8.989 3.67 8.989 8.7s-4.094 8.659-9.059 8.659-8.966-3.493-8.966-8.7m13.777.046c0-2.757-2.026-4.895-4.76-4.895-2.692 0-4.76 2.156-4.76 4.872 0 2.869 2.156 4.872 4.718 4.872 2.739 0 4.807-2.068 4.807-4.854zM132.375.661h-13.246v3.652h6.474l-7.881 13.13H131.9v-3.717h-7.345zM56.381 17.438h3.894V.661H56.38v10.69L48.528.66h-3.982v16.782h3.982V6.753l7.858 10.69z"/></g><defs><clipPath id="a"><rect width="132.8" height="18.173" fill="#fff"/></clipPath></defs></svg>