<svg xmlns="http://www.w3.org/2000/svg" fill="none" viewBox="0 0 77 12"><path fill="#fff" d="M3.164 6.215H.854L.84 5.497h2.003q.6 0 1.018-.212a1.43 1.43 0 0 0 .643-.629q.225-.417.225-1.025 0-.63-.218-1.04a1.32 1.32 0 0 0-.65-.608q-.431-.205-1.087-.205h-1.73V11H.267V1.047h2.508q.636 0 1.142.157.513.15.868.472.355.315.54.806.192.493.192 1.17 0 .615-.24 1.107a2.116 2.116 0 0 1-1.682 1.196zM3.109 11H.587l.417-.731h2.105q.602 0 1.026-.246.423-.254.65-.711.231-.466.231-1.108 0-.56-.198-1.012a1.57 1.57 0 0 0-.608-.71q-.41-.267-1.046-.267h-1.49l.013-.718h2.085l.15.26q.575.068.992.41.424.342.656.868t.233 1.155q0 .91-.342 1.539a2.34 2.34 0 0 1-.944.95Q3.917 11 3.11 11m3.86-9.953 2.467 5.407 2.482-5.407h.902L9.826 7.254V11h-.78V7.254L6.054 1.047zm11.918 9.242V11h-5.284v-.643l2.735-3.698q.512-.69.813-1.21.3-.526.43-.957t.13-.84q0-.596-.198-1.053a1.6 1.6 0 0 0-.567-.718q-.375-.26-.93-.26-.567 0-.984.3a1.86 1.86 0 0 0-.629.814 3 3 0 0 0-.219 1.183h-.758q0-.827.307-1.504a2.63 2.63 0 0 1 .889-1.094q.58-.41 1.394-.41.759 0 1.306.321.554.315.855.916.3.595.3 1.43 0 .45-.137.908-.13.451-.362.91-.225.45-.526.895-.294.444-.615.875l-2.31 3.124zm2.178-4.204-.602-.185.41-4.853h4.205v.772h-3.555l-.287 3.336q.219-.185.622-.362a2.25 2.25 0 0 1 .916-.178q.567 0 1.019.226.45.219.779.636.328.417.506 1.011.178.595.178 1.34 0 .718-.15 1.32-.151.6-.466 1.052a2.1 2.1 0 0 1-.786.69q-.471.247-1.128.247-.499 0-.936-.164a2.3 2.3 0 0 1-.786-.513 2.7 2.7 0 0 1-.561-.861 3.9 3.9 0 0 1-.273-1.217h.724q.069.664.301 1.12.233.459.615.691.382.233.916.233.43 0 .759-.171.335-.17.56-.5a2.4 2.4 0 0 0 .335-.813q.117-.485.117-1.1 0-.527-.123-.97a2.5 2.5 0 0 0-.363-.787 1.7 1.7 0 0 0-.587-.52 1.6 1.6 0 0 0-.793-.191q-.588 0-.93.191-.335.192-.636.52m10.394-.916v1.675q0 1.1-.177 1.914-.178.807-.506 1.333t-.814.786q-.479.26-1.08.26-.485 0-.888-.164a2 2 0 0 1-.718-.5 3 3 0 0 1-.533-.854 5.3 5.3 0 0 1-.335-1.203 9.5 9.5 0 0 1-.116-1.572V5.169q0-1.1.177-1.9.178-.807.513-1.327.334-.525.807-.779.479-.26 1.086-.26.486 0 .882.164.404.165.718.5.321.327.533.833.22.506.335 1.197.116.69.116 1.572m-.758 1.77V5.06q0-.675-.076-1.223-.075-.554-.218-.964a2.3 2.3 0 0 0-.37-.697 1.432 1.432 0 0 0-1.162-.56q-.457 0-.8.218-.334.22-.567.656-.225.43-.341 1.08a8.5 8.5 0 0 0-.117 1.49v1.88q0 .67.075 1.224.075.547.22.97.15.424.368.712.226.287.513.437.294.144.656.144.459 0 .8-.226.342-.232.568-.677.226-.45.334-1.093.117-.65.117-1.49m3.039 3.405h.136q.91 0 1.518-.315a2.45 2.45 0 0 0 .964-.875q.356-.567.506-1.319a8 8 0 0 0 .157-1.64V4.8q0-.78-.144-1.374a3 3 0 0 0-.396-.991 1.7 1.7 0 0 0-.602-.602 1.43 1.43 0 0 0-.752-.205q-.423 0-.758.219a1.85 1.85 0 0 0-.568.601 3.1 3.1 0 0 0-.355.875 4.3 4.3 0 0 0-.123 1.04q0 .505.11.984.115.472.334.847.225.377.547.602.328.219.759.219.471 0 .84-.22.376-.225.643-.58a2.8 2.8 0 0 0 .417-.78q.15-.423.164-.82l.376-.007q0 .623-.191 1.19a3.3 3.3 0 0 1-.54.998 2.6 2.6 0 0 1-.807.69 2.1 2.1 0 0 1-.998.246q-.594 0-1.046-.273a2.5 2.5 0 0 1-.752-.752q-.3-.472-.451-1.066-.15-.601-.15-1.245 0-.717.17-1.346.172-.63.493-1.108.327-.485.8-.758.471-.274 1.066-.274.69 0 1.19.294.505.294.827.827a4 4 0 0 1 .485 1.258q.165.724.164 1.593v.78q0 .88-.11 1.688a6.7 6.7 0 0 1-.369 1.49 3.7 3.7 0 0 1-.704 1.183q-.445.498-1.12.779-.67.273-1.594.273h-.143zm10.702-.055V11h-5.284v-.643l2.734-3.698q.513-.69.813-1.21.302-.526.431-.957.13-.43.13-.84a2.6 2.6 0 0 0-.198-1.053 1.6 1.6 0 0 0-.568-.718q-.375-.26-.93-.26-.566 0-.984.3a1.86 1.86 0 0 0-.629.814 3 3 0 0 0-.218 1.183h-.76q0-.827.309-1.504a2.63 2.63 0 0 1 .888-1.094q.58-.41 1.395-.41.758 0 1.305.321.554.315.855.916.3.595.3 1.43 0 .45-.136.908-.13.451-.362.91-.225.45-.527.895-.293.444-.615.875l-2.31 3.124zm2.178-4.204-.602-.185.41-4.853h4.204v.772h-3.554l-.288 3.336q.22-.185.622-.362a2.25 2.25 0 0 1 .916-.178q.568 0 1.019.226.45.219.78.636.328.417.505 1.011.178.595.178 1.34 0 .718-.15 1.32-.15.6-.465 1.052a2.1 2.1 0 0 1-.787.69q-.471.247-1.127.247-.5 0-.937-.164a2.3 2.3 0 0 1-.786-.513 2.7 2.7 0 0 1-.56-.861 4 4 0 0 1-.274-1.217h.725q.067.664.3 1.12.232.459.616.691.382.233.916.233.43 0 .758-.171.335-.17.56-.5a2.4 2.4 0 0 0 .336-.813q.116-.485.116-1.1 0-.527-.123-.97a2.5 2.5 0 0 0-.362-.787 1.7 1.7 0 0 0-.588-.52 1.6 1.6 0 0 0-.793-.191q-.588 0-.93.191-.334.192-.636.52M57.479 7.78v.711h-5.947v-.478l3.848-6.966h.629l-.84 1.702-2.721 5.031zm-1.285-6.733V11h-.752V1.047zm7.297 7.307q0 .91-.355 1.532-.355.615-.957.936-.602.315-1.347.315-.76 0-1.36-.315a2.4 2.4 0 0 1-.957-.936q-.35-.622-.349-1.532 0-.587.198-1.073.2-.492.547-.847.355-.363.841-.561a2.8 2.8 0 0 1 1.066-.198q.76 0 1.36.348.61.342.958.944.355.6.355 1.387m-.765.007q0-.636-.253-1.107a1.82 1.82 0 0 0-1.654-1.005q-.555 0-.985.267-.423.26-.67.738-.24.472-.239 1.107 0 .657.24 1.121.245.458.676.705.43.239.991.239t.985-.24q.423-.245.663-.704.246-.465.246-1.12m.553-4.75q0 .73-.328 1.298a2.44 2.44 0 0 1-.882.896q-.553.321-1.244.321-.71 0-1.264-.321a2.4 2.4 0 0 1-.868-.896 2.64 2.64 0 0 1-.315-1.299q0-.867.315-1.47.32-.6.868-.915.554-.315 1.25-.315.712 0 1.265.315.554.315.875.916.329.6.328 1.47m-.758-.007q0-.582-.226-1.026a1.7 1.7 0 0 0-.608-.697 1.52 1.52 0 0 0-.875-.26q-.486 0-.868.24-.377.239-.595.683-.212.444-.212 1.06 0 .594.212 1.032.219.43.595.67.383.232.881.232.492 0 .875-.232.383-.24.602-.67.219-.438.219-1.032m7.38-2.557v.478L66.36 11h-.793l3.527-9.242h-4.71v-.711zm6.279 4.122v1.675q0 1.1-.178 1.914-.177.807-.506 1.333t-.813.786q-.48.26-1.08.26-.486 0-.89-.164a2 2 0 0 1-.717-.5 3 3 0 0 1-.533-.854 5.3 5.3 0 0 1-.335-1.203 9.6 9.6 0 0 1-.116-1.572V5.169q0-1.1.177-1.9.178-.807.513-1.327.335-.525.807-.779.478-.26 1.087-.26.484 0 .882.164.403.165.717.5.322.327.534.833.218.506.335 1.197.116.69.116 1.572m-.76 1.77V5.06q0-.675-.074-1.223-.075-.554-.219-.964a2.3 2.3 0 0 0-.37-.697 1.432 1.432 0 0 0-1.162-.56q-.457 0-.8.218-.334.22-.567.656-.225.43-.341 1.08a8.5 8.5 0 0 0-.117 1.49v1.88q0 .67.076 1.224.075.547.218.97.15.424.37.712.224.287.512.437.294.144.657.144.458 0 .8-.226.34-.232.567-.677.225-.45.335-1.093.116-.65.116-1.49"/></svg>