<svg xmlns="http://www.w3.org/2000/svg" fill="none" viewBox="0 0 125 18"><g clip-path="url(#a)"><path fill="#fff" d="m.328 13.72 2.087-2.314c.982 1.397 2.21 2.043 3.463 2.043 1.148 0 1.833-.607 1.833-1.585s-.646-1.44-2.397-2.17C2.83 8.716 1.057 7.607 1.057 5S3.288.328 6.38.328c2.253 0 3.838.834 4.986 2.109L9.362 4.899c-.646-.834-1.546-1.375-2.712-1.375-.96 0-1.646.52-1.646 1.292 0 .773.751 1.17 2.568 1.922 2.628 1.021 4.109 2.314 4.109 4.986 0 2.983-2.336 4.904-5.55 4.904-2.756 0-4.716-1.21-5.799-2.9zm29.766 2.629-1.021-2.983h-5.76L22.23 16.35H18.1L24.543.62h3.485l6.362 15.733h-4.297zm-5.716-5.926h3.673l-.773-2.253c-.354-1.044-.69-2.065-1-3.087a85 85 0 0 1-1.065 3.065zm42.146 5.926V.62h4.507c5.34 0 9.073 2.629 9.073 7.864 0 5.236-3.672 7.865-8.824 7.865zm3.86-3.402h.834c2.96 0 4.926-1.546 4.926-4.463s-1.668-4.362-4.926-4.362h-.834zm16.772-4.484c0-4.65 3.838-8.118 8.471-8.118 4.611 0 8.428 3.44 8.428 8.157 0 4.716-3.838 8.117-8.493 8.117s-8.406-3.275-8.406-8.156m12.917.043c0-2.585-1.9-4.59-4.463-4.59-2.524 0-4.463 2.023-4.463 4.568 0 2.69 2.022 4.568 4.424 4.568 2.567 0 4.506-1.939 4.506-4.55zM124.102.62h-12.419v3.424h6.07l-7.389 12.309h13.292v-3.485h-6.886zM52.857 16.35h3.65V.62h-3.65v10.021L45.495.621h-3.733v15.732h3.733V6.332l7.367 10.02z"/></g><defs><clipPath id="a"><rect width="124.5" height="17.037" fill="#fff"/></clipPath></defs></svg>