<svg xmlns="http://www.w3.org/2000/svg" fill="none" viewBox="0 0 210 68"><path fill="#fff" d="M9.58 3.781v1.045H3.81V3.781zm.908 0V18H9.375V3.781zm-7.07 0h1.113l-.302 6.582a55 55 0 0 1-.206 2.871 15 15 0 0 1-.36 2.159q-.225.898-.587 1.474-.35.576-.889.86Q1.662 18 .909 18h-.37v-1.045l.312-.01q.478-.02.83-.224.351-.205.595-.664.255-.459.41-1.221.166-.771.274-1.914.107-1.143.176-2.715zm16.53 13.174V18h-6.641v-1.045zM13.61 3.781V18h-1.114V3.781zm5.508 6.367v1.045h-5.811v-1.045zm.78-6.367v1.045h-6.591V3.781zm2.322 0V18h-1.123V3.781zm7.45 0-5.273 7.559H21.77l-.117-1.055h2.08l4.541-6.504zM28.646 18l-4.931-6.807.634-1.064L30.022 18zm6.15-13.36L30.701 18H29.55l4.522-14.219h.79zM38.474 18l-4.1-13.36-.05-.859h.782L39.628 18zm-.644-5.02v1.045h-6.406V12.98zm6.667-.761h-3.37v-1.045h3.37q1.044 0 1.69-.41.643-.42.937-1.123a4 4 0 0 0 .302-1.592q0-.87-.302-1.602a2.5 2.5 0 0 0-.938-1.172q-.645-.45-1.69-.449H41.48V18h-1.113V3.781h4.13q1.31 0 2.208.537a3.4 3.4 0 0 1 1.367 1.495q.469.957.469 2.216 0 1.31-.46 2.256a3.2 3.2 0 0 1-1.357 1.436q-.898.498-2.226.498m12.643 1.347h1.123q-.097 1.592-.645 2.618-.547 1.025-1.504 1.523-.947.498-2.275.498-1.026 0-1.846-.4a4 4 0 0 1-1.406-1.153q-.576-.762-.889-1.845-.302-1.084-.302-2.442V9.318q0-1.338.302-2.392.313-1.065.899-1.807a3.9 3.9 0 0 1 1.435-1.142q.84-.39 1.885-.391 1.29 0 2.227.488.947.488 1.484 1.514.537 1.025.635 2.646H57.14q-.088-1.308-.47-2.1-.37-.79-1.054-1.142-.684-.36-1.699-.361-.82 0-1.455.322a2.9 2.9 0 0 0-1.065.918q-.429.596-.654 1.465-.224.86-.224 1.963v3.066q0 1.084.205 1.973.214.878.625 1.514.42.634 1.035.976.624.332 1.455.332 1.054 0 1.738-.332.693-.331 1.074-1.113.39-.791.489-2.149m6.295-9.785V18h-1.104V3.781zm4.053 0v1.045h-9.19V3.781zm5.045 7.383h-3.3l-.02-1.025h2.861q.86 0 1.455-.303.606-.303.918-.899.322-.596.322-1.464 0-.9-.312-1.485a1.9 1.9 0 0 0-.928-.869q-.615-.293-1.553-.293h-2.47V18h-1.114V3.781h3.584q.91 0 1.631.225.733.215 1.24.674.508.45.772 1.152.273.703.273 1.67 0 .879-.341 1.582a3.06 3.06 0 0 1-.958 1.152q-.605.45-1.445.557zM72.456 18h-3.604l.596-1.045h3.008q.86 0 1.465-.351.605-.362.927-1.016.332-.664.332-1.582 0-.801-.283-1.446a2.24 2.24 0 0 0-.869-1.015q-.586-.38-1.494-.38h-2.129l.02-1.026h2.978l.215.37q.82.098 1.416.587.605.488.938 1.24.331.752.332 1.65 0 1.3-.489 2.198a3.34 3.34 0 0 1-1.347 1.357q-.86.459-2.012.459m12.711-1.045V18h-6.64v-1.045zM78.83 3.781V18h-1.113V3.781zm5.508 6.367v1.045h-5.81v-1.045zm.781-6.367v1.045h-6.591V3.781zm9.138 6.367v1.045h-7.1v-1.045zM87.39 3.781V18h-1.113V3.781zm7.793 0V18H94.06V3.781zm9.977 6.367v1.045h-7.1v-1.045zm-6.865-6.367V18h-1.113V3.781zm7.793 0V18h-1.123V3.781zm2.78 6.153h3.3q1.299 0 2.178.507.89.498 1.338 1.407.449.898.449 2.1 0 .888-.263 1.64-.254.742-.752 1.28a3.4 3.4 0 0 1-1.241.839q-.741.293-1.709.293h-4.062V3.781h1.123v13.174h2.939q1.007 0 1.641-.42t.918-1.113q.293-.693.293-1.494a3.6 3.6 0 0 0-.293-1.455 2.36 2.36 0 0 0-.918-1.084q-.635-.41-1.641-.41h-3.3zm10.263-6.153V18h-1.123V3.781zm3.219 12.1 6.631-12.1h1.104V18h-1.104V5.88L122.35 18h-1.113V3.781h1.113zM127.546.285h.996q0 .742-.342 1.309a2.3 2.3 0 0 1-.967.888q-.624.323-1.504.323-1.318 0-2.08-.703-.752-.704-.752-1.817h1.006q0 .675.41 1.172.411.489 1.416.488.977 0 1.397-.498t.42-1.162m16.565 3.496V18h-1.123V4.826h-6.592V18h-1.123V3.781zm6.159 8.438h-3.37v-1.045h3.37q1.044 0 1.689-.41.645-.42.937-1.123a4 4 0 0 0 .303-1.592 4.2 4.2 0 0 0-.303-1.602 2.5 2.5 0 0 0-.937-1.172q-.645-.45-1.689-.449h-3.018V18h-1.113V3.781h4.131q1.308 0 2.207.537a3.4 3.4 0 0 1 1.367 1.495q.468.957.468 2.216 0 1.31-.458 2.256a3.22 3.22 0 0 1-1.358 1.436q-.898.498-2.226.498m12.701 4.736V18h-6.641v-1.045zm-6.338-13.174V18h-1.113V3.781zm5.508 6.367v1.045h-5.811v-1.045zm.781-6.367v1.045h-6.592V3.781zm10.036 0V18h-1.123V4.826h-6.592V18h-1.123V3.781zm6.031.86L174.898 18h-1.153l4.522-14.219h.791zM182.671 18 178.57 4.64l-.049-.859h.781L183.823 18zm-.644-5.02v1.045h-6.407V12.98zm6.666-.761h-3.369v-1.045h3.369q1.046 0 1.689-.41.645-.42.938-1.123a4 4 0 0 0 .303-1.592 4.2 4.2 0 0 0-.303-1.602 2.5 2.5 0 0 0-.938-1.172q-.643-.45-1.689-.449h-3.018V18h-1.113V3.781h4.131q1.308 0 2.207.537a3.4 3.4 0 0 1 1.367 1.495q.47.957.469 2.216 0 1.31-.459 2.256a3.22 3.22 0 0 1-1.357 1.436q-.899.498-2.227.498M196.6 4.64 192.508 18h-1.153l4.522-14.219h.791zM200.281 18 196.18 4.64l-.049-.859h.781L201.434 18zm-.644-5.02v1.045h-6.407V12.98zm5.338-9.199V18h-1.104V3.781zm4.053 0v1.045h-9.19V3.781zm-1.488 13.496q0-.342.215-.586t.605-.244q.392 0 .615.244.225.244.225.586a.8.8 0 0 1-.225.576q-.224.235-.615.235-.39 0-.605-.235a.82.82 0 0 1-.215-.576M10.566 26.781V41H9.443V27.826H2.852V41H1.729V26.781zm9.48 13.174V41h-6.641v-1.045zm-6.339-13.174V41h-1.113V26.781zm5.508 6.367v1.045h-5.81v-1.045zm.782-6.367v1.045h-6.592v-1.045zm5.289 8.438h-3.37v-1.045h3.37q1.045 0 1.69-.41.645-.42.937-1.123a4 4 0 0 0 .303-1.592q0-.87-.303-1.602a2.5 2.5 0 0 0-.938-1.172q-.644-.45-1.69-.449h-3.017V41h-1.113V26.781h4.13q1.31 0 2.208.537a3.4 3.4 0 0 1 1.367 1.494q.47.958.469 2.217 0 1.31-.46 2.256a3.2 3.2 0 0 1-1.357 1.436q-.898.498-2.226.498m12.701 4.736V41h-6.64v-1.045zM31.65 26.781V41h-1.114V26.781zm5.507 6.367v1.045h-5.81v-1.045zm.782-6.367v1.045h-6.592v-1.045zm10.426 13.174V41h-9.317v-1.045zm-9.092 0v4.502H38.16v-4.502zm10.04 0v4.492h-1.114v-4.492zm-2.227-13.174v1.045h-5.391v-1.045zm.908 0V41H46.88V26.781zm-6.7 0h1.104l-.195 5.147a25 25 0 0 1-.235 2.549q-.165 1.17-.41 2.148a13 13 0 0 1-.537 1.728 8.6 8.6 0 0 1-.625 1.319q-.322.546-.654.889-.323.33-.635.439h-.635v-1.045h.518q.205-.245.508-.8.313-.557.634-1.505.333-.956.586-2.363.264-1.416.352-3.36zm21.029 0V41H61.2V27.826h-6.592V41h-1.123V26.781zm6.158 8.438h-3.369v-1.045h3.37q1.044 0 1.689-.41.645-.42.937-1.123a4 4 0 0 0 .303-1.592q0-.87-.303-1.602a2.5 2.5 0 0 0-.937-1.172q-.645-.45-1.69-.449h-3.017V41H64.35V26.781h4.131q1.309 0 2.207.537a3.4 3.4 0 0 1 1.367 1.494q.47.958.47 2.217 0 1.31-.46 2.256a3.2 3.2 0 0 1-1.357 1.436q-.899.498-2.227.498m6.403 3.662 6.63-12.1h1.104V41h-1.103V28.88L74.884 41h-1.113V26.781h1.113zm10.133-12.1h1.123l4.307 12.5 4.326-12.5h1.104L90.887 41h-.86zm-.342 0h.977l.137 8.028V41h-1.114zm10.586 0h.987V41h-1.114v-6.191zm10.427 13.174V41h-6.641v-1.045zM99.35 26.781V41h-1.114V26.781zm5.507 6.367v1.045h-5.81v-1.045zm.782-6.367v1.045h-6.592v-1.045zm9.137 6.367v1.045h-7.1v-1.045zm-6.865-6.367V41h-1.114V26.781zm7.793 0V41h-1.124V26.781zm9.449 13.174V41h-6.641v-1.045zm-6.338-13.174V41h-1.113V26.781zm5.508 6.367v1.045h-5.811v-1.045zm.781-6.367v1.045h-6.592v-1.045zm9.137 6.367v1.045h-7.099v-1.045zm-6.865-6.367V41h-1.113V26.781zm7.793 0V41h-1.123V26.781zm3.151 12.1 6.631-12.1h1.103V41h-1.103V28.88L138.32 41h-1.113V26.781h1.113zm17.242 1.074V41h-6.64v-1.045zm-6.337-13.174V41h-1.114V26.781zm5.507 6.367v1.045h-5.81v-1.045zm.782-6.367v1.045h-6.592v-1.045zm1.5 0h1.123l4.307 12.5 4.326-12.5h1.103L162.883 41h-.859zm-.342 0h.977l.137 8.028V41h-1.114zm10.586 0h.987V41h-1.114v-6.191zm-156.692 23V64H9.443V50.826H2.852V64H1.729V49.781zm6.159 8.438h-3.37v-1.045h3.37q1.045 0 1.69-.41.645-.42.937-1.123a4 4 0 0 0 .303-1.592q0-.87-.303-1.602a2.5 2.5 0 0 0-.937-1.172q-.645-.45-1.69-.449h-3.018V64h-1.113V49.781h4.131q1.308 0 2.207.537a3.4 3.4 0 0 1 1.367 1.495q.47.956.469 2.216 0 1.31-.459 2.256a3.22 3.22 0 0 1-1.357 1.436q-.9.498-2.227.498m14.05-2.862v3.077q0 1.416-.323 2.5-.312 1.074-.908 1.797-.586.723-1.436 1.103-.849.37-1.914.371-1.055 0-1.904-.371a4.05 4.05 0 0 1-1.445-1.104q-.606-.722-.938-1.796-.322-1.084-.322-2.5v-3.077q0-1.406.322-2.49t.918-1.806a3.95 3.95 0 0 1 1.445-1.094q.85-.381 1.905-.381 1.064 0 1.914.38a3.9 3.9 0 0 1 1.455 1.094q.605.723.918 1.807.312 1.084.312 2.49m-1.104 3.077v-3.096q0-1.172-.235-2.041-.224-.879-.664-1.465a2.76 2.76 0 0 0-1.093-.879q-.655-.293-1.504-.293a3.6 3.6 0 0 0-1.475.293 2.85 2.85 0 0 0-1.094.879q-.439.585-.674 1.465-.234.87-.234 2.04v3.097q0 1.18.234 2.06.236.87.684 1.465.459.586 1.104.879.654.293 1.474.293.85 0 1.494-.293.655-.292 1.094-.879.44-.595.664-1.465.225-.88.225-2.06m2.594-8.653h1.113v3.946q0 1.23.322 1.963.333.732.967 1.054.645.322 1.592.322.47 0 .928-.048a10 10 0 0 0 1.777-.352q.44-.127.87-.283v1.054q-.411.147-.821.274-.41.117-.85.215-.43.087-.908.136a10 10 0 0 1-.996.05q-1.26 0-2.158-.43-.889-.43-1.367-1.397-.47-.966-.47-2.558zm7.226 0h1.104V64H39.49zm4.274 12.1 6.631-12.1H51.5V64h-1.104V51.88L43.766 64h-1.114V49.781h1.113zm13.57-12.1V64h-1.103V49.781zm4.054 0v1.045h-9.19v-1.045zm4.127.86L61.424 64h-1.152l4.521-14.219h.791zM69.198 64l-4.102-13.36-.049-.859h.782L70.35 64zm-.645-5.02v1.045h-6.406v-1.044zm3.688 2.9 6.63-12.099h1.104V64h-1.103V51.88L72.24 64h-1.113V49.781h1.113zm5.195-15.595h.996q0 .742-.341 1.309a2.3 2.3 0 0 1-.967.888q-.625.323-1.504.323-1.318 0-2.08-.703-.752-.705-.752-1.817h1.006q0 .675.41 1.172.41.489 1.416.488.977 0 1.396-.498.42-.499.42-1.162m8.669 3.496V64H85V49.781zm4.052 0v1.045h-9.189v-1.045zm8.356 13.174V64h-6.64v-1.045zm-6.338-13.174V64h-1.113V49.781zm5.508 6.367v1.045h-5.81v-1.045zm.781-6.367v1.045h-6.591v-1.045zm5.404 12.1 6.63-12.1h1.104V64h-1.104V51.88L103.868 64h-1.114V49.781h1.114zm17.769-5.733v1.045h-7.099v-1.045zm-6.865-6.367V64h-1.113V49.781zm7.793 0V64h-1.123V49.781zm9.391 9.785h1.123q-.098 1.592-.644 2.618-.547 1.025-1.504 1.523-.947.498-2.276.498-1.024 0-1.845-.4a4 4 0 0 1-1.406-1.153q-.577-.762-.889-1.845-.303-1.084-.303-2.442v-3.047q0-1.339.303-2.392.312-1.065.898-1.807a3.9 3.9 0 0 1 1.436-1.142q.84-.39 1.885-.391 1.288 0 2.226.488.947.489 1.485 1.514.537 1.026.634 2.646h-1.123q-.088-1.308-.468-2.1-.371-.79-1.055-1.142-.684-.36-1.699-.361-.82 0-1.455.322a2.9 2.9 0 0 0-1.065.918q-.429.596-.654 1.465-.225.86-.225 1.963v3.066q0 1.084.205 1.973.215.879.625 1.514.42.634 1.035.976.626.332 1.455.332 1.055 0 1.739-.332.693-.331 1.074-1.113.39-.792.488-2.149m6.296-9.785V64h-1.104V49.781zm4.052 0v1.045h-9.189v-1.045zm5.036 8.438h-3.369v-1.045h3.369q1.045 0 1.689-.41.644-.42.938-1.123a4 4 0 0 0 .303-1.592q0-.87-.303-1.602a2.52 2.52 0 0 0-.938-1.172q-.644-.45-1.689-.449h-3.018V64h-1.113V49.781h4.131q1.308 0 2.207.537a3.4 3.4 0 0 1 1.367 1.495q.47.956.469 2.216 0 1.31-.459 2.256a3.22 3.22 0 0 1-1.358 1.436q-.899.498-2.226.498m9.078 1.006 3.448-9.444h1.308l-4.502 11.778q-.175.42-.39.888a4 4 0 0 1-.547.86 2.55 2.55 0 0 1-.801.654q-.478.244-1.162.244a3 3 0 0 1-.44-.039 1.5 1.5 0 0 1-.341-.068l.078-1.006q.107.03.332.049.234.02.371.02.517 0 .849-.264a2.2 2.2 0 0 0 .567-.704q.234-.43.42-.908zm-3.564-9.444 3.887 9.366.322 1.093-.957.205-4.522-10.664zm10.436 0V64h-1.123V49.781zm7.451 0-5.273 7.559h-2.627l-.118-1.055h2.081l4.541-6.504zM169.716 64l-4.932-6.807.635-1.064L171.093 64zm12.135-1.065-.088 4.493h-1.016V64h-1.181v-1.065zM171.831 64V49.781h1.123v13.174h6.592V49.781h1.123V64zm12.223-2.12 6.631-12.099h1.104V64h-1.104V51.88L184.054 64h-1.113V49.781h1.113zm11.091-12.099V64h-1.124V49.781zm2.851 6.524v1.015h-2.978v-1.015zm8.535-.948v3.077q0 1.416-.322 2.5-.312 1.074-.908 1.797t-1.446 1.103q-.849.37-1.914.371-1.045 0-1.894-.371a4 4 0 0 1-1.455-1.104q-.605-.722-.938-1.796-.322-1.084-.322-2.5v-3.077q0-1.406.322-2.49t.918-1.806a3.9 3.9 0 0 1 1.455-1.094q.85-.381 1.895-.381 1.074 0 1.924.38a3.85 3.85 0 0 1 1.445 1.094q.595.723.918 1.807.322 1.084.322 2.49m-1.113 3.077v-3.096q0-1.172-.234-2.041-.226-.879-.664-1.465a2.76 2.76 0 0 0-1.094-.879q-.655-.293-1.504-.293-.83 0-1.484.293-.646.292-1.084.879-.44.585-.674 1.465-.235.87-.235 2.04v3.097q0 1.18.225 2.06.234.87.693 1.465.459.586 1.104.879.644.293 1.474.293.85 0 1.495-.293.654-.292 1.093-.879.44-.595.664-1.465.225-.88.225-2.06m2.389 4.843q0-.341.215-.586t.605-.244.616.244a.84.84 0 0 1 .224.586q0 .342-.224.576-.225.235-.616.235-.39 0-.605-.234a.82.82 0 0 1-.215-.577"/></svg>