<svg xmlns="http://www.w3.org/2000/svg" fill="none" viewBox="0 0 83 13"><g clip-path="url(#a)"><path fill="#fff" d="M.218 9.968 1.61 8.425c.655.931 1.473 1.362 2.308 1.362.766 0 1.223-.405 1.223-1.057s-.43-.96-1.598-1.446C1.886 6.632.705 5.892.705 4.154S2.192 1.04 4.253 1.04c1.502 0 2.559.557 3.324 1.407L6.241 4.087c-.43-.556-1.03-.917-1.807-.917-.64 0-1.098.347-1.098.862s.5.78 1.712 1.28c1.752.682 2.74 1.544 2.74 3.325 0 1.989-1.558 3.27-3.7 3.27C2.25 11.906.942 11.1.22 9.972zm19.845 1.752-.681-1.988h-3.84l-.722 1.988h-2.754l4.297-10.485h2.323l4.241 10.488h-2.864zm-3.81-3.95H18.7l-.516-1.502a67 67 0 0 1-.666-2.058q-.334 1.02-.71 2.043zm28.097 3.95V1.235h3.004c3.56 0 6.049 1.752 6.049 5.242s-2.448 5.243-5.883 5.243zm2.573-2.268h.556c1.974 0 3.284-1.03 3.284-2.975 0-1.944-1.112-2.908-3.284-2.908h-.556zm11.181-2.99c0-3.1 2.559-5.41 5.648-5.41 3.074 0 5.618 2.293 5.618 5.437S66.81 11.9 63.708 11.9s-5.604-2.183-5.604-5.437m8.611.03c0-1.723-1.266-3.06-2.975-3.06-1.683 0-2.975 1.348-2.975 3.045 0 1.793 1.348 3.045 2.949 3.045 1.711 0 3.004-1.292 3.004-3.033zm16.02-5.257h-8.28v2.282h4.047l-4.926 8.206h8.862V9.4h-4.591zM35.237 11.72h2.434V1.235h-2.434v6.68l-4.908-6.68h-2.489v10.488h2.49v-6.68l4.91 6.68z"/></g><defs><clipPath id="a"><rect width="83" height="11.358" fill="#fff" transform="translate(0 .821)"/></clipPath></defs></svg>