<svg xmlns="http://www.w3.org/2000/svg" fill="none" viewBox="0 0 161 56"><path fill="#fff" d="M1.682.454h3.799v7.83h3.973V.454h3.799V20H9.454v-8.178H5.481V20H1.682zm21.537 15.08h-3.51L18.84 20h-3.682L19.39.454h4.553L27.743 20H24.06zm-3.132-2.958h2.784l-.638-4.089c-.203-1.189-.464-3.132-.638-4.437h-.087c-.203 1.305-.493 3.335-.696 4.466zm9.566-8.294-.638-2.929C29.856.773 31.48.222 33.336.222c3.712 0 5.452 2.262 5.452 4.814 0 2.001-1.334 3.944-3.306 4.437v.058c2.291.464 3.886 2.204 3.886 4.901 0 3.741-3.19 5.8-6.699 5.8-1.624 0-3.045-.377-3.944-.87l.551-3.103c.841.493 1.943.783 3.016.783 2.03 0 3.103-1.16 3.103-2.726 0-2.175-1.798-3.045-3.857-3.045h-.551V8.4h.377c1.74 0 3.48-.841 3.48-2.639 0-1.363-.841-2.291-2.465-2.291-.899 0-1.972.377-2.726.812M41.67.454h3.8v7.83h3.972V.454h3.8V20h-3.8v-8.178H45.47V20H41.67zm21.537 15.08h-3.509L58.828 20h-3.683L59.38.454h4.553L67.732 20h-3.684zm-3.132-2.958h2.784l-.638-4.089c-.203-1.189-.464-3.132-.638-4.437h-.087c-.203 1.305-.493 3.335-.696 4.466zM69.732.454h3.741V6.95c0 1.595.61 2.726 2.146 2.726.551 0 1.19-.174 1.566-.406V.454h3.741V20h-3.74v-7.801h-.088c-.899.406-1.769.667-2.784.667-3.364 0-4.582-2.262-4.582-5.481zm14.56 0h3.364v4.321c0 3.596-.232 6.96-.377 8.99h.058c.551-1.682 1.537-4.234 2.117-5.742L92.325.454h3.451V20h-3.335v-4.408c0-3.915.145-6.815.232-8.787h-.058c-.435 1.769-1.305 4.118-1.943 5.742L87.802 20h-3.51zm15.623 0h10.179V20h-3.799V3.76h-2.9v5.162c0 4.495-.29 8.439-2.755 10.353-.725.58-1.653.957-2.61.957l-.812-3.219c.463-.116.956-.348 1.304-.696 1.131-1.16 1.392-3.248 1.392-7.047zm13.547 0h3.364v4.321c0 3.596-.232 6.96-.377 8.99h.058c.551-1.682 1.537-4.234 2.117-5.742l2.871-7.569h3.451V20h-3.335v-4.408c0-3.915.145-6.815.232-8.787h-.058c-.435 1.769-1.305 4.118-1.943 5.742L116.971 20h-3.509zM8.294 50.534H4.785L3.915 55H.232l4.234-19.546h4.553L12.818 55H9.135zm-3.132-2.958h2.784l-.638-4.089c-.203-1.189-.464-3.132-.638-4.437h-.087c-.203 1.305-.493 3.335-.696 4.466zm9.802-12.122h3.8v7.83h3.972v-7.83h3.8V55h-3.8v-8.178h-3.973V55h-3.799zM32.006 55V38.963h-3.451v-3.509h10.73v3.509h-3.48V55zm9.268-19.546h3.364v4.321c0 3.596-.232 6.96-.377 8.99h.058c.55-1.682 1.537-4.234 2.117-5.742l2.87-7.569h3.452V55h-3.335v-4.408c0-3.915.145-6.815.232-8.787h-.058c-.435 1.769-1.305 4.118-1.943 5.742L44.783 55h-3.51zm14.868 0h9.976v3.248h-6.206v4.089a7 7 0 0 1 1.537-.145c1.682 0 3.161.522 4.234 1.45 1.16 1.015 1.856 2.552 1.856 4.524 0 1.885-.58 3.393-1.624 4.437-1.334 1.421-3.422 2.088-6.235 2.088-1.45 0-2.668-.087-3.538-.203zm3.799 10.324v6.264c.261.058.522.058.841.058.899 0 1.624-.348 2.088-.928.493-.58.725-1.392.725-2.262 0-.899-.261-1.711-.754-2.262-.493-.58-1.189-.957-2.03-.957q-.479 0-.87.087m9.88-10.324h3.364v4.321c0 3.596-.232 6.96-.377 8.99h.058c.55-1.682 1.537-4.234 2.117-5.742l2.87-7.569h3.452V55H77.97v-4.408c0-3.915.145-6.815.232-8.787h-.058c-.435 1.769-1.305 4.118-1.943 5.742L73.33 55h-3.51zm20.349-.232c4.727 0 6.06 5.191 6.06 9.657 0 7.366-2.61 10.353-6.321 10.353-4.437 0-6.177-4.698-6.177-10.063 0-5.336 2.117-9.947 6.438-9.947m-.145 3.306c-1.508 0-2.35 2.494-2.35 6.699 0 4.437.842 6.699 2.379 6.699 1.595 0 2.204-2.9 2.204-6.873 0-3.422-.522-6.525-2.233-6.525M100.37 55V38.963h-3.45v-3.509h10.729v3.509h-3.48V55zm9.268-19.546h3.364v4.321c0 3.596-.232 6.96-.377 8.99h.058c.551-1.682 1.537-4.234 2.117-5.742l2.871-7.569h3.451V55h-3.335v-4.408c0-3.915.145-6.815.232-8.787h-.058c-.435 1.769-1.305 4.118-1.943 5.742L113.148 55h-3.509zm14.868 0h3.712v8.497h.29l3.19-8.497h4.176l-4.495 9.048c2.001.754 2.668 2.581 3.219 4.959.435 1.885.754 3.741 1.334 5.539h-3.799c-.464-1.392-.754-2.987-1.073-4.524-.464-2.291-.986-3.77-2.552-3.77h-.29V55h-3.712zm13.169 0h3.364v4.321c0 3.596-.232 6.96-.377 8.99h.058c.551-1.682 1.537-4.234 2.117-5.742l2.871-7.569h3.451V55h-3.335v-4.408c0-3.915.145-6.815.232-8.787h-.058c-.435 1.769-1.305 4.118-1.943 5.742L141.185 55h-3.509zm18.957 13.514h-3.219l-.058-.522c-.203-1.711.464-3.248 1.537-4.93.841-1.247 1.247-2.117 1.247-3.219 0-1.073-.725-1.798-1.914-1.798-.638 0-1.305.116-1.856.522l-.638-2.929c.609-.406 1.972-.87 3.393-.87 3.828 0 4.901 2.523 4.901 4.466 0 2.001-1.131 3.625-2.146 5.104-.783 1.189-1.276 2.204-1.247 3.567zm-1.566 6.264c-1.247 0-2.175-.986-2.175-2.32 0-1.421 1.015-2.349 2.146-2.378 1.247 0 2.175.957 2.175 2.378 0 1.334-.812 2.32-2.146 2.32"/></svg>