<svg xmlns="http://www.w3.org/2000/svg" fill="none" viewBox="0 0 101 36"><path fill="#fff" d="M.792 3.244.396 1.426c.522-.36 1.53-.702 2.682-.702 2.304 0 3.384 1.404 3.384 2.988 0 1.242-.828 2.448-2.052 2.754v.036c1.422.288 2.412 1.368 2.412 3.042 0 2.322-1.98 3.6-4.158 3.6-1.008 0-1.89-.234-2.448-.54l.342-1.926c.522.306 1.206.486 1.872.486 1.26 0 1.926-.72 1.926-1.692 0-1.35-1.116-1.89-2.394-1.89H1.62V5.8h.234c1.08 0 2.16-.522 2.16-1.638 0-.846-.522-1.422-1.53-1.422-.558 0-1.224.234-1.692.504m11.563 6.984h-2.178L9.637 13H7.351L9.979.868h2.826L15.163 13h-2.286zm-1.944-1.836h1.728l-.396-2.538a92 92 0 0 1-.396-2.754h-.054c-.126.81-.306 2.07-.432 2.772zM16.495.868h6.192v2.016h-3.852v2.538c.342-.072.612-.09.954-.09 1.044 0 1.962.324 2.628.9.72.63 1.152 1.584 1.152 2.808 0 1.17-.36 2.106-1.008 2.754-.828.882-2.124 1.296-3.87 1.296-.9 0-1.656-.054-2.196-.126zm2.358 6.408v3.888c.162.036.324.036.522.036.558 0 1.008-.216 1.296-.576.306-.36.45-.864.45-1.404 0-.558-.162-1.062-.468-1.404a1.63 1.63 0 0 0-1.26-.594q-.297 0-.54.054M28.44.724c2.934 0 3.762 3.222 3.762 5.994 0 4.572-1.62 6.426-3.924 6.426-2.754 0-3.834-2.916-3.834-6.246 0-3.312 1.314-6.174 3.996-6.174m-.09 2.052c-.936 0-1.458 1.548-1.458 4.158 0 2.754.522 4.158 1.476 4.158.99 0 1.368-1.8 1.368-4.266 0-2.124-.324-4.05-1.386-4.05M34.772 13V3.046H32.63V.868h6.66v2.178h-2.16V13zm9.048-2.772h-2.178L41.102 13h-2.286L41.444.868h2.826L46.628 13h-2.286zm-1.944-1.836h1.728l-.396-2.538a92 92 0 0 1-.396-2.754h-.054c-.126.81-.306 2.07-.432 2.772zM4.446 22.724c2.934 0 3.762 3.222 3.762 5.994 0 4.572-1.62 6.426-3.924 6.426-2.754 0-3.834-2.916-3.834-6.246 0-3.312 1.314-6.174 3.996-6.174m-.09 2.052c-.936 0-1.458 1.548-1.458 4.158 0 2.754.522 4.158 1.476 4.158.99 0 1.368-1.8 1.368-4.266 0-2.124-.324-4.05-1.386-4.05M20.207 35l-.216-4.248c-.054-1.152-.144-2.718-.108-4.014h-.054a53 53 0 0 1-.774 3.726l-1.044 4.338h-1.674l-1.008-4.266c-.234-.972-.558-2.484-.738-3.798h-.054a134 134 0 0 1-.18 4.05L14.16 35h-2.034l.882-12.132h2.484l.972 4.392c.342 1.53.648 2.88.864 4.248h.036c.18-1.35.45-2.718.774-4.248l.954-4.392h2.484L22.313 35zm3.83-12.132h2.087v2.682c0 2.232-.144 4.32-.234 5.58h.036c.342-1.044.954-2.628 1.314-3.564l1.782-4.698h2.142V35h-2.07v-2.736c0-2.43.09-4.23.144-5.454h-.036c-.27 1.098-.81 2.556-1.206 3.564L26.214 35h-2.178zm9.228 0h2.304v5.274h.18l1.98-5.274h2.592l-2.79 5.616c1.242.468 1.656 1.602 1.998 3.078.27 1.17.468 2.322.828 3.438h-2.358c-.288-.864-.468-1.854-.666-2.808-.288-1.422-.612-2.34-1.584-2.34h-.18V35h-2.304zM41.438 35V23.048c.666-.144 1.566-.234 2.466-.234 1.404 0 2.502.198 3.294.936.72.63 1.044 1.638 1.044 2.664 0 1.314-.395 2.232-1.025 2.916-.756.792-1.98 1.152-2.953 1.152h-.468V35zm2.358-10.188v3.744c.108.036.235.036.379.036 1.188 0 1.728-.846 1.728-1.98 0-1.062-.432-1.89-1.53-1.89-.216 0-.432.036-.576.09m9.271-2.088c2.934 0 3.762 3.222 3.762 5.994 0 4.572-1.62 6.426-3.924 6.426-2.754 0-3.834-2.916-3.834-6.246 0-3.312 1.314-6.174 3.996-6.174m-.09 2.052c-.936 0-1.458 1.548-1.458 4.158 0 2.754.522 4.158 1.476 4.158.99 0 1.368-1.8 1.368-4.266 0-2.124-.324-4.05-1.386-4.05m8.612-2.34h2.07v.918c2.178.288 3.834 1.998 3.834 5.49 0 3.726-1.674 5.292-3.834 5.598v.99h-2.088v-.99c-2.196-.324-3.834-1.872-3.834-5.544 0-3.564 1.962-5.256 3.852-5.544zm0 10.278v-7.65c-.72.216-1.494 1.188-1.494 3.87 0 2.502.756 3.618 1.494 3.78m2.052-7.65v7.65c.792-.162 1.494-1.134 1.494-3.852 0-2.754-.81-3.636-1.494-3.798m5.687-2.196h6.318V35h-2.358V24.92h-1.8v3.204c0 2.79-.18 5.238-1.71 6.426-.45.36-1.026.594-1.62.594l-.504-1.998c.288-.072.594-.216.81-.432.702-.72.864-2.016.864-4.374zm11.811-.144c2.934 0 3.762 3.222 3.762 5.994 0 4.572-1.62 6.426-3.924 6.426-2.754 0-3.834-2.916-3.834-6.246 0-3.312 1.314-6.174 3.996-6.174m-.09 2.052c-.936 0-1.458 1.548-1.458 4.158 0 2.754.522 4.158 1.476 4.158.99 0 1.368-1.8 1.368-4.266 0-2.124-.324-4.05-1.386-4.05M86.403 35V23.048c.666-.144 1.566-.234 2.466-.234 1.404 0 2.502.198 3.294.936.72.63 1.044 1.638 1.044 2.664 0 1.314-.396 2.232-1.026 2.916-.756.792-1.98 1.152-2.952 1.152h-.468V35zm2.358-10.188v3.744c.108.036.234.036.378.036 1.188 0 1.728-.846 1.728-1.98 0-1.062-.432-1.89-1.53-1.89-.216 0-.432.036-.576.09M99.76 27.71v1.962h-2.772v3.276h3.132V35h-5.49V22.868h5.274v2.052h-2.916v2.79z"/></svg>