<svg xmlns="http://www.w3.org/2000/svg" fill="none" viewBox="0 0 73 37"><path fill="#fff" d="M5.301 20.816h4.34v-6.975H9.61zm10.974 3.906h-1.612v3.255c0 .465-.093.744-.217.868-.155.124-.465.155-.899.155h-2.728c-.496 0-.806-.031-.961-.155s-.217-.403-.217-.868v-3.255H1.736q-.651 0-.837-.186t-.186-.837v-.744c0-.62.031-1.085.124-1.395.062-.279.279-.682.589-1.178L7.905 9.935c.248-.403.465-.682.713-.806q.372-.186 1.023-.186h3.751c.496 0 .837.093 1.023.248.155.186.248.527.248 1.054v10.571h1.612c.372 0 .589.062.713.155.093.124.155.341.155.682v2.232c0 .372-.062.589-.155.682-.124.124-.341.155-.713.155m5.241-.837h.434c.93 0 1.581.248 1.984.682.403.465.62 1.147.62 2.077v.403c0 .961-.31 2.139-.868 3.565a13.6 13.6 0 0 1-2.449 3.906c-.186.248-.403.341-.62.341a.9.9 0 0 1-.496-.155l-1.55-.93c-.372-.186-.403-.496-.093-.899a45 45 0 0 0 1.24-1.798c.372-.558.558-.961.558-1.271 0-.155-.093-.279-.248-.403l-.31-.217c-.527-.372-.775-1.023-.775-1.953v-.868c0-1.643.837-2.48 2.573-2.48M39.56 13.066h-6.262c-.31 0-.434.155-.434.403l-.093 2.883q1.395-.465 3.069-.465h.31c1.984 0 3.44.465 4.37 1.364.993.992 1.52 2.635 1.52 4.929v.434c0 2.356-.682 4.061-1.984 5.146-1.24 1.023-3.162 1.519-5.766 1.519h-.31q-3.023 0-6.138-1.116c-.434-.124-.62-.372-.62-.713 0-.124.03-.403.155-.837l.434-1.581c.124-.434.279-.713.496-.837.186-.093.434-.062.744.062 1.736.651 3.317.961 4.743.961h.31c.899 0 1.612-.186 2.17-.558q.744-.465.744-2.046v-.217c0-.93-.217-1.612-.651-1.984-.403-.341-.992-.527-1.767-.527h-.186q-1.627 0-3.627.744c-.31.124-.527.155-.62.155-.186 0-.434-.093-.713-.279l-.992-.651c-.31-.217-.465-.496-.465-.806 0-.186 0-.589.062-1.24l.403-7.936c0-.62.372-.93 1.054-.93h10.106c.372 0 .65.062.775.186.124.124.217.341.217.713v2.387c0 .341-.093.558-.217.682-.155.124-.434.155-.837.155m15.657 1.147v.31c0 2.046-.527 3.503-1.519 4.433-.93.744-2.139 1.116-3.565 1.116-1.612 0-2.82-.403-3.658-1.209-.93-.868-1.395-2.232-1.395-4.03v-.93c0-1.798.465-3.131 1.395-4.03.837-.806 2.046-1.209 3.658-1.209 1.426 0 2.635.372 3.565 1.116.992.93 1.52 2.418 1.52 4.433m-5.27 13.95 11.44-18.848c.154-.248.34-.434.526-.527.186-.062.465-.124.868-.124h2.263c.961 0 1.24.372.806 1.116L54.411 28.628c-.186.279-.34.465-.527.527-.186.093-.496.124-.868.124h-2.263c-.992 0-1.24-.372-.806-1.116m-.682-14.632v1.674c0 .651.062 1.085.217 1.302.124.217.341.31.62.31h.062a.72.72 0 0 0 .62-.31c.124-.217.217-.651.217-1.302v-1.674c0-.62-.093-1.054-.217-1.271-.155-.217-.372-.341-.62-.341h-.062c-.279 0-.496.124-.62.341-.155.217-.217.651-.217 1.271m21.762 9.889v.31c0 2.046-.527 3.503-1.519 4.433-.93.744-2.139 1.116-3.565 1.116-1.612 0-2.82-.403-3.658-1.209-.93-.868-1.395-2.201-1.395-4.03v-.93c0-1.798.465-3.162 1.395-4.03.837-.806 2.046-1.209 3.658-1.209 1.426 0 2.635.372 3.565 1.116.992.93 1.52 2.418 1.52 4.433m-5.952-.682v1.674c0 .651.062 1.085.217 1.302.124.217.341.31.62.31h.062a.72.72 0 0 0 .62-.31c.124-.217.217-.651.217-1.302v-1.674c0-.62-.093-1.054-.217-1.271-.155-.217-.372-.341-.62-.341h-.062c-.279 0-.496.124-.62.341-.155.217-.217.651-.217 1.271"/></svg>