<svg xmlns="http://www.w3.org/2000/svg" fill="none" viewBox="0 0 140 221"><path fill="#000" d="M1.778 8.282v.378c0 1.54.21 2.548.63 3.038.364.434.924.644 1.666.644.812 0 1.386-.238 1.75-.728.364-.504.546-1.484.546-2.954v-.378c0-.728-.042-1.33-.112-1.806s-.21-.854-.434-1.162c-.364-.476-.938-.714-1.75-.714q-1.197 0-1.722.714c-.392.504-.574 1.498-.574 2.968m5.614-.168v.728c0 1.624-.294 2.744-.854 3.388-.532.602-1.344.896-2.464.896-1.05 0-1.834-.266-2.366-.798-.644-.644-.952-1.806-.952-3.486v-.728c0-1.624.294-2.772.882-3.43.518-.574 1.33-.868 2.436-.868 1.092 0 1.904.294 2.436.868.588.658.882 1.806.882 3.43m4.536 5.012c-.896 0-1.54-.238-1.918-.742h-.028v2.94c0 .112-.056.154-.14.154h-.63c-.098 0-.14-.042-.14-.154v-9.03c0-.098.042-.154.14-.154h.42c.098 0 .154.056.168.154l.084.56h.028c.392-.56 1.078-.84 2.03-.84.91 0 1.568.252 1.96.756s.602 1.288.602 2.38v.728q0 1.617-.588 2.436c-.392.546-1.05.812-1.988.812m-.112-6.328c-1.232 0-1.834.588-1.834 1.764v1.974c0 .602.154 1.05.49 1.358.322.308.784.448 1.372.448.616 0 1.078-.168 1.358-.518q.378-.462.378-2.016v-.532c0-.98-.154-1.652-.434-2.002-.28-.308-.714-.476-1.33-.476M16.773 13h-.448c-.154 0-.224-.056-.224-.182V6.294c0-.098.056-.154.168-.154h.406c.084 0 .14.056.168.154l.056.728h.028c.308-.588.854-.882 1.624-.882h.364c.112 0 .182.056.182.168v.476c0 .112-.07.154-.182.154h-.378c-.616 0-1.05.196-1.274.574-.168.28-.252.644-.252 1.106v4.2c0 .126-.084.182-.238.182m4.113-3.57v.266c0 .7.042 1.204.14 1.54.21.742.756 1.106 1.624 1.106s1.414-.364 1.638-1.106c.084-.336.14-.84.14-1.54V9.43c0-.686-.056-1.204-.14-1.54q-.315-1.092-1.638-1.092c-.882 0-1.428.364-1.624 1.092-.098.336-.14.854-.14 1.54m4.466-.14v.56c0 1.26-.252 2.142-.728 2.618-.448.448-1.106.658-1.974.658s-1.512-.21-1.96-.658c-.49-.476-.728-1.358-.728-2.618v-.56c0-1.26.238-2.142.728-2.632.434-.42 1.092-.644 1.96-.644s1.526.224 1.974.644c.476.49.728 1.372.728 2.632m5.735 2.884.098.322q.042.147 0 .21c-.028.042-.098.084-.238.14-.462.196-.994.28-1.596.28-.868 0-1.512-.196-1.932-.602-.546-.49-.812-1.414-.812-2.772V9.29c0-1.232.28-2.114.854-2.646q.672-.63 1.89-.63c.364 0 .742.07 1.106.182.364.126.672.266.896.434.07.056.07.14.014.224l-.238.392c-.056.084-.126.098-.238.028-.532-.308-1.036-.476-1.54-.476-.546 0-.966.154-1.26.434-.378.378-.56 1.106-.56 2.184v.238c0 1.064.14 1.792.448 2.156.28.364.742.532 1.414.532.448 0 .896-.084 1.358-.266.182-.07.294-.042.336.098m6.343-3.766v1.148c0 .196-.042.336-.112.42-.084.084-.21.112-.406.112H33.3c.028.84.168 1.428.448 1.764.266.336.728.49 1.386.49.546 0 1.064-.084 1.54-.28.182-.07.294-.042.336.098l.098.322a.27.27 0 0 1-.014.21q-.042.084-.294.168c-.476.182-1.036.266-1.666.266-1.022 0-1.736-.252-2.142-.77-.42-.504-.616-1.344-.616-2.506v-.56c0-1.12.196-1.946.602-2.478.392-.532 1.078-.798 2.03-.798.798 0 1.4.196 1.806.574.406.406.616 1.008.616 1.82m-2.408-1.61c-.616 0-1.064.182-1.316.532-.266.364-.406 1.008-.406 1.96h3.01c.07 0 .126 0 .154-.028s.042-.084.042-.182v-.532c0-.602-.112-1.036-.322-1.302-.252-.294-.63-.448-1.162-.448m9.27 5.964c0 .168-.099.238-.267.238h-.392q-.166 0-.21-.042c-.028-.028-.041-.084-.041-.196V8.674c0-.826-.224-1.372-.645-1.638-.28-.168-.657-.266-1.134-.266-.657 0-1.12.196-1.372.588q-.252.378-.252 1.092v4.34q0 .21-.252.21h-.433c-.154 0-.224-.07-.224-.21V6.294c0-.098.041-.154.14-.154h.42c.097 0 .153.056.167.154l.07.56h.029c.111-.196.307-.364.573-.532.35-.196.785-.308 1.316-.308 1.079 0 1.807.322 2.17.938q.337.588.337 1.806zm4.785.238h-.657c-.729 0-1.26-.182-1.569-.56-.307-.364-.462-.896-.462-1.61V6.938h-.854c-.097 0-.14-.042-.14-.154v-.28c0-.112.042-.168.14-.182l.855-.182V4.558q0-.168.167-.168h.588c.098 0 .154.056.154.168V6.14h1.639c.084 0 .14.056.14.14v.518c0 .098-.056.14-.14.14h-1.639v3.78c0 .56.084.952.252 1.148.168.238.518.35 1.023.35h.504c.111 0 .167.056.167.154v.476c0 .112-.055.154-.167.154m2.092-3.57v.266c0 .7.042 1.204.14 1.54.21.742.756 1.106 1.624 1.106s1.414-.364 1.638-1.106c.084-.336.14-.84.14-1.54V9.43c0-.686-.056-1.204-.14-1.54q-.315-1.092-1.638-1.092c-.882 0-1.428.364-1.624 1.092-.098.336-.14.854-.14 1.54m4.466-.14v.56c0 1.26-.252 2.142-.728 2.618-.448.448-1.106.658-1.974.658s-1.512-.21-1.96-.658c-.49-.476-.728-1.358-.728-2.618v-.56c0-1.26.238-2.142.728-2.632.434-.42 1.092-.644 1.96-.644s1.526.224 1.974.644c.476.49.728 1.372.728 2.632m4.979-2.814h.63c.252 0 .42.14.476.392.406 2.016.826 3.822 1.274 5.418h.07a76 76 0 0 0 1.302-5.978c0-.084.028-.126.056-.14a.5.5 0 0 1 .196-.028h.434q.147 0 .21.042c.028.028.042.07.042.154q-.462 2.352-1.428 6.09c-.112.392-.308.574-.588.574h-.476c-.182 0-.322-.042-.406-.126-.098-.084-.168-.224-.224-.448a88 88 0 0 1-1.204-5.11h-.098c-.364 1.75-.77 3.458-1.204 5.11-.056.224-.14.364-.224.448a.6.6 0 0 1-.406.126h-.476c-.294 0-.49-.182-.588-.574q-.987-3.738-1.428-6.09c-.014-.084 0-.126.042-.154q.042-.042.21-.042h.434q.21 0 .252.168c.336 1.988.77 3.99 1.302 5.978h.07a94 94 0 0 0 1.274-5.418c.056-.252.21-.392.476-.392m9.731 6.384-.028-.476h-.028c-.308.504-.812.742-1.484.742h-.7c-.672 0-1.162-.168-1.498-.504s-.504-.77-.504-1.316v-.42q0-1.323 1.092-1.764c.308-.126.868-.196 1.68-.196h.42c.336 0 .658.014.938.042V8.17c0-.504-.14-.868-.406-1.064-.28-.196-.7-.308-1.288-.308-.49 0-.966.07-1.442.21-.224.056-.336.028-.364-.112l-.07-.294c-.056-.168 0-.266.154-.322a6.5 6.5 0 0 1 1.792-.266c.896 0 1.54.168 1.932.49s.602.84.602 1.568v4.788c0 .098-.056.14-.154.14h-.462c-.126 0-.182-.042-.182-.14m-.112-1.96V9.738a7 7 0 0 0-.84-.042h-.784c-.588 0-.994.098-1.232.28s-.35.49-.35.924v.294c0 .42.098.728.294.91.168.168.462.252.854.252h.574c.462 0 .826-.112 1.092-.364.252-.252.392-.616.392-1.092m7.992 1.862c0 .168-.098.238-.266.238h-.392q-.168 0-.21-.042c-.028-.028-.042-.084-.042-.196V8.674c0-.826-.224-1.372-.644-1.638-.28-.168-.658-.266-1.134-.266-.658 0-1.12.196-1.372.588q-.252.378-.252 1.092v4.34q0 .21-.252.21h-.434c-.154 0-.224-.07-.224-.21V6.294c0-.098.042-.154.14-.154h.42c.098 0 .154.056.168.154l.07.56h.028c.112-.196.308-.364.574-.532.35-.196.784-.308 1.316-.308 1.078 0 1.806.322 2.17.938q.336.588.336 1.806zm2.952-6.468v6.594c0 .084-.042.112-.126.112h-.672c-.084 0-.112-.028-.112-.112V6.294c0-.098.056-.154.168-.154h.574c.112 0 .168.056.168.154m.196-2.002v.084c0 .448-.21.672-.616.672h-.056c-.434 0-.644-.224-.644-.672v-.084c0-.434.21-.658.644-.658h.056c.406 0 .616.224.616.658m6.63 4.116v1.148c0 .196-.043.336-.113.42-.084.084-.21.112-.406.112h-3.612c.028.84.168 1.428.448 1.764.266.336.728.49 1.386.49.546 0 1.064-.084 1.54-.28.182-.07.294-.042.336.098l.098.322a.27.27 0 0 1-.014.21q-.042.084-.294.168c-.476.182-1.036.266-1.666.266-1.022 0-1.736-.252-2.142-.77-.42-.504-.616-1.344-.616-2.506v-.56c0-1.12.196-1.946.602-2.478.392-.532 1.078-.798 2.03-.798.798 0 1.4.196 1.806.574.406.406.616 1.008.616 1.82m-2.409-1.61c-.616 0-1.064.182-1.316.532-.266.364-.406 1.008-.406 1.96h3.01c.07 0 .126 0 .154-.028s.042-.084.042-.182v-.532c0-.602-.112-1.036-.322-1.302-.252-.294-.63-.448-1.162-.448M1.638 30H1.19c-.154 0-.224-.056-.224-.182v-6.524c0-.098.056-.154.168-.154h.406c.084 0 .14.056.168.154l.056.728h.028c.308-.588.854-.882 1.624-.882h.364c.112 0 .182.056.182.168v.476c0 .112-.07.154-.182.154h-.378c-.616 0-1.05.196-1.274.574-.168.28-.252.644-.252 1.106v4.2c0 .126-.084.182-.238.182m4.113-3.57v.266c0 .7.042 1.204.14 1.54.21.742.756 1.106 1.624 1.106s1.414-.364 1.638-1.106c.084-.336.14-.84.14-1.54v-.266c0-.686-.056-1.204-.14-1.54q-.315-1.092-1.638-1.092c-.882 0-1.428.364-1.624 1.092-.098.336-.14.854-.14 1.54m4.466-.14v.56c0 1.26-.252 2.142-.728 2.618-.448.448-1.106.658-1.974.658s-1.512-.21-1.96-.658c-.49-.476-.728-1.358-.728-2.618v-.56c0-1.26.238-2.142.728-2.632.434-.42 1.092-.644 1.96-.644s1.526.224 1.974.644c.476.49.728 1.372.728 2.632m5.735 2.884.098.322q.042.147 0 .21c-.028.042-.098.084-.238.14-.462.196-.994.28-1.596.28-.868 0-1.512-.196-1.932-.602-.546-.49-.812-1.414-.812-2.772v-.462c0-1.232.28-2.114.854-2.646q.672-.63 1.89-.63c.364 0 .742.07 1.106.182.364.126.672.266.896.434.07.056.07.14.014.224l-.238.392c-.056.084-.126.098-.238.028-.532-.308-1.036-.476-1.54-.476-.546 0-.966.154-1.26.434-.378.378-.56 1.106-.56 2.184v.238c0 1.064.14 1.792.448 2.156.28.364.742.532 1.414.532.448 0 .896-.084 1.358-.266.182-.07.294-.042.336.098m5.77.182v.504c0 .098-.057.14-.14.14h-4.369c-.098 0-.14-.042-.14-.14v-.238c0-.14.084-.336.252-.616l3.08-5.082h-3.094c-.098 0-.14-.042-.14-.14v-.504c0-.084.042-.14.14-.14h4.144c.084 0 .14.056.14.14v.196c0 .168-.126.448-.364.84l-3.01 4.9h3.36c.084 0 .14.056.14.14m6.6.406c0 .168-.097.238-.265.238h-.392q-.168 0-.21-.042c-.028-.028-.042-.084-.042-.196v-4.088c0-.826-.224-1.372-.644-1.638-.28-.168-.658-.266-1.134-.266-.658 0-1.12.196-1.372.588q-.252.378-.252 1.092v4.34q0 .21-.252.21h-.434c-.154 0-.224-.07-.224-.21v-6.496c0-.098.042-.154.14-.154h.42c.098 0 .154.056.168.154l.07.56h.028c.112-.196.308-.364.574-.532.35-.196.784-.308 1.316-.308 1.078 0 1.806.322 2.17.938q.336.588.336 1.806zm6.579-4.354v1.148c0 .196-.042.336-.112.42-.084.084-.21.112-.406.112H30.77c.028.84.168 1.428.448 1.764.266.336.728.49 1.386.49.546 0 1.064-.084 1.54-.28.182-.07.294-.042.336.098l.098.322a.27.27 0 0 1-.014.21q-.042.084-.294.168c-.476.182-1.036.266-1.666.266-1.022 0-1.736-.252-2.142-.77-.42-.504-.616-1.344-.616-2.506v-.56c0-1.12.196-1.946.602-2.478.392-.532 1.078-.798 2.03-.798.798 0 1.4.196 1.806.574.406.406.616 1.008.616 1.82m-2.408-1.61c-.616 0-1.064.182-1.316.532-.266.364-.406 1.008-.406 1.96h3.01c.07 0 .126 0 .154-.028s.042-.084.042-.182v-.532c0-.602-.112-1.036-.322-1.302-.252-.294-.63-.448-1.162-.448m12.424-3.122v7.028c0 .728-.182 1.288-.518 1.694-.42.49-1.12.728-2.114.728-1.008 0-1.722-.224-2.142-.686-.434-.448-.644-1.288-.644-2.52v-.658c0-1.106.21-1.918.658-2.45q.651-.798 2.058-.798 1.218 0 1.764.672h.028v-3.01c0-.098.056-.154.168-.154h.574c.112 0 .168.056.168.154m-.91 6.902V25.66c0-.588-.154-1.036-.434-1.372-.28-.322-.7-.49-1.26-.49-.63 0-1.092.168-1.372.476-.35.392-.518 1.078-.518 2.058v.476q0 1.554.504 2.1c.252.294.7.434 1.344.434.7 0 1.19-.168 1.442-.532.196-.266.294-.672.294-1.232m3.726-6.902v7.49q0 .735.126.882c.07.112.237.154.503.154h.378c.112 0 .168.056.168.154v.476c0 .112-.056.168-.14.168h-.532c-.503 0-.867-.098-1.078-.322-.224-.224-.336-.658-.336-1.288v-7.714c0-.098.056-.154.168-.154h.575c.111 0 .168.056.168.154m6.41 9.184-.027-.476h-.028c-.308.504-.812.742-1.484.742h-.7c-.672 0-1.162-.168-1.498-.504s-.504-.77-.504-1.316v-.42q0-1.323 1.092-1.764c.308-.126.868-.196 1.68-.196h.42c.336 0 .658.014.938.042v-.798c0-.504-.14-.868-.406-1.064-.28-.196-.7-.308-1.288-.308-.49 0-.966.07-1.442.21-.224.056-.336.028-.364-.112l-.07-.294c-.056-.168 0-.266.154-.322a6.5 6.5 0 0 1 1.792-.266c.896 0 1.54.168 1.932.49s.602.84.602 1.568v4.788c0 .098-.056.14-.154.14h-.462c-.126 0-.182-.042-.182-.14m-.111-1.96v-1.162a7 7 0 0 0-.84-.042h-.784c-.588 0-.994.098-1.232.28s-.35.49-.35.924v.294c0 .42.098.728.294.91.168.168.462.252.854.252h.574c.462 0 .826-.112 1.092-.364.252-.252.392-.616.392-1.092m6.947-7.224v5.264h.7c.14 0 .266-.07.364-.224l1.624-2.422a.3.3 0 0 1 .266-.154h.602c.154 0 .182.084.098.224l-1.988 2.884c-.056.084-.056.154 0 .224l2.058 3.374c.056.112.014.154-.098.154h-.728c-.084 0-.14-.028-.168-.098l-1.764-2.982c-.056-.098-.154-.154-.294-.154h-.672v3.122c0 .084-.042.112-.126.112h-.658c-.084 0-.126-.028-.126-.112v-9.212c0-.098.056-.154.168-.154h.574c.112 0 .168.056.168.154m5.462 5.754v.266c0 .7.042 1.204.14 1.54.21.742.756 1.106 1.624 1.106s1.414-.364 1.638-1.106c.084-.336.14-.84.14-1.54v-.266c0-.686-.056-1.204-.14-1.54q-.315-1.092-1.638-1.092c-.882 0-1.428.364-1.624 1.092-.098.336-.14.854-.14 1.54m4.466-.14v.56c0 1.26-.252 2.142-.728 2.618-.448.448-1.106.658-1.974.658s-1.512-.21-1.96-.658c-.49-.476-.728-1.358-.728-2.618v-.56c0-1.26.238-2.142.728-2.632.434-.42 1.092-.644 1.96-.644s1.526.224 1.974.644c.476.49.728 1.372.728 2.632m6.812 3.472c0 .168-.098.238-.266.238h-.392q-.168 0-.21-.042c-.028-.028-.042-.084-.042-.196v-4.088c0-.826-.224-1.372-.644-1.638-.28-.168-.658-.266-1.134-.266-.658 0-1.12.196-1.372.588q-.252.378-.252 1.092v4.34q0 .21-.252.21h-.434c-.154 0-.224-.07-.224-.21v-6.496c0-.098.042-.154.14-.154h.42c.098 0 .154.056.168.154l.07.56h.028c.112-.196.308-.364.574-.532.35-.196.784-.308 1.316-.308 1.078 0 1.806.322 2.17.938q.336.588.336 1.806zm4.786.238h-.658c-.728 0-1.26-.182-1.568-.56-.308-.364-.462-.896-.462-1.61v-3.892h-.854c-.098 0-.14-.042-.14-.154v-.28c0-.112.042-.168.14-.182l.854-.182v-1.582q0-.168.168-.168h.588c.098 0 .154.056.154.168v1.582h1.638c.084 0 .14.056.14.14v.518c0 .098-.056.14-.14.14h-1.638v3.78c0 .56.084.952.252 1.148.168.238.518.35 1.022.35h.504c.112 0 .168.056.168.154v.476c0 .112-.056.154-.168.154m5.34-.14-.028-.476h-.028c-.308.504-.812.742-1.484.742h-.7c-.672 0-1.162-.168-1.498-.504s-.504-.77-.504-1.316v-.42q0-1.323 1.092-1.764c.308-.126.868-.196 1.68-.196h.42c.336 0 .658.014.938.042v-.798c0-.504-.14-.868-.406-1.064-.28-.196-.7-.308-1.288-.308-.49 0-.966.07-1.442.21-.224.056-.336.028-.364-.112l-.07-.294c-.056-.168 0-.266.154-.322a6.5 6.5 0 0 1 1.792-.266c.896 0 1.54.168 1.932.49s.602.84.602 1.568v4.788c0 .098-.056.14-.154.14h-.462c-.126 0-.182-.042-.182-.14m-.112-1.96v-1.162a7 7 0 0 0-.84-.042h-.784c-.588 0-.994.098-1.232.28s-.35.49-.35.924v.294c0 .42.098.728.294.91.168.168.462.252.854.252h.574c.462 0 .826-.112 1.092-.364.252-.252.392-.616.392-1.092M1.554 43.43v.266c0 .7.042 1.204.14 1.54.21.742.756 1.106 1.624 1.106s1.414-.364 1.638-1.106c.084-.336.14-.84.14-1.54v-.266c0-.686-.056-1.204-.14-1.54q-.315-1.092-1.638-1.092c-.882 0-1.428.364-1.624 1.092-.098.336-.14.854-.14 1.54m4.466-.14v.56c0 1.26-.252 2.142-.728 2.618-.448.448-1.106.658-1.974.658s-1.512-.21-1.96-.658C.868 45.992.63 45.11.63 43.85v-.56c0-1.26.238-2.142.728-2.632.434-.42 1.092-.644 1.96-.644s1.526.224 1.974.644c.476.49.728 1.372.728 2.632m3.299 3.836c-.742 0-1.372-.112-1.904-.336-.14-.056-.196-.126-.168-.238l.112-.406c.028-.14.126-.196.266-.14a4.6 4.6 0 0 0 1.694.336c.56 0 .951-.084 1.19-.28.223-.182.35-.476.35-.896v-.084c0-.462-.127-.77-.379-.938-.154-.084-.476-.182-.98-.294l-.391-.07c-.476-.084-.84-.196-1.092-.35-.476-.266-.714-.756-.714-1.456v-.14c0-1.204.742-1.82 2.24-1.82.574 0 1.092.07 1.568.196q.25.084.21.252l-.085.364c-.056.168-.154.238-.322.182a5.2 5.2 0 0 0-1.385-.21c-.532 0-.91.098-1.106.28-.196.168-.28.42-.28.728v.098c0 .308.07.546.224.686q.252.273 1.092.42l.364.07c.784.168 1.287.392 1.525.672.224.308.35.728.35 1.232v.14c0 .56-.14.994-.392 1.302-.377.476-1.035.7-1.987.7m8.055-.77v.504c0 .098-.056.14-.14.14h-4.368c-.098 0-.14-.042-.14-.14v-.238c0-.14.084-.336.252-.616l3.08-5.082h-3.094c-.098 0-.14-.042-.14-.14v-.504c0-.084.042-.14.14-.14h4.144c.084 0 .14.056.14.14v.196c0 .168-.126.448-.364.84l-3.01 4.9h3.36c.084 0 .14.056.14.14m5.523-.182.098.322q.042.147 0 .21c-.028.042-.098.084-.238.14-.462.196-.994.28-1.596.28-.868 0-1.512-.196-1.932-.602-.546-.49-.812-1.414-.812-2.772v-.462c0-1.232.28-2.114.854-2.646q.672-.63 1.89-.63c.364 0 .742.07 1.106.182.364.126.672.266.896.434.07.056.07.14.014.224l-.238.392c-.056.084-.126.098-.238.028-.532-.308-1.036-.476-1.54-.476-.546 0-.966.154-1.26.434-.378.378-.56 1.106-.56 2.184v.238c0 1.064.14 1.792.448 2.156.28.364.742.532 1.414.532.448 0 .896-.084 1.358-.266.182-.07.294-.042.336.098m5.77.182v.504c0 .098-.056.14-.14.14h-4.368c-.098 0-.14-.042-.14-.14v-.238c0-.14.084-.336.252-.616l3.08-5.082h-3.094c-.098 0-.14-.042-.14-.14v-.504c0-.084.042-.14.14-.14H28.4c.084 0 .14.056.14.14v.196c0 .168-.126.448-.364.84l-3.01 4.9h3.36c.084 0 .14.056.14.14m6.097-3.948v1.106c0 .21-.042.364-.126.448q-.126.126-.42.126h-3.584c.028.84.168 1.428.448 1.764q.399.504 1.386.504c.546 0 1.064-.084 1.54-.28.182-.07.294-.042.336.098l.084.266c0 .028.014.042.014.056v.042c0 .014-.014.028-.014.042l-.028.028c0 .014-.014.028-.028.042a.2.2 0 0 1-.028.042l-.042.042c-.028.014-.042.028-.056.028l-.056.056c-.028.028-.042.042-.056.042-.448.364-.756.658-.924.896a1.33 1.33 0 0 0-.238.756c0 .336.196.504.602.504.224 0 .448-.042.672-.154.098-.042.168-.014.196.07l.084.392c.028.098-.014.168-.112.21-.336.14-.672.21-1.036.21q-1.344 0-1.344-1.05c0-.63.364-1.176 1.106-1.624-.266.042-.49.056-.672.056-1.022 0-1.736-.252-2.142-.77-.42-.504-.616-1.344-.616-2.506v-.56c0-1.12.196-1.946.602-2.478.392-.532 1.078-.798 2.03-.798.798 0 1.4.196 1.806.574.406.406.616 1.008.616 1.82m-2.408-1.624c-.616 0-1.064.182-1.316.546-.266.364-.406 1.008-.406 1.96h3.01c.07 0 .126 0 .154-.028s.042-.084.042-.182v-.532c0-.616-.112-1.05-.322-1.316-.252-.294-.63-.448-1.162-.448m9.13-3.108v7.028c0 .728-.182 1.288-.518 1.694-.42.49-1.12.728-2.115.728-1.008 0-1.721-.224-2.142-.686-.433-.448-.643-1.288-.643-2.52v-.658c0-1.106.21-1.918.657-2.45q.651-.798 2.058-.798 1.219 0 1.764.672h.029v-3.01c0-.098.056-.154.167-.154h.575c.111 0 .168.056.168.154m-.91 6.902V42.66c0-.588-.154-1.036-.434-1.372-.28-.322-.7-.49-1.26-.49-.63 0-1.093.168-1.372.476-.35.392-.518 1.078-.518 2.058v.476q0 1.554.504 2.1c.252.294.7.434 1.343.434.7 0 1.19-.168 1.443-.532.196-.266.294-.672.294-1.232m7.995 2.184c0 .168-.098.238-.266.238h-.392q-.168 0-.21-.042c-.028-.028-.042-.084-.042-.196v-4.088c0-.826-.224-1.372-.644-1.638-.28-.168-.658-.266-1.134-.266-.658 0-1.12.196-1.372.588q-.252.378-.252 1.092v4.34q0 .21-.252.21h-.434c-.154 0-.224-.07-.224-.21v-6.496c0-.098.042-.154.14-.154h.42c.098 0 .154.056.168.154l.07.56h.028c.112-.196.308-.364.574-.532.35-.196.784-.308 1.316-.308 1.078 0 1.806.322 2.17.938q.336.588.336 1.806zm2.448-3.332v.266c0 .7.042 1.204.14 1.54.21.742.756 1.106 1.624 1.106s1.414-.364 1.638-1.106c.084-.336.14-.84.14-1.54v-.266c0-.686-.056-1.204-.14-1.54q-.315-1.092-1.638-1.092c-.882 0-1.428.364-1.624 1.092-.098.336-.14.854-.14 1.54m4.466-.14v.56c0 1.26-.252 2.142-.728 2.618-.448.448-1.106.658-1.974.658s-1.512-.21-1.96-.658c-.49-.476-.728-1.358-.728-2.618v-.56c0-1.26.238-2.142.728-2.632.434-.42 1.092-.644 1.96-.644s1.526.224 1.974.644c.476.49.728 1.372.728 2.632m3.298 3.836c-.742 0-1.372-.112-1.904-.336-.14-.056-.196-.126-.168-.238l.112-.406c.028-.14.126-.196.266-.14a4.6 4.6 0 0 0 1.694.336c.56 0 .952-.084 1.19-.28.224-.182.35-.476.35-.896v-.084c0-.462-.126-.77-.378-.938-.154-.084-.476-.182-.98-.294l-.392-.07c-.476-.084-.84-.196-1.092-.35-.476-.266-.714-.756-.714-1.456v-.14c0-1.204.742-1.82 2.24-1.82.574 0 1.092.07 1.568.196q.252.084.21.252l-.084.364c-.056.168-.154.238-.322.182a5.2 5.2 0 0 0-1.386-.21c-.532 0-.91.098-1.106.28-.196.168-.28.42-.28.728v.098c0 .308.07.546.224.686q.252.273 1.092.42l.364.07c.784.168 1.288.392 1.526.672.224.308.35.728.35 1.232v.14c0 .56-.14.994-.392 1.302-.378.476-1.036.7-1.988.7m-.952-8.862 2.38-1.162c.182-.084.308-.042.378.098l.238.49c.056.14-.014.252-.182.336l-2.394.91c-.182.07-.294.042-.35-.084l-.14-.308c-.056-.126-.042-.224.07-.28m9.007 7.91.099.322q.042.147 0 .21c-.028.042-.099.084-.239.14-.461.196-.993.28-1.595.28-.868 0-1.512-.196-1.932-.602-.547-.49-.812-1.414-.812-2.772v-.462c0-1.232.28-2.114.853-2.646q.672-.63 1.89-.63c.364 0 .742.07 1.106.182.365.126.672.266.897.434.07.056.07.14.013.224l-.237.392c-.056.084-.127.098-.239.028-.531-.308-1.035-.476-1.54-.476-.546 0-.966.154-1.26.434-.377.378-.56 1.106-.56 2.184v.238c0 1.064.14 1.792.449 2.156.28.364.741.532 1.413.532.448 0 .896-.084 1.358-.266.183-.07.294-.042.337.098m2.718-5.88v6.594c0 .084-.042.112-.126.112h-.672c-.084 0-.112-.028-.112-.112v-6.594c0-.098.056-.154.168-.154h.574c.112 0 .168.056.168.154m.196-2.002v.084c0 .448-.21.672-.616.672h-.056c-.434 0-.644-.224-.644-.672v-.084c0-.434.21-.658.644-.658h.056c.406 0 .616.224.616.658m2.5 5.138v.266c0 .7.041 1.204.14 1.54.21.742.755 1.106 1.623 1.106s1.414-.364 1.638-1.106c.084-.336.14-.84.14-1.54v-.266c0-.686-.056-1.204-.14-1.54q-.315-1.092-1.638-1.092c-.882 0-1.428.364-1.624 1.092-.098.336-.14.854-.14 1.54m4.465-.14v.56c0 1.26-.252 2.142-.728 2.618-.448.448-1.106.658-1.974.658s-1.512-.21-1.96-.658c-.49-.476-.728-1.358-.728-2.618v-.56c0-1.26.238-2.142.728-2.632.434-.42 1.092-.644 1.96-.644s1.526.224 1.974.644c.476.49.728 1.372.728 2.632m4.979-2.814h.63c.252 0 .42.14.476.392.406 2.016.826 3.822 1.274 5.418h.07a76 76 0 0 0 1.302-5.978c0-.084.028-.126.056-.14a.5.5 0 0 1 .196-.028h.434q.147 0 .21.042c.028.028.042.07.042.154q-.462 2.352-1.428 6.09c-.112.392-.308.574-.588.574h-.476c-.182 0-.322-.042-.406-.126-.098-.084-.168-.224-.224-.448a88 88 0 0 1-1.204-5.11h-.098c-.364 1.75-.77 3.458-1.204 5.11-.056.224-.14.364-.224.448a.6.6 0 0 1-.406.126h-.476c-.294 0-.49-.182-.588-.574q-.987-3.738-1.428-6.09c-.014-.084 0-.126.042-.154q.042-.042.21-.042h.434q.21 0 .252.168c.336 1.988.77 3.99 1.302 5.978h.07a94 94 0 0 0 1.274-5.418c.056-.252.21-.392.476-.392m10.668 1.932v1.148c0 .196-.042.336-.112.42-.084.084-.21.112-.406.112h-3.612c.028.84.168 1.428.448 1.764.266.336.728.49 1.386.49.546 0 1.064-.084 1.54-.28.182-.07.294-.042.336.098l.098.322a.27.27 0 0 1-.014.21q-.042.084-.294.168c-.476.182-1.036.266-1.666.266-1.022 0-1.736-.252-2.142-.77-.42-.504-.616-1.344-.616-2.506v-.56c0-1.12.196-1.946.602-2.478.392-.532 1.078-.798 2.03-.798.798 0 1.4.196 1.806.574.406.406.616 1.008.616 1.82m-2.408-1.61c-.616 0-1.064.182-1.316.532-.266.364-.406 1.008-.406 1.96h3.01c.07 0 .126 0 .154-.028s.042-.084.042-.182v-.532c0-.602-.112-1.036-.322-1.302-.252-.294-.63-.448-1.162-.448m8.275 4.242c-.126.112-.252.21-.364.28.798.518 1.204 1.176 1.204 1.96v.154c0 .756-.252 1.302-.756 1.652-.504.364-1.204.532-2.072.532-.896 0-1.75-.182-2.534-.574-.098-.042-.14-.112-.112-.224l.154-.42q.042-.168.252-.084c.714.35 1.428.518 2.142.518.672 0 1.176-.098 1.484-.308q.462-.315.462-1.134v-.112c0-.728-.35-1.288-1.036-1.652-.224.056-.49.07-.826.07-.798 0-1.414-.168-1.862-.518-.49-.42-.728-1.092-.728-2.044v-.574c0-.966.238-1.652.728-2.058.392-.322 1.022-.49 1.862-.49.196 0 .35.014.448.014.224-.672.756-1.022 1.568-1.022h.336c.126 0 .196.07.196.196v.546c0 .014-.014.028-.014.042-.014.014-.028.028-.056.028-.028.014-.07.014-.098.014h-.42c-.364 0-.588.126-.7.35.252.098.462.21.616.322.476.406.728 1.092.728 2.058v.574c0 .826-.21 1.456-.602 1.904m-3.64-2.38v.364c0 .448.042.826.154 1.106.196.574.7.854 1.484.854.798 0 1.302-.28 1.512-.854.084-.266.14-.644.14-1.12v-.35c0-.476-.056-.84-.14-1.092-.112-.308-.294-.518-.532-.644s-.56-.196-.98-.196c-.406 0-.728.07-.966.196s-.406.336-.518.644c-.112.28-.154.644-.154 1.092m6.631.77v.266c0 .7.042 1.204.14 1.54.21.742.756 1.106 1.624 1.106s1.414-.364 1.638-1.106c.084-.336.14-.84.14-1.54v-.266c0-.686-.056-1.204-.14-1.54q-.315-1.092-1.638-1.092c-.882 0-1.428.364-1.624 1.092-.098.336-.14.854-.14 1.54m4.466-.14v.56c0 1.26-.252 2.142-.728 2.618-.448.448-1.106.658-1.974.658s-1.512-.21-1.96-.658c-.49-.476-.728-1.358-.728-2.618v-.56c0-1.26.238-2.142.728-2.632.434-.42 1.092-.644 1.96-.644s1.526.224 1.974.644c.476.49.728 1.372.728 2.632M4.354 57.476h.63c.252 0 .42.14.476.392.406 2.016.826 3.822 1.274 5.418h.07a76 76 0 0 0 1.302-5.978c0-.084.028-.126.056-.14a.5.5 0 0 1 .196-.028h.434q.147 0 .21.042c.028.028.042.07.042.154q-.462 2.352-1.428 6.09c-.112.392-.308.574-.588.574h-.476c-.182 0-.322-.042-.406-.126-.098-.084-.168-.224-.224-.448a88 88 0 0 1-1.204-5.11H4.62c-.364 1.75-.77 3.458-1.204 5.11-.056.224-.14.364-.224.448a.6.6 0 0 1-.406.126H2.31c-.294 0-.49-.182-.588-.574q-.987-3.738-1.428-6.09c-.014-.084 0-.126.042-.154q.042-.042.21-.042H.98q.21 0 .252.168c.336 1.988.77 3.99 1.302 5.978h.07a94 94 0 0 0 1.274-5.418c.056-.252.21-.392.476-.392m10.239 3.052v3.234c0 .168-.084.238-.224.238h-.518c-.154 0-.224-.07-.224-.238v-8.484c0-.182.084-.294.252-.322.574-.084 1.218-.14 1.946-.14q1.806 0 2.562.63c.504.42.77 1.12.77 2.1v.182c0 1.876-1.092 2.814-3.262 2.814-.56 0-.994 0-1.302-.014m.28-4.886c-.196.028-.28.14-.28.336v3.752c.224.028.616.028 1.19.028.812 0 1.414-.154 1.792-.462.364-.308.56-.84.56-1.596v-.182c0-.672-.182-1.162-.518-1.47-.35-.294-.924-.448-1.736-.448q-.63 0-1.008.042m6.76-.462v7.56c0 .196.029.322.113.378.084.07.224.098.434.098h2.282c.14 0 .21.07.21.182v.42c0 .126-.07.182-.21.182h-2.52c-.448 0-.77-.084-.966-.266-.21-.182-.308-.462-.308-.854v-7.7c0-.154.07-.238.224-.238h.504c.154 0 .238.084.238.238m8.988 8.386-3.668-7.686h-.098v7.882c0 .168-.07.238-.196.238h-.504c-.14 0-.196-.07-.196-.238v-8.4c0-.168.028-.28.098-.336.056-.056.182-.084.364-.084h.686c.168 0 .308.042.392.098q.126.105.252.336l3.668 7.714h.098v-7.91c0-.154.056-.238.196-.238h.504c.126 0 .196.084.196.238v8.4c0 .168-.042.28-.098.336-.07.056-.196.084-.364.084h-.686c-.182 0-.322-.028-.406-.098-.084-.056-.168-.168-.238-.336m4.333-6.202h.14c.392 0 .602.182.602.546v.336c0 .364-.21.546-.602.546h-.14c-.406 0-.602-.182-.602-.546v-.336c0-.364.196-.546.602-.546m0 5.334h.14c.392 0 .602.182.602.546v.336c0 .364-.21.546-.602.546h-.14c-.406 0-.602-.182-.602-.546v-.336c0-.364.196-.546.602-.546m9.63-1.022h-3.837c-.182 0-.266-.084-.266-.28v-.238q0-.147.252-.588l3.178-5.404c.084-.14.224-.224.448-.224h.84c.224 0 .35.112.35.308v5.6h.91c.154 0 .238.07.238.196v.406c0 .154-.084.224-.238.224h-.91v2.086c0 .168-.084.238-.224.238h-.532c-.14 0-.21-.07-.21-.238zm0-.826v-5.054h-.099l-2.982 5.054zm3.969 1.848h.21c.434 0 .658.238.658.714v.266c0 .308-.07.644-.182 1.008a3.8 3.8 0 0 1-.588 1.05c-.084.112-.182.14-.294.07l-.252-.154c-.112-.056-.112-.14-.014-.266.084-.112.168-.266.28-.462.084-.168.154-.322.196-.476.028-.112.014-.196-.07-.252l-.252-.126c-.182-.084-.266-.28-.266-.574v-.266c0-.35.182-.532.574-.532m6.793-1.456v-.126c0-.658-.154-1.148-.434-1.484-.308-.322-.756-.49-1.372-.49s-1.162.154-1.652.462c-.126.084-.224.098-.308.056l-.21-.084c-.098-.028-.14-.112-.112-.238l.294-4.144c0-.168.098-.252.28-.252H55.5c.168 0 .252.084.252.224v.336c0 .154-.098.224-.28.224h-2.968c-.126 0-.196.07-.196.182l-.196 2.828c.434-.28.98-.42 1.652-.42.896 0 1.568.266 2.016.784.392.476.588 1.148.588 1.988v.154c0 .98-.28 1.708-.812 2.184s-1.274.7-2.254.7a4.8 4.8 0 0 1-2.184-.504c-.154-.07-.21-.168-.154-.294l.14-.378c.042-.14.14-.168.308-.098.574.336 1.204.49 1.904.49s1.218-.168 1.54-.518c.322-.336.49-.854.49-1.582m8.478-1.96v.378c0 1.806-.308 3.038-.91 3.71-.449.504-1.12.756-2.003.756-.895 0-1.553-.252-2.001-.756-.616-.672-.91-1.904-.91-3.71v-.378c0-1.792.294-3.038.91-3.71.448-.504 1.106-.756 2.002-.756.882 0 1.553.252 2.002.756.602.672.91 1.918.91 3.71m-4.802.098v.182c0 1.512.168 2.534.532 3.08.28.476.741.7 1.357.7.617 0 1.064-.224 1.358-.7.35-.546.532-1.568.532-3.08v-.182c0-1.498-.181-2.52-.532-3.08-.294-.462-.741-.7-1.358-.7-.616 0-1.078.238-1.358.7-.363.56-.531 1.582-.531 3.08m8.015 4.564 4.956-8.96a.29.29 0 0 1 .266-.168h.532c.14 0 .182.07.126.182l-4.956 8.96a.34.34 0 0 1-.308.168h-.49c-.14 0-.182-.056-.126-.182m1.82-6.72v.154c0 .966-.182 1.624-.546 1.988q-.42.42-1.218.42t-1.218-.42c-.364-.364-.546-1.022-.546-1.988v-.154c0-.952.182-1.624.546-1.988q.42-.42 1.218-.42t1.218.42c.364.364.546 1.036.546 1.988m-.854.14v-.126q0-.966-.21-1.344c-.14-.238-.364-.364-.7-.364s-.574.126-.714.364c-.14.252-.196.7-.196 1.344v.126c0 .658.056 1.106.196 1.344.14.252.378.364.714.364s.56-.112.7-.364q.21-.357.21-1.344m6.622 4.2v.154c0 .966-.182 1.624-.546 1.988q-.42.42-1.218.42t-1.218-.42c-.364-.364-.546-1.022-.546-1.988v-.154c0-.952.182-1.624.546-1.988q.42-.42 1.218-.42t1.218.42c.364.364.546 1.036.546 1.988m-.854.14v-.126q0-.966-.21-1.344c-.14-.238-.364-.364-.7-.364s-.574.126-.714.364c-.14.252-.196.7-.196 1.344v.126c0 .658.056 1.106.196 1.344.14.252.378.364.714.364s.56-.112.7-.364q.21-.357.21-1.344M2.912 71.438c.098-.126.224-.154.364-.098l.336.168c.112.07.14.154.07.266-1.148 1.54-1.722 3.276-1.722 5.222q0 1.512.378 2.73c.252.812.7 1.652 1.33 2.492.084.112.042.21-.098.28l-.322.168c-.126.07-.238.042-.322-.084C1.61 80.902.952 79.04.952 77.024c0-1.008.14-1.96.448-2.842.294-.868.798-1.792 1.512-2.744m5.434 3.038h.63c.252 0 .42.14.476.392.406 2.016.826 3.822 1.274 5.418h.07a76 76 0 0 0 1.302-5.978c0-.084.028-.126.056-.14a.5.5 0 0 1 .196-.028h.434q.147 0 .21.042c.028.028.042.07.042.154q-.462 2.352-1.428 6.09c-.112.392-.308.574-.588.574h-.476c-.182 0-.322-.042-.406-.126-.098-.084-.168-.224-.224-.448a88 88 0 0 1-1.204-5.11h-.098c-.364 1.75-.77 3.458-1.204 5.11-.056.224-.14.364-.224.448a.6.6 0 0 1-.406.126h-.476c-.294 0-.49-.182-.588-.574q-.987-3.738-1.428-6.09c-.014-.084 0-.126.042-.154q.042-.042.21-.042h.434q.21 0 .252.168c.336 1.988.77 3.99 1.302 5.978h.07a94 94 0 0 0 1.274-5.418c.056-.252.21-.392.476-.392M20.517 81h-.658c-.728 0-1.26-.182-1.568-.56-.308-.364-.462-.896-.462-1.61v-3.892h-.854c-.098 0-.14-.042-.14-.154v-.28c0-.112.042-.168.14-.182l.854-.182v-1.582q0-.168.168-.168h.588c.098 0 .154.056.154.168v1.582h1.638c.084 0 .14.056.14.14v.518c0 .098-.056.14-.14.14h-1.638v3.78c0 .56.084.952.252 1.148.168.238.518.35 1.022.35h.504c.112 0 .168.056.168.154v.476c0 .112-.056.154-.168.154m2.386 2.142c.378-.742.714-1.484 1.022-2.24-.42 0-.742-.294-.938-.882a30 30 0 0 1-.784-2.408 61 61 0 0 1-.854-3.29c-.028-.112.014-.182.154-.182h.63c.084 0 .126.042.154.126.196.994.448 2.03.742 3.108.154.616.392 1.372.7 2.268.056.168.112.294.182.35.056.07.154.098.266.098h.056c.532-1.456 1.036-3.402 1.526-5.838.014-.07.07-.112.154-.112h.644c.056 0 .084.014.112.042s.028.056.028.084c-.434 2.03-.882 3.71-1.33 5.054a44 44 0 0 1-1.638 4.172c-.056.126-.154.154-.294.098l-.462-.168c-.126-.042-.154-.14-.07-.28m5.106-2.352v-6.496c0-.098.042-.154.154-.154h.406c.098 0 .154.056.168.154l.07.56h.028c.112-.196.308-.364.574-.532.35-.196.784-.308 1.302-.308.98 0 1.68.322 2.086.966h.028c.49-.644 1.218-.966 2.17-.966.84 0 1.456.224 1.848.658.364.434.56 1.134.56 2.086v4.032c0 .14-.084.21-.224.21h-.476q-.21 0-.21-.21v-4.088c0-.644-.126-1.106-.35-1.414-.28-.322-.7-.49-1.288-.49q-1.134 0-1.764.84c.056.364.084.742.084 1.12v4.032q0 .21-.21.21h-.476c-.154 0-.224-.07-.224-.21v-4.088q0-1.029-.42-1.47c-.28-.28-.728-.434-1.316-.434-.644 0-1.106.196-1.358.588q-.252.378-.252 1.092v4.312q0 .21-.21.21h-.49q-.21 0-.21-.21m15.135-3.36v.266c0 .7.042 1.204.14 1.54.21.742.756 1.106 1.624 1.106s1.414-.364 1.638-1.106c.084-.336.14-.84.14-1.54v-.266c0-.686-.056-1.204-.14-1.54q-.315-1.092-1.638-1.092c-.882 0-1.428.364-1.624 1.092-.098.336-.14.854-.14 1.54m4.466-.14v.56c0 1.26-.252 2.142-.728 2.618-.448.448-1.106.658-1.974.658s-1.512-.21-1.96-.658c-.49-.476-.728-1.358-.728-2.618v-.56c0-1.26.238-2.142.728-2.632.434-.42 1.092-.644 1.96-.644s1.526.224 1.974.644c.476.49.728 1.372.728 2.632m4.404 3.836c-.896 0-1.54-.238-1.918-.742h-.028v2.94c0 .112-.056.154-.14.154h-.63c-.098 0-.14-.042-.14-.154v-9.03c0-.098.042-.154.14-.154h.42c.098 0 .154.056.168.154l.084.56h.028c.392-.56 1.078-.84 2.03-.84.91 0 1.568.252 1.96.756s.602 1.288.602 2.38v.728q0 1.617-.588 2.436c-.392.546-1.05.812-1.988.812m-.112-6.328c-1.232 0-1.834.588-1.834 1.764v1.974c0 .602.154 1.05.49 1.358.322.308.784.448 1.372.448.616 0 1.078-.168 1.358-.518q.378-.462.378-2.016v-.532c0-.98-.154-1.652-.434-2.002-.28-.308-.714-.476-1.33-.476M56.86 81h-.448c-.154 0-.224-.056-.224-.182v-6.524c0-.098.056-.154.168-.154h.406c.084 0 .14.056.168.154l.056.728h.028c.308-.588.854-.882 1.624-.882H59c.112 0 .182.056.182.168v.476c0 .112-.07.154-.182.154h-.378c-.616 0-1.05.196-1.274.574-.168.28-.252.644-.252 1.106v4.2c0 .126-.084.182-.238.182m4.113-3.57v.266c0 .7.042 1.204.14 1.54.21.742.756 1.106 1.624 1.106s1.414-.364 1.638-1.106c.084-.336.14-.84.14-1.54v-.266c0-.686-.056-1.204-.14-1.54q-.315-1.092-1.638-1.092c-.882 0-1.428.364-1.624 1.092-.098.336-.14.854-.14 1.54m4.466-.14v.56c0 1.26-.252 2.142-.728 2.618-.448.448-1.106.658-1.974.658s-1.512-.21-1.96-.658c-.49-.476-.728-1.358-.728-2.618v-.56c0-1.26.238-2.142.728-2.632.434-.42 1.092-.644 1.96-.644s1.526.224 1.974.644c.476.49.728 1.372.728 2.632m5.734 2.884.099.322q.042.147 0 .21c-.028.042-.099.084-.239.14-.462.196-.993.28-1.596.28-.868 0-1.512-.196-1.932-.602-.546-.49-.812-1.414-.812-2.772v-.462c0-1.232.28-2.114.855-2.646q.672-.63 1.89-.63c.364 0 .742.07 1.106.182.363.126.671.266.895.434.07.056.07.14.014.224l-.237.392c-.056.084-.127.098-.239.028-.531-.308-1.035-.476-1.54-.476-.546 0-.966.154-1.26.434-.377.378-.56 1.106-.56 2.184v.238c0 1.064.14 1.792.448 2.156.28.364.743.532 1.415.532.448 0 .895-.084 1.358-.266.181-.07.293-.042.335.098m6.344-3.766v1.148c0 .196-.042.336-.112.42-.084.084-.21.112-.406.112h-3.612c.028.84.168 1.428.448 1.764.266.336.728.49 1.386.49.546 0 1.064-.084 1.54-.28.182-.07.294-.042.336.098l.098.322a.27.27 0 0 1-.014.21q-.042.084-.294.168c-.476.182-1.036.266-1.666.266-1.022 0-1.736-.252-2.142-.77-.42-.504-.616-1.344-.616-2.506v-.56c0-1.12.196-1.946.602-2.478.392-.532 1.078-.798 2.03-.798.798 0 1.4.196 1.806.574.406.406.616 1.008.616 1.82m-2.408-1.61c-.616 0-1.064.182-1.316.532-.266.364-.406 1.008-.406 1.96h3.01c.07 0 .126 0 .154-.028s.042-.084.042-.182v-.532c0-.602-.112-1.036-.322-1.302-.252-.294-.63-.448-1.162-.448m9.27 5.964c0 .168-.099.238-.266.238h-.392q-.169 0-.21-.042c-.029-.028-.043-.084-.043-.196v-4.088c0-.826-.224-1.372-.644-1.638-.28-.168-.657-.266-1.133-.266-.659 0-1.12.196-1.373.588q-.25.378-.251 1.092v4.34q0 .21-.252.21h-.434c-.154 0-.224-.07-.224-.21v-6.496c0-.098.041-.154.14-.154h.42c.098 0 .154.056.168.154l.07.56h.028c.112-.196.308-.364.573-.532.35-.196.784-.308 1.316-.308 1.079 0 1.806.322 2.17.938q.337.588.337 1.806zm4.785.238h-.657c-.728 0-1.26-.182-1.569-.56-.308-.364-.462-.896-.462-1.61v-3.892h-.853c-.099 0-.14-.042-.14-.154v-.28c0-.112.041-.168.14-.182l.853-.182v-1.582q0-.168.169-.168h.587c.099 0 .154.056.154.168v1.582h1.638c.085 0 .14.056.14.14v.518c0 .098-.055.14-.14.14h-1.638v3.78c0 .56.084.952.252 1.148.168.238.519.35 1.022.35h.504c.112 0 .169.056.169.154v.476c0 .112-.056.154-.168.154m2.092-3.57v.266c0 .7.042 1.204.14 1.54.21.742.756 1.106 1.624 1.106s1.414-.364 1.638-1.106c.084-.336.14-.84.14-1.54v-.266c0-.686-.056-1.204-.14-1.54q-.315-1.092-1.638-1.092c-.882 0-1.428.364-1.624 1.092-.098.336-.14.854-.14 1.54m4.466-.14v.56c0 1.26-.252 2.142-.728 2.618-.448.448-1.106.658-1.974.658s-1.512-.21-1.96-.658c-.49-.476-.728-1.358-.728-2.618v-.56c0-1.26.238-2.142.728-2.632.434-.42 1.092-.644 1.96-.644s1.526.224 1.974.644c.476.49.728 1.372.728 2.632m4.979-2.814h.63c.252 0 .42.14.476.392.406 2.016.826 3.822 1.274 5.418h.07a76 76 0 0 0 1.302-5.978c0-.084.028-.126.056-.14a.5.5 0 0 1 .196-.028h.434q.147 0 .21.042c.028.028.042.07.042.154q-.462 2.352-1.428 6.09c-.112.392-.308.574-.588.574h-.476c-.182 0-.322-.042-.406-.126-.098-.084-.168-.224-.224-.448a88 88 0 0 1-1.204-5.11h-.098a101 101 0 0 1-1.204 5.11c-.056.224-.14.364-.224.448a.6.6 0 0 1-.406.126h-.476c-.294 0-.49-.182-.588-.574q-.987-3.738-1.428-6.09c-.014-.084 0-.126.042-.154q.042-.042.21-.042h.434q.21 0 .252.168c.336 1.988.77 3.99 1.302 5.978h.07a94 94 0 0 0 1.274-5.418c.056-.252.21-.392.476-.392m9.731 6.384-.028-.476h-.028c-.308.504-.812.742-1.484.742h-.7c-.672 0-1.162-.168-1.498-.504s-.504-.77-.504-1.316v-.42q0-1.323 1.092-1.764c.308-.126.868-.196 1.68-.196h.42c.336 0 .658.014.938.042v-.798c0-.504-.14-.868-.406-1.064-.28-.196-.7-.308-1.288-.308-.49 0-.966.07-1.442.21-.224.056-.336.028-.364-.112l-.07-.294c-.056-.168 0-.266.154-.322a6.5 6.5 0 0 1 1.792-.266c.896 0 1.54.168 1.932.49s.602.84.602 1.568v4.788c0 .098-.056.14-.154.14h-.462c-.126 0-.182-.042-.182-.14m-.112-1.96v-1.162a7 7 0 0 0-.84-.042h-.784c-.588 0-.994.098-1.232.28s-.35.49-.35.924v.294c0 .42.098.728.294.91.168.168.462.252.854.252h.574c.462 0 .826-.112 1.092-.364.252-.252.392-.616.392-1.092m7.992 1.862c0 .168-.098.238-.266.238h-.392q-.168 0-.21-.042c-.028-.028-.042-.084-.042-.196v-4.088c0-.826-.224-1.372-.644-1.638-.28-.168-.658-.266-1.134-.266-.658 0-1.12.196-1.372.588q-.252.378-.252 1.092v4.34q0 .21-.252.21h-.434c-.154 0-.224-.07-.224-.21v-6.496c0-.098.042-.154.14-.154h.42c.098 0 .154.056.168.154l.07.56h.028c.112-.196.308-.364.574-.532.35-.196.784-.308 1.316-.308 1.078 0 1.806.322 2.17.938q.336.588.336 1.806zm2.952-6.468v6.594c0 .084-.042.112-.126.112h-.672c-.084 0-.112-.028-.112-.112v-6.594c0-.098.056-.154.168-.154h.574c.112 0 .168.056.168.154m.196-2.002v.084c0 .448-.21.672-.616.672h-.056c-.434 0-.644-.224-.644-.672v-.084c0-.434.21-.658.644-.658h.056c.406 0 .616.224.616.658m6.629 4.116v1.148c0 .196-.042.336-.112.42-.084.084-.21.112-.406.112h-3.612c.028.84.168 1.428.448 1.764.266.336.728.49 1.386.49.546 0 1.064-.084 1.54-.28.182-.07.294-.042.336.098l.098.322a.27.27 0 0 1-.014.21q-.042.084-.294.168c-.476.182-1.036.266-1.666.266-1.022 0-1.736-.252-2.142-.77-.42-.504-.616-1.344-.616-2.506v-.56c0-1.12.196-1.946.602-2.478.392-.532 1.078-.798 2.03-.798.798 0 1.4.196 1.806.574.406.406.616 1.008.616 1.82m-2.408-1.61c-.616 0-1.064.182-1.316.532-.266.364-.406 1.008-.406 1.96h3.01c.07 0 .126 0 .154-.028s.042-.084.042-.182v-.532c0-.602-.112-1.036-.322-1.302-.252-.294-.63-.448-1.162-.448M3.542 97.342c.7 0 1.176-.182 1.442-.546.266-.378.406-1.05.406-2.002v-.476c0-1.008-.196-1.708-.56-2.086-.294-.28-.742-.434-1.33-.434-.602 0-1.036.14-1.316.42a1.2 1.2 0 0 0-.308.532c-.056.21-.07.518-.07.91v1.918c0 .56.098.966.294 1.232.252.364.728.532 1.442.532m-1.736-8.666v3.01h.028q.525-.672 1.764-.672 1.386 0 2.058.798c.434.532.658 1.344.658 2.45v.644c0 1.176-.238 2.016-.7 2.492-.462.49-1.162.728-2.086.728-1.008 0-1.708-.238-2.114-.728-.35-.406-.518-.98-.518-1.722v-7c0-.098.056-.154.168-.154h.574c.112 0 .168.056.168.154m9.941 9.184-.028-.476h-.028c-.308.504-.812.742-1.484.742h-.7c-.672 0-1.162-.168-1.498-.504s-.504-.77-.504-1.316v-.42q0-1.323 1.092-1.764c.308-.126.868-.196 1.68-.196h.42c.336 0 .658.014.938.042v-.798c0-.504-.14-.868-.406-1.064-.28-.196-.7-.308-1.288-.308-.49 0-.966.07-1.442.21-.224.056-.336.028-.364-.112l-.07-.294c-.056-.168 0-.266.154-.322a6.5 6.5 0 0 1 1.792-.266c.896 0 1.54.168 1.932.49s.602.84.602 1.568v4.788c0 .098-.056.14-.154.14h-.462c-.126 0-.182-.042-.182-.14m-.112-1.96v-1.162a7 7 0 0 0-.84-.042h-.784c-.588 0-.994.098-1.232.28s-.35.49-.35.924v.294c0 .42.098.728.294.91.168.168.462.252.854.252h.574c.462 0 .826-.112 1.092-.364.252-.252.392-.616.392-1.092m6.914 1.456v.504c0 .098-.055.14-.14.14h-4.367c-.098 0-.14-.042-.14-.14v-.238c0-.14.084-.336.252-.616l3.08-5.082h-3.095c-.098 0-.14-.042-.14-.14v-.504c0-.084.042-.14.14-.14h4.145c.084 0 .14.056.14.14v.196c0 .168-.127.448-.364.84l-3.01 4.9h3.36c.084 0 .14.056.14.14m1.831-2.926v.266c0 .7.042 1.204.14 1.54.21.742.756 1.106 1.624 1.106s1.414-.364 1.638-1.106c.084-.336.14-.84.14-1.54v-.266c0-.686-.056-1.204-.14-1.54q-.315-1.092-1.638-1.092c-.882 0-1.428.364-1.624 1.092-.098.336-.14.854-.14 1.54m4.466-.14v.56c0 1.26-.252 2.142-.728 2.618-.448.448-1.106.658-1.974.658s-1.512-.21-1.96-.658c-.49-.476-.728-1.358-.728-2.618v-.56c0-1.26.238-2.142.728-2.632.434-.42 1.092-.644 1.96-.644s1.526.224 1.974.644c.476.49.728 1.372.728 2.632m4.979-2.814h.63c.252 0 .42.14.476.392.406 2.016.826 3.822 1.274 5.418h.07a76 76 0 0 0 1.302-5.978c0-.084.028-.126.056-.14a.5.5 0 0 1 .196-.028h.434q.147 0 .21.042c.028.028.042.07.042.154q-.462 2.352-1.428 6.09c-.112.392-.308.574-.588.574h-.476c-.182 0-.322-.042-.406-.126-.098-.084-.168-.224-.224-.448a88 88 0 0 1-1.204-5.11h-.098c-.364 1.75-.77 3.458-1.204 5.11-.056.224-.14.364-.224.448a.6.6 0 0 1-.406.126h-.476c-.294 0-.49-.182-.588-.574q-.987-3.738-1.428-6.09c-.014-.084 0-.126.042-.154q.042-.042.21-.042h.434q.21 0 .252.168c.336 1.988.77 3.99 1.302 5.978h.07a94 94 0 0 0 1.274-5.418c.056-.252.21-.392.476-.392m10.668 1.932v1.148c0 .196-.042.336-.112.42-.084.084-.21.112-.406.112h-3.612c.028.84.168 1.428.448 1.764.266.336.728.49 1.386.49.546 0 1.064-.084 1.54-.28.182-.07.294-.042.336.098l.098.322a.27.27 0 0 1-.014.21q-.042.084-.294.168c-.476.182-1.036.266-1.666.266-1.022 0-1.736-.252-2.142-.77-.42-.504-.616-1.344-.616-2.506v-.56c0-1.12.196-1.946.602-2.478.392-.532 1.078-.798 2.03-.798.798 0 1.4.196 1.806.574.406.406.616 1.008.616 1.82m-2.408-1.61c-.616 0-1.064.182-1.316.532-.266.364-.406 1.008-.406 1.96h3.01c.07 0 .126 0 .154-.028s.042-.084.042-.182v-.532c0-.602-.112-1.036-.322-1.302-.252-.294-.63-.448-1.162-.448m4.635-.434h.14c.392 0 .602.182.602.546v.336c0 .364-.21.546-.602.546h-.14c-.406 0-.602-.182-.602-.546v-.336c0-.364.196-.546.602-.546m0 5.334h.14c.392 0 .602.182.602.546v.336c0 .364-.21.546-.602.546h-.14c-.406 0-.602-.182-.602-.546v-.336c0-.364.196-.546.602-.546m11.547-3.416v.378c0 1.806-.308 3.038-.91 3.71-.448.504-1.12.756-2.002.756-.896 0-1.554-.252-2.002-.756-.616-.672-.91-1.904-.91-3.71v-.378c0-1.792.294-3.038.91-3.71.448-.504 1.106-.756 2.002-.756.882 0 1.554.252 2.002.756.602.672.91 1.918.91 3.71m-4.802.098v.182c0 1.512.168 2.534.532 3.08.28.476.742.7 1.358.7s1.064-.224 1.358-.7c.35-.546.532-1.568.532-3.08v-.182c0-1.498-.182-2.52-.532-3.08-.294-.462-.742-.7-1.358-.7s-1.078.238-1.358.7c-.364.56-.532 1.582-.532 3.08m6.853 3.318h.21c.434 0 .658.238.658.714v.266c0 .308-.07.644-.182 1.008a3.8 3.8 0 0 1-.588 1.05c-.084.112-.182.14-.294.07l-.252-.154c-.112-.056-.112-.14-.014-.266.084-.112.168-.266.28-.462.084-.168.154-.322.196-.476.028-.112.014-.196-.07-.252l-.252-.126c-.182-.084-.266-.28-.266-.574v-.266c0-.35.182-.532.574-.532m7.998-3.416v.378c0 1.806-.308 3.038-.91 3.71-.448.504-1.12.756-2.002.756-.896 0-1.554-.252-2.002-.756-.616-.672-.91-1.904-.91-3.71v-.378c0-1.792.294-3.038.91-3.71.448-.504 1.106-.756 2.002-.756.882 0 1.554.252 2.002.756.602.672.91 1.918.91 3.71m-4.802.098v.182c0 1.512.168 2.534.532 3.08.28.476.742.7 1.358.7s1.064-.224 1.358-.7c.35-.546.532-1.568.532-3.08v-.182c0-1.498-.182-2.52-.532-3.08-.294-.462-.742-.7-1.358-.7s-1.078.238-1.358.7c-.364.56-.532 1.582-.532 3.08m10.871 1.862v-.126c0-.658-.154-1.148-.434-1.484-.308-.322-.756-.49-1.372-.49s-1.162.154-1.652.462c-.126.084-.224.098-.308.056l-.21-.084c-.098-.028-.14-.112-.112-.238l.294-4.144c0-.168.098-.252.28-.252h3.668c.168 0 .252.084.252.224v.336c0 .154-.098.224-.28.224h-2.968c-.126 0-.196.07-.196.182l-.196 2.828c.434-.28.98-.42 1.652-.42.896 0 1.568.266 2.016.784.392.476.588 1.148.588 1.988v.154c0 .98-.28 1.708-.812 2.184s-1.274.7-2.254.7a4.8 4.8 0 0 1-2.184-.504c-.154-.07-.21-.168-.154-.294l.14-.378c.042-.14.14-.168.308-.098.574.336 1.204.49 1.904.49s1.218-.168 1.54-.518c.322-.336.49-.854.49-1.582m4.417 2.702 4.956-8.96a.29.29 0 0 1 .267-.168h.531c.14 0 .183.07.127.182l-4.957 8.96a.34.34 0 0 1-.308.168h-.49c-.14 0-.181-.056-.126-.182m1.82-6.72v.154c0 .966-.181 1.624-.546 1.988q-.42.42-1.217.42t-1.218-.42c-.365-.364-.547-1.022-.547-1.988v-.154c0-.952.183-1.624.547-1.988q.42-.42 1.218-.42t1.218.42c.364.364.546 1.036.546 1.988m-.853.14v-.126q0-.966-.21-1.344c-.14-.238-.364-.364-.7-.364-.337 0-.575.126-.715.364-.14.252-.196.7-.196 1.344v.126c0 .658.056 1.106.197 1.344.14.252.377.364.714.364s.56-.112.7-.364q.21-.357.21-1.344m6.621 4.2v.154c0 .966-.181 1.624-.546 1.988q-.42.42-1.218.42-.797 0-1.218-.42c-.364-.364-.546-1.022-.546-1.988v-.154c0-.952.183-1.624.547-1.988q.42-.42 1.217-.42t1.218.42c.365.364.547 1.036.547 1.988m-.853.14v-.126q0-.966-.21-1.344c-.14-.238-.364-.364-.7-.364-.337 0-.575.126-.715.364-.14.252-.196.7-.196 1.344v.126c0 .658.056 1.106.197 1.344.14.252.377.364.713.364.337 0 .56-.112.7-.364q.21-.357.21-1.344m3.027.994h.21c.434 0 .658.238.658.714v.266c0 .308-.07.644-.182 1.008a3.8 3.8 0 0 1-.588 1.05c-.084.112-.182.14-.294.07l-.252-.154c-.112-.056-.112-.14-.014-.266.084-.112.168-.266.28-.462.084-.168.154-.322.196-.476.028-.112.014-.196-.07-.252l-.252-.126c-.182-.084-.266-.28-.266-.574v-.266c0-.35.182-.532.574-.532M1.554 111.43v.266c0 .7.042 1.204.14 1.54.21.742.756 1.106 1.624 1.106s1.414-.364 1.638-1.106c.084-.336.14-.84.14-1.54v-.266c0-.686-.056-1.204-.14-1.54q-.315-1.092-1.638-1.092c-.882 0-1.428.364-1.624 1.092-.098.336-.14.854-.14 1.54m4.466-.14v.56c0 1.26-.252 2.142-.728 2.618-.448.448-1.106.658-1.974.658s-1.512-.21-1.96-.658c-.49-.476-.728-1.358-.728-2.618v-.56c0-1.26.238-2.142.728-2.632.434-.42 1.092-.644 1.96-.644s1.526.224 1.974.644c.476.49.728 1.372.728 2.632m4.405 3.836c-.896 0-1.54-.238-1.918-.742h-.028v2.94c0 .112-.056.154-.14.154h-.63c-.098 0-.14-.042-.14-.154v-9.03c0-.098.042-.154.14-.154h.42c.098 0 .154.056.168.154l.084.56h.028c.392-.56 1.078-.84 2.03-.84.91 0 1.568.252 1.96.756s.602 1.288.602 2.38v.728q0 1.617-.588 2.436c-.393.546-1.05.812-1.989.812m-.113-6.328c-1.231 0-1.833.588-1.833 1.764v1.974c0 .602.154 1.05.49 1.358.322.308.784.448 1.372.448.616 0 1.078-.168 1.358-.518q.378-.462.377-2.016v-.532c0-.98-.154-1.652-.434-2.002-.28-.308-.713-.476-1.33-.476M15.27 115h-.448c-.154 0-.224-.056-.224-.182v-6.524c0-.098.056-.154.168-.154h.406c.084 0 .14.056.168.154l.056.728h.028c.308-.588.854-.882 1.624-.882h.364c.112 0 .182.056.182.168v.476c0 .112-.07.154-.182.154h-.378c-.616 0-1.05.196-1.274.574-.168.28-.252.644-.252 1.106v4.2c0 .126-.084.182-.238.182m4.113-3.57v.266c0 .7.042 1.204.14 1.54.21.742.756 1.106 1.624 1.106s1.414-.364 1.638-1.106c.084-.336.14-.84.14-1.54v-.266c0-.686-.056-1.204-.14-1.54q-.315-1.092-1.638-1.092c-.882 0-1.428.364-1.624 1.092-.098.336-.14.854-.14 1.54m4.466-.14v.56c0 1.26-.252 2.142-.728 2.618-.448.448-1.106.658-1.974.658s-1.512-.21-1.96-.658c-.49-.476-.728-1.358-.728-2.618v-.56c0-1.26.238-2.142.728-2.632.434-.42 1.092-.644 1.96-.644s1.526.224 1.974.644c.476.49.728 1.372.728 2.632m5.735 2.884.098.322q.042.147 0 .21c-.028.042-.098.084-.238.14-.462.196-.994.28-1.596.28-.868 0-1.512-.196-1.932-.602-.546-.49-.812-1.414-.812-2.772v-.462c0-1.232.28-2.114.854-2.646q.672-.63 1.89-.63c.364 0 .742.07 1.106.182.364.126.672.266.896.434.07.056.07.14.014.224l-.238.392c-.056.084-.126.098-.238.028-.532-.308-1.036-.476-1.54-.476-.546 0-.966.154-1.26.434-.378.378-.56 1.106-.56 2.184v.238c0 1.064.14 1.792.448 2.156.28.364.742.532 1.414.532.448 0 .896-.084 1.358-.266.182-.07.294-.042.336.098m6.343-3.766v1.148c0 .196-.042.336-.112.42-.084.084-.21.112-.406.112h-3.612c.028.84.168 1.428.448 1.764.266.336.728.49 1.386.49.546 0 1.064-.084 1.54-.28.182-.07.294-.042.336.098l.098.322a.27.27 0 0 1-.014.21q-.042.084-.294.168c-.476.182-1.036.266-1.666.266-1.022 0-1.736-.252-2.142-.77-.42-.504-.616-1.344-.616-2.506v-.56c0-1.12.196-1.946.602-2.478.392-.532 1.078-.798 2.03-.798.798 0 1.4.196 1.806.574.406.406.616 1.008.616 1.82m-2.408-1.61c-.616 0-1.064.182-1.316.532-.266.364-.406 1.008-.406 1.96h3.01c.07 0 .126 0 .154-.028s.042-.084.042-.182v-.532c0-.602-.112-1.036-.322-1.302-.252-.294-.63-.448-1.162-.448m9.27 5.964c0 .168-.098.238-.266.238h-.392q-.168 0-.21-.042c-.028-.028-.042-.084-.042-.196v-4.088c0-.826-.224-1.372-.644-1.638-.28-.168-.658-.266-1.134-.266-.658 0-1.12.196-1.372.588q-.252.378-.252 1.092v4.34q0 .21-.252.21h-.434c-.154 0-.224-.07-.224-.21v-6.496c0-.098.042-.154.14-.154h.42c.098 0 .154.056.168.154l.07.56h.028c.112-.196.308-.364.574-.532.35-.196.784-.308 1.316-.308 1.078 0 1.806.322 2.17.938q.336.588.336 1.806zm4.786.238h-.658c-.728 0-1.26-.182-1.568-.56-.308-.364-.462-.896-.462-1.61v-3.892h-.854c-.098 0-.14-.042-.14-.154v-.28c0-.112.042-.168.14-.182l.854-.182v-1.582q0-.168.168-.168h.588c.098 0 .154.056.154.168v1.582h1.638c.084 0 .14.056.14.14v.518c0 .098-.056.14-.14.14h-1.638v3.78c0 .56.084.952.252 1.148.168.238.518.35 1.022.35h.504c.112 0 .168.056.168.154v.476c0 .112-.056.154-.168.154m2.091-3.57v.266c0 .7.042 1.204.14 1.54.21.742.756 1.106 1.624 1.106s1.414-.364 1.638-1.106c.084-.336.14-.84.14-1.54v-.266c0-.686-.056-1.204-.14-1.54q-.315-1.092-1.638-1.092c-.882 0-1.428.364-1.624 1.092-.098.336-.14.854-.14 1.54m4.466-.14v.56c0 1.26-.252 2.142-.728 2.618-.448.448-1.106.658-1.974.658s-1.512-.21-1.96-.658c-.49-.476-.728-1.358-.728-2.618v-.56c0-1.26.238-2.142.728-2.632.434-.42 1.092-.644 1.96-.644s1.526.224 1.974.644c.476.49.728 1.372.728 2.632m4.979-2.814h.63c.252 0 .42.14.476.392.406 2.016.826 3.822 1.274 5.418h.07a76 76 0 0 0 1.302-5.978c0-.084.028-.126.056-.14a.5.5 0 0 1 .196-.028h.434q.147 0 .21.042c.028.028.042.07.042.154q-.462 2.352-1.428 6.09c-.112.392-.308.574-.588.574h-.476c-.182 0-.322-.042-.406-.126-.098-.084-.168-.224-.224-.448a88 88 0 0 1-1.204-5.11h-.098c-.364 1.75-.77 3.458-1.204 5.11-.056.224-.14.364-.224.448a.6.6 0 0 1-.406.126h-.476c-.294 0-.49-.182-.588-.574q-.987-3.738-1.428-6.09c-.014-.084 0-.126.042-.154q.042-.042.21-.042h.434q.21 0 .252.168c.336 1.988.77 3.99 1.302 5.978h.07a94 94 0 0 0 1.274-5.418c.056-.252.21-.392.476-.392m9.731 6.384-.028-.476h-.028c-.308.504-.812.742-1.484.742h-.7c-.672 0-1.162-.168-1.498-.504s-.504-.77-.504-1.316v-.42q0-1.323 1.092-1.764c.308-.126.868-.196 1.68-.196h.42c.336 0 .658.014.938.042v-.798c0-.504-.14-.868-.406-1.064-.28-.196-.7-.308-1.288-.308-.49 0-.966.07-1.442.21-.224.056-.336.028-.364-.112l-.07-.294c-.056-.168 0-.266.154-.322a6.5 6.5 0 0 1 1.792-.266c.896 0 1.54.168 1.932.49s.602.84.602 1.568v4.788c0 .098-.056.14-.154.14h-.462c-.126 0-.182-.042-.182-.14m-.112-1.96v-1.162a7 7 0 0 0-.84-.042h-.784c-.588 0-.994.098-1.232.28s-.35.49-.35.924v.294c0 .42.098.728.294.91.168.168.462.252.854.252h.574c.462 0 .826-.112 1.092-.364.252-.252.392-.616.392-1.092m7.992 1.862c0 .168-.098.238-.266.238h-.392q-.168 0-.21-.042c-.028-.028-.042-.084-.042-.196v-4.088c0-.826-.224-1.372-.644-1.638-.28-.168-.658-.266-1.134-.266-.658 0-1.12.196-1.372.588q-.252.378-.252 1.092v4.34q0 .21-.252.21h-.434c-.154 0-.224-.07-.224-.21v-6.496c0-.098.042-.154.14-.154h.42c.098 0 .154.056.168.154l.07.56h.028c.112-.196.308-.364.574-.532.35-.196.784-.308 1.316-.308 1.078 0 1.806.322 2.17.938q.336.588.336 1.806zm2.952-6.468v6.594c0 .084-.042.112-.126.112h-.672c-.084 0-.112-.028-.112-.112v-6.594c0-.098.056-.154.168-.154h.574c.112 0 .168.056.168.154m.196-2.002v.084c0 .448-.21.672-.616.672h-.056c-.434 0-.644-.224-.644-.672v-.084c0-.434.21-.658.644-.658h.056c.406 0 .616.224.616.658m6.63 4.116v1.148c0 .196-.042.336-.112.42-.085.084-.21.112-.406.112h-3.612c.028.84.168 1.428.448 1.764.266.336.728.49 1.386.49.546 0 1.063-.084 1.54-.28.181-.07.294-.042.336.098l.098.322a.27.27 0 0 1-.015.21q-.042.084-.294.168c-.475.182-1.035.266-1.665.266-1.023 0-1.737-.252-2.142-.77-.42-.504-.617-1.344-.617-2.506v-.56c0-1.12.197-1.946.602-2.478.392-.532 1.078-.798 2.03-.798.799 0 1.4.196 1.806.574.406.406.617 1.008.617 1.82m-2.408-1.61c-.616 0-1.064.182-1.316.532-.267.364-.407 1.008-.407 1.96h3.01c.07 0 .126 0 .154-.028.029-.028.043-.084.043-.182v-.532c0-.602-.112-1.036-.323-1.302-.251-.294-.63-.448-1.161-.448M3.78 132.126c-.896 0-1.54-.238-1.918-.742h-.028v2.94c0 .112-.056.154-.14.154h-.63c-.098 0-.14-.042-.14-.154v-9.03c0-.098.042-.154.14-.154h.42c.098 0 .154.056.168.154l.084.56h.028c.392-.56 1.078-.84 2.03-.84.91 0 1.568.252 1.96.756s.602 1.288.602 2.38v.728q0 1.617-.588 2.436c-.392.546-1.05.812-1.988.812m-.112-6.328c-1.232 0-1.834.588-1.834 1.764v1.974c0 .602.154 1.05.49 1.358.322.308.784.448 1.372.448.616 0 1.078-.168 1.358-.518q.378-.462.378-2.016v-.532c0-.98-.154-1.652-.434-2.002-.28-.308-.714-.476-1.33-.476M8.624 132h-.448c-.154 0-.224-.056-.224-.182v-6.524c0-.098.056-.154.168-.154h.406c.084 0 .14.056.168.154l.056.728h.028c.308-.588.854-.882 1.624-.882h.364c.112 0 .182.056.182.168v.476c0 .112-.07.154-.182.154h-.378c-.616 0-1.05.196-1.274.574-.168.28-.252.644-.252 1.106v4.2c0 .126-.084.182-.238.182m4.114-3.57v.266c0 .7.042 1.204.14 1.54.21.742.756 1.106 1.624 1.106s1.414-.364 1.638-1.106c.084-.336.14-.84.14-1.54v-.266c0-.686-.056-1.204-.14-1.54q-.315-1.092-1.638-1.092c-.882 0-1.428.364-1.624 1.092-.098.336-.14.854-.14 1.54m4.466-.14v.56c0 1.26-.252 2.142-.728 2.618-.448.448-1.106.658-1.974.658s-1.512-.21-1.96-.658c-.49-.476-.728-1.358-.728-2.618v-.56c0-1.26.238-2.142.728-2.632.434-.42 1.092-.644 1.96-.644s1.526.224 1.974.644c.476.49.728 1.372.728 2.632m1.59 3.5v-6.496c0-.098.042-.154.154-.154h.406c.098 0 .154.056.168.154l.07.56h.028c.112-.196.308-.364.574-.532.35-.196.784-.308 1.302-.308.98 0 1.68.322 2.086.966h.028c.49-.644 1.218-.966 2.17-.966.84 0 1.456.224 1.848.658.364.434.56 1.134.56 2.086v4.032c0 .14-.084.21-.224.21h-.476q-.21 0-.21-.21v-4.088c0-.644-.126-1.106-.35-1.414-.28-.322-.7-.49-1.288-.49q-1.134 0-1.764.84c.056.364.084.742.084 1.12v4.032q0 .21-.21.21h-.476c-.154 0-.224-.07-.224-.21v-4.088q0-1.029-.42-1.47c-.28-.28-.728-.434-1.316-.434-.644 0-1.106.196-1.358.588q-.252.378-.252 1.092v4.312q0 .21-.21.21h-.49q-.21 0-.21-.21m11.84-3.36v.266c0 .7.042 1.204.14 1.54.21.742.756 1.106 1.624 1.106s1.414-.364 1.638-1.106c.084-.336.14-.84.14-1.54v-.266c0-.686-.056-1.204-.14-1.54q-.315-1.092-1.638-1.092c-.882 0-1.428.364-1.624 1.092-.098.336-.14.854-.14 1.54m4.466-.14v.56c0 1.26-.252 2.142-.728 2.618-.448.448-1.106.658-1.974.658s-1.512-.21-1.96-.658c-.49-.476-.728-1.358-.728-2.618v-.56c0-1.26.238-2.142.728-2.632.434-.42 1.092-.644 1.96-.644s1.526.224 1.974.644c.476.49.728 1.372.728 2.632m5.735 2.884.098.322q.042.147 0 .21c-.028.042-.098.084-.238.14-.462.196-.994.28-1.596.28-.868 0-1.512-.196-1.932-.602-.546-.49-.812-1.414-.812-2.772v-.462c0-1.232.28-2.114.854-2.646q.672-.63 1.89-.63c.364 0 .742.07 1.106.182.364.126.672.266.896.434.07.056.07.14.014.224l-.238.392c-.056.084-.126.098-.238.028-.532-.308-1.036-.476-1.54-.476-.546 0-.966.154-1.26.434-.378.378-.56 1.106-.56 2.184v.238c0 1.064.14 1.792.448 2.156.28.364.742.532 1.414.532.448 0 .896-.084 1.358-.266.182-.07.294-.042.336.098m2.753 2.968c.378-.742.714-1.484 1.022-2.24-.42 0-.742-.294-.938-.882a30 30 0 0 1-.784-2.408 61 61 0 0 1-.854-3.29c-.028-.112.014-.182.154-.182h.63c.084 0 .126.042.154.126.196.994.448 2.03.742 3.108.154.616.392 1.372.7 2.268.056.168.112.294.182.35.056.07.154.098.266.098h.056c.532-1.456 1.036-3.402 1.526-5.838.014-.07.07-.112.154-.112h.644c.056 0 .084.014.112.042s.028.056.028.084c-.434 2.03-.882 3.71-1.33 5.054a44 44 0 0 1-1.638 4.172c-.056.126-.154.154-.294.098l-.462-.168c-.126-.042-.154-.14-.07-.28m6.212-8.848v6.622c0 .686-.125 1.232-.35 1.624-.364.644-.994.952-1.89.952h-.504c-.111 0-.153-.056-.153-.168v-.462c0-.112.041-.168.154-.168h.475c.56 0 .953-.21 1.149-.644.14-.308.21-.7.21-1.204v-6.552c0-.098.056-.154.168-.154h.574c.111 0 .167.056.167.154m.197-2.002v.084c0 .448-.21.672-.617.672h-.056c-.433 0-.643-.224-.643-.672v-.084c0-.434.21-.658.644-.658h.055c.406 0 .616.224.616.658m7.146 8.47c0 .168-.098.238-.266.238h-.392q-.168 0-.21-.042c-.028-.028-.042-.084-.042-.196v-4.088c0-.826-.224-1.372-.644-1.638-.28-.168-.658-.266-1.134-.266-.658 0-1.12.196-1.372.588q-.252.378-.252 1.092v4.34q0 .21-.252.21h-.434c-.154 0-.224-.07-.224-.21v-6.496c0-.098.042-.154.14-.154h.42c.098 0 .154.056.168.154l.07.56h.028c.112-.196.308-.364.574-.532.35-.196.784-.308 1.316-.308 1.078 0 1.806.322 2.17.938q.336.588.336 1.806zm6.578-4.354v1.148c0 .196-.042.336-.112.42-.084.084-.21.112-.406.112h-3.612c.028.84.168 1.428.448 1.764.266.336.728.49 1.386.49.546 0 1.064-.084 1.54-.28.182-.07.294-.042.336.098l.098.322a.27.27 0 0 1-.014.21q-.042.084-.294.168c-.476.182-1.036.266-1.666.266-1.022 0-1.736-.252-2.142-.77-.42-.504-.616-1.344-.616-2.506v-.56c0-1.12.196-1.946.602-2.478.392-.532 1.078-.798 2.03-.798.798 0 1.4.196 1.806.574.406.406.616 1.008.616 1.82m-2.408-1.61c-.616 0-1.064.182-1.316.532-.266.364-.406 1.008-.406 1.96h3.01c.07 0 .126 0 .154-.028s.042-.084.042-.182v-.532c0-.602-.112-1.036-.322-1.302-.252-.294-.63-.448-1.162-.448m4.635-.434h.14c.393 0 .603.182.603.546v.336c0 .364-.21.546-.603.546h-.14c-.405 0-.601-.182-.601-.546v-.336c0-.364.196-.546.602-.546m0 5.334h.14c.393 0 .603.182.603.546v.336c0 .364-.21.546-.603.546h-.14c-.405 0-.601-.182-.601-.546v-.336c0-.364.196-.546.602-.546m9.63-1.022H71.74c-.182 0-.266-.084-.266-.28v-.238q0-.147.252-.588l3.178-5.404c.084-.14.224-.224.448-.224h.84c.224 0 .35.112.35.308v5.6h.91c.154 0 .238.07.238.196v.406c0 .154-.084.224-.238.224h-.91v2.086c0 .168-.084.238-.224.238h-.532c-.14 0-.21-.07-.21-.238zm0-.826v-5.054h-.099l-2.982 5.054zm3.969 1.848h.21c.434 0 .658.238.658.714v.266c0 .308-.07.644-.182 1.008a3.8 3.8 0 0 1-.588 1.05c-.084.112-.182.14-.294.07l-.252-.154c-.112-.056-.112-.14-.014-.266.084-.112.168-.266.28-.462.084-.168.154-.322.196-.476.028-.112.014-.196-.07-.252l-.252-.126c-.182-.084-.266-.28-.266-.574v-.266c0-.35.182-.532.574-.532m6.08-1.022H81.79c-.182 0-.266-.084-.266-.28v-.238q0-.147.252-.588l3.178-5.404c.084-.14.224-.224.448-.224h.84c.224 0 .35.112.35.308v5.6h.91c.154 0 .238.07.238.196v.406c0 .154-.084.224-.238.224h-.91v2.086c0 .168-.084.238-.224.238h-.532c-.14 0-.21-.07-.21-.238zm0-.826v-5.054h-.099l-2.982 5.054zm7.987.392v-.126c0-.658-.154-1.148-.434-1.484-.308-.322-.756-.49-1.372-.49s-1.162.154-1.652.462c-.126.084-.224.098-.308.056l-.21-.084c-.098-.028-.14-.112-.112-.238l.294-4.144c0-.168.098-.252.28-.252h3.668c.168 0 .252.084.252.224v.336c0 .154-.098.224-.28.224h-2.968c-.126 0-.196.07-.196.182l-.196 2.828c.434-.28.98-.42 1.652-.42.896 0 1.568.266 2.016.784.392.476.588 1.148.588 1.988v.154c0 .98-.28 1.708-.812 2.184s-1.274.7-2.254.7a4.8 4.8 0 0 1-2.184-.504c-.154-.07-.21-.168-.154-.294l.14-.378c.042-.14.14-.168.308-.098.574.336 1.204.49 1.904.49s1.218-.168 1.54-.518c.322-.336.49-.854.49-1.582m4.417 2.702 4.956-8.96a.29.29 0 0 1 .266-.168h.532c.14 0 .182.07.126.182l-4.956 8.96a.34.34 0 0 1-.308.168h-.49c-.14 0-.182-.056-.126-.182m1.82-6.72v.154c0 .966-.182 1.624-.546 1.988q-.42.42-1.218.42t-1.218-.42c-.364-.364-.546-1.022-.546-1.988v-.154c0-.952.182-1.624.546-1.988q.42-.42 1.218-.42t1.218.42c.364.364.546 1.036.546 1.988m-.854.14v-.126q0-.966-.21-1.344c-.14-.238-.364-.364-.7-.364s-.574.126-.714.364c-.14.252-.196.7-.196 1.344v.126c0 .658.056 1.106.196 1.344.14.252.378.364.714.364s.56-.112.7-.364q.21-.357.21-1.344m6.622 4.2v.154c0 .966-.182 1.624-.546 1.988q-.42.42-1.218.42t-1.218-.42c-.364-.364-.546-1.022-.546-1.988v-.154c0-.952.182-1.624.546-1.988q.42-.42 1.218-.42t1.218.42c.364.364.546 1.036.546 1.988m-.854.14v-.126q0-.966-.21-1.344c-.14-.238-.364-.364-.7-.364s-.574.126-.714.364c-.14.252-.196.7-.196 1.344v.126c0 .658.056 1.106.196 1.344.14.252.378.364.714.364s.56-.112.7-.364q.21-.357.21-1.344m2.762 3.878c-.112.14-.224.168-.364.098l-.336-.168c-.126-.056-.154-.154-.07-.266 1.148-1.526 1.722-3.262 1.722-5.222 0-.994-.14-1.904-.392-2.716s-.7-1.652-1.316-2.506c-.084-.112-.056-.196.098-.28l.322-.168c.112-.056.224-.028.322.084 1.316 1.694 1.974 3.542 1.974 5.558a8.8 8.8 0 0 1-.448 2.842c-.308.882-.812 1.792-1.512 2.744m4.188-2.884h.14c.392 0 .602.182.602.546v.336c0 .364-.21.546-.602.546h-.14c-.406 0-.602-.182-.602-.546v-.336c0-.364.196-.546.602-.546M1.778 144.282v.378c0 1.54.21 2.548.63 3.038.364.434.924.644 1.666.644.812 0 1.386-.238 1.75-.728.364-.504.546-1.484.546-2.954v-.378c0-.728-.042-1.33-.112-1.806s-.21-.854-.434-1.162c-.364-.476-.938-.714-1.75-.714q-1.197 0-1.722.714c-.392.504-.574 1.498-.574 2.968m5.614-.168v.728c0 1.624-.294 2.744-.854 3.388-.532.602-1.344.896-2.464.896-1.05 0-1.834-.266-2.366-.798-.644-.644-.952-1.806-.952-3.486v-.728c0-1.624.294-2.772.882-3.43.518-.574 1.33-.868 2.436-.868 1.092 0 1.904.294 2.436.868.588.658.882 1.806.882 3.43M10.178 149H9.59q-.168 0-.168-.168v-5.894h-.854c-.098 0-.14-.042-.14-.154v-.28c0-.112.042-.168.14-.182l.854-.182v-.434c0-.616.098-1.078.294-1.414.35-.588.98-.896 1.876-.896.448 0 .812.042 1.12.126q.168.063.168.21l-.07.392c-.028.126-.112.168-.238.14a4.7 4.7 0 0 0-.84-.084c-.448 0-.77.098-.98.266-.28.224-.42.644-.42 1.274v.42h1.498c.084 0 .14.056.14.14v.518c0 .098-.056.14-.14.14h-1.498v5.894c0 .112-.056.168-.154.168m7.715-4.592v1.148c0 .196-.042.336-.112.42-.084.084-.21.112-.406.112h-3.612c.028.84.168 1.428.448 1.764.266.336.728.49 1.386.49.546 0 1.064-.084 1.54-.28.182-.07.294-.042.336.098l.098.322a.27.27 0 0 1-.014.21q-.042.084-.294.168c-.476.182-1.036.266-1.666.266-1.022 0-1.736-.252-2.142-.77-.42-.504-.616-1.344-.616-2.506v-.56c0-1.12.196-1.946.602-2.478.392-.532 1.078-.798 2.03-.798.798 0 1.4.196 1.806.574.406.406.616 1.008.616 1.82m-2.408-1.61c-.616 0-1.064.182-1.316.532-.266.364-.406 1.008-.406 1.96h3.01c.07 0 .126 0 .154-.028s.042-.084.042-.182v-.532c0-.602-.112-1.036-.322-1.302-.252-.294-.63-.448-1.162-.448m4.72 6.202h-.449c-.154 0-.224-.056-.224-.182v-6.524c0-.098.056-.154.168-.154h.406c.084 0 .14.056.168.154l.056.728h.028c.308-.588.854-.882 1.624-.882h.364c.112 0 .182.056.182.168v.476c0 .112-.07.154-.182.154h-.378c-.616 0-1.05.196-1.274.574-.168.28-.252.644-.252 1.106v4.2c0 .126-.084.182-.238.182m6.697 0h-.658c-.728 0-1.26-.182-1.568-.56-.308-.364-.462-.896-.462-1.61v-3.892h-.854c-.098 0-.14-.042-.14-.154v-.28c0-.112.042-.168.14-.182l.854-.182v-1.582q0-.168.168-.168h.588c.098 0 .154.056.154.168v1.582h1.638c.084 0 .14.056.14.14v.518c0 .098-.056.14-.14.14h-1.638v3.78c0 .56.084.952.252 1.148.168.238.518.35 1.022.35h.504c.112 0 .168.056.168.154v.476c0 .112-.056.154-.168.154m5.34-.14-.028-.476h-.029c-.308.504-.812.742-1.484.742h-.7c-.672 0-1.162-.168-1.498-.504-.335-.336-.503-.77-.503-1.316v-.42q0-1.323 1.092-1.764c.308-.126.867-.196 1.68-.196h.42c.335 0 .657.014.938.042v-.798c0-.504-.14-.868-.407-1.064-.28-.196-.7-.308-1.287-.308-.49 0-.966.07-1.442.21-.224.056-.337.028-.364-.112l-.07-.294c-.056-.168 0-.266.154-.322a6.5 6.5 0 0 1 1.792-.266c.895 0 1.54.168 1.931.49.393.322.602.84.602 1.568v4.788c0 .098-.056.14-.154.14h-.462c-.126 0-.181-.042-.181-.14m-.112-1.96v-1.162a7 7 0 0 0-.84-.042h-.784c-.588 0-.994.098-1.233.28-.238.182-.35.49-.35.924v.294c0 .42.099.728.295.91.168.168.462.252.854.252h.573c.463 0 .826-.112 1.093-.364.252-.252.392-.616.392-1.092m6.652-1.47v.266c0 .7.043 1.204.14 1.54.21.742.757 1.106 1.625 1.106.867 0 1.414-.364 1.638-1.106.084-.336.14-.84.14-1.54v-.266c0-.686-.056-1.204-.14-1.54q-.316-1.092-1.639-1.092c-.882 0-1.428.364-1.623 1.092-.099.336-.14.854-.14 1.54m4.467-.14v.56c0 1.26-.253 2.142-.729 2.618-.448.448-1.106.658-1.974.658s-1.511-.21-1.96-.658c-.49-.476-.727-1.358-.727-2.618v-.56c0-1.26.237-2.142.727-2.632.434-.42 1.093-.644 1.96-.644.868 0 1.526.224 1.974.644.476.49.728 1.372.728 2.632m4.166 3.052c.7 0 1.176-.182 1.442-.546.266-.378.406-1.05.406-2.002v-.476c0-1.008-.196-1.708-.56-2.086-.294-.28-.742-.434-1.33-.434-.602 0-1.036.14-1.316.42a1.2 1.2 0 0 0-.308.532c-.056.21-.07.518-.07.91v1.918c0 .56.098.966.294 1.232.252.364.728.532 1.442.532m-1.736-8.666v3.01h.028q.525-.672 1.764-.672 1.386 0 2.058.798c.434.532.658 1.344.658 2.45v.644c0 1.176-.238 2.016-.7 2.492-.462.49-1.162.728-2.086.728-1.008 0-1.708-.238-2.114-.728-.35-.406-.518-.98-.518-1.722v-7c0-.098.056-.154.168-.154h.574c.112 0 .168.056.168.154m6.693 5.754v.266c0 .7.042 1.204.14 1.54.21.742.756 1.106 1.624 1.106s1.414-.364 1.638-1.106c.084-.336.14-.84.14-1.54v-.266c0-.686-.056-1.204-.14-1.54q-.315-1.092-1.638-1.092c-.882 0-1.428.364-1.624 1.092-.098.336-.14.854-.14 1.54m4.466-.14v.56c0 1.26-.252 2.142-.728 2.618-.448.448-1.106.658-1.974.658s-1.512-.21-1.96-.658c-.49-.476-.728-1.358-.728-2.618v-.56c0-1.26.238-2.142.728-2.632.434-.42 1.092-.644 1.96-.644s1.526.224 1.974.644c.476.49.728 1.372.728 2.632m4.979-2.814h.63c.252 0 .42.14.476.392.406 2.016.826 3.822 1.274 5.418h.07a76 76 0 0 0 1.302-5.978c0-.084.028-.126.056-.14a.5.5 0 0 1 .196-.028h.434q.147 0 .21.042c.028.028.042.07.042.154q-.462 2.352-1.428 6.09c-.112.392-.308.574-.588.574h-.476c-.182 0-.322-.042-.406-.126-.098-.084-.168-.224-.224-.448a88 88 0 0 1-1.204-5.11h-.098c-.364 1.75-.77 3.458-1.204 5.11-.056.224-.14.364-.224.448a.6.6 0 0 1-.406.126h-.476c-.294 0-.49-.182-.588-.574q-.987-3.738-1.428-6.09c-.014-.084 0-.126.042-.154q.042-.042.21-.042h.434q.21 0 .252.168c.336 1.988.77 3.99 1.302 5.978h.07a94 94 0 0 0 1.274-5.418c.056-.252.21-.392.476-.392m7.042-.182v6.594c0 .084-.042.112-.126.112h-.672c-.084 0-.112-.028-.112-.112v-6.594c0-.098.056-.154.168-.154h.574c.112 0 .168.056.168.154m.196-2.002v.084c0 .448-.21.672-.616.672h-.056c-.434 0-.644-.224-.644-.672v-.084c0-.434.21-.658.644-.658h.056c.406 0 .616.224.616.658m5.733 8.652-.014-.56h-.028c-.308.504-.812.742-1.484.742h-.7c-.672 0-1.162-.168-1.498-.504s-.504-.77-.504-1.316v-.42q0-1.323 1.092-1.764c.308-.126.868-.196 1.68-.196h.42c.336 0 .658.014.938.042v-.798c0-.504-.14-.868-.406-1.064-.28-.196-.7-.308-1.288-.308-.49 0-.966.07-1.442.21-.224.056-.336.028-.364-.112l-.07-.294c-.056-.168 0-.266.154-.322a6.5 6.5 0 0 1 1.792-.266c.896 0 1.54.168 1.932.49s.588.84.588 1.568v4.676c0 .112-.042.21-.126.28-.336.308-.588.56-.728.784a1.2 1.2 0 0 0-.224.7c0 .336.196.504.602.504.224 0 .448-.042.672-.154.098-.042.168-.014.196.07l.084.392c.028.098-.014.168-.112.21-.336.14-.672.21-1.036.21q-1.344 0-1.344-1.05 0-.546.294-.924c.196-.252.504-.532.924-.826m-.098-2.03v-1.176a7 7 0 0 0-.84-.042h-.784c-.588 0-.994.098-1.232.28s-.35.49-.35.924v.28q0 .651.294.924c.168.168.462.252.854.252h.574c.462 0 .826-.112 1.092-.364.252-.238.392-.602.392-1.078m6.9 1.442v.504c0 .098-.056.14-.14.14h-4.368c-.097 0-.14-.042-.14-.14v-.238c0-.14.085-.336.253-.616l3.08-5.082H77.18c-.098 0-.14-.042-.14-.14v-.504c0-.084.042-.14.14-.14h4.144c.085 0 .14.056.14.14v.196c0 .168-.126.448-.364.84l-3.01 4.9h3.36c.084 0 .14.056.14.14m5.622-6.216h.588c.098 0 .154.07.154.182v4.704c0 .714-.21 1.246-.616 1.596-.392.336-1.036.504-1.904.504s-1.512-.168-1.904-.504q-.63-.525-.63-1.596v-4.662c0-.14.056-.224.196-.224h.518c.126 0 .196.07.196.196v4.578c0 .518.112.882.364 1.092q.378.336 1.26.336c.588 0 1.008-.126 1.288-.392.21-.196.322-.546.322-1.036v-4.592c0-.112.056-.182.168-.182m3.713.154v6.622c0 .686-.126 1.232-.35 1.624-.364.644-.993.952-1.89.952h-.504c-.111 0-.153-.056-.153-.168v-.462c0-.112.041-.168.153-.168h.477c.56 0 .951-.21 1.147-.644.14-.308.21-.7.21-1.204v-6.552c0-.098.056-.154.168-.154h.574c.112 0 .168.056.168.154m.197-2.002v.084c0 .448-.21.672-.617.672h-.055c-.434 0-.645-.224-.645-.672v-.084c0-.434.21-.658.644-.658h.056c.407 0 .617.224.617.658m6.642 4.116v1.148c0 .196-.042.336-.112.42-.084.084-.21.112-.406.112h-3.612c.028.84.168 1.428.448 1.764.266.336.728.49 1.386.49.546 0 1.064-.084 1.54-.28.182-.07.294-.042.336.098l.098.322a.27.27 0 0 1-.014.21q-.042.084-.294.168c-.476.182-1.036.266-1.666.266-1.022 0-1.736-.252-2.142-.77-.42-.504-.616-1.344-.616-2.506v-.56c0-1.12.196-1.946.602-2.478.392-.532 1.078-.798 2.03-.798.798 0 1.4.196 1.806.574.406.406.616 1.008.616 1.82m-2.408-1.61c-.616 0-1.064.182-1.316.532-.266.364-.406 1.008-.406 1.96h3.01c.07 0 .126 0 .154-.028s.042-.084.042-.182v-.532c0-.602-.112-1.036-.322-1.302-.252-.294-.63-.448-1.162-.448M6.048 156.676v7.028c0 .728-.182 1.288-.518 1.694-.42.49-1.12.728-2.114.728-1.008 0-1.722-.224-2.142-.686-.434-.448-.644-1.288-.644-2.52v-.658c0-1.106.21-1.918.658-2.45q.651-.798 2.058-.798 1.218 0 1.764.672h.028v-3.01c0-.098.056-.154.168-.154h.574c.112 0 .168.056.168.154m-.91 6.902v-1.918c0-.588-.154-1.036-.434-1.372-.28-.322-.7-.49-1.26-.49-.63 0-1.092.168-1.372.476-.35.392-.518 1.078-.518 2.058v.476q0 1.554.504 2.1c.252.294.7.434 1.344.434.7 0 1.19-.168 1.442-.532.196-.266.294-.672.294-1.232m3.361-1.148v.266c0 .7.042 1.204.14 1.54.21.742.756 1.106 1.624 1.106s1.414-.364 1.638-1.106c.084-.336.14-.84.14-1.54v-.266c0-.686-.056-1.204-.14-1.54q-.315-1.092-1.638-1.092c-.882 0-1.428.364-1.624 1.092-.098.336-.14.854-.14 1.54m4.466-.14v.56c0 1.26-.252 2.142-.728 2.618-.448.448-1.106.658-1.974.658s-1.512-.21-1.96-.658c-.49-.476-.728-1.358-.728-2.618v-.56c0-1.26.238-2.142.728-2.632.434-.42 1.092-.644 1.96-.644s1.526.224 1.974.644c.476.49.728 1.372.728 2.632m7.196 3.052c.644 0 1.148-.154 1.484-.462.294-.28.448-.714.448-1.288v-.126c0-.7-.196-1.19-.574-1.456s-.966-.406-1.764-.406h-.42c-.14 0-.196-.056-.196-.182v-.42c0-.126.07-.196.224-.196h.322c1.484 0 2.226-.546 2.226-1.666v-.126q0-.693-.42-1.05c-.28-.238-.672-.364-1.162-.364-.56 0-1.12.112-1.666.322-.196.07-.308.042-.336-.098l-.112-.364c-.042-.126.028-.224.196-.28a5.8 5.8 0 0 1 2.016-.364q1.197 0 1.848.546c.434.364.658.882.658 1.582v.182c0 1.05-.49 1.722-1.442 2.016v.042a1.96 1.96 0 0 1 1.162.714c.308.392.462.882.462 1.484v.182c0 1.708-.98 2.562-2.912 2.562a7.6 7.6 0 0 1-2.128-.28c-.168-.042-.224-.14-.196-.28l.084-.364c.028-.14.126-.196.308-.14.588.196 1.218.28 1.89.28m8.295-.126h1.96q.21 0 .21.21v.392c0 .126-.07.182-.21.182h-4.942q-.21 0-.21-.21v-.364q0-.21.21-.21h2.016v-7.322h-.098l-1.442.868c-.126.084-.224.056-.294-.07l-.224-.364c-.084-.112-.056-.196.07-.266l1.54-.952c.168-.112.378-.168.602-.168h.476q.336 0 .336.294zm4.25-.518h.14c.392 0 .602.182.602.546v.336c0 .364-.21.546-.602.546h-.14c-.406 0-.602-.182-.602-.546v-.336c0-.364.196-.546.602-.546m7.971-3.416v.378c0 1.806-.308 3.038-.91 3.71-.448.504-1.12.756-2.002.756-.896 0-1.554-.252-2.002-.756-.616-.672-.91-1.904-.91-3.71v-.378c0-1.792.294-3.038.91-3.71.448-.504 1.106-.756 2.002-.756.882 0 1.554.252 2.002.756.602.672.91 1.918.91 3.71m-4.802.098v.182c0 1.512.168 2.534.532 3.08.28.476.742.7 1.358.7s1.064-.224 1.358-.7c.35-.546.532-1.568.532-3.08v-.182c0-1.498-.182-2.52-.532-3.08-.294-.462-.742-.7-1.358-.7s-1.078.238-1.358.7c-.364.56-.532 1.582-.532 3.08m8.8 3.962c.643 0 1.147-.154 1.483-.462.294-.28.448-.714.448-1.288v-.126c0-.7-.196-1.19-.574-1.456s-.966-.406-1.764-.406h-.42c-.14 0-.196-.056-.196-.182v-.42c0-.126.07-.196.224-.196h.322c1.484 0 2.226-.546 2.226-1.666v-.126q0-.693-.42-1.05c-.28-.238-.672-.364-1.162-.364-.56 0-1.12.112-1.666.322-.196.07-.308.042-.336-.098l-.112-.364c-.042-.126.028-.224.196-.28a5.8 5.8 0 0 1 2.016-.364q1.197 0 1.848.546c.434.364.658.882.658 1.582v.182c0 1.05-.49 1.722-1.442 2.016v.042a1.96 1.96 0 0 1 1.162.714c.308.392.462.882.462 1.484v.182c0 1.708-.98 2.562-2.912 2.562a7.6 7.6 0 0 1-2.128-.28c-.168-.042-.224-.14-.196-.28l.084-.364c.028-.14.126-.196.308-.14.588.196 1.218.28 1.89.28m5.27-.644h.14c.393 0 .603.182.603.546v.336c0 .364-.21.546-.602.546h-.14c-.406 0-.602-.182-.602-.546v-.336c0-.364.196-.546.602-.546m2.848-7.504a6.7 6.7 0 0 1 2.198-.378c.826 0 1.456.168 1.876.476q.756.588.756 1.806v.182c0 .658-.154 1.176-.434 1.54-.294.378-.798.714-1.498 1.022l-.966.42c-.546.238-.91.532-1.092.896s-.266.896-.266 1.568v.49h3.906c.112 0 .182.07.182.182v.42c0 .126-.07.182-.182.182h-4.55c-.126 0-.21-.014-.252-.07-.056-.056-.07-.14-.07-.266v-.812c0-.84.126-1.512.392-2.044.252-.518.742-.938 1.442-1.246l.966-.42c.546-.238.91-.49 1.106-.756q.294-.378.294-1.092v-.098c0-.588-.154-1.022-.462-1.274-.28-.21-.686-.322-1.218-.322-.588 0-1.218.126-1.876.35-.196.07-.308.028-.336-.112l-.112-.364c-.028-.126.028-.224.196-.28m12.398 4.088v.378c0 1.806-.308 3.038-.91 3.71-.448.504-1.12.756-2.002.756-.896 0-1.554-.252-2.002-.756-.616-.672-.91-1.904-.91-3.71v-.378c0-1.792.294-3.038.91-3.71.448-.504 1.106-.756 2.002-.756.882 0 1.554.252 2.002.756.602.672.91 1.918.91 3.71m-4.802.098v.182c0 1.512.168 2.534.532 3.08.28.476.742.7 1.358.7s1.064-.224 1.358-.7c.35-.546.532-1.568.532-3.08v-.182c0-1.498-.182-2.52-.532-3.08-.294-.462-.742-.7-1.358-.7s-1.078.238-1.358.7c-.364.56-.532 1.582-.532 3.08m6.951-4.186a6.7 6.7 0 0 1 2.198-.378c.826 0 1.456.168 1.876.476q.756.588.756 1.806v.182c0 .658-.154 1.176-.434 1.54-.294.378-.798.714-1.498 1.022l-.966.42c-.546.238-.91.532-1.092.896s-.266.896-.266 1.568v.49h3.906c.112 0 .182.07.182.182v.42c0 .126-.07.182-.182.182h-4.55c-.126 0-.21-.014-.252-.07-.056-.056-.07-.14-.07-.266v-.812c0-.84.126-1.512.392-2.044.252-.518.742-.938 1.442-1.246l.966-.42c.546-.238.91-.49 1.106-.756q.294-.378.294-1.092v-.098c0-.588-.154-1.022-.462-1.274-.28-.21-.686-.322-1.218-.322-.588 0-1.218.126-1.876.35-.196.07-.308.028-.336-.112l-.112-.364c-.028-.126.028-.224.196-.28m11.585-.182c.169.056.239.154.21.266l-.098.35c-.056.154-.154.21-.294.154a4.7 4.7 0 0 0-1.273-.182c-.77 0-1.358.28-1.764.826-.365.49-.603 1.358-.687 2.604.252-.21.56-.378.953-.518.392-.126.77-.196 1.148-.196.797 0 1.427.238 1.876.7s.686 1.106.686 1.932v.252c0 .91-.252 1.624-.743 2.142-.503.532-1.175.784-2.043.784-1.064 0-1.82-.336-2.269-1.022-.447-.672-.657-1.708-.657-3.108v-.336c0-.812.084-1.554.266-2.254q.251-1.05.755-1.596c.575-.658 1.428-.994 2.549-.994.56 0 1.021.07 1.385.196m-1.987 4.13c-.728 0-1.373.294-1.947.854v.196c0 1.064.14 1.862.42 2.38s.757.77 1.428.77c.575 0 1.023-.168 1.344-.532.308-.364.476-.882.476-1.568v-.182q0-.945-.462-1.428c-.308-.322-.728-.49-1.26-.49m4.795 3.556h.14c.392 0 .602.182.602.546v.336c0 .364-.21.546-.602.546h-.14c-.406 0-.602-.182-.602-.546v-.336c0-.364.196-.546.602-.546M3.038 183.126c-.868 0-1.638-.126-2.324-.406-.126-.042-.168-.126-.14-.238l.112-.462c.028-.14.126-.168.294-.112.644.294 1.33.434 2.03.434.644 0 1.134-.14 1.47-.434s.504-.714.504-1.274v-.154c0-.504-.112-.868-.308-1.092s-.588-.42-1.176-.56l-.938-.224c-.686-.168-1.19-.42-1.512-.784-.322-.35-.476-.84-.476-1.484v-.21c0-.742.238-1.316.714-1.708s1.134-.602 1.974-.602c.756 0 1.414.098 2.002.266.154.056.21.154.182.308l-.098.336q-.063.21-.336.126a6.1 6.1 0 0 0-1.722-.252c-1.162 0-1.736.518-1.736 1.54v.14c0 .476.112.812.336 1.022s.602.378 1.134.49l.882.21c.756.182 1.288.448 1.596.784q.462.525.462 1.554v.224c0 .854-.252 1.498-.756 1.918-.504.434-1.218.644-2.17.644m8.58-.77v.504c0 .098-.056.14-.14.14H7.11c-.098 0-.14-.042-.14-.14v-.238c0-.14.084-.336.252-.616l3.08-5.082H7.208c-.098 0-.14-.042-.14-.14v-.504c0-.084.042-.14.14-.14h4.144c.084 0 .14.056.14.14v.196c0 .168-.126.448-.364.84l-3.01 4.9h3.36c.084 0 .14.056.14.14m5.523-.182.098.322q.042.147 0 .21c-.028.042-.098.084-.238.14-.462.196-.994.28-1.596.28-.868 0-1.512-.196-1.932-.602-.546-.49-.812-1.414-.812-2.772v-.462c0-1.232.28-2.114.854-2.646q.672-.63 1.89-.63c.364 0 .742.07 1.106.182.364.126.672.266.896.434.07.056.07.14.014.224l-.238.392c-.056.084-.126.098-.238.028-.532-.308-1.036-.476-1.54-.476-.546 0-.966.154-1.26.434-.378.378-.56 1.106-.56 2.184v.238c0 1.064.14 1.792.448 2.156.28.364.742.532 1.414.532.448 0 .896-.084 1.358-.266.182-.07.294-.042.336.098m5.77.182v.504c0 .098-.056.14-.14.14h-4.368c-.098 0-.14-.042-.14-.14v-.238c0-.14.084-.336.252-.616l3.08-5.082H18.5c-.098 0-.14-.042-.14-.14v-.504c0-.084.042-.14.14-.14h4.144c.084 0 .14.056.14.14v.196c0 .168-.126.448-.364.84l-3.01 4.9h3.36c.084 0 .14.056.14.14m6.097-3.948v1.148c0 .196-.042.336-.112.42-.084.084-.21.112-.406.112h-3.612c.028.84.168 1.428.448 1.764.266.336.728.49 1.386.49.546 0 1.064-.084 1.54-.28.182-.07.294-.042.336.098l.098.322a.27.27 0 0 1-.014.21q-.042.084-.294.168c-.476.182-1.036.266-1.666.266-1.022 0-1.736-.252-2.142-.77-.42-.504-.616-1.344-.616-2.506v-.56c0-1.12.196-1.946.602-2.478.392-.532 1.078-.798 2.03-.798.798 0 1.4.196 1.806.574.406.406.616 1.008.616 1.82m-2.408-1.61c-.616 0-1.064.182-1.316.532-.266.364-.406 1.008-.406 1.96h3.01c.07 0 .126 0 .154-.028s.042-.084.042-.182v-.532c0-.602-.112-1.036-.322-1.302-.252-.294-.63-.448-1.162-.448m8.276 4.242c-.126.112-.252.21-.364.28.798.518 1.204 1.176 1.204 1.96v.154c0 .756-.252 1.302-.756 1.652-.504.364-1.204.532-2.072.532-.896 0-1.75-.182-2.534-.574-.098-.042-.14-.112-.112-.224l.154-.42q.042-.168.252-.084c.714.35 1.428.518 2.142.518.672 0 1.176-.098 1.484-.308q.462-.315.462-1.134v-.112c0-.728-.35-1.288-1.036-1.652-.224.056-.49.07-.826.07-.798 0-1.414-.168-1.862-.518-.49-.42-.728-1.092-.728-2.044v-.574c0-.966.238-1.652.728-2.058.392-.322 1.022-.49 1.862-.49.196 0 .35.014.448.014.224-.672.756-1.022 1.568-1.022h.336c.126 0 .196.07.196.196v.546c0 .014-.014.028-.014.042-.014.014-.028.028-.056.028-.028.014-.07.014-.098.014h-.42c-.364 0-.588.126-.7.35.252.098.462.21.616.322.476.406.728 1.092.728 2.058v.574c0 .826-.21 1.456-.602 1.904m-3.64-2.38v.364c0 .448.042.826.154 1.106.196.574.7.854 1.484.854.798 0 1.302-.28 1.512-.854.084-.266.14-.644.14-1.12v-.35c0-.476-.056-.84-.14-1.092-.112-.308-.294-.518-.532-.644s-.56-.196-.98-.196c-.406 0-.728.07-.966.196s-.406.336-.518.644c-.112.28-.154.644-.154 1.092m6.63.77v.266c0 .7.042 1.204.14 1.54.21.742.757 1.106 1.624 1.106s1.414-.364 1.639-1.106c.084-.336.14-.84.14-1.54v-.266c0-.686-.056-1.204-.14-1.54q-.315-1.092-1.639-1.092c-.882 0-1.428.364-1.623 1.092-.099.336-.14.854-.14 1.54m4.467-.14v.56c0 1.26-.252 2.142-.728 2.618-.448.448-1.106.658-1.974.658s-1.513-.21-1.96-.658c-.49-.476-.728-1.358-.728-2.618v-.56c0-1.26.238-2.142.727-2.632.434-.42 1.093-.644 1.96-.644.868 0 1.526.224 1.974.644.477.49.729 1.372.729 2.632m-4.047-5.026 2.38-1.162c.183-.084.309-.042.379.098l.237.49c.057.14-.013.252-.181.336l-2.395.91c-.181.07-.294.042-.35-.084l-.14-.308c-.056-.126-.041-.224.07-.28m6.589-.588v3.612l1.386-.91c.154-.084.238-.042.238.154v.49c0 .168-.07.308-.21.392l-1.414.938v2.814q0 .735.126.882c.07.112.238.154.504.154h.378c.112 0 .168.056.168.154v.476c0 .112-.056.168-.14.168h-.532c-.504 0-.868-.098-1.078-.322-.224-.224-.336-.658-.336-1.288v-2.436l-.966.63c-.168.098-.238.042-.238-.154v-.49a.45.45 0 0 1 .21-.392l.994-.658v-4.214c0-.098.056-.154.168-.154h.574c.112 0 .168.056.168.154m3.457 11.466c.378-.742.714-1.484 1.022-2.24-.42 0-.742-.294-.938-.882a30 30 0 0 1-.784-2.408 61 61 0 0 1-.854-3.29c-.028-.112.014-.182.154-.182h.63c.084 0 .126.042.154.126.196.994.448 2.03.742 3.108.154.616.392 1.372.7 2.268.056.168.112.294.182.35.056.07.154.098.266.098h.056c.532-1.456 1.036-3.402 1.526-5.838.014-.07.07-.112.154-.112h.644c.056 0 .084.014.112.042s.028.056.028.084c-.434 2.03-.882 3.71-1.33 5.054a44 44 0 0 1-1.638 4.172c-.056.126-.154.154-.294.098l-.462-.168c-.126-.042-.154-.14-.07-.28m9.494-8.848v6.594c0 .084-.042.112-.126.112h-.672c-.084 0-.112-.028-.112-.112v-6.594c0-.098.056-.154.168-.154h.574c.112 0 .168.056.168.154m.196-2.002v.084c0 .448-.21.672-.616.672h-.056c-.434 0-.644-.224-.644-.672v-.084c0-.434.21-.658.644-.658h.056c.406 0 .616.224.616.658M63.9 183h-.448c-.154 0-.224-.056-.224-.182v-6.524c0-.098.056-.154.168-.154h.406c.084 0 .14.056.168.154l.056.728h.028c.308-.588.854-.882 1.624-.882h.364c.112 0 .182.056.182.168v.476c0 .112-.07.154-.182.154h-.378c-.616 0-1.05.196-1.274.574-.168.28-.252.644-.252 1.106v4.2c0 .126-.084.182-.238.182m8.284-4.592v1.148c0 .196-.042.336-.112.42-.084.084-.21.112-.406.112h-3.612c.028.84.168 1.428.448 1.764.266.336.728.49 1.386.49.546 0 1.064-.084 1.54-.28.182-.07.294-.042.336.098l.098.322a.27.27 0 0 1-.014.21q-.042.084-.294.168c-.476.182-1.036.266-1.666.266-1.022 0-1.736-.252-2.142-.77-.42-.504-.616-1.344-.616-2.506v-.56c0-1.12.196-1.946.602-2.478.392-.532 1.078-.798 2.03-.798.798 0 1.4.196 1.806.574.406.406.616 1.008.616 1.82m-2.408-1.61c-.616 0-1.064.182-1.316.532-.266.364-.406 1.008-.406 1.96h3.01c.07 0 .126 0 .154-.028s.042-.084.042-.182v-.532c0-.602-.112-1.036-.322-1.302-.252-.294-.63-.448-1.162-.448m8.275 4.242c-.126.112-.252.21-.364.28.798.518 1.204 1.176 1.204 1.96v.154c0 .756-.252 1.302-.756 1.652-.504.364-1.204.532-2.072.532-.896 0-1.75-.182-2.534-.574-.098-.042-.14-.112-.112-.224l.154-.42q.042-.168.252-.084c.714.35 1.428.518 2.142.518.672 0 1.176-.098 1.484-.308q.462-.315.462-1.134v-.112c0-.728-.35-1.288-1.036-1.652-.224.056-.49.07-.826.07-.798 0-1.414-.168-1.862-.518-.49-.42-.728-1.092-.728-2.044v-.574c0-.966.238-1.652.728-2.058.392-.322 1.022-.49 1.862-.49.196 0 .35.014.448.014.224-.672.756-1.022 1.568-1.022h.336c.126 0 .196.07.196.196v.546c0 .014-.014.028-.014.042-.014.014-.028.028-.056.028-.028.014-.07.014-.098.014h-.42c-.364 0-.588.126-.7.35.252.098.462.21.616.322.476.406.728 1.092.728 2.058v.574c0 .826-.21 1.456-.602 1.904m-3.64-2.38v.364c0 .448.042.826.154 1.106.196.574.7.854 1.484.854.798 0 1.302-.28 1.512-.854.084-.266.14-.644.14-1.12v-.35c0-.476-.056-.84-.14-1.092-.112-.308-.294-.518-.532-.644s-.56-.196-.98-.196c-.406 0-.728.07-.966.196s-.406.336-.518.644c-.112.28-.154.644-.154 1.092m10.285-2.52h.588c.098 0 .154.07.154.182v4.704c0 .714-.21 1.246-.616 1.596-.392.336-1.036.504-1.904.504s-1.512-.168-1.904-.504q-.63-.525-.63-1.596v-4.662c0-.14.056-.224.196-.224h.518c.126 0 .196.07.196.196v4.578c0 .518.112.882.364 1.092q.378.336 1.26.336c.588 0 1.008-.126 1.288-.392.21-.196.322-.546.322-1.036v-4.592c0-.112.056-.182.168-.182m3.56-2.464v7.49q0 .735.126.882c.07.112.238.154.504.154h.378c.112 0 .168.056.168.154v.476c0 .112-.056.168-.14.168h-.532c-.504 0-.868-.098-1.078-.322-.224-.224-.336-.658-.336-1.288v-7.714c0-.098.056-.154.168-.154h.574c.112 0 .168.056.168.154m6.411 9.184-.028-.476h-.028c-.308.504-.812.742-1.484.742h-.7c-.672 0-1.162-.168-1.498-.504s-.504-.77-.504-1.316v-.42q0-1.323 1.092-1.764c.308-.126.868-.196 1.68-.196h.42c.336 0 .658.014.938.042v-.798c0-.504-.14-.868-.406-1.064-.28-.196-.7-.308-1.288-.308-.49 0-.966.07-1.442.21-.224.056-.336.028-.364-.112l-.07-.294c-.056-.168 0-.266.154-.322a6.5 6.5 0 0 1 1.792-.266c.896 0 1.54.168 1.932.49s.602.84.602 1.568v4.788c0 .098-.056.14-.154.14h-.462c-.126 0-.182-.042-.182-.14m-.112-1.96v-1.162a7 7 0 0 0-.84-.042h-.784c-.588 0-.994.098-1.232.28s-.35.49-.35.924v.294c0 .42.098.728.294.91.168.168.462.252.854.252h.574c.462 0 .826-.112 1.092-.364.252-.252.392-.616.392-1.092m2.77 1.89v-6.496c0-.098.042-.154.154-.154h.406c.098 0 .154.056.168.154l.07.56h.028c.112-.196.308-.364.574-.532.35-.196.784-.308 1.302-.308.98 0 1.68.322 2.086.966h.028c.49-.644 1.218-.966 2.17-.966.84 0 1.456.224 1.848.658.364.434.56 1.134.56 2.086v4.032c0 .14-.084.21-.224.21h-.476q-.21 0-.21-.21v-4.088c0-.644-.126-1.106-.35-1.414-.28-.322-.7-.49-1.288-.49q-1.134 0-1.764.84c.056.364.084.742.084 1.12v4.032q0 .21-.21.21h-.476c-.154 0-.224-.07-.224-.21v-4.088q0-1.029-.42-1.47c-.28-.28-.728-.434-1.316-.434-.644 0-1.106.196-1.358.588q-.252.378-.252 1.092v4.312q0 .21-.21.21h-.49q-.21 0-.21-.21m12.344-6.496v6.594c0 .084-.042.112-.126.112h-.672c-.084 0-.112-.028-.112-.112v-6.594c0-.098.056-.154.168-.154h.574c.112 0 .168.056.168.154m.196-2.002v.084c0 .448-.21.672-.616.672h-.056c-.434 0-.644-.224-.644-.672v-.084c0-.434.21-.658.644-.658h.056c.406 0 .616.224.616.658m7.134 8.47c0 .168-.098.238-.266.238h-.392q-.168 0-.21-.042c-.028-.028-.042-.084-.042-.196v-4.088c0-.826-.224-1.372-.644-1.638-.28-.168-.658-.266-1.134-.266-.658 0-1.12.196-1.372.588q-.252.378-.252 1.092v4.34q0 .21-.252.21h-.434c-.154 0-.224-.07-.224-.21v-6.496c0-.098.042-.154.14-.154h.42c.098 0 .154.056.168.154l.07.56h.028c.112-.196.308-.364.574-.532.35-.196.784-.308 1.316-.308 1.078 0 1.806.322 2.17.938q.336.588.336 1.806zm2.448-6.398h.14c.392 0 .602.182.602.546v.336c0 .364-.21.546-.602.546h-.14c-.406 0-.602-.182-.602-.546v-.336c0-.364.196-.546.602-.546m0 5.334h.14c.392 0 .602.182.602.546v.336c0 .364-.21.546-.602.546h-.14c-.406 0-.602-.182-.602-.546v-.336c0-.364.196-.546.602-.546M5.208 193.14h.588c.098 0 .154.07.154.182v4.704c0 .714-.21 1.246-.616 1.596-.392.336-1.036.504-1.904.504s-1.512-.168-1.904-.504q-.63-.525-.63-1.596v-4.662c0-.14.056-.224.196-.224h.518c.126 0 .196.07.196.196v4.578c0 .518.112.882.364 1.092q.378.336 1.26.336c.588 0 1.008-.126 1.288-.392.21-.196.322-.546.322-1.036v-4.592c0-.112.056-.182.168-.182m7.83 6.622c0 .168-.098.238-.266.238h-.392q-.168 0-.21-.042c-.028-.028-.042-.084-.042-.196v-4.088c0-.826-.224-1.372-.644-1.638-.28-.168-.658-.266-1.134-.266-.658 0-1.12.196-1.372.588q-.252.378-.252 1.092v4.34q0 .21-.252.21H8.04c-.154 0-.224-.07-.224-.21v-6.496c0-.098.042-.154.14-.154h.42c.098 0 .154.056.168.154l.07.56h.028c.112-.196.308-.364.574-.532.35-.196.784-.308 1.316-.308 1.078 0 1.806.322 2.17.938q.336.588.336 1.806zm2.952-6.468v6.594c0 .084-.042.112-.126.112h-.672c-.084 0-.112-.028-.112-.112v-6.594c0-.098.056-.154.168-.154h.574c.112 0 .168.056.168.154m.196-2.002v.084c0 .448-.21.672-.616.672h-.056c-.434 0-.644-.224-.644-.672v-.084c0-.434.21-.658.644-.658h.056c.406 0 .616.224.616.658m6.055 7.882.098.322q.042.147 0 .21c-.028.042-.098.084-.238.14-.462.196-.994.28-1.596.28-.868 0-1.512-.196-1.932-.602-.546-.49-.812-1.414-.812-2.772v-.462c0-1.232.28-2.114.854-2.646q.672-.63 1.89-.63c.364 0 .742.07 1.106.182.364.126.672.266.896.434.07.056.07.14.014.224l-.238.392c-.056.084-.126.098-.238.028-.532-.308-1.036-.476-1.54-.476-.546 0-.966.154-1.26.434-.378.378-.56 1.106-.56 2.184v.238c0 1.064.14 1.792.448 2.156.28.364.742.532 1.414.532.448 0 .896-.084 1.358-.266.182-.07.294-.042.336.098m2.297.826h-.448c-.154 0-.224-.056-.224-.182v-6.524c0-.098.056-.154.168-.154h.406c.084 0 .14.056.168.154l.056.728h.028c.308-.588.854-.882 1.624-.882h.364c.112 0 .182.056.182.168v.476c0 .112-.07.154-.182.154h-.378c-.616 0-1.05.196-1.274.574-.168.28-.252.644-.252 1.106v4.2c0 .126-.084.182-.238.182m8.285-4.592v1.148c0 .196-.042.336-.112.42-.084.084-.21.112-.406.112h-3.612c.028.84.168 1.428.448 1.764.266.336.728.49 1.386.49.546 0 1.064-.084 1.54-.28.182-.07.294-.042.336.098l.098.322a.27.27 0 0 1-.014.21q-.042.084-.294.168c-.476.182-1.036.266-1.666.266-1.022 0-1.736-.252-2.142-.77-.42-.504-.616-1.344-.616-2.506v-.56c0-1.12.196-1.946.602-2.478.392-.532 1.078-.798 2.03-.798.798 0 1.4.196 1.806.574.406.406.616 1.008.616 1.82m-2.408-1.61c-.616 0-1.064.182-1.316.532-.266.364-.406 1.008-.406 1.96h3.01c.07 0 .126 0 .154-.028s.042-.084.042-.182v-.532c0-.602-.112-1.036-.322-1.302-.252-.294-.63-.448-1.162-.448m9.13-3.122v7.028c0 .728-.183 1.288-.519 1.694-.42.49-1.12.728-2.114.728-1.008 0-1.722-.224-2.142-.686-.434-.448-.644-1.288-.644-2.52v-.658c0-1.106.21-1.918.658-2.45q.651-.798 2.058-.798 1.218 0 1.764.672h.028v-3.01c0-.098.056-.154.168-.154h.574c.112 0 .168.056.168.154m-.91 6.902v-1.918c0-.588-.155-1.036-.435-1.372-.28-.322-.7-.49-1.26-.49-.63 0-1.092.168-1.372.476-.35.392-.518 1.078-.518 2.058v.476q0 1.554.504 2.1c.252.294.7.434 1.344.434.7 0 1.19-.168 1.442-.532.196-.266.294-.672.294-1.232m3.864-4.284v6.594c0 .084-.042.112-.126.112h-.672c-.084 0-.112-.028-.112-.112v-6.594c0-.098.056-.154.168-.154h.574c.112 0 .168.056.168.154m.196-2.002v.084c0 .448-.21.672-.616.672h-.056c-.434 0-.644-.224-.644-.672v-.084c0-.434.21-.658.644-.658h.056c.406 0 .616.224.616.658M47.533 200h-.658c-.728 0-1.26-.182-1.568-.56-.308-.364-.462-.896-.462-1.61v-3.892h-.854c-.098 0-.14-.042-.14-.154v-.28c0-.112.042-.168.14-.182l.854-.182v-1.582q0-.168.168-.168h.588c.098 0 .154.056.154.168v1.582h1.638c.084 0 .14.056.14.14v.518c0 .098-.056.14-.14.14h-1.638v3.78c0 .56.084.952.252 1.148.168.238.518.35 1.022.35h.504c.112 0 .168.056.168.154v.476c0 .112-.056.154-.168.154m1.811-1.302h.14c.392 0 .602.182.602.546v.336c0 .364-.21.546-.602.546h-.14c-.406 0-.602-.182-.602-.546v-.336c0-.364.196-.546.602-.546m5.2 1.428c-.896 0-1.54-.238-1.918-.742h-.028v2.94c0 .112-.056.154-.14.154h-.63c-.098 0-.14-.042-.14-.154v-9.03c0-.098.042-.154.14-.154h.42c.098 0 .154.056.168.154l.084.56h.028c.392-.56 1.078-.84 2.03-.84.91 0 1.568.252 1.96.756s.602 1.288.602 2.38v.728q0 1.617-.588 2.436c-.392.546-1.05.812-1.988.812m-.112-6.328c-1.232 0-1.834.588-1.834 1.764v1.974c0 .602.154 1.05.49 1.358.322.308.784.448 1.372.448.616 0 1.078-.168 1.358-.518q.378-.462.378-2.016v-.532c0-.98-.154-1.652-.434-2.002-.28-.308-.714-.476-1.33-.476m5.236-3.122v7.49q0 .735.126.882c.07.112.238.154.504.154h.378c.112 0 .168.056.168.154v.476c0 .112-.056.168-.14.168h-.532c-.504 0-.868-.098-1.078-.322-.224-.224-.336-.658-.336-1.288v-7.714c0-.098.056-.154.168-.154h.574c.112 0 .168.056.168.154m2.883 8.022h.14c.392 0 .602.182.602.546v.336c0 .364-.21.546-.602.546h-.14c-.406 0-.602-.182-.602-.546v-.336c0-.364.196-.546.602-.546M3.64 217h-.574c-.14 0-.196-.07-.196-.21v-8.064H.49q-.21 0-.21-.21v-.392c0-.112.07-.182.21-.182h5.726q.21 0 .21.21v.364q0 .21-.21.21h-2.38v8.064c0 .14-.07.21-.196.21m3.602-3.57v.266c0 .7.042 1.204.14 1.54.21.742.755 1.106 1.624 1.106.867 0 1.413-.364 1.637-1.106.084-.336.14-.84.14-1.54v-.266c0-.686-.056-1.204-.14-1.54q-.315-1.092-1.638-1.092c-.882 0-1.428.364-1.624 1.092-.098.336-.14.854-.14 1.54m4.466-.14v.56c0 1.26-.252 2.142-.729 2.618-.447.448-1.105.658-1.973.658s-1.513-.21-1.96-.658c-.49-.476-.729-1.358-.729-2.618v-.56c0-1.26.239-2.142.728-2.632.434-.42 1.092-.644 1.96-.644s1.526.224 1.974.644c.477.49.729 1.372.729 2.632m10.107 3.472c0 .168-.098.238-.266.238h-.392q-.168 0-.21-.042c-.028-.028-.042-.084-.042-.196v-4.088c0-.826-.224-1.372-.644-1.638-.28-.168-.658-.266-1.134-.266-.658 0-1.12.196-1.372.588q-.252.378-.252 1.092v4.34q0 .21-.252.21h-.434c-.154 0-.224-.07-.224-.21v-6.496c0-.098.042-.154.14-.154h.42c.098 0 .154.056.168.154l.07.56h.028c.112-.196.308-.364.574-.532.35-.196.784-.308 1.316-.308 1.078 0 1.806.322 2.17.938q.336.588.336 1.806zm2.952-6.468v6.594c0 .084-.042.112-.126.112h-.672c-.084 0-.112-.028-.112-.112v-6.594c0-.098.056-.154.168-.154h.574c.112 0 .168.056.168.154m.196-2.002v.084c0 .448-.21.672-.616.672h-.056c-.434 0-.644-.224-.644-.672v-.084c0-.434.21-.658.644-.658h.056c.406 0 .616.224.616.658m6.63 4.116v1.148c0 .196-.043.336-.113.42-.084.084-.21.112-.406.112h-3.612c.028.84.168 1.428.448 1.764.266.336.728.49 1.386.49.546 0 1.064-.084 1.54-.28.182-.07.294-.042.336.098l.098.322a.27.27 0 0 1-.014.21q-.042.084-.294.168c-.476.182-1.036.266-1.666.266-1.022 0-1.736-.252-2.142-.77-.42-.504-.616-1.344-.616-2.506v-.56c0-1.12.196-1.946.602-2.478.392-.532 1.078-.798 2.03-.798.798 0 1.4.196 1.806.574.406.406.616 1.008.616 1.82m-2.409-1.61c-.616 0-1.064.182-1.316.532-.266.364-.406 1.008-.406 1.96h3.01c.07 0 .126 0 .154-.028s.042-.084.042-.182v-.532c0-.602-.112-1.036-.322-1.302-.252-.294-.63-.448-1.162-.448m8.449-.504v6.622c0 .686-.127 1.232-.35 1.624-.364.644-.995.952-1.89.952h-.505c-.111 0-.154-.056-.154-.168v-.462c0-.112.042-.168.154-.168h.477c.56 0 .951-.21 1.148-.644.14-.308.21-.7.21-1.204v-6.552c0-.098.056-.154.168-.154h.574c.111 0 .167.056.167.154m.195-2.002v.084c0 .448-.21.672-.616.672h-.056c-.434 0-.643-.224-.643-.672v-.084c0-.434.21-.658.644-.658h.056c.405 0 .615.224.615.658m6.643 4.116v1.148c0 .196-.042.336-.112.42-.084.084-.21.112-.406.112h-3.612c.028.84.168 1.428.448 1.764.266.336.728.49 1.386.49.546 0 1.064-.084 1.54-.28.182-.07.294-.042.336.098l.098.322a.27.27 0 0 1-.014.21q-.042.084-.294.168c-.476.182-1.036.266-1.666.266-1.022 0-1.736-.252-2.142-.77-.42-.504-.616-1.344-.616-2.506v-.56c0-1.12.196-1.946.602-2.478.392-.532 1.078-.798 2.03-.798.798 0 1.4.196 1.806.574.406.406.616 1.008.616 1.82m-2.408-1.61c-.616 0-1.064.182-1.316.532-.266.364-.406 1.008-.406 1.96h3.01c.07 0 .126 0 .154-.028s.042-.084.042-.182v-.532c0-.602-.112-1.036-.322-1.302-.252-.294-.63-.448-1.162-.448m5.755 6.328c-.741 0-1.371-.112-1.904-.336-.14-.056-.196-.126-.168-.238l.112-.406c.029-.14.127-.196.267-.14a4.6 4.6 0 0 0 1.694.336c.56 0 .951-.084 1.19-.28.224-.182.35-.476.35-.896v-.084c0-.462-.127-.77-.379-.938-.153-.084-.475-.182-.98-.294l-.392-.07c-.475-.084-.84-.196-1.091-.35-.477-.266-.715-.756-.715-1.456v-.14c0-1.204.742-1.82 2.24-1.82.575 0 1.093.07 1.569.196q.252.084.21.252l-.084.364c-.056.168-.154.238-.323.182a5.2 5.2 0 0 0-1.386-.21c-.532 0-.91.098-1.105.28-.197.168-.28.42-.28.728v.098c0 .308.07.546.224.686q.252.273 1.092.42l.363.07c.784.168 1.288.392 1.526.672.224.308.35.728.35 1.232v.14c0 .56-.14.994-.392 1.302-.377.476-1.035.7-1.987.7m6.838-.126h-.658c-.728 0-1.26-.182-1.568-.56-.308-.364-.462-.896-.462-1.61v-3.892h-.854c-.098 0-.14-.042-.14-.154v-.28c0-.112.042-.168.14-.182l.854-.182v-1.582q0-.168.168-.168h.588c.098 0 .154.056.154.168v1.582h1.638c.084 0 .14.056.14.14v.518c0 .098-.056.14-.14.14h-1.638v3.78c0 .56.084.952.252 1.148.168.238.518.35 1.022.35h.504c.112 0 .168.056.168.154v.476c0 .112-.056.154-.168.154m5.386-3.57v.266c0 .7.042 1.204.14 1.54.21.742.756 1.106 1.624 1.106s1.414-.364 1.638-1.106c.084-.336.14-.84.14-1.54v-.266c0-.686-.056-1.204-.14-1.54q-.315-1.092-1.638-1.092c-.882 0-1.428.364-1.624 1.092-.098.336-.14.854-.14 1.54m4.466-.14v.56c0 1.26-.252 2.142-.728 2.618-.448.448-1.106.658-1.974.658s-1.512-.21-1.96-.658c-.49-.476-.728-1.358-.728-2.618v-.56c0-1.26.238-2.142.728-2.632.434-.42 1.092-.644 1.96-.644s1.526.224 1.974.644c.476.49.728 1.372.728 2.632m2.655 3.71h-.588q-.168 0-.168-.168v-5.894h-.854c-.098 0-.14-.042-.14-.154v-.28c0-.112.042-.168.14-.182l.854-.182v-.434c0-.616.098-1.078.294-1.414.35-.588.98-.896 1.876-.896.448 0 .812.042 1.12.126q.168.063.168.21l-.07.392c-.028.126-.112.168-.238.14a4.7 4.7 0 0 0-.84-.084c-.448 0-.77.098-.98.266-.28.224-.42.644-.42 1.274v.42h1.498c.084 0 .14.056.14.14v.518c0 .098-.056.14-.14.14h-1.498v5.894c0 .112-.056.168-.154.168m7.714-4.592v1.148c0 .196-.042.336-.112.42-.084.084-.21.112-.406.112h-3.612c.028.84.168 1.428.448 1.764.266.336.728.49 1.386.49.546 0 1.064-.084 1.54-.28.182-.07.294-.042.336.098l.098.322a.27.27 0 0 1-.014.21q-.042.084-.294.168c-.476.182-1.036.266-1.666.266-1.022 0-1.736-.252-2.142-.77-.42-.504-.616-1.344-.616-2.506v-.56c0-1.12.196-1.946.602-2.478.392-.532 1.078-.798 2.03-.798.798 0 1.4.196 1.806.574.406.406.616 1.008.616 1.82m-2.408-1.61c-.616 0-1.064.182-1.316.532-.266.364-.406 1.008-.406 1.96h3.01c.07 0 .126 0 .154-.028s.042-.084.042-.182v-.532c0-.602-.112-1.036-.322-1.302-.252-.294-.63-.448-1.162-.448M77.19 217h-.448c-.154 0-.224-.056-.224-.182v-6.524c0-.098.056-.154.168-.154h.406c.084 0 .14.056.168.154l.056.728h.028c.308-.588.854-.882 1.624-.882h.364c.112 0 .182.056.182.168v.476c0 .112-.07.154-.182.154h-.378c-.616 0-1.05.196-1.274.574-.168.28-.252.644-.252 1.106v4.2c0 .126-.084.182-.238.182m6.697 0h-.658c-.728 0-1.26-.182-1.568-.56-.308-.364-.462-.896-.462-1.61v-3.892h-.854c-.098 0-.14-.042-.14-.154v-.28c0-.112.042-.168.14-.182l.854-.182v-1.582q0-.168.168-.168h.588c.098 0 .154.056.154.168v1.582h1.638c.084 0 .14.056.14.14v.518c0 .098-.056.14-.14.14h-1.638v3.78c0 .56.084.952.252 1.148.168.238.518.35 1.022.35h.504c.112 0 .168.056.168.154v.476c0 .112-.056.154-.168.154m5.34-.14-.028-.476h-.028c-.308.504-.812.742-1.484.742h-.7c-.672 0-1.162-.168-1.498-.504s-.504-.77-.504-1.316v-.42q0-1.323 1.092-1.764c.308-.126.868-.196 1.68-.196h.42c.336 0 .658.014.938.042v-.798c0-.504-.14-.868-.406-1.064-.28-.196-.7-.308-1.288-.308-.49 0-.966.07-1.442.21-.224.056-.336.028-.364-.112l-.07-.294c-.056-.168 0-.266.154-.322a6.5 6.5 0 0 1 1.792-.266c.896 0 1.54.168 1.932.49s.602.84.602 1.568v4.788c0 .098-.056.14-.154.14h-.462c-.126 0-.182-.042-.182-.14m-.112-1.96v-1.162a7 7 0 0 0-.84-.042h-.784c-.588 0-.994.098-1.232.28s-.35.49-.35.924v.294c0 .42.098.728.294.91.168.168.462.252.854.252h.574c.462 0 .826-.112 1.092-.364.252-.252.392-.616.392-1.092m3.078.798h.14c.392 0 .602.182.602.546v.336c0 .364-.21.546-.602.546h-.14c-.406 0-.602-.182-.602-.546v-.336c0-.364.196-.546.602-.546"/></svg>