<svg xmlns="http://www.w3.org/2000/svg" fill="none" viewBox="0 0 120 20"><path fill="#fff" d="M3.587 10.815v2.176c0 .391.068.663.238.816.136.153.391.221.765.221h.153c.391 0 .663-.102.833-.34q.204-.306.204-1.479v-.731c0-.85-.085-1.377-.221-1.547-.153-.17-.442-.272-.85-.272h-.068c-.391 0-.663.085-.833.255-.153.153-.221.459-.221.901m0-2.839h.034q.74-.459 1.938-.459h.153c1.02 0 1.768.306 2.227.918.374.527.578 1.462.578 2.805v1.224c0 1.36-.289 2.312-.867 2.839-.612.578-1.581.85-2.907.85h-.34c-1.394 0-2.346-.272-2.856-.833-.459-.493-.68-1.292-.68-2.414V4.984c0-.17.034-.289.119-.374.068-.068.221-.119.442-.119h1.581c.204 0 .357.051.442.119a.5.5 0 0 1 .136.374zm10.44 5.984h.187c.578 0 1.19-.068 1.802-.221.17-.034.272-.051.323-.051.17 0 .272.102.306.289l.136.85c.034.238.068.391.068.459 0 .204-.153.357-.442.459a7.8 7.8 0 0 1-2.567.408h-.323q-2.091 0-2.958-.867a2.44 2.44 0 0 1-.68-1.156c-.119-.442-.17-1.037-.17-1.768v-.952c0-1.479.34-2.516 1.02-3.128.578-.51 1.462-.765 2.67-.765h.237c1.19 0 2.057.289 2.567.85.544.612.816 1.615.816 3.043v.884c0 .323-.17.476-.493.476h-4.08v.136c0 .408.102.68.34.833.221.153.63.221 1.241.221m-1.58-2.958h1.87c.135 0 .203-.068.203-.221v-.272c0-.34-.068-.595-.17-.782-.136-.204-.408-.306-.782-.306h-.153c-.34 0-.578.085-.714.238q-.255.306-.255.918zm8.789-1.173h-2.703c-.17 0-.29-.017-.357-.085-.068-.068-.085-.204-.085-.408V8.163c0-.204.017-.323.085-.391q.102-.102.357-.102h5.746c.17 0 .289.034.374.102.068.068.119.204.119.391v.323c0 .442-.136.85-.374 1.207l-2.924 4.148h2.907c.17 0 .272.034.34.102s.102.187.102.391v1.173q0 .306-.102.408c-.068.068-.17.085-.34.085h-5.848c-.357 0-.527-.153-.527-.493v-.391c0-.442.119-.833.374-1.207zm11.461 3.961h.544c.17 0 .306.051.374.119.068.085.12.238.12.459v1.054c0 .238-.052.391-.12.459-.068.085-.204.119-.374.119H31.95c-.85 0-1.445-.153-1.785-.493-.34-.323-.51-.901-.51-1.717V4.984c0-.17.034-.289.12-.374.084-.068.237-.119.458-.119h1.564c.204 0 .357.051.442.119a.5.5 0 0 1 .136.374v8.483c0 .136.017.221.068.255.034.051.12.068.255.068m4.907-5.627v7.344c0 .17-.05.306-.136.374-.085.085-.238.119-.442.119h-1.564c-.22 0-.374-.034-.459-.119-.085-.068-.119-.204-.119-.374V8.163c0-.17.034-.289.12-.374.084-.068.237-.119.458-.119h1.564c.204 0 .357.051.442.119a.5.5 0 0 1 .136.374m-1.258-1.139h-.204c-.918 0-1.377-.459-1.377-1.411v-.085c0-.935.46-1.411 1.377-1.411h.204c.918 0 1.377.476 1.377 1.411v.085c0 .952-.459 1.411-1.377 1.411m10.364 3.672v4.811c0 .17-.051.306-.136.374-.085.085-.238.119-.442.119h-1.564c-.221 0-.374-.034-.459-.119-.085-.068-.119-.204-.119-.374v-4.811c0-.374-.068-.646-.187-.782-.136-.136-.391-.221-.748-.221h-.034c-.374 0-.612.085-.748.221s-.187.408-.187.782v4.811c0 .17-.051.306-.136.374-.085.085-.238.119-.442.119h-1.564c-.221 0-.374-.034-.459-.119-.085-.068-.119-.204-.119-.374V8.146c0-.17.034-.289.119-.357s.238-.119.459-.119h.799c.204 0 .34.034.425.085q.128.076.204.306l.102.323h.051c.544-.578 1.309-.867 2.329-.867h.068c.969 0 1.717.272 2.244.782.544-.51 1.326-.782 2.312-.782h.068c.986 0 1.717.238 2.159.697.408.442.629 1.19.629 2.244v5.049c0 .17-.051.306-.136.374-.085.085-.238.119-.442.119h-1.564c-.221 0-.374-.034-.459-.119-.085-.068-.119-.204-.119-.374v-4.811c0-.374-.068-.646-.187-.782-.136-.136-.391-.221-.748-.221h-.034c-.374 0-.612.085-.748.221s-.187.408-.187.782m8.99-2.533v7.344c0 .17-.05.306-.136.374-.085.085-.238.119-.442.119h-1.564c-.22 0-.374-.034-.459-.119-.085-.068-.119-.204-.119-.374V8.163c0-.17.034-.289.12-.374.084-.068.237-.119.458-.119h1.564c.204 0 .357.051.442.119a.5.5 0 0 1 .136.374m-1.258-1.139h-.204c-.918 0-1.377-.459-1.377-1.411v-.085c0-.935.46-1.411 1.377-1.411h.204c.918 0 1.377.476 1.377 1.411v.085c0 .952-.459 1.411-1.377 1.411m8.34 7.378v.969c0 .255-.05.425-.118.51s-.221.119-.425.119h-1.36c-1.224 0-2.04-.204-2.414-.629-.34-.357-.493-1.037-.493-2.057V9.795h-.918c-.17 0-.272-.017-.34-.085s-.085-.17-.085-.34v-.867c0-.204.017-.34.085-.408.05-.068.17-.119.357-.17l.9-.221V6.038c0-.17.035-.289.12-.374.085-.068.238-.119.459-.119h1.564c.204 0 .357.051.442.119a.5.5 0 0 1 .136.374V7.67h1.41c.17 0 .273.034.34.102.069.068.103.187.103.391v1.139q0 .306-.102.408c-.068.068-.17.085-.34.085h-1.411v3.213c0 .306.034.493.136.595.102.119.323.17.663.17h.748c.204 0 .357.051.425.136s.119.255.119.493m5.758-1.445V8.163c0-.17.034-.289.12-.374.084-.068.237-.119.458-.119h1.564c.204 0 .357.051.442.119a.5.5 0 0 1 .136.374v5.032q0 1.555-.765 2.244c-.544.476-1.496.714-2.89.714s-2.363-.238-2.89-.714q-.765-.689-.765-2.244V8.163c0-.17.034-.289.12-.374.084-.068.237-.119.458-.119h1.564c.204 0 .357.051.442.119a.5.5 0 0 1 .136.374v4.794c0 .391.051.646.187.782.136.153.374.221.748.221.357 0 .612-.068.748-.221.12-.136.187-.391.187-.782m10.733-.255v2.805c0 .17-.05.306-.135.374-.086.085-.239.119-.443.119h-1.563c-.222 0-.375-.034-.46-.119-.084-.068-.118-.204-.118-.374V4.984c0-.17.034-.289.118-.374.085-.068.239-.119.46-.119h1.563c.205 0 .358.051.443.119a.5.5 0 0 1 .135.374v5.542h.12l1.614-2.465c.153-.255.391-.391.715-.391h1.972c.186 0 .288.068.288.204 0 .068-.05.187-.135.323l-1.956 2.924c-.153.238-.22.408-.22.51 0 .119.067.289.22.51l2.091 3.298c.069.136.103.221.103.289 0 .187-.12.272-.357.272H81.84c-.238 0-.425-.017-.527-.085q-.153-.076-.306-.357l-1.615-2.856zM89.44 8.078H90.9c.238 0 .408.034.493.102s.153.204.187.408c0 .068.306 1.581.9 4.522h.052c.306-1.785.578-3.434.799-4.964.017-.187.068-.306.136-.374q.102-.102.357-.102h1.734c.187 0 .306.051.374.119.05.085.068.221.034.391a169 169 0 0 1-.986 4.386c-.374 1.598-.646 2.601-.816 3.026-.068.17-.153.289-.238.34s-.221.068-.391.068h-1.87c-.357 0-.578-.119-.646-.391-.323-1.156-.595-2.618-.833-4.386h-.068a47 47 0 0 1-.85 4.386c-.068.272-.272.391-.612.391H86.82c-.34 0-.561-.119-.646-.374-.17-.459-.46-1.513-.867-3.145a79 79 0 0 1-.952-4.301c-.051-.187-.034-.323.034-.391s.204-.119.408-.119h1.666c.17 0 .306.034.39.102.069.068.12.204.154.374.238 1.581.51 3.23.833 4.964h.068c.408-2.108.697-3.621.833-4.522.034-.221.085-.357.17-.425.085-.051.255-.085.527-.085m10 3.094v1.326c0 .663.101 1.088.305 1.292.153.17.391.238.714.238h.068c.306 0 .544-.068.714-.238.204-.204.306-.629.306-1.292v-1.326c0-.646-.102-1.088-.306-1.292-.17-.153-.408-.238-.714-.238h-.068c-.323 0-.56.085-.714.238-.204.204-.306.646-.306 1.292m4.844.102v1.105c0 .85-.085 1.496-.255 1.972s-.442.85-.816 1.139c-.561.442-1.428.663-2.618.663h-.204c-1.19 0-2.074-.221-2.618-.663a2.43 2.43 0 0 1-.816-1.139c-.17-.476-.255-1.122-.255-1.972v-1.088c0-.833.085-1.479.255-1.955s.442-.85.816-1.156c.544-.442 1.428-.663 2.618-.663h.204c1.19 0 2.057.221 2.618.663.374.306.646.68.816 1.139.17.476.255 1.122.255 1.955m6.777 3.128v.969c0 .255-.051.425-.119.51s-.221.119-.425.119h-1.36c-1.224 0-2.04-.204-2.414-.629-.34-.357-.493-1.037-.493-2.057V9.795h-.918c-.17 0-.272-.017-.34-.085s-.085-.17-.085-.34v-.867c0-.204.017-.34.085-.408.051-.068.17-.119.357-.17l.901-.221V6.038c0-.17.034-.289.119-.374.085-.068.238-.119.459-.119h1.564c.204 0 .357.051.442.119a.5.5 0 0 1 .136.374V7.67h1.411c.17 0 .272.034.34.102s.102.187.102.391v1.139q0 .306-.102.408c-.068.068-.17.085-.34.085h-1.411v3.213c0 .306.034.493.136.595.102.119.323.17.663.17h.748c.204 0 .357.051.425.136s.119.255.119.493m8.494-6.222c-.238 1.598-.68 3.366-1.326 5.321a36 36 0 0 1-2.397 5.542c-.119.238-.272.357-.476.357-.136 0-.289-.034-.493-.136l-.867-.374c-.306-.136-.442-.272-.442-.425 0-.068.017-.17.085-.289.578-1.173.918-1.853.986-2.04-.476-.17-.833-.544-1.105-1.156-.306-.68-.663-1.717-1.054-3.145q-.587-2.142-.867-3.672c-.034-.17-.017-.289.068-.374.085-.068.238-.119.442-.119h1.547c.187 0 .323.034.408.085s.153.153.187.323c.391 2.142.833 4.046 1.326 5.695h.085c.476-1.36.918-3.23 1.326-5.644q.025-.255.153-.357c.085-.068.221-.102.391-.102h1.564c.187 0 .323.051.391.119s.085.204.068.391"/></svg>