<svg xmlns="http://www.w3.org/2000/svg" fill="none" viewBox="0 0 106 15"><g clip-path="url(#a)"><path fill="#fff" d="m.279 11.681 1.777-1.97c.836 1.19 1.881 1.74 2.948 1.74.978 0 1.562-.517 1.562-1.35s-.55-1.227-2.041-1.848C2.409 7.421.9 6.476.9 4.257S2.8.279 5.432.279c1.918 0 3.268.71 4.245 1.796L7.971 4.17c-.55-.71-1.316-1.17-2.309-1.17-.818 0-1.401.442-1.401 1.1s.639.996 2.186 1.636c2.238.87 3.498 1.97 3.498 4.245 0 2.54-1.989 4.175-4.725 4.175-2.346 0-4.015-1.03-4.937-2.469zm25.344 2.238-.87-2.539h-4.904l-.922 2.54H15.41L20.897.527h2.967l5.417 13.395h-3.658zm-4.867-5.045h3.127l-.658-1.918a86 86 0 0 1-.852-2.629c-.282.87-.587 1.74-.907 2.61zm35.883 5.045V.528h3.837c4.547 0 7.725 2.238 7.725 6.696 0 4.457-3.126 6.695-7.513 6.695zm3.287-2.896h.71c2.52 0 4.193-1.316 4.193-3.8S63.41 3.51 60.636 3.51h-.71zm14.28-3.818c0-3.96 3.267-6.911 7.212-6.911 3.926 0 7.175 2.93 7.175 6.944 0 4.016-3.268 6.912-7.231 6.912s-7.157-2.789-7.157-6.945m10.996.037c0-2.2-1.617-3.907-3.8-3.907-2.148 0-3.799 1.721-3.799 3.889 0 2.29 1.722 3.888 3.766 3.888 2.186 0 3.837-1.65 3.837-3.874zM105.661.528H95.088v2.915h5.167l-6.29 10.48h11.317v-2.967h-5.863zM45.003 13.919h3.108V.528h-3.108V9.06L38.735.528h-3.179v13.395h3.179V5.39l6.272 8.532z"/></g><defs><clipPath id="a"><rect width="106" height="14.505" fill="#fff"/></clipPath></defs></svg>