<svg viewBox="0 0 48 48" fill="none" xmlns="http://www.w3.org/2000/svg">
<g id="arrows">
<path id="arrow_1" fill-rule="evenodd" clip-rule="evenodd" d="M22.3173 2C19.2276 4.93837 19.2276 9.70687 22.3173 12.648L33.5056 24L22.3173 35.352C19.2276 38.2931 19.2276 43.0589 22.3173 46L44 24L22.3173 2Z" fill="#960312"/>
<path id="arrow_2" fill-rule="evenodd" clip-rule="evenodd" d="M6.31733 2C3.22756 4.93837 3.22756 9.70687 6.31733 12.648L17.5056 24L6.31733 35.352C3.22756 38.2931 3.22756 43.0589 6.31734 46L28 24L6.31733 2Z" fill="#960312"/>
<g id="shine_1_holder">
<mask id="mask0_14802_51" style="mask-type:alpha" maskUnits="userSpaceOnUse" x="4" y="2" width="40" height="44">
<g id="shine_g">
<path id="arrow_1_2" fill-rule="evenodd" clip-rule="evenodd" d="M22.3173 2C19.2276 4.93837 19.2276 9.70687 22.3173 12.648L33.5056 24L22.3173 35.352C19.2276 38.2931 19.2276 43.0589 22.3173 46L44 24L22.3173 2Z" fill="#960312"/>
<path id="arrow_2_2" fill-rule="evenodd" clip-rule="evenodd" d="M6.31733 2C3.22756 4.93837 3.22756 9.70687 6.31733 12.648L17.5056 24L6.31733 35.352C3.22756 38.2931 3.22756 43.0589 6.31734 46L28 24L6.31733 2Z" fill="#960312"/>
</g>
</mask>
<g mask="url(#mask0_14802_51)">
<g id="shine_1">
<rect width="58.8094" height="71.3605" transform="translate(-21.5405 -72) rotate(45)" fill="url(#paint0_linear_14802_51)"/>
</g>
</g>
</g>
<g id="arrow_1t" opacity="0.5">
<path id="arrow_line_1w" d="M22.3173 2C19.2276 4.93837 19.2276 9.70687 22.3173 12.648L33.5056 24L22.3173 35.352C19.2276 38.2931 19.2276 43.0589 22.3173 46" stroke="white" stroke-width="0.2"/>
<path id="arrow_line_1b" d="M22.3173 2L44 24L22.3173 46" stroke="black" stroke-opacity="0.5" stroke-width="0.2"/>
</g>
<g id="arrow_2t" opacity="0.5">
<path id="arrow_line_2w" d="M6.3173 2C3.2276 4.93837 3.2276 9.70687 6.3173 12.648L17.5056 24L6.3173 35.352C3.2276 38.2931 3.2276 43.0589 6.3173 46" stroke="white" stroke-width="0.2"/>
<path id="arrow_line_2b" d="M6.31733 2L28 24L6.31734 46" stroke="black" stroke-opacity="0.5" stroke-width="0.2"/>
</g>
<g id="shine_2_holder">
<mask id="mask1_14802_51" style="mask-type:alpha" maskUnits="userSpaceOnUse" x="3" y="1" width="42" height="46">
<g id="top_holder">
<g id="g">
<path id="g (Stroke)" d="M22.3174 2L22.3858 2.07227C19.4328 4.88069 19.3407 9.38221 22.1094 12.2988L22.3887 12.5781L33.5772 23.9297L33.6455 24L33.5772 24.0703L22.3887 35.4219L22.3867 35.4248L22.3174 35.3516L22.3858 35.4248C19.338 38.3265 19.3378 43.0262 22.3858 45.9277L22.3174 46L22.2481 46.0723C19.1172 43.0917 19.1171 38.2597 22.2481 35.2793L33.3653 24L22.2481 12.7197C19.1176 9.73925 19.1173 4.9054 22.2481 1.92773L22.3174 2Z" fill="white"/>
<path id="g (Stroke)_2" d="M44.1406 24L22.3886 46.0703L22.246 45.9297L43.8593 24L22.246 2.07031L22.3886 1.92969L44.1406 24Z" fill="black" fill-opacity="0.5"/>
</g>
<g id="g_2">
<path id="g (Stroke)_3" d="M6.31741 2L6.38577 2.07227C3.43284 4.88069 3.34072 9.38221 6.1094 12.2988L6.38869 12.5781L17.5772 23.9297L17.6455 24L17.5772 24.0703L6.38869 35.4219L6.38674 35.4248L6.31741 35.3516L6.38577 35.4248C3.33796 38.3265 3.33778 43.0262 6.38577 45.9277L6.31741 46L6.24807 46.0723C3.1172 43.0917 3.11705 38.2597 6.24807 35.2793L17.3653 24L6.24807 12.7197C3.11757 9.73925 3.11733 4.9054 6.24807 1.92773L6.31741 2Z" fill="white"/>
<path id="g (Stroke)_4" d="M28.1406 24L6.38862 46.0703L6.24604 45.9297L27.8593 24L6.24604 2.07031L6.38862 1.92969L28.1406 24Z" fill="black" fill-opacity="0.5"/>
</g>
</g>
</mask>
<g mask="url(#mask1_14802_51)">
<g id="shine_2">
<rect width="58.8094" height="71.3605" transform="translate(-21.5405 -72) rotate(45)" fill="url(#paint1_linear_14802_51)"/>
</g>
</g>
</g>
</g>
<defs>
<linearGradient id="paint0_linear_14802_51" x1="0" y1="35.6803" x2="58.8094" y2="35.6803" gradientUnits="userSpaceOnUse">
<stop stop-color="white" stop-opacity="0"/>
<stop offset="0.5" stop-color="white"/>
<stop offset="1" stop-color="white" stop-opacity="0"/>
</linearGradient>
<linearGradient id="paint1_linear_14802_51" x1="0" y1="35.6803" x2="58.8094" y2="35.6803" gradientUnits="userSpaceOnUse">
<stop stop-color="white" stop-opacity="0"/>
<stop offset="0.5" stop-color="white"/>
<stop offset="1" stop-color="white" stop-opacity="0"/>
</linearGradient>
</defs>
</svg>
