<svg xmlns="http://www.w3.org/2000/svg" fill="none" viewBox="0 0 89 46"><path fill="#fff" d="M6.498 25.968h5.32v-8.55h-.038zm13.452 4.788h-1.976v3.99c0 .57-.114.912-.266 1.064-.19.152-.57.19-1.102.19h-3.344c-.608 0-.988-.038-1.178-.19s-.266-.494-.266-1.064v-3.99h-9.69q-.798 0-1.026-.228t-.228-1.026v-.912c0-.76.038-1.33.152-1.71.076-.342.342-.836.722-1.444L9.69 12.63c.304-.494.57-.836.874-.988q.456-.228 1.254-.228h4.598c.608 0 1.026.114 1.254.304.19.228.304.646.304 1.292v12.958h1.976c.456 0 .722.076.874.19.114.152.19.418.19.836v2.736c0 .456-.076.722-.19.836-.152.152-.418.19-.874.19m6.425-1.026h.532c1.14 0 1.938.304 2.432.836.494.57.76 1.406.76 2.546v.494c0 1.178-.38 2.622-1.064 4.37a16.6 16.6 0 0 1-3.002 4.788c-.228.304-.494.418-.76.418-.152 0-.38-.038-.608-.19l-1.9-1.14c-.456-.228-.494-.608-.114-1.102.342-.456.836-1.178 1.52-2.204.456-.684.684-1.178.684-1.558 0-.19-.114-.342-.304-.494l-.38-.266c-.646-.456-.95-1.254-.95-2.394V32.77c0-2.014 1.026-3.04 3.154-3.04m22.118-13.262h-7.676c-.38 0-.532.19-.532.494l-.114 3.534q1.71-.57 3.762-.57h.38c2.432 0 4.218.57 5.358 1.672 1.216 1.216 1.862 3.23 1.862 6.042v.532c0 2.888-.836 4.978-2.432 6.308-1.52 1.254-3.876 1.862-7.068 1.862h-.38q-3.705 0-7.524-1.368c-.532-.152-.76-.456-.76-.874 0-.152.038-.494.19-1.026l.532-1.938c.152-.532.342-.874.608-1.026.228-.114.532-.076.912.076 2.128.798 4.066 1.178 5.814 1.178h.38c1.102 0 1.976-.228 2.66-.684q.912-.57.912-2.508v-.266c0-1.14-.266-1.976-.798-2.432-.494-.418-1.216-.646-2.166-.646h-.228q-1.995 0-4.446.912c-.38.152-.646.19-.76.19-.228 0-.532-.114-.874-.342l-1.216-.798c-.38-.266-.57-.608-.57-.988 0-.228 0-.722.076-1.52l.494-9.728c0-.76.456-1.14 1.292-1.14h12.388c.456 0 .798.076.95.228s.266.418.266.874v2.926c0 .418-.114.684-.266.836-.19.152-.532.19-1.026.19m19.193 1.406v.38c0 2.508-.646 4.294-1.862 5.434-1.14.912-2.622 1.368-4.37 1.368-1.976 0-3.458-.494-4.484-1.482-1.14-1.064-1.71-2.736-1.71-4.94v-1.14c0-2.204.57-3.838 1.71-4.94 1.026-.988 2.508-1.482 4.484-1.482 1.748 0 3.23.456 4.37 1.368 1.216 1.14 1.862 2.964 1.862 5.434m-6.46 17.1L75.248 11.87c.19-.304.418-.532.646-.646.228-.076.57-.152 1.064-.152h2.774c1.178 0 1.52.456.988 1.368L66.698 35.544c-.228.342-.418.57-.646.646-.228.114-.608.152-1.064.152h-2.774c-1.216 0-1.52-.456-.988-1.368m-.836-17.936v2.052c0 .798.076 1.33.266 1.596.152.266.418.38.76.38h.076c.304 0 .57-.114.76-.38.152-.266.266-.798.266-1.596v-2.052c0-.76-.114-1.292-.266-1.558-.19-.266-.456-.418-.76-.418h-.076c-.342 0-.608.152-.76.418-.19.266-.266.798-.266 1.558M87.066 29.16v.38c0 2.508-.646 4.294-1.862 5.434-1.14.912-2.622 1.368-4.37 1.368-1.976 0-3.458-.494-4.484-1.482-1.14-1.064-1.71-2.698-1.71-4.94v-1.14c0-2.204.57-3.876 1.71-4.94 1.026-.988 2.508-1.482 4.484-1.482 1.748 0 3.23.456 4.37 1.368 1.216 1.14 1.862 2.964 1.862 5.434m-7.296-.836v2.052c0 .798.076 1.33.266 1.596.152.266.418.38.76.38h.076c.304 0 .57-.114.76-.38.152-.266.266-.798.266-1.596v-2.052c0-.76-.114-1.292-.266-1.558-.19-.266-.456-.418-.76-.418h-.076c-.342 0-.608.152-.76.418-.19.266-.266.798-.266 1.558"/></svg>