<svg xmlns="http://www.w3.org/2000/svg" fill="none" viewBox="0 0 192 27"><path fill="#fff" d="M5.603 9.525c-.27.022-.383.157-.383.383v7.47c0 .314.112.494.36.494.18.023.518.023 1.013.023h.112c.877 0 1.53-.203 1.98-.652.563-.563.855-1.598.855-3.128v-.922c0-1.53-.27-2.543-.765-3.083-.405-.405-1.102-.63-2.093-.63H6.57c-.315 0-.652.022-.968.045M5.873 21H5.4c-1.553 0-2.588-.023-3.105-.09-.585-.045-.855-.337-.855-.878V7.747q0-.641.203-.877c.135-.157.404-.27.81-.315a41 41 0 0 1 3.532-.157H6.3c2.565 0 4.41.54 5.513 1.575 1.034 1.035 1.574 2.722 1.574 5.017v1.305c0 2.362-.54 4.05-1.597 5.063C10.643 20.46 8.663 21 5.873 21m16.103-.922h-.045c-.495.765-1.485 1.125-2.947 1.125h-.338c-1.147 0-2.047-.293-2.677-.878-.653-.585-.968-1.462-.968-2.587v-.248c0-1.215.338-2.092 1.035-2.587.698-.495 1.823-.743 3.398-.743h.157c.585 0 1.125.045 1.575.09v-.473c0-.472-.135-.81-.382-.99-.27-.157-.72-.247-1.35-.247-.765 0-1.62.135-2.61.383-.27.067-.473.067-.563 0-.112-.068-.18-.203-.202-.428l-.18-1.192c-.045-.203-.045-.36-.045-.45 0-.27.18-.473.54-.585a14.5 14.5 0 0 1 3.847-.495c1.733 0 2.97.382 3.69 1.102.563.585.855 1.53.855 2.813v6.682c0 .225-.067.405-.18.495s-.315.135-.585.135h-1.057c-.27 0-.45-.023-.563-.09s-.202-.203-.27-.427zm-.81-2.88v-.63q-.37-.069-1.08-.068h-.247q-.81 0-1.148.203c-.225.134-.315.405-.315.81v.09c0 .404.09.674.315.81.203.157.518.224.945.224h.158c.45 0 .787-.112 1.057-.337.203-.18.315-.562.315-1.102m5.328 7.807H25.19c-.224 0-.404-.045-.494-.157-.09-.09-.136-.293-.136-.563V22.71c0-.225.046-.405.136-.495s.27-.157.494-.157h.563c.405 0 .72-.09.922-.316.18-.18.27-.652.27-1.395v-9.72c0-.225.046-.382.158-.495.113-.09.315-.157.607-.157h2.07c.27 0 .473.068.585.158.113.112.18.27.18.495v9.967c0 1.62-.292 2.745-.877 3.398q-.912 1.012-3.173 1.012M28.88 9.12h-.27c-1.215 0-1.823-.607-1.823-1.867V7.14c0-1.237.608-1.867 1.823-1.867h.27c1.215 0 1.822.63 1.822 1.867v.113c0 1.26-.608 1.867-1.823 1.867m12.136 5.49v1.755c0 .878.135 1.44.405 1.71.203.225.518.315.945.315h.09c.405 0 .72-.09.945-.315.27-.27.405-.832.405-1.71V14.61c0-.855-.135-1.44-.405-1.71-.225-.203-.54-.315-.945-.315h-.09c-.427 0-.742.112-.945.315-.27.27-.405.855-.405 1.71m6.413.135v1.463c0 1.125-.113 1.98-.338 2.61a3.2 3.2 0 0 1-1.08 1.507c-.742.585-1.89.878-3.465.878h-.27c-1.575 0-2.745-.293-3.465-.878a3.2 3.2 0 0 1-1.08-1.508c-.225-.63-.337-1.485-.337-2.61v-1.44c0-1.102.112-1.957.337-2.587a3.4 3.4 0 0 1 1.08-1.53c.72-.585 1.89-.877 3.465-.877h.27c1.575 0 2.723.292 3.465.877.495.405.855.9 1.08 1.508.225.63.338 1.485.338 2.587m1.634-1.147v-.293c0-1.102.292-1.935.877-2.52.675-.675 1.823-1.012 3.42-1.012h.226c1.26 0 2.362.135 3.285.405q.27.1.337.202c.045.09.068.202.045.382l-.248 1.845c-.044.293-.247.383-.607.293-.9-.203-1.71-.315-2.385-.315h-.023c-.495 0-.855.045-1.035.135-.202.09-.292.247-.292.473v.067c0 .225.068.383.248.473s.517.202 1.035.292l1.057.225c.968.225 1.665.563 2.07 1.012s.608 1.148.608 2.07v.338c0 2.362-1.485 3.532-4.41 3.532h-.226c-1.485 0-2.722-.202-3.757-.607-.202-.067-.337-.157-.382-.27-.045-.09-.045-.27 0-.517l.315-1.485c.067-.428.315-.563.765-.428 1.035.36 1.935.518 2.7.518h.067c.495 0 .833-.046 1.035-.158.18-.09.293-.27.293-.517v-.068c0-.18-.09-.338-.248-.428q-.27-.135-1.08-.337l-.99-.225q-1.485-.337-2.093-1.012c-.404-.45-.607-1.125-.607-2.07m14.155-.766h-3.577c-.225 0-.383-.022-.473-.112s-.112-.27-.112-.54v-1.553c0-.27.022-.427.112-.517q.135-.135.473-.135h7.605c.225 0 .382.045.495.135.09.09.157.27.157.518v.427c0 .585-.18 1.125-.495 1.598l-3.87 5.49h3.848c.225 0 .36.044.45.134s.135.248.135.518v1.552q0 .405-.135.54c-.09.09-.225.113-.45.113h-7.74c-.473 0-.698-.203-.698-.652v-.518c0-.585.158-1.102.495-1.597zm11.44 5.468h.18c.607 0 1.26-.09 1.957-.293.225-.045.36-.067.427-.067.226 0 .36.135.406.383l.202 1.147c.045.315.09.518.09.608 0 .27-.203.472-.585.607-.99.36-2.07.518-3.24.518h-.27c-1.62 0-2.812-.36-3.555-1.125q-1.147-1.148-1.147-3.848v-1.305c0-1.058.09-1.89.27-2.475q.27-.877.877-1.485c.788-.787 2.025-1.192 3.713-1.192h.224c1.35 0 2.52.247 3.466.742.27.157.427.337.427.563 0 .135-.067.36-.18.675l-.427 1.08q-.169.405-.473.405a.9.9 0 0 1-.405-.113c-.72-.293-1.395-.45-2.002-.45h-.09c-.585 0-1.013.157-1.283.427-.337.338-.495 1.035-.495 2.07v.765c0 .923.135 1.553.45 1.89.293.315.788.473 1.463.473m8.71-5.468H79.79c-.225 0-.383-.022-.473-.112s-.112-.27-.112-.54v-1.553c0-.27.022-.427.112-.517q.135-.135.473-.135h7.605c.225 0 .382.045.495.135.09.09.157.27.157.518v.427c0 .585-.18 1.125-.495 1.598l-3.87 5.49h3.848c.225 0 .36.044.45.134s.135.248.135.518v1.552q0 .405-.135.54c-.09.09-.225.113-.45.113h-7.74c-.473 0-.698-.203-.698-.652v-.518c0-.585.158-1.102.495-1.597zM94.985 18.3h.248c.765 0 1.575-.09 2.385-.293.225-.045.36-.067.427-.067.225 0 .36.135.405.383l.18 1.125c.045.314.09.517.09.607 0 .27-.202.473-.585.608a3.26 3.26 0 0 0-1.44 1.08c-.382.495-.562.99-.562 1.44v.067c0 .427.202.63.607.63h.113c.247 0 .562-.045.922-.18.113-.023.203-.045.27-.045.113 0 .203.112.27.293l.113.472c.067.315.112.472.112.517 0 .136-.112.248-.315.338a5 5 0 0 1-1.822.338h-.135c-.788 0-1.373-.158-1.778-.495-.405-.338-.607-.81-.607-1.44v-.068c0-.405.135-.855.427-1.305.293-.45.675-.81 1.17-1.125-.18.023-.427.023-.742.023h-.428q-2.767 0-3.915-1.148a3.23 3.23 0 0 1-.9-1.53c-.157-.585-.225-1.372-.225-2.34v-1.26c0-1.958.45-3.33 1.35-4.14.765-.675 1.935-1.012 3.533-1.012h.315c1.575 0 2.722.382 3.397 1.125.72.81 1.08 2.137 1.08 4.027v1.17c0 .428-.225.63-.652.63h-5.4v.18c0 .54.135.9.45 1.102.292.203.832.293 1.642.293m-2.092-3.915h2.475c.18 0 .27-.09.27-.293v-.36c0-.45-.09-.787-.225-1.034-.18-.27-.54-.405-1.035-.405h-.203c-.45 0-.765.112-.945.315q-.337.405-.337 1.214zm14.13 2.632V14.16c0-.562-.09-.967-.27-1.193-.202-.225-.562-.36-1.057-.36h-.225c-.495 0-.833.136-1.035.383-.225.248-.315.945-.315 2.115v.99c0 1.08.112 1.755.337 1.98.18.225.518.315 1.035.315h.248c.427 0 .742-.09.967-.293.203-.202.315-.562.315-1.08m-.045-6.84h.045V6.42c0-.225.045-.383.158-.495.112-.09.315-.157.607-.157h2.093c.27 0 .472.067.585.157.09.112.157.27.157.495v10.237c0 1.576-.292 2.656-.877 3.285-.428.45-.945.788-1.553.968-.63.203-1.462.293-2.52.293h-.382c-1.665 0-2.858-.338-3.623-1.013-.787-.675-1.17-1.935-1.17-3.803v-1.8c0-1.8.36-3.06 1.125-3.78.72-.675 1.71-1.034 2.993-1.034h.27q1.282 0 2.092.405m11.73-.404h.18c1.305 0 2.272.315 2.857.922.54.585.833 1.575.833 2.97v6.683c0 .225-.068.405-.18.495-.113.112-.315.157-.585.157h-2.07c-.293 0-.495-.045-.608-.157-.112-.09-.157-.27-.157-.495V13.98c0-.495-.09-.855-.248-1.035-.18-.18-.517-.293-.99-.293h-.135c-.495 0-.81.113-.99.293s-.247.54-.247 1.035v6.368c0 .225-.068.405-.18.495-.113.112-.315.157-.585.157h-2.07c-.293 0-.495-.045-.608-.157-.112-.09-.157-.27-.157-.495v-9.743c0-.225.045-.383.157-.473.113-.09.315-.157.608-.157h1.057c.27 0 .45.045.563.113q.168.1.27.405l.135.427h.067c.72-.765 1.733-1.147 3.083-1.147m9.275 4.837v1.755c0 .878.135 1.44.405 1.71.203.225.518.315.945.315h.09c.405 0 .72-.09.945-.315.27-.27.405-.832.405-1.71V14.61c0-.855-.135-1.44-.405-1.71-.225-.203-.54-.315-.945-.315h-.09c-.427 0-.742.112-.945.315-.27.27-.405.855-.405 1.71m6.413.135v1.463c0 1.125-.113 1.98-.338 2.61a3.2 3.2 0 0 1-1.08 1.507c-.742.585-1.89.878-3.465.878h-.27c-1.575 0-2.745-.293-3.465-.878a3.2 3.2 0 0 1-1.08-1.508c-.225-.63-.337-1.485-.337-2.61v-1.44c0-1.102.112-1.957.337-2.587a3.4 3.4 0 0 1 1.08-1.53c.72-.585 1.89-.877 3.465-.877h.27c1.575 0 2.723.292 3.465.877.495.405.855.9 1.08 1.508.225.63.338 1.485.338 2.587m1.634-1.147v-.293c0-1.102.292-1.935.877-2.52.675-.675 1.823-1.012 3.42-1.012h.225c1.26 0 2.363.135 3.285.405q.27.1.338.202c.045.09.067.202.045.382l-.248 1.845c-.045.293-.247.383-.607.293-.9-.203-1.71-.315-2.385-.315h-.023c-.495 0-.855.045-1.035.135-.202.09-.292.247-.292.473v.067c0 .225.067.383.247.473s.518.202 1.035.292l1.058.225c.967.225 1.665.563 2.07 1.012s.607 1.148.607 2.07v.338c0 2.362-1.485 3.532-4.41 3.532h-.225c-1.485 0-2.722-.202-3.757-.607-.203-.067-.338-.157-.383-.27-.045-.09-.045-.27 0-.517l.315-1.485c.068-.428.315-.563.765-.428 1.035.36 1.935.518 2.7.518h.068c.495 0 .832-.046 1.035-.158.18-.09.292-.27.292-.517v-.068c0-.18-.09-.338-.247-.428q-.27-.135-1.08-.337l-.99-.225q-1.485-.337-2.093-1.012c-.405-.45-.607-1.125-.607-2.07m2.092-6.593 3.533-3.015a.63.63 0 0 1 .427-.203c.158 0 .315.113.45.293l1.08 1.395a.66.66 0 0 1 .135.383c0 .18-.135.36-.36.54l-3.555 2.43c-.18.112-.315.157-.45.157-.18 0-.36-.09-.54-.315l-.675-.787c-.18-.203-.247-.383-.247-.518s.067-.27.202-.36M151.694 18.3h.18c.607 0 1.26-.09 1.957-.293.225-.045.36-.067.428-.067.225 0 .36.135.405.383l.202 1.147c.045.315.09.518.09.608 0 .27-.202.472-.585.607-.99.36-2.07.518-3.24.518h-.27c-1.62 0-2.812-.36-3.555-1.125q-1.147-1.148-1.147-3.848v-1.305c0-1.058.09-1.89.27-2.475q.27-.877.877-1.485c.788-.787 2.025-1.192 3.713-1.192h.225c1.35 0 2.52.247 3.465.742.27.157.427.337.427.563 0 .135-.067.36-.18.675l-.427 1.08q-.169.405-.473.405a.9.9 0 0 1-.405-.113c-.72-.293-1.395-.45-2.002-.45h-.09c-.585 0-1.013.157-1.283.427-.337.338-.495 1.035-.495 2.07v.765c0 .923.135 1.553.45 1.89.293.315.788.473 1.463.473m8.687-7.673v9.72c0 .226-.068.406-.18.495-.113.113-.315.158-.585.158h-2.07c-.293 0-.495-.045-.608-.157-.112-.09-.157-.27-.157-.495v-9.72c0-.226.045-.383.157-.495.113-.09.315-.158.608-.158h2.07c.27 0 .472.068.585.158.112.112.18.27.18.495m-1.665-1.507h-.27c-1.215 0-1.823-.607-1.823-1.867V7.14c0-1.237.608-1.867 1.823-1.867h.27c1.215 0 1.822.63 1.822 1.867v.113c0 1.26-.607 1.867-1.822 1.867m7.259 5.49v1.755c0 .878.135 1.44.405 1.71.202.225.517.315.945.315h.09c.405 0 .72-.09.945-.315.27-.27.405-.832.405-1.71V14.61c0-.855-.135-1.44-.405-1.71-.225-.203-.54-.315-.945-.315h-.09c-.428 0-.743.112-.945.315-.27.27-.405.855-.405 1.71m6.412.135v1.463c0 1.125-.112 1.98-.337 2.61a3.2 3.2 0 0 1-1.08 1.507c-.743.585-1.89.878-3.465.878h-.27c-1.575 0-2.745-.293-3.465-.878a3.2 3.2 0 0 1-1.08-1.508c-.225-.63-.338-1.485-.338-2.61v-1.44c0-1.102.113-1.957.338-2.587a3.4 3.4 0 0 1 1.08-1.53c.72-.585 1.89-.877 3.465-.877h.27c1.575 0 2.722.292 3.465.877.495.405.855.9 1.08 1.508.225.63.337 1.485.337 2.587m11.647-.765v6.368c0 .225-.067.405-.18.495-.112.112-.315.157-.585.157h-2.07c-.292 0-.495-.045-.607-.157-.113-.09-.158-.27-.158-.495V13.98c0-.495-.09-.855-.247-1.035-.18-.18-.518-.293-.99-.293h-.045c-.495 0-.81.113-.99.293s-.248.54-.248 1.035v6.368c0 .225-.067.405-.18.495-.112.112-.315.157-.585.157h-2.07c-.292 0-.495-.045-.607-.157-.113-.09-.158-.27-.158-.495v-9.743c0-.225.045-.383.158-.473.112-.09.315-.157.607-.157h1.058c.27 0 .45.045.562.113q.17.1.27.405l.135.427h.068c.72-.765 1.732-1.147 3.082-1.147h.09c1.283 0 2.273.36 2.97 1.034.72-.675 1.755-1.034 3.06-1.034h.09c1.305 0 2.273.315 2.858.922.54.585.832 1.575.832 2.97v6.683c0 .225-.067.405-.18.495-.112.112-.315.157-.585.157h-2.07c-.292 0-.495-.045-.607-.157-.113-.09-.158-.27-.158-.495V13.98c0-.495-.09-.855-.247-1.035-.18-.18-.518-.293-.99-.293h-.045c-.495 0-.81.113-.99.293s-.248.54-.248 1.035"/></svg>