<svg xmlns="http://www.w3.org/2000/svg" fill="none" viewBox="0 0 156 31"><path fill="#fff" d="M12.235 9.702v11.39c0 1.073 1.235 1.675 2.08 1.014l8.051-5.695c.66-.515.66-1.513 0-2.029l-8.05-5.695c-.846-.66-2.08-.058-2.08 1.015"/><path fill="#fff" d="M26 22.052V8.782h6.706v1.775h-4.77v3.981h4.77v1.776h-4.77v5.738z"/><path fill="#fff" d="M34.72 22.052v-9.934h1.866v9.934z"/><path fill="#fff" d="M38.871 22.052V8.782h1.937v11.495h4.777v1.775z"/><path fill="#fff" d="M59.812 22.052V10.844h-.054l-4.55 11.208h-1.187l-4.568-11.208h-.036v11.208h-1.974V8.782h3.106l4.056 10.168L58.68 8.782h3.105v13.27z"/><path fill="#fff" d="M67.733 22.052V8.78h7.245v2.978h-4v2.26h3.856v2.976H70.98v5.058z"/><path fill="#fff" d="m98.43 22.052-3.067-4.286h-.035v4.286H92.08V8.78h4.34c1.381 0 2.44.18 3.14.485 1.434.645 2.438 2.206 2.438 4.089 0 2.098-1.255 3.82-3.3 4.178l3.605 4.52zm-1.847-6.6c1.345 0 2.17-.628 2.17-1.901 0-1.148-.861-1.793-2.134-1.793h-1.291v3.694z"/><path fill="#fff" d="M110.394 22.031v-4.824l-3.963-8.447h3.676l1.973 5.326 1.991-5.326h3.64l-3.927 8.447v4.824z"/><path fill="#fff" d="M117.117 15.7c0-4.107 2.959-7.192 6.995-7.192 3.873 0 7.012 2.996 7.012 6.798 0 3.928-3.049 6.976-6.851 6.976-3.694 0-7.156-2.654-7.156-6.582m10.617-.287c0-2.08-1.488-3.927-3.622-3.927-2.117 0-3.606 1.775-3.606 3.873 0 2.188 1.489 3.946 3.659 3.946 2.099 0 3.569-1.776 3.569-3.892"/><path fill="#fff" d="M140.128 22.031v-1.327h-.054c-.646 1.004-1.883 1.578-3.193 1.578-2.869 0-4.429-1.668-4.429-5.272V8.76h3.389v7.944c0 1.65.7 2.583 2.117 2.583 1.237 0 1.99-.896 1.99-2.331V8.76h3.39V22.03z"/><path fill="#fff" d="M35.654 8.527a1.349 1.349 0 1 0 0 2.697 1.349 1.349 0 0 0 0-2.697"/><path fill="#fff" d="M89.275 9.93a4.94 4.94 0 0 0-3.578-1.518c-.74 0-1.454.16-2.104.464a.36.36 0 0 1-.308 0 5 5 0 0 0-2.104-.464c-1.357 0-2.63.54-3.577 1.516-1.912 1.975-1.745 5.173.198 7.116l5.127 5.127a.72.72 0 0 0 1.02 0l5.125-5.125c1.942-1.944 2.11-5.141.2-7.116m-1.836 5.229-.478.478-3.253 3.252a.38.38 0 0 1-.54 0l-3.253-3.252-.476-.478c-.954-.953-1.095-2.522-.192-3.525a2.49 2.49 0 0 1 3.615-.097l.576.547.577-.547a2.493 2.493 0 0 1 3.81.342c.71 1.008.485 2.408-.386 3.28"/></svg>