<svg xmlns="http://www.w3.org/2000/svg" fill="none" viewBox="0 0 121 40"><path fill="#fff" d="M104.775 23.018H94.493l.998-3.995h10.283l2.82-11.399h4.524l-2.82 11.399h10.282l-.999 3.995h-10.282l-2.879 11.458h-4.524z"/><path fill="#fff" d="M80.178.985q3.877 0 6.287 1.704 2.408 1.645 3.525 4.465 1.175 2.82 1.175 6.346 0 3.172-.764 6.64a36.5 36.5 0 0 1-2.233 6.815 28 28 0 0 1-3.642 6.11q-2.174 2.704-4.995 4.466-2.35 1.41-4.641 1.88t-4.29.47q-3.936 0-6.463-1.586-2.468-1.587-3.643-4.348t-1.233-6.287q0-3.232.822-6.757a33 33 0 0 1 2.468-6.992 30.2 30.2 0 0 1 3.995-6.228q2.351-2.82 5.347-4.524 2.057-1.176 3.995-1.645 1.94-.53 4.29-.53m-.06 1.41q-1.585 0-2.937.94-1.293.882-2.703 2.703-1.292 1.704-2.526 4.172a55 55 0 0 0-2.174 5.288 70 70 0 0 0-1.763 5.758 56 56 0 0 0-1.175 5.64q-.411 2.703-.411 4.818 0 3.173.999 4.936t3.349 1.762q1.645 0 2.938-.88 1.35-.883 2.702-2.821 1.234-1.762 2.35-4.23a58 58 0 0 0 2.175-5.406 64 64 0 0 0 1.703-5.935q.764-2.996 1.175-5.816t.412-5.053q0-1.645-.353-2.938-.352-1.351-1.234-2.115-.822-.823-2.526-.823"/><path fill="#fff" d="M47.942.985q3.878 0 6.287 1.704 2.409 1.645 3.525 4.465 1.175 2.82 1.175 6.346 0 3.172-.763 6.64a36.5 36.5 0 0 1-2.233 6.815 28 28 0 0 1-3.643 6.11q-2.175 2.704-4.994 4.466-2.35 1.41-4.642 1.88-2.291.47-4.29.47-3.935 0-6.462-1.586-2.469-1.587-3.643-4.348-1.176-2.762-1.234-6.287 0-3.232.823-6.757a33 33 0 0 1 2.467-6.992 30.2 30.2 0 0 1 3.996-6.228q2.35-2.82 5.346-4.524 2.057-1.176 3.996-1.645 1.939-.53 4.29-.53m-.059 1.41q-1.586 0-2.937.94-1.293.882-2.703 2.703-1.293 1.704-2.527 4.172a55 55 0 0 0-2.174 5.288 70 70 0 0 0-1.762 5.758q-.764 2.937-1.175 5.64t-.412 4.818q0 3.173 1 4.936.997 1.762 3.348 1.762 1.645 0 2.938-.88 1.35-.883 2.703-2.821 1.233-1.762 2.35-4.23a58 58 0 0 0 2.174-5.406 64 64 0 0 0 1.704-5.935q.764-2.996 1.175-5.816t.411-5.053q0-1.645-.352-2.938-.353-1.351-1.234-2.115-.822-.823-2.527-.823"/><path fill="#fff" d="m24.285 37.825-.352 1.292q-.765 0-2.116-.058-1.292 0-2.996-.059H5.189q-1.468.06-2.644.059-1.175.059-1.939.059l.353-1.293a231 231 0 0 0 3.173-.118 21 21 0 0 0 2.232-.293q1.058-.177 1.646-.706.586-.587 1.116-2.291L17.528 5.45q.177-.528 0-.764-.117-.293-.587-.352-.588-.06-1.704-.059a48.258 48.258 0 0 0-4.76 0l.47-1.292q2.35-.177 4.76-.412t4.641-.47q2.233-.294 3.937-.529 1.704-.293 2.585-.528l.235.235q-.41 1.292-1.057 3.407-.646 2.057-1.47 4.583L17.47 34.36q-.47 1.644-.235 2.232.294.528 1.117.764.587.059 1.469.176a25 25 0 0 0 1.997.176q1.176.06 2.468.118"/></svg>