<svg xmlns="http://www.w3.org/2000/svg" fill="none" viewBox="0 0 105 13"><path fill="#fff" d="M13.033 12.115V.225h5.709v1.59h-4.06v3.568h4.06v1.59h-4.06v5.142z"/><path fill="#fff" d="M19.978 12.115V.225h1.649v11.89z"/><path fill="#fff" d="M22.802 12.115V.225h1.649v10.3h3.922v1.59z"/><path fill="#fff" d="M44.935 12.115 38.707 2.94h-.03v9.175h-1.222L31.228 2.94h-.03v9.175h-1.65V.225h1.71l5.74 8.243h.03V.225h1.71l8.288 11.89z"/><path fill="#fff" d="M50.007 12.115V.225h3.816c1.206-.016 2.106.16 2.701.45 1.222.594 1.985 1.96 1.985 3.567 0 2.201-1.16 4.145-4.396 4.145H52.77v3.728zm3.999-6.395c1.16 0 1.74-.418 1.74-1.43 0-.964-.565-1.398-1.847-1.398h-1.13V5.72z"/><path fill="#fff" d="M59.322 12.115V.225h2.885v9.223h3.343v2.667z"/><path fill="#fff" d="m74.578 12.115.016-1.301h-.03c-.78 1.012-2.016 1.526-3.618 1.526-3.267 0-5.389-2.876-5.389-6.122C65.557 2.796 67.74 0 70.946 0c1.587 0 3.022.578 3.617 1.478h.03L74.579.225h2.885v11.89zm.016-5.929c0-1.767-1.176-3.519-3.084-3.519-1.862 0-3.068 1.51-3.068 3.47 0 1.993 1.221 3.536 3.114 3.536 1.847 0 3.038-1.687 3.038-3.487"/><path fill="#fff" d="M85.867 12.115 81.53 4.853l.077 7.262h-2.763V.225h2.488l4.396 7.52-.122-7.52h2.763v11.89z"/><path fill="#fff" d="M89.752 12.115V.225h6.273v2.667h-3.51V4.74h3.403v2.667h-3.404v2.04h3.511v2.668z"/><path fill="#fff" d="M99.287 12.115V2.892h-2.229V.225h7.327v2.667h-2.214v9.223z"/><path fill="#fff" d="M0 1.325v9.689c0 .864.9 1.39 1.591.93l7.262-4.845c.646-.431.646-1.428 0-1.859L1.591.396C.9-.065 0 .46 0 1.326"/></svg>