<svg xmlns="http://www.w3.org/2000/svg" fill="none" viewBox="0 0 166 78"><path fill="#fff" d="M34.042 21h-4.71V6.455h4.859q2.138 0 3.672.873 1.533.867 2.35 2.493.825 1.62.824 3.885 0 2.273-.83 3.906a5.83 5.83 0 0 1-2.387 2.514Q36.257 21 34.042 21m-2.515-1.918h2.394q1.662 0 2.763-.625a3.94 3.94 0 0 0 1.647-1.825q.547-1.2.547-2.926 0-1.712-.547-2.905-.54-1.193-1.612-1.81-1.073-.62-2.663-.619h-2.529zm14.844 2.16q-1.038 0-1.875-.384a3.16 3.16 0 0 1-1.329-1.13q-.483-.738-.483-1.81 0-.924.356-1.52a2.6 2.6 0 0 1 .959-.945 5 5 0 0 1 1.349-.525 13 13 0 0 1 1.52-.27l1.59-.185q.612-.078.889-.249.276-.17.276-.553v-.05q0-.93-.525-1.442-.519-.51-1.548-.511-1.073 0-1.69.476-.612.468-.846 1.043l-1.996-.454q.356-.994 1.037-1.605.69-.618 1.584-.895a6.2 6.2 0 0 1 1.882-.284q.654 0 1.385.156.74.15 1.378.554.646.405 1.058 1.158.412.745.412 1.939V21H49.68v-1.491h-.085a3 3 0 0 1-.618.81 3.3 3.3 0 0 1-1.058.66q-.646.262-1.548.262m.461-1.705q.881 0 1.506-.348.632-.348.959-.91.334-.567.334-1.214V15.66q-.114.114-.44.213a7 7 0 0 1-.732.163q-.412.064-.803.121l-.653.085q-.618.079-1.13.263-.504.184-.81.533-.297.34-.297.909 0 .788.582 1.193.582.398 1.484.398M54.182 21V10.09h2.053v1.734h.114a2.64 2.64 0 0 1 1.051-1.385 3 3 0 0 1 1.719-.511 9 9 0 0 1 .902.05v2.03a4 4 0 0 0-.455-.078 4.3 4.3 0 0 0-.653-.05q-.753 0-1.343.32a2.38 2.38 0 0 0-1.264 2.138V21zm7.276 0V10.09h2.039v1.777h.135a2.82 2.82 0 0 1 1.115-1.407q.774-.51 1.853-.511 1.094 0 1.833.511.746.512 1.1 1.406h.114a3.07 3.07 0 0 1 1.243-1.392q.852-.525 2.031-.525 1.485 0 2.422.93.945.93.945 2.806V21h-2.124v-7.116q0-1.109-.603-1.606-.604-.497-1.442-.497-1.037 0-1.612.64-.576.63-.576 1.626V21h-2.116v-7.251q0-.888-.554-1.428-.555-.54-1.442-.54-.603 0-1.115.32-.504.313-.817.873-.305.562-.305 1.3V21zm21.871.22q-1.534 0-2.677-.703-1.144-.704-1.776-1.967t-.632-2.955q0-1.697.632-2.969.632-1.27 1.776-1.974 1.144-.703 2.677-.703 1.535 0 2.678.703 1.143.704 1.775 1.974.633 1.272.633 2.97 0 1.689-.633 2.954-.631 1.263-1.775 1.967-1.143.703-2.678.703m.008-1.782q.994 0 1.647-.526.654-.525.966-1.4.32-.873.32-1.924 0-1.044-.32-1.917-.312-.882-.966-1.414-.653-.533-1.647-.533-1.002 0-1.663.533-.653.532-.973 1.414a5.7 5.7 0 0 0-.312 1.917q0 1.05.313 1.925.32.874.972 1.399.66.526 1.662.526M92.418 21l-3.21-10.91h2.194l2.138 8.012h.107l2.145-8.011h2.194l2.131 7.976h.106l2.124-7.976h2.195L101.338 21h-2.166l-2.216-7.876h-.163L94.577 21zm15.081 4.09q-.476 0-.866-.077a2.7 2.7 0 0 1-.583-.157l.512-1.74q.582.158 1.037.135a1.24 1.24 0 0 0 .802-.34q.355-.32.625-1.045l.263-.724-3.992-11.051h2.273l2.763 8.466h.114l2.762-8.466h2.28l-4.496 12.365a4.9 4.9 0 0 1-.795 1.442 3.1 3.1 0 0 1-1.151.895q-.667.297-1.548.298m13.81-3.87q-1.584 0-2.727-.717a4.74 4.74 0 0 1-1.747-1.996q-.612-1.27-.611-2.912 0-1.662.625-2.933.625-1.279 1.761-1.996t2.678-.717q1.242 0 2.216.462.973.455 1.569 1.278.604.824.718 1.925h-2.067a2.48 2.48 0 0 0-.781-1.321q-.604-.554-1.62-.554-.888 0-1.555.468-.66.463-1.03 1.321-.369.852-.369 2.018 0 1.193.362 2.06.362.865 1.023 1.341.668.476 1.569.476a2.6 2.6 0 0 0 1.094-.22 2.24 2.24 0 0 0 .831-.646q.34-.42.476-1.009h2.067a4 4 0 0 1-.689 1.89 3.97 3.97 0 0 1-1.542 1.306q-.958.477-2.251.476m8.476-6.697V21h-2.123V6.455h2.095v5.412h.135a3.13 3.13 0 0 1 1.172-1.4q.788-.518 2.059-.518 1.123 0 1.96.462.845.461 1.307 1.377.47.91.469 2.273V21h-2.124v-6.683q0-1.2-.617-1.861-.618-.668-1.719-.668-.753 0-1.35.32a2.3 2.3 0 0 0-.93.938q-.334.611-.334 1.477M13.697 47V32.441h-5.59V30.44h13.617v2.001h-5.59V47zm10.01 0V30.44h2.438V47zm10.971 0V30.44h2.439V47zm-9.774-9.637H35.76v2.024H24.904zM40.048 47V30.44h6.532q1.793 0 3.059.598 1.265.575 1.955 1.633.69 1.035.69 2.461t-.69 2.484-1.955 1.656-3.06.598h-4.691v-1.978h4.623q1.656 0 2.507-.713.874-.735.874-2.024 0-1.288-.851-2.001t-2.53-.713h-4.025V47zm9.568 0-8.073-8.349h2.967L53.112 47zm5.178 0V30.44h2.438V47zm5.38 0V30.44h2.438V47zm1.196 0v-2.001h9.568V47zm11.888 0V30.44h2.438V47zm1.196 0v-2.001h9.568V47zm11.888 0V30.44h2.438V47zm1.196 0v-2.001h10.304V47zm0-7.567v-2.001h9.476v2.001zm0-6.992V30.44h10.097v2.001zM99.898 47V30.44h6.531q1.794 0 3.059.598 1.266.575 1.955 1.633.69 1.035.69 2.461t-.69 2.484-1.955 1.656-3.059.598h-4.692v-1.978h4.623q1.656 0 2.507-.713.874-.735.874-2.024 0-1.288-.851-2.001-.85-.713-2.53-.713h-4.025V47zm9.567 0-8.073-8.349h2.967L112.961 47zm12.337.23q-1.77 0-3.243-.621a7.7 7.7 0 0 1-2.553-1.794 8.5 8.5 0 0 1-1.702-2.714q-.597-1.564-.598-3.45 0-2.484 1.035-4.393 1.035-1.91 2.852-2.967 1.84-1.08 4.186-1.081 2.392 0 4.209 1.081 1.818 1.058 2.852 2.967 1.058 1.91 1.058 4.416 0 1.863-.621 3.45a8.2 8.2 0 0 1-1.679 2.714 7.8 7.8 0 0 1-2.576 1.771q-1.471.621-3.22.621m-.023-2.07q1.656 0 2.921-.828 1.266-.851 1.978-2.323.736-1.471.736-3.381 0-1.885-.713-3.312-.712-1.45-1.978-2.231-1.264-.805-2.944-.805-1.678 0-2.944.805-1.242.782-1.955 2.208-.69 1.425-.69 3.335 0 1.932.713 3.404t1.955 2.3q1.265.828 2.921.828m.253-16.399h-2.185l2.484-3.611h3.404zM135.372 47l-4.807-16.56h2.484l4.209 15.249h-.598l4.002-15.249h2.875l4.025 15.249h-.598l4.209-15.249h2.346L148.712 47h-2.852l-4.048-14.835h.483L138.224 47zM1.757 73V56.44h2.438V73zm9.457 0V56.44h2.438V73zm1.932-8.602 8.21-7.958h3.336l-8.487 7.958zM21.725 73 13.1 64.398h3.105L25.152 73zm4.908 0V56.44h6.532q1.794 0 3.06.598 1.264.575 1.954 1.633.69 1.035.69 2.461t-.69 2.484-1.955 1.656-3.059.598h-4.692v-1.978h4.623q1.656 0 2.507-.713.874-.735.874-2.024 0-1.288-.85-2.001-.852-.713-2.53-.713H29.07V73zm9.568 0-8.073-8.349h2.967L39.697 73zm9.204 0v-7.222l-6.233-9.338h2.944l5.267 8.234h-1.265l5.267-8.234h2.691l-6.233 9.338V73zm10.384 0V56.44h3.772l5.52 15.962h-1.242l5.474-15.962h3.818V73h-2.415V57.429h.368L65.748 73h-2.714l-5.336-15.433h.368V73zm20.294 0V56.44h2.438V73zm5.38 0V56.44h2.829l8.786 14.168-.552.115V56.44h2.346V73h-2.83l-8.785-14.168.552-.115V73zm15.397 0 6.233-16.56h2.116L99.252 73zm12.811 0-5.957-16.56h2.231L112.201 73zm-9.66-6.601h8.878v2.024h-8.878zm15.742-1.173-3.266 1.311V64.72l3.243-1.288zm-.023-1.932 4.393-1.794v1.794l-4.37 1.794zM114.258 73V56.44h2.438V73zm1.196 0v-2.001h9.568V73zm17.742.23q-1.772 0-3.243-.621a7.7 7.7 0 0 1-2.553-1.794 8.5 8.5 0 0 1-1.702-2.714q-.598-1.565-.598-3.45 0-2.484 1.035-4.393 1.035-1.91 2.852-2.967 1.84-1.08 4.186-1.081 2.392 0 4.209 1.081 1.817 1.058 2.852 2.967 1.058 1.91 1.058 4.416 0 1.863-.621 3.45a8.2 8.2 0 0 1-1.679 2.714 7.8 7.8 0 0 1-2.576 1.771q-1.472.621-3.22.621m-.023-2.07q1.656 0 2.921-.828 1.265-.851 1.978-2.323.736-1.472.736-3.381 0-1.885-.713-3.312-.713-1.45-1.978-2.231-1.265-.805-2.944-.805t-2.944.805q-1.242.782-1.955 2.208-.69 1.425-.69 3.335 0 1.932.713 3.404t1.955 2.3q1.265.828 2.921.828m.253-16.399h-2.185l2.484-3.611h3.404zM146.766 73l-4.807-16.56h2.484l4.209 15.249h-.598l4.002-15.249h2.875l4.025 15.249h-.598l4.209-15.249h2.346L160.106 73h-2.852l-4.048-14.835h.483L149.618 73z"/></svg>