<svg xmlns="http://www.w3.org/2000/svg" fill="none" viewBox="0 0 115 46"><path fill="#fff" d="M5.369 40.912q.131-.46.241-1.142.132-.682.22-1.692.088-1.012.132-2.395.044-1.408.044-3.274V18.105q0-1.868-.264-2.967t-.637-1.692q-.352-.592-.747-.857a10 10 0 0 1-.637-.483v-.088l6.745-2.527v.088q-.132.462-.263 1.143-.111.681-.198 1.713-.088 1.011-.132 2.417-.044 1.384-.044 3.253v14.304q0 1.867.044 3.274.044 1.383.132 2.395.087 1.01.197 1.691.132.682.264 1.143V41H5.37zm13.514-15.49q0 1.8.461 3.471.462 1.67 1.274 3.142a13.6 13.6 0 0 0 2 2.659 13 13 0 0 0 2.615 2.065q1.45.858 3.098 1.34 1.648.462 3.45.462 1.8 0 3.45-.461a13 13 0 0 0 3.097-1.34 12.3 12.3 0 0 0 2.615-2.066 13.6 13.6 0 0 0 2-2.659 13.8 13.8 0 0 0 1.296-3.142q.462-1.67.462-3.472 0-2.702-1.011-5.075a13.2 13.2 0 0 0-2.769-4.175 12.7 12.7 0 0 0-4.087-2.835q-2.351-1.054-5.053-1.054t-5.054 1.054a13 13 0 0 0-4.109 2.835 13.3 13.3 0 0 0-2.747 4.175q-.988 2.373-.988 5.075m-3.428-.088q0-2.242.571-4.33a16.7 16.7 0 0 1 1.648-3.888 16.6 16.6 0 0 1 2.57-3.318 16.3 16.3 0 0 1 3.297-2.549 16 16 0 0 1 3.911-1.648 15.8 15.8 0 0 1 4.329-.593q2.241 0 4.328.593 2.087.57 3.911 1.648a16 16 0 0 1 3.318 2.549 16 16 0 0 1 2.549 3.318 15.5 15.5 0 0 1 1.648 3.889q.594 2.087.593 4.329 0 2.263-.593 4.35a16 16 0 0 1-1.648 3.89 16 16 0 0 1-2.549 3.317 16.6 16.6 0 0 1-3.318 2.57 16.5 16.5 0 0 1-3.91 1.627 15.8 15.8 0 0 1-4.33.593q-2.24 0-4.328-.593a16.5 16.5 0 0 1-3.911-1.626 17 17 0 0 1-3.296-2.57 16.6 16.6 0 0 1-2.57-3.319 17.3 17.3 0 0 1-1.649-3.889 16.4 16.4 0 0 1-.571-4.35m38.826.087q0 1.803.462 3.472.46 1.67 1.274 3.142a13.6 13.6 0 0 0 2 2.659 13 13 0 0 0 2.614 2.065q1.45.858 3.099 1.34 1.647.462 3.45.462 1.8 0 3.45-.461a13 13 0 0 0 3.097-1.34 12.3 12.3 0 0 0 2.615-2.066 13.6 13.6 0 0 0 2-2.659q.834-1.472 1.296-3.142.46-1.67.461-3.472 0-2.702-1.01-5.075a13.2 13.2 0 0 0-2.769-4.175 12.7 12.7 0 0 0-4.087-2.835q-2.35-1.054-5.054-1.054-2.702 0-5.053 1.054a13 13 0 0 0-4.11 2.835 13.3 13.3 0 0 0-2.746 4.175q-.989 2.373-.989 5.075m-3.427-.087q0-2.242.571-4.33a16.7 16.7 0 0 1 1.648-3.888 16.6 16.6 0 0 1 2.57-3.318A16.27 16.27 0 0 1 62.852 9.6a15.8 15.8 0 0 1 4.328-.593q2.242 0 4.329.593 2.088.57 3.911 1.648a16 16 0 0 1 3.318 2.549 16 16 0 0 1 2.549 3.318 15.5 15.5 0 0 1 1.648 3.889q.593 2.087.593 4.329 0 2.263-.593 4.35a16 16 0 0 1-1.648 3.89 16 16 0 0 1-2.549 3.317 16.6 16.6 0 0 1-3.318 2.57 16.5 16.5 0 0 1-3.911 1.627 15.8 15.8 0 0 1-4.329.593q-2.241 0-4.328-.593a16.5 16.5 0 0 1-3.911-1.626 17 17 0 0 1-3.296-2.57 16.6 16.6 0 0 1-2.571-3.319 17.3 17.3 0 0 1-1.648-3.889 16.4 16.4 0 0 1-.571-4.35m49.351 1.362v10.788h-2.263V26.696H87.153v-2.263h10.789V13.644h2.263v10.789h10.789v2.263z"/></svg>