<svg xmlns="http://www.w3.org/2000/svg" fill="none" viewBox="0 0 206 66"><path fill="#fff" d="m0 24.976.725-6.961h4.463l-2.24 6.96zm6.365 0 .725-6.961h4.463l-2.24 6.96zm9.362-2.37V.597h4.157v8.846h10.925V.596h4.157v22.01h-4.157v-9.474H19.884v9.475zm22.735-7.927q0-1.709.564-3.174a7.8 7.8 0 0 1 1.612-2.546 7.6 7.6 0 0 1 2.481-1.724q1.45-.63 3.19-.629 2.111 0 3.578.774t2.352 2.03a8.1 8.1 0 0 1 1.29 2.836q.402 1.579.402 3.239v.548H42.378q0 .854.387 1.563.386.694.983 1.192.612.483 1.385.757a5 5 0 0 0 1.547.258q1.128 0 1.966-.21a8.6 8.6 0 0 0 1.418-.499 5.4 5.4 0 0 0 1.563-1.112l2.11 2.385-.547.548q-.435.435-1.29.935-.837.5-2.142.886-1.305.402-3.11.403-1.853 0-3.368-.629a7.8 7.8 0 0 1-2.594-1.724 7.6 7.6 0 0 1-1.66-2.659q-.564-1.563-.564-3.448m3.884-1.45h7.59q0-.596-.227-1.176a3.3 3.3 0 0 0-.676-1.08 3.4 3.4 0 0 0-1.144-.79q-.693-.322-1.58-.322-.95 0-1.691.323a3.9 3.9 0 0 0-1.241.79 3.6 3.6 0 0 0-.774 1.079q-.257.596-.257 1.176m12.842-6.107h4.496l4.415 10.603 3.899-10.603h4.254L65.79 22.607q-.467 1.16-.934 2.369-.45 1.224-1.128 2.255a5.8 5.8 0 0 1-1.676 1.708q-.982.66-2.497.661-1.322 0-2.208-.322a4.8 4.8 0 0 1-1.53-.87l1.756-2.74q.322.258.709.516.402.258.999.258.789 0 1.305-.66.516-.661 1.08-2.047l.483-1.257zm24.218 11.956 2.917-2.675q.403.468.934.983.549.5 1.225.95.677.436 1.515.742.838.29 1.9.29 1.95 0 2.885-.886t.935-2.143a2.9 2.9 0 0 0-.258-1.24q-.258-.549-.886-.951-.63-.42-1.644-.742-.999-.338-2.481-.628-1.514-.29-2.627-.919-1.11-.645-1.837-1.498a6 6 0 0 1-1.095-1.885 6.6 6.6 0 0 1-.355-2.143q0-1.257.451-2.385a5.55 5.55 0 0 1 1.418-2.014q.967-.87 2.401-1.402T88.188 0q1.756 0 2.997.403 1.257.387 2.095.918.854.532 1.305 1.048.468.5.677.74l-2.74 2.563a13 13 0 0 1-.531-.467 5 5 0 0 0-.919-.677 6 6 0 0 0-1.305-.596q-.757-.274-1.708-.274-.854 0-1.482.241-.629.226-1.048.597a2.4 2.4 0 0 0-.612.805 2.1 2.1 0 0 0-.193.838q0 .596.21 1.064.225.45.724.854.516.386 1.402.709.903.306 2.256.58 1.29.258 2.465.79a7.6 7.6 0 0 1 2.095 1.369 6 6 0 0 1 1.45 2.046q.548 1.208.548 2.885 0 1.45-.596 2.674a6.5 6.5 0 0 1-1.644 2.143q-1.047.918-2.513 1.435-1.45.515-3.159.515-1.643 0-2.98-.403a11.2 11.2 0 0 1-2.418-.999 10.4 10.4 0 0 1-1.853-1.337q-.772-.725-1.305-1.386M99.87 29.213V7.123h3.755l.096 1.755q.291-.321.741-.692a5.1 5.1 0 0 1 1.064-.661q.612-.29 1.386-.484a6.7 6.7 0 0 1 1.74-.209q1.788 0 3.077.693a6.4 6.4 0 0 1 2.16 1.837 8 8 0 0 1 1.289 2.594q.435 1.45.435 2.997 0 1.82-.532 3.11a9 9 0 0 1-1.321 2.24q-1.322 1.578-2.885 2.207a8.6 8.6 0 0 1-3.222.629q-.758 0-1.305-.065a6.3 6.3 0 0 1-.999-.193 8 8 0 0 1-.822-.258 48 48 0 0 0-.806-.306v6.896zm3.851-10.409q1.16.95 3.497.967 1.063 0 1.885-.403a4.54 4.54 0 0 0 2.272-2.626q.306-.87.306-1.789a7.2 7.2 0 0 0-.225-1.837 4.1 4.1 0 0 0-.693-1.514 3.25 3.25 0 0 0-1.225-1.016q-.757-.386-1.885-.386-.886 0-1.611.386a4.1 4.1 0 0 0-1.241.967 4.7 4.7 0 0 0-.806 1.305q-.274.71-.274 1.37zm14.277-4.125q0-1.709.564-3.174a7.8 7.8 0 0 1 1.611-2.546 7.6 7.6 0 0 1 2.481-1.724q1.45-.63 3.191-.629 2.11 0 3.577.774 1.466.774 2.352 2.03a8.1 8.1 0 0 1 1.289 2.836 13 13 0 0 1 .403 3.239v.548h-11.553q0 .854.387 1.563.386.694.983 1.192.612.483 1.385.757a5 5 0 0 0 1.547.258q1.129 0 1.966-.21a8.6 8.6 0 0 0 1.418-.499 5.4 5.4 0 0 0 1.563-1.112l2.111 2.385-.548.548q-.435.435-1.289.935-.838.5-2.143.886-1.305.402-3.11.403-1.853 0-3.368-.629a7.8 7.8 0 0 1-2.594-1.724 7.6 7.6 0 0 1-1.659-2.659q-.564-1.563-.564-3.448m3.883-1.45h7.589q0-.596-.225-1.176a3.3 3.3 0 0 0-.677-1.08 3.45 3.45 0 0 0-1.144-.79q-.693-.322-1.579-.322-.951 0-1.692.323a3.9 3.9 0 0 0-1.241.79 3.6 3.6 0 0 0-.773 1.079q-.258.596-.258 1.176m13.599 4.85q0-1.32.5-2.352a4.94 4.94 0 0 1 1.386-1.757q.886-.708 2.143-1.063 1.257-.37 2.771-.37a37 37 0 0 1 2.111.064q.597.032 1.225.08v-.37q0-1.16-.935-1.821-.918-.66-2.401-.66-1.643 0-2.642.434-.984.435-1.741.919l-1.788-2.627q.467-.322 1.063-.677.597-.354 1.386-.628.789-.29 1.821-.467 1.047-.177 2.433-.178 1.482 0 2.691.42 1.209.403 2.062 1.143.854.741 1.322 1.789a5.4 5.4 0 0 1 .467 2.256v10.393h-3.642l-.096-1.45q-.628.758-1.918 1.353-1.289.596-2.868.596a6.2 6.2 0 0 1-1.901-.306 5.2 5.2 0 0 1-1.708-.902 4.6 4.6 0 0 1-1.257-1.563q-.484-.967-.484-2.256m3.739-.161q0 .982.709 1.547.709.564 2.094.564.693 0 1.338-.226t1.128-.628q.5-.403.805-.919a2.14 2.14 0 0 0 .323-1.128v-1.514l-1.16-.065a26 26 0 0 0-.983-.048q-.5-.015-.854-.016-1.886 0-2.643.741t-.757 1.692m13.889 4.689V.597h3.884V12.6l5.591-5.479h4.576l-5.801 5.72 6.462 9.765h-4.657l-4.479-7.122-1.692 1.643v5.479zm16.162-7.928q0-1.709.564-3.174a7.8 7.8 0 0 1 1.611-2.546 7.6 7.6 0 0 1 2.482-1.724q1.45-.63 3.19-.629 2.111 0 3.577.774 1.467.774 2.353 2.03a8.1 8.1 0 0 1 1.289 2.836q.402 1.579.403 3.239v.548h-11.553q0 .854.386 1.563.387.694.983 1.192a4.8 4.8 0 0 0 1.386.757 5 5 0 0 0 1.547.258q1.128 0 1.966-.21a8.6 8.6 0 0 0 1.418-.499 5.4 5.4 0 0 0 1.563-1.112l2.11 2.385-.547.548q-.435.435-1.29.935-.837.5-2.143.886-1.305.402-3.109.403-1.853 0-3.368-.629a7.8 7.8 0 0 1-2.594-1.724 7.6 7.6 0 0 1-1.66-2.659q-.564-1.563-.564-3.448m3.883-1.45h7.59q0-.596-.226-1.176a3.3 3.3 0 0 0-.677-1.08 3.4 3.4 0 0 0-1.144-.79q-.693-.322-1.579-.322-.951 0-1.692.323a3.9 3.9 0 0 0-1.24.79 3.6 3.6 0 0 0-.774 1.079q-.258.596-.258 1.176m14.599 9.378V7.122h3.722l.097 1.95a6.6 6.6 0 0 1 .677-.71q.418-.402.982-.724a6.4 6.4 0 0 1 1.306-.58q.741-.243 1.692-.226.564 0 .999.064.45.065.918.226l-.79 3.674a3.7 3.7 0 0 0-.821-.226 5 5 0 0 0-.967-.08q-.789 0-1.515.274a3.6 3.6 0 0 0-1.257.757q-.531.5-.854 1.192a3.8 3.8 0 0 0-.306 1.547v8.347zm12.923 0v-4.56h4.721v4.56zm.209-22.01h4.319l-.065 15.113h-4.189zM35.24 55.077l2.916-2.675q.403.468.935.983.548.5 1.224.95.678.436 1.515.742.839.29 1.901.29 1.95 0 2.885-.886.934-.885.934-2.143a2.9 2.9 0 0 0-.258-1.24q-.257-.549-.886-.951-.628-.42-1.643-.742-.999-.338-2.482-.628-1.515-.29-2.626-.919-1.112-.645-1.837-1.498a6 6 0 0 1-1.096-1.885 6.6 6.6 0 0 1-.354-2.143q0-1.257.45-2.385a5.56 5.56 0 0 1 1.419-2.014q.967-.87 2.4-1.402Q42.073 36 44.023 36q1.756 0 2.997.403 1.256.387 2.094.918.855.532 1.306 1.048.467.5.676.74l-2.739 2.563a13 13 0 0 1-.532-.467 5 5 0 0 0-.918-.677 6 6 0 0 0-1.305-.596q-.758-.274-1.708-.274-.855 0-1.483.241-.629.226-1.047.597a2.4 2.4 0 0 0-.612.805 2.1 2.1 0 0 0-.194.838q0 .597.21 1.064.225.45.725.854.514.387 1.402.709.902.306 2.255.58 1.29.258 2.466.79a7.6 7.6 0 0 1 2.094 1.369 6 6 0 0 1 1.45 2.046q.549 1.209.549 2.884 0 1.45-.597 2.675a6.5 6.5 0 0 1-1.643 2.143q-1.048.919-2.514 1.435-1.45.515-3.158.515-1.644 0-2.981-.403a11.2 11.2 0 0 1-2.417-.999 10.4 10.4 0 0 1-1.853-1.337q-.773-.724-1.305-1.386m20.464 10.135v-22.09h3.754l.097 1.755a7 7 0 0 1 .74-.693q.453-.37 1.064-.66.613-.291 1.386-.483a6.7 6.7 0 0 1 1.74-.21q1.79 0 3.078.693a6.4 6.4 0 0 1 2.16 1.837q.853 1.127 1.288 2.594.435 1.45.435 2.997 0 1.82-.531 3.11a9 9 0 0 1-1.322 2.24q-1.32 1.579-2.884 2.207a8.6 8.6 0 0 1-3.223.629q-.758 0-1.305-.065a6.4 6.4 0 0 1-.999-.193 8 8 0 0 1-.822-.258 48 48 0 0 0-.805-.306v6.896zm3.85-10.409q1.161.95 3.497.967 1.065 0 1.885-.403a4.5 4.5 0 0 0 1.402-1.096q.58-.676.87-1.53.307-.87.307-1.789 0-.983-.226-1.837a4.1 4.1 0 0 0-.693-1.514 3.24 3.24 0 0 0-1.224-1.016q-.758-.386-1.886-.386a3.4 3.4 0 0 0-1.611.386q-.725.372-1.24.967a4.7 4.7 0 0 0-.806 1.305q-.274.71-.274 1.37zM74.589 40.69v-4.093h4.158v4.093zm.13 17.918V43.122h3.899v15.485zm7.17-7.928q0-1.709.564-3.174a7.8 7.8 0 0 1 1.611-2.546 7.6 7.6 0 0 1 2.481-1.724q1.45-.63 3.19-.629 2.111 0 3.578.774 1.467.773 2.353 2.03a8.1 8.1 0 0 1 1.289 2.836q.402 1.579.402 3.239v.548H85.803q0 .854.387 1.563.386.694.983 1.192.612.484 1.386.757a5 5 0 0 0 1.547.258q1.127 0 1.965-.21a8.6 8.6 0 0 0 1.418-.499 5.4 5.4 0 0 0 1.563-1.112l2.111 2.385-.548.548q-.435.435-1.289.935-.838.5-2.143.886-1.305.402-3.11.403-1.853 0-3.367-.629a7.8 7.8 0 0 1-2.595-1.724 7.6 7.6 0 0 1-1.66-2.659q-.563-1.563-.563-3.448m3.883-1.45h7.59q0-.597-.226-1.176a3.3 3.3 0 0 0-.677-1.08 3.4 3.4 0 0 0-1.144-.79q-.692-.322-1.58-.322-.95 0-1.691.323a3.9 3.9 0 0 0-1.24.79q-.501.482-.774 1.079-.258.596-.258 1.176m14.599 9.378v-22.01h3.883v22.01zm7.009-7.928q0-1.709.564-3.174a7.8 7.8 0 0 1 1.611-2.546 7.6 7.6 0 0 1 2.482-1.724q1.45-.63 3.19-.629 2.111 0 3.577.774 1.467.773 2.353 2.03a8.1 8.1 0 0 1 1.289 2.836q.403 1.579.403 3.239v.548h-11.554q0 .854.387 1.563.387.694.983 1.192a4.8 4.8 0 0 0 1.386.757 5 5 0 0 0 1.547.258q1.128 0 1.965-.21a8.5 8.5 0 0 0 1.418-.499 5.3 5.3 0 0 0 1.563-1.112l2.111 2.385-.548.548q-.434.435-1.289.935-.838.5-2.143.886-1.305.402-3.11.403-1.852 0-3.367-.629a7.8 7.8 0 0 1-2.594-1.724 7.6 7.6 0 0 1-1.66-2.659q-.564-1.563-.564-3.448m3.883-1.45h7.59q0-.597-.226-1.176a3.3 3.3 0 0 0-.677-1.08 3.45 3.45 0 0 0-1.144-.79q-.693-.322-1.579-.322-.951 0-1.692.323a3.9 3.9 0 0 0-1.241.79q-.499.482-.773 1.079-.258.596-.258 1.176m20.883 9.378v-4.56h4.721v4.56zm8.476 0v-4.56h4.721v4.56zm8.588 0v-4.56h4.721v4.56zm8.443-15.018 2.256-6.96h2.933l-.725 6.96zm6.268 0 2.256-6.96h2.933l-.725 6.96z"/></svg>