<svg xmlns="http://www.w3.org/2000/svg" fill="none" viewBox="0 0 323 60"><rect width="323" height="60" fill="#fff"/><g clip-path="url(#a)"><path fill="#008f20" d="M84.857 16.714h-15.75v24.429h15.75z"/><path fill="#0065b1" d="M69.11 16.714h-1.287v24.429h1.286z"/><path fill="#ae0000" d="M67.82 16.714H56.573v24.429H67.82z"/><path fill="#ff8600" d="M56.57 16.714H39.207v24.429h17.365z"/><path fill="#26221e" d="M39.207 16.714H37.28v24.429h1.928z"/><path fill="#e90a0a" d="M37.279 16.714H20.571v24.429H37.28z"/><g fill="#fff"><path d="M40.537 29.563v4.414h-2.206v-4.071c0-1.247-.551-1.82-1.442-1.82-.99 0-1.683.644-1.683 2.02v3.873H33v-4.071c0-1.248-.523-1.82-1.442-1.82-.98 0-1.666.644-1.666 2.02v3.873h-2.209v-5.994h-.848v-1.72h2.616l.113 1.192c.551-.848 1.499-1.31 2.616-1.31 1.061 0 1.966.415 2.504 1.26.608-.787 1.597-1.26 2.744-1.26 1.81 0 3.111 1.06 3.111 3.41"/><path d="M51.088 31.24c0 1.734-1.358 2.737-3.96 2.737h-4.865v-8.143h-1.046v-1.888h5.629c2.474 0 3.747 1.045 3.747 2.608.01.457-.11.906-.342 1.297s-.57.706-.973.91c1.103.358 1.81 1.218 1.81 2.482zm-6.548-5.546v2.365h2.022c1.117 0 1.726-.398 1.726-1.192s-.609-1.175-1.726-1.175zm4.23 5.302c0-.845-.623-1.246-1.812-1.246H44.54v2.482h2.418c1.189 0 1.811-.373 1.811-1.233"/><path d="M60.054 26.267v7.71h-2.107v-.894c-.551.675-1.358 1.004-2.376 1.004-2.149 0-3.804-1.548-3.804-3.972s1.655-3.972 3.804-3.972c.934 0 1.726.298 2.278.932v-.808zm-2.163 3.853c0-1.332-.849-2.135-1.938-2.135s-1.952.803-1.952 2.135c0 1.333.849 2.135 1.952 2.135 1.104 0 1.938-.802 1.938-2.135"/><path d="M69.729 29.563v4.414h-2.207v-4.071c0-1.247-.566-1.82-1.542-1.82-1.06 0-1.824.659-1.824 2.077v3.812H61.95v-5.988H61.1v-1.72h2.617l.112 1.204c.58-.86 1.568-1.319 2.744-1.319 1.797 0 3.155 1.06 3.155 3.411"/><path d="M79.034 33.977h-2.503l-2.15-3.338h-1.019v3.338h-2.206V23.344h2.206v5.589h1.02l2.036-2.666h2.46L76.29 29.65z"/></g></g><g fill="#000"><path d="M307.858 34.368c0 .13-.022.317-.032.459h-4.448c.164.732.786 1.18 1.683 1.18.623 0 1.071-.186 1.475-.568l.907.983c-.546.623-1.366.951-2.426.951-2.033 0-3.355-1.279-3.355-3.027 0-1.76 1.344-3.027 3.136-3.027 1.727 0 3.06 1.158 3.06 3.049m-3.049-1.76c-.776 0-1.333.47-1.453 1.224h2.896c-.12-.743-.678-1.224-1.443-1.224"/><path d="M298.815 31.406h1.705v5.88h-1.618v-.7c-.448.514-1.104.787-1.825.787-1.475 0-2.514-.83-2.514-2.645v-3.322h1.705v3.071c0 .984.437 1.42 1.192 1.42.786 0 1.355-.502 1.355-1.584z"/><path d="M290.981 37.373c-1.913 0-3.279-1.257-3.279-3.027s1.366-3.027 3.279-3.027c1.235 0 2.208.535 2.634 1.497l-1.323.71c-.317-.557-.786-.808-1.322-.808-.863 0-1.541.6-1.541 1.628 0 1.027.678 1.628 1.541 1.628.536 0 1.005-.24 1.322-.808l1.323.72c-.426.94-1.399 1.487-2.634 1.487"/><path d="M284.312 37.373c-.995 0-2-.273-2.547-.634l.569-1.224c.524.34 1.322.569 2.043.569.787 0 1.082-.208 1.082-.536 0-.962-3.552.022-3.552-2.328 0-1.114 1.006-1.901 2.722-1.901.808 0 1.705.186 2.262.513l-.568 1.213a3.4 3.4 0 0 0-1.694-.437c-.765 0-1.093.24-1.093.547 0 1.005 3.552.032 3.552 2.35 0 1.092-1.017 1.868-2.776 1.868"/><path d="M281.199 34.368c0 .13-.022.317-.033.459h-4.448c.164.732.787 1.18 1.683 1.18.623 0 1.071-.186 1.475-.568l.907.983c-.546.623-1.366.951-2.426.951-2.032 0-3.355-1.279-3.355-3.027 0-1.76 1.344-3.027 3.137-3.027 1.726 0 3.06 1.158 3.06 3.049m-3.049-1.76c-.776 0-1.334.47-1.454 1.224h2.896c-.12-.743-.677-1.224-1.442-1.224"/><path d="M274.299 37.286h-1.902l-1.475-2.131h-1.628v2.13h-1.771v-6.207h-.83v-1.442h4.142c2.043 0 3.322 1.06 3.322 2.776 0 1.147-.579 1.989-1.574 2.415zm-1.934-4.874c0-.842-.547-1.334-1.629-1.334h-1.442v2.667h1.442c1.082 0 1.629-.503 1.629-1.333"/><path d="M264.345 32.4c.394-.71 1.181-1.081 2.197-1.081v1.65c-.142-.011-.251-.022-.372-.022-.95 0-1.573.48-1.573 1.563v2.776h-1.705v-4.568h-.656v-1.312h2.022z"/><path d="M261.615 34.368c0 .13-.022.317-.033.459h-4.448c.164.732.787 1.18 1.683 1.18.623 0 1.071-.186 1.475-.568l.907.983c-.546.623-1.366.951-2.426.951-2.032 0-3.355-1.279-3.355-3.027 0-1.76 1.344-3.027 3.137-3.027 1.726 0 3.06 1.158 3.06 3.049m-3.049-1.76c-.776 0-1.334.47-1.454 1.224h2.896c-.12-.743-.677-1.224-1.442-1.224"/><path d="M251.785 31.319c1.651 0 2.929 1.18 2.929 3.027s-1.278 3.027-2.929 3.027c-.787 0-1.42-.251-1.847-.765v.678h-1.628v-8.11h1.705v2.853c.437-.48 1.038-.71 1.77-.71m-.295 4.655c.853 0 1.497-.612 1.497-1.628s-.644-1.628-1.497-1.628c-.852 0-1.497.612-1.497 1.628s.645 1.628 1.497 1.628"/><path d="M245.016 31.406h1.705v4.896c0 2.186-1.148 3.191-3.202 3.191-1.082 0-2.131-.273-2.798-.808l.678-1.224c.481.404 1.246.655 1.989.655 1.136 0 1.628-.535 1.628-1.595v-.197c-.448.448-1.06.678-1.738.678-1.475 0-2.513-.82-2.513-2.645v-2.95h1.705v2.698c0 .995.437 1.432 1.191 1.432.787 0 1.355-.503 1.355-1.584z"/><path d="M236.67 37.417c-2.372 0-4.142-1.65-4.142-3.956s1.77-3.956 4.152-3.956c1.323 0 2.427.48 3.148 1.355l-1.137 1.049c-.513-.59-1.158-.896-1.923-.896-1.432 0-2.448 1.005-2.448 2.448 0 1.442 1.016 2.448 2.448 2.448.765 0 1.41-.306 1.923-.907l1.137 1.049c-.721.885-1.825 1.366-3.158 1.366"/><path d="M227.493 31.406h1.508l-2.131 5.88h-1.64l-1.322-3.65-1.366 3.65h-1.639l-2.121-5.88h1.607l1.388 3.978 1.442-3.978h1.443l1.399 3.978z"/><path d="m214.339 30.652 1.475-1.574h1.836l-1.978 1.574zm1.016 6.721c-1.869 0-3.235-1.257-3.235-3.027s1.366-3.027 3.235-3.027 3.224 1.256 3.224 3.027c0 1.77-1.355 3.027-3.224 3.027m0-1.399c.853 0 1.497-.612 1.497-1.628s-.644-1.628-1.497-1.628c-.852 0-1.508.612-1.508 1.628s.656 1.628 1.508 1.628"/><path d="m211.328 35.8.448 1.202c-.35.25-.864.371-1.377.371-1.399 0-2.197-.71-2.197-2.11v-5.157h1.705v1.3h1.454v1.3h-1.454v2.536c0 .503.262.776.721.776.252 0 .503-.077.7-.219"/><path d="M204.407 37.373c-.994 0-2-.273-2.546-.634l.568-1.224c.525.34 1.322.569 2.044.569.787 0 1.082-.208 1.082-.536 0-.962-3.552.022-3.552-2.328 0-1.114 1.005-1.901 2.721-1.901.809 0 1.705.186 2.262.513l-.568 1.213a3.4 3.4 0 0 0-1.694-.437c-.765 0-1.093.24-1.093.547 0 1.005 3.552.032 3.552 2.35 0 1.092-1.016 1.868-2.776 1.868"/><path d="M199.995 30.587c-.634 0-1.06-.416-1.06-.951 0-.536.426-.951 1.06-.951s1.06.393 1.06.918c0 .568-.426.983-1.06.983m-.853 6.699v-5.88h1.705v5.88z"/><path d="M195.855 37.286v-8.11h1.705v8.11z"/><path d="M192.615 31.406h1.704v5.88h-1.628v-.678c-.426.514-1.049.765-1.836.765-1.661 0-2.94-1.18-2.94-3.027s1.279-3.027 2.94-3.027c.721 0 1.333.23 1.76.71zm-1.465 4.568c.842 0 1.497-.612 1.497-1.628s-.655-1.628-1.497-1.628c-.852 0-1.508.612-1.508 1.628s.656 1.628 1.508 1.628"/><path d="M185.963 30.587c-.634 0-1.06-.416-1.06-.951 0-.536.426-.951 1.06-.951s1.06.393 1.06.918c0 .568-.426.983-1.06.983m-1.17 8.906c-.47 0-.885-.098-1.224-.328l.459-1.234c.175.13.35.207.58.207.295 0 .502-.207.502-.634v-6.098h1.705v6c0 1.29-.732 2.087-2.022 2.087"/><path d="M181.386 37.373c-1.913 0-3.279-1.257-3.279-3.027s1.366-3.027 3.279-3.027c1.235 0 2.207.535 2.634 1.497l-1.323.71c-.317-.557-.787-.808-1.322-.808-.864 0-1.541.6-1.541 1.628 0 1.027.677 1.628 1.541 1.628.535 0 1.005-.24 1.322-.808l1.323.72c-.427.94-1.399 1.487-2.634 1.487"/><path d="M177.409 34.368c0 .13-.021.317-.032.459h-4.448c.164.732.787 1.18 1.683 1.18.623 0 1.071-.186 1.475-.568l.907.983c-.546.623-1.366.951-2.426.951-2.033 0-3.355-1.279-3.355-3.027 0-1.76 1.344-3.027 3.136-3.027 1.727 0 3.06 1.158 3.06 3.049m-3.049-1.76c-.776 0-1.333.47-1.453 1.224h2.896c-.12-.743-.678-1.224-1.443-1.224"/><path d="M167.583 31.319c1.65 0 2.929 1.18 2.929 3.027s-1.279 3.027-2.929 3.027c-.732 0-1.333-.23-1.77-.71v2.743h-1.705v-6.688h-.656v-1.312h2.022l.109.885c.426-.655 1.115-.972 2-.972m-.295 4.655c.853 0 1.497-.612 1.497-1.628s-.644-1.628-1.497-1.628c-.852 0-1.497.612-1.497 1.628s.645 1.628 1.497 1.628"/><path d="M160.138 37.373c-.995 0-2-.273-2.546-.634l.568-1.224c.524.34 1.322.569 2.043.569.787 0 1.082-.208 1.082-.536 0-.962-3.551.022-3.551-2.328 0-1.114 1.005-1.901 2.721-1.901.809 0 1.705.186 2.262.513l-.568 1.213a3.4 3.4 0 0 0-1.694-.437c-.765 0-1.093.24-1.093.547 0 1.005 3.552.032 3.552 2.35 0 1.092-1.017 1.868-2.776 1.868"/><path d="m153.54 38.794.241.776c-.263.142-.689.251-1.104.251-.951 0-1.508-.492-1.508-1.224 0-.48.251-.929.798-1.311h-.066v-.678c-.426.514-1.049.765-1.836.765-1.661 0-2.94-1.18-2.94-3.027s1.279-3.027 2.94-3.027c.721 0 1.333.23 1.76.71v-.623h1.704v5.88c-.939.415-1.278.765-1.278 1.17 0 .305.24.502.623.502.24 0 .491-.066.666-.164m-3.18-2.82c.842 0 1.497-.612 1.497-1.628s-.655-1.628-1.497-1.628c-.852 0-1.508.612-1.508 1.628s.656 1.628 1.508 1.628"/><path d="M144.021 37.373c-1.912 0-3.278-1.257-3.278-3.027s1.366-3.027 3.278-3.027c1.235 0 2.208.535 2.634 1.497l-1.322.71c-.317-.557-.787-.808-1.322-.808-.864 0-1.541.6-1.541 1.628 0 1.027.677 1.628 1.541 1.628.535 0 1.005-.24 1.322-.808l1.322.72c-.426.94-1.399 1.487-2.634 1.487"/><path d="M136.817 37.373c-1.869 0-3.235-1.257-3.235-3.027s1.366-3.027 3.235-3.027 3.224 1.256 3.224 3.027c0 1.77-1.356 3.027-3.224 3.027m0-1.399c.852 0 1.497-.612 1.497-1.628s-.645-1.628-1.497-1.628-1.508.612-1.508 1.628.655 1.628 1.508 1.628"/><path d="M130.047 31.319c1.399 0 2.404.808 2.404 2.6v3.367h-1.704v-3.104c0-.95-.427-1.388-1.115-1.388-.765 0-1.301.492-1.301 1.541v2.95h-1.705v-3.103c0-.95-.404-1.388-1.114-1.388-.754 0-1.29.492-1.29 1.541v2.95h-1.705v-4.567h-.655v-1.312h2.021l.088.907c.426-.645 1.158-.994 2.022-.994.819 0 1.519.317 1.934.961.47-.6 1.235-.961 2.12-.961"/><path d="M118.012 37.373c-1.869 0-3.235-1.257-3.235-3.027s1.366-3.027 3.235-3.027 3.224 1.256 3.224 3.027c0 1.77-1.355 3.027-3.224 3.027m0-1.399c.852 0 1.497-.612 1.497-1.628s-.645-1.628-1.497-1.628-1.508.612-1.508 1.628.656 1.628 1.508 1.628"/><path d="M111.147 31.319c1.651 0 2.929 1.18 2.929 3.027s-1.278 3.027-2.929 3.027c-.732 0-1.333-.23-1.77-.71v2.743h-1.705v-6.688h-.656v-1.312h2.022l.109.885c.427-.655 1.115-.972 2-.972m-.295 4.655c.853 0 1.498-.612 1.498-1.628s-.645-1.628-1.498-1.628c-.852 0-1.497.612-1.497 1.628s.645 1.628 1.497 1.628"/><path d="M100.25 35.974h3.092v1.312h-5.245v-1.028l2.994-3.54h-2.918v-1.312h5.071v1.027z"/><path d="M254.141 18.037h.776v5.05c0 1.977-.907 2.874-2.677 2.874-.984 0-1.956-.317-2.514-.886l.394-.59c.492.492 1.246.787 2.076.787 1.333 0 1.945-.667 1.945-2.087v-.667c-.404.667-1.136 1.05-2.032 1.05-1.476 0-2.426-.82-2.426-2.47v-3.06h.776v2.983c0 1.224.633 1.847 1.726 1.847 1.202 0 1.956-.776 1.956-2.088z"/><path d="m248.025 22.879.273.557c-.295.273-.754.404-1.202.404-1.082 0-1.683-.612-1.683-1.672v-5.387h.776v1.256h1.737v.656h-1.737v3.432c0 .677.339 1.049.983 1.049.328 0 .634-.099.853-.295"/><path d="M241.997 19.261c.339-.82 1.126-1.267 2.23-1.267v.786c-.066 0-.132-.01-.186-.01-1.202 0-1.935.732-1.935 2.087v2.929h-.776v-5.093h-.808v-.656h1.42z"/><path d="M239.587 20.912c0 .065-.011.152-.011.24h-4.809c.088 1.202 1.006 2 2.263 2 .699 0 1.322-.252 1.759-.754l.437.503c-.513.611-1.311.94-2.218.94-1.793 0-3.017-1.225-3.017-2.93 0-1.704 1.192-2.917 2.809-2.917s2.787 1.19 2.787 2.918M236.8 18.66c-1.115 0-1.934.787-2.033 1.913h4.077c-.099-1.126-.918-1.913-2.044-1.913"/><path d="M232.865 16.278c-.667 0-1.016.371-1.016 1.082v.677h1.77v.656h-1.748v5.093h-.776v-5.093h-1.028v-.656h1.028v-.71c0-1.027.612-1.705 1.737-1.705.427 0 .864.12 1.148.36l-.262.58c-.219-.186-.525-.284-.853-.284"/><path d="M226.462 23.84c-1.683 0-2.929-1.224-2.929-2.928 0-1.705 1.246-2.918 2.929-2.918s2.918 1.213 2.918 2.918c0 1.704-1.235 2.928-2.918 2.928m0-.688c1.224 0 2.131-.896 2.131-2.24s-.907-2.24-2.131-2.24-2.142.895-2.142 2.24c0 1.344.918 2.24 2.142 2.24"/><path d="M219.672 20.912c0 .065-.011.152-.011.24h-4.808c.087 1.202 1.005 2 2.262 2 .699 0 1.322-.252 1.76-.754l.437.503c-.514.611-1.312.94-2.219.94-1.792 0-3.016-1.225-3.016-2.93 0-1.704 1.191-2.917 2.809-2.917 1.617 0 2.786 1.19 2.786 2.918m-2.786-2.252c-1.115 0-1.935.787-2.033 1.913h4.076c-.098-1.126-.918-1.913-2.043-1.913"/><path d="M210.182 17.994c1.399 0 2.361.808 2.361 2.459v3.333h-.776v-3.257c0-1.213-.634-1.836-1.727-1.836-1.235 0-2.011.765-2.011 2.076v3.017h-.776v-5.093h-.808v-.656h1.42l.055 1.202c.382-.786 1.191-1.245 2.262-1.245"/><path d="M204.206 18.037h.776v5.749h-.743v-1.137c-.47.776-1.268 1.191-2.219 1.191-1.639 0-2.863-1.19-2.863-2.928s1.224-2.918 2.863-2.918c.918 0 1.705.393 2.186 1.136zm-2.12 5.115c1.213 0 2.131-.896 2.131-2.24s-.918-2.24-2.131-2.24c-1.224 0-2.142.895-2.142 2.24 0 1.344.918 2.24 2.142 2.24"/><path d="M194.622 23.14h3.683v.646h-4.678v-.514l3.618-4.579h-3.552v-.656h4.546v.514z"/><path d="M190.695 19.261c.338-.82 1.125-1.267 2.229-1.267v.786c-.066 0-.131-.01-.186-.01-1.202 0-1.934.732-1.934 2.087v2.929h-.776v-5.093h-.809v-.656h1.421z"/><path d="M187.368 16.78a.563.563 0 0 1-.569-.557.56.56 0 0 1 .569-.546c.317 0 .568.24.568.535 0 .317-.24.569-.568.569m-1.104 9.18c-.426 0-.765-.12-1.049-.371l.273-.59c.219.197.415.295.721.295.448 0 .776-.306.776-.962v-6.295h.776v6.306c0 .995-.59 1.617-1.497 1.617"/><path d="M185.286 20.912c0 .065-.011.152-.011.24h-4.809c.088 1.202 1.006 2 2.263 2 .699 0 1.322-.252 1.759-.754l.437.503c-.513.611-1.311.94-2.218.94-1.793 0-3.017-1.225-3.017-2.93 0-1.704 1.192-2.917 2.809-2.917s2.787 1.19 2.787 2.918m-2.787-2.252c-1.115 0-1.934.787-2.033 1.913h4.077c-.099-1.126-.918-1.913-2.044-1.913"/><path d="M177.333 15.677h.776v8.109h-.744v-1.137c-.469.776-1.267 1.191-2.218 1.191-1.639 0-2.863-1.19-2.863-2.928s1.224-2.918 2.863-2.918c.918 0 1.705.393 2.186 1.136zm-2.12 7.475c1.213 0 2.131-.896 2.131-2.24s-.918-2.24-2.131-2.24c-1.224 0-2.142.895-2.142 2.24 0 1.344.918 2.24 2.142 2.24"/><path d="M168.361 23.84c-1.683 0-2.929-1.224-2.929-2.928 0-1.705 1.246-2.918 2.929-2.918s2.918 1.213 2.918 2.918c0 1.704-1.235 2.928-2.918 2.928m0-.688c1.224 0 2.131-.896 2.131-2.24s-.907-2.24-2.131-2.24-2.142.895-2.142 2.24c0 1.344.918 2.24 2.142 2.24"/><path d="M161.559 17.994c1.64 0 2.864 1.18 2.864 2.918 0 1.748-1.224 2.928-2.864 2.928-.918 0-1.704-.393-2.185-1.136v3.202h-.776v-7.213h-.809v-.656h1.421l.043 1.29c.459-.864 1.301-1.333 2.306-1.333m-.054 5.158c1.213 0 2.142-.896 2.142-2.24 0-1.334-.929-2.24-2.142-2.24-1.224 0-2.142.906-2.142 2.24 0 1.344.918 2.24 2.142 2.24"/><path d="M153.077 16.78a.56.56 0 0 1-.568-.557.56.56 0 0 1 .568-.546c.317 0 .569.24.569.535a.56.56 0 0 1-.569.569m-1.104 9.18c-.426 0-.765-.12-1.049-.371l.274-.59c.218.197.415.295.721.295.448 0 .776-.306.776-.962v-6.295h.776v6.306c0 .995-.59 1.617-1.498 1.617"/><path d="M149.691 18.037h.776v5.749h-.743v-1.137c-.47.776-1.268 1.191-2.219 1.191-1.639 0-2.863-1.19-2.863-2.928s1.224-2.918 2.863-2.918c.918 0 1.705.393 2.186 1.136zm-2.12 5.115c1.213 0 2.131-.896 2.131-2.24s-.918-2.24-2.131-2.24c-1.224 0-2.142.895-2.142 2.24 0 1.344.918 2.24 2.142 2.24"/><path d="M140.107 23.14h3.683v.646h-4.677v-.514l3.617-4.579h-3.552v-.656h4.546v.514z"/><path d="M136.799 15.677h.776v8.109h-.743v-1.137c-.47.776-1.268 1.191-2.219 1.191-1.639 0-2.863-1.19-2.863-2.928s1.224-2.918 2.863-2.918c.918 0 1.705.393 2.186 1.136zm-2.12 7.475c1.213 0 2.131-.896 2.131-2.24s-.918-2.24-2.131-2.24c-1.224 0-2.142.895-2.142 2.24 0 1.344.918 2.24 2.142 2.24"/><path d="M131.048 18.037h.71l-2.175 5.749h-.732l-1.814-4.71-1.814 4.71h-.732l-2.164-5.749h.743l1.803 4.885 1.847-4.885h.667l1.836 4.885z"/><path d="M120.438 18.037h.776v5.749h-.743v-1.137c-.47.776-1.268 1.191-2.219 1.191-1.639 0-2.863-1.19-2.863-2.928s1.224-2.918 2.863-2.918c.918 0 1.705.393 2.186 1.136zm-2.12 5.115c1.213 0 2.131-.896 2.131-2.24s-.918-2.24-2.131-2.24c-1.224 0-2.142.895-2.142 2.24 0 1.344.918 2.24 2.142 2.24"/><path d="M112.551 19.261c.339-.82 1.126-1.267 2.229-1.267v.786c-.065 0-.131-.01-.185-.01-1.202 0-1.935.732-1.935 2.087v2.929h-.776v-5.093h-.808v-.656h1.42z"/><path d="M107.269 17.994c1.639 0 2.863 1.18 2.863 2.918 0 1.748-1.224 2.928-2.863 2.928-.918 0-1.705-.393-2.186-1.136v3.202h-.776v-7.213h-.809v-.656h1.421l.044 1.29c.459-.864 1.3-1.333 2.306-1.333m-.055 5.158c1.213 0 2.142-.896 2.142-2.24 0-1.334-.929-2.24-2.142-2.24-1.224 0-2.142.906-2.142 2.24 0 1.344.918 2.24 2.142 2.24"/><path d="M100.337 23.84c-.95 0-1.869-.306-2.339-.71l.35-.612c.459.36 1.235.645 2.044.645 1.093 0 1.541-.372 1.541-.94 0-1.497-3.727-.317-3.727-2.59 0-.94.809-1.64 2.273-1.64.743 0 1.552.208 2.033.536l-.339.623c-.503-.35-1.104-.492-1.694-.492-1.038 0-1.497.405-1.497.951 0 1.552 3.727.383 3.727 2.59 0 .995-.875 1.64-2.372 1.64"/></g><defs><clipPath id="a"><rect width="64.286" height="24.429" fill="#fff" transform="translate(20.572 16.714)"/></clipPath></defs></svg>