<svg xmlns="http://www.w3.org/2000/svg" fill="none" viewBox="0 0 165 26"><rect width="162.326" height="22.922" x="1.24" y="1.24" fill="#1c56a0" rx="11.461"/><rect width="162.326" height="22.922" x="1.24" y="1.24" stroke="#ffdd02" stroke-width="2.481" rx="11.461"/><path fill="#fff" d="m15.239 12.217-.47 3.985h-1.986l1.261-8.205 3.326 4.766 3.338-4.766 1.262 8.205h-1.987l-.47-3.986-2.143 3.26zm9.07 2.377q0 .202.101.346.1.134.268.212a1 1 0 0 0 .368.067q.291 0 .536-.122.246-.123.402-.369a1.1 1.1 0 0 0 .156-.603l.179.67q0 .492-.268.837-.269.335-.692.514a2.5 2.5 0 0 1-.915.167q-.492 0-.916-.178a1.63 1.63 0 0 1-.67-.559q-.245-.368-.245-.893 0-.736.524-1.16.525-.435 1.485-.436.47 0 .837.09.38.088.648.223.267.134.402.279v.748a1.9 1.9 0 0 0-.625-.302 2.4 2.4 0 0 0-.737-.111q-.301 0-.48.067a.518.518 0 0 0-.357.513m-.747-1.953-.57-1.128a7.4 7.4 0 0 1 1.05-.402q.613-.19 1.34-.19.68 0 1.216.202.536.189.848.558.313.368.313.904v3.617H26.14v-3.238a.7.7 0 0 0-.067-.323.6.6 0 0 0-.178-.246.76.76 0 0 0-.313-.145 1.7 1.7 0 0 0-.413-.045q-.345 0-.68.078a3 3 0 0 0-.57.19 3 3 0 0 0-.357.168m5.448-5.146h1.618v8.707H29.01zm3.483 3.572h2.009l-2.188 2.12 2.411 3.015H32.75l-2.455-3.014zm4.634 0v5.135h-1.663v-5.135zm1.484 1.741q-.133-.134-.29-.212a.8.8 0 0 0-.368-.078.74.74 0 0 0-.435.134.83.83 0 0 0-.29.39q-.102.258-.101.626l-.402-.592q0-.614.234-1.094.246-.48.637-.759.39-.28.815-.28.279 0 .535.113a.87.87 0 0 1 .391.312zm.977.826q0-.815.38-1.418a2.57 2.57 0 0 1 1.049-.937 3.3 3.3 0 0 1 1.507-.335q.837 0 1.496.335.67.335 1.049.938.39.602.39 1.417 0 .804-.39 1.407a2.57 2.57 0 0 1-1.05.937q-.657.336-1.495.335-.837 0-1.507-.335a2.57 2.57 0 0 1-1.05-.937q-.379-.603-.379-1.407m1.73 0q0 .402.168.692.167.279.435.436.269.156.603.156.324 0 .591-.156.28-.157.436-.436.167-.29.167-.692t-.167-.692a1.1 1.1 0 0 0-.436-.447 1.15 1.15 0 0 0-.591-.156q-.334 0-.603.156a1.2 1.2 0 0 0-.435.447 1.36 1.36 0 0 0-.168.692m4.955 2.936h1.63q.033.312.178.525a.9.9 0 0 0 .413.312q.258.112.581.112.357 0 .647-.168a1.1 1.1 0 0 0 .458-.48q.18-.312.179-.781v-5.023h1.618v5.023q0 .983-.39 1.596-.38.614-1.016.893-.635.29-1.43.29-.948 0-1.573-.29a2.07 2.07 0 0 1-.926-.815 2.7 2.7 0 0 1-.369-1.194m-.112-3.003q0-.87.346-1.451.358-.58.916-.87t1.183-.29q.648 0 1.139.312.502.3.792.881t.29 1.418q0 .825-.29 1.418a2.16 2.16 0 0 1-.792.893 2.13 2.13 0 0 1-1.139.301q-.625 0-1.183-.29a2.4 2.4 0 0 1-.916-.882q-.345-.58-.346-1.44m1.775 0q0 .39.168.681.167.28.446.424a1.31 1.31 0 0 0 1.172.011q.28-.144.458-.424.18-.28.179-.692 0-.312-.112-.547a1.1 1.1 0 0 0-.279-.39 1.1 1.1 0 0 0-.38-.235 1.2 1.2 0 0 0-.424-.078q-.335 0-.614.145a1.1 1.1 0 0 0-.446.424 1.3 1.3 0 0 0-.168.681m5.039.067q0-.815.38-1.418a2.57 2.57 0 0 1 1.049-.937 3.3 3.3 0 0 1 1.506-.335q.838 0 1.496.335.67.335 1.05.938.39.602.39 1.417 0 .804-.39 1.407a2.57 2.57 0 0 1-1.05.937q-.658.336-1.495.335-.837 0-1.508-.335a2.57 2.57 0 0 1-1.049-.937q-.38-.603-.38-1.407m1.73 0q0 .402.167.692.168.279.436.436t.602.156q.325 0 .592-.156.279-.157.435-.436.168-.29.168-.692t-.167-.692a1.1 1.1 0 0 0-.436-.447 1.15 1.15 0 0 0-.592-.156q-.335 0-.602.156a1.2 1.2 0 0 0-.436.447 1.36 1.36 0 0 0-.167.692m5.145-6.14h1.696v8.708H59.85zm2.405 6.788v-1.463h2.367v1.463zm3.725-.29v-.938h2.903a1.5 1.5 0 0 0-.168-.525.76.76 0 0 0-.324-.324.95.95 0 0 0-.502-.123q-.346 0-.603.157a1 1 0 0 0-.39.435 1.5 1.5 0 0 0-.145.692l-.023.268q0 .525.156.848.168.324.436.47t.603.145q.312 0 .546-.079.246-.078.425-.223.179-.156.301-.368l1.507.368a3.4 3.4 0 0 1-.614.815 2.5 2.5 0 0 1-.882.525q-.514.178-1.261.178-.927 0-1.585-.346a2.44 2.44 0 0 1-.994-.949 2.84 2.84 0 0 1-.335-1.384 3.3 3.3 0 0 1 .045-.547 2.7 2.7 0 0 1 .458-1.116q.357-.48.949-.748.602-.268 1.44-.268.892 0 1.507.313.624.312.937.893.324.58.324 1.395v.19a1.5 1.5 0 0 1-.022.245zm3.863-5.426-2.01 1.675-.949-.48 1.675-1.786zm2.168 5.771q.39.324.703.514.324.178.57.257.244.067.424.067.255 0 .38-.112a.37.37 0 0 0 .122-.29.4.4 0 0 0-.1-.28.96.96 0 0 0-.347-.234 5 5 0 0 0-.647-.234 5.5 5.5 0 0 1-.703-.313 1.65 1.65 0 0 1-.536-.502q-.212-.312-.212-.804 0-.469.245-.792.257-.324.681-.492.436-.167.994-.167.446 0 .826.1.39.102.725.268.347.168.648.391l-.603 1.094a2.8 2.8 0 0 0-.737-.491q-.412-.201-.759-.201-.234 0-.357.09a.29.29 0 0 0-.112.234q0 .167.134.279.145.111.402.212.269.09.648.234.402.146.736.335.346.19.547.48.213.29.212.77 0 .827-.513 1.25-.502.414-1.429.414-.547 0-1.027-.134a4 4 0 0 1-.87-.335 6 6 0 0 1-.748-.491zm8.158-6.842h1.697v8.707h-1.697zm4.315 7.1q0 .2.1.345.101.134.268.212a1 1 0 0 0 .369.067q.29 0 .536-.122.245-.123.401-.369t.157-.603l.178.67q0 .492-.268.837-.267.335-.692.514a2.5 2.5 0 0 1-.915.167q-.492 0-.915-.178a1.63 1.63 0 0 1-.67-.559q-.246-.368-.246-.893 0-.736.525-1.16.525-.435 1.485-.436.468 0 .837.09.38.088.647.223.269.134.402.279v.748a1.9 1.9 0 0 0-.625-.302 2.4 2.4 0 0 0-.737-.111q-.3 0-.48.067a.518.518 0 0 0-.357.513m-.748-1.954-.57-1.128q.436-.211 1.05-.402.614-.19 1.34-.19.681 0 1.216.202.536.189.849.558.312.368.312.904v3.617h-1.618v-3.238a.7.7 0 0 0-.067-.323.6.6 0 0 0-.179-.246.8.8 0 0 0-.312-.145 1.7 1.7 0 0 0-.413-.045q-.346 0-.681.078a3 3 0 0 0-.57.19 3 3 0 0 0-.357.168m5.448-5.146h1.619v8.707h-1.619zm3.483 3.572h2.01l-2.189 2.12 2.412 3.015h-1.976l-2.456-3.014zm2.368 0h3.438v1.395h-3.438zm.904-1.786h1.619v6.92h-1.619zm2.951 4.353q0-.815.38-1.418a2.57 2.57 0 0 1 1.049-.937 3.3 3.3 0 0 1 1.507-.335q.837 0 1.496.335.67.335 1.049.938.391.602.391 1.417 0 .804-.391 1.407a2.56 2.56 0 0 1-1.049.937q-.659.336-1.496.335-.837 0-1.507-.335a2.57 2.57 0 0 1-1.05-.937q-.378-.603-.379-1.407m1.731 0q0 .402.167.692.168.279.435.436.269.156.603.156.324 0 .592-.156.279-.157.435-.436.168-.29.168-.692t-.168-.692a1.1 1.1 0 0 0-.435-.447 1.16 1.16 0 0 0-.592-.156q-.335 0-.603.156a1.2 1.2 0 0 0-.435.447 1.36 1.36 0 0 0-.167.692m2.991-5.112-2.009 1.674-.96-.48 1.674-1.786zm4.2 4.074h-2.233v-1.53h5.024l-2.568 3.606h2.21v1.53h-5.134zm11.458.301v3.305h-1.697v-3.126q0-.47-.156-.703-.145-.246-.491-.246a.74.74 0 0 0-.402.112.7.7 0 0 0-.268.312 1.4 1.4 0 0 0-.089.525v3.126h-1.697v-3.126q0-.47-.156-.703-.146-.246-.491-.246a.74.74 0 0 0-.402.112.7.7 0 0 0-.268.312q-.09.213-.089.525v3.126h-1.63v-5.135h1.63v.759q.211-.413.58-.648.38-.234.904-.234.603 0 .96.223.358.213.514.625.279-.402.692-.625t.937-.223q.603 0 .949.234.358.225.514.659t.156 1.06m3.933 3.416q-.893 0-1.552-.323a2.45 2.45 0 0 1-1.004-.938q-.358-.603-.358-1.418 0-.826.346-1.429.346-.602.994-.926.658-.324 1.552-.324.892 0 1.507.313.613.3.937.881t.324 1.407v.246a.7.7 0 0 1-.022.19h-4.689v-.938h3.17l-.401.513a.6.6 0 0 0 .089-.19.6.6 0 0 0 .045-.2q0-.335-.123-.581a.9.9 0 0 0-.346-.38 1 1 0 0 0-.525-.133 1.14 1.14 0 0 0-.636.167 1.03 1.03 0 0 0-.391.513q-.123.336-.134.849 0 .468.134.803.133.336.402.514.268.168.659.168.445 0 .759-.168.323-.168.513-.502l1.507.368q-.401.76-1.094 1.139-.68.38-1.663.38m7.124-3.237q0-.458-.178-.703-.168-.246-.569-.246a.95.95 0 0 0-.469.112.78.78 0 0 0-.313.323 1.1 1.1 0 0 0-.111.514v3.126h-1.697v-5.135h1.697v.77a1.66 1.66 0 0 1 .602-.659q.391-.234.96-.234.96 0 1.396.513.435.515.435 1.44v3.305h-1.753zm2.481-2.01h3.438v1.396h-3.438zm.904-1.785h1.619v6.92h-1.619zm5.864 7.032q-.893 0-1.551-.323a2.44 2.44 0 0 1-1.005-.938q-.357-.603-.357-1.418 0-.826.346-1.429.346-.602.993-.926.66-.324 1.552-.324.893 0 1.507.313.614.3.938.881t.323 1.407v.246a.7.7 0 0 1-.022.19h-4.688v-.938h3.17l-.402.513a.6.6 0 0 0 .089-.19.6.6 0 0 0 .045-.2q0-.335-.123-.581a.9.9 0 0 0-.346-.38 1 1 0 0 0-.524-.133q-.38 0-.637.167a1.03 1.03 0 0 0-.39.513 2.7 2.7 0 0 0-.134.849q0 .468.134.803.134.336.401.514.269.168.659.168.447 0 .759-.168.324-.168.514-.502l1.507.368a2.7 2.7 0 0 1-1.094 1.139q-.681.38-1.664.38m4.066-1.976q.391.324.704.514.323.178.569.257.246.067.424.067.257 0 .38-.112a.37.37 0 0 0 .122-.29.4.4 0 0 0-.1-.28.96.96 0 0 0-.346-.234 5 5 0 0 0-.648-.234 5.5 5.5 0 0 1-.703-.313 1.65 1.65 0 0 1-.536-.502q-.212-.312-.212-.804 0-.469.246-.792.256-.324.681-.492a2.8 2.8 0 0 1 .993-.167q.447 0 .826.1.391.102.726.268.346.168.647.391l-.602 1.094a2.8 2.8 0 0 0-.737-.491q-.413-.201-.759-.201-.235 0-.357.09a.28.28 0 0 0-.112.234.35.35 0 0 0 .134.279q.145.111.402.212.267.09.647.234.402.146.737.335.346.19.547.48.212.29.212.77 0 .827-.513 1.25-.503.414-1.429.414-.547 0-1.027-.134a4 4 0 0 1-.871-.335 6 6 0 0 1-.748-.491zm5.873-3.527v-.514q.257 0 .446-.078a.8.8 0 0 0 .313-.234.55.55 0 0 0 .111-.324.42.42 0 0 0-.134-.324q-.134-.133-.401-.133a.65.65 0 0 0-.447.156.5.5 0 0 0-.167.402h-1.039q0-.626.447-1.038.457-.425 1.206-.425.792 0 1.216.38.435.38.436.915 0 .402-.268.681-.257.269-.715.402-.446.134-1.004.134m.29 2.378q-.57 0-.982-.224a1.7 1.7 0 0 1-.614-.591 1.54 1.54 0 0 1-.213-.782h1.117q0 .346.212.514.224.167.513.167a.8.8 0 0 0 .48-.134q.201-.144.201-.446a.55.55 0 0 0-.111-.346.67.67 0 0 0-.335-.235 1.5 1.5 0 0 0-.558-.089v-.57q.624.001 1.094.146.48.134.747.435.28.29.28.76 0 .614-.492 1.004-.48.39-1.339.39"/></svg>