<svg width="200" height="28" viewBox="0 0 200 28" fill="none" xmlns="http://www.w3.org/2000/svg">
<path d="M0.526316 22.0399L3.87926 18.3222C5.45753 20.5668 7.42861 21.605 9.44178 21.605C11.2866 21.605 12.3879 20.6299 12.3879 19.0587C12.3879 17.4874 11.3497 16.7439 8.5369 15.5725C4.54564 14.0012 1.69774 12.2195 1.69774 8.03185C1.69774 3.84418 5.28216 0.526314 10.2484 0.526314C13.8679 0.526314 16.4142 1.86609 18.259 3.91433L15.0394 7.87052C14.0012 6.53075 12.5562 5.66095 10.6833 5.66095C9.14015 5.66095 8.03887 6.49567 8.03887 7.73724C8.03887 8.97881 9.24537 9.61714 12.1634 10.8236C16.3862 12.465 18.7641 14.5413 18.7641 18.8342C18.7641 23.6251 15.0113 26.7115 9.84862 26.7115C5.42245 26.7115 2.27293 24.7685 0.53333 22.0539L0.526316 22.0399ZM48.3443 26.2626L46.7029 21.4717H37.4508L35.7112 26.2626H29.0754L39.4289 0.996287H45.0265L55.2466 26.2696H48.3443V26.2626ZM39.1623 16.7439H45.0615L43.82 13.1244C43.2518 11.4479 42.7117 9.80653 42.2136 8.16513C41.6805 9.80653 41.1053 11.4479 40.5021 13.0893L39.1623 16.7439ZM106.867 26.2626V0.996287H114.105C122.684 0.996287 128.682 5.21903 128.682 13.6294C128.682 22.0399 122.782 26.2626 114.505 26.2626H106.867ZM113.067 20.7983H114.407C119.163 20.7983 122.319 18.3151 122.319 13.6294C122.319 8.94374 119.64 6.62193 114.407 6.62193H113.067V20.7983ZM140.01 13.5944C140.01 6.1239 146.176 0.554372 153.618 0.554372C161.026 0.554372 167.156 6.08182 167.156 13.6575C167.156 21.2332 160.991 26.6975 153.513 26.6975C146.036 26.6975 140.01 21.4366 140.01 13.5944ZM160.759 13.6645C160.759 9.51192 157.708 6.29225 153.59 6.29225C149.536 6.29225 146.421 9.53998 146.421 13.6294C146.421 17.9504 149.669 20.9666 153.527 20.9666C157.652 20.9666 160.766 17.8522 160.766 13.6575L160.759 13.6645ZM199.36 0.996287H179.411V6.49567H189.161L177.292 26.2696H198.645V20.672H187.583L199.36 0.996287ZM84.911 26.2626H90.7752V0.996287H84.911V17.0946L73.0846 0.996287H67.0871V26.2696H73.0846V10.1713L84.918 26.2696L84.911 26.2626Z" fill="#1C56A0"/>
</svg>
