<svg xmlns="http://www.w3.org/2000/svg" fill="none" viewBox="0 0 174 54"><path fill="#fff" d="M10.304 12.096 15.092.392h5.544L10.304 21.224 0 .392h5.516zm11.714-9.828q0-1.008.728-1.624A2.53 2.53 0 0 1 24.482 0q1.036 0 1.736.644.728.616.728 1.624t-.728 1.652q-.7.644-1.736.644-1.008 0-1.736-.644t-.728-1.652m.42 4.844h4.088v12.88h-4.088zm8.27 8.204q.981.811 1.764 1.288.811.448 1.428.644.616.168 1.064.168.645 0 .952-.28a.94.94 0 0 0 .308-.728q0-.42-.252-.7-.252-.307-.868-.588-.588-.28-1.624-.588a14 14 0 0 1-1.764-.784 4.1 4.1 0 0 1-1.344-1.26q-.532-.785-.532-2.016 0-1.176.616-1.988.645-.812 1.708-1.232 1.092-.42 2.492-.42a8 8 0 0 1 2.072.252q.98.252 1.82.672.868.42 1.624.98L38.66 11.48a7 7 0 0 0-1.848-1.232q-1.035-.504-1.904-.504-.587 0-.896.224a.72.72 0 0 0-.28.588q0 .42.336.7.365.28 1.008.532.672.224 1.624.588 1.008.364 1.848.84.868.476 1.372 1.204.532.728.532 1.932 0 2.072-1.288 3.136-1.26 1.036-3.584 1.036a9.6 9.6 0 0 1-2.576-.336 10.2 10.2 0 0 1-2.184-.84 15 15 0 0 1-1.876-1.232zm12.77 0q.98.811 1.764 1.288.811.448 1.428.644.615.168 1.064.168.643 0 .952-.28a.94.94 0 0 0 .308-.728q0-.42-.252-.7-.253-.307-.868-.588-.588-.28-1.624-.588a14 14 0 0 1-1.764-.784 4.1 4.1 0 0 1-1.344-1.26q-.532-.785-.532-2.016 0-1.176.616-1.988.643-.812 1.708-1.232 1.091-.42 2.492-.42a8 8 0 0 1 2.072.252q.98.252 1.82.672.867.42 1.624.98L51.43 11.48a7 7 0 0 0-1.848-1.232q-1.037-.504-1.904-.504-.588 0-.896.224a.72.72 0 0 0-.28.588q0 .42.336.7.363.28 1.008.532.672.224 1.624.588 1.008.364 1.848.84.868.476 1.372 1.204.531.728.532 1.932 0 2.072-1.288 3.136-1.26 1.036-3.584 1.036a9.6 9.6 0 0 1-2.576-.336 10.2 10.2 0 0 1-2.184-.84 15 15 0 0 1-1.876-1.232zm17.613-4.368h-5.6V7.112h12.6l-6.44 9.044h5.544v3.836h-12.88zm12.361 5.012q0 .504.252.868.252.336.672.532.42.168.924.168.728 0 1.344-.308.616-.307 1.008-.924.392-.616.392-1.512l.448 1.68q0 1.232-.672 2.1-.672.84-1.736 1.288-1.065.42-2.296.42-1.232 0-2.296-.448a4.1 4.1 0 0 1-1.68-1.4q-.615-.924-.616-2.24 0-1.848 1.316-2.912 1.316-1.092 3.724-1.092 1.176 0 2.1.224.952.224 1.624.56t1.008.7v1.876a4.7 4.7 0 0 0-1.568-.756 6 6 0 0 0-1.848-.28q-.756 0-1.204.168-.449.168-.672.504-.225.308-.224.784m-1.876-4.9-1.428-2.828Q71.24 7.7 72.78 7.224t3.36-.476q1.708 0 3.052.504 1.344.476 2.128 1.4t.784 2.268v9.072h-4.06v-8.12a1.8 1.8 0 0 0-.168-.812 1.46 1.46 0 0 0-.448-.616 1.9 1.9 0 0 0-.784-.364 4.3 4.3 0 0 0-1.036-.112 7.5 7.5 0 0 0-1.708.196q-.812.196-1.428.476-.616.252-.896.42m25.364 4.9q0 .504.252.868.252.336.672.532.42.168.924.168a2.96 2.96 0 0 0 1.344-.308 2.5 2.5 0 0 0 1.008-.924q.393-.616.392-1.512l.448 1.68q0 1.232-.672 2.1-.671.84-1.736 1.288-1.063.42-2.296.42-1.231 0-2.296-.448a4.1 4.1 0 0 1-1.68-1.4q-.615-.924-.616-2.24 0-1.848 1.316-2.912 1.317-1.092 3.724-1.092 1.176 0 2.1.224.952.224 1.624.56t1.008.7v1.876a4.7 4.7 0 0 0-1.568-.756 6 6 0 0 0-1.848-.28q-.756 0-1.204.168t-.672.504q-.224.308-.224.784m-1.876-4.9-1.428-2.828q1.093-.532 2.632-1.008t3.36-.476q1.708 0 3.052.504 1.344.476 2.128 1.4t.784 2.268v9.072h-4.06v-8.12a1.8 1.8 0 0 0-.168-.812 1.45 1.45 0 0 0-.448-.616 1.9 1.9 0 0 0-.784-.364 4.3 4.3 0 0 0-1.036-.112 7.5 7.5 0 0 0-1.708.196q-.811.196-1.428.476-.615.252-.896.42m19.238-.112h-5.6V7.112h12.6l-6.44 9.044h5.544v3.836h-12.88zM4.956 47.96q0 .504.252.868.252.336.672.532.42.168.924.168.727 0 1.344-.308.616-.307 1.008-.924.392-.616.392-1.512l.448 1.68q0 1.231-.672 2.1-.672.84-1.736 1.288-1.065.42-2.296.42-1.232 0-2.296-.448a4.1 4.1 0 0 1-1.68-1.4Q.701 49.5.7 48.184q0-1.848 1.316-2.912Q3.332 44.18 5.74 44.18q1.176 0 2.1.224.952.224 1.624.56t1.008.7v1.876a4.7 4.7 0 0 0-1.568-.756 6 6 0 0 0-1.848-.28q-.756 0-1.204.168-.449.168-.672.504-.225.308-.224.784m-1.876-4.9-1.428-2.828q1.092-.532 2.632-1.008t3.36-.476q1.708 0 3.052.504 1.344.476 2.128 1.4t.784 2.268v9.072h-4.06v-8.12a1.8 1.8 0 0 0-.168-.812 1.46 1.46 0 0 0-.448-.616 1.9 1.9 0 0 0-.784-.364 4.3 4.3 0 0 0-1.036-.112 7.5 7.5 0 0 0-1.708.196q-.811.196-1.428.476-.616.252-.896.42m13.666-12.908h4.06v21.84h-4.06zm8.736 8.96h5.04l-5.488 5.32 6.048 7.56h-4.956l-6.16-7.56zm5.94 0h8.624v3.5h-8.624zm2.268-4.48h4.06v17.36h-4.06zm8.326 4.48h4.088v12.88h-4.088zm6.86-6.384-5.04 4.2-2.408-1.204 4.2-4.48zm-1.026 6.384h4.508l2.94 7.14 2.968-7.14h4.508l-7.476 14.392zm26.52 7.336v-2.352h7.28q-.111-.784-.42-1.316a1.9 1.9 0 0 0-.812-.812q-.504-.308-1.26-.308-.867 0-1.512.392-.615.364-.98 1.092-.364.7-.364 1.736l-.056.672q0 1.316.392 2.128.42.811 1.092 1.176t1.512.364q.784 0 1.372-.196.617-.195 1.064-.56.45-.392.756-.924l3.78.924a8.5 8.5 0 0 1-1.54 2.044q-.895.84-2.212 1.316-1.287.448-3.164.448-2.323 0-3.976-.868-1.623-.868-2.492-2.38-.84-1.54-.84-3.472a8.4 8.4 0 0 1 .112-1.372q.28-1.596 1.148-2.8.897-1.204 2.38-1.876 1.512-.672 3.612-.672 2.241 0 3.78.784 1.569.785 2.352 2.24.813 1.455.812 3.5v.476q0 .28-.056.616zm9.688-13.608-5.04 4.2-2.38-1.204 4.2-4.48zm4.74-2.688h4.255v21.84h-4.256zm14.098 22.12q-2.24 0-3.892-.812-1.625-.84-2.52-2.352-.896-1.512-.896-3.556 0-2.072.868-3.584.869-1.512 2.492-2.324 1.652-.812 3.892-.812t3.78.784q1.54.756 2.352 2.212t.812 3.528v.616q0 .28-.056.476h-11.76v-2.352h7.952l-1.008 1.288q.14-.196.224-.476.112-.307.112-.504 0-.84-.308-1.456a2.26 2.26 0 0 0-.868-.952q-.56-.336-1.316-.336-.953 0-1.596.42t-.98 1.288q-.307.84-.336 2.128 0 1.176.336 2.016t1.008 1.288q.672.42 1.652.42 1.12 0 1.904-.42a3.1 3.1 0 0 0 1.288-1.26l3.78.924q-1.008 1.904-2.744 2.856-1.708.952-4.172.952m7.987-13.16h8.624v3.5h-8.624zm2.268-4.48h4.06v17.36h-4.06zm12.414-4.48v21.84h-4.256v-21.84zm4.116 14q0-1.148-.42-1.764-.42-.615-1.456-.616-.672 0-1.176.308a1.94 1.94 0 0 0-.784.812q-.28.504-.28 1.26h-.728q0-1.54.504-2.772.504-1.26 1.512-1.988 1.036-.756 2.632-.756t2.548.56q.98.56 1.428 1.652t.448 2.688v8.456h-4.228zm14.094 8.12q-2.24 0-3.892-.812-1.624-.84-2.52-2.352t-.896-3.556q0-2.072.868-3.584t2.492-2.324q1.652-.812 3.892-.812t3.78.784q1.54.756 2.352 2.212t.812 3.528v.616q0 .28-.056.476h-11.76v-2.352h7.952l-1.008 1.288q.14-.196.224-.476.112-.307.112-.504 0-.84-.308-1.456a2.26 2.26 0 0 0-.868-.952q-.56-.336-1.316-.336-.952 0-1.596.42t-.98 1.288q-.308.84-.336 2.128 0 1.176.336 2.016t1.008 1.288q.672.42 1.652.42 1.12 0 1.904-.42a3.1 3.1 0 0 0 1.288-1.26l3.78.924q-1.008 1.904-2.744 2.856-1.708.952-4.172.952m14.633-9.324h-5.6v-3.836h12.6l-6.44 9.044h5.544v3.836h-12.88zm9.616-10.556h5.237l-.896 13.132h-3.416zm0 17.864q0-1.065.728-1.736.757-.672 1.905-.672 1.147 0 1.876.672.755.672.755 1.736t-.755 1.736q-.729.672-1.876.672-1.148 0-1.905-.672-.728-.672-.728-1.736"/></svg>