<svg xmlns="http://www.w3.org/2000/svg" fill="none" viewBox="0 0 127 63"><path fill="#fff" d="m2.775 9.675.18-1.935H8.16l.165 1.935zm2.745-4.62-1.47 3.39.12.555-1.305 2.7H0L5.52.54l5.535 11.16h-2.88l-1.26-2.595.09-.645zM11.915 0h2.175v11.7h-2.175zm4.68 4.8h2.7l-2.94 2.85 3.24 4.05H16.94l-3.3-4.05zm3.183 0h4.62v1.875h-4.62zm1.215-2.4h2.175v9.3h-2.175zm4.235-.195q0-.54.39-.87.39-.345.93-.345.555 0 .93.345.39.33.39.87t-.39.885q-.375.345-.93.345-.54 0-.93-.345t-.39-.885m.225 2.595h2.19v6.9h-2.19zM29.508 0h2.28v11.7h-2.28zm10.295 9.54q0 .27.135.465.135.18.36.285.225.09.495.09.39 0 .72-.165t.54-.495.21-.81l.24.9q0 .66-.36 1.125-.36.45-.93.69-.57.225-1.23.225t-1.23-.24q-.555-.255-.9-.75-.33-.495-.33-1.2 0-.99.705-1.56.705-.585 1.995-.585.63 0 1.125.12.51.12.87.3t.54.375v1.005q-.36-.27-.84-.405-.465-.15-.99-.15-.405 0-.645.09a.72.72 0 0 0-.36.27q-.12.165-.12.42m-1.005-2.625L38.033 5.4q.585-.285 1.41-.54a6 6 0 0 1 1.8-.255q.915 0 1.635.27.72.255 1.14.75t.42 1.215v4.86h-2.175V7.35q0-.255-.09-.435a.8.8 0 0 0-.24-.33q-.165-.135-.42-.195-.24-.06-.555-.06-.465 0-.915.105-.435.105-.765.255-.33.135-.48.225M52.881 0v11.7h-2.265V0zm5.64 8.25q0 1.155-.48 1.965a3.2 3.2 0 0 1-1.215 1.215q-.735.42-1.59.42t-1.53-.435-1.065-1.245-.39-1.92q0-1.125.39-1.92.39-.81 1.065-1.245t1.53-.435 1.59.42q.75.42 1.215 1.215.48.795.48 1.965m-2.385 0q0-.54-.225-.93-.225-.405-.6-.615a1.6 1.6 0 0 0-.825-.225q-.39 0-.765.21-.36.21-.6.615-.24.39-.24.945t.24.96q.24.39.6.6.375.21.765.21.45 0 .825-.21.375-.225.6-.615.225-.405.225-.945m5.508 1.29q0 .27.135.465.135.18.36.285.225.09.495.09.39 0 .72-.165t.54-.495.21-.81l.24.9q0 .66-.36 1.125-.36.45-.93.69-.57.225-1.23.225t-1.23-.24q-.555-.255-.9-.75-.33-.495-.33-1.2 0-.99.705-1.56.705-.585 1.995-.585.63 0 1.125.12.51.12.87.3t.54.375v1.005q-.36-.27-.84-.405-.465-.15-.99-.15-.405 0-.645.09a.72.72 0 0 0-.36.27q-.12.165-.12.42M60.64 6.915 59.874 5.4q.585-.285 1.41-.54a6 6 0 0 1 1.8-.255q.915 0 1.635.27.72.255 1.14.75t.42 1.215v4.86h-2.175V7.35q0-.255-.09-.435a.8.8 0 0 0-.24-.33q-.165-.135-.42-.195-.24-.06-.555-.06-.465 0-.915.105-.435.105-.765.255-.33.135-.48.225M67.96 0h2.175v11.7H67.96zm4.68 4.8h2.7L72.4 7.65l3.24 4.05h-2.655l-3.3-4.05zm3.182 0h4.62v1.875h-4.62zm1.215-2.4h2.175v9.3h-2.175zm7.88 9.45q-1.2 0-2.084-.435-.87-.45-1.35-1.26t-.48-1.905q0-1.11.465-1.92t1.335-1.245q.885-.435 2.085-.435t2.025.42q.825.405 1.26 1.185t.435 1.89v.33q0 .15-.03.255h-6.3V7.47h4.26l-.54.69q.075-.105.12-.255.06-.165.06-.27 0-.45-.165-.78a1.2 1.2 0 0 0-.465-.51q-.3-.18-.705-.18-.51 0-.855.225t-.525.69q-.165.45-.18 1.14 0 .63.18 1.08t.54.69q.36.225.885.225.6 0 1.02-.225.435-.225.69-.675l2.025.495q-.54 1.02-1.47 1.53-.915.51-2.235.51m7.324-7.05v6.9h-2.235V4.8zm1.995 2.34a1.5 1.5 0 0 0-.39-.285 1.04 1.04 0 0 0-.495-.105 1 1 0 0 0-.585.18q-.255.18-.39.525t-.135.84l-.54-.795q0-.825.315-1.47.33-.645.855-1.02t1.095-.375q.375 0 .72.15t.525.42zm1.802-4.935q0-.54.39-.87.39-.345.93-.345.555 0 .93.345.39.33.39.87t-.39.885q-.375.345-.93.345-.54 0-.93-.345t-.39-.885m.225 2.595h2.19v6.9h-2.19zm5.811 4.845q0 .24.12.405.135.15.36.24.225.075.51.075.42 0 .765-.135.36-.135.57-.45t.21-.87l.24.84q0 .66-.345 1.14-.33.465-.915.72-.57.24-1.29.24-.75 0-1.32-.24-.57-.255-.885-.72-.3-.465-.3-1.11 0-.72.375-1.215.39-.51 1.065-.78t1.545-.27q.525 0 .99.12.48.105.825.285.36.165.51.33v1.065q-.39-.285-.81-.42-.405-.15-.99-.15-.39 0-.675.12-.27.105-.42.3a.82.82 0 0 0-.135.48m-.885-2.715-.765-1.53q.585-.285 1.395-.54a5.9 5.9 0 0 1 1.755-.255q.93 0 1.65.27.735.255 1.14.75.42.495.42 1.215v4.86h-2.175V7.29q0-.435-.33-.69-.315-.27-.885-.27a4.15 4.15 0 0 0-1.71.36q-.33.135-.495.24m4.965-5.475-2.7 2.25-1.275-.645 2.25-2.4zM108.478 0h2.28v11.7h-2.28zm3.908 2.205q0-.54.39-.87.39-.345.93-.345.555 0 .93.345.39.33.39.87t-.39.885q-.375.345-.93.345-.54 0-.93-.345t-.39-.885m.225 2.595h2.19v6.9h-2.19zm4.431 4.395q.525.435.945.69.435.24.765.345.33.09.57.09.345 0 .51-.15t.165-.39a.54.54 0 0 0-.135-.375q-.135-.165-.465-.315-.315-.15-.87-.315-.495-.18-.945-.42-.435-.255-.72-.675t-.285-1.08q0-.63.33-1.065.345-.435.915-.66a3.7 3.7 0 0 1 1.335-.225q.6 0 1.11.135.525.135.975.36.465.225.87.525l-.81 1.47q-.435-.405-.99-.66-.555-.27-1.02-.27-.315 0-.48.12-.15.12-.15.315 0 .225.18.375.195.15.54.285.36.12.87.315.54.195.99.45.465.255.735.645.285.39.285 1.035 0 1.11-.69 1.68-.675.555-1.92.555-.735 0-1.38-.18-.63-.165-1.17-.45-.54-.3-1.005-.66zM.9 17h2.28v11.7H.9zm4.913 8.73v-1.26h3.9a2 2 0 0 0-.225-.705q-.15-.285-.435-.435-.27-.165-.675-.165-.465 0-.81.21-.33.195-.525.585-.195.375-.195.93l-.03.36q0 .705.21 1.14.225.435.585.63t.81.195q.42 0 .735-.105.33-.105.57-.3.24-.21.405-.495l2.025.495q-.345.63-.825 1.095-.48.45-1.185.705-.69.24-1.695.24-1.245 0-2.13-.465a3.3 3.3 0 0 1-1.335-1.275q-.45-.825-.45-1.86a4.5 4.5 0 0 1 .06-.735q.15-.855.615-1.5.48-.645 1.275-1.005.81-.36 1.935-.36 1.2 0 2.025.42.84.42 1.26 1.2.435.78.435 1.875v.255q0 .15-.03.33zm5.19-7.29-2.7 2.25-1.275-.645 2.25-2.4zm2.284 10.755h2.19q.045.42.24.705.21.285.555.42.345.15.78.15.48 0 .87-.225.39-.21.615-.645.24-.42.24-1.05V21.8h2.175v6.75q0 1.32-.525 2.145-.51.825-1.365 1.2-.855.39-1.92.39-1.275 0-2.115-.39-.825-.39-1.245-1.095-.42-.69-.495-1.605m-.15-4.035q0-1.17.465-1.95.48-.78 1.23-1.17t1.59-.39q.87 0 1.53.42.675.405 1.065 1.185t.39 1.905q0 1.11-.39 1.905-.39.78-1.065 1.2-.66.405-1.53.405-.84 0-1.59-.39-.75-.405-1.23-1.185-.465-.78-.465-1.935m2.385 0q0 .525.225.915.225.375.6.57t.825.195q.39 0 .75-.18.375-.195.615-.57t.24-.93q0-.42-.15-.735a1.44 1.44 0 0 0-.375-.525q-.225-.21-.51-.315t-.57-.105q-.45 0-.825.195t-.6.57-.225.915m11.75 3.54v-6.9h2.265v6.9zM25.067 26q0 .615.225.945t.78.33q.375 0 .63-.15.27-.165.42-.435.15-.285.15-.69l.45-.09a3.8 3.8 0 0 1-.285 1.485q-.285.675-.855 1.08-.555.39-1.41.39-1.29 0-1.89-.675-.585-.675-.585-1.95V21.8h2.37zm3.225-7.62-2.7 2.25-1.275-.645 2.25-2.4zm2.223 3.42h4.62v1.875h-4.62zm1.215-2.4h2.175v9.3H31.73zm4.235-.195q0-.54.39-.87.39-.345.93-.345.555 0 .93.345.39.33.39.87t-.39.885q-.375.345-.93.345-.54 0-.93-.345t-.39-.885m.225 2.595h2.19v6.9h-2.19zm7.938 0h4.71v1.875h-4.71zm4.455-2.625a1 1 0 0 0-.33-.285.74.74 0 0 0-.36-.09.7.7 0 0 0-.39.105.7.7 0 0 0-.24.33q-.09.225-.09.585v8.88h-2.175v-9.45q0-.78.285-1.335.3-.555.87-.855.585-.3 1.44-.3.51 0 .87.135.375.12.63.3.255.165.405.315zm4.826 9.675q-1.2 0-2.085-.435-.87-.45-1.35-1.26t-.48-1.905q0-1.11.465-1.92t1.335-1.245q.885-.435 2.085-.435t2.025.42q.825.405 1.26 1.185t.435 1.89v.33q0 .15-.03.255h-6.3v-1.26h4.26l-.54.69q.075-.105.12-.255.06-.165.06-.27 0-.45-.165-.78a1.2 1.2 0 0 0-.465-.51q-.3-.18-.705-.18-.51 0-.855.225t-.525.69q-.165.45-.18 1.14 0 .63.18 1.08t.54.69q.36.225.885.225.6 0 1.02-.225.435-.225.69-.675l2.025.495q-.54 1.02-1.47 1.53-.915.51-2.235.51m7.324-7.05v6.9h-2.235v-6.9zm1.995 2.34a1.5 1.5 0 0 0-.39-.285 1.04 1.04 0 0 0-.495-.105 1 1 0 0 0-.585.18q-.255.18-.39.525t-.135.84l-.54-.795q0-.825.315-1.47.33-.645.855-1.02t1.095-.375q.375 0 .72.15t.525.42zm1.127-2.34h4.62v1.875h-4.62zm1.215-2.4h2.175v9.3H65.07zm6.5 1.335-1.38-.375 1.71-2.82 1.845.45zm2.805 0-1.38-.375 1.695-2.82 1.86.45zm-5.34 4.515q0-1.095.51-1.905t1.41-1.26 2.025-.45 2.01.45q.9.45 1.41 1.26.525.81.525 1.905 0 1.08-.525 1.89-.51.81-1.41 1.26-.885.45-2.01.45t-2.025-.45-1.41-1.26-.51-1.89m2.325 0q0 .54.225.93.225.375.585.585t.81.21q.435 0 .795-.21.375-.21.585-.585.225-.39.225-.93t-.225-.93a1.47 1.47 0 0 0-.585-.6 1.55 1.55 0 0 0-.795-.21q-.45 0-.81.21t-.585.6-.225.93m9.883-1.395h-3V21.8h6.75l-3.45 4.845h2.97V28.7h-6.9zm5.517 1.875v-1.26h3.9a2 2 0 0 0-.225-.705q-.15-.285-.435-.435-.27-.165-.675-.165-.465 0-.81.21-.33.195-.525.585-.195.375-.195.93l-.03.36q0 .705.21 1.14.225.435.585.63t.81.195q.42 0 .735-.105.33-.105.57-.3.24-.21.405-.495l2.025.495q-.345.63-.825 1.095-.48.45-1.185.705-.69.24-1.695.24-1.245 0-2.13-.465a3.3 3.3 0 0 1-1.335-1.275q-.45-.825-.45-1.86a4.5 4.5 0 0 1 .06-.735q.15-.855.615-1.5.48-.645 1.275-1.005.81-.36 1.935-.36 1.2 0 2.025.42.84.42 1.26 1.2.435.78.435 1.875v.255q0 .15-.03.33zm5.19-7.29-2.7 2.25-1.275-.645 2.25-2.4zm2.914 7.755q.525.435.945.69.435.24.765.345.33.09.57.09.345 0 .51-.15t.165-.39a.54.54 0 0 0-.135-.375q-.135-.165-.465-.315-.315-.15-.87-.315-.495-.18-.945-.42-.435-.255-.72-.675t-.285-1.08q0-.63.33-1.065.345-.435.915-.66a3.7 3.7 0 0 1 1.335-.225q.6 0 1.11.135.525.135.975.36.465.225.87.525l-.81 1.47q-.435-.405-.99-.66-.555-.27-1.02-.27-.315 0-.48.12-.15.12-.15.315 0 .225.18.375.195.15.54.285.36.12.87.315.54.195.99.45.465.255.735.645.285.39.285 1.035 0 1.11-.69 1.68-.675.555-1.92.555-.735 0-1.38-.18-.63-.165-1.17-.45-.54-.3-1.005-.66zm9.976 2.655q-1.2 0-2.085-.435-.87-.45-1.35-1.26t-.48-1.905q0-1.11.465-1.92t1.335-1.245q.885-.435 2.085-.435t2.025.42q.825.405 1.26 1.185t.435 1.89v.33q0 .15-.03.255h-6.3v-1.26h4.26l-.54.69q.075-.105.12-.255.06-.165.06-.27 0-.45-.165-.78a1.2 1.2 0 0 0-.465-.51q-.3-.18-.705-.18-.51 0-.855.225t-.525.69q-.165.45-.18 1.14 0 .63.18 1.08t.54.69q.36.225.885.225.6 0 1.02-.225.435-.225.69-.675l2.025.495q-.54 1.02-1.47 1.53-.915.51-2.235.51M109.913 17h2.175v11.7h-2.175zm4.68 4.8h2.7l-2.94 2.85 3.24 4.05h-2.655l-3.3-4.05zM.645 46.195h2.19q.045.42.24.705.21.285.555.42.345.15.78.15.48 0 .87-.225.39-.21.615-.645.24-.42.24-1.05V38.8H8.31v6.75q0 1.32-.525 2.145-.51.825-1.365 1.2-.855.39-1.92.39-1.275 0-2.115-.39-.825-.39-1.245-1.095-.42-.69-.495-1.605m-.15-4.035q0-1.17.465-1.95.48-.78 1.23-1.17t1.59-.39q.87 0 1.53.42.675.405 1.065 1.185t.39 1.905q0 1.11-.39 1.905-.39.78-1.065 1.2-.66.405-1.53.405-.84 0-1.59-.39-.75-.405-1.23-1.185-.465-.78-.465-1.935m2.385 0q0 .525.225.915.225.375.6.57t.825.195q.39 0 .75-.18.375-.195.615-.57t.24-.93q0-.42-.15-.735a1.44 1.44 0 0 0-.375-.525q-.225-.21-.51-.315t-.57-.105q-.45 0-.825.195t-.6.57-.225.915m14.24-3.36L12.62 49h-2.28l1.68-3.855L9.035 38.8h2.49l2.235 5.535-1.17-.015 2.205-5.52zm2.512 4.74q0 .27.135.465.135.18.36.285.226.09.495.09.39 0 .72-.165t.54-.495.21-.81l.24.9q0 .66-.36 1.125-.36.45-.93.69-.57.225-1.23.225t-1.23-.24q-.555-.255-.9-.75-.33-.495-.33-1.2 0-.99.706-1.56.704-.585 1.994-.585.63 0 1.125.12.51.12.87.3t.54.375v1.005q-.36-.27-.84-.405-.465-.15-.99-.15-.405 0-.645.09a.72.72 0 0 0-.36.27q-.12.165-.12.42m-1.005-2.625-.764-1.515q.585-.285 1.41-.54a6 6 0 0 1 1.8-.255q.914 0 1.634.27.72.255 1.14.75t.42 1.215v4.86h-2.174v-4.35q0-.255-.09-.435a.8.8 0 0 0-.24-.33q-.165-.135-.42-.195-.24-.06-.555-.06-.465 0-.916.105-.434.105-.764.255-.33.135-.48.225M25.95 34h2.174v11.7h-2.175zm4.68 4.8h2.7l-2.94 2.85 3.24 4.05h-2.655l-3.3-4.05zm3.367 3.45q0-1.095.51-1.905t1.41-1.26 2.025-.45 2.01.45q.9.45 1.41 1.26.525.81.525 1.905 0 1.08-.525 1.89-.51.81-1.41 1.26-.885.45-2.01.45t-2.025-.45-1.41-1.26-.51-1.89m2.325 0q0 .54.225.93.225.375.585.585t.81.21q.435 0 .795-.21.375-.21.585-.585.225-.39.225-.93t-.225-.93a1.47 1.47 0 0 0-.585-.6 1.55 1.55 0 0 0-.795-.21q-.45 0-.81.21t-.585.6-.225.93m9.148-3.45v6.9h-2.235v-6.9zm1.995 2.34a1.5 1.5 0 0 0-.39-.285 1.04 1.04 0 0 0-.495-.105 1 1 0 0 0-.585.18q-.255.18-.39.525t-.135.84l-.54-.795q0-.825.315-1.47.33-.645.855-1.02t1.095-.375q.375 0 .72.15t.525.42zm1.802-4.935q0-.54.39-.87.39-.345.93-.345.555 0 .93.345.39.33.39.87t-.39.885q-.375.345-.93.345-.54 0-.93-.345t-.39-.885m.225 2.595h2.19v6.9h-2.19zm8.538-4.8h2.175v11.7h-2.175zm4.68 4.8h2.7l-2.94 2.85 3.24 4.05h-2.655l-3.3-4.05zm3.367 3.45q0-1.095.51-1.905t1.41-1.26 2.025-.45 2.01.45q.9.45 1.41 1.26.525.81.525 1.905 0 1.08-.525 1.89-.51.81-1.41 1.26-.885.45-2.01.45t-2.025-.45-1.41-1.26-.51-1.89m2.325 0q0 .54.225.93.225.375.585.585t.81.21q.435 0 .795-.21.375-.21.585-.585.225-.39.225-.93t-.225-.93a1.47 1.47 0 0 0-.585-.6 1.55 1.55 0 0 0-.795-.21q-.45 0-.81.21t-.585.6-.225.93m4.02-6.87-2.7 2.25-1.29-.645 2.25-2.4zm5.128 3.42v6.9h-2.235v-6.9zm1.995 2.34a1.5 1.5 0 0 0-.39-.285 1.04 1.04 0 0 0-.495-.105 1 1 0 0 0-.585.18q-.255.18-.39.525t-.135.84l-.54-.795q0-.825.315-1.47.33-.645.855-1.02t1.095-.375q.375 0 .72.15t.525.42zm1.312 1.11q0-1.095.51-1.905t1.41-1.26 2.025-.45 2.01.45q.9.45 1.41 1.26.525.81.525 1.905 0 1.08-.525 1.89-.51.81-1.41 1.26-.885.45-2.01.45t-2.025-.45-1.41-1.26-.51-1.89m2.325 0q0 .54.225.93.225.375.585.585t.81.21q.435 0 .795-.21.375-.21.585-.585.225-.39.225-.93t-.225-.93a1.47 1.47 0 0 0-.585-.6 1.55 1.55 0 0 0-.795-.21q-.45 0-.81.21t-.585.6-.225.93M90.08 34h2.175v11.7H90.08zm4.68 4.8h2.7l-2.94 2.85 3.24 4.05h-2.655l-3.3-4.05zm3.368 3.45q0-1.095.51-1.905t1.41-1.26 2.025-.45 2.01.45q.9.45 1.41 1.26.525.81.525 1.905 0 1.08-.525 1.89-.51.81-1.41 1.26-.885.45-2.01.45t-2.025-.45-1.41-1.26-.51-1.89m2.325 0q0 .54.225.93.225.375.585.585t.81.21q.435 0 .795-.21.375-.21.585-.585.225-.39.225-.93t-.225-.93a1.47 1.47 0 0 0-.585-.6 1.55 1.55 0 0 0-.795-.21q-.45 0-.81.21t-.585.6-.225.93m9.663-1.395h-3V38.8h6.75l-3.45 4.845h2.97V45.7h-6.9zm4.242 1.395q0-1.095.51-1.905t1.41-1.26 2.025-.45 2.01.45q.9.45 1.41 1.26.525.81.525 1.905 0 1.08-.525 1.89-.51.81-1.41 1.26-.885.45-2.01.45t-2.025-.45-1.41-1.26-.51-1.89m2.325 0q0 .54.225.93.225.375.585.585t.81.21q.435 0 .795-.21.375-.21.585-.585.225-.39.225-.93t-.225-.93a1.47 1.47 0 0 0-.585-.6 1.55 1.55 0 0 0-.795-.21q-.45 0-.81.21t-.585.6-.225.93m4.02-6.87-2.7 2.25-1.29-.645 2.25-2.4zm2.758.825q0-.54.39-.87.39-.345.93-.345.555 0 .93.345.39.33.39.87t-.39.885q-.375.345-.93.345-.54 0-.93-.345t-.39-.885m.225 2.595h2.19v6.9h-2.19zM4.41 62.85q-1.2 0-2.085-.435-.87-.45-1.35-1.26t-.48-1.905q0-1.11.465-1.92t1.335-1.245q.885-.435 2.085-.435t2.025.42q.825.405 1.26 1.185t.435 1.89v.33q0 .15-.03.255h-6.3v-1.26h4.26l-.54.69q.075-.105.12-.255.06-.165.06-.27 0-.45-.165-.78a1.2 1.2 0 0 0-.465-.51q-.3-.18-.705-.18-.51 0-.855.225t-.525.69q-.165.45-.18 1.14 0 .63.18 1.08t.54.69q.36.225.885.225.6 0 1.02-.225.435-.225.69-.675l2.025.495q-.54 1.02-1.47 1.53-.915.51-2.235.51M9.499 51h2.28v11.7h-2.28zm4.043 0h2.28v11.7h-2.28zm7.553 11.85q-1.2 0-2.085-.435-.87-.45-1.35-1.26t-.48-1.905q0-1.11.465-1.92t1.335-1.245q.885-.435 2.085-.435t2.025.42q.825.405 1.26 1.185t.435 1.89v.33q0 .15-.03.255h-6.3v-1.26h4.26l-.54.69q.075-.105.12-.255.06-.165.06-.27 0-.45-.165-.78a1.2 1.2 0 0 0-.465-.51q-.3-.18-.705-.18-.51 0-.855.225t-.525.69q-.165.45-.18 1.14 0 .63.18 1.08t.54.69q.36.225.885.225.6 0 1.02-.225.435-.225.69-.675l2.025.495q-.54 1.02-1.47 1.53-.915.51-2.235.51m9.573-4.35q0-.615-.24-.945-.225-.33-.765-.33-.36 0-.63.15t-.42.435-.15.69v4.2h-2.28v-6.9h2.28v1.035q.3-.57.81-.885.525-.315 1.29-.315 1.29 0 1.875.69t.585 1.935v4.44h-2.355zm8.367-5.282v-1.323l3.024-.612V57.7h-1.467v-4.869zm5.317 3.492 1.36.288-1.126 2.25-1.026-.207zm2.288.99 2.808-2.907q.252-.279.432-.504a1.7 1.7 0 0 0 .28-.441q.098-.225.098-.477a.8.8 0 0 0-.054-.288.7.7 0 0 0-.162-.252.7.7 0 0 0-.27-.18.9.9 0 0 0-.378-.072.93.93 0 0 0-.513.144.93.93 0 0 0-.333.405 1.6 1.6 0 0 0-.108.603h-1.494q0-.675.28-1.233.278-.558.836-.891.567-.333 1.377-.333.585 0 1.035.18.45.171.747.468.306.288.46.639.152.351.152.711 0 .513-.252.945-.252.423-.657.774l-1.467 1.314h2.52V57.7z"/></svg>