<svg xmlns="http://www.w3.org/2000/svg" fill="none" viewBox="0 0 217 18"><path fill="#4d4d4d" d="M0 .64h.68v5.6H0zm2.88 0h.84L1.296 3.264 3.84 6.24H3L.472 3.28zm1.603.4q0-.185.128-.312a.442.442 0 0 1 .752.312.44.44 0 0 1-.128.312.442.442 0 0 1-.624 0 .44.44 0 0 1-.128-.312m.12 1.52h.64v3.68h-.64zm3.759.6h-2.04v-.6h3.2l-2.28 3.08h2.12v.6h-3.28zm2.167 2q0 .192.088.328a.6.6 0 0 0 .256.2q.177.064.432.064.32 0 .568-.096a.8.8 0 0 0 .384-.304q.144-.208.144-.552l.128.4a1 1 0 0 1-.192.608 1.2 1.2 0 0 1-.496.384q-.312.128-.696.128-.376 0-.664-.128a1.1 1.1 0 0 1-.448-.376 1.06 1.06 0 0 1-.152-.576q0-.432.208-.712.209-.288.56-.432.36-.144.8-.144.353 0 .6.096.256.088.408.208.152.112.208.184v.376a2 2 0 0 0-1.184-.376q-.32 0-.536.088a.67.67 0 0 0-.312.248.7.7 0 0 0-.104.384m0-1.736-.312-.488q.209-.152.56-.304.353-.152.848-.152.424 0 .736.136.32.127.496.376a1 1 0 0 1 .184.608v2.64h-.64V3.6a.45.45 0 0 0-.24-.416 1 1 0 0 0-.536-.144q-.264 0-.48.072-.216.064-.376.16-.152.089-.24.152M12.905.8 11.465 2l-.36-.24 1.2-1.28zm1.86 1.76v3.68h-.64V2.56zm1.111.704a1 1 0 0 0-.232-.136.6.6 0 0 0-.264-.048q-.24 0-.376.12a.65.65 0 0 0-.192.328 2 2 0 0 0-.048.472h-.288q0-.44.152-.776.16-.344.408-.544a.8.8 0 0 1 .504-.2q.2 0 .368.056a.7.7 0 0 1 .32.2zM16.43 4.4q0-.56.248-.992.256-.432.688-.68t.968-.248q.544 0 .968.248.432.248.68.68.256.432.256.992 0 .552-.256.992a1.8 1.8 0 0 1-.68.68 1.9 1.9 0 0 1-.968.248q-.536 0-.968-.248a1.87 1.87 0 0 1-.688-.68 2 2 0 0 1-.248-.992m.648 0q0 .384.16.68.168.296.448.472.288.168.648.168t.64-.168q.288-.176.448-.472.168-.296.168-.68t-.168-.68a1.16 1.16 0 0 0-.448-.472 1.2 1.2 0 0 0-.64-.168q-.36 0-.648.168-.28.169-.448.472-.16.296-.16.68M19.613.64l-1.44 1.2-.36-.24 1.2-1.28zM21.116 0h.64v6.24h-.64zm2.132 5.104a.66.66 0 0 0 .096.36q.105.152.28.232.184.072.416.072.296 0 .528-.12a.92.92 0 0 0 .52-.848l.128.48q0 .353-.216.584-.208.233-.52.344a1.8 1.8 0 0 1-.608.112q-.336 0-.632-.136a1.2 1.2 0 0 1-.464-.408 1.13 1.13 0 0 1-.176-.64q0-.536.376-.856.383-.328 1.064-.328.4 0 .664.096.272.088.432.208.16.112.216.184v.376a1.9 1.9 0 0 0-.576-.272 2.2 2.2 0 0 0-.632-.088q-.312 0-.512.08a.6.6 0 0 0-.288.224.6.6 0 0 0-.096.344m-.096-1.696-.312-.472q.208-.152.568-.304a2.3 2.3 0 0 1 .88-.152q.432 0 .752.136.329.127.504.376a1 1 0 0 1 .184.608v2.64h-.64V3.688a.66.66 0 0 0-.064-.312.5.5 0 0 0-.184-.2.8.8 0 0 0-.264-.104 1.802 1.802 0 0 0-.816.032 1.7 1.7 0 0 0-.368.152q-.151.089-.24.152m3.412 3.072h.648q0 .264.144.488.144.232.408.368.264.144.624.144.279 0 .552-.136.27-.136.448-.432.183-.288.184-.752v-3.6h.64v3.6q0 .632-.264 1.056a1.7 1.7 0 0 1-.68.648q-.417.216-.88.216a2.2 2.2 0 0 1-.952-.2 1.54 1.54 0 0 1-.64-.568 1.5 1.5 0 0 1-.232-.832m-.072-2.08q0-.6.248-1.024.247-.432.664-.664a1.84 1.84 0 0 1 .912-.232q.463 0 .808.232.344.232.536.664.2.424.2 1.024 0 .592-.2 1.024-.192.432-.536.664a1.4 1.4 0 0 1-.808.232 1.84 1.84 0 0 1-.912-.232 1.73 1.73 0 0 1-.664-.664q-.249-.433-.248-1.024m.648 0q0 .425.168.72.176.296.464.448t.624.152q.279 0 .552-.152.27-.151.448-.448.176-.296.176-.72a1.4 1.4 0 0 0-.104-.56 1.2 1.2 0 0 0-.28-.416 1.2 1.2 0 0 0-.376-.256 1.1 1.1 0 0 0-.416-.088q-.336 0-.624.152-.288.151-.464.448a1.44 1.44 0 0 0-.168.72m8.057 1.92q-.513 0-.913-.24a1.73 1.73 0 0 1-.615-.68 2.2 2.2 0 0 1-.216-1q0-.576.223-1.008a1.7 1.7 0 0 1 .64-.672q.417-.24.96-.24.544 0 .928.232.393.224.6.648.21.425.209 1.008a1 1 0 0 1-.008.12v.072H33.86v-.544h2.64l-.255.368a.6.6 0 0 0 .047-.12.6.6 0 0 0 .024-.144q0-.328-.136-.568a.94.94 0 0 0-.36-.376 1.06 1.06 0 0 0-.544-.136q-.368 0-.632.16-.255.151-.4.448a1.7 1.7 0 0 0-.144.712q0 .432.136.736.137.304.4.464.264.16.64.16t.664-.16q.289-.168.489-.504l.52.328q-.288.464-.728.704-.432.232-1.024.232m2.445.16h.648q0 .264.144.488.144.232.408.368.264.144.624.144.279 0 .552-.136.271-.136.448-.432.183-.288.184-.752v-3.6h.64v3.6q0 .632-.264 1.056a1.7 1.7 0 0 1-.68.648q-.417.216-.88.216-.537 0-.952-.2a1.54 1.54 0 0 1-.64-.568 1.5 1.5 0 0 1-.232-.832M37.57 4.4q0-.6.248-1.024.247-.432.664-.664a1.84 1.84 0 0 1 .912-.232q.463 0 .808.232.344.232.536.664.2.424.2 1.024 0 .592-.2 1.024-.192.432-.536.664a1.4 1.4 0 0 1-.808.232 1.84 1.84 0 0 1-.912-.232 1.73 1.73 0 0 1-.664-.664q-.248-.433-.248-1.024m.648 0q0 .425.168.72.176.296.464.448t.624.152q.279 0 .552-.152.271-.151.448-.448.176-.296.176-.72a1.4 1.4 0 0 0-.104-.56 1.2 1.2 0 0 0-.28-.416 1.2 1.2 0 0 0-.376-.256 1.1 1.1 0 0 0-.416-.088q-.336 0-.624.152-.288.151-.464.448a1.44 1.44 0 0 0-.168.72m4.322.16v-.544h2.456a1.25 1.25 0 0 0-.16-.504.82.82 0 0 0-.344-.344 1.04 1.04 0 0 0-.536-.128q-.32 0-.584.136a1.07 1.07 0 0 0-.424.392 1.1 1.1 0 0 0-.152.592l-.016.24q0 .425.144.72.144.296.408.448t.624.152q.271 0 .48-.08.216-.088.384-.232a1.5 1.5 0 0 0 .288-.352l.52.328a3 3 0 0 1-.408.496 1.6 1.6 0 0 1-.544.328q-.32.112-.8.112-.496 0-.896-.248a1.8 1.8 0 0 1-.624-.68 2.16 2.16 0 0 1-.224-.992 2.4 2.4 0 0 1 .032-.392q.08-.455.32-.8t.616-.536q.384-.192.856-.192.52 0 .912.232t.608.656q.216.415.216 1v.096a1 1 0 0 1-.008.096zM45.236.72l-1.44 1.2-.36-.24 1.2-1.28zm1.485 4.392q.112.168.256.312t.328.232q.192.08.416.08.273 0 .424-.12.16-.128.16-.344a.43.43 0 0 0-.128-.32.9.9 0 0 0-.312-.224 4 4 0 0 0-.408-.176 6 6 0 0 1-.488-.224 1.4 1.4 0 0 1-.408-.344.88.88 0 0 1-.16-.536q0-.328.168-.544.177-.216.448-.32a1.64 1.64 0 0 1 1.592.248q.201.16.312.368l-.512.328a1.3 1.3 0 0 0-.384-.344.97.97 0 0 0-.512-.136.65.65 0 0 0-.344.088.3.3 0 0 0-.144.272q0 .144.112.256t.288.2q.176.089.368.168.32.128.584.28.264.144.416.352.16.208.16.536 0 .48-.352.8-.344.32-.912.32-.367 0-.664-.128a1.7 1.7 0 0 1-.504-.344 1.7 1.7 0 0 1-.304-.424zm4.875-1.952h-2.04v-.6h3.2l-2.28 3.08h2.12v.6h-3.28zm2.032 1.952q.111.168.256.312.144.144.328.232.191.08.416.08.271 0 .424-.12.16-.128.16-.344a.43.43 0 0 0-.128-.32.9.9 0 0 0-.312-.224 4 4 0 0 0-.408-.176 6 6 0 0 1-.488-.224 1.4 1.4 0 0 1-.408-.344.88.88 0 0 1-.16-.536q0-.328.168-.544a1.05 1.05 0 0 1 .448-.32 1.64 1.64 0 0 1 1.592.248q.2.16.312.368l-.512.328a1.3 1.3 0 0 0-.384-.344.97.97 0 0 0-.512-.136.65.65 0 0 0-.344.088.3.3 0 0 0-.144.272q0 .144.112.256.111.112.288.2.176.089.368.168.32.128.584.28.264.144.416.352.16.208.16.536 0 .48-.352.8-.345.32-.912.32-.369 0-.664-.128a1.7 1.7 0 0 1-.504-.344 1.7 1.7 0 0 1-.304-.424zm3.162-.552v-.544h2.456a1.25 1.25 0 0 0-.16-.504.82.82 0 0 0-.344-.344 1.04 1.04 0 0 0-.536-.128q-.32 0-.584.136a1.07 1.07 0 0 0-.424.392 1.1 1.1 0 0 0-.152.592l-.016.24q0 .425.144.72.144.296.408.448t.624.152q.271 0 .48-.08.216-.088.384-.232a1.5 1.5 0 0 0 .288-.352l.52.328a3 3 0 0 1-.408.496 1.6 1.6 0 0 1-.544.328q-.32.112-.8.112-.496 0-.896-.248a1.8 1.8 0 0 1-.624-.68 2.16 2.16 0 0 1-.224-.992 2.4 2.4 0 0 1 .032-.392q.08-.455.32-.8t.616-.536q.384-.192.856-.192.52 0 .912.232t.608.656q.216.415.216 1v.096a1 1 0 0 1-.008.096zM59.486.72l-1.44 1.2-.36-.24 1.2-1.28zm1.085 5.76h.648q0 .264.144.488.144.232.408.368.264.144.624.144.28 0 .552-.136.273-.136.448-.432.184-.288.184-.752v-3.6h.64v3.6q0 .632-.264 1.056a1.7 1.7 0 0 1-.68.648q-.415.216-.88.216a2.2 2.2 0 0 1-.952-.2 1.54 1.54 0 0 1-.64-.568 1.5 1.5 0 0 1-.232-.832M60.5 4.4q0-.6.248-1.024.249-.432.664-.664a1.84 1.84 0 0 1 .912-.232q.465 0 .808.232t.536.664q.2.424.2 1.024 0 .592-.2 1.024-.191.432-.536.664a1.4 1.4 0 0 1-.808.232 1.84 1.84 0 0 1-.912-.232 1.73 1.73 0 0 1-.664-.664Q60.5 4.991 60.5 4.4m.648 0q0 .425.168.72.176.296.464.448t.624.152q.28 0 .552-.152.273-.151.448-.448.177-.296.176-.72a1.4 1.4 0 0 0-.104-.56 1.2 1.2 0 0 0-.28-.416 1.2 1.2 0 0 0-.376-.256 1.1 1.1 0 0 0-.416-.088q-.336 0-.624.152-.288.151-.464.448a1.44 1.44 0 0 0-.168.72m6.595 1.84V2.56h.64v3.68zm-1.72-1.44q0 .456.192.688.2.232.592.232a.96.96 0 0 0 .488-.12.8.8 0 0 0 .328-.328.93.93 0 0 0 .12-.472h.288q0 .44-.192.784a1.46 1.46 0 0 1-.496.536q-.312.2-.696.2-.569 0-.92-.36-.345-.367-.344-1.08V2.56h.64zm1.224-3.4q0-.184.128-.312a.42.42 0 0 1 .304-.128q.185 0 .312.128.136.128.136.312a.43.43 0 0 1-.136.312.43.43 0 0 1-.312.128.42.42 0 0 1-.304-.128.44.44 0 0 1-.128-.312m-1.6 0q0-.185.128-.312a.42.42 0 0 1 .304-.128q.185 0 .312.128.136.128.136.312a.43.43 0 0 1-.136.312.43.43 0 0 1-.312.128.42.42 0 0 1-.304-.128.44.44 0 0 1-.128-.312m3.691 5.08h.648q0 .264.144.488.144.232.408.368.264.144.624.144.28 0 .552-.136.271-.136.448-.432.184-.288.184-.752v-3.6h.64v3.6q0 .632-.264 1.056a1.7 1.7 0 0 1-.68.648q-.415.216-.88.216-.536 0-.952-.2a1.54 1.54 0 0 1-.64-.568 1.5 1.5 0 0 1-.232-.832m-.072-2.08q0-.6.248-1.024.248-.432.664-.664a1.84 1.84 0 0 1 .912-.232q.465 0 .808.232.345.232.536.664.2.424.2 1.024 0 .592-.2 1.024-.192.432-.536.664a1.4 1.4 0 0 1-.808.232 1.84 1.84 0 0 1-.912-.232 1.73 1.73 0 0 1-.664-.664q-.248-.433-.248-1.024m.648 0q0 .425.168.72.176.296.464.448t.624.152q.28 0 .552-.152.271-.151.448-.448.176-.296.176-.72a1.4 1.4 0 0 0-.104-.56 1.2 1.2 0 0 0-.28-.416 1.2 1.2 0 0 0-.376-.256 1.1 1.1 0 0 0-.416-.088q-.336 0-.624.152-.288.151-.464.448a1.44 1.44 0 0 0-.168.72m7.154-1.84L74.667 8h-.72l1.008-2.28-1.407-3.16h.76l1.167 2.88-.263-.032 1.135-2.848zm.604-1.52q0-.185.128-.312a.442.442 0 0 1 .752.312.44.44 0 0 1-.128.312.442.442 0 0 1-.624 0 .44.44 0 0 1-.128-.312m.12 1.52h.64v3.68h-.64zm4.508 2.552q.112.168.256.312t.328.232q.193.08.416.08.273 0 .424-.12.16-.128.16-.344a.43.43 0 0 0-.127-.32.9.9 0 0 0-.312-.224 4 4 0 0 0-.409-.176 6 6 0 0 1-.487-.224 1.4 1.4 0 0 1-.409-.344.88.88 0 0 1-.16-.536q0-.328.168-.544a1.05 1.05 0 0 1 .448-.32 1.64 1.64 0 0 1 1.593.248q.2.16.311.368l-.511.328a1.3 1.3 0 0 0-.385-.344.97.97 0 0 0-.511-.136.65.65 0 0 0-.344.088.3.3 0 0 0-.145.272q0 .144.113.256.111.112.288.2.176.089.367.168.321.128.585.28.263.144.415.352.16.208.16.536 0 .48-.352.8-.343.32-.912.32-.367 0-.663-.128a1.7 1.7 0 0 1-.504-.344 1.7 1.7 0 0 1-.304-.424zm4.875-1.952h-2.04v-.6h3.2l-2.28 3.08h2.12v.6h-3.28zm2.168 1.944a.66.66 0 0 0 .096.36q.104.152.28.232.183.072.416.072.296 0 .528-.12a.92.92 0 0 0 .52-.848l.128.48q0 .353-.216.584-.208.233-.52.344a1.8 1.8 0 0 1-.608.112q-.336 0-.632-.136a1.2 1.2 0 0 1-.464-.408 1.13 1.13 0 0 1-.176-.64q0-.536.376-.856.383-.328 1.064-.328.4 0 .664.096.271.088.432.208.159.112.216.184v.376a1.9 1.9 0 0 0-.576-.272 2.2 2.2 0 0 0-.632-.088q-.312 0-.512.08a.6.6 0 0 0-.288.224.6.6 0 0 0-.096.344m-.096-1.696-.312-.472q.207-.152.568-.304a2.3 2.3 0 0 1 .88-.152q.431 0 .752.136.327.127.504.376a1 1 0 0 1 .184.608v2.64h-.64V3.688a.66.66 0 0 0-.064-.312.5.5 0 0 0-.184-.2.8.8 0 0 0-.264-.104 1.803 1.803 0 0 0-.816.032 1.7 1.7 0 0 0-.368.152q-.153.089-.24.152M92.866 0h.64v6.24h-.64zm2 2.56h.8l-1.6 1.52 1.76 2.16h-.8l-1.76-2.16zm2.87 3.76q-.513 0-.912-.24a1.73 1.73 0 0 1-.616-.68 2.2 2.2 0 0 1-.216-1q0-.576.224-1.008.231-.432.64-.672.415-.24.96-.24.543 0 .928.232.39.224.6.648.207.425.208 1.008a1 1 0 0 1-.008.12v.072H96.4v-.544h2.64l-.256.368a.6.6 0 0 0 .048-.12.6.6 0 0 0 .024-.144q0-.328-.136-.568a.94.94 0 0 0-.36-.376 1.06 1.06 0 0 0-.544-.136q-.369 0-.632.16-.256.151-.4.448a1.7 1.7 0 0 0-.144.712q0 .432.136.736t.4.464.64.16.664-.16q.287-.168.488-.504l.52.328q-.288.464-.728.704-.432.232-1.024.232m7.733-2.4v2.32h-.64V4q0-.472-.176-.696-.168-.225-.528-.224a.9.9 0 0 0-.456.112.7.7 0 0 0-.296.312 1.1 1.1 0 0 0-.104.496v2.24h-.64V4q0-.472-.176-.696-.168-.225-.528-.224a.9.9 0 0 0-.456.112.7.7 0 0 0-.296.312 1.1 1.1 0 0 0-.104.496v2.24h-.64V2.56h.64v.536a1.2 1.2 0 0 1 .416-.464q.255-.152.6-.152.384 0 .656.184.279.176.408.504.192-.344.48-.512.287-.176.656-.176.375 0 .64.168.264.168.4.496.144.32.144.776M107.271 0v6.24h-.64V0zm3.08 4.4q0 .592-.248 1.024t-.664.664a1.8 1.8 0 0 1-.912.232q-.456 0-.808-.232a1.6 1.6 0 0 1-.544-.664q-.192-.433-.192-1.024 0-.6.192-1.024.2-.432.544-.664.352-.232.808-.232.504 0 .912.232.416.232.664.664.248.424.248 1.024m-.648 0q0-.425-.176-.72a1.1 1.1 0 0 0-.456-.448 1.3 1.3 0 0 0-.624-.152q-.28 0-.552.152-.272.151-.448.448a1.4 1.4 0 0 0-.176.72q0 .425.176.72.176.296.448.448.271.152.552.152.344 0 .624-.152.288-.151.456-.448.176-.296.176-.72m2.954 1.92a1.74 1.74 0 0 1-.912-.24 1.74 1.74 0 0 1-.616-.68 2.2 2.2 0 0 1-.216-1q0-.576.224-1.008.232-.432.64-.672.417-.24.96-.24.544 0 .928.232.393.224.6.648.208.425.208 1.008a1 1 0 0 1-.008.12v.072h-3.144v-.544h2.64l-.256.368a.6.6 0 0 0 .048-.12.6.6 0 0 0 .024-.144 1.13 1.13 0 0 0-.136-.568.94.94 0 0 0-.36-.376 1.05 1.05 0 0 0-.544-.136q-.368 0-.632.16a1.03 1.03 0 0 0-.4.448q-.135.289-.144.712 0 .432.136.736t.4.464q.265.16.64.16.376 0 .664-.16.288-.168.488-.504l.52.328a1.95 1.95 0 0 1-.728.704q-.432.232-1.024.232m3.334-3.76v3.68h-.64V2.56zm1.112.704a1 1 0 0 0-.232-.136.6.6 0 0 0-.264-.048q-.24 0-.376.12a.65.65 0 0 0-.192.328 2 2 0 0 0-.048.472h-.288q0-.44.152-.776.159-.344.408-.544a.8.8 0 0 1 .504-.2q.2 0 .368.056a.7.7 0 0 1 .32.2zM119.4 6.32q-.513 0-.912-.24a1.7 1.7 0 0 1-.616-.68 2.2 2.2 0 0 1-.216-1q0-.576.224-1.008.231-.432.64-.672.415-.24.96-.24.543 0 .928.232.391.224.6.648.207.425.208 1.008 0 .055-.008.12v.072h-3.144v-.544h2.64l-.256.368a.6.6 0 0 0 .048-.12.6.6 0 0 0 .024-.144 1.14 1.14 0 0 0-.136-.568.95.95 0 0 0-.36-.376 1.06 1.06 0 0 0-.544-.136q-.369 0-.632.16-.256.151-.4.448a1.7 1.7 0 0 0-.144.712q0 .432.136.736t.4.464.64.16.664-.16q.287-.168.488-.504l.52.328q-.288.464-.728.704-.432.232-1.024.232M122.053 0h.64v6.24h-.64zm2 2.56h.8l-1.6 1.52 1.76 2.16h-.8l-1.76-2.16zM127.976 4q0-.456-.2-.688t-.584-.232q-.28 0-.496.12a.83.83 0 0 0-.328.32 1 1 0 0 0-.112.48v2.24h-.64V2.56h.64v.576q.185-.336.456-.496.28-.16.64-.16.584 0 .92.392.344.384.344 1.048v2.32h-.64zm3.267 2.32a1.74 1.74 0 0 1-.912-.24 1.74 1.74 0 0 1-.616-.68 2.2 2.2 0 0 1-.216-1q0-.576.224-1.008.232-.432.64-.672.417-.24.96-.24.544 0 .928.232.393.224.6.648.208.425.208 1.008a1 1 0 0 1-.008.12v.072h-3.144v-.544h2.64l-.256.368a.6.6 0 0 0 .048-.12.6.6 0 0 0 .024-.144 1.13 1.13 0 0 0-.136-.568.94.94 0 0 0-.36-.376 1.05 1.05 0 0 0-.544-.136q-.368 0-.632.16a1.03 1.03 0 0 0-.4.448q-.135.289-.144.712 0 .432.136.736t.4.464.64.16.664-.16q.288-.168.488-.504l.52.328a1.95 1.95 0 0 1-.728.704q-.432.232-1.024.232M133.897 0h.64v6.24h-.64zm2 2.56h.8l-1.6 1.52 1.76 2.16h-.8l-1.76-2.16zm4.113 2.552q.112.168.256.312t.328.232q.192.08.416.08.273 0 .424-.12.16-.128.16-.344a.43.43 0 0 0-.128-.32.9.9 0 0 0-.312-.224 4 4 0 0 0-.408-.176 6 6 0 0 1-.488-.224 1.4 1.4 0 0 1-.408-.344.88.88 0 0 1-.16-.536q0-.328.168-.544.177-.216.448-.32a1.64 1.64 0 0 1 1.592.248q.201.16.312.368l-.512.328a1.25 1.25 0 0 0-.384-.344.97.97 0 0 0-.512-.136.65.65 0 0 0-.344.088.3.3 0 0 0-.144.272q0 .144.112.256t.288.2q.177.089.368.168.32.128.584.28.264.144.416.352.16.208.16.536 0 .48-.352.8-.343.32-.912.32a1.7 1.7 0 0 1-.664-.128 1.7 1.7 0 0 1-.504-.344 1.7 1.7 0 0 1-.304-.424zm4.875-1.952h-2.04v-.6h3.2l-2.28 3.08h2.12v.6h-3.28zm1.442 1.24q0-.56.248-.992.256-.432.688-.68a1.9 1.9 0 0 1 .968-.248q.545 0 .968.248.432.248.68.68.256.432.256.992 0 .552-.256.992a1.8 1.8 0 0 1-.68.68 1.9 1.9 0 0 1-.968.248 1.9 1.9 0 0 1-.968-.248 1.9 1.9 0 0 1-.688-.68 2 2 0 0 1-.248-.992m.648 0q0 .384.16.68.168.296.448.472.288.168.648.168t.64-.168q.289-.176.448-.472.168-.296.168-.68t-.168-.68a1.15 1.15 0 0 0-.448-.472 1.2 1.2 0 0 0-.64-.168q-.36 0-.648.168-.28.169-.448.472-.16.296-.16.68m2.536-3.76-1.44 1.2-.36-.24 1.2-1.28zm1.504-.64h.64v6.24h-.64zm1.523 4.4q0-.56.248-.992.256-.432.688-.68a1.9 1.9 0 0 1 .968-.248q.545 0 .968.248.432.248.68.68.256.432.256.992 0 .552-.256.992a1.8 1.8 0 0 1-.68.68 1.9 1.9 0 0 1-.968.248 1.9 1.9 0 0 1-.968-.248 1.9 1.9 0 0 1-.688-.68 2 2 0 0 1-.248-.992m.648 0q0 .384.16.68.168.296.448.472.288.168.648.168t.64-.168q.289-.176.448-.472.168-.296.168-.68t-.168-.68a1.15 1.15 0 0 0-.448-.472 1.2 1.2 0 0 0-.64-.168q-.36 0-.648.168-.28.169-.448.472-.16.296-.16.68m2.536-3.76-1.44 1.2-.36-.24 1.2-1.28zm3.862-.64h.64v6.24h-.64zm2 2.56h.8l-1.6 1.52 1.76 2.16h-.8l-1.76-2.16zm1.126 1.84q0-.56.248-.992.256-.432.688-.68a1.9 1.9 0 0 1 .968-.248q.545 0 .968.248.432.248.68.68.256.432.256.992 0 .552-.256.992a1.8 1.8 0 0 1-.68.68 1.9 1.9 0 0 1-.968.248 1.9 1.9 0 0 1-.968-.248 1.9 1.9 0 0 1-.688-.68 2 2 0 0 1-.248-.992m.648 0q0 .384.16.68.168.296.448.472.288.168.648.168t.64-.168q.288-.176.448-.472.168-.296.168-.68t-.168-.68a1.15 1.15 0 0 0-.448-.472 1.2 1.2 0 0 0-.64-.168q-.36 0-.648.168-.28.169-.448.472-.16.296-.16.68m9.08-.48v2.32h-.641V4q0-.472-.175-.696-.17-.225-.529-.224a.9.9 0 0 0-.456.112.7.7 0 0 0-.296.312 1.1 1.1 0 0 0-.104.496v2.24h-.64V4q0-.472-.176-.696-.168-.225-.528-.224a.9.9 0 0 0-.456.112.7.7 0 0 0-.296.312 1.1 1.1 0 0 0-.104.496v2.24h-.64V2.56h.64v.536q.168-.312.416-.464.256-.152.6-.152.384 0 .656.184.28.176.408.504.192-.344.48-.512.288-.176.656-.176.376 0 .64.168t.4.496q.145.32.145.776m6.242 0v2.32h-.64V4q0-.472-.176-.696-.168-.225-.528-.224a.9.9 0 0 0-.456.112.7.7 0 0 0-.296.312 1.1 1.1 0 0 0-.104.496v2.24h-.64V4q0-.472-.176-.696-.168-.225-.528-.224a.9.9 0 0 0-.456.112.7.7 0 0 0-.296.312 1.1 1.1 0 0 0-.104.496v2.24h-.64V2.56h.64v.536a1.2 1.2 0 0 1 .416-.464q.255-.152.6-.152.383 0 .656.184.279.176.408.504.192-.344.48-.512.287-.176.656-.176.376 0 .64.168t.4.496q.144.32.144.776m1.842.88q0 .44.2.68t.584.24q.28 0 .488-.112a.8.8 0 0 0 .328-.328.94.94 0 0 0 .12-.48V2.56h.64v3.68h-.64v-.576a1.34 1.34 0 0 1-.456.496 1.24 1.24 0 0 1-.64.16q-.576 0-.92-.392-.344-.391-.344-1.048V2.56h.64zm5.923-.8q0-.456-.2-.688t-.584-.232q-.28 0-.496.12a.8.8 0 0 0-.328.32 1 1 0 0 0-.112.48v2.24h-.64V2.56h.64v.576q.184-.336.456-.496.28-.16.64-.16.584 0 .92.392.344.384.344 1.048v2.32h-.64zm1.843-2.96q0-.185.128-.312a.443.443 0 0 1 .624 0q.128.128.128.312a.44.44 0 0 1-.128.312.443.443 0 0 1-.624 0 .44.44 0 0 1-.128-.312m.12 1.52h.64v3.68h-.64zM190.326 0h.64v6.24h-.64zm2 2.56h.8l-1.6 1.52 1.76 2.16h-.8l-1.76-2.16zm1.852 2.6q0 .192.088.328a.57.57 0 0 0 .256.2q.175.064.432.064.32 0 .568-.096a.8.8 0 0 0 .384-.304q.144-.208.144-.552l.128.4a1 1 0 0 1-.192.608 1.2 1.2 0 0 1-.496.384q-.312.128-.696.128a1.6 1.6 0 0 1-.664-.128 1.07 1.07 0 0 1-.448-.376 1.05 1.05 0 0 1-.152-.576q0-.432.208-.712.207-.288.56-.432.36-.144.8-.144.351 0 .6.096.255.088.408.208.151.112.208.184v.376a2 2 0 0 0-.552-.28 2 2 0 0 0-.632-.096q-.32 0-.536.088a.67.67 0 0 0-.312.248.7.7 0 0 0-.104.384m0-1.736-.312-.488q.207-.152.56-.304a2.1 2.1 0 0 1 .848-.152q.423 0 .736.136.32.127.496.376a1 1 0 0 1 .184.608v2.64h-.64V3.6a.45.45 0 0 0-.24-.416 1 1 0 0 0-.536-.144q-.264 0-.48.072-.216.064-.376.16-.153.089-.24.152M196.554.8l-1.44 1.2-.36-.24 1.2-1.28zm1.506 3.6q0 .384.16.68.168.296.448.472.288.168.648.168.297 0 .552-.088a1.6 1.6 0 0 0 .456-.248 1 1 0 0 0 .272-.336v.8q-.192.225-.552.352-.351.12-.728.12a1.9 1.9 0 0 1-.968-.248 1.9 1.9 0 0 1-.688-.68 2 2 0 0 1-.248-.992q0-.56.248-.992.256-.432.688-.68a1.9 1.9 0 0 1 .968-.248q.377 0 .728.128.36.12.552.344v.8a.9.9 0 0 0-.272-.336 1.5 1.5 0 0 0-.456-.24 1.6 1.6 0 0 0-.552-.096q-.36 0-.648.168-.28.169-.448.472-.16.296-.16.68m3.533-3.36q0-.185.128-.312a.44.44 0 0 1 .312-.128q.183 0 .312.128.128.128.128.312a.44.44 0 0 1-.128.312.43.43 0 0 1-.312.128.44.44 0 0 1-.44-.44m.12 1.52h.64v3.68h-.64zm1.638 1.84q0-.56.248-.992.256-.432.688-.68a1.9 1.9 0 0 1 .968-.248q.544 0 .968.248.432.248.68.68.256.432.256.992 0 .552-.256.992a1.8 1.8 0 0 1-.68.68 1.9 1.9 0 0 1-.968.248 1.9 1.9 0 0 1-.968-.248 1.9 1.9 0 0 1-.688-.68 2 2 0 0 1-.248-.992m.648 0q0 .384.16.68.168.296.448.472.288.168.648.168t.64-.168q.288-.176.448-.472.168-.296.168-.68t-.168-.68a1.16 1.16 0 0 0-.448-.472 1.2 1.2 0 0 0-.64-.168q-.36 0-.648.168a1.23 1.23 0 0 0-.448.472q-.16.296-.16.68m2.536-3.76-1.44 1.2-.36-.24 1.2-1.28zm1.265 5.28q0-.185.128-.312a.44.44 0 0 1 .312-.128q.183 0 .312.128.128.128.128.312a.44.44 0 0 1-.128.312.43.43 0 0 1-.312.128.44.44 0 0 1-.44-.44M0 9.64h.68v5.6H0zm2.88 0h.84l-2.424 2.624L3.84 15.24H3L.472 12.28zm1.45 3.92v-.544h2.455a1.25 1.25 0 0 0-.16-.504.82.82 0 0 0-.344-.344 1.04 1.04 0 0 0-.536-.128q-.32 0-.584.136a1.07 1.07 0 0 0-.424.392 1.1 1.1 0 0 0-.152.592l-.016.24q0 .425.144.72.144.296.408.448t.624.152q.273 0 .48-.08.216-.088.384-.232a1.5 1.5 0 0 0 .288-.352l.52.328a3 3 0 0 1-.408.496q-.224.208-.544.328-.32.112-.8.112-.496 0-.896-.248a1.8 1.8 0 0 1-.624-.68 2.15 2.15 0 0 1-.224-.992 2.4 2.4 0 0 1 .032-.392q.08-.456.32-.8t.616-.536q.385-.192.856-.192.52 0 .912.232.393.232.608.656.216.415.216 1v.096a1 1 0 0 1-.008.096zm2.695-3.84-1.44 1.2-.36-.24 1.2-1.28zm1.973 1.84v3.68h-.64v-3.68zm1.112.704a1 1 0 0 0-.232-.136.6.6 0 0 0-.264-.048q-.24 0-.376.12a.65.65 0 0 0-.192.328 2 2 0 0 0-.048.472H8.71q0-.44.152-.776.16-.344.408-.544a.8.8 0 0 1 .504-.2q.2 0 .368.056a.7.7 0 0 1 .32.2zm.887-2.224q0-.184.128-.304a.42.42 0 0 1 .304-.128q.183 0 .304.128.128.12.128.304a.42.42 0 0 1-.128.304.4.4 0 0 1-.304.128.42.42 0 0 1-.304-.128.42.42 0 0 1-.128-.304m-.632 6.112a.5.5 0 0 0 .16.152q.103.056.232.056a.3.3 0 0 0 .216-.072.42.42 0 0 0 .128-.232q.04-.16.04-.416v-4.08h.64v4.16q0 .4-.128.688a.92.92 0 0 1-.36.44q-.24.152-.576.152a1 1 0 0 1-.288-.04.7.7 0 0 1-.232-.104.8.8 0 0 1-.184-.176zm5.096-.912v-3.68h.64v3.68zm-1.72-1.44q0 .456.192.688.2.232.592.232a.96.96 0 0 0 .488-.12.8.8 0 0 0 .328-.328.93.93 0 0 0 .12-.472h.288q0 .44-.192.784a1.45 1.45 0 0 1-.496.536q-.312.2-.696.2-.569 0-.92-.36-.344-.368-.344-1.08v-2.32h.64zm1.224-3.4q0-.184.128-.312a.42.42 0 0 1 .304-.128q.183 0 .312.128.136.128.136.312a.43.43 0 0 1-.136.312.43.43 0 0 1-.312.128.42.42 0 0 1-.304-.128.44.44 0 0 1-.128-.312m-1.6 0q0-.184.128-.312a.42.42 0 0 1 .304-.128q.183 0 .312.128.136.128.136.312a.43.43 0 0 1-.136.312.43.43 0 0 1-.312.128.42.42 0 0 1-.304-.128.44.44 0 0 1-.128-.312M17.264 9h.64v6.24h-.64zm2 2.56h.8l-1.6 1.52 1.76 2.16h-.8l-1.76-2.16zm2.39 2.8.64.24-.88 2-.465-.168zM28.288 13q0-.456-.2-.688t-.584-.232q-.28 0-.496.12a.8.8 0 0 0-.328.32 1 1 0 0 0-.112.48v2.24h-.64v-3.68h.64v.576q.183-.337.456-.496.28-.16.64-.16.585 0 .92.392.345.384.344 1.048v2.32h-.64zm3.267 2.32q-.512 0-.912-.24a1.73 1.73 0 0 1-.616-.68 2.2 2.2 0 0 1-.216-1q0-.576.224-1.008.232-.432.64-.672.416-.24.96-.24t.928.232q.392.224.6.648t.208 1.008a1 1 0 0 1-.008.12v.072H30.22v-.544h2.64l-.256.368a.6.6 0 0 0 .048-.12.6.6 0 0 0 .024-.144q0-.328-.136-.568a.94.94 0 0 0-.36-.376 1.06 1.06 0 0 0-.544-.136q-.368 0-.632.16-.255.151-.4.448a1.7 1.7 0 0 0-.144.712q0 .432.136.736t.4.464q.265.16.64.16.376 0 .664-.16.288-.168.488-.504l.52.328q-.288.465-.728.704-.432.232-1.024.232m4.531-3.76h1.84v.6h-1.84zm.6-1.28h.64v4.96h-.64zm3.306 5.04q-.512 0-.912-.24a1.73 1.73 0 0 1-.616-.68 2.2 2.2 0 0 1-.216-1q0-.576.224-1.008.232-.432.64-.672.417-.24.96-.24.544 0 .928.232.393.224.6.648.208.424.208 1.008a1 1 0 0 1-.008.12v.072h-3.144v-.544h2.64l-.256.368a.6.6 0 0 0 .048-.12.6.6 0 0 0 .024-.144q0-.328-.136-.568a.94.94 0 0 0-.36-.376 1.06 1.06 0 0 0-.544-.136q-.368 0-.632.16-.255.151-.4.448a1.7 1.7 0 0 0-.144.712q0 .432.136.736t.4.464q.265.16.64.16.376 0 .664-.16.288-.168.488-.504l.52.328q-.288.465-.728.704-.432.232-1.024.232m2.446.16h.648q0 .264.144.488.144.232.408.368.264.144.624.144.279 0 .552-.136.27-.136.448-.432.184-.288.184-.752v-3.6h.64v3.6q0 .631-.264 1.056a1.7 1.7 0 0 1-.68.648q-.417.216-.88.216-.537 0-.952-.2a1.54 1.54 0 0 1-.64-.568 1.5 1.5 0 0 1-.232-.832m-.072-2.08q0-.6.248-1.024.247-.432.664-.664a1.84 1.84 0 0 1 .912-.232q.463 0 .808.232.344.232.536.664.2.424.2 1.024 0 .592-.2 1.024-.192.432-.536.664a1.4 1.4 0 0 1-.808.232 1.84 1.84 0 0 1-.912-.232 1.73 1.73 0 0 1-.664-.664q-.248-.432-.248-1.024m.648 0q0 .425.168.72.176.296.464.448t.624.152q.279 0 .552-.152.27-.151.448-.448.176-.295.176-.72a1.4 1.4 0 0 0-.104-.56 1.2 1.2 0 0 0-.28-.416 1.2 1.2 0 0 0-.376-.256 1.1 1.1 0 0 0-.416-.088q-.336 0-.624.152-.288.151-.464.448a1.44 1.44 0 0 0-.168.72m7.154-1.84L47.77 17h-.72l1.008-2.28-1.408-3.16h.76l1.168 2.88-.264-.032 1.136-2.848zm.574 2v-.544H53.2a1.25 1.25 0 0 0-.16-.504.82.82 0 0 0-.344-.344 1.04 1.04 0 0 0-.536-.128q-.32 0-.584.136a1.07 1.07 0 0 0-.424.392 1.1 1.1 0 0 0-.152.592l-.016.24q0 .425.144.72.144.296.408.448t.624.152q.273 0 .48-.08.216-.088.384-.232a1.5 1.5 0 0 0 .288-.352l.52.328a3 3 0 0 1-.408.496q-.223.208-.544.328-.32.112-.8.112-.495 0-.896-.248a1.8 1.8 0 0 1-.624-.68 2.16 2.16 0 0 1-.224-.992 2.4 2.4 0 0 1 .032-.392q.08-.456.32-.8t.616-.536q.384-.192.856-.192.52 0 .912.232t.608.656q.216.415.216 1v.096a1 1 0 0 1-.008.096zm2.696-3.84L52 10.92l-.36-.24 1.2-1.28zM54.733 9h.64v6.24h-.64zm2 2.56h.8l-1.6 1.52 1.76 2.16h-.8l-1.76-2.16zm4.25 2.544a.66.66 0 0 0 .095.36q.105.152.28.232.185.072.416.072.297 0 .528-.12a.92.92 0 0 0 .52-.848l.128.48q0 .353-.216.584-.208.233-.52.344a1.8 1.8 0 0 1-.608.112q-.336 0-.632-.136a1.2 1.2 0 0 1-.464-.408 1.13 1.13 0 0 1-.176-.64q0-.536.376-.856.384-.328 1.064-.328.4 0 .664.096.273.088.432.208.16.112.216.184v.376a1.9 1.9 0 0 0-.576-.272 2.2 2.2 0 0 0-.632-.088q-.312 0-.512.08a.6.6 0 0 0-.288.224.6.6 0 0 0-.096.344m-.097-1.696-.312-.472a3 3 0 0 1 .568-.304 2.3 2.3 0 0 1 .88-.152q.432 0 .752.136.328.127.504.376a1 1 0 0 1 .184.608v2.64h-.64v-2.552a.66.66 0 0 0-.064-.312.5.5 0 0 0-.184-.2.8.8 0 0 0-.264-.104 1.8 1.8 0 0 0-.816.032 1.7 1.7 0 0 0-.368.152q-.151.089-.24.152m5.778-.848h1.84v.6h-1.84zm1.776-1.792q-.08-.136-.192-.168a.6.6 0 0 0-.2-.04q-.12 0-.208.072a.44.44 0 0 0-.128.224 1.5 1.5 0 0 0-.048.424v4.96h-.64V10.2q0-.44.128-.72a.9.9 0 0 1 .36-.416 1.1 1.1 0 0 1 .576-.144q.177 0 .312.048a.86.86 0 0 1 .392.272zm.473 3.632q0-.56.248-.992.256-.432.688-.68a1.9 1.9 0 0 1 .968-.248q.545 0 .968.248.432.248.68.68.256.432.256.992 0 .552-.256.992a1.8 1.8 0 0 1-.68.68 1.9 1.9 0 0 1-.968.248 1.9 1.9 0 0 1-.968-.248 1.87 1.87 0 0 1-.688-.68 2 2 0 0 1-.248-.992m.648 0q0 .384.16.68.168.296.448.472.288.168.648.168t.64-.168q.288-.176.448-.472.168-.296.168-.68t-.168-.68a1.16 1.16 0 0 0-.448-.472 1.2 1.2 0 0 0-.64-.168q-.36 0-.648.168-.28.168-.448.472-.16.296-.16.68m3.792 2.08H74q0 .264.144.488.144.232.408.368.264.144.624.144.279 0 .552-.136.271-.136.448-.432.184-.288.184-.752v-3.6H77v3.6q0 .631-.264 1.056a1.7 1.7 0 0 1-.68.648q-.417.216-.88.216-.537 0-.952-.2a1.54 1.54 0 0 1-.64-.568 1.5 1.5 0 0 1-.232-.832m-.072-2.08q0-.6.248-1.024.247-.432.664-.664a1.84 1.84 0 0 1 .912-.232q.463 0 .808.232.344.232.536.664.2.424.2 1.024 0 .592-.2 1.024-.192.432-.536.664a1.4 1.4 0 0 1-.808.232 1.84 1.84 0 0 1-.912-.232 1.73 1.73 0 0 1-.664-.664q-.248-.432-.248-1.024m.648 0q0 .425.168.72.176.296.464.448t.624.152q.279 0 .552-.152.271-.151.448-.448.176-.295.176-.72 0-.32-.104-.56a1.2 1.2 0 0 0-.28-.416 1.2 1.2 0 0 0-.376-.256 1.1 1.1 0 0 0-.416-.088q-.336 0-.624.152a1.17 1.17 0 0 0-.464.448 1.44 1.44 0 0 0-.168.72m7.154-1.84-2.4 5.44h-.72l1.008-2.28-1.408-3.16h.76l1.168 2.88-.264-.032 1.136-2.848zm.892 2.544a.66.66 0 0 0 .096.36q.103.152.28.232.183.072.416.072.296 0 .528-.12a.92.92 0 0 0 .52-.848l.128.48q0 .353-.216.584-.209.233-.52.344a1.8 1.8 0 0 1-.608.112q-.336 0-.632-.136a1.2 1.2 0 0 1-.464-.408 1.13 1.13 0 0 1-.176-.64q0-.536.376-.856.383-.328 1.064-.328.4 0 .664.096.27.088.432.208.159.112.216.184v.376a1.9 1.9 0 0 0-.576-.272 2.2 2.2 0 0 0-.632-.088q-.313 0-.512.08a.6.6 0 0 0-.288.224.6.6 0 0 0-.096.344m-.096-1.696-.312-.472a3 3 0 0 1 .568-.304 2.3 2.3 0 0 1 .88-.152q.431 0 .752.136.327.127.504.376a1 1 0 0 1 .184.608v2.64h-.64v-2.552a.66.66 0 0 0-.064-.312.5.5 0 0 0-.184-.2.8.8 0 0 0-.264-.104 1.8 1.8 0 0 0-.816.032 1.7 1.7 0 0 0-.368.152q-.153.089-.24.152m3.811 1.704q.112.168.256.312t.328.232q.192.08.416.08.272 0 .424-.12.16-.128.16-.344a.43.43 0 0 0-.128-.32.9.9 0 0 0-.312-.224 4 4 0 0 0-.408-.176 6 6 0 0 1-.488-.224 1.4 1.4 0 0 1-.408-.344.88.88 0 0 1-.16-.536q0-.328.168-.544a1.05 1.05 0 0 1 .448-.32 1.64 1.64 0 0 1 1.592.248q.2.16.312.368l-.512.328a1.3 1.3 0 0 0-.384-.344.97.97 0 0 0-.512-.136.65.65 0 0 0-.344.088.3.3 0 0 0-.144.272q0 .144.112.256t.288.2.368.168q.32.128.584.28.264.144.416.352.16.208.16.536 0 .48-.352.8-.344.32-.912.32-.367 0-.664-.128a1.7 1.7 0 0 1-.504-.344 1.7 1.7 0 0 1-.304-.424zm4.875-1.952h-2.04v-.6h3.2l-2.28 3.08h2.12v.6h-3.28zm1.32-.6h1.84v.6h-1.84zm.6-1.28h.64v4.96h-.64zm1.561 3.12q0-.56.248-.992.255-.432.688-.68a1.9 1.9 0 0 1 .968-.248q.545 0 .968.248.432.248.68.68.256.432.256.992 0 .552-.256.992a1.8 1.8 0 0 1-.68.68 1.9 1.9 0 0 1-.968.248 1.9 1.9 0 0 1-.968-.248 1.87 1.87 0 0 1-.688-.68 2 2 0 0 1-.248-.992m.648 0q0 .384.16.68.169.296.448.472.288.168.648.168t.64-.168q.289-.176.448-.472.168-.296.168-.68t-.168-.68a1.16 1.16 0 0 0-.448-.472 1.2 1.2 0 0 0-.64-.168q-.36 0-.648.168-.28.168-.448.472-.16.296-.16.68m2.536-3.76-1.44 1.2-.36-.24 1.2-1.28zM98.693 9h.64v6.24h-.64zm2 2.56h.8l-1.6 1.52 1.76 2.16h-.8l-1.76-2.16zm4.602 0v3.68h-.64v-3.68zm1.112.704a1 1 0 0 0-.232-.136.6.6 0 0 0-.264-.048.55.55 0 0 0-.376.12.66.66 0 0 0-.192.328 2 2 0 0 0-.048.472h-.288q0-.44.152-.776.16-.344.408-.544a.8.8 0 0 1 .504-.2q.2 0 .368.056a.7.7 0 0 1 .32.2zm.961 1.296v-.544h2.456a1.2 1.2 0 0 0-.16-.504.8.8 0 0 0-.344-.344 1.03 1.03 0 0 0-.536-.128q-.32 0-.584.136-.264.135-.424.392a1.1 1.1 0 0 0-.152.592l-.016.24q0 .425.144.72.144.296.408.448t.624.152q.273 0 .48-.08.216-.088.384-.232a1.5 1.5 0 0 0 .288-.352l.52.328a2.8 2.8 0 0 1-.408.496q-.223.208-.544.328-.32.112-.8.112-.495 0-.896-.248a1.8 1.8 0 0 1-.624-.68 2.16 2.16 0 0 1-.224-.992 2.6 2.6 0 0 1 .032-.392q.08-.456.32-.8t.616-.536a1.9 1.9 0 0 1 .856-.192q.52 0 .912.232.393.232.608.656.216.415.216 1v.096a.5.5 0 0 1-.008.096zm2.696-3.84-1.44 1.2-.36-.24 1.2-1.28zm1.485 4.392q.112.168.256.312t.328.232q.192.08.416.08.273 0 .424-.12.16-.128.16-.344a.43.43 0 0 0-.128-.32.9.9 0 0 0-.312-.224 4 4 0 0 0-.408-.176 6 6 0 0 1-.488-.224 1.4 1.4 0 0 1-.408-.344.88.88 0 0 1-.16-.536q0-.328.168-.544.177-.215.448-.32a1.65 1.65 0 0 1 1.592.248q.201.16.312.368l-.512.328a1.25 1.25 0 0 0-.384-.344.97.97 0 0 0-.512-.136.65.65 0 0 0-.344.088.3.3 0 0 0-.144.272q0 .144.112.256.113.112.288.2.177.088.368.168.32.128.584.28.264.144.416.352.16.208.16.536 0 .48-.352.8-.344.32-.912.32a1.7 1.7 0 0 1-.664-.128 1.7 1.7 0 0 1-.504-.344 1.7 1.7 0 0 1-.304-.424zm4.875-1.952h-2.04v-.6h3.2l-2.28 3.08h2.12v.6h-3.28zm1.851 1.4v-.544h2.456a1.3 1.3 0 0 0-.16-.504.83.83 0 0 0-.344-.344 1.04 1.04 0 0 0-.536-.128q-.32 0-.584.136-.264.135-.424.392a1.1 1.1 0 0 0-.152.592l-.016.24q0 .425.144.72.144.296.408.448t.624.152q.272 0 .48-.08.216-.088.384-.232a1.5 1.5 0 0 0 .288-.352l.52.328a3 3 0 0 1-.408.496q-.225.208-.544.328a2.5 2.5 0 0 1-.8.112q-.497 0-.896-.248a1.8 1.8 0 0 1-.624-.68 2.15 2.15 0 0 1-.224-.992 2 2 0 0 1 .032-.392q.08-.456.32-.8t.616-.536q.384-.192.856-.192.519 0 .912.232.392.232.608.656.216.415.216 1v.096a1 1 0 0 1-.008.096zm2.696-3.84-1.44 1.2-.36-.24 1.2-1.28zm1.973 1.84v3.68h-.64v-3.68zm1.112.704a1 1 0 0 0-.232-.136.6.6 0 0 0-.264-.048q-.24 0-.376.12a.64.64 0 0 0-.192.328 2 2 0 0 0-.048.472h-.288q0-.44.152-.776.159-.344.408-.544a.8.8 0 0 1 .504-.2q.2 0 .368.056a.7.7 0 0 1 .32.2zm2.297 3.056q-.513 0-.912-.24a1.7 1.7 0 0 1-.616-.68 2.2 2.2 0 0 1-.216-1q0-.576.224-1.008.231-.432.64-.672.415-.24.96-.24.543 0 .928.232.391.224.6.648.207.424.208 1.008 0 .056-.008.12v.072h-3.144v-.544h2.64l-.256.368a.6.6 0 0 0 .048-.12.6.6 0 0 0 .024-.144 1.14 1.14 0 0 0-.136-.568.95.95 0 0 0-.36-.376 1.06 1.06 0 0 0-.544-.136q-.368 0-.632.16-.256.151-.4.448a1.7 1.7 0 0 0-.144.712q0 .432.136.736t.4.464.64.16.664-.16q.287-.168.488-.504l.52.328q-.288.465-.728.704-.433.232-1.024.232m6.515 0a1.74 1.74 0 0 1-.912-.24 1.74 1.74 0 0 1-.616-.68 2.2 2.2 0 0 1-.216-1q0-.576.224-1.008.232-.432.64-.672.417-.24.96-.24.544 0 .928.232.393.224.6.648.208.424.208 1.008a1 1 0 0 1-.008.12v.072h-3.144v-.544h2.64l-.256.368a.6.6 0 0 0 .048-.12.6.6 0 0 0 .024-.144 1.13 1.13 0 0 0-.136-.568.94.94 0 0 0-.36-.376 1.05 1.05 0 0 0-.544-.136q-.368 0-.632.16a1.03 1.03 0 0 0-.4.448q-.135.288-.144.712 0 .432.136.736t.4.464.64.16.664-.16q.288-.168.488-.504l.52.328a1.95 1.95 0 0 1-.728.704q-.432.232-1.024.232M135.562 9h.64v6.24h-.64zm1.931 4.56v-.544h2.456a1.2 1.2 0 0 0-.16-.504.8.8 0 0 0-.344-.344 1.03 1.03 0 0 0-.536-.128q-.32 0-.584.136-.264.135-.424.392a1.1 1.1 0 0 0-.152.592l-.016.24q0 .425.144.72.144.296.408.448t.624.152q.273 0 .48-.08.216-.088.384-.232a1.5 1.5 0 0 0 .288-.352l.52.328a2.8 2.8 0 0 1-.408.496q-.223.208-.544.328-.32.112-.8.112-.495 0-.896-.248a1.8 1.8 0 0 1-.624-.68 2.16 2.16 0 0 1-.224-.992 2.6 2.6 0 0 1 .032-.392q.08-.456.32-.8t.616-.536a1.9 1.9 0 0 1 .856-.192q.52 0 .912.232.393.232.608.656.216.415.216 1v.096a.5.5 0 0 1-.008.096zm2.696-3.84-1.44 1.2-.36-.24 1.2-1.28zm1.973 1.84v3.68h-.64v-3.68zm1.112.704a1 1 0 0 0-.232-.136.6.6 0 0 0-.264-.048.55.55 0 0 0-.376.12.66.66 0 0 0-.192.328 2 2 0 0 0-.048.472h-.288q0-.44.152-.776.16-.344.408-.544a.8.8 0 0 1 .504-.2q.2 0 .368.056a.7.7 0 0 1 .32.2zM144.905 9v6.24h-.64V9zm1.72 4q0-.456-.2-.688-.192-.232-.584-.232-.28 0-.496.12a.9.9 0 0 0-.328.328 1 1 0 0 0-.112.472h-.208q0-.44.168-.776.168-.344.456-.544.296-.2.68-.2t.664.16q.288.16.44.48.16.32.16.8v2.32h-.64zm3.267 2.32q-.513 0-.912-.24a1.7 1.7 0 0 1-.616-.68 2.2 2.2 0 0 1-.216-1q0-.576.224-1.008.231-.432.64-.672.416-.24.96-.24.543 0 .928.232.392.224.6.648t.208 1.008q0 .056-.008.12v.072h-3.144v-.544h2.64l-.256.368a.6.6 0 0 0 .048-.12.6.6 0 0 0 .024-.144 1.14 1.14 0 0 0-.136-.568.95.95 0 0 0-.36-.376 1.06 1.06 0 0 0-.544-.136q-.368 0-.632.16-.256.151-.4.448a1.7 1.7 0 0 0-.144.712q0 .432.136.736t.4.464.64.16.664-.16q.288-.168.488-.504l.52.328q-.288.465-.728.704-.433.232-1.024.232m2.133-3.76h1.84v.6h-1.84zm.6-1.28h.64v4.96h-.64zm2.81.72-.416-.136.832-1.552.656.16zm1.312 0-.408-.136.824-1.552.672.16zm-2.56 2.4q0-.56.248-.992.256-.432.688-.68a1.9 1.9 0 0 1 .968-.248q.544 0 .968.248.432.248.68.68.256.432.256.992 0 .552-.256.992a1.8 1.8 0 0 1-.68.68 1.9 1.9 0 0 1-.968.248 1.9 1.9 0 0 1-.968-.248 1.9 1.9 0 0 1-.688-.68 2 2 0 0 1-.248-.992m.648 0q0 .384.16.68.168.296.448.472.288.168.648.168t.64-.168q.288-.176.448-.472.168-.296.168-.68t-.168-.68a1.16 1.16 0 0 0-.448-.472 1.2 1.2 0 0 0-.64-.168q-.36 0-.648.168a1.23 1.23 0 0 0-.448.472q-.16.296-.16.68m3.439-1.84h.72l1.04 2.6 1.04-2.6h.72l-1.76 3.96zm4.094 2v-.544h2.456a1.2 1.2 0 0 0-.16-.504.8.8 0 0 0-.344-.344 1.03 1.03 0 0 0-.536-.128q-.32 0-.584.136-.264.135-.424.392a1.1 1.1 0 0 0-.152.592l-.016.24q0 .425.144.72.144.296.408.448t.624.152q.273 0 .48-.08.216-.088.384-.232a1.5 1.5 0 0 0 .288-.352l.52.328a2.8 2.8 0 0 1-.408.496q-.223.208-.544.328-.32.112-.8.112-.495 0-.896-.248a1.8 1.8 0 0 1-.624-.68 2.16 2.16 0 0 1-.224-.992 2.6 2.6 0 0 1 .032-.392q.08-.456.32-.8t.616-.536a1.9 1.9 0 0 1 .856-.192q.52 0 .912.232.393.232.608.656.216.415.216 1v.096a.5.5 0 0 1-.008.096zm2.696-3.84-1.44 1.2-.36-.24 1.2-1.28zm3.132 1.84h.72l1.04 2.6 1.04-2.6h.72l-1.76 3.96zm4.411 2.544a.66.66 0 0 0 .096.36.67.67 0 0 0 .28.232q.185.072.416.072.297 0 .528-.12a.926.926 0 0 0 .52-.848l.128.48q0 .353-.216.584a1.25 1.25 0 0 1-.52.344 1.7 1.7 0 0 1-.608.112q-.336 0-.632-.136a1.2 1.2 0 0 1-.464-.408 1.13 1.13 0 0 1-.176-.64q0-.536.376-.856.384-.328 1.064-.328.4 0 .664.096.273.088.432.208.16.112.216.184v.376a1.9 1.9 0 0 0-.576-.272 2.2 2.2 0 0 0-.632-.088q-.311 0-.512.08a.6.6 0 0 0-.288.224.6.6 0 0 0-.096.344m-.096-1.696-.312-.472a3 3 0 0 1 .568-.304q.369-.152.88-.152.432 0 .752.136.328.127.504.376a1 1 0 0 1 .184.608v2.64h-.64v-2.552a.66.66 0 0 0-.064-.312.47.47 0 0 0-.184-.2.8.8 0 0 0-.264-.104 1.806 1.806 0 0 0-.816.032 1.7 1.7 0 0 0-.368.152q-.151.089-.24.152m3.412 3.072h.648q0 .264.144.488.144.232.408.368.264.144.624.144.28 0 .552-.136t.448-.432q.184-.288.184-.752v-3.6h.64v3.6q0 .631-.264 1.056a1.7 1.7 0 0 1-.68.648 1.9 1.9 0 0 1-.88.216q-.536 0-.952-.2a1.54 1.54 0 0 1-.64-.568 1.5 1.5 0 0 1-.232-.832m-.072-2.08q0-.6.248-1.024.248-.432.664-.664.415-.232.912-.232.464 0 .808.232t.536.664q.2.424.2 1.024 0 .592-.2 1.024-.192.432-.536.664a1.4 1.4 0 0 1-.808.232q-.496 0-.912-.232a1.73 1.73 0 0 1-.664-.664q-.248-.432-.248-1.024m.648 0q0 .425.168.72.176.296.464.448t.624.152q.28 0 .552-.152.272-.151.448-.448.176-.295.176-.72 0-.32-.104-.56a1.2 1.2 0 0 0-.28-.416 1.2 1.2 0 0 0-.376-.256 1.1 1.1 0 0 0-.416-.088q-.336 0-.624.152-.288.151-.464.448a1.44 1.44 0 0 0-.168.72m7.154-1.84-2.4 5.44h-.72l1.008-2.28-1.408-3.16h.76l1.168 2.88-.264-.032 1.136-2.848zM186.655 9h.64v6.24h-.64zm2.132 5.16q0 .192.088.328a.6.6 0 0 0 .256.2q.175.064.432.064.32 0 .568-.096a.8.8 0 0 0 .384-.304q.144-.208.144-.552l.128.4a1 1 0 0 1-.192.608 1.2 1.2 0 0 1-.496.384q-.312.128-.696.128a1.6 1.6 0 0 1-.664-.128 1.1 1.1 0 0 1-.448-.376 1.06 1.06 0 0 1-.152-.576q0-.432.208-.712.208-.288.56-.432.36-.144.8-.144.352 0 .6.096.256.088.408.208.152.112.208.184v.376a2 2 0 0 0-1.184-.376q-.32 0-.536.088a.67.67 0 0 0-.312.248.7.7 0 0 0-.104.384m0-1.736-.312-.488q.208-.152.56-.304t.848-.152q.424 0 .736.136.32.127.496.376a1 1 0 0 1 .184.608v2.64h-.64V12.6a.45.45 0 0 0-.24-.416 1 1 0 0 0-.536-.144q-.264 0-.48.072a1.6 1.6 0 0 0-.376.16q-.151.089-.24.152m2.376-2.624-1.44 1.2-.36-.24 1.2-1.28zm.659 1.76h1.84v.6h-1.84zm.6-1.28h.64v4.96h-.64zM194.944 9v6.24h-.64V9zm1.72 4q0-.456-.2-.688-.192-.232-.584-.232-.28 0-.496.12a.9.9 0 0 0-.328.328 1 1 0 0 0-.112.472h-.208q0-.44.168-.776.168-.344.456-.544.296-.2.68-.2t.664.16q.288.16.44.48.16.32.16.8v2.32h-.64zm2.131 1.104a.66.66 0 0 0 .096.36.67.67 0 0 0 .28.232q.184.072.416.072.295 0 .528-.12a.92.92 0 0 0 .52-.848l.128.48q0 .353-.216.584-.208.233-.52.344a1.8 1.8 0 0 1-.608.112q-.336 0-.632-.136a1.2 1.2 0 0 1-.464-.408 1.13 1.13 0 0 1-.176-.64q0-.536.376-.856.384-.328 1.064-.328.4 0 .664.096.272.088.432.208.16.112.216.184v.376a1.9 1.9 0 0 0-.576-.272 2.2 2.2 0 0 0-.632-.088q-.312 0-.512.08a.6.6 0 0 0-.288.224.6.6 0 0 0-.096.344m-.096-1.696-.312-.472a3 3 0 0 1 .568-.304 2.3 2.3 0 0 1 .88-.152q.432 0 .752.136.328.127.504.376a1 1 0 0 1 .184.608v2.64h-.64v-2.552a.66.66 0 0 0-.064-.312.5.5 0 0 0-.184-.2.8.8 0 0 0-.264-.104 1.801 1.801 0 0 0-.816.032 1.7 1.7 0 0 0-.368.152q-.151.089-.24.152m3.099-.848h1.84v.6h-1.84zm.6-1.28h.64v4.96h-.64zm1.562 3.12q0-.56.248-.992.256-.432.688-.68a1.9 1.9 0 0 1 .968-.248q.545 0 .968.248.432.248.68.68.256.432.256.992 0 .552-.256.992a1.8 1.8 0 0 1-.68.68 1.9 1.9 0 0 1-.968.248 1.9 1.9 0 0 1-.968-.248 1.9 1.9 0 0 1-.688-.68 2 2 0 0 1-.248-.992m.648 0q0 .384.16.68.168.296.448.472.288.168.648.168t.64-.168q.288-.176.448-.472.168-.296.168-.68t-.168-.68a1.15 1.15 0 0 0-.448-.472 1.2 1.2 0 0 0-.64-.168q-.36 0-.648.168-.28.168-.448.472-.16.296-.16.68m2.536-3.76-1.44 1.2-.36-.24 1.2-1.28zm.786 1.92h.72l1.04 2.6 1.04-2.6h.72l-1.76 3.96zm4.412 2.6q0 .192.088.328a.57.57 0 0 0 .256.2q.175.064.432.064.32 0 .568-.096a.8.8 0 0 0 .384-.304q.144-.208.144-.552l.128.4a1 1 0 0 1-.192.608 1.2 1.2 0 0 1-.496.384q-.312.128-.696.128a1.6 1.6 0 0 1-.664-.128 1.07 1.07 0 0 1-.448-.376 1.05 1.05 0 0 1-.152-.576q0-.432.208-.712.207-.288.56-.432.36-.144.8-.144.351 0 .6.096.255.088.408.208.151.112.208.184v.376a2 2 0 0 0-.552-.28 2 2 0 0 0-.632-.096q-.32 0-.536.088a.67.67 0 0 0-.312.248.7.7 0 0 0-.104.384m0-1.736-.312-.488q.207-.152.56-.304a2.1 2.1 0 0 1 .848-.152q.423 0 .736.136.32.127.496.376a1 1 0 0 1 .184.608v2.64h-.64V12.6a.45.45 0 0 0-.24-.416 1 1 0 0 0-.536-.144q-.264 0-.48.072-.216.064-.376.16-.153.089-.24.152m2.376-2.624-1.44 1.2-.36-.24 1.2-1.28zm1.379 5.12q0-.184.128-.312a.44.44 0 0 1 .312-.128q.183 0 .312.128.128.128.128.312a.44.44 0 0 1-.128.312.43.43 0 0 1-.312.128.44.44 0 0 1-.44-.44"/></svg>