<svg xmlns="http://www.w3.org/2000/svg" fill="none" viewBox="0 0 254 24"><path fill="#4d4d4d" d="M.42 1.596V.98L2.1.56v4.97h-.595V1.274zM3.676 5.25q0-.16.112-.273a.387.387 0 0 1 .658.273.39.39 0 0 1-.112.273.387.387 0 0 1-.546 0 .39.39 0 0 1-.112-.273m8.454-1.015L13.404.63h.665l-1.925 5.145-1.47-3.808-1.47 3.808L7.279.63h.665l1.302 3.605 1.428-3.85zm1.695-.315q0-.49.217-.868.225-.378.602-.595a1.67 1.67 0 0 1 .847-.217q.476 0 .847.217.378.217.595.595.224.378.224.868 0 .483-.224.868-.217.378-.595.595-.372.217-.847.217a1.67 1.67 0 0 1-.847-.217 1.64 1.64 0 0 1-.602-.595 1.74 1.74 0 0 1-.217-.868m.567 0q0 .336.14.595.146.259.392.413.252.147.567.147t.56-.147q.252-.154.392-.413.147-.26.147-.595 0-.336-.147-.595a1 1 0 0 0-.392-.413 1.07 1.07 0 0 0-.56-.147q-.316 0-.567.147a1.1 1.1 0 0 0-.392.413q-.14.26-.14.595m3.254 0q0-.49.217-.868.224-.378.602-.595a1.67 1.67 0 0 1 .847-.217q.476 0 .847.217.378.217.595.595.224.378.224.868 0 .483-.224.868-.217.378-.595.595-.371.217-.847.217a1.67 1.67 0 0 1-.847-.217 1.64 1.64 0 0 1-.602-.595 1.74 1.74 0 0 1-.217-.868m.567 0q0 .336.14.595.147.259.392.413.252.147.567.147t.56-.147q.252-.154.392-.413.147-.26.147-.595 0-.336-.147-.595a1 1 0 0 0-.392-.413 1.07 1.07 0 0 0-.56-.147q-.315 0-.567.147a1.1 1.1 0 0 0-.392.413q-.14.26-.14.595m5.95-3.85h.56v5.46h-.56zm-2.696 3.85q0-.525.217-.896a1.5 1.5 0 0 1 .581-.581q.365-.203.798-.203.407 0 .707.203.301.203.47.581.174.37.174.896 0 .518-.175.896a1.33 1.33 0 0 1-.469.581q-.3.203-.707.203-.433 0-.798-.203a1.5 1.5 0 0 1-.58-.581 1.77 1.77 0 0 1-.218-.896m.567 0q0 .37.147.63.154.259.406.392t.546.133a1 1 0 0 0 .483-.133q.239-.134.392-.392.154-.26.154-.63t-.154-.63a1.05 1.05 0 0 0-.392-.392 1 1 0 0 0-.483-.133q-.294 0-.546.133-.252.134-.406.392a1.26 1.26 0 0 0-.147.63M26.3.07v5.46h-.56V.07zm1.506 3.5q0-.4-.175-.602-.17-.203-.511-.203a.9.9 0 0 0-.434.105.77.77 0 0 0-.287.287.86.86 0 0 0-.099.413h-.181q0-.385.147-.679.146-.301.398-.476.26-.175.596-.175t.58.14a.9.9 0 0 1 .386.42q.14.28.14.7v2.03h-.56zm2.858 2.03q-.447 0-.798-.21a1.5 1.5 0 0 1-.539-.595 1.9 1.9 0 0 1-.189-.875q0-.504.196-.882.203-.378.56-.588.364-.21.84-.21.477 0 .812.203.343.196.525.567a2 2 0 0 1 .175.987v.063h-2.75v-.476h2.31l-.225.322a.5.5 0 0 0 .042-.105.5.5 0 0 0 .021-.126 1 1 0 0 0-.119-.497.8.8 0 0 0-.315-.329.9.9 0 0 0-.476-.119q-.321 0-.553.14a.9.9 0 0 0-.35.392q-.12.252-.126.623 0 .378.12.644a.9.9 0 0 0 .35.406q.23.14.56.14.328 0 .58-.14.252-.147.427-.441l.455.287a1.7 1.7 0 0 1-.637.616q-.377.203-.896.203m2.609-1.064q0 .181.084.315.09.133.245.203a1 1 0 0 0 .364.063 1 1 0 0 0 .462-.105.8.8 0 0 0 .455-.742l.112.42a.72.72 0 0 1-.19.511 1.1 1.1 0 0 1-.454.301 1.5 1.5 0 0 1-.532.098q-.294 0-.553-.119a1.03 1.03 0 0 1-.406-.357 1 1 0 0 1-.154-.56q0-.469.329-.749.336-.287.93-.287.351 0 .582.084.237.077.378.182a1 1 0 0 1 .189.161v.329a1.7 1.7 0 0 0-.504-.238 2 2 0 0 0-.553-.077 1.2 1.2 0 0 0-.448.07.54.54 0 0 0-.252.196.53.53 0 0 0-.084.301m-.084-1.484-.273-.413q.182-.133.497-.266.321-.133.77-.133.378 0 .658.119a.94.94 0 0 1 .44.329.87.87 0 0 1 .162.532v2.31h-.56V3.297a.6.6 0 0 0-.056-.273.4.4 0 0 0-.161-.175.7.7 0 0 0-.231-.091 1.577 1.577 0 0 0-.714.028 1.5 1.5 0 0 0-.322.133 3 3 0 0 0-.21.133M38.805.07h.56v5.46h-.56zM36.11 3.92q0-.525.217-.896a1.5 1.5 0 0 1 .58-.581 1.6 1.6 0 0 1 .799-.203q.405 0 .707.203.3.203.469.581.175.37.175.896 0 .518-.175.896a1.33 1.33 0 0 1-.47.581q-.3.203-.706.203a1.6 1.6 0 0 1-.798-.203 1.5 1.5 0 0 1-.581-.581 1.77 1.77 0 0 1-.217-.896m.567 0q0 .37.147.63.154.259.406.392t.546.133a1 1 0 0 0 .483-.133q.238-.134.392-.392.154-.26.154-.63t-.154-.63a1.05 1.05 0 0 0-.392-.392 1 1 0 0 0-.483-.133q-.294 0-.546.133-.252.134-.406.392a1.26 1.26 0 0 0-.147.63m6.518-1.701L42.83 5.53h-.595L42.83.385l1.96 3.549L46.75.385l.595 5.145h-.595l-.364-3.311-1.596 2.856zm5.464 2.541.56.21-.77 1.75-.406-.147zm4.987.84q-.448 0-.798-.21a1.5 1.5 0 0 1-.54-.595 1.9 1.9 0 0 1-.188-.875q0-.504.196-.882.203-.378.56-.588.363-.21.84-.21.476 0 .812.203.342.196.525.567a2 2 0 0 1 .175.987v.063h-2.751v-.476h2.31l-.224.322a.5.5 0 0 0 .042-.105.5.5 0 0 0 .02-.126 1 1 0 0 0-.118-.497.8.8 0 0 0-.315-.329.9.9 0 0 0-.476-.119q-.323 0-.553.14a.9.9 0 0 0-.35.392q-.12.252-.126.623 0 .378.119.644a.9.9 0 0 0 .35.406q.23.14.56.14.329 0 .58-.14.253-.147.428-.441l.455.287a1.7 1.7 0 0 1-.637.616q-.378.203-.896.203m1.866-3.29h1.61v.525h-1.61zm.525-1.12h.56v4.34h-.56zm3.998 3.346q0 .181.084.315.09.133.245.203a1 1 0 0 0 .364.063 1 1 0 0 0 .462-.105.8.8 0 0 0 .455-.742l.111.42a.72.72 0 0 1-.188.511 1.1 1.1 0 0 1-.456.301 1.5 1.5 0 0 1-.532.098q-.293 0-.552-.119a1.03 1.03 0 0 1-.407-.357 1 1 0 0 1-.154-.56q0-.469.33-.749.336-.287.93-.287.351 0 .582.084.237.077.378.182a1 1 0 0 1 .189.161v.329a1.7 1.7 0 0 0-.505-.238 2 2 0 0 0-.553-.077 1.2 1.2 0 0 0-.447.07.54.54 0 0 0-.253.196.53.53 0 0 0-.084.301m-.084-1.484-.273-.413q.181-.133.497-.266.32-.133.77-.133.377 0 .657.119a.94.94 0 0 1 .442.329.87.87 0 0 1 .16.532v2.31h-.56V3.297a.6.6 0 0 0-.055-.273.4.4 0 0 0-.161-.175.7.7 0 0 0-.231-.091 1.577 1.577 0 0 0-.714.028 1.5 1.5 0 0 0-.323.133 3 3 0 0 0-.21.133M63.152.07h.56v5.46h-.56zm1.753 5.18q0-.16.112-.273a.387.387 0 0 1 .658.273.39.39 0 0 1-.112.273.387.387 0 0 1-.546 0 .39.39 0 0 1-.112-.273m2.47-.49.56.21-.77 1.75-.406-.147zM71.5 3.08q0 .567.252 1.001.26.435.672.679t.896.245a2.1 2.1 0 0 0 .637-.091q.294-.09.532-.252.239-.168.406-.385v.784q-.308.273-.672.406-.363.133-.903.133-.51 0-.959-.182a2.5 2.5 0 0 1-.777-.525 2.5 2.5 0 0 1-.525-.805 2.6 2.6 0 0 1-.189-1.008q0-.546.19-1.008.188-.462.524-.798.336-.344.777-.525.45-.189.96-.189.539 0 .902.133.364.133.672.406v.784a1.8 1.8 0 0 0-.406-.378 1.9 1.9 0 0 0-.532-.259 2.1 2.1 0 0 0-.637-.091q-.483 0-.896.245-.412.245-.672.679a1.93 1.93 0 0 0-.252 1.001M75.908.07h.56v5.46h-.56zm1.614.91q0-.16.112-.273a.387.387 0 0 1 .658.273.39.39 0 0 1-.112.273.387.387 0 0 1-.546 0 .39.39 0 0 1-.112-.273m.105 1.33h.56v3.22h-.56zm3.778 1.26q0-.4-.175-.602-.175-.203-.51-.203a.9.9 0 0 0-.435.105.7.7 0 0 0-.287.28.9.9 0 0 0-.098.42v1.96h-.56V2.31h.56v.504q.16-.293.4-.434.244-.14.56-.14.51 0 .804.343.3.336.301.917v2.03h-.56zm4.425-1.351-.364 3.311h-.595l.595-5.145 1.96 3.549 1.96-3.549.595 5.145h-.595l-.364-3.311-1.596 2.856zM90.783.98q0-.16.112-.273a.387.387 0 0 1 .658.273.39.39 0 0 1-.112.273.387.387 0 0 1-.546 0 .39.39 0 0 1-.112-.273m.105 1.33h.56v3.22h-.56zm1.966 1.61q0 .336.14.595.147.259.392.413.252.147.567.147.259 0 .483-.077.231-.084.399-.217a.85.85 0 0 0 .238-.294v.7q-.168.195-.483.308a2 2 0 0 1-.637.105 1.67 1.67 0 0 1-.847-.217 1.64 1.64 0 0 1-.602-.595 1.74 1.74 0 0 1-.217-.868q0-.49.217-.868.225-.378.602-.595a1.67 1.67 0 0 1 .847-.217q.329 0 .637.112.314.105.483.301v.7a.8.8 0 0 0-.238-.294 1.3 1.3 0 0 0-.4-.21 1.4 1.4 0 0 0-.482-.084q-.316 0-.567.147a1.1 1.1 0 0 0-.392.413q-.14.26-.14.595m3.65-1.61v3.22h-.56V2.31zm.974.616a.9.9 0 0 0-.203-.119.55.55 0 0 0-.231-.042.48.48 0 0 0-.33.105.57.57 0 0 0-.167.287 2 2 0 0 0-.042.413h-.252q0-.385.133-.679.14-.301.357-.476a.7.7 0 0 1 .44-.175q.176 0 .323.049a.6.6 0 0 1 .28.175zm.483.994q0-.49.217-.868.225-.378.602-.595a1.67 1.67 0 0 1 .847-.217q.477 0 .847.217.378.217.595.595.225.378.224.868 0 .483-.224.868-.217.378-.595.595-.371.217-.847.217a1.67 1.67 0 0 1-.847-.217 1.64 1.64 0 0 1-.602-.595 1.74 1.74 0 0 1-.217-.868m.567 0q0 .336.14.595.148.259.392.413.252.147.567.147t.56-.147q.252-.154.392-.413.147-.26.147-.595 0-.336-.147-.595a1 1 0 0 0-.392-.413 1.07 1.07 0 0 0-.56-.147q-.315 0-.567.147a1.1 1.1 0 0 0-.392.413q-.14.26-.14.595m4.06-3.85v5.46h-.56V.07zm2.695 3.85q0 .518-.217.896a1.5 1.5 0 0 1-.581.581 1.6 1.6 0 0 1-.798.203q-.4 0-.707-.203a1.37 1.37 0 0 1-.476-.581 2.2 2.2 0 0 1-.168-.896q0-.525.168-.896a1.37 1.37 0 0 1 .476-.581q.308-.203.707-.203.441 0 .798.203.363.203.581.581.216.37.217.896m-.567 0q0-.37-.154-.63a1 1 0 0 0-.399-.392 1.13 1.13 0 0 0-.546-.133 1 1 0 0 0-.483.133q-.239.134-.392.392a1.2 1.2 0 0 0-.154.63q0 .37.154.63.153.259.392.392a1 1 0 0 0 .483.133q.3 0 .546-.133a1 1 0 0 0 .399-.392q.153-.26.154-.63m1.339-2.94a.37.37 0 0 1 .112-.273.39.39 0 0 1 .273-.112q.16 0 .273.112a.37.37 0 0 1 .112.273.386.386 0 1 1-.77 0m.105 1.33h.56v3.22h-.56zm1.433 1.61q0-.49.217-.868a1.64 1.64 0 0 1 1.449-.812q.477 0 .847.217.378.217.595.595.225.378.224.868 0 .483-.224.868-.217.378-.595.595a1.64 1.64 0 0 1-.847.217q-.468 0-.847-.217a1.64 1.64 0 0 1-.602-.595 1.74 1.74 0 0 1-.217-.868m.567 0q0 .336.14.595.147.259.392.413.252.147.567.147t.56-.147q.252-.154.392-.413.147-.26.147-.595 0-.336-.147-.595a1 1 0 0 0-.392-.413 1.07 1.07 0 0 0-.56-.147q-.315 0-.567.147a1.1 1.1 0 0 0-.392.413q-.14.26-.14.595m3.535-3.85h.56v5.46h-.56zm3.746.56h.595v4.9h-.595zm3.746 2.94q0-.4-.175-.602-.175-.203-.511-.203a.9.9 0 0 0-.434.105.7.7 0 0 0-.287.28.9.9 0 0 0-.098.42v1.96h-.56V2.31h.56v.504q.162-.293.399-.434.245-.14.56-.14.511 0 .805.343.301.336.301.917v2.03h-.56zm1.368-1.26h1.61v.525h-1.61zm1.554-1.568q-.07-.12-.168-.147a.5.5 0 0 0-.175-.035.28.28 0 0 0-.182.063.4.4 0 0 0-.112.196 1.3 1.3 0 0 0-.042.371v4.34h-.56V1.12q0-.386.112-.63a.8.8 0 0 1 .315-.364.96.96 0 0 1 .504-.126q.154 0 .273.042a.76.76 0 0 1 .343.238zm1.94 4.858q-.449 0-.798-.21a1.5 1.5 0 0 1-.539-.595 1.9 1.9 0 0 1-.189-.875q0-.504.196-.882.203-.378.56-.588.364-.21.84-.21t.812.203q.344.196.525.567a2 2 0 0 1 .175.987v.063h-2.751v-.476h2.31l-.224.322a.5.5 0 0 0 .042-.105.5.5 0 0 0 .021-.126 1 1 0 0 0-.119-.497.83.83 0 0 0-.315-.329.9.9 0 0 0-.476-.119q-.322 0-.553.14a.9.9 0 0 0-.35.392 1.5 1.5 0 0 0-.126.623q0 .378.119.644a.88.88 0 0 0 .35.406q.231.14.56.14t.581-.14q.252-.147.427-.441l.455.287q-.252.406-.637.616a1.9 1.9 0 0 1-.896.203m2.609-1.68q0 .336.14.595.146.259.392.413.252.147.567.147.258 0 .483-.077.231-.084.399-.217a.85.85 0 0 0 .238-.294v.7q-.168.195-.483.308-.309.105-.637.105a1.67 1.67 0 0 1-.847-.217 1.63 1.63 0 0 1-.602-.595 1.73 1.73 0 0 1-.217-.868q0-.49.217-.868.224-.378.602-.595a1.67 1.67 0 0 1 .847-.217q.328 0 .637.112.315.105.483.301v.7a.8.8 0 0 0-.238-.294 1.3 1.3 0 0 0-.399-.21 1.4 1.4 0 0 0-.483-.084q-.315 0-.567.147a1.1 1.1 0 0 0-.392.413q-.14.26-.14.595m2.6-1.61h1.61v.525h-1.61zm.525-1.12h.56v4.34h-.56zm3.361 4.34 2.317-2.471q.16-.175.273-.343.118-.175.175-.35.063-.181.063-.378a.83.83 0 0 0-.252-.595.9.9 0 0 0-.294-.203 1 1 0 0 0-.399-.077 1 1 0 0 0-.546.147.9.9 0 0 0-.343.413q-.12.266-.119.637h-.595q0-.525.189-.917.189-.399.546-.616.363-.225.868-.224.406 0 .7.14.294.133.483.35a1.42 1.42 0 0 1 .371.924q0 .378-.182.749a2.6 2.6 0 0 1-.469.665l-1.561 1.589h2.233v.56zm4.72-2.45q0 .427.084.791.084.357.245.623.161.26.385.406.23.14.511.14a.94.94 0 0 0 .511-.14q.224-.147.385-.406.16-.266.245-.623.084-.364.084-.791t-.084-.784a2 2 0 0 0-.245-.623 1.2 1.2 0 0 0-.385-.406.9.9 0 0 0-.511-.147.93.93 0 0 0-.511.147 1.2 1.2 0 0 0-.385.406q-.16.259-.245.623-.084.357-.084.784m-.595 0q0-.735.231-1.302.23-.567.637-.889.413-.33.952-.329.538 0 .945.329.413.322.644.889t.231 1.302-.231 1.302a2.16 2.16 0 0 1-.644.896 1.48 1.48 0 0 1-.945.322q-.539 0-.952-.322a2.2 2.2 0 0 1-.637-.896 3.4 3.4 0 0 1-.231-1.302m4.477-1.484V.98l1.68-.42v4.97h-.595V1.274zm3.152 0V.98l1.68-.42v4.97h-.595V1.274zm3.466.994a.37.37 0 0 1 .112-.273.39.39 0 0 1 .273-.112q.16 0 .273.112a.37.37 0 0 1 .112.273.386.386 0 1 1-.77 0m.161 2.17.56.21-.77 1.75-.406-.147zm3.933-3.164V.98l1.68-.42v4.97h-.595V1.274zm2.801-.406V.63h3.43l-2.345 4.9h-.623l2.079-4.34zm4.903-1.12h.525a7.1 7.1 0 0 0-.532 1.659 9.4 9.4 0 0 0 0 3.535q.168.875.532 1.666h-.525a6.6 6.6 0 0 1-.616-1.666 8.3 8.3 0 0 1 0-3.535 6.5 6.5 0 0 1 .616-1.659m1.39 4.473q.099.147.224.273.126.126.287.203a.9.9 0 0 0 .364.07q.239 0 .371-.105a.36.36 0 0 0 .14-.301.38.38 0 0 0-.112-.28.8.8 0 0 0-.273-.196 4 4 0 0 0-.357-.154 5 5 0 0 1-.427-.196 1.2 1.2 0 0 1-.357-.301.77.77 0 0 1-.14-.469q0-.287.147-.476a.9.9 0 0 1 .392-.28 1.44 1.44 0 0 1 1.393.217q.175.14.273.322l-.448.287a1.1 1.1 0 0 0-.336-.301.84.84 0 0 0-.448-.119.57.57 0 0 0-.301.077.26.26 0 0 0-.126.238.3.3 0 0 0 .098.224q.099.098.252.175.154.076.322.147.28.112.511.245.232.126.364.308.14.182.14.469 0 .42-.308.7-.3.28-.798.28-.321 0-.581-.112a1.5 1.5 0 0 1-.441-.301 1.5 1.5 0 0 1-.266-.371zm3.25-.273q0 .385.175.595t.511.21a.9.9 0 0 0 .427-.098.7.7 0 0 0 .287-.287.8.8 0 0 0 .105-.42V2.31h.56v3.22h-.56v-.504q-.16.287-.399.434-.237.14-.56.14-.504 0-.805-.343-.3-.343-.301-.917V2.31h.56zm3.643 2.8h-.56V2.31h.56zm2.695-3.15q0 .518-.217.896a1.5 1.5 0 0 1-.581.581 1.6 1.6 0 0 1-.798.203q-.4 0-.707-.203a1.4 1.4 0 0 1-.476-.581 2.2 2.2 0 0 1-.168-.896q0-.525.168-.896.175-.378.476-.581.308-.203.707-.203.441 0 .798.203.364.203.581.581.217.37.217.896m-.567 0q0-.37-.154-.63a1 1 0 0 0-.399-.392 1.1 1.1 0 0 0-.546-.133 1 1 0 0 0-.483.133q-.238.134-.392.392a1.2 1.2 0 0 0-.154.63q0 .37.154.63.154.259.392.392t.483.133q.302 0 .546-.133a1 1 0 0 0 .399-.392q.154-.26.154-.63m1.864 3.15h-.56V2.31h.56zm2.695-3.15q0 .518-.217.896a1.5 1.5 0 0 1-.581.581 1.6 1.6 0 0 1-.798.203q-.398 0-.707-.203a1.4 1.4 0 0 1-.476-.581 2.2 2.2 0 0 1-.168-.896q0-.525.168-.896.176-.378.476-.581.309-.203.707-.203.441 0 .798.203.365.203.581.581.217.37.217.896m-.567 0q0-.37-.154-.63a1 1 0 0 0-.399-.392 1.1 1.1 0 0 0-.546-.133 1 1 0 0 0-.483.133 1.06 1.06 0 0 0-.392.392 1.2 1.2 0 0 0-.154.63q0 .37.154.63.155.259.392.392t.483.133q.301 0 .546-.133a1 1 0 0 0 .399-.392q.154-.26.154-.63m1.34-3.85h.56v5.46h-.56zm1.753 5.18a.37.37 0 0 1 .112-.273.39.39 0 0 1 .273-.112q.16 0 .273.112a.39.39 0 0 1 0 .546.37.37 0 0 1-.273.112.386.386 0 0 1-.385-.385m4.449-1.33q0 .336.14.595.147.252.392.399.252.147.567.147a1.07 1.07 0 0 0 .952-.546q.147-.26.147-.595 0-.336-.147-.595a1 1 0 0 0-.392-.413 1.07 1.07 0 0 0-.56-.147q-.315 0-.567.147a1.1 1.1 0 0 0-.392.413q-.14.26-.14.595M183.5.63h.749l-1.533 2.023-.042-.035a.66.66 0 0 1 .322-.231q.189-.056.427-.056.301 0 .56.119.266.12.462.336.203.217.315.511.112.287.112.623a1.7 1.7 0 0 1-.224.882 1.54 1.54 0 0 1-.595.588q-.371.21-.847.21-.47 0-.847-.21a1.6 1.6 0 0 1-.602-.588 1.74 1.74 0 0 1-.217-.882q0-.3.084-.56.084-.259.224-.455zm2.458 6.3h-.525a6.8 6.8 0 0 0 .532-1.666 9.3 9.3 0 0 0 0-3.535 6.7 6.7 0 0 0-.532-1.659h.525q.42.785.609 1.659a8.06 8.06 0 0 1 0 3.535 6.4 6.4 0 0 1-.609 1.666m2.097-1.68q0-.16.112-.273a.39.39 0 0 1 .546 0 .37.37 0 0 1 .112.273.386.386 0 0 1-.385.385.4.4 0 0 1-.273-.112.4.4 0 0 1-.112-.273m0-2.66q0-.16.112-.273a.39.39 0 0 1 .546 0 .37.37 0 0 1 .112.273.386.386 0 0 1-.385.385.4.4 0 0 1-.273-.112.4.4 0 0 1-.112-.273m4.422 2.94v-.56h2.471v.56zm0-4.34V.63h2.471v.56zm0 1.96v-.56h2.331v.56zm-.329-2.52h.595v4.9h-.595zm3.848.966V.98l1.68-.42v4.97h-.595V1.274zm2.627 2.534v-.525h1.4v.525zm2.323 1.4v-.56h2.471v.56zm0-4.34V.63h2.471v.56zm0 1.96v-.56h2.331v.56zm-.329-2.52h.595v4.9h-.595zm6.957 3.29q0 .42-.133.735a1.4 1.4 0 0 1-.371.525 1.6 1.6 0 0 1-.546.315q-.308.105-.665.105-.448 0-.784-.14a1.9 1.9 0 0 1-.567-.371 2.6 2.6 0 0 1-.392-.518l.504-.343q.113.21.294.399.19.182.434.301.245.112.511.112.35 0 .595-.14a.9.9 0 0 0 .371-.392q.133-.252.133-.588t-.147-.588a1 1 0 0 0-.392-.392 1.1 1.1 0 0 0-.56-.14 2 2 0 0 0-.427.042 1.5 1.5 0 0 0-.385.133q-.189.091-.441.266L205.25.63h2.31v.525h-1.848l-.329 1.295q.175-.09.357-.133.19-.05.371-.049.42 0 .749.21.336.21.525.581.189.37.189.861m3.398-1.68q0-.336-.147-.588a1.066 1.066 0 0 0-.952-.553q-.315 0-.567.147a1.1 1.1 0 0 0-.392.406q-.14.252-.14.588t.14.595q.147.259.392.413.252.147.567.147t.56-.147q.252-.154.392-.413.147-.26.147-.595m-1.393 3.29h-.749l1.533-2.023.042.035a.66.66 0 0 1-.329.231 1.4 1.4 0 0 1-.42.056 1.37 1.37 0 0 1-1.029-.455 1.6 1.6 0 0 1-.308-.504 1.8 1.8 0 0 1-.112-.63q0-.504.217-.882a1.6 1.6 0 0 1 .602-.588q.378-.21.847-.21.476 0 .847.21.378.21.595.588a1.7 1.7 0 0 1 .224.882q0 .3-.084.56a1.7 1.7 0 0 1-.224.455zM0 13.53l2.317-2.471a3 3 0 0 0 .273-.343q.12-.175.175-.35.063-.181.063-.378a.83.83 0 0 0-.252-.595.9.9 0 0 0-.294-.203 1 1 0 0 0-.399-.077 1 1 0 0 0-.546.147.9.9 0 0 0-.343.413q-.12.266-.119.637H.28q0-.525.189-.917.189-.399.546-.616.364-.224.868-.224.406 0 .7.14.294.133.483.35a1.4 1.4 0 0 1 .371.924q0 .378-.182.749a2.6 2.6 0 0 1-.469.665L1.225 12.97h2.233v.56zm4.51-.28q0-.16.112-.273a.387.387 0 0 1 .546.546.387.387 0 0 1-.546 0 .39.39 0 0 1-.112-.273m3.778-4.06v-.56h3.43l-2.576 4.34h2.436v.56h-3.43l2.576-4.34zm4.654-1.12v5.46h-.56V8.07zm1.505 3.5q0-.4-.175-.602-.168-.203-.51-.203a.9.9 0 0 0-.435.105.77.77 0 0 0-.287.287.86.86 0 0 0-.098.413h-.182q0-.385.147-.679.147-.301.4-.476.258-.175.594-.175t.581.14a.9.9 0 0 1 .385.42q.14.28.14.7v2.03h-.56zm1.865.966q0 .182.084.315.09.133.245.203a1 1 0 0 0 .364.063 1 1 0 0 0 .462-.105.8.8 0 0 0 .455-.742l.112.42a.72.72 0 0 1-.19.511 1.1 1.1 0 0 1-.454.301 1.5 1.5 0 0 1-.532.098q-.294 0-.553-.119a1.04 1.04 0 0 1-.406-.357 1 1 0 0 1-.154-.56q0-.469.329-.749.336-.287.93-.287.351 0 .582.084.238.077.378.182a1 1 0 0 1 .189.161v.329a1.7 1.7 0 0 0-.504-.238 2 2 0 0 0-.553-.077q-.273 0-.448.07a.54.54 0 0 0-.252.196.53.53 0 0 0-.084.301m-.084-1.484-.273-.413q.182-.133.497-.266.321-.133.77-.133.378 0 .658.119a.94.94 0 0 1 .44.329.87.87 0 0 1 .162.532v2.31h-.56v-2.233a.6.6 0 0 0-.056-.273.4.4 0 0 0-.161-.175.7.7 0 0 0-.231-.091 1.578 1.578 0 0 0-.714.028 1.5 1.5 0 0 0-.322.133 3 3 0 0 0-.21.133m5.267.518q0-.4-.175-.602-.175-.203-.511-.203a.9.9 0 0 0-.434.105.7.7 0 0 0-.287.28.9.9 0 0 0-.098.42v1.96h-.56v-3.22h.56v.504q.16-.293.399-.434.245-.14.56-.14.51 0 .805.343.3.336.3.917v2.03h-.56zm1.396 2.17h.567q0 .23.126.427a.9.9 0 0 0 .357.322q.231.126.546.126.245 0 .483-.119a.95.95 0 0 0 .392-.378q.16-.252.16-.658v-3.15h.56v3.15q0 .553-.23.924a1.5 1.5 0 0 1-.595.567q-.365.189-.77.189-.469 0-.833-.175a1.35 1.35 0 0 1-.56-.497 1.3 1.3 0 0 1-.203-.728m-.063-1.82q0-.525.217-.896a1.5 1.5 0 0 1 .58-.581 1.6 1.6 0 0 1 .799-.203q.405 0 .707.203.3.203.469.581.175.37.175.896 0 .518-.175.896a1.33 1.33 0 0 1-.47.581q-.3.203-.706.203a1.6 1.6 0 0 1-.798-.203 1.5 1.5 0 0 1-.581-.581 1.77 1.77 0 0 1-.217-.896m.567 0q0 .37.147.63.154.259.406.392t.546.133a1 1 0 0 0 .483-.133q.237-.134.392-.392.154-.26.154-.63 0-.28-.091-.49a1.1 1.1 0 0 0-.245-.364 1 1 0 0 0-.33-.224.9.9 0 0 0-.363-.077q-.294 0-.546.133-.252.134-.406.392a1.26 1.26 0 0 0-.147.63m5.524-2.73v-.56h3.43l-2.576 4.34h2.436v.56h-3.43l2.576-4.34zm4.605 3.57.56.21-.77 1.75-.406-.147zm4.987.84a1.5 1.5 0 0 1-.798-.21 1.5 1.5 0 0 1-.54-.595 1.9 1.9 0 0 1-.188-.875q0-.504.196-.882.203-.378.56-.588.364-.21.84-.21t.812.203q.343.196.525.567a2 2 0 0 1 .175.987v.063h-2.751v-.476h2.31l-.224.322a.5.5 0 0 0 .042-.105.5.5 0 0 0 .02-.126 1 1 0 0 0-.118-.497.8.8 0 0 0-.315-.329.9.9 0 0 0-.476-.119q-.323 0-.553.14a.9.9 0 0 0-.35.392q-.12.252-.126.623 0 .378.119.644a.9.9 0 0 0 .35.406q.23.14.56.14t.58-.14q.253-.147.428-.441l.455.287q-.252.406-.637.616-.377.203-.896.203m1.866-3.29h1.61v.525h-1.61zm.525-1.12h.56v4.34h-.56zm3.998 3.346q0 .182.084.315.09.133.245.203a1 1 0 0 0 .364.063 1 1 0 0 0 .462-.105.8.8 0 0 0 .455-.742l.112.42a.72.72 0 0 1-.19.511 1.1 1.1 0 0 1-.454.301 1.5 1.5 0 0 1-.532.098q-.294 0-.553-.119a1.04 1.04 0 0 1-.406-.357 1 1 0 0 1-.154-.56q0-.469.329-.749.336-.287.93-.287.351 0 .582.084.237.077.378.182a1 1 0 0 1 .189.161v.329a1.7 1.7 0 0 0-.504-.238 2 2 0 0 0-.553-.077q-.273 0-.448.07a.54.54 0 0 0-.252.196.53.53 0 0 0-.084.301m-.084-1.484-.273-.413q.182-.133.497-.266.321-.133.77-.133.378 0 .658.119a.94.94 0 0 1 .44.329.87.87 0 0 1 .162.532v2.31h-.56v-2.233a.6.6 0 0 0-.056-.273.4.4 0 0 0-.161-.175.7.7 0 0 0-.231-.091 1.578 1.578 0 0 0-.714.028 1.5 1.5 0 0 0-.322.133 3 3 0 0 0-.21.133m3.202-2.982h.56v5.46h-.56zm1.753 5.18q0-.16.112-.273a.39.39 0 0 1 .273-.112q.16 0 .273.112a.37.37 0 0 1 .112.273.39.39 0 0 1-.112.273.37.37 0 0 1-.273.112.39.39 0 0 1-.273-.112.39.39 0 0 1-.112-.273m4.092-4.62h.595v4.9h-.595zm3.746 2.94q0-.4-.175-.602-.175-.203-.51-.203a.9.9 0 0 0-.435.105.7.7 0 0 0-.287.28.9.9 0 0 0-.098.42v1.96h-.56v-3.22h.56v.504q.161-.293.4-.434.245-.14.56-.14.51 0 .804.343.3.336.301.917v2.03h-.56zm1.368-1.26h1.61v.525h-1.61zm1.554-1.568q-.07-.12-.168-.147a.5.5 0 0 0-.175-.035q-.105 0-.182.063a.4.4 0 0 0-.112.196 1.3 1.3 0 0 0-.042.371v4.34h-.56V9.12q0-.385.112-.63a.8.8 0 0 1 .315-.364.96.96 0 0 1 .504-.126q.155 0 .273.042a.76.76 0 0 1 .343.238zm1.94 4.858q-.448 0-.798-.21a1.5 1.5 0 0 1-.54-.595 1.9 1.9 0 0 1-.188-.875q0-.504.196-.882.203-.378.56-.588.364-.21.84-.21t.812.203q.343.196.525.567a2 2 0 0 1 .175.987v.063h-2.751v-.476h2.31l-.224.322a.5.5 0 0 0 .042-.105.5.5 0 0 0 .02-.126 1 1 0 0 0-.118-.497.8.8 0 0 0-.315-.329.9.9 0 0 0-.476-.119q-.323 0-.553.14a.9.9 0 0 0-.35.392q-.12.252-.126.623 0 .378.119.644a.9.9 0 0 0 .35.406q.23.14.56.14t.58-.14q.253-.147.428-.441l.455.287a1.7 1.7 0 0 1-.637.616q-.377.203-.896.203m2.608-1.68q0 .336.14.595.147.259.392.413.252.147.567.147.26 0 .483-.077.23-.084.4-.217a.85.85 0 0 0 .237-.294v.7q-.168.195-.483.308-.307.105-.637.105a1.67 1.67 0 0 1-.847-.217 1.64 1.64 0 0 1-.602-.595 1.74 1.74 0 0 1-.217-.868q0-.49.217-.868.225-.378.602-.595a1.67 1.67 0 0 1 .847-.217q.33 0 .637.112.315.105.483.301v.7a.8.8 0 0 0-.238-.294 1.3 1.3 0 0 0-.399-.21 1.4 1.4 0 0 0-.483-.084q-.315 0-.567.147a1.1 1.1 0 0 0-.392.413 1.2 1.2 0 0 0-.14.595m2.601-1.61h1.61v.525h-1.61zm.525-1.12h.56v4.34h-.56zm3.78-.56h.595v4.9h-.595zm1.47 4.9h-1.14v-.595h1.14q.414 0 .756-.126a1.7 1.7 0 0 0 .588-.371q.246-.245.378-.588.134-.343.133-.77 0-.427-.133-.77a1.6 1.6 0 0 0-.378-.581 1.6 1.6 0 0 0-.588-.371 2.1 2.1 0 0 0-.756-.133h-1.14V8.63h1.14q.715 0 1.267.308.554.307.868.861.315.546.315 1.281 0 .736-.315 1.288-.315.546-.868.854a2.56 2.56 0 0 1-1.267.308m3.813-3.22v3.22h-.56v-3.22zm.973.616a.9.9 0 0 0-.203-.119.55.55 0 0 0-.23-.042.48.48 0 0 0-.33.105.57.57 0 0 0-.168.287 2 2 0 0 0-.042.413h-.252q0-.385.133-.679.141-.301.357-.476a.7.7 0 0 1 .441-.175q.175 0 .322.049a.6.6 0 0 1 .28.175zm1.427 1.344q0 .385.175.595t.51.21a.9.9 0 0 0 .428-.098.7.7 0 0 0 .287-.287.8.8 0 0 0 .105-.42v-1.96h.56v3.22h-.56v-.504q-.161.287-.4.434-.237.14-.56.14-.503 0-.804-.343t-.301-.917v-2.03h.56zm2.9 1.47h.567q0 .23.126.427a.9.9 0 0 0 .357.322q.231.126.546.126.246 0 .483-.119a.95.95 0 0 0 .392-.378q.162-.252.161-.658v-3.15h.56v3.15q0 .553-.23.924a1.5 1.5 0 0 1-.596.567q-.363.189-.77.189a1.9 1.9 0 0 1-.833-.175 1.35 1.35 0 0 1-.56-.497 1.3 1.3 0 0 1-.203-.728m-.063-1.82q0-.525.217-.896a1.5 1.5 0 0 1 .581-.581q.365-.203.798-.203.407 0 .707.203.301.203.47.581.174.37.174.896 0 .518-.175.896a1.33 1.33 0 0 1-.469.581q-.3.203-.707.203-.434 0-.798-.203a1.5 1.5 0 0 1-.58-.581 1.77 1.77 0 0 1-.218-.896m.567 0q0 .37.147.63.154.259.406.392t.546.133a1 1 0 0 0 .483-.133q.24-.134.392-.392.154-.26.154-.63 0-.28-.09-.49a1.1 1.1 0 0 0-.246-.364 1 1 0 0 0-.329-.224.9.9 0 0 0-.364-.077q-.294 0-.546.133-.252.134-.406.392a1.26 1.26 0 0 0-.147.63m6.714-.805h.665l1.75 2.415h-.735zm-.875-2.485h.595v4.9h-.595zm.33.525V8.63h1q.476 0 .847.182a1.4 1.4 0 0 1 .595.504q.225.329.224.784 0 .448-.224.784-.217.33-.595.511-.371.175-.847.175h-1v-.525h1q.315 0 .553-.112a.86.86 0 0 0 .378-.322.9.9 0 0 0 .14-.511.9.9 0 0 0-.14-.511.86.86 0 0 0-.378-.322 1.3 1.3 0 0 0-.553-.112zm4.798 4.445a1.5 1.5 0 0 1-.798-.21 1.5 1.5 0 0 1-.539-.595 1.9 1.9 0 0 1-.189-.875q0-.504.196-.882.203-.378.56-.588.364-.21.84-.21.477 0 .812.203.344.196.525.567a2 2 0 0 1 .175.987v.063h-2.75v-.476h2.31l-.225.322a.5.5 0 0 0 .042-.105.5.5 0 0 0 .021-.126 1 1 0 0 0-.119-.497.8.8 0 0 0-.315-.329.9.9 0 0 0-.476-.119q-.322 0-.553.14a.9.9 0 0 0-.35.392q-.12.252-.126.623 0 .378.12.644a.9.9 0 0 0 .35.406q.23.14.56.14.328 0 .58-.14.252-.147.427-.441l.455.287a1.7 1.7 0 0 1-.637.616q-.377.203-.896.203m2.49-1.057q.098.147.224.273t.287.203q.168.07.364.07a.6.6 0 0 0 .37-.105.37.37 0 0 0 .14-.301.38.38 0 0 0-.111-.28.8.8 0 0 0-.273-.196 4 4 0 0 0-.357-.154 5 5 0 0 1-.427-.196 1.2 1.2 0 0 1-.357-.301.77.77 0 0 1-.14-.469q0-.287.147-.476a.9.9 0 0 1 .392-.28 1.44 1.44 0 0 1 1.393.217q.174.14.273.322l-.448.287a1.1 1.1 0 0 0-.336-.301.85.85 0 0 0-.448-.119.57.57 0 0 0-.301.077.26.26 0 0 0-.126.238q0 .126.098.224t.252.175.322.147q.28.112.51.245.232.126.365.308.14.182.14.469 0 .42-.308.7-.3.28-.798.28a1.45 1.45 0 0 1-.581-.112q-.26-.12-.441-.301a1.5 1.5 0 0 1-.266-.371zm2.69-3.563q0-.16.112-.273a.387.387 0 0 1 .658.273.39.39 0 0 1-.112.273.387.387 0 0 1-.546 0 .39.39 0 0 1-.112-.273m.105 1.33h.56v3.22h-.56zm1.846 2.233q.099.147.224.273.126.126.287.203.168.07.364.07.239 0 .371-.105a.36.36 0 0 0 .14-.301.38.38 0 0 0-.112-.28.8.8 0 0 0-.273-.196 4 4 0 0 0-.357-.154 5 5 0 0 1-.427-.196 1.2 1.2 0 0 1-.357-.301.77.77 0 0 1-.14-.469q0-.287.147-.476a.9.9 0 0 1 .392-.28 1.44 1.44 0 0 1 1.393.217q.175.14.273.322l-.448.287a1.1 1.1 0 0 0-.336-.301.85.85 0 0 0-.448-.119.57.57 0 0 0-.301.077.26.26 0 0 0-.126.238.3.3 0 0 0 .098.224q.099.098.252.175.154.076.322.147.28.112.511.245.231.126.364.308.14.182.14.469 0 .42-.308.7-.3.28-.798.28-.321 0-.581-.112a1.5 1.5 0 0 1-.441-.301 1.5 1.5 0 0 1-.266-.371zm2.201-2.233h1.61v.525h-1.61zm.525-1.12h.56v4.34h-.56zm3.36 4.34 2.317-2.471q.16-.175.273-.343.119-.175.175-.35.063-.181.063-.378a.83.83 0 0 0-.252-.595.9.9 0 0 0-.294-.203 1 1 0 0 0-.399-.077 1 1 0 0 0-.546.147.9.9 0 0 0-.343.413q-.119.266-.119.637h-.595q0-.525.189-.917.189-.399.546-.616.364-.224.868-.224.406 0 .7.14.294.133.483.35a1.42 1.42 0 0 1 .371.924q0 .378-.182.749a2.6 2.6 0 0 1-.469.665l-1.561 1.589h2.233v.56zm4.72-2.45q0 .427.084.791.084.357.245.623a1.3 1.3 0 0 0 .385.406q.232.14.511.14a.94.94 0 0 0 .511-.14q.225-.147.385-.406.162-.266.245-.623.084-.364.084-.791t-.084-.784a2 2 0 0 0-.245-.623 1.2 1.2 0 0 0-.385-.406.9.9 0 0 0-.511-.147.93.93 0 0 0-.511.147 1.2 1.2 0 0 0-.385.406q-.16.259-.245.623-.084.357-.084.784m-.595 0q0-.735.231-1.302.232-.567.637-.889.414-.33.952-.329.54 0 .945.329.413.322.644.889t.231 1.302-.231 1.302a2.15 2.15 0 0 1-.644.896q-.405.322-.945.322-.538 0-.952-.322a2.2 2.2 0 0 1-.637-.896 3.4 3.4 0 0 1-.231-1.302m4.477-1.484V8.98l1.68-.42v4.97h-.595V9.274zm5.707.644q0-.336-.147-.588a1.066 1.066 0 0 0-.952-.553q-.315 0-.567.147a1.1 1.1 0 0 0-.392.406q-.14.252-.14.588t.14.595q.147.259.392.413.252.147.567.147t.56-.147q.252-.154.392-.413.147-.26.147-.595m-1.393 3.29h-.749l1.533-2.023.042.035a.66.66 0 0 1-.329.231 1.4 1.4 0 0 1-.42.056 1.37 1.37 0 0 1-1.029-.455 1.6 1.6 0 0 1-.308-.504 1.8 1.8 0 0 1-.112-.63q0-.504.217-.882a1.6 1.6 0 0 1 .602-.588q.378-.21.847-.21.476 0 .847.21.378.21.595.588a1.7 1.7 0 0 1 .224.882q0 .3-.084.56a1.7 1.7 0 0 1-.224.455zm3.186-2.94a.386.386 0 0 1 .385-.385q.16 0 .273.112a.37.37 0 0 1 .112.273.385.385 0 1 1-.77 0m.161 2.17.56.21-.77 1.75-.406-.147zm1.835-3.164V8.98l1.68-.42v4.97h-.595V9.274zm2.731 3.934 2.317-2.471q.16-.175.273-.343.119-.175.175-.35.063-.181.063-.378a.83.83 0 0 0-.252-.595.9.9 0 0 0-.294-.203 1 1 0 0 0-.399-.077 1 1 0 0 0-.546.147.9.9 0 0 0-.343.413q-.119.266-.119.637h-.595q0-.525.189-.917.189-.399.546-.616.364-.224.868-.224.406 0 .7.14.294.133.483.35a1.42 1.42 0 0 1 .371.924q0 .378-.182.749a2.6 2.6 0 0 1-.469.665l-1.561 1.589h2.233v.56zm4.51-.28q0-.16.112-.273a.39.39 0 0 1 .546 0 .37.37 0 0 1 .112.273.385.385 0 1 1-.77 0m0-2.66q0-.16.112-.273a.39.39 0 0 1 .546 0 .37.37 0 0 1 .112.273.385.385 0 1 1-.77 0m4.093-.994V8.98l1.68-.42v4.97h-.595V9.274zm2.731 3.934 2.317-2.471q.16-.175.273-.343.119-.175.175-.35.063-.181.063-.378a.83.83 0 0 0-.252-.595.9.9 0 0 0-.294-.203 1 1 0 0 0-.399-.077 1 1 0 0 0-.546.147.9.9 0 0 0-.343.413q-.119.266-.119.637h-.595q0-.525.189-.917.189-.399.546-.616.364-.224.868-.224.406 0 .7.14.294.133.483.35a1.42 1.42 0 0 1 .371.924q0 .378-.182.749a2.6 2.6 0 0 1-.469.665l-1.561 1.589h2.233v.56zm4.72-2.45q0 .427.084.791.084.357.245.623a1.3 1.3 0 0 0 .385.406q.231.14.511.14a.94.94 0 0 0 .511-.14q.225-.147.385-.406.161-.266.245-.623.084-.364.084-.791t-.084-.784a2 2 0 0 0-.245-.623 1.2 1.2 0 0 0-.385-.406.9.9 0 0 0-.511-.147.93.93 0 0 0-.511.147 1.2 1.2 0 0 0-.385.406q-.16.259-.245.623-.084.357-.084.784m-.595 0q0-.735.231-1.302.232-.567.637-.889.414-.33.952-.329.54 0 .945.329.414.322.644.889t.231 1.302-.231 1.302a2.15 2.15 0 0 1-.644.896q-.405.322-.945.322-.538 0-.952-.322a2.2 2.2 0 0 1-.637-.896 3.4 3.4 0 0 1-.231-1.302m7.033-.84q0-.336-.147-.588a1.03 1.03 0 0 0-.392-.406 1.07 1.07 0 0 0-.56-.147q-.315 0-.567.147a1.1 1.1 0 0 0-.392.406q-.14.252-.14.588t.14.595q.147.259.392.413.252.147.567.147t.56-.147a1.1 1.1 0 0 0 .392-.413q.147-.26.147-.595m-1.393 3.29h-.749l1.533-2.023.042.035a.66.66 0 0 1-.329.231 1.4 1.4 0 0 1-.42.056 1.37 1.37 0 0 1-1.029-.455 1.6 1.6 0 0 1-.308-.504 1.8 1.8 0 0 1-.112-.63q0-.504.217-.882a1.6 1.6 0 0 1 .602-.588q.378-.21.847-.21.475 0 .847.21.378.21.595.588a1.7 1.7 0 0 1 .224.882q0 .3-.084.56a1.7 1.7 0 0 1-.224.455zm2.346-1.4v-.525h1.4v.525zm1.994-2.534V8.98l1.68-.42v4.97h-.595V9.274zm2.732 3.934 2.317-2.471q.16-.175.273-.343.119-.175.175-.35.063-.181.063-.378a.83.83 0 0 0-.252-.595.9.9 0 0 0-.294-.203 1 1 0 0 0-.399-.077 1 1 0 0 0-.546.147.9.9 0 0 0-.343.413q-.119.266-.119.637h-.595q0-.525.189-.917.189-.399.546-.616.364-.224.868-.224.406 0 .7.14.294.133.483.35a1.42 1.42 0 0 1 .371.924q0 .378-.182.749a2.6 2.6 0 0 1-.469.665l-1.561 1.589h2.233v.56zm3.985 0 2.317-2.471q.162-.175.273-.343.12-.175.175-.35.063-.181.063-.378a.83.83 0 0 0-.252-.595.9.9 0 0 0-.294-.203 1 1 0 0 0-.399-.077 1 1 0 0 0-.546.147.9.9 0 0 0-.343.413q-.119.266-.119.637h-.595q0-.525.189-.917.189-.399.546-.616.364-.224.868-.224.406 0 .7.14.294.133.483.35a1.4 1.4 0 0 1 .371.924q0 .378-.182.749a2.5 2.5 0 0 1-.469.665l-1.561 1.589h2.233v.56zm4.721-2.45q0 .427.084.791.084.357.245.623.16.26.385.406.23.14.511.14a.95.95 0 0 0 .511-.14 1.3 1.3 0 0 0 .385-.406q.16-.266.245-.623.084-.364.084-.791t-.084-.784a2 2 0 0 0-.245-.623 1.2 1.2 0 0 0-.385-.406.9.9 0 0 0-.511-.147.93.93 0 0 0-.511.147q-.225.14-.385.406-.161.259-.245.623-.084.357-.084.784m-.595 0q0-.735.231-1.302.23-.567.637-.889.412-.33.952-.329.538 0 .945.329.413.322.644.889t.231 1.302-.231 1.302a2.16 2.16 0 0 1-.644.896 1.48 1.48 0 0 1-.945.322q-.54 0-.952-.322a2.2 2.2 0 0 1-.637-.896 3.4 3.4 0 0 1-.231-1.302m4.582 2.17a.386.386 0 0 1 .385-.385q.16 0 .273.112a.39.39 0 0 1 0 .546.37.37 0 0 1-.273.112.386.386 0 0 1-.385-.385M1.631 19.115v-.385q.239 0 .42-.063a1 1 0 0 0 .308-.182.8.8 0 0 0 .189-.273.928.928 0 0 0-.014-.735.6.6 0 0 0-.252-.28.77.77 0 0 0-.406-.098.83.83 0 0 0-.581.217.68.68 0 0 0-.238.532H.49q0-.385.175-.672a1.26 1.26 0 0 1 .49-.448q.315-.168.714-.168.42 0 .721.182.308.182.469.476.168.294.168.644 0 .344-.203.63a1.4 1.4 0 0 1-.56.455 1.9 1.9 0 0 1-.833.168m.21 2.485q-.357 0-.644-.105a1.5 1.5 0 0 1-.49-.287 1.4 1.4 0 0 1-.315-.434 1.3 1.3 0 0 1-.112-.539h.602q0 .231.119.413a.87.87 0 0 0 .343.287q.217.105.497.105t.483-.105a.8.8 0 0 0 .322-.308.9.9 0 0 0 .112-.462.8.8 0 0 0-.091-.392.75.75 0 0 0-.238-.287 1 1 0 0 0-.357-.175 1.7 1.7 0 0 0-.441-.056v-.385q.357 0 .665.077.315.077.553.245.245.16.378.42.14.259.14.623 0 .413-.203.721-.195.308-.539.476a1.76 1.76 0 0 1-.784.168m2.403-.35q0-.16.112-.273a.387.387 0 0 1 .546.546.387.387 0 0 1-.546 0 .39.39 0 0 1-.112-.273m4.561-1.19.21-.56h2.17l.21.56zm1.281-2.324-.826 1.946-.056.126-.728 1.722h-.665l2.275-5.145 2.275 5.145h-.665l-.714-1.68-.056-.14zm2.801-1.666h.56v5.46h-.56zm1.75 2.24h.7l-1.4 1.33 1.54 1.89h-.7l-1.54-1.89zm.878 0h1.61v.525h-1.61zm.525-1.12h.56v4.34h-.56zm1.647-.21q0-.16.112-.273a.39.39 0 0 1 .273-.112q.16 0 .273.112a.387.387 0 0 1 0 .546.37.37 0 0 1-.273.112.39.39 0 0 1-.273-.112.39.39 0 0 1-.112-.273m.105 1.33h.56v3.22h-.56zm1.713-2.24h.56v5.46h-.56zm3.747.56h.595v4.9h-.595zm1.47 4.9h-1.141v-.595h1.141q.413 0 .756-.126a1.7 1.7 0 0 0 .588-.371q.245-.245.378-.588t.133-.77-.133-.77a1.6 1.6 0 0 0-.378-.581 1.6 1.6 0 0 0-.588-.371 2.1 2.1 0 0 0-.756-.133h-1.141v-.595h1.141q.714 0 1.267.308.553.307.868.861.315.546.315 1.281 0 .736-.315 1.288-.316.546-.868.854a2.56 2.56 0 0 1-1.267.308m3.813-1.26q0 .385.175.595t.51.21a.9.9 0 0 0 .428-.098.7.7 0 0 0 .287-.287.8.8 0 0 0 .105-.42v-1.96h.56v3.22h-.56v-.504q-.16.287-.4.434-.236.14-.56.14-.503 0-.804-.343-.3-.343-.301-.917v-2.03h.56zm2.838-.35q0-.49.217-.868.224-.378.602-.595a1.67 1.67 0 0 1 .847-.217q.476 0 .847.217.378.217.595.595.224.378.224.868 0 .483-.224.868-.217.378-.595.595-.372.217-.847.217a1.67 1.67 0 0 1-.847-.217 1.64 1.64 0 0 1-.602-.595 1.74 1.74 0 0 1-.217-.868m.567 0q0 .336.14.595.147.259.392.413.252.147.567.147t.56-.147q.252-.154.392-.413.147-.26.147-.595 0-.336-.147-.595a1 1 0 0 0-.392-.413 1.07 1.07 0 0 0-.56-.147q-.316 0-.567.147a1.1 1.1 0 0 0-.392.413 1.2 1.2 0 0 0-.14.595m5.884.616q0 .181.084.315.092.133.245.203a1 1 0 0 0 .364.063 1 1 0 0 0 .462-.105.8.8 0 0 0 .456-.742l.111.42a.72.72 0 0 1-.188.511 1.1 1.1 0 0 1-.455.301 1.5 1.5 0 0 1-.532.098q-.294 0-.553-.119a1.04 1.04 0 0 1-.407-.357 1 1 0 0 1-.154-.56q0-.469.33-.749.335-.287.93-.287.35 0 .581.084.239.077.379.182a1 1 0 0 1 .189.161v.329a1.7 1.7 0 0 0-.505-.238 2 2 0 0 0-.553-.077q-.271 0-.447.07a.54.54 0 0 0-.253.196.53.53 0 0 0-.084.301m-.084-1.484-.273-.413q.183-.133.498-.266.32-.133.77-.133.377 0 .657.119a.94.94 0 0 1 .441.329.87.87 0 0 1 .162.532v2.31h-.56v-2.233a.6.6 0 0 0-.056-.273.4.4 0 0 0-.161-.175.7.7 0 0 0-.232-.091 1.578 1.578 0 0 0-.714.028 1.5 1.5 0 0 0-.322.133 3 3 0 0 0-.21.133m3.203-2.982h.56v5.46h-.56zm1.578 0h.56v5.46h-.56zm1.75 2.24h.7l-1.4 1.33 1.54 1.89h-.7l-1.54-1.89zm1.62 2.226q0 .181.084.315.09.133.245.203a1 1 0 0 0 .364.063 1 1 0 0 0 .462-.105.8.8 0 0 0 .455-.742l.112.42a.72.72 0 0 1-.19.511 1.1 1.1 0 0 1-.454.301 1.5 1.5 0 0 1-.532.098q-.294 0-.553-.119a1.04 1.04 0 0 1-.406-.357 1 1 0 0 1-.154-.56q0-.469.329-.749.336-.287.93-.287.351 0 .582.084.238.077.378.182a1 1 0 0 1 .189.161v.329a1.7 1.7 0 0 0-.504-.238 2 2 0 0 0-.553-.077q-.273 0-.448.07a.54.54 0 0 0-.252.196.53.53 0 0 0-.084.301m-.084-1.484-.273-.413q.182-.133.497-.266.322-.133.77-.133.378 0 .658.119a.94.94 0 0 1 .44.329.87.87 0 0 1 .162.532v2.31h-.56v-2.233a.6.6 0 0 0-.056-.273.4.4 0 0 0-.161-.175.7.7 0 0 0-.231-.091 1.578 1.578 0 0 0-.714.028 1.5 1.5 0 0 0-.322.133 3 3 0 0 0-.21.133m3.202-2.982h.56v5.46h-.56zm6.023 3.43v2.03h-.56v-1.96q0-.413-.154-.609-.147-.196-.462-.196a.8.8 0 0 0-.399.098.6.6 0 0 0-.259.273.96.96 0 0 0-.09.434v1.96h-.56v-1.96q0-.413-.155-.609-.147-.196-.462-.196a.8.8 0 0 0-.399.098.6.6 0 0 0-.259.273.96.96 0 0 0-.09.434v1.96h-.56v-3.22h.56v.469q.146-.273.363-.406.225-.133.525-.133a1 1 0 0 1 .574.161q.246.155.357.441.168-.3.42-.448.252-.154.574-.154.33 0 .56.147t.35.434q.126.28.126.679m1.304 1.036q0 .181.084.315.091.133.245.203a1 1 0 0 0 .364.063 1 1 0 0 0 .462-.105.8.8 0 0 0 .455-.742l.112.42a.72.72 0 0 1-.189.511 1.1 1.1 0 0 1-.455.301 1.5 1.5 0 0 1-.532.098q-.294 0-.553-.119a1.04 1.04 0 0 1-.406-.357 1 1 0 0 1-.154-.56q0-.469.33-.749.335-.287.93-.287.35 0 .581.084.238.077.378.182a1 1 0 0 1 .19.161v.329a1.7 1.7 0 0 0-.505-.238 2 2 0 0 0-.553-.077q-.273 0-.448.07a.54.54 0 0 0-.252.196.53.53 0 0 0-.084.301m-.084-1.484-.273-.413q.182-.133.497-.266.323-.133.77-.133.379 0 .658.119a.94.94 0 0 1 .441.329.87.87 0 0 1 .161.532v2.31h-.56v-2.233a.6.6 0 0 0-.056-.273.4.4 0 0 0-.16-.175.7.7 0 0 0-.232-.091 1.579 1.579 0 0 0-.714.028 1.5 1.5 0 0 0-.322.133 3 3 0 0 0-.21.133m4.777-.217h-1.785v-.525h2.8l-1.995 2.695h1.855v.525h-2.87zm1.897 1.75q0 .168.077.287a.5.5 0 0 0 .224.175q.154.056.378.056.28 0 .497-.084a.7.7 0 0 0 .336-.266q.126-.181.126-.483l.112.35a.86.86 0 0 1-.168.532 1.05 1.05 0 0 1-.434.336 1.6 1.6 0 0 1-.609.112q-.33 0-.58-.112a.94.94 0 0 1-.393-.329.9.9 0 0 1-.133-.504q0-.378.182-.623.182-.252.49-.378a1.9 1.9 0 0 1 .7-.126q.307 0 .525.084.224.077.357.182.134.098.182.161v.329a1.75 1.75 0 0 0-1.036-.329q-.28 0-.469.077a.6.6 0 0 0-.273.217.6.6 0 0 0-.09.336m0-1.519-.273-.427q.182-.133.49-.266t.742-.133q.37 0 .644.119a.95.95 0 0 1 .434.329.87.87 0 0 1 .161.532v2.31h-.56v-2.31a.39.39 0 0 0-.21-.364.87.87 0 0 0-.469-.126q-.231 0-.42.063a1.4 1.4 0 0 0-.329.14 3 3 0 0 0-.21.133m2.08-2.296-1.26 1.05-.316-.21 1.05-1.12zm1.198 3.773q.098.147.225.273.126.126.287.203.168.07.364.07a.6.6 0 0 0 .37-.105.37.37 0 0 0 .14-.301.38.38 0 0 0-.112-.28.8.8 0 0 0-.272-.196 4 4 0 0 0-.358-.154 5 5 0 0 1-.427-.196 1.2 1.2 0 0 1-.357-.301.77.77 0 0 1-.14-.469q0-.287.147-.476a.9.9 0 0 1 .392-.28 1.44 1.44 0 0 1 1.394.217q.174.14.272.322l-.448.287a1.1 1.1 0 0 0-.335-.301.85.85 0 0 0-.449-.119.57.57 0 0 0-.3.077.26.26 0 0 0-.126.238q0 .126.097.224.099.098.252.175.154.077.323.147.279.112.51.245.231.126.364.308.14.182.14.469 0 .42-.307.7-.301.28-.798.28a1.45 1.45 0 0 1-.582-.112q-.259-.12-.44-.301a1.5 1.5 0 0 1-.267-.371zm2.69-3.563q0-.16.113-.273a.39.39 0 0 1 .273-.112q.16 0 .273.112a.387.387 0 0 1 0 .546.37.37 0 0 1-.273.112.39.39 0 0 1-.273-.112.39.39 0 0 1-.112-.273M69 18.31h.56v3.22H69zm5.058 3.29a1.5 1.5 0 0 1-.798-.21 1.5 1.5 0 0 1-.54-.595 1.9 1.9 0 0 1-.188-.875q0-.504.196-.882.203-.378.56-.588.363-.21.84-.21.476 0 .812.203.342.196.525.567a2 2 0 0 1 .175.987v.063h-2.751v-.476h2.31l-.224.322a.5.5 0 0 0 .042-.105.5.5 0 0 0 .02-.126 1 1 0 0 0-.118-.497.8.8 0 0 0-.315-.329.9.9 0 0 0-.476-.119q-.323 0-.553.14a.9.9 0 0 0-.35.392q-.12.252-.126.623 0 .378.119.644a.9.9 0 0 0 .35.406q.23.14.56.14t.58-.14q.253-.147.428-.441l.455.287q-.252.405-.637.616-.377.203-.896.203m2.356-5.53h.56v5.46h-.56zm2.426 1.75-.364-.119.728-1.358.574.14zm1.148 0-.357-.119.72-1.358.589.14zm-2.24 2.1q0-.49.217-.868.224-.378.602-.595a1.67 1.67 0 0 1 .847-.217q.476 0 .847.217.378.217.595.595.224.378.224.868 0 .483-.224.868-.217.378-.595.595-.372.217-.847.217a1.67 1.67 0 0 1-.847-.217 1.64 1.64 0 0 1-.602-.595 1.74 1.74 0 0 1-.217-.868m.567 0q0 .336.14.595.147.259.392.413.252.147.567.147t.56-.147q.252-.154.392-.413.147-.26.147-.595 0-.336-.147-.595a1 1 0 0 0-.392-.413 1.07 1.07 0 0 0-.56-.147q-.316 0-.567.147a1.1 1.1 0 0 0-.392.413 1.2 1.2 0 0 0-.14.595m3.639-1.61h.56v3.22h-.56zm1.4-1.68-1.26 1.05-.315-.21 1.05-1.12zm.873 1.68v3.22h-.56v-3.22zm.973.616a.9.9 0 0 0-.203-.119.55.55 0 0 0-.23-.042.48.48 0 0 0-.33.105.57.57 0 0 0-.168.287 2 2 0 0 0-.042.413h-.252q0-.385.133-.679.141-.301.357-.476a.7.7 0 0 1 .441-.175q.175 0 .322.049a.6.6 0 0 1 .28.175zm1.119 1.659q0 .168.077.287a.5.5 0 0 0 .224.175q.153.056.378.056.28 0 .497-.084a.7.7 0 0 0 .336-.266q.126-.181.126-.483l.112.35a.86.86 0 0 1-.168.532 1.05 1.05 0 0 1-.434.336 1.6 1.6 0 0 1-.61.112q-.328 0-.58-.112a.94.94 0 0 1-.392-.329.92.92 0 0 1-.133-.504q0-.378.182-.623.181-.252.49-.378a1.9 1.9 0 0 1 .7-.126q.307 0 .525.084.224.077.357.182a1 1 0 0 1 .182.161v.329a1.75 1.75 0 0 0-1.036-.329 1.3 1.3 0 0 0-.47.077.6.6 0 0 0-.272.217.6.6 0 0 0-.091.336m0-1.519-.273-.427a2.6 2.6 0 0 1 .49-.266q.307-.133.742-.133.37 0 .644.119a.95.95 0 0 1 .434.329.87.87 0 0 1 .16.532v2.31h-.56v-2.31a.39.39 0 0 0-.21-.364.87.87 0 0 0-.468-.126q-.231 0-.42.063a1.4 1.4 0 0 0-.33.14 3 3 0 0 0-.21.133m2.079-2.296-1.26 1.05-.315-.21 1.05-1.12zm1.2 3.773q.097.147.223.273t.287.203q.168.07.364.07a.6.6 0 0 0 .371-.105.37.37 0 0 0 .14-.301.38.38 0 0 0-.112-.28.8.8 0 0 0-.273-.196 4 4 0 0 0-.357-.154 5 5 0 0 1-.427-.196 1.2 1.2 0 0 1-.357-.301.77.77 0 0 1-.14-.469q0-.287.147-.476a.9.9 0 0 1 .392-.28 1.44 1.44 0 0 1 1.393.217q.175.14.273.322l-.448.287a1.1 1.1 0 0 0-.336-.301.85.85 0 0 0-.448-.119.57.57 0 0 0-.3.077.26.26 0 0 0-.127.238q0 .126.098.224t.252.175.322.147q.28.112.511.245.23.126.364.308.14.182.14.469 0 .42-.308.7-.3.28-.798.28-.322 0-.58-.112-.26-.12-.442-.301a1.5 1.5 0 0 1-.266-.371zm4.298-2.233h.63l.805 2.093.875-2.338.938 2.352.812-2.107h.63l-1.4 3.465-.973-2.345-.917 2.345zm4.97 0h.63l.805 2.093.875-2.338.938 2.352.812-2.107h.63l-1.4 3.465-.973-2.345-.917 2.345zm4.969 0h.63l.805 2.093.875-2.338.938 2.352.812-2.107h.63l-1.4 3.465-.973-2.345-.917 2.345zm4.971 2.94q0-.16.112-.273a.39.39 0 0 1 .546 0 .37.37 0 0 1 .112.273.385.385 0 1 1-.77 0m1.679-1.33q0-.49.217-.868.224-.378.602-.595a1.67 1.67 0 0 1 .847-.217q.476 0 .847.217.378.217.595.595.224.378.224.868 0 .483-.224.868-.217.378-.595.595-.371.217-.847.217a1.67 1.67 0 0 1-.847-.217 1.63 1.63 0 0 1-.602-.595 1.73 1.73 0 0 1-.217-.868m.567 0q0 .336.14.595.147.259.392.413.252.147.567.147t.56-.147q.252-.154.392-.413.147-.26.147-.595 0-.336-.147-.595a1 1 0 0 0-.392-.413 1.07 1.07 0 0 0-.56-.147q-.315 0-.567.147a1.1 1.1 0 0 0-.392.413q-.14.26-.14.595m3.317 1.82h.567q0 .23.126.427a.9.9 0 0 0 .357.322q.231.126.546.126.246 0 .483-.119a.95.95 0 0 0 .392-.378q.162-.252.161-.658v-3.15h.56v3.15q0 .553-.231.924a1.5 1.5 0 0 1-.595.567 1.65 1.65 0 0 1-.77.189q-.468 0-.833-.175a1.35 1.35 0 0 1-.56-.497 1.3 1.3 0 0 1-.203-.728m-.063-1.82q0-.525.217-.896.218-.378.581-.581.365-.203.798-.203.407 0 .707.203.301.203.469.581.175.37.175.896 0 .518-.175.896a1.33 1.33 0 0 1-.469.581q-.3.203-.707.203-.433 0-.798-.203a1.5 1.5 0 0 1-.581-.581 1.8 1.8 0 0 1-.217-.896m.567 0q0 .37.147.63.154.259.406.392t.546.133a1 1 0 0 0 .483-.133q.239-.134.392-.392a1.2 1.2 0 0 0 .154-.63q0-.28-.091-.49a1.05 1.05 0 0 0-.245-.364 1 1 0 0 0-.329-.224.9.9 0 0 0-.364-.077q-.294 0-.546.133-.252.134-.406.392a1.26 1.26 0 0 0-.147.63m6.26-1.61-2.1 4.76h-.63l.882-1.995-1.232-2.765h.665l1.022 2.52-.231-.028.994-2.492zm1.672 3.29q-.448 0-.798-.21a1.5 1.5 0 0 1-.539-.595 1.9 1.9 0 0 1-.189-.875q0-.504.196-.882.203-.378.56-.588.363-.21.84-.21.476 0 .812.203.342.196.525.567a2 2 0 0 1 .175.987v.063h-2.751v-.476h2.31l-.224.322a.5.5 0 0 0 .042-.105.5.5 0 0 0 .021-.126 1 1 0 0 0-.119-.497.83.83 0 0 0-.315-.329.9.9 0 0 0-.476-.119q-.322 0-.553.14a.9.9 0 0 0-.35.392q-.12.252-.126.623 0 .378.119.644a.88.88 0 0 0 .35.406q.23.14.56.14.329 0 .581-.14.252-.147.427-.441l.455.287q-.252.405-.637.616a1.9 1.9 0 0 1-.896.203m2.356-4.62q0-.16.112-.273a.39.39 0 0 1 .546 0 .37.37 0 0 1 .112.273.385.385 0 1 1-.77 0m.105 1.33h.56v3.22h-.56zm1.854 2.94a.386.386 0 0 1 .385-.385q.16 0 .273.112a.39.39 0 0 1 0 .546.37.37 0 0 1-.273.112.386.386 0 0 1-.385-.385m1.741.49h.567q0 .23.126.427a.9.9 0 0 0 .357.322q.231.126.546.126.246 0 .483-.119a.95.95 0 0 0 .392-.378q.161-.252.161-.658v-3.15h.56v3.15q0 .553-.231.924a1.5 1.5 0 0 1-.595.567 1.65 1.65 0 0 1-.77.189q-.468 0-.833-.175a1.35 1.35 0 0 1-.56-.497 1.3 1.3 0 0 1-.203-.728m-.063-1.82q0-.525.217-.896.218-.378.581-.581.364-.203.798-.203.407 0 .707.203.301.203.469.581.175.37.175.896 0 .518-.175.896a1.33 1.33 0 0 1-.469.581q-.3.203-.707.203-.433 0-.798-.203a1.5 1.5 0 0 1-.581-.581 1.8 1.8 0 0 1-.217-.896m.567 0q0 .37.147.63.154.259.406.392t.546.133a1 1 0 0 0 .483-.133q.239-.134.392-.392a1.2 1.2 0 0 0 .154-.63q0-.28-.091-.49a1.05 1.05 0 0 0-.245-.364 1 1 0 0 0-.329-.224.9.9 0 0 0-.364-.077q-.294 0-.546.133-.252.134-.406.392a1.26 1.26 0 0 0-.147.63m3.426 0q0-.49.217-.868.224-.378.602-.595a1.67 1.67 0 0 1 .847-.217q.475 0 .847.217.378.217.595.595.224.378.224.868 0 .483-.224.868-.217.378-.595.595-.372.217-.847.217a1.67 1.67 0 0 1-.847-.217 1.63 1.63 0 0 1-.602-.595 1.73 1.73 0 0 1-.217-.868m.567 0q0 .336.14.595.147.259.392.413.252.147.567.147t.56-.147a1.1 1.1 0 0 0 .392-.413q.147-.26.147-.595 0-.336-.147-.595a1 1 0 0 0-.392-.413 1.07 1.07 0 0 0-.56-.147q-.315 0-.567.147a1.1 1.1 0 0 0-.392.413q-.14.26-.14.595m2.906-1.61h.63l.91 2.275.91-2.275h.63l-1.54 3.465zm3.331 2.94q0-.16.112-.273a.39.39 0 0 1 .546 0 .37.37 0 0 1 .112.273.385.385 0 1 1-.77 0m2.519-5.18v5.46h-.56v-5.46zm1.505 3.5q0-.4-.175-.602-.168-.203-.511-.203a.9.9 0 0 0-.434.105.8.8 0 0 0-.287.287.86.86 0 0 0-.098.413h-.182q0-.385.147-.679.147-.301.399-.476.26-.175.595-.175.336 0 .581.14a.9.9 0 0 1 .385.42q.14.28.14.7v2.03h-.56zm2.173.7q0 .385.175.595.174.21.511.21a.9.9 0 0 0 .427-.098.7.7 0 0 0 .287-.287.8.8 0 0 0 .105-.42v-1.96h.56v3.22h-.56v-.504a1.2 1.2 0 0 1-.399.434q-.239.14-.56.14-.504 0-.805-.343t-.301-.917v-2.03h.56zm3.257.98q0-.16.112-.273a.39.39 0 0 1 .546 0 .37.37 0 0 1 .112.273.385.385 0 1 1-.77 0m4.772-3.031-.364 3.311h-.595l.595-5.145 1.96 3.549 1.96-3.549.595 5.145h-.595l-.364-3.311-1.596 2.856zm6.199 3.381q-.448 0-.798-.21a1.5 1.5 0 0 1-.539-.595 1.9 1.9 0 0 1-.189-.875q0-.504.196-.882.203-.378.56-.588.363-.21.84-.21.476 0 .812.203.342.196.525.567a2 2 0 0 1 .175.987v.063h-2.751v-.476h2.31l-.224.322a.5.5 0 0 0 .042-.105.5.5 0 0 0 .021-.126 1 1 0 0 0-.119-.497.83.83 0 0 0-.315-.329.9.9 0 0 0-.476-.119q-.322 0-.553.14a.9.9 0 0 0-.35.392q-.12.252-.126.623 0 .378.119.644a.88.88 0 0 0 .35.406q.23.14.56.14.329 0 .581-.14.252-.147.427-.441l.455.287q-.252.405-.637.616a1.9 1.9 0 0 1-.896.203m2.139.14h.567q0 .23.126.427a.9.9 0 0 0 .357.322q.231.126.546.126.246 0 .483-.119a.95.95 0 0 0 .392-.378q.161-.252.161-.658v-3.15h.56v3.15q0 .553-.231.924a1.5 1.5 0 0 1-.595.567 1.65 1.65 0 0 1-.77.189q-.468 0-.833-.175a1.35 1.35 0 0 1-.56-.497 1.3 1.3 0 0 1-.203-.728m-.063-1.82q0-.525.217-.896.218-.378.581-.581.364-.203.798-.203.407 0 .707.203.301.203.469.581.175.37.175.896 0 .518-.175.896a1.33 1.33 0 0 1-.469.581q-.3.203-.707.203-.433 0-.798-.203a1.5 1.5 0 0 1-.581-.581 1.8 1.8 0 0 1-.217-.896m.567 0q0 .37.147.63.154.259.406.392t.546.133a1 1 0 0 0 .483-.133q.239-.134.392-.392a1.2 1.2 0 0 0 .154-.63q0-.28-.091-.49a1.05 1.05 0 0 0-.245-.364 1 1 0 0 0-.329-.224.9.9 0 0 0-.364-.077q-.294 0-.546.133-.252.134-.406.392a1.26 1.26 0 0 0-.147.63m3.215-1.61h1.61v.525h-1.61zm.525-1.12h.56v4.34h-.56zm2.893 4.41q-.448 0-.798-.21a1.5 1.5 0 0 1-.539-.595 1.9 1.9 0 0 1-.189-.875q0-.504.196-.882.203-.378.56-.588.365-.21.84-.21.476 0 .812.203.344.196.525.567a2 2 0 0 1 .175.987v.063h-2.751v-.476h2.31l-.224.322a.5.5 0 0 0 .042-.105.5.5 0 0 0 .021-.126 1 1 0 0 0-.119-.497.83.83 0 0 0-.315-.329.9.9 0 0 0-.476-.119q-.322 0-.553.14a.9.9 0 0 0-.35.392 1.5 1.5 0 0 0-.126.623q0 .378.119.644a.88.88 0 0 0 .35.406q.231.14.56.14t.581-.14q.252-.147.427-.441l.455.287q-.252.405-.637.616a1.9 1.9 0 0 1-.896.203m2.322-5.53h.56v5.46h-.56zm1.75 2.24h.7l-1.4 1.33 1.54 1.89h-.7l-1.54-1.89zm1.368-1.33a.386.386 0 0 1 .385-.385q.16 0 .273.112a.39.39 0 0 1 0 .546.37.37 0 0 1-.273.112.386.386 0 0 1-.385-.385m.105 1.33h.56v3.22h-.56zm3.778 1.26q0-.4-.175-.602-.175-.203-.511-.203a.9.9 0 0 0-.434.105.7.7 0 0 0-.287.28.9.9 0 0 0-.098.42v1.96h-.56v-3.22h.56v.504q.16-.294.399-.434.245-.14.56-.14.511 0 .805.343.301.336.301.917v2.03h-.56zm1.123-1.26h1.61v.525h-1.61zm.525-1.12h.56v4.34h-.56zm1.723 2.87v-.476h2.149a1.1 1.1 0 0 0-.14-.441.7.7 0 0 0-.301-.301.9.9 0 0 0-.469-.112q-.28 0-.511.119a.94.94 0 0 0-.371.343 1 1 0 0 0-.133.518l-.014.21q0 .37.126.63a.9.9 0 0 0 .357.392q.231.133.546.133.238 0 .42-.07.189-.077.336-.203.147-.133.252-.308l.455.287a2.5 2.5 0 0 1-.357.434q-.195.182-.476.287-.28.098-.7.098a1.46 1.46 0 0 1-.784-.217 1.6 1.6 0 0 1-.546-.595 1.9 1.9 0 0 1-.196-.868 2.4 2.4 0 0 1 .028-.343q.07-.4.28-.7t.539-.469q.336-.168.749-.168.456 0 .798.203.343.203.532.574.189.364.189.875v.084a1 1 0 0 1-.007.084zm2.359-3.36-1.26 1.05-.315-.21 1.05-1.12zm1.3 3.843q.098.147.224.273t.287.203q.168.07.364.07a.6.6 0 0 0 .371-.105.37.37 0 0 0 .14-.301.38.38 0 0 0-.112-.28.8.8 0 0 0-.273-.196 4 4 0 0 0-.357-.154 5 5 0 0 1-.427-.196 1.2 1.2 0 0 1-.357-.301.77.77 0 0 1-.14-.469q0-.287.147-.476a.9.9 0 0 1 .392-.28 1.43 1.43 0 0 1 1.393.217q.175.14.273.322l-.448.287a1.1 1.1 0 0 0-.336-.301.85.85 0 0 0-.448-.119.57.57 0 0 0-.301.077.26.26 0 0 0-.126.238.3.3 0 0 0 .098.224 1 1 0 0 0 .252.175q.154.077.322.147.28.112.511.245.23.126.364.308a.75.75 0 0 1 .14.469q0 .42-.308.7-.302.28-.798.28-.322 0-.581-.112-.26-.12-.441-.301a1.5 1.5 0 0 1-.266-.371zm7.204-4.473h.56v5.46h-.56zm-2.695 3.85q0-.525.217-.896.216-.378.581-.581.363-.203.798-.203.405 0 .707.203.3.203.469.581.175.37.175.896 0 .518-.175.896a1.34 1.34 0 0 1-.469.581 1.24 1.24 0 0 1-.707.203q-.435 0-.798-.203a1.5 1.5 0 0 1-.581-.581 1.77 1.77 0 0 1-.217-.896m.567 0q0 .37.147.63.154.259.406.392t.546.133a1 1 0 0 0 .483-.133 1.06 1.06 0 0 0 .392-.392q.153-.26.154-.63 0-.37-.154-.63a1.06 1.06 0 0 0-.392-.392 1 1 0 0 0-.483-.133q-.294 0-.546.133-.252.134-.406.392a1.26 1.26 0 0 0-.147.63m3.957.665a.5.5 0 0 0 .077.287.5.5 0 0 0 .224.175q.155.056.378.056.28 0 .497-.084a.7.7 0 0 0 .336-.266q.126-.181.126-.483l.112.35a.86.86 0 0 1-.168.532 1.05 1.05 0 0 1-.434.336 1.6 1.6 0 0 1-.609.112q-.329 0-.581-.112a.94.94 0 0 1-.392-.329.9.9 0 0 1-.133-.504q0-.378.182-.623.182-.252.49-.378.315-.126.7-.126.308 0 .525.084.224.077.357.182a1 1 0 0 1 .182.161v.329a1.76 1.76 0 0 0-1.036-.329q-.28 0-.469.077a.6.6 0 0 0-.273.217.6.6 0 0 0-.091.336m0-1.519-.273-.427q.182-.133.49-.266t.742-.133q.37 0 .644.119a.95.95 0 0 1 .434.329.87.87 0 0 1 .161.532v2.31h-.56v-2.31a.39.39 0 0 0-.21-.364.87.87 0 0 0-.469-.126q-.231 0-.42.063a1.4 1.4 0 0 0-.329.14 2 2 0 0 0-.21.133m2.079-2.296-1.26 1.05-.315-.21 1.05-1.12zm.576 1.54h1.61v.525h-1.61zm.525-1.12h.56v4.34h-.56zm2.207 3.08q0 .385.175.595t.511.21a.9.9 0 0 0 .427-.098.7.7 0 0 0 .287-.287.8.8 0 0 0 .105-.42v-1.96h.56v3.22h-.56v-.504a1.16 1.16 0 0 1-.399.434q-.238.14-.56.14-.504 0-.805-.343t-.301-.917v-2.03h.56zm7.528-.77v2.03h-.56v-1.96q0-.413-.154-.609-.147-.196-.462-.196a.8.8 0 0 0-.399.098.6.6 0 0 0-.259.273.96.96 0 0 0-.091.434v1.96h-.56v-1.96q0-.413-.154-.609-.147-.196-.462-.196a.8.8 0 0 0-.399.098.6.6 0 0 0-.259.273.96.96 0 0 0-.091.434v1.96h-.56v-3.22h.56v.469q.147-.273.364-.406.224-.133.525-.133.336 0 .574.161.245.155.357.441.168-.3.42-.448.252-.154.574-.154.329 0 .56.147.23.147.35.434.126.28.126.679m1.304 1.036q0 .181.084.315.09.133.245.203a1 1 0 0 0 .364.063 1 1 0 0 0 .462-.105.81.81 0 0 0 .455-.742l.112.42a.72.72 0 0 1-.189.511 1.1 1.1 0 0 1-.455.301 1.5 1.5 0 0 1-.532.098q-.294 0-.553-.119a1.03 1.03 0 0 1-.406-.357 1 1 0 0 1-.154-.56q0-.469.329-.749.336-.287.931-.287.35 0 .581.084a1.3 1.3 0 0 1 .567.343v.329a1.7 1.7 0 0 0-.504-.238 2 2 0 0 0-.553-.077q-.274 0-.448.07a.54.54 0 0 0-.252.196.53.53 0 0 0-.084.301m-.084-1.484-.273-.413q.182-.133.497-.266.321-.133.77-.133.378 0 .658.119a.95.95 0 0 1 .441.329.87.87 0 0 1 .161.532v2.31h-.56v-2.233a.6.6 0 0 0-.056-.273.4.4 0 0 0-.161-.175.7.7 0 0 0-.231-.091 1.573 1.573 0 0 0-.714.028 1.5 1.5 0 0 0-.322.133 2 2 0 0 0-.21.133m3.342 2.198a.386.386 0 0 1 .385-.385q.16 0 .273.112a.39.39 0 0 1 0 .546.37.37 0 0 1-.273.112.386.386 0 0 1-.385-.385m0-2.66a.386.386 0 0 1 .385-.385q.16 0 .273.112a.39.39 0 0 1 0 .546.37.37 0 0 1-.273.112.386.386 0 0 1-.385-.385m3.672 2.94 2.317-2.471q.16-.175.273-.343.119-.175.175-.35.063-.181.063-.378a.83.83 0 0 0-.252-.595.9.9 0 0 0-.294-.203 1 1 0 0 0-.399-.077 1 1 0 0 0-.546.147.9.9 0 0 0-.343.413q-.119.266-.119.637h-.595q0-.525.189-.917.189-.399.546-.616.364-.224.868-.224.406 0 .7.14.294.133.483.35a1.42 1.42 0 0 1 .371.924q0 .378-.182.749a2.6 2.6 0 0 1-.469.665l-1.561 1.589h2.233v.56zm4.72-2.45q0 .427.084.791.084.357.245.623a1.3 1.3 0 0 0 .385.406q.232.14.511.14a.94.94 0 0 0 .511-.14q.225-.147.385-.406.161-.266.245-.623.084-.364.084-.791t-.084-.784a2 2 0 0 0-.245-.623 1.2 1.2 0 0 0-.385-.406.9.9 0 0 0-.511-.147.93.93 0 0 0-.511.147 1.2 1.2 0 0 0-.385.406q-.16.259-.245.623-.084.358-.084.784m-.595 0q0-.735.231-1.302t.637-.889q.414-.33.952-.329.54 0 .945.329.413.322.644.889t.231 1.302-.231 1.302a2.15 2.15 0 0 1-.644.896q-.405.322-.945.322-.538 0-.952-.322a2.2 2.2 0 0 1-.637-.896 3.4 3.4 0 0 1-.231-1.302m4.058 2.45 2.317-2.471q.16-.175.273-.343.118-.175.175-.35.063-.181.063-.378a.83.83 0 0 0-.252-.595.9.9 0 0 0-.294-.203 1 1 0 0 0-.399-.077 1 1 0 0 0-.546.147.9.9 0 0 0-.343.413q-.12.266-.119.637h-.595q0-.525.189-.917.189-.399.546-.616.363-.224.868-.224.406 0 .7.14.294.133.483.35a1.42 1.42 0 0 1 .371.924q0 .378-.182.749a2.6 2.6 0 0 1-.469.665l-1.561 1.589h2.233v.56zm7.513-1.61q0 .42-.133.735a1.4 1.4 0 0 1-.371.525 1.6 1.6 0 0 1-.546.315q-.308.105-.665.105-.448 0-.784-.14a1.9 1.9 0 0 1-.567-.371 2.6 2.6 0 0 1-.392-.518l.504-.343q.112.21.294.399.19.182.434.301.245.112.511.112.35 0 .595-.14a.9.9 0 0 0 .371-.392q.133-.252.133-.588t-.147-.588a1 1 0 0 0-.392-.392 1.1 1.1 0 0 0-.56-.14 2 2 0 0 0-.427.042 1.5 1.5 0 0 0-.385.133q-.189.091-.441.266l.644-2.611h2.31v.525h-1.848l-.329 1.295q.175-.09.357-.133.19-.05.371-.049.42 0 .749.21.336.21.525.581.189.37.189.861m.948 1.33q0-.16.112-.273a.39.39 0 0 1 .546 0 .37.37 0 0 1 .112.273.385.385 0 1 1-.77 0m2.309-2.17q0 .427.084.791.084.357.245.623.16.26.385.406.23.14.511.14a.95.95 0 0 0 .511-.14 1.3 1.3 0 0 0 .385-.406q.16-.266.245-.623.084-.364.084-.791t-.084-.784a2 2 0 0 0-.245-.623 1.2 1.2 0 0 0-.385-.406.9.9 0 0 0-.511-.147.93.93 0 0 0-.511.147q-.225.14-.385.406-.161.259-.245.623-.084.358-.084.784m-.595 0q0-.735.231-1.302.23-.567.637-.889.412-.33.952-.329.539 0 .945.329.413.322.644.889t.231 1.302-.231 1.302a2.16 2.16 0 0 1-.644.896 1.48 1.48 0 0 1-.945.322q-.54 0-.952-.322a2.2 2.2 0 0 1-.637-.896 3.4 3.4 0 0 1-.231-1.302m5.688.035v-.385q.238 0 .42-.063a1 1 0 0 0 .308-.182.8.8 0 0 0 .189-.273.928.928 0 0 0-.014-.735.6.6 0 0 0-.252-.28.77.77 0 0 0-.406-.098.83.83 0 0 0-.581.217.68.68 0 0 0-.238.532h-.567q0-.385.175-.672a1.26 1.26 0 0 1 .49-.448q.315-.168.714-.168.42 0 .721.182.308.182.469.476.168.294.168.644 0 .344-.203.63a1.4 1.4 0 0 1-.56.455 1.9 1.9 0 0 1-.833.168m.21 2.485q-.357 0-.644-.105a1.5 1.5 0 0 1-.49-.287 1.4 1.4 0 0 1-.315-.434 1.3 1.3 0 0 1-.112-.539h.602q0 .231.119.413a.86.86 0 0 0 .343.287q.217.105.497.105t.483-.105a.8.8 0 0 0 .322-.308.9.9 0 0 0 .112-.462q0-.224-.091-.392a.75.75 0 0 0-.238-.287 1 1 0 0 0-.357-.175 1.7 1.7 0 0 0-.441-.056v-.385q.357 0 .665.077.315.077.553.245.244.16.378.42.14.259.14.623 0 .413-.203.721-.196.308-.539.476t-.784.168m2.403-.35a.386.386 0 0 1 .385-.385q.16 0 .273.112a.37.37 0 0 1 .112.273.385.385 0 1 1-.77 0m2.308-2.17q0 .427.084.791.084.357.245.623a1.3 1.3 0 0 0 .385.406q.231.14.511.14a.94.94 0 0 0 .511-.14q.225-.147.385-.406.162-.266.245-.623.084-.364.084-.791t-.084-.784a2 2 0 0 0-.245-.623 1.2 1.2 0 0 0-.385-.406.9.9 0 0 0-.511-.147.93.93 0 0 0-.511.147 1.2 1.2 0 0 0-.385.406q-.16.259-.245.623-.084.358-.084.784m-.595 0q0-.735.231-1.302.232-.567.637-.889.414-.33.952-.329.54 0 .945.329.414.322.644.889t.231 1.302-.231 1.302a2.15 2.15 0 0 1-.644.896q-.405.322-.945.322-.538 0-.952-.322a2.2 2.2 0 0 1-.637-.896 3.4 3.4 0 0 1-.231-1.302m5.689.035v-.385q.237 0 .42-.063a1 1 0 0 0 .308-.182.8.8 0 0 0 .189-.273.928.928 0 0 0-.014-.735.6.6 0 0 0-.252-.28.77.77 0 0 0-.406-.098.83.83 0 0 0-.581.217.68.68 0 0 0-.238.532h-.567q0-.385.175-.672.181-.286.49-.448.315-.168.714-.168.42 0 .721.182.307.182.469.476.168.294.168.644 0 .344-.203.63a1.4 1.4 0 0 1-.56.455 1.9 1.9 0 0 1-.833.168m.21 2.485q-.357 0-.644-.105a1.5 1.5 0 0 1-.49-.287 1.307 1.307 0 0 1-.427-.973h.602q0 .231.119.413a.86.86 0 0 0 .343.287q.216.105.497.105.279 0 .483-.105a.8.8 0 0 0 .322-.308.9.9 0 0 0 .112-.462q0-.224-.091-.392a.76.76 0 0 0-.238-.287 1 1 0 0 0-.357-.175 1.7 1.7 0 0 0-.441-.056v-.385q.356 0 .665.077.315.077.553.245.245.16.378.42.14.259.14.623 0 .413-.203.721a1.3 1.3 0 0 1-.539.476q-.343.168-.784.168m2.402-.35q0-.16.112-.273a.39.39 0 0 1 .546 0 .37.37 0 0 1 .112.273.385.385 0 1 1-.77 0"/></svg>