<svg xmlns="http://www.w3.org/2000/svg" fill="none" viewBox="0 0 108 40"><path fill="#fff" d="M3.009 8.588h.051c.374-.612 1.003-.918 1.904-.918h.68c.17 0 .306.034.374.102s.119.187.119.374v1.241c0 .187-.034.306-.102.374q-.102.102-.357.102h-.51c-.629 0-1.054.119-1.292.357-.204.204-.289.595-.289 1.173v4.114c0 .17-.051.306-.136.374-.085.085-.238.119-.442.119H1.445c-.221 0-.374-.034-.459-.119-.085-.068-.119-.204-.119-.374V8.146c0-.17.034-.289.119-.357s.238-.119.459-.119h.816c.187 0 .323.034.408.085q.127.102.204.306zm6.532 2.584v1.326c0 .663.102 1.088.306 1.292.153.17.391.238.714.238h.068c.306 0 .544-.068.714-.238.204-.204.306-.629.306-1.292v-1.326c0-.646-.102-1.088-.306-1.292-.17-.153-.408-.238-.714-.238h-.068c-.323 0-.561.085-.714.238-.204.204-.306.646-.306 1.292m4.845.102v1.105c0 .85-.085 1.496-.255 1.972s-.442.85-.816 1.139c-.561.442-1.428.663-2.618.663h-.204c-1.19 0-2.074-.221-2.618-.663a2.43 2.43 0 0 1-.816-1.139c-.17-.476-.255-1.122-.255-1.972v-1.088c0-.833.085-1.479.255-1.955s.442-.85.816-1.156c.544-.442 1.428-.663 2.618-.663h.204c1.19 0 2.057.221 2.618.663.374.306.646.68.816 1.139.17.476.255 1.122.255 1.955m1.235-.867v-.221c0-.833.22-1.462.663-1.904.51-.51 1.377-.765 2.584-.765h.17c.952 0 1.785.102 2.482.306q.203.077.255.153a.5.5 0 0 1 .034.289l-.187 1.394c-.034.221-.187.289-.46.221-.68-.153-1.291-.238-1.801-.238h-.017c-.374 0-.646.034-.782.102-.153.068-.221.187-.221.357v.051c0 .17.05.289.187.357.136.068.39.153.782.221l.799.17c.73.17 1.258.425 1.564.765s.459.867.459 1.564v.255c0 1.785-1.122 2.669-3.332 2.669h-.17c-1.122 0-2.057-.153-2.84-.459-.152-.051-.254-.119-.288-.204-.034-.068-.034-.204 0-.391l.238-1.122c.05-.323.238-.425.578-.323.782.272 1.462.391 2.04.391h.05c.375 0 .63-.034.783-.119.136-.068.22-.204.22-.391v-.051a.36.36 0 0 0-.186-.323q-.204-.102-.816-.255l-.748-.17q-1.122-.255-1.581-.765c-.306-.34-.46-.85-.46-1.564m12.412-2.89h.136c.986 0 1.717.238 2.159.697.408.442.629 1.19.629 2.244v5.049c0 .17-.051.306-.136.374-.085.085-.238.119-.442.119h-1.564c-.221 0-.374-.034-.46-.119-.084-.068-.118-.204-.118-.374v-4.811c0-.374-.068-.646-.187-.782-.136-.136-.391-.221-.748-.221H27.2c-.374 0-.612.085-.748.221s-.187.408-.187.782v4.811c0 .17-.051.306-.136.374-.085.085-.238.119-.442.119h-1.564c-.221 0-.374-.034-.46-.119-.084-.068-.118-.204-.118-.374V8.146c0-.17.034-.289.119-.357s.238-.119.459-.119h.799c.204 0 .34.034.425.085q.127.076.204.306l.102.323h.05c.545-.578 1.31-.867 2.33-.867m9.456 7.786h-.034c-.374.578-1.122.85-2.227.85h-.255c-.867 0-1.547-.221-2.023-.663-.493-.442-.731-1.105-.731-1.955v-.187c0-.918.255-1.581.782-1.955s1.377-.561 2.567-.561h.119c.442 0 .85.034 1.19.068v-.357c0-.357-.102-.612-.289-.748-.204-.119-.544-.187-1.02-.187-.578 0-1.224.102-1.972.289-.204.051-.357.051-.425 0-.085-.051-.136-.153-.153-.323l-.136-.901c-.034-.17-.034-.289-.034-.34 0-.204.136-.357.408-.442a11 11 0 0 1 2.907-.374c1.309 0 2.244.289 2.788.833.425.442.646 1.156.646 2.125v5.049c0 .255-.102.408-.272.476-.425.17-.782.408-1.054.714-.289.306-.425.629-.425.952v.051q0 .459.459.459h.051c.204 0 .459-.034.731-.136.085-.017.153-.034.204-.034.085 0 .153.085.204.221l.085.357c.051.238.085.357.085.391 0 .102-.085.187-.238.255q-.663.255-1.377.255h-.102c-.578 0-1.037-.119-1.343-.374s-.459-.612-.459-1.054v-.085c0-.408.136-.799.425-1.173.272-.374.646-.68 1.088-.918zm-.612-2.176v-.476a5 5 0 0 0-.816-.051h-.187q-.612 0-.867.153c-.17.102-.238.306-.238.612v.068c0 .306.068.51.238.612.153.119.391.17.714.17h.119c.34 0 .595-.085.799-.255.153-.136.238-.425.238-.833m8.308.833h.136c.46 0 .952-.068 1.48-.221.17-.034.271-.051.322-.051.17 0 .272.102.306.289l.153.867c.034.238.068.391.068.459 0 .204-.153.357-.442.459-.748.272-1.564.391-2.448.391h-.204c-1.224 0-2.125-.272-2.686-.85q-.867-.867-.867-2.907v-.986c0-.799.068-1.428.204-1.87q.204-.663.663-1.122c.595-.595 1.53-.901 2.805-.901h.17c1.02 0 1.904.187 2.618.561.204.119.323.255.323.425 0 .102-.05.272-.136.51l-.323.816q-.128.306-.357.306a.7.7 0 0 1-.306-.085c-.544-.221-1.054-.34-1.513-.34h-.068c-.442 0-.765.119-.969.323-.255.255-.374.782-.374 1.564v.578c0 .697.102 1.173.34 1.428.221.238.595.357 1.105.357m-2.09-8.534 2.668-2.278a.48.48 0 0 1 .323-.153c.12 0 .238.085.34.221l.816 1.054a.5.5 0 0 1 .102.289c0 .136-.102.272-.272.408l-2.686 1.836a.6.6 0 0 1-.34.119c-.136 0-.272-.068-.408-.238l-.51-.595c-.136-.153-.187-.289-.187-.391s.051-.204.153-.272M3.586 30.815v2.176c0 .391.068.663.238.816.136.153.391.221.765.221h.153c.391 0 .663-.102.833-.34q.204-.306.204-1.479v-.731c0-.85-.085-1.377-.221-1.547-.153-.17-.442-.272-.85-.272h-.068c-.391 0-.663.085-.833.255-.153.153-.221.459-.221.901m0-2.839h.034q.74-.459 1.938-.459h.153c1.02 0 1.768.306 2.227.918.374.527.578 1.462.578 2.805v1.224c0 1.36-.289 2.312-.867 2.839-.612.578-1.581.85-2.907.85h-.34c-1.394 0-2.346-.272-2.856-.833-.459-.493-.68-1.292-.68-2.414v-7.922c0-.17.034-.289.119-.374.068-.068.221-.119.442-.119h1.581c.204 0 .357.051.442.119a.5.5 0 0 1 .136.374zm10.44 5.984h.187c.578 0 1.19-.068 1.802-.221.17-.034.272-.051.323-.051.17 0 .272.102.306.289l.136.85c.034.238.068.391.068.459 0 .204-.153.357-.442.459a7.8 7.8 0 0 1-2.567.408h-.323q-2.091 0-2.958-.867a2.44 2.44 0 0 1-.68-1.156c-.119-.442-.17-1.037-.17-1.768v-.952c0-1.479.34-2.516 1.02-3.128.578-.51 1.462-.765 2.67-.765h.237c1.19 0 2.057.289 2.567.85.544.612.816 1.615.816 3.043v.884c0 .323-.17.476-.493.476h-4.08v.136c0 .408.102.68.34.833.221.153.63.221 1.241.221m-1.58-2.958h1.87c.135 0 .203-.068.203-.221v-.272c0-.34-.068-.595-.17-.782-.136-.204-.408-.306-.782-.306h-.153c-.34 0-.578.085-.714.238q-.255.306-.255.918zm8.789-1.173h-2.703c-.17 0-.29-.017-.357-.085-.068-.068-.085-.204-.085-.408v-1.173c0-.204.017-.323.085-.391q.102-.102.357-.102h5.746c.17 0 .289.034.374.102.068.068.119.204.119.391v.323c0 .442-.136.85-.374 1.207l-2.924 4.148h2.907c.17 0 .272.034.34.102s.102.187.102.391v1.173q0 .306-.102.408c-.068.068-.17.085-.34.085h-5.848c-.357 0-.527-.153-.527-.493v-.391c0-.442.119-.833.374-1.207zm10.883 1.343v1.326c0 .663.102 1.088.306 1.292.153.17.391.238.714.238h.068c.306 0 .544-.068.714-.238.204-.204.306-.629.306-1.292v-1.326c0-.646-.102-1.088-.306-1.292-.17-.153-.408-.238-.714-.238h-.068c-.323 0-.56.085-.714.238-.204.204-.306.646-.306 1.292m4.845.102v1.105c0 .85-.085 1.496-.255 1.972s-.442.85-.816 1.139c-.56.442-1.428.663-2.618.663h-.204c-1.19 0-2.074-.221-2.618-.663a2.43 2.43 0 0 1-.816-1.139c-.17-.476-.255-1.122-.255-1.972v-1.088c0-.833.085-1.479.255-1.955s.442-.85.816-1.156c.544-.442 1.428-.663 2.618-.663h.204c1.19 0 2.057.221 2.618.663.374.306.646.68.816 1.139.17.476.255 1.122.255 1.955m5.213 3.944h-.46c-2.413 0-3.603-1.088-3.603-3.281v-1.139c0-1.122.289-1.938.884-2.482.578-.527 1.479-.799 2.669-.799h.238c.22-1.224 1.122-1.853 2.72-1.853h.833c.17 0 .272.034.34.085.05.068.085.187.085.357v.935c0 .17-.034.272-.102.323-.068.068-.187.085-.34.085h-.8c-.373 0-.628.085-.781.255 1.275.34 1.92 1.377 1.92 3.094v1.139c0 1.224-.34 2.04-1.002 2.482.442.238.782.544 1.037.918s.39.782.39 1.207v.119c0 1.683-1.342 2.516-3.994 2.516h-.323a9.2 9.2 0 0 1-3.332-.612c-.306-.102-.425-.323-.34-.646l.306-1.088c.085-.323.289-.442.612-.34 1.003.34 1.887.493 2.669.493h.238q1.479 0 1.479-.867v-.051c0-.323-.17-.612-.51-.884-.272.034-.561.034-.833.034m-.29-2.125h.12c.374 0 .629-.068.799-.238.187-.187.289-.578.289-1.156v-.663c0-.578-.102-.952-.29-1.156-.17-.153-.424-.238-.798-.238h-.12c-.373 0-.645.085-.798.238-.204.204-.29.578-.29 1.156v.663c0 .578.086.969.29 1.156.153.17.425.238.799.238m7.557-4.505h.05c.375-.612 1.004-.918 1.905-.918h.68c.17 0 .306.034.374.102s.119.187.119.374v1.241c0 .187-.034.306-.102.374q-.102.102-.357.102h-.51c-.63 0-1.054.119-1.292.357-.204.204-.29.595-.29 1.173v4.114c0 .17-.05.306-.135.374-.085.085-.238.119-.442.119H47.88c-.221 0-.374-.034-.46-.119-.084-.068-.118-.204-.118-.374v-7.361c0-.17.034-.289.119-.357s.238-.119.459-.119h.816c.187 0 .323.034.408.085q.127.102.204.306zm8.78 6.715h-.034c-.374.578-1.122.85-2.227.85h-.255c-.867 0-1.547-.221-2.023-.663-.493-.442-.73-1.105-.73-1.955v-.187c0-.918.254-1.581.781-1.955s1.377-.561 2.567-.561h.12c.441 0 .85.034 1.19.068v-.357c0-.357-.103-.612-.29-.748-.204-.119-.544-.187-1.02-.187-.578 0-1.224.102-1.972.289-.204.051-.357.051-.425 0-.085-.051-.136-.153-.153-.323l-.136-.901c-.034-.153-.034-.272-.034-.34 0-.204.136-.357.408-.442a11 11 0 0 1 2.907-.374c1.31 0 2.244.289 2.788.833.425.442.646 1.156.646 2.125v5.049c0 .17-.05.306-.136.374-.085.068-.238.102-.442.102h-.799c-.204 0-.34-.017-.425-.068s-.153-.153-.204-.323zm-.612-2.176v-.476a5 5 0 0 0-.816-.051h-.187q-.612 0-.867.153c-.17.102-.238.306-.238.612v.068c0 .306.068.51.238.612.153.119.391.17.714.17h.12c.34 0 .594-.085.798-.255.153-.136.238-.425.238-.833m8.82-5.61h.136c.986 0 1.717.238 2.16.697.407.442.628 1.19.628 2.244v5.049c0 .17-.05.306-.136.374-.085.085-.238.119-.442.119h-1.564c-.22 0-.374-.034-.459-.119-.085-.068-.119-.204-.119-.374v-4.811c0-.374-.068-.646-.187-.782-.136-.136-.39-.221-.748-.221H65.6c-.374 0-.612.085-.748.221s-.187.408-.187.782v4.811c0 .17-.05.306-.136.374-.085.085-.238.119-.442.119h-1.564c-.22 0-.374-.034-.459-.119-.085-.068-.119-.204-.119-.374v-7.361c0-.17.034-.289.12-.357.084-.068.237-.119.458-.119h.8c.203 0 .34.034.424.085q.127.076.204.306l.102.323h.051c.544-.578 1.31-.867 2.33-.867m7.297.646v7.344c0 .17-.05.306-.136.374-.085.085-.238.119-.442.119h-1.564c-.22 0-.374-.034-.459-.119-.085-.068-.119-.204-.119-.374v-7.344c0-.17.034-.289.12-.374.084-.068.237-.119.458-.119h1.564c.204 0 .357.051.442.119a.5.5 0 0 1 .136.374m-1.258-1.139h-.204c-.918 0-1.377-.459-1.377-1.411v-.085c0-.935.46-1.411 1.377-1.411h.204c.918 0 1.377.476 1.377 1.411v.085c0 .952-.459 1.411-1.377 1.411m6.93 6.936h.136c.459 0 .952-.068 1.479-.221.17-.034.272-.051.323-.051.17 0 .272.102.306.289l.153.867c.034.238.068.391.068.459 0 .204-.153.357-.442.459-.748.272-1.564.391-2.448.391h-.204c-1.224 0-2.125-.272-2.686-.85q-.867-.867-.867-2.907v-.986c0-.799.068-1.428.204-1.87q.204-.663.663-1.122c.595-.595 1.53-.901 2.805-.901h.17c1.02 0 1.904.187 2.618.561.204.119.323.255.323.425 0 .102-.051.272-.136.51l-.323.816q-.127.306-.357.306a.7.7 0 0 1-.306-.085c-.544-.221-1.054-.34-1.513-.34h-.068c-.442 0-.765.119-.969.323-.255.255-.374.782-.374 1.564v.578c0 .697.102 1.173.34 1.428.221.238.595.357 1.105.357m6.58-4.131H83.28c-.17 0-.29-.017-.357-.085-.068-.068-.085-.204-.085-.408v-1.173c0-.204.017-.323.085-.391q.102-.102.357-.102h5.746c.17 0 .289.034.374.102.068.068.119.204.119.391v.323c0 .442-.136.85-.374 1.207l-2.924 4.148h2.907c.17 0 .272.034.34.102s.102.187.102.391v1.173q0 .306-.102.408c-.068.068-.17.085-.34.085h-5.848c-.357 0-.527-.153-.527-.493v-.391c0-.442.119-.833.374-1.207zm8.78 4.131h.187c.578 0 1.19-.068 1.802-.221.17-.034.272-.051.323-.051.17 0 .272.102.306.289l.136.85c.034.238.068.391.068.459 0 .204-.153.357-.442.459a7.8 7.8 0 0 1-2.567.408h-.323q-2.091 0-2.958-.867a2.44 2.44 0 0 1-.68-1.156c-.12-.442-.17-1.037-.17-1.768v-.952c0-1.479.34-2.516 1.02-3.128.578-.51 1.462-.765 2.669-.765h.238c1.19 0 2.057.289 2.567.85.544.612.816 1.615.816 3.043v.884c0 .323-.17.476-.493.476h-4.08v.136c0 .408.102.68.34.833.22.153.629.221 1.24.221m-1.581-2.958h1.87c.136 0 .204-.068.204-.221v-.272c0-.34-.068-.595-.17-.782-.136-.204-.408-.306-.782-.306h-.153c-.34 0-.578.085-.714.238q-.255.306-.255.918zm10.506-3.485h.136c.986 0 1.717.238 2.159.697.408.442.629 1.19.629 2.244v5.049c0 .17-.051.306-.136.374-.085.085-.238.119-.442.119h-1.564c-.221 0-.374-.034-.459-.119-.085-.068-.119-.204-.119-.374v-4.811c0-.374-.068-.646-.187-.782-.136-.136-.391-.221-.748-.221h-.102c-.374 0-.612.085-.748.221s-.187.408-.187.782v4.811c0 .17-.051.306-.136.374-.085.085-.238.119-.442.119h-1.564c-.22 0-.374-.034-.459-.119-.085-.068-.119-.204-.119-.374v-7.361c0-.17.034-.289.12-.357.084-.068.237-.119.458-.119h.799c.204 0 .34.034.425.085q.127.076.204.306l.102.323h.051c.544-.578 1.309-.867 2.329-.867m-2.397-2.091 2.669-2.278a.48.48 0 0 1 .323-.153c.119 0 .238.085.34.221l.816 1.054a.5.5 0 0 1 .102.289c0 .136-.102.272-.272.408l-2.686 1.836c-.136.085-.238.119-.34.119-.136 0-.272-.068-.408-.238l-.51-.595c-.136-.153-.187-.289-.187-.391s.051-.204.153-.272"/></svg>