<svg xmlns="http://www.w3.org/2000/svg" fill="none" viewBox="0 0 117 40"><path fill="#fff" d="M4.233 7.33c-.204.017-.289.119-.289.289v5.644c0 .238.085.374.272.374.136.017.391.017.765.017h.085c.663 0 1.156-.153 1.496-.493.425-.425.646-1.207.646-2.363v-.697c0-1.156-.204-1.921-.578-2.329-.306-.306-.833-.476-1.581-.476h-.085c-.238 0-.493.017-.731.034M4.437 16H4.08c-1.173 0-1.955-.017-2.346-.068-.442-.034-.646-.255-.646-.663V5.987q0-.485.153-.663c.102-.119.306-.204.612-.238a31 31 0 0 1 2.669-.119h.238c1.938 0 3.332.408 4.165 1.19.782.782 1.19 2.057 1.19 3.791v.986c0 1.785-.408 3.06-1.207 3.825C8.041 15.592 6.545 16 4.437 16m12.167-.697h-.034c-.374.578-1.122.85-2.227.85h-.255c-.867 0-1.547-.221-2.023-.663-.493-.442-.73-1.105-.73-1.955v-.187c0-.918.254-1.581.781-1.955s1.377-.561 2.567-.561h.12c.441 0 .85.034 1.19.068v-.357c0-.357-.103-.612-.29-.748-.204-.119-.544-.187-1.02-.187-.578 0-1.224.102-1.972.289-.204.051-.357.051-.425 0-.085-.051-.136-.153-.153-.323l-.136-.901c-.034-.153-.034-.272-.034-.34 0-.204.136-.357.408-.442a11 11 0 0 1 2.907-.374c1.31 0 2.244.289 2.788.833.425.442.646 1.156.646 2.125v5.049c0 .17-.05.306-.136.374-.085.068-.238.102-.442.102h-.799c-.204 0-.34-.017-.425-.068s-.153-.153-.204-.323zm-.612-2.176v-.476a5 5 0 0 0-.816-.051h-.187q-.612 0-.867.153c-.17.102-.238.306-.238.612v.068c0 .306.068.51.238.612.153.119.391.17.714.17h.12c.34 0 .594-.085.798-.255.153-.136.238-.425.238-.833m4.026 5.899h-.986c-.17 0-.306-.034-.374-.119-.068-.068-.102-.221-.102-.425v-1.19c0-.17.034-.306.102-.374s.204-.119.374-.119h.425c.306 0 .544-.068.697-.238.136-.136.204-.493.204-1.054V8.163c0-.17.034-.289.119-.374.085-.068.238-.119.459-.119H22.5c.204 0 .357.051.442.119a.5.5 0 0 1 .136.374v7.531c0 1.224-.221 2.074-.663 2.567q-.688.765-2.397.765M21.82 7.024h-.204c-.918 0-1.377-.459-1.377-1.411v-.085c0-.935.459-1.411 1.377-1.411h.204c.918 0 1.377.476 1.377 1.411v.085c0 .952-.459 1.411-1.377 1.411M3.332 31.172v1.326c0 .663.102 1.088.306 1.292.153.17.391.238.714.238h.068c.306 0 .544-.068.714-.238.204-.204.306-.629.306-1.292v-1.326c0-.646-.102-1.088-.306-1.292-.17-.153-.408-.238-.714-.238h-.068c-.323 0-.561.085-.714.238-.204.204-.306.646-.306 1.292m4.845.102v1.105c0 .85-.085 1.496-.255 1.972s-.442.85-.816 1.139c-.561.442-1.428.663-2.618.663h-.204c-1.19 0-2.074-.221-2.618-.663a2.43 2.43 0 0 1-.816-1.139c-.17-.476-.255-1.122-.255-1.972v-1.088c0-.833.085-1.479.255-1.955s.442-.85.816-1.156c.544-.442 1.428-.663 2.618-.663h.204c1.19 0 2.057.221 2.618.663.374.306.646.68.816 1.139.17.476.255 1.122.255 1.955m1.235-.867v-.221c0-.833.22-1.462.663-1.904.51-.51 1.377-.765 2.584-.765h.17c.952 0 1.785.102 2.482.306q.203.077.255.153c.034.068.05.153.034.289l-.187 1.394c-.034.221-.187.289-.46.221-.68-.153-1.291-.238-1.801-.238h-.017c-.374 0-.646.034-.782.102-.153.068-.221.187-.221.357v.051c0 .17.05.289.187.357.136.068.39.153.782.221l.799.17c.73.17 1.258.425 1.564.765s.459.867.459 1.564v.255c0 1.785-1.122 2.669-3.332 2.669h-.17c-1.122 0-2.057-.153-2.84-.459-.152-.051-.254-.119-.288-.204-.034-.068-.034-.204 0-.391l.238-1.122c.05-.323.238-.425.578-.323.782.272 1.462.391 2.04.391h.05c.375 0 .63-.034.783-.119.136-.068.22-.204.22-.391v-.051a.36.36 0 0 0-.186-.323q-.204-.102-.816-.255l-.748-.17q-1.122-.255-1.581-.765c-.306-.34-.46-.85-.46-1.564m10.695-.578h-2.703c-.17 0-.29-.017-.357-.085-.068-.068-.085-.204-.085-.408v-1.173c0-.204.017-.323.085-.391q.102-.102.357-.102h5.746c.17 0 .289.034.374.102.068.068.119.204.119.391v.323c0 .442-.136.85-.374 1.207l-2.924 4.148h2.907c.17 0 .272.034.34.102s.102.187.102.391v1.173q0 .306-.102.408c-.068.068-.17.085-.34.085h-5.848c-.357 0-.527-.153-.527-.493v-.391c0-.442.119-.833.374-1.207zm8.643 4.131h.136c.459 0 .952-.068 1.479-.221.17-.034.272-.051.323-.051.17 0 .272.102.306.289l.153.867c.034.238.068.391.068.459 0 .204-.153.357-.442.459-.748.272-1.564.391-2.448.391h-.204c-1.224 0-2.125-.272-2.686-.85q-.867-.867-.867-2.907v-.986c0-.799.068-1.428.204-1.87q.204-.663.663-1.122c.595-.595 1.53-.901 2.805-.901h.17c1.02 0 1.904.187 2.618.561.204.119.323.255.323.425 0 .102-.051.272-.136.51l-.323.816q-.128.306-.357.306a.7.7 0 0 1-.306-.085c-.544-.221-1.054-.34-1.513-.34h-.068c-.442 0-.765.119-.97.323-.254.255-.373.782-.373 1.564v.578c0 .697.102 1.173.34 1.428.22.238.595.357 1.105.357m6.58-4.131h-2.703c-.17 0-.289-.017-.357-.085s-.085-.204-.085-.408v-1.173c0-.204.017-.323.085-.391q.102-.102.357-.102h5.746c.17 0 .29.034.374.102.068.068.12.204.12.391v.323c0 .442-.137.85-.375 1.207l-2.924 4.148h2.907c.17 0 .272.034.34.102s.102.187.102.391v1.173q0 .306-.102.408c-.068.068-.17.085-.34.085h-5.848c-.357 0-.527-.153-.527-.493v-.391c0-.442.12-.833.374-1.207zm8.78 4.131h.186c.578 0 1.19-.068 1.802-.221.17-.034.272-.051.323-.051.17 0 .272.102.306.289l.136.85c.034.238.068.391.068.459 0 .204-.153.357-.442.459-.442.17-.799.442-1.088.816s-.425.748-.425 1.088v.051c0 .323.153.476.46.476h.084c.187 0 .425-.034.697-.136.085-.017.153-.034.204-.034.085 0 .153.085.204.221l.085.357c.051.238.085.357.085.391 0 .102-.085.187-.238.255q-.662.255-1.377.255h-.102c-.595 0-1.037-.119-1.343-.374s-.459-.612-.459-1.088v-.051c0-.306.102-.646.323-.986s.51-.612.884-.85c-.136.017-.323.017-.56.017h-.324q-2.091 0-2.958-.867a2.44 2.44 0 0 1-.68-1.156c-.119-.442-.17-1.037-.17-1.768v-.952c0-1.479.34-2.516 1.02-3.128.578-.51 1.462-.765 2.67-.765h.237c1.19 0 2.057.289 2.567.85.544.612.816 1.615.816 3.043v.884c0 .323-.17.476-.493.476h-4.08v.136c0 .408.102.68.34.833.221.153.63.221 1.241.221m-1.582-2.958h1.87c.136 0 .204-.068.204-.221v-.272c0-.34-.068-.595-.17-.782-.136-.204-.408-.306-.782-.306h-.153c-.34 0-.578.085-.714.238q-.255.306-.255.918zm10.677 1.989v-2.159c0-.425-.068-.731-.204-.901-.153-.17-.425-.272-.8-.272h-.17c-.373 0-.628.102-.781.289-.17.187-.238.714-.238 1.598v.748c0 .816.085 1.326.255 1.496.136.17.39.238.782.238h.187c.323 0 .56-.068.73-.221.154-.153.239-.425.239-.816m-.034-5.168h.034v-2.839c0-.17.034-.289.119-.374.085-.068.238-.119.459-.119h1.58c.205 0 .358.051.443.119a.58.58 0 0 1 .119.374v7.735c0 1.19-.221 2.006-.663 2.482-.323.34-.714.595-1.173.731-.476.153-1.105.221-1.904.221h-.29c-1.257 0-2.158-.255-2.736-.765-.595-.51-.884-1.462-.884-2.873v-1.36c0-1.36.272-2.312.85-2.856.544-.51 1.292-.782 2.26-.782h.205q.97 0 1.58.306m8.862-.306h.136c.986 0 1.717.238 2.159.697.408.442.629 1.19.629 2.244v5.049c0 .17-.051.306-.136.374-.085.085-.238.119-.442.119h-1.564c-.221 0-.374-.034-.46-.119-.084-.068-.118-.204-.118-.374v-4.811c0-.374-.068-.646-.187-.782-.136-.136-.391-.221-.748-.221H61.2c-.374 0-.612.085-.748.221s-.187.408-.187.782v4.811c0 .17-.051.306-.136.374-.085.085-.238.119-.442.119h-1.564c-.221 0-.374-.034-.46-.119-.084-.068-.118-.204-.118-.374v-7.361c0-.17.034-.289.119-.357s.238-.119.459-.119h.799c.204 0 .34.034.425.085q.127.076.204.306l.102.323h.05c.545-.578 1.31-.867 2.33-.867m7.008 3.655v1.326c0 .663.102 1.088.306 1.292.153.17.391.238.714.238h.068c.306 0 .544-.068.714-.238.204-.204.306-.629.306-1.292v-1.326c0-.646-.102-1.088-.306-1.292-.17-.153-.408-.238-.714-.238h-.068c-.323 0-.561.085-.714.238-.204.204-.306.646-.306 1.292m4.845.102v1.105c0 .85-.085 1.496-.255 1.972s-.442.85-.816 1.139c-.561.442-1.428.663-2.618.663h-.204c-1.19 0-2.074-.221-2.618-.663a2.43 2.43 0 0 1-.816-1.139c-.17-.476-.255-1.122-.255-1.972v-1.088c0-.833.085-1.479.255-1.955s.442-.85.816-1.156c.544-.442 1.428-.663 2.618-.663h.204c1.19 0 2.057.221 2.618.663.374.306.646.68.816 1.139.17.476.255 1.122.255 1.955m1.235-.867v-.221c0-.833.22-1.462.663-1.904.51-.51 1.377-.765 2.584-.765h.17c.952 0 1.785.102 2.482.306q.203.077.255.153a.5.5 0 0 1 .034.289l-.187 1.394c-.034.221-.187.289-.46.221-.68-.153-1.291-.238-1.801-.238h-.017c-.374 0-.646.034-.782.102-.153.068-.221.187-.221.357v.051c0 .17.05.289.187.357.136.068.39.153.782.221l.799.17c.73.17 1.258.425 1.564.765s.459.867.459 1.564v.255c0 1.785-1.122 2.669-3.332 2.669h-.17c-1.122 0-2.057-.153-2.84-.459-.152-.051-.254-.119-.288-.204-.034-.068-.034-.204 0-.391l.238-1.122c.05-.323.238-.425.578-.323.782.272 1.462.391 2.04.391h.05c.375 0 .63-.034.783-.119.136-.068.22-.204.22-.391v-.051a.36.36 0 0 0-.186-.323q-.204-.102-.816-.255l-.748-.17q-1.122-.255-1.581-.765c-.306-.34-.46-.85-.46-1.564m1.58-4.981 2.67-2.278a.48.48 0 0 1 .323-.153c.119 0 .238.085.34.221l.816 1.054a.5.5 0 0 1 .102.289c0 .136-.102.272-.272.408l-2.686 1.836c-.136.085-.238.119-.34.119-.136 0-.272-.068-.408-.238l-.51-.595c-.136-.153-.187-.289-.187-.391s.05-.204.153-.272m10.254 8.534h.136c.459 0 .952-.068 1.479-.221.17-.034.272-.051.323-.051.17 0 .272.102.306.289l.153.867c.034.238.068.391.068.459 0 .204-.153.357-.442.459-.748.272-1.564.391-2.448.391h-.204c-1.224 0-2.125-.272-2.686-.85q-.867-.867-.867-2.907v-.986c0-.799.068-1.428.204-1.87q.204-.663.663-1.122c.595-.595 1.53-.901 2.805-.901h.17c1.02 0 1.904.187 2.618.561.204.119.323.255.323.425 0 .102-.051.272-.136.51l-.323.816q-.127.306-.357.306a.7.7 0 0 1-.306-.085c-.544-.221-1.054-.34-1.513-.34h-.068c-.442 0-.765.119-.97.323-.254.255-.373.782-.373 1.564v.578c0 .697.102 1.173.34 1.428.22.238.595.357 1.105.357m6.564-5.797v7.344c0 .17-.052.306-.137.374-.085.085-.238.119-.442.119h-1.564c-.22 0-.374-.034-.459-.119-.085-.068-.118-.204-.118-.374v-7.344c0-.17.033-.289.118-.374.085-.068.239-.119.46-.119h1.564c.203 0 .356.051.441.119a.5.5 0 0 1 .136.374m-1.259-1.139h-.204c-.918 0-1.376-.459-1.376-1.411v-.085c0-.935.458-1.411 1.376-1.411h.204c.918 0 1.377.476 1.377 1.411v.085c0 .952-.459 1.411-1.377 1.411m5.485 4.148v1.326c0 .663.102 1.088.306 1.292.153.17.391.238.714.238h.068c.306 0 .544-.068.714-.238.204-.204.306-.629.306-1.292v-1.326c0-.646-.102-1.088-.306-1.292-.17-.153-.408-.238-.714-.238h-.068c-.323 0-.56.085-.714.238-.204.204-.306.646-.306 1.292m4.845.102v1.105c0 .85-.085 1.496-.255 1.972s-.442.85-.816 1.139c-.561.442-1.428.663-2.618.663h-.204c-1.19 0-2.074-.221-2.618-.663a2.43 2.43 0 0 1-.816-1.139c-.17-.476-.255-1.122-.255-1.972v-1.088c0-.833.085-1.479.255-1.955s.442-.85.816-1.156c.544-.442 1.428-.663 2.618-.663h.204c1.19 0 2.057.221 2.618.663.374.306.646.68.816 1.139.17.476.255 1.122.255 1.955m8.8-.578v4.811c0 .17-.051.306-.136.374-.085.085-.238.119-.442.119h-1.564c-.221 0-.374-.034-.459-.119-.085-.068-.119-.204-.119-.374v-4.811c0-.374-.068-.646-.187-.782-.136-.136-.391-.221-.748-.221h-.034c-.374 0-.612.085-.748.221s-.187.408-.187.782v4.811c0 .17-.051.306-.136.374-.085.085-.238.119-.442.119h-1.564c-.221 0-.374-.034-.459-.119-.085-.068-.119-.204-.119-.374v-7.361c0-.17.034-.289.119-.357s.238-.119.459-.119h.799c.204 0 .34.034.425.085q.128.076.204.306l.102.323h.051c.544-.578 1.309-.867 2.329-.867h.068c.969 0 1.717.272 2.244.782.544-.51 1.326-.782 2.312-.782h.068c.986 0 1.717.238 2.159.697.408.442.629 1.19.629 2.244v5.049c0 .17-.051.306-.136.374-.085.085-.238.119-.442.119h-1.564c-.221 0-.374-.034-.459-.119-.085-.068-.119-.204-.119-.374v-4.811c0-.374-.068-.646-.187-.782-.136-.136-.391-.221-.748-.221h-.034c-.374 0-.612.085-.748.221s-.187.408-.187.782"/></svg>