<svg xmlns="http://www.w3.org/2000/svg" fill="none" viewBox="0 0 104 35"><path fill="#fff" d="M6.005 7.629v-.53c0-1.162-.143-1.878-.401-2.15q-.345-.345-.946-.345h-.2q-.602 0-.947.344c-.272.273-.4.99-.4 2.15v.53c0 1.176.128 1.892.4 2.15q.345.345.946.344h.201q.602 0 .946-.344c.258-.258.401-.974.401-2.15m2.451-.817v1.103c0 1.734-.401 2.91-1.204 3.54-.573.459-1.462.674-2.637.674H4.5c-1.19 0-2.063-.215-2.637-.674C1.061 10.825.66 9.65.66 7.915V6.812c0-1.72.402-2.91 1.204-3.54.574-.445 1.448-.674 2.637-.674h.115c1.175 0 2.064.23 2.637.674.803.63 1.204 1.82 1.204 3.54m5.985 3.84v.818c0 .215-.043.358-.1.43-.058.071-.187.1-.359.1h-1.146c-1.032 0-1.72-.172-2.036-.53-.286-.301-.415-.875-.415-1.735V6.77H9.61c-.144 0-.23-.015-.287-.072s-.072-.143-.072-.287v-.73c0-.173.015-.287.072-.345.043-.057.143-.1.301-.143l.76-.186V3.6c0-.143.028-.243.1-.315.072-.057.2-.1.387-.1h1.319c.172 0 .3.043.372.1a.42.42 0 0 1 .115.315v1.376h1.19c.143 0 .229.029.286.086s.086.158.086.33v.96q0 .258-.086.344c-.057.057-.143.072-.287.072h-1.19v2.708c0 .258.03.416.116.502.086.1.272.143.559.143h.63c.172 0 .301.043.358.115.058.072.1.215.1.416m4.754-5.33h1.232c.2 0 .344.028.416.085.071.057.129.172.157.344 0 .057.258 1.333.76 3.812h.043c.258-1.504.487-2.895.674-4.185.014-.157.057-.258.114-.315q.087-.086.301-.086h1.462c.158 0 .258.043.316.1.042.072.057.187.028.33a142 142 0 0 1-.831 3.698c-.316 1.347-.545 2.193-.688 2.551-.057.143-.13.244-.2.287-.072.043-.187.057-.33.057h-1.577c-.301 0-.487-.1-.545-.33-.272-.974-.501-2.207-.702-3.697h-.057a39 39 0 0 1-.717 3.697c-.057.23-.23.33-.516.33h-1.548c-.286 0-.473-.1-.544-.315-.144-.387-.387-1.276-.731-2.652a67 67 0 0 1-.803-3.626c-.043-.158-.029-.272.029-.33.057-.057.172-.1.344-.1h1.404c.144 0 .258.029.33.086.057.057.1.172.129.315.2 1.333.43 2.724.702 4.185h.057c.345-1.777.588-3.052.703-3.812.029-.186.072-.301.143-.358.072-.043.215-.072.445-.072m8.43 2.608v1.118c0 .558.086.917.258 1.089.13.143.33.2.602.2h.057c.258 0 .459-.057.602-.2.172-.172.258-.53.258-1.09V7.93c0-.545-.086-.918-.258-1.09-.143-.129-.344-.2-.602-.2h-.057c-.272 0-.473.071-.602.2-.172.172-.258.545-.258 1.09m4.085.086v.931c0 .717-.072 1.261-.215 1.663a2.05 2.05 0 0 1-.688.96c-.473.373-1.204.559-2.207.559h-.172c-1.004 0-1.749-.186-2.207-.559a2.05 2.05 0 0 1-.688-.96c-.144-.402-.215-.946-.215-1.663V8.03c0-.702.071-1.247.215-1.648.143-.402.372-.717.688-.975.458-.373 1.203-.559 2.207-.559h.172c1.003 0 1.734.186 2.207.559.315.258.545.573.688.96.143.402.215.946.215 1.649m-4.372-4.93 2.25-1.921a.4.4 0 0 1 .273-.13c.1 0 .2.072.287.187l.688.889a.42.42 0 0 1 .086.243c0 .115-.086.23-.23.344l-2.264 1.548c-.1.072-.2.1-.287.1-.115 0-.23-.057-.344-.2l-.43-.502c-.115-.129-.158-.244-.158-.33 0-.085.043-.171.13-.229m7.405 2.665h.043c.315-.516.846-.774 1.605-.774h.574c.143 0 .257.029.315.086s.1.158.1.315v1.047c0 .157-.029.258-.086.315q-.086.086-.3.086h-.43c-.531 0-.89.1-1.09.301-.172.172-.244.502-.244.989v3.468c0 .144-.043.258-.114.316-.072.071-.201.1-.373.1h-1.319c-.186 0-.315-.029-.387-.1-.071-.058-.1-.172-.1-.316V5.378c0-.143.029-.243.1-.3.072-.058.201-.1.387-.1h.688c.158 0 .273.028.344.07a.6.6 0 0 1 .172.259zm5.821 1.046h-2.279c-.143 0-.243-.014-.3-.071-.058-.058-.072-.172-.072-.344v-.99c0-.171.014-.272.071-.329q.086-.086.301-.086h4.845c.143 0 .243.029.315.086.057.057.1.172.1.33v.272c0 .373-.114.717-.315 1.018l-2.465 3.497h2.45c.144 0 .23.028.287.086s.086.157.086.33v.988q0 .258-.086.344c-.057.058-.143.072-.287.072h-4.93c-.3 0-.444-.129-.444-.416v-.33c0-.372.1-.702.315-1.017zm9.39 2.423v2.364c0 .144-.042.258-.114.316-.072.071-.2.1-.373.1H48.15c-.187 0-.316-.029-.387-.1-.072-.058-.1-.172-.1-.316V2.713c0-.144.028-.244.1-.316.072-.057.2-.1.387-.1h1.318c.172 0 .301.043.373.1a.42.42 0 0 1 .115.316v4.672h.1l1.362-2.078a.66.66 0 0 1 .602-.33h1.662c.158 0 .244.057.244.172 0 .057-.043.158-.115.272l-1.648 2.466c-.13.2-.186.344-.186.43 0 .1.057.243.186.43l1.763 2.78c.057.115.086.186.086.244 0 .157-.1.229-.301.229h-1.591c-.2 0-.358-.014-.444-.072q-.129-.064-.258-.3L50.055 9.22zm6.756-1.29v1.118c0 .558.086.917.258 1.089.129.143.33.2.602.2h.057c.258 0 .459-.057.602-.2.172-.172.258-.53.258-1.09V7.93c0-.545-.086-.918-.258-1.09-.143-.129-.344-.2-.602-.2h-.057c-.272 0-.473.071-.602.2-.172.172-.258.545-.258 1.09m4.085.086v.931c0 .717-.072 1.261-.215 1.663a2.05 2.05 0 0 1-.688.96c-.473.373-1.204.559-2.207.559h-.172c-1.004 0-1.749-.186-2.208-.559a2.05 2.05 0 0 1-.688-.96c-.143-.402-.215-.946-.215-1.663V8.03c0-.702.072-1.247.215-1.648.144-.402.373-.717.688-.975.459-.373 1.204-.559 2.208-.559h.172c1.003 0 1.734.186 2.207.559.315.258.544.573.688.96.143.402.215.946.215 1.649m5.01-3.168h.115c.832 0 1.448.2 1.82.588.345.372.53 1.003.53 1.892v4.256c0 .144-.042.258-.114.316-.071.071-.2.1-.372.1h-1.319c-.186 0-.315-.029-.387-.1-.072-.058-.1-.172-.1-.316V7.528c0-.315-.058-.544-.158-.659-.115-.115-.33-.186-.63-.186h-.087c-.315 0-.515.071-.63.186s-.158.344-.158.66v4.055c0 .144-.043.258-.114.316-.072.071-.201.1-.373.1h-1.319c-.186 0-.315-.029-.387-.1-.071-.058-.1-.172-.1-.316V5.378c0-.143.029-.243.1-.3.072-.058.2-.1.387-.1h.674c.172 0 .286.028.358.07q.109.066.172.259l.086.272h.043c.459-.487 1.104-.73 1.964-.73m8.317 5.805v.817c0 .215-.043.358-.1.43-.058.071-.187.1-.359.1h-1.146c-1.032 0-1.72-.172-2.035-.53-.287-.301-.416-.875-.416-1.735V6.77h-.774c-.143 0-.23-.015-.287-.072s-.071-.143-.071-.287v-.73c0-.173.014-.287.072-.345.043-.057.143-.1.3-.143l.76-.186V3.6c0-.143.029-.243.1-.315.072-.057.201-.1.387-.1h1.319c.172 0 .3.043.373.1a.42.42 0 0 1 .114.315v1.376h1.19c.143 0 .23.029.286.086.058.057.087.158.087.33v.96q0 .258-.087.344c-.057.057-.143.072-.286.072h-1.19v2.708c0 .258.029.416.115.502.086.1.272.143.559.143h.63c.172 0 .302.043.359.115s.1.215.1.416m3.163-2.723v1.118c0 .558.086.917.258 1.089.129.143.33.2.602.2h.057c.258 0 .459-.057.602-.2.172-.172.258-.53.258-1.09V7.93c0-.545-.086-.918-.258-1.09-.143-.129-.344-.2-.602-.2h-.057c-.272 0-.473.071-.602.2-.172.172-.258.545-.258 1.09m4.085.086v.931c0 .717-.072 1.261-.215 1.663a2.05 2.05 0 0 1-.688.96c-.473.373-1.204.559-2.207.559h-.172c-1.004 0-1.749-.186-2.208-.559a2.05 2.05 0 0 1-.688-.96c-.143-.402-.215-.946-.215-1.663V8.03c0-.702.072-1.247.215-1.648.144-.402.373-.717.688-.975.459-.373 1.204-.559 2.208-.559h.172c1.003 0 1.734.186 2.207.559.315.258.544.573.688.96.143.402.215.946.215 1.649M3.024 26.629v1.834c0 .33.057.56.2.688.115.13.33.186.646.186h.129c.33 0 .559-.086.702-.286q.172-.258.172-1.247v-.616c0-.717-.072-1.161-.186-1.305-.13-.143-.373-.229-.717-.229h-.057c-.33 0-.56.072-.703.215-.129.129-.186.387-.186.76m0-2.394h.029q.623-.387 1.634-.387h.129c.86 0 1.49.258 1.877.774.316.444.488 1.233.488 2.365v1.032c0 1.146-.244 1.95-.731 2.393-.516.488-1.333.717-2.451.717h-.287c-1.175 0-1.978-.23-2.408-.702-.387-.416-.573-1.09-.573-2.035v-6.68c0-.143.029-.243.1-.315.058-.057.187-.1.373-.1h1.333c.172 0 .3.043.373.1a.42.42 0 0 1 .114.316zm9.533 6.177h-.029c-.315.488-.945.717-1.877.717h-.215c-.731 0-1.304-.186-1.706-.559-.415-.373-.616-.932-.616-1.648v-.158c0-.774.215-1.333.66-1.648.444-.315 1.16-.473 2.164-.473h.1c.373 0 .716.029 1.003.057v-.3c0-.302-.086-.517-.244-.631-.171-.1-.458-.158-.86-.158-.487 0-1.031.086-1.662.244-.172.043-.301.043-.358 0-.072-.043-.115-.13-.13-.273l-.114-.76c-.029-.128-.029-.229-.029-.286 0-.172.115-.3.344-.373a9.2 9.2 0 0 1 2.451-.315c1.104 0 1.892.244 2.35.702.36.373.545.975.545 1.792v4.257c0 .143-.043.258-.114.315s-.2.086-.373.086h-.673c-.172 0-.287-.014-.359-.057s-.129-.13-.172-.273zm-.516-1.834v-.401a4 4 0 0 0-.688-.043h-.157q-.516 0-.731.128c-.144.087-.201.258-.201.517v.057c0 .258.057.43.2.516.13.1.33.143.603.143h.1c.287 0 .502-.072.674-.215.129-.115.2-.358.2-.702m7.436-4.73h.115c.831 0 1.447.2 1.82.588.344.372.53 1.003.53 1.892v4.256c0 .144-.043.258-.114.316-.072.071-.201.1-.373.1h-1.319c-.186 0-.315-.029-.387-.1-.071-.058-.1-.172-.1-.316v-4.056c0-.315-.057-.544-.158-.659-.114-.115-.33-.186-.63-.186h-.086c-.316 0-.516.071-.63.186-.116.115-.159.344-.159.66v4.055c0 .144-.043.258-.114.316-.072.071-.2.1-.373.1h-1.318c-.187 0-.316-.029-.387-.1-.072-.058-.1-.172-.1-.316v-6.206c0-.143.028-.243.1-.3.071-.058.2-.1.387-.1h.673c.172 0 .287.028.358.07q.108.066.172.259l.087.272h.043c.458-.487 1.103-.73 1.963-.73m6.124 4.372v2.364c0 .144-.043.258-.115.316-.072.071-.2.1-.373.1h-1.318c-.187 0-.316-.029-.387-.1-.072-.058-.1-.172-.1-.316v-8.872c0-.143.028-.243.1-.315.071-.057.2-.1.387-.1h1.318c.172 0 .301.043.373.1a.42.42 0 0 1 .115.316v4.672h.1l1.361-2.078a.66.66 0 0 1 .602-.33h1.663c.158 0 .244.057.244.172 0 .057-.043.158-.115.272l-1.648 2.466c-.13.2-.186.344-.186.43 0 .1.057.243.186.43l1.763 2.78c.057.115.086.186.086.244 0 .157-.1.229-.301.229h-1.591c-.2 0-.358-.014-.445-.072q-.128-.065-.258-.3l-1.361-2.408zm6.755-1.29v1.117c0 .56.086.918.258 1.09.129.143.33.2.602.2h.057c.258 0 .459-.057.602-.2.172-.172.258-.53.258-1.09V26.93c0-.545-.086-.918-.258-1.09-.143-.129-.344-.2-.602-.2h-.057c-.272 0-.473.071-.602.2-.172.172-.258.545-.258 1.09m4.085.086v.931c0 .717-.072 1.261-.215 1.663a2.05 2.05 0 0 1-.688.96c-.473.373-1.204.559-2.207.559h-.172c-1.004 0-1.749-.186-2.208-.559a2.05 2.05 0 0 1-.688-.96c-.143-.402-.215-.946-.215-1.663v-.917c0-.702.072-1.247.215-1.648.144-.402.373-.717.688-.975.459-.373 1.204-.559 2.208-.559h.172c1.003 0 1.734.186 2.207.56.315.257.544.572.688.96.143.4.215.945.215 1.648m4.896-2.695h1.233c.2 0 .344.029.415.086s.13.172.158.344c0 .057.258 1.333.76 3.813h.043c.258-1.505.487-2.896.673-4.186.014-.157.057-.258.115-.315q.085-.086.3-.086h1.463c.157 0 .258.043.315.1.043.072.057.187.029.33-.23 1.118-.516 2.35-.832 3.698s-.544 2.193-.687 2.551c-.058.143-.13.244-.201.287s-.187.057-.33.057h-1.576c-.301 0-.488-.1-.545-.33-.272-.974-.502-2.207-.702-3.697h-.058a39 39 0 0 1-.716 3.697c-.058.23-.23.33-.516.33H39.13c-.287 0-.473-.1-.545-.315-.143-.387-.387-1.276-.73-2.652a67 67 0 0 1-.803-3.626c-.043-.158-.029-.272.028-.33.058-.057.172-.1.344-.1h1.405c.143 0 .258.029.33.086.057.057.1.172.129.315.2 1.333.43 2.724.702 4.186h.057c.344-1.778.588-3.053.702-3.813.03-.186.072-.3.144-.358.071-.043.215-.072.444-.072m9.764 4.96h.157a6.3 6.3 0 0 0 1.52-.187c.143-.029.229-.043.272-.043.143 0 .23.086.258.243l.114.717c.03.2.058.33.058.387 0 .172-.13.301-.373.387-.66.23-1.39.344-2.164.344h-.272q-1.764 0-2.494-.731a2.05 2.05 0 0 1-.574-.975c-.1-.372-.143-.874-.143-1.49v-.803c0-1.247.287-2.121.86-2.637.487-.43 1.233-.645 2.25-.645h.201c1.003 0 1.734.244 2.164.717.459.516.688 1.361.688 2.565v.745c0 .273-.143.402-.415.402h-3.44v.114c0 .345.086.574.286.703.187.129.53.186 1.047.186m-1.333-2.495h1.576c.115 0 .172-.057.172-.186v-.23c0-.286-.057-.501-.143-.659-.115-.172-.344-.258-.66-.258h-.128c-.287 0-.488.072-.602.201q-.215.258-.215.774zm10.517-.989h-2.279c-.143 0-.243-.014-.3-.071-.058-.058-.072-.172-.072-.344v-.99c0-.171.014-.272.071-.329q.087-.086.301-.086h4.845c.143 0 .243.029.315.086.057.057.1.172.1.33v.272c0 .373-.114.717-.315 1.018l-2.465 3.497h2.45c.144 0 .23.028.287.086.058.057.086.157.086.33v.988q0 .258-.086.344c-.057.058-.143.072-.286.072h-4.93c-.302 0-.445-.129-.445-.416v-.33c0-.372.1-.702.315-1.017zm8.133 4.615h-.03c-.315.488-.945.717-1.877.717h-.215c-.73 0-1.304-.186-1.705-.559-.416-.373-.617-.932-.617-1.648v-.158c0-.774.215-1.333.66-1.648.444-.315 1.16-.473 2.164-.473h.1c.373 0 .717.029 1.004.057v-.3c0-.302-.087-.517-.244-.631-.172-.1-.459-.158-.86-.158-.487 0-1.032.086-1.663.244-.172.043-.3.043-.358 0-.072-.043-.115-.13-.129-.273l-.115-.76c-.028-.128-.028-.229-.028-.286 0-.172.114-.3.344-.373a9.2 9.2 0 0 1 2.45-.315c1.104 0 1.892.244 2.351.702.358.373.545.975.545 1.792v4.257c0 .143-.043.258-.115.315s-.2.086-.373.086h-.673c-.172 0-.287-.014-.359-.057-.071-.043-.129-.13-.171-.273zm-.517-1.834v-.401a4 4 0 0 0-.687-.043h-.158q-.516 0-.731.128c-.143.087-.2.258-.2.517v.057c0 .258.057.43.2.516.129.1.33.143.602.143h.1c.287 0 .502-.072.674-.215.129-.115.2-.358.2-.702m16.245-4.432v1.625c0 1.755-.374 3.1-1.102 4.015-.747.934-1.98 1.382-3.698 1.382s-2.95-.448-3.698-1.382c-.747-.915-1.102-2.26-1.102-4.015v-1.625c0-1.756.355-3.082 1.102-4.015.747-.915 1.98-1.382 3.698-1.382s2.95.467 3.698 1.382c.728.933 1.102 2.26 1.102 4.015m-3.194 1.307v-.99c0-1.213-.112-2.054-.299-2.502s-.616-.691-1.27-.691h-.075c-.672.019-1.101.243-1.288.691s-.28 1.289-.28 2.503v.99c0 1.232.093 2.054.28 2.502s.616.69 1.288.69h.075c.654 0 1.083-.223 1.27-.672.187-.448.299-1.288.299-2.52m11.857-1.232h-2.97c-.186 0-.317-.019-.392-.094-.075-.074-.093-.224-.093-.448v-1.288c0-.225.018-.355.093-.43q.113-.112.392-.112h6.313c.186 0 .317.037.41.112.075.075.131.224.131.43v.354c0 .486-.15.934-.41 1.326l-3.213 4.557h3.194c.186 0 .299.038.373.112s.112.206.112.43v1.288q0 .337-.112.449c-.075.074-.187.093-.373.093h-6.425c-.392 0-.579-.168-.579-.542v-.43c0-.485.131-.914.411-1.325zm9.084 4.351h.597c.187 0 .336.056.411.13.075.094.131.262.131.505v1.158c0 .262-.056.43-.131.504-.075.094-.224.131-.411.131h-1.419c-.934 0-1.587-.168-1.961-.542-.373-.354-.56-.99-.56-1.886v-2.017l-.617.392c-.242.15-.41.225-.485.225-.15 0-.206-.113-.206-.337V25.1c0-.187.02-.318.094-.411a1.6 1.6 0 0 1 .355-.318l.859-.542v-4.93c0-.187.037-.317.13-.41.094-.075.262-.131.505-.131h1.718c.224 0 .392.056.485.13.094.094.15.224.15.411v3.026l.84-.542c.224-.15.392-.224.486-.224.131 0 .205.112.205.336v1.737c0 .187-.037.336-.093.41a1.6 1.6 0 0 1-.355.318l-1.083.691v3.567c0 .15.018.243.075.28.037.056.13.075.28.075"/></svg>