<svg xmlns="http://www.w3.org/2000/svg" fill="none" viewBox="0 0 100 16"><path fill="#fff" d="M3.189 6.099v6.467c0 .15-.045.27-.12.33-.075.074-.21.104-.39.104H1.303c-.194 0-.329-.03-.404-.105-.075-.06-.105-.18-.105-.33V6.1c0-.15.03-.255.105-.33.075-.06.21-.104.404-.104H2.68c.18 0 .314.045.389.104.075.075.12.18.12.33M2.08 5.096H1.9C1.093 5.096.69 4.692.69 3.853v-.075c0-.823.404-1.242 1.212-1.242h.18c.808 0 1.212.419 1.212 1.242v.075c0 .839-.404 1.243-1.212 1.243m8.345 2.47h-2.38c-.15 0-.255-.015-.315-.075s-.075-.18-.075-.36V6.1c0-.18.015-.285.075-.345q.09-.09.314-.09h5.06c.15 0 .255.03.33.09.06.06.104.18.104.345v.284c0 .39-.12.749-.329 1.063L10.635 11.1h2.56c.15 0 .24.03.3.09s.09.164.09.344v1.033q0 .27-.09.36c-.06.059-.15.074-.3.074h-5.15c-.314 0-.464-.135-.464-.434v-.344c0-.39.105-.734.33-1.063zm7.476 4.745h-.404c-2.126 0-3.174-.958-3.174-2.889V8.42c0-.988.254-1.706.778-2.186.51-.464 1.303-.703 2.35-.703h.21c.195-1.078.988-1.632 2.395-1.632h.734c.15 0 .24.03.3.075.044.06.074.165.074.314v.824c0 .15-.03.24-.09.284-.06.06-.164.075-.299.075h-.704c-.329 0-.553.075-.688.225 1.123.299 1.691 1.212 1.691 2.724v1.003c0 1.078-.299 1.797-.883 2.186.39.21.689.479.913.808s.345.689.345 1.063v.105c0 1.482-1.183 2.215-3.518 2.215h-.285a8.1 8.1 0 0 1-2.934-.538c-.27-.09-.374-.285-.3-.57l.27-.958c.075-.284.255-.389.54-.299.882.3 1.66.434 2.35.434h.209q1.302 0 1.302-.763v-.045c0-.285-.15-.539-.449-.779-.24.03-.494.03-.733.03m-.255-1.87h.105c.33 0 .554-.06.704-.21.164-.165.254-.51.254-1.018v-.584c0-.51-.09-.839-.254-1.018-.15-.135-.375-.21-.704-.21h-.105c-.33 0-.569.075-.703.21-.18.18-.255.509-.255 1.018v.584c0 .509.075.853.255 1.018.134.15.374.21.703.21m9.094 1.945h-.03c-.33.51-.988.749-1.961.749h-.224c-.764 0-1.363-.195-1.782-.584-.434-.39-.644-.973-.644-1.722v-.164c0-.809.225-1.393.689-1.722.464-.33 1.212-.494 2.26-.494h.105c.39 0 .749.03 1.048.06v-.314c0-.315-.09-.54-.254-.66-.18-.104-.48-.164-.899-.164-.509 0-1.077.09-1.736.255-.18.045-.314.045-.374 0-.075-.045-.12-.135-.135-.285l-.12-.793c-.03-.135-.03-.24-.03-.3 0-.18.12-.314.36-.389a9.7 9.7 0 0 1 2.56-.33c1.152 0 1.975.255 2.454.734.375.39.57 1.018.57 1.872v4.446c0 .15-.046.27-.12.33-.075.06-.21.089-.39.089h-.703c-.18 0-.3-.015-.375-.06-.074-.045-.134-.135-.18-.284zm-.539-1.916v-.42a4.3 4.3 0 0 0-.718-.044h-.165q-.54 0-.764.135c-.15.09-.21.27-.21.539v.06c0 .269.06.449.21.538.135.105.345.15.63.15h.104c.3 0 .524-.075.703-.224.135-.12.21-.375.21-.734m5.7-3.997h.046c.33-.539.883-.808 1.676-.808h.6c.149 0 .269.03.329.09s.105.164.105.329v1.093c0 .164-.03.27-.09.329q-.09.09-.315.09h-.449c-.554 0-.928.105-1.138.314-.18.18-.254.524-.254 1.033v3.623c0 .15-.045.27-.12.33-.075.074-.21.104-.39.104h-1.376c-.195 0-.33-.03-.404-.105-.075-.06-.105-.18-.105-.33V6.085c0-.15.03-.255.105-.315.074-.06.21-.104.404-.104h.718c.165 0 .285.03.36.074q.111.09.18.27zm7.593-.943h.12c.868 0 1.512.21 1.9.614.36.389.555 1.048.555 1.976v4.446c0 .15-.045.27-.12.33-.075.074-.21.104-.39.104h-1.376c-.195 0-.33-.03-.405-.105-.075-.06-.104-.18-.104-.33V8.33c0-.329-.06-.569-.165-.688-.12-.12-.344-.195-.659-.195h-.09c-.329 0-.539.075-.658.195-.12.12-.165.359-.165.688v4.237c0 .15-.045.27-.12.33-.075.074-.21.104-.389.104h-1.377c-.195 0-.33-.03-.404-.105-.075-.06-.105-.18-.105-.33V6.085c0-.15.03-.255.105-.315.074-.06.21-.104.404-.104h.703c.18 0 .3.03.375.074q.112.067.18.27l.09.284h.044c.48-.509 1.153-.763 2.05-.763m6.426.569v6.467c0 .15-.045.27-.12.33-.075.074-.21.104-.39.104h-1.376c-.195 0-.33-.03-.405-.105-.074-.06-.104-.18-.104-.33V6.1c0-.15.03-.255.104-.33.075-.06.21-.104.405-.104h1.377c.18 0 .314.045.39.104.074.075.119.18.119.33m-1.108-1.003h-.18c-.808 0-1.212-.404-1.212-1.243v-.075c0-.823.404-1.242 1.212-1.242h.18c.808 0 1.213.419 1.213 1.242v.075c0 .839-.405 1.243-1.213 1.243m2.39 10.569h-.869c-.15 0-.269-.03-.329-.105-.06-.06-.09-.195-.09-.374v-1.048c0-.15.03-.27.09-.33s.18-.104.33-.104h.374c.27 0 .479-.06.613-.21.12-.12.18-.434.18-.928V6.099c0-.15.03-.255.105-.33.075-.06.21-.104.404-.104h1.377c.18 0 .315.045.39.104.074.075.12.18.12.33v6.631c0 1.078-.195 1.827-.585 2.261q-.606.674-2.11.674m1.586-10.57h-.18c-.808 0-1.212-.403-1.212-1.242v-.075c0-.823.404-1.242 1.213-1.242h.18c.808 0 1.212.419 1.212 1.242v.075c0 .839-.404 1.243-1.213 1.243m9.019 5.959h.479c.15 0 .27.045.33.105.06.074.104.21.104.404v.928c0 .21-.045.344-.105.404-.06.075-.18.105-.33.105H57.15c-.748 0-1.272-.135-1.572-.434-.3-.285-.449-.794-.449-1.512V9.437l-.494.314c-.194.12-.33.18-.389.18-.12 0-.165-.09-.165-.27V8.27c0-.15.015-.254.075-.329.045-.06.135-.15.285-.254l.688-.435V3.3c0-.15.03-.254.105-.329.075-.06.21-.105.404-.105h1.377c.18 0 .315.045.39.105.074.075.12.18.12.33v2.425l.673-.435c.18-.12.314-.18.39-.18.104 0 .164.09.164.27v1.392c0 .15-.03.27-.075.33-.06.075-.15.164-.284.254l-.869.554v2.86c0 .12.015.194.06.224.03.045.105.06.225.06m6.227 1.332h-.03c-.33.51-.988.749-1.961.749h-.225c-.763 0-1.362-.195-1.781-.584-.434-.39-.644-.973-.644-1.722v-.164c0-.809.225-1.393.689-1.722.464-.33 1.212-.494 2.26-.494h.105c.39 0 .749.03 1.048.06v-.314c0-.315-.09-.54-.255-.66-.18-.104-.479-.164-.898-.164-.509 0-1.078.09-1.736.255-.18.045-.315.045-.374 0-.075-.045-.12-.135-.135-.285l-.12-.793c-.03-.15-.03-.255-.03-.3 0-.18.12-.314.36-.389a9.7 9.7 0 0 1 2.56-.33c1.152 0 1.975.255 2.454.734.375.39.57 1.018.57 1.872v4.446c0 .224-.09.36-.24.419-.375.15-.689.36-.928.629-.255.27-.375.554-.375.838v.045q0 .405.404.404h.045c.18 0 .405-.03.644-.12.075-.015.135-.03.18-.03.075 0 .135.075.18.195l.074.314c.045.21.075.315.075.345 0 .09-.075.165-.21.224a3.4 3.4 0 0 1-1.212.225h-.09c-.509 0-.913-.105-1.183-.33-.269-.224-.404-.538-.404-.928v-.075c0-.359.12-.703.375-1.032.239-.33.568-.6.958-.809zm-.539-1.916v-.42a4.3 4.3 0 0 0-.719-.044h-.164q-.54 0-.764.135c-.15.09-.21.27-.21.539v.06c0 .269.06.449.21.538.135.105.345.15.629.15h.105c.3 0 .524-.075.703-.224.135-.12.21-.375.21-.734m7.316.734h.12c.404 0 .838-.06 1.302-.195.15-.03.24-.045.285-.045.15 0 .24.09.27.255l.134.763c.03.21.06.344.06.404 0 .18-.135.315-.39.404-.658.24-1.377.345-2.155.345h-.18c-1.078 0-1.871-.24-2.365-.749q-.764-.763-.764-2.56v-.868c0-.704.06-1.257.18-1.647q.18-.583.584-.988c.524-.524 1.347-.793 2.47-.793h.15c.898 0 1.676.165 2.305.494.18.105.285.224.285.374 0 .09-.045.24-.12.45l-.285.718q-.112.27-.314.27a.6.6 0 0 1-.27-.076c-.479-.194-.928-.299-1.332-.299h-.06c-.389 0-.673.105-.853.284-.225.225-.33.69-.33 1.378v.509c0 .614.09 1.033.3 1.257.195.21.524.315.973.315m5.795-3.638h-2.38c-.15 0-.255-.015-.315-.075s-.074-.18-.074-.36V6.1c0-.18.015-.285.075-.345q.09-.09.314-.09h5.06c.15 0 .254.03.33.09.059.06.104.18.104.345v.284c0 .39-.12.749-.33 1.063L76.818 11.1h2.56c.15 0 .24.03.299.09.06.06.09.164.09.344v1.033q0 .27-.09.36c-.06.059-.15.074-.3.074h-5.15c-.314 0-.463-.135-.463-.434v-.344c0-.39.105-.734.33-1.063zm8.12-2.036h.12c.868 0 1.512.21 1.901.614.36.389.554 1.048.554 1.976v4.446c0 .15-.045.27-.12.33-.075.074-.21.104-.39.104h-1.376c-.195 0-.33-.03-.404-.105-.075-.06-.105-.18-.105-.33V8.33c0-.329-.06-.569-.165-.688-.12-.12-.344-.195-.659-.195h-.09c-.329 0-.538.075-.658.195s-.165.359-.165.688v4.237c0 .15-.045.27-.12.33-.075.074-.21.104-.389.104h-1.377c-.195 0-.33-.03-.404-.105-.075-.06-.105-.18-.105-.33V6.085c0-.15.03-.255.105-.315s.21-.104.404-.104h.703c.18 0 .3.03.375.074q.112.067.18.27l.09.284h.044c.48-.509 1.153-.763 2.051-.763m6.426.569v6.467c0 .15-.045.27-.12.33-.075.074-.21.104-.389.104h-1.377c-.195 0-.33-.03-.404-.105-.075-.06-.105-.18-.105-.33V6.1c0-.15.03-.255.105-.33.074-.06.21-.104.404-.104h1.377c.18 0 .314.045.39.104.074.075.119.18.119.33m-1.108-1.003h-.18c-.808 0-1.212-.404-1.212-1.243v-.075c0-.823.404-1.242 1.213-1.242h.18c.808 0 1.212.419 1.212 1.242v.075c0 .839-.404 1.243-1.213 1.243m6.222 6.108h.165c.509 0 1.048-.06 1.587-.195.15-.03.24-.045.284-.045.15 0 .24.09.27.255l.12.748c.03.21.06.344.06.404 0 .18-.135.315-.39.404a6.9 6.9 0 0 1-2.26.36h-.285q-1.841 0-2.605-.764a2.15 2.15 0 0 1-.598-1.018c-.105-.389-.15-.913-.15-1.557v-.838c0-1.302.3-2.216.898-2.754.509-.45 1.287-.674 2.35-.674h.21c1.048 0 1.811.254 2.26.748.48.54.719 1.423.719 2.68v.778c0 .285-.15.42-.434.42h-3.593v.12c0 .359.09.598.3.733.194.135.553.195 1.092.195m-1.392-2.605h1.647c.12 0 .18-.06.18-.195v-.24c0-.299-.06-.523-.15-.688-.12-.18-.36-.27-.689-.27h-.135c-.3 0-.509.075-.628.21q-.225.27-.225.809z"/></svg>