<svg xmlns="http://www.w3.org/2000/svg" fill="none" viewBox="0 0 107 41"><path fill="#fff" d="M5.384 11.095h.156c.624 0 1.15-.117 1.6-.351v-.274c0-1.072-.118-1.794-.332-2.165-.215-.37-.605-.565-1.19-.565h-.176q-1.463 0-1.463 1.58v.175c0 .585.098.995.332 1.229.234.254.585.37 1.073.37m-3.53 6.515c-.235-.078-.332-.215-.332-.449q0-.117.058-.35l.312-1.25c.078-.311.312-.428.663-.33.937.292 1.756.428 2.458.428h.059c.702 0 1.19-.175 1.502-.566q.468-.555.526-1.755c-.643.273-1.346.39-2.106.39h-.215c-1.385 0-2.38-.332-3.004-1.034-.624-.683-.917-1.736-.917-3.14V9.28c0-1.249.37-2.244 1.132-2.985.76-.722 1.872-1.092 3.335-1.092h.273c1.756 0 3.004.468 3.707 1.365s1.072 2.38 1.072 4.448v.468c0 1.112-.097 2.068-.292 2.887-.195.82-.449 1.482-.76 1.95a3.5 3.5 0 0 1-1.19 1.151c-.469.293-.937.488-1.405.566-.468.098-1.015.137-1.62.137h-.019c-1.131 0-2.224-.176-3.238-.566m23.112-5.696v5.52c0 .195-.059.351-.156.43-.098.097-.273.136-.507.136h-1.795c-.253 0-.429-.039-.526-.137-.098-.078-.137-.234-.137-.429v-5.52c0-.43-.078-.741-.215-.897-.156-.156-.448-.254-.858-.254h-.039c-.43 0-.702.098-.858.254s-.215.468-.215.897v5.52c0 .195-.058.351-.156.43-.097.097-.273.136-.507.136h-1.795c-.253 0-.429-.039-.526-.137-.098-.078-.137-.234-.137-.429V8.988c0-.195.04-.332.137-.41s.273-.136.526-.136h.917c.234 0 .39.039.488.097q.145.088.234.351l.117.371h.059c.624-.663 1.502-.995 2.672-.995h.078c1.112 0 1.97.312 2.575.898.624-.586 1.521-.898 2.653-.898h.078c1.131 0 1.97.273 2.477.8.468.507.722 1.365.722 2.575v5.793c0 .195-.059.351-.156.43-.098.097-.273.136-.507.136h-1.795c-.254 0-.43-.039-.527-.137-.097-.078-.136-.234-.136-.429v-5.52c0-.43-.078-.741-.215-.897-.156-.156-.448-.254-.858-.254h-.04c-.428 0-.701.098-.857.254s-.215.468-.215.897m10.316-2.907v8.427c0 .195-.059.351-.156.43-.098.097-.273.136-.508.136h-1.794c-.254 0-.43-.039-.527-.137-.097-.078-.136-.234-.136-.429V9.007c0-.195.039-.331.136-.429.098-.078.273-.136.527-.136h1.794c.234 0 .41.058.508.136.097.098.156.234.156.43m-1.444-1.306h-.234c-1.053 0-1.58-.527-1.58-1.62v-.097c0-1.073.527-1.62 1.58-1.62h.234c1.053 0 1.58.547 1.58 1.62v.097c0 1.093-.526 1.62-1.58 1.62m8.108 7.958h.214a8.6 8.6 0 0 0 2.068-.253c.195-.04.312-.059.37-.059.196 0 .313.117.352.332l.156.975c.039.273.078.449.078.527 0 .234-.176.41-.508.526-.897.313-1.892.469-2.945.469h-.37q-2.4 0-3.395-.995c-.39-.37-.644-.82-.78-1.327-.137-.507-.195-1.19-.195-2.028v-1.093c0-1.697.39-2.887 1.17-3.589.663-.585 1.678-.878 3.063-.878h.273c1.365 0 2.36.332 2.945.976.625.702.937 1.853.937 3.491v1.015c0 .37-.195.546-.566.546h-4.682v.156c0 .468.117.78.39.956.254.175.722.253 1.425.253m-1.815-3.394h2.146c.156 0 .234-.078.234-.254V11.7c0-.39-.078-.682-.195-.897-.156-.234-.468-.351-.897-.351h-.176c-.39 0-.663.098-.819.273q-.293.351-.293 1.053zm6.653-.683v-.253c0-.956.253-1.678.76-2.185.586-.585 1.58-.878 2.965-.878h.196c1.092 0 2.048.117 2.847.351q.235.088.293.176c.039.078.059.175.039.332l-.215 1.599c-.039.254-.214.332-.526.254-.78-.176-1.483-.274-2.068-.274h-.02c-.429 0-.74.04-.897.118-.175.078-.253.214-.253.41v.058c0 .195.058.331.214.41.156.077.449.175.898.253l.916.195c.84.195 1.444.488 1.795.878s.527.995.527 1.794v.293c0 2.048-1.288 3.063-3.824 3.063h-.195c-1.287 0-2.36-.176-3.257-.527-.176-.059-.293-.137-.332-.234-.039-.078-.039-.234 0-.449l.273-1.287c.059-.37.273-.488.663-.37.898.311 1.678.448 2.341.448h.059c.429 0 .722-.04.897-.137.156-.078.254-.234.254-.448v-.059a.42.42 0 0 0-.215-.37q-.234-.118-.936-.293l-.859-.195q-1.287-.293-1.814-.878c-.35-.39-.526-.975-.526-1.795m12.252-2.575v8.427c0 .195-.058.351-.156.43-.097.097-.273.136-.507.136h-1.795c-.253 0-.429-.039-.526-.137-.098-.078-.137-.234-.137-.429V9.007c0-.195.04-.331.137-.429.097-.078.273-.136.526-.136h1.795c.234 0 .41.058.507.136.098.098.156.234.156.43m-1.443-1.306h-.234c-1.054 0-1.58-.527-1.58-1.62v-.097c0-1.073.526-1.62 1.58-1.62h.234c1.053 0 1.58.547 1.58 1.62v.097c0 1.093-.527 1.62-1.58 1.62m8.107 7.958h.215a8.6 8.6 0 0 0 2.067-.253c.195-.04.313-.059.371-.059.195 0 .312.117.351.332l.156.975c.04.273.078.449.078.527 0 .234-.175.41-.507.526a2.83 2.83 0 0 0-1.248.937c-.332.429-.488.858-.488 1.248v.059c0 .37.176.546.527.546h.097c.215 0 .488-.04.8-.156.097-.02.175-.04.234-.04.098 0 .176.098.234.254l.098.41c.058.273.097.41.097.449 0 .117-.097.214-.273.292a4.4 4.4 0 0 1-1.58.293h-.117c-.683 0-1.19-.137-1.541-.43-.351-.292-.527-.701-.527-1.248v-.058c0-.351.117-.742.37-1.132a3.2 3.2 0 0 1 1.015-.975c-.156.02-.37.02-.643.02h-.371q-2.4 0-3.394-.995c-.39-.37-.644-.82-.78-1.327-.137-.507-.196-1.19-.196-2.028v-1.093c0-1.697.39-2.887 1.17-3.589.664-.585 1.678-.878 3.063-.878h.273c1.366 0 2.36.332 2.946.976.624.702.936 1.853.936 3.491v1.015c0 .37-.195.546-.565.546h-4.682v.156c0 .468.117.78.39.956.254.175.722.253 1.424.253m-1.814-3.394h2.146c.156 0 .234-.078.234-.254V11.7c0-.39-.078-.682-.195-.897-.156-.234-.468-.351-.897-.351h-.176c-.39 0-.663.098-.82.273q-.291.351-.292 1.053zm11.392 3.394h.156c.527 0 1.093-.078 1.698-.253a2.5 2.5 0 0 1 .37-.059c.195 0 .312.117.351.332l.176.995c.039.273.078.448.078.526 0 .234-.176.41-.507.527-.859.312-1.795.449-2.81.449h-.233c-1.405 0-2.439-.312-3.082-.976q-.995-.995-.995-3.335v-1.132c0-.917.078-1.638.234-2.145q.235-.762.76-1.288c.683-.683 1.756-1.034 3.22-1.034h.194c1.17 0 2.185.215 3.004.644.234.136.37.293.37.488 0 .117-.058.312-.155.585l-.37.936q-.147.351-.41.351a.8.8 0 0 1-.352-.097c-.624-.254-1.209-.39-1.736-.39h-.078c-.507 0-.877.136-1.112.37-.292.293-.429.897-.429 1.795v.663c0 .8.117 1.346.39 1.639.254.273.683.41 1.268.41m12.985-6.632c-.273 1.834-.78 3.862-1.521 6.106a41.4 41.4 0 0 1-2.75 6.359c-.137.273-.313.41-.547.41-.156 0-.331-.04-.565-.157l-.995-.429c-.351-.156-.507-.312-.507-.488 0-.078.02-.195.097-.331.663-1.346 1.053-2.126 1.132-2.34-.547-.196-.956-.625-1.268-1.327-.352-.78-.761-1.97-1.21-3.61q-.672-2.457-.995-4.213c-.039-.195-.02-.331.078-.429.098-.078.273-.136.508-.136h1.775c.214 0 .37.039.468.097.097.059.175.176.214.37.45 2.459.956 4.643 1.522 6.536h.097c.547-1.56 1.054-3.707 1.522-6.477q.03-.292.175-.41c.098-.077.254-.116.45-.116h1.794c.214 0 .37.058.448.136s.098.234.078.449M3.997 36.135h-.18c-1.048 0-1.96-.135-2.74-.42-.328-.104-.478-.299-.418-.598l.194-1.213c.03-.3.21-.404.524-.3.869.315 1.677.465 2.395.465h.075c.45 0 .779-.06.973-.195.18-.12.285-.344.285-.659v-.15c0-.299-.09-.493-.24-.613-.164-.105-.479-.21-.943-.3l-1.018-.194c-.838-.15-1.437-.45-1.766-.868-.345-.42-.51-1.003-.51-1.767v-.419c0-.838.225-1.467.674-1.916.54-.539 1.542-.808 2.98-.808h.104c1.003 0 1.857.134 2.545.389.15.06.255.15.3.24a.9.9 0 0 1-.015.433l-.255 1.093c-.06.27-.254.36-.554.255a6.8 6.8 0 0 0-1.976-.315h-.06c-.494 0-.838.06-1.018.165-.194.12-.284.314-.284.584v.135c0 .24.06.419.195.509.12.104.389.194.778.27l1.138.224c.898.18 1.512.464 1.856.823.33.36.509.988.509 1.871v.36c0 1.017-.284 1.751-.838 2.215-.554.48-1.452.704-2.71.704m6.722-6.827c.524-.509 1.272-.778 2.23-.778h.135c.928 0 1.587.27 1.99.778.36.48.54 1.288.54 2.455v1.123c0 .629-.06 1.153-.15 1.542-.105.39-.284.719-.539.973-.509.494-1.198.734-2.096.734h-.164q-.854 0-1.393-.315v2.306c0 .224-.045.374-.12.434-.09.06-.254.09-.508.09H9.506c-.255 0-.42-.03-.51-.105-.089-.06-.119-.21-.119-.42v-8.981c0-.18.03-.3.12-.375.075-.06.21-.104.404-.104h.629c.18 0 .314.03.39.06.059.044.119.134.164.254l.105.33zm.553 2.126v1.916c0 .345.06.584.21.719.135.135.36.194.674.194h.134c.345 0 .584-.09.734-.299q.18-.27.18-1.302v-.644c0-.719-.06-1.168-.18-1.332-.15-.18-.39-.27-.749-.27h-.104c-.33 0-.554.075-.704.225-.135.134-.195.404-.195.793m7.802.314v1.168c0 .584.09.958.27 1.138.134.15.344.21.628.21h.06c.27 0 .479-.06.629-.21.18-.18.27-.554.27-1.138V31.75c0-.57-.09-.959-.27-1.138-.15-.135-.36-.21-.629-.21h-.06c-.284 0-.494.075-.629.21-.18.18-.27.569-.27 1.137m4.266.09v.973c0 .749-.075 1.318-.224 1.737s-.39.748-.719 1.003c-.494.39-1.257.584-2.305.584h-.18c-1.048 0-1.826-.195-2.305-.584a2.14 2.14 0 0 1-.719-1.003c-.15-.42-.224-.988-.224-1.737v-.958c0-.733.074-1.302.224-1.721s.39-.749.719-1.018c.479-.39 1.257-.584 2.305-.584h.18c1.048 0 1.811.194 2.305.584.33.27.57.598.719 1.003.15.419.224.988.224 1.721m5.968 2.755v.853c0 .225-.045.374-.105.45-.06.074-.195.104-.374.104H27.63c-1.078 0-1.796-.18-2.126-.554-.299-.314-.434-.913-.434-1.811v-3.1h-.808c-.15 0-.24-.014-.3-.074s-.074-.15-.074-.3v-.763c0-.18.015-.3.075-.36.044-.059.15-.104.314-.149l.793-.194v-1.468c0-.15.03-.254.105-.329.075-.06.21-.105.404-.105h1.378c.18 0 .314.045.389.105.075.075.12.18.12.33v1.437h1.242c.15 0 .24.03.3.09s.09.164.09.344v1.003q0 .27-.09.359c-.06.06-.15.075-.3.075h-1.242v2.83c0 .269.03.433.12.523.09.105.284.15.583.15h.659c.18 0 .314.045.374.12s.105.224.105.434m3.558-5.494v6.467c0 .15-.045.27-.12.33-.075.074-.21.104-.39.104H30.98c-.195 0-.33-.03-.405-.105-.075-.06-.104-.18-.104-.33V29.1c0-.15.03-.255.104-.33.075-.06.21-.104.405-.104h1.377c.18 0 .314.044.39.104.074.075.119.18.119.33m-1.108-1.003h-.18c-.808 0-1.212-.404-1.212-1.243v-.075c0-.823.404-1.242 1.212-1.242h.18c.808 0 1.213.419 1.213 1.242v.075c0 .839-.405 1.243-1.213 1.243m3.108 2.44h-.808c-.15 0-.255-.015-.3-.06-.06-.045-.074-.15-.074-.314v-.734c0-.18.015-.314.06-.374.044-.06.15-.12.329-.165l.793-.194v-.644c0-.838.195-1.437.599-1.782q.63-.538 1.976-.538h.15c.599 0 1.108.06 1.557.164.15.045.254.105.3.18.029.075.044.194.029.36l-.09.942c-.03.15-.06.24-.105.27-.06.03-.164.045-.329.03-.39-.03-.659-.06-.838-.06h-.09c-.33 0-.524.045-.614.134-.105.105-.15.285-.15.524v.39h1.243c.15 0 .24.03.3.09s.09.164.09.344v1.003q0 .27-.09.359c-.06.06-.15.075-.3.075h-1.243v5.03c0 .15-.044.27-.12.33-.074.074-.209.104-.389.104h-1.377c-.194 0-.33-.03-.404-.105-.075-.06-.105-.18-.105-.33zm11.498-1.422c-.21 1.407-.6 2.964-1.168 4.685a32 32 0 0 1-2.11 4.88c-.106.21-.24.315-.42.315a.95.95 0 0 1-.434-.12l-.764-.33c-.27-.119-.389-.239-.389-.373 0-.06.015-.15.075-.255.509-1.033.808-1.632.868-1.796-.419-.15-.733-.48-.973-1.018-.27-.599-.584-1.512-.928-2.77a40 40 0 0 1-.763-3.233c-.03-.15-.015-.255.06-.33.074-.06.21-.104.389-.104h1.362c.165 0 .284.03.36.075.074.044.134.134.164.284.344 1.886.733 3.563 1.168 5.015h.075c.419-1.198.808-2.844 1.167-4.97q.022-.225.135-.315c.075-.06.194-.09.344-.09h1.377c.165 0 .285.045.345.105s.075.18.06.345m7.802-.913h-.194c-.21 0-.42.014-.659.03-.09.014-.12.074-.12.18v2.364h.779c.539 0 .898-.074 1.108-.254.18-.15.269-.434.269-.883v-.375c0-.359-.09-.628-.255-.793-.18-.18-.494-.27-.928-.27m-.973 4.625v2.71c0 .314-.18.464-.524.464h-1.467c-.194 0-.329-.03-.404-.105-.09-.06-.12-.18-.12-.36v-8.607q0-.36.135-.494c.09-.09.255-.15.524-.18.539-.045 1.377-.074 2.53-.074h.18c1.527 0 2.575.299 3.158.883.45.479.674 1.197.674 2.17v.51c0 1.122-.314 1.916-.943 2.365-.659.479-1.662.718-3.024.718zm7.67-3.353h.046c.329-.539.883-.808 1.676-.808h.6c.149 0 .269.03.328.09.06.06.105.164.105.329v1.093c0 .164-.03.27-.09.329q-.09.09-.314.09h-.449c-.554 0-.928.105-1.138.314-.18.18-.254.524-.254 1.033v3.623c0 .15-.045.27-.12.33-.075.074-.21.104-.39.104h-1.376c-.195 0-.33-.03-.405-.105-.075-.06-.105-.18-.105-.33v-6.481c0-.15.03-.255.105-.315s.21-.104.404-.104h.72c.164 0 .283.03.358.075q.113.09.18.269zm7.145 4.73h.165c.509 0 1.048-.06 1.587-.194.15-.03.24-.045.284-.045.15 0 .24.09.27.255l.12.748c.03.21.06.344.06.404 0 .18-.136.315-.39.404a6.9 6.9 0 0 1-2.26.36h-.285q-1.842 0-2.605-.764a2.15 2.15 0 0 1-.599-1.018c-.105-.389-.15-.913-.15-1.557v-.838c0-1.302.3-2.215.899-2.754.509-.45 1.287-.674 2.35-.674h.21c1.048 0 1.811.254 2.26.748.48.54.719 1.423.719 2.68v.779c0 .284-.15.419-.434.419h-3.593v.12c0 .359.09.598.3.733.194.135.553.195 1.092.195M66.616 31.6h1.647c.12 0 .18-.06.18-.195v-.24c0-.299-.06-.523-.15-.688-.12-.18-.36-.27-.69-.27h-.134c-.3 0-.509.075-.629.21q-.225.27-.224.808zm11.767-.27v4.237c0 .15-.045.27-.12.33-.075.074-.21.104-.39.104h-1.377c-.194 0-.329-.03-.404-.105-.075-.06-.105-.18-.105-.33V31.33c0-.329-.06-.569-.164-.688-.12-.12-.344-.195-.659-.195h-.03c-.33 0-.539.075-.659.195s-.164.359-.164.688v4.237c0 .15-.045.27-.12.33-.075.074-.21.104-.39.104h-1.376c-.195 0-.33-.03-.405-.105-.074-.06-.104-.18-.104-.33v-6.481c0-.15.03-.255.104-.315.075-.06.21-.104.405-.104h.703c.18 0 .3.03.374.075q.113.066.18.269l.09.284h.045c.479-.509 1.153-.763 2.05-.763h.06c.854 0 1.513.24 1.977.688.479-.449 1.167-.688 2.036-.688H80c.868 0 1.511.21 1.9.614.36.389.555 1.048.555 1.976v4.446c0 .15-.045.27-.12.33-.075.074-.21.104-.39.104h-1.377c-.194 0-.329-.03-.404-.105-.075-.06-.105-.18-.105-.33V31.33c0-.329-.06-.569-.164-.688-.12-.12-.345-.195-.659-.195h-.03c-.33 0-.539.075-.659.195s-.164.359-.164.688m7.916-2.23v6.467c0 .15-.045.27-.12.33-.074.074-.209.104-.389.104h-1.377c-.194 0-.33-.03-.404-.105-.075-.06-.105-.18-.105-.33V29.1c0-.15.03-.255.105-.33.075-.06.21-.104.404-.104h1.377c.18 0 .315.044.39.104.074.075.12.18.12.33m-1.107-1.003h-.18c-.808 0-1.213-.404-1.213-1.243v-.075c0-.823.405-1.242 1.213-1.242h.18c.808 0 1.212.419 1.212 1.242v.075c0 .839-.404 1.243-1.212 1.243m6.596 5.224V29.1c0-.15.03-.255.105-.33.075-.06.21-.104.404-.104h1.377c.18 0 .314.044.39.104.074.075.119.18.119.33v4.43q0 1.371-.674 1.977c-.479.42-1.317.629-2.544.629s-2.081-.21-2.546-.629q-.673-.606-.673-1.976v-4.431c0-.15.03-.255.105-.33.075-.06.21-.104.404-.104h1.377c.18 0 .314.044.39.104.074.075.12.18.12.33v4.221c0 .345.044.57.164.689.12.135.33.195.659.195.314 0 .538-.06.658-.195.105-.12.165-.344.165-.689m10.278-1.99v4.236c0 .15-.045.27-.12.33-.075.074-.209.104-.389.104h-1.377c-.195 0-.33-.03-.404-.105-.075-.06-.105-.18-.105-.33V31.33c0-.329-.06-.569-.165-.688-.12-.12-.344-.195-.659-.195h-.03c-.329 0-.538.075-.658.195s-.165.359-.165.688v4.237c0 .15-.045.27-.12.33-.075.074-.21.104-.389.104h-1.377c-.195 0-.33-.03-.404-.105-.075-.06-.105-.18-.105-.33v-6.481c0-.15.03-.255.105-.315s.21-.104.404-.104h.703c.18 0 .3.03.375.075q.112.066.18.269l.09.284h.044c.48-.509 1.153-.763 2.051-.763h.06c.853 0 1.512.24 1.976.688.479-.449 1.168-.688 2.036-.688h.06c.868 0 1.512.21 1.901.614.359.389.554 1.048.554 1.976v4.446c0 .15-.045.27-.12.33-.075.074-.209.104-.389.104h-1.377c-.195 0-.33-.03-.405-.105-.074-.06-.104-.18-.104-.33V31.33c0-.329-.06-.569-.165-.688-.12-.12-.344-.195-.659-.195h-.03c-.329 0-.539.075-.658.195-.12.12-.165.359-.165.688"/></svg>