<svg xmlns="http://www.w3.org/2000/svg" fill="none" viewBox="0 0 87 17"><path fill="#fff" d="M3.024 8.629v1.834c0 .33.057.56.2.688.115.13.33.186.646.186h.129c.33 0 .559-.086.702-.286q.172-.258.172-1.247v-.616c0-.717-.072-1.161-.186-1.305-.13-.143-.373-.229-.717-.229h-.057c-.33 0-.56.072-.703.215-.129.129-.186.387-.186.76m0-2.394h.029q.623-.387 1.634-.387h.129c.86 0 1.49.258 1.877.774.316.444.488 1.233.488 2.365v1.032c0 1.146-.244 1.95-.731 2.393-.516.488-1.333.717-2.451.717h-.287c-1.175 0-1.978-.23-2.408-.702-.387-.416-.573-1.09-.573-2.035v-6.68c0-.143.029-.243.1-.315.058-.057.187-.1.373-.1h1.333c.172 0 .3.043.373.1a.42.42 0 0 1 .114.316zm8.802 5.045h.158a6.3 6.3 0 0 0 1.52-.186c.142-.029.228-.043.271-.043.144 0 .23.086.258.243l.115.717c.029.2.057.33.057.387 0 .172-.129.301-.372.387a6.6 6.6 0 0 1-2.164.344h-.273q-1.762 0-2.494-.731a2.06 2.06 0 0 1-.573-.975c-.1-.372-.143-.874-.143-1.49V9.13c0-1.247.286-2.121.86-2.637.487-.43 1.232-.645 2.25-.645h.2c1.004 0 1.735.244 2.165.717.458.516.688 1.361.688 2.565v.746c0 .272-.144.4-.416.4h-3.44v.116c0 .344.086.573.287.702.186.129.53.186 1.046.186m-1.333-2.494h1.577c.114 0 .172-.057.172-.186v-.23c0-.286-.058-.501-.144-.659-.114-.172-.344-.258-.659-.258h-.129c-.286 0-.487.072-.602.201q-.215.258-.215.774zm7.41-.989h-2.278c-.144 0-.244-.014-.301-.071-.058-.058-.072-.172-.072-.344v-.99c0-.171.014-.272.072-.329q.085-.086.3-.086h4.845c.143 0 .244.029.315.086.058.057.1.172.1.33v.272c0 .373-.114.717-.315 1.018l-2.465 3.497h2.451c.143 0 .23.028.287.086s.086.157.086.33v.988q0 .258-.086.344c-.058.058-.144.072-.287.072h-4.93c-.301 0-.445-.129-.445-.416v-.33c0-.372.1-.702.316-1.017zM28.67 6.321h1.233c.2 0 .344.029.415.086s.13.172.158.344c0 .057.258 1.333.76 3.812h.043c.258-1.504.487-2.895.673-4.185.015-.157.058-.258.115-.315q.086-.086.3-.086h1.463c.157 0 .258.043.315.1.043.072.057.187.029.33-.23 1.118-.516 2.35-.831 3.698-.316 1.347-.545 2.193-.688 2.551-.058.143-.13.244-.201.287s-.186.057-.33.057h-1.576c-.301 0-.488-.1-.545-.33-.272-.974-.502-2.207-.702-3.697h-.058a39 39 0 0 1-.716 3.697c-.058.23-.23.33-.516.33h-1.548c-.287 0-.473-.1-.545-.315-.143-.387-.387-1.276-.73-2.652a67 67 0 0 1-.803-3.626c-.043-.158-.029-.272.028-.33.058-.057.172-.1.344-.1h1.405c.143 0 .258.029.33.086.057.057.1.172.129.315.2 1.333.43 2.724.702 4.185h.057c.344-1.777.588-3.052.703-3.812.028-.186.071-.301.143-.358.072-.043.215-.072.444-.072m10.383 6.091h-.029c-.315.488-.946.717-1.877.717h-.215c-.732 0-1.305-.186-1.706-.559-.416-.373-.616-.932-.616-1.648v-.158c0-.774.215-1.333.659-1.648s1.16-.473 2.164-.473h.1c.373 0 .717.029 1.004.057v-.3c0-.302-.086-.517-.244-.631-.172-.1-.459-.158-.86-.158-.487 0-1.032.086-1.663.244-.171.043-.3.043-.358 0-.071-.043-.114-.13-.129-.273l-.114-.76c-.03-.128-.03-.229-.03-.286 0-.172.116-.3.345-.373a9.2 9.2 0 0 1 2.45-.315c1.104 0 1.893.244 2.351.702.359.373.545.975.545 1.792v4.257c0 .143-.043.258-.115.315-.071.057-.2.086-.372.086h-.674c-.172 0-.287-.014-.358-.057s-.13-.13-.172-.273zm-.516-1.834v-.401a4 4 0 0 0-.688-.043h-.158q-.517 0-.73.128c-.144.086-.201.258-.201.516v.058c0 .258.057.43.2.516.13.1.33.143.602.143h.1c.287 0 .502-.072.674-.215.13-.115.2-.358.2-.702m5.458-3.827h.043c.315-.516.845-.774 1.605-.774h.573c.144 0 .258.029.316.086s.1.158.1.315v1.047c0 .157-.029.258-.086.315q-.086.086-.301.086h-.43c-.53 0-.889.1-1.09.301-.171.172-.243.502-.243.989v3.468c0 .144-.043.258-.115.316-.071.071-.2.1-.372.1h-1.319c-.186 0-.315-.029-.387-.1-.072-.058-.1-.172-.1-.316V6.378c0-.143.029-.243.1-.3.072-.058.2-.1.387-.1h.688c.158 0 .272.028.344.07a.6.6 0 0 1 .172.259zm7.254 3.683V6.393c0-.144.029-.244.1-.316.072-.057.2-.1.387-.1h1.319c.172 0 .3.043.373.1a.42.42 0 0 1 .114.316v4.242q0 1.311-.645 1.892c-.458.401-1.261.602-2.436.602s-1.992-.2-2.437-.602q-.645-.58-.645-1.892V6.393c0-.144.029-.244.1-.316.072-.057.201-.1.388-.1h1.318c.172 0 .301.043.373.1a.42.42 0 0 1 .114.316v4.042c0 .33.043.544.158.659.115.129.315.186.63.186.302 0 .517-.057.631-.186.1-.115.158-.33.158-.66m7.432-4.586h.115c.831 0 1.448.2 1.82.588.344.372.53 1.003.53 1.892v4.256c0 .144-.042.258-.114.316-.072.071-.2.1-.373.1h-1.318c-.187 0-.316-.029-.387-.1-.072-.058-.1-.172-.1-.316V8.528c0-.315-.058-.544-.158-.659-.115-.115-.33-.186-.63-.186h-.087c-.315 0-.516.071-.63.186-.115.115-.158.344-.158.66v4.055c0 .144-.043.258-.115.316-.071.071-.2.1-.372.1h-1.319c-.186 0-.315-.029-.387-.1-.072-.058-.1-.172-.1-.316V6.378c0-.143.028-.243.1-.3.072-.058.2-.1.387-.1h.674c.172 0 .286.028.358.07q.108.066.172.259l.086.272h.043c.459-.487 1.103-.73 1.963-.73m6.124 4.372v2.364c0 .144-.043.258-.115.316-.071.071-.2.1-.372.1h-1.319c-.186 0-.315-.029-.387-.1-.072-.058-.1-.172-.1-.316V3.713c0-.144.029-.244.1-.316.072-.057.2-.1.387-.1h1.319c.172 0 .3.043.372.1a.42.42 0 0 1 .115.316v4.672h.1l1.362-2.078a.66.66 0 0 1 .602-.33h1.662c.158 0 .244.057.244.172 0 .057-.043.158-.115.272l-1.648 2.466c-.129.2-.186.344-.186.43 0 .1.057.243.186.43l1.763 2.78c.057.115.086.186.086.244 0 .157-.1.229-.3.229h-1.592c-.2 0-.358-.014-.444-.072q-.129-.064-.258-.3l-1.362-2.408zm6.755-1.29v1.117c0 .56.086.918.258 1.09.13.143.33.2.602.2h.058c.258 0 .458-.057.602-.2.172-.172.258-.53.258-1.09V8.93c0-.545-.086-.918-.258-1.09-.144-.129-.344-.2-.602-.2h-.058c-.272 0-.473.071-.602.2-.172.172-.258.545-.258 1.09m4.085.086v.931c0 .717-.072 1.261-.215 1.663a2.05 2.05 0 0 1-.688.96c-.473.373-1.204.559-2.207.559h-.172c-1.003 0-1.749-.186-2.207-.559a2.05 2.05 0 0 1-.688-.96c-.144-.402-.215-.946-.215-1.663V9.03c0-.702.072-1.247.215-1.648.143-.402.372-.717.688-.975.458-.373 1.204-.559 2.207-.559h.172c1.003 0 1.734.186 2.207.559.316.258.545.573.688.96.143.402.215.946.215 1.649m-4.371-4.93 2.25-1.921a.4.4 0 0 1 .272-.13c.1 0 .2.072.287.187l.688.889a.42.42 0 0 1 .086.243c0 .115-.086.23-.23.344l-2.264 1.548c-.1.072-.2.1-.287.1-.114 0-.229-.057-.344-.2l-.43-.502c-.114-.129-.157-.244-.157-.33 0-.085.043-.171.129-.229M80.54 6.32h1.233c.2 0 .344.029.416.086.071.057.129.172.157.344 0 .057.258 1.333.76 3.812h.043c.258-1.504.487-2.895.674-4.185.014-.157.057-.258.114-.315q.087-.086.301-.086h1.462c.158 0 .258.043.316.1.043.072.057.187.028.33-.23 1.118-.516 2.35-.831 3.698-.316 1.347-.545 2.193-.688 2.551-.057.143-.13.244-.2.287-.072.043-.187.057-.33.057h-1.577c-.301 0-.487-.1-.545-.33-.272-.974-.501-2.207-.702-3.697h-.057a39 39 0 0 1-.717 3.697c-.057.23-.23.33-.516.33h-1.548c-.286 0-.473-.1-.544-.315-.144-.387-.387-1.276-.731-2.652a67 67 0 0 1-.803-3.626c-.043-.158-.029-.272.029-.33.057-.057.172-.1.344-.1h1.404c.144 0 .258.029.33.086.057.057.1.172.129.315.2 1.333.43 2.724.702 4.185h.057c.344-1.777.588-3.052.703-3.812.029-.186.072-.301.143-.358.072-.043.215-.072.444-.072"/></svg>