<svg xmlns="http://www.w3.org/2000/svg" fill="none" viewBox="0 0 350 43"><path fill="#fff" d="M15.084 23.02v-1.332c0-2.916-.36-4.716-1.008-5.4q-.864-.864-2.376-.864h-.504q-1.512 0-2.376.864c-.684.684-1.008 2.484-1.008 5.4v1.332c0 2.952.324 4.752 1.008 5.4q.864.864 2.376.864h.504q1.512 0 2.376-.864c.648-.648 1.008-2.448 1.008-5.4m6.156-2.052v2.772c0 4.356-1.008 7.308-3.024 8.892-1.44 1.152-3.672 1.692-6.624 1.692h-.288c-2.988 0-5.184-.54-6.624-1.692-2.016-1.584-3.024-4.536-3.024-8.892v-2.772c0-4.32 1.008-7.308 3.024-8.892 1.44-1.116 3.636-1.692 6.624-1.692h.288c2.952 0 5.184.576 6.624 1.692 2.016 1.584 3.024 4.572 3.024 8.892m15.032 9.648v2.052c0 .54-.108.9-.252 1.08s-.468.252-.9.252h-2.88c-2.592 0-4.32-.432-5.112-1.332-.72-.756-1.044-2.196-1.044-4.356V20.86H24.14c-.36 0-.576-.036-.72-.18s-.18-.36-.18-.72v-1.836c0-.432.036-.72.18-.864.108-.144.36-.252.756-.36l1.908-.468v-3.528c0-.36.072-.612.252-.792.18-.144.504-.252.972-.252h3.312c.432 0 .756.108.936.252.18.18.288.432.288.792v3.456h2.988c.36 0 .576.072.72.216s.216.396.216.828v2.412q0 .648-.216.864c-.144.144-.36.18-.72.18h-2.988v6.804c0 .648.072 1.044.288 1.26.216.252.684.36 1.404.36h1.584c.432 0 .756.108.9.288s.252.54.252 1.044m11.94-13.392h3.096c.504 0 .864.072 1.044.216s.324.432.396.864c0 .144.648 3.348 1.908 9.576h.108c.648-3.78 1.224-7.272 1.692-10.512.036-.396.144-.648.288-.792q.216-.216.756-.216h3.672c.396 0 .648.108.792.252.108.18.144.468.072.828-.576 2.808-1.296 5.904-2.088 9.288s-1.368 5.508-1.728 6.408c-.144.36-.324.612-.504.72s-.468.144-.828.144h-3.96c-.756 0-1.224-.252-1.368-.828-.684-2.448-1.26-5.544-1.764-9.288h-.144a99 99 0 0 1-1.8 9.288c-.144.576-.576.828-1.296.828h-3.888c-.72 0-1.188-.252-1.368-.792-.36-.972-.972-3.204-1.836-6.66a167 167 0 0 1-2.016-9.108c-.108-.396-.072-.684.072-.828s.432-.252.864-.252h3.528c.36 0 .648.072.828.216.144.144.252.432.324.792.504 3.348 1.08 6.84 1.764 10.512h.144c.864-4.464 1.476-7.668 1.764-9.576.072-.468.18-.756.36-.9.18-.108.54-.18 1.116-.18m21.176 6.552v2.808c0 1.404.216 2.304.648 2.736.324.36.828.504 1.512.504h.144c.648 0 1.152-.144 1.512-.504.432-.432.648-1.332.648-2.736v-2.808c0-1.368-.216-2.304-.648-2.736-.36-.324-.864-.504-1.512-.504h-.144c-.684 0-1.188.18-1.512.504-.432.432-.648 1.368-.648 2.736m10.26.216v2.34c0 1.8-.18 3.168-.54 4.176s-.936 1.8-1.728 2.412c-1.188.936-3.024 1.404-5.544 1.404h-.432c-2.52 0-4.392-.468-5.544-1.404-.792-.612-1.368-1.404-1.728-2.412s-.54-2.376-.54-4.176v-2.304c0-1.764.18-3.132.54-4.14s.936-1.8 1.728-2.448c1.152-.936 3.024-1.404 5.544-1.404h.432c2.52 0 4.356.468 5.544 1.404a5.54 5.54 0 0 1 1.728 2.412c.36 1.008.54 2.376.54 4.14m-10.98-12.384 5.652-4.824c.216-.216.468-.324.684-.324.252 0 .504.18.72.468l1.728 2.232c.144.216.216.396.216.612 0 .288-.216.576-.576.864l-5.688 3.888c-.252.18-.504.252-.72.252-.288 0-.576-.144-.864-.504l-1.08-1.26c-.288-.324-.396-.612-.396-.828s.108-.432.324-.576m18.598 6.696h.108c.793-1.296 2.125-1.944 4.032-1.944h1.44c.36 0 .648.072.792.216s.252.396.252.792v2.628c0 .396-.072.648-.216.792q-.216.216-.756.216h-1.08c-1.331 0-2.231.252-2.735.756-.432.432-.612 1.26-.612 2.484v8.712c0 .36-.109.648-.288.792-.18.18-.505.252-.937.252h-3.312c-.467 0-.791-.072-.971-.252-.18-.144-.252-.432-.252-.792V17.368c0-.36.072-.612.252-.756s.504-.252.971-.252h1.729c.395 0 .683.072.863.18q.27.216.432.648zm14.622 2.628h-5.724c-.36 0-.612-.036-.756-.18s-.18-.432-.18-.864v-2.484c0-.432.036-.684.18-.828q.216-.216.756-.216h12.168c.36 0 .612.072.792.216.144.144.252.432.252.828v.684c0 .936-.288 1.8-.792 2.556l-6.192 8.784h6.156c.36 0 .576.072.72.216s.216.396.216.828v2.484q0 .648-.216.864c-.144.144-.36.18-.72.18H96.164c-.756 0-1.116-.324-1.116-1.044v-.828c0-.936.252-1.764.792-2.556zm23.587 6.084v5.94c0 .36-.108.648-.288.792-.18.18-.504.252-.936.252h-3.312c-.468 0-.792-.072-.972-.252-.18-.144-.252-.432-.252-.792V10.672c0-.36.072-.612.252-.792.18-.144.504-.252.972-.252h3.312c.432 0 .756.108.936.252.18.18.288.432.288.792v11.736h.252l3.42-5.22c.324-.54.828-.828 1.512-.828h4.176c.396 0 .612.144.612.432 0 .144-.108.396-.288.684l-4.14 6.192c-.324.504-.468.864-.468 1.08 0 .252.144.612.468 1.08l4.428 6.984c.144.288.216.468.216.612 0 .396-.252.576-.756.576h-3.996c-.504 0-.9-.036-1.116-.18q-.324-.162-.648-.756l-3.42-6.048zm16.968-3.24v2.808c0 1.404.216 2.304.648 2.736.324.36.828.504 1.512.504h.144c.648 0 1.152-.144 1.512-.504.432-.432.648-1.332.648-2.736v-2.808c0-1.368-.216-2.304-.648-2.736-.36-.324-.864-.504-1.512-.504h-.144c-.684 0-1.188.18-1.512.504-.432.432-.648 1.368-.648 2.736m10.26.216v2.34c0 1.8-.18 3.168-.54 4.176s-.936 1.8-1.728 2.412c-1.188.936-3.024 1.404-5.544 1.404h-.432c-2.52 0-4.392-.468-5.544-1.404-.792-.612-1.368-1.404-1.728-2.412s-.54-2.376-.54-4.176v-2.304c0-1.764.18-3.132.54-4.14s.936-1.8 1.728-2.448c1.152-.936 3.024-1.404 5.544-1.404h.432c2.52 0 4.356.468 5.544 1.404a5.54 5.54 0 0 1 1.728 2.412c.36 1.008.54 2.376.54 4.14m12.586-7.956h.288c2.088 0 3.636.504 4.572 1.476.864.936 1.332 2.52 1.332 4.752v10.692c0 .36-.108.648-.288.792-.18.18-.504.252-.936.252h-3.312c-.468 0-.792-.072-.972-.252-.18-.144-.252-.432-.252-.792V22.768c0-.792-.144-1.368-.396-1.656-.288-.288-.828-.468-1.584-.468h-.216c-.792 0-1.296.18-1.584.468s-.396.864-.396 1.656v10.188c0 .36-.108.648-.288.792-.18.18-.504.252-.936.252h-3.312c-.468 0-.792-.072-.972-.252-.18-.144-.252-.432-.252-.792V17.368c0-.36.072-.612.252-.756s.504-.252.972-.252h1.692c.432 0 .72.072.9.18q.27.162.432.648l.216.684h.108c1.152-1.224 2.772-1.836 4.932-1.836m20.889 14.58v2.052c0 .54-.108.9-.252 1.08s-.468.252-.9.252h-2.88c-2.592 0-4.32-.432-5.112-1.332-.72-.756-1.044-2.196-1.044-4.356V20.86h-1.944c-.36 0-.576-.036-.72-.18s-.18-.36-.18-.72v-1.836c0-.432.036-.72.18-.864.108-.144.36-.252.756-.36l1.908-.468v-3.528c0-.36.072-.612.252-.792.18-.144.504-.252.972-.252h3.312c.432 0 .756.108.936.252.18.18.288.432.288.792v3.456h2.988c.36 0 .576.072.72.216s.216.396.216.828v2.412q0 .648-.216.864c-.144.144-.36.18-.72.18h-2.988v6.804c0 .648.072 1.044.288 1.26.216.252.684.36 1.404.36h1.584c.432 0 .756.108.9.288s.252.54.252 1.044m7.944-6.84v2.808c0 1.404.216 2.304.648 2.736.324.36.828.504 1.512.504h.144c.648 0 1.152-.144 1.512-.504.432-.432.648-1.332.648-2.736v-2.808c0-1.368-.216-2.304-.648-2.736-.36-.324-.864-.504-1.512-.504h-.144c-.684 0-1.188.18-1.512.504-.432.432-.648 1.368-.648 2.736m10.26.216v2.34c0 1.8-.18 3.168-.54 4.176s-.936 1.8-1.728 2.412c-1.188.936-3.024 1.404-5.544 1.404h-.432c-2.52 0-4.392-.468-5.544-1.404-.792-.612-1.368-1.404-1.728-2.412s-.54-2.376-.54-4.176v-2.304c0-1.764.18-3.132.54-4.14s.936-1.8 1.728-2.448c1.152-.936 3.024-1.404 5.544-1.404h.432c2.52 0 4.356.468 5.544 1.404a5.54 5.54 0 0 1 1.728 2.412c.36 1.008.54 2.376.54 4.14m16.648-.972v4.608c0 .828.144 1.404.504 1.728.288.324.828.468 1.62.468h.324c.828 0 1.404-.216 1.764-.72q.432-.648.432-3.132v-1.548c0-1.8-.18-2.916-.468-3.276-.324-.36-.936-.576-1.8-.576h-.144c-.828 0-1.404.18-1.764.54-.324.324-.468.972-.468 1.908m0-6.012h.072q1.566-.972 4.104-.972h.324c2.16 0 3.744.648 4.716 1.944.792 1.116 1.224 3.096 1.224 5.94v2.592c0 2.88-.612 4.896-1.836 6.012-1.296 1.224-3.348 1.8-6.156 1.8h-.72c-2.952 0-4.968-.576-6.048-1.764-.972-1.044-1.44-2.736-1.44-5.112V10.672c0-.36.072-.612.252-.792.144-.144.468-.252.936-.252h3.348c.432 0 .756.108.936.252.18.18.288.432.288.792zm23.944 15.516h-.072c-.792 1.224-2.376 1.8-4.716 1.8h-.54c-1.836 0-3.276-.468-4.284-1.404-1.044-.936-1.548-2.34-1.548-4.14v-.396c0-1.944.54-3.348 1.656-4.14s2.916-1.188 5.436-1.188h.252c.936 0 1.8.072 2.52.144v-.756c0-.756-.216-1.296-.612-1.584-.432-.252-1.152-.396-2.16-.396-1.224 0-2.592.216-4.176.612-.432.108-.756.108-.9 0-.18-.108-.288-.324-.324-.684l-.288-1.908c-.072-.324-.072-.576-.072-.72 0-.432.288-.756.864-.936 1.836-.504 3.888-.792 6.156-.792 2.772 0 4.752.612 5.904 1.764.9.936 1.368 2.448 1.368 4.5v10.692c0 .36-.108.648-.288.792s-.504.216-.936.216h-1.692c-.432 0-.72-.036-.9-.144s-.324-.324-.432-.684zm-1.296-4.608v-1.008q-.594-.108-1.728-.108h-.396q-1.296 0-1.836.324c-.36.216-.504.648-.504 1.296v.144c0 .648.144 1.08.504 1.296.324.252.828.36 1.512.36h.252c.72 0 1.26-.18 1.692-.54.324-.288.504-.9.504-1.764m18.678-11.88h.288c2.088 0 3.636.504 4.572 1.476.864.936 1.332 2.52 1.332 4.752v10.692c0 .36-.108.648-.288.792-.18.18-.504.252-.936.252h-3.312c-.468 0-.792-.072-.972-.252-.18-.144-.252-.432-.252-.792V22.768c0-.792-.144-1.368-.396-1.656-.288-.288-.828-.468-1.584-.468h-.216c-.792 0-1.296.18-1.584.468s-.396.864-.396 1.656v10.188c0 .36-.108.648-.288.792-.18.18-.504.252-.936.252h-3.312c-.468 0-.792-.072-.972-.252-.18-.144-.252-.432-.252-.792V17.368c0-.36.072-.612.252-.756s.504-.252.972-.252h1.692c.432 0 .72.072.9.18q.27.162.432.648l.216.684h.108c1.152-1.224 2.772-1.836 4.932-1.836m15.381 10.98v5.94c0 .36-.108.648-.288.792-.18.18-.504.252-.936.252h-3.312c-.468 0-.792-.072-.972-.252-.18-.144-.252-.432-.252-.792V10.672c0-.36.072-.612.252-.792.18-.144.504-.252.972-.252h3.312c.432 0 .756.108.936.252.18.18.288.432.288.792v11.736h.252l3.42-5.22c.324-.54.828-.828 1.512-.828h4.176c.396 0 .612.144.612.432 0 .144-.108.396-.288.684l-4.14 6.192c-.324.504-.468.864-.468 1.08 0 .252.144.612.468 1.08l4.428 6.984c.144.288.216.468.216.612 0 .396-.252.576-.756.576h-3.996c-.504 0-.9-.036-1.116-.18q-.324-.162-.648-.756l-3.42-6.048zm16.967-3.24v2.808c0 1.404.216 2.304.648 2.736.324.36.828.504 1.512.504h.144c.648 0 1.152-.144 1.512-.504.432-.432.648-1.332.648-2.736v-2.808c0-1.368-.216-2.304-.648-2.736-.36-.324-.864-.504-1.512-.504h-.144c-.684 0-1.188.18-1.512.504-.432.432-.648 1.368-.648 2.736m10.26.216v2.34c0 1.8-.18 3.168-.54 4.176s-.936 1.8-1.728 2.412c-1.188.936-3.024 1.404-5.544 1.404h-.432c-2.52 0-4.392-.468-5.544-1.404-.792-.612-1.368-1.404-1.728-2.412s-.54-2.376-.54-4.176v-2.304c0-1.764.18-3.132.54-4.14s.936-1.8 1.728-2.448c1.152-.936 3.024-1.404 5.544-1.404h.432c2.52 0 4.356.468 5.544 1.404a5.54 5.54 0 0 1 1.728 2.412c.36 1.008.54 2.376.54 4.14m12.299-6.768h3.096c.504 0 .864.072 1.044.216s.324.432.396.864c0 .144.648 3.348 1.908 9.576h.108c.648-3.78 1.224-7.272 1.692-10.512.036-.396.144-.648.288-.792q.216-.216.756-.216h3.672c.396 0 .648.108.792.252.108.18.144.468.072.828-.576 2.808-1.296 5.904-2.088 9.288s-1.368 5.508-1.728 6.408c-.144.36-.324.612-.504.72s-.468.144-.828.144h-3.96c-.756 0-1.224-.252-1.368-.828-.684-2.448-1.26-5.544-1.764-9.288h-.144a99 99 0 0 1-1.8 9.288c-.144.576-.576.828-1.296.828h-3.888c-.72 0-1.188-.252-1.368-.792-.36-.972-.972-3.204-1.836-6.66a167 167 0 0 1-2.016-9.108c-.108-.396-.072-.684.072-.828s.432-.252.864-.252h3.528c.36 0 .648.072.828.216.144.144.252.432.324.792.504 3.348 1.08 6.84 1.764 10.512h.144c.864-4.464 1.476-7.668 1.764-9.576.072-.468.18-.756.36-.9.18-.108.54-.18 1.116-.18m24.524 12.456h.396c1.224 0 2.52-.144 3.816-.468.36-.072.576-.108.684-.108.36 0 .576.216.648.612l.288 1.8c.072.504.144.828.144.972 0 .432-.324.756-.936.972-1.656.576-3.492.864-5.436.864h-.684q-4.428 0-6.264-1.836a5.16 5.16 0 0 1-1.44-2.448c-.252-.936-.36-2.196-.36-3.744V24.28c0-3.132.72-5.328 2.16-6.624 1.224-1.08 3.096-1.62 5.652-1.62h.504c2.52 0 4.356.612 5.436 1.8 1.152 1.296 1.728 3.42 1.728 6.444v1.872c0 .684-.36 1.008-1.044 1.008h-8.64v.288c0 .864.216 1.44.72 1.764.468.324 1.332.468 2.628.468m-3.348-6.264h3.96c.288 0 .432-.144.432-.468v-.576c0-.72-.144-1.26-.36-1.656-.288-.432-.864-.648-1.656-.648h-.324c-.72 0-1.224.18-1.512.504q-.54.648-.54 1.944z"/></svg>