<svg xmlns="http://www.w3.org/2000/svg" fill="none" viewBox="0 0 474 55"><path fill="#fff" d="M12.696 26.716h.368c1.472 0 2.714-.276 3.772-.828v-.644c0-2.53-.276-4.232-.782-5.106s-1.426-1.334-2.806-1.334h-.414q-3.45 0-3.45 3.726v.414c0 1.38.23 2.346.782 2.898.552.598 1.38.874 2.53.874M4.37 42.08c-.552-.184-.782-.506-.782-1.058q0-.276.138-.828l.736-2.944c.184-.736.736-1.012 1.564-.782 2.208.69 4.14 1.012 5.796 1.012h.138c1.656 0 2.806-.414 3.542-1.334q1.104-1.311 1.242-4.14c-1.518.644-3.174.92-4.968.92h-.506c-3.266 0-5.612-.782-7.084-2.438-1.472-1.61-2.162-4.094-2.162-7.406v-.644c0-2.944.874-5.29 2.668-7.038 1.794-1.702 4.416-2.576 7.866-2.576h.644c4.14 0 7.084 1.104 8.74 3.22s2.53 5.612 2.53 10.488v1.104c0 2.622-.23 4.876-.69 6.808s-1.058 3.496-1.794 4.6a8.3 8.3 0 0 1-2.806 2.714c-1.104.69-2.208 1.15-3.312 1.334-1.104.23-2.392.322-3.818.322h-.046c-2.668 0-5.244-.414-7.636-1.334m54.504-13.432v13.018c0 .46-.138.828-.368 1.012-.23.23-.644.322-1.196.322h-4.232c-.598 0-1.012-.092-1.242-.322-.23-.184-.322-.552-.322-1.012V28.648c0-1.012-.184-1.748-.506-2.116-.368-.368-1.058-.598-2.024-.598h-.092c-1.012 0-1.656.23-2.024.598s-.506 1.104-.506 2.116v13.018c0 .46-.138.828-.368 1.012-.23.23-.644.322-1.196.322h-4.232c-.598 0-1.012-.092-1.242-.322-.23-.184-.322-.552-.322-1.012V21.748c0-.46.092-.782.322-.966s.644-.322 1.242-.322h2.162c.552 0 .92.092 1.15.23q.345.207.552.828l.276.874h.138c1.472-1.564 3.542-2.346 6.302-2.346h.184c2.622 0 4.646.736 6.072 2.116 1.472-1.38 3.588-2.116 6.256-2.116h.184c2.668 0 4.646.644 5.842 1.886 1.104 1.196 1.702 3.22 1.702 6.072v13.662c0 .46-.138.828-.368 1.012-.23.23-.644.322-1.196.322H65.59c-.598 0-1.012-.092-1.242-.322-.23-.184-.322-.552-.322-1.012V28.648c0-1.012-.184-1.748-.506-2.116-.368-.368-1.058-.598-2.024-.598h-.092c-1.012 0-1.656.23-2.024.598s-.506 1.104-.506 2.116M83.2 21.794v19.872c0 .46-.138.828-.368 1.012-.23.23-.644.322-1.196.322h-4.232c-.598 0-1.012-.092-1.242-.322-.23-.184-.322-.552-.322-1.012V21.794c0-.46.092-.782.322-1.012.23-.184.644-.322 1.242-.322h4.232c.552 0 .966.138 1.196.322.23.23.368.552.368 1.012m-3.404-3.082h-.552c-2.484 0-3.726-1.242-3.726-3.818v-.23c0-2.53 1.242-3.818 3.726-3.818h.552c2.484 0 3.726 1.288 3.726 3.818v.23c0 2.576-1.242 3.818-3.726 3.818m19.12 18.768h.505c1.564 0 3.22-.184 4.876-.598.46-.092.736-.138.874-.138.46 0 .736.276.828.782l.368 2.3c.092.644.184 1.058.184 1.242 0 .552-.414.966-1.196 1.242-2.116.736-4.462 1.104-6.946 1.104h-.874q-5.658 0-8.004-2.346c-.92-.874-1.518-1.932-1.84-3.128s-.46-2.806-.46-4.784V30.58c0-4.002.92-6.808 2.76-8.464 1.564-1.38 3.956-2.07 7.222-2.07h.644c3.22 0 5.566.782 6.946 2.3 1.472 1.656 2.208 4.37 2.208 8.234v2.392c0 .874-.46 1.288-1.334 1.288h-11.04v.368c0 1.104.276 1.84.92 2.254.598.414 1.702.598 3.358.598m-4.279-8.004h5.06c.368 0 .552-.184.552-.598v-.736c0-.92-.184-1.61-.46-2.116-.368-.552-1.104-.828-2.116-.828h-.414c-.92 0-1.564.23-1.932.644q-.69.828-.69 2.484zm15.687-1.61v-.598c0-2.254.598-3.956 1.794-5.152 1.38-1.38 3.726-2.07 6.992-2.07h.46c2.576 0 4.83.276 6.716.828q.552.207.69.414c.092.184.138.414.092.782l-.506 3.772c-.092.598-.506.782-1.242.598-1.84-.414-3.496-.644-4.876-.644h-.046c-1.012 0-1.748.092-2.116.276-.414.184-.598.506-.598.966v.138c0 .46.138.782.506.966s1.058.414 2.116.598l2.162.46c1.978.46 3.404 1.15 4.232 2.07s1.242 2.346 1.242 4.232v.69c0 4.83-3.036 7.222-9.016 7.222h-.46c-3.036 0-5.566-.414-7.682-1.242-.414-.138-.69-.322-.782-.552-.092-.184-.092-.552 0-1.058l.644-3.036c.138-.874.644-1.15 1.564-.874 2.116.736 3.956 1.058 5.52 1.058h.138c1.012 0 1.702-.092 2.116-.322.368-.184.598-.552.598-1.058v-.138a.99.99 0 0 0-.506-.874q-.552-.276-2.208-.69l-2.024-.46q-3.036-.69-4.278-2.07c-.828-.92-1.242-2.3-1.242-4.232m28.894-6.072v19.872c0 .46-.138.828-.368 1.012-.23.23-.644.322-1.196.322h-4.232c-.598 0-1.012-.092-1.242-.322-.23-.184-.322-.552-.322-1.012V21.794c0-.46.092-.782.322-1.012.23-.184.644-.322 1.242-.322h4.232c.552 0 .966.138 1.196.322.23.23.368.552.368 1.012m-3.404-3.082h-.552c-2.484 0-3.726-1.242-3.726-3.818v-.23c0-2.53 1.242-3.818 3.726-3.818h.552c2.484 0 3.726 1.288 3.726 3.818v.23c0 2.576-1.242 3.818-3.726 3.818m19.119 18.768h.506c1.564 0 3.22-.184 4.876-.598.46-.092.736-.138.874-.138.46 0 .736.276.828.782l.368 2.3c.092.644.184 1.058.184 1.242 0 .552-.414.966-1.196 1.242a6.67 6.67 0 0 0-2.944 2.208c-.782 1.012-1.15 2.024-1.15 2.944v.138c0 .874.414 1.288 1.242 1.288h.23c.506 0 1.15-.092 1.886-.368.23-.046.414-.092.552-.092.23 0 .414.23.552.598l.23.966c.138.644.23.966.23 1.058 0 .276-.23.506-.644.69q-1.794.69-3.726.69h-.276c-1.61 0-2.806-.322-3.634-1.012s-1.242-1.656-1.242-2.944v-.138c0-.828.276-1.748.874-2.668s1.38-1.656 2.392-2.3c-.368.046-.874.046-1.518.046h-.874q-5.658 0-8.004-2.346c-.92-.874-1.518-1.932-1.84-3.128s-.46-2.806-.46-4.784V30.58c0-4.002.92-6.808 2.76-8.464 1.564-1.38 3.956-2.07 7.222-2.07h.644c3.22 0 5.566.782 6.946 2.3 1.472 1.656 2.208 4.37 2.208 8.234v2.392c0 .874-.46 1.288-1.334 1.288h-11.04v.368c0 1.104.276 1.84.92 2.254.598.414 1.702.598 3.358.598m-4.278-8.004h5.06c.368 0 .552-.184.552-.598v-.736c0-.92-.184-1.61-.46-2.116-.368-.552-1.104-.828-2.116-.828h-.414c-.92 0-1.564.23-1.932.644q-.69.828-.69 2.484zm26.865 8.004h.368c1.242 0 2.576-.184 4.002-.598.46-.092.736-.138.874-.138.46 0 .736.276.828.782l.414 2.346c.092.644.184 1.058.184 1.242 0 .552-.414.966-1.196 1.242-2.024.736-4.232 1.058-6.624 1.058h-.552c-3.312 0-5.75-.736-7.268-2.3q-2.346-2.346-2.346-7.866V30.58c0-2.162.184-3.864.552-5.06q.552-1.794 1.794-3.036c1.61-1.61 4.14-2.438 7.59-2.438h.46c2.76 0 5.152.506 7.084 1.518.552.322.874.69.874 1.15 0 .276-.138.736-.368 1.38l-.874 2.208q-.345.828-.966.828c-.184 0-.46-.046-.828-.23-1.472-.598-2.852-.92-4.094-.92h-.184c-1.196 0-2.07.322-2.622.874-.69.69-1.012 2.116-1.012 4.232v1.564c0 1.886.276 3.174.92 3.864.598.644 1.61.966 2.99.966m30.621-15.64c-.644 4.324-1.84 9.108-3.588 14.398-1.794 5.29-3.956 10.304-6.486 14.996-.322.644-.736.966-1.288.966-.368 0-.782-.092-1.334-.368l-2.346-1.012c-.828-.368-1.196-.736-1.196-1.15 0-.184.046-.46.23-.782 1.564-3.174 2.484-5.014 2.668-5.52-1.288-.46-2.254-1.472-2.99-3.128-.828-1.84-1.794-4.646-2.852-8.51q-1.587-5.796-2.346-9.936c-.092-.46-.046-.782.184-1.012.23-.184.644-.322 1.196-.322h4.186c.506 0 .874.092 1.104.23s.414.414.506.874c1.058 5.796 2.254 10.948 3.588 15.41h.23c1.288-3.68 2.484-8.74 3.588-15.272q.069-.69.414-.966c.23-.184.598-.276 1.058-.276h4.232c.506 0 .874.138 1.058.322s.23.552.184 1.058m17.758 21.484h-.432c-2.52 0-4.716-.324-6.588-1.008-.792-.252-1.152-.72-1.008-1.44l.468-2.916c.072-.72.504-.972 1.26-.72 2.088.756 4.032 1.116 5.76 1.116h.18c1.08 0 1.872-.144 2.34-.468.432-.288.684-.828.684-1.584v-.36c0-.72-.216-1.188-.576-1.476-.396-.252-1.152-.504-2.268-.72l-2.448-.468c-2.016-.36-3.456-1.08-4.248-2.088-.828-1.008-1.224-2.412-1.224-4.248v-1.008c0-2.016.54-3.528 1.62-4.608 1.296-1.296 3.708-1.944 7.164-1.944h.252c2.412 0 4.464.324 6.12.936.36.144.612.36.72.576.072.252.072.612-.036 1.044l-.612 2.628c-.144.648-.612.864-1.332.612q-2.484-.756-4.752-.756h-.144c-1.188 0-2.016.144-2.448.396-.468.288-.684.756-.684 1.404v.324c0 .576.144 1.008.468 1.224.288.252.936.468 1.872.648l2.736.54c2.16.432 3.636 1.116 4.464 1.98.792.864 1.224 2.376 1.224 4.5v.864c0 2.448-.684 4.212-2.016 5.328-1.332 1.152-3.492 1.692-6.516 1.692m16.164-16.416c1.26-1.224 3.06-1.872 5.364-1.872h.324c2.232 0 3.816.648 4.788 1.872.864 1.152 1.296 3.096 1.296 5.904v2.7c0 1.512-.144 2.772-.36 3.708-.252.936-.684 1.728-1.296 2.34-1.224 1.188-2.88 1.764-5.04 1.764h-.396q-2.052 0-3.348-.756v5.544c0 .54-.108.9-.288 1.044-.216.144-.612.216-1.224.216h-2.736c-.612 0-1.008-.072-1.224-.252-.216-.144-.288-.504-.288-1.008v-21.6c0-.432.072-.72.288-.9.18-.144.504-.252.972-.252h1.512c.432 0 .756.072.936.144.144.108.288.324.396.612l.252.792zm1.332 5.112v4.608c0 .828.144 1.404.504 1.728.324.324.864.468 1.62.468h.324c.828 0 1.404-.216 1.764-.72q.432-.648.432-3.132v-1.548c0-1.728-.144-2.808-.432-3.204-.36-.432-.936-.648-1.8-.648h-.252c-.792 0-1.332.18-1.692.54-.324.324-.468.972-.468 1.908m18.761.756v2.808c0 1.404.216 2.304.648 2.736.324.36.828.504 1.512.504h.144c.648 0 1.152-.144 1.512-.504.432-.432.648-1.332.648-2.736v-2.808c0-1.368-.216-2.304-.648-2.736-.36-.324-.864-.504-1.512-.504h-.144c-.684 0-1.188.18-1.512.504-.432.432-.648 1.368-.648 2.736m10.26.216v2.34c0 1.8-.18 3.168-.54 4.176s-.936 1.8-1.728 2.412c-1.188.936-3.024 1.404-5.544 1.404h-.432c-2.52 0-4.392-.468-5.544-1.404-.792-.612-1.368-1.404-1.728-2.412s-.54-2.376-.54-4.176v-2.304c0-1.764.18-3.132.54-4.14s.936-1.8 1.728-2.448c1.152-.936 3.024-1.404 5.544-1.404h.432c2.52 0 4.356.468 5.544 1.404a5.54 5.54 0 0 1 1.728 2.412c.36 1.008.54 2.376.54 4.14m14.35 6.624v2.052c0 .54-.108.9-.252 1.08s-.468.252-.9.252h-2.88c-2.592 0-4.32-.432-5.112-1.332-.72-.756-1.044-2.196-1.044-4.356V29.86h-1.944c-.36 0-.576-.036-.72-.18s-.18-.36-.18-.72v-1.836c0-.432.036-.72.18-.864.108-.144.36-.252.756-.36l1.908-.468v-3.528c0-.36.072-.612.252-.792.18-.144.504-.252.972-.252h3.312c.432 0 .756.108.936.252.18.18.288.432.288.792v3.456h2.988c.36 0 .576.072.72.216s.216.396.216.828v2.412q0 .648-.216.864c-.144.144-.36.18-.72.18h-2.988v6.804c0 .648.072 1.044.288 1.26.216.252.684.36 1.404.36h1.584c.432 0 .756.108.9.288s.252.54.252 1.044m8.556-13.212v15.552c0 .36-.108.648-.288.792-.18.18-.504.252-.936.252h-3.312c-.468 0-.792-.072-.972-.252-.18-.144-.252-.432-.252-.792V26.404c0-.36.072-.612.252-.792.18-.144.504-.252.972-.252h3.312c.432 0 .756.108.936.252.18.18.288.432.288.792m-2.664-2.412h-.432c-1.944 0-2.916-.972-2.916-2.988v-.18c0-1.98.972-2.988 2.916-2.988h.432c1.944 0 2.916 1.008 2.916 2.988v.18c0 2.016-.972 2.988-2.916 2.988m7.475 5.868h-1.944c-.36 0-.612-.036-.72-.144-.144-.108-.18-.36-.18-.756v-1.764c0-.432.036-.756.144-.9s.36-.288.792-.396l1.908-.468v-1.548c0-2.016.468-3.456 1.44-4.284q1.512-1.296 4.752-1.296h.36c1.44 0 2.664.144 3.744.396.36.108.612.252.72.432.072.18.108.468.072.864l-.216 2.268c-.072.36-.144.576-.252.648-.144.072-.396.108-.792.072-.936-.072-1.584-.144-2.016-.144h-.216c-.792 0-1.26.108-1.476.324-.252.252-.36.684-.36 1.26v.936h2.988c.36 0 .576.072.72.216s.216.396.216.828v2.412q0 .648-.216.864c-.144.144-.36.18-.72.18h-2.988v12.096c0 .36-.108.648-.288.792-.18.18-.504.252-.936.252h-3.312c-.468 0-.792-.072-.972-.252-.18-.144-.252-.432-.252-.792zm27.649-3.42c-.504 3.384-1.44 7.128-2.808 11.268-1.404 4.14-3.096 8.064-5.076 11.736-.252.504-.576.756-1.008.756-.288 0-.612-.072-1.044-.288l-1.836-.792c-.648-.288-.936-.576-.936-.9 0-.144.036-.36.18-.612 1.224-2.484 1.944-3.924 2.088-4.32-1.008-.36-1.764-1.152-2.34-2.448-.648-1.44-1.404-3.636-2.232-6.66q-1.242-4.536-1.836-7.776c-.072-.36-.036-.612.144-.792.18-.144.504-.252.936-.252h3.276c.396 0 .684.072.864.18s.324.324.396.684c.828 4.536 1.764 8.568 2.808 12.06h.18c1.008-2.88 1.944-6.84 2.808-11.952q.054-.54.324-.756c.18-.144.468-.216.828-.216h3.312c.396 0 .684.108.828.252s.18.432.144.828m18.764-2.196h-.468c-.504 0-1.008.036-1.584.072-.216.036-.288.18-.288.432v5.688h1.872c1.296 0 2.16-.18 2.664-.612.432-.36.648-1.044.648-2.124v-.9c0-.864-.216-1.512-.612-1.908-.432-.432-1.188-.648-2.232-.648m-2.34 11.124v6.516c0 .756-.432 1.116-1.26 1.116h-3.528c-.468 0-.792-.072-.972-.252-.216-.144-.288-.432-.288-.864v-20.7q0-.864.324-1.188c.216-.216.612-.36 1.26-.432 1.296-.108 3.312-.18 6.084-.18h.432c3.672 0 6.192.72 7.596 2.124 1.08 1.152 1.62 2.88 1.62 5.22v1.224c0 2.7-.756 4.608-2.268 5.688-1.584 1.152-3.996 1.728-7.272 1.728zm18.445-8.064h.108c.792-1.296 2.124-1.944 4.032-1.944h1.44c.36 0 .648.072.792.216s.252.396.252.792v2.628c0 .396-.072.648-.216.792q-.216.216-.756.216h-1.08c-1.332 0-2.232.252-2.736.756-.432.432-.612 1.26-.612 2.484v8.712c0 .36-.108.648-.288.792-.18.18-.504.252-.936.252h-3.312c-.468 0-.792-.072-.972-.252-.18-.144-.252-.432-.252-.792V26.368c0-.36.072-.612.252-.756s.504-.252.972-.252h1.728c.396 0 .684.072.864.18q.27.216.432.648zm17.181 11.376h.396c1.224 0 2.52-.144 3.816-.468.36-.072.576-.108.684-.108.36 0 .576.216.648.612l.288 1.8c.072.504.144.828.144.972 0 .432-.324.756-.936.972-1.656.576-3.492.864-5.436.864h-.684q-4.428 0-6.264-1.836a5.16 5.16 0 0 1-1.44-2.448c-.252-.936-.36-2.196-.36-3.744V33.28c0-3.132.72-5.328 2.16-6.624 1.224-1.08 3.096-1.62 5.652-1.62h.504c2.52 0 4.356.612 5.436 1.8 1.152 1.296 1.728 3.42 1.728 6.444v1.872c0 .684-.36 1.008-1.044 1.008h-8.64v.288c0 .864.216 1.44.72 1.764.468.324 1.332.468 2.628.468m-3.348-6.264h3.96c.288 0 .432-.144.432-.468v-.576c0-.72-.144-1.26-.36-1.656-.288-.432-.864-.648-1.656-.648h-.324c-.72 0-1.224.18-1.512.504q-.54.648-.54 1.944zm28.297-.648v10.188c0 .36-.108.648-.288.792-.18.18-.504.252-.936.252h-3.312c-.468 0-.792-.072-.972-.252-.18-.144-.252-.432-.252-.792V31.768c0-.792-.144-1.368-.396-1.656-.288-.288-.828-.468-1.584-.468h-.072c-.792 0-1.296.18-1.584.468s-.396.864-.396 1.656v10.188c0 .36-.108.648-.288.792-.18.18-.504.252-.936.252h-3.312c-.468 0-.792-.072-.972-.252-.18-.144-.252-.432-.252-.792V26.368c0-.36.072-.612.252-.756s.504-.252.972-.252h1.692c.432 0 .72.072.9.18q.27.162.432.648l.216.684h.108c1.152-1.224 2.772-1.836 4.932-1.836h.144c2.052 0 3.636.576 4.752 1.656 1.152-1.08 2.808-1.656 4.896-1.656h.144c2.088 0 3.636.504 4.572 1.476.864.936 1.332 2.52 1.332 4.752v10.692c0 .36-.108.648-.288.792-.18.18-.504.252-.936.252h-3.312c-.468 0-.792-.072-.972-.252-.18-.144-.252-.432-.252-.792V31.768c0-.792-.144-1.368-.396-1.656-.288-.288-.828-.468-1.584-.468h-.072c-.792 0-1.296.18-1.584.468s-.396.864-.396 1.656m19.037-5.364v15.552c0 .36-.108.648-.288.792-.18.18-.504.252-.936.252h-3.312c-.468 0-.792-.072-.972-.252-.18-.144-.252-.432-.252-.792V26.404c0-.36.072-.612.252-.792.18-.144.504-.252.972-.252h3.312c.432 0 .756.108.936.252.18.18.288.432.288.792m-2.664-2.412h-.432c-1.944 0-2.916-.972-2.916-2.988v-.18c0-1.98.972-2.988 2.916-2.988h.432c1.944 0 2.916 1.008 2.916 2.988v.18c0 2.016-.972 2.988-2.916 2.988m15.863 12.564V26.404c0-.36.072-.612.252-.792.18-.144.504-.252.972-.252h3.312c.432 0 .756.108.936.252.18.18.288.432.288.792V37.06q0 3.294-1.62 4.752c-1.152 1.008-3.168 1.512-6.12 1.512s-5.004-.504-6.12-1.512q-1.62-1.458-1.62-4.752V26.404c0-.36.072-.612.252-.792.18-.144.504-.252.972-.252h3.312c.432 0 .756.108.936.252.18.18.288.432.288.792v10.152c0 .828.108 1.368.396 1.656.288.324.792.468 1.584.468.756 0 1.296-.144 1.584-.468.252-.288.396-.828.396-1.656m24.717-4.788v10.188c0 .36-.108.648-.288.792-.18.18-.504.252-.936.252h-3.312c-.468 0-.792-.072-.972-.252-.18-.144-.252-.432-.252-.792V31.768c0-.792-.144-1.368-.396-1.656-.288-.288-.828-.468-1.584-.468h-.072c-.792 0-1.296.18-1.584.468s-.396.864-.396 1.656v10.188c0 .36-.108.648-.288.792-.18.18-.504.252-.936.252h-3.312c-.468 0-.792-.072-.972-.252-.18-.144-.252-.432-.252-.792V26.368c0-.36.072-.612.252-.756s.504-.252.972-.252h1.692c.432 0 .72.072.9.18q.27.162.432.648l.216.684h.108c1.152-1.224 2.772-1.836 4.932-1.836h.144c2.052 0 3.636.576 4.752 1.656 1.152-1.08 2.808-1.656 4.896-1.656h.144c2.088 0 3.636.504 4.572 1.476.864.936 1.332 2.52 1.332 4.752v10.692c0 .36-.108.648-.288.792-.18.18-.504.252-.936.252h-3.312c-.468 0-.792-.072-.972-.252-.18-.144-.252-.432-.252-.792V31.768c0-.792-.144-1.368-.396-1.656-.288-.288-.828-.468-1.584-.468h-.072c-.792 0-1.296.18-1.584.468s-.396.864-.396 1.656"/></svg>