<svg xmlns="http://www.w3.org/2000/svg" fill="none" viewBox="0 0 240 43"><path fill="#fff" d="M7.668 17.404v15.552c0 .36-.108.648-.288.792-.18.18-.504.252-.936.252H3.132c-.468 0-.792-.072-.972-.252-.18-.144-.252-.432-.252-.792V17.404c0-.36.072-.612.252-.792.18-.144.504-.252.972-.252h3.312c.432 0 .756.108.936.252.18.18.288.432.288.792m-2.664-2.412h-.432c-1.944 0-2.916-.972-2.916-2.988v-.18c0-1.98.972-2.988 2.916-2.988h.432c1.944 0 2.916 1.008 2.916 2.988v.18c0 2.016-.972 2.988-2.916 2.988m20.067 5.94h-5.724c-.36 0-.612-.036-.756-.18s-.18-.432-.18-.864v-2.484c0-.432.036-.684.18-.828q.216-.216.756-.216h12.168c.36 0 .612.072.792.216.144.144.252.432.252.828v.684c0 .936-.288 1.8-.792 2.556l-6.192 8.784h6.156c.36 0 .576.072.72.216s.216.396.216.828v2.484q0 .648-.216.864c-.144.144-.36.18-.72.18H19.347c-.756 0-1.116-.324-1.116-1.044v-.828c0-.936.252-1.764.792-2.556zM43.05 32.344h-.972c-5.112 0-7.632-2.304-7.632-6.948v-2.412c0-2.376.612-4.104 1.872-5.256 1.224-1.116 3.132-1.692 5.652-1.692h.504c.468-2.592 2.376-3.924 5.76-3.924h1.764c.36 0 .576.072.72.18.108.144.18.396.18.756v1.98c0 .36-.072.576-.216.684-.144.144-.396.18-.72.18H48.27c-.792 0-1.332.18-1.656.54 2.7.72 4.068 2.916 4.068 6.552v2.412c0 2.592-.72 4.32-2.124 5.256.936.504 1.656 1.152 2.196 1.944s.828 1.656.828 2.556v.252c0 3.564-2.844 5.328-8.46 5.328h-.684c-2.448 0-4.824-.432-7.056-1.296-.648-.216-.9-.684-.72-1.368l.648-2.304c.18-.684.612-.936 1.296-.72 2.124.72 3.996 1.044 5.652 1.044h.504q3.132 0 3.132-1.836v-.108c0-.684-.36-1.296-1.08-1.872-.576.072-1.188.072-1.764.072m-.612-4.5h.252c.792 0 1.332-.144 1.692-.504.396-.396.612-1.224.612-2.448v-1.404c0-1.224-.216-2.016-.612-2.448-.36-.324-.9-.504-1.692-.504h-.252c-.792 0-1.368.18-1.692.504-.432.432-.612 1.224-.612 2.448v1.404c0 1.224.18 2.052.612 2.448.324.36.9.504 1.692.504m21.868 4.68h-.072c-.792 1.224-2.376 1.8-4.716 1.8h-.54c-1.836 0-3.276-.468-4.284-1.404-1.044-.936-1.548-2.34-1.548-4.14v-.396c0-1.944.54-3.348 1.656-4.14s2.916-1.188 5.436-1.188h.252c.936 0 1.8.072 2.52.144v-.756c0-.756-.216-1.296-.612-1.584-.432-.252-1.152-.396-2.16-.396-1.224 0-2.592.216-4.176.612-.432.108-.756.108-.9 0-.18-.108-.288-.324-.324-.684l-.288-1.908c-.072-.324-.072-.576-.072-.72 0-.432.288-.756.864-.936 1.836-.504 3.888-.792 6.156-.792 2.772 0 4.752.612 5.904 1.764.9.936 1.368 2.448 1.368 4.5v10.692c0 .36-.108.648-.288.792s-.504.216-.936.216h-1.692c-.432 0-.72-.036-.9-.144s-.324-.324-.432-.684zm-1.296-4.608v-1.008q-.594-.108-1.728-.108h-.396q-1.296 0-1.836.324c-.36.216-.504.648-.504 1.296v.144c0 .648.144 1.08.504 1.296.324.252.828.36 1.512.36h.252c.72 0 1.26-.18 1.692-.54.324-.288.504-.9.504-1.764m13.71-9.612h.108c.792-1.296 2.124-1.944 4.032-1.944h1.44c.36 0 .648.072.792.216s.252.396.252.792v2.628c0 .396-.072.648-.216.792q-.216.216-.756.216h-1.08c-1.332 0-2.232.252-2.736.756-.432.432-.612 1.26-.612 2.484v8.712c0 .36-.108.648-.288.792-.18.18-.504.252-.936.252h-3.312c-.468 0-.792-.072-.972-.252-.18-.144-.252-.432-.252-.792V17.368c0-.36.072-.612.252-.756s.504-.252.972-.252h1.728c.396 0 .684.072.864.18q.27.216.432.648zm18.257-2.268h.288c2.088 0 3.636.504 4.572 1.476.864.936 1.332 2.52 1.332 4.752v10.692c0 .36-.108.648-.288.792-.18.18-.504.252-.936.252h-3.312c-.468 0-.792-.072-.972-.252-.18-.144-.252-.432-.252-.792V22.768c0-.792-.144-1.368-.396-1.656-.288-.288-.828-.468-1.584-.468h-.216c-.792 0-1.296.18-1.584.468s-.396.864-.396 1.656v10.188c0 .36-.108.648-.288.792-.18.18-.504.252-.936.252h-3.312c-.468 0-.792-.072-.972-.252-.18-.144-.252-.432-.252-.792V17.368c0-.36.072-.612.252-.756s.504-.252.972-.252h1.692c.432 0 .72.072.9.18q.27.162.432.648l.216.684h.108c1.152-1.224 2.772-1.836 4.932-1.836m15.453 1.368v15.552c0 .36-.108.648-.288.792-.18.18-.504.252-.936.252h-3.312c-.468 0-.792-.072-.972-.252-.18-.144-.252-.432-.252-.792V17.404c0-.36.072-.612.252-.792.18-.144.504-.252.972-.252h3.312c.432 0 .756.108.936.252.18.18.288.432.288.792m-2.664-2.412h-.432c-1.944 0-2.916-.972-2.916-2.988v-.18c0-1.98.972-2.988 2.916-2.988h.432c1.944 0 2.916 1.008 2.916 2.988v.18c0 2.016-.972 2.988-2.916 2.988m5.746 25.416h-2.088c-.36 0-.648-.072-.792-.252-.144-.144-.216-.468-.216-.9v-2.52c0-.36.072-.648.216-.792s.432-.252.792-.252h.9c.648 0 1.152-.144 1.476-.504.288-.288.432-1.044.432-2.232V17.404c0-.36.072-.612.252-.792.18-.144.504-.252.972-.252h3.312c.432 0 .756.108.936.252.18.18.288.432.288.792v15.948c0 2.592-.468 4.392-1.404 5.436q-1.458 1.62-5.076 1.62m3.816-25.416h-.432c-1.944 0-2.916-.972-2.916-2.988v-.18c0-1.98.972-2.988 2.916-2.988h.432c1.944 0 2.916 1.008 2.916 2.988v.18c0 2.016-.972 2.988-2.916 2.988m21.687 14.328h1.152c.36 0 .648.108.792.252.144.18.252.504.252.972v2.232c0 .504-.108.828-.252.972-.144.18-.432.252-.792.252h-2.736c-1.8 0-3.06-.324-3.78-1.044-.72-.684-1.08-1.908-1.08-3.636v-3.888l-1.188.756c-.468.288-.792.432-.936.432-.288 0-.396-.216-.396-.648v-3.348c0-.36.036-.612.18-.792.108-.144.324-.36.684-.612l1.656-1.044v-9.504c0-.36.072-.612.252-.792.18-.144.504-.252.972-.252h3.312c.432 0 .756.108.936.252.18.18.288.432.288.792v5.832l1.62-1.044c.432-.288.756-.432.936-.432.252 0 .396.216.396.648v3.348c0 .36-.072.648-.18.792a3 3 0 0 1-.684.612l-2.088 1.332v6.876c0 .288.036.468.144.54.072.108.252.144.54.144m14.975 3.204h-.072c-.792 1.224-2.376 1.8-4.716 1.8h-.54c-1.836 0-3.276-.468-4.284-1.404-1.044-.936-1.548-2.34-1.548-4.14v-.396c0-1.944.54-3.348 1.656-4.14s2.916-1.188 5.436-1.188h.252c.936 0 1.8.072 2.52.144v-.756c0-.756-.216-1.296-.612-1.584-.432-.252-1.152-.396-2.16-.396-1.224 0-2.592.216-4.176.612-.432.108-.756.108-.9 0-.18-.108-.288-.324-.324-.684l-.288-1.908c-.072-.36-.072-.612-.072-.72 0-.432.288-.756.864-.936 1.836-.504 3.888-.792 6.156-.792 2.772 0 4.752.612 5.904 1.764.9.936 1.368 2.448 1.368 4.5v10.692c0 .54-.216.864-.576 1.008-.9.36-1.656.864-2.232 1.512-.612.648-.9 1.332-.9 2.016v.108q0 .972.972.972h.108c.432 0 .972-.072 1.548-.288.18-.036.324-.072.432-.072.18 0 .324.18.432.468l.18.756c.108.504.18.756.18.828 0 .216-.18.396-.504.54q-1.404.54-2.916.54h-.216c-1.224 0-2.196-.252-2.844-.792s-.972-1.296-.972-2.232v-.18c0-.864.288-1.692.9-2.484.576-.792 1.368-1.44 2.304-1.944zm-1.296-4.608v-1.008q-.594-.108-1.728-.108h-.396q-1.296 0-1.836.324c-.36.216-.504.648-.504 1.296v.144c0 .648.144 1.08.504 1.296.324.252.828.36 1.512.36h.252c.72 0 1.26-.18 1.692-.54.324-.288.504-.9.504-1.764m17.594 1.764h.288c.972 0 2.016-.144 3.132-.468.36-.072.576-.108.684-.108.36 0 .576.216.648.612l.324 1.836c.072.504.144.828.144.972 0 .432-.324.756-.936.972-1.584.576-3.312.828-5.184.828h-.432c-2.592 0-4.5-.576-5.688-1.8q-1.836-1.836-1.836-6.156V24.28c0-1.692.144-3.024.432-3.96q.432-1.404 1.404-2.376c1.26-1.26 3.24-1.908 5.94-1.908h.36c2.16 0 4.032.396 5.544 1.188.432.252.684.54.684.9 0 .216-.108.576-.288 1.08l-.684 1.728q-.27.648-.756.648c-.144 0-.36-.036-.648-.18-1.152-.468-2.232-.72-3.204-.72h-.144c-.936 0-1.62.252-2.052.684-.54.54-.792 1.656-.792 3.312V25.9c0 1.476.216 2.484.72 3.024.468.504 1.26.756 2.34.756m13.936-8.748H178.5c-.36 0-.612-.036-.756-.18s-.18-.432-.18-.864v-2.484c0-.432.036-.684.18-.828q.216-.216.756-.216h12.168c.36 0 .612.072.792.216.144.144.252.432.252.828v.684c0 .936-.288 1.8-.792 2.556l-6.192 8.784h6.156c.36 0 .576.072.72.216s.216.396.216.828v2.484q0 .648-.216.864c-.144.144-.36.18-.72.18H178.5c-.756 0-1.116-.324-1.116-1.044v-.828c0-.936.252-1.764.792-2.556zm19.526-4.896h.288c2.088 0 3.636.504 4.572 1.476.864.936 1.332 2.52 1.332 4.752v10.692c0 .36-.108.648-.288.792-.18.18-.504.252-.936.252h-3.312c-.468 0-.792-.072-.972-.252-.18-.144-.252-.432-.252-.792V22.768c0-.792-.144-1.368-.396-1.656-.288-.288-.828-.468-1.584-.468h-.216c-.792 0-1.296.18-1.584.468s-.396.864-.396 1.656v10.188c0 .36-.108.648-.288.792-.18.18-.504.252-.936.252h-3.312c-.468 0-.792-.072-.972-.252-.18-.144-.252-.432-.252-.792V17.368c0-.36.072-.612.252-.756s.504-.252.972-.252h1.692c.432 0 .72.072.9.18q.27.162.432.648l.216.684h.108c1.152-1.224 2.772-1.836 4.932-1.836m15.453 1.368v15.552c0 .36-.108.648-.288.792-.18.18-.504.252-.936.252h-3.312c-.468 0-.792-.072-.972-.252-.18-.144-.252-.432-.252-.792V17.404c0-.36.072-.612.252-.792.18-.144.504-.252.972-.252h3.312c.432 0 .756.108.936.252.18.18.288.432.288.792m-2.664-2.412h-.432c-1.944 0-2.916-.972-2.916-2.988v-.18c0-1.98.972-2.988 2.916-2.988h.432c1.944 0 2.916 1.008 2.916 2.988v.18c0 2.016-.972 2.988-2.916 2.988m14.963 14.688h.396c1.224 0 2.52-.144 3.816-.468.36-.072.576-.108.684-.108.36 0 .576.216.648.612l.288 1.8c.072.504.144.828.144.972 0 .432-.324.756-.936.972-1.656.576-3.492.864-5.436.864h-.684q-4.428 0-6.264-1.836a5.16 5.16 0 0 1-1.44-2.448c-.252-.936-.36-2.196-.36-3.744V24.28c0-3.132.72-5.328 2.16-6.624 1.224-1.08 3.096-1.62 5.652-1.62h.504c2.52 0 4.356.612 5.436 1.8 1.152 1.296 1.728 3.42 1.728 6.444v1.872c0 .684-.36 1.008-1.044 1.008h-8.64v.288c0 .864.216 1.44.72 1.764.468.324 1.332.468 2.628.468m-3.348-6.264h3.96c.288 0 .432-.144.432-.468v-.576c0-.72-.144-1.26-.36-1.656-.288-.432-.864-.648-1.656-.648h-.324c-.72 0-1.224.18-1.512.504q-.54.648-.54 1.944z"/></svg>