<svg xmlns="http://www.w3.org/2000/svg" fill="none" viewBox="0 0 215 26"><path fill="#fff" d="M5.222 2.835v.588H1.976v-.588zm.51 0v7.998h-.625V2.835zm-3.976 0h.626l-.17 3.703q-.044.912-.116 1.615a8 8 0 0 1-.203 1.214 2.9 2.9 0 0 1-.33.83 1.3 1.3 0 0 1-.5.483 1.55 1.55 0 0 1-.719.153H.135v-.587l.176-.006a1 1 0 0 0 .467-.126.9.9 0 0 0 .335-.374q.143-.258.23-.686a9 9 0 0 0 .155-1.077q.06-.644.099-1.527zm9.298 7.41v.588H7.318v-.587zm-3.565-7.41v7.998h-.626V2.835zm3.098 3.582v.588H7.318v-.588zm.44-3.582v.588H7.317v-.588zm1.305 0v7.998H11.7V2.835zm4.191 0-2.966 4.252h-1.478l-.066-.593h1.17l2.555-3.659zm-.577 7.998-2.774-3.828.357-.6 3.192 4.428zm3.459-7.514-2.302 7.514h-.648L19 2.835h.444zm2.07 7.514L19.17 3.32l-.028-.484h.44l2.543 7.998zm-.362-2.823v.588H17.51V8.01zm3.75-.429h-1.895v-.587h1.895q.588 0 .95-.231.363-.236.528-.632.17-.401.17-.895 0-.489-.17-.901a1.4 1.4 0 0 0-.527-.66q-.363-.252-.95-.252h-1.698v7.41h-.626V2.835h2.323q.736 0 1.242.302.51.303.769.84.263.54.263 1.248 0 .736-.258 1.269a1.8 1.8 0 0 1-.763.807q-.506.28-1.253.28m7.112.758h.632q-.056.896-.363 1.473-.307.576-.846.857-.533.28-1.28.28-.576 0-1.038-.226a2.24 2.24 0 0 1-.791-.648 3.2 3.2 0 0 1-.5-1.038 5 5 0 0 1-.17-1.373V5.95q0-.752.17-1.346.176-.599.505-1.016.336-.423.808-.643t1.06-.22q.725 0 1.253.275.533.275.834.852.302.576.358 1.488h-.632q-.05-.735-.264-1.18a1.32 1.32 0 0 0-.593-.644q-.384-.203-.956-.203-.46 0-.818.182-.352.176-.6.516a2.4 2.4 0 0 0-.367.824q-.126.483-.127 1.104v1.725q0 .609.116 1.11.12.494.351.85.237.358.583.55.351.187.818.187.594 0 .978-.187a1.3 1.3 0 0 0 .604-.626q.22-.445.275-1.209m3.541-5.504v7.998h-.62V2.835zm2.28 0v.588h-5.17v-.588zm2.838 4.153h-1.857l-.011-.577h1.61q.483 0 .818-.17.341-.17.516-.505.182-.336.182-.824 0-.505-.176-.835a1.06 1.06 0 0 0-.522-.49q-.346-.164-.873-.164h-1.39v7.41h-.626V2.835h2.016q.51 0 .917.127.412.12.697.379.286.252.434.648.154.396.154.94 0 .493-.192.89a1.7 1.7 0 0 1-1.351.961zm-.044 3.845h-2.027l.335-.587h1.692q.483 0 .824-.198.34-.204.521-.571a2 2 0 0 0 .187-.89 2 2 0 0 0-.159-.813 1.26 1.26 0 0 0-.489-.572q-.33-.213-.84-.214h-1.198l.011-.577h1.675l.121.21q.462.054.797.329.34.274.527.697t.187.929q0 .73-.275 1.236a1.9 1.9 0 0 1-.758.763q-.484.258-1.131.258m7.15-.587v.587h-3.736v-.587zm-3.565-7.41v7.997h-.626V2.835zm3.098 3.58v.589h-3.269v-.588zm.44-3.58v.587h-3.709v-.588zm5.139 3.58v.589h-3.994v-.588zm-3.862-3.58v7.997h-.626V2.835zm4.384 0v7.997h-.632V2.835zm5.612 3.58v.589h-3.994v-.588zm-3.862-3.58v7.997h-.626V2.835zm4.384 0v7.997h-.632V2.835zm1.563 3.46h1.857q.73 0 1.225.286.5.28.752.79.253.506.253 1.182 0 .499-.148.923a2 2 0 0 1-.423.72q-.28.3-.698.472-.417.165-.961.164h-2.285V2.835h.632v7.41h1.653q.566 0 .923-.236t.516-.626q.165-.39.165-.84 0-.446-.165-.819a1.33 1.33 0 0 0-.516-.61q-.357-.23-.923-.23h-1.857zm5.774-3.46v7.997h-.632V2.835zm1.81 6.805 3.73-6.806h.62v7.998h-.62V4.016l-3.73 6.817h-.626V2.835h.626zM71.578.87h.56q0 .417-.192.736a1.3 1.3 0 0 1-.544.5q-.351.18-.846.181-.741 0-1.17-.395-.423-.396-.423-1.022h.566q0 .378.23.659.231.275.797.275.55 0 .785-.28a.98.98 0 0 0 .237-.654m9.318 1.966v7.998h-.632v-7.41h-3.708v7.41h-.632V2.835zm3.464 4.746h-1.895v-.587h1.895q.588 0 .95-.231.363-.236.528-.632a2.3 2.3 0 0 0 .17-.895q0-.489-.17-.901a1.4 1.4 0 0 0-.528-.66q-.363-.252-.95-.252h-1.698v7.41h-.626V2.835h2.324q.735 0 1.241.302.51.303.77.84.263.54.263 1.248 0 .736-.258 1.269-.258.527-.764.807-.505.28-1.252.28m7.144 2.665v.587H87.77v-.587zm-3.565-7.41v7.997h-.626V2.835zm3.099 3.58v.589h-3.269v-.588zm.439-3.58v.587h-3.708v-.588zm5.645 0v7.997h-.632v-7.41h-3.708v7.41h-.631V2.835zm3.393.483-2.302 7.514h-.648l2.543-7.998h.445zm2.071 7.514-2.307-7.514-.028-.484h.44l2.543 7.998zm-.363-2.823v.588H98.62V8.01zm3.75-.429h-1.895v-.587h1.895q.588 0 .95-.231.363-.236.528-.632.17-.401.17-.895 0-.489-.17-.901a1.4 1.4 0 0 0-.528-.66q-.362-.252-.95-.252h-1.697v7.41h-.627V2.835h2.324q.736 0 1.242.302.51.303.769.84.263.54.263 1.248 0 .736-.258 1.269a1.8 1.8 0 0 1-.764.807q-.505.28-1.252.28m4.448-4.262-2.302 7.514h-.648l2.543-7.998h.445zm2.07 7.514-2.307-7.514-.027-.484h.439l2.544 7.998zm-.362-2.823v.588h-3.604V8.01zm3.003-5.175v7.998h-.621V2.835zm2.279 0v.588h-5.169v-.588zm-.837 7.592q0-.192.121-.33a.43.43 0 0 1 .341-.137q.22 0 .346.137a.47.47 0 0 1 .126.33.45.45 0 0 1-.126.324.46.46 0 0 1-.346.132.44.44 0 0 1-.341-.132.47.47 0 0 1-.121-.324m8.786-7.592v7.998h-.632v-7.41h-3.708v7.41h-.632V2.835zm5.331 7.41v.588h-3.735v-.587zm-3.565-7.41v7.998h-.626V2.835zm3.098 3.582v.588h-3.268v-.588zm.44-3.582v.588h-3.708v-.588zm2.975 4.746h-1.895v-.587h1.895q.588 0 .951-.231a1.37 1.37 0 0 0 .527-.632q.17-.401.17-.895 0-.489-.17-.901a1.42 1.42 0 0 0-.527-.66q-.363-.252-.951-.252h-1.697v7.41h-.626V2.835h2.323q.737 0 1.242.302.51.303.769.84.263.54.263 1.248 0 .736-.258 1.269-.258.527-.763.807-.506.28-1.253.28m7.145 2.665v.587h-3.735v-.587zm-3.565-7.41v7.997h-.626V2.835zm3.098 3.58v.589h-3.268v-.588zm.439-3.58v.587h-3.707v-.588zm5.865 7.41v.587h-5.24v-.587zm-5.114 0v2.532h-.626v-2.532zm5.647 0v2.527h-.626v-2.527zm-1.252-7.41v.587h-3.033v-.588zm.51 0v7.997h-.626V2.835zm-3.768 0h.621l-.11 2.894a13.8 13.8 0 0 1-.363 2.642 7 7 0 0 1-.302.973q-.165.428-.351.741a2.7 2.7 0 0 1-.368.5.94.94 0 0 1-.357.247h-.357v-.587h.291a3 3 0 0 0 .285-.45q.177-.315.357-.847a9 9 0 0 0 .33-1.33q.148-.795.198-1.889zm11.828 0v7.997h-.631v-7.41h-3.708v7.41h-.632V2.835zm3.465 4.745h-1.896v-.587h1.896q.587 0 .95-.231.363-.236.527-.632a2.3 2.3 0 0 0 .171-.895q0-.489-.171-.901a1.4 1.4 0 0 0-.527-.66q-.363-.252-.95-.252h-1.698v7.41h-.626V2.835h2.324q.735 0 1.241.302.511.303.769.84.264.54.264 1.248 0 .736-.258 1.269-.259.527-.764.807t-1.252.28m3.601 2.06 3.73-6.806h.621v7.998h-.621V4.016l-3.73 6.817h-.626V2.835h.626zm5.7-6.806h.632l2.422 7.032 2.434-7.032h.62l-2.807 7.998h-.483zm-.192 0h.549l.077 4.516v3.482h-.626zm5.954 0h.555v7.998h-.626V7.351zm5.865 7.41v.588h-3.735v-.587zm-3.565-7.41v7.998h-.626V2.835zm3.098 3.582v.588h-3.268v-.588zm.44-3.582v.588h-3.708v-.588zm5.139 3.582v.588h-3.993v-.588zm-3.861-3.582v7.998h-.627V2.835zm4.383 0v7.998h-.632V2.835zm5.316 7.41v.588h-3.736v-.587zm-3.566-7.41v7.998h-.626V2.835zm3.099 3.582v.588h-3.269v-.588zm.439-3.582v.588h-3.708v-.588zm5.14 3.582v.588h-3.994v-.588zm-3.862-3.582v7.998h-.626V2.835zm4.384 0v7.998h-.632V2.835zm1.772 6.806 3.73-6.806h.62v7.998h-.62V4.016l-3.73 6.817h-.626V2.835h.626zm9.699.605v.587h-3.736v-.587zm-3.565-7.41v7.997h-.626V2.835zm3.098 3.58v.589h-3.269v-.588zm.439-3.58v.587h-3.708v-.588zm.844 0h.632l2.423 7.03 2.433-7.03h.621l-2.807 7.997h-.484zm-.192 0h.549l.077 4.515v3.482h-.626zm5.955 0h.554v7.997h-.626V7.351zm-207.722 13v7.997h-.632v-7.41H1.437v7.41H.806v-7.998zM9.24 20.58H7.346v-.587H9.24q.588 0 .95-.231.363-.237.528-.632.17-.401.17-.895 0-.489-.17-.901a1.4 1.4 0 0 0-.528-.66q-.362-.252-.95-.252H7.544v7.41h-.627v-7.998h2.324q.736 0 1.242.302.51.303.769.84.263.54.263 1.248 0 .735-.258 1.269-.258.527-.764.807-.504.28-1.252.28m7.903-1.61v1.731q0 .797-.181 1.406-.177.604-.511 1.011-.33.407-.808.621-.478.21-1.076.209-.594 0-1.072-.209a2.3 2.3 0 0 1-.813-.62 2.9 2.9 0 0 1-.527-1.012 5 5 0 0 1-.181-1.406v-1.73q0-.79.181-1.4.18-.61.516-1.017.34-.407.813-.615a2.6 2.6 0 0 1 1.072-.214q.599-.001 1.076.214.479.209.819.615t.516 1.016.176 1.4m-.621 1.731v-1.741q0-.66-.132-1.148a2.3 2.3 0 0 0-.373-.824 1.55 1.55 0 0 0-.616-.495 2.05 2.05 0 0 0-.845-.164q-.462 0-.83.165-.363.164-.615.494-.247.33-.38.824a4.4 4.4 0 0 0-.131 1.148v1.741q0 .665.132 1.16.132.488.384.823.259.33.621.495.368.165.83.165.477 0 .84-.165.367-.165.615-.495.248-.335.374-.824.126-.495.126-1.159m1.46-4.867h.625v2.22q0 .691.182 1.104.186.411.544.593.362.18.895.181.264 0 .522-.027a5.6 5.6 0 0 0 1-.198q.246-.071.488-.16v.594q-.23.082-.461.154a5.151 5.151 0 0 1-1.55.225q-.708 0-1.213-.242a1.65 1.65 0 0 1-.77-.785q-.263-.544-.263-1.44zm4.064 0h.62v7.998h-.62zm2.404 6.806 3.73-6.806h.62v7.998h-.62v-6.817l-3.73 6.817h-.626v-7.998h.626zm7.634-6.806v7.998h-.621v-7.998zm2.28 0v.588h-5.17v-.588zm2.321.484-2.302 7.514h-.648l2.544-7.998h.444zm2.07 7.514L36.45 16.32l-.028-.484h.44l2.543 7.998zm-.362-2.823v.588h-3.603v-.588zm2.075 1.631 3.73-6.806h.62v7.998h-.62v-6.817l-3.73 6.817h-.626v-7.998h.626zm2.922-8.772h.56q0 .418-.192.736a1.3 1.3 0 0 1-.544.5q-.351.18-.846.181-.741 0-1.17-.396-.423-.395-.423-1.021h.566q0 .378.23.659.232.275.797.275.55 0 .786-.28a.98.98 0 0 0 .236-.654m4.876 1.966v7.998h-.62v-7.998zm2.28 0v.588h-5.17v-.588zm4.7 7.41v.588h-3.735v-.587zm-3.565-7.41v7.998h-.626v-7.998zm3.098 3.582v.588h-3.268v-.588zm.44-3.582v.588h-3.708v-.588zm3.039 6.806 3.73-6.806h.62v7.998h-.62v-6.817l-3.73 6.817h-.626v-7.998h.626zm9.995-3.224v.588h-3.993v-.588zm-3.861-3.582v7.998h-.627v-7.998zm4.383 0v7.998h-.632v-7.998zm5.283 5.505h.631q-.054.894-.362 1.472-.307.576-.846.857-.533.28-1.28.28-.577 0-1.038-.226a2.24 2.24 0 0 1-.791-.648 3.2 3.2 0 0 1-.5-1.038 5.1 5.1 0 0 1-.17-1.373V18.95q0-.752.17-1.346.175-.599.505-1.016.336-.423.808-.643t1.06-.22q.724 0 1.252.275.534.274.835.852.302.576.357 1.488h-.631q-.05-.735-.264-1.18a1.32 1.32 0 0 0-.593-.643q-.385-.204-.956-.204-.461 0-.819.181-.351.177-.598.517a2.4 2.4 0 0 0-.368.824q-.127.483-.127 1.104v1.725q0 .609.116 1.11.12.494.351.85.237.358.582.55.352.187.819.187.593 0 .978-.187a1.3 1.3 0 0 0 .604-.626q.22-.446.275-1.208m3.54-5.505v7.998h-.62v-7.998zm2.28 0v.588H74.71v-.588zm2.833 4.746h-1.895v-.587h1.895q.588 0 .95-.231.363-.237.528-.632a2.3 2.3 0 0 0 .17-.895q0-.489-.17-.901a1.4 1.4 0 0 0-.528-.66q-.363-.252-.95-.252h-1.698v7.41h-.626v-7.998h2.324q.735 0 1.241.302.51.303.77.84.263.54.263 1.248 0 .735-.258 1.269-.258.527-.764.807-.505.28-1.252.28m5.107.566 1.939-5.312h.736L87.96 22.46q-.099.237-.22.5-.12.258-.307.483-.18.225-.45.368-.27.138-.654.138-.105 0-.247-.022a1 1 0 0 1-.192-.039l.043-.566q.06.017.187.028.132.01.209.011.29 0 .478-.148.192-.154.318-.396.132-.241.237-.51zm-2.005-5.312L88 21.103l.181.615-.538.116-2.543-5.999zm5.87 0v7.998h-.632v-7.998zm4.191 0-2.966 4.252H91.43l-.066-.593h1.17l2.555-3.659zm-.577 7.998-2.774-3.828.357-.6 3.192 4.428zm6.826-.598-.049 2.527h-.571v-1.929h-.665v-.598zm-5.636.598v-7.998h.632v7.41h3.708v-7.41h.632v7.998zm6.876-1.192 3.73-6.806h.62v7.998h-.62v-6.817l-3.73 6.817h-.626v-7.998h.626zm6.238-6.806v7.998h-.632v-7.998zm1.604 3.67v.571h-1.675v-.571zm4.801-.533v1.73q0 .797-.181 1.406-.176.604-.511 1.011a2.2 2.2 0 0 1-.813.621q-.479.21-1.077.209-.588 0-1.065-.209a2.26 2.26 0 0 1-.819-.62 2.9 2.9 0 0 1-.527-1.012 5 5 0 0 1-.181-1.406v-1.73q0-.79.181-1.4t.516-1.017q.34-.407.819-.615a2.6 2.6 0 0 1 1.065-.214q.605-.001 1.082.214.479.209.813.615.336.406.517 1.016t.181 1.4m-.626 1.73v-1.741q0-.66-.132-1.148a2.3 2.3 0 0 0-.374-.824 1.54 1.54 0 0 0-.615-.495 2.05 2.05 0 0 0-.846-.164q-.466 0-.835.165-.362.164-.609.494-.248.33-.379.824a4.4 4.4 0 0 0-.132 1.148v1.741q0 .665.126 1.16.132.488.39.823.258.33.621.495t.829.165q.478 0 .841-.165.367-.165.615-.495.247-.335.374-.824.126-.495.126-1.159m1.344 2.725a.48.48 0 0 1 .121-.33.43.43 0 0 1 .34-.137q.22 0 .346.137a.47.47 0 0 1 .127.33.45.45 0 0 1-.127.324.46.46 0 0 1-.346.132.44.44 0 0 1-.34-.132.46.46 0 0 1-.121-.324"/></svg>