<svg xmlns="http://www.w3.org/2000/svg" fill="none" viewBox="0 0 98 21"><rect width="97.597" height="20.839" fill="#01748c" rx="10.419"/><path fill="#fff" d="M14.096 11.337v2.357c0 .096-.022.16-.054.182-.032.033-.097.043-.183.043h-.581c-.097 0-.162-.01-.194-.043-.032-.021-.043-.086-.043-.182V7.3q0-.177.065-.258a.44.44 0 0 1 .226-.097c.43-.054.957-.086 1.582-.086.914 0 1.57.161 1.98.484s.613.872.613 1.625v.172c0 1.475-.85 2.207-2.55 2.207-.399 0-.689 0-.861-.011m.161-3.595c-.107.011-.161.076-.161.205v2.54c.15.01.376.01.678.01q.904 0 1.291-.29c.258-.194.387-.56.387-1.087v-.13c0-.462-.118-.796-.344-.99-.237-.193-.624-.29-1.173-.29q-.404 0-.678.032m7.294 3.433c0-.624-.064-1.065-.172-1.323-.15-.334-.484-.506-.99-.506-.516 0-.84.172-.99.506-.118.258-.172.7-.172 1.323v.216c0 .634.054 1.076.172 1.323.15.345.474.506.99.506.506 0 .84-.161.99-.506.108-.247.172-.689.172-1.323v-.216m1.012-.075v.366c0 .98-.183 1.646-.538 2.002-.366.365-.915.548-1.636.548-.732 0-1.27-.183-1.636-.549-.365-.355-.538-1.022-.538-2.001V11.1c0-.968.173-1.636.538-2.002s.904-.548 1.636-.548c.721 0 1.27.183 1.636.548.355.366.538 1.034.538 2.002m3.253 2.098c.452 0 .775-.107.958-.333.172-.226.269-.7.269-1.41v-.344c0-.646-.086-1.087-.259-1.345q-.258-.388-.936-.388c-.387 0-.688.097-.882.29q-.29.291-.29 1.002v1.388q0 .678.258.904c.172.161.462.236.882.236m-1.14-6.37v2.184h.02c.28-.301.732-.462 1.346-.462.7 0 1.205.204 1.528.602q.484.597.484 1.905v.43c0 .926-.183 1.572-.549 1.959-.365.387-.936.57-1.721.57-.721 0-1.249-.129-1.593-.409-.344-.269-.506-.753-.506-1.463V6.828c0-.13.065-.194.215-.194h.56a.3.3 0 0 1 .161.043.21.21 0 0 1 .054.15m5.582 2.012v4.886c0 .075-.022.129-.054.15-.032.033-.086.043-.161.043h-.56c-.15 0-.215-.064-.215-.193V8.84c0-.129.064-.194.215-.194h.56a.3.3 0 0 1 .161.043.21.21 0 0 1 .054.151m-1.14-1.506v-.076c0-.204.053-.355.171-.463q.162-.16.452-.16h.054c.409 0 .613.214.613.623v.076c0 .42-.204.624-.613.624h-.054c-.193 0-.344-.043-.452-.15-.118-.109-.172-.26-.172-.474m6.45 3.368v.775c0 .215-.108.312-.302.312H32.49c.01.538.107.904.28 1.108.171.205.516.301 1.032.301.41 0 .797-.064 1.141-.204.086-.021.14-.043.172-.043.054 0 .097.043.13.118l.075.259c.032.129.053.204.053.226q0 .096-.129.161c-.44.204-.957.301-1.56.301-.829 0-1.399-.193-1.722-.58q-.484-.582-.484-1.97V11.1c0-.872.161-1.517.484-1.926s.861-.624 1.625-.624q.986 0 1.485.516c.323.344.495.893.495 1.636m-3.09.28h1.991c.087 0 .14-.043.14-.151q0-.79-.226-1.13c-.15-.215-.42-.334-.817-.334-.43 0-.721.13-.872.377-.15.248-.215.656-.215 1.238m4.992-2.174.054.527h.022c.14-.237.312-.42.516-.527.194-.108.474-.162.818-.162h.215c.086 0 .14.022.172.043a.21.21 0 0 1 .054.151v.474c0 .129-.075.183-.226.183h-.236c-.442 0-.743.107-.915.3-.162.195-.237.507-.237.937v2.992c0 .075-.022.129-.054.15-.032.033-.086.043-.161.043h-.56c-.15 0-.215-.064-.215-.193V8.808c0-.108.054-.162.172-.162h.377c.129 0 .194.054.204.162m6.23 4.466v.463c0 .129-.064.182-.183.182h-3.336c-.161 0-.236-.064-.236-.193v-.215c0-.13.064-.302.215-.528l2.249-3.497h-2.163c-.13 0-.183-.054-.183-.183V8.84c0-.064.01-.118.032-.15.022-.022.065-.044.15-.044h3.25c.108 0 .173.065.173.173v.215c0 .129-.097.344-.28.624l-2.227 3.422h2.356c.119 0 .183.065.183.194m6.423.495-.043-.312h-.021q-.274.562-1.291.56h-.334c-1.065 0-1.593-.517-1.593-1.55v-.173c0-.58.172-1.011.517-1.27.28-.225.84-.344 1.657-.344h.258c.237 0 .463.011.657.033v-.452c0-.334-.086-.56-.248-.69-.172-.128-.441-.193-.818-.193-.365 0-.753.054-1.173.162a1 1 0 0 1-.226.043c-.075 0-.118-.043-.14-.151l-.043-.204a1.5 1.5 0 0 1-.043-.28c0-.076.043-.13.151-.162.484-.15 1-.236 1.56-.236.69 0 1.195.14 1.507.409.301.28.463.753.463 1.42v3.39c0 .107-.065.15-.172.15h-.42c-.119 0-.183-.043-.205-.15m-.193-1.475v-.774a5 5 0 0 0-.581-.033h-.474c-.387 0-.656.065-.807.173q-.225.177-.226.645v.151c0 .28.054.474.172.581.108.118.301.172.581.172h.355c.323 0 .57-.064.732-.215.162-.15.248-.377.248-.7m3.299 1.292v2.044c0 .076-.021.13-.054.151-.032.032-.086.043-.161.043h-.56c-.15 0-.215-.064-.215-.194v-6.8c0-.119.054-.184.172-.184h.377c.107 0 .172.054.194.151l.064.344h.022c.333-.387.86-.591 1.57-.591.69 0 1.185.183 1.507.548.312.366.474 1.001.474 1.905v.484c0 .872-.162 1.507-.463 1.916-.312.409-.84.613-1.593.613-.602 0-1.043-.14-1.323-.43zm1.184-4.208c-.441 0-.753.097-.926.28-.172.194-.258.495-.258.915v1.463q0 .616.29.894c.194.182.496.268.904.268.453 0 .765-.118.937-.376.161-.258.247-.71.247-1.367V11.1c0-.646-.086-1.098-.247-1.345-.172-.248-.484-.377-.947-.377m4.344-2.55v5.671c0 .215.022.366.086.452q.08.13.355.13h.27c.064 0 .107.02.14.042.02.022.042.075.042.14v.463c0 .129-.064.193-.172.193h-.463q-.678 0-.968-.29c-.194-.194-.28-.517-.28-.98V6.829c0-.13.065-.194.215-.194h.56a.3.3 0 0 1 .161.043.21.21 0 0 1 .054.15m2.944 2.012v4.886c0 .075-.021.129-.054.15-.032.033-.086.043-.161.043h-.56c-.15 0-.215-.064-.215-.193V8.84c0-.129.065-.194.215-.194h.56a.3.3 0 0 1 .161.043.21.21 0 0 1 .054.151m-1.14-1.506v-.076c0-.204.053-.355.172-.463q.16-.16.452-.16h.053c.41 0 .614.214.614.623v.076c0 .42-.205.624-.614.624h-.053c-.194 0-.345-.043-.452-.15-.119-.109-.173-.26-.173-.474m3.587 4.229v2.163c0 .075-.022.129-.054.15-.032.033-.086.043-.161.043h-.56c-.15 0-.215-.064-.215-.193V6.828c0-.13.064-.194.215-.194h.56a.3.3 0 0 1 .161.043.21.21 0 0 1 .054.15v3.864h.409c.086 0 .15-.032.204-.118l1.173-1.776c.065-.097.162-.15.302-.15h.624c.172 0 .215.075.129.215l-1.496 2.163a.2.2 0 0 0-.043.107c0 .043.01.086.043.119l1.42 2.249c.108.183.173.29.173.323 0 .064-.054.096-.15.096H66.3c-.14 0-.247-.053-.312-.16l-1.28-2.1a.21.21 0 0 0-.183-.096zm6.784 2.206-.044-.312h-.021q-.275.562-1.291.56h-.334c-1.065 0-1.593-.517-1.593-1.55v-.173c0-.58.172-1.011.517-1.27.28-.225.84-.344 1.657-.344h.258c.237 0 .463.011.657.033v-.452c0-.334-.086-.56-.248-.69-.172-.128-.44-.193-.818-.193-.365 0-.753.054-1.173.162a1 1 0 0 1-.225.043c-.076 0-.119-.043-.14-.151l-.043-.204a1.5 1.5 0 0 1-.043-.28c0-.076.043-.13.15-.162.484-.15 1-.236 1.56-.236.69 0 1.195.14 1.507.409.301.28.463.753.463 1.42v3.39c0 .107-.065.15-.172.15h-.42c-.118 0-.183-.043-.204-.15m-.194-1.475v-.774a5 5 0 0 0-.581-.033h-.474c-.387 0-.656.065-.807.173q-.226.177-.226.645v.151c0 .28.054.474.172.581.108.118.302.172.581.172h.355c.323 0 .57-.064.732-.215.162-.15.248-.377.248-.7m5.699.797.064.226c.033.118.054.204.054.247 0 .086-.054.14-.161.183-.41.183-.893.27-1.453.27-.71 0-1.227-.151-1.539-.463-.398-.366-.592-1.077-.592-2.11V11.1c0-.549.043-.968.13-1.27.085-.29.225-.538.44-.742.377-.355.915-.538 1.615-.538.624 0 1.151.15 1.603.452.065.043.097.096.097.14 0 .043-.043.129-.107.258l-.151.28c-.043.075-.086.107-.13.107a.2.2 0 0 1-.128-.043c-.388-.237-.764-.355-1.152-.355s-.667.086-.86.258a.84.84 0 0 0-.248.41 1.6 1.6 0 0 0-.086.451c-.011.13-.011.355-.011.678v.172c0 .764.086 1.26.269 1.485.194.237.516.355.98.355a3 3 0 0 0 1.064-.193c.065-.022.119-.043.162-.043.065 0 .108.043.14.129m2.3-4.25v4.906c0 .7-.118 1.195-.334 1.496-.28.398-.796.592-1.55.592h-.333c-.129 0-.183-.054-.183-.172v-.517c0-.107.054-.172.162-.172h.247c.42 0 .689-.097.818-.29.118-.194.183-.538.183-1.044v-4.8c0-.129.064-.194.215-.194h.56a.3.3 0 0 1 .161.043.21.21 0 0 1 .054.151m-1.14-1.507v-.076c0-.204.053-.355.171-.463q.162-.16.452-.16h.054c.41 0 .614.214.614.623v.076c0 .42-.205.624-.614.624h-.054c-.193 0-.344-.043-.452-.15-.118-.109-.172-.26-.172-.474m6.46 3.357v.786c0 .215-.108.312-.302.312h-2.776c.01.538.107.904.28 1.108.171.205.516.301 1.032.301.41 0 .797-.064 1.141-.204.086-.021.14-.043.172-.043.054 0 .097.043.13.118l.075.259c.021.097.043.161.043.204q0 .097-.13.162c-.365.215-.634.43-.796.634a1.12 1.12 0 0 0-.236.7c0 .269.129.398.398.398q.241 0 .516-.097c.065-.021.097-.032.108-.032.043 0 .075.032.086.097l.043.194c.022.086.032.15.032.182q0 .08-.129.13a2.2 2.2 0 0 1-.796.161c-.732 0-1.087-.28-1.087-.85q0-.726.775-1.227c-.15.022-.312.032-.463.032-.829 0-1.399-.193-1.722-.58q-.484-.582-.484-1.97V11.1c0-.872.161-1.517.484-1.926s.861-.624 1.636-.624c.656 0 1.151.172 1.474.505.323.345.495.883.495 1.636m-3.09.29h1.992c.086 0 .14-.042.14-.15q0-.79-.226-1.13c-.151-.215-.42-.334-.818-.334-.43 0-.721.13-.872.377-.15.248-.215.656-.215 1.238"/></svg>