<svg xmlns="http://www.w3.org/2000/svg" fill="none" viewBox="0 0 546 38"><path fill="#fff" d="M4.58 16.778H1.19c-.336 0-.569-.052-.672-.155q-.156-.155-.156-.621V14.06c0-.31.052-.543.155-.647s.311-.155.673-.155h11.152c.337 0 .57.052.673.155s.155.337.155.647v1.94c0 .311-.077.518-.18.622-.104.103-.337.155-.648.155h-3.39v12.394c0 .336-.077.57-.18.673Q8.577 30 7.995 30H5.537q-.621 0-.776-.155c-.13-.104-.181-.337-.181-.673zm12.216 5.874v2.018c0 1.009.155 1.656.466 1.966.233.259.595.363 1.087.363h.103c.466 0 .828-.104 1.087-.363.31-.31.466-.957.466-1.966V22.65c0-.983-.156-1.655-.466-1.966-.259-.233-.621-.362-1.087-.362h-.103c-.492 0-.854.13-1.087.362-.31.31-.466.983-.466 1.967m7.375.155v1.682c0 1.293-.13 2.277-.389 3.001a3.7 3.7 0 0 1-1.242 1.734c-.854.672-2.173 1.009-3.984 1.009h-.31c-1.812 0-3.158-.337-3.986-1.01a3.7 3.7 0 0 1-1.242-1.733c-.258-.724-.388-1.708-.388-3.001v-1.656c0-1.268.13-2.251.388-2.976a3.9 3.9 0 0 1 1.242-1.76c.828-.672 2.174-1.009 3.985-1.009h.31c1.812 0 3.131.337 3.985 1.01a4 4 0 0 1 1.242 1.733c.26.725.389 1.708.389 2.976m5.398-4.373c.905-.88 2.199-1.346 3.855-1.346h.233c1.604 0 2.743.466 3.441 1.346.621.828.932 2.225.932 4.243v1.941c0 1.087-.104 1.992-.259 2.665-.181.673-.492 1.242-.931 1.682-.88.854-2.07 1.268-3.623 1.268h-.285q-1.474 0-2.406-.544v3.985c0 .388-.078.647-.207.75-.155.104-.44.156-.88.156h-1.966c-.44 0-.725-.052-.88-.181-.155-.104-.207-.363-.207-.725V18.15c0-.31.052-.517.207-.647.13-.103.362-.18.699-.18h1.086c.31 0 .544.051.673.103.104.077.207.233.285.44l.18.569zm.957 3.674v3.312c0 .595.104 1.01.362 1.242.233.233.621.337 1.165.337h.233c.595 0 1.009-.156 1.267-.518q.31-.465.31-2.251v-1.113c0-1.242-.103-2.018-.31-2.303-.258-.31-.672-.465-1.293-.465h-.181c-.57 0-.958.129-1.217.388-.232.233-.336.698-.336 1.371m13.484.543v2.019c0 1.009.156 1.656.466 1.966.233.259.595.363 1.087.363h.103c.466 0 .828-.104 1.087-.363.31-.31.466-.957.466-1.966V22.65c0-.983-.155-1.655-.466-1.966-.259-.233-.62-.362-1.087-.362h-.103c-.492 0-.854.13-1.087.362-.31.31-.466.983-.466 1.967m7.375.156v1.682c0 1.293-.13 2.277-.388 3.001a3.7 3.7 0 0 1-1.242 1.734c-.854.672-2.174 1.009-3.985 1.009h-.31c-1.812 0-3.157-.337-3.985-1.01a3.7 3.7 0 0 1-1.242-1.733c-.26-.724-.389-1.708-.389-3.001v-1.656c0-1.268.13-2.251.389-2.976a3.9 3.9 0 0 1 1.242-1.76c.828-.672 2.173-1.009 3.984-1.009h.31c1.812 0 3.132.337 3.986 1.01a4 4 0 0 1 1.242 1.733c.258.725.388 1.708.388 2.976m8.84-4.865h2.224c.363 0 .622.052.75.155.13.104.234.311.285.621 0 .104.466 2.407 1.372 6.883h.078c.465-2.717.88-5.226 1.216-7.555.025-.285.103-.466.207-.57q.154-.155.543-.155h2.64c.284 0 .465.078.569.181.077.13.103.337.051.596-.414 2.018-.931 4.243-1.5 6.675-.57 2.433-.984 3.96-1.242 4.606-.104.259-.233.44-.363.517S66.72 30 66.46 30h-2.846c-.543 0-.88-.181-.983-.595-.492-1.76-.906-3.985-1.268-6.676h-.104a71 71 0 0 1-1.294 6.676c-.103.414-.414.595-.931.595H56.24c-.518 0-.854-.181-.984-.57-.258-.698-.698-2.302-1.32-4.786a120 120 0 0 1-1.448-6.546c-.078-.285-.052-.492.051-.596.104-.103.31-.18.621-.18h2.536c.259 0 .466.051.595.155.104.103.181.31.233.569.362 2.406.776 4.916 1.268 7.555h.103c.621-3.208 1.061-5.511 1.268-6.882.052-.337.13-.544.26-.647.128-.078.387-.13.801-.13m17.626 8.953h.284c.88 0 1.812-.104 2.743-.336.259-.052.414-.078.492-.078.259 0 .414.155.466.44l.207 1.294c.051.362.103.595.103.698 0 .31-.233.544-.673.699-1.19.414-2.51.62-3.907.62h-.492q-3.182 0-4.502-1.319a3.7 3.7 0 0 1-1.035-1.76c-.18-.672-.259-1.578-.259-2.69v-1.45c0-2.25.518-3.829 1.553-4.76.88-.776 2.225-1.165 4.062-1.165h.363c1.81 0 3.13.44 3.907 1.294.828.932 1.242 2.458 1.242 4.632v1.345c0 .492-.259.725-.75.725h-6.21v.207c0 .62.155 1.035.517 1.268.336.232.957.336 1.889.336m-2.407-4.502h2.847c.207 0 .31-.104.31-.337v-.414c0-.517-.103-.905-.259-1.19-.207-.31-.62-.466-1.19-.466h-.233c-.517 0-.88.13-1.086.363q-.39.465-.389 1.397zm18.91 2.587v4.27c0 .258-.077.465-.207.569-.129.13-.362.181-.672.181h-2.38c-.337 0-.57-.052-.7-.181-.129-.104-.18-.31-.18-.57V13.234c0-.259.051-.44.18-.57.13-.103.363-.18.7-.18h2.38c.31 0 .543.077.672.18.13.13.207.311.207.57v8.435h.181l2.459-3.752c.233-.388.595-.595 1.086-.595h3.002c.285 0 .44.104.44.31 0 .104-.078.285-.207.492l-2.976 4.45c-.233.363-.336.622-.336.777 0 .181.103.44.336.776l3.183 5.02c.103.207.155.337.155.44 0 .285-.181.414-.543.414h-2.873c-.362 0-.646-.026-.802-.13q-.233-.116-.465-.543l-2.459-4.347zm15.451.388v-7.296c0-.26.052-.44.182-.57.129-.103.362-.18.698-.18h2.381c.31 0 .543.077.672.18.13.13.207.31.207.57v7.659q0 2.367-1.164 3.415c-.828.725-2.277 1.087-4.399 1.087s-3.596-.362-4.398-1.087q-1.165-1.047-1.165-3.415v-7.66c0-.258.052-.44.181-.569.13-.103.363-.18.699-.18h2.38c.311 0 .544.077.673.18.13.13.207.31.207.57v7.296c0 .596.078.984.285 1.19.207.233.569.337 1.138.337.544 0 .932-.104 1.139-.336.181-.207.284-.596.284-1.19m9.848-6.65h.077c.57-.931 1.527-1.397 2.898-1.397h1.035c.259 0 .466.052.57.155s.181.285.181.57v1.889c0 .284-.052.465-.155.569q-.156.155-.544.155h-.776c-.957 0-1.604.181-1.967.544-.31.31-.439.905-.439 1.785v6.262c0 .258-.078.465-.207.569-.13.13-.363.181-.673.181h-2.381c-.336 0-.569-.052-.698-.181-.13-.104-.181-.31-.181-.57V18.047c0-.259.051-.44.181-.544.129-.103.362-.18.698-.18h1.242c.285 0 .492.051.621.129q.195.154.311.465zm5.955 2.77v-.337c0-1.268.336-2.226 1.009-2.898.776-.776 2.096-1.165 3.933-1.165h.259c1.449 0 2.717.156 3.777.466q.31.117.389.233c.051.104.077.233.051.44l-.284 2.122c-.052.336-.285.44-.699.336-1.035-.233-1.966-.362-2.743-.362h-.026c-.569 0-.983.052-1.19.155-.233.103-.336.285-.336.543v.078c0 .259.077.44.284.543s.596.233 1.191.337l1.216.259c1.112.258 1.915.646 2.38 1.164.466.517.699 1.32.699 2.38v.389c0 2.716-1.708 4.062-5.072 4.062h-.258c-1.708 0-3.131-.233-4.321-.699-.233-.077-.389-.18-.44-.31-.052-.104-.052-.31 0-.595l.362-1.708c.078-.492.362-.647.88-.492 1.19.414 2.225.595 3.105.595h.077c.57 0 .958-.051 1.191-.18.207-.104.336-.311.336-.596v-.078a.56.56 0 0 0-.285-.491q-.31-.156-1.242-.388l-1.138-.259q-1.708-.388-2.407-1.164c-.465-.518-.698-1.294-.698-2.38m23.032-3.39c-.363 2.432-1.035 5.123-2.019 8.098a55 55 0 0 1-3.648 8.436c-.181.362-.414.543-.724.543-.207 0-.44-.052-.751-.207l-1.319-.57c-.466-.206-.673-.413-.673-.646 0-.104.026-.259.129-.44.88-1.785 1.397-2.82 1.501-3.105-.725-.259-1.268-.828-1.682-1.76-.466-1.034-1.009-2.613-1.604-4.786q-.893-3.26-1.32-5.59c-.052-.258-.026-.44.104-.569.129-.103.362-.18.672-.18h2.355c.285 0 .492.051.621.129.129.077.233.232.285.491.595 3.26 1.268 6.159 2.018 8.668h.129c.725-2.07 1.398-4.916 2.019-8.59q.038-.389.232-.543c.13-.104.337-.156.596-.156h2.38c.285 0 .492.078.595.181.104.104.13.31.104.596m13.745-.156h2.225c.363 0 .621.052.751.155.129.104.233.311.284.621 0 .104.466 2.407 1.372 6.883h.077c.466-2.717.88-5.226 1.216-7.555.026-.285.104-.466.207-.57q.156-.155.544-.155h2.639c.285 0 .466.078.569.181.078.13.104.337.052.596-.414 2.018-.931 4.243-1.501 6.675-.569 2.433-.983 3.96-1.242 4.606-.103.259-.233.44-.362.517s-.336.104-.595.104h-2.846c-.544 0-.88-.181-.984-.595-.491-1.76-.905-3.985-1.267-6.676h-.104a71 71 0 0 1-1.294 6.676c-.103.414-.414.595-.931.595H158.4c-.517 0-.854-.181-.983-.57-.259-.698-.699-2.302-1.32-4.786a121 121 0 0 1-1.449-6.546c-.077-.285-.051-.492.052-.596.104-.103.311-.18.621-.18h2.536c.259 0 .466.051.595.155.104.103.181.31.233.569.362 2.406.776 4.916 1.268 7.555h.103c.621-3.208 1.061-5.511 1.268-6.882.052-.337.13-.544.259-.647.129-.078.388-.13.802-.13m18.744 10.997h-.052c-.569.88-1.707 1.294-3.389 1.294h-.388c-1.32 0-2.355-.337-3.08-1.01-.75-.672-1.112-1.681-1.112-2.975v-.285c0-1.397.388-2.406 1.19-2.975.802-.57 2.096-.854 3.907-.854h.181c.673 0 1.294.052 1.812.104v-.544c0-.543-.156-.931-.44-1.138-.311-.181-.828-.285-1.553-.285-.88 0-1.863.155-3.001.44-.311.078-.544.078-.647 0-.13-.078-.207-.233-.233-.492l-.207-1.371c-.052-.233-.052-.414-.052-.518 0-.31.207-.543.621-.672 1.32-.363 2.795-.57 4.425-.57 1.992 0 3.415.44 4.243 1.268.647.673.984 1.76.984 3.235v7.685c0 .258-.078.465-.207.569-.13.103-.363.155-.673.155h-1.216c-.311 0-.518-.026-.647-.104-.13-.077-.233-.232-.311-.491zm-.931-3.312v-.724q-.428-.078-1.242-.078h-.285q-.932 0-1.32.233c-.258.155-.362.466-.362.931v.104c0 .466.104.776.362.931.233.181.595.26 1.087.26h.181c.518 0 .906-.13 1.216-.389.233-.207.363-.647.363-1.268m11.224 1.01h.828c.259 0 .466.077.57.18.103.13.181.363.181.699v1.604c0 .363-.078.595-.181.699-.104.13-.311.181-.57.181h-1.966c-1.294 0-2.199-.233-2.717-.75-.517-.492-.776-1.372-.776-2.614V13.233c0-.259.052-.44.181-.57.129-.103.362-.18.699-.18h2.38c.311 0 .543.077.673.18.129.13.207.311.207.57v12.912c0 .207.026.336.103.388.052.077.181.103.388.103m10.083-1.269v-7.296c0-.26.052-.44.181-.57.129-.103.362-.18.699-.18h2.38c.311 0 .544.077.673.18.129.13.207.31.207.57v7.659q0 2.367-1.164 3.415c-.828.725-2.277 1.087-4.399 1.087s-3.597-.362-4.399-1.087q-1.164-1.047-1.164-3.415v-7.66c0-.258.051-.44.181-.569.129-.103.362-.18.698-.18h2.381c.31 0 .543.077.673.18.129.13.207.31.207.57v7.296c0 .596.077.984.284 1.19.207.233.57.337 1.139.337.543 0 .931-.104 1.138-.336.181-.207.285-.596.285-1.19m14.686 2.2v1.475c0 .388-.078.646-.181.776-.104.13-.336.181-.647.181h-2.07c-1.863 0-3.105-.31-3.674-.957-.518-.544-.751-1.579-.751-3.131v-5.356h-1.397c-.259 0-.414-.026-.517-.13-.104-.103-.13-.258-.13-.517v-1.32c0-.31.026-.517.13-.62.077-.104.258-.182.543-.26l1.371-.336v-2.536c0-.258.052-.44.182-.569.129-.104.362-.181.698-.181h2.381c.31 0 .543.078.672.181.13.13.207.31.207.57v2.483h2.148c.259 0 .414.052.518.155.103.104.155.285.155.596v1.733q0 .466-.155.621c-.104.104-.259.13-.518.13h-2.148v4.89c0 .466.052.75.207.906.156.18.492.258 1.01.258h1.138c.311 0 .543.078.647.207.103.13.181.389.181.75m11.759-9.496V29.25c0 .258-.077.465-.207.569-.129.13-.362.181-.672.181h-2.381c-.336 0-.569-.052-.698-.181-.13-.104-.182-.31-.182-.57V18.073c0-.26.052-.44.182-.57.129-.103.362-.18.698-.18h2.381c.31 0 .543.077.672.18.13.13.207.31.207.57m-1.914-1.734h-.311c-1.397 0-2.096-.699-2.096-2.148v-.129c0-1.423.699-2.148 2.096-2.148h.311c1.397 0 2.096.725 2.096 2.148v.13c0 1.448-.699 2.147-2.096 2.147m14.345 8.642v4.27c0 .258-.077.465-.207.569-.129.13-.362.181-.672.181h-2.381c-.336 0-.569-.052-.698-.181-.13-.104-.182-.31-.182-.57V13.234c0-.259.052-.44.182-.57.129-.103.362-.18.698-.18h2.381c.31 0 .543.077.672.18.13.13.207.311.207.57v8.435h.182l2.458-3.752c.233-.388.595-.595 1.086-.595h3.002c.285 0 .44.104.44.31 0 .104-.078.285-.207.492l-2.976 4.45c-.233.363-.336.622-.336.777 0 .181.103.44.336.776l3.183 5.02c.103.207.155.337.155.44 0 .285-.181.414-.543.414h-2.872c-.363 0-.647-.026-.803-.13q-.232-.116-.465-.543l-2.458-4.347zm12.196-2.329v2.019c0 1.009.155 1.656.466 1.966.233.259.595.363 1.086.363h.104c.466 0 .828-.104 1.087-.363.31-.31.465-.957.465-1.966V22.65c0-.983-.155-1.655-.465-1.966-.259-.233-.621-.362-1.087-.362h-.104c-.491 0-.853.13-1.086.362-.311.31-.466.983-.466 1.967m7.374.156v1.682c0 1.293-.129 2.277-.388 3.001a3.7 3.7 0 0 1-1.242 1.734c-.854.672-2.173 1.009-3.985 1.009h-.31c-1.811 0-3.157-.337-3.985-1.01a3.7 3.7 0 0 1-1.242-1.733c-.259-.724-.388-1.708-.388-3.001v-1.656c0-1.268.129-2.251.388-2.976a3.9 3.9 0 0 1 1.242-1.76c.828-.672 2.174-1.009 3.985-1.009h.31c1.812 0 3.131.337 3.985 1.01a4 4 0 0 1 1.242 1.733c.259.725.388 1.708.388 2.976m9.047-5.719h.207c1.501 0 2.613.363 3.286 1.061.621.673.957 1.811.957 3.416v7.685c0 .258-.077.465-.207.569-.129.13-.362.181-.672.181h-2.381c-.336 0-.569-.052-.698-.181-.13-.104-.182-.31-.182-.57v-7.322c0-.57-.103-.983-.284-1.19-.207-.207-.595-.337-1.139-.337h-.155c-.569 0-.931.13-1.138.337s-.285.62-.285 1.19v7.323c0 .258-.078.465-.207.569-.129.13-.362.181-.673.181h-2.38c-.337 0-.57-.052-.699-.181-.129-.104-.181-.31-.181-.57V18.047c0-.259.052-.44.181-.544.129-.103.362-.18.699-.18h1.216c.31 0 .517.051.647.129q.194.115.31.465l.155.492h.078c.828-.88 1.992-1.32 3.545-1.32m15.014 10.48v1.475c0 .388-.078.646-.181.776-.104.13-.337.181-.647.181h-2.07c-1.863 0-3.105-.31-3.674-.957-.518-.544-.751-1.579-.751-3.131v-5.356h-1.397c-.259 0-.414-.026-.517-.13-.104-.103-.13-.258-.13-.517v-1.32c0-.31.026-.517.13-.62.077-.104.258-.182.543-.26l1.371-.336v-2.536c0-.258.052-.44.181-.569.13-.104.363-.181.699-.181h2.381c.31 0 .543.078.672.181.13.13.207.31.207.57v2.483h2.148c.259 0 .414.052.517.155s.156.285.156.596v1.733q0 .466-.156.621c-.103.104-.258.13-.517.13h-2.148v4.89c0 .466.052.75.207.906.156.18.492.258 1.009.258h1.139c.31 0 .543.078.647.207.103.13.181.389.181.75m5.71-4.917v2.019c0 1.009.155 1.656.466 1.966.232.259.595.363 1.086.363h.104c.466 0 .828-.104 1.087-.363.31-.31.465-.957.465-1.966V22.65c0-.983-.155-1.655-.465-1.966-.259-.233-.621-.362-1.087-.362h-.104c-.491 0-.854.13-1.086.362-.311.31-.466.983-.466 1.967m7.374.156v1.682c0 1.293-.129 2.277-.388 3.001a3.7 3.7 0 0 1-1.242 1.734c-.854.672-2.173 1.009-3.985 1.009h-.31c-1.811 0-3.157-.337-3.985-1.01a3.7 3.7 0 0 1-1.242-1.733c-.259-.724-.388-1.708-.388-3.001v-1.656c0-1.268.129-2.251.388-2.976a3.9 3.9 0 0 1 1.242-1.76c.828-.672 2.174-1.009 3.985-1.009h.31c1.812 0 3.131.337 3.985 1.01a4 4 0 0 1 1.242 1.733c.259.725.388 1.708.388 2.976m12.043-2.2h-4.114c-.259 0-.44-.026-.544-.129-.103-.104-.129-.31-.129-.621v-1.785c0-.31.026-.492.129-.595q.156-.156.544-.156h8.746c.258 0 .439.052.569.155.103.104.181.311.181.596v.491c0 .673-.207 1.294-.569 1.837l-4.451 6.314h4.425c.259 0 .414.052.517.155s.156.285.156.595v1.786q0 .465-.156.62c-.103.104-.258.13-.517.13h-8.901c-.544 0-.802-.233-.802-.75v-.596c0-.672.181-1.267.569-1.837zm14.682 8.332h-.052c-.569.88-1.708 1.294-3.39 1.294h-.388c-1.32 0-2.355-.337-3.079-1.01-.75-.672-1.113-1.681-1.113-2.975v-.285c0-1.397.388-2.406 1.191-2.975.802-.57 2.095-.854 3.907-.854h.181c.673 0 1.294.052 1.811.104v-.544c0-.543-.155-.931-.44-1.138-.31-.181-.828-.285-1.552-.285-.88 0-1.863.155-3.002.44-.31.078-.543.078-.647 0-.129-.078-.207-.233-.233-.492l-.207-1.371c-.051-.233-.051-.414-.051-.518 0-.31.207-.543.621-.672 1.319-.363 2.794-.57 4.424-.57 1.993 0 3.416.44 4.244 1.268.647.673.983 1.76.983 3.235v7.685c0 .258-.078.465-.207.569s-.362.155-.673.155h-1.216c-.31 0-.517-.026-.647-.104-.129-.077-.233-.232-.31-.491zm-.932-3.312v-.724q-.428-.078-1.242-.078h-.285q-.931 0-1.319.233c-.259.155-.362.466-.362.931v.104c0 .466.103.776.362.931.233.181.595.26 1.087.26h.181c.517 0 .905-.13 1.216-.389.233-.207.362-.647.362-1.268m28.114-7.187v2.74c0 2.961-.63 5.229-1.859 6.773-1.26 1.575-3.339 2.33-6.237 2.33s-4.977-.756-6.237-2.33c-1.26-1.544-1.858-3.812-1.858-6.773v-2.74c0-2.962.598-5.198 1.858-6.773 1.26-1.543 3.339-2.331 6.237-2.331s4.977.787 6.237 2.331c1.229 1.575 1.859 3.812 1.859 6.772m-5.387 2.204v-1.669c0-2.048-.189-3.465-.504-4.221s-1.039-1.165-2.142-1.165h-.126c-1.134.031-1.858.409-2.173 1.165s-.473 2.173-.473 4.221v1.67c0 2.079.158 3.465.473 4.22.315.757 1.039 1.166 2.173 1.166h.126c1.103 0 1.827-.378 2.142-1.134s.504-2.173.504-4.252m19.999-2.078h-5.009c-.315 0-.535-.032-.661-.158s-.158-.378-.158-.756v-2.174c0-.377.032-.598.158-.724q.189-.189.661-.189h10.647c.315 0 .536.063.693.189.126.126.221.378.221.725v.598c0 .819-.252 1.575-.693 2.236L366.056 26h5.386c.315 0 .504.063.63.189.126.125.189.346.189.724v2.174q0 .567-.189.756c-.126.125-.315.157-.63.157h-10.836c-.661 0-.976-.284-.976-.913v-.725c0-.819.22-1.543.693-2.236zm15.322 7.339h1.008c.315 0 .567.095.693.22.126.158.22.442.22.851v1.953c0 .441-.094.725-.22.85-.126.158-.378.221-.693.221h-2.394c-1.575 0-2.678-.284-3.308-.913-.63-.599-.945-1.67-.945-3.182v-3.402l-1.039.662c-.41.252-.693.378-.819.378-.252 0-.347-.19-.347-.567v-2.93c0-.315.032-.535.158-.693.094-.126.283-.315.598-.536l1.449-.913V9.588c0-.315.063-.535.221-.693.157-.126.441-.22.85-.22h2.898c.378 0 .662.094.819.22.158.158.252.378.252.693v5.103l1.418-.914c.378-.252.661-.377.819-.377.22 0 .346.188.346.566v2.93c0 .315-.063.567-.157.693a2.6 2.6 0 0 1-.599.536l-1.827 1.165v6.017c0 .252.032.409.126.472.063.095.221.126.473.126m14.681-3.797v3.312c0 .595.104 1.01.362 1.242.207.233.596.337 1.165.337h.233c.595 0 1.009-.156 1.268-.518q.31-.465.31-2.251v-1.113c0-1.294-.129-2.096-.336-2.354-.233-.26-.673-.414-1.294-.414h-.104c-.595 0-1.009.129-1.267.388-.233.233-.337.698-.337 1.371m0-4.321h.052q1.125-.699 2.95-.699h.233c1.552 0 2.691.466 3.389 1.398.569.802.88 2.225.88 4.269v1.863c0 2.07-.44 3.519-1.32 4.321-.931.88-2.406 1.294-4.424 1.294h-.518c-2.122 0-3.571-.414-4.347-1.268-.698-.75-1.035-1.966-1.035-3.674V13.233c0-.259.052-.44.181-.57.104-.103.337-.18.673-.18h2.406c.311 0 .544.077.673.18.13.13.207.311.207.57zm15.891 9.108h.285c.879 0 1.811-.104 2.742-.336.259-.052.414-.078.492-.078.259 0 .414.155.466.44l.207 1.294c.051.362.103.595.103.698 0 .31-.233.544-.673.699-1.19.414-2.509.62-3.907.62h-.491q-3.183 0-4.503-1.319a3.7 3.7 0 0 1-1.035-1.76c-.181-.672-.258-1.578-.258-2.69v-1.45c0-2.25.517-3.829 1.552-4.76.88-.776 2.225-1.165 4.063-1.165h.362c1.811 0 3.131.44 3.907 1.294.828.932 1.242 2.458 1.242 4.632v1.345c0 .492-.259.725-.75.725h-6.21v.207c0 .62.155 1.035.517 1.268.336.232.957.336 1.889.336m-2.406-4.502h2.846c.207 0 .31-.104.31-.337v-.414c0-.517-.103-.905-.258-1.19-.207-.31-.621-.466-1.191-.466h-.233c-.517 0-.879.13-1.086.363q-.388.465-.388 1.397zm13.377-1.786h-4.114c-.258 0-.44-.026-.543-.129s-.129-.31-.129-.621v-1.785c0-.31.025-.492.129-.595q.155-.156.543-.156h8.746c.259 0 .44.052.569.155.104.104.181.311.181.596v.491c0 .673-.207 1.294-.569 1.837l-4.45 6.314h4.424c.259 0 .414.052.518.155.103.104.155.285.155.595v1.786q0 .465-.155.62c-.104.104-.259.13-.518.13h-8.901c-.543 0-.802-.233-.802-.75v-.596c0-.672.181-1.267.569-1.837zm19.438-2.665h2.225c.362 0 .621.052.75.155.13.104.233.311.285.621 0 .104.466 2.407 1.371 6.883h.078c.466-2.717.88-5.226 1.216-7.555.026-.285.104-.466.207-.57q.156-.155.544-.155h2.639c.284 0 .466.078.569.181.078.13.104.337.052.596-.414 2.018-.932 4.243-1.501 6.675-.569 2.433-.983 3.96-1.242 4.606-.103.259-.233.44-.362.517-.13.078-.337.104-.595.104h-2.847c-.543 0-.879-.181-.983-.595-.491-1.76-.905-3.985-1.268-6.676h-.103a71 71 0 0 1-1.294 6.676c-.103.414-.414.595-.931.595h-2.795c-.517 0-.854-.181-.983-.57-.259-.698-.699-2.302-1.32-4.786a120 120 0 0 1-1.449-6.546c-.077-.285-.052-.492.052-.596.103-.103.31-.18.621-.18h2.536c.258 0 .465.051.595.155.103.103.181.31.233.569.362 2.406.776 4.916 1.268 7.555h.103c.621-3.208 1.061-5.511 1.268-6.882.052-.337.129-.544.259-.647.129-.078.388-.13.802-.13m18.744 10.997h-.052c-.569.88-1.708 1.294-3.389 1.294h-.389c-1.319 0-2.354-.337-3.079-1.01-.75-.672-1.112-1.681-1.112-2.975v-.285c0-1.397.388-2.406 1.19-2.975.802-.57 2.096-.854 3.907-.854h.181c.673 0 1.294.052 1.811.104v-.544c0-.543-.155-.931-.439-1.138-.311-.181-.828-.285-1.553-.285-.88 0-1.863.155-3.001.44-.311.078-.544.078-.647 0-.13-.078-.207-.233-.233-.492l-.207-1.371c-.052-.233-.052-.414-.052-.518 0-.31.207-.543.621-.672 1.32-.363 2.795-.57 4.425-.57 1.992 0 3.415.44 4.243 1.268.647.673.983 1.76.983 3.235v7.685c0 .258-.077.465-.207.569-.129.103-.362.155-.672.155h-1.216c-.311 0-.518-.026-.647-.104-.13-.077-.233-.232-.311-.491zm-.932-3.312v-.724q-.426-.078-1.242-.078h-.284q-.931 0-1.32.233c-.259.155-.362.466-.362.931v.104c0 .466.103.776.362.931.233.181.595.26 1.087.26h.181c.518 0 .906-.13 1.216-.389.233-.207.362-.647.362-1.268m9.854-6.908h.078c.569-.932 1.526-1.398 2.898-1.398h1.035c.258 0 .465.052.569.155s.181.285.181.57v1.889c0 .284-.052.465-.155.569q-.156.155-.544.155h-.776c-.957 0-1.604.181-1.966.544-.311.31-.44.905-.44 1.785v6.262c0 .258-.078.465-.207.569-.13.13-.363.181-.673.181h-2.381c-.336 0-.569-.052-.698-.181-.13-.104-.181-.31-.181-.57V18.047c0-.259.051-.44.181-.544.129-.103.362-.18.698-.18h1.242c.285 0 .492.051.621.129q.195.154.311.465zm13.096 6.65v-7.297c0-.26.052-.44.181-.57.13-.103.363-.18.699-.18h2.381c.31 0 .543.077.672.18.13.13.207.31.207.57v7.659q0 2.367-1.164 3.415c-.828.725-2.277 1.087-4.399 1.087s-3.596-.362-4.399-1.087q-1.164-1.047-1.164-3.415v-7.66c0-.258.052-.44.181-.569.13-.103.362-.18.699-.18h2.38c.311 0 .544.077.673.18.129.13.207.31.207.57v7.296c0 .596.078.984.285 1.19.207.233.569.337 1.138.337.544 0 .932-.104 1.139-.336.181-.207.284-.596.284-1.19m13.419-8.28h.207c1.5 0 2.613.362 3.286 1.06.621.673.957 1.811.957 3.416v7.685c0 .258-.078.465-.207.569-.129.13-.362.181-.673.181h-2.38c-.337 0-.569-.052-.699-.181-.129-.104-.181-.31-.181-.57v-7.322c0-.57-.103-.983-.285-1.19-.207-.207-.595-.337-1.138-.337h-.155c-.57 0-.932.13-1.139.337s-.284.62-.284 1.19v7.323c0 .258-.078.465-.207.569-.13.13-.363.181-.673.181h-2.381c-.336 0-.569-.052-.698-.181-.13-.104-.181-.31-.181-.57V18.047c0-.259.051-.44.181-.544.129-.103.362-.18.698-.18h1.216c.311 0 .518.051.647.129q.195.115.311.465l.155.492h.078c.828-.88 1.992-1.32 3.545-1.32m11.055 7.891v4.27c0 .258-.078.465-.207.569-.13.13-.363.181-.673.181h-2.381c-.336 0-.569-.052-.698-.181-.13-.104-.181-.31-.181-.57V13.234c0-.259.051-.44.181-.57.129-.103.362-.18.698-.18h2.381c.31 0 .543.077.673.18.129.13.207.311.207.57v8.435h.181l2.458-3.752c.233-.388.595-.595 1.087-.595h3.001c.285 0 .44.104.44.31 0 .104-.078.285-.207.492l-2.976 4.45c-.233.363-.336.622-.336.777 0 .181.103.44.336.776l3.183 5.02c.103.207.155.337.155.44 0 .285-.181.414-.543.414h-2.872c-.363 0-.647-.026-.802-.13q-.234-.116-.466-.543l-2.458-4.347zm12.195-2.329v2.019c0 1.009.155 1.656.466 1.966.233.259.595.363 1.087.363h.103c.466 0 .828-.104 1.087-.363.31-.31.466-.957.466-1.966V22.65c0-.983-.156-1.655-.466-1.966-.259-.233-.621-.362-1.087-.362h-.103c-.492 0-.854.13-1.087.362-.311.31-.466.983-.466 1.967m7.375.156v1.682c0 1.293-.13 2.277-.389 3.001a3.7 3.7 0 0 1-1.242 1.734c-.853.672-2.173 1.009-3.984 1.009h-.311c-1.811 0-3.157-.337-3.985-1.01a3.7 3.7 0 0 1-1.242-1.733c-.258-.724-.388-1.708-.388-3.001v-1.656c0-1.268.13-2.251.388-2.976a3.9 3.9 0 0 1 1.242-1.76c.828-.672 2.174-1.009 3.985-1.009h.311c1.811 0 3.131.337 3.984 1.01.57.465.984 1.035 1.242 1.733.259.725.389 1.708.389 2.976m-7.892-8.901 4.062-3.468c.155-.155.336-.232.492-.232.181 0 .362.129.517.336l1.242 1.604c.104.155.155.285.155.44 0 .207-.155.414-.414.621l-4.088 2.795a.9.9 0 0 1-.517.18c-.207 0-.414-.103-.621-.361l-.777-.906c-.207-.233-.284-.44-.284-.595s.077-.31.233-.414m16.731 4.036h2.225c.363 0 .621.052.751.155.129.104.233.311.284.621 0 .104.466 2.407 1.372 6.883h.077c.466-2.717.88-5.226 1.217-7.555.025-.285.103-.466.207-.57q.154-.155.543-.155h2.639c.285 0 .466.078.569.181.078.13.104.337.052.596-.414 2.018-.931 4.243-1.501 6.675-.569 2.433-.983 3.96-1.242 4.606-.103.259-.232.44-.362.517s-.336.104-.595.104h-2.846c-.544 0-.88-.181-.983-.595-.492-1.76-.906-3.985-1.268-6.676h-.104a71 71 0 0 1-1.294 6.676c-.103.414-.414.595-.931.595h-2.795c-.517 0-.853-.181-.983-.57-.259-.698-.698-2.302-1.319-4.786a120 120 0 0 1-1.449-6.546c-.078-.285-.052-.492.051-.596.104-.103.311-.18.621-.18h2.536c.259 0 .466.051.595.155.104.103.181.31.233.569.362 2.406.776 4.916 1.268 7.555h.103c.621-3.208 1.061-5.511 1.268-6.882.052-.337.13-.544.259-.647.129-.078.388-.13.802-.13"/></svg>