<svg xmlns="http://www.w3.org/2000/svg" fill="none" viewBox="0 0 181 63"><path fill="#fff" d="m1.19 4.956-.715-3.28c.941-.65 2.76-1.267 4.84-1.267 4.157 0 6.105 2.533 6.105 5.391 0 2.241-1.494 4.418-3.702 4.97v.065c2.566.52 4.352 2.468 4.352 5.489 0 4.19-3.573 6.496-7.503 6.496-1.819 0-3.41-.422-4.417-.975l.617-3.475c.942.552 2.176.877 3.378.877 2.273 0 3.475-1.3 3.475-3.053 0-2.436-2.014-3.41-4.32-3.41h-.617V9.567h.422c1.95 0 3.898-.942 3.898-2.956 0-1.526-.942-2.566-2.76-2.566-1.008 0-2.21.423-3.054.91m20.864 12.602h-3.93l-.974 5.002h-4.125L17.767.668h5.099l4.255 21.892h-4.125zm-3.508-3.313h3.118l-.714-4.58c-.228-1.331-.52-3.507-.715-4.969h-.097c-.228 1.462-.553 3.735-.78 5.002zM29.525.668h11.173v3.638h-6.951v4.58a7.7 7.7 0 0 1 1.721-.162c1.884 0 3.54.584 4.743 1.624 1.299 1.136 2.078 2.858 2.078 5.066 0 2.112-.65 3.8-1.819 4.97-1.494 1.591-3.832 2.338-6.983 2.338-1.624 0-2.988-.097-3.962-.227zm4.255 11.563v7.016c.292.065.584.065.941.065 1.007 0 1.82-.39 2.339-1.04.552-.649.812-1.558.812-2.533 0-1.007-.292-1.916-.844-2.533-.553-.65-1.332-1.072-2.274-1.072q-.536 0-.974.097M51.079.41c5.294 0 6.788 5.814 6.788 10.816 0 8.25-2.923 11.595-7.08 11.595-4.97 0-6.919-5.262-6.919-11.27 0-5.977 2.371-11.141 7.21-11.141m-.163 3.702c-1.689 0-2.63 2.794-2.63 7.503 0 4.97.941 7.503 2.663 7.503 1.786 0 2.468-3.248 2.468-7.698 0-3.832-.584-7.308-2.5-7.308M62.504 22.56V4.599H58.64V.669h12.018v3.93h-3.898V22.56zm16.327-5.002H74.9l-.975 5.002h-4.125L74.543.668h5.1l4.254 21.892h-4.125zm-3.508-3.313h3.118l-.715-4.58c-.227-1.331-.52-3.507-.714-4.969h-.098c-.227 1.462-.552 3.735-.78 5.002zM7.783 39.41c5.294 0 6.788 5.814 6.788 10.816 0 8.25-2.923 11.595-7.08 11.595-4.97 0-6.919-5.262-6.919-11.27 0-5.977 2.371-11.141 7.21-11.141M7.62 43.11c-1.689 0-2.63 2.794-2.63 7.503 0 4.97.941 7.503 2.663 7.503 1.786 0 2.468-3.248 2.468-7.698 0-3.832-.585-7.308-2.5-7.308M36.223 61.56l-.39-7.665c-.097-2.079-.26-4.905-.195-7.243h-.097a96 96 0 0 1-1.397 6.723l-1.884 7.828h-3.02l-1.82-7.698c-.422-1.754-1.006-4.482-1.33-6.853h-.098a243 243 0 0 1-.325 7.308l-.357 7.6h-3.67l1.59-21.891h4.483l1.754 7.925c.617 2.76 1.17 5.196 1.56 7.665h.064c.325-2.436.812-4.905 1.397-7.665l1.721-7.925h4.482l1.332 21.891zm6.909-21.891H46.9v4.839c0 4.027-.26 7.795-.423 10.069h.065c.617-1.884 1.722-4.742 2.371-6.431l3.216-8.477h3.865V61.56H52.26v-4.937c0-4.385.162-7.633.26-9.841h-.065c-.487 1.98-1.462 4.612-2.176 6.43l-3.216 8.348h-3.93zm16.652 0h4.158v9.516h.325l3.572-9.516h4.677l-5.034 10.133c2.241.845 2.988 2.891 3.605 5.554.488 2.111.845 4.19 1.494 6.204h-4.254c-.52-1.559-.845-3.345-1.202-5.067-.52-2.566-1.105-4.222-2.858-4.222h-.325v9.289h-4.158zm14.75 21.891V39.993c1.201-.26 2.825-.422 4.45-.422 2.533 0 4.514.357 5.943 1.689 1.3 1.137 1.884 2.956 1.884 4.807 0 2.371-.715 4.028-1.851 5.262-1.364 1.429-3.573 2.078-5.327 2.078h-.845v8.153zm4.254-18.384v6.756c.195.065.423.065.683.065 2.143 0 3.118-1.526 3.118-3.573 0-1.916-.78-3.41-2.761-3.41-.39 0-.78.065-1.04.162m16.729-3.767c5.294 0 6.788 5.814 6.788 10.816 0 8.25-2.923 11.595-7.08 11.595-4.97 0-6.919-5.262-6.919-11.27 0-5.977 2.371-11.141 7.21-11.141m-.163 3.702c-1.689 0-2.63 2.794-2.63 7.503 0 4.97.941 7.503 2.663 7.503 1.786 0 2.468-3.248 2.468-7.698 0-3.832-.584-7.308-2.5-7.308m15.54-4.222h3.735v1.656c3.93.52 6.919 3.606 6.919 9.907 0 6.723-3.021 9.549-6.919 10.101v1.787h-3.767v-1.787c-3.963-.584-6.919-3.378-6.919-10.004 0-6.43 3.541-9.484 6.951-10.004zm0 18.546V43.631c-1.299.39-2.696 2.144-2.696 6.983 0 4.515 1.364 6.529 2.696 6.821m3.703-13.804v13.804c1.429-.292 2.696-2.046 2.696-6.95 0-4.97-1.462-6.562-2.696-6.854m10.262-3.962h11.401V61.56h-4.255V43.371h-3.248v5.782c0 5.034-.325 9.451-3.086 11.595-.812.65-1.851 1.072-2.923 1.072l-.909-3.605c.519-.13 1.071-.39 1.461-.78 1.267-1.3 1.559-3.638 1.559-7.893zm21.312-.26c5.295 0 6.789 5.814 6.789 10.816 0 8.25-2.923 11.595-7.081 11.595-4.969 0-6.918-5.262-6.918-11.27 0-5.977 2.371-11.141 7.21-11.141m-.162 3.702c-1.689 0-2.631 2.794-2.631 7.503 0 4.97.942 7.503 2.664 7.503 1.786 0 2.468-3.248 2.468-7.698 0-3.832-.585-7.308-2.501-7.308m9.661 18.449V39.993c1.202-.26 2.826-.422 4.45-.422 2.533 0 4.515.357 5.944 1.689 1.299 1.137 1.884 2.956 1.884 4.807 0 2.371-.715 4.028-1.852 5.262-1.364 1.429-3.573 2.078-5.327 2.078h-.844v8.153zm4.255-18.384v6.756c.195.065.422.065.682.065 2.144 0 3.118-1.526 3.118-3.573 0-1.916-.779-3.41-2.761-3.41-.389 0-.779.065-1.039.162m19.846 5.23v3.54h-5.002v5.911h5.652v3.703h-9.907V39.669h9.517v3.702h-5.262v5.035z"/></svg>