<svg xmlns="http://www.w3.org/2000/svg" fill="none" viewBox="0 0 44 7"><path fill="#fff" d="M2.292 3.28H.998L.99 2.878h1.122q.337 0 .57-.118a.8.8 0 0 0 .36-.353q.126-.233.126-.574 0-.353-.122-.582a.74.74 0 0 0-.364-.34 1.4 1.4 0 0 0-.608-.115h-.969V5.96H.67V.386h1.405q.356 0 .639.088.286.084.486.264.2.176.303.452.107.276.107.655a1.4 1.4 0 0 1-.134.62q-.135.276-.375.452-.238.176-.567.218zm-.03 2.68H.848l.233-.41h1.18q.336 0 .573-.137a.93.93 0 0 0 .364-.399q.13-.26.13-.62 0-.314-.11-.566a.9.9 0 0 0-.341-.398q-.23-.15-.586-.15h-.835l.008-.402h1.168l.084.146q.322.038.555.23.237.191.367.486.13.294.13.647 0 .509-.19.86a1.3 1.3 0 0 1-.53.533 1.65 1.65 0 0 1-.788.18M4.421.386l1.382 3.028L7.194.386h.505L6.023 3.862V5.96h-.437V3.862L3.91.386zm6.675 5.176v.398h-2.96V5.6L9.67 3.53a7 7 0 0 0 .456-.678 2.6 2.6 0 0 0 .24-.536q.074-.241.073-.471 0-.333-.11-.59a.9.9 0 0 0-.318-.402.9.9 0 0 0-.52-.145.9.9 0 0 0-.552.168q-.23.165-.352.456a1.7 1.7 0 0 0-.123.662h-.425q0-.464.173-.842.171-.383.497-.613A1.32 1.32 0 0 1 9.49.31q.425 0 .731.18.31.177.479.514.168.332.168.8 0 .252-.076.509a3 3 0 0 1-.203.509 4.4 4.4 0 0 1-.295.501q-.165.25-.344.49l-1.294 1.75zm1.22-2.354-.337-.104.23-2.718h2.354V.82h-1.991l-.16 1.868q.12-.104.348-.203.225-.1.513-.1.317 0 .57.127.253.122.436.356.184.234.284.566.1.334.1.75 0 .403-.085.74a1.8 1.8 0 0 1-.26.59 1.2 1.2 0 0 1-.44.386 1.35 1.35 0 0 1-.632.138q-.28 0-.525-.092a1.3 1.3 0 0 1-.44-.287 1.5 1.5 0 0 1-.314-.483 2.2 2.2 0 0 1-.153-.681h.406q.037.371.168.628a.93.93 0 0 0 .345.386.97.97 0 0 0 .513.13q.24 0 .425-.095a.84.84 0 0 0 .313-.28q.127-.188.188-.455.065-.272.065-.617 0-.294-.069-.543a1.4 1.4 0 0 0-.203-.44.94.94 0 0 0-.329-.291.9.9 0 0 0-.444-.108q-.33 0-.52.108a1.5 1.5 0 0 0-.357.29m5.82-.513v.937q0 .617-.1 1.072-.099.452-.282.747a1.2 1.2 0 0 1-.456.44q-.268.146-.605.146-.272 0-.497-.092a1.1 1.1 0 0 1-.402-.28 1.7 1.7 0 0 1-.3-.478 3 3 0 0 1-.187-.674 5.3 5.3 0 0 1-.065-.88v-.938q0-.616.1-1.065a2.3 2.3 0 0 1 .287-.742q.188-.295.452-.437.267-.145.608-.145.272 0 .494.092.226.09.402.28.18.183.299.466.122.283.187.67.066.387.065.88m-.425.991V2.633q0-.378-.042-.685a2.8 2.8 0 0 0-.122-.54 1.3 1.3 0 0 0-.207-.39.802.802 0 0 0-.65-.314q-.258 0-.449.122a.97.97 0 0 0-.317.368 2.1 2.1 0 0 0-.192.605q-.065.36-.065.834v1.053q0 .375.042.685.043.306.123.544.084.237.207.398.126.16.287.245.165.08.367.08.256 0 .448-.126a1 1 0 0 0 .318-.379q.126-.253.187-.612.066-.364.065-.835m1.702 1.906h.077q.509 0 .85-.176.34-.175.54-.49.199-.317.283-.738.087-.425.088-.92v-.78q0-.437-.08-.77a1.7 1.7 0 0 0-.223-.555.97.97 0 0 0-.337-.337.8.8 0 0 0-.42-.114.76.76 0 0 0-.426.122q-.187.123-.317.337a1.8 1.8 0 0 0-.2.49 2.468 2.468 0 0 0-.008 1.133q.066.264.189.475.126.21.306.337a.75.75 0 0 0 .425.122q.264 0 .47-.122.21-.127.36-.326.153-.202.234-.436.084-.237.092-.46l.21-.003q0 .348-.107.666-.107.313-.302.559a1.45 1.45 0 0 1-.452.386 1.16 1.16 0 0 1-.559.138q-.333 0-.586-.153a1.4 1.4 0 0 1-.42-.421 2 2 0 0 1-.253-.597 3 3 0 0 1-.084-.697q0-.402.095-.754.096-.353.276-.62.183-.273.448-.425.264-.153.597-.153.387 0 .666.164a1.3 1.3 0 0 1 .463.463q.184.3.272.705.092.406.092.892v.436q0 .495-.061.946t-.207.834a2.1 2.1 0 0 1-.394.663 1.7 1.7 0 0 1-.628.436q-.375.153-.892.153h-.08zm5.993-.03v.398h-2.959V5.6l1.532-2.07q.286-.388.455-.678.168-.296.241-.536t.073-.471q0-.333-.111-.59a.9.9 0 0 0-.318-.402.9.9 0 0 0-.52-.145.9.9 0 0 0-.552.168q-.23.165-.352.456a1.7 1.7 0 0 0-.122.662h-.425q0-.464.172-.842.172-.383.498-.613t.78-.23q.426 0 .732.18.31.177.478.514.17.332.169.8 0 .252-.077.509a3 3 0 0 1-.203.509 4.4 4.4 0 0 1-.294.501q-.165.25-.345.49l-1.294 1.75zm1.22-2.354-.337-.104.23-2.718h2.354V.82h-1.99l-.161 1.868a1.5 1.5 0 0 1 .348-.203q.225-.1.513-.1.318 0 .57.127.253.122.437.356.183.234.283.566.1.334.1.75 0 .403-.085.74a1.8 1.8 0 0 1-.26.59 1.2 1.2 0 0 1-.44.386 1.35 1.35 0 0 1-.632.138q-.28 0-.524-.092a1.3 1.3 0 0 1-.44-.287 1.5 1.5 0 0 1-.314-.483 2.2 2.2 0 0 1-.154-.681h.406q.039.371.169.628a.93.93 0 0 0 .344.386.97.97 0 0 0 .513.13q.241 0 .425-.095a.84.84 0 0 0 .314-.28q.126-.188.188-.455.065-.272.065-.617a2 2 0 0 0-.07-.543 1.4 1.4 0 0 0-.202-.44.94.94 0 0 0-.33-.291.9.9 0 0 0-.444-.108q-.329 0-.52.108a1.5 1.5 0 0 0-.356.29m6.081.949v.398h-3.33v-.268l2.155-3.9h.352l-.47.952-1.524 2.818zm-.72-3.77V5.96h-.42V.386zm4.087 4.091q0 .51-.199.858a1.34 1.34 0 0 1-.536.524 1.6 1.6 0 0 1-.754.177 1.6 1.6 0 0 1-.762-.177 1.34 1.34 0 0 1-.536-.524q-.195-.348-.195-.858 0-.33.111-.6.111-.276.306-.475.2-.203.471-.314.272-.111.597-.111.426 0 .762.195.34.192.536.528.2.337.2.777m-.429.004q0-.356-.141-.62a1.01 1.01 0 0 0-.927-.563q-.31 0-.55.15a1 1 0 0 0-.376.413q-.135.264-.134.62 0 .368.134.628a.97.97 0 0 0 .379.394q.24.135.555.134.315 0 .551-.134a.96.96 0 0 0 .372-.394q.137-.26.137-.628m.31-2.66q0 .41-.183.727a1.37 1.37 0 0 1-.494.502q-.31.18-.697.18-.397 0-.708-.18a1.35 1.35 0 0 1-.486-.502 1.5 1.5 0 0 1-.176-.727q0-.486.176-.823a1.26 1.26 0 0 1 .486-.513q.31-.176.7-.176.399 0 .709.176.31.175.49.513.183.337.183.823m-.424-.004q0-.325-.127-.574a.96.96 0 0 0-.34-.39.85.85 0 0 0-.49-.146.9.9 0 0 0-.487.134.93.93 0 0 0-.333.383q-.118.248-.118.593 0 .333.118.578.123.24.333.375.215.13.494.13a.93.93 0 0 0 .49-.13.93.93 0 0 0 .337-.375q.123-.245.123-.578M39.664.386v.268L37.681 5.96h-.444L39.213.784h-2.638V.386zm3.517 2.309v.937q0 .617-.1 1.072-.099.452-.283.747a1.2 1.2 0 0 1-.456.44q-.267.146-.605.146-.271 0-.497-.092a1.1 1.1 0 0 1-.402-.28 1.7 1.7 0 0 1-.299-.478 3 3 0 0 1-.187-.674 5.3 5.3 0 0 1-.065-.88v-.938q0-.616.1-1.065a2.3 2.3 0 0 1 .286-.742q.188-.295.452-.437.268-.145.609-.145.27 0 .493.092.227.09.402.28.18.183.299.466.123.283.188.67t.065.88m-.425.991V2.633q0-.378-.042-.685a2.8 2.8 0 0 0-.123-.54 1.3 1.3 0 0 0-.207-.39.802.802 0 0 0-.65-.314q-.256 0-.448.122a.97.97 0 0 0-.318.368 2.1 2.1 0 0 0-.191.605q-.066.36-.066.834v1.053q0 .375.043.685.042.306.122.544.084.237.207.398.126.16.287.245.165.08.367.08.256 0 .448-.126a1 1 0 0 0 .318-.379q.126-.253.188-.612.065-.364.065-.835"/></svg>