<svg xmlns="http://www.w3.org/2000/svg" fill="none" viewBox="0 0 162 15"><path fill="#fff" d="M1.517 3.521 1.092 1.57c.56-.387 1.643-.754 2.88-.754 2.475 0 3.635 1.508 3.635 3.209 0 1.334-.889 2.63-2.204 2.958v.039c1.528.309 2.591 1.469 2.591 3.267 0 2.494-2.127 3.867-4.466 3.867-1.083 0-2.03-.252-2.63-.58l.368-2.069c.56.329 1.295.522 2.01.522 1.354 0 2.07-.773 2.07-1.817 0-1.45-1.2-2.03-2.572-2.03h-.367V6.267h.251c1.16 0 2.32-.561 2.32-1.76 0-.908-.56-1.527-1.643-1.527-.6 0-1.315.251-1.818.541m12.42 7.502h-2.34L11.018 14H8.563L11.385.97h3.035L16.953 14h-2.455zM11.849 9.05h1.856l-.425-2.726a99 99 0 0 1-.426-2.958h-.058c-.135.87-.328 2.223-.464 2.977zM18.384.969h6.65v2.166h-4.137V5.86a4.6 4.6 0 0 1 1.025-.097c1.121 0 2.107.348 2.822.967.774.676 1.238 1.701 1.238 3.016 0 1.256-.387 2.262-1.083 2.958-.89.947-2.281 1.392-4.157 1.392-.966 0-1.778-.058-2.358-.136zm2.532 6.883v4.176c.174.039.348.039.561.039.6 0 1.083-.232 1.392-.619.329-.387.483-.928.483-1.508 0-.6-.174-1.14-.502-1.508a1.75 1.75 0 0 0-1.354-.638q-.319 0-.58.058M31.214.815c3.15 0 4.04 3.46 4.04 6.438 0 4.91-1.74 6.902-4.214 6.902-2.959 0-4.118-3.132-4.118-6.709 0-3.557 1.41-6.631 4.291-6.631m-.097 2.204c-1.006 0-1.566 1.662-1.566 4.466 0 2.958.56 4.466 1.585 4.466 1.064 0 1.47-1.934 1.47-4.582 0-2.282-.349-4.35-1.49-4.35M38.014 14V3.309h-2.3V.969h7.153v2.34h-2.32V14zm9.718-2.977h-2.339L44.813 14h-2.455L45.18.97h3.035L50.748 14h-2.455zM45.646 9.05H47.5l-.425-2.726a99 99 0 0 1-.425-2.958h-.058c-.136.87-.329 2.223-.464 2.977zM58.91.815c3.151 0 4.04 3.46 4.04 6.438 0 4.91-1.74 6.902-4.214 6.902-2.958 0-4.118-3.132-4.118-6.709 0-3.557 1.411-6.631 4.292-6.631m-.097 2.204c-1.005 0-1.566 1.662-1.566 4.466 0 2.958.56 4.466 1.585 4.466 1.064 0 1.47-1.934 1.47-4.582 0-2.282-.348-4.35-1.489-4.35M75.84 14l-.233-4.563c-.058-1.237-.154-2.919-.115-4.311h-.059a57 57 0 0 1-.83 4.002l-1.122 4.66h-1.798L70.6 9.204c-.251-1.044-.6-2.668-.792-4.079h-.059a144 144 0 0 1-.193 4.35L69.344 14h-2.185L68.106.97h2.668l1.044 4.717c.368 1.643.696 3.093.928 4.562h.039c.193-1.45.483-2.919.831-4.562L74.641.969h2.668L78.102 14zM79.952.97h2.243v2.88c0 2.397-.155 4.64-.252 5.993h.04c.366-1.121 1.024-2.822 1.41-3.828L85.307.97h2.301V14h-2.223v-2.939c0-2.61.096-4.543.154-5.858h-.038c-.29 1.18-.87 2.746-1.296 3.828L82.291 14h-2.339zm9.912 0h2.475v5.664h.193L94.66.969h2.784l-2.997 6.032c1.334.503 1.779 1.721 2.146 3.306.29 1.257.503 2.494.89 3.693h-2.533c-.31-.928-.503-1.991-.715-3.016-.31-1.527-.658-2.513-1.702-2.513h-.193V14h-2.475zM98.644 14V1.163c.715-.155 1.681-.252 2.648-.252 1.508 0 2.687.213 3.538 1.006.773.676 1.121 1.759 1.121 2.861 0 1.411-.425 2.397-1.102 3.132-.812.85-2.126 1.237-3.17 1.237h-.503V14zm2.532-10.943V7.08c.116.038.251.038.406.038 1.276 0 1.856-.908 1.856-2.126 0-1.141-.464-2.03-1.643-2.03-.232 0-.464.038-.619.096m9.957-2.242c3.152 0 4.041 3.46 4.041 6.438 0 4.91-1.74 6.902-4.215 6.902-2.958 0-4.118-3.132-4.118-6.709 0-3.557 1.412-6.631 4.292-6.631m-.096 2.204c-1.006 0-1.566 1.662-1.566 4.466 0 2.958.56 4.466 1.585 4.466 1.063 0 1.469-1.934 1.469-4.582 0-2.282-.348-4.35-1.488-4.35m9.25-2.514h2.223v.986c2.339.31 4.118 2.146 4.118 5.897 0 4.002-1.798 5.684-4.118 6.013v1.063h-2.243v-1.063c-2.358-.348-4.118-2.011-4.118-5.955 0-3.828 2.108-5.645 4.138-5.955zm0 11.04V3.328c-.774.232-1.605 1.276-1.605 4.157 0 2.687.812 3.886 1.605 4.06m2.204-8.217v8.217c.85-.174 1.604-1.218 1.604-4.138 0-2.958-.87-3.905-1.604-4.079m6.108-2.359h6.786V14h-2.532V3.173h-1.934v3.442c0 2.996-.193 5.626-1.836 6.902-.484.386-1.102.638-1.74.638l-.542-2.146c.31-.078.638-.232.87-.464.754-.774.928-2.166.928-4.698zm12.686-.154c3.151 0 4.041 3.46 4.041 6.438 0 4.91-1.74 6.902-4.215 6.902-2.958 0-4.118-3.132-4.118-6.709 0-3.557 1.411-6.631 4.292-6.631m-.097 2.204c-1.005 0-1.566 1.662-1.566 4.466 0 2.958.561 4.466 1.586 4.466 1.063 0 1.469-1.934 1.469-4.582 0-2.282-.348-4.35-1.489-4.35M146.939 14V1.163c.715-.155 1.682-.252 2.649-.252 1.508 0 2.687.213 3.538 1.006.773.676 1.121 1.759 1.121 2.861 0 1.411-.425 2.397-1.102 3.132-.812.85-2.127 1.237-3.171 1.237h-.502V14zm2.533-10.943V7.08c.116.038.251.038.406.038 1.276 0 1.856-.908 1.856-2.126 0-1.141-.464-2.03-1.644-2.03-.232 0-.464.038-.618.096m11.813 3.113v2.107h-2.977v3.519h3.364V14h-5.897V.97h5.665v2.203h-3.132V6.17z"/></svg>