<svg width="64" height="64" viewBox="0 0 64 64" fill="none" xmlns="http://www.w3.org/2000/svg">
<path d="M59.7136 16.0011C56.9061 11.1357 52.8643 7.09615 48.0011 4.28866C43.1357 1.47893 37.6172 0 32 0C26.3828 0 20.8643 1.47893 15.9989 4.28642C11.1335 7.09391 7.09391 11.1357 4.28642 15.9989C1.47893 20.8643 0 26.3828 0 32C0 37.6172 1.47893 43.1357 4.28642 48.0011C7.09391 52.8665 11.1357 56.9061 15.9989 59.7136C20.8643 62.5211 26.3828 64 32 64C37.6172 64 43.1357 62.5211 48.0011 59.7136C52.8665 56.9061 56.9061 52.8643 59.7136 48.0011C62.5233 43.1357 64 37.6172 64 32C64 26.3828 62.5211 20.8643 59.7136 15.9989V16.0011ZM3.20022 32C3.20022 26.9438 4.53103 21.9774 7.058 17.599C9.58496 13.2206 13.2206 9.58496 17.599 7.058C21.7171 4.68139 26.3536 3.36181 31.0978 3.21369L27.4241 29.3586L6.62038 45.6133C4.37843 41.4324 3.20022 36.7555 3.20022 32ZM46.401 56.942C42.0226 59.469 37.0562 60.7998 32 60.7998C26.9438 60.7998 21.9774 59.469 17.599 56.942C13.4809 54.5654 10.0203 51.2081 7.5203 47.173L32 37.2828L56.4797 47.173C53.9797 51.2058 50.5191 54.5632 46.401 56.942ZM57.3796 45.6133L36.5759 29.3586L32.9022 3.21369C37.6442 3.36181 42.2829 4.68139 46.401 7.058C50.7794 9.58496 54.415 13.2206 56.942 17.599C59.469 21.9774 60.7998 26.9438 60.7998 32C60.7998 36.7555 59.6216 41.4301 57.3796 45.6133Z" fill="black"/>
</svg>
