<svg xmlns="http://www.w3.org/2000/svg" fill="none" viewBox="0 0 161 38"><path fill="#000" d="M28.227 4.08c.5 0 1-.06 1.58-.12v.44c-1.1.12-1.3.26-1.3 1.72v11.44h-.24l-6.38-11.8v9.48c0 1.48.22 1.6 1.46 1.72v.44c-.54-.06-1.14-.12-1.68-.12h-.06c-.5 0-1 .06-1.58.12v-.44c1.1-.12 1.3-.26 1.3-1.72V4.96c-.2-.26-.54-.44-1.3-.54v-.44c.8.08 1.04.1 1.54.1.36 0 .7-.02 1.06-.06l5.32 9.82v-7.7c0-1.48-.22-1.62-1.46-1.74v-.44c.62.08 1.14.12 1.68.12zm11.2 11.26c.46 1.44.6 1.5 1.5 1.62v.44c-.86-.08-1.26-.12-1.9-.12-.62 0-1.14.04-2.1.12v-.44c1.1-.12 1.34-.2.9-1.64l-.62-2.04h-3.84l-.58 2.04c-.4 1.42-.2 1.52.9 1.64v.44c-.54-.06-1.18-.12-1.64-.12s-.84.06-1.36.12v-.44c.94-.12 1.14-.32 1.52-1.64l3.26-11.52h.24zm-5.9-2.62h3.5l-1.8-5.88zm15.429-8.64c.4 0 .86-.04 1.36-.12v.44c-.94.12-1.2.32-1.58 1.64l-3.3 11.52h-.24l-3.6-11.54c-.44-1.44-.66-1.5-1.56-1.62v-.44c.82.08 1.26.12 1.88.12.64 0 1.16-.04 2.18-.12v.44c-1.18.12-1.28.22-.86 1.64l2.48 8.38 2.44-8.38c.42-1.4.32-1.52-.86-1.64v-.44c.58.06 1.18.12 1.66.12M55.38 2.5h-.82L52.4.2h.58l1.98 1.2L56.94.2h.58zm1.08 7.8c1.4.82 2.24 1.86 2.24 3.6 0 1.96-1.56 3.66-3.68 3.66-1.14 0-2.16-.5-2.7-1.22l-.52 1.32h-.28v-4.58h.4c.34 2.48 1.22 3.96 3.04 3.96 1.54 0 2.44-.9 2.44-2.36 0-1.52-.78-2.34-2.06-3.1l-1.46-.86c-1.36-.8-2.24-1.8-2.24-3.56 0-2.16 1.64-3.36 3.26-3.36 1.14 0 2.02.64 2.48 1.34l.4-1.36h.28v4h-.36c-.32-1.94-1.2-3.46-2.72-3.46-1.34 0-2.12.92-2.12 2.32 0 1.28.7 1.96 1.86 2.64zM68.65 4l.26 3.28h-.4c-.4-2.16-.72-2.72-2.32-2.72h-.8v10.68c0 1.48.22 1.6 1.44 1.72v.44c-.92-.08-1.5-.12-2.2-.12s-1.28.04-2.2.12v-.44c1.22-.12 1.44-.24 1.44-1.72V4.56h-.8c-1.6 0-1.92.56-2.32 2.72h-.4L60.61 4zm3.157 2.12c0-1.46-.2-1.6-1.3-1.72v-.44c1.22.1 1.4.12 2.06.12s.84-.02 2.06-.12v.44c-1.1.12-1.3.26-1.3 1.72v9.12c0 1.46.2 1.6 1.3 1.72v.44c-1.22-.1-1.4-.12-2.06-.12s-.84.02-2.06.12v-.44c1.1-.12 1.3-.26 1.3-1.72zm12.79-2.04c.4 0 .86-.04 1.36-.12v.44c-.94.12-1.2.32-1.58 1.64l-3.3 11.52h-.24l-3.6-11.54c-.44-1.44-.66-1.5-1.56-1.62v-.44c.82.08 1.26.12 1.88.12.64 0 1.16-.04 2.18-.12v.44c-1.18.12-1.28.22-.86 1.64l2.48 8.38 2.44-8.38c.42-1.4.32-1.52-.86-1.64v-.44c.58.06 1.18.12 1.66.12M95.118 4l.26 3.28h-.4c-.4-2.16-.72-2.72-2.32-2.72h-.8v10.68c0 1.48.22 1.6 1.44 1.72v.44c-.92-.08-1.5-.12-2.2-.12s-1.28.04-2.2.12v-.44c1.22-.12 1.44-.24 1.44-1.72V4.56h-.8c-1.6 0-1.92.56-2.32 2.72h-.4l.26-3.28zm9.498 10.08h.4l-.34 3.28h-7.7v-.44c1.1-.06 1.3-.24 1.3-1.6V6.04c0-1.36-.2-1.54-1.3-1.6V4h7.28l.28 3.1h-.4c-.38-2-.76-2.54-2.34-2.54h-2v5.6h2.32c.68 0 .86-.36.92-1.62h.4v3.8h-.4c-.04-1.26-.24-1.62-.92-1.62h-2.32V16c0 .56.12.8.98.8h1.44c1.64 0 1.92-.58 2.4-2.72m14.67-10c.5 0 1-.06 1.58-.12v.44c-1.1.12-1.3.26-1.3 1.72v11.44h-.24l-6.38-11.8v9.48c0 1.48.22 1.6 1.46 1.72v.44c-.54-.06-1.14-.12-1.68-.12h-.06c-.5 0-1 .06-1.58.12v-.44c1.1-.12 1.3-.26 1.3-1.72V4.96c-.2-.26-.54-.44-1.3-.54v-.44c.8.08 1.04.1 1.54.1.36 0 .7-.02 1.06-.06l5.32 9.82v-7.7c0-1.48-.22-1.62-1.46-1.74v-.44c.62.08 1.14.12 1.68.12zm9.021-2.58-2.1 1.18h-.58l1.8-2.16c.3-.36.48-.52.84-.52.32 0 .66.28.66.7 0 .2-.04.48-.62.8m2.18 13.84c.46 1.44.6 1.5 1.5 1.62v.44c-.86-.08-1.26-.12-1.9-.12-.62 0-1.14.04-2.1.12v-.44c1.1-.12 1.34-.2.9-1.64l-.62-2.04h-3.84l-.58 2.04c-.4 1.42-.2 1.52.9 1.64v.44c-.54-.06-1.18-.12-1.64-.12s-.84.06-1.36.12v-.44c.94-.12 1.14-.32 1.52-1.64l3.26-11.52h.24zm-5.9-2.62h3.5l-1.8-5.88zM137.148 2.5h-.82l-2.16-2.3h.58l1.98 1.2 1.98-1.2h.58zm1.08 7.8c1.4.82 2.24 1.86 2.24 3.6 0 1.96-1.56 3.66-3.68 3.66-1.14 0-2.16-.5-2.7-1.22l-.52 1.32h-.28v-4.58h.4c.34 2.48 1.22 3.96 3.04 3.96 1.54 0 2.44-.9 2.44-2.36 0-1.52-.78-2.34-2.06-3.1l-1.46-.86c-1.36-.8-2.24-1.8-2.24-3.56 0-2.16 1.64-3.36 3.26-3.36 1.14 0 2.02.64 2.48 1.34l.4-1.36h.28v4h-.36c-.32-1.94-1.2-3.46-2.72-3.46-1.34 0-2.12.92-2.12 2.32 0 1.28.7 1.96 1.86 2.64zM4.64 37.56C2.1 37.56 0 35.18 0 30.68s2.1-6.88 4.64-6.88 4.64 2.38 4.64 6.88-2.1 6.88-4.64 6.88m0-.52c2.04 0 3.02-2.42 3.02-6.36s-.98-6.36-3.02-6.36-3.02 2.42-3.02 6.36.98 6.36 3.02 6.36m14.742-12.96c.5 0 1-.06 1.58-.12v.44c-1.1.12-1.3.26-1.3 1.72v11.44h-.24l-6.38-11.8v9.48c0 1.48.22 1.6 1.46 1.72v.44c-.54-.06-1.14-.12-1.68-.12h-.06c-.5 0-1 .06-1.58.12v-.44c1.1-.12 1.3-.26 1.3-1.72V24.96c-.2-.26-.54-.44-1.3-.54v-.44c.8.08 1.04.1 1.54.1.36 0 .7-.02 1.06-.06l5.32 9.82v-7.7c0-1.48-.22-1.62-1.46-1.74v-.44c.62.08 1.14.12 1.68.12zm11.337 9.66-.52 3.62h-7.46v-.44c1.1-.06 1.3-.24 1.3-1.6v-9.2c0-1.46-.2-1.6-1.3-1.72v-.44c1.22.1 1.4.12 2.06.12.7 0 .98-.02 2.18-.12v.44c-1.2.12-1.42.24-1.42 1.72V36c0 .56.12.8.98.8h1.2c1.38 0 2.06-.64 2.58-3.06zm2.826-7.62c0-1.46-.2-1.6-1.3-1.72v-.44c1.22.1 1.4.12 2.06.12s.84-.02 2.06-.12v.44c-1.1.12-1.3.26-1.3 1.72v9.12c0 1.46.2 1.6 1.3 1.72v.44c-1.22-.1-1.4-.12-2.06-.12s-.84.02-2.06.12v-.44c1.1-.12 1.3-.26 1.3-1.72zm12.89-2.04c.5 0 1-.06 1.58-.12v.44c-1.1.12-1.3.26-1.3 1.72v11.44h-.24l-6.38-11.8v9.48c0 1.48.22 1.6 1.46 1.72v.44c-.54-.06-1.14-.12-1.68-.12h-.06c-.5 0-1 .06-1.58.12v-.44c1.1-.12 1.3-.26 1.3-1.72V24.96c-.2-.26-.54-.44-1.3-.54v-.44c.8.08 1.04.1 1.54.1.36 0 .7-.02 1.06-.06l5.32 9.82v-7.7c0-1.48-.22-1.62-1.46-1.74v-.44c.62.08 1.14.12 1.68.12zm10.998 10h.4l-.34 3.28h-7.7v-.44c1.1-.06 1.3-.24 1.3-1.6v-9.28c0-1.36-.2-1.54-1.3-1.6V24h7.28l.28 3.1h-.4c-.38-2-.76-2.54-2.34-2.54h-2v5.6h2.32c.68 0 .86-.36.92-1.62h.4v3.8h-.4c-.04-1.26-.24-1.62-.92-1.62h-2.32V36c0 .56.12.8.98.8h1.44c1.64 0 1.92-.58 2.4-2.72m11.69-3.78c1.4.82 2.24 1.86 2.24 3.6 0 1.96-1.56 3.66-3.68 3.66-1.14 0-2.16-.5-2.7-1.22l-.52 1.32h-.28v-4.58h.4c.34 2.48 1.22 3.96 3.04 3.96 1.54 0 2.44-.9 2.44-2.36 0-1.52-.78-2.34-2.06-3.1l-1.46-.86c-1.36-.8-2.24-1.8-2.24-3.56 0-2.16 1.64-3.36 3.26-3.36 1.14 0 2.02.64 2.48 1.34l.4-1.36h.28v4h-.36c-.32-1.94-1.2-3.46-2.72-3.46-1.34 0-2.12.92-2.12 2.32 0 1.28.7 1.96 1.86 2.64zm14.349-5.9c-1.1.12-1.3.26-1.3 1.72v9.12c0 1.46.2 1.6 1.3 1.72v.44c-1.22-.1-1.4-.12-2.06-.12s-.84.02-2.06.12v-.44c1.1-.12 1.3-.26 1.3-1.72v-4.5h-4.54v4.5c0 1.46.2 1.6 1.3 1.72v.44c-1.22-.1-1.4-.12-2.06-.12s-.84.02-2.06.12v-.44c1.1-.12 1.3-.26 1.3-1.72v-9.12c0-1.46-.2-1.6-1.3-1.72v-.44c1.22.1 1.4.12 2.06.12s.84-.02 2.06-.12v.44c-1.1.12-1.3.26-1.3 1.72v4.06h4.54v-4.06c0-1.46-.2-1.6-1.3-1.72v-.44c1.22.1 1.4.12 2.06.12s.84-.02 2.06-.12zm6.549 13.16c-2.54 0-4.64-2.38-4.64-6.88s2.1-6.88 4.64-6.88 4.64 2.38 4.64 6.88-2.1 6.88-4.64 6.88m0-.52c2.04 0 3.02-2.42 3.02-6.36s-.98-6.36-3.02-6.36S87 26.74 87 30.68s.98 6.36 3.02 6.36m18.462-12.96c.42 0 .84-.04 1.32-.12v.44c-.86.12-1.06.26-1.36 1.68l-2.42 11.48h-.24l-2.98-10.34-2.84 10.34h-.24l-2.62-11.5c-.32-1.42-.5-1.54-1.32-1.66v-.44c.94.1 1.22.12 1.76.12.68 0 1.06-.02 2.1-.12v.44c-1.2.12-1.24.22-.94 1.68l1.66 7.86 2.74-10.14h.24l2.88 10.12 1.64-7.84c.3-1.44.24-1.56-.96-1.68v-.44c.58.08 1.06.12 1.58.12m10.768 11.78c.38.98.64 1.12 1.6 1.12v.44c-.32.08-.76.12-1.14.12-.88 0-1.72-.28-2.18-1.62l-1.02-2.92c-.42-1.2-.92-2.04-2.32-2.04h-.42v4.28c0 1.46.2 1.6 1.3 1.72v.44c-1.22-.1-1.4-.12-2.06-.12s-.84.02-2.06.12v-.44c1.1-.12 1.3-.26 1.3-1.72v-9.2c0-1.36-.2-1.54-1.3-1.6V24h4.26c2.32 0 3.76 1.34 3.76 3.42 0 1.86-1.52 3.16-3.34 3.36.82.14 1.94.68 2.54 2.24zm-4.34-11.3h-1.14v5.84h1.16c1.68 0 2.42-1.12 2.42-2.9 0-1.8-.74-2.94-2.44-2.94m11.46 13c-2.54 0-4.64-2.38-4.64-6.88s2.1-6.88 4.64-6.88 4.64 2.38 4.64 6.88-2.1 6.88-4.64 6.88m0-.52c2.04 0 3.02-2.42 3.02-6.36s-.98-6.36-3.02-6.36-3.02 2.42-3.02 6.36.98 6.36 3.02 6.36m11.518.52c-2.54 0-4.64-2.38-4.64-6.88s2.1-6.88 4.64-6.88 4.64 2.38 4.64 6.88-2.1 6.88-4.64 6.88m0-.52c2.04 0 3.02-2.42 3.02-6.36s-.98-6.36-3.02-6.36-3.02 2.42-3.02 6.36.98 6.36 3.02 6.36m17.522-1.8c.04 1.46.26 1.6 1.36 1.72v.44c-1.22-.1-1.4-.12-2.06-.12h-.04c-.7 0-1.2.04-2.16.12v-.44c1.22-.12 1.42-.24 1.38-1.72l-.28-9.62-3.48 11.48h-.24l-3.42-11.46-.3 9.6c-.04 1.48.16 1.6 1.38 1.72v.44c-.76-.08-1.16-.12-1.7-.12h-.02c-.5 0-1 .06-1.58.12v-.44c1.1-.12 1.32-.26 1.36-1.72l.28-9.12c.04-1.46-.14-1.6-1.24-1.72v-.44c1.22.1 1.4.12 1.86.12.5 0 .78-.02 1.08-.06l2.92 9.88 2.98-9.88c.28.04.66.06 1.02.06.46 0 .64-.02 1.86-.1v.44c-1.1.1-1.28.24-1.24 1.7zm4.197 2.32c-.6 0-1-.44-1-1.02s.4-1.02 1-1.02 1 .44 1 1.02-.4 1.02-1 1.02"/></svg>