<svg xmlns="http://www.w3.org/2000/svg" fill="none" viewBox="0 0 103 38"><path fill="#000" d="M26.546 4.08c.5 0 1-.06 1.58-.12v.44c-1.1.12-1.3.26-1.3 1.72v11.44h-.24l-6.38-11.8v9.48c0 1.48.22 1.6 1.46 1.72v.44c-.54-.06-1.14-.12-1.68-.12h-.06c-.5 0-1 .06-1.58.12v-.44c1.1-.12 1.3-.26 1.3-1.72V4.96c-.2-.26-.54-.44-1.3-.54v-.44c.8.08 1.04.1 1.54.1.36 0 .7-.02 1.06-.06l5.32 9.82v-7.7c0-1.48-.22-1.62-1.46-1.74v-.44c.62.08 1.14.12 1.68.12zm11.201 11.26c.46 1.44.6 1.5 1.5 1.62v.44c-.86-.08-1.26-.12-1.9-.12-.62 0-1.14.04-2.1.12v-.44c1.1-.12 1.34-.2.9-1.64l-.62-2.04h-3.84l-.58 2.04c-.4 1.42-.2 1.52.9 1.64v.44c-.54-.06-1.18-.12-1.64-.12s-.84.06-1.36.12v-.44c.94-.12 1.14-.32 1.52-1.64l3.26-11.52h.24zm-5.9-2.62h3.5l-1.8-5.88zm23.088 2.52c.04 1.46.26 1.6 1.36 1.72v.44c-1.22-.1-1.4-.12-2.06-.12h-.04c-.7 0-1.2.04-2.16.12v-.44c1.22-.12 1.42-.24 1.38-1.72l-.28-9.62-3.48 11.48h-.24l-3.42-11.46-.3 9.6c-.04 1.48.16 1.6 1.38 1.72v.44c-.76-.08-1.16-.12-1.7-.12h-.02c-.5 0-1 .06-1.58.12v-.44c1.1-.12 1.32-.26 1.36-1.72l.28-9.12c.04-1.46-.14-1.6-1.24-1.72v-.44c1.22.1 1.4.12 1.86.12.5 0 .78-.02 1.08-.06l2.92 9.88 2.98-9.88c.28.04.66.06 1.02.06.46 0 .64-.02 1.86-.1v.44c-1.1.1-1.28.24-1.24 1.7zM59.05 2.68l1.8-2.16c.3-.36.48-.52.84-.52.32 0 .66.28.66.7 0 .2-.04.48-.62.8l-2.1 1.18zm.26 3.44c0-1.46-.2-1.6-1.3-1.72v-.44c1.22.1 1.4.12 2.06.12s.84-.02 2.06-.12v.44c-1.1.12-1.3.26-1.3 1.72v9.12c0 1.46.2 1.6 1.3 1.72v.44c-1.22-.1-1.4-.12-2.06-.12s-.84.02-2.06.12v-.44c1.1-.12 1.3-.26 1.3-1.72zm12.99 9.74c.38.98.64 1.12 1.6 1.12v.44c-.32.08-.76.12-1.14.12-.88 0-1.72-.28-2.18-1.62L69.562 13c-.42-1.2-.92-2.04-2.32-2.04h-.42v4.28c0 1.46.2 1.6 1.3 1.72v.44c-1.22-.1-1.4-.12-2.06-.12s-.84.02-2.06.12v-.44c1.1-.12 1.3-.26 1.3-1.72v-9.2c0-1.36-.2-1.54-1.3-1.6V4h4.26c2.32 0 3.76 1.34 3.76 3.42 0 1.86-1.52 3.16-3.34 3.36.82.14 1.94.68 2.54 2.24zm-4.34-11.3h-1.14v5.84h1.16c1.68 0 2.42-1.12 2.42-2.9 0-1.8-.74-2.94-2.44-2.94m14.644 1.56c0-1.46-.2-1.6-1.3-1.72v-.44c.58.06 1.08.12 1.58.12s1-.06 1.58-.12v.44c-1.1.12-1.3.26-1.3 1.72v7.54c0 2.58-1.36 3.9-3.66 3.9-2.4 0-3.88-1.42-3.88-3.76V6.12c0-1.46-.2-1.6-1.3-1.72v-.44c1.22.1 1.4.12 2.06.12s.84-.02 2.06-.12v.44c-1.1.12-1.3.26-1.3 1.72v7.48c0 2.22 1.02 3.18 2.62 3.18 1.84 0 2.84-.96 2.84-3.18zM4.08 24c2.86 0 5.2 2.6 5.2 6.68s-2.34 6.68-5.2 6.68H0v-.44c1.1-.06 1.3-.24 1.3-1.6v-9.28c0-1.36-.2-1.54-1.3-1.6V24zM3.8 36.8h.12c2.54 0 3.74-2.54 3.74-6.12s-1.2-6.12-3.74-6.12h-1.1V36c0 .56.12.8.98.8m12.343.76c-2.54 0-4.64-2.38-4.64-6.88s2.1-6.88 4.64-6.88 4.64 2.38 4.64 6.88-2.1 6.88-4.64 6.88m0-.52c2.04 0 3.02-2.42 3.02-6.36s-.98-6.36-3.02-6.36-3.02 2.42-3.02 6.36.98 6.36 3.02 6.36m14.89-6.94c1.54.34 2.94 1.5 2.94 3.66 0 2.46-1.78 3.8-3.74 3.8-1.74 0-3.1-1.26-3.1-3.28h.5c0 1.6 1.12 2.7 2.38 2.7 1.64 0 2.42-1.4 2.42-3.3 0-1.94-.82-3.26-2.58-3.26h-.46v-.5h.46c1.62 0 2.18-1.56 2.18-2.92 0-1.22-.46-2.68-2.02-2.68-1.32 0-2.04 1.26-2.04 2.52h-.5c0-1.56.92-3.04 2.84-3.04 1.94 0 3.24 1.32 3.24 3.08 0 1.7-1.22 2.82-2.52 3.22m20.291 5.14c.04 1.46.26 1.6 1.36 1.72v.44c-1.22-.1-1.4-.12-2.06-.12h-.04c-.7 0-1.2.04-2.16.12v-.44c1.22-.12 1.42-.24 1.38-1.72l-.28-9.62-3.48 11.48h-.24l-3.42-11.46-.3 9.6c-.04 1.48.16 1.6 1.38 1.72v.44c-.76-.08-1.16-.12-1.7-.12h-.02c-.5 0-1 .06-1.58.12v-.44c1.1-.12 1.32-.26 1.36-1.72l.28-9.12c.04-1.46-.14-1.6-1.24-1.72v-.44c1.22.1 1.4.12 1.86.12.5 0 .78-.02 1.08-.06l2.92 9.88 2.98-9.88c.28.04.66.06 1.02.06.46 0 .64-.02 1.86-.1v.44c-1.1.1-1.28.24-1.24 1.7zm7.717-12.74h-.82l-2.16-2.3h.58l1.98 1.2 1.98-1.2h.58zm3 11.58h.4l-.34 3.28h-7.7v-.44c1.1-.06 1.3-.24 1.3-1.6v-9.28c0-1.36-.2-1.54-1.3-1.6V24h7.28l.28 3.1h-.4c-.38-2-.76-2.54-2.34-2.54h-2v5.6h2.32c.68 0 .86-.36.92-1.62h.4v3.8h-.4c-.04-1.26-.24-1.62-.92-1.62h-2.32V36c0 .56.12.8.98.8h1.44c1.64 0 1.92-.58 2.4-2.72m7.418-3.78c1.4.82 2.24 1.86 2.24 3.6 0 1.96-1.56 3.66-3.68 3.66-1.14 0-2.16-.5-2.7-1.22l-.52 1.32h-.28v-4.58h.4c.34 2.48 1.22 3.96 3.04 3.96 1.54 0 2.44-.9 2.44-2.36 0-1.52-.78-2.34-2.06-3.1l-1.46-.86c-1.36-.8-2.24-1.8-2.24-3.56 0-2.16 1.64-3.36 3.26-3.36 1.14 0 2.02.64 2.48 1.34l.4-1.36h.28v4h-.36c-.32-1.94-1.2-3.46-2.72-3.46-1.34 0-2.12.92-2.12 2.32 0 1.28.7 1.96 1.86 2.64zm5.21-7.62 1.8-2.16c.3-.36.48-.52.84-.52.32 0 .66.28.66.7 0 .2-.04.48-.62.8l-2.1 1.18zm.26 3.44c0-1.46-.2-1.6-1.3-1.72v-.44c1.22.1 1.4.12 2.06.12s.84-.02 2.06-.12v.44c-1.1.12-1.3.26-1.3 1.72v9.12c0 1.46.2 1.6 1.3 1.72v.44c-1.22-.1-1.4-.12-2.06-.12s-.84.02-2.06.12v-.44c1.1-.12 1.3-.26 1.3-1.72zm12.254 6.7h.52c-.16 3.34-1.66 4.74-3.56 4.74-2.54 0-4.48-2.4-4.48-6.88s2.04-6.88 4.54-6.88c1.18 0 2.06.58 2.56 1.28l.44-1.28h.28V28h-.36c-.46-2.56-1.36-3.68-2.92-3.68-1.98 0-2.92 2.38-2.92 6.36 0 4.06 1 6.18 3.16 6.18 1.34 0 2.58-1.1 2.74-4.04m7.709-10.14c-.9 0-1.62-.7-1.62-1.6s.72-1.6 1.62-1.6 1.62.7 1.62 1.6-.72 1.6-1.62 1.6m0-.52c.58 0 1.04-.44 1.04-1.08s-.46-1.08-1.04-1.08-1.04.44-1.04 1.08.46 1.08 1.04 1.08m2.9 3.96c0-1.46-.2-1.6-1.3-1.72v-.44c.58.06 1.08.12 1.58.12s1-.06 1.58-.12v.44c-1.1.12-1.3.26-1.3 1.72v7.54c0 2.58-1.36 3.9-3.66 3.9-2.4 0-3.88-1.42-3.88-3.76v-7.68c0-1.46-.2-1.6-1.3-1.72v-.44c1.22.1 1.4.12 2.06.12s.84-.02 2.06-.12v.44c-1.1.12-1.3.26-1.3 1.72v7.48c0 2.22 1.02 3.18 2.62 3.18 1.84 0 2.84-.96 2.84-3.18zm3.756 11.44c-.6 0-1-.44-1-1.02s.4-1.02 1-1.02 1 .44 1 1.02-.4 1.02-1 1.02"/></svg>