<svg xmlns="http://www.w3.org/2000/svg" fill="none" viewBox="0 0 128 38"><path fill="#000" d="M4.94 10.3c1.4.82 2.24 1.86 2.24 3.6 0 1.96-1.56 3.66-3.68 3.66-1.14 0-2.16-.5-2.7-1.22l-.52 1.32H0v-4.58h.4c.34 2.48 1.22 3.96 3.04 3.96 1.54 0 2.44-.9 2.44-2.36 0-1.52-.78-2.34-2.06-3.1l-1.46-.86C1 9.92.12 8.92.12 7.16.12 5 1.76 3.8 3.38 3.8c1.14 0 2.02.64 2.48 1.34l.4-1.36h.28v4h-.36c-.32-1.94-1.2-3.46-2.72-3.46-1.34 0-2.12.92-2.12 2.32 0 1.28.7 1.96 1.86 2.64zm12.49 5.44c.52.86.78 1.1 1.62 1.22v.44c-.84-.1-1.24-.12-1.92-.12-.72 0-1.34.02-2.24.12v-.44c1.06-.12 1.4-.18.7-1.38l-2.96-5.04h-.7v4.7c0 1.46.2 1.6 1.3 1.72v.44c-1.22-.1-1.4-.12-2.06-.12s-.84.02-2.06.12v-.44c1.1-.12 1.3-.26 1.3-1.72V6.12c0-1.46-.2-1.6-1.3-1.72v-.44c1.22.1 1.4.12 2.06.12s.84-.02 2.06-.12v.44c-1.1.12-1.3.26-1.3 1.72v3.86h.7l3.02-4.32c.7-1 .24-1.16-.86-1.26v-.44c.76.08 1.32.12 1.9.12.52 0 1.06-.04 1.76-.12v.44c-1.04.12-1.36.16-2.12 1.26l-2.64 3.78zm10.845-2-.52 3.62h-7.46v-.44c1.1-.06 1.3-.24 1.3-1.6v-9.2c0-1.46-.2-1.6-1.3-1.72v-.44c1.22.1 1.4.12 2.06.12.7 0 .98-.02 2.18-.12v.44c-1.2.12-1.42.24-1.42 1.72V16c0 .56.12.8.98.8h1.2c1.38 0 2.06-.64 2.58-3.06zm9.546 1.6c.46 1.44.6 1.5 1.5 1.62v.44c-.86-.08-1.26-.12-1.9-.12-.62 0-1.14.04-2.1.12v-.44c1.1-.12 1.34-.2.9-1.64l-.62-2.04h-3.84l-.58 2.04c-.4 1.42-.2 1.52.9 1.64v.44c-.54-.06-1.18-.12-1.64-.12s-.84.06-1.36.12v-.44c.94-.12 1.14-.32 1.52-1.64l3.26-11.52h.24zm-5.9-2.62h3.5l-1.8-5.88zM44.423 4c2.86 0 5.2 2.6 5.2 6.68s-2.34 6.68-5.2 6.68h-4.08v-.44c1.1-.06 1.3-.24 1.3-1.6V6.04c0-1.36-.2-1.54-1.3-1.6V4zm-.28 12.8h.12c2.54 0 3.74-2.54 3.74-6.12s-1.2-6.12-3.74-6.12h-1.1V16c0 .56.12.8.98.8m12.342.76c-2.54 0-4.64-2.38-4.64-6.88s2.1-6.88 4.64-6.88 4.64 2.38 4.64 6.88-2.1 6.88-4.64 6.88m0-.52c2.04 0 3.02-2.42 3.02-6.36s-.98-6.36-3.02-6.36-3.02 2.42-3.02 6.36.98 6.36 3.02 6.36M70.932 4.08c.4 0 .86-.04 1.36-.12v.44c-.94.12-1.2.32-1.58 1.64l-3.3 11.52h-.24l-3.6-11.54c-.44-1.44-.66-1.5-1.56-1.62v-.44c.82.08 1.26.12 1.88.12.64 0 1.16-.04 2.18-.12v.44c-1.18.12-1.28.22-.86 1.64l2.48 8.38 2.44-8.38c.42-1.4.32-1.52-.86-1.64v-.44c.58.06 1.18.12 1.66.12m8.38-2.58-2.1 1.18h-.58l1.8-2.16c.3-.36.48-.52.84-.52.32 0 .66.28.66.7 0 .2-.04.48-.62.8m1.76 12.58h.4l-.34 3.28h-7.7v-.44c1.1-.06 1.3-.24 1.3-1.6V6.04c0-1.36-.2-1.54-1.3-1.6V4h7.28l.28 3.1h-.4c-.38-2-.76-2.54-2.34-2.54h-2v5.6h2.32c.68 0 .86-.36.92-1.62h.4v3.8h-.4c-.04-1.26-.24-1.62-.92-1.62h-2.32V16c0 .56.12.8.98.8h1.44c1.64 0 1.92-.58 2.4-2.72m13.964-10c.4 0 .86-.04 1.36-.12v.44c-.94.12-1.2.32-1.58 1.64l-3.3 11.52h-.24l-3.6-11.54c-.44-1.44-.66-1.5-1.56-1.62v-.44c.82.08 1.26.12 1.88.12.64 0 1.16-.04 2.18-.12v.44c-1.18.12-1.28.22-.86 1.64l2.48 8.38 2.44-8.38c.42-1.4.32-1.52-.86-1.64v-.44c.58.06 1.18.12 1.66.12m6.852 13.48c-2.54 0-4.64-2.38-4.64-6.88s2.1-6.88 4.64-6.88 4.64 2.38 4.64 6.88-2.1 6.88-4.64 6.88m0-.52c2.04 0 3.02-2.42 3.02-6.36s-.98-6.36-3.02-6.36-3.02 2.42-3.02 6.36.98 6.36 3.02 6.36m13.92-3.36h.4l-.44 3.68h-7.7v-.16l6.2-12.64h-2.62c-1.56 0-1.94.6-2.32 2.82h-.4l.26-3.38h6.94v.16l-6.2 12.64h3.18c1.84 0 2.16-.66 2.7-3.12m9.966-9.6c.4 0 .78-.04 1.24-.12v.44c-.88.12-1.1.16-1.7 1.54l-2.28 5.14v4.16c-.02 1.48.22 1.6 1.38 1.72v.44c-1.26-.1-1.46-.12-2.14-.12s-.96.02-2.14.12v-.44c1.16-.12 1.4-.24 1.38-1.72V11.3l-2.62-5.38c-.62-1.28-.8-1.4-1.62-1.52v-.44c1.04.1 1.32.12 1.92.12.58 0 1.18-.04 2.02-.12v.44c-1.2.12-1.32.26-.7 1.5l2.22 4.44 1.98-4.4c.58-1.3.42-1.44-.66-1.54v-.44c.6.08 1.2.12 1.72.12M20.613 30.3c1.68.3 2.96 1.58 2.96 3.46 0 2.2-1.7 3.6-3.78 3.6h-4.6v-.44c1.1-.06 1.3-.24 1.3-1.6v-9.28c0-1.36-.2-1.54-1.3-1.6V24h4.02c2.32 0 3.76 1.26 3.76 3.2 0 1.52-.98 2.64-2.36 3.1m-1.68-5.74h-.92v5.62h.92c1.68 0 2.42-1.08 2.42-2.82 0-1.72-.74-2.8-2.42-2.8m.66 12.24c1.64 0 2.36-1.16 2.36-3.04 0-1.86-.72-3.02-2.36-3.02h-1.58V36c0 .56.12.8.98.8zm13.488-2.72h.4l-.34 3.28h-7.7v-.44c1.1-.06 1.3-.24 1.3-1.6v-9.28c0-1.36-.2-1.54-1.3-1.6V24h7.28l.28 3.1h-.4c-.38-2-.76-2.54-2.34-2.54h-2v5.6h2.32c.68 0 .86-.36.92-1.62h.4v3.8h-.4c-.04-1.26-.24-1.62-.92-1.62h-2.32V36c0 .56.12.8.98.8h1.44c1.64 0 1.92-.58 2.4-2.72m9.539-.4h.4l-.44 3.68h-7.7v-.16l6.2-12.64h-2.62c-1.56 0-1.94.6-2.32 2.82h-.4L36 24h6.94v.16l-6.2 12.64h3.18c1.84 0 2.16-.66 2.7-3.12M54.137 22.5h-.82l-2.16-2.3h.58l1.98 1.2 1.98-1.2h.58zm2.66 10.32h.52c-.16 3.34-1.66 4.74-3.56 4.74-2.54 0-4.48-2.4-4.48-6.88s2.04-6.88 4.54-6.88c1.18 0 2.06.58 2.56 1.28l.44-1.28h.28V28h-.36c-.46-2.56-1.36-3.68-2.92-3.68-1.98 0-2.92 2.38-2.92 6.36 0 4.06 1 6.18 3.16 6.18 1.34 0 2.58-1.1 2.74-4.04m10.13 1.26h.4l-.34 3.28h-7.7v-.44c1.1-.06 1.3-.24 1.3-1.6v-9.28c0-1.36-.2-1.54-1.3-1.6V24h7.28l.28 3.1h-.4c-.38-2-.76-2.54-2.34-2.54h-2v5.6h2.32c.68 0 .86-.36.92-1.62h.4v3.8h-.4c-.04-1.26-.24-1.62-.92-1.62h-2.32V36c0 .56.12.8.98.8h1.44c1.64 0 1.92-.58 2.4-2.72m10.518 1.66c.52.86.78 1.1 1.62 1.22v.44c-.84-.1-1.24-.12-1.92-.12-.72 0-1.34.02-2.24.12v-.44c1.06-.12 1.4-.18.7-1.38l-2.96-5.04h-.7v4.7c0 1.46.2 1.6 1.3 1.72v.44c-1.22-.1-1.4-.12-2.06-.12s-.84.02-2.06.12v-.44c1.1-.12 1.3-.26 1.3-1.72v-9.12c0-1.46-.2-1.6-1.3-1.72v-.44c1.22.1 1.4.12 2.06.12s.84-.02 2.06-.12v.44c-1.1.12-1.3.26-1.3 1.72v3.86h.7l3.02-4.32c.7-1 .24-1.16-.86-1.26v-.44c.76.08 1.32.12 1.9.12.52 0 1.06-.04 1.76-.12v.44c-1.04.12-1.36.16-2.12 1.26l-2.64 3.78zm8.98-14.24-2.1 1.18h-.58l1.8-2.16c.3-.36.48-.52.84-.52.32 0 .66.28.66.7 0 .2-.04.48-.62.8m2.18 13.84c.46 1.44.6 1.5 1.5 1.62v.44c-.86-.08-1.26-.12-1.9-.12-.62 0-1.14.04-2.1.12v-.44c1.1-.12 1.34-.2.9-1.64l-.62-2.04h-3.84l-.58 2.04c-.4 1.42-.2 1.52.9 1.64v.44c-.54-.06-1.18-.12-1.64-.12s-.84.06-1.36.12v-.44c.94-.12 1.14-.32 1.52-1.64l3.26-11.52h.24zm-5.9-2.62h3.5l-1.8-5.88zm16.62-8.64c.5 0 1.001-.06 1.581-.12v.44c-1.1.12-1.3.26-1.3 1.72v11.44h-.24l-6.38-11.8v9.48c0 1.48.22 1.6 1.46 1.72v.44c-.54-.06-1.14-.12-1.68-.12h-.06c-.5 0-1 .06-1.58.12v-.44c1.1-.12 1.3-.26 1.3-1.72V24.96c-.2-.26-.54-.44-1.3-.54v-.44c.8.08 1.04.1 1.54.1.36 0 .7-.02 1.06-.06l5.32 9.82v-7.7c0-1.48-.22-1.62-1.46-1.74v-.44c.62.08 1.14.12 1.68.12zm4.398-1.4 1.8-2.16c.3-.36.48-.52.84-.52.32 0 .66.28.66.7 0 .2-.04.48-.62.8l-2.1 1.18zm.26 3.44c0-1.46-.2-1.6-1.3-1.72v-.44c1.22.1 1.4.12 2.06.12s.84-.02 2.06-.12v.44c-1.1.12-1.3.26-1.3 1.72v9.12c0 1.46.2 1.6 1.3 1.72v.44c-1.22-.1-1.4-.12-2.06-.12s-.84.02-2.06.12v-.44c1.1-.12 1.3-.26 1.3-1.72zm5.811 11.44c-.6 0-1-.44-1-1.02s.4-1.02 1-1.02 1 .44 1 1.02-.4 1.02-1 1.02"/></svg>