<svg xmlns="http://www.w3.org/2000/svg" fill="none" viewBox="0 0 138 34"><path fill="#000" d="M1.31 16.2v-.46c1.12-.18 2.22-1.08 2.22-3.18V2.34c0-1.46-.2-1.6-1.3-1.72V.18c1.22.1 1.4.12 2.06.12S5.13.28 6.35.18v.44c-1.1.12-1.3.26-1.3 1.72v8.7c0 3.96-2.18 4.9-3.74 5.16m14.456-5.9h.4l-.34 3.28h-7.7v-.44c1.1-.06 1.3-.24 1.3-1.6V2.26c0-1.36-.2-1.54-1.3-1.6V.22h7.28l.28 3.1h-.4c-.38-2-.76-2.54-2.34-2.54h-2v5.6h2.32c.68 0 .86-.36.92-1.62h.4v3.8h-.4c-.04-1.26-.24-1.62-.92-1.62h-2.32v5.28c0 .56.12.8.98.8h1.44c1.64 0 1.92-.58 2.4-2.72M22.044.22c2.86 0 5.2 2.6 5.2 6.68s-2.34 6.68-5.2 6.68h-4.08v-.44c1.1-.06 1.3-.24 1.3-1.6V2.26c0-1.36-.2-1.54-1.3-1.6V.22zm-.28 12.8h.12c2.54 0 3.74-2.54 3.74-6.12s-1.2-6.12-3.74-6.12h-1.1v11.44c0 .56.12.8.98.8m14.968-2.72h.4l-.34 3.28h-7.7v-.44c1.1-.06 1.3-.24 1.3-1.6V2.26c0-1.36-.2-1.54-1.3-1.6V.22h7.28l.28 3.1h-.4c-.38-2-.76-2.54-2.34-2.54h-2v5.6h2.32c.68 0 .86-.36.92-1.62h.4v3.8h-.4c-.04-1.26-.24-1.62-.92-1.62h-2.32v5.28c0 .56.12.8.98.8h1.44c1.64 0 1.92-.58 2.4-2.72M47.13.3c.5 0 1-.06 1.58-.12v.44c-1.1.12-1.3.26-1.3 1.72v11.44h-.24l-6.38-11.8v9.48c0 1.48.22 1.6 1.46 1.72v.44c-.54-.06-1.14-.12-1.68-.12h-.06c-.5 0-1 .06-1.58.12v-.44c1.1-.12 1.3-.26 1.3-1.72V1.18c-.2-.26-.54-.44-1.3-.54V.2c.8.08 1.04.1 1.54.1.36 0 .7-.02 1.06-.06l5.32 9.82v-7.7c0-1.48-.22-1.62-1.46-1.74V.18c.62.08 1.14.12 1.68.12zm12.849 6.22c1.4.82 2.24 1.86 2.24 3.6 0 1.96-1.56 3.66-3.68 3.66-1.14 0-2.16-.5-2.7-1.22l-.52 1.32h-.28V9.3h.4c.34 2.48 1.22 3.96 3.04 3.96 1.54 0 2.44-.9 2.44-2.36 0-1.52-.78-2.34-2.06-3.1l-1.46-.86c-1.36-.8-2.24-1.8-2.24-3.56 0-2.16 1.64-3.36 3.26-3.36 1.14 0 2.02.64 2.48 1.34l.4-1.36h.28v4h-.36c-.32-1.94-1.2-3.46-2.72-3.46-1.34 0-2.12.92-2.12 2.32 0 1.28.7 1.96 1.86 2.64zm8.389.98h-1.4v3.96c0 1.46.4 1.62 1.66 1.72v.44c-.92-.08-1.48-.12-2.2-.12h-.22c-.66 0-.84.02-2.06.12v-.44c1.1-.12 1.3-.26 1.3-1.72v-9.2c0-1.36-.2-1.54-1.3-1.6V.22h4.26c2.58 0 4.06 1.4 4.06 3.58 0 2.24-1.84 3.7-4.1 3.7m-.26-6.72h-1.14v6.14h1.18c1.86 0 2.7-1.16 2.7-3.02 0-1.92-.84-3.12-2.74-3.12m14.159 11.3c.38.98.64 1.12 1.6 1.12v.44c-.32.08-.76.12-1.14.12-.88 0-1.72-.28-2.18-1.62l-1.02-2.92c-.42-1.2-.92-2.04-2.32-2.04h-.42v4.28c0 1.46.2 1.6 1.3 1.72v.44c-1.22-.1-1.4-.12-2.06-.12s-.84.02-2.06.12v-.44c1.1-.12 1.3-.26 1.3-1.72v-9.2c0-1.36-.2-1.54-1.3-1.6V.22h4.26c2.32 0 3.76 1.34 3.76 3.42 0 1.86-1.52 3.16-3.34 3.36.82.14 1.94.68 2.54 2.24zM77.927.78h-1.14v5.84h1.16c1.68 0 2.42-1.12 2.42-2.9 0-1.8-.74-2.94-2.44-2.94m8.096 1.56c0-1.46-.2-1.6-1.3-1.72V.18c1.22.1 1.4.12 2.06.12s.84-.02 2.06-.12v.44c-1.1.12-1.3.26-1.3 1.72v9.12c0 1.46.2 1.6 1.3 1.72v.44c-1.22-.1-1.4-.12-2.06-.12s-.84.02-2.06.12v-.44c1.1-.12 1.3-.26 1.3-1.72zM98.913.3c.5 0 1-.06 1.581-.12v.44c-1.1.12-1.3.26-1.3 1.72v11.44h-.24l-6.38-11.8v9.48c0 1.48.22 1.6 1.46 1.72v.44c-.54-.06-1.14-.12-1.68-.12h-.06c-.5 0-1 .06-1.58.12v-.44c1.1-.12 1.3-.26 1.3-1.72V1.18c-.2-.26-.54-.44-1.3-.54V.2c.8.08 1.04.1 1.54.1.36 0 .7-.02 1.06-.06l5.32 9.82v-7.7c0-1.48-.22-1.62-1.46-1.74V.18c.62.08 1.14.12 1.68.12zm11.378-.08.26 3.28h-.4c-.4-2.16-.72-2.72-2.32-2.72h-.8v10.68c0 1.48.22 1.6 1.44 1.72v.44c-.92-.08-1.5-.12-2.2-.12s-1.28.04-2.2.12v-.44c1.22-.12 1.44-.24 1.44-1.72V.78h-.8c-1.6 0-1.92.56-2.32 2.72h-.4l.26-3.28zm9.497 10.08h.4l-.34 3.28h-7.7v-.44c1.1-.06 1.3-.24 1.3-1.6V2.26c0-1.36-.2-1.54-1.3-1.6V.22h7.28l.28 3.1h-.4c-.38-2-.76-2.54-2.34-2.54h-2v5.6h2.32c.68 0 .86-.36.92-1.62h.4v3.8h-.4c-.04-1.26-.24-1.62-.92-1.62h-2.32v5.28c0 .56.12.8.98.8h1.44c1.64 0 1.92-.58 2.4-2.72m10.498 1.78c.38.98.64 1.12 1.6 1.12v.44c-.32.08-.76.12-1.14.12-.88 0-1.72-.28-2.18-1.62l-1.02-2.92c-.42-1.2-.92-2.04-2.32-2.04h-.42v4.28c0 1.46.2 1.6 1.3 1.72v.44c-1.22-.1-1.4-.12-2.06-.12s-.84.02-2.06.12v-.44c1.1-.12 1.3-.26 1.3-1.72v-9.2c0-1.36-.2-1.54-1.3-1.6V.22h4.26c2.32 0 3.76 1.34 3.76 3.42 0 1.86-1.52 3.16-3.34 3.36.82.14 1.94.68 2.54 2.24zm-4.34-11.3h-1.14v5.84h1.16c1.68 0 2.42-1.12 2.42-2.9 0-1.8-.74-2.94-2.44-2.94m8.092 13c-.6 0-1-.44-1-1.02s.4-1.02 1-1.02 1 .44 1 1.02-.4 1.02-1 1.02M8.3 20.22l.26 3.28h-.4c-.4-2.16-.72-2.72-2.32-2.72h-.8v10.68c0 1.48.22 1.6 1.44 1.72v.44c-.92-.08-1.5-.12-2.2-.12s-1.28.04-2.2.12v-.44c1.22-.12 1.44-.24 1.44-1.72V20.78h-.8c-1.6 0-1.92.56-2.32 2.72H0l.26-3.28zm6.502 13.56c-2.54 0-4.64-2.38-4.64-6.88s2.1-6.88 4.64-6.88 4.64 2.38 4.64 6.88-2.1 6.88-4.64 6.88m0-.52c2.04 0 3.02-2.42 3.02-6.36s-.98-6.36-3.02-6.36-3.02 2.42-3.02 6.36.98 6.36 3.02 6.36m14.521-3.3-.52 3.62h-7.46v-.44c1.1-.06 1.3-.24 1.3-1.6v-9.2c0-1.46-.2-1.6-1.3-1.72v-.44c1.22.1 1.4.12 2.06.12.7 0 .98-.02 2.18-.12v.44c-1.2.12-1.42.24-1.42 1.72v9.88c0 .56.12.8.98.8h1.2c1.38 0 2.06-.64 2.58-3.06zm2.827-7.62c0-1.46-.2-1.6-1.3-1.72v-.44c1.22.1 1.4.12 2.06.12s.84-.02 2.06-.12v.44c-1.1.12-1.3.26-1.3 1.72v9.12c0 1.46.2 1.6 1.3 1.72v.44c-1.22-.1-1.4-.12-2.06-.12s-.84.02-2.06.12v-.44c1.1-.12 1.3-.26 1.3-1.72zm13.01 9.62c.52.86.78 1.1 1.62 1.22v.44c-.84-.1-1.24-.12-1.92-.12-.72 0-1.34.02-2.24.12v-.44c1.06-.12 1.4-.18.7-1.38l-2.96-5.04h-.7v4.7c0 1.46.2 1.6 1.3 1.72v.44c-1.22-.1-1.4-.12-2.06-.12s-.84.02-2.06.12v-.44c1.1-.12 1.3-.26 1.3-1.72v-9.12c0-1.46-.2-1.6-1.3-1.72v-.44c1.22.1 1.4.12 2.06.12s.84-.02 2.06-.12v.44c-1.1.12-1.3.26-1.3 1.72v3.86h.7l3.02-4.32c.7-1 .24-1.16-.86-1.26v-.44c.76.08 1.32.12 1.9.12.52 0 1.06-.04 1.76-.12v.44c-1.04.12-1.36.16-2.12 1.26l-2.64 3.78zm17.806-.5c.04 1.46.26 1.6 1.36 1.72v.44c-1.22-.1-1.4-.12-2.06-.12h-.04c-.7 0-1.2.04-2.16.12v-.44c1.22-.12 1.42-.24 1.38-1.72l-.28-9.62-3.48 11.48h-.24l-3.42-11.46-.3 9.6c-.04 1.48.16 1.6 1.38 1.72v.44c-.76-.08-1.16-.12-1.7-.12h-.02c-.5 0-1 .06-1.58.12v-.44c1.1-.12 1.32-.26 1.36-1.72l.28-9.12c.04-1.46-.14-1.6-1.24-1.72v-.44c1.22.1 1.4.12 1.86.12.5 0 .78-.02 1.08-.06l2.92 9.88 2.98-9.88c.28.04.66.06 1.02.06.46 0 .64-.02 1.86-.1v.44c-1.1.1-1.28.24-1.24 1.7zm7.72 2.32c-2.54 0-4.64-2.38-4.64-6.88s2.1-6.88 4.64-6.88 4.64 2.38 4.64 6.88-2.1 6.88-4.64 6.88m0-.52c2.04 0 3.02-2.42 3.02-6.36s-.98-6.36-3.02-6.36-3.02 2.42-3.02 6.36.98 6.36 3.02 6.36m11.021-14.54h-.82l-2.16-2.3h.58l1.98 1.2 1.98-1.2h.58zm2.9 11.18h.4l-.44 3.68h-7.7v-.16l6.2-12.64h-2.62c-1.56 0-1.94.6-2.32 2.82h-.4l.26-3.38h6.94v.16l-6.2 12.64h3.18c1.84 0 2.16-.66 2.7-3.12m10.386-9.6c.5 0 1-.06 1.58-.12v.44c-1.1.12-1.3.26-1.3 1.72v11.44h-.24l-6.38-11.8v9.48c0 1.48.22 1.6 1.46 1.72v.44c-.54-.06-1.14-.12-1.68-.12h-.06c-.5 0-1 .06-1.58.12v-.44c1.1-.12 1.3-.26 1.3-1.72V21.18c-.2-.26-.54-.44-1.3-.54v-.44c.8.08 1.04.1 1.54.1.36 0 .7-.02 1.06-.06l5.32 9.82v-7.7c0-1.48-.22-1.62-1.46-1.74v-.44c.62.08 1.14.12 1.68.12zm8.021 13.48c-2.54 0-4.64-2.38-4.64-6.88s2.1-6.88 4.64-6.88 4.64 2.38 4.64 6.88-2.1 6.88-4.64 6.88m0-.52c2.04 0 3.02-2.42 3.02-6.36s-.98-6.36-3.02-6.36-3.02 2.42-3.02 6.36.98 6.36 3.02 6.36m11.918-6.74c1.4.82 2.24 1.86 2.24 3.6 0 1.96-1.56 3.66-3.68 3.66-1.14 0-2.16-.5-2.7-1.22l-.52 1.32h-.28V29.3h.4c.34 2.48 1.22 3.96 3.04 3.96 1.54 0 2.44-.9 2.44-2.36 0-1.52-.78-2.34-2.06-3.1l-1.46-.86c-1.36-.8-2.24-1.8-2.24-3.56 0-2.16 1.64-3.36 3.26-3.36 1.14 0 2.02.64 2.48 1.34l.4-1.36h.28v4h-.36c-.32-1.94-1.2-3.46-2.72-3.46-1.34 0-2.12.92-2.12 2.32 0 1.28.7 1.96 1.86 2.64zm12.189-6.3.26 3.28h-.4c-.4-2.16-.72-2.72-2.32-2.72h-.8v10.68c0 1.48.22 1.6 1.44 1.72v.44c-.92-.08-1.5-.12-2.2-.12s-1.28.04-2.2.12v-.44c1.22-.12 1.44-.24 1.44-1.72V20.78h-.8c-1.6 0-1.92.56-2.32 2.72h-.4l.26-3.28zm2.897-1.32 1.8-2.16c.3-.36.48-.52.84-.52.32 0 .66.28.66.7 0 .2-.04.48-.62.8l-2.1 1.18zm.26 3.44c0-1.46-.2-1.6-1.3-1.72v-.44c1.22.1 1.4.12 2.06.12s.84-.02 2.06-.12v.44c-1.1.12-1.3.26-1.3 1.72v9.12c0 1.46.2 1.6 1.3 1.72v.44c-1.22-.1-1.4-.12-2.06-.12s-.84.02-2.06.12v-.44c1.1-.12 1.3-.26 1.3-1.72zm5.811 11.44c-.6 0-1-.44-1-1.02s.4-1.02 1-1.02 1 .44 1 1.02-.4 1.02-1 1.02"/></svg>