<svg xmlns="http://www.w3.org/2000/svg" fill="none" viewBox="0 0 728 90"><g fill="#fff"><path d="M532.544 48.865c.571-.555 1.387-.849 2.432-.849h.146c1.012 0 1.73.294 2.171.849.392.522.587 1.404.587 2.676v1.225c0 .685-.065 1.256-.163 1.68a2.33 2.33 0 0 1-.587 1.061c-.555.539-1.306.8-2.285.8h-.18q-.93 0-1.517-.343v2.514c0 .244-.049.407-.131.473-.098.065-.277.098-.555.098h-1.24c-.278 0-.457-.033-.555-.115-.098-.065-.131-.228-.131-.456v-9.793c0-.195.033-.326.131-.407.082-.066.229-.115.441-.115h.685a1.2 1.2 0 0 1 .424.066.6.6 0 0 1 .18.277l.114.359zm.604 2.317v2.09c0 .375.065.636.228.783.147.147.392.212.735.212h.146c.376 0 .637-.098.8-.327q.196-.293.196-1.42v-.701c0-.783-.065-1.273-.196-1.453-.163-.195-.424-.293-.816-.293h-.114c-.359 0-.604.081-.767.245-.147.146-.212.44-.212.864m8.194-2.138h.049c.359-.587.963-.88 1.828-.88h.653c.163 0 .294.032.359.097s.114.18.114.36v1.19c0 .18-.032.294-.098.36q-.097.098-.342.098h-.49c-.604 0-1.012.114-1.24.342-.196.196-.278.571-.278 1.126v3.95c0 .163-.049.294-.13.359-.082.081-.229.114-.425.114h-1.501c-.212 0-.359-.033-.441-.114-.081-.066-.114-.196-.114-.36V48.62c0-.163.033-.277.114-.342.082-.066.229-.115.441-.115h.783c.18 0 .31.033.392.082a.66.66 0 0 1 .196.294zm6.271 2.481v1.273c0 .637.098 1.045.294 1.24.147.164.375.229.685.229h.066c.293 0 .522-.065.685-.229.196-.195.294-.603.294-1.24v-1.273c0-.62-.098-1.044-.294-1.24-.163-.147-.392-.229-.685-.229h-.066c-.31 0-.538.082-.685.229-.196.196-.294.62-.294 1.24m4.651.098v1.06c0 .817-.081 1.437-.244 1.894a2.34 2.34 0 0 1-.784 1.093c-.538.425-1.371.637-2.513.637h-.196c-1.142 0-1.991-.212-2.513-.637a2.34 2.34 0 0 1-.784-1.093c-.163-.457-.244-1.077-.244-1.893v-1.045c0-.8.081-1.42.244-1.876.164-.457.425-.816.784-1.11.522-.425 1.371-.637 2.513-.637h.196c1.142 0 1.975.212 2.513.637.359.294.62.653.784 1.093.163.457.244 1.077.244 1.877m5.576-3.068h1.403c.229 0 .392.033.473.098.082.065.147.196.18.392 0 .065.294 1.517.865 4.34h.049c.294-1.713.555-3.296.767-4.765.016-.18.065-.294.131-.359q.097-.098.342-.098h1.665c.179 0 .294.05.359.115.049.081.065.212.033.375a166 166 0 0 1-.947 4.21c-.359 1.535-.62 2.497-.783 2.905-.066.164-.147.278-.229.327-.081.049-.212.065-.375.065h-1.795c-.343 0-.555-.114-.621-.375-.31-1.11-.571-2.514-.799-4.21h-.066a45 45 0 0 1-.816 4.21c-.065.26-.261.375-.587.375h-1.763c-.326 0-.538-.114-.62-.359-.163-.44-.44-1.453-.832-3.02a75 75 0 0 1-.914-4.128c-.049-.18-.033-.31.033-.375.065-.066.195-.115.391-.115h1.6c.163 0 .293.033.375.098.065.065.114.196.147.36.228 1.517.49 3.1.8 4.765h.065c.392-2.024.669-3.477.8-4.342.032-.212.081-.342.163-.407.081-.05.245-.082.506-.082m9.877.081v7.05c0 .164-.049.294-.131.36-.081.081-.228.114-.424.114h-1.501c-.213 0-.359-.033-.441-.114-.082-.066-.114-.196-.114-.36v-7.05c0-.163.032-.277.114-.358.082-.066.228-.115.441-.115h1.501c.196 0 .343.05.424.115a.48.48 0 0 1 .131.358m-1.208-1.093h-.196c-.881 0-1.322-.44-1.322-1.355v-.081c0-.898.441-1.355 1.322-1.355h.196c.881 0 1.322.457 1.322 1.355v.081c0 .914-.441 1.355-1.322 1.355m5.559 2.693h-2.595c-.163 0-.277-.016-.342-.082-.066-.065-.082-.196-.082-.391v-1.126c0-.196.016-.31.082-.376q.098-.098.342-.098h5.516c.164 0 .278.033.36.098.065.065.114.196.114.375v.31c0 .425-.131.817-.359 1.16l-2.807 3.981h2.79c.164 0 .262.033.327.098.065.066.098.18.098.376v1.126q0 .294-.098.391c-.065.066-.163.082-.327.082h-5.614c-.342 0-.506-.147-.506-.473v-.376c0-.424.115-.8.359-1.158zm4.25 8.829h-.947c-.163 0-.293-.033-.359-.114-.065-.066-.097-.212-.097-.408V57.4c0-.163.032-.293.097-.359.066-.065.196-.114.359-.114h.408c.294 0 .523-.065.67-.228.13-.131.195-.474.195-1.012v-7.05c0-.164.033-.278.115-.36.081-.065.228-.114.44-.114h1.502c.196 0 .342.05.424.115a.48.48 0 0 1 .131.358v7.23c0 1.175-.213 1.991-.637 2.465q-.66.735-2.301.734m1.73-11.522h-.196c-.881 0-1.322-.44-1.322-1.355v-.081c0-.898.441-1.355 1.322-1.355h.196c.881 0 1.322.457 1.322 1.355v.081c0 .914-.441 1.355-1.322 1.355m5.543 1.093v7.05c0 .164-.049.294-.131.36-.082.081-.228.114-.424.114h-1.502c-.212 0-.359-.033-.44-.114-.082-.066-.115-.196-.115-.36v-7.05c0-.163.033-.277.115-.358.081-.066.228-.115.44-.115h1.502c.196 0 .342.05.424.115a.48.48 0 0 1 .131.358m-1.208-1.093h-.196c-.881 0-1.322-.44-1.322-1.355v-.081c0-.898.441-1.355 1.322-1.355h.196c.881 0 1.322.457 1.322 1.355v.081c0 .914-.441 1.355-1.322 1.355"/><path d="M497.249 43.926v2.672c0 2.888-.614 5.1-1.812 6.605-1.229 1.536-3.256 2.273-6.083 2.273-2.826 0-4.853-.737-6.082-2.273-1.229-1.505-1.813-3.717-1.813-6.605v-2.672c0-2.888.584-5.069 1.813-6.605 1.229-1.505 3.256-2.273 6.082-2.273s4.854.768 6.083 2.273c1.198 1.536 1.812 3.717 1.812 6.605m-5.253 2.15v-1.628c0-1.997-.184-3.38-.491-4.117s-1.014-1.136-2.089-1.136h-.123c-1.106.03-1.812.4-2.12 1.136-.307.738-.46 2.12-.46 4.117v1.628c0 2.028.153 3.38.46 4.117s1.014 1.136 2.12 1.136h.123c1.075 0 1.782-.368 2.089-1.106.307-.737.491-2.12.491-4.147m17.728-5.53v.308c0 2.027-.522 3.471-1.505 4.393-.922.737-2.12 1.106-3.533 1.106-1.597 0-2.795-.4-3.625-1.198-.921-.86-1.382-2.212-1.382-3.994v-.922c0-1.781.461-3.102 1.382-3.993.83-.799 2.028-1.198 3.625-1.198 1.413 0 2.611.368 3.533 1.106.983.921 1.505 2.396 1.505 4.393m-5.222 13.825 11.335-18.678c.154-.246.338-.43.523-.522.184-.062.461-.123.86-.123h2.242c.953 0 1.229.368.799 1.106L508.925 54.83c-.184.277-.337.461-.522.523-.184.092-.491.123-.86.123h-2.242c-.984 0-1.229-.37-.799-1.106m-.676-14.5v1.659c0 .645.061 1.075.215 1.29.123.215.338.307.614.307h.062a.72.72 0 0 0 .614-.307c.123-.215.215-.645.215-1.29v-1.66c0-.614-.092-1.044-.215-1.259-.153-.215-.368-.338-.614-.338h-.062c-.276 0-.491.123-.614.338-.154.215-.215.645-.215 1.26m21.565 9.8v.307c0 2.027-.522 3.471-1.505 4.393-.921.737-2.12 1.105-3.533 1.105-1.597 0-2.795-.399-3.625-1.198-.921-.86-1.382-2.18-1.382-3.993v-.922c0-1.782.461-3.133 1.382-3.993.83-.8 2.028-1.198 3.625-1.198 1.413 0 2.612.368 3.533 1.106.983.921 1.505 2.396 1.505 4.392m-5.898-.676v1.659c0 .645.062 1.075.215 1.29.123.215.338.307.615.307h.061a.72.72 0 0 0 .614-.307c.123-.215.215-.645.215-1.29v-1.66c0-.614-.092-1.044-.215-1.259-.153-.215-.368-.338-.614-.338h-.061c-.277 0-.492.123-.615.338-.153.215-.215.645-.215 1.26"/><path d="M38.673 23.386h-.124c-.435 2.132-.973 4.409-1.594 6.83q-.186.684-1.18.684h-1.863c-.372 0-.641-.041-.807-.145-.166-.083-.27-.248-.331-.497a142 142 0 0 1-2.588-12.213c-.041-.186 0-.33.083-.414q.125-.123.559-.124h2.05c.248 0 .455.041.579.104.124.082.186.227.228.434.703 4.74 1.18 7.783 1.386 9.129h.083c.166-.787.435-2.153.849-4.14.414-1.966.704-3.353.89-4.181.062-.352.352-.539.87-.539h1.697c.497 0 .786.187.87.539.165.828.455 2.214.869 4.181.414 1.987.704 3.353.87 4.14h.082c.103-.704.31-2.05.62-4.078.29-2.008.56-3.684.767-5.05.02-.208.103-.353.228-.435.124-.062.31-.104.58-.104h2.048c.27 0 .456.041.539.124.082.083.124.228.103.414-.849 4.679-1.718 8.736-2.587 12.213-.083.249-.187.414-.352.497-.166.104-.414.145-.787.145h-1.863q-.993 0-1.18-.683c-.642-2.422-1.18-4.699-1.594-6.831m14.027 5.03h.228c.704 0 1.449-.083 2.194-.27.207-.04.331-.061.393-.061.207 0 .331.124.373.352l.165 1.035c.042.29.083.476.083.559 0 .248-.186.434-.538.559-.952.33-2.008.496-3.126.496h-.393q-2.546 0-3.602-1.055a2.97 2.97 0 0 1-.828-1.408c-.145-.538-.207-1.263-.207-2.153v-1.159c0-1.8.414-3.064 1.242-3.809.704-.62 1.78-.931 3.25-.931h.29c1.449 0 2.505.352 3.126 1.035.662.745.993 1.966.993 3.705v1.076c0 .394-.207.58-.6.58h-4.968v.166c0 .496.124.828.414 1.014.269.186.766.269 1.511.269m-1.925-3.602h2.277c.166 0 .248-.083.248-.269v-.331c0-.414-.082-.725-.207-.952-.165-.249-.497-.373-.952-.373h-.186c-.414 0-.704.104-.87.29q-.31.372-.31 1.118zm10.702-1.428h-3.291c-.207 0-.352-.02-.435-.104-.082-.082-.103-.248-.103-.496v-1.429c0-.248.02-.393.103-.476q.125-.124.435-.124h6.997c.207 0 .351.041.455.124.083.083.145.249.145.476v.394c0 .538-.166 1.035-.456 1.47l-3.56 5.05h3.54c.207 0 .331.041.414.124s.124.228.124.476V30.3q0 .372-.124.497c-.083.082-.207.103-.414.103h-7.121c-.435 0-.642-.186-.642-.6v-.476c0-.539.145-1.015.456-1.47zm-1.594-5.361 3.25-2.774a.58.58 0 0 1 .394-.186c.145 0 .29.103.414.269l.993 1.283a.6.6 0 0 1 .124.352c0 .165-.124.331-.33.497L61.456 19.7c-.166.104-.29.145-.414.145-.166 0-.332-.083-.497-.29l-.621-.724c-.166-.186-.228-.352-.228-.476s.062-.249.186-.331m17.144 3.229h1.78c.29 0 .497.041.6.124.104.083.187.248.228.497 0 .083.373 1.925 1.097 5.506h.063c.372-2.174.703-4.181.972-6.044.021-.228.083-.373.166-.456q.124-.124.435-.124h2.111c.228 0 .373.062.456.145.062.103.082.269.041.476-.331 1.615-.745 3.395-1.2 5.34-.456 1.946-.787 3.168-.994 3.685-.083.207-.186.352-.29.414s-.27.083-.476.083h-2.277c-.435 0-.704-.145-.787-.476-.393-1.408-.724-3.188-1.014-5.34h-.083a57 57 0 0 1-1.035 5.34c-.083.331-.331.476-.745.476h-2.236c-.414 0-.683-.145-.786-.455-.207-.56-.56-1.843-1.056-3.83a96 96 0 0 1-1.16-5.237c-.061-.228-.04-.393.042-.476.083-.083.249-.145.497-.145h2.029c.207 0 .372.041.476.124.083.083.145.249.186.456.29 1.925.621 3.933 1.014 6.044h.083c.497-2.567.849-4.41 1.014-5.506.042-.27.104-.435.207-.518.104-.062.311-.103.642-.103m19.645 8.797h-.042c-.455.704-1.366 1.035-2.711 1.035h-.31c-1.056 0-1.884-.269-2.464-.807-.6-.538-.89-1.346-.89-2.38v-.228c0-1.118.31-1.925.952-2.38.642-.456 1.677-.684 3.126-.684h.145c.538 0 1.035.042 1.449.083v-.435c0-.434-.125-.745-.352-.91-.249-.145-.663-.228-1.242-.228-.704 0-1.49.124-2.401.352-.249.062-.435.062-.518 0-.103-.062-.166-.187-.186-.394l-.166-1.097c-.041-.186-.041-.33-.041-.414 0-.248.165-.434.496-.538a13.3 13.3 0 0 1 3.54-.455c1.594 0 2.733.352 3.395 1.014.517.538.787 1.408.787 2.587v6.148c0 .207-.062.373-.166.456-.103.083-.29.124-.538.124h-.973c-.248 0-.414-.02-.518-.083-.103-.062-.186-.186-.248-.393zm-.745-2.65v-.579a6 6 0 0 0-.994-.062h-.228q-.744 0-1.055.186c-.207.124-.29.373-.29.745v.083c0 .373.083.621.29.745.186.145.476.208.869.208h.145c.414 0 .724-.104.973-.311.186-.166.29-.518.29-1.014m7.82-5.754c.725-.704 1.76-1.076 3.085-1.076h.186c1.283 0 2.194.372 2.753 1.076.497.663.745 1.78.745 3.395v1.552c0 .87-.083 1.594-.207 2.133-.145.538-.393.993-.745 1.345-.704.683-1.656 1.014-2.898 1.014h-.228q-1.18 0-1.925-.434v3.187c0 .31-.062.518-.165.6-.125.084-.352.125-.704.125h-1.573c-.352 0-.58-.041-.704-.145-.124-.083-.166-.29-.166-.58V21.42c0-.248.042-.414.166-.517.103-.083.29-.145.559-.145h.869c.249 0 .435.041.538.083.083.062.166.186.228.352l.145.455zm.766 2.94v2.65c0 .475.083.806.29.993.186.186.497.269.932.269h.186c.476 0 .807-.124 1.014-.414q.249-.373.249-1.801v-.89c0-.994-.083-1.615-.249-1.842-.207-.249-.538-.373-1.035-.373h-.145c-.455 0-.766.103-.973.31-.186.187-.269.56-.269 1.098m11.491 3.622h.663c.207 0 .372.062.455.145.083.103.145.29.145.559v1.283c0 .29-.062.476-.145.56-.083.103-.248.144-.455.144h-1.573c-1.035 0-1.76-.186-2.174-.6-.414-.394-.621-1.097-.621-2.091V17.486c0-.207.042-.352.145-.455.104-.083.29-.145.559-.145h1.904c.249 0 .435.062.539.145.103.104.165.248.165.455v10.33c0 .165.021.269.083.31.041.062.145.083.31.083m5.976-6.852V30.3c0 .207-.062.372-.166.455-.103.104-.29.145-.538.145h-1.904c-.269 0-.456-.041-.559-.145-.104-.083-.145-.248-.145-.455v-8.943c0-.207.041-.352.145-.455.103-.083.29-.145.559-.145h1.904c.248 0 .435.062.538.145.104.103.166.248.166.455m-1.532-1.387h-.248c-1.118 0-1.677-.558-1.677-1.718v-.103c0-1.139.559-1.718 1.677-1.718h.248c1.118 0 1.677.58 1.677 1.718v.103c0 1.16-.559 1.718-1.677 1.718m6.989 6.914V30.3c0 .207-.062.372-.166.455-.103.104-.29.145-.538.145h-1.904c-.269 0-.456-.041-.559-.145-.104-.083-.145-.248-.145-.455V17.486c0-.207.041-.352.145-.455.103-.083.29-.145.559-.145h1.904c.248 0 .435.062.538.145.104.104.166.248.166.455v6.749h.145l1.966-3.002c.187-.31.476-.476.87-.476h2.401c.228 0 .352.083.352.248 0 .083-.062.228-.166.394l-2.38 3.56c-.187.29-.269.497-.269.621 0 .145.082.352.269.621l2.546 4.016c.083.166.124.269.124.352 0 .228-.145.331-.435.331h-2.297c-.29 0-.518-.02-.642-.103q-.187-.094-.373-.435l-1.966-3.478zm12.899 3.167h-.042c-.455.704-1.366 1.035-2.711 1.035h-.311c-1.055 0-1.883-.269-2.463-.807-.6-.538-.89-1.346-.89-2.38v-.228c0-1.118.31-1.925.952-2.38.642-.456 1.677-.684 3.126-.684h.145c.538 0 1.035.042 1.449.083v-.435c0-.434-.125-.745-.352-.91-.249-.145-.663-.228-1.242-.228-.704 0-1.491.124-2.401.352-.249.062-.435.062-.518 0-.103-.062-.166-.187-.186-.394l-.166-1.097c-.041-.186-.041-.33-.041-.414 0-.248.165-.434.497-.538a13.3 13.3 0 0 1 3.539-.455c1.594 0 2.733.352 3.395 1.014.518.538.787 1.408.787 2.587v6.148c0 .207-.062.373-.166.456-.103.083-.29.124-.538.124h-.973c-.248 0-.414-.02-.518-.083-.103-.062-.186-.186-.248-.393zm-.745-2.65v-.579a6 6 0 0 0-.994-.062h-.228q-.744 0-1.055.186c-.207.124-.29.373-.29.745v.083c0 .373.083.621.29.745.186.145.476.208.869.208h.145c.414 0 .724-.104.973-.311.186-.166.29-.518.29-1.014m10.035 1.015h.166c.559 0 1.159-.083 1.801-.27.207-.04.331-.061.393-.061.207 0 .331.124.373.352l.186 1.055c.041.29.083.476.083.56 0 .248-.187.434-.538.558-.911.331-1.905.476-2.981.476h-.249c-1.49 0-2.587-.33-3.27-1.035q-1.056-1.054-1.056-3.54v-1.2c0-.973.083-1.739.248-2.277q.249-.807.808-1.366c.724-.725 1.863-1.097 3.415-1.097h.207c1.242 0 2.319.227 3.188.683.248.145.393.31.393.517 0 .124-.062.331-.165.621l-.394.994q-.155.373-.434.373a.85.85 0 0 1-.373-.104c-.662-.27-1.283-.414-1.842-.414h-.083c-.538 0-.931.145-1.18.393-.31.31-.455.953-.455 1.905v.703c0 .85.124 1.429.414 1.74.269.29.724.434 1.345.434m4.267 6.169h-1.201c-.207 0-.373-.042-.455-.145-.083-.083-.125-.27-.125-.518v-1.449c0-.207.042-.372.125-.455s.248-.145.455-.145h.517c.373 0 .663-.083.849-.29.166-.165.249-.6.249-1.283v-8.943c0-.207.041-.352.144-.455.104-.083.29-.145.559-.145h1.905c.248 0 .434.062.538.145.103.103.166.248.166.455v9.17c0 1.49-.27 2.526-.808 3.126q-.839.932-2.918.932m2.194-14.615h-.249c-1.117 0-1.676-.558-1.676-1.718v-.103c0-1.139.559-1.718 1.676-1.718h.249c1.118 0 1.676.58 1.676 1.718v.103c0 1.16-.558 1.718-1.676 1.718m7.03 1.387V30.3c0 .207-.062.372-.166.455-.103.104-.289.145-.538.145h-1.904c-.269 0-.456-.041-.559-.145-.104-.083-.145-.248-.145-.455v-8.943c0-.207.041-.352.145-.455.103-.083.29-.145.559-.145h1.904c.249 0 .435.062.538.145.104.103.166.248.166.455m-1.532-1.387h-.248c-1.118 0-1.677-.558-1.677-1.718v-.103c0-1.139.559-1.718 1.677-1.718h.248c1.118 0 1.677.58 1.677 1.718v.103c0 1.16-.559 1.718-1.677 1.718M34.368 47.587v2.65c0 .475.082.806.29.993.165.186.476.269.931.269h.186c.476 0 .808-.124 1.015-.414q.248-.373.248-1.801v-.89c0-1.035-.103-1.677-.27-1.884-.185-.207-.537-.331-1.034-.331h-.083c-.476 0-.807.103-1.014.31-.187.187-.27.56-.27 1.098m0-3.457h.041q.9-.56 2.36-.56h.186c1.242 0 2.153.373 2.712 1.118.455.642.704 1.78.704 3.416v1.49c0 1.656-.352 2.816-1.056 3.457-.745.704-1.925 1.035-3.54 1.035h-.414c-1.697 0-2.856-.33-3.477-1.014-.56-.6-.828-1.573-.828-2.94v-9.646c0-.207.041-.351.145-.455.082-.083.269-.145.538-.145h1.925c.248 0 .435.062.538.145.104.104.166.248.166.455zm12.712 7.286h.228c.704 0 1.449-.083 2.194-.27.207-.04.331-.061.393-.061.207 0 .332.124.373.352l.166 1.035c.041.29.083.476.083.559 0 .248-.187.434-.539.559-.952.33-2.008.496-3.125.496h-.394q-2.546 0-3.602-1.055a2.97 2.97 0 0 1-.828-1.408c-.144-.538-.207-1.263-.207-2.153v-1.159c0-1.8.414-3.064 1.242-3.809.704-.62 1.78-.931 3.25-.931h.29c1.45 0 2.505.352 3.126 1.035.662.745.994 1.966.994 3.705v1.076c0 .394-.207.58-.6.58h-4.969v.166c0 .496.124.828.414 1.014.27.186.766.269 1.511.269m-1.925-3.602h2.277c.166 0 .249-.083.249-.269v-.331c0-.414-.083-.725-.207-.952-.166-.249-.497-.373-.953-.373h-.186c-.414 0-.704.104-.87.29q-.31.371-.31 1.118zm10.703-1.428h-3.292c-.207 0-.352-.02-.434-.104-.083-.082-.104-.248-.104-.496v-1.429c0-.248.02-.393.104-.476q.123-.124.434-.124h6.997c.207 0 .352.041.455.124.083.083.145.249.145.476v.394c0 .538-.165 1.035-.455 1.47l-3.56 5.05h3.539c.207 0 .331.041.414.124s.124.228.124.476V53.3q0 .372-.124.497c-.083.082-.207.103-.414.103h-7.12c-.435 0-.642-.186-.642-.6v-.476c0-.539.144-1.015.455-1.47zm13.624 0h-3.291c-.207 0-.352-.02-.435-.104-.082-.082-.103-.248-.103-.496v-1.429c0-.248.02-.393.103-.476q.124-.124.435-.124h6.997c.207 0 .352.041.455.124.083.083.145.249.145.476v.394c0 .538-.166 1.035-.456 1.47l-3.56 5.05h3.54c.207 0 .331.041.414.124s.124.228.124.476V53.3q0 .372-.124.497c-.083.082-.207.103-.414.103H66.19c-.435 0-.642-.186-.642-.6v-.476c0-.539.145-1.015.456-1.47zm11.746 6.665h-.042c-.455.704-1.366 1.035-2.711 1.035h-.31c-1.057 0-1.885-.269-2.464-.807-.6-.538-.89-1.346-.89-2.38v-.228c0-1.118.31-1.925.952-2.38.642-.456 1.677-.684 3.126-.684h.145c.538 0 1.034.042 1.448.083v-.435c0-.434-.124-.745-.351-.91-.249-.145-.663-.228-1.242-.228-.704 0-1.49.124-2.402.352-.248.062-.434.062-.517 0-.104-.062-.166-.187-.186-.394l-.166-1.097c-.041-.186-.041-.33-.041-.414 0-.248.165-.434.496-.538a13.3 13.3 0 0 1 3.54-.455c1.594 0 2.733.352 3.395 1.014.517.538.787 1.408.787 2.587v6.148c0 .207-.063.373-.166.456s-.29.124-.538.124h-.973c-.249 0-.414-.02-.518-.083-.103-.062-.186-.186-.248-.393zm-.745-2.65v-.579a6 6 0 0 0-.994-.062h-.228q-.746 0-1.055.186c-.207.125-.29.373-.29.745v.083c0 .373.083.621.29.745.186.145.476.208.869.208h.145c.414 0 .724-.104.973-.311.186-.166.29-.517.29-1.014m8.586-.517V53.3c0 .207-.062.372-.166.455-.103.104-.29.145-.538.145h-1.904c-.27 0-.456-.041-.559-.145-.103-.083-.145-.248-.145-.455V40.486c0-.207.041-.351.145-.455.103-.083.29-.145.559-.145h1.904c.249 0 .435.062.538.145.104.104.166.248.166.455v6.749h.145l1.966-3.002c.187-.31.477-.476.87-.476h2.401c.228 0 .352.083.352.248 0 .083-.062.228-.166.394l-2.38 3.56c-.186.29-.27.497-.27.621 0 .145.084.352.27.621l2.546 4.016c.083.166.124.269.124.352 0 .227-.145.331-.434.331h-2.298c-.29 0-.518-.02-.642-.103q-.186-.094-.373-.435l-1.966-3.478zm11.222 1.325h.663c.207 0 .372.062.455.145.083.103.145.29.145.559v1.283c0 .29-.062.476-.145.56-.083.103-.248.144-.455.144h-1.573c-1.035 0-1.76-.186-2.174-.6-.414-.394-.62-1.097-.62-2.091v-2.236l-.684.435c-.27.166-.455.248-.538.248-.166 0-.228-.124-.228-.372v-1.925c0-.207.02-.352.104-.456.062-.082.186-.207.393-.352l.952-.6v-5.465c0-.207.041-.351.145-.455.104-.083.29-.145.559-.145h1.904c.249 0 .435.062.538.145.104.104.166.248.166.455v3.354l.932-.6c.248-.166.434-.249.538-.249.145 0 .227.124.227.373v1.925c0 .207-.041.372-.103.455a1.7 1.7 0 0 1-.393.352l-1.2.766v3.954c0 .165.02.269.082.31.041.062.145.083.31.083m8.611 1.842h-.042c-.455.704-1.366 1.035-2.711 1.035h-.311c-1.056 0-1.884-.269-2.463-.807-.6-.538-.89-1.346-.89-2.38v-.228c0-1.118.31-1.925.952-2.38.642-.456 1.677-.684 3.126-.684h.145c.538 0 1.035.042 1.449.083v-.435c0-.434-.125-.745-.352-.91-.249-.145-.663-.228-1.242-.228-.704 0-1.491.124-2.402.352-.248.062-.434.062-.517 0-.104-.062-.166-.187-.186-.394l-.166-1.097c-.041-.186-.041-.33-.041-.414 0-.248.165-.434.496-.538a13.3 13.3 0 0 1 3.54-.455c1.594 0 2.733.352 3.395 1.014.517.538.787 1.408.787 2.587v6.148c0 .207-.063.373-.166.456s-.29.124-.538.124h-.973c-.249 0-.414-.02-.518-.083-.103-.062-.186-.186-.248-.393zm-.745-2.65v-.579a6 6 0 0 0-.994-.062h-.228q-.745 0-1.055.186c-.207.125-.29.373-.29.745v.083c0 .373.083.621.29.745.186.145.476.208.869.208h.145c.414 0 .724-.104.973-.311.186-.166.29-.517.29-1.014m10.946-.165v-2.629c0-.517-.083-.89-.248-1.097-.187-.207-.518-.331-.973-.331h-.207c-.456 0-.766.124-.953.352-.207.227-.289.87-.289 1.946v.91c0 .994.103 1.615.31 1.822.166.207.476.29.952.29h.228c.393 0 .683-.083.89-.27.186-.186.29-.517.29-.993m-.041-6.293h.041v-3.457c0-.207.041-.351.145-.455.103-.083.29-.145.559-.145h1.925c.248 0 .435.062.538.145a.7.7 0 0 1 .145.455v9.419c0 1.449-.269 2.442-.807 3.022-.394.414-.87.725-1.429.89-.579.187-1.345.27-2.318.27h-.352c-1.532 0-2.629-.311-3.333-.932-.724-.621-1.076-1.78-1.076-3.498V48c0-1.657.331-2.816 1.035-3.478.662-.621 1.573-.952 2.753-.952h.248q1.18 0 1.926.372m11.308 9.108h-.041c-.456.704-1.367 1.035-2.712 1.035h-.311c-1.055 0-1.883-.269-2.463-.807-.6-.538-.89-1.346-.89-2.38v-.228c0-1.118.31-1.925.952-2.38.642-.456 1.677-.684 3.126-.684h.145c.538 0 1.035.042 1.449.083v-.435c0-.434-.124-.745-.352-.91-.249-.145-.663-.228-1.242-.228-.704 0-1.491.124-2.401.352-.249.062-.435.062-.518 0-.103-.062-.165-.187-.186-.394l-.166-1.097c-.041-.186-.041-.33-.041-.414 0-.248.165-.434.497-.538a13.3 13.3 0 0 1 3.539-.455c1.594 0 2.733.352 3.395 1.014.518.538.787 1.408.787 2.587v6.148c0 .207-.062.373-.166.456-.103.083-.29.124-.538.124h-.973c-.248 0-.414-.02-.517-.083-.104-.062-.187-.186-.249-.393zm-.745-2.65v-.579a6 6 0 0 0-.994-.062h-.228q-.744 0-1.055.186c-.207.125-.29.373-.29.745v.083c0 .373.083.621.29.745.186.145.476.208.869.208h.145c.414 0 .725-.104.973-.311.186-.166.29-.517.29-1.014m10.739-6.83h.166c1.2 0 2.09.29 2.629.848.496.539.766 1.45.766 2.733V53.3c0 .207-.063.372-.166.455-.104.104-.29.145-.538.145h-1.905c-.269 0-.455-.041-.559-.145-.103-.083-.144-.248-.144-.455v-5.858c0-.456-.083-.787-.228-.953-.166-.165-.476-.269-.911-.269h-.124c-.456 0-.745.104-.911.27-.166.165-.228.496-.228.952V53.3c0 .207-.062.372-.165.455-.104.104-.29.145-.538.145h-1.905c-.269 0-.455-.041-.559-.145-.103-.083-.145-.248-.145-.455v-8.963c0-.207.042-.352.145-.435.104-.083.29-.145.559-.145h.973c.248 0 .414.041.518.104q.155.093.248.372l.124.393h.062c.663-.703 1.594-1.055 2.836-1.055m8.886.786V53.3c0 .207-.062.372-.166.455-.103.104-.29.145-.538.145h-1.905c-.269 0-.455-.041-.558-.145-.104-.083-.145-.248-.145-.455v-8.943c0-.207.041-.352.145-.455.103-.083.289-.145.558-.145h1.905c.248 0 .435.062.538.145.104.103.166.248.166.455m-1.532-1.387h-.249c-1.117 0-1.676-.559-1.676-1.718v-.103c0-1.139.559-1.718 1.676-1.718h.249c1.118 0 1.677.58 1.677 1.718v.103c0 1.16-.559 1.718-1.677 1.718m9.659 10.081h-.041c-.456.704-1.367 1.035-2.712 1.035h-.311c-1.055 0-1.883-.269-2.463-.807-.6-.538-.89-1.346-.89-2.38v-.228c0-1.118.31-1.925.952-2.38.642-.456 1.677-.684 3.126-.684h.145c.538 0 1.035.042 1.449.083v-.435c0-.434-.124-.745-.352-.91-.249-.145-.663-.228-1.242-.228-.704 0-1.491.124-2.401.352-.249.062-.435.062-.518 0-.103-.062-.165-.187-.186-.394l-.166-1.097c-.041-.186-.041-.33-.041-.414 0-.248.165-.434.497-.538a13.3 13.3 0 0 1 3.539-.455c1.594 0 2.733.352 3.395 1.014.518.538.787 1.408.787 2.587v6.148c0 .207-.062.373-.166.456-.103.083-.29.124-.538.124h-.973c-.248 0-.414-.02-.517-.083-.104-.062-.187-.186-.249-.393zm-.745-2.65v-.579a6 6 0 0 0-.994-.062h-.228q-.744 0-1.055.186c-.207.125-.29.373-.29.745v.083c0 .373.083.621.29.745.186.145.476.208.869.208h.145c.414 0 .725-.104.973-.311.186-.166.29-.517.29-1.014m13.074-.517V53.3c0 .207-.062.372-.166.455-.103.104-.289.145-.538.145h-1.904c-.269 0-.456-.041-.559-.145-.104-.083-.145-.248-.145-.455V40.486c0-.207.041-.351.145-.455.103-.083.29-.145.559-.145h1.904c.249 0 .435.062.538.145.104.104.166.248.166.455v6.749h.145l1.966-3.002c.187-.31.477-.476.87-.476h2.401c.228 0 .352.083.352.248 0 .083-.062.228-.166.394l-2.38 3.56c-.186.29-.269.497-.269.621 0 .145.083.352.269.621l2.546 4.016c.083.166.124.269.124.352 0 .227-.145.331-.435.331h-2.297c-.29 0-.518-.02-.642-.103q-.186-.094-.373-.435l-1.966-3.478zm9.757-1.863v1.615c0 .807.124 1.325.372 1.573.186.207.476.29.87.29h.082c.373 0 .663-.083.87-.29.248-.248.372-.766.372-1.573V48.02c0-.786-.124-1.325-.372-1.573-.207-.186-.497-.29-.87-.29h-.082c-.394 0-.684.104-.87.29-.248.248-.372.787-.372 1.573m5.899.124v1.346c0 1.035-.103 1.822-.31 2.401a2.97 2.97 0 0 1-.994 1.387c-.683.538-1.739.807-3.188.807h-.248c-1.449 0-2.526-.269-3.188-.807a2.97 2.97 0 0 1-.994-1.387c-.207-.58-.31-1.366-.31-2.401v-1.325c0-1.014.103-1.8.31-2.38s.539-1.035.994-1.408c.662-.538 1.739-.807 3.188-.807h.248c1.449 0 2.505.269 3.188.807.455.373.787.828.994 1.387.207.58.31 1.366.31 2.38m7.237-4.574h.166c1.201 0 2.091.29 2.629.848.497.539.766 1.45.766 2.733V53.3c0 .207-.062.372-.166.455-.103.104-.29.145-.538.145h-1.904c-.27 0-.456-.041-.559-.145-.104-.083-.145-.248-.145-.455v-5.858c0-.456-.083-.787-.228-.953-.166-.165-.476-.269-.911-.269h-.124c-.455 0-.745.104-.911.27-.165.165-.227.496-.227.952V53.3c0 .207-.063.372-.166.455-.104.104-.29.145-.538.145h-1.905c-.269 0-.455-.041-.559-.145-.103-.083-.144-.248-.144-.455v-8.963c0-.207.041-.352.144-.435.104-.083.29-.145.559-.145h.973c.249 0 .414.041.518.104q.155.093.248.372l.124.393h.062c.663-.703 1.594-1.055 2.836-1.055m12.011 8.383v1.18c0 .31-.062.518-.144.621-.083.104-.27.145-.518.145h-1.656c-1.49 0-2.484-.248-2.939-.766-.414-.435-.601-1.263-.601-2.505v-4.285h-1.117c-.207 0-.332-.02-.414-.103-.083-.083-.104-.207-.104-.414v-1.056c0-.248.021-.414.104-.496.062-.083.207-.145.434-.207l1.097-.27V41.77c0-.207.042-.352.145-.456.104-.082.29-.145.559-.145h1.905c.248 0 .434.063.538.145.103.104.165.249.165.456v1.987h1.718c.207 0 .332.041.414.124.083.083.125.228.125.476v1.387q0 .373-.125.497c-.082.083-.207.103-.414.103h-1.718v3.913c0 .372.042.6.166.724.124.145.393.207.807.207h.911c.248 0 .435.062.518.166.082.103.144.31.144.6m7.549 1.097h-.041c-.456.704-1.366 1.035-2.712 1.035h-.31c-1.056 0-1.884-.269-2.464-.807-.6-.538-.89-1.346-.89-2.38v-.228c0-1.118.311-1.925.952-2.38.642-.456 1.677-.684 3.126-.684h.145c.538 0 1.035.042 1.449.083v-.435c0-.434-.124-.745-.352-.91-.248-.145-.662-.228-1.242-.228-.704 0-1.49.124-2.401.352-.248.062-.435.062-.518 0-.103-.062-.165-.187-.186-.394l-.165-1.097c-.042-.186-.042-.33-.042-.414 0-.248.166-.434.497-.538a13.3 13.3 0 0 1 3.54-.455c1.594 0 2.732.352 3.394 1.014.518.538.787 1.408.787 2.587v6.148c0 .207-.062.373-.166.456-.103.083-.289.124-.538.124h-.973c-.248 0-.414-.02-.517-.083-.104-.062-.186-.186-.249-.393zm-.745-2.65v-.579a6 6 0 0 0-.994-.062h-.227q-.746 0-1.056.186c-.207.125-.29.373-.29.745v.083c0 .373.083.621.29.745.186.145.476.208.869.208h.145c.414 0 .725-.104.973-.311.187-.166.29-.517.29-1.014"/></g></svg>