<svg xmlns="http://www.w3.org/2000/svg" fill="none" viewBox="0 0 728 90"><path fill="#fff" d="M556.658 55.372v-8.159q0-.24.242-.282a10.6 10.6 0 0 1 1.841-.148c2.07 0 3.104.807 3.104 2.393v.282c0 .591-.147 1.075-.43 1.465-.295.39-.698.658-1.236.793l2.204 3.682c.081.135.04.202-.107.202h-.699a.25.25 0 0 1-.229-.121l-2.083-3.602c-.108.014-.282.014-.497.014-.565 0-.968 0-1.183-.014v3.494c0 .162-.081.229-.215.229h-.484c-.161 0-.228-.067-.228-.229m.927-7.54v3.279c.457.027.9.027 1.331.027.672 0 1.169-.134 1.478-.403.309-.27.47-.726.47-1.358v-.175c0-.604-.174-1.034-.497-1.29-.322-.242-.86-.376-1.613-.376-.43 0-.752.027-.967.054-.094.013-.148.04-.175.067s-.027.094-.027.175m6.055 7.54v-8.159q0-.24.242-.282a10.6 10.6 0 0 1 1.841-.148c2.07 0 3.105.807 3.105 2.393v.282c0 .591-.148 1.075-.43 1.465-.296.39-.699.658-1.237.793l2.205 3.682c.08.135.04.202-.108.202h-.699a.25.25 0 0 1-.228-.121l-2.083-3.602c-.108.014-.283.014-.498.014-.564 0-.967 0-1.182-.014v3.494c0 .162-.081.229-.216.229h-.483c-.162 0-.229-.067-.229-.229m.928-7.54v3.279c.456.027.9.027 1.33.027.672 0 1.169-.134 1.478-.403.31-.27.471-.726.471-1.358v-.175c0-.604-.175-1.034-.497-1.29-.323-.242-.861-.376-1.613-.376-.43 0-.753.027-.968.054-.094.013-.148.04-.175.067s-.026.094-.026.175m8.017 7.889c-.833 0-1.573-.121-2.231-.39-.121-.04-.161-.12-.135-.228l.108-.444c.027-.134.121-.161.282-.107a4.7 4.7 0 0 0 1.949.416c.618 0 1.089-.134 1.411-.416.323-.283.484-.686.484-1.223v-.148c0-.484-.107-.834-.296-1.048-.188-.216-.564-.404-1.129-.538l-.9-.215c-.659-.162-1.142-.403-1.452-.753-.309-.336-.457-.806-.457-1.425v-.201c0-.712.229-1.263.686-1.64.457-.376 1.089-.578 1.895-.578.726 0 1.357.094 1.922.256.148.053.201.148.175.295l-.095.323q-.06.202-.322.12a5.9 5.9 0 0 0-1.653-.241c-1.116 0-1.667.497-1.667 1.478v.135c0 .457.108.78.323.98.215.203.578.364 1.088.471l.847.202c.726.175 1.237.43 1.532.752q.444.505.444 1.492v.215c0 .82-.242 1.438-.726 1.842-.484.416-1.169.618-2.083.618m5.038-4.65v.363c0 1.478.201 2.446.605 2.916.349.417.887.618 1.599.618.779 0 1.331-.228 1.68-.699.349-.483.524-1.424.524-2.835v-.363c0-.7-.04-1.277-.107-1.734-.068-.457-.202-.82-.417-1.116-.349-.456-.901-.685-1.68-.685q-1.149 0-1.653.685c-.376.484-.551 1.439-.551 2.85m5.389-.162v.7c0 1.558-.282 2.633-.82 3.252-.51.578-1.29.86-2.365.86-1.008 0-1.761-.255-2.271-.766-.619-.618-.914-1.734-.914-3.347v-.699c0-1.559.282-2.66.846-3.292.498-.551 1.277-.834 2.339-.834 1.048 0 1.828.283 2.339.834.564.631.846 1.733.846 3.292"/><path fill="#fff" d="M468.353 45.325h.246c.983 0 1.813-.184 2.519-.553v-.43c0-1.69-.184-2.826-.522-3.41s-.952-.89-1.874-.89h-.276q-2.304 0-2.304 2.488v.276c0 .922.153 1.567.522 1.936.368.399.921.583 1.689.583m-5.56 10.26c-.369-.122-.522-.337-.522-.706q0-.184.092-.553l.492-1.966c.122-.492.491-.676 1.044-.522 1.475.46 2.765.676 3.871.676h.092c1.106 0 1.874-.277 2.365-.891q.737-.876.83-2.765c-1.014.43-2.12.614-3.318.614h-.338c-2.181 0-3.748-.522-4.731-1.628-.983-1.075-1.444-2.734-1.444-4.946v-.43c0-1.966.584-3.533 1.782-4.7 1.198-1.137 2.949-1.72 5.253-1.72h.43c2.765 0 4.731.737 5.837 2.15s1.69 3.748 1.69 7.004v.738c0 1.75-.154 3.256-.461 4.546s-.707 2.335-1.198 3.072a5.56 5.56 0 0 1-1.874 1.813c-.737.46-1.475.768-2.212.89-.737.154-1.597.215-2.55.215h-.03c-1.782 0-3.502-.276-5.1-.89m18.404-4.454h.43c.921 0 1.567.246 1.966.676.399.46.614 1.137.614 2.058v.4c0 .952-.307 2.12-.86 3.532a13.4 13.4 0 0 1-2.427 3.871c-.184.246-.399.338-.614.338a.9.9 0 0 1-.492-.154l-1.536-.921c-.368-.184-.399-.492-.092-.891.277-.369.676-.952 1.229-1.782.369-.553.553-.952.553-1.26 0-.153-.092-.276-.246-.399l-.307-.215c-.522-.368-.768-1.013-.768-1.935v-.86c0-1.628.829-2.458 2.55-2.458m12.596-5.806h.246c.983 0 1.813-.184 2.519-.553v-.43c0-1.69-.184-2.826-.522-3.41s-.952-.89-1.874-.89h-.276q-2.304 0-2.304 2.488v.276c0 .922.153 1.567.522 1.936.368.399.921.583 1.689.583m-5.56 10.26c-.369-.122-.522-.337-.522-.706q0-.184.092-.553l.492-1.966c.122-.492.491-.676 1.044-.522 1.475.46 2.765.676 3.871.676h.092c1.106 0 1.874-.277 2.365-.891q.738-.876.83-2.765c-1.014.43-2.12.614-3.318.614h-.338c-2.181 0-3.748-.522-4.731-1.628-.983-1.075-1.444-2.734-1.444-4.946v-.43c0-1.966.584-3.533 1.782-4.7 1.198-1.137 2.949-1.72 5.253-1.72h.43c2.765 0 4.731.737 5.837 2.15s1.69 3.748 1.69 7.004v.738c0 1.75-.154 3.256-.461 4.546s-.707 2.335-1.198 3.072a5.56 5.56 0 0 1-1.874 1.813c-.737.46-1.475.768-2.212.89-.737.154-1.597.215-2.55.215h-.03c-1.782 0-3.502-.276-5.1-.89m23.38-10.26h.246c.983 0 1.813-.184 2.519-.553v-.43c0-1.69-.184-2.826-.522-3.41s-.952-.89-1.874-.89h-.276q-2.304 0-2.304 2.488v.276c0 .922.153 1.567.522 1.936.368.399.921.583 1.689.583m-5.56 10.26c-.369-.122-.522-.337-.522-.706q0-.184.092-.553l.492-1.966c.122-.492.491-.676 1.044-.522 1.475.46 2.765.676 3.871.676h.092c1.106 0 1.874-.277 2.365-.891q.737-.876.83-2.765c-1.014.43-2.12.614-3.318.614h-.338c-2.181 0-3.748-.522-4.731-1.628-.983-1.075-1.444-2.734-1.444-4.946v-.43c0-1.966.584-3.533 1.782-4.7 1.198-1.137 2.949-1.72 5.253-1.72h.43c2.765 0 4.731.737 5.837 2.15s1.69 3.748 1.69 7.004v.738c0 1.75-.154 3.256-.461 4.546s-.707 2.335-1.198 3.072a5.56 5.56 0 0 1-1.874 1.813c-.737.46-1.475.768-2.212.89-.737.154-1.597.215-2.55.215h-.03c-1.782 0-3.502-.276-5.1-.89m26.36-14.038v.307c0 2.027-.522 3.471-1.505 4.393-.922.737-2.12 1.106-3.533 1.106-1.597 0-2.795-.4-3.625-1.198-.921-.86-1.382-2.212-1.382-3.994v-.922c0-1.781.461-3.102 1.382-3.993.83-.799 2.028-1.198 3.625-1.198 1.413 0 2.611.368 3.533 1.106.983.921 1.505 2.396 1.505 4.393m-5.222 13.824 11.336-18.678c.153-.246.337-.43.522-.522.184-.062.461-.123.86-.123h2.243c.952 0 1.228.368.798 1.106L531.615 55.83c-.185.277-.338.461-.523.523-.184.092-.491.123-.86.123h-2.242c-.983 0-1.229-.37-.799-1.106m-.676-14.5v1.659c0 .645.061 1.075.215 1.29.123.215.338.307.614.307h.062a.72.72 0 0 0 .614-.307c.123-.215.215-.645.215-1.29v-1.66c0-.614-.092-1.044-.215-1.259-.153-.215-.368-.338-.614-.338h-.062c-.276 0-.491.123-.614.338-.154.215-.215.645-.215 1.26m21.566 9.8v.307c0 2.027-.523 3.471-1.506 4.393-.921.737-2.119 1.105-3.533 1.105-1.597 0-2.795-.399-3.625-1.198-.921-.86-1.382-2.18-1.382-3.993v-.922c0-1.782.461-3.133 1.382-3.993.83-.8 2.028-1.198 3.625-1.198 1.414 0 2.612.368 3.533 1.106.983.921 1.506 2.396 1.506 4.392m-5.899-.676v1.659c0 .645.062 1.075.215 1.29.123.215.338.307.615.307h.061a.72.72 0 0 0 .615-.307c.122-.215.215-.645.215-1.29v-1.66c0-.614-.093-1.044-.215-1.259-.154-.215-.369-.338-.615-.338h-.061c-.277 0-.492.123-.615.338-.153.215-.215.645-.215 1.26"/><path fill="#fff" d="M35.527 26.536h-.248c-1.45 0-2.712-.186-3.789-.58-.455-.144-.662-.413-.58-.827l.27-1.677c.041-.414.29-.559.724-.414 1.201.435 2.319.642 3.312.642h.104c.62 0 1.076-.083 1.345-.27.249-.165.394-.476.394-.91v-.207c0-.414-.124-.683-.331-.849-.228-.145-.663-.29-1.305-.414l-1.407-.269c-1.16-.207-1.987-.621-2.443-1.2-.476-.58-.704-1.387-.704-2.443v-.58c0-1.159.31-2.028.932-2.65.745-.745 2.132-1.117 4.12-1.117h.144c1.387 0 2.567.186 3.52.538.206.083.351.207.413.331.041.145.041.352-.02.6l-.352 1.512c-.083.372-.352.496-.766.351q-1.429-.434-2.733-.434h-.083c-.683 0-1.159.083-1.407.227-.27.166-.394.435-.394.808v.186c0 .331.083.58.27.704.165.145.538.269 1.076.372l1.573.311c1.242.248 2.09.642 2.567 1.139.455.496.704 1.366.704 2.587v.497c0 1.407-.394 2.422-1.16 3.063-.765.663-2.007.973-3.746.973m12.192-3.891v-5.838c0-.207.041-.352.145-.455.103-.083.29-.145.559-.145h1.904c.249 0 .435.062.538.145.104.103.166.248.166.455v6.128q0 1.893-.931 2.732c-.663.58-1.822.87-3.52.87s-2.877-.29-3.518-.87q-.932-.838-.932-2.733v-6.127c0-.207.041-.352.145-.455.103-.083.29-.145.559-.145h1.904c.249 0 .435.062.538.145.104.103.166.248.166.455v5.838c0 .476.062.786.228.952.165.186.455.269.91.269.435 0 .746-.083.911-.27.145-.165.228-.475.228-.951m7.816-5.548c.724-.704 1.76-1.076 3.084-1.076h.187c1.283 0 2.194.372 2.753 1.076.496.662.745 1.78.745 3.395v1.552c0 .87-.083 1.594-.207 2.133-.145.538-.394.993-.745 1.345-.704.683-1.656 1.014-2.898 1.014h-.228q-1.18 0-1.925-.434v3.187c0 .31-.062.518-.166.6-.124.084-.352.125-.704.125h-1.573c-.352 0-.58-.041-.704-.145-.124-.083-.165-.29-.165-.58V16.87c0-.248.041-.414.165-.517.104-.083.29-.145.56-.145h.869c.248 0 .434.041.538.083.083.062.165.186.228.352l.145.455zm.766 2.94v2.65c0 .475.083.806.29.993.186.186.496.269.931.269h.186c.477 0 .808-.124 1.015-.414q.248-.373.248-1.801v-.89c0-.994-.083-1.615-.248-1.843-.207-.248-.538-.372-1.035-.372h-.145c-.456 0-.766.103-.973.31-.186.187-.27.56-.27 1.098m12.712 3.829h.228c.704 0 1.45-.083 2.194-.27.207-.04.331-.061.394-.061.207 0 .33.124.372.352l.166 1.035c.041.29.083.476.083.559 0 .248-.187.434-.539.558-.952.332-2.008.497-3.125.497h-.394q-2.546 0-3.601-1.055a2.97 2.97 0 0 1-.828-1.408c-.145-.538-.207-1.263-.207-2.153v-1.159c0-1.8.414-3.064 1.242-3.809.703-.62 1.78-.931 3.25-.931h.29c1.448 0 2.504.352 3.125 1.035.662.745.994 1.966.994 3.705v1.076c0 .394-.207.58-.6.58h-4.969v.166c0 .496.125.828.414 1.014.27.186.766.269 1.511.269m-1.925-3.602h2.277c.166 0 .249-.083.249-.269v-.331c0-.414-.083-.725-.207-.952-.166-.249-.497-.373-.953-.373h-.186c-.414 0-.704.104-.87.29q-.31.372-.31 1.118zm9.937-2.94h.062c.455-.744 1.221-1.117 2.318-1.117h.828c.207 0 .373.041.456.124.082.083.145.228.145.456v1.51c0 .228-.042.373-.125.456q-.124.124-.434.124h-.621c-.766 0-1.284.145-1.574.435-.248.248-.352.724-.352 1.428v5.01c0 .207-.062.372-.165.455-.104.104-.29.145-.538.145H75.12c-.269 0-.455-.041-.559-.145-.103-.083-.145-.248-.145-.455v-8.963c0-.207.042-.352.145-.435.104-.083.29-.145.56-.145h.993c.228 0 .393.041.497.104a.84.84 0 0 1 .248.372zm4.764 2.216v-.27c0-1.014.269-1.78.807-2.318.621-.62 1.677-.931 3.146-.931h.207c1.16 0 2.174.124 3.023.372q.248.093.31.187a.6.6 0 0 1 .041.352l-.227 1.697c-.042.269-.228.352-.56.269-.827-.186-1.572-.29-2.193-.29h-.021c-.455 0-.787.042-.952.124-.187.083-.27.228-.27.435v.062c0 .207.063.352.228.435.166.083.477.186.953.269l.972.207c.89.207 1.532.517 1.905.931s.559 1.056.559 1.905v.31c0 2.174-1.366 3.25-4.057 3.25h-.207c-1.367 0-2.505-.186-3.457-.559-.187-.062-.31-.145-.352-.248-.042-.083-.042-.248 0-.476l.29-1.366c.062-.394.29-.518.703-.394.953.332 1.78.477 2.484.477h.063c.455 0 .765-.042.952-.145.165-.083.269-.249.269-.476v-.063a.44.44 0 0 0-.228-.393q-.249-.124-.994-.31l-.91-.207q-1.367-.31-1.925-.932c-.373-.414-.56-1.035-.56-1.904m13.022-.704h-3.29c-.208 0-.353-.02-.436-.104-.082-.082-.103-.248-.103-.496v-1.429c0-.248.02-.393.103-.476q.124-.124.435-.124h6.997c.207 0 .352.041.455.124.083.083.145.249.145.476v.394c0 .538-.166 1.035-.455 1.47l-3.56 5.05h3.539c.207 0 .331.041.414.124s.124.228.124.476v1.429q0 .372-.124.497c-.083.082-.207.103-.414.103h-7.12c-.436 0-.642-.186-.642-.6v-.476c0-.539.144-1.015.455-1.47zm14.54-2.008c-.289 1.946-.828 4.099-1.614 6.48a44 44 0 0 1-2.919 6.747c-.145.29-.331.435-.58.435-.165 0-.351-.041-.6-.166l-1.056-.455c-.372-.166-.538-.331-.538-.517 0-.083.021-.207.104-.352.704-1.429 1.118-2.257 1.2-2.484-.579-.207-1.014-.663-1.345-1.408-.373-.828-.807-2.09-1.284-3.83q-.714-2.608-1.055-4.47c-.042-.208-.02-.353.083-.456.103-.083.289-.145.538-.145h1.883c.228 0 .394.041.497.104.104.062.187.186.228.393.476 2.608 1.014 4.926 1.615 6.934h.103c.58-1.656 1.118-3.933 1.615-6.872q.03-.31.186-.435c.103-.083.269-.124.476-.124h1.904c.228 0 .394.062.477.145s.103.248.082.476m4.522 3.209v2.65c0 .475.082.806.289.993.166.186.477.269.932.269h.186c.476 0 .808-.124 1.015-.414q.248-.373.248-1.801v-.89c0-1.035-.104-1.677-.269-1.884-.186-.207-.538-.331-1.035-.331h-.083c-.476 0-.807.103-1.014.31-.187.187-.269.56-.269 1.098m0-3.457h.041q.9-.56 2.36-.56h.186c1.242 0 2.153.373 2.712 1.119.455.641.704 1.78.704 3.415v1.49c0 1.656-.352 2.816-1.056 3.457-.745.704-1.925 1.035-3.54 1.035h-.414c-1.697 0-2.856-.33-3.477-1.014-.559-.6-.828-1.573-.828-2.94v-9.646c0-.207.041-.351.145-.455.082-.083.269-.145.538-.145h1.925c.248 0 .435.062.538.145.104.104.166.248.166.455zm11.098 5.754v3.416c0 .207-.062.372-.166.455-.103.104-.29.145-.538.145h-1.905c-.269 0-.455-.041-.558-.145-.104-.083-.145-.248-.145-.455V12.936c0-.207.041-.351.145-.455.103-.083.289-.145.558-.145h1.905c.248 0 .435.062.538.145.104.104.166.248.166.455v6.749h.145l1.966-3.002c.186-.31.476-.476.869-.476h2.402c.227 0 .352.083.352.248 0 .083-.063.228-.166.394l-2.381 3.56c-.186.29-.269.497-.269.621 0 .145.083.352.269.621l2.547 4.016c.082.165.124.269.124.352 0 .228-.145.331-.435.331h-2.298c-.289 0-.517-.02-.641-.104q-.187-.093-.373-.434l-1.966-3.478zm10.27-5.527v8.943c0 .207-.062.372-.166.455-.103.104-.29.145-.538.145h-1.904c-.27 0-.456-.041-.559-.145-.104-.083-.145-.248-.145-.455v-8.943c0-.207.041-.352.145-.455.103-.083.289-.145.559-.145h1.904c.248 0 .435.062.538.145.104.103.166.248.166.455m-1.532-1.387h-.248c-1.118 0-1.677-.559-1.677-1.718V13.6c0-1.139.559-1.718 1.677-1.718h.248c1.118 0 1.677.58 1.677 1.718v.103c0 1.16-.559 1.718-1.677 1.718M34.368 50.334v3.416c0 .207-.062.372-.166.455-.103.104-.29.145-.538.145h-1.905c-.269 0-.455-.041-.558-.145-.104-.083-.145-.248-.145-.455V40.936c0-.207.041-.352.145-.455.103-.083.29-.145.558-.145h1.905c.248 0 .435.062.538.145.104.103.166.248.166.455v6.749h.145l1.966-3.002c.186-.31.476-.476.87-.476h2.4c.228 0 .353.083.353.248 0 .083-.062.228-.166.394l-2.38 3.56c-.187.29-.27.497-.27.621 0 .145.083.352.27.621l2.546 4.016c.082.166.124.269.124.352 0 .227-.145.331-.435.331h-2.298c-.29 0-.517-.02-.641-.104q-.187-.093-.373-.434l-1.966-3.478zm9.525-5.01h.062c.455-.744 1.221-1.117 2.318-1.117h.828c.207 0 .373.041.456.124.082.083.144.228.144.456v1.51c0 .228-.041.373-.124.456q-.124.124-.434.124h-.621c-.766 0-1.284.145-1.574.435-.248.248-.352.724-.352 1.428v5.01c0 .207-.062.372-.165.455-.104.104-.29.145-.538.145h-1.905c-.269 0-.455-.041-.559-.145-.103-.083-.145-.248-.145-.455v-8.963c0-.207.042-.352.145-.435.104-.083.29-.145.56-.145h.993c.227 0 .393.041.497.103a.84.84 0 0 1 .248.373zm9.878 6.542H54c.704 0 1.45-.083 2.194-.27.207-.04.332-.061.394-.061.207 0 .33.124.372.352l.166 1.035c.041.29.083.476.083.559 0 .248-.187.434-.539.558-.952.332-2.008.497-3.125.497h-.394q-2.546 0-3.601-1.055a2.97 2.97 0 0 1-.828-1.408c-.145-.538-.207-1.263-.207-2.153v-1.159c0-1.8.414-3.064 1.242-3.809.703-.62 1.78-.931 3.25-.931h.29c1.448 0 2.504.352 3.125 1.035.662.745.994 1.966.994 3.705v1.076c0 .394-.207.58-.6.58h-4.969v.166c0 .496.125.828.414 1.014.27.186.766.269 1.511.269m-1.925-3.602h2.277c.166 0 .249-.083.249-.269v-.331c0-.414-.083-.725-.207-.952-.166-.249-.497-.373-.953-.373h-.186c-.414 0-.704.104-.87.29q-.31.371-.31 1.118zm13 2.422v-2.629c0-.517-.083-.89-.248-1.097-.186-.207-.518-.331-.973-.331h-.207c-.455 0-.766.124-.952.352-.207.227-.29.87-.29 1.946v.91c0 .994.103 1.615.31 1.822.166.207.477.29.953.29h.227c.394 0 .684-.083.89-.27.187-.186.29-.517.29-.993m-.041-6.293h.041v-3.457c0-.207.042-.352.145-.455.104-.083.29-.145.56-.145h1.924c.249 0 .435.062.538.145a.7.7 0 0 1 .145.455v9.419c0 1.449-.269 2.443-.807 3.022a3.2 3.2 0 0 1-1.428.89c-.58.186-1.346.27-2.319.27h-.352c-1.531 0-2.629-.311-3.332-.932-.725-.621-1.077-1.78-1.077-3.498V48.45c0-1.656.331-2.815 1.035-3.477.663-.621 1.574-.952 2.753-.952h.249q1.18 0 1.925.372m14.103.435c-.29 1.946-.828 4.099-1.615 6.48a44 44 0 0 1-2.919 6.747c-.144.29-.33.435-.58.435-.165 0-.351-.041-.6-.166l-1.055-.455c-.373-.166-.538-.331-.538-.517 0-.083.02-.207.103-.352.704-1.429 1.118-2.257 1.2-2.484-.579-.207-1.013-.663-1.345-1.408-.372-.828-.807-2.09-1.283-3.83q-.714-2.608-1.056-4.47c-.041-.208-.02-.353.083-.456.103-.083.29-.145.538-.145h1.884c.228 0 .393.041.497.103.103.063.186.187.227.394.477 2.608 1.015 4.926 1.615 6.934h.104c.58-1.656 1.117-3.933 1.614-6.872q.03-.31.186-.435c.104-.083.27-.124.477-.124h1.904c.228 0 .393.062.476.145s.103.248.083.476m8.194 7.576v1.18c0 .31-.062.518-.145.621-.083.104-.27.145-.518.145h-1.656c-1.49 0-2.484-.248-2.94-.766-.413-.435-.6-1.263-.6-2.505v-4.285h-1.117c-.207 0-.332-.02-.414-.103-.083-.083-.104-.207-.104-.414v-1.056c0-.248.02-.414.104-.496.062-.083.207-.145.434-.208l1.097-.269V42.22c0-.207.042-.352.145-.456.104-.082.29-.145.56-.145h1.904c.248 0 .434.063.538.145.103.104.165.249.165.456v1.987h1.719c.207 0 .33.041.414.124.082.083.124.228.124.476v1.387q0 .373-.124.497c-.083.083-.207.103-.414.103h-1.719v3.913c0 .372.042.6.166.724.124.145.393.207.807.207h.911c.249 0 .435.062.518.166.083.103.145.31.145.6m10.628.994h-.559c-2.939 0-4.388-1.325-4.388-3.995v-1.387c0-1.366.352-2.36 1.076-3.022.704-.642 1.801-.973 3.25-.973h.29c.27-1.49 1.366-2.257 3.312-2.257h1.015c.207 0 .331.042.414.104.062.083.103.228.103.435v1.138c0 .207-.041.331-.124.393-.083.083-.228.104-.414.104h-.973c-.455 0-.766.103-.952.31 1.552.414 2.339 1.677 2.339 3.768v1.387c0 1.49-.414 2.484-1.221 3.022.538.29.952.662 1.262 1.118.311.455.476.952.476 1.47v.144c0 2.05-1.635 3.064-4.864 3.064h-.394c-1.407 0-2.773-.248-4.057-.745-.372-.124-.517-.394-.414-.787l.373-1.325c.103-.393.352-.538.745-.414 1.221.414 2.298.6 3.25.6h.29q1.8 0 1.8-1.055v-.062c0-.394-.206-.745-.62-1.077-.332.042-.683.042-1.015.042m-.352-2.588h.145c.456 0 .766-.083.973-.29.228-.227.352-.703.352-1.407v-.807c0-.704-.124-1.16-.352-1.408-.207-.186-.517-.29-.973-.29h-.144c-.456 0-.787.104-.973.29-.249.248-.352.704-.352 1.408v.807c0 .704.103 1.18.352 1.407.186.207.517.29.972.29m9.594-2.339v1.615c0 .807.124 1.325.373 1.573.186.207.476.29.869.29h.083c.373 0 .662-.083.869-.29.249-.248.373-.766.373-1.573V48.47c0-.786-.124-1.325-.373-1.573-.207-.186-.496-.29-.869-.29h-.083c-.393 0-.683.104-.869.29-.249.248-.373.787-.373 1.573m5.9.124v1.346c0 1.035-.104 1.822-.311 2.401a2.96 2.96 0 0 1-.993 1.387c-.684.538-1.739.807-3.188.807h-.249c-1.449 0-2.525-.269-3.187-.807a2.96 2.96 0 0 1-.994-1.387c-.207-.58-.311-1.366-.311-2.401v-1.325c0-1.014.104-1.8.311-2.38s.538-1.035.994-1.408c.662-.538 1.738-.807 3.187-.807h.249c1.449 0 2.504.269 3.188.807.455.373.786.828.993 1.387.207.58.311 1.366.311 2.38m8.251 3.81v1.18c0 .31-.062.517-.145.62-.083.104-.269.145-.517.145h-1.656c-1.491 0-2.484-.248-2.94-.766-.414-.435-.6-1.263-.6-2.505v-4.285h-1.118c-.207 0-.331-.02-.414-.103s-.103-.207-.103-.414v-1.056c0-.248.02-.414.103-.496.062-.083.207-.145.435-.208l1.097-.269V42.22c0-.207.041-.352.145-.456.103-.082.29-.145.559-.145h1.904c.249 0 .435.063.538.145.104.104.166.249.166.456v1.987h1.718c.207 0 .331.041.414.124s.124.228.124.476v1.387q0 .373-.124.497c-.083.083-.207.103-.414.103h-1.718v3.913c0 .372.041.6.166.724.124.145.393.207.807.207h.911c.248 0 .434.062.517.166.083.103.145.31.145.6m4.568-3.934v1.615c0 .807.124 1.325.373 1.573.186.207.476.29.869.29h.083c.372 0 .662-.083.869-.29.249-.248.373-.766.373-1.573V48.47c0-.786-.124-1.325-.373-1.573-.207-.186-.497-.29-.869-.29h-.083c-.393 0-.683.104-.869.29-.249.248-.373.787-.373 1.573m5.9.124v1.346c0 1.035-.104 1.822-.311 2.401a2.96 2.96 0 0 1-.994 1.387c-.683.538-1.738.807-3.187.807h-.249c-1.449 0-2.525-.269-3.188-.807a2.96 2.96 0 0 1-.993-1.387c-.207-.58-.311-1.366-.311-2.401v-1.325c0-1.014.104-1.8.311-2.38s.538-1.035.993-1.408c.663-.538 1.739-.807 3.188-.807h.249c1.449 0 2.504.269 3.187.807.456.373.787.828.994 1.387.207.58.311 1.366.311 2.38m-6.314-7.12 3.25-2.774a.58.58 0 0 1 .393-.187c.145 0 .29.104.414.27l.994 1.283a.6.6 0 0 1 .124.352c0 .166-.124.331-.331.497l-3.271 2.235a.7.7 0 0 1-.414.145c-.165 0-.331-.083-.497-.29l-.621-.724c-.165-.186-.227-.352-.227-.476s.062-.249.186-.331m13.385 3.229h1.78c.29 0 .497.041.601.124s.186.248.227.497c0 .083.373 1.925 1.098 5.506h.062c.372-2.174.703-4.181.973-6.044.02-.228.082-.373.165-.456q.124-.124.435-.124h2.111c.228 0 .373.062.456.145.062.103.082.269.041.476-.331 1.615-.745 3.395-1.201 5.34-.455 1.946-.786 3.168-.993 3.685-.083.207-.186.352-.29.414s-.269.083-.476.083h-2.277c-.435 0-.704-.145-.787-.476-.393-1.408-.724-3.188-1.014-5.34h-.083a57 57 0 0 1-1.035 5.34c-.083.331-.331.476-.745.476h-2.236c-.414 0-.683-.145-.786-.455-.207-.56-.559-1.843-1.056-3.83a96 96 0 0 1-1.159-5.237c-.062-.228-.041-.393.041-.476.083-.083.249-.145.497-.145h2.029c.207 0 .372.041.476.124.083.083.145.249.186.456.29 1.925.621 3.933 1.014 6.044h.083c.497-2.567.849-4.41 1.015-5.506.041-.27.103-.435.207-.518.103-.062.31-.103.641-.103m12.487 5.63v3.416c0 .207-.062.372-.166.455-.103.104-.29.145-.538.145h-1.904c-.269 0-.456-.041-.559-.145-.104-.083-.145-.248-.145-.455V40.936c0-.207.041-.352.145-.455.103-.083.29-.145.559-.145h1.904c.248 0 .435.062.538.145.104.103.166.248.166.455v6.749h.145l1.966-3.002c.187-.31.476-.476.87-.476h2.401c.228 0 .352.083.352.248 0 .083-.062.228-.166.394l-2.38 3.56c-.187.29-.269.497-.269.621 0 .145.082.352.269.621l2.546 4.016c.083.166.124.269.124.352 0 .227-.145.331-.435.331h-2.297c-.29 0-.518-.02-.642-.104q-.186-.093-.373-.434l-1.966-3.478zm9.756-1.863v1.615c0 .807.125 1.325.373 1.573.186.207.476.29.869.29h.083c.373 0 .663-.083.87-.29.248-.248.372-.766.372-1.573V48.47c0-.786-.124-1.325-.372-1.573-.207-.186-.497-.29-.87-.29h-.083c-.393 0-.683.104-.869.29-.248.248-.373.787-.373 1.573m5.9.124v1.346c0 1.035-.104 1.822-.311 2.401a2.96 2.96 0 0 1-.993 1.387c-.683.538-1.739.807-3.188.807h-.248c-1.449 0-2.526-.269-3.188-.807a2.96 2.96 0 0 1-.994-1.387c-.207-.58-.31-1.366-.31-2.401v-1.325c0-1.014.103-1.8.31-2.38s.538-1.035.994-1.408c.662-.538 1.739-.807 3.188-.807h.248c1.449 0 2.505.269 3.188.807.455.373.786.828.993 1.387.207.58.311 1.366.311 2.38m7.071-3.891h1.781c.289 0 .496.041.6.124s.186.248.228.497c0 .083.372 1.925 1.097 5.506h.062c.372-2.174.704-4.181.973-6.044.02-.228.083-.373.165-.456q.125-.124.435-.124h2.111c.228 0 .373.062.456.145.062.103.083.269.041.476-.331 1.615-.745 3.395-1.2 5.34-.456 1.946-.787 3.168-.994 3.685-.083.207-.186.352-.29.414s-.269.083-.476.083h-2.277c-.435 0-.704-.145-.786-.476-.394-1.408-.725-3.188-1.015-5.34h-.083a57 57 0 0 1-1.035 5.34c-.082.331-.331.476-.745.476h-2.235c-.414 0-.683-.145-.787-.455-.207-.56-.559-1.843-1.056-3.83a97 97 0 0 1-1.159-5.237c-.062-.228-.041-.393.042-.476.082-.083.248-.145.496-.145h2.029c.207 0 .373.041.476.124.083.083.145.249.186.456.29 1.925.621 3.933 1.015 6.044h.082c.497-2.567.849-4.41 1.015-5.506.041-.27.103-.435.207-.518.103-.062.31-.103.641-.103m18.235.124c-.29 1.946-.828 4.099-1.615 6.48a44 44 0 0 1-2.918 6.747c-.145.29-.332.435-.58.435-.166 0-.352-.041-.6-.166l-1.056-.455c-.373-.166-.538-.331-.538-.517 0-.083.021-.207.103-.352.704-1.429 1.118-2.257 1.201-2.484-.58-.207-1.014-.663-1.346-1.408-.372-.828-.807-2.09-1.283-3.83q-.714-2.608-1.056-4.47c-.041-.208-.02-.353.083-.456.104-.083.29-.145.538-.145h1.884c.228 0 .393.041.497.103.103.063.186.187.228.394.476 2.608 1.014 4.926 1.614 6.934h.104c.579-1.656 1.117-3.933 1.614-6.872q.031-.31.187-.435c.103-.083.269-.124.476-.124h1.904c.228 0 .393.062.476.145s.104.248.083.476m11.369 5.858v-2.629c0-.517-.083-.89-.249-1.097-.186-.207-.517-.331-.973-.331h-.207c-.455 0-.765.124-.952.352-.207.227-.29.87-.29 1.946v.91c0 .994.104 1.615.311 1.822.166.207.476.29.952.29h.228c.393 0 .683-.083.89-.27.186-.186.29-.517.29-.993m-.042-6.293h.042v-3.457c0-.207.041-.352.145-.455.103-.083.289-.145.559-.145h1.925c.248 0 .434.062.538.145a.7.7 0 0 1 .145.455v9.419c0 1.449-.269 2.443-.808 3.022a3.2 3.2 0 0 1-1.428.89c-.579.186-1.345.27-2.318.27h-.352c-1.532 0-2.629-.311-3.333-.932-.724-.621-1.076-1.78-1.076-3.498V48.45c0-1.656.331-2.815 1.035-3.477.662-.621 1.573-.952 2.753-.952h.248q1.18 0 1.925.372m8.328 4.078v1.615c0 .807.124 1.325.372 1.573.187.207.477.29.87.29h.083c.372 0 .662-.083.869-.29.248-.248.373-.766.373-1.573V48.47c0-.786-.125-1.325-.373-1.573-.207-.186-.497-.29-.869-.29h-.083c-.393 0-.683.104-.87.29-.248.248-.372.787-.372 1.573m5.899.124v1.346c0 1.035-.103 1.822-.31 2.401a2.96 2.96 0 0 1-.994 1.387c-.683.538-1.739.807-3.188.807h-.248c-1.449 0-2.525-.269-3.188-.807a2.96 2.96 0 0 1-.993-1.387c-.207-.58-.311-1.366-.311-2.401v-1.325c0-1.014.104-1.8.311-2.38s.538-1.035.993-1.408c.663-.538 1.739-.807 3.188-.807h.248c1.449 0 2.505.269 3.188.807.456.373.787.828.994 1.387.207.58.31 1.366.31 2.38m12.185-7.324h-.101c-1.058 0-2.217.227-3.477.655-.429.152-.681.026-.781-.378l-.454-1.814c-.126-.454 0-.781.403-.932 1.563-.656 3.276-.983 5.166-.983h.076c1.663 0 2.948.378 3.855 1.109.908.73 1.361 1.84 1.361 3.3v.303c0 1.31-.277 2.319-.806 3.075-.555.756-1.411 1.436-2.571 1.99l-1.31.63c-1.21.605-1.966 1.059-2.318 1.361s-.53.731-.53 1.235v.277h6.603c.353 0 .605.076.705.177.101.1.152.327.152.655v1.663c0 .302-.076.504-.177.605q-.19.15-.68.151h-9.727q-.53 0-.681-.151c-.126-.101-.176-.303-.176-.605v-1.613c0-1.613.277-2.898.882-3.805.579-.907 1.587-1.663 3.024-2.318l1.083-.48c.882-.377 1.487-.73 1.79-1.083.302-.327.478-.781.478-1.36v-.202c0-.958-.604-1.462-1.789-1.462m21.422 3.83v2.193c0 2.369-.504 4.183-1.487 5.418-1.008 1.26-2.671 1.865-4.989 1.865s-3.982-.605-4.99-1.865c-1.008-1.235-1.487-3.05-1.487-5.418v-2.192c0-2.37.479-4.158 1.487-5.418 1.008-1.235 2.671-1.865 4.99-1.865 2.318 0 3.981.63 4.989 1.865.983 1.26 1.487 3.049 1.487 5.418m-4.309 1.765V45.53c0-1.638-.151-2.772-.403-3.377s-.832-.932-1.714-.932h-.101c-.907.025-1.486.327-1.738.932s-.378 1.739-.378 3.377v1.336c0 1.663.126 2.772.378 3.376s.831.933 1.738.933h.101c.882 0 1.462-.303 1.714-.907s.403-1.74.403-3.402m18.927-1.764v2.192c0 2.369-.504 4.183-1.487 5.418-1.008 1.26-2.671 1.865-4.989 1.865s-3.982-.605-4.99-1.865c-1.008-1.235-1.487-3.05-1.487-5.418v-2.192c0-2.37.479-4.158 1.487-5.418 1.008-1.235 2.671-1.865 4.99-1.865 2.318 0 3.981.63 4.989 1.865.983 1.26 1.487 3.049 1.487 5.418m-4.309 1.764V45.53c0-1.638-.151-2.772-.403-3.377s-.832-.932-1.714-.932h-.101c-.907.025-1.486.327-1.738.932s-.378 1.739-.378 3.377v1.336c0 1.663.126 2.772.378 3.376s.831.933 1.738.933h.101c.882 0 1.462-.303 1.714-.907s.403-1.74.403-3.402m19.779 5.115v1.437c0 .378-.076.63-.177.756s-.327.176-.63.176h-2.016c-1.814 0-3.024-.302-3.578-.932-.504-.53-.731-1.538-.731-3.05v-5.216h-1.361c-.252 0-.403-.025-.504-.126-.1-.1-.126-.252-.126-.504v-1.285c0-.303.026-.504.126-.605.076-.1.252-.176.53-.252l1.335-.328v-2.47c0-.251.051-.428.177-.554.126-.1.352-.176.68-.176h2.318c.303 0 .53.076.656.176.126.126.201.303.201.555v2.419h2.092c.252 0 .403.05.504.151s.151.277.151.58v1.688q0 .454-.151.605c-.101.1-.252.126-.504.126h-2.092v4.763c0 .453.051.73.202.882.151.176.479.252.983.252h1.108c.303 0 .53.075.63.201.101.126.177.378.177.731m12.592-9.223c-.353 2.369-1.008 4.99-1.966 7.888a53.5 53.5 0 0 1-3.553 8.215c-.177.353-.403.529-.706.529-.201 0-.428-.05-.731-.202l-1.285-.554c-.453-.202-.655-.403-.655-.63 0-.1.025-.252.126-.428.857-1.74 1.361-2.747 1.462-3.024-.706-.252-1.235-.807-1.638-1.714-.454-1.008-.983-2.545-1.563-4.662q-.869-3.175-1.285-5.443c-.05-.252-.025-.429.101-.555.126-.1.353-.176.655-.176h2.293c.277 0 .479.05.605.126s.227.227.277.479c.58 3.175 1.235 5.997 1.966 8.442h.126c.705-2.016 1.361-4.788 1.965-8.367q.038-.378.227-.529c.126-.1.328-.151.58-.151h2.318c.277 0 .479.076.58.176.101.101.126.303.101.58m1.144 3.301v-.327c0-1.235.328-2.168.983-2.823.756-.756 2.041-1.134 3.83-1.134h.252c1.412 0 2.646.151 3.68.454q.302.113.378.227c.05.1.075.226.05.428l-.277 2.066c-.051.328-.277.429-.681.328-1.008-.227-1.915-.353-2.671-.353h-.025c-.554 0-.958.05-1.159.151-.227.101-.328.278-.328.53v.075c0 .252.076.429.277.53.202.1.58.226 1.16.327l1.184.252c1.084.252 1.865.63 2.318 1.134s.681 1.285.681 2.318v.378c0 2.646-1.663 3.957-4.939 3.957h-.252c-1.664 0-3.05-.227-4.209-.68-.227-.076-.378-.177-.428-.303-.051-.1-.051-.302 0-.58l.353-1.663c.075-.479.352-.63.856-.479 1.16.404 2.168.58 3.024.58h.076c.554 0 .932-.05 1.159-.176.202-.101.328-.303.328-.58v-.076a.54.54 0 0 0-.277-.478q-.303-.151-1.21-.378l-1.109-.252q-1.663-.378-2.343-1.134c-.454-.504-.681-1.26-.681-2.319m15.678 6.174v.252c0 1.411-.681 2.092-2.016 2.092h-.277c-1.361 0-2.016-.68-2.016-2.092v-.252c0-.73.151-1.26.504-1.562.327-.303.831-.479 1.512-.479h.277c.655 0 1.159.176 1.512.479.327.302.504.831.504 1.562m11.767-7.03h-4.007c-.252 0-.428-.026-.529-.127-.101-.1-.126-.302-.126-.604v-1.74c0-.302.025-.478.126-.579q.151-.15.529-.151h8.518c.252 0 .428.05.554.151.101.101.177.303.177.58v.479c0 .655-.202 1.26-.555 1.789l-4.334 6.149h4.309c.252 0 .403.05.504.15.101.102.151.278.151.58v1.74q0 .453-.151.604c-.101.1-.252.126-.504.126h-8.669c-.529 0-.781-.227-.781-.73v-.58c0-.656.177-1.235.555-1.79zm12.258 5.871h.806c.252 0 .454.076.554.176.101.126.177.353.177.68v1.563c0 .353-.076.58-.177.68-.1.127-.302.177-.554.177h-1.915c-1.26 0-2.142-.227-2.646-.73-.504-.48-.756-1.336-.756-2.546v-2.722l-.832.53c-.327.201-.554.302-.655.302-.202 0-.277-.151-.277-.454v-2.343c0-.252.025-.429.126-.555.075-.1.227-.252.479-.428l1.159-.73V38.02c0-.252.05-.428.176-.554.126-.1.353-.176.681-.176h2.318c.302 0 .529.075.655.176.126.126.202.302.202.554v4.083l1.134-.731c.302-.202.529-.302.655-.302.176 0 .277.15.277.453v2.344c0 .252-.05.453-.126.554a2.1 2.1 0 0 1-.479.429l-1.461.932v4.813c0 .202.025.328.101.378.05.076.176.101.378.101"/></svg>