<svg xmlns="http://www.w3.org/2000/svg" fill="none" viewBox="0 0 171 45"><path fill="#fff" d="M6.227 2.758v.679H2.476v-.68zm.59 0V12h-.723V2.758zm-4.595 0h.723L2.75 7.036a36 36 0 0 1-.134 1.866 9.6 9.6 0 0 1-.235 1.403q-.146.584-.38.959a1.5 1.5 0 0 1-.578.558Q1.079 12 .59 12H.35v-.68l.202-.005q.311-.014.54-.146.228-.134.387-.432a2.8 2.8 0 0 0 .267-.794q.107-.501.177-1.244a36 36 0 0 0 .115-1.764zm10.744 8.563V12H8.65v-.68zm-4.12-8.563V12h-.723V2.758zm3.58 4.138v.68H8.65v-.68zm.508-4.138v.679H8.65v-.68zm1.509 0V12h-.73V2.758zm4.843 0L15.858 7.67h-1.707l-.076-.686h1.352l2.951-4.227zM18.619 12l-3.205-4.424.412-.692L19.516 12zm3.997-8.684L19.956 12h-.748l2.939-9.242h.514zM25.01 12l-2.666-8.684-.032-.558h.508L25.76 12zm-.419-3.263v.68h-4.164v-.68zm4.334-.495h-2.19v-.679h2.19q.678 0 1.098-.267.418-.273.609-.73.197-.463.197-1.034 0-.565-.197-1.041a1.64 1.64 0 0 0-.61-.762q-.418-.292-1.098-.292h-1.96V12h-.725V2.758h2.686q.85 0 1.434.349.59.349.889.971.304.622.304 1.441 0 .85-.298 1.466a2.1 2.1 0 0 1-.882.933q-.585.324-1.447.324m8.217.876h.73q-.063 1.035-.419 1.701a2.3 2.3 0 0 1-.977.99q-.615.324-1.48.324a2.7 2.7 0 0 1-1.199-.26 2.6 2.6 0 0 1-.914-.749 3.6 3.6 0 0 1-.578-1.2 6 6 0 0 1-.196-1.587v-1.98q0-.87.197-1.555.203-.692.584-1.175.387-.488.933-.742a2.9 2.9 0 0 1 1.225-.254q.837 0 1.447.317.615.318.965.984.348.667.412 1.72h-.73q-.057-.85-.304-1.364-.242-.514-.686-.743-.444-.235-1.104-.235-.534 0-.946.21-.407.203-.692.596a2.8 2.8 0 0 0-.425.952 5 5 0 0 0-.146 1.276v1.993q0 .705.133 1.283a3.2 3.2 0 0 0 .406.984q.273.412.673.634.406.216.946.216.686 0 1.13-.216.45-.216.698-.723.255-.515.317-1.397m4.092-6.36V12h-.717V2.758zm2.635 0v.679h-5.974v-.68zm3.28 4.799h-2.146l-.013-.667h1.86q.558 0 .946-.197.392-.195.596-.584.21-.387.21-.952 0-.584-.203-.965a1.23 1.23 0 0 0-.603-.565q-.4-.19-1.01-.19H45.18V12h-.723V2.758h2.33q.59 0 1.06.146.475.14.806.438.33.291.501.749.178.457.178 1.085 0 .572-.223 1.029a1.964 1.964 0 0 1-1.562 1.11zM47.095 12h-2.342l.387-.68h1.955q.559 0 .953-.228.393-.234.602-.66.216-.432.216-1.028 0-.52-.184-.94-.184-.418-.565-.66-.38-.247-.97-.247h-1.385l.013-.667h1.936l.14.241q.533.064.92.381.394.317.61.806t.215 1.073q0 .845-.317 1.428-.318.578-.876.883-.559.298-1.308.298m8.263-.68V12h-4.317v-.68zm-4.12-8.562V12h-.724V2.758zm3.58 4.138v.68h-3.777v-.68zm.508-4.138v.679h-4.285v-.68zm5.94 4.138v.68H56.65v-.68zm-4.463-4.138V12h-.724V2.758zm5.065 0V12h-.73V2.758zm6.485 4.138v.68H63.74v-.68zm-4.462-4.138V12h-.724V2.758zm5.065 0V12h-.73V2.758zm1.807 3.999h2.145q.845 0 1.416.33.578.323.87.914.291.584.292 1.365a3.2 3.2 0 0 1-.172 1.066q-.165.483-.489.832a2.2 2.2 0 0 1-.806.546q-.482.19-1.11.19h-2.641V2.758h.73v8.563h1.91q.654 0 1.067-.273t.597-.724q.19-.45.19-.971 0-.514-.19-.946a1.53 1.53 0 0 0-.597-.704q-.412-.267-1.067-.267h-2.145zm6.671-4V12h-.73V2.758zm2.093 7.866 4.31-7.865h.717V12h-.717V4.123L79.528 12h-.724V2.758h.724zM82.905.485h.647q0 .483-.222.85a1.5 1.5 0 0 1-.628.579q-.407.21-.978.21-.857-.001-1.352-.458-.489-.457-.489-1.18h.654q0 .437.267.761.266.317.92.317.635 0 .908-.323.273-.324.273-.756m10.767 2.273V12h-.73V3.437h-4.284V12h-.73V2.758zm4.003 5.484h-2.19v-.679h2.19q.68 0 1.098-.267.42-.273.61-.73.196-.463.197-1.034 0-.565-.197-1.041a1.64 1.64 0 0 0-.61-.762q-.418-.292-1.098-.292h-1.961V12h-.724V2.758h2.685q.85 0 1.435.349.59.349.888.971.305.622.305 1.441 0 .85-.298 1.466-.3.61-.882.933-.585.324-1.448.324m8.256 3.079V12h-4.316v-.68zm-4.119-8.563V12h-.724V2.758zm3.58 4.138v.68h-3.777v-.68zm.507-4.138v.679h-4.284v-.68zm6.524 0V12h-.73V3.437h-4.285V12h-.73V2.758zm3.92.558L113.683 12h-.749l2.939-9.242h.515zM118.736 12l-2.666-8.684-.032-.558h.508L119.485 12zm-.419-3.263v.68h-4.164v-.68zm4.333-.495h-2.19v-.679h2.19q.68 0 1.099-.267.418-.273.609-.73.197-.463.197-1.034 0-.565-.197-1.041a1.64 1.64 0 0 0-.609-.762q-.42-.292-1.099-.292h-1.961V12h-.724V2.758h2.685q.851 0 1.435.349.59.349.889.971.304.622.304 1.441 0 .85-.298 1.466a2.1 2.1 0 0 1-.882.933q-.585.324-1.448.324m5.14-4.926L125.13 12h-.749l2.939-9.242h.514zM130.183 12l-2.666-8.684-.032-.558h.508L130.932 12zm-.419-3.263v.68H125.6v-.68zm3.47-5.98V12h-.718V2.758zm2.634 0v.68h-5.973v-.68zm-.967 8.773q0-.222.14-.38a.5.5 0 0 1 .393-.16q.254 0 .4.16a.54.54 0 0 1 .146.38.52.52 0 0 1-.146.375.53.53 0 0 1-.4.152q-.254 0-.393-.152a.53.53 0 0 1-.14-.375m10.152-8.772V12h-.73V3.437h-4.285V12h-.73V2.758zm6.161 8.563V12h-4.317v-.68zm-4.12-8.563V12h-.723V2.758zm3.58 4.138v.68h-3.777v-.68zm.508-4.138v.679h-4.285v-.68zm3.438 5.484h-2.19v-.679h2.19q.68 0 1.098-.267.42-.273.61-.73.197-.463.197-1.034 0-.565-.197-1.041a1.63 1.63 0 0 0-.61-.762q-.418-.292-1.098-.292h-1.961V12h-.724V2.758h2.685q.851 0 1.435.349.59.349.889.971.304.622.304 1.441 0 .85-.298 1.466a2.1 2.1 0 0 1-.882.933q-.584.324-1.448.324m8.256 3.079V12h-4.316v-.68zm-4.119-8.563V12h-.724V2.758zm3.58 4.138v.68h-3.777v-.68zm.508-4.138v.679h-4.285v-.68zm6.777 8.563V12h-6.056v-.68zm-5.91 0v2.926h-.724v-2.926zm6.525 0v2.92h-.723v-2.92zm-1.447-8.563v.679h-3.504v-.68zm.59 0V12h-.723V2.758zm-4.354 0h.717l-.127 3.345a16 16 0 0 1-.419 3.053 8 8 0 0 1-.349 1.124 5.6 5.6 0 0 1-.406.857q-.21.356-.425.577-.21.216-.413.286h-.413v-.68h.337q.133-.158.33-.52.203-.361.412-.977.216-.622.381-1.536.172-.921.229-2.184zm-158.158 15V27h-.73v-8.563H1.854V27h-.73v-9.242zm4.003 5.484h-2.19v-.679h2.19q.68 0 1.098-.267.42-.273.61-.73.196-.462.196-1.034 0-.566-.196-1.041a1.64 1.64 0 0 0-.61-.762q-.418-.292-1.098-.292H8.91V27h-.724v-9.242h2.685q.85 0 1.435.349.59.349.889.971.304.622.304 1.441 0 .85-.298 1.466a2.1 2.1 0 0 1-.883.934q-.583.323-1.447.323m4.162 2.38 4.31-7.864h.717V27h-.717v-7.877L15.033 27h-.724v-9.242h.724zm6.587-7.864h.73l2.799 8.125 2.812-8.125h.717L25.435 27h-.559zm-.223 0h.635l.09 5.218V27h-.725zm6.881 0h.641V27h-.723v-4.024zm6.777 8.563V27H30.74v-.68zm-4.12-8.563V27h-.723v-9.242zm3.58 4.139v.679H30.74v-.68zm.509-4.14v.68h-4.285v-.68zm5.939 4.14v.679h-4.615v-.68zm-4.463-4.14V27h-.723v-9.242zm5.066 0V27h-.73v-9.242zm6.142 8.564V27h-4.316v-.68zm-4.12-8.563V27h-.723v-9.242zm3.58 4.139v.679h-3.776v-.68zm.508-4.14v.68h-4.284v-.68zm5.94 4.14v.679H49v-.68zm-4.463-4.14V27h-.724v-9.242zm5.065 0V27h-.73v-9.242zm2.048 7.866 4.31-7.865h.718V27h-.718v-7.877L56.266 27h-.723v-9.242h.723zm11.208.698V27h-4.316v-.68zm-4.12-8.563V27h-.723v-9.242zm3.58 4.139v.679h-3.776v-.68zm.508-4.14v.68h-4.284v-.68zm.976 0h.73l2.799 8.126 2.812-8.125h.717L72.233 27h-.56zm-.223 0h.635l.089 5.219V27h-.724zm6.881 0h.641V27h-.723v-4.024zm9.714 0V27h-.73v-8.563h-4.285V27h-.73v-9.242zm4.003 5.485h-2.19v-.679h2.19q.68 0 1.098-.267.42-.273.61-.73.195-.462.196-1.034a2.7 2.7 0 0 0-.196-1.041 1.64 1.64 0 0 0-.61-.762q-.42-.292-1.098-.292h-1.961V27h-.724v-9.242h2.685q.85 0 1.435.349.59.349.888.971.305.622.305 1.441 0 .85-.298 1.466a2.1 2.1 0 0 1-.883.934q-.583.323-1.447.323m9.132-1.86v2q0 .92-.21 1.625a3.2 3.2 0 0 1-.59 1.168 2.5 2.5 0 0 1-.933.717q-.552.24-1.244.241-.686 0-1.238-.24a2.6 2.6 0 0 1-.94-.718 3.3 3.3 0 0 1-.609-1.168q-.21-.705-.21-1.625v-2q0-.915.21-1.618t.597-1.175q.394-.47.94-.71.552-.248 1.237-.248.693 0 1.244.247.553.242.946.711.395.47.597 1.175.203.705.203 1.618m-.717 2V21.37q0-.762-.153-1.327a2.7 2.7 0 0 0-.431-.952 1.8 1.8 0 0 0-.711-.572 2.4 2.4 0 0 0-.978-.19q-.533 0-.958.19-.42.192-.711.572a2.8 2.8 0 0 0-.438.952 5.1 5.1 0 0 0-.153 1.327v2.012q0 .767.153 1.34.152.564.444.951.299.381.718.572.425.19.958.19.552 0 .971-.19.425-.19.711-.572.285-.387.432-.952a5.5 5.5 0 0 0 .146-1.34m1.686-5.624h.724v2.564q0 .8.209 1.276.216.477.628.686.42.21 1.035.21.305 0 .603-.033a6.4 6.4 0 0 0 1.155-.228q.286-.083.565-.184v.685q-.266.096-.533.178-.267.075-.552.14a6 6 0 0 1-1.238.12q-.819 0-1.403-.279-.578-.28-.888-.908-.305-.628-.305-1.663zm4.697 0h.717V27h-.717zm2.778 7.865 4.31-7.865h.718V27h-.718v-7.877L106.369 27h-.723v-9.242h.723zm8.821-7.865V27h-.717v-9.242zm2.634 0v.679h-5.973v-.68zm2.683.558L117.848 27h-.749l2.938-9.242h.515zM122.9 27l-2.666-8.684-.031-.558h.507L123.649 27zm-.419-3.263v.68h-4.164v-.68zm2.397 1.886 4.311-7.865h.717V27h-.717v-7.877L124.878 27h-.723v-9.242h.723zm3.377-10.138h.648q0 .483-.222.85a1.5 1.5 0 0 1-.629.579q-.406.21-.977.209-.858 0-1.352-.457-.489-.457-.489-1.18h.654q0 .437.266.761.267.318.921.317.634 0 .907-.323.273-.324.273-.756m5.635 2.273V27h-.717v-9.242zm2.634 0v.679h-5.973v-.68zm5.431 8.563V27h-4.316v-.68zm-4.119-8.563V27h-.724v-9.242zm3.58 4.139v.679h-3.777v-.68zm.508-4.14v.68h-4.285v-.68zM1.847 40.624l4.31-7.865h.718V42h-.718v-7.877L1.847 42h-.723v-9.242h.723zm11.55-3.726v.679H8.784v-.68zm-4.462-4.14V42h-.723v-9.242zm5.066 0V42h-.73v-9.242zm6.104 6.361h.73q-.064 1.035-.42 1.701a2.3 2.3 0 0 1-.977.99q-.615.324-1.479.324a2.7 2.7 0 0 1-1.2-.26 2.6 2.6 0 0 1-.914-.749 3.6 3.6 0 0 1-.577-1.2 6 6 0 0 1-.197-1.587v-1.98q0-.87.197-1.555.203-.693.584-1.175a2.55 2.55 0 0 1 .933-.742 2.9 2.9 0 0 1 1.225-.254q.838 0 1.447.317.615.318.965.984.349.667.413 1.72h-.73q-.057-.85-.305-1.364-.241-.514-.685-.743-.445-.235-1.105-.235-.532 0-.946.21-.405.203-.692.596a2.8 2.8 0 0 0-.425.952 5 5 0 0 0-.146 1.276v1.993q0 .704.133 1.283a3.2 3.2 0 0 0 .407.983q.273.414.672.635.407.216.946.216.686 0 1.13-.216.45-.216.698-.723.255-.515.318-1.397m4.092-6.36V42h-.717v-9.242zm2.634 0v.679h-5.973v-.68zm3.273 5.484h-2.19v-.679h2.19q.68 0 1.098-.267.42-.273.61-.73.195-.463.196-1.034a2.7 2.7 0 0 0-.196-1.041 1.64 1.64 0 0 0-.61-.762q-.418-.292-1.098-.292h-1.961V42h-.724v-9.242h2.685q.85 0 1.435.349.59.349.888.971.305.622.305 1.441 0 .85-.298 1.466a2.1 2.1 0 0 1-.883.934q-.583.323-1.447.323m5.901.654 2.24-6.138h.852l-2.927 7.655q-.113.273-.254.578a2.6 2.6 0 0 1-.355.558q-.21.261-.52.426-.312.158-.756.158a2 2 0 0 1-.286-.025 1 1 0 0 1-.222-.044l.05-.654q.071.019.217.031.152.013.241.013a.86.86 0 0 0 .552-.171q.222-.178.368-.457.153-.28.273-.59zm-2.317-6.138 2.527 6.087.21.711-.623.134-2.939-6.932zm6.784 0V42h-.73v-9.242zm4.843 0-3.428 4.913H40.18l-.077-.686h1.352l2.952-4.227zM44.648 42l-3.205-4.424.412-.692L45.543 42zm7.888-.692-.057 2.92h-.66V42h-.768v-.692zM46.024 42v-9.242h.73v8.563h4.284v-8.563h.73V42zm7.944-1.377 4.31-7.865h.718V42h-.717v-7.877L53.969 42h-.724v-9.242h.724zm7.21-7.865V42h-.73v-9.242zm1.853 4.24v.66h-1.936v-.66zm5.548-.616v2q0 .92-.21 1.625a3.2 3.2 0 0 1-.59 1.168 2.56 2.56 0 0 1-.94.717q-.552.24-1.244.241-.68 0-1.231-.24a2.6 2.6 0 0 1-.946-.718 3.3 3.3 0 0 1-.61-1.168q-.21-.705-.209-1.625v-2q0-.915.21-1.618t.596-1.175q.394-.47.946-.71a3 3 0 0 1 1.231-.248q.699 0 1.251.247.552.242.94.711.386.47.596 1.175t.21 1.618m-.724 2V36.37q0-.762-.152-1.327a2.7 2.7 0 0 0-.432-.952 1.8 1.8 0 0 0-.711-.572 2.4 2.4 0 0 0-.978-.19q-.539 0-.964.19-.42.191-.705.572t-.438.952a5.1 5.1 0 0 0-.152 1.327v2.012q0 .767.146 1.34.152.564.45.951.299.381.718.572t.958.19q.552 0 .971-.19.425-.19.711-.572.286-.387.432-.952.146-.57.146-1.34m1.553 3.148q0-.222.14-.38a.5.5 0 0 1 .393-.16q.255 0 .4.16a.54.54 0 0 1 .146.38.52.52 0 0 1-.146.375.53.53 0 0 1-.4.152q-.254 0-.394-.152a.53.53 0 0 1-.14-.375"/></svg>