<svg xmlns="http://www.w3.org/2000/svg" fill="none" viewBox="0 0 750 200"><g fill="#fff"><path d="M623.308 115.802c1.19-1.156 2.89-1.768 5.066-1.768h.306c2.108 0 3.604.612 4.522 1.768.816 1.088 1.224 2.924 1.224 5.576v2.55c0 1.428-.136 2.618-.34 3.502-.238.884-.646 1.632-1.224 2.21-1.156 1.122-2.72 1.666-4.76 1.666h-.374q-1.938 0-3.162-.714v5.236c0 .51-.102.85-.272.986-.204.136-.578.204-1.156.204h-2.584c-.578 0-.952-.068-1.156-.238-.204-.136-.272-.476-.272-.952v-20.4c0-.408.068-.68.272-.85.17-.136.476-.238.918-.238h1.428c.408 0 .714.068.884.136.136.102.272.306.374.578l.238.748zm1.258 4.828v4.352c0 .782.136 1.326.476 1.632.306.306.816.442 1.53.442h.306c.782 0 1.326-.204 1.666-.68q.408-.612.408-2.958v-1.462c0-1.632-.136-2.652-.408-3.026-.34-.408-.884-.612-1.7-.612h-.238c-.748 0-1.258.17-1.598.51-.306.306-.442.918-.442 1.802m17.073-4.454h.102c.748-1.224 2.006-1.836 3.808-1.836h1.36c.34 0 .612.068.748.204s.238.374.238.748v2.482c0 .374-.068.612-.204.748q-.204.204-.714.204h-1.02c-1.258 0-2.108.238-2.584.714-.408.408-.578 1.19-.578 2.346v8.228c0 .34-.102.612-.272.748-.17.17-.476.238-.884.238h-3.128c-.442 0-.748-.068-.918-.238-.17-.136-.238-.408-.238-.748v-14.722c0-.34.068-.578.238-.714s.476-.238.918-.238h1.632c.374 0 .646.068.816.17q.255.204.408.612zm13.064 5.168v2.652c0 1.326.204 2.176.612 2.584.306.34.782.476 1.428.476h.136c.612 0 1.088-.136 1.428-.476.408-.408.612-1.258.612-2.584v-2.652c0-1.292-.204-2.176-.612-2.584-.34-.306-.816-.476-1.428-.476h-.136c-.646 0-1.122.17-1.428.476-.408.408-.612 1.292-.612 2.584m9.69.204v2.21c0 1.7-.17 2.992-.51 3.944s-.884 1.7-1.632 2.278c-1.122.884-2.856 1.326-5.236 1.326h-.408c-2.38 0-4.148-.442-5.236-1.326-.748-.578-1.292-1.326-1.632-2.278s-.51-2.244-.51-3.944v-2.176c0-1.666.17-2.958.51-3.91s.884-1.7 1.632-2.312c1.088-.884 2.856-1.326 5.236-1.326h.408c2.38 0 4.114.442 5.236 1.326a5.23 5.23 0 0 1 1.632 2.278c.34.952.51 2.244.51 3.91m11.615-6.392h2.924c.476 0 .816.068.986.204s.306.408.374.816c0 .136.612 3.162 1.802 9.044h.102c.612-3.57 1.156-6.868 1.598-9.928.034-.374.136-.612.272-.748q.204-.204.714-.204h3.468c.374 0 .612.102.748.238.102.17.136.442.068.782-.544 2.652-1.224 5.576-1.972 8.772s-1.292 5.202-1.632 6.052c-.136.34-.306.578-.476.68s-.442.136-.782.136h-3.74c-.714 0-1.156-.238-1.292-.782-.646-2.312-1.19-5.236-1.666-8.772h-.136a93 93 0 0 1-1.7 8.772c-.136.544-.544.782-1.224.782h-3.672c-.68 0-1.122-.238-1.292-.748-.34-.918-.918-3.026-1.734-6.29a158 158 0 0 1-1.904-8.602c-.102-.374-.068-.646.068-.782s.408-.238.816-.238h3.332c.34 0 .612.068.782.204.136.136.238.408.306.748.476 3.162 1.02 6.46 1.666 9.928h.136c.816-4.216 1.394-7.242 1.666-9.044.068-.442.17-.714.34-.85.17-.102.51-.17 1.054-.17m20.578.17v14.688c0 .34-.102.612-.272.748-.17.17-.476.238-.884.238h-3.128c-.442 0-.748-.068-.918-.238-.17-.136-.238-.408-.238-.748v-14.688c0-.34.068-.578.238-.748.17-.136.476-.238.918-.238h3.128c.408 0 .714.102.884.238.17.17.272.408.272.748m-2.516-2.278h-.408c-1.836 0-2.754-.918-2.754-2.822v-.17c0-1.87.918-2.822 2.754-2.822h.408c1.836 0 2.754.952 2.754 2.822v.17c0 1.904-.918 2.822-2.754 2.822m11.581 5.61h-5.406c-.34 0-.578-.034-.714-.17s-.17-.408-.17-.816v-2.346c0-.408.034-.646.17-.782q.204-.204.714-.204h11.492c.34 0 .578.068.748.204.136.136.238.408.238.782v.646c0 .884-.272 1.7-.748 2.414l-5.848 8.296h5.814c.34 0 .544.068.68.204s.204.374.204.782v2.346q0 .612-.204.816c-.136.136-.34.17-.68.17h-11.696c-.714 0-1.054-.306-1.054-.986v-.782c0-.884.238-1.666.748-2.414zm8.854 18.394h-1.972c-.34 0-.612-.068-.748-.238-.136-.136-.204-.442-.204-.85v-2.38c0-.34.068-.612.204-.748s.408-.238.748-.238h.85c.612 0 1.088-.136 1.394-.476.272-.272.408-.986.408-2.108v-14.688c0-.34.068-.578.238-.748.17-.136.476-.238.918-.238h3.128c.408 0 .714.102.884.238.17.17.272.408.272.748v15.062c0 2.448-.442 4.148-1.326 5.134q-1.377 1.53-4.794 1.53m3.604-24.004h-.408c-1.836 0-2.754-.918-2.754-2.822v-.17c0-1.87.918-2.822 2.754-2.822h.408c1.836 0 2.754.952 2.754 2.822v.17c0 1.904-.918 2.822-2.754 2.822m11.547 2.278v14.688c0 .34-.102.612-.272.748-.17.17-.476.238-.884.238h-3.128c-.442 0-.748-.068-.918-.238-.17-.136-.238-.408-.238-.748v-14.688c0-.34.068-.578.238-.748.17-.136.476-.238.918-.238h3.128c.408 0 .714.102.884.238.17.17.272.408.272.748m-2.516-2.278h-.408c-1.836 0-2.754-.918-2.754-2.822v-.17c0-1.87.918-2.822 2.754-2.822h.408c1.836 0 2.754.952 2.754 2.822v.17c0 1.904-.918 2.822-2.754 2.822"/><path d="M548.446 107.512v5.568c0 6.016-1.28 10.624-3.776 13.76-2.56 3.2-6.784 4.736-12.672 4.736s-10.113-1.536-12.672-4.736c-2.56-3.136-3.777-7.744-3.777-13.76v-5.568c0-6.016 1.217-10.56 3.777-13.76 2.559-3.136 6.784-4.736 12.672-4.736s10.112 1.6 12.672 4.736c2.496 3.2 3.776 7.744 3.776 13.76m-10.944 4.48V108.6c0-4.16-.384-7.04-1.024-8.576s-2.112-2.368-4.352-2.368h-.256c-2.304.064-3.776.832-4.416 2.368s-.96 4.416-.96 8.576v3.392c0 4.224.32 7.04.96 8.576s2.112 2.368 4.416 2.368h.256c2.24 0 3.712-.768 4.352-2.304s1.024-4.416 1.024-8.64m36.933-11.52v.64c0 4.224-1.088 7.232-3.136 9.152-1.921 1.536-4.416 2.304-7.36 2.304-3.328 0-5.824-.832-7.552-2.496-1.92-1.792-2.88-4.608-2.88-8.32v-1.92c0-3.712.96-6.464 2.88-8.32 1.728-1.664 4.224-2.496 7.552-2.496 2.944 0 5.439.768 7.36 2.304 2.048 1.92 3.136 4.992 3.136 9.152m-10.88 28.8 23.616-38.912c.32-.512.704-.896 1.088-1.088.384-.128.96-.256 1.792-.256h4.672c1.984 0 2.56.768 1.664 2.304l-23.616 38.912c-.384.576-.704.96-1.088 1.088-.384.192-1.024.256-1.792.256h-4.672c-2.048 0-2.56-.768-1.664-2.304m-1.408-30.208v3.456c0 1.344.128 2.24.448 2.688.256.448.704.64 1.28.64h.128c.512 0 .96-.192 1.28-.64.256-.448.448-1.344.448-2.688v-3.456c0-1.28-.192-2.176-.448-2.624-.32-.448-.768-.704-1.28-.704h-.128c-.576 0-1.024.256-1.28.704-.32.448-.448 1.344-.448 2.624m44.928 20.416v.64c0 4.224-1.088 7.232-3.136 9.152-1.92 1.536-4.416 2.304-7.36 2.304-3.328 0-5.824-.832-7.552-2.496-1.92-1.792-2.88-4.544-2.88-8.32v-1.92c0-3.712.96-6.528 2.88-8.32 1.728-1.664 4.224-2.496 7.552-2.496 2.944 0 5.44.768 7.36 2.304 2.048 1.92 3.136 4.992 3.136 9.152m-12.288-1.408v3.456c0 1.344.128 2.24.448 2.688.256.448.704.64 1.28.64h.128c.512 0 .96-.192 1.28-.64.256-.448.448-1.344.448-2.688v-3.456c0-1.28-.192-2.176-.448-2.624-.32-.448-.768-.704-1.28-.704h-.128c-.576 0-1.024.256-1.28.704-.32.448-.448 1.344-.448 2.624"/><path d="M49.456 85.977h-.208c-.724 3.553-1.621 7.348-2.656 11.385q-.31 1.138-1.966 1.138H41.52c-.621 0-1.07-.069-1.346-.242-.276-.137-.448-.413-.552-.828a237 237 0 0 1-4.312-20.354c-.07-.311 0-.552.138-.69q.207-.207.931-.207h3.415c.414 0 .76.069.966.172.207.138.311.38.38.725 1.173 7.9 1.967 12.972 2.312 15.214h.137c.276-1.311.725-3.588 1.415-6.9.69-3.278 1.173-5.589 1.483-6.969.104-.587.587-.897 1.45-.897h2.828c.828 0 1.312.31 1.45.897.276 1.38.758 3.691 1.448 6.969.69 3.312 1.173 5.589 1.45 6.9h.138c.172-1.173.517-3.416 1.034-6.797.483-3.346.932-6.14 1.277-8.417.034-.345.172-.587.38-.725.207-.103.517-.172.965-.172h3.416c.449 0 .759.069.897.206.138.138.207.38.173.69-1.415 7.797-2.864 14.56-4.313 20.355-.138.414-.31.69-.587.828-.276.173-.69.242-1.31.242h-3.105q-1.657 0-1.967-1.138c-1.07-4.037-1.967-7.832-2.657-11.385m23.377 8.383h.38c1.173 0 2.415-.138 3.657-.448.345-.07.552-.104.655-.104.345 0 .552.207.621.586l.276 1.725c.07.484.138.794.138.932 0 .414-.31.724-.897.931-1.587.552-3.346.829-5.21.829h-.655q-4.243 0-6.003-1.76a4.95 4.95 0 0 1-1.38-2.346c-.241-.897-.345-2.105-.345-3.588v-1.932c0-3.002.69-5.106 2.07-6.348 1.173-1.035 2.967-1.553 5.417-1.553h.483c2.415 0 4.174.587 5.21 1.725 1.103 1.242 1.655 3.278 1.655 6.176v1.794c0 .656-.345.966-1 .966h-8.28v.276c0 .828.207 1.38.69 1.69.448.311 1.276.449 2.518.449m-3.208-6.003h3.795c.276 0 .414-.138.414-.448v-.553c0-.69-.138-1.207-.345-1.587-.276-.413-.828-.62-1.587-.62h-.31c-.69 0-1.174.172-1.45.483q-.517.62-.517 1.862zm17.837-2.38h-5.485c-.345 0-.587-.035-.725-.173s-.172-.414-.172-.828v-2.38c0-.415.034-.656.172-.794q.207-.207.725-.207h11.66c.346 0 .587.069.76.207.138.138.241.414.241.793v.656c0 .897-.276 1.725-.759 2.45l-5.934 8.418h5.9c.345 0 .552.069.69.207s.207.379.207.793v2.38q0 .622-.207.829c-.138.138-.345.172-.69.172H81.977c-.725 0-1.07-.31-1.07-1v-.794c0-.897.242-1.69.76-2.45zm-2.656-8.936 5.416-4.623c.207-.207.449-.31.656-.31.241 0 .483.172.69.448l1.656 2.139c.138.207.207.38.207.587 0 .276-.207.552-.552.828l-5.451 3.725c-.276.173-.483.242-.69.242-.276 0-.552-.138-.828-.483l-1.035-1.207c-.276-.311-.38-.587-.38-.794s.104-.414.31-.552m28.573 5.382h2.967c.483 0 .828.069 1 .207s.311.414.38.828c0 .138.621 3.209 1.828 9.177h.104c.621-3.623 1.173-6.969 1.621-10.074.035-.38.138-.621.276-.759q.207-.207.725-.207h3.519c.379 0 .621.103.759.242.103.172.138.448.069.793-.552 2.691-1.242 5.658-2.001 8.901s-1.311 5.278-1.656 6.141c-.138.345-.311.587-.483.69-.173.104-.449.138-.794.138h-3.795c-.724 0-1.173-.242-1.311-.793-.655-2.346-1.207-5.313-1.69-8.901h-.138a95 95 0 0 1-1.725 8.9c-.138.552-.552.794-1.242.794h-3.726c-.69 0-1.139-.242-1.311-.759-.345-.931-.932-3.07-1.76-6.382a160 160 0 0 1-1.932-8.729c-.103-.38-.069-.655.069-.793.138-.139.414-.242.828-.242h3.381c.345 0 .621.069.794.207.138.138.241.414.31.759a292 292 0 0 0 1.691 10.074h.138c.828-4.278 1.414-7.349 1.69-9.177.069-.448.173-.724.345-.862.173-.104.518-.173 1.07-.173m32.741 14.662h-.069c-.759 1.174-2.277 1.726-4.52 1.726h-.517c-1.76 0-3.14-.449-4.106-1.346-1-.897-1.483-2.243-1.483-3.968v-.379c0-1.863.517-3.209 1.587-3.968s2.794-1.138 5.209-1.138h.242c.897 0 1.725.069 2.415.138v-.725c0-.724-.207-1.242-.587-1.517-.414-.242-1.104-.38-2.07-.38-1.173 0-2.484.207-4.002.587-.414.103-.724.103-.862 0-.173-.104-.276-.311-.311-.656l-.276-1.829c-.069-.31-.069-.551-.069-.69 0-.413.276-.724.828-.897 1.76-.483 3.726-.759 5.9-.759 2.656 0 4.554.587 5.658 1.691.862.897 1.311 2.346 1.311 4.313v10.246c0 .345-.104.621-.276.759s-.483.207-.897.207h-1.622c-.414 0-.69-.034-.862-.138-.173-.103-.311-.31-.414-.655zm-1.242-4.415v-.966q-.57-.105-1.656-.104h-.38q-1.242 0-1.759.31c-.345.208-.483.621-.483 1.243v.137c0 .621.138 1.035.483 1.242.31.242.793.346 1.449.346h.241c.69 0 1.208-.173 1.622-.518.31-.276.483-.862.483-1.69m13.034-9.591c1.208-1.173 2.933-1.794 5.141-1.794h.31c2.139 0 3.657.62 4.589 1.794.828 1.104 1.242 2.967 1.242 5.658v2.587c0 1.449-.138 2.657-.345 3.553-.242.898-.656 1.657-1.242 2.243-1.173 1.138-2.76 1.69-4.83 1.69h-.38q-1.966 0-3.208-.724v5.313c0 .518-.104.863-.276 1.001-.207.138-.587.207-1.173.207h-2.622c-.587 0-.966-.069-1.173-.242-.207-.138-.276-.483-.276-.966v-20.7c0-.414.069-.69.276-.862.172-.139.483-.242.931-.242h1.449c.414 0 .725.069.897.138.138.103.276.31.38.587l.241.759zm1.277 4.899v4.416c0 .793.138 1.345.483 1.655.31.311.828.449 1.552.449h.311c.793 0 1.345-.207 1.69-.69q.414-.621.414-3.002v-1.483c0-1.656-.138-2.691-.414-3.07-.345-.415-.897-.621-1.725-.621h-.241c-.759 0-1.277.172-1.622.517-.31.31-.448.931-.448 1.829m19.152 6.037h1.104c.345 0 .621.103.759.242.138.172.241.483.241.931v2.139c0 .483-.103.794-.241.931-.138.173-.414.242-.759.242h-2.622c-1.725 0-2.933-.31-3.623-1-.69-.656-1.035-1.829-1.035-3.485V76.144c0-.345.069-.587.242-.759.172-.138.483-.242.931-.242h3.174c.414 0 .725.104.897.242.173.172.276.414.276.759v17.215c0 .276.035.449.138.518.069.104.242.138.518.138m9.959-11.42V97.5c0 .346-.104.622-.276.76-.173.172-.483.241-.897.241h-3.174c-.449 0-.759-.069-.932-.242-.172-.137-.241-.413-.241-.758V82.596c0-.346.069-.587.241-.76.173-.138.483-.241.932-.241h3.174c.414 0 .724.103.897.242.172.172.276.413.276.758m-2.553-2.311h-.414c-1.863 0-2.795-.931-2.795-2.864v-.172c0-1.898.932-2.864 2.795-2.864h.414c1.863 0 2.794.966 2.794 2.864v.172c0 1.933-.931 2.864-2.794 2.864m11.648 11.523v5.692c0 .346-.104.622-.276.76-.173.172-.483.241-.897.241h-3.174c-.449 0-.759-.069-.932-.242-.172-.137-.241-.413-.241-.758V76.143c0-.345.069-.587.241-.759.173-.138.483-.242.932-.242h3.174c.414 0 .724.104.897.242.172.172.276.414.276.759v11.247h.241l3.278-5.003c.31-.517.793-.793 1.449-.793h4.002c.379 0 .586.138.586.414 0 .138-.103.38-.276.656l-3.967 5.933c-.311.484-.449.829-.449 1.035 0 .242.138.587.449 1.035l4.243 6.694c.138.276.207.448.207.586 0 .38-.241.552-.724.552h-3.83c-.483 0-.862-.034-1.069-.172q-.31-.156-.621-.725l-3.278-5.796zm21.498 5.278h-.069c-.759 1.174-2.277 1.726-4.519 1.726h-.518c-1.759 0-3.139-.449-4.105-1.346-1.001-.897-1.484-2.243-1.484-3.968v-.379c0-1.863.518-3.209 1.587-3.968 1.07-.759 2.795-1.138 5.21-1.138h.241c.897 0 1.725.069 2.415.138v-.725c0-.724-.207-1.242-.586-1.517-.414-.242-1.104-.38-2.07-.38-1.173 0-2.484.207-4.002.587-.414.103-.725.103-.863 0-.172-.104-.276-.311-.31-.656l-.276-1.829c-.069-.31-.069-.551-.069-.69 0-.413.276-.724.828-.897 1.759-.483 3.726-.759 5.899-.759 2.657 0 4.554.587 5.658 1.691.863.897 1.311 2.346 1.311 4.313v10.246c0 .345-.103.621-.276.759-.172.138-.483.207-.897.207h-1.621c-.414 0-.69-.034-.863-.138-.172-.103-.31-.31-.414-.655zm-1.242-4.415v-.966q-.569-.105-1.656-.104h-.379q-1.242 0-1.76.31c-.345.208-.483.621-.483 1.243v.137c0 .621.138 1.035.483 1.242.311.242.794.346 1.449.346h.242c.69 0 1.207-.173 1.621-.518.311-.276.483-.862.483-1.69m16.726 1.69h.276c.932 0 1.932-.138 3.002-.448.345-.07.552-.104.655-.104.345 0 .552.207.621.586l.311 1.76c.069.483.138.794.138.931 0 .415-.311.725-.897.932-1.518.552-3.174.794-4.968.794h-.414c-2.484 0-4.313-.553-5.451-1.726q-1.76-1.758-1.76-5.899v-2.001c0-1.621.138-2.898.414-3.795q.414-1.346 1.346-2.277c1.207-1.207 3.105-1.829 5.692-1.829h.345c2.07 0 3.864.38 5.313 1.139.414.242.656.517.656.862 0 .208-.104.553-.276 1.035l-.656 1.657q-.258.62-.724.62c-.138 0-.345-.034-.621-.172-1.104-.448-2.139-.69-3.071-.69h-.138c-.897 0-1.552.242-1.966.656-.518.517-.759 1.587-.759 3.173v1.174c0 1.414.207 2.38.69 2.897.448.483 1.207.725 2.242.725m7.111 10.281h-2.001c-.345 0-.621-.069-.759-.241-.138-.138-.207-.449-.207-.863v-2.415c0-.345.069-.621.207-.759s.414-.241.759-.241h.862c.621 0 1.104-.138 1.415-.484.276-.276.414-1 .414-2.139V82.596c0-.346.069-.587.241-.76.173-.138.483-.241.932-.241h3.174c.414 0 .724.103.897.242.172.172.276.413.276.758V97.88c0 2.484-.449 4.209-1.346 5.21q-1.397 1.552-4.864 1.552m3.657-24.357h-.414c-1.863 0-2.795-.931-2.795-2.864v-.172c0-1.898.932-2.864 2.795-2.864h.414c1.863 0 2.794.966 2.794 2.864v.172c0 1.933-.931 2.864-2.794 2.864m11.717 2.311V97.5c0 .346-.104.622-.276.76-.173.172-.483.241-.897.241h-3.174c-.449 0-.759-.069-.932-.242-.172-.137-.241-.413-.241-.758V82.596c0-.346.069-.587.241-.76.173-.138.483-.241.932-.241h3.174c.414 0 .724.103.897.242.172.172.276.413.276.758m-2.553-2.311h-.414c-1.863 0-2.795-.931-2.795-2.864v-.172c0-1.898.932-2.864 2.795-2.864h.414c1.863 0 2.794.966 2.794 2.864v.172c0 1.933-.931 2.864-2.794 2.864m-212.03 45.693v4.416c0 .794.138 1.346.483 1.656.276.311.794.449 1.553.449h.31c.794 0 1.346-.207 1.691-.69q.414-.621.414-3.002v-1.483c0-1.725-.172-2.795-.448-3.14-.311-.345-.897-.552-1.725-.552h-.139c-.793 0-1.345.173-1.69.518-.31.31-.449.931-.449 1.828m0-5.761h.07q1.5-.932 3.933-.932h.31c2.07 0 3.588.621 4.52 1.863.758 1.07 1.172 2.967 1.172 5.693v2.484c0 2.76-.586 4.692-1.759 5.761-1.242 1.173-3.209 1.726-5.9 1.726h-.69c-2.829 0-4.76-.553-5.796-1.691-.931-1.001-1.38-2.622-1.38-4.899v-16.077c0-.345.07-.587.242-.759.138-.138.449-.242.897-.242h3.208c.414 0 .725.104.898.242.172.172.276.414.276.759zm21.188 12.144h.38a15 15 0 0 0 3.657-.449c.345-.069.552-.103.655-.103.345 0 .552.207.621.586l.276 1.725c.07.483.138.794.138.932 0 .414-.31.724-.897.931-1.587.553-3.346.829-5.21.829h-.655q-4.243 0-6.003-1.76a4.95 4.95 0 0 1-1.38-2.346c-.241-.897-.345-2.105-.345-3.588v-1.932c0-3.002.69-5.106 2.07-6.348 1.173-1.035 2.967-1.553 5.417-1.553h.483c2.415 0 4.174.587 5.21 1.725 1.103 1.242 1.655 3.278 1.655 6.176v1.794c0 .655-.345.966-1 .966h-8.28v.276c0 .828.207 1.38.69 1.69.448.311 1.276.449 2.518.449m-3.208-6.003h3.795c.276 0 .414-.138.414-.449v-.552c0-.69-.138-1.207-.345-1.587-.276-.414-.828-.621-1.587-.621h-.31c-.69 0-1.174.173-1.45.483q-.517.621-.517 1.863zm17.837-2.381H72.61c-.345 0-.586-.034-.724-.172s-.173-.414-.173-.828v-2.381c0-.414.035-.655.173-.793q.207-.207.724-.207h11.661c.345 0 .587.069.76.207.137.138.24.414.24.793v.656c0 .897-.275 1.725-.758 2.449l-5.934 8.418h5.9c.344 0 .551.07.69.207.137.138.206.38.206.794v2.38q0 .621-.207.828c-.138.138-.345.173-.69.173H72.61c-.724 0-1.07-.311-1.07-1.001v-.793c0-.897.242-1.691.76-2.45zm22.708 0h-5.486c-.345 0-.586-.034-.724-.172s-.173-.414-.173-.828v-2.381c0-.414.035-.655.173-.793q.207-.207.724-.207h11.661c.345 0 .587.069.759.207.138.138.242.414.242.793v.656c0 .897-.276 1.725-.759 2.449l-5.934 8.418h5.899c.345 0 .552.07.69.207.138.138.207.38.207.794v2.38q0 .621-.207.828c-.138.138-.345.173-.69.173H95.318c-.724 0-1.07-.311-1.07-1.001v-.793c0-.897.242-1.691.76-2.45zm19.575 11.109h-.069c-.759 1.173-2.277 1.726-4.519 1.726h-.518c-1.759 0-3.139-.449-4.105-1.346-1.001-.897-1.484-2.243-1.484-3.968v-.379c0-1.863.518-3.209 1.587-3.968 1.07-.759 2.795-1.138 5.21-1.138h.241c.897 0 1.725.069 2.415.138v-.725c0-.724-.207-1.242-.586-1.518-.414-.241-1.104-.379-2.07-.379-1.173 0-2.484.207-4.002.586-.414.104-.725.104-.863 0-.172-.103-.276-.31-.31-.655l-.276-1.829c-.069-.31-.069-.552-.069-.69 0-.414.276-.724.828-.897 1.759-.483 3.726-.759 5.899-.759 2.657 0 4.554.587 5.658 1.691.863.897 1.311 2.346 1.311 4.312v10.247c0 .345-.103.621-.276.759-.172.138-.483.207-.897.207h-1.621c-.414 0-.69-.035-.863-.138-.172-.104-.31-.311-.414-.656zm-1.242-4.416v-.966q-.569-.103-1.656-.103h-.379q-1.242 0-1.76.31c-.345.207-.483.621-.483 1.242v.138c0 .621.138 1.035.483 1.242.311.242.794.345 1.449.345h.242c.69 0 1.207-.172 1.621-.517.311-.276.483-.863.483-1.691m14.311-.862v5.692c0 .345-.103.621-.276.759-.172.173-.483.242-.897.242h-3.174c-.448 0-.759-.069-.931-.242-.173-.138-.242-.414-.242-.759v-21.355c0-.345.069-.587.242-.759.172-.138.483-.242.931-.242h3.174c.414 0 .725.104.897.242.173.172.276.414.276.759v11.247h.242l3.277-5.003c.311-.517.794-.793 1.449-.793h4.002c.38 0 .587.138.587.414 0 .138-.104.379-.276.655l-3.968 5.934c-.31.483-.448.828-.448 1.036 0 .241.138.586.448 1.034l4.244 6.694c.138.275.207.448.207.586 0 .379-.242.552-.725.552h-3.829c-.483 0-.863-.035-1.07-.173q-.31-.155-.621-.724l-3.277-5.796zm18.704 2.208h1.104c.345 0 .621.103.759.241.138.173.242.483.242.932v2.139c0 .483-.104.793-.242.931-.138.173-.414.242-.759.242h-2.622c-1.725 0-2.932-.311-3.622-1.001-.69-.655-1.035-1.828-1.035-3.484v-3.726l-1.139.724c-.448.276-.759.414-.897.414-.276 0-.379-.207-.379-.621v-3.208c0-.345.034-.587.172-.759.104-.138.311-.345.656-.587l1.587-1v-9.108c0-.345.069-.587.241-.759.173-.138.483-.242.932-.242h3.174c.414 0 .724.104.897.242.172.172.276.414.276.759v5.589l1.552-1.001c.414-.276.725-.414.897-.414.242 0 .38.207.38.621v3.209c0 .345-.069.621-.173.759a2.9 2.9 0 0 1-.655.586l-2.001 1.277v6.589c0 .276.034.449.138.518.069.103.241.138.517.138m14.351 3.07h-.069c-.759 1.173-2.277 1.726-4.52 1.726h-.517c-1.76 0-3.14-.449-4.106-1.346-1-.897-1.483-2.243-1.483-3.968v-.379c0-1.863.517-3.209 1.587-3.968s2.794-1.138 5.209-1.138h.242c.897 0 1.725.069 2.415.138v-.725c0-.724-.207-1.242-.587-1.518-.414-.241-1.104-.379-2.07-.379-1.173 0-2.484.207-4.002.586-.414.104-.724.104-.862 0-.173-.103-.276-.31-.311-.655l-.276-1.829c-.069-.31-.069-.552-.069-.69 0-.414.276-.724.828-.897 1.76-.483 3.726-.759 5.9-.759 2.656 0 4.554.587 5.658 1.691.862.897 1.311 2.346 1.311 4.312v10.247c0 .345-.104.621-.276.759s-.483.207-.897.207h-1.622c-.414 0-.69-.035-.862-.138s-.311-.311-.414-.656zm-1.242-4.416v-.966q-.57-.103-1.656-.103h-.38q-1.242 0-1.759.31c-.345.207-.483.621-.483 1.242v.138c0 .621.138 1.035.483 1.242.31.242.793.345 1.449.345h.241c.69 0 1.208-.172 1.622-.517.31-.276.483-.863.483-1.691m18.244-.276v-4.381c0-.863-.138-1.484-.414-1.829-.311-.345-.863-.552-1.622-.552h-.345c-.759 0-1.276.207-1.587.587-.345.379-.483 1.449-.483 3.243v1.518c0 1.656.173 2.691.518 3.036.276.345.793.483 1.587.483h.379c.656 0 1.139-.138 1.484-.449.31-.31.483-.862.483-1.656m-.069-10.488h.069v-5.761c0-.345.069-.587.241-.759.173-.138.483-.242.932-.242h3.208c.414 0 .725.104.897.242.138.172.242.414.242.759v15.697c0 2.415-.449 4.071-1.346 5.037-.655.69-1.449 1.208-2.38 1.484-.966.311-2.243.449-3.864.449h-.587c-2.553 0-4.381-.518-5.554-1.553-1.208-1.035-1.794-2.967-1.794-5.831v-2.76c0-2.76.552-4.692 1.725-5.796 1.104-1.035 2.622-1.587 4.588-1.587h.414q1.967 0 3.209.621m18.847 15.18h-.069c-.759 1.173-2.277 1.726-4.519 1.726h-.518c-1.759 0-3.139-.449-4.105-1.346-1.001-.897-1.484-2.243-1.484-3.968v-.379c0-1.863.518-3.209 1.587-3.968 1.07-.759 2.795-1.138 5.21-1.138h.241c.897 0 1.725.069 2.415.138v-.725c0-.724-.207-1.242-.586-1.518-.414-.241-1.104-.379-2.07-.379-1.173 0-2.484.207-4.002.586-.414.104-.725.104-.863 0-.172-.103-.276-.31-.31-.655l-.276-1.829c-.069-.31-.069-.552-.069-.69 0-.414.276-.724.828-.897 1.759-.483 3.726-.759 5.899-.759 2.657 0 4.554.587 5.658 1.691.863.897 1.311 2.346 1.311 4.312v10.247c0 .345-.103.621-.276.759-.172.138-.483.207-.897.207h-1.621c-.414 0-.69-.035-.863-.138-.172-.104-.31-.311-.414-.656zm-1.242-4.416v-.966q-.569-.103-1.656-.103h-.379q-1.242 0-1.76.31c-.345.207-.483.621-.483 1.242v.138c0 .621.138 1.035.483 1.242.311.242.794.345 1.449.345h.242c.69 0 1.207-.172 1.621-.517.311-.276.483-.863.483-1.691m17.899-11.385h.276c2.001 0 3.485.483 4.382 1.415.828.897 1.276 2.415 1.276 4.554v10.246c0 .345-.103.621-.276.759-.172.173-.483.242-.897.242h-3.174c-.448 0-.759-.069-.931-.242-.173-.138-.242-.414-.242-.759v-9.763c0-.759-.138-1.311-.379-1.587-.276-.276-.794-.449-1.518-.449h-.207c-.759 0-1.242.173-1.518.449s-.38.828-.38 1.587v9.763c0 .345-.103.621-.276.759-.172.173-.483.242-.897.242h-3.174c-.448 0-.759-.069-.931-.242-.173-.138-.242-.414-.242-.759v-14.938c0-.345.069-.587.242-.725.172-.138.483-.241.931-.241h1.622c.414 0 .69.069.862.172q.26.156.414.621l.207.656h.104c1.104-1.173 2.656-1.76 4.726-1.76m14.809 1.311v14.904c0 .345-.103.621-.276.759-.172.173-.483.242-.897.242h-3.174c-.448 0-.759-.069-.931-.242-.173-.138-.242-.414-.242-.759v-14.904c0-.345.069-.586.242-.759.172-.138.483-.241.931-.241h3.174c.414 0 .725.103.897.241.173.173.276.414.276.759m-2.553-2.311h-.414c-1.863 0-2.794-.932-2.794-2.864v-.172c0-1.898.931-2.864 2.794-2.864h.414c1.863 0 2.795.966 2.795 2.864v.172c0 1.932-.932 2.864-2.795 2.864m16.099 16.801h-.069c-.759 1.173-2.277 1.726-4.52 1.726h-.517c-1.76 0-3.14-.449-4.106-1.346-1-.897-1.483-2.243-1.483-3.968v-.379c0-1.863.517-3.209 1.587-3.968s2.794-1.138 5.209-1.138h.242c.897 0 1.725.069 2.415.138v-.725c0-.724-.207-1.242-.587-1.518-.414-.241-1.104-.379-2.07-.379-1.173 0-2.484.207-4.002.586-.414.104-.724.104-.862 0-.173-.103-.276-.31-.311-.655l-.276-1.829c-.069-.31-.069-.552-.069-.69 0-.414.276-.724.828-.897 1.76-.483 3.726-.759 5.9-.759 2.656 0 4.554.587 5.658 1.691.862.897 1.311 2.346 1.311 4.312v10.247c0 .345-.104.621-.276.759s-.483.207-.897.207h-1.622c-.414 0-.69-.035-.862-.138s-.311-.311-.414-.656zm-1.242-4.416v-.966q-.57-.103-1.656-.103h-.38q-1.242 0-1.759.31c-.345.207-.483.621-.483 1.242v.138c0 .621.138 1.035.483 1.242.31.242.793.345 1.449.345h.241c.69 0 1.208-.172 1.622-.517.31-.276.483-.863.483-1.691m21.79-.862v5.692c0 .345-.103.621-.276.759-.172.173-.483.242-.897.242h-3.174c-.448 0-.759-.069-.931-.242-.173-.138-.242-.414-.242-.759v-21.355c0-.345.069-.587.242-.759.172-.138.483-.242.931-.242h3.174c.414 0 .725.104.897.242.173.172.276.414.276.759v11.247h.242l3.277-5.003c.311-.517.794-.793 1.449-.793h4.002c.38 0 .587.138.587.414 0 .138-.104.379-.276.655l-3.968 5.934c-.31.483-.448.828-.448 1.036 0 .241.138.586.448 1.034l4.244 6.694c.138.275.207.448.207.586 0 .379-.242.552-.725.552h-3.829c-.483 0-.863-.035-1.07-.173q-.31-.155-.621-.724l-3.277-5.796zm16.261-3.105v2.691c0 1.345.207 2.208.621 2.622.311.345.794.483 1.449.483h.138c.621 0 1.104-.138 1.449-.483.414-.414.621-1.277.621-2.622v-2.691c0-1.311-.207-2.208-.621-2.622-.345-.311-.828-.483-1.449-.483h-.138c-.655 0-1.138.172-1.449.483-.414.414-.621 1.311-.621 2.622m9.833.207v2.242c0 1.725-.173 3.037-.518 4.002-.345.966-.897 1.725-1.656 2.312-1.138.897-2.898 1.346-5.313 1.346h-.414c-2.415 0-4.209-.449-5.313-1.346-.759-.587-1.311-1.346-1.656-2.312s-.517-2.277-.517-4.002v-2.208c0-1.69.172-3.001.517-3.967a5.2 5.2 0 0 1 1.656-2.346c1.104-.897 2.898-1.346 5.313-1.346h.414c2.415 0 4.175.449 5.313 1.346a5.3 5.3 0 0 1 1.656 2.311c.345.966.518 2.277.518 3.968m12.062-7.625h.276c2.001 0 3.484.483 4.381 1.415.828.897 1.277 2.415 1.277 4.554v10.246c0 .345-.104.621-.276.759-.173.173-.483.242-.897.242h-3.174c-.449 0-.759-.069-.932-.242-.172-.138-.241-.414-.241-.759v-9.763c0-.759-.138-1.311-.38-1.587-.276-.276-.793-.449-1.518-.449h-.207c-.759 0-1.242.173-1.518.449s-.379.828-.379 1.587v9.763c0 .345-.104.621-.276.759-.173.173-.483.242-.897.242h-3.174c-.449 0-.759-.069-.932-.242-.172-.138-.241-.414-.241-.759v-14.938c0-.345.069-.587.241-.725.173-.138.483-.241.932-.241h1.621c.414 0 .69.069.863.172q.258.156.414.621l.207.656h.103c1.104-1.173 2.657-1.76 4.727-1.76m20.018 13.973v1.966c0 .518-.103.863-.241 1.035-.138.173-.449.242-.863.242h-2.76c-2.484 0-4.14-.414-4.899-1.277-.69-.724-1-2.104-1-4.174v-7.142h-1.863c-.345 0-.552-.034-.69-.172s-.173-.345-.173-.69v-1.76c0-.414.035-.69.173-.828.103-.138.345-.241.724-.345l1.829-.448v-3.381c0-.345.069-.587.241-.759.173-.138.483-.242.932-.242h3.174c.414 0 .724.104.897.242.172.172.276.414.276.759v3.312h2.863c.345 0 .552.069.69.207s.207.379.207.793v2.312q0 .621-.207.828c-.138.138-.345.172-.69.172h-2.863v6.521c0 .621.069 1.001.276 1.207.207.242.655.345 1.345.345h1.518c.414 0 .725.104.863.276s.241.518.241 1.001m12.582 1.828h-.069c-.759 1.173-2.277 1.726-4.52 1.726h-.517c-1.76 0-3.14-.449-4.106-1.346-1-.897-1.483-2.243-1.483-3.968v-.379c0-1.863.517-3.209 1.587-3.968s2.794-1.138 5.209-1.138h.242c.897 0 1.725.069 2.415.138v-.725c0-.724-.207-1.242-.587-1.518-.414-.241-1.104-.379-2.07-.379-1.173 0-2.484.207-4.002.586-.414.104-.724.104-.862 0-.173-.103-.276-.31-.311-.655l-.276-1.829c-.069-.31-.069-.552-.069-.69 0-.414.276-.724.828-.897 1.76-.483 3.726-.759 5.9-.759 2.656 0 4.554.587 5.658 1.691.862.897 1.311 2.346 1.311 4.312v10.247c0 .345-.104.621-.276.759s-.483.207-.897.207h-1.622c-.414 0-.69-.035-.862-.138s-.311-.311-.414-.656zm-1.242-4.416v-.966q-.57-.103-1.656-.103h-.38q-1.242 0-1.759.31c-.345.207-.483.621-.483 1.242v.138c0 .621.138 1.035.483 1.242.31.242.793.345 1.449.345h.241c.69 0 1.208-.172 1.622-.517.31-.276.483-.863.483-1.691"/></g></svg>