<svg xmlns="http://www.w3.org/2000/svg" fill="none" viewBox="0 0 205 18"><path fill="#007990" d="m6.63 13.58-3.3-4.635H3.3v4.545c0 .21-.045.36-.105.42-.075.06-.21.09-.42.09h-1.26c-.21 0-.36-.03-.435-.105-.09-.06-.12-.195-.12-.405v-8.7c0-.195.03-.33.105-.39s.21-.105.42-.105h.66c.45 0 .765.15.96.42l3.3 4.92h.03v-4.83c0-.195.03-.33.12-.405.075-.06.225-.105.435-.105h1.26c.21 0 .345.045.42.105.06.06.105.195.105.405v8.7c0 .21-.045.345-.12.405q-.113.09-.405.09h-.66c-.45 0-.765-.135-.96-.42m6.051-3.84v1.17c0 .585.09.96.27 1.14.135.15.345.21.63.21h.06c.27 0 .48-.06.63-.21.18-.18.27-.555.27-1.14V9.74c0-.57-.09-.96-.27-1.14-.15-.135-.36-.21-.63-.21h-.06c-.285 0-.495.075-.63.21-.18.18-.27.57-.27 1.14m4.275.09v.975c0 .75-.075 1.32-.225 1.74s-.39.75-.72 1.005c-.495.39-1.26.585-2.31.585h-.18c-1.05 0-1.83-.195-2.31-.585a2.15 2.15 0 0 1-.72-1.005c-.15-.42-.225-.99-.225-1.74v-.96c0-.735.075-1.305.225-1.725s.39-.75.72-1.02c.48-.39 1.26-.585 2.31-.585h.18c1.05 0 1.815.195 2.31.585.33.27.57.6.72 1.005.15.42.225.99.225 1.725m5.125-2.82h1.29c.21 0 .36.03.435.09s.135.18.165.36c0 .06.27 1.395.795 3.99h.045c.27-1.575.51-3.03.705-4.38.015-.165.06-.27.12-.33q.09-.09.315-.09h1.53c.165 0 .27.045.33.105.045.075.06.195.03.345-.24 1.17-.54 2.46-.87 3.87s-.57 2.295-.72 2.67c-.06.15-.135.255-.21.3s-.195.06-.345.06h-1.65c-.315 0-.51-.105-.57-.345-.285-1.02-.525-2.31-.735-3.87h-.06c-.195 1.35-.45 2.64-.75 3.87-.06.24-.24.345-.54.345h-1.62c-.3 0-.495-.105-.57-.33-.15-.405-.405-1.335-.765-2.775s-.63-2.7-.84-3.795c-.045-.165-.03-.285.03-.345s.18-.105.36-.105h1.47c.15 0 .27.03.345.09.06.06.105.18.135.33.21 1.395.45 2.85.735 4.38h.06c.36-1.86.615-3.195.735-3.99.03-.195.075-.315.15-.375.075-.045.225-.075.465-.075m10.866 6.375h-.03c-.33.51-.99.75-1.965.75h-.225c-.765 0-1.365-.195-1.785-.585-.435-.39-.645-.975-.645-1.725v-.165c0-.81.225-1.395.69-1.725s1.215-.495 2.265-.495h.105c.39 0 .75.03 1.05.06v-.315c0-.315-.09-.54-.255-.66-.18-.105-.48-.165-.9-.165-.51 0-1.08.09-1.74.255-.18.045-.315.045-.375 0-.075-.045-.12-.135-.135-.285l-.12-.795c-.03-.135-.03-.24-.03-.3 0-.18.12-.315.36-.39.765-.21 1.62-.33 2.565-.33 1.155 0 1.98.255 2.46.735.375.39.57 1.02.57 1.875v4.455c0 .15-.045.27-.12.33s-.21.09-.39.09h-.705c-.18 0-.3-.015-.375-.06s-.135-.135-.18-.285zm-.54-1.92v-.42a4.3 4.3 0 0 0-.72-.045h-.165q-.54 0-.765.135c-.15.09-.21.27-.21.54v.06c0 .27.06.45.21.54.135.105.345.15.63.15h.105c.3 0 .525-.075.705-.225.135-.12.21-.375.21-.735m9.474-2.04v1.92c0 .345.06.585.21.72.12.135.345.195.675.195h.135c.345 0 .585-.09.735-.3q.18-.27.18-1.305v-.645c0-.75-.075-1.215-.195-1.365-.135-.15-.39-.24-.75-.24h-.06c-.345 0-.585.075-.735.225-.135.135-.195.405-.195.795m0-2.505h.03q.653-.405 1.71-.405h.135c.9 0 1.56.27 1.965.81.33.465.51 1.29.51 2.475v1.08c0 1.2-.255 2.04-.765 2.505-.54.51-1.395.75-2.565.75h-.3c-1.23 0-2.07-.24-2.52-.735-.405-.435-.6-1.14-.6-2.13V4.28c0-.15.03-.255.105-.33.06-.06.195-.105.39-.105h1.395c.18 0 .315.045.39.105.075.075.12.18.12.33zm9.977 6.465h-.03c-.33.51-.99.75-1.965.75h-.225c-.765 0-1.365-.195-1.785-.585-.435-.39-.645-.975-.645-1.725v-.165c0-.81.225-1.395.69-1.725s1.215-.495 2.265-.495h.105c.39 0 .75.03 1.05.06v-.315c0-.315-.09-.54-.255-.66-.18-.105-.48-.165-.9-.165-.51 0-1.08.09-1.74.255-.18.045-.315.045-.375 0-.075-.045-.12-.135-.135-.285l-.12-.795c-.03-.135-.03-.24-.03-.3 0-.18.12-.315.36-.39.765-.21 1.62-.33 2.565-.33 1.155 0 1.98.255 2.46.735.375.39.57 1.02.57 1.875v4.455c0 .15-.045.27-.12.33s-.21.09-.39.09h-.705c-.18 0-.3-.015-.375-.06s-.135-.135-.18-.285zm-.54-1.92v-.42a4.3 4.3 0 0 0-.72-.045h-.165q-.54 0-.765.135c-.15.09-.21.27-.21.54v.06c0 .27.06.45.21.54.135.105.345.15.63.15h.105c.3 0 .525-.075.705-.225.135-.12.21-.375.21-.735m7.782-4.95h.12c.87 0 1.515.21 1.905.615.36.39.555 1.05.555 1.98v4.455c0 .15-.045.27-.12.33-.075.075-.21.105-.39.105h-1.38c-.195 0-.33-.03-.405-.105-.075-.06-.105-.18-.105-.33V9.32c0-.33-.06-.57-.165-.69-.12-.12-.345-.195-.66-.195h-.09c-.33 0-.54.075-.66.195s-.165.36-.165.69v4.245c0 .15-.045.27-.12.33-.075.075-.21.105-.39.105h-1.38c-.195 0-.33-.03-.405-.105-.075-.06-.105-.18-.105-.33V7.07c0-.15.03-.255.105-.315s.21-.105.405-.105h.705c.18 0 .3.03.375.075q.112.067.18.27l.09.285h.045c.48-.51 1.155-.765 2.055-.765m6.409 4.575v2.475c0 .15-.045.27-.12.33-.075.075-.21.105-.39.105h-1.38c-.195 0-.33-.03-.405-.105-.075-.06-.105-.18-.105-.33V4.28c0-.15.03-.255.105-.33.075-.06.21-.105.405-.105h1.38c.18 0 .315.045.39.105.075.075.12.18.12.33v4.89h.105l1.425-2.175a.69.69 0 0 1 .63-.345h1.74c.165 0 .255.06.255.18 0 .06-.045.165-.12.285l-1.725 2.58c-.135.21-.195.36-.195.45 0 .105.06.255.195.45l1.845 2.91c.06.12.09.195.09.255 0 .165-.105.24-.315.24h-1.665c-.21 0-.375-.015-.465-.075q-.135-.067-.27-.315l-1.425-2.52zm7.07-1.35v1.17c0 .585.09.96.27 1.14.135.15.345.21.63.21h.06c.27 0 .48-.06.63-.21.18-.18.27-.555.27-1.14V9.74c0-.57-.09-.96-.27-1.14-.15-.135-.36-.21-.63-.21h-.06c-.285 0-.495.075-.63.21-.18.18-.27.57-.27 1.14m4.275.09v.975c0 .75-.075 1.32-.225 1.74s-.39.75-.72 1.005c-.495.39-1.26.585-2.31.585h-.18c-1.05 0-1.83-.195-2.31-.585a2.15 2.15 0 0 1-.72-1.005c-.15-.42-.225-.99-.225-1.74v-.96c0-.735.075-1.305.225-1.725s.39-.75.72-1.02c.48-.39 1.26-.585 2.31-.585h.18c1.05 0 1.815.195 2.31.585.33.27.57.6.72 1.005.15.42.225.99.225 1.725m5.124-2.82h1.29c.21 0 .36.03.435.09s.135.18.165.36c0 .06.27 1.395.795 3.99h.045c.27-1.575.51-3.03.705-4.38.015-.165.06-.27.12-.33q.09-.09.315-.09h1.53c.165 0 .27.045.33.105.045.075.06.195.03.345-.24 1.17-.54 2.46-.87 3.87s-.57 2.295-.72 2.67c-.06.15-.135.255-.21.3s-.195.06-.345.06h-1.65c-.315 0-.51-.105-.57-.345-.285-1.02-.525-2.31-.735-3.87h-.06c-.195 1.35-.45 2.64-.75 3.87-.06.24-.24.345-.54.345h-1.62c-.3 0-.495-.105-.57-.33-.15-.405-.405-1.335-.765-2.775s-.63-2.7-.84-3.795c-.045-.165-.03-.285.03-.345s.18-.105.36-.105h1.47c.15 0 .27.03.345.09.06.06.105.18.135.33.21 1.395.45 2.85.735 4.38h.06c.36-1.86.615-3.195.735-3.99.03-.195.075-.315.15-.375.075-.045.225-.075.465-.075m8.823 2.73v1.17c0 .585.09.96.27 1.14.135.15.345.21.63.21h.06c.27 0 .48-.06.63-.21.18-.18.27-.555.27-1.14V9.74c0-.57-.09-.96-.27-1.14-.15-.135-.36-.21-.63-.21h-.06c-.285 0-.495.075-.63.21-.18.18-.27.57-.27 1.14m4.275.09v.975c0 .75-.075 1.32-.225 1.74s-.39.75-.72 1.005c-.495.39-1.26.585-2.31.585h-.18c-1.05 0-1.83-.195-2.31-.585a2.15 2.15 0 0 1-.72-1.005c-.15-.42-.225-.99-.225-1.74v-.96c0-.735.075-1.305.225-1.725s.39-.75.72-1.02c.48-.39 1.26-.585 2.31-.585h.18c1.05 0 1.815.195 2.31.585.33.27.57.6.72 1.005.15.42.225.99.225 1.725m1.09-.765V8.87c0-.735.195-1.29.585-1.68.45-.45 1.215-.675 2.28-.675h.15c.84 0 1.575.09 2.19.27q.18.068.225.135c.03.06.045.135.03.255l-.165 1.23c-.03.195-.165.255-.405.195-.6-.135-1.14-.21-1.59-.21h-.015c-.33 0-.57.03-.69.09-.135.06-.195.165-.195.315v.045c0 .15.045.255.165.315s.345.135.69.195l.705.15c.645.15 1.11.375 1.38.675s.405.765.405 1.38v.225c0 1.575-.99 2.355-2.94 2.355h-.15c-.99 0-1.815-.135-2.505-.405-.135-.045-.225-.105-.255-.18-.03-.06-.03-.18 0-.345l.21-.99c.045-.285.21-.375.51-.285.69.24 1.29.345 1.8.345h.045c.33 0 .555-.03.69-.105.12-.06.195-.18.195-.345v-.045c0-.12-.06-.225-.165-.285q-.18-.09-.72-.225l-.66-.15q-.99-.225-1.395-.675c-.27-.3-.405-.75-.405-1.38M97.56 4.67l2.355-2.01a.42.42 0 0 1 .285-.135c.105 0 .21.075.3.195l.72.93c.06.09.09.165.09.255 0 .12-.09.24-.24.36l-2.37 1.62a.56.56 0 0 1-.3.105c-.12 0-.24-.06-.36-.21l-.45-.525c-.12-.135-.165-.255-.165-.345s.045-.18.135-.24m9.047 7.53h.12c.405 0 .84-.06 1.305-.195.15-.03.24-.045.285-.045.15 0 .24.09.27.255l.135.765c.03.21.06.345.06.405 0 .18-.135.315-.39.405-.66.24-1.38.345-2.16.345h-.18c-1.08 0-1.875-.24-2.37-.75q-.765-.765-.765-2.565v-.87c0-.705.06-1.26.18-1.65q.18-.585.585-.99c.525-.525 1.35-.795 2.475-.795h.15c.9 0 1.68.165 2.31.495.18.105.285.225.285.375 0 .09-.045.24-.12.45l-.285.72q-.112.27-.315.27a.6.6 0 0 1-.27-.075c-.48-.195-.93-.3-1.335-.3h-.06c-.39 0-.675.105-.855.285-.225.225-.33.69-.33 1.38v.51c0 .615.09 1.035.3 1.26.195.21.525.315.975.315m-1.845-7.53 2.355-2.01a.42.42 0 0 1 .285-.135c.105 0 .21.075.3.195l.72.93c.06.09.09.165.09.255 0 .12-.09.24-.24.36l-2.37 1.62a.52.52 0 0 1-.3.105c-.12 0-.24-.06-.36-.21l-.45-.525c-.12-.135-.165-.255-.165-.345s.045-.18.135-.24m10.903 3.885h-2.385c-.15 0-.255-.015-.315-.075s-.075-.18-.075-.36V7.085c0-.18.015-.285.075-.345q.09-.09.315-.09h5.07c.15 0 .255.03.33.09.06.06.105.18.105.345v.285c0 .39-.12.75-.33 1.065l-2.58 3.66h2.565c.15 0 .24.03.3.09s.09.165.09.345v1.035q0 .27-.09.36c-.06.06-.15.075-.3.075h-5.16c-.315 0-.465-.135-.465-.435v-.345c0-.39.105-.735.33-1.065zm8.511 4.83h-.03c-.33.51-.99.75-1.965.75h-.225c-.765 0-1.365-.195-1.785-.585-.435-.39-.645-.975-.645-1.725v-.165c0-.81.225-1.395.69-1.725s1.215-.495 2.265-.495h.105c.39 0 .75.03 1.05.06v-.315c0-.315-.09-.54-.255-.66-.18-.105-.48-.165-.9-.165-.51 0-1.08.09-1.74.255-.18.045-.315.045-.375 0-.075-.045-.12-.135-.135-.285l-.12-.795c-.03-.135-.03-.24-.03-.3 0-.18.12-.315.36-.39.765-.21 1.62-.33 2.565-.33 1.155 0 1.98.255 2.46.735.375.39.57 1.02.57 1.875v4.455c0 .15-.045.27-.12.33s-.21.09-.39.09h-.705c-.18 0-.3-.015-.375-.06s-.135-.135-.18-.285zm-.54-1.92v-.42a4.3 4.3 0 0 0-.72-.045h-.165q-.54 0-.765.135c-.15.09-.21.27-.21.54v.06c0 .27.06.45.21.54.135.105.345.15.63.15h.105c.3 0 .525-.075.705-.225.135-.12.21-.375.21-.735m7.272.735h.12c.405 0 .84-.06 1.305-.195.15-.03.24-.045.285-.045.15 0 .24.09.27.255l.135.765c.03.21.06.345.06.405 0 .18-.135.315-.39.405-.66.24-1.38.345-2.16.345h-.18c-1.08 0-1.875-.24-2.37-.75q-.765-.765-.765-2.565v-.87c0-.705.06-1.26.18-1.65q.18-.585.585-.99c.525-.525 1.35-.795 2.475-.795h.15c.9 0 1.68.165 2.31.495.18.105.285.225.285.375 0 .09-.045.24-.12.45l-.285.72q-.113.27-.315.27a.6.6 0 0 1-.27-.075c-.48-.195-.93-.3-1.335-.3h-.06c-.39 0-.675.105-.855.285-.225.225-.33.69-.33 1.38v.51c0 .615.09 1.035.3 1.26.195.21.525.315.975.315m5.807-3.645h-2.385c-.15 0-.255-.015-.315-.075s-.075-.18-.075-.36V7.085c0-.18.015-.285.075-.345q.09-.09.315-.09h5.07c.15 0 .255.03.33.09.06.06.105.18.105.345v.285c0 .39-.12.75-.33 1.065l-2.58 3.66h2.565c.15 0 .24.03.3.09s.09.165.09.345v1.035q0 .27-.09.36c-.06.06-.15.075-.3.075h-5.16c-.315 0-.465-.135-.465-.435v-.345c0-.39.105-.735.33-1.065zM147.252 7.1c-.21 1.41-.6 2.97-1.17 4.695a32 32 0 0 1-2.115 4.89c-.105.21-.24.315-.42.315a.96.96 0 0 1-.435-.12l-.765-.33c-.27-.12-.39-.24-.39-.375 0-.06.015-.15.075-.255.51-1.035.81-1.635.87-1.8-.42-.15-.735-.48-.975-1.02-.27-.6-.585-1.515-.93-2.775q-.518-1.89-.765-3.24c-.03-.15-.015-.255.06-.33.075-.06.21-.105.39-.105h1.365c.165 0 .285.03.36.075s.135.135.165.285c.345 1.89.735 3.57 1.17 5.025h.075c.42-1.2.81-2.85 1.17-4.98q.023-.225.135-.315c.075-.06.195-.09.345-.09h1.38c.165 0 .285.045.345.105s.075.18.06.345m4.836-.585h.12c.87 0 1.515.21 1.905.615.36.39.555 1.05.555 1.98v4.455c0 .15-.045.27-.12.33-.075.075-.21.105-.39.105h-1.38c-.195 0-.33-.03-.405-.105-.075-.06-.105-.18-.105-.33V9.32c0-.33-.06-.57-.165-.69-.12-.12-.345-.195-.66-.195h-.09c-.33 0-.54.075-.66.195s-.165.36-.165.69v4.245c0 .15-.045.27-.12.33-.075.075-.21.105-.39.105h-1.38c-.195 0-.33-.03-.405-.105-.075-.06-.105-.18-.105-.33V7.07c0-.15.03-.255.105-.315s.21-.105.405-.105h.705c.18 0 .3.03.375.075q.112.067.18.27l.09.285h.045c.48-.51 1.155-.765 2.055-.765m8.344 6.87h-.03c-.33.51-.99.75-1.965.75h-.225c-.765 0-1.365-.195-1.785-.585-.435-.39-.645-.975-.645-1.725v-.165c0-.81.225-1.395.69-1.725s1.215-.495 2.265-.495h.105c.39 0 .75.03 1.05.06v-.315c0-.315-.09-.54-.255-.66-.18-.105-.48-.165-.9-.165-.51 0-1.08.09-1.74.255-.18.045-.315.045-.375 0-.075-.045-.12-.135-.135-.285l-.12-.795c-.03-.135-.03-.24-.03-.3 0-.18.12-.315.36-.39.765-.21 1.62-.33 2.565-.33 1.155 0 1.98.255 2.46.735.375.39.57 1.02.57 1.875v4.455c0 .15-.045.27-.12.33s-.21.09-.39.09h-.705c-.18 0-.3-.015-.375-.06s-.135-.135-.18-.285zm-.54-1.92v-.42a4.3 4.3 0 0 0-.72-.045h-.165q-.54 0-.765.135c-.15.09-.21.27-.21.54v.06c0 .27.06.45.21.54.135.105.345.15.63.15h.105c.3 0 .525-.075.705-.225.135-.12.21-.375.21-.735m6.879-2.4V8.87c0-.735.195-1.29.585-1.68.45-.45 1.215-.675 2.28-.675h.15c.84 0 1.575.09 2.19.27q.18.068.225.135c.03.06.045.135.03.255l-.165 1.23c-.03.195-.165.255-.405.195-.6-.135-1.14-.21-1.59-.21h-.015c-.33 0-.57.03-.69.09-.135.06-.195.165-.195.315v.045c0 .15.045.255.165.315s.345.135.69.195l.705.15c.645.15 1.11.375 1.38.675s.405.765.405 1.38v.225c0 1.575-.99 2.355-2.94 2.355h-.15c-.99 0-1.815-.135-2.505-.405-.135-.045-.225-.105-.255-.18-.03-.06-.03-.18 0-.345l.21-.99c.045-.285.21-.375.51-.285.69.24 1.29.345 1.8.345h.045c.33 0 .555-.03.69-.105.12-.06.195-.18.195-.345v-.045c0-.12-.06-.225-.165-.285q-.18-.09-.72-.225l-.66-.15q-.99-.225-1.395-.675c-.27-.3-.405-.75-.405-1.38m9.422-1.98v6.48c0 .15-.045.27-.12.33-.075.075-.21.105-.39.105h-1.38c-.195 0-.33-.03-.405-.105-.075-.06-.105-.18-.105-.33v-6.48c0-.15.03-.255.105-.33.075-.06.21-.105.405-.105h1.38c.18 0 .315.045.39.105.075.075.12.18.12.33m-1.11-1.005h-.18c-.81 0-1.215-.405-1.215-1.245V4.76c0-.825.405-1.245 1.215-1.245h.18c.81 0 1.215.42 1.215 1.245v.075c0 .84-.405 1.245-1.215 1.245m6.234 6.12h.165c.51 0 1.05-.06 1.59-.195.15-.03.24-.045.285-.045.15 0 .24.09.27.255l.12.75c.03.21.06.345.06.405 0 .18-.135.315-.39.405-.39.15-.705.39-.96.72s-.375.66-.375.96v.045c0 .285.135.42.405.42h.075c.165 0 .375-.03.615-.12.075-.015.135-.03.18-.03.075 0 .135.075.18.195l.075.315c.045.21.075.315.075.345 0 .09-.075.165-.21.225q-.585.225-1.215.225h-.09c-.525 0-.915-.105-1.185-.33s-.405-.54-.405-.96v-.045c0-.27.09-.57.285-.87s.45-.54.78-.75c-.12.015-.285.015-.495.015h-.285q-1.845 0-2.61-.765a2.15 2.15 0 0 1-.6-1.02c-.105-.39-.15-.915-.15-1.56v-.84c0-1.305.3-2.22.9-2.76.51-.45 1.29-.675 2.355-.675h.21c1.05 0 1.815.255 2.265.75.48.54.72 1.425.72 2.685v.78c0 .285-.15.42-.435.42h-3.6v.12c0 .36.09.6.3.735.195.135.555.195 1.095.195m-1.395-2.61h1.65c.12 0 .18-.06.18-.195v-.24c0-.3-.06-.525-.15-.69-.12-.18-.36-.27-.69-.27h-.135c-.3 0-.51.075-.63.21q-.225.27-.225.81zm13.258 3v.855c0 .225-.045.375-.105.45s-.195.105-.375.105h-1.2c-1.08 0-1.8-.18-2.13-.555-.3-.315-.435-.915-.435-1.815V8.525h-.81c-.15 0-.24-.015-.3-.075s-.075-.15-.075-.3v-.765c0-.18.015-.3.075-.36.045-.06.15-.105.315-.15l.795-.195V5.21c0-.15.03-.255.105-.33.075-.06.21-.105.405-.105h1.38c.18 0 .315.045.39.105.075.075.12.18.12.33v1.44h1.245c.15 0 .24.03.3.09s.09.165.09.345V8.09q0 .27-.09.36c-.06.06-.15.075-.3.075h-1.245v2.835c0 .27.03.435.12.525.09.105.285.15.585.15h.66c.18 0 .315.045.375.12s.105.225.105.435m5.08-1.275v-4.23c0-.15.03-.255.105-.33.075-.06.21-.105.405-.105h1.38c.18 0 .315.045.39.105.075.075.12.18.12.33v4.44q0 1.373-.675 1.98c-.48.42-1.32.63-2.55.63s-2.085-.21-2.55-.63q-.675-.607-.675-1.98v-4.44c0-.15.03-.255.105-.33.075-.06.21-.105.405-.105h1.38c.18 0 .315.045.39.105.075.075.12.18.12.33v4.23c0 .345.045.57.165.69.12.135.33.195.66.195.315 0 .54-.06.66-.195.105-.12.165-.345.165-.69m6.158 1.425v.15c0 .84-.405 1.245-1.2 1.245h-.165c-.81 0-1.2-.405-1.2-1.245v-.15c0-.435.09-.75.3-.93.195-.18.495-.285.9-.285h.165c.39 0 .69.105.9.285.195.18.3.495.3.93"/></svg>