<svg xmlns="http://www.w3.org/2000/svg" fill="none" viewBox="0 0 750 200"><path fill="#fff" d="M675.027 130.524v-16.996q0-.504.504-.588c1.12-.196 2.38-.308 3.836-.308 4.312 0 6.468 1.68 6.468 4.984v.588c0 1.232-.308 2.24-.896 3.052-.616.812-1.456 1.372-2.576 1.652l4.592 7.672c.168.28.084.42-.224.42h-1.456a.52.52 0 0 1-.476-.252l-4.34-7.504c-.224.028-.588.028-1.036.028-1.176 0-2.016 0-2.464-.028v7.28c0 .336-.168.476-.448.476h-1.008c-.336 0-.476-.14-.476-.476m1.932-15.708v6.832c.952.056 1.876.056 2.772.056 1.4 0 2.436-.28 3.08-.84s.98-1.512.98-2.828v-.364c0-1.26-.364-2.156-1.036-2.688-.672-.504-1.792-.784-3.36-.784-.896 0-1.568.056-2.016.112-.196.028-.308.084-.364.14s-.056.196-.056.364m12.615 15.708v-16.996q0-.504.504-.588c1.12-.196 2.38-.308 3.836-.308 4.312 0 6.468 1.68 6.468 4.984v.588c0 1.232-.308 2.24-.896 3.052-.616.812-1.456 1.372-2.576 1.652l4.592 7.672c.168.28.084.42-.224.42h-1.456a.52.52 0 0 1-.476-.252l-4.34-7.504c-.224.028-.588.028-1.036.028-1.176 0-2.016 0-2.464-.028v7.28c0 .336-.168.476-.448.476h-1.008c-.336 0-.476-.14-.476-.476m1.932-15.708v6.832c.952.056 1.876.056 2.772.056 1.4 0 2.436-.28 3.08-.84s.98-1.512.98-2.828v-.364c0-1.26-.364-2.156-1.036-2.688-.672-.504-1.792-.784-3.36-.784-.896 0-1.568.056-2.016.112-.196.028-.308.084-.364.14s-.056.196-.056.364m16.703 16.436c-1.736 0-3.276-.252-4.648-.812-.252-.084-.336-.252-.28-.476l.224-.924c.056-.28.252-.336.588-.224a9.7 9.7 0 0 0 4.06.868c1.288 0 2.268-.28 2.94-.868s1.008-1.428 1.008-2.548v-.308c0-1.008-.224-1.736-.616-2.184s-1.176-.84-2.352-1.12l-1.876-.448c-1.372-.336-2.38-.84-3.024-1.568-.644-.7-.952-1.68-.952-2.968v-.42c0-1.484.476-2.632 1.428-3.416s2.268-1.204 3.948-1.204c1.512 0 2.828.196 4.004.532.308.112.42.308.364.616l-.196.672q-.126.42-.672.252a12.2 12.2 0 0 0-3.444-.504c-2.324 0-3.472 1.036-3.472 3.08v.28c0 .952.224 1.624.672 2.044s1.204.756 2.268.98l1.764.42c1.512.364 2.576.896 3.192 1.568q.924 1.05.924 3.108v.448c0 1.708-.504 2.996-1.512 3.836-1.008.868-2.436 1.288-4.34 1.288m10.495-9.688v.756c0 3.08.42 5.096 1.26 6.076.728.868 1.848 1.288 3.332 1.288 1.624 0 2.772-.476 3.5-1.456.728-1.008 1.092-2.968 1.092-5.908v-.756c0-1.456-.084-2.66-.224-3.612s-.42-1.708-.868-2.324c-.728-.952-1.876-1.428-3.5-1.428q-2.394 0-3.444 1.428c-.784 1.008-1.148 2.996-1.148 5.936m11.228-.336v1.456c0 3.248-.588 5.488-1.708 6.776-1.064 1.204-2.688 1.792-4.928 1.792-2.1 0-3.668-.532-4.732-1.596-1.288-1.288-1.904-3.612-1.904-6.972v-1.456c0-3.248.588-5.544 1.764-6.86 1.036-1.148 2.66-1.736 4.872-1.736 2.184 0 3.808.588 4.872 1.736 1.176 1.316 1.764 3.612 1.764 6.86"/><path fill="#fff" d="M491.977 110.344h.512c2.048 0 3.776-.384 5.248-1.152v-.896c0-3.52-.384-5.888-1.088-7.104s-1.984-1.856-3.904-1.856h-.576q-4.8 0-4.8 5.184v.576c0 1.92.32 3.264 1.088 4.032.768.832 1.92 1.216 3.52 1.216m-11.584 21.376c-.768-.256-1.088-.704-1.088-1.472q0-.384.192-1.152l1.024-4.096c.256-1.024 1.024-1.408 2.176-1.088 3.072.96 5.76 1.408 8.063 1.408h.193c2.304 0 3.904-.576 4.928-1.856q1.536-1.824 1.728-5.76c-2.112.896-4.416 1.28-6.912 1.28h-.704c-4.544 0-7.808-1.088-9.856-3.392-2.048-2.24-3.008-5.696-3.008-10.304v-.896c0-4.096 1.216-7.36 3.712-9.792 2.496-2.368 6.144-3.584 10.944-3.584h.896c5.76 0 9.856 1.536 12.16 4.48s3.52 7.808 3.52 14.592v1.536c0 3.648-.32 6.784-.96 9.472s-1.472 4.864-2.496 6.4a11.6 11.6 0 0 1-3.904 3.776c-1.536.96-3.072 1.6-4.608 1.856-1.536.32-3.328.448-5.312.448h-.064c-3.712 0-7.297-.576-10.624-1.856m38.341-9.28h.896c1.92 0 3.264.512 4.096 1.408.832.96 1.28 2.368 1.28 4.288v.832c0 1.984-.64 4.416-1.792 7.36a28 28 0 0 1-5.056 8.064c-.384.512-.832.704-1.28.704-.256 0-.64-.064-1.024-.32l-3.2-1.92c-.768-.384-.832-1.024-.192-1.856.576-.768 1.408-1.984 2.56-3.712.768-1.152 1.152-1.984 1.152-2.624 0-.32-.192-.576-.513-.832l-.639-.448c-1.088-.768-1.6-2.112-1.6-4.032v-1.792c0-3.392 1.728-5.12 5.312-5.12m26.243-12.096h.512c2.048 0 3.776-.384 5.248-1.152v-.896c0-3.52-.384-5.888-1.088-7.104s-1.984-1.856-3.904-1.856h-.576q-4.8 0-4.8 5.184v.576c0 1.92.32 3.264 1.088 4.032.768.832 1.92 1.216 3.52 1.216m-11.584 21.376c-.768-.256-1.088-.704-1.088-1.472q0-.384.192-1.152l1.024-4.096c.256-1.024 1.024-1.408 2.176-1.088 3.072.96 5.76 1.408 8.063 1.408h.193c2.304 0 3.904-.576 4.928-1.856q1.536-1.824 1.728-5.76c-2.112.896-4.416 1.28-6.912 1.28h-.704c-4.544 0-7.808-1.088-9.856-3.392-2.048-2.24-3.008-5.696-3.008-10.304v-.896c0-4.096 1.216-7.36 3.712-9.792 2.496-2.368 6.144-3.584 10.944-3.584h.896c5.76 0 9.856 1.536 12.16 4.48s3.52 7.808 3.52 14.592v1.536c0 3.648-.32 6.784-.96 9.472s-1.472 4.864-2.496 6.4a11.6 11.6 0 0 1-3.904 3.776c-1.536.96-3.072 1.6-4.608 1.856-1.536.32-3.328.448-5.312.448h-.064c-3.712 0-7.297-.576-10.624-1.856m48.709-21.376h.512c2.048 0 3.776-.384 5.248-1.152v-.896c0-3.52-.384-5.888-1.088-7.104s-1.984-1.856-3.904-1.856h-.576q-4.8 0-4.8 5.184v.576c0 1.92.32 3.264 1.088 4.032.768.832 1.92 1.216 3.52 1.216m-11.584 21.376c-.768-.256-1.088-.704-1.088-1.472q0-.384.192-1.152l1.024-4.096c.256-1.024 1.024-1.408 2.176-1.088 3.072.96 5.76 1.408 8.063 1.408h.193c2.304 0 3.904-.576 4.928-1.856q1.536-1.824 1.728-5.76c-2.112.896-4.416 1.28-6.912 1.28h-.704c-4.544 0-7.808-1.088-9.856-3.392-2.048-2.24-3.008-5.696-3.008-10.304v-.896c0-4.096 1.216-7.36 3.712-9.792 2.496-2.368 6.144-3.584 10.944-3.584h.896c5.76 0 9.856 1.536 12.16 4.48s3.52 7.808 3.52 14.592v1.536c0 3.648-.32 6.784-.96 9.472s-1.472 4.864-2.496 6.4a11.6 11.6 0 0 1-3.904 3.776c-1.536.96-3.072 1.6-4.608 1.856-1.536.32-3.328.448-5.312.448h-.064c-3.712 0-7.297-.576-10.624-1.856m54.917-29.248v.64c0 4.224-1.088 7.232-3.136 9.152-1.921 1.536-4.416 2.304-7.36 2.304-3.328 0-5.824-.832-7.552-2.496-1.92-1.792-2.88-4.608-2.88-8.32v-1.92c0-3.712.96-6.464 2.88-8.32 1.728-1.664 4.224-2.496 7.552-2.496 2.944 0 5.439.768 7.36 2.304 2.048 1.92 3.136 4.992 3.136 9.152m-10.88 28.8 23.616-38.912c.32-.512.704-.896 1.088-1.088.384-.128.96-.256 1.792-.256h4.672c1.984 0 2.56.768 1.664 2.304l-23.616 38.912c-.384.576-.704.96-1.088 1.088-.384.192-1.024.256-1.792.256h-4.672c-2.048 0-2.56-.768-1.664-2.304m-1.408-30.208v3.456c0 1.344.128 2.24.448 2.688.256.448.704.64 1.28.64h.128c.512 0 .96-.192 1.28-.64.256-.448.448-1.344.448-2.688v-3.456c0-1.28-.192-2.176-.448-2.624-.32-.448-.768-.704-1.28-.704h-.128c-.576 0-1.024.256-1.28.704-.32.448-.448 1.344-.448 2.624m44.928 20.416v.64c0 4.224-1.088 7.232-3.136 9.152-1.92 1.536-4.416 2.304-7.36 2.304-3.328 0-5.824-.832-7.552-2.496-1.92-1.792-2.88-4.544-2.88-8.32v-1.92c0-3.712.96-6.528 2.88-8.32 1.728-1.664 4.224-2.496 7.552-2.496 2.944 0 5.44.768 7.36 2.304 2.048 1.92 3.136 4.992 3.136 9.152m-12.288-1.408v3.456c0 1.344.128 2.24.448 2.688.256.448.704.64 1.28.64h.128c.512 0 .96-.192 1.28-.64.256-.448.448-1.344.448-2.688v-3.456c0-1.28-.192-2.176-.448-2.624-.32-.448-.768-.704-1.28-.704h-.128c-.576 0-1.024.256-1.28.704-.32.448-.448 1.344-.448 2.624"/><path fill="#fff" d="M44.212 53.06h-.415c-2.414 0-4.519-.31-6.313-.966-.759-.241-1.104-.69-.966-1.38l.449-2.794c.069-.69.483-.931 1.207-.69 2.001.725 3.864 1.07 5.52 1.07h.172c1.035 0 1.794-.139 2.243-.449.414-.276.655-.794.655-1.518v-.345c0-.69-.207-1.139-.552-1.414-.379-.242-1.104-.483-2.173-.69l-2.346-.449c-1.932-.345-3.312-1.035-4.071-2.001-.794-.966-1.173-2.311-1.173-4.071v-.966c0-1.932.518-3.381 1.553-4.416 1.241-1.242 3.553-1.863 6.865-1.863h.242c2.311 0 4.277.31 5.865.897.345.138.586.345.69.552.069.241.069.587-.035 1l-.587 2.519c-.138.621-.586.828-1.276.587q-2.38-.725-4.554-.725h-.138c-1.139 0-1.932.138-2.346.38-.449.275-.656.724-.656 1.345v.31c0 .553.139.967.449 1.174.276.241.897.448 1.794.62l2.622.518c2.07.414 3.485 1.07 4.278 1.898.759.828 1.173 2.276 1.173 4.312v.828c0 2.346-.655 4.037-1.932 5.106-1.277 1.104-3.347 1.621-6.245 1.621m20.32-6.486v-9.728c0-.345.069-.587.241-.76.173-.137.483-.241.932-.241h3.174c.414 0 .724.104.897.242.172.172.276.413.276.758v10.212q0 3.157-1.553 4.554c-1.104.967-3.036 1.45-5.865 1.45s-4.795-.483-5.865-1.45q-1.552-1.397-1.552-4.553V36.846c0-.345.069-.587.241-.76.173-.137.483-.241.932-.241h3.174c.414 0 .724.104.897.242.172.172.276.413.276.758v9.73c0 .793.103 1.31.38 1.586.275.311.758.449 1.517.449.725 0 1.242-.138 1.518-.449.242-.276.38-.793.38-1.587m13.026-9.245c1.208-1.173 2.933-1.794 5.14-1.794h.311c2.14 0 3.657.62 4.589 1.794.828 1.103 1.242 2.966 1.242 5.657v2.588c0 1.449-.138 2.657-.345 3.553-.242.898-.656 1.656-1.242 2.243-1.173 1.139-2.76 1.69-4.83 1.69h-.38q-1.966 0-3.208-.724v5.313c0 .517-.104.862-.276 1-.207.139-.587.207-1.173.207h-2.622c-.587 0-.966-.069-1.173-.241-.207-.138-.276-.483-.276-.966v-20.7c0-.414.069-.69.276-.862.172-.139.483-.242.931-.242h1.45c.413 0 .724.069.896.138.138.104.276.31.38.587l.241.758zm1.277 4.898v4.417c0 .793.138 1.345.483 1.656.31.31.828.448 1.552.448h.31c.794 0 1.346-.207 1.691-.69q.414-.62.414-3.001v-1.484c0-1.656-.138-2.691-.414-3.07-.345-.414-.897-.621-1.725-.621h-.241c-.76 0-1.277.172-1.622.517-.31.31-.448.931-.448 1.828m21.187 6.383h.38c1.173 0 2.415-.138 3.657-.449.345-.069.552-.103.655-.103.345 0 .552.207.621.587l.276 1.724c.069.483.138.794.138.932 0 .414-.31.724-.897.931-1.587.553-3.346.828-5.21.828h-.655q-4.243 0-6.003-1.759a4.95 4.95 0 0 1-1.38-2.346c-.241-.897-.345-2.105-.345-3.588v-1.932c0-3.001.69-5.106 2.07-6.348 1.173-1.035 2.967-1.553 5.417-1.553h.483c2.415 0 4.174.587 5.209 1.726 1.104 1.242 1.656 3.277 1.656 6.175v1.794c0 .656-.345.966-1 .966h-8.28v.276c0 .828.207 1.38.69 1.69.448.311 1.276.449 2.518.449m-3.208-6.003h3.795c.276 0 .414-.138.414-.449v-.552c0-.69-.138-1.207-.345-1.587-.276-.413-.828-.62-1.587-.62h-.31c-.69 0-1.174.172-1.45.483q-.517.62-.517 1.863zm16.561-4.899h.103c.759-1.242 2.036-1.863 3.864-1.863h1.38c.345 0 .621.069.759.207s.242.38.242.759v2.519c0 .379-.069.62-.207.759q-.207.207-.725.206h-1.035c-1.276 0-2.139.242-2.622.725-.414.414-.586 1.207-.586 2.38v8.35c0 .344-.104.62-.276.758-.173.173-.483.242-.897.242h-3.174c-.449 0-.759-.069-.932-.242-.172-.138-.241-.414-.241-.759V36.811c0-.345.069-.587.241-.724.173-.139.483-.242.932-.242h1.656c.379 0 .655.069.828.172q.258.208.414.621zm7.939 3.692v-.449c0-1.69.449-2.967 1.346-3.864 1.035-1.035 2.794-1.553 5.244-1.553h.345c1.932 0 3.622.208 5.037.622q.414.154.517.31c.069.138.104.31.069.587l-.379 2.829c-.069.448-.38.586-.932.448-1.38-.31-2.622-.483-3.657-.483h-.034c-.759 0-1.311.069-1.587.207-.311.138-.449.38-.449.724v.104c0 .345.104.587.38.724.276.139.793.311 1.587.449l1.621.345c1.484.345 2.553.863 3.174 1.553s.932 1.759.932 3.173v.518c0 3.623-2.277 5.416-6.762 5.416h-.345c-2.277 0-4.175-.31-5.762-.931-.31-.103-.517-.241-.586-.414-.069-.138-.069-.414 0-.794l.483-2.276c.103-.656.483-.863 1.173-.656 1.587.552 2.967.794 4.14.794h.103c.759 0 1.277-.07 1.587-.242.276-.138.449-.414.449-.793v-.104a.74.74 0 0 0-.38-.655q-.414-.208-1.656-.518l-1.518-.345q-2.277-.517-3.208-1.552c-.621-.69-.932-1.725-.932-3.174m21.705-1.173h-5.485c-.345 0-.587-.035-.725-.173s-.172-.414-.172-.828v-2.38c0-.414.034-.656.172-.794q.207-.207.725-.207h11.661c.345 0 .586.069.759.207.138.138.241.414.241.794v.655c0 .897-.276 1.725-.759 2.45l-5.934 8.417h5.9c.345 0 .552.07.69.207.138.139.207.38.207.794v2.38q0 .621-.207.828c-.138.139-.345.173-.69.173h-11.868c-.725 0-1.07-.31-1.07-1v-.794a4.2 4.2 0 0 1 .759-2.45zm24.233-3.347c-.483 3.243-1.38 6.831-2.691 10.798-1.345 3.968-2.967 7.729-4.864 11.248-.242.482-.552.724-.966.724-.276 0-.587-.069-1.001-.276l-1.759-.759c-.621-.276-.897-.552-.897-.863 0-.138.034-.345.172-.586 1.173-2.38 1.863-3.76 2.001-4.14-.966-.345-1.69-1.104-2.242-2.346-.621-1.38-1.346-3.484-2.139-6.382q-1.19-4.347-1.76-7.453c-.069-.344-.034-.586.138-.758.173-.139.483-.242.897-.242h3.14c.379 0 .655.069.828.172.172.104.31.311.379.656.794 4.347 1.691 8.211 2.691 11.557h.173c.966-2.76 1.863-6.554 2.691-11.453q.051-.518.31-.725c.173-.138.449-.207.794-.207h3.174c.379 0 .655.104.793.242.138.137.173.413.138.793m7.536 5.347v4.417c0 .793.138 1.345.483 1.656.276.31.793.448 1.552.448h.311c.793 0 1.345-.207 1.69-.69q.414-.62.414-3.001v-1.484c0-1.725-.172-2.794-.448-3.14-.311-.344-.897-.551-1.725-.551h-.138c-.794 0-1.346.172-1.691.517-.31.31-.448.931-.448 1.828m0-5.761h.069q1.5-.931 3.933-.931h.31c2.07 0 3.588.62 4.52 1.863.759 1.069 1.173 2.966 1.173 5.692v2.484c0 2.76-.587 4.692-1.76 5.762-1.242 1.172-3.208 1.724-5.899 1.724h-.69c-2.829 0-4.761-.552-5.796-1.69-.932-1-1.38-2.622-1.38-4.899V30.394c0-.345.069-.586.241-.759.138-.138.449-.242.897-.242h3.209c.414 0 .724.104.897.242.172.172.276.414.276.759zm18.496 9.591v5.692c0 .345-.103.621-.276.76-.172.172-.483.241-.897.241h-3.174c-.448 0-.759-.069-.931-.242-.173-.138-.242-.414-.242-.759V30.394c0-.345.069-.586.242-.759.172-.138.483-.242.931-.242h3.174c.414 0 .725.104.897.242.173.172.276.414.276.759v11.247h.242l3.277-5.002c.311-.518.794-.794 1.449-.794h4.002c.38 0 .587.138.587.414 0 .138-.104.38-.276.655l-3.968 5.935c-.31.483-.448.828-.448 1.035 0 .241.138.586.448 1.035l4.244 6.693c.138.276.207.448.207.586 0 .38-.242.552-.725.552h-3.829c-.483 0-.863-.035-1.07-.172q-.31-.156-.621-.725l-3.277-5.796zm17.117-9.211V51.75c0 .344-.103.62-.276.758-.172.173-.483.242-.897.242h-3.174c-.448 0-.759-.069-.931-.242-.173-.138-.242-.414-.242-.759V36.846c0-.344.069-.586.242-.758.172-.139.483-.242.931-.242h3.174c.414 0 .725.104.897.242.173.172.276.413.276.758m-2.553-2.312h-.414c-1.863 0-2.794-.931-2.794-2.863v-.173c0-1.898.931-2.864 2.794-2.864h.414c1.863 0 2.795.966 2.795 2.864v.172c0 1.932-.932 2.864-2.795 2.864M42.279 84.057v5.692c0 .346-.103.622-.276.76-.172.172-.483.241-.897.241h-3.174c-.448 0-.759-.069-.931-.242-.172-.137-.241-.413-.241-.758V68.393c0-.345.069-.587.241-.759.172-.138.483-.242.931-.242h3.174c.414 0 .725.104.898.242.172.172.276.414.276.759v11.247h.241l3.277-5.003c.311-.517.794-.793 1.45-.793h4.002c.379 0 .586.138.586.414 0 .138-.103.38-.276.656l-3.968 5.933c-.31.484-.448.829-.448 1.035 0 .242.138.587.449 1.035l4.243 6.694c.138.276.207.448.207.586 0 .38-.242.552-.724.552h-3.83c-.483 0-.862-.034-1.07-.172q-.31-.156-.62-.725l-3.278-5.796zm15.875-8.349h.104c.759-1.242 2.035-1.863 3.864-1.863h1.38c.345 0 .62.069.759.207.138.138.241.38.241.759v2.518c0 .38-.069.622-.207.76q-.208.207-.724.207h-1.035c-1.277 0-2.14.241-2.622.724-.414.414-.587 1.208-.587 2.38v8.35c0 .344-.103.62-.276.758-.172.173-.483.242-.897.242H54.98c-.448 0-.759-.069-.931-.242-.173-.137-.242-.413-.242-.758V74.81c0-.345.07-.587.242-.725s.483-.241.931-.241h1.656c.38 0 .656.069.828.172q.259.209.414.621zM74.62 86.61h.38c1.172 0 2.414-.138 3.656-.448.345-.07.552-.104.656-.104.345 0 .552.207.62.586l.277 1.725c.069.484.138.794.138.932 0 .414-.31.724-.897.931-1.587.552-3.347.829-5.21.829h-.655q-4.244 0-6.003-1.76a4.95 4.95 0 0 1-1.38-2.346c-.242-.897-.345-2.105-.345-3.588v-1.932c0-3.002.69-5.106 2.07-6.348 1.173-1.035 2.967-1.553 5.416-1.553h.483c2.415 0 4.175.587 5.21 1.725 1.104 1.242 1.656 3.278 1.656 6.176v1.794c0 .656-.345.966-1 .966h-8.28v.276c0 .828.206 1.38.69 1.69.448.311 1.276.449 2.518.449m-3.209-6.003h3.795c.276 0 .414-.138.414-.448v-.553c0-.69-.138-1.207-.345-1.587-.276-.413-.828-.62-1.587-.62h-.31c-.69 0-1.173.172-1.45.483q-.516.62-.517 1.862zm21.667 4.037v-4.382c0-.862-.138-1.484-.414-1.829-.31-.345-.862-.552-1.621-.552h-.345c-.76 0-1.277.207-1.587.587-.345.38-.483 1.449-.483 3.243v1.518c0 1.656.172 2.691.517 3.036.276.345.794.483 1.587.483h.38c.655 0 1.138-.138 1.483-.449.31-.31.483-.862.483-1.656m-.069-10.489h.07v-5.761c0-.345.068-.587.24-.759.173-.138.484-.242.932-.242h3.209c.414 0 .724.104.897.242.138.172.241.414.241.759v15.697c0 2.416-.448 4.072-1.345 5.038-.656.69-1.45 1.207-2.38 1.483-.967.31-2.243.449-3.865.449h-.586c-2.553 0-4.382-.518-5.555-1.553-1.207-1.035-1.794-2.967-1.794-5.83v-2.76c0-2.76.552-4.693 1.725-5.797 1.104-1.034 2.622-1.587 4.589-1.587h.414q1.965 0 3.208.621m23.505.725c-.483 3.243-1.38 6.831-2.691 10.799-1.346 3.967-2.967 7.727-4.865 11.246-.241.484-.552.725-.966.725-.276 0-.586-.069-1-.276l-1.76-.759c-.621-.276-.897-.552-.897-.862 0-.138.035-.346.173-.587 1.173-2.38 1.863-3.76 2.001-4.14-.966-.345-1.691-1.104-2.243-2.346-.621-1.38-1.345-3.485-2.139-6.383q-1.19-4.347-1.759-7.451c-.069-.346-.035-.587.138-.76.172-.138.483-.241.897-.241h3.139c.38 0 .656.069.828.172.173.104.311.311.38.656.793 4.347 1.69 8.211 2.691 11.558h.172c.966-2.76 1.863-6.555 2.691-11.454q.052-.519.311-.725c.172-.138.448-.207.793-.207h3.174c.38 0 .656.103.794.242.138.138.172.413.138.793m13.656 12.627v1.966c0 .518-.103.863-.241 1.035-.138.173-.449.242-.863.242h-2.76c-2.484 0-4.14-.414-4.899-1.276-.69-.725-1-2.105-1-4.175v-7.142h-1.863c-.345 0-.552-.034-.69-.172s-.173-.345-.173-.69v-1.76c0-.413.035-.69.173-.828.103-.137.345-.241.724-.344l1.829-.449v-3.381c0-.345.069-.587.241-.759.173-.138.483-.242.932-.242h3.174c.414 0 .724.104.897.242.172.172.276.414.276.759v3.312h2.863c.345 0 .552.069.69.207s.207.38.207.793v2.312q0 .621-.207.828c-.138.138-.345.172-.69.172h-2.863v6.521c0 .621.069 1 .276 1.207.207.242.655.346 1.345.346h1.518c.414 0 .725.103.863.276.138.172.241.517.241 1m17.715 1.656h-.931c-4.899 0-7.315-2.208-7.315-6.659v-2.311c0-2.277.587-3.933 1.795-5.037 1.173-1.07 3.001-1.622 5.416-1.622h.483c.449-2.484 2.277-3.76 5.52-3.76h1.691c.345 0 .552.069.69.172.103.139.172.38.172.725v1.897c0 .346-.069.553-.207.656-.138.138-.379.172-.69.172h-1.621c-.759 0-1.277.173-1.587.518 2.587.69 3.898 2.794 3.898 6.279v2.311c0 2.484-.69 4.14-2.035 5.037.897.484 1.587 1.105 2.104 1.864.518.758.794 1.587.794 2.449v.242c0 3.415-2.726 5.105-8.108 5.105h-.655c-2.346 0-4.623-.413-6.762-1.241-.621-.207-.863-.656-.69-1.311l.621-2.209c.172-.655.586-.897 1.242-.69 2.035.69 3.829 1.001 5.416 1.001h.483q3.002 0 3.002-1.76v-.103c0-.656-.345-1.242-1.035-1.794-.552.069-1.139.069-1.691.069m-.586-4.312h.241c.759 0 1.277-.138 1.622-.483.379-.38.586-1.173.586-2.346v-1.346c0-1.173-.207-1.932-.586-2.346-.345-.31-.863-.483-1.622-.483h-.241c-.759 0-1.311.172-1.622.483-.414.414-.586 1.173-.586 2.346v1.346c0 1.172.172 1.966.586 2.346.311.345.863.483 1.622.483m15.989-3.899v2.691c0 1.346.207 2.208.621 2.622.31.345.793.483 1.449.483h.138c.621 0 1.104-.138 1.449-.483.414-.414.621-1.276.621-2.622v-2.691c0-1.311-.207-2.208-.621-2.622-.345-.31-.828-.483-1.449-.483h-.138c-.656 0-1.139.172-1.449.483-.414.414-.621 1.311-.621 2.622m9.832.207v2.242c0 1.725-.172 3.037-.517 4.002-.345.966-.897 1.725-1.656 2.312-1.139.897-2.898 1.346-5.313 1.346h-.414c-2.415 0-4.209-.449-5.313-1.346-.759-.587-1.311-1.346-1.656-2.312s-.518-2.277-.518-4.002v-2.207c0-1.691.173-3.002.518-3.968a5.2 5.2 0 0 1 1.656-2.346c1.104-.897 2.898-1.346 5.313-1.346h.414c2.415 0 4.174.449 5.313 1.346a5.3 5.3 0 0 1 1.656 2.312c.345.966.517 2.277.517 3.967m13.753 6.348v1.966c0 .518-.104.863-.242 1.035-.138.173-.448.242-.862.242h-2.76c-2.484 0-4.14-.414-4.899-1.276-.69-.725-1.001-2.105-1.001-4.175v-7.142h-1.863c-.345 0-.552-.034-.69-.172s-.172-.345-.172-.69v-1.76c0-.413.034-.69.172-.828.104-.137.345-.241.725-.344l1.828-.449v-3.381c0-.345.069-.587.242-.759.172-.138.483-.242.931-.242h3.174c.414 0 .725.104.897.242.173.172.276.414.276.759v3.312h2.864c.345 0 .552.069.69.207s.207.38.207.793v2.312q0 .621-.207.828c-.138.138-.345.172-.69.172h-2.864v6.521c0 .621.069 1 .276 1.207.207.242.656.346 1.346.346h1.518c.414 0 .724.103.862.276.138.172.242.517.242 1m7.613-6.555v2.691c0 1.346.207 2.208.621 2.622.311.345.794.483 1.449.483h.138c.621 0 1.104-.138 1.449-.483.414-.414.621-1.276.621-2.622v-2.691c0-1.311-.207-2.208-.621-2.622-.345-.31-.828-.483-1.449-.483h-.138c-.655 0-1.138.172-1.449.483-.414.414-.621 1.311-.621 2.622m9.833.207v2.242c0 1.725-.173 3.037-.518 4.002-.345.966-.897 1.725-1.656 2.312-1.138.897-2.898 1.346-5.313 1.346h-.414c-2.415 0-4.209-.449-5.313-1.346-.759-.587-1.311-1.346-1.656-2.312s-.517-2.277-.517-4.002v-2.207c0-1.691.172-3.002.517-3.968a5.2 5.2 0 0 1 1.656-2.346c1.104-.897 2.898-1.346 5.313-1.346h.414c2.415 0 4.175.449 5.313 1.346a5.3 5.3 0 0 1 1.656 2.312c.345.966.518 2.277.518 3.967m-10.523-11.868 5.417-4.623c.207-.207.448-.31.655-.31.242 0 .483.172.69.448l1.656 2.139c.138.207.207.38.207.587 0 .276-.207.552-.552.828l-5.451 3.725a1.2 1.2 0 0 1-.69.242c-.276 0-.552-.138-.828-.483l-1.035-1.207c-.276-.311-.379-.587-.379-.794s.103-.414.31-.552m22.309 5.382h2.967c.483 0 .828.069 1 .207s.311.414.38.828c0 .138.621 3.209 1.828 9.177h.104c.621-3.623 1.173-6.969 1.621-10.074.035-.38.138-.621.276-.759q.207-.207.725-.207h3.519c.379 0 .621.103.759.242.103.172.138.448.069.793-.552 2.691-1.242 5.658-2.001 8.901s-1.311 5.278-1.656 6.141c-.138.345-.311.587-.483.69-.173.104-.449.138-.794.138h-3.795c-.724 0-1.173-.242-1.311-.793-.655-2.346-1.207-5.313-1.69-8.901h-.138a95 95 0 0 1-1.725 8.9c-.138.552-.552.794-1.242.794h-3.726c-.69 0-1.139-.242-1.311-.759-.345-.931-.932-3.07-1.76-6.382a160 160 0 0 1-1.932-8.729c-.103-.38-.069-.655.069-.793.138-.139.414-.242.828-.242h3.381c.345 0 .621.069.794.207.138.138.241.414.31.759a292 292 0 0 0 1.691 10.074h.138c.828-4.278 1.414-7.349 1.69-9.177.069-.448.173-.724.345-.862.173-.104.518-.173 1.07-.173m20.811 9.384v5.692c0 .346-.104.622-.276.76-.173.172-.483.241-.897.241h-3.174c-.449 0-.759-.069-.932-.242-.172-.137-.241-.413-.241-.758V68.393c0-.345.069-.587.241-.759.173-.138.483-.242.932-.242h3.174c.414 0 .724.104.897.242.172.172.276.414.276.759v11.247h.241l3.278-5.003c.31-.517.793-.793 1.449-.793h4.002c.379 0 .586.138.586.414 0 .138-.103.38-.276.656l-3.967 5.933c-.311.484-.449.829-.449 1.035 0 .242.138.587.449 1.035l4.243 6.694c.138.276.207.448.207.586 0 .38-.241.552-.724.552h-3.83c-.483 0-.862-.034-1.069-.172q-.31-.156-.621-.725l-3.278-5.796zm16.261-3.105v2.691c0 1.346.207 2.208.621 2.622.31.345.793.483 1.449.483h.138c.621 0 1.104-.138 1.449-.483.414-.414.621-1.276.621-2.622v-2.691c0-1.311-.207-2.208-.621-2.622-.345-.31-.828-.483-1.449-.483h-.138c-.656 0-1.139.172-1.449.483-.414.414-.621 1.311-.621 2.622m9.832.207v2.242c0 1.725-.172 3.037-.517 4.002-.345.966-.897 1.725-1.656 2.312-1.139.897-2.898 1.346-5.313 1.346h-.414c-2.415 0-4.209-.449-5.313-1.346-.759-.587-1.311-1.346-1.656-2.312s-.518-2.277-.518-4.002v-2.207c0-1.691.173-3.002.518-3.968a5.2 5.2 0 0 1 1.656-2.346c1.104-.897 2.898-1.346 5.313-1.346h.414c2.415 0 4.174.449 5.313 1.346a5.3 5.3 0 0 1 1.656 2.312c.345.966.517 2.277.517 3.967m11.786-6.486h2.967c.483 0 .828.069 1.001.207s.31.414.379.828c0 .138.621 3.209 1.829 9.177h.103c.621-3.623 1.173-6.969 1.622-10.074.034-.38.138-.621.276-.759q.207-.207.724-.207h3.519c.38 0 .621.103.759.242.104.172.138.448.069.793-.552 2.691-1.242 5.658-2.001 8.901s-1.311 5.278-1.656 6.141c-.138.345-.31.587-.483.69-.172.104-.448.138-.793.138h-3.795c-.725 0-1.173-.242-1.311-.793-.656-2.346-1.208-5.313-1.691-8.901h-.138a95 95 0 0 1-1.725 8.9c-.138.552-.552.794-1.242.794h-3.726c-.69 0-1.138-.242-1.311-.759-.345-.931-.931-3.07-1.759-6.382a160 160 0 0 1-1.932-8.729c-.104-.38-.069-.655.069-.793.138-.139.414-.242.828-.242h3.381c.345 0 .621.069.793.207.138.138.242.414.311.759a294 294 0 0 0 1.69 10.074h.138c.828-4.278 1.415-7.349 1.691-9.177.069-.448.172-.724.345-.862.172-.104.517-.173 1.069-.173m30.391.207c-.483 3.243-1.38 6.831-2.691 10.799-1.346 3.967-2.967 7.727-4.865 11.246-.241.484-.552.725-.966.725-.276 0-.586-.069-1-.276l-1.76-.759c-.621-.276-.897-.552-.897-.862 0-.138.035-.346.173-.587 1.173-2.38 1.863-3.76 2.001-4.14-.966-.345-1.691-1.104-2.243-2.346-.621-1.38-1.345-3.485-2.139-6.383q-1.19-4.347-1.759-7.451c-.069-.346-.035-.587.138-.76.172-.138.483-.241.897-.241h3.139c.38 0 .656.069.828.172.173.104.311.311.38.656.793 4.347 1.69 8.211 2.691 11.558h.172c.966-2.76 1.863-6.555 2.691-11.454q.052-.519.311-.725c.172-.138.448-.207.793-.207h3.174c.38 0 .656.103.794.242.138.138.172.413.138.793M46.212 130.643v-4.381c0-.863-.138-1.484-.414-1.829-.31-.345-.862-.552-1.621-.552h-.345c-.759 0-1.276.207-1.587.587-.345.379-.483 1.449-.483 3.243v1.518c0 1.656.172 2.691.517 3.036.276.345.794.483 1.587.483h.38c.655 0 1.139-.138 1.483-.449.311-.31.483-.862.483-1.656m-.069-10.488h.07v-5.761c0-.345.069-.587.241-.759.172-.138.483-.242.931-.242h3.209c.414 0 .724.104.897.242.138.172.242.414.242.759v15.697c0 2.415-.449 4.071-1.346 5.037-.656.69-1.449 1.208-2.38 1.484-.966.311-2.243.449-3.864.449h-.587c-2.553 0-4.381-.518-5.554-1.553-1.208-1.035-1.794-2.967-1.794-5.831v-2.76c0-2.76.552-4.692 1.724-5.796 1.104-1.035 2.622-1.587 4.589-1.587h.414q1.966 0 3.209.621m13.88 6.797v2.691c0 1.345.207 2.208.62 2.622.311.345.794.483 1.45.483h.138c.62 0 1.104-.138 1.449-.483.414-.414.62-1.277.62-2.622v-2.691c0-1.311-.206-2.208-.62-2.622-.345-.311-.828-.483-1.45-.483h-.137c-.656 0-1.139.172-1.45.483-.413.414-.62 1.311-.62 2.622m9.832.207v2.242c0 1.725-.172 3.037-.517 4.002-.345.966-.897 1.725-1.656 2.312-1.139.897-2.898 1.346-5.313 1.346h-.414c-2.415 0-4.21-.449-5.313-1.346-.76-.587-1.311-1.346-1.656-2.312s-.518-2.277-.518-4.002v-2.208c0-1.69.173-3.001.518-3.967a5.2 5.2 0 0 1 1.656-2.346c1.104-.897 2.898-1.346 5.313-1.346h.414c2.415 0 4.174.449 5.313 1.346a5.3 5.3 0 0 1 1.656 2.311c.345.966.517 2.277.517 3.968m20.308-12.207h-.168c-1.764 0-3.696.378-5.796 1.092-.714.252-1.134.042-1.302-.63l-.756-3.024c-.21-.756 0-1.302.672-1.554 2.604-1.092 5.46-1.638 8.61-1.638h.126c2.772 0 4.914.63 6.426 1.848s2.268 3.066 2.268 5.502v.504c0 2.184-.462 3.864-1.344 5.124-.924 1.26-2.352 2.394-4.284 3.318l-2.184 1.05c-2.016 1.008-3.276 1.764-3.864 2.268s-.882 1.218-.882 2.058v.462H98.69c.588 0 1.008.126 1.176.294s.252.546.252 1.092v2.772c0 .504-.126.84-.294 1.008q-.315.252-1.134.252H82.477q-.882 0-1.134-.252c-.21-.168-.294-.504-.294-1.008v-2.688c0-2.688.462-4.83 1.47-6.342.966-1.512 2.646-2.772 5.04-3.864l1.806-.798c1.47-.63 2.478-1.218 2.982-1.806.504-.546.798-1.302.798-2.268v-.336c0-1.596-1.008-2.436-2.982-2.436m35.704 6.384v3.654c0 3.948-.84 6.972-2.478 9.03-1.68 2.1-4.452 3.108-8.316 3.108s-6.636-1.008-8.316-3.108c-1.68-2.058-2.478-5.082-2.478-9.03v-3.654c0-3.948.798-6.93 2.478-9.03 1.68-2.058 4.452-3.108 8.316-3.108s6.636 1.05 8.316 3.108c1.638 2.1 2.478 5.082 2.478 9.03m-7.182 2.94v-2.226c0-2.73-.252-4.62-.672-5.628s-1.386-1.554-2.856-1.554h-.168c-1.512.042-2.478.546-2.898 1.554s-.63 2.898-.63 5.628v2.226c0 2.772.21 4.62.63 5.628s1.386 1.554 2.898 1.554h.168c1.47 0 2.436-.504 2.856-1.512s.672-2.898.672-5.67m31.545-2.94v3.654c0 3.948-.84 6.972-2.478 9.03-1.68 2.1-4.452 3.108-8.316 3.108s-6.636-1.008-8.316-3.108c-1.68-2.058-2.478-5.082-2.478-9.03v-3.654c0-3.948.798-6.93 2.478-9.03 1.68-2.058 4.452-3.108 8.316-3.108s6.636 1.05 8.316 3.108c1.638 2.1 2.478 5.082 2.478 9.03m-7.182 2.94v-2.226c0-2.73-.252-4.62-.672-5.628s-1.386-1.554-2.856-1.554h-.168c-1.512.042-2.478.546-2.898 1.554s-.63 2.898-.63 5.628v2.226c0 2.772.21 4.62.63 5.628s1.386 1.554 2.898 1.554h.168c1.47 0 2.436-.504 2.856-1.512s.672-2.898.672-5.67m32.965 8.526v2.394c0 .63-.126 1.05-.294 1.26s-.546.294-1.05.294h-3.36c-3.024 0-5.04-.504-5.964-1.554-.84-.882-1.218-2.562-1.218-5.082v-8.694h-2.268c-.42 0-.672-.042-.84-.21s-.21-.42-.21-.84v-2.142c0-.504.042-.84.21-1.008.126-.168.42-.294.882-.42l2.226-.546v-4.116c0-.42.084-.714.294-.924.21-.168.588-.294 1.134-.294h3.864c.504 0 .882.126 1.092.294.21.21.336.504.336.924v4.032h3.486c.42 0 .672.084.84.252s.252.462.252.966v2.814q0 .756-.252 1.008c-.168.168-.42.21-.84.21h-3.486v7.938c0 .756.084 1.218.336 1.47.252.294.798.42 1.638.42h1.848c.504 0 .882.126 1.05.336s.294.63.294 1.218m20.986-15.372c-.588 3.948-1.68 8.316-3.276 13.146-1.638 4.83-3.612 9.408-5.922 13.692-.294.588-.672.882-1.176.882-.336 0-.714-.084-1.218-.336l-2.142-.924c-.756-.336-1.092-.672-1.092-1.05 0-.168.042-.42.21-.714 1.428-2.898 2.268-4.578 2.436-5.04-1.176-.42-2.058-1.344-2.73-2.856-.756-1.68-1.638-4.242-2.604-7.77q-1.449-5.292-2.142-9.072c-.084-.42-.042-.714.168-.924.21-.168.588-.294 1.092-.294h3.822c.462 0 .798.084 1.008.21s.378.378.462.798c.966 5.292 2.058 9.996 3.276 14.07h.21c1.176-3.36 2.268-7.98 3.276-13.944q.063-.63.378-.882c.21-.168.546-.252.966-.252h3.864c.462 0 .798.126.966.294s.21.504.168.966m1.908 5.502v-.546c0-2.058.546-3.612 1.638-4.704 1.26-1.26 3.402-1.89 6.384-1.89h.42c2.352 0 4.41.252 6.132.756q.504.189.63.378c.084.168.126.378.084.714l-.462 3.444c-.084.546-.462.714-1.134.546-1.68-.378-3.192-.588-4.452-.588h-.042c-.924 0-1.596.084-1.932.252-.378.168-.546.462-.546.882v.126c0 .42.126.714.462.882s.966.378 1.932.546l1.974.42c1.806.42 3.108 1.05 3.864 1.89s1.134 2.142 1.134 3.864v.63c0 4.41-2.772 6.594-8.232 6.594h-.42c-2.772 0-5.082-.378-7.014-1.134-.378-.126-.63-.294-.714-.504-.084-.168-.084-.504 0-.966l.588-2.772c.126-.798.588-1.05 1.428-.798 1.932.672 3.612.966 5.04.966h.126c.924 0 1.554-.084 1.932-.294.336-.168.546-.504.546-.966v-.126a.9.9 0 0 0-.462-.798q-.504-.252-2.016-.63l-1.848-.42q-2.772-.63-3.906-1.89c-.756-.84-1.134-2.1-1.134-3.864m26.129 10.29v.42c0 2.352-1.134 3.486-3.36 3.486h-.462c-2.268 0-3.36-1.134-3.36-3.486v-.42c0-1.218.252-2.1.84-2.604.546-.504 1.386-.798 2.52-.798h.462c1.092 0 1.932.294 2.52.798.546.504.84 1.386.84 2.604m19.612-11.718h-6.678c-.42 0-.714-.042-.882-.21s-.21-.504-.21-1.008v-2.898c0-.504.042-.798.21-.966q.252-.252.882-.252h14.196c.42 0 .714.084.924.252.168.168.294.504.294.966v.798c0 1.092-.336 2.1-.924 2.982l-7.224 10.248h7.182c.42 0 .672.084.84.252s.252.462.252.966v2.898q0 .756-.252 1.008c-.168.168-.42.21-.84.21H237.97c-.882 0-1.302-.378-1.302-1.218v-.966c0-1.092.294-2.058.924-2.982zm20.429 9.786h1.344c.42 0 .756.126.924.294.168.21.294.588.294 1.134v2.604c0 .588-.126.966-.294 1.134-.168.21-.504.294-.924.294h-3.192c-2.1 0-3.57-.378-4.41-1.218-.84-.798-1.26-2.226-1.26-4.242v-4.536l-1.386.882c-.546.336-.924.504-1.092.504-.336 0-.462-.252-.462-.756v-3.906c0-.42.042-.714.21-.924.126-.168.378-.42.798-.714l1.932-1.218v-11.088c0-.42.084-.714.294-.924.21-.168.588-.294 1.134-.294h3.864c.504 0 .882.126 1.092.294.21.21.336.504.336.924v6.804l1.89-1.218c.504-.336.882-.504 1.092-.504.294 0 .462.252.462.756v3.906c0 .42-.084.756-.21.924-.168.21-.42.462-.798.714l-2.436 1.554v8.022c0 .336.042.546.168.63.084.126.294.168.63.168"/></svg>