<svg xmlns="http://www.w3.org/2000/svg" fill="none" viewBox="0 0 99 55"><path fill="#fff" d="M.986.542h6.732V12H5.491V2.48H3.213V12H.986zM9.686 12V.712c.628-.136 1.478-.221 2.328-.221 1.326 0 2.363.187 3.111.884.68.595.986 1.547.986 2.516 0 1.241-.374 2.108-.969 2.754-.714.748-1.87 1.088-2.788 1.088h-.442V12zm2.226-9.622v3.536c.102.034.221.034.357.034 1.122 0 1.632-.799 1.632-1.87 0-1.003-.408-1.785-1.445-1.785a1.7 1.7 0 0 0-.544.085M20.668.406c2.77 0 3.553 3.043 3.553 5.661 0 4.318-1.53 6.069-3.706 6.069-2.601 0-3.621-2.754-3.621-5.899 0-3.128 1.24-5.831 3.774-5.831m-.085 1.938c-.884 0-1.377 1.462-1.377 3.927 0 2.601.493 3.927 1.394 3.927.935 0 1.292-1.7 1.292-4.029 0-2.006-.306-3.825-1.31-3.825m8.133-2.21h1.955v.867c2.057.272 3.621 1.887 3.621 5.185 0 3.519-1.58 4.998-3.62 5.287v.935h-1.973v-.935c-2.074-.306-3.62-1.768-3.62-5.236 0-3.366 1.852-4.964 3.637-5.236zm0 9.707V2.616c-.68.204-1.41 1.122-1.41 3.655 0 2.363.713 3.417 1.41 3.57m1.938-7.225v7.225c.748-.153 1.411-1.071 1.411-3.638 0-2.601-.765-3.434-1.41-3.587M35.7.542h1.972v2.533c0 2.108-.136 4.08-.221 5.27h.034c.323-.986.9-2.482 1.24-3.366L40.41.542h2.023V12h-1.955V9.416c0-2.295.085-3.995.136-5.151h-.034c-.255 1.037-.765 2.414-1.14 3.366L37.758 12H35.7zm9.158 0h5.967V12h-2.227V2.48h-1.7v3.026c0 2.635-.17 4.947-1.615 6.069-.425.34-.97.561-1.53.561l-.476-1.887c.272-.068.56-.204.765-.408.663-.68.816-1.904.816-4.131zm11.818 8.84h-2.058L54.109 12H51.95L54.43.542h2.67L59.327 12h-2.16zm-1.837-1.734h1.633l-.375-2.397a87 87 0 0 1-.373-2.601h-.051c-.12.765-.29 1.955-.409 2.618zM60.587.542h2.176v4.981h.17l1.87-4.981h2.448l-2.635 5.304c1.173.442 1.564 1.513 1.887 2.907.255 1.105.442 2.193.782 3.247h-2.227c-.272-.816-.442-1.751-.63-2.652-.271-1.343-.577-2.21-1.495-2.21h-.17V12h-2.176zM69.812 12V2.599h-2.023V.542h6.29v2.057h-2.04V12zM75.245.542h1.972v2.533c0 2.108-.136 4.08-.221 5.27h.034c.323-.986.9-2.482 1.24-3.366L79.955.542h2.023V12h-1.955V9.416c0-2.295.085-3.995.136-5.151h-.034c-.255 1.037-.765 2.414-1.14 3.366L77.303 12h-2.057zm8.716 0h2.176v4.981h.17l1.87-4.981h2.448L87.99 5.846c1.173.442 1.564 1.513 1.887 2.907.255 1.105.442 2.193.782 3.247h-2.227c-.272-.816-.442-1.751-.63-2.652-.271-1.343-.577-2.21-1.495-2.21h-.17V12H83.96zm11.844 8.84h-2.057L93.238 12H91.08L93.561.542h2.67L98.456 12h-2.159zM93.97 7.648h1.632l-.374-2.397a87 87 0 0 1-.374-2.601h-.05c-.12.765-.29 1.955-.409 2.618zM.986 31.966V20.712c.68-.153 1.564-.221 2.533-.221 1.071 0 2.108.136 2.907.816.612.51.867 1.275.867 2.074 0 1.02-.527 2.006-1.666 2.499v.068c1.326.374 2.04 1.479 2.04 2.737 0 .952-.306 1.683-.85 2.244-.68.748-1.836 1.156-3.757 1.156-.85 0-1.564-.051-2.074-.119m2.227-9.741v3.026h.476c.799 0 1.411-.68 1.411-1.615 0-.833-.391-1.479-1.309-1.479-.238 0-.442.017-.578.068m0 4.675v3.434c.136.034.289.034.493.034.901 0 1.649-.544 1.649-1.717 0-1.139-.782-1.734-1.666-1.751zm5.753-4.114-.374-1.717c.493-.34 1.445-.663 2.533-.663 2.176 0 3.196 1.326 3.196 2.822 0 1.173-.782 2.312-1.938 2.601v.034c1.343.272 2.278 1.292 2.278 2.873 0 2.193-1.87 3.4-3.927 3.4-.952 0-1.785-.221-2.312-.51l.323-1.819c.493.289 1.139.459 1.768.459 1.19 0 1.819-.68 1.819-1.598 0-1.275-1.054-1.785-2.261-1.785h-.323V25.2h.22c1.02 0 2.04-.493 2.04-1.547 0-.799-.492-1.343-1.444-1.343-.527 0-1.156.221-1.598.476m8.066-2.244h5.9v9.554l.9.034-.102 4.369h-1.683L21.962 32h-4.98l-.086 2.499h-1.7l-.085-4.369.816-.034c.357-.867.595-1.734.782-2.669.221-1.309.323-2.652.323-3.995zm2.04 1.938v1.326c0 1.309-.085 2.635-.272 3.859-.136.816-.34 1.7-.578 2.397h2.5V22.48zm4.747-1.938h2.397l1.054 4.318c.153.646.289 1.326.374 1.836h.05c.103-.544.17-1.241.273-1.887l.765-4.267h2.26l-1.7 6.103c-.39 1.445-.832 3.009-1.41 3.995-.544.901-1.377 1.496-2.33 1.496-.39 0-.68-.034-.9-.102l.085-1.819c.102.017.272.051.544.051.578 0 1.054-.595 1.224-1.156.085-.238.068-.425-.017-.68zM33.637 32v-9.401h-2.023v-2.057h6.29v2.057h-2.04V32zm5.433-11.458h1.972v2.533c0 2.108-.136 4.08-.221 5.27h.034c.323-.986.901-2.482 1.241-3.366l1.683-4.437h2.023V32h-1.955v-2.584c0-2.295.085-3.995.136-5.151h-.034c-.255 1.037-.765 2.414-1.139 3.366L41.127 32H39.07zM49.265 32h-2.363c.153-.34.306-.782.442-1.224.306-1.156.306-2.754 1.156-3.655.204-.221.51-.408.816-.493v-.034c-1.207-.374-1.972-1.309-1.972-2.754 0-1.173.442-1.989 1.054-2.499.73-.595 1.75-.85 2.907-.85.85 0 1.734.068 2.43.221V32H51.51v-4.573h-.238a1.13 1.13 0 0 0-.918.425c-.493.629-.578 2.295-.765 3.145-.085.34-.17.68-.323 1.003m2.244-6.307v-3.417c-.12-.017-.255-.051-.442-.051-1.037 0-1.48.833-1.48 1.7 0 1.088.647 1.785 1.616 1.785.136 0 .187 0 .306-.017M.986 40.542h1.972v2.533c0 2.108-.136 4.08-.221 5.27h.034c.323-.986.901-2.482 1.241-3.366l1.683-4.437h2.023V52H5.763v-2.584c0-2.295.085-3.995.136-5.151h-.034c-.255 1.037-.765 2.414-1.139 3.366L3.043 52H.986zm12.527 0h5.899v9.554l.9.034-.101 4.369h-1.683L18.443 52h-4.981l-.085 2.499h-1.7l-.085-4.369.816-.034c.357-.867.595-1.734.782-2.669.22-1.309.323-2.652.323-3.995zm2.04 1.938v1.326c0 1.309-.085 2.635-.272 3.859-.136.816-.34 1.7-.578 2.397h2.499V42.48zm6.002-1.938h1.972v2.533c0 2.108-.136 4.08-.22 5.27h.033c.323-.986.901-2.482 1.241-3.366l1.683-4.437h2.023V52h-1.955v-2.584c0-2.295.085-3.995.136-5.151h-.034c-.255 1.037-.765 2.414-1.139 3.366L23.612 52h-2.057zm12.592 8.84H32.09L31.58 52h-2.159l2.482-11.458h2.67L36.798 52H34.64zm-1.836-1.734h1.632l-.374-2.397a87 87 0 0 1-.374-2.601h-.05c-.12.765-.29 1.955-.409 2.618zM38.057 52V40.712c.63-.136 1.48-.221 2.33-.221 1.325 0 2.362.187 3.11.884.68.595.986 1.547.986 2.516 0 1.241-.374 2.108-.969 2.754-.714.748-1.87 1.088-2.788 1.088h-.442V52zm2.227-9.622v3.536c.102.034.221.034.357.034 1.122 0 1.632-.799 1.632-1.87 0-1.003-.408-1.785-1.445-1.785a1.7 1.7 0 0 0-.544.085m10.388 2.737v1.853h-2.618v3.094h2.958V52h-5.185V40.542h4.98v1.938h-2.753v2.635zm1.845-4.573h1.972v2.533c0 2.108-.136 4.08-.22 5.27h.033c.323-.986.901-2.482 1.241-3.366l1.683-4.437h2.023V52h-1.955v-2.584c0-2.295.085-3.995.136-5.151h-.034c-.255 1.037-.765 2.414-1.139 3.366L54.574 52h-2.057z"/></svg>