<svg xmlns="http://www.w3.org/2000/svg" fill="none" viewBox="0 0 117 41"><path fill="#fff" d="M.924 3.618.462 1.497c.609-.42 1.785-.819 3.129-.819 2.688 0 3.948 1.638 3.948 3.486 0 1.449-.966 2.856-2.394 3.213v.042c1.659.336 2.814 1.596 2.814 3.549 0 2.709-2.31 4.2-4.851 4.2-1.176 0-2.205-.273-2.856-.63l.399-2.247c.609.357 1.407.567 2.184.567 1.47 0 2.247-.84 2.247-1.974 0-1.575-1.302-2.205-2.793-2.205H1.89V6.6h.273c1.26 0 2.52-.609 2.52-1.911 0-.987-.609-1.659-1.785-1.659-.651 0-1.428.273-1.974.588m13.49 8.148h-2.54L11.243 15H8.575L11.642.846h3.297L17.69 15h-2.667zm-2.268-2.142h2.016L13.7 6.663c-.147-.861-.336-2.268-.462-3.213h-.063c-.147.945-.357 2.415-.504 3.234zM19.244.846h7.224v2.352h-4.494v2.961a5 5 0 0 1 1.113-.105c1.218 0 2.29.378 3.066 1.05.84.735 1.344 1.848 1.344 3.276 0 1.365-.42 2.457-1.176 3.213-.966 1.029-2.478 1.512-4.515 1.512-1.05 0-1.932-.063-2.562-.147zm2.751 7.476v4.536c.19.042.378.042.61.042.65 0 1.175-.252 1.511-.672.357-.42.525-1.008.525-1.638 0-.651-.189-1.239-.546-1.638a1.9 1.9 0 0 0-1.47-.693 3 3 0 0 0-.63.063M33.18.678c3.423 0 4.39 3.759 4.39 6.993 0 5.334-1.89 7.497-4.579 7.497-3.213 0-4.473-3.402-4.473-7.287 0-3.864 1.533-7.203 4.662-7.203m-.105 2.394c-1.092 0-1.7 1.806-1.7 4.851 0 3.213.608 4.851 1.721 4.851 1.155 0 1.596-2.1 1.596-4.977 0-2.478-.378-4.725-1.617-4.725M40.567 15V3.387h-2.499V.846h7.77v2.541h-2.52V15zm10.556-3.234h-2.54L47.952 15h-2.668L48.351.846h3.297L54.4 15h-2.667zm-2.268-2.142h2.016l-.462-2.961c-.147-.861-.336-2.268-.462-3.213h-.063c-.147.945-.357 2.415-.504 3.234zM5.187 25.678c3.423 0 4.389 3.759 4.389 6.993 0 5.334-1.89 7.497-4.578 7.497-3.213 0-4.473-3.402-4.473-7.287 0-3.864 1.533-7.203 4.662-7.203m-.105 2.394c-1.092 0-1.701 1.806-1.701 4.851 0 3.213.609 4.851 1.722 4.851 1.155 0 1.596-2.1 1.596-4.977 0-2.478-.378-4.725-1.617-4.725M23.575 40l-.252-4.956c-.063-1.344-.168-3.171-.126-4.683h-.063a62 62 0 0 1-.903 4.347l-1.218 5.061H19.06l-1.176-4.977c-.273-1.134-.65-2.898-.86-4.431h-.064a157 157 0 0 1-.21 4.725L16.52 40h-2.374l1.03-14.154h2.897l1.134 5.124c.4 1.785.756 3.36 1.008 4.956h.042c.21-1.575.525-3.171.903-4.956l1.113-5.124h2.898L26.032 40zm4.467-14.154h2.436v3.129c0 2.604-.168 5.04-.273 6.51h.042c.4-1.218 1.113-3.066 1.533-4.158l2.08-5.481h2.498V40h-2.415v-3.192c0-2.835.105-4.935.168-6.363h-.042c-.315 1.281-.945 2.982-1.407 4.158L30.583 40h-2.54zm10.767 0h2.688v6.153h.21l2.31-6.153h3.024l-3.255 6.552c1.449.546 1.932 1.869 2.33 3.591.316 1.365.547 2.709.967 4.011h-2.751c-.336-1.008-.546-2.163-.777-3.276-.336-1.659-.714-2.73-1.848-2.73h-.21V40h-2.688zM48.345 40V26.056c.777-.168 1.827-.273 2.877-.273 1.638 0 2.919.231 3.843 1.092.84.735 1.218 1.911 1.218 3.108 0 1.533-.462 2.604-1.197 3.402-.882.924-2.31 1.344-3.444 1.344h-.546V40zm2.751-11.886v4.368c.126.042.273.042.441.042 1.386 0 2.016-.987 2.016-2.31 0-1.239-.504-2.205-1.785-2.205-.252 0-.504.042-.672.105m10.816-2.436c3.423 0 4.389 3.759 4.389 6.993 0 5.334-1.89 7.497-4.578 7.497-3.213 0-4.473-3.402-4.473-7.287 0-3.864 1.533-7.203 4.662-7.203m-.105 2.394c-1.092 0-1.701 1.806-1.701 4.851 0 3.213.609 4.851 1.722 4.851 1.155 0 1.596-2.1 1.596-4.977 0-2.478-.378-4.725-1.617-4.725m10.047-2.73h2.415v1.071c2.541.336 4.473 2.331 4.473 6.405 0 4.347-1.953 6.174-4.473 6.531v1.155h-2.436v-1.155c-2.562-.378-4.473-2.184-4.473-6.468 0-4.158 2.289-6.132 4.494-6.468zm0 11.991v-8.925c-.84.252-1.743 1.386-1.743 4.515 0 2.919.882 4.221 1.743 4.41m2.394-8.925v8.925c.924-.189 1.743-1.323 1.743-4.494 0-3.213-.945-4.242-1.743-4.431m6.635-2.562h7.371V40h-2.75V28.24h-2.1v3.738c0 3.255-.21 6.111-1.996 7.497-.525.42-1.197.693-1.89.693l-.588-2.331c.336-.084.693-.252.945-.504.82-.84 1.008-2.352 1.008-5.103zm13.78-.168c3.423 0 4.389 3.759 4.389 6.993 0 5.334-1.89 7.497-4.578 7.497-3.213 0-4.473-3.402-4.473-7.287 0-3.864 1.533-7.203 4.662-7.203m-.105 2.394c-1.092 0-1.701 1.806-1.701 4.851 0 3.213.609 4.851 1.722 4.851 1.155 0 1.596-2.1 1.596-4.977 0-2.478-.378-4.725-1.617-4.725M100.804 40V26.056c.777-.168 1.827-.273 2.877-.273 1.638 0 2.919.231 3.843 1.092.84.735 1.218 1.911 1.218 3.108 0 1.533-.462 2.604-1.197 3.402-.882.924-2.31 1.344-3.444 1.344h-.546V40zm2.751-11.886v4.368c.126.042.273.042.441.042 1.386 0 2.016-.987 2.016-2.31 0-1.239-.504-2.205-1.785-2.205-.252 0-.504.042-.672.105m12.832 3.381v2.289h-3.234v3.822h3.654V40h-6.405V25.846h6.153v2.394h-3.402v3.255z"/></svg>