<svg xmlns="http://www.w3.org/2000/svg" fill="none" viewBox="0 0 74 21"><g clip-path="url(#a)"><path fill="#fff" d="M17.974 13.356h1.148v-4.92h-1.148v3.14l-2.32-3.14h-1.171v4.92h1.172v-3.14zm22.486-4.92h-3.916V9.51h1.92l-2.331 3.857h4.19V12.28h-2.17zm-7.582 2.46c0-.816-.599-1.435-1.41-1.435s-1.409.631-1.409 1.435c0 .84.636 1.434 1.397 1.434.81-.012 1.422-.618 1.422-1.434m-4.078-.013c0-1.459 1.21-2.534 2.668-2.534 1.46 0 2.657 1.075 2.657 2.547 0 1.471-1.21 2.534-2.681 2.534S28.8 12.416 28.8 10.883m-5.288 1.41h.262c.935 0 1.558-.482 1.558-1.397s-.523-1.36-1.558-1.36h-.262zm-1.223 1.063v-4.92h1.422c1.684 0 2.869.828 2.869 2.46s-1.16 2.46-2.781 2.46zM8.996 11.502h1.16l-.25-.705c-.112-.322-.212-.643-.311-.965q-.15.482-.337.965zm1.796 1.854-.324-.94H8.658l-.336.94h-1.31l2.033-4.92h1.098l2.007 4.92zM1.4 12.528l.661-.73c.312.433.698.643 1.097.643.362 0 .574-.185.574-.495 0-.309-.2-.444-.76-.68-.786-.309-1.335-.655-1.335-1.47 0-.817.71-1.46 1.684-1.46.71 0 1.21.26 1.571.656l-.636.766c-.2-.26-.486-.433-.86-.433-.3 0-.524.161-.524.408 0 .248.237.371.81.606.823.322 1.297.73 1.297 1.558 0 .94-.736 1.533-1.746 1.533-.873 0-1.496-.37-1.833-.902"/><path fill="#fff" d="m66.313 9.77.374 1.126h-.748zm2.158-.828v3.104h1.846v-.643h-1.098v-2.46zm-2.594 0-.649 1.954-.2.593-.186.581h.71l.188-.58h1.135l.187.58h.71l-.187-.58-.2-.594-.648-1.954zm-4.253 0 .923 1.558-1.01 1.558h.873l.623-1.039.624 1.039h.873L63.507 10.5l.936-1.558h-.823l-.574 1.014-.574-1.014zm-2.594 0v3.104h1.896v-.619h-1.16v-.68h1.097v-.593h-1.097v-.606h1.16V8.93zm-3.467 0v3.104h.748v-1.274h.998v1.274h.748V8.942h-.748v1.187h-.998V8.942z"/><path fill="#fff" d="M66.4 13.232a.747.747 0 0 0-.748.742v3.796h.749v-3.796h3.84v-.742zm-10.787 0v.742h3.829v3.796h.748v-3.796a.747.747 0 0 0-.748-.742zm10.052-9.99v3.796c0 .408.337.742.748.742h3.829v-.742h-3.829V3.242zm-6.223 0v3.796h-3.829v.742h3.829a.747.747 0 0 0 .748-.742V3.242zm.2-1.1h6.56s.224 0 .373.16l.013.013 4.652 4.612a.49.49 0 0 1 .112.334v6.478c0 .198-.088.31-.112.334l-4.652 4.612-.013.012c-.162.161-.374.161-.374.161h-6.56s-.224 0-.374-.16l-.012-.013-4.652-4.612a.49.49 0 0 1-.113-.334V7.261c0-.198.088-.31.113-.334l4.652-4.612.012-.012c.162-.161.374-.161.374-.161m.05-.742s-.562 0-.899.334l-4.64 4.6-.012.012a1.52 1.52 0 0 0-.386.989v6.33c0 .544.324.928.386.99l.013.012 4.64 4.6c.336.333.897.333.897.333h6.473s.56 0 .898-.334l4.639-4.6.013-.012c.062-.062.386-.445.386-.989v-6.33c0-.544-.324-.928-.386-.99l-.013-.012-4.64-4.6c-.336-.333-.897-.333-.897-.333z"/><path stroke="#fff" stroke-miterlimit="10" stroke-width="1.61" d="M47.07 3.032v15.764"/></g><defs><clipPath id="a"><rect width="73.5" height="21" fill="#fff"/></clipPath></defs></svg>