<svg xmlns="http://www.w3.org/2000/svg" fill="none" viewBox="0 0 143 36"><path fill="#fff" d="M0 13.298.396 9.5H2.83l-1.222 3.797zm3.472 0L3.867 9.5h2.435L5.08 13.298zm5.071 0L8.938 9.5h2.435l-1.222 3.797zm5.133-1.292V0h2.267v4.825h5.96V0h2.267v12.006h-2.268V6.838h-5.959v5.168zm12.762-3.314V3.56h2.118v5.115q0 .809.44 1.257.447.44 1.15.44.431 0 .81-.168.377-.175.64-.483.273-.308.423-.712.158-.405.158-.87v-4.58h2.127v8.447h-2.04l-.052-.958a4 4 0 0 1-.396.378 3.01 3.01 0 0 1-1.24.65q-.394.105-.904.106-1.583 0-2.408-.94-.826-.95-.826-2.55m9.536 2.285 1.274-1.38q.396.396.993.66.606.255 1.38.255.685 0 1.099-.176.413-.184.413-.598a.75.75 0 0 0-.07-.325q-.07-.158-.308-.299a3 3 0 0 0-.642-.29 10 10 0 0 0-1.116-.307 7 7 0 0 1-.905-.29q-.465-.185-.87-.493a2.8 2.8 0 0 1-.668-.755q-.255-.449-.255-1.055 0-.633.299-1.125.307-.501.8-.826a4 4 0 0 1 1.116-.51 4.4 4.4 0 0 1 1.256-.185q1.117 0 1.899.238a4.5 4.5 0 0 1 1.415.694l-1.099 1.494a3.5 3.5 0 0 0-.905-.457q-.554-.21-1.31-.21-.755 0-1.054.228t-.299.545q0 .394.492.624.501.228 1.547.474.65.141 1.16.36.51.22.88.545.368.325.562.765.201.44.202 1.055 0 .616-.29 1.107a2.5 2.5 0 0 1-.782.835 3.8 3.8 0 0 1-1.152.527 5 5 0 0 1-1.397.194q-1.186 0-2.145-.334-.95-.334-1.52-.985m8.288-5.686V3.56h1.441V.826h2.118V3.56h2.268V5.29H47.82v3.691q0 .72.246 1.108.246.387.783.387.5 0 .8-.141.3-.15.57-.343l.897 1.31q-.633.518-1.248.747a3.8 3.8 0 0 1-1.362.228q-.773 0-1.319-.228a2.14 2.14 0 0 1-.87-.633 2.6 2.6 0 0 1-.474-1.002 5.6 5.6 0 0 1-.14-1.292V5.291zm8.103 9.29 1.134-2.575h-.914V9.5h2.575v2.47l-1.53 2.61zm8.139-2.575V0h2.083v4.43q.325-.36.95-.703.623-.343 1.59-.343.774 0 1.38.255.615.246 1.02.712.413.456.623 1.107.22.642.22 1.415v5.133h-2.127V6.89q0-.81-.44-1.248-.438-.44-1.142-.44-.43 0-.809.176-.377.167-.65.475-.272.298-.43.711-.15.405-.15.87v4.57zm9.879-3.314V3.56H72.5v5.115q0 .809.44 1.257.447.44 1.15.44.431 0 .81-.168.377-.175.641-.483.273-.308.422-.712.158-.405.158-.87v-4.58h2.127v8.447H76.21l-.053-.958a4 4 0 0 1-.395.378 3.011 3.011 0 0 1-1.24.65q-.395.105-.905.106-1.582 0-2.408-.94-.825-.95-.826-2.55m9.536 2.285 1.274-1.38q.396.396.993.66.608.255 1.38.255.686 0 1.099-.176.413-.184.413-.598a.75.75 0 0 0-.07-.325q-.07-.158-.308-.299a3 3 0 0 0-.641-.29 10 10 0 0 0-1.117-.307 7 7 0 0 1-.905-.29q-.465-.185-.87-.493a2.8 2.8 0 0 1-.668-.755q-.255-.449-.255-1.055 0-.633.299-1.125.308-.501.8-.826a4 4 0 0 1 1.116-.51 4.4 4.4 0 0 1 1.257-.185q1.116 0 1.898.238a4.5 4.5 0 0 1 1.415.694l-1.098 1.494a3.5 3.5 0 0 0-.906-.457q-.553-.21-1.31-.21-.755 0-1.054.228t-.299.545q0 .394.493.624.501.228 1.546.474.65.141 1.16.36.51.22.88.545.368.325.562.765.202.44.202 1.055 0 .616-.29 1.107a2.5 2.5 0 0 1-.782.835 3.8 3.8 0 0 1-1.152.527 5 5 0 0 1-1.397.194q-1.186 0-2.145-.334-.949-.334-1.52-.985m8.288-5.686V3.56h1.441V.826h2.119V3.56h2.267V5.29h-2.267v3.691q0 .72.246 1.108.246.387.782.387.5 0 .8-.141.299-.15.571-.343l.897 1.31q-.633.518-1.249.747a3.8 3.8 0 0 1-1.362.228q-.774 0-1.318-.228a2.14 2.14 0 0 1-.87-.633 2.6 2.6 0 0 1-.475-1.002 5.6 5.6 0 0 1-.14-1.292V5.291zm8.104 9.29 1.133-2.575h-.914V9.5h2.576v2.47l-1.53 2.61zm8.138-2.575V0h2.083v4.43q.325-.36.949-.703t1.591-.343q.774 0 1.38.255.615.246 1.02.712.413.456.624 1.107.219.642.219 1.415v5.133h-2.127V6.89q0-.81-.439-1.248-.44-.44-1.143-.44-.43 0-.808.176-.378.167-.651.475-.272.298-.43.711-.15.405-.15.87v4.57zm9.879-3.314V3.56h2.118v5.115q0 .809.44 1.257.448.44 1.151.44.43 0 .809-.168.378-.175.641-.483.273-.308.422-.712.159-.405.158-.87v-4.58h2.127v8.447h-2.039l-.052-.958a4 4 0 0 1-.396.378q-.237.201-.545.378a3 3 0 0 1-.694.272q-.396.105-.906.106-1.581 0-2.408-.94-.825-.95-.826-2.55m9.536 2.285 1.275-1.38q.394.396.993.66.606.255 1.38.255.685 0 1.098-.176.413-.184.413-.598a.75.75 0 0 0-.07-.325q-.07-.158-.307-.299a3 3 0 0 0-.642-.29 10 10 0 0 0-1.116-.307 7 7 0 0 1-.906-.29q-.465-.185-.87-.493a2.8 2.8 0 0 1-.668-.755q-.255-.449-.255-1.055 0-.633.299-1.125.308-.501.8-.826a4 4 0 0 1 1.116-.51 4.4 4.4 0 0 1 1.257-.185q1.116 0 1.899.238.782.228 1.415.694l-1.099 1.494a3.5 3.5 0 0 0-.905-.457q-.554-.21-1.31-.21-.755 0-1.055.228-.298.228-.298.545 0 .394.492.624.5.228 1.547.474.65.141 1.16.36.51.22.879.545t.562.765q.202.44.202 1.055 0 .616-.29 1.107a2.5 2.5 0 0 1-.782.835 3.8 3.8 0 0 1-1.151.527q-.66.194-1.398.194-1.187 0-2.144-.334-.95-.334-1.521-.985m8.288-5.686V3.56h1.442V.826h2.118V3.56h2.267V5.29h-2.267v3.691q0 .72.246 1.108.246.387.782.387.501 0 .8-.141.299-.15.571-.343l.897 1.31q-.633.518-1.248.747a3.9 3.9 0 0 1-1.363.228q-.773 0-1.318-.228a2.14 2.14 0 0 1-.87-.633 2.6 2.6 0 0 1-.475-1.002 5.6 5.6 0 0 1-.14-1.292V5.291zm7.779-1.477 1.23-3.796h1.6l-.396 3.796zM14.115 32.006V23.56h2.03l.053.958q.159-.177.387-.378.228-.202.545-.37a3.4 3.4 0 0 1 .712-.272q.395-.114.896-.114 1.582 0 2.409.949.834.94.834 2.54v5.133h-2.126V26.89q0-.81-.44-1.248-.44-.44-1.142-.44-.431 0-.81.176-.377.167-.65.474-.272.3-.43.712-.15.405-.15.87v4.57zm9.932-9.774V20h2.267v2.232zm.07 9.774V23.56h2.127v8.446zm3.911-4.228q0-.914.334-1.731.334-.825.923-1.433.598-.615 1.433-.975a4.6 4.6 0 0 1 1.845-.36q1.029 0 1.872.369a4.4 4.4 0 0 1 1.442.993l-1.354 1.37a2.6 2.6 0 0 0-.843-.64 2.5 2.5 0 0 0-1.117-.238q-.615 0-1.063.228-.448.22-.747.58-.3.36-.448.844-.14.484-.14.993 0 .484.14.958.15.465.448.844.3.378.747.615.448.23 1.063.229a2.65 2.65 0 0 0 2.03-.905l1.266 1.37a4.6 4.6 0 0 1-1.406 1.011q-.808.378-1.89.378-1.08 0-1.933-.325a4 4 0 0 1-1.424-.914 4.1 4.1 0 0 1-.879-1.424 5.4 5.4 0 0 1-.299-1.837m9.255 4.228V20h2.083v4.43q.325-.36.95-.703.623-.343 1.59-.343.774 0 1.38.255.615.246 1.02.712.412.456.624 1.107.22.642.22 1.415v5.133h-2.127V26.89q0-.81-.44-1.248-.44-.44-1.143-.44-.43 0-.808.176-.378.167-.65.474-.273.3-.431.712-.15.405-.15.87v4.57zm9.194-6.715V23.56h1.441v-2.734h2.118v2.734h2.268v1.731h-2.268v3.691q0 .72.246 1.108.246.387.783.387.5 0 .8-.141.298-.15.57-.343l.897 1.31q-.633.518-1.248.747a3.8 3.8 0 0 1-1.362.228q-.773 0-1.319-.228a2.14 2.14 0 0 1-.87-.633 2.6 2.6 0 0 1-.474-1.002 5.6 5.6 0 0 1-.141-1.292v-3.832zm10.819 2.61q0-.931.334-1.757a4.2 4.2 0 0 1 .95-1.442q.623-.615 1.502-.967.888-.351 1.978-.351 1.098 0 2.021.184.931.175 1.512.37v8.209q0 .878-.308 1.564-.308.685-.852 1.151a3.5 3.5 0 0 1-1.275.712 5 5 0 0 1-1.6.246q-.667 0-1.177-.061-.51-.062-.923-.176a4.071 4.071 0 0 1-1.353-.642l.949-1.564q.5.342 1.09.492.588.15 1.38.15.825 0 1.38-.501.561-.501.562-1.407v-.914q-.43.36-.95.59-.51.219-1.353.219-.914 0-1.626-.308a3.6 3.6 0 0 1-1.222-.852 3.8 3.8 0 0 1-.764-1.301 5 5 0 0 1-.255-1.644m2.153-.052q0 .975.484 1.643.492.66 1.573.66.975 0 1.468-.414.492-.413.492-1.318v-3.024a3 3 0 0 0-.528-.131 6 6 0 0 0-.835-.044 2.8 2.8 0 0 0-1.142.22q-.483.21-.826.57-.344.361-.519.845a3 3 0 0 0-.167.993m7.831-.167q0-.932.308-1.732a4.3 4.3 0 0 1 .879-1.389q.57-.597 1.353-.94a4.3 4.3 0 0 1 1.74-.343q1.152 0 1.952.422.799.421 1.283 1.108.492.685.703 1.547.22.861.22 1.766v.299h-6.302q0 .466.211.852.211.379.536.65.334.265.756.414.43.14.844.14.615 0 1.072-.114.458-.123.773-.272a2.9 2.9 0 0 0 .853-.607l1.151 1.301-.298.299a3.5 3.5 0 0 1-.704.51q-.456.272-1.169.483-.712.22-1.696.22a4.8 4.8 0 0 1-1.837-.343 4.2 4.2 0 0 1-1.415-.94 4.1 4.1 0 0 1-.905-1.45 5.5 5.5 0 0 1-.308-1.881m2.118-.791h4.14q0-.325-.123-.642a1.8 1.8 0 0 0-.37-.589 1.9 1.9 0 0 0-.623-.43 2 2 0 0 0-.861-.176q-.52 0-.923.176-.404.166-.677.43a2 2 0 0 0-.422.589q-.14.325-.14.642m7.155-1.6V23.56h1.432v-.519q0-.914.29-1.556.29-.64.739-1.046.448-.404 1.002-.58a3.5 3.5 0 0 1 1.107-.184q.58 0 1.274.167.704.158 1.354.712l-.993 1.406a2.8 2.8 0 0 0-.624-.325 1.9 1.9 0 0 0-.668-.123q-.633 0-1.002.404-.37.404-.37 1.16v.484h2.18v1.731h-2.162v6.715h-2.127V25.29zm6.89 3.401V23.56h2.118v5.115q0 .808.44 1.257.449.44 1.151.44.43 0 .809-.168.378-.175.642-.483.272-.308.421-.712.159-.405.159-.87v-4.58h2.127v8.447h-2.04l-.052-.958a4 4 0 0 1-.396.378 3.01 3.01 0 0 1-1.24.65q-.394.106-.904.106-1.583 0-2.409-.94-.825-.95-.826-2.55m9.95 3.314V23.56h2.03l.053.958q.158-.177.386-.378a2.8 2.8 0 0 1 .545-.37q.317-.166.712-.272.396-.114.897-.114 1.581 0 2.408.949.834.94.835 2.54v5.133h-2.127V26.89q0-.81-.44-1.248-.439-.44-1.142-.44-.43 0-.809.176-.378.167-.65.474-.273.3-.43.712-.15.405-.15.87v4.57zm9.518-4.07q0-.993.281-1.73.29-.748.721-1.275.36-.431.791-.721.44-.29.879-.475.44-.194.853-.272.412-.08.72-.08.413 0 .686.027.272.027.483.07.22.044.396.123l.413.159V20h2.109v12.006h-2.056l-.053-.826a4 4 0 0 1-.396.378 3 3 0 0 1-.545.36 4 4 0 0 1-.703.264 3 3 0 0 1-.87.114q-.685 0-1.353-.29a3.65 3.65 0 0 1-1.196-.844 4.4 4.4 0 0 1-.843-1.371q-.317-.808-.317-1.855m2.136 0q0 1.082.536 1.802.545.72 1.573.721.537 0 .914-.202.387-.211.616-.536a2.2 2.2 0 0 0 .342-.712q.106-.387.106-.747v-2.593a1.7 1.7 0 0 0-.712-.352 4.5 4.5 0 0 0-1.028-.096q-.633 0-1.046.246-.414.237-.721.633-.273.36-.431.843a3.3 3.3 0 0 0-.149.993m7.884-.254q0-.932.307-1.732.316-.8.879-1.389a4.2 4.2 0 0 1 1.354-.94 4.3 4.3 0 0 1 1.74-.343q1.152 0 1.951.422.8.421 1.283 1.108.493.685.703 1.547.22.861.22 1.766v.299h-6.302q0 .466.211.852.212.379.536.65.334.265.756.414.431.14.844.14.615 0 1.072-.114.457-.123.774-.272a2.9 2.9 0 0 0 .852-.607l1.152 1.301-.299.299q-.238.237-.703.51-.458.272-1.169.483-.712.22-1.696.22a4.75 4.75 0 0 1-1.837-.343 4.2 4.2 0 0 1-1.415-.94 4.1 4.1 0 0 1-.906-1.45 5.5 5.5 0 0 1-.307-1.881m2.118-.791h4.139q0-.325-.123-.642a1.8 1.8 0 0 0-.369-.589 1.9 1.9 0 0 0-.624-.43 2 2 0 0 0-.861-.176q-.519 0-.923.176a2.1 2.1 0 0 0-.677.43 2 2 0 0 0-.422.589 1.6 1.6 0 0 0-.14.642m7.963 5.115V23.56h2.03l.053.958q.158-.177.386-.378.229-.202.545-.37.317-.166.712-.272a3.2 3.2 0 0 1 .897-.114q1.581 0 2.408.949.835.94.835 2.54v5.133h-2.127V26.89q0-.81-.439-1.248-.44-.44-1.143-.44-.43 0-.809.176-.377.167-.65.474-.273.3-.431.712-.149.405-.149.87v4.57zm10.09 0v-2.487h2.575v2.487zm4.763-7.831V20h2.013v4.175zm3.059 0V20h2.013v4.175z"/></svg>