<svg xmlns="http://www.w3.org/2000/svg" fill="none" viewBox="0 0 300 250"><g fill="#fff"><path d="m37.436 142.506-6.23-24.068 4.176-1.081 2.299 8.88q.465-.891 1.538-1.902t3.01-1.513q1.551-.401 2.9-.205 1.36.174 2.413.898 1.065.702 1.825 1.897.773 1.172 1.175 2.722l2.663 10.29-4.264 1.104-2.654-10.255q-.42-1.621-1.528-2.274-1.11-.653-2.519-.288a3.9 3.9 0 0 0-1.53.772q-.671.531-1.057 1.289a4.6 4.6 0 0 0-.494 1.651 5.2 5.2 0 0 0 .152 1.821l2.371 9.162zm18.085-11.769-2.664-10.29 4.247-1.099 2.654 10.255q.42 1.62 1.533 2.291 1.126.648 2.536.284a4.1 4.1 0 0 0 1.534-.755 3.9 3.9 0 0 0 1.036-1.302 4.6 4.6 0 0 0 .476-1.646 4.9 4.9 0 0 0-.134-1.826l-2.376-9.18 4.263-1.103 4.383 16.932-4.087 1.058-.603-1.893q-.226.434-.597.962-.37.53-.896 1.041a6.2 6.2 0 0 1-1.25.906q-.74.417-1.76.682-3.172.82-5.317-.636-2.148-1.474-2.978-4.681m20.302-.367 1.84-3.428q.997.588 2.332.806 1.348.197 2.899-.205 1.375-.355 2.11-.922.734-.585.519-1.413a1.56 1.56 0 0 0-.31-.615q-.223-.28-.772-.44-.536-.18-1.436-.248-.906-.085-2.398-.038a15 15 0 0 1-1.965-.111 7.6 7.6 0 0 1-2-.535 5.7 5.7 0 0 1-1.73-1.169q-.745-.767-1.06-1.982-.327-1.269.016-2.41a5.44 5.44 0 0 1 1.175-2.072 8.2 8.2 0 0 1 1.973-1.601 9.2 9.2 0 0 1 2.424-1.022q2.238-.58 3.929-.509a9.3 9.3 0 0 1 3.197.657l-1.428 3.566q-.82-.333-2.051-.447-1.22-.135-2.735.257t-1.996 1.005-.316 1.248q.205.792 1.31.995 1.123.198 3.348.149 1.377-.056 2.512.12 1.137.177 2.045.637.909.46 1.524 1.241.634.776.953 2.009t-.007 2.371a5.2 5.2 0 0 1-1.135 2.079q-.808.943-2.034 1.655-1.221.73-2.701 1.113-2.379.615-4.473.443-2.076-.177-3.559-1.184m13.665-15.701-.899-3.471 2.89-.748-1.419-5.479 4.247-1.099 1.418 5.479 4.546-1.176.898 3.471-4.546 1.176 1.916 7.4q.374 1.446 1.068 2.093.693.647 1.769.369 1.004-.26 1.53-.697.522-.455.967-.983l2.477 2.16q-1 1.368-2.114 2.145-1.097.772-2.613 1.165-1.55.401-2.761.226-1.189-.163-2.073-.817-.888-.672-1.471-1.762a11.5 11.5 0 0 1-.952-2.518l-1.989-7.682z"/><path d="m75.595 156.8-3.404-13.152 2.282-.59 1.256 4.852q.255-.487.84-1.039.587-.552 1.646-.827.847-.219 1.584-.112.743.095 1.319.491.582.384.997 1.036.423.64.642 1.488l1.456 5.623-2.33.603-1.45-5.604q-.23-.885-.836-1.242-.606-.356-1.376-.158a2.15 2.15 0 0 0-.836.422 2.1 2.1 0 0 0-.578.705 2.5 2.5 0 0 0-.27.902q-.05.485.083.995l1.296 5.007zm9.883-6.431-1.456-5.622 2.32-.601 1.451 5.604q.23.885.838 1.252.615.354 1.386.155a2.2 2.2 0 0 0 .838-.413q.365-.299.566-.711.211-.414.26-.899a2.7 2.7 0 0 0-.073-.999l-1.299-5.016 2.33-.603 2.395 9.253-2.233.578-.33-1.035a5 5 0 0 1-.326.527 4 4 0 0 1-.49.568 3.4 3.4 0 0 1-.683.495q-.404.228-.962.373-1.733.448-2.904-.348-1.175-.805-1.628-2.558m11.094-.2 1.005-1.873q.546.321 1.275.44.737.107 1.584-.112.75-.194 1.153-.504.401-.32.283-.772a.85.85 0 0 0-.169-.336q-.122-.153-.421-.24a3.3 3.3 0 0 0-.786-.136 11 11 0 0 0-1.31-.02 8 8 0 0 1-1.074-.061 4.2 4.2 0 0 1-1.092-.293 3.1 3.1 0 0 1-.946-.639q-.407-.418-.578-1.083a2.4 2.4 0 0 1 .008-1.317q.195-.636.642-1.132a4.5 4.5 0 0 1 1.078-.875q.63-.378 1.324-.558 1.224-.317 2.147-.278a5.1 5.1 0 0 1 1.747.359l-.779 1.948q-.449-.181-1.122-.244-.666-.073-1.494.141-.829.214-1.09.549-.263.335-.174.682.113.433.716.544.615.108 1.83.081.752-.03 1.373.066.62.096 1.117.347.497.252.833.679.346.423.521 1.098a2.4 2.4 0 0 1-.004 1.295 2.85 2.85 0 0 1-.62 1.136 4.3 4.3 0 0 1-1.112.905 5.6 5.6 0 0 1-1.476.608q-1.3.336-2.444.242-1.134-.097-1.945-.647m7.467-8.58-.491-1.896 1.579-.409-.775-2.995 2.32-.6.775 2.994 2.485-.643.49 1.897-2.484.643 1.047 4.044q.204.789.584 1.143t.966.202q.549-.142.837-.381.285-.249.528-.537l1.354 1.18q-.547.747-1.156 1.172a4.3 4.3 0 0 1-1.427.637q-.847.219-1.509.123a2.4 2.4 0 0 1-1.133-.446 2.9 2.9 0 0 1-.804-.963 6.3 6.3 0 0 1-.52-1.376l-1.087-4.197z"/><path d="m123.392 161.374-6.23-24.068 4.176-1.081 2.298 8.88q.465-.891 1.538-1.902 1.074-1.011 3.012-1.512 1.55-.402 2.898-.205 1.361.174 2.413.898 1.065.702 1.826 1.896.773 1.172 1.175 2.723l2.663 10.289-4.264 1.104-2.654-10.255q-.42-1.62-1.529-2.273-1.108-.654-2.518-.289a3.9 3.9 0 0 0-1.53.772q-.671.531-1.057 1.289a4.6 4.6 0 0 0-.494 1.651q-.09.888.152 1.822l2.371 9.162zm18.085-11.769-2.664-10.289 4.246-1.099 2.655 10.254q.418 1.621 1.533 2.292 1.126.648 2.536.283a4.1 4.1 0 0 0 1.534-.754q.667-.549 1.036-1.302a4.6 4.6 0 0 0 .476-1.646 4.9 4.9 0 0 0-.134-1.827l-2.377-9.179 4.264-1.104 4.383 16.932-4.088 1.058-.602-1.893q-.227.435-.597.963a7.4 7.4 0 0 1-.896 1.04 6.2 6.2 0 0 1-1.251.907 7.3 7.3 0 0 1-1.76.681q-3.171.82-5.316-.636-2.148-1.474-2.978-4.681m20.302-.367 1.839-3.427q.998.587 2.333.806 1.348.196 2.898-.205 1.375-.356 2.112-.923.732-.584.518-1.412a1.6 1.6 0 0 0-.31-.616q-.223-.28-.772-.439-.536-.182-1.437-.249-.904-.085-2.397-.037a15 15 0 0 1-1.965-.112 7.6 7.6 0 0 1-2-.535 5.7 5.7 0 0 1-1.731-1.169q-.744-.766-1.058-1.982-.328-1.268.015-2.41a5.4 5.4 0 0 1 1.175-2.071 8.2 8.2 0 0 1 1.973-1.601 9.1 9.1 0 0 1 2.424-1.023q2.237-.578 3.928-.509a9.3 9.3 0 0 1 3.197.658l-1.427 3.565q-.819-.333-2.052-.446-1.22-.136-2.734.256-1.515.393-1.996 1.006-.48.612-.316 1.247.204.793 1.31.996 1.123.198 3.347.148 1.377-.055 2.513.121a6.8 6.8 0 0 1 2.045.636 4.5 4.5 0 0 1 1.524 1.241q.633.776.953 2.01t-.007 2.37a5.24 5.24 0 0 1-1.135 2.08q-.809.942-2.034 1.654a10.2 10.2 0 0 1-2.702 1.113q-2.378.616-4.472.443-2.076-.177-3.559-1.184m13.664-15.7-.898-3.471 2.89-.748-1.419-5.48 4.246-1.099 1.419 5.48 4.546-1.177.898 3.471-4.546 1.177 1.916 7.4q.373 1.444 1.068 2.092.693.648 1.768.369 1.005-.26 1.531-.696.521-.454.967-.984l2.477 2.16q-1 1.368-2.114 2.145-1.098.773-2.613 1.165-1.55.402-2.761.226-1.19-.162-2.073-.817-.889-.673-1.471-1.762a11.5 11.5 0 0 1-.953-2.517l-1.988-7.682z"/></g></svg>