<svg width="72" height="72" viewBox="0 0 72 72" fill="none" xmlns="http://www.w3.org/2000/svg">
<mask id="mask0_8801_728" style="mask-type:luminance" maskUnits="userSpaceOnUse" x="2" y="2" width="68" height="68">
<path d="M70 2H2V70H70V2Z" fill="white"/>
</mask>
<g mask="url(#mask0_8801_728)">
<path d="M40.1499 69.7428C58.7813 67.4532 72.0321 50.4818 69.7425 31.8505C67.453 13.2192 50.4816 -0.0316203 31.8503 2.25794C13.219 4.5475 -0.0318699 21.5189 2.25769 40.1502C4.54726 58.7815 21.5186 72.0323 40.1499 69.7428Z" fill="#E30613"/>
</g>
<path d="M14.707 54.7743L12.5605 37.202L15.1077 36.8871L26.3838 49.4225L24.6952 35.7137L27.1565 35.3989L29.303 52.9713L26.7845 53.2861L15.4797 40.7222L17.1683 54.4595L14.707 54.7743Z" fill="white"/>
<path d="M35.3415 52.2272L32.9661 52.5134L31.6209 41.4663C31.6209 41.3518 31.5923 41.2087 31.5637 41.037C31.5637 40.8653 31.5065 40.6363 31.4492 40.2643L33.7102 39.9781L34.025 41.9528C34.1967 41.638 34.4257 41.2946 34.7118 40.9225C35.0267 40.5505 35.3987 40.207 35.9139 39.8922C36.4004 39.5774 37.03 39.3771 37.7741 39.2912C38.0317 39.2626 38.2893 39.234 38.5182 39.2626C38.7472 39.2626 38.9475 39.2912 39.1479 39.3484L38.8903 41.638C38.5469 41.5521 38.1462 41.5521 37.6597 41.6094C37.0014 41.6952 36.4004 41.9242 35.9139 42.3535C35.4273 42.7542 35.0553 43.2693 34.7977 43.8703C34.5401 44.4713 34.4829 45.101 34.5401 45.7878L35.3415 52.2272Z" fill="white"/>
<path d="M39.8921 51.6836L39.52 48.7358L42.4964 48.3638L42.8685 51.3116L39.8921 51.6836Z" fill="white"/>
<path d="M51.34 50.281L51.0252 47.7911L54.5167 47.3618L52.7996 33.281L49.0218 35.9426L47.5908 33.882L52.7137 30.1901L55.2322 29.8752L57.3501 47.0183L60.7844 46.589L61.0992 49.0789L51.3686 50.281H51.34Z" fill="white"/>
<path d="M18.4562 22.7778L17.7407 16.9108L21.4326 16.4529L21.5185 17.197L18.6565 17.5404L18.8569 19.2576L21.0033 19L21.0892 19.7441L18.9427 20.0017L19.1717 21.8906L22.234 21.5185L22.3198 22.2626L18.399 22.7492L18.4562 22.7778Z" fill="white"/>
<path d="M23.1786 20.5454L22.8638 18.0841L23.6651 17.9982L23.9513 20.4023C24.0085 20.7743 24.123 21.0605 24.2947 21.2036C24.4665 21.3467 24.724 21.4326 25.0102 21.3753C25.325 21.3467 25.554 21.2322 25.6971 21.0605C25.8402 20.8888 25.9547 20.6598 25.9833 20.4023C26.0405 20.1447 26.0405 19.8871 25.9833 19.6295L25.7543 17.7406L26.5557 17.6548L27.0136 21.3467C27.0136 21.3467 27.0136 21.4326 27.0136 21.5184C27.0136 21.6043 27.0136 21.6901 27.0422 21.776L26.2981 21.8619L26.1836 21.2608C26.1264 21.3753 26.0405 21.4612 25.9547 21.6043C25.8402 21.7188 25.7257 21.8332 25.554 21.9477C25.3823 22.0336 25.182 22.1194 24.9244 22.1481C24.3806 22.2053 23.9799 22.1194 23.6937 21.8332C23.4075 21.547 23.2358 21.1464 23.15 20.6312L23.1786 20.5454Z" fill="white"/>
<path d="M29.1028 21.4612L28.3015 21.5471L27.8436 17.8551C27.8436 17.8265 27.8436 17.7693 27.8436 17.712C27.8436 17.6548 27.8436 17.5689 27.8149 17.4545L28.5591 17.3686L28.6735 18.0269C28.7308 17.9124 28.8166 17.7979 28.9025 17.6834C29.017 17.5689 29.1314 17.4545 29.3032 17.34C29.4749 17.2255 29.6752 17.1683 29.9328 17.1396C30.0186 17.1396 30.1045 17.1396 30.1904 17.1396C30.2762 17.1396 30.3335 17.1396 30.3907 17.1396L30.3048 17.9124C30.1904 17.9124 30.0473 17.8838 29.9042 17.9124C29.6752 17.9124 29.4749 18.0269 29.3318 18.17C29.1601 18.313 29.0456 18.4848 28.9597 18.6851C28.8739 18.8854 28.8452 19.1144 28.8739 19.3434L29.1314 21.4898L29.1028 21.4612Z" fill="white"/>
<path d="M33.653 21.032C33.2237 21.0893 32.8517 21.032 32.5082 20.8603C32.1648 20.7172 31.8786 20.4596 31.6497 20.1734C31.4207 19.8586 31.2776 19.5152 31.249 19.1145C31.1917 18.7139 31.249 18.3418 31.3921 17.9984C31.5352 17.6549 31.7641 17.3401 32.079 17.1112C32.3938 16.8822 32.7372 16.7391 33.1665 16.6819C33.5958 16.6246 33.9678 16.6819 34.3113 16.8536C34.6547 16.9967 34.9409 17.2543 35.1699 17.5405C35.3988 17.8553 35.5419 18.1987 35.5992 18.5994C35.6564 19 35.5992 19.3721 35.4561 19.7155C35.313 20.059 35.084 20.3738 34.7692 20.6027C34.4544 20.8317 34.1109 20.9748 33.6816 21.032H33.653ZM33.5672 20.3452C33.8534 20.3165 34.0823 20.2021 34.2827 20.0303C34.4544 19.8586 34.5975 19.6583 34.6833 19.4007C34.7692 19.1718 34.7978 18.9142 34.7692 18.6566C34.7406 18.399 34.6547 18.1701 34.5116 17.9697C34.3685 17.7408 34.1968 17.5977 33.9678 17.4546C33.7389 17.3401 33.4813 17.2829 33.2237 17.3401C32.9375 17.3687 32.7086 17.4832 32.5082 17.6549C32.3079 17.8266 32.1934 18.027 32.1076 18.2559C32.0217 18.4849 31.9931 18.7425 32.0217 19C32.0503 19.2576 32.1362 19.4866 32.2793 19.6869C32.4224 19.8873 32.5941 20.059 32.8231 20.2021C33.052 20.3452 33.281 20.3738 33.5672 20.3452Z" fill="white"/>
<path d="M37.8317 22.2056L37.0589 22.2915L36.4007 16.8538C36.4007 16.7965 36.4007 16.7393 36.4007 16.682C36.4007 16.6248 36.4007 16.5389 36.3721 16.4245L37.1162 16.3386L37.202 16.911C37.2593 16.8251 37.3165 16.7393 37.431 16.6248C37.5455 16.5103 37.66 16.3959 37.8603 16.2814C38.032 16.1669 38.261 16.1097 38.5185 16.081C38.9478 16.0238 39.2913 16.081 39.6061 16.2528C39.8923 16.4245 40.1498 16.6534 40.3216 16.9682C40.4933 17.2831 40.6078 17.6265 40.665 17.9985C40.7222 18.3706 40.665 18.6854 40.6078 19.0002C40.5219 19.2864 40.3788 19.544 40.1785 19.7443C40.0067 19.9447 39.7778 20.0878 39.5488 20.2022C39.3199 20.3167 39.0623 20.4026 38.8333 20.4312C38.5472 20.4598 38.3468 20.4598 38.1751 20.4312C38.0034 20.4026 37.8317 20.3453 37.6886 20.3167L37.9175 22.2056H37.8317ZM37.3738 18.4851L37.4882 19.544C37.6027 19.6012 37.7458 19.6585 37.9175 19.7157C38.0892 19.773 38.3182 19.773 38.6044 19.7157C38.862 19.6871 39.0909 19.6012 39.2913 19.4295C39.4916 19.2578 39.6061 19.0861 39.6919 18.8571C39.7778 18.6282 39.8064 18.3706 39.7778 18.0844C39.7492 17.8268 39.6633 17.5693 39.5775 17.3689C39.463 17.1686 39.3199 16.9969 39.1195 16.8824C38.9192 16.7679 38.6903 16.7393 38.3754 16.7679C38.0892 16.7965 37.8603 16.911 37.6886 17.0827C37.5169 17.2544 37.4024 17.512 37.3451 17.8268C37.3451 17.9127 37.3451 18.0272 37.3451 18.1416C37.3451 18.2561 37.3451 18.3706 37.3451 18.4851H37.3738Z" fill="white"/>
<path d="M44.4427 19.601L44.3568 19.1144C44.2423 19.3434 44.042 19.5151 43.813 19.6296C43.5841 19.7727 43.3265 19.8586 43.0689 19.8872C42.84 19.8872 42.611 19.8872 42.3821 19.8586C42.1531 19.8013 41.9528 19.6868 41.781 19.5151C41.6093 19.3434 41.5235 19.1144 41.4662 18.7996C41.409 18.3703 41.5235 17.9983 41.8097 17.6835C42.0959 17.3687 42.5252 17.1969 43.0975 17.1111C43.2406 17.1111 43.3551 17.1111 43.4982 17.0825C43.6413 17.0825 43.7558 17.0825 43.8703 17.0825C43.9847 17.0825 44.0706 17.0825 44.0992 17.0825V16.9394C44.042 16.6245 43.9275 16.4242 43.7272 16.3097C43.5268 16.1953 43.2693 16.1666 42.9544 16.1953C42.6396 16.2239 42.4107 16.3097 42.239 16.4242C42.0672 16.5387 41.9241 16.6245 41.8097 16.739L41.3804 16.2525C41.5235 16.1094 41.6952 15.9663 41.9528 15.8232C42.2103 15.6801 42.5538 15.5942 42.9831 15.537C43.4982 15.4798 43.9275 15.537 44.2709 15.766C44.6144 15.9949 44.8147 16.3383 44.872 16.7963L45.1581 19.1717C45.1581 19.2003 45.1581 19.2575 45.1581 19.3148C45.1581 19.372 45.1581 19.4579 45.1868 19.5151L44.4427 19.601ZM44.2423 18.1128L44.1851 17.6548C44.1565 17.6548 44.0992 17.6548 43.9847 17.6548C43.8703 17.6548 43.7558 17.6548 43.6127 17.6548C43.4696 17.6548 43.3551 17.6548 43.2406 17.6835C42.9544 17.7121 42.7255 17.7979 42.5824 17.8838C42.4393 17.9983 42.3534 18.1128 42.2962 18.2272C42.2676 18.3703 42.239 18.4848 42.2676 18.5993C42.2676 18.8282 42.3821 18.9713 42.5538 19.0858C42.7255 19.1717 42.9258 19.2289 43.212 19.1717C43.4124 19.1717 43.6127 19.0858 43.7558 18.9713C43.9275 18.8569 44.042 18.7138 44.1278 18.5707C44.2137 18.399 44.2423 18.2559 44.2423 18.0841V18.1128Z" fill="white"/>
<path d="M46.1315 18.8855L46.5608 18.2844C46.7325 18.4275 46.9042 18.5134 47.1332 18.5706C47.3621 18.6279 47.5911 18.6565 47.8486 18.6279C48.1062 18.5993 48.3352 18.5134 48.5069 18.4275C48.6786 18.3131 48.7359 18.17 48.7359 17.9983C48.7359 17.8552 48.6786 17.7693 48.5928 17.7121C48.5069 17.6548 48.3924 17.5976 48.1921 17.5403C48.0204 17.5117 47.7628 17.4545 47.4766 17.4259C47.2476 17.4259 47.0473 17.34 46.847 17.2828C46.6466 17.2255 46.4463 17.111 46.3032 16.9679C46.1601 16.8248 46.0742 16.6245 46.0456 16.3669C46.017 16.1094 46.0456 15.8804 46.1887 15.6801C46.3318 15.4797 46.5035 15.308 46.7325 15.1935C46.9614 15.0791 47.219 14.9932 47.4766 14.9646C47.82 14.936 48.1348 14.936 48.3924 14.9646C48.65 15.0218 48.879 15.1363 49.0793 15.2794L48.7072 15.8804C48.5641 15.7945 48.3924 15.7087 48.2207 15.6514C48.0204 15.5942 47.82 15.5942 47.5625 15.6228C47.3049 15.6514 47.1045 15.7087 46.9614 15.8232C46.8183 15.9376 46.7611 16.0807 46.7897 16.2525C46.7897 16.4242 46.9328 16.5387 47.1332 16.5959C47.3621 16.6531 47.6197 16.7104 47.9631 16.739C48.2207 16.739 48.4783 16.8248 48.6786 16.8821C48.9076 16.9393 49.0793 17.0538 49.2224 17.2255C49.3655 17.3686 49.4513 17.569 49.48 17.8552C49.5086 18.1127 49.48 18.3703 49.3082 18.5706C49.1651 18.771 48.9648 18.9427 48.7359 19.0572C48.4783 19.1717 48.2207 19.2575 47.9059 19.3147C47.1332 19.4006 46.5322 19.2861 46.0742 18.9141L46.1315 18.8855Z" fill="white"/>
<path d="M11.7306 31.9646L11.0151 26.0976L11.8737 25.9832L12.1885 28.4444L15.3939 28.0438L15.0791 25.5825L15.9377 25.468L16.6532 31.335L15.7946 31.4495L15.4798 28.7879L12.2744 29.1886L12.5892 31.8502L11.7306 31.9646Z" fill="white"/>
<path d="M17.7694 29.5607L17.4546 27.0995L18.2559 27.0136L18.5421 29.4176C18.5994 29.7897 18.7138 30.0759 18.8856 30.219C19.0573 30.3621 19.3149 30.4479 19.6011 30.3907C19.9159 30.3621 20.1448 30.2476 20.2879 30.0759C20.431 29.9042 20.5455 29.6752 20.5741 29.4176C20.6314 29.1601 20.6314 28.9025 20.5741 28.6449L20.3452 26.756L21.1465 26.6702L21.6044 30.3621C21.6044 30.3621 21.6044 30.4479 21.6044 30.5338C21.6044 30.6197 21.6044 30.7055 21.633 30.7914L20.8889 30.8772L20.7745 30.2762C20.7172 30.3907 20.6314 30.4766 20.5455 30.6197C20.431 30.7341 20.3165 30.8486 20.1448 30.9631C19.9731 31.049 19.7728 31.1348 19.5152 31.1634C18.9714 31.2207 18.5708 31.1348 18.2846 30.8486C17.9984 30.5624 17.8266 30.1617 17.7408 29.6466L17.7694 29.5607Z" fill="white"/>
<path d="M22.5201 30.133L22.9494 29.532C23.1212 29.6465 23.2929 29.761 23.5218 29.8182C23.7508 29.8754 23.9797 29.9041 24.2373 29.8754C24.4949 29.8468 24.7239 29.761 24.8956 29.6751C25.0673 29.5606 25.1245 29.4175 25.1245 29.2458C25.1245 29.1027 25.0673 29.0169 24.9814 28.9596C24.8956 28.9024 24.7811 28.8451 24.5808 28.7879C24.409 28.7593 24.1515 28.702 23.8653 28.6734C23.6363 28.6734 23.436 28.5876 23.2356 28.5303C23.0353 28.4731 22.835 28.3586 22.6919 28.2155C22.5488 28.0724 22.4629 27.8721 22.4343 27.6145C22.4057 27.3569 22.4343 27.128 22.5774 26.9276C22.7205 26.7273 22.8922 26.5556 23.1212 26.4411C23.3501 26.3266 23.6077 26.2408 23.8653 26.2121C24.2087 26.1835 24.5235 26.1835 24.7811 26.2121C25.0387 26.2694 25.2676 26.3839 25.468 26.527L25.0959 27.128C24.9528 27.0421 24.7811 26.9562 24.6094 26.899C24.409 26.8418 24.1801 26.8418 23.9511 26.8704C23.6935 26.899 23.4932 26.9562 23.3501 27.0707C23.207 27.1852 23.1498 27.3283 23.1784 27.5C23.1784 27.6717 23.3215 27.7862 23.5218 27.8435C23.7508 27.9007 24.0084 27.9579 24.3518 27.9866C24.6094 27.9866 24.8669 28.0724 25.0673 28.1296C25.2962 28.1869 25.468 28.3014 25.6111 28.4731C25.7542 28.6162 25.84 28.8165 25.8686 29.1027C25.8973 29.3603 25.8686 29.6179 25.6969 29.8182C25.5538 30.0185 25.3535 30.1903 25.1245 30.3047C24.867 30.4192 24.6094 30.5051 24.2946 30.5623C23.5218 30.6482 22.9208 30.5337 22.4629 30.1616L22.5201 30.133Z" fill="white"/>
<path d="M27.2423 28.7021L26.9848 26.6129L26.2406 26.6988L26.1548 26.0405L26.8989 25.9547L26.7272 24.6095L27.5285 24.5237L27.7002 25.8688L28.9023 25.7257L28.9881 26.384L27.7861 26.527L28.0437 28.5304C28.0723 28.8452 28.1582 29.0742 28.2726 29.1887C28.3871 29.3031 28.5302 29.3318 28.7305 29.3318C28.8736 29.3318 29.0167 29.2745 29.1026 29.2173C29.1885 29.16 29.3029 29.0742 29.3602 28.9597L29.7895 29.389C29.6464 29.5607 29.4747 29.7038 29.3029 29.8183C29.1312 29.9042 28.9309 29.99 28.6733 30.0186C28.244 30.0759 27.9006 30.0186 27.6716 29.7897C27.4427 29.5893 27.2996 29.2173 27.2423 28.7308V28.7021Z" fill="white"/>
<path d="M33.5677 28.1869L34.0828 28.6162C34.0256 28.7021 33.9397 28.7879 33.7966 28.931C33.6535 29.0741 33.4818 29.1886 33.2529 29.3031C33.0239 29.4176 32.7377 29.5034 32.3943 29.5607C31.965 29.6179 31.5929 29.5607 31.2495 29.4176C30.9061 29.2745 30.6199 29.0455 30.3909 28.7307C30.1619 28.4159 30.0475 28.0438 29.9902 27.6145C29.933 27.2139 29.9902 26.8418 30.1047 26.4984C30.2478 26.1549 30.4481 25.8687 30.7343 25.6398C31.0205 25.4108 31.364 25.2677 31.7646 25.2105C32.2512 25.1533 32.6518 25.2105 32.9667 25.4108C33.2815 25.6112 33.5391 25.8687 33.7108 26.2122C33.8825 26.5556 33.997 26.9277 34.0542 27.357L30.8202 27.7576C30.8488 27.9866 30.9347 28.2155 31.1064 28.3873C31.2495 28.559 31.4212 28.7021 31.6502 28.7879C31.8791 28.8738 32.0795 28.9024 32.337 28.8738C32.6805 28.8452 32.9667 28.7307 33.167 28.5876C33.3673 28.4445 33.5104 28.3014 33.5963 28.1869H33.5677ZM30.7343 27.1852L33.1384 26.899C33.0811 26.5842 32.938 26.3267 32.7091 26.1263C32.4801 25.926 32.1939 25.8401 31.8219 25.8974C31.5643 25.926 31.364 26.0118 31.1922 26.1549C31.0205 26.298 30.9061 26.4411 30.8202 26.6415C30.7343 26.8132 30.7057 27.0135 30.7343 27.2139V27.1852Z" fill="white"/>
<path d="M35.9998 28.9881L35.1984 29.0739L34.7405 25.4106C34.7405 25.3534 34.7405 25.2961 34.7405 25.2389C34.7405 25.1817 34.7405 25.0958 34.7119 24.9813L35.456 24.8955L35.5705 25.4965C35.6277 25.382 35.7136 25.2675 35.8281 25.153C35.9426 25.0386 36.057 24.9241 36.2287 24.8096C36.4005 24.6951 36.6008 24.6379 36.8584 24.6093C37.4021 24.552 37.8028 24.6379 38.1176 24.9241C38.4038 25.2103 38.6042 25.611 38.6614 26.1261L38.9762 28.5874L38.1749 28.6732L37.8887 26.2692C37.8314 25.8971 37.717 25.611 37.5452 25.4679C37.3449 25.2961 37.116 25.2389 36.8298 25.2961C36.5436 25.3248 36.3146 25.4392 36.1429 25.611C35.9998 25.7827 35.8853 26.0116 35.8567 26.2692C35.7995 26.5268 35.7995 26.7844 35.8567 27.0419L36.0857 28.9308L35.9998 28.9881Z" fill="white"/>
<path d="M40.0924 28.4731L39.377 22.6061L40.1783 22.5203L40.8938 28.3873L40.0924 28.4731Z" fill="white"/>
<path d="M44.0705 28.1297C43.6412 28.187 43.2692 28.1297 42.9257 27.958C42.5823 27.8149 42.2961 27.5573 42.0671 27.2711C41.8382 26.9563 41.6951 26.6129 41.6665 26.2122C41.6092 25.8115 41.6665 25.4395 41.8096 25.0961C41.9527 24.7526 42.1816 24.4378 42.4964 24.2089C42.8112 23.9799 43.1547 23.8368 43.584 23.7796C44.0133 23.7223 44.3853 23.7796 44.7288 23.9513C45.0722 24.0944 45.3584 24.352 45.5873 24.6381C45.8163 24.953 45.9594 25.2964 46.0166 25.6971C46.0739 26.0977 46.0166 26.4698 45.8735 26.8132C45.7304 27.1567 45.5015 27.4715 45.1867 27.7004C44.8718 27.9294 44.5284 28.0725 44.0991 28.1297H44.0705ZM42.2675 23.2072L42.1816 22.4058L43.0116 22.2913L43.0974 23.0927L42.2675 23.2072ZM43.9846 27.4429C44.2708 27.4142 44.4998 27.2998 44.7001 27.128C44.8719 26.9563 45.015 26.756 45.1008 26.4984C45.1867 26.2695 45.2153 26.0119 45.1867 25.7543C45.158 25.4967 45.0722 25.2678 44.9291 25.0674C44.786 24.8385 44.6143 24.6954 44.3853 24.5523C44.1564 24.4378 43.8988 24.3806 43.6412 24.4378C43.355 24.4664 43.1261 24.5809 42.9257 24.7526C42.7254 24.9243 42.6109 25.1247 42.5251 25.3536C42.4392 25.5826 42.4106 25.8402 42.4392 26.0977C42.4678 26.3553 42.5537 26.5843 42.6968 26.7846C42.8399 26.9849 43.0116 27.1567 43.2405 27.2998C43.4695 27.4429 43.6984 27.4715 43.9846 27.4429ZM43.7843 23.0355L43.6984 22.2341L44.5284 22.1196L44.6143 22.921L43.7843 23.0355Z" fill="white"/>
<path d="M46.818 27.1565L47.2473 26.5554C47.419 26.6699 47.5907 26.7844 47.8197 26.8416C48.0486 26.8989 48.2776 26.9275 48.5352 26.8989C48.7927 26.8703 49.0217 26.7844 49.1934 26.6985C49.3651 26.5841 49.4224 26.441 49.4224 26.2692C49.4224 26.1262 49.3651 26.0403 49.2793 25.9831C49.1934 25.9258 49.0789 25.8686 48.8786 25.8113C48.7069 25.7827 48.4493 25.7255 48.1631 25.6969C47.9342 25.6969 47.7338 25.611 47.5335 25.5538C47.3332 25.4965 47.1328 25.382 46.9897 25.2389C46.8466 25.0958 46.7608 24.8955 46.7321 24.6379C46.7035 24.3804 46.7321 24.1514 46.8752 23.9511C47.0183 23.7507 47.1901 23.579 47.419 23.4645C47.648 23.3501 47.9055 23.2642 48.1631 23.2356C48.5066 23.207 48.8214 23.207 49.0789 23.2356C49.3365 23.2928 49.5655 23.4073 49.7658 23.5504L49.3938 24.1514C49.2507 24.0655 49.0789 23.9797 48.9072 23.9224C48.7069 23.8652 48.5066 23.8652 48.249 23.8938C47.9914 23.9224 47.7911 23.9797 47.648 24.0942C47.5049 24.2086 47.4476 24.3517 47.4762 24.5235C47.4762 24.6952 47.6193 24.8097 47.8197 24.8669C48.0486 24.9241 48.3062 24.9814 48.6496 25.01C48.9072 25.01 49.1648 25.0958 49.3651 25.1531C49.5941 25.2103 49.7658 25.3248 49.9089 25.4965C50.052 25.6396 50.1379 25.84 50.1665 26.1262C50.1951 26.3837 50.1665 26.6413 49.9948 26.8416C49.8517 27.042 49.6513 27.2137 49.4224 27.3282C49.1648 27.4713 48.9072 27.5285 48.5924 27.5857C47.8197 27.6716 47.2187 27.5571 46.7608 27.1851L46.818 27.1565Z" fill="white"/>
<path d="M54.431 25.6396L54.9461 26.0689C54.8889 26.1547 54.803 26.2406 54.6599 26.3837C54.5168 26.5268 54.3451 26.6412 54.1161 26.7557C53.8872 26.8702 53.601 26.9561 53.2576 27.0133C52.8283 27.0705 52.4562 27.0133 52.1128 26.8702C51.7693 26.7271 51.4831 26.4981 51.2542 26.1833C51.0252 25.8685 50.9107 25.4965 50.8535 25.0672C50.7963 24.6665 50.8535 24.2944 50.968 23.951C51.1111 23.6076 51.3114 23.3214 51.5976 23.0924C51.8838 22.8635 52.2272 22.7204 52.6279 22.6631C53.1145 22.6059 53.5151 22.6631 53.8299 22.8635C54.1448 23.0638 54.4023 23.3214 54.574 23.6648C54.7458 24.0082 54.8602 24.3803 54.9175 24.8096L51.6835 25.2103C51.7121 25.4392 51.798 25.6682 51.9697 25.8399C52.1128 26.0116 52.2845 26.1547 52.5134 26.2406C52.7424 26.3264 52.9427 26.355 53.2003 26.3264C53.5437 26.2978 53.8299 26.1833 54.0303 26.0402C54.2306 25.8971 54.3737 25.754 54.4596 25.6396H54.431ZM51.5976 24.6379L54.0017 24.3517C53.9444 24.0369 53.8013 23.7793 53.5724 23.579C53.3434 23.3786 53.0572 23.2928 52.6852 23.35C52.4276 23.3786 52.2272 23.4645 52.0555 23.6076C51.8838 23.7507 51.7693 23.8938 51.6835 24.0941C51.5976 24.2944 51.569 24.4662 51.5976 24.6665V24.6379Z" fill="white"/>
<path d="M56.8636 26.4412L56.0622 26.527L55.6043 22.8351C55.6043 22.8065 55.6043 22.7493 55.6043 22.692C55.6043 22.6348 55.6043 22.5489 55.5757 22.4344L56.3198 22.3486L56.4343 23.0068C56.4915 22.8924 56.5774 22.7779 56.6632 22.6634C56.7777 22.5489 56.8922 22.4344 57.0639 22.32C57.2356 22.2055 57.436 22.1482 57.6935 22.1196C57.7794 22.1196 57.8652 22.1196 57.9511 22.1196C58.037 22.1196 58.0942 22.1196 58.1514 22.1196L58.0656 22.8924C57.9511 22.8924 57.808 22.8637 57.6649 22.8924C57.436 22.8924 57.2356 23.0068 57.0925 23.1499C56.9208 23.293 56.8063 23.4647 56.7205 23.6651C56.6346 23.8654 56.606 24.0944 56.6346 24.3233L56.8922 26.4698L56.8636 26.4412Z" fill="white"/>
<path d="M57.4359 31.0488L57.2642 30.734L57.8938 30.3906L57.2642 30.0472L57.4359 29.7324L58.0369 30.1044V29.3889C58.0083 29.3889 58.3803 29.3889 58.3803 29.3889V30.1044L58.9527 29.7324L59.1244 30.0472L58.4948 30.3906L59.1244 30.734L58.9527 31.0488L58.3517 30.6768V31.3923H58.0083V30.6768C58.0369 30.6768 57.4359 31.0488 57.4359 31.0488Z" fill="white"/>
</svg>
