<svg xmlns="http://www.w3.org/2000/svg" fill="none" viewBox="0 0 95 33"><path fill="#fff" d="M.748 2.786.374 1.069C.867.729 1.819.406 2.907.406c2.176 0 3.196 1.326 3.196 2.822 0 1.173-.782 2.312-1.938 2.601v.034c1.343.272 2.278 1.292 2.278 2.873 0 2.193-1.87 3.4-3.927 3.4-.952 0-1.785-.221-2.312-.51l.323-1.819c.493.289 1.139.459 1.768.459 1.19 0 1.819-.68 1.819-1.598 0-1.275-1.054-1.785-2.261-1.785H1.53V5.2h.221c1.02 0 2.04-.493 2.04-1.547 0-.799-.493-1.343-1.445-1.343-.527 0-1.156.221-1.598.476m10.92 6.596H9.613L9.102 12h-2.16L9.426.542h2.669L14.32 12h-2.16zM9.834 7.648h1.632l-.374-2.397a87 87 0 0 1-.374-2.601h-.051c-.12.765-.29 1.955-.408 2.618zM15.579.542h5.848v1.904h-3.638v2.397c.323-.068.578-.085.9-.085.987 0 1.854.306 2.483.85.68.595 1.088 1.496 1.088 2.652 0 1.105-.34 1.989-.952 2.601-.782.833-2.006 1.224-3.655 1.224-.85 0-1.564-.051-2.074-.119zm2.227 6.052v3.672c.153.034.306.034.493.034.527 0 .952-.204 1.224-.544.289-.34.425-.816.425-1.326 0-.527-.153-1.003-.442-1.326a1.54 1.54 0 0 0-1.19-.561q-.28 0-.51.051M26.86.406c2.771 0 3.553 3.043 3.553 5.661 0 4.318-1.53 6.069-3.706 6.069-2.6 0-3.62-2.754-3.62-5.899 0-3.128 1.24-5.831 3.773-5.831m-.085 1.938c-.884 0-1.377 1.462-1.377 3.927 0 2.601.493 3.927 1.394 3.927.935 0 1.292-1.7 1.292-4.029 0-2.006-.306-3.825-1.309-3.825M32.84 12V2.599h-2.023V.542h6.29v2.057h-2.04V12zm8.545-2.618h-2.057L38.818 12H36.66L39.141.542h2.67L44.036 12h-2.159zM39.55 7.648h1.632l-.374-2.397a87 87 0 0 1-.374-2.601h-.05c-.12.765-.29 1.955-.409 2.618zM4.2 20.406c2.771 0 3.553 3.043 3.553 5.661 0 4.318-1.53 6.069-3.706 6.069-2.601 0-3.621-2.754-3.621-5.899 0-3.128 1.241-5.831 3.774-5.831m-.085 1.938c-.884 0-1.377 1.462-1.377 3.927 0 2.601.493 3.927 1.394 3.927.935 0 1.292-1.7 1.292-4.029 0-2.006-.306-3.825-1.309-3.825M19.084 32l-.203-4.012c-.051-1.088-.136-2.567-.102-3.791h-.051a50 50 0 0 1-.731 3.519l-.986 4.097H15.43l-.952-4.029c-.221-.918-.527-2.346-.697-3.587h-.051a127 127 0 0 1-.17 3.825L13.373 32h-1.921l.833-11.458h2.346l.918 4.148c.323 1.445.612 2.72.816 4.012h.034c.17-1.275.425-2.567.73-4.012l.902-4.148h2.346L21.074 32zm3.617-11.458h1.972v2.533c0 2.108-.136 4.08-.221 5.27h.034c.323-.986.9-2.482 1.24-3.366l1.684-4.437h2.023V32h-1.955v-2.584c0-2.295.085-3.995.136-5.151h-.034c-.255 1.037-.765 2.414-1.14 3.366L24.759 32H22.7zm8.716 0h2.176v4.981h.17l1.87-4.981h2.448l-2.635 5.304c1.173.442 1.564 1.513 1.887 2.907.255 1.105.442 2.193.782 3.247h-2.227c-.272-.816-.442-1.751-.63-2.652-.271-1.343-.577-2.21-1.495-2.21h-.17V32h-2.176zM39.137 32V20.712c.628-.136 1.478-.221 2.328-.221 1.326 0 2.363.187 3.111.884.68.595.986 1.547.986 2.516 0 1.241-.374 2.108-.969 2.754-.714.748-1.87 1.088-2.788 1.088h-.442V32zm2.226-9.622v3.536c.102.034.221.034.357.034 1.122 0 1.632-.799 1.632-1.87 0-1.003-.408-1.785-1.445-1.785a1.7 1.7 0 0 0-.544.085m8.756-1.972c2.77 0 3.553 3.043 3.553 5.661 0 4.318-1.53 6.069-3.706 6.069-2.601 0-3.621-2.754-3.621-5.899 0-3.128 1.24-5.831 3.774-5.831m-.085 1.938c-.884 0-1.377 1.462-1.377 3.927 0 2.601.493 3.927 1.394 3.927.935 0 1.292-1.7 1.292-4.029 0-2.006-.306-3.825-1.31-3.825m8.133-2.21h1.956v.867c2.057.272 3.62 1.887 3.62 5.185 0 3.519-1.58 4.998-3.62 5.287v.935H58.15v-.935c-2.075-.306-3.622-1.768-3.622-5.236 0-3.366 1.853-4.964 3.638-5.236zm0 9.707v-7.225c-.68.204-1.41 1.122-1.41 3.655 0 2.363.714 3.417 1.41 3.57m1.938-7.225v7.225c.749-.153 1.412-1.071 1.412-3.638 0-2.601-.766-3.434-1.412-3.587m5.372-2.074h5.967V32h-2.227v-9.52h-1.7v3.026c0 2.635-.17 4.947-1.615 6.069-.425.34-.97.561-1.53.561l-.476-1.887c.272-.068.56-.204.765-.408.663-.68.816-1.904.816-4.131zm11.155-.136c2.77 0 3.553 3.043 3.553 5.661 0 4.318-1.53 6.069-3.706 6.069-2.601 0-3.621-2.754-3.621-5.899 0-3.128 1.24-5.831 3.774-5.831m-.085 1.938c-.884 0-1.377 1.462-1.377 3.927 0 2.601.493 3.927 1.394 3.927.935 0 1.292-1.7 1.292-4.029 0-2.006-.306-3.825-1.31-3.825M81.603 32V20.712c.63-.136 1.48-.221 2.33-.221 1.325 0 2.362.187 3.11.884.68.595.986 1.547.986 2.516 0 1.241-.374 2.108-.969 2.754-.714.748-1.87 1.088-2.788 1.088h-.442V32zm2.227-9.622v3.536c.102.034.221.034.357.034 1.122 0 1.632-.799 1.632-1.87 0-1.003-.408-1.785-1.445-1.785a1.7 1.7 0 0 0-.544.085m10.388 2.737v1.853H91.6v3.094h2.958V32h-5.185V20.542h4.98v1.938H91.6v2.635z"/></svg>