<svg xmlns="http://www.w3.org/2000/svg" fill="none" viewBox="0 0 457 30"><path fill="#fff" d="M6.284 11.129c-.303.025-.429.177-.429.429v8.379c0 .353.126.555.404.555.202.025.58.025 1.136.025h.126c.984 0 1.716-.227 2.22-.732.632-.63.96-1.791.96-3.508v-1.034c0-1.716-.303-2.852-.858-3.458-.455-.454-1.237-.707-2.348-.707H7.37c-.353 0-.732.026-1.085.051M6.587 24h-.53c-1.741 0-2.902-.025-3.483-.1-.656-.051-.959-.38-.959-.985V9.135q0-.72.227-.984c.152-.177.455-.303.909-.353a46 46 0 0 1 3.962-.177h.353c2.878 0 4.947.606 6.184 1.767 1.16 1.16 1.766 3.053 1.766 5.627v1.464c0 2.65-.605 4.543-1.792 5.679C11.937 23.394 9.716 24 6.587 24m18.063-1.035h-.05c-.556.858-1.666 1.262-3.307 1.262h-.378c-1.287 0-2.297-.328-3.004-.984-.732-.656-1.085-1.64-1.085-2.902v-.278c0-1.363.379-2.347 1.161-2.902.783-.556 2.044-.833 3.811-.833h.177c.656 0 1.261.05 1.766.1v-.53c0-.53-.151-.908-.429-1.11-.303-.176-.807-.277-1.514-.277-.858 0-1.817.151-2.928.429-.302.075-.53.075-.63 0-.127-.076-.202-.227-.228-.48l-.201-1.337c-.051-.227-.051-.404-.051-.505 0-.303.202-.53.606-.656 1.287-.354 2.725-.555 4.315-.555 1.944 0 3.332.429 4.14 1.236.63.656.958 1.716.958 3.155v7.495c0 .253-.076.455-.202.556-.126.1-.353.151-.656.151h-1.186c-.303 0-.505-.025-.63-.1-.127-.077-.228-.228-.304-.48zm-.909-3.23v-.707q-.416-.075-1.211-.075h-.278q-.907 0-1.287.227c-.252.151-.353.454-.353.908v.101c0 .454.1.757.353.909.227.176.58.252 1.06.252h.177c.504 0 .883-.126 1.186-.379.227-.201.353-.63.353-1.236m5.977 8.757h-1.464c-.252 0-.454-.05-.555-.176-.101-.101-.152-.328-.152-.631v-1.767c0-.252.05-.454.152-.555.1-.101.303-.177.555-.177h.63c.455 0 .808-.1 1.036-.353.201-.202.302-.732.302-1.565V12.366c0-.253.051-.43.177-.556.126-.1.354-.176.682-.176h2.321c.303 0 .53.075.657.176.126.127.202.303.202.556v11.18c0 1.817-.329 3.079-.985 3.81q-1.022 1.137-3.558 1.136m2.675-17.817h-.303c-1.363 0-2.044-.682-2.044-2.095v-.126c0-1.388.681-2.095 2.044-2.095h.303c1.363 0 2.044.707 2.044 2.095v.126c0 1.413-.681 2.095-2.044 2.095m13.614 6.158V18.8c0 .984.15 1.615.454 1.918.227.252.58.354 1.06.354h.1c.455 0 .808-.102 1.06-.354.303-.303.455-.934.455-1.918v-1.968c0-.96-.152-1.616-.454-1.918-.253-.228-.606-.354-1.06-.354h-.101c-.48 0-.833.126-1.06.354-.303.302-.454.959-.454 1.918m7.192.151v1.64c0 1.262-.126 2.221-.378 2.928a3.6 3.6 0 0 1-1.212 1.69c-.833.657-2.12.985-3.886.985h-.303c-1.767 0-3.08-.328-3.887-.984a3.6 3.6 0 0 1-1.211-1.691c-.253-.707-.379-1.666-.379-2.928V17.01c0-1.236.127-2.195.379-2.902a3.8 3.8 0 0 1 1.211-1.716c.808-.656 2.12-.984 3.887-.984h.303c1.766 0 3.053.328 3.886.984.555.454.96 1.01 1.212 1.69.252.707.378 1.666.378 2.903m1.833-1.287v-.328c0-1.237.328-2.17.984-2.827.757-.757 2.044-1.135 3.836-1.135h.253c1.413 0 2.65.151 3.684.454q.303.114.379.227c.05.1.076.227.05.429l-.277 2.07c-.05.328-.278.428-.682.328-1.01-.228-1.918-.354-2.675-.354h-.025c-.555 0-.96.05-1.161.152-.227.1-.328.277-.328.53v.075c0 .253.076.43.278.53s.58.228 1.16.328l1.187.253c1.085.252 1.867.63 2.321 1.136.455.504.682 1.287.682 2.321v.379c0 2.65-1.666 3.962-4.947 3.962H59.5c-1.666 0-3.054-.227-4.215-.681-.227-.076-.378-.177-.429-.303-.05-.101-.05-.303 0-.58l.354-1.666c.075-.48.353-.631.858-.48 1.16.404 2.17.58 3.028.58h.076c.555 0 .934-.05 1.16-.176.203-.1.329-.303.329-.58v-.076a.54.54 0 0 0-.278-.48q-.302-.15-1.211-.378l-1.11-.253q-1.666-.378-2.348-1.135c-.454-.505-.681-1.262-.681-2.322m15.877-.858h-4.012c-.253 0-.43-.025-.53-.126s-.127-.303-.127-.606v-1.741c0-.303.026-.48.127-.58q.15-.152.53-.152h8.53c.252 0 .429.05.555.151.101.101.177.303.177.58v.48a3.2 3.2 0 0 1-.555 1.792l-4.341 6.158h4.315c.253 0 .404.05.505.151s.151.278.151.58v1.742q0 .454-.15.606c-.102.1-.253.126-.506.126h-8.681c-.53 0-.783-.227-.783-.732v-.58c0-.656.177-1.237.555-1.792zM83.74 20.97h.202c.682 0 1.413-.1 2.196-.328.252-.05.404-.075.48-.075.252 0 .403.151.454.429l.227 1.287c.05.353.1.58.1.681 0 .303-.227.53-.656.682-1.11.404-2.321.58-3.634.58h-.302c-1.818 0-3.155-.404-3.988-1.262q-1.287-1.287-1.287-4.315v-1.464c0-1.186.1-2.12.303-2.776q.303-.985.984-1.666c.883-.883 2.271-1.337 4.164-1.337h.252c1.515 0 2.827.277 3.887.832.303.177.48.379.48.631 0 .152-.076.404-.202.758l-.48 1.21q-.19.455-.53.455c-.1 0-.252-.025-.454-.126-.808-.328-1.565-.505-2.246-.505h-.101c-.656 0-1.136.177-1.439.48-.378.378-.555 1.16-.555 2.322v.858c0 1.034.151 1.741.505 2.12.328.353.883.53 1.64.53m9.77-6.132h-4.013c-.252 0-.43-.025-.53-.126s-.126-.303-.126-.606v-1.741c0-.303.025-.48.126-.58q.151-.152.53-.152h8.53c.252 0 .43.05.555.151.101.101.177.303.177.58v.48a3.2 3.2 0 0 1-.555 1.792l-4.341 6.158h4.316c.252 0 .403.05.504.151s.152.278.152.58v1.742q0 .454-.152.606c-.1.1-.252.126-.504.126h-8.682c-.53 0-.782-.227-.782-.732v-.58c0-.656.176-1.237.555-1.792zm13.032 6.132h.278c.858 0 1.767-.1 2.675-.328.253-.05.404-.075.48-.075.252 0 .403.151.454.429l.202 1.262c.05.353.101.58.101.681 0 .303-.227.53-.656.681a3.66 3.66 0 0 0-1.616 1.212c-.429.555-.631 1.11-.631 1.615v.076c0 .48.228.706.682.706h.126c.278 0 .631-.05 1.035-.201.126-.026.227-.051.303-.051.126 0 .227.126.302.328l.127.53c.075.353.126.53.126.58 0 .152-.126.278-.353.38a5.7 5.7 0 0 1-2.045.378h-.151c-.883 0-1.54-.177-1.994-.556-.454-.378-.681-.908-.681-1.615v-.076c0-.454.151-.959.479-1.463s.757-.909 1.313-1.262c-.202.025-.48.025-.833.025h-.48q-3.104 0-4.391-1.287a3.6 3.6 0 0 1-1.01-1.716c-.176-.656-.252-1.54-.252-2.625v-1.413c0-2.196.505-3.735 1.514-4.644.858-.757 2.171-1.135 3.963-1.135h.353c1.767 0 3.054.429 3.811 1.261.807.909 1.211 2.398 1.211 4.518v1.312c0 .48-.252.707-.732.707h-6.057v.202c0 .605.152 1.01.505 1.236.328.228.934.328 1.842.328m-2.347-4.39h2.776c.202 0 .303-.102.303-.329v-.404c0-.504-.101-.883-.252-1.16-.202-.303-.606-.455-1.161-.455h-.227c-.505 0-.858.126-1.06.353q-.38.455-.379 1.363zm15.85 2.952v-3.205c0-.631-.101-1.085-.303-1.338-.227-.252-.631-.404-1.186-.404h-.252c-.556 0-.934.152-1.161.43-.253.277-.354 1.06-.354 2.372v1.11c0 1.212.127 1.969.379 2.221.202.252.58.354 1.161.354h.277c.48 0 .833-.102 1.086-.329.227-.227.353-.63.353-1.211m-.051-7.672h.051V7.646c0-.252.05-.429.177-.555.126-.101.353-.177.681-.177h2.347c.303 0 .53.076.656.177a.86.86 0 0 1 .177.555V19.13c0 1.767-.328 2.978-.984 3.685-.48.505-1.06.883-1.742 1.085-.706.227-1.64.328-2.826.328h-.429c-1.868 0-3.205-.378-4.064-1.136-.883-.757-1.312-2.17-1.312-4.265v-2.019c0-2.019.404-3.432 1.262-4.24.808-.757 1.918-1.16 3.357-1.16h.302q1.439 0 2.347.454m13.157-.454h.202c1.463 0 2.548.353 3.205 1.034.605.656.933 1.767.933 3.332v7.495c0 .252-.075.454-.201.555-.127.127-.354.177-.657.177h-2.321c-.329 0-.556-.05-.682-.177-.126-.1-.177-.303-.177-.555v-7.142c0-.555-.1-.96-.277-1.161-.202-.202-.581-.328-1.111-.328h-.151c-.555 0-.909.126-1.11.328s-.278.606-.278 1.161v7.142c0 .252-.076.454-.202.555-.126.127-.353.177-.656.177h-2.322c-.328 0-.555-.05-.681-.177-.127-.1-.177-.303-.177-.555V12.34c0-.252.05-.429.177-.53.126-.1.353-.176.681-.176h1.186c.303 0 .505.05.631.126q.189.114.303.454l.151.48h.076c.808-.858 1.943-1.287 3.458-1.287m10.404 5.426V18.8c0 .984.151 1.615.454 1.918.227.252.58.354 1.06.354h.101c.454 0 .807-.102 1.06-.354.303-.303.454-.934.454-1.918v-1.968c0-.96-.151-1.616-.454-1.918-.253-.228-.606-.354-1.06-.354h-.101c-.48 0-.833.126-1.06.354-.303.302-.454.959-.454 1.918m7.192.151v1.64c0 1.262-.126 2.221-.378 2.928a3.6 3.6 0 0 1-1.212 1.69c-.832.657-2.12.985-3.886.985h-.303c-1.767 0-3.079-.328-3.887-.984a3.6 3.6 0 0 1-1.211-1.691c-.252-.707-.379-1.666-.379-2.928V17.01c0-1.236.127-2.195.379-2.902a3.8 3.8 0 0 1 1.211-1.716c.808-.656 2.12-.984 3.887-.984h.303c1.766 0 3.054.328 3.886.984.556.454.959 1.01 1.212 1.69.252.707.378 1.666.378 2.903m1.833-1.287v-.328c0-1.237.328-2.17.984-2.827.758-.757 2.045-1.135 3.837-1.135h.252c1.413 0 2.65.151 3.685.454q.302.114.378.227c.051.1.076.227.051.429l-.278 2.07c-.051.328-.278.428-.681.328-1.01-.228-1.918-.354-2.676-.354h-.025c-.555 0-.959.05-1.161.152-.227.1-.328.277-.328.53v.075c0 .253.076.43.278.53s.58.228 1.161.328l1.186.253c1.085.252 1.867.63 2.322 1.136.454.504.681 1.287.681 2.321v.379c0 2.65-1.666 3.962-4.946 3.962h-.253c-1.665 0-3.054-.227-4.214-.681-.228-.076-.379-.177-.429-.303-.051-.101-.051-.303 0-.58l.353-1.666c.076-.48.353-.631.858-.48 1.161.404 2.17.58 3.028.58h.076c.555 0 .934-.05 1.161-.176.202-.1.328-.303.328-.58v-.076a.54.54 0 0 0-.277-.48q-.303-.15-1.212-.378l-1.11-.253q-1.666-.378-2.347-1.135c-.455-.505-.682-1.262-.682-2.322m2.347-7.395 3.963-3.381a.7.7 0 0 1 .479-.228c.177 0 .353.127.505.329l1.211 1.564c.101.152.152.278.152.43 0 .201-.152.403-.404.605l-3.988 2.726c-.202.126-.353.176-.504.176-.202 0-.404-.1-.606-.353l-.757-.883c-.202-.228-.278-.43-.278-.58 0-.152.076-.304.227-.405m15.222 12.67h.201c.682 0 1.414-.101 2.196-.329.252-.05.404-.075.48-.075.252 0 .403.151.454.429l.227 1.287c.05.353.101.58.101.681 0 .303-.227.53-.656.682-1.111.404-2.322.58-3.634.58h-.303c-1.817 0-3.155-.404-3.988-1.262q-1.287-1.287-1.287-4.315v-1.464c0-1.186.101-2.12.303-2.776q.303-.985.984-1.666c.884-.883 2.272-1.337 4.164-1.337h.253c1.514 0 2.826.277 3.886.832.303.177.48.379.48.631 0 .152-.076.404-.202.758l-.48 1.21q-.189.455-.53.455c-.1 0-.252-.025-.454-.126-.807-.328-1.565-.505-2.246-.505h-.101c-.656 0-1.136.177-1.438.48-.379.378-.556 1.16-.556 2.322v.858c0 1.034.152 1.741.505 2.12.328.353.883.53 1.641.53m9.744-8.606v10.902c0 .252-.076.454-.202.555-.126.127-.354.177-.656.177h-2.322c-.328 0-.555-.05-.682-.177-.126-.1-.176-.303-.176-.555V12.366c0-.253.05-.43.176-.556.127-.1.354-.176.682-.176h2.322c.302 0 .53.075.656.176.126.127.202.303.202.556m-1.868-1.691h-.303c-1.363 0-2.044-.682-2.044-2.095v-.126c0-1.388.681-2.095 2.044-2.095h.303c1.363 0 2.044.707 2.044 2.095v.126c0 1.413-.681 2.095-2.044 2.095m8.142 6.158V18.8c0 .984.152 1.615.455 1.918.227.252.58.354 1.06.354h.101c.454 0 .807-.102 1.06-.354.302-.303.454-.934.454-1.918v-1.968c0-.96-.152-1.616-.454-1.918-.253-.228-.606-.354-1.06-.354h-.101c-.48 0-.833.126-1.06.354-.303.302-.455.959-.455 1.918m7.193.151v1.64c0 1.262-.126 2.221-.379 2.928a3.6 3.6 0 0 1-1.211 1.69c-.833.657-2.12.985-3.887.985h-.302c-1.767 0-3.079-.328-3.887-.984a3.6 3.6 0 0 1-1.211-1.691c-.253-.707-.379-1.666-.379-2.928V17.01c0-1.236.126-2.195.379-2.902a3.8 3.8 0 0 1 1.211-1.716c.808-.656 2.12-.984 3.887-.984h.302c1.767 0 3.054.328 3.887.984a3.9 3.9 0 0 1 1.211 1.69c.253.707.379 1.666.379 2.903m13.063-.858v7.142c0 .252-.075.454-.201.555-.127.127-.354.177-.657.177h-2.321c-.329 0-.556-.05-.682-.177-.126-.1-.177-.303-.177-.555v-7.142c0-.555-.1-.96-.277-1.161-.202-.202-.581-.328-1.111-.328h-.05c-.555 0-.909.126-1.11.328s-.278.606-.278 1.161v7.142c0 .252-.076.454-.202.555-.126.127-.353.177-.656.177h-2.322c-.328 0-.555-.05-.681-.177-.127-.1-.177-.303-.177-.555V12.34c0-.252.05-.429.177-.53.126-.1.353-.176.681-.176h1.186c.303 0 .505.05.631.126q.189.114.303.454l.151.48h.076c.808-.858 1.943-1.287 3.458-1.287h.101c1.438 0 2.549.403 3.331 1.16.807-.757 1.968-1.16 3.432-1.16h.101c1.464 0 2.549.353 3.205 1.034.606.656.934 1.767.934 3.332v7.495c0 .252-.076.454-.202.555-.126.127-.353.177-.656.177h-2.322c-.328 0-.555-.05-.681-.177-.126-.1-.177-.303-.177-.555v-7.142c0-.555-.101-.96-.278-1.161-.201-.202-.58-.328-1.11-.328h-.05c-.556 0-.909.126-1.111.328s-.278.606-.278 1.161m17.91-3.13h.075c.555-.908 1.489-1.362 2.827-1.362h1.009c.253 0 .455.05.556.151.1.101.176.278.176.555v1.843c0 .277-.05.454-.151.555q-.152.15-.53.151h-.757c-.934 0-1.565.177-1.918.53-.303.303-.429.884-.429 1.742v6.107c0 .252-.076.454-.202.555-.127.127-.354.177-.656.177h-2.322c-.328 0-.556-.05-.682-.177-.126-.1-.176-.303-.176-.555V12.34c0-.252.05-.429.176-.53.126-.1.354-.176.682-.176h1.211c.278 0 .48.05.606.126q.189.15.303.454zm9.697 3.837V18.8c0 .984.151 1.615.454 1.918.227.252.58.354 1.06.354h.101c.454 0 .807-.102 1.06-.354.303-.303.454-.934.454-1.918v-1.968c0-.96-.151-1.616-.454-1.918-.253-.228-.606-.354-1.06-.354h-.101c-.48 0-.833.126-1.06.354-.303.302-.454.959-.454 1.918m7.192.151v1.64c0 1.262-.126 2.221-.378 2.928a3.6 3.6 0 0 1-1.212 1.69c-.833.657-2.12.985-3.886.985h-.303c-1.767 0-3.079-.328-3.887-.984a3.6 3.6 0 0 1-1.211-1.691c-.252-.707-.379-1.666-.379-2.928V17.01c0-1.236.127-2.195.379-2.902a3.8 3.8 0 0 1 1.211-1.716c.808-.656 2.12-.984 3.887-.984h.303c1.766 0 3.053.328 3.886.984a3.9 3.9 0 0 1 1.212 1.69c.252.707.378 1.666.378 2.903m1.833-1.287v-.328c0-1.237.328-2.17.984-2.827.757-.757 2.045-1.135 3.836-1.135h.253c1.413 0 2.65.151 3.684.454q.303.114.379.227c.05.1.076.227.05.429l-.277 2.07c-.051.328-.278.428-.682.328-1.009-.228-1.918-.354-2.675-.354h-.025c-.555 0-.959.05-1.161.152-.227.1-.328.277-.328.53v.075c0 .253.076.43.278.53s.58.228 1.161.328l1.186.253c1.085.252 1.867.63 2.322 1.136.454.504.681 1.287.681 2.321v.379c0 2.65-1.666 3.962-4.947 3.962h-.252c-1.666 0-3.054-.227-4.215-.681-.227-.076-.378-.177-.429-.303-.05-.101-.05-.303 0-.58l.354-1.666c.075-.48.353-.631.858-.48 1.161.404 2.17.58 3.028.58h.076c.555 0 .934-.05 1.161-.176.202-.1.328-.303.328-.58v-.076a.54.54 0 0 0-.278-.48q-.302-.15-1.211-.378l-1.11-.253q-1.666-.378-2.348-1.135c-.454-.505-.681-1.262-.681-2.322m18.426-4.29h.202c1.464 0 2.549.353 3.206 1.034.605.656.933 1.767.933 3.332v7.495c0 .252-.075.454-.202.555-.126.127-.353.177-.656.177h-2.322c-.328 0-.555-.05-.681-.177-.126-.1-.177-.303-.177-.555v-7.142c0-.555-.101-.96-.277-1.161-.202-.202-.581-.328-1.111-.328h-.151c-.555 0-.909.126-1.111.328s-.277.606-.277 1.161v7.142c0 .252-.076.454-.202.555-.126.127-.353.177-.656.177h-2.322c-.328 0-.555-.05-.682-.177-.126-.1-.176-.303-.176-.555V12.34c0-.252.05-.429.176-.53.127-.1.354-.176.682-.176h1.186c.303 0 .505.05.631.126q.189.114.303.454l.151.48h.076c.808-.858 1.943-1.287 3.457-1.287m14.039 11.558h-.051c-.555.858-1.665 1.262-3.306 1.262h-.378c-1.288 0-2.297-.328-3.004-.984-.732-.656-1.085-1.64-1.085-2.902v-.278c0-1.363.379-2.347 1.161-2.902s2.044-.833 3.811-.833h.177c.656 0 1.261.05 1.766.1v-.53c0-.53-.151-.908-.429-1.11-.303-.176-.807-.277-1.514-.277-.858 0-1.817.151-2.928.429-.302.075-.53.075-.631 0-.126-.076-.201-.227-.227-.48l-.202-1.337c-.05-.253-.05-.43-.05-.505 0-.303.202-.53.606-.656 1.287-.354 2.725-.555 4.315-.555 1.943 0 3.332.429 4.139 1.236.631.656.959 1.716.959 3.155v7.495c0 .379-.151.606-.404.707-.631.252-1.161.606-1.564 1.06-.429.454-.631.934-.631 1.413v.076q0 .681.681.681h.076c.303 0 .681-.05 1.085-.201.126-.026.227-.051.303-.051.126 0 .227.126.303.328l.126.53c.076.353.126.53.126.58 0 .152-.126.278-.353.38a5.7 5.7 0 0 1-2.044.378h-.152c-.858 0-1.539-.177-1.994-.556-.454-.378-.681-.908-.681-1.564v-.127c0-.605.202-1.186.631-1.74.404-.556.959-1.01 1.615-1.364zm-.909-3.23v-.707q-.416-.075-1.211-.075h-.278q-.909 0-1.287.227c-.252.151-.353.454-.353.908v.101c0 .454.101.757.353.909.227.176.581.252 1.06.252h.177c.504 0 .883-.126 1.186-.379.227-.201.353-.63.353-1.236m12.334 1.236h.202c.681 0 1.413-.1 2.196-.328.252-.05.403-.075.479-.075.253 0 .404.151.454.429l.228 1.287c.05.353.101.58.101.681 0 .303-.228.53-.657.682-1.11.404-2.321.58-3.634.58h-.303c-1.817 0-3.154-.404-3.987-1.262q-1.287-1.287-1.287-4.315v-1.464c0-1.186.101-2.12.303-2.776q.303-.985.984-1.666c.883-.883 2.271-1.337 4.164-1.337h.252c1.515 0 2.827.277 3.887.832.303.177.479.379.479.631 0 .152-.075.404-.201.758l-.48 1.21q-.19.455-.53.455c-.101 0-.252-.025-.454-.126-.808-.328-1.565-.505-2.246-.505h-.101c-.656 0-1.136.177-1.439.48-.378.378-.555 1.16-.555 2.322v.858c0 1.034.151 1.741.505 2.12.328.353.883.53 1.64.53m-3.104-12.669 3.962-3.381c.152-.152.328-.228.48-.228.176 0 .353.127.504.329l1.212 1.564c.101.152.151.278.151.43 0 .201-.151.403-.404.605l-3.987 2.726a.88.88 0 0 1-.505.176c-.202 0-.404-.1-.605-.353l-.758-.883c-.201-.228-.277-.43-.277-.58 0-.152.076-.304.227-.405m18.269 8v3.231c0 .58.101.984.354 1.211.201.227.58.329 1.135.329h.227c.581 0 .985-.152 1.237-.505q.303-.454.303-2.196v-1.085c0-1.262-.126-2.044-.328-2.297-.227-.252-.656-.404-1.262-.404h-.101c-.581 0-.984.127-1.237.379-.227.227-.328.681-.328 1.338m0-4.214h.051q1.098-.681 2.877-.681h.227c1.514 0 2.625.454 3.306 1.362.555.783.858 2.17.858 4.164v1.818c0 2.019-.429 3.432-1.287 4.214-.909.858-2.347 1.262-4.316 1.262h-.504c-2.07 0-3.483-.404-4.24-1.236-.682-.732-1.01-1.918-1.01-3.584V7.647c0-.253.051-.43.177-.556.101-.101.328-.177.656-.177h2.347c.303 0 .53.076.656.177.127.126.202.303.202.555zm15.499 8.884h.278c.858 0 1.767-.101 2.675-.329.252-.05.404-.075.48-.075.252 0 .403.151.454.429l.202 1.262c.05.353.101.58.101.681 0 .303-.227.53-.656.681-1.161.404-2.448.606-3.811.606h-.48q-3.104 0-4.391-1.287a3.6 3.6 0 0 1-1.01-1.716c-.176-.656-.252-1.54-.252-2.625v-1.413c0-2.196.505-3.735 1.514-4.644.858-.757 2.171-1.135 3.963-1.135h.353c1.766 0 3.054.429 3.811 1.261.807.909 1.211 2.398 1.211 4.518v1.312c0 .48-.252.707-.732.707h-6.057v.202c0 .605.152 1.01.505 1.236.328.228.934.328 1.842.328m-2.347-4.392h2.776c.202 0 .303-.1.303-.328v-.404c0-.504-.101-.883-.252-1.16-.202-.303-.606-.455-1.161-.455h-.227c-.505 0-.858.126-1.06.353q-.38.455-.379 1.363zm13.049-1.741h-4.013c-.253 0-.429-.025-.53-.126s-.126-.303-.126-.606v-1.741c0-.303.025-.48.126-.58q.151-.152.53-.152h8.53c.252 0 .429.05.555.151.101.101.177.303.177.58v.48c0 .656-.202 1.262-.555 1.792l-4.341 6.158h4.315c.253 0 .404.05.505.151s.152.278.152.58v1.742q0 .454-.152.606c-.101.1-.252.126-.505.126h-8.681c-.53 0-.783-.227-.783-.732v-.58c0-.656.177-1.237.556-1.792zm16.157 1.994V18.8c0 .984.151 1.615.454 1.918.227.252.58.354 1.06.354h.101c.454 0 .807-.102 1.06-.354.303-.303.454-.934.454-1.918v-1.968c0-.96-.151-1.616-.454-1.918-.253-.228-.606-.354-1.06-.354h-.101c-.48 0-.833.126-1.06.354-.303.302-.454.959-.454 1.918m7.192.151v1.64c0 1.262-.126 2.221-.378 2.928a3.6 3.6 0 0 1-1.212 1.69c-.833.657-2.12.985-3.886.985h-.303c-1.767 0-3.079-.328-3.887-.984a3.6 3.6 0 0 1-1.211-1.691c-.252-.707-.379-1.666-.379-2.928V17.01c0-1.236.127-2.195.379-2.902a3.8 3.8 0 0 1 1.211-1.716c.808-.656 2.12-.984 3.887-.984h.303c1.766 0 3.053.328 3.886.984a3.9 3.9 0 0 1 1.212 1.69c.252.707.378 1.666.378 2.903m7.739 5.855h-.682c-3.584 0-5.35-1.615-5.35-4.87v-1.692c0-1.665.429-2.877 1.312-3.684.858-.783 2.196-1.186 3.962-1.186h.354c.328-1.818 1.665-2.751 4.038-2.751h1.236c.253 0 .404.05.505.126.076.1.126.277.126.53V10.7c0 .252-.05.404-.151.48-.101.1-.278.126-.505.126h-1.186c-.555 0-.934.126-1.161.378 1.893.505 2.852 2.044 2.852 4.593v1.691c0 1.817-.505 3.029-1.489 3.685a4.26 4.26 0 0 1 1.539 1.363c.379.555.581 1.16.581 1.792v.176c0 2.499-1.994 3.735-5.931 3.735h-.479c-1.717 0-3.382-.303-4.947-.908-.454-.152-.631-.48-.505-.96l.455-1.614c.126-.48.429-.656.908-.505 1.489.505 2.801.732 3.962.732h.354q2.195 0 2.195-1.287V24.1c0-.48-.252-.909-.757-1.312-.404.05-.833.05-1.236.05m-.429-3.155h.176c.555 0 .934-.1 1.186-.353.278-.277.429-.858.429-1.716v-.984c0-.858-.151-1.414-.429-1.716-.252-.228-.631-.354-1.186-.354h-.176c-.556 0-.959.126-1.187.354-.302.302-.429.858-.429 1.716v.984c0 .858.127 1.439.429 1.716.228.253.631.353 1.187.353m11.217-6.688h.075c.555-.908 1.489-1.362 2.827-1.362h1.009c.253 0 .455.05.556.151s.176.278.176.555v1.843c0 .277-.05.454-.151.555q-.152.15-.53.151h-.757c-.934 0-1.565.177-1.918.53-.303.303-.429.884-.429 1.742v6.107c0 .252-.076.454-.202.555-.126.127-.354.177-.656.177h-2.322c-.328 0-.556-.05-.682-.177-.126-.1-.176-.303-.176-.555V12.34c0-.252.05-.429.176-.53.126-.1.354-.176.682-.176h1.211c.278 0 .48.05.606.126q.189.15.303.454zm13.035 9.97h-.05c-.556.857-1.666 1.261-3.307 1.261h-.378c-1.287 0-2.297-.328-3.003-.984-.732-.656-1.086-1.64-1.086-2.902v-.278c0-1.363.379-2.347 1.161-2.902.783-.556 2.045-.833 3.811-.833h.177c.656 0 1.262.05 1.766.1v-.53c0-.53-.151-.908-.429-1.11-.302-.176-.807-.277-1.514-.277-.858 0-1.817.151-2.927.429-.303.075-.53.075-.631 0-.126-.076-.202-.227-.227-.48l-.202-1.337c-.051-.227-.051-.404-.051-.505 0-.303.202-.53.606-.656 1.287-.354 2.726-.555 4.316-.555 1.943 0 3.331.429 4.138 1.236.631.656.959 1.716.959 3.155v7.495c0 .253-.075.455-.201.556-.127.1-.354.151-.657.151h-1.186c-.303 0-.505-.025-.631-.1-.126-.077-.227-.228-.303-.48zm-.909-3.231v-.707q-.416-.075-1.211-.075h-.278q-.908 0-1.287.227c-.252.151-.353.454-.353.908v.101c0 .454.101.757.353.909.228.176.581.252 1.06.252h.177c.505 0 .883-.126 1.186-.379.227-.201.353-.63.353-1.236m13.094-8.328h.202c1.464 0 2.549.353 3.205 1.034.606.656.934 1.767.934 3.332v7.495c0 .252-.076.454-.202.555-.126.127-.353.177-.656.177h-2.322c-.328 0-.555-.05-.682-.177-.126-.1-.176-.303-.176-.555v-7.142c0-.555-.101-.96-.278-1.161-.202-.202-.58-.328-1.11-.328h-.152c-.555 0-.908.126-1.11.328s-.278.606-.278 1.161v7.142c0 .252-.075.454-.202.555-.126.127-.353.177-.656.177h-2.322c-.328 0-.555-.05-.681-.177-.126-.1-.177-.303-.177-.555V12.34c0-.252.051-.429.177-.53.126-.1.353-.176.681-.176h1.187c.302 0 .504.05.63.126q.19.114.303.454l.152.48h.075c.808-.858 1.944-1.287 3.458-1.287m10.833.959v10.902c0 .252-.076.454-.202.555-.126.127-.353.177-.656.177h-2.322c-.328 0-.555-.05-.681-.177-.126-.1-.177-.303-.177-.555V12.366c0-.253.051-.43.177-.556.126-.1.353-.176.681-.176h2.322c.303 0 .53.075.656.176.126.127.202.303.202.556m-1.868-1.691h-.302c-1.363 0-2.045-.682-2.045-2.095v-.126c0-1.388.682-2.095 2.045-2.095h.302c1.363 0 2.045.707 2.045 2.095v.126c0 1.413-.682 2.095-2.045 2.095M414.66 20.97h.202c.681 0 1.413-.1 2.195-.328.253-.05.404-.075.48-.075.252 0 .404.151.454.429l.227 1.287c.051.353.101.58.101.681 0 .303-.227.53-.656.682-1.11.404-2.322.58-3.634.58h-.303c-1.817 0-3.155-.404-3.987-1.262q-1.288-1.287-1.288-4.315v-1.464c0-1.186.101-2.12.303-2.776q.303-.985.985-1.666c.883-.883 2.271-1.337 4.164-1.337h.252c1.514 0 2.827.277 3.887.832.303.177.479.379.479.631 0 .152-.076.404-.202.758l-.479 1.21q-.19.455-.53.455c-.101 0-.253-.025-.454-.126-.808-.328-1.565-.505-2.247-.505h-.101c-.656 0-1.135.177-1.438.48-.379.378-.555 1.16-.555 2.322v.858c0 1.034.151 1.741.504 2.12.329.353.884.53 1.641.53m9.769-6.132h-4.012c-.253 0-.43-.025-.53-.126s-.127-.303-.127-.606v-1.741c0-.303.026-.48.127-.58q.15-.152.53-.152h8.53c.252 0 .429.05.555.151.101.101.177.303.177.58v.48c0 .656-.202 1.262-.556 1.792l-4.34 6.158h4.315c.253 0 .404.05.505.151s.151.278.151.58v1.742q0 .454-.151.606c-.101.1-.252.126-.505.126h-8.681c-.53 0-.783-.227-.783-.732v-.58c0-.656.177-1.237.555-1.792zm13.033 6.132h.278c.858 0 1.766-.1 2.675-.328.252-.05.404-.075.479-.075.253 0 .404.151.455.429l.201 1.262c.051.353.101.58.101.681 0 .303-.227.53-.656.681-1.161.404-2.448.606-3.811.606h-.479q-3.104 0-4.391-1.287a3.6 3.6 0 0 1-1.01-1.716c-.177-.656-.252-1.54-.252-2.625v-1.413c0-2.196.504-3.735 1.514-4.644.858-.757 2.17-1.135 3.962-1.135h.354c1.766 0 3.053.429 3.81 1.261.808.909 1.212 2.398 1.212 4.518v1.312c0 .48-.253.707-.732.707h-6.057v.202c0 .605.151 1.01.505 1.236.328.228.933.328 1.842.328m-2.347-4.39h2.776c.202 0 .303-.102.303-.329v-.404c0-.504-.101-.883-.253-1.16-.201-.303-.605-.455-1.16-.455h-.228c-.504 0-.858.126-1.06.353q-.378.455-.378 1.363zm15.597-5.174h.202c1.464 0 2.549.353 3.205 1.034.606.656.934 1.767.934 3.332v7.495c0 .252-.076.454-.202.555-.126.127-.353.177-.656.177h-2.322c-.328 0-.555-.05-.681-.177-.126-.1-.177-.303-.177-.555v-7.142c0-.555-.101-.96-.278-1.161-.201-.202-.58-.328-1.11-.328h-.151c-.556 0-.909.126-1.111.328s-.278.606-.278 1.161v7.142c0 .252-.075.454-.201.555-.127.127-.354.177-.657.177h-2.321c-.328 0-.556-.05-.682-.177-.126-.1-.176-.303-.176-.555V12.34c0-.252.05-.429.176-.53.126-.1.354-.176.682-.176h1.186c.303 0 .504.05.631.126q.189.114.303.454l.151.48h.076c.807-.858 1.943-1.287 3.457-1.287m-3.558-3.105 3.962-3.381a.7.7 0 0 1 .479-.228c.177 0 .354.127.505.329l1.212 1.564c.101.152.151.278.151.43 0 .201-.151.403-.404.605l-3.987 2.726c-.202.126-.354.176-.505.176-.202 0-.404-.1-.606-.353l-.757-.883c-.202-.228-.277-.43-.277-.58 0-.152.075-.304.227-.405"/></svg>