<svg xmlns="http://www.w3.org/2000/svg" fill="none" viewBox="0 0 213 95"><path fill="#fff" d="M.161 0h4.56l3.593 16.468 4.27-15.84h3.755l4.286 15.84L24.186 0h4.367l-5.785 22.01h-4.35L14.325 7.46l-4.157 14.55H5.88zm29.906 14.083q0-1.708.564-3.174a7.8 7.8 0 0 1 1.612-2.546 7.6 7.6 0 0 1 2.481-1.724q1.45-.63 3.19-.629 2.111 0 3.578.774 1.465.773 2.352 2.03a8.1 8.1 0 0 1 1.29 2.836q.402 1.579.402 3.239v.548H33.983q0 .854.387 1.563.386.692.983 1.192.612.483 1.385.757a5 5 0 0 0 1.547.258q1.128 0 1.966-.21a8.6 8.6 0 0 0 1.418-.499 5.4 5.4 0 0 0 1.563-1.112l2.11 2.385-.547.548q-.435.435-1.29.934-.837.5-2.142.887-1.305.402-3.11.402-1.853 0-3.368-.628a7.8 7.8 0 0 1-2.594-1.724 7.6 7.6 0 0 1-1.66-2.659q-.564-1.563-.564-3.448m3.884-1.45h7.589q0-.597-.225-1.176a3.3 3.3 0 0 0-.677-1.08 3.4 3.4 0 0 0-1.144-.79q-.693-.321-1.58-.322-.95 0-1.691.322a3.9 3.9 0 0 0-1.241.79 3.6 3.6 0 0 0-.773 1.08q-.258.596-.258 1.176m14.598 9.378V6.526h3.723l.096 1.756q.29-.322.71-.693.417-.37.998-.676.58-.307 1.305-.5a6 6 0 0 1 1.644-.21q2.9 0 4.415 1.74 1.53 1.725 1.53 4.658v9.41h-3.899v-9.378q0-1.482-.805-2.288-.807-.806-2.095-.806-.789 0-1.483.322-.692.306-1.192.87a4.1 4.1 0 0 0-.79 1.306 4.6 4.6 0 0 0-.273 1.595v8.379zm18.176 0V6.526h3.722l.097 1.756q.29-.322.709-.693.42-.37.999-.676.58-.307 1.305-.5a6 6 0 0 1 1.644-.21q2.9 0 4.415 1.74 1.53 1.725 1.53 4.658v9.41h-3.899v-9.378q0-1.482-.806-2.288t-2.094-.806q-.79 0-1.483.322a3.4 3.4 0 0 0-1.192.87 4.1 4.1 0 0 0-.79 1.306 4.6 4.6 0 0 0-.274 1.595v8.379zm23.413-7.46q0-1.822.515-3.175.532-1.37 1.322-2.336.66-.79 1.45-1.322a10 10 0 0 1 1.611-.87 7.3 7.3 0 0 1 1.563-.5 7 7 0 0 1 1.321-.144q.758 0 1.257.048.5.048.886.129.404.081.726.225l.757.29V0h3.867v22.01h-3.77l-.097-1.514a8 8 0 0 1-.725.693 5.6 5.6 0 0 1-1 .66 7 7 0 0 1-1.288.484q-.71.21-1.596.21a6.2 6.2 0 0 1-2.48-.532 6.7 6.7 0 0 1-2.192-1.547q-.951-1.031-1.547-2.514-.58-1.482-.58-3.4m3.915 0q0 1.98.983 3.303 1 1.32 2.884 1.32.983 0 1.676-.37a3.25 3.25 0 0 0 1.128-.983q.435-.596.629-1.305.192-.709.193-1.37v-4.753a3.2 3.2 0 0 0-1.305-.644q-.742-.178-1.885-.178-1.16 0-1.918.452-.757.434-1.321 1.16-.5.66-.79 1.547a6 6 0 0 0-.274 1.82m14.454-.468q0-1.708.564-3.174a7.8 7.8 0 0 1 1.611-2.546 7.6 7.6 0 0 1 2.482-1.724q1.45-.63 3.19-.629 2.111 0 3.577.774 1.467.773 2.353 2.03a8.1 8.1 0 0 1 1.289 2.836q.403 1.579.403 3.239v.548h-11.554q0 .854.387 1.563.387.692.983 1.192a4.8 4.8 0 0 0 1.386.757 5 5 0 0 0 1.547.258q1.128 0 1.965-.21a8.5 8.5 0 0 0 1.418-.499 5.4 5.4 0 0 0 1.563-1.112l2.111 2.385-.548.548q-.434.435-1.289.934-.838.5-2.143.887-1.305.402-3.11.402-1.853 0-3.367-.628a7.8 7.8 0 0 1-2.595-1.724 7.6 7.6 0 0 1-1.659-2.659q-.564-1.563-.564-3.448m3.883-1.45h7.589q0-.597-.225-1.176a3.3 3.3 0 0 0-.677-1.08 3.4 3.4 0 0 0-1.144-.79q-.693-.321-1.579-.322-.951 0-1.692.322a3.9 3.9 0 0 0-1.241.79q-.499.483-.773 1.08-.258.596-.258 1.176m14.631-8.54V0h4.157v4.093zm.129 17.918V6.526h3.899V22.01zm7.895 0V6.526h3.723l.096 1.756a9 9 0 0 1 .709-.693q.42-.37.999-.676.58-.307 1.305-.5a6 6 0 0 1 1.644-.21q2.9 0 4.415 1.74 1.531 1.725 1.531 4.658v9.41h-3.9v-9.378q0-1.482-.805-2.288-.806-.806-2.095-.806-.79 0-1.482.322-.693.306-1.193.87-.5.548-.789 1.306a4.6 4.6 0 0 0-.274 1.595v8.379zm-132.902 36V36h4.19L17 51.646V36h4.06v22.01h-4.093L6.204 42.172v15.84zm22.14-4.528q0-1.32.5-2.353a4.94 4.94 0 0 1 1.385-1.756q.886-.709 2.143-1.064 1.257-.37 2.771-.37a36 36 0 0 1 2.111.064q.597.033 1.225.081v-.37q0-1.161-.935-1.821-.918-.66-2.4-.661-1.644 0-2.643.435-.983.435-1.74.918L24.91 43.96q.468-.322 1.064-.677.596-.354 1.385-.628.79-.291 1.821-.468 1.048-.177 2.433-.177 1.482 0 2.691.42 1.209.403 2.063 1.143a5.1 5.1 0 0 1 1.321 1.789q.467 1.031.467 2.256V58.01h-3.641l-.097-1.45q-.628.757-1.917 1.353-1.29.597-2.869.596a6.2 6.2 0 0 1-1.901-.306 5.2 5.2 0 0 1-1.708-.902 4.64 4.64 0 0 1-1.257-1.563q-.483-.968-.483-2.256m3.738-.161q0 .982.709 1.547.708.564 2.095.564a4 4 0 0 0 1.337-.226 3.6 3.6 0 0 0 1.128-.628q.5-.403.806-.919.322-.531.322-1.128v-1.514l-1.16-.065q-.468-.032-.983-.048-.5-.016-.854-.016-1.886 0-2.643.74-.757.742-.757 1.693m12.133-10.796h4.496l4.157 11.102 4.157-11.102h4.254L50.692 58.01h-3.964zm19.191-2.433V36h4.157v4.093zm.13 17.918V42.526h3.898V58.01zm13.131-7.46q0-1.822.516-3.175.532-1.37 1.321-2.336.66-.79 1.45-1.322a10 10 0 0 1 1.612-.87 7.3 7.3 0 0 1 1.563-.5 7 7 0 0 1 1.321-.144q.757 0 1.257.048t.886.129q.403.081.725.225l.758.29V36h3.867v22.01h-3.77l-.097-1.514a8 8 0 0 1-.725.693 5.6 5.6 0 0 1-1 .66 7 7 0 0 1-1.289.484q-.708.21-1.595.21a6.2 6.2 0 0 1-2.481-.532 6.7 6.7 0 0 1-2.192-1.547q-.95-1.032-1.547-2.514-.58-1.482-.58-3.4m3.916 0q0 1.981.983 3.302.999 1.322 2.884 1.322.983 0 1.676-.37a3.25 3.25 0 0 0 1.128-.984q.436-.596.628-1.305.194-.709.194-1.37v-4.753a3.2 3.2 0 0 0-1.305-.645q-.742-.177-1.886-.177-1.16 0-1.917.452-.758.434-1.322 1.16-.5.66-.79 1.547a6 6 0 0 0-.273 1.82m15.21-10.458V36h4.158v4.093zm.13 17.918V42.526h3.9V58.01zm7.17-7.75q0-1.677.612-3.175a8.1 8.1 0 0 1 1.692-2.626 8.1 8.1 0 0 1 2.627-1.79q1.53-.66 3.384-.66 1.886 0 3.432.677a8.1 8.1 0 0 1 2.642 1.82l-2.481 2.515a4.7 4.7 0 0 0-1.547-1.177q-.886-.435-2.046-.435-1.128 0-1.95.42a4.1 4.1 0 0 0-1.37 1.063q-.548.66-.821 1.547a6.5 6.5 0 0 0-.258 1.82q0 .887.258 1.757.273.854.821 1.546.549.693 1.37 1.128.822.42 1.95.42 1.16 0 2.111-.452.95-.45 1.611-1.208l2.32 2.513a8.4 8.4 0 0 1-2.578 1.853q-1.482.693-3.464.693-1.983 0-3.545-.596-1.547-.596-2.611-1.676a7.5 7.5 0 0 1-1.61-2.61q-.549-1.53-.549-3.368M116 58.01V36h3.818v8.121q.597-.66 1.741-1.289 1.143-.628 2.916-.628 1.418 0 2.53.467 1.128.45 1.869 1.305.757.838 1.144 2.03.403 1.177.403 2.595v9.41h-3.9v-9.378q0-1.483-.805-2.288-.806-.806-2.095-.806-.789 0-1.482.322-.693.307-1.193.87-.5.548-.789 1.306a4.6 4.6 0 0 0-.274 1.595v8.379zm24.137 0V42.526h3.722l.097 1.756q.29-.323.709-.693t.999-.676 1.305-.5a6 6 0 0 1 1.644-.21q2.9 0 4.415 1.74 1.53 1.725 1.531 4.658v9.41h-3.9v-9.378q0-1.483-.805-2.288-.807-.806-2.095-.806-.79 0-1.483.322a3.4 3.4 0 0 0-1.192.87q-.5.548-.79 1.306a4.6 4.6 0 0 0-.273 1.595v8.379zm18.208-17.918V36h4.157v4.093zm.129 17.918V42.526h3.9V58.01zm7.171-7.75q0-1.677.612-3.175a8.1 8.1 0 0 1 1.692-2.626 8.1 8.1 0 0 1 2.626-1.79q1.531-.66 3.384-.66 1.886 0 3.432.677a8.1 8.1 0 0 1 2.643 1.82l-2.482 2.515a4.7 4.7 0 0 0-1.547-1.177q-.886-.435-2.046-.435-1.128 0-1.95.42a4.1 4.1 0 0 0-1.369 1.063 4.4 4.4 0 0 0-.822 1.547 6.5 6.5 0 0 0-.258 1.82q0 .887.258 1.757.273.854.822 1.546.547.693 1.369 1.128.822.42 1.95.42 1.16 0 2.111-.452a4.9 4.9 0 0 0 1.611-1.208l2.32 2.513a8.4 8.4 0 0 1-2.578 1.853q-1.482.693-3.464.693t-3.545-.596q-1.547-.596-2.61-1.676a7.5 7.5 0 0 1-1.612-2.61q-.547-1.53-.547-3.368m16.967 7.75V36h3.819v8.121q.595-.66 1.74-1.289t2.916-.628q1.419 0 2.53.467 1.128.45 1.869 1.305.758.838 1.144 2.03.403 1.177.403 2.595v9.41h-3.899v-9.378q0-1.483-.806-2.288-.805-.806-2.095-.806-.789 0-1.482.322a3.4 3.4 0 0 0-1.192.87q-.5.548-.79 1.306a4.6 4.6 0 0 0-.274 1.595v8.379zm16.854-12.31v-3.175h2.643v-5.011h3.883v5.01h4.157V45.7h-4.157v6.768q0 1.32.451 2.03t1.434.709q.92 0 1.467-.258a8 8 0 0 0 1.047-.628l1.644 2.4q-1.16.952-2.288 1.37-1.113.42-2.498.42-1.418 0-2.417-.42-.983-.402-1.595-1.16a4.7 4.7 0 0 1-.87-1.837q-.258-1.08-.258-2.368V45.7zM0 78.525h4.496l4.157 11.102 4.157-11.102h4.254L10.538 94.01H6.574zm18.434 7.557q0-1.709.564-3.174a7.8 7.8 0 0 1 1.61-2.546 7.6 7.6 0 0 1 2.482-1.724q1.45-.63 3.19-.629 2.112 0 3.578.774 1.466.773 2.352 2.03a8.1 8.1 0 0 1 1.29 2.836q.402 1.579.402 3.239v.547H22.35q0 .854.387 1.563.387.693.983 1.193.612.483 1.386.757a5 5 0 0 0 1.546.258q1.128 0 1.966-.21a8.6 8.6 0 0 0 1.418-.499 5.4 5.4 0 0 0 1.563-1.112l2.111 2.385-.548.548q-.435.435-1.289.934-.837.5-2.143.887-1.305.403-3.11.403-1.853 0-3.367-.629a7.8 7.8 0 0 1-2.595-1.724 7.6 7.6 0 0 1-1.66-2.659q-.563-1.563-.563-3.448m3.883-1.45h7.59q0-.597-.226-1.176a3.3 3.3 0 0 0-.677-1.08 3.4 3.4 0 0 0-1.144-.79q-.692-.322-1.58-.322-.95 0-1.691.322a3.9 3.9 0 0 0-1.24.79 3.6 3.6 0 0 0-.774 1.08q-.258.596-.258 1.176m14.599 9.378V78.526h3.722l.096 1.95q.258-.323.677-.71.42-.402.983-.725a6.4 6.4 0 0 1 1.305-.58q.741-.24 1.692-.225.565 0 1 .064.45.064.918.226l-.79 3.674a3.7 3.7 0 0 0-.822-.226 5 5 0 0 0-.967-.08 4.3 4.3 0 0 0-1.514.273 3.55 3.55 0 0 0-1.257.758q-.533.5-.854 1.192a3.8 3.8 0 0 0-.306 1.547v8.347zm11.843-1.885 2.336-2.53q.725.725 1.821 1.208 1.112.468 2.53.468 1.258 0 2.014-.323.757-.337.757-1.096 0-.321-.129-.596-.128-.29-.564-.547-.418-.274-1.176-.532-.757-.274-2.046-.564a13 13 0 0 1-1.66-.532 6.7 6.7 0 0 1-1.595-.902 5 5 0 0 1-1.225-1.386q-.467-.822-.467-1.934 0-1.16.548-2.062a4.8 4.8 0 0 1 1.466-1.515 7.3 7.3 0 0 1 2.047-.934 8 8 0 0 1 2.304-.339q2.046 0 3.48.435 1.434.42 2.594 1.273l-2.014 2.74q-.628-.468-1.66-.838-1.014-.387-2.4-.387t-1.934.419q-.548.42-.548.999 0 .725.903 1.144.918.42 2.836.87 1.193.258 2.127.66.935.404 1.61 1 .678.595 1.032 1.402.37.805.37 1.933t-.531 2.03a4.6 4.6 0 0 1-1.434 1.531q-.902.629-2.111.967a9 9 0 0 1-2.562.355q-2.175 0-3.932-.613-1.74-.612-2.787-1.805M63.954 81.7v-3.174h2.642v-5.011h3.883v5.01h4.158V81.7H70.48v6.768q0 1.32.45 2.03.452.71 1.435.709.917 0 1.466-.258a8 8 0 0 0 1.047-.628l1.644 2.4q-1.16.952-2.288 1.37-1.112.42-2.498.42-1.417 0-2.417-.42-.983-.402-1.595-1.16-.612-.774-.87-1.837-.258-1.08-.258-2.368V81.7zm13.873 4.383q0-1.709.564-3.174a7.8 7.8 0 0 1 1.611-2.546 7.6 7.6 0 0 1 2.482-1.724q1.45-.63 3.19-.629 2.111 0 3.577.774 1.467.773 2.353 2.03a8.1 8.1 0 0 1 1.29 2.836q.402 1.579.402 3.239v.547H81.743q0 .854.386 1.563.387.693.983 1.193.613.483 1.386.757a5 5 0 0 0 1.547.258q1.128 0 1.966-.21a8.6 8.6 0 0 0 1.418-.499 5.4 5.4 0 0 0 1.563-1.112l2.11 2.385-.547.548q-.435.435-1.29.934-.837.5-2.142.887-1.305.403-3.11.403-1.854 0-3.368-.629a7.8 7.8 0 0 1-2.594-1.724 7.6 7.6 0 0 1-1.66-2.659q-.564-1.563-.564-3.448m3.883-1.45h7.59q0-.597-.226-1.176a3.3 3.3 0 0 0-.677-1.08 3.4 3.4 0 0 0-1.144-.79q-.693-.322-1.579-.322-.95 0-1.692.322a3.9 3.9 0 0 0-1.24.79 3.6 3.6 0 0 0-.774 1.08q-.258.596-.258 1.176m14.6 9.378V72h3.818v8.121q.596-.66 1.74-1.289t2.917-.628q1.417 0 2.529.467 1.128.45 1.87 1.305.757.838 1.144 2.03.402 1.177.402 2.595v9.41h-3.899v-9.378q0-1.483-.806-2.288-.806-.806-2.094-.806-.79 0-1.483.322a3.4 3.4 0 0 0-1.192.87q-.5.548-.79 1.306a4.6 4.6 0 0 0-.274 1.595v8.379zm16.854-12.31v-3.175h2.642v-5.011h3.883v5.01h4.158V81.7h-4.158v6.768q0 1.32.452 2.03.45.71 1.434.709.918 0 1.466-.258a8 8 0 0 0 1.047-.628l1.644 2.4q-1.16.952-2.288 1.37-1.112.42-2.498.42-1.418 0-2.417-.42-.983-.402-1.595-1.16a4.7 4.7 0 0 1-.87-1.837q-.258-1.08-.258-2.368V81.7zm14.92 12.31v-4.56h4.722v4.56zm9.217 0v-4.56h4.721v4.56zm9.217 0v-4.56h4.721v4.56z"/></svg>