<svg xmlns="http://www.w3.org/2000/svg" fill="none" viewBox="0 0 240 95"><path fill="#fff" d="m49.13 24.38.724-6.961h4.464l-2.24 6.96zm6.364 0 .725-6.961h4.464l-2.24 6.96zm9.362-2.37V0h14.228v3.658h-10.07v5.72h7.524v3.69h-7.525v8.943zM82.129 4.094V0h4.158v4.093zm.13 17.918V6.526h3.899V22.01zm7.895 0V6.526h3.722l.097 1.756q.29-.322.709-.693.418-.37.999-.676.579-.307 1.305-.5a6 6 0 0 1 1.643-.21q2.901 0 4.415 1.74 1.531 1.725 1.531 4.658v9.41h-3.899v-9.378q0-1.482-.806-2.288-.805-.806-2.095-.806-.789 0-1.482.322-.694.306-1.192.87a4.1 4.1 0 0 0-.79 1.306 4.6 4.6 0 0 0-.274 1.595v8.379zm17.45-7.46q0-1.822.516-3.175.532-1.37 1.321-2.336a7 7 0 0 1 1.451-1.322 10 10 0 0 1 1.611-.87 7.3 7.3 0 0 1 1.563-.5 7 7 0 0 1 1.321-.144q.757 0 1.257.048t.886.129q.404.081.725.225l.758.29V0h3.867v22.01h-3.771l-.096-1.514a8 8 0 0 1-.725.693q-.42.354-.999.66a7 7 0 0 1-1.289.484 5.6 5.6 0 0 1-1.596.21 6.2 6.2 0 0 1-2.481-.532 6.7 6.7 0 0 1-2.192-1.547q-.95-1.031-1.546-2.514-.58-1.482-.581-3.4m3.916 0q0 1.98.983 3.303.999 1.32 2.884 1.32.983 0 1.676-.37a3.25 3.25 0 0 0 1.128-.983q.435-.596.628-1.305.194-.709.194-1.37v-4.753a3.2 3.2 0 0 0-1.305-.644q-.742-.178-1.886-.178-1.16 0-1.917.452-.758.434-1.322 1.16-.5.66-.789 1.547a6 6 0 0 0-.274 1.82m14.454-.468q0-1.708.564-3.174a7.8 7.8 0 0 1 1.611-2.546 7.6 7.6 0 0 1 2.481-1.724q1.45-.63 3.191-.629 2.11 0 3.577.774 1.466.773 2.352 2.03a8.1 8.1 0 0 1 1.29 2.836q.402 1.579.402 3.239v.548h-11.553q0 .854.387 1.563.387.692.983 1.192a4.8 4.8 0 0 0 1.386.757 5 5 0 0 0 1.546.258q1.129 0 1.966-.21a8.6 8.6 0 0 0 1.418-.499 5.4 5.4 0 0 0 1.563-1.112l2.111 2.385-.548.548q-.435.435-1.289.934-.838.5-2.143.887-1.305.402-3.11.402-1.853 0-3.367-.628a7.8 7.8 0 0 1-2.595-1.724 7.6 7.6 0 0 1-1.659-2.659q-.564-1.563-.564-3.448m3.883-1.45h7.589q0-.597-.225-1.176a3.3 3.3 0 0 0-.677-1.08 3.4 3.4 0 0 0-1.144-.79q-.693-.321-1.579-.322-.951 0-1.692.322a3.9 3.9 0 0 0-1.241.79 3.6 3.6 0 0 0-.773 1.08q-.258.596-.258 1.176m19.835 1.917q0-1.821.516-3.174.532-1.37 1.321-2.336a7 7 0 0 1 1.45-1.322 10 10 0 0 1 1.612-.87 7.3 7.3 0 0 1 1.563-.5 7 7 0 0 1 1.321-.144q.757 0 1.257.048t.886.129q.403.081.725.225l.758.29V0h3.867v22.01h-3.771l-.096-1.514a8 8 0 0 1-.726.693 5.5 5.5 0 0 1-.999.66 7 7 0 0 1-1.289.484q-.708.21-1.595.21a6.2 6.2 0 0 1-2.481-.532 6.7 6.7 0 0 1-2.192-1.547q-.95-1.031-1.547-2.514-.58-1.482-.58-3.4m3.916 0q0 1.983.983 3.303.999 1.322 2.884 1.322.983 0 1.676-.37a3.25 3.25 0 0 0 1.128-.984q.435-.596.628-1.305.194-.709.194-1.37v-4.753a3.2 3.2 0 0 0-1.306-.644q-.74-.178-1.885-.178-1.16 0-1.917.452-.758.434-1.322 1.16-.5.66-.789 1.547a6 6 0 0 0-.274 1.82m15.211-10.457V0h4.157v4.093zm.129 17.918V6.526h3.899V22.01zm7.17-7.928q0-1.708.564-3.174a7.8 7.8 0 0 1 1.611-2.546 7.6 7.6 0 0 1 2.482-1.724q1.45-.63 3.19-.629 2.112 0 3.577.774 1.467.773 2.353 2.03a8.1 8.1 0 0 1 1.289 2.836 13 13 0 0 1 .403 3.239v.548h-11.553q0 .854.386 1.563.387.692.983 1.192.613.483 1.386.757a5 5 0 0 0 1.547.258q1.128 0 1.966-.21a8.6 8.6 0 0 0 1.418-.499 5.4 5.4 0 0 0 1.563-1.112l2.111 2.385-.548.548q-.435.435-1.289.934-.838.5-2.143.887-1.306.402-3.11.402-1.853 0-3.368-.628a7.8 7.8 0 0 1-2.594-1.724 7.6 7.6 0 0 1-1.66-2.659q-.564-1.563-.564-3.448m3.883-1.45h7.59q0-.597-.226-1.176a3.3 3.3 0 0 0-.677-1.08 3.4 3.4 0 0 0-1.144-.79q-.692-.321-1.579-.322-.95 0-1.692.322a3.9 3.9 0 0 0-1.24.79 3.6 3.6 0 0 0-.774 1.08q-.258.596-.258 1.176M0 56.126l2.336-2.53q.725.725 1.821 1.208 1.112.468 2.53.468 1.258 0 2.014-.323.758-.337.758-1.096 0-.321-.13-.596-.128-.29-.563-.547-.42-.274-1.177-.532-.758-.274-2.046-.564a13 13 0 0 1-1.66-.532 6.7 6.7 0 0 1-1.595-.902 5 5 0 0 1-1.225-1.386q-.467-.822-.467-1.934 0-1.16.548-2.062a4.8 4.8 0 0 1 1.466-1.515 7.3 7.3 0 0 1 2.047-.934 8 8 0 0 1 2.304-.339q2.046 0 3.48.435 1.435.42 2.595 1.273l-2.014 2.74q-.63-.468-1.66-.838-1.015-.387-2.401-.387t-1.934.419q-.548.42-.548.999 0 .725.903 1.144.918.42 2.836.87 1.193.258 2.127.66.934.404 1.611 1 .677.595 1.031 1.402.37.805.37 1.933t-.53 2.03a4.6 4.6 0 0 1-1.435 1.531q-.902.629-2.11.967a9 9 0 0 1-2.563.354q-2.175 0-3.931-.612-1.74-.612-2.788-1.804m15.791-5.866q0-1.675.612-3.174a8.1 8.1 0 0 1 1.692-2.626 8.1 8.1 0 0 1 2.627-1.79q1.53-.66 3.383-.66 1.885 0 3.433.677a8.1 8.1 0 0 1 2.642 1.82L27.7 47.023a4.7 4.7 0 0 0-1.547-1.177q-.886-.435-2.047-.435-1.126 0-1.95.42a4.1 4.1 0 0 0-1.369 1.063q-.547.66-.822 1.547a6.5 6.5 0 0 0-.258 1.82q0 .887.258 1.757.274.854.822 1.546t1.37 1.128q.822.42 1.95.42 1.16 0 2.11-.452.95-.45 1.612-1.208l2.32 2.513a8.4 8.4 0 0 1-2.578 1.853q-1.483.693-3.465.693t-3.544-.596q-1.548-.596-2.61-1.676a7.5 7.5 0 0 1-1.612-2.61q-.548-1.53-.548-3.368m16.967 7.75V36h3.82v8.121q.595-.66 1.74-1.289 1.143-.628 2.916-.628 1.417 0 2.53.467 1.128.45 1.869 1.305.757.838 1.144 2.03.403 1.177.403 2.595v9.41h-3.9v-9.378q0-1.483-.805-2.288-.807-.806-2.095-.806-.79 0-1.483.322-.693.307-1.192.87a4.1 4.1 0 0 0-.79 1.306 4.6 4.6 0 0 0-.273 1.595v8.379zm18.176 0V42.527h3.722l.097 1.756q.29-.323.709-.693.42-.37.999-.676.58-.306 1.305-.5a6 6 0 0 1 1.644-.21q2.9 0 4.415 1.74 1.53 1.725 1.53 4.658v9.41h-3.899v-9.378q0-1.483-.806-2.288-.806-.806-2.094-.806-.79 0-1.483.322-.694.307-1.192.87a4.1 4.1 0 0 0-.79 1.306 4.6 4.6 0 0 0-.274 1.595v8.379zm17.45-7.927q0-1.709.565-3.174a7.8 7.8 0 0 1 1.611-2.546 7.6 7.6 0 0 1 2.481-1.724q1.45-.63 3.19-.629 2.111 0 3.578.774 1.467.773 2.353 2.03a8.1 8.1 0 0 1 1.289 2.836q.403 1.579.403 3.239v.547H72.3q0 .854.387 1.563.386.693.983 1.193.612.483 1.386.757a5 5 0 0 0 1.547.258q1.128 0 1.965-.21a8.6 8.6 0 0 0 1.418-.499 5.4 5.4 0 0 0 1.563-1.112l2.111 2.385-.548.548q-.435.435-1.289.934-.838.5-2.143.887-1.305.402-3.11.402-1.853 0-3.367-.628a7.8 7.8 0 0 1-2.595-1.724 7.6 7.6 0 0 1-1.66-2.659q-.563-1.563-.563-3.448m3.884-1.45h7.59q0-.597-.226-1.177a3.3 3.3 0 0 0-.677-1.079 3.4 3.4 0 0 0-1.144-.79q-.692-.322-1.58-.322-.95 0-1.691.322a3.9 3.9 0 0 0-1.24.79 3.6 3.6 0 0 0-.774 1.08q-.258.596-.258 1.176m14.599 9.378V36h3.883v22.01zm7.734 0V36h3.883v22.01zm6.977-1.886 2.337-2.53q.725.726 1.82 1.21 1.113.466 2.53.467 1.257 0 2.014-.323.758-.337.758-1.096 0-.321-.129-.596-.129-.29-.564-.547-.42-.274-1.177-.532-.757-.274-2.046-.564a13.5 13.5 0 0 1-1.66-.532 6.7 6.7 0 0 1-1.595-.902 5 5 0 0 1-1.224-1.386q-.468-.822-.468-1.934 0-1.16.548-2.062a4.8 4.8 0 0 1 1.466-1.515 7.3 7.3 0 0 1 2.047-.934 8 8 0 0 1 2.304-.339q2.046 0 3.481.435 1.434.42 2.594 1.273l-2.014 2.74q-.629-.468-1.66-.838-1.015-.387-2.401-.387t-1.934.419q-.547.42-.547.999 0 .725.902 1.144.918.42 2.836.87 1.193.258 2.127.66.935.404 1.611 1 .677.595 1.031 1.402.37.805.371 1.933 0 1.128-.532 2.03a4.6 4.6 0 0 1-1.434 1.531q-.902.629-2.111.967a9 9 0 0 1-2.562.354q-2.175 0-3.931-.612-1.74-.612-2.788-1.804M116.773 45.7v-3.174h2.643v-5.011h3.883v5.01h4.157V45.7h-4.157v6.768q0 1.32.451 2.03.452.71 1.434.709.918 0 1.466-.258a8 8 0 0 0 1.048-.628l1.643 2.4q-1.16.952-2.288 1.37-1.112.42-2.497.42-1.419 0-2.417-.42a3.9 3.9 0 0 1-1.596-1.16 4.7 4.7 0 0 1-.87-1.837 10.2 10.2 0 0 1-.257-2.368V45.7zm13.873 4.383q0-1.709.564-3.174a7.8 7.8 0 0 1 1.612-2.546 7.6 7.6 0 0 1 2.481-1.724q1.45-.63 3.191-.629 2.11 0 3.577.774 1.466.773 2.352 2.03a8.1 8.1 0 0 1 1.289 2.836 13 13 0 0 1 .403 3.239v.547h-11.553q0 .854.387 1.563.387.693.983 1.193.612.483 1.385.757a5 5 0 0 0 1.547.258q1.128 0 1.966-.21a8.6 8.6 0 0 0 1.418-.499 5.4 5.4 0 0 0 1.563-1.112l2.111 2.385-.548.548q-.435.435-1.289.934-.838.5-2.143.887-1.305.402-3.11.402-1.853 0-3.368-.628a7.8 7.8 0 0 1-2.594-1.724 7.6 7.6 0 0 1-1.66-2.659q-.564-1.563-.564-3.448m3.884-1.45h7.589q0-.597-.225-1.177a3.3 3.3 0 0 0-.677-1.079 3.4 3.4 0 0 0-1.144-.79q-.693-.322-1.579-.322-.951 0-1.692.322a3.9 3.9 0 0 0-1.241.79 3.6 3.6 0 0 0-.773 1.08q-.258.596-.258 1.176m20.947 9.378V36h7.299q2.079 0 3.529.628 1.45.629 2.337 1.612a6 6 0 0 1 1.305 2.127q.419 1.143.419 2.207 0 2.079-.919 3.674-.902 1.596-2.771 2.562l5.075 9.2h-4.689l-4.447-8.684h-3.142v8.685zm3.996-12.117h3.336q1.578 0 2.449-.919.886-.918.886-2.24 0-1.418-.935-2.304-.918-.902-2.4-.902h-3.336zm14.228 4.366q0-1.675.612-3.174a8.1 8.1 0 0 1 1.692-2.626 8.1 8.1 0 0 1 2.627-1.79q1.53-.66 3.384-.66t3.383.66a7.9 7.9 0 0 1 2.611 1.79q1.096 1.11 1.708 2.61.612 1.498.612 3.19 0 1.675-.612 3.19a8.4 8.4 0 0 1-1.708 2.643 7.9 7.9 0 0 1-2.611 1.789q-1.53.66-3.383.66-1.854 0-3.384-.66a8.1 8.1 0 0 1-2.627-1.789 8.5 8.5 0 0 1-1.692-2.642 8.4 8.4 0 0 1-.612-3.19m3.916 0q0 .855.258 1.708a5.5 5.5 0 0 0 .821 1.595q.548.726 1.37 1.177.822.435 1.95.435 1.127 0 1.949-.435.822-.451 1.354-1.177a5.2 5.2 0 0 0 .806-1.595q.273-.854.273-1.708 0-.822-.273-1.692a4.8 4.8 0 0 0-.806-1.595 4 4 0 0 0-1.37-1.144q-.822-.45-1.933-.451-1.128 0-1.95.451a4.2 4.2 0 0 0-1.37 1.144 5 5 0 0 0-.821 1.595 6 6 0 0 0-.258 1.692m15.758 1.676v-9.41h3.884v9.378q0 1.482.805 2.304.822.806 2.111.806.79 0 1.483-.306.693-.322 1.176-.887.5-.563.773-1.305.29-.741.29-1.595v-8.395h3.9V58.01h-3.738l-.097-1.757a8 8 0 0 1-.725.693q-.435.37-.999.693-.548.306-1.273.5a6.5 6.5 0 0 1-1.66.193q-2.9 0-4.415-1.724-1.515-1.74-1.515-4.673m16.919-6.236v-3.174h2.643v-5.011h3.883v5.01h4.158V45.7h-4.158v6.768q0 1.32.451 2.03t1.435.709q.918 0 1.466-.258a8 8 0 0 0 1.047-.628l1.644 2.4q-1.16.952-2.288 1.37-1.113.42-2.498.42-1.418 0-2.417-.42-.983-.402-1.595-1.16a4.7 4.7 0 0 1-.87-1.837q-.258-1.08-.258-2.368V45.7zm13.874 4.383q0-1.709.564-3.174a7.8 7.8 0 0 1 1.611-2.546 7.6 7.6 0 0 1 2.482-1.724q1.45-.63 3.19-.629 2.111 0 3.577.774 1.467.773 2.353 2.03a8.1 8.1 0 0 1 1.289 2.836q.403 1.579.403 3.239v.547h-11.554q0 .854.387 1.563.387.693.983 1.193a4.8 4.8 0 0 0 1.386.757 5 5 0 0 0 1.547.258q1.128 0 1.966-.21a8.6 8.6 0 0 0 1.418-.499 5.4 5.4 0 0 0 1.563-1.112l2.11 2.385-.547.548q-.436.435-1.29.934-.837.5-2.143.887-1.305.402-3.109.402-1.853 0-3.368-.628a7.8 7.8 0 0 1-2.594-1.724 7.6 7.6 0 0 1-1.66-2.659q-.564-1.563-.564-3.448m3.883-1.45h7.59q0-.597-.226-1.177a3.3 3.3 0 0 0-.677-1.079 3.4 3.4 0 0 0-1.144-.79q-.693-.322-1.579-.322-.951 0-1.692.322a3.9 3.9 0 0 0-1.24.79 3.6 3.6 0 0 0-.774 1.08q-.258.596-.258 1.176M62.729 94.01V78.526h3.722l.097 1.756q.29-.323.709-.693.42-.37.999-.676.58-.306 1.305-.5a6 6 0 0 1 1.644-.21q2.9 0 4.415 1.74 1.53 1.725 1.53 4.658v9.41h-3.899v-9.378q0-1.483-.806-2.288-.806-.806-2.094-.806-.79 0-1.483.322-.694.307-1.192.87a4.1 4.1 0 0 0-.79 1.306 4.6 4.6 0 0 0-.274 1.595v8.379zm17.177-4.528q0-1.32.5-2.353a4.94 4.94 0 0 1 1.385-1.756q.886-.71 2.143-1.063 1.257-.371 2.772-.371a36 36 0 0 1 2.11.064q.597.033 1.225.081v-.37q0-1.161-.935-1.821-.918-.66-2.4-.661-1.644 0-2.643.435-.983.435-1.74.918l-1.789-2.626q.468-.322 1.064-.677t1.385-.628q.79-.291 1.821-.468 1.048-.177 2.433-.177 1.483 0 2.691.42 1.209.403 2.063 1.143t1.321 1.789q.467 1.031.467 2.256V94.01h-3.641l-.097-1.45q-.629.757-1.917 1.353-1.29.596-2.869.596a6.2 6.2 0 0 1-1.901-.306 5.2 5.2 0 0 1-1.708-.902 4.64 4.64 0 0 1-1.257-1.563q-.483-.968-.483-2.256m3.738-.161q0 .982.709 1.547.709.564 2.095.564a4 4 0 0 0 1.337-.226q.645-.226 1.128-.628.5-.403.806-.919.322-.531.322-1.128v-1.514l-1.16-.065q-.468-.032-.983-.048-.5-.016-.854-.016-1.886 0-2.643.74-.757.742-.757 1.693m13.165-3.062q0-1.675.612-3.174a8.1 8.1 0 0 1 1.692-2.626 8.1 8.1 0 0 1 2.626-1.79q1.531-.66 3.384-.66 1.886 0 3.432.677a8.1 8.1 0 0 1 2.643 1.82l-2.482 2.514a4.7 4.7 0 0 0-1.547-1.176q-.886-.435-2.046-.435-1.128 0-1.95.42a4.1 4.1 0 0 0-1.369 1.063q-.548.66-.822 1.546a6.5 6.5 0 0 0-.258 1.821q0 .886.258 1.757.274.854.822 1.547.547.692 1.369 1.127.822.42 1.95.42 1.16 0 2.111-.452a4.9 4.9 0 0 0 1.611-1.208l2.321 2.513a8.4 8.4 0 0 1-2.579 1.853q-1.482.693-3.464.693t-3.545-.596q-1.547-.596-2.61-1.676a7.5 7.5 0 0 1-1.612-2.61q-.547-1.53-.547-3.368m16.967 7.75V72h3.819v8.121q.596-.66 1.74-1.289t2.916-.628q1.419 0 2.53.467 1.128.45 1.869 1.305.758.838 1.144 2.03.403 1.177.403 2.595v9.41h-3.899v-9.378q0-1.483-.806-2.288-.805-.806-2.095-.806-.789 0-1.482.322a3.4 3.4 0 0 0-1.192.87q-.5.548-.79 1.306a4.6 4.6 0 0 0-.274 1.595v8.379zm24.46 0v-4.56h4.721v4.56zm9.217 0v-4.56h4.721v4.56zm9.216 0v-4.56h4.722v4.56zm9.056-15.017.725-6.96h4.464l-2.256 6.96zm6.268 0 .725-6.96h4.464l-2.256 6.96z"/></svg>