<svg xmlns="http://www.w3.org/2000/svg" fill="none" viewBox="0 0 199 24"><path fill="#fff" d="m0 3.047 1.33-.697L0 1.652.55.697l1.272.803L1.764 0h1.101l-.047 1.5L4.066.697l.551.955-1.306.698 1.306.697-.55.96-1.249-.802.047 1.5H1.764l.058-1.5-1.271.803zm8.32 5.52V.562h1.524l3.879 5.689V.562h1.476v8.004h-1.488l-3.914-5.76v5.76zm8.426-6.516V.562h1.512v1.489zm.047 6.515v-5.63h1.418v5.63zM19.4 5.748q0-.61.223-1.154.223-.551.615-.955.399-.41.955-.65.557-.24 1.23-.24.687-.001 1.249.245t.96.662l-.902.914a1.669 1.669 0 0 0-1.307-.586q-.41 0-.708.153-.3.146-.498.386a1.6 1.6 0 0 0-.299.563 2.4 2.4 0 0 0-.094.662q0 .323.094.639.1.31.299.562.2.252.498.41.299.153.709.153a1.77 1.77 0 0 0 1.353-.604l.844.914a3.1 3.1 0 0 1-.937.674q-.54.252-1.26.252t-1.29-.217a2.65 2.65 0 0 1-.948-.61 2.7 2.7 0 0 1-.586-.948q-.2-.557-.2-1.225m6.17 2.818V.562h1.389v2.954q.217-.24.633-.47.415-.227 1.06-.228.515 0 .92.17.41.165.68.475.275.305.416.738.147.428.146.944v3.421h-1.418v-3.41q0-.539-.293-.832t-.761-.293q-.287 0-.54.117-.251.112-.433.317a1.5 1.5 0 0 0-.287.474q-.1.27-.1.58v3.047zm6.346-2.818q0-.61.223-1.154.222-.551.615-.955.399-.41.955-.65t1.23-.24 1.23.24q.558.24.95.65.399.405.621.949.223.545.223 1.16 0 .61-.223 1.16a3 3 0 0 1-.62.961 2.9 2.9 0 0 1-.95.65q-.556.24-1.23.24-.675 0-1.231-.24a2.9 2.9 0 0 1-.955-.65 3.1 3.1 0 0 1-.838-2.12m1.424 0q0 .31.094.621.1.31.298.58.2.264.498.428.3.158.71.158t.708-.158q.3-.165.493-.428.198-.27.293-.58.1-.31.1-.62 0-.3-.1-.616a1.7 1.7 0 0 0-.293-.58 1.44 1.44 0 0 0-.498-.416q-.3-.165-.703-.164-.41 0-.71.164-.298.158-.498.416a1.8 1.8 0 0 0-.298.58q-.094.316-.094.615m5.754 2.818V.562h1.412v8.004zm2.449-1.646q0-.48.182-.856.181-.38.503-.638.323-.258.78-.387.456-.135 1.008-.135a13 13 0 0 1 .767.024q.217.012.445.029v-.135a.77.77 0 0 0-.34-.662q-.333-.24-.872-.24-.599 0-.961.158-.358.159-.633.334l-.65-.955q.17-.117.386-.246.218-.129.504-.229a4 4 0 0 1 .662-.17q.381-.063.885-.064.54 0 .978.152.441.147.75.416.312.27.481.65.17.375.17.821v3.78h-1.324l-.036-.528q-.228.276-.697.492a2.45 2.45 0 0 1-1.734.106 1.9 1.9 0 0 1-.621-.328 1.7 1.7 0 0 1-.457-.569 1.8 1.8 0 0 1-.176-.82m1.36-.059a.68.68 0 0 0 .257.563q.258.205.762.205.252 0 .486-.082a1.3 1.3 0 0 0 .41-.229q.183-.146.293-.334a.8.8 0 0 0 .117-.41v-.55L44.808 6a10 10 0 0 0-.668-.023q-.686 0-.961.27a.84.84 0 0 0-.276.614m4.775 1.02.85-.92q.263.263.662.44.404.17.92.17.456 0 .732-.118.275-.123.275-.398a.5.5 0 0 0-.047-.217.5.5 0 0 0-.205-.2 2 2 0 0 0-.428-.193 6 6 0 0 0-.744-.205 5 5 0 0 1-.603-.193 2.4 2.4 0 0 1-.58-.328 1.8 1.8 0 0 1-.445-.504q-.17-.3-.17-.703 0-.423.199-.75a1.75 1.75 0 0 1 .533-.551q.334-.223.744-.34a3 3 0 0 1 .838-.123q.744 0 1.266.158.521.153.943.463l-.733.996a2.3 2.3 0 0 0-.603-.304 2.5 2.5 0 0 0-.873-.141q-.504 0-.703.152-.2.153-.2.364 0 .263.329.416.333.152 1.031.316.434.094.774.24.339.147.585.363.247.217.375.51.135.294.135.703 0 .41-.193.739a1.7 1.7 0 0 1-.522.556 2.5 2.5 0 0 1-.767.352 3.3 3.3 0 0 1-.932.129 4.3 4.3 0 0 1-1.43-.223q-.633-.222-1.013-.656m8.314.685V.562h1.512V3.78h3.973V.563h1.511v8.003h-1.511V5.121h-3.973v3.445zM64.16 6.92q0-.48.182-.856.18-.38.504-.638.322-.258.779-.387.457-.135 1.008-.135a13 13 0 0 1 .767.024q.217.012.446.029v-.135a.77.77 0 0 0-.34-.662q-.334-.24-.873-.24-.598 0-.961.158-.358.159-.633.334l-.65-.955q.17-.117.386-.246.217-.129.504-.229a4 4 0 0 1 .662-.17q.382-.063.885-.064.54 0 .979.152.44.147.75.416.31.27.48.65.17.375.17.821v3.78h-1.324l-.035-.528q-.229.276-.698.492a2.46 2.46 0 0 1-1.734.106 1.9 1.9 0 0 1-.621-.328 1.7 1.7 0 0 1-.457-.569 1.8 1.8 0 0 1-.176-.82m1.36-.059a.68.68 0 0 0 .257.563q.258.205.762.205.252 0 .486-.082.235-.082.41-.229.183-.146.293-.334a.8.8 0 0 0 .118-.41v-.55L67.424 6a10 10 0 0 0-.668-.023q-.686 0-.961.27a.84.84 0 0 0-.276.614m5.05 1.705V.562h1.412v8.004zm2.813 0V.562h1.412v8.004zm2.87-5.46.265-2.532h1.623l-.82 2.531zm2.878 4.775.85-.92q.263.263.662.44.404.17.92.17.456 0 .732-.118.275-.123.275-.398a.5.5 0 0 0-.047-.217.5.5 0 0 0-.205-.2 2 2 0 0 0-.427-.193 6 6 0 0 0-.745-.205 5 5 0 0 1-.603-.193 2.4 2.4 0 0 1-.58-.328 1.8 1.8 0 0 1-.445-.504q-.17-.3-.17-.703 0-.423.199-.75a1.75 1.75 0 0 1 .533-.551q.334-.223.744-.34.417-.123.838-.123.744 0 1.266.158.521.153.943.463l-.732.996a2.3 2.3 0 0 0-.604-.304 2.5 2.5 0 0 0-.873-.141q-.504 0-.703.152-.2.153-.2.364 0 .263.329.416.334.152 1.031.316.434.094.774.24.339.147.585.363.247.217.376.51.135.294.134.703 0 .41-.193.739a1.7 1.7 0 0 1-.522.556 2.5 2.5 0 0 1-.767.352 3.3 3.3 0 0 1-.932.129 4.3 4.3 0 0 1-1.43-.223q-.633-.222-1.013-.656m7.91-2.05q0-.622.223-1.173.222-.556.633-.96a3 3 0 0 1 1.001-.645 3.6 3.6 0 0 1 1.319-.235q.732 0 1.347.123.622.118 1.008.247V8.66q0 .585-.205 1.043-.204.457-.568.768-.358.316-.85.474-.492.165-1.066.164-.446 0-.785-.04a4 4 0 0 1-.616-.118 2.711 2.711 0 0 1-.902-.428l.633-1.043q.334.229.727.329t.92.1q.55 0 .92-.335.374-.334.374-.937v-.61q-.287.24-.632.393-.34.147-.903.146a2.7 2.7 0 0 1-1.084-.205 2.4 2.4 0 0 1-.814-.568 2.5 2.5 0 0 1-.51-.867 3.4 3.4 0 0 1-.17-1.096m1.436-.036q0 .65.322 1.096.328.44 1.049.44.65 0 .978-.276t.328-.88V4.16a2 2 0 0 0-.351-.088 4 4 0 0 0-.557-.029q-.434 0-.762.146-.322.141-.55.381-.23.24-.346.563a2 2 0 0 0-.111.662m5.484 2.771V.562h1.412v8.004zm2.549-2.818q0-.61.222-1.154.223-.551.616-.955.398-.41.955-.65t1.23-.24q.675 0 1.231.24t.949.65q.399.405.621.949.222.545.223 1.16 0 .61-.223 1.16a3 3 0 0 1-.621.961q-.393.41-.949.65-.557.24-1.23.24-.675 0-1.231-.24a2.9 2.9 0 0 1-.955-.65 3.1 3.1 0 0 1-.838-2.12m1.424 0q0 .31.093.621a2 2 0 0 0 .3.58q.198.264.497.428.3.158.71.158t.708-.158q.298-.165.492-.428.2-.27.293-.58.1-.31.1-.62 0-.3-.1-.616a1.7 1.7 0 0 0-.293-.58 1.44 1.44 0 0 0-.498-.416 1.44 1.44 0 0 0-.703-.164q-.41 0-.709.164-.299.158-.498.416a1.8 1.8 0 0 0-.299.58 2.2 2.2 0 0 0-.093.615m5.754 2.637V.563h1.412v2.76q.146-.147.55-.323.41-.182.991-.182.609 0 1.084.229.475.228.808.615.34.381.51.908.176.528.176 1.114 0 .638-.223 1.195a2.85 2.85 0 0 1-.639.973 3 3 0 0 1-1.002.662q-.586.246-1.318.246t-1.353-.123a7 7 0 0 1-.996-.252m1.412-.973q.17.059.351.094.182.03.563.03.433 0 .756-.147.322-.153.55-.405.23-.251.34-.58.117-.333.117-.68 0-.321-.076-.62a1.6 1.6 0 0 0-.246-.54 1.2 1.2 0 0 0-.428-.369 1.27 1.27 0 0 0-.615-.14q-.65 0-.984.334-.328.328-.328.902zm4.88-.492q0-.48.182-.856.181-.38.504-.638t.779-.387q.458-.135 1.008-.135a13 13 0 0 1 .768.024q.217.012.445.029v-.135a.77.77 0 0 0-.34-.662q-.334-.24-.873-.24-.597 0-.961.158a5 5 0 0 0-.633.334l-.65-.955q.17-.117.387-.246.216-.129.504-.229a4 4 0 0 1 .662-.17q.381-.063.884-.064.54 0 .979.152.44.147.75.416.31.27.48.65.17.375.17.821v3.78h-1.324l-.035-.528q-.229.276-.697.492a2.46 2.46 0 0 1-1.735.106 1.9 1.9 0 0 1-.621-.328 1.7 1.7 0 0 1-.457-.569 1.8 1.8 0 0 1-.176-.82m1.36-.059a.68.68 0 0 0 .258.563q.257.205.761.205.252 0 .487-.082a1.3 1.3 0 0 0 .41-.229q.182-.146.293-.334a.8.8 0 0 0 .117-.41v-.55L113.244 6a10 10 0 0 0-.668-.023q-.685 0-.961.27a.84.84 0 0 0-.275.614m5.051 1.705V.562h1.412v8.004zm4.81-3.96q0-.879.299-1.641a4.1 4.1 0 0 1 .85-1.342A4.028 4.028 0 0 1 125.32.37q.586 0 1.078.129.493.123.891.34.405.216.715.51.316.293.557.632l-1.073.944a3.3 3.3 0 0 0-.896-.885q-.504-.334-1.272-.334-.586 0-1.06.234a2.4 2.4 0 0 0-.797.622 2.8 2.8 0 0 0-.504.914 3.4 3.4 0 0 0-.176 1.095q0 .574.176 1.078.175.505.498.88.323.368.773.585.451.217 1.014.217.516 0 .879-.117.369-.123.627-.299.257-.182.434-.38.175-.2.316-.346l1.061.914q-.183.275-.504.568-.317.287-.75.533a4.4 4.4 0 0 1-.944.399 3.7 3.7 0 0 1-1.095.158 4.2 4.2 0 0 1-1.647-.31 3.9 3.9 0 0 1-1.277-.874 4 4 0 0 1-.844-1.312 4.5 4.5 0 0 1-.299-1.659m8.467 3.96V.562h1.512V3.78h3.972V.563h1.512v8.003h-1.512V5.121h-3.972v3.445zm8.361-3.96q0-.879.299-1.641a4.1 4.1 0 0 1 .85-1.342 4 4 0 0 1 1.301-.914 4 4 0 0 1 1.669-.34q.586 0 1.079.129.492.123.89.34.405.216.715.51.317.293.557.632l-1.073.944a3.3 3.3 0 0 0-.896-.885q-.504-.334-1.272-.334-.585 0-1.06.234a2.4 2.4 0 0 0-.797.622 2.8 2.8 0 0 0-.504.914 3.4 3.4 0 0 0-.176 1.095q0 .574.176 1.078.175.505.498.88.323.368.774.585.45.217 1.013.217.516 0 .879-.117.369-.123.627-.299.258-.182.434-.38.175-.2.316-.346l1.061.914a3 3 0 0 1-.504.568q-.317.287-.75.533-.428.246-.944.399a3.7 3.7 0 0 1-1.095.158 4.2 4.2 0 0 1-1.647-.31 3.9 3.9 0 0 1-1.277-.874 4 4 0 0 1-.844-1.312 4.5 4.5 0 0 1-.299-1.659m10.231 1.248q0-.663.187-1.155a3.1 3.1 0 0 1 .481-.85 2.5 2.5 0 0 1 .527-.48 3.6 3.6 0 0 1 .586-.316 2.7 2.7 0 0 1 1.049-.235q.275 0 .457.018.181.018.322.047.147.03.264.082l.275.105V.563h1.406v8.003h-1.371l-.035-.55q-.105.117-.263.252a2 2 0 0 1-.364.24q-.21.105-.469.176a2 2 0 0 1-.58.076q-.456 0-.902-.194a2.4 2.4 0 0 1-.797-.562 3 3 0 0 1-.562-.914 3.4 3.4 0 0 1-.211-1.236m1.424 0q0 .72.357 1.2.363.481 1.049.481.357 0 .609-.135.258-.14.41-.357.159-.217.229-.475t.07-.498V4.342a1.16 1.16 0 0 0-.474-.235 3 3 0 0 0-.686-.064q-.422 0-.697.164a1.6 1.6 0 0 0-.481.422q-.181.24-.287.562-.099.317-.099.663m5.156 1.066q0-.48.181-.856.183-.38.504-.638.323-.258.78-.387.456-.135 1.007-.135a13 13 0 0 1 .768.024q.217.012.445.029v-.135a.77.77 0 0 0-.339-.662q-.334-.24-.874-.24-.597 0-.96.158-.359.159-.633.334l-.651-.955q.171-.117.387-.246.218-.129.504-.229a4 4 0 0 1 .662-.17q.381-.063.885-.064.538 0 .978.152.44.147.75.416.311.27.481.65.17.375.17.821v3.78h-1.324l-.036-.528q-.228.276-.697.492a2.45 2.45 0 0 1-1.734.106 1.9 1.9 0 0 1-.621-.328 1.7 1.7 0 0 1-.457-.569 1.8 1.8 0 0 1-.176-.82m1.359-.059a.68.68 0 0 0 .258.563q.258.205.762.205.252 0 .486-.082a1.3 1.3 0 0 0 .41-.229q.182-.146.293-.334a.8.8 0 0 0 .117-.41v-.55L158.104 6a10 10 0 0 0-.668-.023q-.686 0-.961.27a.84.84 0 0 0-.276.614m4.571-2.771V2.936h.96V1.113h1.413v1.823h1.511V4.09h-1.511v2.46q0 .481.164.74.164.256.521.257.335 0 .533-.094.2-.099.381-.228l.598.873q-.422.345-.832.498a2.6 2.6 0 0 1-.908.152q-.516 0-.879-.152a1.4 1.4 0 0 1-.58-.422 1.7 1.7 0 0 1-.317-.668 3.7 3.7 0 0 1-.094-.861V4.09zm4.945 2.83q0-.48.181-.856.183-.38.504-.638.323-.258.78-.387.456-.135 1.008-.135a13 13 0 0 1 .767.024q.217.012.445.029v-.135a.77.77 0 0 0-.339-.662q-.335-.24-.873-.24-.598 0-.961.158-.359.159-.633.334l-.651-.955q.171-.117.387-.246.218-.129.504-.229a4 4 0 0 1 .662-.17q.381-.063.885-.064.538 0 .978.152.44.147.75.416.311.27.481.65.17.375.17.821v3.78h-1.324l-.036-.528q-.228.276-.697.492a2.45 2.45 0 0 1-1.734.106 1.9 1.9 0 0 1-.621-.328 1.7 1.7 0 0 1-.457-.569 1.8 1.8 0 0 1-.176-.82m1.359-.059a.68.68 0 0 0 .258.563q.258.205.762.205.252 0 .486-.082a1.3 1.3 0 0 0 .41-.229q.182-.146.293-.334a.8.8 0 0 0 .117-.41v-.55L168.979 6a10 10 0 0 0-.668-.023q-.686 0-.961.27a.84.84 0 0 0-.276.614m5.051 1.524V.563h1.412v2.76q.147-.147.551-.323.41-.182.99-.182.61 0 1.084.229.475.228.809.615.34.381.509.908.177.528.176 1.114 0 .638-.222 1.195a2.9 2.9 0 0 1-.639.973 3 3 0 0 1-1.002.662q-.586.246-1.318.246a7 7 0 0 1-1.354-.123 7 7 0 0 1-.996-.252m1.412-.973q.17.059.352.094.181.03.562.03.433 0 .756-.147.322-.153.551-.405.228-.251.34-.58.117-.333.117-.68 0-.321-.076-.62a1.6 1.6 0 0 0-.246-.54 1.2 1.2 0 0 0-.428-.369 1.27 1.27 0 0 0-.615-.14q-.65 0-.985.334-.328.328-.328.902zm4.881-.492q0-.48.182-.856.181-.38.504-.638.321-.258.779-.387.457-.135 1.008-.135a13 13 0 0 1 .767.024q.217.012.446.029v-.135a.77.77 0 0 0-.34-.662q-.334-.24-.873-.24-.598 0-.961.158-.358.159-.633.334l-.651-.955q.171-.117.387-.246.218-.129.504-.229.287-.105.662-.17.381-.063.885-.064.54 0 .978.152.44.147.75.416.312.27.481.65.17.375.17.821v3.78h-1.324l-.035-.528q-.229.276-.698.492a2.45 2.45 0 0 1-1.734.106 1.9 1.9 0 0 1-.621-.328 1.7 1.7 0 0 1-.457-.569 1.8 1.8 0 0 1-.176-.82m1.359-.059a.68.68 0 0 0 .258.563q.258.205.762.205.252 0 .486-.082a1.3 1.3 0 0 0 .41-.229q.182-.146.293-.334a.8.8 0 0 0 .118-.41v-.55L181.682 6a10 10 0 0 0-.668-.023q-.686 0-.961.27a.84.84 0 0 0-.276.614m4.776 1.02.849-.92q.264.263.662.44.405.17.92.17.457 0 .733-.118.275-.123.275-.398a.5.5 0 0 0-.047-.217.47.47 0 0 0-.205-.2 2 2 0 0 0-.428-.193 6 6 0 0 0-.744-.205 5 5 0 0 1-.603-.193 2.4 2.4 0 0 1-.58-.328 1.8 1.8 0 0 1-.446-.504 1.4 1.4 0 0 1-.169-.703q0-.423.199-.75a1.74 1.74 0 0 1 .533-.551q.335-.223.744-.34a3 3 0 0 1 .838-.123q.744 0 1.266.158.521.153.943.463l-.732.996a2.4 2.4 0 0 0-.604-.304 2.5 2.5 0 0 0-.873-.141q-.504 0-.703.152-.2.153-.199.364 0 .263.328.416.333.152 1.031.316.434.094.773.24.34.147.586.363.246.217.375.51.135.294.135.703 0 .41-.193.739a1.7 1.7 0 0 1-.522.556q-.327.23-.767.352a3.3 3.3 0 0 1-.932.129 4.3 4.3 0 0 1-1.43-.223q-.632-.222-1.013-.656m5.742-2.197q0-.622.205-1.155a2.8 2.8 0 0 1 .586-.925 2.8 2.8 0 0 1 .902-.627 2.9 2.9 0 0 1 1.16-.229q.768 0 1.301.281.534.282.856.739.328.456.468 1.03.147.575.147 1.179v.199h-4.201q0 .31.14.568.14.252.358.434a1.74 1.74 0 0 0 1.066.369q.41 0 .715-.076a3 3 0 0 0 .516-.182 2 2 0 0 0 .568-.404l.768.867-.2.2a2.3 2.3 0 0 1-.468.339 3.4 3.4 0 0 1-.78.322 3.9 3.9 0 0 1-1.131.147q-.674 0-1.224-.229a2.8 2.8 0 0 1-.943-.627 2.8 2.8 0 0 1-.604-.966 3.7 3.7 0 0 1-.205-1.254m1.412-.528h2.76q0-.216-.082-.427a1.2 1.2 0 0 0-.662-.68 1.35 1.35 0 0 0-.575-.117q-.345 0-.615.117-.269.111-.451.287a1.3 1.3 0 0 0-.281.393 1.1 1.1 0 0 0-.094.427m5.402 5.127.756-1.717h-.609v-1.67h1.717v1.647l-1.02 1.74zM8.813 21.566v-8.003H11.8q.937 0 1.717.24t1.341.732q.569.492.88 1.26.31.768.31 1.81 0 .997-.317 1.735-.315.738-.89 1.236-.569.498-1.348.744a5.6 5.6 0 0 1-1.705.246zm1.511-1.341h1.336q1.366 0 2.086-.663.72-.66.72-1.933 0-1.26-.667-1.992-.662-.733-2.139-.733h-1.336zm7.196 1.341v-8.003h2.748q.638 0 1.125.164.486.157.808.445.323.28.492.662.17.375.17.814 0 .423-.158.739-.157.31-.37.521-.204.205-.415.31-.21.1-.328.1.216.023.504.135.287.105.545.334t.433.598q.182.363.182.89 0 .65-.229 1.09a1.9 1.9 0 0 1-.633.703q-.398.27-.943.387a6 6 0 0 1-1.183.111zm1.453-1.283h1.283q.217 0 .474-.03.258-.029.487-.14.229-.117.38-.34.159-.222.159-.609 0-.358-.152-.58a1.04 1.04 0 0 0-.37-.346 1.5 1.5 0 0 0-.486-.175 3 3 0 0 0-.492-.047h-1.283zm0-3.527h1.224q.229 0 .446-.047.216-.053.386-.17a.9.9 0 0 0 .276-.299.9.9 0 0 0 .105-.457.86.86 0 0 0-.111-.457.8.8 0 0 0-.281-.287 1.1 1.1 0 0 0-.387-.152 2.3 2.3 0 0 0-.434-.041h-1.224zm5.53 1.306q0-.937.212-1.722a4.1 4.1 0 0 1 .639-1.354 2.9 2.9 0 0 1 1.043-.884q.627-.31 1.453-.311.334 0 .62.053.294.053.54.135.246.075.427.164.188.081.311.152l-.615 1.113a2.8 2.8 0 0 0-.768-.304 2 2 0 0 0-.527-.065q-.434 0-.78.188-.346.18-.597.492a2.3 2.3 0 0 0-.393.691q-.14.381-.14.791.263-.157.633-.346.375-.187.955-.187.515 0 .949.17.439.17.744.486.31.316.48.774.176.456.176 1.043a3 3 0 0 1-.17 1.007 2.4 2.4 0 0 1-.492.844q-.322.357-.808.574a2.7 2.7 0 0 1-1.108.217q-.598 0-1.113-.217a2.3 2.3 0 0 1-.885-.673q-.37-.458-.58-1.155-.205-.703-.205-1.675m1.413.276q0 .639.105 1.066.112.422.3.674.186.253.439.363.252.105.527.106.563 0 .902-.399.346-.404.346-1.054 0-.55-.322-.88-.316-.333-.832-.333-.54 0-.897.158a3.6 3.6 0 0 0-.568.299m5.244 4.945.756-1.717h-.61v-1.67h1.717v1.647l-1.02 1.74zm5.473-1.717.386-8.003h1.4l2.222 3.779 2.185-3.78h1.4l.387 8.004h-1.476l-.264-5.543-1.922 3.264h-.709l-1.927-3.181-.264 5.46zm8.783 0 3.035-8.003h1.565l3.035 8.003h-1.682l-.697-2.027h-2.977l-.691 2.027zm2.701-3.275h2.127l-1.06-3.111zm5.274-3.398v-1.33h6.937v1.33h-2.713v6.673h-1.512v-6.673zm9.908 2.666a4.2 4.2 0 0 1 1.207-2.983q.556-.569 1.318-.896a4 4 0 0 1 1.64-.334q.88 0 1.63.334a4.17 4.17 0 0 1 2.209 2.232q.322.767.322 1.647 0 .925-.352 1.716a4.3 4.3 0 0 1-.966 1.377l.902 1.155-.902.756-.961-1.225a4.5 4.5 0 0 1-.903.322 4 4 0 0 1-.978.123q-.879 0-1.635-.328a4.2 4.2 0 0 1-1.318-.908 4.3 4.3 0 0 1-.89-1.342 4.2 4.2 0 0 1-.323-1.646m1.582-.036q0 .563.181 1.079.183.515.516.908.34.387.809.615.474.229 1.078.229.516 0 .972-.182L67.524 19l.903-.756.943 1.225q.322-.387.498-.885t.176-1.06q0-.575-.182-1.085a2.6 2.6 0 0 0-.515-.896 2.3 2.3 0 0 0-.815-.603 2.5 2.5 0 0 0-1.066-.223q-.598 0-1.072.223a2.4 2.4 0 0 0-.815.603 2.7 2.7 0 0 0-.516.896q-.18.51-.181 1.084m7.758 2.59v-1.19l3.299-4.915h1.418v4.904h.779v1.201h-.78v1.453h-1.359v-1.453zm1.365-1.2h1.992V16zm7.377-3.733q.146-.24.357-.48.217-.247.528-.452.316-.205.732-.328a3.3 3.3 0 0 1 .961-.129q.65 0 1.12.176a2.1 2.1 0 0 1 .767.463q.298.287.44.656.146.363.146.744 0 .41-.135.756-.129.345-.346.65-.216.3-.492.563-.276.264-.562.504-.347.287-.657.527-.304.24-.533.469a2.3 2.3 0 0 0-.363.463q-.13.234-.13.521h3.264v1.283h-4.857v-.949q0-.516.17-.931.176-.423.451-.774.282-.357.615-.656.335-.3.674-.592.334-.287.592-.486.257-.206.44-.393.18-.188.269-.375.088-.193.088-.445 0-.159-.053-.322a.7.7 0 0 0-.181-.293.9.9 0 0 0-.329-.211 1.3 1.3 0 0 0-.515-.088q-.276 0-.498.088a1.5 1.5 0 0 0-.399.216 1.7 1.7 0 0 0-.298.288q-.124.152-.212.292zm6.334 2.508q0-.88.187-1.594.187-.72.557-1.23.374-.51.932-.792.555-.28 1.289-.281.732 0 1.283.281t.92.791q.375.51.562 1.23.188.721.188 1.595a6.8 6.8 0 0 1-.188 1.652q-.187.75-.562 1.283a2.7 2.7 0 0 1-.926.838q-.556.3-1.289.299-.732 0-1.283-.3a2.75 2.75 0 0 1-.926-.837 3.9 3.9 0 0 1-.557-1.283 6.8 6.8 0 0 1-.187-1.652m1.453 0q0 .585.094 1.095.1.504.287.88.194.368.474.585.287.217.657.217t.65-.217q.288-.217.469-.586a3.3 3.3 0 0 0 .281-.879q.1-.504.1-1.096a5 5 0 0 0-.1-1.043 2.7 2.7 0 0 0-.287-.82 1.5 1.5 0 0 0-.469-.533 1.13 1.13 0 0 0-.656-.193q-.37 0-.656.193a1.5 1.5 0 0 0-.469.533q-.182.34-.281.82a5.5 5.5 0 0 0-.094 1.044m5.291-2.508q.147-.24.357-.48.217-.247.528-.452.316-.205.732-.328.422-.129.961-.129.65 0 1.12.176a2.1 2.1 0 0 1 .767.463q.298.287.44.656.146.363.146.744 0 .41-.135.756-.129.345-.346.65-.216.3-.492.563-.276.264-.562.504-.346.287-.657.527-.304.24-.533.469a2.2 2.2 0 0 0-.363.463q-.129.234-.129.521h3.264v1.283h-4.858v-.949q0-.516.17-.931.176-.423.451-.774.282-.357.616-.656t.673-.592q.334-.287.592-.486.258-.206.44-.393.18-.188.27-.375.087-.193.087-.445 0-.159-.053-.322a.7.7 0 0 0-.181-.293.9.9 0 0 0-.328-.211 1.3 1.3 0 0 0-.516-.088q-.276 0-.498.088a1.5 1.5 0 0 0-.399.216 1.7 1.7 0 0 0-.298.288q-.124.152-.211.292zm6.504 4.933v-1.19l3.299-4.915h1.418v4.904h.779v1.201h-.779v1.453h-1.36v-1.453zm1.365-1.2h1.992V16zm5.508 4.37.756-1.717h-.61v-1.67h1.717v1.647l-1.019 1.74zm.146-5.69v-1.658h1.717v1.659zm5.479 1.02v-5.05h1.512v4.787q0 .456.088.826.094.363.298.62.206.26.539.4.334.134.827.134t.826-.135q.34-.14.539-.398a1.6 1.6 0 0 0 .293-.621q.094-.37.094-.826v-4.788h1.511v5.051q0 .675-.217 1.248-.21.575-.632 1.002t-1.032.674q-.603.246-1.382.246-.78 0-1.389-.246a3 3 0 0 1-1.025-.674 2.9 2.9 0 0 1-.633-1.002 3.5 3.5 0 0 1-.217-1.248m8.004 2.953v-5.63h1.353l.036.638q.105-.117.246-.258.14-.14.334-.246a2.2 2.2 0 0 1 .457-.175q.263-.077.597-.077 1.113 0 1.694.815.433-.445.879-.627.45-.188 1.048-.188 1.066 0 1.635.633.574.627.574 1.694v3.421h-1.412v-3.41q0-.539-.275-.832-.27-.293-.733-.293-.287 0-.533.117-.24.112-.416.317a1.4 1.4 0 0 0-.263.474q-.088.27-.088.58v3.047h-1.412v-3.41q0-.539-.27-.832t-.738-.293q-.287 0-.528.117-.24.112-.416.317a1.4 1.4 0 0 0-.269.474q-.088.27-.088.58v3.047zm9.943-.685.85-.92q.263.263.662.44.404.17.92.17.458 0 .732-.118.276-.123.276-.398a.5.5 0 0 0-.047-.217.5.5 0 0 0-.205-.2 2 2 0 0 0-.428-.193 7 7 0 0 0-.744-.205 5 5 0 0 1-.604-.193 2.4 2.4 0 0 1-.58-.328 1.8 1.8 0 0 1-.445-.504q-.17-.3-.17-.703 0-.423.199-.75.206-.335.533-.551a2.6 2.6 0 0 1 .745-.34q.416-.123.837-.123.745 0 1.266.158.522.153.943.463l-.732.996a2.3 2.3 0 0 0-.604-.304 2.5 2.5 0 0 0-.873-.141q-.503 0-.703.152-.199.153-.199.364 0 .263.328.416.335.152 1.031.316.434.095.774.24.34.147.586.363.246.217.375.51.135.294.135.703 0 .41-.194.739a1.7 1.7 0 0 1-.521.556q-.329.23-.768.352a3.3 3.3 0 0 1-.931.129 4.3 4.3 0 0 1-1.43-.223q-.633-.222-1.014-.656m5.643-.961q0-.48.181-.856.182-.38.504-.638t.78-.387q.456-.135 1.007-.135a13 13 0 0 1 .768.024q.217.012.445.029v-.135a.77.77 0 0 0-.34-.662q-.333-.24-.873-.24-.597 0-.961.158a5 5 0 0 0-.632.334l-.651-.955q.17-.117.387-.246t.504-.229q.287-.105.662-.17.381-.063.885-.064.538 0 .978.152.44.147.75.416.31.27.481.65.17.375.17.821v3.78h-1.325l-.035-.528q-.228.276-.697.492a2.45 2.45 0 0 1-1.734.106 1.9 1.9 0 0 1-.621-.328 1.7 1.7 0 0 1-.457-.569 1.8 1.8 0 0 1-.176-.82m1.359-.059a.68.68 0 0 0 .258.563q.258.205.762.205.252 0 .486-.082a1.3 1.3 0 0 0 .41-.229q.182-.146.293-.334a.8.8 0 0 0 .117-.41v-.55l-.422-.024a10 10 0 0 0-.668-.023q-.685 0-.96.27a.84.84 0 0 0-.276.614m4.57-2.771v-1.155h.961v-1.822h1.413v1.822h1.511v1.155h-1.511v2.46q0 .481.164.74.164.256.521.257.334 0 .533-.094.2-.099.381-.228l.598.873q-.422.345-.832.498-.405.152-.908.152-.516 0-.879-.152a1.4 1.4 0 0 1-.58-.422 1.7 1.7 0 0 1-.317-.668 3.7 3.7 0 0 1-.094-.861V17.09zm5.163 4.476v-1.078l2.871-3.363h-2.784v-1.19h4.547v1.108l-2.965 3.37h2.965v1.153zm7.986-6.515v-1.489h1.512v1.489zm.047 6.515v-5.63h1.418v5.63zm2.871 0v-5.63h1.353l.036.638q.105-.117.257-.252a2 2 0 0 1 .364-.246q.21-.112.474-.181a2.2 2.2 0 0 1 .598-.077q1.054 0 1.605.633.557.627.557 1.694v3.421h-1.418v-3.41q0-.539-.293-.832-.292-.293-.762-.293-.287 0-.539.117-.252.112-.433.317a1.5 1.5 0 0 0-.287.474q-.1.27-.1.58v3.047zm8.478-2.472.276-.885h.656a2 2 0 0 1-.012-.24v-.481q0-.111.012-.228h-.932l.276-.89h.791q.146-.564.398-1.038.258-.475.627-.82a2.6 2.6 0 0 1 .856-.54q.48-.192 1.084-.193.732 0 1.224.246.492.247.885.627l-.756.961a1.8 1.8 0 0 0-.568-.398q-.294-.13-.75-.13-.621 0-.996.358a2 2 0 0 0-.539.926h2.267l-.275.89h-2.151a3 3 0 0 0-.011.23v.48q0 .117.011.24h2.303l-.275.885h-1.858q.17.574.539.925.37.346.985.346.456 0 .75-.123.293-.128.568-.404l.756.96a3.6 3.6 0 0 1-.891.634q-.486.24-1.218.24-.586 0-1.078-.188a2.7 2.7 0 0 1-.85-.533 3.4 3.4 0 0 1-.627-.82 4.4 4.4 0 0 1-.398-1.037zm6.955 2.472v-1.658h1.717v1.658z"/></svg>