<svg xmlns="http://www.w3.org/2000/svg" fill="none" viewBox="0 0 300 600"><rect width="300" height="600" fill="#999"/><path fill="#fff" d="M74.707 258v-2.637l9.422-10.711h-9v-2.66h12.633v2.66l-9.246 10.711h9.433V258zm15.867-4.418v-6.844h2.824v6.821q0 1.077.586 1.675.598.586 1.535.586.575 0 1.079-.222.503-.235.855-.645.363-.41.563-.949.21-.539.21-1.16v-6.106h2.836V258h-2.718l-.07-1.277q-.211.234-.528.504-.316.269-.727.503a4 4 0 0 1-.925.364 4.7 4.7 0 0 1-1.207.14q-2.11 0-3.211-1.254-1.102-1.265-1.102-3.398M108.457 258v-16.008h5.309q1.511 0 2.566.457 1.055.458 1.699 1.172.657.703.949 1.547.305.833.305 1.605 0 1.512-.668 2.672-.656 1.16-2.015 1.864l3.691 6.691h-3.41l-3.235-6.316h-2.285V258zm2.906-8.812h2.426q1.148 0 1.781-.668.645-.669.645-1.629 0-1.031-.68-1.676-.667-.656-1.746-.656h-2.426zm10.899-4.219v-2.977h3.023v2.977zm.093 13.031v-11.262h2.836V258zm5.192-1.371 1.699-1.84q.528.528 1.324.879.809.34 1.84.34.915 0 1.465-.235.55-.246.551-.796a1 1 0 0 0-.094-.434q-.093-.211-.41-.398-.304-.2-.856-.387-.55-.2-1.488-.41a10 10 0 0 1-1.207-.387 4.9 4.9 0 0 1-1.16-.656 3.7 3.7 0 0 1-.891-1.008q-.34-.598-.34-1.406 0-.844.399-1.5a3.5 3.5 0 0 1 1.066-1.102 5.3 5.3 0 0 1 1.489-.68 5.9 5.9 0 0 1 1.675-.246q1.489 0 2.532.317a6 6 0 0 1 1.886.925l-1.465 1.993q-.457-.34-1.207-.61-.738-.28-1.746-.281-1.007 0-1.406.305-.398.304-.398.726 0 .528.656.832.668.305 2.062.633a8.3 8.3 0 0 1 1.547.481 4.4 4.4 0 0 1 1.172.726q.492.434.75 1.02.27.585.27 1.406 0 .82-.387 1.476a3.4 3.4 0 0 1-1.043 1.114 5 5 0 0 1-1.535.703 6.6 6.6 0 0 1-1.863.258q-1.582 0-2.86-.446-1.266-.445-2.027-1.312m12.035-11.66v-2.977h3.023v2.977zm.094 13.031v-11.262h2.836V258zm5.742 0v-16.008h2.824v8.731l4.067-3.985h3.328l-4.219 4.16 4.699 7.102h-3.387l-3.257-5.18-1.231 1.196V258zm11.754-5.766q0-1.242.41-2.308a5.7 5.7 0 0 1 1.172-1.852 5.6 5.6 0 0 1 1.805-1.254 5.8 5.8 0 0 1 2.32-.457q1.535 0 2.601.563a4.8 4.8 0 0 1 1.711 1.476q.656.915.938 2.063.293 1.148.293 2.355v.399h-8.402q0 .621.281 1.136.281.504.715.868.444.351 1.007.55.575.188 1.125.188.82 0 1.43-.152.61-.165 1.031-.364a3.9 3.9 0 0 0 1.137-.808l1.535 1.734-.398.399q-.317.315-.938.679-.609.363-1.558.645-.95.293-2.262.293-1.347 0-2.449-.457a5.7 5.7 0 0 1-1.887-1.254 5.5 5.5 0 0 1-1.207-1.934q-.41-1.137-.41-2.508m2.824-1.054h5.52q0-.434-.164-.856a2.4 2.4 0 0 0-.493-.785 2.5 2.5 0 0 0-.832-.574 2.7 2.7 0 0 0-1.148-.235q-.691 0-1.231.235-.539.222-.902.574a2.6 2.6 0 0 0-.562.785 2.1 2.1 0 0 0-.188.856m10.617 6.82v-11.262h2.707l.071 1.278q.21-.235.515-.504.305-.27.727-.492.421-.223.949-.364.528-.152 1.195-.152 2.11 0 3.211 1.266 1.113 1.253 1.114 3.386V258h-2.836v-6.82q0-1.079-.586-1.664-.586-.586-1.524-.586-.574 0-1.078.234a2.5 2.5 0 0 0-.867.633 3 3 0 0 0-.574.949 3.3 3.3 0 0 0-.199 1.16V258zm17.508-4.418v-6.844h2.824v6.821q0 1.077.586 1.675.598.586 1.535.586.575 0 1.079-.222.503-.235.855-.645.363-.41.562-.949.211-.539.211-1.16v-6.106h2.836V258h-2.718l-.071-1.277q-.21.234-.527.504a5 5 0 0 1-.727.503q-.398.223-.925.364-.528.14-1.207.14-2.11 0-3.211-1.254-1.102-1.265-1.102-3.398M201.387 258v-11.262h2.707l.07 1.278q.212-.235.516-.504.304-.27.726-.492.423-.223.949-.364.528-.152 1.196-.152 2.109 0 3.211 1.266 1.113 1.253 1.113 3.386V258h-2.836v-6.82q0-1.079-.586-1.664-.586-.586-1.523-.586-.574 0-1.078.234a2.5 2.5 0 0 0-.868.633 3 3 0 0 0-.574.949 3.3 3.3 0 0 0-.199 1.16V258zm12.691-5.426q0-1.324.375-2.308.387-.996.961-1.7.48-.574 1.055-.961a7 7 0 0 1 1.172-.632 5.3 5.3 0 0 1 1.136-.364q.552-.105.961-.105.55 0 .914.035t.645.094q.293.059.527.164l.551.211v-5.016h2.813V258h-2.743l-.07-1.102a5.4 5.4 0 0 1-.527.504 4 4 0 0 1-.727.481q-.422.21-.937.351a4 4 0 0 1-1.161.153 4.5 4.5 0 0 1-1.804-.387 4.9 4.9 0 0 1-1.594-1.125q-.692-.75-1.125-1.828-.422-1.078-.422-2.473m2.848 0q0 1.442.715 2.403.726.96 2.097.961.715 0 1.219-.27.516-.282.82-.715.317-.433.457-.949t.141-.996v-3.457a2.3 2.3 0 0 0-.949-.469q-.54-.129-1.371-.129-.844 0-1.395.328a3.3 3.3 0 0 0-.961.844q-.363.48-.574 1.125a4.4 4.4 0 0 0-.199 1.324M31.125 284v-16.008h3.047l7.758 11.379v-11.379h2.953V284h-2.977l-7.828-11.52V284zm16.3-5.766q.001-1.242.41-2.308a5.7 5.7 0 0 1 1.173-1.852 5.6 5.6 0 0 1 1.804-1.254 5.8 5.8 0 0 1 2.32-.457q1.536 0 2.602.563 1.067.563 1.711 1.476.656.915.938 2.063.293 1.148.293 2.355v.399h-8.403q0 .621.282 1.136.28.504.715.868.444.351 1.007.55.575.188 1.125.188a6 6 0 0 0 1.43-.152q.61-.165 1.031-.364a3.9 3.9 0 0 0 1.137-.808l1.535 1.734-.398.399q-.317.315-.938.679-.61.363-1.558.645-.95.293-2.262.293-1.347 0-2.45-.457a5.7 5.7 0 0 1-1.886-1.254 5.5 5.5 0 0 1-1.207-1.934q-.41-1.137-.41-2.508m2.825-1.054h5.52q0-.434-.165-.856a2.4 2.4 0 0 0-.492-.785 2.5 2.5 0 0 0-.832-.574 2.7 2.7 0 0 0-1.148-.235q-.692 0-1.23.235-.54.223-.903.574-.364.351-.562.785a2.1 2.1 0 0 0-.188.856m10.617 6.457v-15.645h2.824v5.52q.294-.293 1.102-.645.82-.363 1.98-.363 1.22 0 2.168.457a5 5 0 0 1 1.618 1.23 5 5 0 0 1 1.02 1.817q.35 1.054.35 2.226 0 1.278-.445 2.391a5.7 5.7 0 0 1-1.277 1.945 6 6 0 0 1-2.004 1.325q-1.172.492-2.637.492-1.464 0-2.707-.246-1.23-.235-1.992-.504m2.824-1.946q.34.118.703.188.364.059 1.125.059.868 0 1.512-.293.645-.306 1.102-.809t.68-1.16q.234-.669.234-1.36 0-.643-.153-1.242a3.1 3.1 0 0 0-.492-1.078 2.44 2.44 0 0 0-.855-.738q-.516-.281-1.23-.281-1.301 0-1.97.668-.656.656-.656 1.804zm9.961-3.457q0-1.242.41-2.308a5.7 5.7 0 0 1 1.172-1.852 5.6 5.6 0 0 1 1.805-1.254 5.8 5.8 0 0 1 2.32-.457q1.536 0 2.602.563a4.8 4.8 0 0 1 1.71 1.476q.657.915.938 2.063.293 1.148.293 2.355v.399H76.5q0 .621.281 1.136.282.504.715.868.445.351 1.008.55.574.188 1.125.188a6 6 0 0 0 1.43-.152q.61-.165 1.03-.364a3.9 3.9 0 0 0 1.138-.808l1.535 1.734-.399.399q-.316.315-.937.679-.61.363-1.559.645-.949.293-2.261.293-1.348 0-2.45-.457a5.7 5.7 0 0 1-1.887-1.254 5.5 5.5 0 0 1-1.207-1.934q-.41-1.137-.41-2.508m2.825-1.054h5.52q0-.434-.165-.856a2.4 2.4 0 0 0-.492-.785 2.5 2.5 0 0 0-.832-.574 2.7 2.7 0 0 0-1.149-.235q-.69 0-1.23.235-.54.223-.902.574-.364.351-.563.785a2.1 2.1 0 0 0-.187.856M87.094 284v-11.262H89.8l.07 1.278a6 6 0 0 1 .516-.504q.304-.27.726-.492.422-.223.95-.364a4.3 4.3 0 0 1 1.195-.152q2.109 0 3.21 1.266 1.114 1.253 1.114 3.386V284h-2.836v-6.82q0-1.079-.586-1.664-.585-.586-1.523-.586-.575 0-1.078.234a2.5 2.5 0 0 0-.868.633 3 3 0 0 0-.574.949q-.2.539-.199 1.16V284zm12.035-11.262h3.129l2.156 7.828 2.379-7.828h2.367l2.402 7.828 2.145-7.828h2.977L112.863 284h-2.742l-2.297-6.797-2.238 6.797h-2.637zm19.183-1.769v-2.977h3.024v2.977zm.094 13.031v-11.262h2.836V284zm5.742 0v-11.262h2.707l.071 1.418q.188-.234.492-.515.304-.293.715-.528.41-.245.949-.422.54-.175 1.23-.164.41 0 .727.047.328.047.668.164l-.574 2.672a2.7 2.7 0 0 0-.598-.164 3.7 3.7 0 0 0-.703-.058q-.574 0-1.102.199a2.6 2.6 0 0 0-.914.551 2.8 2.8 0 0 0-.621.867 2.8 2.8 0 0 0-.222 1.125V284zm9.164 0v-16.008h2.825v8.731l4.066-3.985h3.328l-4.219 4.16 4.7 7.102h-3.387l-3.258-5.18-1.23 1.196V284zm12.235-4.418v-6.844h2.824v6.821q0 1.078.586 1.675.597.586 1.535.586.574 0 1.078-.222.504-.235.856-.645.363-.41.562-.949.211-.539.211-1.16v-6.106h2.836V284h-2.719l-.07-1.277a6 6 0 0 1-.527.504 5 5 0 0 1-.727.503q-.398.223-.926.364-.527.14-1.207.14-2.109 0-3.211-1.254-1.101-1.265-1.101-3.398M158.812 284v-11.262h2.708l.07 1.278q.21-.235.515-.504.306-.27.727-.492.422-.223.949-.364.527-.152 1.196-.152 2.109 0 3.211 1.266 1.113 1.253 1.113 3.386V284h-2.836v-6.82q0-1.079-.586-1.664-.587-.586-1.524-.586a2.5 2.5 0 0 0-1.078.234 2.5 2.5 0 0 0-.867.633 3 3 0 0 0-.574.949 3.3 3.3 0 0 0-.199 1.16V284zm12.692-5.473q0-1.242.445-2.343a5.6 5.6 0 0 1 1.266-1.922 6 6 0 0 1 2.004-1.289q1.184-.47 2.636-.469 1.465 0 2.696.246 1.242.234 2.015.492v10.946q0 1.172-.41 2.085a4.3 4.3 0 0 1-1.136 1.536 4.7 4.7 0 0 1-1.7.949 6.7 6.7 0 0 1-2.132.328 13 13 0 0 1-1.571-.082 8.5 8.5 0 0 1-1.23-.234 5.348 5.348 0 0 1-1.805-.856l1.266-2.086a4.5 4.5 0 0 0 1.453.656q.785.2 1.84.2 1.101 0 1.839-.668.75-.669.75-1.875v-1.219q-.573.48-1.265.785-.68.293-1.805.293-1.218 0-2.168-.41a4.8 4.8 0 0 1-1.629-1.137 5.1 5.1 0 0 1-1.019-1.734 6.7 6.7 0 0 1-.34-2.192m2.871-.07q0 1.301.645 2.191.656.879 2.097.879 1.301 0 1.957-.55.656-.552.656-1.758v-4.031a4 4 0 0 0-.703-.176q-.351-.059-1.113-.059-.867 0-1.523.293-.645.282-1.102.762t-.691 1.125a4 4 0 0 0-.223 1.324m10.441-.223q0-1.242.411-2.308a5.7 5.7 0 0 1 1.171-1.852 5.6 5.6 0 0 1 1.805-1.254 5.8 5.8 0 0 1 2.32-.457q1.536 0 2.602.563a4.8 4.8 0 0 1 1.711 1.476q.656.915.937 2.063.293 1.148.293 2.355v.399h-8.402q0 .621.281 1.136a3.1 3.1 0 0 0 .715.868q.446.351 1.008.55.575.188 1.125.188.82 0 1.43-.152.61-.165 1.031-.364a3.9 3.9 0 0 0 1.137-.808l1.535 1.734-.399.399q-.316.315-.937.679-.61.363-1.559.645-.949.293-2.261.293-1.348 0-2.45-.457a5.7 5.7 0 0 1-1.886-1.254 5.5 5.5 0 0 1-1.207-1.934q-.411-1.137-.411-2.508m2.825-1.054h5.519q0-.434-.164-.856a2.4 2.4 0 0 0-.492-.785 2.5 2.5 0 0 0-.832-.574 2.7 2.7 0 0 0-1.149-.235 3.1 3.1 0 0 0-1.23.235q-.539.223-.902.574-.364.351-.563.785a2.1 2.1 0 0 0-.187.856m10.617 6.82v-11.262h2.707l.07 1.278q.212-.235.516-.504.304-.27.726-.492.423-.223.95-.364.527-.152 1.195-.152 2.109 0 3.211 1.266 1.113 1.253 1.113 3.386V284h-2.836v-6.82q0-1.079-.586-1.664-.585-.586-1.523-.586-.574 0-1.078.234a2.5 2.5 0 0 0-.868.633 3 3 0 0 0-.574.949 3.3 3.3 0 0 0-.199 1.16V284zm17.554 0v-16.008h2.825V284zm5.098-5.766q0-1.242.41-2.308a5.7 5.7 0 0 1 1.172-1.852 5.6 5.6 0 0 1 1.805-1.254 5.8 5.8 0 0 1 2.32-.457q1.536 0 2.602.563a4.8 4.8 0 0 1 1.711 1.476q.656.915.937 2.063.293 1.148.293 2.355v.399h-8.402q0 .621.281 1.136a3.1 3.1 0 0 0 .715.868q.446.351 1.008.55.575.188 1.125.188.82 0 1.429-.152.61-.165 1.032-.364a3.9 3.9 0 0 0 1.136-.808l1.536 1.734-.399.399q-.316.315-.937.679-.61.363-1.559.645-.95.293-2.262.293-1.348 0-2.449-.457a5.7 5.7 0 0 1-1.887-1.254 5.5 5.5 0 0 1-1.207-1.934q-.41-1.137-.41-2.508m2.824-1.054h5.52q0-.434-.164-.856a2.4 2.4 0 0 0-.492-.785 2.5 2.5 0 0 0-.832-.574 2.7 2.7 0 0 0-1.149-.235 3.1 3.1 0 0 0-1.23.235q-.54.223-.903.574a2.6 2.6 0 0 0-.562.785 2.1 2.1 0 0 0-.188.856m10.067 5.449 1.699-1.84q.528.528 1.324.879.809.34 1.84.34.914 0 1.465-.235.55-.246.551-.796 0-.235-.094-.434-.094-.211-.41-.398-.304-.2-.856-.387-.55-.2-1.488-.41a10 10 0 0 1-1.207-.387 4.9 4.9 0 0 1-1.16-.656 3.7 3.7 0 0 1-.891-1.008q-.34-.598-.34-1.406 0-.844.399-1.5a3.5 3.5 0 0 1 1.066-1.102 5.3 5.3 0 0 1 1.489-.68 5.9 5.9 0 0 1 1.675-.246q1.488 0 2.532.317a6 6 0 0 1 1.886.925l-1.465 1.993q-.457-.34-1.207-.61-.738-.28-1.746-.281-1.007 0-1.406.305-.398.305-.398.726 0 .528.656.832.668.305 2.062.633a8.3 8.3 0 0 1 1.547.481 4.4 4.4 0 0 1 1.172.726q.492.433.75 1.02.27.585.27 1.406 0 .82-.387 1.476a3.4 3.4 0 0 1-1.043 1.114 5 5 0 0 1-1.535.703 6.6 6.6 0 0 1-1.863.258q-1.582 0-2.86-.446-1.266-.445-2.027-1.312m11.484-4.395q0-1.242.41-2.308a5.7 5.7 0 0 1 1.172-1.852 5.6 5.6 0 0 1 1.805-1.254 5.8 5.8 0 0 1 2.32-.457q1.536 0 2.602.563a4.8 4.8 0 0 1 1.711 1.476q.656.915.937 2.063.293 1.148.293 2.355v.399h-8.402q0 .621.281 1.136a3.1 3.1 0 0 0 .715.868q.446.351 1.008.55.575.188 1.125.188.82 0 1.429-.152.61-.165 1.032-.364.433-.21.715-.433.281-.224.421-.375l1.536 1.734-.399.399q-.316.315-.937.679-.61.363-1.559.645-.95.293-2.262.293-1.348 0-2.449-.457a5.7 5.7 0 0 1-1.887-1.254 5.5 5.5 0 0 1-1.207-1.934q-.41-1.137-.41-2.508m2.824-1.054h5.52q0-.434-.164-.856a2.4 2.4 0 0 0-.492-.785 2.5 2.5 0 0 0-.832-.574 2.7 2.7 0 0 0-1.149-.235 3.1 3.1 0 0 0-1.23.235q-.54.223-.903.574a2.6 2.6 0 0 0-.562.785 2.1 2.1 0 0 0-.188.856m10.618 6.82v-11.262h2.707l.07 1.278q.21-.235.516-.504.304-.27.726-.492.422-.223.949-.364.527-.152 1.196-.152 2.109 0 3.211 1.266 1.113 1.253 1.113 3.386V284h-2.836v-6.82q0-1.079-.586-1.664-.586-.586-1.523-.586-.575 0-1.079.234a2.5 2.5 0 0 0-.867.633 3 3 0 0 0-.574.949 3.3 3.3 0 0 0-.199 1.16V284zM25.43 307.434l2.12-1.946q.294.34.68.715.399.363.891.692.492.315 1.102.539.609.21 1.383.211 1.417 0 2.097-.645.68-.644.68-1.559 0-.504-.188-.902-.188-.399-.644-.691-.457-.305-1.196-.539a14 14 0 0 0-1.804-.457q-1.102-.212-1.91-.668a5 5 0 0 1-1.336-1.09 4.4 4.4 0 0 1-.797-1.371 4.8 4.8 0 0 1-.258-1.559q0-.913.328-1.734a4.04 4.04 0 0 1 1.031-1.465q.704-.633 1.746-1.02 1.044-.386 2.461-.386 1.278 0 2.18.293.914.28 1.523.668.622.386.95.761.339.363.492.539l-1.992 1.864a10 10 0 0 1-.387-.34 3.6 3.6 0 0 0-.668-.492 4.3 4.3 0 0 0-.95-.434 3.6 3.6 0 0 0-1.241-.199q-.622 0-1.078.176a2.3 2.3 0 0 0-.762.433 1.8 1.8 0 0 0-.445.586q-.141.317-.141.609 0 .433.152.774.164.328.528.621.375.28 1.02.516.655.223 1.64.421a8.3 8.3 0 0 1 1.793.575q.867.387 1.523.996a4.4 4.4 0 0 1 1.055 1.488q.398.879.398 2.098 0 1.054-.433 1.945a4.7 4.7 0 0 1-1.196 1.559 5.5 5.5 0 0 1-1.828 1.043 6.8 6.8 0 0 1-2.297.375q-1.196 0-2.168-.293a8 8 0 0 1-1.757-.727 7.5 7.5 0 0 1-1.348-.973 10 10 0 0 1-.95-1.007m14.906-10.465v-2.977h3.023v2.977zM40.43 310v-11.262h2.836V310zm5.215-5.766q0-1.242.41-2.308a5.7 5.7 0 0 1 1.172-1.852 5.6 5.6 0 0 1 1.804-1.254 5.8 5.8 0 0 1 2.32-.457q1.536 0 2.602.563a4.8 4.8 0 0 1 1.711 1.476q.657.915.938 2.063.293 1.148.293 2.355v.399h-8.403q0 .621.281 1.136.282.504.715.868.445.351 1.008.55.575.188 1.125.188a6 6 0 0 0 1.43-.152q.61-.165 1.031-.364a3.9 3.9 0 0 0 1.137-.808l1.535 1.734-.398.399q-.318.315-.938.679-.61.363-1.559.645-.948.293-2.261.293-1.348 0-2.45-.457a5.7 5.7 0 0 1-1.886-1.254 5.5 5.5 0 0 1-1.207-1.934q-.41-1.137-.41-2.508m2.824-1.054h5.52q0-.434-.165-.856a2.4 2.4 0 0 0-.492-.785 2.5 2.5 0 0 0-.832-.574 2.7 2.7 0 0 0-1.148-.235q-.691 0-1.23.235-.54.223-.903.574t-.563.785a2.1 2.1 0 0 0-.187.856m14.426 1.394q0-1.324.374-2.308.387-.996.962-1.7.48-.574 1.054-.961a7.2 7.2 0 0 1 1.172-.632q.586-.258 1.137-.364.55-.105.96-.105.552 0 .915.035t.644.094q.293.059.528.164l.55.211v-5.016h2.813V310h-2.742l-.07-1.102a5.4 5.4 0 0 1-.528.504 4 4 0 0 1-.727.481q-.42.21-.937.351-.516.153-1.16.153a4.5 4.5 0 0 1-1.805-.387 4.9 4.9 0 0 1-1.594-1.125q-.69-.75-1.125-1.828-.421-1.078-.422-2.473m2.847 0q0 1.441.715 2.403.727.96 2.098.961.714 0 1.218-.27.517-.282.82-.715.317-.433.458-.949.14-.516.14-.996v-3.457a2.3 2.3 0 0 0-.949-.469q-.54-.129-1.37-.129-.844 0-1.395.328a3.3 3.3 0 0 0-.961.844q-.364.48-.575 1.125-.198.633-.199 1.324m11.063-7.605v-2.977h3.023v2.977zM76.898 310v-11.262h2.836V310zm5.215-5.766q0-1.242.41-2.308a5.7 5.7 0 0 1 1.172-1.852 5.6 5.6 0 0 1 1.805-1.254 5.8 5.8 0 0 1 2.32-.457q1.535 0 2.602.563t1.71 1.476q.656.915.938 2.063.294 1.148.293 2.355v.399h-8.402q0 .621.281 1.136.282.504.715.868.445.351 1.008.55.574.188 1.125.188a6 6 0 0 0 1.43-.152q.61-.165 1.03-.364a3.9 3.9 0 0 0 1.138-.808l1.535 1.734-.399.399q-.315.315-.937.679-.61.363-1.559.645-.95.293-2.262.293-1.347 0-2.449-.457a5.7 5.7 0 0 1-1.886-1.254 5.5 5.5 0 0 1-1.208-1.934q-.41-1.137-.41-2.508m2.825-1.054h5.519q0-.434-.164-.856a2.4 2.4 0 0 0-.492-.785 2.5 2.5 0 0 0-.832-.574 2.7 2.7 0 0 0-1.149-.235q-.69 0-1.23.235-.54.223-.903.574-.364.351-.562.785a2.1 2.1 0 0 0-.187.856m15.234 6.82v-16.008h5.144q1.677 0 2.743.516t1.687 1.277q.633.75.867 1.617.246.867.246 1.582 0 1.348-.48 2.309a4.7 4.7 0 0 1-1.254 1.57 5.1 5.1 0 0 1-1.723.903 6.8 6.8 0 0 1-1.898.281h-2.426V310zm2.906-8.496h2.192q1.148 0 1.828-.668.691-.68.691-1.758 0-1.125-.727-1.828-.715-.715-1.792-.715h-2.192zm9.469 5.203q0-.961.363-1.711a3.6 3.6 0 0 1 1.008-1.277q.644-.516 1.559-.774a7.1 7.1 0 0 1 2.015-.269 26 26 0 0 1 1.535.047q.433.023.891.058v-.269q0-.844-.68-1.324-.668-.481-1.746-.481-1.195 0-1.922.316a9.6 9.6 0 0 0-1.265.668l-1.301-1.91q.34-.234.773-.492a5.5 5.5 0 0 1 1.008-.457 7.6 7.6 0 0 1 1.324-.34 11 11 0 0 1 1.77-.129q1.078 0 1.957.305a4.4 4.4 0 0 1 1.5.832q.62.539.961 1.301.34.75.34 1.64V310h-2.649l-.07-1.055q-.458.551-1.395.985t-2.085.433q-.691 0-1.383-.222a3.8 3.8 0 0 1-1.243-.657 3.4 3.4 0 0 1-.914-1.136q-.351-.704-.351-1.641m2.719-.117q0 .714.515 1.125.516.41 1.524.41.504 0 .972-.164.469-.164.821-.457.363-.293.586-.668.234-.387.234-.82v-1.102l-.844-.047a21 21 0 0 0-1.336-.047q-1.37 0-1.922.539-.55.54-.55 1.231m9.574-2.227q0-1.219.445-2.308a5.9 5.9 0 0 1 1.231-1.91 5.9 5.9 0 0 1 1.91-1.301q1.113-.481 2.461-.481 1.371 0 2.496.492 1.124.493 1.922 1.325l-1.805 1.828a3.4 3.4 0 0 0-1.125-.856q-.645-.316-1.488-.316-.82 0-1.418.305a3 3 0 0 0-.996.773 3.2 3.2 0 0 0-.598 1.125q-.187.645-.187 1.324 0 .645.187 1.278.2.621.598 1.125t.996.82q.597.305 1.418.305a3.53 3.53 0 0 0 2.707-1.207l1.687 1.828a6.1 6.1 0 0 1-1.875 1.347q-1.077.504-2.519.504t-2.578-.433a5.3 5.3 0 0 1-1.899-1.219 5.5 5.5 0 0 1-1.172-1.899q-.398-1.113-.398-2.449M137.18 310v-16.008h2.824v8.731l4.066-3.985h3.328l-4.218 4.16 4.699 7.102h-3.387l-3.258-5.18-1.23 1.196V310zm12.234-4.418v-6.844h2.824v6.821q0 1.078.586 1.675.598.586 1.535.586.575 0 1.079-.222.503-.235.855-.645.363-.41.562-.949.211-.539.211-1.16v-6.106h2.836V310h-2.718l-.071-1.277q-.21.234-.527.504a5 5 0 0 1-.727.503q-.398.223-.925.364-.528.14-1.207.14-2.11 0-3.211-1.254-1.102-1.265-1.102-3.398M162.68 310v-11.262h2.707l.07 1.278q.212-.235.516-.504.304-.27.726-.492.422-.223.949-.364.528-.152 1.196-.152 2.109 0 3.211 1.266 1.113 1.253 1.113 3.386V310h-2.836v-6.82q0-1.079-.586-1.664-.586-.586-1.523-.586-.575 0-1.078.234a2.5 2.5 0 0 0-.868.633 3 3 0 0 0-.574.949 3.3 3.3 0 0 0-.199 1.16V310zm12.691-5.473q0-1.242.445-2.343a5.6 5.6 0 0 1 1.266-1.922 6 6 0 0 1 2.004-1.289q1.183-.47 2.637-.469 1.464 0 2.695.246 1.242.234 2.016.492v10.946q0 1.172-.411 2.085a4.3 4.3 0 0 1-1.136 1.536 4.7 4.7 0 0 1-1.699.949 6.7 6.7 0 0 1-2.133.328q-.89 0-1.571-.082a8.5 8.5 0 0 1-1.23-.234 5 5 0 0 1-.984-.364 5.3 5.3 0 0 1-.821-.492l1.266-2.086a4.5 4.5 0 0 0 1.453.656q.785.2 1.84.2 1.1 0 1.84-.668.75-.669.75-1.875v-1.219a5.3 5.3 0 0 1-1.266.785q-.68.293-1.805.293-1.218 0-2.168-.41a4.8 4.8 0 0 1-1.629-1.137 5.1 5.1 0 0 1-1.019-1.734 6.7 6.7 0 0 1-.34-2.192m2.871-.07q0 1.301.645 2.191.655.879 2.097.879 1.302 0 1.957-.55.657-.552.657-1.758v-4.031a4 4 0 0 0-.703-.176q-.352-.059-1.114-.059-.867 0-1.523.293-.645.282-1.102.762t-.691 1.125a4 4 0 0 0-.223 1.324m10.418 4.172 1.699-1.84a4.3 4.3 0 0 0 1.325.879q.808.34 1.839.34.915 0 1.465-.235.55-.246.551-.796a1 1 0 0 0-.094-.434q-.093-.211-.41-.398-.304-.2-.855-.387-.552-.2-1.489-.41a10 10 0 0 1-1.207-.387 5 5 0 0 1-1.16-.656 3.7 3.7 0 0 1-.89-1.008q-.34-.598-.34-1.406 0-.844.398-1.5a3.5 3.5 0 0 1 1.067-1.102 5.3 5.3 0 0 1 1.488-.68 5.9 5.9 0 0 1 1.676-.246q1.488 0 2.531.317a6 6 0 0 1 1.887.925l-1.465 1.993q-.457-.34-1.207-.61-.738-.28-1.746-.281-1.008 0-1.407.305-.398.305-.398.726 0 .528.656.832.669.305 2.063.633a8.4 8.4 0 0 1 1.547.481q.68.292 1.171.726.494.433.75 1.02.27.585.27 1.406 0 .82-.387 1.476a3.36 3.36 0 0 1-1.043 1.114 5 5 0 0 1-1.535.703 6.6 6.6 0 0 1-1.863.258q-1.583 0-2.859-.446-1.266-.445-2.028-1.312m12.012 1.008v-15.645h2.824v5.52q.293-.293 1.102-.645.82-.363 1.98-.363 1.219 0 2.168.457a4.95 4.95 0 0 1 1.617 1.23 5 5 0 0 1 1.02 1.817q.351 1.054.351 2.226 0 1.278-.445 2.391a5.7 5.7 0 0 1-1.277 1.945 6 6 0 0 1-2.004 1.325q-1.171.492-2.637.492a14 14 0 0 1-2.707-.246q-1.23-.235-1.992-.504m2.824-1.946q.34.118.703.188.363.059 1.125.059.867 0 1.512-.293.645-.306 1.102-.809t.679-1.16q.235-.669.235-1.36 0-.643-.153-1.242a3.1 3.1 0 0 0-.492-1.078 2.45 2.45 0 0 0-.855-.738q-.516-.281-1.231-.281-1.3 0-1.969.668-.656.656-.656 1.804zm9.961-3.457q0-1.242.41-2.308a5.7 5.7 0 0 1 1.172-1.852 5.6 5.6 0 0 1 1.805-1.254 5.8 5.8 0 0 1 2.32-.457q1.536 0 2.602.563a4.8 4.8 0 0 1 1.711 1.476q.656.915.937 2.063.293 1.148.293 2.355v.399h-8.402q0 .621.281 1.136.281.504.715.868.446.351 1.008.55.573.188 1.125.188.82 0 1.429-.152.61-.165 1.032-.364a3.9 3.9 0 0 0 1.136-.808l1.535 1.734-.398.399q-.316.315-.938.679-.609.363-1.558.645-.95.293-2.262.293-1.347 0-2.449-.457a5.7 5.7 0 0 1-1.887-1.254 5.5 5.5 0 0 1-1.207-1.934q-.41-1.137-.41-2.508m2.824-1.054h5.52q0-.434-.164-.856a2.4 2.4 0 0 0-.492-.785 2.5 2.5 0 0 0-.833-.574 2.7 2.7 0 0 0-1.148-.235 3.1 3.1 0 0 0-1.23.235 2.8 2.8 0 0 0-.903.574 2.6 2.6 0 0 0-.562.785 2.1 2.1 0 0 0-.188.856m10.641-6.211v-2.977h3.023v2.977zm.094 13.031v-11.262h2.836V310zm5.742 0v-16.008h2.824V310zm4.898-3.293q0-.961.364-1.711a3.6 3.6 0 0 1 1.007-1.277q.645-.516 1.559-.774a7.1 7.1 0 0 1 2.016-.269 26 26 0 0 1 1.535.047q.434.023.89.058v-.269q0-.844-.679-1.324-.669-.481-1.746-.481-1.196 0-1.922.316a9.5 9.5 0 0 0-1.266.668l-1.301-1.91q.34-.234.774-.492a5.5 5.5 0 0 1 1.008-.457 7.5 7.5 0 0 1 1.324-.34 11 11 0 0 1 1.769-.129q1.078 0 1.957.305a4.4 4.4 0 0 1 1.5.832q.621.539.961 1.301.34.75.34 1.64V310h-2.648l-.071-1.055q-.456.551-1.394.985t-2.086.433q-.692 0-1.383-.222a3.8 3.8 0 0 1-1.242-.657 3.4 3.4 0 0 1-.914-1.136q-.352-.704-.352-1.641m2.719-.117q0 .714.516 1.125.515.41 1.523.41.504 0 .973-.164t.82-.457a2.5 2.5 0 0 0 .586-.668q.234-.387.234-.82v-1.102l-.843-.047a21 21 0 0 0-1.336-.047q-1.371 0-1.922.539-.55.54-.551 1.231m9.574-2.063q0-1.242.446-2.343a5.5 5.5 0 0 1 1.265-1.922 6 6 0 0 1 2.004-1.289q1.183-.47 2.637-.469 1.464 0 2.695.246 1.242.234 2.016.492v10.946q0 1.172-.41 2.085a4.3 4.3 0 0 1-1.137 1.536 4.7 4.7 0 0 1-1.699.949 6.7 6.7 0 0 1-2.133.328q-.89 0-1.571-.082a8.5 8.5 0 0 1-1.23-.234 5 5 0 0 1-.984-.364 5.4 5.4 0 0 1-.821-.492l1.266-2.086a4.5 4.5 0 0 0 1.453.656q.786.2 1.84.2 1.102 0 1.84-.668.75-.669.75-1.875v-1.219a5.3 5.3 0 0 1-1.266.785q-.68.293-1.805.293-1.219 0-2.167-.41a4.8 4.8 0 0 1-1.629-1.137 5.05 5.05 0 0 1-1.02-1.734 6.7 6.7 0 0 1-.34-2.192m2.871-.07q0 1.301.645 2.191.656.879 2.097.879 1.301 0 1.958-.55.656-.552.656-1.758v-4.031a4 4 0 0 0-.703-.176q-.352-.059-1.114-.059-.867 0-1.523.293-.645.282-1.102.762t-.691 1.125a4 4 0 0 0-.223 1.324m10.442-.223q0-1.242.41-2.308a5.7 5.7 0 0 1 1.172-1.852 5.6 5.6 0 0 1 1.804-1.254 5.8 5.8 0 0 1 2.321-.457q1.535 0 2.601.563a4.8 4.8 0 0 1 1.711 1.476q.656.915.938 2.063.293 1.148.293 2.355v.399h-8.403q0 .621.282 1.136.28.504.714.868.445.351 1.008.55.575.188 1.125.188.82 0 1.43-.152.61-.165 1.031-.364a3.9 3.9 0 0 0 1.137-.808l1.535 1.734-.398.399q-.317.315-.938.679-.61.363-1.558.645-.95.293-2.262.293-1.348 0-2.449-.457a5.7 5.7 0 0 1-1.887-1.254 5.5 5.5 0 0 1-1.207-1.934q-.41-1.137-.41-2.508m2.824-1.054h5.519q0-.434-.164-.856a2.4 2.4 0 0 0-.492-.785 2.5 2.5 0 0 0-.832-.574 2.7 2.7 0 0 0-1.148-.235q-.691 0-1.231.235-.539.223-.902.574a2.6 2.6 0 0 0-.563.785 2.1 2.1 0 0 0-.187.856M53.18 331.582v-6.844h2.824v6.821q0 1.078.586 1.675.597.586 1.535.586.574 0 1.078-.222.504-.235.856-.645.364-.41.562-.949.21-.539.211-1.16v-6.106h2.836V336h-2.719l-.07-1.277q-.21.234-.527.504a5 5 0 0 1-.727.503q-.398.223-.926.364-.527.14-1.207.14-2.109 0-3.21-1.254-1.102-1.265-1.102-3.398M66.445 336v-11.262h2.707l.07 1.278a6 6 0 0 1 .516-.504q.305-.27.727-.492.421-.223.95-.364a4.3 4.3 0 0 1 1.194-.152q2.11 0 3.211 1.266 1.114 1.253 1.114 3.386V336h-2.836v-6.82q0-1.079-.586-1.664-.586-.586-1.524-.586-.573 0-1.078.234a2.5 2.5 0 0 0-.867.633 3 3 0 0 0-.574.949q-.2.539-.2 1.16V336zm12.692-5.426q0-1.324.375-2.308.386-.996.96-1.7.481-.574 1.055-.961.587-.386 1.172-.632.586-.258 1.137-.364.55-.105.96-.105.552 0 .915.035t.645.094q.292.059.527.164l.55.211v-5.016h2.813V336h-2.742l-.07-1.102a5 5 0 0 1-.528.504 4 4 0 0 1-.726.481q-.422.21-.938.351-.516.153-1.16.153-.914 0-1.805-.387a4.9 4.9 0 0 1-1.593-1.125q-.692-.75-1.125-1.828-.422-1.078-.422-2.473m2.847 0q0 1.441.715 2.403.727.96 2.098.961.715 0 1.219-.27.515-.282.82-.715.316-.433.457-.949.14-.516.14-.996v-3.457a2.3 2.3 0 0 0-.949-.469q-.539-.129-1.37-.129-.844 0-1.395.328a3.3 3.3 0 0 0-.961.844q-.364.48-.574 1.125-.2.633-.2 1.324m14.297-3.527v-2.309h1.91v-.691q0-1.22.387-2.074.387-.856.984-1.395a3.6 3.6 0 0 1 1.336-.773q.75-.246 1.477-.246.774 0 1.699.222.938.211 1.805.949l-1.324 1.875a3.7 3.7 0 0 0-.832-.433 2.5 2.5 0 0 0-.891-.164q-.843 0-1.336.539-.492.539-.492 1.547v.644h2.906v2.309h-2.883V336h-2.836v-8.953zm9.235 8.953v-11.262h2.707l.07 1.418q.188-.234.492-.515a3.6 3.6 0 0 1 .715-.528q.41-.245.949-.422a3.8 3.8 0 0 1 1.231-.164q.41 0 .726.047.329.047.668.164l-.574 2.672a2.7 2.7 0 0 0-.598-.164 3.6 3.6 0 0 0-.703-.058q-.575 0-1.101.199a2.6 2.6 0 0 0-.914.551 2.8 2.8 0 0 0-.622.867 2.8 2.8 0 0 0-.222 1.125V336zm8.437-3.293q0-.961.363-1.711a3.6 3.6 0 0 1 1.008-1.277q.644-.516 1.559-.774a7.1 7.1 0 0 1 2.015-.269 26 26 0 0 1 1.536.047q.434.023.89.058v-.269q0-.844-.679-1.324-.669-.481-1.747-.481-1.195 0-1.921.316a9.5 9.5 0 0 0-1.266.668l-1.301-1.91q.34-.234.774-.492a5.5 5.5 0 0 1 1.007-.457 7.6 7.6 0 0 1 1.325-.34 10.7 10.7 0 0 1 1.769-.129q1.078 0 1.957.305a4.4 4.4 0 0 1 1.5.832q.622.539.961 1.301.34.75.34 1.64V336h-2.648l-.071-1.055q-.456.551-1.394.985t-2.086.433q-.692 0-1.383-.222a3.8 3.8 0 0 1-1.242-.657 3.4 3.4 0 0 1-.914-1.136q-.352-.704-.352-1.641m2.719-.117q0 .714.516 1.125.515.41 1.523.41.504 0 .973-.164t.82-.457q.363-.293.586-.668.234-.387.234-.82v-1.102l-.844-.047a21 21 0 0 0-1.335-.047q-1.372 0-1.922.539-.552.54-.551 1.231m9.574-2.063q0-1.242.445-2.343a5.6 5.6 0 0 1 1.266-1.922 6 6 0 0 1 2.004-1.289q1.183-.47 2.637-.469 1.464 0 2.695.246 1.242.234 2.016.492v10.946q0 1.172-.411 2.085a4.3 4.3 0 0 1-1.136 1.536 4.7 4.7 0 0 1-1.7.949 6.7 6.7 0 0 1-2.132.328 13 13 0 0 1-1.571-.082 8.5 8.5 0 0 1-1.23-.234 5 5 0 0 1-.984-.364 5.3 5.3 0 0 1-.821-.492l1.266-2.086a4.5 4.5 0 0 0 1.453.656q.785.2 1.84.2 1.1 0 1.84-.668.75-.669.75-1.875v-1.219a5.3 5.3 0 0 1-1.266.785q-.68.293-1.805.293-1.218 0-2.168-.41a4.8 4.8 0 0 1-1.629-1.137 5.1 5.1 0 0 1-1.019-1.734 6.7 6.7 0 0 1-.34-2.192m2.871-.07q0 1.301.645 2.191.655.879 2.097.879 1.302 0 1.957-.55.657-.552.657-1.758v-4.031a4 4 0 0 0-.703-.176q-.352-.059-1.114-.059-.867 0-1.523.293-.645.282-1.102.762t-.691 1.125a4 4 0 0 0-.223 1.324m10.442-.223q0-1.242.41-2.308a5.7 5.7 0 0 1 1.172-1.852 5.55 5.55 0 0 1 1.804-1.254 5.8 5.8 0 0 1 2.321-.457q1.535 0 2.601.563a4.8 4.8 0 0 1 1.711 1.476q.657.915.938 2.063.293 1.148.293 2.355v.399h-8.403q0 .621.282 1.136.28.504.714.868.446.351 1.008.55.575.188 1.125.188.82 0 1.43-.152.61-.165 1.031-.364a3.9 3.9 0 0 0 1.137-.808l1.535 1.734-.398.399q-.317.315-.938.679-.61.363-1.559.645-.948.293-2.261.293-1.348 0-2.45-.457a5.7 5.7 0 0 1-1.886-1.254 5.5 5.5 0 0 1-1.207-1.934q-.41-1.137-.41-2.508m2.824-1.054h5.519q0-.434-.164-.856a2.4 2.4 0 0 0-.492-.785 2.5 2.5 0 0 0-.832-.574 2.7 2.7 0 0 0-1.148-.235q-.691 0-1.231.235-.539.223-.902.574a2.6 2.6 0 0 0-.563.785 2.1 2.1 0 0 0-.187.856M153 336v-11.262h2.707l.07 1.278q.212-.235.516-.504.304-.27.727-.492.421-.223.949-.364.527-.152 1.195-.152 2.11 0 3.211 1.266 1.113 1.253 1.113 3.386V336h-2.836v-6.82q0-1.079-.586-1.664-.585-.586-1.523-.586-.574 0-1.078.234a2.5 2.5 0 0 0-.867.633 3 3 0 0 0-.575.949 3.3 3.3 0 0 0-.199 1.16V336zm16.898-2.566 2.122-1.946q.292.34.679.715.399.363.891.692.492.315 1.101.539.61.21 1.383.211 1.419 0 2.098-.645.68-.644.68-1.559 0-.504-.188-.902-.188-.399-.644-.691-.458-.305-1.196-.539a14 14 0 0 0-1.804-.457q-1.103-.212-1.911-.668a5.1 5.1 0 0 1-1.336-1.09 4.4 4.4 0 0 1-.796-1.371 4.8 4.8 0 0 1-.258-1.559q0-.913.328-1.734a4 4 0 0 1 1.031-1.465q.703-.633 1.746-1.02 1.044-.386 2.461-.386 1.278 0 2.18.293.914.28 1.523.668.621.386.95.761.339.363.492.539l-1.992 1.864a9 9 0 0 1-.387-.34 3.6 3.6 0 0 0-.668-.492 4.3 4.3 0 0 0-.949-.434 3.6 3.6 0 0 0-1.243-.199q-.62 0-1.078.176a2.3 2.3 0 0 0-.761.433 1.8 1.8 0 0 0-.446.586q-.14.317-.14.609 0 .433.152.774.164.328.527.621.375.28 1.02.516.656.223 1.64.421a8.3 8.3 0 0 1 1.793.575q.868.387 1.524.996.668.609 1.055 1.488.398.879.398 2.098 0 1.054-.434 1.945a4.7 4.7 0 0 1-1.195 1.559 5.5 5.5 0 0 1-1.828 1.043 6.8 6.8 0 0 1-2.297.375q-1.195 0-2.168-.293a8.2 8.2 0 0 1-1.758-.727 7.5 7.5 0 0 1-1.347-.973 10 10 0 0 1-.95-1.007m14.907-10.465v-2.977h3.023v2.977zm.093 13.031v-11.262h2.836V336zm5.215-5.766q0-1.242.41-2.308a5.7 5.7 0 0 1 1.172-1.852 5.6 5.6 0 0 1 1.805-1.254 5.8 5.8 0 0 1 2.32-.457q1.536 0 2.602.563a4.8 4.8 0 0 1 1.711 1.476q.656.915.937 2.063.293 1.148.293 2.355v.399h-8.402q0 .621.281 1.136a3.1 3.1 0 0 0 .715.868q.445.351 1.008.55.575.188 1.125.188.82 0 1.43-.152.61-.165 1.031-.364a3.9 3.9 0 0 0 1.137-.808l1.535 1.734-.399.399q-.316.315-.937.679-.61.363-1.559.645-.95.293-2.262.293-1.347 0-2.449-.457a5.7 5.7 0 0 1-1.887-1.254 5.5 5.5 0 0 1-1.207-1.934q-.41-1.137-.41-2.508m2.825-1.054h5.519q0-.434-.164-.856a2.4 2.4 0 0 0-.492-.785 2.5 2.5 0 0 0-.832-.574 2.7 2.7 0 0 0-1.149-.235 3.1 3.1 0 0 0-1.23.235q-.54.223-.902.574-.364.351-.563.785a2.1 2.1 0 0 0-.187.856m15.234 6.82v-16.008h3.023V336zm6.094 0v-16.008h2.777v5.906q.434-.48 1.266-.937.831-.457 2.121-.457 1.03 0 1.84.34.82.328 1.359.949.55.609.832 1.477.293.855.293 1.886V336h-2.836v-6.82q0-1.079-.586-1.664-.586-.586-1.523-.586-.575 0-1.079.234a2.5 2.5 0 0 0-.867.633 3 3 0 0 0-.574.949 3.3 3.3 0 0 0-.199 1.16V336zm13.218 0v-11.262h2.707l.071 1.418q.188-.234.492-.515.304-.293.715-.528.41-.245.949-.422.54-.175 1.23-.164.41 0 .727.047.328.047.668.164l-.574 2.672a2.7 2.7 0 0 0-.598-.164 3.7 3.7 0 0 0-.703-.058q-.574 0-1.102.199a2.6 2.6 0 0 0-.914.551 2.8 2.8 0 0 0-.621.867 2.8 2.8 0 0 0-.222 1.125V336zm8.637-5.766q0-1.242.41-2.308a5.7 5.7 0 0 1 1.172-1.852 5.6 5.6 0 0 1 1.805-1.254 5.8 5.8 0 0 1 2.32-.457q1.536 0 2.602.563a4.8 4.8 0 0 1 1.711 1.476q.656.915.937 2.063.293 1.148.293 2.355v.399h-8.402q0 .621.281 1.136a3.1 3.1 0 0 0 .715.868q.446.351 1.008.55.573.188 1.125.188.82 0 1.429-.152.61-.165 1.032-.364a3.9 3.9 0 0 0 1.136-.808l1.535 1.734-.398.399q-.316.315-.937.679-.61.363-1.559.645-.95.293-2.262.293-1.348 0-2.449-.457a5.7 5.7 0 0 1-1.887-1.254 5.5 5.5 0 0 1-1.207-1.934q-.41-1.137-.41-2.508m2.824-1.054h5.52q0-.434-.164-.856a2.4 2.4 0 0 0-.492-.785 2.5 2.5 0 0 0-.832-.574 2.7 2.7 0 0 0-1.149-.235 3.1 3.1 0 0 0-1.23.235q-.54.223-.903.574a2.6 2.6 0 0 0-.562.785 2.1 2.1 0 0 0-.188.856M21.281 362l6.07-16.008h3.13L36.55 362h-3.364l-1.394-4.055H25.84L24.457 362zm3.586-17.684v-2.812h2.953v2.812zm1.817 11.133h4.253l-2.12-6.222zm3.293-11.133v-2.812h2.953v2.812zM38.074 362v-11.262h2.707l.07 1.418q.189-.234.493-.515a3.6 3.6 0 0 1 .715-.528q.41-.245.949-.422.54-.175 1.23-.164.41 0 .727.047.328.047.668.164l-.574 2.672a2.7 2.7 0 0 0-.598-.164 3.7 3.7 0 0 0-.703-.058q-.574 0-1.102.199a2.6 2.6 0 0 0-.914.551 2.8 2.8 0 0 0-.62.867 2.8 2.8 0 0 0-.224 1.125V362zm8.871 0v-2.156l5.743-6.727H47.12v-2.379h9.094v2.215l-5.93 6.738h5.93V362zm10.653-8.953v-2.309h1.922v-3.644h2.824v3.644h3.023v2.309h-3.023v4.922q0 .96.328 1.476t1.043.516q.667 0 1.066-.188a6 6 0 0 0 .762-.457l1.195 1.746q-.843.691-1.664.997-.808.304-1.816.304-1.032 0-1.758-.304a2.86 2.86 0 0 1-1.16-.844 3.4 3.4 0 0 1-.633-1.336 7.4 7.4 0 0 1-.187-1.723v-5.109zm10.64-4.078v-2.977h3.024v2.977zM68.332 362v-11.262h2.836V362zm5.742 0v-11.262h2.707l.07 1.278a6 6 0 0 1 .516-.504q.304-.27.727-.492.421-.223.949-.364a4.3 4.3 0 0 1 1.195-.152q2.11 0 3.211 1.266 1.114 1.253 1.114 3.386V362h-2.836v-6.82q0-1.079-.586-1.664-.587-.586-1.524-.586-.574 0-1.078.234a2.5 2.5 0 0 0-.867.633 3 3 0 0 0-.574.949q-.2.539-.2 1.16V362zm13.407 3.434L88.992 362h-1.219v-3.34h3.434v3.293l-2.039 3.481zM98.613 362v-16.008h3.024V362zm6.094 0v-16.008h2.777v5.906q.433-.48 1.266-.937t2.121-.457q1.032 0 1.84.34.82.328 1.359.949.552.609.832 1.477a5.8 5.8 0 0 1 .293 1.886V362h-2.836v-6.82q0-1.079-.586-1.664-.585-.586-1.523-.586-.574 0-1.078.234a2.5 2.5 0 0 0-.867.633 3 3 0 0 0-.575.949 3.3 3.3 0 0 0-.199 1.16V362zm13.219 0v-11.262h2.707l.07 1.418q.188-.234.492-.515a3.6 3.6 0 0 1 .715-.528q.41-.245.949-.422a3.8 3.8 0 0 1 1.231-.164q.41 0 .726.047.329.047.668.164l-.574 2.672a2.7 2.7 0 0 0-.598-.164 3.6 3.6 0 0 0-.703-.058q-.574 0-1.101.199a2.6 2.6 0 0 0-.914.551 2.8 2.8 0 0 0-.621.867 2.75 2.75 0 0 0-.223 1.125V362zm8.636-5.766q0-1.242.411-2.308a5.7 5.7 0 0 1 1.172-1.852 5.55 5.55 0 0 1 1.804-1.254 5.8 5.8 0 0 1 2.321-.457q1.535 0 2.601.563a4.8 4.8 0 0 1 1.711 1.476q.656.915.938 2.063.292 1.148.292 2.355v.399h-8.402q0 .621.281 1.136a3.1 3.1 0 0 0 .715.868q.446.352 1.008.55.575.188 1.125.188.82 0 1.43-.152.61-.165 1.031-.364a3.9 3.9 0 0 0 1.137-.808l1.535 1.734-.399.399q-.316.316-.937.679-.61.363-1.559.645-.948.293-2.261.293-1.348 0-2.45-.457a5.7 5.7 0 0 1-1.886-1.254 5.5 5.5 0 0 1-1.207-1.934q-.411-1.137-.411-2.508m2.825-1.054h5.519q0-.434-.164-.856a2.4 2.4 0 0 0-.492-.785 2.5 2.5 0 0 0-.832-.574 2.7 2.7 0 0 0-1.148-.235q-.692 0-1.231.235-.539.223-.902.574a2.6 2.6 0 0 0-.563.785 2.1 2.1 0 0 0-.187.856m10.617 6.82v-11.262h2.707l.07 1.278q.212-.235.516-.504.304-.27.726-.492.423-.223.95-.364.527-.152 1.195-.152 2.11 0 3.211 1.266 1.113 1.253 1.113 3.386V362h-2.836v-6.82q0-1.079-.586-1.664-.585-.586-1.523-.586-.574 0-1.078.234a2.5 2.5 0 0 0-.867.633 3 3 0 0 0-.575.949 3.3 3.3 0 0 0-.199 1.16V362zm16.277 0 6.071-16.008h3.128L171.551 362h-3.363l-1.395-4.055h-5.953L159.457 362zm5.403-6.551h4.254l-2.122-6.222zm11.39 6.551v-11.262h2.707l.071 1.418q.188-.234.492-.515.304-.293.715-.528.41-.245.949-.422a3.8 3.8 0 0 1 1.23-.164q.41 0 .727.047.328.047.668.164l-.574 2.672a2.7 2.7 0 0 0-.598-.164 3.7 3.7 0 0 0-.703-.058q-.574 0-1.102.199a2.6 2.6 0 0 0-.914.551 2.8 2.8 0 0 0-.621.867 2.8 2.8 0 0 0-.223 1.125V362zm8.871 0v-2.156l5.743-6.727h-5.567v-2.379h9.094v2.215l-5.93 6.738h5.93V362zm10.653-8.953v-2.309h1.922v-3.644h2.824v3.644h3.023v2.309h-3.023v4.922q0 .96.328 1.476t1.043.516q.668 0 1.066-.188a5.7 5.7 0 0 0 .762-.457l1.195 1.746q-.843.691-1.664.997-.808.304-1.816.304-1.032 0-1.758-.304a2.85 2.85 0 0 1-1.16-.844 3.4 3.4 0 0 1-.633-1.336 7.4 7.4 0 0 1-.187-1.723v-5.109zm14.425 3.316q0-1.219.446-2.308a5.9 5.9 0 0 1 1.23-1.91 5.9 5.9 0 0 1 1.91-1.301q1.114-.481 2.461-.481 1.348 0 2.461.481 1.113.48 1.899 1.301a5.8 5.8 0 0 1 1.242 1.898q.445 1.09.445 2.32 0 1.219-.445 2.321a6.1 6.1 0 0 1-1.242 1.921 5.75 5.75 0 0 1-1.899 1.301q-1.113.481-2.461.481t-2.461-.481a5.9 5.9 0 0 1-1.91-1.301 6.2 6.2 0 0 1-1.23-1.921 6.1 6.1 0 0 1-.446-2.321m2.848 0q0 .621.188 1.242.199.622.597 1.161.399.526.996.855.598.317 1.418.317t1.418-.317q.598-.329.985-.855.398-.54.586-1.161a4 4 0 0 0 .199-1.242q0-.597-.199-1.23a3.5 3.5 0 0 0-.586-1.16 2.9 2.9 0 0 0-.996-.832q-.598-.329-1.407-.329-.82 0-1.418.329-.597.316-.996.832-.398.515-.597 1.16a4.3 4.3 0 0 0-.188 1.23m10.981.211q0-1.324.375-2.308a6.2 6.2 0 0 1 .961-1.7q.48-.574 1.054-.961a7.2 7.2 0 0 1 1.172-.632 5.4 5.4 0 0 1 2.098-.469q.55 0 .914.035.363.035.644.094.293.059.528.164l.55.211v-5.016h2.813V362h-2.742l-.071-1.102q-.21.236-.527.504a4 4 0 0 1-.726.481q-.423.21-.938.351-.516.153-1.16.153a4.5 4.5 0 0 1-1.805-.387 4.9 4.9 0 0 1-1.594-1.125 6 6 0 0 1-1.125-1.828q-.421-1.078-.421-2.473m2.847 0q0 1.441.715 2.403.726.96 2.098.961.715 0 1.218-.27.516-.282.821-.715.316-.433.457-.949.14-.516.14-.996v-3.457a2.3 2.3 0 0 0-.949-.469q-.538-.129-1.371-.129-.843 0-1.394.328a3.3 3.3 0 0 0-.961.844 3.8 3.8 0 0 0-.575 1.125 4.4 4.4 0 0 0-.199 1.324m10.512-.34q0-1.242.41-2.308a5.7 5.7 0 0 1 1.172-1.852 5.6 5.6 0 0 1 1.805-1.254 5.8 5.8 0 0 1 2.32-.457q1.535 0 2.602.563a4.8 4.8 0 0 1 1.71 1.476q.656.915.938 2.063.293 1.148.293 2.355v.399h-8.402q0 .621.281 1.136.281.504.715.868.446.352 1.007.55.574.188 1.126.188.82 0 1.429-.152.61-.165 1.031-.364a3.9 3.9 0 0 0 1.137-.808l1.535 1.734-.398.399q-.317.316-.938.679-.609.363-1.558.645-.95.293-2.262.293-1.347 0-2.449-.457a5.7 5.7 0 0 1-1.887-1.254 5.5 5.5 0 0 1-1.207-1.934q-.41-1.137-.41-2.508m2.824-1.054h5.52q0-.434-.164-.856a2.4 2.4 0 0 0-.493-.785 2.5 2.5 0 0 0-.832-.574 2.7 2.7 0 0 0-1.148-.235 3.1 3.1 0 0 0-1.23.235 2.8 2.8 0 0 0-.903.574 2.6 2.6 0 0 0-.562.785 2.1 2.1 0 0 0-.188.856m10.617 6.82v-11.262h2.707l.071 1.418q.187-.234.492-.515.304-.293.715-.528.41-.245.949-.422a3.8 3.8 0 0 1 1.23-.164q.41 0 .727.047.328.047.668.164l-.574 2.672a2.7 2.7 0 0 0-.598-.164 3.7 3.7 0 0 0-.703-.058q-.574 0-1.102.199a2.6 2.6 0 0 0-.914.551 2.8 2.8 0 0 0-.621.867 2.8 2.8 0 0 0-.222 1.125V362zm13.524-13.031v-2.977h3.023v2.977zM261.27 362v-11.262h2.835V362zm5.742 0v-11.262h2.707l.07 1.278q.212-.235.516-.504.304-.27.726-.492.422-.223.949-.364.527-.152 1.196-.152 2.109 0 3.211 1.266 1.113 1.253 1.113 3.386V362h-2.836v-6.82q0-1.079-.586-1.664-.585-.586-1.523-.586-.575 0-1.078.234a2.5 2.5 0 0 0-.868.633 3 3 0 0 0-.574.949 3.3 3.3 0 0 0-.199 1.16V362zM68.719 388v-16.008h3.023V388zm6.094 0v-16.008h2.777v5.906q.433-.48 1.266-.937.831-.457 2.12-.457 1.032 0 1.84.34.82.328 1.36.949.55.609.832 1.477a5.8 5.8 0 0 1 .293 1.886V388h-2.836v-6.82q0-1.079-.586-1.664-.585-.586-1.523-.586a2.5 2.5 0 0 0-1.079.234 2.5 2.5 0 0 0-.867.633 3 3 0 0 0-.574.949q-.2.539-.2 1.16V388zm13.218 0v-11.262h2.707l.07 1.418q.189-.234.493-.515a3.6 3.6 0 0 1 .715-.528q.41-.245.949-.422.54-.175 1.23-.164.41 0 .727.047.328.047.668.164l-.574 2.672a2.7 2.7 0 0 0-.598-.164 3.7 3.7 0 0 0-.703-.058q-.574 0-1.102.199a2.6 2.6 0 0 0-.914.551 2.8 2.8 0 0 0-.62.867 2.8 2.8 0 0 0-.223 1.125V388zm8.637-5.766q0-1.242.41-2.308a5.7 5.7 0 0 1 1.172-1.852 5.6 5.6 0 0 1 1.805-1.254 5.8 5.8 0 0 1 2.32-.457q1.535 0 2.602.563a4.8 4.8 0 0 1 1.711 1.476q.656.915.937 2.063.293 1.148.293 2.355v.399h-8.402q0 .621.28 1.136.282.504.716.868.446.352 1.008.55.573.188 1.125.188.82 0 1.429-.152.61-.165 1.031-.364a3.9 3.9 0 0 0 1.137-.808l1.535 1.734-.398.399q-.317.316-.938.679-.609.363-1.558.645-.95.293-2.262.293-1.348 0-2.449-.457a5.7 5.7 0 0 1-1.887-1.254 5.5 5.5 0 0 1-1.207-1.934q-.41-1.137-.41-2.508m2.824-1.054h5.52q0-.434-.164-.856a2.4 2.4 0 0 0-.493-.785 2.5 2.5 0 0 0-.832-.574 2.7 2.7 0 0 0-1.148-.235 3.1 3.1 0 0 0-1.23.235 2.8 2.8 0 0 0-.903.574q-.364.351-.562.785a2.1 2.1 0 0 0-.188.856M110.11 388v-11.262h2.707l.071 1.418q.188-.234.492-.515.304-.293.715-.528.41-.245.949-.422a3.8 3.8 0 0 1 1.23-.164q.41 0 .727.047.328.047.668.164l-.574 2.672a2.7 2.7 0 0 0-.598-.164 3.7 3.7 0 0 0-.703-.058q-.574 0-1.102.199a2.6 2.6 0 0 0-.914.551 2.8 2.8 0 0 0-.621.867 2.8 2.8 0 0 0-.222 1.125V388zm12.223 0 6.07-16.008h3.129L137.602 388h-3.364l-1.394-4.055h-5.953L125.508 388zm5.402-6.551h4.254l-2.121-6.222zm11.391 11.356v-16.067h2.73l.071 1.278q.21-.235.539-.504.328-.27.773-.481.446-.21 1.008-.351a4.8 4.8 0 0 1 1.266-.153q1.3 0 2.238.504a4.65 4.65 0 0 1 1.57 1.336q.621.82.938 1.887.316 1.055.316 2.18 0 1.323-.386 2.261a6.6 6.6 0 0 1-.961 1.629q-.961 1.149-2.098 1.606a6.2 6.2 0 0 1-2.344.457q-.55 0-.949-.047a4.5 4.5 0 0 1-.727-.141 6 6 0 0 1-.597-.187q-.27-.106-.586-.223v5.016zm2.801-7.571q.843.692 2.543.704.772 0 1.371-.293a3.32 3.32 0 0 0 1.652-1.911q.223-.633.223-1.3a5.2 5.2 0 0 0-.164-1.336 3 3 0 0 0-.504-1.102 2.4 2.4 0 0 0-.891-.738q-.55-.281-1.371-.281-.645 0-1.172.281-.527.27-.902.703t-.586.949a2.8 2.8 0 0 0-.199.996zm10.383-2.871q0-1.219.445-2.308a5.9 5.9 0 0 1 1.23-1.91 5.9 5.9 0 0 1 1.911-1.301q1.113-.481 2.46-.481 1.348 0 2.461.481 1.114.48 1.899 1.301a5.8 5.8 0 0 1 1.242 1.898q.445 1.09.445 2.32 0 1.219-.445 2.321a6.1 6.1 0 0 1-1.242 1.921 5.7 5.7 0 0 1-1.899 1.301q-1.113.481-2.461.481t-2.46-.481a5.9 5.9 0 0 1-1.911-1.301 6.134 6.134 0 0 1-1.675-4.242m2.847 0q0 .621.188 1.242.2.622.597 1.161.399.526.997.855.597.317 1.417.317t1.418-.317q.598-.329.985-.855.398-.54.586-1.161a4 4 0 0 0 .199-1.242q0-.597-.199-1.23a3.5 3.5 0 0 0-.586-1.16 2.9 2.9 0 0 0-.996-.832q-.598-.329-1.407-.329-.82 0-1.417.329a3 3 0 0 0-.997.832q-.398.515-.597 1.16a4.3 4.3 0 0 0-.188 1.23m10.547-3.316v-2.309h1.922v-3.644h2.824v3.644h3.024v2.309h-3.024v4.922q0 .96.328 1.476.329.516 1.043.516.668 0 1.067-.188.398-.199.761-.457l1.196 1.746q-.844.691-1.664.997-.809.304-1.817.304-1.03 0-1.758-.304a2.86 2.86 0 0 1-1.16-.844 3.4 3.4 0 0 1-.633-1.336 7.5 7.5 0 0 1-.187-1.723v-5.109zM176.32 388v-16.008h2.778v5.906q.434-.48 1.265-.937.832-.457 2.121-.457 1.032 0 1.84.34.82.328 1.36.949.55.609.832 1.477.293.855.293 1.886V388h-2.836v-6.82q0-1.079-.586-1.664-.587-.586-1.524-.586-.574 0-1.078.234a2.5 2.5 0 0 0-.867.633 3 3 0 0 0-.574.949 3.3 3.3 0 0 0-.199 1.16V388zm12.692-5.766q0-1.242.41-2.308a5.7 5.7 0 0 1 1.172-1.852 5.6 5.6 0 0 1 1.804-1.254 5.8 5.8 0 0 1 2.321-.457q1.535 0 2.601.563a4.8 4.8 0 0 1 1.711 1.476q.656.915.938 2.063.293 1.148.293 2.355v.399h-8.403q0 .621.282 1.136.28.504.714.868.445.352 1.008.55.575.188 1.125.188.82 0 1.43-.152.61-.165 1.031-.364a3.9 3.9 0 0 0 1.137-.808l1.535 1.734-.398.399q-.317.316-.938.679-.61.363-1.558.645-.95.293-2.262.293-1.348 0-2.449-.457a5.7 5.7 0 0 1-1.887-1.254 5.5 5.5 0 0 1-1.207-1.934q-.41-1.137-.41-2.508m2.824-1.054h5.519q0-.434-.164-.856a2.4 2.4 0 0 0-.492-.785 2.5 2.5 0 0 0-.832-.574 2.7 2.7 0 0 0-1.148-.235q-.691 0-1.231.235-.539.223-.902.574a2.6 2.6 0 0 0-.563.785 2.1 2.1 0 0 0-.187.856m10.617 6.82v-16.008h2.824v8.731l4.067-3.985h3.328l-4.219 4.16 4.699 7.102h-3.386l-3.258-5.18-1.231 1.196V388zm11.754-5.766q0-1.242.41-2.308a5.7 5.7 0 0 1 1.172-1.852 5.6 5.6 0 0 1 1.805-1.254 5.8 5.8 0 0 1 2.32-.457q1.536 0 2.602.563a4.8 4.8 0 0 1 1.711 1.476q.656.915.937 2.063.293 1.148.293 2.355v.399h-8.402q0 .621.281 1.136.281.504.715.868.446.352 1.008.55.573.188 1.125.188.82 0 1.429-.152.61-.165 1.032-.364a3.9 3.9 0 0 0 1.136-.808l1.535 1.734-.398.399q-.316.316-.938.679-.609.363-1.558.645-.95.293-2.262.293-1.347 0-2.449-.457a5.7 5.7 0 0 1-1.887-1.254 5.5 5.5 0 0 1-1.207-1.934q-.41-1.137-.41-2.508m2.824-1.054h5.52q0-.434-.164-.856a2.4 2.4 0 0 0-.492-.785 2.5 2.5 0 0 0-.833-.574 2.7 2.7 0 0 0-1.148-.235 3.1 3.1 0 0 0-1.23.235 2.8 2.8 0 0 0-.903.574 2.6 2.6 0 0 0-.562.785 2.1 2.1 0 0 0-.188.856m10.852 6.82v-3.316h3.433V388z"/><path fill="#fff" d="m128.711 568 3.035-8.004h1.565l3.035 8.004h-1.682l-.697-2.027h-2.977l-.691 2.027zm2.701-3.275h2.127l-1.06-3.112zm5.274-3.399v-1.33h6.937v1.33h-2.713V568h-1.512v-6.674zm7.728.287q.147-.24.357-.48a2.6 2.6 0 0 1 1.26-.779q.422-.129.961-.129.651 0 1.119.175.47.17.768.463.299.287.439.657.147.363.147.744 0 .41-.135.756-.129.345-.346.65a4 4 0 0 1-.492.562q-.275.264-.562.504-.346.288-.657.528-.304.24-.533.468a2.3 2.3 0 0 0-.363.463q-.129.235-.129.522h3.264V568h-4.858v-.949q0-.516.17-.932.176-.422.451-.773.282-.358.616-.657.334-.298.673-.591.334-.288.592-.487.258-.204.44-.392.182-.187.269-.375.088-.194.088-.446 0-.157-.053-.322a.7.7 0 0 0-.181-.293.9.9 0 0 0-.328-.211 1.3 1.3 0 0 0-.516-.088q-.276 0-.498.088a1.5 1.5 0 0 0-.398.217 1.7 1.7 0 0 0-.299.287 3 3 0 0 0-.211.293zm6.311 5.737.791-1.02q.322.287.697.457t.949.17q.387 0 .656-.111.27-.117.44-.317.175-.2.252-.451.082-.252.082-.527 0-.182-.071-.399a1.1 1.1 0 0 0-.234-.416 1.2 1.2 0 0 0-.463-.322q-.292-.135-.732-.135-.41 0-.651.082-.24.077-.445.147l-.721-.551.756-3.504h3.926v1.318h-2.906l-.299 1.454q.082-.035.287-.071.205-.04.492-.041.55 0 1.014.17t.797.475q.34.304.521.75.188.446.188.984 0 .528-.158 1.02a2.2 2.2 0 0 1-.51.873q-.352.375-.92.603-.569.23-1.383.229-.802 0-1.371-.24a3.5 3.5 0 0 1-.984-.627m7.078-5.696 2.22-1.213h1.237v6.323h1.248V568h-3.961v-1.236h1.295v-4.776l-1.447.768zm6.539 0 2.22-1.213h1.237v6.323h1.248V568h-3.961v-1.236h1.295v-4.776l-1.447.768zm6.023 2.467q0-.879.188-1.594.187-.72.556-1.23.375-.51.932-.791t1.289-.281 1.283.281.92.791q.375.51.563 1.23.187.721.187 1.594 0 .902-.187 1.652-.188.75-.563 1.284a2.7 2.7 0 0 1-.926.838q-.556.298-1.289.298t-1.283-.298a2.8 2.8 0 0 1-.926-.838 3.9 3.9 0 0 1-.556-1.284 6.8 6.8 0 0 1-.188-1.652m1.453 0q0 .586.094 1.096.1.504.287.879.193.369.475.586.287.216.656.216t.65-.216q.288-.217.469-.586.188-.375.281-.879.1-.504.1-1.096 0-.563-.1-1.043a2.7 2.7 0 0 0-.287-.82 1.5 1.5 0 0 0-.468-.533 1.13 1.13 0 0 0-.657-.194q-.369 0-.656.194a1.5 1.5 0 0 0-.469.533q-.181.34-.281.82-.094.48-.094 1.043m5.45.375q0-.937.211-1.723.216-.785.638-1.353a2.9 2.9 0 0 1 1.043-.885q.627-.31 1.453-.31.334 0 .621.052.293.053.539.135.247.077.428.164.188.082.311.153l-.616 1.113a2.7 2.7 0 0 0-.767-.305 2 2 0 0 0-.527-.064q-.434 0-.78.187-.345.182-.597.492a2.3 2.3 0 0 0-.393.692 2.3 2.3 0 0 0-.141.791q.264-.159.633-.346.375-.187.955-.187.515 0 .95.169.439.17.744.487.31.317.48.773.176.458.176 1.043 0 .528-.17 1.008-.163.48-.492.844a2.4 2.4 0 0 1-.809.574 2.7 2.7 0 0 1-1.107.217q-.599 0-1.113-.217a2.3 2.3 0 0 1-.885-.674q-.37-.457-.58-1.154-.205-.703-.205-1.676m1.412.275q0 .64.105 1.067.111.422.299.674a1.1 1.1 0 0 0 .439.363q.252.105.528.105.563 0 .902-.398.346-.404.346-1.055 0-.55-.322-.879-.317-.333-.832-.334-.54 0-.897.159a3.6 3.6 0 0 0-.568.298m5.279-3.117 2.221-1.213h1.236v6.323h1.248V568h-3.961v-1.236h1.295v-4.776l-1.447.768zm6.146 4.225q0-.732.381-1.26a2.4 2.4 0 0 1 1.02-.808 2.1 2.1 0 0 1-.656-.639 1.65 1.65 0 0 1-.288-.943q0-.446.17-.815.177-.375.487-.639.31-.263.75-.404.44-.146.978-.146.587 0 1.032.146a2.1 2.1 0 0 1 .744.399q.298.256.457.621.158.357.158.779 0 .562-.305.978a2.06 2.06 0 0 1-.679.616q.685.287 1.06.82t.375 1.266q0 .386-.158.802a2.1 2.1 0 0 1-.498.756q-.34.34-.879.563t-1.307.222q-.779 0-1.318-.216a2.7 2.7 0 0 1-.885-.551 2.1 2.1 0 0 1-.492-.75 2.4 2.4 0 0 1-.147-.797m1.436-.041q0 .322.123.545.129.222.334.369t.457.211.492.064.492-.064.457-.211a1.1 1.1 0 0 0 .329-.363q.129-.223.129-.551a1 1 0 0 0-.124-.475 1.4 1.4 0 0 0-.316-.404 2 2 0 0 0-.457-.299 2.2 2.2 0 0 0-.533-.187q-.276.058-.528.187a1.8 1.8 0 0 0-.439.299 1.5 1.5 0 0 0-.305.404 1.05 1.05 0 0 0-.111.475m.352-3.609q0 .31.287.626.287.317.767.452.48-.135.768-.452.287-.315.287-.662a.84.84 0 0 0-.293-.656q-.293-.258-.762-.258-.445 0-.75.264a.86.86 0 0 0-.304.686m4.798 4.318v-1.19l3.299-4.916h1.418v4.905h.78v1.201h-.78V568h-1.359v-1.453zm1.366-1.201h1.992v-2.912zm5.004-1.225q0-.879.187-1.594.188-.72.557-1.23.375-.51.931-.791.557-.281 1.289-.281.733 0 1.284.281.55.28.92.791.375.51.562 1.23.188.721.188 1.594 0 .902-.188 1.652-.187.75-.562 1.284a2.7 2.7 0 0 1-.926.838q-.557.298-1.289.298-.733 0-1.284-.298a2.8 2.8 0 0 1-.925-.838 3.9 3.9 0 0 1-.557-1.284 6.8 6.8 0 0 1-.187-1.652m1.453 0q0 .586.093 1.096.1.504.288.879.193.369.474.586.287.216.656.216t.651-.216q.286-.217.469-.586.187-.375.281-.879.099-.504.099-1.096 0-.563-.099-1.043a2.7 2.7 0 0 0-.287-.82 1.5 1.5 0 0 0-.469-.533 1.13 1.13 0 0 0-.656-.194q-.369 0-.657.194a1.5 1.5 0 0 0-.468.533q-.181.34-.282.82a5.5 5.5 0 0 0-.093 1.043m4.775 4.658h6v.662h-6zm6.369-2.062 1.061-.973q.146.17.34.358.198.182.445.345.246.159.551.27.304.105.691.105.709 0 1.049-.322.34-.323.34-.779 0-.252-.094-.451a.84.84 0 0 0-.322-.346 2.4 2.4 0 0 0-.598-.27 7 7 0 0 0-.902-.228 3.2 3.2 0 0 1-.955-.334 2.5 2.5 0 0 1-.668-.545 2.2 2.2 0 0 1-.399-.686 2.4 2.4 0 0 1 .035-1.646 2.04 2.04 0 0 1 .516-.733q.351-.316.873-.509.522-.194 1.231-.194.638 0 1.089.147.458.14.762.334.31.193.475.381.17.182.246.269l-.996.932a5 5 0 0 1-.194-.17 1.8 1.8 0 0 0-.334-.246 2.1 2.1 0 0 0-.474-.217 1.8 1.8 0 0 0-.621-.1q-.31 0-.539.088a1.2 1.2 0 0 0-.381.217.9.9 0 0 0-.223.293.75.75 0 0 0-.07.305.9.9 0 0 0 .076.386q.083.164.264.311.188.141.509.258.329.11.821.211.468.093.896.287.433.193.762.498.334.304.527.744.2.44.199 1.049 0 .527-.216.973-.211.444-.598.779a2.8 2.8 0 0 1-.914.521 3.4 3.4 0 0 1-1.148.188q-.598 0-1.084-.147a4 4 0 0 1-.879-.363 3.8 3.8 0 0 1-.674-.486 5 5 0 0 1-.475-.504m6.961-3.194v-1.154h.961v-1.822h1.412v1.822h1.512v1.154h-1.512v2.461q0 .481.164.739.164.257.522.257.333 0 .533-.093.2-.1.381-.229l.597.873a2.9 2.9 0 0 1-.832.498 2.6 2.6 0 0 1-.908.153 2.3 2.3 0 0 1-.879-.153 1.4 1.4 0 0 1-.58-.422 1.7 1.7 0 0 1-.316-.668 3.7 3.7 0 0 1-.094-.861v-2.555zm4.945 2.831q0-.481.182-.856.182-.381.504-.639.323-.257.779-.386.457-.135 1.008-.135a13 13 0 0 1 .768.023q.216.012.445.03v-.135a.77.77 0 0 0-.34-.662q-.334-.24-.873-.24-.597 0-.961.158a5 5 0 0 0-.633.334l-.65-.955a6 6 0 0 1 .387-.246q.216-.13.504-.229a4 4 0 0 1 .662-.17q.381-.064.884-.064.54 0 .979.152.44.146.75.416t.48.65q.17.375.17.821V568h-1.324l-.035-.527q-.228.274-.697.492-.469.216-1.043.217-.346 0-.692-.112a1.9 1.9 0 0 1-.621-.328 1.7 1.7 0 0 1-.457-.568 1.8 1.8 0 0 1-.176-.82m1.36-.059q0 .358.258.562.257.205.761.205.252 0 .487-.082.234-.081.41-.228.182-.147.293-.334a.8.8 0 0 0 .117-.41v-.551l-.422-.023a9 9 0 0 0-.668-.024q-.685 0-.961.27a.84.84 0 0 0-.275.615m5.051 1.705v-5.631h1.353l.035.639q.107-.117.258-.252.153-.135.363-.246a2.3 2.3 0 0 1 1.073-.258q1.054 0 1.605.633.557.627.557 1.693V568h-1.418v-3.41q0-.54-.293-.832-.293-.293-.762-.293-.287 0-.539.117-.252.111-.434.316a1.5 1.5 0 0 0-.287.475 1.7 1.7 0 0 0-.099.58V568zm6.345-2.713q0-.662.188-1.154.194-.498.48-.85a2.5 2.5 0 0 1 .528-.48q.292-.194.586-.317.292-.129.568-.181.276-.053.48-.053.276 0 .457.018.183.017.323.046.146.03.263.082l.276.106v-2.508h1.406V568h-1.371l-.035-.551a3 3 0 0 1-.264.252 2 2 0 0 1-.363.24 2.5 2.5 0 0 1-.469.176 2.242 2.242 0 0 1-1.482-.117 2.4 2.4 0 0 1-.797-.562 3 3 0 0 1-.563-.915 3.4 3.4 0 0 1-.211-1.236m1.424 0q0 .721.358 1.201.363.481 1.048.481.358 0 .61-.135.257-.141.41-.357.158-.217.228-.475t.071-.498v-1.729a1.16 1.16 0 0 0-.475-.234 3 3 0 0 0-.685-.064q-.423 0-.698.164a1.7 1.7 0 0 0-.48.421 1.9 1.9 0 0 0-.287.563q-.1.317-.1.662m7.817-3.633 2.22-1.213h1.237v6.323h1.248V568h-3.961v-1.236h1.295v-4.776l-1.448.768zm6.539 0 2.22-1.213h1.237v6.323h1.248V568h-3.961v-1.236h1.295v-4.776l-1.448.768zm5.988 6.539 3.193-8.414h1.365l-3.152 8.414zm5.35-6.58q.145-.24.357-.48.216-.246.527-.451.316-.205.733-.328.421-.129.961-.129.65 0 1.119.175.468.17.767.463.3.287.44.657.146.363.146.744 0 .41-.134.756-.13.345-.346.65a4 4 0 0 1-.492.562q-.275.264-.563.504-.345.288-.656.528a6 6 0 0 0-.533.468 2.3 2.3 0 0 0-.364.463q-.129.235-.129.522h3.264V568h-4.857v-.949q0-.516.17-.932.175-.422.451-.773a5 5 0 0 1 .615-.657q.334-.298.674-.591.334-.288.592-.487.258-.204.439-.392a1.4 1.4 0 0 0 .27-.375 1.08 1.08 0 0 0 .035-.768.7.7 0 0 0-.182-.293.9.9 0 0 0-.328-.211 1.3 1.3 0 0 0-.516-.088q-.274 0-.498.088a1.5 1.5 0 0 0-.398.217 1.8 1.8 0 0 0-.299.287 3 3 0 0 0-.211.293zm6.31 5.737.791-1.02q.322.287.697.457t.95.17q.386 0 .656-.111.269-.117.439-.317.175-.2.252-.451.082-.252.082-.527 0-.182-.07-.399a1.1 1.1 0 0 0-.234-.416 1.24 1.24 0 0 0-.463-.322 1.76 1.76 0 0 0-.733-.135q-.41 0-.65.082-.24.077-.445.147l-.721-.551.756-3.504h3.925v1.318h-2.906l-.299 1.454q.083-.035.287-.071.205-.04.493-.041.55 0 1.013.17.464.17.797.475.34.304.522.75.187.446.187.984 0 .528-.158 1.02a2.2 2.2 0 0 1-.51.873q-.351.375-.92.603-.569.23-1.382.229-.804 0-1.372-.24a3.5 3.5 0 0 1-.984-.627"/></svg>