<svg xmlns="http://www.w3.org/2000/svg" fill="none" viewBox="0 0 358 186"><rect width="358" height="174" fill="#fff" transform="translate(0 6)"/><g clip-path="url(#a)"><rect width="134" height="6" fill="#fff" transform="translate(198 180)"/><path fill="#ae0000" d="M251.278 180H198v6.016h53.278z"/><path fill="#0065b1" d="M257.384 180h-6.09v6.016h6.09z"/><path fill="#008f20" d="M331.971 180h-74.595v6.016h74.595z"/></g><g clip-path="url(#b)"><rect width="305" height="6" fill="#fff" transform="translate(27)"/><path fill="#ae0000" d="M251.065 0h-53.393v6.016h53.393z"/><path fill="#ff8600" d="M197.672 0h-82.425v6.016h82.425z"/><path fill="#0065b1" d="M257.185 0h-6.103v6.016h6.103z"/><path fill="#e90a0a" d="M106.096 0H26.793v6.016h79.303z"/><path fill="#008f20" d="M331.934 0h-74.758v6.016h74.758z"/><path fill="#26221e" d="M115.247 0h-9.151v6.016h9.151z"/></g><g clip-path="url(#c)"><path fill="#008f20" d="M148 105h-24.5v38H148z"/><path fill="#0065b1" d="M123.503 105h-2v38h2z"/><path fill="#ae0000" d="M121.498 105H104v38h17.498z"/><path fill="#ff8600" d="M103.998 105h-27.01v38h27.01z"/><path fill="#26221e" d="M76.99 105h-3v38h3z"/><path fill="#e90a0a" d="M73.99 105H48v38h25.99z"/><g fill="#fff"><path d="M79.058 124.987v6.866h-3.432v-6.333c0-1.94-.858-2.831-2.243-2.831-1.541 0-2.618 1.002-2.618 3.143v6.024h-3.433v-6.333c0-1.94-.814-2.831-2.244-2.831-1.524 0-2.591 1.002-2.591 3.143v6.025H59.06v-9.324h-1.32v-2.676h4.07l.175 1.854c.858-1.319 2.333-2.039 4.07-2.039 1.651 0 3.058.647 3.895 1.962.945-1.225 2.485-1.962 4.269-1.962 2.817 0 4.84 1.65 4.84 5.306"/><path d="M95.47 127.596c0 2.697-2.112 4.257-6.159 4.257h-7.569v-12.666h-1.628v-2.938h8.756c3.85 0 5.83 1.626 5.83 4.058a3.8 3.8 0 0 1-.532 2.016 3.7 3.7 0 0 1-1.514 1.416c1.716.558 2.816 1.895 2.816 3.862zm-10.186-8.627v3.678h3.146c1.738 0 2.684-.618 2.684-1.854s-.946-1.827-2.684-1.827zm6.579 8.247c0-1.314-.968-1.939-2.817-1.939h-3.763v3.862h3.763c1.849 0 2.817-.581 2.817-1.918"/><path d="M109.418 119.86v11.993h-3.278v-1.39c-.858 1.049-2.113 1.562-3.696 1.562-3.343 0-5.918-2.408-5.918-6.179s2.575-6.179 5.918-6.179c1.452 0 2.684.463 3.542 1.449v-1.256zm-3.366 5.994c0-2.073-1.32-3.321-3.014-3.321s-3.036 1.248-3.036 3.321 1.32 3.321 3.036 3.321c1.717 0 3.014-1.248 3.014-3.321"/><path d="M124.466 124.987v6.866h-3.432v-6.333c0-1.94-.88-2.831-2.398-2.831-1.65 0-2.839 1.025-2.839 3.231v5.93h-3.431v-9.314h-1.32v-2.676h4.07l.175 1.872c.903-1.337 2.439-2.051 4.268-2.051 2.795 0 4.907 1.65 4.907 5.306"/><path d="M138.942 131.853h-3.895l-3.343-5.193h-1.585v5.193h-3.431v-16.54h3.431v8.693h1.585l3.168-4.146h3.828l-4.026 5.261z"/></g></g><g fill="#000"><path d="M158.912 81.728c0 .192-.032.464-.048.672h-6.512c.24 1.072 1.152 1.728 2.464 1.728.912 0 1.568-.272 2.16-.832l1.328 1.44c-.8.912-2 1.392-3.552 1.392-2.976 0-4.912-1.872-4.912-4.432 0-2.576 1.968-4.432 4.592-4.432 2.528 0 4.48 1.696 4.48 4.464m-4.464-2.576c-1.136 0-1.952.688-2.128 1.792h4.24c-.176-1.088-.992-1.792-2.112-1.792"/><path d="M145.672 77.392h2.496V86H145.8v-1.024c-.656.752-1.616 1.152-2.672 1.152-2.16 0-3.68-1.216-3.68-3.872v-4.864h2.496v4.496c0 1.44.64 2.08 1.744 2.08 1.152 0 1.984-.736 1.984-2.32z"/><path d="M134.203 86.128c-2.8 0-4.8-1.84-4.8-4.432s2-4.432 4.8-4.432c1.808 0 3.232.784 3.856 2.192l-1.936 1.04c-.464-.816-1.152-1.184-1.936-1.184-1.264 0-2.256.88-2.256 2.384s.992 2.384 2.256 2.384c.784 0 1.472-.352 1.936-1.184l1.936 1.056c-.624 1.376-2.048 2.176-3.856 2.176"/><path d="M124.439 86.128c-1.456 0-2.928-.4-3.728-.928l.832-1.792c.768.496 1.936.832 2.992.832 1.152 0 1.584-.304 1.584-.784 0-1.408-5.2.032-5.2-3.408 0-1.632 1.472-2.784 3.984-2.784 1.184 0 2.496.272 3.312.752l-.832 1.776a4.94 4.94 0 0 0-2.48-.64c-1.12 0-1.6.352-1.6.8 0 1.472 5.2.048 5.2 3.44 0 1.6-1.488 2.736-4.064 2.736"/><path d="M119.881 81.728c0 .192-.032.464-.048.672h-6.512c.24 1.072 1.152 1.728 2.464 1.728.912 0 1.568-.272 2.16-.832l1.328 1.44c-.8.912-2 1.392-3.552 1.392-2.976 0-4.912-1.872-4.912-4.432 0-2.576 1.968-4.432 4.592-4.432 2.528 0 4.48 1.696 4.48 4.464m-4.464-2.576c-1.136 0-1.952.688-2.128 1.792h4.24c-.176-1.088-.992-1.792-2.112-1.792"/><path d="M109.779 86h-2.784l-2.16-3.12h-2.384V86h-2.592v-9.088h-1.216V74.8h6.064c2.992 0 4.864 1.552 4.864 4.064 0 1.68-.848 2.912-2.304 3.536zm-2.832-7.136c0-1.232-.8-1.952-2.384-1.952h-2.112v3.904h2.112c1.584 0 2.384-.736 2.384-1.952"/><path d="M95.207 78.848c.576-1.04 1.728-1.584 3.216-1.584v2.416c-.208-.016-.368-.032-.544-.032-1.392 0-2.304.704-2.304 2.288V86h-2.496v-6.688h-.96v-1.92h2.96z"/><path d="M91.209 81.728c0 .192-.032.464-.048.672h-6.512c.24 1.072 1.152 1.728 2.464 1.728.912 0 1.568-.272 2.16-.832l1.328 1.44c-.8.912-2 1.392-3.552 1.392-2.976 0-4.912-1.872-4.912-4.432 0-2.576 1.968-4.432 4.592-4.432 2.528 0 4.48 1.696 4.48 4.464m-4.464-2.576c-1.136 0-1.952.688-2.128 1.792h4.24c-.176-1.088-.992-1.792-2.112-1.792"/><path d="M76.818 77.264c2.416 0 4.288 1.728 4.288 4.432s-1.872 4.432-4.288 4.432c-1.152 0-2.08-.368-2.704-1.12V86H71.73V74.128h2.496v4.176c.64-.704 1.52-1.04 2.592-1.04m-.432 6.816c1.248 0 2.192-.896 2.192-2.384s-.944-2.384-2.192-2.384-2.192.896-2.192 2.384.944 2.384 2.192 2.384"/><path d="M66.908 77.392h2.496v7.168c0 3.2-1.68 4.672-4.688 4.672-1.584 0-3.12-.4-4.096-1.184l.992-1.792c.704.592 1.824.96 2.912.96 1.664 0 2.384-.784 2.384-2.336v-.288c-.656.656-1.552.992-2.544.992-2.16 0-3.68-1.2-3.68-3.872v-4.32h2.496v3.952c0 1.456.64 2.096 1.744 2.096 1.152 0 1.984-.736 1.984-2.32z"/><path d="M54.688 86.192c-3.472 0-6.064-2.416-6.064-5.792s2.592-5.792 6.08-5.792c1.936 0 3.552.704 4.608 1.984l-1.664 1.536c-.752-.864-1.696-1.312-2.816-1.312-2.096 0-3.584 1.472-3.584 3.584s1.488 3.584 3.584 3.584c1.12 0 2.064-.448 2.816-1.328l1.664 1.536c-1.056 1.296-2.672 2-4.624 2"/><path d="M238.002 57.392h2.208L237.09 66h-2.4l-1.936-5.344-2 5.344h-2.4l-3.104-8.608h2.352l2.032 5.824 2.112-5.824h2.112l2.048 5.824z"/><path d="m218.744 56.288 2.16-2.304h2.688l-2.896 2.304zm1.488 9.84c-2.736 0-4.736-1.84-4.736-4.432s2-4.432 4.736-4.432 4.72 1.84 4.72 4.432-1.984 4.432-4.72 4.432m0-2.048c1.248 0 2.192-.896 2.192-2.384s-.944-2.384-2.192-2.384-2.208.896-2.208 2.384.96 2.384 2.208 2.384"/><path d="m214.336 63.824.656 1.76c-.512.368-1.264.544-2.016.544-2.048 0-3.216-1.04-3.216-3.088v-7.552h2.496v1.904h2.128v1.904h-2.128v3.712c0 .736.384 1.136 1.056 1.136.368 0 .736-.112 1.024-.32"/><path d="M204.204 66.128c-1.456 0-2.928-.4-3.728-.928l.832-1.792c.768.496 1.936.832 2.992.832 1.152 0 1.584-.304 1.584-.784 0-1.408-5.2.032-5.2-3.408 0-1.632 1.472-2.784 3.984-2.784 1.184 0 2.496.272 3.312.752l-.832 1.776a4.94 4.94 0 0 0-2.48-.64c-1.12 0-1.6.352-1.6.8 0 1.472 5.2.048 5.2 3.44 0 1.6-1.488 2.736-4.064 2.736"/><path d="M197.744 56.192c-.928 0-1.552-.608-1.552-1.392s.624-1.392 1.552-1.392 1.552.576 1.552 1.344c0 .832-.624 1.44-1.552 1.44M196.496 66v-8.608h2.496V66z"/><path d="M191.683 66V54.128h2.496V66z"/><path d="M186.939 57.392h2.496V66h-2.384v-.992c-.624.752-1.536 1.12-2.688 1.12-2.432 0-4.304-1.728-4.304-4.432s1.872-4.432 4.304-4.432c1.056 0 1.952.336 2.576 1.04zm-2.144 6.688c1.232 0 2.192-.896 2.192-2.384s-.96-2.384-2.192-2.384c-1.248 0-2.208.896-2.208 2.384s.96 2.384 2.208 2.384"/><path d="M177.201 56.192c-.928 0-1.552-.608-1.552-1.392s.624-1.392 1.552-1.392 1.552.576 1.552 1.344c0 .832-.624 1.44-1.552 1.44m-1.712 13.04c-.688 0-1.296-.144-1.792-.48l.672-1.808c.256.192.512.304.848.304.432 0 .736-.304.736-.928v-8.928h2.496v8.784c0 1.888-1.072 3.056-2.96 3.056"/><path d="M170.499 66.128c-2.8 0-4.8-1.84-4.8-4.432s2-4.432 4.8-4.432c1.808 0 3.232.784 3.856 2.192l-1.936 1.04c-.464-.816-1.152-1.184-1.936-1.184-1.264 0-2.256.88-2.256 2.384s.992 2.384 2.256 2.384c.784 0 1.472-.352 1.936-1.184l1.936 1.056c-.624 1.376-2.048 2.176-3.856 2.176"/><path d="M164.678 61.728c0 .192-.032.464-.048.672h-6.512c.24 1.072 1.152 1.728 2.464 1.728.912 0 1.568-.272 2.16-.832l1.328 1.44c-.8.912-2 1.392-3.552 1.392-2.976 0-4.912-1.872-4.912-4.432 0-2.576 1.968-4.432 4.592-4.432 2.528 0 4.48 1.696 4.48 4.464m-4.464-2.576c-1.136 0-1.952.688-2.128 1.792h4.24c-.176-1.088-.992-1.792-2.112-1.792"/><path d="M150.292 57.264c2.416 0 4.288 1.728 4.288 4.432s-1.872 4.432-4.288 4.432c-1.072 0-1.952-.336-2.592-1.04v4.016h-2.496v-9.792h-.96v-1.92h2.96l.16 1.296c.624-.96 1.632-1.424 2.928-1.424m-.432 6.816c1.248 0 2.192-.896 2.192-2.384s-.944-2.384-2.192-2.384-2.192.896-2.192 2.384.944 2.384 2.192 2.384"/><path d="M139.392 66.128c-1.456 0-2.928-.4-3.728-.928l.832-1.792c.768.496 1.936.832 2.992.832 1.152 0 1.584-.304 1.584-.784 0-1.408-5.2.032-5.2-3.408 0-1.632 1.472-2.784 3.984-2.784 1.184 0 2.496.272 3.312.752l-.832 1.776a4.94 4.94 0 0 0-2.48-.64c-1.12 0-1.6.352-1.6.8 0 1.472 5.2.048 5.2 3.44 0 1.6-1.488 2.736-4.064 2.736"/><path d="m129.732 68.208.352 1.136c-.384.208-1.008.368-1.616.368-1.392 0-2.208-.72-2.208-1.792 0-.704.368-1.36 1.168-1.92h-.096v-.992c-.624.752-1.536 1.12-2.688 1.12-2.432 0-4.304-1.728-4.304-4.432s1.872-4.432 4.304-4.432c1.056 0 1.952.336 2.576 1.04v-.912h2.496V66c-1.376.608-1.872 1.12-1.872 1.712 0 .448.352.736.912.736.352 0 .72-.096.976-.24m-4.656-4.128c1.232 0 2.192-.896 2.192-2.384s-.96-2.384-2.192-2.384c-1.248 0-2.208.896-2.208 2.384s.96 2.384 2.208 2.384"/><path d="M115.796 66.128c-2.8 0-4.8-1.84-4.8-4.432s2-4.432 4.8-4.432c1.808 0 3.232.784 3.856 2.192l-1.936 1.04c-.464-.816-1.152-1.184-1.936-1.184-1.264 0-2.256.88-2.256 2.384s.992 2.384 2.256 2.384c.784 0 1.472-.352 1.936-1.184l1.936 1.056c-.624 1.376-2.048 2.176-3.856 2.176"/><path d="M105.248 66.128c-2.736 0-4.736-1.84-4.736-4.432s2-4.432 4.736-4.432 4.72 1.84 4.72 4.432-1.984 4.432-4.72 4.432m0-2.048c1.248 0 2.192-.896 2.192-2.384s-.944-2.384-2.192-2.384-2.208.896-2.208 2.384.96 2.384 2.208 2.384"/><path d="M95.337 57.264c2.048 0 3.52 1.184 3.52 3.808V66h-2.496v-4.544c0-1.392-.624-2.032-1.632-2.032-1.12 0-1.904.72-1.904 2.256V66H90.33v-4.544c0-1.392-.592-2.032-1.632-2.032-1.104 0-1.888.72-1.888 2.256V66h-2.496v-6.688h-.96v-1.92h2.96l.128 1.328c.624-.944 1.696-1.456 2.96-1.456 1.2 0 2.224.464 2.832 1.408.688-.88 1.808-1.408 3.104-1.408"/><path d="M77.717 66.128c-2.736 0-4.736-1.84-4.736-4.432s2-4.432 4.736-4.432 4.72 1.84 4.72 4.432-1.984 4.432-4.72 4.432m0-2.048c1.248 0 2.192-.896 2.192-2.384s-.944-2.384-2.192-2.384-2.208.896-2.208 2.384.96 2.384 2.208 2.384"/><path d="M67.667 57.264c2.416 0 4.288 1.728 4.288 4.432s-1.872 4.432-4.288 4.432c-1.072 0-1.952-.336-2.592-1.04v4.016h-2.496v-9.792h-.96v-1.92h2.96l.16 1.296c.624-.96 1.632-1.424 2.928-1.424m-.432 6.816c1.248 0 2.192-.896 2.192-2.384s-.944-2.384-2.192-2.384-2.192.896-2.192 2.384.944 2.384 2.192 2.384"/><path d="M51.712 64.08h4.528V66h-7.68v-1.504l4.384-5.184h-4.272v-1.92h7.424v1.504z"/><path d="M277.018 37.584h1.136v7.392c0 2.896-1.328 4.208-3.92 4.208-1.44 0-2.865-.464-3.681-1.296l.577-.864c.72.72 1.823 1.152 3.039 1.152 1.952 0 2.849-.976 2.849-3.056v-.976c-.592.976-1.664 1.536-2.976 1.536-2.16 0-3.552-1.2-3.552-3.616v-4.48h1.136v4.368c0 1.792.928 2.704 2.528 2.704 1.76 0 2.864-1.136 2.864-3.056z"/><path d="m268.062 44.672.4.816c-.432.4-1.104.592-1.76.592-1.584 0-2.464-.896-2.464-2.448v-7.888h1.136v1.84h2.544v.96h-2.544v5.024c0 .992.496 1.536 1.44 1.536.48 0 .928-.144 1.248-.432"/><path d="M259.238 39.376c.496-1.2 1.648-1.856 3.264-1.856v1.152c-.096 0-.192-.016-.272-.016-1.76 0-2.832 1.072-2.832 3.056V46h-1.136v-7.456h-1.184v-.96h2.08z"/><path d="M255.709 41.792c0 .096-.016.224-.016.352h-7.04c.128 1.76 1.472 2.928 3.312 2.928 1.024 0 1.936-.368 2.576-1.104l.64.736c-.752.896-1.92 1.376-3.248 1.376-2.624 0-4.416-1.792-4.416-4.288s1.744-4.272 4.112-4.272 4.08 1.744 4.08 4.272m-4.08-3.296c-1.632 0-2.832 1.152-2.976 2.8h5.968c-.144-1.648-1.344-2.8-2.992-2.8"/><path d="M245.868 35.008c-.976 0-1.488.544-1.488 1.584v.992h2.592v.96h-2.56V46h-1.136v-7.456h-1.504v-.96h1.504v-1.04c0-1.504.896-2.496 2.544-2.496.624 0 1.264.176 1.68.528l-.384.848c-.32-.272-.768-.416-1.248-.416"/><path d="M236.493 46.08c-2.464 0-4.288-1.792-4.288-4.288s1.824-4.272 4.288-4.272 4.272 1.776 4.272 4.272-1.808 4.288-4.272 4.288m0-1.008c1.792 0 3.12-1.312 3.12-3.28s-1.328-3.28-3.12-3.28-3.136 1.312-3.136 3.28 1.344 3.28 3.136 3.28"/><path d="M226.553 41.792c0 .096-.016.224-.016.352h-7.04c.128 1.76 1.472 2.928 3.312 2.928 1.024 0 1.936-.368 2.576-1.104l.64.736c-.752.896-1.92 1.376-3.248 1.376-2.624 0-4.416-1.792-4.416-4.288s1.744-4.272 4.112-4.272 4.08 1.744 4.08 4.272m-4.08-3.296c-1.632 0-2.832 1.152-2.976 2.8h5.968c-.144-1.648-1.344-2.8-2.992-2.8"/><path d="M212.659 37.52c2.048 0 3.456 1.184 3.456 3.6V46h-1.136v-4.768c0-1.776-.928-2.688-2.528-2.688-1.808 0-2.944 1.12-2.944 3.04V46h-1.136v-7.456h-1.184v-.96h2.08l.08 1.76c.56-1.152 1.744-1.824 3.312-1.824"/><path d="M203.909 37.584h1.136V46h-1.088v-1.664c-.688 1.136-1.856 1.744-3.248 1.744-2.4 0-4.192-1.744-4.192-4.288s1.792-4.272 4.192-4.272c1.344 0 2.496.576 3.2 1.664zm-3.104 7.488c1.776 0 3.12-1.312 3.12-3.28s-1.344-3.28-3.12-3.28c-1.792 0-3.136 1.312-3.136 3.28s1.344 3.28 3.136 3.28"/><path d="M189.878 45.056h5.392V46h-6.848v-.752l5.296-6.704h-5.2v-.96h6.656v.752z"/><path d="M184.128 39.376c.496-1.2 1.648-1.856 3.264-1.856v1.152c-.096 0-.192-.016-.272-.016-1.76 0-2.832 1.072-2.832 3.056V46h-1.136v-7.456h-1.184v-.96h2.08z"/><path d="M179.258 35.744a.823.823 0 0 1-.832-.816c0-.432.368-.8.832-.8s.831.352.831.784a.816.816 0 0 1-.831.832m-1.617 13.44c-.624 0-1.12-.176-1.536-.544l.4-.864c.32.288.608.432 1.056.432.656 0 1.136-.448 1.136-1.408v-9.216h1.136v9.232c0 1.456-.864 2.368-2.192 2.368"/><path d="M176.209 41.792c0 .096-.016.224-.016.352h-7.04c.128 1.76 1.472 2.928 3.312 2.928 1.024 0 1.936-.368 2.576-1.104l.64.736c-.752.896-1.92 1.376-3.248 1.376-2.624 0-4.416-1.792-4.416-4.288s1.744-4.272 4.112-4.272 4.08 1.744 4.08 4.272m-4.08-3.296c-1.632 0-2.832 1.152-2.976 2.8h5.968c-.144-1.648-1.344-2.8-2.992-2.8"/><path d="M164.565 34.128h1.136V46h-1.088v-1.664c-.688 1.136-1.856 1.744-3.248 1.744-2.4 0-4.192-1.744-4.192-4.288s1.792-4.272 4.192-4.272c1.344 0 2.496.576 3.2 1.664zm-3.104 10.944c1.776 0 3.12-1.312 3.12-3.28s-1.344-3.28-3.12-3.28c-1.792 0-3.136 1.312-3.136 3.28s1.344 3.28 3.136 3.28"/><path d="M151.43 46.08c-2.464 0-4.288-1.792-4.288-4.288s1.824-4.272 4.288-4.272 4.272 1.776 4.272 4.272-1.808 4.288-4.272 4.288m0-1.008c1.792 0 3.12-1.312 3.12-3.28s-1.328-3.28-3.12-3.28-3.136 1.312-3.136 3.28 1.344 3.28 3.136 3.28"/><path d="M141.473 37.52c2.4 0 4.191 1.728 4.191 4.272 0 2.56-1.791 4.288-4.191 4.288-1.344 0-2.497-.576-3.201-1.664v4.688h-1.136v-10.56h-1.184v-.96h2.081l.063 1.888c.672-1.264 1.905-1.952 3.377-1.952m-.08 7.552c1.776 0 3.136-1.312 3.136-3.28 0-1.952-1.36-3.28-3.136-3.28-1.792 0-3.136 1.328-3.136 3.28 0 1.968 1.344 3.28 3.136 3.28"/><path d="M129.054 35.744a.823.823 0 0 1-.832-.816c0-.432.368-.8.832-.8s.832.352.832.784a.816.816 0 0 1-.832.832m-1.616 13.44c-.624 0-1.12-.176-1.536-.544l.4-.864c.32.288.608.432 1.056.432.656 0 1.136-.448 1.136-1.408v-9.216h1.136v9.232c0 1.456-.864 2.368-2.192 2.368"/><path d="M124.097 37.584h1.136V46h-1.088v-1.664c-.688 1.136-1.856 1.744-3.248 1.744-2.4 0-4.192-1.744-4.192-4.288s1.792-4.272 4.192-4.272c1.344 0 2.496.576 3.2 1.664zm-3.104 7.488c1.776 0 3.12-1.312 3.12-3.28s-1.344-3.28-3.12-3.28c-1.792 0-3.136 1.312-3.136 3.28s1.344 3.28 3.136 3.28"/><path d="M110.065 45.056h5.393V46h-6.849v-.752l5.296-6.704h-5.2v-.96h6.656v.752z"/><path d="M105.222 34.128h1.136V46h-1.088v-1.664c-.688 1.136-1.856 1.744-3.248 1.744-2.4 0-4.192-1.744-4.192-4.288s1.792-4.272 4.192-4.272c1.344 0 2.496.576 3.2 1.664zm-3.104 10.944c1.776 0 3.12-1.312 3.12-3.28s-1.344-3.28-3.12-3.28c-1.792 0-3.136 1.312-3.136 3.28s1.344 3.28 3.136 3.28"/><path d="M96.802 37.584h1.04L94.658 46h-1.072l-2.656-6.896L88.274 46h-1.072l-3.168-8.416h1.088l2.64 7.152 2.704-7.152h.976l2.688 7.152z"/><path d="M81.269 37.584h1.136V46h-1.088v-1.664c-.688 1.136-1.856 1.744-3.248 1.744-2.4 0-4.192-1.744-4.192-4.288s1.792-4.272 4.192-4.272c1.344 0 2.496.576 3.2 1.664zm-3.104 7.488c1.776 0 3.12-1.312 3.12-3.28s-1.344-3.28-3.12-3.28c-1.792 0-3.136 1.312-3.136 3.28s1.344 3.28 3.136 3.28"/><path d="M69.722 39.376c.496-1.2 1.648-1.856 3.264-1.856v1.152c-.096 0-.192-.016-.272-.016-1.76 0-2.832 1.072-2.832 3.056V46h-1.136v-7.456h-1.184v-.96h2.08z"/><path d="M61.988 37.52c2.4 0 4.192 1.728 4.192 4.272 0 2.56-1.792 4.288-4.192 4.288-1.344 0-2.496-.576-3.2-1.664v4.688h-1.136v-10.56h-1.184v-.96h2.08l.064 1.888c.672-1.264 1.904-1.952 3.376-1.952m-.08 7.552c1.776 0 3.136-1.312 3.136-3.28 0-1.952-1.36-3.28-3.136-3.28-1.792 0-3.136 1.328-3.136 3.28 0 1.968 1.344 3.28 3.136 3.28"/><path d="M51.84 46.08c-1.392 0-2.736-.448-3.424-1.04l.512-.896c.672.528 1.808.944 2.992.944 1.6 0 2.256-.544 2.256-1.376 0-2.192-5.456-.464-5.456-3.792 0-1.376 1.184-2.4 3.328-2.4 1.088 0 2.272.304 2.976.784l-.496.912c-.736-.512-1.616-.72-2.48-.72-1.52 0-2.192.592-2.192 1.392 0 2.272 5.456.56 5.456 3.792 0 1.456-1.28 2.4-3.472 2.4"/></g><defs><clipPath id="a"><rect width="134" height="6" fill="#fff" transform="translate(198 180)"/></clipPath><clipPath id="b"><rect width="305" height="6" fill="#fff" transform="translate(27)"/></clipPath><clipPath id="c"><rect width="100" height="38" fill="#fff" transform="translate(48 105)"/></clipPath></defs></svg>