<svg xmlns="http://www.w3.org/2000/svg" fill="none" viewBox="0 0 135 47"><path fill="#fff" d="m1.563 3.568-.531-2.44c.7-.484 2.054-.943 3.6-.943 3.094 0 4.544 1.885 4.544 4.012 0 1.667-1.112 3.286-2.755 3.697v.049c1.909.386 3.238 1.836 3.238 4.084 0 3.117-2.658 4.833-5.582 4.833-1.354 0-2.538-.314-3.287-.725l.46-2.586c.7.411 1.618.653 2.513.653 1.691 0 2.585-.967 2.585-2.272 0-1.812-1.498-2.537-3.214-2.537h-.459V7h.314c1.45 0 2.9-.7 2.9-2.2 0-1.135-.7-1.908-2.054-1.908-.75 0-1.643.314-2.272.676m15.525 9.377h-2.924l-.725 3.722h-3.07L13.898.378h3.794l3.166 16.289h-3.07zm-2.61-2.465h2.32l-.532-3.407c-.17-.991-.387-2.61-.532-3.698h-.072c-.17 1.088-.41 2.78-.58 3.722zM22.646.378h8.314v2.707h-5.172v3.408a5.8 5.8 0 0 1 1.28-.121c1.402 0 2.635.435 3.53 1.208.966.846 1.546 2.127 1.546 3.77 0 1.57-.483 2.828-1.353 3.698-1.112 1.184-2.852 1.74-5.196 1.74-1.209 0-2.224-.073-2.949-.17zm3.166 8.604v5.22c.218.048.435.048.701.048.75 0 1.353-.29 1.74-.773.41-.484.604-1.16.604-1.885 0-.75-.217-1.426-.628-1.885a2.18 2.18 0 0 0-1.692-.798q-.399 0-.725.073M38.684.185c3.939 0 5.05 4.326 5.05 8.048 0 6.138-2.175 8.627-5.268 8.627-3.697 0-5.148-3.915-5.148-8.386 0-4.446 1.765-8.289 5.366-8.289m-.121 2.755c-1.257 0-1.958 2.078-1.958 5.583 0 3.697.701 5.582 1.982 5.582 1.329 0 1.836-2.417 1.836-5.727 0-2.852-.434-5.438-1.86-5.438m8.622 13.727V3.303h-2.876V.378h8.942v2.925h-2.9v13.364zm12.147-3.722h-2.924l-.725 3.722h-3.07L56.144.378h3.793l3.166 16.289h-3.069zm-2.61-2.465h2.32l-.531-3.407c-.17-.991-.387-2.61-.532-3.698h-.073c-.169 1.088-.41 2.78-.58 3.722zM6.47 29.185c3.94 0 5.051 4.326 5.051 8.048 0 6.138-2.175 8.627-5.268 8.627-3.698 0-5.148-3.915-5.148-8.386 0-4.446 1.764-8.289 5.365-8.289m-.12 2.755c-1.257 0-1.958 2.078-1.958 5.583 0 3.697.7 5.582 1.981 5.582 1.33 0 1.837-2.417 1.837-5.727 0-2.852-.435-5.438-1.86-5.438M27.63 45.667l-.29-5.704c-.072-1.546-.193-3.649-.145-5.389h-.072a71 71 0 0 1-1.04 5.003L24.682 45.4h-2.248l-1.353-5.728c-.314-1.305-.75-3.335-.99-5.099h-.073a180 180 0 0 1-.242 5.438l-.266 5.655h-2.73l1.183-16.289h3.335l1.305 5.897c.46 2.054.87 3.867 1.16 5.703h.049c.241-1.812.604-3.649 1.039-5.703l1.28-5.897h3.336l.99 16.289zm5.14-16.289h2.804v3.601c0 2.997-.193 5.8-.314 7.492h.048c.46-1.402 1.281-3.528 1.764-4.785l2.393-6.308h2.876v16.289h-2.78v-3.674c0-3.262.121-5.679.194-7.322h-.048c-.363 1.474-1.088 3.432-1.62 4.785l-2.392 6.21h-2.924zm12.39 0h3.094v7.081h.242l2.658-7.08h3.48l-3.746 7.54c1.668.628 2.224 2.15 2.683 4.132.362 1.57.628 3.117 1.112 4.616h-3.166c-.387-1.16-.629-2.49-.894-3.77-.387-1.91-.822-3.142-2.127-3.142h-.242v6.912h-3.093zm10.975 16.289V29.62c.894-.193 2.103-.314 3.31-.314 1.886 0 3.36.266 4.423 1.256.967.846 1.402 2.2 1.402 3.577 0 1.764-.532 2.997-1.377 3.915-1.015 1.063-2.659 1.547-3.964 1.547h-.628v6.066zm3.166-13.679v5.027c.145.048.314.048.507.048 1.595 0 2.32-1.136 2.32-2.658 0-1.426-.58-2.538-2.054-2.538-.29 0-.58.049-.773.121m12.447-2.803c3.939 0 5.05 4.326 5.05 8.048 0 6.138-2.175 8.627-5.268 8.627-3.698 0-5.148-3.915-5.148-8.386 0-4.446 1.765-8.289 5.365-8.289m-.121 2.755c-1.257 0-1.958 2.078-1.958 5.583 0 3.697.701 5.582 1.982 5.582 1.329 0 1.837-2.417 1.837-5.727 0-2.852-.436-5.438-1.861-5.438m11.562-3.142h2.78v1.233c2.923.387 5.147 2.682 5.147 7.37 0 5.003-2.248 7.106-5.148 7.516v1.33h-2.803v-1.33c-2.948-.434-5.148-2.513-5.148-7.443 0-4.785 2.635-7.056 5.172-7.443zm0 13.8V32.326c-.967.29-2.006 1.595-2.006 5.196 0 3.359 1.015 4.857 2.006 5.074m2.755-10.271v10.27c1.063-.217 2.006-1.522 2.006-5.171 0-3.698-1.088-4.882-2.006-5.1m7.636-2.949h8.482v16.289h-3.165V32.133H96.48v4.302c0 3.746-.242 7.032-2.296 8.627-.604.484-1.377.798-2.175.798l-.677-2.682c.387-.097.798-.29 1.088-.58.942-.967 1.16-2.707 1.16-5.873zm15.857-.193c3.939 0 5.051 4.326 5.051 8.048 0 6.138-2.175 8.627-5.268 8.627-3.698 0-5.148-3.915-5.148-8.386 0-4.446 1.764-8.289 5.365-8.289m-.121 2.755c-1.256 0-1.957 2.078-1.957 5.583 0 3.697.701 5.582 1.981 5.582 1.33 0 1.837-2.417 1.837-5.727 0-2.852-.435-5.438-1.861-5.438m7.189 13.727V29.62c.894-.193 2.102-.314 3.31-.314 1.885 0 3.36.266 4.423 1.256.967.846 1.402 2.2 1.402 3.577 0 1.764-.532 2.997-1.378 3.915-1.015 1.063-2.658 1.547-3.963 1.547h-.629v6.066zm3.165-13.679v5.027c.145.048.315.048.508.048 1.595 0 2.32-1.136 2.32-2.658 0-1.426-.58-2.538-2.054-2.538-.29 0-.58.049-.774.121m14.767 3.891v2.634h-3.722v4.399h4.205v2.755h-7.371V29.378h7.081v2.755h-3.915v3.746z"/></svg>