<svg xmlns="http://www.w3.org/2000/svg" fill="none" viewBox="0 0 91 17"><rect width="90.2" height="16.8" fill="#f3141d" rx="8.4"/><path fill="#fff" d="M16.874 5.83h1.3l1.584 2.849 1.547-2.849h1.31l.283 6.07h-1.374l-.173-3.968-1.256 2.366h-.71L18.056 7.96l-.154 3.94h-1.31zM27.9 11.436q-.073.045-.219.155a2 2 0 0 1-.382.2 3 3 0 0 1-.546.173 3 3 0 0 1-.728.082q-.546 0-.983-.164a2.2 2.2 0 0 1-.746-.473q-.3-.3-.464-.72a2.7 2.7 0 0 1-.155-.937q0-.446.146-.855.155-.419.437-.728.282-.31.691-.491a2.2 2.2 0 0 1 .928-.191q.52 0 .91.182.392.18.656.51.272.318.41.773.136.445.136.982v.219h-3.04q.009.346.3.61.3.255.82.254.51 0 .828-.145a3 3 0 0 0 .464-.264zm-1.147-2.12a.7.7 0 0 0-.055-.273.8.8 0 0 0-.436-.455.9.9 0 0 0-.392-.082.9.9 0 0 0-.4.082.9.9 0 0 0-.291.19 1 1 0 0 0-.173.265.7.7 0 0 0-.055.273zM28.74 5.83h1.302v2.212q.21-.246.555-.373.346-.137.7-.137.738 0 1.174.437.446.437.446 1.292V11.9h-1.301V9.461q0-.373-.191-.582a.66.66 0 0 0-.51-.21.8.8 0 0 0-.373.082.8.8 0 0 0-.273.2.85.85 0 0 0-.164.3q-.054.165-.054.356V11.9h-1.31zm5.137 1.802h1.256l.045.537a2 2 0 0 1 .446-.419q.291-.2.746-.2.173 0 .291.018.128.02.246.064l-.21 1.156a1.6 1.6 0 0 0-.472-.064q-.464 0-.756.282-.282.273-.282.783V11.9h-1.31zm9.248 3.804q-.074.045-.219.155a2 2 0 0 1-.382.2 3 3 0 0 1-.546.173 3 3 0 0 1-.728.082q-.546 0-.983-.164a2.2 2.2 0 0 1-.746-.473q-.3-.3-.464-.72a2.7 2.7 0 0 1-.155-.937q0-.446.146-.855.155-.419.437-.728.282-.31.691-.491a2.2 2.2 0 0 1 .928-.191q.52 0 .91.182.392.18.656.51.273.318.41.773.136.445.136.982v.219h-3.04q.009.346.3.61.3.255.82.254.51 0 .828-.145a3 3 0 0 0 .464-.264zm-1.147-2.12a.7.7 0 0 0-.055-.273.8.8 0 0 0-.436-.455.9.9 0 0 0-.392-.082.9.9 0 0 0-.4.082.9.9 0 0 0-.291.19 1 1 0 0 0-.173.265.7.7 0 0 0-.055.273zm1.985-1.684h1.256l.046.537q.163-.219.445-.419.292-.2.747-.2.173 0 .29.018.129.02.247.064l-.21 1.156a1.6 1.6 0 0 0-.473-.064q-.465 0-.755.282-.282.273-.282.783V11.9h-1.31zm3.954 1.028h-.692V7.632h.692v-.218q0-.455.145-.783.156-.327.4-.537.247-.218.556-.318a2 2 0 0 1 .646-.11q.345 0 .7.1.356.101.647.346-.136.21-.282.419-.137.2-.273.41a1.1 1.1 0 0 0-.637-.21.57.57 0 0 0-.437.173q-.165.173-.164.492v.236h1.01V8.66h-1.01v3.24h-1.301zm5.293 2.84q-.218.255-.555.39a1.99 1.99 0 0 1-1.22.073 1.5 1.5 0 0 1-.464-.209 1.3 1.3 0 0 1-.354-.41 1.34 1.34 0 0 1-.137-.636q0-.373.146-.664.154-.292.418-.483.264-.2.62-.3.363-.1.782-.1.227 0 .455.009.235.009.31.027v-.09q0-.164-.074-.274a.5.5 0 0 0-.182-.19.6.6 0 0 0-.255-.11 1.3 1.3 0 0 0-.309-.036q-.437 0-.728.109a2.4 2.4 0 0 0-.482.246l-.537-.801q.136-.1.31-.2.172-.1.409-.182.237-.083.528-.128.3-.054.682-.054.974 0 1.438.527.464.519.464 1.402V11.9h-1.228zm0-1.484a2 2 0 0 0-.173-.018 2 2 0 0 0-.291-.018q-.546 0-.773.155a.5.5 0 0 0-.228.436q0 .528.637.528a.848.848 0 0 0 .564-.191.666.666 0 0 0 .264-.546zm2.208-4.186h1.301v2.212q.21-.246.556-.373.346-.137.7-.137.738 0 1.174.437.446.437.446 1.292V11.9h-1.301V9.461q0-.373-.191-.582a.66.66 0 0 0-.51-.21.8.8 0 0 0-.373.082.8.8 0 0 0-.273.2.85.85 0 0 0-.164.3q-.054.165-.054.356V11.9h-1.31zm5.137 1.802h1.256l.045.537q.165-.219.446-.419.291-.2.746-.2.173 0 .291.018.127.02.246.064l-.21 1.156a1.6 1.6 0 0 0-.472-.064q-.465 0-.756.282-.282.273-.282.783V11.9h-1.31zm7.532 3.804q-.072.045-.218.155a2 2 0 0 1-.382.2 3 3 0 0 1-.546.173 3 3 0 0 1-.728.082q-.546 0-.983-.164a2.2 2.2 0 0 1-.746-.473q-.3-.3-.464-.72a2.7 2.7 0 0 1-.155-.937q0-.446.146-.855.154-.419.436-.728.283-.31.692-.491a2.2 2.2 0 0 1 .928-.191q.52 0 .91.182.392.18.655.51.273.318.41.773.136.445.136.982v.219h-3.039q.009.346.3.61.3.255.82.254.51 0 .827-.145a3 3 0 0 0 .465-.264zm-1.146-2.12a.7.7 0 0 0-.055-.273.8.8 0 0 0-.437-.455.9.9 0 0 0-.39-.082.9.9 0 0 0-.401.082.9.9 0 0 0-.291.19 1 1 0 0 0-.173.265.7.7 0 0 0-.055.273zm1.994-1.684h1.256l.036.464q.21-.255.546-.41.345-.154.72-.154.736 0 1.164.437.437.437.437 1.292V11.9h-1.31V9.443q0-.356-.183-.564-.173-.21-.491-.21a.84.84 0 0 0-.382.082.8.8 0 0 0-.273.2.85.85 0 0 0-.164.3q-.055.165-.055.356V11.9h-1.3z"/></svg>