<svg xmlns="http://www.w3.org/2000/svg" fill="none" viewBox="0 0 55 12"><rect width="54.814" height="11.526" fill="#01748c" rx="5.763"/><path fill="#fff" d="M7.916 6.312v1.324q-.002.082-.03.103-.028.026-.103.024h-.326q-.082.002-.109-.024-.026-.02-.024-.103v-3.59q0-.1.036-.145a.25.25 0 0 1 .127-.054 7 7 0 0 1 .888-.049q.77 0 1.112.272c.23.181.345.49.345.913v.096q0 1.241-1.432 1.24-.337.002-.484-.007m.09-2.018q-.09.007-.09.115v1.426q.128.008.38.006.51 0 .726-.163.218-.166.218-.61v-.073q-.002-.391-.194-.556-.198-.163-.658-.163-.227 0-.381.018m4.097 1.928c0-.35-.036-.599-.096-.744q-.129-.282-.556-.284c-.29 0-.472.097-.556.284q-.099.217-.097.744v.121q-.002.534.097.743c.084.193.265.284.556.284.284 0 .47-.09.556-.284.06-.14.096-.387.096-.743v-.121m.568-.043v.206q-.001.824-.302 1.124c-.205.205-.514.308-.918.308-.412 0-.714-.103-.92-.308-.205-.2-.301-.574-.301-1.124v-.206c0-.544.096-.918.302-1.124.205-.205.508-.308.918-.308q.61 0 .92.308.3.309.301 1.124m1.827 1.179q.382.002.538-.188c.097-.126.151-.392.151-.791v-.194c0-.362-.048-.61-.145-.755q-.145-.218-.526-.218c-.217 0-.386.055-.495.164q-.164.163-.164.562v.78q0 .38.146.507.143.134.495.133m-.64-3.578v1.227h.012c.157-.17.41-.26.755-.26q.588.002.858.338.273.335.272 1.07v.242c0 .52-.103.882-.308 1.1-.205.217-.526.32-.967.32-.405 0-.701-.072-.894-.23-.194-.15-.284-.423-.284-.821V3.78c0-.072.036-.109.12-.109h.315c.042 0 .072.012.09.024a.12.12 0 0 1 .03.085m3.135 1.13v2.744q-.002.064-.03.085-.028.026-.091.024h-.314c-.085 0-.121-.037-.121-.109V4.91c0-.072.036-.109.12-.109h.315c.042 0 .072.012.09.025a.12.12 0 0 1 .03.084m-.64-.846v-.042q-.002-.171.096-.26.09-.09.254-.09h.03c.23 0 .344.12.344.35v.042q0 .352-.344.35h-.03c-.11 0-.194-.024-.254-.084-.067-.06-.097-.145-.097-.266m3.621 1.892v.435c0 .12-.06.175-.169.175h-1.559q.01.452.157.623.145.17.58.169c.23 0 .448-.036.641-.115.048-.012.079-.024.097-.024q.045.002.072.066l.043.145q.029.11.03.127 0 .056-.073.09c-.248.116-.538.17-.876.17q-.697 0-.967-.326-.272-.327-.272-1.106v-.206q0-.736.272-1.081c.181-.23.483-.351.913-.351q.552 0 .834.29c.18.194.277.502.277.919m-1.734.157h1.118c.048 0 .079-.024.079-.085q0-.444-.127-.634c-.085-.121-.236-.188-.46-.188q-.362.002-.49.212c-.084.139-.12.369-.12.695m2.803-1.22.03.295h.013a.76.76 0 0 1 .29-.296c.108-.06.266-.09.459-.09h.12a.17.17 0 0 1 .098.024.12.12 0 0 1 .03.084v.266c0 .073-.043.103-.127.103h-.133c-.248 0-.417.06-.514.17q-.134.162-.133.525v1.68q-.002.064-.03.085-.027.026-.09.024h-.315c-.084 0-.12-.037-.12-.109V4.892q-.001-.09.096-.09h.211q.109 0 .115.09M24.542 7.4v.26c0 .073-.036.103-.103.103h-1.873q-.134 0-.133-.109v-.12c0-.073.036-.17.12-.297l1.264-1.964h-1.215c-.073 0-.103-.03-.103-.103v-.26a.16.16 0 0 1 .018-.084c.012-.013.037-.025.085-.025h1.825c.06 0 .097.037.097.097v.121c0 .072-.055.193-.157.35l-1.251 1.922h1.323q.102 0 .103.11m3.607.278-.024-.175h-.012q-.154.315-.725.314H27.2q-.895 0-.894-.87V6.85c0-.326.097-.568.29-.713.157-.127.471-.193.93-.193h.146c.133 0 .26.006.369.018v-.254q-.002-.279-.14-.387-.142-.109-.459-.109-.306 0-.659.091a.6.6 0 0 1-.127.024c-.042 0-.066-.024-.078-.084l-.024-.115a1 1 0 0 1-.024-.157c0-.043.024-.073.084-.091.272-.085.562-.133.877-.133q.58.002.846.23c.169.157.26.423.26.797v1.904c0 .06-.037.085-.097.085h-.236c-.066 0-.103-.024-.115-.085m-.108-.828v-.435a3 3 0 0 0-.327-.018h-.266c-.217 0-.368.036-.453.097q-.127.1-.127.362v.085q-.002.236.097.326.09.099.326.097h.2c.18 0 .32-.036.41-.121.091-.085.14-.212.14-.393m1.852.725v1.149q-.002.065-.03.084-.027.025-.09.024h-.315c-.084 0-.12-.036-.12-.108v-3.82c0-.066.03-.103.096-.103h.212q.09.001.108.085l.037.193h.012c.187-.217.483-.332.882-.332.387 0 .665.103.846.308q.264.308.266 1.07v.272c0 .49-.09.846-.26 1.076q-.261.345-.894.344-.508.002-.744-.242zm.665-2.363q-.373.002-.52.158-.144.161-.145.513v.822q0 .346.163.502.164.152.508.15c.254 0 .43-.066.526-.21.09-.146.139-.4.139-.768v-.2q-.001-.545-.139-.755-.144-.211-.532-.212m2.44-1.432v3.185c0 .12.012.205.048.254q.045.072.2.072h.15c.037 0 .061.012.08.025.011.012.023.042.023.078v.26c0 .072-.036.109-.096.109h-.26q-.38 0-.544-.163c-.109-.11-.157-.29-.157-.55V3.78c0-.072.036-.109.12-.109h.315c.042 0 .073.012.09.024a.12.12 0 0 1 .03.085m1.653 1.13v2.744q-.001.064-.03.085-.027.026-.09.024h-.315c-.084 0-.12-.037-.12-.109V4.91c0-.072.036-.109.12-.109h.314c.043 0 .073.012.091.025a.12.12 0 0 1 .03.084m-.64-.846v-.042q-.002-.171.096-.26.09-.09.254-.09h.03c.23 0 .345.12.345.35v.042q0 .352-.345.35h-.03c-.109 0-.193-.024-.254-.084-.066-.06-.096-.145-.096-.266m2.014 2.375v1.215q-.001.064-.03.085-.027.026-.09.024h-.315c-.084 0-.12-.037-.12-.109V3.78c0-.072.036-.109.12-.109h.315c.042 0 .072.012.09.024a.12.12 0 0 1 .03.085v2.17h.23c.048 0 .085-.018.115-.067l.659-.997c.036-.054.09-.085.169-.085h.35c.097 0 .121.043.073.121l-.84 1.215a.1.1 0 0 0-.024.06q-.001.039.024.067l.798 1.263c.06.103.096.163.096.181q-.001.055-.084.055h-.357c-.078 0-.139-.03-.175-.09l-.72-1.18a.12.12 0 0 0-.102-.054zm3.81 1.24-.024-.176h-.012q-.155.315-.725.314h-.188q-.895 0-.894-.87V6.85c0-.326.097-.568.29-.713.157-.127.471-.193.93-.193h.146c.133 0 .26.006.368.018v-.254q-.001-.279-.139-.387-.143-.109-.459-.109-.307 0-.659.091a.6.6 0 0 1-.127.024c-.042 0-.066-.024-.078-.084l-.024-.115a1 1 0 0 1-.025-.157c0-.043.025-.073.085-.091.272-.085.562-.133.876-.133q.582.002.846.23c.17.157.26.423.26.797v1.904c0 .06-.036.085-.096.085h-.236c-.067 0-.103-.024-.115-.085m-.109-.829v-.435a3 3 0 0 0-.326-.018h-.266c-.218 0-.369.036-.453.097q-.127.1-.127.362v.085q-.001.236.096.326.092.099.327.097h.2c.18 0 .32-.036.41-.121s.14-.212.14-.393m3.2.447.037.127q.029.101.03.14c0 .048-.03.078-.09.102q-.345.153-.816.151c-.399 0-.69-.084-.864-.26-.224-.205-.333-.604-.333-1.184v-.194q0-.46.073-.713a.9.9 0 0 1 .248-.417q.316-.301.906-.302c.35 0 .647.085.9.254.037.024.055.054.055.078a.5.5 0 0 1-.06.145l-.085.158q-.036.061-.073.06a.12.12 0 0 1-.072-.024c-.218-.133-.43-.2-.647-.2s-.374.049-.483.145a.47.47 0 0 0-.14.23.9.9 0 0 0-.048.254q-.008.109-.006.38v.097q-.001.644.151.834c.11.133.29.2.55.2q.309 0 .599-.109c.036-.012.066-.024.09-.024.037 0 .06.024.079.072M44.22 4.91v2.756c0 .393-.067.67-.188.84q-.236.334-.87.333h-.187c-.073 0-.103-.03-.103-.097v-.29c0-.06.03-.097.09-.097h.14q.351 0 .459-.163.101-.162.103-.586V4.91c0-.072.036-.109.12-.109h.315c.042 0 .072.012.09.025a.12.12 0 0 1 .03.084m-.641-.846v-.042q-.002-.171.097-.26.09-.09.254-.09h.03c.23 0 .344.12.344.35v.042q0 .352-.344.35h-.03c-.11 0-.194-.024-.254-.084-.067-.06-.097-.145-.097-.266m3.628 1.886v.44c0 .122-.06.176-.17.176h-1.559q.01.452.158.623.145.17.58.169a1.7 1.7 0 0 0 .64-.115c.049-.012.079-.024.097-.024q.045.002.073.066l.042.145c.012.055.024.091.024.115q0 .055-.072.09-.31.184-.448.357a.63.63 0 0 0-.133.393q-.001.225.224.224.135 0 .29-.055.053-.018.06-.018.039 0 .049.055l.024.109a.5.5 0 0 1 .018.102q0 .045-.072.073c-.151.06-.303.09-.447.09-.412 0-.61-.157-.61-.477q0-.408.434-.689a2 2 0 0 1-.26.018q-.696 0-.967-.326-.271-.327-.272-1.106v-.206q0-.736.272-1.081c.182-.23.484-.351.919-.351q.555.002.828.284c.181.193.278.496.278.919m-1.735.163h1.119c.048 0 .078-.024.078-.085q0-.444-.127-.634c-.084-.121-.235-.188-.46-.188q-.36.002-.489.212c-.084.139-.12.369-.12.695"/></svg>