<svg xmlns="http://www.w3.org/2000/svg" fill="none" viewBox="0 0 249 10"><path fill="#007990" d="M3.861 7.755 1.94 5.056h-.017v2.647c0 .122-.026.21-.061.245-.044.035-.123.052-.245.052H.882C.76 8 .672 7.983.63 7.939c-.052-.035-.07-.114-.07-.236V2.636c0-.113.018-.192.061-.227.044-.035.123-.061.245-.061h.384c.262 0 .446.087.56.244L3.73 5.458h.018V2.645c0-.114.017-.192.07-.236.043-.035.13-.061.253-.061h.734c.122 0 .2.026.244.061.035.035.062.114.062.236v5.067c0 .122-.027.2-.07.236Q4.975 8 4.805 8H4.42c-.262 0-.445-.079-.559-.245M7.386 5.52V6.2q0 .51.157.664c.078.088.2.123.367.123h.035c.157 0 .28-.035.367-.123.104-.105.157-.323.157-.664V5.52c0-.332-.053-.56-.157-.664a.53.53 0 0 0-.367-.122H7.91q-.25.002-.367.122c-.105.105-.157.332-.157.664m2.49.052v.568c0 .437-.044.769-.132 1.014a1.25 1.25 0 0 1-.42.585q-.429.34-1.344.34h-.105c-.612 0-1.066-.113-1.346-.34a1.25 1.25 0 0 1-.419-.585c-.087-.245-.131-.577-.131-1.014V5.58c0-.428.044-.76.131-1.005s.227-.436.42-.594c.279-.227.733-.34 1.345-.34h.105q.915 0 1.345.34c.192.158.332.35.42.586.087.244.13.576.13 1.004M12.86 3.93h.751c.122 0 .21.018.253.052.044.035.079.105.096.21 0 .035.158.813.463 2.324h.027c.157-.917.297-1.765.41-2.551.009-.096.035-.157.07-.192q.052-.053.184-.053h.89c.097 0 .158.027.193.062.026.043.035.113.017.2-.14.682-.314 1.433-.506 2.254-.193.822-.332 1.337-.42 1.555-.035.088-.078.149-.122.175a.4.4 0 0 1-.2.035h-.962c-.183 0-.297-.061-.332-.2-.166-.595-.306-1.346-.428-2.255h-.035a24 24 0 0 1-.437 2.254c-.035.14-.14.201-.314.201h-.944c-.174 0-.288-.061-.332-.192-.087-.236-.236-.778-.445-1.616a41 41 0 0 1-.49-2.21c-.025-.097-.017-.167.018-.201.035-.035.105-.062.21-.062h.856c.087 0 .157.018.2.053a.4.4 0 0 1 .08.192q.181 1.216.428 2.55h.034c.21-1.082.359-1.86.429-2.323.017-.113.043-.183.087-.218.044-.026.131-.044.27-.044m6.328 3.713h-.017c-.192.297-.577.437-1.145.437h-.13c-.446 0-.796-.114-1.04-.341-.254-.227-.376-.568-.376-1.005v-.096c0-.472.131-.812.402-1.004q.403-.29 1.319-.289h.061c.227 0 .437.018.612.035v-.183c0-.184-.053-.315-.149-.385-.105-.06-.28-.096-.524-.096-.297 0-.629.053-1.013.149-.105.026-.184.026-.219 0q-.066-.037-.078-.166l-.07-.463c-.018-.079-.018-.14-.018-.175q0-.16.21-.227a5.6 5.6 0 0 1 1.494-.192c.672 0 1.153.148 1.432.428.219.227.332.594.332 1.092v2.594c0 .088-.026.158-.07.193-.043.035-.122.052-.227.052h-.41c-.105 0-.175-.009-.219-.035q-.065-.037-.104-.166zm-.314-1.118v-.245a2.5 2.5 0 0 0-.42-.026h-.096q-.315 0-.445.078c-.088.053-.123.158-.123.315v.035c0 .157.035.262.123.314.078.062.2.088.367.088h.06a.6.6 0 0 0 .411-.131c.079-.07.123-.219.123-.428m5.517-1.188v1.118c0 .2.035.34.123.42.07.078.2.113.393.113h.078c.201 0 .341-.053.428-.175q.105-.157.105-.76v-.376c0-.437-.043-.707-.113-.795-.079-.087-.227-.14-.437-.14h-.035c-.2 0-.34.044-.428.132-.079.078-.114.235-.114.463m0-1.46h.018q.38-.235.996-.235h.078q.79 0 1.145.471c.192.271.297.752.297 1.442v.629q0 1.05-.446 1.459c-.314.297-.812.437-1.494.437h-.174c-.717 0-1.206-.14-1.468-.428-.236-.254-.35-.664-.35-1.24V2.338c0-.087.018-.148.062-.192.035-.035.113-.061.227-.061h.812c.105 0 .184.026.227.06.044.045.07.106.07.193zm5.811 3.766h-.018c-.192.297-.576.437-1.144.437h-.13q-.672 0-1.04-.341c-.254-.227-.376-.568-.376-1.005v-.096c0-.472.13-.812.402-1.004q.403-.29 1.319-.289h.061a6 6 0 0 1 .611.035v-.183q-.002-.278-.148-.385c-.105-.06-.28-.096-.524-.096-.297 0-.63.053-1.014.149-.104.026-.183.026-.218 0q-.066-.037-.079-.166l-.07-.463c-.017-.079-.017-.14-.017-.175q0-.16.21-.227a5.6 5.6 0 0 1 1.494-.192c.672 0 1.153.148 1.432.428.219.227.332.594.332 1.092v2.594c0 .088-.026.158-.07.193-.043.035-.122.052-.227.052h-.41c-.105 0-.175-.009-.219-.035q-.064-.037-.105-.166zm-.315-1.118v-.245a2.5 2.5 0 0 0-.419-.026h-.096q-.315 0-.445.078c-.088.053-.123.158-.123.315v.035c0 .157.035.262.123.314.078.062.2.088.366.088h.062a.6.6 0 0 0 .41-.131c.079-.07.122-.219.122-.428M34.42 3.64h.07c.506 0 .882.122 1.11.358.209.227.322.611.322 1.153v2.595c0 .087-.026.157-.07.192-.043.044-.122.061-.227.061h-.803c-.114 0-.193-.017-.236-.061-.044-.035-.061-.105-.061-.192V5.274c0-.192-.035-.332-.096-.401-.07-.07-.201-.114-.385-.114h-.052c-.192 0-.315.044-.385.114s-.096.21-.096.401v2.473c0 .087-.026.157-.07.192-.043.044-.122.061-.227.061h-.803c-.114 0-.193-.017-.236-.061-.044-.035-.061-.105-.061-.192V3.964c0-.087.017-.149.06-.183.044-.035.123-.062.237-.062h.41c.105 0 .175.018.219.044q.065.04.104.157l.053.166h.026c.28-.297.673-.445 1.197-.445m3.732 2.664v1.442c0 .087-.026.157-.07.192-.043.044-.122.061-.227.061h-.803c-.114 0-.193-.017-.236-.061-.044-.035-.062-.105-.062-.192V2.339c0-.087.018-.148.062-.192.043-.035.122-.061.236-.061h.803c.105 0 .184.026.227.06.044.045.07.106.07.193v2.848h.061l.83-1.267c.079-.13.201-.2.367-.2h1.014c.096 0 .148.034.148.104a.4.4 0 0 1-.07.166l-1.004 1.503c-.079.122-.114.21-.114.262 0 .061.035.148.114.262l1.074 1.695c.035.07.053.113.053.148q0 .142-.184.14h-.97c-.122 0-.218-.009-.27-.044q-.079-.039-.158-.183l-.83-1.468zm4.118-.786V6.2q0 .51.157.664c.079.088.201.123.367.123h.035c.157 0 .28-.035.367-.123.105-.105.157-.323.157-.664V5.52c0-.332-.052-.56-.157-.664a.53.53 0 0 0-.367-.122h-.035q-.249.002-.367.122c-.105.105-.157.332-.157.664m2.49.052v.568c0 .437-.044.769-.131 1.014a1.25 1.25 0 0 1-.42.585q-.43.34-1.345.34h-.105c-.611 0-1.066-.113-1.345-.34a1.25 1.25 0 0 1-.42-.585c-.087-.245-.13-.577-.13-1.014V5.58c0-.428.043-.76.13-1.005a1.3 1.3 0 0 1 .42-.594c.28-.227.733-.34 1.345-.34h.105q.915 0 1.345.34c.192.158.332.35.42.586.087.244.13.576.13 1.004m2.984-1.642h.751q.186 0 .254.052c.043.035.078.105.096.21 0 .035.157.813.463 2.324h.026c.157-.917.297-1.765.41-2.551.01-.096.035-.157.07-.192q.052-.053.184-.053h.891c.096 0 .157.027.192.062.026.043.035.113.018.2-.14.682-.315 1.433-.507 2.254-.192.822-.332 1.337-.42 1.555-.034.088-.078.149-.122.175a.4.4 0 0 1-.2.035h-.962c-.183 0-.297-.061-.331-.2-.166-.595-.306-1.346-.429-2.255h-.035a24 24 0 0 1-.436 2.254c-.035.14-.14.201-.315.201H46.4c-.175 0-.289-.061-.332-.192-.088-.236-.236-.778-.446-1.616a41 41 0 0 1-.49-2.21c-.025-.097-.017-.167.018-.201.035-.035.105-.062.21-.062h.856q.133 0 .201.053a.4.4 0 0 1 .079.192q.181 1.216.428 2.55h.035c.21-1.082.358-1.86.428-2.323.017-.113.043-.183.087-.218.044-.026.131-.044.271-.044m5.139 1.59V6.2q0 .51.157.664c.079.088.2.123.367.123h.035c.157 0 .28-.035.367-.123.105-.105.157-.323.157-.664V5.52c0-.332-.053-.56-.157-.664a.53.53 0 0 0-.367-.122h-.035q-.249.002-.367.122c-.105.105-.157.332-.157.664m2.49.052v.568c0 .437-.044.769-.132 1.014a1.25 1.25 0 0 1-.419.585q-.43.34-1.345.34h-.105c-.612 0-1.066-.113-1.345-.34a1.25 1.25 0 0 1-.42-.585c-.087-.245-.13-.577-.13-1.014V5.58c0-.428.043-.76.13-1.005s.227-.436.42-.594c.28-.227.733-.34 1.345-.34h.105q.915 0 1.345.34c.192.158.332.35.42.586.087.244.13.576.13 1.004m.634-.445v-.114c0-.428.114-.751.34-.978q.396-.393 1.328-.393h.088q.736 0 1.275.157.105.039.131.079c.018.035.027.078.018.148l-.096.716c-.018.114-.096.149-.236.114a4.4 4.4 0 0 0-.926-.122h-.009c-.192 0-.332.017-.402.052-.078.035-.113.096-.113.184v.026c0 .087.026.148.096.183s.2.079.402.114l.41.087c.376.088.647.219.804.393s.236.446.236.804v.131c0 .917-.577 1.372-1.712 1.372h-.088c-.576 0-1.057-.079-1.459-.236q-.119-.039-.148-.105c-.018-.035-.018-.105 0-.201l.122-.577c.026-.166.122-.218.297-.166.402.14.751.201 1.048.201h.027c.192 0 .323-.017.402-.06.07-.036.113-.106.113-.202v-.026a.19.19 0 0 0-.096-.166 2.4 2.4 0 0 0-.42-.131l-.384-.087q-.576-.132-.812-.393c-.157-.175-.236-.437-.236-.804m.812-2.56 1.372-1.17a.24.24 0 0 1 .166-.079c.061 0 .122.044.175.114l.419.541a.26.26 0 0 1 .052.149c0 .07-.052.14-.14.21l-1.38.943a.32.32 0 0 1-.174.061c-.07 0-.14-.035-.21-.122l-.262-.306c-.07-.079-.096-.149-.096-.201s.026-.105.078-.14m5.27 4.386h.07c.235 0 .488-.035.76-.114.087-.017.139-.026.165-.026q.131.002.157.148l.079.446c.017.122.035.2.035.236 0 .105-.079.183-.227.236-.385.14-.804.2-1.258.2h-.105c-.629 0-1.092-.14-1.38-.436q-.446-.445-.446-1.494v-.507c0-.41.035-.734.105-.96q.105-.342.34-.577c.306-.306.787-.463 1.442-.463h.087c.525 0 .979.096 1.346.288.105.061.166.131.166.218a1 1 0 0 1-.07.263l-.166.419q-.066.157-.184.157a.36.36 0 0 1-.157-.044 2.1 2.1 0 0 0-.777-.174h-.035c-.227 0-.393.06-.498.166-.131.13-.192.402-.192.803v.297c0 .359.052.603.174.734q.173.184.568.184m-1.075-4.386 1.371-1.17a.24.24 0 0 1 .166-.079c.061 0 .123.044.175.114l.42.541a.26.26 0 0 1 .052.149c0 .07-.053.14-.14.21l-1.38.943a.3.3 0 0 1-.175.061c-.07 0-.14-.035-.21-.122l-.262-.306c-.07-.079-.096-.149-.096-.201s.026-.105.079-.14m6.35 2.263h-1.39c-.087 0-.148-.009-.183-.044-.034-.035-.043-.105-.043-.21v-.602c0-.105.008-.166.043-.201q.053-.053.184-.053h2.953c.087 0 .148.018.192.053.035.035.061.105.061.2v.167c0 .227-.07.436-.192.62L67.486 6.89h1.494c.087 0 .14.017.175.052s.052.096.052.2v.604q0 .156-.052.21c-.035.034-.088.043-.175.043h-3.005c-.184 0-.27-.079-.27-.253v-.201c0-.227.06-.428.191-.62zm4.957 2.813h-.018c-.192.297-.576.437-1.144.437h-.131q-.67 0-1.04-.341c-.253-.227-.375-.568-.375-1.005v-.096c0-.472.13-.812.401-1.004.271-.193.708-.289 1.32-.289h.06a6 6 0 0 1 .612.035v-.183q-.002-.278-.148-.385c-.105-.06-.28-.096-.524-.096-.297 0-.63.053-1.014.149-.105.026-.183.026-.218 0q-.066-.037-.079-.166l-.07-.463c-.017-.079-.017-.14-.017-.175q0-.16.21-.227a5.6 5.6 0 0 1 1.493-.192c.673 0 1.154.148 1.433.428.218.227.332.594.332 1.092v2.594c0 .088-.026.158-.07.193Q73.266 8 73.107 8h-.41c-.105 0-.175-.009-.219-.035q-.066-.037-.105-.166zm-.315-1.118v-.245a2.5 2.5 0 0 0-.42-.026h-.095q-.314 0-.446.078c-.087.053-.122.158-.122.315v.035c0 .157.035.262.122.314.079.062.201.088.367.088h.061a.6.6 0 0 0 .411-.131c.079-.07.122-.219.122-.428m4.236.428h.07c.235 0 .489-.035.76-.114q.129-.026.165-.026.132.002.158.148l.078.446c.018.122.035.2.035.236q-.002.157-.227.236c-.384.14-.803.2-1.258.2h-.105c-.629 0-1.092-.14-1.38-.436q-.445-.445-.445-1.494v-.507c0-.41.034-.734.104-.96q.105-.342.341-.577c.306-.306.786-.463 1.442-.463h.087c.524 0 .978.096 1.345.288.105.061.166.131.166.218a1 1 0 0 1-.07.263l-.166.419q-.065.157-.183.157a.36.36 0 0 1-.157-.044 2.1 2.1 0 0 0-.778-.174h-.035c-.227 0-.393.06-.498.166-.13.13-.192.402-.192.803v.297c0 .359.053.603.175.734.113.123.305.184.568.184m3.381-2.123h-1.389c-.087 0-.148-.009-.183-.044s-.044-.105-.044-.21v-.602c0-.105.009-.166.044-.201q.052-.053.183-.053h2.953q.129 0 .192.053c.035.035.061.105.061.2v.167c0 .227-.07.436-.192.62L79.746 6.89h1.494c.087 0 .14.017.174.052.035.035.053.096.053.2v.604q0 .156-.053.21c-.035.034-.087.043-.174.043h-3.006c-.183 0-.27-.079-.27-.253v-.201c0-.227.06-.428.192-.62zm6.136-.848c-.122.822-.349 1.73-.68 2.735a18.6 18.6 0 0 1-1.233 2.848q-.089.183-.244.183a.56.56 0 0 1-.254-.07l-.445-.192c-.157-.07-.227-.14-.227-.218 0-.035.008-.088.043-.149.297-.603.472-.952.507-1.048-.245-.087-.428-.28-.568-.594-.157-.35-.34-.883-.541-1.616a23 23 0 0 1-.446-1.887c-.017-.088-.009-.149.035-.192a.37.37 0 0 1 .227-.062h.795c.096 0 .166.018.21.044s.078.079.096.166c.2 1.1.428 2.08.681 2.927h.044c.245-.7.472-1.66.681-2.9q.014-.132.079-.184c.044-.035.114-.053.201-.053h.804c.096 0 .166.027.2.062.035.034.044.104.035.2m2.817-.34h.07c.507 0 .882.122 1.11.358.21.227.323.611.323 1.153v2.595c0 .087-.026.157-.07.192-.044.044-.122.061-.227.061h-.804c-.113 0-.192-.017-.236-.061-.044-.035-.061-.105-.061-.192V5.274c0-.192-.035-.332-.096-.401-.07-.07-.201-.114-.384-.114h-.053c-.192 0-.314.044-.384.114s-.096.21-.096.401v2.473c0 .087-.027.157-.07.192-.044.044-.123.061-.227.061h-.804c-.114 0-.192-.017-.236-.061-.044-.035-.061-.105-.061-.192V3.964c0-.087.017-.149.061-.183.044-.035.122-.062.236-.062h.41c.105 0 .175.018.219.044q.066.04.105.157l.052.166h.026c.28-.297.673-.445 1.197-.445m4.86 4h-.018c-.192.298-.576.438-1.144.438h-.131q-.67 0-1.04-.341c-.253-.227-.375-.568-.375-1.005v-.096c0-.472.13-.812.401-1.004.271-.193.708-.289 1.32-.289h.06a6 6 0 0 1 .612.035v-.183q-.002-.278-.148-.385c-.105-.06-.28-.096-.525-.096-.297 0-.628.053-1.013.149-.105.026-.183.026-.218 0q-.066-.037-.079-.166l-.07-.463c-.017-.079-.017-.14-.017-.175q0-.16.21-.227a5.6 5.6 0 0 1 1.493-.192c.673 0 1.153.148 1.433.428.218.227.332.594.332 1.092v2.594c0 .088-.026.158-.07.193Q94.381 8 94.222 8h-.41c-.106 0-.175-.009-.22-.035q-.065-.037-.104-.166zm-.315-1.117v-.245a2.5 2.5 0 0 0-.42-.026h-.095q-.315 0-.446.078c-.087.053-.122.158-.122.315v.035c0 .157.035.262.122.314.079.062.201.088.367.088h.061a.6.6 0 0 0 .41-.131c.08-.07.123-.219.123-.428m4.007-1.398v-.114c0-.428.113-.751.34-.978.262-.262.708-.393 1.328-.393h.087c.49 0 .918.052 1.276.157q.105.039.131.079c.017.035.026.078.017.148l-.096.716c-.017.114-.096.149-.236.114a4.4 4.4 0 0 0-.925-.122h-.01c-.192 0-.331.017-.401.052-.079.035-.114.096-.114.184v.026c0 .087.026.148.096.183s.201.079.402.114l.41.087q.566.132.805.393c.157.175.235.446.235.804v.131c0 .917-.576 1.372-1.712 1.372h-.087c-.577 0-1.057-.079-1.46-.236-.078-.026-.13-.061-.148-.105-.017-.035-.017-.105 0-.201l.123-.577c.026-.166.122-.218.297-.166.402.14.751.201 1.048.201h.026c.192 0 .323-.017.402-.06.07-.036.114-.106.114-.202v-.026a.19.19 0 0 0-.096-.166 2.4 2.4 0 0 0-.42-.131l-.384-.087q-.577-.132-.813-.393c-.157-.175-.236-.437-.236-.804m5.487-1.153v3.774c0 .087-.026.157-.07.192-.044.044-.122.061-.227.061h-.804c-.113 0-.192-.017-.236-.061-.043-.035-.061-.105-.061-.192V3.973c0-.088.018-.149.061-.192.044-.035.123-.062.236-.062h.804c.105 0 .183.027.227.062.044.043.07.104.07.192m-.647-.586h-.104c-.472 0-.708-.235-.708-.725V2.62c0-.48.236-.725.708-.725h.104q.708.002.708.725v.043c0 .49-.236.725-.708.725m3.631 3.565h.096c.297 0 .612-.035.926-.114.088-.017.14-.026.166-.026q.131.002.158.148l.069.437c.018.123.035.201.035.236q-.002.158-.227.236a1.27 1.27 0 0 0-.559.42c-.148.191-.218.384-.218.558v.027c0 .166.078.244.236.244h.043c.096 0 .219-.017.359-.07.043-.008.078-.017.104-.017.044 0 .079.044.105.113l.044.184c.026.122.044.183.044.2 0 .053-.044.097-.123.132a2 2 0 0 1-.707.13h-.053c-.306 0-.533-.06-.69-.191q-.236-.194-.236-.56v-.026c0-.157.053-.332.166-.506.114-.175.262-.315.454-.437-.069.009-.166.009-.288.009h-.166q-1.074 0-1.52-.446a1.25 1.25 0 0 1-.349-.594c-.061-.227-.088-.533-.088-.909v-.489c0-.76.175-1.293.524-1.607.298-.262.752-.393 1.372-.393h.122c.612 0 1.057.148 1.319.437.28.314.42.83.42 1.563v.455c0 .166-.088.244-.254.244h-2.096v.07c0 .21.052.35.175.428.113.079.323.114.637.114m-.812-1.52h.961c.07 0 .105-.035.105-.114v-.14a.8.8 0 0 0-.088-.402c-.07-.104-.209-.157-.402-.157h-.078c-.175 0-.297.044-.367.122q-.132.158-.131.472zm7.721 1.747v.498c0 .13-.026.218-.061.262s-.114.061-.219.061h-.699c-.629 0-1.048-.105-1.24-.323-.175-.184-.253-.533-.253-1.057V4.81h-.472c-.088 0-.14-.008-.175-.043s-.044-.088-.044-.175v-.446c0-.104.009-.174.044-.21.026-.034.087-.06.184-.087l.463-.113V2.88c0-.088.017-.149.061-.192.043-.035.122-.062.236-.062h.803a.37.37 0 0 1 .227.062c.044.043.07.104.07.192v.838h.725c.088 0 .14.018.175.053s.053.096.053.2v.586q0 .158-.053.21c-.035.035-.087.043-.175.043h-.725v1.651c0 .158.018.254.07.306q.079.09.341.088h.384c.105 0 .184.026.219.07.035.043.061.13.061.253m2.959-.743V3.973c0-.088.017-.149.061-.192.043-.035.122-.062.236-.062h.803a.37.37 0 0 1 .227.062c.044.043.07.104.07.192v2.586q0 .798-.393 1.153c-.279.244-.769.367-1.485.367s-1.214-.123-1.485-.367q-.393-.354-.393-1.153V3.973c0-.088.017-.149.061-.192.044-.035.122-.062.236-.062h.804c.104 0 .183.027.227.062a.26.26 0 0 1 .07.192v2.463c0 .201.026.332.096.402.07.079.192.114.384.114.183 0 .315-.035.384-.114.062-.07.097-.2.097-.402m3.586.83v.088c0 .489-.236.725-.699.725h-.096c-.471 0-.699-.236-.699-.725v-.088c0-.253.053-.437.175-.541.114-.105.288-.166.524-.166h.096c.228 0 .402.06.525.166.113.104.174.288.174.541m4.805-3.817h-.114c-.122 0-.244.008-.384.017-.053.009-.07.044-.07.105v1.38h.454c.315 0 .524-.044.647-.148.105-.088.157-.254.157-.516V4.07c0-.21-.052-.367-.149-.463-.104-.105-.288-.157-.541-.157m-.568 2.699v1.581c0 .184-.105.271-.306.271h-.856c-.114 0-.192-.017-.236-.061-.052-.035-.07-.105-.07-.21V2.706q0-.21.079-.288c.052-.053.148-.088.306-.105a19 19 0 0 1 1.476-.044h.105c.891 0 1.502.175 1.843.516.262.28.393.698.393 1.266v.297c0 .656-.183 1.119-.55 1.38q-.574.42-1.765.42zm4.523-.629V6.2q0 .51.157.664c.079.088.201.123.367.123h.035c.157 0 .279-.035.367-.123.105-.105.157-.323.157-.664V5.52c0-.332-.052-.56-.157-.664a.53.53 0 0 0-.367-.122h-.035q-.249.002-.367.122c-.105.105-.157.332-.157.664m2.489.052v.568c0 .437-.043.769-.131 1.014a1.25 1.25 0 0 1-.419.585q-.43.34-1.345.34h-.105c-.612 0-1.066-.113-1.345-.34a1.25 1.25 0 0 1-.42-.585c-.087-.245-.131-.577-.131-1.014V5.58c0-.428.044-.76.131-1.005s.227-.436.42-.594c.279-.227.733-.34 1.345-.34h.105q.915 0 1.345.34c.192.158.332.35.419.586.088.244.131.576.131 1.004m2.146-.235v1.118c0 .2.035.34.123.42.069.078.2.113.393.113h.078c.201 0 .341-.053.428-.175q.105-.157.105-.76v-.376c0-.437-.044-.707-.113-.795-.079-.087-.228-.14-.437-.14h-.035q-.3 0-.428.132c-.079.078-.114.235-.114.463m0-1.46h.018q.38-.235.996-.235h.078c.524 0 .909.157 1.145.471.192.271.297.752.297 1.442v.629q0 1.05-.446 1.459c-.314.297-.812.437-1.494.437h-.174c-.717 0-1.206-.14-1.468-.428-.236-.254-.35-.664-.35-1.24V2.338c0-.087.018-.148.062-.192.035-.035.113-.061.227-.061h.812a.37.37 0 0 1 .227.06c.044.045.07.106.07.193zm4.701.097v3.774c0 .087-.026.157-.07.192-.043.044-.122.061-.227.061h-.803c-.114 0-.193-.017-.236-.061-.044-.035-.061-.105-.061-.192V3.973c0-.088.017-.149.061-.192.043-.035.122-.062.236-.062h.803a.37.37 0 0 1 .227.062c.044.043.07.104.07.192m-.646-.586h-.105c-.472 0-.708-.235-.708-.725V2.62c0-.48.236-.725.708-.725h.105q.707.002.707.725v.043c0 .49-.235.725-.707.725m3.631 3.565h.096c.297 0 .611-.035.926-.114q.129-.026.166-.026.131.002.157.148l.07.437c.017.123.035.201.035.236 0 .105-.079.184-.227.236-.402.14-.848.21-1.319.21h-.166q-1.075 0-1.52-.446a1.25 1.25 0 0 1-.35-.594c-.061-.227-.087-.533-.087-.909v-.489c0-.76.175-1.293.524-1.607.297-.262.751-.393 1.372-.393h.122c.611 0 1.057.148 1.319.437.28.314.419.83.419 1.563v.455c0 .166-.087.244-.253.244h-2.097v.07c0 .21.053.35.175.428.114.079.323.114.638.114m-.813-1.52h.961c.07 0 .105-.035.105-.114v-.14a.84.84 0 0 0-.087-.402c-.07-.104-.21-.157-.402-.157h-.079c-.174 0-.297.044-.367.122q-.13.158-.131.472zm4.194-1.24h.026c.192-.315.515-.473.978-.473h.35c.087 0 .157.018.192.053s.061.096.061.192v.638c0 .096-.017.157-.052.192q-.052.052-.184.052h-.262c-.323 0-.541.061-.664.184-.104.105-.148.306-.148.603v2.114c0 .087-.026.157-.07.192-.044.044-.122.061-.227.061h-.804c-.113 0-.192-.017-.236-.061-.043-.035-.061-.105-.061-.192V3.964q-.002-.131.061-.183c.044-.035.123-.062.236-.062h.419c.097 0 .166.018.21.044a.35.35 0 0 1 .105.157zm3.548.637h-1.389c-.088 0-.149-.009-.184-.044s-.043-.105-.043-.21v-.602c0-.105.008-.166.043-.201q.052-.053.184-.053h2.953c.087 0 .148.018.192.053.035.035.061.105.061.2v.167c0 .227-.07.436-.192.62l-1.503 2.132h1.494c.087 0 .14.017.175.052s.052.096.052.2v.604q0 .156-.052.21c-.035.034-.088.043-.175.043h-3.005c-.184 0-.271-.079-.271-.253v-.201c0-.227.061-.428.192-.62zm6.851 2.813h-.018c-.192.297-.576.437-1.144.437h-.131q-.67 0-1.04-.341c-.253-.227-.376-.568-.376-1.005v-.096c0-.472.132-.812.402-1.004q.404-.29 1.319-.289h.062c.227 0 .436.018.611.035v-.183c0-.184-.052-.315-.148-.385-.105-.06-.28-.096-.525-.096a4.2 4.2 0 0 0-1.013.149c-.105.026-.183.026-.218 0q-.066-.037-.079-.166l-.07-.463c-.017-.079-.017-.14-.017-.175q0-.16.209-.227a5.6 5.6 0 0 1 1.494-.192c.673 0 1.153.148 1.433.428.218.227.332.594.332 1.092v2.594c0 .088-.026.158-.07.193Q154.859 8 154.7 8h-.411c-.105 0-.174-.009-.218-.035q-.066-.037-.105-.166zm-.315-1.118v-.245a2.5 2.5 0 0 0-.419-.026h-.096q-.315 0-.446.078c-.087.053-.122.158-.122.315v.035c0 .157.035.262.122.314.079.062.201.088.367.088h.061a.6.6 0 0 0 .411-.131c.078-.07.122-.219.122-.428m3.301-2.429c.305-.297.742-.454 1.301-.454h.079c.542 0 .926.157 1.162.454.21.28.314.751.314 1.433v.655c0 .367-.035.673-.087.9a1.25 1.25 0 0 1-.314.568c-.297.288-.699.428-1.224.428h-.096q-.497 0-.812-.184v1.346c0 .13-.026.218-.07.253-.052.035-.148.052-.297.052h-.664c-.148 0-.245-.017-.297-.06-.052-.036-.07-.123-.07-.245V3.999c0-.105.018-.175.07-.218.044-.035.122-.062.236-.062h.367c.105 0 .183.018.227.035.035.027.07.079.096.149l.061.192zm.323 1.24v1.119c0 .2.035.34.122.42.079.078.21.113.393.113h.079c.201 0 .341-.053.428-.175q.105-.157.105-.76v-.376q0-.631-.105-.777c-.087-.105-.227-.158-.437-.158h-.061c-.192 0-.323.044-.41.132-.079.078-.114.235-.114.463m4.85 1.53h.279c.088 0 .157.026.192.06.035.044.061.123.061.236v.542c0 .122-.026.2-.061.236-.035.044-.104.061-.192.061h-.664c-.437 0-.742-.079-.917-.253q-.262-.251-.262-.883V2.34c0-.087.017-.148.061-.192.044-.035.122-.061.236-.061h.804c.104 0 .183.026.227.06a.26.26 0 0 1 .07.193V6.7c0 .07.008.113.035.13.017.027.061.035.131.035m2.521-2.892v3.774c0 .087-.026.157-.07.192-.043.044-.122.061-.227.061h-.803c-.114 0-.193-.017-.236-.061-.044-.035-.061-.105-.061-.192V3.973c0-.088.017-.149.061-.192.043-.035.122-.062.236-.062h.803a.37.37 0 0 1 .227.062c.044.043.07.104.07.192m-.646-.586h-.105c-.472 0-.708-.235-.708-.725V2.62c0-.48.236-.725.708-.725h.105q.708.002.708.725v.043c0 .49-.236.725-.708.725m2.949 2.918v1.442c0 .087-.026.157-.069.192-.044.044-.123.061-.228.061h-.803c-.114 0-.193-.017-.236-.061-.044-.035-.061-.105-.061-.192V2.339c0-.087.017-.148.061-.192.043-.035.122-.061.236-.061h.803c.105 0 .184.026.228.06a.26.26 0 0 1 .069.193v2.848h.062l.829-1.267a.4.4 0 0 1 .367-.2h1.014q.146 0 .148.104a.4.4 0 0 1-.07.166l-1.004 1.503c-.079.122-.114.21-.114.262 0 .061.035.148.114.262l1.074 1.695c.035.07.053.113.053.148q0 .142-.184.14h-.969c-.123 0-.219-.009-.271-.044q-.079-.039-.158-.183l-.829-1.468zm5.444 1.337h-.017c-.193.297-.577.437-1.145.437h-.131c-.445 0-.795-.114-1.039-.341-.254-.227-.376-.568-.376-1.005v-.096c0-.472.131-.812.402-1.004.271-.193.707-.289 1.319-.289h.061c.227 0 .437.018.612.035v-.183c0-.184-.053-.315-.149-.385-.105-.06-.279-.096-.524-.096a4.2 4.2 0 0 0-1.013.149c-.105.026-.184.026-.219 0q-.065-.037-.078-.166l-.07-.463c-.018-.079-.018-.14-.018-.175q0-.16.21-.227a5.6 5.6 0 0 1 1.494-.192c.672 0 1.153.148 1.432.428.219.227.332.594.332 1.092v2.594c0 .088-.026.158-.069.193s-.123.052-.228.052h-.41c-.105 0-.175-.009-.219-.035q-.065-.037-.104-.166zm-.314-1.118v-.245a2.5 2.5 0 0 0-.42-.026h-.096q-.314 0-.445.078c-.088.053-.123.158-.123.315v.035c0 .157.035.262.123.314.078.062.201.088.367.088h.061a.6.6 0 0 0 .41-.131c.079-.07.123-.219.123-.428m4.235.428h.07c.236 0 .489-.035.76-.114q.129-.026.166-.026.131.002.157.148l.079.446c.017.122.035.2.035.236 0 .105-.079.183-.227.236-.385.14-.804.2-1.258.2h-.105c-.629 0-1.092-.14-1.381-.436q-.445-.445-.445-1.494v-.507c0-.41.035-.734.105-.96q.105-.342.34-.577c.306-.306.787-.463 1.442-.463h.087c.524 0 .979.096 1.346.288.104.061.166.131.166.218 0 .053-.027.14-.07.263l-.166.419q-.066.157-.184.157a.36.36 0 0 1-.157-.044 2.1 2.1 0 0 0-.777-.174h-.035c-.228 0-.394.06-.498.166-.131.13-.193.402-.193.803v.297c0 .359.053.603.175.734q.173.184.568.184m1.8 2.603h-.506c-.088 0-.157-.017-.192-.061-.035-.035-.053-.114-.053-.219v-.611c0-.087.018-.157.053-.192s.104-.061.192-.061h.218c.157 0 .28-.035.358-.123q.105-.107.105-.541V3.973c0-.088.018-.149.061-.192.044-.035.123-.062.236-.062h.804c.105 0 .183.027.227.062.044.043.07.104.07.192v3.87q0 .942-.341 1.319-.353.393-1.232.393m.926-6.168h-.104c-.472 0-.708-.235-.708-.725V2.62c0-.48.236-.725.708-.725h.104q.708.002.708.725v.043c0 .49-.236.725-.708.725m3.631 3.565h.096c.298 0 .612-.035.926-.114.088-.017.14-.026.166-.026q.131.002.158.148l.07.437c.017.123.035.201.035.236 0 .105-.079.184-.228.236a1.27 1.27 0 0 0-.559.42c-.148.191-.218.384-.218.558v.027c0 .166.079.244.236.244h.043c.097 0 .219-.017.359-.07.043-.008.078-.017.104-.017.044 0 .079.044.105.113l.044.184c.026.122.044.183.044.2 0 .053-.044.097-.123.132a2 2 0 0 1-.707.13h-.053c-.305 0-.533-.06-.69-.191q-.236-.194-.236-.56v-.026c0-.157.053-.332.166-.506a1.45 1.45 0 0 1 .455-.437 3 3 0 0 1-.289.009h-.166q-1.074 0-1.52-.446a1.26 1.26 0 0 1-.349-.594c-.061-.227-.088-.533-.088-.909v-.489c0-.76.175-1.293.525-1.607.297-.262.751-.393 1.371-.393h.122c.612 0 1.058.148 1.32.437.279.314.419.83.419 1.563v.455c0 .166-.087.244-.253.244h-2.097v.07c0 .21.052.35.175.428.113.079.323.114.637.114m-.812-1.52h.961c.07 0 .105-.035.105-.114v-.14a.8.8 0 0 0-.088-.402c-.07-.104-.209-.157-.401-.157h-.079c-.175 0-.297.044-.367.122q-.13.158-.131.472zm6.384-.096v1.118c0 .2.035.34.123.42.07.078.201.113.393.113h.078c.201 0 .341-.053.429-.175q.104-.157.104-.76v-.376c0-.437-.043-.707-.113-.795-.079-.087-.227-.14-.437-.14h-.035q-.3 0-.428.132c-.079.078-.114.235-.114.463m0-1.46h.018q.38-.235.996-.235h.078q.79 0 1.145.471c.192.271.297.752.297 1.442v.629q0 1.05-.446 1.459c-.314.297-.812.437-1.494.437h-.174c-.717 0-1.206-.14-1.468-.428-.236-.254-.349-.664-.349-1.24V2.338c0-.087.017-.148.061-.192.035-.035.113-.061.227-.061h.812c.105 0 .184.026.228.06a.26.26 0 0 1 .069.193zm5.811 3.766h-.017c-.193.297-.577.437-1.145.437h-.131c-.445 0-.795-.114-1.04-.341-.253-.227-.375-.568-.375-1.005v-.096c0-.472.131-.812.402-1.004.271-.193.707-.289 1.319-.289h.061c.227 0 .437.018.611.035v-.183q-.002-.278-.148-.385c-.105-.06-.28-.096-.524-.096-.297 0-.629.053-1.014.149-.104.026-.183.026-.218 0q-.066-.037-.079-.166l-.069-.463c-.018-.079-.018-.14-.018-.175q0-.16.21-.227a5.6 5.6 0 0 1 1.494-.192c.672 0 1.153.148 1.432.428.219.227.332.594.332 1.092v2.594c0 .088-.026.158-.07.193-.043.035-.122.052-.227.052h-.41c-.105 0-.175-.009-.219-.035q-.065-.037-.105-.166zm-.315-1.118v-.245a2.5 2.5 0 0 0-.419-.026h-.096q-.315 0-.445.078c-.088.053-.123.158-.123.315v.035c0 .157.035.262.123.314.078.062.2.088.366.088h.062a.6.6 0 0 0 .41-.131c.079-.07.122-.219.122-.428m4.533-2.883h.07c.506 0 .882.122 1.109.358.21.227.323.611.323 1.153v2.595c0 .087-.026.157-.069.192-.044.044-.123.061-.228.061h-.803c-.114 0-.192-.017-.236-.061-.044-.035-.061-.105-.061-.192V5.274c0-.192-.035-.332-.096-.401-.07-.07-.201-.114-.385-.114h-.052c-.192 0-.315.044-.385.114-.069.07-.096.21-.096.401v2.473c0 .087-.026.157-.07.192-.043.044-.122.061-.227.061h-.803c-.114 0-.193-.017-.236-.061-.044-.035-.061-.105-.061-.192V3.964c0-.087.017-.149.061-.183.043-.035.122-.062.236-.062h.41c.105 0 .175.018.219.044q.065.04.104.157l.053.166h.026c.28-.297.673-.445 1.197-.445m3.732 2.664v1.442c0 .087-.026.157-.07.192-.043.044-.122.061-.227.061h-.803c-.114 0-.193-.017-.236-.061-.044-.035-.061-.105-.061-.192V2.339c0-.087.017-.148.061-.192.043-.035.122-.061.236-.061h.803a.37.37 0 0 1 .227.06c.044.045.07.106.07.193v2.848h.061l.83-1.267a.4.4 0 0 1 .367-.2h1.014q.146 0 .148.104a.4.4 0 0 1-.07.166l-1.004 1.503c-.079.122-.114.21-.114.262 0 .061.035.148.114.262l1.074 1.695c.035.07.053.113.053.148q0 .142-.184.14h-.97c-.122 0-.218-.009-.27-.044q-.079-.039-.158-.183l-.83-1.468zm5.217.131V3.973c0-.088.017-.149.061-.192.044-.035.122-.062.236-.062h.804c.104 0 .183.027.227.062a.26.26 0 0 1 .07.192v2.586q0 .798-.393 1.153c-.28.244-.769.367-1.486.367-.716 0-1.214-.123-1.485-.367q-.393-.354-.393-1.153V3.973c0-.088.018-.149.061-.192.044-.035.123-.062.236-.062h.804c.105 0 .183.027.227.062.044.043.07.104.07.192v2.463c0 .201.026.332.096.402.07.079.192.114.384.114.184 0 .315-.035.385-.114.061-.07.096-.2.096-.402m7.237-.454V2.619c0-.123.008-.193.043-.228.035-.026.123-.043.262-.043h.856c.14 0 .219.017.254.043.035.035.052.105.052.228v3.407q-.002.576-.122.943a1.5 1.5 0 0 1-.411.63c-.358.322-.926.48-1.694.48h-.105q-1.18.002-1.704-.48-.524-.486-.524-1.573V2.619c0-.123.009-.193.044-.228.035-.026.122-.043.262-.043h.856q.21.002.262.043c.035.035.052.105.052.228v3.363c0 .35.053.585.175.699.114.122.315.175.612.175h.043c.289 0 .49-.053.612-.175.113-.114.175-.35.175-.699m4.69-2.341h.07c.506 0 .882.122 1.109.358.21.227.323.611.323 1.153v2.595c0 .087-.026.157-.069.192-.044.044-.123.061-.228.061h-.803c-.114 0-.193-.017-.236-.061-.044-.035-.061-.105-.061-.192V5.274c0-.192-.035-.332-.096-.401-.07-.07-.201-.114-.385-.114h-.052c-.192 0-.315.044-.385.114s-.096.21-.096.401v2.473c0 .087-.026.157-.07.192-.043.044-.122.061-.227.061h-.803c-.114 0-.193-.017-.236-.061-.044-.035-.062-.105-.062-.192V3.964c0-.087.018-.149.062-.183.043-.035.122-.062.236-.062h.41c.105 0 .175.018.219.044q.065.04.104.157l.053.166h.026c.28-.297.673-.445 1.197-.445m3.75.332v3.774c0 .087-.026.157-.07.192-.044.044-.122.061-.227.061h-.804c-.114 0-.192-.017-.236-.061-.044-.035-.061-.105-.061-.192V3.973c0-.088.017-.149.061-.192.044-.035.122-.062.236-.062h.804c.105 0 .183.027.227.062.044.043.07.104.07.192m-.647-.586h-.105c-.471 0-.707-.235-.707-.725V2.62c0-.48.236-.725.707-.725h.105q.708.002.708.725v.043c0 .49-.236.725-.708.725m3.911 4.692h-.088c-.847 0-1.45-.193-1.817-.586q-.498-.524-.498-1.782V4.637c0-.822.166-1.416.507-1.774.367-.393.978-.594 1.817-.594h.061c.655 0 1.223.131 1.713.385q.183.104.104.314l-.288.734q-.054.13-.148.13a.3.3 0 0 1-.166-.043c-.411-.192-.795-.297-1.154-.297h-.035c-.375 0-.629.105-.751.315-.113.192-.166.533-.166 1.04v.62q-.002.84.245 1.118c.157.183.437.27.821.27h.035c.349 0 .716-.078 1.083-.244.053-.018.105-.035.14-.035q.105 0 .157.183l.149.63c.017.07.026.13.026.165 0 .105-.087.184-.262.245a4 4 0 0 1-1.485.28m3.639-3.888h.026c.192-.314.515-.472.978-.472h.35c.087 0 .157.018.192.053s.061.096.061.192v.638c0 .096-.017.157-.052.192q-.052.052-.184.052h-.262c-.323 0-.541.061-.664.184-.105.105-.148.306-.148.603v2.114c0 .087-.027.157-.07.192-.044.044-.122.061-.227.061h-.804c-.114 0-.192-.017-.236-.061-.044-.035-.061-.105-.061-.192V3.964c0-.087.017-.149.061-.183.044-.035.122-.062.236-.062h.419a.4.4 0 0 1 .21.044.35.35 0 0 1 .105.157zm4.169 2.76h.096c.297 0 .611-.034.926-.113q.129-.026.166-.026.131.002.157.148l.07.437c.018.123.035.201.035.236 0 .105-.079.184-.227.236-.402.14-.848.21-1.319.21h-.166q-1.075 0-1.52-.446a1.25 1.25 0 0 1-.35-.594c-.061-.227-.087-.533-.087-.909v-.489c0-.76.175-1.293.524-1.607.297-.262.751-.393 1.372-.393h.122c.611 0 1.057.148 1.319.437.28.314.419.83.419 1.563v.455c0 .166-.087.244-.253.244h-2.097v.07c0 .21.053.35.175.428.114.079.323.114.638.114m-.813-1.52h.961c.07 0 .105-.034.105-.113v-.14a.84.84 0 0 0-.087-.402c-.07-.104-.21-.157-.402-.157h-.079c-.174 0-.297.044-.367.122q-.13.158-.131.472zm5.487 1.023v-1.11q0-.329-.105-.463c-.079-.087-.218-.14-.411-.14h-.087c-.192 0-.323.053-.402.149-.087.096-.122.367-.122.821v.385c0 .419.043.681.131.768.07.088.201.123.402.123h.096c.166 0 .288-.035.375-.114.079-.079.123-.218.123-.42m-.018-2.656h.018V2.339c0-.087.017-.148.061-.192.044-.035.122-.061.236-.061h.812a.37.37 0 0 1 .227.06.3.3 0 0 1 .062.193v3.975c0 .611-.114 1.03-.341 1.275a1.36 1.36 0 0 1-.603.376c-.245.079-.568.114-.978.114h-.149c-.646 0-1.109-.131-1.406-.394-.306-.262-.455-.75-.455-1.476V5.51c0-.699.14-1.188.437-1.467.28-.262.664-.402 1.162-.402h.105q.498 0 .812.157m3.663.175v3.774c0 .087-.026.157-.07.192-.043.044-.122.061-.227.061h-.803c-.114 0-.193-.017-.236-.061-.044-.035-.061-.105-.061-.192V3.973c0-.088.017-.149.061-.192.043-.035.122-.062.236-.062h.803a.37.37 0 0 1 .227.062c.044.043.07.104.07.192m-.646-.586h-.105c-.472 0-.708-.235-.708-.725V2.62c0-.48.236-.725.708-.725h.105q.708.002.707.725v.043c0 .49-.235.725-.707.725m4.286 3.792v.498c0 .13-.026.218-.061.262s-.114.061-.219.061h-.699c-.629 0-1.048-.105-1.24-.323-.175-.184-.253-.533-.253-1.057V4.81h-.472c-.087 0-.14-.008-.175-.043s-.044-.088-.044-.175v-.446c0-.104.009-.174.044-.21.026-.034.088-.06.184-.087l.463-.113V2.88c0-.088.017-.149.061-.192.043-.035.122-.062.236-.062h.803a.37.37 0 0 1 .227.062c.044.043.07.104.07.192v.838h.725c.088 0 .14.018.175.053s.053.096.053.2v.586q0 .158-.053.21c-.035.035-.087.043-.175.043h-.725v1.651c0 .158.018.254.07.306q.079.09.341.088h.384c.105 0 .184.026.219.07.035.043.061.13.061.253m2.024.087v.088c0 .489-.236.725-.699.725h-.096c-.472 0-.699-.236-.699-.725v-.088c0-.253.052-.437.175-.541.113-.105.288-.166.524-.166h.096c.227 0 .402.06.524.166.114.104.175.288.175.541"/></svg>