<svg xmlns="http://www.w3.org/2000/svg" fill="none" viewBox="0 0 156 55"><path fill="#fff" d="M1.232 4.824.616 1.996c.812-.56 2.38-1.092 4.172-1.092 3.584 0 5.264 2.184 5.264 4.648 0 1.932-1.288 3.808-3.192 4.284v.056c2.212.448 3.752 2.128 3.752 4.732 0 3.612-3.08 5.6-6.468 5.6-1.568 0-2.94-.364-3.808-.84l.532-2.996c.812.476 1.876.756 2.912.756 1.96 0 2.996-1.12 2.996-2.632 0-2.1-1.736-2.94-3.724-2.94H2.52V8.8h.364c1.68 0 3.36-.812 3.36-2.548 0-1.316-.812-2.212-2.38-2.212-.868 0-1.904.364-2.632.784m17.987 10.864H15.83L14.99 20h-3.556l4.088-18.872h4.396L23.587 20H20.03zm-3.024-2.856h2.688l-.616-3.948c-.196-1.148-.448-3.024-.616-4.284h-.084c-.196 1.26-.476 3.22-.672 4.312zm9.464-11.704h9.632v3.136H29.3v3.948c.532-.112.952-.14 1.484-.14 1.624 0 3.052.504 4.088 1.4 1.12.98 1.792 2.464 1.792 4.368 0 1.82-.56 3.276-1.568 4.284-1.288 1.372-3.304 2.016-6.02 2.016-1.4 0-2.576-.084-3.416-.196zm3.668 9.968v6.048c.252.056.504.056.812.056.868 0 1.568-.336 2.016-.896.476-.56.7-1.344.7-2.184 0-.868-.252-1.652-.728-2.184-.476-.56-1.148-.924-1.96-.924a4 4 0 0 0-.84.084M44.24.904c4.564 0 5.852 5.012 5.852 9.324 0 7.112-2.52 9.996-6.104 9.996-4.284 0-5.964-4.536-5.964-9.716 0-5.152 2.044-9.604 6.216-9.604m-.14 3.192c-1.456 0-2.268 2.408-2.268 6.468 0 4.284.812 6.468 2.296 6.468 1.54 0 2.128-2.8 2.128-6.636 0-3.304-.504-6.3-2.156-6.3M54.09 20V4.516h-3.332V1.128h10.36v3.388h-3.36V20zm14.074-4.312h-3.388L63.936 20H60.38l4.088-18.872h4.396L72.532 20h-3.556zm-3.024-2.856h2.688l-.616-3.948c-.196-1.148-.448-3.024-.616-4.284h-.084c-.196 1.26-.476 3.22-.672 4.312zM6.916 34.904c4.564 0 5.852 5.012 5.852 9.324 0 7.112-2.52 9.996-6.104 9.996C2.38 54.224.7 49.688.7 44.508c0-5.152 2.044-9.604 6.216-9.604m-.14 3.192c-1.456 0-2.268 2.408-2.268 6.468 0 4.284.812 6.468 2.296 6.468 1.54 0 2.128-2.8 2.128-6.636 0-3.304-.504-6.3-2.156-6.3M31.434 54l-.337-6.608c-.084-1.792-.224-4.228-.168-6.244h-.083a82 82 0 0 1-1.204 5.796l-1.625 6.748h-2.604l-1.567-6.636c-.364-1.512-.869-3.864-1.148-5.908h-.085a209 209 0 0 1-.28 6.3L22.027 54H18.86l1.372-18.872h3.864l1.512 6.832c.532 2.38 1.008 4.48 1.344 6.608h.056c.28-2.1.7-4.228 1.204-6.608l1.485-6.832h3.864L34.71 54zm5.956-18.872h3.248V39.3c0 3.472-.224 6.72-.364 8.68h.056c.532-1.624 1.484-4.088 2.044-5.544l2.772-7.308h3.332V54h-3.22v-4.256c0-3.78.14-6.58.224-8.484h-.056c-.42 1.708-1.26 3.976-1.876 5.544L40.778 54H37.39zm14.355 0h3.584v8.204h.28l3.08-8.204h4.032l-4.34 8.736c1.932.728 2.576 2.492 3.108 4.788.42 1.82.728 3.612 1.288 5.348H59.11c-.448-1.344-.728-2.884-1.036-4.368-.448-2.212-.952-3.64-2.464-3.64h-.28V54h-3.584zM64.46 54V35.408c1.036-.224 2.436-.364 3.836-.364 2.184 0 3.892.308 5.124 1.456 1.12.98 1.624 2.548 1.624 4.144 0 2.044-.616 3.472-1.596 4.536-1.176 1.232-3.08 1.792-4.592 1.792h-.728V54zm3.668-15.848v5.824c.168.056.364.056.588.056 1.848 0 2.688-1.316 2.688-3.08 0-1.652-.672-2.94-2.38-2.94-.336 0-.672.056-.896.14m14.42-3.248c4.565 0 5.853 5.012 5.853 9.324 0 7.112-2.52 9.996-6.104 9.996-4.284 0-5.964-4.536-5.964-9.716 0-5.152 2.044-9.604 6.216-9.604m-.14 3.192c-1.455 0-2.267 2.408-2.267 6.468 0 4.284.812 6.468 2.296 6.468 1.54 0 2.128-2.8 2.128-6.636 0-3.304-.504-6.3-2.156-6.3m13.397-3.64h3.22v1.428c3.388.448 5.964 3.108 5.964 8.54 0 5.796-2.604 8.232-5.964 8.708v1.54h-3.248v-1.54c-3.416-.504-5.964-2.912-5.964-8.624 0-5.544 3.052-8.176 5.992-8.624zm0 15.988v-11.9c-1.12.336-2.324 1.848-2.324 6.02 0 3.892 1.176 5.628 2.324 5.88m3.192-11.9v11.9c1.232-.252 2.324-1.764 2.324-5.992 0-4.284-1.26-5.656-2.324-5.908m8.847-3.416h9.828V54h-3.668V38.32h-2.8v4.984c0 4.34-.28 8.148-2.66 9.996-.7.56-1.596.924-2.52.924l-.784-3.108c.448-.112.924-.336 1.26-.672 1.092-1.12 1.344-3.136 1.344-6.804zm18.373-.224c4.564 0 5.852 5.012 5.852 9.324 0 7.112-2.52 9.996-6.104 9.996-4.284 0-5.964-4.536-5.964-9.716 0-5.152 2.044-9.604 6.216-9.604m-.14 3.192c-1.456 0-2.268 2.408-2.268 6.468 0 4.284.812 6.468 2.296 6.468 1.54 0 2.128-2.8 2.128-6.636 0-3.304-.504-6.3-2.156-6.3M134.405 54V35.408c1.036-.224 2.436-.364 3.836-.364 2.184 0 3.892.308 5.124 1.456 1.12.98 1.624 2.548 1.624 4.144 0 2.044-.616 3.472-1.596 4.536-1.176 1.232-3.08 1.792-4.592 1.792h-.728V54zm3.668-15.848v5.824c.168.056.364.056.588.056 1.848 0 2.688-1.316 2.688-3.08 0-1.652-.672-2.94-2.38-2.94-.336 0-.672.056-.896.14m17.109 4.508v3.052h-4.312v5.096h4.872V54h-8.54V35.128h8.204v3.192h-4.536v4.34z"/></svg>