<svg xmlns="http://www.w3.org/2000/svg" fill="none" viewBox="0 0 86 18"><rect width="85.488" height="17.595" fill="#01748c" rx="8.798"/><path fill="#fff" d="M12.314 10.041v2.06c0 .084-.019.14-.047.16q-.044.039-.16.037H11.6q-.127.002-.17-.038c-.028-.019-.037-.075-.037-.16V6.516q0-.155.056-.226a.4.4 0 0 1 .198-.084c.376-.047.836-.075 1.382-.075.799 0 1.372.14 1.73.423.357.282.535.761.535 1.42v.15c0 1.288-.742 1.927-2.228 1.927-.348 0-.601 0-.752-.01m.141-3.14c-.094.01-.14.066-.14.18v2.218c.13.01.328.01.591.01q.79 0 1.129-.255c.225-.169.338-.489.338-.95v-.112c0-.404-.103-.696-.3-.865-.208-.17-.546-.254-1.026-.254q-.352 0-.592.028m6.373 3c0-.546-.057-.931-.151-1.157-.132-.291-.423-.442-.865-.442-.451 0-.733.15-.865.442-.103.226-.15.611-.15 1.156v.188c0 .555.047.94.15 1.157.132.3.414.442.865.442.442 0 .733-.141.865-.442.094-.216.15-.602.15-1.157V9.9m.883-.066v.32c0 .855-.16 1.438-.47 1.748q-.482.48-1.429.48c-.64 0-1.11-.16-1.429-.48-.32-.31-.47-.893-.47-1.749v-.32c0-.846.15-1.428.47-1.748s.79-.48 1.43-.48c.629 0 1.109.16 1.428.48.31.32.47.902.47 1.749m2.842 1.833c.395 0 .677-.094.837-.292.15-.197.235-.61.235-1.231v-.301c0-.564-.076-.95-.226-1.175q-.225-.339-.818-.339c-.338 0-.601.085-.77.254q-.255.254-.255.875v1.212q0 .592.226.79c.15.141.404.207.77.207m-.997-5.566v1.909h.02c.244-.263.639-.404 1.174-.404.611 0 1.053.178 1.335.526q.423.521.423 1.664v.376c0 .809-.16 1.373-.48 1.711s-.817.498-1.503.498c-.63 0-1.09-.112-1.392-.357-.3-.235-.441-.658-.441-1.279V6.102c0-.112.056-.169.188-.169h.488c.066 0 .113.019.141.038a.19.19 0 0 1 .047.131m4.877 1.758v4.268c0 .066-.018.113-.047.132q-.042.04-.14.038h-.49c-.131 0-.187-.057-.187-.17V7.86c0-.112.056-.169.188-.169h.488c.066 0 .113.019.141.038a.19.19 0 0 1 .047.131m-.996-1.316v-.066c0-.178.047-.31.15-.404q.141-.14.395-.14h.047c.357 0 .536.187.536.544v.066c0 .367-.179.545-.536.545h-.047c-.17 0-.3-.037-.395-.131-.103-.094-.15-.226-.15-.414m5.635 2.943v.677c0 .188-.094.272-.264.272h-2.425c.01.47.094.79.244.969s.452.263.903.263c.357 0 .696-.057.996-.179.076-.019.123-.037.15-.037.048 0 .085.037.114.103l.065.226q.045.168.047.197 0 .084-.112.141c-.386.179-.837.263-1.363.263-.724 0-1.223-.169-1.505-.507q-.423-.508-.423-1.72v-.32c0-.762.141-1.326.423-1.683s.752-.545 1.42-.545q.86 0 1.297.45c.282.302.433.781.433 1.43m-2.698.244h1.739c.075 0 .122-.037.122-.131q0-.691-.197-.988c-.132-.188-.367-.291-.715-.291-.376 0-.63.113-.761.329-.132.216-.188.573-.188 1.081m4.36-1.899.047.46h.019c.122-.206.273-.366.451-.46.17-.094.414-.14.715-.14h.188c.075 0 .122.018.15.037a.19.19 0 0 1 .047.131v.414c0 .113-.066.16-.197.16h-.207c-.386 0-.649.094-.8.263q-.208.255-.206.818v2.613c0 .066-.019.113-.047.132q-.042.04-.141.038h-.489c-.132 0-.188-.057-.188-.17V7.832c0-.094.047-.14.15-.14h.33q.166 0 .178.14m5.443 3.902v.404c0 .113-.057.16-.16.16h-2.915q-.208 0-.206-.17v-.188c0-.112.056-.263.188-.46l1.964-3.056h-1.89c-.112 0-.159-.047-.159-.16V7.86c0-.056.01-.103.028-.131.02-.02.057-.038.132-.038h2.839c.094 0 .15.057.15.15v.189c0 .112-.084.3-.244.545l-1.946 2.99h2.059c.103 0 .16.056.16.169m5.611.432-.038-.273h-.018c-.16.33-.536.49-1.129.49h-.291c-.93 0-1.391-.452-1.391-1.354v-.15c0-.509.15-.885.45-1.11.245-.198.734-.301 1.449-.301h.225c.207 0 .405.01.574.028v-.395c0-.291-.075-.489-.216-.601q-.223-.17-.715-.17c-.32 0-.658.047-1.025.141a1 1 0 0 1-.197.038c-.066 0-.104-.038-.122-.132l-.038-.178a1.3 1.3 0 0 1-.037-.245c0-.065.037-.112.131-.14a4.6 4.6 0 0 1 1.363-.207c.602 0 1.044.122 1.316.357.264.244.405.658.405 1.24v2.962c0 .094-.057.132-.15.132h-.367c-.104 0-.16-.038-.179-.132m-.17-1.288v-.677a4 4 0 0 0-.507-.028h-.413c-.339 0-.574.056-.706.15q-.197.156-.197.564v.132c0 .245.047.414.15.508.094.103.264.15.508.15h.31c.282 0 .498-.056.64-.188.14-.131.216-.329.216-.61m2.883 1.128v1.786c0 .066-.019.113-.047.132q-.042.04-.141.038h-.489c-.131 0-.188-.057-.188-.17V7.851c0-.103.047-.16.15-.16h.33c.094 0 .15.047.169.132l.056.3h.019c.291-.338.752-.516 1.373-.516.601 0 1.034.16 1.316.479.272.32.413.874.413 1.664v.423c0 .761-.14 1.316-.404 1.673-.273.358-.733.536-1.391.536-.527 0-.912-.122-1.157-.376zm1.034-3.676c-.385 0-.658.085-.808.245-.15.17-.226.432-.226.799v1.278q0 .538.254.78c.17.16.432.236.79.236.394 0 .667-.104.817-.33q.215-.335.217-1.193v-.31c0-.564-.075-.96-.217-1.176-.15-.216-.423-.329-.827-.329m3.795-2.228v4.955c0 .188.02.32.076.395q.07.112.31.112h.235a.2.2 0 0 1 .122.038c.019.019.038.066.038.122v.404c0 .113-.057.17-.15.17h-.405q-.593 0-.846-.254c-.17-.17-.245-.451-.245-.856V6.102c0-.112.057-.169.188-.169h.49c.065 0 .112.019.14.038a.19.19 0 0 1 .047.131m2.572 1.758v4.268c0 .066-.019.113-.047.132q-.042.04-.14.038h-.49c-.131 0-.188-.057-.188-.17V7.86c0-.112.057-.169.188-.169h.49c.065 0 .112.019.14.038a.19.19 0 0 1 .047.131m-.996-1.316v-.066c0-.178.047-.31.15-.404q.141-.14.395-.14h.047c.357 0 .536.187.536.544v.066c0 .367-.179.545-.536.545h-.047c-.17 0-.3-.037-.395-.131-.103-.094-.15-.226-.15-.414m3.134 3.695v1.89c0 .065-.019.112-.047.131q-.042.04-.141.038h-.489c-.132 0-.188-.057-.188-.17V6.102c0-.112.056-.169.188-.169h.489c.066 0 .113.019.14.038a.19.19 0 0 1 .048.131v3.375h.357c.075 0 .132-.028.179-.103L57.6 7.823c.057-.085.142-.132.264-.132h.545c.15 0 .188.066.113.188l-1.307 1.89a.17.17 0 0 0-.038.094c0 .037.01.075.038.103l1.24 1.965c.095.16.151.254.151.282 0 .057-.047.085-.131.085h-.555c-.122 0-.216-.047-.273-.141l-1.118-1.834a.19.19 0 0 0-.16-.084zm5.926 1.927-.038-.273h-.018c-.16.33-.536.49-1.129.49h-.291c-.93 0-1.391-.452-1.391-1.354v-.15c0-.509.15-.885.45-1.11.245-.198.734-.301 1.449-.301h.225c.207 0 .404.01.574.028v-.395c0-.291-.075-.489-.216-.601q-.223-.17-.715-.17c-.32 0-.658.047-1.025.141a1 1 0 0 1-.197.038c-.066 0-.103-.038-.122-.132l-.038-.178a1.3 1.3 0 0 1-.038-.245c0-.065.038-.112.132-.14a4.6 4.6 0 0 1 1.363-.207c.602 0 1.044.122 1.316.357.264.244.405.658.405 1.24v2.962c0 .094-.057.132-.15.132h-.367c-.104 0-.16-.038-.18-.132m-.17-1.288v-.677a4 4 0 0 0-.507-.028h-.414c-.338 0-.573.056-.705.15q-.197.156-.197.564v.132c0 .245.047.414.15.508.094.103.264.15.508.15h.31c.282 0 .498-.056.64-.188.14-.131.216-.329.216-.61m4.98.696.056.197c.028.104.047.179.047.216 0 .076-.047.123-.141.16-.357.16-.78.235-1.27.235-.62 0-1.071-.131-1.344-.404-.347-.32-.517-.94-.517-1.843v-.3c0-.48.038-.847.113-1.11.075-.254.197-.47.386-.648.329-.31.799-.47 1.41-.47.545 0 1.006.131 1.4.394.057.038.085.085.085.123s-.038.112-.094.225l-.132.245q-.056.096-.112.094a.18.18 0 0 1-.113-.038c-.339-.207-.668-.31-1.006-.31-.339 0-.583.075-.752.225a.74.74 0 0 0-.216.358 1.4 1.4 0 0 0-.076.395c-.01.112-.01.31-.01.592v.15q-.002 1.001.236 1.298c.17.206.451.31.856.31q.48 0 .93-.17c.057-.018.104-.037.141-.037.057 0 .094.038.122.113m2.009-3.714v4.287c0 .611-.104 1.044-.292 1.307-.244.348-.695.517-1.353.517h-.292c-.113 0-.16-.047-.16-.15v-.452c0-.094.047-.15.141-.15h.217c.366 0 .601-.085.714-.254.103-.17.16-.47.16-.912V7.86c0-.112.056-.169.188-.169h.489c.066 0 .113.019.14.038a.19.19 0 0 1 .048.131m-.997-1.316v-.066c0-.178.047-.31.15-.404q.142-.14.395-.14h.047c.358 0 .536.187.536.544v.066c0 .367-.178.545-.535.545h-.047c-.17 0-.301-.037-.395-.131-.104-.094-.15-.226-.15-.414m5.644 2.933v.687c0 .188-.094.272-.264.272h-2.425c.01.47.094.79.245.969.15.178.45.263.902.263.357 0 .696-.057.996-.179.076-.019.123-.037.15-.037.048 0 .085.037.114.103l.066.226c.018.084.037.14.037.178q0 .085-.113.141c-.32.188-.554.376-.695.555a.98.98 0 0 0-.207.611c0 .235.113.348.348.348q.21 0 .45-.085c.057-.019.085-.028.095-.028.037 0 .066.028.075.085l.038.169a1 1 0 0 1 .028.16q0 .07-.113.113c-.235.093-.47.14-.696.14-.639 0-.95-.244-.95-.742q0-.634.678-1.072a3 3 0 0 1-.404.028q-1.084 0-1.505-.507-.423-.508-.423-1.72v-.32c0-.762.141-1.326.423-1.683s.752-.545 1.43-.545c.573 0 1.005.15 1.287.441.282.301.433.771.433 1.43m-2.698.254h1.739c.075 0 .122-.037.122-.131q0-.691-.197-.988c-.132-.188-.367-.291-.715-.291-.376 0-.63.113-.761.329-.132.216-.188.573-.188 1.081"/></svg>