<svg xmlns="http://www.w3.org/2000/svg" fill="none" viewBox="0 0 540 38"><path fill="#fff" d="M4.502 18.434c.906-.88 2.2-1.346 3.856-1.346h.232c1.605 0 2.743.466 3.442 1.346.62.828.931 2.225.931 4.243v1.941c0 1.087-.103 1.992-.258 2.665-.181.673-.492 1.242-.932 1.682-.88.854-2.07 1.268-3.622 1.268h-.285q-1.474 0-2.406-.544v3.985c0 .388-.078.647-.207.75-.156.104-.44.156-.88.156H2.406c-.44 0-.724-.052-.88-.181-.155-.104-.206-.363-.206-.725V18.15c0-.31.051-.517.207-.647.129-.103.362-.18.698-.18h1.087c.31 0 .543.051.673.103.103.077.207.233.284.44l.181.569zm.958 3.674v3.312c0 .595.103 1.01.362 1.242.233.233.62.337 1.164.337h.233c.595 0 1.01-.156 1.268-.518q.31-.465.31-2.251v-1.113c0-1.242-.103-2.018-.31-2.303-.259-.31-.673-.465-1.294-.465h-.18c-.57 0-.958.129-1.217.388-.233.233-.336.698-.336 1.371m14.364 4.528h.828c.258 0 .465.078.569.181.103.13.181.363.181.699v1.604c0 .363-.078.595-.181.699-.104.13-.31.181-.57.181h-1.966c-1.294 0-2.2-.233-2.717-.75-.517-.492-.776-1.372-.776-2.614V13.233c0-.259.052-.44.181-.57.13-.103.362-.18.699-.18h2.38c.31 0 .544.077.673.18.13.13.207.311.207.57v12.912c0 .207.026.336.104.388.051.077.18.103.388.103m10.082-1.268v-7.296c0-.26.052-.44.181-.57.13-.103.363-.18.699-.18h2.38c.311 0 .544.077.673.18.13.13.207.31.207.57v7.659q0 2.367-1.164 3.415c-.828.725-2.277 1.087-4.399 1.087s-3.596-.362-4.399-1.087Q22.92 28.1 22.92 25.731v-7.66c0-.258.052-.44.181-.569.13-.103.362-.18.699-.18h2.38c.31 0 .544.077.673.18.13.13.207.31.207.57v7.296c0 .596.078.984.285 1.19.207.233.569.337 1.138.337.543 0 .932-.104 1.139-.336.18-.207.284-.596.284-1.19m6.251-3.88v-.337c0-1.268.337-2.226 1.01-2.898.776-.776 2.095-1.165 3.932-1.165h.259c1.449 0 2.717.156 3.778.466q.31.117.388.233c.052.104.078.233.052.44l-.285 2.122c-.052.336-.285.44-.699.336-1.035-.233-1.966-.362-2.742-.362h-.026c-.57 0-.983.052-1.19.155-.233.103-.337.285-.337.543v.078c0 .259.078.44.285.543s.595.233 1.19.337l1.216.259c1.113.258 1.915.646 2.38 1.164.466.517.7 1.32.7 2.38v.389c0 2.716-1.709 4.062-5.072 4.062h-.259c-1.708 0-3.13-.233-4.321-.699-.233-.077-.388-.18-.44-.31-.052-.104-.052-.31 0-.595l.362-1.708c.078-.492.362-.647.88-.492 1.19.414 2.225.595 3.105.595h.078c.569 0 .957-.051 1.19-.18.207-.104.336-.311.336-.596v-.078a.56.56 0 0 0-.284-.491q-.31-.156-1.242-.388l-1.139-.259q-1.707-.388-2.406-1.164c-.466-.518-.699-1.294-.699-2.38m23.053 5.148h.828c.258 0 .465.078.569.181.103.13.181.363.181.699v1.604c0 .363-.078.595-.181.699-.104.13-.31.181-.57.181h-1.966c-1.294 0-2.2-.233-2.717-.75-.517-.492-.776-1.372-.776-2.614v-2.794l-.854.543c-.336.207-.57.31-.673.31-.207 0-.284-.155-.284-.465v-2.407c0-.258.026-.44.13-.569.077-.103.232-.259.49-.44l1.191-.75v-6.831c0-.259.052-.44.181-.57.13-.103.362-.18.699-.18h2.38c.31 0 .544.077.673.18.13.13.207.311.207.57v4.192l1.164-.75c.31-.208.544-.311.673-.311.181 0 .285.155.285.466v2.406c0 .259-.052.466-.13.57a2.1 2.1 0 0 1-.491.44l-1.5.957v4.942c0 .207.025.336.103.388.051.077.18.103.388.103m10.763 2.303h-.052c-.57.88-1.708 1.294-3.39 1.294h-.388c-1.32 0-2.355-.337-3.079-1.01-.75-.672-1.113-1.681-1.113-2.975v-.285c0-1.397.389-2.406 1.19-2.975.803-.57 2.096-.854 3.908-.854h.18c.674 0 1.295.052 1.812.104v-.544c0-.543-.155-.931-.44-1.138-.31-.181-.828-.285-1.552-.285-.88 0-1.863.155-3.002.44-.31.078-.543.078-.647 0-.129-.078-.207-.233-.233-.492l-.206-1.371c-.052-.259-.052-.44-.052-.518 0-.31.207-.543.62-.672 1.32-.363 2.795-.57 4.425-.57 1.993 0 3.416.44 4.244 1.268.647.673.983 1.76.983 3.235v7.685c0 .388-.155.62-.414.724-.647.259-1.19.621-1.604 1.087-.44.465-.647.957-.647 1.449v.077q0 .699.699.699h.077c.31 0 .699-.052 1.113-.207.13-.026.233-.052.31-.052.13 0 .233.13.31.337l.13.543c.078.362.13.543.13.595 0 .155-.13.285-.363.388a5.8 5.8 0 0 1-2.096.388h-.155c-.88 0-1.578-.18-2.044-.569s-.698-.931-.698-1.604V33c0-.62.206-1.216.646-1.785.414-.57.984-1.035 1.656-1.397zm-.932-3.312v-.724q-.426-.078-1.242-.078h-.285q-.93 0-1.32.233c-.258.155-.361.466-.361.931v.104c0 .466.103.776.362.931.233.181.595.26 1.087.26h.18c.518 0 .906-.13 1.217-.389.233-.207.362-.647.362-1.268m12.646 1.268h.207c.698 0 1.449-.104 2.25-.336.26-.052.415-.078.492-.078.26 0 .415.155.466.44l.233 1.32c.052.362.104.595.104.698 0 .31-.233.544-.673.699-1.139.414-2.38.595-3.726.595h-.31c-1.864 0-3.235-.414-4.089-1.294q-1.32-1.32-1.32-4.424v-1.501c0-1.216.104-2.174.311-2.846a4.06 4.06 0 0 1 1.01-1.708c.905-.906 2.328-1.372 4.269-1.372h.258c1.553 0 2.898.285 3.985.854.31.181.492.388.492.647 0 .155-.078.414-.207.776l-.492 1.242q-.194.465-.543.466c-.104 0-.26-.026-.466-.13-.828-.336-1.604-.517-2.303-.517h-.104c-.672 0-1.164.181-1.474.492-.389.388-.57 1.19-.57 2.38v.88c0 1.061.156 1.785.518 2.174.336.362.906.543 1.682.543m10.016-6.288h-4.114c-.259 0-.44-.026-.543-.129s-.13-.31-.13-.621v-1.785c0-.31.026-.492.13-.595q.154-.156.543-.156h8.746c.258 0 .44.052.569.155.103.104.181.311.181.596v.491a3.3 3.3 0 0 1-.57 1.837l-4.45 6.314h4.425c.259 0 .414.052.517.155s.156.285.156.595v1.786q0 .465-.156.62c-.103.104-.258.13-.517.13h-8.901c-.543 0-.802-.233-.802-.75v-.596c0-.672.18-1.267.569-1.837zm14.035-3.519h.207c1.501 0 2.613.363 3.286 1.061.621.673.957 1.811.957 3.416v7.685c0 .258-.077.465-.207.569-.129.13-.362.181-.672.181h-2.381c-.336 0-.569-.052-.699-.181-.129-.104-.181-.31-.181-.57v-7.322c0-.57-.103-.983-.284-1.19-.207-.207-.595-.337-1.139-.337h-.155c-.569 0-.932.13-1.139.337s-.284.62-.284 1.19v7.323c0 .258-.078.465-.207.569-.13.13-.362.181-.673.181h-2.38c-.337 0-.57-.052-.7-.181-.129-.104-.18-.31-.18-.57V18.047c0-.259.052-.44.18-.544.13-.103.363-.18.7-.18h1.216c.31 0 .517.051.647.129q.193.115.31.465l.155.492h.078c.828-.88 1.992-1.32 3.545-1.32m11.107.984V29.25c0 .258-.078.465-.207.569-.13.13-.363.181-.673.181h-2.381c-.336 0-.569-.052-.698-.181-.13-.104-.181-.31-.181-.57V18.073c0-.26.051-.44.181-.57.129-.103.362-.18.698-.18h2.381c.31 0 .543.077.673.18.129.13.207.31.207.57m-1.915-1.734h-.311c-1.397 0-2.095-.699-2.095-2.148v-.129c0-1.423.698-2.148 2.095-2.148h.311c1.397 0 2.096.725 2.096 2.148v.13c0 1.448-.699 2.147-2.096 2.147m10.754 10.557h.285c.88 0 1.811-.104 2.743-.336.258-.052.414-.078.491-.078.259 0 .414.155.466.44l.207 1.294c.052.362.103.595.103.698 0 .31-.232.544-.672.699-1.191.414-2.51.62-3.907.62h-.492q-3.183 0-4.502-1.319a3.7 3.7 0 0 1-1.035-1.76c-.181-.672-.259-1.578-.259-2.69v-1.45c0-2.25.517-3.829 1.552-4.76.88-.776 2.226-1.165 4.063-1.165h.362c1.811 0 3.131.44 3.907 1.294.828.932 1.242 2.458 1.242 4.632v1.345c0 .492-.259.725-.75.725h-6.21v.207c0 .62.155 1.035.517 1.268.337.232.958.336 1.889.336m-2.406-4.502h2.846c.207 0 .311-.104.311-.337v-.414c0-.517-.104-.905-.259-1.19-.207-.31-.621-.466-1.19-.466h-.233c-.518 0-.88.13-1.087.363q-.388.465-.388 1.397zm22.144-3.544h.252c1.008 0 1.859-.189 2.583-.567v-.441c0-1.733-.189-2.898-.535-3.497s-.977-.913-1.922-.913h-.283q-2.363 0-2.363 2.552v.283c0 .945.158 1.607.536 1.985.378.409.945.598 1.732.598m-5.701 10.521c-.378-.126-.536-.347-.536-.725q0-.187.095-.567l.504-2.015c.126-.505.504-.694 1.071-.536 1.512.473 2.835.693 3.969.693h.094c1.134 0 1.922-.284 2.426-.913q.756-.898.85-2.835c-1.039.44-2.173.63-3.402.63h-.346c-2.237 0-3.843-.536-4.851-1.67-1.008-1.102-1.481-2.803-1.481-5.071v-.442c0-2.016.599-3.622 1.827-4.819 1.229-1.165 3.024-1.764 5.387-1.764h.441c2.835 0 4.851.756 5.985 2.205s1.732 3.843 1.732 7.182v.756c0 1.796-.157 3.339-.472 4.662s-.725 2.394-1.229 3.15a5.7 5.7 0 0 1-1.921 1.858c-.756.473-1.512.788-2.268.914-.756.158-1.638.22-2.615.22h-.031c-1.827 0-3.591-.283-5.229-.913m37.323-9.198v8.915c0 .314-.094.567-.252.692-.157.158-.441.221-.819.221h-2.898c-.409 0-.693-.063-.85-.22-.158-.127-.221-.379-.221-.694v-8.914c0-.693-.126-1.197-.346-1.449-.252-.252-.725-.41-1.386-.41h-.063c-.693 0-1.134.158-1.386.41s-.347.756-.347 1.449v8.915c0 .314-.094.567-.252.692-.157.158-.441.221-.819.221h-2.898c-.409 0-.693-.063-.85-.22-.158-.127-.221-.379-.221-.694V15.448c0-.315.063-.535.221-.661.157-.127.441-.221.85-.221h1.481c.378 0 .63.063.787.158q.237.141.378.566l.189.599h.095c1.008-1.071 2.425-1.607 4.315-1.607h.126c1.796 0 3.182.505 4.158 1.45 1.008-.945 2.457-1.45 4.284-1.45h.126c1.827 0 3.182.441 4.001 1.292.756.819 1.165 2.205 1.165 4.158v9.356c0 .314-.094.567-.252.692-.157.158-.441.221-.819.221h-2.898c-.409 0-.693-.063-.85-.22-.158-.127-.221-.379-.221-.694v-8.914c0-.693-.126-1.197-.346-1.449-.252-.252-.725-.41-1.386-.41h-.063c-.693 0-1.134.158-1.386.41s-.347.756-.347 1.449m16.658-4.693v13.608c0 .314-.094.567-.252.692-.157.158-.441.221-.819.221h-2.898c-.409 0-.693-.063-.85-.22-.158-.127-.221-.379-.221-.694V15.48c0-.315.063-.536.221-.693.157-.127.441-.221.85-.221h2.898c.378 0 .662.095.819.22.158.158.252.379.252.694m-2.331-2.111h-.378c-1.701 0-2.551-.85-2.551-2.614v-.158c0-1.732.85-2.615 2.551-2.615h.378c1.701 0 2.552.883 2.552 2.615v.158c0 1.764-.851 2.614-2.552 2.614m13.092 12.852h.347c1.071 0 2.205-.126 3.339-.41.315-.062.504-.094.598-.094.315 0 .504.189.567.535l.252 1.575c.063.441.126.725.126.851 0 .378-.283.662-.819.85-1.449.505-3.055.756-4.756.756h-.599q-3.874 0-5.481-1.606a4.5 4.5 0 0 1-1.26-2.142c-.22-.819-.315-1.922-.315-3.276v-1.764c0-2.74.63-4.662 1.89-5.796 1.071-.945 2.709-1.418 4.946-1.418h.441c2.205 0 3.811.536 4.756 1.576 1.008 1.134 1.512 2.992 1.512 5.638v1.638c0 .599-.315.882-.913.882h-7.56v.252c0 .756.189 1.26.63 1.544.409.283 1.165.409 2.299.409m-2.929-5.481h3.465c.252 0 .378-.126.378-.41v-.503c0-.63-.126-1.103-.315-1.45-.252-.378-.756-.567-1.449-.567h-.284c-.63 0-1.071.158-1.323.441q-.472.567-.472 1.701zm10.742-1.102v-.41c0-1.544.41-2.709 1.229-3.528.945-.945 2.551-1.418 4.788-1.418h.315c1.764 0 3.307.19 4.599.567q.378.143.472.284c.063.126.095.284.063.536l-.346 2.582c-.063.41-.347.536-.851.41-1.26-.284-2.394-.441-3.339-.441h-.031c-.693 0-1.197.063-1.449.189-.284.126-.41.346-.41.662v.094c0 .315.095.535.347.662.252.125.724.283 1.449.409l1.48.315c1.355.315 2.331.787 2.898 1.418s.851 1.606.851 2.898v.472c0 3.307-2.079 4.945-6.174 4.945h-.315c-2.079 0-3.812-.283-5.261-.85-.283-.095-.472-.22-.535-.378-.063-.126-.063-.378 0-.724l.441-2.08c.094-.598.441-.787 1.071-.598 1.449.504 2.709.725 3.78.725h.094c.693 0 1.166-.064 1.449-.221.252-.126.41-.378.41-.724v-.095a.68.68 0 0 0-.347-.599q-.378-.189-1.512-.472l-1.386-.315q-2.079-.473-2.929-1.418c-.567-.63-.851-1.575-.851-2.897m19.786-4.158v13.608c0 .314-.094.567-.252.692-.157.158-.441.221-.819.221h-2.898c-.409 0-.693-.063-.85-.22-.158-.127-.221-.379-.221-.694V15.48c0-.315.063-.536.221-.693.157-.127.441-.221.85-.221h2.898c.378 0 .662.095.819.22.158.158.252.379.252.694m-2.331-2.111h-.378c-1.701 0-2.551-.85-2.551-2.614v-.158c0-1.732.85-2.615 2.551-2.615h.378c1.701 0 2.552.883 2.552 2.615v.158c0 1.764-.851 2.614-2.552 2.614m13.092 12.852h.347c1.071 0 2.205-.126 3.339-.41.315-.062.504-.094.598-.094.315 0 .504.189.567.535l.252 1.575c.063.441.126.725.126.851 0 .378-.283.662-.819.85a4.57 4.57 0 0 0-2.016 1.512c-.535.694-.787 1.386-.787 2.017v.094c0 .599.283.882.85.882h.158a3.7 3.7 0 0 0 1.291-.252c.158-.032.284-.063.378-.063.158 0 .284.157.378.41l.158.661c.094.441.157.662.157.725 0 .189-.157.346-.441.472a7 7 0 0 1-2.551.473h-.189c-1.103 0-1.922-.221-2.489-.694-.567-.472-.85-1.134-.85-2.016v-.094c0-.567.189-1.197.598-1.827.41-.63.945-1.134 1.638-1.575-.252.032-.598.032-1.039.032h-.599q-3.874 0-5.481-1.607a4.5 4.5 0 0 1-1.26-2.142c-.22-.819-.315-1.922-.315-3.276v-1.764c0-2.74.63-4.662 1.89-5.796 1.071-.945 2.709-1.418 4.946-1.418h.441c2.205 0 3.811.536 4.756 1.576 1.008 1.134 1.512 2.992 1.512 5.638v1.638c0 .599-.315.882-.913.882h-7.56v.252c0 .756.189 1.26.63 1.544.409.283 1.165.409 2.299.409m-2.929-5.481h3.465c.252 0 .378-.126.378-.41v-.503c0-.63-.126-1.103-.315-1.45-.252-.378-.756-.567-1.449-.567h-.284c-.63 0-1.071.158-1.323.441q-.472.567-.472 1.701zm18.397 5.481h.252c.85 0 1.764-.126 2.74-.41.315-.062.504-.094.599-.094.315 0 .504.189.567.535l.283 1.607c.063.441.126.724.126.85 0 .379-.283.662-.819.851-1.386.504-2.898.724-4.536.724h-.378c-2.268 0-3.937-.504-4.977-1.575q-1.606-1.605-1.606-5.386v-1.827c0-1.48.126-2.646.378-3.465a4.94 4.94 0 0 1 1.228-2.079c1.103-1.103 2.835-1.67 5.198-1.67h.315c1.89 0 3.528.347 4.851 1.04.378.22.598.473.598.787 0 .19-.094.505-.252.945l-.598 1.512q-.236.567-.662.567c-.126 0-.315-.031-.567-.157-1.008-.41-1.953-.63-2.803-.63h-.126c-.819 0-1.418.22-1.796.599-.472.472-.693 1.448-.693 2.898v1.07c0 1.292.189 2.174.63 2.646.41.442 1.103.662 2.048.662m20.968-10.71c-.441 2.961-1.26 6.237-2.457 9.86-1.228 3.622-2.709 7.055-4.441 10.269-.221.44-.504.661-.882.661-.252 0-.536-.063-.914-.252l-1.606-.693c-.567-.252-.819-.504-.819-.787 0-.127.031-.316.157-.536 1.071-2.173 1.701-3.433 1.827-3.78-.882-.315-1.543-1.008-2.047-2.142-.567-1.26-1.229-3.181-1.953-5.828q-1.087-3.968-1.607-6.803c-.063-.315-.031-.536.126-.693.158-.127.441-.221.819-.221h2.867c.346 0 .598.063.756.158.157.094.283.283.346.598.725 3.969 1.544 7.497 2.457 10.553h.158c.882-2.52 1.701-5.985 2.457-10.458q.047-.473.283-.662c.158-.126.41-.189.725-.189h2.898c.346 0 .598.095.724.22.126.127.158.379.126.725m12.753 14.723h-.311c-1.811 0-3.39-.233-4.735-.725-.569-.18-.828-.517-.725-1.035l.337-2.095c.052-.518.362-.7.905-.518 1.501.543 2.898.802 4.14.802h.13c.776 0 1.345-.103 1.682-.336.31-.207.491-.595.491-1.139v-.259c0-.517-.155-.853-.414-1.06-.284-.181-.828-.363-1.63-.518l-1.759-.336c-1.449-.259-2.484-.776-3.054-1.501-.595-.725-.879-1.734-.879-3.053v-.725c0-1.449.388-2.535 1.164-3.312.932-.931 2.665-1.397 5.149-1.397h.181c1.734 0 3.209.233 4.399.673.259.103.44.258.518.414.051.18.051.44-.026.75l-.44 1.889c-.104.466-.44.621-.958.44q-1.785-.543-3.415-.544h-.104c-.853 0-1.449.104-1.759.285-.336.207-.492.544-.492 1.01v.232c0 .414.104.725.337.88.207.181.672.336 1.345.466l1.967.388c1.552.31 2.613.802 3.208 1.423.569.62.88 1.708.88 3.234v.621c0 1.76-.492 3.028-1.449 3.83-.957.828-2.51 1.216-4.683 1.216m11.617-11.8c.906-.879 2.2-1.345 3.856-1.345h.232c1.605 0 2.743.466 3.442 1.346.621.828.931 2.225.931 4.243v1.941c0 1.087-.103 1.992-.258 2.665-.182.673-.492 1.242-.932 1.682-.88.854-2.07 1.268-3.622 1.268h-.285q-1.474 0-2.406-.544v3.985c0 .388-.078.647-.207.75-.156.104-.44.156-.88.156h-1.967c-.44 0-.724-.052-.879-.181-.156-.104-.207-.363-.207-.725V18.15c0-.31.051-.517.207-.647.129-.103.362-.18.698-.18h1.087c.31 0 .543.051.673.103.103.077.207.233.284.44l.181.569zm.958 3.675v3.312c0 .595.103 1.01.362 1.242.233.233.621.337 1.164.337h.233c.595 0 1.009-.156 1.268-.518q.31-.465.31-2.251v-1.113c0-1.242-.103-2.018-.31-2.303-.259-.31-.673-.465-1.294-.465h-.181c-.569 0-.957.129-1.216.388-.233.233-.336.698-.336 1.371m13.484.543v2.019c0 1.009.155 1.656.466 1.966.233.259.595.363 1.086.363h.104c.466 0 .828-.104 1.087-.363.31-.31.465-.957.465-1.966V22.65c0-.983-.155-1.655-.465-1.966-.259-.233-.621-.362-1.087-.362h-.104c-.491 0-.853.13-1.086.362-.311.31-.466.983-.466 1.967m7.374.156v1.682c0 1.293-.129 2.277-.388 3.001a3.7 3.7 0 0 1-1.242 1.734c-.854.672-2.173 1.009-3.985 1.009h-.31c-1.811 0-3.157-.337-3.985-1.01a3.7 3.7 0 0 1-1.242-1.733c-.259-.724-.388-1.708-.388-3.001v-1.656c0-1.268.129-2.251.388-2.976a3.9 3.9 0 0 1 1.242-1.76c.828-.672 2.174-1.009 3.985-1.009h.31c1.812 0 3.131.337 3.985 1.01a4 4 0 0 1 1.242 1.733c.259.725.388 1.708.388 2.976m10.315 4.76v1.476c0 .388-.078.646-.181.776-.104.13-.337.181-.647.181h-2.07c-1.863 0-3.105-.31-3.675-.957-.517-.544-.75-1.579-.75-3.131v-5.356h-1.397c-.259 0-.414-.026-.518-.13-.103-.103-.129-.258-.129-.517v-1.32c0-.31.026-.517.129-.62.078-.104.259-.182.544-.26l1.371-.336v-2.536c0-.258.052-.44.181-.569.13-.104.362-.181.699-.181h2.38c.311 0 .544.078.673.181.129.13.207.31.207.57v2.483h2.148c.258 0 .414.052.517.155s.155.285.155.596v1.733q0 .466-.155.621c-.103.104-.259.13-.517.13h-2.148v4.89c0 .466.052.75.207.906.155.18.492.258 1.009.258h1.139c.31 0 .543.078.647.207.103.13.181.389.181.75m6.149-9.495V29.25c0 .258-.077.465-.207.569-.129.13-.362.181-.672.181h-2.381c-.336 0-.569-.052-.698-.181-.13-.104-.182-.31-.182-.57V18.073c0-.26.052-.44.182-.57.129-.103.362-.18.698-.18h2.381c.31 0 .543.077.672.18.13.13.207.31.207.57m-1.914-1.734h-.311c-1.397 0-2.096-.699-2.096-2.148v-.129c0-1.423.699-2.148 2.096-2.148h.311c1.397 0 2.096.725 2.096 2.148v.13c0 1.448-.699 2.147-2.096 2.147m5.372 4.218h-1.397c-.259 0-.44-.026-.518-.104-.103-.078-.129-.259-.129-.543V18.64c0-.31.026-.543.103-.647.078-.104.259-.207.57-.285l1.371-.336V16.26c0-1.449.336-2.484 1.035-3.079q1.087-.93 3.415-.931h.259c1.035 0 1.915.103 2.691.284.259.078.44.181.518.31.051.13.077.337.051.622l-.155 1.63c-.052.259-.103.414-.181.466-.103.052-.285.077-.569.052-.673-.052-1.139-.104-1.449-.104h-.155c-.57 0-.906.078-1.061.233-.181.181-.259.492-.259.905v.673h2.148c.258 0 .414.052.517.155s.155.285.155.596v1.733q0 .466-.155.621c-.103.104-.259.13-.517.13h-2.148v8.694c0 .258-.078.465-.207.569-.129.13-.362.181-.673.181h-2.38c-.337 0-.57-.052-.699-.181-.129-.104-.181-.31-.181-.57zm19.873-2.459c-.363 2.433-1.035 5.124-2.019 8.1a55 55 0 0 1-3.648 8.435c-.181.362-.414.543-.725.543-.207 0-.439-.052-.75-.207l-1.32-.57c-.465-.206-.672-.413-.672-.646 0-.104.026-.259.129-.44.88-1.785 1.397-2.82 1.501-3.105-.725-.259-1.268-.828-1.682-1.76-.466-1.034-1.009-2.613-1.604-4.786q-.893-3.26-1.32-5.59c-.052-.258-.026-.44.104-.569.129-.103.362-.18.672-.18h2.355c.285 0 .492.051.621.129.129.077.233.232.285.491.595 3.26 1.267 6.159 2.018 8.668h.129c.725-2.07 1.397-4.916 2.018-8.59q.04-.389.233-.543c.13-.104.337-.156.595-.156h2.381c.285 0 .492.078.595.181.104.104.129.31.104.596m13.486-1.578h-.336c-.362 0-.725.026-1.139.052-.155.026-.207.13-.207.31v4.089h1.346c.931 0 1.552-.13 1.915-.44.31-.259.465-.75.465-1.527v-.647c0-.62-.155-1.087-.44-1.371-.31-.31-.853-.466-1.604-.466m-1.682 7.996v4.683c0 .543-.31.802-.905.802h-2.536c-.336 0-.569-.052-.699-.181-.155-.104-.207-.31-.207-.621V14.32q0-.621.233-.854c.155-.155.44-.259.906-.31.931-.078 2.38-.13 4.373-.13h.31c2.639 0 4.451.518 5.46 1.527.776.828 1.164 2.07 1.164 3.752v.88c0 1.94-.543 3.311-1.63 4.088-1.138.828-2.872 1.242-5.227 1.242zm13.258-5.797h.078c.569-.931 1.526-1.397 2.898-1.397h1.035c.259 0 .466.052.569.155.104.104.181.285.181.57v1.889c0 .284-.052.465-.155.569q-.156.155-.543.155h-.777c-.957 0-1.604.181-1.966.544-.311.31-.44.905-.44 1.785v6.262c0 .258-.078.465-.207.569-.129.13-.362.181-.673.181h-2.38c-.337 0-.57-.052-.699-.181-.129-.104-.181-.31-.181-.57V18.047c0-.259.052-.44.181-.544.129-.103.362-.18.699-.18h1.242c.284 0 .491.051.621.129q.194.154.31.465zm12.349 8.177h.284c.88 0 1.811-.104 2.743-.336.259-.052.414-.078.492-.078.258 0 .414.155.465.44l.207 1.294c.052.362.104.595.104.698 0 .31-.233.544-.673.699-1.19.414-2.51.62-3.907.62h-.492q-3.182 0-4.502-1.319a3.7 3.7 0 0 1-1.035-1.76c-.181-.672-.259-1.578-.259-2.69v-1.45c0-2.25.518-3.829 1.553-4.76.88-.776 2.225-1.165 4.062-1.165h.362c1.812 0 3.131.44 3.908 1.294.828.932 1.242 2.458 1.242 4.632v1.345c0 .492-.259.725-.751.725h-6.21v.207c0 .62.155 1.035.518 1.268.336.232.957.336 1.889.336m-2.407-4.502h2.846c.207 0 .311-.104.311-.337v-.414c0-.517-.104-.905-.259-1.19-.207-.31-.621-.466-1.19-.466h-.233c-.517 0-.88.13-1.087.363q-.387.465-.388 1.397zm20.339-.466v7.323c0 .258-.078.465-.207.569-.13.13-.363.181-.673.181h-2.381c-.336 0-.569-.052-.698-.181-.13-.104-.181-.31-.181-.57v-7.322c0-.57-.104-.983-.285-1.19-.207-.207-.595-.337-1.139-.337h-.051c-.57 0-.932.13-1.139.337s-.284.62-.284 1.19v7.323c0 .258-.078.465-.207.569-.13.13-.363.181-.673.181h-2.381c-.336 0-.569-.052-.698-.181-.13-.104-.181-.31-.181-.57V18.047c0-.259.051-.44.181-.544.129-.103.362-.18.698-.18h1.216c.311 0 .518.051.647.129q.195.115.311.465l.155.492h.078c.828-.88 1.992-1.32 3.545-1.32h.103c1.475 0 2.613.414 3.416 1.19.828-.776 2.018-1.19 3.519-1.19h.103c1.501 0 2.613.363 3.286 1.061.621.673.958 1.811.958 3.416v7.685c0 .258-.078.465-.207.569-.13.13-.363.181-.673.181h-2.381c-.336 0-.569-.052-.698-.181-.13-.104-.181-.31-.181-.57v-7.322c0-.57-.104-.983-.285-1.19-.207-.207-.595-.337-1.139-.337h-.051c-.57 0-.932.13-1.139.337s-.284.62-.284 1.19m13.683-3.855V29.25c0 .258-.078.465-.207.569-.129.13-.362.181-.673.181h-2.38c-.337 0-.569-.052-.699-.181-.129-.104-.181-.31-.181-.57V18.073c0-.26.052-.44.181-.57.13-.103.362-.18.699-.18h2.38c.311 0 .544.077.673.18.129.13.207.31.207.57m-1.915-1.734h-.31c-1.397 0-2.096-.699-2.096-2.148v-.129c0-1.423.699-2.148 2.096-2.148h.31c1.398 0 2.096.725 2.096 2.148v.13c0 1.448-.698 2.147-2.096 2.147m11.401 9.03v-7.296c0-.26.052-.44.182-.57.129-.103.362-.18.698-.18h2.381c.31 0 .543.077.672.18.13.13.207.31.207.57v7.659q0 2.367-1.164 3.415c-.828.725-2.277 1.087-4.399 1.087s-3.596-.362-4.398-1.087q-1.165-1.047-1.165-3.415v-7.66c0-.258.052-.44.181-.569.13-.103.363-.18.699-.18h2.38c.311 0 .544.077.673.18.13.13.207.31.207.57v7.296c0 .596.078.984.285 1.19.207.233.569.337 1.138.337.544 0 .932-.104 1.139-.336.181-.207.284-.596.284-1.19m17.766-3.441v7.323c0 .258-.078.465-.207.569-.13.13-.363.181-.673.181h-2.381c-.336 0-.569-.052-.698-.181-.13-.104-.181-.31-.181-.57v-7.322c0-.57-.104-.983-.285-1.19-.207-.207-.595-.337-1.138-.337h-.052c-.569 0-.932.13-1.139.337s-.284.62-.284 1.19v7.323c0 .258-.078.465-.207.569-.13.13-.363.181-.673.181h-2.381c-.336 0-.569-.052-.698-.181-.13-.104-.181-.31-.181-.57V18.047c0-.259.051-.44.181-.544.129-.103.362-.18.698-.18h1.217c.31 0 .517.051.646.129q.194.115.311.465l.155.492h.078c.828-.88 1.992-1.32 3.545-1.32h.103c1.475 0 2.614.414 3.416 1.19.828-.776 2.018-1.19 3.519-1.19h.103c1.501 0 2.614.363 3.286 1.061.621.673.958 1.811.958 3.416v7.685c0 .258-.078.465-.207.569-.13.13-.363.181-.673.181h-2.381c-.336 0-.569-.052-.698-.181-.13-.104-.181-.31-.181-.57v-7.322c0-.57-.104-.983-.285-1.19-.207-.207-.595-.337-1.138-.337h-.052c-.569 0-.932.13-1.139.337s-.284.62-.284 1.19m20.819 6.883h-.698c-3.675 0-5.486-1.656-5.486-4.994v-1.734c0-1.707.44-2.95 1.346-3.777.879-.803 2.251-1.217 4.062-1.217h.362c.337-1.863 1.708-2.82 4.14-2.82h1.268c.259 0 .414.052.518.13.077.103.129.284.129.543v1.423c0 .259-.052.414-.155.491-.104.104-.285.13-.518.13h-1.216c-.569 0-.957.13-1.19.388 1.941.517 2.924 2.096 2.924 4.71v1.733c0 1.863-.518 3.105-1.527 3.778.673.362 1.19.828 1.579 1.397.388.57.595 1.19.595 1.837v.181c0 2.562-2.044 3.83-6.081 3.83h-.492a14 14 0 0 1-5.071-.932c-.466-.155-.647-.491-.518-.983l.466-1.656c.13-.492.44-.673.932-.518 1.526.518 2.872.75 4.062.75h.362q2.251 0 2.251-1.319v-.078c0-.491-.258-.931-.776-1.345-.414.052-.854.052-1.268.052m-.44-3.235h.182c.569 0 .957-.103 1.216-.362.284-.285.44-.88.44-1.76v-1.008c0-.88-.156-1.45-.44-1.76-.259-.233-.647-.362-1.216-.362h-.182c-.569 0-.983.13-1.216.362-.31.31-.44.88-.44 1.76v1.009c0 .88.13 1.474.44 1.76.233.258.647.361 1.216.361m11.501-6.857h.077c.57-.931 1.527-1.397 2.898-1.397h1.035c.259 0 .466.052.57.155s.181.285.181.57v1.889c0 .284-.052.465-.155.569q-.156.155-.544.155h-.776c-.957 0-1.604.181-1.967.544-.31.31-.439.905-.439 1.785v6.262c0 .258-.078.465-.207.569-.13.13-.363.181-.673.181h-2.381c-.336 0-.569-.052-.698-.181-.13-.104-.181-.31-.181-.57V18.047c0-.259.051-.44.181-.544.129-.103.362-.18.698-.18h1.242c.285 0 .492.051.621.129q.194.154.311.465zm13.365 10.221h-.052c-.569.88-1.708 1.294-3.39 1.294h-.388c-1.319 0-2.354-.337-3.079-1.01-.75-.672-1.113-1.681-1.113-2.975v-.285c0-1.397.389-2.406 1.191-2.975.802-.57 2.096-.854 3.907-.854h.181c.673 0 1.294.052 1.811.104v-.544c0-.543-.155-.931-.44-1.138-.31-.181-.828-.285-1.552-.285-.88 0-1.863.155-3.002.44-.31.078-.543.078-.647 0-.129-.078-.207-.233-.232-.492l-.207-1.371c-.052-.233-.052-.414-.052-.518 0-.31.207-.543.621-.672 1.319-.363 2.794-.57 4.424-.57 1.993 0 3.416.44 4.244 1.268.647.673.983 1.76.983 3.235v7.685c0 .258-.077.465-.207.569-.129.103-.362.155-.673.155h-1.216c-.31 0-.517-.026-.647-.104-.129-.077-.232-.232-.31-.491zm-.932-3.312v-.724q-.426-.078-1.242-.078h-.284q-.931 0-1.32.233c-.259.155-.362.466-.362.931v.104c0 .466.103.776.362.931.233.181.595.26 1.087.26h.181c.517 0 .905-.13 1.216-.389.233-.207.362-.647.362-1.268m14.692 1.94v1.476c0 .388-.077.646-.181.776-.103.13-.336.181-.647.181h-2.07c-1.863 0-3.105-.31-3.674-.957-.517-.544-.75-1.579-.75-3.131v-5.356h-1.398c-.258 0-.414-.026-.517-.13-.104-.103-.129-.258-.129-.517v-1.32c0-.31.025-.517.129-.62.078-.104.259-.182.543-.26l1.372-.336v-2.536c0-.258.051-.44.181-.569.129-.104.362-.181.698-.181h2.381c.31 0 .543.078.673.181.129.13.207.31.207.57v2.483h2.147c.259 0 .414.052.518.155.103.104.155.285.155.596v1.733q0 .466-.155.621c-.104.104-.259.13-.518.13h-2.147v4.89c0 .466.051.75.207.906.155.18.491.258 1.009.258h1.138c.311 0 .544.078.647.207.104.13.181.389.181.75m6.15-9.495V29.25c0 .258-.078.465-.207.569-.129.13-.362.181-.673.181h-2.38c-.337 0-.569-.052-.699-.181-.129-.104-.181-.31-.181-.57V18.073c0-.26.052-.44.181-.57.13-.103.362-.18.699-.18h2.38c.311 0 .544.077.673.18.129.13.207.31.207.57m-1.915-1.734h-.31c-1.397 0-2.096-.699-2.096-2.148v-.129c0-1.423.699-2.148 2.096-2.148h.31c1.398 0 2.096.725 2.096 2.148v.13c0 1.448-.698 2.147-2.096 2.147m4.26 5.15v-.337c0-1.268.336-2.226 1.009-2.898.776-.776 2.096-1.165 3.933-1.165h.259c1.449 0 2.717.156 3.778.466q.31.117.388.233c.052.104.077.233.052.44l-.285 2.122c-.052.336-.285.44-.699.336-1.035-.233-1.966-.362-2.742-.362h-.026c-.57 0-.984.052-1.191.155-.232.103-.336.285-.336.543v.078c0 .259.078.44.285.543s.595.233 1.19.337l1.216.259c1.113.258 1.915.646 2.381 1.164s.698 1.32.698 2.38v.389c0 2.716-1.708 4.062-5.071 4.062h-.259c-1.708 0-3.131-.233-4.321-.699-.233-.077-.388-.18-.44-.31-.052-.104-.052-.31 0-.595l.362-1.708c.078-.492.362-.647.88-.492 1.19.414 2.225.595 3.105.595h.078c.569 0 .957-.051 1.19-.18.207-.104.336-.311.336-.596v-.078a.55.55 0 0 0-.284-.491q-.31-.156-1.242-.388l-1.139-.259q-1.708-.388-2.406-1.164c-.466-.518-.699-1.294-.699-2.38"/></svg>