<svg xmlns="http://www.w3.org/2000/svg" fill="none" viewBox="0 0 490 40"><path fill="#fff" d="M10.574 23.303v-.934c0-2.044-.252-3.306-.706-3.786q-.606-.605-1.666-.605H7.85q-1.06 0-1.666.605c-.48.48-.707 1.742-.707 3.786v.934c0 2.07.228 3.33.707 3.785q.606.606 1.666.606h.353q1.06 0 1.666-.606c.454-.454.706-1.716.706-3.785m4.316-1.439v1.943c0 3.054-.707 5.124-2.12 6.234-1.01.808-2.574 1.186-4.644 1.186h-.201c-2.095 0-3.635-.378-4.644-1.186-1.413-1.11-2.12-3.18-2.12-6.234v-1.943c0-3.028.707-5.123 2.12-6.234 1.01-.782 2.549-1.186 4.644-1.186h.201c2.07 0 3.635.404 4.644 1.186 1.413 1.11 2.12 3.206 2.12 6.234m10.538 6.764v1.438c0 .379-.076.631-.177.757-.1.127-.328.177-.63.177H22.6c-1.817 0-3.028-.303-3.583-.934-.505-.53-.732-1.54-.732-3.053v-5.225h-1.363c-.252 0-.404-.025-.505-.126-.1-.1-.126-.252-.126-.505V19.87c0-.303.025-.504.126-.605.076-.101.253-.177.53-.253l1.338-.328v-2.473c0-.252.05-.43.176-.555.127-.101.354-.177.682-.177h2.322c.303 0 .53.076.656.177.126.126.202.303.202.555v2.423h2.095c.252 0 .403.05.504.151s.152.278.152.58v1.692q0 .453-.152.605c-.1.101-.252.126-.504.126h-2.095v4.77c0 .454.05.732.202.884.151.176.48.252.984.252h1.11c.303 0 .53.076.631.202s.177.378.177.732m8.37-9.389h2.17c.354 0 .607.05.733.152.126.1.227.303.277.606 0 .1.455 2.347 1.338 6.713h.076c.454-2.65.858-5.098 1.186-7.37.025-.277.1-.454.202-.555q.15-.15.53-.151h2.574c.278 0 .454.075.555.176.076.127.101.329.05.58-.403 1.97-.908 4.14-1.463 6.512s-.96 3.861-1.212 4.492c-.1.253-.227.43-.353.505s-.328.101-.58.101h-2.776c-.53 0-.858-.177-.96-.58-.479-1.717-.883-3.887-1.236-6.512h-.101a69 69 0 0 1-1.262 6.511c-.1.404-.404.581-.908.581h-2.726c-.505 0-.833-.177-.96-.555-.251-.682-.68-2.246-1.286-4.67a117 117 0 0 1-1.413-6.384c-.076-.278-.05-.48.05-.58.101-.102.303-.177.606-.177h2.473c.252 0 .454.05.58.151.101.101.177.303.228.555.353 2.347.757 4.795 1.236 7.37h.101c.606-3.13 1.035-5.376 1.237-6.713.05-.329.126-.53.252-.631.126-.076.379-.127.782-.127m14.846 4.594V25.8c0 .984.151 1.615.454 1.918.227.252.58.354 1.06.354h.1c.455 0 .808-.102 1.06-.354.304-.303.455-.934.455-1.918v-1.968c0-.96-.151-1.616-.454-1.918-.253-.228-.606-.354-1.06-.354h-.101c-.48 0-.833.126-1.06.354-.303.302-.454.959-.454 1.918m7.192.151v1.64c0 1.262-.126 2.221-.378 2.928a3.6 3.6 0 0 1-1.212 1.69c-.833.657-2.12.985-3.886.985h-.303c-1.767 0-3.08-.328-3.887-.984a3.6 3.6 0 0 1-1.211-1.691c-.252-.707-.379-1.666-.379-2.928V24.01c0-1.236.127-2.195.379-2.902a3.8 3.8 0 0 1 1.211-1.716c.808-.656 2.12-.984 3.887-.984h.303c1.766 0 3.053.328 3.886.984.555.454.96 1.01 1.212 1.69.252.707.378 1.666.378 2.903m-7.697-8.682 3.962-3.381c.151-.152.328-.228.48-.228.176 0 .353.127.504.329l1.212 1.564c.1.152.151.278.151.43 0 .201-.151.403-.404.605l-3.987 2.726a.88.88 0 0 1-.505.176c-.202 0-.404-.1-.606-.353l-.757-.883c-.202-.227-.277-.43-.277-.58 0-.152.075-.304.227-.405m13.038 4.695h.076c.555-.909 1.489-1.363 2.826-1.363h1.01c.252 0 .454.05.555.151s.177.278.177.555v1.843c0 .277-.05.454-.152.555q-.15.15-.53.151h-.757c-.934 0-1.565.177-1.918.53-.303.303-.429.884-.429 1.742v6.107c0 .252-.076.454-.202.555-.126.127-.353.177-.656.177h-2.322c-.328 0-.555-.05-.681-.177-.126-.1-.177-.303-.177-.555V19.34c0-.252.05-.429.177-.53.126-.1.353-.176.681-.176h1.212c.277 0 .48.05.605.126q.19.15.303.454zm10.25 1.842h-4.013c-.252 0-.429-.025-.53-.126-.1-.101-.126-.303-.126-.606v-1.741c0-.303.025-.48.126-.58q.152-.152.53-.152h8.53c.253 0 .43.05.556.151.1.101.176.303.176.58v.48a3.2 3.2 0 0 1-.555 1.792l-4.34 6.158h4.315c.252 0 .404.05.505.151s.151.278.151.58v1.742q0 .454-.151.606c-.101.1-.253.126-.505.126h-8.682c-.53 0-.782-.227-.782-.732v-.58c0-.656.176-1.237.555-1.792zm16.536 4.265v4.164c0 .252-.076.454-.202.555-.126.127-.354.177-.656.177h-2.322c-.328 0-.556-.05-.682-.177-.126-.1-.176-.303-.176-.555V14.646c0-.252.05-.429.176-.555.126-.101.354-.177.682-.177h2.322c.302 0 .53.076.656.177.126.126.202.303.202.555v8.228h.176l2.398-3.66c.227-.378.58-.58 1.06-.58h2.927c.278 0 .43.1.43.303 0 .1-.076.277-.203.48l-2.902 4.34c-.227.353-.328.606-.328.757 0 .177.101.429.328.757l3.104 4.896c.101.202.152.328.152.43 0 .277-.177.403-.53.403h-2.802c-.353 0-.63-.025-.782-.126q-.227-.114-.454-.53l-2.398-4.24zm11.895-2.271V25.8c0 .984.151 1.615.454 1.918.227.252.58.354 1.06.354h.101c.454 0 .807-.102 1.06-.354.303-.303.454-.934.454-1.918v-1.968c0-.96-.151-1.616-.454-1.918-.253-.228-.606-.354-1.06-.354h-.101c-.48 0-.833.126-1.06.354-.303.302-.454.959-.454 1.918m7.192.151v1.64c0 1.262-.126 2.221-.378 2.928a3.6 3.6 0 0 1-1.212 1.69c-.833.657-2.12.985-3.886.985h-.303c-1.767 0-3.079-.328-3.887-.984a3.6 3.6 0 0 1-1.211-1.691c-.252-.707-.379-1.666-.379-2.928V24.01c0-1.236.127-2.195.379-2.902a3.8 3.8 0 0 1 1.211-1.716c.808-.656 2.12-.984 3.887-.984h.303c1.766 0 3.053.328 3.886.984.556.454.959 1.01 1.212 1.69.252.707.378 1.666.378 2.903m8.824-5.577h.202c1.464 0 2.549.353 3.205 1.034.606.657.934 1.767.934 3.332v7.495c0 .252-.076.454-.202.555-.126.127-.354.177-.656.177h-2.322c-.328 0-.555-.05-.682-.177-.126-.1-.176-.303-.176-.555v-7.142c0-.555-.101-.96-.278-1.161-.202-.202-.58-.328-1.11-.328h-.152c-.555 0-.908.126-1.11.328s-.278.606-.278 1.161v7.142c0 .252-.076.454-.202.555-.126.127-.353.177-.656.177h-2.322c-.328 0-.555-.05-.681-.177-.126-.1-.177-.303-.177-.555V19.34c0-.252.051-.429.177-.53.126-.1.353-.176.681-.176h1.186c.303 0 .505.05.631.126q.19.114.303.454l.152.48h.075c.808-.858 1.944-1.287 3.458-1.287m14.644 10.22v1.44c0 .378-.076.63-.177.756-.101.127-.328.177-.631.177h-2.019c-1.817 0-3.028-.303-3.583-.934-.505-.53-.732-1.54-.732-3.053v-5.225h-1.363c-.253 0-.404-.025-.505-.126-.101-.1-.126-.252-.126-.505V19.87c0-.303.025-.504.126-.605.076-.101.252-.177.53-.253l1.338-.328v-2.473c0-.252.05-.43.176-.555.127-.101.354-.177.682-.177h2.322c.302 0 .53.076.656.177.126.126.202.303.202.555v2.423h2.094c.253 0 .404.05.505.151s.152.278.152.58v1.692q0 .453-.152.605c-.101.101-.252.126-.505.126h-2.094v4.77c0 .454.05.732.202.884.151.176.479.252.984.252h1.11c.303 0 .53.076.631.202s.177.378.177.732m5.569-4.794V25.8c0 .984.151 1.615.454 1.918.227.252.581.354 1.06.354h.101c.454 0 .808-.102 1.06-.354.303-.303.454-.934.454-1.918v-1.968c0-.96-.151-1.616-.454-1.918-.252-.228-.606-.354-1.06-.354h-.101c-.479 0-.833.126-1.06.354-.303.302-.454.959-.454 1.918m7.193.151v1.64c0 1.262-.127 2.221-.379 2.928a3.6 3.6 0 0 1-1.211 1.69c-.833.657-2.12.985-3.887.985h-.303c-1.766 0-3.079-.328-3.886-.984a3.6 3.6 0 0 1-1.212-1.691c-.252-.707-.378-1.666-.378-2.928V24.01c0-1.236.126-2.195.378-2.902a3.8 3.8 0 0 1 1.212-1.716c.807-.656 2.12-.984 3.886-.984h.303c1.767 0 3.054.328 3.887.984a3.9 3.9 0 0 1 1.211 1.69c.252.707.379 1.666.379 2.903m11.67-.681v3.23c0 .58.101.984.353 1.211.202.227.581.329 1.136.329h.227c.581 0 .984-.152 1.237-.505q.303-.455.303-2.196v-1.085c0-1.262-.127-2.044-.329-2.297-.227-.252-.656-.403-1.261-.403h-.101c-.581 0-.985.126-1.237.378-.227.227-.328.681-.328 1.338m0-4.215h.05q1.098-.681 2.877-.681h.228c1.514 0 2.624.454 3.306 1.362.555.783.858 2.17.858 4.165v1.817c0 2.019-.429 3.432-1.287 4.214-.909.858-2.347 1.262-4.316 1.262h-.505c-2.069 0-3.482-.404-4.24-1.236-.681-.732-1.009-1.918-1.009-3.584v-11.76c0-.253.05-.43.177-.556.101-.101.328-.177.656-.177h2.347c.303 0 .53.076.656.177.126.126.202.303.202.555zm16.786 10.877h-.05c-.556.858-1.666 1.262-3.306 1.262h-.379c-1.287 0-2.297-.328-3.003-.984-.732-.656-1.085-1.64-1.085-2.902v-.278c0-1.363.378-2.347 1.16-2.902.783-.556 2.045-.833 3.811-.833h.177c.656 0 1.262.05 1.767.1v-.53c0-.53-.152-.908-.429-1.11-.303-.176-.808-.277-1.515-.277-.858 0-1.817.151-2.927.429-.303.075-.53.075-.631 0-.126-.076-.202-.227-.227-.48l-.202-1.337c-.051-.227-.051-.404-.051-.505 0-.303.202-.53.606-.656 1.287-.354 2.726-.555 4.316-.555 1.943 0 3.331.429 4.139 1.236.63.656.959 1.716.959 3.155v7.495c0 .253-.076.455-.202.556-.127.1-.354.151-.657.151h-1.186c-.303 0-.504-.025-.631-.1-.126-.077-.227-.228-.302-.48zm-.908-3.23v-.707q-.417-.075-1.212-.075h-.277q-.909 0-1.288.227c-.252.151-.353.454-.353.908v.101c0 .454.101.757.353.909.228.176.581.252 1.06.252h.177c.505 0 .883-.126 1.186-.379.227-.201.354-.63.354-1.236m13.093-8.328h.202c1.464 0 2.549.353 3.205 1.034.606.657.934 1.767.934 3.332v7.495c0 .252-.076.454-.202.555-.126.127-.353.177-.656.177h-2.322c-.328 0-.555-.05-.681-.177-.127-.1-.177-.303-.177-.555v-7.142c0-.555-.101-.96-.278-1.161-.202-.202-.58-.328-1.11-.328h-.152c-.555 0-.908.126-1.11.328s-.278.606-.278 1.161v7.142c0 .252-.075.454-.202.555-.126.127-.353.177-.656.177h-2.322c-.328 0-.555-.05-.681-.177-.126-.1-.177-.303-.177-.555V19.34c0-.252.051-.429.177-.53.126-.1.353-.176.681-.176h1.187c.302 0 .504.05.631.126q.19.114.302.454l.152.48h.076c.807-.858 1.943-1.287 3.457-1.287m10.783 7.697v4.164c0 .252-.076.454-.202.555-.126.127-.354.177-.656.177h-2.322c-.328 0-.555-.05-.682-.177-.126-.1-.176-.303-.176-.555V14.646c0-.252.05-.429.176-.555.127-.101.354-.177.682-.177h2.322c.302 0 .53.076.656.177.126.126.202.303.202.555v8.228h.176l2.398-3.66c.227-.378.58-.58 1.06-.58h2.927c.278 0 .429.1.429.303 0 .1-.075.277-.201.48l-2.903 4.34c-.227.353-.328.606-.328.757 0 .177.101.429.328.757l3.104 4.896c.101.202.152.328.152.43 0 .277-.177.403-.53.403h-2.801c-.354 0-.631-.025-.783-.126q-.227-.114-.454-.53l-2.398-4.24zm11.895-2.271V25.8c0 .984.151 1.615.454 1.918.227.252.58.354 1.06.354h.101c.454 0 .808-.102 1.06-.354.303-.303.454-.934.454-1.918v-1.968c0-.96-.151-1.616-.454-1.918-.252-.228-.606-.354-1.06-.354h-.101c-.48 0-.833.126-1.06.354-.303.302-.454.959-.454 1.918m7.192.151v1.64c0 1.262-.126 2.221-.378 2.928a3.6 3.6 0 0 1-1.212 1.69c-.832.657-2.12.985-3.886.985h-.303c-1.767 0-3.079-.328-3.887-.984a3.6 3.6 0 0 1-1.211-1.691c-.252-.707-.378-1.666-.378-2.928V24.01c0-1.236.126-2.195.378-2.902a3.8 3.8 0 0 1 1.211-1.716c.808-.656 2.12-.984 3.887-.984h.303c1.766 0 3.054.328 3.886.984.556.454.959 1.01 1.212 1.69.252.707.378 1.666.378 2.903m8.622-4.745h2.17c.354 0 .606.05.732.152.127.1.228.303.278.606 0 .1.454 2.347 1.338 6.713h.075c.455-2.65.858-5.098 1.186-7.37.026-.277.101-.454.202-.555q.152-.15.53-.151h2.575c.277 0 .454.075.555.176.075.127.101.329.05.58-.404 1.97-.908 4.14-1.464 6.512s-.959 3.861-1.211 4.492c-.101.253-.227.43-.353.505s-.328.101-.581.101h-2.776c-.53 0-.858-.177-.959-.58-.479-1.717-.883-3.887-1.236-6.512h-.101a70 70 0 0 1-1.262 6.511c-.101.404-.404.581-.909.581h-2.725c-.505 0-.833-.177-.959-.555-.253-.682-.682-2.246-1.288-4.67a118 118 0 0 1-1.413-6.384c-.076-.278-.05-.48.051-.58.101-.102.302-.177.605-.177h2.474c.252 0 .454.05.58.151.101.101.177.303.227.555.353 2.347.757 4.795 1.237 7.37h.101c.605-3.13 1.034-5.376 1.236-6.713.051-.329.127-.53.253-.631.126-.076.378-.127.782-.127m17.192 8.732h.278c.858 0 1.766-.1 2.675-.328.252-.05.404-.075.48-.075.252 0 .403.151.454.429l.202 1.262c.05.353.101.58.101.681 0 .303-.228.53-.657.681-1.16.404-2.448.606-3.81.606h-.48q-3.104 0-4.391-1.287a3.6 3.6 0 0 1-1.01-1.716c-.176-.656-.252-1.54-.252-2.625v-1.413c0-2.196.505-3.735 1.514-4.644.858-.757 2.171-1.135 3.962-1.135h.354c1.766 0 3.053.429 3.811 1.261.807.909 1.211 2.398 1.211 4.518v1.312c0 .48-.252.707-.732.707h-6.057v.202c0 .605.152 1.01.505 1.236.328.228.934.328 1.842.328m-2.347-4.39h2.776c.202 0 .303-.102.303-.329v-.404c0-.504-.101-.883-.252-1.16-.202-.303-.606-.455-1.161-.455h-.227c-.505 0-.858.126-1.06.354q-.38.454-.379 1.362zm18.52-1.742h-4.013c-.252 0-.429-.025-.53-.126s-.126-.303-.126-.606v-1.741c0-.303.025-.48.126-.58q.152-.152.53-.152h8.53c.253 0 .429.05.556.151.1.101.176.303.176.58v.48c0 .656-.202 1.262-.555 1.792l-4.341 6.158h4.316c.252 0 .404.05.504.151.101.101.152.278.152.58v1.742q0 .454-.152.606c-.1.1-.252.126-.504.126h-8.682c-.53 0-.782-.227-.782-.732v-.58c0-.656.176-1.237.555-1.792zm14.32 8.126h-.051c-.555.858-1.665 1.262-3.306 1.262h-.378c-1.288 0-2.297-.328-3.004-.984-.732-.656-1.085-1.64-1.085-2.902v-.278c0-1.363.379-2.347 1.161-2.902s2.044-.833 3.811-.833h.177c.656 0 1.261.05 1.766.1v-.53c0-.53-.151-.908-.429-1.11-.303-.176-.808-.277-1.514-.277-.858 0-1.817.151-2.928.429-.303.075-.53.075-.631 0-.126-.076-.202-.227-.227-.48l-.202-1.337c-.05-.227-.05-.404-.05-.505 0-.303.202-.53.606-.656 1.287-.354 2.725-.555 4.315-.555 1.943 0 3.331.429 4.139 1.236.631.656.959 1.716.959 3.155v7.495c0 .253-.076.455-.202.556-.126.1-.353.151-.656.151h-1.186c-.303 0-.505-.025-.631-.1-.126-.077-.227-.228-.303-.48zm-.909-3.23v-.707q-.416-.075-1.211-.075h-.278q-.909 0-1.287.227c-.252.151-.353.454-.353.908v.101c0 .454.101.757.353.909.227.176.58.252 1.06.252h.177c.504 0 .883-.126 1.186-.379.227-.201.353-.63.353-1.236m28.797-7.934v2.892c0 3.124-.664 5.518-1.961 7.146-1.329 1.662-3.523 2.46-6.581 2.46s-5.252-.798-6.582-2.46c-1.329-1.628-1.961-4.022-1.961-7.146V18.8c0-3.125.632-5.485 1.961-7.147 1.33-1.628 3.524-2.46 6.582-2.46s5.252.832 6.581 2.46c1.297 1.662 1.961 4.022 1.961 7.147m-5.684 2.327v-1.762c0-2.16-.199-3.656-.531-4.454-.333-.798-1.097-1.23-2.261-1.23h-.133c-1.196.033-1.961.432-2.293 1.23s-.499 2.293-.499 4.454v1.762c0 2.194.166 3.656.499 4.454s1.097 1.23 2.293 1.23h.133c1.164 0 1.928-.4 2.261-1.197.332-.798.531-2.293.531-4.487m21.104-2.194h-5.286c-.332 0-.565-.033-.698-.166s-.166-.4-.166-.798v-2.294c0-.399.033-.631.166-.764q.2-.2.698-.2h11.236c.332 0 .565.067.731.2.133.133.233.399.233.764v.632a4.2 4.2 0 0 1-.732 2.36l-5.717 8.11h5.684c.332 0 .532.067.665.2s.199.366.199.764v2.294q0 .599-.199.798c-.133.133-.333.166-.665.166H308.12c-.698 0-1.03-.3-1.03-.964v-.765c0-.864.233-1.628.731-2.36zm16.168 7.745h1.063c.333 0 .599.1.732.233.133.166.232.465.232.897v2.06c0 .466-.099.765-.232.898-.133.166-.399.233-.732.233h-2.526c-1.662 0-2.825-.3-3.49-.964-.665-.632-.997-1.762-.997-3.357v-3.59l-1.097.698c-.432.266-.731.399-.864.399-.266 0-.366-.2-.366-.599v-3.09c0-.333.033-.566.166-.732.1-.133.299-.332.632-.565l1.529-.964V9.46c0-.332.066-.565.233-.73.166-.134.465-.233.897-.233h3.058c.399 0 .698.1.864.232.167.166.266.4.266.731v5.385l1.496-.964c.399-.265.698-.399.864-.399.233 0 .366.2.366.599v3.091c0 .333-.067.598-.166.731a2.8 2.8 0 0 1-.632.566l-1.928 1.23v6.348c0 .266.033.432.133.499.067.1.233.133.499.133m13.321-3.376v3.23c0 .58.101.984.353 1.211.202.227.581.329 1.136.329h.227c.581 0 .985-.152 1.237-.505q.303-.455.303-2.196v-1.085c0-1.262-.126-2.044-.328-2.297-.227-.252-.656-.403-1.262-.403h-.101c-.581 0-.984.126-1.237.378-.227.227-.328.681-.328 1.338m0-4.215h.051q1.098-.681 2.877-.681h.227c1.514 0 2.625.454 3.306 1.362.555.783.858 2.17.858 4.165v1.817c0 2.019-.429 3.432-1.287 4.214-.909.858-2.347 1.262-4.316 1.262h-.504c-2.07 0-3.483-.404-4.24-1.236-.682-.732-1.01-1.918-1.01-3.584v-11.76c0-.253.051-.43.177-.556.101-.101.328-.177.656-.177h2.347c.303 0 .53.076.656.177.126.126.202.303.202.555zm15.499 8.883h.278c.858 0 1.766-.1 2.675-.328.252-.05.404-.075.48-.075.252 0 .403.151.454.429l.202 1.262c.05.353.101.58.101.681 0 .303-.227.53-.657.681-1.16.404-2.448.606-3.81.606h-.48q-3.104 0-4.391-1.287a3.6 3.6 0 0 1-1.01-1.716c-.176-.656-.252-1.54-.252-2.625v-1.413c0-2.196.505-3.735 1.514-4.644.858-.757 2.171-1.135 3.962-1.135h.354c1.766 0 3.054.429 3.811 1.261.807.909 1.211 2.398 1.211 4.518v1.312c0 .48-.252.707-.732.707h-6.057v.202c0 .605.152 1.01.505 1.236.328.228.934.328 1.842.328m-2.347-4.39h2.776c.202 0 .303-.102.303-.329v-.404c0-.504-.101-.883-.252-1.16-.202-.303-.606-.455-1.161-.455h-.227c-.505 0-.858.126-1.06.354q-.38.454-.379 1.362zm13.048-1.742h-4.012c-.253 0-.429-.025-.53-.126s-.126-.303-.126-.606v-1.741c0-.303.025-.48.126-.58q.151-.152.53-.152h8.53c.252 0 .429.05.555.151.101.101.177.303.177.58v.48c0 .656-.202 1.262-.555 1.792l-4.341 6.158h4.315c.253 0 .404.05.505.151s.152.278.152.58v1.742q0 .454-.152.606c-.101.1-.252.126-.505.126h-8.681c-.53 0-.783-.227-.783-.732v-.58c0-.656.177-1.237.556-1.792zm18.959-2.6h2.17c.354 0 .606.05.732.152.126.1.227.303.278.606 0 .1.454 2.347 1.337 6.713h.076c.454-2.65.858-5.098 1.186-7.37.025-.277.101-.454.202-.555q.152-.15.53-.151h2.574c.278 0 .455.075.556.176.075.127.1.329.05.58-.404 1.97-.909 4.14-1.464 6.512s-.959 3.861-1.211 4.492c-.101.253-.227.43-.353.505-.127.076-.329.101-.581.101h-2.776c-.53 0-.858-.177-.959-.58-.48-1.717-.883-3.887-1.237-6.512h-.101a69 69 0 0 1-1.262 6.511c-.1.404-.403.581-.908.581h-2.726c-.504 0-.833-.177-.959-.555-.252-.682-.681-2.246-1.287-4.67a117 117 0 0 1-1.413-6.384c-.076-.278-.051-.48.05-.58.101-.102.303-.177.606-.177h2.473c.253 0 .455.05.581.151.101.101.176.303.227.555.353 2.347.757 4.795 1.237 7.37h.101c.605-3.13 1.034-5.376 1.236-6.713.051-.329.126-.53.253-.631.126-.076.378-.127.782-.127m18.282 10.726h-.051c-.555.858-1.665 1.262-3.306 1.262h-.378c-1.287 0-2.297-.328-3.003-.984-.732-.656-1.086-1.64-1.086-2.902v-.278c0-1.363.379-2.347 1.161-2.902.783-.556 2.045-.833 3.811-.833h.177c.656 0 1.262.05 1.766.1v-.53c0-.53-.151-.908-.429-1.11-.302-.176-.807-.277-1.514-.277-.858 0-1.817.151-2.927.429-.303.075-.53.075-.631 0-.127-.076-.202-.227-.227-.48l-.202-1.337c-.051-.227-.051-.404-.051-.505 0-.303.202-.53.606-.656 1.287-.354 2.725-.555 4.315-.555 1.944 0 3.332.429 4.139 1.236.631.656.959 1.716.959 3.155v7.495c0 .253-.075.455-.202.556-.126.1-.353.151-.656.151h-1.186c-.303 0-.505-.025-.631-.1-.126-.077-.227-.228-.303-.48zm-.909-3.23v-.707q-.416-.075-1.211-.075h-.278q-.908 0-1.287.227c-.252.151-.353.454-.353.908v.101c0 .454.101.757.353.909.227.176.581.252 1.06.252h.177c.505 0 .883-.126 1.186-.379.227-.201.353-.63.353-1.236m9.611-6.738h.076c.555-.909 1.489-1.363 2.826-1.363h1.01c.252 0 .454.05.555.151s.177.278.177.555v1.843c0 .277-.051.454-.152.555q-.151.15-.53.151h-.757c-.934 0-1.564.177-1.918.53-.303.303-.429.884-.429 1.742v6.107c0 .252-.076.454-.202.555-.126.127-.353.177-.656.177h-2.322c-.328 0-.555-.05-.681-.177-.126-.1-.177-.303-.177-.555V19.34c0-.252.051-.429.177-.53.126-.1.353-.176.681-.176h1.212c.277 0 .479.05.605.126q.19.15.303.454zm12.774 6.486v-7.117c0-.253.05-.43.176-.556.127-.1.354-.176.682-.176h2.322c.302 0 .53.075.656.176.126.127.202.303.202.556v7.47q0 2.31-1.136 3.331c-.808.707-2.221 1.06-4.29 1.06s-3.508-.353-4.291-1.06q-1.135-1.022-1.135-3.331v-7.47c0-.253.05-.43.176-.556.126-.1.354-.176.682-.176h2.322c.302 0 .53.075.656.176.126.127.202.303.202.556v7.117c0 .58.075.959.277 1.16.202.228.555.328 1.111.328.53 0 .908-.1 1.11-.328.177-.201.278-.58.278-1.16m13.087-8.076h.202c1.464 0 2.549.353 3.205 1.034.606.657.934 1.767.934 3.332v7.495c0 .252-.076.454-.202.555-.126.127-.353.177-.656.177h-2.322c-.328 0-.555-.05-.681-.177-.126-.1-.177-.303-.177-.555v-7.142c0-.555-.101-.96-.278-1.161-.201-.202-.58-.328-1.11-.328h-.151c-.556 0-.909.126-1.111.328s-.277.606-.277 1.161v7.142c0 .252-.076.454-.202.555-.127.127-.354.177-.656.177h-2.322c-.328 0-.556-.05-.682-.177-.126-.1-.176-.303-.176-.555V19.34c0-.252.05-.429.176-.53.126-.1.354-.176.682-.176h1.186c.303 0 .505.05.631.126q.189.114.303.454l.151.48h.076c.807-.858 1.943-1.287 3.457-1.287m10.783 7.697v4.164c0 .252-.076.454-.202.555-.126.127-.353.177-.656.177h-2.322c-.328 0-.555-.05-.681-.177-.127-.1-.177-.303-.177-.555V14.646c0-.252.05-.429.177-.555.126-.101.353-.177.681-.177h2.322c.303 0 .53.076.656.177.126.126.202.303.202.555v8.228h.177l2.397-3.66c.227-.378.581-.58 1.06-.58h2.928c.277 0 .429.1.429.303 0 .1-.076.277-.202.48l-2.903 4.34c-.227.353-.328.606-.328.757 0 .177.101.429.328.757l3.105 4.896c.101.202.151.328.151.43 0 .277-.177.403-.53.403h-2.801c-.354 0-.631-.025-.783-.126q-.226-.114-.454-.53l-2.397-4.24zm11.895-2.271V25.8c0 .984.151 1.615.454 1.918.227.252.581.354 1.06.354h.101c.454 0 .808-.102 1.06-.354.303-.303.454-.934.454-1.918v-1.968c0-.96-.151-1.616-.454-1.918-.252-.228-.606-.354-1.06-.354h-.101c-.479 0-.833.126-1.06.354-.303.302-.454.959-.454 1.918m7.193.151v1.64c0 1.262-.127 2.221-.379 2.928a3.6 3.6 0 0 1-1.211 1.69c-.833.657-2.12.985-3.887.985h-.303c-1.766 0-3.079-.328-3.886-.984a3.6 3.6 0 0 1-1.212-1.691c-.252-.707-.378-1.666-.378-2.928V24.01c0-1.236.126-2.195.378-2.902a3.8 3.8 0 0 1 1.212-1.716c.807-.656 2.12-.984 3.886-.984h.303c1.767 0 3.054.328 3.887.984a3.9 3.9 0 0 1 1.211 1.69c.252.707.379 1.666.379 2.903m-7.698-8.682 3.962-3.381c.152-.152.329-.228.48-.228.177 0 .353.127.505.329l1.211 1.564c.101.152.152.278.152.43 0 .201-.152.403-.404.605l-3.988 2.726a.87.87 0 0 1-.504.176c-.202 0-.404-.1-.606-.353l-.757-.883c-.202-.227-.278-.43-.278-.58 0-.152.076-.304.227-.405m16.319 3.937h2.171c.353 0 .605.05.732.152.126.1.227.303.277.606 0 .1.455 2.347 1.338 6.713h.076c.454-2.65.858-5.098 1.186-7.37.025-.277.101-.454.202-.555q.151-.15.53-.151h2.574c.277 0 .454.075.555.176.076.127.101.329.05.58-.403 1.97-.908 4.14-1.463 6.512-.556 2.372-.959 3.861-1.212 4.492-.101.253-.227.43-.353.505s-.328.101-.58.101h-2.777c-.53 0-.858-.177-.959-.58-.479-1.717-.883-3.887-1.236-6.512h-.101a69 69 0 0 1-1.262 6.511c-.101.404-.404.581-.909.581h-2.725c-.505 0-.833-.177-.959-.555-.253-.682-.682-2.246-1.287-4.67a118 118 0 0 1-1.414-6.384c-.075-.278-.05-.48.051-.58.101-.102.303-.177.606-.177h2.473c.252 0 .454.05.58.151.101.101.177.303.227.555.354 2.347.758 4.795 1.237 7.37h.101c.606-3.13 1.035-5.376 1.237-6.713.05-.329.126-.53.252-.631.126-.076.379-.127.782-.127"/></svg>