<svg xmlns="http://www.w3.org/2000/svg" fill="none" viewBox="0 0 387 16"><path fill="#007990" d="m6.006 12.62-2.99-4.2H2.99v4.118c0 .19-.041.326-.095.38-.068.055-.19.082-.381.082H1.373c-.19 0-.327-.027-.395-.095-.081-.054-.108-.177-.108-.367V4.656c0-.177.027-.299.095-.353.068-.055.19-.095.38-.095h.598c.408 0 .693.136.87.38l2.99 4.458h.027V4.67c0-.177.027-.3.109-.367.067-.055.203-.095.394-.095h1.141c.19 0 .313.04.38.095.055.054.096.176.096.367v7.882c0 .19-.041.312-.109.367Q7.739 13 7.474 13h-.598c-.407 0-.693-.122-.87-.38m5.483-3.48v1.06c0 .53.081.87.244 1.033.122.136.313.19.571.19h.054c.245 0 .435-.054.571-.19.163-.163.245-.502.245-1.032V9.14c0-.517-.082-.87-.245-1.033-.136-.122-.326-.19-.57-.19h-.055c-.258 0-.449.068-.57.19-.164.163-.245.516-.245 1.033m3.873.082v.883c0 .68-.068 1.196-.204 1.577-.136.38-.354.68-.653.91-.448.354-1.141.53-2.092.53h-.163c-.952 0-1.658-.176-2.093-.53a1.94 1.94 0 0 1-.652-.91c-.136-.38-.204-.897-.204-1.577v-.87c0-.665.068-1.182.204-1.562s.353-.68.652-.924c.435-.353 1.141-.53 2.093-.53h.163c.95 0 1.644.177 2.092.53.3.245.517.543.653.91.136.38.204.897.204 1.563m4.642-2.555h1.169c.19 0 .326.028.394.082s.122.163.15.326c0 .054.244 1.264.72 3.615h.04c.245-1.427.462-2.745.639-3.968.014-.15.054-.245.109-.3q.082-.08.285-.08h1.386c.15 0 .245.04.3.094.04.068.053.177.026.313a135 135 0 0 1-.788 3.506c-.299 1.277-.516 2.08-.652 2.419-.055.136-.122.23-.19.272-.068.04-.177.054-.313.054h-1.495c-.285 0-.462-.095-.516-.313-.258-.924-.476-2.092-.666-3.506h-.054a37 37 0 0 1-.68 3.506c-.054.218-.217.313-.49.313h-1.467c-.271 0-.448-.095-.516-.299-.136-.367-.367-1.21-.693-2.514a63 63 0 0 1-.761-3.438c-.04-.15-.027-.258.027-.313s.163-.095.326-.095h1.332c.136 0 .244.027.313.082.054.054.095.163.122.299.19 1.264.407 2.582.666 3.968h.054c.326-1.685.557-2.895.666-3.615.027-.177.068-.285.136-.34.068-.04.204-.068.421-.068m9.844 5.776h-.027c-.299.462-.897.68-1.78.68h-.204c-.693 0-1.237-.177-1.617-.53-.394-.354-.584-.884-.584-1.563v-.15c0-.734.203-1.264.625-1.563.42-.299 1.1-.448 2.052-.448h.095c.353 0 .68.027.951.054v-.285c0-.286-.082-.49-.231-.598-.163-.095-.435-.15-.815-.15-.462 0-.979.082-1.577.231-.163.041-.285.041-.34 0-.067-.04-.108-.122-.122-.258l-.108-.72c-.028-.122-.028-.217-.028-.272 0-.163.11-.285.326-.353a8.8 8.8 0 0 1 2.324-.3c1.047 0 1.794.232 2.229.667.34.353.516.924.516 1.698v4.037c0 .135-.04.244-.108.299s-.19.081-.354.081h-.638c-.163 0-.272-.014-.34-.054-.068-.041-.122-.123-.163-.259zm-.489-1.74v-.38a4 4 0 0 0-.652-.04h-.15q-.489 0-.693.121c-.136.082-.19.245-.19.49v.054c0 .245.054.408.19.49.122.094.313.135.57.135h.096c.272 0 .476-.068.639-.204.122-.108.19-.34.19-.666m8.583-1.848v1.74c0 .312.054.53.19.652.11.122.313.177.612.177h.122c.313 0 .53-.082.666-.272q.163-.245.163-1.182v-.585c0-.68-.068-1.1-.176-1.236-.123-.136-.354-.218-.68-.218h-.054c-.313 0-.53.068-.666.204-.123.122-.177.367-.177.72m0-2.27h.027q.59-.366 1.55-.366h.122c.815 0 1.413.245 1.78.734.299.421.462 1.168.462 2.242v.978c0 1.088-.23 1.849-.693 2.27-.49.462-1.264.68-2.324.68h-.272c-1.114 0-1.875-.218-2.283-.667-.367-.394-.543-1.032-.543-1.93V4.195c0-.136.027-.23.095-.299.054-.054.177-.095.353-.095h1.264c.163 0 .286.04.353.095a.4.4 0 0 1 .11.3zm9.039 5.858h-.027c-.3.462-.897.68-1.78.68h-.204c-.693 0-1.237-.177-1.617-.53-.395-.354-.585-.884-.585-1.563v-.15c0-.734.204-1.264.625-1.563s1.101-.448 2.052-.448h.095c.354 0 .68.027.952.054v-.285c0-.286-.082-.49-.231-.598-.163-.095-.435-.15-.816-.15-.462 0-.978.082-1.576.231-.163.041-.285.041-.34 0-.068-.04-.109-.122-.122-.258l-.109-.72c-.027-.122-.027-.217-.027-.272 0-.163.109-.285.326-.353a8.8 8.8 0 0 1 2.324-.3c1.046 0 1.794.232 2.229.667.34.353.516.924.516 1.698v4.037c0 .135-.04.244-.109.299-.068.054-.19.081-.353.081h-.639c-.163 0-.272-.014-.34-.054-.068-.041-.122-.123-.163-.259zm-.49-1.74v-.38a4 4 0 0 0-.652-.04h-.15q-.488 0-.692.121c-.136.082-.19.245-.19.49v.054c0 .245.054.408.19.49.122.094.312.135.57.135h.096c.272 0 .475-.068.638-.204.123-.108.19-.34.19-.666m7.051-4.484h.109c.788 0 1.372.19 1.725.557.327.353.503.951.503 1.794v4.036c0 .136-.04.245-.108.299-.068.068-.19.095-.354.095h-1.25c-.177 0-.299-.027-.367-.095-.068-.054-.095-.163-.095-.3V8.76c0-.299-.054-.516-.15-.625-.108-.109-.312-.177-.597-.177h-.082c-.299 0-.49.068-.598.177s-.15.326-.15.625v3.846c0 .136-.04.245-.108.299-.068.068-.19.095-.353.095h-1.25c-.177 0-.3-.027-.367-.095-.068-.054-.096-.163-.096-.3V6.723c0-.136.028-.231.096-.286s.19-.095.366-.095h.64c.162 0 .27.027.339.068q.102.06.163.245l.081.258h.041c.435-.462 1.047-.693 1.862-.693m5.806 4.145v2.242c0 .136-.04.245-.109.299-.068.068-.19.095-.353.095h-1.25c-.177 0-.3-.027-.367-.095-.068-.054-.095-.163-.095-.3v-8.41c0-.137.027-.232.095-.3.068-.054.19-.095.367-.095h1.25c.163 0 .285.04.353.095a.4.4 0 0 1 .109.3v4.43h.095l1.291-1.971a.62.62 0 0 1 .57-.313h1.577c.15 0 .231.055.231.163 0 .055-.04.15-.108.259L61.44 9.1c-.123.19-.177.326-.177.408 0 .095.054.23.177.407l1.671 2.637c.055.108.082.176.082.23 0 .15-.095.218-.286.218H61.4c-.19 0-.34-.014-.421-.068q-.122-.06-.245-.285l-1.29-2.283zm6.405-1.223v1.06c0 .53.082.87.245 1.032.122.136.312.19.57.19h.055c.244 0 .435-.054.57-.19.164-.163.245-.502.245-1.032V9.14c0-.517-.081-.87-.245-1.033-.135-.122-.326-.19-.57-.19h-.055c-.258 0-.448.068-.57.19-.163.163-.245.516-.245 1.033m3.873.081v.883c0 .68-.068 1.196-.204 1.577-.136.38-.353.68-.652.91-.449.354-1.142.53-2.093.53h-.163c-.951 0-1.658-.176-2.093-.53a1.94 1.94 0 0 1-.652-.91c-.136-.38-.204-.897-.204-1.577v-.87c0-.665.068-1.182.204-1.562s.353-.68.652-.924c.435-.353 1.142-.53 2.093-.53h.163c.951 0 1.644.177 2.093.53.299.245.516.543.652.91.136.38.204.897.204 1.563m4.642-2.555h1.17c.19 0 .325.028.393.082s.123.163.15.326c0 .054.244 1.264.72 3.615h.04c.245-1.427.463-2.745.64-3.968.013-.15.054-.245.108-.3q.082-.08.285-.08h1.387c.15 0 .244.04.299.094.04.068.054.177.027.313-.218 1.06-.49 2.229-.788 3.506-.3 1.277-.517 2.08-.653 2.419-.054.136-.122.23-.19.272-.068.04-.177.054-.312.054h-1.495c-.286 0-.462-.095-.517-.313-.258-.924-.475-2.092-.666-3.506h-.054a37 37 0 0 1-.68 3.506c-.054.218-.217.313-.489.313h-1.467c-.272 0-.449-.095-.517-.299-.136-.367-.367-1.21-.693-2.514a63 63 0 0 1-.76-3.438c-.041-.15-.028-.258.026-.313.055-.054.163-.095.327-.095h1.331c.136 0 .245.027.313.082.054.054.095.163.122.299.19 1.264.408 2.582.666 3.968h.054c.327-1.685.558-2.895.666-3.615.028-.177.068-.285.136-.34.068-.04.204-.068.422-.068m7.994 2.474v1.06c0 .53.082.87.245 1.032.122.136.312.19.57.19h.055c.244 0 .434-.054.57-.19.163-.163.245-.502.245-1.032V9.14c0-.517-.082-.87-.245-1.033-.135-.122-.326-.19-.57-.19h-.055c-.258 0-.448.068-.57.19-.163.163-.245.516-.245 1.033m3.873.081v.883c0 .68-.068 1.196-.204 1.577-.136.38-.353.68-.652.91-.449.354-1.142.53-2.093.53h-.163c-.951 0-1.658-.176-2.093-.53a1.94 1.94 0 0 1-.652-.91c-.136-.38-.204-.897-.204-1.577v-.87c0-.665.068-1.182.204-1.562s.353-.68.652-.924c.435-.353 1.142-.53 2.093-.53h.163c.951 0 1.644.177 2.093.53.299.245.516.543.652.91.136.38.204.897.204 1.563m.987-.693v-.177c0-.665.177-1.168.53-1.522.407-.407 1.1-.611 2.065-.611h.136c.761 0 1.427.081 1.984.245q.164.06.204.122c.027.054.041.122.027.23l-.15 1.115c-.026.177-.149.231-.366.177-.544-.122-1.033-.19-1.44-.19h-.014c-.299 0-.516.027-.625.081-.123.054-.177.15-.177.285v.041c0 .136.04.231.15.286.108.054.312.122.625.176l.638.136c.585.136 1.006.34 1.25.612.245.272.368.693.368 1.25v.204c0 1.427-.897 2.133-2.664 2.133h-.136c-.897 0-1.644-.122-2.27-.367-.122-.04-.203-.095-.23-.163-.027-.054-.027-.163 0-.312l.19-.897c.04-.258.19-.34.462-.258.625.217 1.169.312 1.63.312h.041c.3 0 .503-.027.626-.095.108-.054.176-.163.176-.312v-.041a.29.29 0 0 0-.15-.258q-.162-.082-.651-.204l-.598-.136q-.898-.204-1.264-.612c-.245-.271-.367-.68-.367-1.25m1.264-3.982 2.133-1.82a.38.38 0 0 1 .258-.123c.096 0 .19.068.272.177l.652.842a.4.4 0 0 1 .082.231c0 .11-.082.218-.217.327l-2.148 1.467a.5.5 0 0 1-.271.095c-.109 0-.218-.054-.327-.19l-.407-.476c-.109-.122-.15-.23-.15-.312s.041-.163.123-.218m8.196 6.822h.108a4.2 4.2 0 0 0 1.183-.176c.136-.028.217-.041.258-.041.136 0 .217.081.245.23l.122.694c.027.19.054.313.054.367 0 .163-.122.285-.353.367-.598.217-1.25.312-1.957.312h-.163c-.978 0-1.699-.217-2.147-.68q-.693-.692-.693-2.323v-.788c0-.639.054-1.142.163-1.495q.162-.53.53-.897c.475-.475 1.223-.72 2.242-.72h.136c.815 0 1.522.15 2.093.448.163.096.258.204.258.34 0 .082-.04.218-.109.408l-.258.652q-.102.245-.285.245a.55.55 0 0 1-.245-.068c-.435-.177-.843-.272-1.21-.272H96.5c-.353 0-.611.095-.774.258-.204.204-.3.625-.3 1.25v.462c0 .558.082.938.272 1.142.177.19.476.285.884.285M94.91 4.547l2.134-1.82a.38.38 0 0 1 .258-.123c.095 0 .19.068.272.177l.652.842c.054.082.082.15.082.231 0 .11-.082.218-.218.327l-2.147 1.467a.47.47 0 0 1-.272.095c-.109 0-.217-.054-.326-.19l-.408-.476c-.108-.122-.15-.23-.15-.312s.042-.163.123-.218m9.878 3.52h-2.16c-.136 0-.231-.014-.286-.068s-.068-.163-.068-.326v-.938c0-.163.014-.258.068-.312q.082-.082.286-.082h4.593c.136 0 .231.027.299.082.054.054.095.163.095.312v.259c0 .353-.109.679-.299.964l-2.337 3.316h2.323c.136 0 .218.027.272.082.054.054.082.15.082.312v.938q0 .245-.082.326c-.054.054-.136.068-.272.068h-4.674c-.286 0-.422-.122-.422-.394v-.313c0-.353.095-.665.299-.964zm7.711 4.376h-.027c-.299.462-.897.68-1.78.68h-.204c-.693 0-1.237-.177-1.617-.53-.394-.354-.585-.884-.585-1.563v-.15c0-.734.204-1.264.625-1.563s1.101-.448 2.052-.448h.096c.353 0 .679.027.951.054v-.285c0-.286-.082-.49-.231-.598-.163-.095-.435-.15-.816-.15-.462 0-.978.082-1.576.231-.163.041-.285.041-.34 0-.068-.04-.108-.122-.122-.258l-.109-.72c-.027-.122-.027-.217-.027-.272 0-.163.109-.285.326-.353a8.8 8.8 0 0 1 2.324-.3c1.046 0 1.794.232 2.229.667.339.353.516.924.516 1.698v4.037c0 .135-.041.244-.109.299s-.19.081-.353.081h-.639c-.163 0-.271-.014-.339-.054-.068-.041-.123-.123-.163-.259zm-.489-1.74v-.38a4 4 0 0 0-.653-.04h-.149q-.489 0-.693.121c-.136.082-.19.245-.19.49v.054c0 .245.054.408.19.49.122.094.312.135.571.135h.095c.272 0 .475-.068.639-.204.122-.108.19-.34.19-.666m6.588.666h.109c.367 0 .761-.054 1.182-.176.136-.028.217-.041.258-.041.136 0 .218.081.245.23l.122.694c.027.19.054.313.054.367 0 .163-.122.285-.353.367-.598.217-1.25.312-1.957.312h-.163c-.978 0-1.698-.217-2.147-.68q-.693-.692-.693-2.323v-.788c0-.639.054-1.142.163-1.495a2.14 2.14 0 0 1 .53-.897c.476-.475 1.223-.72 2.242-.72h.136c.816 0 1.522.15 2.093.448.163.096.258.204.258.34 0 .082-.041.218-.109.408l-.258.652q-.102.245-.285.245a.56.56 0 0 1-.245-.068c-.435-.177-.842-.272-1.209-.272h-.054c-.354 0-.612.095-.775.258-.204.204-.299.625-.299 1.25v.462c0 .558.081.938.272 1.142.176.19.475.285.883.285m5.26-3.302h-2.16c-.136 0-.231-.014-.286-.068s-.068-.163-.068-.326v-.938c0-.163.014-.258.068-.312q.082-.082.286-.082h4.593c.136 0 .231.027.299.082.054.054.095.163.095.312v.259c0 .353-.109.679-.299.964l-2.337 3.316h2.324c.135 0 .217.027.271.082.055.054.082.15.082.312v.938q0 .245-.082.326c-.054.054-.136.068-.271.068h-4.675c-.286 0-.421-.122-.421-.394v-.313c0-.353.095-.665.298-.964zm9.546-1.318c-.191 1.277-.544 2.69-1.06 4.253a29 29 0 0 1-1.916 4.43c-.095.19-.218.286-.381.286a.86.86 0 0 1-.394-.109l-.693-.299c-.245-.109-.353-.217-.353-.34 0-.054.013-.135.068-.23.462-.938.733-1.482.788-1.631-.381-.136-.666-.435-.883-.924-.245-.544-.53-1.373-.843-2.514a36 36 0 0 1-.693-2.936c-.027-.136-.014-.23.054-.299.068-.054.191-.095.354-.095h1.236c.15 0 .258.027.326.068.068.04.123.122.15.258.312 1.713.666 3.235 1.06 4.553h.068c.38-1.087.734-2.582 1.06-4.512q.02-.203.122-.285c.068-.055.177-.082.313-.082h1.25c.149 0 .258.041.312.095.055.055.068.163.055.313m4.381-.53h.109c.788 0 1.372.19 1.726.557.326.353.503.951.503 1.794v4.036c0 .136-.041.245-.109.299-.068.068-.19.095-.353.095h-1.251c-.176 0-.299-.027-.367-.095-.068-.054-.095-.163-.095-.3V8.76c0-.299-.054-.516-.149-.625-.109-.109-.313-.177-.598-.177h-.082c-.299 0-.489.068-.598.177s-.149.326-.149.625v3.846c0 .136-.041.245-.109.299-.068.068-.19.095-.353.095h-1.25c-.177 0-.299-.027-.367-.095-.068-.054-.095-.163-.095-.3V6.723c0-.136.027-.231.095-.286s.19-.095.367-.095h.638c.163 0 .272.027.34.068q.102.06.163.245l.082.258h.04c.435-.462 1.047-.693 1.862-.693m7.559 6.224h-.027c-.299.462-.897.68-1.78.68h-.204c-.693 0-1.237-.177-1.617-.53-.394-.354-.584-.884-.584-1.563v-.15c0-.734.203-1.264.625-1.563.421-.299 1.1-.448 2.052-.448h.095c.353 0 .679.027.951.054v-.285c0-.286-.081-.49-.231-.598-.163-.095-.435-.15-.815-.15-.462 0-.979.082-1.577.231-.163.041-.285.041-.339 0-.068-.04-.109-.122-.123-.258l-.108-.72c-.028-.122-.028-.217-.028-.272 0-.163.109-.285.327-.353a8.8 8.8 0 0 1 2.323-.3c1.047 0 1.794.232 2.229.667.34.353.516.924.516 1.698v4.037c0 .135-.04.244-.108.299s-.191.081-.354.081h-.638c-.163 0-.272-.014-.34-.054-.068-.041-.122-.123-.163-.259zm-.489-1.74v-.38a4 4 0 0 0-.652-.04h-.15q-.489 0-.693.121c-.136.082-.19.245-.19.49v.054c0 .245.054.408.19.49.123.094.313.135.571.135h.095c.272 0 .476-.068.639-.204.122-.108.19-.34.19-.666m6.232-2.174v-.177c0-.665.177-1.168.53-1.522.408-.407 1.101-.611 2.066-.611h.136c.761 0 1.427.081 1.984.245q.162.06.204.122a.4.4 0 0 1 .027.23l-.15 1.115c-.027.177-.149.231-.367.177-.543-.122-1.032-.19-1.44-.19h-.014c-.299 0-.516.027-.625.081-.122.054-.176.15-.176.285v.041c0 .136.04.231.149.286s.313.122.625.176l.639.136c.584.136 1.005.34 1.25.612s.367.693.367 1.25v.204c0 1.427-.897 2.133-2.664 2.133h-.135c-.897 0-1.645-.122-2.27-.367-.122-.04-.204-.095-.231-.163-.027-.054-.027-.163 0-.312l.19-.897c.041-.258.191-.34.462-.258.626.217 1.169.312 1.631.312h.041c.299 0 .503-.027.625-.095.109-.054.177-.163.177-.312v-.041a.29.29 0 0 0-.15-.258q-.163-.082-.652-.204l-.598-.136q-.897-.204-1.264-.612c-.244-.271-.367-.68-.367-1.25m8.536-1.794v5.87c0 .137-.041.245-.109.3-.068.068-.19.095-.353.095h-1.25c-.177 0-.299-.027-.367-.095-.068-.054-.095-.163-.095-.3v-5.87c0-.136.027-.23.095-.299.068-.054.19-.095.367-.095h1.25c.163 0 .285.041.353.095a.4.4 0 0 1 .109.3m-1.006-.91h-.163c-.733 0-1.1-.367-1.1-1.128v-.068c0-.747.367-1.128 1.1-1.128h.163c.734 0 1.101.38 1.101 1.128v.068c0 .76-.367 1.128-1.101 1.128m5.649 5.544h.149a6 6 0 0 0 1.44-.176c.136-.028.218-.041.259-.041.136 0 .217.081.244.23l.109.68c.027.19.054.313.054.367 0 .163-.122.286-.353.367a1.97 1.97 0 0 0-.87.652c-.231.3-.339.598-.339.87v.04c0 .26.122.381.366.381h.068c.15 0 .34-.027.558-.108.068-.014.122-.027.163-.027.068 0 .122.068.163.176l.068.286c.04.19.068.285.068.312 0 .082-.068.15-.191.204q-.53.204-1.1.204h-.082c-.476 0-.829-.095-1.073-.3-.245-.203-.367-.488-.367-.869v-.04c0-.245.081-.517.258-.789a2.3 2.3 0 0 1 .706-.68c-.108.014-.258.014-.448.014h-.258q-1.672 0-2.365-.693a1.95 1.95 0 0 1-.543-.924c-.095-.353-.136-.829-.136-1.413V9.33c0-1.182.272-2.011.815-2.5.462-.408 1.169-.612 2.134-.612h.19c.951 0 1.644.23 2.052.68.435.489.652 1.29.652 2.432v.707c0 .258-.136.38-.394.38h-3.261v.109c0 .326.081.543.272.666.176.122.502.176.992.176m-1.264-2.364h1.495c.108 0 .163-.055.163-.177v-.217c0-.272-.055-.476-.136-.625-.109-.164-.326-.245-.625-.245h-.123c-.271 0-.462.068-.57.19q-.204.245-.204.734zm12.01 2.718v.774c0 .204-.041.34-.095.408s-.177.095-.34.095h-1.087c-.978 0-1.63-.163-1.929-.503-.272-.285-.395-.829-.395-1.644V8.04h-.733c-.136 0-.218-.014-.272-.068s-.068-.136-.068-.272v-.693c0-.163.014-.272.068-.326.041-.054.136-.095.285-.136l.72-.177V5.037c0-.136.028-.231.096-.3.068-.054.19-.094.367-.094h1.25c.163 0 .285.04.353.095a.4.4 0 0 1 .109.299V6.34h1.128c.136 0 .217.027.271.082.055.054.082.15.082.312v.91q0 .246-.082.327c-.054.054-.135.068-.271.068h-1.128v2.568c0 .245.027.394.108.476.082.095.259.136.53.136h.598c.163 0 .286.04.34.108.054.069.095.204.095.395m4.603-1.155V6.735c0-.136.027-.23.095-.299.068-.054.19-.095.367-.095h1.25c.163 0 .285.041.353.095a.4.4 0 0 1 .109.3v4.022q0 1.244-.612 1.794c-.435.38-1.196.57-2.31.57s-1.889-.19-2.31-.57q-.612-.55-.612-1.794V6.735c0-.136.028-.23.096-.299.068-.054.19-.095.366-.095h1.251c.163 0 .285.041.353.095a.4.4 0 0 1 .109.3v3.832c0 .312.041.516.149.625.109.122.299.176.598.176.286 0 .489-.054.598-.176.095-.11.15-.313.15-.625m5.579 1.29v.136c0 .761-.367 1.128-1.087 1.128h-.15c-.733 0-1.087-.367-1.087-1.128v-.136c0-.394.082-.679.272-.842.177-.163.449-.258.815-.258h.15c.353 0 .625.095.815.258.177.163.272.448.272.842m7.474-5.938h-.177c-.19 0-.381.014-.598.027-.081.014-.109.068-.109.163v2.147h.707c.489 0 .815-.068 1.006-.23.163-.137.244-.395.244-.802v-.34c0-.326-.081-.57-.231-.72-.163-.164-.448-.245-.842-.245m-.884 4.2v2.459c0 .285-.163.421-.475.421h-1.332c-.177 0-.299-.027-.367-.095-.081-.054-.109-.163-.109-.326V4.765q0-.326.123-.449c.081-.081.231-.135.475-.163.489-.04 1.25-.068 2.297-.068h.163c1.386 0 2.337.272 2.867.802.408.435.612 1.087.612 1.97v.463c0 1.019-.286 1.74-.856 2.147-.598.435-1.509.652-2.745.652zm7.036-.98v1.06c0 .53.081.87.244 1.033.123.136.313.19.571.19h.054c.245 0 .435-.054.571-.19.163-.163.245-.502.245-1.032V9.14c0-.517-.082-.87-.245-1.033-.136-.122-.326-.19-.571-.19h-.054c-.258 0-.448.068-.571.19-.163.163-.244.516-.244 1.033m3.873.082v.883c0 .68-.068 1.196-.204 1.577-.136.38-.354.68-.652.91-.449.354-1.142.53-2.093.53h-.163c-.952 0-1.658-.176-2.093-.53a1.95 1.95 0 0 1-.652-.91c-.136-.38-.204-.897-.204-1.577v-.87c0-.665.068-1.182.204-1.562s.353-.68.652-.924c.435-.353 1.141-.53 2.093-.53h.163c.951 0 1.644.177 2.093.53.298.245.516.543.652.91.136.38.204.897.204 1.563m3.338-.367v1.74c0 .312.054.53.19.652.109.122.312.177.611.177h.123c.312 0 .53-.082.665-.272q.164-.245.164-1.182v-.585c0-.68-.068-1.1-.177-1.236-.122-.136-.353-.218-.68-.218h-.054c-.312 0-.53.068-.666.204-.122.122-.176.367-.176.72m0-2.27h.027q.59-.366 1.549-.366h.122c.816 0 1.413.245 1.78.734.299.421.462 1.168.462 2.242v.978c0 1.088-.231 1.849-.693 2.27-.489.462-1.263.68-2.323.68h-.272c-1.114 0-1.875-.218-2.283-.667-.367-.394-.544-1.032-.544-1.93V4.195c0-.136.027-.23.095-.299.055-.054.177-.095.354-.095h1.264c.163 0 .285.04.353.095a.4.4 0 0 1 .109.3zm7.312.15v5.87c0 .137-.04.245-.108.3-.068.068-.191.095-.354.095h-1.25c-.177 0-.299-.027-.367-.095-.068-.054-.095-.163-.095-.3v-5.87c0-.136.027-.23.095-.299.068-.054.19-.095.367-.095h1.25c.163 0 .286.041.354.095a.4.4 0 0 1 .108.3m-1.005-.91h-.163c-.734 0-1.101-.367-1.101-1.128v-.068c0-.747.367-1.128 1.101-1.128h.163c.734 0 1.101.38 1.101 1.128v.068c0 .76-.367 1.128-1.101 1.128m5.648 5.544h.149c.462 0 .952-.054 1.441-.176.136-.028.217-.041.258-.041.136 0 .217.081.245.23l.108.68c.028.19.055.313.055.367 0 .163-.123.286-.354.367a6.3 6.3 0 0 1-2.052.326h-.258q-1.671 0-2.364-.693a1.95 1.95 0 0 1-.544-.924c-.095-.353-.136-.829-.136-1.413V9.33c0-1.182.272-2.011.816-2.5.462-.408 1.168-.612 2.133-.612h.19c.952 0 1.645.23 2.052.68.435.489.653 1.29.653 2.432v.707c0 .258-.136.38-.395.38h-3.261v.109c0 .326.082.543.272.666.177.122.503.176.992.176m-1.264-2.364h1.495c.109 0 .163-.055.163-.177v-.217c0-.272-.054-.476-.136-.625-.109-.164-.326-.245-.625-.245h-.122c-.272 0-.462.068-.571.19q-.204.245-.204.734zm6.523-1.93h.041c.299-.49.802-.734 1.522-.734h.544c.135 0 .244.027.299.082.054.054.095.15.095.299v.992c0 .15-.027.244-.082.299q-.081.081-.285.081h-.408c-.503 0-.842.095-1.033.286-.163.163-.231.475-.231.937v3.289c0 .136-.04.245-.108.299-.068.068-.191.095-.354.095h-1.25c-.177 0-.299-.027-.367-.095-.068-.054-.095-.163-.095-.3V6.723c0-.136.027-.231.095-.286s.19-.095.367-.095h.652c.15 0 .259.027.326.068a.56.56 0 0 1 .164.245zm5.519.992h-2.16c-.136 0-.231-.014-.286-.068s-.068-.163-.068-.326v-.938c0-.163.014-.258.068-.312q.082-.082.286-.082h4.593c.136 0 .231.027.299.082.054.054.095.163.095.312v.259c0 .353-.109.679-.299.964l-2.337 3.316h2.323c.136 0 .218.027.272.082.055.054.082.15.082.312v.938q0 .245-.082.326c-.054.054-.136.068-.272.068h-4.674c-.286 0-.422-.122-.422-.394v-.313c0-.353.096-.665.299-.964zm10.657 4.376h-.027c-.299.462-.897.68-1.78.68h-.204c-.693 0-1.237-.177-1.617-.53-.394-.354-.584-.884-.584-1.563v-.15c0-.734.203-1.264.625-1.563.421-.299 1.1-.448 2.052-.448h.095c.353 0 .679.027.951.054v-.285c0-.286-.082-.49-.231-.598-.163-.095-.435-.15-.815-.15-.462 0-.979.082-1.577.231-.163.041-.285.041-.339 0-.068-.04-.109-.122-.123-.258l-.108-.72c-.028-.122-.028-.217-.028-.272 0-.163.109-.285.326-.353a8.8 8.8 0 0 1 2.324-.3c1.047 0 1.794.232 2.229.667.34.353.516.924.516 1.698v4.037c0 .135-.04.244-.108.299s-.191.081-.354.081h-.638c-.163 0-.272-.014-.34-.054-.068-.041-.122-.123-.163-.259zm-.489-1.74v-.38a4 4 0 0 0-.652-.04h-.15q-.489 0-.693.121c-.136.082-.19.245-.19.49v.054c0 .245.054.408.19.49.122.094.313.135.571.135h.095c.272 0 .476-.068.639-.204.122-.108.19-.34.19-.666m5.134-3.777c.476-.462 1.155-.707 2.025-.707h.122c.843 0 1.441.245 1.808.707.326.434.489 1.168.489 2.228v1.02c0 .57-.054 1.046-.136 1.4a1.94 1.94 0 0 1-.489.882c-.462.449-1.087.666-1.903.666h-.149q-.775 0-1.264-.285v2.093c0 .204-.041.34-.109.394-.081.054-.231.081-.462.081h-1.033c-.231 0-.38-.027-.462-.095-.081-.054-.108-.19-.108-.38V6.776c0-.163.027-.272.108-.34.068-.054.191-.095.367-.095h.571c.163 0 .286.027.353.055.055.04.109.122.15.23l.095.3zm.503 1.93v1.739c0 .312.054.53.19.652.123.122.326.177.612.177h.122c.313 0 .53-.082.666-.272q.163-.245.163-1.182v-.585c0-.652-.054-1.06-.163-1.21-.136-.162-.353-.244-.679-.244h-.096c-.299 0-.502.068-.638.204-.123.122-.177.367-.177.72m7.544 2.377h.435c.136 0 .244.041.299.095.054.069.095.19.095.367v.843c0 .19-.041.313-.095.367-.055.068-.163.095-.299.095h-1.033c-.679 0-1.155-.122-1.427-.394-.272-.258-.408-.72-.408-1.373V4.194c0-.136.028-.23.096-.299.068-.054.19-.095.366-.095h1.251c.163 0 .285.04.353.095a.4.4 0 0 1 .109.3v6.78c0 .109.013.177.054.204.027.04.095.054.204.054m3.923-4.498v5.87c0 .137-.041.245-.109.3-.068.068-.19.095-.353.095h-1.251c-.176 0-.299-.027-.366-.095-.068-.054-.096-.163-.096-.3v-5.87c0-.136.028-.23.096-.299.067-.054.19-.095.366-.095h1.251c.163 0 .285.041.353.095a.4.4 0 0 1 .109.3m-1.006-.91h-.163c-.734 0-1.101-.367-1.101-1.128v-.068c0-.747.367-1.128 1.101-1.128h.163c.734 0 1.101.38 1.101 1.128v.068c0 .76-.367 1.128-1.101 1.128m4.588 4.539v2.242c0 .136-.041.245-.109.299-.067.068-.19.095-.353.095h-1.25c-.177 0-.299-.027-.367-.095-.068-.054-.095-.163-.095-.3v-8.41c0-.137.027-.232.095-.3.068-.054.19-.095.367-.095h1.25c.163 0 .286.04.353.095a.4.4 0 0 1 .109.3v4.43h.095l1.291-1.971a.63.63 0 0 1 .571-.313h1.576c.15 0 .231.055.231.163 0 .055-.04.15-.108.259L261.711 9.1c-.122.19-.177.326-.177.408 0 .095.055.23.177.407l1.671 2.637c.055.108.082.176.082.23 0 .15-.095.218-.285.218h-1.509c-.19 0-.34-.014-.421-.068q-.123-.06-.245-.285l-1.291-2.283zm8.468 2.079h-.027c-.299.462-.897.68-1.78.68h-.204c-.693 0-1.237-.177-1.617-.53-.394-.354-.584-.884-.584-1.563v-.15c0-.734.203-1.264.625-1.563.421-.299 1.1-.448 2.052-.448h.095c.353 0 .679.027.951.054v-.285c0-.286-.082-.49-.231-.598-.163-.095-.435-.15-.815-.15-.462 0-.979.082-1.577.231-.163.041-.285.041-.339 0-.068-.04-.109-.122-.123-.258l-.108-.72c-.028-.122-.028-.217-.028-.272 0-.163.109-.285.326-.353a8.8 8.8 0 0 1 2.324-.3c1.047 0 1.794.232 2.229.667.34.353.516.924.516 1.698v4.037c0 .135-.04.244-.108.299s-.191.081-.354.081h-.638c-.164 0-.272-.014-.34-.054-.068-.041-.122-.123-.163-.259zm-.489-1.74v-.38a4 4 0 0 0-.652-.04h-.15q-.489 0-.693.121c-.136.082-.19.245-.19.49v.054c0 .245.054.408.19.49.122.094.313.135.571.135h.095c.272 0 .476-.068.639-.204.122-.108.19-.34.19-.666m6.588.666h.109c.367 0 .761-.054 1.182-.176.136-.028.218-.041.258-.041.136 0 .218.081.245.23l.122.694c.028.19.055.313.055.367 0 .163-.123.285-.354.367-.597.217-1.25.312-1.956.312h-.164c-.978 0-1.698-.217-2.147-.68q-.693-.692-.693-2.323v-.788c0-.639.055-1.142.163-1.495a2.14 2.14 0 0 1 .53-.897c.476-.475 1.223-.72 2.243-.72h.136c.815 0 1.522.15 2.092.448.163.096.258.204.258.34 0 .082-.04.218-.108.408l-.258.652q-.102.245-.286.245a.55.55 0 0 1-.244-.068c-.435-.177-.843-.272-1.21-.272h-.054c-.354 0-.612.095-.775.258-.204.204-.299.625-.299 1.25v.462c0 .558.082.938.272 1.142.177.19.476.285.883.285m2.801 4.05h-.788c-.136 0-.245-.027-.299-.095-.054-.055-.082-.177-.082-.34v-.951c0-.136.028-.245.082-.3.054-.053.163-.094.299-.094h.34c.244 0 .434-.055.557-.19.109-.11.163-.395.163-.843v-5.87c0-.137.027-.232.095-.3.068-.054.19-.095.367-.095h1.25c.163 0 .285.041.353.095a.4.4 0 0 1 .109.3v6.02c0 .978-.177 1.657-.53 2.051q-.55.612-1.916.612m1.441-9.594h-.164c-.733 0-1.1-.367-1.1-1.128v-.068c0-.747.367-1.128 1.1-1.128h.164c.733 0 1.1.38 1.1 1.128v.068c0 .76-.367 1.128-1.1 1.128m5.648 5.544h.149c.462 0 .951-.054 1.441-.176.135-.028.217-.041.258-.041.136 0 .217.081.244.23l.109.68c.027.19.054.313.054.367 0 .163-.122.286-.353.367a1.97 1.97 0 0 0-.87.652c-.231.3-.339.598-.339.87v.04c0 .26.122.381.367.381h.068c.149 0 .339-.027.557-.108.068-.014.122-.027.163-.027.068 0 .122.068.163.176l.068.286c.041.19.068.285.068.312 0 .082-.068.15-.191.204q-.53.204-1.1.204h-.082c-.475 0-.829-.095-1.073-.3-.245-.203-.367-.488-.367-.869v-.04c0-.245.081-.517.258-.789s.408-.489.707-.68c-.109.014-.259.014-.449.014h-.258q-1.671 0-2.365-.693a1.95 1.95 0 0 1-.543-.924c-.095-.353-.136-.829-.136-1.413V9.33c0-1.182.272-2.011.815-2.5.462-.408 1.169-.612 2.134-.612h.19c.951 0 1.644.23 2.052.68.435.489.652 1.29.652 2.432v.707c0 .258-.136.38-.394.38h-3.261v.109c0 .326.081.543.272.666.176.122.502.176.992.176m-1.264-2.364h1.495c.108 0 .163-.055.163-.177v-.217c0-.272-.055-.476-.136-.625-.109-.164-.326-.245-.625-.245h-.123c-.271 0-.462.068-.57.19q-.204.245-.204.734zm9.931-.15v1.74c0 .312.055.53.19.652.109.122.313.177.612.177h.122c.313 0 .53-.082.666-.272q.163-.245.163-1.182v-.585c0-.68-.068-1.1-.176-1.236-.123-.136-.354-.218-.68-.218h-.054c-.313 0-.53.068-.666.204-.122.122-.177.367-.177.72m0-2.27h.027q.591-.366 1.55-.366h.122c.815 0 1.413.245 1.78.734.299.421.462 1.168.462 2.242v.978c0 1.088-.231 1.849-.693 2.27-.489.462-1.264.68-2.324.68h-.272c-1.114 0-1.875-.218-2.283-.667-.366-.394-.543-1.032-.543-1.93V4.195c0-.136.027-.23.095-.299.054-.054.177-.095.353-.095h1.264c.163 0 .286.04.353.095a.4.4 0 0 1 .109.3zm9.039 5.858h-.027c-.299.462-.897.68-1.781.68h-.203c-.693 0-1.237-.177-1.617-.53-.395-.354-.585-.884-.585-1.563v-.15c0-.734.204-1.264.625-1.563s1.101-.448 2.052-.448h.095c.354 0 .68.027.952.054v-.285c0-.286-.082-.49-.231-.598-.163-.095-.435-.15-.816-.15-.462 0-.978.082-1.576.231-.163.041-.285.041-.34 0-.068-.04-.109-.122-.122-.258l-.109-.72c-.027-.122-.027-.217-.027-.272 0-.163.109-.285.326-.353a8.8 8.8 0 0 1 2.324-.3c1.046 0 1.794.232 2.229.667.339.353.516.924.516 1.698v4.037c0 .135-.041.244-.109.299s-.19.081-.353.081h-.639c-.163 0-.272-.014-.34-.054-.067-.041-.122-.123-.163-.259zm-.489-1.74v-.38a4 4 0 0 0-.653-.04h-.149q-.489 0-.693.121c-.136.082-.19.245-.19.49v.054c0 .245.054.408.19.49.122.094.312.135.571.135h.095c.271 0 .475-.068.638-.204.123-.108.191-.34.191-.666m7.05-4.484h.109c.788 0 1.372.19 1.726.557.326.353.502.951.502 1.794v4.036c0 .136-.04.245-.108.299-.068.068-.191.095-.354.095h-1.25c-.177 0-.299-.027-.367-.095-.068-.054-.095-.163-.095-.3V8.76c0-.299-.054-.516-.149-.625-.109-.109-.313-.177-.598-.177h-.082c-.299 0-.489.068-.598.177s-.149.326-.149.625v3.846c0 .136-.041.245-.109.299-.068.068-.19.095-.353.095h-1.251c-.176 0-.299-.027-.366-.095-.068-.054-.096-.163-.096-.3V6.723c0-.136.028-.231.096-.286.067-.054.19-.095.366-.095h.639c.163 0 .272.027.34.068q.102.06.163.245l.081.258h.041c.435-.462 1.047-.693 1.862-.693m5.806 4.145v2.242c0 .136-.041.245-.109.299-.068.068-.19.095-.353.095h-1.25c-.177 0-.299-.027-.367-.095-.068-.054-.095-.163-.095-.3v-8.41c0-.137.027-.232.095-.3.068-.054.19-.095.367-.095h1.25c.163 0 .285.04.353.095a.4.4 0 0 1 .109.3v4.43h.095l1.291-1.971a.62.62 0 0 1 .571-.313h1.576c.15 0 .231.055.231.163 0 .055-.041.15-.108.259L316.241 9.1c-.123.19-.177.326-.177.408 0 .095.054.23.177.407l1.671 2.637c.055.108.082.176.082.23 0 .15-.095.218-.286.218H316.2c-.19 0-.34-.014-.421-.068q-.123-.06-.245-.285l-1.291-2.283zm8.115.204V6.735c0-.136.027-.23.095-.299.068-.054.19-.095.367-.095h1.25c.163 0 .285.041.353.095a.4.4 0 0 1 .109.3v4.022q0 1.244-.611 1.794c-.435.38-1.196.57-2.311.57s-1.889-.19-2.31-.57q-.612-.55-.611-1.794V6.735c0-.136.027-.23.095-.299.068-.054.19-.095.367-.095h1.25c.163 0 .285.041.353.095a.4.4 0 0 1 .109.3v3.832c0 .312.041.516.149.625.109.122.299.176.598.176.286 0 .49-.054.598-.176.095-.11.15-.313.15-.625m11.257-.707V4.629c0-.19.013-.299.068-.353.054-.041.19-.068.407-.068h1.332c.218 0 .34.027.394.068.055.054.082.163.082.353v5.3c0 .598-.068 1.087-.19 1.467a2.36 2.36 0 0 1-.639.979c-.557.503-1.441.747-2.636.747h-.164c-1.223 0-2.106-.244-2.649-.747q-.816-.754-.816-2.446v-5.3c0-.19.014-.299.068-.353.055-.041.19-.068.408-.068h1.332c.217 0 .353.027.407.068.055.054.082.163.082.353v5.232c0 .543.081.91.272 1.087.176.19.489.272.951.272h.068c.448 0 .761-.082.951-.272.177-.177.272-.544.272-1.087m7.296-3.642h.108c.789 0 1.373.19 1.726.557.326.353.503.951.503 1.794v4.036c0 .136-.041.245-.109.299-.068.068-.19.095-.353.095h-1.25c-.177 0-.299-.027-.367-.095-.068-.054-.095-.163-.095-.3V8.76c0-.299-.055-.516-.15-.625-.108-.109-.312-.177-.598-.177h-.081c-.299 0-.489.068-.598.177s-.15.326-.15.625v3.846c0 .136-.04.245-.108.299-.068.068-.191.095-.354.095h-1.25c-.177 0-.299-.027-.367-.095-.068-.054-.095-.163-.095-.3V6.723c0-.136.027-.231.095-.286s.19-.095.367-.095h.639c.163 0 .272.027.34.068q.102.06.163.245l.081.258h.041c.435-.462 1.046-.693 1.862-.693m5.833.516v5.87c0 .137-.041.245-.109.3-.068.068-.19.095-.353.095h-1.25c-.177 0-.299-.027-.367-.095-.068-.054-.095-.163-.095-.3v-5.87c0-.136.027-.23.095-.299.068-.054.19-.095.367-.095h1.25c.163 0 .285.041.353.095a.4.4 0 0 1 .109.3m-1.006-.91h-.163c-.734 0-1.1-.367-1.1-1.128v-.068c0-.747.366-1.128 1.1-1.128h.163c.734 0 1.101.38 1.101 1.128v.068c0 .76-.367 1.128-1.101 1.128m6.083 7.297h-.136c-1.318 0-2.255-.299-2.826-.91q-.775-.816-.775-2.772V7.768c0-1.277.258-2.201.788-2.759.571-.611 1.522-.924 2.827-.924h.095c1.019 0 1.903.204 2.664.598q.285.163.163.49l-.449 1.141c-.054.136-.136.204-.231.204a.46.46 0 0 1-.258-.068c-.639-.299-1.237-.462-1.794-.462h-.054c-.585 0-.979.163-1.169.49-.177.298-.258.828-.258 1.616v.965c0 .87.122 1.454.38 1.74.245.285.68.42 1.278.42h.054c.544 0 1.115-.121 1.685-.38.082-.027.163-.054.218-.054q.163 0 .244.285l.231.979c.028.109.041.204.041.258 0 .163-.136.285-.408.38a6.2 6.2 0 0 1-2.31.435m5.661-6.047h.041c.299-.49.801-.734 1.522-.734h.543c.136 0 .245.027.299.082.055.054.095.15.095.299v.992c0 .15-.027.244-.081.299q-.082.081-.286.081h-.407c-.503 0-.843.095-1.033.286-.163.163-.231.475-.231.937v3.289c0 .136-.041.245-.109.299-.068.068-.19.095-.353.095h-1.25c-.177 0-.299-.027-.367-.095-.068-.054-.095-.163-.095-.3V6.723c0-.136.027-.231.095-.286s.19-.095.367-.095h.652a.65.65 0 0 1 .326.068.55.55 0 0 1 .163.245zm6.485 4.294h.15a6 6 0 0 0 1.44-.176c.136-.028.218-.041.258-.041.136 0 .218.081.245.23l.109.68c.027.19.054.313.054.367 0 .163-.122.286-.353.367a6.3 6.3 0 0 1-2.052.326h-.259q-1.671 0-2.364-.693a1.95 1.95 0 0 1-.544-.924c-.095-.353-.136-.829-.136-1.413V9.33c0-1.182.272-2.011.816-2.5.462-.408 1.168-.612 2.133-.612h.191c.951 0 1.644.23 2.052.68.434.489.652 1.29.652 2.432v.707c0 .258-.136.38-.394.38h-3.262v.109c0 .326.082.543.272.666.177.122.503.176.992.176m-1.264-2.364h1.495c.109 0 .163-.055.163-.177v-.217c0-.272-.054-.476-.136-.625-.108-.164-.326-.245-.625-.245h-.122c-.272 0-.462.068-.571.19q-.204.245-.204.734zm8.535 1.59V8.869c0-.34-.055-.585-.163-.72-.123-.136-.34-.218-.639-.218h-.136c-.299 0-.503.082-.625.231-.136.15-.19.57-.19 1.278v.598c0 .652.068 1.06.204 1.195.108.136.312.19.625.19h.149c.258 0 .449-.054.585-.176.122-.122.19-.34.19-.652m-.027-4.131h.027v-2.27c0-.136.027-.23.095-.299.068-.054.19-.095.367-.095h1.264c.163 0 .285.04.353.095a.46.46 0 0 1 .095.3v6.182c0 .951-.177 1.604-.53 1.984a2.1 2.1 0 0 1-.938.585c-.38.122-.883.176-1.522.176h-.231c-1.005 0-1.725-.203-2.188-.611-.475-.408-.706-1.169-.706-2.297V9.127c0-1.087.217-1.848.679-2.283.435-.408 1.033-.625 1.808-.625h.163q.774 0 1.264.245m5.698.271v5.87c0 .137-.041.245-.109.3-.068.068-.19.095-.354.095h-1.25c-.176 0-.299-.027-.367-.095-.068-.054-.095-.163-.095-.3v-5.87c0-.136.027-.23.095-.299.068-.054.191-.095.367-.095h1.25c.164 0 .286.041.354.095a.4.4 0 0 1 .109.3m-1.006-.91h-.163c-.734 0-1.101-.367-1.101-1.128v-.068c0-.747.367-1.128 1.101-1.128h.163c.734 0 1.101.38 1.101 1.128v.068c0 .76-.367 1.128-1.101 1.128m6.667 5.898v.774c0 .204-.041.34-.095.408s-.177.095-.34.095h-1.087c-.978 0-1.631-.163-1.929-.503-.272-.285-.395-.829-.395-1.644V8.04h-.733c-.136 0-.218-.014-.272-.068s-.068-.136-.068-.272v-.693c0-.163.013-.272.068-.326.041-.054.136-.095.285-.136l.72-.177V5.037c0-.136.028-.231.096-.3.067-.054.19-.094.366-.094h1.251c.163 0 .285.04.353.095a.4.4 0 0 1 .109.299V6.34h1.128c.136 0 .217.027.271.082.055.054.082.15.082.312v.91q0 .246-.082.327c-.054.054-.135.068-.271.068h-1.128v2.568c0 .245.027.394.108.476.082.095.259.136.53.136h.598c.163 0 .286.04.34.108.054.069.095.204.095.395m3.148.135v.136c0 .761-.366 1.128-1.087 1.128h-.149c-.734 0-1.087-.367-1.087-1.128v-.136c0-.394.081-.679.271-.842.177-.163.449-.258.816-.258h.149c.354 0 .625.095.816.258.176.163.271.448.271.842"/></svg>