<svg xmlns="http://www.w3.org/2000/svg" fill="none" viewBox="0 0 473 38"><path fill="#fff" d="M4.962 19.26v10.064c0 .233-.07.42-.186.513-.117.116-.326.163-.606.163H2.027c-.303 0-.513-.047-.63-.163-.116-.093-.162-.28-.162-.513V19.26c0-.232.046-.396.163-.512.116-.093.326-.163.629-.163H4.17c.28 0 .49.07.606.163.116.116.186.28.186.512M3.238 17.7h-.28c-1.257 0-1.886-.63-1.886-1.934v-.116c0-1.282.629-1.934 1.887-1.934h.28c1.257 0 1.886.652 1.886 1.934v.116c0 1.305-.629 1.934-1.887 1.934m12.986 3.844H12.52c-.233 0-.396-.024-.49-.117s-.116-.28-.116-.559v-1.607c0-.28.023-.443.117-.536q.14-.14.489-.14h7.874c.233 0 .396.047.512.14.094.093.163.28.163.535v.443c0 .606-.186 1.165-.512 1.654l-4.007 5.684h3.984c.233 0 .372.047.466.14.093.093.14.256.14.536v1.607q0 .42-.14.56c-.094.093-.233.116-.466.116H12.52c-.49 0-.722-.21-.722-.676v-.535c0-.606.163-1.142.512-1.654zm11.634 7.384h-.629c-3.308 0-4.939-1.49-4.939-4.496v-1.56c0-1.538.396-2.656 1.212-3.402.792-.722 2.026-1.095 3.657-1.095h.326c.303-1.677 1.538-2.539 3.728-2.539h1.141c.233 0 .373.047.466.117.07.093.117.256.117.489v1.281c0 .233-.047.373-.14.443-.093.093-.256.116-.466.116h-1.095c-.513 0-.862.117-1.072.35 1.747.465 2.633 1.886 2.633 4.24v1.56c0 1.678-.466 2.796-1.375 3.402a3.94 3.94 0 0 1 1.421 1.258c.35.512.536 1.071.536 1.654v.163c0 2.306-1.84 3.447-5.474 3.447h-.443c-1.584 0-3.122-.28-4.566-.838-.42-.14-.582-.443-.466-.886l.42-1.49c.116-.443.395-.606.838-.466 1.375.466 2.586.675 3.658.675h.326q2.026 0 2.026-1.188v-.07c0-.442-.233-.838-.698-1.211-.373.046-.77.046-1.142.046m-.396-2.912h.163c.513 0 .862-.093 1.095-.326.256-.256.396-.792.396-1.584v-.908c0-.793-.14-1.305-.396-1.585-.233-.21-.582-.326-1.095-.326h-.163c-.512 0-.885.117-1.095.326-.28.28-.396.793-.396 1.585v.908c0 .792.116 1.328.396 1.584.21.233.582.326 1.095.326m14.151 3.029h-.046c-.513.792-1.538 1.165-3.052 1.165h-.35c-1.187 0-2.12-.303-2.772-.909-.675-.606-1.001-1.514-1.001-2.679v-.256c0-1.258.35-2.167 1.071-2.68.722-.512 1.887-.768 3.518-.768h.163c.606 0 1.165.047 1.63.093v-.489c0-.49-.139-.839-.395-1.025-.28-.163-.746-.256-1.398-.256-.792 0-1.677.14-2.702.396-.28.07-.49.07-.583 0-.116-.07-.186-.21-.21-.443L35.3 19.96c-.046-.21-.046-.372-.046-.465 0-.28.186-.49.559-.606a15 15 0 0 1 3.983-.513c1.794 0 3.075.396 3.82 1.142.583.605.886 1.584.886 2.912v6.919c0 .233-.07.419-.186.512-.117.093-.326.14-.606.14h-1.095c-.28 0-.466-.023-.582-.093-.117-.07-.21-.21-.28-.443zm-.838-2.982v-.652q-.385-.07-1.118-.07H39.4q-.838 0-1.188.21c-.233.14-.326.419-.326.838v.093c0 .42.093.7.326.839.21.163.536.233.979.233h.163c.466 0 .815-.117 1.095-.35.21-.186.326-.582.326-1.141m8.871-6.22h.07c.512-.839 1.374-1.258 2.61-1.258h.931c.233 0 .42.047.513.14s.163.256.163.512v1.7c0 .257-.047.42-.14.513q-.14.14-.49.14h-.698c-.862 0-1.445.163-1.77.49-.28.279-.397.815-.397 1.607v5.637c0 .233-.07.42-.186.513-.117.116-.326.163-.606.163h-2.143c-.303 0-.513-.047-.63-.163-.116-.093-.162-.28-.162-.513V19.237c0-.233.046-.396.163-.489.116-.093.326-.163.629-.163h1.118c.256 0 .443.047.56.116q.174.14.279.42zm11.815-1.468h.186c1.351 0 2.353.326 2.959.955.559.606.861 1.631.861 3.076v6.918c0 .233-.07.42-.186.513-.116.116-.326.163-.606.163h-2.143c-.303 0-.512-.047-.629-.163-.116-.093-.163-.28-.163-.513v-6.592c0-.513-.093-.886-.256-1.072-.187-.186-.536-.303-1.025-.303h-.14c-.513 0-.839.117-1.025.303s-.256.56-.256 1.072v6.592c0 .233-.07.42-.187.513-.116.116-.326.163-.605.163h-2.144c-.302 0-.512-.047-.629-.163-.116-.093-.163-.28-.163-.513V19.237c0-.233.047-.396.163-.489.117-.093.327-.163.63-.163h1.094c.28 0 .466.047.583.116q.175.105.28.42l.14.442h.069c.745-.792 1.794-1.188 3.192-1.188m10 .886v10.063c0 .233-.07.42-.187.513-.117.116-.326.163-.606.163h-2.143c-.303 0-.513-.047-.629-.163-.117-.093-.163-.28-.163-.513V19.26c0-.232.046-.396.163-.512.117-.093.326-.163.629-.163h2.143c.28 0 .49.07.606.163.116.116.186.28.186.512M69.735 17.7h-.28c-1.257 0-1.886-.63-1.886-1.934v-.116c0-1.282.629-1.934 1.887-1.934h.28c1.257 0 1.886.652 1.886 1.934v.116c0 1.305-.629 1.934-1.887 1.934m3.719 16.447h-1.351c-.233 0-.42-.047-.513-.163-.093-.094-.14-.303-.14-.583v-1.63c0-.233.047-.42.14-.513s.28-.163.513-.163h.582c.42 0 .746-.093.955-.326.187-.187.28-.676.28-1.445V19.26c0-.232.046-.396.163-.512.117-.093.326-.163.629-.163h2.143c.28 0 .49.07.606.163.116.116.186.28.186.512v10.32c0 1.678-.302 2.843-.908 3.518q-.944 1.05-3.285 1.049m2.47-16.447h-.28c-1.258 0-1.887-.63-1.887-1.934v-.116c0-1.282.629-1.934 1.887-1.934h.28c1.257 0 1.886.652 1.886 1.934v.116c0 1.305-.629 1.934-1.887 1.934m14.033 9.272h.746c.233 0 .42.07.512.163.094.116.163.326.163.629v1.444c0 .326-.07.536-.163.629-.093.116-.28.163-.512.163h-1.77c-1.165 0-1.98-.21-2.447-.676-.466-.442-.699-1.234-.699-2.353v-2.515l-.768.489c-.303.186-.513.28-.606.28-.186 0-.256-.14-.256-.42v-2.166c0-.233.023-.397.116-.513.07-.093.21-.233.443-.396l1.071-.676v-6.15c0-.233.047-.396.163-.512.117-.093.327-.163.63-.163h2.143c.28 0 .489.07.605.163.117.116.187.28.187.512v3.774l1.048-.675c.28-.187.49-.28.606-.28.163 0 .256.14.256.42v2.166c0 .233-.047.42-.116.512a2 2 0 0 1-.443.396l-1.351.862v4.45c0 .186.023.303.093.35.047.07.163.092.35.092m9.69 2.073h-.046c-.513.792-1.538 1.165-3.052 1.165h-.35c-1.187 0-2.12-.303-2.771-.909-.676-.606-1.002-1.514-1.002-2.679v-.256c0-1.258.35-2.167 1.072-2.68.722-.512 1.886-.768 3.517-.768h.163c.606 0 1.165.047 1.631.093v-.489c0-.49-.14-.839-.396-1.025-.28-.163-.746-.256-1.398-.256-.792 0-1.677.14-2.702.396-.28.07-.49.07-.582 0-.117-.07-.187-.21-.21-.443l-.187-1.235c-.046-.232-.046-.396-.046-.465 0-.28.186-.49.559-.606a15 15 0 0 1 3.984-.513c1.793 0 3.075.396 3.82 1.142.583.605.885 1.584.885 2.912v6.919c0 .35-.139.559-.372.652-.583.233-1.072.56-1.445.978-.396.42-.582.862-.582 1.305v.07q0 .63.629.629h.07c.279 0 .629-.047 1.001-.187.117-.023.21-.046.28-.046.117 0 .21.116.28.303l.116.489c.07.326.117.49.117.536 0 .14-.117.256-.327.35a5.2 5.2 0 0 1-1.887.349h-.139c-.792 0-1.421-.163-1.84-.513s-.63-.838-.63-1.444v-.117c0-.559.187-1.095.583-1.607.372-.513.885-.932 1.49-1.258zm-.838-2.982v-.652q-.384-.07-1.118-.07h-.256q-.84 0-1.189.21c-.233.14-.326.419-.326.838v.093c0 .42.093.7.326.839.21.163.536.233.979.233h.163c.466 0 .815-.117 1.095-.35.21-.186.326-.582.326-1.141m11.385 1.142h.187c.629 0 1.304-.094 2.026-.303.233-.047.373-.07.443-.07.233 0 .373.14.419.396l.21 1.188c.047.326.093.536.093.629 0 .28-.21.49-.606.629-1.025.373-2.143.536-3.354.536h-.28c-1.677 0-2.912-.373-3.681-1.165q-1.188-1.188-1.188-3.984v-1.35c0-1.096.094-1.958.28-2.563a3.65 3.65 0 0 1 .908-1.538c.816-.815 2.097-1.235 3.844-1.235h.233c1.398 0 2.609.257 3.588.77.279.162.442.349.442.582 0 .14-.069.372-.186.698l-.443 1.119q-.174.42-.489.419a.95.95 0 0 1-.419-.117c-.746-.302-1.444-.465-2.073-.465h-.094c-.605 0-1.048.163-1.327.442-.35.35-.513 1.072-.513 2.143v.792c0 .956.14 1.608.466 1.957.303.326.815.49 1.514.49m9.018-5.661h-3.704c-.233 0-.396-.024-.489-.117s-.117-.28-.117-.559v-1.607c0-.28.024-.443.117-.536q.14-.14.489-.14h7.874c.233 0 .396.047.513.14.093.093.163.28.163.535v.443c0 .606-.187 1.165-.513 1.654l-4.007 5.684h3.984c.233 0 .373.047.466.14s.14.256.14.536v1.607q0 .42-.14.56c-.093.093-.233.116-.466.116h-8.014c-.489 0-.722-.21-.722-.676v-.535c0-.606.163-1.142.512-1.654zm12.636-3.169h.186c1.352 0 2.353.326 2.959.955.559.606.862 1.631.862 3.076v6.918c0 .233-.07.42-.186.513-.117.116-.327.163-.606.163h-2.143c-.303 0-.513-.047-.629-.163-.117-.093-.163-.28-.163-.513v-6.592c0-.513-.094-.886-.257-1.072-.186-.186-.536-.303-1.025-.303h-.14c-.512 0-.838.117-1.025.303s-.256.56-.256 1.072v6.592c0 .233-.07.42-.186.513-.117.116-.326.163-.606.163h-2.143c-.303 0-.513-.047-.629-.163-.117-.093-.163-.28-.163-.513V19.237c0-.233.046-.396.163-.489.116-.093.326-.163.629-.163h1.095c.279 0 .466.047.582.116q.175.105.28.42l.14.442h.069c.746-.792 1.794-1.188 3.192-1.188m10 .886v10.063c0 .233-.07.42-.187.513-.116.116-.326.163-.605.163h-2.143c-.303 0-.513-.047-.629-.163-.117-.093-.164-.28-.164-.513V19.26c0-.232.047-.396.164-.512.116-.093.326-.163.629-.163h2.143c.279 0 .489.07.605.163.117.116.187.28.187.512m-1.724-1.561h-.28c-1.258 0-1.887-.63-1.887-1.934v-.116c0-1.282.629-1.934 1.887-1.934h.28c1.258 0 1.887.652 1.887 1.934v.116c0 1.305-.629 1.934-1.887 1.934m9.682 9.505h.257c.792 0 1.63-.094 2.469-.303.233-.047.373-.07.443-.07.233 0 .372.14.419.396l.186 1.165c.047.326.093.535.093.629 0 .28-.209.489-.605.629-1.072.372-2.26.559-3.518.559h-.443q-2.865 0-4.053-1.188a3.34 3.34 0 0 1-.932-1.585c-.163-.605-.233-1.42-.233-2.422V23.71c0-2.027.466-3.448 1.398-4.286.792-.7 2.003-1.049 3.657-1.049h.326c1.631 0 2.819.396 3.518 1.165.746.839 1.118 2.213 1.118 4.17v1.212c0 .442-.233.652-.675.652h-5.591v.186c0 .56.14.932.466 1.142.303.21.862.302 1.7.302m-2.166-4.054h2.562c.187 0 .28-.093.28-.303v-.373c0-.466-.093-.815-.233-1.071-.186-.28-.559-.42-1.072-.42h-.209c-.466 0-.792.117-.979.327q-.35.419-.349 1.258zm20.748-4.231h.251c1.001 0 1.846-.188 2.566-.564v-.438c0-1.721-.187-2.88-.532-3.474-.344-.595-.97-.908-1.909-.908h-.282q-2.347 0-2.347 2.536v.281c0 .94.156 1.596.532 1.972.375.407.939.595 1.721.595m-5.665 10.454c-.376-.125-.532-.344-.532-.72q0-.188.094-.563l.501-2.004c.125-.5.5-.688 1.064-.532 1.502.47 2.817.689 3.944.689h.094c1.126 0 1.909-.282 2.41-.908q.75-.891.845-2.817c-1.033.439-2.16.626-3.381.626h-.344c-2.222 0-3.819-.532-4.82-1.659-1.002-1.095-1.471-2.785-1.471-5.039v-.438c0-2.003.594-3.6 1.815-4.789 1.221-1.158 3.005-1.753 5.352-1.753h.439c2.817 0 4.82.751 5.947 2.191s1.721 3.819 1.721 7.137v.75c0 1.785-.156 3.319-.469 4.633s-.72 2.379-1.221 3.13a5.66 5.66 0 0 1-1.909 1.847c-.752.47-1.503.782-2.254.908-.751.156-1.628.219-2.598.219h-.031c-1.816 0-3.568-.282-5.196-.908m37.087-9.14v8.858c0 .313-.094.564-.251.689-.156.156-.438.219-.814.219h-2.879c-.407 0-.689-.063-.845-.22-.157-.124-.219-.375-.219-.688v-8.858c0-.688-.126-1.189-.345-1.44-.25-.25-.72-.406-1.377-.406h-.063c-.688 0-1.126.156-1.377.407-.25.25-.344.75-.344 1.44v8.857c0 .313-.094.564-.25.689-.157.156-.439.219-.814.219h-2.88c-.407 0-.688-.063-.845-.22-.156-.124-.219-.375-.219-.688V15.54c0-.313.063-.532.219-.657.157-.125.438-.219.845-.219h1.471c.376 0 .626.063.783.156q.234.141.375.564l.188.595h.094c1.002-1.065 2.41-1.597 4.288-1.597h.125c1.784 0 3.162.501 4.132 1.44 1.002-.939 2.441-1.44 4.257-1.44h.125c1.815 0 3.161.438 3.975 1.284.751.813 1.158 2.19 1.158 4.131v9.296c0 .313-.094.564-.25.689-.157.156-.438.219-.814.219h-2.88c-.407 0-.688-.063-.845-.22-.156-.124-.219-.375-.219-.688v-8.858c0-.688-.125-1.189-.344-1.44-.251-.25-.72-.406-1.377-.406h-.063c-.689 0-1.127.156-1.377.407-.251.25-.344.75-.344 1.44m16.552-4.663v13.521c0 .313-.094.564-.25.689-.157.156-.439.219-.814.219h-2.88c-.407 0-.688-.063-.845-.22-.156-.124-.219-.375-.219-.688V15.571c0-.313.063-.532.219-.689.157-.125.438-.219.845-.219h2.88c.375 0 .657.094.814.22.156.156.25.375.25.688m-2.316-2.097h-.376c-1.69 0-2.535-.845-2.535-2.598v-.157c0-1.721.845-2.598 2.535-2.598h.376c1.69 0 2.535.877 2.535 2.598v.157c0 1.753-.845 2.598-2.535 2.598m13.009 12.77h.344c1.064 0 2.191-.125 3.318-.407.313-.062.501-.094.595-.094.313 0 .5.188.563.532l.25 1.565c.063.439.126.72.126.845 0 .376-.282.658-.814.846-1.44.5-3.036.75-4.727.75h-.594q-3.85 0-5.446-1.596a4.5 4.5 0 0 1-1.252-2.128c-.22-.814-.313-1.91-.313-3.255v-1.753c0-2.723.626-4.632 1.878-5.76 1.064-.938 2.691-1.408 4.914-1.408h.438c2.191 0 3.787.532 4.726 1.565 1.002 1.127 1.503 2.974 1.503 5.603v1.628c0 .594-.313.876-.908.876h-7.512v.25c0 .752.188 1.252.626 1.534.407.282 1.158.407 2.285.407m-2.911-5.446h3.443c.25 0 .375-.125.375-.407v-.5c0-.627-.125-1.096-.313-1.44-.25-.376-.751-.564-1.439-.564h-.282c-.626 0-1.064.156-1.315.438q-.47.565-.469 1.69zm10.674-1.096v-.407c0-1.533.407-2.691 1.221-3.505.939-.94 2.535-1.409 4.757-1.409h.313c1.753 0 3.287.188 4.57.564q.375.141.47.281c.062.126.093.282.062.532l-.344 2.567c-.063.407-.344.532-.845.407-1.252-.282-2.379-.438-3.318-.438h-.031c-.689 0-1.19.062-1.44.188-.282.125-.407.344-.407.657v.094c0 .313.094.532.344.657.251.125.72.282 1.44.407l1.471.313c1.346.313 2.316.782 2.88 1.409.563.626.845 1.596.845 2.88v.469c0 3.286-2.066 4.914-6.135 4.914h-.313c-2.066 0-3.787-.282-5.227-.845-.282-.094-.47-.22-.532-.376-.063-.125-.063-.376 0-.72l.438-2.066c.094-.594.438-.782 1.064-.594 1.44.5 2.692.72 3.756.72h.094c.689 0 1.158-.063 1.44-.22.25-.125.407-.375.407-.72v-.093c0-.25-.125-.47-.344-.595q-.376-.188-1.503-.47l-1.377-.313q-2.066-.47-2.911-1.408c-.563-.626-.845-1.565-.845-2.88m19.66-4.131v13.521c0 .313-.094.564-.25.689-.157.156-.438.219-.814.219h-2.88c-.406 0-.688-.063-.845-.22-.156-.124-.219-.375-.219-.688V15.571c0-.313.063-.532.219-.689.157-.125.439-.219.845-.219h2.88c.376 0 .657.094.814.22.156.156.25.375.25.688m-2.316-2.097h-.376c-1.69 0-2.535-.845-2.535-2.598v-.157c0-1.721.845-2.598 2.535-2.598h.376c1.69 0 2.535.877 2.535 2.598v.157c0 1.753-.845 2.598-2.535 2.598m13.009 12.77h.344c1.065 0 2.191-.125 3.318-.407.313-.062.501-.094.595-.094.313 0 .501.188.563.532l.251 1.565c.062.439.125.72.125.845 0 .376-.282.658-.814.846a4.54 4.54 0 0 0-2.003 1.502c-.532.688-.783 1.377-.783 2.003v.094c0 .595.282.876.845.876h.157c.344 0 .782-.062 1.283-.25.157-.031.282-.063.376-.063.156 0 .282.157.375.407l.157.658c.094.438.156.657.156.72 0 .187-.156.344-.438.469a7 7 0 0 1-2.535.47h-.188c-1.095 0-1.909-.22-2.473-.69-.563-.469-.845-1.126-.845-2.002v-.094c0-.564.188-1.19.595-1.816s.939-1.126 1.628-1.565c-.251.032-.595.032-1.033.032h-.595q-3.85 0-5.446-1.597a4.5 4.5 0 0 1-1.252-2.128c-.219-.814-.313-1.91-.313-3.255v-1.753c0-2.723.626-4.632 1.878-5.76 1.064-.938 2.692-1.408 4.914-1.408h.438c2.191 0 3.787.532 4.726 1.565 1.002 1.127 1.503 2.974 1.503 5.603v1.628c0 .594-.313.876-.908.876h-7.512v.25c0 .752.188 1.252.626 1.534.407.282 1.158.407 2.285.407m-2.911-5.446h3.443c.251 0 .376-.125.376-.407v-.5c0-.627-.125-1.096-.313-1.44-.251-.376-.751-.564-1.44-.564h-.282c-.626 0-1.064.156-1.314.438q-.47.565-.47 1.69zm18.28 5.446h.251c.845 0 1.752-.125 2.723-.407.313-.062.5-.094.594-.094.313 0 .501.188.564.532l.281 1.597c.063.438.126.72.126.845 0 .375-.282.657-.814.845-1.377.5-2.88.72-4.507.72h-.376c-2.254 0-3.912-.501-4.945-1.565q-1.597-1.597-1.597-5.353V21.55c0-1.471.126-2.63.376-3.443a4.9 4.9 0 0 1 1.221-2.066c1.095-1.095 2.817-1.659 5.164-1.659h.313c1.878 0 3.506.345 4.82 1.033.376.22.595.47.595.783 0 .188-.094.5-.25.939l-.595 1.502q-.236.564-.657.563c-.126 0-.313-.03-.564-.156-1.001-.407-1.94-.626-2.785-.626h-.126c-.813 0-1.408.22-1.784.595-.469.47-.688 1.44-.688 2.88v1.064c0 1.283.187 2.16.626 2.629.407.438 1.095.657 2.034.657m20.836-10.642c-.438 2.942-1.252 6.197-2.442 9.797-1.22 3.6-2.691 7.011-4.413 10.204-.219.438-.501.657-.876.657-.251 0-.532-.063-.908-.25l-1.596-.689c-.564-.25-.814-.5-.814-.782 0-.126.031-.314.156-.533 1.065-2.16 1.691-3.411 1.816-3.756-.877-.313-1.534-1.001-2.035-2.128-.563-1.252-1.22-3.161-1.94-5.79q-1.08-3.944-1.597-6.761c-.062-.313-.031-.532.126-.689.156-.125.438-.219.813-.219h2.849c.344 0 .594.063.751.156.156.094.282.282.344.595.72 3.944 1.534 7.45 2.442 10.486h.156c.877-2.504 1.69-5.947 2.442-10.392q.047-.47.281-.657c.157-.125.407-.188.72-.188h2.88c.344 0 .594.094.72.22.125.124.156.375.125.719M312.88 30.21h-.28c-1.631 0-3.052-.21-4.263-.653-.513-.163-.745-.465-.652-.931l.303-1.887c.046-.466.326-.63.815-.466 1.351.489 2.609.722 3.727.722h.117c.699 0 1.211-.093 1.514-.303.28-.186.443-.536.443-1.025v-.233c0-.466-.14-.769-.373-.955-.256-.163-.746-.326-1.468-.466l-1.584-.303c-1.304-.233-2.236-.699-2.749-1.351-.536-.652-.792-1.56-.792-2.749v-.652c0-1.305.35-2.283 1.048-2.982.839-.839 2.4-1.258 4.636-1.258h.163c1.561 0 2.889.21 3.961.605.233.094.396.233.466.373.046.163.046.396-.024.676l-.396 1.7c-.093.42-.396.56-.862.396q-1.606-.489-3.075-.489h-.093c-.769 0-1.304.093-1.584.256-.303.187-.443.49-.443.91v.209c0 .373.094.652.303.792.187.163.606.303 1.212.42l1.77.349c1.398.28 2.353.722 2.889 1.28.512.56.792 1.538.792 2.913v.559c0 1.584-.443 2.726-1.305 3.448-.862.745-2.259 1.095-4.216 1.095m10.459-10.623c.816-.792 1.981-1.212 3.472-1.212h.209c1.445 0 2.47.42 3.099 1.212.559.745.838 2.003.838 3.82v1.747c0 .979-.093 1.794-.233 2.4-.163.606-.442 1.118-.838 1.514-.792.769-1.864 1.142-3.262 1.142h-.256q-1.327 0-2.167-.49v3.588c0 .35-.069.582-.186.676-.14.093-.396.14-.792.14h-1.771c-.396 0-.652-.047-.792-.164-.139-.093-.186-.326-.186-.652V19.33c0-.28.047-.465.186-.582.117-.093.327-.163.629-.163h.979c.279 0 .489.047.606.093.093.07.186.21.256.396l.163.513zm.862 3.308v2.982c0 .535.094.908.327 1.118.209.21.559.303 1.048.303h.21c.535 0 .908-.14 1.141-.466q.28-.42.28-2.027v-1.002c0-1.118-.094-1.817-.28-2.073-.233-.28-.606-.42-1.165-.42h-.163c-.512 0-.862.117-1.095.35-.209.21-.303.629-.303 1.235m12.141.489V25.2c0 .909.139 1.491.419 1.77.21.233.536.327.978.327h.094c.419 0 .745-.093.978-.326.28-.28.419-.862.419-1.771v-1.817c0-.885-.139-1.491-.419-1.77-.233-.21-.559-.327-.978-.327h-.094c-.442 0-.768.117-.978.326-.28.28-.419.886-.419 1.77m6.639.14v1.514c0 1.165-.116 2.05-.349 2.702a3.33 3.33 0 0 1-1.119 1.561c-.768.606-1.956.909-3.587.909h-.28c-1.63 0-2.842-.303-3.587-.909a3.33 3.33 0 0 1-1.119-1.56c-.232-.653-.349-1.538-.349-2.703v-1.491c0-1.142.117-2.027.349-2.679a3.5 3.5 0 0 1 1.119-1.584c.745-.606 1.957-.909 3.587-.909h.28c1.631 0 2.819.303 3.587.909.513.42.886.932 1.119 1.56.233.653.349 1.538.349 2.68m9.286 4.286v1.328c0 .35-.069.582-.163.699-.093.116-.302.163-.582.163h-1.864c-1.677 0-2.795-.28-3.308-.862-.466-.49-.675-1.421-.675-2.819v-4.822h-1.258c-.233 0-.373-.023-.466-.116-.093-.094-.117-.233-.117-.466v-1.188c0-.28.024-.466.117-.56.07-.093.233-.163.489-.233l1.235-.302v-2.283c0-.233.046-.396.163-.513.116-.093.326-.163.629-.163h2.143c.28 0 .489.07.606.163.116.117.186.28.186.513v2.236h1.934c.233 0 .372.047.466.14.093.093.139.256.139.535v1.561q0 .42-.139.56c-.094.093-.233.116-.466.116h-1.934V25.9c0 .42.047.676.186.815.14.163.443.233.909.233h1.025c.28 0 .489.07.582.187.094.116.163.349.163.675m5.537-8.55v10.064c0 .233-.07.42-.186.513-.117.116-.326.163-.606.163h-2.143c-.303 0-.513-.047-.629-.163-.117-.093-.163-.28-.163-.513V19.26c0-.232.046-.396.163-.512.116-.093.326-.163.629-.163h2.143c.28 0 .489.07.606.163.116.116.186.28.186.512m-1.724-1.56h-.279c-1.258 0-1.887-.63-1.887-1.934v-.116c0-1.282.629-1.934 1.887-1.934h.279c1.258 0 1.887.652 1.887 1.934v.116c0 1.305-.629 1.934-1.887 1.934m4.837 3.797h-1.258c-.233 0-.396-.023-.466-.093-.093-.07-.116-.233-.116-.49v-1.14c0-.28.023-.49.093-.583s.233-.187.513-.257l1.234-.302V17.63c0-1.305.303-2.237.932-2.772q.978-.84 3.075-.84h.233c.932 0 1.724.094 2.423.257.233.07.396.163.466.28.046.116.07.303.046.559l-.139 1.467c-.047.233-.094.373-.163.42-.094.046-.257.07-.513.046-.606-.046-1.025-.093-1.305-.093h-.139c-.513 0-.816.07-.955.21-.164.163-.233.442-.233.815v.606h1.933c.233 0 .373.047.466.14s.14.256.14.535v1.561q0 .42-.14.56c-.093.093-.233.116-.466.116h-1.933v7.827c0 .233-.07.42-.187.513-.116.116-.326.163-.606.163h-2.143c-.303 0-.512-.047-.629-.163-.116-.093-.163-.28-.163-.513zm17.892-2.213c-.326 2.19-.932 4.612-1.817 7.292a49.5 49.5 0 0 1-3.285 7.594c-.163.326-.373.49-.652.49-.186 0-.396-.047-.676-.187l-1.188-.513c-.419-.186-.605-.372-.605-.582 0-.093.023-.233.116-.396.792-1.607 1.258-2.54 1.351-2.796-.652-.233-1.141-.745-1.514-1.584-.419-.932-.909-2.353-1.444-4.31q-.804-2.935-1.188-5.032c-.047-.232-.024-.396.093-.512.116-.093.326-.163.605-.163h2.12c.257 0 .443.047.559.116.117.07.21.21.257.443.535 2.935 1.141 5.545 1.817 7.804h.116c.653-1.864 1.258-4.426 1.817-7.734q.036-.35.21-.49c.116-.092.303-.139.536-.139h2.143c.256 0 .443.07.536.163s.116.28.093.536m12.142-1.421h-.302c-.327 0-.653.023-1.026.046-.139.024-.186.117-.186.28v3.68h1.212c.838 0 1.397-.116 1.723-.395.28-.233.42-.676.42-1.375v-.582c0-.56-.14-.979-.396-1.235-.28-.28-.769-.42-1.445-.42m-1.514 7.198v4.217c0 .489-.279.722-.815.722h-2.283c-.303 0-.513-.047-.629-.163-.14-.093-.187-.28-.187-.56V15.884q0-.56.21-.77c.14-.139.396-.232.815-.279.839-.07 2.144-.116 3.937-.116h.28c2.376 0 4.007.466 4.915 1.374.699.746 1.049 1.864 1.049 3.378v.792c0 1.747-.489 2.982-1.468 3.681-1.025.745-2.586 1.118-4.706 1.118zm11.937-5.218h.069c.513-.839 1.375-1.258 2.61-1.258h.931c.233 0 .42.047.513.14s.163.256.163.512v1.7c0 .257-.047.42-.14.513q-.14.14-.489.14h-.699c-.862 0-1.444.163-1.77.49-.28.279-.396.815-.396 1.607v5.637c0 .233-.07.42-.187.513-.116.116-.326.163-.605.163h-2.144c-.302 0-.512-.047-.629-.163-.116-.093-.163-.28-.163-.513V19.237c0-.233.047-.396.163-.489.117-.093.327-.163.629-.163h1.119c.256 0 .442.047.559.116a.95.95 0 0 1 .279.42zm11.117 7.361h.256c.793 0 1.631-.093 2.47-.302.233-.047.373-.07.442-.07.233 0 .373.14.42.396l.186 1.165c.047.326.093.535.093.629 0 .28-.209.489-.605.629-1.072.372-2.26.559-3.518.559h-.443q-2.865 0-4.053-1.188a3.34 3.34 0 0 1-.932-1.585c-.163-.605-.233-1.42-.233-2.422V23.71c0-2.027.466-3.448 1.398-4.286.792-.7 2.003-1.049 3.657-1.049h.326c1.631 0 2.819.396 3.518 1.165.746.839 1.118 2.213 1.118 4.17v1.212c0 .442-.233.652-.675.652h-5.591v.186c0 .56.139.932.466 1.142.302.21.862.302 1.7.302m-2.166-4.053h2.562c.187 0 .28-.093.28-.303v-.373c0-.466-.093-.815-.233-1.071-.187-.28-.559-.42-1.072-.42h-.209c-.466 0-.792.117-.979.327q-.35.419-.349 1.258zm18.311-.42v6.593c0 .233-.07.42-.186.513-.117.116-.327.163-.606.163h-2.143c-.303 0-.513-.047-.629-.163-.117-.093-.163-.28-.163-.513v-6.592c0-.513-.094-.886-.257-1.072-.186-.186-.536-.303-1.025-.303h-.046c-.513 0-.839.117-1.025.303-.187.186-.257.56-.257 1.072v6.592c0 .233-.069.42-.186.513-.116.116-.326.163-.606.163h-2.143c-.303 0-.512-.047-.629-.163-.116-.093-.163-.28-.163-.513V19.237c0-.233.047-.396.163-.489.117-.093.326-.163.629-.163h1.095c.28 0 .466.047.582.116q.175.105.28.42l.14.442h.07c.745-.792 1.793-1.188 3.191-1.188h.093c1.328 0 2.353.373 3.075 1.072.746-.699 1.818-1.072 3.169-1.072h.093c1.351 0 2.353.326 2.958.955.56.606.862 1.631.862 3.076v6.918c0 .233-.069.42-.186.513-.116.116-.326.163-.606.163h-2.143c-.303 0-.512-.047-.629-.163-.116-.093-.163-.28-.163-.513v-6.592c0-.513-.093-.886-.256-1.072-.187-.186-.536-.303-1.025-.303h-.047c-.512 0-.838.117-1.025.303s-.256.56-.256 1.072m12.319-3.47v10.063c0 .233-.069.42-.186.513-.116.116-.326.163-.606.163h-2.143c-.303 0-.512-.047-.629-.163-.116-.093-.163-.28-.163-.513V19.26c0-.232.047-.396.163-.512.117-.093.326-.163.629-.163h2.143c.28 0 .49.07.606.163.117.116.186.28.186.512m-1.723-1.561h-.28c-1.258 0-1.887-.63-1.887-1.934v-.116c0-1.282.629-1.934 1.887-1.934h.28c1.258 0 1.887.652 1.887 1.934v.116c0 1.305-.629 1.934-1.887 1.934m10.264 8.13v-6.57c0-.232.047-.396.163-.512.117-.093.327-.163.629-.163h2.144c.279 0 .489.07.605.163.117.116.187.28.187.512v6.896q0 2.131-1.049 3.075c-.745.652-2.05.979-3.96.979s-3.238-.326-3.96-.979q-1.049-.944-1.049-3.075v-6.895c0-.233.047-.396.164-.513.116-.093.326-.163.629-.163h2.143c.279 0 .489.07.605.163.117.116.187.28.187.512v6.57c0 .536.07.885.256 1.072.186.21.513.302 1.025.302.489 0 .839-.093 1.025-.302.163-.187.256-.536.256-1.072m15.995-3.098v6.592c0 .233-.07.42-.186.513-.117.116-.327.163-.606.163h-2.143c-.303 0-.513-.047-.629-.163-.117-.093-.163-.28-.163-.513v-6.592c0-.513-.094-.886-.257-1.072-.186-.186-.536-.303-1.025-.303h-.046c-.513 0-.839.117-1.025.303-.187.186-.257.56-.257 1.072v6.592c0 .233-.069.42-.186.513-.116.116-.326.163-.606.163h-2.143c-.303 0-.512-.047-.629-.163-.116-.093-.163-.28-.163-.513V19.237c0-.233.047-.396.163-.489.117-.093.326-.163.629-.163h1.095c.28 0 .466.047.582.116q.175.105.28.42l.14.442h.07c.745-.792 1.793-1.188 3.191-1.188h.093c1.328 0 2.353.373 3.075 1.072.746-.699 1.818-1.072 3.169-1.072h.093c1.351 0 2.353.326 2.958.955.56.606.862 1.631.862 3.076v6.918c0 .233-.069.42-.186.513-.116.116-.326.163-.606.163h-2.143c-.303 0-.512-.047-.629-.163-.116-.093-.163-.28-.163-.513v-6.592c0-.513-.093-.886-.256-1.072-.187-.186-.536-.303-1.025-.303h-.047c-.512 0-.838.117-1.025.303s-.256.56-.256 1.072"/></svg>