<svg xmlns="http://www.w3.org/2000/svg" fill="none" viewBox="0 0 113 36"><path fill="#fff" d="m0 13.623.396-3.797H2.83l-1.222 3.797zm3.472 0 .395-3.797h2.435L5.08 13.623zm5.106-1.292V.325h2.268V5.15h5.959V.325h2.267v12.006h-2.267V7.163h-5.96v5.168zM20.98 8.007q0-.931.307-1.732.317-.8.879-1.388a4.2 4.2 0 0 1 1.354-.94 4.3 4.3 0 0 1 1.74-.343q1.151 0 1.95.421.801.422 1.284 1.108.492.685.703 1.547.22.861.22 1.766v.3h-6.302q0 .465.211.852.211.377.536.65.334.264.756.413.431.14.844.14.616 0 1.072-.114.457-.123.774-.272a2.9 2.9 0 0 0 .852-.606l1.151 1.3-.298.3a3.5 3.5 0 0 1-.703.509q-.457.273-1.17.483-.712.22-1.696.22a4.8 4.8 0 0 1-1.837-.343 4.2 4.2 0 0 1-1.415-.94 4.1 4.1 0 0 1-.905-1.45 5.5 5.5 0 0 1-.307-1.881m2.118-.791h4.14q0-.325-.124-.642a1.8 1.8 0 0 0-.369-.589 1.9 1.9 0 0 0-.624-.43 2 2 0 0 0-.861-.176q-.52 0-.923.176-.404.167-.677.43a2 2 0 0 0-.422.59q-.14.324-.14.64m7.005-3.331h2.452l2.408 5.783 2.127-5.783h2.32l-3.524 8.446q-.255.633-.51 1.292-.247.668-.615 1.23-.37.572-.914.932-.537.36-1.363.36-.72 0-1.204-.175a2.6 2.6 0 0 1-.835-.475l.958-1.494q.175.141.387.281.22.14.545.14.43 0 .712-.36t.589-1.116l.263-.685zm13.21 6.521 1.59-1.459q.22.255.51.536.3.273.668.519.369.237.826.404.457.159 1.037.159 1.064 0 1.574-.484.51-.483.51-1.169a1.6 1.6 0 0 0-.141-.677 1.27 1.27 0 0 0-.484-.518 3.6 3.6 0 0 0-.896-.404 11 11 0 0 0-1.354-.343 4.7 4.7 0 0 1-1.432-.501 3.8 3.8 0 0 1-1.002-.818 3.3 3.3 0 0 1-.598-1.028 3.6 3.6 0 0 1-.193-1.169q0-.685.246-1.3.255-.625.773-1.1a4 4 0 0 1 1.31-.764Q47.039 0 48.103 0q.957 0 1.634.22.685.21 1.143.5.466.29.712.572.255.272.369.404l-1.494 1.398a7 7 0 0 1-.29-.255 2.7 2.7 0 0 0-.501-.37 3.2 3.2 0 0 0-.712-.324q-.414-.15-.932-.15-.465 0-.808.132-.344.123-.572.325a1.3 1.3 0 0 0-.334.44q-.105.237-.105.457 0 .325.114.58.123.246.396.466.28.211.764.386.493.168 1.23.317a6.2 6.2 0 0 1 1.346.43q.65.291 1.142.747.501.457.791 1.117.3.658.299 1.573 0 .791-.325 1.459-.316.668-.897 1.169a4.1 4.1 0 0 1-1.37.782 5.1 5.1 0 0 1-1.724.281q-.896 0-1.626-.22a6 6 0 0 1-1.318-.544 5.7 5.7 0 0 1-1.01-.73 7.5 7.5 0 0 1-.712-.756m11.162 5.529V3.885h2.047l.053.958q.159-.176.404-.378.247-.202.58-.36.334-.159.756-.264.422-.114.95-.114.975 0 1.678.377a3.5 3.5 0 0 1 1.178 1.002q.465.615.703 1.415.238.792.238 1.635 0 .993-.29 1.697-.29.694-.721 1.221-.72.861-1.574 1.204a4.7 4.7 0 0 1-1.757.343q-.414 0-.712-.035-.3-.036-.545-.106a5 5 0 0 1-.448-.14 25 25 0 0 0-.44-.167v3.762zm2.1-5.678q.633.518 1.907.527.58 0 1.029-.22a2.48 2.48 0 0 0 1.239-1.432 2.9 2.9 0 0 0 .167-.976q0-.536-.123-1.002a2.2 2.2 0 0 0-.378-.826 1.8 1.8 0 0 0-.668-.554q-.413-.21-1.028-.21-.483 0-.88.21a2.2 2.2 0 0 0-.676.528 2.6 2.6 0 0 0-.44.712q-.149.386-.149.747zm7.787-2.25q0-.931.308-1.732a4.3 4.3 0 0 1 .879-1.388q.57-.598 1.353-.94a4.3 4.3 0 0 1 1.74-.343q1.152 0 1.952.421.799.422 1.283 1.108.493.685.703 1.547.22.861.22 1.766v.3h-6.302q0 .465.211.852.211.377.536.65.334.264.756.413.43.14.844.14.615 0 1.072-.114.458-.123.773-.272a2.9 2.9 0 0 0 .853-.606l1.151 1.3-.299.3a3.5 3.5 0 0 1-.703.509q-.456.273-1.169.483-.712.22-1.696.22a4.8 4.8 0 0 1-1.837-.343 4.2 4.2 0 0 1-1.415-.94 4.1 4.1 0 0 1-.905-1.45 5.5 5.5 0 0 1-.308-1.881m2.119-.791h4.14q0-.325-.124-.642a1.8 1.8 0 0 0-.37-.589 1.9 1.9 0 0 0-.623-.43 2 2 0 0 0-.861-.176q-.52 0-.923.176-.404.167-.677.43a2 2 0 0 0-.422.59q-.14.324-.14.64m7.417 2.645q0-.72.273-1.283.272-.57.756-.958a3.3 3.3 0 0 1 1.169-.58 5.3 5.3 0 0 1 1.511-.202 20 20 0 0 1 1.152.035q.326.018.668.044v-.202q0-.633-.51-.993-.5-.36-1.31-.36-.896 0-1.441.237a7 7 0 0 0-.95.5l-.975-1.432q.255-.175.58-.37.325-.192.756-.342.43-.158.993-.255a8 8 0 0 1 1.328-.096 4.5 4.5 0 0 1 1.467.228q.66.22 1.125.624.466.405.72.976.255.563.256 1.23v5.67H79.48l-.053-.792q-.343.413-1.046.738t-1.565.325q-.518 0-1.037-.166-.51-.159-.931-.493a2.5 2.5 0 0 1-.686-.852q-.264-.528-.264-1.23m2.04-.088q0 .538.386.844.387.308 1.143.308.378 0 .73-.123.351-.123.614-.343.273-.219.44-.501.176-.29.176-.615v-.826l-.633-.036a14 14 0 0 0-1.002-.035q-1.029 0-1.441.405t-.413.922m7.576 2.558V.325h2.118v6.548l3.05-2.988h2.496l-3.164 3.12 3.524 5.326h-2.54l-2.443-3.885-.923.897v2.988zm8.815-4.324q0-.931.308-1.732a4.3 4.3 0 0 1 .879-1.388q.57-.598 1.353-.94a4.3 4.3 0 0 1 1.74-.343q1.152 0 1.952.421.799.422 1.283 1.108.492.685.703 1.547.22.861.22 1.766v.3h-6.302q0 .465.21.852.212.377.537.65.334.264.756.413.43.14.843.14.615 0 1.073-.114.457-.123.773-.272a2.9 2.9 0 0 0 .853-.606l1.151 1.3-.299.3a3.5 3.5 0 0 1-.703.509q-.457.273-1.169.483-.712.22-1.696.22a4.8 4.8 0 0 1-1.837-.343 4.2 4.2 0 0 1-1.415-.94 4.1 4.1 0 0 1-.905-1.45 5.5 5.5 0 0 1-.308-1.881m2.118-.791h4.14q0-.325-.123-.642a1.8 1.8 0 0 0-.37-.589 1.9 1.9 0 0 0-.623-.43 2 2 0 0 0-.862-.176q-.518 0-.922.176-.405.167-.677.43a2 2 0 0 0-.422.59q-.14.324-.14.64m7.963 5.115V3.885h2.03l.053 1.063q.141-.176.369-.386.229-.22.536-.396a3.5 3.5 0 0 1 .712-.316q.405-.133.923-.123.308 0 .545.035.246.034.501.123l-.431 2.004a2 2 0 0 0-.448-.123 2.7 2.7 0 0 0-.527-.044q-.431 0-.826.15a1.9 1.9 0 0 0-.686.412 2.1 2.1 0 0 0-.466.65 2.1 2.1 0 0 0-.167.844v4.553zm7.049 0V9.844h2.575v2.487zm.114-12.006h2.356l-.035 8.244h-2.286zM19.222 30.406l1.59-1.459q.22.255.51.536.3.273.668.519.37.237.826.404.457.159 1.038.159 1.063 0 1.573-.484.51-.483.51-1.169 0-.378-.141-.677a1.27 1.27 0 0 0-.483-.518 3.6 3.6 0 0 0-.897-.404 11 11 0 0 0-1.354-.343 4.7 4.7 0 0 1-1.432-.501 3.8 3.8 0 0 1-1.002-.818 3.3 3.3 0 0 1-.598-1.028 3.6 3.6 0 0 1-.193-1.169q0-.685.246-1.3a3 3 0 0 1 .773-1.1 4 4 0 0 1 1.31-.764q.782-.29 1.846-.29.957 0 1.634.22.686.21 1.143.5.466.291.712.572.255.272.37.404l-1.495 1.398a7 7 0 0 1-.29-.255 2.7 2.7 0 0 0-.501-.37 3.2 3.2 0 0 0-.712-.325q-.413-.15-.932-.149-.465 0-.808.132-.344.123-.572.325a1.3 1.3 0 0 0-.334.44q-.105.237-.105.457 0 .325.114.58.123.246.396.466.28.211.764.386.493.167 1.231.317.703.14 1.345.43.65.291 1.142.747.501.457.791 1.117.3.659.3 1.573-.001.791-.326 1.459a3.5 3.5 0 0 1-.897 1.169q-.57.501-1.37.782a5.1 5.1 0 0 1-1.723.281q-.897 0-1.626-.22a6 6 0 0 1-1.319-.544 5.7 5.7 0 0 1-1.01-.73 7.5 7.5 0 0 1-.712-.756m11.162 5.529v-12.05h2.048l.052.958q.158-.175.405-.378.246-.203.58-.36.333-.159.756-.264.42-.114.949-.114.975 0 1.678.378a3.5 3.5 0 0 1 1.178 1.001q.466.615.703 1.415.238.792.238 1.635 0 .993-.29 1.697-.29.694-.721 1.221-.72.862-1.573 1.204a4.7 4.7 0 0 1-1.758.343q-.414 0-.712-.035-.299-.035-.545-.105a5 5 0 0 1-.448-.141 25 25 0 0 0-.44-.167v3.762zm2.1-5.678q.633.518 1.908.527.58 0 1.028-.22a2.48 2.48 0 0 0 1.24-1.432 2.9 2.9 0 0 0 .166-.976q0-.535-.123-1.002a2.2 2.2 0 0 0-.378-.826 1.8 1.8 0 0 0-.668-.554q-.413-.21-1.028-.21-.483 0-.879.21-.396.203-.677.528a2.6 2.6 0 0 0-.44.712q-.149.386-.149.747zm8.2-7.7v-2.232h2.268v2.233zm.07 9.774v-8.446h2.128v8.446zm3.912-4.324q0-.931.308-1.732a4.3 4.3 0 0 1 .879-1.388q.57-.598 1.353-.94a4.3 4.3 0 0 1 1.74-.343q1.151 0 1.952.421.799.422 1.283 1.108.492.686.703 1.547.22.861.22 1.766v.3h-6.302q0 .465.21.852.212.378.537.65.334.263.756.413.43.14.843.14.615 0 1.073-.113.456-.123.773-.273a2.9 2.9 0 0 0 .853-.606l1.151 1.3-.299.3a3.5 3.5 0 0 1-.703.509q-.457.273-1.169.483-.712.22-1.696.22a4.8 4.8 0 0 1-1.837-.343 4.2 4.2 0 0 1-1.415-.94 4.1 4.1 0 0 1-.905-1.45 5.5 5.5 0 0 1-.308-1.881m2.118-.791h4.14q0-.325-.123-.642a1.8 1.8 0 0 0-.37-.589 1.9 1.9 0 0 0-.623-.43 2 2 0 0 0-.862-.176q-.518 0-.923.176-.405.167-.676.43a2 2 0 0 0-.422.59q-.14.325-.14.64m7.963 5.115V20.325h2.118v12.006zm3.823-4.324q0-.931.308-1.732a4.3 4.3 0 0 1 .879-1.388q.57-.598 1.353-.94a4.3 4.3 0 0 1 1.74-.343q1.152 0 1.952.421.799.422 1.283 1.108.493.686.703 1.547.22.861.22 1.766v.3h-6.302q0 .465.211.852.211.378.536.65.334.263.756.413.43.14.844.14.615 0 1.072-.113.458-.123.773-.273a2.9 2.9 0 0 0 .853-.606l1.151 1.3-.299.3a3.5 3.5 0 0 1-.703.509q-.456.273-1.169.483-.712.22-1.696.22a4.8 4.8 0 0 1-1.837-.343 4.2 4.2 0 0 1-1.415-.94 4.1 4.1 0 0 1-.905-1.45 5.5 5.5 0 0 1-.308-1.881m2.118-.791h4.14q0-.325-.123-.642a1.8 1.8 0 0 0-.37-.589 1.9 1.9 0 0 0-.623-.43 2 2 0 0 0-.861-.176q-.52 0-.923.176-.404.167-.677.43a2 2 0 0 0-.422.59q-.14.325-.14.64M72.08 32.33v-2.487h2.575v2.487zm4.623 0v-2.487h2.575v2.487zm4.685 0v-2.487h2.575v2.487zm4.605-8.191 1.23-3.797h1.6l-.395 3.797zm3.42 0 1.23-3.797h1.6l-.396 3.797z"/></svg>