<svg xmlns="http://www.w3.org/2000/svg" fill="none" viewBox="0 0 139 31"><path fill="#fff" d="M.083 0h2.35l1.85 8.483 2.2-8.16h1.934l2.208 8.16L12.46 0h2.249l-2.98 11.339H9.488L7.379 3.843 5.238 11.34H3.03zm15.796 2.108V0h2.142v2.108zm.067 9.23V3.363h2.009v7.977zm4.067 0V3.363h1.918l.05 1.004a3.4 3.4 0 0 1 .348-.365q.216-.207.506-.374.29-.174.673-.298.382-.124.871-.117.291 0 .515.034.233.032.473.116l-.407 1.892a2 2 0 0 0-.423-.116 2.6 2.6 0 0 0-.498-.041 2.2 2.2 0 0 0-.78.14 1.8 1.8 0 0 0-.648.39q-.273.258-.44.615a1.95 1.95 0 0 0-.157.797v4.3zM0 22.363h2.316l2.142 5.72 2.141-5.72h2.192l-3.362 7.977H3.387zm9.496 3.893q0-.88.29-1.635.3-.756.83-1.312a3.9 3.9 0 0 1 1.279-.888 4.1 4.1 0 0 1 1.644-.324q1.088 0 1.842.399.756.398 1.212 1.046.465.647.664 1.46a6.7 6.7 0 0 1 .208 1.669v.282h-5.952q0 .44.2.805.198.357.506.615.315.249.714.39.405.133.797.133.58 0 1.012-.108.432-.117.73-.258a2.8 2.8 0 0 0 .806-.573l1.087 1.23-.282.281q-.224.224-.664.482a5 5 0 0 1-1.104.456q-.672.208-1.602.208a4.5 4.5 0 0 1-1.735-.324 4 4 0 0 1-1.336-.888 3.9 3.9 0 0 1-.855-1.37 5.2 5.2 0 0 1-.29-1.776m2-.747h3.91q0-.307-.116-.606a1.7 1.7 0 0 0-.349-.556 1.8 1.8 0 0 0-.589-.407 1.9 1.9 0 0 0-.813-.166q-.49 0-.872.166a2 2 0 0 0-.64.407 1.8 1.8 0 0 0-.398.556 1.5 1.5 0 0 0-.132.606m7.521 4.83v-7.976h1.918l.05 1.004q.132-.165.348-.365.216-.207.506-.374a3.3 3.3 0 0 1 .673-.298q.381-.124.871-.117.291 0 .515.034.233.032.473.116l-.407 1.892a2 2 0 0 0-.423-.116 2.6 2.6 0 0 0-.498-.041q-.406 0-.78.14a1.8 1.8 0 0 0-.648.39q-.273.258-.44.615a1.95 1.95 0 0 0-.157.797v4.3zm6.101-.97 1.204-1.303q.374.373.938.622.573.24 1.303.24.647 0 1.038-.165.39-.175.39-.565a.7.7 0 0 0-.067-.307q-.066-.15-.29-.282a2.8 2.8 0 0 0-.606-.274 9 9 0 0 0-1.054-.29 7 7 0 0 1-.855-.274 3.5 3.5 0 0 1-.822-.465 2.6 2.6 0 0 1-.631-.714 2 2 0 0 1-.24-.996q0-.598.282-1.063a2.5 2.5 0 0 1 .755-.78q.473-.315 1.054-.482a4.2 4.2 0 0 1 1.187-.174q1.054 0 1.793.224a4.2 4.2 0 0 1 1.337.656l-1.038 1.411q-.323-.24-.855-.431-.523-.2-1.237-.2t-.996.216-.282.515q0 .373.465.59.473.215 1.46.447.615.133 1.096.34.482.209.83.515.35.307.532.723.19.414.19.996 0 .58-.273 1.046-.266.465-.74.788a3.6 3.6 0 0 1-1.087.498 4.7 4.7 0 0 1-1.32.183q-1.12 0-2.025-.316-.896-.315-1.436-.93m7.828-5.37v-1.636h1.361V19.78h2v2.582h2.142v1.635h-2.141v3.486q0 .681.232 1.046.232.366.739.366.473 0 .755-.133.282-.141.54-.324l.846 1.237a4.2 4.2 0 0 1-1.178.705q-.573.216-1.287.216-.73 0-1.245-.216a2 2 0 0 1-.822-.597 2.4 2.4 0 0 1-.448-.947 5.3 5.3 0 0 1-.133-1.22v-3.619zm7.147 2.257q0-.88.29-1.635.3-.756.83-1.312a3.9 3.9 0 0 1 1.279-.888 4.1 4.1 0 0 1 1.643-.324q1.088 0 1.843.399.756.398 1.212 1.046.465.647.664 1.46a6.7 6.7 0 0 1 .208 1.669v.282H42.11q0 .44.2.805.198.357.505.615.316.249.714.39.407.133.797.133.581 0 1.013-.108a4.4 4.4 0 0 0 .73-.258 2.8 2.8 0 0 0 .805-.573l1.088 1.23-.282.281q-.225.224-.664.482a5 5 0 0 1-1.104.456q-.673.208-1.602.208a4.5 4.5 0 0 1-1.735-.324 4 4 0 0 1-1.337-.888 3.9 3.9 0 0 1-.855-1.37 5.2 5.2 0 0 1-.29-1.776m2-.747h3.91q0-.307-.116-.606a1.7 1.7 0 0 0-.349-.556 1.8 1.8 0 0 0-.59-.407 1.9 1.9 0 0 0-.813-.166q-.49 0-.871.166a2 2 0 0 0-.64.407 1.8 1.8 0 0 0-.398.556 1.5 1.5 0 0 0-.133.606m7.52 4.83V19h1.968v4.184q.308-.34.896-.665.59-.323 1.503-.323.73 0 1.303.24.582.233.963.673.39.431.59 1.046.207.607.207 1.336v4.848h-2.009v-4.831q0-.764-.415-1.179t-1.079-.415q-.407 0-.764.166a1.8 1.8 0 0 0-.614.448 2.1 2.1 0 0 0-.407.673 2.4 2.4 0 0 0-.14.822v4.316zm8.99-4.083q0-.88.291-1.635.3-.756.83-1.312a3.9 3.9 0 0 1 1.278-.888 4.1 4.1 0 0 1 1.644-.324q1.088 0 1.843.399.754.398 1.212 1.046.464.647.664 1.46a6.7 6.7 0 0 1 .207 1.669v.282h-5.951q0 .44.199.805.199.357.506.615.315.249.714.39.407.133.797.133.58 0 1.013-.108.43-.117.73-.258a2.8 2.8 0 0 0 .805-.573l1.088 1.23q-.05.048-.283.281-.223.224-.664.482a5 5 0 0 1-1.104.456q-.672.208-1.602.208a4.5 4.5 0 0 1-1.735-.324 4 4 0 0 1-1.336-.888 3.9 3.9 0 0 1-.855-1.37 5.2 5.2 0 0 1-.29-1.776m2.001-.747h3.91a1.7 1.7 0 0 0-.117-.606 1.7 1.7 0 0 0-.348-.556 1.8 1.8 0 0 0-.59-.407 1.9 1.9 0 0 0-.813-.166q-.49 0-.872.166a2 2 0 0 0-.639.407 1.8 1.8 0 0 0-.398.556 1.5 1.5 0 0 0-.133.606m7.52 4.83v-7.976h1.918l.05.905q.15-.166.365-.357.216-.192.515-.349.298-.157.672-.257.374-.108.847-.108 1.494 0 2.274.896.789.888.789 2.4v4.847h-2.01v-4.831q0-.764-.414-1.179-.415-.415-1.08-.415-.406 0-.763.166a1.8 1.8 0 0 0-.614.448 2.1 2.1 0 0 0-.407.673 2.4 2.4 0 0 0-.141.822v4.316zm12.634 0V19H82.9v4.557h5.628V19h2.141v11.339h-2.141v-4.881H82.9v4.88zm12.053-3.129v-4.847h2v4.83q0 .765.416 1.188.423.415 1.087.415.407 0 .764-.158.357-.166.606-.456.257-.29.398-.673.15-.381.15-.822v-4.324h2.008v7.977h-1.925l-.05-.905q-.15.166-.374.357t-.515.357a2.8 2.8 0 0 1-.655.257q-.374.1-.855.1-1.494 0-2.275-.888-.78-.896-.78-2.408m9.006 2.159 1.204-1.303q.374.373.938.622.573.24 1.303.24.648 0 1.038-.165.39-.175.39-.565a.7.7 0 0 0-.066-.307q-.067-.15-.291-.282a2.8 2.8 0 0 0-.606-.274 9 9 0 0 0-1.054-.29 7 7 0 0 1-.855-.274 3.5 3.5 0 0 1-.822-.465 2.6 2.6 0 0 1-.631-.714 2 2 0 0 1-.24-.996q0-.598.282-1.063a2.5 2.5 0 0 1 .755-.78q.474-.315 1.054-.482a4.2 4.2 0 0 1 1.187-.174q1.055 0 1.793.224.739.216 1.337.656l-1.038 1.411a3.3 3.3 0 0 0-.855-.431q-.523-.2-1.237-.2t-.996.216-.282.515q0 .373.465.59.473.215 1.461.447.614.133 1.095.34.481.209.831.515.348.307.531.723.19.414.191.996 0 .58-.274 1.046-.266.465-.739.788a3.6 3.6 0 0 1-1.087.498 4.7 4.7 0 0 1-1.32.183q-1.12 0-2.026-.316-.896-.315-1.436-.93m7.828-5.37v-1.636h1.361V19.78h2.001v2.582h2.141v1.635h-2.141v3.486q0 .681.232 1.046.232.366.739.366.473 0 .755-.133.283-.141.54-.324l.847 1.237q-.599.489-1.179.705a3.6 3.6 0 0 1-1.287.216q-.73 0-1.245-.216a2 2 0 0 1-.822-.597 2.4 2.4 0 0 1-.448-.947 5.3 5.3 0 0 1-.133-1.22v-3.619zm7.147 2.257q0-.88.291-1.635.298-.756.83-1.312a3.9 3.9 0 0 1 1.278-.888 4.1 4.1 0 0 1 1.643-.324q1.088 0 1.843.399a3.4 3.4 0 0 1 1.212 1.046q.465.647.664 1.46.208.814.208 1.669v.282h-5.952q0 .44.199.805.2.357.507.615.315.249.714.39.406.133.796.133.582 0 1.013-.108.431-.117.731-.258a2.8 2.8 0 0 0 .805-.573l1.087 1.23-.282.281q-.225.224-.664.482a5 5 0 0 1-1.104.456q-.672.208-1.602.208a4.5 4.5 0 0 1-1.735-.324 4 4 0 0 1-1.336-.888 3.9 3.9 0 0 1-.855-1.37 5.2 5.2 0 0 1-.291-1.776m2-.747h3.91q0-.307-.116-.606a1.7 1.7 0 0 0-.938-.963 1.9 1.9 0 0 0-.814-.166q-.49 0-.871.166-.382.157-.639.407a1.8 1.8 0 0 0-.399.556 1.5 1.5 0 0 0-.133.606m7.521 4.83v-7.976h1.917l.05.905q.15-.166.366-.357.215-.192.514-.349a3.2 3.2 0 0 1 .673-.257 3 3 0 0 1 .846-.108q1.494 0 2.275.896.788.888.788 2.4v4.847h-2.009v-4.831q0-.764-.415-1.179-.414-.415-1.079-.415-.406 0-.763.166a1.8 1.8 0 0 0-.615.448 2.1 2.1 0 0 0-.406.673 2.4 2.4 0 0 0-.142.822v4.316zm9.529 0V27.99h2.432v2.349z"/></svg>