<svg xmlns="http://www.w3.org/2000/svg" fill="none" viewBox="0 0 408 168"><rect width="408" height="156" fill="#fff" transform="translate(0 6)"/><g clip-path="url(#a)"><rect width="153" height="6" fill="#fff" transform="translate(222 162)"/><path fill="#ae0000" d="M282.832 162H222v6.016h60.832z"/><path fill="#0065b1" d="M289.804 162h-6.953v6.016h6.953z"/><path fill="#008f20" d="M374.967 162h-85.173v6.016h85.173z"/></g><g clip-path="url(#b)"><rect width="348" height="6" fill="#fff" transform="translate(27)"/><path fill="#ae0000" d="M282.655 0h-60.921v6.016h60.921z"/><path fill="#ff8600" d="M221.734 0h-94.046v6.016h94.046z"/><path fill="#0065b1" d="M289.637 0h-6.963v6.016h6.963z"/><path fill="#e90a0a" d="M117.248 0H26.764v6.016h90.484z"/><path fill="#008f20" d="M374.924 0h-85.297v6.016h85.297z"/><path fill="#26221e" d="M127.688 0h-10.44v6.016h10.44z"/></g><g clip-path="url(#c)"><path fill="#008f20" d="M148 95h-24.5v38H148z"/><path fill="#0065b1" d="M123.503 95h-2v38h2z"/><path fill="#ae0000" d="M121.499 95H104v38h17.499z"/><path fill="#ff8600" d="M103.998 95h-27.01v38h27.01z"/><path fill="#26221e" d="M76.99 95h-3v38h3z"/><path fill="#e90a0a" d="M73.99 95H48v38h25.99z"/><g fill="#fff"><path d="M79.058 114.987v6.866h-3.432v-6.333c0-1.94-.858-2.831-2.243-2.831-1.542 0-2.618 1.002-2.618 3.143v6.024h-3.433v-6.333c0-1.94-.814-2.831-2.244-2.831-1.524 0-2.591 1.002-2.591 3.143v6.025H59.06v-9.324h-1.32v-2.676h4.07l.175 1.854c.858-1.319 2.333-2.039 4.07-2.039 1.651 0 3.058.647 3.895 1.962.945-1.225 2.485-1.962 4.269-1.962 2.817 0 4.84 1.65 4.84 5.306"/><path d="M95.47 117.596c0 2.697-2.112 4.257-6.159 4.257h-7.569v-12.666h-1.628v-2.938h8.757c3.849 0 5.829 1.626 5.829 4.058a3.8 3.8 0 0 1-.532 2.016 3.7 3.7 0 0 1-1.514 1.416c1.717.558 2.816 1.895 2.816 3.862zm-10.186-8.627v3.678h3.146c1.738 0 2.684-.618 2.684-1.854s-.946-1.827-2.684-1.827zm6.579 8.247c0-1.314-.968-1.939-2.817-1.939h-3.762v3.862h3.762c1.849 0 2.817-.581 2.817-1.918"/><path d="M109.418 109.86v11.993h-3.278v-1.39c-.858 1.049-2.113 1.562-3.696 1.562-3.343 0-5.918-2.408-5.918-6.179s2.575-6.179 5.918-6.179c1.452 0 2.684.463 3.542 1.449v-1.256zm-3.366 5.994c0-2.073-1.32-3.321-3.014-3.321s-3.037 1.248-3.037 3.321 1.321 3.321 3.037 3.321c1.717 0 3.014-1.248 3.014-3.321"/><path d="M124.467 114.987v6.866h-3.433v-6.333c0-1.94-.88-2.831-2.398-2.831-1.65 0-2.839 1.025-2.839 3.231v5.93h-3.431v-9.314h-1.32v-2.676h4.07l.175 1.872c.903-1.337 2.439-2.051 4.269-2.051 2.794 0 4.907 1.65 4.907 5.306"/><path d="M138.942 121.853h-3.895l-3.343-5.193h-1.585v5.193h-3.431v-16.54h3.431v8.693h1.585l3.168-4.146h3.828l-4.026 5.261z"/></g></g><g fill="#000"><path d="M374.805 57.52c2.048 0 3.392 1.184 3.392 3.6V66h-1.137v-4.768c0-1.776-.895-2.688-2.415-2.688-1.728 0-2.817 1.12-2.817 3.04V66h-1.135v-4.768c0-1.776-.897-2.688-2.433-2.688-1.712 0-2.816 1.12-2.816 3.04V66h-1.135v-7.456h-1.184v-.96h2.079l.08 1.76c.544-1.152 1.68-1.824 3.2-1.824 1.392 0 2.481.592 2.993 1.776.608-1.088 1.808-1.776 3.328-1.776"/><path d="M361.756 61.792c0 .096-.016.224-.016.352h-7.04c.128 1.76 1.472 2.928 3.312 2.928 1.024 0 1.936-.368 2.576-1.104l.64.736c-.752.896-1.92 1.376-3.248 1.376-2.624 0-4.416-1.792-4.416-4.288s1.744-4.272 4.112-4.272 4.08 1.744 4.08 4.272m-4.08-3.296c-1.632 0-2.832 1.152-2.976 2.8h5.968c-.144-1.648-1.344-2.8-2.992-2.8"/><path d="M350.691 55.744a.823.823 0 0 1-.832-.816c0-.432.368-.8.832-.8s.832.352.832.784a.816.816 0 0 1-.832.832M350.115 66v-8.416h1.136V66z"/><path d="m347.055 66-3.344-4.128h-1.616V66h-1.136V54.128h1.136v6.8h1.616l3.2-3.344h1.344l-3.536 3.744L348.415 66z"/><path d="M337.238 55.744a.823.823 0 0 1-.832-.816c0-.432.368-.8.832-.8s.832.352.832.784a.816.816 0 0 1-.832.832M336.662 66v-8.416h1.136V66z"/><path d="M330.112 57.52c2.048 0 3.456 1.184 3.456 3.6V66h-1.136v-4.768c0-1.776-.928-2.688-2.528-2.688-1.808 0-2.944 1.12-2.944 3.04V66h-1.136v-7.456h-1.184v-.96h2.08l.08 1.76c.56-1.152 1.744-1.824 3.312-1.824"/><path d="M323.396 57.584h1.04L321.252 66h-1.072l-2.656-6.896L314.868 66h-1.072l-3.168-8.416h1.088l2.64 7.152 2.704-7.152h.976l2.688 7.152z"/><path d="M305.727 66.08c-2.464 0-4.288-1.792-4.288-4.288s1.824-4.272 4.288-4.272 4.272 1.776 4.272 4.272-1.808 4.288-4.272 4.288m0-1.008c1.792 0 3.12-1.312 3.12-3.28s-1.328-3.28-3.12-3.28-3.136 1.312-3.136 3.28 1.344 3.28 3.136 3.28"/><path d="M296.9 66.08c-2.512 0-4.336-1.776-4.336-4.288s1.824-4.272 4.336-4.272c1.424 0 2.624.56 3.296 1.664l-.848.576c-.576-.848-1.472-1.248-2.448-1.248-1.84 0-3.184 1.312-3.184 3.28 0 1.984 1.344 3.28 3.184 3.28.976 0 1.872-.384 2.448-1.232l.848.576c-.672 1.088-1.872 1.664-3.296 1.664"/><path d="M289.191 57.584h1.136V66h-1.088v-1.664c-.688 1.136-1.856 1.744-3.248 1.744-2.4 0-4.192-1.744-4.192-4.288s1.792-4.272 4.192-4.272c1.344 0 2.496.576 3.2 1.664zm-3.104 7.488c1.776 0 3.12-1.312 3.12-3.28s-1.344-3.28-3.12-3.28c-1.792 0-3.136 1.312-3.136 3.28s1.344 3.28 3.136 3.28"/><path d="M277.644 59.376c.496-1.2 1.648-1.856 3.264-1.856v1.152c-.096 0-.192-.016-.272-.016-1.76 0-2.832 1.072-2.832 3.056V66h-1.136v-7.456h-1.184v-.96h2.08z"/><path d="M269.91 57.52c2.4 0 4.192 1.728 4.192 4.272 0 2.56-1.792 4.288-4.192 4.288-1.344 0-2.496-.576-3.2-1.664v4.688h-1.136v-10.56h-1.184v-.96h2.08l.064 1.888c.672-1.264 1.904-1.952 3.376-1.952m-.08 7.552c1.776 0 3.136-1.312 3.136-3.28 0-1.952-1.36-3.28-3.136-3.28-1.792 0-3.136 1.328-3.136 3.28 0 1.968 1.344 3.28 3.136 3.28"/><path d="M254.664 57.52c2.048 0 3.392 1.184 3.392 3.6V66h-1.136v-4.768c0-1.776-.896-2.688-2.416-2.688-1.728 0-2.816 1.12-2.816 3.04V66h-1.136v-4.768c0-1.776-.896-2.688-2.432-2.688-1.712 0-2.816 1.12-2.816 3.04V66h-1.136v-7.456h-1.184v-.96h2.08l.08 1.76c.544-1.152 1.68-1.824 3.2-1.824 1.392 0 2.48.592 2.992 1.776.608-1.088 1.808-1.776 3.328-1.776"/><path d="M239.627 57.584h1.136v7.392c0 2.896-1.328 4.208-3.92 4.208-1.44 0-2.864-.464-3.68-1.296l.576-.864c.72.72 1.824 1.152 3.04 1.152 1.952 0 2.848-.976 2.848-3.056v-.976c-.592.976-1.664 1.536-2.976 1.536-2.16 0-3.552-1.2-3.552-3.616v-4.48h1.136v4.368c0 1.792.928 2.704 2.528 2.704 1.76 0 2.864-1.136 2.864-3.056z"/><path d="M225.503 65.056h5.392V66h-6.848v-.752l5.296-6.704h-5.2v-.96h6.656v.752z"/><path d="M219.387 66.08c-1.392 0-2.736-.448-3.424-1.04l.512-.896c.672.528 1.808.944 2.992.944 1.6 0 2.256-.544 2.256-1.376 0-2.192-5.456-.464-5.456-3.792 0-1.376 1.184-2.4 3.328-2.4 1.088 0 2.272.304 2.976.784l-.496.912c-.736-.512-1.616-.72-2.48-.72-1.52 0-2.192.592-2.192 1.392 0 2.272 5.456.56 5.456 3.792 0 1.456-1.28 2.4-3.472 2.4"/><path d="M212.909 57.584h1.136V66h-1.088v-1.664c-.688 1.136-1.856 1.744-3.248 1.744-2.4 0-4.192-1.744-4.192-4.288s1.792-4.272 4.192-4.272c1.344 0 2.496.576 3.2 1.664zm-3.104 7.488c1.776 0 3.12-1.312 3.12-3.28s-1.344-3.28-3.12-3.28c-1.792 0-3.136 1.312-3.136 3.28s1.344 3.28 3.136 3.28"/><path d="M199.815 57.52c2.048 0 3.456 1.184 3.456 3.6V66h-1.136v-4.768c0-1.776-.928-2.688-2.528-2.688-1.808 0-2.944 1.12-2.944 3.04V66h-1.136v-7.456h-1.184v-.96h2.08l.08 1.76c.56-1.152 1.744-1.824 3.312-1.824"/><path d="M183.472 65.056h5.392V66h-6.848v-.752l5.296-6.704h-5.2v-.96h6.656v.752z"/><path d="M171.112 65.056h5.392V66h-6.848v-.752l5.296-6.704h-5.2v-.96h6.656v.752z"/><path d="M164.996 66.08c-1.392 0-2.736-.448-3.424-1.04l.512-.896c.672.528 1.808.944 2.992.944 1.6 0 2.256-.544 2.256-1.376 0-2.192-5.456-.464-5.456-3.792 0-1.376 1.184-2.4 3.328-2.4 1.088 0 2.272.304 2.976.784l-.496.912c-.736-.512-1.616-.72-2.48-.72-1.52 0-2.192.592-2.192 1.392 0 2.272 5.456.56 5.456 3.792 0 1.456-1.28 2.4-3.472 2.4"/><path d="M158.519 57.584h1.136V66h-1.088v-1.664c-.688 1.136-1.856 1.744-3.248 1.744-2.4 0-4.192-1.744-4.192-4.288s1.792-4.272 4.192-4.272c1.344 0 2.496.576 3.2 1.664zm-3.104 7.488c1.776 0 3.12-1.312 3.12-3.28s-1.344-3.28-3.12-3.28c-1.792 0-3.136 1.312-3.136 3.28s1.344 3.28 3.136 3.28"/><path d="M148.254 55.744a.823.823 0 0 1-.832-.816c0-.432.368-.8.832-.8s.832.352.832.784a.816.816 0 0 1-.832.832M147.678 66v-8.416h1.136V66z"/><path d="M145.208 57.584h1.04L143.064 66h-1.072l-2.656-6.896L136.68 66h-1.072l-3.168-8.416h1.088l2.64 7.152 2.704-7.152h.976l2.688 7.152z"/><path d="M129.675 57.584h1.136V66h-1.088v-1.664c-.688 1.136-1.856 1.744-3.248 1.744-2.4 0-4.192-1.744-4.192-4.288s1.792-4.272 4.192-4.272c1.344 0 2.496.576 3.2 1.664zm-3.104 7.488c1.776 0 3.12-1.312 3.12-3.28s-1.344-3.28-3.12-3.28c-1.792 0-3.136 1.312-3.136 3.28s1.344 3.28 3.136 3.28"/><path d="M116.648 57.52c2.048 0 3.392 1.184 3.392 3.6V66h-1.136v-4.768c0-1.776-.896-2.688-2.416-2.688-1.728 0-2.816 1.12-2.816 3.04V66h-1.136v-4.768c0-1.776-.896-2.688-2.432-2.688-1.712 0-2.816 1.12-2.816 3.04V66h-1.136v-7.456h-1.184v-.96h2.08l.08 1.76c.544-1.152 1.68-1.824 3.2-1.824 1.392 0 2.48.592 2.992 1.776.608-1.088 1.808-1.776 3.328-1.776"/><path d="M98.284 65.056h5.392V66h-6.848v-.752l5.296-6.704h-5.2v-.96h6.656v.752z"/><path d="M91.29 66.08c-2.464 0-4.288-1.792-4.288-4.288s1.824-4.272 4.288-4.272 4.272 1.776 4.272 4.272-1.808 4.288-4.272 4.288m0-1.008c1.792 0 3.12-1.312 3.12-3.28s-1.328-3.28-3.12-3.28-3.136 1.312-3.136 3.28 1.344 3.28 3.136 3.28"/><path d="M82.847 59.376c.496-1.2 1.648-1.856 3.264-1.856v1.152c-.096 0-.192-.016-.272-.016-1.76 0-2.832 1.072-2.832 3.056V66H81.87v-7.456h-1.184v-.96h2.08z"/><path d="M73.143 57.584h1.135v7.392c0 2.896-1.328 4.208-3.92 4.208-1.44 0-2.864-.464-3.68-1.296l.576-.864c.72.72 1.825 1.152 3.04 1.152 1.953 0 2.849-.976 2.849-3.056v-.976c-.593.976-1.665 1.536-2.977 1.536-2.16 0-3.551-1.2-3.551-3.616v-4.48h1.136v4.368c0 1.792.927 2.704 2.527 2.704 1.76 0 2.864-1.136 2.864-3.056z"/><path d="M59.019 65.056h5.392V66h-6.848v-.752l5.296-6.704h-5.2v-.96h6.656v.752z"/><path d="M53.072 66.08c-2.512 0-4.336-1.776-4.336-4.288s1.824-4.272 4.336-4.272c1.424 0 2.624.56 3.296 1.664l-.848.576c-.576-.848-1.472-1.248-2.448-1.248-1.84 0-3.184 1.312-3.184 3.28 0 1.984 1.344 3.28 3.184 3.28.976 0 1.872-.384 2.448-1.232l.848.576c-.672 1.088-1.872 1.664-3.296 1.664"/><path d="M293.659 43.024c.896 0 1.536.624 1.536 1.536 0 .416-.064.72-.432 1.6l-.912 2.304h-1.584l.704-2.544c-.528-.208-.864-.704-.864-1.36 0-.928.672-1.536 1.552-1.536"/><path d="M287.891 37.392h2.496V46h-2.369v-1.024c-.656.752-1.616 1.152-2.672 1.152-2.16 0-3.679-1.216-3.679-3.872v-4.864h2.496v4.496c0 1.44.639 2.08 1.743 2.08 1.152 0 1.985-.736 1.985-2.32z"/><path d="M277.71 41.168 280.814 46h-2.832l-2.432-3.728h-1.152V46h-2.496V34.128h2.496v6.24h1.152l2.304-2.976h2.784z"/><path d="M266.076 37.264c2.032 0 3.568 1.184 3.568 3.808V46h-2.496v-4.544c0-1.392-.64-2.032-1.744-2.032-1.2 0-2.064.736-2.064 2.32V46h-2.496v-6.688h-.96v-1.92h2.96l.128 1.344c.656-.96 1.776-1.472 3.104-1.472"/><path d="M255.892 37.392h2.496V46h-2.384v-.992c-.624.752-1.536 1.12-2.688 1.12-2.432 0-4.304-1.728-4.304-4.432s1.872-4.432 4.304-4.432c1.056 0 1.952.336 2.576 1.04zm-2.144 6.688c1.232 0 2.192-.896 2.192-2.384s-.96-2.384-2.192-2.384c-1.248 0-2.208.896-2.208 2.384s.96 2.384 2.208 2.384"/><path d="M245.827 40.176c1.248.4 2.048 1.36 2.048 2.768 0 1.936-1.536 3.056-4.48 3.056h-5.504v-9.088h-1.184V34.8h6.368c2.8 0 4.24 1.168 4.24 2.912 0 1.12-.576 1.984-1.488 2.464m-3.072-3.424h-2.288v2.64h2.288c1.264 0 1.952-.448 1.952-1.328s-.688-1.312-1.952-1.312m.448 7.296c1.344 0 2.048-.416 2.048-1.376 0-.944-.704-1.392-2.048-1.392h-2.736v2.768z"/><path d="M231.962 37.264c2.048 0 3.52 1.184 3.52 3.808V46h-2.496v-4.544c0-1.392-.624-2.032-1.632-2.032-1.12 0-1.904.72-1.904 2.256V46h-2.496v-4.544c0-1.392-.592-2.032-1.632-2.032-1.104 0-1.888.72-1.888 2.256V46h-2.496v-6.688h-.96v-1.92h2.96l.128 1.328c.624-.944 1.696-1.456 2.96-1.456 1.2 0 2.224.464 2.832 1.408.688-.88 1.808-1.408 3.104-1.408"/><path d="M212.634 36.192c-.928 0-1.552-.608-1.552-1.392s.624-1.392 1.552-1.392 1.552.576 1.552 1.344c0 .832-.624 1.44-1.552 1.44M211.386 46v-8.608h2.496V46z"/><path d="M207.888 36.192c-.928 0-1.552-.608-1.552-1.392s.624-1.392 1.552-1.392 1.552.576 1.552 1.344c0 .832-.624 1.44-1.552 1.44m-1.712 13.04c-.688 0-1.296-.144-1.792-.48l.672-1.808c.256.192.512.304.848.304.432 0 .736-.304.736-.928v-8.928h2.496v8.784c0 1.888-1.072 3.056-2.96 3.056"/><path d="M201.187 46.128c-2.8 0-4.8-1.84-4.8-4.432s2-4.432 4.8-4.432c1.808 0 3.232.784 3.856 2.192l-1.936 1.04c-.464-.816-1.152-1.184-1.936-1.184-1.264 0-2.256.88-2.256 2.384s.992 2.384 2.256 2.384c.784 0 1.472-.352 1.936-1.184l1.936 1.056c-.624 1.376-2.048 2.176-3.856 2.176"/><path d="M192.283 37.392h2.496V46h-2.384v-.992c-.624.752-1.536 1.12-2.688 1.12-2.432 0-4.304-1.728-4.304-4.432s1.872-4.432 4.304-4.432c1.056 0 1.952.336 2.576 1.04zm-2.144 6.688c1.232 0 2.192-.896 2.192-2.384s-.96-2.384-2.192-2.384c-1.248 0-2.208.896-2.208 2.384s.96 2.384 2.208 2.384"/><path d="M182.257 41.168 185.361 46h-2.832l-2.432-3.728h-1.152V46h-2.496V34.128h2.496v6.24h1.152l2.304-2.976h2.784z"/><path d="M172.884 36.192c-.928 0-1.552-.608-1.552-1.392s.624-1.392 1.552-1.392 1.552.576 1.552 1.344c0 .832-.624 1.44-1.552 1.44M171.636 46v-8.608h2.496V46z"/><path d="M166.824 46V34.128h2.496V46z"/><path d="M160.87 37.264c2.416 0 4.288 1.728 4.288 4.432s-1.872 4.432-4.288 4.432c-1.072 0-1.952-.336-2.592-1.04v4.016h-2.496v-9.792h-.96v-1.92h2.96l.16 1.296c.624-.96 1.632-1.424 2.928-1.424m-.432 6.816c1.248 0 2.192-.896 2.192-2.384s-.944-2.384-2.192-2.384-2.192.896-2.192 2.384.944 2.384 2.192 2.384"/><path d="M150.829 37.392h2.496V46h-2.384v-.992c-.624.752-1.536 1.12-2.688 1.12-2.432 0-4.304-1.728-4.304-4.432s1.872-4.432 4.304-4.432c1.056 0 1.952.336 2.576 1.04zm-2.144 6.688c1.232 0 2.192-.896 2.192-2.384s-.96-2.384-2.192-2.384c-1.248 0-2.208.896-2.208 2.384s.96 2.384 2.208 2.384"/><path d="M136.69 37.392h2.208L135.778 46h-2.4l-1.936-5.344-2 5.344h-2.4l-3.104-8.608h2.352l2.032 5.824 2.112-5.824h2.112l2.048 5.824z"/><path d="m118.495 33.984-2.896 2.304h-1.952l2.16-2.304zm-4.08 10.096h4.528V46h-7.68v-1.504l4.384-5.184h-4.272v-1.92h7.424v1.504z"/><path d="M107.049 34.128h2.496V46h-2.384v-.992c-.624.752-1.536 1.12-2.688 1.12-2.432 0-4.304-1.728-4.304-4.432s1.872-4.432 4.304-4.432c1.056 0 1.952.336 2.576 1.04zm-2.144 9.952c1.232 0 2.192-.896 2.192-2.384s-.96-2.384-2.192-2.384c-1.248 0-2.208.896-2.208 2.384s.96 2.384 2.208 2.384"/><path d="M98.284 37.392h2.208L97.372 46h-2.4l-1.936-5.344-2 5.344h-2.4l-3.104-8.608h2.352l2.032 5.824 2.112-5.824h2.112l2.048 5.824z"/><path d="M81.923 37.392h2.496V46h-2.384v-.992c-.624.752-1.536 1.12-2.688 1.12-2.432 0-4.304-1.728-4.304-4.432s1.872-4.432 4.304-4.432c1.056 0 1.952.336 2.576 1.04zM79.78 44.08c1.232 0 2.192-.896 2.192-2.384s-.96-2.384-2.192-2.384c-1.248 0-2.208.896-2.208 2.384s.96 2.384 2.208 2.384"/><path d="M71.238 38.848c.576-1.04 1.728-1.584 3.216-1.584v2.416c-.208-.016-.368-.032-.544-.032-1.392 0-2.304.704-2.304 2.288V46H69.11v-6.688h-.96v-1.92h2.96z"/><path d="M62.948 37.264c2.416 0 4.288 1.728 4.288 4.432s-1.872 4.432-4.288 4.432c-1.072 0-1.952-.336-2.592-1.04v4.016H57.86v-9.792h-.96v-1.92h2.96l.16 1.296c.624-.96 1.632-1.424 2.928-1.424m-.432 6.816c1.248 0 2.192-.896 2.192-2.384s-.944-2.384-2.192-2.384-2.192.896-2.192 2.384.944 2.384 2.192 2.384"/><path d="M52.048 46.128c-1.456 0-2.928-.4-3.728-.928l.832-1.792c.768.496 1.936.832 2.992.832 1.152 0 1.584-.304 1.584-.784 0-1.408-5.2.032-5.2-3.408 0-1.632 1.472-2.784 3.984-2.784 1.184 0 2.496.272 3.312.752l-.832 1.776a4.94 4.94 0 0 0-2.48-.64c-1.12 0-1.6.352-1.6.8 0 1.472 5.2.048 5.2 3.44 0 1.6-1.488 2.736-4.064 2.736"/></g><defs><clipPath id="a"><rect width="153" height="6" fill="#fff" transform="translate(222 162)"/></clipPath><clipPath id="b"><rect width="348" height="6" fill="#fff" transform="translate(27)"/></clipPath><clipPath id="c"><rect width="100" height="38" fill="#fff" transform="translate(48 95)"/></clipPath></defs></svg>