<svg xmlns="http://www.w3.org/2000/svg" fill="none" viewBox="0 0 296 60"><path fill="#fff" d="M.444 1.069h12.862V22.96H9.051V4.771H4.7V22.96H.444zm16.62 21.891V1.393c1.202-.26 2.826-.422 4.45-.422 2.534 0 4.515.357 5.944 1.689 1.3 1.137 1.884 2.956 1.884 4.807 0 2.371-.715 4.028-1.851 5.262-1.365 1.429-3.573 2.079-5.327 2.079h-.845v8.152zM21.32 4.576v6.756c.195.065.423.065.683.065 2.143 0 3.118-1.526 3.118-3.573 0-1.916-.78-3.41-2.761-3.41-.39 0-.78.065-1.04.162M38.048.81c5.294 0 6.788 5.814 6.788 10.816 0 8.25-2.923 11.595-7.08 11.595-4.97 0-6.919-5.262-6.919-11.27 0-5.977 2.371-11.141 7.21-11.141m-.163 3.702c-1.689 0-2.63 2.794-2.63 7.503 0 4.97.941 7.503 2.663 7.503 1.786 0 2.468-3.248 2.468-7.698 0-3.832-.585-7.308-2.5-7.308M53.425.29h3.735v1.656c3.93.52 6.919 3.606 6.919 9.907 0 6.723-3.021 9.549-6.919 10.101v1.787h-3.767v-1.787c-3.963-.584-6.919-3.378-6.919-10.004 0-6.43 3.54-9.484 6.951-10.004zm0 18.546V5.031c-1.3.39-2.696 2.144-2.696 6.983 0 4.515 1.364 6.529 2.696 6.821m3.703-13.804v13.804c1.429-.292 2.696-2.046 2.696-6.95 0-4.97-1.462-6.562-2.696-6.854m9.64-3.962h3.767v4.839c0 4.028-.26 7.795-.422 10.069h.065c.617-1.884 1.722-4.742 2.371-6.431l3.216-8.477h3.865V22.96h-3.735v-4.937c0-4.385.162-7.633.26-9.841h-.065c-.488 1.98-1.462 4.612-2.177 6.43l-3.215 8.348h-3.93zm17.497 0h11.4V22.96H91.41V4.771h-3.248v5.782c0 5.034-.325 9.451-3.085 11.595-.812.65-1.852 1.072-2.924 1.072l-.909-3.605c.52-.13 1.072-.39 1.462-.78 1.266-1.3 1.559-3.638 1.559-7.893zm22.579 16.89h-3.931l-.974 5.001h-4.125l4.742-21.891h5.1l4.254 21.891h-4.125zm-3.508-3.314h3.118l-.715-4.58c-.227-1.331-.519-3.507-.714-4.969h-.098c-.227 1.462-.552 3.735-.779 5.002zM114.314 1.07h4.158v9.516h.324l3.573-9.516h4.677l-5.034 10.133c2.241.845 2.988 2.891 3.605 5.554.487 2.111.845 4.19 1.494 6.204h-4.255c-.519-1.559-.844-3.345-1.201-5.067-.52-2.566-1.105-4.222-2.859-4.222h-.324v9.289h-4.158zm17.628 21.891V4.999h-3.865v-3.93h12.017v3.93h-3.897V22.96zm10.38-21.891h3.768v4.839c0 4.028-.26 7.795-.423 10.069h.065c.617-1.884 1.722-4.742 2.371-6.431l3.216-8.477h3.865V22.96h-3.735v-4.937c0-4.385.162-7.633.26-9.841h-.065c-.488 1.98-1.462 4.612-2.177 6.43l-3.215 8.348h-3.93zm16.652 0h4.158v9.516h.324l3.573-9.516h4.677l-5.034 10.133c2.241.845 2.988 2.891 3.605 5.554.487 2.111.845 4.19 1.494 6.204h-4.255c-.519-1.559-.844-3.345-1.201-5.067-.52-2.566-1.105-4.222-2.859-4.222h-.324v9.289h-4.158zm22.631 16.89h-3.93l-.975 5.001h-4.125l4.742-21.891h5.1l4.255 21.891h-4.125zm-3.508-3.314h3.118l-.715-4.58c-.227-1.331-.519-3.507-.714-4.969h-.098c-.227 1.462-.552 3.735-.779 5.002zm16.148 8.25V1.393c1.3-.292 2.989-.422 4.84-.422 2.046 0 4.027.26 5.554 1.56 1.169.974 1.657 2.435 1.657 3.962 0 1.948-1.007 3.832-3.184 4.774v.13c2.534.715 3.898 2.826 3.898 5.23 0 1.818-.585 3.215-1.624 4.287-1.299 1.429-3.508 2.208-7.178 2.208-1.624 0-2.988-.097-3.963-.227M198.5 4.284v5.782h.91c1.526 0 2.696-1.3 2.696-3.086 0-1.592-.747-2.826-2.501-2.826-.455 0-.845.033-1.105.13m0 8.932v6.561c.26.065.552.065.942.065 1.722 0 3.151-1.04 3.151-3.28 0-2.177-1.494-3.314-3.183-3.346zm10.992-7.86-.715-3.28c.942-.65 2.761-1.267 4.839-1.267 4.158 0 6.107 2.533 6.107 5.391 0 2.241-1.494 4.418-3.703 4.97v.065c2.566.52 4.352 2.468 4.352 5.489 0 4.19-3.572 6.496-7.503 6.496-1.818 0-3.41-.422-4.417-.974l.617-3.476c.942.552 2.176.877 3.378.877 2.274 0 3.476-1.3 3.476-3.053 0-2.436-2.014-3.41-4.32-3.41h-.617V9.968h.422c1.949 0 3.897-.942 3.897-2.956 0-1.526-.941-2.566-2.76-2.566-1.007 0-2.209.423-3.053.91m15.412-4.287h11.27v18.253l1.722.065-.195 8.348h-3.216l-.162-4.775h-9.517l-.162 4.775h-3.248l-.163-8.348 1.559-.065c.682-1.656 1.137-3.313 1.494-5.1.423-2.5.618-5.066.618-7.632zm3.897 3.702v2.534c0 2.5-.162 5.034-.52 7.373-.259 1.559-.649 3.248-1.104 4.58h4.775V4.77zm9.069-3.702h4.579l2.014 8.25c.292 1.234.552 2.533.715 3.507h.097c.195-1.04.325-2.37.52-3.605l1.461-8.152h4.32l-3.248 11.66c-.747 2.76-1.591 5.749-2.696 7.633-1.039 1.721-2.631 2.858-4.449 2.858-.747 0-1.3-.065-1.722-.195l.163-3.475c.194.032.519.097 1.039.097 1.104 0 2.014-1.137 2.338-2.209.163-.454.13-.812-.032-1.299zm18.758 21.891V4.999h-3.865v-3.93h12.018v3.93h-3.898V22.96zm10.38-21.891h3.768v4.839c0 4.028-.26 7.795-.422 10.069h.065c.617-1.884 1.721-4.742 2.371-6.431l3.215-8.477h3.865V22.96h-3.735v-4.937c0-4.385.163-7.633.26-9.841h-.065c-.487 1.98-1.462 4.612-2.176 6.43l-3.216 8.348h-3.93zm19.478 21.891h-4.514c.292-.65.584-1.494.844-2.338.585-2.21.585-5.262 2.209-6.984a3.5 3.5 0 0 1 1.559-.942v-.065c-2.306-.714-3.768-2.5-3.768-5.261 0-2.242.845-3.8 2.014-4.775 1.397-1.137 3.345-1.624 5.554-1.624 1.624 0 3.313.13 4.645.422V22.96h-4.255v-8.737h-.455c-.747 0-1.332.292-1.754.812-.942 1.202-1.104 4.385-1.462 6.009-.162.65-.324 1.299-.617 1.916m4.288-12.05V4.38c-.228-.032-.487-.097-.845-.097-1.981 0-2.826 1.592-2.826 3.248 0 2.079 1.235 3.41 3.086 3.41.26 0 .357 0 .585-.032M.444 33.069h3.768v4.839c0 4.027-.26 7.795-.423 10.069h.065c.617-1.884 1.722-4.742 2.371-6.431l3.216-8.477h3.865V54.96H9.571v-4.937c0-4.385.162-7.633.26-9.841h-.065c-.488 1.98-1.462 4.612-2.176 6.43L4.374 54.96H.444zm23.934 0h11.27v18.253l1.722.065-.195 8.348h-3.216l-.162-4.775H24.28l-.162 4.775H20.87l-.163-8.348 1.56-.065c.681-1.656 1.136-3.313 1.494-5.1.422-2.5.617-5.066.617-7.632zm3.897 3.702v2.534c0 2.5-.162 5.034-.52 7.373-.26 1.559-.65 3.248-1.104 4.58h4.775V36.77zm11.468-3.703h3.768v4.84c0 4.027-.26 7.795-.422 10.069h.065c.617-1.884 1.721-4.742 2.37-6.431l3.216-8.477h3.865V54.96H48.87v-4.937c0-4.385.163-7.633.26-9.841h-.065c-.487 1.98-1.461 4.612-2.176 6.43l-3.216 8.348h-3.93zm24.058 16.89h-3.93l-.974 5.002h-4.125l4.742-21.891h5.1l4.254 21.891h-4.125zm-3.508-3.313h3.118l-.714-4.58c-.228-1.331-.52-3.507-.715-4.969h-.097c-.227 1.462-.552 3.735-.78 5.002zm10.979 8.315V33.393c1.202-.26 2.826-.422 4.45-.422 2.533 0 4.514.357 5.944 1.689 1.299 1.137 1.883 2.956 1.883 4.807 0 2.371-.714 4.028-1.851 5.262-1.364 1.429-3.573 2.078-5.327 2.078h-.844v8.153zm4.255-18.384v6.756c.195.065.422.065.682.065 2.144 0 3.118-1.526 3.118-3.573 0-1.916-.78-3.41-2.76-3.41-.39 0-.78.065-1.04.162m19.846 5.23v3.54h-5.002v5.911h5.652v3.703h-9.907V33.069h9.517v3.702H90.37v5.035zm3.526-8.737h3.768v4.839c0 4.027-.26 7.795-.423 10.069h.065c.617-1.884 1.722-4.742 2.371-6.431l3.216-8.477h3.865V54.96h-3.735v-4.937c0-4.385.162-7.633.26-9.841h-.065c-.488 1.98-1.462 4.612-2.176 6.43l-3.216 8.348h-3.93z"/></svg>