<svg xmlns="http://www.w3.org/2000/svg" fill="none" viewBox="0 0 163 56"><path fill="#fff" d="M1.682.454h11.484V20H9.367V3.76H5.481V20H1.682zM16.522 20V.744c1.073-.232 2.523-.377 3.973-.377 2.262 0 4.03.319 5.307 1.508 1.16 1.015 1.682 2.639 1.682 4.292 0 2.117-.638 3.596-1.653 4.698-1.218 1.276-3.19 1.856-4.756 1.856h-.754V20zM20.32 3.586v6.032c.174.058.377.058.609.058 1.914 0 2.784-1.363 2.784-3.19 0-1.711-.696-3.045-2.465-3.045-.348 0-.696.058-.928.145M29.776.454h3.364v4.321c0 3.596-.232 6.96-.377 8.99h.058c.55-1.682 1.537-4.234 2.117-5.742l2.87-7.569h3.452V20h-3.335v-4.408c0-3.915.145-6.815.232-8.787h-.058c-.435 1.769-1.305 4.118-1.943 5.742L33.285 20h-3.51zm19.484 0h11.484V20h-3.799V3.76H53.06V20H49.26zM64.1 20V.744c1.073-.232 2.523-.377 3.973-.377 2.262 0 4.031.319 5.307 1.508 1.16 1.015 1.682 2.639 1.682 4.292 0 2.117-.638 3.596-1.653 4.698-1.218 1.276-3.19 1.856-4.756 1.856h-.754V20zm3.799-16.414v6.032c.174.058.377.058.609.058 1.914 0 2.784-1.363 2.784-3.19 0-1.711-.696-3.045-2.465-3.045-.348 0-.696.058-.928.145M77.354.454h3.364v4.321c0 3.596-.232 6.96-.377 8.99h.058c.55-1.682 1.537-4.234 2.117-5.742l2.87-7.569h3.452V20h-3.335v-4.408c0-3.915.145-6.815.232-8.787h-.058c-.435 1.769-1.305 4.118-1.943 5.742L80.863 20h-3.51zm23.133 7.801v3.161h-4.466v5.278h5.046V20h-8.845V.454h8.497V3.76h-4.698v4.495zM115.931 20l-.348-6.844c-.087-1.856-.232-4.379-.174-6.467h-.087a85 85 0 0 1-1.247 6.003l-1.682 6.989h-2.697l-1.624-6.873c-.377-1.566-.899-4.002-1.189-6.119h-.087a217 217 0 0 1-.29 6.525L106.187 20h-3.277L104.331.454h4.002l1.566 7.076c.551 2.465 1.044 4.64 1.392 6.844h.058c.29-2.175.725-4.379 1.247-6.844l1.537-7.076h4.002L119.324 20zm14.434-11.745v3.161h-4.466v5.278h5.046V20H122.1V.454h8.497V3.76h-4.698v4.495zM8.294 50.534H4.785L3.915 55H.232l4.234-19.546h4.553L12.818 55H9.135zm-3.132-2.958h2.784l-.638-4.089c-.203-1.189-.464-3.132-.638-4.437h-.087c-.203 1.305-.493 3.335-.696 4.466zm9.802-12.122h3.8v7.83h3.972v-7.83h3.8V55h-3.8v-8.178h-3.973V55h-3.799zM32.006 55V38.963h-3.451v-3.509h10.73v3.509h-3.48V55zm9.268-19.546h3.364v4.321c0 3.596-.232 6.96-.377 8.99h.058c.55-1.682 1.537-4.234 2.117-5.742l2.87-7.569h3.452V55h-3.335v-4.408c0-3.915.145-6.815.232-8.787h-.058c-.435 1.769-1.305 4.118-1.943 5.742L44.783 55h-3.51zm14.868 0h9.976v3.248h-6.206v4.089a7 7 0 0 1 1.537-.145c1.682 0 3.161.522 4.234 1.45 1.16 1.015 1.856 2.552 1.856 4.524 0 1.885-.58 3.393-1.624 4.437-1.334 1.421-3.422 2.088-6.235 2.088-1.45 0-2.668-.087-3.538-.203zm3.799 10.324v6.264c.261.058.522.058.841.058.899 0 1.624-.348 2.088-.928.493-.58.725-1.392.725-2.262 0-.899-.261-1.711-.754-2.262-.493-.58-1.189-.957-2.03-.957q-.479 0-.87.087m9.88-10.324h3.364v4.321c0 3.596-.232 6.96-.377 8.99h.058c.55-1.682 1.537-4.234 2.117-5.742l2.87-7.569h3.452V55H77.97v-4.408c0-3.915.145-6.815.232-8.787h-.058c-.435 1.769-1.305 4.118-1.943 5.742L73.33 55h-3.51zm20.349-.232c4.727 0 6.06 5.191 6.06 9.657 0 7.366-2.61 10.353-6.321 10.353-4.437 0-6.177-4.698-6.177-10.063 0-5.336 2.117-9.947 6.438-9.947m-.145 3.306c-1.508 0-2.35 2.494-2.35 6.699 0 4.437.842 6.699 2.379 6.699 1.595 0 2.204-2.9 2.204-6.873 0-3.422-.522-6.525-2.233-6.525M100.37 55V38.963h-3.45v-3.509h10.729v3.509h-3.48V55zm9.268-19.546h3.364v4.321c0 3.596-.232 6.96-.377 8.99h.058c.551-1.682 1.537-4.234 2.117-5.742l2.871-7.569h3.451V55h-3.335v-4.408c0-3.915.145-6.815.232-8.787h-.058c-.435 1.769-1.305 4.118-1.943 5.742L113.148 55h-3.509zm14.868 0h3.712v8.497h.29l3.19-8.497h4.176l-4.495 9.048c2.001.754 2.668 2.581 3.219 4.959.435 1.885.754 3.741 1.334 5.539h-3.799c-.464-1.392-.754-2.987-1.073-4.524-.464-2.291-.986-3.77-2.552-3.77h-.29V55h-3.712zm18.367-.232c4.727 0 6.061 5.191 6.061 9.657 0 7.366-2.61 10.353-6.322 10.353-4.437 0-6.177-4.698-6.177-10.063 0-5.336 2.117-9.947 6.438-9.947m-.145 3.306c-1.508 0-2.349 2.494-2.349 6.699 0 4.437.841 6.699 2.378 6.699 1.595 0 2.204-2.9 2.204-6.873 0-3.422-.522-6.525-2.233-6.525m8.626 16.414V35.744c1.16-.261 2.668-.377 4.321-.377 1.827 0 3.596.232 4.959 1.392 1.044.87 1.479 2.175 1.479 3.538 0 1.74-.899 3.422-2.842 4.263v.116c2.262.638 3.48 2.523 3.48 4.669 0 1.624-.522 2.871-1.45 3.828-1.16 1.276-3.132 1.972-6.409 1.972-1.45 0-2.668-.087-3.538-.203m3.799-16.617v5.162h.812c1.363 0 2.407-1.16 2.407-2.755 0-1.421-.667-2.523-2.233-2.523-.406 0-.754.029-.986.116m0 7.975v5.858c.232.058.493.058.841.058 1.537 0 2.813-.928 2.813-2.929 0-1.943-1.334-2.958-2.842-2.987z"/></svg>