<svg xmlns="http://www.w3.org/2000/svg" fill="none" viewBox="0 0 750 300"><path fill="#fff" d="M675.027 175.524v-16.996q0-.504.504-.588c1.12-.196 2.38-.308 3.836-.308 4.312 0 6.468 1.68 6.468 4.984v.588c0 1.232-.308 2.24-.896 3.052-.616.812-1.456 1.372-2.576 1.652l4.592 7.672c.168.28.084.42-.224.42h-1.456a.52.52 0 0 1-.476-.252l-4.34-7.504c-.224.028-.588.028-1.036.028-1.176 0-2.016 0-2.464-.028v7.28c0 .336-.168.476-.448.476h-1.008c-.336 0-.476-.14-.476-.476m1.932-15.708v6.832c.952.056 1.876.056 2.772.056 1.4 0 2.436-.28 3.08-.84s.98-1.512.98-2.828v-.364c0-1.26-.364-2.156-1.036-2.688-.672-.504-1.792-.784-3.36-.784-.896 0-1.568.056-2.016.112-.196.028-.308.084-.364.14s-.056.196-.056.364m12.615 15.708v-16.996q0-.504.504-.588c1.12-.196 2.38-.308 3.836-.308 4.312 0 6.468 1.68 6.468 4.984v.588c0 1.232-.308 2.24-.896 3.052-.616.812-1.456 1.372-2.576 1.652l4.592 7.672c.168.28.084.42-.224.42h-1.456a.52.52 0 0 1-.476-.252l-4.34-7.504c-.224.028-.588.028-1.036.028-1.176 0-2.016 0-2.464-.028v7.28c0 .336-.168.476-.448.476h-1.008c-.336 0-.476-.14-.476-.476m1.932-15.708v6.832c.952.056 1.876.056 2.772.056 1.4 0 2.436-.28 3.08-.84s.98-1.512.98-2.828v-.364c0-1.26-.364-2.156-1.036-2.688-.672-.504-1.792-.784-3.36-.784-.896 0-1.568.056-2.016.112-.196.028-.308.084-.364.14s-.056.196-.056.364m16.703 16.436c-1.736 0-3.276-.252-4.648-.812-.252-.084-.336-.252-.28-.476l.224-.924c.056-.28.252-.336.588-.224a9.7 9.7 0 0 0 4.06.868c1.288 0 2.268-.28 2.94-.868s1.008-1.428 1.008-2.548v-.308c0-1.008-.224-1.736-.616-2.184s-1.176-.84-2.352-1.12l-1.876-.448c-1.372-.336-2.38-.84-3.024-1.568-.644-.7-.952-1.68-.952-2.968v-.42c0-1.484.476-2.632 1.428-3.416s2.268-1.204 3.948-1.204c1.512 0 2.828.196 4.004.532.308.112.42.308.364.616l-.196.672q-.126.42-.672.252a12.2 12.2 0 0 0-3.444-.504c-2.324 0-3.472 1.036-3.472 3.08v.28c0 .952.224 1.624.672 2.044s1.204.756 2.268.98l1.764.42c1.512.364 2.576.896 3.192 1.568q.924 1.05.924 3.108v.448c0 1.708-.504 2.996-1.512 3.836-1.008.868-2.436 1.288-4.34 1.288m10.495-9.688v.756c0 3.08.42 5.096 1.26 6.076.728.868 1.848 1.288 3.332 1.288 1.624 0 2.772-.476 3.5-1.456.728-1.008 1.092-2.968 1.092-5.908v-.756c0-1.456-.084-2.66-.224-3.612s-.42-1.708-.868-2.324c-.728-.952-1.876-1.428-3.5-1.428q-2.394 0-3.444 1.428c-.784 1.008-1.148 2.996-1.148 5.936m11.228-.336v1.456c0 3.248-.588 5.488-1.708 6.776-1.064 1.204-2.688 1.792-4.928 1.792-2.1 0-3.668-.532-4.732-1.596-1.288-1.288-1.904-3.612-1.904-6.972v-1.456c0-3.248.588-5.544 1.764-6.86 1.036-1.148 2.66-1.736 4.872-1.736 2.184 0 3.808.588 4.872 1.736 1.176 1.316 1.764 3.612 1.764 6.86"/><path fill="#fff" d="M561.977 124.344h.512c2.048 0 3.776-.384 5.248-1.152v-.896c0-3.52-.384-5.888-1.088-7.104s-1.984-1.856-3.904-1.856h-.576q-4.8 0-4.8 5.184v.576c0 1.92.32 3.264 1.088 4.032.768.832 1.92 1.216 3.52 1.216m-11.584 21.376c-.768-.256-1.088-.704-1.088-1.472q0-.384.192-1.152l1.024-4.096c.256-1.024 1.024-1.408 2.176-1.088 3.072.96 5.76 1.408 8.063 1.408h.193c2.304 0 3.904-.576 4.928-1.856q1.536-1.824 1.728-5.76c-2.112.896-4.416 1.28-6.912 1.28h-.704c-4.544 0-7.808-1.088-9.856-3.392-2.048-2.24-3.008-5.696-3.008-10.304v-.896c0-4.096 1.216-7.36 3.712-9.792 2.496-2.368 6.144-3.584 10.944-3.584h.896c5.76 0 9.856 1.536 12.16 4.48s3.52 7.808 3.52 14.592v1.536c0 3.648-.32 6.784-.96 9.472s-1.472 4.864-2.496 6.4a11.6 11.6 0 0 1-3.904 3.776c-1.536.96-3.072 1.6-4.608 1.856-1.536.32-3.328.448-5.312.448h-.064c-3.712 0-7.297-.576-10.624-1.856m38.341-9.28h.896c1.92 0 3.264.512 4.096 1.408.832.96 1.28 2.368 1.28 4.288v.832c0 1.984-.64 4.416-1.792 7.36a28 28 0 0 1-5.056 8.064c-.384.512-.832.704-1.28.704-.256 0-.64-.064-1.024-.32l-3.2-1.92c-.768-.384-.832-1.024-.192-1.856.576-.768 1.408-1.984 2.56-3.712.768-1.152 1.152-1.984 1.152-2.624 0-.32-.192-.576-.513-.832l-.639-.448c-1.088-.768-1.6-2.112-1.6-4.032v-1.792c0-3.392 1.728-5.12 5.312-5.12m26.243-12.096h.512c2.048 0 3.776-.384 5.248-1.152v-.896c0-3.52-.384-5.888-1.088-7.104s-1.984-1.856-3.904-1.856h-.576q-4.8 0-4.8 5.184v.576c0 1.92.32 3.264 1.088 4.032.768.832 1.92 1.216 3.52 1.216m-11.584 21.376c-.768-.256-1.088-.704-1.088-1.472q0-.384.192-1.152l1.024-4.096c.256-1.024 1.024-1.408 2.176-1.088 3.072.96 5.76 1.408 8.063 1.408h.193c2.304 0 3.904-.576 4.928-1.856q1.536-1.824 1.728-5.76c-2.112.896-4.416 1.28-6.912 1.28h-.704c-4.544 0-7.808-1.088-9.856-3.392-2.048-2.24-3.008-5.696-3.008-10.304v-.896c0-4.096 1.216-7.36 3.712-9.792 2.496-2.368 6.144-3.584 10.944-3.584h.896c5.76 0 9.856 1.536 12.16 4.48s3.52 7.808 3.52 14.592v1.536c0 3.648-.32 6.784-.96 9.472s-1.472 4.864-2.496 6.4a11.6 11.6 0 0 1-3.904 3.776c-1.536.96-3.072 1.6-4.608 1.856-1.536.32-3.328.448-5.312.448h-.064c-3.712 0-7.297-.576-10.624-1.856m48.709-21.376h.512c2.048 0 3.776-.384 5.248-1.152v-.896c0-3.52-.384-5.888-1.088-7.104s-1.984-1.856-3.904-1.856h-.576q-4.8 0-4.8 5.184v.576c0 1.92.32 3.264 1.088 4.032.768.832 1.92 1.216 3.52 1.216m-11.584 21.376c-.768-.256-1.088-.704-1.088-1.472q0-.384.192-1.152l1.024-4.096c.256-1.024 1.024-1.408 2.176-1.088 3.072.96 5.76 1.408 8.063 1.408h.193c2.304 0 3.904-.576 4.928-1.856q1.536-1.824 1.728-5.76c-2.112.896-4.416 1.28-6.912 1.28h-.704c-4.544 0-7.808-1.088-9.856-3.392-2.048-2.24-3.008-5.696-3.008-10.304v-.896c0-4.096 1.216-7.36 3.712-9.792 2.496-2.368 6.144-3.584 10.944-3.584h.896c5.76 0 9.856 1.536 12.16 4.48s3.52 7.808 3.52 14.592v1.536c0 3.648-.32 6.784-.96 9.472s-1.472 4.864-2.496 6.4a11.6 11.6 0 0 1-3.904 3.776c-1.536.96-3.072 1.6-4.608 1.856-1.536.32-3.328.448-5.312.448h-.064c-3.712 0-7.297-.576-10.624-1.856m54.917-29.248v.64c0 4.224-1.088 7.232-3.136 9.152-1.921 1.536-4.416 2.304-7.36 2.304-3.328 0-5.824-.832-7.552-2.496-1.92-1.792-2.88-4.608-2.88-8.32v-1.92c0-3.712.96-6.464 2.88-8.32 1.728-1.664 4.224-2.496 7.552-2.496 2.944 0 5.439.768 7.36 2.304 2.048 1.92 3.136 4.992 3.136 9.152m-10.88 28.8 23.616-38.912c.32-.512.704-.896 1.088-1.088.384-.128.96-.256 1.792-.256h4.672c1.984 0 2.56.768 1.664 2.304l-23.616 38.912c-.384.576-.704.96-1.088 1.088-.384.192-1.024.256-1.792.256h-4.672c-2.048 0-2.56-.768-1.664-2.304m-1.408-30.208v3.456c0 1.344.128 2.24.448 2.688.256.448.704.64 1.28.64h.128c.512 0 .96-.192 1.28-.64.256-.448.448-1.344.448-2.688v-3.456c0-1.28-.192-2.176-.448-2.624-.32-.448-.768-.704-1.28-.704h-.128c-.576 0-1.024.256-1.28.704-.32.448-.448 1.344-.448 2.624m44.928 20.416v.64c0 4.224-1.088 7.232-3.136 9.152-1.92 1.536-4.416 2.304-7.36 2.304-3.328 0-5.824-.832-7.552-2.496-1.92-1.792-2.88-4.544-2.88-8.32v-1.92c0-3.712.96-6.528 2.88-8.32 1.728-1.664 4.224-2.496 7.552-2.496 2.944 0 5.44.768 7.36 2.304 2.048 1.92 3.136 4.992 3.136 9.152m-12.288-1.408v3.456c0 1.344.128 2.24.448 2.688.256.448.704.64 1.28.64h.128c.512 0 .96-.192 1.28-.64.256-.448.448-1.344.448-2.688v-3.456c0-1.28-.192-2.176-.448-2.624-.32-.448-.768-.704-1.28-.704h-.128c-.576 0-1.024.256-1.28.704-.32.448-.448 1.344-.448 2.624"/><path fill="#fff" d="M47.282 93.414h-.552c-3.22 0-6.026-.414-8.418-1.288-1.012-.322-1.472-.92-1.288-1.84l.598-3.726c.092-.92.644-1.242 1.61-.92 2.668.966 5.152 1.426 7.36 1.426h.23c1.38 0 2.392-.184 2.99-.598.552-.368.874-1.058.874-2.024v-.46c0-.92-.276-1.518-.736-1.886-.506-.322-1.472-.644-2.898-.92l-3.128-.598c-2.576-.46-4.416-1.38-5.428-2.668-1.058-1.288-1.564-3.082-1.564-5.428v-1.288c0-2.576.69-4.508 2.07-5.888 1.656-1.656 4.738-2.484 9.154-2.484h.322c3.082 0 5.704.414 7.82 1.196.46.184.782.46.92.736.092.322.092.782-.046 1.334l-.782 3.358c-.184.828-.782 1.104-1.702.782q-3.174-.966-6.072-.966h-.184c-1.518 0-2.576.184-3.128.506-.598.368-.874.966-.874 1.794v.414c0 .736.184 1.288.598 1.564.368.322 1.196.598 2.392.828l3.496.69c2.76.552 4.646 1.426 5.704 2.53 1.012 1.104 1.564 3.036 1.564 5.75v1.104c0 3.128-.874 5.382-2.576 6.808-1.702 1.472-4.462 2.162-8.326 2.162m27.094-8.648V71.794c0-.46.092-.782.322-1.012.23-.184.644-.322 1.242-.322h4.232c.552 0 .966.138 1.196.322.23.23.368.552.368 1.012V85.41q0 4.209-2.07 6.072c-1.472 1.288-4.048 1.932-7.82 1.932s-6.394-.644-7.82-1.932q-2.07-1.863-2.07-6.072V71.794c0-.46.092-.782.322-1.012.23-.184.644-.322 1.242-.322h4.232c.552 0 .966.138 1.196.322.23.23.368.552.368 1.012v12.972c0 1.058.138 1.748.506 2.116.368.414 1.012.598 2.024.598.966 0 1.656-.184 2.024-.598.322-.368.506-1.058.506-2.116m17.368-12.328c1.61-1.564 3.91-2.392 6.854-2.392h.414c2.852 0 4.876.828 6.118 2.392 1.104 1.472 1.656 3.956 1.656 7.544v3.45c0 1.932-.184 3.542-.46 4.738-.322 1.196-.874 2.208-1.656 2.99-1.564 1.518-3.68 2.254-6.44 2.254h-.506q-2.622 0-4.278-.966v7.084c0 .69-.138 1.15-.368 1.334-.276.184-.782.276-1.564.276h-3.496c-.782 0-1.288-.092-1.564-.322-.276-.184-.368-.644-.368-1.288v-27.6c0-.552.092-.92.368-1.15.23-.184.644-.322 1.242-.322h1.932c.552 0 .966.092 1.196.184.184.138.368.414.506.782l.322 1.012zm1.702 6.532v5.888c0 1.058.184 1.794.644 2.208.414.414 1.104.598 2.07.598h.414c1.058 0 1.794-.276 2.254-.92q.552-.828.552-4.002v-1.978c0-2.208-.184-3.588-.552-4.094-.46-.552-1.196-.828-2.3-.828h-.322c-1.012 0-1.702.23-2.162.69-.414.414-.598 1.242-.598 2.438m28.25 8.51h.506c1.564 0 3.22-.184 4.876-.598.46-.092.736-.138.874-.138.46 0 .736.276.828.782l.368 2.3c.092.644.184 1.058.184 1.242 0 .552-.414.966-1.196 1.242-2.116.736-4.462 1.104-6.946 1.104h-.874q-5.658 0-8.004-2.346c-.92-.874-1.518-1.932-1.84-3.128s-.46-2.806-.46-4.784V80.58c0-4.002.92-6.808 2.76-8.464 1.564-1.38 3.956-2.07 7.222-2.07h.644c3.22 0 5.566.782 6.946 2.3 1.472 1.656 2.208 4.37 2.208 8.234v2.392c0 .874-.46 1.288-1.334 1.288h-11.04v.368c0 1.104.276 1.84.92 2.254.598.414 1.702.598 3.358.598m-4.278-8.004h5.06c.368 0 .552-.184.552-.598v-.736c0-.92-.184-1.61-.46-2.116-.368-.552-1.104-.828-2.116-.828h-.414c-.92 0-1.564.23-1.932.644q-.69.828-.69 2.484zm22.081-6.532h.138c1.012-1.656 2.714-2.484 5.152-2.484h1.84c.46 0 .828.092 1.012.276s.322.506.322 1.012v3.358c0 .506-.092.828-.276 1.012q-.276.276-.966.276h-1.38c-1.702 0-2.852.322-3.496.966-.552.552-.782 1.61-.782 3.174v11.132c0 .46-.138.828-.368 1.012-.23.23-.644.322-1.196.322h-4.232c-.598 0-1.012-.092-1.242-.322-.23-.184-.322-.552-.322-1.012V71.748c0-.46.092-.782.322-.966s.644-.322 1.242-.322h2.208c.506 0 .874.092 1.104.23q.345.276.552.828zm10.587 4.922v-.598c0-2.254.598-3.956 1.794-5.152 1.38-1.38 3.726-2.07 6.992-2.07h.46c2.576 0 4.83.276 6.716.828q.552.207.69.414c.092.184.138.414.092.782l-.506 3.772c-.092.598-.506.782-1.242.598-1.84-.414-3.496-.644-4.876-.644h-.046c-1.012 0-1.748.092-2.116.276-.414.184-.598.506-.598.966v.138c0 .46.138.782.506.966s1.058.414 2.116.598l2.162.46c1.978.46 3.404 1.15 4.232 2.07s1.242 2.346 1.242 4.232v.69c0 4.83-3.036 7.222-9.016 7.222h-.46c-3.036 0-5.566-.414-7.682-1.242-.414-.138-.69-.322-.782-.552-.092-.184-.092-.552 0-1.058l.644-3.036c.138-.874.644-1.15 1.564-.874 2.116.736 3.956 1.058 5.52 1.058h.138c1.012 0 1.702-.092 2.116-.322.368-.184.598-.552.598-1.058v-.138a.99.99 0 0 0-.506-.874q-.552-.276-2.208-.69l-2.024-.46q-3.036-.69-4.278-2.07c-.828-.92-1.242-2.3-1.242-4.232m28.94-1.564h-7.314c-.46 0-.782-.046-.966-.23s-.23-.552-.23-1.104v-3.174c0-.552.046-.874.23-1.058q.276-.276.966-.276h15.548c.46 0 .782.092 1.012.276.184.184.322.552.322 1.058v.874c0 1.196-.368 2.3-1.012 3.266l-7.912 11.224h7.866c.46 0 .736.092.92.276s.276.506.276 1.058v3.174q0 .828-.276 1.104c-.184.184-.46.23-.92.23h-15.824c-.966 0-1.426-.414-1.426-1.334v-1.058c0-1.196.322-2.254 1.012-3.266zm32.31-4.462c-.644 4.324-1.84 9.108-3.588 14.398-1.794 5.29-3.956 10.304-6.486 14.996-.322.644-.736.966-1.288.966-.368 0-.782-.092-1.334-.368l-2.346-1.012c-.828-.368-1.196-.736-1.196-1.15 0-.184.046-.46.23-.782 1.564-3.174 2.484-5.014 2.668-5.52-1.288-.46-2.254-1.472-2.99-3.128-.828-1.84-1.794-4.646-2.852-8.51q-1.587-5.796-2.346-9.936c-.092-.46-.046-.782.184-1.012.23-.184.644-.322 1.196-.322h4.186c.506 0 .874.092 1.104.23s.414.414.506.874c1.058 5.796 2.254 10.948 3.588 15.41h.23c1.288-3.68 2.484-8.74 3.588-15.272q.069-.69.414-.966c.23-.184.598-.276 1.058-.276h4.232c.506 0 .874.138 1.058.322s.23.552.184 1.058m10.048 7.13v5.888c0 1.058.184 1.794.644 2.208.368.414 1.058.598 2.07.598h.414c1.058 0 1.794-.276 2.254-.92q.552-.828.552-4.002v-1.978c0-2.3-.23-3.726-.598-4.186-.414-.46-1.196-.736-2.3-.736h-.184c-1.058 0-1.794.23-2.254.69-.414.414-.598 1.242-.598 2.438m0-7.682h.092q2.001-1.242 5.244-1.242h.414c2.76 0 4.784.828 6.026 2.484 1.012 1.426 1.564 3.956 1.564 7.59v3.312c0 3.68-.782 6.256-2.346 7.682-1.656 1.564-4.278 2.3-7.866 2.3h-.92c-3.772 0-6.348-.736-7.728-2.254-1.242-1.334-1.84-3.496-1.84-6.532V63.192c0-.46.092-.782.322-1.012.184-.184.598-.322 1.196-.322h4.278c.552 0 .966.138 1.196.322.23.23.368.552.368 1.012zm24.662 12.788v7.59c0 .46-.138.828-.368 1.012-.23.23-.644.322-1.196.322h-4.232c-.598 0-1.012-.092-1.242-.322-.23-.184-.322-.552-.322-1.012V63.192c0-.46.092-.782.322-1.012.23-.184.644-.322 1.242-.322h4.232c.552 0 .966.138 1.196.322.23.23.368.552.368 1.012v14.996h.322l4.37-6.67c.414-.69 1.058-1.058 1.932-1.058h5.336c.506 0 .782.184.782.552 0 .184-.138.506-.368.874l-5.29 7.912c-.414.644-.598 1.104-.598 1.38 0 .322.184.782.598 1.38l5.658 8.924c.184.368.276.598.276.782 0 .506-.322.736-.966.736h-5.106c-.644 0-1.15-.046-1.426-.23q-.414-.207-.828-.966l-4.37-7.728zm22.822-12.282v19.872c0 .46-.138.828-.368 1.012-.23.23-.644.322-1.196.322h-4.232c-.598 0-1.012-.092-1.242-.322-.23-.184-.322-.552-.322-1.012V71.794c0-.46.092-.782.322-1.012.23-.184.644-.322 1.242-.322h4.232c.552 0 .966.138 1.196.322.23.23.368.552.368 1.012m-3.404-3.082h-.552c-2.484 0-3.726-1.242-3.726-3.818v-.23c0-2.53 1.242-3.818 3.726-3.818h.552c2.484 0 3.726 1.288 3.726 3.818v.23c0 2.576-1.242 3.818-3.726 3.818M44.706 135.076v7.59c0 .46-.138.828-.368 1.012-.23.23-.644.322-1.196.322H38.91c-.598 0-1.012-.092-1.242-.322-.23-.184-.322-.552-.322-1.012v-28.474c0-.46.092-.782.322-1.012.23-.184.644-.322 1.242-.322h4.232c.552 0 .966.138 1.196.322.23.23.368.552.368 1.012v14.996h.322l4.37-6.67c.414-.69 1.058-1.058 1.932-1.058h5.336c.506 0 .782.184.782.552 0 .184-.138.506-.368.874l-5.29 7.912c-.414.644-.598 1.104-.598 1.38 0 .322.184.782.598 1.38l5.658 8.924c.184.368.276.598.276.782 0 .506-.322.736-.966.736h-5.106c-.644 0-1.15-.046-1.426-.23q-.414-.207-.828-.966l-4.37-7.728zm21.167-11.132h.137c1.012-1.656 2.715-2.484 5.152-2.484h1.84c.46 0 .829.092 1.013.276s.322.506.322 1.012v3.358c0 .506-.093.828-.276 1.012q-.277.276-.967.276h-1.38c-1.701 0-2.852.322-3.495.966-.552.552-.782 1.61-.782 3.174v11.132c0 .46-.138.828-.368 1.012-.23.23-.645.322-1.197.322h-4.231c-.599 0-1.012-.092-1.242-.322-.23-.184-.322-.552-.322-1.012v-19.918c0-.46.092-.782.322-.966s.643-.322 1.242-.322h2.208c.506 0 .874.092 1.104.23q.344.276.551.828zm21.952 14.536h.506c1.564 0 3.22-.184 4.876-.598.46-.092.736-.138.874-.138.46 0 .736.276.828.782l.368 2.3c.092.644.184 1.058.184 1.242 0 .552-.414.966-1.196 1.242-2.116.736-4.462 1.104-6.946 1.104h-.874q-5.658 0-8.004-2.346c-.92-.874-1.518-1.932-1.84-3.128s-.46-2.806-.46-4.784v-2.576c0-4.002.92-6.808 2.76-8.464 1.564-1.38 3.956-2.07 7.222-2.07h.644c3.22 0 5.566.782 6.946 2.3 1.472 1.656 2.208 4.37 2.208 8.234v2.392c0 .874-.46 1.288-1.334 1.288h-11.04v.368c0 1.104.276 1.84.92 2.254.598.414 1.702.598 3.358.598m-4.278-8.004h5.06c.368 0 .552-.184.552-.598v-.736c0-.92-.184-1.61-.46-2.116-.368-.552-1.104-.828-2.116-.828h-.414c-.92 0-1.564.23-1.932.644q-.69.828-.69 2.484zm28.889 5.382v-5.842c0-1.15-.184-1.978-.552-2.438-.414-.46-1.15-.736-2.162-.736h-.46c-1.012 0-1.702.276-2.116.782-.46.506-.644 1.932-.644 4.324v2.024c0 2.208.23 3.588.69 4.048.368.46 1.058.644 2.116.644h.506c.874 0 1.518-.184 1.978-.598.414-.414.644-1.15.644-2.208m-.092-13.984h.092v-7.682c0-.46.092-.782.322-1.012.23-.184.644-.322 1.242-.322h4.278c.552 0 .966.138 1.196.322.184.23.322.552.322 1.012v20.93c0 3.22-.598 5.428-1.794 6.716-.874.92-1.932 1.61-3.174 1.978-1.288.414-2.99.598-5.152.598h-.782c-3.404 0-5.842-.69-7.406-2.07-1.61-1.38-2.392-3.956-2.392-7.774v-3.68c0-3.68.736-6.256 2.3-7.728 1.472-1.38 3.496-2.116 6.118-2.116h.552q2.622 0 4.278.828m31.34.966c-.644 4.324-1.84 9.108-3.588 14.398-1.794 5.29-3.956 10.304-6.486 14.996-.322.644-.736.966-1.288.966-.368 0-.782-.092-1.334-.368l-2.346-1.012c-.828-.368-1.196-.736-1.196-1.15 0-.184.046-.46.23-.782 1.564-3.174 2.484-5.014 2.668-5.52-1.288-.46-2.254-1.472-2.99-3.128-.828-1.84-1.794-4.646-2.852-8.51q-1.587-5.796-2.346-9.936c-.092-.46-.046-.782.184-1.012.23-.184.644-.322 1.196-.322h4.186c.506 0 .874.092 1.104.23s.414.414.506.874c1.058 5.796 2.254 10.948 3.588 15.41h.23c1.288-3.68 2.484-8.74 3.588-15.272q.069-.69.414-.966c.23-.184.598-.276 1.058-.276h4.232c.506 0 .874.138 1.058.322s.23.552.184 1.058m18.208 16.836v2.622c0 .69-.138 1.15-.322 1.38s-.598.322-1.15.322h-3.68c-3.312 0-5.52-.552-6.532-1.702-.92-.966-1.334-2.806-1.334-5.566v-9.522h-2.484c-.46 0-.736-.046-.92-.23s-.23-.46-.23-.92v-2.346c0-.552.046-.92.23-1.104.138-.184.46-.322.966-.46l2.438-.598v-4.508c0-.46.092-.782.322-1.012.23-.184.644-.322 1.242-.322h4.232c.552 0 .966.138 1.196.322.23.23.368.552.368 1.012v4.416h3.818c.46 0 .736.092.92.276s.276.506.276 1.058v3.082q0 .828-.276 1.104c-.184.184-.46.23-.92.23h-3.818v8.694c0 .828.092 1.334.368 1.61.276.322.874.46 1.794.46h2.024c.552 0 .966.138 1.15.368s.322.69.322 1.334m23.62 2.208h-1.242c-6.532 0-9.752-2.944-9.752-8.878v-3.082c0-3.036.782-5.244 2.392-6.716 1.564-1.426 4.002-2.162 7.222-2.162h.644c.598-3.312 3.036-5.014 7.36-5.014h2.254c.46 0 .736.092.92.23.138.184.23.506.23.966v2.53c0 .46-.092.736-.276.874-.184.184-.506.23-.92.23h-2.162c-1.012 0-1.702.23-2.116.69 3.45.92 5.198 3.726 5.198 8.372v3.082c0 3.312-.92 5.52-2.714 6.716 1.196.644 2.116 1.472 2.806 2.484s1.058 2.116 1.058 3.266v.322c0 4.554-3.634 6.808-10.81 6.808h-.874c-3.128 0-6.164-.552-9.016-1.656-.828-.276-1.15-.874-.92-1.748l.828-2.944c.23-.874.782-1.196 1.656-.92 2.714.92 5.106 1.334 7.222 1.334h.644q4.002 0 4.002-2.346v-.138c0-.874-.46-1.656-1.38-2.392-.736.092-1.518.092-2.254.092m-.782-5.75h.322c1.012 0 1.702-.184 2.162-.644.506-.506.782-1.564.782-3.128v-1.794c0-1.564-.276-2.576-.782-3.128-.46-.414-1.15-.644-2.162-.644h-.322c-1.012 0-1.748.23-2.162.644-.552.552-.782 1.564-.782 3.128v1.794c0 1.564.23 2.622.782 3.128.414.46 1.15.644 2.162.644m21.319-5.198v3.588c0 1.794.276 2.944.828 3.496.414.46 1.058.644 1.932.644h.184c.828 0 1.472-.184 1.932-.644.552-.552.828-1.702.828-3.496v-3.588c0-1.748-.276-2.944-.828-3.496-.46-.414-1.104-.644-1.932-.644h-.184c-.874 0-1.518.23-1.932.644-.552.552-.828 1.748-.828 3.496m13.11.276v2.99c0 2.3-.23 4.048-.69 5.336s-1.196 2.3-2.208 3.082c-1.518 1.196-3.864 1.794-7.084 1.794h-.552c-3.22 0-5.612-.598-7.084-1.794-1.012-.782-1.748-1.794-2.208-3.082s-.69-3.036-.69-5.336v-2.944c0-2.254.23-4.002.69-5.29a6.96 6.96 0 0 1 2.208-3.128c1.472-1.196 3.864-1.794 7.084-1.794h.552c3.22 0 5.566.598 7.084 1.794a7.1 7.1 0 0 1 2.208 3.082c.46 1.288.69 3.036.69 5.29m18.337 8.464v2.622c0 .69-.138 1.15-.322 1.38s-.598.322-1.15.322h-3.68c-3.312 0-5.52-.552-6.532-1.702-.92-.966-1.334-2.806-1.334-5.566v-9.522h-2.484c-.46 0-.736-.046-.92-.23s-.23-.46-.23-.92v-2.346c0-.552.046-.92.23-1.104.138-.184.46-.322.966-.46l2.438-.598v-4.508c0-.46.092-.782.322-1.012.23-.184.644-.322 1.242-.322h4.232c.552 0 .966.138 1.196.322.23.23.368.552.368 1.012v4.416h3.818c.46 0 .736.092.92.276s.276.506.276 1.058v3.082q0 .828-.276 1.104c-.184.184-.46.23-.92.23h-3.818v8.694c0 .828.092 1.334.368 1.61.276.322.874.46 1.794.46h2.024c.552 0 .966.138 1.15.368s.322.69.322 1.334m10.151-8.74v3.588c0 1.794.276 2.944.828 3.496.414.46 1.058.644 1.932.644h.184c.828 0 1.472-.184 1.932-.644.552-.552.828-1.702.828-3.496v-3.588c0-1.748-.276-2.944-.828-3.496-.46-.414-1.104-.644-1.932-.644h-.184c-.874 0-1.518.23-1.932.644-.552.552-.828 1.748-.828 3.496m13.11.276v2.99c0 2.3-.23 4.048-.69 5.336s-1.196 2.3-2.208 3.082c-1.518 1.196-3.864 1.794-7.084 1.794h-.552c-3.22 0-5.612-.598-7.084-1.794-1.012-.782-1.748-1.794-2.208-3.082s-.69-3.036-.69-5.336v-2.944c0-2.254.23-4.002.69-5.29a6.96 6.96 0 0 1 2.208-3.128c1.472-1.196 3.864-1.794 7.084-1.794h.552c3.22 0 5.566.598 7.084 1.794a7.1 7.1 0 0 1 2.208 3.082c.46 1.288.69 3.036.69 5.29m-14.03-15.824 7.222-6.164c.276-.276.598-.414.874-.414.322 0 .644.23.92.598l2.208 2.852c.184.276.276.506.276.782 0 .368-.276.736-.736 1.104l-7.268 4.968c-.322.23-.644.322-.92.322-.368 0-.736-.184-1.104-.644l-1.38-1.61c-.368-.414-.506-.782-.506-1.058s.138-.552.414-.736m29.745 7.176h3.956c.644 0 1.104.092 1.334.276s.414.552.506 1.104c0 .184.828 4.278 2.438 12.236h.138c.828-4.83 1.564-9.292 2.162-13.432.046-.506.184-.828.368-1.012q.276-.276.966-.276h4.692c.506 0 .828.138 1.012.322.138.23.184.598.092 1.058-.736 3.588-1.656 7.544-2.668 11.868s-1.748 7.038-2.208 8.188c-.184.46-.414.782-.644.92s-.598.184-1.058.184h-5.06c-.966 0-1.564-.322-1.748-1.058-.874-3.128-1.61-7.084-2.254-11.868h-.184c-.598 4.14-1.38 8.096-2.3 11.868-.184.736-.736 1.058-1.656 1.058h-4.968c-.92 0-1.518-.322-1.748-1.012-.46-1.242-1.242-4.094-2.346-8.51a214 214 0 0 1-2.576-11.638c-.138-.506-.092-.874.092-1.058s.552-.322 1.104-.322h4.508c.46 0 .828.092 1.058.276.184.184.322.552.414 1.012.644 4.278 1.38 8.74 2.254 13.432h.184c1.104-5.704 1.886-9.798 2.254-12.236.092-.598.23-.966.46-1.15.23-.138.69-.23 1.426-.23m27.748 12.512v7.59c0 .46-.138.828-.368 1.012-.23.23-.644.322-1.196.322h-4.232c-.598 0-1.012-.092-1.242-.322-.23-.184-.322-.552-.322-1.012v-28.474c0-.46.092-.782.322-1.012.23-.184.644-.322 1.242-.322h4.232c.552 0 .966.138 1.196.322.23.23.368.552.368 1.012v14.996h.322l4.37-6.67c.414-.69 1.058-1.058 1.932-1.058h5.336c.506 0 .782.184.782.552 0 .184-.138.506-.368.874l-5.29 7.912c-.414.644-.598 1.104-.598 1.38 0 .322.184.782.598 1.38l5.658 8.924c.184.368.276.598.276.782 0 .506-.322.736-.966.736h-5.106c-.644 0-1.15-.046-1.426-.23q-.414-.207-.828-.966l-4.37-7.728zm21.681-4.14v3.588c0 1.794.276 2.944.828 3.496.414.46 1.058.644 1.932.644h.184c.828 0 1.472-.184 1.932-.644.552-.552.828-1.702.828-3.496v-3.588c0-1.748-.276-2.944-.828-3.496-.46-.414-1.104-.644-1.932-.644h-.184c-.874 0-1.518.23-1.932.644-.552.552-.828 1.748-.828 3.496m13.11.276v2.99c0 2.3-.23 4.048-.69 5.336s-1.196 2.3-2.208 3.082c-1.518 1.196-3.864 1.794-7.084 1.794h-.552c-3.22 0-5.612-.598-7.084-1.794-1.012-.782-1.748-1.794-2.208-3.082s-.69-3.036-.69-5.336v-2.944c0-2.254.23-4.002.69-5.29a6.96 6.96 0 0 1 2.208-3.128c1.472-1.196 3.864-1.794 7.084-1.794h.552c3.22 0 5.566.598 7.084 1.794a7.1 7.1 0 0 1 2.208 3.082c.46 1.288.69 3.036.69 5.29m15.715-8.648h3.956c.644 0 1.104.092 1.334.276s.414.552.506 1.104c0 .184.828 4.278 2.438 12.236h.138c.828-4.83 1.564-9.292 2.162-13.432.046-.506.184-.828.368-1.012q.276-.276.966-.276h4.692c.506 0 .828.138 1.012.322.138.23.184.598.092 1.058-.736 3.588-1.656 7.544-2.668 11.868s-1.748 7.038-2.208 8.188c-.184.46-.414.782-.644.92s-.598.184-1.058.184h-5.06c-.966 0-1.564-.322-1.748-1.058-.874-3.128-1.61-7.084-2.254-11.868h-.184c-.598 4.14-1.38 8.096-2.3 11.868-.184.736-.736 1.058-1.656 1.058h-4.968c-.92 0-1.518-.322-1.748-1.012-.46-1.242-1.242-4.094-2.346-8.51a214 214 0 0 1-2.576-11.638c-.138-.506-.092-.874.092-1.058s.552-.322 1.104-.322h4.508c.46 0 .828.092 1.058.276.184.184.322.552.414 1.012.644 4.278 1.38 8.74 2.254 13.432h.184c1.104-5.704 1.886-9.798 2.254-12.236.092-.598.23-.966.46-1.15.23-.138.69-.23 1.426-.23m40.52.276c-.644 4.324-1.84 9.108-3.588 14.398-1.794 5.29-3.956 10.304-6.486 14.996-.322.644-.736.966-1.288.966-.368 0-.782-.092-1.334-.368l-2.346-1.012c-.828-.368-1.196-.736-1.196-1.15 0-.184.046-.46.23-.782 1.564-3.174 2.484-5.014 2.668-5.52-1.288-.46-2.254-1.472-2.99-3.128-.828-1.84-1.794-4.646-2.852-8.51q-1.587-5.796-2.346-9.936c-.092-.46-.046-.782.184-1.012.23-.184.644-.322 1.196-.322h4.186c.506 0 .874.092 1.104.23s.414.414.506.874c1.058 5.796 2.254 10.948 3.588 15.41h.23c1.288-3.68 2.484-8.74 3.588-15.272q.069-.69.414-.966c.23-.184.598-.276 1.058-.276h4.232c.506 0 .874.138 1.058.322s.23.552.184 1.058M49.95 197.858v-5.842c0-1.15-.184-1.978-.552-2.438-.414-.46-1.15-.736-2.162-.736h-.46c-1.012 0-1.702.276-2.116.782-.46.506-.644 1.932-.644 4.324v2.024c0 2.208.23 3.588.69 4.048.368.46 1.058.644 2.116.644h.506c.874 0 1.518-.184 1.978-.598.414-.414.644-1.15.644-2.208m-.092-13.984h.092v-7.682c0-.46.092-.782.322-1.012.23-.184.644-.322 1.242-.322h4.278c.552 0 .966.138 1.196.322.184.23.322.552.322 1.012v20.93c0 3.22-.598 5.428-1.794 6.716-.874.92-1.932 1.61-3.174 1.978-1.288.414-2.99.598-5.152.598h-.782c-3.404 0-5.842-.69-7.406-2.07-1.61-1.38-2.392-3.956-2.392-7.774v-3.68c0-3.68.736-6.256 2.3-7.728 1.472-1.38 3.496-2.116 6.118-2.116h.552q2.622 0 4.278.828m18.506 9.062v3.588c0 1.794.276 2.944.828 3.496.414.46 1.058.644 1.932.644h.184c.828 0 1.472-.184 1.932-.644.552-.552.828-1.702.828-3.496v-3.588c0-1.748-.276-2.944-.828-3.496-.46-.414-1.104-.644-1.932-.644h-.184c-.874 0-1.518.23-1.932.644-.552.552-.828 1.748-.828 3.496m13.11.276v2.99c0 2.3-.23 4.048-.69 5.336s-1.196 2.3-2.208 3.082c-1.518 1.196-3.864 1.794-7.084 1.794h-.552c-3.22 0-5.612-.598-7.084-1.794-1.012-.782-1.748-1.794-2.208-3.082s-.69-3.036-.69-5.336v-2.944c0-2.254.23-4.002.69-5.29a6.96 6.96 0 0 1 2.208-3.128c1.472-1.196 3.864-1.794 7.084-1.794h.552c3.22 0 5.566.598 7.084 1.794a7.1 7.1 0 0 1 2.208 3.082c.46 1.288.69 3.036.69 5.29m27.077-16.276h-.224c-2.352 0-4.928.504-7.728 1.456-.952.336-1.512.056-1.736-.84l-1.008-4.032c-.28-1.008 0-1.736.896-2.072 3.472-1.456 7.28-2.184 11.48-2.184h.168c3.696 0 6.552.84 8.568 2.464s3.024 4.088 3.024 7.336v.672c0 2.912-.616 5.152-1.792 6.832-1.232 1.68-3.136 3.192-5.712 4.424l-2.912 1.4c-2.688 1.344-4.368 2.352-5.152 3.024s-1.176 1.624-1.176 2.744v.616h14.672c.784 0 1.344.168 1.568.392s.336.728.336 1.456v3.696c0 .672-.168 1.12-.392 1.344q-.42.336-1.512.336H98.303q-1.176 0-1.512-.336c-.28-.224-.392-.672-.392-1.344v-3.584c0-3.584.616-6.44 1.96-8.456 1.288-2.016 3.528-3.696 6.72-5.152l2.408-1.064c1.96-.84 3.304-1.624 3.976-2.408.672-.728 1.064-1.736 1.064-3.024v-.448c0-2.128-1.344-3.248-3.976-3.248m47.604 8.512v4.872c0 5.264-1.12 9.296-3.304 12.04-2.24 2.8-5.936 4.144-11.088 4.144s-8.848-1.344-11.088-4.144c-2.24-2.744-3.304-6.776-3.304-12.04v-4.872c0-5.264 1.064-9.24 3.304-12.04 2.24-2.744 5.936-4.144 11.088-4.144s8.848 1.4 11.088 4.144c2.184 2.8 3.304 6.776 3.304 12.04m-9.576 3.92V186.4c0-3.64-.336-6.16-.896-7.504s-1.848-2.072-3.808-2.072h-.224c-2.016.056-3.304.728-3.864 2.072s-.84 3.864-.84 7.504v2.968c0 3.696.28 6.16.84 7.504s1.848 2.072 3.864 2.072h.224c1.96 0 3.248-.672 3.808-2.016s.896-3.864.896-7.56m42.061-3.92v4.872c0 5.264-1.12 9.296-3.304 12.04-2.24 2.8-5.936 4.144-11.088 4.144s-8.848-1.344-11.088-4.144c-2.24-2.744-3.304-6.776-3.304-12.04v-4.872c0-5.264 1.064-9.24 3.304-12.04 2.24-2.744 5.936-4.144 11.088-4.144s8.848 1.4 11.088 4.144c2.184 2.8 3.304 6.776 3.304 12.04m-9.576 3.92V186.4c0-3.64-.336-6.16-.896-7.504s-1.848-2.072-3.808-2.072h-.224c-2.016.056-3.304.728-3.864 2.072s-.84 3.864-.84 7.504v2.968c0 3.696.28 6.16.84 7.504s1.848 2.072 3.864 2.072h.224c1.96 0 3.248-.672 3.808-2.016s.896-3.864.896-7.56m43.953 11.368v3.192c0 .84-.168 1.4-.392 1.68s-.728.392-1.4.392h-4.48c-4.032 0-6.72-.672-7.952-2.072-1.12-1.176-1.624-3.416-1.624-6.776V185.56h-3.024c-.56 0-.896-.056-1.12-.28s-.28-.56-.28-1.12v-2.856c0-.672.056-1.12.28-1.344.168-.224.56-.392 1.176-.56l2.968-.728v-5.488c0-.56.112-.952.392-1.232.28-.224.784-.392 1.512-.392h5.152c.672 0 1.176.168 1.456.392.28.28.448.672.448 1.232v5.376h4.648c.56 0 .896.112 1.12.336s.336.616.336 1.288v3.752q0 1.008-.336 1.344c-.224.224-.56.28-1.12.28h-4.648v10.584c0 1.008.112 1.624.448 1.96.336.392 1.064.56 2.184.56h2.464c.672 0 1.176.168 1.4.448s.392.84.392 1.624m27.981-20.496c-.784 5.264-2.24 11.088-4.368 17.528-2.184 6.44-4.816 12.544-7.896 18.256-.392.784-.896 1.176-1.568 1.176-.448 0-.952-.112-1.624-.448l-2.856-1.232c-1.008-.448-1.456-.896-1.456-1.4 0-.224.056-.56.28-.952 1.904-3.864 3.024-6.104 3.248-6.72-1.568-.56-2.744-1.792-3.64-3.808-1.008-2.24-2.184-5.656-3.472-10.36q-1.932-7.056-2.856-12.096c-.112-.56-.056-.952.224-1.232.28-.224.784-.392 1.456-.392h5.096c.616 0 1.064.112 1.344.28s.504.504.616 1.064c1.288 7.056 2.744 13.328 4.368 18.76h.28c1.568-4.48 3.024-10.64 4.368-18.592q.084-.84.504-1.176c.28-.224.728-.336 1.288-.336h5.152c.616 0 1.064.168 1.288.392s.28.672.224 1.288m2.544 7.336v-.728c0-2.744.728-4.816 2.184-6.272 1.68-1.68 4.536-2.52 8.512-2.52h.56c3.136 0 5.88.336 8.176 1.008q.672.252.84.504c.112.224.168.504.112.952l-.616 4.592c-.112.728-.616.952-1.512.728-2.24-.504-4.256-.784-5.936-.784h-.056c-1.232 0-2.128.112-2.576.336-.504.224-.728.616-.728 1.176v.168c0 .56.168.952.616 1.176s1.288.504 2.576.728l2.632.56c2.408.56 4.144 1.4 5.152 2.52s1.512 2.856 1.512 5.152v.84c0 5.88-3.696 8.792-10.976 8.792h-.56c-3.696 0-6.776-.504-9.352-1.512-.504-.168-.84-.392-.952-.672-.112-.224-.112-.672 0-1.288l.784-3.696c.168-1.064.784-1.4 1.904-1.064 2.576.896 4.816 1.288 6.72 1.288h.168c1.232 0 2.072-.112 2.576-.392.448-.224.728-.672.728-1.288v-.168a1.2 1.2 0 0 0-.616-1.064q-.672-.336-2.688-.84l-2.464-.56q-3.696-.84-5.208-2.52c-1.008-1.12-1.512-2.8-1.512-5.152m34.839 13.72v.56c0 3.136-1.512 4.648-4.48 4.648h-.616c-3.024 0-4.48-1.512-4.48-4.648v-.56c0-1.624.336-2.8 1.12-3.472.728-.672 1.848-1.064 3.36-1.064h.616c1.456 0 2.576.392 3.36 1.064.728.672 1.12 1.848 1.12 3.472m26.15-15.624h-8.904c-.56 0-.952-.056-1.176-.28s-.28-.672-.28-1.344v-3.864c0-.672.056-1.064.28-1.288q.336-.336 1.176-.336h18.928c.56 0 .952.112 1.232.336.224.224.392.672.392 1.288v1.064c0 1.456-.448 2.8-1.232 3.976l-9.632 13.664h9.576c.56 0 .896.112 1.12.336s.336.616.336 1.288v3.864q0 1.008-.336 1.344c-.224.224-.56.28-1.12.28h-19.264c-1.176 0-1.736-.504-1.736-1.624v-1.288c0-1.456.392-2.744 1.232-3.976zm27.239 13.048h1.792c.56 0 1.008.168 1.232.392.224.28.392.784.392 1.512v3.472c0 .784-.168 1.288-.392 1.512-.224.28-.672.392-1.232.392h-4.256c-2.8 0-4.76-.504-5.88-1.624-1.12-1.064-1.68-2.968-1.68-5.656v-6.048l-1.848 1.176c-.728.448-1.232.672-1.456.672-.448 0-.616-.336-.616-1.008v-5.208c0-.56.056-.952.28-1.232.168-.224.504-.56 1.064-.952l2.576-1.624v-14.784c0-.56.112-.952.392-1.232.28-.224.784-.392 1.512-.392h5.152c.672 0 1.176.168 1.456.392.28.28.448.672.448 1.232v9.072l2.52-1.624c.672-.448 1.176-.672 1.456-.672.392 0 .616.336.616 1.008v5.208c0 .56-.112 1.008-.28 1.232-.224.28-.56.616-1.064.952l-3.248 2.072v10.696c0 .448.056.728.224.84.112.168.392.224.84.224"/></svg>