<svg xmlns="http://www.w3.org/2000/svg" fill="none" viewBox="0 0 750 300"><g fill="#fff"><path d="M623.308 165.802c1.19-1.156 2.89-1.768 5.066-1.768h.306c2.108 0 3.604.612 4.522 1.768.816 1.088 1.224 2.924 1.224 5.576v2.55c0 1.428-.136 2.618-.34 3.502-.238.884-.646 1.632-1.224 2.21-1.156 1.122-2.72 1.666-4.76 1.666h-.374q-1.938 0-3.162-.714v5.236c0 .51-.102.85-.272.986-.204.136-.578.204-1.156.204h-2.584c-.578 0-.952-.068-1.156-.238-.204-.136-.272-.476-.272-.952v-20.4c0-.408.068-.68.272-.85.17-.136.476-.238.918-.238h1.428c.408 0 .714.068.884.136.136.102.272.306.374.578l.238.748zm1.258 4.828v4.352c0 .782.136 1.326.476 1.632.306.306.816.442 1.53.442h.306c.782 0 1.326-.204 1.666-.68q.408-.612.408-2.958v-1.462c0-1.632-.136-2.652-.408-3.026-.34-.408-.884-.612-1.7-.612h-.238c-.748 0-1.258.17-1.598.51-.306.306-.442.918-.442 1.802m17.073-4.454h.102c.748-1.224 2.006-1.836 3.808-1.836h1.36c.34 0 .612.068.748.204s.238.374.238.748v2.482c0 .374-.068.612-.204.748q-.204.204-.714.204h-1.02c-1.258 0-2.108.238-2.584.714-.408.408-.578 1.19-.578 2.346v8.228c0 .34-.102.612-.272.748-.17.17-.476.238-.884.238h-3.128c-.442 0-.748-.068-.918-.238-.17-.136-.238-.408-.238-.748v-14.722c0-.34.068-.578.238-.714s.476-.238.918-.238h1.632c.374 0 .646.068.816.17q.255.204.408.612zm13.064 5.168v2.652c0 1.326.204 2.176.612 2.584.306.34.782.476 1.428.476h.136c.612 0 1.088-.136 1.428-.476.408-.408.612-1.258.612-2.584v-2.652c0-1.292-.204-2.176-.612-2.584-.34-.306-.816-.476-1.428-.476h-.136c-.646 0-1.122.17-1.428.476-.408.408-.612 1.292-.612 2.584m9.69.204v2.21c0 1.7-.17 2.992-.51 3.944s-.884 1.7-1.632 2.278c-1.122.884-2.856 1.326-5.236 1.326h-.408c-2.38 0-4.148-.442-5.236-1.326-.748-.578-1.292-1.326-1.632-2.278s-.51-2.244-.51-3.944v-2.176c0-1.666.17-2.958.51-3.91s.884-1.7 1.632-2.312c1.088-.884 2.856-1.326 5.236-1.326h.408c2.38 0 4.114.442 5.236 1.326a5.23 5.23 0 0 1 1.632 2.278c.34.952.51 2.244.51 3.91m11.615-6.392h2.924c.476 0 .816.068.986.204s.306.408.374.816c0 .136.612 3.162 1.802 9.044h.102c.612-3.57 1.156-6.868 1.598-9.928.034-.374.136-.612.272-.748q.204-.204.714-.204h3.468c.374 0 .612.102.748.238.102.17.136.442.068.782-.544 2.652-1.224 5.576-1.972 8.772s-1.292 5.202-1.632 6.052c-.136.34-.306.578-.476.68s-.442.136-.782.136h-3.74c-.714 0-1.156-.238-1.292-.782-.646-2.312-1.19-5.236-1.666-8.772h-.136a93 93 0 0 1-1.7 8.772c-.136.544-.544.782-1.224.782h-3.672c-.68 0-1.122-.238-1.292-.748-.34-.918-.918-3.026-1.734-6.29a158 158 0 0 1-1.904-8.602c-.102-.374-.068-.646.068-.782s.408-.238.816-.238h3.332c.34 0 .612.068.782.204.136.136.238.408.306.748.476 3.162 1.02 6.46 1.666 9.928h.136c.816-4.216 1.394-7.242 1.666-9.044.068-.442.17-.714.34-.85.17-.102.51-.17 1.054-.17m20.578.17v14.688c0 .34-.102.612-.272.748-.17.17-.476.238-.884.238h-3.128c-.442 0-.748-.068-.918-.238-.17-.136-.238-.408-.238-.748v-14.688c0-.34.068-.578.238-.748.17-.136.476-.238.918-.238h3.128c.408 0 .714.102.884.238.17.17.272.408.272.748m-2.516-2.278h-.408c-1.836 0-2.754-.918-2.754-2.822v-.17c0-1.87.918-2.822 2.754-2.822h.408c1.836 0 2.754.952 2.754 2.822v.17c0 1.904-.918 2.822-2.754 2.822m11.581 5.61h-5.406c-.34 0-.578-.034-.714-.17s-.17-.408-.17-.816v-2.346c0-.408.034-.646.17-.782q.204-.204.714-.204h11.492c.34 0 .578.068.748.204.136.136.238.408.238.782v.646c0 .884-.272 1.7-.748 2.414l-5.848 8.296h5.814c.34 0 .544.068.68.204s.204.374.204.782v2.346q0 .612-.204.816c-.136.136-.34.17-.68.17h-11.696c-.714 0-1.054-.306-1.054-.986v-.782c0-.884.238-1.666.748-2.414zm8.854 18.394h-1.972c-.34 0-.612-.068-.748-.238-.136-.136-.204-.442-.204-.85v-2.38c0-.34.068-.612.204-.748s.408-.238.748-.238h.85c.612 0 1.088-.136 1.394-.476.272-.272.408-.986.408-2.108v-14.688c0-.34.068-.578.238-.748.17-.136.476-.238.918-.238h3.128c.408 0 .714.102.884.238.17.17.272.408.272.748v15.062c0 2.448-.442 4.148-1.326 5.134q-1.377 1.53-4.794 1.53m3.604-24.004h-.408c-1.836 0-2.754-.918-2.754-2.822v-.17c0-1.87.918-2.822 2.754-2.822h.408c1.836 0 2.754.952 2.754 2.822v.17c0 1.904-.918 2.822-2.754 2.822m11.547 2.278v14.688c0 .34-.102.612-.272.748-.17.17-.476.238-.884.238h-3.128c-.442 0-.748-.068-.918-.238-.17-.136-.238-.408-.238-.748v-14.688c0-.34.068-.578.238-.748.17-.136.476-.238.918-.238h3.128c.408 0 .714.102.884.238.17.17.272.408.272.748m-2.516-2.278h-.408c-1.836 0-2.754-.918-2.754-2.822v-.17c0-1.87.918-2.822 2.754-2.822h.408c1.836 0 2.754.952 2.754 2.822v.17c0 1.904-.918 2.822-2.754 2.822"/><path d="M669.446 123.512v5.568c0 6.016-1.28 10.624-3.776 13.76-2.56 3.2-6.784 4.736-12.672 4.736s-10.113-1.536-12.672-4.736c-2.56-3.136-3.777-7.744-3.777-13.76v-5.568c0-6.016 1.217-10.56 3.777-13.76 2.559-3.136 6.784-4.736 12.672-4.736s10.112 1.6 12.672 4.736c2.496 3.2 3.776 7.744 3.776 13.76m-10.944 4.48V124.6c0-4.16-.384-7.04-1.024-8.576s-2.112-2.368-4.352-2.368h-.256c-2.304.064-3.776.832-4.416 2.368s-.96 4.416-.96 8.576v3.392c0 4.224.32 7.04.96 8.576s2.112 2.368 4.416 2.368h.256c2.24 0 3.712-.768 4.352-2.304s1.024-4.416 1.024-8.64m36.933-11.52v.64c0 4.224-1.088 7.232-3.136 9.152-1.921 1.536-4.416 2.304-7.36 2.304-3.328 0-5.824-.832-7.552-2.496-1.92-1.792-2.88-4.608-2.88-8.32v-1.92c0-3.712.96-6.464 2.88-8.32 1.728-1.664 4.224-2.496 7.552-2.496 2.944 0 5.439.768 7.36 2.304 2.048 1.92 3.136 4.992 3.136 9.152m-10.88 28.8 23.616-38.912c.32-.512.704-.896 1.088-1.088.384-.128.96-.256 1.792-.256h4.672c1.984 0 2.56.768 1.664 2.304l-23.616 38.912c-.384.576-.704.96-1.088 1.088-.384.192-1.024.256-1.792.256h-4.672c-2.048 0-2.56-.768-1.664-2.304m-1.408-30.208v3.456c0 1.344.128 2.24.448 2.688.256.448.704.64 1.28.64h.128c.512 0 .96-.192 1.28-.64.256-.448.448-1.344.448-2.688v-3.456c0-1.28-.192-2.176-.448-2.624-.32-.448-.768-.704-1.28-.704h-.128c-.576 0-1.024.256-1.28.704-.32.448-.448 1.344-.448 2.624m44.928 20.416v.64c0 4.224-1.088 7.232-3.136 9.152-1.92 1.536-4.416 2.304-7.36 2.304-3.328 0-5.824-.832-7.552-2.496-1.92-1.792-2.88-4.544-2.88-8.32v-1.92c0-3.712.96-6.528 2.88-8.32 1.728-1.664 4.224-2.496 7.552-2.496 2.944 0 5.44.768 7.36 2.304 2.048 1.92 3.136 4.992 3.136 9.152m-12.288-1.408v3.456c0 1.344.128 2.24.448 2.688.256.448.704.64 1.28.64h.128c.512 0 .96-.192 1.28-.64.256-.448.448-1.344.448-2.688v-3.456c0-1.28-.192-2.176-.448-2.624-.32-.448-.768-.704-1.28-.704h-.128c-.576 0-1.024.256-1.28.704-.32.448-.448 1.344-.448 2.624"/><path d="M54.274 138.302h-.276c-.966 4.738-2.162 9.798-3.542 15.18Q50.042 155 47.834 155h-4.14c-.828 0-1.426-.092-1.794-.322-.368-.184-.598-.552-.736-1.104a316 316 0 0 1-5.75-27.14c-.092-.414 0-.736.184-.92q.276-.276 1.242-.276h4.554c.552 0 1.012.092 1.288.23.276.184.414.506.506.966 1.564 10.534 2.622 17.296 3.082 20.286h.184c.368-1.748.966-4.784 1.886-9.2.92-4.37 1.564-7.452 1.978-9.292.138-.782.782-1.196 1.932-1.196h3.772c1.104 0 1.748.414 1.932 1.196.368 1.84 1.012 4.922 1.932 9.292.92 4.416 1.564 7.452 1.932 9.2h.184c.23-1.564.69-4.554 1.38-9.062.644-4.462 1.242-8.188 1.702-11.224.046-.46.23-.782.506-.966.276-.138.69-.23 1.288-.23h4.554c.598 0 1.012.092 1.196.276s.276.506.23.92c-1.886 10.396-3.818 19.412-5.75 27.14-.184.552-.414.92-.782 1.104-.368.23-.92.322-1.748.322h-4.14q-2.208 0-2.622-1.518c-1.426-5.382-2.622-10.442-3.542-15.18m31.17 11.178h.506c1.564 0 3.22-.184 4.876-.598.46-.092.736-.138.874-.138.46 0 .736.276.828.782l.368 2.3c.092.644.184 1.058.184 1.242 0 .552-.414.966-1.196 1.242-2.116.736-4.462 1.104-6.946 1.104h-.874q-5.658 0-8.004-2.346c-.92-.874-1.518-1.932-1.84-3.128s-.46-2.806-.46-4.784v-2.576c0-4.002.92-6.808 2.76-8.464 1.564-1.38 3.956-2.07 7.222-2.07h.644c3.22 0 5.566.782 6.946 2.3 1.472 1.656 2.208 4.37 2.208 8.234v2.392c0 .874-.46 1.288-1.334 1.288h-11.04v.368c0 1.104.276 1.84.92 2.254.598.414 1.702.598 3.358.598m-4.278-8.004h5.06c.368 0 .552-.184.552-.598v-.736c0-.92-.184-1.61-.46-2.116-.368-.552-1.104-.828-2.116-.828h-.414c-.92 0-1.564.23-1.932.644q-.69.828-.69 2.484zm23.783-3.174h-7.314c-.46 0-.782-.046-.966-.23s-.23-.552-.23-1.104v-3.174c0-.552.047-.874.23-1.058q.277-.276.966-.276h15.548c.46 0 .782.092 1.012.276.184.184.322.552.322 1.058v.874c0 1.196-.368 2.3-1.012 3.266l-7.912 11.224h7.866c.46 0 .736.092.92.276s.276.506.276 1.058v3.174q0 .828-.276 1.104c-.184.184-.46.23-.92.23H97.635c-.966 0-1.425-.414-1.425-1.334v-1.058c0-1.196.322-2.254 1.012-3.266zm-3.542-11.914 7.222-6.164c.276-.276.598-.414.874-.414.322 0 .644.23.92.598l2.208 2.852c.184.276.276.506.276.782 0 .368-.276.736-.736 1.104l-7.268 4.968c-.368.23-.644.322-.92.322-.368 0-.736-.184-1.104-.644l-1.38-1.61c-.368-.414-.506-.782-.506-1.058s.138-.552.414-.736m38.098 7.176h3.956c.644 0 1.104.092 1.334.276s.414.552.506 1.104c0 .184.828 4.278 2.438 12.236h.138c.828-4.83 1.564-9.292 2.162-13.432.046-.506.184-.828.368-1.012q.276-.276.966-.276h4.692c.506 0 .828.138 1.012.322.138.23.184.598.092 1.058-.736 3.588-1.656 7.544-2.668 11.868s-1.748 7.038-2.208 8.188c-.184.46-.414.782-.644.92s-.598.184-1.058.184h-5.06c-.966 0-1.564-.322-1.748-1.058-.874-3.128-1.61-7.084-2.254-11.868h-.184c-.598 4.14-1.38 8.096-2.3 11.868-.184.736-.736 1.058-1.656 1.058h-4.968c-.92 0-1.518-.322-1.748-1.012-.46-1.242-1.242-4.094-2.346-8.51a214 214 0 0 1-2.576-11.638c-.138-.506-.092-.874.092-1.058s.552-.322 1.104-.322h4.508c.46 0 .828.092 1.058.276.184.184.322.552.414 1.012.644 4.278 1.38 8.74 2.254 13.432h.184c1.104-5.704 1.886-9.798 2.254-12.236.092-.598.23-.966.46-1.15.23-.138.69-.23 1.426-.23m43.655 19.55h-.092c-1.012 1.564-3.036 2.3-6.026 2.3h-.69c-2.346 0-4.186-.598-5.474-1.794-1.334-1.196-1.978-2.99-1.978-5.29v-.506c0-2.484.69-4.278 2.116-5.29s3.726-1.518 6.946-1.518h.322c1.196 0 2.3.092 3.22.184v-.966c0-.966-.276-1.656-.782-2.024-.552-.322-1.472-.506-2.76-.506-1.564 0-3.312.276-5.336.782-.552.138-.966.138-1.15 0-.23-.138-.368-.414-.414-.874l-.368-2.438c-.092-.414-.092-.736-.092-.92 0-.552.368-.966 1.104-1.196 2.346-.644 4.968-1.012 7.866-1.012 3.542 0 6.072.782 7.544 2.254 1.15 1.196 1.748 3.128 1.748 5.75v13.662c0 .46-.138.828-.368 1.012s-.644.276-1.196.276h-2.162c-.552 0-.92-.046-1.15-.184s-.414-.414-.552-.874zm-1.656-5.888v-1.288q-.759-.138-2.208-.138h-.506q-1.656 0-2.346.414c-.46.276-.644.828-.644 1.656v.184c0 .828.184 1.38.644 1.656.414.322 1.058.46 1.932.46h.322c.92 0 1.61-.23 2.162-.69.414-.368.644-1.15.644-2.254m17.379-12.788c1.61-1.564 3.91-2.392 6.854-2.392h.414c2.852 0 4.876.828 6.118 2.392 1.104 1.472 1.656 3.956 1.656 7.544v3.45c0 1.932-.184 3.542-.46 4.738-.322 1.196-.874 2.208-1.656 2.99-1.564 1.518-3.68 2.254-6.44 2.254h-.506q-2.622 0-4.278-.966v7.084c0 .69-.138 1.15-.368 1.334-.276.184-.782.276-1.564.276h-3.496c-.782 0-1.288-.092-1.564-.322-.276-.184-.368-.644-.368-1.288v-27.6c0-.552.092-.92.368-1.15.23-.184.644-.322 1.242-.322h1.932c.552 0 .966.092 1.196.184.184.138.368.414.506.782l.322 1.012zm1.702 6.532v5.888c0 1.058.184 1.794.644 2.208.414.414 1.104.598 2.07.598h.414c1.058 0 1.794-.276 2.254-.92q.552-.828.552-4.002v-1.978c0-2.208-.184-3.588-.552-4.094-.46-.552-1.196-.828-2.3-.828h-.322c-1.012 0-1.702.23-2.162.69-.414.414-.598 1.242-.598 2.438m25.536 8.05h1.472c.46 0 .828.138 1.012.322.184.23.322.644.322 1.242v2.852c0 .644-.138 1.058-.322 1.242-.184.23-.552.322-1.012.322h-3.496c-2.3 0-3.91-.414-4.83-1.334-.92-.874-1.38-2.438-1.38-4.646v-23.828c0-.46.092-.782.322-1.012.23-.184.644-.322 1.242-.322h4.232c.552 0 .966.138 1.196.322.23.23.368.552.368 1.012v22.954c0 .368.046.598.184.69.092.138.322.184.69.184m13.279-15.226v19.872c0 .46-.138.828-.368 1.012-.23.23-.644.322-1.196.322h-4.232c-.598 0-1.012-.092-1.242-.322-.23-.184-.322-.552-.322-1.012v-19.872c0-.46.092-.782.322-1.012.23-.184.644-.322 1.242-.322h4.232c.552 0 .966.138 1.196.322.23.23.368.552.368 1.012m-3.404-3.082h-.552c-2.484 0-3.726-1.242-3.726-3.818v-.23c0-2.53 1.242-3.818 3.726-3.818h.552c2.484 0 3.726 1.288 3.726 3.818v.23c0 2.576-1.242 3.818-3.726 3.818m15.53 15.364v7.59c0 .46-.138.828-.368 1.012-.23.23-.644.322-1.196.322h-4.232c-.598 0-1.012-.092-1.242-.322-.23-.184-.322-.552-.322-1.012v-28.474c0-.46.092-.782.322-1.012.23-.184.644-.322 1.242-.322h4.232c.552 0 .966.138 1.196.322.23.23.368.552.368 1.012v14.996h.322l4.37-6.67c.414-.69 1.058-1.058 1.932-1.058h5.336c.506 0 .782.184.782.552 0 .184-.138.506-.368.874l-5.29 7.912c-.414.644-.598 1.104-.598 1.38 0 .322.184.782.598 1.38l5.658 8.924c.184.368.276.598.276.782 0 .506-.322.736-.966.736h-5.106c-.644 0-1.15-.046-1.426-.23q-.414-.207-.828-.966l-4.37-7.728zm28.665 7.038h-.092c-1.012 1.564-3.036 2.3-6.026 2.3h-.69c-2.346 0-4.186-.598-5.474-1.794-1.334-1.196-1.978-2.99-1.978-5.29v-.506c0-2.484.69-4.278 2.116-5.29s3.726-1.518 6.946-1.518h.322c1.196 0 2.3.092 3.22.184v-.966c0-.966-.276-1.656-.782-2.024-.552-.322-1.472-.506-2.76-.506-1.564 0-3.312.276-5.336.782-.552.138-.966.138-1.15 0-.23-.138-.368-.414-.414-.874l-.368-2.438c-.092-.414-.092-.736-.092-.92 0-.552.368-.966 1.104-1.196 2.346-.644 4.968-1.012 7.866-1.012 3.542 0 6.072.782 7.544 2.254 1.15 1.196 1.748 3.128 1.748 5.75v13.662c0 .46-.138.828-.368 1.012s-.644.276-1.196.276h-2.162c-.552 0-.92-.046-1.15-.184s-.414-.414-.552-.874zm-1.656-5.888v-1.288q-.759-.138-2.208-.138h-.506q-1.656 0-2.346.414c-.46.276-.644.828-.644 1.656v.184c0 .828.184 1.38.644 1.656.414.322 1.058.46 1.932.46h.322c.92 0 1.61-.23 2.162-.69.414-.368.644-1.15.644-2.254m22.301 2.254h.368c1.242 0 2.576-.184 4.002-.598.46-.092.736-.138.874-.138.46 0 .736.276.828.782l.414 2.346c.092.644.184 1.058.184 1.242 0 .552-.414.966-1.196 1.242-2.024.736-4.232 1.058-6.624 1.058h-.552c-3.312 0-5.75-.736-7.268-2.3q-2.346-2.346-2.346-7.866v-2.668c0-2.162.184-3.864.552-5.06q.552-1.794 1.794-3.036c1.61-1.61 4.14-2.438 7.59-2.438h.46c2.76 0 5.152.506 7.084 1.518.552.322.874.69.874 1.15 0 .276-.138.736-.368 1.38l-.874 2.208q-.345.828-.966.828c-.184 0-.46-.046-.828-.23-1.472-.598-2.852-.92-4.094-.92h-.184c-1.196 0-2.07.322-2.622.874-.69.69-1.012 2.116-1.012 4.232v1.564c0 1.886.276 3.174.92 3.864.598.644 1.61.966 2.99.966m9.481 13.708h-2.668c-.46 0-.828-.092-1.012-.322-.184-.184-.276-.598-.276-1.15v-3.22c0-.46.092-.828.276-1.012s.552-.322 1.012-.322h1.15c.828 0 1.472-.184 1.886-.644.368-.368.552-1.334.552-2.852v-19.872c0-.46.092-.782.322-1.012.23-.184.644-.322 1.242-.322h4.232c.552 0 .966.138 1.196.322.23.23.368.552.368 1.012v20.378c0 3.312-.598 5.612-1.794 6.946q-1.863 2.07-6.486 2.07m4.876-32.476h-.552c-2.484 0-3.726-1.242-3.726-3.818v-.23c0-2.53 1.242-3.818 3.726-3.818h.552c2.484 0 3.726 1.288 3.726 3.818v.23c0 2.576-1.242 3.818-3.726 3.818m15.623 3.082v19.872c0 .46-.138.828-.368 1.012-.23.23-.644.322-1.196.322h-4.232c-.598 0-1.012-.092-1.242-.322-.23-.184-.322-.552-.322-1.012v-19.872c0-.46.092-.782.322-1.012.23-.184.644-.322 1.242-.322h4.232c.552 0 .966.138 1.196.322.23.23.368.552.368 1.012m-3.404-3.082h-.552c-2.484 0-3.726-1.242-3.726-3.818v-.23c0-2.53 1.242-3.818 3.726-3.818h.552c2.484 0 3.726 1.288 3.726 3.818v.23c0 2.576-1.242 3.818-3.726 3.818M44.706 191.97v5.888c0 1.058.184 1.794.644 2.208.368.414 1.058.598 2.07.598h.414c1.058 0 1.794-.276 2.254-.92q.552-.828.552-4.002v-1.978c0-2.3-.23-3.726-.598-4.186-.414-.46-1.196-.736-2.3-.736h-.184c-1.058 0-1.794.23-2.254.69-.414.414-.598 1.242-.598 2.438m0-7.682h.092q2.001-1.242 5.244-1.242h.414c2.76 0 4.784.828 6.026 2.484 1.012 1.426 1.564 3.956 1.564 7.59v3.312c0 3.68-.782 6.256-2.346 7.682-1.656 1.564-4.278 2.3-7.866 2.3h-.92c-3.772 0-6.348-.736-7.728-2.254-1.242-1.334-1.84-3.496-1.84-6.532v-21.436c0-.46.092-.782.322-1.012.184-.184.598-.322 1.196-.322h4.278c.552 0 .966.138 1.196.322.23.23.368.552.368 1.012zm28.25 16.192h.506c1.564 0 3.22-.184 4.876-.598.46-.092.736-.138.874-.138.46 0 .736.276.828.782l.368 2.3c.092.644.184 1.058.184 1.242 0 .552-.414.966-1.196 1.242-2.116.736-4.462 1.104-6.946 1.104h-.874q-5.658 0-8.004-2.346c-.92-.874-1.518-1.932-1.84-3.128s-.46-2.806-.46-4.784v-2.576c0-4.002.92-6.808 2.76-8.464 1.564-1.38 3.956-2.07 7.222-2.07h.644c3.22 0 5.566.782 6.946 2.3 1.472 1.656 2.208 4.37 2.208 8.234v2.392c0 .874-.46 1.288-1.334 1.288h-11.04v.368c0 1.104.276 1.84.92 2.254.598.414 1.702.598 3.358.598m-4.278-8.004h5.06c.368 0 .552-.184.552-.598v-.736c0-.92-.184-1.61-.46-2.116-.368-.552-1.104-.828-2.116-.828H71.3c-.92 0-1.564.23-1.932.644q-.69.828-.69 2.484zm23.783-3.174h-7.314c-.46 0-.782-.046-.966-.23s-.23-.552-.23-1.104v-3.174c0-.552.046-.874.23-1.058q.276-.276.966-.276h15.548c.46 0 .782.092 1.012.276.184.184.322.552.322 1.058v.874c0 1.196-.368 2.3-1.012 3.266l-7.912 11.224h7.866c.46 0 .736.092.92.276s.276.506.276 1.058v3.174q0 .828-.276 1.104c-.184.184-.46.23-.92.23H85.147c-.966 0-1.426-.414-1.426-1.334v-1.058c0-1.196.322-2.254 1.012-3.266zm30.278 0h-7.314c-.46 0-.782-.046-.966-.23s-.23-.552-.23-1.104v-3.174c0-.552.046-.874.23-1.058q.276-.276.966-.276h15.548c.46 0 .782.092 1.012.276.184.184.322.552.322 1.058v.874c0 1.196-.368 2.3-1.012 3.266l-7.912 11.224h7.866c.46 0 .736.092.92.276s.276.506.276 1.058v3.174q0 .828-.276 1.104c-.184.184-.46.23-.92.23h-15.824c-.966 0-1.426-.414-1.426-1.334v-1.058c0-1.196.322-2.254 1.012-3.266zm26.1 14.812h-.092c-1.012 1.564-3.036 2.3-6.026 2.3h-.69c-2.346 0-4.186-.598-5.474-1.794-1.334-1.196-1.978-2.99-1.978-5.29v-.506c0-2.484.69-4.278 2.116-5.29s3.726-1.518 6.946-1.518h.322c1.196 0 2.3.092 3.22.184v-.966c0-.966-.276-1.656-.782-2.024-.552-.322-1.472-.506-2.76-.506-1.564 0-3.312.276-5.336.782-.552.138-.966.138-1.15 0-.23-.138-.368-.414-.414-.874l-.368-2.438c-.092-.414-.092-.736-.092-.92 0-.552.368-.966 1.104-1.196 2.346-.644 4.968-1.012 7.866-1.012 3.542 0 6.072.782 7.544 2.254 1.15 1.196 1.748 3.128 1.748 5.75v13.662c0 .46-.138.828-.368 1.012s-.644.276-1.196.276h-2.162c-.552 0-.92-.046-1.15-.184s-.414-.414-.552-.874zm-1.656-5.888v-1.288q-.759-.138-2.208-.138h-.506q-1.656 0-2.346.414c-.46.276-.644.828-.644 1.656v.184c0 .828.184 1.38.644 1.656.414.322 1.058.46 1.932.46h.322c.92 0 1.61-.23 2.162-.69.414-.368.644-1.15.644-2.254m19.082-1.15v7.59c0 .46-.138.828-.368 1.012-.23.23-.644.322-1.196.322h-4.232c-.598 0-1.012-.092-1.242-.322-.23-.184-.322-.552-.322-1.012v-28.474c0-.46.092-.782.322-1.012.23-.184.644-.322 1.242-.322h4.232c.552 0 .966.138 1.196.322.23.23.368.552.368 1.012v14.996h.322l4.37-6.67c.414-.69 1.058-1.058 1.932-1.058h5.336c.506 0 .782.184.782.552 0 .184-.138.506-.368.874l-5.29 7.912c-.414.644-.598 1.104-.598 1.38 0 .322.184.782.598 1.38l5.658 8.924c.184.368.276.598.276.782 0 .506-.322.736-.966.736h-5.106c-.644 0-1.15-.046-1.426-.23q-.414-.207-.828-.966l-4.37-7.728zm24.938 2.944h1.472c.46 0 .828.138 1.012.322.184.23.322.644.322 1.242v2.852c0 .644-.138 1.058-.322 1.242-.184.23-.552.322-1.012.322h-3.496c-2.3 0-3.91-.414-4.83-1.334-.92-.874-1.38-2.438-1.38-4.646v-4.968l-1.518.966c-.598.368-1.012.552-1.196.552-.368 0-.506-.276-.506-.828v-4.278c0-.46.046-.782.23-1.012.138-.184.414-.46.874-.782l2.116-1.334v-12.144c0-.46.092-.782.322-1.012.23-.184.644-.322 1.242-.322h4.232c.552 0 .966.138 1.196.322.23.23.368.552.368 1.012v7.452l2.07-1.334c.552-.368.966-.552 1.196-.552.322 0 .506.276.506.828v4.278c0 .46-.092.828-.23 1.012-.184.23-.46.506-.874.782l-2.668 1.702v8.786c0 .368.046.598.184.69.092.138.322.184.69.184m19.134 4.094h-.092c-1.012 1.564-3.036 2.3-6.026 2.3h-.69c-2.346 0-4.186-.598-5.474-1.794-1.334-1.196-1.978-2.99-1.978-5.29v-.506c0-2.484.69-4.278 2.116-5.29s3.726-1.518 6.946-1.518h.322c1.196 0 2.3.092 3.22.184v-.966c0-.966-.276-1.656-.782-2.024-.552-.322-1.472-.506-2.76-.506-1.564 0-3.312.276-5.336.782-.552.138-.966.138-1.15 0-.23-.138-.368-.414-.414-.874l-.368-2.438c-.092-.414-.092-.736-.092-.92 0-.552.368-.966 1.104-1.196 2.346-.644 4.968-1.012 7.866-1.012 3.542 0 6.072.782 7.544 2.254 1.15 1.196 1.748 3.128 1.748 5.75v13.662c0 .46-.138.828-.368 1.012s-.644.276-1.196.276h-2.162c-.552 0-.92-.046-1.15-.184s-.414-.414-.552-.874zm-1.656-5.888v-1.288q-.759-.138-2.208-.138h-.506q-1.656 0-2.346.414c-.46.276-.644.828-.644 1.656v.184c0 .828.184 1.38.644 1.656.414.322 1.058.46 1.932.46h.322c.92 0 1.61-.23 2.162-.69.414-.368.644-1.15.644-2.254m24.326-.368v-5.842c0-1.15-.184-1.978-.552-2.438-.414-.46-1.15-.736-2.162-.736h-.46c-1.012 0-1.702.276-2.116.782-.46.506-.644 1.932-.644 4.324v2.024c0 2.208.23 3.588.69 4.048.368.46 1.058.644 2.116.644h.506c.874 0 1.518-.184 1.978-.598.414-.414.644-1.15.644-2.208m-.092-13.984h.092v-7.682c0-.46.092-.782.322-1.012.23-.184.644-.322 1.242-.322h4.278c.552 0 .966.138 1.196.322.184.23.322.552.322 1.012v20.93c0 3.22-.598 5.428-1.794 6.716-.874.92-1.932 1.61-3.174 1.978-1.288.414-2.99.598-5.152.598h-.782c-3.404 0-5.842-.69-7.406-2.07-1.61-1.38-2.392-3.956-2.392-7.774v-3.68c0-3.68.736-6.256 2.3-7.728 1.472-1.38 3.496-2.116 6.118-2.116h.552q2.622 0 4.278.828m25.129 20.24h-.092c-1.012 1.564-3.036 2.3-6.026 2.3h-.69c-2.346 0-4.186-.598-5.474-1.794-1.334-1.196-1.978-2.99-1.978-5.29v-.506c0-2.484.69-4.278 2.116-5.29s3.726-1.518 6.946-1.518h.322c1.196 0 2.3.092 3.22.184v-.966c0-.966-.276-1.656-.782-2.024-.552-.322-1.472-.506-2.76-.506-1.564 0-3.312.276-5.336.782-.552.138-.966.138-1.15 0-.23-.138-.368-.414-.414-.874l-.368-2.438c-.092-.414-.092-.736-.092-.92 0-.552.368-.966 1.104-1.196 2.346-.644 4.968-1.012 7.866-1.012 3.542 0 6.072.782 7.544 2.254 1.15 1.196 1.748 3.128 1.748 5.75v13.662c0 .46-.138.828-.368 1.012s-.644.276-1.196.276h-2.162c-.552 0-.92-.046-1.15-.184s-.414-.414-.552-.874zm-1.656-5.888v-1.288q-.759-.138-2.208-.138h-.506q-1.656 0-2.346.414c-.46.276-.644.828-.644 1.656v.184c0 .828.184 1.38.644 1.656.414.322 1.058.46 1.932.46h.322c.92 0 1.61-.23 2.162-.69.414-.368.644-1.15.644-2.254m23.866-15.18h.368c2.668 0 4.646.644 5.842 1.886 1.104 1.196 1.702 3.22 1.702 6.072v13.662c0 .46-.138.828-.368 1.012-.23.23-.644.322-1.196.322h-4.232c-.598 0-1.012-.092-1.242-.322-.23-.184-.322-.552-.322-1.012v-13.018c0-1.012-.184-1.748-.506-2.116-.368-.368-1.058-.598-2.024-.598H278c-1.012 0-1.656.23-2.024.598s-.506 1.104-.506 2.116v13.018c0 .46-.138.828-.368 1.012-.23.23-.644.322-1.196.322h-4.232c-.598 0-1.012-.092-1.242-.322-.23-.184-.322-.552-.322-1.012v-19.918c0-.46.092-.782.322-.966s.644-.322 1.242-.322h2.162c.552 0 .92.092 1.15.23q.345.207.552.828l.276.874h.138c1.472-1.564 3.542-2.346 6.302-2.346m19.745 1.748v19.872c0 .46-.138.828-.368 1.012-.23.23-.644.322-1.196.322h-4.232c-.598 0-1.012-.092-1.242-.322-.23-.184-.322-.552-.322-1.012v-19.872c0-.46.092-.782.322-1.012.23-.184.644-.322 1.242-.322h4.232c.552 0 .966.138 1.196.322.23.23.368.552.368 1.012m-3.404-3.082h-.552c-2.484 0-3.726-1.242-3.726-3.818v-.23c0-2.53 1.242-3.818 3.726-3.818h.552c2.484 0 3.726 1.288 3.726 3.818v.23c0 2.576-1.242 3.818-3.726 3.818m21.465 22.402h-.092c-1.012 1.564-3.036 2.3-6.026 2.3h-.69c-2.346 0-4.186-.598-5.474-1.794-1.334-1.196-1.978-2.99-1.978-5.29v-.506c0-2.484.69-4.278 2.116-5.29s3.726-1.518 6.946-1.518h.322c1.196 0 2.3.092 3.22.184v-.966c0-.966-.276-1.656-.782-2.024-.552-.322-1.472-.506-2.76-.506-1.564 0-3.312.276-5.336.782-.552.138-.966.138-1.15 0-.23-.138-.368-.414-.414-.874l-.368-2.438c-.092-.414-.092-.736-.092-.92 0-.552.368-.966 1.104-1.196 2.346-.644 4.968-1.012 7.866-1.012 3.542 0 6.072.782 7.544 2.254 1.15 1.196 1.748 3.128 1.748 5.75v13.662c0 .46-.138.828-.368 1.012s-.644.276-1.196.276h-2.162c-.552 0-.92-.046-1.15-.184s-.414-.414-.552-.874zm-1.656-5.888v-1.288q-.759-.138-2.208-.138h-.506q-1.656 0-2.346.414c-.46.276-.644.828-.644 1.656v.184c0 .828.184 1.38.644 1.656.414.322 1.058.46 1.932.46h.322c.92 0 1.61-.23 2.162-.69.414-.368.644-1.15.644-2.254m29.054-1.15v7.59c0 .46-.138.828-.368 1.012-.23.23-.644.322-1.196.322h-4.232c-.598 0-1.012-.092-1.242-.322-.23-.184-.322-.552-.322-1.012v-28.474c0-.46.092-.782.322-1.012.23-.184.644-.322 1.242-.322h4.232c.552 0 .966.138 1.196.322.23.23.368.552.368 1.012v14.996h.322l4.37-6.67c.414-.69 1.058-1.058 1.932-1.058h5.336c.506 0 .782.184.782.552 0 .184-.138.506-.368.874l-5.29 7.912c-.414.644-.598 1.104-.598 1.38 0 .322.184.782.598 1.38l5.658 8.924c.184.368.276.598.276.782 0 .506-.322.736-.966.736h-5.106c-.644 0-1.15-.046-1.426-.23q-.414-.207-.828-.966l-4.37-7.728zm21.681-4.14v3.588c0 1.794.276 2.944.828 3.496.414.46 1.058.644 1.932.644h.184c.828 0 1.472-.184 1.932-.644.552-.552.828-1.702.828-3.496v-3.588c0-1.748-.276-2.944-.828-3.496-.46-.414-1.104-.644-1.932-.644h-.184c-.874 0-1.518.23-1.932.644-.552.552-.828 1.748-.828 3.496m13.11.276v2.99c0 2.3-.23 4.048-.69 5.336s-1.196 2.3-2.208 3.082c-1.518 1.196-3.864 1.794-7.084 1.794h-.552c-3.22 0-5.612-.598-7.084-1.794-1.012-.782-1.748-1.794-2.208-3.082s-.69-3.036-.69-5.336v-2.944c0-2.254.23-4.002.69-5.29a6.96 6.96 0 0 1 2.208-3.128c1.472-1.196 3.864-1.794 7.084-1.794h.552c3.22 0 5.566.598 7.084 1.794a7.1 7.1 0 0 1 2.208 3.082c.46 1.288.69 3.036.69 5.29m16.083-10.166h.368c2.668 0 4.646.644 5.842 1.886 1.104 1.196 1.702 3.22 1.702 6.072v13.662c0 .46-.138.828-.368 1.012-.23.23-.644.322-1.196.322h-4.232c-.598 0-1.012-.092-1.242-.322-.23-.184-.322-.552-.322-1.012v-13.018c0-1.012-.184-1.748-.506-2.116-.368-.368-1.058-.598-2.024-.598h-.276c-1.012 0-1.656.23-2.024.598s-.506 1.104-.506 2.116v13.018c0 .46-.138.828-.368 1.012-.23.23-.644.322-1.196.322h-4.232c-.598 0-1.012-.092-1.242-.322-.23-.184-.322-.552-.322-1.012v-19.918c0-.46.092-.782.322-.966s.644-.322 1.242-.322h2.162c.552 0 .92.092 1.15.23q.345.207.552.828l.276.874h.138c1.472-1.564 3.542-2.346 6.302-2.346m26.691 18.63v2.622c0 .69-.138 1.15-.322 1.38s-.598.322-1.15.322h-3.68c-3.312 0-5.52-.552-6.532-1.702-.92-.966-1.334-2.806-1.334-5.566v-9.522h-2.484c-.46 0-.736-.046-.92-.23s-.23-.46-.23-.92v-2.346c0-.552.046-.92.23-1.104.138-.184.46-.322.966-.46l2.438-.598v-4.508c0-.46.092-.782.322-1.012.23-.184.644-.322 1.242-.322h4.232c.552 0 .966.138 1.196.322.23.23.368.552.368 1.012v4.416h3.818c.46 0 .736.092.92.276s.276.506.276 1.058v3.082q0 .828-.276 1.104c-.184.184-.46.23-.92.23h-3.818v8.694c0 .828.092 1.334.368 1.61.276.322.874.46 1.794.46h2.024c.552 0 .966.138 1.15.368s.322.69.322 1.334m16.775 2.438h-.092c-1.012 1.564-3.036 2.3-6.026 2.3h-.69c-2.346 0-4.186-.598-5.474-1.794-1.334-1.196-1.978-2.99-1.978-5.29v-.506c0-2.484.69-4.278 2.116-5.29s3.726-1.518 6.946-1.518h.322c1.196 0 2.3.092 3.22.184v-.966c0-.966-.276-1.656-.782-2.024-.552-.322-1.472-.506-2.76-.506-1.564 0-3.312.276-5.336.782-.552.138-.966.138-1.15 0-.23-.138-.368-.414-.414-.874l-.368-2.438c-.092-.414-.092-.736-.092-.92 0-.552.368-.966 1.104-1.196 2.346-.644 4.968-1.012 7.866-1.012 3.542 0 6.072.782 7.544 2.254 1.15 1.196 1.748 3.128 1.748 5.75v13.662c0 .46-.138.828-.368 1.012s-.644.276-1.196.276h-2.162c-.552 0-.92-.046-1.15-.184s-.414-.414-.552-.874zm-1.656-5.888v-1.288q-.759-.138-2.208-.138h-.506q-1.656 0-2.346.414c-.46.276-.644.828-.644 1.656v.184c0 .828.184 1.38.644 1.656.414.322 1.058.46 1.932.46h.322c.92 0 1.61-.23 2.162-.69.414-.368.644-1.15.644-2.254"/></g></svg>