<svg xmlns="http://www.w3.org/2000/svg" fill="none" viewBox="0 0 116 76"><path fill="#fff" d="M.127 0H3.72l2.83 12.975L9.916.495h2.958l3.377 12.48L19.056 0h3.44L17.94 17.342H14.51L11.286 5.878 8.011 17.342H4.634zm24.16 3.225V0h3.274v3.225zm.1 14.117v-12.2h3.073v12.2zm6.221 0v-12.2h2.933l.076 1.536a5 5 0 0 1 .533-.559q.33-.317.775-.571.444-.267 1.028-.457a4 4 0 0 1 1.333-.178q.444 0 .787.05.355.052.724.179l-.622 2.894a3 3 0 0 0-.648-.178 4 4 0 0 0-.761-.063q-.622 0-1.194.216-.57.203-.99.596-.42.394-.673.94-.24.546-.241 1.219v6.576zM0 34.142h3.542l3.275 8.747 3.276-8.747h3.351l-5.141 12.2H5.18zm14.523 5.954q0-1.346.445-2.501a6.1 6.1 0 0 1 1.27-2.006 6 6 0 0 1 1.954-1.358q1.143-.495 2.514-.496 1.663 0 2.818.61t1.854 1.6q.71.99 1.016 2.234.317 1.245.317 2.551v.432h-9.103q0 .674.305 1.232.304.546.774.939.483.381 1.092.597.622.203 1.219.203.888 0 1.549-.165.66-.178 1.117-.394a4.2 4.2 0 0 0 1.231-.876l1.664 1.88-.432.43q-.343.344-1.016.737-.66.394-1.688.698-1.028.318-2.45.318-1.46 0-2.654-.495a6.1 6.1 0 0 1-2.044-1.359 6 6 0 0 1-1.307-2.094q-.445-1.233-.445-2.717m3.06-1.143h5.98q0-.47-.178-.927a2.6 2.6 0 0 0-.533-.85 2.7 2.7 0 0 0-.902-.622 2.9 2.9 0 0 0-1.244-.254q-.75 0-1.333.254-.584.24-.978.622a2.8 2.8 0 0 0-.609.85 2.3 2.3 0 0 0-.203.927m11.502 7.389v-12.2h2.933l.076 1.536q.203-.255.533-.559.33-.317.774-.571.446-.267 1.029-.457a4 4 0 0 1 1.333-.178q.444 0 .787.05.355.052.723.179l-.622 2.894a3 3 0 0 0-.647-.178 4 4 0 0 0-.762-.063 3.4 3.4 0 0 0-1.193.216q-.572.203-.99.596-.42.394-.673.94-.242.546-.242 1.219v6.576zm9.331-1.486 1.84-1.993q.573.572 1.435.952.876.369 1.994.369.99 0 1.587-.254.596-.267.596-.864 0-.253-.101-.47-.102-.228-.445-.431-.33-.216-.927-.419a14 14 0 0 0-1.612-.444 11 11 0 0 1-1.307-.42 5.3 5.3 0 0 1-1.257-.71 4 4 0 0 1-.965-1.092q-.368-.648-.368-1.523 0-.915.431-1.625.445-.724 1.156-1.194a5.7 5.7 0 0 1 1.612-.736 6.4 6.4 0 0 1 1.815-.267q1.613 0 2.743.343 1.13.33 2.044 1.003L47.1 37.24q-.495-.368-1.308-.66-.8-.305-1.892-.305-1.09 0-1.523.33t-.432.788q0 .57.711.901.724.33 2.235.685a9 9 0 0 1 1.675.521q.736.318 1.27.787.533.47.812 1.105.292.634.292 1.523 0 .89-.418 1.6-.407.711-1.13 1.206a5.5 5.5 0 0 1-1.664.761 7.1 7.1 0 0 1-2.018.28q-1.714 0-3.098-.483-1.371-.481-2.196-1.422m11.972-8.213v-2.501h2.082v-3.949h3.06v3.949h3.275v2.5h-3.276v5.333q0 1.04.356 1.6.355.558 1.13.558.723 0 1.155-.203.432-.217.825-.495l1.295 1.891q-.914.75-1.803 1.08-.876.33-1.968.33-1.116 0-1.904-.33a3.1 3.1 0 0 1-1.257-.915 3.7 3.7 0 0 1-.685-1.447 8 8 0 0 1-.203-1.866v-5.535zm10.93 3.453q0-1.346.445-2.501a6.1 6.1 0 0 1 1.27-2.006 6 6 0 0 1 1.954-1.358q1.143-.495 2.514-.496 1.663 0 2.818.61t1.854 1.6q.71.99 1.016 2.234.317 1.245.317 2.551v.432h-9.103q0 .674.305 1.232.305.546.774.939.483.381 1.092.597.622.203 1.219.203.888 0 1.549-.165.66-.178 1.117-.394a4.2 4.2 0 0 0 1.231-.876l1.663 1.88-.431.43q-.343.344-1.016.737-.66.394-1.688.698-1.028.318-2.45.318-1.46 0-2.654-.495a6.1 6.1 0 0 1-2.044-1.359 6 6 0 0 1-1.307-2.094q-.444-1.233-.445-2.717m3.06-1.143h5.98q0-.47-.178-.927a2.6 2.6 0 0 0-.534-.85 2.7 2.7 0 0 0-.9-.622A2.9 2.9 0 0 0 67.5 36.3q-.75 0-1.333.254-.584.24-.978.622a2.8 2.8 0 0 0-.609.85 2.3 2.3 0 0 0-.203.927m11.502 7.389V29h3.009v6.398q.47-.52 1.37-1.015.903-.495 2.299-.495 1.117 0 1.993.368.888.356 1.472 1.028.597.66.902 1.6.317.927.317 2.044v7.414H84.17v-7.389q0-1.169-.635-1.803t-1.65-.634q-.622 0-1.168.254-.546.24-.94.685-.394.431-.622 1.028-.216.585-.216 1.257v6.602zm13.749-6.246q0-1.346.444-2.501a6.1 6.1 0 0 1 1.27-2.006 6 6 0 0 1 1.955-1.358q1.143-.495 2.513-.496 1.665 0 2.819.61 1.155.61 1.853 1.6.711.99 1.016 2.234.317 1.245.317 2.551v.432h-9.102q0 .674.305 1.232.304.546.774.939.482.381 1.092.597.621.203 1.218.203.89 0 1.55-.165.66-.178 1.116-.394a4.2 4.2 0 0 0 1.232-.876l1.663 1.88-.432.43q-.343.344-1.015.737-.66.394-1.689.698-1.028.318-2.45.318-1.46 0-2.653-.495a6.1 6.1 0 0 1-2.044-1.359 6 6 0 0 1-1.308-2.094q-.444-1.233-.444-2.717m3.06-1.143h5.979q0-.47-.178-.927a2.6 2.6 0 0 0-.533-.85 2.7 2.7 0 0 0-.901-.622 2.9 2.9 0 0 0-1.245-.254q-.748 0-1.333.254-.584.24-.977.622a2.8 2.8 0 0 0-.61.85 2.3 2.3 0 0 0-.203.927m11.501 7.389v-12.2h2.933l.076 1.383q.23-.253.559-.545t.787-.534q.457-.24 1.028-.393.572-.165 1.295-.165 2.285 0 3.479 1.37 1.206 1.36 1.206 3.67v7.414h-3.073v-7.389q0-1.169-.634-1.803-.635-.634-1.651-.634a2.74 2.74 0 0 0-1.168.254 2.7 2.7 0 0 0-.939.685q-.394.431-.622 1.028-.216.585-.216 1.257v6.602zm-102.502 29V58h3.276v6.97h8.607V58h3.276v17.342H13.57v-7.465H4.964v7.465zm18.434-4.786v-7.414h3.06v7.388q0 1.168.634 1.816.647.635 1.664.635.62 0 1.168-.242a2.7 2.7 0 0 0 .926-.698q.394-.444.61-1.028a3.4 3.4 0 0 0 .228-1.257v-6.614h3.072v12.2H28.54l-.076-1.384q-.229.254-.571.546a5 5 0 0 1-.787.546q-.433.24-1.003.393-.572.153-1.308.153-2.286 0-3.479-1.359-1.193-1.371-1.193-3.681m13.775 3.3 1.84-1.993q.572.571 1.435.952.876.369 1.993.369.99 0 1.587-.254.597-.267.597-.864 0-.253-.102-.47-.102-.228-.444-.431-.33-.216-.927-.419a14 14 0 0 0-1.612-.444 11 11 0 0 1-1.308-.42 5.3 5.3 0 0 1-1.257-.71 4 4 0 0 1-.965-1.092q-.368-.648-.368-1.523 0-.914.432-1.625.444-.724 1.155-1.194a5.7 5.7 0 0 1 1.612-.736 6.4 6.4 0 0 1 1.816-.267q1.612 0 2.742.343 1.13.33 2.044 1.003L42.58 66.24q-.495-.368-1.307-.66-.8-.305-1.892-.305t-1.524.33q-.43.33-.431.788 0 .57.71.901.724.33 2.235.685a9 9 0 0 1 1.676.521q.736.318 1.27.787.533.47.812 1.105.292.634.292 1.523 0 .89-.419 1.6a3.65 3.65 0 0 1-1.13 1.206 5.5 5.5 0 0 1-1.663.761 7.1 7.1 0 0 1-2.019.28q-1.713 0-3.097-.483-1.37-.481-2.197-1.422m11.971-8.213v-2.501h2.082v-3.949h3.06v3.949h3.275v2.5H51.01v5.333q0 1.04.355 1.6.356.558 1.13.558.724 0 1.155-.203.432-.217.826-.495l1.294 1.891q-.914.75-1.802 1.08-.876.33-1.968.33-1.118 0-1.904-.33a3.1 3.1 0 0 1-1.257-.915 3.7 3.7 0 0 1-.686-1.447 8 8 0 0 1-.203-1.866v-5.535zm10.93 3.453q0-1.346.445-2.501a6.1 6.1 0 0 1 1.27-2.006 6 6 0 0 1 1.955-1.358q1.142-.495 2.513-.496 1.665 0 2.819.61 1.155.61 1.853 1.6a6.4 6.4 0 0 1 1.016 2.234q.317 1.245.317 2.552v.431h-9.102q0 .674.304 1.232.306.545.775.939.482.381 1.092.597.621.203 1.218.203.89 0 1.55-.165.66-.178 1.117-.394a4.2 4.2 0 0 0 1.23-.876l1.664 1.88-.432.43q-.343.345-1.015.737-.66.393-1.689.698-1.028.318-2.45.318-1.46 0-2.653-.495a6.1 6.1 0 0 1-2.044-1.359 6 6 0 0 1-1.308-2.094q-.444-1.233-.444-2.717m3.06-1.143h5.98q0-.47-.178-.927a2.6 2.6 0 0 0-.533-.85 2.7 2.7 0 0 0-.901-.622 2.9 2.9 0 0 0-1.245-.254q-.748 0-1.333.254-.584.24-.977.622a2.8 2.8 0 0 0-.61.85 2.3 2.3 0 0 0-.203.927m11.502 7.389v-12.2h2.933l.076 1.383a7 7 0 0 1 .559-.546 4 4 0 0 1 .787-.533q.456-.24 1.028-.393.572-.165 1.295-.165 2.285 0 3.479 1.37 1.206 1.36 1.206 3.67v7.414H79.65v-7.389q0-1.168-.634-1.803-.636-.634-1.65-.634-.623 0-1.169.253-.546.242-.94.686-.393.431-.621 1.028a3.6 3.6 0 0 0-.216 1.257v6.602zm14.575 0v-3.593h3.72v3.593z"/></svg>