<svg xmlns="http://www.w3.org/2000/svg" fill="none" viewBox="0 0 134 149"><path fill="#fff" d="m24.076 20.686.615-5.907h3.788l-1.9 5.907zm5.4 0 .616-5.907h3.787l-1.9 5.907zm7.89 0 .614-5.907h3.788l-1.9 5.907zm7.984-2.01V0h3.527v7.506h9.27V0h3.527v18.676h-3.527v-8.04h-9.27v8.04zM65.2 13.522V5.536h3.295v7.957q0 1.258.684 1.955.696.684 1.79.684.671 0 1.258-.26.588-.273.999-.752.422-.478.656-1.107.246-.629.246-1.354V5.537h3.308v13.139h-3.171l-.082-1.49q-.247.273-.616.587-.369.315-.847.588-.465.26-1.08.424t-1.409.164q-2.46 0-3.746-1.463-1.284-1.476-1.285-3.965m14.834 3.554 1.983-2.146q.615.615 1.544 1.025.944.397 2.147.397 1.065 0 1.709-.274.642-.287.642-.93 0-.273-.109-.505-.11-.248-.478-.465-.356-.233-.998-.451-.643-.233-1.737-.479-.67-.165-1.408-.451a5.7 5.7 0 0 1-1.353-.766 4.3 4.3 0 0 1-1.04-1.176q-.396-.696-.396-1.64 0-.985.465-1.75.479-.78 1.244-1.285a6.2 6.2 0 0 1 1.736-.793 6.9 6.9 0 0 1 1.955-.287q1.737 0 2.953.369a7 7 0 0 1 2.202 1.08l-1.71 2.324q-.533-.396-1.407-.71-.862-.33-2.038-.329-1.175 0-1.64.355-.465.356-.465.848 0 .615.766.97.78.357 2.406.74a10 10 0 0 1 1.805.56q.792.341 1.367.847.573.506.875 1.19.314.684.314 1.64 0 .958-.451 1.723a3.9 3.9 0 0 1-1.217 1.299 5.9 5.9 0 0 1-1.79.82q-1.026.3-2.175.301-1.845 0-3.336-.52-1.476-.519-2.365-1.53M92.928 8.23V5.537h2.242V1.285h3.295v4.252h3.527V8.23h-3.527v5.743q0 1.12.383 1.722.382.602 1.216.602.78 0 1.245-.219.464-.233.888-.533l1.395 2.037q-.985.807-1.942 1.162-.943.356-2.119.356-1.203 0-2.05-.356a3.3 3.3 0 0 1-1.354-.984 4 4 0 0 1-.738-1.559 8.7 8.7 0 0 1-.22-2.01v-5.96zm12.605 14.452 1.764-4.006h-1.422v-3.897h4.006v3.842l-2.379 4.06zM36.818 49.676V31h3.24v6.89q.507-.56 1.477-1.093.97-.534 2.475-.533 1.203 0 2.146.396a4.05 4.05 0 0 1 1.586 1.108q.643.711.97 1.722.343 1 .343 2.201v7.985h-3.309v-7.957q0-1.258-.684-1.942-.683-.683-1.777-.683-.67 0-1.258.273-.588.26-1.011.739-.424.464-.67 1.107-.233.63-.233 1.353v7.11zm15.368-5.154v-7.985h3.294v7.957q0 1.258.684 1.955.698.684 1.791.684.67 0 1.258-.26.588-.273.998-.752.423-.479.656-1.107.246-.629.246-1.354v-7.123h3.309v13.139H61.25l-.082-1.49q-.247.273-.615.587-.37.315-.848.588-.465.26-1.08.424-.615.165-1.408.164-2.461 0-3.746-1.463-1.285-1.476-1.285-3.964m14.833 3.554 1.983-2.146q.615.615 1.545 1.025.943.397 2.146.397 1.067 0 1.71-.274.642-.287.642-.93 0-.273-.11-.505-.109-.247-.478-.465-.356-.233-.998-.451-.642-.233-1.736-.479-.67-.165-1.409-.451a5.7 5.7 0 0 1-1.353-.766 4.3 4.3 0 0 1-1.04-1.175q-.395-.698-.396-1.641 0-.984.465-1.75.48-.78 1.244-1.285a6.2 6.2 0 0 1 1.737-.793 6.9 6.9 0 0 1 1.955-.287q1.736 0 2.953.369a7 7 0 0 1 2.201 1.08l-1.709 2.324q-.533-.396-1.408-.71-.861-.33-2.037-.329-1.175 0-1.64.355-.466.356-.466.848 0 .615.766.97.78.356 2.406.74a10 10 0 0 1 1.805.56q.793.341 1.367.847t.875 1.19q.314.684.314 1.64 0 .957-.45 1.723-.438.765-1.218 1.299a5.9 5.9 0 0 1-1.79.82q-1.026.3-2.174.301-1.846 0-3.336-.52-1.477-.519-2.366-1.53m12.893-8.846v-2.693h2.242v-4.252h3.295v4.252h3.528v2.694h-3.528v5.742q0 1.12.383 1.722.382.602 1.217.602.78 0 1.244-.219.465-.233.889-.533l1.394 2.037q-.984.807-1.941 1.162-.944.356-2.12.356-1.203 0-2.05-.356a3.3 3.3 0 0 1-1.354-.984 4 4 0 0 1-.738-1.559 8.7 8.7 0 0 1-.219-2.01v-5.96zm12.606 14.452 1.763-4.006H92.86v-3.897h4.006v3.842l-2.379 4.06zM36.982 80.676V62h3.24v6.89q.507-.56 1.477-1.093t2.475-.533q1.203 0 2.146.396a4.05 4.05 0 0 1 1.586 1.108q.643.711.971 1.722.342 1 .342 2.201v7.985H45.91v-7.957q0-1.258-.683-1.942-.684-.683-1.778-.683-.67 0-1.258.273-.588.26-1.011.739-.424.464-.67 1.107-.233.63-.233 1.353v7.11zm15.368-5.154v-7.985h3.294v7.957q0 1.258.684 1.955.697.684 1.791.684.67 0 1.258-.26.588-.273.998-.752.424-.479.656-1.107.246-.629.246-1.354v-7.123h3.309v13.139h-3.172l-.082-1.49q-.247.273-.615.587-.37.315-.848.588-.465.26-1.08.424-.615.165-1.408.164-2.461 0-3.746-1.463-1.285-1.476-1.285-3.965m14.834 3.554 1.982-2.146q.615.615 1.545 1.025.943.397 2.146.397 1.067 0 1.71-.274.642-.287.642-.93 0-.273-.11-.505-.109-.248-.478-.465-.356-.233-.998-.451-.642-.233-1.736-.479-.67-.165-1.409-.451a5.7 5.7 0 0 1-1.353-.766 4.3 4.3 0 0 1-1.04-1.175q-.395-.697-.395-1.641 0-.984.464-1.75.48-.78 1.244-1.285a6.2 6.2 0 0 1 1.737-.793 6.9 6.9 0 0 1 1.955-.287q1.736 0 2.953.369a7 7 0 0 1 2.201 1.08l-1.709 2.324q-.533-.396-1.408-.71-.861-.33-2.037-.329-1.175 0-1.64.355-.466.356-.466.848 0 .615.766.97.78.356 2.406.74a10 10 0 0 1 1.805.56q.793.341 1.367.847.575.506.875 1.19.315.683.315 1.64 0 .958-.452 1.723a3.9 3.9 0 0 1-1.216 1.299 5.9 5.9 0 0 1-1.791.82q-1.026.3-2.174.301-1.846 0-3.336-.52-1.477-.519-2.365-1.53m12.892-8.845v-2.694h2.242v-4.252h3.295v4.252h3.528v2.694h-3.528v5.742q0 1.12.383 1.722.382.602 1.217.602.78 0 1.244-.219a7 7 0 0 0 .889-.533l1.394 2.037q-.984.807-1.941 1.162-.945.356-2.12.356-1.202 0-2.05-.356a3.3 3.3 0 0 1-1.354-.984 4 4 0 0 1-.738-1.559 8.7 8.7 0 0 1-.219-2.01v-5.96zm12.1-2.297 1.914-5.907h2.488l-.615 5.907zm-55.07 43.742V98.537h3.158l.082 1.49a8 8 0 0 1 .601-.588q.356-.314.848-.574a5.3 5.3 0 0 1 1.107-.424q.615-.177 1.395-.177 2.461 0 3.746 1.476 1.299 1.463 1.299 3.951v7.985h-3.309v-7.957q0-1.258-.683-1.942-.684-.683-1.778-.683a2.95 2.95 0 0 0-1.258.273 2.9 2.9 0 0 0-1.011.738 3.5 3.5 0 0 0-.67 1.108q-.233.629-.233 1.353v7.11zm15.449-15.203V93h3.527v3.473zm.11 15.203V98.537h3.308v13.139zm6.083-6.576q0-1.422.52-2.694a6.8 6.8 0 0 1 1.435-2.228 6.9 6.9 0 0 1 2.229-1.518q1.298-.56 2.87-.56 1.6 0 2.913.574a6.9 6.9 0 0 1 2.242 1.545l-2.105 2.133a4 4 0 0 0-1.313-.998q-.752-.37-1.736-.37-.957 0-1.655.356a3.5 3.5 0 0 0-1.162.902q-.465.56-.697 1.313a5.5 5.5 0 0 0-.219 1.545q0 .752.22 1.49.231.724.696 1.312t1.162.957q.698.356 1.655.356a4.13 4.13 0 0 0 3.158-1.408l1.969 2.132a7.1 7.1 0 0 1-2.188 1.573q-1.257.588-2.94.588-1.68 0-3.007-.506-1.312-.506-2.215-1.422a6.4 6.4 0 0 1-1.367-2.215q-.465-1.299-.465-2.857m14.396 6.576V93h3.24v6.89q.507-.56 1.477-1.093t2.475-.533q1.203 0 2.146.396a4.05 4.05 0 0 1 1.586 1.108q.643.711.971 1.722.342.998.342 2.201v7.985h-3.309v-7.957q0-1.258-.683-1.942-.684-.683-1.778-.683a2.95 2.95 0 0 0-1.258.273 2.9 2.9 0 0 0-1.011.738q-.424.465-.67 1.108a3.9 3.9 0 0 0-.233 1.353v7.11zm14.301-10.446v-2.693h2.243v-4.252h3.294v4.252h3.528v2.693h-3.528v5.743q0 1.12.383 1.722t1.217.602q.78 0 1.244-.219.465-.233.889-.533l1.394 2.037q-.984.807-1.941 1.162-.943.356-2.12.356-1.202 0-2.05-.356a3.3 3.3 0 0 1-1.354-.984 4 4 0 0 1-.738-1.559 8.7 8.7 0 0 1-.219-2.01v-5.961zM0 136.291q0-1.45.52-2.734a6.5 6.5 0 0 1 1.476-2.243 7 7 0 0 1 2.338-1.503q1.38-.547 3.076-.547 1.71 0 3.145.287 1.45.273 2.351.574v12.77q0 1.367-.478 2.433a5 5 0 0 1-1.326 1.791 5.5 5.5 0 0 1-1.983 1.108 7.8 7.8 0 0 1-2.488.382q-1.04 0-1.832-.095a10 10 0 0 1-1.436-.274 6.31 6.31 0 0 1-2.105-.998l1.476-2.433q.78.533 1.696.765.915.233 2.146.233 1.285 0 2.147-.78.875-.779.875-2.187v-1.422a6.2 6.2 0 0 1-1.477.916q-.793.342-2.105.342-1.422 0-2.53-.479a5.6 5.6 0 0 1-1.9-1.326 5.9 5.9 0 0 1-1.19-2.023Q0 137.686 0 136.291m3.35-.082q0 1.518.752 2.557.765 1.025 2.447 1.025 1.518 0 2.283-.643t.766-2.05v-4.703a5 5 0 0 0-.82-.206q-.41-.068-1.3-.068-1.01 0-1.777.342-.752.328-1.285.889a3.7 3.7 0 0 0-.807 1.312 4.6 4.6 0 0 0-.26 1.545m12.181-.26q0-1.45.479-2.693.492-1.245 1.367-2.16a6.5 6.5 0 0 1 2.105-1.463q1.23-.534 2.707-.533 1.792 0 3.036.656t1.996 1.723q.766 1.066 1.093 2.406.342 1.34.342 2.748v.465h-9.802q0 .725.328 1.326.327.588.834 1.012a4.1 4.1 0 0 0 1.175.642 4.2 4.2 0 0 0 1.313.219q.957 0 1.668-.178a7 7 0 0 0 1.203-.424 4.5 4.5 0 0 0 1.326-.943l1.791 2.023-.465.465q-.369.37-1.093.793-.71.424-1.819.752-1.108.342-2.638.342-1.573 0-2.858-.533a6.6 6.6 0 0 1-2.201-1.463 6.4 6.4 0 0 1-1.408-2.256q-.48-1.326-.479-2.926m3.295-1.23h6.44q0-.506-.192-.998a2.8 2.8 0 0 0-.574-.916 2.9 2.9 0 0 0-.97-.67 3.1 3.1 0 0 0-1.34-.274q-.807 0-1.436.274-.63.26-1.053.67a3 3 0 0 0-.656.916 2.5 2.5 0 0 0-.219.998m11.13-2.489v-2.693h2.228v-.807q0-1.421.45-2.419.451-.999 1.15-1.627a4.2 4.2 0 0 1 1.558-.903 5.5 5.5 0 0 1 1.723-.287q.902 0 1.982.26 1.093.246 2.105 1.107l-1.545 2.188q-.45-.314-.97-.506a2.9 2.9 0 0 0-1.04-.191q-.984 0-1.558.628-.574.63-.574 1.805v.752h3.39v2.693h-3.363v10.446h-3.308V132.23zm10.718 5.291v-7.984h3.295v7.957q0 1.258.683 1.955.698.684 1.791.684a3.1 3.1 0 0 0 1.258-.26q.588-.273.998-.752.425-.478.657-1.107.245-.63.246-1.354v-7.123h3.308v13.139h-3.172l-.082-1.49q-.246.273-.615.587-.37.315-.848.588a4.6 4.6 0 0 1-1.08.424q-.615.165-1.408.164-2.461 0-3.746-1.463-1.285-1.476-1.285-3.965m15.476 5.155v-13.139h3.159l.082 1.49a8 8 0 0 1 .601-.588q.356-.314.848-.574a5.3 5.3 0 0 1 1.107-.424q.615-.177 1.395-.177 2.461 0 3.746 1.476 1.299 1.463 1.299 3.951v7.985h-3.309v-7.957q0-1.258-.684-1.942-.683-.683-1.777-.683a2.95 2.95 0 0 0-1.258.273q-.588.26-1.011.738-.424.466-.67 1.108-.233.629-.233 1.353v7.11zm14.807-6.33q0-1.545.438-2.694.45-1.161 1.12-1.982.56-.67 1.231-1.121a8.3 8.3 0 0 1 1.367-.738 6.2 6.2 0 0 1 1.326-.424 6 6 0 0 1 1.122-.123q.642 0 1.066.041.423.04.752.109.342.068.615.191l.643.247V124h3.281v18.676h-3.2l-.081-1.285q-.247.273-.615.588-.356.3-.848.56a6 6 0 0 1-1.094.41 4.8 4.8 0 0 1-1.353.178q-1.067 0-2.106-.451a5.7 5.7 0 0 1-1.86-1.313q-.805-.875-1.312-2.133-.492-1.257-.492-2.884m3.322 0q0 1.682.834 2.802.848 1.122 2.448 1.122.834 0 1.421-.315.602-.328.957-.834.37-.505.534-1.107t.164-1.162v-4.034a2.7 2.7 0 0 0-1.108-.547q-.628-.15-1.6-.15-.984 0-1.626.383a3.8 3.8 0 0 0-1.121.984 4.5 4.5 0 0 0-.67 1.313 5.1 5.1 0 0 0-.233 1.545m12.264-.397q0-1.45.478-2.693.493-1.245 1.368-2.16a6.5 6.5 0 0 1 2.105-1.463q1.23-.534 2.707-.533 1.791 0 3.035.656t1.996 1.723q.765 1.066 1.094 2.406.342 1.34.342 2.748v.465h-9.803q0 .725.328 1.326.33.588.834 1.012a4.1 4.1 0 0 0 1.176.642 4.2 4.2 0 0 0 1.313.219q.957 0 1.668-.178a7 7 0 0 0 1.203-.424 4.5 4.5 0 0 0 1.326-.943l1.79 2.023-.464.465q-.368.37-1.094.793-.711.424-1.818.752-1.107.342-2.639.342-1.572 0-2.857-.533a6.6 6.6 0 0 1-2.201-1.463 6.4 6.4 0 0 1-1.409-2.256q-.478-1.326-.478-2.926m3.295-1.23h6.44q0-.506-.192-.998a2.8 2.8 0 0 0-.574-.916 2.9 2.9 0 0 0-.971-.67 3.1 3.1 0 0 0-1.34-.274q-.807 0-1.435.274-.63.26-1.053.67a3 3 0 0 0-.656.916 2.5 2.5 0 0 0-.22.998m12.387 7.957v-13.139h3.158l.082 1.49q.246-.273.601-.588.356-.314.848-.574a5.3 5.3 0 0 1 1.107-.424 5 5 0 0 1 1.395-.177q2.461 0 3.746 1.476 1.299 1.463 1.299 3.951v7.985h-3.309v-7.957q0-1.258-.683-1.942t-1.778-.683q-.669 0-1.257.273-.589.26-1.012.738a3.5 3.5 0 0 0-.67 1.108q-.232.629-.232 1.353v7.11zm15.695 0v-3.869h4.006v3.869zm7.41-12.182V124h3.131v6.494zm4.758 0V124h3.131v6.494z"/></svg>