<svg xmlns="http://www.w3.org/2000/svg" fill="none" viewBox="0 0 151 45"><path fill="#000" d="M4.635 13.603h5.653V16H.699v-1.878L6.173 7.65H.839V5.253h9.27V7.13zm15.304-8.35h3.116V16H20.08v-1.239c-.78.94-1.918 1.399-3.356 1.399-3.036 0-5.374-2.158-5.374-5.534s2.338-5.533 5.374-5.533c1.318 0 2.437.42 3.216 1.298zm-2.677 8.35c1.538 0 2.737-1.119 2.737-2.977S18.801 7.65 17.262 7.65c-1.558 0-2.757 1.119-2.757 2.976 0 1.858 1.2 2.977 2.757 2.977M31.476 7.11 29.239 8.79V16h-3.117v-4.874l-1.098.819-1.159-1.558 2.257-1.698V1.178h3.117V6.33l1.098-.819zm4.178-3.236L38.351.998h3.356L38.09 3.874zm1.858 12.286c-3.416 0-5.913-2.297-5.913-5.534s2.497-5.533 5.913-5.533 5.893 2.297 5.893 5.533-2.477 5.534-5.893 5.534m0-2.557c1.558 0 2.737-1.119 2.737-2.977S39.07 7.65 37.512 7.65s-2.757 1.119-2.757 2.976c0 1.858 1.199 2.977 2.757 2.977m11.895-9.829c-.98 0-1.678-.719-1.678-1.698 0-.958.699-1.678 1.678-1.678.978 0 1.678.72 1.678 1.678 0 .98-.7 1.698-1.678 1.698m-.86 9.829h5.654V16h-9.589v-1.878l5.474-6.472h-5.334V5.253h9.27V7.13zm20.56-3.636L72.982 16h-3.536l-3.036-4.655h-1.438V16h-3.117V1.178h3.117v7.79h1.438l2.877-3.715h3.475zm9.84 6.193c-3.416 0-5.913-2.297-5.913-5.534s2.497-5.533 5.913-5.533 5.893 2.297 5.893 5.533-2.477 5.534-5.893 5.534m0-2.557c1.558 0 2.737-1.119 2.737-2.977S80.505 7.65 78.947 7.65s-2.757 1.119-2.757 2.976c0 1.858 1.2 2.977 2.757 2.977m14.768-8.51c2.537 0 4.455 1.478 4.455 4.754V16h-3.116v-5.673c0-1.738-.8-2.537-2.178-2.537-1.498 0-2.577.919-2.577 2.896V16h-3.116V7.65h-1.199V5.253h3.696l.16 1.678c.819-1.199 2.217-1.838 3.875-1.838m12.927 8.19.819 2.198c-.639.46-1.578.679-2.517.679-2.557 0-4.015-1.299-4.015-3.856V2.875h3.116v2.378h2.657V7.63h-2.657v4.634c0 .92.48 1.419 1.319 1.419.459 0 .918-.14 1.278-.4m7.362 2.877c-3.416 0-5.913-2.297-5.913-5.534s2.497-5.533 5.913-5.533c3.415 0 5.893 2.297 5.893 5.533s-2.478 5.534-5.893 5.534m0-2.557c1.558 0 2.736-1.119 2.736-2.977s-1.178-2.976-2.736-2.976-2.757 1.119-2.757 2.976c0 1.858 1.198 2.977 2.757 2.977M2.996 27.755c-1.158 0-1.937-.76-1.937-1.738 0-.98.779-1.738 1.937-1.738 1.16 0 1.938.719 1.938 1.678 0 1.038-.779 1.797-1.938 1.797M1.438 40V29.253h3.117V40zM16.3 37.603h5.654V40h-9.589v-1.878l5.474-6.472h-5.334v-2.397h9.269v1.878zm15.442-8.35h3.116v8.95c0 3.994-2.098 5.832-5.853 5.832-1.978 0-3.896-.5-5.114-1.478l1.238-2.237c.88.739 2.278 1.198 3.636 1.198 2.078 0 2.977-.979 2.977-2.916v-.36c-.82.82-1.938 1.239-3.177 1.239-2.697 0-4.594-1.499-4.594-4.835v-5.393h3.116v4.934c0 1.818.8 2.617 2.178 2.617 1.438 0 2.477-.92 2.477-2.897zm9.636 10.907c-1.818 0-3.655-.5-4.654-1.159l1.039-2.237c.959.62 2.417 1.039 3.735 1.039 1.439 0 1.978-.38 1.978-.98 0-1.757-6.492.04-6.492-4.254 0-2.038 1.837-3.476 4.974-3.476 1.478 0 3.116.34 4.135.939l-1.039 2.217a6.2 6.2 0 0 0-3.096-.799c-1.399 0-1.998.44-1.998.999 0 1.838 6.492.06 6.492 4.295 0 1.998-1.858 3.416-5.074 3.416m14.249-6.193L59.502 40h-3.536l-3.036-4.654H51.49V40h-3.116V25.177h3.116v7.791h1.439l2.876-3.715h3.476zm12.517-4.714h3.116V40h-2.976v-1.239c-.78.94-1.918 1.399-3.356 1.399-3.037 0-5.374-2.158-5.374-5.534s2.337-5.533 5.374-5.533c1.318 0 2.437.42 3.216 1.298zm-2.677 8.35c1.538 0 2.737-1.119 2.737-2.977s-1.199-2.976-2.737-2.976c-1.558 0-2.757 1.119-2.757 2.976 0 1.858 1.199 2.977 2.757 2.977m10.358-9.849c-1.158 0-1.937-.759-1.937-1.738 0-.978.779-1.737 1.937-1.737 1.159 0 1.938.719 1.938 1.678 0 1.038-.779 1.797-1.938 1.797m-2.137 16.281c-.86 0-1.618-.18-2.237-.6l.839-2.256c.32.24.639.38 1.058.38.54 0 .92-.38.92-1.16V29.254h3.115V40.22c0 2.357-1.338 3.815-3.695 3.815m18.954-14.942c2.537 0 4.455 1.478 4.455 4.754V40h-3.116v-5.673c0-1.738-.8-2.537-2.178-2.537-1.498 0-2.577.919-2.577 2.896V40H86.11v-8.35h-1.198v-2.397h3.695l.16 1.678c.819-1.199 2.217-1.838 3.875-1.838m15.143.16h3.116V40h-2.977v-1.239c-.779.94-1.917 1.399-3.356 1.399-3.036 0-5.373-2.158-5.373-5.534s2.337-5.533 5.373-5.533c1.319 0 2.438.42 3.217 1.298zm-2.677 8.35c1.538 0 2.737-1.119 2.737-2.977s-1.199-2.976-2.737-2.976c-1.558 0-2.757 1.119-2.757 2.976 0 1.858 1.199 2.977 2.757 2.977m23.103-8.35h2.757L127.072 40h-2.996l-2.417-6.672L119.162 40h-2.997l-3.875-10.747h2.936l2.537 7.271 2.637-7.271h2.637l2.557 7.271zm13.641 5.413c0 .24-.04.58-.06.84h-8.131c.3 1.338 1.439 2.157 3.077 2.157 1.138 0 1.957-.34 2.696-1.039l1.658 1.798c-.998 1.139-2.497 1.738-4.434 1.738-3.716 0-6.133-2.337-6.133-5.534 0-3.216 2.457-5.533 5.733-5.533 3.156 0 5.594 2.117 5.594 5.573m-5.574-3.216c-1.418 0-2.437.86-2.657 2.238h5.294c-.22-1.359-1.238-2.238-2.637-2.238m13.302 5.833.819 2.198c-.64.46-1.578.679-2.517.679-2.557 0-4.016-1.299-4.016-3.856v-9.429h3.117v2.378h2.657v2.377h-2.657v4.634c0 .92.479 1.419 1.318 1.419.46 0 .919-.14 1.279-.4"/></svg>