<svg viewBox="0 0 134 62" fill="none" xmlns="http://www.w3.org/2000/svg">
<path d="M124.533 37.8598L122.108 39.678V47.4923H118.732V42.2106L117.541 43.0981L116.286 41.4097L118.732 39.5698V31.4308H122.108V37.0156L123.299 36.1281L124.533 37.8598Z" fill="black"/>
<path d="M110.16 44.8948H116.286V47.4923H105.896V45.4576L111.827 38.4442H106.048V35.8467H116.091V37.8814L110.16 44.8948Z" fill="black"/>
<path d="M78.274 48.0366C70.4732 48.0366 64.6679 42.0952 64.6679 31.6185C64.6679 21.1417 70.4732 15.2004 78.274 15.2004C86.1203 15.2004 91.8802 21.1417 91.8802 31.6185C91.8802 42.0952 86.1203 48.0366 78.274 48.0366ZM78.274 41.8231C81.9477 41.8231 84.4875 38.8297 84.4875 31.6185C84.4875 24.4072 81.9477 21.4139 78.274 21.4139C74.6457 21.4139 72.1059 24.4072 72.1059 31.6185C72.1059 38.8297 74.6457 41.8231 78.274 41.8231Z" fill="{{ lineData.priceColor }}"/>
<path d="M47.9848 41.5056H61.6363V47.4923H37.6441V42.7302L49.8896 31.1649C52.7016 28.4891 53.2005 26.8563 53.2005 25.3143C53.2005 22.8198 51.477 21.3685 48.1208 21.3685C45.3996 21.3685 43.0866 22.4116 41.5445 24.5433L36.1928 21.0964C38.6419 17.5134 43.0866 15.2004 48.8011 15.2004C55.8763 15.2004 60.5931 18.8287 60.5931 24.5886C60.5931 27.6727 59.7314 30.4846 55.2867 34.6118L47.9848 41.5056Z" fill="{{ lineData.priceColor }}"/>
<path d="M21.2331 41.5056H34.8846V47.4923H10.8924V42.7302L23.1379 31.1649C25.9499 28.4891 26.4488 26.8563 26.4488 25.3143C26.4488 22.8198 24.7253 21.3685 21.3691 21.3685C18.6479 21.3685 16.3349 22.4116 14.7928 24.5433L9.44109 21.0964C11.8902 17.5134 16.3349 15.2004 22.0495 15.2004C29.1247 15.2004 33.8415 18.8287 33.8415 24.5886C33.8415 27.6727 32.9797 30.4846 28.5351 34.6118L21.2331 41.5056Z" fill="{{ lineData.priceColor }}"/>
</svg>
