<svg xmlns="http://www.w3.org/2000/svg" fill="none" viewBox="0 0 160 20"><path fill="#fff" d="M5 5.338v9.783c0 .873.909 1.404 1.606.938l7.333-4.89c.652-.436.652-1.443 0-1.878L6.606 4.4C5.91 3.934 5 4.465 5 5.338"/><path fill="#fff" d="M22.917 7.31c0-1.077-.677-1.72-1.637-1.72-.819 0-1.558.755-1.558 1.623 0 .835.55 1.317 1.684 1.687 2.519.819 3.448 1.783 3.448 3.839 0 2.153-1.512 3.598-3.574 3.598-2.078 0-3.558-1.51-3.59-3.743h1.701c.016 1.286.756 2.153 1.89 2.153s1.873-.835 1.873-2.008c0-.868-.378-1.414-1.622-1.847-2.88-.996-3.51-1.96-3.51-3.647A3.24 3.24 0 0 1 21.28 4c1.92 0 3.306 1.237 3.337 3.31z"/><path fill="#fff" d="M33.654 15.984c-.237.129-1.323.353-2.11.353-3.605 0-5.903-2.907-5.903-6.168C25.64 6.747 28.16 4 31.639 4c.834 0 1.432.145 2.015.353v1.784c-.567-.386-1.181-.547-2.047-.547-2.55 0-4.266 2.024-4.266 4.547 0 2.602 1.81 4.61 4.298 4.61.677 0 1.338-.177 2.015-.578z"/><path fill="#fff" d="m40.622 16.113-3.841-5.51h-.032v5.51h-1.7V4.225h3.73c2.803 0 4.046 1.51 4.046 3.952 0 2.265-1.7 3.454-3.337 3.502l3.259 4.434zm-2.63-5.751c1.984 0 3.133-.788 3.133-2.33 0-1.365-1.07-2.217-2.581-2.217h-1.795v4.546z"/><path fill="#fff" d="M44.04 16.113V4.225h6.28v1.59h-4.58v3.502h4.58v1.59h-4.58v3.615h4.58v1.59z"/><path fill="#fff" d="M51.898 16.113V4.225h6.28v1.59h-4.58v3.502h4.58v1.59h-4.58v3.615h4.58v1.59z"/><path fill="#fff" d="m67.315 16.113-5.761-9.19h-.032v9.19h-1.7V4.225h1.857l5.668 9.044h.031V4.225h1.7v11.888z"/><path fill="#fff" d="M71.091 16.113V4.225h1.7v11.888z"/><path fill="#fff" d="m82.259 16.113-5.762-9.19h-.031v9.19h-1.7V4.225h1.857l5.667 9.044h.032V4.225h1.7v11.888z"/><path fill="#fff" d="M90.035 11.791v-1.59h7.368c-.11 3.952-3.038 6.136-6.14 6.136-3.148 0-5.84-2.795-5.84-6.008C85.423 6.474 88.32 4 91.263 4 93.5 4 95.42 5.076 96.6 7.213h-1.984c-.992-1.157-1.983-1.623-3.274-1.623-2.267 0-4.219 2.185-4.219 4.53 0 2.507 1.936 4.627 4.282 4.627 1.842 0 3.322-1.044 4.061-2.956z"/><path fill="#fff" d="m107.398 16.113-2.692-3.84h-.031v3.84h-2.849V4.225h3.809c1.212 0 2.141.16 2.755.434 1.259.578 2.141 1.976 2.141 3.662 0 1.88-1.102 3.422-2.897 3.743l3.165 4.049zm-1.621-5.912c1.181 0 1.905-.562 1.905-1.703 0-1.028-.756-1.607-1.874-1.607h-1.133v3.31z"/><path fill="#fff" d="M111.245 10.442c0-3.679 2.597-6.442 6.139-6.442 3.4 0 6.155 2.683 6.155 6.089 0 3.518-2.676 6.248-6.013 6.248-3.243 0-6.281-2.377-6.281-5.895m9.319-.257c0-1.864-1.307-3.518-3.18-3.518-1.858 0-3.164 1.59-3.164 3.47 0 1.96 1.306 3.534 3.211 3.534 1.842 0 3.133-1.59 3.133-3.486"/><path fill="#fff" d="M124.225 10.442c0-3.679 2.597-6.442 6.139-6.442 3.4 0 6.155 2.683 6.155 6.089 0 3.518-2.676 6.248-6.013 6.248-3.243 0-6.281-2.377-6.281-5.895m9.319-.257c0-1.864-1.307-3.518-3.18-3.518-1.857 0-3.164 1.59-3.164 3.47 0 1.96 1.307 3.534 3.211 3.534 1.842 0 3.133-1.59 3.133-3.486"/><path fill="#fff" d="m152.584 16.113-4.518-7.085h-.031v7.085h-2.472l-4.864-7.085h-.032v7.085h-2.975V4.225h2.944l4.392 6.538h.031V4.225h2.944L156 16.113z"/></svg>