<svg xmlns="http://www.w3.org/2000/svg" fill="none" viewBox="0 0 198 74"><path fill="#fff" d="M4.071 7.247H1.058c-.299 0-.506-.046-.598-.138q-.138-.138-.138-.552V4.832c0-.276.046-.483.138-.575s.276-.138.598-.138h9.913c.299 0 .506.046.598.138s.138.299.138.575v1.725c0 .276-.069.46-.161.552s-.299.138-.575.138H7.958v11.017c0 .299-.069.506-.161.598q-.172.138-.69.138H4.922q-.552 0-.69-.138c-.115-.092-.161-.299-.161-.598zm10.859 5.221v1.794c0 .897.138 1.472.414 1.748.207.23.529.322.966.322h.092c.414 0 .736-.092.966-.322.276-.276.414-.851.414-1.748v-1.794c0-.874-.138-1.472-.414-1.748-.23-.207-.552-.322-.966-.322h-.092c-.437 0-.76.115-.966.322-.276.276-.414.874-.414 1.748m6.555.138v1.495c0 1.15-.115 2.024-.345 2.668a3.3 3.3 0 0 1-1.104 1.541c-.76.598-1.932.897-3.542.897h-.276c-1.61 0-2.806-.299-3.542-.897a3.3 3.3 0 0 1-1.104-1.541c-.23-.644-.345-1.518-.345-2.668v-1.472c0-1.127.115-2.001.345-2.645s.598-1.15 1.104-1.564c.736-.598 1.932-.897 3.542-.897h.276c1.61 0 2.783.299 3.542.897.506.414.874.92 1.104 1.541.23.644.345 1.518.345 2.645m4.798-3.887c.805-.782 1.955-1.196 3.427-1.196h.207c1.426 0 2.438.414 3.06 1.196.551.736.827 1.978.827 3.772v1.725c0 .966-.092 1.771-.23 2.369-.16.598-.437 1.104-.828 1.495-.782.759-1.84 1.127-3.22 1.127h-.253q-1.311 0-2.139-.483v3.542c0 .345-.069.575-.184.667-.138.092-.39.138-.782.138H24.42c-.39 0-.644-.046-.782-.161-.138-.092-.184-.322-.184-.644v-13.8c0-.276.046-.46.184-.575.115-.092.322-.161.621-.161h.966c.276 0 .483.046.598.092.092.069.184.207.253.391l.161.506zm.851 3.266v2.944c0 .529.092.897.322 1.104.207.207.552.299 1.035.299h.207c.53 0 .897-.138 1.127-.46q.276-.414.276-2.001v-.989c0-1.104-.092-1.794-.276-2.047-.23-.276-.598-.414-1.15-.414h-.16c-.507 0-.852.115-1.082.345-.207.207-.299.621-.299 1.219m11.986.483v1.794c0 .897.138 1.472.414 1.748.207.23.53.322.966.322h.092c.414 0 .736-.092.966-.322.276-.276.414-.851.414-1.748v-1.794c0-.874-.138-1.472-.414-1.748-.23-.207-.552-.322-.966-.322H40.5c-.437 0-.759.115-.966.322-.276.276-.414.874-.414 1.748m6.555.138v1.495c0 1.15-.115 2.024-.345 2.668a3.3 3.3 0 0 1-1.104 1.541c-.759.598-1.932.897-3.542.897h-.276c-1.61 0-2.806-.299-3.542-.897a3.3 3.3 0 0 1-1.104-1.541c-.23-.644-.345-1.518-.345-2.668v-1.472c0-1.127.115-2.001.345-2.645s.598-1.15 1.104-1.564c.736-.598 1.932-.897 3.542-.897h.276c1.61 0 2.783.299 3.542.897.506.414.874.92 1.104 1.541.23.644.345 1.518.345 2.645m7.858-4.324h1.978c.322 0 .552.046.667.138s.207.276.253.552c0 .092.414 2.139 1.219 6.118h.069c.414-2.415.782-4.646 1.08-6.716.024-.253.093-.414.185-.506q.138-.138.483-.138h2.346c.253 0 .414.069.506.161.069.115.092.299.046.529-.368 1.794-.828 3.772-1.334 5.934s-.874 3.519-1.104 4.094c-.092.23-.207.391-.322.46s-.3.092-.53.092h-2.53c-.482 0-.781-.161-.873-.529-.437-1.564-.805-3.542-1.127-5.934h-.092a63 63 0 0 1-1.15 5.934c-.092.368-.368.529-.828.529H49.99c-.46 0-.76-.161-.874-.506-.23-.621-.621-2.047-1.173-4.255s-.966-4.14-1.288-5.819c-.07-.253-.046-.437.046-.529s.276-.161.552-.161h2.254c.23 0 .414.046.529.138.092.092.16.276.207.506.322 2.139.69 4.37 1.127 6.716h.092c.552-2.852.943-4.899 1.127-6.118.046-.299.115-.483.23-.575.115-.069.345-.115.713-.115M69.2 16.24h.253c.782 0 1.61-.092 2.438-.299a3 3 0 0 1 .437-.069c.23 0 .368.138.414.391l.184 1.15c.046.322.092.529.092.621 0 .276-.207.483-.598.621-1.058.368-2.231.552-3.473.552h-.437q-2.829 0-4.002-1.173a3.3 3.3 0 0 1-.92-1.564c-.161-.598-.23-1.403-.23-2.392V12.79c0-2.001.46-3.404 1.38-4.232.782-.69 1.978-1.035 3.61-1.035h.323c1.61 0 2.783.391 3.473 1.15.736.828 1.104 2.185 1.104 4.117v1.196c0 .437-.23.644-.667.644h-5.52v.184c0 .552.138.92.46 1.127.299.207.85.299 1.679.299m-2.14-4.002h2.53c.185 0 .277-.092.277-.299v-.368c0-.46-.092-.805-.23-1.058-.184-.276-.552-.414-1.058-.414h-.207c-.46 0-.782.115-.966.322q-.345.414-.345 1.242zm16.81 2.3v3.795c0 .23-.07.414-.184.506-.115.115-.322.161-.598.161h-2.116c-.3 0-.506-.046-.621-.161-.115-.092-.161-.276-.161-.506V4.096c0-.23.046-.391.16-.506.116-.092.323-.161.622-.161h2.116c.276 0 .483.069.598.161.115.115.184.276.184.506v7.498h.16l2.186-3.335c.207-.345.529-.529.966-.529h2.668c.253 0 .39.092.39.276 0 .092-.068.253-.183.437l-2.645 3.956c-.207.322-.3.552-.3.69 0 .161.093.391.3.69l2.829 4.462c.092.184.138.299.138.391 0 .253-.161.368-.483.368h-2.553c-.322 0-.575-.023-.713-.115q-.207-.104-.414-.483l-2.185-3.864zm13.734.345V8.397c0-.23.046-.391.16-.506.116-.092.323-.161.622-.161h2.116c.276 0 .483.069.598.161.115.115.184.276.184.506v6.808q0 2.105-1.035 3.036c-.736.644-2.024.966-3.91.966s-3.197-.322-3.91-.966q-1.035-.931-1.035-3.036V8.397c0-.23.046-.391.16-.506.116-.092.323-.161.622-.161h2.116c.276 0 .483.069.598.161.115.115.184.276.184.506v6.486c0 .529.069.874.253 1.058.184.207.506.299 1.012.299.483 0 .828-.092 1.012-.299.16-.184.253-.529.253-1.058m8.753-5.911h.069c.506-.828 1.357-1.242 2.576-1.242h.92c.23 0 .414.046.506.138s.161.253.161.506v1.679c0 .253-.046.414-.138.506q-.138.138-.483.138h-.69c-.851 0-1.426.161-1.748.483-.276.276-.391.805-.391 1.587v5.566c0 .23-.069.414-.184.506-.115.115-.322.161-.598.161h-2.116c-.299 0-.506-.046-.621-.161-.115-.092-.161-.276-.161-.506V8.374c0-.23.046-.391.161-.483s.322-.161.621-.161h1.104c.253 0 .437.046.552.115q.172.138.276.414zm5.293 2.461v-.299c0-1.127.299-1.978.897-2.576.69-.69 1.863-1.035 3.496-1.035h.23c1.288 0 2.415.138 3.358.414q.276.104.345.207c.046.092.069.207.046.391l-.253 1.886c-.046.299-.253.391-.621.299-.92-.207-1.748-.322-2.438-.322h-.023c-.506 0-.874.046-1.058.138-.207.092-.299.253-.299.483v.069c0 .23.069.391.253.483s.529.207 1.058.299l1.081.23c.989.23 1.702.575 2.116 1.035s.621 1.173.621 2.116v.345c0 2.415-1.518 3.611-4.508 3.611h-.23c-1.518 0-2.783-.207-3.841-.621-.207-.069-.345-.161-.391-.276-.046-.092-.046-.276 0-.529l.322-1.518c.069-.437.322-.575.782-.437 1.058.368 1.978.529 2.76.529h.069c.506 0 .851-.046 1.058-.161.184-.092.299-.276.299-.529v-.069a.49.49 0 0 0-.253-.437q-.276-.138-1.104-.345l-1.012-.23q-1.518-.345-2.139-1.035c-.414-.46-.621-1.15-.621-2.116m20.473-3.013c-.322 2.162-.92 4.554-1.794 7.199a49 49 0 0 1-3.243 7.498c-.161.322-.368.483-.644.483-.184 0-.391-.046-.667-.184l-1.173-.506c-.414-.184-.598-.368-.598-.575 0-.092.023-.23.115-.391.782-1.587 1.242-2.507 1.334-2.76-.644-.23-1.127-.736-1.495-1.564-.414-.92-.897-2.323-1.426-4.255q-.794-2.898-1.173-4.968c-.046-.23-.023-.391.092-.506.115-.092.322-.161.598-.161h2.093c.253 0 .437.046.552.115s.207.207.253.437c.529 2.898 1.127 5.474 1.794 7.705h.115c.644-1.84 1.242-4.37 1.794-7.636q.035-.345.207-.483c.115-.092.299-.138.529-.138h2.116c.253 0 .437.069.529.161s.115.276.092.529m12.218-.138h1.978c.322 0 .552.046.667.138s.207.276.253.552c0 .092.414 2.139 1.219 6.118h.069c.414-2.415.782-4.646 1.081-6.716.023-.253.092-.414.184-.506q.138-.138.483-.138h2.346c.253 0 .414.069.506.161.069.115.092.299.046.529-.368 1.794-.828 3.772-1.334 5.934s-.874 3.519-1.104 4.094c-.092.23-.207.391-.322.46s-.299.092-.529.092h-2.53c-.483 0-.782-.161-.874-.529-.437-1.564-.805-3.542-1.127-5.934h-.092a63 63 0 0 1-1.15 5.934c-.092.368-.368.529-.828.529H140.8c-.46 0-.759-.161-.874-.506-.23-.621-.621-2.047-1.173-4.255s-.966-4.14-1.288-5.819c-.069-.253-.046-.437.046-.529s.276-.161.552-.161h2.254c.23 0 .414.046.529.138.092.092.161.276.207.506.322 2.139.69 4.37 1.127 6.716h.092c.552-2.852.943-4.899 1.127-6.118.046-.299.115-.483.23-.575.115-.069.345-.115.713-.115m16.662 9.775h-.046c-.506.782-1.518 1.15-3.013 1.15h-.345c-1.173 0-2.093-.299-2.737-.897-.667-.598-.989-1.495-.989-2.645v-.253c0-1.242.345-2.139 1.058-2.645s1.863-.759 3.473-.759h.161c.598 0 1.15.046 1.61.092v-.483c0-.483-.138-.828-.391-1.012-.276-.161-.736-.253-1.38-.253-.782 0-1.656.138-2.668.391-.276.069-.483.069-.575 0-.115-.069-.184-.207-.207-.437l-.184-1.219c-.046-.207-.046-.368-.046-.46 0-.276.184-.483.552-.598a14.8 14.8 0 0 1 3.933-.506c1.771 0 3.036.391 3.772 1.127.575.598.874 1.564.874 2.875v6.831c0 .23-.069.414-.184.506s-.322.138-.598.138h-1.081c-.276 0-.46-.023-.575-.092s-.207-.207-.276-.437zm-.828-2.944v-.644q-.38-.069-1.104-.069h-.253q-.828 0-1.173.207c-.23.138-.322.414-.322.828v.092c0 .414.092.69.322.828.207.161.529.23.966.23h.161c.46 0 .805-.115 1.081-.345.207-.184.322-.575.322-1.127m9.977.897h.736c.23 0 .414.069.506.161.092.115.161.322.161.621v1.426c0 .322-.069.529-.161.621-.092.115-.276.161-.506.161h-1.748c-1.15 0-1.955-.207-2.415-.667-.46-.437-.69-1.219-.69-2.323V4.096c0-.23.046-.391.161-.506.115-.092.322-.161.621-.161h2.116c.276 0 .483.069.598.161.115.115.184.276.184.506v11.477c0 .184.023.299.092.345.046.069.161.092.345.092m8.963-1.127V8.397c0-.23.046-.391.161-.506.115-.092.322-.161.621-.161h2.116c.276 0 .483.069.598.161.115.115.184.276.184.506v6.808q0 2.105-1.035 3.036c-.736.644-2.024.966-3.91.966s-3.197-.322-3.91-.966q-1.035-.931-1.035-3.036V8.397c0-.23.046-.391.161-.506.115-.092.322-.161.621-.161h2.116c.276 0 .483.069.598.161.115.115.184.276.184.506v6.486c0 .529.069.874.253 1.058.184.207.506.299 1.012.299.483 0 .828-.092 1.012-.299.161-.184.253-.529.253-1.058m13.054 1.955v1.311c0 .345-.069.575-.161.69s-.299.161-.575.161h-1.84c-1.656 0-2.76-.276-3.266-.851-.46-.483-.667-1.403-.667-2.783v-4.761h-1.242c-.23 0-.368-.023-.46-.115s-.115-.23-.115-.46V8.857c0-.276.023-.46.115-.552.069-.092.23-.161.483-.23l1.219-.299V5.522c0-.23.046-.391.161-.506.115-.092.322-.161.621-.161h2.116c.276 0 .483.069.598.161.115.115.184.276.184.506V7.73h1.909c.23 0 .368.046.46.138s.138.253.138.529v1.541q0 .414-.138.552c-.092.092-.23.115-.46.115h-1.909v4.347c0 .414.046.667.184.805.138.161.437.23.897.23h1.012c.276 0 .483.069.575.184s.161.345.161.667M4.899 36.397v9.936c0 .23-.069.414-.184.506-.115.115-.322.161-.598.161H2.001c-.299 0-.506-.046-.621-.161-.115-.092-.161-.276-.161-.506v-9.936c0-.23.046-.391.161-.506.115-.092.322-.161.621-.161h2.116c.276 0 .483.069.598.161.115.115.184.276.184.506m-1.702-1.541h-.276c-1.242 0-1.863-.621-1.863-1.909v-.115c0-1.265.621-1.909 1.863-1.909h.276c1.242 0 1.863.644 1.863 1.909v.115c0 1.288-.621 1.909-1.863 1.909m12.752 7.682v3.795c0 .23-.07.414-.184.506-.115.115-.322.161-.598.161H13.05c-.3 0-.506-.046-.621-.161-.115-.092-.161-.276-.161-.506V32.096c0-.23.046-.391.16-.506.116-.092.323-.161.622-.161h2.116c.276 0 .483.069.598.161.115.115.184.276.184.506v7.498h.16l2.186-3.335c.207-.345.529-.529.966-.529h2.668c.253 0 .39.092.39.276 0 .092-.068.253-.183.437l-2.645 3.956c-.207.322-.3.552-.3.69 0 .161.093.391.3.69l2.829 4.462c.092.184.138.299.138.391 0 .253-.161.368-.483.368h-2.553c-.322 0-.575-.023-.713-.115q-.207-.104-.414-.483l-2.185-3.864zm10.84-2.07v1.794c0 .897.138 1.472.414 1.748.207.23.53.322.966.322h.092c.414 0 .736-.092.966-.322.276-.276.414-.851.414-1.748v-1.794c0-.874-.138-1.472-.414-1.748-.23-.207-.552-.322-.966-.322h-.092c-.437 0-.759.115-.966.322-.276.276-.414.874-.414 1.748m6.555.138v1.495c0 1.15-.115 2.024-.345 2.668a3.3 3.3 0 0 1-1.104 1.541c-.759.598-1.932.897-3.542.897h-.276c-1.61 0-2.806-.299-3.542-.897a3.3 3.3 0 0 1-1.104-1.541c-.23-.644-.345-1.518-.345-2.668v-1.472c0-1.127.115-2.001.345-2.645s.598-1.15 1.104-1.564c.736-.598 1.932-.897 3.542-.897h.276c1.61 0 2.783.299 3.542.897.506.414.874.92 1.104 1.541.23.644.345 1.518.345 2.645m8.042-5.083h.184c1.334 0 2.323.322 2.92.943.553.598.852 1.61.852 3.036v6.831c0 .23-.07.414-.184.506-.115.115-.322.161-.598.161h-2.116c-.3 0-.506-.046-.621-.161-.115-.092-.161-.276-.161-.506v-6.509c0-.506-.092-.874-.253-1.058-.184-.184-.53-.299-1.012-.299h-.138c-.506 0-.828.115-1.012.299s-.253.552-.253 1.058v6.509c0 .23-.07.414-.184.506-.115.115-.322.161-.598.161h-2.116c-.3 0-.506-.046-.621-.161-.115-.092-.161-.276-.161-.506v-9.959c0-.23.046-.391.16-.483.116-.092.323-.161.622-.161h1.08c.277 0 .46.046.576.115q.173.104.276.414l.138.437h.069c.736-.782 1.77-1.173 3.15-1.173m13.345 9.315v1.311c0 .345-.069.575-.16.69-.093.115-.3.161-.576.161h-1.84c-1.656 0-2.76-.276-3.266-.851-.46-.483-.667-1.403-.667-2.783v-4.761H46.98c-.23 0-.368-.023-.46-.115s-.115-.23-.115-.46v-1.173c0-.276.023-.46.115-.552.07-.092.23-.161.483-.23l1.22-.299v-2.254c0-.23.045-.391.16-.506.115-.092.322-.161.621-.161h2.116c.276 0 .483.069.598.161.115.115.184.276.184.506v2.208h1.91c.23 0 .367.046.46.138.091.092.137.253.137.529v1.541q0 .414-.138.552c-.092.092-.23.115-.46.115h-1.909v4.347c0 .414.046.667.184.805.138.161.437.23.897.23h1.012c.276 0 .483.069.575.184s.161.345.161.667m5.076-4.37v1.794c0 .897.138 1.472.414 1.748.207.23.529.322.966.322h.092c.414 0 .736-.092.966-.322.276-.276.414-.851.414-1.748v-1.794c0-.874-.138-1.472-.414-1.748-.23-.207-.552-.322-.966-.322h-.092c-.437 0-.76.115-.966.322-.276.276-.414.874-.414 1.748m6.555.138v1.495c0 1.15-.115 2.024-.345 2.668a3.3 3.3 0 0 1-1.104 1.541c-.76.598-1.932.897-3.542.897h-.276c-1.61 0-2.806-.299-3.542-.897a3.3 3.3 0 0 1-1.104-1.541c-.23-.644-.345-1.518-.345-2.668v-1.472c0-1.127.115-2.001.345-2.645s.598-1.15 1.104-1.564c.736-.598 1.932-.897 3.542-.897h.276c1.61 0 2.783.299 3.542.897.506.414.874.92 1.104 1.541.23.644.345 1.518.345 2.645m10.705-1.955H73.41c-.23 0-.391-.023-.483-.115-.093-.092-.116-.276-.116-.552v-1.587c0-.276.023-.437.115-.529q.14-.138.483-.138h7.774c.23 0 .391.046.506.138.093.092.162.276.162.529v.437c0 .598-.184 1.15-.507 1.633l-3.956 5.612h3.933c.23 0 .368.046.46.138s.138.253.138.529v1.587q0 .414-.138.552c-.092.092-.23.115-.46.115H73.41c-.483 0-.713-.207-.713-.667v-.529c0-.598.162-1.127.507-1.633zm13.05 7.406h-.046c-.506.782-1.518 1.15-3.013 1.15h-.345c-1.173 0-2.093-.299-2.737-.897-.667-.598-.99-1.495-.99-2.645v-.253c0-1.242.346-2.139 1.059-2.645s1.863-.759 3.473-.759h.16c.599 0 1.15.046 1.61.092v-.483c0-.483-.137-.828-.39-1.012-.276-.161-.736-.253-1.38-.253-.782 0-1.656.138-2.668.391-.276.069-.483.069-.575 0-.115-.069-.184-.207-.207-.437l-.184-1.219c-.046-.207-.046-.368-.046-.46 0-.276.184-.483.552-.598a14.8 14.8 0 0 1 3.933-.506c1.77 0 3.036.391 3.772 1.127.575.598.874 1.564.874 2.875v6.831c0 .23-.07.414-.184.506-.115.092-.322.138-.598.138h-1.081c-.276 0-.46-.023-.575-.092s-.207-.207-.276-.437zm-.828-2.944v-.644q-.38-.069-1.104-.069h-.253q-.828 0-1.173.207c-.23.138-.322.414-.322.828v.092c0 .414.092.69.322.828.207.161.529.23.966.23h.16c.46 0 .806-.115 1.082-.345.207-.184.322-.575.322-1.127m24.99-6.389v2.436c0 2.632-.56 4.648-1.652 6.02-1.12 1.4-2.968 2.072-5.544 2.072s-4.424-.672-5.544-2.072c-1.12-1.372-1.652-3.388-1.652-6.02v-2.436c0-2.632.532-4.62 1.652-6.02 1.12-1.372 2.968-2.072 5.544-2.072s4.424.7 5.544 2.072c1.092 1.4 1.652 3.388 1.652 6.02m-4.788 1.96V37.2c0-1.82-.168-3.08-.448-3.752s-.924-1.036-1.904-1.036h-.112c-1.008.028-1.652.364-1.932 1.036s-.42 1.932-.42 3.752v1.484c0 1.848.14 3.08.42 3.752s.924 1.036 1.932 1.036h.112c.98 0 1.624-.336 1.904-1.008s.448-1.932.448-3.78m17.776-1.848h-4.452c-.28 0-.476-.028-.588-.14s-.14-.336-.14-.672v-1.932c0-.336.028-.532.14-.644q.168-.168.588-.168h9.464c.28 0 .476.056.616.168.112.112.196.336.196.644v.532c0 .728-.224 1.4-.616 1.988l-4.816 6.832h4.788c.28 0 .448.056.56.168s.168.308.168.644v1.932q0 .504-.168.672c-.112.112-.28.14-.56.14h-9.632c-.588 0-.868-.252-.868-.812v-.644c0-.728.196-1.372.616-1.988zm13.62 6.524h.896c.28 0 .504.084.616.196.112.14.196.392.196.756v1.736c0 .392-.084.644-.196.756-.112.14-.336.196-.616.196h-2.128c-1.4 0-2.38-.252-2.94-.812-.56-.532-.84-1.484-.84-2.828v-3.024l-.924.588c-.364.224-.616.336-.728.336-.224 0-.308-.168-.308-.504v-2.604c0-.28.028-.476.14-.616.084-.112.252-.28.532-.476l1.288-.812v-7.392c0-.28.056-.476.196-.616.14-.112.392-.196.756-.196h2.576c.336 0 .588.084.728.196.14.14.224.336.224.616v4.536l1.26-.812c.336-.224.588-.336.728-.336.196 0 .308.168.308.504v2.604c0 .28-.056.504-.14.616-.112.14-.28.308-.532.476l-1.624 1.036v5.348c0 .224.028.364.112.42.056.084.196.112.42.112M4.853 62.985v2.944c0 .529.092.897.322 1.104.184.207.529.299 1.035.299h.207c.529 0 .897-.138 1.127-.46q.276-.414.276-2.001v-.989c0-1.15-.115-1.863-.299-2.093-.207-.23-.598-.368-1.15-.368h-.092c-.529 0-.897.115-1.127.345-.207.207-.299.621-.299 1.219m0-3.841h.046q1-.621 2.622-.621h.207c1.38 0 2.392.414 3.013 1.242.506.713.782 1.978.782 3.795v1.656c0 1.84-.391 3.128-1.173 3.841-.828.782-2.139 1.15-3.933 1.15h-.46c-1.886 0-3.174-.368-3.864-1.127-.621-.667-.92-1.748-.92-3.266V55.096c0-.23.046-.391.161-.506.092-.092.299-.161.598-.161h2.139c.276 0 .483.069.598.161.115.115.184.276.184.506zm14.125 8.096h.253c.782 0 1.61-.092 2.438-.299a3 3 0 0 1 .437-.069c.23 0 .368.138.414.391l.184 1.15c.046.322.092.529.092.621 0 .276-.207.483-.598.621-1.058.368-2.23.552-3.473.552h-.437q-2.829 0-4.002-1.173a3.3 3.3 0 0 1-.92-1.564c-.16-.598-.23-1.403-.23-2.392V63.79c0-2.001.46-3.404 1.38-4.232.782-.69 1.978-1.035 3.611-1.035h.322c1.61 0 2.783.391 3.473 1.15.736.828 1.104 2.185 1.104 4.117v1.196c0 .437-.23.644-.667.644h-5.52v.184c0 .552.138.92.46 1.127.3.207.851.299 1.68.299m-2.139-4.002h2.53c.184 0 .276-.092.276-.299v-.368c0-.46-.092-.805-.23-1.058-.184-.276-.552-.414-1.058-.414h-.207c-.46 0-.782.115-.966.322q-.345.414-.345 1.242zm11.892-1.587h-3.657c-.23 0-.391-.023-.483-.115s-.115-.276-.115-.552v-1.587c0-.276.023-.437.115-.529q.138-.138.483-.138h7.774c.23 0 .39.046.506.138.092.092.16.276.16.529v.437c0 .598-.183 1.15-.505 1.633l-3.956 5.612h3.933c.23 0 .368.046.46.138s.138.253.138.529v1.587q0 .414-.138.552c-.092.092-.23.115-.46.115h-7.912c-.483 0-.713-.207-.713-.667v-.529c0-.598.16-1.127.506-1.633zm17.277-2.369h1.978c.322 0 .552.046.667.138s.207.276.253.552c0 .092.414 2.139 1.22 6.118h.068c.414-2.415.782-4.646 1.081-6.716.023-.253.092-.414.184-.506q.138-.138.483-.138h2.346c.253 0 .414.069.506.161.07.115.092.299.046.529-.368 1.794-.828 3.772-1.334 5.934s-.874 3.519-1.104 4.094c-.092.23-.207.391-.322.46s-.299.092-.529.092h-2.53c-.483 0-.782-.161-.874-.529-.437-1.564-.805-3.542-1.127-5.934h-.092a63 63 0 0 1-1.15 5.934c-.092.368-.368.529-.828.529h-2.484c-.46 0-.759-.161-.874-.506-.23-.621-.62-2.047-1.173-4.255-.552-2.208-.966-4.14-1.288-5.819-.069-.253-.046-.437.046-.529s.276-.161.552-.161h2.254c.23 0 .414.046.53.138.091.092.16.276.206.506.322 2.139.69 4.37 1.127 6.716h.092c.552-2.852.943-4.899 1.127-6.118.046-.299.115-.483.23-.575.115-.069.345-.115.713-.115m16.662 9.775h-.046c-.506.782-1.518 1.15-3.013 1.15h-.345c-1.173 0-2.093-.299-2.737-.897-.667-.598-.99-1.495-.99-2.645v-.253c0-1.242.346-2.139 1.059-2.645s1.863-.759 3.473-.759h.16c.599 0 1.15.046 1.61.092v-.483c0-.483-.137-.828-.39-1.012-.276-.161-.736-.253-1.38-.253-.782 0-1.656.138-2.668.391-.276.069-.483.069-.575 0-.115-.069-.184-.207-.207-.437l-.184-1.219c-.046-.207-.046-.368-.046-.46 0-.276.184-.483.552-.598a14.8 14.8 0 0 1 3.933-.506c1.77 0 3.036.391 3.772 1.127.575.598.874 1.564.874 2.875v6.831c0 .23-.07.414-.184.506-.115.092-.322.138-.598.138h-1.081c-.276 0-.46-.023-.575-.092s-.207-.207-.276-.437zm-.828-2.944v-.644q-.38-.069-1.104-.069h-.253q-.828 0-1.173.207c-.23.138-.322.414-.322.828v.092c0 .414.092.69.322.828.207.161.529.23.966.23h.16c.46 0 .806-.115 1.082-.345.207-.184.322-.575.322-1.127m8.758-6.141h.07c.505-.828 1.356-1.242 2.575-1.242h.92c.23 0 .414.046.506.138s.161.253.161.506v1.679c0 .253-.046.414-.138.506q-.138.138-.483.138h-.69c-.85 0-1.426.161-1.748.483-.276.276-.39.805-.39 1.587v5.566c0 .23-.07.414-.185.506-.115.115-.322.161-.598.161h-2.116c-.299 0-.506-.046-.62-.161-.116-.092-.162-.276-.162-.506v-9.959c0-.23.046-.391.161-.483s.322-.161.621-.161h1.104c.253 0 .437.046.552.115q.172.138.276.414zm11.642 5.911v-6.486c0-.23.045-.391.16-.506.115-.092.323-.161.621-.161h2.117c.275 0 .483.069.597.161.116.115.184.276.184.506v6.808q0 2.105-1.035 3.036c-.736.644-2.023.966-3.91.966-1.885 0-3.197-.322-3.91-.966q-1.035-.931-1.035-3.036v-6.808c0-.23.046-.391.161-.506.116-.092.323-.161.622-.161h2.116c.275 0 .482.069.597.161.115.115.184.276.184.506v6.486c0 .529.07.874.254 1.058.183.207.505.299 1.011.299.484 0 .829-.092 1.013-.299.16-.184.252-.529.252-1.058m11.927-7.36h.184c1.334 0 2.323.322 2.92.943.553.598.852 1.61.852 3.036v6.831c0 .23-.07.414-.184.506-.115.115-.322.161-.598.161h-2.116c-.3 0-.506-.046-.621-.161-.115-.092-.161-.276-.161-.506v-6.509c0-.506-.092-.874-.253-1.058-.184-.184-.53-.299-1.012-.299h-.138c-.506 0-.828.115-1.012.299s-.253.552-.253 1.058v6.509c0 .23-.07.414-.184.506-.115.115-.322.161-.598.161h-2.116c-.3 0-.506-.046-.621-.161-.115-.092-.161-.276-.161-.506v-9.959c0-.23.046-.391.16-.483.116-.092.323-.161.622-.161h1.08c.277 0 .46.046.576.115q.172.104.276.414l.138.437h.069c.736-.782 1.77-1.173 3.15-1.173m9.827 7.015v3.795c0 .23-.069.414-.184.506-.115.115-.322.161-.598.161h-2.116c-.299 0-.506-.046-.621-.161-.115-.092-.161-.276-.161-.506V55.096c0-.23.046-.391.161-.506.115-.092.322-.161.621-.161h2.116c.276 0 .483.069.598.161.115.115.184.276.184.506v7.498h.161l2.185-3.335c.207-.345.529-.529.966-.529h2.668c.253 0 .391.092.391.276 0 .092-.069.253-.184.437l-2.645 3.956c-.207.322-.299.552-.299.69 0 .161.092.391.299.69l2.829 4.462c.092.184.138.299.138.391 0 .253-.161.368-.483.368h-2.553c-.322 0-.575-.023-.713-.115q-.207-.104-.414-.483l-2.185-3.864zm10.84-2.07v1.794c0 .897.138 1.472.414 1.748.207.23.529.322.966.322h.092c.414 0 .736-.092.966-.322.276-.276.414-.851.414-1.748v-1.794c0-.874-.138-1.472-.414-1.748-.23-.207-.552-.322-.966-.322h-.092c-.437 0-.759.115-.966.322-.276.276-.414.874-.414 1.748m6.555.138v1.495c0 1.15-.115 2.024-.345 2.668a3.3 3.3 0 0 1-1.104 1.541c-.759.598-1.932.897-3.542.897h-.276c-1.61 0-2.806-.299-3.542-.897a3.3 3.3 0 0 1-1.104-1.541c-.23-.644-.345-1.518-.345-2.668v-1.472c0-1.127.115-2.001.345-2.645s.598-1.15 1.104-1.564c.736-.598 1.932-.897 3.542-.897h.276c1.61 0 2.783.299 3.542.897.506.414.874.92 1.104 1.541.23.644.345 1.518.345 2.645m-7.015-7.912 3.611-3.082a.64.64 0 0 1 .437-.207c.161 0 .322.115.46.299l1.104 1.426a.68.68 0 0 1 .138.391c0 .184-.138.368-.368.552l-3.634 2.484a.8.8 0 0 1-.46.161c-.184 0-.368-.092-.552-.322l-.69-.805c-.184-.207-.253-.391-.253-.529s.069-.276.207-.368m14.873 3.588h1.978c.322 0 .552.046.667.138s.207.276.253.552c0 .092.414 2.139 1.219 6.118h.069c.414-2.415.782-4.646 1.081-6.716.023-.253.092-.414.184-.506q.138-.138.482-.138h2.347c.253 0 .414.069.506.161.069.115.092.299.046.529-.368 1.794-.828 3.772-1.334 5.934s-.874 3.519-1.104 4.094c-.092.23-.207.391-.322.46s-.299.092-.529.092h-2.53c-.483 0-.782-.161-.874-.529-.437-1.564-.805-3.542-1.127-5.934h-.092a63 63 0 0 1-1.15 5.934c-.092.368-.368.529-.828.529h-2.484c-.46 0-.759-.161-.874-.506-.23-.621-.621-2.047-1.173-4.255s-.966-4.14-1.288-5.819c-.069-.253-.046-.437.046-.529s.276-.161.552-.161h2.253c.231 0 .415.046.53.138.092.092.161.276.207.506.322 2.139.69 4.37 1.127 6.716h.092c.552-2.852.943-4.899 1.127-6.118.046-.299.115-.483.23-.575.115-.069.345-.115.713-.115"/></svg>