<svg xmlns="http://www.w3.org/2000/svg" fill="none" viewBox="0 0 254 55"><path fill="#fff" d="M4.002 14.719c.805-.782 1.955-1.196 3.427-1.196h.207c1.426 0 2.438.414 3.059 1.196.552.736.828 1.978.828 3.772v1.725c0 .966-.092 1.771-.23 2.369-.161.598-.437 1.104-.828 1.495-.782.759-1.84 1.127-3.22 1.127h-.253q-1.311 0-2.139-.483v3.542c0 .345-.069.575-.184.667-.138.092-.391.138-.782.138H2.139c-.391 0-.644-.046-.782-.161-.138-.092-.184-.322-.184-.644v-13.8c0-.276.046-.46.184-.575.115-.092.322-.161.621-.161h.966c.276 0 .483.046.598.092.092.069.184.207.253.391l.161.506zm.851 3.266v2.944c0 .529.092.897.322 1.104.207.207.552.299 1.035.299h.207c.529 0 .897-.138 1.127-.46q.276-.414.276-2.001v-.989c0-1.104-.092-1.794-.276-2.047-.23-.276-.598-.414-1.15-.414h-.161c-.506 0-.851.115-1.081.345-.207.207-.299.621-.299 1.219m12.768 4.025h.736c.23 0 .414.069.506.161.092.115.161.322.161.621v1.426c0 .322-.069.529-.16.621-.093.115-.277.161-.507.161H16.61c-1.15 0-1.955-.207-2.415-.667-.46-.437-.69-1.219-.69-2.323V10.096c0-.23.046-.391.161-.506.115-.092.322-.161.621-.161h2.116c.276 0 .483.069.598.161.115.115.184.276.184.506v11.477c0 .184.023.299.092.345.046.069.161.092.345.092m8.962-1.127v-6.486c0-.23.046-.391.161-.506.115-.092.322-.161.621-.161h2.116c.276 0 .483.069.598.161.115.115.184.276.184.506v6.808q0 2.104-1.035 3.036c-.736.644-2.024.966-3.91.966s-3.197-.322-3.91-.966q-1.035-.931-1.035-3.036v-6.808c0-.23.046-.391.161-.506.115-.092.322-.161.621-.161h2.116c.276 0 .483.069.598.161.115.115.184.276.184.506v6.486c0 .529.07.874.253 1.058.184.207.506.299 1.012.299.483 0 .828-.092 1.012-.299.161-.184.253-.529.253-1.058m5.557-3.45v-.299c0-1.127.299-1.978.897-2.576.69-.69 1.863-1.035 3.496-1.035h.23c1.288 0 2.415.138 3.358.414q.276.104.345.207c.046.092.069.207.046.391l-.253 1.886c-.046.299-.253.391-.621.299-.92-.207-1.748-.322-2.438-.322h-.023c-.506 0-.874.046-1.058.138-.207.092-.3.253-.3.483v.069c0 .23.07.391.254.483s.529.207 1.058.299l1.08.23c.99.23 1.703.575 2.117 1.035s.62 1.173.62 2.116v.345c0 2.415-1.517 3.611-4.507 3.611h-.23c-1.518 0-2.783-.207-3.841-.621-.207-.069-.345-.161-.391-.276-.046-.092-.046-.276 0-.529l.322-1.518c.069-.437.322-.575.782-.437 1.058.368 1.978.529 2.76.529h.069c.506 0 .85-.046 1.058-.161.184-.092.299-.276.299-.529v-.069a.49.49 0 0 0-.253-.437q-.276-.138-1.104-.345l-1.012-.23q-1.518-.345-2.14-1.035c-.413-.46-.62-1.15-.62-2.116m20.49 4.577h.737c.23 0 .414.069.506.161.092.115.16.322.16.621v1.426c0 .322-.068.529-.16.621-.092.115-.276.161-.506.161h-1.748c-1.15 0-1.955-.207-2.415-.667-.46-.437-.69-1.219-.69-2.323v-2.484l-.76.483c-.298.184-.505.276-.597.276-.184 0-.253-.138-.253-.414v-2.139c0-.23.023-.391.115-.506.069-.092.207-.23.437-.391l1.058-.667v-6.072c0-.23.046-.391.16-.506.116-.092.323-.161.622-.161h2.116c.276 0 .483.069.598.161.115.115.184.276.184.506v3.726l1.035-.667c.276-.184.483-.276.598-.276.16 0 .253.138.253.414v2.139c0 .23-.046.414-.115.506-.092.115-.23.253-.437.391l-1.334.851v4.393c0 .184.023.299.092.345.046.069.16.092.345.092m9.568 2.047h-.046c-.506.782-1.518 1.15-3.013 1.15h-.345c-1.173 0-2.093-.299-2.737-.897-.667-.598-.99-1.495-.99-2.645v-.253c0-1.242.346-2.139 1.059-2.645s1.863-.759 3.473-.759h.16c.599 0 1.15.046 1.61.092v-.483c0-.483-.137-.828-.39-1.012-.276-.161-.736-.253-1.38-.253-.782 0-1.656.138-2.668.391-.276.069-.483.069-.575 0-.115-.069-.184-.207-.207-.437l-.184-1.219c-.046-.23-.046-.391-.046-.46 0-.276.184-.483.552-.598a14.8 14.8 0 0 1 3.933-.506c1.77 0 3.036.391 3.772 1.127.575.598.874 1.564.874 2.875v6.831c0 .345-.138.552-.368.644-.575.23-1.058.552-1.426.966-.391.414-.575.851-.575 1.288v.069q0 .621.62.621h.07c.276 0 .62-.046.989-.184.115-.023.207-.046.276-.046.115 0 .207.115.276.299l.115.483c.069.322.115.483.115.529 0 .138-.115.253-.322.345a5.2 5.2 0 0 1-1.863.345h-.138c-.782 0-1.403-.161-1.817-.506s-.621-.828-.621-1.426v-.115c0-.552.184-1.081.575-1.587.368-.506.874-.92 1.472-1.242zm-.828-2.944v-.644q-.38-.069-1.104-.069h-.253q-.828 0-1.173.207c-.23.138-.322.414-.322.828v.092c0 .414.092.69.322.828.207.161.529.23.966.23h.16c.46 0 .806-.115 1.082-.345.207-.184.322-.575.322-1.127m11.24 1.127h.184a7.2 7.2 0 0 0 2.002-.299 3 3 0 0 1 .436-.069c.23 0 .368.138.415.391l.206 1.173c.047.322.093.529.093.621 0 .276-.207.483-.599.621-1.011.368-2.115.529-3.311.529h-.276c-1.657 0-2.876-.368-3.635-1.15q-1.172-1.173-1.172-3.933V18.79c0-1.081.091-1.932.275-2.53a3.6 3.6 0 0 1 .898-1.518c.804-.805 2.07-1.219 3.794-1.219h.23c1.38 0 2.576.253 3.542.759.277.161.438.345.438.575 0 .138-.07.368-.184.69l-.437 1.104q-.172.414-.484.414a.94.94 0 0 1-.413-.115c-.736-.299-1.426-.46-2.047-.46h-.093c-.597 0-1.034.161-1.31.437-.346.345-.507 1.058-.507 2.116v.782c0 .943.138 1.587.46 1.932.3.322.806.483 1.496.483m8.904-5.589h-3.657c-.23 0-.391-.023-.483-.115s-.115-.276-.115-.552v-1.587c0-.276.023-.437.115-.529q.138-.138.483-.138h7.774c.23 0 .39.046.506.138.092.092.16.276.16.529v.437c0 .598-.183 1.15-.505 1.633l-3.956 5.612h3.933c.23 0 .368.046.46.138s.138.253.138.529v1.587q0 .414-.138.552c-.092.092-.23.115-.46.115h-7.912c-.483 0-.713-.207-.713-.667v-.529c0-.598.16-1.127.506-1.633zm12.475-3.128h.184c1.334 0 2.323.322 2.921.943.552.598.851 1.61.851 3.036v6.831c0 .23-.069.414-.184.506-.115.115-.322.161-.598.161h-2.116c-.299 0-.506-.046-.62-.161-.116-.092-.162-.276-.162-.506v-6.509c0-.506-.092-.874-.253-1.058-.184-.184-.529-.299-1.012-.299h-.138c-.506 0-.828.115-1.012.299s-.253.552-.253 1.058v6.509c0 .23-.069.414-.184.506-.115.115-.322.161-.598.161H88.7c-.299 0-.506-.046-.62-.161-.116-.092-.162-.276-.162-.506v-9.959c0-.23.046-.391.161-.483s.322-.161.621-.161h1.081c.276 0 .46.046.575.115q.172.104.276.414l.138.437h.07c.735-.782 1.77-1.173 3.15-1.173m9.873.874v9.936c0 .23-.069.414-.184.506-.115.115-.322.161-.598.161h-2.116c-.299 0-.506-.046-.621-.161-.115-.092-.161-.276-.161-.506v-9.936c0-.23.046-.391.161-.506.115-.092.322-.161.621-.161h2.116c.276 0 .483.069.598.161.115.115.184.276.184.506m-1.702-1.541h-.276c-1.242 0-1.863-.621-1.863-1.909v-.115c0-1.265.621-1.909 1.863-1.909h.276c1.242 0 1.863.644 1.863 1.909v.115c0 1.288-.621 1.909-1.863 1.909m9.559 9.384h.253c.782 0 1.61-.092 2.438-.299a3 3 0 0 1 .437-.069c.23 0 .368.138.414.391l.184 1.15c.046.322.092.529.092.621 0 .276-.207.483-.598.621-1.058.368-2.231.552-3.473.552h-.437q-2.829 0-4.002-1.173a3.3 3.3 0 0 1-.92-1.564c-.161-.598-.23-1.403-.23-2.392V18.79c0-2.001.46-3.404 1.38-4.232.782-.69 1.978-1.035 3.611-1.035h.322c1.61 0 2.783.391 3.473 1.15.736.828 1.104 2.185 1.104 4.117v1.196c0 .437-.23.644-.667.644h-5.52v.184c0 .552.138.92.46 1.127.299.207.851.299 1.679.299m-2.139-4.002h2.53c.184 0 .276-.092.276-.299v-.368c0-.46-.092-.805-.23-1.058-.184-.276-.552-.414-1.058-.414h-.207c-.46 0-.782.115-.966.322q-.345.414-.345 1.242zm19.684-3.15h.224c.896 0 1.652-.168 2.296-.504v-.392c0-1.54-.168-2.576-.476-3.108s-.868-.812-1.708-.812h-.252q-2.1 0-2.1 2.268v.252c0 .84.14 1.428.476 1.764.336.364.84.532 1.54.532m-5.068 9.352c-.336-.112-.476-.308-.476-.644q0-.168.084-.504l.448-1.792c.112-.448.448-.616.952-.476 1.344.42 2.52.616 3.528.616h.084c1.008 0 1.708-.252 2.156-.812q.672-.798.756-2.52c-.924.392-1.932.56-3.024.56h-.308c-1.988 0-3.416-.476-4.312-1.484-.896-.98-1.316-2.492-1.316-4.508v-.392c0-1.792.532-3.22 1.624-4.284 1.092-1.036 2.688-1.568 4.788-1.568h.392c2.52 0 4.312.672 5.32 1.96s1.54 3.416 1.54 6.384v.672c0 1.596-.14 2.968-.42 4.144s-.644 2.128-1.092 2.8a5.06 5.06 0 0 1-1.708 1.652c-.672.42-1.344.7-2.016.812-.672.14-1.456.196-2.324.196h-.028c-1.624 0-3.192-.252-4.648-.812m33.177-8.176v7.924c0 .28-.084.504-.224.616-.14.14-.392.196-.728.196h-2.576c-.364 0-.616-.056-.756-.196-.14-.112-.196-.336-.196-.616v-7.924c0-.616-.112-1.064-.308-1.288-.224-.224-.644-.364-1.232-.364h-.056c-.616 0-1.008.14-1.232.364s-.308.672-.308 1.288v7.924c0 .28-.084.504-.224.616-.14.14-.392.196-.728.196h-2.576c-.364 0-.616-.056-.756-.196-.14-.112-.196-.336-.196-.616V12.064c0-.28.056-.476.196-.588s.392-.196.756-.196h1.316c.336 0 .56.056.7.14q.21.126.336.504l.168.532h.084c.896-.952 2.156-1.428 3.836-1.428h.112c1.596 0 2.828.448 3.696 1.288.896-.84 2.184-1.288 3.808-1.288h.112c1.624 0 2.828.392 3.556 1.148.672.728 1.036 1.96 1.036 3.696v8.316c0 .28-.084.504-.224.616-.14.14-.392.196-.728.196h-2.576c-.364 0-.616-.056-.756-.196-.14-.112-.196-.336-.196-.616v-7.924c0-.616-.112-1.064-.308-1.288-.224-.224-.644-.364-1.232-.364h-.056c-.616 0-1.008.14-1.232.364s-.308.672-.308 1.288m14.807-4.172v12.096c0 .28-.084.504-.224.616-.14.14-.392.196-.728.196h-2.576c-.364 0-.616-.056-.756-.196-.14-.112-.196-.336-.196-.616V12.092c0-.28.056-.476.196-.616.14-.112.392-.196.756-.196h2.576c.336 0 .588.084.728.196.14.14.224.336.224.616m-2.072-1.876h-.336c-1.512 0-2.268-.756-2.268-2.324v-.14c0-1.54.756-2.324 2.268-2.324h.336c1.512 0 2.268.784 2.268 2.324v.14c0 1.568-.756 2.324-2.268 2.324m11.637 11.424h.308c.952 0 1.96-.112 2.968-.364.28-.056.448-.084.532-.084.28 0 .448.168.504.476l.224 1.4c.056.392.112.644.112.756 0 .336-.252.588-.728.756-1.288.448-2.716.672-4.228.672h-.532q-3.444 0-4.872-1.428a4 4 0 0 1-1.12-1.904c-.196-.728-.28-1.708-.28-2.912V17.44c0-2.436.56-4.144 1.68-5.152.952-.84 2.408-1.26 4.396-1.26h.392c1.96 0 3.388.476 4.228 1.4.896 1.008 1.344 2.66 1.344 5.012v1.456c0 .532-.28.784-.812.784h-6.72v.224c0 .672.168 1.12.56 1.372.364.252 1.036.364 2.044.364m-2.604-4.872h3.08c.224 0 .336-.112.336-.364v-.448c0-.56-.112-.98-.28-1.288-.224-.336-.672-.504-1.288-.504h-.252c-.56 0-.952.14-1.176.392q-.42.504-.42 1.512zm9.549-.98v-.364c0-1.372.364-2.408 1.092-3.136.84-.84 2.268-1.26 4.256-1.26h.28c1.568 0 2.94.168 4.088.504q.336.126.42.252c.056.112.084.252.056.476l-.308 2.296c-.056.364-.308.476-.756.364-1.12-.252-2.128-.392-2.968-.392h-.028c-.616 0-1.064.056-1.288.168-.252.112-.364.308-.364.588v.084c0 .28.084.476.308.588s.644.252 1.288.364l1.316.28c1.204.28 2.072.7 2.576 1.26s.756 1.428.756 2.576v.42c0 2.94-1.848 4.396-5.488 4.396h-.28c-1.848 0-3.388-.252-4.676-.756-.252-.084-.42-.196-.476-.336-.056-.112-.056-.336 0-.644l.392-1.848c.084-.532.392-.7.952-.532 1.288.448 2.408.644 3.36.644h.084c.616 0 1.036-.056 1.288-.196.224-.112.364-.336.364-.644v-.084a.6.6 0 0 0-.308-.532q-.336-.168-1.344-.42l-1.232-.28q-1.848-.42-2.604-1.26c-.504-.56-.756-1.4-.756-2.576m17.587-3.696v12.096c0 .28-.084.504-.224.616-.14.14-.392.196-.728.196h-2.576c-.364 0-.616-.056-.756-.196-.14-.112-.196-.336-.196-.616V12.092c0-.28.056-.476.196-.616.14-.112.392-.196.756-.196h2.576c.336 0 .588.084.728.196.14.14.224.336.224.616m-2.072-1.876h-.336c-1.512 0-2.268-.756-2.268-2.324v-.14c0-1.54.756-2.324 2.268-2.324h.336c1.512 0 2.268.784 2.268 2.324v.14c0 1.568-.756 2.324-2.268 2.324m11.638 11.424h.308c.952 0 1.96-.112 2.968-.364.28-.056.448-.084.532-.084.28 0 .448.168.504.476l.224 1.4c.056.392.112.644.112.756 0 .336-.252.588-.728.756a4.06 4.06 0 0 0-1.792 1.344c-.476.616-.7 1.232-.7 1.792v.084c0 .532.252.784.756.784h.14c.308 0 .7-.056 1.148-.224.14-.028.252-.056.336-.056.14 0 .252.14.336.364l.14.588c.084.392.14.588.14.644 0 .168-.14.308-.392.42q-1.092.42-2.268.42h-.168c-.98 0-1.708-.196-2.212-.616s-.756-1.008-.756-1.792v-.084c0-.504.168-1.064.532-1.624s.84-1.008 1.456-1.4c-.224.028-.532.028-.924.028h-.532q-3.444 0-4.872-1.428a4 4 0 0 1-1.12-1.904c-.196-.728-.28-1.708-.28-2.912V17.44c0-2.436.56-4.144 1.68-5.152.952-.84 2.408-1.26 4.396-1.26h.392c1.96 0 3.388.476 4.228 1.4.896 1.008 1.344 2.66 1.344 5.012v1.456c0 .532-.28.784-.812.784h-6.72v.224c0 .672.168 1.12.56 1.372.364.252 1.036.364 2.044.364m-2.604-4.872h3.08c.224 0 .336-.112.336-.364v-.448c0-.56-.112-.98-.28-1.288-.224-.336-.672-.504-1.288-.504h-.252c-.56 0-.952.14-1.176.392q-.42.504-.42 1.512zm16.353 4.872h.224c.756 0 1.568-.112 2.436-.364.28-.056.448-.084.532-.084.28 0 .448.168.504.476l.252 1.428c.056.392.112.644.112.756 0 .336-.252.588-.728.756-1.232.448-2.576.644-4.032.644h-.336c-2.016 0-3.5-.448-4.424-1.4q-1.428-1.428-1.428-4.788V17.44c0-1.316.112-2.352.336-3.08a4.4 4.4 0 0 1 1.092-1.848c.98-.98 2.52-1.484 4.62-1.484h.28c1.68 0 3.136.308 4.312.924.336.196.532.42.532.7 0 .168-.084.448-.224.84l-.532 1.344q-.21.504-.588.504a1.14 1.14 0 0 1-.504-.14c-.896-.364-1.736-.56-2.492-.56h-.112c-.728 0-1.26.196-1.596.532-.42.42-.616 1.288-.616 2.576v.952c0 1.148.168 1.932.56 2.352.364.392.98.588 1.82.588m18.639-9.52c-.392 2.632-1.12 5.544-2.184 8.764a59.4 59.4 0 0 1-3.948 9.128c-.196.392-.448.588-.784.588-.224 0-.476-.056-.812-.224l-1.428-.616c-.504-.224-.728-.448-.728-.7 0-.112.028-.28.14-.476.952-1.932 1.512-3.052 1.624-3.36-.784-.28-1.372-.896-1.82-1.904-.504-1.12-1.092-2.828-1.736-5.18q-.966-3.528-1.428-6.048c-.056-.28-.028-.476.112-.616.14-.112.392-.196.728-.196h2.548c.308 0 .532.056.672.14s.252.252.308.532c.644 3.528 1.372 6.664 2.184 9.38h.14c.784-2.24 1.512-5.32 2.184-9.296q.042-.42.252-.588c.14-.112.364-.168.644-.168h2.576c.308 0 .532.084.644.196s.14.336.112.644M6.141 50.207h-.276c-1.61 0-3.013-.207-4.209-.644-.506-.161-.736-.46-.644-.92l.299-1.863c.046-.46.322-.621.805-.46 1.334.483 2.576.713 3.68.713h.115c.69 0 1.196-.092 1.495-.299.276-.184.437-.529.437-1.012v-.23c0-.46-.138-.759-.368-.943-.253-.161-.736-.322-1.449-.46l-1.564-.299c-1.288-.23-2.208-.69-2.714-1.334-.529-.644-.782-1.541-.782-2.714v-.644c0-1.288.345-2.254 1.035-2.944.828-.828 2.369-1.242 4.577-1.242h.161c1.541 0 2.852.207 3.91.598.23.092.391.23.46.368.046.161.046.391-.023.667l-.391 1.679c-.092.414-.391.552-.851.391q-1.587-.483-3.036-.483h-.092c-.759 0-1.288.092-1.564.253-.299.184-.437.483-.437.897v.207c0 .368.092.644.299.782.184.161.598.299 1.196.414l1.748.345c1.38.276 2.323.713 2.852 1.265.506.552.782 1.518.782 2.875v.552c0 1.564-.437 2.691-1.288 3.404-.851.736-2.231 1.081-4.163 1.081m10.327-10.488c.805-.782 1.955-1.196 3.427-1.196h.207c1.426 0 2.438.414 3.059 1.196.552.736.828 1.978.828 3.772v1.725c0 .966-.092 1.771-.23 2.369-.161.598-.437 1.104-.828 1.495-.782.759-1.84 1.127-3.22 1.127h-.253q-1.31 0-2.14-.483v3.542c0 .345-.068.575-.183.667-.138.092-.391.138-.782.138h-1.748c-.391 0-.644-.046-.782-.161-.138-.092-.184-.322-.184-.644v-13.8c0-.276.046-.46.184-.575.115-.092.322-.161.62-.161h.967c.276 0 .483.046.598.092.092.069.184.207.253.391l.16.506zm.85 3.266v2.944c0 .529.093.897.323 1.104.207.207.552.299 1.035.299h.207c.529 0 .897-.138 1.127-.46q.276-.414.276-2.001v-.989c0-1.104-.092-1.794-.276-2.047-.23-.276-.598-.414-1.15-.414h-.161c-.506 0-.851.115-1.081.345-.207.207-.3.621-.3 1.219m11.987.483v1.794c0 .897.138 1.472.414 1.748.207.23.529.322.966.322h.092c.414 0 .736-.092.966-.322.276-.276.414-.851.414-1.748v-1.794c0-.874-.138-1.472-.414-1.748-.23-.207-.552-.322-.966-.322h-.092c-.437 0-.76.115-.966.322-.276.276-.414.874-.414 1.748m6.555.138v1.495c0 1.15-.115 2.024-.345 2.668a3.3 3.3 0 0 1-1.104 1.541c-.76.598-1.932.897-3.542.897h-.276c-1.61 0-2.806-.299-3.542-.897a3.3 3.3 0 0 1-1.104-1.541c-.23-.644-.345-1.518-.345-2.668v-1.472c0-1.127.115-2.001.345-2.645s.598-1.15 1.104-1.564c.736-.598 1.932-.897 3.542-.897h.276c1.61 0 2.783.299 3.542.897.506.414.874.92 1.104 1.541.23.644.345 1.518.345 2.645m9.168 4.232v1.311c0 .345-.069.575-.16.69-.093.115-.3.161-.576.161h-1.84c-1.656 0-2.76-.276-3.266-.851-.46-.483-.667-1.403-.667-2.783v-4.761h-1.242c-.23 0-.368-.023-.46-.115s-.115-.23-.115-.46v-1.173c0-.276.023-.46.115-.552.07-.092.23-.161.483-.23l1.22-.299v-2.254c0-.23.045-.391.16-.506.115-.092.322-.161.621-.161h2.116c.276 0 .483.069.598.161.115.115.184.276.184.506v2.208h1.91c.23 0 .367.046.46.138.091.092.137.253.137.529v1.541q0 .414-.138.552c-.092.092-.23.115-.46.115H42.2v4.347c0 .414.046.667.184.805.138.161.437.23.897.23h1.012c.276 0 .483.069.575.184s.161.345.161.667m5.467-8.441v9.936c0 .23-.07.414-.184.506-.115.115-.322.161-.598.161h-2.116c-.3 0-.506-.046-.621-.161-.115-.092-.161-.276-.161-.506v-9.936c0-.23.046-.391.16-.506.116-.092.323-.161.622-.161h2.116c.276 0 .483.069.598.161.115.115.184.276.184.506m-1.702-1.541h-.276c-1.242 0-1.863-.621-1.863-1.909v-.115c0-1.265.62-1.909 1.863-1.909h.276c1.242 0 1.863.644 1.863 1.909v.115c0 1.288-.621 1.909-1.863 1.909m4.775 3.749h-1.242c-.23 0-.39-.023-.46-.092-.092-.069-.115-.23-.115-.483v-1.127c0-.276.023-.483.092-.575.07-.092.23-.184.506-.253l1.22-.299v-.989c0-1.288.298-2.208.92-2.737q.965-.828 3.035-.828h.23c.92 0 1.702.092 2.392.253.23.069.391.161.46.276.046.115.07.299.046.552l-.138 1.449c-.046.23-.092.368-.16.414-.093.046-.254.069-.507.046-.598-.046-1.012-.092-1.288-.092h-.138c-.506 0-.805.069-.943.207-.16.161-.23.437-.23.805v.598h1.91c.23 0 .367.046.46.138.091.092.137.253.137.529v1.541q0 .414-.138.552c-.092.092-.23.115-.46.115h-1.909v7.728c0 .23-.069.414-.184.506-.115.115-.322.161-.598.161H54.35c-.299 0-.506-.046-.62-.161-.116-.092-.162-.276-.162-.506zm17.665-2.185c-.322 2.162-.92 4.554-1.794 7.199a49 49 0 0 1-3.243 7.498c-.161.322-.368.483-.644.483-.184 0-.391-.046-.667-.184l-1.173-.506c-.414-.184-.598-.368-.598-.575 0-.092.023-.23.115-.391.782-1.587 1.242-2.507 1.334-2.76-.644-.23-1.127-.736-1.495-1.564-.414-.92-.897-2.323-1.426-4.255q-.794-2.898-1.173-4.968c-.046-.23-.023-.391.092-.506.115-.092.322-.161.598-.161h2.093c.253 0 .437.046.552.115s.207.207.253.437c.529 2.898 1.127 5.474 1.794 7.705h.115c.644-1.84 1.242-4.37 1.794-7.636q.034-.345.207-.483c.115-.092.299-.138.529-.138h2.116c.253 0 .437.069.529.161s.115.276.092.529m11.988-1.403h-.3c-.321 0-.643.023-1.011.046-.138.023-.184.115-.184.276v3.634h1.196c.828 0 1.38-.115 1.702-.391.276-.23.414-.667.414-1.357v-.575c0-.552-.138-.966-.391-1.219-.276-.276-.76-.414-1.426-.414m-1.495 7.107v4.163c0 .483-.276.713-.805.713h-2.254c-.3 0-.506-.046-.621-.161-.138-.092-.184-.276-.184-.552V36.062q0-.552.207-.759c.138-.138.39-.23.805-.276.828-.069 2.116-.115 3.887-.115h.276c2.346 0 3.956.46 4.853 1.357.69.736 1.035 1.84 1.035 3.335v.782c0 1.725-.483 2.944-1.45 3.634-1.011.736-2.552 1.104-4.645 1.104zm11.784-5.152h.07c.505-.828 1.356-1.242 2.576-1.242h.92c.23 0 .414.046.506.138s.16.253.16.506v1.679c0 .253-.046.414-.138.506q-.136.138-.483.138h-.69c-.85 0-1.425.161-1.748.483-.276.276-.39.805-.39 1.587v5.566c0 .23-.07.414-.184.506-.115.115-.322.161-.599.161h-2.116c-.299 0-.506-.046-.62-.161-.115-.092-.162-.276-.162-.506v-9.959c0-.23.047-.391.162-.483.114-.092.322-.161.62-.161H92.5c.252 0 .437.046.552.115q.171.138.275.414zm10.977 7.268h.253c.782 0 1.61-.092 2.438-.299a3 3 0 0 1 .437-.069c.23 0 .368.138.414.391l.184 1.15c.046.322.092.529.092.621 0 .276-.207.483-.598.621-1.058.368-2.231.552-3.473.552h-.437q-2.829 0-4.002-1.173a3.3 3.3 0 0 1-.92-1.564c-.161-.598-.23-1.403-.23-2.392V43.79c0-2.001.46-3.404 1.38-4.232.782-.69 1.978-1.035 3.611-1.035h.322c1.61 0 2.783.391 3.473 1.15.736.828 1.104 2.185 1.104 4.117v1.196c0 .437-.23.644-.667.644h-5.52v.184c0 .552.138.92.46 1.127.299.207.851.299 1.679.299m-2.139-4.002h2.53c.184 0 .276-.092.276-.299v-.368c0-.46-.092-.805-.23-1.058-.184-.276-.552-.414-1.058-.414h-.207c-.46 0-.782.115-.966.322q-.345.414-.345 1.242zm18.078-.414v6.509c0 .23-.069.414-.184.506-.115.115-.322.161-.598.161h-2.116c-.299 0-.506-.046-.621-.161-.115-.092-.161-.276-.161-.506v-6.509c0-.506-.092-.874-.253-1.058-.184-.184-.529-.299-1.012-.299h-.046c-.506 0-.828.115-1.012.299s-.253.552-.253 1.058v6.509c0 .23-.069.414-.184.506-.115.115-.322.161-.598.161h-2.116c-.299 0-.506-.046-.621-.161-.115-.092-.161-.276-.161-.506v-9.959c0-.23.046-.391.161-.483s.322-.161.621-.161h1.081c.276 0 .46.046.575.115q.172.104.276.414l.138.437h.069c.736-.782 1.771-1.173 3.151-1.173h.092c1.311 0 2.323.368 3.036 1.058.736-.69 1.794-1.058 3.128-1.058h.092c1.334 0 2.323.322 2.921.943.552.598.851 1.61.851 3.036v6.831c0 .23-.069.414-.184.506-.115.115-.322.161-.598.161h-2.116c-.299 0-.506-.046-.621-.161-.115-.092-.161-.276-.161-.506v-6.509c0-.506-.092-.874-.253-1.058-.184-.184-.529-.299-1.012-.299h-.046c-.506 0-.828.115-1.012.299s-.253.552-.253 1.058m12.163-3.427v9.936c0 .23-.069.414-.184.506-.115.115-.322.161-.598.161h-2.116c-.299 0-.506-.046-.621-.161-.115-.092-.161-.276-.161-.506v-9.936c0-.23.046-.391.161-.506.115-.092.322-.161.621-.161h2.116c.276 0 .483.069.598.161.115.115.184.276.184.506m-1.702-1.541h-.276c-1.242 0-1.863-.621-1.863-1.909v-.115c0-1.265.621-1.909 1.863-1.909h.276c1.242 0 1.863.644 1.863 1.909v.115c0 1.288-.621 1.909-1.863 1.909m10.135 8.027v-6.486c0-.23.046-.391.161-.506.115-.092.322-.161.621-.161h2.116c.276 0 .483.069.598.161.115.115.184.276.184.506v6.808q0 2.104-1.035 3.036c-.736.644-2.024.966-3.91.966s-3.197-.322-3.91-.966q-1.035-.932-1.035-3.036v-6.808c0-.23.046-.391.161-.506.115-.092.322-.161.621-.161h2.116c.276 0 .483.069.598.161.115.115.184.276.184.506v6.486c0 .529.069.874.253 1.058.184.207.506.299 1.012.299.483 0 .828-.092 1.012-.299.161-.184.253-.529.253-1.058m15.791-3.059v6.509c0 .23-.069.414-.184.506-.115.115-.322.161-.598.161h-2.116c-.299 0-.506-.046-.621-.161-.115-.092-.161-.276-.161-.506v-6.509c0-.506-.092-.874-.253-1.058-.184-.184-.529-.299-1.012-.299h-.046c-.506 0-.828.115-1.012.299s-.253.552-.253 1.058v6.509c0 .23-.069.414-.184.506-.115.115-.322.161-.598.161h-2.116c-.299 0-.506-.046-.621-.161-.115-.092-.161-.276-.161-.506v-9.959c0-.23.046-.391.161-.483s.322-.161.621-.161h1.081c.276 0 .46.046.575.115q.173.104.276.414l.138.437h.069c.736-.782 1.771-1.173 3.151-1.173h.092c1.311 0 2.323.368 3.036 1.058.736-.69 1.794-1.058 3.128-1.058h.092c1.334 0 2.323.322 2.921.943.552.598.851 1.61.851 3.036v6.831c0 .23-.069.414-.184.506-.115.115-.322.161-.598.161h-2.116c-.299 0-.506-.046-.621-.161-.115-.092-.161-.276-.161-.506v-6.509c0-.506-.092-.874-.253-1.058-.184-.184-.529-.299-1.012-.299h-.046c-.506 0-.828.115-1.012.299s-.253.552-.253 1.058m18.506 6.118h-.621c-3.266 0-4.876-1.472-4.876-4.439v-1.541c0-1.518.391-2.622 1.196-3.358.782-.713 2.001-1.081 3.611-1.081h.322c.299-1.656 1.518-2.507 3.68-2.507h1.127c.23 0 .368.046.46.115.069.092.115.253.115.483v1.265c0 .23-.046.368-.138.437-.092.092-.253.115-.46.115h-1.081c-.506 0-.851.115-1.058.345 1.725.46 2.599 1.863 2.599 4.186v1.541c0 1.656-.46 2.76-1.357 3.358a3.9 3.9 0 0 1 1.403 1.242c.345.506.529 1.058.529 1.633v.161c0 2.277-1.817 3.404-5.405 3.404h-.437c-1.564 0-3.082-.276-4.508-.828-.414-.138-.575-.437-.46-.874l.414-1.472c.115-.437.391-.598.828-.46 1.357.46 2.553.667 3.611.667h.322q2.001 0 2.001-1.173v-.069c0-.437-.23-.828-.69-1.196-.368.046-.759.046-1.127.046m-.391-2.875h.161c.506 0 .851-.092 1.081-.322.253-.253.391-.782.391-1.564v-.897c0-.782-.138-1.288-.391-1.564-.23-.207-.575-.322-1.081-.322h-.161c-.506 0-.874.115-1.081.322-.276.276-.391.782-.391 1.564v.897c0 .782.115 1.311.391 1.564.207.23.575.322 1.081.322m10.223-6.095h.069c.506-.828 1.357-1.242 2.576-1.242h.92c.23 0 .414.046.506.138s.161.253.161.506v1.679c0 .253-.046.414-.138.506q-.138.138-.483.138h-.69c-.851 0-1.426.161-1.748.483-.276.276-.391.805-.391 1.587v5.566c0 .23-.069.414-.184.506-.115.115-.322.161-.598.161h-2.116c-.299 0-.506-.046-.621-.161-.115-.092-.161-.276-.161-.506v-9.959c0-.23.046-.391.161-.483s.322-.161.621-.161h1.104c.253 0 .437.046.552.115q.172.138.276.414zm11.88 9.085h-.046c-.506.782-1.518 1.15-3.013 1.15h-.345c-1.173 0-2.093-.299-2.737-.897-.667-.598-.989-1.495-.989-2.645v-.253c0-1.242.345-2.139 1.058-2.645s1.863-.759 3.473-.759h.161c.598 0 1.15.046 1.61.092v-.483c0-.483-.138-.828-.391-1.012-.276-.161-.736-.253-1.38-.253-.782 0-1.656.138-2.668.391-.276.069-.483.069-.575 0-.115-.069-.184-.207-.207-.437l-.184-1.219c-.046-.207-.046-.368-.046-.46 0-.276.184-.483.552-.598a14.8 14.8 0 0 1 3.933-.506c1.771 0 3.036.391 3.772 1.127.575.598.874 1.564.874 2.875v6.831c0 .23-.069.414-.184.506s-.322.138-.598.138h-1.081c-.276 0-.46-.023-.575-.092s-.207-.207-.276-.437zm-.828-2.944v-.644q-.38-.069-1.104-.069h-.253q-.828 0-1.173.207c-.23.138-.322.414-.322.828v.092c0 .414.092.69.322.828.207.161.529.23.966.23h.161c.46 0 .805-.115 1.081-.345.207-.184.322-.575.322-1.127m13.06 1.725v1.311c0 .345-.069.575-.161.69s-.299.161-.575.161h-1.84c-1.656 0-2.76-.276-3.266-.851-.46-.483-.667-1.403-.667-2.783v-4.761h-1.242c-.23 0-.368-.023-.46-.115s-.115-.23-.115-.46v-1.173c0-.276.023-.46.115-.552.069-.092.23-.161.483-.23l1.219-.299v-2.254c0-.23.046-.391.161-.506.115-.092.322-.161.621-.161h2.116c.276 0 .483.069.598.161.115.115.184.276.184.506v2.208h1.909c.23 0 .368.046.46.138s.138.253.138.529v1.541q0 .414-.138.552c-.092.092-.23.115-.46.115h-1.909v4.347c0 .414.046.667.184.805.138.161.437.23.897.23h1.012c.276 0 .483.069.575.184s.161.345.161.667m5.466-8.441v9.936c0 .23-.069.414-.184.506-.115.115-.322.161-.598.161h-2.116c-.299 0-.506-.046-.621-.161-.115-.092-.161-.276-.161-.506v-9.936c0-.23.046-.391.161-.506.115-.092.322-.161.621-.161h2.116c.276 0 .483.069.598.161.115.115.184.276.184.506m-1.702-1.541h-.276c-1.242 0-1.863-.621-1.863-1.909v-.115c0-1.265.621-1.909 1.863-1.909h.276c1.242 0 1.863.644 1.863 1.909v.115c0 1.288-.621 1.909-1.863 1.909m3.786 4.577v-.299c0-1.127.299-1.978.897-2.576.69-.69 1.863-1.035 3.496-1.035h.23c1.288 0 2.415.138 3.358.414q.276.103.345.207c.046.092.069.207.046.391l-.253 1.886c-.046.299-.253.391-.621.299-.92-.207-1.748-.322-2.438-.322h-.023c-.506 0-.874.046-1.058.138-.207.092-.299.253-.299.483v.069c0 .23.069.391.253.483s.529.207 1.058.299l1.081.23c.989.23 1.702.575 2.116 1.035s.621 1.173.621 2.116v.345c0 2.415-1.518 3.611-4.508 3.611h-.23c-1.518 0-2.783-.207-3.841-.621-.207-.069-.345-.161-.391-.276-.046-.092-.046-.276 0-.529l.322-1.518c.069-.437.322-.575.782-.437 1.058.368 1.978.529 2.76.529h.069c.506 0 .851-.046 1.058-.161.184-.092.299-.276.299-.529v-.069a.49.49 0 0 0-.253-.437q-.276-.138-1.104-.345l-1.012-.23q-1.518-.345-2.139-1.035c-.414-.46-.621-1.15-.621-2.116"/></svg>