<svg xmlns="http://www.w3.org/2000/svg" fill="none" viewBox="0 0 159 48"><path fill="#000" d="M4.872 14.48h5.943V17H.735v-1.974l5.754-6.804H.882v-2.52h9.744v1.974zm16.089-8.778h3.276V17h-3.13v-1.302c-.818.987-2.015 1.47-3.527 1.47-3.192 0-5.65-2.268-5.65-5.817s2.458-5.817 5.65-5.817c1.386 0 2.562.441 3.38 1.365zm-2.814 8.778c1.617 0 2.877-1.176 2.877-3.129s-1.26-3.129-2.877-3.129c-1.638 0-2.898 1.176-2.898 3.129s1.26 3.129 2.898 3.129m14.942-6.825-2.352 1.764V17H27.46v-5.124l-1.155.861-1.218-1.638 2.373-1.785V1.418h3.276v5.418l1.155-.861zm4.392-3.402 2.835-3.024h3.528l-3.801 3.024zm1.953 12.915c-3.591 0-6.216-2.415-6.216-5.817s2.625-5.817 6.216-5.817c3.59 0 6.195 2.415 6.195 5.817s-2.604 5.817-6.195 5.817m0-2.688c1.638 0 2.877-1.176 2.877-3.129s-1.24-3.129-2.877-3.129c-1.638 0-2.898 1.176-2.898 3.129s1.26 3.129 2.898 3.129M51.938 4.148c-1.029 0-1.764-.756-1.764-1.785 0-1.008.735-1.764 1.764-1.764 1.03 0 1.764.756 1.764 1.764 0 1.029-.735 1.785-1.764 1.785m-.903 10.332h5.943V17h-10.08v-1.974l5.754-6.804h-5.607v-2.52h9.744v1.974zm21.613-3.822L76.722 17h-3.717l-3.192-4.893H68.3V17h-3.276V1.418H68.3v8.19h1.512l3.024-3.906h3.654zm10.345 6.51c-3.591 0-6.216-2.415-6.216-5.817s2.624-5.817 6.216-5.817c3.59 0 6.195 2.415 6.195 5.817s-2.605 5.817-6.195 5.817m0-2.688c1.638 0 2.877-1.176 2.877-3.129s-1.24-3.129-2.877-3.129c-1.638 0-2.898 1.176-2.898 3.129s1.26 3.129 2.898 3.129m15.524-8.946c2.667 0 4.683 1.554 4.683 4.998V17h-3.276v-5.964c0-1.827-.84-2.667-2.289-2.667-1.575 0-2.709.966-2.709 3.045V17H91.65V8.222h-1.26v-2.52h3.885l.168 1.764c.861-1.26 2.331-1.932 4.074-1.932m13.589 8.61.861 2.31c-.672.483-1.659.714-2.646.714-2.688 0-4.221-1.365-4.221-4.053V3.203h3.276v2.499h2.793v2.499h-2.793v4.872c0 .966.504 1.491 1.386 1.491.483 0 .966-.147 1.344-.42m7.739 3.024c-3.591 0-6.216-2.415-6.216-5.817s2.625-5.817 6.216-5.817 6.195 2.415 6.195 5.817-2.604 5.817-6.195 5.817m0-2.688c1.638 0 2.877-1.176 2.877-3.129s-1.239-3.129-2.877-3.129-2.898 1.176-2.898 3.129 1.26 3.129 2.898 3.129M3.15 30.127c-1.218 0-2.037-.798-2.037-1.827s.819-1.827 2.037-1.827 2.037.756 2.037 1.764c0 1.092-.819 1.89-2.037 1.89M1.512 43V31.702h3.276V43zm15.624-2.52h5.943V43h-10.08v-1.974l5.754-6.804h-5.607v-2.52h9.744v1.974zm16.232-8.778h3.276v9.408c0 4.2-2.205 6.132-6.153 6.132-2.079 0-4.095-.525-5.376-1.554l1.302-2.352c.924.777 2.394 1.26 3.822 1.26 2.184 0 3.129-1.029 3.129-3.066v-.378c-.861.861-2.037 1.302-3.339 1.302-2.835 0-4.83-1.575-4.83-5.082v-5.67h3.276v5.187c0 1.911.84 2.751 2.289 2.751 1.512 0 2.604-.966 2.604-3.045zm10.13 11.466c-1.91 0-3.842-.525-4.892-1.218l1.091-2.352c1.008.651 2.541 1.092 3.927 1.092 1.512 0 2.08-.399 2.08-1.029 0-1.848-6.825.042-6.825-4.473 0-2.142 1.931-3.654 5.229-3.654 1.553 0 3.276.357 4.347.987l-1.093 2.331a6.5 6.5 0 0 0-3.254-.84c-1.47 0-2.1.462-2.1 1.05 0 1.932 6.825.063 6.825 4.515 0 2.1-1.953 3.591-5.334 3.591m14.979-6.51L62.55 43h-3.717l-3.192-4.893H54.13V43h-3.276V27.418h3.276v8.19h1.512l3.024-3.906h3.654zm13.159-4.956h3.276V43h-3.13v-1.302c-.818.987-2.015 1.47-3.527 1.47-3.192 0-5.65-2.268-5.65-5.817s2.458-5.817 5.65-5.817c1.386 0 2.562.441 3.38 1.365zm-2.814 8.778c1.617 0 2.877-1.176 2.877-3.129s-1.26-3.129-2.877-3.129c-1.638 0-2.898 1.176-2.898 3.129s1.26 3.129 2.898 3.129M79.71 30.127c-1.218 0-2.037-.798-2.037-1.827s.819-1.827 2.037-1.827 2.037.756 2.037 1.764c0 1.092-.82 1.89-2.037 1.89m-2.247 17.115c-.903 0-1.701-.189-2.352-.63l.882-2.373c.336.252.672.399 1.113.399.567 0 .966-.399.966-1.218V31.702h3.276v11.529c0 2.478-1.407 4.011-3.885 4.011m19.925-15.708c2.667 0 4.683 1.554 4.683 4.998V43h-3.276v-5.964c0-1.827-.84-2.667-2.289-2.667-1.575 0-2.709.966-2.709 3.045V43h-3.276v-8.778h-1.26v-2.52h3.885l.168 1.764c.861-1.26 2.331-1.932 4.074-1.932m15.918.168h3.276V43h-3.129v-1.302c-.819.987-2.016 1.47-3.528 1.47-3.192 0-5.649-2.268-5.649-5.817s2.457-5.817 5.649-5.817c1.386 0 2.562.441 3.381 1.365zm-2.814 8.778c1.617 0 2.877-1.176 2.877-3.129s-1.26-3.129-2.877-3.129c-1.638 0-2.898 1.176-2.898 3.129s1.26 3.129 2.898 3.129m24.287-8.778h2.898L133.583 43h-3.15l-2.541-7.014L125.267 43h-3.15l-4.074-11.298h3.087l2.667 7.644 2.772-7.644h2.772l2.688 7.644zm14.34 5.691c0 .252-.042.609-.063.882h-8.547c.315 1.407 1.512 2.268 3.234 2.268 1.197 0 2.058-.357 2.835-1.092l1.743 1.89c-1.05 1.197-2.625 1.827-4.662 1.827-3.906 0-6.447-2.457-6.447-5.817 0-3.381 2.583-5.817 6.027-5.817 3.318 0 5.88 2.226 5.88 5.859m-5.859-3.381c-1.491 0-2.562.903-2.793 2.352h5.565c-.231-1.428-1.302-2.352-2.772-2.352m13.983 6.132.861 2.31c-.672.483-1.659.714-2.646.714-2.688 0-4.221-1.365-4.221-4.053v-9.912h3.276v2.499h2.793v2.499h-2.793v4.872c0 .966.504 1.491 1.386 1.491.483 0 .966-.147 1.344-.42"/></svg>