<svg xmlns="http://www.w3.org/2000/svg" fill="none" viewBox="0 0 131 67"><path fill="#fff" d="M9.576 38.216h7.84v-12.6h-.056zM29.4 45.272h-2.912v5.88c0 .84-.168 1.344-.392 1.568-.28.224-.84.28-1.624.28h-4.928c-.896 0-1.456-.056-1.736-.28s-.392-.728-.392-1.568v-5.88H3.136q-1.176 0-1.512-.336t-.336-1.512V42.08c0-1.12.056-1.96.224-2.52.112-.504.504-1.232 1.064-2.128L14.28 18.56c.448-.728.84-1.232 1.288-1.456q.672-.336 1.848-.336h6.776c.896 0 1.512.168 1.848.448.28.336.448.952.448 1.904v19.096H29.4c.672 0 1.064.112 1.288.28.168.224.28.616.28 1.232v4.032c0 .672-.112 1.064-.28 1.232-.224.224-.616.28-1.288.28m9.468-1.512h.784c1.68 0 2.856.448 3.584 1.232.728.84 1.12 2.072 1.12 3.752v.728c0 1.736-.56 3.864-1.568 6.44a24.5 24.5 0 0 1-4.424 7.056c-.336.448-.728.616-1.12.616-.224 0-.56-.056-.896-.28l-2.8-1.68c-.672-.336-.728-.896-.168-1.624.504-.672 1.232-1.736 2.24-3.248.672-1.008 1.008-1.736 1.008-2.296 0-.28-.168-.504-.448-.728l-.56-.392c-.952-.672-1.4-1.848-1.4-3.528V48.24c0-2.968 1.512-4.48 4.648-4.48m32.595-19.544H60.151c-.56 0-.784.28-.784.728l-.168 5.208q2.52-.84 5.544-.84h.56c3.584 0 6.216.84 7.896 2.464 1.792 1.792 2.744 4.76 2.744 8.904v.784c0 4.256-1.232 7.336-3.584 9.296-2.24 1.848-5.712 2.744-10.416 2.744h-.56q-5.46 0-11.088-2.016c-.784-.224-1.12-.672-1.12-1.288 0-.224.056-.728.28-1.512l.784-2.856c.224-.784.504-1.288.896-1.512.336-.168.784-.112 1.344.112 3.136 1.176 5.992 1.736 8.568 1.736h.56c1.624 0 2.912-.336 3.92-1.008q1.344-.84 1.344-3.696v-.392c0-1.68-.392-2.912-1.176-3.584-.728-.616-1.792-.952-3.192-.952h-.336q-2.94 0-6.552 1.344c-.56.224-.952.28-1.12.28-.336 0-.784-.168-1.288-.504l-1.792-1.176c-.56-.392-.84-.896-.84-1.456 0-.336 0-1.064.112-2.24l.728-14.336c0-1.12.672-1.68 1.904-1.68h18.256c.672 0 1.176.112 1.4.336s.392.616.392 1.288v4.312c0 .616-.168 1.008-.392 1.232-.28.224-.784.28-1.512.28m28.284 2.072v.56c0 3.696-.952 6.328-2.744 8.008-1.68 1.344-3.864 2.016-6.44 2.016-2.912 0-5.096-.728-6.608-2.184-1.68-1.568-2.52-4.032-2.52-7.28v-1.68c0-3.248.84-5.656 2.52-7.28 1.512-1.456 3.696-2.184 6.608-2.184 2.576 0 4.76.672 6.44 2.016 1.792 1.68 2.744 4.368 2.744 8.008m-9.52 25.2 20.664-34.048c.28-.448.616-.784.952-.952.336-.112.84-.224 1.568-.224h4.088c1.736 0 2.24.672 1.456 2.016L98.291 52.328c-.336.504-.616.84-.952.952-.336.168-.896.224-1.568.224h-4.088c-1.792 0-2.24-.672-1.456-2.016m-1.232-26.432v3.024c0 1.176.112 1.96.392 2.352.224.392.616.56 1.12.56h.112c.448 0 .84-.168 1.12-.56.224-.392.392-1.176.392-2.352v-3.024c0-1.12-.168-1.904-.392-2.296-.28-.392-.672-.616-1.12-.616h-.112c-.504 0-.896.224-1.12.616-.28.392-.392 1.176-.392 2.296m39.312 17.864v.56c0 3.696-.952 6.328-2.744 8.008-1.68 1.344-3.864 2.016-6.44 2.016-2.912 0-5.096-.728-6.608-2.184-1.68-1.568-2.52-3.976-2.52-7.28v-1.68c0-3.248.84-5.712 2.52-7.28 1.512-1.456 3.696-2.184 6.608-2.184 2.576 0 4.76.672 6.44 2.016 1.792 1.68 2.744 4.368 2.744 8.008m-10.752-1.232v3.024c0 1.176.112 1.96.392 2.352.224.392.616.56 1.12.56h.112c.448 0 .84-.168 1.12-.56.224-.392.392-1.176.392-2.352v-3.024c0-1.12-.168-1.904-.392-2.296-.28-.392-.672-.616-1.12-.616h-.112c-.504 0-.896.224-1.12.616-.28.392-.392 1.176-.392 2.296"/></svg>