<svg xmlns="http://www.w3.org/2000/svg" fill="none" viewBox="0 0 155 26"><path fill="#fff" d="M4.642 13.29v2.816c0 .506.088.858.308 1.056.176.198.506.286.99.286h.198c.506 0 .858-.132 1.078-.44q.264-.396.264-1.914v-.946c0-1.1-.11-1.782-.286-2.002-.198-.22-.572-.352-1.1-.352h-.088c-.506 0-.858.11-1.078.33-.198.198-.286.594-.286 1.166m0-3.674h.044q.957-.594 2.508-.594h.198c1.32 0 2.288.396 2.882 1.188.484.682.748 1.892.748 3.63v1.584c0 1.76-.374 2.992-1.122 3.674-.792.748-2.046 1.1-3.762 1.1h-.44c-1.804 0-3.036-.352-3.696-1.078-.594-.638-.88-1.672-.88-3.124V5.744c0-.22.044-.374.154-.484.088-.088.286-.154.572-.154h2.046c.264 0 .462.066.572.154.11.11.176.264.176.484zm13.51 7.744h.243c.748 0 1.54-.088 2.332-.286a3 3 0 0 1 .418-.066c.22 0 .352.132.396.374l.176 1.1c.044.308.088.506.088.594 0 .264-.198.462-.572.594-1.012.352-2.134.528-3.322.528h-.418q-2.706 0-3.828-1.122a3.15 3.15 0 0 1-.88-1.496c-.154-.572-.22-1.342-.22-2.288V14.06c0-1.914.44-3.256 1.32-4.048.748-.66 1.892-.99 3.454-.99h.308c1.54 0 2.662.374 3.322 1.1.704.792 1.056 2.09 1.056 3.938v1.144c0 .418-.22.616-.638.616h-5.28v.176c0 .528.132.88.44 1.078.286.198.814.286 1.606.286m-2.045-3.828h2.42c.176 0 .264-.088.264-.286v-.352c0-.44-.088-.77-.22-1.012-.176-.264-.528-.396-1.012-.396h-.198c-.44 0-.748.11-.924.308q-.33.396-.33 1.188zm11.374-1.518h-3.498c-.22 0-.374-.022-.462-.11s-.11-.264-.11-.528V9.858c0-.264.022-.418.11-.506q.132-.132.462-.132h7.436c.22 0 .374.044.484.132.088.088.154.264.154.506v.418c0 .572-.176 1.1-.484 1.562l-3.784 5.368h3.762c.22 0 .352.044.44.132s.132.242.132.506v1.518q0 .396-.132.528c-.088.088-.22.11-.44.11h-7.568c-.462 0-.682-.198-.682-.638v-.506c0-.572.154-1.078.484-1.562zm14.833 5.126h.704c.22 0 .396.066.484.154.088.11.154.308.154.594v1.364c0 .308-.066.506-.154.594-.088.11-.264.154-.484.154h-1.672c-1.1 0-1.87-.198-2.31-.638-.44-.418-.66-1.166-.66-2.222V5.744c0-.22.044-.374.154-.484.11-.088.308-.154.594-.154h2.024c.264 0 .462.066.572.154.11.11.176.264.176.484v10.978c0 .176.022.286.088.33.044.066.154.088.33.088m6.35-7.282v9.504c0 .22-.066.396-.175.484-.11.11-.308.154-.572.154h-2.025c-.286 0-.484-.044-.594-.154-.11-.088-.154-.264-.154-.484V9.858c0-.22.044-.374.154-.484.11-.088.308-.154.594-.154h2.024c.265 0 .463.066.573.154.11.11.175.264.175.484m-1.628-1.474h-.264c-1.187 0-1.782-.594-1.782-1.826v-.11c0-1.21.594-1.826 1.782-1.826h.264c1.188 0 1.782.616 1.782 1.826v.11c0 1.232-.593 1.826-1.782 1.826m13.412 4.752v6.226c0 .22-.066.396-.176.484-.11.11-.308.154-.572.154h-2.024c-.286 0-.484-.044-.594-.154-.11-.088-.154-.264-.154-.484v-6.226c0-.484-.088-.836-.242-1.012-.176-.176-.506-.286-.968-.286h-.044c-.484 0-.792.11-.968.286s-.242.528-.242 1.012v6.226c0 .22-.066.396-.176.484-.11.11-.308.154-.572.154h-2.024c-.286 0-.484-.044-.594-.154-.11-.088-.154-.264-.154-.484V9.836c0-.22.044-.374.154-.462s.308-.154.594-.154h1.034c.264 0 .44.044.55.11q.165.099.264.396l.132.418h.066c.704-.748 1.694-1.122 3.014-1.122h.088c1.254 0 2.222.352 2.904 1.012.704-.66 1.716-1.012 2.992-1.012h.088c1.276 0 2.222.308 2.794.902.528.572.814 1.54.814 2.904v6.534c0 .22-.066.396-.176.484-.11.11-.308.154-.572.154H63.66c-.286 0-.484-.044-.594-.154-.11-.088-.154-.264-.154-.484v-6.226c0-.484-.088-.836-.242-1.012-.176-.176-.506-.286-.968-.286h-.044c-.484 0-.792.11-.968.286s-.242.528-.242 1.012m11.634-3.278v9.504c0 .22-.066.396-.175.484-.11.11-.308.154-.572.154H69.31c-.287 0-.485-.044-.595-.154-.11-.088-.153-.264-.153-.484V9.858c0-.22.043-.374.153-.484.11-.088.309-.154.595-.154h2.023c.264 0 .462.066.572.154.11.11.176.264.176.484m-1.627-1.474h-.264c-1.189 0-1.782-.594-1.782-1.826v-.11c0-1.21.593-1.826 1.781-1.826h.264c1.189 0 1.783.616 1.783 1.826v.11c0 1.232-.594 1.826-1.782 1.826m10.793 9.548v1.254c0 .33-.066.55-.154.66s-.286.154-.55.154h-1.76c-1.584 0-2.64-.264-3.124-.814-.44-.462-.638-1.342-.638-2.662V11.97h-1.188c-.22 0-.352-.022-.44-.11s-.11-.22-.11-.44v-1.122c0-.264.022-.44.11-.528.066-.088.22-.154.462-.22l1.166-.286V7.108c0-.22.044-.374.154-.484.11-.088.308-.154.594-.154h2.024c.264 0 .462.066.572.154.11.11.176.264.176.484V9.22h1.826c.22 0 .352.044.44.132s.132.242.132.506v1.474q0 .396-.132.528c-.088.088-.22.11-.44.11h-1.826v4.158c0 .396.044.638.176.77.132.154.418.22.858.22h.968c.264 0 .462.066.55.176s.154.33.154.638m7.451-1.87V9.858c0-.22.044-.374.154-.484.11-.088.308-.154.594-.154h2.024c.264 0 .462.066.572.154.11.11.176.264.176.484v6.512q0 2.013-.99 2.904c-.704.616-1.936.924-3.74.924s-3.058-.308-3.74-.924q-.99-.891-.99-2.904V9.858c0-.22.044-.374.154-.484.11-.088.308-.154.594-.154h2.024c.264 0 .462.066.572.154.11.11.176.264.176.484v6.204c0 .506.066.836.242 1.012.176.198.484.286.968.286.462 0 .792-.088.968-.286.154-.176.242-.506.242-1.012m13.89-.33v3.63c0 .22-.066.396-.176.484-.11.11-.308.154-.572.154h-2.024c-.286 0-.484-.044-.594-.154-.11-.088-.154-.264-.154-.484V5.744c0-.22.044-.374.154-.484.11-.088.308-.154.594-.154h2.024c.264 0 .462.066.572.154.11.11.176.264.176.484v7.172h.154l2.09-3.19c.198-.33.506-.506.924-.506h2.552c.242 0 .374.088.374.264 0 .088-.066.242-.176.418l-2.53 3.784c-.198.308-.286.528-.286.66 0 .154.088.374.286.66l2.706 4.268c.088.176.132.286.132.374 0 .242-.154.352-.462.352h-2.442c-.308 0-.55-.022-.682-.11q-.198-.099-.396-.462l-2.09-3.696zm13.155-5.984h1.892c.308 0 .528.044.638.132s.198.264.242.528c0 .088.396 2.046 1.166 5.852h.066c.396-2.31.748-4.444 1.034-6.424.022-.242.088-.396.176-.484q.132-.132.462-.132h2.244c.242 0 .396.066.484.154.066.11.088.286.044.506-.352 1.716-.792 3.608-1.276 5.676s-.836 3.366-1.056 3.916c-.088.22-.198.374-.308.44s-.286.088-.506.088h-2.42c-.462 0-.748-.154-.836-.506-.418-1.496-.77-3.388-1.078-5.676h-.088a60 60 0 0 1-1.1 5.676c-.088.352-.352.506-.792.506h-2.376c-.44 0-.726-.154-.836-.484-.22-.594-.594-1.958-1.122-4.07a102 102 0 0 1-1.232-5.566c-.066-.242-.044-.418.044-.506s.264-.154.528-.154h2.156c.22 0 .396.044.506.132.088.088.154.264.198.484.308 2.046.66 4.18 1.078 6.424h.088c.528-2.728.902-4.686 1.078-5.852.044-.286.11-.462.22-.55.11-.066.33-.11.682-.11m12.941 4.004v1.716c0 .858.132 1.408.396 1.672.198.22.506.308.924.308h.088c.396 0 .704-.088.924-.308.264-.264.396-.814.396-1.672v-1.716c0-.836-.132-1.408-.396-1.672-.22-.198-.528-.308-.924-.308h-.088c-.418 0-.726.11-.924.308-.264.264-.396.836-.396 1.672m6.27.132v1.43c0 1.1-.11 1.936-.33 2.552s-.572 1.1-1.056 1.474c-.726.572-1.848.858-3.388.858h-.264c-1.54 0-2.684-.286-3.388-.858a3.15 3.15 0 0 1-1.056-1.474c-.22-.616-.33-1.452-.33-2.552v-1.408c0-1.078.11-1.914.33-2.53s.572-1.1 1.056-1.496c.704-.572 1.848-.858 3.388-.858h.264c1.54 0 2.662.286 3.388.858.484.396.836.88 1.056 1.474.22.616.33 1.452.33 2.53m8.77 4.048v1.254c0 .33-.066.55-.154.66s-.286.154-.55.154h-1.76c-1.584 0-2.64-.264-3.124-.814-.44-.462-.638-1.342-.638-2.662V11.97h-1.188c-.22 0-.352-.022-.44-.11s-.11-.22-.11-.44v-1.122c0-.264.022-.44.11-.528.066-.088.22-.154.462-.22l1.166-.286V7.108c0-.22.044-.374.154-.484.11-.088.308-.154.594-.154h2.024c.264 0 .462.066.572.154.11.11.176.264.176.484V9.22h1.826c.22 0 .352.044.44.132s.132.242.132.506v1.474q0 .396-.132.528c-.088.088-.22.11-.44.11h-1.826v4.158c0 .396.044.638.176.77.132.154.418.22.858.22h.968c.264 0 .462.066.55.176s.154.33.154.638m10.993-8.052c-.308 2.068-.88 4.356-1.716 6.886a46.7 46.7 0 0 1-3.102 7.172c-.154.308-.352.462-.616.462-.176 0-.374-.044-.638-.176l-1.122-.484c-.396-.176-.572-.352-.572-.55a.76.76 0 0 1 .11-.374c.748-1.518 1.188-2.398 1.276-2.64-.616-.22-1.078-.704-1.43-1.496-.396-.88-.858-2.222-1.364-4.07q-.759-2.772-1.122-4.752c-.044-.22-.022-.374.088-.484.11-.088.308-.154.572-.154h2.002c.242 0 .418.044.528.11s.198.198.242.418c.506 2.772 1.078 5.236 1.716 7.37h.11c.616-1.76 1.188-4.18 1.716-7.304q.033-.33.198-.462c.11-.088.286-.132.506-.132h2.024c.242 0 .418.066.506.154s.11.264.088.506"/></svg>