<svg xmlns="http://www.w3.org/2000/svg" fill="none" viewBox="0 0 211 27"><path fill="#fff" d="M3.983 11.19h.067c.495-.81 1.328-1.215 2.52-1.215h.9c.225 0 .405.045.495.135s.158.248.158.495v1.643c0 .247-.045.405-.135.495q-.135.135-.473.134H6.84c-.832 0-1.395.158-1.71.473-.27.27-.383.787-.383 1.553v5.445c0 .225-.067.405-.18.495-.112.112-.314.157-.585.157h-2.07c-.292 0-.494-.045-.607-.157-.113-.09-.157-.27-.157-.495v-9.743c0-.225.044-.383.157-.473s.315-.157.608-.157h1.08c.247 0 .427.045.54.113q.168.135.27.405zm8.645 3.42v1.755c0 .878.135 1.44.405 1.71.202.225.517.315.945.315h.09c.405 0 .72-.09.945-.315.27-.27.405-.832.405-1.71V14.61c0-.855-.135-1.44-.405-1.71-.225-.203-.54-.315-.945-.315h-.09c-.428 0-.743.112-.945.315-.27.27-.405.855-.405 1.71m6.412.135v1.463c0 1.125-.112 1.98-.337 2.61a3.2 3.2 0 0 1-1.08 1.507c-.743.585-1.89.878-3.465.878h-.27c-1.575 0-2.745-.293-3.465-.878a3.2 3.2 0 0 1-1.08-1.508c-.225-.63-.338-1.485-.338-2.61v-1.44c0-1.102.113-1.957.338-2.587a3.4 3.4 0 0 1 1.08-1.53c.72-.585 1.89-.877 3.465-.877h.27c1.575 0 2.722.292 3.465.877.495.405.855.9 1.08 1.508.225.63.337 1.485.337 2.587m1.634-1.147v-.293c0-1.102.293-1.935.878-2.52.675-.675 1.822-1.012 3.42-1.012h.225c1.26 0 2.362.135 3.285.405q.27.1.337.202c.045.09.068.202.045.382l-.247 1.845c-.045.293-.248.383-.608.293-.9-.203-1.71-.315-2.385-.315h-.022c-.495 0-.855.045-1.035.135-.203.09-.293.247-.293.473v.067c0 .225.068.383.248.473s.517.202 1.035.292l1.057.225c.968.225 1.665.563 2.07 1.012s.608 1.148.608 2.07v.338c0 2.362-1.485 3.532-4.41 3.532h-.225c-1.485 0-2.723-.202-3.758-.607-.202-.067-.337-.157-.382-.27-.045-.09-.045-.27 0-.517l.315-1.485c.067-.428.315-.563.765-.428 1.035.36 1.935.518 2.7.518h.067c.495 0 .833-.046 1.035-.158.18-.09.293-.27.293-.517v-.068c0-.18-.09-.338-.248-.428q-.27-.135-1.08-.337l-.99-.225q-1.485-.337-2.092-1.012c-.405-.45-.608-1.125-.608-2.07m16.428-3.825h.18c1.305 0 2.273.315 2.858.922.54.585.832 1.575.832 2.97v6.683c0 .225-.067.405-.18.495-.112.112-.315.157-.585.157h-2.07c-.292 0-.495-.045-.607-.157-.113-.09-.158-.27-.158-.495V13.98c0-.495-.09-.855-.247-1.035-.18-.18-.518-.293-.99-.293H36c-.495 0-.81.113-.99.293s-.248.54-.248 1.035v6.368c0 .225-.067.405-.18.495-.112.112-.315.157-.585.157h-2.07c-.292 0-.495-.045-.607-.157-.113-.09-.158-.27-.158-.495v-9.743c0-.225.045-.383.158-.473.112-.09.315-.157.607-.157h1.058c.27 0 .45.045.562.113q.17.1.27.405l.135.427h.068c.72-.765 1.732-1.147 3.082-1.147m12.516 10.305h-.045c-.495.765-1.485 1.125-2.948 1.125h-.337c-1.148 0-2.048-.293-2.678-.878-.652-.585-.967-1.462-.967-2.587v-.248c0-1.215.337-2.092 1.035-2.587.697-.495 1.822-.743 3.397-.743h.158c.585 0 1.125.045 1.575.09v-.473c0-.472-.135-.81-.383-.99-.27-.157-.72-.247-1.35-.247-.765 0-1.62.135-2.61.383-.27.067-.472.067-.562 0-.113-.068-.18-.203-.203-.428l-.18-1.192c-.045-.226-.045-.383-.045-.45 0-.27.18-.473.54-.585a14.5 14.5 0 0 1 3.848-.495c1.732 0 2.97.382 3.69 1.102.562.585.855 1.53.855 2.813v6.682c0 .337-.135.54-.36.63-.563.225-1.035.54-1.395.945-.383.405-.563.832-.563 1.26v.068q0 .606.608.607h.067c.27 0 .608-.045.968-.18.112-.023.202-.045.27-.045.112 0 .202.112.27.293l.112.472c.068.315.113.472.113.517 0 .136-.113.248-.315.338a5 5 0 0 1-1.823.338h-.135c-.765 0-1.372-.158-1.777-.495-.405-.338-.608-.81-.608-1.395v-.113c0-.54.18-1.058.563-1.552.36-.495.855-.9 1.44-1.215zm-.81-2.88v-.63q-.372-.069-1.08-.068h-.248q-.81 0-1.147.203c-.225.134-.315.405-.315.81v.09c0 .404.09.674.315.81.202.157.517.224.945.224h.157c.45 0 .788-.112 1.058-.337.202-.18.315-.562.315-1.102M59.804 18.3h.18c.607 0 1.26-.09 1.957-.293.225-.045.36-.067.428-.067.225 0 .36.135.405.383l.202 1.147c.045.315.09.518.09.608 0 .27-.202.472-.585.607-.99.36-2.07.518-3.24.518h-.27c-1.62 0-2.812-.36-3.555-1.125Q54.27 18.93 54.27 16.23v-1.305c0-1.058.09-1.89.27-2.475q.27-.877.877-1.485c.788-.787 2.025-1.192 3.713-1.192h.225c1.35 0 2.52.247 3.465.742.27.157.427.337.427.563 0 .135-.067.36-.18.675l-.427 1.08q-.169.405-.473.405a.9.9 0 0 1-.405-.113c-.72-.293-1.395-.45-2.002-.45h-.09c-.585 0-1.013.157-1.283.427-.337.338-.495 1.035-.495 2.07v.765c0 .923.135 1.553.45 1.89.293.315.788.473 1.463.473M57.036 7.005 60.57 3.99a.63.63 0 0 1 .427-.203c.158 0 .315.113.45.293l1.08 1.395a.66.66 0 0 1 .135.383c0 .18-.135.36-.36.54l-3.555 2.43a.8.8 0 0 1-.45.157c-.18 0-.36-.09-.54-.315l-.675-.787c-.18-.203-.247-.383-.247-.518s.067-.27.202-.36m16.288 7.132v2.88c0 .518.09.878.315 1.08.18.203.518.293 1.013.293h.202c.518 0 .878-.135 1.103-.45q.27-.405.27-1.958v-.967c0-1.125-.113-1.822-.293-2.048-.202-.225-.585-.36-1.125-.36h-.09c-.517 0-.877.113-1.102.338-.203.203-.293.607-.293 1.192m0-3.757h.045q.98-.607 2.565-.607h.203c1.35 0 2.34.405 2.947 1.215.495.697.765 1.935.765 3.712v1.62c0 1.8-.382 3.06-1.147 3.758-.81.765-2.093 1.125-3.848 1.125h-.45c-1.845 0-3.105-.36-3.78-1.103-.607-.652-.9-1.71-.9-3.195V6.42c0-.225.045-.383.158-.495.09-.09.292-.157.585-.157h2.092c.27 0 .473.067.585.157.113.112.18.27.18.495zm13.818 7.92h.248c.765 0 1.575-.09 2.385-.293.225-.045.36-.067.427-.067.225 0 .36.135.405.383l.18 1.125c.045.314.09.517.09.607 0 .27-.202.473-.585.608-1.035.36-2.182.54-3.397.54h-.428q-2.767 0-3.915-1.148a3.23 3.23 0 0 1-.9-1.53c-.157-.585-.225-1.372-.225-2.34v-1.26c0-1.958.45-3.33 1.35-4.14.765-.675 1.935-1.012 3.533-1.012h.315c1.575 0 2.722.382 3.397 1.125.72.81 1.08 2.137 1.08 4.027v1.17c0 .428-.225.63-.652.63h-5.4v.18c0 .54.135.9.45 1.102.292.203.832.293 1.642.293m-2.092-3.915h2.475c.18 0 .27-.09.27-.293v-.36c0-.45-.09-.787-.225-1.034-.18-.27-.54-.405-1.035-.405h-.203c-.45 0-.765.112-.945.315q-.337.405-.337 1.214zm11.633-1.553h-3.578c-.225 0-.382-.022-.472-.112s-.113-.27-.113-.54v-1.553c0-.27.023-.427.113-.517q.135-.135.472-.135h7.605c.225 0 .383.045.495.135.09.09.158.27.158.518v.427c0 .585-.18 1.125-.495 1.598l-3.87 5.49h3.847c.225 0 .36.044.45.134s.135.248.135.518v1.552q0 .405-.135.54c-.09.09-.225.113-.45.113h-7.74c-.472 0-.697-.203-.697-.652v-.518c0-.585.157-1.102.495-1.597zm14.404 1.778v1.755c0 .878.135 1.44.405 1.71.203.225.518.315.945.315h.09c.405 0 .72-.09.945-.315.27-.27.405-.832.405-1.71V14.61c0-.855-.135-1.44-.405-1.71-.225-.203-.54-.315-.945-.315h-.09c-.427 0-.742.112-.945.315-.27.27-.405.855-.405 1.71m6.413.135v1.463c0 1.125-.113 1.98-.338 2.61a3.2 3.2 0 0 1-1.08 1.507c-.742.585-1.89.878-3.465.878h-.27c-1.575 0-2.745-.293-3.465-.878a3.2 3.2 0 0 1-1.08-1.508c-.225-.63-.337-1.485-.337-2.61v-1.44c0-1.102.112-1.957.337-2.587a3.4 3.4 0 0 1 1.08-1.53c.72-.585 1.89-.877 3.465-.877h.27c1.575 0 2.723.292 3.465.877.495.405.855.9 1.08 1.508.225.63.338 1.485.338 2.587m6.899 5.22h-.608c-3.195 0-4.77-1.44-4.77-4.342v-1.508c0-1.485.383-2.565 1.17-3.285.765-.697 1.958-1.057 3.533-1.057h.315c.292-1.62 1.485-2.453 3.6-2.453h1.102c.225 0 .36.045.45.112.068.09.113.248.113.473v1.237c0 .226-.045.36-.135.428-.09.09-.248.112-.45.112h-1.058c-.495 0-.832.113-1.035.338 1.688.45 2.543 1.822 2.543 4.095v1.508c0 1.62-.45 2.7-1.328 3.284.585.316 1.035.72 1.373 1.215.337.495.517 1.035.517 1.598v.158c0 2.227-1.777 3.33-5.287 3.33h-.428c-1.53 0-3.015-.27-4.41-.81-.405-.136-.562-.428-.45-.855l.405-1.44c.113-.428.383-.586.81-.45 1.328.45 2.498.652 3.533.652h.315q1.957 0 1.957-1.148v-.067c0-.427-.225-.81-.675-1.17-.36.045-.742.045-1.102.045m-.383-2.812h.158c.495 0 .832-.09 1.057-.316.248-.247.383-.764.383-1.53v-.877c0-.765-.135-1.26-.383-1.53-.225-.203-.562-.315-1.057-.315h-.158c-.495 0-.855.112-1.057.315-.27.27-.383.765-.383 1.53v.877c0 .766.113 1.283.383 1.53.202.226.562.316 1.057.316m10.001-5.963h.067c.495-.81 1.328-1.215 2.52-1.215h.9c.225 0 .405.045.495.135s.158.248.158.495v1.643c0 .247-.045.405-.135.495q-.135.135-.473.134h-.675c-.832 0-1.395.158-1.71.473-.27.27-.382.787-.382 1.553v5.445c0 .225-.068.405-.18.495-.113.112-.315.157-.585.157h-2.07c-.293 0-.495-.045-.608-.157-.112-.09-.157-.27-.157-.495v-9.743c0-.225.045-.383.157-.473.113-.09.315-.157.608-.157h1.08c.247 0 .427.045.54.113q.168.135.27.405zm11.621 8.888h-.045c-.495.765-1.485 1.125-2.947 1.125h-.338c-1.147 0-2.047-.293-2.677-.878-.653-.585-.968-1.462-.968-2.587v-.248c0-1.215.338-2.092 1.035-2.587.698-.495 1.823-.743 3.398-.743h.157c.585 0 1.125.045 1.575.09v-.473c0-.472-.135-.81-.382-.99-.27-.157-.72-.247-1.35-.247-.765 0-1.62.135-2.61.383-.27.067-.473.067-.563 0-.112-.068-.18-.203-.202-.428l-.18-1.192c-.045-.203-.045-.36-.045-.45 0-.27.18-.473.54-.585a14.5 14.5 0 0 1 3.847-.495c1.733 0 2.97.382 3.69 1.102.563.585.855 1.53.855 2.813v6.682c0 .225-.067.405-.18.495s-.315.135-.585.135h-1.057c-.27 0-.45-.023-.563-.09s-.202-.203-.27-.427zm-.81-2.88v-.63q-.37-.069-1.08-.068h-.247q-.81 0-1.148.203c-.225.134-.315.405-.315.81v.09c0 .404.09.674.315.81.203.157.518.224.945.224h.158c.45 0 .787-.112 1.057-.337.203-.18.315-.562.315-1.102m11.674-7.425h.18c1.305 0 2.272.315 2.857.922.54.585.833 1.575.833 2.97v6.683c0 .225-.068.405-.18.495-.113.112-.315.157-.585.157h-2.07c-.293 0-.495-.045-.608-.157-.112-.09-.157-.27-.157-.495V13.98c0-.495-.09-.855-.248-1.035-.18-.18-.517-.293-.99-.293h-.135c-.495 0-.81.113-.99.293s-.247.54-.247 1.035v6.368c0 .225-.068.405-.18.495-.113.112-.315.157-.585.157h-2.07c-.293 0-.495-.045-.608-.157-.112-.09-.157-.27-.157-.495v-9.743c0-.225.045-.383.157-.473.113-.09.315-.157.608-.157h1.057c.27 0 .45.045.563.113q.168.1.27.405l.135.427h.067c.72-.765 1.733-1.147 3.083-1.147m9.658.854v9.72c0 .226-.068.406-.18.495-.113.113-.315.158-.585.158h-2.07c-.293 0-.495-.045-.608-.157-.112-.09-.157-.27-.157-.495v-9.72c0-.226.045-.383.157-.495.113-.09.315-.158.608-.158h2.07c.27 0 .472.068.585.158.112.112.18.27.18.495m-1.665-1.507h-.27c-1.215 0-1.823-.607-1.823-1.867V7.14c0-1.237.608-1.867 1.823-1.867h.27c1.215 0 1.822.63 1.822 1.867v.113c0 1.26-.607 1.867-1.822 1.867m9.171 9.18h.18c.608 0 1.26-.09 1.958-.293.225-.045.36-.067.427-.067.225 0 .36.135.405.383l.203 1.147c.045.315.09.518.09.608 0 .27-.203.472-.585.607-.99.36-2.07.518-3.24.518h-.27c-1.62 0-2.813-.36-3.555-1.125q-1.148-1.148-1.148-3.848v-1.305c0-1.058.09-1.89.27-2.475a3.5 3.5 0 0 1 .878-1.485c.787-.787 2.025-1.192 3.712-1.192h.225c1.35 0 2.52.247 3.465.742.27.157.428.337.428.563 0 .135-.068.36-.18.675l-.428 1.08q-.168.405-.472.405a.9.9 0 0 1-.405-.113c-.72-.293-1.395-.45-2.003-.45h-.09c-.585 0-1.012.157-1.282.427-.338.338-.495 1.035-.495 2.07v.765c0 .923.135 1.553.45 1.89.292.315.787.473 1.462.473m8.71-5.468h-3.577c-.225 0-.383-.022-.473-.112s-.112-.27-.112-.54v-1.553c0-.27.022-.427.112-.517q.135-.135.473-.135h7.605c.225 0 .382.045.495.135.09.09.157.27.157.518v.427c0 .585-.18 1.125-.495 1.598l-3.87 5.49h3.848c.225 0 .36.044.45.134s.135.248.135.518v1.552q0 .405-.135.54c-.09.09-.225.113-.45.113h-7.74c-.473 0-.698-.203-.698-.652v-.518c0-.585.158-1.102.495-1.597zm11.619 5.468h.248c.765 0 1.575-.09 2.385-.293.225-.045.36-.067.427-.067.225 0 .36.135.405.383l.18 1.125c.045.314.09.517.09.607 0 .27-.202.473-.585.608-1.035.36-2.182.54-3.397.54h-.428q-2.767 0-3.915-1.148a3.23 3.23 0 0 1-.9-1.53c-.157-.585-.225-1.372-.225-2.34v-1.26c0-1.958.45-3.33 1.35-4.14.765-.675 1.935-1.012 3.533-1.012h.315c1.575 0 2.722.382 3.397 1.125.72.81 1.08 2.137 1.08 4.027v1.17c0 .428-.225.63-.652.63h-5.4v.18c0 .54.135.9.45 1.102.292.203.832.293 1.642.293m-2.092-3.915h2.475c.18 0 .27-.09.27-.293v-.36c0-.45-.09-.787-.225-1.034-.18-.27-.54-.405-1.035-.405h-.203c-.45 0-.765.112-.945.315q-.337.405-.337 1.214zm13.905-4.612h.18c1.305 0 2.273.315 2.858.922.54.585.832 1.575.832 2.97v6.683c0 .225-.067.405-.18.495-.112.112-.315.157-.585.157h-2.07c-.292 0-.495-.045-.607-.157-.113-.09-.158-.27-.158-.495V13.98c0-.495-.09-.855-.247-1.035-.18-.18-.518-.293-.99-.293h-.135c-.495 0-.81.113-.99.293s-.248.54-.248 1.035v6.368c0 .225-.067.405-.18.495-.112.112-.315.157-.585.157h-2.07c-.292 0-.495-.045-.607-.157-.113-.09-.158-.27-.158-.495v-9.743c0-.225.045-.383.158-.473.112-.09.315-.157.607-.157h1.058c.27 0 .45.045.562.113q.17.1.27.405l.135.427h.068c.72-.765 1.732-1.147 3.082-1.147m-3.172-2.768 3.532-3.015a.63.63 0 0 1 .428-.203c.157 0 .315.113.45.293l1.08 1.395a.66.66 0 0 1 .135.383c0 .18-.135.36-.36.54l-3.555 2.43c-.18.112-.315.157-.45.157-.18 0-.36-.09-.54-.315l-.675-.787c-.18-.203-.248-.383-.248-.518s.068-.27.203-.36"/></svg>