<svg xmlns="http://www.w3.org/2000/svg" fill="none" viewBox="0 0 271 26"><path fill="#fff" d="M6.93 9.022h.176c1.276 0 2.222.308 2.794.902.528.572.814 1.54.814 2.904v6.534c0 .22-.066.396-.176.484-.11.11-.308.154-.572.154H7.942c-.286 0-.484-.044-.594-.154-.11-.088-.154-.264-.154-.484v-6.226c0-.484-.088-.836-.242-1.012-.176-.176-.506-.286-.968-.286h-.132c-.484 0-.792.11-.968.286s-.242.528-.242 1.012v6.226c0 .22-.066.396-.176.484-.11.11-.308.154-.572.154H1.87c-.286 0-.484-.044-.594-.154-.11-.088-.154-.264-.154-.484V9.836c0-.22.044-.374.154-.462s.308-.154.594-.154h1.034c.264 0 .44.044.55.11q.165.099.264.396l.132.418h.066C4.62 9.396 5.61 9.022 6.93 9.022m12.238 10.076h-.044c-.484.748-1.452 1.1-2.883 1.1h-.33c-1.121 0-2.001-.286-2.617-.858-.639-.572-.947-1.43-.947-2.53v-.242c0-1.188.33-2.046 1.013-2.53.681-.484 1.782-.726 3.322-.726h.154c.572 0 1.1.044 1.54.088v-.462c0-.462-.133-.792-.375-.968-.264-.154-.704-.242-1.32-.242-.748 0-1.584.132-2.552.374-.263.066-.461.066-.55 0-.11-.066-.176-.198-.197-.418l-.176-1.166c-.044-.198-.044-.352-.044-.44 0-.264.175-.462.527-.572a14.2 14.2 0 0 1 3.762-.484c1.694 0 2.904.374 3.608 1.078.55.572.836 1.496.836 2.75v6.534c0 .22-.066.396-.175.484-.11.088-.308.132-.572.132h-1.035c-.264 0-.44-.022-.55-.088s-.197-.198-.264-.418zm-.793-2.816v-.616q-.362-.066-1.055-.066h-.242q-.793 0-1.122.198c-.22.132-.308.396-.308.792v.088c0 .396.088.66.308.792.198.154.506.22.924.22h.154c.44 0 .77-.11 1.034-.33.197-.176.307-.55.307-1.078m13.896-.55v3.63c0 .22-.066.396-.176.484-.11.11-.308.154-.572.154h-2.024c-.286 0-.484-.044-.594-.154-.11-.088-.154-.264-.154-.484V5.744c0-.22.044-.374.154-.484.11-.088.308-.154.594-.154h2.024c.264 0 .462.066.572.154.11.11.176.264.176.484v7.172h.154l2.09-3.19c.198-.33.506-.506.924-.506h2.552c.242 0 .374.088.374.264 0 .088-.066.242-.176.418l-2.53 3.784c-.198.308-.286.528-.286.66 0 .154.088.374.286.66l2.706 4.268c.088.176.132.286.132.374 0 .242-.154.352-.462.352h-2.442c-.308 0-.55-.022-.682-.11q-.198-.099-.396-.462l-2.09-3.696zm10.37-1.98v1.716c0 .858.131 1.408.395 1.672.198.22.506.308.924.308h.088c.396 0 .704-.088.924-.308.264-.264.396-.814.396-1.672v-1.716c0-.836-.132-1.408-.396-1.672-.22-.198-.528-.308-.924-.308h-.088c-.418 0-.726.11-.924.308-.264.264-.396.836-.396 1.672m6.27.132v1.43c0 1.1-.11 1.936-.33 2.552s-.573 1.1-1.057 1.474c-.726.572-1.848.858-3.388.858h-.264c-1.54 0-2.684-.286-3.388-.858a3.15 3.15 0 0 1-1.056-1.474c-.22-.616-.33-1.452-.33-2.552v-1.408c0-1.078.11-1.914.33-2.53s.572-1.1 1.056-1.496c.704-.572 1.848-.858 3.388-.858h.264c1.54 0 2.662.286 3.388.858.484.396.836.88 1.056 1.474.22.616.33 1.452.33 2.53m7.69-4.862h.177c1.276 0 2.222.308 2.794.902.528.572.814 1.54.814 2.904v6.534c0 .22-.066.396-.176.484-.11.11-.308.154-.572.154h-2.024c-.286 0-.484-.044-.594-.154-.11-.088-.154-.264-.154-.484v-6.226c0-.484-.088-.836-.242-1.012-.176-.176-.506-.286-.968-.286h-.132c-.484 0-.792.11-.968.286s-.242.528-.242 1.012v6.226c0 .22-.066.396-.176.484-.11.11-.308.154-.572.154h-2.024c-.286 0-.484-.044-.594-.154-.11-.088-.154-.264-.154-.484V9.836c0-.22.044-.374.154-.462s.308-.154.594-.154h1.034c.264 0 .44.044.55.11q.165.099.264.396l.132.418h.066c.704-.748 1.694-1.122 3.014-1.122m10.94 8.338h.176a6.9 6.9 0 0 0 1.914-.286 3 3 0 0 1 .418-.066c.22 0 .352.132.396.374l.198 1.122c.044.308.088.506.088.594 0 .264-.198.462-.572.594-.968.352-2.024.506-3.168.506h-.264c-1.584 0-2.75-.352-3.476-1.1q-1.122-1.122-1.122-3.762V14.06c0-1.034.088-1.848.264-2.42a3.45 3.45 0 0 1 .858-1.452c.77-.77 1.98-1.166 3.63-1.166h.22c1.32 0 2.464.242 3.388.726.264.154.418.33.418.55 0 .132-.066.352-.176.66l-.418 1.056q-.165.396-.462.396a.9.9 0 0 1-.396-.11c-.704-.286-1.364-.44-1.958-.44h-.088c-.572 0-.99.154-1.254.418-.33.33-.484 1.012-.484 2.024v.748c0 .902.132 1.518.44 1.848.286.308.77.462 1.43.462m8.495-7.502v9.504c0 .22-.066.396-.176.484-.11.11-.308.154-.572.154h-2.024c-.286 0-.484-.044-.594-.154-.11-.088-.154-.264-.154-.484V9.858c0-.22.044-.374.154-.484.11-.088.308-.154.594-.154h2.024c.264 0 .462.066.572.154.11.11.176.264.176.484m-1.628-1.474h-.264c-1.188 0-1.782-.594-1.782-1.826v-.11c0-1.21.594-1.826 1.782-1.826h.264c1.188 0 1.782.616 1.782 1.826v.11c0 1.232-.594 1.826-1.782 1.826m9.143 8.976h.242c.748 0 1.54-.088 2.332-.286a3 3 0 0 1 .418-.066c.22 0 .352.132.396.374l.176 1.1c.044.308.088.506.088.594 0 .264-.198.462-.572.594-1.012.352-2.134.528-3.322.528h-.418q-2.706 0-3.828-1.122a3.15 3.15 0 0 1-.88-1.496c-.154-.572-.22-1.342-.22-2.288V14.06c0-1.914.44-3.256 1.32-4.048.748-.66 1.892-.99 3.454-.99h.308c1.54 0 2.662.374 3.322 1.1.704.792 1.056 2.09 1.056 3.938v1.144c0 .418-.22.616-.638.616h-5.28v.176c0 .528.132.88.44 1.078.286.198.814.286 1.606.286m-2.046-3.828h2.42c.176 0 .264-.088.264-.286v-.352c0-.44-.088-.77-.22-1.012-.176-.264-.528-.396-1.012-.396h-.198c-.44 0-.748.11-.924.308q-.33.396-.33 1.188zm15.748.22v1.716c0 .858.132 1.408.396 1.672.198.22.506.308.924.308h.088c.396 0 .704-.088.924-.308.264-.264.396-.814.396-1.672v-1.716c0-.836-.132-1.408-.396-1.672-.22-.198-.528-.308-.924-.308h-.088c-.418 0-.726.11-.924.308-.264.264-.396.836-.396 1.672m6.27.132v1.43c0 1.1-.11 1.936-.33 2.552s-.572 1.1-1.056 1.474c-.726.572-1.848.858-3.388.858h-.264c-1.54 0-2.684-.286-3.388-.858a3.15 3.15 0 0 1-1.056-1.474c-.22-.616-.33-1.452-.33-2.552v-1.408c0-1.078.11-1.914.33-2.53s.572-1.1 1.056-1.496c.704-.572 1.848-.858 3.388-.858h.264c1.54 0 2.662.286 3.388.858.484.396.836.88 1.056 1.474.22.616.33 1.452.33 2.53m1.598-1.122v-.286c0-1.078.286-1.892.858-2.464.66-.66 1.782-.99 3.344-.99h.22c1.232 0 2.31.132 3.212.396q.264.099.33.198c.044.088.066.198.044.374l-.242 1.804c-.044.286-.242.374-.594.286-.88-.198-1.672-.308-2.332-.308h-.022c-.484 0-.836.044-1.012.132-.198.088-.286.242-.286.462v.066c0 .22.066.374.242.462s.506.198 1.012.286l1.034.22c.946.22 1.628.55 2.024.99s.594 1.122.594 2.024v.33c0 2.31-1.452 3.454-4.312 3.454h-.22c-1.452 0-2.662-.198-3.674-.594-.198-.066-.33-.154-.374-.264-.044-.088-.044-.264 0-.506l.308-1.452c.066-.418.308-.55.748-.418 1.012.352 1.892.506 2.64.506h.066c.484 0 .814-.044 1.012-.154.176-.088.286-.264.286-.506v-.066a.47.47 0 0 0-.242-.418q-.264-.132-1.056-.33l-.968-.22q-1.452-.33-2.046-.99c-.396-.44-.594-1.1-.594-2.024m13.841-.748h-3.498c-.22 0-.374-.022-.462-.11s-.11-.264-.11-.528V9.858c0-.264.022-.418.11-.506q.132-.132.462-.132h7.436c.22 0 .374.044.484.132.088.088.154.264.154.506v.418c0 .572-.176 1.1-.484 1.562l-3.784 5.368h3.762c.22 0 .352.044.44.132s.132.242.132.506v1.518q0 .396-.132.528c-.088.088-.22.11-.44.11h-7.568c-.462 0-.682-.198-.682-.638v-.506c0-.572.154-1.078.484-1.562zm11.185 5.346h.176a6.9 6.9 0 0 0 1.914-.286 3 3 0 0 1 .418-.066c.22 0 .352.132.396.374l.198 1.122c.044.308.088.506.088.594 0 .264-.198.462-.572.594-.968.352-2.024.506-3.168.506h-.264c-1.584 0-2.75-.352-3.476-1.1q-1.122-1.122-1.122-3.762V14.06c0-1.034.088-1.848.264-2.42a3.45 3.45 0 0 1 .858-1.452c.77-.77 1.98-1.166 3.63-1.166h.22c1.32 0 2.464.242 3.388.726.264.154.418.33.418.55 0 .132-.066.352-.176.66l-.418 1.056q-.165.396-.462.396a.9.9 0 0 1-.396-.11c-.704-.286-1.364-.44-1.958-.44h-.088c-.572 0-.99.154-1.254.418-.33.33-.484 1.012-.484 2.024v.748c0 .902.132 1.518.44 1.848.286.308.77.462 1.43.462m8.516-5.346h-3.498c-.22 0-.374-.022-.462-.11s-.11-.264-.11-.528V9.858c0-.264.022-.418.11-.506q.132-.132.462-.132h7.436c.22 0 .374.044.484.132.088.088.154.264.154.506v.418c0 .572-.176 1.1-.484 1.562l-3.784 5.368h3.762c.22 0 .352.044.44.132s.132.242.132.506v1.518q0 .396-.132.528c-.088.088-.22.11-.44.11h-7.568c-.462 0-.682-.198-.682-.638v-.506c0-.572.154-1.078.484-1.562zm11.361 5.346h.242c.748 0 1.54-.088 2.332-.286a3 3 0 0 1 .418-.066c.22 0 .352.132.396.374l.176 1.1c.044.308.088.506.088.594 0 .264-.198.462-.572.594a3.2 3.2 0 0 0-1.408 1.056c-.374.484-.55.968-.55 1.408v.066c0 .418.198.616.594.616h.11c.242 0 .55-.044.902-.176.11-.022.198-.044.264-.044.11 0 .198.11.264.286l.11.462c.066.308.11.462.11.506 0 .132-.11.242-.308.33q-.858.33-1.782.33h-.132c-.77 0-1.342-.154-1.738-.484s-.594-.792-.594-1.408v-.066c0-.396.132-.836.418-1.276s.66-.792 1.144-1.1c-.176.022-.418.022-.726.022h-.418q-2.706 0-3.828-1.122a3.15 3.15 0 0 1-.88-1.496c-.154-.572-.22-1.342-.22-2.288V14.06c0-1.914.44-3.256 1.32-4.048.748-.66 1.892-.99 3.454-.99h.308c1.54 0 2.662.374 3.322 1.1.704.792 1.056 2.09 1.056 3.938v1.144c0 .418-.22.616-.638.616h-5.28v.176c0 .528.132.88.44 1.078.286.198.814.286 1.606.286m-2.046-3.828h2.42c.176 0 .264-.088.264-.286v-.352c0-.44-.088-.77-.22-1.012-.176-.264-.528-.396-1.012-.396h-.198c-.44 0-.748.11-.924.308q-.33.396-.33 1.188zm13.817 2.574v-2.794c0-.55-.088-.946-.264-1.166-.198-.22-.55-.352-1.034-.352h-.22c-.484 0-.814.132-1.012.374-.22.242-.308.924-.308 2.068v.968c0 1.056.11 1.716.33 1.936.176.22.506.308 1.012.308h.242c.418 0 .726-.088.946-.286.198-.198.308-.55.308-1.056m-.044-6.688h.044V5.744c0-.22.044-.374.154-.484.11-.088.308-.154.594-.154h2.046c.264 0 .462.066.572.154.088.11.154.264.154.484v10.01c0 1.54-.286 2.596-.858 3.212-.418.44-.924.77-1.518.946-.616.198-1.43.286-2.464.286h-.374c-1.628 0-2.794-.33-3.542-.99-.77-.66-1.144-1.892-1.144-3.718v-1.76c0-1.76.352-2.992 1.1-3.696.704-.66 1.672-1.012 2.926-1.012h.264q1.254 0 2.046.396m11.468-.396h.176c1.276 0 2.222.308 2.794.902.528.572.814 1.54.814 2.904v6.534c0 .22-.066.396-.176.484-.11.11-.308.154-.572.154h-2.024c-.286 0-.484-.044-.594-.154-.11-.088-.154-.264-.154-.484v-6.226c0-.484-.088-.836-.242-1.012-.176-.176-.506-.286-.968-.286h-.132c-.484 0-.792.11-.968.286s-.242.528-.242 1.012v6.226c0 .22-.066.396-.176.484-.11.11-.308.154-.572.154h-2.024c-.286 0-.484-.044-.594-.154-.11-.088-.154-.264-.154-.484V9.836c0-.22.044-.374.154-.462s.308-.154.594-.154h1.034c.264 0 .44.044.55.11q.165.099.264.396l.132.418h.066c.704-.748 1.694-1.122 3.014-1.122m9.07 4.73v1.716c0 .858.132 1.408.396 1.672.198.22.506.308.924.308h.088c.396 0 .704-.088.924-.308.264-.264.396-.814.396-1.672v-1.716c0-.836-.132-1.408-.396-1.672-.22-.198-.528-.308-.924-.308h-.088c-.418 0-.726.11-.924.308-.264.264-.396.836-.396 1.672m6.27.132v1.43c0 1.1-.11 1.936-.33 2.552s-.572 1.1-1.056 1.474c-.726.572-1.848.858-3.388.858h-.264c-1.54 0-2.684-.286-3.388-.858a3.15 3.15 0 0 1-1.056-1.474c-.22-.616-.33-1.452-.33-2.552v-1.408c0-1.078.11-1.914.33-2.53s.572-1.1 1.056-1.496c.704-.572 1.848-.858 3.388-.858h.264c1.54 0 2.662.286 3.388.858.484.396.836.88 1.056 1.474.22.616.33 1.452.33 2.53m1.597-1.122v-.286c0-1.078.286-1.892.858-2.464.66-.66 1.782-.99 3.344-.99h.22c1.232 0 2.31.132 3.212.396q.264.099.33.198c.044.088.066.198.044.374l-.242 1.804c-.044.286-.242.374-.594.286-.88-.198-1.672-.308-2.332-.308h-.022c-.484 0-.836.044-1.012.132-.198.088-.286.242-.286.462v.066c0 .22.066.374.242.462s.506.198 1.012.286l1.034.22c.946.22 1.628.55 2.024.99s.594 1.122.594 2.024v.33c0 2.31-1.452 3.454-4.312 3.454h-.22c-1.452 0-2.662-.198-3.674-.594-.198-.066-.33-.154-.374-.264-.044-.088-.044-.264 0-.506l.308-1.452c.066-.418.308-.55.748-.418 1.012.352 1.892.506 2.64.506h.066c.484 0 .814-.044 1.012-.154.176-.088.286-.264.286-.506v-.066a.47.47 0 0 0-.242-.418q-.264-.132-1.056-.33l-.968-.22q-1.452-.33-2.046-.99c-.396-.44-.594-1.1-.594-2.024m2.046-6.446 3.454-2.948a.62.62 0 0 1 .418-.198c.154 0 .308.11.44.286l1.056 1.364a.65.65 0 0 1 .132.374c0 .176-.132.352-.352.528l-3.476 2.376c-.176.11-.308.154-.44.154-.176 0-.352-.088-.528-.308l-.66-.77c-.176-.198-.242-.374-.242-.506s.066-.264.198-.352m13.269 11.044h.176a6.9 6.9 0 0 0 1.914-.286 3 3 0 0 1 .418-.066c.22 0 .352.132.396.374l.198 1.122c.044.308.088.506.088.594 0 .264-.198.462-.572.594-.968.352-2.024.506-3.168.506h-.264c-1.584 0-2.75-.352-3.476-1.1q-1.122-1.122-1.122-3.762V14.06c0-1.034.088-1.848.264-2.42a3.45 3.45 0 0 1 .858-1.452c.77-.77 1.98-1.166 3.63-1.166h.22c1.32 0 2.464.242 3.388.726.264.154.418.33.418.55 0 .132-.066.352-.176.66l-.418 1.056q-.165.396-.462.396a.9.9 0 0 1-.396-.11c-.704-.286-1.364-.44-1.958-.44h-.088c-.572 0-.99.154-1.254.418-.33.33-.484 1.012-.484 2.024v.748c0 .902.132 1.518.44 1.848.286.308.77.462 1.43.462m8.494-7.502v9.504c0 .22-.066.396-.176.484-.11.11-.308.154-.572.154h-2.024c-.286 0-.484-.044-.594-.154-.11-.088-.154-.264-.154-.484V9.858c0-.22.044-.374.154-.484.11-.088.308-.154.594-.154h2.024c.264 0 .462.066.572.154.11.11.176.264.176.484m-1.628-1.474h-.264c-1.188 0-1.782-.594-1.782-1.826v-.11c0-1.21.594-1.826 1.782-1.826h.264c1.188 0 1.782.616 1.782 1.826v.11c0 1.232-.594 1.826-1.782 1.826m7.098 5.368v1.716c0 .858.132 1.408.396 1.672.198.22.506.308.924.308h.088c.396 0 .704-.088.924-.308.264-.264.396-.814.396-1.672v-1.716c0-.836-.132-1.408-.396-1.672-.22-.198-.528-.308-.924-.308h-.088c-.418 0-.726.11-.924.308-.264.264-.396.836-.396 1.672m6.27.132v1.43c0 1.1-.11 1.936-.33 2.552s-.572 1.1-1.056 1.474c-.726.572-1.848.858-3.388.858h-.264c-1.54 0-2.684-.286-3.388-.858a3.15 3.15 0 0 1-1.056-1.474c-.22-.616-.33-1.452-.33-2.552v-1.408c0-1.078.11-1.914.33-2.53s.572-1.1 1.056-1.496c.704-.572 1.848-.858 3.388-.858h.264c1.54 0 2.662.286 3.388.858.484.396.836.88 1.056 1.474.22.616.33 1.452.33 2.53m7.516-4.136h1.892c.308 0 .528.044.638.132s.198.264.242.528c0 .088.396 2.046 1.166 5.852h.066c.396-2.31.748-4.444 1.034-6.424.022-.242.088-.396.176-.484q.132-.132.462-.132h2.244c.242 0 .396.066.484.154.066.11.088.286.044.506-.352 1.716-.792 3.608-1.276 5.676s-.836 3.366-1.056 3.916c-.088.22-.198.374-.308.44s-.286.088-.506.088h-2.42c-.462 0-.748-.154-.836-.506-.418-1.496-.77-3.388-1.078-5.676h-.088a60 60 0 0 1-1.1 5.676c-.088.352-.352.506-.792.506h-2.376c-.44 0-.726-.154-.836-.484-.22-.594-.594-1.958-1.122-4.07a102 102 0 0 1-1.232-5.566c-.066-.242-.044-.418.044-.506s.264-.154.528-.154h2.156c.22 0 .396.044.506.132.088.088.154.264.198.484.308 2.046.66 4.18 1.078 6.424h.088c.528-2.728.902-4.686 1.078-5.852.044-.286.11-.462.22-.55.11-.066.33-.11.682-.11m19.379.132c-.308 2.068-.88 4.356-1.716 6.886a46.7 46.7 0 0 1-3.102 7.172c-.154.308-.352.462-.616.462-.176 0-.374-.044-.638-.176l-1.122-.484c-.396-.176-.572-.352-.572-.55a.76.76 0 0 1 .11-.374c.748-1.518 1.188-2.398 1.276-2.64-.616-.22-1.078-.704-1.43-1.496-.396-.88-.858-2.222-1.364-4.07q-.759-2.772-1.122-4.752c-.044-.22-.022-.374.088-.484.11-.088.308-.154.572-.154h2.002c.242 0 .418.044.528.11s.198.198.242.418c.506 2.772 1.078 5.236 1.716 7.37h.11c.616-1.76 1.188-4.18 1.716-7.304q.033-.33.198-.462c.11-.088.286-.132.506-.132h2.024c.242 0 .418.066.506.154s.11.264.088.506m10.79 3.256v6.226c0 .22-.066.396-.176.484-.11.11-.308.154-.572.154h-2.024c-.286 0-.484-.044-.594-.154-.11-.088-.154-.264-.154-.484v-6.226c0-.484-.088-.836-.242-1.012-.176-.176-.506-.286-.968-.286h-.044c-.484 0-.792.11-.968.286s-.242.528-.242 1.012v6.226c0 .22-.066.396-.176.484-.11.11-.308.154-.572.154h-2.024c-.286 0-.484-.044-.594-.154-.11-.088-.154-.264-.154-.484V9.836c0-.22.044-.374.154-.462s.308-.154.594-.154h1.034c.264 0 .44.044.55.11q.165.099.264.396l.132.418h.066c.704-.748 1.694-1.122 3.014-1.122h.088c1.254 0 2.222.352 2.904 1.012.704-.66 1.716-1.012 2.992-1.012h.088c1.276 0 2.222.308 2.794.902.528.572.814 1.54.814 2.904v6.534c0 .22-.066.396-.176.484-.11.11-.308.154-.572.154h-2.024c-.286 0-.484-.044-.594-.154-.11-.088-.154-.264-.154-.484v-6.226c0-.484-.088-.836-.242-1.012-.176-.176-.506-.286-.968-.286h-.044c-.484 0-.792.11-.968.286s-.242.528-.242 1.012"/></svg>