<svg xmlns="http://www.w3.org/2000/svg" fill="none" viewBox="0 0 272 48"><path fill="#000" d="M1.27 5.63v.27c0 1.1.15 1.82.45 2.17.26.31.66.46 1.19.46.58 0 .99-.17 1.25-.52.26-.36.39-1.06.39-2.11v-.27c0-.52-.03-.95-.08-1.29s-.15-.61-.31-.83C3.9 3.17 3.49 3 2.91 3q-.855 0-1.23.51c-.28.36-.41 1.07-.41 2.12m4.01-.12v.52c0 1.16-.21 1.96-.61 2.42-.38.43-.96.64-1.76.64-.75 0-1.31-.19-1.69-.57C.76 8.06.54 7.23.54 6.03v-.52c0-1.16.21-1.98.63-2.45.37-.41.95-.62 1.74-.62.78 0 1.36.21 1.74.62.42.47.63 1.29.63 2.45m3.24 3.58c-.64 0-1.1-.17-1.37-.53h-.02v2.1c0 .08-.04.11-.1.11h-.45c-.07 0-.1-.03-.1-.11V4.21c0-.07.03-.11.1-.11h.3c.07 0 .11.04.12.11l.06.4h.02c.28-.4.77-.6 1.45-.6.65 0 1.12.18 1.4.54s.43.92.43 1.7v.52q0 1.155-.42 1.74c-.28.39-.75.58-1.42.58m-.08-4.52c-.88 0-1.31.42-1.31 1.26v1.41c0 .43.11.75.35.97.23.22.56.32.98.32.44 0 .77-.12.97-.37q.27-.33.27-1.44v-.38c0-.7-.11-1.18-.31-1.43-.2-.22-.51-.34-.95-.34M11.98 9h-.32c-.11 0-.16-.04-.16-.13V4.21c0-.07.04-.11.12-.11h.29c.06 0 .1.04.12.11l.04.52h.02c.22-.42.61-.63 1.16-.63h.26c.08 0 .13.04.13.12v.34c0 .08-.05.11-.13.11h-.27c-.44 0-.75.14-.91.41-.12.2-.18.46-.18.79v3c0 .09-.06.13-.17.13m2.939-2.55v.19c0 .5.03.86.1 1.1.15.53.54.79 1.16.79s1.01-.26 1.17-.79c.06-.24.1-.6.1-1.1v-.19c0-.49-.04-.86-.1-1.1q-.225-.78-1.17-.78c-.63 0-1.02.26-1.16.78-.07.24-.1.61-.1 1.1m3.19-.1v.4c0 .9-.18 1.53-.52 1.87-.32.32-.79.47-1.41.47s-1.08-.15-1.4-.47c-.35-.34-.52-.97-.52-1.87v-.4c0-.9.17-1.53.52-1.88.31-.3.78-.46 1.4-.46s1.09.16 1.41.46c.34.35.52.98.52 1.88m4.096 2.06.07.23q.03.105 0 .15c-.02.03-.07.06-.17.1-.33.14-.71.2-1.14.2-.62 0-1.08-.14-1.38-.43-.39-.35-.58-1.01-.58-1.98v-.33c0-.88.2-1.51.61-1.89q.48-.45 1.35-.45c.26 0 .53.05.79.13.26.09.48.19.64.31.05.04.05.1.01.16l-.17.28c-.04.06-.09.07-.17.02-.38-.22-.74-.34-1.1-.34-.39 0-.69.11-.9.31-.27.27-.4.79-.4 1.56v.17c0 .76.1 1.28.32 1.54.2.26.53.38 1.01.38.32 0 .64-.06.97-.19.13-.05.21-.03.24.07m4.53-2.69v.82c0 .14-.03.24-.08.3-.06.06-.15.08-.29.08h-2.58c.02.6.12 1.02.32 1.26.19.24.52.35.99.35.39 0 .76-.06 1.1-.2.13-.05.21-.03.24.07l.07.23c.02.06.01.11-.01.15q-.03.06-.21.12c-.34.13-.74.19-1.19.19-.73 0-1.24-.18-1.53-.55-.3-.36-.44-.96-.44-1.79v-.4c0-.8.14-1.39.43-1.77.28-.38.77-.57 1.45-.57.57 0 1 .14 1.29.41.29.29.44.72.44 1.3m-1.72-1.15c-.44 0-.76.13-.94.38-.19.26-.29.72-.29 1.4h2.15c.05 0 .09 0 .11-.02s.03-.06.03-.13v-.38c0-.43-.08-.74-.23-.93-.18-.21-.45-.32-.83-.32m6.622 4.26c0 .12-.07.17-.19.17h-.28q-.12 0-.15-.03c-.02-.02-.03-.06-.03-.14V5.91c0-.59-.16-.98-.46-1.17-.2-.12-.47-.19-.81-.19-.47 0-.8.14-.98.42q-.18.27-.18.78v3.1q0 .15-.18.15h-.31c-.11 0-.16-.05-.16-.15V4.21c0-.07.03-.11.1-.11h.3c.07 0 .11.04.12.11l.05.4h.02c.08-.14.22-.26.41-.38.25-.14.56-.22.94-.22.77 0 1.29.23 1.55.67q.24.42.24 1.29zm3.418.17h-.47c-.52 0-.9-.13-1.12-.4-.22-.26-.33-.64-.33-1.15V4.67h-.61c-.07 0-.1-.03-.1-.11v-.2c0-.08.03-.12.1-.13l.61-.13V2.97q0-.12.12-.12h.42c.07 0 .11.04.11.12V4.1h1.17c.06 0 .1.04.1.1v.37c0 .07-.04.1-.1.1h-1.17v2.7c0 .4.06.68.18.82.12.17.37.25.73.25h.36c.08 0 .12.04.12.11v.34c0 .08-.04.11-.12.11m1.495-2.55v.19c0 .5.03.86.1 1.1.15.53.54.79 1.16.79s1.01-.26 1.17-.79c.06-.24.1-.6.1-1.1v-.19c0-.49-.04-.86-.1-1.1q-.225-.78-1.17-.78c-.63 0-1.02.26-1.16.78-.07.24-.1.61-.1 1.1m3.19-.1v.4c0 .9-.18 1.53-.52 1.87-.32.32-.79.47-1.41.47s-1.08-.15-1.4-.47c-.35-.34-.52-.97-.52-1.87v-.4c0-.9.17-1.53.52-1.88.31-.3.78-.46 1.4-.46s1.09.16 1.41.46c.34.35.52.98.52 1.88m3.555-2.01h.45c.18 0 .3.1.34.28.29 1.44.59 2.73.91 3.87h.05c.37-1.42.68-2.85.93-4.27 0-.06.02-.09.04-.1s.06-.02.14-.02h.31q.105 0 .15.03c.02.02.03.05.03.11q-.33 1.68-1.02 4.35c-.08.28-.22.41-.42.41h-.34c-.13 0-.23-.03-.29-.09-.07-.06-.12-.16-.16-.32-.32-1.18-.6-2.4-.86-3.65h-.07c-.26 1.25-.55 2.47-.86 3.65-.04.16-.1.26-.16.32-.07.06-.17.09-.29.09h-.34c-.21 0-.35-.13-.42-.41q-.705-2.67-1.02-4.35c-.01-.06 0-.09.03-.11q.03-.03.15-.03h.31q.15 0 .18.12c.24 1.42.55 2.85.93 4.27h.05c.31-1.14.61-2.43.91-3.87.04-.18.15-.28.34-.28m6.951 4.56-.02-.34h-.02c-.22.36-.58.53-1.06.53h-.5c-.48 0-.83-.12-1.07-.36s-.36-.55-.36-.94v-.3q0-.945.78-1.26c.22-.09.62-.14 1.2-.14h.3c.24 0 .47.01.67.03v-.57c0-.36-.1-.62-.29-.76-.2-.14-.5-.22-.92-.22-.35 0-.69.05-1.03.15-.16.04-.24.02-.26-.08l-.05-.21c-.04-.12 0-.19.11-.23.42-.12.84-.19 1.28-.19.64 0 1.1.12 1.38.35s.43.6.43 1.12V8.9c0 .07-.04.1-.11.1h-.33c-.09 0-.13-.03-.13-.1m-.08-1.4v-.83q-.24-.03-.6-.03h-.56c-.42 0-.71.07-.88.2s-.25.35-.25.66v.21c0 .3.07.52.21.65.12.12.33.18.61.18h.41c.33 0 .59-.08.78-.26.18-.18.28-.44.28-.78m5.71 1.33c0 .12-.07.17-.19.17h-.28q-.12 0-.15-.03c-.02-.02-.03-.06-.03-.14V5.91c0-.59-.16-.98-.46-1.17-.2-.12-.47-.19-.81-.19-.47 0-.8.14-.98.42q-.18.27-.18.78v3.1q0 .15-.18.15h-.31c-.11 0-.16-.05-.16-.15V4.21c0-.07.03-.11.1-.11h.3c.07 0 .11.04.12.11l.05.4h.02c.08-.14.22-.26.41-.38.25-.14.56-.22.94-.22.77 0 1.29.23 1.55.67q.24.42.24 1.29zm2.108-4.62v4.71c0 .06-.03.08-.09.08h-.48c-.06 0-.08-.02-.08-.08V4.21c0-.07.04-.11.12-.11h.41c.08 0 .12.04.12.11m.14-1.43v.06c0 .32-.15.48-.44.48h-.04c-.31 0-.46-.16-.46-.48v-.06c0-.31.15-.47.46-.47h.04c.29 0 .44.16.44.47m4.735 2.94v.82c0 .14-.03.24-.08.3-.06.06-.15.08-.29.08h-2.58c.02.6.12 1.02.32 1.26.19.24.52.35.99.35.39 0 .76-.06 1.1-.2.13-.05.21-.03.24.07l.07.23c.02.06.01.11-.01.15q-.03.06-.21.12c-.34.13-.74.19-1.19.19-.73 0-1.24-.18-1.53-.55-.3-.36-.44-.96-.44-1.79v-.4c0-.8.14-1.39.43-1.77.28-.38.77-.57 1.45-.57.57 0 1 .14 1.29.41.29.29.44.72.44 1.3m-1.72-1.15c-.44 0-.76.13-.94.38-.19.26-.29.72-.29 1.4h2.15c.05 0 .09 0 .11-.02s.03-.06.03-.13v-.38c0-.43-.08-.74-.23-.93-.18-.21-.45-.32-.83-.32M66.863 9h-.32c-.11 0-.16-.04-.16-.13V4.21c0-.07.04-.11.12-.11h.29c.06 0 .1.04.12.11l.04.52h.02c.22-.42.61-.63 1.16-.63h.26c.08 0 .13.04.13.12v.34c0 .08-.05.11-.13.11h-.27c-.44 0-.75.14-.91.41-.12.2-.18.46-.18.79v3c0 .09-.06.13-.17.13m2.938-2.55v.19c0 .5.03.86.1 1.1.15.53.54.79 1.16.79s1.01-.26 1.17-.79c.06-.24.1-.6.1-1.1v-.19c0-.49-.04-.86-.1-1.1q-.225-.78-1.17-.78c-.63 0-1.02.26-1.16.78-.07.24-.1.61-.1 1.1m3.19-.1v.4c0 .9-.18 1.53-.52 1.87-.32.32-.79.47-1.41.47s-1.08-.15-1.4-.47c-.35-.34-.52-.97-.52-1.87v-.4c0-.9.17-1.53.52-1.88.31-.3.78-.46 1.4-.46s1.09.16 1.41.46c.34.35.52.98.52 1.88m4.097 2.06.07.23q.03.105 0 .15c-.02.03-.07.06-.17.1-.33.14-.71.2-1.14.2-.62 0-1.08-.14-1.38-.43-.39-.35-.58-1.01-.58-1.98v-.33c0-.88.2-1.51.61-1.89q.48-.45 1.35-.45c.26 0 .53.05.79.13.26.09.48.19.64.31.05.04.05.1.01.16l-.17.28c-.04.06-.09.07-.17.02-.38-.22-.74-.34-1.1-.34-.39 0-.69.11-.9.31-.27.27-.4.79-.4 1.56v.17c0 .76.1 1.28.32 1.54.2.26.53.38 1.01.38.32 0 .64-.06.97-.19.13-.05.21-.03.24.07m4.12.13v.36c0 .07-.04.1-.1.1h-3.12c-.07 0-.1-.03-.1-.1v-.17c0-.1.06-.24.18-.44l2.2-3.63h-2.21c-.07 0-.1-.03-.1-.1V4.2c0-.06.03-.1.1-.1h2.96c.06 0 .1.04.1.1v.14c0 .12-.09.32-.26.6l-2.15 3.5h2.4c.06 0 .1.04.1.1m4.716.29c0 .12-.07.17-.19.17h-.28q-.12 0-.15-.03c-.02-.02-.03-.06-.03-.14V5.91c0-.59-.16-.98-.46-1.17-.2-.12-.47-.19-.81-.19-.47 0-.8.14-.98.42q-.18.27-.18.78v3.1q0 .15-.18.15h-.31c-.11 0-.16-.05-.16-.15V4.21c0-.07.03-.11.1-.11h.3c.07 0 .11.04.12.11l.05.4h.02c.08-.14.22-.26.41-.38.25-.14.56-.22.94-.22.77 0 1.29.23 1.55.67q.24.42.24 1.29zm4.698-3.11v.82c0 .14-.03.24-.08.3-.06.06-.15.08-.29.08h-2.58c.02.6.12 1.02.32 1.26.19.24.52.35.99.35.39 0 .76-.06 1.1-.2.13-.05.21-.03.24.07l.07.23c.02.06.01.11-.01.15q-.03.06-.21.12c-.34.13-.74.19-1.19.19-.73 0-1.24-.18-1.53-.55-.3-.36-.44-.96-.44-1.79v-.4c0-.8.14-1.39.43-1.77.28-.38.77-.57 1.45-.57.57 0 1 .14 1.29.41.29.29.44.72.44 1.3m-1.72-1.15c-.44 0-.76.13-.94.38-.19.26-.29.72-.29 1.4h2.15c.05 0 .09 0 .11-.02s.03-.06.03-.13v-.38c0-.43-.08-.74-.23-.93-.18-.21-.45-.32-.83-.32m8.875-2.23v5.02c0 .52-.13.92-.37 1.21-.3.35-.8.52-1.51.52-.72 0-1.23-.16-1.53-.49-.31-.32-.46-.92-.46-1.8v-.47c0-.79.15-1.37.47-1.75q.465-.57 1.47-.57.87 0 1.26.48h.02V2.34c0-.07.04-.11.12-.11h.41c.08 0 .12.04.12.11m-.65 4.93V5.9c0-.42-.11-.74-.31-.98-.2-.23-.5-.35-.9-.35-.45 0-.78.12-.98.34-.25.28-.37.77-.37 1.47v.34q0 1.11.36 1.5c.18.21.5.31.96.31.5 0 .85-.12 1.03-.38.14-.19.21-.48.21-.88m2.661-4.93v5.35q0 .525.09.63c.05.08.17.11.36.11h.27c.08 0 .12.04.12.11v.34c0 .08-.04.12-.1.12h-.38c-.36 0-.62-.07-.77-.23-.16-.16-.24-.47-.24-.92V2.34c0-.07.04-.11.12-.11h.41c.08 0 .12.04.12.11m4.58 6.56-.02-.34h-.02c-.22.36-.58.53-1.06.53h-.5c-.48 0-.83-.12-1.07-.36s-.36-.55-.36-.94v-.3q0-.945.78-1.26c.22-.09.62-.14 1.2-.14h.3c.24 0 .47.01.67.03v-.57c0-.36-.1-.62-.29-.76-.2-.14-.5-.22-.92-.22-.35 0-.69.05-1.03.15-.16.04-.24.02-.26-.08l-.05-.21c-.04-.12 0-.19.11-.23.42-.12.84-.19 1.28-.19.64 0 1.1.12 1.38.35s.43.6.43 1.12V8.9c0 .07-.04.1-.11.1h-.33c-.09 0-.13-.03-.13-.1m-.08-1.4v-.83q-.24-.03-.6-.03h-.56c-.42 0-.71.07-.88.2s-.25.35-.25.66v.21c0 .3.07.52.21.65.12.12.33.18.61.18h.41c.33 0 .59-.08.78-.26.18-.18.28-.44.28-.78m4.962-5.16V6.1h.5c.1 0 .19-.05.26-.16l1.16-1.73c.04-.07.11-.11.19-.11h.43c.11 0 .13.06.07.16l-1.42 2.06c-.04.06-.04.11 0 .16l1.47 2.41c.04.08.01.11-.07.11h-.52c-.06 0-.1-.02-.12-.07l-1.26-2.13c-.04-.07-.11-.11-.21-.11h-.48v2.23c0 .06-.03.08-.09.08h-.47c-.06 0-.09-.02-.09-.08V2.34c0-.07.04-.11.12-.11h.41c.08 0 .12.04.12.11m3.901 4.11v.19c0 .5.03.86.1 1.1.15.53.54.79 1.16.79s1.01-.26 1.17-.79c.06-.24.1-.6.1-1.1v-.19c0-.49-.04-.86-.1-1.1q-.225-.78-1.17-.78c-.63 0-1.02.26-1.16.78-.07.24-.1.61-.1 1.1m3.19-.1v.4c0 .9-.18 1.53-.52 1.87-.32.32-.79.47-1.41.47s-1.08-.15-1.4-.47c-.35-.34-.52-.97-.52-1.87v-.4c0-.9.17-1.53.52-1.88.31-.3.78-.46 1.4-.46s1.09.16 1.41.46c.34.35.52.98.52 1.88m4.866 2.48c0 .12-.07.17-.19.17h-.28q-.12 0-.15-.03c-.02-.02-.03-.06-.03-.14V5.91c0-.59-.16-.98-.46-1.17-.2-.12-.47-.19-.81-.19-.47 0-.8.14-.98.42q-.18.27-.18.78v3.1q0 .15-.18.15h-.31c-.11 0-.16-.05-.16-.15V4.21c0-.07.03-.11.1-.11h.3c.07 0 .11.04.12.11l.05.4h.02c.08-.14.22-.26.41-.38.25-.14.56-.22.94-.22.77 0 1.29.23 1.55.67q.24.42.24 1.29zm3.419.17h-.47c-.52 0-.9-.13-1.12-.4-.22-.26-.33-.64-.33-1.15V4.67h-.61c-.07 0-.1-.03-.1-.11v-.2c0-.08.03-.12.1-.13l.61-.13V2.97q0-.12.12-.12h.42c.07 0 .11.04.11.12V4.1h1.17c.06 0 .1.04.1.1v.37c0 .07-.04.1-.1.1h-1.17v2.7c0 .4.06.68.18.82.12.17.37.25.73.25h.36c.08 0 .12.04.12.11v.34c0 .08-.04.11-.12.11m3.814-.1-.02-.34h-.02c-.22.36-.58.53-1.06.53h-.5c-.48 0-.83-.12-1.07-.36s-.36-.55-.36-.94v-.3q0-.945.78-1.26c.22-.09.62-.14 1.2-.14h.3c.24 0 .47.01.67.03v-.57c0-.36-.1-.62-.29-.76-.2-.14-.5-.22-.92-.22-.35 0-.69.05-1.03.15-.16.04-.24.02-.26-.08l-.05-.21c-.04-.12 0-.19.11-.23.42-.12.84-.19 1.28-.19.64 0 1.1.12 1.38.35s.43.6.43 1.12V8.9c0 .07-.04.1-.11.1h-.33c-.09 0-.13-.03-.13-.1m-.08-1.4v-.83q-.24-.03-.6-.03h-.56c-.42 0-.71.07-.88.2s-.25.35-.25.66v.21c0 .3.07.52.21.65.12.12.33.18.61.18h.41c.33 0 .59-.08.78-.26.18-.18.28-.44.28-.78m4.752-1.05v.19c0 .5.03.86.1 1.1.15.53.54.79 1.16.79s1.01-.26 1.17-.79c.06-.24.1-.6.1-1.1v-.19c0-.49-.04-.86-.1-1.1q-.225-.78-1.17-.78c-.63 0-1.02.26-1.16.78-.07.24-.1.61-.1 1.1m3.19-.1v.4c0 .9-.18 1.53-.52 1.87-.32.32-.79.47-1.41.47s-1.08-.15-1.4-.47c-.35-.34-.52-.97-.52-1.87v-.4c0-.9.17-1.53.52-1.88.31-.3.78-.46 1.4-.46s1.09.16 1.41.46c.34.35.52.98.52 1.88m2.356 2.74c-.53 0-.98-.08-1.36-.24-.1-.04-.14-.09-.12-.17l.08-.29c.02-.1.09-.14.19-.1.41.16.81.24 1.21.24s.68-.06.85-.2c.16-.13.25-.34.25-.64v-.06c0-.33-.09-.55-.27-.67-.11-.06-.34-.13-.7-.21l-.28-.05c-.34-.06-.6-.14-.78-.25-.34-.19-.51-.54-.51-1.04v-.1c0-.86.53-1.3 1.6-1.3.41 0 .78.05 1.12.14q.18.06.15.18l-.06.26c-.04.12-.11.17-.23.13q-.54-.15-.99-.15c-.38 0-.65.07-.79.2-.14.12-.2.3-.2.52v.07c0 .22.05.39.16.49q.18.195.78.3l.26.05c.56.12.92.28 1.09.48.16.22.25.52.25.88v.1c0 .4-.1.71-.28.93-.27.34-.74.5-1.42.5m5.754-.55v.36c0 .07-.04.1-.1.1h-3.12c-.07 0-.1-.03-.1-.1v-.17c0-.1.06-.24.18-.44l2.2-3.63h-2.21c-.07 0-.1-.03-.1-.1V4.2c0-.06.03-.1.1-.1h2.96c.06 0 .1.04.1.1v.14c0 .12-.09.32-.26.6l-2.15 3.5h2.4c.06 0 .1.04.1.1m3.945-.13.07.23q.03.105 0 .15c-.02.03-.07.06-.17.1-.33.14-.71.2-1.14.2-.62 0-1.08-.14-1.38-.43-.39-.35-.58-1.01-.58-1.98v-.33c0-.88.2-1.51.61-1.89q.48-.45 1.35-.45c.26 0 .53.05.79.13.26.09.48.19.64.31.05.04.05.1.01.16l-.17.28c-.04.06-.09.07-.17.02-.38-.22-.74-.34-1.1-.34-.39 0-.69.11-.9.31-.27.27-.4.79-.4 1.56v.17c0 .76.1 1.28.32 1.54.2.26.53.38 1.01.38.32 0 .64-.06.97-.19.13-.05.21-.03.24.07m4.121.13v.36c0 .07-.04.1-.1.1h-3.12c-.07 0-.1-.03-.1-.1v-.17c0-.1.06-.24.18-.44l2.2-3.63h-2.21c-.07 0-.1-.03-.1-.1V4.2c0-.06.03-.1.1-.1h2.96c.06 0 .1.04.1.1v.14c0 .12-.09.32-.26.6l-2.15 3.5h2.4c.06 0 .1.04.1.1m4.355-2.82v.79c0 .15-.03.26-.09.32q-.09.09-.3.09h-2.56c.02.6.12 1.02.32 1.26q.285.36.99.36c.39 0 .76-.06 1.1-.2.13-.05.21-.03.24.07l.06.19c0 .02.01.03.01.04v.03c0 .01-.01.02-.01.03l-.02.02c0 .01-.01.02-.02.03-.01.02-.02.03-.02.03l-.03.03c-.02.01-.03.02-.04.02l-.04.04c-.02.02-.03.03-.04.03-.32.26-.54.47-.66.64-.12.18-.17.36-.17.54 0 .24.14.36.43.36.16 0 .32-.03.48-.11.07-.03.12-.01.14.05l.06.28c.02.07-.01.12-.08.15-.24.1-.48.15-.74.15q-.96 0-.96-.75c0-.45.26-.84.79-1.16-.19.03-.35.04-.48.04-.73 0-1.24-.18-1.53-.55-.3-.36-.44-.96-.44-1.79v-.4c0-.8.14-1.39.43-1.77.28-.38.77-.57 1.45-.57.57 0 1 .14 1.29.41.29.29.44.72.44 1.3m-1.72-1.16c-.44 0-.76.13-.94.39-.19.26-.29.72-.29 1.4h2.15c.05 0 .09 0 .11-.02s.03-.06.03-.13v-.38c0-.44-.08-.75-.23-.94-.18-.21-.45-.32-.83-.32m6.521-2.22v5.02c0 .52-.13.92-.37 1.21-.3.35-.8.52-1.51.52-.72 0-1.23-.16-1.53-.49-.31-.32-.46-.92-.46-1.8v-.47c0-.79.15-1.37.47-1.75q.465-.57 1.47-.57.87 0 1.26.48h.02V2.34c0-.07.04-.11.12-.11h.41c.08 0 .12.04.12.11m-.65 4.93V5.9c0-.42-.11-.74-.31-.98-.2-.23-.5-.35-.9-.35-.45 0-.78.12-.98.34-.25.28-.37.77-.37 1.47v.34q0 1.11.36 1.5c.18.21.5.31.96.31.5 0 .85-.12 1.03-.38.14-.19.21-.48.21-.88m5.711 1.56c0 .12-.07.17-.19.17h-.28q-.12 0-.15-.03c-.02-.02-.03-.06-.03-.14V5.91c0-.59-.16-.98-.46-1.17-.2-.12-.47-.19-.81-.19-.47 0-.8.14-.98.42q-.18.27-.18.78v3.1q0 .15-.18.15h-.31c-.11 0-.16-.05-.16-.15V4.21c0-.07.03-.11.1-.11h.3c.07 0 .11.04.12.11l.05.4h.02c.08-.14.22-.26.41-.38.25-.14.56-.22.94-.22.77 0 1.29.23 1.55.67q.24.42.24 1.29zm1.749-2.38v.19c0 .5.03.86.1 1.1.15.53.54.79 1.16.79s1.01-.26 1.17-.79c.06-.24.1-.6.1-1.1v-.19c0-.49-.04-.86-.1-1.1q-.225-.78-1.17-.78c-.63 0-1.02.26-1.16.78-.07.24-.1.61-.1 1.1m3.19-.1v.4c0 .9-.18 1.53-.52 1.87-.32.32-.79.47-1.41.47s-1.08-.15-1.4-.47c-.35-.34-.52-.97-.52-1.87v-.4c0-.9.17-1.53.52-1.88.31-.3.78-.46 1.4-.46s1.09.16 1.41.46c.34.35.52.98.52 1.88m2.356 2.74c-.53 0-.98-.08-1.36-.24-.1-.04-.14-.09-.12-.17l.08-.29c.02-.1.09-.14.19-.1.41.16.81.24 1.21.24s.68-.06.85-.2c.16-.13.25-.34.25-.64v-.06c0-.33-.09-.55-.27-.67-.11-.06-.34-.13-.7-.21l-.28-.05c-.34-.06-.6-.14-.78-.25-.34-.19-.51-.54-.51-1.04v-.1c0-.86.53-1.3 1.6-1.3.41 0 .78.05 1.12.14q.18.06.15.18l-.06.26c-.04.12-.11.17-.23.13q-.54-.15-.99-.15c-.38 0-.65.07-.79.2-.14.12-.2.3-.2.52v.07c0 .22.05.39.16.49q.18.195.78.3l.26.05c.56.12.92.28 1.09.48.16.22.25.52.25.88v.1c0 .4-.1.71-.28.93-.27.34-.74.5-1.42.5m-.68-6.33 1.7-.83c.13-.06.22-.03.27.07l.17.35c.04.1-.01.18-.13.24l-1.71.65c-.13.05-.21.03-.25-.06l-.1-.22c-.04-.09-.03-.16.05-.2m6.434 5.65.07.23q.03.105 0 .15c-.02.03-.07.06-.17.1-.33.14-.71.2-1.14.2-.62 0-1.08-.14-1.38-.43-.39-.35-.58-1.01-.58-1.98v-.33c0-.88.2-1.51.61-1.89q.48-.45 1.35-.45c.26 0 .53.05.79.13.26.09.48.19.64.31.05.04.05.1.01.16l-.17.28c-.04.06-.09.07-.17.02-.38-.22-.74-.34-1.1-.34-.39 0-.69.11-.9.31-.27.27-.4.79-.4 1.56v.17c0 .76.1 1.28.32 1.54.2.26.53.38 1.01.38.32 0 .64-.06.97-.19.13-.05.21-.03.24.07m1.941-4.2v4.71c0 .06-.03.08-.09.08h-.48c-.06 0-.08-.02-.08-.08V4.21c0-.07.04-.11.12-.11h.41c.08 0 .12.04.12.11m.14-1.43v.06c0 .32-.15.48-.44.48h-.04c-.31 0-.46-.16-.46-.48v-.06c0-.31.15-.47.46-.47h.04c.29 0 .44.16.44.47m1.785 3.67v.19c0 .5.03.86.1 1.1.15.53.54.79 1.16.79s1.01-.26 1.17-.79c.06-.24.1-.6.1-1.1v-.19c0-.49-.04-.86-.1-1.1q-.225-.78-1.17-.78c-.63 0-1.02.26-1.16.78-.07.24-.1.61-.1 1.1m3.19-.1v.4c0 .9-.18 1.53-.52 1.87-.32.32-.79.47-1.41.47s-1.08-.15-1.4-.47c-.35-.34-.52-.97-.52-1.87v-.4c0-.9.17-1.53.52-1.88.31-.3.78-.46 1.4-.46s1.09.16 1.41.46c.34.35.52.98.52 1.88m3.556-2.01h.45c.18 0 .3.1.34.28.29 1.44.59 2.73.91 3.87h.05c.37-1.42.68-2.85.93-4.27 0-.06.02-.09.04-.1s.06-.02.14-.02h.31q.105 0 .15.03c.02.02.03.05.03.11q-.33 1.68-1.02 4.35c-.08.28-.22.41-.42.41h-.34c-.13 0-.23-.03-.29-.09-.07-.06-.12-.16-.16-.32-.32-1.18-.6-2.4-.86-3.65h-.07c-.26 1.25-.55 2.47-.86 3.65-.04.16-.1.26-.16.32-.07.06-.17.09-.29.09h-.34c-.21 0-.35-.13-.42-.41q-.705-2.67-1.02-4.35c-.01-.06 0-.09.03-.11q.03-.03.15-.03h.31q.15 0 .18.12c.24 1.42.55 2.85.93 4.27h.05c.31-1.14.61-2.43.91-3.87.04-.18.15-.28.34-.28m7.62 1.38v.82c0 .14-.03.24-.08.3-.06.06-.15.08-.29.08h-2.58c.02.6.12 1.02.32 1.26.19.24.52.35.99.35.39 0 .76-.06 1.1-.2.13-.05.21-.03.24.07l.07.23c.02.06.01.11-.01.15q-.03.06-.21.12c-.34.13-.74.19-1.19.19-.73 0-1.24-.18-1.53-.55-.3-.36-.44-.96-.44-1.79v-.4c0-.8.14-1.39.43-1.77.28-.38.77-.57 1.45-.57.57 0 1 .14 1.29.41.29.29.44.72.44 1.3m-1.72-1.15c-.44 0-.76.13-.94.38-.19.26-.29.72-.29 1.4h2.15c.05 0 .09 0 .11-.02s.03-.06.03-.13v-.38c0-.43-.08-.74-.23-.93-.18-.21-.45-.32-.83-.32m5.911 3.03c-.09.08-.18.15-.26.2.57.37.86.84.86 1.4v.11c0 .54-.18.93-.54 1.18-.36.26-.86.38-1.48.38-.64 0-1.25-.13-1.81-.41-.07-.03-.1-.08-.08-.16l.11-.3q.03-.12.18-.06c.51.25 1.02.37 1.53.37.48 0 .84-.07 1.06-.22q.33-.225.33-.81V9.2c0-.52-.25-.92-.74-1.18-.16.04-.35.05-.59.05-.57 0-1.01-.12-1.33-.37-.35-.3-.52-.78-.52-1.46v-.41c0-.69.17-1.18.52-1.47.28-.23.73-.35 1.33-.35.14 0 .25.01.32.01.16-.48.54-.73 1.12-.73h.24c.09 0 .14.05.14.14v.39c0 .01-.01.02-.01.03-.01.01-.02.02-.04.02-.02.01-.05.01-.07.01h-.3c-.26 0-.42.09-.5.25.18.07.33.15.44.23.34.29.52.78.52 1.47v.41c0 .59-.15 1.04-.43 1.36m-2.6-1.7v.26c0 .32.03.59.11.79.14.41.5.61 1.06.61.57 0 .93-.2 1.08-.61.06-.19.1-.46.1-.8V5.9c0-.34-.04-.6-.1-.78a.8.8 0 0 0-.38-.46c-.17-.09-.4-.14-.7-.14-.29 0-.52.05-.69.14s-.29.24-.37.46c-.08.2-.11.46-.11.78m4.736.55v.19c0 .5.03.86.1 1.1.15.53.54.79 1.16.79s1.01-.26 1.17-.79c.06-.24.1-.6.1-1.1v-.19c0-.49-.04-.86-.1-1.1q-.225-.78-1.17-.78c-.63 0-1.02.26-1.16.78-.07.24-.1.61-.1 1.1m3.19-.1v.4c0 .9-.18 1.53-.52 1.87-.32.32-.79.47-1.41.47s-1.08-.15-1.4-.47c-.35-.34-.52-.97-.52-1.87v-.4c0-.9.17-1.53.52-1.88.31-.3.78-.46 1.4-.46s1.09.16 1.41.46c.34.35.52.98.52 1.88m5.91-2.01h.45c.18 0 .3.1.34.28.29 1.44.59 2.73.91 3.87h.05c.37-1.42.68-2.85.93-4.27 0-.06.02-.09.04-.1s.06-.02.14-.02h.31q.105 0 .15.03c.02.02.03.05.03.11q-.33 1.68-1.02 4.35c-.08.28-.22.41-.42.41h-.34c-.13 0-.23-.03-.29-.09-.07-.06-.12-.16-.16-.32-.32-1.18-.6-2.4-.86-3.65h-.07c-.26 1.25-.55 2.47-.86 3.65-.04.16-.1.26-.16.32-.07.06-.17.09-.29.09h-.34c-.21 0-.35-.13-.42-.41q-.705-2.67-1.02-4.35c-.01-.06 0-.09.03-.11q.03-.03.15-.03h.31q.15 0 .18.12c.24 1.42.55 2.85.93 4.27h.05c.31-1.14.61-2.43.91-3.87.04-.18.15-.28.34-.28m7.313 2.18v2.31c0 .12-.06.17-.16.17h-.37c-.11 0-.16-.05-.16-.17V2.77c0-.13.06-.21.18-.23.41-.06.87-.1 1.39-.1q1.29 0 1.83.45c.36.3.55.8.55 1.5v.13c0 1.34-.78 2.01-2.33 2.01-.4 0-.71 0-.93-.01m.2-3.49c-.14.02-.2.1-.2.24v2.68c.16.02.44.02.85.02.58 0 1.01-.11 1.28-.33.26-.22.4-.6.4-1.14v-.13c0-.48-.13-.83-.37-1.05-.25-.21-.66-.32-1.24-.32q-.45 0-.72.03m4.83-.33v5.4c0 .14.02.23.08.27.06.05.16.07.31.07h1.63c.1 0 .15.05.15.13v.3c0 .09-.05.13-.15.13h-1.8c-.32 0-.55-.06-.69-.19-.15-.13-.22-.33-.22-.61V2.7c0-.11.05-.17.16-.17h.36c.11 0 .17.06.17.17m6.419 5.99-2.62-5.49h-.07v5.63c0 .12-.05.17-.14.17h-.36c-.1 0-.14-.05-.14-.17v-6c0-.12.02-.2.07-.24.04-.04.13-.06.26-.06h.49c.12 0 .22.03.28.07q.09.075.18.24l2.62 5.51h.07V2.7c0-.11.04-.17.14-.17h.36c.09 0 .14.06.14.17v6c0 .12-.03.2-.07.24-.05.04-.14.06-.26.06h-.49c-.13 0-.23-.02-.29-.07a.53.53 0 0 1-.17-.24m3.095-4.43h.1c.28 0 .43.13.43.39v.24c0 .26-.15.39-.43.39h-.1c-.29 0-.43-.13-.43-.39v-.24c0-.26.14-.39.43-.39m0 3.81h.1c.28 0 .43.13.43.39v.24c0 .26-.15.39-.43.39h-.1c-.29 0-.43-.13-.43-.39v-.24c0-.26.14-.39.43-.39m6.878-.73h-2.74c-.13 0-.19-.06-.19-.2v-.17q0-.105.18-.42l2.27-3.86c.06-.1.16-.16.32-.16h.6c.16 0 .25.08.25.22v4h.65c.11 0 .17.05.17.14v.29c0 .11-.06.16-.17.16h-.65v1.49c0 .12-.06.17-.16.17h-.38c-.1 0-.15-.05-.15-.17zm0-.59V3.14h-.07l-2.13 3.61zm2.835 1.32h.15c.31 0 .47.17.47.51v.19c0 .22-.05.46-.13.72q-.165.435-.42.75c-.06.08-.13.1-.21.05l-.18-.11c-.08-.04-.08-.1-.01-.19.06-.08.12-.19.2-.33.06-.12.11-.23.14-.34.02-.08.01-.14-.05-.18l-.18-.09c-.13-.06-.19-.2-.19-.41v-.19c0-.25.13-.38.41-.38m4.853-1.04v-.09c0-.47-.11-.82-.31-1.06-.22-.23-.54-.35-.98-.35s-.83.11-1.18.33c-.09.06-.16.07-.22.04l-.15-.06c-.07-.02-.1-.08-.08-.17l.21-2.96c0-.12.07-.18.2-.18h2.62c.12 0 .18.06.18.16v.24c0 .11-.07.16-.2.16h-2.12c-.09 0-.14.05-.14.13l-.14 2.02c.31-.2.7-.3 1.18-.3.64 0 1.12.19 1.44.56.28.34.42.82.42 1.42v.11c0 .7-.2 1.22-.58 1.56s-.91.5-1.61.5q-.84 0-1.56-.36c-.11-.05-.15-.12-.11-.21l.1-.27c.03-.1.1-.12.22-.07.41.24.86.35 1.36.35s.87-.12 1.1-.37c.23-.24.35-.61.35-1.13m6.055-1.4v.27c0 1.29-.22 2.17-.65 2.65-.32.36-.8.54-1.43.54-.64 0-1.11-.18-1.43-.54-.44-.48-.65-1.36-.65-2.65v-.27c0-1.28.21-2.17.65-2.65.32-.36.79-.54 1.43-.54.63 0 1.11.18 1.43.54.43.48.65 1.37.65 2.65m-3.43.07v.13c0 1.08.12 1.81.38 2.2.2.34.53.5.97.5s.76-.16.97-.5c.25-.39.38-1.12.38-2.2V5.7c0-1.07-.13-1.8-.38-2.2-.21-.33-.53-.5-.97-.5s-.77.17-.97.5c-.26.4-.38 1.13-.38 2.2m5.725 3.26 3.54-6.4c.04-.08.11-.12.19-.12h.38c.1 0 .13.05.09.13l-3.54 6.4a.24.24 0 0 1-.22.12h-.35c-.1 0-.13-.04-.09-.13m1.3-4.8v.11c0 .69-.13 1.16-.39 1.42q-.3.3-.87.3t-.87-.3c-.26-.26-.39-.73-.39-1.42v-.11c0-.68.13-1.16.39-1.42q.3-.3.87-.3t.87.3c.26.26.39.74.39 1.42m-.61.1v-.09q0-.69-.15-.96c-.1-.17-.26-.26-.5-.26s-.41.09-.51.26c-.1.18-.14.5-.14.96v.09c0 .47.04.79.14.96.1.18.27.26.51.26s.4-.08.5-.26q.15-.255.15-.96m4.73 3v.11c0 .69-.13 1.16-.39 1.42q-.3.3-.87.3t-.87-.3c-.26-.26-.39-.73-.39-1.42v-.11c0-.68.13-1.16.39-1.42q.3-.3.87-.3t.87.3c.26.26.39.74.39 1.42m-.61.1v-.09q0-.69-.15-.96c-.1-.17-.26-.26-.5-.26s-.41.09-.51.26c-.1.18-.14.5-.14.96v.09c0 .47.04.79.14.96.1.18.27.26.51.26s.4-.08.5-.26q.15-.255.15-.96M2.08 14.17c.07-.09.16-.11.26-.07l.24.12c.08.05.1.11.05.19a6.08 6.08 0 0 0-1.23 3.73q0 1.08.27 1.95c.18.58.5 1.18.95 1.78.06.08.03.15-.07.2l-.23.12c-.09.05-.17.03-.23-.06-.94-1.2-1.41-2.53-1.41-3.97 0-.72.1-1.4.32-2.03.21-.62.57-1.28 1.08-1.96m3.882 2.17h.45c.18 0 .3.1.34.28.29 1.44.59 2.73.91 3.87h.05c.37-1.42.68-2.85.93-4.27 0-.06.02-.09.04-.1s.06-.02.14-.02h.31q.105 0 .15.03c.02.02.03.05.03.11q-.33 1.68-1.02 4.35c-.08.28-.22.41-.42.41h-.34c-.13 0-.23-.03-.29-.09-.07-.06-.12-.16-.16-.32-.32-1.18-.6-2.4-.86-3.65h-.07c-.26 1.25-.55 2.47-.86 3.65-.04.16-.1.26-.16.32-.07.06-.17.09-.29.09h-.34c-.21 0-.35-.13-.42-.41q-.705-2.67-1.02-4.35c-.01-.06 0-.09.03-.11q.03-.03.15-.03h.31q.15 0 .18.12c.24 1.42.55 2.85.93 4.27h.05c.31-1.14.61-2.43.91-3.87.04-.18.15-.28.34-.28M14.655 21h-.47c-.52 0-.9-.13-1.12-.4-.22-.26-.33-.64-.33-1.15v-2.78h-.61c-.07 0-.1-.03-.1-.11v-.2c0-.08.03-.12.1-.13l.61-.13v-1.13q0-.12.12-.12h.42c.07 0 .11.04.11.12v1.13h1.17c.06 0 .1.04.1.1v.37c0 .07-.04.1-.1.1h-1.17v2.7c0 .4.06.68.18.82.12.17.37.25.73.25h.36c.08 0 .12.04.12.11v.34c0 .08-.04.11-.12.11m1.704 1.53c.27-.53.51-1.06.73-1.6-.3 0-.53-.21-.67-.63-.22-.58-.4-1.16-.56-1.72-.24-.85-.45-1.63-.61-2.35-.02-.08.01-.13.11-.13h.45c.06 0 .09.03.11.09.14.71.32 1.45.53 2.22.11.44.28.98.5 1.62.04.12.08.21.13.25.04.05.11.07.19.07h.04c.38-1.04.74-2.43 1.09-4.17.01-.05.05-.08.11-.08h.46c.04 0 .06.01.08.03s.02.04.02.06c-.31 1.45-.63 2.65-.95 3.61s-.71 1.96-1.17 2.98c-.04.09-.11.11-.21.07l-.33-.12c-.09-.03-.11-.1-.05-.2m3.647-1.68v-4.64c0-.07.03-.11.11-.11h.29c.07 0 .11.04.12.11l.05.4h.02c.08-.14.22-.26.41-.38.25-.14.56-.22.93-.22.7 0 1.2.23 1.49.69h.02c.35-.46.87-.69 1.55-.69.6 0 1.04.16 1.32.47.26.31.4.81.4 1.49v2.88c0 .1-.06.15-.16.15h-.34q-.15 0-.15-.15v-2.92c0-.46-.09-.79-.25-1.01-.2-.23-.5-.35-.92-.35q-.81 0-1.26.6c.04.26.06.53.06.8v2.88q0 .15-.15.15h-.34c-.11 0-.16-.05-.16-.15v-2.92q0-.735-.3-1.05c-.2-.2-.52-.31-.94-.31-.46 0-.79.14-.97.42q-.18.27-.18.78v3.08q0 .15-.15.15h-.35q-.15 0-.15-.15m10.811-2.4v.19c0 .5.03.86.1 1.1.15.53.54.79 1.16.79s1.01-.26 1.17-.79c.06-.24.1-.6.1-1.1v-.19c0-.49-.04-.86-.1-1.1q-.225-.78-1.17-.78c-.63 0-1.02.26-1.16.78-.07.24-.1.61-.1 1.1m3.19-.1v.4c0 .9-.18 1.53-.52 1.87-.32.32-.79.47-1.41.47s-1.08-.15-1.4-.47c-.35-.34-.52-.97-.52-1.87v-.4c0-.9.17-1.53.52-1.88.31-.3.78-.46 1.4-.46s1.09.16 1.41.46c.34.35.52.98.52 1.88m3.146 2.74c-.64 0-1.1-.17-1.37-.53h-.02v2.1c0 .08-.04.11-.1.11h-.45c-.07 0-.1-.03-.1-.11v-6.45c0-.07.03-.11.1-.11h.3c.07 0 .11.04.12.11l.06.4h.02c.28-.4.77-.6 1.45-.6.65 0 1.12.18 1.4.54s.43.92.43 1.7v.52q0 1.155-.42 1.74c-.28.39-.75.58-1.42.58m-.08-4.52c-.88 0-1.31.42-1.31 1.26v1.41c0 .43.11.75.35.97.23.22.56.32.98.32.44 0 .77-.12.97-.37q.27-.33.27-1.44v-.38c0-.7-.11-1.18-.31-1.43-.2-.22-.51-.34-.95-.34m3.54 4.43h-.32c-.11 0-.16-.04-.16-.13v-4.66c0-.07.04-.11.12-.11h.29c.06 0 .1.04.12.11l.04.52h.02c.22-.42.61-.63 1.16-.63h.26c.08 0 .13.04.13.12v.34c0 .08-.05.11-.13.11h-.27c-.44 0-.75.14-.91.41-.12.2-.18.46-.18.79v3c0 .09-.06.13-.17.13m2.938-2.55v.19c0 .5.03.86.1 1.1.15.53.54.79 1.16.79s1.01-.26 1.17-.79c.06-.24.1-.6.1-1.1v-.19c0-.49-.04-.86-.1-1.1q-.225-.78-1.17-.78c-.63 0-1.02.26-1.16.78-.07.24-.1.61-.1 1.1m3.19-.1v.4c0 .9-.18 1.53-.52 1.87-.32.32-.79.47-1.41.47s-1.08-.15-1.4-.47c-.35-.34-.52-.97-.52-1.87v-.4c0-.9.17-1.53.52-1.88.31-.3.78-.46 1.4-.46s1.09.16 1.41.46c.34.35.52.98.52 1.88m4.096 2.06.07.23q.03.105 0 .15c-.02.03-.07.06-.17.1-.33.14-.71.2-1.14.2-.62 0-1.08-.14-1.38-.43-.39-.35-.58-1.01-.58-1.98v-.33c0-.88.2-1.51.61-1.89q.48-.45 1.35-.45c.26 0 .53.05.79.13.26.09.48.19.64.31.05.04.05.1.01.16l-.17.28c-.04.06-.09.07-.17.02-.38-.22-.74-.34-1.1-.34-.39 0-.69.11-.9.31-.27.27-.4.79-.4 1.56v.17c0 .76.1 1.28.32 1.54.2.26.53.38 1.01.38.32 0 .64-.06.97-.19.13-.05.21-.03.24.07m4.532-2.69v.82c0 .14-.03.24-.08.3-.06.06-.15.08-.29.08h-2.58c.02.6.12 1.02.32 1.26.19.24.52.35.99.35.39 0 .76-.06 1.1-.2.13-.05.21-.03.24.07l.07.23c.02.06.01.11-.01.15q-.03.06-.21.12c-.34.13-.74.19-1.19.19-.73 0-1.24-.18-1.53-.55-.3-.36-.44-.96-.44-1.79v-.4c0-.8.14-1.39.43-1.77.28-.38.77-.57 1.45-.57.57 0 1 .14 1.29.41.29.29.44.72.44 1.3m-1.72-1.15c-.44 0-.76.13-.94.38-.19.26-.29.72-.29 1.4h2.15c.05 0 .09 0 .11-.02s.03-.06.03-.13v-.38c0-.43-.08-.74-.23-.93-.18-.21-.45-.32-.83-.32m6.62 4.26c0 .12-.07.17-.19.17h-.28q-.12 0-.15-.03c-.02-.02-.03-.06-.03-.14v-2.92c0-.59-.16-.98-.46-1.17-.2-.12-.47-.19-.81-.19-.47 0-.8.14-.98.42q-.18.27-.18.78v3.1q0 .15-.18.15h-.31c-.11 0-.16-.05-.16-.15v-4.64c0-.07.03-.11.1-.11h.3c.07 0 .11.04.12.11l.05.4h.02c.08-.14.22-.26.41-.38.25-.14.56-.22.94-.22.77 0 1.29.23 1.55.67q.24.42.24 1.29zm3.42.17h-.47c-.52 0-.9-.13-1.12-.4-.22-.26-.33-.64-.33-1.15v-2.78h-.61c-.07 0-.1-.03-.1-.11v-.2c0-.08.03-.12.1-.13l.61-.13v-1.13q0-.12.12-.12h.42c.07 0 .11.04.11.12v1.13h1.17c.06 0 .1.04.1.1v.37c0 .07-.04.1-.1.1h-1.17v2.7c0 .4.06.68.18.82.12.17.37.25.73.25h.36c.08 0 .12.04.12.11v.34c0 .08-.04.11-.12.11m1.493-2.55v.19c0 .5.03.86.1 1.1.15.53.54.79 1.16.79s1.01-.26 1.17-.79c.06-.24.1-.6.1-1.1v-.19c0-.49-.04-.86-.1-1.1q-.225-.78-1.17-.78c-.63 0-1.02.26-1.16.78-.07.24-.1.61-.1 1.1m3.19-.1v.4c0 .9-.18 1.53-.52 1.87-.32.32-.79.47-1.41.47s-1.08-.15-1.4-.47c-.35-.34-.52-.97-.52-1.87v-.4c0-.9.17-1.53.52-1.88.31-.3.78-.46 1.4-.46s1.09.16 1.41.46c.34.35.52.98.52 1.88m3.556-2.01h.45c.18 0 .3.1.34.28.29 1.44.59 2.73.91 3.87h.05c.37-1.42.68-2.85.93-4.27 0-.06.02-.09.04-.1s.06-.02.14-.02h.31q.105 0 .15.03c.02.02.03.05.03.11q-.33 1.68-1.02 4.35c-.08.28-.22.41-.42.41h-.34c-.13 0-.23-.03-.29-.09-.07-.06-.12-.16-.16-.32-.32-1.18-.6-2.4-.86-3.65h-.07c-.26 1.25-.55 2.47-.86 3.65-.04.16-.1.26-.16.32-.07.06-.17.09-.29.09h-.34c-.21 0-.35-.13-.42-.41q-.705-2.67-1.02-4.35c-.01-.06 0-.09.03-.11q.03-.03.15-.03h.31q.15 0 .18.12c.24 1.42.55 2.85.93 4.27h.05c.31-1.14.61-2.43.91-3.87.04-.18.15-.28.34-.28m6.951 4.56-.02-.34h-.02c-.22.36-.58.53-1.06.53h-.5c-.48 0-.83-.12-1.07-.36s-.36-.55-.36-.94v-.3q0-.945.78-1.26c.22-.09.62-.14 1.2-.14h.3c.24 0 .47.01.67.03v-.57c0-.36-.1-.62-.29-.76-.2-.14-.5-.22-.92-.22-.35 0-.69.05-1.03.15-.16.04-.24.02-.26-.08l-.05-.21c-.04-.12 0-.19.11-.23.42-.12.84-.19 1.28-.19.64 0 1.1.12 1.38.35s.43.6.43 1.12v3.42c0 .07-.04.1-.11.1h-.33c-.09 0-.13-.03-.13-.1m-.08-1.4v-.83q-.24-.03-.6-.03h-.56c-.42 0-.71.07-.88.2s-.25.35-.25.66v.21c0 .3.07.52.21.65.12.12.33.18.61.18h.41c.33 0 .59-.08.78-.26.18-.18.28-.44.28-.78m5.709 1.33c0 .12-.07.17-.19.17h-.28q-.12 0-.15-.03c-.02-.02-.03-.06-.03-.14v-2.92c0-.59-.16-.98-.46-1.17-.2-.12-.47-.19-.81-.19-.47 0-.8.14-.98.42q-.18.27-.18.78v3.1q0 .15-.18.15h-.31c-.11 0-.16-.05-.16-.15v-4.64c0-.07.03-.11.1-.11h.3c.07 0 .11.04.12.11l.05.4h.02c.08-.14.22-.26.41-.38.25-.14.56-.22.94-.22.77 0 1.29.23 1.55.67q.24.42.24 1.29zm2.109-4.62v4.71c0 .06-.03.08-.09.08h-.48c-.06 0-.08-.02-.08-.08v-4.71c0-.07.04-.11.12-.11h.41c.08 0 .12.04.12.11m.14-1.43v.06c0 .32-.15.48-.44.48h-.04c-.31 0-.46-.16-.46-.48v-.06c0-.31.15-.47.46-.47h.04c.29 0 .44.16.44.47m4.735 2.94v.82c0 .14-.03.24-.08.3-.06.06-.15.08-.29.08h-2.58c.02.6.12 1.02.32 1.26.19.24.52.35.99.35.39 0 .76-.06 1.1-.2.13-.05.21-.03.24.07l.07.23c.02.06.01.11-.01.15q-.03.06-.21.12c-.34.13-.74.19-1.19.19-.73 0-1.24-.18-1.53-.55-.3-.36-.44-.96-.44-1.79v-.4c0-.8.14-1.39.43-1.77.28-.38.77-.57 1.45-.57.57 0 1 .14 1.29.41.29.29.44.72.44 1.3m-1.72-1.15c-.44 0-.76.13-.94.38-.19.26-.29.72-.29 1.4h2.15c.05 0 .09 0 .11-.02s.03-.06.03-.13v-.38c0-.43-.08-.74-.23-.93-.18-.21-.45-.32-.83-.32m7.084 3.96c.5 0 .84-.13 1.03-.39.19-.27.29-.75.29-1.43v-.34c0-.72-.14-1.22-.4-1.49-.21-.2-.53-.31-.95-.31-.43 0-.74.1-.94.3-.11.11-.18.24-.22.38-.04.15-.05.37-.05.65v1.37c0 .4.07.69.21.88.18.26.52.38 1.03.38m-1.24-6.19v2.15h.02q.375-.48 1.26-.48.99 0 1.47.57c.31.38.47.96.47 1.75v.46c0 .84-.17 1.44-.5 1.78-.33.35-.83.52-1.49.52-.72 0-1.22-.17-1.51-.52-.25-.29-.37-.7-.37-1.23v-5c0-.07.04-.11.12-.11h.41c.08 0 .12.04.12.11m7.101 6.56-.02-.34h-.02c-.22.36-.58.53-1.06.53h-.5c-.48 0-.83-.12-1.07-.36s-.36-.55-.36-.94v-.3q0-.945.78-1.26c.22-.09.62-.14 1.2-.14h.3c.24 0 .47.01.67.03v-.57c0-.36-.1-.62-.29-.76-.2-.14-.5-.22-.92-.22-.35 0-.69.05-1.03.15-.16.04-.24.02-.26-.08l-.05-.21c-.04-.12 0-.19.11-.23.42-.12.84-.19 1.28-.19.64 0 1.1.12 1.38.35s.43.6.43 1.12v3.42c0 .07-.04.1-.11.1h-.33c-.09 0-.13-.03-.13-.1m-.08-1.4v-.83q-.24-.03-.6-.03h-.56c-.42 0-.71.07-.88.2s-.25.35-.25.66v.21c0 .3.07.52.21.65.12.12.33.18.61.18h.41c.33 0 .59-.08.78-.26.18-.18.28-.44.28-.78m4.939 1.04v.36c0 .07-.04.1-.1.1h-3.12c-.07 0-.1-.03-.1-.1v-.17c0-.1.06-.24.18-.44l2.2-3.63h-2.21c-.07 0-.1-.03-.1-.1v-.36c0-.06.03-.1.1-.1h2.96c.06 0 .1.04.1.1v.14c0 .12-.09.32-.26.6l-2.15 3.5h2.4c.06 0 .1.04.1.1m1.307-2.09v.19c0 .5.03.86.1 1.1.15.53.54.79 1.16.79s1.01-.26 1.17-.79c.06-.24.1-.6.1-1.1v-.19c0-.49-.04-.86-.1-1.1q-.225-.78-1.17-.78c-.63 0-1.02.26-1.16.78-.07.24-.1.61-.1 1.1m3.19-.1v.4c0 .9-.18 1.53-.52 1.87-.32.32-.79.47-1.41.47s-1.08-.15-1.4-.47c-.35-.34-.52-.97-.52-1.87v-.4c0-.9.17-1.53.52-1.88.31-.3.78-.46 1.4-.46s1.09.16 1.41.46c.34.35.52.98.52 1.88m3.557-2.01h.45c.18 0 .3.1.34.28.29 1.44.59 2.73.91 3.87h.05c.37-1.42.68-2.85.93-4.27 0-.06.02-.09.04-.1s.06-.02.14-.02h.31q.105 0 .15.03c.02.02.03.05.03.11q-.33 1.68-1.02 4.35c-.08.28-.22.41-.42.41h-.34c-.13 0-.23-.03-.29-.09-.07-.06-.12-.16-.16-.32-.32-1.18-.6-2.4-.86-3.65h-.07c-.26 1.25-.55 2.47-.86 3.65-.04.16-.1.26-.16.32-.07.06-.17.09-.29.09h-.34c-.21 0-.35-.13-.42-.41q-.705-2.67-1.02-4.35c-.01-.06 0-.09.03-.11q.03-.03.15-.03h.31q.15 0 .18.12c.24 1.42.55 2.85.93 4.27h.05c.31-1.14.61-2.43.91-3.87.04-.18.15-.28.34-.28m7.619 1.38v.82c0 .14-.03.24-.08.3-.06.06-.15.08-.29.08h-2.58c.02.6.12 1.02.32 1.26.19.24.52.35.99.35.39 0 .76-.06 1.1-.2.13-.05.21-.03.24.07l.07.23c.02.06.01.11-.01.15q-.03.06-.21.12c-.34.13-.74.19-1.19.19-.73 0-1.24-.18-1.53-.55-.3-.36-.44-.96-.44-1.79v-.4c0-.8.14-1.39.43-1.77.28-.38.77-.57 1.45-.57.57 0 1 .14 1.29.41.29.29.44.72.44 1.3m-1.72-1.15c-.44 0-.76.13-.94.38-.19.26-.29.72-.29 1.4h2.15c.05 0 .09 0 .11-.02s.03-.06.03-.13v-.38c0-.43-.08-.74-.23-.93-.18-.21-.45-.32-.83-.32m3.311-.31h.1c.28 0 .43.13.43.39v.24c0 .26-.15.39-.43.39h-.1c-.29 0-.43-.13-.43-.39v-.24c0-.26.14-.39.43-.39m0 3.81h.1c.28 0 .43.13.43.39v.24c0 .26-.15.39-.43.39h-.1c-.29 0-.43-.13-.43-.39v-.24c0-.26.14-.39.43-.39m8.248-2.44v.27c0 1.29-.22 2.17-.65 2.65-.32.36-.8.54-1.43.54-.64 0-1.11-.18-1.43-.54-.44-.48-.65-1.36-.65-2.65v-.27c0-1.28.21-2.17.65-2.65.32-.36.79-.54 1.43-.54.63 0 1.11.18 1.43.54.43.48.65 1.37.65 2.65m-3.43.07v.13c0 1.08.12 1.81.38 2.2.2.34.53.5.97.5s.76-.16.97-.5c.25-.39.38-1.12.38-2.2v-.13c0-1.07-.13-1.8-.38-2.2-.21-.33-.53-.5-.97-.5s-.77.17-.97.5c-.26.4-.38 1.13-.38 2.2m4.896 2.37h.15c.31 0 .47.17.47.51v.19c0 .22-.05.46-.13.72q-.165.435-.42.75c-.06.08-.13.1-.21.05l-.18-.11c-.08-.04-.08-.1-.01-.19.06-.08.12-.19.2-.33.06-.12.11-.23.14-.34.02-.08.01-.14-.05-.18l-.18-.09c-.13-.06-.19-.2-.19-.41v-.19c0-.25.13-.38.41-.38m5.712-2.44v.27c0 1.29-.22 2.17-.65 2.65-.32.36-.8.54-1.43.54-.64 0-1.11-.18-1.43-.54-.44-.48-.65-1.36-.65-2.65v-.27c0-1.28.21-2.17.65-2.65.32-.36.79-.54 1.43-.54.63 0 1.11.18 1.43.54.43.48.65 1.37.65 2.65m-3.43.07v.13c0 1.08.12 1.81.38 2.2.2.34.53.5.97.5s.76-.16.97-.5c.25-.39.38-1.12.38-2.2v-.13c0-1.07-.13-1.8-.38-2.2-.21-.33-.53-.5-.97-.5s-.77.17-.97.5c-.26.4-.38 1.13-.38 2.2m7.765 1.33v-.09c0-.47-.11-.82-.31-1.06-.22-.23-.54-.35-.98-.35s-.83.11-1.18.33c-.09.06-.16.07-.22.04l-.15-.06c-.07-.02-.1-.08-.08-.17l.21-2.96c0-.12.07-.18.2-.18h2.62c.12 0 .18.06.18.16v.24c0 .11-.07.16-.2.16h-2.12c-.09 0-.14.05-.14.13l-.14 2.02c.31-.2.7-.3 1.18-.3.64 0 1.12.19 1.44.56.28.34.42.82.42 1.42v.11c0 .7-.2 1.22-.58 1.56s-.91.5-1.61.5q-.84 0-1.56-.36c-.11-.05-.15-.12-.11-.21l.1-.27c.03-.1.1-.12.22-.07.41.24.86.35 1.36.35s.87-.12 1.1-.37c.23-.24.35-.61.35-1.13m3.156 1.93 3.54-6.4c.04-.08.11-.12.19-.12h.38c.1 0 .13.05.09.13l-3.54 6.4a.24.24 0 0 1-.22.12h-.35c-.1 0-.13-.04-.09-.13m1.3-4.8v.11c0 .69-.13 1.16-.39 1.42q-.3.3-.87.3t-.87-.3c-.26-.26-.39-.73-.39-1.42v-.11c0-.68.13-1.16.39-1.42q.3-.3.87-.3t.87.3c.26.26.39.74.39 1.42m-.61.1v-.09q0-.69-.15-.96c-.1-.17-.26-.26-.5-.26s-.41.09-.51.26c-.1.18-.14.5-.14.96v.09c0 .47.04.79.14.96.1.18.27.26.51.26s.4-.08.5-.26q.15-.255.15-.96m4.73 3v.11c0 .69-.13 1.16-.39 1.42q-.3.3-.87.3t-.87-.3c-.26-.26-.39-.73-.39-1.42v-.11c0-.68.13-1.16.39-1.42q.3-.3.87-.3t.87.3c.26.26.39.74.39 1.42m-.61.1v-.09q0-.69-.15-.96c-.1-.17-.26-.26-.5-.26s-.41.09-.51.26c-.1.18-.14.5-.14.96v.09c0 .47.04.79.14.96.1.18.27.26.51.26s.4-.08.5-.26q.15-.255.15-.96m2.162.71h.15c.31 0 .47.17.47.51v.19c0 .22-.05.46-.13.72q-.165.435-.42.75c-.06.08-.13.1-.21.05l-.18-.11c-.08-.04-.08-.1-.01-.19.06-.08.12-.19.2-.33.06-.12.11-.23.14-.34.02-.08.01-.14-.05-.18l-.18-.09c-.13-.06-.19-.2-.19-.41v-.19c0-.25.13-.38.41-.38m4.496-1.62v.19c0 .5.03.86.1 1.1.15.53.54.79 1.16.79s1.01-.26 1.17-.79c.06-.24.1-.6.1-1.1v-.19c0-.49-.04-.86-.1-1.1q-.225-.78-1.17-.78c-.63 0-1.02.26-1.16.78-.07.24-.1.61-.1 1.1m3.19-.1v.4c0 .9-.18 1.53-.52 1.87-.32.32-.79.47-1.41.47s-1.08-.15-1.4-.47c-.35-.34-.52-.97-.52-1.87v-.4c0-.9.17-1.53.52-1.88.31-.3.78-.46 1.4-.46s1.09.16 1.41.46c.34.35.52.98.52 1.88m3.146 2.74c-.64 0-1.1-.17-1.37-.53h-.02v2.1c0 .08-.04.11-.1.11h-.45c-.07 0-.1-.03-.1-.11v-6.45c0-.07.03-.11.1-.11h.3c.07 0 .11.04.12.11l.06.4h.02c.28-.4.77-.6 1.45-.6.65 0 1.12.18 1.4.54s.43.92.43 1.7v.52q0 1.155-.42 1.74c-.28.39-.75.58-1.42.58m-.08-4.52c-.88 0-1.31.42-1.31 1.26v1.41c0 .43.11.75.35.97.23.22.56.32.98.32.44 0 .77-.12.97-.37q.27-.33.27-1.44v-.38c0-.7-.11-1.18-.31-1.43-.2-.22-.51-.34-.95-.34m3.541 4.43h-.32c-.11 0-.16-.04-.16-.13v-4.66c0-.07.04-.11.12-.11h.29c.06 0 .1.04.12.11l.04.52h.02c.22-.42.61-.63 1.16-.63h.26c.08 0 .13.04.13.12v.34c0 .08-.05.11-.13.11h-.27c-.44 0-.75.14-.91.41-.12.2-.18.46-.18.79v3c0 .09-.06.13-.17.13m2.938-2.55v.19c0 .5.03.86.1 1.1.15.53.54.79 1.16.79s1.01-.26 1.17-.79c.06-.24.1-.6.1-1.1v-.19c0-.49-.04-.86-.1-1.1q-.225-.78-1.17-.78c-.63 0-1.02.26-1.16.78-.07.24-.1.61-.1 1.1m3.19-.1v.4c0 .9-.18 1.53-.52 1.87-.32.32-.79.47-1.41.47s-1.08-.15-1.4-.47c-.35-.34-.52-.97-.52-1.87v-.4c0-.9.17-1.53.52-1.88.31-.3.78-.46 1.4-.46s1.09.16 1.41.46c.34.35.52.98.52 1.88m4.096 2.06.07.23q.03.105 0 .15c-.02.03-.07.06-.17.1-.33.14-.71.2-1.14.2-.62 0-1.08-.14-1.38-.43-.39-.35-.58-1.01-.58-1.98v-.33c0-.88.2-1.51.61-1.89q.48-.45 1.35-.45c.26 0 .53.05.79.13.26.09.48.19.64.31.05.04.05.1.01.16l-.17.28c-.04.06-.09.07-.17.02-.38-.22-.74-.34-1.1-.34-.39 0-.69.11-.9.31-.27.27-.4.79-.4 1.56v.17c0 .76.1 1.28.32 1.54.2.26.53.38 1.01.38.32 0 .64-.06.97-.19.13-.05.21-.03.24.07m4.531-2.69v.82c0 .14-.03.24-.08.3-.06.06-.15.08-.29.08h-2.58c.02.6.12 1.02.32 1.26.19.24.52.35.99.35.39 0 .76-.06 1.1-.2.13-.05.21-.03.24.07l.07.23c.02.06.01.11-.01.15q-.03.06-.21.12c-.34.13-.74.19-1.19.19-.73 0-1.24-.18-1.53-.55-.3-.36-.44-.96-.44-1.79v-.4c0-.8.14-1.39.43-1.77.28-.38.77-.57 1.45-.57.57 0 1 .14 1.29.41.29.29.44.72.44 1.3m-1.72-1.15c-.44 0-.76.13-.94.38-.19.26-.29.72-.29 1.4h2.15c.05 0 .09 0 .11-.02s.03-.06.03-.13v-.38c0-.43-.08-.74-.23-.93-.18-.21-.45-.32-.83-.32m6.621 4.26c0 .12-.07.17-.19.17h-.28q-.12 0-.15-.03c-.02-.02-.03-.06-.03-.14v-2.92c0-.59-.16-.98-.46-1.17-.2-.12-.47-.19-.81-.19-.47 0-.8.14-.98.42q-.18.27-.18.78v3.1q0 .15-.18.15h-.31c-.11 0-.16-.05-.16-.15v-4.64c0-.07.03-.11.1-.11h.3c.07 0 .11.04.12.11l.05.4h.02c.08-.14.22-.26.41-.38.25-.14.56-.22.94-.22.77 0 1.29.23 1.55.67q.24.42.24 1.29zm3.418.17h-.47c-.52 0-.9-.13-1.12-.4-.22-.26-.33-.64-.33-1.15v-2.78h-.61c-.07 0-.1-.03-.1-.11v-.2c0-.08.03-.12.1-.13l.61-.13v-1.13q0-.12.12-.12h.42c.07 0 .11.04.11.12v1.13h1.17c.06 0 .1.04.1.1v.37c0 .07-.04.1-.1.1h-1.17v2.7c0 .4.06.68.18.82.12.17.37.25.73.25h.36c.08 0 .12.04.12.11v.34c0 .08-.04.11-.12.11m1.494-2.55v.19c0 .5.03.86.1 1.1.15.53.54.79 1.16.79s1.01-.26 1.17-.79c.06-.24.1-.6.1-1.1v-.19c0-.49-.04-.86-.1-1.1q-.225-.78-1.17-.78c-.63 0-1.02.26-1.16.78-.07.24-.1.61-.1 1.1m3.19-.1v.4c0 .9-.18 1.53-.52 1.87-.32.32-.79.47-1.41.47s-1.08-.15-1.4-.47c-.35-.34-.52-.97-.52-1.87v-.4c0-.9.17-1.53.52-1.88.31-.3.78-.46 1.4-.46s1.09.16 1.41.46c.34.35.52.98.52 1.88m3.557-2.01h.45c.18 0 .3.1.34.28.29 1.44.59 2.73.91 3.87h.05c.37-1.42.68-2.85.93-4.27 0-.06.02-.09.04-.1s.06-.02.14-.02h.31q.105 0 .15.03c.02.02.03.05.03.11q-.33 1.68-1.02 4.35c-.08.28-.22.41-.42.41h-.34c-.13 0-.23-.03-.29-.09-.07-.06-.12-.16-.16-.32-.32-1.18-.6-2.4-.86-3.65h-.07c-.26 1.25-.55 2.47-.86 3.65-.04.16-.1.26-.16.32-.07.06-.17.09-.29.09h-.34c-.21 0-.35-.13-.42-.41q-.705-2.67-1.02-4.35c-.01-.06 0-.09.03-.11q.03-.03.15-.03h.31q.15 0 .18.12c.24 1.42.55 2.85.93 4.27h.05c.31-1.14.61-2.43.91-3.87.04-.18.15-.28.34-.28m6.95 4.56-.02-.34h-.02c-.22.36-.58.53-1.06.53h-.5c-.48 0-.83-.12-1.07-.36s-.36-.55-.36-.94v-.3q0-.945.78-1.26c.22-.09.62-.14 1.2-.14h.3c.24 0 .47.01.67.03v-.57c0-.36-.1-.62-.29-.76-.2-.14-.5-.22-.92-.22-.35 0-.69.05-1.03.15-.16.04-.24.02-.26-.08l-.05-.21c-.04-.12 0-.19.11-.23.42-.12.84-.19 1.28-.19.64 0 1.1.12 1.38.35s.43.6.43 1.12v3.42c0 .07-.04.1-.11.1h-.33c-.09 0-.13-.03-.13-.1m-.08-1.4v-.83q-.24-.03-.6-.03h-.56c-.42 0-.71.07-.88.2s-.25.35-.25.66v.21c0 .3.07.52.21.65.12.12.33.18.61.18h.41c.33 0 .59-.08.78-.26.18-.18.28-.44.28-.78m5.709 1.33c0 .12-.07.17-.19.17h-.28q-.12 0-.15-.03c-.02-.02-.03-.06-.03-.14v-2.92c0-.59-.16-.98-.46-1.17-.2-.12-.47-.19-.81-.19-.47 0-.8.14-.98.42q-.18.27-.18.78v3.1q0 .15-.18.15h-.31c-.11 0-.16-.05-.16-.15v-4.64c0-.07.03-.11.1-.11h.3c.07 0 .11.04.12.11l.05.4h.02c.08-.14.22-.26.41-.38.25-.14.56-.22.94-.22.77 0 1.29.23 1.55.67q.24.42.24 1.29zm2.109-4.62v4.71c0 .06-.03.08-.09.08h-.48c-.06 0-.08-.02-.08-.08v-4.71c0-.07.04-.11.12-.11h.41c.08 0 .12.04.12.11m.14-1.43v.06c0 .32-.15.48-.44.48h-.04c-.31 0-.46-.16-.46-.48v-.06c0-.31.15-.47.46-.47h.04c.29 0 .44.16.44.47m4.735 2.94v.82c0 .14-.03.24-.08.3-.06.06-.15.08-.29.08h-2.58c.02.6.12 1.02.32 1.26.19.24.52.35.99.35.39 0 .76-.06 1.1-.2.13-.05.21-.03.24.07l.07.23c.02.06.01.11-.01.15q-.03.06-.21.12c-.34.13-.74.19-1.19.19-.73 0-1.24-.18-1.53-.55-.3-.36-.44-.96-.44-1.79v-.4c0-.8.14-1.39.43-1.77.28-.38.77-.57 1.45-.57.57 0 1 .14 1.29.41.29.29.44.72.44 1.3m-1.72-1.15c-.44 0-.76.13-.94.38-.19.26-.29.72-.29 1.4h2.15c.05 0 .09 0 .11-.02s.03-.06.03-.13v-.38c0-.43-.08-.74-.23-.93-.18-.21-.45-.32-.83-.32m7.254 4.52c-.64 0-1.1-.17-1.37-.53h-.02v2.1c0 .08-.04.11-.1.11h-.45c-.07 0-.1-.03-.1-.11v-6.45c0-.07.03-.11.1-.11h.3c.07 0 .11.04.12.11l.06.4h.02c.28-.4.77-.6 1.45-.6.65 0 1.12.18 1.4.54s.43.92.43 1.7v.52q0 1.155-.42 1.74c-.28.39-.75.58-1.42.58m-.08-4.52c-.88 0-1.31.42-1.31 1.26v1.41c0 .43.11.75.35.97.23.22.56.32.98.32.44 0 .77-.12.97-.37q.27-.33.27-1.44v-.38c0-.7-.11-1.18-.31-1.43-.2-.22-.51-.34-.95-.34m3.541 4.43h-.32c-.11 0-.16-.04-.16-.13v-4.66c0-.07.04-.11.12-.11h.29c.06 0 .1.04.12.11l.04.52h.02c.22-.42.61-.63 1.16-.63h.26c.08 0 .13.04.13.12v.34c0 .08-.05.11-.13.11h-.27c-.44 0-.75.14-.91.41-.12.2-.18.46-.18.79v3c0 .09-.06.13-.17.13m2.938-2.55v.19c0 .5.03.86.1 1.1.15.53.54.79 1.16.79s1.01-.26 1.17-.79c.06-.24.1-.6.1-1.1v-.19c0-.49-.04-.86-.1-1.1q-.225-.78-1.17-.78c-.63 0-1.02.26-1.16.78-.07.24-.1.61-.1 1.1m3.19-.1v.4c0 .9-.18 1.53-.52 1.87-.32.32-.79.47-1.41.47s-1.08-.15-1.4-.47c-.35-.34-.52-.97-.52-1.87v-.4c0-.9.17-1.53.52-1.88.31-.3.78-.46 1.4-.46s1.09.16 1.41.46c.34.35.52.98.52 1.88m1.136 2.5v-4.64c0-.07.03-.11.11-.11h.29c.07 0 .11.04.12.11l.05.4h.02c.08-.14.22-.26.41-.38.25-.14.56-.22.93-.22.7 0 1.2.23 1.49.69h.02c.35-.46.87-.69 1.55-.69.6 0 1.04.16 1.32.47.26.31.4.81.4 1.49v2.88c0 .1-.06.15-.16.15h-.34q-.15 0-.15-.15v-2.92c0-.46-.09-.79-.25-1.01-.2-.23-.5-.35-.92-.35q-.81 0-1.26.6c.04.26.06.53.06.8v2.88q0 .15-.15.15h-.34c-.11 0-.16-.05-.16-.15v-2.92q0-.735-.3-1.05c-.2-.2-.52-.31-.94-.31-.46 0-.79.14-.97.42q-.18.27-.18.78v3.08q0 .15-.15.15h-.35q-.15 0-.15-.15m8.457-2.4v.19c0 .5.03.86.1 1.1.15.53.54.79 1.16.79s1.01-.26 1.17-.79c.06-.24.1-.6.1-1.1v-.19c0-.49-.04-.86-.1-1.1q-.225-.78-1.17-.78c-.63 0-1.02.26-1.16.78-.07.24-.1.61-.1 1.1m3.19-.1v.4c0 .9-.18 1.53-.52 1.87-.32.32-.79.47-1.41.47s-1.08-.15-1.4-.47c-.35-.34-.52-.97-.52-1.87v-.4c0-.9.17-1.53.52-1.88.31-.3.78-.46 1.4-.46s1.09.16 1.41.46c.34.35.52.98.52 1.88m4.096 2.06.07.23q.03.105 0 .15c-.02.03-.07.06-.17.1-.33.14-.71.2-1.14.2-.62 0-1.08-.14-1.38-.43-.39-.35-.58-1.01-.58-1.98v-.33c0-.88.2-1.51.61-1.89q.48-.45 1.35-.45c.26 0 .53.05.79.13.26.09.48.19.64.31.05.04.05.1.01.16l-.17.28c-.04.06-.09.07-.17.02-.38-.22-.74-.34-1.1-.34-.39 0-.69.11-.9.31-.27.27-.4.79-.4 1.56v.17c0 .76.1 1.28.32 1.54.2.26.53.38 1.01.38.32 0 .64-.06.97-.19.13-.05.21-.03.24.07m1.967 2.12c.27-.53.51-1.06.73-1.6-.3 0-.53-.21-.67-.63-.22-.58-.4-1.16-.56-1.72-.24-.85-.45-1.63-.61-2.35-.02-.08.01-.13.11-.13h.45c.06 0 .09.03.11.09.14.71.32 1.45.53 2.22.11.44.28.98.5 1.62.04.12.08.21.13.25.04.05.11.07.19.07h.04c.38-1.04.74-2.43 1.09-4.17.01-.05.05-.08.11-.08h.46c.04 0 .06.01.08.03s.02.04.02.06c-.31 1.45-.63 2.65-.95 3.61s-.71 1.96-1.17 2.98c-.04.09-.11.11-.21.07l-.33-.12c-.09-.03-.11-.1-.05-.2m4.437-6.32v4.73c0 .49-.09.88-.25 1.16-.26.46-.71.68-1.35.68h-.36c-.08 0-.11-.04-.11-.12v-.33c0-.08.03-.12.11-.12h.34c.4 0 .68-.15.82-.46.1-.22.15-.5.15-.86v-4.68c0-.07.04-.11.12-.11h.41c.08 0 .12.04.12.11m.14-1.43v.06c0 .32-.15.48-.44.48h-.04c-.31 0-.46-.16-.46-.48v-.06c0-.31.15-.47.46-.47h.04c.29 0 .44.16.44.47m5.105 6.05c0 .12-.07.17-.19.17h-.28q-.12 0-.15-.03c-.02-.02-.03-.06-.03-.14v-2.92c0-.59-.16-.98-.46-1.17-.2-.12-.47-.19-.81-.19-.47 0-.8.14-.98.42q-.18.27-.18.78v3.1q0 .15-.18.15h-.31c-.11 0-.16-.05-.16-.15v-4.64c0-.07.03-.11.1-.11h.3c.07 0 .11.04.12.11l.05.4h.02c.08-.14.22-.26.41-.38.25-.14.56-.22.94-.22.77 0 1.29.23 1.55.67q.24.42.24 1.29zm4.698-3.11v.82c0 .14-.03.24-.08.3-.06.06-.15.08-.29.08h-2.58c.02.6.12 1.02.32 1.26.19.24.52.35.99.35.39 0 .76-.06 1.1-.2.13-.05.21-.03.24.07l.07.23c.02.06.01.11-.01.15q-.03.06-.21.12c-.34.13-.74.19-1.19.19-.73 0-1.24-.18-1.53-.55-.3-.36-.44-.96-.44-1.79v-.4c0-.8.14-1.39.43-1.77.28-.38.77-.57 1.45-.57.57 0 1 .14 1.29.41.29.29.44.72.44 1.3m-1.72-1.15c-.44 0-.76.13-.94.38-.19.26-.29.72-.29 1.4h2.15c.05 0 .09 0 .11-.02s.03-.06.03-.13v-.38c0-.43-.08-.74-.23-.93-.18-.21-.45-.32-.83-.32m3.311-.31h.1c.28 0 .43.13.43.39v.24c0 .26-.15.39-.43.39h-.1c-.29 0-.43-.13-.43-.39v-.24c0-.26.14-.39.43-.39m0 3.81h.1c.28 0 .43.13.43.39v.24c0 .26-.15.39-.43.39h-.1c-.29 0-.43-.13-.43-.39v-.24c0-.26.14-.39.43-.39M3.31 31.34H.57c-.13 0-.19-.06-.19-.2v-.17q0-.105.18-.42l2.27-3.86c.06-.1.16-.16.32-.16h.6c.16 0 .25.08.25.22v4h.65c.11 0 .17.05.17.14v.29c0 .11-.06.16-.17.16H4v1.49c0 .12-.06.17-.16.17h-.38c-.1 0-.15-.05-.15-.17zm0-.59v-3.61h-.07l-2.13 3.61zm2.835 1.32h.15c.31 0 .47.17.47.51v.19c0 .22-.05.46-.13.72q-.165.435-.42.75c-.06.08-.13.1-.21.05l-.18-.11c-.08-.04-.08-.1-.01-.19.06-.08.12-.19.2-.33.06-.12.11-.23.14-.34.02-.08.01-.14-.05-.18l-.18-.09c-.13-.06-.19-.2-.19-.41v-.19c0-.25.13-.38.41-.38m4.343-.73h-2.74c-.13 0-.19-.06-.19-.2v-.17q0-.105.18-.42l2.27-3.86c.06-.1.16-.16.32-.16h.6c.16 0 .25.08.25.22v4h.65c.11 0 .17.05.17.14v.29c0 .11-.06.16-.17.16h-.65v1.49c0 .12-.06.17-.16.17h-.38c-.1 0-.15-.05-.15-.17zm0-.59v-3.61h-.07l-2.13 3.61zm5.705.28v-.09c0-.47-.11-.82-.31-1.06-.22-.23-.54-.35-.98-.35s-.83.11-1.18.33c-.09.06-.16.07-.22.04l-.15-.06c-.07-.02-.1-.08-.08-.17l.21-2.96c0-.12.07-.18.2-.18h2.62c.12 0 .18.06.18.16v.24c0 .11-.07.16-.2.16h-2.12c-.09 0-.14.05-.14.13l-.14 2.02c.31-.2.7-.3 1.18-.3.64 0 1.12.19 1.44.56.28.34.42.82.42 1.42v.11c0 .7-.2 1.22-.58 1.56s-.91.5-1.61.5q-.84 0-1.56-.36c-.11-.05-.15-.12-.11-.21l.1-.27c.03-.1.1-.12.22-.07.41.24.86.35 1.36.35s.87-.12 1.1-.37c.23-.24.35-.61.35-1.13m3.155 1.93 3.54-6.4c.04-.08.11-.12.19-.12h.38c.1 0 .13.05.09.13l-3.54 6.4a.24.24 0 0 1-.22.12h-.35c-.1 0-.13-.04-.09-.13m1.3-4.8v.11c0 .69-.13 1.16-.39 1.42q-.3.3-.87.3t-.87-.3c-.26-.26-.39-.73-.39-1.42v-.11c0-.68.13-1.16.39-1.42q.3-.3.87-.3t.87.3c.26.26.39.74.39 1.42m-.61.1v-.09q0-.69-.15-.96c-.1-.17-.26-.26-.5-.26s-.41.09-.51.26c-.1.18-.14.5-.14.96v.09c0 .47.04.79.14.96.1.18.27.26.51.26s.4-.08.5-.26q.15-.255.15-.96m4.73 3v.11c0 .69-.13 1.16-.39 1.42q-.3.3-.87.3t-.87-.3c-.26-.26-.39-.73-.39-1.42v-.11c0-.68.13-1.16.39-1.42q.3-.3.87-.3t.87.3c.26.26.39.74.39 1.42m-.61.1v-.09q0-.69-.15-.96c-.1-.17-.26-.26-.5-.26s-.41.09-.51.26c-.1.18-.14.5-.14.96v.09c0 .47.04.79.14.96.1.18.27.26.51.26s.4-.08.5-.26q.15-.255.15-.96m1.973 2.77c-.08.1-.16.12-.26.07l-.24-.12c-.09-.04-.11-.11-.05-.19.82-1.09 1.23-2.33 1.23-3.73 0-.71-.1-1.36-.28-1.94s-.5-1.18-.94-1.79c-.06-.08-.04-.14.07-.2l.23-.12c.08-.04.16-.02.23.06.94 1.21 1.41 2.53 1.41 3.97 0 .73-.11 1.41-.32 2.03-.22.63-.58 1.28-1.08 1.96m2.992-2.06h.1c.28 0 .43.13.43.39v.24c0 .26-.15.39-.43.39h-.1c-.29 0-.43-.13-.43-.39v-.24c0-.26.14-.39.43-.39m4.637-2.44v.27c0 1.1.15 1.82.45 2.17.26.31.66.46 1.19.46.58 0 .99-.17 1.25-.52.26-.36.39-1.06.39-2.11v-.27c0-.52-.03-.95-.08-1.29s-.15-.61-.31-.83c-.26-.34-.67-.51-1.25-.51q-.855 0-1.23.51c-.28.36-.41 1.07-.41 2.12m4.01-.12v.52c0 1.16-.21 1.96-.61 2.42-.38.43-.96.64-1.76.64-.75 0-1.31-.19-1.69-.57-.46-.46-.68-1.29-.68-2.49v-.52c0-1.16.21-1.98.63-2.45.37-.41.95-.62 1.74-.62.78 0 1.36.21 1.74.62.42.47.63 1.29.63 2.45M39.76 33h-.42q-.12 0-.12-.12v-4.21h-.61c-.07 0-.1-.03-.1-.11v-.2c0-.08.03-.12.1-.13l.61-.13v-.31c0-.44.07-.77.21-1.01.25-.42.7-.64 1.34-.64.32 0 .58.03.8.09q.12.045.12.15l-.05.28c-.02.09-.08.12-.17.1a3.4 3.4 0 0 0-.6-.06c-.32 0-.55.07-.7.19-.2.16-.3.46-.3.91v.3h1.07c.06 0 .1.04.1.1v.37c0 .07-.04.1-.1.1h-1.07v4.21c0 .08-.04.12-.11.12m5.51-3.28v.82c0 .14-.03.24-.08.3-.06.06-.15.08-.29.08h-2.58c.02.6.12 1.02.32 1.26.19.24.52.35.99.35.39 0 .76-.06 1.1-.2.13-.05.21-.03.24.07l.07.23c.02.06.01.11-.01.15q-.03.06-.21.12c-.34.13-.74.19-1.19.19-.73 0-1.24-.18-1.53-.55-.3-.36-.44-.96-.44-1.79v-.4c0-.8.14-1.39.43-1.77.28-.38.77-.57 1.45-.57.57 0 1 .14 1.29.41.29.29.44.72.44 1.3m-1.72-1.15c-.44 0-.76.13-.94.38-.19.26-.29.72-.29 1.4h2.15c.05 0 .09 0 .11-.02s.03-.06.03-.13v-.38c0-.43-.08-.74-.23-.93-.18-.21-.45-.32-.83-.32M46.923 33h-.32c-.11 0-.16-.04-.16-.13v-4.66c0-.07.04-.11.12-.11h.29c.06 0 .1.04.12.11l.04.52h.02c.22-.42.61-.63 1.16-.63h.26c.08 0 .13.04.13.12v.34c0 .08-.05.11-.13.11h-.27c-.44 0-.75.14-.91.41-.12.2-.18.46-.18.79v3c0 .09-.06.13-.17.13m4.784 0h-.47c-.52 0-.9-.13-1.12-.4-.22-.26-.33-.64-.33-1.15v-2.78h-.61c-.07 0-.1-.03-.1-.11v-.2c0-.08.03-.12.1-.13l.61-.13v-1.13q0-.12.12-.12h.42c.07 0 .11.04.11.12v1.13h1.17c.06 0 .1.04.1.1v.37c0 .07-.04.1-.1.1h-1.17v2.7c0 .4.06.68.18.82.12.17.37.25.73.25h.36c.08 0 .12.04.12.11v.34c0 .08-.04.11-.12.11m3.814-.1-.02-.34h-.02c-.22.36-.58.53-1.06.53h-.5c-.48 0-.83-.12-1.07-.36s-.36-.55-.36-.94v-.3q0-.945.78-1.26c.22-.09.62-.14 1.2-.14h.3c.24 0 .47.01.67.03v-.57c0-.36-.1-.62-.29-.76-.2-.14-.5-.22-.92-.22-.35 0-.69.05-1.03.15-.16.04-.24.02-.26-.08l-.05-.21c-.04-.12 0-.19.11-.23.42-.12.84-.19 1.28-.19.64 0 1.1.12 1.38.35s.43.6.43 1.12v3.42c0 .07-.04.1-.11.1h-.33c-.09 0-.13-.03-.13-.1m-.08-1.4v-.83q-.24-.03-.6-.03h-.56c-.42 0-.71.07-.88.2s-.25.35-.25.66v.21c0 .3.07.52.21.65.12.12.33.18.61.18h.41c.33 0 .59-.08.78-.26.18-.18.28-.44.28-.78m4.752-1.05v.19c0 .5.03.86.1 1.1.15.53.54.79 1.16.79s1.01-.26 1.17-.79c.06-.24.1-.6.1-1.1v-.19c0-.49-.04-.86-.1-1.1q-.225-.78-1.17-.78c-.63 0-1.02.26-1.16.78-.07.24-.1.61-.1 1.1m3.19-.1v.4c0 .9-.18 1.53-.52 1.87-.32.32-.79.47-1.41.47s-1.08-.15-1.4-.47c-.35-.34-.52-.97-.52-1.87v-.4c0-.9.17-1.53.52-1.88.31-.3.78-.46 1.4-.46s1.09.16 1.41.46c.34.35.52.98.52 1.88m2.976 2.18c.5 0 .84-.13 1.03-.39.19-.27.29-.75.29-1.43v-.34c0-.72-.14-1.22-.4-1.49-.21-.2-.53-.31-.95-.31-.43 0-.74.1-.94.3-.11.11-.18.24-.22.38-.04.15-.05.37-.05.65v1.37c0 .4.07.69.21.88.18.26.52.38 1.03.38m-1.24-6.19v2.15h.02q.375-.48 1.26-.48.99 0 1.47.57c.31.38.47.96.47 1.75v.46c0 .84-.17 1.44-.5 1.78-.33.35-.83.52-1.49.52-.72 0-1.22-.17-1.51-.52-.25-.29-.37-.7-.37-1.23v-5c0-.07.04-.11.12-.11h.41c.08 0 .12.04.12.11m4.781 4.11v.19c0 .5.03.86.1 1.1.15.53.54.79 1.16.79s1.01-.26 1.17-.79c.06-.24.1-.6.1-1.1v-.19c0-.49-.04-.86-.1-1.1q-.225-.78-1.17-.78c-.63 0-1.02.26-1.16.78-.07.24-.1.61-.1 1.1m3.19-.1v.4c0 .9-.18 1.53-.52 1.87-.32.32-.79.47-1.41.47s-1.08-.15-1.4-.47c-.35-.34-.52-.97-.52-1.87v-.4c0-.9.17-1.53.52-1.88.31-.3.78-.46 1.4-.46s1.09.16 1.41.46c.34.35.52.98.52 1.88m3.556-2.01h.45c.18 0 .3.1.34.28.29 1.44.59 2.73.91 3.87h.05c.37-1.42.68-2.85.93-4.27 0-.06.02-.09.04-.1s.06-.02.14-.02h.31q.105 0 .15.03c.02.02.03.05.03.11q-.33 1.68-1.02 4.35c-.08.28-.22.41-.42.41h-.34c-.13 0-.23-.03-.29-.09-.07-.06-.12-.16-.16-.32-.32-1.18-.6-2.4-.86-3.65h-.07c-.26 1.25-.55 2.47-.86 3.65-.04.16-.1.26-.16.32-.07.06-.17.09-.29.09h-.34c-.21 0-.35-.13-.42-.41q-.705-2.67-1.02-4.35c-.01-.06 0-.09.03-.11q.03-.03.15-.03h.31q.15 0 .18.12c.24 1.42.55 2.85.93 4.27h.05c.31-1.14.61-2.43.91-3.87.04-.18.15-.28.34-.28m5.03-.13v4.71c0 .06-.03.08-.09.08h-.48c-.06 0-.08-.02-.08-.08v-4.71c0-.07.04-.11.12-.11h.41c.08 0 .12.04.12.11m.14-1.43v.06c0 .32-.15.48-.44.48h-.04c-.31 0-.46-.16-.46-.48v-.06c0-.31.15-.47.46-.47h.04c.29 0 .44.16.44.47m4.095 6.18-.01-.4h-.02c-.22.36-.58.53-1.06.53h-.5c-.48 0-.83-.12-1.07-.36s-.36-.55-.36-.94v-.3q0-.945.78-1.26c.22-.09.62-.14 1.2-.14h.3c.24 0 .47.01.67.03v-.57c0-.36-.1-.62-.29-.76-.2-.14-.5-.22-.92-.22-.35 0-.69.05-1.03.15-.16.04-.24.02-.26-.08l-.05-.21c-.04-.12 0-.19.11-.23.42-.12.84-.19 1.28-.19.64 0 1.1.12 1.38.35s.42.6.42 1.12v3.34c0 .08-.03.15-.09.2-.24.22-.42.4-.52.56a.85.85 0 0 0-.16.5c0 .24.14.36.43.36.16 0 .32-.03.48-.11.07-.03.12-.01.14.05l.06.28c.02.07-.01.12-.08.15-.24.1-.48.15-.74.15q-.96 0-.96-.75 0-.39.21-.66c.14-.18.36-.38.66-.59m-.07-1.45v-.84q-.24-.03-.6-.03h-.56c-.42 0-.71.07-.88.2s-.25.35-.25.66v.2q0 .465.21.66c.12.12.33.18.61.18h.41c.33 0 .59-.08.78-.26.18-.17.28-.43.28-.77m4.93 1.03v.36c0 .07-.04.1-.1.1h-3.12c-.07 0-.1-.03-.1-.1v-.17c0-.1.06-.24.18-.44l2.2-3.63h-2.21c-.07 0-.1-.03-.1-.1v-.36c0-.06.03-.1.1-.1h2.96c.06 0 .1.04.1.1v.14c0 .12-.09.32-.26.6l-2.15 3.5h2.4c.06 0 .1.04.1.1m4.014-4.44h.42c.07 0 .11.05.11.13v3.36c0 .51-.15.89-.44 1.14-.28.24-.74.36-1.36.36s-1.08-.12-1.36-.36q-.45-.375-.45-1.14v-3.33c0-.1.04-.16.14-.16h.37c.09 0 .14.05.14.14v3.27c0 .37.08.63.26.78q.27.24.9.24c.42 0 .72-.09.92-.28.15-.14.23-.39.23-.74v-3.28c0-.08.04-.13.12-.13m2.653.11v4.73c0 .49-.09.88-.25 1.16-.26.46-.71.68-1.35.68h-.36c-.08 0-.11-.04-.11-.12v-.33c0-.08.03-.12.11-.12h.34c.4 0 .68-.15.82-.46.1-.22.15-.5.15-.86v-4.68c0-.07.04-.11.12-.11h.41c.08 0 .12.04.12.11m.14-1.43v.06c0 .32-.15.48-.44.48h-.04c-.31 0-.46-.16-.46-.48v-.06c0-.31.15-.47.46-.47h.04c.29 0 .44.16.44.47m4.745 2.94v.82c0 .14-.03.24-.08.3-.06.06-.15.08-.29.08h-2.58c.02.6.12 1.02.32 1.26.19.24.52.35.99.35.39 0 .76-.06 1.1-.2.13-.05.21-.03.24.07l.07.23c.02.06.01.11-.01.15q-.03.06-.21.12c-.34.13-.74.19-1.19.19-.73 0-1.24-.18-1.53-.55-.3-.36-.44-.96-.44-1.79v-.4c0-.8.14-1.39.43-1.77.28-.38.77-.57 1.45-.57.57 0 1 .14 1.29.41.29.29.44.72.44 1.3m-1.72-1.15c-.44 0-.76.13-.94.38-.19.26-.29.72-.29 1.4h2.15c.05 0 .09 0 .11-.02s.03-.06.03-.13v-.38c0-.43-.08-.74-.23-.93-.18-.21-.45-.32-.83-.32m8.874-2.23v5.02c0 .52-.13.92-.37 1.21-.3.35-.8.52-1.51.52-.72 0-1.23-.16-1.53-.49-.31-.32-.46-.92-.46-1.8v-.47c0-.79.15-1.37.47-1.75q.465-.57 1.47-.57.87 0 1.26.48h.02v-2.15c0-.07.04-.11.12-.11h.41c.08 0 .12.04.12.11m-.65 4.93V29.9c0-.42-.11-.74-.31-.98-.2-.23-.5-.35-.9-.35-.45 0-.78.12-.98.34-.25.28-.37.77-.37 1.47v.34q0 1.11.36 1.5c.18.21.5.31.96.31.5 0 .85-.12 1.03-.38.14-.19.21-.48.21-.88m2.401-.82v.19c0 .5.03.86.1 1.1.15.53.54.79 1.16.79s1.01-.26 1.17-.79c.06-.24.1-.6.1-1.1v-.19c0-.49-.04-.86-.1-1.1q-.225-.78-1.17-.78c-.63 0-1.02.26-1.16.78-.07.24-.1.61-.1 1.1m3.19-.1v.4c0 .9-.18 1.53-.52 1.87-.32.32-.79.47-1.41.47s-1.08-.15-1.4-.47c-.35-.34-.52-.97-.52-1.87v-.4c0-.9.17-1.53.52-1.88.31-.3.78-.46 1.4-.46s1.09.16 1.41.46c.34.35.52.98.52 1.88m5.14 2.18c.46 0 .82-.11 1.06-.33.21-.2.32-.51.32-.92v-.09c0-.5-.14-.85-.41-1.04s-.69-.29-1.26-.29h-.3c-.1 0-.14-.04-.14-.13v-.3c0-.09.05-.14.16-.14h.23c1.06 0 1.59-.39 1.59-1.19v-.09q0-.495-.3-.75c-.2-.17-.48-.26-.83-.26-.4 0-.8.08-1.19.23-.14.05-.22.03-.24-.07l-.08-.26c-.03-.09.02-.16.14-.2.46-.17.94-.26 1.44-.26q.855 0 1.32.39c.31.26.47.63.47 1.13v.13c0 .75-.35 1.23-1.03 1.44v.03c.34.07.61.24.83.51.22.28.33.63.33 1.06v.13c0 1.22-.7 1.83-2.08 1.83-.53 0-1.04-.06-1.52-.2-.12-.03-.16-.1-.14-.2l.06-.26c.02-.1.09-.14.22-.1.42.14.87.2 1.35.2m5.925-.09h1.4q.15 0 .15.15v.28c0 .09-.05.13-.15.13h-3.53q-.15 0-.15-.15v-.26q0-.15.15-.15h1.44v-5.23h-.07l-1.03.62c-.09.06-.16.04-.21-.05l-.16-.26c-.06-.08-.04-.14.05-.19l1.1-.68c.12-.08.27-.12.43-.12h.34q.24 0 .24.21zm3.035-.37h.1c.28 0 .43.13.43.39v.24c0 .26-.15.39-.43.39h-.1c-.29 0-.43-.13-.43-.39v-.24c0-.26.14-.39.43-.39m5.694-2.44v.27c0 1.29-.22 2.17-.65 2.65-.32.36-.8.54-1.43.54-.64 0-1.11-.18-1.43-.54-.44-.48-.65-1.36-.65-2.65v-.27c0-1.28.21-2.17.65-2.65.32-.36.79-.54 1.43-.54.63 0 1.11.18 1.43.54.43.48.65 1.37.65 2.65m-3.43.07v.13c0 1.08.12 1.81.38 2.2.2.34.53.5.97.5s.76-.16.97-.5c.25-.39.38-1.12.38-2.2v-.13c0-1.07-.13-1.8-.38-2.2-.21-.33-.53-.5-.97-.5s-.77.17-.97.5c-.26.4-.38 1.13-.38 2.2m6.286 2.83c.46 0 .82-.11 1.06-.33.21-.2.32-.51.32-.92v-.09c0-.5-.14-.85-.41-1.04s-.69-.29-1.26-.29h-.3c-.1 0-.14-.04-.14-.13v-.3c0-.09.05-.14.16-.14h.23c1.06 0 1.59-.39 1.59-1.19v-.09q0-.495-.3-.75c-.2-.17-.48-.26-.83-.26-.4 0-.8.08-1.19.23-.14.05-.22.03-.24-.07l-.08-.26c-.03-.09.02-.16.14-.2.46-.17.94-.26 1.44-.26q.855 0 1.32.39c.31.26.47.63.47 1.13v.13c0 .75-.35 1.23-1.03 1.44v.03c.34.07.61.24.83.51.22.28.33.63.33 1.06v.13c0 1.22-.7 1.83-2.08 1.83-.53 0-1.04-.06-1.52-.2-.12-.03-.16-.1-.14-.2l.06-.26c.02-.1.09-.14.22-.1.42.14.87.2 1.35.2m3.765-.46h.1c.28 0 .43.13.43.39v.24c0 .26-.15.39-.43.39h-.1c-.29 0-.43-.13-.43-.39v-.24c0-.26.14-.39.43-.39m2.034-5.36a4.8 4.8 0 0 1 1.57-.27c.59 0 1.04.12 1.34.34q.54.42.54 1.29v.13c0 .47-.11.84-.31 1.1-.21.27-.57.51-1.07.73l-.69.3c-.39.17-.65.38-.78.64s-.19.64-.19 1.12v.35h2.79c.08 0 .13.05.13.13v.3c0 .09-.05.13-.13.13h-3.25c-.09 0-.15-.01-.18-.05-.04-.04-.05-.1-.05-.19v-.58c0-.6.09-1.08.28-1.46.18-.37.53-.67 1.03-.89l.69-.3c.39-.17.65-.35.79-.54q.21-.27.21-.78v-.07c0-.42-.11-.73-.33-.91-.2-.15-.49-.23-.87-.23-.42 0-.87.09-1.34.25-.14.05-.22.02-.24-.08l-.08-.26c-.02-.09.02-.16.14-.2m8.855 2.92v.27c0 1.29-.22 2.17-.65 2.65-.32.36-.8.54-1.43.54-.64 0-1.11-.18-1.43-.54-.44-.48-.65-1.36-.65-2.65v-.27c0-1.28.21-2.17.65-2.65.32-.36.79-.54 1.43-.54.63 0 1.11.18 1.43.54.43.48.65 1.37.65 2.65m-3.43.07v.13c0 1.08.12 1.81.38 2.2.2.34.53.5.97.5s.76-.16.97-.5c.25-.39.38-1.12.38-2.2v-.13c0-1.07-.13-1.8-.38-2.2-.21-.33-.53-.5-.97-.5s-.77.17-.97.5c-.26.4-.38 1.13-.38 2.2m4.965-2.99a4.8 4.8 0 0 1 1.57-.27c.59 0 1.04.12 1.34.34q.54.42.54 1.29v.13c0 .47-.11.84-.31 1.1-.21.27-.57.51-1.07.73l-.69.3c-.39.17-.65.38-.78.64s-.19.64-.19 1.12v.35h2.79c.08 0 .13.05.13.13v.3c0 .09-.05.13-.13.13h-3.25c-.09 0-.15-.01-.18-.05-.04-.04-.05-.1-.05-.19v-.58c0-.6.09-1.08.28-1.46.18-.37.53-.67 1.03-.89l.69-.3c.39-.17.65-.35.79-.54q.21-.27.21-.78v-.07c0-.42-.11-.73-.33-.91-.2-.15-.49-.23-.87-.23-.42 0-.87.09-1.34.25-.14.05-.22.02-.24-.08l-.08-.26c-.02-.09.02-.16.14-.2m8.276-.13c.12.04.17.11.15.19l-.07.25c-.04.11-.11.15-.21.11-.28-.08-.59-.13-.91-.13-.55 0-.97.2-1.26.59-.26.35-.43.97-.49 1.86.18-.15.4-.27.68-.37.28-.09.55-.14.82-.14.57 0 1.02.17 1.34.5s.49.79.49 1.38V31c0 .65-.18 1.16-.53 1.53-.36.38-.84.56-1.46.56-.76 0-1.3-.24-1.62-.73-.32-.48-.47-1.22-.47-2.22v-.24c0-.58.06-1.11.19-1.61q.18-.75.54-1.14c.41-.47 1.02-.71 1.82-.71.4 0 .73.05.99.14m-1.42 2.95c-.52 0-.98.21-1.39.61v.14c0 .76.1 1.33.3 1.7s.54.55 1.02.55c.41 0 .73-.12.96-.38.22-.26.34-.63.34-1.12v-.13q0-.675-.33-1.02c-.22-.23-.52-.35-.9-.35m3.425 2.54h.1c.28 0 .43.13.43.39v.24c0 .26-.15.39-.43.39h-.1c-.29 0-.43-.13-.43-.39v-.24c0-.26.14-.39.43-.39M2.17 45.09c-.62 0-1.17-.09-1.66-.29-.09-.03-.12-.09-.1-.17l.08-.33c.02-.1.09-.12.21-.08.46.21.95.31 1.45.31.46 0 .81-.1 1.05-.31s.36-.51.36-.91v-.11c0-.36-.08-.62-.22-.78s-.42-.3-.84-.4l-.67-.16c-.49-.12-.85-.3-1.08-.56-.23-.25-.34-.6-.34-1.06v-.15c0-.53.17-.94.51-1.22s.81-.43 1.41-.43c.54 0 1.01.07 1.43.19.11.04.15.11.13.22l-.07.24q-.045.15-.24.09A4.4 4.4 0 0 0 2.35 39c-.83 0-1.24.37-1.24 1.1v.1c0 .34.08.58.24.73s.43.27.81.35l.63.15c.54.13.92.32 1.14.56q.33.375.33 1.11v.16c0 .61-.18 1.07-.54 1.37-.36.31-.87.46-1.55.46m6.128-.55v.36c0 .07-.04.1-.1.1h-3.12c-.07 0-.1-.03-.1-.1v-.17c0-.1.06-.24.18-.44l2.2-3.63h-2.21c-.07 0-.1-.03-.1-.1v-.36c0-.06.03-.1.1-.1h2.96c.06 0 .1.04.1.1v.14c0 .12-.09.32-.26.6l-2.15 3.5h2.4c.06 0 .1.04.1.1m3.946-.13.07.23q.03.105 0 .15c-.02.03-.07.06-.17.1-.33.14-.71.2-1.14.2-.62 0-1.08-.14-1.38-.43-.39-.35-.58-1.01-.58-1.98v-.33c0-.88.2-1.51.61-1.89q.48-.45 1.35-.45c.26 0 .53.05.79.13.26.09.48.19.64.31.05.04.05.1.01.16l-.17.28c-.04.06-.09.07-.17.02-.38-.22-.74-.34-1.1-.34-.39 0-.69.11-.9.31-.27.27-.4.79-.4 1.56v.17c0 .76.1 1.28.32 1.54.2.26.53.38 1.01.38.32 0 .64-.06.97-.19.13-.05.21-.03.24.07m4.12.13v.36c0 .07-.04.1-.1.1h-3.12c-.07 0-.1-.03-.1-.1v-.17c0-.1.06-.24.18-.44l2.2-3.63h-2.21c-.07 0-.1-.03-.1-.1v-.36c0-.06.03-.1.1-.1h2.96c.06 0 .1.04.1.1v.14c0 .12-.09.32-.26.6l-2.15 3.5h2.4c.06 0 .1.04.1.1m4.356-2.82v.82c0 .14-.03.24-.08.3-.06.06-.15.08-.29.08h-2.58c.02.6.12 1.02.32 1.26.19.24.52.35.99.35.39 0 .76-.06 1.1-.2.13-.05.21-.03.24.07l.07.23c.02.06.01.11-.01.15q-.03.06-.21.12c-.34.13-.74.19-1.19.19-.73 0-1.24-.18-1.53-.55-.3-.36-.44-.96-.44-1.79v-.4c0-.8.14-1.39.43-1.77.28-.38.77-.57 1.45-.57.57 0 1 .14 1.29.41.29.29.44.72.44 1.3M19 40.57c-.44 0-.76.13-.94.38-.19.26-.29.72-.29 1.4h2.15c.05 0 .09 0 .11-.02s.03-.06.03-.13v-.38c0-.43-.08-.74-.23-.93-.18-.21-.45-.32-.83-.32m5.911 3.03c-.09.08-.18.15-.26.2.57.37.86.84.86 1.4v.11c0 .54-.18.93-.54 1.18-.36.26-.86.38-1.48.38-.64 0-1.25-.13-1.81-.41-.07-.03-.1-.08-.08-.16l.11-.3q.03-.12.18-.06c.51.25 1.02.37 1.53.37.48 0 .84-.07 1.06-.22q.33-.225.33-.81v-.08c0-.52-.25-.92-.74-1.18-.16.04-.35.05-.59.05-.57 0-1.01-.12-1.33-.37-.35-.3-.52-.78-.52-1.46v-.41c0-.69.17-1.18.52-1.47.28-.23.73-.35 1.33-.35.14 0 .25.01.32.01.16-.48.54-.73 1.12-.73h.24c.09 0 .14.05.14.14v.39c0 .01-.01.02-.01.03-.01.01-.02.02-.04.02-.02.01-.05.01-.07.01h-.3c-.26 0-.42.09-.5.25.18.07.33.15.44.23.34.29.52.78.52 1.47v.41c0 .59-.15 1.04-.43 1.36m-2.6-1.7v.26c0 .32.03.59.11.79.14.41.5.61 1.06.61.57 0 .93-.2 1.08-.61.06-.19.1-.46.1-.8v-.25c0-.34-.04-.6-.1-.78a.8.8 0 0 0-.38-.46c-.17-.09-.4-.14-.7-.14-.29 0-.52.05-.69.14s-.29.24-.37.46c-.08.2-.11.46-.11.78m4.736.55v.19c0 .5.03.86.1 1.1.15.53.54.79 1.16.79s1.01-.26 1.17-.79c.06-.24.1-.6.1-1.1v-.19c0-.49-.04-.86-.1-1.1q-.225-.78-1.17-.78c-.63 0-1.02.26-1.16.78-.07.24-.1.61-.1 1.1m3.19-.1v.4c0 .9-.18 1.53-.52 1.87-.32.32-.79.47-1.41.47s-1.08-.15-1.4-.47c-.35-.34-.52-.97-.52-1.87v-.4c0-.9.17-1.53.52-1.88.31-.3.78-.46 1.4-.46s1.09.16 1.41.46c.34.35.52.98.52 1.88m-2.89-3.59 1.7-.83c.13-.06.22-.03.27.07l.17.35c.04.1-.01.18-.13.24l-1.71.65c-.13.05-.21.03-.25-.06l-.1-.22c-.04-.09-.03-.16.05-.2m4.707-.42v2.58l.99-.65c.11-.06.17-.03.17.11v.35c0 .12-.05.22-.15.28l-1.01.67v2.01q0 .525.09.63c.05.08.17.11.36.11h.27c.08 0 .12.04.12.11v.34c0 .08-.04.12-.1.12h-.38c-.36 0-.62-.07-.77-.23-.16-.16-.24-.47-.24-.92v-1.74l-.69.45c-.12.07-.17.03-.17-.11v-.35c0-.12.05-.21.15-.28l.71-.47v-3.01c0-.07.04-.11.12-.11h.41c.08 0 .12.04.12.11m2.47 8.19c.27-.53.51-1.06.73-1.6-.3 0-.53-.21-.67-.63-.22-.58-.4-1.16-.56-1.72-.24-.85-.45-1.63-.61-2.35-.02-.08.01-.13.11-.13h.45c.06 0 .09.03.11.09.14.71.32 1.45.53 2.22.11.44.28.98.5 1.62.04.12.08.21.13.25.04.05.11.07.19.07h.04c.38-1.04.74-2.43 1.09-4.17.01-.05.05-.08.11-.08h.46c.04 0 .06.01.08.03s.02.04.02.06c-.31 1.45-.63 2.65-.95 3.61s-.71 1.96-1.17 2.98c-.04.09-.11.11-.21.07l-.33-.12c-.09-.03-.11-.1-.05-.2m6.78-6.32v4.71c0 .06-.03.08-.09.08h-.48c-.06 0-.08-.02-.08-.08v-4.71c0-.07.04-.11.12-.11h.41c.08 0 .12.04.12.11m.14-1.43v.06c0 .32-.15.48-.44.48h-.04c-.31 0-.46-.16-.46-.48v-.06c0-.31.15-.47.46-.47h.04c.29 0 .44.16.44.47M45.643 45h-.32c-.11 0-.16-.04-.16-.13v-4.66c0-.07.04-.11.12-.11h.29c.06 0 .1.04.12.11l.04.52h.02c.22-.42.61-.63 1.16-.63h.26c.08 0 .13.04.13.12v.34c0 .08-.05.11-.13.11h-.27c-.44 0-.75.14-.91.41-.12.2-.18.46-.18.79v3c0 .09-.06.13-.17.13m5.917-3.28v.82c0 .14-.03.24-.08.3-.06.06-.15.08-.29.08h-2.58c.02.6.12 1.02.32 1.26.19.24.52.35.99.35.39 0 .76-.06 1.1-.2.13-.05.21-.03.24.07l.07.23c.02.06.01.11-.01.15q-.03.06-.21.12c-.34.13-.74.19-1.19.19-.73 0-1.24-.18-1.53-.55-.3-.36-.44-.96-.44-1.79v-.4c0-.8.14-1.39.43-1.77.28-.38.77-.57 1.45-.57.57 0 1 .14 1.29.41.29.29.44.72.44 1.3m-1.72-1.15c-.44 0-.76.13-.94.38-.19.26-.29.72-.29 1.4h2.15c.05 0 .09 0 .11-.02s.03-.06.03-.13v-.38c0-.43-.08-.74-.23-.93-.18-.21-.45-.32-.83-.32m5.911 3.03c-.09.08-.18.15-.26.2.57.37.86.84.86 1.4v.11c0 .54-.18.93-.54 1.18-.36.26-.86.38-1.48.38-.64 0-1.25-.13-1.81-.41-.07-.03-.1-.08-.08-.16l.11-.3q.03-.12.18-.06c.51.25 1.02.37 1.53.37.48 0 .84-.07 1.06-.22q.33-.225.33-.81v-.08c0-.52-.25-.92-.74-1.18-.16.04-.35.05-.59.05-.57 0-1.01-.12-1.33-.37-.35-.3-.52-.78-.52-1.46v-.41c0-.69.17-1.18.52-1.47.28-.23.73-.35 1.33-.35.14 0 .25.01.32.01.16-.48.54-.73 1.12-.73h.24c.09 0 .14.05.14.14v.39c0 .01-.01.02-.01.03-.01.01-.02.02-.04.02-.02.01-.05.01-.07.01h-.3c-.26 0-.42.09-.5.25.18.07.33.15.44.23.34.29.52.78.52 1.47v.41c0 .59-.15 1.04-.43 1.36m-2.6-1.7v.26c0 .32.03.59.11.79.14.41.5.61 1.06.61.57 0 .93-.2 1.08-.61.06-.19.1-.46.1-.8v-.25c0-.34-.04-.6-.1-.78a.8.8 0 0 0-.38-.46c-.17-.09-.4-.14-.7-.14-.29 0-.52.05-.69.14s-.29.24-.37.46c-.08.2-.11.46-.11.78m7.346-1.8h.42c.07 0 .11.05.11.13v3.36c0 .51-.15.89-.44 1.14-.28.24-.74.36-1.36.36s-1.08-.12-1.36-.36q-.45-.375-.45-1.14v-3.33c0-.1.04-.16.14-.16h.37c.09 0 .14.05.14.14v3.27c0 .37.08.63.26.78q.27.24.9.24c.42 0 .72-.09.92-.28.15-.14.23-.39.23-.74v-3.28c0-.08.04-.13.12-.13m2.543-1.76v5.35q0 .525.09.63c.05.08.17.11.36.11h.27c.08 0 .12.04.12.11v.34c0 .08-.04.12-.1.12h-.38c-.36 0-.62-.07-.77-.23-.16-.16-.24-.47-.24-.92v-5.51c0-.07.04-.11.12-.11h.41c.08 0 .12.04.12.11m4.58 6.56-.02-.34h-.02c-.22.36-.58.53-1.06.53h-.5c-.48 0-.83-.12-1.07-.36s-.36-.55-.36-.94v-.3q0-.945.78-1.26c.22-.09.62-.14 1.2-.14h.3c.24 0 .47.01.67.03v-.57c0-.36-.1-.62-.29-.76-.2-.14-.5-.22-.92-.22-.35 0-.69.05-1.03.15-.16.04-.24.02-.26-.08l-.05-.21c-.04-.12 0-.19.11-.23.42-.12.84-.19 1.28-.19.64 0 1.1.12 1.38.35s.43.6.43 1.12v3.42c0 .07-.04.1-.11.1h-.33c-.09 0-.13-.03-.13-.1m-.08-1.4v-.83q-.24-.03-.6-.03h-.56c-.42 0-.71.07-.88.2s-.25.35-.25.66v.21c0 .3.07.52.21.65.12.12.33.18.61.18h.41c.33 0 .59-.08.78-.26.18-.18.28-.44.28-.78m1.978 1.35v-4.64c0-.07.03-.11.11-.11h.29c.07 0 .11.04.12.11l.05.4h.02c.08-.14.22-.26.41-.38.25-.14.56-.22.93-.22.7 0 1.2.23 1.49.69h.02c.35-.46.87-.69 1.55-.69.6 0 1.04.16 1.32.47.26.31.4.81.4 1.49v2.88c0 .1-.06.15-.16.15h-.34q-.15 0-.15-.15v-2.92c0-.46-.09-.79-.25-1.01-.2-.23-.5-.35-.92-.35q-.81 0-1.26.6c.04.26.06.53.06.8v2.88q0 .15-.15.15h-.34c-.11 0-.16-.05-.16-.15v-2.92q0-.735-.3-1.05c-.2-.2-.52-.31-.94-.31-.46 0-.79.14-.97.42q-.18.27-.18.78v3.08q0 .15-.15.15h-.35q-.15 0-.15-.15m8.817-4.64v4.71c0 .06-.03.08-.09.08h-.48c-.06 0-.08-.02-.08-.08v-4.71c0-.07.04-.11.12-.11h.41c.08 0 .12.04.12.11m.14-1.43v.06c0 .32-.15.48-.44.48h-.04c-.31 0-.46-.16-.46-.48v-.06c0-.31.15-.47.46-.47h.04c.29 0 .44.16.44.47m5.095 6.05c0 .12-.07.17-.19.17h-.28q-.12 0-.15-.03c-.02-.02-.03-.06-.03-.14v-2.92c0-.59-.16-.98-.46-1.17-.2-.12-.47-.19-.81-.19-.47 0-.8.14-.98.42q-.18.27-.18.78v3.1q0 .15-.18.15H80c-.11 0-.16-.05-.16-.15v-4.64c0-.07.03-.11.1-.11h.3c.07 0 .11.04.12.11l.05.4h.02c.08-.14.22-.26.41-.38.25-.14.56-.22.94-.22.77 0 1.29.23 1.55.67q.24.42.24 1.29zm1.749-4.57h.1c.28 0 .43.13.43.39v.24c0 .26-.15.39-.43.39h-.1c-.29 0-.43-.13-.43-.39v-.24c0-.26.14-.39.43-.39m0 3.81h.1c.28 0 .43.13.43.39v.24c0 .26-.15.39-.43.39h-.1c-.29 0-.43-.13-.43-.39v-.24c0-.26.14-.39.43-.39m7.288-3.97h.42c.07 0 .11.05.11.13v3.36c0 .51-.15.89-.44 1.14-.28.24-.74.36-1.36.36s-1.08-.12-1.36-.36q-.45-.375-.45-1.14v-3.33c0-.1.04-.16.14-.16h.37c.09 0 .14.05.14.14v3.27c0 .37.08.63.26.78q.27.24.9.24c.42 0 .72-.09.92-.28.15-.14.23-.39.23-.74v-3.28c0-.08.04-.13.12-.13m5.592 4.73c0 .12-.07.17-.19.17h-.28q-.12 0-.15-.03c-.02-.02-.03-.06-.03-.14v-2.92c0-.59-.16-.98-.46-1.17-.2-.12-.47-.19-.81-.19-.47 0-.8.14-.98.42q-.18.27-.18.78v3.1q0 .15-.18.15h-.31c-.11 0-.16-.05-.16-.15v-4.64c0-.07.03-.11.1-.11h.3c.07 0 .11.04.12.11l.05.4h.02c.08-.14.22-.26.41-.38.25-.14.56-.22.94-.22.77 0 1.29.23 1.55.67q.24.42.24 1.29zm2.109-4.62v4.71c0 .06-.03.08-.09.08h-.48c-.06 0-.08-.02-.08-.08v-4.71c0-.07.04-.11.12-.11h.41c.08 0 .12.04.12.11m.14-1.43v.06c0 .32-.15.48-.44.48h-.04c-.31 0-.46-.16-.46-.48v-.06c0-.31.15-.47.46-.47h.04c.29 0 .44.16.44.47m4.325 5.63.07.23q.03.105 0 .15c-.02.03-.07.06-.17.1-.33.14-.71.2-1.14.2-.62 0-1.08-.14-1.38-.43-.39-.35-.58-1.01-.58-1.98v-.33c0-.88.2-1.51.61-1.89q.48-.45 1.35-.45c.26 0 .53.05.79.13.26.09.48.19.64.31.05.04.05.1.01.16l-.17.28c-.04.06-.09.07-.17.02-.38-.22-.74-.34-1.1-.34-.39 0-.69.11-.9.31-.27.27-.4.79-.4 1.56v.17c0 .76.1 1.28.32 1.54.2.26.53.38 1.01.38.32 0 .64-.06.97-.19.13-.05.21-.03.24.07m1.641.59h-.32c-.11 0-.16-.04-.16-.13v-4.66c0-.07.04-.11.12-.11h.29c.06 0 .1.04.12.11l.04.52h.02c.22-.42.61-.63 1.16-.63h.26c.08 0 .13.04.13.12v.34c0 .08-.05.11-.13.11h-.27c-.44 0-.75.14-.91.41-.12.2-.18.46-.18.79v3c0 .09-.06.13-.17.13m5.917-3.28v.82c0 .14-.03.24-.08.3-.06.06-.15.08-.29.08h-2.58c.02.6.12 1.02.32 1.26.19.24.52.35.99.35.39 0 .76-.06 1.1-.2.13-.05.21-.03.24.07l.07.23c.02.06.01.11-.01.15q-.03.06-.21.12c-.34.13-.74.19-1.19.19-.73 0-1.24-.18-1.53-.55-.3-.36-.44-.96-.44-1.79v-.4c0-.8.14-1.39.43-1.77.28-.38.77-.57 1.45-.57.57 0 1 .14 1.29.41.29.29.44.72.44 1.3m-1.72-1.15c-.44 0-.76.13-.94.38-.19.26-.29.72-.29 1.4h2.15c.05 0 .09 0 .11-.02s.03-.06.03-.13v-.38c0-.43-.08-.74-.23-.93-.18-.21-.45-.32-.83-.32m6.522-2.23v5.02c0 .52-.13.92-.37 1.21-.3.35-.8.52-1.51.52-.72 0-1.23-.16-1.53-.49-.31-.32-.46-.92-.46-1.8v-.47c0-.79.15-1.37.47-1.75q.465-.57 1.47-.57.87 0 1.26.48h.02v-2.15c0-.07.04-.11.12-.11h.41c.08 0 .12.04.12.11m-.65 4.93V41.9c0-.42-.11-.74-.31-.98-.2-.23-.5-.35-.9-.35-.45 0-.78.12-.98.34-.25.28-.37.77-.37 1.47v.34q0 1.11.359 1.5c.181.21.501.31.961.31.5 0 .85-.12 1.03-.38.14-.19.21-.48.21-.88m2.76-3.06v4.71c0 .06-.03.08-.09.08h-.48c-.06 0-.08-.02-.08-.08v-4.71c0-.07.04-.11.12-.11h.41c.08 0 .12.04.12.11m.14-1.43v.06c0 .32-.15.48-.44.48h-.04c-.31 0-.46-.16-.46-.48v-.06c0-.31.15-.47.46-.47h.04c.29 0 .44.16.44.47m3.456 6.22h-.47c-.52 0-.9-.13-1.12-.4-.22-.26-.33-.64-.33-1.15v-2.78h-.61c-.07 0-.1-.03-.1-.11v-.2c0-.08.03-.12.1-.13l.61-.13v-1.13q0-.12.12-.12h.42c.07 0 .11.04.11.12v1.13h1.17c.06 0 .1.04.1.1v.37c0 .07-.04.1-.1.1h-1.17v2.7c0 .4.06.68.18.82.12.17.37.25.73.25h.36c.08 0 .12.04.12.11v.34c0 .08-.04.11-.12.11m1.294-.93h.1c.28 0 .43.13.43.39v.24c0 .26-.15.39-.43.39h-.1c-.29 0-.43-.13-.43-.39v-.24c0-.26.14-.39.43-.39m3.713 1.02c-.64 0-1.1-.17-1.37-.53h-.02v2.1c0 .08-.04.11-.1.11h-.45c-.07 0-.1-.03-.1-.11v-6.45c0-.07.03-.11.1-.11h.3c.07 0 .11.04.12.11l.06.4h.02c.28-.4.77-.6 1.45-.6.65 0 1.12.18 1.4.54s.43.92.43 1.7v.52q0 1.155-.42 1.74c-.28.39-.75.58-1.42.58m-.08-4.52c-.88 0-1.31.42-1.31 1.26v1.41c0 .43.11.75.35.97.23.22.56.32.98.32.44 0 .77-.12.97-.37q.27-.33.27-1.44v-.38c0-.7-.11-1.18-.31-1.43-.2-.22-.51-.34-.95-.34m3.741-2.23v5.35q0 .525.09.63c.05.08.17.11.36.11h.27c.08 0 .12.04.12.11v.34c0 .08-.04.12-.1.12h-.38c-.36 0-.62-.07-.77-.23-.16-.16-.24-.47-.24-.92v-5.51c0-.07.04-.11.12-.11h.41c.08 0 .12.04.12.11"/></svg>