<svg xmlns="http://www.w3.org/2000/svg" fill="none" viewBox="0 0 362 34"><path fill="#fff" d="M4.802 19.587h3.93v-6.318h-.027zm9.94 3.538h-1.46v2.948c0 .422-.084.674-.197.787-.14.112-.42.14-.814.14H9.8c-.45 0-.73-.028-.87-.14s-.197-.365-.197-.787v-2.948h-7.16q-.59 0-.759-.169-.168-.168-.168-.758v-.674c0-.561.028-.982.112-1.263.056-.253.253-.618.534-1.067L7.16 9.73c.225-.365.422-.618.646-.73q.337-.17.927-.169h3.398c.449 0 .758.084.926.225.14.168.225.477.225.955v9.575h1.46c.337 0 .533.056.646.14.084.113.14.31.14.618v2.022c0 .337-.056.533-.14.618-.113.112-.309.14-.646.14m4.748-.758h.393c.842 0 1.432.224 1.797.618.365.42.562 1.038.562 1.88v.366c0 .87-.281 1.938-.787 3.23a12.3 12.3 0 0 1-2.218 3.537c-.168.225-.365.31-.562.31a.8.8 0 0 1-.449-.141l-1.404-.843c-.337-.168-.365-.449-.084-.814.253-.337.618-.87 1.123-1.629.337-.505.505-.87.505-1.15 0-.141-.084-.254-.224-.366l-.28-.196c-.478-.338-.703-.927-.703-1.77v-.786c0-1.488.758-2.246 2.33-2.246m16.344-9.8H30.16c-.28 0-.393.14-.393.365l-.084 2.611q1.264-.42 2.78-.42h.28c1.798 0 3.118.42 3.96 1.235.899.898 1.376 2.386 1.376 4.464v.393c0 2.135-.618 3.679-1.797 4.662-1.123.926-2.864 1.376-5.223 1.376h-.28q-2.74 0-5.56-1.011c-.394-.113-.562-.337-.562-.646 0-.112.028-.365.14-.758l.393-1.432c.113-.393.253-.646.45-.758.168-.085.393-.057.674.056 1.572.59 3.004.87 4.296.87h.28c.815 0 1.46-.168 1.966-.505q.674-.421.674-1.854v-.196c0-.842-.197-1.46-.59-1.797-.365-.309-.898-.478-1.6-.478h-.169q-1.474 0-3.285.674c-.28.113-.477.14-.562.14-.168 0-.393-.083-.645-.252l-.9-.59c-.28-.196-.42-.449-.42-.73 0-.168 0-.533.056-1.123l.365-7.188c0-.562.337-.843.955-.843h9.154c.337 0 .59.056.702.169.112.112.196.309.196.646v2.162c0 .309-.084.505-.196.618-.14.112-.393.14-.758.14m14.182 1.039v.28c0 1.854-.477 3.174-1.376 4.016-.842.674-1.937 1.011-3.229 1.011-1.46 0-2.555-.365-3.313-1.095-.843-.786-1.264-2.022-1.264-3.65v-.843c0-1.629.421-2.836 1.264-3.65.758-.73 1.853-1.095 3.313-1.095 1.292 0 2.387.336 3.23 1.01.898.843 1.375 2.19 1.375 4.016m-4.773 12.636L55.604 9.169c.14-.224.309-.393.477-.477a2.5 2.5 0 0 1 .787-.112h2.05c.87 0 1.123.336.73 1.01L49.286 26.663c-.168.253-.309.421-.477.477-.169.085-.45.113-.786.113h-2.05c-.899 0-1.123-.337-.73-1.011m-.618-13.254v1.516c0 .59.056.983.196 1.18.113.196.31.28.562.28h.056a.66.66 0 0 0 .562-.28c.112-.197.196-.59.196-1.18v-1.516c0-.561-.084-.955-.196-1.151a.68.68 0 0 0-.562-.31h-.056a.62.62 0 0 0-.562.31c-.14.196-.196.59-.196 1.151m19.712 8.958v.28c0 1.854-.477 3.173-1.376 4.016-.842.674-1.937 1.01-3.23 1.01-1.46 0-2.554-.364-3.313-1.094-.842-.787-1.263-1.994-1.263-3.65v-.843c0-1.629.421-2.864 1.263-3.65.759-.73 1.854-1.096 3.314-1.096 1.291 0 2.387.337 3.23 1.011.898.843 1.375 2.19 1.375 4.016m-5.391-.618v1.516c0 .59.056.983.196 1.18.112.196.31.28.562.28h.056a.66.66 0 0 0 .562-.28c.112-.197.196-.59.196-1.18v-1.516c0-.562-.084-.955-.197-1.151a.68.68 0 0 0-.561-.31h-.056a.62.62 0 0 0-.562.31c-.14.196-.196.59-.196 1.15m14.639-1.801h.12c.868 0 1.512.21 1.901.614.36.39.555 1.048.555 1.977v4.448c0 .15-.045.27-.12.33-.075.074-.21.104-.39.104h-1.377c-.195 0-.33-.03-.405-.105-.075-.06-.105-.18-.105-.33v-4.238c0-.329-.06-.569-.164-.688-.12-.12-.345-.195-.66-.195h-.09c-.329 0-.538.075-.658.195s-.165.359-.165.689v4.238c0 .15-.045.27-.12.33-.075.074-.21.104-.389.104H70.14c-.194 0-.33-.03-.404-.105-.075-.06-.105-.18-.105-.33v-6.484c0-.15.03-.255.105-.314.075-.06.21-.105.404-.105h.704c.18 0 .3.03.375.075q.111.067.18.27l.09.284h.044c.48-.51 1.153-.764 2.052-.764m8.33 6.859h-.03c-.33.51-.988.749-1.962.749H79.7c-.764 0-1.363-.195-1.782-.584-.435-.39-.644-.974-.644-1.723v-.164c0-.809.224-1.393.689-1.723.464-.329 1.212-.494 2.26-.494h.106c.39 0 .748.03 1.048.06v-.314c0-.315-.09-.54-.255-.66-.18-.104-.479-.164-.898-.164-.51 0-1.078.09-1.737.255-.18.045-.315.045-.375 0-.075-.045-.12-.135-.135-.285l-.12-.794c-.03-.134-.03-.24-.03-.3 0-.179.12-.314.36-.389a9.7 9.7 0 0 1 2.561-.329c1.153 0 1.977.255 2.456.734.374.39.57 1.018.57 1.872v4.448c0 .15-.046.27-.12.33-.076.059-.21.089-.39.089h-.704c-.18 0-.3-.015-.374-.06s-.135-.135-.18-.284zm-.539-1.917v-.42a4.3 4.3 0 0 0-.719-.044h-.165q-.539 0-.763.135c-.15.09-.21.27-.21.539v.06c0 .27.06.449.21.539.134.105.344.15.629.15h.105c.299 0 .524-.075.703-.225.135-.12.21-.375.21-.734m9.459-.374v2.47c0 .15-.045.27-.12.33-.075.075-.21.105-.39.105h-1.377c-.195 0-.33-.03-.404-.105-.075-.06-.105-.18-.105-.33v-9.27c0-.15.03-.254.105-.329.075-.06.21-.105.404-.105h1.378c.18 0 .314.045.39.105.074.075.119.18.119.33v4.882h.105l1.422-2.172a.69.69 0 0 1 .63-.344h1.737c.165 0 .254.06.254.18 0 .06-.045.164-.12.284l-1.722 2.576c-.135.21-.194.36-.194.45 0 .104.06.254.194.448l1.842 2.906c.06.12.09.195.09.254 0 .165-.105.24-.314.24h-1.663c-.21 0-.374-.015-.464-.075q-.135-.068-.27-.314l-1.422-2.516zm7.059-1.348v1.168c0 .584.09.958.27 1.138.134.15.344.21.628.21h.06c.27 0 .48-.06.63-.21.179-.18.269-.554.269-1.138v-1.168c0-.57-.09-.959-.27-1.138-.15-.135-.36-.21-.629-.21h-.06c-.284 0-.494.075-.629.21-.18.18-.27.569-.27 1.138m4.268.09v.973c0 .749-.075 1.318-.225 1.737s-.389.75-.719 1.004c-.494.39-1.258.584-2.306.584h-.18c-1.048 0-1.827-.195-2.306-.584a2.14 2.14 0 0 1-.719-1.004c-.15-.419-.224-.988-.224-1.737v-.958c0-.734.074-1.303.224-1.723.15-.419.39-.748.719-1.018.48-.39 1.258-.584 2.306-.584h.18c1.048 0 1.812.195 2.306.584.33.27.569.6.719 1.003.15.42.225.989.225 1.723m5.236-3.31h.12c.868 0 1.512.21 1.901.614.36.39.555 1.048.555 1.977v4.448c0 .15-.045.27-.12.33-.075.074-.21.104-.39.104h-1.377c-.195 0-.33-.03-.405-.105-.075-.06-.105-.18-.105-.33v-4.238c0-.329-.059-.569-.164-.688-.12-.12-.345-.195-.659-.195h-.09c-.33 0-.539.075-.659.195s-.165.359-.165.689v4.238c0 .15-.045.27-.12.33-.074.074-.209.104-.389.104h-1.378c-.194 0-.329-.03-.404-.105-.075-.06-.105-.18-.105-.33v-6.484c0-.15.03-.255.105-.314.075-.06.21-.105.404-.105h.704c.18 0 .3.03.375.075q.111.067.179.27l.09.284h.045c.479-.51 1.153-.764 2.052-.764m7.447 5.676h.119c.405 0 .839-.06 1.303-.195.15-.03.24-.045.285-.045.15 0 .239.09.269.255l.135.764c.03.21.06.344.06.404 0 .18-.135.315-.389.404-.659.24-1.378.345-2.157.345h-.18c-1.078 0-1.872-.24-2.366-.749q-.764-.765-.764-2.56v-.87c0-.703.06-1.258.18-1.647q.18-.585.584-.988c.524-.524 1.348-.794 2.471-.794h.15c.899 0 1.677.165 2.306.494.18.105.285.225.285.375 0 .09-.045.24-.12.449l-.284.719q-.113.27-.315.27a.6.6 0 0 1-.27-.076c-.479-.194-.928-.3-1.332-.3h-.06c-.39 0-.674.106-.854.285-.225.225-.329.69-.329 1.378v.51c0 .613.089 1.033.299 1.257.195.21.524.315.974.315m5.782-5.107v6.47c0 .15-.045.27-.12.33-.075.074-.21.104-.389.104h-1.378c-.195 0-.33-.03-.405-.105-.074-.06-.104-.18-.104-.33v-6.469c0-.15.03-.255.104-.33.075-.06.21-.104.405-.104h1.378c.179 0 .314.045.389.105.075.075.12.18.12.33m-1.108-1.003h-.18c-.809 0-1.213-.405-1.213-1.243v-.075c0-.824.404-1.243 1.213-1.243h.18c.808 0 1.213.42 1.213 1.243v.075c0 .838-.405 1.243-1.213 1.243m6.224 6.11h.165a6.6 6.6 0 0 0 1.587-.195c.15-.03.24-.045.285-.045.149 0 .239.09.269.255l.12.749c.03.21.06.344.06.404 0 .18-.135.315-.389.404-.689.24-1.453.36-2.262.36h-.284q-1.842 0-2.606-.764a2.14 2.14 0 0 1-.599-1.018c-.105-.39-.15-.914-.15-1.558v-.839c0-1.302.3-2.216.899-2.755.509-.45 1.288-.674 2.351-.674h.21c1.048 0 1.812.255 2.261.749.479.539.719 1.422.719 2.68v.78c0 .284-.15.419-.435.419h-3.594v.12c0 .359.09.598.3.733.194.135.554.195 1.093.195m-1.393-2.606h1.648c.119 0 .179-.06.179-.195v-.24c0-.299-.06-.523-.149-.688-.12-.18-.36-.27-.689-.27h-.135c-.3 0-.509.075-.629.21q-.225.27-.225.809zm10.72.15v1.168c0 .584.09.958.27 1.138.135.15.344.21.629.21h.06c.269 0 .479-.06.629-.21.18-.18.269-.554.269-1.138v-1.168c0-.57-.089-.959-.269-1.138-.15-.135-.36-.21-.629-.21h-.06c-.285 0-.494.075-.629.21-.18.18-.27.569-.27 1.138m4.269.09v.973c0 .749-.075 1.318-.225 1.737s-.39.75-.719 1.004c-.494.39-1.258.584-2.306.584h-.18c-1.048 0-1.827-.195-2.306-.584a2.14 2.14 0 0 1-.719-1.004c-.15-.419-.225-.988-.225-1.737v-.958c0-.734.075-1.303.225-1.723.15-.419.389-.748.719-1.018.479-.39 1.258-.584 2.306-.584h.18c1.048 0 1.812.195 2.306.584.329.27.569.6.719 1.003.15.42.225.989.225 1.723m1.087-.764v-.195c0-.734.195-1.288.584-1.677.449-.45 1.213-.674 2.277-.674h.149c.839 0 1.573.09 2.187.27q.18.067.224.134c.03.06.045.135.03.255l-.164 1.228c-.03.195-.165.255-.405.195-.599-.135-1.138-.21-1.587-.21h-.015c-.33 0-.569.03-.689.09-.135.06-.195.165-.195.314v.045c0 .15.045.255.165.315s.344.134.689.194l.704.15c.644.15 1.108.375 1.378.674s.404.764.404 1.378v.225c0 1.572-.988 2.35-2.935 2.35h-.15c-.989 0-1.812-.134-2.501-.404-.135-.044-.225-.104-.255-.18-.03-.06-.03-.179 0-.344l.21-.988c.045-.285.21-.375.509-.285.689.24 1.288.345 1.797.345h.045c.33 0 .554-.03.689-.105.12-.06.195-.18.195-.344v-.045c0-.12-.06-.225-.165-.285q-.18-.09-.719-.225l-.659-.15q-.988-.225-1.393-.673c-.269-.3-.404-.75-.404-1.378m9.422-.51h-2.381c-.15 0-.255-.014-.315-.074s-.075-.18-.075-.36v-1.033c0-.18.015-.285.075-.344q.09-.09.315-.09h5.062c.149 0 .254.03.329.09.06.06.105.18.105.344v.285c0 .389-.12.748-.33 1.063l-2.575 3.654h2.56c.15 0 .24.03.3.09s.09.165.09.344v1.034q0 .27-.09.36c-.06.059-.15.074-.3.074h-5.151c-.315 0-.465-.135-.465-.434v-.345c0-.39.105-.734.33-1.063zm7.614 3.64h.12c.404 0 .838-.06 1.303-.195a2 2 0 0 1 .284-.045c.15 0 .24.09.27.255l.134.764c.03.21.06.344.06.404 0 .18-.134.315-.389.404-.659.24-1.378.345-2.157.345h-.179c-1.079 0-1.872-.24-2.367-.749q-.763-.765-.763-2.56v-.87c0-.703.06-1.258.179-1.647q.18-.585.584-.988c.525-.524 1.348-.794 2.472-.794h.149c.899 0 1.678.165 2.307.494.179.105.284.225.284.375 0 .09-.045.24-.12.449l-.284.719q-.113.27-.315.27a.6.6 0 0 1-.269-.076c-.48-.194-.929-.3-1.333-.3h-.06c-.389 0-.674.106-.854.285-.224.225-.329.69-.329 1.378v.51c0 .613.09 1.033.299 1.257.195.21.525.315.974.315m5.797-3.64h-2.381c-.15 0-.255-.014-.315-.074s-.075-.18-.075-.36v-1.033c0-.18.015-.285.075-.344q.09-.09.315-.09h5.062c.149 0 .254.03.329.09.06.06.105.18.105.344v.285c0 .389-.12.748-.329 1.063l-2.576 3.654h2.561c.149 0 .239.03.299.09s.09.165.09.344v1.034q0 .27-.09.36c-.06.059-.15.074-.299.074h-5.152c-.315 0-.464-.135-.464-.434v-.345c0-.39.104-.734.329-1.063zm7.734 3.64h.164c.51 0 1.049-.06 1.588-.195.15-.03.24-.045.284-.045.15 0 .24.09.27.255l.12.749c.03.21.06.344.06.404 0 .18-.135.315-.39.404-.389.15-.703.39-.958.72s-.374.658-.374.958v.045c0 .284.134.419.404.419h.075c.164 0 .374-.03.614-.12.075-.015.135-.03.179-.03.075 0 .135.075.18.195l.075.314c.045.21.075.315.075.345 0 .09-.075.165-.21.224q-.583.225-1.213.225h-.09c-.524 0-.913-.105-1.183-.33-.269-.224-.404-.538-.404-.958v-.045c0-.27.09-.569.284-.868.195-.3.45-.54.779-.75-.12.016-.284.016-.494.016h-.285q-1.842 0-2.605-.764a2.14 2.14 0 0 1-.599-1.018c-.105-.39-.15-.914-.15-1.558v-.839c0-1.302.299-2.216.898-2.755.51-.45 1.288-.674 2.352-.674h.209c1.049 0 1.812.255 2.262.749.479.539.719 1.422.719 2.68v.78c0 .284-.15.419-.435.419H169.6v.12c0 .359.09.598.299.733.195.135.555.195 1.094.195m-1.393-2.606h1.647c.12 0 .18-.06.18-.195v-.24c0-.299-.06-.523-.15-.688-.12-.18-.359-.27-.689-.27h-.134c-.3 0-.51.075-.629.21q-.225.27-.225.809zm9.405 1.752v-1.902c0-.374-.06-.644-.179-.793-.135-.15-.375-.24-.704-.24h-.15c-.33 0-.554.09-.689.255-.15.164-.21.628-.21 1.407v.66c0 .718.075 1.167.225 1.317.12.15.344.21.689.21h.165c.284 0 .494-.06.644-.195.134-.135.209-.374.209-.719m-.03-4.552h.03v-2.501c0-.15.03-.255.105-.33.075-.06.21-.105.404-.105h1.393c.18 0 .315.045.39.105.059.075.104.18.104.33v6.814c0 1.048-.194 1.767-.584 2.186-.284.3-.629.524-1.033.644-.419.135-.973.195-1.677.195h-.255c-1.108 0-1.902-.225-2.411-.674-.524-.45-.779-1.288-.779-2.531v-1.198c0-1.198.24-2.037.749-2.516.479-.45 1.138-.689 1.992-.689h.18q.853 0 1.392.27m7.807-.27h.12c.869 0 1.513.21 1.902.614.359.39.554 1.048.554 1.977v4.448c0 .15-.045.27-.12.33-.075.074-.209.104-.389.104h-1.378c-.195 0-.329-.03-.404-.105-.075-.06-.105-.18-.105-.33v-4.238c0-.329-.06-.569-.165-.688-.12-.12-.344-.195-.659-.195h-.09c-.329 0-.539.075-.659.195-.119.12-.164.359-.164.689v4.238c0 .15-.045.27-.12.33-.075.074-.21.104-.389.104h-1.378c-.195 0-.33-.03-.405-.105-.074-.06-.104-.18-.104-.33v-6.484c0-.15.03-.255.104-.314.075-.06.21-.105.405-.105h.704c.179 0 .299.03.374.075q.113.067.18.27l.09.284h.045c.479-.51 1.153-.764 2.051-.764m6.174 3.22v1.168c0 .584.09.958.27 1.138.134.15.344.21.629.21h.06c.269 0 .479-.06.629-.21.179-.18.269-.554.269-1.138v-1.168c0-.57-.09-.959-.269-1.138-.15-.135-.36-.21-.629-.21h-.06c-.285 0-.495.075-.629.21-.18.18-.27.569-.27 1.138m4.268.09v.973c0 .749-.075 1.318-.224 1.737s-.39.75-.719 1.004c-.494.39-1.258.584-2.307.584h-.179c-1.049 0-1.827-.195-2.307-.584a2.14 2.14 0 0 1-.718-1.004c-.15-.419-.225-.988-.225-1.737v-.958c0-.734.075-1.303.225-1.723.149-.419.389-.748.718-1.018.48-.39 1.258-.584 2.307-.584h.179c1.049 0 1.813.195 2.307.584.329.27.569.6.719 1.003.149.42.224.989.224 1.723m1.088-.764v-.195c0-.734.195-1.288.584-1.677.449-.45 1.213-.674 2.276-.674h.15c.839 0 1.573.09 2.187.27q.179.067.224.134c.03.06.045.135.03.255l-.165 1.228c-.03.195-.164.255-.404.195-.599-.135-1.138-.21-1.587-.21h-.015c-.33 0-.569.03-.689.09-.135.06-.195.165-.195.314v.045c0 .15.045.255.165.315s.344.134.689.194l.704.15c.644.15 1.108.375 1.377.674.27.3.405.764.405 1.378v.225c0 1.572-.989 2.35-2.936 2.35h-.149c-.989 0-1.812-.134-2.501-.404-.135-.044-.225-.104-.255-.18-.03-.06-.03-.179 0-.344l.21-.988c.045-.285.209-.375.509-.285.689.24 1.288.345 1.797.345h.045c.329 0 .554-.03.689-.105.12-.06.195-.18.195-.344v-.045c0-.12-.06-.225-.165-.285q-.18-.09-.719-.225l-.659-.15q-.988-.225-1.393-.673c-.269-.3-.404-.75-.404-1.378m1.393-4.388 2.351-2.007a.42.42 0 0 1 .284-.135c.105 0 .21.075.3.195l.719.929c.06.09.09.164.09.254 0 .12-.09.24-.24.36l-2.366 1.617a.56.56 0 0 1-.3.105c-.119 0-.239-.06-.359-.21l-.449-.524c-.12-.135-.165-.255-.165-.344 0-.09.045-.18.135-.24m9.032 7.518h.12c.404 0 .839-.06 1.303-.195.15-.03.239-.045.284-.045.15 0 .24.09.27.255l.135.764c.03.21.06.344.06.404 0 .18-.135.315-.39.404-.659.24-1.378.345-2.156.345h-.18c-1.078 0-1.872-.24-2.366-.749q-.764-.765-.764-2.56v-.87c0-.703.06-1.258.18-1.647q.179-.585.584-.988c.524-.524 1.348-.794 2.471-.794h.15c.898 0 1.677.165 2.306.494.18.105.284.225.284.375 0 .09-.045.24-.119.449l-.285.719q-.113.27-.314.27a.6.6 0 0 1-.27-.076c-.479-.194-.929-.3-1.333-.3h-.06c-.389 0-.674.106-.853.285-.225.225-.33.69-.33 1.378v.51c0 .613.09 1.033.3 1.257.194.21.524.315.973.315m5.782-5.107v6.47c0 .15-.045.27-.119.33-.075.074-.21.104-.39.104h-1.378c-.194 0-.329-.03-.404-.105-.075-.06-.105-.18-.105-.33v-6.469c0-.15.03-.255.105-.33.075-.06.21-.104.404-.104h1.378c.18 0 .315.045.39.105.074.075.119.18.119.33m-1.108-1.003h-.18c-.808 0-1.213-.405-1.213-1.243v-.075c0-.824.405-1.243 1.213-1.243h.18c.809 0 1.213.42 1.213 1.243v.075c0 .838-.404 1.243-1.213 1.243m4.832 3.654v1.168c0 .584.09.958.269 1.138.135.15.345.21.629.21h.06c.27 0 .479-.06.629-.21.18-.18.27-.554.27-1.138v-1.168c0-.57-.09-.959-.27-1.138-.15-.135-.359-.21-.629-.21h-.06c-.284 0-.494.075-.629.21-.179.18-.269.569-.269 1.138m4.268.09v.973c0 .749-.075 1.318-.225 1.737s-.389.75-.719 1.004c-.494.39-1.258.584-2.306.584h-.18c-1.048 0-1.827-.195-2.306-.584a2.15 2.15 0 0 1-.719-1.004c-.15-.419-.224-.988-.224-1.737v-.958c0-.734.074-1.303.224-1.723.15-.419.39-.748.719-1.018.479-.39 1.258-.584 2.306-.584h.18c1.048 0 1.812.195 2.306.584.33.27.569.6.719 1.003.15.42.225.989.225 1.723m5.116-2.816h1.288c.21 0 .359.03.434.09s.135.18.165.36c0 .06.27 1.392.794 3.983h.045c.269-1.572.509-3.025.704-4.373.015-.165.059-.27.119-.33q.09-.09.315-.09h1.527c.165 0 .27.046.33.106.045.075.06.194.03.344-.24 1.168-.539 2.456-.869 3.864s-.569 2.291-.719 2.666c-.06.15-.134.254-.209.3-.075.044-.195.059-.345.059h-1.647c-.315 0-.509-.105-.569-.344-.285-1.019-.524-2.307-.734-3.864h-.06a41 41 0 0 1-.749 3.864c-.06.24-.239.344-.539.344h-1.617c-.3 0-.494-.105-.569-.33-.15-.404-.405-1.332-.764-2.77a69 69 0 0 1-.839-3.789c-.045-.165-.03-.285.03-.344.06-.06.18-.105.36-.105h1.467c.15 0 .27.03.345.09.06.06.105.18.134.33.21 1.392.45 2.845.734 4.372h.06c.36-1.857.614-3.19.734-3.983.03-.195.075-.315.15-.375.075-.045.224-.075.464-.075m13.192.09c-.209 1.408-.599 2.965-1.168 4.688a32 32 0 0 1-2.111 4.882c-.105.21-.24.314-.42.314a.95.95 0 0 1-.434-.12l-.764-.33c-.269-.119-.389-.239-.389-.373 0-.06.015-.15.075-.255.509-1.033.808-1.633.868-1.797-.419-.15-.734-.48-.973-1.019-.27-.599-.584-1.512-.929-2.77a39 39 0 0 1-.763-3.235c-.03-.15-.015-.255.059-.33.075-.06.21-.104.39-.104h1.363c.164 0 .284.03.359.075s.135.134.165.284c.344 1.887.734 3.564 1.168 5.017h.075c.419-1.198.808-2.845 1.168-4.972q.023-.225.135-.314c.075-.06.194-.09.344-.09h1.378c.165 0 .284.045.344.105s.075.18.06.344m7.345 2.217v4.238c0 .15-.045.27-.12.33-.075.074-.21.104-.389.104h-1.378c-.195 0-.33-.03-.404-.105-.075-.06-.105-.18-.105-.33v-4.238c0-.329-.06-.569-.165-.688-.12-.12-.345-.195-.659-.195h-.03c-.329 0-.539.075-.659.195s-.165.359-.165.689v4.238c0 .15-.045.27-.119.33-.075.074-.21.104-.39.104h-1.378c-.194 0-.329-.03-.404-.105-.075-.06-.105-.18-.105-.33v-6.484c0-.15.03-.255.105-.314.075-.06.21-.105.404-.105h.704c.18 0 .3.03.375.075q.112.067.179.27l.09.284h.045c.479-.51 1.153-.764 2.052-.764h.06c.853 0 1.512.24 1.977.689.479-.45 1.168-.689 2.036-.689h.06c.869 0 1.513.21 1.902.614.36.39.554 1.048.554 1.977v4.448c0 .15-.045.27-.119.33-.075.074-.21.104-.39.104h-1.378c-.194 0-.329-.03-.404-.105-.075-.06-.105-.18-.105-.33v-4.238c0-.329-.06-.569-.165-.688-.119-.12-.344-.195-.659-.195h-.029c-.33 0-.54.075-.659.195-.12.12-.165.359-.165.689m11.136.104v1.917c0 .345.06.584.21.72.12.134.344.194.674.194h.135c.344 0 .584-.09.734-.3q.179-.27.179-1.303v-.644c0-.748-.075-1.213-.194-1.362-.135-.15-.39-.24-.749-.24h-.06c-.345 0-.584.075-.734.225-.135.134-.195.404-.195.793m0-2.5h.03q.652-.405 1.708-.405h.134c.899 0 1.558.27 1.962.809.33.464.509 1.288.509 2.47v1.079c0 1.198-.254 2.037-.763 2.501-.539.51-1.393.749-2.561.749h-.3c-1.228 0-2.066-.24-2.516-.734-.404-.434-.599-1.138-.599-2.127v-6.978c0-.15.03-.255.105-.33.06-.06.195-.105.389-.105h1.393c.18 0 .315.045.39.105.074.075.119.18.119.33zm9.198 5.27h.164c.51 0 1.049-.059 1.588-.194.15-.03.239-.045.284-.045.15 0 .24.09.27.255l.12.749c.03.21.06.344.06.404 0 .18-.135.315-.39.404-.689.24-1.452.36-2.261.36h-.285q-1.842 0-2.605-.764a2.15 2.15 0 0 1-.6-1.018c-.104-.39-.149-.914-.149-1.558v-.839c0-1.302.299-2.216.898-2.755.509-.45 1.288-.674 2.352-.674h.209c1.048 0 1.812.255 2.262.749.479.539.718 1.422.718 2.68v.78c0 .284-.149.419-.434.419h-3.594v.12c0 .359.09.598.299.733.195.135.554.195 1.094.195m-1.393-2.605h1.647c.12 0 .18-.06.18-.195v-.24c0-.299-.06-.523-.15-.688-.12-.18-.359-.27-.689-.27h-.135c-.299 0-.509.075-.629.21q-.224.27-.224.809zm7.743-1.033h-2.381c-.15 0-.255-.015-.315-.075s-.075-.18-.075-.36v-1.033c0-.18.015-.285.075-.344q.09-.09.315-.09h5.062c.149 0 .254.03.329.09.06.06.105.18.105.344v.285c0 .389-.12.748-.33 1.063l-2.576 3.654h2.561c.15 0 .24.03.3.09s.09.165.09.344v1.034q0 .27-.09.36c-.06.059-.15.074-.3.074h-5.151c-.315 0-.465-.135-.465-.434v-.345c0-.39.105-.734.33-1.063zm10.097 3.49h.479c.15 0 .269.044.329.104.06.075.105.21.105.404v.929c0 .21-.045.344-.105.404-.06.075-.179.105-.329.105h-1.138c-.749 0-1.273-.135-1.573-.434-.299-.285-.449-.794-.449-1.513v-7.757c0-.15.03-.255.105-.33.075-.06.209-.105.404-.105h1.378c.18 0 .314.045.389.105.075.075.12.18.12.33v7.473c0 .12.015.194.06.224.03.045.105.06.225.06m4.323-4.958v6.47c0 .15-.045.27-.12.33-.075.074-.21.104-.389.104h-1.378c-.195 0-.33-.03-.405-.105-.075-.06-.104-.18-.104-.33v-6.469c0-.15.029-.255.104-.33.075-.06.21-.104.405-.104h1.378c.179 0 .314.045.389.105.075.075.12.18.12.33m-1.109-1.003h-.179c-.809 0-1.213-.405-1.213-1.243v-.075c0-.824.404-1.243 1.213-1.243h.179c.809 0 1.214.42 1.214 1.243v.075c0 .838-.405 1.243-1.214 1.243m9.13 3.235v4.238c0 .15-.045.27-.12.33-.074.074-.209.104-.389.104h-1.378c-.194 0-.329-.03-.404-.105-.075-.06-.105-.18-.105-.33v-4.238c0-.329-.06-.569-.165-.688-.119-.12-.344-.195-.659-.195h-.03c-.329 0-.539.075-.659.195-.119.12-.164.359-.164.689v4.238c0 .15-.045.27-.12.33-.075.074-.21.104-.389.104h-1.378c-.195 0-.33-.03-.405-.105-.074-.06-.104-.18-.104-.33v-6.484c0-.15.03-.255.104-.314.075-.06.21-.105.405-.105h.704c.179 0 .299.03.374.075q.113.067.18.27l.09.284h.045c.479-.51 1.153-.764 2.051-.764h.06c.854 0 1.513.24 1.977.689.479-.45 1.168-.689 2.037-.689h.06c.868 0 1.512.21 1.902.614.359.39.554 1.048.554 1.977v4.448c0 .15-.045.27-.12.33-.075.074-.21.104-.389.104h-1.378c-.195 0-.33-.03-.405-.105-.075-.06-.104-.18-.104-.33v-4.238c0-.329-.06-.569-.165-.688-.12-.12-.345-.195-.659-.195h-.03c-.33 0-.539.075-.659.195s-.165.359-.165.689m7.92-2.232v6.47c0 .15-.045.27-.12.33-.075.074-.21.104-.389.104h-1.378c-.195 0-.33-.03-.404-.105-.075-.06-.105-.18-.105-.33v-6.469c0-.15.03-.255.105-.33.074-.06.209-.104.404-.104h1.378c.179 0 .314.045.389.105.075.075.12.18.12.33m-1.108-1.003h-.18c-.809 0-1.213-.405-1.213-1.243v-.075c0-.824.404-1.243 1.213-1.243h.18c.808 0 1.213.42 1.213 1.243v.075c0 .838-.405 1.243-1.213 1.243m7.347 6.5v.853c0 .224-.045.374-.104.45-.06.074-.195.104-.375.104h-1.198c-1.078 0-1.797-.18-2.127-.554-.299-.315-.434-.914-.434-1.812v-3.1h-.809c-.149 0-.239-.015-.299-.075s-.075-.15-.075-.3v-.763c0-.18.015-.3.075-.36.045-.06.15-.105.314-.15l.794-.194v-1.468c0-.15.03-.255.105-.33.075-.06.21-.104.404-.104h1.378c.18 0 .315.045.389.105.075.075.12.18.12.33v1.437h1.243c.15 0 .24.03.3.09s.09.164.09.344V21.1q0 .27-.09.36c-.06.06-.15.075-.3.075h-1.243v2.83c0 .27.03.434.12.524.09.105.285.15.584.15h.659c.18 0 .315.045.375.12.059.075.104.225.104.434m5.072-1.274v-4.223c0-.15.03-.255.105-.33.075-.06.21-.104.404-.104h1.378c.18 0 .315.045.39.105a.44.44 0 0 1 .119.33v4.432q0 1.37-.673 1.977c-.48.42-1.318.629-2.546.629s-2.082-.21-2.546-.63q-.675-.605-.674-1.976v-4.433c0-.15.03-.255.105-.33.074-.06.209-.104.404-.104h1.378c.179 0 .314.045.389.105.075.075.12.18.12.33v4.222c0 .345.045.57.165.69.119.134.329.194.659.194.314 0 .539-.06.659-.195.104-.12.164-.344.164-.689m9.456-.224v2.47c0 .15-.045.27-.12.33-.075.075-.21.105-.389.105h-1.378c-.195 0-.33-.03-.405-.105-.074-.06-.104-.18-.104-.33v-9.27c0-.15.03-.254.104-.329.075-.06.21-.105.405-.105h1.378c.179 0 .314.045.389.105.075.075.12.18.12.33v4.882h.105l1.422-2.172a.69.69 0 0 1 .629-.344h1.737c.165 0 .255.06.255.18 0 .06-.045.164-.12.284l-1.722 2.576c-.135.21-.195.36-.195.45 0 .104.06.254.195.448l1.842 2.906c.06.12.09.195.09.254 0 .165-.105.24-.315.24h-1.662c-.21 0-.374-.015-.464-.075q-.135-.068-.27-.314l-1.422-2.516zm8.955-4.074h1.288c.209 0 .359.03.434.09s.135.18.165.36c0 .06.269 1.392.793 3.983h.045c.27-1.572.51-3.025.704-4.373.015-.165.06-.27.12-.33q.09-.09.315-.09h1.527c.165 0 .27.046.33.106.044.075.059.194.029.344a148 148 0 0 1-.868 3.864c-.33 1.408-.569 2.291-.719 2.666-.06.15-.135.254-.21.3-.075.044-.194.059-.344.059h-1.647c-.315 0-.51-.105-.57-.344-.284-1.019-.524-2.307-.733-3.864h-.06a41 41 0 0 1-.749 3.864c-.06.24-.24.344-.539.344h-1.618c-.299 0-.494-.105-.569-.33-.149-.404-.404-1.332-.763-2.77a69 69 0 0 1-.839-3.789c-.045-.165-.03-.285.03-.344.06-.06.18-.105.359-.105h1.468c.15 0 .269.03.344.09.06.06.105.18.135.33.21 1.392.449 2.845.734 4.372h.06c.359-1.857.614-3.19.734-3.983.03-.195.075-.315.149-.375.075-.045.225-.075.465-.075m8.809 2.726v1.168c0 .584.09.958.269 1.138.135.15.345.21.629.21h.06c.27 0 .48-.06.629-.21.18-.18.27-.554.27-1.138v-1.168c0-.57-.09-.959-.27-1.138-.149-.135-.359-.21-.629-.21h-.06c-.284 0-.494.075-.629.21-.179.18-.269.569-.269 1.138m4.268.09v.973c0 .749-.075 1.318-.225 1.737a2.14 2.14 0 0 1-.718 1.004c-.495.39-1.258.584-2.307.584h-.179c-1.049 0-1.828-.195-2.307-.584a2.15 2.15 0 0 1-.719-1.004c-.149-.419-.224-.988-.224-1.737v-.958c0-.734.075-1.303.224-1.723.15-.419.39-.748.719-1.018.479-.39 1.258-.584 2.307-.584h.179c1.049 0 1.812.195 2.307.584.329.27.569.6.718 1.003.15.42.225.989.225 1.723m5.97 2.755v.854c0 .224-.045.374-.105.45-.06.074-.195.104-.374.104h-1.198c-1.079 0-1.798-.18-2.127-.554-.3-.315-.434-.914-.434-1.812v-3.1h-.809c-.15 0-.24-.015-.3-.075s-.074-.15-.074-.3v-.763c0-.18.014-.3.074-.36.045-.06.15-.105.315-.15l.794-.194v-1.468c0-.15.03-.255.104-.33.075-.06.21-.104.405-.104h1.378c.179 0 .314.045.389.105.075.075.12.18.12.33v1.437h1.243c.15 0 .239.03.299.09s.09.164.09.344V21.1q0 .27-.09.36c-.06.06-.149.075-.299.075h-1.243v2.83c0 .27.03.434.12.524.089.105.284.15.584.15h.659c.179 0 .314.045.374.12s.105.225.105.434m7.483-5.481c-.21 1.408-.599 2.965-1.168 4.688a32 32 0 0 1-2.112 4.882c-.105.21-.239.314-.419.314a.95.95 0 0 1-.434-.12l-.764-.33c-.27-.119-.39-.239-.39-.373 0-.06.015-.15.075-.255.509-1.033.809-1.633.869-1.797-.419-.15-.734-.48-.974-1.019-.269-.599-.584-1.512-.928-2.77a40 40 0 0 1-.764-3.235c-.03-.15-.015-.255.06-.33.075-.06.21-.104.389-.104h1.363c.165 0 .285.03.36.075s.134.134.164.284c.345 1.887.734 3.564 1.169 5.017h.074c.42-1.198.809-2.845 1.169-4.972q.022-.225.134-.314c.075-.06.195-.09.345-.09h1.378c.164 0 .284.045.344.105s.075.18.06.344"/></svg>