<svg xmlns="http://www.w3.org/2000/svg" fill="none" viewBox="0 0 183 54"><path fill="#000" d="M23.402 16.087h6.869V19H18.62v-2.282l6.65-7.863h-6.48V5.942h11.261v2.282zM41.997 5.942h3.786V19h-3.616v-1.505c-.947 1.14-2.33 1.7-4.078 1.7-3.689 0-6.528-2.622-6.528-6.724s2.84-6.723 6.529-6.723c1.601 0 2.96.51 3.907 1.577zm-3.252 10.145c1.869 0 3.325-1.359 3.325-3.616s-1.456-3.616-3.325-3.616c-1.893 0-3.35 1.359-3.35 3.616s1.457 3.616 3.35 3.616M56.015 8.2l-2.719 2.039V19H49.51v-5.922l-1.335.995-1.408-1.893 2.743-2.063V.99h3.786v6.262l1.335-.995zm5.076-3.932L64.367.772h4.078l-4.393 3.495zm2.257 14.927c-4.15 0-7.184-2.791-7.184-6.723s3.034-6.723 7.184-6.723 7.16 2.791 7.16 6.723-3.01 6.723-7.16 6.723m0-3.107c1.893 0 3.325-1.359 3.325-3.616s-1.432-3.616-3.325-3.616-3.35 1.359-3.35 3.616 1.457 3.616 3.35 3.616M77.8 4.146c-1.19 0-2.039-.874-2.039-2.063 0-1.165.85-2.039 2.04-2.039 1.188 0 2.038.874 2.038 2.039 0 1.19-.85 2.063-2.039 2.063m-1.044 11.941h6.87V19H71.974v-2.282l6.65-7.863h-6.48V5.942h11.262v2.282zm24.98-4.417 4.708 7.33h-4.296l-3.689-5.655h-1.747V19h-3.787V.99h3.787v9.467h1.747l3.495-4.515h4.223zm11.956 7.524c-4.15 0-7.184-2.791-7.184-6.723s3.034-6.723 7.184-6.723 7.16 2.791 7.16 6.723-3.01 6.723-7.16 6.723m0-3.107c1.893 0 3.325-1.359 3.325-3.616s-1.432-3.616-3.325-3.616-3.349 1.359-3.349 3.616 1.456 3.616 3.349 3.616m17.943-10.34c3.083 0 5.413 1.797 5.413 5.777V19h-3.787v-6.893c0-2.112-.97-3.083-2.645-3.083-1.82 0-3.131 1.117-3.131 3.52V19h-3.786V8.855h-1.457V5.942h4.49l.195 2.039c.995-1.456 2.694-2.233 4.708-2.233m15.706 9.952.995 2.67c-.776.558-1.917.825-3.058.825-3.107 0-4.878-1.578-4.878-4.684V3.054h3.786v2.888h3.228V8.83h-3.228v5.631c0 1.117.583 1.723 1.602 1.723a2.7 2.7 0 0 0 1.553-.485m8.944 3.495c-4.15 0-7.184-2.791-7.184-6.723s3.034-6.723 7.184-6.723 7.161 2.791 7.161 6.723-3.01 6.723-7.161 6.723m0-3.107c1.894 0 3.326-1.359 3.326-3.616s-1.432-3.616-3.326-3.616c-1.893 0-3.349 1.359-3.349 3.616s1.456 3.616 3.349 3.616M3.078 34.122c-1.408 0-2.354-.923-2.354-2.112s.946-2.112 2.354-2.112 2.354.874 2.354 2.04c0 1.261-.946 2.184-2.354 2.184M1.185 49V35.942H4.97V49zm18.057-2.913h6.87V49H14.46v-2.282l6.65-7.863h-6.48v-2.913h11.262v2.282zm18.761-10.145h3.787v10.874c0 4.854-2.549 7.087-7.112 7.087-2.403 0-4.733-.607-6.213-1.796l1.505-2.719c1.068.898 2.767 1.457 4.417 1.457 2.524 0 3.616-1.19 3.616-3.544v-.437c-.995.995-2.354 1.505-3.859 1.505-3.276 0-5.582-1.82-5.582-5.874v-6.553h3.786v5.995c0 2.209.971 3.18 2.646 3.18 1.747 0 3.01-1.117 3.01-3.52zm11.709 13.252c-2.209 0-4.442-.607-5.655-1.408l1.262-2.718c1.165.753 2.937 1.262 4.539 1.262 1.747 0 2.403-.461 2.403-1.19 0-2.135-7.889.05-7.889-5.169 0-2.476 2.233-4.223 6.044-4.223 1.796 0 3.786.413 5.024 1.14l-1.262 2.695c-1.286-.728-2.573-.971-3.762-.971-1.7 0-2.427.534-2.427 1.213 0 2.233 7.888.073 7.888 5.219 0 2.427-2.257 4.15-6.165 4.15m17.311-7.524 4.71 7.33h-4.297l-3.69-5.655H62V49h-3.786V30.99h3.786v9.467h1.748l3.495-4.515h4.223zm15.21-5.728h3.785V49h-3.616v-1.505c-.947 1.14-2.33 1.7-4.078 1.7-3.689 0-6.528-2.622-6.528-6.724s2.84-6.723 6.528-6.723c1.602 0 2.962.51 3.908 1.578zM78.98 46.087c1.869 0 3.325-1.359 3.325-3.616s-1.456-3.616-3.325-3.616c-1.893 0-3.35 1.359-3.35 3.616s1.457 3.616 3.35 3.616m12.585-11.965c-1.408 0-2.354-.923-2.354-2.112s.946-2.112 2.354-2.112 2.354.874 2.354 2.04c0 1.261-.946 2.184-2.354 2.184m-2.597 19.78c-1.044 0-1.966-.218-2.718-.727l1.019-2.743c.388.291.777.461 1.286.461.656 0 1.117-.461 1.117-1.408V35.942h3.786v13.325c0 2.864-1.626 4.636-4.49 4.636m23.03-18.154c3.082 0 5.412 1.796 5.412 5.776V49h-3.786v-6.893c0-2.112-.971-3.082-2.646-3.082-1.82 0-3.131 1.116-3.131 3.519V49h-3.786V38.855h-1.456v-2.913h4.49l.194 2.039c.995-1.456 2.694-2.233 4.709-2.233m18.398.194h3.786V49h-3.616v-1.505c-.947 1.14-2.331 1.7-4.078 1.7-3.689 0-6.529-2.622-6.529-6.724s2.84-6.723 6.529-6.723c1.602 0 2.961.51 3.908 1.578zm-3.253 10.145c1.869 0 3.325-1.359 3.325-3.616s-1.456-3.616-3.325-3.616c-1.893 0-3.349 1.359-3.349 3.616s1.456 3.616 3.349 3.616m28.071-10.145h3.349L153.83 49h-3.641l-2.936-8.107L144.219 49h-3.641l-4.709-13.058h3.568l3.083 8.835 3.204-8.835h3.203l3.107 8.835zm16.573 6.578c0 .29-.049.703-.073 1.019h-9.878c.364 1.626 1.747 2.621 3.738 2.621 1.383 0 2.378-.412 3.276-1.262l2.015 2.185c-1.214 1.383-3.034 2.111-5.389 2.111-4.514 0-7.451-2.84-7.451-6.723 0-3.908 2.986-6.723 6.966-6.723 3.835 0 6.796 2.573 6.796 6.772m-6.772-3.908c-1.723 0-2.961 1.044-3.228 2.718h6.432c-.267-1.65-1.505-2.718-3.204-2.718m16.162 7.087.995 2.67c-.777.558-1.918.825-3.058.825-3.107 0-4.879-1.578-4.879-4.684V33.054h3.786v2.888h3.228v2.888h-3.228v5.631c0 1.117.583 1.724 1.602 1.724.558 0 1.117-.17 1.554-.486"/></svg>