<svg xmlns="http://www.w3.org/2000/svg" fill="none" viewBox="0 0 408 168"><rect width="408" height="156" fill="#fff" transform="translate(0 6)"/><g clip-path="url(#a)"><rect width="153" height="6" fill="#fff" transform="translate(222 162)"/><path fill="#ae0000" d="M282.832 162H222v6.016h60.832z"/><path fill="#0065b1" d="M289.804 162h-6.953v6.016h6.953z"/><path fill="#008f20" d="M374.967 162h-85.173v6.016h85.173z"/></g><g clip-path="url(#b)"><rect width="348" height="6" fill="#fff" transform="translate(27)"/><path fill="#ae0000" d="M282.655 0h-60.921v6.016h60.921z"/><path fill="#ff8600" d="M221.734 0h-94.046v6.016h94.046z"/><path fill="#0065b1" d="M289.637 0h-6.963v6.016h6.963z"/><path fill="#e90a0a" d="M117.248 0H26.764v6.016h90.484z"/><path fill="#008f20" d="M374.924 0h-85.297v6.016h85.297z"/><path fill="#26221e" d="M127.688 0h-10.44v6.016h10.44z"/></g><g clip-path="url(#c)"><path fill="#008f20" d="M148 95h-24.5v38H148z"/><path fill="#0065b1" d="M123.503 95h-2v38h2z"/><path fill="#ae0000" d="M121.499 95H104v38h17.499z"/><path fill="#ff8600" d="M103.998 95h-27.01v38h27.01z"/><path fill="#26221e" d="M76.99 95h-3v38h3z"/><path fill="#e90a0a" d="M73.99 95H48v38h25.99z"/><g fill="#fff"><path d="M79.058 114.987v6.866h-3.432v-6.333c0-1.94-.858-2.831-2.243-2.831-1.542 0-2.618 1.002-2.618 3.143v6.024h-3.433v-6.333c0-1.94-.814-2.831-2.244-2.831-1.524 0-2.591 1.002-2.591 3.143v6.025H59.06v-9.324h-1.32v-2.676h4.07l.175 1.854c.858-1.319 2.333-2.039 4.07-2.039 1.651 0 3.058.647 3.895 1.962.945-1.225 2.485-1.962 4.269-1.962 2.817 0 4.84 1.65 4.84 5.306"/><path d="M95.47 117.596c0 2.697-2.112 4.257-6.159 4.257h-7.569v-12.666h-1.628v-2.938h8.757c3.849 0 5.829 1.626 5.829 4.058a3.8 3.8 0 0 1-.532 2.016 3.7 3.7 0 0 1-1.514 1.416c1.717.558 2.816 1.895 2.816 3.862zm-10.186-8.627v3.678h3.146c1.738 0 2.684-.618 2.684-1.854s-.946-1.827-2.684-1.827zm6.579 8.247c0-1.314-.968-1.939-2.817-1.939h-3.762v3.862h3.762c1.849 0 2.817-.581 2.817-1.918"/><path d="M109.418 109.86v11.993h-3.278v-1.39c-.858 1.049-2.113 1.562-3.696 1.562-3.343 0-5.918-2.408-5.918-6.179s2.575-6.179 5.918-6.179c1.452 0 2.684.463 3.542 1.449v-1.256zm-3.366 5.994c0-2.073-1.32-3.321-3.014-3.321s-3.037 1.248-3.037 3.321 1.321 3.321 3.037 3.321c1.717 0 3.014-1.248 3.014-3.321"/><path d="M124.467 114.987v6.866h-3.433v-6.333c0-1.94-.88-2.831-2.398-2.831-1.65 0-2.839 1.025-2.839 3.231v5.93h-3.431v-9.314h-1.32v-2.676h4.07l.175 1.872c.903-1.337 2.439-2.051 4.269-2.051 2.794 0 4.907 1.65 4.907 5.306"/><path d="M138.942 121.853h-3.895l-3.343-5.193h-1.585v5.193h-3.431v-16.54h3.431v8.693h1.585l3.168-4.146h3.828l-4.026 5.261z"/></g></g><g fill="#000"><path d="M374.891 63.461c0 .204-.034.493-.051.714h-6.919c.255 1.139 1.224 1.836 2.618 1.836.969 0 1.666-.289 2.295-.884l1.411 1.53c-.85.969-2.125 1.479-3.774 1.479-3.162 0-5.219-1.989-5.219-4.709 0-2.737 2.091-4.709 4.879-4.709 2.686 0 4.76 1.802 4.76 4.743m-4.743-2.737c-1.207 0-2.074.731-2.261 1.904h4.505c-.187-1.156-1.054-1.904-2.244-1.904"/><path d="M360.823 58.854h2.652V68h-2.516v-1.088c-.697.799-1.717 1.224-2.839 1.224-2.295 0-3.91-1.292-3.91-4.114v-5.168h2.652v4.777c0 1.53.68 2.21 1.853 2.21 1.224 0 2.108-.782 2.108-2.465z"/><path d="M348.637 68.136c-2.975 0-5.1-1.955-5.1-4.709s2.125-4.709 5.1-4.709c1.921 0 3.434.833 4.097 2.329l-2.057 1.105c-.493-.867-1.224-1.258-2.057-1.258-1.343 0-2.397.935-2.397 2.533s1.054 2.533 2.397 2.533c.833 0 1.564-.374 2.057-1.258l2.057 1.122c-.663 1.462-2.176 2.312-4.097 2.312"/><path d="M338.263 68.136c-1.547 0-3.111-.425-3.961-.986l.884-1.904c.816.527 2.057.884 3.179.884 1.224 0 1.683-.323 1.683-.833 0-1.496-5.525.034-5.525-3.621 0-1.734 1.564-2.958 4.233-2.958 1.258 0 2.652.289 3.519.799l-.884 1.887a5.25 5.25 0 0 0-2.635-.68c-1.19 0-1.7.374-1.7.85 0 1.564 5.525.051 5.525 3.655 0 1.7-1.581 2.907-4.318 2.907"/><path d="M333.42 63.461c0 .204-.034.493-.051.714h-6.919c.255 1.139 1.224 1.836 2.618 1.836.969 0 1.666-.289 2.295-.884l1.411 1.53c-.85.969-2.125 1.479-3.774 1.479-3.162 0-5.219-1.989-5.219-4.709 0-2.737 2.091-4.709 4.879-4.709 2.686 0 4.76 1.802 4.76 4.743m-4.743-2.737c-1.207 0-2.074.731-2.261 1.904h4.505c-.187-1.156-1.054-1.904-2.244-1.904"/><path d="M322.687 68h-2.958l-2.295-3.315h-2.533V68h-2.754v-9.656h-1.292V56.1h6.443c3.179 0 5.168 1.649 5.168 4.318 0 1.785-.901 3.094-2.448 3.757zm-3.009-7.582c0-1.309-.85-2.074-2.533-2.074h-2.244v4.148h2.244c1.683 0 2.533-.782 2.533-2.074"/><path d="M307.204 60.401c.612-1.105 1.836-1.683 3.417-1.683v2.567c-.221-.017-.391-.034-.578-.034-1.479 0-2.448.748-2.448 2.431V68h-2.652v-7.106h-1.02v-2.04h3.145z"/><path d="M302.956 63.461c0 .204-.034.493-.051.714h-6.919c.255 1.139 1.224 1.836 2.618 1.836.969 0 1.666-.289 2.295-.884l1.411 1.53c-.85.969-2.125 1.479-3.774 1.479-3.162 0-5.219-1.989-5.219-4.709 0-2.737 2.091-4.709 4.879-4.709 2.686 0 4.76 1.802 4.76 4.743m-4.743-2.737c-1.207 0-2.074.731-2.261 1.904h4.505c-.187-1.156-1.054-1.904-2.244-1.904"/><path d="M287.666 58.718c2.567 0 4.556 1.836 4.556 4.709s-1.989 4.709-4.556 4.709c-1.224 0-2.21-.391-2.873-1.19V68h-2.533V55.386h2.652v4.437c.68-.748 1.615-1.105 2.754-1.105m-.459 7.242c1.326 0 2.329-.952 2.329-2.533s-1.003-2.533-2.329-2.533-2.329.952-2.329 2.533 1.003 2.533 2.329 2.533"/><path d="M277.136 58.854h2.652v7.616c0 3.4-1.785 4.964-4.981 4.964-1.683 0-3.315-.425-4.352-1.258l1.054-1.904c.748.629 1.938 1.02 3.094 1.02 1.768 0 2.533-.833 2.533-2.482v-.306c-.697.697-1.649 1.054-2.703 1.054-2.295 0-3.91-1.275-3.91-4.114v-4.59h2.652v4.199c0 1.547.68 2.227 1.853 2.227 1.224 0 2.108-.782 2.108-2.465z"/><path d="M264.153 68.204c-3.689 0-6.443-2.567-6.443-6.154s2.754-6.154 6.46-6.154c2.057 0 3.774.748 4.896 2.108l-1.768 1.632c-.799-.918-1.802-1.394-2.992-1.394-2.227 0-3.808 1.564-3.808 3.808s1.581 3.808 3.808 3.808c1.19 0 2.193-.476 2.992-1.411l1.768 1.632c-1.122 1.377-2.839 2.125-4.913 2.125"/><path d="M249.877 58.854h2.346L248.908 68h-2.55l-2.057-5.678L242.176 68h-2.55l-3.298-9.146h2.499l2.159 6.188 2.244-6.188h2.244l2.176 6.188z"/><path d="m229.416 57.681 2.295-2.448h2.856l-3.077 2.448zm1.581 10.455c-2.907 0-5.032-1.955-5.032-4.709s2.125-4.709 5.032-4.709 5.015 1.955 5.015 4.709-2.108 4.709-5.015 4.709m0-2.176c1.326 0 2.329-.952 2.329-2.533s-1.003-2.533-2.329-2.533-2.346.952-2.346 2.533 1.02 2.533 2.346 2.533"/><path d="m224.732 65.688.697 1.87c-.544.391-1.343.578-2.142.578-2.176 0-3.417-1.105-3.417-3.281v-8.024h2.652v2.023h2.261v2.023h-2.261v3.944c0 .782.408 1.207 1.122 1.207.391 0 .782-.119 1.088-.34"/><path d="M213.967 68.136c-1.547 0-3.111-.425-3.961-.986l.884-1.904c.816.527 2.057.884 3.179.884 1.224 0 1.683-.323 1.683-.833 0-1.496-5.525.034-5.525-3.621 0-1.734 1.564-2.958 4.233-2.958 1.258 0 2.652.289 3.519.799l-.884 1.887a5.25 5.25 0 0 0-2.635-.68c-1.19 0-1.7.374-1.7.85 0 1.564 5.525.051 5.525 3.655 0 1.7-1.581 2.907-4.318 2.907"/><path d="M207.103 57.579c-.986 0-1.649-.646-1.649-1.479s.663-1.479 1.649-1.479 1.649.612 1.649 1.428c0 .884-.663 1.53-1.649 1.53M205.777 68v-9.146h2.652V68z"/><path d="M200.663 68V55.386h2.652V68z"/><path d="M195.622 58.854h2.652V68h-2.532v-1.054c-.663.799-1.633 1.19-2.857 1.19-2.584 0-4.573-1.836-4.573-4.709s1.989-4.709 4.573-4.709c1.122 0 2.074.357 2.737 1.105zm-2.278 7.106c1.309 0 2.329-.952 2.329-2.533s-1.02-2.533-2.329-2.533c-1.326 0-2.346.952-2.346 2.533s1.02 2.533 2.346 2.533"/><path d="M185.276 57.579c-.986 0-1.649-.646-1.649-1.479s.663-1.479 1.649-1.479 1.649.612 1.649 1.428c0 .884-.663 1.53-1.649 1.53m-1.819 13.855c-.731 0-1.377-.153-1.904-.51l.714-1.921c.272.204.544.323.901.323.459 0 .782-.323.782-.986v-9.486h2.652v9.333c0 2.006-1.139 3.247-3.145 3.247"/><path d="M178.156 68.136c-2.975 0-5.1-1.955-5.1-4.709s2.125-4.709 5.1-4.709c1.921 0 3.434.833 4.097 2.329l-2.057 1.105c-.493-.867-1.224-1.258-2.057-1.258-1.343 0-2.397.935-2.397 2.533s1.054 2.533 2.397 2.533c.833 0 1.564-.374 2.057-1.258l2.057 1.122c-.663 1.462-2.176 2.312-4.097 2.312"/><path d="M171.97 63.461c0 .204-.034.493-.051.714H165c.255 1.139 1.224 1.836 2.618 1.836.969 0 1.666-.289 2.295-.884l1.411 1.53c-.85.969-2.125 1.479-3.774 1.479-3.162 0-5.219-1.989-5.219-4.709 0-2.737 2.091-4.709 4.879-4.709 2.686 0 4.76 1.802 4.76 4.743m-4.743-2.737c-1.207 0-2.074.731-2.261 1.904h4.505c-.187-1.156-1.054-1.904-2.244-1.904"/><path d="M156.685 58.718c2.567 0 4.556 1.836 4.556 4.709s-1.989 4.709-4.556 4.709c-1.139 0-2.074-.357-2.754-1.105v4.267h-2.652V60.894h-1.02v-2.04h3.145l.17 1.377c.663-1.02 1.734-1.513 3.111-1.513m-.459 7.242c1.326 0 2.329-.952 2.329-2.533s-1.003-2.533-2.329-2.533-2.329.952-2.329 2.533 1.003 2.533 2.329 2.533"/><path d="M145.104 68.136c-1.547 0-3.111-.425-3.961-.986l.884-1.904c.816.527 2.057.884 3.179.884 1.224 0 1.683-.323 1.683-.833 0-1.496-5.525.034-5.525-3.621 0-1.734 1.564-2.958 4.233-2.958 1.258 0 2.652.289 3.519.799l-.884 1.887a5.25 5.25 0 0 0-2.635-.68c-1.19 0-1.7.374-1.7.85 0 1.564 5.525.051 5.525 3.655 0 1.7-1.581 2.907-4.318 2.907"/><path d="m134.84 70.346.374 1.207c-.408.221-1.071.391-1.717.391-1.479 0-2.346-.765-2.346-1.904 0-.748.391-1.445 1.241-2.04h-.102v-1.054c-.663.799-1.632 1.19-2.856 1.19-2.584 0-4.573-1.836-4.573-4.709s1.989-4.709 4.573-4.709c1.122 0 2.074.357 2.737 1.105v-.969h2.652V68c-1.462.646-1.989 1.19-1.989 1.819 0 .476.374.782.969.782.374 0 .765-.102 1.037-.255m-4.947-4.386c1.309 0 2.329-.952 2.329-2.533s-1.02-2.533-2.329-2.533c-1.326 0-2.346.952-2.346 2.533s1.02 2.533 2.346 2.533"/><path d="M120.034 68.136c-2.975 0-5.1-1.955-5.1-4.709s2.125-4.709 5.1-4.709c1.921 0 3.434.833 4.097 2.329l-2.057 1.105c-.493-.867-1.224-1.258-2.057-1.258-1.343 0-2.397.935-2.397 2.533s1.054 2.533 2.397 2.533c.833 0 1.564-.374 2.057-1.258l2.057 1.122c-.663 1.462-2.176 2.312-4.097 2.312"/><path d="M108.826 68.136c-2.907 0-5.032-1.955-5.032-4.709s2.125-4.709 5.032-4.709 5.015 1.955 5.015 4.709-2.108 4.709-5.015 4.709m0-2.176c1.326 0 2.329-.952 2.329-2.533s-1.003-2.533-2.329-2.533-2.346.952-2.346 2.533 1.02 2.533 2.346 2.533"/><path d="M98.296 58.718c2.176 0 3.74 1.258 3.74 4.046V68h-2.652v-4.828c0-1.479-.663-2.159-1.734-2.159-1.19 0-2.023.765-2.023 2.397V68h-2.652v-4.828c0-1.479-.63-2.159-1.734-2.159-1.173 0-2.006.765-2.006 2.397V68h-2.652v-7.106h-1.02v-2.04h3.145l.136 1.411c.663-1.003 1.802-1.547 3.145-1.547 1.275 0 2.363.493 3.009 1.496.73-.935 1.92-1.496 3.298-1.496"/><path d="M79.574 68.136c-2.907 0-5.032-1.955-5.032-4.709s2.125-4.709 5.032-4.709 5.015 1.955 5.015 4.709-2.108 4.709-5.015 4.709m0-2.176c1.326 0 2.329-.952 2.329-2.533s-1.003-2.533-2.329-2.533-2.346.952-2.346 2.533 1.02 2.533 2.346 2.533"/><path d="M68.896 58.718c2.567 0 4.556 1.836 4.556 4.709s-1.989 4.709-4.556 4.709c-1.139 0-2.074-.357-2.754-1.105v4.267H63.49V60.894h-1.02v-2.04h3.145l.17 1.377c.663-1.02 1.734-1.513 3.111-1.513m-.459 7.242c1.326 0 2.329-.952 2.329-2.533s-1.003-2.533-2.329-2.533-2.329.952-2.329 2.533 1.003 2.533 2.329 2.533"/><path d="M51.944 65.96h4.811V68h-8.16v-1.598l4.658-5.508h-4.539v-2.04h7.888v1.598z"/><path d="M291.331 38.058h1.207v7.854c0 3.077-1.411 4.471-4.165 4.471-1.53 0-3.043-.493-3.91-1.377l.612-.918c.765.765 1.938 1.224 3.23 1.224 2.074 0 3.026-1.037 3.026-3.247v-1.037c-.629 1.037-1.768 1.632-3.162 1.632-2.295 0-3.774-1.275-3.774-3.842v-4.76h1.207v4.641c0 1.904.986 2.873 2.686 2.873 1.87 0 3.043-1.207 3.043-3.247z"/><path d="m281.816 45.589.425.867c-.459.425-1.173.629-1.87.629-1.683 0-2.618-.952-2.618-2.601v-8.381h1.207v1.955h2.703v1.02h-2.703v5.338c0 1.054.527 1.632 1.53 1.632.51 0 .986-.153 1.326-.459"/><path d="M272.44 39.962c.527-1.275 1.751-1.972 3.468-1.972v1.224c-.102 0-.204-.017-.289-.017-1.87 0-3.009 1.139-3.009 3.247V47h-1.207v-7.922h-1.258v-1.02h2.21z"/><path d="M268.691 42.529c0 .102-.017.238-.017.374h-7.48c.136 1.87 1.564 3.111 3.519 3.111 1.088 0 2.057-.391 2.737-1.173l.68.782c-.799.952-2.04 1.462-3.451 1.462-2.788 0-4.692-1.904-4.692-4.556s1.853-4.539 4.369-4.539 4.335 1.853 4.335 4.539m-4.335-3.502c-1.734 0-3.009 1.224-3.162 2.975h6.341c-.153-1.751-1.428-2.975-3.179-2.975"/><path d="M258.235 35.321c-1.037 0-1.581.578-1.581 1.683v1.054h2.754v1.02h-2.72V47h-1.207v-7.922h-1.598v-1.02h1.598v-1.105c0-1.598.952-2.652 2.703-2.652.663 0 1.343.187 1.785.561l-.408.901c-.34-.289-.816-.442-1.326-.442"/><path d="M248.274 47.085c-2.618 0-4.556-1.904-4.556-4.556s1.938-4.539 4.556-4.539 4.539 1.887 4.539 4.539-1.921 4.556-4.539 4.556m0-1.071c1.904 0 3.315-1.394 3.315-3.485s-1.411-3.485-3.315-3.485-3.332 1.394-3.332 3.485 1.428 3.485 3.332 3.485"/><path d="M237.713 42.529c0 .102-.017.238-.017.374h-7.48c.136 1.87 1.564 3.111 3.519 3.111 1.088 0 2.057-.391 2.737-1.173l.68.782c-.799.952-2.04 1.462-3.451 1.462-2.788 0-4.692-1.904-4.692-4.556s1.853-4.539 4.369-4.539 4.335 1.853 4.335 4.539m-4.335-3.502c-1.734 0-3.009 1.224-3.162 2.975h6.341c-.153-1.751-1.428-2.975-3.179-2.975"/><path d="M222.95 37.99c2.176 0 3.672 1.258 3.672 3.825V47h-1.207v-5.066c0-1.887-.986-2.856-2.686-2.856-1.921 0-3.128 1.19-3.128 3.23V47h-1.207v-7.922h-1.258v-1.02h2.21l.085 1.87c.595-1.224 1.853-1.938 3.519-1.938"/><path d="M213.654 38.058h1.207V47h-1.156v-1.768c-.731 1.207-1.972 1.853-3.451 1.853-2.55 0-4.454-1.853-4.454-4.556s1.904-4.539 4.454-4.539c1.428 0 2.652.612 3.4 1.768zm-3.298 7.956c1.887 0 3.315-1.394 3.315-3.485s-1.428-3.485-3.315-3.485c-1.904 0-3.332 1.394-3.332 3.485s1.428 3.485 3.332 3.485"/><path d="M198.745 45.997h5.729V47h-7.276v-.799l5.627-7.123H197.3v-1.02h7.072v.799z"/><path d="M192.636 39.962c.527-1.275 1.751-1.972 3.468-1.972v1.224c-.102 0-.204-.017-.289-.017-1.87 0-3.009 1.139-3.009 3.247V47h-1.207v-7.922h-1.258v-1.02h2.21z"/><path d="M187.461 36.103a.874.874 0 0 1-.884-.867c0-.459.391-.85.884-.85s.884.374.884.833a.87.87 0 0 1-.884.884m-1.717 14.28c-.663 0-1.19-.187-1.632-.578l.425-.918c.34.306.646.459 1.122.459.697 0 1.207-.476 1.207-1.496v-9.792h1.207v9.809c0 1.547-.918 2.516-2.329 2.516"/><path d="M184.222 42.529c0 .102-.017.238-.017.374h-7.48c.136 1.87 1.564 3.111 3.519 3.111 1.088 0 2.057-.391 2.737-1.173l.68.782c-.799.952-2.04 1.462-3.451 1.462-2.788 0-4.692-1.904-4.692-4.556s1.853-4.539 4.369-4.539 4.335 1.853 4.335 4.539m-4.335-3.502c-1.734 0-3.009 1.224-3.162 2.975h6.341c-.153-1.751-1.428-2.975-3.179-2.975"/><path d="M171.851 34.386h1.207V47h-1.156v-1.768c-.731 1.207-1.972 1.853-3.451 1.853-2.55 0-4.454-1.853-4.454-4.556s1.904-4.539 4.454-4.539c1.428 0 2.652.612 3.4 1.768zm-3.298 11.628c1.887 0 3.315-1.394 3.315-3.485s-1.428-3.485-3.315-3.485c-1.904 0-3.332 1.394-3.332 3.485s1.428 3.485 3.332 3.485"/><path d="M157.895 47.085c-2.618 0-4.556-1.904-4.556-4.556s1.938-4.539 4.556-4.539 4.539 1.887 4.539 4.539-1.921 4.556-4.539 4.556m0-1.071c1.904 0 3.315-1.394 3.315-3.485s-1.411-3.485-3.315-3.485-3.332 1.394-3.332 3.485 1.428 3.485 3.332 3.485"/><path d="M147.314 37.99c2.55 0 4.454 1.836 4.454 4.539 0 2.72-1.904 4.556-4.454 4.556-1.428 0-2.652-.612-3.4-1.768v4.981h-1.207v-11.22h-1.258v-1.02h2.21l.068 2.006c.714-1.343 2.023-2.074 3.587-2.074m-.085 8.024c1.887 0 3.332-1.394 3.332-3.485 0-2.074-1.445-3.485-3.332-3.485-1.904 0-3.332 1.411-3.332 3.485 0 2.091 1.428 3.485 3.332 3.485"/><path d="M134.12 36.103a.874.874 0 0 1-.884-.867c0-.459.391-.85.884-.85s.884.374.884.833a.87.87 0 0 1-.884.884m-1.717 14.28c-.663 0-1.19-.187-1.632-.578l.425-.918c.34.306.646.459 1.122.459.697 0 1.207-.476 1.207-1.496v-9.792h1.207v9.809c0 1.547-.918 2.516-2.329 2.516"/><path d="M128.853 38.058h1.207V47h-1.156v-1.768c-.731 1.207-1.972 1.853-3.451 1.853-2.55 0-4.454-1.853-4.454-4.556s1.904-4.539 4.454-4.539c1.428 0 2.652.612 3.4 1.768zm-3.298 7.956c1.887 0 3.315-1.394 3.315-3.485s-1.428-3.485-3.315-3.485c-1.904 0-3.332 1.394-3.332 3.485s1.428 3.485 3.332 3.485"/><path d="M113.945 45.997h5.729V47h-7.276v-.799l5.627-7.123H112.5v-1.02h7.072v.799z"/><path d="M108.798 34.386h1.207V47h-1.156v-1.768c-.731 1.207-1.972 1.853-3.451 1.853-2.55 0-4.454-1.853-4.454-4.556s1.904-4.539 4.454-4.539c1.428 0 2.652.612 3.4 1.768zM105.5 46.014c1.887 0 3.315-1.394 3.315-3.485s-1.428-3.485-3.315-3.485c-1.904 0-3.332 1.394-3.332 3.485s1.428 3.485 3.332 3.485"/><path d="M99.852 38.058h1.105L97.574 47h-1.139l-2.822-7.327L90.791 47h-1.139l-3.366-8.942h1.156l2.805 7.599 2.873-7.599h1.037l2.856 7.599z"/><path d="M83.348 38.058h1.207V47h-1.156v-1.768c-.731 1.207-1.972 1.853-3.451 1.853-2.55 0-4.454-1.853-4.454-4.556s1.904-4.539 4.454-4.539c1.428 0 2.652.612 3.4 1.768zm-3.298 7.956c1.887 0 3.315-1.394 3.315-3.485s-1.428-3.485-3.315-3.485c-1.904 0-3.332 1.394-3.332 3.485s1.428 3.485 3.332 3.485"/><path d="M71.08 39.962c.526-1.275 1.75-1.972 3.468-1.972v1.224c-.103 0-.204-.017-.29-.017-1.87 0-3.008 1.139-3.008 3.247V47h-1.207v-7.922h-1.259v-1.02h2.21z"/><path d="M62.862 37.99c2.55 0 4.454 1.836 4.454 4.539 0 2.72-1.904 4.556-4.454 4.556-1.428 0-2.652-.612-3.4-1.768v4.981h-1.207v-11.22h-1.258v-1.02h2.21l.068 2.006c.714-1.343 2.023-2.074 3.587-2.074m-.085 8.024c1.887 0 3.332-1.394 3.332-3.485 0-2.074-1.445-3.485-3.332-3.485-1.904 0-3.332 1.411-3.332 3.485 0 2.091 1.428 3.485 3.332 3.485"/><path d="M52.08 47.085c-1.479 0-2.907-.476-3.638-1.105l.544-.952c.714.561 1.921 1.003 3.179 1.003 1.7 0 2.397-.578 2.397-1.462 0-2.329-5.797-.493-5.797-4.029 0-1.462 1.258-2.55 3.536-2.55 1.156 0 2.414.323 3.162.833l-.527.969c-.782-.544-1.717-.765-2.635-.765-1.615 0-2.329.629-2.329 1.479 0 2.414 5.797.595 5.797 4.029 0 1.547-1.36 2.55-3.689 2.55"/></g><defs><clipPath id="a"><rect width="153" height="6" fill="#fff" transform="translate(222 162)"/></clipPath><clipPath id="b"><rect width="348" height="6" fill="#fff" transform="translate(27)"/></clipPath><clipPath id="c"><rect width="100" height="38" fill="#fff" transform="translate(48 95)"/></clipPath></defs></svg>