<svg xmlns="http://www.w3.org/2000/svg" fill="none" viewBox="0 0 180 82"><path fill="#fff" d="M.137 0h3.869l3.049 13.973L10.678.533h3.185l3.637 13.44L20.521 0h3.706l-4.909 18.676h-3.691L12.154 6.33 8.627 18.676H4.99zm25.375 11.95q0-1.45.478-2.694.492-1.245 1.367-2.16a6.5 6.5 0 0 1 2.106-1.463q1.23-.534 2.707-.533 1.791 0 3.035.656t1.996 1.723q.765 1.066 1.094 2.406.342 1.34.342 2.748v.465h-9.803q0 .725.328 1.326.329.588.834 1.011.519.41 1.176.643.67.219 1.312.219.957 0 1.668-.178a7.3 7.3 0 0 0 1.203-.424 4.6 4.6 0 0 0 1.327-.943l1.79 2.023-.464.465q-.368.369-1.094.793-.711.424-1.818.752-1.108.342-2.639.342-1.572 0-2.857-.533a6.6 6.6 0 0 1-2.202-1.463 6.4 6.4 0 0 1-1.408-2.256q-.478-1.326-.478-2.926m3.295-1.231h6.44q0-.506-.192-.998a2.8 2.8 0 0 0-.575-.916 2.9 2.9 0 0 0-.97-.67 3.14 3.14 0 0 0-1.34-.274q-.806 0-1.436.274a3.3 3.3 0 0 0-1.052.67 3 3 0 0 0-.657.916q-.218.506-.218.998m12.386 7.957V5.537h3.159l.082 1.49a8 8 0 0 1 .601-.588q.356-.314.848-.574a5.3 5.3 0 0 1 1.107-.424q.615-.177 1.395-.177 2.461 0 3.746 1.476 1.299 1.463 1.299 3.951v7.985H50.12v-7.957q0-1.258-.684-1.942-.683-.683-1.777-.683-.67 0-1.258.273-.588.26-1.011.738-.424.466-.67 1.108-.233.63-.233 1.353v7.11zm15.422 0V5.537h3.158l.082 1.49q.247-.273.602-.588.356-.314.848-.574a5.3 5.3 0 0 1 1.107-.424q.615-.177 1.395-.177 2.46 0 3.746 1.476 1.299 1.463 1.299 3.951v7.985h-3.309v-7.957q0-1.258-.684-1.942-.683-.683-1.777-.683-.67 0-1.258.273-.588.26-1.011.738-.424.466-.67 1.108-.233.63-.233 1.353v7.11zm19.866-6.33q0-1.545.437-2.694.45-1.161 1.121-1.982.561-.67 1.23-1.121.684-.451 1.368-.738.683-.301 1.326-.424a6 6 0 0 1 1.121-.123q.643 0 1.066.04.425.041.752.11.342.07.616.191l.642.247V0h3.281v18.676h-3.199l-.082-1.285q-.246.273-.615.588-.356.3-.848.56-.492.245-1.094.41a4.8 4.8 0 0 1-1.353.178q-1.066 0-2.106-.451a5.7 5.7 0 0 1-1.859-1.313q-.807-.874-1.312-2.133-.493-1.257-.492-2.884m3.322 0q0 1.68.834 2.802.847 1.122 2.447 1.122.834 0 1.422-.315.6-.328.957-.834.37-.505.533-1.107a4.4 4.4 0 0 0 .164-1.162V8.818a2.7 2.7 0 0 0-1.107-.547q-.63-.15-1.6-.15-.984 0-1.627.383a3.8 3.8 0 0 0-1.12.984 4.5 4.5 0 0 0-.67 1.313 5.1 5.1 0 0 0-.233 1.545m12.263-.397q0-1.45.479-2.693a6.6 6.6 0 0 1 1.367-2.16 6.5 6.5 0 0 1 2.106-1.463q1.23-.534 2.707-.533 1.79 0 3.035.656 1.244.656 1.996 1.723.765 1.066 1.094 2.406.34 1.34.341 2.748v.465h-9.802q0 .725.328 1.326.328.588.834 1.011.519.41 1.176.643.67.219 1.312.219.957 0 1.668-.178a7.3 7.3 0 0 0 1.203-.424 4.6 4.6 0 0 0 1.326-.943l1.791 2.023-.465.465q-.369.369-1.093.793-.71.424-1.819.752-1.107.342-2.638.342-1.572 0-2.858-.533a6.6 6.6 0 0 1-2.2-1.463 6.4 6.4 0 0 1-1.41-2.256q-.478-1.326-.478-2.926m3.295-1.23h6.44q0-.506-.192-.998a2.8 2.8 0 0 0-.574-.916 2.9 2.9 0 0 0-.971-.67 3.1 3.1 0 0 0-1.34-.274q-.806 0-1.435.274a3.3 3.3 0 0 0-1.053.67 3 3 0 0 0-.656.916 2.5 2.5 0 0 0-.219.998m12.414-7.246V0h3.528v3.473zm.11 15.203V5.537h3.308v13.139zm6.699 0V5.537h3.158l.082 1.49q.246-.273.602-.588.355-.314.847-.574a5.3 5.3 0 0 1 1.108-.424q.615-.177 1.394-.177 2.462 0 3.746 1.476 1.299 1.463 1.299 3.951v7.985h-3.308v-7.957q0-1.258-.684-1.942t-1.777-.683q-.67 0-1.258.273-.588.26-1.012.738a3.5 3.5 0 0 0-.67 1.108q-.232.63-.232 1.353v7.11zm-112.766 31V31h3.555l9.05 13.275V31h3.446v18.676h-3.472l-9.133-13.44v13.44zm18.786-3.842q0-1.121.423-1.996a4.2 4.2 0 0 1 1.176-1.49q.752-.602 1.819-.903a8.3 8.3 0 0 1 2.351-.314 31 31 0 0 1 1.791.054q.506.029 1.04.069v-.314q0-.986-.794-1.545-.78-.561-2.037-.561-1.395 0-2.242.37-.834.368-1.477.778l-1.517-2.228q.396-.273.902-.574t1.176-.533a9 9 0 0 1 1.545-.397 12.5 12.5 0 0 1 2.064-.15q1.258 0 2.283.355a5.1 5.1 0 0 1 1.75.97q.724.63 1.122 1.518.396.876.396 1.914v8.819h-3.09l-.082-1.23q-.533.642-1.627 1.148t-2.433.506a5.2 5.2 0 0 1-1.614-.26 4.4 4.4 0 0 1-1.449-.766 3.9 3.9 0 0 1-1.066-1.326q-.41-.82-.41-1.914m3.171-.137q0 .834.602 1.313.601.478 1.777.478.588 0 1.135-.191t.957-.533q.424-.342.684-.78.273-.45.273-.957v-1.285l-.984-.054a22 22 0 0 0-.834-.041q-.424-.014-.725-.014-1.6 0-2.242.629-.643.629-.643 1.435m10.295-9.16h3.815l3.527 9.42 3.528-9.42h3.609l-5.537 13.139h-3.364zm16.283-2.064V31h3.528v3.473zm.11 15.203V36.537h3.309v13.139zm11.142-6.33q0-1.545.438-2.694.45-1.161 1.121-1.982.561-.67 1.23-1.121.684-.451 1.368-.739.683-.3 1.326-.423a6 6 0 0 1 1.121-.123q.643 0 1.066.04.425.041.752.11.342.07.616.191l.642.247V31h3.281v18.676h-3.199l-.082-1.285q-.246.273-.615.587-.356.301-.848.561-.492.245-1.094.41a4.8 4.8 0 0 1-1.353.178q-1.066 0-2.106-.451a5.7 5.7 0 0 1-1.859-1.313q-.807-.874-1.312-2.133-.492-1.257-.492-2.884m3.323 0q0 1.68.834 2.802.847 1.121 2.447 1.121.834 0 1.422-.314.6-.328.957-.834.37-.506.533-1.107a4.4 4.4 0 0 0 .164-1.162v-4.034a2.7 2.7 0 0 0-1.107-.546q-.63-.15-1.6-.15-.984 0-1.627.382a3.8 3.8 0 0 0-1.12.984 4.5 4.5 0 0 0-.67 1.313 5.1 5.1 0 0 0-.233 1.545m12.906-8.873V31h3.527v3.473zm.11 15.203V36.537h3.308v13.139zm6.083-6.576q0-1.422.52-2.694a6.8 6.8 0 0 1 1.435-2.228 6.9 6.9 0 0 1 2.229-1.518q1.299-.56 2.871-.56 1.6 0 2.912.574a6.9 6.9 0 0 1 2.242 1.545l-2.105 2.133a4 4 0 0 0-1.313-.998q-.751-.37-1.736-.37-.957 0-1.654.356a3.5 3.5 0 0 0-1.162.902q-.465.56-.698 1.313a5.5 5.5 0 0 0-.218 1.545q0 .751.218 1.49.233.724.698 1.312t1.162.957q.697.356 1.654.356a4.12 4.12 0 0 0 3.158-1.408l1.969 2.133a7.1 7.1 0 0 1-2.187 1.572q-1.26.588-2.94.588-1.682 0-3.008-.506-1.312-.506-2.215-1.422a6.4 6.4 0 0 1-1.367-2.215q-.465-1.299-.465-2.857m14.397 6.576V31h3.24v6.89q.505-.56 1.477-1.093.97-.534 2.474-.533 1.203 0 2.147.396a4.06 4.06 0 0 1 1.586 1.108 4.7 4.7 0 0 1 .97 1.722q.342 1 .342 2.201v7.985h-3.308v-7.957q0-1.258-.684-1.942t-1.777-.683q-.67 0-1.258.273-.588.26-1.012.739a3.5 3.5 0 0 0-.67 1.107q-.232.63-.232 1.353v7.11zm20.48 0V36.537h3.158l.083 1.49q.246-.273.601-.587.356-.315.848-.575a5.3 5.3 0 0 1 1.107-.424q.615-.177 1.395-.177 2.46 0 3.746 1.476 1.299 1.463 1.299 3.951v7.985h-3.309v-7.957q0-1.258-.684-1.942-.683-.683-1.777-.683-.67 0-1.258.273-.588.26-1.011.739-.424.464-.67 1.107-.233.63-.233 1.353v7.11zm15.45-15.203V31h3.527v3.473zm.109 15.203V36.537h3.308v13.139zm6.084-6.576q0-1.422.519-2.694.52-1.285 1.436-2.228a6.9 6.9 0 0 1 2.228-1.518q1.299-.56 2.872-.56 1.6 0 2.912.574a6.9 6.9 0 0 1 2.242 1.545l-2.106 2.133a4 4 0 0 0-1.312-.998q-.752-.37-1.736-.37-.957 0-1.655.356a3.5 3.5 0 0 0-1.162.902q-.465.56-.697 1.313a5.5 5.5 0 0 0-.219 1.545q0 .751.219 1.49.232.724.697 1.312t1.162.957q.698.356 1.655.356a4.13 4.13 0 0 0 3.158-1.408l1.969 2.133a7.1 7.1 0 0 1-2.188 1.572q-1.258.588-2.939.588-1.683 0-3.008-.506-1.313-.506-2.215-1.422a6.4 6.4 0 0 1-1.367-2.215q-.465-1.299-.465-2.857m14.396 6.576V31h3.241v6.89q.506-.56 1.476-1.093.97-.534 2.475-.533 1.203 0 2.146.396a4.05 4.05 0 0 1 1.586 1.108q.643.711.971 1.722.342 1 .342 2.201v7.985h-3.309v-7.957q0-1.258-.683-1.942-.684-.683-1.778-.683-.67 0-1.258.273-.588.26-1.011.739-.424.464-.67 1.107-.233.63-.233 1.353v7.11zm14.301-10.446v-2.693h2.242v-4.252h3.295v4.252h3.528v2.694h-3.528v5.742q0 1.12.383 1.722t1.217.602q.779 0 1.244-.219a7 7 0 0 0 .889-.533l1.394 2.037q-.984.807-1.941 1.162-.943.356-2.119.356-1.203 0-2.051-.356a3.3 3.3 0 0 1-1.354-.984 4 4 0 0 1-.738-1.559 8.6 8.6 0 0 1-.219-2.01v-5.96zM0 67.538h3.814l3.528 9.42 3.527-9.42h3.61L8.94 80.676H5.578zm15.64 6.412q0-1.45.48-2.693.491-1.245 1.366-2.16a6.5 6.5 0 0 1 2.106-1.463q1.23-.534 2.707-.533 1.791 0 3.035.656t1.996 1.722q.765 1.068 1.094 2.407.342 1.34.342 2.748v.465h-9.803q0 .725.328 1.326.329.588.834 1.011.519.41 1.176.643.67.219 1.312.219.957 0 1.668-.178a7.3 7.3 0 0 0 1.203-.424 4.6 4.6 0 0 0 1.326-.943l1.792 2.023-.465.465q-.37.369-1.094.793-.711.424-1.818.752-1.108.342-2.64.342-1.571 0-2.857-.533a6.6 6.6 0 0 1-2.2-1.463 6.4 6.4 0 0 1-1.409-2.256q-.478-1.326-.478-2.926m3.296-1.23h6.439q0-.506-.191-.998a2.8 2.8 0 0 0-.575-.916 2.9 2.9 0 0 0-.97-.67 3.14 3.14 0 0 0-1.34-.274q-.806 0-1.436.274-.629.26-1.052.67a3 3 0 0 0-.657.916q-.218.506-.218.998m12.386 7.957V67.537h3.159l.081 1.654q.22-.273.575-.601a4.2 4.2 0 0 1 .834-.615 5.4 5.4 0 0 1 1.107-.493q.63-.204 1.436-.191.478 0 .847.055.383.054.78.191l-.67 3.117a3.2 3.2 0 0 0-.698-.191 4.2 4.2 0 0 0-.82-.069q-.67 0-1.285.233-.615.219-1.066.642t-.725 1.012q-.26.588-.26 1.313v7.082zm10.05-1.6 1.981-2.146q.616.615 1.545 1.025.944.397 2.147.397 1.065 0 1.709-.274.642-.287.643-.93 0-.273-.11-.505-.11-.248-.478-.465-.356-.233-.998-.451-.644-.233-1.737-.479-.67-.165-1.408-.451a5.7 5.7 0 0 1-1.353-.766 4.3 4.3 0 0 1-1.04-1.175q-.396-.697-.396-1.641 0-.984.465-1.75.478-.78 1.244-1.285a6.2 6.2 0 0 1 1.736-.793 6.9 6.9 0 0 1 1.955-.287q1.737 0 2.953.369a7 7 0 0 1 2.202 1.08l-1.71 2.324q-.532-.396-1.407-.71-.862-.33-2.038-.329-1.175 0-1.64.355-.465.356-.465.848 0 .615.766.97.778.356 2.406.74a10 10 0 0 1 1.804.56q.794.341 1.368.847.573.506.875 1.19.315.683.314 1.64 0 .958-.451 1.723a3.9 3.9 0 0 1-1.217 1.299 5.9 5.9 0 0 1-1.79.82q-1.027.3-2.175.301-1.845 0-3.336-.52-1.476-.519-2.365-1.53m12.892-8.845v-2.694h2.242v-4.252H59.8v4.252h3.527v2.694h-3.527v5.742q0 1.12.383 1.722.382.602 1.216.602.78 0 1.245-.219a7 7 0 0 0 .888-.533l1.395 2.037q-.985.807-1.942 1.162-.943.356-2.119.356-1.203 0-2.05-.356a3.3 3.3 0 0 1-1.354-.984 4 4 0 0 1-.738-1.559 8.7 8.7 0 0 1-.22-2.01v-5.96zm11.771 3.718q0-1.45.479-2.693.492-1.245 1.367-2.16a6.5 6.5 0 0 1 2.105-1.463q1.23-.534 2.707-.533 1.791 0 3.035.656t1.997 1.722q.765 1.068 1.093 2.407.342 1.34.342 2.748v.465h-9.803q0 .725.329 1.326.327.588.833 1.011.52.41 1.176.643.67.219 1.313.219.957 0 1.668-.178a7.3 7.3 0 0 0 1.203-.424 4.6 4.6 0 0 0 1.326-.943l1.791 2.023-.465.465q-.368.369-1.094.793-.711.424-1.818.752-1.107.342-2.638.342-1.573 0-2.858-.533a6.6 6.6 0 0 1-2.201-1.463 6.4 6.4 0 0 1-1.408-2.256q-.48-1.326-.479-2.926m3.295-1.23h6.44q0-.506-.192-.998a2.8 2.8 0 0 0-.574-.916 2.9 2.9 0 0 0-.97-.67 3.14 3.14 0 0 0-1.34-.274q-.807 0-1.436.274-.63.26-1.053.67a3 3 0 0 0-.656.916q-.219.506-.219.998m12.387 7.957V62h3.24v6.89q.506-.56 1.477-1.093.97-.533 2.474-.533 1.203 0 2.147.396a4.05 4.05 0 0 1 1.586 1.108q.642.711.97 1.722.342 1 .342 2.201v7.985h-3.309v-7.957q0-1.258-.683-1.942-.684-.683-1.777-.683-.67 0-1.258.273-.588.26-1.012.739a3.5 3.5 0 0 0-.67 1.107q-.232.63-.232 1.353v7.11zm14.3-10.445v-2.694h2.243v-4.252h3.295v4.252h3.527v2.694h-3.527v5.742q0 1.12.383 1.722.382.602 1.216.602.78 0 1.244-.219.466-.233.889-.533l1.395 2.037q-.985.807-1.942 1.162-.943.356-2.119.356-1.203 0-2.051-.356a3.3 3.3 0 0 1-1.353-.984 4 4 0 0 1-.739-1.559 8.7 8.7 0 0 1-.218-2.01v-5.96zm12.661 10.445v-3.87h4.006v3.87zm7.82 0v-3.87h4.006v3.87zm7.82 0v-3.87h4.006v3.87z"/></svg>