<svg xmlns="http://www.w3.org/2000/svg" fill="none" viewBox="0 0 300 250"><rect width="300" height="250" fill="#999"/><path fill="#fff" d="M74.707 43v-2.637l9.422-10.71h-9v-2.66h12.633v2.66l-9.246 10.71h9.433V43zm15.867-4.418v-6.844h2.824v6.82q0 1.08.586 1.676.598.586 1.535.586.575 0 1.079-.222a2.5 2.5 0 0 0 .855-.645q.363-.41.563-.95.21-.537.21-1.16v-6.105h2.836V43h-2.718l-.07-1.277q-.211.234-.528.504a5 5 0 0 1-.727.504q-.398.222-.925.363-.528.14-1.207.14-2.11 0-3.211-1.254-1.102-1.265-1.102-3.398M108.457 43V26.992h5.309q1.511 0 2.566.457t1.699 1.172q.657.704.949 1.547a4.6 4.6 0 0 1 .305 1.605q0 1.512-.668 2.672-.656 1.16-2.015 1.864L120.293 43h-3.41l-3.235-6.316h-2.285V43zm2.906-8.812h2.426q1.148 0 1.781-.669.645-.668.645-1.628 0-1.032-.68-1.676-.667-.657-1.746-.656h-2.426zm10.899-4.22v-2.976h3.023v2.977zM122.355 43V31.738h2.836V43zm5.192-1.371 1.699-1.84q.528.528 1.324.879.809.34 1.84.34.915 0 1.465-.235.55-.247.551-.796 0-.235-.094-.434-.093-.21-.41-.398-.304-.2-.856-.387a13 13 0 0 0-1.488-.41 10 10 0 0 1-1.207-.387 4.9 4.9 0 0 1-1.16-.656 3.7 3.7 0 0 1-.891-1.008q-.34-.598-.34-1.406 0-.845.399-1.5a3.5 3.5 0 0 1 1.066-1.102 5.3 5.3 0 0 1 1.489-.68 5.9 5.9 0 0 1 1.675-.246q1.489 0 2.532.317a6 6 0 0 1 1.886.925l-1.465 1.993q-.457-.34-1.207-.61-.738-.28-1.746-.281-1.007 0-1.406.305-.398.305-.398.726 0 .529.656.832.668.305 2.062.633a8.4 8.4 0 0 1 1.547.48q.68.294 1.172.727.492.435.75 1.02.27.586.27 1.406t-.387 1.477a3.4 3.4 0 0 1-1.043 1.113 5 5 0 0 1-1.535.703 6.6 6.6 0 0 1-1.863.258q-1.582 0-2.86-.446-1.266-.445-2.027-1.312m12.035-11.66v-2.977h3.023v2.977zM139.676 43V31.738h2.836V43zm5.742 0V26.992h2.824v8.73l4.067-3.984h3.328l-4.219 4.16L156.117 43h-3.387l-3.257-5.18-1.231 1.196V43zm11.754-5.766q0-1.242.41-2.308a5.7 5.7 0 0 1 1.172-1.852 5.55 5.55 0 0 1 1.805-1.254q1.054-.456 2.32-.457 1.535 0 2.601.563a4.8 4.8 0 0 1 1.711 1.476q.656.914.938 2.063.293 1.147.293 2.355v.399h-8.402q0 .621.281 1.136.281.505.715.868.444.352 1.007.55.575.188 1.125.188a6 6 0 0 0 1.43-.152q.61-.164 1.031-.364a3.9 3.9 0 0 0 1.137-.808l1.535 1.734-.398.398q-.317.318-.938.68-.609.363-1.558.645-.95.293-2.262.293-1.347 0-2.449-.457a5.65 5.65 0 0 1-1.887-1.254 5.5 5.5 0 0 1-1.207-1.934q-.41-1.137-.41-2.508m2.824-1.054h5.52q0-.435-.164-.856a2.4 2.4 0 0 0-.493-.785 2.5 2.5 0 0 0-.832-.574 2.7 2.7 0 0 0-1.148-.235q-.691 0-1.231.235-.539.223-.902.574t-.562.785q-.188.434-.188.856M170.613 43V31.738h2.707l.071 1.278q.21-.235.515-.504a3.7 3.7 0 0 1 .727-.492q.421-.223.949-.364.528-.152 1.195-.152 2.11 0 3.211 1.265 1.113 1.255 1.114 3.387V43h-2.836v-6.82q0-1.08-.586-1.664-.586-.586-1.524-.586-.574 0-1.078.234-.504.223-.867.633a3 3 0 0 0-.574.95q-.2.537-.199 1.16V43zm17.508-4.418v-6.844h2.824v6.82q0 1.08.586 1.676.598.586 1.535.586.575 0 1.079-.222.503-.235.855-.645.363-.41.562-.95.211-.537.211-1.16v-6.105h2.836V43h-2.718l-.071-1.277q-.21.234-.527.504-.316.27-.727.504a4 4 0 0 1-.925.363q-.528.14-1.207.14-2.11 0-3.211-1.254-1.102-1.265-1.102-3.398M201.387 43V31.738h2.707l.07 1.278a7 7 0 0 1 .516-.504q.304-.27.726-.492.423-.223.949-.364.528-.152 1.196-.152 2.109 0 3.211 1.265 1.113 1.255 1.113 3.387V43h-2.836v-6.82q0-1.08-.586-1.664-.586-.586-1.523-.586-.574 0-1.078.234-.504.223-.868.633a3 3 0 0 0-.574.95q-.2.537-.199 1.16V43zm12.691-5.426q0-1.324.375-2.308.387-.995.961-1.7.48-.574 1.055-.96.585-.388 1.172-.633.585-.258 1.136-.364.552-.105.961-.105.55 0 .914.035t.645.094q.293.059.527.164l.551.21v-5.015h2.813V43h-2.743l-.07-1.102a6 6 0 0 1-.527.504 4 4 0 0 1-.727.48q-.422.212-.937.352a4.1 4.1 0 0 1-1.161.153 4.5 4.5 0 0 1-1.804-.387 4.9 4.9 0 0 1-1.594-1.125q-.692-.75-1.125-1.828-.422-1.078-.422-2.473m2.848 0q0 1.441.715 2.403.726.96 2.097.96.715 0 1.219-.269.516-.281.82-.715.317-.433.457-.95.141-.515.141-.995V34.55a2.3 2.3 0 0 0-.949-.469q-.54-.129-1.371-.129-.844 0-1.395.328a3.3 3.3 0 0 0-.961.844 3.8 3.8 0 0 0-.574 1.125 4.4 4.4 0 0 0-.199 1.324M31.125 69V52.992h3.047l7.758 11.38v-11.38h2.953V69h-2.977l-7.828-11.52V69zm16.3-5.766q.001-1.242.41-2.308a5.7 5.7 0 0 1 1.173-1.852 5.55 5.55 0 0 1 1.804-1.254q1.056-.457 2.32-.457 1.536 0 2.602.563a4.8 4.8 0 0 1 1.711 1.476q.656.915.938 2.063.293 1.148.293 2.355v.399h-8.403q0 .621.282 1.137.28.503.715.867.444.351 1.007.55.575.188 1.125.188.82 0 1.43-.152.61-.164 1.031-.364A3.9 3.9 0 0 0 57 65.637l1.535 1.734-.398.398q-.317.318-.938.68-.61.363-1.558.645-.95.293-2.262.293-1.347 0-2.45-.457a5.7 5.7 0 0 1-1.886-1.254 5.5 5.5 0 0 1-1.207-1.934q-.41-1.137-.41-2.508m2.825-1.054h5.52q0-.435-.165-.856a2.4 2.4 0 0 0-.492-.785 2.5 2.5 0 0 0-.832-.574 2.7 2.7 0 0 0-1.148-.235q-.692 0-1.23.235-.54.223-.903.574-.364.351-.562.785-.189.434-.188.856m10.617 6.457V52.992h2.824v5.52q.294-.293 1.102-.645.82-.363 1.98-.363 1.22 0 2.168.457a4.9 4.9 0 0 1 1.618 1.23 5 5 0 0 1 1.02 1.817q.35 1.055.35 2.226 0 1.278-.445 2.391a5.7 5.7 0 0 1-1.277 1.945 6 6 0 0 1-2.004 1.325q-1.172.492-2.637.492-1.464 0-2.707-.246-1.23-.236-1.992-.504m2.824-1.946q.34.117.703.188.364.058 1.125.058.868 0 1.512-.293a3.5 3.5 0 0 0 1.102-.808 3.3 3.3 0 0 0 .68-1.16q.234-.668.234-1.36 0-.644-.153-1.242a3.1 3.1 0 0 0-.492-1.078 2.44 2.44 0 0 0-.855-.738q-.516-.281-1.23-.281-1.301 0-1.97.668-.656.656-.656 1.804zm9.961-3.457q0-1.242.41-2.308a5.7 5.7 0 0 1 1.172-1.852 5.55 5.55 0 0 1 1.805-1.254q1.055-.457 2.32-.457 1.536 0 2.602.563a4.8 4.8 0 0 1 1.71 1.476q.657.915.938 2.063.293 1.148.293 2.355v.399H76.5q0 .621.281 1.137.282.503.715.867.445.351 1.008.55.574.188 1.125.188a6 6 0 0 0 1.43-.152q.61-.164 1.03-.364a3.9 3.9 0 0 0 1.138-.808l1.535 1.734-.399.398q-.316.318-.937.68-.61.363-1.559.645-.949.293-2.261.293-1.348 0-2.45-.457a5.7 5.7 0 0 1-1.887-1.254 5.5 5.5 0 0 1-1.207-1.934q-.41-1.137-.41-2.508m2.825-1.054h5.52q0-.435-.165-.856a2.4 2.4 0 0 0-.492-.785 2.5 2.5 0 0 0-.832-.574 2.7 2.7 0 0 0-1.149-.235 3.1 3.1 0 0 0-1.23.235q-.54.223-.902.574-.364.351-.563.785-.187.434-.187.856M87.094 69V57.738H89.8l.07 1.278q.21-.235.516-.504.304-.27.726-.492a4.5 4.5 0 0 1 .95-.364q.527-.152 1.195-.152 2.109 0 3.21 1.266 1.114 1.253 1.114 3.386V69h-2.836v-6.82q0-1.08-.586-1.664-.585-.586-1.523-.586-.575 0-1.078.234-.504.223-.868.633a3 3 0 0 0-.574.95q-.2.537-.199 1.16V69zm12.035-11.262h3.129l2.156 7.828 2.379-7.828h2.367l2.402 7.828 2.145-7.828h2.977L112.863 69h-2.742l-2.297-6.797L105.586 69h-2.637zm19.183-1.77v-2.976h3.024v2.977zM118.406 69V57.738h2.836V69zm5.742 0V57.738h2.707l.071 1.418q.188-.234.492-.515.304-.293.715-.528.41-.246.949-.422.54-.176 1.23-.164.41 0 .727.047.328.047.668.164l-.574 2.672a2.7 2.7 0 0 0-.598-.164 3.6 3.6 0 0 0-.703-.059q-.574 0-1.102.2a2.6 2.6 0 0 0-.914.55 2.8 2.8 0 0 0-.621.868q-.222.503-.222 1.125V69zm9.164 0V52.992h2.825v8.73l4.066-3.984h3.328l-4.219 4.16 4.7 7.102h-3.387l-3.258-5.18-1.23 1.196V69zm12.235-4.418v-6.844h2.824v6.82q0 1.08.586 1.676.597.586 1.535.586.574 0 1.078-.222.504-.235.856-.645.363-.41.562-.95.211-.538.211-1.16v-6.105h2.836V69h-2.719l-.07-1.277a6 6 0 0 1-.527.504q-.316.27-.727.504a4 4 0 0 1-.926.363q-.527.14-1.207.14-2.109 0-3.211-1.253-1.101-1.266-1.101-3.399M158.812 69V57.738h2.708l.07 1.278q.21-.235.515-.504a3.7 3.7 0 0 1 .727-.492q.422-.223.949-.364.527-.152 1.196-.152 2.109 0 3.211 1.266 1.113 1.253 1.113 3.386V69h-2.836v-6.82q0-1.08-.586-1.664-.587-.586-1.524-.586-.573 0-1.078.234-.504.223-.867.633a3 3 0 0 0-.574.95q-.2.537-.199 1.16V69zm12.692-5.473q0-1.242.445-2.343a5.6 5.6 0 0 1 1.266-1.922 6 6 0 0 1 2.004-1.29q1.184-.468 2.636-.468 1.465 0 2.696.246 1.242.234 2.015.492v10.946q0 1.17-.41 2.085a4.3 4.3 0 0 1-1.136 1.536 4.7 4.7 0 0 1-1.7.949 6.7 6.7 0 0 1-2.132.328q-.891 0-1.571-.082a8.4 8.4 0 0 1-1.23-.235 5 5 0 0 1-.985-.363 5.4 5.4 0 0 1-.82-.492l1.266-2.086q.667.458 1.453.656.785.2 1.84.2 1.101 0 1.839-.668.75-.668.75-1.875v-1.22q-.573.481-1.265.786-.68.293-1.805.293-1.218 0-2.168-.41a4.8 4.8 0 0 1-1.629-1.137 5.1 5.1 0 0 1-1.019-1.734 6.7 6.7 0 0 1-.34-2.192m2.871-.07q0 1.301.645 2.191.656.88 2.097.88 1.301 0 1.957-.551.656-.552.656-1.758v-4.031a4 4 0 0 0-.703-.176q-.351-.06-1.113-.059-.867 0-1.523.293a3.35 3.35 0 0 0-1.102.762q-.457.48-.691 1.125a4 4 0 0 0-.223 1.324m10.441-.223q0-1.242.411-2.308a5.7 5.7 0 0 1 1.171-1.852 5.6 5.6 0 0 1 1.805-1.254q1.055-.457 2.32-.457 1.536 0 2.602.563a4.8 4.8 0 0 1 1.711 1.476q.656.915.937 2.063a9.5 9.5 0 0 1 .293 2.355v.399h-8.402q0 .621.281 1.137.282.503.715.867a3.5 3.5 0 0 0 1.008.55q.575.188 1.125.188.82 0 1.43-.152.61-.164 1.031-.364a3.9 3.9 0 0 0 1.137-.808l1.535 1.734-.399.398q-.316.318-.937.68-.61.363-1.559.645-.949.293-2.261.293-1.348 0-2.45-.457a5.7 5.7 0 0 1-1.886-1.254 5.5 5.5 0 0 1-1.207-1.934q-.411-1.137-.411-2.508m2.825-1.054h5.519q0-.435-.164-.856a2.4 2.4 0 0 0-.492-.785 2.5 2.5 0 0 0-.832-.574 2.7 2.7 0 0 0-1.149-.235q-.692 0-1.23.235-.539.223-.902.574-.364.351-.563.785-.187.434-.187.856M198.258 69V57.738h2.707l.07 1.278a7 7 0 0 1 .516-.504q.304-.27.726-.492.423-.223.95-.364.527-.152 1.195-.152 2.109 0 3.211 1.266 1.113 1.253 1.113 3.386V69h-2.836v-6.82q0-1.08-.586-1.664-.585-.586-1.523-.586-.574 0-1.078.234-.504.223-.868.633a3 3 0 0 0-.574.95q-.2.537-.199 1.16V69zm17.554 0V52.992h2.825V69zm5.098-5.766q0-1.242.41-2.308a5.7 5.7 0 0 1 1.172-1.852 5.6 5.6 0 0 1 1.805-1.254q1.054-.457 2.32-.457 1.536 0 2.602.563a4.8 4.8 0 0 1 1.711 1.476q.656.915.937 2.063.293 1.148.293 2.355v.399h-8.402q0 .621.281 1.137.282.503.715.867a3.5 3.5 0 0 0 1.008.55q.575.188 1.125.188a6 6 0 0 0 1.429-.152q.61-.164 1.032-.364a3.9 3.9 0 0 0 1.136-.808l1.536 1.734-.399.398q-.316.318-.937.68-.61.363-1.559.645-.95.293-2.262.293-1.348 0-2.449-.457a5.7 5.7 0 0 1-1.887-1.254 5.5 5.5 0 0 1-1.207-1.934q-.41-1.137-.41-2.508m2.824-1.054h5.52q0-.435-.164-.856a2.4 2.4 0 0 0-.492-.785 2.5 2.5 0 0 0-.832-.574 2.7 2.7 0 0 0-1.149-.235q-.691 0-1.23.235-.54.223-.903.574a2.6 2.6 0 0 0-.562.785q-.188.434-.188.856m10.067 5.449 1.699-1.84q.528.528 1.324.879.809.34 1.84.34.914 0 1.465-.235.55-.246.551-.796 0-.235-.094-.434-.094-.21-.41-.399-.304-.198-.856-.386a13 13 0 0 0-1.488-.41 10 10 0 0 1-1.207-.387 4.9 4.9 0 0 1-1.16-.656 3.7 3.7 0 0 1-.891-1.008q-.34-.598-.34-1.406 0-.845.399-1.5a3.5 3.5 0 0 1 1.066-1.102 5.3 5.3 0 0 1 1.489-.68 5.9 5.9 0 0 1 1.675-.246q1.488 0 2.532.317a6 6 0 0 1 1.886.925l-1.465 1.993q-.457-.34-1.207-.61-.738-.28-1.746-.281-1.007 0-1.406.305-.398.305-.398.726 0 .528.656.832.668.304 2.062.633a8.4 8.4 0 0 1 1.547.48q.68.294 1.172.727.492.435.75 1.02.27.586.27 1.406t-.387 1.477a3.4 3.4 0 0 1-1.043 1.113 5 5 0 0 1-1.535.703 6.6 6.6 0 0 1-1.863.258q-1.582 0-2.86-.446-1.266-.445-2.027-1.312m11.484-4.395q0-1.242.41-2.308a5.7 5.7 0 0 1 1.172-1.852 5.6 5.6 0 0 1 1.805-1.254q1.054-.457 2.32-.457 1.536 0 2.602.563a4.8 4.8 0 0 1 1.711 1.476q.656.915.937 2.063a9.5 9.5 0 0 1 .293 2.355v.399h-8.402q0 .621.281 1.137.282.503.715.867a3.5 3.5 0 0 0 1.008.55q.575.188 1.125.188a6 6 0 0 0 1.429-.152q.61-.164 1.032-.364a3.9 3.9 0 0 0 1.136-.808l1.536 1.734-.399.398q-.316.318-.937.68-.61.363-1.559.645-.95.293-2.262.293-1.348 0-2.449-.457a5.7 5.7 0 0 1-1.887-1.254 5.5 5.5 0 0 1-1.207-1.934q-.41-1.137-.41-2.508m2.824-1.054h5.52q0-.435-.164-.856a2.4 2.4 0 0 0-.492-.785 2.5 2.5 0 0 0-.832-.574 2.7 2.7 0 0 0-1.149-.235q-.691 0-1.23.235-.54.223-.903.574a2.6 2.6 0 0 0-.562.785q-.188.434-.188.856M258.727 69V57.738h2.707l.07 1.278q.21-.235.516-.504.304-.27.726-.492.422-.223.949-.364.527-.152 1.196-.152 2.109 0 3.211 1.266 1.113 1.253 1.113 3.386V69h-2.836v-6.82q0-1.08-.586-1.664-.586-.586-1.523-.586-.575 0-1.079.234-.504.223-.867.633a3 3 0 0 0-.574.95q-.2.537-.199 1.16V69zM25.43 92.434l2.12-1.946q.294.34.68.715.399.363.891.691.492.317 1.102.54.609.21 1.383.21 1.417 0 2.097-.644.68-.645.68-1.559 0-.503-.188-.902t-.644-.691q-.457-.305-1.196-.54a14 14 0 0 0-1.804-.456q-1.102-.212-1.91-.668a5 5 0 0 1-1.336-1.09 4.4 4.4 0 0 1-.797-1.371 4.8 4.8 0 0 1-.258-1.559q0-.914.328-1.734a4.04 4.04 0 0 1 1.031-1.465q.704-.633 1.746-1.02 1.044-.386 2.461-.386 1.278 0 2.18.293.914.281 1.523.667.622.387.95.762.339.363.492.54l-1.992 1.863a9 9 0 0 1-.387-.34 3.6 3.6 0 0 0-.668-.492 4.3 4.3 0 0 0-.95-.434 3.6 3.6 0 0 0-1.241-.2q-.622.001-1.078.176-.458.165-.762.434a1.8 1.8 0 0 0-.445.586q-.141.316-.141.61 0 .432.152.773.164.329.528.621.375.282 1.02.516.655.222 1.64.422a8.3 8.3 0 0 1 1.793.574q.867.386 1.523.996.668.609 1.055 1.488.398.879.398 2.098 0 1.054-.433 1.945a4.7 4.7 0 0 1-1.196 1.559 5.5 5.5 0 0 1-1.828 1.043 6.8 6.8 0 0 1-2.297.375q-1.196 0-2.168-.293a8 8 0 0 1-1.757-.727 7.6 7.6 0 0 1-1.348-.973 10 10 0 0 1-.95-1.007m14.906-10.465v-2.977h3.023v2.977zM40.43 95V83.738h2.836V95zm5.215-5.766q0-1.242.41-2.308a5.7 5.7 0 0 1 1.172-1.852 5.55 5.55 0 0 1 1.804-1.254q1.055-.457 2.32-.457 1.536 0 2.602.563a4.8 4.8 0 0 1 1.711 1.476q.657.915.938 2.063.293 1.148.293 2.355v.399h-8.403q0 .621.281 1.137.282.503.715.867.445.351 1.008.55.575.188 1.125.188a6 6 0 0 0 1.43-.152q.61-.164 1.031-.364a3.9 3.9 0 0 0 1.137-.808l1.535 1.734-.398.398q-.318.318-.938.68-.61.363-1.559.645-.948.293-2.261.293-1.348 0-2.45-.457a5.7 5.7 0 0 1-1.886-1.254 5.5 5.5 0 0 1-1.207-1.934q-.41-1.137-.41-2.508m2.824-1.054h5.52q0-.435-.165-.856a2.4 2.4 0 0 0-.492-.785 2.5 2.5 0 0 0-.832-.574 2.7 2.7 0 0 0-1.148-.234 3.1 3.1 0 0 0-1.23.234q-.54.222-.903.574-.363.351-.563.785-.187.434-.187.856m14.426 1.394q0-1.324.374-2.308.387-.996.962-1.7.48-.574 1.054-.96.585-.388 1.172-.633.586-.258 1.137-.364a5 5 0 0 1 .96-.105q.552 0 .915.035t.644.094q.293.059.528.164l.55.21v-5.015h2.813V95h-2.742l-.07-1.102q-.212.236-.528.504a4 4 0 0 1-.727.48q-.42.212-.937.352-.516.153-1.16.153-.915 0-1.805-.387a4.9 4.9 0 0 1-1.594-1.125q-.69-.75-1.125-1.828-.421-1.078-.422-2.473m2.847 0q0 1.441.715 2.403.727.96 2.098.96.714 0 1.218-.269.517-.281.82-.715.317-.433.458-.95.14-.515.14-.995V86.55a2.3 2.3 0 0 0-.949-.469q-.54-.129-1.37-.129-.844 0-1.395.328a3.3 3.3 0 0 0-.961.844q-.364.48-.575 1.125-.198.633-.199 1.324m11.063-7.605v-2.977h3.023v2.977zM76.898 95V83.738h2.836V95zm5.215-5.766q0-1.242.41-2.308a5.7 5.7 0 0 1 1.172-1.852A5.55 5.55 0 0 1 85.5 83.82q1.055-.457 2.32-.457 1.535 0 2.602.563a4.8 4.8 0 0 1 1.71 1.476q.656.915.938 2.063.294 1.148.293 2.355v.399h-8.402q0 .621.281 1.137.282.503.715.867.445.351 1.008.55.574.188 1.125.188.82 0 1.43-.152.61-.164 1.03-.364a3.9 3.9 0 0 0 1.138-.808l1.535 1.734-.399.398q-.315.318-.937.68-.61.363-1.559.645-.95.293-2.262.293-1.347 0-2.449-.457a5.7 5.7 0 0 1-1.886-1.254 5.5 5.5 0 0 1-1.208-1.934q-.41-1.137-.41-2.508m2.825-1.054h5.519q0-.435-.164-.856a2.4 2.4 0 0 0-.492-.785 2.5 2.5 0 0 0-.832-.574 2.7 2.7 0 0 0-1.149-.234q-.69 0-1.23.234-.54.222-.903.574-.364.351-.562.785-.187.434-.187.856M100.172 95V78.992h5.144q1.677 0 2.743.516t1.687 1.277q.633.75.867 1.617.246.868.246 1.582 0 1.348-.48 2.309a4.7 4.7 0 0 1-1.254 1.57 5.1 5.1 0 0 1-1.723.903 6.7 6.7 0 0 1-1.898.28h-2.426V95zm2.906-8.496h2.192q1.148 0 1.828-.668.691-.68.691-1.758 0-1.125-.727-1.828-.715-.715-1.792-.715h-2.192zm9.469 5.203q0-.96.363-1.71a3.6 3.6 0 0 1 1.008-1.278q.644-.516 1.559-.774a7.1 7.1 0 0 1 2.015-.27 26 26 0 0 1 1.535.048q.433.023.891.058v-.27q0-.843-.68-1.323-.668-.48-1.746-.481-1.195 0-1.922.316a9.5 9.5 0 0 0-1.265.668l-1.301-1.91q.34-.234.773-.492a5.5 5.5 0 0 1 1.008-.457q.574-.21 1.324-.34a11 11 0 0 1 1.77-.129q1.078 0 1.957.305a4.4 4.4 0 0 1 1.5.832q.62.54.961 1.3.34.75.34 1.641V95h-2.649l-.07-1.055q-.458.552-1.395.985t-2.085.433q-.691 0-1.383-.222a3.8 3.8 0 0 1-1.243-.657 3.4 3.4 0 0 1-.914-1.136q-.351-.704-.351-1.641m2.719-.117q0 .714.515 1.125.516.41 1.524.41.504 0 .972-.164.469-.165.821-.457.363-.293.586-.668.234-.387.234-.82v-1.102l-.844-.047a19 19 0 0 0-.715-.035 20 20 0 0 0-.621-.012q-1.37 0-1.922.54-.55.538-.55 1.23m9.574-2.227q0-1.218.445-2.308a5.9 5.9 0 0 1 1.231-1.91 5.9 5.9 0 0 1 1.91-1.301q1.113-.48 2.461-.48 1.371 0 2.496.492t1.922 1.324l-1.805 1.828a3.4 3.4 0 0 0-1.125-.856q-.645-.315-1.488-.316-.82 0-1.418.305a3 3 0 0 0-.996.773q-.399.48-.598 1.125-.187.645-.187 1.324 0 .645.187 1.278.2.621.598 1.125t.996.82q.597.305 1.418.305a3.54 3.54 0 0 0 2.707-1.207l1.687 1.828a6.1 6.1 0 0 1-1.875 1.347q-1.077.504-2.519.504t-2.578-.433a5.3 5.3 0 0 1-1.899-1.22 5.5 5.5 0 0 1-1.172-1.897q-.398-1.115-.398-2.45M137.18 95V78.992h2.824v8.73l4.066-3.984h3.328l-4.218 4.16L147.879 95h-3.387l-3.258-5.18-1.23 1.196V95zm12.234-4.418v-6.844h2.824v6.82q0 1.08.586 1.676.598.586 1.535.586.575 0 1.079-.222.503-.235.855-.645.363-.41.562-.95.211-.538.211-1.16v-6.105h2.836V95h-2.718l-.071-1.277q-.21.234-.527.504-.316.27-.727.504a4 4 0 0 1-.925.363q-.528.14-1.207.14-2.11 0-3.211-1.253-1.102-1.266-1.102-3.399M162.68 95V83.738h2.707l.07 1.278a7 7 0 0 1 .516-.504q.304-.27.726-.493t.949-.363q.528-.152 1.196-.152 2.109 0 3.211 1.265 1.113 1.255 1.113 3.387V95h-2.836v-6.82q0-1.08-.586-1.664-.586-.586-1.523-.586a2.5 2.5 0 0 0-1.078.234q-.504.223-.868.633a3 3 0 0 0-.574.95q-.2.538-.199 1.16V95zm12.691-5.473q0-1.242.445-2.343a5.6 5.6 0 0 1 1.266-1.922 6 6 0 0 1 2.004-1.29q1.183-.468 2.637-.468 1.464 0 2.695.246 1.242.234 2.016.492v10.945q0 1.173-.411 2.086a4.3 4.3 0 0 1-1.136 1.536 4.7 4.7 0 0 1-1.699.949 6.7 6.7 0 0 1-2.133.328q-.89 0-1.571-.082a8.4 8.4 0 0 1-1.23-.235 5.399 5.399 0 0 1-1.805-.855l1.266-2.086q.668.458 1.453.656.785.2 1.84.2 1.1 0 1.84-.668.75-.668.75-1.875v-1.22q-.575.481-1.266.786-.68.293-1.805.293-1.218 0-2.168-.41a4.8 4.8 0 0 1-1.629-1.137 5.1 5.1 0 0 1-1.019-1.734 6.7 6.7 0 0 1-.34-2.192m2.871-.07q0 1.301.645 2.191.655.88 2.097.88 1.302 0 1.957-.551.657-.552.657-1.758v-4.031a4 4 0 0 0-.703-.176q-.352-.06-1.114-.059-.867 0-1.523.293a3.35 3.35 0 0 0-1.102.762q-.457.48-.691 1.125a4 4 0 0 0-.223 1.324m10.418 4.172 1.699-1.84q.528.528 1.325.879.808.34 1.839.34.915 0 1.465-.235.55-.246.551-.796 0-.235-.094-.434-.093-.21-.41-.399-.304-.198-.855-.386-.552-.2-1.489-.41a10 10 0 0 1-1.207-.387 4.9 4.9 0 0 1-1.16-.656 3.7 3.7 0 0 1-.89-1.008q-.34-.598-.34-1.406 0-.845.398-1.5a3.5 3.5 0 0 1 1.067-1.102 5.3 5.3 0 0 1 1.488-.68 5.9 5.9 0 0 1 1.676-.246q1.488 0 2.531.317a6 6 0 0 1 1.887.925l-1.465 1.993q-.457-.34-1.207-.61-.738-.28-1.746-.281-1.008 0-1.407.305-.398.304-.398.726 0 .529.656.832.669.304 2.063.633a8.4 8.4 0 0 1 1.547.48 4.4 4.4 0 0 1 1.171.727q.494.435.75 1.02.27.586.27 1.406t-.387 1.477a3.36 3.36 0 0 1-1.043 1.113 5 5 0 0 1-1.535.703 6.6 6.6 0 0 1-1.863.258q-1.583 0-2.859-.446-1.266-.445-2.028-1.312m12.012 1.008V78.992h2.824v5.52q.293-.293 1.102-.645.82-.363 1.98-.363 1.219 0 2.168.457a4.9 4.9 0 0 1 1.617 1.23 5 5 0 0 1 1.02 1.817q.351 1.054.351 2.226 0 1.278-.445 2.391a5.7 5.7 0 0 1-1.277 1.945 6 6 0 0 1-2.004 1.325q-1.171.492-2.637.492-1.464 0-2.707-.246-1.23-.236-1.992-.504m2.824-1.946q.34.117.703.188.363.058 1.125.058.867 0 1.512-.293.645-.304 1.102-.808t.679-1.16q.235-.668.235-1.36 0-.644-.153-1.242a3.1 3.1 0 0 0-.492-1.078 2.44 2.44 0 0 0-.855-.738q-.516-.282-1.231-.281-1.3 0-1.969.667-.656.657-.656 1.805zm9.961-3.457q0-1.242.41-2.308a5.7 5.7 0 0 1 1.172-1.852 5.55 5.55 0 0 1 1.805-1.254q1.054-.457 2.32-.457 1.536 0 2.602.563a4.8 4.8 0 0 1 1.711 1.476q.656.915.937 2.063.293 1.148.293 2.355v.399h-8.402q0 .621.281 1.137.281.503.715.867a3.5 3.5 0 0 0 1.008.55q.573.188 1.125.188.82 0 1.429-.152.61-.164 1.032-.364a3.9 3.9 0 0 0 1.136-.808l1.535 1.734-.398.398q-.316.318-.938.68-.609.363-1.558.645-.95.293-2.262.293-1.347 0-2.449-.457a5.7 5.7 0 0 1-1.887-1.254 5.5 5.5 0 0 1-1.207-1.934q-.41-1.137-.41-2.508m2.824-1.054h5.52q0-.435-.164-.856a2.4 2.4 0 0 0-.492-.785 2.5 2.5 0 0 0-.833-.574 2.7 2.7 0 0 0-1.148-.234q-.692 0-1.23.234-.54.222-.903.574a2.6 2.6 0 0 0-.562.785q-.188.434-.188.856m10.641-6.211v-2.977h3.023v2.977zM227.016 95V83.738h2.836V95zm5.742 0V78.992h2.824V95zm4.898-3.293q0-.96.364-1.71a3.6 3.6 0 0 1 1.007-1.278q.645-.516 1.559-.774a7.1 7.1 0 0 1 2.016-.27 27 27 0 0 1 1.535.048q.434.023.89.058v-.27q0-.843-.679-1.323-.669-.48-1.746-.481-1.196 0-1.922.316a9.5 9.5 0 0 0-1.266.668l-1.301-1.91q.34-.234.774-.492a5.5 5.5 0 0 1 1.008-.457q.573-.21 1.324-.34a11 11 0 0 1 1.769-.129q1.078 0 1.957.305a4.4 4.4 0 0 1 1.5.832q.621.54.961 1.3.34.75.34 1.641V95h-2.648l-.071-1.055q-.456.552-1.394.985t-2.086.433q-.692 0-1.383-.222a3.8 3.8 0 0 1-1.242-.657 3.4 3.4 0 0 1-.914-1.136q-.352-.704-.352-1.641m2.719-.117q0 .714.516 1.125.515.41 1.523.41.504 0 .973-.164.469-.165.82-.457.363-.293.586-.668.234-.387.234-.82v-1.102l-.843-.047a19 19 0 0 0-.715-.035 20 20 0 0 0-.621-.012q-1.371 0-1.922.54-.55.538-.551 1.23m9.574-2.063q0-1.242.446-2.343a5.55 5.55 0 0 1 1.265-1.922 6 6 0 0 1 2.004-1.29q1.183-.468 2.637-.468 1.464 0 2.695.246 1.242.234 2.016.492v10.945q0 1.173-.41 2.086a4.3 4.3 0 0 1-1.137 1.536 4.7 4.7 0 0 1-1.699.949 6.7 6.7 0 0 1-2.133.328q-.89 0-1.571-.082a8.4 8.4 0 0 1-1.23-.235 5.448 5.448 0 0 1-1.805-.855l1.266-2.086q.668.458 1.453.656.786.2 1.84.2 1.102 0 1.84-.668.75-.668.75-1.875v-1.22q-.575.481-1.266.786-.68.293-1.805.293-1.219 0-2.167-.41a4.8 4.8 0 0 1-1.629-1.137 5.05 5.05 0 0 1-1.02-1.734 6.7 6.7 0 0 1-.34-2.192m2.871-.07q0 1.301.645 2.191.656.88 2.097.88 1.301 0 1.958-.551.656-.552.656-1.758v-4.031a4 4 0 0 0-.703-.176q-.352-.06-1.114-.059-.867 0-1.523.293a3.35 3.35 0 0 0-1.102.762q-.457.48-.691 1.125a4 4 0 0 0-.223 1.324m10.442-.223q0-1.242.41-2.308a5.7 5.7 0 0 1 1.172-1.852 5.6 5.6 0 0 1 1.804-1.254q1.055-.457 2.321-.457 1.535 0 2.601.563a4.8 4.8 0 0 1 1.711 1.476q.656.915.938 2.063.293 1.148.293 2.355v.399h-8.403q0 .621.282 1.137.28.503.714.867a3.5 3.5 0 0 0 1.008.55q.575.188 1.125.188a6 6 0 0 0 1.43-.152q.61-.164 1.031-.364a3.9 3.9 0 0 0 1.137-.808l1.535 1.734-.398.398q-.317.318-.938.68-.61.363-1.558.645-.95.293-2.262.293-1.348 0-2.449-.457a5.65 5.65 0 0 1-1.887-1.254 5.5 5.5 0 0 1-1.207-1.934q-.41-1.137-.41-2.508m2.824-1.054h5.519q0-.435-.164-.856a2.4 2.4 0 0 0-.492-.785 2.5 2.5 0 0 0-.832-.574 2.7 2.7 0 0 0-1.148-.234q-.691 0-1.231.234-.539.222-.902.574-.363.351-.563.785-.187.434-.187.856M53.18 116.582v-6.844h2.824v6.821q0 1.078.586 1.675.597.586 1.535.586.574 0 1.078-.222.504-.235.856-.645.364-.41.562-.949.21-.539.211-1.16v-6.106h2.836V121h-2.719l-.07-1.277q-.21.234-.527.504a5 5 0 0 1-.727.503q-.398.223-.926.364-.527.14-1.207.14-2.109 0-3.21-1.254-1.102-1.265-1.102-3.398M66.445 121v-11.262h2.707l.07 1.278a6 6 0 0 1 .516-.504q.305-.27.727-.492.421-.223.95-.364a4.3 4.3 0 0 1 1.194-.152q2.11 0 3.211 1.266 1.114 1.253 1.114 3.386V121h-2.836v-6.82q0-1.079-.586-1.664-.586-.586-1.524-.586-.573 0-1.078.234a2.5 2.5 0 0 0-.867.633 3 3 0 0 0-.574.949q-.2.539-.2 1.16V121zm12.692-5.426q0-1.324.375-2.308.386-.996.96-1.7.481-.573 1.055-.961.587-.386 1.172-.632.586-.258 1.137-.364.55-.105.96-.105.552 0 .915.035t.645.094q.292.059.527.164l.55.211v-5.016h2.813V121h-2.742l-.07-1.102a5 5 0 0 1-.528.504 4 4 0 0 1-.726.481q-.422.21-.938.351-.516.153-1.16.153-.914 0-1.805-.387a4.9 4.9 0 0 1-1.593-1.125q-.692-.75-1.125-1.828-.422-1.078-.422-2.473m2.847 0q0 1.442.715 2.403.727.96 2.098.961.715 0 1.219-.27.515-.282.82-.715.316-.433.457-.949.14-.516.14-.996v-3.457a2.3 2.3 0 0 0-.949-.469q-.539-.129-1.37-.129-.844 0-1.395.328a3.3 3.3 0 0 0-.961.844q-.364.48-.574 1.125-.2.633-.2 1.324m14.297-3.527v-2.309h1.91v-.691q0-1.22.387-2.074.387-.856.984-1.395a3.6 3.6 0 0 1 1.336-.773q.75-.246 1.477-.246.774 0 1.699.222.938.211 1.805.949l-1.324 1.875a3.7 3.7 0 0 0-.832-.433 2.5 2.5 0 0 0-.891-.164q-.843 0-1.336.539-.492.539-.492 1.547v.644h2.906v2.309h-2.883V121h-2.836v-8.953zm9.235 8.953v-11.262h2.707l.07 1.418q.188-.234.492-.515a3.6 3.6 0 0 1 .715-.528q.41-.245.949-.422a3.8 3.8 0 0 1 1.231-.164q.41 0 .726.047.329.047.668.164l-.574 2.672a2.7 2.7 0 0 0-.598-.164 3.6 3.6 0 0 0-.703-.058q-.575 0-1.101.199a2.6 2.6 0 0 0-.914.551 2.8 2.8 0 0 0-.622.867 2.8 2.8 0 0 0-.222 1.125V121zm8.437-3.293q0-.961.363-1.711a3.6 3.6 0 0 1 1.008-1.277q.644-.516 1.559-.774a7.1 7.1 0 0 1 2.015-.269 26 26 0 0 1 1.536.047q.434.023.89.058v-.269q0-.844-.679-1.324-.669-.481-1.747-.481-1.195 0-1.921.316a9.5 9.5 0 0 0-1.266.668l-1.301-1.91q.34-.234.774-.492a5.5 5.5 0 0 1 1.007-.457 7.6 7.6 0 0 1 1.325-.34 10.7 10.7 0 0 1 1.769-.129q1.078 0 1.957.305a4.4 4.4 0 0 1 1.5.832q.622.539.961 1.301.34.75.34 1.64V121h-2.648l-.071-1.055q-.456.551-1.394.985t-2.086.433q-.692 0-1.383-.222a3.8 3.8 0 0 1-1.242-.657 3.4 3.4 0 0 1-.914-1.136q-.352-.704-.352-1.641m2.719-.117q0 .714.516 1.125.515.41 1.523.41.504 0 .973-.164t.82-.457q.363-.293.586-.668.234-.387.234-.82v-1.102l-.844-.047a21 21 0 0 0-1.335-.047q-1.372 0-1.922.539-.552.54-.551 1.231m9.574-2.063q0-1.242.445-2.343a5.6 5.6 0 0 1 1.266-1.922 6 6 0 0 1 2.004-1.289q1.183-.47 2.637-.469 1.464 0 2.695.246 1.242.234 2.016.492v10.946q0 1.172-.411 2.085a4.3 4.3 0 0 1-1.136 1.536 4.7 4.7 0 0 1-1.7.949 6.7 6.7 0 0 1-2.132.328 13 13 0 0 1-1.571-.082 8.5 8.5 0 0 1-1.23-.234 5 5 0 0 1-.984-.364 5.3 5.3 0 0 1-.821-.492l1.266-2.086a4.5 4.5 0 0 0 1.453.656q.785.2 1.84.2 1.1 0 1.84-.668.75-.669.75-1.875v-1.219a5.3 5.3 0 0 1-1.266.785q-.68.293-1.805.293-1.218 0-2.168-.41a4.8 4.8 0 0 1-1.629-1.137 5.1 5.1 0 0 1-1.019-1.734 6.7 6.7 0 0 1-.34-2.192m2.871-.07q0 1.301.645 2.191.655.879 2.097.879 1.302 0 1.957-.55.657-.552.657-1.758v-4.031a4 4 0 0 0-.703-.176q-.352-.059-1.114-.059-.867 0-1.523.293-.645.282-1.102.762t-.691 1.125a4 4 0 0 0-.223 1.324m10.442-.223q0-1.242.41-2.308a5.7 5.7 0 0 1 1.172-1.852 5.55 5.55 0 0 1 1.804-1.254 5.8 5.8 0 0 1 2.321-.457q1.535 0 2.601.563a4.8 4.8 0 0 1 1.711 1.476q.657.914.938 2.063.293 1.148.293 2.355v.399h-8.403q0 .621.282 1.136.28.504.714.868.446.352 1.008.55.575.188 1.125.188.82 0 1.43-.152.61-.165 1.031-.364a3.9 3.9 0 0 0 1.137-.808l1.535 1.734-.398.399q-.317.315-.938.679-.61.363-1.559.645-.948.293-2.261.293-1.348 0-2.45-.457a5.7 5.7 0 0 1-1.886-1.254 5.5 5.5 0 0 1-1.207-1.934q-.41-1.137-.41-2.508m2.824-1.054h5.519q0-.434-.164-.856a2.4 2.4 0 0 0-.492-.785 2.5 2.5 0 0 0-.832-.574 2.7 2.7 0 0 0-1.148-.235q-.691 0-1.231.235-.539.222-.902.574a2.6 2.6 0 0 0-.563.785 2.1 2.1 0 0 0-.187.856M153 121v-11.262h2.707l.07 1.278q.212-.236.516-.504.304-.27.727-.492.421-.223.949-.364.527-.152 1.195-.152 2.11 0 3.211 1.266 1.113 1.253 1.113 3.386V121h-2.836v-6.82q0-1.079-.586-1.664-.585-.586-1.523-.586-.574 0-1.078.234a2.5 2.5 0 0 0-.867.633 3 3 0 0 0-.575.949 3.3 3.3 0 0 0-.199 1.16V121zm16.898-2.566 2.122-1.946q.292.34.679.715.399.363.891.692.492.315 1.101.539.61.21 1.383.211 1.419 0 2.098-.645.68-.644.68-1.559 0-.504-.188-.902-.188-.399-.644-.691-.458-.305-1.196-.539a14 14 0 0 0-1.804-.457q-1.103-.212-1.911-.668a5.1 5.1 0 0 1-1.336-1.09 4.4 4.4 0 0 1-.796-1.371 4.8 4.8 0 0 1-.258-1.559q0-.913.328-1.734a4 4 0 0 1 1.031-1.465q.703-.633 1.746-1.02 1.044-.386 2.461-.386 1.278 0 2.18.293.914.28 1.523.668.621.386.95.761.339.363.492.539l-1.992 1.864a9 9 0 0 1-.387-.34 3.6 3.6 0 0 0-.668-.492 4.3 4.3 0 0 0-.949-.434 3.6 3.6 0 0 0-1.243-.199q-.62 0-1.078.176a2.3 2.3 0 0 0-.761.433 1.8 1.8 0 0 0-.446.586q-.14.317-.14.609 0 .433.152.774.164.328.527.621.375.28 1.02.516.656.222 1.64.421a8.3 8.3 0 0 1 1.793.575q.868.387 1.524.996.668.609 1.055 1.488.398.879.398 2.098 0 1.054-.434 1.945a4.7 4.7 0 0 1-1.195 1.559 5.5 5.5 0 0 1-1.828 1.043 6.8 6.8 0 0 1-2.297.375q-1.195 0-2.168-.293a8.2 8.2 0 0 1-1.758-.727 7.5 7.5 0 0 1-1.347-.973 10 10 0 0 1-.95-1.007m14.907-10.465v-2.977h3.023v2.977zm.093 13.031v-11.262h2.836V121zm5.215-5.766q0-1.242.41-2.308a5.7 5.7 0 0 1 1.172-1.852 5.6 5.6 0 0 1 1.805-1.254 5.8 5.8 0 0 1 2.32-.457q1.536 0 2.602.563a4.8 4.8 0 0 1 1.711 1.476q.656.914.937 2.063.293 1.148.293 2.355v.399h-8.402q0 .621.281 1.136a3.1 3.1 0 0 0 .715.868q.445.352 1.008.55.575.188 1.125.188.82 0 1.43-.152.61-.165 1.031-.364a3.9 3.9 0 0 0 1.137-.808l1.535 1.734-.399.399q-.316.315-.937.679-.61.363-1.559.645-.95.293-2.262.293-1.347 0-2.449-.457a5.7 5.7 0 0 1-1.887-1.254 5.5 5.5 0 0 1-1.207-1.934q-.41-1.137-.41-2.508m2.825-1.054h5.519q0-.434-.164-.856a2.4 2.4 0 0 0-.492-.785 2.5 2.5 0 0 0-.832-.574 2.7 2.7 0 0 0-1.149-.235 3.1 3.1 0 0 0-1.23.235q-.54.222-.902.574-.364.351-.563.785a2.1 2.1 0 0 0-.187.856m15.234 6.82v-16.008h3.023V121zm6.094 0v-16.008h2.777v5.906q.434-.48 1.266-.937.831-.457 2.121-.457 1.03 0 1.84.34.82.327 1.359.949.55.609.832 1.477.293.855.293 1.886V121h-2.836v-6.82q0-1.079-.586-1.664-.586-.586-1.523-.586-.575 0-1.079.234a2.5 2.5 0 0 0-.867.633 3 3 0 0 0-.574.949 3.3 3.3 0 0 0-.199 1.16V121zm13.218 0v-11.262h2.707l.071 1.418q.188-.234.492-.515.304-.293.715-.528.41-.245.949-.422.54-.175 1.23-.164.41 0 .727.047.328.047.668.164l-.574 2.672a2.7 2.7 0 0 0-.598-.164 3.7 3.7 0 0 0-.703-.058q-.574 0-1.102.199a2.6 2.6 0 0 0-.914.551 2.8 2.8 0 0 0-.621.867 2.8 2.8 0 0 0-.222 1.125V121zm8.637-5.766q0-1.242.41-2.308a5.7 5.7 0 0 1 1.172-1.852 5.6 5.6 0 0 1 1.805-1.254 5.8 5.8 0 0 1 2.32-.457q1.536 0 2.602.563a4.8 4.8 0 0 1 1.711 1.476q.656.914.937 2.063.293 1.148.293 2.355v.399h-8.402q0 .621.281 1.136a3.1 3.1 0 0 0 .715.868q.446.352 1.008.55.573.188 1.125.188.82 0 1.429-.152.61-.165 1.032-.364a3.9 3.9 0 0 0 1.136-.808l1.535 1.734-.398.399q-.316.315-.937.679-.61.363-1.559.645-.95.293-2.262.293-1.348 0-2.449-.457a5.7 5.7 0 0 1-1.887-1.254 5.5 5.5 0 0 1-1.207-1.934q-.41-1.137-.41-2.508m2.824-1.054h5.52q0-.434-.164-.856a2.4 2.4 0 0 0-.492-.785 2.5 2.5 0 0 0-.832-.574 2.7 2.7 0 0 0-1.149-.235 3.1 3.1 0 0 0-1.23.235q-.54.222-.903.574a2.6 2.6 0 0 0-.562.785 2.1 2.1 0 0 0-.188.856M21.281 147l6.07-16.008h3.13L36.55 147h-3.364l-1.394-4.055H25.84L24.457 147zm3.586-17.684v-2.812h2.953v2.812zm1.817 11.133h4.253l-2.12-6.222zm3.293-11.133v-2.812h2.953v2.812zM38.074 147v-11.262h2.707l.07 1.418q.189-.234.493-.515a3.6 3.6 0 0 1 .715-.528q.41-.245.949-.422.54-.175 1.23-.164.41 0 .727.047.328.047.668.164l-.574 2.672a2.7 2.7 0 0 0-.598-.164 3.7 3.7 0 0 0-.703-.058q-.574 0-1.102.199a2.6 2.6 0 0 0-.914.551 2.8 2.8 0 0 0-.62.867 2.8 2.8 0 0 0-.224 1.125V147zm8.871 0v-2.156l5.743-6.727H47.12v-2.379h9.094v2.215l-5.93 6.738h5.93V147zm10.653-8.953v-2.309h1.922v-3.644h2.824v3.644h3.023v2.309h-3.023v4.922q0 .96.328 1.476t1.043.516q.667 0 1.066-.188a6 6 0 0 0 .762-.457l1.195 1.746q-.843.691-1.664.997-.808.304-1.816.304-1.032 0-1.758-.304a2.86 2.86 0 0 1-1.16-.844 3.4 3.4 0 0 1-.633-1.336 7.4 7.4 0 0 1-.187-1.723v-5.109zm10.64-4.078v-2.977h3.024v2.977zM68.332 147v-11.262h2.836V147zm5.742 0v-11.262h2.707l.07 1.278a6 6 0 0 1 .516-.504q.304-.27.727-.492.421-.223.949-.364a4.3 4.3 0 0 1 1.195-.152q2.11 0 3.211 1.266 1.114 1.253 1.114 3.386V147h-2.836v-6.82q0-1.079-.586-1.664-.587-.586-1.524-.586-.574 0-1.078.234a2.5 2.5 0 0 0-.867.633 3 3 0 0 0-.574.949q-.2.539-.2 1.16V147zm13.407 3.434L88.992 147h-1.219v-3.34h3.434v3.293l-2.039 3.481zM98.613 147v-16.008h3.024V147zm6.094 0v-16.008h2.777v5.906q.433-.48 1.266-.937t2.121-.457q1.032 0 1.84.34.82.327 1.359.949.552.609.832 1.477a5.8 5.8 0 0 1 .293 1.886V147h-2.836v-6.82q0-1.079-.586-1.664-.585-.586-1.523-.586-.574 0-1.078.234a2.5 2.5 0 0 0-.867.633 3 3 0 0 0-.575.949 3.3 3.3 0 0 0-.199 1.16V147zm13.219 0v-11.262h2.707l.07 1.418q.188-.234.492-.515a3.6 3.6 0 0 1 .715-.528q.41-.245.949-.422a3.8 3.8 0 0 1 1.231-.164q.41 0 .726.047.329.047.668.164l-.574 2.672a2.7 2.7 0 0 0-.598-.164 3.6 3.6 0 0 0-.703-.058q-.574 0-1.101.199a2.6 2.6 0 0 0-.914.551 2.8 2.8 0 0 0-.621.867 2.75 2.75 0 0 0-.223 1.125V147zm8.636-5.766q0-1.242.411-2.308a5.7 5.7 0 0 1 1.172-1.852 5.55 5.55 0 0 1 1.804-1.254 5.8 5.8 0 0 1 2.321-.457q1.535 0 2.601.563a4.8 4.8 0 0 1 1.711 1.476q.656.915.938 2.063.292 1.148.292 2.355v.399h-8.402q0 .621.281 1.136a3.1 3.1 0 0 0 .715.868q.446.352 1.008.55.575.188 1.125.188.82 0 1.43-.152.61-.165 1.031-.364a3.9 3.9 0 0 0 1.137-.808l1.535 1.734-.399.399q-.316.316-.937.679-.61.363-1.559.645-.948.293-2.261.293-1.348 0-2.45-.457a5.7 5.7 0 0 1-1.886-1.254 5.5 5.5 0 0 1-1.207-1.934q-.411-1.137-.411-2.508m2.825-1.054h5.519q0-.434-.164-.856a2.4 2.4 0 0 0-.492-.785 2.5 2.5 0 0 0-.832-.574 2.7 2.7 0 0 0-1.148-.235q-.692 0-1.231.235-.539.222-.902.574a2.6 2.6 0 0 0-.563.785 2.1 2.1 0 0 0-.187.856m10.617 6.82v-11.262h2.707l.07 1.278q.212-.236.516-.504.304-.27.726-.492.423-.223.95-.364.527-.152 1.195-.152 2.11 0 3.211 1.266 1.113 1.253 1.113 3.386V147h-2.836v-6.82q0-1.079-.586-1.664-.585-.586-1.523-.586-.574 0-1.078.234a2.5 2.5 0 0 0-.867.633 3 3 0 0 0-.575.949 3.3 3.3 0 0 0-.199 1.16V147zm16.277 0 6.071-16.008h3.128L171.551 147h-3.363l-1.395-4.055h-5.953L159.457 147zm5.403-6.551h4.254l-2.122-6.222zm11.39 6.551v-11.262h2.707l.071 1.418q.188-.234.492-.515.304-.293.715-.528.41-.245.949-.422a3.8 3.8 0 0 1 1.23-.164q.41 0 .727.047.328.047.668.164l-.574 2.672a2.7 2.7 0 0 0-.598-.164 3.7 3.7 0 0 0-.703-.058q-.574 0-1.102.199a2.6 2.6 0 0 0-.914.551 2.8 2.8 0 0 0-.621.867 2.8 2.8 0 0 0-.223 1.125V147zm8.871 0v-2.156l5.743-6.727h-5.567v-2.379h9.094v2.215l-5.93 6.738h5.93V147zm10.653-8.953v-2.309h1.922v-3.644h2.824v3.644h3.023v2.309h-3.023v4.922q0 .96.328 1.476t1.043.516q.668 0 1.066-.188a5.7 5.7 0 0 0 .762-.457l1.195 1.746q-.843.691-1.664.997-.808.304-1.816.304-1.032 0-1.758-.304a2.85 2.85 0 0 1-1.16-.844 3.4 3.4 0 0 1-.633-1.336 7.4 7.4 0 0 1-.187-1.723v-5.109zm14.425 3.316q0-1.219.446-2.308a5.9 5.9 0 0 1 1.23-1.91 5.9 5.9 0 0 1 1.91-1.301q1.114-.481 2.461-.481 1.348 0 2.461.481 1.113.48 1.899 1.301a5.8 5.8 0 0 1 1.242 1.898q.445 1.09.445 2.32 0 1.219-.445 2.321a6.1 6.1 0 0 1-1.242 1.921 5.75 5.75 0 0 1-1.899 1.301q-1.113.481-2.461.481t-2.461-.481a5.9 5.9 0 0 1-1.91-1.301 6.2 6.2 0 0 1-1.23-1.921 6.1 6.1 0 0 1-.446-2.321m2.848 0q0 .621.188 1.242.199.622.597 1.161.399.527.996.855.598.317 1.418.317t1.418-.317q.598-.328.985-.855.398-.54.586-1.161a4 4 0 0 0 .199-1.242q0-.597-.199-1.23a3.5 3.5 0 0 0-.586-1.16 2.9 2.9 0 0 0-.996-.832q-.598-.329-1.407-.329-.82 0-1.418.329-.597.316-.996.832-.398.515-.597 1.16a4.3 4.3 0 0 0-.188 1.23m10.981.211q0-1.324.375-2.308a6.2 6.2 0 0 1 .961-1.7q.48-.573 1.054-.961a7.2 7.2 0 0 1 1.172-.632 5.4 5.4 0 0 1 2.098-.469q.55 0 .914.035.363.035.644.094.293.059.528.164l.55.211v-5.016h2.813V147h-2.742l-.071-1.102q-.21.236-.527.504a4 4 0 0 1-.726.481q-.423.21-.938.351-.516.153-1.16.153a4.5 4.5 0 0 1-1.805-.387 4.9 4.9 0 0 1-1.594-1.125 6 6 0 0 1-1.125-1.828q-.421-1.078-.421-2.473m2.847 0q0 1.442.715 2.403.726.96 2.098.961.715 0 1.218-.27.516-.282.821-.715.316-.433.457-.949.14-.516.14-.996v-3.457a2.3 2.3 0 0 0-.949-.469q-.538-.129-1.371-.129-.843 0-1.394.328a3.3 3.3 0 0 0-.961.844 3.8 3.8 0 0 0-.575 1.125 4.4 4.4 0 0 0-.199 1.324m10.512-.34q0-1.242.41-2.308a5.7 5.7 0 0 1 1.172-1.852 5.6 5.6 0 0 1 1.805-1.254 5.8 5.8 0 0 1 2.32-.457q1.535 0 2.602.563a4.8 4.8 0 0 1 1.71 1.476q.656.915.938 2.063.293 1.148.293 2.355v.399h-8.402q0 .621.281 1.136.281.504.715.868.446.352 1.007.55.574.188 1.126.188.82 0 1.429-.152.61-.165 1.031-.364a3.9 3.9 0 0 0 1.137-.808l1.535 1.734-.398.399q-.317.316-.938.679-.609.363-1.558.645-.95.293-2.262.293-1.347 0-2.449-.457a5.7 5.7 0 0 1-1.887-1.254 5.5 5.5 0 0 1-1.207-1.934q-.41-1.137-.41-2.508m2.824-1.054h5.52q0-.434-.164-.856a2.4 2.4 0 0 0-.493-.785 2.5 2.5 0 0 0-.832-.574 2.7 2.7 0 0 0-1.148-.235 3.1 3.1 0 0 0-1.23.235 2.8 2.8 0 0 0-.903.574 2.6 2.6 0 0 0-.562.785 2.1 2.1 0 0 0-.188.856m10.617 6.82v-11.262h2.707l.071 1.418q.187-.234.492-.515.304-.293.715-.528.41-.245.949-.422a3.8 3.8 0 0 1 1.23-.164q.41 0 .727.047.328.047.668.164l-.574 2.672a2.7 2.7 0 0 0-.598-.164 3.7 3.7 0 0 0-.703-.058q-.574 0-1.102.199a2.6 2.6 0 0 0-.914.551 2.8 2.8 0 0 0-.621.867 2.8 2.8 0 0 0-.222 1.125V147zm13.524-13.031v-2.977h3.023v2.977zM261.27 147v-11.262h2.835V147zm5.742 0v-11.262h2.707l.07 1.278q.212-.236.516-.504.304-.27.726-.492.422-.223.949-.364.527-.152 1.196-.152 2.109 0 3.211 1.266 1.113 1.253 1.113 3.386V147h-2.836v-6.82q0-1.079-.586-1.664-.585-.586-1.523-.586-.575 0-1.078.234a2.5 2.5 0 0 0-.868.633 3 3 0 0 0-.574.949 3.3 3.3 0 0 0-.199 1.16V147zM68.719 173v-16.008h3.023V173zm6.094 0v-16.008h2.777v5.906q.433-.48 1.266-.937.831-.457 2.12-.457 1.032 0 1.84.34.82.327 1.36.949.55.609.832 1.477a5.8 5.8 0 0 1 .293 1.886V173h-2.836v-6.82q0-1.079-.586-1.664-.585-.586-1.523-.586a2.5 2.5 0 0 0-1.079.234 2.5 2.5 0 0 0-.867.633 3 3 0 0 0-.574.949q-.2.539-.2 1.16V173zm13.218 0v-11.262h2.707l.07 1.418q.189-.234.493-.515a3.6 3.6 0 0 1 .715-.528q.41-.245.949-.422.54-.175 1.23-.164.41 0 .727.047.328.047.668.164l-.574 2.672a2.7 2.7 0 0 0-.598-.164 3.7 3.7 0 0 0-.703-.058q-.574 0-1.102.199a2.6 2.6 0 0 0-.914.551 2.8 2.8 0 0 0-.62.867 2.8 2.8 0 0 0-.223 1.125V173zm8.637-5.766q0-1.242.41-2.308a5.7 5.7 0 0 1 1.172-1.852 5.6 5.6 0 0 1 1.805-1.254 5.8 5.8 0 0 1 2.32-.457q1.535 0 2.602.563a4.8 4.8 0 0 1 1.711 1.476q.656.915.937 2.063.293 1.148.293 2.355v.399h-8.402q0 .621.28 1.136.282.504.716.868.446.352 1.008.55.573.188 1.125.188.82 0 1.429-.152.61-.165 1.031-.364a3.9 3.9 0 0 0 1.137-.808l1.535 1.734-.398.399q-.317.316-.938.679-.609.363-1.558.645-.95.293-2.262.293-1.348 0-2.449-.457a5.7 5.7 0 0 1-1.887-1.254 5.5 5.5 0 0 1-1.207-1.934q-.41-1.137-.41-2.508m2.824-1.054h5.52q0-.434-.164-.856a2.4 2.4 0 0 0-.493-.785 2.5 2.5 0 0 0-.832-.574 2.7 2.7 0 0 0-1.148-.235 3.1 3.1 0 0 0-1.23.235 2.8 2.8 0 0 0-.903.574q-.364.351-.562.785a2.1 2.1 0 0 0-.188.856M110.11 173v-11.262h2.707l.071 1.418q.188-.234.492-.515.304-.293.715-.528.41-.245.949-.422a3.8 3.8 0 0 1 1.23-.164q.41 0 .727.047.328.047.668.164l-.574 2.672a2.7 2.7 0 0 0-.598-.164 3.7 3.7 0 0 0-.703-.058q-.574 0-1.102.199a2.6 2.6 0 0 0-.914.551 2.8 2.8 0 0 0-.621.867 2.8 2.8 0 0 0-.222 1.125V173zm12.223 0 6.07-16.008h3.129L137.602 173h-3.364l-1.394-4.055h-5.953L125.508 173zm5.402-6.551h4.254l-2.121-6.222zm11.391 11.356v-16.067h2.73l.071 1.278q.21-.236.539-.504.328-.27.773-.481.446-.21 1.008-.351a4.8 4.8 0 0 1 1.266-.153q1.3 0 2.238.504a4.65 4.65 0 0 1 1.57 1.336q.621.82.938 1.887.316 1.055.316 2.18 0 1.323-.386 2.261a6.6 6.6 0 0 1-.961 1.629q-.961 1.149-2.098 1.606a6.2 6.2 0 0 1-2.344.457q-.55 0-.949-.047a4.5 4.5 0 0 1-.727-.141 6 6 0 0 1-.597-.187q-.27-.106-.586-.223v5.016zm2.801-7.571q.843.692 2.543.704.772 0 1.371-.293a3.32 3.32 0 0 0 1.652-1.911q.223-.633.223-1.3a5.2 5.2 0 0 0-.164-1.336 3 3 0 0 0-.504-1.102 2.4 2.4 0 0 0-.891-.738q-.55-.281-1.371-.281-.645 0-1.172.281-.527.27-.902.703t-.586.949a2.8 2.8 0 0 0-.199.996zm10.383-2.871q0-1.219.445-2.308a5.9 5.9 0 0 1 1.23-1.91 5.9 5.9 0 0 1 1.911-1.301q1.113-.481 2.46-.481 1.348 0 2.461.481 1.114.48 1.899 1.301a5.8 5.8 0 0 1 1.242 1.898q.445 1.09.445 2.32 0 1.219-.445 2.321a6.1 6.1 0 0 1-1.242 1.921 5.7 5.7 0 0 1-1.899 1.301q-1.113.481-2.461.481t-2.46-.481a5.9 5.9 0 0 1-1.911-1.301 6.134 6.134 0 0 1-1.675-4.242m2.847 0q0 .621.188 1.242.2.622.597 1.161.399.527.997.855.597.317 1.417.317t1.418-.317q.598-.328.985-.855.398-.54.586-1.161a4 4 0 0 0 .199-1.242q0-.597-.199-1.23a3.5 3.5 0 0 0-.586-1.16 2.9 2.9 0 0 0-.996-.832q-.598-.329-1.407-.329-.82 0-1.417.329a3 3 0 0 0-.997.832q-.398.515-.597 1.16a4.3 4.3 0 0 0-.188 1.23m10.547-3.316v-2.309h1.922v-3.644h2.824v3.644h3.024v2.309h-3.024v4.922q0 .96.328 1.476.329.516 1.043.516.668 0 1.067-.188.398-.198.761-.457l1.196 1.746q-.844.691-1.664.997-.809.304-1.817.304-1.03 0-1.758-.304a2.86 2.86 0 0 1-1.16-.844 3.4 3.4 0 0 1-.633-1.336 7.5 7.5 0 0 1-.187-1.723v-5.109zM176.32 173v-16.008h2.778v5.906q.434-.48 1.265-.937.832-.457 2.121-.457 1.032 0 1.84.34.82.327 1.36.949.55.609.832 1.477.293.855.293 1.886V173h-2.836v-6.82q0-1.079-.586-1.664-.587-.586-1.524-.586-.574 0-1.078.234a2.5 2.5 0 0 0-.867.633 3 3 0 0 0-.574.949 3.3 3.3 0 0 0-.199 1.16V173zm12.692-5.766q0-1.242.41-2.308a5.7 5.7 0 0 1 1.172-1.852 5.6 5.6 0 0 1 1.804-1.254 5.8 5.8 0 0 1 2.321-.457q1.535 0 2.601.563a4.8 4.8 0 0 1 1.711 1.476q.656.915.938 2.063.293 1.148.293 2.355v.399h-8.403q0 .621.282 1.136.28.504.714.868.445.352 1.008.55.575.188 1.125.188.82 0 1.43-.152.61-.165 1.031-.364a3.9 3.9 0 0 0 1.137-.808l1.535 1.734-.398.399q-.317.316-.938.679-.61.363-1.558.645-.95.293-2.262.293-1.348 0-2.449-.457a5.7 5.7 0 0 1-1.887-1.254 5.5 5.5 0 0 1-1.207-1.934q-.41-1.137-.41-2.508m2.824-1.054h5.519q0-.434-.164-.856a2.4 2.4 0 0 0-.492-.785 2.5 2.5 0 0 0-.832-.574 2.7 2.7 0 0 0-1.148-.235q-.691 0-1.231.235-.539.222-.902.574a2.6 2.6 0 0 0-.563.785 2.1 2.1 0 0 0-.187.856m10.617 6.82v-16.008h2.824v8.731l4.067-3.985h3.328l-4.219 4.16 4.699 7.102h-3.386l-3.258-5.18-1.231 1.196V173zm11.754-5.766q0-1.242.41-2.308a5.7 5.7 0 0 1 1.172-1.852 5.6 5.6 0 0 1 1.805-1.254 5.8 5.8 0 0 1 2.32-.457q1.536 0 2.602.563a4.8 4.8 0 0 1 1.711 1.476q.656.915.937 2.063.293 1.148.293 2.355v.399h-8.402q0 .621.281 1.136.281.504.715.868.446.352 1.008.55.573.188 1.125.188.82 0 1.429-.152.61-.165 1.032-.364a3.9 3.9 0 0 0 1.136-.808l1.535 1.734-.398.399q-.316.316-.938.679-.609.363-1.558.645-.95.293-2.262.293-1.347 0-2.449-.457a5.7 5.7 0 0 1-1.887-1.254 5.5 5.5 0 0 1-1.207-1.934q-.41-1.137-.41-2.508m2.824-1.054h5.52q0-.434-.164-.856a2.4 2.4 0 0 0-.492-.785 2.5 2.5 0 0 0-.833-.574 2.7 2.7 0 0 0-1.148-.235 3.1 3.1 0 0 0-1.23.235 2.8 2.8 0 0 0-.903.574 2.6 2.6 0 0 0-.562.785 2.1 2.1 0 0 0-.188.856m10.852 6.82v-3.316h3.433V173z"/><path fill="#fff" d="m154.078 233 3.035-8.004h1.565l3.035 8.004h-1.682l-.697-2.027h-2.977l-.691 2.027zm2.701-3.275h2.127l-1.06-3.112zm5.274-3.399v-1.33h6.937v1.33h-2.713V233h-1.511v-6.674zm7.728.287q.147-.24.358-.48.216-.246.527-.451a2.8 2.8 0 0 1 .732-.328q.423-.129.961-.129.65 0 1.12.175.468.17.767.463.299.287.44.657.146.363.146.744 0 .41-.135.756-.129.345-.345.65a4 4 0 0 1-.493.562q-.275.264-.562.504-.346.288-.656.528a6 6 0 0 0-.534.468 2.3 2.3 0 0 0-.363.463q-.129.235-.129.522h3.264V233h-4.858v-.949q0-.516.17-.932.177-.422.452-.773a5 5 0 0 1 .615-.657q.333-.298.674-.591.334-.288.591-.487.258-.204.44-.392t.269-.375q.088-.194.088-.446 0-.157-.052-.322a.7.7 0 0 0-.182-.293.9.9 0 0 0-.328-.211 1.3 1.3 0 0 0-.516-.088q-.274 0-.498.088a1.5 1.5 0 0 0-.398.217 1.7 1.7 0 0 0-.299.287 3 3 0 0 0-.211.293zm6.504 4.934v-1.19l3.299-4.916h1.418v4.905h.779v1.201h-.779V233h-1.359v-1.453zm1.365-1.201h1.993v-2.912zm5.004-1.225q0-.879.188-1.594.187-.72.556-1.23.375-.51.932-.791t1.289-.281 1.283.281q.551.28.92.791.375.51.563 1.23.187.721.187 1.594 0 .903-.187 1.652-.188.75-.563 1.284a2.7 2.7 0 0 1-.926.838q-.556.298-1.289.298t-1.283-.298a2.8 2.8 0 0 1-.926-.838 3.9 3.9 0 0 1-.556-1.284 6.8 6.8 0 0 1-.188-1.652m1.453 0q0 .586.094 1.096.1.504.287.879.193.369.475.586.287.216.656.216t.651-.216q.287-.217.468-.586.188-.375.282-.879.099-.504.099-1.096 0-.563-.099-1.043a2.7 2.7 0 0 0-.288-.82 1.5 1.5 0 0 0-.468-.533 1.13 1.13 0 0 0-.657-.194q-.369 0-.656.194a1.5 1.5 0 0 0-.469.533q-.181.34-.281.82-.094.48-.094 1.043m5.268-1.26q0-.526.17-1.002.175-.48.51-.838.34-.363.826-.58a2.7 2.7 0 0 1 1.119-.216q.598 0 1.107.216.516.218.885.674.376.452.586 1.155.211.702.211 1.675 0 .926-.193 1.7a4 4 0 0 1-.592 1.341 2.8 2.8 0 0 1-.996.891q-.598.316-1.424.316-.334 0-.65-.058a5 5 0 0 1-1.049-.287 3 3 0 0 1-.328-.159l.574-1.142q.205.117.445.205.205.07.475.135.269.058.556.058.434 0 .75-.175a1.7 1.7 0 0 0 .539-.469q.223-.294.334-.668.119-.381.129-.791a3 3 0 0 1-.574.34q-.374.175-1.049.175-.527 0-.961-.193a2.4 2.4 0 0 1-.744-.539 2.6 2.6 0 0 1-.486-.791 2.8 2.8 0 0 1-.17-.973m1.33.018q0 .526.328.873.335.346.897.346.585 0 .902-.141.323-.14.539-.287a4.3 4.3 0 0 0-.111-1.061q-.106-.427-.293-.679a1.03 1.03 0 0 0-.434-.358 1.3 1.3 0 0 0-.533-.111q-.563 0-.932.387-.363.38-.363 1.031m5.233-1.266q.146-.24.357-.48.216-.246.527-.451.316-.205.733-.328.421-.129.961-.129.65 0 1.119.175.468.17.767.463.3.287.44.657.146.363.146.744 0 .41-.134.756-.13.345-.346.65a4 4 0 0 1-.492.562q-.275.264-.563.504-.345.288-.656.528a6 6 0 0 0-.533.468 2.3 2.3 0 0 0-.364.463q-.129.235-.129.522h3.264V233h-4.857v-.949q0-.516.17-.932.175-.422.451-.773a5 5 0 0 1 .615-.657q.334-.298.674-.591.334-.288.592-.487.258-.204.439-.392a1.4 1.4 0 0 0 .27-.375 1.08 1.08 0 0 0 .035-.768.7.7 0 0 0-.182-.293.9.9 0 0 0-.328-.211 1.3 1.3 0 0 0-.516-.088q-.274 0-.498.088a1.5 1.5 0 0 0-.398.217 1.8 1.8 0 0 0-.299.287 3 3 0 0 0-.211.293zm6.275 5.725.814-.996q.322.287.715.463.393.175.897.175.65 0 1.031-.351.381-.357.381-.932 0-.252-.065-.474a.9.9 0 0 0-.222-.381 1 1 0 0 0-.405-.258 1.7 1.7 0 0 0-.615-.1q-.17 0-.351.036a7 7 0 0 0-.323.07l-.416-.668 1.928-2.174h-2.83v-1.295h4.523v1.078L205.6 228.5q1.007.117 1.476.721.475.597.475 1.488 0 .586-.223 1.055a2.2 2.2 0 0 1-.615.797 2.8 2.8 0 0 1-.926.486 3.7 3.7 0 0 1-1.137.17q-.814 0-1.418-.246a3.4 3.4 0 0 1-1.019-.633m6.961-2.842q0-.937.211-1.723.216-.784.638-1.353a2.9 2.9 0 0 1 1.043-.885q.627-.31 1.454-.31.333 0 .621.052.293.053.539.135.246.077.427.164.188.083.311.153l-.615 1.113a2.8 2.8 0 0 0-.768-.305 2 2 0 0 0-.527-.064q-.434 0-.779.187-.346.182-.598.492a2.3 2.3 0 0 0-.393.692 2.3 2.3 0 0 0-.14.791q.263-.159.632-.346.375-.187.956-.187.515 0 .949.169.44.17.744.487.31.317.48.773.177.458.176 1.043 0 .528-.17 1.008-.163.48-.492.844a2.4 2.4 0 0 1-.809.574 2.7 2.7 0 0 1-1.107.217q-.597 0-1.113-.217a2.3 2.3 0 0 1-.885-.674q-.369-.457-.58-1.154-.205-.703-.205-1.676m1.412.275q0 .64.105 1.067.112.422.299.674.188.252.44.363.252.105.527.105.563 0 .902-.398.346-.405.346-1.055 0-.55-.322-.879-.316-.333-.832-.334-.54 0-.897.159a3.6 3.6 0 0 0-.568.298m4.887 1.108q0-.732.381-1.26a2.37 2.37 0 0 1 1.019-.808 2.1 2.1 0 0 1-.656-.639 1.65 1.65 0 0 1-.287-.943q0-.446.17-.815.175-.375.486-.639.31-.263.75-.404.44-.147.978-.146.587 0 1.032.146.445.141.744.399.298.256.457.621.158.357.158.779 0 .563-.305.978a2.05 2.05 0 0 1-.679.616q.685.287 1.06.82t.375 1.266q0 .386-.158.802a2.1 2.1 0 0 1-.498.756q-.34.34-.879.563t-1.307.222q-.779 0-1.318-.216a2.7 2.7 0 0 1-.885-.551 2.1 2.1 0 0 1-.492-.75 2.4 2.4 0 0 1-.146-.797m1.435-.041q0 .322.123.545.13.222.334.369t.457.211.492.064q.241 0 .493-.064t.457-.211.328-.363q.129-.223.129-.551a1 1 0 0 0-.123-.475 1.4 1.4 0 0 0-.317-.404 2 2 0 0 0-.457-.299 2.2 2.2 0 0 0-.533-.187 2.1 2.1 0 0 0-.527.187 1.8 1.8 0 0 0-.44.299 1.5 1.5 0 0 0-.304.404 1.04 1.04 0 0 0-.112.475m.352-3.609q0 .31.287.626.287.317.767.452.482-.135.768-.452.287-.315.287-.662a.84.84 0 0 0-.293-.656q-.292-.258-.762-.258-.444 0-.75.264a.86.86 0 0 0-.304.686m4.57 5.109.815-.996q.322.287.714.463.393.175.897.175.65 0 1.031-.351.381-.357.381-.932 0-.252-.064-.474a.9.9 0 0 0-.223-.381 1 1 0 0 0-.404-.258 1.7 1.7 0 0 0-.616-.1q-.17 0-.351.036a7 7 0 0 0-.322.07l-.417-.668 1.928-2.174h-2.83v-1.295h4.524v1.078l-1.676 1.969q1.008.117 1.476.721.475.597.475 1.488 0 .586-.223 1.055a2.2 2.2 0 0 1-.615.797 2.8 2.8 0 0 1-.926.486q-.527.17-1.136.17-.815 0-1.418-.246a3.4 3.4 0 0 1-1.02-.633m6.803-5.725q.146-.24.357-.48a2.6 2.6 0 0 1 1.26-.779q.422-.129.961-.129.651 0 1.119.175.469.17.768.463.298.287.439.657.147.363.147.744 0 .41-.135.756-.129.345-.346.65a4 4 0 0 1-.492.562q-.276.264-.563.504-.345.288-.656.528a6 6 0 0 0-.533.468 2.3 2.3 0 0 0-.363.463q-.129.235-.129.522h3.263V233h-4.857v-.949q0-.516.17-.932.176-.422.451-.773.282-.358.615-.657.335-.298.674-.591.334-.288.592-.487.258-.204.439-.392.182-.188.27-.375.088-.194.088-.446 0-.157-.053-.322a.7.7 0 0 0-.181-.293.9.9 0 0 0-.329-.211 1.3 1.3 0 0 0-.515-.088q-.276 0-.498.088a1.5 1.5 0 0 0-.399.217 1.8 1.8 0 0 0-.299.287 3 3 0 0 0-.21.293zm6.299 6.58 3.193-8.414h1.365l-3.152 8.414zm5.144-4.072q0-.879.188-1.594.187-.72.556-1.23.375-.51.932-.791t1.289-.281 1.283.281q.55.28.92.791.375.51.563 1.23.187.721.187 1.594 0 .903-.187 1.652-.188.75-.563 1.284a2.7 2.7 0 0 1-.926.838q-.556.298-1.289.298t-1.283-.298a2.8 2.8 0 0 1-.926-.838 3.9 3.9 0 0 1-.556-1.284 6.8 6.8 0 0 1-.188-1.652m1.453 0q0 .586.094 1.096.1.504.287.879.193.369.475.586.287.216.656.216t.65-.216q.288-.217.469-.586.188-.375.281-.879.1-.504.1-1.096 0-.563-.1-1.043a2.7 2.7 0 0 0-.287-.82 1.5 1.5 0 0 0-.468-.533 1.13 1.13 0 0 0-.657-.194q-.37 0-.656.194a1.5 1.5 0 0 0-.469.533 3 3 0 0 0-.281.82q-.094.48-.094 1.043m5.268-1.26q0-.526.17-1.002.175-.48.51-.838.34-.363.826-.58a2.7 2.7 0 0 1 1.119-.216q.597 0 1.107.216.516.218.885.674.375.452.586 1.155.211.702.211 1.675 0 .926-.193 1.7a4 4 0 0 1-.592 1.341 2.8 2.8 0 0 1-.996.891q-.598.316-1.424.316-.335 0-.651-.058a5 5 0 0 1-.574-.129 6 6 0 0 1-.474-.158 3 3 0 0 1-.328-.159l.574-1.142q.204.117.445.205.205.07.475.135.269.058.556.058.433 0 .75-.175a1.7 1.7 0 0 0 .539-.469q.223-.294.334-.668.117-.381.129-.791a3 3 0 0 1-.574.34q-.375.175-1.049.175-.527 0-.961-.193a2.4 2.4 0 0 1-.744-.539 2.6 2.6 0 0 1-.486-.791 2.8 2.8 0 0 1-.17-.973m1.33.018q0 .526.328.873.335.346.897.346.585 0 .902-.141a3.4 3.4 0 0 0 .539-.287 4.3 4.3 0 0 0-.111-1.061q-.106-.427-.293-.679a1.03 1.03 0 0 0-.434-.358 1.3 1.3 0 0 0-.533-.111q-.563 0-.932.387-.363.38-.363 1.031m4.717 5.9h6v.662h-6zm6.515-7.166q.147-.24.358-.48.216-.246.527-.451.316-.205.733-.328.421-.129.961-.129.65 0 1.119.175.468.17.767.463.299.287.44.657.146.363.146.744 0 .41-.135.756-.129.345-.345.65a4 4 0 0 1-.492.562q-.276.264-.563.504-.345.288-.656.528a6 6 0 0 0-.533.468 2.3 2.3 0 0 0-.364.463q-.129.235-.129.522h3.264V233H259.6v-.949q0-.516.17-.932.175-.422.451-.773a5 5 0 0 1 .615-.657q.334-.298.674-.591.333-.288.592-.487a5 5 0 0 0 .439-.392 1.4 1.4 0 0 0 .27-.375q.087-.194.087-.446 0-.157-.052-.322a.7.7 0 0 0-.182-.293.9.9 0 0 0-.328-.211 1.3 1.3 0 0 0-.516-.088q-.274 0-.498.088a1.5 1.5 0 0 0-.398.217 1.8 1.8 0 0 0-.299.287 3 3 0 0 0-.211.293zm6.334 2.508q0-.879.188-1.594.187-.72.557-1.23.375-.51.931-.791.557-.281 1.289-.281t1.283.281q.551.28.92.791.375.51.563 1.23.187.721.187 1.594 0 .903-.187 1.652-.188.75-.563 1.284a2.7 2.7 0 0 1-.925.838q-.557.298-1.29.298-.732 0-1.283-.298a2.8 2.8 0 0 1-.925-.838 3.9 3.9 0 0 1-.557-1.284 6.8 6.8 0 0 1-.188-1.652m1.453 0q0 .586.094 1.096.1.504.287.879.193.369.475.586.287.216.656.216t.651-.216q.286-.217.468-.586.187-.375.282-.879.099-.504.099-1.096 0-.563-.099-1.043a2.7 2.7 0 0 0-.288-.82 1.5 1.5 0 0 0-.468-.533 1.13 1.13 0 0 0-.657-.194q-.368 0-.656.194a1.5 1.5 0 0 0-.469.533q-.181.34-.281.82-.093.48-.094 1.043m5.292-2.508q.145-.24.357-.48.216-.246.527-.451.316-.205.733-.328.421-.129.961-.129.65 0 1.119.175.468.17.767.463.3.287.44.657.146.363.146.744 0 .41-.134.756-.13.345-.346.65a4 4 0 0 1-.492.562q-.275.264-.563.504-.345.288-.656.528a6 6 0 0 0-.533.468 2.3 2.3 0 0 0-.364.463q-.129.235-.129.522h3.264V233h-4.857v-.949q0-.516.17-.932.175-.422.451-.773a5 5 0 0 1 .615-.657q.334-.298.674-.591.334-.288.592-.487.258-.204.439-.392a1.4 1.4 0 0 0 .27-.375 1.08 1.08 0 0 0 .035-.768.7.7 0 0 0-.182-.293.9.9 0 0 0-.328-.211 1.3 1.3 0 0 0-.516-.088q-.274 0-.498.088a1.5 1.5 0 0 0-.398.217 1.8 1.8 0 0 0-.299.287 3 3 0 0 0-.211.293zm6.503 4.934v-1.19l3.299-4.916h1.418v4.905h.78v1.201h-.78V233h-1.359v-1.453zm1.366-1.201h1.992v-2.912z"/></svg>