<svg xmlns="http://www.w3.org/2000/svg" fill="none" viewBox="0 0 158 82"><path fill="#fff" d="m.588 16.188 2.475-2.27q.341.396.792.834.465.423 1.04.807a6.5 6.5 0 0 0 1.285.629 4.9 4.9 0 0 0 1.613.246q1.655 0 2.447-.752.793-.753.793-1.819 0-.588-.218-1.053-.22-.465-.752-.806-.533-.356-1.395-.629a17 17 0 0 0-2.105-.533q-1.285-.246-2.229-.78a5.9 5.9 0 0 1-1.559-1.271 5.1 5.1 0 0 1-.93-1.6q-.3-.888-.3-1.818 0-1.065.383-2.023A4.7 4.7 0 0 1 3.13 1.64Q3.95.903 5.168.452 6.385.001 8.039 0q1.49 0 2.543.342 1.066.328 1.777.78.725.45 1.108.888.396.423.574.629l-2.324 2.174a11 11 0 0 1-.451-.397q-.315-.3-.78-.574-.45-.287-1.107-.506a4.2 4.2 0 0 0-1.45-.232q-.724 0-1.257.205a2.7 2.7 0 0 0-.889.505q-.341.301-.52.684-.163.369-.163.711 0 .506.177.902.192.384.616.725.437.329 1.189.601.765.26 1.914.493a9.7 9.7 0 0 1 2.092.67q1.011.45 1.777 1.162.78.711 1.23 1.736.465 1.026.465 2.447 0 1.23-.505 2.27a5.5 5.5 0 0 1-1.395 1.818q-.888.78-2.133 1.217-1.23.438-2.68.438-1.394 0-2.529-.342a9.5 9.5 0 0 1-2.05-.848 8.8 8.8 0 0 1-1.573-1.135 12 12 0 0 1-1.107-1.175m17.39-12.21V.507h3.528v3.473zm.11 15.204V6.043h3.308v13.139zm6.084-6.727q0-1.45.478-2.693.493-1.245 1.368-2.16a6.5 6.5 0 0 1 2.105-1.463q1.23-.534 2.707-.534 1.791 0 3.035.657 1.245.656 1.996 1.722.765 1.066 1.094 2.407.342 1.34.342 2.748v.465h-9.803q0 .725.328 1.326.328.588.834 1.011.52.41 1.176.643.67.219 1.313.219.957 0 1.668-.178a7.3 7.3 0 0 0 1.203-.424 4.6 4.6 0 0 0 1.326-.943l1.79 2.023-.464.465q-.369.369-1.094.793-.711.424-1.818.752-1.107.342-2.639.342-1.572 0-2.857-.533a6.6 6.6 0 0 1-2.201-1.463 6.4 6.4 0 0 1-1.409-2.256q-.478-1.326-.478-2.926m3.295-1.23h6.44q0-.507-.192-.998a2.8 2.8 0 0 0-.574-.916 2.9 2.9 0 0 0-.971-.67 3.14 3.14 0 0 0-1.34-.274q-.807 0-1.435.274a3.3 3.3 0 0 0-1.053.67 3 3 0 0 0-.656.916q-.22.506-.22.998m17.445 7.957V.506h3.24v6.89q.507-.56 1.477-1.093.97-.534 2.474-.533 1.204 0 2.147.396a4.05 4.05 0 0 1 1.586 1.107q.642.712.97 1.723.343.999.342 2.201v7.985H53.84v-7.957q0-1.258-.684-1.942T51.38 8.6q-.67 0-1.258.273-.588.26-1.012.738-.423.466-.67 1.108-.232.629-.232 1.353v7.11zm15.367-5.155V6.043h3.295V14q0 1.257.684 1.955.698.684 1.79.684.67 0 1.259-.26.588-.273.998-.752.423-.48.656-1.107.246-.629.246-1.354V6.043h3.309v13.139h-3.172l-.082-1.49q-.247.273-.615.587-.37.315-.848.588-.465.26-1.08.424-.615.165-1.408.164-2.462 0-3.747-1.463-1.285-1.476-1.285-3.965m14.834 3.555 1.983-2.147q.615.615 1.545 1.026.942.396 2.146.396 1.066 0 1.71-.273.641-.287.642-.93 0-.272-.11-.506-.11-.246-.478-.464-.356-.233-.998-.452-.643-.231-1.737-.478-.67-.165-1.408-.451a5.7 5.7 0 0 1-1.353-.766 4.3 4.3 0 0 1-1.04-1.176q-.396-.697-.396-1.64 0-.985.465-1.75.479-.78 1.244-1.285a6.2 6.2 0 0 1 1.736-.793 6.9 6.9 0 0 1 1.956-.288q1.736 0 2.953.37a7 7 0 0 1 2.2 1.08l-1.708 2.324q-.534-.396-1.408-.711-.862-.328-2.038-.328t-1.64.355-.465.848q0 .616.766.97.78.357 2.406.739a10 10 0 0 1 1.805.56q.792.341 1.367.848.574.506.875 1.19.314.683.314 1.64t-.45 1.723a3.9 3.9 0 0 1-1.218 1.299 5.9 5.9 0 0 1-1.79.82q-1.026.3-2.175.3-1.845 0-3.335-.519-1.477-.52-2.366-1.531m12.893-8.846V6.043h2.242V1.791h3.295v4.252h3.527v2.693h-3.527v5.743q0 1.12.383 1.722.382.602 1.217.602.78 0 1.244-.219.465-.233.888-.533l1.395 2.037q-.984.807-1.942 1.162-.942.355-2.119.355-1.203 0-2.05-.355a3.3 3.3 0 0 1-1.354-.984 4 4 0 0 1-.738-1.559 8.7 8.7 0 0 1-.219-2.01v-5.96zm11.771 3.72q0-1.45.479-2.694.492-1.245 1.367-2.16a6.5 6.5 0 0 1 2.106-1.463q1.23-.534 2.707-.534 1.79 0 3.035.657 1.243.656 1.996 1.722.765 1.066 1.094 2.407.34 1.34.341 2.748v.465H103.1q0 .725.328 1.326.327.588.834 1.011.519.41 1.176.643a4.2 4.2 0 0 0 1.312.219q.957 0 1.668-.178a7.3 7.3 0 0 0 1.203-.424 4.6 4.6 0 0 0 1.326-.943l1.791 2.023-.465.465q-.369.369-1.093.793-.71.424-1.819.752-1.107.342-2.638.342-1.573 0-2.858-.533a6.6 6.6 0 0 1-2.201-1.463 6.4 6.4 0 0 1-1.408-2.256q-.48-1.326-.479-2.926m3.295-1.231h6.44q0-.507-.192-.998a2.8 2.8 0 0 0-.574-.916 2.9 2.9 0 0 0-.971-.67 3.1 3.1 0 0 0-1.339-.274q-.807 0-1.436.274a3.3 3.3 0 0 0-1.053.67 3 3 0 0 0-.656.916q-.219.506-.219.998m12.387 7.957V6.043h3.158l.082 1.49q.246-.273.602-.588.355-.314.847-.574a5.3 5.3 0 0 1 1.108-.424q.615-.177 1.394-.177 2.462 0 3.746 1.476 1.299 1.463 1.299 3.951v7.985h-3.308v-7.957q0-1.258-.684-1.942t-1.777-.683q-.67 0-1.258.273-.588.26-1.012.738a3.5 3.5 0 0 0-.67 1.108q-.232.629-.232 1.353v7.11zm15.695 0v-3.87h4.006v3.87zM0 31.506h3.87l3.048 13.972 3.623-13.439h3.186l3.636 13.44 3.022-13.973h3.705l-4.908 18.676H15.49l-3.472-12.346L8.49 50.182H4.854zm26.018 3.472v-3.472h3.527v3.472zm.109 15.204V37.043h3.309v13.139zm6.7 0V37.043h3.157l.082 1.654q.22-.274.575-.601.355-.342.834-.615a5.4 5.4 0 0 1 1.107-.493q.63-.204 1.436-.191.478 0 .847.055.383.054.78.191l-.67 3.117a3.2 3.2 0 0 0-.698-.191 4.2 4.2 0 0 0-.82-.069q-.67 0-1.285.233-.615.219-1.066.642t-.725 1.012q-.26.588-.26 1.313v7.082zm15.75 0V31.506h3.294v18.676zm5.946-6.577q0-1.42.52-2.693a6.8 6.8 0 0 1 1.435-2.228 6.9 6.9 0 0 1 2.229-1.518q1.299-.56 2.871-.56t2.871.56 2.215 1.518a6.8 6.8 0 0 1 1.45 2.214q.519 1.272.519 2.707 0 1.422-.52 2.708a7.1 7.1 0 0 1-1.449 2.242 6.7 6.7 0 0 1-2.215 1.517q-1.3.56-2.87.56-1.574 0-2.872-.56a6.9 6.9 0 0 1-2.229-1.517 7.2 7.2 0 0 1-1.435-2.242 7.2 7.2 0 0 1-.52-2.708m2.885-9.023v-3.049h3.227v3.049zm.438 9.023q0 .726.219 1.45.231.724.697 1.353.465.615 1.162.998.697.37 1.654.37t1.654-.37a3.5 3.5 0 0 0 1.149-.998q.465-.63.683-1.353.233-.724.233-1.45a4.8 4.8 0 0 0-.233-1.435 4 4 0 0 0-.683-1.354 3.4 3.4 0 0 0-1.162-.97q-.698-.383-1.64-.383-.958 0-1.655.383-.697.37-1.162.97a4.2 4.2 0 0 0-.697 1.354 5 5 0 0 0-.22 1.435m4.744-9.023v-3.049h3.213v3.049zm8.039 14 1.982-2.147q.615.615 1.545 1.026.944.396 2.147.396 1.065 0 1.709-.273.642-.286.642-.93 0-.273-.11-.506-.108-.246-.478-.464-.356-.233-.998-.452-.642-.231-1.736-.478-.67-.165-1.408-.451a5.7 5.7 0 0 1-1.354-.766 4.3 4.3 0 0 1-1.039-1.176q-.396-.696-.396-1.64 0-.985.465-1.75.478-.78 1.244-1.285a6.2 6.2 0 0 1 1.736-.793 6.9 6.9 0 0 1 1.955-.288q1.737 0 2.953.37a7 7 0 0 1 2.201 1.08l-1.708 2.324q-.534-.396-1.409-.711-.861-.328-2.037-.328t-1.64.355-.465.848q0 .615.765.97.78.357 2.407.739a10 10 0 0 1 1.804.56q.794.341 1.367.848.575.506.875 1.19.315.683.315 1.64t-.451 1.723q-.438.765-1.217 1.299a5.9 5.9 0 0 1-1.791.82q-1.025.3-2.174.3-1.845 0-3.336-.519-1.477-.519-2.365-1.531m13.398-5.127q0-1.45.479-2.693a6.6 6.6 0 0 1 1.367-2.16 6.5 6.5 0 0 1 2.105-1.463q1.23-.534 2.708-.534 1.79 0 3.035.657 1.245.655 1.996 1.722.765 1.066 1.094 2.407.34 1.34.341 2.748v.464H87.35q0 .726.328 1.327.328.588.834 1.011.52.41 1.175.643.67.219 1.313.219.957 0 1.668-.178a7.3 7.3 0 0 0 1.203-.424 4.6 4.6 0 0 0 1.326-.943l1.791 2.023-.465.465q-.369.369-1.093.793-.71.424-1.819.752-1.107.342-2.638.342-1.573 0-2.858-.533a6.6 6.6 0 0 1-2.2-1.463 6.4 6.4 0 0 1-1.41-2.256q-.477-1.326-.478-2.926m3.295-1.23h6.44q0-.506-.192-.998a2.8 2.8 0 0 0-.574-.916 2.9 2.9 0 0 0-.97-.67 3.14 3.14 0 0 0-1.34-.274q-.807 0-1.436.274a3.3 3.3 0 0 0-1.053.67 3 3 0 0 0-.656.916q-.219.506-.219.998m12.387 7.957V37.043h3.158l.082 1.49q.246-.273.602-.588.355-.314.847-.574a5.3 5.3 0 0 1 1.108-.424q.615-.177 1.394-.178 2.462 0 3.746 1.477 1.299 1.463 1.299 3.951v7.985h-3.308v-7.957q0-1.258-.684-1.942t-1.777-.683q-.67 0-1.258.273-.588.26-1.012.738a3.5 3.5 0 0 0-.67 1.108q-.232.629-.232 1.353v7.11zm15.695 0v-3.87h4.006v3.87zm-113.722 31V62.506h3.527v7.506h9.27v-7.506h3.527v18.676h-3.527v-8.04h-9.27v8.04zm19.851-5.155v-7.984h3.295V76q0 1.257.684 1.955.698.684 1.79.684.67 0 1.259-.26.587-.273.998-.752.422-.479.656-1.108.246-.629.246-1.353v-7.123h3.309v13.139h-3.172l-.082-1.49q-.247.273-.616.587-.369.315-.847.588-.465.26-1.08.424-.616.165-1.408.164-2.461 0-3.747-1.463-1.285-1.476-1.285-3.965m14.834 3.555 1.983-2.146q.615.614 1.544 1.025.944.396 2.147.396 1.066 0 1.709-.273.642-.287.643-.93 0-.273-.11-.506-.11-.246-.478-.464-.356-.233-.998-.452-.644-.231-1.737-.478-.67-.165-1.408-.451a5.7 5.7 0 0 1-1.353-.766 4.3 4.3 0 0 1-1.04-1.176q-.396-.697-.396-1.64 0-.985.465-1.75.479-.78 1.244-1.285a6.2 6.2 0 0 1 1.736-.793 6.9 6.9 0 0 1 1.955-.287q1.736 0 2.954.369a7 7 0 0 1 2.2 1.08l-1.708 2.324q-.534-.396-1.409-.711-.861-.328-2.037-.328t-1.64.355-.465.848q0 .615.766.97.78.357 2.406.739a10 10 0 0 1 1.804.56q.794.341 1.368.848t.875 1.19q.315.683.314 1.64 0 .957-.451 1.723a3.9 3.9 0 0 1-1.217 1.299 5.9 5.9 0 0 1-1.79.82q-1.026.3-2.175.3-1.845 0-3.336-.519-1.476-.519-2.365-1.531m12.893-8.846v-2.693h2.242v-4.252h3.295v4.252h3.527v2.693h-3.527v5.742q0 1.122.383 1.723.382.602 1.217.602.779 0 1.244-.219.465-.233.888-.533l1.395 2.037q-.984.807-1.942 1.162-.943.356-2.119.356-1.203 0-2.05-.356a3.3 3.3 0 0 1-1.354-.984 4 4 0 0 1-.738-1.559 8.7 8.7 0 0 1-.219-2.01v-5.96zm11.771 3.72q0-1.45.479-2.694.492-1.245 1.367-2.16a6.5 6.5 0 0 1 2.105-1.463q1.23-.534 2.707-.533 1.792 0 3.036.656t1.996 1.722q.766 1.066 1.093 2.407.342 1.34.342 2.748v.465h-9.803q0 .725.329 1.326.327.588.834 1.011.52.41 1.175.643.67.219 1.313.219.957 0 1.668-.178a7.3 7.3 0 0 0 1.203-.424 4.6 4.6 0 0 0 1.326-.943l1.791 2.023-.465.465q-.369.369-1.093.793-.71.424-1.819.752-1.108.342-2.638.342-1.573 0-2.858-.533a6.6 6.6 0 0 1-2.201-1.463 6.4 6.4 0 0 1-1.408-2.256q-.48-1.326-.479-2.926m3.295-1.231h6.44q0-.507-.192-.998A2.8 2.8 0 0 0 70 71.31a2.9 2.9 0 0 0-.97-.67 3.14 3.14 0 0 0-1.34-.274q-.807 0-1.436.274a3.3 3.3 0 0 0-1.053.67 3 3 0 0 0-.656.916q-.219.506-.219.998m12.387 7.957V68.043h3.158l.082 1.49a8 8 0 0 1 .602-.588q.356-.314.847-.574a5.3 5.3 0 0 1 1.108-.424q.615-.177 1.394-.178 2.461 0 3.746 1.477 1.3 1.463 1.3 3.951v7.985h-3.31v-7.957q0-1.258-.683-1.942-.684-.684-1.777-.683-.67 0-1.258.273-.588.26-1.012.738a3.5 3.5 0 0 0-.67 1.108q-.232.629-.232 1.353v7.11zm18.99 0 7.082-18.676h3.651l7.082 18.676h-3.924l-1.627-4.73h-6.946l-1.613 4.73zm6.303-7.643h4.963l-2.475-7.26zm12.892-1.6q0-2.05.698-3.828a9.7 9.7 0 0 1 1.982-3.13 9.2 9.2 0 0 1 3.035-2.133q1.764-.793 3.897-.793 1.367 0 2.515.3a8.8 8.8 0 0 1 2.079.793 7.8 7.8 0 0 1 1.667 1.19q.74.684 1.299 1.477l-2.502 2.2q-.901-1.284-2.091-2.064-1.176-.78-2.967-.78-1.368 0-2.475.548a5.6 5.6 0 0 0-1.859 1.449A6.5 6.5 0 0 0 119 69.301a8 8 0 0 0-.41 2.556q0 1.34.41 2.516a6.3 6.3 0 0 0 1.162 2.05 5.6 5.6 0 0 0 1.805 1.368q1.053.506 2.365.506 1.203 0 2.051-.274a6 6 0 0 0 1.463-.697 5.8 5.8 0 0 0 1.011-.888q.41-.466.739-.807l2.474 2.133q-.423.642-1.175 1.326a9.8 9.8 0 0 1-1.75 1.244q-.999.575-2.202.93a8.7 8.7 0 0 1-2.556.369q-2.106 0-3.842-.725a9.1 9.1 0 0 1-2.981-2.037 9.4 9.4 0 0 1-1.968-3.062q-.698-1.764-.698-3.87m19.032 0q0-2.05.697-3.828a9.7 9.7 0 0 1 1.982-3.13 9.2 9.2 0 0 1 3.036-2.133q1.763-.793 3.896-.793 1.367 0 2.516.3a8.8 8.8 0 0 1 2.078.793 7.8 7.8 0 0 1 1.668 1.19q.738.684 1.299 1.477l-2.502 2.2q-.903-1.284-2.092-2.064-1.176-.78-2.967-.78-1.366 0-2.475.548a5.6 5.6 0 0 0-1.859 1.449 6.6 6.6 0 0 0-1.176 2.133 8 8 0 0 0-.41 2.556q0 1.34.41 2.516a6.3 6.3 0 0 0 1.162 2.05 5.6 5.6 0 0 0 1.805 1.368q1.053.506 2.365.506 1.203 0 2.051-.274a6 6 0 0 0 1.463-.697 5.8 5.8 0 0 0 1.012-.888q.41-.466.738-.807l2.475 2.133q-.425.642-1.176 1.326a9.8 9.8 0 0 1-1.75 1.244q-.998.575-2.201.93a8.7 8.7 0 0 1-2.557.369q-2.106 0-3.842-.725a9.1 9.1 0 0 1-2.98-2.037 9.4 9.4 0 0 1-1.969-3.062q-.697-1.764-.697-3.87m19.701 9.243v-3.87h4.006v3.87z"/></svg>