<svg xmlns="http://www.w3.org/2000/svg" fill="none" viewBox="0 0 138 113"><path fill="#fff" d="m1.531 20.686.615-5.907h3.788l-1.9 5.907zm5.4 0 .616-5.907h3.787l-1.9 5.907zm7.944-2.01V0h3.527v7.67L25.32 0h4.006l-6.89 7.643 7.642 11.033h-4.252l-5.687-8.49-1.737 1.941v6.549zm16.215-3.842q0-1.121.424-1.996a4.2 4.2 0 0 1 1.176-1.49q.75-.601 1.818-.903a8.3 8.3 0 0 1 2.351-.314 31 31 0 0 1 1.791.054q.506.028 1.04.069v-.315q0-.983-.793-1.544-.78-.561-2.038-.561-1.395 0-2.242.37a11 11 0 0 0-1.476.778l-1.518-2.228q.396-.274.902-.574.507-.3 1.176-.534a9 9 0 0 1 1.545-.396q.889-.15 2.064-.15 1.259 0 2.284.355a5.1 5.1 0 0 1 1.75.97q.724.63 1.12 1.518.397.876.397 1.914v8.819h-3.09l-.081-1.23q-.534.641-1.627 1.148-1.094.506-2.434.506a5.2 5.2 0 0 1-1.613-.26 4.4 4.4 0 0 1-1.45-.766 3.9 3.9 0 0 1-1.066-1.326q-.41-.82-.41-1.914m3.172-.137q0 .834.601 1.313.602.478 1.778.478.588 0 1.134-.191.548-.192.957-.533.424-.342.684-.78.273-.45.274-.957v-1.285q-.507-.027-.985-.055a22 22 0 0 0-.834-.04q-.424-.014-.724-.014-1.6 0-2.243.629-.642.628-.642 1.435m11.785 3.979V5.537h3.158l.082 1.49a8 8 0 0 1 .602-.588q.356-.314.847-.574a5.3 5.3 0 0 1 1.108-.424q.615-.177 1.394-.177 2.461 0 3.746 1.476 1.3 1.463 1.3 3.951v7.985h-3.31v-7.957q0-1.258-.683-1.942-.684-.683-1.777-.683-.67 0-1.258.273-.589.26-1.012.738-.424.466-.67 1.108-.232.63-.232 1.353v7.11zm15.422 0V5.537h3.158l.082 1.49q.246-.273.602-.588.355-.314.847-.574a5.3 5.3 0 0 1 1.108-.424q.615-.177 1.394-.177 2.461 0 3.746 1.476 1.3 1.463 1.3 3.951v7.985h-3.31v-7.957q0-1.258-.683-1.942-.684-.683-1.777-.683-.67 0-1.258.273-.589.26-1.012.738-.424.466-.67 1.108-.232.63-.232 1.353v7.11zM1.395 36.934l.615-5.907h3.787l-1.914 5.907zM8.75 49.676V31h3.24v6.89q.507-.56 1.477-1.093.97-.534 2.474-.533 1.204 0 2.147.396a4.05 4.05 0 0 1 1.586 1.108q.643.711.97 1.722.342 1 .342 2.201v7.985h-3.308v-7.957q0-1.258-.684-1.942t-1.777-.683q-.67 0-1.258.273-.588.26-1.012.739a3.5 3.5 0 0 0-.67 1.107q-.232.63-.232 1.353v7.11zm15.367-5.154v-7.985h3.295v7.957q0 1.258.684 1.955.698.684 1.79.684.67 0 1.259-.26.587-.273.998-.752.422-.479.656-1.107.246-.629.246-1.354v-7.123h3.308v13.139h-3.171l-.082-1.49q-.247.273-.616.587-.369.315-.847.588-.465.26-1.08.424-.615.165-1.409.164-2.46 0-3.746-1.463-1.285-1.476-1.285-3.964m14.834 3.554 1.983-2.146q.615.615 1.544 1.025.945.397 2.147.397 1.065 0 1.709-.274.642-.287.643-.93 0-.273-.11-.505-.11-.247-.478-.465-.356-.233-.998-.451-.644-.233-1.737-.479-.67-.165-1.408-.451a5.7 5.7 0 0 1-1.353-.766 4.3 4.3 0 0 1-1.04-1.175q-.396-.698-.396-1.641 0-.984.465-1.75.479-.78 1.244-1.285a6.2 6.2 0 0 1 1.736-.793 6.9 6.9 0 0 1 1.955-.287q1.737 0 2.953.369a7 7 0 0 1 2.202 1.08l-1.71 2.324q-.532-.396-1.407-.71-.862-.33-2.038-.329-1.175 0-1.64.355-.465.356-.465.848 0 .615.766.97.78.356 2.406.74a10 10 0 0 1 1.804.56q.794.341 1.368.847t.875 1.19q.315.684.314 1.64 0 .957-.451 1.723a3.9 3.9 0 0 1-1.217 1.299 5.9 5.9 0 0 1-1.79.82q-1.026.3-2.175.301-1.845 0-3.336-.52-1.476-.519-2.365-1.53m12.893-8.846v-2.693h2.242v-4.252h3.295v4.252h3.527v2.694h-3.527v5.742q0 1.12.383 1.722.382.602 1.216.602.78 0 1.245-.219.465-.233.888-.533l1.395 2.037q-.984.807-1.942 1.162-.943.356-2.119.356-1.203 0-2.05-.356a3.3 3.3 0 0 1-1.354-.984 4 4 0 0 1-.738-1.559 8.7 8.7 0 0 1-.22-2.01v-5.96zm12.605 14.452 1.764-4.006H64.79v-3.897h4.006v3.842l-2.379 4.06zm12.66-4.006V31h3.24v6.89q.507-.56 1.477-1.093.97-.534 2.475-.533 1.203 0 2.146.396a4.05 4.05 0 0 1 1.586 1.108q.643.711.97 1.722.343 1 .343 2.201v7.985h-3.309v-7.957q0-1.258-.684-1.942-.683-.683-1.777-.683-.67 0-1.258.273-.588.26-1.011.739-.424.464-.67 1.107-.233.63-.233 1.353v7.11zm15.368-5.154v-7.985h3.294v7.957q0 1.258.684 1.955.697.684 1.791.684.67 0 1.258-.26.588-.273.998-.752.424-.479.656-1.107.246-.629.246-1.354v-7.123h3.309v13.139h-3.172l-.082-1.49a7 7 0 0 1-.615.587q-.37.315-.848.588-.465.26-1.08.424-.615.165-1.408.164-2.461 0-3.746-1.463-1.285-1.476-1.285-3.964m14.834 3.554 1.982-2.146q.615.615 1.545 1.025.943.397 2.146.397 1.067 0 1.709-.274.643-.287.643-.93 0-.273-.109-.505-.11-.247-.479-.465-.356-.233-.998-.451-.642-.233-1.736-.479-.67-.165-1.409-.451a5.7 5.7 0 0 1-1.353-.766 4.3 4.3 0 0 1-1.039-1.175q-.397-.698-.397-1.641 0-.984.465-1.75.479-.78 1.244-1.285a6.2 6.2 0 0 1 1.737-.793 6.9 6.9 0 0 1 1.955-.287q1.736 0 2.953.369a7 7 0 0 1 2.201 1.08l-1.709 2.324q-.533-.396-1.408-.71-.861-.33-2.037-.329-1.176 0-1.641.355-.465.356-.465.848 0 .615.766.97.78.356 2.406.74a10 10 0 0 1 1.805.56q.793.341 1.367.847.575.506.875 1.19.315.684.315 1.64 0 .957-.452 1.723-.437.765-1.216 1.299a5.9 5.9 0 0 1-1.791.82q-1.026.3-2.174.301-1.846 0-3.336-.52-1.477-.519-2.365-1.53m12.892-8.846v-2.693h2.242v-4.252h3.295v4.252h3.528v2.694h-3.528v5.742q0 1.12.383 1.722t1.217.602q.779 0 1.244-.219a7 7 0 0 0 .889-.533l1.394 2.037q-.984.807-1.941 1.162-.944.356-2.119.356-1.203 0-2.051-.356a3.3 3.3 0 0 1-1.354-.984 4 4 0 0 1-.738-1.559 8.6 8.6 0 0 1-.219-2.01v-5.96zm12.606 14.452 1.763-4.006h-1.422v-3.897h4.006v3.842l-2.379 4.06zM1.258 80.676V62h3.24v6.89q.506-.56 1.477-1.093.97-.533 2.474-.533 1.203 0 2.147.396a4.05 4.05 0 0 1 1.586 1.108q.643.711.97 1.722.342 1 .342 2.201v7.985h-3.309v-7.957q0-1.258-.683-1.942-.684-.683-1.777-.683-.67 0-1.258.273-.589.26-1.012.739a3.5 3.5 0 0 0-.67 1.107q-.232.63-.232 1.353v7.11zm15.367-5.154v-7.985h3.295v7.957q0 1.258.683 1.955.698.684 1.791.684.67 0 1.258-.26.588-.273.998-.752.424-.479.657-1.107.246-.629.246-1.354v-7.123h3.308v13.139H25.69l-.082-1.49q-.246.273-.615.587-.37.315-.848.588-.465.26-1.08.424-.615.165-1.408.164-2.461 0-3.746-1.463-1.285-1.476-1.285-3.965m14.834 3.554 1.982-2.146q.615.615 1.545 1.025.945.397 2.147.397 1.065 0 1.709-.274.642-.287.642-.93 0-.273-.109-.505-.11-.248-.478-.465-.356-.233-.999-.451-.642-.233-1.736-.479-.67-.165-1.408-.451a5.7 5.7 0 0 1-1.354-.766 4.3 4.3 0 0 1-1.039-1.175q-.396-.697-.396-1.641 0-.984.465-1.75.478-.78 1.244-1.285a6.2 6.2 0 0 1 1.736-.793 6.9 6.9 0 0 1 1.955-.287q1.737 0 2.953.369a7 7 0 0 1 2.202 1.08l-1.71 2.324q-.532-.396-1.408-.71-.861-.33-2.037-.329-1.175 0-1.64.355-.465.356-.465.848 0 .615.765.97.78.356 2.407.74a10 10 0 0 1 1.804.56q.794.341 1.367.847.575.506.875 1.19.315.683.315 1.64 0 .958-.451 1.723a3.9 3.9 0 0 1-1.217 1.299 5.9 5.9 0 0 1-1.791.82q-1.026.3-2.174.301-1.845 0-3.336-.52-1.477-.519-2.365-1.53m12.893-8.845v-2.694h2.242v-4.252h3.295v4.252h3.527v2.694h-3.527v5.742q0 1.12.383 1.722.382.602 1.216.602.78 0 1.244-.219.465-.233.89-.533l1.394 2.037q-.985.807-1.942 1.162-.943.356-2.119.356-1.203 0-2.05-.356a3.3 3.3 0 0 1-1.354-.984 4 4 0 0 1-.739-1.559 8.7 8.7 0 0 1-.218-2.01v-5.96zm12.523-2.297.615-5.907h3.787l-1.914 5.907zm12.414 12.742V67.537h3.158l.082 1.49q.246-.273.602-.588t.847-.574a5.3 5.3 0 0 1 1.108-.424q.615-.177 1.395-.177 2.46 0 3.746 1.476 1.298 1.464 1.298 3.951v7.985h-3.308v-7.957q0-1.258-.684-1.942t-1.777-.683q-.67 0-1.258.273-.588.26-1.012.739-.423.464-.67 1.107-.231.63-.232 1.353v7.11zm15.45-15.203V62h3.527v3.473zm.109 15.203V67.537h3.308v13.139zm6.084-6.576q0-1.422.52-2.694a6.8 6.8 0 0 1 1.435-2.228 6.9 6.9 0 0 1 2.228-1.518q1.299-.56 2.871-.56 1.6 0 2.912.574a6.9 6.9 0 0 1 2.243 1.545l-2.106 2.133a4 4 0 0 0-1.312-.999q-.752-.369-1.737-.369-.957 0-1.654.356a3.5 3.5 0 0 0-1.162.902q-.465.56-.697 1.313a5.5 5.5 0 0 0-.22 1.545q0 .751.22 1.49.232.724.697 1.312t1.162.957q.697.356 1.654.356a4.12 4.12 0 0 0 3.159-1.408l1.968 2.132a7.1 7.1 0 0 1-2.187 1.573q-1.258.588-2.94.588-1.68 0-3.008-.506-1.312-.506-2.214-1.422a6.4 6.4 0 0 1-1.367-2.215q-.465-1.299-.465-2.857m14.396 6.576V62h3.24v6.89q.507-.56 1.477-1.093t2.475-.533q1.203 0 2.146.396a4.05 4.05 0 0 1 1.586 1.108q.642.711.971 1.722.341 1 .341 2.201v7.985h-3.308v-7.957q0-1.258-.684-1.942-.683-.683-1.777-.683-.67 0-1.258.273-.588.26-1.012.739-.423.464-.67 1.107-.231.63-.232 1.353v7.11zm14.301-10.445v-2.694h2.242v-4.252h3.295v4.252h3.527v2.694h-3.527v5.742q0 1.12.383 1.722t1.217.602q.779 0 1.244-.219.465-.233.888-.533l1.395 2.037q-.984.807-1.941 1.162-.944.356-2.12.356-1.203 0-2.05-.356a3.3 3.3 0 0 1-1.354-.984 4 4 0 0 1-.738-1.559 8.6 8.6 0 0 1-.219-2.01v-5.96zM0 101.23v-2.693h2.229V98.4q0-1.709.546-2.843.547-1.135 1.45-1.819a5.6 5.6 0 0 1 2.105-.957q1.202-.287 2.516-.287.505 0 1.134.082.63.082 1.3.26.669.165 1.353.437.684.26 1.271.63l-1.367 2.488q-.642-.397-1.682-.725a6.5 6.5 0 0 0-2.037-.342q-1.735 0-2.529.588-.78.588-.78 1.928v.697h8.176v13.139h-3.308V101.23h-4.84v10.446H2.23V101.23zm17.09 10.446V98.537h3.158l.082 1.49q.246-.273.602-.588t.847-.574a5.3 5.3 0 0 1 1.108-.424q.615-.177 1.394-.177 2.461 0 3.746 1.476 1.3 1.463 1.3 3.951v7.985h-3.31v-7.957q0-1.258-.683-1.942-.684-.683-1.777-.683a2.95 2.95 0 0 0-1.258.273 2.9 2.9 0 0 0-1.012.738q-.423.465-.67 1.108a3.9 3.9 0 0 0-.232 1.353v7.11zm14.807-6.33q0-1.545.437-2.694.45-1.161 1.121-1.982.561-.67 1.23-1.121.684-.451 1.368-.739a6.2 6.2 0 0 1 1.326-.423 6 6 0 0 1 1.121-.123q.642 0 1.066.04.425.042.752.11.342.069.616.192.287.108.642.246V93h3.281v18.676h-3.199l-.082-1.285q-.246.273-.615.588-.356.3-.848.56a6 6 0 0 1-1.093.41 4.8 4.8 0 0 1-1.354.178q-1.066 0-2.105-.451a5.7 5.7 0 0 1-1.86-1.313q-.807-.874-1.312-2.133-.493-1.257-.493-2.884m3.322 0q0 1.681.834 2.802.847 1.122 2.447 1.122.834 0 1.422-.315.6-.328.957-.834.37-.505.533-1.107.165-.602.164-1.162v-4.034a2.7 2.7 0 0 0-1.107-.547q-.63-.15-1.6-.15-.984 0-1.627.383a3.8 3.8 0 0 0-1.12.984 4.5 4.5 0 0 0-.67 1.313 5.1 5.1 0 0 0-.233 1.545m12.263-.397q0-1.45.479-2.693.492-1.245 1.367-2.16a6.5 6.5 0 0 1 2.106-1.463q1.23-.534 2.707-.533 1.79 0 3.035.656t1.996 1.723q.765 1.066 1.094 2.406.34 1.34.341 2.748v.465h-9.802q0 .724.328 1.326.329.588.834 1.012a4.1 4.1 0 0 0 1.176.642 4.2 4.2 0 0 0 1.312.219q.957 0 1.668-.178a7 7 0 0 0 1.203-.424 4.5 4.5 0 0 0 1.326-.943l1.791 2.023-.465.465q-.369.37-1.093.793-.71.424-1.819.752-1.107.342-2.638.342-1.572 0-2.858-.533a6.6 6.6 0 0 1-2.2-1.463 6.4 6.4 0 0 1-1.41-2.256q-.477-1.326-.478-2.926m3.295-1.23h6.44q0-.506-.192-.998a2.8 2.8 0 0 0-.574-.916 2.9 2.9 0 0 0-.97-.67 3.1 3.1 0 0 0-1.34-.274q-.807 0-1.436.274-.63.26-1.053.67a3 3 0 0 0-.656.916q-.219.506-.219.998m12.387 7.957V98.537h3.158l.082 1.49a8 8 0 0 1 .602-.588q.356-.314.847-.574a5.3 5.3 0 0 1 1.108-.424q.615-.177 1.395-.177 2.46 0 3.746 1.476 1.298 1.463 1.298 3.951v7.985h-3.308v-7.957q0-1.258-.684-1.942t-1.777-.683a2.95 2.95 0 0 0-1.258.273 2.9 2.9 0 0 0-1.012.738 3.5 3.5 0 0 0-.67 1.108q-.231.629-.232 1.353v7.11zm15.695 0v-3.869h4.006v3.869zm7.684-12.742.615-5.907h3.787l-1.914 5.907zm5.318 0 .616-5.907h3.787l-1.914 5.907z"/></svg>