<svg xmlns="http://www.w3.org/2000/svg" fill="none" viewBox="0 0 387 34"><path fill="#fff" d="M1.842 7.451.82 2.765C2.166 1.837 4.765.955 7.734.955c5.94 0 8.724 3.62 8.724 7.703 0 3.201-2.135 6.31-5.29 7.099v.093c3.666.742 6.218 3.526 6.218 7.841 0 5.986-5.104 9.28-10.719 9.28-2.598 0-4.872-.603-6.31-1.392l.881-4.965c1.346.79 3.11 1.253 4.826 1.253 3.248 0 4.965-1.856 4.965-4.361 0-3.48-2.877-4.872-6.171-4.872h-.882V14.04h.603c2.784 0 5.568-1.345 5.568-4.222 0-2.181-1.345-3.666-3.944-3.666-1.438 0-3.155.603-4.361 1.3m29.807 18.004h-5.615L24.642 32.6H18.75l6.775-31.274h7.285L38.887 32.6h-5.893zm-5.012-4.733h4.455l-1.021-6.543c-.325-1.902-.743-5.01-1.02-7.099h-.14c-.325 2.088-.789 5.336-1.114 7.146zM42.321 1.326h15.962v5.197h-9.93v6.543c.881-.186 1.578-.232 2.46-.232 2.69 0 5.057.835 6.773 2.32 1.857 1.624 2.97 4.083 2.97 7.238 0 3.016-.928 5.429-2.598 7.1-2.135 2.273-5.475 3.34-9.976 3.34-2.32 0-4.27-.14-5.661-.325zm6.078 16.519v10.022c.418.093.835.093 1.346.093 1.438 0 2.598-.557 3.34-1.485.79-.928 1.16-2.227 1.16-3.619 0-1.438-.417-2.738-1.206-3.62-.788-.927-1.902-1.53-3.248-1.53q-.765 0-1.392.139M73.112.955c7.564 0 9.698 8.306 9.698 15.452 0 11.785-4.176 16.564-10.115 16.564-7.1 0-9.883-7.516-9.883-16.1 0-8.538 3.387-15.916 10.3-15.916m-.232 5.29c-2.412 0-3.758 3.99-3.758 10.718 0 7.1 1.346 10.719 3.805 10.719 2.552 0 3.526-4.64 3.526-10.997 0-5.475-.835-10.44-3.573-10.44M89.435 32.6V6.94h-5.522V1.328h17.168V6.94h-5.568V32.6zm23.323-7.146h-5.615l-1.392 7.146h-5.892l6.774-31.274h7.285l6.078 31.274h-5.893zm-5.011-4.732h4.454l-1.021-6.543c-.325-1.902-.742-5.01-1.021-7.099h-.139c-.325 2.088-.789 5.336-1.113 7.146zM139.586.955c7.563 0 9.697 8.306 9.697 15.452 0 11.785-4.176 16.564-10.115 16.564-7.099 0-9.883-7.516-9.883-16.1 0-8.538 3.387-15.916 10.301-15.916m-.232 5.29c-2.413 0-3.759 3.99-3.759 10.718 0 7.1 1.346 10.719 3.805 10.719 2.552 0 3.527-4.64 3.527-10.997 0-5.475-.836-10.44-3.573-10.44M180.215 32.6l-.557-10.95c-.139-2.97-.371-7.007-.278-10.347h-.14a136 136 0 0 1-1.995 9.604l-2.691 11.183h-4.315l-2.599-10.997c-.603-2.506-1.438-6.403-1.902-9.79h-.139a349 349 0 0 1-.464 10.44l-.511 10.857h-5.243l2.274-31.274h6.403l2.506 11.322c.881 3.944 1.67 7.424 2.227 10.95h.093c.464-3.48 1.16-7.006 1.995-10.95l2.459-11.321h6.403l1.903 31.273zm9.87-31.274h5.382V8.24c0 5.754-.371 11.136-.603 14.384h.093c.882-2.691 2.459-6.774 3.387-9.187l4.594-12.11h5.521V32.6h-5.336v-7.053c0-6.264.232-10.904.372-14.059h-.093c-.696 2.83-2.088 6.589-3.109 9.187L195.699 32.6h-5.614zm23.789 0h5.939v13.596h.464l5.104-13.596h6.682l-7.192 14.477c3.201 1.207 4.269 4.13 5.15 7.935.696 3.016 1.207 5.985 2.135 8.862h-6.079c-.742-2.227-1.206-4.78-1.717-7.238-.742-3.666-1.577-6.032-4.083-6.032h-.464V32.6h-5.939zm21.07 31.274V1.79c1.717-.37 4.037-.603 6.357-.603 3.619 0 6.45.51 8.491 2.413 1.856 1.624 2.692 4.223 2.692 6.867 0 3.387-1.021 5.754-2.645 7.517-1.949 2.042-5.104 2.97-7.61 2.97h-1.206V32.6zm6.079-26.262v9.65c.278.094.603.094.974.094 3.063 0 4.455-2.181 4.455-5.104 0-2.738-1.114-4.872-3.944-4.872-.557 0-1.114.093-1.485.232M264.92.955c7.563 0 9.698 8.306 9.698 15.452 0 11.785-4.176 16.564-10.115 16.564-7.1 0-9.884-7.516-9.884-16.1 0-8.538 3.388-15.916 10.301-15.916m-.232 5.29c-2.413 0-3.758 3.99-3.758 10.718 0 7.1 1.345 10.719 3.805 10.719 2.552 0 3.526-4.64 3.526-10.997 0-5.475-.835-10.44-3.573-10.44m22.2-6.032h5.336v2.366c5.614.743 9.883 5.15 9.883 14.152 0 9.605-4.315 13.642-9.883 14.43v2.553h-5.382v-2.552c-5.661-.835-9.884-4.826-9.884-14.291 0-9.188 5.058-13.55 9.93-14.292zm0 26.494V6.987c-1.856.557-3.851 3.063-3.851 9.976 0 6.45 1.949 9.327 3.851 9.744m5.29-19.72v19.72c2.041-.417 3.851-2.923 3.851-9.93 0-7.099-2.088-9.372-3.851-9.79m14.66-5.66h16.287V32.6h-6.079V6.616h-4.64v8.26c0 7.191-.464 13.502-4.408 16.564-1.16.928-2.645 1.531-4.176 1.531l-1.299-5.15c.742-.186 1.531-.557 2.088-1.114 1.81-1.856 2.227-5.196 2.227-11.275zm30.446-.372c7.563 0 9.698 8.306 9.698 15.452 0 11.785-4.176 16.564-10.115 16.564-7.1 0-9.884-7.516-9.884-16.1 0-8.538 3.388-15.916 10.301-15.916m-.232 5.29c-2.413 0-3.758 3.99-3.758 10.718 0 7.1 1.345 10.719 3.805 10.719 2.552 0 3.526-4.64 3.526-10.997 0-5.475-.835-10.44-3.573-10.44M350.854 32.6V1.79c1.717-.37 4.037-.603 6.357-.603 3.619 0 6.449.51 8.491 2.413 1.856 1.624 2.691 4.223 2.691 6.867 0 3.387-1.021 5.754-2.645 7.517-1.949 2.042-5.104 2.97-7.609 2.97h-1.207V32.6zm6.078-26.262v9.65c.279.094.603.094.975.094 3.062 0 4.454-2.181 4.454-5.104 0-2.738-1.114-4.872-3.944-4.872-.557 0-1.114.093-1.485.232m28.352 7.47v5.058h-7.146v8.445h8.074v5.29H372.06V1.326h13.595v5.29h-7.517v7.191z"/></svg>