<svg xmlns="http://www.w3.org/2000/svg" fill="none" viewBox="0 0 158 34"><rect width="158" height="34" fill="#01748c" rx="17"/><path fill="#fff" d="M22.923 18.8v3.832c0 .158-.035.263-.088.298-.053.053-.158.07-.297.07h-.945c-.158 0-.263-.017-.316-.07-.052-.035-.07-.14-.07-.297V12.238q0-.29.105-.42.105-.105.368-.158c.7-.088 1.558-.14 2.573-.14 1.487 0 2.555.263 3.22.787.665.525.997 1.418.997 2.643v.28c0 2.398-1.383 3.587-4.147 3.587-.648 0-1.12 0-1.4-.017m.262-5.845c-.175.018-.262.123-.262.332v4.13c.245.018.612.018 1.102.018q1.47 0 2.1-.473c.42-.314.63-.91.63-1.767v-.21c0-.752-.192-1.295-.56-1.61-.385-.315-1.015-.473-1.907-.473a10 10 0 0 0-1.103.053m11.862 5.583c0-1.015-.105-1.733-.28-2.153-.245-.543-.788-.823-1.61-.823-.84 0-1.365.28-1.61.823-.193.42-.28 1.137-.28 2.153v.349c0 1.033.087 1.75.28 2.153.245.56.77.823 1.61.823.822 0 1.365-.263 1.61-.823.175-.402.28-1.12.28-2.152v-.35m1.645-.123v.595c0 1.592-.298 2.677-.875 3.255-.595.595-1.488.892-2.66.892-1.19 0-2.065-.297-2.66-.892-.595-.578-.875-1.663-.875-3.255v-.595c0-1.575.28-2.66.875-3.255s1.47-.893 2.66-.893c1.172 0 2.065.298 2.66.893.577.595.875 1.68.875 3.255m5.29 3.413c.735 0 1.26-.175 1.557-.543.28-.367.438-1.137.438-2.293v-.56c0-1.05-.14-1.767-.42-2.187q-.42-.63-1.523-.63c-.63 0-1.12.158-1.435.472q-.472.474-.472 1.628v2.258q0 1.103.42 1.47c.28.262.752.384 1.435.384m-1.855-10.36v3.552h.035c.455-.49 1.19-.752 2.187-.752 1.138 0 1.96.332 2.485.98q.788.971.788 3.097v.7c0 1.505-.298 2.555-.893 3.185s-1.522.927-2.8.927c-1.172 0-2.03-.21-2.59-.665-.56-.437-.822-1.225-.822-2.38v-8.644c0-.21.105-.316.35-.316h.91c.122 0 .21.036.262.07.053.053.088.14.088.245m9.078 3.272v7.945c0 .123-.035.21-.087.245-.053.053-.14.07-.263.07h-.91c-.245 0-.35-.105-.35-.315V14.74c0-.21.105-.315.35-.315h.91c.123 0 .21.035.263.07.052.053.087.14.087.245m-1.855-2.45v-.122c0-.333.087-.578.28-.753q.262-.262.735-.262h.087c.666 0 .998.35.998 1.015v.122c0 .683-.333 1.015-.998 1.015h-.087c-.315 0-.56-.07-.735-.245-.193-.175-.28-.42-.28-.77m10.49 5.477v1.26c0 .35-.176.508-.49.508h-4.516c.018.875.175 1.47.455 1.802s.84.49 1.68.49c.665 0 1.295-.105 1.855-.332.14-.035.228-.07.28-.07.088 0 .158.07.21.192l.123.42c.052.21.087.333.087.368q0 .157-.21.262c-.717.333-1.557.49-2.537.49-1.348 0-2.275-.314-2.8-.945q-.788-.945-.788-3.202v-.595c0-1.418.263-2.467.788-3.132s1.4-1.015 2.642-1.015q1.602 0 2.415.84c.525.56.805 1.452.805 2.66m-5.023.456h3.237c.14 0 .228-.07.228-.245q0-1.287-.368-1.838c-.245-.35-.682-.543-1.33-.543-.7 0-1.172.21-1.417.613-.245.402-.35 1.067-.35 2.012m8.117-3.535.087.857h.035c.228-.385.508-.682.84-.857.315-.176.77-.263 1.33-.263h.35c.14 0 .228.035.28.07.053.053.088.14.088.245v.77c0 .21-.123.297-.368.297h-.385c-.717 0-1.207.175-1.487.49-.263.316-.385.823-.385 1.523v4.865c0 .123-.035.21-.088.245-.052.053-.14.07-.262.07h-.91c-.245 0-.35-.105-.35-.315v-7.997c0-.176.087-.263.28-.263h.612c.21 0 .315.087.333.262m10.13 7.262v.753c0 .21-.104.297-.297.297h-5.425c-.262 0-.385-.105-.385-.315v-.35c0-.21.105-.49.35-.858l3.658-5.687h-3.518c-.21 0-.297-.087-.297-.297v-.753c0-.105.017-.193.052-.245.035-.035.105-.07.245-.07h5.285c.175 0 .28.105.28.28v.35c0 .21-.157.56-.455 1.015l-3.622 5.565h3.832c.193 0 .298.105.298.315m10.446.805-.07-.508h-.035c-.297.613-.997.91-2.1.91h-.542c-1.733 0-2.59-.84-2.59-2.52v-.28c0-.944.28-1.645.84-2.064.455-.368 1.365-.56 2.695-.56h.42c.385 0 .752.017 1.067.052v-.735c0-.543-.14-.91-.402-1.12-.28-.21-.718-.315-1.33-.315-.595 0-1.225.088-1.908.262-.192.053-.315.07-.367.07-.123 0-.193-.07-.228-.244l-.07-.333a2.4 2.4 0 0 1-.07-.455c0-.122.07-.21.245-.262a8.5 8.5 0 0 1 2.538-.386c1.12 0 1.942.228 2.45.665.49.455.752 1.225.752 2.31v5.513c0 .175-.105.245-.28.245h-.682c-.193 0-.298-.07-.333-.245m-.315-2.397v-1.26a8 8 0 0 0-.945-.053h-.77c-.63 0-1.067.105-1.312.28q-.368.289-.368 1.05v.245c0 .455.088.77.28.945.175.192.49.28.945.28h.578c.525 0 .927-.105 1.19-.35s.402-.613.402-1.137m5.366 2.1v3.325c0 .122-.035.21-.088.244-.052.053-.14.07-.262.07h-.91c-.245 0-.35-.105-.35-.315v-11.06c0-.192.087-.297.28-.297h.612c.175 0 .28.087.315.245l.105.56h.035c.543-.63 1.4-.963 2.555-.963 1.12 0 1.925.298 2.45.893.508.595.77 1.628.77 3.098v.787c0 1.417-.262 2.45-.752 3.115-.508.665-1.365.997-2.59.997-.98 0-1.698-.227-2.153-.7zm1.925-6.843c-.718 0-1.225.158-1.505.455-.28.315-.42.805-.42 1.488v2.38c0 .665.157 1.155.472 1.452s.805.438 1.47.438c.735 0 1.243-.193 1.523-.613.262-.42.402-1.155.402-2.222v-.578c0-1.05-.14-1.785-.402-2.187-.28-.403-.788-.613-1.54-.613m7.064-4.148v9.223c0 .35.035.595.14.735q.132.21.578.21h.437a.4.4 0 0 1 .228.07c.035.035.07.123.07.228v.752c0 .21-.105.315-.28.315h-.753q-1.102 0-1.575-.473c-.315-.315-.455-.84-.455-1.592v-9.467c0-.21.105-.316.35-.316h.91c.123 0 .21.036.263.07.052.053.087.14.087.245m4.788 3.273v7.945c0 .123-.035.21-.088.245-.052.053-.14.07-.262.07h-.91c-.245 0-.35-.105-.35-.315V14.74c0-.21.105-.315.35-.315h.91a.47.47 0 0 1 .262.07c.053.053.088.14.088.245m-1.855-2.45v-.122c0-.333.087-.578.28-.753q.262-.262.735-.262h.087c.665 0 .998.35.998 1.015v.122c0 .683-.333 1.015-.998 1.015h-.087c-.315 0-.56-.07-.735-.245-.193-.175-.28-.42-.28-.77m5.834 6.878v3.517c0 .123-.035.21-.088.245-.052.053-.14.07-.262.07h-.91c-.245 0-.35-.105-.35-.315V11.468c0-.21.105-.316.35-.316h.91a.47.47 0 0 1 .262.07c.053.053.088.14.088.245v6.283h.665c.14 0 .245-.052.332-.192l1.908-2.888c.105-.158.262-.245.49-.245h1.015c.28 0 .35.122.21.35l-2.433 3.518a.33.33 0 0 0-.07.175c0 .07.018.14.07.192l2.31 3.657c.175.298.28.473.28.526 0 .105-.087.157-.245.157h-1.032c-.228 0-.403-.087-.508-.262l-2.082-3.413a.34.34 0 0 0-.298-.157zm11.031 3.587-.07-.508h-.035c-.297.613-.997.91-2.1.91h-.542c-1.733 0-2.59-.84-2.59-2.52v-.28c0-.944.28-1.645.84-2.064.455-.368 1.365-.56 2.695-.56h.42c.385 0 .752.017 1.067.052v-.735c0-.543-.14-.91-.402-1.12-.28-.21-.718-.315-1.33-.315-.595 0-1.225.088-1.908.262-.192.053-.315.07-.367.07-.123 0-.193-.07-.228-.244l-.07-.333a2.4 2.4 0 0 1-.07-.455c0-.122.07-.21.245-.262a8.5 8.5 0 0 1 2.538-.386c1.12 0 1.942.228 2.45.665.49.455.752 1.225.752 2.31v5.513c0 .175-.105.245-.28.245h-.682c-.193 0-.298-.07-.333-.245m-.315-2.397v-1.26a8 8 0 0 0-.945-.053h-.77c-.63 0-1.067.105-1.312.28q-.368.289-.368 1.05v.245c0 .455.088.77.28.945.175.192.49.28.945.28h.578c.525 0 .927-.105 1.19-.35s.402-.613.402-1.137m9.268 1.294.105.368c.052.192.087.332.087.402 0 .14-.087.228-.262.298-.665.297-1.453.438-2.363.438-1.155 0-1.995-.245-2.502-.753-.648-.595-.963-1.75-.963-3.43v-.56c0-.892.07-1.575.21-2.065.14-.473.368-.875.718-1.208.612-.577 1.487-.874 2.625-.874 1.015 0 1.872.244 2.607.734.105.07.158.158.158.228s-.07.21-.175.42l-.245.455c-.07.122-.14.175-.21.175a.34.34 0 0 1-.21-.07c-.63-.385-1.243-.578-1.873-.578s-1.085.14-1.4.42a1.37 1.37 0 0 0-.402.666c-.088.28-.14.524-.14.735-.018.21-.018.577-.018 1.102v.28c0 1.242.14 2.047.438 2.415.315.385.84.578 1.592.578q.893 0 1.733-.316c.105-.035.192-.07.262-.07.105 0 .175.07.228.21m3.74-6.912v7.98c0 1.138-.192 1.943-.542 2.433-.455.647-1.295.962-2.52.962h-.543c-.21 0-.297-.087-.297-.28v-.84c0-.175.087-.28.262-.28h.403c.682 0 1.12-.157 1.33-.473.192-.315.297-.875.297-1.697V14.74c0-.21.105-.315.35-.315h.91c.123 0 .21.035.263.07.052.053.087.14.087.245m-1.855-2.45v-.122c0-.333.088-.578.28-.753q.263-.262.735-.262h.088c.665 0 .997.35.997 1.015v.122c0 .683-.332 1.015-.997 1.015h-.088c-.315 0-.56-.07-.735-.245-.192-.175-.28-.42-.28-.77m10.506 5.46v1.277c0 .35-.175.508-.49.508h-4.515c.017.875.175 1.47.455 1.802s.84.49 1.68.49c.665 0 1.295-.105 1.855-.332.14-.035.227-.07.28-.07.087 0 .157.07.21.192l.122.42c.035.158.07.263.07.333q0 .157-.21.262c-.595.35-1.032.7-1.295 1.033-.262.35-.385.718-.385 1.137 0 .438.21.648.648.648q.393 0 .84-.157c.105-.035.157-.053.175-.053.07 0 .122.053.14.158l.07.314c.035.14.052.245.052.298q0 .13-.21.21a3.5 3.5 0 0 1-1.295.263c-1.19 0-1.767-.456-1.767-1.383q0-1.182 1.26-1.995a5.5 5.5 0 0 1-.753.052c-1.347 0-2.275-.314-2.8-.945q-.787-.945-.787-3.202v-.595c0-1.418.262-2.467.787-3.132s1.4-1.015 2.66-1.015c1.068 0 1.873.28 2.398.822.525.56.805 1.435.805 2.66m-5.023.473h3.238c.14 0 .227-.07.227-.245q0-1.287-.367-1.838c-.245-.35-.683-.543-1.33-.543-.7 0-1.173.21-1.418.613-.245.402-.35 1.067-.35 2.012"/></svg>