<svg xmlns="http://www.w3.org/2000/svg" fill="none" viewBox="0 0 396 148"><path fill="#fff" d="M8.142 15.494H2.116c-.598 0-1.012-.092-1.196-.276q-.276-.276-.276-1.104v-3.45c0-.552.092-.966.276-1.15s.552-.276 1.196-.276h19.826c.598 0 1.012.092 1.196.276s.276.598.276 1.15v3.45c0 .552-.138.92-.322 1.104s-.598.276-1.15.276h-6.026v22.034c0 .598-.138 1.012-.322 1.196q-.345.276-1.38.276h-4.37q-1.104 0-1.38-.276c-.23-.184-.322-.598-.322-1.196zM29.86 25.936v3.588c0 1.794.276 2.944.828 3.496.414.46 1.058.644 1.932.644h.184c.828 0 1.472-.184 1.932-.644.552-.552.828-1.702.828-3.496v-3.588c0-1.748-.276-2.944-.828-3.496-.46-.414-1.104-.644-1.932-.644h-.184c-.874 0-1.518.23-1.932.644-.552.552-.828 1.748-.828 3.496m13.11.276v2.99c0 2.3-.23 4.048-.69 5.336s-1.196 2.3-2.208 3.082c-1.518 1.196-3.864 1.794-7.084 1.794h-.552c-3.22 0-5.612-.598-7.084-1.794-1.012-.782-1.748-1.794-2.208-3.082s-.69-3.036-.69-5.336v-2.944c0-2.254.23-4.002.69-5.29a6.96 6.96 0 0 1 2.208-3.128c1.472-1.196 3.864-1.794 7.084-1.794h.552c3.22 0 5.566.598 7.084 1.794a7.1 7.1 0 0 1 2.208 3.082c.46 1.288.69 3.036.69 5.29m9.596-7.774c1.61-1.564 3.91-2.392 6.854-2.392h.414c2.852 0 4.876.828 6.118 2.392 1.105 1.472 1.657 3.956 1.657 7.544v3.45c0 1.932-.184 3.542-.46 4.738-.323 1.196-.874 2.208-1.656 2.99-1.564 1.518-3.68 2.254-6.44 2.254h-.506q-2.622 0-4.278-.966v7.084c0 .69-.139 1.15-.368 1.334-.277.184-.783.276-1.565.276h-3.495c-.782 0-1.288-.092-1.565-.322-.276-.184-.368-.644-.368-1.288v-27.6c0-.552.093-.92.368-1.15.23-.184.644-.322 1.242-.322h1.932c.552 0 .966.092 1.197.184.184.138.367.414.506.782l.322 1.012zm1.703 6.532v5.888c0 1.058.184 1.794.644 2.208.414.414 1.104.598 2.07.598h.414c1.058 0 1.794-.276 2.254-.92q.55-.828.551-4.002v-1.978c0-2.208-.183-3.588-.551-4.094-.46-.552-1.197-.828-2.3-.828h-.322c-1.013 0-1.703.23-2.163.69-.413.414-.597 1.242-.597 2.438m23.972.966v3.588c0 1.794.276 2.944.828 3.496.414.46 1.058.644 1.932.644h.184c.828 0 1.472-.184 1.932-.644.552-.552.828-1.702.828-3.496v-3.588c0-1.748-.276-2.944-.828-3.496-.46-.414-1.104-.644-1.932-.644H81c-.874 0-1.518.23-1.932.644-.552.552-.828 1.748-.828 3.496m13.11.276v2.99c0 2.3-.23 4.048-.69 5.336s-1.196 2.3-2.208 3.082c-1.518 1.196-3.864 1.794-7.084 1.794h-.552c-3.22 0-5.612-.598-7.084-1.794-1.012-.782-1.748-1.794-2.208-3.082s-.69-3.036-.69-5.336v-2.944c0-2.254.23-4.002.69-5.29a6.96 6.96 0 0 1 2.208-3.128c1.472-1.196 3.864-1.794 7.084-1.794h.552c3.22 0 5.566.598 7.084 1.794a7.1 7.1 0 0 1 2.208 3.082c.46 1.288.69 3.036.69 5.29m15.714-8.648h3.956c.644 0 1.104.092 1.334.276s.414.552.506 1.104c0 .184.828 4.278 2.438 12.236h.138c.828-4.83 1.564-9.292 2.162-13.432.046-.506.184-.828.368-1.012q.276-.276.966-.276h4.692c.506 0 .828.138 1.012.322.138.23.184.598.092 1.058-.736 3.588-1.656 7.544-2.668 11.868s-1.748 7.038-2.208 8.188c-.184.46-.414.782-.644.92s-.598.184-1.058.184h-5.06c-.966 0-1.564-.322-1.748-1.058-.874-3.128-1.61-7.084-2.254-11.868h-.184c-.598 4.14-1.38 8.096-2.3 11.868-.184.736-.736 1.058-1.656 1.058h-4.968c-.92 0-1.518-.322-1.748-1.012-.46-1.242-1.242-4.094-2.346-8.51a214 214 0 0 1-2.576-11.638c-.138-.506-.092-.874.092-1.058s.552-.322 1.104-.322h4.508c.46 0 .828.092 1.058.276.184.184.322.552.414 1.012.644 4.278 1.38 8.74 2.254 13.432h.184c1.104-5.704 1.886-9.798 2.254-12.236.092-.598.23-.966.46-1.15.23-.138.69-.23 1.426-.23m31.336 15.916h.506c1.564 0 3.22-.184 4.876-.598.46-.092.736-.138.874-.138.46 0 .736.276.828.782l.368 2.3c.092.644.184 1.058.184 1.242 0 .552-.414.966-1.196 1.242-2.116.736-4.462 1.104-6.946 1.104h-.874q-5.658 0-8.004-2.346c-.92-.874-1.518-1.932-1.84-3.128s-.46-2.806-.46-4.784V26.58c0-4.002.92-6.808 2.76-8.464 1.564-1.38 3.956-2.07 7.222-2.07h.644c3.22 0 5.566.782 6.946 2.3 1.472 1.656 2.208 4.37 2.208 8.234v2.392c0 .874-.46 1.288-1.334 1.288h-11.04v.368c0 1.104.276 1.84.92 2.254.598.414 1.702.598 3.358.598m-4.278-8.004h5.06c.368 0 .552-.184.552-.598v-.736c0-.92-.184-1.61-.46-2.116-.368-.552-1.104-.828-2.116-.828h-.414c-.92 0-1.564.23-1.932.644q-.69.828-.69 2.484zm33.618 4.6v7.59c0 .46-.138.828-.368 1.012-.23.23-.644.322-1.196.322h-4.232c-.598 0-1.012-.092-1.242-.322-.23-.184-.322-.552-.322-1.012V9.192c0-.46.092-.782.322-1.012.23-.184.644-.322 1.242-.322h4.232c.552 0 .966.138 1.196.322.23.23.368.552.368 1.012v14.996h.322l4.37-6.67c.414-.69 1.058-1.058 1.932-1.058h5.336c.506 0 .782.184.782.552 0 .184-.138.506-.368.874l-5.29 7.912c-.414.644-.598 1.104-.598 1.38 0 .322.184.782.598 1.38l5.658 8.924c.184.368.276.598.276.782 0 .506-.322.736-.966.736h-5.106c-.644 0-1.15-.046-1.426-.23q-.414-.207-.828-.966l-4.37-7.728zm27.469.69V17.794c0-.46.092-.782.322-1.012.23-.184.644-.322 1.242-.322h4.232c.552 0 .966.138 1.196.322.23.23.368.552.368 1.012V31.41q0 4.209-2.07 6.072c-1.472 1.288-4.048 1.932-7.82 1.932s-6.394-.644-7.82-1.932q-2.07-1.863-2.07-6.072V17.794c0-.46.092-.782.322-1.012.23-.184.644-.322 1.242-.322h4.232c.552 0 .966.138 1.196.322.23.23.368.552.368 1.012v12.972c0 1.058.138 1.748.506 2.116.368.414 1.012.598 2.024.598.966 0 1.656-.184 2.024-.598.322-.368.506-1.058.506-2.116m17.506-11.822h.138c1.012-1.656 2.714-2.484 5.152-2.484h1.84c.46 0 .828.092 1.012.276s.322.506.322 1.012v3.358c0 .506-.092.828-.276 1.012q-.276.276-.966.276h-1.38c-1.702 0-2.852.322-3.496.966-.552.552-.782 1.61-.782 3.174v11.132c0 .46-.138.828-.368 1.012-.23.23-.644.322-1.196.322h-4.232c-.598 0-1.012-.092-1.242-.322-.23-.184-.322-.552-.322-1.012V17.748c0-.46.092-.782.322-.966s.644-.322 1.242-.322h2.208c.506 0 .874.092 1.104.23q.345.276.552.828zm10.587 4.922v-.598c0-2.254.598-3.956 1.794-5.152 1.38-1.38 3.726-2.07 6.992-2.07h.46c2.576 0 4.83.276 6.716.828q.552.207.69.414c.092.184.138.414.092.782l-.506 3.772c-.092.598-.506.782-1.242.598-1.84-.414-3.496-.644-4.876-.644h-.046c-1.012 0-1.748.092-2.116.276-.414.184-.598.506-.598.966v.138c0 .46.138.782.506.966s1.058.414 2.116.598l2.162.46c1.978.46 3.404 1.15 4.232 2.07s1.242 2.346 1.242 4.232v.69c0 4.83-3.036 7.222-9.016 7.222h-.46c-3.036 0-5.566-.414-7.682-1.242-.414-.138-.69-.322-.782-.552-.092-.184-.092-.552 0-1.058l.644-3.036c.138-.874.644-1.15 1.564-.874 2.116.736 3.956 1.058 5.52 1.058h.138c1.012 0 1.702-.092 2.116-.322.368-.184.598-.552.598-1.058v-.138a.99.99 0 0 0-.506-.874q-.552-.276-2.208-.69l-2.024-.46q-3.036-.69-4.278-2.07c-.828-.92-1.242-2.3-1.242-4.232m40.945-6.026c-.644 4.324-1.84 9.108-3.588 14.398-1.794 5.29-3.956 10.304-6.486 14.996-.322.644-.736.966-1.288.966-.368 0-.782-.092-1.334-.368l-2.346-1.012c-.828-.368-1.196-.736-1.196-1.15 0-.184.046-.46.23-.782 1.564-3.174 2.484-5.014 2.668-5.52-1.288-.46-2.254-1.472-2.99-3.128-.828-1.84-1.794-4.646-2.852-8.51q-1.587-5.796-2.346-9.936c-.092-.46-.046-.782.184-1.012.23-.184.644-.322 1.196-.322h4.186c.506 0 .874.092 1.104.23s.414.414.506.874c1.058 5.796 2.254 10.948 3.588 15.41h.23c1.288-3.68 2.484-8.74 3.588-15.272q.069-.69.414-.966c.23-.184.598-.276 1.058-.276h4.232c.506 0 .874.138 1.058.322s.23.552.184 1.058m24.437-.276h3.956c.644 0 1.104.092 1.334.276s.414.552.506 1.104c0 .184.828 4.278 2.438 12.236h.138c.828-4.83 1.564-9.292 2.162-13.432.046-.506.184-.828.368-1.012q.276-.276.965-.276h4.693c.506 0 .828.138 1.012.322.138.23.184.598.092 1.058-.736 3.588-1.656 7.544-2.668 11.868s-1.748 7.038-2.208 8.188c-.184.46-.414.782-.644.92s-.598.184-1.058.184h-5.06c-.966 0-1.564-.322-1.748-1.058-.874-3.128-1.61-7.084-2.254-11.868h-.184c-.598 4.14-1.38 8.096-2.3 11.868-.184.736-.736 1.058-1.656 1.058h-4.968c-.92 0-1.518-.322-1.748-1.012-.46-1.242-1.242-4.094-2.346-8.51a214 214 0 0 1-2.576-11.638c-.138-.506-.092-.874.092-1.058s.552-.322 1.104-.322h4.507c.461 0 .829.092 1.059.276.184.184.322.552.414 1.012.644 4.278 1.38 8.74 2.254 13.432h.184c1.104-5.704 1.886-9.798 2.254-12.236.092-.598.23-.966.46-1.15.23-.138.69-.23 1.426-.23m33.322 19.55h-.092c-1.012 1.564-3.036 2.3-6.026 2.3h-.69c-2.346 0-4.186-.598-5.474-1.794-1.334-1.196-1.978-2.99-1.978-5.29v-.506c0-2.484.69-4.278 2.116-5.29s3.726-1.518 6.946-1.518h.322c1.196 0 2.3.092 3.22.184v-.966c0-.966-.276-1.656-.782-2.024-.552-.322-1.472-.506-2.76-.506-1.564 0-3.312.276-5.336.782-.552.138-.966.138-1.15 0-.23-.138-.368-.414-.414-.874l-.368-2.438c-.092-.414-.092-.736-.092-.92 0-.552.368-.966 1.104-1.196 2.346-.644 4.968-1.012 7.866-1.012 3.542 0 6.072.782 7.544 2.254 1.15 1.196 1.748 3.128 1.748 5.75v13.662c0 .46-.138.828-.368 1.012s-.644.276-1.196.276h-2.162c-.552 0-.92-.046-1.15-.184s-.414-.414-.552-.874zm-1.656-5.888v-1.288q-.759-.138-2.208-.138h-.506q-1.656 0-2.346.414c-.46.276-.644.828-.644 1.656v.184c0 .828.184 1.38.644 1.656.414.322 1.058.46 1.932.46h.322c.92 0 1.61-.23 2.162-.69.414-.368.644-1.15.644-2.254m19.956 1.794h1.472c.46 0 .828.138 1.012.322.184.23.322.644.322 1.242v2.852c0 .644-.138 1.058-.322 1.242-.184.23-.552.322-1.012.322h-3.496c-2.3 0-3.91-.414-4.83-1.334-.92-.874-1.38-2.438-1.38-4.646V9.192c0-.46.092-.782.322-1.012.23-.184.644-.322 1.242-.322h4.232c.552 0 .966.138 1.196.322.23.23.368.552.368 1.012v22.954c0 .368.046.598.184.69.092.138.322.184.69.184m17.924-2.254V17.794c0-.46.092-.782.322-1.012.23-.184.644-.322 1.242-.322h4.232c.552 0 .966.138 1.196.322.23.23.368.552.368 1.012V31.41q0 4.209-2.07 6.072c-1.472 1.288-4.048 1.932-7.82 1.932s-6.394-.644-7.82-1.932q-2.07-1.863-2.07-6.072V17.794c0-.46.092-.782.322-1.012.23-.184.644-.322 1.242-.322h4.232c.552 0 .966.138 1.196.322.23.23.368.552.368 1.012v12.972c0 1.058.138 1.748.506 2.116.368.414 1.012.598 2.024.598.966 0 1.656-.184 2.024-.598.322-.368.506-1.058.506-2.116m26.109 3.91v2.622c0 .69-.138 1.15-.322 1.38s-.598.322-1.15.322h-3.68c-3.312 0-5.52-.552-6.532-1.702-.92-.966-1.334-2.806-1.334-5.566V22.21h-2.484c-.46 0-.736-.046-.92-.23s-.23-.46-.23-.92v-2.346c0-.552.046-.92.23-1.104.138-.184.46-.322.966-.46l2.438-.598v-4.508c0-.46.092-.782.322-1.012.23-.184.644-.322 1.242-.322h4.232c.552 0 .966.138 1.196.322.23.23.368.552.368 1.012v4.416h3.818c.46 0 .736.092.92.276s.276.506.276 1.058v3.082q0 .828-.276 1.104c-.184.184-.46.23-.92.23h-3.818v8.694c0 .828.092 1.334.368 1.61.276.322.874.46 1.794.46h2.024c.552 0 .966.138 1.15.368s.322.69.322 1.334M9.798 73.794v19.872c0 .46-.138.828-.368 1.012-.23.23-.644.322-1.196.322H4.002c-.598 0-1.012-.092-1.242-.322-.23-.184-.322-.552-.322-1.012V73.794c0-.46.092-.782.322-1.012.23-.184.644-.322 1.242-.322h4.232c.552 0 .966.138 1.196.322.23.23.368.552.368 1.012m-3.404-3.082h-.552c-2.484 0-3.726-1.242-3.726-3.818v-.23c0-2.53 1.242-3.818 3.726-3.818h.552c2.484 0 3.726 1.288 3.726 3.818v.23c0 2.576-1.242 3.818-3.726 3.818m25.503 15.364v7.59c0 .46-.138.828-.368 1.012-.23.23-.644.322-1.196.322h-4.232c-.598 0-1.012-.092-1.242-.322-.23-.184-.322-.552-.322-1.012V65.192c0-.46.092-.782.322-1.012.23-.184.644-.322 1.242-.322h4.232c.552 0 .966.138 1.196.322.23.23.368.552.368 1.012v14.996h.322l4.37-6.67c.414-.69 1.058-1.058 1.932-1.058h5.336c.506 0 .782.184.782.552 0 .184-.138.506-.368.874l-5.29 7.912c-.414.644-.598 1.104-.598 1.38 0 .322.184.782.598 1.38l5.658 8.924c.184.368.276.598.276.782 0 .506-.322.736-.966.736h-5.106c-.644 0-1.15-.046-1.426-.23q-.414-.207-.828-.966l-4.37-7.728zm21.682-4.14v3.588c0 1.794.276 2.944.828 3.496.414.46 1.058.644 1.932.644h.184c.827 0 1.471-.184 1.931-.644.553-.552.828-1.702.828-3.496v-3.588c0-1.748-.275-2.944-.827-3.496-.46-.414-1.105-.644-1.932-.644h-.184c-.874 0-1.518.23-1.932.644-.552.552-.828 1.748-.828 3.496m13.11.276v2.99c0 2.3-.23 4.048-.69 5.336s-1.197 2.3-2.208 3.082c-1.518 1.196-3.864 1.794-7.084 1.794h-.553c-3.22 0-5.612-.598-7.084-1.794-1.011-.782-1.748-1.794-2.208-3.082s-.69-3.036-.69-5.336v-2.944c0-2.254.23-4.002.69-5.29a6.96 6.96 0 0 1 2.209-3.128c1.471-1.196 3.864-1.794 7.084-1.794h.551c3.22 0 5.566.598 7.084 1.794A7.1 7.1 0 0 1 66 76.922c.46 1.288.69 3.036.69 5.29M82.77 72.046h.368c2.668 0 4.646.644 5.842 1.886 1.104 1.196 1.702 3.22 1.702 6.072v13.662c0 .46-.138.828-.368 1.012-.23.23-.644.322-1.196.322h-4.232c-.598 0-1.012-.092-1.242-.322-.23-.184-.322-.552-.322-1.012V80.648c0-1.012-.184-1.748-.506-2.116-.368-.368-1.058-.598-2.024-.598h-.276c-1.012 0-1.656.23-2.024.598s-.506 1.104-.506 2.116v13.018c0 .46-.138.828-.368 1.012-.23.23-.644.322-1.196.322h-4.232c-.598 0-1.012-.092-1.242-.322-.23-.184-.322-.552-.322-1.012V73.748c0-.46.092-.782.322-.966s.644-.322 1.242-.322h2.162c.552 0 .92.092 1.15.23q.345.207.552.828l.276.874h.138c1.472-1.564 3.542-2.346 6.302-2.346m26.692 18.63v2.622c0 .69-.138 1.15-.322 1.38s-.598.322-1.15.322h-3.68c-3.312 0-5.52-.552-6.532-1.702-.92-.966-1.334-2.806-1.334-5.566V78.21H93.96c-.46 0-.736-.046-.92-.23s-.23-.46-.23-.92v-2.346c0-.552.046-.92.23-1.104.138-.184.46-.322.966-.46l2.438-.598v-4.508c0-.46.092-.782.322-1.012.23-.184.644-.322 1.242-.322h4.232c.552 0 .966.138 1.196.322.23.23.368.552.368 1.012v4.416h3.818c.46 0 .736.092.92.276s.276.506.276 1.058v3.082q0 .828-.276 1.104c-.184.184-.46.23-.92.23h-3.818v8.694c0 .828.092 1.334.368 1.61.276.322.874.46 1.794.46h2.024c.552 0 .966.138 1.15.368s.322.69.322 1.334m10.151-8.74v3.588c0 1.794.276 2.944.828 3.496.414.46 1.058.644 1.932.644h.184c.828 0 1.472-.184 1.932-.644.552-.552.828-1.702.828-3.496v-3.588c0-1.748-.276-2.944-.828-3.496-.46-.414-1.104-.644-1.932-.644h-.184c-.874 0-1.518.23-1.932.644-.552.552-.828 1.748-.828 3.496m13.11.276v2.99c0 2.3-.23 4.048-.69 5.336s-1.196 2.3-2.208 3.082c-1.518 1.196-3.864 1.794-7.084 1.794h-.552c-3.22 0-5.612-.598-7.084-1.794-1.012-.782-1.748-1.794-2.208-3.082s-.69-3.036-.69-5.336v-2.944c0-2.254.23-4.002.69-5.29a6.96 6.96 0 0 1 2.208-3.128c1.472-1.196 3.864-1.794 7.084-1.794h.552c3.22 0 5.566.598 7.084 1.794a7.1 7.1 0 0 1 2.208 3.082c.46 1.288.69 3.036.69 5.29m21.409-3.91h-7.314c-.46 0-.782-.046-.966-.23s-.23-.552-.23-1.104v-3.174c0-.552.046-.874.23-1.058q.276-.276.966-.276h15.548c.46 0 .782.092 1.012.276.184.184.322.552.322 1.058v.874c0 1.196-.368 2.3-1.012 3.266l-7.912 11.224h7.866c.46 0 .736.092.92.276s.276.506.276 1.058v3.174q0 .828-.276 1.104c-.184.184-.46.23-.92.23h-15.824c-.966 0-1.426-.414-1.426-1.334v-1.058c0-1.196.322-2.254 1.012-3.266zm26.101 14.812h-.092c-1.012 1.564-3.036 2.3-6.026 2.3h-.69c-2.346 0-4.186-.598-5.474-1.794-1.334-1.196-1.978-2.99-1.978-5.29v-.506c0-2.484.69-4.278 2.116-5.29s3.726-1.518 6.946-1.518h.322c1.196 0 2.3.092 3.22.184v-.966c0-.966-.276-1.656-.782-2.024-.552-.322-1.472-.506-2.76-.506-1.564 0-3.312.276-5.336.782-.552.138-.966.138-1.15 0-.23-.138-.368-.414-.414-.874l-.368-2.438c-.092-.414-.092-.736-.092-.92 0-.552.368-.966 1.104-1.196 2.346-.644 4.968-1.012 7.866-1.012 3.542 0 6.072.782 7.544 2.254 1.15 1.196 1.748 3.128 1.748 5.75v13.662c0 .46-.138.828-.368 1.012s-.644.276-1.196.276h-2.162c-.552 0-.92-.046-1.15-.184s-.414-.414-.552-.874zm-1.656-5.888v-1.288q-.759-.138-2.208-.138h-.506q-1.656 0-2.346.414c-.46.276-.644.828-.644 1.656v.184c0 .828.184 1.38.644 1.656.414.322 1.058.46 1.932.46h.322c.92 0 1.61-.23 2.162-.69.414-.368.644-1.15.644-2.254m49.98-12.778v4.872c0 5.264-1.12 9.296-3.304 12.04-2.24 2.8-5.936 4.144-11.088 4.144s-8.848-1.344-11.088-4.144c-2.24-2.744-3.304-6.776-3.304-12.04v-4.872c0-5.264 1.064-9.24 3.304-12.04 2.24-2.744 5.936-4.144 11.088-4.144s8.848 1.4 11.088 4.144c2.184 2.8 3.304 6.776 3.304 12.04m-9.576 3.92V75.4c0-3.64-.336-6.16-.896-7.504s-1.848-2.072-3.808-2.072h-.224c-2.016.056-3.304.728-3.864 2.072s-.84 3.864-.84 7.504v2.968c0 3.696.28 6.16.84 7.504s1.848 2.072 3.864 2.072h.224c1.96 0 3.248-.672 3.808-2.016s.896-3.864.896-7.56m35.553-3.696h-8.904c-.56 0-.952-.056-1.176-.28s-.28-.672-.28-1.344v-3.864c0-.672.056-1.064.28-1.288q.336-.336 1.176-.336h18.928c.56 0 .952.112 1.232.336.224.224.392.672.392 1.288v1.064c0 1.456-.448 2.8-1.232 3.976l-9.632 13.664h9.576c.56 0 .896.112 1.12.336s.336.616.336 1.288v3.864q0 1.008-.336 1.344c-.224.224-.56.28-1.12.28h-19.264c-1.176 0-1.736-.504-1.736-1.624v-1.288c0-1.456.392-2.744 1.232-3.976zm27.239 13.048h1.792c.56 0 1.008.168 1.232.392.224.28.392.784.392 1.512v3.472c0 .784-.168 1.288-.392 1.512-.224.28-.672.392-1.232.392h-4.256c-2.8 0-4.76-.504-5.88-1.624-1.12-1.064-1.68-2.968-1.68-5.656v-6.048l-1.848 1.176c-.728.448-1.232.672-1.456.672-.448 0-.616-.336-.616-1.008v-5.208c0-.56.056-.952.28-1.232.168-.224.504-.56 1.064-.952l2.576-1.624V58.712c0-.56.112-.952.392-1.232.28-.224.784-.392 1.512-.392h5.152c.672 0 1.176.168 1.456.392.28.28.448.672.448 1.232v9.072l2.52-1.624c.672-.448 1.176-.672 1.456-.672.392 0 .616.336.616 1.008v5.208c0 .56-.112 1.008-.28 1.232-.224.28-.56.616-1.064.952l-3.248 2.072v10.696c0 .448.056.728.224.84.112.168.392.224.84.224M9.706 126.97v5.888c0 1.058.184 1.794.644 2.208.368.414 1.058.598 2.07.598h.414c1.058 0 1.794-.276 2.254-.92q.552-.828.552-4.002v-1.978c0-2.3-.23-3.726-.598-4.186-.414-.46-1.196-.736-2.3-.736h-.184c-1.058 0-1.794.23-2.254.69-.414.414-.598 1.242-.598 2.438m0-7.682h.092q2.001-1.242 5.244-1.242h.414c2.76 0 4.784.828 6.026 2.484 1.012 1.426 1.564 3.956 1.564 7.59v3.312c0 3.68-.782 6.256-2.346 7.682-1.656 1.564-4.278 2.3-7.866 2.3h-.92c-3.772 0-6.348-.736-7.728-2.254-1.242-1.334-1.84-3.496-1.84-6.532v-21.436c0-.46.092-.782.322-1.012.184-.184.598-.322 1.196-.322h4.278c.552 0 .966.138 1.196.322.23.23.368.552.368 1.012zm28.25 16.192h.506c1.564 0 3.22-.184 4.876-.598.46-.092.736-.138.874-.138.46 0 .736.276.828.782l.368 2.3c.092.644.184 1.058.184 1.242 0 .552-.414.966-1.196 1.242-2.116.736-4.462 1.104-6.946 1.104h-.874q-5.658 0-8.004-2.346c-.92-.874-1.518-1.932-1.84-3.128s-.46-2.806-.46-4.784v-2.576c0-4.002.92-6.808 2.76-8.464 1.564-1.38 3.956-2.07 7.222-2.07h.644c3.22 0 5.566.782 6.946 2.3 1.472 1.656 2.208 4.37 2.208 8.234v2.392c0 .874-.46 1.288-1.334 1.288h-11.04v.368c0 1.104.276 1.84.92 2.254.598.414 1.702.598 3.358.598m-4.278-8.004h5.06c.368 0 .552-.184.552-.598v-.736c0-.92-.184-1.61-.46-2.116-.368-.552-1.104-.828-2.116-.828H36.3c-.92 0-1.564.23-1.932.644q-.69.828-.69 2.484zm23.783-3.174h-7.314c-.46 0-.782-.046-.966-.23s-.23-.552-.23-1.104v-3.174c0-.552.046-.874.23-1.058q.276-.276.966-.276h15.548c.46 0 .782.092 1.012.276.184.184.322.552.322 1.058v.874c0 1.196-.368 2.3-1.012 3.266l-7.912 11.224h7.866c.46 0 .736.092.92.276s.276.506.276 1.058v3.174q0 .828-.276 1.104c-.184.184-.46.23-.92.23H50.147c-.966 0-1.426-.414-1.426-1.334v-1.058c0-1.196.322-2.254 1.012-3.266zm34.555-4.738h3.956c.645 0 1.105.092 1.335.276s.413.552.505 1.104c0 .184.829 4.278 2.439 12.236h.138c.828-4.83 1.564-9.292 2.162-13.432.046-.506.184-.828.368-1.012q.276-.276.966-.276h4.692c.506 0 .828.138 1.012.322.138.23.184.598.092 1.058-.736 3.588-1.656 7.544-2.668 11.868s-1.748 7.038-2.208 8.188c-.184.46-.414.782-.644.92s-.598.184-1.058.184h-5.06c-.967 0-1.565-.322-1.749-1.058-.873-3.128-1.61-7.084-2.254-11.868h-.184c-.597 4.14-1.38 8.096-2.3 11.868-.183.736-.736 1.058-1.656 1.058h-4.968c-.92 0-1.517-.322-1.748-1.012-.46-1.242-1.242-4.094-2.346-8.51a214 214 0 0 1-2.575-11.638c-.139-.506-.093-.874.091-1.058s.552-.322 1.105-.322h4.507c.46 0 .829.092 1.059.276.183.184.322.552.413 1.012.644 4.278 1.38 8.74 2.254 13.432h.184c1.105-5.704 1.886-9.798 2.254-12.236.093-.598.23-.966.46-1.15.23-.138.69-.23 1.426-.23m33.323 19.55h-.092c-1.012 1.564-3.036 2.3-6.026 2.3h-.69c-2.346 0-4.186-.598-5.474-1.794-1.334-1.196-1.978-2.99-1.978-5.29v-.506c0-2.484.69-4.278 2.116-5.29s3.726-1.518 6.946-1.518h.322c1.196 0 2.3.092 3.22.184v-.966c0-.966-.276-1.656-.782-2.024-.552-.322-1.472-.506-2.76-.506-1.564 0-3.312.276-5.336.782-.552.138-.966.138-1.15 0-.23-.138-.368-.414-.414-.874l-.368-2.438c-.092-.414-.092-.736-.092-.92 0-.552.368-.966 1.104-1.196 2.346-.644 4.968-1.012 7.866-1.012 3.542 0 6.072.782 7.544 2.254 1.15 1.196 1.748 3.128 1.748 5.75v13.662c0 .46-.138.828-.368 1.012s-.644.276-1.196.276h-2.162c-.552 0-.92-.046-1.15-.184s-.414-.414-.552-.874zm-1.656-5.888v-1.288q-.759-.138-2.208-.138h-.506q-1.656 0-2.346.414c-.46.276-.644.828-.644 1.656v.184c0 .828.184 1.38.644 1.656.414.322 1.058.46 1.932.46h.322c.92 0 1.61-.23 2.162-.69.414-.368.644-1.15.644-2.254m17.518-12.282h.138c1.012-1.656 2.714-2.484 5.152-2.484h1.84c.46 0 .828.092 1.012.276s.322.506.322 1.012v3.358c0 .506-.092.828-.276 1.012q-.276.276-.966.276h-1.38c-1.702 0-2.852.322-3.496.966-.552.552-.782 1.61-.782 3.174v11.132c0 .46-.138.828-.368 1.012-.23.23-.644.322-1.196.322h-4.232c-.598 0-1.012-.092-1.242-.322-.23-.184-.322-.552-.322-1.012v-19.918c0-.46.092-.782.322-.966s.644-.322 1.242-.322h2.208c.506 0 .874.092 1.104.23q.345.276.552.828zm23.282 11.822v-12.972c0-.46.092-.782.322-1.012.23-.184.644-.322 1.242-.322h4.232c.552 0 .966.138 1.196.322.23.23.368.552.368 1.012v13.616q0 4.209-2.07 6.072c-1.472 1.288-4.048 1.932-7.82 1.932s-6.394-.644-7.82-1.932q-2.07-1.863-2.07-6.072v-13.616c0-.46.092-.782.322-1.012.23-.184.644-.322 1.242-.322h4.232c.552 0 .966.138 1.196.322.23.23.368.552.368 1.012v12.972c0 1.058.138 1.748.506 2.116.368.414 1.012.598 2.024.598.966 0 1.656-.184 2.024-.598.322-.368.506-1.058.506-2.116m23.855-14.72h.368c2.668 0 4.646.644 5.842 1.886 1.104 1.196 1.702 3.22 1.702 6.072v13.662c0 .46-.138.828-.368 1.012-.23.23-.644.322-1.196.322h-4.232c-.598 0-1.012-.092-1.242-.322-.23-.184-.322-.552-.322-1.012v-13.018c0-1.012-.184-1.748-.506-2.116-.368-.368-1.058-.598-2.024-.598h-.276c-1.012 0-1.656.23-2.024.598s-.506 1.104-.506 2.116v13.018c0 .46-.138.828-.368 1.012-.23.23-.644.322-1.196.322h-4.232c-.598 0-1.012-.092-1.242-.322-.23-.184-.322-.552-.322-1.012v-19.918c0-.46.092-.782.322-.966s.644-.322 1.242-.322h2.162c.552 0 .92.092 1.15.23q.345.207.552.828l.276.874h.138c1.472-1.564 3.542-2.346 6.302-2.346m19.653 14.03v7.59c0 .46-.138.828-.368 1.012-.23.23-.644.322-1.196.322h-4.232c-.598 0-1.012-.092-1.242-.322-.23-.184-.322-.552-.322-1.012v-28.474c0-.46.092-.782.322-1.012.23-.184.644-.322 1.242-.322h4.232c.552 0 .966.138 1.196.322.23.23.368.552.368 1.012v14.996h.322l4.37-6.67c.414-.69 1.058-1.058 1.932-1.058h5.336c.506 0 .782.184.782.552 0 .184-.138.506-.368.874l-5.29 7.912c-.414.644-.598 1.104-.598 1.38 0 .322.184.782.598 1.38l5.658 8.924c.184.368.276.598.276.782 0 .506-.322.736-.966.736h-5.106c-.644 0-1.15-.046-1.426-.23q-.414-.207-.828-.966l-4.37-7.728zm21.681-4.14v3.588c0 1.794.276 2.944.828 3.496.414.46 1.058.644 1.932.644h.184c.828 0 1.472-.184 1.932-.644.552-.552.828-1.702.828-3.496v-3.588c0-1.748-.276-2.944-.828-3.496-.46-.414-1.104-.644-1.932-.644h-.184c-.874 0-1.518.23-1.932.644-.552.552-.828 1.748-.828 3.496m13.11.276v2.99c0 2.3-.23 4.048-.69 5.336s-1.196 2.3-2.208 3.082c-1.518 1.196-3.864 1.794-7.084 1.794h-.552c-3.22 0-5.612-.598-7.084-1.794-1.012-.782-1.748-1.794-2.208-3.082s-.69-3.036-.69-5.336v-2.944c0-2.254.23-4.002.69-5.29a6.96 6.96 0 0 1 2.208-3.128c1.472-1.196 3.864-1.794 7.084-1.794h.552c3.22 0 5.566.598 7.084 1.794a7.1 7.1 0 0 1 2.208 3.082c.46 1.288.69 3.036.69 5.29m-14.03-15.824 7.222-6.164c.276-.276.598-.414.874-.414.322 0 .644.23.92.598l2.208 2.852c.184.276.276.506.276.782 0 .368-.276.736-.736 1.104l-7.268 4.968c-.322.23-.644.322-.92.322-.368 0-.736-.184-1.104-.644l-1.38-1.61c-.368-.414-.506-.782-.506-1.058s.138-.552.414-.736m29.745 7.176h3.956c.644 0 1.104.092 1.334.276s.414.552.506 1.104c0 .184.828 4.278 2.438 12.236h.138c.828-4.83 1.564-9.292 2.162-13.432.046-.506.184-.828.368-1.012q.276-.276.966-.276h4.692c.506 0 .828.138 1.012.322.138.23.184.598.092 1.058-.736 3.588-1.656 7.544-2.668 11.868s-1.748 7.038-2.208 8.188c-.184.46-.414.782-.644.92s-.598.184-1.058.184h-5.06c-.966 0-1.564-.322-1.748-1.058-.874-3.128-1.61-7.084-2.254-11.868h-.184c-.598 4.14-1.38 8.096-2.3 11.868-.184.736-.736 1.058-1.656 1.058h-4.968c-.92 0-1.518-.322-1.748-1.012-.46-1.242-1.242-4.094-2.346-8.51a214 214 0 0 1-2.576-11.638c-.138-.506-.092-.874.092-1.058s.552-.322 1.104-.322h4.508c.46 0 .828.092 1.058.276.184.184.322.552.414 1.012.644 4.278 1.38 8.74 2.254 13.432h.184c1.104-5.704 1.886-9.798 2.254-12.236.092-.598.23-.966.46-1.15.23-.138.69-.23 1.426-.23"/></svg>