<svg xmlns="http://www.w3.org/2000/svg" fill="none" viewBox="0 0 507 111"><path fill="#fff" d="M8.004 29.438c1.61-1.564 3.91-2.392 6.854-2.392h.414c2.852 0 4.876.828 6.118 2.392 1.104 1.472 1.656 3.956 1.656 7.544v3.45c0 1.932-.184 3.542-.46 4.738-.322 1.196-.874 2.208-1.656 2.99-1.564 1.518-3.68 2.254-6.44 2.254h-.506q-2.622 0-4.278-.966v7.084c0 .69-.138 1.15-.368 1.334-.276.184-.782.276-1.564.276H4.278c-.782 0-1.288-.092-1.564-.322-.276-.184-.368-.644-.368-1.288v-27.6c0-.552.092-.92.368-1.15.23-.184.644-.322 1.242-.322h1.932c.552 0 .966.092 1.196.184.184.138.368.414.506.782l.322 1.012zm1.702 6.532v5.888c0 1.058.184 1.794.644 2.208.414.414 1.104.598 2.07.598h.414c1.058 0 1.794-.276 2.254-.92q.552-.828.552-4.002v-1.978c0-2.208-.184-3.588-.552-4.094-.46-.552-1.196-.828-2.3-.828h-.322c-1.012 0-1.702.23-2.162.69-.414.414-.598 1.242-.598 2.438m25.536 8.05h1.472c.46 0 .828.138 1.012.322.184.23.322.644.322 1.242v2.852c0 .644-.138 1.058-.322 1.242-.184.23-.552.322-1.012.322h-3.496c-2.3 0-3.91-.414-4.83-1.334-.92-.874-1.38-2.438-1.38-4.646V20.192c0-.46.092-.782.322-1.012.23-.184.644-.322 1.242-.322h4.232c.552 0 .966.138 1.196.322.23.23.368.552.368 1.012v22.954c0 .368.046.598.184.69.092.138.322.184.69.184m17.925-2.254V28.794c0-.46.092-.782.322-1.012.23-.184.644-.322 1.242-.322h4.232c.552 0 .966.138 1.196.322.23.23.368.552.368 1.012V42.41q0 4.209-2.07 6.072c-1.472 1.288-4.048 1.932-7.82 1.932s-6.394-.644-7.82-1.932q-2.07-1.863-2.07-6.072V28.794c0-.46.092-.782.322-1.012.23-.184.644-.322 1.242-.322h4.232c.552 0 .966.138 1.196.322.23.23.368.552.368 1.012v12.972c0 1.058.138 1.748.506 2.116.368.414 1.012.598 2.024.598.966 0 1.656-.184 2.024-.598.322-.368.506-1.058.506-2.116m11.112-6.9v-.598c0-2.254.598-3.956 1.794-5.152 1.38-1.38 3.726-2.07 6.992-2.07h.46c2.576 0 4.83.276 6.716.828q.552.207.69.414c.092.184.138.414.092.782l-.506 3.772c-.092.598-.506.782-1.242.598-1.84-.414-3.496-.644-4.876-.644h-.046c-1.012 0-1.748.092-2.116.276-.414.184-.598.506-.598.966v.138c0 .46.138.782.506.966s1.058.414 2.116.598l2.162.46c1.978.46 3.404 1.15 4.232 2.07s1.242 2.346 1.242 4.232v.69c0 4.83-3.036 7.222-9.016 7.222h-.46c-3.036 0-5.566-.414-7.682-1.242-.414-.138-.69-.322-.782-.552-.092-.184-.092-.552 0-1.058l.644-3.036c.138-.874.644-1.15 1.564-.874 2.116.736 3.956 1.058 5.52 1.058h.138c1.012 0 1.702-.092 2.116-.322.368-.184.598-.552.598-1.058v-.138a.99.99 0 0 0-.506-.874q-.552-.276-2.208-.69l-2.024-.46q-3.036-.69-4.278-2.07c-.828-.92-1.242-2.3-1.242-4.232m40.983 9.154h1.472c.46 0 .828.138 1.012.322.184.23.322.644.322 1.242v2.852c0 .644-.138 1.058-.322 1.242-.184.23-.552.322-1.012.322h-3.496c-2.3 0-3.91-.414-4.83-1.334-.92-.874-1.38-2.438-1.38-4.646v-4.968l-1.518.966c-.598.368-1.012.552-1.196.552-.368 0-.506-.276-.506-.828v-4.278c0-.46.046-.782.23-1.012.138-.184.414-.46.874-.782l2.116-1.334V20.192c0-.46.092-.782.322-1.012.23-.184.644-.322 1.242-.322h4.232c.552 0 .966.138 1.196.322.23.23.368.552.368 1.012v7.452l2.07-1.334c.552-.368.966-.552 1.196-.552.322 0 .506.276.506.828v4.278c0 .46-.092.828-.23 1.012-.184.23-.46.506-.874.782l-2.668 1.702v8.786c0 .368.046.598.184.69.092.138.322.184.69.184m19.134 4.094h-.092c-1.012 1.564-3.036 2.3-6.026 2.3h-.69c-2.346 0-4.186-.598-5.474-1.794-1.334-1.196-1.978-2.99-1.978-5.29v-.506c0-2.484.69-4.278 2.116-5.29s3.726-1.518 6.946-1.518h.322c1.196 0 2.3.092 3.22.184v-.966c0-.966-.276-1.656-.782-2.024-.552-.322-1.472-.506-2.76-.506-1.564 0-3.312.276-5.336.782-.552.138-.966.138-1.15 0-.23-.138-.368-.414-.414-.874l-.368-2.438c-.092-.46-.092-.782-.092-.92 0-.552.368-.966 1.104-1.196 2.346-.644 4.968-1.012 7.866-1.012 3.542 0 6.072.782 7.544 2.254 1.15 1.196 1.748 3.128 1.748 5.75v13.662c0 .69-.276 1.104-.736 1.288-1.15.46-2.116 1.104-2.852 1.932-.782.828-1.15 1.702-1.15 2.576v.138q0 1.242 1.242 1.242h.138a5.7 5.7 0 0 0 1.978-.368c.23-.046.414-.092.552-.092.23 0 .414.23.552.598l.23.966c.138.644.23.966.23 1.058 0 .276-.23.506-.644.69q-1.794.69-3.726.69h-.276c-1.564 0-2.806-.322-3.634-1.012s-1.242-1.656-1.242-2.852v-.23c0-1.104.368-2.162 1.15-3.174.736-1.012 1.748-1.84 2.944-2.484zm-1.656-5.888v-1.288q-.759-.138-2.208-.138h-.506q-1.656 0-2.346.414c-.46.276-.644.828-.644 1.656v.184c0 .828.184 1.38.644 1.656.414.322 1.058.46 1.932.46h.322c.92 0 1.61-.23 2.162-.69.414-.368.644-1.15.644-2.254m22.481 2.254h.368c1.242 0 2.576-.184 4.002-.598.46-.092.736-.138.874-.138.46 0 .736.276.828.782l.414 2.346c.092.644.184 1.058.184 1.242 0 .552-.414.966-1.196 1.242-2.024.736-4.232 1.058-6.624 1.058h-.552c-3.312 0-5.75-.736-7.268-2.3q-2.346-2.346-2.346-7.866V37.58c0-2.162.184-3.864.552-5.06q.552-1.794 1.794-3.036c1.61-1.61 4.14-2.438 7.59-2.438h.46c2.76 0 5.152.506 7.084 1.518.552.322.874.69.874 1.15 0 .276-.138.736-.368 1.38l-.874 2.208q-.345.828-.966.828c-.184 0-.46-.046-.828-.23-1.472-.598-2.852-.92-4.094-.92h-.184c-1.196 0-2.07.322-2.622.874-.69.69-1.012 2.116-1.012 4.232v1.564c0 1.886.276 3.174.92 3.864.598.644 1.61.966 2.99.966m17.807-11.178h-7.314c-.46 0-.782-.046-.966-.23s-.23-.552-.23-1.104v-3.174c0-.552.046-.874.23-1.058q.276-.276.966-.276h15.548c.46 0 .782.092 1.012.276.184.184.322.552.322 1.058v.874c0 1.196-.368 2.3-1.012 3.266l-7.912 11.224h7.866c.46 0 .736.092.92.276s.276.506.276 1.058v3.174q0 .828-.276 1.104c-.184.184-.46.23-.92.23h-15.824c-.966 0-1.426-.414-1.426-1.334v-1.058c0-1.196.322-2.254 1.012-3.266zm24.95-6.256h.368c2.668 0 4.646.644 5.842 1.886 1.104 1.196 1.702 3.22 1.702 6.072v13.662c0 .46-.138.828-.368 1.012-.23.23-.644.322-1.196.322h-4.232c-.598 0-1.012-.092-1.242-.322-.23-.184-.322-.552-.322-1.012V35.648c0-1.012-.184-1.748-.506-2.116-.368-.368-1.058-.598-2.024-.598h-.276c-1.012 0-1.656.23-2.024.598s-.506 1.104-.506 2.116v13.018c0 .46-.138.828-.368 1.012-.23.23-.644.322-1.196.322h-4.232c-.598 0-1.012-.092-1.242-.322-.23-.184-.322-.552-.322-1.012V28.748c0-.46.092-.782.322-.966s.644-.322 1.242-.322h2.162c.552 0 .92.092 1.15.23q.345.207.552.828l.276.874h.138c1.472-1.564 3.542-2.346 6.302-2.346m19.746 1.748v19.872c0 .46-.138.828-.368 1.012-.23.23-.644.322-1.196.322h-4.232c-.598 0-1.012-.092-1.242-.322-.23-.184-.322-.552-.322-1.012V28.794c0-.46.092-.782.322-1.012.23-.184.644-.322 1.242-.322h4.232c.552 0 .966.138 1.196.322.23.23.368.552.368 1.012m-3.404-3.082h-.552c-2.484 0-3.726-1.242-3.726-3.818v-.23c0-2.53 1.242-3.818 3.726-3.818h.552c2.484 0 3.726 1.288 3.726 3.818v.23c0 2.576-1.242 3.818-3.726 3.818m19.119 18.768h.506c1.564 0 3.22-.184 4.876-.598.46-.092.736-.138.874-.138.46 0 .736.276.828.782l.368 2.3c.092.644.184 1.058.184 1.242 0 .552-.414.966-1.196 1.242-2.116.736-4.462 1.104-6.946 1.104h-.874q-5.658 0-8.004-2.346c-.92-.874-1.518-1.932-1.84-3.128s-.46-2.806-.46-4.784V37.58c0-4.002.92-6.808 2.76-8.464 1.564-1.38 3.956-2.07 7.222-2.07h.644c3.22 0 5.566.782 6.946 2.3 1.472 1.656 2.208 4.37 2.208 8.234v2.392c0 .874-.46 1.288-1.334 1.288h-11.04v.368c0 1.104.276 1.84.92 2.254.598.414 1.702.598 3.358.598m-4.278-8.004h5.06c.368 0 .552-.184.552-.598v-.736c0-.92-.184-1.61-.46-2.116-.368-.552-1.104-.828-2.116-.828h-.414c-.92 0-1.564.23-1.932.644q-.69.828-.69 2.484zm39.367-6.3h.448c1.792 0 3.304-.336 4.592-1.008v-.784c0-3.08-.336-5.152-.952-6.216s-1.736-1.624-3.416-1.624h-.504q-4.2 0-4.2 4.536v.504c0 1.68.28 2.856.952 3.528.672.728 1.68 1.064 3.08 1.064M248.392 48.88c-.672-.224-.952-.616-.952-1.288q0-.336.168-1.008l.896-3.584c.224-.896.896-1.232 1.904-.952 2.688.84 5.04 1.232 7.056 1.232h.168c2.016 0 3.416-.504 4.312-1.624q1.344-1.596 1.512-5.04c-1.848.784-3.864 1.12-6.048 1.12h-.616c-3.976 0-6.832-.952-8.624-2.968-1.792-1.96-2.632-4.984-2.632-9.016v-.784c0-3.584 1.064-6.44 3.248-8.568 2.184-2.072 5.376-3.136 9.576-3.136h.784c5.04 0 8.624 1.344 10.64 3.92s3.08 6.832 3.08 12.768v1.344c0 3.192-.28 5.936-.84 8.288s-1.288 4.256-2.184 5.6a10.1 10.1 0 0 1-3.416 3.304c-1.344.84-2.688 1.4-4.032 1.624-1.344.28-2.912.392-4.648.392h-.056c-3.248 0-6.384-.504-9.296-1.624m66.353-16.352v15.848c0 .56-.168 1.008-.448 1.232-.28.28-.784.392-1.456.392h-5.152c-.728 0-1.232-.112-1.512-.392-.28-.224-.392-.672-.392-1.232V32.528c0-1.232-.224-2.128-.616-2.576-.448-.448-1.288-.728-2.464-.728h-.112c-1.232 0-2.016.28-2.464.728s-.616 1.344-.616 2.576v15.848c0 .56-.168 1.008-.448 1.232-.28.28-.784.392-1.456.392h-5.152c-.728 0-1.232-.112-1.512-.392-.28-.224-.392-.672-.392-1.232V24.128c0-.56.112-.952.392-1.176s.784-.392 1.512-.392h2.632c.672 0 1.12.112 1.4.28q.42.252.672 1.008l.336 1.064h.168c1.792-1.904 4.312-2.856 7.672-2.856h.224c3.192 0 5.656.896 7.392 2.576 1.792-1.68 4.368-2.576 7.616-2.576h.224c3.248 0 5.656.784 7.112 2.296 1.344 1.456 2.072 3.92 2.072 7.392v16.632c0 .56-.168 1.008-.448 1.232-.28.28-.784.392-1.456.392h-5.152c-.728 0-1.232-.112-1.512-.392-.28-.224-.392-.672-.392-1.232V32.528c0-1.232-.224-2.128-.616-2.576-.448-.448-1.288-.728-2.464-.728h-.112c-1.232 0-2.016.28-2.464.728s-.616 1.344-.616 2.576m29.615-8.344v24.192c0 .56-.168 1.008-.448 1.232-.28.28-.784.392-1.456.392h-5.152c-.728 0-1.232-.112-1.512-.392-.28-.224-.392-.672-.392-1.232V24.184c0-.56.112-.952.392-1.232.28-.224.784-.392 1.512-.392h5.152c.672 0 1.176.168 1.456.392.28.28.448.672.448 1.232m-4.144-3.752h-.672c-3.024 0-4.536-1.512-4.536-4.648v-.28c0-3.08 1.512-4.648 4.536-4.648h.672c3.024 0 4.536 1.568 4.536 4.648v.28c0 3.136-1.512 4.648-4.536 4.648m23.275 22.848h.616c1.904 0 3.92-.224 5.936-.728.56-.112.896-.168 1.064-.168.56 0 .896.336 1.008.952l.448 2.8c.112.784.224 1.288.224 1.512 0 .672-.504 1.176-1.456 1.512-2.576.896-5.432 1.344-8.456 1.344h-1.064q-6.888 0-9.744-2.856c-1.12-1.064-1.848-2.352-2.24-3.808s-.56-3.416-.56-5.824V34.88c0-4.872 1.12-8.288 3.36-10.304 1.904-1.68 4.816-2.52 8.792-2.52h.784c3.92 0 6.776.952 8.456 2.8 1.792 2.016 2.688 5.32 2.688 10.024v2.912c0 1.064-.56 1.568-1.624 1.568h-13.44v.448c0 1.344.336 2.24 1.12 2.744.728.504 2.072.728 4.088.728m-5.208-9.744h6.16c.448 0 .672-.224.672-.728v-.896c0-1.12-.224-1.96-.56-2.576-.448-.672-1.344-1.008-2.576-1.008h-.504c-1.12 0-1.904.28-2.352.784q-.84 1.008-.84 3.024zm19.097-1.96v-.728c0-2.744.728-4.816 2.184-6.272 1.68-1.68 4.536-2.52 8.512-2.52h.56c3.136 0 5.88.336 8.176 1.008q.672.252.84.504c.112.224.168.504.112.952l-.616 4.592c-.112.728-.616.952-1.512.728-2.24-.504-4.256-.784-5.936-.784h-.056c-1.232 0-2.128.112-2.576.336-.504.224-.728.616-.728 1.176v.168c0 .56.168.952.616 1.176s1.288.504 2.576.728l2.632.56c2.408.56 4.144 1.4 5.152 2.52s1.512 2.856 1.512 5.152v.84c0 5.88-3.696 8.792-10.976 8.792h-.56c-3.696 0-6.776-.504-9.352-1.512-.504-.168-.84-.392-.952-.672-.112-.224-.112-.672 0-1.288l.784-3.696c.168-1.064.784-1.4 1.904-1.064 2.576.896 4.816 1.288 6.72 1.288h.168c1.232 0 2.072-.112 2.576-.392.448-.224.728-.672.728-1.288v-.168a1.2 1.2 0 0 0-.616-1.064q-.672-.336-2.688-.84l-2.464-.56q-3.696-.84-5.208-2.52c-1.008-1.12-1.512-2.8-1.512-5.152m35.175-7.392v24.192c0 .56-.168 1.008-.448 1.232-.28.28-.784.392-1.456.392h-5.152c-.728 0-1.232-.112-1.512-.392-.28-.224-.392-.672-.392-1.232V24.184c0-.56.112-.952.392-1.232.28-.224.784-.392 1.512-.392h5.152c.672 0 1.176.168 1.456.392.28.28.448.672.448 1.232m-4.144-3.752h-.672c-3.024 0-4.536-1.512-4.536-4.648v-.28c0-3.08 1.512-4.648 4.536-4.648h.672c3.024 0 4.536 1.568 4.536 4.648v.28c0 3.136-1.512 4.648-4.536 4.648m23.275 22.848h.616c1.904 0 3.92-.224 5.936-.728.56-.112.896-.168 1.064-.168.56 0 .896.336 1.008.952l.448 2.8c.112.784.224 1.288.224 1.512 0 .672-.504 1.176-1.456 1.512-1.456.56-2.632 1.456-3.584 2.688s-1.4 2.464-1.4 3.584v.168c0 1.064.504 1.568 1.512 1.568h.28c.616 0 1.4-.112 2.296-.448.28-.056.504-.112.672-.112.28 0 .504.28.672.728l.28 1.176c.168.784.28 1.176.28 1.288 0 .336-.28.616-.784.84a12.5 12.5 0 0 1-4.536.84h-.336c-1.96 0-3.416-.392-4.424-1.232s-1.512-2.016-1.512-3.584v-.168c0-1.008.336-2.128 1.064-3.248s1.68-2.016 2.912-2.8c-.448.056-1.064.056-1.848.056h-1.064q-6.888 0-9.744-2.856c-1.12-1.064-1.848-2.352-2.24-3.808s-.56-3.416-.56-5.824V34.88c0-4.872 1.12-8.288 3.36-10.304 1.904-1.68 4.816-2.52 8.792-2.52h.784c3.92 0 6.776.952 8.456 2.8 1.792 2.016 2.688 5.32 2.688 10.024v2.912c0 1.064-.56 1.568-1.624 1.568h-13.44v.448c0 1.344.336 2.24 1.12 2.744.728.504 2.072.728 4.088.728m-5.208-9.744h6.16c.448 0 .672-.224.672-.728v-.896c0-1.12-.224-1.96-.56-2.576-.448-.672-1.344-1.008-2.576-1.008h-.504c-1.12 0-1.904.28-2.352.784q-.84 1.008-.84 3.024zm32.705 9.744h.448c1.512 0 3.136-.224 4.872-.728.56-.112.896-.168 1.064-.168.56 0 .896.336 1.008.952l.504 2.856c.112.784.224 1.288.224 1.512 0 .672-.504 1.176-1.456 1.512-2.464.896-5.152 1.288-8.064 1.288h-.672c-4.032 0-7-.896-8.848-2.8q-2.856-2.856-2.856-9.576V34.88c0-2.632.224-4.704.672-6.16q.672-2.184 2.184-3.696c1.96-1.96 5.04-2.968 9.24-2.968h.56c3.36 0 6.272.616 8.624 1.848.672.392 1.064.84 1.064 1.4 0 .336-.168.896-.448 1.68l-1.064 2.688q-.42 1.008-1.176 1.008c-.224 0-.56-.056-1.008-.28-1.792-.728-3.472-1.12-4.984-1.12h-.224c-1.456 0-2.52.392-3.192 1.064-.84.84-1.232 2.576-1.232 5.152V37.4c0 2.296.336 3.864 1.12 4.704.728.784 1.96 1.176 3.64 1.176m37.278-19.04c-.784 5.264-2.24 11.088-4.368 17.528-2.184 6.44-4.816 12.544-7.896 18.256-.392.784-.896 1.176-1.568 1.176-.448 0-.952-.112-1.624-.448l-2.856-1.232c-1.008-.448-1.456-.896-1.456-1.4 0-.224.056-.56.28-.952 1.904-3.864 3.024-6.104 3.248-6.72-1.568-.56-2.744-1.792-3.64-3.808-1.008-2.24-2.184-5.656-3.472-10.36q-1.932-7.056-2.856-12.096c-.112-.56-.056-.952.224-1.232.28-.224.784-.392 1.456-.392h5.096c.616 0 1.064.112 1.344.28s.504.504.616 1.064c1.288 7.056 2.744 13.328 4.368 18.76h.28c1.568-4.48 3.024-10.64 4.368-18.592q.084-.84.504-1.176c.28-.224.728-.336 1.288-.336h5.152c.616 0 1.064.168 1.288.392s.28.672.224 1.288M12.282 101.414h-.552c-3.22 0-6.026-.414-8.418-1.288-1.012-.322-1.472-.92-1.288-1.84l.598-3.726c.092-.92.644-1.242 1.61-.92 2.668.966 5.152 1.426 7.36 1.426h.23c1.38 0 2.392-.184 2.99-.598.552-.368.874-1.058.874-2.024v-.46c0-.92-.276-1.518-.736-1.886-.506-.322-1.472-.644-2.898-.92l-3.128-.598c-2.576-.46-4.416-1.38-5.428-2.668-1.058-1.288-1.564-3.082-1.564-5.428v-1.288c0-2.576.69-4.508 2.07-5.888 1.656-1.656 4.738-2.484 9.154-2.484h.322c3.082 0 5.704.414 7.82 1.196.46.184.782.46.92.736.092.322.092.782-.046 1.334l-.782 3.358c-.184.828-.782 1.104-1.702.782q-3.174-.966-6.072-.966h-.184c-1.518 0-2.576.184-3.128.506-.598.368-.874.966-.874 1.794v.414c0 .736.184 1.288.598 1.564.368.322 1.196.598 2.392.828l3.496.69c2.76.552 4.646 1.426 5.704 2.53 1.012 1.104 1.564 3.036 1.564 5.75v1.104c0 3.128-.874 5.382-2.576 6.808-1.702 1.472-4.462 2.162-8.326 2.162m20.654-20.976c1.61-1.564 3.91-2.392 6.854-2.392h.414c2.852 0 4.876.828 6.118 2.392 1.104 1.472 1.656 3.956 1.656 7.544v3.45c0 1.932-.184 3.542-.46 4.738-.322 1.196-.874 2.208-1.656 2.99-1.564 1.518-3.68 2.254-6.44 2.254h-.506q-2.622 0-4.278-.966v7.084c0 .69-.138 1.15-.368 1.334-.276.184-.782.276-1.564.276H29.21c-.782 0-1.288-.092-1.564-.322-.276-.184-.368-.644-.368-1.288v-27.6c0-.552.092-.92.368-1.15.23-.184.644-.322 1.242-.322h1.932c.552 0 .966.092 1.196.184.184.138.368.414.506.782l.322 1.012zm1.702 6.532v5.888c0 1.058.184 1.794.644 2.208.414.414 1.104.598 2.07.598h.414c1.058 0 1.794-.276 2.254-.92q.552-.828.552-4.002v-1.978c0-2.208-.184-3.588-.552-4.094-.46-.552-1.196-.828-2.3-.828h-.322c-1.012 0-1.702.23-2.162.69-.414.414-.598 1.242-.598 2.438m23.972.966v3.588c0 1.794.276 2.944.828 3.496.414.46 1.058.644 1.932.644h.184c.828 0 1.472-.184 1.932-.644.552-.552.828-1.702.828-3.496v-3.588c0-1.748-.276-2.944-.828-3.496-.46-.414-1.104-.644-1.932-.644h-.184c-.874 0-1.518.23-1.932.644-.552.552-.828 1.748-.828 3.496m13.11.276v2.99c0 2.3-.23 4.048-.69 5.336s-1.196 2.3-2.208 3.082c-1.518 1.196-3.864 1.794-7.084 1.794h-.552c-3.22 0-5.612-.598-7.084-1.794-1.012-.782-1.748-1.794-2.208-3.082s-.69-3.036-.69-5.336v-2.944c0-2.254.23-4.002.69-5.29a6.96 6.96 0 0 1 2.208-3.128c1.472-1.196 3.864-1.794 7.084-1.794h.552c3.22 0 5.566.598 7.084 1.794a7.1 7.1 0 0 1 2.208 3.082c.46 1.288.69 3.036.69 5.29m18.337 8.464v2.622c0 .69-.139 1.15-.323 1.38-.183.23-.597.322-1.15.322h-3.68c-3.311 0-5.52-.552-6.531-1.702-.92-.966-1.335-2.806-1.335-5.566V84.21h-2.483c-.46 0-.737-.046-.92-.23s-.23-.46-.23-.92v-2.346c0-.552.046-.92.23-1.104.137-.184.46-.322.965-.46l2.439-.598v-4.508c0-.46.091-.782.322-1.012.23-.184.643-.322 1.242-.322h4.232c.552 0 .966.138 1.196.322.23.23.367.552.367 1.012v4.416h3.819c.46 0 .736.092.92.276.183.184.275.506.275 1.058v3.082q0 .828-.276 1.104c-.183.184-.46.23-.92.23H84.4v8.694c0 .828.091 1.334.367 1.61.276.322.874.46 1.794.46h2.025c.552 0 .966.138 1.15.368s.322.69.322 1.334m10.932-16.882v19.872c0 .46-.138.828-.368 1.012-.23.23-.644.322-1.196.322h-4.232c-.598 0-1.012-.092-1.242-.322-.23-.184-.322-.552-.322-1.012V79.794c0-.46.092-.782.322-1.012.23-.184.644-.322 1.242-.322h4.232c.552 0 .966.138 1.196.322.23.23.368.552.368 1.012m-3.404-3.082h-.552c-2.484 0-3.726-1.242-3.726-3.818v-.23c0-2.53 1.242-3.818 3.726-3.818h.552c2.484 0 3.726 1.288 3.726 3.818v.23c0 2.576-1.242 3.818-3.726 3.818m9.551 7.498h-2.484c-.46 0-.782-.046-.92-.184-.184-.138-.23-.46-.23-.966v-2.254c0-.552.046-.966.184-1.15s.46-.368 1.012-.506l2.438-.598v-1.978c0-2.576.598-4.416 1.84-5.474q1.932-1.656 6.072-1.656h.46c1.84 0 3.404.184 4.784.506.46.138.782.322.92.552.092.23.138.598.092 1.104l-.276 2.898c-.092.46-.184.736-.322.828-.184.092-.506.138-1.012.092-1.196-.092-2.024-.184-2.576-.184h-.276c-1.012 0-1.61.138-1.886.414-.322.322-.46.874-.46 1.61v1.196h3.818c.46 0 .736.092.92.276s.276.506.276 1.058v3.082q0 .828-.276 1.104c-.184.184-.46.23-.92.23h-3.818v15.456c0 .46-.138.828-.368 1.012-.23.23-.644.322-1.196.322H108.7c-.598 0-1.012-.092-1.242-.322-.23-.184-.322-.552-.322-1.012zm35.329-4.37c-.644 4.324-1.84 9.108-3.588 14.398-1.794 5.29-3.956 10.304-6.486 14.996-.322.644-.736.966-1.288.966-.368 0-.782-.092-1.334-.368l-2.346-1.012c-.828-.368-1.196-.736-1.196-1.15 0-.184.046-.46.23-.782 1.564-3.174 2.484-5.014 2.668-5.52-1.288-.46-2.254-1.472-2.99-3.128-.828-1.84-1.794-4.646-2.852-8.51q-1.587-5.796-2.346-9.936c-.092-.46-.046-.782.184-1.012.23-.184.644-.322 1.196-.322h4.186c.506 0 .874.092 1.104.23s.414.414.506.874c1.058 5.796 2.254 10.948 3.588 15.41h.23c1.288-3.68 2.484-8.74 3.588-15.272q.069-.69.414-.966c.23-.184.598-.276 1.058-.276h4.232c.506 0 .874.138 1.058.322s.23.552.184 1.058m23.976-2.806h-.598c-.644 0-1.288.046-2.024.092-.276.046-.368.23-.368.552v7.268h2.392c1.656 0 2.76-.23 3.404-.782.552-.46.828-1.334.828-2.714V80.3c0-1.104-.276-1.932-.782-2.438-.552-.552-1.518-.828-2.852-.828m-2.99 14.214v8.326c0 .966-.552 1.426-1.61 1.426h-4.508c-.598 0-1.012-.092-1.242-.322-.276-.184-.368-.552-.368-1.104v-26.45q0-1.104.414-1.518c.276-.276.782-.46 1.61-.552 1.656-.138 4.232-.23 7.774-.23h.552c4.692 0 7.912.92 9.706 2.714 1.38 1.472 2.07 3.68 2.07 6.67v1.564c0 3.45-.966 5.888-2.898 7.268-2.024 1.472-5.106 2.208-9.292 2.208zm23.57-10.304h.138c1.012-1.656 2.714-2.484 5.152-2.484h1.84c.46 0 .828.092 1.012.276s.322.506.322 1.012v3.358c0 .506-.092.828-.276 1.012q-.276.276-.966.276h-1.38c-1.702 0-2.852.322-3.496.966-.552.552-.782 1.61-.782 3.174v11.132c0 .46-.138.828-.368 1.012-.23.23-.644.322-1.196.322h-4.232c-.598 0-1.012-.092-1.242-.322-.23-.184-.322-.552-.322-1.012V79.748c0-.46.092-.782.322-.966s.644-.322 1.242-.322h2.208c.506 0 .874.092 1.104.23q.345.276.552.828zm21.953 14.536h.506c1.564 0 3.22-.184 4.876-.598.46-.092.736-.138.874-.138.46 0 .736.276.828.782l.368 2.3c.092.644.184 1.058.184 1.242 0 .552-.414.966-1.196 1.242-2.116.736-4.462 1.104-6.946 1.104h-.874q-5.658 0-8.004-2.346c-.92-.874-1.518-1.932-1.84-3.128s-.46-2.806-.46-4.784V88.58c0-4.002.92-6.808 2.76-8.464 1.564-1.38 3.956-2.07 7.222-2.07h.644c3.22 0 5.566.782 6.946 2.3 1.472 1.656 2.208 4.37 2.208 8.234v2.392c0 .874-.46 1.288-1.334 1.288h-11.04v.368c0 1.104.276 1.84.92 2.254.598.414 1.702.598 3.358.598m-4.278-8.004h5.06c.368 0 .552-.184.552-.598v-.736c0-.92-.184-1.61-.46-2.116-.368-.552-1.104-.828-2.116-.828h-.414c-.92 0-1.564.23-1.932.644q-.69.828-.69 2.484zm36.157-.828v13.018c0 .46-.138.828-.368 1.012-.23.23-.644.322-1.196.322h-4.232c-.598 0-1.012-.092-1.242-.322-.23-.184-.322-.552-.322-1.012V86.648c0-1.012-.184-1.748-.506-2.116-.368-.368-1.058-.598-2.024-.598h-.092c-1.012 0-1.656.23-2.024.598s-.506 1.104-.506 2.116v13.018c0 .46-.138.828-.368 1.012-.23.23-.644.322-1.196.322h-4.232c-.598 0-1.012-.092-1.242-.322-.23-.184-.322-.552-.322-1.012V79.748c0-.46.092-.782.322-.966s.644-.322 1.242-.322h2.162c.552 0 .92.092 1.15.23q.345.207.552.828l.276.874h.138c1.472-1.564 3.542-2.346 6.302-2.346h.184c2.622 0 4.646.736 6.072 2.116 1.472-1.38 3.588-2.116 6.256-2.116h.184c2.668 0 4.646.644 5.842 1.886 1.104 1.196 1.702 3.22 1.702 6.072v13.662c0 .46-.138.828-.368 1.012-.23.23-.644.322-1.196.322h-4.232c-.598 0-1.012-.092-1.242-.322-.23-.184-.322-.552-.322-1.012V86.648c0-1.012-.184-1.748-.506-2.116-.368-.368-1.058-.598-2.024-.598h-.092c-1.012 0-1.656.23-2.024.598s-.506 1.104-.506 2.116m24.326-6.854v19.872c0 .46-.138.828-.368 1.012-.23.23-.644.322-1.196.322h-4.232c-.598 0-1.012-.092-1.242-.322-.23-.184-.322-.552-.322-1.012V79.794c0-.46.092-.782.322-1.012.23-.184.644-.322 1.242-.322h4.232c.552 0 .966.138 1.196.322.23.23.368.552.368 1.012m-3.404-3.082h-.552c-2.484 0-3.726-1.242-3.726-3.818v-.23c0-2.53 1.242-3.818 3.726-3.818h.552c2.484 0 3.726 1.288 3.726 3.818v.23c0 2.576-1.242 3.818-3.726 3.818m20.269 16.054V79.794c0-.46.092-.782.322-1.012.23-.184.644-.322 1.242-.322h4.232c.552 0 .966.138 1.196.322.23.23.368.552.368 1.012V93.41q0 4.209-2.07 6.072c-1.472 1.288-4.048 1.932-7.82 1.932s-6.394-.644-7.82-1.932q-2.07-1.863-2.07-6.072V79.794c0-.46.092-.782.322-1.012.23-.184.644-.322 1.242-.322h4.232c.552 0 .966.138 1.196.322.23.23.368.552.368 1.012v12.972c0 1.058.138 1.748.506 2.116.368.414 1.012.598 2.024.598.966 0 1.656-.184 2.024-.598.322-.368.506-1.058.506-2.116m31.582-6.118v13.018c0 .46-.138.828-.368 1.012-.23.23-.644.322-1.196.322h-4.232c-.598 0-1.012-.092-1.242-.322-.23-.184-.322-.552-.322-1.012V86.648c0-1.012-.184-1.748-.506-2.116-.368-.368-1.058-.598-2.024-.598h-.092c-1.012 0-1.656.23-2.024.598s-.506 1.104-.506 2.116v13.018c0 .46-.138.828-.368 1.012-.23.23-.644.322-1.196.322h-4.232c-.598 0-1.012-.092-1.242-.322-.23-.184-.322-.552-.322-1.012V79.748c0-.46.092-.782.322-.966s.644-.322 1.242-.322h2.162c.552 0 .92.092 1.15.23q.345.207.552.828l.276.874h.138c1.472-1.564 3.542-2.346 6.302-2.346h.184c2.622 0 4.646.736 6.072 2.116 1.472-1.38 3.588-2.116 6.256-2.116h.184c2.668 0 4.646.644 5.842 1.886 1.104 1.196 1.702 3.22 1.702 6.072v13.662c0 .46-.138.828-.368 1.012-.23.23-.644.322-1.196.322h-4.232c-.598 0-1.012-.092-1.242-.322-.23-.184-.322-.552-.322-1.012V86.648c0-1.012-.184-1.748-.506-2.116-.368-.368-1.058-.598-2.024-.598h-.092c-1.012 0-1.656.23-2.024.598s-.506 1.104-.506 2.116m37.013 12.236h-1.242c-6.532 0-9.752-2.944-9.752-8.878v-3.082c0-3.036.782-5.244 2.392-6.716 1.564-1.426 4.002-2.162 7.222-2.162h.644c.598-3.312 3.036-5.014 7.36-5.014h2.254c.46 0 .736.092.92.23.138.184.23.506.23.966v2.53c0 .46-.092.736-.276.874-.184.184-.506.23-.92.23h-2.162c-1.012 0-1.702.23-2.116.69 3.45.92 5.198 3.726 5.198 8.372v3.082c0 3.312-.92 5.52-2.714 6.716 1.196.644 2.116 1.472 2.806 2.484s1.058 2.116 1.058 3.266v.322c0 4.554-3.634 6.808-10.81 6.808h-.874c-3.128 0-6.164-.552-9.016-1.656-.828-.276-1.15-.874-.92-1.748l.828-2.944c.23-.874.782-1.196 1.656-.92 2.714.92 5.106 1.334 7.222 1.334h.644q4.002 0 4.002-2.346v-.138c0-.874-.46-1.656-1.38-2.392-.736.092-1.518.092-2.254.092m-.782-5.75h.322c1.012 0 1.702-.184 2.162-.644.506-.506.782-1.564.782-3.128v-1.794c0-1.564-.276-2.576-.782-3.128-.46-.414-1.15-.644-2.162-.644h-.322c-1.012 0-1.748.23-2.162.644-.552.552-.782 1.564-.782 3.128v1.794c0 1.564.23 2.622.782 3.128.414.46 1.15.644 2.162.644m20.445-12.19h.138c1.012-1.656 2.714-2.484 5.152-2.484h1.84c.46 0 .828.092 1.012.276s.322.506.322 1.012v3.358c0 .506-.092.828-.276 1.012q-.276.276-.966.276h-1.38c-1.702 0-2.852.322-3.496.966-.552.552-.782 1.61-.782 3.174v11.132c0 .46-.138.828-.368 1.012-.23.23-.644.322-1.196.322h-4.232c-.598 0-1.012-.092-1.242-.322-.23-.184-.322-.552-.322-1.012V79.748c0-.46.092-.782.322-.966s.644-.322 1.242-.322h2.208c.506 0 .874.092 1.104.23q.345.276.552.828zm23.76 18.17h-.092c-1.012 1.564-3.036 2.3-6.026 2.3h-.69c-2.346 0-4.186-.598-5.474-1.794-1.334-1.196-1.978-2.99-1.978-5.29v-.506c0-2.484.69-4.278 2.116-5.29s3.726-1.518 6.946-1.518h.322c1.196 0 2.3.092 3.22.184v-.966c0-.966-.276-1.656-.782-2.024-.552-.322-1.472-.506-2.76-.506-1.564 0-3.312.276-5.336.782-.552.138-.966.138-1.15 0-.23-.138-.368-.414-.414-.874l-.368-2.438c-.092-.414-.092-.736-.092-.92 0-.552.368-.966 1.104-1.196 2.346-.644 4.968-1.012 7.866-1.012 3.542 0 6.072.782 7.544 2.254 1.15 1.196 1.748 3.128 1.748 5.75v13.662c0 .46-.138.828-.368 1.012s-.644.276-1.196.276h-2.162c-.552 0-.92-.046-1.15-.184s-.414-.414-.552-.874zm-1.656-5.888v-1.288q-.759-.138-2.208-.138h-.506q-1.656 0-2.346.414c-.46.276-.644.828-.644 1.656v.184c0 .828.184 1.38.644 1.656.414.322 1.058.46 1.932.46h.322c.92 0 1.61-.23 2.162-.69.414-.368.644-1.15.644-2.254m26.119 3.45v2.622c0 .69-.138 1.15-.322 1.38s-.598.322-1.15.322h-3.68c-3.312 0-5.52-.552-6.532-1.702-.92-.966-1.334-2.806-1.334-5.566V84.21h-2.484c-.46 0-.736-.046-.92-.23s-.23-.46-.23-.92v-2.346c0-.552.046-.92.23-1.104.138-.184.46-.322.966-.46l2.438-.598v-4.508c0-.46.092-.782.322-1.012.23-.184.644-.322 1.242-.322h4.232c.552 0 .966.138 1.196.322.23.23.368.552.368 1.012v4.416h3.818c.46 0 .736.092.92.276s.276.506.276 1.058v3.082q0 .828-.276 1.104c-.184.184-.46.23-.92.23h-3.818v8.694c0 .828.092 1.334.368 1.61.276.322.874.46 1.794.46h2.024c.552 0 .966.138 1.15.368s.322.69.322 1.334m10.933-16.882v19.872c0 .46-.138.828-.368 1.012-.23.23-.644.322-1.196.322h-4.232c-.598 0-1.012-.092-1.242-.322-.23-.184-.322-.552-.322-1.012V79.794c0-.46.092-.782.322-1.012.23-.184.644-.322 1.242-.322h4.232c.552 0 .966.138 1.196.322.23.23.368.552.368 1.012m-3.404-3.082h-.552c-2.484 0-3.726-1.242-3.726-3.818v-.23c0-2.53 1.242-3.818 3.726-3.818h.552c2.484 0 3.726 1.288 3.726 3.818v.23c0 2.576-1.242 3.818-3.726 3.818m7.573 9.154v-.598c0-2.254.598-3.956 1.794-5.152 1.38-1.38 3.726-2.07 6.992-2.07h.46c2.576 0 4.83.276 6.716.828q.552.207.69.414c.092.184.138.414.092.782l-.506 3.772c-.092.598-.506.782-1.242.598-1.84-.414-3.496-.644-4.876-.644h-.046c-1.012 0-1.748.092-2.116.276-.414.184-.598.506-.598.966v.138c0 .46.138.782.506.966s1.058.414 2.116.598l2.162.46c1.978.46 3.404 1.15 4.232 2.07s1.242 2.346 1.242 4.232v.69c0 4.83-3.036 7.222-9.016 7.222h-.46c-3.036 0-5.566-.414-7.682-1.242-.414-.138-.69-.322-.782-.552-.092-.184-.092-.552 0-1.058l.644-3.036c.138-.874.644-1.15 1.564-.874 2.116.736 3.956 1.058 5.52 1.058h.138c1.012 0 1.702-.092 2.116-.322.368-.184.598-.552.598-1.058v-.138a.99.99 0 0 0-.506-.874q-.552-.276-2.208-.69l-2.024-.46q-3.036-.69-4.278-2.07c-.828-.92-1.242-2.3-1.242-4.232"/></svg>