<svg xmlns="http://www.w3.org/2000/svg" fill="none" viewBox="0 0 240 21"><path fill="#007990" d="m7.735 15.51-3.85-5.408H3.85v5.303c0 .245-.053.42-.123.49-.087.07-.244.105-.49.105h-1.47c-.244 0-.42-.035-.507-.123-.105-.07-.14-.227-.14-.472V5.255c0-.228.035-.385.122-.455.088-.07.246-.122.49-.122h.77c.526 0 .893.175 1.12.49l3.85 5.74h.035V5.273c0-.228.036-.385.14-.473.088-.07.263-.122.508-.122h1.47c.245 0 .402.052.49.122.07.07.123.228.123.473v10.15c0 .245-.053.402-.14.472Q9.966 16 9.625 16h-.77c-.525 0-.893-.158-1.12-.49m7.06-4.48v1.365c0 .683.105 1.12.315 1.33.157.175.402.245.735.245h.07c.315 0 .56-.07.735-.245.21-.21.315-.647.315-1.33V11.03c0-.665-.105-1.12-.315-1.33-.175-.157-.42-.245-.735-.245h-.07c-.333 0-.578.088-.735.245-.21.21-.315.665-.315 1.33m4.987.105v1.138c0 .875-.087 1.54-.262 2.03s-.455.874-.84 1.172c-.578.455-1.47.682-2.695.682h-.21c-1.225 0-2.135-.227-2.695-.682a2.5 2.5 0 0 1-.84-1.172c-.175-.49-.263-1.155-.263-2.03v-1.12c0-.858.088-1.523.263-2.013s.455-.875.84-1.19c.56-.455 1.47-.683 2.695-.683h.21c1.225 0 2.117.228 2.695.683.385.315.665.7.84 1.173.175.49.262 1.155.262 2.012m5.979-3.29h1.505c.245 0 .42.035.507.105s.158.21.193.42c0 .07.315 1.628.927 4.655h.053c.315-1.838.595-3.535.822-5.11.018-.192.07-.315.14-.385q.105-.105.368-.105h1.785c.192 0 .315.053.385.123.052.087.07.227.035.402-.28 1.365-.63 2.87-1.015 4.515s-.665 2.678-.84 3.115c-.07.175-.158.297-.245.35-.088.053-.228.07-.403.07h-1.925c-.367 0-.595-.123-.665-.402-.332-1.19-.612-2.696-.857-4.516h-.07a48 48 0 0 1-.875 4.515c-.07.28-.28.403-.63.403h-1.89c-.35 0-.578-.123-.665-.385-.175-.473-.473-1.558-.893-3.238s-.735-3.15-.98-4.427c-.052-.192-.035-.333.035-.402.07-.07.21-.123.42-.123h1.715c.175 0 .315.035.403.105.07.07.122.21.157.385.245 1.628.525 3.325.858 5.11h.07c.42-2.17.717-3.728.857-4.655.035-.227.088-.367.175-.437.088-.053.263-.088.543-.088m12.677 7.438h-.035c-.385.595-1.155.874-2.293.874h-.262c-.893 0-1.593-.227-2.083-.682-.507-.455-.752-1.137-.752-2.012v-.193c0-.945.262-1.627.805-2.012.542-.385 1.417-.578 2.642-.578h.123c.455 0 .875.035 1.225.07v-.367c0-.368-.105-.63-.298-.77-.21-.123-.56-.193-1.05-.193-.595 0-1.26.105-2.03.297-.21.053-.367.053-.437 0-.088-.052-.14-.157-.158-.332l-.14-.928c-.035-.157-.035-.28-.035-.35 0-.21.14-.367.42-.454.893-.245 1.89-.385 2.993-.385 1.347 0 2.31.297 2.87.857.437.455.665 1.19.665 2.188v5.197c0 .175-.053.315-.14.385s-.245.105-.455.105h-.823c-.21 0-.35-.018-.437-.07s-.158-.157-.21-.332zm-.63-2.24v-.49a5 5 0 0 0-.84-.053h-.193q-.63 0-.892.158c-.175.104-.245.315-.245.63v.07c0 .314.07.524.245.63.157.122.402.175.735.175h.122c.35 0 .613-.088.823-.263.157-.14.245-.437.245-.857m11.053-2.38v2.24c0 .402.07.682.245.84.14.157.402.227.788.227h.157c.402 0 .682-.105.857-.35q.21-.315.21-1.522v-.753c0-.875-.087-1.418-.227-1.593-.157-.175-.455-.28-.875-.28h-.07c-.402 0-.682.088-.857.263-.158.158-.228.473-.228.928m0-2.923h.035q.761-.473 1.995-.473h.157c1.05 0 1.82.315 2.293.946.385.542.595 1.505.595 2.887v1.26c0 1.4-.297 2.38-.892 2.923-.63.595-1.628.874-2.993.874h-.35c-1.435 0-2.415-.28-2.94-.857-.473-.508-.7-1.33-.7-2.485V4.66c0-.175.035-.298.123-.385.07-.07.227-.123.455-.123h1.627c.21 0 .367.053.455.123.088.087.14.21.14.385zm11.64 7.543h-.035c-.385.595-1.155.874-2.293.874h-.262c-.893 0-1.593-.227-2.083-.682-.507-.455-.752-1.137-.752-2.012v-.193c0-.945.262-1.627.805-2.012.542-.385 1.417-.578 2.642-.578h.123c.455 0 .875.035 1.225.07v-.367c0-.368-.105-.63-.298-.77-.21-.123-.56-.193-1.05-.193-.595 0-1.26.105-2.03.297-.21.053-.367.053-.437 0-.088-.052-.14-.157-.158-.332l-.14-.928c-.035-.157-.035-.28-.035-.35 0-.21.14-.367.42-.454.893-.245 1.89-.385 2.993-.385 1.347 0 2.31.297 2.87.857.437.455.665 1.19.665 2.188v5.197c0 .175-.053.315-.14.385s-.245.105-.455.105h-.823c-.21 0-.35-.018-.437-.07s-.158-.157-.21-.332zm-.63-2.24v-.49a5 5 0 0 0-.84-.053h-.193q-.63 0-.892.158c-.175.104-.245.315-.245.63v.07c0 .314.07.524.245.63.157.122.402.175.735.175h.122c.35 0 .613-.088.823-.263.157-.14.245-.437.245-.857m9.079-5.775h.14c1.015 0 1.767.245 2.222.717.42.455.648 1.225.648 2.31v5.198c0 .175-.052.314-.14.384-.087.088-.245.123-.455.123h-1.61c-.227 0-.385-.035-.472-.123-.088-.07-.123-.21-.123-.385V10.54c0-.385-.07-.665-.192-.805-.14-.14-.403-.227-.77-.227h-.105c-.386 0-.63.087-.77.227s-.193.42-.193.805v4.953c0 .175-.052.314-.14.384-.087.088-.245.123-.455.123h-1.61c-.227 0-.385-.035-.472-.123-.088-.07-.123-.21-.123-.385V7.916c0-.175.035-.298.123-.367.087-.07.245-.123.472-.123h.823c.21 0 .35.035.437.088q.13.078.21.314l.105.333h.052c.56-.595 1.348-.893 2.398-.893m7.477 5.337v2.887c0 .175-.053.315-.14.385-.088.088-.245.123-.455.123h-1.61c-.228 0-.385-.035-.473-.123-.087-.07-.122-.21-.122-.385V4.66c0-.175.035-.298.122-.385.088-.07.245-.123.473-.123h1.61c.21 0 .367.053.455.123.087.087.14.21.14.385v5.705h.122l1.663-2.538c.157-.262.402-.402.735-.402h2.03c.192 0 .297.07.297.21 0 .07-.052.192-.14.333l-2.012 3.01c-.158.245-.228.42-.228.524 0 .123.07.298.228.525l2.152 3.396c.07.14.105.227.105.297 0 .192-.122.28-.367.28h-1.943c-.245 0-.437-.018-.542-.088q-.157-.079-.315-.367l-1.663-2.94zm8.248-1.575v1.365c0 .683.105 1.12.315 1.33.158.175.403.245.735.245h.07c.315 0 .56-.07.735-.245.21-.21.315-.647.315-1.33V11.03c0-.665-.105-1.12-.315-1.33-.175-.157-.42-.245-.735-.245h-.07c-.332 0-.577.088-.735.245-.21.21-.315.665-.315 1.33m4.988.105v1.138c0 .875-.088 1.54-.263 2.03s-.455.874-.84 1.172c-.577.455-1.47.682-2.695.682h-.21c-1.225 0-2.135-.227-2.695-.682a2.5 2.5 0 0 1-.84-1.172c-.175-.49-.262-1.155-.262-2.03v-1.12c0-.858.087-1.523.262-2.013s.455-.875.84-1.19c.56-.455 1.47-.683 2.695-.683h.21c1.225 0 2.118.228 2.695.683.385.315.665.7.84 1.173.175.49.263 1.155.263 2.012m5.978-3.29h1.505c.245 0 .42.035.508.105.087.07.157.21.192.42 0 .07.315 1.628.928 4.655h.052c.315-1.838.595-3.535.823-5.11.017-.192.07-.315.14-.385q.105-.105.367-.105h1.785c.193 0 .315.053.385.123.053.087.07.227.035.402-.28 1.365-.63 2.87-1.015 4.515s-.665 2.678-.84 3.115c-.07.175-.157.297-.245.35-.087.053-.227.07-.402.07h-1.925c-.368 0-.595-.123-.665-.402-.333-1.19-.613-2.696-.858-4.516h-.07a48 48 0 0 1-.875 4.515c-.07.28-.28.403-.63.403h-1.89c-.35 0-.577-.123-.665-.385-.175-.473-.472-1.558-.892-3.238s-.735-3.15-.98-4.427c-.053-.192-.035-.333.035-.402.07-.07.21-.123.42-.123h1.715c.175 0 .315.035.402.105.07.07.123.21.158.385.245 1.628.525 3.325.857 5.11h.07c.42-2.17.718-3.728.858-4.655.035-.227.087-.367.175-.437.087-.053.262-.088.542-.088m10.294 3.185v1.365c0 .683.105 1.12.315 1.33.157.175.402.245.735.245h.07c.315 0 .56-.07.735-.245.21-.21.315-.647.315-1.33V11.03c0-.665-.105-1.12-.315-1.33-.175-.157-.42-.245-.735-.245h-.07c-.333 0-.578.088-.735.245-.21.21-.315.665-.315 1.33m4.987.105v1.138c0 .875-.087 1.54-.262 2.03s-.455.874-.84 1.172c-.578.455-1.47.682-2.695.682h-.21c-1.225 0-2.135-.227-2.695-.682a2.5 2.5 0 0 1-.84-1.172c-.175-.49-.263-1.155-.263-2.03v-1.12c0-.858.088-1.523.263-2.013s.455-.875.84-1.19c.56-.455 1.47-.683 2.695-.683h.21c1.225 0 2.117.228 2.695.683.385.315.665.7.84 1.173.175.49.262 1.155.262 2.012m1.271-.893v-.227c0-.857.228-1.505.683-1.96.525-.525 1.417-.787 2.66-.787h.175c.98 0 1.837.104 2.555.314q.21.08.262.158c.035.07.053.157.035.297l-.192 1.435c-.035.228-.193.298-.473.228-.7-.157-1.33-.245-1.855-.245h-.017c-.385 0-.665.035-.805.105-.158.07-.228.192-.228.367v.053c0 .175.053.297.193.367s.402.158.805.228l.822.175c.753.175 1.295.438 1.61.787s.473.893.473 1.61v.263c0 1.838-1.155 2.747-3.43 2.747h-.175c-1.155 0-2.118-.157-2.923-.472-.157-.053-.262-.123-.297-.21-.035-.07-.035-.21 0-.402l.245-1.155c.052-.333.245-.438.595-.333.805.28 1.505.402 2.1.402h.052c.385 0 .648-.034.805-.122.14-.07.228-.21.228-.402v-.053c0-.14-.07-.262-.193-.332q-.21-.105-.84-.263l-.77-.175q-1.155-.262-1.627-.788c-.315-.35-.473-.875-.473-1.61m1.628-5.127 2.747-2.345a.5.5 0 0 1 .333-.158c.122 0 .245.088.35.228l.84 1.085c.07.105.105.192.105.298 0 .14-.105.28-.28.42l-2.765 1.89c-.14.087-.245.122-.35.122-.14 0-.28-.07-.42-.245l-.525-.612c-.14-.158-.193-.298-.193-.403s.053-.21.158-.28m10.555 8.785h.14c.472 0 .98-.07 1.522-.228.175-.035.28-.052.333-.052.175 0 .28.105.315.298l.157.892c.035.245.07.402.07.473 0 .21-.157.367-.455.472-.77.28-1.61.402-2.52.402h-.21c-1.26 0-2.187-.28-2.765-.874q-.892-.893-.892-2.993v-1.015c0-.822.07-1.47.21-1.925q.21-.682.682-1.155c.613-.613 1.575-.928 2.888-.928h.175c1.05 0 1.96.193 2.695.578.21.123.332.263.332.438 0 .104-.052.28-.14.524l-.332.84q-.131.316-.368.316a.7.7 0 0 1-.315-.088c-.56-.227-1.085-.35-1.557-.35h-.07c-.455 0-.788.123-.998.332-.262.263-.385.806-.385 1.61v.595c0 .718.105 1.208.35 1.47.228.245.613.368 1.138.368m-2.153-8.785 2.748-2.345a.5.5 0 0 1 .332-.158c.123 0 .245.088.35.228l.84 1.085c.07.105.105.192.105.298 0 .14-.105.28-.28.42l-2.765 1.89a.6.6 0 0 1-.35.122c-.14 0-.28-.07-.42-.245l-.525-.612c-.14-.158-.192-.298-.192-.403s.052-.21.157-.28m12.721 4.533h-2.783c-.175 0-.297-.018-.367-.088s-.088-.21-.088-.42V7.932c0-.21.018-.332.088-.402q.105-.105.367-.105h5.915c.175 0 .298.035.385.105.07.07.123.21.123.402v.333c0 .455-.14.875-.385 1.242l-3.01 4.27h2.992c.175 0 .28.036.35.106s.105.192.105.402v1.207q0 .315-.105.42c-.07.07-.175.088-.35.088h-6.02c-.367 0-.542-.158-.542-.508v-.402c0-.455.122-.857.385-1.242zm9.929 5.635h-.035c-.385.595-1.155.874-2.292.874h-.263c-.892 0-1.592-.227-2.082-.682-.508-.455-.753-1.137-.753-2.012v-.193c0-.945.263-1.627.805-2.012.543-.385 1.418-.578 2.643-.578h.122c.455 0 .875.035 1.225.07v-.367c0-.368-.105-.63-.297-.77-.21-.123-.56-.193-1.05-.193-.595 0-1.26.105-2.03.297-.21.053-.368.053-.438 0-.087-.052-.14-.157-.157-.332l-.14-.928c-.035-.157-.035-.28-.035-.35 0-.21.14-.367.42-.454.892-.245 1.89-.385 2.992-.385 1.348 0 2.31.297 2.87.857.438.455.665 1.19.665 2.188v5.197c0 .175-.052.315-.14.385-.087.07-.245.105-.455.105h-.822c-.21 0-.35-.018-.438-.07-.087-.053-.157-.157-.21-.332zm-.63-2.24v-.49a5 5 0 0 0-.84-.053h-.192q-.63 0-.893.158c-.175.104-.245.315-.245.63v.07c0 .314.07.524.245.63.158.122.403.175.735.175h.123c.35 0 .612-.088.822-.263.158-.14.245-.437.245-.857m8.485.857h.14c.472 0 .98-.07 1.522-.228.175-.035.28-.052.333-.052.175 0 .28.105.315.298l.157.892c.035.245.07.402.07.473 0 .21-.157.367-.455.472-.77.28-1.61.402-2.52.402h-.21c-1.26 0-2.187-.28-2.765-.874q-.892-.893-.892-2.993v-1.015c0-.822.07-1.47.21-1.925q.21-.682.682-1.155c.613-.613 1.575-.928 2.888-.928h.175c1.05 0 1.96.193 2.695.578.21.123.332.263.332.438 0 .104-.052.28-.14.524l-.332.84q-.132.316-.368.316a.7.7 0 0 1-.315-.088c-.56-.227-1.085-.35-1.557-.35h-.07c-.455 0-.788.123-.998.332-.262.263-.385.806-.385 1.61v.595c0 .718.105 1.208.35 1.47.228.245.613.368 1.138.368m6.774-4.252h-2.783c-.175 0-.297-.018-.367-.088s-.088-.21-.088-.42V7.932c0-.21.018-.332.088-.402q.105-.105.367-.105h5.915c.175 0 .298.035.385.105.07.07.123.21.123.402v.333c0 .455-.14.875-.385 1.242l-3.01 4.27h2.992c.175 0 .28.036.35.106s.105.192.105.402v1.207q0 .315-.105.42c-.07.07-.175.088-.35.088h-6.02c-.367 0-.542-.158-.542-.508v-.402c0-.455.122-.857.385-1.242zm12.292-1.698c-.245 1.645-.7 3.465-1.365 5.478a37 37 0 0 1-2.468 5.704c-.122.245-.28.368-.49.368-.14 0-.297-.035-.507-.14l-.893-.385c-.315-.14-.455-.28-.455-.437 0-.07.018-.175.088-.298.595-1.207.945-1.907 1.015-2.1-.49-.175-.858-.56-1.138-1.19-.315-.7-.682-1.767-1.085-3.237q-.603-2.205-.892-3.78c-.035-.175-.018-.298.07-.385.087-.07.245-.123.455-.123h1.592c.193 0 .333.035.42.088.088.052.158.157.193.332.402 2.205.857 4.165 1.365 5.863h.087c.49-1.4.945-3.325 1.365-5.81q.026-.263.158-.368c.087-.07.227-.105.402-.105h1.61c.193 0 .333.053.403.123s.087.21.07.402m5.642-.683h.14c1.015 0 1.768.245 2.223.718.42.455.647 1.225.647 2.31v5.198c0 .175-.052.314-.14.384-.087.088-.245.123-.455.123h-1.61c-.227 0-.385-.035-.472-.123-.088-.07-.123-.21-.123-.385V10.54c0-.385-.07-.665-.192-.805-.14-.14-.403-.227-.77-.227h-.105c-.385 0-.63.087-.77.227s-.193.42-.193.805v4.953c0 .175-.052.314-.14.384-.087.088-.245.123-.455.123h-1.61c-.227 0-.385-.035-.472-.123-.088-.07-.123-.21-.123-.385V7.916c0-.175.035-.298.123-.367.087-.07.245-.123.472-.123h.823c.21 0 .35.035.437.088q.132.078.21.314l.105.333h.053c.56-.595 1.347-.893 2.397-.893m9.735 8.015h-.035c-.385.595-1.155.875-2.293.875h-.262c-.893 0-1.593-.227-2.083-.682-.507-.455-.752-1.137-.752-2.012v-.193c0-.945.262-1.627.805-2.012.542-.385 1.417-.578 2.642-.578h.123c.455 0 .875.035 1.225.07v-.367c0-.368-.105-.63-.298-.77-.21-.123-.56-.193-1.05-.193-.595 0-1.26.105-2.03.297-.21.053-.367.053-.437 0-.088-.052-.14-.157-.158-.332l-.14-.928c-.035-.157-.035-.28-.035-.35 0-.21.14-.367.42-.454a11.3 11.3 0 0 1 2.993-.385c1.347 0 2.31.297 2.87.857.437.455.665 1.19.665 2.188v5.197c0 .175-.053.315-.14.385s-.245.105-.455.105h-.823c-.21 0-.35-.018-.437-.07s-.158-.157-.21-.332zm-.63-2.24v-.49a5 5 0 0 0-.84-.052h-.193q-.63 0-.892.158c-.175.104-.245.315-.245.63v.07c0 .314.07.524.245.63.157.122.402.175.735.175h.122c.35 0 .613-.088.823-.263.157-.14.245-.437.245-.857m8.025-2.8v-.227c0-.857.228-1.505.683-1.96.525-.525 1.417-.787 2.66-.787h.175c.98 0 1.837.104 2.555.314q.21.08.262.158c.035.07.053.157.035.297l-.192 1.435c-.035.228-.193.298-.473.228-.7-.157-1.33-.245-1.855-.245h-.017c-.385 0-.665.035-.805.105-.158.07-.228.192-.228.367v.053c0 .175.053.297.193.367s.402.158.805.228l.822.175c.753.175 1.295.438 1.61.787s.473.893.473 1.61v.263c0 1.838-1.155 2.747-3.43 2.747h-.175c-1.155 0-2.118-.157-2.923-.472-.157-.053-.262-.123-.297-.21-.035-.07-.035-.21 0-.402l.245-1.155c.052-.333.245-.438.595-.333.805.28 1.505.402 2.1.402h.052c.385 0 .648-.034.805-.122.14-.07.228-.21.228-.402v-.053c0-.14-.07-.262-.193-.332q-.21-.105-.84-.263l-.77-.175q-1.155-.262-1.627-.788c-.315-.35-.473-.875-.473-1.61m10.993-2.31v7.56c0 .175-.053.315-.14.385-.088.088-.245.123-.455.123h-1.61c-.228 0-.385-.035-.473-.123-.087-.07-.122-.21-.122-.385v-7.56c0-.175.035-.297.122-.385.088-.07.245-.122.473-.122h1.61c.21 0 .367.053.455.123.087.087.14.21.14.385m-1.295-1.172h-.21c-.945 0-1.418-.473-1.418-1.452V5.22c0-.962.473-1.452 1.418-1.452h.21c.945 0 1.417.49 1.417 1.452v.088c0 .98-.472 1.452-1.417 1.452m7.273 7.14h.192c.595 0 1.225-.07 1.855-.228.175-.035.28-.052.333-.052.175 0 .28.105.315.298l.14.875c.035.245.07.402.07.472 0 .21-.158.367-.455.473a2.54 2.54 0 0 0-1.12.84c-.298.384-.438.77-.438 1.12v.052c0 .332.158.49.473.49h.087c.193 0 .438-.035.718-.14.087-.018.157-.035.21-.035.087 0 .157.087.21.227l.087.368c.053.245.088.367.088.402 0 .105-.088.193-.245.263a3.9 3.9 0 0 1-1.418.262h-.105c-.612 0-1.067-.122-1.382-.384-.315-.263-.473-.63-.473-1.12v-.053c0-.315.105-.665.333-1.015.227-.35.525-.63.91-.875-.14.017-.333.017-.578.017h-.332q-2.152 0-3.045-.892a2.5 2.5 0 0 1-.7-1.19c-.123-.455-.175-1.067-.175-1.82v-.98c0-1.523.35-2.59 1.05-3.22.595-.525 1.505-.787 2.747-.787h.245c1.225 0 2.118.297 2.643.875.56.63.84 1.662.84 3.132v.91c0 .332-.175.49-.508.49h-4.2v.14c0 .42.105.7.35.857.228.158.648.228 1.278.228m-1.628-3.045h1.925c.14 0 .21-.07.21-.228v-.28c0-.35-.07-.612-.175-.804-.14-.21-.42-.316-.805-.316h-.157c-.35 0-.595.088-.735.245q-.263.316-.263.946zm15.467 3.5v.997c0 .263-.052.438-.122.525s-.228.123-.438.123h-1.4c-1.26 0-2.1-.21-2.485-.648-.35-.367-.507-1.067-.507-2.117V9.613h-.945c-.175 0-.28-.018-.35-.088s-.088-.175-.088-.35v-.893c0-.21.018-.35.088-.42.052-.07.175-.122.367-.175l.928-.227V5.745c0-.175.035-.298.122-.385.088-.07.245-.123.473-.123h1.61c.21 0 .367.053.455.123.087.087.14.21.14.385v1.68h1.452c.175 0 .28.035.35.105s.105.192.105.402v1.173q0 .315-.105.42c-.07.07-.175.088-.35.088h-1.452v3.307c0 .315.035.508.14.613.105.122.332.175.682.175h.77c.21 0 .368.052.438.14.07.087.122.262.122.507m5.927-1.488V7.933c0-.175.035-.297.123-.385.087-.07.245-.122.472-.122h1.61c.21 0 .368.053.455.123.088.087.14.21.14.385v5.18q0 1.6-.787 2.31c-.56.49-1.54.734-2.975.734s-2.433-.245-2.975-.735q-.788-.708-.788-2.31v-5.18c0-.175.035-.297.123-.385.087-.07.245-.122.472-.122h1.61c.21 0 .368.053.455.123.088.087.14.21.14.385v4.935c0 .402.053.665.193.804.14.158.385.228.77.228.367 0 .63-.07.77-.228.122-.14.192-.402.192-.805m7.185 1.663v.175c0 .98-.472 1.452-1.4 1.452h-.192c-.945 0-1.4-.472-1.4-1.452v-.175c0-.507.105-.875.35-1.085.227-.21.577-.332 1.05-.332h.192c.455 0 .805.122 1.05.332.228.21.35.578.35 1.085"/></svg>