<svg xmlns="http://www.w3.org/2000/svg" fill="none" viewBox="0 0 258 142"><rect width="258" height="130" fill="#fff" transform="translate(0 6)"/><g clip-path="url(#a)"><rect width="100" height="6" fill="#fff" transform="translate(139 136)"/><path fill="#ae0000" d="M178.759 136H139v6.016h39.759z"/><path fill="#0065b1" d="M183.316 136h-4.544v6.016h4.544z"/><path fill="#008f20" d="M238.978 136H183.31v6.016h55.668z"/></g><g clip-path="url(#b)"><rect width="228" height="6" fill="#fff" transform="translate(11)"/><path fill="#ae0000" d="M178.498 0h-39.914v6.016h39.914z"/><path fill="#ff8600" d="M138.584 0H76.968v6.016h61.616z"/><path fill="#0065b1" d="M183.072 0h-4.562v6.016h4.562z"/><path fill="#e90a0a" d="M70.128 0H10.845v6.016h59.283z"/><path fill="#008f20" d="M238.95 0h-55.884v6.016h55.884z"/><path fill="#26221e" d="M76.968 0h-6.84v6.016h6.84z"/></g><g clip-path="url(#c)"><path fill="#008f20" d="M87.66 84.67H70.002v27.386h17.656z"/><path fill="#0065b1" d="M70.005 84.67h-1.441v27.386h1.441z"/><path fill="#ae0000" d="M68.56 84.67H55.95v27.386h12.61z"/><path fill="#ff8600" d="M55.949 84.67H36.483v27.386h19.466z"/><path fill="#26221e" d="M36.484 84.67h-2.162v27.386h2.162z"/><path fill="#e90a0a" d="M34.322 84.67h-18.73v27.386h18.73z"/><g fill="#fff"><path d="M37.975 99.075v4.948h-2.473v-4.564c0-1.399-.619-2.041-1.617-2.041-1.111 0-1.887.722-1.887 2.265v4.342h-2.474v-4.564c0-1.398-.586-2.04-1.617-2.04-1.098 0-1.867.722-1.867 2.265v4.341h-2.476v-6.72h-.952V95.38h2.933l.127 1.336c.618-.951 1.68-1.47 2.933-1.47 1.19 0 2.204.467 2.807 1.414.68-.883 1.79-1.414 3.076-1.414 2.03 0 3.488 1.189 3.488 3.824"/><path d="M49.802 100.955c0 1.943-1.521 3.068-4.438 3.068h-5.455v-9.129h-1.173v-2.117h6.31c2.774 0 4.201 1.172 4.201 2.924a2.73 2.73 0 0 1-.383 1.454c-.261.437-.64.791-1.091 1.02 1.237.402 2.029 1.366 2.029 2.783zm-7.34-6.218v2.65h2.267c1.252 0 1.934-.444 1.934-1.335 0-.89-.682-1.317-1.934-1.317zm4.74 5.944c0-.948-.697-1.397-2.03-1.397h-2.71v2.783h2.71c1.333 0 2.03-.419 2.03-1.383"/><path d="M59.854 95.38v8.643h-2.362v-1.002c-.618.756-1.523 1.125-2.664 1.125-2.41 0-4.265-1.735-4.265-4.453s1.856-4.453 4.265-4.453c1.047 0 1.935.334 2.553 1.045v-.905zm-2.426 4.319c0-1.494-.951-2.394-2.171-2.394-1.221 0-2.189.9-2.189 2.394s.952 2.393 2.189 2.393c1.236 0 2.171-.899 2.171-2.393"/><path d="M70.7 99.074v4.949h-2.475v-4.564c0-1.399-.634-2.041-1.728-2.041-1.189 0-2.045.74-2.045 2.329v4.274h-2.473v-6.713h-.952V95.38h2.934l.126 1.349c.65-.964 1.758-1.478 3.076-1.478 2.014 0 3.536 1.188 3.536 3.823"/><path d="M81.131 104.023h-2.806l-2.41-3.743h-1.142v3.743H72.3v-11.92h2.473v6.265h1.142l2.283-2.988h2.759l-2.902 3.791z"/></g></g><g fill="#000"><path d="M185.278 59.58c1.792 0 2.968 1.036 2.968 3.15V67h-.994v-4.172c0-1.554-.784-2.352-2.114-2.352-1.512 0-2.464.98-2.464 2.66V67h-.994v-4.172c0-1.554-.784-2.352-2.128-2.352-1.498 0-2.464.98-2.464 2.66V67h-.994v-6.524h-1.036v-.84h1.82l.07 1.54c.476-1.008 1.47-1.596 2.8-1.596 1.218 0 2.17.518 2.618 1.554.532-.952 1.582-1.554 2.912-1.554"/><path d="M173.861 63.318c0 .084-.014.196-.014.308h-6.16c.112 1.54 1.288 2.562 2.898 2.562.896 0 1.694-.322 2.254-.966l.56.644c-.658.784-1.68 1.204-2.842 1.204-2.296 0-3.864-1.568-3.864-3.752s1.526-3.738 3.598-3.738 3.57 1.526 3.57 3.738m-3.57-2.884c-1.428 0-2.478 1.008-2.604 2.45h5.222c-.126-1.442-1.176-2.45-2.618-2.45"/><path d="M164.179 58.026a.72.72 0 0 1-.728-.714c0-.378.322-.7.728-.7s.728.308.728.686a.714.714 0 0 1-.728.728M163.675 67v-7.364h.994V67z"/><path d="m160.997 67-2.926-3.612h-1.414V67h-.994V56.612h.994v5.95h1.414l2.8-2.926h1.176l-3.094 3.276L162.187 67z"/><path d="M152.408 58.026a.72.72 0 0 1-.728-.714c0-.378.322-.7.728-.7s.728.308.728.686a.714.714 0 0 1-.728.728M151.904 67v-7.364h.994V67z"/><path d="M146.172 59.58c1.792 0 3.024 1.036 3.024 3.15V67h-.994v-4.172c0-1.554-.812-2.352-2.212-2.352-1.582 0-2.576.98-2.576 2.66V67h-.994v-6.524h-1.036v-.84h1.82l.07 1.54c.49-1.008 1.526-1.596 2.898-1.596"/><path d="M140.296 59.636h.91L138.42 67h-.938l-2.324-6.034L132.834 67h-.938l-2.772-7.364h.952l2.31 6.258 2.366-6.258h.854l2.352 6.258z"/><path d="M124.835 67.07c-2.156 0-3.752-1.568-3.752-3.752s1.596-3.738 3.752-3.738 3.738 1.554 3.738 3.738-1.582 3.752-3.738 3.752m0-.882c1.568 0 2.73-1.148 2.73-2.87s-1.162-2.87-2.73-2.87-2.744 1.148-2.744 2.87 1.176 2.87 2.744 2.87"/><path d="M117.112 67.07c-2.198 0-3.794-1.554-3.794-3.752s1.596-3.738 3.794-3.738c1.246 0 2.296.49 2.884 1.456l-.742.504c-.504-.742-1.288-1.092-2.142-1.092-1.61 0-2.786 1.148-2.786 2.87 0 1.736 1.176 2.87 2.786 2.87.854 0 1.638-.336 2.142-1.078l.742.504c-.588.952-1.638 1.456-2.884 1.456"/><path d="M110.366 59.636h.994V67h-.952v-1.456c-.602.994-1.624 1.526-2.842 1.526-2.1 0-3.668-1.526-3.668-3.752s1.568-3.738 3.668-3.738c1.176 0 2.184.504 2.8 1.456zm-2.716 6.552c1.554 0 2.73-1.148 2.73-2.87s-1.176-2.87-2.73-2.87c-1.568 0-2.744 1.148-2.744 2.87s1.176 2.87 2.744 2.87"/><path d="M100.262 61.204c.434-1.05 1.442-1.624 2.856-1.624v1.008c-.083 0-.167-.014-.237-.014-1.54 0-2.479.938-2.479 2.674V67h-.993v-6.524h-1.037v-.84h1.82z"/><path d="M93.496 59.58c2.1 0 3.668 1.512 3.668 3.738 0 2.24-1.569 3.752-3.668 3.752-1.176 0-2.184-.504-2.8-1.456v4.102H89.7v-9.24h-1.035v-.84h1.82l.055 1.652c.588-1.106 1.666-1.708 2.955-1.708m-.07 6.608c1.553 0 2.743-1.148 2.743-2.87 0-1.708-1.19-2.87-2.743-2.87-1.569 0-2.745 1.162-2.745 2.87 0 1.722 1.177 2.87 2.745 2.87"/><path d="M80.155 59.58c1.792 0 2.968 1.036 2.968 3.15V67h-.994v-4.172c0-1.554-.784-2.352-2.114-2.352-1.512 0-2.464.98-2.464 2.66V67h-.994v-4.172c0-1.554-.784-2.352-2.128-2.352-1.498 0-2.464.98-2.464 2.66V67h-.994v-6.524h-1.036v-.84h1.82l.07 1.54c.476-1.008 1.47-1.596 2.8-1.596 1.218 0 2.17.518 2.618 1.554.532-.952 1.582-1.554 2.912-1.554"/><path d="M66.998 59.636h.994v6.468c0 2.534-1.162 3.682-3.43 3.682-1.26 0-2.506-.406-3.22-1.134l.504-.756c.63.63 1.596 1.008 2.66 1.008 1.708 0 2.492-.854 2.492-2.674v-.854c-.518.854-1.456 1.344-2.604 1.344-1.89 0-3.108-1.05-3.108-3.164v-3.92h.994v3.822c0 1.568.812 2.366 2.212 2.366 1.54 0 2.506-.994 2.506-2.674z"/><path d="M54.64 66.174h4.717V67h-5.992v-.658L58 60.476h-4.55v-.84h5.824v.658z"/><path d="M49.288 67.07c-1.218 0-2.394-.392-2.996-.91l.448-.784c.588.462 1.582.826 2.618.826 1.4 0 1.974-.476 1.974-1.204 0-1.918-4.774-.406-4.774-3.318 0-1.204 1.036-2.1 2.912-2.1.952 0 1.988.266 2.604.686l-.434.798c-.644-.448-1.414-.63-2.17-.63-1.33 0-1.918.518-1.918 1.218 0 1.988 4.774.49 4.774 3.318 0 1.274-1.12 2.1-3.038 2.1"/><path d="M43.62 59.636h.994V67h-.952v-1.456c-.602.994-1.624 1.526-2.842 1.526-2.1 0-3.668-1.526-3.668-3.752s1.568-3.738 3.668-3.738c1.176 0 2.184.504 2.8 1.456zm-2.716 6.552c1.554 0 2.73-1.148 2.73-2.87s-1.176-2.87-2.73-2.87c-1.568 0-2.744 1.148-2.744 2.87s1.176 2.87 2.744 2.87"/><path d="M32.162 59.58c1.793 0 3.025 1.036 3.025 3.15V67h-.994v-4.172c0-1.554-.812-2.352-2.212-2.352-1.583 0-2.577.98-2.577 2.66V67h-.994v-6.524h-1.035v-.84h1.82l.07 1.54c.49-1.008 1.525-1.596 2.897-1.596"/><path d="M17.862 66.174h4.718V67h-5.992v-.658l4.634-5.866h-4.55v-.84h5.824v.658z"/><path d="M194.024 49.174h4.718V50h-5.992v-.658l4.634-5.866h-4.55v-.84h5.824v.658z"/><path d="M188.673 50.07c-1.218 0-2.394-.392-2.996-.91l.448-.784c.588.462 1.582.826 2.618.826 1.4 0 1.974-.476 1.974-1.204 0-1.918-4.774-.406-4.774-3.318 0-1.204 1.036-2.1 2.912-2.1.952 0 1.988.266 2.604.686l-.434.798c-.644-.448-1.414-.63-2.17-.63-1.33 0-1.918.518-1.918 1.218 0 1.988 4.774.49 4.774 3.318 0 1.274-1.12 2.1-3.038 2.1"/><path d="M183.005 42.636h.994V50h-.952v-1.456c-.602.994-1.624 1.526-2.842 1.526-2.1 0-3.668-1.526-3.668-3.752s1.568-3.738 3.668-3.738c1.176 0 2.184.504 2.8 1.456zm-2.716 6.552c1.554 0 2.73-1.148 2.73-2.87s-1.176-2.87-2.73-2.87c-1.568 0-2.744 1.148-2.744 2.87s1.176 2.87 2.744 2.87"/><path d="M174.023 41.026a.72.72 0 0 1-.728-.714c0-.378.322-.7.728-.7s.728.308.728.686a.714.714 0 0 1-.728.728M173.519 50v-7.364h.994V50z"/><path d="M171.358 42.636h.91L169.482 50h-.938l-2.324-6.034L163.896 50h-.938l-2.772-7.364h.952l2.31 6.258 2.366-6.258h.854l2.352 6.258z"/><path d="M157.766 42.636h.994V50h-.952v-1.456c-.602.994-1.624 1.526-2.842 1.526-2.1 0-3.668-1.526-3.668-3.752s1.568-3.738 3.668-3.738c1.176 0 2.184.504 2.8 1.456zm-2.716 6.552c1.554 0 2.73-1.148 2.73-2.87s-1.176-2.87-2.73-2.87c-1.568 0-2.744 1.148-2.744 2.87s1.176 2.87 2.744 2.87"/><path d="M146.368 42.58c1.792 0 2.968 1.036 2.968 3.15V50h-.994v-4.172c0-1.554-.784-2.352-2.114-2.352-1.512 0-2.464.98-2.464 2.66V50h-.994v-4.172c0-1.554-.784-2.352-2.128-2.352-1.498 0-2.464.98-2.464 2.66V50h-.994v-6.524h-1.036v-.84h1.82l.07 1.54c.476-1.008 1.47-1.596 2.8-1.596 1.218 0 2.17.518 2.618 1.554.532-.952 1.582-1.554 2.912-1.554"/><path d="M130.3 49.174h4.718V50h-5.992v-.658l4.634-5.866h-4.55v-.84h5.824v.658z"/><path d="M124.179 50.07c-2.156 0-3.752-1.568-3.752-3.752s1.596-3.738 3.752-3.738 3.738 1.554 3.738 3.738-1.582 3.752-3.738 3.752m0-.882c1.568 0 2.73-1.148 2.73-2.87s-1.162-2.87-2.73-2.87-2.744 1.148-2.744 2.87 1.176 2.87 2.744 2.87"/><path d="M116.792 44.204c.434-1.05 1.442-1.624 2.856-1.624v1.008c-.084 0-.168-.014-.238-.014-1.54 0-2.478.938-2.478 2.674V50h-.994v-6.524h-1.036v-.84h1.82z"/><path d="M108.3 42.636h.994v6.468c0 2.534-1.162 3.682-3.43 3.682-1.26 0-2.506-.406-3.22-1.134l.504-.756c.63.63 1.596 1.008 2.66 1.008 1.708 0 2.492-.854 2.492-2.674v-.854c-.518.854-1.456 1.344-2.604 1.344-1.89 0-3.108-1.05-3.108-3.164v-3.92h.994v3.822c0 1.568.812 2.366 2.212 2.366 1.54 0 2.506-.994 2.506-2.674z"/><path d="M95.942 49.174h4.718V50h-5.992v-.658l4.634-5.866h-4.55v-.84h5.824v.658z"/><path d="M90.739 50.07c-2.198 0-3.794-1.554-3.794-3.752s1.596-3.738 3.794-3.738c1.246 0 2.296.49 2.884 1.456l-.742.504c-.504-.742-1.288-1.092-2.142-1.092-1.61 0-2.786 1.148-2.786 2.87 0 1.736 1.176 2.87 2.786 2.87.854 0 1.638-.336 2.142-1.078l.742.504c-.588.952-1.638 1.456-2.884 1.456"/><path d="M80.82 47.396c.785 0 1.345.546 1.345 1.344 0 .364-.056.63-.378 1.4l-.798 2.016h-1.386l.616-2.226c-.462-.182-.756-.616-.756-1.19 0-.812.588-1.344 1.358-1.344"/><path d="M75.773 42.468h2.184V50h-2.072v-.896c-.574.658-1.414 1.008-2.338 1.008-1.89 0-3.22-1.064-3.22-3.388v-4.256h2.184v3.934c0 1.26.56 1.82 1.526 1.82 1.008 0 1.736-.644 1.736-2.03z"/><path d="M66.865 45.772 69.581 50h-2.478l-2.128-3.262h-1.008V50h-2.184V39.612h2.184v5.46h1.008l2.016-2.604h2.436z"/><path d="M56.686 42.356c1.778 0 3.122 1.036 3.122 3.332V50h-2.184v-3.976c0-1.218-.56-1.778-1.526-1.778-1.05 0-1.806.644-1.806 2.03V50h-2.184v-5.852h-.84v-1.68h2.59l.112 1.176c.574-.84 1.554-1.288 2.716-1.288"/><path d="M47.775 42.468h2.184V50h-2.086v-.868c-.546.658-1.344.98-2.352.98-2.128 0-3.766-1.512-3.766-3.878s1.638-3.878 3.766-3.878c.924 0 1.708.294 2.254.91zm-1.876 5.852c1.078 0 1.918-.784 1.918-2.086s-.84-2.086-1.918-2.086c-1.092 0-1.932.784-1.932 2.086s.84 2.086 1.932 2.086"/><path d="M38.967 44.904c1.092.35 1.792 1.19 1.792 2.422 0 1.694-1.344 2.674-3.92 2.674h-4.816v-7.952h-1.036V40.2h5.572c2.45 0 3.71 1.022 3.71 2.548 0 .98-.504 1.736-1.302 2.156m-2.688-2.996h-2.002v2.31h2.002c1.106 0 1.708-.392 1.708-1.162s-.602-1.148-1.708-1.148m.392 6.384c1.176 0 1.792-.364 1.792-1.204 0-.826-.616-1.218-1.792-1.218h-2.394v2.422z"/><path d="M26.836 42.356c1.792 0 3.08 1.036 3.08 3.332V50h-2.184v-3.976c0-1.218-.546-1.778-1.428-1.778-.98 0-1.666.63-1.666 1.974V50h-2.184v-3.976c0-1.218-.518-1.778-1.428-1.778-.966 0-1.652.63-1.652 1.974V50H17.19v-5.852h-.84v-1.68h2.59l.112 1.162c.546-.826 1.484-1.274 2.59-1.274 1.05 0 1.946.406 2.478 1.232.602-.77 1.582-1.232 2.716-1.232"/><path d="M160.055 24.418c-.812 0-1.358-.532-1.358-1.218s.546-1.218 1.358-1.218 1.358.504 1.358 1.176c0 .728-.546 1.26-1.358 1.26M158.963 33v-7.532h2.184V33z"/><path d="M155.902 24.418c-.812 0-1.358-.532-1.358-1.218s.546-1.218 1.358-1.218 1.358.504 1.358 1.176c0 .728-.546 1.26-1.358 1.26m-1.498 11.41c-.602 0-1.134-.126-1.568-.42l.588-1.582c.224.168.448.266.742.266.378 0 .644-.266.644-.812v-7.812h2.184v7.686c0 1.652-.938 2.674-2.59 2.674"/><path d="M150.039 33.112c-2.45 0-4.2-1.61-4.2-3.878s1.75-3.878 4.2-3.878c1.582 0 2.828.686 3.374 1.918l-1.694.91c-.406-.714-1.008-1.036-1.694-1.036-1.106 0-1.974.77-1.974 2.086s.868 2.086 1.974 2.086c.686 0 1.288-.308 1.694-1.036l1.694.924c-.546 1.204-1.792 1.904-3.374 1.904"/><path d="M142.247 25.468h2.184V33h-2.086v-.868c-.546.658-1.344.98-2.352.98-2.128 0-3.766-1.512-3.766-3.878s1.638-3.878 3.766-3.878c.924 0 1.708.294 2.254.91zm-1.876 5.852c1.078 0 1.918-.784 1.918-2.086s-.84-2.086-1.918-2.086c-1.092 0-1.932.784-1.932 2.086s.84 2.086 1.932 2.086"/><path d="M133.475 28.772 136.191 33h-2.478l-2.128-3.262h-1.008V33h-2.184V22.612h2.184v5.46h1.008l2.016-2.604h2.436z"/><path d="M125.274 24.418c-.812 0-1.358-.532-1.358-1.218s.546-1.218 1.358-1.218 1.358.504 1.358 1.176c0 .728-.546 1.26-1.358 1.26M124.182 33v-7.532h2.184V33z"/><path d="M119.971 33V22.612h2.184V33z"/><path d="M114.761 25.356c2.114 0 3.752 1.512 3.752 3.878s-1.638 3.878-3.752 3.878c-.938 0-1.708-.294-2.268-.91v3.514h-2.184v-8.568h-.84v-1.68h2.59l.14 1.134c.546-.84 1.428-1.246 2.562-1.246m-.378 5.964c1.092 0 1.918-.784 1.918-2.086s-.826-2.086-1.918-2.086-1.918.784-1.918 2.086.826 2.086 1.918 2.086"/><path d="M105.976 25.468h2.184V33h-2.086v-.868c-.546.658-1.344.98-2.352.98-2.128 0-3.766-1.512-3.766-3.878s1.638-3.878 3.766-3.878c.924 0 1.708.294 2.254.91zM104.1 31.32c1.078 0 1.918-.784 1.918-2.086s-.84-2.086-1.918-2.086c-1.092 0-1.932.784-1.932 2.086s.84 2.086 1.932 2.086"/><path d="M93.604 25.468h1.932L92.806 33h-2.1l-1.694-4.676L87.262 33h-2.1l-2.716-7.532h2.058l1.778 5.096 1.848-5.096h1.848l1.792 5.096z"/><path d="m77.683 22.486-2.534 2.016h-1.708l1.89-2.016zm-3.57 8.834h3.962V33h-6.72v-1.316l3.836-4.536h-3.738v-1.68h6.496v1.316z"/><path d="M67.668 22.612h2.184V33h-2.086v-.868c-.546.658-1.344.98-2.352.98-2.128 0-3.766-1.512-3.766-3.878s1.638-3.878 3.766-3.878c.924 0 1.708.294 2.254.91zm-1.876 8.708c1.078 0 1.918-.784 1.918-2.086s-.84-2.086-1.918-2.086c-1.092 0-1.932.784-1.932 2.086s.84 2.086 1.932 2.086"/><path d="M59.998 25.468h1.932L59.2 33h-2.1l-1.694-4.676L53.656 33h-2.1l-2.716-7.532h2.058l1.778 5.096 1.848-5.096h1.848l1.792 5.096z"/><path d="M45.683 25.468h2.184V33H45.78v-.868c-.546.658-1.344.98-2.352.98-2.128 0-3.766-1.512-3.766-3.878s1.638-3.878 3.766-3.878c.924 0 1.708.294 2.254.91zm-1.876 5.852c1.078 0 1.918-.784 1.918-2.086s-.84-2.086-1.918-2.086c-1.092 0-1.932.784-1.932 2.086s.84 2.086 1.932 2.086"/><path d="M36.333 26.742c.504-.91 1.512-1.386 2.814-1.386v2.114c-.182-.014-.322-.028-.476-.028-1.218 0-2.016.616-2.016 2.002V33h-2.184v-5.852h-.84v-1.68h2.59z"/><path d="M29.08 25.356c2.114 0 3.752 1.512 3.752 3.878s-1.639 3.878-3.753 3.878c-.937 0-1.707-.294-2.268-.91v3.514h-2.183v-8.568h-.84v-1.68h2.59l.14 1.134c.546-.84 1.427-1.246 2.561-1.246m-.378 5.964c1.092 0 1.917-.784 1.917-2.086s-.825-2.086-1.918-2.086c-1.091 0-1.918.784-1.918 2.086s.826 2.086 1.918 2.086"/><path d="M19.542 33.112c-1.274 0-2.562-.35-3.262-.812l.728-1.568c.672.434 1.694.728 2.618.728 1.008 0 1.386-.266 1.386-.686 0-1.232-4.55.028-4.55-2.982 0-1.428 1.288-2.436 3.486-2.436 1.036 0 2.184.238 2.898.658l-.728 1.554a4.3 4.3 0 0 0-2.17-.56c-.98 0-1.4.308-1.4.7 0 1.288 4.55.042 4.55 3.01 0 1.4-1.302 2.394-3.556 2.394"/></g><defs><clipPath id="a"><rect width="100" height="6" fill="#fff" transform="translate(139 136)"/></clipPath><clipPath id="b"><rect width="228" height="6" fill="#fff" transform="translate(11)"/></clipPath><clipPath id="c"><rect width="72.067" height="27.386" fill="#fff" transform="translate(15.592 84.67)"/></clipPath></defs></svg>