<svg xmlns="http://www.w3.org/2000/svg" fill="none" viewBox="0 0 300 600"><path fill="#fff" d="M248.667 336.266v-11.048q0-.328.328-.382c.728-.127 1.547-.2 2.493-.2 2.803 0 4.205 1.092 4.205 3.239v.383c0 .8-.201 1.456-.583 1.983-.4.528-.946.892-1.674 1.074l2.985 4.987c.109.182.054.273-.146.273h-.946a.34.34 0 0 1-.31-.164l-2.821-4.877c-.145.018-.382.018-.673.018-.765 0-1.311 0-1.602-.018v4.732c0 .218-.109.309-.291.309h-.655c-.219 0-.31-.091-.31-.309m1.256-10.211v4.441c.619.037 1.22.037 1.802.037.91 0 1.583-.182 2.002-.546s.637-.983.637-1.839v-.236c0-.819-.237-1.402-.673-1.747-.437-.328-1.165-.51-2.184-.51-.583 0-1.02.036-1.311.073-.127.018-.2.054-.236.091-.037.036-.037.127-.037.236m8.2 10.211v-11.048q0-.328.328-.382c.728-.127 1.547-.2 2.493-.2 2.803 0 4.204 1.092 4.204 3.239v.383c0 .8-.2 1.456-.582 1.983-.401.528-.947.892-1.675 1.074l2.985 4.987c.109.182.055.273-.145.273h-.947a.34.34 0 0 1-.309-.164l-2.821-4.877c-.146.018-.382.018-.674.018-.764 0-1.31 0-1.601-.018v4.732c0 .218-.109.309-.291.309h-.656c-.218 0-.309-.091-.309-.309m1.256-10.211v4.441c.619.037 1.219.037 1.802.037.91 0 1.583-.182 2.002-.546s.637-.983.637-1.839v-.236c0-.819-.237-1.402-.674-1.747-.437-.328-1.165-.51-2.184-.51-.582 0-1.019.036-1.31.073-.128.018-.2.054-.237.091-.036.036-.036.127-.036.236m10.857 10.684c-1.129 0-2.13-.164-3.022-.528-.163-.055-.218-.164-.182-.309l.146-.601c.036-.182.164-.218.382-.146a6.3 6.3 0 0 0 2.639.565c.837 0 1.474-.182 1.911-.565s.655-.928.655-1.656v-.2c0-.655-.145-1.128-.4-1.42-.255-.291-.764-.546-1.529-.728l-1.219-.291c-.892-.218-1.547-.546-1.966-1.019-.418-.455-.619-1.092-.619-1.929v-.273c0-.965.31-1.711.929-2.221.618-.509 1.474-.782 2.566-.782.983 0 1.838.127 2.602.346.201.072.273.2.237.4l-.127.437q-.083.273-.437.164a8 8 0 0 0-2.239-.328c-1.51 0-2.257.673-2.257 2.002v.182c0 .619.146 1.056.437 1.329s.783.491 1.474.637l1.147.273c.983.236 1.674.582 2.075 1.019q.6.682.6 2.02v.291c0 1.11-.327 1.948-.982 2.494-.656.564-1.584.837-2.821.837m6.822-6.297v.491c0 2.002.273 3.312.819 3.949.473.565 1.201.838 2.166.838 1.055 0 1.801-.31 2.275-.947.473-.655.709-1.929.709-3.84v-.491c0-.947-.054-1.729-.145-2.348s-.273-1.11-.564-1.511c-.474-.619-1.22-.928-2.275-.928q-1.557 0-2.239.928c-.51.655-.746 1.948-.746 3.859m7.298-.219v.947c0 2.111-.382 3.567-1.11 4.404-.692.783-1.747 1.165-3.203 1.165-1.365 0-2.385-.346-3.076-1.038-.837-.837-1.238-2.347-1.238-4.531v-.947c0-2.111.382-3.603 1.147-4.459.673-.746 1.729-1.128 3.167-1.128 1.419 0 2.475.382 3.166 1.128.765.856 1.147 2.348 1.147 4.459"/><path fill="#fff" d="M175.985 303.199h.332c1.332 0 2.455-.25 3.412-.749v-.583c0-2.288-.25-3.827-.708-4.617-.457-.791-1.289-1.207-2.537-1.207h-.375q-3.12 0-3.12 3.37v.374c0 1.248.208 2.122.708 2.621.499.541 1.248.791 2.288.791m-7.53 13.894c-.499-.166-.707-.458-.707-.957q0-.25.125-.749l.665-2.662c.167-.666.666-.915 1.415-.707 1.996.624 3.744.915 5.241.915h.125c1.498 0 2.538-.374 3.203-1.206q.999-1.186 1.123-3.744c-1.372.582-2.87.832-4.492.832h-.458c-2.954 0-5.075-.708-6.406-2.205-1.332-1.456-1.956-3.703-1.956-6.698v-.582c0-2.663.791-4.784 2.413-6.365 1.623-1.539 3.994-2.33 7.114-2.33h.582c3.744 0 6.407.999 7.904 2.912 1.498 1.914 2.288 5.076 2.288 9.485v.999c0 2.371-.208 4.409-.624 6.156-.416 1.748-.957 3.162-1.622 4.16a7.5 7.5 0 0 1-2.538 2.455c-.998.624-1.997 1.04-2.995 1.206-.998.208-2.163.291-3.453.291h-.041c-2.413 0-4.743-.374-6.906-1.206m24.922-6.032h.582c1.248 0 2.122.333 2.663.915.54.624.832 1.539.832 2.787v.541c0 1.29-.416 2.871-1.165 4.784a18.2 18.2 0 0 1-3.287 5.242c-.249.333-.54.457-.832.457-.166 0-.416-.041-.665-.208l-2.08-1.248c-.499-.249-.541-.665-.125-1.206.374-.499.915-1.29 1.664-2.413.499-.749.749-1.289.749-1.705 0-.208-.125-.375-.333-.541l-.416-.291c-.707-.5-1.04-1.373-1.04-2.621v-1.165c0-2.205 1.123-3.328 3.453-3.328m17.058-7.862h.332c1.332 0 2.455-.25 3.412-.749v-.583c0-2.288-.25-3.827-.708-4.617-.457-.791-1.289-1.207-2.537-1.207h-.375q-3.12 0-3.12 3.37v.374c0 1.248.208 2.122.708 2.621.499.541 1.248.791 2.288.791m-7.53 13.894c-.499-.166-.707-.458-.707-.957q0-.25.125-.749l.665-2.662c.167-.666.666-.915 1.415-.707 1.996.624 3.744.915 5.241.915h.125c1.498 0 2.538-.374 3.203-1.206q.999-1.186 1.124-3.744c-1.373.582-2.871.832-4.493.832h-.458c-2.954 0-5.075-.708-6.406-2.205-1.332-1.456-1.956-3.703-1.956-6.698v-.582c0-2.663.791-4.784 2.413-6.365 1.623-1.539 3.994-2.33 7.114-2.33h.582c3.744 0 6.407.999 7.904 2.912 1.498 1.914 2.288 5.076 2.288 9.485v.999c0 2.371-.208 4.409-.624 6.156-.416 1.748-.956 3.162-1.622 4.16a7.5 7.5 0 0 1-2.538 2.455c-.998.624-1.997 1.04-2.995 1.206-.998.208-2.163.291-3.453.291h-.041c-2.413 0-4.743-.374-6.906-1.206m31.661-13.894h.333c1.331 0 2.454-.25 3.411-.749v-.583c0-2.288-.25-3.827-.707-4.617-.458-.791-1.29-1.207-2.538-1.207h-.374q-3.12 0-3.12 3.37v.374c0 1.248.208 2.122.707 2.621.499.541 1.248.791 2.288.791m-7.53 13.894c-.499-.166-.707-.458-.707-.957q0-.25.125-.749l.666-2.662c.166-.666.665-.915 1.414-.707 1.997.624 3.744.915 5.242.915h.124c1.498 0 2.538-.374 3.204-1.206q.998-1.186 1.123-3.744c-1.373.582-2.871.832-4.493.832h-.458c-2.953 0-5.075-.708-6.406-2.205-1.331-1.456-1.955-3.703-1.955-6.698v-.582c0-2.663.79-4.784 2.413-6.365 1.622-1.539 3.993-2.33 7.113-2.33h.583c3.744 0 6.406.999 7.904 2.912 1.497 1.914 2.288 5.076 2.288 9.485v.999c0 2.371-.208 4.409-.624 6.156-.416 1.748-.957 3.162-1.623 4.16a7.5 7.5 0 0 1-2.537 2.455c-.999.624-1.997 1.04-2.996 1.206-.998.208-2.163.291-3.452.291h-.042c-2.413 0-4.742-.374-6.906-1.206m35.696-19.011v.416c0 2.745-.707 4.701-2.038 5.949-1.248.998-2.87 1.497-4.784 1.497-2.163 0-3.786-.541-4.909-1.622-1.248-1.165-1.872-2.995-1.872-5.408v-1.248c0-2.413.624-4.202 1.872-5.408 1.123-1.082 2.746-1.623 4.909-1.623 1.914 0 3.536.5 4.784 1.498 1.331 1.248 2.038 3.245 2.038 5.949m-7.072 18.72 15.351-25.293c.208-.333.457-.582.707-.707.25-.083.624-.167 1.165-.167h3.037c1.289 0 1.664.5 1.081 1.498l-15.35 25.293c-.25.374-.458.624-.707.707-.25.125-.666.166-1.165.166h-3.037c-1.331 0-1.664-.499-1.082-1.497m-.915-19.635v2.246c0 .874.083 1.456.291 1.747.167.291.458.416.832.416h.084a.97.97 0 0 0 .832-.416c.166-.291.291-.873.291-1.747v-2.246c0-.832-.125-1.415-.291-1.706-.208-.291-.5-.458-.832-.458h-.084c-.374 0-.665.167-.832.458-.208.291-.291.874-.291 1.706m29.203 13.27v.416c0 2.746-.707 4.701-2.038 5.949-1.248.998-2.87 1.497-4.784 1.497-2.163 0-3.786-.54-4.909-1.622-1.248-1.165-1.872-2.954-1.872-5.408v-1.248c0-2.413.624-4.243 1.872-5.408 1.123-1.082 2.746-1.622 4.909-1.622 1.914 0 3.536.499 4.784 1.497 1.331 1.248 2.038 3.245 2.038 5.949m-7.987-.915v2.246c0 .874.083 1.456.291 1.747.167.292.458.416.832.416h.084a.97.97 0 0 0 .832-.416c.166-.291.291-.873.291-1.747v-2.246c0-.832-.125-1.415-.291-1.706-.208-.291-.5-.457-.832-.457h-.084c-.374 0-.665.166-.832.457-.208.291-.291.874-.291 1.706"/><path fill="#fff" d="M17.983 154.494h-.358c-2.094 0-3.917-.269-5.472-.837-.658-.209-.957-.598-.837-1.196l.388-2.422c.06-.598.419-.807 1.047-.598 1.734.628 3.349.927 4.784.927h.15c.896 0 1.554-.12 1.943-.389.359-.239.568-.687.568-1.315v-.299c0-.598-.18-.987-.479-1.226-.328-.21-.956-.419-1.883-.598l-2.033-.389c-1.675-.299-2.87-.897-3.529-1.734-.687-.837-1.016-2.003-1.016-3.528v-.838c0-1.674.448-2.93 1.345-3.827 1.077-1.076 3.08-1.614 5.95-1.614h.21c2.003 0 3.707.269 5.083.777.299.12.508.299.598.478.06.21.06.509-.03.868l-.508 2.182c-.12.538-.509.718-1.107.509q-2.062-.628-3.947-.628h-.12c-.986 0-1.674.119-2.032.329-.39.239-.569.627-.569 1.166v.269c0 .478.12.837.39 1.016.238.21.777.389 1.554.539l2.272.448c1.794.359 3.02.927 3.708 1.645.658.717 1.017 1.973 1.017 3.737v.718c0 2.033-.569 3.498-1.675 4.425-1.106.957-2.9 1.405-5.412 1.405m17.611-5.621v-8.432c0-.299.06-.508.21-.658.149-.119.418-.209.807-.209h2.75c.36 0 .629.09.778.209.15.15.24.359.24.658v8.851q-.001 2.735-1.346 3.946c-.957.838-2.632 1.256-5.083 1.256s-4.156-.418-5.083-1.256q-1.346-1.211-1.346-3.946v-8.851c0-.299.06-.508.21-.658.149-.119.418-.209.807-.209h2.75c.36 0 .628.09.778.209.15.15.24.359.24.658v8.432c0 .688.089 1.136.328 1.375.24.269.658.389 1.316.389.628 0 1.076-.12 1.315-.389.21-.239.33-.687.33-1.375m11.29-8.013c1.046-1.017 2.541-1.555 4.455-1.555h.269c1.854 0 3.17.538 3.977 1.555.717.957 1.076 2.571 1.076 4.903v2.243c0 1.256-.12 2.302-.299 3.08-.21.777-.568 1.435-1.076 1.943-1.017.987-2.392 1.465-4.186 1.465h-.33q-1.703 0-2.78-.628v4.605c0 .448-.09.747-.24.867-.178.12-.507.179-1.016.179h-2.272c-.508 0-.837-.059-1.017-.209-.18-.12-.239-.419-.239-.837v-17.94c0-.359.06-.598.24-.748.149-.119.418-.209.807-.209h1.255c.36 0 .628.06.778.12.12.089.239.269.329.508l.209.658zm1.106 4.246v3.827c0 .687.12 1.166.419 1.435.269.269.717.389 1.345.389h.27c.687 0 1.165-.18 1.464-.598q.36-.538.36-2.602v-1.285c0-1.436-.12-2.333-.36-2.661-.299-.359-.777-.539-1.495-.539h-.209c-.658 0-1.106.15-1.405.449-.27.269-.389.807-.389 1.585m18.363 5.531h.329c1.016 0 2.093-.12 3.169-.389.299-.059.478-.089.568-.089.299 0 .478.179.538.508l.24 1.495c.06.419.119.688.119.807 0 .359-.27.628-.777.808-1.376.478-2.9.717-4.515.717h-.568q-3.678 0-5.203-1.525a4.3 4.3 0 0 1-1.196-2.033c-.21-.777-.299-1.824-.299-3.11v-1.674c0-2.601.598-4.425 1.794-5.502 1.017-.897 2.571-1.345 4.694-1.345h.419c2.093 0 3.618.508 4.515 1.495.957 1.076 1.435 2.84 1.435 5.352v1.555c0 .568-.299.837-.867.837h-7.176v.239c0 .718.18 1.196.598 1.465.389.269 1.106.389 2.183.389m-2.781-5.203h3.289c.24 0 .359-.119.359-.388v-.479c0-.598-.12-1.046-.3-1.375-.239-.359-.717-.538-1.375-.538h-.269c-.598 0-1.016.149-1.256.418q-.448.538-.448 1.615zm14.353-4.245h.09c.657-1.077 1.763-1.615 3.348-1.615h1.196c.3 0 .538.06.658.179.12.12.21.329.21.658v2.183c0 .329-.06.538-.18.658q-.18.179-.628.179h-.897c-1.106 0-1.854.209-2.272.628-.36.359-.509 1.047-.509 2.063v7.236c0 .299-.09.538-.239.658-.15.149-.419.209-.777.209h-2.751c-.389 0-.658-.06-.808-.209-.149-.12-.209-.359-.209-.658v-12.947c0-.299.06-.508.21-.628.149-.119.418-.209.807-.209h1.435c.329 0 .568.06.718.15q.225.179.358.538zm6.88 3.199v-.389c0-1.465.39-2.571 1.167-3.349.897-.897 2.422-1.345 4.545-1.345h.299c1.674 0 3.14.179 4.365.538q.36.135.449.269c.06.12.09.269.06.509l-.33 2.451c-.06.389-.328.509-.807.389-1.196-.269-2.272-.419-3.17-.419h-.03c-.657 0-1.135.06-1.374.18-.27.119-.39.329-.39.628v.089c0 .299.09.509.33.628.239.12.687.269 1.375.389l1.405.299c1.286.299 2.213.748 2.751 1.346s.807 1.524.807 2.75v.449c0 3.139-1.973 4.694-5.86 4.694h-.299c-1.973 0-3.618-.269-4.993-.807-.27-.09-.449-.209-.508-.359-.06-.12-.06-.359 0-.688l.418-1.973c.09-.568.419-.748 1.017-.568 1.375.478 2.571.688 3.588.688h.09c.657 0 1.106-.06 1.375-.21.239-.119.389-.359.389-.687v-.09a.64.64 0 0 0-.33-.568q-.358-.18-1.435-.449l-1.315-.299q-1.974-.448-2.78-1.345c-.54-.598-.808-1.495-.808-2.751m18.812-1.017h-4.754c-.3 0-.509-.03-.628-.149-.12-.12-.15-.359-.15-.718v-2.063c0-.359.03-.568.15-.688q.18-.179.628-.179h10.106c.299 0 .508.06.658.179.119.12.209.359.209.688v.568c0 .778-.239 1.495-.658 2.123l-5.143 7.296h5.113c.299 0 .479.06.598.179.12.12.18.329.18.688v2.063q0 .538-.18.718c-.119.119-.299.149-.598.149H98.863c-.628 0-.927-.269-.927-.867v-.688c0-.777.209-1.465.657-2.123zm21.002-2.9c-.419 2.811-1.196 5.92-2.333 9.359-1.166 3.438-2.571 6.697-4.215 9.747-.21.419-.479.628-.838.628-.239 0-.508-.06-.867-.239l-1.525-.658c-.538-.239-.777-.478-.777-.747 0-.12.03-.299.149-.509 1.017-2.063 1.615-3.259 1.735-3.588-.838-.299-1.465-.957-1.944-2.033-.538-1.196-1.166-3.02-1.854-5.531q-1.031-3.768-1.525-6.459c-.059-.299-.029-.508.12-.658.15-.119.419-.209.777-.209h2.721c.329 0 .568.06.718.15.149.089.269.269.329.568.688 3.767 1.465 7.116 2.332 10.016h.15c.837-2.392 1.614-5.681 2.332-9.927q.044-.448.269-.628c.149-.119.389-.179.688-.179h2.75c.329 0 .568.09.688.209.12.12.15.359.12.688m6.53 4.635v3.827c0 .687.12 1.166.419 1.435.239.269.688.389 1.346.389h.269c.687 0 1.166-.18 1.465-.598q.359-.538.359-2.602v-1.285c0-1.495-.15-2.422-.389-2.721-.269-.299-.778-.479-1.495-.479h-.12c-.687 0-1.166.15-1.465.449-.269.269-.389.807-.389 1.585m0-4.994h.06q1.301-.807 3.409-.807h.269c1.794 0 3.11.538 3.917 1.615.658.926 1.016 2.571 1.016 4.933v2.153c0 2.392-.508 4.066-1.524 4.993-1.077 1.017-2.781 1.495-5.113 1.495h-.598c-2.452 0-4.127-.478-5.024-1.465-.807-.867-1.196-2.272-1.196-4.246V134.85c0-.299.06-.508.21-.658.119-.12.388-.209.777-.209h2.781c.359 0 .628.089.777.209.15.15.239.359.239.658zm16.031 8.312v4.934c0 .299-.09.538-.239.658-.15.149-.419.209-.778.209h-2.751c-.388 0-.657-.06-.807-.209-.149-.12-.209-.359-.209-.658V134.85c0-.299.06-.508.209-.658.15-.12.419-.209.807-.209h2.751c.359 0 .628.089.778.209.149.15.239.359.239.658v9.747h.209l2.841-4.335c.269-.449.687-.688 1.255-.688h3.469c.329 0 .508.12.508.359 0 .119-.09.329-.239.568l-3.439 5.143c-.269.418-.388.717-.388.897 0 .209.119.508.388.897l3.678 5.8c.12.24.18.389.18.509 0 .329-.21.478-.628.478h-3.319c-.419 0-.748-.03-.927-.149q-.27-.135-.538-.628l-2.841-5.024zm14.834-7.983v12.917c0 .299-.089.538-.239.658-.149.149-.418.209-.777.209h-2.751c-.389 0-.658-.06-.807-.209-.15-.12-.21-.359-.21-.658v-12.917c0-.299.06-.508.21-.658.149-.119.418-.209.807-.209h2.751c.359 0 .628.09.777.209.15.15.239.359.239.658m-2.212-2.003h-.359c-1.615 0-2.422-.807-2.422-2.482v-.149c0-1.645.807-2.482 2.422-2.482h.359c1.614 0 2.422.837 2.422 2.482v.149c0 1.675-.808 2.482-2.422 2.482M16.309 181.424v4.934c0 .299-.09.538-.24.658-.149.149-.418.209-.777.209h-2.75c-.39 0-.658-.06-.808-.209-.15-.12-.21-.359-.21-.658V167.85c0-.299.06-.508.21-.658.15-.12.419-.209.807-.209h2.751c.36 0 .628.089.778.209.15.15.239.359.239.658v9.747h.21l2.84-4.335c.269-.449.687-.688 1.255-.688h3.469c.329 0 .508.12.508.359 0 .119-.09.329-.239.568l-3.439 5.143c-.269.418-.388.717-.388.897 0 .209.12.508.389.897l3.677 5.8c.12.24.18.389.18.509 0 .329-.21.478-.628.478h-3.32c-.418 0-.747-.03-.926-.149q-.27-.135-.538-.628l-2.84-5.024zm13.758-7.235h.09c.658-1.077 1.764-1.615 3.349-1.615h1.196c.299 0 .538.06.657.179.12.12.21.329.21.658v2.183c0 .329-.06.538-.18.658q-.18.179-.628.179h-.897c-1.106 0-1.853.209-2.272.628-.359.359-.508 1.047-.508 2.063v7.236c0 .299-.09.538-.24.658-.149.149-.418.209-.777.209h-2.75c-.39 0-.659-.06-.808-.209-.15-.12-.21-.359-.21-.658v-12.947c0-.299.06-.508.21-.628.15-.119.419-.209.807-.209h1.436c.328 0 .568.06.717.15q.225.179.359.538zm14.27 9.448h.328c1.017 0 2.093-.12 3.17-.389.299-.059.478-.089.568-.089.299 0 .478.179.538.508l.24 1.495c.059.419.119.688.119.807 0 .359-.27.628-.778.808-1.375.478-2.9.717-4.514.717h-.569q-3.677 0-5.202-1.525a4.3 4.3 0 0 1-1.196-2.033c-.21-.777-.3-1.824-.3-3.11v-1.674c0-2.601.599-4.425 1.795-5.502 1.016-.897 2.571-1.345 4.694-1.345h.419c2.093 0 3.618.508 4.515 1.495.956 1.076 1.435 2.84 1.435 5.352v1.555c0 .568-.3.837-.867.837h-7.176v.239c0 .718.18 1.196.598 1.465.388.269 1.106.389 2.182.389m-2.781-5.203h3.289c.239 0 .358-.119.358-.388v-.479c0-.598-.12-1.046-.299-1.375-.239-.359-.717-.538-1.375-.538h-.269c-.598 0-1.017.149-1.256.418q-.448.538-.448 1.615zm18.778 3.499v-3.798c0-.747-.12-1.285-.36-1.584-.268-.299-.747-.479-1.404-.479h-.3c-.657 0-1.106.18-1.375.509-.299.329-.419 1.255-.419 2.81v1.316c0 1.435.15 2.332.449 2.631.24.299.688.419 1.375.419h.33c.567 0 .986-.12 1.285-.389.27-.269.419-.748.419-1.435m-.06-9.09h.06v-4.993c0-.299.06-.508.209-.658.15-.12.419-.209.807-.209h2.78c.36 0 .629.089.778.209.12.15.21.359.21.658v13.604c0 2.093-.39 3.529-1.166 4.366a4.65 4.65 0 0 1-2.064 1.285c-.837.27-1.943.389-3.348.389h-.509c-2.212 0-3.797-.448-4.814-1.345-1.046-.897-1.554-2.572-1.554-5.053v-2.392c0-2.392.478-4.067 1.495-5.024.956-.897 2.272-1.375 3.976-1.375h.36q1.703 0 2.78.538m20.37.628c-.418 2.811-1.195 5.92-2.332 9.359-1.166 3.438-2.571 6.697-4.215 9.747-.21.419-.479.628-.838.628-.239 0-.508-.06-.867-.239l-1.525-.658c-.538-.239-.777-.478-.777-.747 0-.12.03-.299.15-.509 1.016-2.063 1.614-3.259 1.734-3.588-.838-.299-1.466-.957-1.944-2.033-.538-1.196-1.166-3.02-1.854-5.531q-1.031-3.768-1.525-6.459c-.06-.299-.03-.508.12-.658.15-.119.419-.209.777-.209h2.721c.33 0 .568.06.718.15.15.089.269.269.329.568.688 3.767 1.465 7.116 2.332 10.016h.15c.837-2.392 1.614-5.681 2.332-9.927q.045-.448.269-.628c.15-.119.388-.179.688-.179h2.75c.33 0 .568.09.688.209.12.12.15.359.12.688m11.836 10.943v1.705c0 .448-.09.747-.21.897-.119.149-.388.209-.747.209h-2.392c-2.153 0-3.588-.359-4.246-1.106-.598-.628-.867-1.824-.867-3.618v-6.189h-1.614c-.3 0-.479-.03-.598-.15-.12-.12-.15-.299-.15-.598v-1.525c0-.359.03-.598.15-.717.09-.12.299-.21.628-.299l1.584-.389v-2.93c0-.299.06-.509.21-.658.15-.12.418-.209.807-.209h2.75c.36 0 .629.089.778.209.15.149.24.359.24.658v2.87h2.481c.3 0 .478.06.598.179.12.12.18.329.18.688v2.003q0 .538-.18.718c-.12.12-.299.15-.598.15h-2.482v5.651c0 .538.06.867.24 1.046.179.209.568.299 1.166.299h1.315c.36 0 .628.09.748.239.12.15.21.449.21.867m15.353 1.436h-.807c-4.246 0-6.339-1.914-6.339-5.771v-2.003c0-1.974.508-3.409 1.555-4.366 1.016-.927 2.601-1.405 4.694-1.405h.418c.389-2.153 1.974-3.259 4.784-3.259h1.466c.299 0 .478.06.598.149.089.12.149.329.149.628v1.645c0 .299-.06.478-.179.568-.12.119-.329.149-.598.149h-1.406c-.657 0-1.106.15-1.375.449 2.242.598 3.379 2.422 3.379 5.442v2.003c0 2.153-.598 3.588-1.764 4.365.777.419 1.375.957 1.823 1.615.449.658.688 1.375.688 2.123v.209c0 2.96-2.362 4.425-7.026 4.425h-.568c-2.034 0-4.007-.358-5.861-1.076-.538-.179-.747-.568-.598-1.136l.538-1.914c.15-.568.509-.777 1.077-.598 1.764.598 3.319.867 4.694.867h.419q2.601 0 2.601-1.525v-.089c0-.568-.299-1.077-.897-1.555-.478.06-.987.06-1.465.06m-.508-3.738h.209c.658 0 1.106-.119 1.405-.418.329-.329.508-1.017.508-2.034v-1.166c0-1.016-.179-1.674-.508-2.033-.299-.269-.747-.419-1.405-.419h-.209c-.658 0-1.137.15-1.406.419-.359.359-.508 1.017-.508 2.033v1.166c0 1.017.149 1.705.508 2.034.269.299.748.418 1.406.418m13.857-3.379v2.333c0 1.166.179 1.913.538 2.272.269.299.688.419 1.256.419h.12c.538 0 .956-.12 1.255-.419.359-.359.539-1.106.539-2.272v-2.333c0-1.136-.18-1.913-.539-2.272-.299-.269-.717-.419-1.255-.419h-.12c-.568 0-.987.15-1.256.419-.359.359-.538 1.136-.538 2.272m8.521.18v1.943c0 1.495-.149 2.632-.448 3.469s-.777 1.495-1.435 2.003c-.987.777-2.512 1.166-4.605 1.166h-.359c-2.093 0-3.647-.389-4.604-1.166-.658-.508-1.136-1.166-1.435-2.003s-.449-1.974-.449-3.469v-1.913c0-1.465.15-2.602.449-3.439a4.5 4.5 0 0 1 1.435-2.033c.957-.777 2.511-1.166 4.604-1.166h.359c2.093 0 3.618.389 4.605 1.166a4.6 4.6 0 0 1 1.435 2.003c.299.838.448 1.974.448 3.439m11.919 5.501v1.705c0 .448-.089.747-.209.897-.12.149-.389.209-.747.209h-2.392c-2.153 0-3.588-.359-4.246-1.106-.598-.628-.867-1.824-.867-3.618v-6.189h-1.615c-.299 0-.478-.03-.598-.15s-.149-.299-.149-.598v-1.525c0-.359.029-.598.149-.717.09-.12.299-.21.628-.299l1.585-.389v-2.93c0-.299.059-.509.209-.658.149-.12.419-.209.807-.209h2.751c.359 0 .628.089.777.209.15.149.24.359.24.658v2.87h2.481c.299 0 .479.06.598.179.12.12.18.329.18.688v2.003q0 .538-.18.718c-.119.12-.299.15-.598.15h-2.481v5.651c0 .538.059.867.239 1.046.179.209.568.299 1.166.299h1.316c.358 0 .627.09.747.239.12.15.209.449.209.867m6.598-5.681v2.333c0 1.166.18 1.913.539 2.272.269.299.687.419 1.255.419h.12c.538 0 .957-.12 1.256-.419.359-.359.538-1.106.538-2.272v-2.333c0-1.136-.179-1.913-.538-2.272-.299-.269-.718-.419-1.256-.419h-.12c-.568 0-.986.15-1.255.419-.359.359-.539 1.136-.539 2.272m8.522.18v1.943c0 1.495-.15 2.632-.449 3.469s-.777 1.495-1.435 2.003c-.986.777-2.511 1.166-4.604 1.166h-.359c-2.093 0-3.648-.389-4.605-1.166-.658-.508-1.136-1.166-1.435-2.003s-.448-1.974-.448-3.469v-1.913c0-1.465.149-2.602.448-3.439a4.5 4.5 0 0 1 1.435-2.033c.957-.777 2.512-1.166 4.605-1.166h.359c2.093 0 3.618.389 4.604 1.166a4.6 4.6 0 0 1 1.435 2.003c.299.838.449 1.974.449 3.439m-9.12-10.286 4.695-4.006c.179-.18.388-.269.568-.269.209 0 .418.149.598.388l1.435 1.854c.12.179.179.329.179.508 0 .24-.179.479-.478.718l-4.724 3.229c-.209.15-.419.209-.598.209-.239 0-.479-.119-.718-.418l-.897-1.047c-.239-.269-.329-.508-.329-.687s.09-.359.269-.479m19.335 4.665h2.571c.419 0 .718.059.867.179s.269.359.329.718c0 .119.538 2.78 1.585 7.953h.089c.539-3.139 1.017-6.04 1.406-8.731.03-.329.119-.538.239-.658q.179-.179.628-.179h3.05c.328 0 .538.09.657.209.09.15.12.389.06.688-.478 2.332-1.076 4.904-1.734 7.714s-1.136 4.575-1.435 5.322c-.12.299-.269.509-.419.598-.149.09-.389.12-.688.12h-3.289c-.627 0-1.016-.209-1.136-.688-.568-2.033-1.046-4.604-1.465-7.714h-.119a82 82 0 0 1-1.495 7.714c-.12.479-.479.688-1.077.688h-3.229c-.598 0-.987-.209-1.136-.658-.299-.807-.808-2.661-1.525-5.531a139 139 0 0 1-1.675-7.565c-.089-.329-.059-.568.06-.688.12-.119.359-.209.718-.209h2.93c.299 0 .538.06.688.179.119.12.209.359.269.658.418 2.781.897 5.681 1.465 8.731h.12c.717-3.708 1.225-6.369 1.465-7.953.059-.389.149-.628.299-.748.149-.09.448-.149.927-.149m18.036 8.132v4.934c0 .299-.09.538-.239.658-.15.149-.419.209-.778.209h-2.751c-.388 0-.657-.06-.807-.209-.149-.12-.209-.359-.209-.658V167.85c0-.299.06-.508.209-.658.15-.12.419-.209.807-.209h2.751c.359 0 .628.089.778.209.149.15.239.359.239.658v9.747h.209l2.841-4.335c.269-.449.687-.688 1.255-.688h3.469c.329 0 .508.12.508.359 0 .119-.09.329-.239.568l-3.439 5.143c-.269.418-.388.717-.388.897 0 .209.119.508.388.897l3.678 5.8c.12.24.18.389.18.509 0 .329-.21.478-.628.478h-3.319c-.419 0-.748-.03-.927-.149q-.27-.135-.538-.628l-2.841-5.024zm14.093-2.691v2.333c0 1.166.179 1.913.538 2.272.269.299.687.419 1.256.419h.119c.538 0 .957-.12 1.256-.419.359-.359.538-1.106.538-2.272v-2.333c0-1.136-.179-1.913-.538-2.272-.299-.269-.718-.419-1.256-.419h-.119c-.569 0-.987.15-1.256.419-.359.359-.538 1.136-.538 2.272m8.521.18v1.943c0 1.495-.149 2.632-.448 3.469a4.28 4.28 0 0 1-1.436 2.003c-.986.777-2.511 1.166-4.604 1.166h-.359c-2.093 0-3.648-.389-4.605-1.166a4.3 4.3 0 0 1-1.435-2.003c-.299-.837-.448-1.974-.448-3.469v-1.913c0-1.465.149-2.602.448-3.439a4.53 4.53 0 0 1 1.435-2.033c.957-.777 2.512-1.166 4.605-1.166h.359c2.093 0 3.618.389 4.604 1.166a4.6 4.6 0 0 1 1.436 2.003c.299.838.448 1.974.448 3.439m10.215-5.621h2.571c.419 0 .718.059.867.179s.269.359.329.718c0 .119.538 2.78 1.585 7.953h.089c.539-3.139 1.017-6.04 1.406-8.731.03-.329.119-.538.239-.658q.179-.179.628-.179h3.05c.328 0 .538.09.657.209.09.15.12.389.06.688-.478 2.332-1.076 4.904-1.734 7.714s-1.136 4.575-1.435 5.322c-.12.299-.269.509-.419.598-.149.09-.389.12-.688.12h-3.289c-.627 0-1.016-.209-1.136-.688-.568-2.033-1.046-4.604-1.465-7.714h-.119a82 82 0 0 1-1.495 7.714c-.12.479-.479.688-1.077.688h-3.229c-.598 0-.987-.209-1.136-.658-.299-.807-.808-2.661-1.525-5.531a139 139 0 0 1-1.675-7.565c-.089-.329-.059-.568.06-.688.12-.119.359-.209.718-.209h2.93c.299 0 .538.06.688.179.119.12.209.359.269.658.418 2.781.897 5.681 1.465 8.731h.12c.717-3.708 1.225-6.369 1.465-7.953.059-.389.149-.628.299-.748.149-.09.448-.149.927-.149m26.338.179c-.418 2.811-1.196 5.92-2.332 9.359-1.166 3.438-2.571 6.697-4.216 9.747-.209.419-.478.628-.837.628-.239 0-.508-.06-.867-.239l-1.525-.658c-.538-.239-.777-.478-.777-.747 0-.12.029-.299.149-.509 1.017-2.063 1.615-3.259 1.734-3.588-.837-.299-1.465-.957-1.943-2.033-.538-1.196-1.166-3.02-1.854-5.531q-1.032-3.768-1.525-6.459c-.06-.299-.03-.508.12-.658.149-.119.418-.209.777-.209h2.721c.329 0 .568.06.718.15.149.089.269.269.328.568.688 3.767 1.466 7.116 2.333 10.016h.149c.837-2.392 1.615-5.681 2.332-9.927q.045-.448.269-.628c.15-.119.389-.179.688-.179h2.751c.329 0 .568.09.688.209.119.12.149.359.119.688M19.718 221.933v-3.798c0-.747-.12-1.285-.36-1.584-.268-.299-.747-.479-1.405-.479h-.299c-.657 0-1.106.18-1.375.509-.299.329-.419 1.255-.419 2.81v1.316c0 1.435.15 2.332.449 2.631.24.299.688.419 1.375.419h.33c.567 0 .986-.12 1.285-.389.269-.269.419-.748.419-1.435m-.06-9.09h.06v-4.993c0-.299.06-.508.209-.658.15-.12.418-.209.807-.209h2.78c.36 0 .629.089.778.209.12.15.21.359.21.658v13.604c0 2.093-.39 3.529-1.167 4.366a4.65 4.65 0 0 1-2.063 1.285c-.837.27-1.943.389-3.348.389h-.509c-2.212 0-3.797-.448-4.814-1.345-1.046-.897-1.555-2.572-1.555-5.053v-2.392c0-2.392.479-4.067 1.495-5.024.957-.897 2.273-1.375 3.977-1.375h.359q1.704 0 2.78.538m12.028 5.89v2.333c0 1.166.18 1.913.539 2.272.269.299.687.419 1.255.419h.12c.538 0 .957-.12 1.256-.419.359-.359.538-1.106.538-2.272v-2.333c0-1.136-.18-1.913-.538-2.272-.3-.269-.718-.419-1.256-.419h-.12c-.568 0-.986.15-1.255.419-.36.359-.539 1.136-.539 2.272m8.522.18v1.943c0 1.495-.15 2.632-.449 3.469a4.28 4.28 0 0 1-1.435 2.003c-.986.777-2.511 1.166-4.604 1.166h-.36c-2.092 0-3.647-.389-4.604-1.166a4.28 4.28 0 0 1-1.435-2.003c-.299-.837-.449-1.974-.449-3.469v-1.913c0-1.465.15-2.602.449-3.439a4.5 4.5 0 0 1 1.435-2.033c.957-.777 2.512-1.166 4.605-1.166h.359c2.093 0 3.617.389 4.604 1.166a4.6 4.6 0 0 1 1.435 2.003c.3.838.449 1.974.449 3.439m17.6-10.58h-.145c-1.53 0-3.204.328-5.024.947-.618.218-.982.036-1.128-.546l-.655-2.621c-.182-.655 0-1.128.582-1.347 2.257-.946 4.732-1.419 7.462-1.419h.11c2.402 0 4.258.546 5.569 1.601 1.31 1.056 1.965 2.657 1.965 4.769v.436c0 1.893-.4 3.349-1.165 4.441-.8 1.092-2.038 2.075-3.712 2.876l-1.893.91c-1.747.873-2.84 1.529-3.349 1.965s-.764 1.056-.764 1.784v.4h9.536c.51 0 .874.11 1.02.255.145.146.218.473.218.947v2.402c0 .437-.11.728-.255.874q-.273.218-.983.218h-14.05q-.765 0-.983-.218c-.182-.146-.255-.437-.255-.874v-2.33c0-2.329.4-4.186 1.274-5.496.838-1.31 2.294-2.402 4.368-3.349l1.566-.691c1.274-.546 2.147-1.056 2.584-1.566.437-.473.692-1.128.692-1.965v-.291c0-1.384-.874-2.112-2.585-2.112m30.943 5.533v3.167c0 3.422-.728 6.042-2.148 7.826-1.456 1.82-3.858 2.694-7.207 2.694s-5.751-.874-7.207-2.694c-1.456-1.784-2.148-4.404-2.148-7.826v-3.167c0-3.421.692-6.006 2.148-7.826 1.456-1.783 3.858-2.693 7.207-2.693s5.751.91 7.207 2.693c1.42 1.82 2.148 4.405 2.148 7.826m-6.224 2.548v-1.929c0-2.366-.219-4.004-.583-4.878-.364-.873-1.201-1.346-2.475-1.346h-.146c-1.31.036-2.147.473-2.511 1.346s-.546 2.512-.546 4.878v1.929c0 2.403.182 4.004.546 4.878.364.873 1.201 1.347 2.511 1.347h.146c1.274 0 2.111-.437 2.475-1.311s.583-2.511.583-4.914m27.339-2.548v3.167c0 3.422-.728 6.042-2.148 7.826-1.456 1.82-3.858 2.694-7.207 2.694s-5.751-.874-7.207-2.694c-1.456-1.784-2.148-4.404-2.148-7.826v-3.167c0-3.421.692-6.006 2.148-7.826 1.456-1.783 3.858-2.693 7.207-2.693s5.751.91 7.207 2.693c1.42 1.82 2.148 4.405 2.148 7.826m-6.225 2.548v-1.929c0-2.366-.218-4.004-.582-4.878-.364-.873-1.201-1.346-2.475-1.346h-.146c-1.31.036-2.147.473-2.511 1.346s-.546 2.512-.546 4.878v1.929c0 2.403.182 4.004.546 4.878.364.873 1.2 1.347 2.511 1.347h.146c1.274 0 2.111-.437 2.475-1.311s.582-2.511.582-4.914m28.57 7.389v2.075c0 .546-.109.91-.255 1.092-.145.182-.473.255-.91.255h-2.912c-2.621 0-4.368-.437-5.169-1.347-.728-.764-1.055-2.22-1.055-4.404v-7.535h-1.966c-.364 0-.582-.036-.728-.182-.145-.146-.182-.364-.182-.728v-1.856c0-.437.037-.728.182-.874.109-.146.364-.255.765-.364l1.929-.473v-3.567c0-.364.073-.619.255-.801.182-.146.509-.255.982-.255h3.349c.437 0 .765.109.947.255.182.182.291.437.291.801v3.494h3.021c.364 0 .582.073.728.218s.218.401.218.838v2.438q0 .655-.218.874c-.146.146-.364.182-.728.182h-3.021v6.88c0 .655.073 1.055.291 1.274.218.254.692.364 1.42.364h1.601c.437 0 .765.109.91.291s.255.546.255 1.055m18.188-13.322c-.51 3.422-1.456 7.207-2.839 11.393-1.42 4.186-3.131 8.154-5.133 11.867-.254.509-.582.764-1.019.764-.291 0-.619-.073-1.055-.291l-1.857-.801c-.655-.291-.946-.582-.946-.91 0-.146.036-.364.182-.619 1.237-2.511 1.965-3.967 2.111-4.368-1.019-.364-1.784-1.165-2.366-2.475-.655-1.456-1.42-3.676-2.257-6.734q-1.256-4.587-1.856-7.862c-.073-.364-.037-.619.145-.801.182-.146.51-.255.947-.255h3.312c.401 0 .692.073.874.182s.327.328.4.692c.837 4.586 1.784 8.663 2.839 12.194h.182c1.02-2.912 1.966-6.916 2.84-12.085q.054-.546.327-.765c.182-.145.473-.218.837-.218h3.349c.401 0 .692.109.837.255.146.145.182.437.146.837m1.653 4.768v-.473c0-1.783.474-3.13 1.42-4.077 1.092-1.092 2.948-1.638 5.533-1.638h.364c2.038 0 3.822.219 5.314.656q.437.164.546.327c.073.146.109.328.073.619l-.4 2.985c-.073.473-.401.619-.983.473-1.456-.328-2.767-.51-3.859-.51h-.036c-.801 0-1.383.073-1.674.219-.328.145-.474.4-.474.764v.109c0 .364.11.619.401.765.291.145.837.327 1.674.473l1.711.364c1.565.364 2.694.91 3.349 1.638s.983 1.856.983 3.349v.546c0 3.822-2.403 5.715-7.135 5.715h-.364c-2.402 0-4.404-.328-6.079-.983-.327-.109-.546-.255-.618-.437-.073-.146-.073-.437 0-.837l.509-2.403c.109-.691.51-.91 1.238-.691 1.674.582 3.13.837 4.368.837h.109c.801 0 1.347-.073 1.674-.255.292-.145.474-.437.474-.837v-.109a.78.78 0 0 0-.401-.692q-.436-.218-1.747-.546l-1.602-.364q-2.402-.546-3.385-1.638c-.655-.728-.983-1.82-.983-3.349m22.646 8.918v.364c0 2.039-.983 3.022-2.912 3.022h-.401c-1.965 0-2.912-.983-2.912-3.022v-.364c0-1.055.219-1.82.728-2.256.474-.437 1.202-.692 2.184-.692h.401c.946 0 1.674.255 2.184.692.473.436.728 1.201.728 2.256m16.997-10.155h-5.788c-.364 0-.618-.037-.764-.182-.146-.146-.182-.437-.182-.874v-2.511c0-.437.036-.692.182-.838q.218-.218.764-.218h12.304c.364 0 .618.073.8.218.146.146.255.437.255.838v.691c0 .947-.291 1.82-.801 2.585l-6.26 8.881h6.224c.364 0 .582.073.728.219.146.145.218.4.218.837v2.511q0 .655-.218.874c-.146.146-.364.182-.728.182h-12.522c-.764 0-1.128-.328-1.128-1.056v-.837c0-.946.255-1.783.801-2.584zm17.705 8.481h1.165c.364 0 .655.109.801.255.145.182.255.509.255.983v2.256c0 .51-.11.838-.255.983-.146.182-.437.255-.801.255h-2.766c-1.82 0-3.094-.328-3.822-1.056-.728-.691-1.092-1.929-1.092-3.676v-3.931l-1.202.764c-.473.291-.8.437-.946.437-.291 0-.4-.218-.4-.655v-3.385c0-.364.036-.619.182-.801.109-.146.327-.364.691-.619l1.675-1.056v-9.609c0-.364.072-.619.254-.801.182-.146.51-.255.983-.255h3.349c.437 0 .764.109.946.255.182.182.292.437.292.801v5.897l1.638-1.056c.436-.291.764-.437.946-.437.255 0 .4.219.4.655v3.386c0 .364-.072.655-.182.8a3 3 0 0 1-.691.619l-2.111 1.347v6.952c0 .292.036.474.145.546.073.11.255.146.546.146"/></svg>