<svg xmlns="http://www.w3.org/2000/svg" fill="none" viewBox="0 0 300 600"><g fill="#fff"><path d="M215.65 327.821c.774-.751 1.879-1.149 3.293-1.149h.199c1.37 0 2.343.398 2.94 1.149.53.708.795 1.901.795 3.625v1.657c0 .928-.088 1.702-.221 2.277-.155.574-.42 1.06-.795 1.436-.752.729-1.768 1.083-3.094 1.083h-.244q-1.258 0-2.055-.464v3.403c0 .332-.066.553-.177.641-.132.089-.375.133-.751.133h-1.68c-.375 0-.618-.044-.751-.155-.133-.088-.177-.309-.177-.619v-13.26c0-.265.044-.442.177-.552.11-.089.309-.155.597-.155h.928c.265 0 .464.044.574.088.089.067.177.199.244.376l.154.486zm.818 3.139v2.828c0 .509.089.862.31 1.061.198.199.53.287.994.287h.199c.508 0 .862-.132 1.083-.442q.265-.398.265-1.922v-.951c0-1.06-.088-1.723-.265-1.966-.221-.266-.575-.398-1.105-.398h-.155c-.486 0-.818.11-1.039.331-.198.199-.287.597-.287 1.172m11.097-2.896h.067c.486-.795 1.303-1.193 2.475-1.193h.884c.221 0 .398.044.486.133.088.088.155.243.155.486v1.613c0 .243-.045.398-.133.486q-.132.133-.464.133h-.663c-.818 0-1.37.155-1.68.464-.265.265-.375.774-.375 1.525v5.348c0 .221-.067.398-.177.486-.111.111-.31.155-.575.155h-2.033c-.287 0-.486-.044-.597-.155-.11-.088-.154-.265-.154-.486v-9.569c0-.221.044-.376.154-.464.111-.089.31-.155.597-.155h1.061c.243 0 .42.044.53.111a.9.9 0 0 1 .265.397zm8.492 3.36v1.723c0 .862.132 1.415.398 1.68.199.221.508.309.928.309h.088c.398 0 .707-.088.928-.309.266-.265.398-.818.398-1.68v-1.723c0-.84-.132-1.415-.398-1.68-.221-.199-.53-.309-.928-.309h-.088c-.42 0-.729.11-.928.309-.266.265-.398.84-.398 1.68m6.298.132v1.437c0 1.105-.11 1.945-.331 2.563a3.17 3.17 0 0 1-1.061 1.481c-.729.575-1.856.862-3.403.862h-.266c-1.547 0-2.696-.287-3.403-.862a3.17 3.17 0 0 1-1.061-1.481c-.221-.618-.331-1.458-.331-2.563v-1.415c0-1.083.11-1.922.331-2.541a3.34 3.34 0 0 1 1.061-1.503c.707-.575 1.856-.862 3.403-.862h.266c1.547 0 2.674.287 3.403.862.486.398.84.884 1.061 1.481.221.619.331 1.458.331 2.541m7.55-4.155h1.901c.309 0 .53.045.641.133s.199.265.243.53c0 .089.398 2.056 1.171 5.879h.066c.398-2.32.752-4.464 1.039-6.453.022-.243.089-.398.177-.486q.132-.133.464-.133h2.254c.243 0 .398.066.486.155.067.11.089.287.045.508-.354 1.724-.796 3.624-1.282 5.702s-.84 3.381-1.061 3.934c-.088.221-.199.375-.309.442-.111.066-.288.088-.509.088H252.8c-.464 0-.751-.155-.839-.508-.42-1.503-.774-3.404-1.083-5.702h-.089a61 61 0 0 1-1.105 5.702c-.088.353-.353.508-.795.508h-2.387c-.442 0-.729-.155-.84-.486-.221-.597-.597-1.967-1.127-4.089-.53-2.121-.928-3.978-1.238-5.591-.066-.243-.044-.42.045-.508.088-.089.265-.155.53-.155h2.166c.221 0 .398.044.508.133.088.088.155.265.199.486.309 2.055.663 4.199 1.083 6.453h.088c.531-2.74.906-4.707 1.083-5.879.044-.287.111-.464.221-.552.111-.066.332-.111.685-.111m13.376.111v9.547c0 .221-.067.398-.177.486-.111.111-.31.155-.575.155h-2.033c-.287 0-.486-.044-.597-.155-.11-.088-.154-.265-.154-.486v-9.547c0-.221.044-.376.154-.486.111-.089.31-.155.597-.155h2.033c.265 0 .464.066.575.155.11.11.177.265.177.486m-1.636-1.481h-.265c-1.193 0-1.79-.596-1.79-1.834v-.111c0-1.215.597-1.834 1.79-1.834h.265c1.194 0 1.79.619 1.79 1.834v.111c0 1.238-.596 1.834-1.79 1.834m7.528 3.647h-3.514c-.221 0-.376-.022-.464-.111-.088-.088-.11-.265-.11-.53v-1.525c0-.265.022-.42.11-.508q.132-.133.464-.133h7.47c.221 0 .376.044.486.133.089.088.155.265.155.508v.42c0 .574-.177 1.105-.486 1.569l-3.802 5.392h3.78c.221 0 .353.045.442.133.088.088.132.243.132.508v1.525q0 .397-.132.531c-.089.088-.221.11-.442.11h-7.603c-.464 0-.685-.199-.685-.641v-.508c0-.575.155-1.083.486-1.569zm5.755 11.956h-1.282c-.221 0-.398-.044-.486-.155-.088-.088-.133-.287-.133-.552v-1.547c0-.221.045-.398.133-.487s.265-.154.486-.154h.553c.398 0 .707-.089.906-.31.177-.176.265-.641.265-1.37v-9.547c0-.221.044-.376.155-.486.11-.089.309-.155.596-.155h2.034c.265 0 .464.066.574.155.111.11.177.265.177.486v9.79c0 1.591-.287 2.696-.862 3.337q-.895.995-3.116.995m2.343-15.603h-.266c-1.193 0-1.79-.596-1.79-1.834v-.111c0-1.215.597-1.834 1.79-1.834h.266c1.193 0 1.79.619 1.79 1.834v.111c0 1.238-.597 1.834-1.79 1.834m7.505 1.481v9.547c0 .221-.066.398-.176.486-.111.111-.31.155-.575.155h-2.033c-.288 0-.486-.044-.597-.155-.11-.088-.155-.265-.155-.486v-9.547c0-.221.045-.376.155-.486.111-.089.309-.155.597-.155h2.033c.265 0 .464.066.575.155.11.11.176.265.176.486m-1.635-1.481h-.265c-1.194 0-1.79-.596-1.79-1.834v-.111c0-1.215.596-1.834 1.79-1.834h.265c1.193 0 1.79.619 1.79 1.834v.111c0 1.238-.597 1.834-1.79 1.834"/><path d="M245.34 299.783v3.619c0 3.91-.832 6.906-2.455 8.944-1.664 2.08-4.409 3.078-8.237 3.078-3.827 0-6.572-.998-8.236-3.078-1.664-2.038-2.455-5.034-2.455-8.944v-3.619c0-3.911.791-6.864 2.455-8.944 1.664-2.039 4.409-3.079 8.236-3.079s6.573 1.04 8.237 3.079c1.623 2.08 2.455 5.033 2.455 8.944m-7.114 2.912v-2.205c0-2.704-.25-4.576-.666-5.574s-1.372-1.54-2.828-1.54h-.167c-1.497.042-2.454.541-2.87 1.54-.416.998-.624 2.87-.624 5.574v2.205c0 2.745.208 4.576.624 5.574s1.373 1.539 2.87 1.539h.167c1.456 0 2.412-.499 2.828-1.497s.666-2.871.666-5.616m24.006-7.488v.416c0 2.745-.707 4.701-2.038 5.949-1.248.998-2.87 1.497-4.784 1.497-2.163 0-3.786-.541-4.909-1.622-1.248-1.165-1.872-2.995-1.872-5.408v-1.248c0-2.413.624-4.202 1.872-5.408 1.123-1.082 2.746-1.623 4.909-1.623 1.914 0 3.536.5 4.784 1.498 1.331 1.248 2.038 3.245 2.038 5.949m-7.072 18.72 15.351-25.293c.208-.333.457-.582.707-.707.25-.083.624-.167 1.165-.167h3.037c1.289 0 1.664.5 1.081 1.498l-15.35 25.293c-.25.374-.458.624-.707.707-.25.125-.666.166-1.165.166h-3.037c-1.331 0-1.664-.499-1.082-1.497m-.915-19.635v2.246c0 .874.083 1.456.291 1.747.167.291.458.416.832.416h.084a.97.97 0 0 0 .832-.416c.166-.291.291-.873.291-1.747v-2.246c0-.832-.125-1.415-.291-1.706-.208-.291-.5-.458-.832-.458h-.084c-.374 0-.665.167-.832.458-.208.291-.291.874-.291 1.706m29.203 13.27v.416c0 2.746-.707 4.701-2.038 5.949-1.248.998-2.87 1.497-4.784 1.497-2.163 0-3.786-.54-4.909-1.622-1.248-1.165-1.872-2.954-1.872-5.408v-1.248c0-2.413.624-4.243 1.872-5.408 1.123-1.082 2.746-1.622 4.909-1.622 1.914 0 3.536.499 4.784 1.497 1.331 1.248 2.038 3.245 2.038 5.949m-7.987-.915v2.246c0 .874.083 1.456.291 1.747.167.292.458.416.832.416h.084a.97.97 0 0 0 .832-.416c.166-.291.291-.873.291-1.747v-2.246c0-.832-.125-1.415-.291-1.706-.208-.291-.5-.457-.832-.457h-.084c-.374 0-.665.166-.832.457-.208.291-.291.874-.291 1.706"/><path d="M22.528 150.796h-.18c-.627 3.08-1.405 6.369-2.302 9.867q-.268.987-1.704.987h-2.69c-.54 0-.928-.06-1.167-.209-.24-.12-.389-.359-.478-.718a205 205 0 0 1-3.738-17.641c-.06-.269 0-.478.12-.598q.18-.18.807-.179h2.96c.359 0 .658.059.837.149.18.12.27.329.33.628 1.016 6.847 1.703 11.242 2.003 13.186h.12c.238-1.136.627-3.11 1.225-5.98.598-2.841 1.017-4.844 1.286-6.04.09-.508.508-.777 1.255-.777h2.452c.718 0 1.136.269 1.256.777.24 1.196.658 3.199 1.256 6.04.598 2.87 1.017 4.844 1.256 5.98h.12c.149-1.017.448-2.96.896-5.89.419-2.901.808-5.323 1.107-7.296.03-.299.15-.508.329-.628.179-.09.448-.149.837-.149h2.96c.389 0 .658.059.777.179.12.12.18.329.15.598-1.226 6.757-2.482 12.618-3.738 17.641-.12.359-.269.598-.508.718-.24.149-.598.209-1.136.209h-2.691q-1.435 0-1.705-.987c-.926-3.498-1.704-6.787-2.302-9.867m20.26 7.266h.33c1.016 0 2.093-.12 3.17-.389.298-.06.478-.089.567-.089.3 0 .479.179.539.508l.239 1.495c.06.418.12.688.12.807 0 .359-.27.628-.778.807-1.376.479-2.9.718-4.515.718h-.568q-3.678 0-5.203-1.525a4.3 4.3 0 0 1-1.196-2.033c-.209-.777-.299-1.824-.299-3.11v-1.674c0-2.601.598-4.425 1.794-5.502 1.017-.897 2.572-1.345 4.695-1.345h.418c2.093 0 3.618.508 4.515 1.495.957 1.076 1.435 2.84 1.435 5.352v1.555c0 .568-.299.837-.867.837h-7.176v.239c0 .718.18 1.196.598 1.465.389.269 1.106.389 2.183.389m-2.78-5.203h3.29c.238 0 .358-.119.358-.388v-.479c0-.598-.12-1.046-.299-1.375-.24-.359-.718-.538-1.375-.538h-.27c-.598 0-1.016.149-1.255.418q-.45.538-.449 1.615zm15.46-2.063h-4.755c-.299 0-.508-.03-.628-.149-.12-.12-.15-.359-.15-.718v-2.063c0-.359.03-.568.15-.688q.18-.179.628-.179H60.82c.3 0 .509.06.658.179.12.12.21.359.21.688v.568a3.8 3.8 0 0 1-.658 2.123l-5.143 7.296h5.113c.299 0 .478.059.598.179s.18.329.18.688v2.063q0 .539-.18.717c-.12.12-.3.15-.598.15H50.713c-.628 0-.927-.269-.927-.867v-.688c0-.777.21-1.465.658-2.123zm-2.303-7.744 4.694-4.006c.18-.18.389-.27.568-.27.21 0 .419.15.598.389l1.436 1.854c.12.179.179.329.179.508 0 .239-.18.479-.479.718l-4.724 3.229c-.239.15-.418.209-.598.209-.239 0-.478-.119-.717-.418l-.897-1.047c-.24-.269-.33-.508-.33-.687s.09-.359.27-.479m24.763 4.665H80.5c.418 0 .717.059.867.179s.269.359.328.718c0 .119.539 2.78 1.585 7.953h.09a341 341 0 0 0 1.405-8.731c.03-.329.12-.538.24-.658q.179-.179.627-.179h3.05c.329 0 .538.09.658.209.09.15.12.389.06.688-.479 2.332-1.077 4.904-1.734 7.714-.658 2.811-1.137 4.575-1.436 5.322-.12.299-.269.509-.418.598-.15.09-.389.12-.688.12h-3.289c-.628 0-1.017-.209-1.136-.688-.568-2.033-1.047-4.604-1.465-7.714h-.12a82 82 0 0 1-1.495 7.714c-.12.479-.478.688-1.076.688h-3.23c-.597 0-.986-.209-1.136-.658-.299-.807-.807-2.661-1.525-5.531a139 139 0 0 1-1.674-7.565c-.09-.329-.06-.568.06-.688.12-.119.359-.209.717-.209h2.93c.3 0 .539.06.688.179.12.12.21.359.27.658.418 2.781.896 5.681 1.465 8.731h.12c.717-3.708 1.225-6.369 1.464-7.953.06-.389.15-.628.3-.748.149-.09.448-.149.926-.149m28.376 12.707h-.06c-.658 1.017-1.974 1.495-3.917 1.495h-.449c-1.524 0-2.72-.389-3.558-1.166-.867-.777-1.285-1.944-1.285-3.439v-.328c0-1.615.448-2.781 1.375-3.439s2.422-.987 4.515-.987h.209c.778 0 1.495.06 2.093.12v-.628c0-.628-.179-1.076-.508-1.316-.359-.209-.957-.328-1.794-.328-1.017 0-2.153.179-3.468.508-.36.09-.628.09-.748 0-.15-.09-.24-.269-.269-.568l-.24-1.585c-.059-.269-.059-.478-.059-.598 0-.359.24-.628.718-.777 1.524-.419 3.229-.658 5.112-.658 2.303 0 3.947.508 4.904 1.465.748.777 1.136 2.033 1.136 3.737v8.881c0 .299-.089.538-.239.658-.149.119-.419.179-.777.179h-1.406c-.358 0-.598-.03-.747-.12-.15-.089-.269-.269-.359-.568zm-1.077-3.827v-.837q-.493-.09-1.435-.09h-.329q-1.076 0-1.525.269c-.299.179-.418.538-.418 1.076v.12c0 .538.119.897.418 1.076.269.21.688.299 1.256.299h.209c.598 0 1.047-.149 1.406-.448.269-.239.418-.748.418-1.465m11.297-8.312c1.046-1.017 2.541-1.555 4.455-1.555h.269c1.854 0 3.169.538 3.977 1.555.717.956 1.076 2.571 1.076 4.903v2.243c0 1.256-.119 2.302-.299 3.079-.209.778-.568 1.436-1.076 1.944-1.017.987-2.392 1.465-4.186 1.465h-.329q-1.704 0-2.781-.628v4.605c0 .448-.09.747-.239.867-.179.119-.508.179-1.017.179h-2.272c-.508 0-.837-.06-1.017-.209-.179-.12-.239-.419-.239-.837v-17.94c0-.359.06-.598.239-.748.15-.119.419-.209.808-.209h1.255c.359 0 .628.06.778.12.119.089.239.269.329.508l.209.658zm1.106 4.245v3.828c0 .687.12 1.166.419 1.435.269.269.717.389 1.345.389h.269c.688 0 1.166-.18 1.465-.598q.36-.538.359-2.602v-1.285c0-1.436-.119-2.333-.359-2.662-.299-.358-.777-.538-1.495-.538h-.209c-.658 0-1.106.15-1.405.449-.269.269-.389.807-.389 1.584m16.599 5.233h.956c.299 0 .539.09.658.209.12.15.21.419.21.808v1.853c0 .419-.09.688-.21.808-.119.149-.359.209-.658.209h-2.272c-1.495 0-2.541-.269-3.139-.867-.598-.568-.897-1.585-.897-3.02v-15.488c0-.299.059-.509.209-.658.149-.12.418-.209.807-.209h2.751c.359 0 .628.089.777.209.15.149.24.359.24.658v14.92c0 .239.029.389.119.448.06.09.209.12.449.12m8.631-9.897v12.917c0 .299-.09.538-.239.658-.15.149-.419.209-.778.209h-2.751c-.388 0-.657-.06-.807-.209-.149-.12-.209-.359-.209-.658v-12.917c0-.299.06-.508.209-.658.15-.119.419-.209.807-.209h2.751c.359 0 .628.09.778.209.149.15.239.359.239.658m-2.213-2.003h-.359c-1.614 0-2.422-.808-2.422-2.482v-.149c0-1.645.808-2.482 2.422-2.482h.359c1.615 0 2.422.837 2.422 2.482v.149c0 1.674-.807 2.482-2.422 2.482m10.095 9.986v4.934c0 .299-.09.538-.239.658-.15.149-.419.209-.777.209h-2.751c-.389 0-.658-.06-.808-.209-.149-.12-.209-.359-.209-.658v-18.508c0-.299.06-.509.209-.658.15-.12.419-.209.808-.209h2.751c.358 0 .627.089.777.209.149.149.239.359.239.658v9.747h.209l2.841-4.335c.269-.449.688-.688 1.256-.688h3.468c.329 0 .508.12.508.359 0 .119-.089.329-.239.568l-3.438 5.143c-.269.418-.389.717-.389.897 0 .209.12.508.389.897l3.677 5.8c.12.239.18.389.18.509 0 .328-.209.478-.628.478h-3.319c-.419 0-.747-.03-.927-.15q-.269-.134-.538-.627l-2.841-5.024zm18.632 4.575h-.06c-.658 1.017-1.973 1.495-3.917 1.495h-.448c-1.525 0-2.721-.389-3.558-1.166-.867-.777-1.286-1.944-1.286-3.439v-.328c0-1.615.449-2.781 1.375-3.439.927-.658 2.422-.987 4.515-.987h.21c.777 0 1.495.06 2.093.12v-.628c0-.628-.18-1.076-.509-1.316-.358-.209-.956-.328-1.794-.328-1.016 0-2.152.179-3.468.508-.359.09-.628.09-.748 0-.149-.09-.239-.269-.269-.568l-.239-1.585c-.06-.269-.06-.478-.06-.598 0-.359.24-.628.718-.777 1.525-.419 3.229-.658 5.113-.658 2.302 0 3.947.508 4.903 1.465.748.777 1.137 2.033 1.137 3.737v8.881c0 .299-.09.538-.24.658-.149.119-.418.179-.777.179h-1.405c-.359 0-.598-.03-.748-.12-.149-.089-.269-.269-.359-.568zm-1.076-3.827v-.837q-.494-.09-1.436-.09h-.328q-1.077 0-1.525.269c-.299.179-.419.538-.419 1.076v.12c0 .538.12.897.419 1.076.269.21.687.299 1.255.299h.21c.598 0 1.046-.149 1.405-.448.269-.239.419-.748.419-1.465m14.496 1.465h.239c.807 0 1.674-.12 2.601-.389.299-.06.478-.089.568-.089.299 0 .479.179.538.508l.269 1.525c.06.418.12.687.12.807 0 .359-.269.628-.777.807-1.316.479-2.751.688-4.306.688h-.359c-2.153 0-3.737-.478-4.724-1.495q-1.525-1.525-1.525-5.113v-1.734c0-1.405.12-2.512.359-3.289a4.7 4.7 0 0 1 1.166-1.973c1.047-1.047 2.691-1.585 4.934-1.585h.299c1.794 0 3.348.329 4.604.987.359.209.568.448.568.747 0 .179-.089.478-.239.897l-.568 1.435q-.225.538-.628.538c-.12 0-.299-.029-.538-.149-.957-.389-1.854-.598-2.661-.598h-.12c-.777 0-1.345.209-1.704.568-.449.449-.658 1.375-.658 2.751v1.016c0 1.226.179 2.064.598 2.512.389.419 1.047.628 1.944.628m6.162 8.91h-1.734c-.299 0-.538-.06-.658-.209-.12-.12-.179-.389-.179-.748v-2.093c0-.299.059-.538.179-.657.12-.12.359-.21.658-.21h.747c.538 0 .957-.119 1.226-.418.239-.24.359-.867.359-1.854v-12.917c0-.299.06-.508.209-.658.15-.119.419-.209.808-.209h2.75c.359 0 .628.09.778.209.149.15.239.359.239.658v13.246c0 2.153-.389 3.648-1.166 4.515q-1.211 1.345-4.216 1.345m3.169-21.109h-.358c-1.615 0-2.422-.808-2.422-2.482v-.149c0-1.645.807-2.482 2.422-2.482h.358c1.615 0 2.422.837 2.422 2.482v.149c0 1.674-.807 2.482-2.422 2.482m10.155 2.003v12.917c0 .299-.09.538-.239.658-.15.149-.419.209-.777.209h-2.751c-.389 0-.658-.06-.808-.209-.149-.12-.209-.359-.209-.658v-12.917c0-.299.06-.508.209-.658.15-.119.419-.209.808-.209h2.751c.358 0 .627.09.777.209.149.15.239.359.239.658m-2.212-2.003h-.359c-1.615 0-2.422-.808-2.422-2.482v-.149c0-1.645.807-2.482 2.422-2.482h.359c1.614 0 2.421.837 2.421 2.482v.149c0 1.674-.807 2.482-2.421 2.482M16.308 185.53v3.828c0 .687.12 1.166.42 1.435.239.269.687.389 1.345.389h.27c.687 0 1.165-.18 1.464-.598q.36-.538.359-2.602v-1.285c0-1.495-.15-2.422-.389-2.721-.269-.299-.777-.479-1.495-.479h-.12c-.687 0-1.165.15-1.464.449-.27.269-.39.807-.39 1.584m0-4.993h.06q1.302-.807 3.41-.807h.268c1.794 0 3.11.538 3.917 1.614.658.927 1.017 2.572 1.017 4.934v2.153c0 2.392-.508 4.066-1.525 4.993-1.076 1.017-2.78 1.495-5.113 1.495h-.598c-2.452 0-4.126-.478-5.023-1.465-.807-.867-1.196-2.272-1.196-4.246v-13.933c0-.299.06-.509.21-.658.119-.12.388-.209.777-.209h2.78c.36 0 .628.089.778.209.15.149.239.359.239.658zm18.364 10.525H35c1.017 0 2.093-.12 3.17-.389.299-.06.478-.089.568-.089.299 0 .478.179.538.508l.24 1.495c.06.418.119.688.119.807 0 .359-.27.628-.777.807-1.376.479-2.9.718-4.515.718h-.569q-3.677 0-5.202-1.525a4.3 4.3 0 0 1-1.196-2.033c-.21-.777-.3-1.824-.3-3.11v-1.674c0-2.601.599-4.425 1.795-5.502 1.017-.897 2.571-1.345 4.694-1.345h.419c2.093 0 3.618.508 4.515 1.495.956 1.076 1.435 2.84 1.435 5.352v1.555c0 .568-.3.837-.867.837H31.89v.239c0 .718.18 1.196.598 1.465.389.269 1.106.389 2.183.389m-2.781-5.203h3.289c.239 0 .359-.119.359-.388v-.479c0-.598-.12-1.046-.3-1.375-.239-.359-.717-.538-1.375-.538h-.269c-.598 0-1.017.149-1.256.418q-.448.538-.448 1.615zm15.459-2.063h-4.754c-.3 0-.509-.03-.628-.149-.12-.12-.15-.359-.15-.718v-2.063c0-.359.03-.568.15-.688q.18-.179.628-.179h10.106c.299 0 .508.06.658.179.12.12.209.359.209.688v.568a3.8 3.8 0 0 1-.658 2.123l-5.143 7.296h5.113c.3 0 .479.059.598.179.12.12.18.329.18.688v2.063q0 .538-.18.717c-.12.12-.299.15-.598.15H42.596c-.628 0-.927-.269-.927-.867v-.688c0-.777.21-1.465.658-2.123zm19.68 0h-4.754c-.3 0-.508-.03-.628-.149-.12-.12-.15-.359-.15-.718v-2.063c0-.359.03-.568.15-.688q.18-.179.628-.179h10.106c.3 0 .508.06.658.179.12.12.21.359.21.688v.568a3.8 3.8 0 0 1-.659 2.123l-5.142 7.296h5.112c.3 0 .479.059.598.179.12.12.18.329.18.688v2.063q0 .538-.18.717c-.12.12-.299.15-.598.15H62.277c-.628 0-.927-.269-.927-.867v-.688c0-.777.21-1.465.658-2.123zm16.966 9.628h-.06c-.658 1.017-1.974 1.495-3.917 1.495h-.449c-1.525 0-2.72-.389-3.558-1.166-.867-.777-1.285-1.944-1.285-3.439v-.328c0-1.615.448-2.781 1.375-3.439s2.422-.987 4.515-.987h.21c.776 0 1.494.06 2.092.12v-.628c0-.628-.18-1.076-.508-1.316-.359-.209-.957-.328-1.794-.328-1.017 0-2.153.179-3.469.508-.358.09-.627.09-.747 0-.15-.09-.24-.269-.27-.568l-.238-1.585c-.06-.269-.06-.478-.06-.598 0-.359.239-.628.717-.777 1.525-.419 3.23-.658 5.113-.658 2.303 0 3.947.508 4.904 1.465.747.777 1.136 2.033 1.136 3.737v8.881c0 .299-.09.538-.24.658-.149.119-.418.179-.776.179H85.28c-.359 0-.598-.03-.747-.12-.15-.089-.27-.269-.36-.568zm-1.077-3.827v-.837q-.493-.09-1.435-.09h-.329q-1.077 0-1.525.269c-.299.179-.418.538-.418 1.076v.12c0 .538.12.897.418 1.076.27.21.688.299 1.256.299h.21c.597 0 1.046-.149 1.404-.448.27-.239.42-.748.42-1.465m12.403-.748v4.934c0 .299-.09.538-.24.658-.149.149-.418.209-.777.209h-2.75c-.39 0-.658-.06-.808-.209-.15-.12-.209-.359-.209-.658v-18.508c0-.299.06-.509.21-.658.149-.12.418-.209.807-.209h2.75c.36 0 .628.089.778.209.15.149.239.359.239.658v9.747h.21l2.84-4.335c.269-.449.688-.688 1.256-.688h3.468c.329 0 .508.12.508.359 0 .119-.089.329-.239.568l-3.438 5.143c-.27.418-.39.717-.39.897 0 .209.12.508.39.897l3.677 5.8c.12.239.18.389.18.509 0 .328-.21.478-.628.478h-3.32c-.418 0-.747-.03-.926-.15q-.27-.134-.538-.627l-2.84-5.024zm16.21 1.914h.957c.299 0 .538.09.658.209.119.15.209.419.209.808v1.853c0 .419-.09.688-.209.808-.12.149-.359.209-.658.209h-2.273c-1.495 0-2.541-.269-3.139-.867-.598-.568-.897-1.585-.897-3.02v-3.229l-.987.628c-.389.239-.658.358-.777.358-.239 0-.329-.179-.329-.538v-2.78c0-.299.03-.509.149-.658.09-.12.269-.299.568-.509l1.376-.867v-7.893c0-.299.06-.509.209-.658.15-.12.419-.209.807-.209h2.751c.359 0 .628.089.778.209.149.149.239.359.239.658v4.844l1.345-.868c.359-.239.628-.358.778-.358.209 0 .329.179.329.538v2.781c0 .299-.06.538-.15.657-.119.15-.299.329-.568.509l-1.734 1.106v5.711c0 .239.03.389.119.448.06.09.21.12.449.12m12.437 2.661h-.06c-.657 1.017-1.973 1.495-3.916 1.495h-.449c-1.525 0-2.721-.389-3.558-1.166-.867-.777-1.286-1.944-1.286-3.439v-.328c0-1.615.449-2.781 1.376-3.439s2.422-.987 4.515-.987h.209c.777 0 1.495.06 2.093.12v-.628c0-.628-.18-1.076-.508-1.316-.359-.209-.957-.328-1.794-.328-1.017 0-2.153.179-3.469.508-.359.09-.628.09-.747 0-.15-.09-.24-.269-.269-.568l-.24-1.585c-.059-.269-.059-.478-.059-.598 0-.359.239-.628.717-.777 1.525-.419 3.229-.658 5.113-.658 2.302 0 3.947.508 4.904 1.465.747.777 1.136 2.033 1.136 3.737v8.881c0 .299-.09.538-.239.658-.15.119-.419.179-.778.179h-1.405c-.359 0-.598-.03-.748-.12-.149-.089-.269-.269-.358-.568zm-1.076-3.827v-.837q-.493-.09-1.435-.09h-.329q-1.077 0-1.525.269c-.299.179-.419.538-.419 1.076v.12c0 .538.12.897.419 1.076.269.21.688.299 1.256.299h.209c.598 0 1.046-.149 1.405-.448.269-.239.419-.748.419-1.465m15.811-.239v-3.798c0-.747-.119-1.285-.358-1.584-.27-.299-.748-.479-1.406-.479h-.299c-.658 0-1.106.18-1.375.509-.299.328-.419 1.255-.419 2.81v1.316c0 1.435.15 2.332.449 2.631.239.299.687.419 1.375.419H137c.568 0 .987-.12 1.286-.389.269-.269.418-.748.418-1.435m-.059-9.09h.059v-4.993c0-.299.06-.509.21-.658.149-.12.418-.209.807-.209h2.781c.358 0 .628.089.777.209.12.149.209.359.209.658v13.604c0 2.093-.388 3.528-1.166 4.366a4.65 4.65 0 0 1-2.063 1.285c-.837.269-1.943.389-3.349.389h-.508c-2.213 0-3.797-.448-4.814-1.345-1.046-.897-1.555-2.572-1.555-5.054v-2.392c0-2.392.479-4.066 1.495-5.023.957-.897 2.273-1.375 3.977-1.375h.359q1.704 0 2.781.538m16.334 13.156h-.06c-.658 1.017-1.973 1.495-3.917 1.495h-.448c-1.525 0-2.721-.389-3.558-1.166-.868-.777-1.286-1.944-1.286-3.439v-.328c0-1.615.448-2.781 1.375-3.439s2.422-.987 4.515-.987h.209c.778 0 1.495.06 2.093.12v-.628c0-.628-.179-1.076-.508-1.316-.359-.209-.957-.328-1.794-.328-1.016 0-2.153.179-3.468.508-.359.09-.628.09-.748 0-.149-.09-.239-.269-.269-.568l-.239-1.585c-.06-.269-.06-.478-.06-.598 0-.359.239-.628.718-.777 1.525-.419 3.229-.658 5.113-.658 2.302 0 3.946.508 4.903 1.465.748.777 1.136 2.033 1.136 3.737v8.881c0 .299-.089.538-.239.658-.149.119-.418.179-.777.179h-1.405c-.359 0-.598-.03-.748-.12-.149-.089-.269-.269-.359-.568zm-1.077-3.827v-.837q-.493-.09-1.435-.09h-.329q-1.076 0-1.525.269c-.299.179-.418.538-.418 1.076v.12c0 .538.119.897.418 1.076.27.21.688.299 1.256.299h.21c.598 0 1.046-.149 1.405-.448.269-.239.418-.748.418-1.465m15.513-9.867h.239c1.734 0 3.02.418 3.797 1.226.718.777 1.107 2.093 1.107 3.947v8.88c0 .299-.09.538-.239.658-.15.149-.419.209-.778.209h-2.751c-.388 0-.658-.06-.807-.209-.149-.12-.209-.359-.209-.658v-8.462c0-.658-.12-1.136-.329-1.375-.239-.239-.688-.389-1.316-.389h-.179c-.658 0-1.077.15-1.316.389s-.329.717-.329 1.375v8.462c0 .299-.089.538-.239.658-.149.149-.419.209-.777.209h-2.751c-.389 0-.658-.06-.807-.209-.15-.12-.21-.359-.21-.658v-12.947c0-.299.06-.508.21-.628.149-.119.418-.209.807-.209h1.405c.359 0 .598.06.748.149q.224.135.358.539l.18.568h.09c.956-1.017 2.302-1.525 4.096-1.525m12.834 1.136v12.917c0 .299-.089.538-.239.658-.149.149-.418.209-.777.209h-2.751c-.389 0-.658-.06-.807-.209-.15-.12-.21-.359-.21-.658v-12.917c0-.299.06-.508.21-.658.149-.119.418-.209.807-.209h2.751c.359 0 .628.09.777.209.15.15.239.359.239.658m-2.212-2.003h-.359c-1.615 0-2.422-.808-2.422-2.482v-.149c0-1.645.807-2.482 2.422-2.482h.359c1.614 0 2.422.837 2.422 2.482v.149c0 1.674-.808 2.482-2.422 2.482m13.952 14.561h-.06c-.658 1.017-1.973 1.495-3.917 1.495h-.448c-1.525 0-2.721-.389-3.558-1.166-.867-.777-1.286-1.944-1.286-3.439v-.328c0-1.615.448-2.781 1.375-3.439s2.422-.987 4.515-.987h.21c.777 0 1.495.06 2.093.12v-.628c0-.628-.18-1.076-.509-1.316-.359-.209-.957-.328-1.794-.328-1.016 0-2.153.179-3.468.508-.359.09-.628.09-.748 0-.149-.09-.239-.269-.269-.568l-.239-1.585c-.06-.269-.06-.478-.06-.598 0-.359.239-.628.718-.777 1.525-.419 3.229-.658 5.113-.658 2.302 0 3.947.508 4.903 1.465.748.777 1.137 2.033 1.137 3.737v8.881c0 .299-.09.538-.24.658-.149.119-.418.179-.777.179h-1.405c-.359 0-.598-.03-.748-.12-.149-.089-.269-.269-.359-.568zm-1.076-3.827v-.837q-.494-.09-1.436-.09h-.329q-1.076 0-1.524.269c-.299.179-.419.538-.419 1.076v.12c0 .538.12.897.419 1.076.269.21.687.299 1.255.299h.21c.598 0 1.046-.149 1.405-.448.269-.239.419-.748.419-1.465M16.309 221.849v4.934c0 .299-.09.538-.24.658-.149.149-.418.209-.777.209h-2.75c-.39 0-.658-.06-.808-.209-.15-.12-.21-.359-.21-.658v-18.508c0-.299.06-.509.21-.658.15-.12.419-.209.807-.209h2.751c.36 0 .628.089.778.209.15.149.239.359.239.658v9.747h.21l2.84-4.335c.269-.449.687-.688 1.255-.688h3.469c.329 0 .508.12.508.359 0 .119-.09.329-.239.568l-3.439 5.143c-.269.418-.388.717-.388.897 0 .209.12.508.389.897l3.677 5.8c.12.239.18.389.18.509 0 .328-.21.478-.628.478h-3.32c-.418 0-.747-.03-.926-.15q-.27-.134-.538-.627l-2.84-5.024zm14.093-2.691v2.333c0 1.166.179 1.913.538 2.272.269.299.688.419 1.256.419h.12c.537 0 .956-.12 1.255-.419.359-.359.538-1.106.538-2.272v-2.333c0-1.136-.18-1.913-.538-2.272-.299-.269-.718-.419-1.256-.419h-.12c-.567 0-.986.15-1.255.419-.359.359-.538 1.136-.538 2.272m8.521.18v1.943c0 1.495-.15 2.631-.448 3.469a4.28 4.28 0 0 1-1.436 2.003c-.986.777-2.511 1.166-4.604 1.166h-.359c-2.093 0-3.648-.389-4.605-1.166a4.28 4.28 0 0 1-1.435-2.003c-.299-.838-.448-1.974-.448-3.469v-1.913c0-1.465.15-2.602.448-3.439a4.5 4.5 0 0 1 1.435-2.033c.957-.777 2.512-1.166 4.605-1.166h.359c2.093 0 3.618.389 4.604 1.166a4.6 4.6 0 0 1 1.436 2.003c.299.837.448 1.974.448 3.439m10.454-6.608h.24c1.733 0 3.019.418 3.796 1.226.718.777 1.107 2.093 1.107 3.947v8.88c0 .299-.09.538-.24.658-.149.149-.418.209-.777.209h-2.75c-.39 0-.659-.06-.808-.209-.15-.12-.21-.359-.21-.658v-8.462c0-.658-.119-1.136-.328-1.375-.24-.239-.688-.389-1.316-.389h-.18c-.657 0-1.076.15-1.315.389s-.329.717-.329 1.375v8.462c0 .299-.09.538-.239.658-.15.149-.419.209-.777.209H42.5c-.389 0-.658-.06-.807-.209-.15-.12-.21-.359-.21-.658v-12.947c0-.299.06-.508.21-.628.15-.119.418-.209.807-.209h1.405c.359 0 .598.06.748.149q.225.135.358.539l.18.568h.09c.956-1.017 2.302-1.525 4.096-1.525m17.35 12.109v1.705c0 .448-.09.747-.21.897-.12.149-.389.209-.747.209h-2.392c-2.153 0-3.588-.359-4.246-1.106-.598-.628-.867-1.824-.867-3.618v-6.19H56.65c-.299 0-.478-.029-.598-.149s-.15-.299-.15-.598v-1.525c0-.359.03-.598.15-.718.09-.119.3-.209.628-.299l1.585-.388v-2.93c0-.299.06-.509.209-.658.15-.12.419-.21.807-.21h2.751c.359 0 .628.09.778.21.149.149.239.359.239.658v2.87h2.481c.3 0 .479.06.598.179.12.12.18.329.18.688v2.003q0 .538-.18.718c-.12.12-.299.149-.598.149H63.05v5.652c0 .538.06.867.239 1.046.18.209.568.299 1.166.299h1.316c.358 0 .627.09.747.239.12.15.21.449.21.867m10.903 1.585h-.06c-.657 1.017-1.973 1.495-3.917 1.495h-.448c-1.525 0-2.721-.389-3.558-1.166-.867-.777-1.286-1.944-1.286-3.439v-.328c0-1.615.449-2.781 1.376-3.439s2.421-.987 4.514-.987h.21c.777 0 1.495.06 2.093.12v-.628c0-.628-.18-1.076-.509-1.316-.358-.209-.956-.328-1.794-.328-1.016 0-2.152.179-3.468.508-.359.09-.628.09-.748 0-.149-.09-.239-.269-.269-.568l-.239-1.585c-.06-.269-.06-.478-.06-.598 0-.359.24-.628.718-.777 1.525-.419 3.23-.658 5.113-.658 2.302 0 3.947.508 4.903 1.465.748.777 1.137 2.033 1.137 3.737v8.881c0 .299-.09.538-.24.658-.149.119-.418.179-.777.179h-1.405c-.359 0-.598-.03-.748-.12-.15-.089-.269-.269-.359-.568zm-1.076-3.827v-.837q-.495-.09-1.436-.09h-.328q-1.077 0-1.525.269c-.3.179-.419.538-.419 1.076v.12c0 .538.12.897.419 1.076.269.21.687.299 1.255.299h.21c.598 0 1.046-.149 1.405-.448.27-.239.419-.748.419-1.465"/></g></svg>