<svg xmlns="http://www.w3.org/2000/svg" fill="none" viewBox="0 0 181 93"><path fill="#fff" d="M.672 18.5 3.5 15.906q.39.453.906.953.531.484 1.188.922.656.422 1.468.719.813.281 1.844.281 1.89 0 2.797-.86.906-.858.906-2.077 0-.673-.25-1.203-.25-.532-.859-.922-.609-.406-1.594-.719-.969-.328-2.406-.61-1.47-.28-2.547-.89-1.078-.625-1.781-1.453a5.9 5.9 0 0 1-1.063-1.828 6.4 6.4 0 0 1-.343-2.078q0-1.22.437-2.313.453-1.11 1.375-1.953.938-.843 2.328-1.36Q7.296 0 9.188 0q1.703 0 2.906.39 1.219.376 2.031.891.828.516 1.266 1.016.452.484.656.719L13.39 5.5a12 12 0 0 1-.516-.453 4.8 4.8 0 0 0-.89-.656 5.8 5.8 0 0 0-1.266-.578 4.9 4.9 0 0 0-1.656-.266q-.83 0-1.438.234a3.1 3.1 0 0 0-1.016.578q-.39.345-.593.782a2 2 0 0 0-.188.812q0 .58.203 1.031.219.438.703.829.5.375 1.36.687.875.297 2.187.563 1.25.249 2.39.765a7.4 7.4 0 0 1 2.032 1.328 5.8 5.8 0 0 1 1.406 1.985q.531 1.17.532 2.797 0 1.406-.578 2.593a6.3 6.3 0 0 1-1.594 2.078Q13.453 21.5 12.03 22q-1.406.5-3.062.5-1.594 0-2.89-.39a10.8 10.8 0 0 1-2.345-.97 10 10 0 0 1-1.796-1.296Q1.188 19.14.672 18.5M20.547 4.547V.578h4.031v3.969zm.125 17.375V6.906h3.781v15.016zm6.953-7.688q0-1.656.547-3.078a7.6 7.6 0 0 1 1.562-2.469 7.4 7.4 0 0 1 2.407-1.671q1.405-.61 3.093-.61 2.047 0 3.47.75 1.42.75 2.28 1.969.876 1.22 1.25 2.75.39 1.531.391 3.14v.532H31.422q0 .828.375 1.515.375.672.953 1.157.594.468 1.344.734.765.25 1.5.25 1.093 0 1.906-.203.813-.219 1.375-.484a5.2 5.2 0 0 0 1.516-1.078l2.047 2.312-.532.531q-.422.423-1.25.907-.812.483-2.078.859-1.266.39-3.016.39-1.796 0-3.265-.609a7.5 7.5 0 0 1-2.516-1.672 7.4 7.4 0 0 1-1.61-2.578q-.546-1.515-.546-3.344m3.766-1.406h7.359q0-.578-.219-1.14a3.2 3.2 0 0 0-.656-1.047 3.3 3.3 0 0 0-1.11-.766q-.671-.312-1.53-.312-.923 0-1.641.312-.72.297-1.203.766a3.5 3.5 0 0 0-.75 1.047 2.9 2.9 0 0 0-.25 1.14m19.937 9.094V.578h3.703v7.875q.579-.64 1.688-1.25 1.11-.61 2.828-.61 1.375 0 2.453.454 1.094.437 1.813 1.266.734.811 1.109 1.968.39 1.141.39 2.516v9.125h-3.78v-9.094q0-1.437-.782-2.219-.78-.78-2.031-.78-.766 0-1.438.312-.672.296-1.156.843a4 4 0 0 0-.766 1.266q-.265.72-.265 1.547v8.125zm17.563-5.89V6.905h3.765V16q0 1.437.781 2.234.798.782 2.047.782.766 0 1.438-.297a3.3 3.3 0 0 0 1.14-.86q.484-.546.75-1.265.282-.72.282-1.547v-8.14h3.781v15.015H79.25l-.094-1.703a7 7 0 0 1-.703.672q-.422.36-.969.672-.53.296-1.234.484a6.3 6.3 0 0 1-1.61.187q-2.812 0-4.28-1.672-1.47-1.687-1.47-4.53m16.953 4.062 2.265-2.453q.705.702 1.766 1.172 1.079.453 2.453.453 1.22 0 1.953-.313.735-.328.735-1.062a1.34 1.34 0 0 0-.125-.578q-.126-.282-.547-.532-.407-.266-1.14-.515-.735-.266-1.985-.547a13 13 0 0 1-1.61-.516 6.5 6.5 0 0 1-1.546-.875 4.9 4.9 0 0 1-1.188-1.344q-.453-.796-.453-1.875 0-1.125.531-2a4.7 4.7 0 0 1 1.422-1.468 7 7 0 0 1 1.984-.907 7.8 7.8 0 0 1 2.235-.328q1.985 0 3.375.422 1.39.406 2.515 1.234l-1.953 2.657q-.61-.453-1.61-.813-.983-.375-2.327-.375t-1.875.406q-.531.406-.531.97 0 .702.874 1.109.89.406 2.75.843 1.157.25 2.063.641.906.39 1.563.969.655.577 1 1.36.36.78.359 1.874 0 1.095-.516 1.969a4.5 4.5 0 0 1-1.39 1.484q-.876.61-2.047.938-1.172.343-2.485.343-2.11 0-3.812-.593-1.687-.594-2.703-1.75m14.734-10.11V6.906h2.563v-4.86h3.765v4.86h4.032v3.078h-4.032v6.563q0 1.28.438 1.969.437.687 1.39.687.891 0 1.422-.25a8 8 0 0 0 1.016-.61l1.594 2.329q-1.125.921-2.219 1.328-1.078.405-2.422.406-1.375 0-2.344-.406a3.8 3.8 0 0 1-1.547-1.125 4.56 4.56 0 0 1-.843-1.781 10 10 0 0 1-.25-2.297V9.984zm13.453 4.25q0-1.656.547-3.078a7.6 7.6 0 0 1 1.563-2.469 7.4 7.4 0 0 1 2.406-1.671q1.406-.61 3.094-.61 2.046 0 3.468.75t2.282 1.969q.875 1.22 1.25 2.75.39 1.531.39 3.14v.532h-11.203q0 .828.375 1.515.375.672.953 1.157.594.468 1.344.734.765.25 1.5.25 1.094 0 1.906-.203.813-.219 1.375-.484a5.2 5.2 0 0 0 1.516-1.078l2.047 2.312-.532.531q-.421.423-1.25.907-.812.483-2.078.859-1.265.39-3.015.39-1.797 0-3.266-.609a7.5 7.5 0 0 1-2.515-1.672 7.4 7.4 0 0 1-1.61-2.578q-.547-1.515-.547-3.344m3.766-1.406h7.359a3.1 3.1 0 0 0-.218-1.14 3.2 3.2 0 0 0-.657-1.047 3.3 3.3 0 0 0-1.109-.766q-.672-.312-1.531-.312-.922 0-1.641.312-.719.297-1.203.766a3.5 3.5 0 0 0-.75 1.047q-.25.578-.25 1.14m14.156 9.094V6.906h3.609l.094 1.703q.282-.312.688-.671a5 5 0 0 1 .968-.657q.563-.298 1.266-.484.703-.203 1.594-.203 2.812 0 4.281 1.687 1.485 1.672 1.485 4.516v9.125h-3.782v-9.094q0-1.437-.781-2.219-.781-.78-2.031-.78-.766 0-1.438.312-.672.296-1.156.843a4 4 0 0 0-.766 1.266 4.4 4.4 0 0 0-.265 1.547v8.125zm17.938 0V17.5h4.578v4.422zM0 35.578h4.422l3.484 15.969 4.14-15.36h3.642l4.156 15.36 3.453-15.969h4.234l-5.61 21.344h-4.218l-3.969-14.11-4.03 14.11H5.546zm29.734 3.969v-3.969h4.032v3.969zm.125 17.375V41.906h3.782v15.016zm7.657 0V41.906h3.609l.094 1.89a6.4 6.4 0 0 1 .656-.687q.406-.39.953-.703a6.2 6.2 0 0 1 1.266-.562q.719-.235 1.64-.219.547 0 .97.063.436.062.89.218l-.766 3.563a3.6 3.6 0 0 0-.797-.219 5 5 0 0 0-.937-.078q-.765 0-1.469.266a3.4 3.4 0 0 0-1.219.734q-.515.484-.828 1.156a3.7 3.7 0 0 0-.297 1.5v8.094zm18 0V35.578h3.765v21.344zm6.797-7.516q0-1.625.593-3.078a7.8 7.8 0 0 1 1.64-2.547 7.8 7.8 0 0 1 2.548-1.734q1.484-.64 3.281-.64t3.281.64a7.7 7.7 0 0 1 2.531 1.734 7.7 7.7 0 0 1 1.657 2.532 8.1 8.1 0 0 1 .594 3.093 8.2 8.2 0 0 1-.594 3.094 8.1 8.1 0 0 1-1.656 2.563 7.7 7.7 0 0 1-2.532 1.734q-1.484.64-3.281.64t-3.281-.64a7.8 7.8 0 0 1-2.547-1.734 8.2 8.2 0 0 1-1.64-2.563 8.2 8.2 0 0 1-.594-3.094m3.296-10.312v-3.485h3.688v3.485zm.5 10.312q0 .828.25 1.657.267.828.797 1.546.531.705 1.328 1.141.798.422 1.891.422 1.095 0 1.89-.422a4 4 0 0 0 1.313-1.14q.531-.72.781-1.547a5.4 5.4 0 0 0 .266-1.657 5.5 5.5 0 0 0-.266-1.64 4.6 4.6 0 0 0-.78-1.547 3.85 3.85 0 0 0-1.329-1.11q-.797-.437-1.875-.437-1.095 0-1.89.437a4.05 4.05 0 0 0-1.329 1.11q-.531.687-.797 1.547a5.8 5.8 0 0 0-.25 1.64m5.422-10.312v-3.485h3.672v3.485zm9.188 16 2.265-2.453q.704.702 1.766 1.172 1.079.453 2.453.453 1.22 0 1.953-.313.735-.329.735-1.062a1.34 1.34 0 0 0-.125-.578q-.126-.282-.547-.532-.407-.266-1.14-.515-.735-.266-1.985-.547a13 13 0 0 1-1.61-.516 6.5 6.5 0 0 1-1.546-.875 4.9 4.9 0 0 1-1.188-1.344q-.453-.796-.453-1.875 0-1.124.531-2a4.7 4.7 0 0 1 1.422-1.468 7 7 0 0 1 1.984-.907 7.8 7.8 0 0 1 2.235-.328q1.985 0 3.375.422 1.39.406 2.515 1.234l-1.953 2.657q-.61-.453-1.61-.813-.983-.375-2.327-.375t-1.875.407q-.531.405-.531.968 0 .703.874 1.11.89.406 2.75.843 1.157.25 2.063.641.906.39 1.563.969.655.577 1 1.36.36.78.359 1.874 0 1.095-.516 1.969a4.5 4.5 0 0 1-1.39 1.484q-.876.61-2.047.938-1.172.343-2.485.343-2.11 0-3.812-.593-1.687-.594-2.703-1.75m15.312-5.86q0-1.656.547-3.078a7.6 7.6 0 0 1 1.563-2.468 7.4 7.4 0 0 1 2.406-1.672q1.406-.61 3.094-.61 2.046 0 3.468.75t2.282 1.969q.875 1.22 1.25 2.75.39 1.531.39 3.14v.532H99.828q0 .828.375 1.516.375.671.953 1.156.594.468 1.344.734.765.25 1.5.25 1.094 0 1.906-.203.813-.219 1.375-.484a5.2 5.2 0 0 0 1.516-1.078l2.047 2.312-.532.531q-.421.423-1.25.907-.812.483-2.078.859-1.265.39-3.015.39-1.797 0-3.266-.609a7.5 7.5 0 0 1-2.516-1.672 7.4 7.4 0 0 1-1.609-2.578q-.547-1.515-.547-3.344m3.766-1.406h7.359a3.1 3.1 0 0 0-.218-1.14 3.2 3.2 0 0 0-.657-1.047 3.3 3.3 0 0 0-1.109-.766q-.672-.312-1.531-.312-.922 0-1.641.312-.719.297-1.203.766a3.5 3.5 0 0 0-.75 1.047q-.25.578-.25 1.14m14.156 9.094V41.906h3.609l.094 1.703q.282-.312.688-.672.407-.36.968-.656.563-.297 1.266-.484.703-.203 1.594-.203 2.813 0 4.281 1.687 1.485 1.672 1.485 4.516v9.125h-3.782v-9.094q0-1.437-.781-2.219-.781-.78-2.031-.78-.766 0-1.438.312-.672.297-1.156.843a4 4 0 0 0-.766 1.266 4.4 4.4 0 0 0-.265 1.547v8.125zm17.938 0V52.5h4.578v4.422zm-129.97 35V70.578h4.032v8.578h10.594v-8.578h4.031v21.344h-4.031v-9.188H5.953v9.188zm22.688-5.89v-9.126h3.766V86q0 1.437.781 2.234.798.782 2.047.782.766 0 1.438-.297a3.3 3.3 0 0 0 1.14-.86q.485-.546.75-1.265.282-.72.282-1.547v-8.14h3.78v15.015H34.97l-.094-1.703a7.5 7.5 0 0 1-.703.672q-.422.36-.969.671a5.4 5.4 0 0 1-1.234.485 6.3 6.3 0 0 1-1.61.187q-2.813 0-4.28-1.671-1.47-1.689-1.47-4.532m16.954 4.062 2.265-2.453q.703.703 1.766 1.171 1.077.454 2.453.454 1.218 0 1.953-.313.734-.328.734-1.062 0-.313-.125-.579-.124-.28-.547-.53-.405-.267-1.14-.516-.735-.267-1.984-.547a13 13 0 0 1-1.61-.516 6.5 6.5 0 0 1-1.547-.875 4.9 4.9 0 0 1-1.187-1.344q-.453-.796-.453-1.875 0-1.124.53-2a4.7 4.7 0 0 1 1.423-1.468 7 7 0 0 1 1.984-.907 7.8 7.8 0 0 1 2.234-.328q1.984 0 3.376.422 1.39.406 2.515 1.234L52.25 80.72q-.61-.453-1.61-.813-.984-.375-2.328-.375t-1.874.406q-.532.406-.532.97 0 .702.875 1.109.89.406 2.75.843 1.157.25 2.063.641.906.39 1.562.969.657.577 1 1.36.36.78.36 1.874T54 89.672a4.5 4.5 0 0 1-1.39 1.484q-.876.61-2.047.938-1.173.344-2.485.344-2.11 0-3.812-.594-1.688-.594-2.703-1.75m14.734-10.11v-3.078h2.562v-4.86h3.766v4.86h4.031v3.078h-4.031v6.563q0 1.28.438 1.969.437.687 1.39.687.891 0 1.422-.25.531-.265 1.016-.61l1.593 2.329q-1.125.922-2.218 1.328-1.079.406-2.422.406-1.375 0-2.344-.406a3.8 3.8 0 0 1-1.547-1.125 4.56 4.56 0 0 1-.844-1.781 10 10 0 0 1-.25-2.297v-6.813zm13.453 4.25q0-1.656.547-3.078a7.6 7.6 0 0 1 1.562-2.469 7.4 7.4 0 0 1 2.407-1.671q1.405-.61 3.093-.61 2.047 0 3.47.75 1.421.75 2.28 1.969.876 1.22 1.25 2.75.39 1.531.391 3.14v.532H73.547q0 .828.375 1.516.375.671.953 1.156.594.468 1.344.734.765.25 1.5.25 1.093 0 1.906-.203.813-.219 1.375-.484a5.2 5.2 0 0 0 1.516-1.079l2.046 2.313-.53.531q-.423.422-1.25.906-.813.485-2.079.86-1.266.39-3.016.39-1.796 0-3.265-.609a7.5 7.5 0 0 1-2.516-1.672 7.4 7.4 0 0 1-1.61-2.578q-.546-1.515-.546-3.344m3.766-1.406h7.359q0-.578-.219-1.14A3.2 3.2 0 0 0 80 80.64a3.3 3.3 0 0 0-1.11-.766q-.671-.312-1.53-.312-.922 0-1.641.312-.72.297-1.203.766a3.5 3.5 0 0 0-.75 1.046 2.9 2.9 0 0 0-.25 1.141m14.156 9.094V76.906h3.61l.093 1.703a9 9 0 0 1 .688-.671q.405-.36.968-.657t1.266-.484q.703-.203 1.594-.203 2.813 0 4.281 1.687 1.484 1.672 1.484 4.516v9.125h-3.781v-9.094q0-1.437-.781-2.219-.781-.78-2.031-.78-.766 0-1.438.312-.672.296-1.156.843a4 4 0 0 0-.766 1.266q-.266.72-.266 1.547v8.125zm21.703 0 8.094-21.344h4.172l8.093 21.344h-4.484l-1.859-5.406h-7.938l-1.844 5.406zm7.203-8.734h5.672l-2.828-8.297zm14.734-1.829q0-2.343.797-4.375a11.1 11.1 0 0 1 2.266-3.578 10.6 10.6 0 0 1 3.469-2.437q2.016-.906 4.453-.906 1.563 0 2.875.343 1.313.328 2.375.906a8.9 8.9 0 0 1 1.906 1.36q.844.78 1.485 1.687l-2.86 2.516q-1.03-1.47-2.39-2.36-1.344-.89-3.391-.89-1.563 0-2.828.625a6.4 6.4 0 0 0-2.125 1.656A7.5 7.5 0 0 0 136 78.344a9.1 9.1 0 0 0-.469 2.922q0 1.53.469 2.875a7.2 7.2 0 0 0 1.328 2.343 6.4 6.4 0 0 0 2.063 1.563q1.203.578 2.703.578 1.375 0 2.344-.312.984-.33 1.671-.797a6.6 6.6 0 0 0 1.157-1.016q.468-.531.843-.922l2.829 2.438q-.485.734-1.344 1.515-.844.766-2 1.422a11.6 11.6 0 0 1-2.516 1.063 9.9 9.9 0 0 1-2.922.421q-2.406 0-4.39-.828a10.4 10.4 0 0 1-3.407-2.328 10.8 10.8 0 0 1-2.25-3.5q-.797-2.016-.797-4.422m21.75 0q0-2.343.797-4.375a11.1 11.1 0 0 1 2.266-3.578 10.6 10.6 0 0 1 3.469-2.437q2.016-.906 4.453-.906 1.563 0 2.875.343 1.313.328 2.375.906a8.9 8.9 0 0 1 1.906 1.36q.844.78 1.485 1.687l-2.86 2.516q-1.03-1.47-2.39-2.36-1.344-.89-3.391-.89-1.563 0-2.828.625a6.4 6.4 0 0 0-2.125 1.656 7.5 7.5 0 0 0-1.344 2.438 9.1 9.1 0 0 0-.469 2.922q0 1.53.469 2.875a7.2 7.2 0 0 0 1.328 2.343 6.4 6.4 0 0 0 2.063 1.563q1.203.578 2.703.578 1.375 0 2.344-.312.984-.33 1.671-.797a6.6 6.6 0 0 0 1.157-1.016q.468-.531.843-.922l2.829 2.438q-.485.734-1.344 1.515-.844.766-2 1.422a11.6 11.6 0 0 1-2.516 1.063 9.9 9.9 0 0 1-2.922.421q-2.406 0-4.39-.828a10.4 10.4 0 0 1-3.407-2.328 10.8 10.8 0 0 1-2.25-3.5q-.797-2.016-.797-4.422m22.516 10.563V87.5h4.578v4.422z"/></svg>