<svg xmlns="http://www.w3.org/2000/svg" fill="none" viewBox="0 0 114 17"><g clip-path="url(#a)"><path fill="#fff" d="m.3 13.468 1.911-2.119c.9 1.28 2.023 1.871 3.17 1.871 1.052 0 1.68-.556 1.68-1.451 0-.896-.592-1.32-2.195-1.987C2.591 8.886.968 7.87.968 5.483c0-2.386 2.043-4.278 4.874-4.278 2.063 0 3.514.764 4.566 1.931L8.572 5.392c-.591-.764-1.415-1.26-2.482-1.26-.88 0-1.508.476-1.508 1.184 0 .707.688 1.071 2.351 1.759 2.407.935 3.762 2.119 3.762 4.566 0 2.73-2.139 4.49-5.081 4.49-2.523 0-4.318-1.108-5.31-2.655zm27.256 2.407-.935-2.73h-5.274l-.992 2.73h-3.782l5.901-14.402h3.191l5.826 14.406h-3.935zm-5.233-5.426h3.362l-.708-2.063a92 92 0 0 1-.915-2.827 78 78 0 0 1-.976 2.807zm38.59 5.426V1.473h4.127c4.89 0 8.309 2.407 8.309 7.201s-3.363 7.201-8.08 7.201zm3.535-3.115h.764c2.71 0 4.51-1.415 4.51-4.086 0-2.67-1.527-3.994-4.51-3.994h-.764zm15.358-4.106c0-4.258 3.514-7.433 7.757-7.433 4.222 0 7.716 3.151 7.716 7.47 0 4.317-3.514 7.432-7.776 7.432s-7.697-2.999-7.697-7.469m11.827.04c0-2.367-1.74-4.202-4.087-4.202-2.31 0-4.086 1.851-4.086 4.182 0 2.463 1.851 4.182 4.05 4.182 2.352 0 4.127-1.775 4.127-4.166zm22.002-7.22h-11.371v3.134h5.558l-6.765 11.271h12.17v-3.19h-6.305zM48.399 15.874h3.343V1.473h-3.343v9.176l-6.74-9.176h-3.42V15.88h3.42V6.703l6.744 9.176z"/></g><defs><clipPath id="a"><rect width="114" height="15.6" fill="#fff" transform="translate(0 .905)"/></clipPath></defs></svg>