<svg xmlns="http://www.w3.org/2000/svg" fill="none" viewBox="0 0 83 12"><path fill="#fff" d="M3.89 5.873H1.414L1.4 5.104h2.146q.645 0 1.091-.227.454-.227.688-.674.242-.447.242-1.099 0-.673-.234-1.113a1.4 1.4 0 0 0-.696-.652q-.462-.22-1.165-.22H1.62V11H.784V.336h2.688q.682 0 1.224.168.549.162.93.506.381.336.578.864.205.529.205 1.252 0 .66-.256 1.187-.256.528-.718.864a2.27 2.27 0 0 1-1.084.418zM3.83 11H1.13l.446-.784h2.256q.645 0 1.099-.263.455-.271.696-.762.249-.498.249-1.187 0-.6-.213-1.084a1.7 1.7 0 0 0-.651-.761q-.44-.285-1.121-.286H2.293l.015-.769h2.234l.16.278q.616.074 1.063.44.454.366.703.93.25.564.25 1.238 0 .974-.367 1.648a2.5 2.5 0 0 1-1.01 1.018Q4.695 11 3.83 11M7.966.336l2.644 5.793L13.27.336h.967l-3.208 6.65V11h-.835V6.986L6.985.336zm12.77 9.902V11h-5.661v-.688l2.93-3.963q.549-.74.871-1.296.323-.564.462-1.026a3.1 3.1 0 0 0 .139-.9q0-.638-.213-1.128a1.7 1.7 0 0 0-.608-.77q-.402-.278-.996-.278-.607 0-1.054.322-.44.315-.674.872a3.2 3.2 0 0 0-.235 1.267h-.812q0-.886.33-1.611.329-.733.951-1.172.622-.44 1.494-.44.813 0 1.4.345.593.336.915.981.322.638.322 1.53 0 .485-.146.975a5.6 5.6 0 0 1-.389.974q-.24.483-.564.96-.315.476-.659.937l-2.475 3.347zm2.334-4.504-.645-.198.44-5.2h4.504v.828H23.56l-.307 3.574q.234-.198.666-.388t.982-.19q.608 0 1.091.24.483.235.835.682.351.448.542 1.084.19.637.19 1.436 0 .768-.16 1.413a3.4 3.4 0 0 1-.499 1.128q-.33.476-.842.74-.505.264-1.209.264-.534-.001-1.003-.176a2.5 2.5 0 0 1-.842-.55 2.9 2.9 0 0 1-.6-.922 4.2 4.2 0 0 1-.294-1.304h.777q.072.71.322 1.201.249.49.66.74.41.249.98.249.462 0 .814-.183.358-.183.6-.535.241-.36.359-.872.125-.52.125-1.179 0-.564-.132-1.04a2.6 2.6 0 0 0-.388-.842q-.256-.36-.63-.557a1.7 1.7 0 0 0-.85-.205q-.63 0-.996.205-.36.206-.681.557m11.137-.982v1.795q0 1.18-.19 2.05-.191.865-.543 1.429a2.3 2.3 0 0 1-.871.842 2.4 2.4 0 0 1-1.158.278q-.52 0-.952-.175a2.2 2.2 0 0 1-.769-.535 3.2 3.2 0 0 1-.571-.915 5.7 5.7 0 0 1-.359-1.29 10 10 0 0 1-.125-1.684V4.752q0-1.178.191-2.036.19-.864.55-1.42.358-.565.863-.836.513-.278 1.165-.278.52 0 .945.176.432.175.769.535.345.351.571.893.235.542.36 1.282.124.74.124 1.684m-.813 1.897V4.635q0-.725-.08-1.31a5.3 5.3 0 0 0-.235-1.033 2.5 2.5 0 0 0-.396-.748q-.234-.3-.55-.446a1.54 1.54 0 0 0-.695-.154q-.49 0-.857.234-.36.234-.608.703-.24.462-.366 1.158a9 9 0 0 0-.124 1.596V6.65q0 .719.08 1.311.08.587.235 1.04.16.454.395.762.241.307.55.469.315.154.702.154.491 0 .857-.242.367-.25.608-.725.241-.483.36-1.172.123-.696.124-1.597m3.256 3.648h.146q.975 0 1.626-.337a2.6 2.6 0 0 0 1.033-.938q.38-.607.542-1.413a8.7 8.7 0 0 0 .168-1.758V4.357q.001-.835-.154-1.472-.146-.637-.424-1.062a1.85 1.85 0 0 0-.645-.645 1.54 1.54 0 0 0-.806-.22q-.453 0-.812.235t-.608.644a3.4 3.4 0 0 0-.381.938 4.6 4.6 0 0 0-.132 1.113q0 .543.117 1.055.125.506.359.908.241.403.586.645.351.234.813.234.505 0 .9-.234.404-.243.69-.623.292-.388.446-.835.161-.454.176-.879l.403-.007q0 .666-.205 1.274-.206.6-.579 1.07-.366.468-.864.74a2.2 2.2 0 0 1-1.07.263q-.637 0-1.12-.293a2.6 2.6 0 0 1-.806-.806 3.9 3.9 0 0 1-.483-1.142 5.5 5.5 0 0 1-.161-1.333q0-.77.183-1.443.182-.675.527-1.187.351-.519.857-.813A2.24 2.24 0 0 1 38.114.19q.741 0 1.275.315.542.315.886.887.352.57.52 1.347.176.777.176 1.707v.835q0 .945-.117 1.809a7.2 7.2 0 0 1-.396 1.597 4 4 0 0 1-.754 1.267 3.24 3.24 0 0 1-1.201.835q-.718.293-1.707.293h-.154zm11.466-.059V11h-5.661v-.688l2.93-3.963q.549-.74.87-1.296.324-.564.462-1.026a3.1 3.1 0 0 0 .14-.9q0-.638-.213-1.128a1.7 1.7 0 0 0-.608-.77q-.402-.278-.996-.278-.608 0-1.055.322-.44.315-.673.872a3.2 3.2 0 0 0-.235 1.267h-.813q0-.886.33-1.611.33-.733.952-1.172.622-.44 1.494-.44.813 0 1.399.345.592.336.916.981.322.638.322 1.53 0 .485-.147.975a5.6 5.6 0 0 1-.388.974q-.242.483-.564.96-.315.476-.66.937l-2.475 3.347zm2.333-4.504-.644-.198.44-5.2h4.504v.828H50.94l-.307 3.574q.234-.198.666-.388t.982-.19q.608 0 1.09.24.484.235.836.682.351.448.542 1.084.19.637.19 1.436 0 .768-.161 1.413a3.4 3.4 0 0 1-.498 1.128q-.33.476-.842.74-.506.264-1.209.264-.534-.001-1.003-.176a2.5 2.5 0 0 1-.843-.55 2.9 2.9 0 0 1-.6-.922 4.2 4.2 0 0 1-.293-1.304h.776q.074.71.323 1.201.248.49.659.74.41.249.981.249.462 0 .813-.183.36-.183.6-.535.242-.36.36-.872.124-.52.124-1.179 0-.564-.132-1.04a2.6 2.6 0 0 0-.388-.842q-.255-.36-.63-.557a1.7 1.7 0 0 0-.85-.205q-.63 0-.995.205-.36.206-.682.557M62.084 7.55v.762h-6.372v-.513L59.836.336h.674l-.901 1.824-2.915 5.39zM60.707.336V11h-.805V.336zm7.82 7.83q0 .974-.381 1.64-.381.66-1.026 1.004-.644.336-1.443.336a3.1 3.1 0 0 1-1.457-.336 2.56 2.56 0 0 1-1.026-1.004q-.373-.666-.373-1.64 0-.63.212-1.15.213-.528.586-.909a2.65 2.65 0 0 1 .901-.6 3 3 0 0 1 1.143-.213q.813 0 1.457.374.652.366 1.026 1.01.38.645.38 1.488m-.82.007q0-.681-.272-1.187a1.95 1.95 0 0 0-1.772-1.077q-.594 0-1.055.286-.454.28-.718.791-.255.506-.256 1.187 0 .703.256 1.201.264.491.725.754.462.257 1.062.257t1.055-.257q.455-.263.71-.754.264-.498.264-1.201m.592-5.09q0 .783-.351 1.391-.352.607-.945.96-.593.345-1.333.344a2.65 2.65 0 0 1-1.355-.344 2.6 2.6 0 0 1-.93-.96 2.8 2.8 0 0 1-.337-1.391q0-.93.337-1.575.345-.645.93-.982a2.67 2.67 0 0 1 1.34-.337q.762 0 1.355.337.594.337.938.982.351.644.351 1.575m-.813-.008q0-.622-.241-1.098a1.84 1.84 0 0 0-.652-.748 1.63 1.63 0 0 0-.938-.278q-.519 0-.93.257-.402.256-.637.732-.227.476-.227 1.135 0 .638.227 1.106.234.462.637.718.411.249.945.249.528 0 .938-.25.41-.256.644-.717.234-.468.234-1.106m7.907-2.74V.85L71.6 11h-.85l3.78-9.902h-5.046V.336zm6.728 4.417v1.795q0 1.18-.19 2.05-.19.865-.542 1.429a2.3 2.3 0 0 1-.872.842 2.4 2.4 0 0 1-1.157.278q-.52 0-.952-.175a2.2 2.2 0 0 1-.77-.535 3.2 3.2 0 0 1-.57-.915 5.7 5.7 0 0 1-.36-1.29 10 10 0 0 1-.124-1.684V4.752q0-1.178.19-2.036.19-.864.55-1.42.358-.565.864-.836.513-.278 1.165-.278.52 0 .944.176.432.175.77.535.344.351.57.893.236.542.36 1.282t.124 1.684m-.813 1.897V4.635q0-.725-.08-1.31a5.3 5.3 0 0 0-.235-1.033 2.5 2.5 0 0 0-.395-.748q-.235-.3-.55-.446a1.5 1.5 0 0 0-.695-.154q-.492 0-.857.234-.36.234-.608.703-.242.462-.367 1.158a9 9 0 0 0-.124 1.596V6.65q0 .719.08 1.311.08.587.235 1.04.162.454.395.762.243.307.55.469.315.154.703.154.49 0 .857-.242.366-.25.608-.725.24-.483.359-1.172a9 9 0 0 0 .124-1.597"/></svg>