<svg width="200" height="55" viewBox="0 0 200 55" fill="none" xmlns="http://www.w3.org/2000/svg">
<path d="M30.486 0.803929C15.821 0.221023 3.46343 11.6363 2.88053 26.3012C2.29762 40.9662 13.7153 53.3238 28.3778 53.9067C43.0428 54.4896 55.4004 43.0743 55.9833 28.4094C56.5638 13.7444 45.1485 1.38441 30.486 0.803929ZM41.7021 39.7323C41.3718 40.3153 40.7281 40.6067 40.1015 40.5193C39.9096 40.4926 39.7178 40.4294 39.538 40.3274C36.026 38.3285 32.1983 37.0267 28.1617 36.4584C24.125 35.89 20.086 36.0868 16.1586 37.0413C15.3061 37.2477 14.4488 36.7255 14.2423 35.873C14.0359 35.0205 14.5581 34.1632 15.4106 33.9567C19.7289 32.9075 24.1688 32.6913 28.6037 33.3155C33.0386 33.9397 37.2453 35.3703 41.1095 37.5683C41.8697 38.0031 42.1368 38.9697 41.7045 39.7323H41.7021ZM45.1947 32.7569C44.653 33.7576 43.3998 34.1316 42.3991 33.59C38.2897 31.3676 33.8401 29.908 29.1745 29.2522C24.5088 28.5964 19.831 28.7737 15.2673 29.7768C15.0196 29.8302 14.7742 29.8399 14.5362 29.8059C13.708 29.6894 12.9988 29.0725 12.8094 28.2054C12.5641 27.093 13.2684 25.9928 14.3808 25.7475C19.4254 24.6375 24.5962 24.4408 29.7501 25.1646C34.9015 25.8883 39.8198 27.501 44.3616 29.959C45.3647 30.5006 45.7363 31.7514 45.1947 32.7545V32.7569ZM49.0661 24.8925C48.5561 25.8738 47.4947 26.3814 46.4601 26.2356C46.1807 26.1968 45.9063 26.1093 45.6416 25.9733C40.8569 23.4838 35.703 21.8396 30.3233 21.0842C24.9435 20.3289 19.5346 20.4892 14.2496 21.5627C12.8749 21.842 11.5367 20.9531 11.2574 19.5808C10.9781 18.2061 11.867 16.8679 13.2393 16.5885C19.0926 15.4009 25.0771 15.2236 31.03 16.0591C36.983 16.8946 42.6857 18.7162 47.9853 21.4728C49.2289 22.1189 49.7122 23.6514 49.0661 24.895V24.8925Z" fill="white"/>
<path d="M77.3662 41.243C72.7831 41.243 68.8485 39.6571 67.2042 37.8549C67.0488 37.6776 67.0269 37.5805 67.0269 37.3643V31.9991C67.0269 31.7441 67.2431 31.647 67.418 31.8631C69.395 34.3308 73.6065 36.3466 77.0529 36.3466C79.795 36.3466 81.636 35.6034 81.636 33.1747C81.636 31.7247 80.9511 30.7847 77.2108 29.7282L75.0565 29.121C70.0629 27.7123 67.0269 26.0462 67.0269 21.2688C67.0269 17.0403 70.9421 13.3194 77.4828 13.3194C80.6937 13.3194 83.8851 14.3176 85.7261 15.6899C85.8815 15.8065 85.9422 15.9255 85.9422 16.1392V21.0162C85.9422 21.3489 85.6678 21.4461 85.4128 21.2324C83.9239 19.9985 81.0458 18.3348 77.6383 18.3348C74.2307 18.3348 72.6253 19.8625 72.6253 21.2712C72.6253 22.7601 73.6623 23.1705 77.3638 24.2683L79.2048 24.8172C84.9027 26.5198 87.2344 28.9097 87.2344 32.8662C87.2344 37.9569 83.0059 41.2479 77.3662 41.2479V41.243ZM117.293 31.0203C117.293 27.9066 119.447 25.5969 122.483 25.5969C125.519 25.5969 127.652 27.9066 127.652 31.0203C127.652 34.134 125.497 36.4438 122.483 36.4438C119.469 36.4438 117.293 34.134 117.293 31.0203ZM122.461 41.243C128.786 41.243 133.192 36.7207 133.192 31.0203C133.192 25.32 128.786 20.7976 122.461 20.7976C116.137 20.7976 111.75 25.2811 111.75 31.0203C111.75 36.7595 116.117 41.243 122.461 41.243ZM160.647 19.6245V21.2688H157.317C157.139 21.2688 157.042 21.3659 157.042 21.5432V25.4584C157.042 25.6357 157.139 25.7329 157.317 25.7329H160.647V40.4974C160.647 40.6747 160.744 40.7719 160.921 40.7719H165.934C166.111 40.7719 166.208 40.6747 166.208 40.4974V25.7329H170.498L176.725 39.2636L173.376 46.6252C173.279 46.8414 173.395 46.9385 173.592 46.9385H178.938C179.115 46.9385 179.193 46.8997 179.27 46.7224L190.333 21.5797C190.411 21.4024 190.314 21.2664 190.117 21.2664H185.104C184.927 21.2664 184.849 21.3052 184.772 21.4825L179.72 33.624L174.648 21.4825C174.571 21.3052 174.493 21.2664 174.316 21.2664H166.208V19.9743C166.208 17.8588 167.639 16.88 169.478 16.88C170.573 16.88 171.768 17.4483 172.611 17.9559C172.807 18.0725 172.943 17.9365 172.866 17.7592L171.102 13.5501C171.044 13.4141 170.966 13.334 170.828 13.2563C169.966 12.8069 168.557 12.4135 167.185 12.4135C163.034 12.4135 160.644 15.5855 160.644 19.6197L160.647 19.6245ZM101.627 41.124C106.64 41.124 110.242 36.796 110.242 30.9815C110.242 25.167 106.599 20.9166 101.586 20.9166C97.8651 20.9166 95.7108 23.1875 94.4575 25.4584V21.5432C94.4575 21.3659 94.3604 21.2688 94.1831 21.2688H89.2672C89.0899 21.2688 88.9928 21.3659 88.9928 21.5432V46.6665C88.9928 46.8438 89.0899 46.941 89.2672 46.941H94.1831C94.3604 46.941 94.4575 46.8438 94.4575 46.6665V36.6211C95.7108 38.892 97.8262 41.124 101.625 41.124H101.627ZM143.453 41.0463C145.098 41.0463 146.683 40.6164 147.623 40.0675C147.759 39.9898 147.779 39.9121 147.779 39.7736V36.0528C147.779 35.856 147.682 35.7977 147.504 35.8973C146.936 36.2106 146.193 36.4656 145.175 36.4656C143.57 36.4656 142.552 35.5257 142.552 33.4491V25.7329H147.449C147.626 25.7329 147.723 25.6357 147.723 25.4584V21.5432C147.723 21.3659 147.626 21.2688 147.449 21.2688H142.552V16.1586C142.552 15.9425 142.416 15.8259 142.219 15.9813L133.466 22.8742C133.35 22.9714 133.311 23.0709 133.311 23.2264V25.4584C133.311 25.6357 133.408 25.7329 133.585 25.7329H136.993V34.27C136.993 38.892 139.655 41.0463 143.456 41.0463H143.453ZM149.112 15.4737C149.112 17.237 150.482 18.568 152.362 18.568C154.242 18.568 155.651 17.237 155.651 15.4737C155.651 13.7104 154.281 12.3795 152.362 12.3795C150.443 12.3795 149.112 13.7104 149.112 15.4737ZM149.875 40.7743H154.888C155.065 40.7743 155.162 40.6771 155.162 40.4998V21.5457C155.162 21.3684 155.065 21.2712 154.888 21.2712H149.875C149.698 21.2712 149.6 21.3684 149.6 21.5457V40.4998C149.6 40.6771 149.698 40.7743 149.875 40.7743ZM94.3409 30.945C95.242 27.9285 97.3162 25.6187 100.136 25.6187C102.956 25.6187 104.678 27.654 104.678 30.9839C104.678 34.3137 102.817 36.3879 100.136 36.3879C97.4546 36.3879 95.2396 33.8037 94.3409 30.945Z" fill="white"/>
<path d="M196.755 22.42C196.498 21.9756 196.141 21.6282 195.684 21.3757C195.227 21.1255 194.717 20.9992 194.149 20.9992C193.581 20.9992 193.071 21.1255 192.614 21.3757C192.157 21.6282 191.8 21.9756 191.543 22.42C191.286 22.8645 191.157 23.3672 191.157 23.9283C191.157 24.4893 191.286 24.9824 191.543 25.4269C191.8 25.8713 192.157 26.2186 192.614 26.4712C193.071 26.7238 193.581 26.8477 194.149 26.8477C194.717 26.8477 195.227 26.7214 195.684 26.4712C196.141 26.2211 196.498 25.8713 196.755 25.4269C197.013 24.9824 197.141 24.4845 197.141 23.9283C197.141 23.3721 197.013 22.8645 196.755 22.42ZM196.286 25.1791C196.078 25.5483 195.786 25.8349 195.414 26.0438C195.043 26.2502 194.62 26.3546 194.151 26.3546C193.683 26.3546 193.248 26.2502 192.876 26.0438C192.505 25.8373 192.216 25.5483 192.009 25.1791C191.803 24.8124 191.701 24.3946 191.701 23.9283C191.701 23.462 191.803 23.0466 192.009 22.6823C192.216 22.318 192.505 22.0314 192.876 21.825C193.248 21.6185 193.673 21.5141 194.151 21.5141C194.63 21.5141 195.043 21.6185 195.414 21.825C195.786 22.0314 196.078 22.3204 196.286 22.6896C196.495 23.0588 196.6 23.4741 196.6 23.9404C196.6 24.4068 196.495 24.8124 196.286 25.1815V25.1791Z" fill="white"/>
<path d="M195.167 23.8724C195.366 23.7267 195.465 23.5324 195.465 23.292C195.465 23.0515 195.368 22.8475 195.174 22.7018C194.98 22.556 194.698 22.4832 194.329 22.4832H193.027V25.2034H193.656V24.1226H193.998L194.827 25.2034H195.599L194.693 24.057C194.885 24.0206 195.048 23.9599 195.169 23.87L195.167 23.8724ZM194.229 23.632H193.656V22.9665H194.251C194.428 22.9665 194.564 22.9932 194.659 23.0491C194.754 23.105 194.802 23.19 194.802 23.3065C194.802 23.4158 194.751 23.4984 194.654 23.5518C194.555 23.6077 194.414 23.6344 194.229 23.6344V23.632Z" fill="white"/>
</svg>
