<svg xmlns="http://www.w3.org/2000/svg" fill="none" viewBox="0 0 131 44"><path fill="#007990" d="M5.346 7.622h-.234c-.252 0-.504.018-.792.036-.108.018-.144.09-.144.216v2.844h.936c.648 0 1.08-.09 1.332-.306.216-.18.324-.522.324-1.062V8.9c0-.432-.108-.756-.306-.954-.216-.216-.594-.324-1.116-.324m-1.17 5.562v3.258c0 .378-.216.558-.63.558H1.782c-.234 0-.396-.036-.486-.126-.108-.072-.144-.216-.144-.432V6.092q0-.432.162-.594c.108-.108.306-.18.63-.216.648-.054 1.656-.09 3.042-.09h.216c1.836 0 3.096.36 3.798 1.062.54.576.81 1.44.81 2.61v.612c0 1.35-.378 2.304-1.134 2.844-.792.576-1.998.864-3.636.864zm9.319-1.296v1.404c0 .702.108 1.152.324 1.368.162.18.414.252.756.252h.072c.324 0 .576-.072.756-.252.216-.216.324-.666.324-1.368v-1.404c0-.684-.108-1.152-.324-1.368-.18-.162-.432-.252-.756-.252h-.072c-.342 0-.594.09-.756.252-.216.216-.324.684-.324 1.368m5.13.108v1.17c0 .9-.09 1.584-.27 2.088s-.468.9-.864 1.206c-.594.468-1.512.702-2.772.702h-.216c-1.26 0-2.196-.234-2.772-.702a2.58 2.58 0 0 1-.864-1.206c-.18-.504-.27-1.188-.27-2.088v-1.152c0-.882.09-1.566.27-2.07s.468-.9.864-1.224c.576-.468 1.512-.702 2.772-.702h.216c1.26 0 2.178.234 2.772.702.396.324.684.72.864 1.206.18.504.27 1.188.27 2.07m4.421-.486v2.304c0 .414.072.702.252.864.144.162.414.234.81.234h.162c.414 0 .702-.108.882-.36q.216-.324.216-1.566v-.774c0-.9-.09-1.458-.234-1.638-.162-.18-.468-.288-.9-.288h-.072c-.414 0-.702.09-.882.27-.162.162-.234.486-.234.954m0-3.006h.036q.783-.486 2.052-.486h.162c1.08 0 1.872.324 2.358.972.396.558.612 1.548.612 2.97v1.296c0 1.44-.306 2.448-.918 3.006-.648.612-1.674.9-3.078.9h-.36c-1.476 0-2.484-.288-3.024-.882-.486-.522-.72-1.368-.72-2.556V5.336c0-.18.036-.306.126-.396.072-.072.234-.126.468-.126h1.674c.216 0 .378.054.468.126a.53.53 0 0 1 .144.396zm9.686.198v7.776c0 .18-.054.324-.144.396-.09.09-.252.126-.468.126h-1.656c-.234 0-.396-.036-.486-.126-.09-.072-.126-.216-.126-.396V8.702c0-.18.036-.306.126-.396.09-.072.252-.126.486-.126h1.656c.216 0 .378.054.468.126a.53.53 0 0 1 .144.396M31.4 7.496h-.216c-.972 0-1.458-.486-1.458-1.494v-.09c0-.99.486-1.494 1.458-1.494h.216c.972 0 1.458.504 1.458 1.494v.09c0 1.008-.486 1.494-1.458 1.494m7.482 7.344h.198a8 8 0 0 0 1.908-.234c.18-.036.288-.054.342-.054.18 0 .288.108.324.306l.144.9c.036.252.072.414.072.486 0 .216-.162.378-.468.486-.828.288-1.746.432-2.718.432h-.342q-2.214 0-3.132-.918a2.6 2.6 0 0 1-.72-1.224c-.126-.468-.18-1.098-.18-1.872V12.14c0-1.566.36-2.664 1.08-3.312.612-.54 1.548-.81 2.826-.81h.252c1.26 0 2.178.306 2.718.9.576.648.864 1.71.864 3.222v.936c0 .342-.18.504-.522.504h-4.32v.144c0 .432.108.72.36.882.234.162.666.234 1.314.234m-1.674-3.132h1.98c.144 0 .216-.072.216-.234v-.288c0-.36-.072-.63-.18-.828-.144-.216-.432-.324-.828-.324h-.162c-.36 0-.612.09-.756.252q-.27.324-.27.972zm8.64-2.556h.054c.396-.648 1.062-.972 2.016-.972h.72c.18 0 .324.036.396.108s.126.198.126.396v1.314c0 .198-.036.324-.108.396q-.108.108-.378.108h-.54c-.666 0-1.116.126-1.368.378-.216.216-.306.63-.306 1.242v4.356c0 .18-.054.324-.144.396-.09.09-.252.126-.468.126h-1.656c-.234 0-.396-.036-.486-.126-.09-.072-.126-.216-.126-.396V8.684c0-.18.036-.306.126-.378s.252-.126.486-.126h.864c.198 0 .342.036.432.09q.135.108.216.324zm7.31 1.314h-2.861c-.18 0-.306-.018-.378-.09s-.09-.216-.09-.432V8.702c0-.216.018-.342.09-.414q.108-.108.378-.108h6.084c.18 0 .306.036.396.108.072.072.126.216.126.414v.342c0 .468-.144.9-.396 1.278l-3.096 4.392h3.078c.18 0 .288.036.36.108s.108.198.108.414v1.242q0 .324-.108.432c-.072.072-.18.09-.36.09h-6.192c-.378 0-.558-.162-.558-.522v-.414c0-.468.126-.882.396-1.278zm14.116 5.796h-.036c-.396.612-1.188.9-2.358.9h-.27c-.918 0-1.638-.234-2.142-.702-.522-.468-.774-1.17-.774-2.07v-.198c0-.972.27-1.674.828-2.07s1.458-.594 2.718-.594h.126c.468 0 .9.036 1.26.072v-.378c0-.378-.108-.648-.306-.792-.216-.126-.576-.198-1.08-.198-.612 0-1.296.108-2.088.306-.216.054-.378.054-.45 0-.09-.054-.144-.162-.162-.342l-.144-.954c-.036-.162-.036-.288-.036-.36 0-.216.144-.378.432-.468a11.6 11.6 0 0 1 3.078-.396c1.386 0 2.376.306 2.952.882.45.468.684 1.224.684 2.25v5.346c0 .18-.054.324-.144.396s-.252.108-.468.108h-.846c-.216 0-.36-.018-.45-.072s-.162-.162-.216-.342zm-.648-2.304v-.504a5 5 0 0 0-.864-.054h-.198q-.648 0-.918.162c-.18.108-.252.324-.252.648v.072c0 .324.072.54.252.648.162.126.414.18.756.18h.126c.36 0 .63-.09.846-.27.162-.144.252-.45.252-.882m6.8-5.004c.63-.612 1.53-.936 2.683-.936h.162c1.116 0 1.908.324 2.394.936.432.576.648 1.548.648 2.952v1.35c0 .756-.072 1.386-.18 1.854-.126.468-.342.864-.648 1.17-.612.594-1.44.882-2.52.882h-.198q-1.026 0-1.674-.378v2.772c0 .27-.054.45-.144.522-.108.072-.306.108-.612.108h-1.368c-.306 0-.504-.036-.612-.126-.108-.072-.144-.252-.144-.504v-10.8c0-.216.036-.36.144-.45.09-.072.252-.126.486-.126h.756c.216 0 .378.036.468.072a.7.7 0 0 1 .198.306l.126.396zm.667 2.556v2.304c0 .414.072.702.252.864.162.162.432.234.81.234h.162c.414 0 .702-.108.882-.36q.216-.324.216-1.566v-.774c0-.864-.072-1.404-.216-1.602-.18-.216-.468-.324-.9-.324h-.126c-.396 0-.666.09-.846.27-.162.162-.234.486-.234.954m9.992 3.15h.576c.18 0 .324.054.396.126.072.09.126.252.126.486v1.116c0 .252-.054.414-.126.486-.072.09-.216.126-.396.126h-1.368c-.9 0-1.53-.162-1.89-.522-.36-.342-.54-.954-.54-1.818V5.336c0-.18.036-.306.126-.396.09-.072.252-.126.486-.126h1.656c.216 0 .378.054.468.126a.53.53 0 0 1 .144.396v8.982c0 .144.018.234.072.27.036.054.126.072.27.072m5.196-5.958v7.776c0 .18-.054.324-.144.396-.09.09-.252.126-.468.126h-1.656c-.234 0-.396-.036-.486-.126-.09-.072-.126-.216-.126-.396V8.702c0-.18.036-.306.126-.396.09-.072.252-.126.486-.126h1.656c.216 0 .378.054.468.126a.53.53 0 0 1 .144.396M87.95 7.496h-.216c-.972 0-1.458-.486-1.458-1.494v-.09c0-.99.486-1.494 1.458-1.494h.216c.972 0 1.458.504 1.458 1.494v.09c0 1.008-.486 1.494-1.458 1.494m6.078 6.012v2.97c0 .18-.055.324-.145.396-.09.09-.252.126-.468.126h-1.656c-.233 0-.395-.036-.486-.126-.09-.072-.126-.216-.126-.396V5.336c0-.18.037-.306.126-.396.09-.072.252-.126.486-.126h1.657c.215 0 .377.054.467.126a.53.53 0 0 1 .144.396v5.868h.127l1.71-2.61c.162-.27.413-.414.755-.414h2.089c.198 0 .306.072.306.216 0 .072-.055.198-.145.342l-2.07 3.096c-.162.252-.234.432-.234.54 0 .126.073.306.235.54l2.213 3.492c.073.144.109.234.109.306 0 .198-.126.288-.378.288h-1.998c-.252 0-.45-.018-.559-.09q-.162-.081-.324-.378l-1.71-3.024zm11.216 2.754h-.036c-.396.612-1.188.9-2.358.9h-.27c-.918 0-1.638-.234-2.142-.702-.522-.468-.774-1.17-.774-2.07v-.198c0-.972.27-1.674.828-2.07s1.458-.594 2.718-.594h.126c.468 0 .9.036 1.26.072v-.378c0-.378-.108-.648-.306-.792-.216-.126-.576-.198-1.08-.198-.612 0-1.296.108-2.088.306-.216.054-.378.054-.45 0-.09-.054-.144-.162-.162-.342l-.144-.954c-.036-.162-.036-.288-.036-.36 0-.216.144-.378.432-.468a11.6 11.6 0 0 1 3.078-.396c1.386 0 2.376.306 2.952.882.45.468.684 1.224.684 2.25v5.346c0 .18-.054.324-.144.396s-.252.108-.468.108h-.846c-.216 0-.36-.018-.45-.072s-.162-.162-.216-.342zm-.648-2.304v-.504a5 5 0 0 0-.864-.054h-.198q-.648 0-.918.162c-.18.108-.252.324-.252.648v.072c0 .324.072.54.252.648.162.126.414.18.756.18h.126c.36 0 .63-.09.846-.27.162-.144.252-.45.252-.882m8.727.882h.144c.486 0 1.008-.072 1.566-.234.18-.036.288-.054.342-.054.18 0 .288.108.324.306l.162.918c.036.252.072.414.072.486 0 .216-.162.378-.468.486-.792.288-1.656.414-2.592.414h-.216c-1.296 0-2.25-.288-2.844-.9q-.918-.918-.918-3.078V12.14c0-.846.072-1.512.216-1.98q.216-.702.702-1.188c.63-.63 1.62-.954 2.97-.954h.18c1.08 0 2.016.198 2.772.594.216.126.342.27.342.45 0 .108-.054.288-.144.54l-.342.864q-.135.324-.378.324a.7.7 0 0 1-.324-.09c-.576-.234-1.116-.36-1.602-.36h-.072c-.468 0-.81.126-1.026.342-.27.27-.396.828-.396 1.656v.612c0 .738.108 1.242.36 1.512.234.252.63.378 1.17.378m3.709 5.364h-1.044c-.18 0-.324-.036-.396-.126-.072-.072-.108-.234-.108-.45v-1.26c0-.18.036-.324.108-.396s.216-.126.396-.126h.451c.324 0 .576-.072.738-.252.144-.144.216-.522.216-1.116V8.702c0-.18.036-.306.126-.396.09-.072.252-.126.486-.126h1.656c.216 0 .378.054.468.126a.53.53 0 0 1 .144.396v7.974c0 1.296-.234 2.196-.702 2.718q-.73.81-2.539.81m1.909-12.708h-.216c-.972 0-1.458-.486-1.458-1.494v-.09c0-.99.486-1.494 1.458-1.494h.216c.972 0 1.458.504 1.458 1.494v.09c0 1.008-.486 1.494-1.458 1.494m7.481 7.344h.198a8 8 0 0 0 1.908-.234c.18-.036.288-.054.342-.054.18 0 .288.108.324.306l.144.9c.036.252.072.414.072.486 0 .216-.162.378-.468.486a2.6 2.6 0 0 0-1.152.864c-.306.396-.45.792-.45 1.152v.054c0 .342.162.504.486.504h.09c.198 0 .45-.036.738-.144.09-.018.162-.036.216-.036.09 0 .162.09.216.234l.09.378c.054.252.09.378.09.414 0 .108-.09.198-.252.27q-.702.27-1.458.27h-.108c-.63 0-1.098-.126-1.422-.396s-.486-.648-.486-1.152v-.054c0-.324.108-.684.342-1.044s.54-.648.936-.9c-.144.018-.342.018-.594.018h-.342q-2.214 0-3.132-.918a2.6 2.6 0 0 1-.72-1.224c-.126-.468-.18-1.098-.18-1.872V12.14c0-1.566.36-2.664 1.08-3.312.612-.54 1.548-.81 2.826-.81h.252c1.26 0 2.178.306 2.718.9.576.648.864 1.71.864 3.222v.936c0 .342-.18.504-.522.504h-4.32v.144c0 .432.108.72.36.882.234.162.666.234 1.314.234m-1.674-3.132h1.98c.144 0 .216-.072.216-.234v-.288c0-.36-.072-.63-.18-.828-.144-.216-.432-.324-.828-.324h-.162c-.36 0-.612.09-.756.252q-.27.324-.27.972zM3.798 33.51v2.304c0 .414.072.702.252.864.144.162.414.234.81.234h.162c.414 0 .702-.108.882-.36q.216-.324.216-1.566v-.774c0-.9-.09-1.458-.234-1.638-.162-.18-.468-.288-.9-.288h-.072c-.414 0-.702.09-.882.27-.162.162-.234.486-.234.954m0-3.006h.036q.783-.486 2.052-.486h.162c1.08 0 1.872.324 2.358.972.396.558.612 1.548.612 2.97v1.296c0 1.44-.306 2.448-.918 3.006-.648.612-1.674.9-3.078.9h-.36c-1.476 0-2.484-.288-3.024-.882-.486-.522-.72-1.368-.72-2.556v-8.388c0-.18.036-.306.126-.396.072-.072.234-.126.468-.126h1.674c.216 0 .378.054.468.126a.53.53 0 0 1 .144.396zm11.972 7.758h-.036c-.396.612-1.188.9-2.358.9h-.27c-.918 0-1.638-.234-2.142-.702-.522-.468-.774-1.17-.774-2.07v-.198c0-.972.27-1.674.828-2.07s1.458-.594 2.718-.594h.126c.468 0 .9.036 1.26.072v-.378c0-.378-.108-.648-.306-.792-.216-.126-.576-.198-1.08-.198-.612 0-1.296.108-2.088.306-.216.054-.378.054-.45 0-.09-.054-.144-.162-.162-.342l-.144-.954c-.036-.162-.036-.288-.036-.36 0-.216.144-.378.432-.468a11.6 11.6 0 0 1 3.078-.396c1.386 0 2.376.306 2.952.882.45.468.684 1.224.684 2.25v5.346c0 .18-.054.324-.144.396s-.252.108-.468.108h-.846c-.216 0-.36-.018-.45-.072s-.162-.162-.216-.342zm-.648-2.304v-.504a5 5 0 0 0-.864-.054h-.198q-.648 0-.918.162c-.18.108-.252.324-.252.648v.072c0 .324.072.54.252.648.162.126.414.18.756.18h.126c.36 0 .63-.09.846-.27.162-.144.252-.45.252-.882m9.339-5.94h.144c1.044 0 1.818.252 2.286.738.432.468.666 1.26.666 2.376v5.346c0 .18-.054.324-.144.396-.09.09-.252.126-.468.126h-1.656c-.234 0-.396-.036-.486-.126-.09-.072-.126-.216-.126-.396v-5.094c0-.396-.072-.684-.198-.828-.144-.144-.414-.234-.792-.234h-.108c-.396 0-.648.09-.792.234s-.198.432-.198.828v5.094c0 .18-.054.324-.144.396-.09.09-.252.126-.468.126h-1.656c-.234 0-.396-.036-.486-.126-.09-.072-.126-.216-.126-.396v-7.794c0-.18.036-.306.126-.378s.252-.126.486-.126h.846c.216 0 .36.036.45.09q.135.081.216.324l.108.342h.054c.576-.612 1.386-.918 2.466-.918m7.69 5.49v2.97c0 .18-.054.324-.144.396-.09.09-.251.126-.467.126h-1.656c-.235 0-.396-.036-.486-.126-.09-.072-.127-.216-.127-.396V27.336c0-.18.037-.306.127-.396.09-.072.252-.126.486-.126h1.656c.216 0 .378.054.468.126a.53.53 0 0 1 .143.396v5.868h.127l1.71-2.61c.162-.27.413-.414.755-.414h2.088c.198 0 .306.072.306.216 0 .072-.053.198-.144.342l-2.07 3.096c-.162.252-.233.432-.233.54 0 .126.072.306.233.54l2.215 3.492c.072.144.108.234.108.306 0 .198-.127.288-.379.288H34.87c-.252 0-.45-.018-.558-.09q-.162-.081-.325-.378l-1.71-3.024zm10.749.27v-5.076c0-.18.036-.306.126-.396.09-.072.252-.126.486-.126h1.656c.216 0 .378.054.468.126a.53.53 0 0 1 .144.396v5.328q0 1.647-.81 2.376c-.576.504-1.584.756-3.06.756s-2.502-.252-3.06-.756q-.81-.729-.81-2.376v-5.328c0-.18.036-.306.126-.396.09-.072.252-.126.486-.126h1.656c.216 0 .378.054.468.126a.53.53 0 0 1 .144.396v5.076c0 .414.054.684.198.828.144.162.396.234.792.234.378 0 .648-.072.792-.234.126-.144.198-.414.198-.828m14.91-.936v-6.93c0-.252.019-.396.09-.468.073-.054.253-.09.54-.09h1.765c.288 0 .45.036.522.09.072.072.108.216.108.468v7.02c0 .792-.09 1.44-.252 1.944-.18.504-.45.936-.846 1.296-.738.666-1.908.99-3.492.99h-.216c-1.62 0-2.79-.324-3.51-.99q-1.08-.999-1.08-3.24v-7.02c0-.252.018-.396.09-.468.072-.054.252-.09.54-.09h1.764c.288 0 .468.036.54.09.072.072.108.216.108.468v6.93c0 .72.108 1.206.36 1.44.234.252.648.36 1.26.36h.09c.594 0 1.008-.108 1.26-.36.234-.234.36-.72.36-1.44m9.665-4.824h.144c1.044 0 1.818.252 2.286.738.432.468.666 1.26.666 2.376v5.346c0 .18-.054.324-.144.396-.09.09-.252.126-.468.126h-1.656c-.234 0-.396-.036-.486-.126-.09-.072-.126-.216-.126-.396v-5.094c0-.396-.072-.684-.198-.828-.144-.144-.414-.234-.792-.234h-.108c-.396 0-.648.09-.792.234s-.198.432-.198.828v5.094c0 .18-.054.324-.144.396-.09.09-.252.126-.468.126h-1.656c-.234 0-.396-.036-.486-.126-.09-.072-.126-.216-.126-.396v-7.794c0-.18.036-.306.126-.378s.252-.126.486-.126h.846c.216 0 .36.036.45.09q.135.081.216.324l.108.342h.054c.576-.612 1.386-.918 2.466-.918m7.726.684v7.776c0 .18-.054.324-.144.396-.09.09-.252.126-.468.126h-1.656c-.234 0-.396-.036-.486-.126-.09-.072-.126-.216-.126-.396v-7.776c0-.18.036-.306.126-.396.09-.072.252-.126.486-.126h1.656c.216 0 .378.054.468.126a.53.53 0 0 1 .144.396m-1.332-1.206h-.216c-.972 0-1.458-.486-1.458-1.494v-.09c0-.99.486-1.494 1.458-1.494h.216c.972 0 1.458.504 1.458 1.494v.09c0 1.008-.486 1.494-1.458 1.494m8.057 9.666h-.18c-1.746 0-2.988-.396-3.744-1.206q-1.026-1.08-1.026-3.672V32.07c0-1.692.342-2.916 1.044-3.654.756-.81 2.016-1.224 3.744-1.224h.126c1.35 0 2.52.27 3.528.792q.378.216.216.648l-.594 1.512c-.072.18-.18.27-.306.27a.6.6 0 0 1-.342-.09c-.846-.396-1.638-.612-2.376-.612h-.072c-.774 0-1.296.216-1.548.648-.234.396-.342 1.098-.342 2.142v1.278c0 1.152.162 1.926.504 2.304.324.378.9.558 1.692.558h.072c.72 0 1.476-.162 2.232-.504.108-.036.216-.072.288-.072q.216 0 .324.378l.306 1.296c.036.144.054.27.054.342 0 .216-.18.378-.54.504a8.2 8.2 0 0 1-3.06.576m7.498-8.01h.054c.396-.648 1.062-.972 2.016-.972h.72c.18 0 .324.036.396.108s.126.198.126.396v1.314c0 .198-.036.324-.108.396q-.108.108-.378.108h-.54c-.666 0-1.116.126-1.368.378-.216.216-.306.63-.306 1.242v4.356c0 .18-.054.324-.144.396-.09.09-.252.126-.468.126h-1.656c-.234 0-.396-.036-.486-.126-.09-.072-.126-.216-.126-.396v-7.794c0-.18.036-.306.126-.378s.252-.126.486-.126h.864c.198 0 .342.036.432.09q.135.108.216.324zm8.59 5.688h.199c.612 0 1.26-.072 1.908-.234.18-.036.288-.054.342-.054.18 0 .288.108.324.306l.144.9c.036.252.072.414.072.486 0 .216-.162.378-.468.486-.828.288-1.746.432-2.718.432h-.342q-2.214 0-3.132-.918a2.6 2.6 0 0 1-.72-1.224c-.127-.468-.18-1.098-.18-1.872V34.14c0-1.566.36-2.664 1.08-3.312.612-.54 1.547-.81 2.826-.81h.251c1.26 0 2.178.306 2.719.9.576.648.864 1.71.864 3.222v.936c0 .342-.18.504-.522.504h-4.32v.144c0 .432.108.72.36.882.234.162.666.234 1.314.234m-1.673-3.132h1.98c.144 0 .216-.072.216-.234v-.288c0-.36-.073-.63-.18-.828-.144-.216-.433-.324-.829-.324h-.162c-.36 0-.612.09-.755.252q-.27.324-.27.972zm11.304 2.106v-2.286c0-.45-.072-.774-.216-.954-.162-.18-.45-.288-.846-.288h-.18c-.396 0-.666.108-.828.306-.18.198-.252.756-.252 1.692v.792c0 .864.09 1.404.27 1.584.144.18.414.252.828.252h.198c.342 0 .594-.072.774-.234.162-.162.252-.45.252-.864m-.036-5.472h.036v-3.006c0-.18.036-.306.126-.396.09-.072.252-.126.486-.126h1.674c.216 0 .378.054.468.126a.6.6 0 0 1 .126.396v8.19c0 1.26-.234 2.124-.702 2.628a2.8 2.8 0 0 1-1.242.774c-.504.162-1.17.234-2.016.234h-.306c-1.332 0-2.286-.27-2.898-.81-.63-.54-.936-1.548-.936-3.042v-1.44c0-1.44.288-2.448.9-3.024.576-.54 1.368-.828 2.394-.828h.216q1.026 0 1.674.324m7.547.36v7.776c0 .18-.054.324-.144.396-.09.09-.252.126-.468.126h-1.656c-.234 0-.396-.036-.486-.126-.09-.072-.126-.216-.126-.396v-7.776c0-.18.036-.306.126-.396.09-.072.252-.126.486-.126h1.656c.216 0 .378.054.468.126a.53.53 0 0 1 .144.396m-1.332-1.206h-.216c-.972 0-1.458-.486-1.458-1.494v-.09c0-.99.486-1.494 1.458-1.494h.216c.972 0 1.458.504 1.458 1.494v.09c0 1.008-.486 1.494-1.458 1.494m8.832 7.812v1.026c0 .27-.054.45-.126.54s-.234.126-.45.126h-1.44c-1.296 0-2.16-.216-2.556-.666-.36-.378-.522-1.098-.522-2.178V32.43h-.972c-.18 0-.288-.018-.36-.09s-.09-.18-.09-.36v-.918c0-.216.018-.36.09-.432.054-.072.18-.126.378-.18l.954-.234v-1.764c0-.18.036-.306.126-.396.09-.072.252-.126.486-.126h1.656c.216 0 .378.054.468.126a.53.53 0 0 1 .144.396v1.728h1.494c.18 0 .288.036.36.108s.108.198.108.414v1.206q0 .324-.108.432c-.072.072-.18.09-.36.09h-1.494v3.402c0 .324.036.522.144.63.108.126.342.18.702.18h.792c.216 0 .378.054.45.144s.126.27.126.522m4.17.18v.18c0 1.008-.486 1.494-1.44 1.494h-.198c-.972 0-1.44-.486-1.44-1.494v-.18c0-.522.108-.9.36-1.116.234-.216.594-.342 1.08-.342h.198c.468 0 .828.126 1.08.342.234.216.36.594.36 1.116"/></svg>