<svg xmlns="http://www.w3.org/2000/svg" fill="none" viewBox="0 0 130 82"><path fill="#fff" d="M3.549 6.754H.922c-.26 0-.44-.04-.521-.12q-.12-.12-.12-.482V4.65c0-.24.04-.421.12-.502.08-.08.24-.12.521-.12h8.642c.26 0 .441.04.522.12.08.08.12.261.12.502v1.503c0 .241-.06.402-.14.482s-.261.12-.502.12H6.938v9.604c0 .261-.06.441-.14.522q-.152.12-.602.12H4.29q-.48 0-.602-.12c-.1-.08-.14-.261-.14-.522zm9.467 4.552v1.564c0 .782.12 1.283.36 1.523.18.2.462.281.843.281h.08c.36 0 .641-.08.842-.28.24-.241.36-.742.36-1.524v-1.564c0-.762-.12-1.284-.36-1.524-.2-.18-.481-.281-.842-.281h-.08c-.381 0-.662.1-.843.28-.24.241-.36.763-.36 1.525m5.714.12v1.303c0 1.003-.1 1.765-.3 2.326a2.87 2.87 0 0 1-.963 1.343c-.662.522-1.684.782-3.088.782h-.24c-1.404 0-2.447-.26-3.088-.782a2.87 2.87 0 0 1-.963-1.343c-.2-.561-.3-1.323-.3-2.326v-1.283c0-.983.1-1.745.3-2.306s.521-1.002.963-1.363c.641-.522 1.684-.782 3.087-.782h.241c1.404 0 2.426.26 3.088.782.44.36.762.802.962 1.343.2.561.301 1.323.301 2.306m4.183-3.389c.702-.681 1.704-1.042 2.988-1.042h.18c1.243 0 2.125.36 2.667 1.042.481.642.722 1.725.722 3.289v1.503c0 .843-.08 1.544-.2 2.066-.141.521-.382.962-.723 1.303-.681.662-1.604.982-2.807.982h-.22q-1.143 0-1.865-.42v3.087c0 .301-.06.502-.16.582-.12.08-.341.12-.682.12h-1.524c-.34 0-.561-.04-.682-.14-.12-.08-.16-.281-.16-.562V7.817c0-.24.04-.401.16-.502.1-.08.281-.14.542-.14h.842c.24 0 .42.04.521.08.08.06.16.18.22.341l.141.441zm.742 2.847v2.567c0 .461.08.782.28.962.181.18.482.261.903.261h.18c.462 0 .782-.12.983-.4q.24-.362.24-1.745v-.863c0-.962-.08-1.564-.24-1.784-.2-.24-.521-.361-1.003-.361h-.14c-.441 0-.742.1-.942.3-.18.181-.261.542-.261 1.063m10.45.422v1.564c0 .782.12 1.283.36 1.523.18.2.461.281.842.281h.08c.361 0 .642-.08.843-.28.24-.241.36-.742.36-1.524v-1.564c0-.762-.12-1.284-.36-1.524-.201-.18-.482-.281-.843-.281h-.08c-.38 0-.662.1-.842.28-.24.241-.36.763-.36 1.525m5.714.12v1.303c0 1.003-.1 1.765-.301 2.326a2.87 2.87 0 0 1-.963 1.343c-.661.522-1.684.782-3.087.782h-.241c-1.404 0-2.446-.26-3.088-.782a2.87 2.87 0 0 1-.962-1.343c-.2-.561-.301-1.323-.301-2.326v-1.283c0-.983.1-1.745.3-2.306.201-.561.522-1.002.963-1.363.642-.522 1.684-.782 3.088-.782h.24c1.404 0 2.427.26 3.088.782.441.36.762.802.963 1.343.2.561.3 1.323.3 2.306m6.85-3.77h1.724c.28 0 .481.04.581.12s.18.241.22.482c0 .08.362 1.865 1.064 5.333h.06c.36-2.105.681-4.05.942-5.854.02-.221.08-.361.16-.442q.12-.12.422-.12h2.045c.22 0 .36.06.44.14.061.1.081.261.041.462a199 199 0 0 1-1.163 5.173c-.441 1.885-.762 3.067-.962 3.569-.08.2-.18.34-.281.4-.1.06-.26.081-.461.081h-2.206c-.42 0-.682-.14-.762-.461-.38-1.364-.702-3.088-.982-5.173h-.08a55 55 0 0 1-1.003 5.173c-.08.32-.32.461-.722.461h-2.165c-.401 0-.662-.14-.762-.441-.2-.542-.542-1.785-1.023-3.71a93 93 0 0 1-1.123-5.072c-.06-.221-.04-.381.04-.462.08-.08.241-.14.482-.14h1.965c.2 0 .36.04.46.12.081.08.141.241.181.442.28 1.864.602 3.81.983 5.854h.08c.481-2.486.822-4.27.982-5.333.04-.26.1-.421.2-.501.101-.06.302-.1.623-.1m13.659 6.938h.22a8.8 8.8 0 0 0 2.125-.26c.201-.04.321-.06.381-.06.2 0 .321.12.361.34l.16 1.002c.04.281.08.462.08.542 0 .24-.18.42-.52.541-.923.321-1.945.481-3.028.481h-.381q-2.466 0-3.489-1.022a2.9 2.9 0 0 1-.802-1.364c-.14-.52-.2-1.223-.2-2.085v-1.123c0-1.744.4-2.967 1.203-3.69.681-.6 1.724-.901 3.148-.901h.28c1.404 0 2.426.34 3.028 1.002.642.722.962 1.905.962 3.59v1.042c0 .38-.2.561-.581.561h-4.812v.16c0 .482.12.803.4.983.261.18.743.26 1.465.26m-1.865-3.489h2.205c.16 0 .241-.08.241-.26v-.321c0-.401-.08-.702-.2-.923-.16-.24-.482-.36-.923-.36h-.18c-.401 0-.682.1-.843.28q-.3.36-.3 1.083zM4.23 33.11v3.309c0 .2-.06.36-.16.44-.1.1-.281.141-.522.141H1.704c-.26 0-.44-.04-.541-.14-.1-.08-.14-.241-.14-.441V24.007c0-.2.04-.34.14-.441.1-.08.28-.14.541-.14H3.55c.24 0 .421.06.521.14.1.1.16.24.16.441v6.537h.141l1.905-2.908c.18-.3.461-.46.842-.46h2.326c.22 0 .34.08.34.24 0 .08-.06.22-.16.38l-2.305 3.45c-.18.28-.261.48-.261.6 0 .141.08.342.26.603l2.467 3.89c.08.16.12.26.12.34 0 .22-.14.321-.42.321H7.257c-.28 0-.5-.02-.621-.1q-.18-.09-.361-.421L4.37 33.11zm11.973.3v-5.653c0-.2.04-.341.14-.442.1-.08.281-.14.542-.14h1.844c.24 0 .421.06.522.14.1.1.16.241.16.442v5.935q0 1.834-.902 2.646c-.642.562-1.765.843-3.409.843s-2.787-.281-3.408-.843q-.903-.812-.903-2.646v-5.935c0-.2.04-.341.14-.442.1-.08.281-.14.542-.14h1.845c.24 0 .42.06.52.14.101.1.161.241.161.442v5.654c0 .461.06.762.22.922.161.18.442.26.883.26.421 0 .722-.08.882-.26.14-.16.22-.46.22-.922m7.63-5.152h.061c.441-.722 1.183-1.083 2.246-1.083h.802c.2 0 .36.04.44.12s.141.221.141.441V29.2c0 .22-.04.361-.12.441q-.12.12-.421.12h-.602c-.742 0-1.243.141-1.524.422-.24.24-.34.701-.34 1.383v4.853c0 .2-.06.36-.16.44-.101.1-.282.141-.522.141H21.99c-.26 0-.441-.04-.541-.14-.1-.08-.14-.241-.14-.441v-8.682c0-.201.04-.341.14-.422s.28-.14.541-.14h.963c.22 0 .38.04.48.1q.151.12.241.361zm4.615 2.145v-.26c0-.983.261-1.725.782-2.246.602-.602 1.624-.902 3.048-.902h.2c1.123 0 2.106.12 2.928.36q.24.09.3.181c.04.08.06.18.04.34l-.22 1.645c-.04.26-.22.34-.541.26-.802-.18-1.524-.28-2.125-.28h-.02c-.442 0-.763.04-.923.12-.18.08-.26.22-.26.421v.06c0 .201.06.341.22.422s.461.18.922.26l.943.2c.862.201 1.483.502 1.844.903s.542 1.023.542 1.845v.3c0 2.106-1.324 3.149-3.93 3.149h-.2c-1.324 0-2.427-.181-3.35-.542-.18-.06-.3-.14-.34-.24-.04-.08-.04-.241 0-.462l.28-1.323c.06-.381.281-.501.682-.381.923.32 1.725.461 2.406.461h.06c.442 0 .743-.04.923-.14.16-.08.26-.24.26-.461v-.06c0-.16-.08-.301-.22-.382q-.24-.12-.962-.3l-.883-.2q-1.323-.302-1.864-.903c-.361-.401-.542-1.003-.542-1.845m17.848-2.626c-.28 1.884-.802 3.97-1.564 6.276a42.6 42.6 0 0 1-2.827 6.536c-.14.28-.32.421-.562.421-.16 0-.34-.04-.58-.16l-1.024-.441c-.36-.16-.52-.321-.52-.502 0-.08.02-.2.1-.34.681-1.384 1.082-2.186 1.162-2.407-.561-.2-.982-.641-1.303-1.363-.36-.802-.782-2.025-1.243-3.71q-.691-2.526-1.023-4.33c-.04-.2-.02-.341.08-.442.1-.08.281-.14.522-.14h1.824c.221 0 .381.04.482.1s.18.18.22.381c.461 2.527.983 4.772 1.564 6.717h.1c.562-1.604 1.083-3.81 1.564-6.656q.03-.301.18-.422c.101-.08.262-.12.462-.12h1.845c.22 0 .38.06.46.14s.101.241.081.462m10.652-.12h1.724c.28 0 .481.04.581.12s.18.24.22.48c0 .081.362 1.866 1.064 5.334h.06c.36-2.105.681-4.05.942-5.855.02-.22.08-.36.16-.44q.12-.12.422-.12h2.045c.22 0 .36.06.44.14.061.1.081.26.041.46-.32 1.565-.722 3.289-1.163 5.174-.441 1.884-.762 3.067-.962 3.569-.08.2-.18.34-.281.4-.1.06-.26.081-.461.081h-2.206c-.42 0-.682-.14-.762-.461-.38-1.364-.702-3.088-.982-5.173h-.08a55 55 0 0 1-1.003 5.173c-.08.32-.32.461-.722.461h-2.165c-.401 0-.662-.14-.762-.441-.2-.541-.542-1.785-1.023-3.71a93 93 0 0 1-1.123-5.072c-.06-.22-.04-.381.04-.462.08-.08.241-.14.482-.14h1.965c.2 0 .36.04.46.12.08.08.141.241.181.441.28 1.865.602 3.81.983 5.855h.08c.481-2.486.822-4.27.982-5.333.04-.26.1-.421.2-.501.101-.06.302-.1.623-.1m14.524 8.52h-.04c-.44.683-1.323 1.004-2.626 1.004h-.301c-1.023 0-1.825-.261-2.386-.782-.582-.522-.862-1.304-.862-2.306v-.22c0-1.084.3-1.866.922-2.307s1.624-.662 3.028-.662h.14a14 14 0 0 1 1.404.08v-.42c0-.421-.12-.722-.341-.883-.24-.14-.642-.22-1.203-.22-.682 0-1.444.12-2.326.34-.24.06-.421.06-.502 0-.1-.06-.16-.18-.18-.38l-.16-1.063c-.04-.18-.04-.32-.04-.4 0-.241.16-.422.48-.522a13 13 0 0 1 3.43-.441c1.543 0 2.646.34 3.288.982.501.521.762 1.364.762 2.506v5.956c0 .2-.06.36-.16.44s-.281.121-.522.121h-.942c-.241 0-.401-.02-.502-.08s-.18-.18-.24-.381zm-.721-2.566v-.561q-.332-.06-.963-.06h-.22q-.723 0-1.023.18c-.2.12-.28.361-.28.722v.08c0 .361.08.602.28.722.18.14.461.2.842.2h.14c.401 0 .702-.1.943-.3.18-.16.28-.501.28-.983m8.698.782h.641c.201 0 .361.06.442.14.08.101.14.282.14.542v1.243c0 .281-.06.461-.14.542-.08.1-.241.14-.442.14h-1.523c-1.003 0-1.705-.18-2.106-.581-.4-.381-.601-1.063-.601-2.026V24.007c0-.2.04-.34.14-.441.1-.08.28-.14.541-.14h1.845c.24 0 .421.06.522.14.1.1.16.24.16.441v10.005c0 .16.02.261.08.301.04.06.14.08.3.08m7.813-.982v-5.654c0-.2.04-.341.14-.442.1-.08.281-.14.542-.14h1.844c.241 0 .421.06.522.14.1.1.16.241.16.442v5.935q0 1.834-.902 2.646c-.642.562-1.765.843-3.409.843s-2.787-.281-3.408-.843q-.903-.812-.903-2.646v-5.935c0-.2.04-.341.14-.442.1-.08.281-.14.542-.14h1.845c.24 0 .42.06.521.14.1.1.16.241.16.442v5.654c0 .461.06.762.221.922.16.18.441.26.882.26.421 0 .722-.08.882-.26.14-.16.221-.46.221-.922m11.38 1.704v1.143c0 .3-.06.501-.14.602s-.26.14-.501.14h-1.604c-1.444 0-2.406-.24-2.847-.742-.401-.42-.582-1.223-.582-2.426v-4.15h-1.083c-.2 0-.32-.02-.4-.1-.08-.081-.101-.201-.101-.402v-1.022c0-.241.02-.401.1-.482.06-.08.2-.14.421-.2l1.063-.26V25.25c0-.2.04-.34.14-.44.1-.081.281-.141.542-.141h1.844c.241 0 .421.06.522.14.1.1.16.24.16.441v1.925h1.664c.2 0 .321.04.401.12s.12.221.12.462V29.1q0 .36-.12.481c-.08.08-.2.1-.4.1h-1.665v3.79c0 .361.04.582.16.702.12.14.382.2.783.2h.882c.24 0 .42.06.501.16.08.101.14.301.14.582M4.271 49.757v8.662c0 .2-.06.36-.16.44-.1.1-.281.141-.522.141H1.744c-.26 0-.44-.04-.541-.14-.1-.08-.14-.241-.14-.441v-8.662c0-.2.04-.341.14-.442.1-.08.28-.14.541-.14H3.59c.24 0 .421.06.521.14.1.1.16.241.16.442m-1.484-1.344h-.24c-1.083 0-1.625-.541-1.625-1.664v-.1c0-1.103.542-1.665 1.624-1.665h.241c1.083 0 1.624.562 1.624 1.665v.1c0 1.123-.541 1.664-1.624 1.664m11.117 6.697v3.309c0 .2-.06.36-.16.44-.101.1-.281.141-.522.141h-1.845c-.26 0-.44-.04-.541-.14-.1-.08-.14-.241-.14-.441V46.007c0-.2.04-.34.14-.441.1-.08.28-.14.541-.14h1.845c.24 0 .421.06.521.14.1.1.16.24.16.441v6.537h.141l1.905-2.908c.18-.3.461-.46.842-.46h2.326c.22 0 .34.08.34.24 0 .08-.06.22-.16.38l-2.306 3.45c-.18.28-.26.48-.26.6 0 .141.08.342.26.603l2.467 3.89c.08.16.12.26.12.34 0 .22-.14.321-.421.321h-2.226c-.28 0-.5-.02-.621-.1q-.18-.09-.361-.421l-1.905-3.369zm9.45-1.804v1.564c0 .782.12 1.283.361 1.523.18.2.461.281.842.281h.08c.361 0 .642-.08.843-.28.24-.241.36-.742.36-1.524v-1.564c0-.762-.12-1.284-.36-1.524-.2-.18-.482-.281-.843-.281h-.08c-.38 0-.661.1-.842.28-.24.241-.36.763-.36 1.525m5.715.12v1.303c0 1.003-.1 1.765-.301 2.326a2.87 2.87 0 0 1-.963 1.343c-.661.522-1.684.782-3.087.782h-.24c-1.405 0-2.447-.26-3.089-.782a2.87 2.87 0 0 1-.962-1.343c-.2-.561-.301-1.323-.301-2.326v-1.283c0-.983.1-1.744.3-2.306.201-.561.522-1.002.963-1.363.642-.522 1.685-.782 3.088-.782h.24c1.404 0 2.427.26 3.089.782.44.36.761.802.962 1.343.2.561.3 1.323.3 2.306m7.01-4.431h.16c1.163 0 2.026.28 2.547.822.481.521.742 1.403.742 2.646v5.956c0 .2-.06.36-.16.44-.1.1-.281.141-.522.141h-1.845c-.26 0-.44-.04-.541-.14-.1-.08-.14-.241-.14-.441v-5.675c0-.441-.08-.762-.221-.922-.16-.16-.461-.26-.882-.26h-.12c-.442 0-.722.1-.883.26-.16.16-.22.481-.22.922v5.675c0 .2-.06.36-.16.44-.101.1-.281.141-.522.141h-1.845c-.26 0-.44-.04-.541-.14-.1-.08-.14-.241-.14-.441v-8.682c0-.201.04-.341.14-.422s.28-.14.541-.14h.943c.24 0 .4.04.501.1q.15.09.24.361l.12.381h.061c.642-.681 1.544-1.022 2.747-1.022m11.635 8.12v1.143c0 .3-.06.501-.14.602s-.261.14-.502.14h-1.604c-1.444 0-2.406-.24-2.847-.742-.401-.42-.582-1.223-.582-2.426v-4.15h-1.083c-.2 0-.32-.02-.4-.1-.08-.081-.1-.201-.1-.402v-1.022c0-.241.02-.401.1-.482.06-.08.2-.14.42-.2l1.063-.26V47.25c0-.2.04-.34.14-.44.1-.081.281-.141.542-.141h1.845c.24 0 .42.06.52.14.101.1.161.24.161.441v1.925h1.664c.201 0 .321.04.401.12s.12.221.12.462V51.1q0 .36-.12.481c-.08.08-.2.1-.4.1h-1.665v3.79c0 .361.04.582.16.702.12.14.382.2.783.2h.882c.24 0 .42.06.501.16.08.101.14.301.14.582m4.424-3.81v1.565c0 .782.12 1.283.361 1.523.18.2.461.281.842.281h.08c.361 0 .642-.08.843-.28.24-.241.36-.742.36-1.524v-1.564c0-.762-.12-1.284-.36-1.524-.201-.18-.482-.281-.843-.281h-.08c-.38 0-.662.1-.842.28-.24.241-.36.763-.36 1.525m5.715.12v1.304c0 1.003-.1 1.765-.301 2.326a2.87 2.87 0 0 1-.963 1.343c-.661.522-1.684.782-3.087.782h-.241c-1.404 0-2.446-.26-3.088-.782a2.87 2.87 0 0 1-.962-1.343c-.2-.561-.301-1.323-.301-2.326v-1.283c0-.983.1-1.744.3-2.306.201-.561.522-1.002.963-1.363.642-.522 1.684-.782 3.088-.782h.24c1.404 0 2.427.26 3.088.782.442.36.762.802.963 1.343.2.561.3 1.323.3 2.306m9.332-1.703h-3.188c-.2 0-.341-.02-.421-.1s-.1-.241-.1-.482v-1.383c0-.241.02-.381.1-.462q.12-.12.42-.12h6.778c.2 0 .34.04.441.12.08.08.14.241.14.462v.38c0 .522-.16 1.003-.44 1.424l-3.45 4.892h3.43c.2 0 .32.04.4.12.08.081.12.221.12.462v1.384q0 .36-.12.48c-.08.08-.2.101-.4.101h-6.898c-.421 0-.622-.18-.622-.581v-.462c0-.521.14-.982.441-1.423zm11.377 6.456h-.04c-.442.682-1.324 1.003-2.627 1.003h-.3c-1.023 0-1.825-.261-2.387-.782-.581-.522-.862-1.304-.862-2.306v-.22c0-1.084.3-1.866.922-2.307s1.624-.662 3.028-.662h.14a14 14 0 0 1 1.404.08v-.42c0-.421-.12-.722-.341-.883-.24-.14-.642-.22-1.203-.22-.682 0-1.444.12-2.326.34-.24.06-.421.06-.501 0-.1-.06-.16-.18-.18-.38l-.161-1.063c-.04-.18-.04-.32-.04-.4 0-.241.16-.422.481-.522a13 13 0 0 1 3.429-.441c1.544 0 2.646.34 3.288.982.501.521.762 1.364.762 2.507v5.955c0 .2-.06.36-.16.44s-.281.121-.522.121h-.942c-.24 0-.401-.02-.501-.08s-.18-.18-.241-.381zm-.722-2.567v-.561q-.33-.06-.963-.06h-.22q-.722 0-1.023.18c-.2.12-.28.361-.28.722v.08c0 .361.08.602.28.722.18.14.462.2.842.2h.14c.402 0 .703-.1.943-.3.18-.16.28-.501.28-.983m21.786-5.57v2.124c0 2.295-.489 4.052-1.44 5.248-.977 1.22-2.588 1.807-4.834 1.807s-3.856-.586-4.833-1.807c-.976-1.196-1.44-2.953-1.44-5.248v-2.123c0-2.295.464-4.028 1.44-5.248.977-1.197 2.588-1.807 4.833-1.807s3.857.61 4.833 1.806c.952 1.221 1.44 2.954 1.44 5.249m-4.175 1.71v-1.294c0-1.587-.146-2.685-.39-3.271s-.806-.904-1.66-.904h-.097c-.88.025-1.44.318-1.685.904-.244.586-.366 1.684-.366 3.27v1.294c0 1.611.122 2.685.366 3.271s.806.903 1.685.903h.097c.854 0 1.416-.292 1.66-.878s.39-1.685.39-3.296m15.498-1.612h-3.882c-.244 0-.414-.024-.512-.122-.098-.097-.122-.293-.122-.586v-1.684c0-.293.024-.464.122-.561q.147-.147.512-.147h8.251c.244 0 .415.05.537.147.098.097.171.293.171.561v.464c0 .635-.195 1.22-.537 1.733L111.29 55.9h4.174c.245 0 .391.049.489.146.097.098.146.269.146.562v1.684q0 .44-.146.586c-.098.098-.244.122-.489.122h-8.397c-.512 0-.756-.22-.756-.708v-.561c0-.635.171-1.196.537-1.733zm11.873 5.688h.781c.244 0 .439.073.537.17.097.123.171.342.171.66v1.513c0 .342-.074.561-.171.66-.098.121-.293.17-.537.17h-1.855c-1.221 0-2.075-.22-2.563-.708-.489-.464-.733-1.294-.733-2.465V53.19l-.805.512c-.318.195-.537.293-.635.293-.195 0-.268-.147-.268-.44v-2.27c0-.244.024-.414.122-.537.073-.097.219-.244.463-.415l1.123-.707v-6.445c0-.244.049-.415.171-.537.122-.097.342-.17.659-.17h2.246c.293 0 .513.073.635.17.122.122.195.293.195.537v3.955l1.098-.708c.293-.195.513-.293.635-.293.171 0 .268.146.268.44v2.27c0 .244-.048.439-.122.537a2 2 0 0 1-.463.414l-1.416.904v4.662c0 .195.024.317.098.366.048.073.17.098.366.098M4.231 72.885v2.566c0 .461.08.782.28.962.16.18.462.261.903.261h.18c.461 0 .782-.12.983-.4q.24-.362.24-1.745v-.862c0-1.003-.1-1.625-.26-1.825-.18-.2-.522-.321-1.003-.321h-.08c-.461 0-.782.1-.983.3-.18.181-.26.542-.26 1.064m0-3.349h.04q.871-.54 2.286-.541h.18c1.203 0 2.085.36 2.627 1.082.44.622.681 1.725.681 3.309v1.443c0 1.605-.34 2.727-1.022 3.349-.722.682-1.865 1.002-3.429 1.002h-.4c-1.645 0-2.768-.32-3.37-.982-.54-.581-.801-1.524-.801-2.847v-9.344c0-.2.04-.34.14-.441.08-.08.26-.14.521-.14H3.55c.24 0 .421.06.521.14.1.1.16.24.16.441zm12.314 7.058h.22a8.8 8.8 0 0 0 2.126-.26c.2-.04.32-.06.38-.06.201 0 .321.12.361.34l.16 1.002c.04.281.081.462.081.542 0 .24-.18.42-.521.541-.923.321-1.945.481-3.028.481h-.38q-2.467 0-3.49-1.022a2.9 2.9 0 0 1-.802-1.364c-.14-.52-.2-1.223-.2-2.085v-1.123c0-1.744.4-2.967 1.203-3.69.681-.6 1.724-.901 3.148-.901h.28c1.404 0 2.427.34 3.028 1.002.642.722.963 1.905.963 3.59v1.042c0 .38-.201.561-.582.561H14.68v.16c0 .482.12.803.4.983.262.18.743.26 1.465.26m-1.865-3.489h2.206c.16 0 .24-.08.24-.26v-.321c0-.401-.08-.702-.2-.923-.16-.24-.482-.36-.923-.36h-.18c-.401 0-.682.1-.842.28q-.3.36-.301 1.083zm10.367-1.383h-3.188c-.201 0-.341-.02-.422-.1s-.1-.241-.1-.482v-1.383c0-.241.02-.381.1-.462q.12-.12.422-.12h6.777c.2 0 .34.04.44.12.081.08.141.241.141.462v.38c0 .522-.16 1.003-.44 1.424l-3.45 4.892h3.429c.2 0 .32.04.401.12.08.081.12.221.12.462v1.383q0 .361-.12.482c-.08.08-.2.1-.401.1h-6.897c-.422 0-.622-.18-.622-.582v-.46c0-.522.14-.983.441-1.424zm15.062-2.066h1.724c.281 0 .482.04.582.12s.18.241.22.482c0 .08.361 1.865 1.063 5.333h.06c.361-2.105.682-4.05.942-5.854.02-.221.08-.361.16-.442q.121-.12.422-.12h2.045c.22 0 .361.06.441.14.06.1.08.261.04.462-.32 1.564-.721 3.288-1.163 5.173-.44 1.885-.762 3.067-.962 3.569-.08.2-.18.34-.28.4s-.261.081-.462.081h-2.205c-.421 0-.682-.14-.762-.461-.381-1.364-.702-3.088-.983-5.173h-.08a55 55 0 0 1-1.003 5.173c-.08.32-.32.461-.721.461H37.02c-.401 0-.662-.14-.762-.441-.2-.541-.541-1.785-1.023-3.71a93 93 0 0 1-1.122-5.072c-.06-.22-.04-.381.04-.462.08-.08.24-.14.481-.14H36.6c.2 0 .36.04.461.12.08.08.14.241.18.442.281 1.864.602 3.81.983 5.854h.08c.481-2.486.822-4.27.983-5.333.04-.26.1-.421.2-.501.1-.06.301-.1.622-.1m14.525 8.522h-.04c-.441.682-1.324 1.002-2.627 1.002h-.3c-1.023 0-1.825-.26-2.387-.782-.581-.52-.862-1.303-.862-2.305v-.22c0-1.084.3-1.866.922-2.307s1.624-.662 3.028-.662h.14a14 14 0 0 1 1.404.08v-.42c0-.421-.12-.722-.34-.883-.242-.14-.643-.22-1.204-.22-.682 0-1.444.12-2.326.34-.24.06-.42.06-.501 0-.1-.06-.16-.18-.18-.38l-.16-1.063c-.041-.18-.041-.32-.041-.4 0-.242.16-.422.481-.522a13 13 0 0 1 3.429-.441c1.544 0 2.647.34 3.288.982.502.521.762 1.364.762 2.507v5.955c0 .2-.06.36-.16.44s-.281.121-.522.121h-.942c-.24 0-.401-.02-.501-.08s-.18-.18-.24-.381zm-.722-2.567v-.561a6 6 0 0 0-.962-.06h-.221q-.721 0-1.023.18c-.2.12-.28.361-.28.722v.08c0 .361.08.602.28.722.18.14.462.2.843.2h.14c.4 0 .702-.1.942-.3.18-.16.281-.501.281-.983m7.636-5.353h.06c.44-.722 1.183-1.083 2.246-1.083h.802c.2 0 .36.04.44.12s.141.221.141.442V71.2c0 .22-.04.361-.12.441q-.12.12-.421.12h-.602c-.742 0-1.243.141-1.524.422-.24.24-.34.701-.34 1.383v4.852c0 .201-.06.361-.161.442-.1.1-.28.14-.521.14h-1.845c-.26 0-.441-.04-.541-.14-.1-.08-.14-.241-.14-.442v-8.681c0-.201.04-.341.14-.422s.28-.14.541-.14h.962c.221 0 .381.04.482.1q.15.12.24.361zm10.148 5.153v-5.654c0-.2.04-.341.14-.442.1-.08.281-.14.542-.14h1.845c.24 0 .42.06.52.14.101.1.161.241.161.442v5.935q0 1.834-.902 2.646c-.642.562-1.764.843-3.409.843s-2.787-.281-3.408-.843q-.903-.811-.903-2.646v-5.935c0-.2.04-.341.14-.442.101-.08.282-.14.542-.14h1.845c.24 0 .42.06.521.14.1.1.16.241.16.442v5.654c0 .461.06.762.221.922.16.18.441.26.882.26.421 0 .722-.08.883-.26.14-.16.22-.46.22-.922m10.398-6.416h.16c1.163 0 2.026.28 2.547.822.481.521.742 1.403.742 2.646v5.956c0 .2-.06.36-.16.44-.1.1-.281.141-.522.141h-1.845c-.26 0-.44-.04-.54-.14-.101-.08-.141-.241-.141-.442v-5.674c0-.441-.08-.762-.22-.922-.161-.16-.462-.26-.883-.26h-.12c-.441 0-.722.1-.883.26-.16.16-.22.481-.22.922v5.674c0 .201-.06.361-.16.442-.1.1-.281.14-.522.14h-1.845c-.26 0-.44-.04-.541-.14-.1-.08-.14-.241-.14-.442v-8.681c0-.201.04-.341.14-.422s.28-.14.541-.14h.943c.24 0 .4.04.501.1q.15.09.24.361l.121.381h.06c.642-.681 1.544-1.022 2.747-1.022m8.567 6.115v3.308c0 .201-.06.361-.16.442-.1.1-.281.14-.522.14h-1.845c-.26 0-.44-.04-.54-.14-.101-.08-.141-.241-.141-.442v-12.41c0-.201.04-.342.14-.442.1-.08.28-.14.541-.14h1.845c.24 0 .421.06.521.14.1.1.16.24.16.441v6.537h.141l1.905-2.908c.18-.3.461-.46.842-.46h2.326c.22 0 .34.08.34.24 0 .08-.06.22-.16.38l-2.305 3.45c-.18.28-.261.48-.261.6 0 .141.08.342.26.602l2.467 3.89c.08.16.12.261.12.341 0 .22-.14.321-.42.321h-2.227c-.28 0-.5-.02-.621-.1q-.18-.09-.361-.421l-1.905-3.369zm9.45-1.804v1.564c0 .781.121 1.283.361 1.523.181.2.461.281.842.281h.081c.361 0 .641-.08.842-.28.24-.241.361-.743.361-1.525v-1.563c0-.762-.121-1.284-.361-1.524-.201-.18-.481-.281-.842-.281h-.081c-.381 0-.661.1-.842.28-.24.241-.361.763-.361 1.525m5.715.12v1.303c0 1.003-.1 1.765-.301 2.326a2.87 2.87 0 0 1-.962 1.343c-.662.522-1.685.782-3.088.782h-.241c-1.403 0-2.446-.26-3.088-.782a2.87 2.87 0 0 1-.962-1.343c-.2-.561-.3-1.323-.3-2.326v-1.283c0-.983.1-1.745.3-2.306s.521-1.002.962-1.363c.642-.522 1.685-.782 3.088-.782h.241c1.403 0 2.426.26 3.088.782.441.36.762.802.962 1.343.201.561.301 1.323.301 2.306m-6.116-6.898 3.148-2.686a.56.56 0 0 1 .381-.18c.141 0 .281.1.401.26l.963 1.243c.08.12.12.22.12.34 0 .161-.12.322-.321.482l-3.168 2.166c-.14.1-.281.14-.401.14-.16 0-.321-.08-.481-.28l-.602-.703c-.16-.18-.22-.34-.22-.46 0-.121.06-.241.18-.322m12.966 3.128h1.724c.281 0 .481.04.582.12s.18.241.22.482c0 .08.361 1.865 1.063 5.333h.06c.361-2.105.682-4.05.942-5.854.02-.221.081-.361.161-.442q.12-.12.421-.12h2.045c.221 0 .361.06.441.14.06.1.08.261.04.462a200 200 0 0 1-1.163 5.173c-.441 1.885-.762 3.067-.962 3.569-.08.2-.181.34-.281.4s-.261.081-.461.081h-2.206c-.421 0-.681-.14-.762-.461-.381-1.364-.701-3.088-.982-5.173h-.08a55 55 0 0 1-1.003 5.173c-.08.32-.321.461-.722.461h-2.165c-.401 0-.662-.14-.762-.441-.201-.541-.541-1.785-1.023-3.71a93 93 0 0 1-1.122-5.072c-.061-.22-.041-.381.04-.462.08-.08.24-.14.481-.14h1.965c.2 0 .361.04.461.12.08.08.14.241.18.442.281 1.864.602 3.81.983 5.854h.08c.481-2.486.822-4.27.983-5.333.04-.26.1-.421.2-.501.1-.06.301-.1.622-.1"/></svg>