<svg xmlns="http://www.w3.org/2000/svg" fill="none" viewBox="0 0 140 88"><path fill="#fff" d="M3.296 8.532c.663-.644 1.61-.985 2.823-.985h.17c1.175 0 2.008.341 2.52.985.455.606.682 1.63.682 3.107v1.42c0 .796-.076 1.46-.19 1.952-.132.492-.36.91-.681 1.231-.645.625-1.516.928-2.653.928H5.76q-1.08 0-1.762-.397v2.917c0 .284-.057.474-.151.55-.114.075-.322.113-.644.113h-1.44c-.322 0-.53-.038-.644-.133-.114-.075-.152-.265-.152-.53V8.324c0-.228.038-.38.152-.474.094-.076.265-.133.511-.133h.796c.227 0 .398.038.492.076.076.057.152.17.209.322l.132.417zm.701 2.69v2.425c0 .436.076.739.265.91.17.17.455.245.853.245h.17c.436 0 .74-.113.929-.378q.227-.341.227-1.649v-.814c0-.91-.076-1.478-.227-1.686-.19-.227-.493-.341-.948-.341h-.132c-.417 0-.701.095-.89.284-.171.17-.247.512-.247 1.004m10.517 3.315h.606c.19 0 .34.057.417.133.075.095.132.265.132.511v1.175c0 .265-.057.436-.132.511-.076.095-.228.133-.417.133h-1.44c-.947 0-1.61-.17-1.99-.55-.378-.36-.567-1.003-.567-1.913V4.724c0-.19.038-.322.132-.416.095-.076.265-.133.512-.133h1.743c.227 0 .397.057.492.133.095.094.152.227.152.416v9.453c0 .152.019.247.075.284.038.057.133.076.285.076m7.381-.928V8.267c0-.19.038-.322.133-.417.095-.076.265-.133.512-.133h1.742c.228 0 .398.057.493.133.095.095.151.227.151.417v5.607q0 1.735-.852 2.5c-.606.531-1.667.797-3.22.797s-2.634-.266-3.221-.796q-.852-.768-.852-2.5V8.266c0-.19.037-.322.132-.417.095-.076.265-.133.512-.133h1.742c.228 0 .398.057.493.133.095.095.151.227.151.417v5.342c0 .436.057.72.209.871.152.171.417.247.833.247.398 0 .682-.076.834-.247.133-.151.208-.435.208-.871m4.577-2.842v-.246c0-.928.246-1.629.739-2.122.568-.568 1.534-.852 2.88-.852h.188c1.061 0 1.99.114 2.766.341q.228.086.285.17c.037.076.056.17.037.322l-.208 1.554c-.038.246-.208.322-.511.246-.758-.17-1.44-.265-2.009-.265h-.018c-.417 0-.72.038-.872.114-.17.075-.246.208-.246.397v.057c0 .19.057.322.208.398.152.076.436.17.872.246l.89.19c.815.19 1.402.473 1.743.852.34.38.511.966.511 1.743v.284c0 1.99-1.25 2.975-3.713 2.975h-.19c-1.25 0-2.291-.171-3.163-.512-.17-.057-.284-.133-.322-.227-.038-.076-.038-.228 0-.436l.265-1.25c.057-.36.266-.474.645-.36.87.303 1.629.435 2.273.435h.057c.416 0 .7-.037.871-.132.152-.076.246-.228.246-.436v-.057a.41.41 0 0 0-.208-.36q-.228-.113-.91-.284l-.833-.19q-1.25-.284-1.762-.852c-.34-.379-.511-.947-.511-1.743m16.877 3.77h.607c.189 0 .34.057.416.133.076.095.133.265.133.511v1.175c0 .265-.057.436-.133.511-.075.095-.227.133-.416.133h-1.44c-.947 0-1.61-.17-1.99-.55-.378-.36-.568-1.003-.568-1.913v-2.046l-.625.398c-.246.152-.416.228-.492.228-.152 0-.209-.114-.209-.342v-1.761c0-.19.02-.322.095-.417.057-.076.17-.19.36-.322l.871-.55v-5c0-.19.038-.323.133-.417.095-.076.265-.133.511-.133h1.743c.228 0 .398.057.493.133.095.094.151.227.151.416v3.07l.853-.55c.227-.152.398-.227.492-.227.133 0 .209.113.209.34V9.12c0 .19-.038.341-.095.417-.076.095-.19.208-.36.322l-1.099.701v3.618c0 .152.02.247.076.284.038.057.133.076.284.076m7.88 1.686h-.038c-.416.644-1.25.948-2.481.948h-.284c-.967 0-1.724-.247-2.255-.74-.55-.492-.814-1.23-.814-2.178v-.208c0-1.023.284-1.762.871-2.179s1.535-.625 2.86-.625h.133c.493 0 .948.038 1.326.076v-.398c0-.398-.113-.682-.322-.834-.227-.132-.606-.208-1.136-.208-.644 0-1.364.114-2.198.322-.227.057-.398.057-.473 0-.095-.057-.152-.17-.17-.36l-.152-1.004c-.038-.19-.038-.322-.038-.379 0-.227.151-.398.454-.492a12.2 12.2 0 0 1 3.24-.417c1.458 0 2.5.322 3.106.928.474.493.72 1.288.72 2.368v5.627c0 .284-.113.454-.303.53-.473.19-.871.455-1.174.796-.322.34-.474.7-.474 1.06v.057q0 .512.512.512h.056c.228 0 .512-.038.815-.152.095-.019.17-.038.227-.038.095 0 .17.095.228.247l.094.398c.057.265.095.397.095.435 0 .114-.095.209-.265.284a4.2 4.2 0 0 1-1.535.285h-.113c-.644 0-1.156-.133-1.497-.417-.34-.284-.511-.682-.511-1.175v-.095c0-.454.151-.89.473-1.307.303-.416.72-.757 1.213-1.023zm-.682-2.424v-.531a5.5 5.5 0 0 0-.909-.057h-.208q-.682 0-.966.17c-.19.114-.266.342-.266.683v.075c0 .341.076.569.266.682.17.133.435.19.795.19h.133c.379 0 .663-.095.89-.284.17-.152.265-.474.265-.928m9.259.928h.151c.512 0 1.061-.076 1.648-.247a2.4 2.4 0 0 1 .36-.056c.19 0 .303.113.341.322l.17.966c.039.265.077.436.077.511 0 .228-.171.398-.493.512-.834.303-1.743.436-2.728.436h-.227c-1.364 0-2.368-.304-2.993-.948q-.967-.966-.967-3.24v-1.098c0-.89.076-1.591.228-2.084q.227-.738.739-1.25c.663-.663 1.704-1.004 3.125-1.004h.19c1.136 0 2.121.208 2.917.625.227.133.36.284.36.474 0 .113-.057.303-.151.568l-.36.91q-.143.34-.398.34a.8.8 0 0 1-.341-.094c-.607-.247-1.175-.38-1.686-.38h-.076c-.493 0-.852.133-1.08.36-.284.285-.417.872-.417 1.744v.644c0 .776.114 1.307.38 1.59.245.266.662.399 1.23.399m7.333-4.604h-3.012c-.19 0-.322-.019-.398-.094-.076-.076-.095-.228-.095-.455V8.267c0-.227.02-.36.095-.436q.113-.114.398-.114h6.403c.19 0 .322.038.417.114.075.076.132.227.132.436v.36c0 .492-.151.947-.417 1.345l-3.258 4.622h3.24c.189 0 .303.038.378.114s.114.208.114.435v1.308q0 .34-.114.454c-.075.076-.19.095-.379.095h-6.516c-.398 0-.587-.17-.587-.55v-.435c0-.493.132-.928.416-1.345zm10.275-2.576h.152c1.099 0 1.913.265 2.406.777.454.492.7 1.326.7 2.5v5.627c0 .19-.056.34-.151.416-.095.095-.265.133-.493.133h-1.742c-.247 0-.417-.038-.512-.133-.095-.075-.133-.227-.133-.416v-5.362c0-.416-.075-.72-.208-.87-.151-.152-.436-.247-.833-.247h-.114c-.417 0-.682.095-.834.246-.151.152-.208.455-.208.871v5.362c0 .19-.057.34-.152.416-.094.095-.265.133-.492.133h-1.743c-.246 0-.417-.038-.511-.133-.095-.075-.133-.227-.133-.416V8.248c0-.19.038-.322.133-.398.094-.076.265-.133.511-.133h.89c.228 0 .38.038.474.095q.142.085.227.341l.114.36h.057c.606-.644 1.459-.966 2.595-.966m8.132.72v8.184c0 .19-.057.34-.152.416-.094.095-.265.133-.492.133h-1.743c-.246 0-.417-.038-.512-.133-.094-.075-.132-.227-.132-.416V8.267c0-.19.038-.322.132-.417.095-.076.266-.133.512-.133h1.743c.227 0 .398.057.492.133.095.095.152.227.152.417m-1.402-1.27h-.227c-1.023 0-1.535-.51-1.535-1.572v-.094c0-1.042.512-1.573 1.535-1.573h.227c1.023 0 1.534.53 1.534 1.573v.094c0 1.061-.511 1.573-1.534 1.573m7.874 7.73h.208c.644 0 1.326-.076 2.008-.247.19-.037.303-.056.36-.056.19 0 .303.113.34.322l.153.947c.037.265.075.436.075.511 0 .228-.17.398-.492.512-.872.303-1.838.454-2.86.454h-.36q-2.331 0-3.297-.966a2.7 2.7 0 0 1-.758-1.288c-.132-.492-.19-1.155-.19-1.97v-1.06c0-1.649.38-2.805 1.137-3.487.645-.568 1.63-.852 2.975-.852h.265c1.326 0 2.292.322 2.86.947.607.682.91 1.8.91 3.391v.985c0 .36-.19.53-.55.53h-4.546v.152c0 .455.113.758.379.928.246.171.7.247 1.383.247m-1.762-3.296h2.084c.151 0 .227-.076.227-.247v-.303c0-.379-.076-.663-.19-.871-.151-.228-.454-.341-.87-.341h-.171c-.38 0-.644.094-.796.265q-.284.34-.284 1.023zM6.366 33.836h.184c.738 0 1.36-.138 1.89-.415v-.323c0-1.268-.138-2.122-.391-2.56-.254-.438-.715-.669-1.407-.669h-.208q-1.73 0-1.73 1.868v.208c0 .692.116 1.176.393 1.453.276.3.692.438 1.268.438M2.19 41.539c-.277-.093-.392-.254-.392-.53q0-.139.069-.416l.369-1.476c.092-.369.369-.507.784-.392 1.107.346 2.076.508 2.906.508h.07c.83 0 1.406-.208 1.775-.67q.554-.656.623-2.075c-.761.323-1.592.461-2.491.461H5.65c-1.637 0-2.813-.392-3.551-1.222-.738-.807-1.084-2.052-1.084-3.713v-.323c0-1.476.438-2.652 1.337-3.528.9-.854 2.214-1.292 3.944-1.292h.323c2.075 0 3.551.554 4.382 1.614s1.268 2.814 1.268 5.259v.553c0 1.315-.115 2.445-.346 3.413-.23.969-.53 1.753-.9 2.307a4.2 4.2 0 0 1-1.406 1.36c-.554.346-1.107.577-1.66.67-.554.114-1.2.16-1.915.16H6.02c-1.337 0-2.629-.207-3.828-.668m27.326-6.734v6.526c0 .23-.07.415-.185.508-.115.115-.323.161-.6.161h-2.121c-.3 0-.508-.046-.623-.161-.115-.093-.161-.277-.161-.508v-6.526c0-.508-.093-.877-.254-1.061-.184-.185-.53-.3-1.015-.3h-.046c-.507 0-.83.115-1.015.3-.184.184-.253.553-.253 1.06v6.527c0 .23-.07.415-.185.508-.115.115-.323.161-.6.161h-2.121c-.3 0-.507-.046-.623-.161-.115-.093-.161-.277-.161-.508v-9.986c0-.23.046-.392.161-.484.116-.092.323-.162.623-.162h1.084c.277 0 .461.047.576.116q.174.103.277.415l.139.438h.069c.738-.784 1.776-1.176 3.16-1.176h.091c1.315 0 2.33.369 3.045 1.06.738-.691 1.799-1.06 3.136-1.06h.093c1.337 0 2.329.323 2.928.945.554.6.854 1.615.854 3.045v6.85c0 .23-.07.414-.185.507-.115.115-.323.161-.6.161h-2.121c-.3 0-.508-.046-.623-.161-.115-.093-.161-.277-.161-.508v-6.526c0-.508-.093-.877-.254-1.061-.184-.185-.53-.3-1.015-.3h-.046c-.507 0-.83.115-1.015.3-.184.184-.253.553-.253 1.06m12.196-3.437v9.963c0 .23-.07.415-.185.508-.115.115-.323.161-.6.161h-2.121c-.3 0-.508-.046-.623-.161-.115-.093-.161-.277-.161-.508v-9.963c0-.23.046-.392.161-.507.116-.092.323-.162.623-.162h2.122c.276 0 .484.07.6.162.114.115.184.277.184.507m-1.707-1.545h-.277c-1.245 0-1.868-.622-1.868-1.914v-.115c0-1.269.623-1.915 1.868-1.915h.277c1.245 0 1.868.646 1.868 1.915v.115c0 1.292-.623 1.914-1.868 1.914m9.585 9.41h.254c.784 0 1.614-.093 2.445-.3.23-.046.369-.07.438-.07.23 0 .369.139.415.393l.184 1.153c.047.323.093.53.093.622 0 .277-.208.485-.6.623-1.06.37-2.237.554-3.482.554h-.439q-2.836 0-4.012-1.177a3.3 3.3 0 0 1-.923-1.568c-.161-.6-.23-1.407-.23-2.398v-1.292c0-2.006.46-3.413 1.383-4.243.784-.692 1.984-1.038 3.621-1.038h.323c1.614 0 2.79.392 3.482 1.153.738.83 1.107 2.191 1.107 4.128v1.2c0 .438-.23.645-.669.645h-5.535v.185c0 .553.139.922.462 1.13.3.207.853.3 1.683.3m-2.145-4.013h2.537c.185 0 .277-.093.277-.3v-.37c0-.46-.092-.806-.23-1.06-.185-.277-.554-.415-1.061-.415h-.208c-.461 0-.784.115-.969.323q-.346.415-.346 1.245zm7.865-.807v-.3c0-1.13.3-1.984.9-2.583.692-.692 1.868-1.038 3.505-1.038h.23c1.292 0 2.422.138 3.368.415q.276.105.346.208c.046.092.069.207.046.392l-.254 1.89c-.046.3-.253.393-.622.3-.923-.207-1.753-.322-2.445-.322h-.023c-.508 0-.876.046-1.061.138-.208.092-.3.254-.3.484v.07c0 .23.07.392.254.484s.53.207 1.06.3l1.085.23c.991.231 1.706.577 2.121 1.038s.623 1.176.623 2.122v.346c0 2.421-1.522 3.62-4.52 3.62h-.23c-1.523 0-2.791-.207-3.852-.622-.208-.07-.346-.162-.392-.277-.046-.092-.046-.277 0-.53l.323-1.522c.069-.439.323-.577.784-.439 1.06.37 1.983.53 2.767.53h.07c.507 0 .853-.045 1.06-.16.185-.093.3-.277.3-.531v-.07a.5.5 0 0 0-.254-.437q-.276-.14-1.107-.346l-1.014-.23q-1.522-.348-2.145-1.039c-.415-.461-.623-1.153-.623-2.121m14.486-3.045v9.963c0 .23-.069.415-.184.508-.116.115-.323.161-.6.161h-2.122c-.3 0-.507-.046-.622-.161-.116-.093-.162-.277-.162-.508v-9.963c0-.23.046-.392.162-.507.115-.092.323-.162.622-.162h2.122c.277 0 .484.07.6.162.115.115.184.277.184.507m-1.706-1.545h-.277c-1.245 0-1.868-.622-1.868-1.914v-.115c0-1.269.623-1.915 1.868-1.915h.277c1.245 0 1.868.646 1.868 1.915v.115c0 1.292-.623 1.914-1.868 1.914m9.585 9.41h.254c.784 0 1.614-.093 2.444-.3.23-.046.37-.07.438-.07.23 0 .37.139.415.393l.185 1.153c.046.323.092.53.092.622 0 .277-.207.485-.6.623-.6.23-1.083.6-1.475 1.107s-.577 1.015-.577 1.476v.07c0 .437.208.645.623.645h.115c.254 0 .577-.046.945-.184.116-.024.208-.047.277-.047.116 0 .208.116.277.3l.115.484c.07.323.116.485.116.53 0 .14-.116.255-.323.347a5.2 5.2 0 0 1-1.868.346h-.139c-.807 0-1.406-.162-1.822-.508-.415-.346-.622-.83-.622-1.476v-.069c0-.415.138-.876.438-1.337.3-.462.692-.83 1.2-1.154-.185.024-.439.024-.762.024h-.438q-2.837 0-4.013-1.177a3.3 3.3 0 0 1-.922-1.568c-.162-.6-.231-1.407-.231-2.398v-1.292c0-2.006.461-3.413 1.384-4.243.784-.692 1.983-1.038 3.62-1.038h.323c1.615 0 2.79.392 3.483 1.153.738.83 1.107 2.191 1.107 4.128v1.2c0 .438-.23.645-.669.645h-5.535v.185c0 .553.138.922.461 1.13.3.207.854.3 1.684.3M75.53 35.22h2.537c.184 0 .277-.093.277-.3v-.37c0-.46-.093-.806-.231-1.06-.184-.277-.553-.415-1.06-.415h-.208c-.462 0-.785.115-.969.323q-.346.415-.346 1.245zM89 39.233h.184c.623 0 1.292-.093 2.007-.3.23-.046.369-.07.438-.07.23 0 .369.139.415.393l.208 1.176c.046.323.092.53.092.622 0 .277-.208.485-.6.623-1.014.37-2.121.53-3.32.53h-.277c-1.66 0-2.883-.368-3.644-1.153q-1.176-1.176-1.176-3.943v-1.338c0-1.084.092-1.937.276-2.537q.278-.9.9-1.522c.807-.807 2.075-1.222 3.805-1.222h.23c1.384 0 2.584.254 3.552.761.277.161.438.346.438.577 0 .138-.069.369-.184.691l-.438 1.107q-.174.416-.485.416a.94.94 0 0 1-.415-.116c-.738-.3-1.43-.461-2.052-.461h-.092c-.6 0-1.038.161-1.315.438-.346.346-.507 1.061-.507 2.122v.784c0 .946.138 1.591.46 1.937.3.323.808.485 1.5.485m15.352-7.842c-.323 2.168-.923 4.567-1.799 7.219a49 49 0 0 1-3.252 7.518c-.161.323-.369.484-.645.484-.185 0-.393-.046-.67-.184l-1.175-.507c-.416-.185-.6-.37-.6-.577 0-.092.023-.23.115-.392.784-1.591 1.246-2.514 1.338-2.767-.646-.231-1.13-.739-1.5-1.569-.414-.922-.899-2.329-1.429-4.266q-.795-2.906-1.176-4.982c-.046-.23-.023-.392.092-.507.115-.092.323-.162.6-.162h2.098c.254 0 .439.047.554.116s.207.207.253.438c.531 2.906 1.13 5.489 1.8 7.726h.115c.645-1.845 1.245-4.382 1.799-7.657q.034-.345.207-.484c.115-.092.3-.139.531-.139h2.121c.254 0 .438.07.531.162.092.092.115.277.092.53M5.058 63.171h-.227c-1.326 0-2.482-.171-3.467-.53-.417-.133-.606-.38-.53-.759l.246-1.534c.038-.379.265-.512.663-.379 1.099.398 2.122.587 3.03.587h.096c.568 0 .985-.075 1.231-.246.227-.152.36-.436.36-.834v-.189c0-.379-.114-.625-.303-.777-.209-.132-.606-.265-1.194-.379l-1.288-.246c-1.06-.19-1.818-.568-2.235-1.099-.436-.53-.644-1.269-.644-2.235v-.53c0-1.061.284-1.857.852-2.425.682-.682 1.951-1.023 3.77-1.023h.133c1.269 0 2.349.17 3.22.492.19.076.322.19.379.303.038.133.038.322-.019.55L8.809 53.3c-.076.34-.322.454-.701.322q-1.307-.398-2.5-.398h-.076c-.626 0-1.061.076-1.289.208-.246.152-.36.398-.36.74v.17c0 .303.076.53.247.644.151.132.492.246.985.34l1.44.285c1.136.227 1.913.587 2.349 1.042.416.454.644 1.25.644 2.368v.454c0 1.289-.36 2.217-1.061 2.804-.701.606-1.838.89-3.429.89m8.506-8.639c.663-.644 1.61-.985 2.822-.985h.17c1.175 0 2.009.341 2.52.985.455.606.682 1.63.682 3.107v1.42c0 .796-.075 1.46-.189 1.952-.133.492-.36.91-.682 1.231-.644.625-1.515.928-2.652.928h-.209q-1.08 0-1.761-.397v2.917c0 .284-.057.474-.152.55-.114.075-.322.113-.644.113h-1.44c-.322 0-.53-.038-.644-.132-.114-.076-.151-.266-.151-.531V54.324c0-.228.037-.38.151-.474.095-.076.265-.133.512-.133h.795a1.4 1.4 0 0 1 .493.076c.076.057.151.17.208.322l.133.417zm.7 2.69v2.425c0 .436.076.739.266.91.17.17.455.245.852.245h.17c.437 0 .74-.113.93-.378q.226-.342.226-1.648v-.815c0-.91-.075-1.478-.227-1.686-.19-.227-.493-.341-.947-.341H15.4c-.416 0-.7.095-.89.284-.17.17-.246.512-.246 1.004m9.873.398v1.477c0 .74.114 1.213.341 1.44.17.19.436.266.796.266h.075c.341 0 .607-.076.796-.266.227-.227.341-.7.341-1.44V57.62c0-.72-.114-1.212-.341-1.44-.19-.17-.455-.265-.796-.265h-.075c-.36 0-.626.095-.796.265-.227.227-.341.72-.341 1.44m5.399.114v1.23c0 .948-.095 1.668-.284 2.198a2.7 2.7 0 0 1-.91 1.27c-.625.492-1.59.738-2.917.738h-.227c-1.326 0-2.311-.246-2.918-.738a2.7 2.7 0 0 1-.909-1.27c-.19-.53-.284-1.25-.284-2.197v-1.213c0-.928.095-1.648.284-2.178.19-.53.493-.947.91-1.288.606-.493 1.59-.739 2.917-.739h.227c1.326 0 2.292.246 2.918.739.416.34.72.758.909 1.269.19.53.284 1.25.284 2.179m7.551 3.485v1.08c0 .284-.056.474-.132.568-.076.095-.246.133-.474.133h-1.515c-1.364 0-2.273-.227-2.69-.7-.38-.399-.55-1.156-.55-2.293v-3.921h-1.023c-.189 0-.303-.02-.378-.095-.076-.076-.095-.19-.095-.38v-.965c0-.228.019-.38.095-.455.056-.076.189-.133.397-.19l1.004-.246V51.9c0-.19.038-.322.133-.417.095-.076.265-.133.511-.133h1.743c.228 0 .398.057.493.133.095.095.151.227.151.417v1.819h1.573c.19 0 .303.037.379.113.075.076.113.208.113.436v1.27q0 .34-.113.454c-.076.075-.19.095-.38.095h-1.572v3.58c0 .34.038.55.152.663.114.133.36.19.739.19h.833c.228 0 .398.056.474.15.076.096.133.285.133.55m4.503-6.952v8.184c0 .19-.057.34-.152.416-.094.095-.265.133-.492.133h-1.743c-.246 0-.417-.038-.512-.133-.094-.075-.132-.227-.132-.416v-8.184c0-.19.038-.322.133-.417.094-.076.265-.133.511-.133h1.743c.227 0 .398.057.492.133.095.095.152.227.152.417m-1.402-1.27h-.227c-1.023 0-1.535-.51-1.535-1.572v-.094c0-1.042.512-1.573 1.535-1.573h.227c1.023 0 1.535.53 1.535 1.572v.095c0 1.061-.512 1.573-1.535 1.573m3.933 3.089h-1.023c-.19 0-.322-.02-.379-.076-.075-.057-.094-.19-.094-.398v-.928c0-.228.019-.398.076-.474s.189-.151.416-.208l1.004-.247v-.814c0-1.061.247-1.819.758-2.255q.796-.681 2.5-.682h.19a8.6 8.6 0 0 1 1.97.209c.19.057.322.132.38.227.037.095.056.246.037.455l-.114 1.193c-.038.19-.075.303-.132.341-.076.038-.209.057-.417.038-.492-.038-.834-.076-1.06-.076h-.114c-.417 0-.663.057-.777.17-.133.133-.19.36-.19.664v.492h1.573c.19 0 .303.038.379.114.075.076.113.208.113.436v1.27q0 .34-.113.454c-.076.075-.19.095-.38.095h-1.572v6.365c0 .19-.056.34-.151.416-.095.095-.265.133-.493.133h-1.743c-.246 0-.416-.038-.511-.133-.095-.075-.133-.227-.133-.416zm14.55-1.8c-.265 1.78-.758 3.75-1.478 5.93a40 40 0 0 1-2.671 6.175c-.133.265-.303.398-.53.398-.152 0-.322-.038-.55-.152l-.966-.416c-.34-.152-.492-.304-.492-.474 0-.076.018-.19.094-.322.644-1.307 1.023-2.065 1.099-2.273-.53-.19-.928-.607-1.231-1.289-.341-.757-.74-1.913-1.175-3.504q-.654-2.388-.966-4.092c-.038-.19-.019-.322.076-.417.094-.076.265-.133.492-.133h1.724c.209 0 .36.038.455.095s.17.17.208.36c.436 2.387.928 4.509 1.478 6.346h.095c.53-1.515 1.023-3.599 1.477-6.289q.03-.284.17-.398c.095-.076.247-.114.436-.114h1.743c.209 0 .36.057.436.133s.095.227.076.436m9.874-1.156h-.247c-.265 0-.53.02-.833.038-.114.019-.152.095-.152.227v2.994h.985c.682 0 1.137-.095 1.402-.323.228-.189.341-.549.341-1.117v-.474c0-.454-.113-.795-.322-1.004-.227-.227-.625-.34-1.174-.34m-1.232 5.854v3.429c0 .398-.227.587-.663.587h-1.856c-.246 0-.417-.038-.512-.133-.113-.075-.151-.227-.151-.454V51.52q0-.455.17-.625c.114-.114.322-.19.663-.228.682-.056 1.743-.094 3.202-.094h.227c1.932 0 3.258.379 3.997 1.117.569.607.853 1.516.853 2.747v.644c0 1.421-.398 2.425-1.194 2.994-.833.606-2.103.909-3.826.909zm9.707-4.244h.057c.416-.681 1.117-1.023 2.121-1.023h.758c.19 0 .341.038.417.114s.133.208.133.417v1.383c0 .208-.038.34-.114.417q-.114.113-.398.113h-.568c-.701 0-1.175.133-1.44.398-.227.227-.322.663-.322 1.307v4.585c0 .19-.057.34-.152.416-.094.095-.265.133-.492.133h-1.743c-.246 0-.417-.038-.511-.133-.095-.075-.133-.227-.133-.416v-8.203c0-.19.038-.322.133-.398.094-.076.265-.133.511-.133h.91c.208 0 .36.038.454.095a.77.77 0 0 1 .227.341zm9.04 5.987h.209c.644 0 1.326-.076 2.008-.246a2.4 2.4 0 0 1 .36-.057c.19 0 .303.113.341.322l.151.947c.038.265.076.436.076.511 0 .228-.17.398-.492.512-.872.303-1.838.454-2.86.454h-.36q-2.331 0-3.297-.966a2.7 2.7 0 0 1-.758-1.288c-.132-.492-.19-1.155-.19-1.97v-1.06c0-1.649.38-2.805 1.137-3.487.645-.568 1.63-.852 2.975-.852h.265c1.326 0 2.292.322 2.86.947.607.682.91 1.8.91 3.391v.985c0 .36-.19.53-.55.53H84.3v.152c0 .455.113.758.379.928.246.171.7.247 1.383.247M84.3 57.43h2.084c.151 0 .227-.076.227-.247v-.303c0-.379-.076-.663-.19-.871-.151-.228-.454-.341-.87-.341h-.171c-.38 0-.645.094-.796.265q-.284.34-.284 1.023zm14.89-.341v5.36c0 .19-.057.342-.151.417-.095.095-.266.133-.493.133h-1.743c-.246 0-.417-.038-.511-.133-.095-.075-.133-.227-.133-.416V57.09c0-.417-.076-.72-.208-.872-.152-.152-.436-.246-.834-.246h-.038c-.416 0-.682.094-.833.246-.152.152-.209.455-.209.871v5.362c0 .19-.056.34-.151.416-.095.095-.265.133-.493.133H91.65c-.247 0-.417-.038-.512-.133-.095-.075-.133-.227-.133-.416v-8.203c0-.19.038-.322.133-.398s.265-.133.511-.133h.89c.228 0 .38.038.474.095q.143.085.228.341l.114.36h.056c.606-.644 1.459-.966 2.596-.966h.075c1.08 0 1.914.303 2.501.871.606-.568 1.478-.871 2.576-.871h.076c1.099 0 1.913.265 2.406.777.455.492.701 1.326.701 2.5v5.627c0 .19-.057.34-.152.416-.094.095-.265.133-.492.133h-1.743c-.246 0-.417-.038-.511-.133-.095-.075-.133-.227-.133-.416V57.09c0-.417-.076-.72-.208-.872-.152-.152-.436-.246-.834-.246h-.038c-.417 0-.682.094-.833.246-.152.152-.209.455-.209.871m10.018-2.823v8.184c0 .19-.057.34-.151.416-.095.095-.265.133-.493.133h-1.743c-.246 0-.416-.038-.511-.133-.095-.075-.133-.227-.133-.416v-8.184c0-.19.038-.322.133-.417.095-.076.265-.133.511-.133h1.743c.228 0 .398.057.493.133.094.095.151.227.151.417m-1.402-1.27h-.227c-1.023 0-1.534-.51-1.534-1.572v-.094c0-1.042.511-1.573 1.534-1.573h.227c1.023 0 1.535.53 1.535 1.572v.095c0 1.061-.512 1.573-1.535 1.573m8.348 6.612v-5.342c0-.19.037-.322.132-.417.095-.076.265-.133.512-.133h1.743c.227 0 .397.057.492.133.095.095.152.227.152.417v5.607q0 1.734-.853 2.5c-.606.531-1.667.796-3.22.796s-2.634-.265-3.221-.795q-.852-.768-.852-2.5v-5.608c0-.19.038-.322.132-.417.095-.076.266-.133.512-.133h1.743c.227 0 .398.057.492.133.095.095.152.227.152.417v5.342c0 .436.057.72.208.871.152.171.417.247.834.247.398 0 .682-.076.833-.246.133-.152.209-.436.209-.872m13.006-2.52v5.362c0 .19-.057.34-.151.416-.095.095-.266.133-.493.133h-1.743c-.246 0-.417-.038-.511-.133-.095-.075-.133-.227-.133-.416V57.09c0-.417-.076-.72-.208-.872-.152-.152-.436-.246-.834-.246h-.038c-.416 0-.682.094-.833.246-.152.152-.209.455-.209.871v5.362c0 .19-.056.34-.151.416-.095.095-.265.133-.493.133h-1.743c-.246 0-.416-.038-.511-.133-.095-.075-.133-.227-.133-.416v-8.203c0-.19.038-.322.133-.398s.265-.133.511-.133h.891c.227 0 .379.038.473.095q.143.085.228.341l.113.36h.057c.606-.644 1.459-.966 2.596-.966h.075c1.08 0 1.914.303 2.501.871.606-.568 1.478-.871 2.576-.871h.076c1.099 0 1.913.265 2.406.777.455.492.701 1.326.701 2.5v5.627c0 .19-.057.34-.152.416-.094.095-.265.133-.492.133h-1.743c-.246 0-.417-.038-.512-.133-.094-.075-.132-.227-.132-.416V57.09c0-.417-.076-.72-.209-.872-.151-.152-.435-.246-.833-.246h-.038c-.417 0-.682.094-.834.246s-.208.455-.208.871M5.153 83.13H4.64c-2.69 0-4.016-1.213-4.016-3.657v-1.269c0-1.25.322-2.16.985-2.766.644-.587 1.648-.89 2.974-.89h.266c.246-1.364 1.25-2.065 3.03-2.065h.929c.19 0 .303.038.379.095.057.076.095.208.095.398v1.041c0 .19-.038.304-.114.36-.076.076-.209.095-.379.095H7.9c-.417 0-.701.095-.872.284 1.421.38 2.14 1.535 2.14 3.448v1.27c0 1.363-.378 2.273-1.117 2.765a3.2 3.2 0 0 1 1.156 1.023c.284.417.435.872.435 1.345v.133c0 1.875-1.496 2.803-4.451 2.803h-.36c-1.288 0-2.539-.227-3.713-.681-.341-.114-.474-.36-.38-.72l.342-1.213c.095-.36.322-.492.682-.379 1.117.38 2.103.55 2.974.55h.265q1.648 0 1.648-.966v-.057c0-.36-.19-.682-.568-.985-.303.038-.625.038-.928.038M4.83 80.76h.132c.417 0 .701-.076.89-.266.21-.208.323-.644.323-1.288v-.739c0-.644-.114-1.06-.322-1.288-.19-.17-.474-.265-.89-.265H4.83c-.417 0-.72.095-.89.265-.228.227-.323.644-.323 1.288v.74c0 .643.095 1.079.322 1.287.17.19.474.266.89.266m8.42-5.02h.056c.417-.683 1.118-1.023 2.122-1.023h.758c.19 0 .34.037.417.113.075.076.132.209.132.417v1.383c0 .208-.038.34-.113.417q-.114.113-.398.113h-.569c-.7 0-1.174.133-1.44.398-.227.227-.321.663-.321 1.307v4.585c0 .19-.057.34-.152.416-.095.095-.265.133-.492.133h-1.743c-.247 0-.417-.038-.512-.133-.095-.075-.132-.227-.132-.416v-8.203c0-.19.037-.322.132-.398s.265-.132.512-.132h.909c.208 0 .36.037.455.094a.77.77 0 0 1 .227.341zm9.784 7.482h-.038c-.416.644-1.25.948-2.481.948h-.284c-.966 0-1.724-.247-2.255-.74-.549-.492-.814-1.23-.814-2.178v-.208c0-1.023.284-1.762.871-2.179.588-.417 1.535-.625 2.86-.625h.133c.493 0 .947.038 1.326.076v-.398c0-.398-.113-.682-.322-.834-.227-.132-.606-.208-1.136-.208-.644 0-1.364.114-2.198.322-.227.057-.398.057-.473 0-.095-.057-.152-.17-.17-.36l-.152-1.004c-.038-.17-.038-.303-.038-.379 0-.227.151-.398.454-.492a12.2 12.2 0 0 1 3.24-.417c1.459 0 2.5.322 3.107.928.473.493.72 1.288.72 2.368v5.627c0 .189-.057.34-.152.416s-.265.114-.493.114h-.89c-.227 0-.379-.019-.474-.076s-.17-.17-.227-.36zm-.682-2.424v-.531a5.5 5.5 0 0 0-.909-.057h-.208q-.682 0-.966.17c-.19.114-.266.342-.266.683v.076c0 .34.076.568.266.681.17.133.435.19.795.19h.133c.379 0 .663-.095.89-.284.17-.152.265-.474.265-.928m10.757 1.42v1.08c0 .284-.057.474-.133.568-.075.095-.246.133-.473.133h-1.516c-1.364 0-2.273-.227-2.69-.7-.379-.399-.55-1.156-.55-2.293v-3.922h-1.022c-.19 0-.303-.018-.379-.094s-.095-.19-.095-.38v-.965c0-.228.02-.38.095-.455.057-.076.19-.133.398-.19l1.004-.246V72.9c0-.19.038-.322.133-.417.094-.076.265-.132.511-.132h1.743c.227 0 .398.056.492.132.095.095.152.227.152.417v1.819h1.572c.19 0 .303.037.38.113.075.076.113.209.113.436v1.27q0 .34-.114.454c-.076.076-.19.094-.379.094H30.78v3.58c0 .342.038.55.151.664.114.133.36.19.74.19h.833c.227 0 .398.056.473.15.076.096.133.285.133.55m4.502-6.952v8.184c0 .19-.056.34-.151.416-.095.095-.265.133-.493.133h-1.743c-.246 0-.416-.038-.511-.133-.095-.075-.133-.227-.133-.416v-8.184c0-.19.038-.322.133-.417.095-.076.265-.132.511-.132h1.743c.228 0 .398.056.493.132.095.095.151.227.151.417m-1.401-1.27h-.228c-1.023 0-1.534-.51-1.534-1.572v-.094c0-1.042.511-1.573 1.534-1.573h.228c1.023 0 1.534.53 1.534 1.573v.094c0 1.061-.511 1.573-1.534 1.573m3.118 3.77v-.246c0-.928.246-1.629.74-2.122.567-.568 1.533-.852 2.879-.852h.189c1.06 0 1.99.114 2.766.341q.227.086.284.17c.038.076.057.171.038.322l-.209 1.554c-.037.246-.208.322-.511.246-.758-.17-1.44-.265-2.008-.265h-.019c-.417 0-.72.038-.871.114-.17.075-.247.208-.247.397v.057c0 .19.057.322.209.398.151.076.435.17.871.246l.89.19c.815.19 1.402.473 1.743.852.341.38.512.966.512 1.743v.284c0 1.99-1.25 2.975-3.713 2.975h-.19c-1.25 0-2.292-.171-3.163-.512-.17-.057-.285-.133-.322-.227-.038-.076-.038-.228 0-.436l.265-1.25c.057-.36.265-.474.644-.36.871.303 1.63.435 2.273.435h.057c.417 0 .701-.037.871-.132.152-.076.247-.227.247-.436v-.057a.41.41 0 0 0-.209-.36q-.227-.113-.909-.284l-.834-.19q-1.25-.283-1.761-.852c-.341-.379-.512-.947-.512-1.743"/></svg>