<svg xmlns="http://www.w3.org/2000/svg" fill="none" viewBox="0 0 129 18"><g clip-path="url(#a)"><path fill="#fff" d="m.818 14.411 2.146-2.38c1.01 1.437 2.273 2.102 3.561 2.102 1.181 0 1.886-.624 1.886-1.63s-.664-1.482-2.465-2.232C3.391 9.265 1.568 8.125 1.568 5.444S3.863.64 7.042.64c2.317 0 3.947.857 5.127 2.168l-2.06 2.533c-.665-.858-1.59-1.414-2.789-1.414-.988 0-1.693.534-1.693 1.329S6.4 6.459 8.267 7.23c2.704 1.051 4.226 2.38 4.226 5.128 0 3.067-2.402 5.043-5.707 5.043-2.834 0-4.85-1.244-5.963-2.982zm30.61 2.703-1.05-3.066h-5.923l-1.114 3.066h-4.248L25.722.94h3.583l6.543 16.179h-4.419zm-5.878-6.093h3.777l-.795-2.317c-.364-1.073-.71-2.124-1.028-3.174a88 88 0 0 1-1.096 3.152zm43.34 6.093V.94h4.635c5.491 0 9.33 2.704 9.33 8.087 0 5.384-3.776 8.087-9.074 8.087zm3.97-3.498h.858c3.044 0 5.065-1.589 5.065-4.589 0-2.999-1.716-4.485-5.065-4.485h-.858zm17.247-4.611c0-4.782 3.947-8.347 8.711-8.347 4.742 0 8.666 3.538 8.666 8.387s-3.947 8.348-8.733 8.348-8.644-3.368-8.644-8.388m13.282.045c0-2.658-1.953-4.72-4.589-4.72-2.595 0-4.589 2.08-4.589 4.697 0 2.767 2.08 4.697 4.549 4.697 2.64 0 4.634-1.993 4.634-4.679zm24.71-8.11h-12.77v3.52h6.241l-7.597 12.659h13.668v-3.583h-7.081zM54.836 17.114h3.754V.94h-3.754v10.306L47.266.94h-3.84V17.12h3.84V6.814l7.575 10.305z"/></g><defs><clipPath id="a"><rect width="128.028" height="17.52" fill="#fff" transform="translate(.481 .303)"/></clipPath></defs></svg>