<svg xmlns="http://www.w3.org/2000/svg" fill="none" viewBox="0 0 382 86"><path fill="#fff" d="M.236 1.292h16.632V29.6h-5.502V6.08H5.738V29.6H.236zM21.728 29.6V1.712c1.554-.336 3.654-.546 5.754-.546 3.276 0 5.838.462 7.686 2.184 1.68 1.47 2.436 3.822 2.436 6.216 0 3.066-.924 5.208-2.394 6.804-1.764 1.848-4.62 2.688-6.888 2.688H27.23V29.6zM27.23 5.828v8.736c.252.084.546.084.882.084 2.772 0 4.032-1.974 4.032-4.62 0-2.478-1.008-4.41-3.57-4.41-.504 0-1.008.084-1.344.21M48.862.956c6.846 0 8.778 7.518 8.778 13.986 0 10.668-3.78 14.994-9.157 14.994-6.425 0-8.945-6.804-8.945-14.574 0-7.728 3.066-14.406 9.324-14.406m-.21 4.788c-2.184 0-3.403 3.612-3.403 9.702 0 6.426 1.218 9.702 3.444 9.702 2.31 0 3.193-4.2 3.193-9.954 0-4.956-.756-9.45-3.235-9.45M68.746.284h4.83v2.142c5.082.672 8.946 4.662 8.946 12.81 0 8.694-3.906 12.348-8.946 13.062v2.31h-4.872v-2.31c-5.124-.756-8.946-4.368-8.946-12.936 0-8.316 4.578-12.264 8.988-12.936zm0 23.982V6.416c-1.68.504-3.486 2.772-3.486 9.03 0 5.838 1.764 8.442 3.486 8.82m4.788-17.85v17.85c1.848-.378 3.486-2.646 3.486-8.988 0-6.426-1.89-8.484-3.486-8.862M86 1.292h4.872V7.55c0 5.208-.336 10.08-.546 13.02h.084c.798-2.436 2.226-6.132 3.066-8.316l4.158-10.962h4.998V29.6h-4.83v-6.384c0-5.67.21-9.87.336-12.726h-.084c-.63 2.562-1.89 5.964-2.814 8.316L91.082 29.6H86zm22.625 0h14.742V29.6h-5.502V6.08h-4.2v7.476c0 6.51-.42 12.222-3.99 14.994-1.05.84-2.394 1.386-3.78 1.386l-1.176-4.662c.672-.168 1.386-.504 1.89-1.008 1.638-1.68 2.016-4.704 2.016-10.206zm29.197 21.84h-5.082l-1.26 6.468h-5.334l6.132-28.308h6.594l5.502 28.308h-5.334zm-4.536-4.284h4.032l-.924-5.922c-.294-1.722-.672-4.536-.924-6.426h-.126c-.294 1.89-.714 4.83-1.008 6.468zm14.196-17.556h5.376v12.306h.42l4.62-12.306h6.048l-6.51 13.104c2.898 1.092 3.864 3.738 4.662 7.182.63 2.73 1.092 5.418 1.932 8.022h-5.502c-.672-2.016-1.092-4.326-1.554-6.552-.672-3.318-1.428-5.46-3.696-5.46h-.42V29.6h-5.376zM170.277 29.6V6.374h-4.998V1.292h15.54v5.082h-5.04V29.6zm13.422-28.308h4.872V7.55c0 5.208-.336 10.08-.546 13.02h.084c.798-2.436 2.226-6.132 3.066-8.316l4.158-10.962h4.998V29.6h-4.83v-6.384c0-5.67.21-9.87.336-12.726h-.084c-.63 2.562-1.89 5.964-2.814 8.316L188.781 29.6h-5.082zm21.533 0h5.376v12.306h.42l4.62-12.306h6.048l-6.51 13.104c2.898 1.092 3.864 3.738 4.662 7.182.63 2.73 1.092 5.418 1.932 8.022h-5.502c-.672-2.016-1.092-4.326-1.554-6.552-.672-3.318-1.428-5.46-3.696-5.46h-.42V29.6h-5.376zm29.264 21.84h-5.082l-1.26 6.468h-5.334l6.132-28.308h6.594l5.502 28.308h-5.334zm-4.536-4.284h4.032l-.924-5.922c-.294-1.722-.672-4.536-.924-6.426h-.126c-.294 1.89-.714 4.83-1.008 6.468zm20.882 10.668V1.712c1.68-.378 3.864-.546 6.258-.546 2.646 0 5.208.336 7.182 2.016 1.512 1.26 2.142 3.15 2.142 5.124 0 2.52-1.302 4.956-4.116 6.174v.168c3.276.924 5.04 3.654 5.04 6.762 0 2.352-.756 4.158-2.1 5.544-1.68 1.848-4.536 2.856-9.282 2.856-2.1 0-3.864-.126-5.124-.294m5.502-24.066v7.476h1.176c1.974 0 3.486-1.68 3.486-3.99 0-2.058-.966-3.654-3.234-3.654-.588 0-1.092.042-1.428.168m0 11.55v8.484c.336.084.714.084 1.218.084 2.226 0 4.074-1.344 4.074-4.242 0-2.814-1.932-4.284-4.116-4.326zm14.212-10.164-.924-4.242c1.218-.84 3.57-1.638 6.258-1.638 5.376 0 7.896 3.276 7.896 6.972 0 2.898-1.932 5.712-4.788 6.426v.084c3.318.672 5.628 3.192 5.628 7.098 0 5.418-4.62 8.4-9.702 8.4-2.352 0-4.41-.546-5.712-1.26l.798-4.494c1.218.714 2.814 1.134 4.368 1.134 2.94 0 4.494-1.68 4.494-3.948 0-3.15-2.604-4.41-5.586-4.41h-.798V12.8h.546c2.52 0 5.04-1.218 5.04-3.822 0-1.974-1.218-3.318-3.57-3.318-1.302 0-2.856.546-3.948 1.176m19.93-5.544h14.574v23.604l2.226.084-.252 10.794h-4.158l-.21-6.174H290.36l-.21 6.174h-4.2l-.21-10.794 2.016-.084c.882-2.142 1.47-4.284 1.932-6.594.546-3.234.798-6.552.798-9.87zm5.04 4.788v3.276c0 3.234-.21 6.51-.672 9.534-.336 2.016-.84 4.2-1.428 5.922h6.174V6.08zm11.726-4.788h5.922l2.604 10.668c.378 1.596.714 3.276.924 4.536h.126c.252-1.344.42-3.066.672-4.662l1.89-10.542h5.586l-4.2 15.078c-.966 3.57-2.058 7.434-3.486 9.87-1.344 2.226-3.402 3.696-5.754 3.696-.966 0-1.68-.084-2.226-.252l.21-4.494c.252.042.672.126 1.344.126 1.428 0 2.604-1.47 3.024-2.856.21-.588.168-1.05-.042-1.68zM331.509 29.6V6.374h-4.998V1.292h15.54v5.082h-5.04V29.6zm13.422-28.308h4.872V7.55c0 5.208-.336 10.08-.546 13.02h.084c.798-2.436 2.226-6.132 3.066-8.316l4.158-10.962h4.998V29.6h-4.83v-6.384c0-5.67.21-9.87.336-12.726h-.084c-.63 2.562-1.89 5.964-2.814 8.316L350.013 29.6h-5.082zM370.119 29.6h-5.838c.378-.84.756-1.932 1.092-3.024.756-2.856.756-6.804 2.856-9.03a4.5 4.5 0 0 1 2.016-1.218v-.084c-2.982-.924-4.872-3.234-4.872-6.804 0-2.898 1.092-4.914 2.604-6.174 1.806-1.47 4.326-2.1 7.182-2.1 2.1 0 4.284.168 6.006.546V29.6h-5.502V18.302h-.588c-.966 0-1.722.378-2.268 1.05-1.218 1.554-1.428 5.67-1.89 7.77-.21.84-.42 1.68-.798 2.478m5.544-15.582V5.576c-.294-.042-.63-.126-1.092-.126-2.562 0-3.654 2.058-3.654 4.2 0 2.688 1.596 4.41 3.99 4.41.336 0 .462 0 .756-.042M.236 51.292h4.872v6.258c0 5.208-.336 10.08-.546 13.02h.084c.798-2.436 2.226-6.132 3.066-8.316l4.158-10.962h4.998V79.6h-4.83v-6.384c0-5.67.21-9.87.336-12.726h-.084c-.63 2.562-1.89 5.964-2.814 8.316L5.318 79.6H.236zm30.949 0h14.574v23.604l2.226.084-.252 10.794h-4.158l-.21-6.174H31.059l-.21 6.174h-4.2l-.21-10.794 2.016-.084c.882-2.142 1.47-4.284 1.932-6.594.546-3.234.798-6.552.798-9.87zm5.04 4.788v3.276c0 3.234-.21 6.51-.672 9.534-.336 2.016-.84 4.2-1.428 5.922h6.174V56.08zm14.83-4.788h4.871v6.258c0 5.208-.336 10.08-.546 13.02h.084c.798-2.436 2.226-6.132 3.066-8.316l4.158-10.962h4.998V79.6h-4.83v-6.384c0-5.67.21-9.87.336-12.726h-.084c-.63 2.562-1.89 5.964-2.814 8.316L56.136 79.6h-5.082zm31.109 21.84h-5.082l-1.26 6.468h-5.334l6.132-28.308h6.594L88.716 79.6h-5.334zm-4.536-4.284h4.032l-.924-5.922c-.294-1.722-.672-4.536-.924-6.426h-.126c-.294 1.89-.714 4.83-1.008 6.468zM91.824 79.6V51.712c1.554-.336 3.654-.546 5.754-.546 3.276 0 5.838.462 7.686 2.184 1.68 1.47 2.436 3.822 2.436 6.216 0 3.066-.924 5.208-2.394 6.804-1.764 1.848-4.62 2.688-6.888 2.688h-1.092V79.6zm5.502-23.772v8.736c.252.084.546.084.882.084 2.772 0 4.032-1.974 4.032-4.62 0-2.478-1.008-4.41-3.57-4.41-.504 0-1.008.084-1.344.21m25.663 6.762v4.578h-6.468v7.644h7.308V79.6h-12.81V51.292h12.306v4.788h-6.804v6.51zm4.56-11.298h4.872v6.258c0 5.208-.336 10.08-.546 13.02h.084c.798-2.436 2.226-6.132 3.066-8.316l4.158-10.962h4.998V79.6h-4.83v-6.384c0-5.67.21-9.87.336-12.726h-.084c-.63 2.562-1.89 5.964-2.814 8.316L132.631 79.6h-5.082z"/></svg>