<svg viewBox="0 0 158 40" fill="none" xmlns="http://www.w3.org/2000/svg">
<rect width="158" height="40" rx="20" fill="{{ lineData.ctaBgColor }}"/>
<path d="M39.4409 27.16C37.6209 27.16 35.7809 26.66 34.7809 26L35.8209 23.76C36.7809 24.38 38.2409 24.8 39.5609 24.8C41.0009 24.8 41.5409 24.42 41.5409 23.82C41.5409 22.06 35.0409 23.86 35.0409 19.56C35.0409 17.52 36.8809 16.08 40.0209 16.08C41.5009 16.08 43.1409 16.42 44.1609 17.02L43.1209 19.24C42.0609 18.64 41.0009 18.44 40.0209 18.44C38.6209 18.44 38.0209 18.88 38.0209 19.44C38.0209 21.28 44.5209 19.5 44.5209 23.74C44.5209 25.74 42.6609 27.16 39.4409 27.16ZM53.0659 16.08C56.0859 16.08 58.4259 18.24 58.4259 21.62C58.4259 25 56.0859 27.16 53.0659 27.16C51.7259 27.16 50.6259 26.74 49.8259 25.86V30.88H46.7059V18.64H45.5059V16.24H49.2059L49.4059 17.86C50.1859 16.66 51.4459 16.08 53.0659 16.08ZM52.5259 24.6C54.0859 24.6 55.2659 23.48 55.2659 21.62C55.2659 19.76 54.0859 18.64 52.5259 18.64C50.9659 18.64 49.7859 19.76 49.7859 21.62C49.7859 23.48 50.9659 24.6 52.5259 24.6ZM63.4284 18.06C64.1484 16.76 65.5884 16.08 67.4484 16.08V19.1C67.1884 19.08 66.9884 19.06 66.7684 19.06C65.0284 19.06 63.8884 19.94 63.8884 21.92V27H60.7684V18.64H59.5684V16.24H63.2684L63.4284 18.06ZM76.7849 16.24H79.9049V27H76.9249V25.76C76.1449 26.7 75.0049 27.16 73.5649 27.16C70.5249 27.16 68.1849 25 68.1849 21.62C68.1849 18.24 70.5249 16.08 73.5649 16.08C74.8849 16.08 76.0049 16.5 76.7849 17.38V16.24ZM74.1049 24.6C75.6449 24.6 76.8449 23.48 76.8449 21.62C76.8449 19.76 75.6449 18.64 74.1049 18.64C72.5449 18.64 71.3449 19.76 71.3449 21.62C71.3449 23.48 72.5449 24.6 74.1049 24.6ZM97.2354 16.24H99.9954L96.0954 27H93.0954L90.6754 20.32L88.1754 27H85.1754L81.2954 16.24H84.2354L86.7754 23.52L89.4154 16.24H92.0554L94.6154 23.52L97.2354 16.24ZM108.192 12.16H111.312V27H108.332V25.76C107.552 26.7 106.412 27.16 104.972 27.16C101.932 27.16 99.5921 25 99.5921 21.62C99.5921 18.24 101.932 16.08 104.972 16.08C106.292 16.08 107.412 16.5 108.192 17.38V12.16ZM105.512 24.6C107.052 24.6 108.252 23.48 108.252 21.62C108.252 19.76 107.052 18.64 105.512 18.64C103.952 18.64 102.752 19.76 102.752 21.62C102.752 23.48 103.952 24.6 105.512 24.6ZM122.5 11.98L118.88 14.86H116.44L119.14 11.98H122.5ZM117.4 24.6H123.06V27H113.46V25.12L118.94 18.64H113.6V16.24H122.88V18.12L117.4 24.6Z" fill="#0000FF"/>
</svg>
