<svg xmlns="http://www.w3.org/2000/svg" fill="none" viewBox="0 0 230 68"><path fill="#000" d="M6.09 20.333h8.648V24H.07v-2.873l8.373-9.901H.283V7.559h14.18v2.872zM29.503 7.559h4.767V24h-4.553v-1.895c-1.192 1.437-2.934 2.14-5.134 2.14-4.645 0-8.22-3.301-8.22-8.466s3.575-8.465 8.22-8.465c2.017 0 3.728.642 4.92 1.987zm-4.095 12.774c2.353 0 4.187-1.712 4.187-4.554s-1.834-4.553-4.187-4.553c-2.384 0-4.217 1.711-4.217 4.553s1.833 4.554 4.217 4.554M47.152 10.4l-3.423 2.567V24h-4.767v-7.457l-1.68 1.253-1.773-2.383 3.453-2.598V1.325h4.767v7.884l1.681-1.253zm6.392-4.95 4.125-4.402h5.134L57.272 5.45zm2.842 18.794c-5.226 0-9.046-3.515-9.046-8.466s3.82-8.465 9.046-8.465S65.4 10.83 65.4 15.78c0 4.951-3.79 8.465-9.015 8.465m0-3.912c2.383 0 4.186-1.712 4.186-4.554s-1.803-4.553-4.186-4.553-4.218 1.711-4.218 4.553 1.834 4.554 4.218 4.554M74.582 5.297c-1.497 0-2.567-1.1-2.567-2.597 0-1.467 1.07-2.567 2.567-2.567s2.567 1.1 2.567 2.567c0 1.497-1.07 2.597-2.567 2.597m-1.314 15.036h8.648V24H67.249v-2.873l8.373-9.901h-8.16V7.559h14.18v2.872zm31.452-5.562L110.648 24h-5.409l-4.645-7.12h-2.2V24h-4.768V1.325h4.768v11.918h2.2l4.401-5.684h5.317zm15.054 9.473c-5.226 0-9.046-3.514-9.046-8.465 0-4.95 3.82-8.465 9.046-8.465s9.015 3.515 9.015 8.465c0 4.951-3.79 8.465-9.015 8.465m0-3.911c2.383 0 4.186-1.712 4.186-4.554s-1.803-4.553-4.186-4.553-4.218 1.711-4.218 4.553 1.834 4.554 4.218 4.554m22.592-13.019c3.881 0 6.815 2.262 6.815 7.274V24h-4.768v-8.679c0-2.659-1.222-3.881-3.331-3.881-2.292 0-3.942 1.406-3.942 4.431V24h-4.767V11.226h-1.834V7.559h5.654l.244 2.567c1.253-1.834 3.392-2.812 5.929-2.812m19.775 12.53 1.253 3.361c-.978.703-2.414 1.04-3.85 1.04-3.912 0-6.143-1.987-6.143-5.899V3.922h4.767V7.56h4.065v3.636h-4.065v7.09c0 1.406.734 2.17 2.017 2.17.703 0 1.406-.214 1.956-.611m11.262 4.4c-5.226 0-9.046-3.514-9.046-8.465 0-4.95 3.82-8.465 9.046-8.465s9.015 3.515 9.015 8.465c0 4.951-3.789 8.465-9.015 8.465m0-3.911c2.383 0 4.186-1.712 4.186-4.554s-1.803-4.553-4.186-4.553-4.218 1.711-4.218 4.553 1.834 4.554 4.218 4.554M3.584 42.267c-1.772 0-2.964-1.162-2.964-2.659s1.192-2.659 2.964-2.659 2.964 1.1 2.964 2.567c0 1.59-1.192 2.75-2.964 2.75M1.2 61V44.559h4.768V61zm22.736-3.667h8.649V61H17.916v-2.873l8.374-9.901h-8.16v-3.667h14.18v2.872zm23.622-12.774h4.768v13.69c0 6.113-3.21 8.924-8.954 8.924-3.026 0-5.96-.764-7.824-2.261l1.895-3.423c1.345 1.13 3.484 1.834 5.562 1.834 3.178 0 4.553-1.498 4.553-4.462v-.55c-1.253 1.253-2.964 1.894-4.859 1.894-4.125 0-7.029-2.292-7.029-7.395v-8.251h4.768v7.548c0 2.781 1.222 4.003 3.33 4.003 2.201 0 3.79-1.405 3.79-4.43zm14.743 16.686c-2.781 0-5.593-.764-7.12-1.773l1.588-3.423c1.467.948 3.698 1.59 5.715 1.59 2.2 0 3.025-.581 3.025-1.498 0-2.69-9.932.061-9.932-6.51 0-3.116 2.812-5.317 7.61-5.317 2.261 0 4.767.52 6.326 1.437l-1.59 3.392c-1.619-.917-3.239-1.223-4.736-1.223-2.14 0-3.056.673-3.056 1.528 0 2.812 9.932.092 9.932 6.57 0 3.057-2.842 5.227-7.762 5.227m21.796-9.474L90.028 61h-5.41l-4.645-7.12h-2.2V61h-4.768V38.325h4.768v11.918h2.2l4.4-5.684h5.318zm19.15-7.212h4.767V61h-4.553v-1.895c-1.192 1.437-2.934 2.14-5.135 2.14-4.645 0-8.22-3.301-8.22-8.466s3.575-8.465 8.22-8.465c2.017 0 3.729.642 4.921 1.987zm-4.095 12.774c2.353 0 4.186-1.712 4.186-4.554s-1.833-4.553-4.186-4.553c-2.384 0-4.218 1.711-4.218 4.553s1.834 4.554 4.218 4.554m15.846-15.066c-1.773 0-2.965-1.162-2.965-2.659s1.192-2.659 2.965-2.659 2.964 1.1 2.964 2.567c0 1.59-1.192 2.75-2.964 2.75m-3.27 24.906c-1.314 0-2.476-.275-3.423-.917l1.284-3.453c.489.367.977.58 1.619.58.825 0 1.406-.58 1.406-1.772V44.56h4.767v16.777c0 3.606-2.047 5.837-5.653 5.837m28.996-22.859c3.881 0 6.815 2.262 6.815 7.273V61h-4.767v-8.679c0-2.659-1.223-3.881-3.331-3.881-2.292 0-3.942 1.406-3.942 4.431V61h-4.768V48.226h-1.833v-3.667h5.653l.245 2.567c1.253-1.834 3.392-2.812 5.928-2.812m23.165.245h4.767V61h-4.553v-1.895c-1.192 1.437-2.934 2.14-5.134 2.14-4.645 0-8.221-3.301-8.221-8.466s3.576-8.465 8.221-8.465c2.017 0 3.728.642 4.92 1.987zm-4.095 12.774c2.353 0 4.187-1.712 4.187-4.554s-1.834-4.553-4.187-4.553c-2.384 0-4.217 1.711-4.217 4.553s1.833 4.554 4.217 4.554m35.343-12.774h4.218L193.395 61h-4.584l-3.697-10.207L181.294 61h-4.584l-5.929-16.441h4.492l3.881 11.124 4.034-11.124h4.034l3.912 11.124zm20.868 8.282c0 .366-.061.886-.092 1.283h-12.438c.459 2.047 2.2 3.3 4.706 3.3 1.742 0 2.995-.519 4.126-1.589l2.536 2.75c-1.528 1.743-3.82 2.66-6.784 2.66-5.684 0-9.382-3.576-9.382-8.466 0-4.92 3.759-8.465 8.771-8.465 4.828 0 8.557 3.24 8.557 8.526m-8.526-4.92c-2.17 0-3.729 1.313-4.065 3.422h8.098c-.336-2.078-1.894-3.423-4.033-3.423m20.348 8.923 1.253 3.361c-.978.703-2.414 1.04-3.85 1.04-3.912 0-6.143-1.987-6.143-5.899V40.922h4.767v3.637h4.065v3.636h-4.065v7.09c0 1.406.734 2.17 2.017 2.17.703 0 1.406-.214 1.956-.611"/></svg>