<svg xmlns="http://www.w3.org/2000/svg" fill="none" viewBox="0 0 83 12"><g clip-path="url(#a)"><path fill="#fff" d="M.219 9.147 1.61 7.603c.655.931 1.473 1.362 2.308 1.362.766 0 1.223-.405 1.223-1.057s-.43-.96-1.598-1.446C1.887 5.81.705 5.07.705 3.333S2.192.218 4.253.218c1.502 0 2.559.556 3.325 1.406L6.24 3.266c-.43-.556-1.03-.917-1.807-.917-.64 0-1.098.347-1.098.862s.5.78 1.712 1.28c1.752.682 2.74 1.544 2.74 3.325 0 1.988-1.558 3.27-3.7 3.27-1.838 0-3.145-.807-3.867-1.934zm19.844 1.752-.681-1.988h-3.84l-.722 1.988h-2.754L16.363.413h2.323l4.241 10.489h-2.864zm-3.81-3.95H18.7l-.516-1.502a67 67 0 0 1-.666-2.059q-.333 1.023-.71 2.044zm28.097 3.95V.413h3.004c3.56 0 6.049 1.753 6.049 5.243S50.955 10.9 47.52 10.9zm2.573-2.268h.556c1.974 0 3.284-1.03 3.284-2.975 0-1.944-1.112-2.908-3.284-2.908h-.556zm11.181-2.99c0-3.1 2.56-5.411 5.648-5.411 3.074 0 5.618 2.294 5.618 5.438s-2.559 5.411-5.662 5.411-5.604-2.183-5.604-5.437m8.611.03c0-1.724-1.266-3.06-2.975-3.06-1.683 0-2.975 1.348-2.975 3.045 0 1.793 1.348 3.045 2.949 3.045 1.712 0 3.004-1.292 3.004-3.033zM82.735.413h-8.28v2.283h4.047l-4.926 8.206h8.862V8.579h-4.591zM35.238 10.9h2.434V.413h-2.434v6.681L30.33.414h-2.489v10.488h2.49v-6.68l4.91 6.68z"/></g><defs><clipPath id="a"><rect width="83" height="11.358" fill="#fff"/></clipPath></defs></svg>