<svg xmlns="http://www.w3.org/2000/svg" fill="none" viewBox="0 0 220 56"><path fill="#fff" d="M215.073 47.205c0 2.324.98 2.66 1.232 2.688h-5.124c.196-.029 1.12-.28 1.12-2.688v-5.572c0-2.38-.84-3.165-1.96-3.165-1.68 0-2.968 1.4-2.968 3.164v5.573c0 2.352.924 2.66 1.148 2.688h-5.04c.196-.029 1.092-.28 1.092-2.688v-5.572c0-2.325-.896-3.165-1.932-3.165-1.596 0-2.996 1.4-2.996 3.164v5.573c0 2.38 1.008 2.66 1.204 2.688h-5.236c.224-.029 1.26-.28 1.26-2.633V40.57c0-2.157-.588-2.52-1.428-2.52h-.336l4.452-1.849.028 2.325c.98-1.372 2.828-2.212 4.312-2.212 1.428 0 2.604.783 2.968 2.212.868-1.204 2.66-2.212 4.536-2.212 2.52 0 3.668 1.931 3.668 4.62z"/><path fill="#fff" d="M194.383 43.06c0 3.584-2.296 7.252-6.72 7.252-4.312 0-6.384-3.331-6.384-6.747 0-3.584 2.296-7.252 6.664-7.252 4.34 0 6.44 3.331 6.44 6.747m-2.94.588c0-2.66-1.316-5.404-3.92-5.404-2.268 0-3.36 2.269-3.36 4.676 0 2.66 1.316 5.46 3.92 5.46 2.24 0 3.36-2.324 3.36-4.732"/><path fill="#fff" d="M179.713 43.06c0 3.584-2.296 7.252-6.72 7.252-4.312 0-6.384-3.331-6.384-6.747 0-3.584 2.296-7.252 6.664-7.252 4.34 0 6.44 3.331 6.44 6.747m-2.94.588c0-2.66-1.316-5.404-3.92-5.404-2.268 0-3.36 2.269-3.36 4.676 0 2.66 1.316 5.46 3.92 5.46 2.24 0 3.36-2.324 3.36-4.732"/><path fill="#fff" d="M165.945 49.893h-4.872l-3.444-6.16c-.7-1.232-1.232-1.708-2.072-1.708h-.476v5.04c0 2.464 1.064 2.8 1.344 2.828h-5.684c.224-.029 1.344-.309 1.344-2.828v-12.88c0-2.549-1.26-2.885-1.512-2.94h7.168c4.004 0 6.272 2.491 6.272 5.291 0 2.297-1.512 4.733-4.788 5.069.476.196.98.784 1.428 1.568l2.828 4.871c.896 1.513 2.1 1.765 2.464 1.849m-5.068-13.245c0-1.764-1.26-3.443-3.724-3.443h-2.1v7h2.1c2.688 0 3.724-1.709 3.724-3.556"/><path fill="#fff" d="M143.882 50.873c0 2.128-2.268 4.48-7.476 4.48-2.912 0-5.04-.953-5.04-2.549 0-1.315 1.372-2.52 2.52-2.995-1.064-.28-1.736-.896-1.736-1.764 0-.98 1.232-2.157 2.436-2.773-1.624-.672-2.688-2.212-2.688-4.003 0-2.576 1.904-4.956 5.488-4.956.728 0 1.456.14 2.156.335.644.168 1.4.308 2.128.308.784 0 1.596-.168 2.212-.56v2.157c-.252.084-1.708.14-2.156.14.56.7.84 1.68.84 2.576 0 2.38-1.82 4.508-5.264 4.508-.392 0-.756-.056-.98-.084-.98.448-1.484.952-1.484 1.4 0 .475.868.811 1.96.84l3.22.084c2.856.083 3.864 1.483 3.864 2.855m-4.172-9.576c0-1.569-.868-3.304-2.66-3.304-1.568 0-2.324 1.343-2.324 2.743 0 1.709 1.008 3.36 2.716 3.36 1.512 0 2.268-1.371 2.268-2.8m1.68 10.332c0-.896-.84-1.288-2.632-1.344 0 0-3.108-.112-3.248-.112-.952.503-1.596 1.148-1.596 1.82 0 .923 1.092 1.54 3.276 1.54 2.464 0 4.2-.672 4.2-1.904"/><path fill="#fff" d="M129.174 47.205c0 2.324.98 2.66 1.232 2.688h-5.152c.196-.029 1.12-.28 1.12-2.605v-5.823c0-2.073-.868-2.997-2.128-2.997-1.54 0-3.108 1.4-3.108 3.22v5.6c0 2.269.952 2.577 1.204 2.605h-5.264c.224-.029 1.288-.28 1.288-2.633V40.57c0-2.184-.616-2.52-1.428-2.52h-.336l4.452-1.849.028 2.325c.896-1.26 2.8-2.212 4.312-2.212 2.1 0 3.78 1.26 3.78 4.423z"/><path fill="#fff" d="M114.972 47.205c0 2.38 1.064 2.66 1.288 2.688h-5.348c.224-.029 1.288-.28 1.288-2.688V40.4c0-1.989-.672-2.353-1.456-2.353h-.336l4.564-1.848zm.252-14.588c0 1.008-.7 1.82-1.848 1.82s-1.876-.812-1.876-1.82.728-1.792 1.876-1.792 1.848.784 1.848 1.792"/><path fill="#fff" d="M108.72 47.205c0 2.324.98 2.66 1.232 2.688H104.8c.196-.029 1.12-.28 1.12-2.605v-5.823c0-2.073-.868-2.997-2.128-2.997-1.54 0-3.108 1.4-3.108 3.22v5.6c0 2.269.952 2.577 1.204 2.605h-5.264c.224-.029 1.288-.28 1.288-2.633V40.57c0-2.184-.616-2.52-1.428-2.52h-.336L100.6 36.2l.028 2.325c.896-1.26 2.8-2.212 4.312-2.212 2.1 0 3.78 1.26 3.78 4.423z"/><path fill="#fff" d="M95.704 45.917c-.672 2.911-2.576 4.395-5.292 4.395-3.78 0-5.936-3.08-5.936-6.747 0-3.948 2.324-7.252 5.908-7.252 3.388 0 5.068 3.08 5.124 7.111H87.22c.196 2.577 1.82 4.705 4.256 4.705 1.512 0 3.136-.812 4.228-2.212m-2.996-4.06c0-1.849-.728-3.809-2.464-3.809-1.792 0-2.912 1.932-3.024 3.808z"/><path fill="#fff" d="M83.276 45.917c-.672 2.911-2.576 4.395-5.292 4.395-3.78 0-5.936-3.08-5.936-6.747 0-3.948 2.323-7.252 5.907-7.252 3.389 0 5.069 3.08 5.124 7.111h-8.287c.195 2.577 1.82 4.705 4.255 4.705 1.513 0 3.136-.812 4.228-2.212m-2.996-4.06c0-1.849-.728-3.809-2.465-3.809-1.791 0-2.912 1.932-3.023 3.808z"/><path fill="#fff" d="M71.445 40.373c-.42-.784-1.26-1.372-2.156-1.372-1.456 0-2.884 1.68-2.884 4.816v3.388c0 2.324 1.008 2.66 1.26 2.688H62.43c.196-.029 1.232-.28 1.232-2.688V40.26c0-1.933-.588-2.297-1.344-2.297h-.308l4.284-1.764.028 3.22c.56-1.512 2.044-3.108 3.78-3.108.448 0 .896.085 1.344.337z"/><path fill="#fff" d="M61.634 45.833c-.616 2.94-2.772 4.48-5.012 4.48-3.752 0-5.712-2.857-5.712-6.44 0-4.592 2.884-7.56 6.3-7.56 2.324 0 4.088 1.567 4.172 4.06l-2.8 1.175c.084-.28.168-.616.168-.98 0-1.4-.84-2.267-2.072-2.267-1.848 0-3.108 1.904-3.108 4.535 0 2.717 1.372 5.349 4.032 5.349 1.372 0 2.828-.785 4.032-2.352"/><path fill="#fff" d="M49.159 44.937c0 3.332-2.632 5.376-6.636 5.376-1.96 0-3.92-.56-5.208-1.428v-4.676c1.232 2.996 3.164 3.975 5.432 3.975 1.764 0 3.444-.923 3.444-2.575 0-2.269-2.436-3.193-4.76-4.397-2.044-1.064-4.032-2.352-4.032-5.04 0-3.443 2.744-5.32 6.244-5.32 1.68 0 3.444.56 4.368 1.26v3.892c-.56-1.12-2.128-3.08-4.676-3.08-1.988 0-3.136 1.12-3.136 2.52 0 1.764 1.764 2.633 3.752 3.584 2.492 1.177 5.208 2.549 5.208 5.909"/><path fill="#fff" d="m31.562 48.577-2.716 1.904c-1.036-.169-1.988-1.12-2.156-1.904-.7 1.148-2.38 1.736-3.976 1.736-2.128 0-3.78-1.205-3.78-3.248s2.352-3.92 7.364-5.04v-1.288c0-1.849-.756-2.745-2.184-2.745-1.624 0-2.352.84-2.352 1.653 0 .531.252.951.616 1.091l-2.856 1.12a3.9 3.9 0 0 1-.336-1.54c0-2.212 2.24-4.004 5.32-4.004 3.276 0 4.564 1.709 4.564 4.06v5.657c0 1.54.7 2.603 2.128 2.603.112 0 .252-.027.364-.055m-5.264-2.52v-2.492c-3.276.727-4.676 1.764-4.676 3.108 0 1.091.868 1.847 2.016 1.847 1.344 0 2.66-1.008 2.66-2.464"/><path fill="#fff" d="M16.267 47.205c0 2.324.98 2.66 1.232 2.688h-5.152c.196-.029 1.12-.28 1.12-2.605v-5.823c0-2.073-.869-2.997-2.129-2.997-1.54 0-3.107 1.4-3.107 3.22v5.6c0 2.269.951 2.577 1.204 2.605H4.17c.224-.029 1.289-.28 1.289-2.633V40.57c0-2.184-.616-2.52-1.428-2.52h-.336L8.147 36.2l.027 2.325c.896-1.26 2.8-2.212 4.313-2.212 2.1 0 3.78 1.26 3.78 4.423z"/><path fill="#fff" d="M206.64 12.54c0 4.153-2.86 6.765-6.573 6.765-3.712 0-6.407-2.53-6.407-6.737 0-4.18 2.832-6.793 6.572-6.793s6.408 2.585 6.408 6.765m-3.218.028c0-2.448-1.21-4.18-3.3-4.18-2.117 0-3.272 1.704-3.272 4.152 0 2.42 1.21 4.125 3.327 4.125 2.09 0 3.245-1.65 3.245-4.097"/><path fill="#fff" d="M191.588 18.893h-3.245v-7.7c0-1.87-.743-2.53-2.09-2.53-1.128 0-2.008.577-2.64 1.127v9.102h-3.245v-7.7c0-1.87-.715-2.53-2.063-2.53a3.75 3.75 0 0 0-2.64 1.045v9.185h-3.245V6.27l3.245-.44v1.787c1.183-1.182 2.475-1.815 4.043-1.815 1.54 0 2.832.743 3.465 2.173 1.265-1.375 2.777-2.173 4.51-2.173 2.392 0 3.905 1.65 3.905 4.4z"/><path fill="#fff" d="M165.473 11.055v7.837h-3.245V6.297l3.245-.467v2.062c.798-1.347 1.815-2.09 3.3-2.09.77 0 1.568.165 2.255.578l-.715 2.915q-.907-.495-1.815-.495c-1.127 0-2.172.715-3.025 2.255"/><path fill="#fff" d="M156.304 17.435h-.11c-.908 1.1-2.008 1.87-3.575 1.87-2.283 0-3.933-1.567-3.933-3.575 0-2.338 1.705-4.318 7.508-4.51v-.303c0-1.705-.715-2.42-2.53-2.42-1.293 0-2.86.578-4.208 1.348l-.66-2.558c1.238-.77 3.218-1.485 5.308-1.485 3.905 0 5.417 1.733 5.335 5.226v4.537c0 .963.165 1.1 1.127 1.155l-.247 2.448c-2.42.274-3.548-.468-4.015-1.733m-.11-1.595v-2.915c-3.163.385-4.318 1.018-4.318 2.365 0 .963.743 1.65 1.898 1.65 1.017 0 1.842-.468 2.42-1.1"/><path fill="#fff" d="M143.383 6.215V.523l3.245-.44v18.81h-3.245v-1.238c-.853.825-2.008 1.65-3.575 1.65-3.355 0-5.528-2.722-5.528-6.655 0-4.042 2.805-6.847 6.408-6.847.907 0 1.897.165 2.695.412m0 2.915c-.633-.467-1.43-.742-2.393-.742-2.172 0-3.41 1.787-3.41 4.124 0 2.476 1.238 4.043 3.19 4.043 1.073 0 1.898-.385 2.613-1.045z"/><path fill="#fff" d="M123.391 17.435h-.11c-.908 1.1-2.008 1.87-3.575 1.87-2.283 0-3.933-1.567-3.933-3.575 0-2.338 1.705-4.318 7.508-4.51v-.303c0-1.705-.715-2.42-2.53-2.42-1.293 0-2.86.578-4.208 1.348l-.66-2.558c1.238-.77 3.218-1.485 5.308-1.485 3.905 0 5.417 1.733 5.335 5.226v4.537c0 .963.165 1.1 1.127 1.155l-.247 2.448c-2.42.274-3.548-.468-4.015-1.733m-.11-1.595v-2.915c-3.163.385-4.318 1.018-4.318 2.365 0 .963.743 1.65 1.898 1.65 1.017 0 1.842-.468 2.42-1.1"/><path fill="#fff" d="M114.849 18.893h-10.78v-2.228l6.628-7.7h-6.38v-2.75h10.532v2.173l-6.655 7.727h6.655z"/><path fill="#fff" d="M97.064 1.953c0 1.182-.715 1.952-2.007 1.952-1.265 0-1.98-.77-1.98-1.952 0-1.155.715-1.953 1.98-1.953 1.292 0 2.007.798 2.007 1.953M93.187 25.63l-1.98-2.2c1.567-.742 2.227-1.76 2.227-4.482V6.298l3.245-.468v13.173c0 3.685-.935 5.555-3.492 6.627"/><path fill="#fff" d="M87.51 17.435h-.11c-.908 1.1-2.008 1.87-3.576 1.87-2.282 0-3.932-1.567-3.932-3.575 0-2.338 1.705-4.318 7.508-4.51v-.303c0-1.705-.716-2.42-2.53-2.42-1.293 0-2.86.578-4.208 1.348l-.66-2.558c1.238-.77 3.218-1.485 5.308-1.485 3.904 0 5.417 1.733 5.334 5.226v4.537c0 .963.165 1.1 1.128 1.155l-.248 2.448c-2.42.274-3.547-.468-4.014-1.733m-.11-1.595v-2.915c-3.163.385-4.318 1.018-4.318 2.365 0 .963.743 1.65 1.898 1.65 1.017 0 1.842-.468 2.42-1.1"/><path fill="#fff" d="M74.589 6.215V.523l3.245-.44v18.81h-3.245v-1.238c-.853.825-2.008 1.65-3.575 1.65-3.355 0-5.528-2.722-5.528-6.655 0-4.042 2.805-6.847 6.408-6.847.907 0 1.897.165 2.695.412m0 2.915c-.633-.467-1.43-.742-2.393-.742-2.172 0-3.41 1.787-3.41 4.124 0 2.476 1.238 4.043 3.19 4.043 1.073 0 1.898-.385 2.613-1.045z"/><path fill="#fff" d="M60.277 17.435h-.11c-.907 1.1-2.008 1.87-3.575 1.87-2.282 0-3.932-1.567-3.932-3.575 0-2.338 1.705-4.318 7.507-4.51v-.303c0-1.677-.715-2.392-2.53-2.392-1.293 0-2.86.577-4.208 1.347l-.66-2.585c1.238-.77 3.218-1.485 5.336-1.485 3.905 0 5.417 1.733 5.335 5.253v4.483c0 .962.165 1.127 1.127 1.154l-.247 2.476c-1.76.11-3.135.88-3.135 2.172 0 .797.44 1.293 1.21 1.293.494 0 1.044-.165 1.402-.413l.523 1.925c-.633.44-1.485.77-2.668.77-1.87 0-3.135-1.072-3.135-2.75 0-1.595 1.182-2.832 2.667-3.52a2.34 2.34 0 0 1-.907-1.21m-.11-1.595v-2.915c-3.135.385-4.29 1.018-4.29 2.365 0 .963.742 1.65 1.87 1.65 1.017 0 1.843-.495 2.42-1.1"/><path fill="#fff" d="M50.593 18.893h-3.245V.522l3.245-.44z"/><path fill="#fff" d="M35.304 19.415c-1.1-.385-1.925-1.182-1.925-2.2 0-1.155.935-2.2 2.338-2.668-1.403-.715-2.31-2.145-2.31-3.905 0-2.612 2.062-4.84 5.582-4.84 1.43 0 2.695.413 3.575.798l3.41-.303.138 2.833-2.42-.413c.33.358.577 1.32.577 1.98 0 2.586-2.172 4.62-5.307 4.62-.605 0-1.045-.055-1.733-.22-.44.165-.99.578-.99 1.1 0 .688.578.99 2.613.99h1.32c3.63 0 5.692 1.018 5.692 3.493 0 2.997-3.382 5.06-7.397 5.06-3.355 0-6.023-1.237-6.023-3.52 0-1.32.963-2.502 2.86-2.805m1.238-8.745c0 1.512.907 2.53 2.475 2.53 1.457 0 2.282-1.045 2.282-2.64 0-1.513-.797-2.558-2.42-2.558-1.43 0-2.337 1.073-2.337 2.668m.44 9.185c-.908.33-1.595.935-1.595 1.705 0 1.183 1.457 2.008 3.602 2.008 2.228 0 3.933-.826 3.933-2.146 0-1.182-1.155-1.457-3.52-1.457-.798 0-1.898-.055-2.42-.11"/><path fill="#fff" d="M31.768 10.23c0 5.307-3.74 9.075-8.827 9.075-5.088 0-8.828-3.328-8.828-8.965 0-5.307 3.768-9.047 8.855-9.047 5.06 0 8.8 3.3 8.8 8.937m-3.355.11c0-3.767-2.172-6.242-5.527-6.242-3.273 0-5.39 2.475-5.39 6.132 0 3.768 2.145 6.27 5.5 6.27 3.272 0 5.417-2.502 5.417-6.16"/></svg>