<svg xmlns="http://www.w3.org/2000/svg" fill="none" viewBox="0 0 186 31"><rect width="184.248" height="30" x=".876" y=".353" fill="#e6ff00" rx="8"/><rect width="183.248" height="29" x="1.376" y=".853" stroke="#fff" stroke-opacity=".25" rx="7.5"/><path fill="#1a1a1a" d="M166.971 20.147q-1.066 0-1.842-.443a3 3 0 0 1-1.186-1.265q-.416-.822-.416-1.935 0-1.094.416-1.92.42-.831 1.172-1.293.753-.465 1.768-.466.656 0 1.238.212.585.208 1.034.647.452.438.711 1.117.258.675.258 1.606v.513h-5.812v-1.127h4.21a1.8 1.8 0 0 0-.208-.854 1.5 1.5 0 0 0-.567-.595 1.6 1.6 0 0 0-.841-.217 1.63 1.63 0 0 0-.9.25q-.387.244-.605.646a1.9 1.9 0 0 0-.217.872v.983q0 .62.227 1.062.225.439.632.674.406.231.951.231.364 0 .66-.102a1.5 1.5 0 0 0 .513-.309q.217-.203.327-.503l1.561.175a2.44 2.44 0 0 1-.563 1.08 2.75 2.75 0 0 1-1.053.712q-.642.249-1.468.249"/><path fill="#1a1a1a" d="M155.86 20.008v-9.454h1.671v3.536h.07q.129-.258.364-.55.236-.294.637-.503.402-.212 1.025-.212.822 0 1.482.42.665.416 1.053 1.233.392.812.392 1.994 0 1.168-.383 1.985t-1.043 1.247-1.496.429q-.609 0-1.011-.203a2.1 2.1 0 0 1-.646-.49 3 3 0 0 1-.374-.549h-.097v1.117zm1.639-3.545q0 .687.194 1.205.198.517.568.808.374.286.905.286.553 0 .928-.296.374-.3.563-.817.194-.522.194-1.186 0-.66-.19-1.173a1.76 1.76 0 0 0-.563-.803q-.374-.29-.932-.29-.536 0-.91.28-.373.282-.568.79-.189.508-.189 1.196"/><path fill="#1a1a1a" d="M152.54 17.026v-4.109h1.671v7.091h-1.621v-1.26h-.073q-.24.596-.79.974-.545.378-1.343.379a2.4 2.4 0 0 1-1.233-.31 2.15 2.15 0 0 1-.831-.91q-.3-.6-.3-1.449v-4.515h1.671v4.257q0 .675.37 1.07.369.398.969.398.37 0 .716-.18t.568-.536q.226-.36.226-.9"/><path fill="#1a1a1a" d="M140.204 11.99v-1.436h7.544v1.435h-2.923v8.02h-1.698v-8.02z"/><path fill="#1a1a1a" d="M137.96 17.026v-4.109h1.671v7.091h-1.621v-1.26h-.074q-.24.596-.789.974-.545.378-1.343.379a2.4 2.4 0 0 1-1.233-.31 2.15 2.15 0 0 1-.831-.91q-.3-.6-.3-1.449v-4.515h1.671v4.257q0 .675.369 1.07.37.398.97.398.37 0 .715-.18a1.45 1.45 0 0 0 .568-.536q.227-.36.227-.9"/><path fill="#1a1a1a" d="M128.767 20.147q-1.04 0-1.801-.457a3.1 3.1 0 0 1-1.181-1.279q-.416-.822-.416-1.92 0-1.1.416-1.925a3.1 3.1 0 0 1 1.181-1.284q.762-.457 1.801-.457t1.8.457 1.177 1.284q.421.825.421 1.925 0 1.098-.421 1.92a3.07 3.07 0 0 1-1.177 1.279q-.762.457-1.8.457m.009-1.339q.563 0 .942-.31.378-.313.563-.84a3.5 3.5 0 0 0 .189-1.172q0-.65-.189-1.177a1.87 1.87 0 0 0-.563-.845q-.379-.315-.942-.314-.578 0-.96.314-.38.314-.568.845-.185.526-.185 1.177 0 .646.185 1.172.189.526.568.84.382.31.96.31"/><path fill="#1a1a1a" d="M117.411 10.554h1.935l2.312 4.182h.093l2.313-4.182h1.934l-3.439 5.927v3.527h-1.708v-3.527z"/><path fill="#1a1a1a" d="M109.621 20.151q-.674 0-1.214-.24a2 2 0 0 1-.85-.72q-.309-.476-.309-1.172 0-.6.222-.993.221-.391.604-.628.383-.235.864-.355a7 7 0 0 1 1.001-.18q.624-.065 1.011-.116.389-.055.564-.166.18-.115.18-.355v-.028q0-.522-.31-.808-.309-.285-.891-.286-.614 0-.974.268-.356.267-.48.632l-1.56-.221q.184-.646.609-1.08.425-.44 1.039-.656a4 4 0 0 1 1.357-.222q.513 0 1.02.12.508.12.928.397.42.273.674.743.26.471.259 1.178v4.745h-1.607v-.974h-.055a2 2 0 0 1-.43.554q-.272.254-.687.411a2.8 2.8 0 0 1-.965.152m.434-1.228q.503 0 .872-.198.37-.203.568-.536.204-.332.203-.724v-.836a.8.8 0 0 1-.268.12q-.184.056-.415.097t-.457.074l-.392.055q-.375.052-.67.166a1.1 1.1 0 0 0-.466.324.8.8 0 0 0-.171.526q0 .462.337.697t.859.235"/><path fill="#1a1a1a" d="M101.473 15.854v4.154h-1.671v-7.09h1.597v1.204h.083q.245-.595.78-.946.54-.35 1.334-.35.735 0 1.279.313.549.314.849.91.306.595.3 1.444v4.515h-1.671v-4.256q0-.711-.369-1.113-.364-.4-1.011-.401-.438 0-.78.194a1.34 1.34 0 0 0-.531.549q-.189.36-.189.873"/><path fill="#1a1a1a" d="M89.47 20.008v-1.061l3.657-4.585v-.06h-3.536v-1.385h5.581v1.14l-3.48 4.506v.06h3.6v1.385z"/><path fill="#1a1a1a" d="M84.282 20.151q-.674 0-1.215-.24a2 2 0 0 1-.849-.72q-.31-.476-.31-1.172 0-.6.222-.993.222-.391.605-.628.383-.235.863-.355a7 7 0 0 1 1.002-.18q.624-.065 1.011-.116.389-.055.563-.166.18-.115.18-.355v-.028q0-.522-.309-.808-.31-.285-.89-.286-.615 0-.975.268-.355.267-.48.632l-1.56-.221q.184-.646.609-1.08a2.65 2.65 0 0 1 1.039-.656q.613-.222 1.357-.222.513 0 1.02.12.508.12.928.397.42.273.674.743.258.471.259 1.178v4.745h-1.607v-.974h-.055a2 2 0 0 1-.43.554q-.271.254-.687.411a2.8 2.8 0 0 1-.965.152m.434-1.228q.503 0 .872-.198.37-.203.568-.536.203-.332.203-.724v-.836a.8.8 0 0 1-.268.12q-.184.056-.415.097t-.457.074l-.393.055q-.373.052-.669.166a1.1 1.1 0 0 0-.466.324.8.8 0 0 0-.171.526q0 .462.337.697t.859.235"/><path fill="#1a1a1a" d="M77.357 20.008v-7.09h1.62v1.181h.074q.194-.615.665-.946a1.83 1.83 0 0 1 1.085-.337q.138 0 .309.014.176.01.29.032v1.537a1.8 1.8 0 0 0-.336-.064 3 3 0 0 0-.439-.033 1.7 1.7 0 0 0-.821.199q-.36.195-.568.54t-.208.799v4.168z"/><path fill="#1a1a1a" d="M72.933 20.147q-1.067 0-1.842-.443a3 3 0 0 1-1.186-1.265q-.416-.822-.416-1.935 0-1.094.416-1.92.42-.831 1.172-1.293.753-.465 1.768-.466.656 0 1.237.212.587.208 1.035.647.452.438.71 1.117.26.675.259 1.606v.513h-5.812v-1.127h4.21a1.8 1.8 0 0 0-.208-.854 1.5 1.5 0 0 0-.567-.595 1.6 1.6 0 0 0-.84-.217q-.513 0-.9.25-.39.244-.606.646a1.86 1.86 0 0 0-.217.872v.983q0 .62.227 1.062.225.439.632.674.406.231.951.231.364 0 .66-.102.296-.105.513-.309.217-.203.327-.503l1.56.175a2.43 2.43 0 0 1-.562 1.08 2.75 2.75 0 0 1-1.053.712q-.642.249-1.468.249"/><path fill="#1a1a1a" d="M68.615 12.917v1.293H64.54v-1.293zm-3.07-1.698h1.671v6.656q0 .338.102.517.105.176.277.24.17.066.379.065.156 0 .286-.023.135-.023.203-.041l.282 1.306q-.134.046-.384.102a3 3 0 0 1-.6.064 2.7 2.7 0 0 1-1.13-.19 1.76 1.76 0 0 1-.8-.655q-.29-.442-.286-1.108z"/><path fill="#1a1a1a" d="M54.744 20.008v-1.061l3.656-4.585v-.06h-3.536v-1.385h5.581v1.14l-3.48 4.506v.06h3.6v1.385z"/><path fill="#1a1a1a" d="M50.57 20.147q-1.063 0-1.824-.466a3.1 3.1 0 0 1-1.168-1.289q-.407-.825-.407-1.901 0-1.08.416-1.907a3.1 3.1 0 0 1 1.172-1.293q.762-.465 1.8-.466.865 0 1.529.319.67.314 1.066.89.397.573.453 1.34H52.01a1.53 1.53 0 0 0-.462-.855q-.36-.345-.965-.346-.513 0-.9.277-.388.272-.605.785-.213.511-.212 1.228 0 .724.212 1.246.212.517.596.799.387.277.909.277.369 0 .66-.139.296-.143.494-.41.199-.268.273-.651h1.597q-.06.752-.443 1.334a2.6 2.6 0 0 1-1.044.905q-.66.323-1.55.323"/><path fill="#1a1a1a" d="M42.195 20.151q-.675 0-1.214-.24a2 2 0 0 1-.85-.72q-.31-.476-.31-1.172 0-.6.223-.993.221-.391.604-.628.383-.235.863-.355a7 7 0 0 1 1.002-.18q.624-.065 1.011-.116.389-.055.563-.166.18-.115.18-.355v-.028q0-.522-.309-.808-.31-.285-.89-.286-.615 0-.975.268-.355.267-.48.632l-1.56-.221q.184-.646.61-1.08a2.65 2.65 0 0 1 1.038-.656q.615-.222 1.357-.222.513 0 1.02.12.508.12.928.397.42.273.674.743.26.471.259 1.178v4.745h-1.607v-.974h-.055a2 2 0 0 1-.43.554q-.271.254-.687.411a2.8 2.8 0 0 1-.965.152m.434-1.228q.503 0 .872-.198.37-.203.568-.536.204-.332.203-.724v-.836a.8.8 0 0 1-.268.12 4 4 0 0 1-.415.097 13 13 0 0 1-.457.074l-.392.055q-.375.052-.67.166a1.1 1.1 0 0 0-.466.324.8.8 0 0 0-.17.526q0 .462.336.697.337.235.859.235"/><path fill="#1a1a1a" d="M32.183 20.008v-9.454h1.67v3.536h.07q.13-.258.365-.55.236-.294.637-.503.402-.212 1.025-.212.821 0 1.482.42.665.416 1.052 1.233.393.812.393 1.994 0 1.168-.384 1.985-.383.817-1.043 1.247-.66.429-1.496.429-.61 0-1.01-.203a2.1 2.1 0 0 1-.647-.49 3.2 3.2 0 0 1-.374-.549h-.097v1.117zm1.639-3.545q0 .687.193 1.205.2.517.568.808.374.286.905.286.555 0 .928-.296.374-.3.563-.817.194-.522.194-1.186 0-.66-.19-1.173a1.76 1.76 0 0 0-.562-.803q-.374-.29-.933-.29-.535 0-.91.28-.373.282-.567.79-.19.508-.19 1.196"/><path fill="#1a1a1a" d="M27.436 20.147q-1.04 0-1.8-.457a3.1 3.1 0 0 1-1.183-1.279q-.415-.822-.415-1.92 0-1.1.415-1.925.42-.827 1.182-1.284t1.8-.457q1.04 0 1.801.457.762.457 1.177 1.284.42.825.42 1.925 0 1.098-.42 1.92-.416.822-1.177 1.279t-1.8.457m.009-1.339q.563 0 .942-.31.378-.313.563-.84.19-.525.19-1.172a3.5 3.5 0 0 0-.19-1.177 1.86 1.86 0 0 0-.563-.845q-.38-.315-.942-.314-.578 0-.96.314-.38.314-.568.845-.185.526-.185 1.177 0 .646.185 1.172.189.526.568.84.383.31.96.31"/><path fill="#1a1a1a" d="M15.904 20.008v-1.066l4.847-6.953h-4.875v-1.435h6.999v1.066l-4.843 6.953h4.87v1.435z"/></svg>