<svg xmlns="http://www.w3.org/2000/svg" fill="none" viewBox="0 0 115 12"><path fill="#fff" d="M.999 2.433v7.32c0 .654.68 1.052 1.202.703l5.487-3.66c.489-.326.489-1.08 0-1.405l-5.487-3.66c-.522-.349-1.202.049-1.202.702"/><path fill="#fff" d="M14.409 3.908c0-.806-.507-1.286-1.225-1.286-.613 0-1.166.565-1.166 1.214 0 .625.412.986 1.26 1.262 1.885.613 2.58 1.335 2.58 2.873 0 1.611-1.13 2.693-2.674 2.693-1.555 0-2.663-1.13-2.686-2.8h1.272c.012.96.566 1.61 1.414 1.61s1.402-.625 1.402-1.503c0-.649-.283-1.058-1.214-1.382-2.156-.746-2.627-1.467-2.627-2.73a2.425 2.425 0 0 1 2.439-2.428c1.437 0 2.474.926 2.497 2.477z"/><path fill="#fff" d="M22.443 10.4c-.177.096-.99.264-1.578.264-2.698 0-4.418-2.176-4.418-4.616 0-2.56 1.885-4.617 4.488-4.617.625 0 1.072.109 1.508.265V3.03c-.424-.288-.883-.408-1.531-.408-1.909 0-3.193 1.514-3.193 3.402 0 1.947 1.355 3.45 3.216 3.45a2.9 2.9 0 0 0 1.508-.433z"/><path fill="#fff" d="m27.657 10.496-2.874-4.124h-.024v4.124h-1.272V1.6h2.792c2.097 0 3.028 1.13 3.028 2.957 0 1.695-1.273 2.585-2.498 2.62l2.439 3.319zM25.69 6.192c1.484 0 2.344-.589 2.344-1.743 0-1.022-.8-1.66-1.932-1.66H24.76v3.403z"/><path fill="#fff" d="M30.216 10.496V1.6h4.7v1.19h-3.428v2.62h3.428V6.6h-3.428v2.706h3.428v1.19z"/><path fill="#fff" d="M36.095 10.496V1.6h4.7v1.19h-3.427v2.62h3.428V6.6h-3.428v2.706h3.428v1.19z"/><path fill="#fff" d="m47.634 10.496-4.312-6.877H43.3v6.877h-1.273V1.6h1.39l4.242 6.768h.023V1.6h1.273v8.896z"/><path fill="#fff" d="M50.46 10.496V1.6h1.273v8.896z"/><path fill="#fff" d="m58.817 10.496-4.311-6.877h-.024v6.877H53.21V1.6h1.39l4.24 6.768h.024V1.6h1.273v8.896z"/><path fill="#fff" d="M64.636 7.262v-1.19h5.513c-.082 2.957-2.273 4.592-4.594 4.592-2.356 0-4.37-2.092-4.37-4.496 0-2.885 2.167-4.737 4.37-4.737 1.673 0 3.11.806 3.994 2.405h-1.485c-.742-.866-1.484-1.214-2.45-1.214-1.697 0-3.157 1.635-3.157 3.39 0 1.875 1.449 3.462 3.204 3.462 1.378 0 2.486-.781 3.04-2.212z"/><path fill="#fff" d="m77.63 10.496-2.015-2.873h-.024v2.873h-2.132V1.6h2.85c.908 0 1.603.12 2.062.324.943.433 1.603 1.479 1.603 2.741 0 1.407-.825 2.561-2.168 2.801l2.368 3.03zm-1.214-4.424c.883 0 1.425-.42 1.425-1.274 0-.77-.565-1.203-1.402-1.203h-.848v2.477z"/><path fill="#fff" d="M80.508 6.252c0-2.753 1.944-4.82 4.594-4.82 2.545 0 4.607 2.007 4.607 4.556 0 2.633-2.003 4.676-4.5 4.676-2.427 0-4.701-1.779-4.701-4.412m6.974-.192c0-1.395-.978-2.633-2.38-2.633-1.39 0-2.368 1.19-2.368 2.597 0 1.466.978 2.645 2.404 2.645 1.378 0 2.344-1.19 2.344-2.61"/><path fill="#fff" d="M90.221 6.252c0-2.753 1.944-4.82 4.595-4.82 2.544 0 4.606 2.007 4.606 4.556 0 2.633-2.003 4.676-4.5 4.676-2.427 0-4.7-1.779-4.7-4.412m6.974-.192c0-1.395-.977-2.633-2.38-2.633-1.39 0-2.367 1.19-2.367 2.597 0 1.466.978 2.645 2.403 2.645 1.378 0 2.344-1.19 2.344-2.61"/><path fill="#fff" d="m111.444 10.496-3.381-5.302h-.023v5.302h-1.85l-3.64-5.302h-.024v5.302H100.3V1.6h2.203l3.287 4.893h.023V1.6h2.203l5.985 8.896z"/></svg>