<svg xmlns="http://www.w3.org/2000/svg" fill="none" viewBox="0 0 274 81"><path fill="#000" d="M10.621 22.145c3.01 1.763 4.816 3.999 4.816 7.74 0 4.214-3.354 7.869-7.912 7.869-2.451 0-4.644-1.075-5.805-2.623L.602 37.969H0v-9.847h.86c.731 5.332 2.623 8.514 6.536 8.514 3.311 0 5.246-1.935 5.246-5.074 0-3.268-1.677-5.031-4.429-6.665l-3.139-1.849C2.15 21.328.258 19.178.258 15.394c0-4.644 3.526-7.224 7.009-7.224 2.451 0 4.343 1.376 5.332 2.881l.86-2.924h.602v8.6h-.774c-.688-4.171-2.58-7.439-5.848-7.439-2.881 0-4.558 1.978-4.558 4.988 0 2.752 1.505 4.214 3.999 5.676zm26.851 11.696c1.118 1.849 1.678 2.365 3.483 2.623v.946c-1.805-.215-2.666-.258-4.127-.258-1.549 0-2.882.043-4.817.258v-.946c2.28-.258 3.01-.387 1.505-2.967l-6.363-10.836h-1.505v10.105c0 3.139.43 3.44 2.794 3.698v.946c-2.622-.215-3.01-.258-4.428-.258-1.42 0-1.806.043-4.43.258v-.946c2.366-.258 2.796-.559 2.796-3.698V13.158c0-3.139-.43-3.44-2.796-3.698v-.946c2.624.215 3.01.258 4.43.258s1.806-.043 4.429-.258v.946c-2.366.258-2.796.559-2.796 3.698v8.299h1.506l6.493-9.288c1.505-2.15.515-2.494-1.85-2.709v-.946c1.635.172 2.839.258 4.086.258 1.117 0 2.279-.086 3.784-.258v.946c-2.236.258-2.924.344-4.558 2.709l-5.676 8.127zm23.32-4.3-1.119 7.783H43.634v-.946c2.365-.129 2.795-.516 2.795-3.44v-19.78c0-3.139-.43-3.44-2.795-3.698v-.946c2.623.215 3.01.258 4.43.258 1.504 0 2.106-.043 4.686-.258v.946c-2.58.258-3.053.516-3.053 3.698V34.4c0 1.204.258 1.72 2.107 1.72h2.58c2.967 0 4.43-1.376 5.547-6.579zm20.524 3.44c.989 3.096 1.29 3.225 3.225 3.483v.946c-1.85-.172-2.71-.258-4.085-.258-1.333 0-2.451.086-4.515.258v-.946c2.365-.258 2.88-.43 1.935-3.526l-1.333-4.386h-8.256l-1.247 4.386c-.86 3.053-.43 3.268 1.935 3.526v.946c-1.161-.129-2.537-.258-3.526-.258-.99 0-1.806.129-2.924.258v-.946c2.02-.258 2.45-.688 3.268-3.526L72.802 8.17h.516zM68.63 27.348h7.525l-3.87-12.642zM95.509 8.6c6.149 0 11.18 5.59 11.18 14.362s-5.031 14.362-11.18 14.362h-8.772v-.946c2.365-.129 2.795-.516 2.795-3.44V12.986c0-2.924-.43-3.311-2.795-3.44V8.6zm-.602 27.52h.258c5.461 0 8.041-5.461 8.041-13.158s-2.58-13.158-8.041-13.158H92.8V34.4c0 1.204.258 1.72 2.107 1.72m26.536 1.634c-5.461 0-9.976-5.117-9.976-14.792s4.515-14.792 9.976-14.792 9.976 5.117 9.976 14.792-4.515 14.792-9.976 14.792m0-1.118c4.386 0 6.493-5.203 6.493-13.674s-2.107-13.674-6.493-13.674-6.493 5.203-6.493 13.674 2.107 13.674 6.493 13.674m31.06-27.864c.86 0 1.849-.086 2.924-.258v.946c-2.021.258-2.58.688-3.397 3.526l-7.095 24.768h-.516l-7.74-24.811c-.946-3.096-1.419-3.225-3.354-3.483v-.946c1.763.172 2.709.258 4.042.258 1.376 0 2.494-.086 4.687-.258v.946c-2.537.258-2.752.473-1.849 3.526l5.332 18.017 5.246-18.017c.903-3.01.688-3.268-1.849-3.526v-.946c1.247.129 2.537.258 3.569.258m18.017-5.547-4.515 2.537h-1.247l3.87-4.644C169.273.344 169.66 0 170.434 0c.688 0 1.419.602 1.419 1.505 0 .43-.086 1.032-1.333 1.72m3.784 27.047h.86l-.731 7.052h-16.555v-.946c2.365-.129 2.795-.516 2.795-3.44V12.986c0-2.924-.43-3.311-2.795-3.44V8.6h15.652l.602 6.665h-.86c-.817-4.3-1.634-5.461-5.031-5.461h-4.3v12.04h4.988c1.462 0 1.849-.774 1.978-3.483h.86v8.17h-.86c-.086-2.709-.516-3.483-1.978-3.483h-4.988V34.4c0 1.204.258 1.72 2.107 1.72h3.096c3.526 0 4.128-1.247 5.16-5.848m30.024-21.5c.86 0 1.849-.086 2.924-.258v.946c-2.021.258-2.58.688-3.397 3.526l-7.095 24.768h-.516l-7.74-24.811c-.946-3.096-1.419-3.225-3.354-3.483v-.946c1.763.172 2.709.258 4.042.258 1.376 0 2.494-.086 4.687-.258v.946c-2.537.258-2.752.473-1.849 3.526l5.332 18.017 5.246-18.017c.903-3.01.688-3.268-1.849-3.526v-.946c1.247.129 2.537.258 3.569.258m14.73 28.982c-5.461 0-9.976-5.117-9.976-14.792s4.515-14.792 9.976-14.792 9.976 5.117 9.976 14.792-4.515 14.792-9.976 14.792m0-1.118c4.386 0 6.493-5.203 6.493-13.674s-2.107-13.674-6.493-13.674-6.493 5.203-6.493 13.674 2.107 13.674 6.493 13.674m29.93-7.224h.86l-.946 7.912h-16.555v-.344l13.33-27.176h-5.633c-3.354 0-4.171 1.29-4.988 6.063h-.86l.559-7.267h14.921v.344l-13.33 27.176h6.837c3.956 0 4.644-1.419 5.805-6.708m21.427-20.64c.86 0 1.677-.086 2.666-.258v.946c-1.892.258-2.365.344-3.655 3.311l-4.902 11.051v8.944c-.043 3.182.473 3.44 2.967 3.698v.946c-2.709-.215-3.139-.258-4.601-.258s-2.064.043-4.601.258v-.946c2.494-.258 3.01-.516 2.967-3.698v-8.471l-5.633-11.567c-1.333-2.752-1.72-3.01-3.483-3.268v-.946c2.236.215 2.838.258 4.128.258 1.247 0 2.537-.086 4.343-.258v.946c-2.58.258-2.838.559-1.505 3.225l4.773 9.546 4.257-9.46c1.247-2.795.903-3.096-1.419-3.311v-.946c1.29.172 2.58.258 3.698.258M44.318 65.145c3.612.645 6.364 3.397 6.364 7.439 0 4.73-3.655 7.74-8.127 7.74h-9.89v-.946c2.365-.129 2.795-.516 2.795-3.44V55.986c0-2.924-.43-3.311-2.795-3.44V51.6h8.643c4.988 0 8.084 2.709 8.084 6.88 0 3.268-2.107 5.676-5.074 6.665m-3.612-12.341h-1.978v12.083h1.978c3.612 0 5.203-2.322 5.203-6.063 0-3.698-1.59-6.02-5.203-6.02m1.42 26.316c3.525 0 5.073-2.494 5.073-6.536 0-3.999-1.548-6.493-5.074-6.493h-3.397V77.4c0 1.204.258 1.72 2.107 1.72zm29-5.848h.86l-.732 7.052H54.7v-.946c2.365-.129 2.795-.516 2.795-3.44V55.986c0-2.924-.43-3.311-2.795-3.44V51.6h15.652l.602 6.665h-.86c-.817-4.3-1.634-5.461-5.03-5.461h-4.3v12.04h4.987c1.462 0 1.85-.774 1.978-3.483h.86v8.17h-.86c-.086-2.709-.516-3.483-1.978-3.483h-4.988V77.4c0 1.204.258 1.72 2.107 1.72h3.096c3.526 0 4.128-1.247 5.16-5.848m20.506-.86h.86l-.946 7.912H74.992v-.344l13.33-27.176H82.69c-3.354 0-4.171 1.29-4.988 6.063h-.86L77.4 51.6h14.92v.344L78.99 79.12h6.838c3.956 0 4.644-1.419 5.804-6.708m24.763-24.037h-1.763l-4.644-4.945h1.247l4.257 2.58 4.257-2.58h1.247zm5.719 22.188h1.118c-.344 7.181-3.569 10.191-7.654 10.191-5.461 0-9.632-5.16-9.632-14.792s4.386-14.792 9.761-14.792c2.537 0 4.429 1.247 5.504 2.752l.946-2.752h.602v9.03h-.774c-.989-5.504-2.924-7.912-6.278-7.912-4.257 0-6.278 5.117-6.278 13.674 0 8.729 2.15 13.287 6.794 13.287 2.881 0 5.547-2.365 5.891-8.686m21.779 2.709h.86l-.731 7.052h-16.555v-.946c2.365-.129 2.795-.516 2.795-3.44V55.986c0-2.924-.43-3.311-2.795-3.44V51.6h15.652l.602 6.665h-.86c-.817-4.3-1.634-5.461-5.031-5.461h-4.3v12.04h4.988c1.462 0 1.849-.774 1.978-3.483h.86v8.17h-.86c-.086-2.709-.516-3.483-1.978-3.483h-4.988V77.4c0 1.204.258 1.72 2.107 1.72h3.096c3.526 0 4.128-1.247 5.16-5.848m22.614 3.569c1.118 1.849 1.677 2.365 3.483 2.623v.946c-1.806-.215-2.666-.258-4.128-.258-1.548 0-2.881.043-4.816.258v-.946c2.279-.258 3.01-.387 1.505-2.967l-6.364-10.836h-1.505v10.105c0 3.139.43 3.44 2.795 3.698v.946c-2.623-.215-3.01-.258-4.429-.258s-1.806.043-4.429.258v-.946c2.365-.258 2.795-.559 2.795-3.698V56.158c0-3.139-.43-3.44-2.795-3.698v-.946c2.623.215 3.01.258 4.429.258s1.806-.043 4.429-.258v.946c-2.365.258-2.795.559-2.795 3.698v8.299h1.505l6.493-9.288c1.505-2.15.516-2.494-1.849-2.709v-.946c1.634.172 2.838.258 4.085.258 1.118 0 2.279-.086 3.784-.258v.946c-2.236.258-2.924.344-4.558 2.709l-5.676 8.127zm19.306-30.616-4.515 2.537h-1.247l3.87-4.644c.645-.774 1.032-1.118 1.806-1.118.688 0 1.419.602 1.419 1.505 0 .43-.086 1.032-1.333 1.72m4.687 29.756c.989 3.096 1.29 3.225 3.225 3.483v.946c-1.849-.172-2.709-.258-4.085-.258-1.333 0-2.451.086-4.515.258v-.946c2.365-.258 2.881-.43 1.935-3.526l-1.333-4.386h-8.256l-1.247 4.386c-.86 3.053-.43 3.268 1.935 3.526v.946c-1.161-.129-2.537-.258-3.526-.258s-1.806.129-2.924.258v-.946c2.021-.258 2.451-.688 3.268-3.526l7.009-24.768h.516zm-12.685-5.633h7.525l-3.87-12.642zm35.736-18.576c1.075 0 2.15-.129 3.397-.258v.946c-2.365.258-2.795.559-2.795 3.698v24.596h-.516l-13.717-25.37v20.382c0 3.182.473 3.44 3.139 3.698v.946c-1.161-.129-2.451-.258-3.612-.258h-.129c-1.075 0-2.15.129-3.397.258v-.946c2.365-.258 2.795-.559 2.795-3.698V53.664c-.43-.559-1.161-.946-2.795-1.161v-.946c1.72.172 2.236.215 3.311.215.774 0 1.505-.043 2.279-.129l11.438 21.113V56.201c0-3.182-.473-3.483-3.139-3.741v-.946c1.333.172 2.451.258 3.612.258zm9.453-3.01 3.87-4.644c.645-.774 1.032-1.118 1.806-1.118.688 0 1.419.602 1.419 1.505 0 .43-.086 1.032-1.333 1.72l-4.515 2.537zm.559 7.396c0-3.139-.43-3.44-2.795-3.698v-.946c2.623.215 3.01.258 4.429.258s1.806-.043 4.429-.258v.946c-2.365.258-2.795.559-2.795 3.698v19.608c0 3.139.43 3.44 2.795 3.698v.946c-2.623-.215-3.01-.258-4.429-.258s-1.806.043-4.429.258v-.946c2.365-.258 2.795-.559 2.795-3.698zm12.493 24.596c-1.29 0-2.15-.946-2.15-2.193s.86-2.193 2.15-2.193 2.15.946 2.15 2.193-.86 2.193-2.15 2.193"/></svg>