<svg xmlns="http://www.w3.org/2000/svg" fill="none" viewBox="0 0 177 37"><path fill="#fff" d="M.788 1.303h7.656v13.03H5.911V3.507h-2.59v10.826H.788zm9.893 13.03V1.496c.716-.155 1.682-.251 2.649-.251 1.508 0 2.687.212 3.538 1.005.773.677 1.121 1.76 1.121 2.861 0 1.412-.425 2.398-1.102 3.132-.812.851-2.126 1.238-3.17 1.238h-.503v4.852zm2.533-10.942v4.021c.116.039.251.039.406.039 1.276 0 1.856-.909 1.856-2.127 0-1.14-.464-2.03-1.643-2.03-.232 0-.464.039-.619.097m9.957-2.243c3.152 0 4.04 3.46 4.04 6.438 0 4.91-1.74 6.902-4.214 6.902-2.958 0-4.118-3.132-4.118-6.709 0-3.557 1.412-6.631 4.292-6.631m-.096 2.204c-1.006 0-1.566 1.663-1.566 4.466 0 2.958.56 4.466 1.585 4.466 1.063 0 1.47-1.933 1.47-4.582 0-2.281-.349-4.35-1.49-4.35m9.25-2.513h2.223v.986c2.34.309 4.118 2.146 4.118 5.896 0 4.002-1.798 5.684-4.118 6.013v1.063h-2.243v-1.063c-2.358-.348-4.118-2.01-4.118-5.955 0-3.828 2.107-5.645 4.137-5.954zm0 11.039V3.661c-.774.232-1.605 1.276-1.605 4.157 0 2.687.812 3.886 1.605 4.06m2.203-8.217v8.217c.851-.174 1.605-1.218 1.605-4.137 0-2.958-.87-3.906-1.605-4.08m5.739-2.358h2.242v2.88c0 2.398-.154 4.64-.251 5.994h.039c.367-1.122 1.024-2.823 1.41-3.828l1.915-5.046h2.3v13.03H45.7v-2.938c0-2.61.097-4.544.155-5.858h-.039c-.29 1.179-.87 2.745-1.295 3.828l-1.914 4.968h-2.34zm10.414 0h6.786v13.03h-2.532V3.507H53v3.441c0 2.997-.193 5.626-1.836 6.902-.484.387-1.102.638-1.74.638l-.542-2.146c.31-.077.638-.232.87-.464.754-.773.928-2.165.928-4.698zm13.44 10.053h-2.34l-.58 2.977h-2.455l2.823-13.03h3.035l2.533 13.03h-2.455zm-2.088-1.972h1.856l-.425-2.726a99 99 0 0 1-.425-2.958h-.059c-.135.87-.328 2.223-.463 2.977zm6.535-8.081h2.475v5.664h.193l2.127-5.664h2.784L73.15 7.335c1.334.502 1.779 1.72 2.146 3.306.29 1.256.503 2.494.89 3.692h-2.533c-.31-.928-.503-1.991-.716-3.016-.309-1.527-.657-2.513-1.701-2.513h-.193v5.53h-2.475zm10.493 13.03V3.642h-2.3v-2.34h7.152v2.34h-2.32v10.691zm6.178-13.03h2.243v2.88c0 2.398-.155 4.64-.251 5.994h.038c.368-1.122 1.025-2.823 1.412-3.828l1.914-5.046h2.3v13.03h-2.223v-2.938c0-2.61.097-4.544.155-5.858h-.04c-.29 1.179-.87 2.745-1.294 3.828l-1.914 4.968h-2.34zm9.912 0h2.475v5.664h.193l2.127-5.664h2.784l-2.997 6.032c1.334.502 1.779 1.72 2.146 3.306.29 1.256.503 2.494.89 3.692h-2.533c-.31-.928-.503-1.991-.715-3.016-.31-1.527-.658-2.513-1.702-2.513h-.193v5.53h-2.475zm13.471 10.053h-2.339l-.58 2.977h-2.456l2.823-13.03h3.035l2.533 13.03h-2.455zm-2.088-1.972h1.856l-.425-2.726a97 97 0 0 1-.426-2.958h-.058c-.135.87-.328 2.223-.464 2.977zm9.612 4.91V1.497c.773-.174 1.779-.251 2.881-.251 1.218 0 2.397.154 3.306.928.696.58.986 1.45.986 2.358 0 1.16-.6 2.282-1.895 2.842v.078c1.508.425 2.32 1.682 2.32 3.112 0 1.083-.348 1.914-.967 2.552-.773.851-2.088 1.315-4.272 1.315-.967 0-1.779-.058-2.359-.135m2.533-11.077v3.441h.541c.909 0 1.605-.773 1.605-1.837 0-.947-.445-1.682-1.489-1.682-.271 0-.503.02-.657.078m0 5.316v3.906c.154.038.328.038.56.038 1.025 0 1.876-.618 1.876-1.952 0-1.296-.89-1.972-1.895-1.992zm6.542-4.678-.425-1.953c.561-.387 1.643-.754 2.881-.754 2.474 0 3.634 1.508 3.634 3.21 0 1.333-.889 2.629-2.204 2.957v.039c1.528.31 2.591 1.47 2.591 3.267 0 2.494-2.127 3.867-4.466 3.867-1.083 0-2.03-.251-2.629-.58l.367-2.069c.561.329 1.295.522 2.011.522 1.353 0 2.068-.773 2.068-1.817 0-1.45-1.198-2.03-2.571-2.03h-.367V6.6h.251c1.16 0 2.32-.56 2.32-1.76 0-.908-.561-1.527-1.643-1.527-.6 0-1.315.252-1.818.542m9.174-2.552h6.709v10.865l1.024.039-.116 4.968h-1.914l-.096-2.842h-5.665l-.097 2.842h-1.933l-.097-4.968.928-.039c.406-.986.677-1.972.89-3.035.251-1.489.367-3.016.367-4.544zm2.32 2.204v1.508c0 1.488-.097 2.996-.309 4.388-.155.928-.387 1.934-.658 2.726h2.842V3.507zm5.398-2.204h2.726l1.199 4.91c.174.735.328 1.508.425 2.088h.058c.116-.618.193-1.411.309-2.146l.87-4.852h2.572l-1.934 6.94c-.444 1.644-.947 3.422-1.604 4.544-.619 1.024-1.566 1.701-2.649 1.701-.445 0-.773-.039-1.025-.116l.097-2.069c.116.02.309.058.619.058.657 0 1.198-.676 1.392-1.314.096-.271.077-.484-.02-.774zm11.166 13.03V3.642h-2.301v-2.34h7.154v2.34h-2.32v10.691zm6.178-13.03h2.243v2.88c0 2.398-.155 4.64-.251 5.994h.038c.368-1.122 1.025-2.823 1.412-3.828l1.914-5.046h2.3v13.03h-2.223v-2.938c0-2.61.097-4.544.155-5.858h-.039c-.29 1.179-.87 2.745-1.295 3.828l-1.914 4.968h-2.34zm11.594 13.03h-2.687c.174-.386.348-.889.503-1.392.348-1.314.348-3.132 1.314-4.156.232-.252.58-.464.928-.561v-.039c-1.372-.425-2.242-1.488-2.242-3.132 0-1.334.502-2.262 1.198-2.842.832-.676 1.992-.966 3.306-.966.967 0 1.972.077 2.765.251v12.837h-2.533v-5.2h-.27c-.445 0-.793.174-1.044.483-.561.715-.658 2.61-.87 3.577-.097.386-.194.773-.368 1.14m2.552-7.172V3.275c-.135-.02-.29-.058-.502-.058-1.18 0-1.682.947-1.682 1.933 0 1.237.734 2.03 1.836 2.03.155 0 .213 0 .348-.02M.788 20.303h2.243v2.88c0 2.398-.155 4.64-.252 5.994h.04c.366-1.122 1.024-2.823 1.41-3.828l1.914-5.046h2.301v13.03H6.221v-2.938c0-2.61.096-4.544.154-5.858h-.038c-.29 1.179-.87 2.745-1.296 3.828l-1.914 4.968H.788zm14.246 0h6.709v10.865l1.025.039-.116 4.968h-1.914l-.097-2.842h-5.665l-.096 2.842h-1.934l-.096-4.968.928-.039c.406-.986.676-1.972.889-3.035.251-1.489.367-3.016.367-4.544zm2.32 2.204v1.508a29.5 29.5 0 0 1-.309 4.388c-.155.928-.387 1.934-.657 2.726h2.842v-8.622zm6.827-2.204h2.242v2.88c0 2.398-.154 4.64-.251 5.994h.039c.367-1.122 1.024-2.823 1.411-3.828l1.914-5.046h2.3v13.03h-2.223v-2.938c0-2.61.097-4.544.155-5.858h-.039c-.29 1.179-.87 2.745-1.295 3.828l-1.914 4.968h-2.34zM38.5 30.356h-2.34l-.58 2.977h-2.455l2.823-13.03h3.035l2.533 13.03H39.06zm-2.088-1.972h1.856l-.426-2.726a99 99 0 0 1-.425-2.958h-.058c-.135.87-.329 2.223-.464 2.977zm6.535 4.95V20.495c.715-.155 1.682-.251 2.648-.251 1.508 0 2.688.212 3.538 1.005.774.677 1.122 1.76 1.122 2.861 0 1.412-.426 2.398-1.102 3.132-.812.851-2.127 1.238-3.171 1.238h-.503v4.852zM45.48 22.39v4.021c.116.039.252.039.406.039 1.276 0 1.856-.909 1.856-2.127 0-1.14-.464-2.03-1.643-2.03-.232 0-.464.039-.619.097m11.814 3.112v2.108h-2.978v3.518h3.364v2.204h-5.897v-13.03h5.665v2.204h-3.132v2.996zm2.098-5.2h2.243v2.88c0 2.398-.155 4.64-.251 5.994h.038c.368-1.122 1.025-2.823 1.412-3.828l1.914-5.046h2.3v13.03h-2.223v-2.938c0-2.61.097-4.544.155-5.858h-.04c-.29 1.179-.87 2.745-1.294 3.828l-1.914 4.968h-2.34z"/></svg>