<svg xmlns="http://www.w3.org/2000/svg" fill="none" viewBox="0 0 563 52"><path fill="#fff" d="M7.47 29.469h6.115V19.64h-.044zm15.462 5.503h-2.271v4.587c0 .655-.131 1.048-.306 1.223-.218.174-.655.218-1.267.218h-3.844c-.699 0-1.135-.044-1.354-.218-.218-.175-.306-.568-.306-1.223v-4.587H2.447q-.917 0-1.18-.262-.261-.262-.261-1.18v-1.048c0-.873.043-1.528.174-1.965.088-.393.393-.961.83-1.66l9.13-14.72c.349-.568.655-.961 1.004-1.136q.525-.262 1.441-.262h5.286c.699 0 1.18.131 1.441.35.219.262.35.742.35 1.485v14.894h2.271c.524 0 .83.088 1.005.219.13.175.218.48.218.96v3.146c0 .524-.087.83-.218.96-.175.175-.48.22-1.005.22m7.385-1.18h.612c1.31 0 2.228.35 2.795.962.568.655.874 1.616.874 2.926v.568c0 1.354-.437 3.014-1.223 5.023a19.1 19.1 0 0 1-3.45 5.504c-.263.35-.569.48-.874.48-.175 0-.437-.043-.7-.218l-2.183-1.31c-.524-.262-.568-.7-.131-1.267.393-.524.96-1.354 1.747-2.533.524-.787.786-1.355.786-1.791 0-.219-.13-.393-.35-.568l-.436-.306c-.743-.524-1.092-1.441-1.092-2.752v-1.223c0-2.315 1.18-3.494 3.625-3.494m25.424-15.244h-8.823c-.437 0-.612.219-.612.568l-.13 4.063q1.965-.656 4.323-.656h.437c2.796 0 4.849.656 6.16 1.922 1.397 1.398 2.14 3.713 2.14 6.945v.612c0 3.32-.961 5.722-2.796 7.25-1.747 1.442-4.455 2.141-8.124 2.141h-.437q-4.26 0-8.649-1.572c-.611-.175-.873-.524-.873-1.005 0-.175.043-.568.218-1.18l.611-2.227c.175-.612.394-1.005.7-1.18.261-.13.61-.087 1.048.088 2.446.917 4.673 1.354 6.683 1.354h.437c1.266 0 2.27-.262 3.057-.786q1.048-.656 1.048-2.883v-.306c0-1.31-.305-2.271-.917-2.795-.568-.48-1.398-.743-2.49-.743h-.262q-2.293 0-5.11 1.048c-.437.175-.743.219-.874.219-.262 0-.611-.131-1.005-.393l-1.397-.918c-.437-.305-.655-.698-.655-1.135 0-.262 0-.83.087-1.747l.568-11.183c0-.873.524-1.31 1.485-1.31h14.24c.524 0 .917.087 1.091.262.175.175.306.48.306 1.005v3.363c0 .48-.13.786-.306.961-.218.175-.611.219-1.179.219m22.062 1.617v.436c0 2.883-.743 4.936-2.14 6.247-1.31 1.048-3.014 1.572-5.024 1.572-2.27 0-3.974-.568-5.154-1.703-1.31-1.223-1.965-3.145-1.965-5.679v-1.31c0-2.534.655-4.412 1.965-5.679 1.18-1.135 2.883-1.703 5.154-1.703 2.01 0 3.713.524 5.024 1.572 1.397 1.31 2.14 3.407 2.14 6.247M70.377 39.82l16.118-26.558c.219-.35.48-.611.743-.742.262-.088.655-.175 1.223-.175h3.189c1.354 0 1.747.524 1.135 1.572L76.667 40.476c-.262.393-.48.655-.742.742-.262.131-.7.175-1.223.175h-3.189c-1.398 0-1.747-.524-1.136-1.572m-.96-20.617v2.358c0 .918.087 1.53.305 1.835.175.306.48.437.874.437h.087c.35 0 .655-.131.874-.437.174-.306.305-.917.305-1.835v-2.358c0-.874-.13-1.485-.305-1.791-.219-.306-.524-.48-.874-.48h-.087c-.393 0-.7.174-.874.48-.218.306-.306.917-.306 1.79m30.663 13.934v.436c0 2.883-.743 4.936-2.14 6.247-1.311 1.048-3.014 1.572-5.024 1.572-2.271 0-3.975-.568-5.154-1.703-1.31-1.223-1.966-3.102-1.966-5.679v-1.31c0-2.534.656-4.456 1.966-5.679 1.18-1.135 2.883-1.703 5.154-1.703 2.01 0 3.713.524 5.023 1.572 1.398 1.31 2.141 3.407 2.141 6.247m-8.387-.961v2.358c0 .918.088 1.53.306 1.835.175.306.48.437.874.437h.087c.35 0 .655-.131.874-.437.174-.306.305-.917.305-1.835v-2.358c0-.874-.13-1.485-.305-1.791-.219-.306-.525-.48-.874-.48h-.087c-.394 0-.7.174-.874.48-.218.306-.306.917-.306 1.79m22.772-2.802h.187c1.351 0 2.352.326 2.958.955.559.606.862 1.631.862 3.076v6.918c0 .233-.07.42-.186.513-.117.116-.326.163-.606.163h-2.143c-.303 0-.513-.047-.629-.163-.117-.093-.163-.28-.163-.513v-6.592c0-.513-.093-.886-.257-1.072-.186-.186-.535-.303-1.025-.303h-.139c-.513 0-.839.117-1.025.303-.187.186-.257.56-.257 1.072v6.592c0 .233-.07.42-.186.513-.116.116-.326.163-.606.163h-2.143c-.303 0-.512-.047-.629-.163-.116-.093-.163-.28-.163-.513V30.237c0-.233.047-.396.163-.489.117-.093.326-.163.629-.163h1.095c.28 0 .466.047.582.116q.175.105.28.42l.14.442h.07c.745-.792 1.793-1.188 3.191-1.188m12.959 10.67h-.047c-.513.792-1.538 1.165-3.052 1.165h-.349c-1.188 0-2.12-.303-2.772-.909-.676-.606-1.002-1.514-1.002-2.679v-.256c0-1.258.349-2.167 1.071-2.68.723-.512 1.887-.768 3.518-.768h.163c.606 0 1.165.047 1.631.093v-.489c0-.49-.14-.839-.396-1.025-.28-.163-.746-.256-1.398-.256-.792 0-1.677.14-2.702.396-.28.07-.489.07-.583 0-.116-.07-.186-.21-.209-.443l-.187-1.235c-.046-.21-.046-.372-.046-.465 0-.28.186-.49.559-.606a15 15 0 0 1 3.983-.513c1.794 0 3.076.396 3.821 1.142.582.605.885 1.584.885 2.912v6.919c0 .233-.07.419-.186.512-.117.093-.326.14-.606.14h-1.095c-.279 0-.466-.023-.582-.093-.117-.07-.21-.21-.28-.443zm-.839-2.982v-.652q-.384-.07-1.118-.07h-.257q-.838 0-1.188.21c-.233.14-.326.419-.326.838v.093c0 .42.093.7.326.839.21.163.536.233.979.233h.163c.466 0 .815-.117 1.095-.35.209-.186.326-.582.326-1.141m14.714-.582v3.843c0 .233-.07.42-.187.513-.116.116-.326.163-.605.163h-2.143c-.303 0-.513-.047-.629-.163-.117-.093-.163-.28-.163-.513v-14.42c0-.233.046-.396.163-.512.116-.093.326-.163.629-.163h2.143c.279 0 .489.07.605.163.117.116.187.28.187.512V33.5h.163l2.213-3.378c.21-.35.536-.536.978-.536h2.703c.256 0 .396.093.396.28 0 .093-.07.256-.187.442l-2.679 4.007c-.209.326-.302.56-.302.699 0 .163.093.396.302.699l2.866 4.52c.093.186.14.302.14.395 0 .256-.163.373-.49.373h-2.585c-.327 0-.583-.023-.723-.117q-.209-.104-.419-.489l-2.213-3.913zm10.98-2.097V36.2c0 .909.14 1.491.419 1.77.21.234.536.327.979.327h.093c.419 0 .745-.093.978-.327.28-.279.42-.861.42-1.77v-1.817c0-.885-.14-1.491-.42-1.77-.233-.21-.559-.327-.978-.327h-.093c-.443 0-.769.117-.979.326-.279.28-.419.886-.419 1.77m6.639.14v1.514c0 1.165-.116 2.05-.349 2.702a3.34 3.34 0 0 1-1.118 1.561c-.769.606-1.957.909-3.588.909h-.28c-1.63 0-2.842-.303-3.587-.909a3.33 3.33 0 0 1-1.118-1.56c-.233-.653-.35-1.538-.35-2.703v-1.491c0-1.141.117-2.027.35-2.679a3.5 3.5 0 0 1 1.118-1.584c.745-.606 1.957-.909 3.587-.909h.28c1.631 0 2.819.303 3.588.909.512.42.885.932 1.118 1.56.233.653.349 1.538.349 2.68m8.145-5.149h.187c1.351 0 2.352.326 2.958.955.559.606.862 1.631.862 3.076v6.918c0 .233-.07.42-.186.513-.117.116-.326.163-.606.163h-2.143c-.303 0-.513-.047-.629-.163-.117-.093-.163-.28-.163-.513v-6.592c0-.513-.093-.886-.257-1.072-.186-.186-.535-.303-1.025-.303h-.139c-.513 0-.839.117-1.025.303-.187.186-.257.56-.257 1.072v6.592c0 .233-.07.42-.186.513-.116.116-.326.163-.606.163h-2.143c-.303 0-.512-.047-.629-.163-.116-.093-.163-.28-.163-.513V30.237c0-.233.047-.396.163-.489.117-.093.326-.163.629-.163h1.095c.28 0 .466.047.582.116q.175.105.28.42l.14.442h.07c.745-.792 1.793-1.188 3.191-1.188m11.584 8.83h.186c.629 0 1.305-.094 2.027-.303.233-.047.373-.07.443-.07.233 0 .373.14.419.396l.21 1.188c.046.326.093.536.093.629 0 .28-.21.49-.606.629-1.025.373-2.143.536-3.354.536h-.28c-1.677 0-2.912-.373-3.681-1.165q-1.188-1.188-1.188-3.984v-1.35c0-1.096.093-1.958.28-2.563a3.65 3.65 0 0 1 .908-1.538c.816-.815 2.097-1.235 3.844-1.235h.233c1.398 0 2.609.257 3.588.77.279.162.442.349.442.582 0 .14-.07.372-.186.698l-.443 1.119q-.174.42-.489.419a.95.95 0 0 1-.419-.117c-.746-.302-1.445-.465-2.074-.465h-.093c-.605 0-1.048.163-1.328.442-.349.35-.512 1.072-.512 2.143v.792c0 .956.14 1.608.466 1.957.303.326.815.49 1.514.49m8.995-7.944v10.063c0 .233-.07.42-.187.513-.116.116-.326.163-.605.163h-2.144c-.302 0-.512-.047-.629-.163-.116-.093-.163-.28-.163-.513V30.261c0-.233.047-.396.163-.513.117-.093.327-.163.629-.163h2.144c.279 0 .489.07.605.163.117.116.187.28.187.512m-1.724-1.561h-.28c-1.258 0-1.887-.63-1.887-1.934v-.116c0-1.282.629-1.934 1.887-1.934h.28c1.258 0 1.887.652 1.887 1.934v.116c0 1.305-.629 1.934-1.887 1.934m9.682 9.505h.256c.793 0 1.631-.094 2.47-.303.233-.047.373-.07.442-.07.233 0 .373.14.42.396l.186 1.165c.047.326.093.535.093.629 0 .28-.209.489-.605.629-1.072.372-2.26.559-3.518.559h-.443q-2.865 0-4.053-1.188a3.34 3.34 0 0 1-.932-1.585c-.163-.605-.233-1.42-.233-2.422V34.71c0-2.027.466-3.448 1.398-4.286.792-.7 2.003-1.049 3.657-1.049h.326c1.631 0 2.819.396 3.518 1.165.746.839 1.118 2.213 1.118 4.17v1.212c0 .442-.233.652-.675.652h-5.591v.186c0 .56.139.932.466 1.142.302.21.862.303 1.7.303m-2.166-4.054h2.562c.187 0 .28-.093.28-.303v-.373c0-.465-.093-.815-.233-1.071-.187-.28-.559-.42-1.072-.42h-.209c-.466 0-.793.117-.979.327q-.35.42-.349 1.258zm16.675.233V36.2c0 .909.14 1.491.42 1.77.209.234.536.327.978.327h.093c.42 0 .746-.093.979-.327.279-.279.419-.861.419-1.77v-1.817c0-.885-.14-1.491-.419-1.77-.233-.21-.559-.327-.979-.327h-.093c-.442 0-.769.117-.978.326-.28.28-.42.886-.42 1.77m6.64.14v1.514c0 1.165-.117 2.05-.35 2.702a3.33 3.33 0 0 1-1.118 1.561c-.769.606-1.957.909-3.587.909h-.28c-1.631 0-2.842-.303-3.588-.909a3.34 3.34 0 0 1-1.118-1.56c-.233-.653-.349-1.538-.349-2.703v-1.491c0-1.141.116-2.027.349-2.679a3.53 3.53 0 0 1 1.118-1.584c.746-.606 1.957-.909 3.588-.909h.28c1.63 0 2.818.303 3.587.909.513.42.885.932 1.118 1.56.233.653.35 1.538.35 2.68m1.692-1.188v-.303c0-1.142.303-2.004.908-2.61.699-.698 1.887-1.048 3.541-1.048h.233c1.305 0 2.446.14 3.401.42q.28.105.35.21c.046.093.07.209.046.395l-.256 1.91c-.046.303-.256.397-.629.303-.932-.21-1.77-.326-2.469-.326h-.024c-.512 0-.885.047-1.071.14-.21.093-.303.256-.303.49v.07c0 .232.07.395.256.488.187.094.536.21 1.072.303l1.095.233c1.002.233 1.724.583 2.143 1.048s.629 1.189.629 2.144v.35c0 2.445-1.537 3.657-4.566 3.657h-.233c-1.537 0-2.819-.21-3.89-.63-.21-.07-.35-.162-.396-.279-.047-.093-.047-.28 0-.536l.326-1.537c.07-.443.326-.583.792-.443 1.071.373 2.003.536 2.795.536h.07c.513 0 .862-.047 1.072-.163.186-.093.303-.28.303-.536v-.07a.5.5 0 0 0-.257-.442q-.28-.14-1.118-.35l-1.025-.233q-1.538-.35-2.166-1.048c-.42-.466-.629-1.165-.629-2.143m14.656-.792h-3.704c-.233 0-.396-.024-.49-.117s-.116-.28-.116-.559v-1.607c0-.28.023-.443.116-.536q.14-.14.49-.14h7.874c.233 0 .396.047.512.14.093.093.163.28.163.535v.443c0 .606-.186 1.165-.512 1.654l-4.007 5.684h3.984c.232 0 .372.047.465.14s.14.256.14.536v1.607q0 .42-.14.56c-.093.093-.233.116-.465.116h-8.014c-.49 0-.722-.21-.722-.676v-.535c0-.606.163-1.142.512-1.654zm11.844 5.66h.186c.629 0 1.305-.093 2.027-.302.233-.047.372-.07.442-.07.233 0 .373.14.42.396l.209 1.188c.047.326.094.536.094.629 0 .28-.21.49-.606.629-1.025.373-2.143.536-3.355.536h-.279c-1.678 0-2.912-.373-3.681-1.165q-1.188-1.188-1.188-3.984v-1.35c0-1.096.093-1.958.279-2.563q.28-.91.909-1.538c.815-.815 2.097-1.235 3.844-1.235h.233c1.397 0 2.609.257 3.587.77.28.162.443.349.443.582 0 .14-.07.372-.186.698l-.443 1.119q-.175.42-.489.419a.95.95 0 0 1-.42-.117c-.745-.302-1.444-.465-2.073-.465h-.093c-.606 0-1.049.163-1.328.442-.35.35-.513 1.072-.513 2.143v.792c0 .956.14 1.608.466 1.957.303.326.816.49 1.515.49m9.018-5.66h-3.705c-.233 0-.396-.024-.489-.117s-.116-.28-.116-.559v-1.607c0-.28.023-.443.116-.536q.14-.14.489-.14h7.874c.233 0 .397.047.513.14.093.093.163.28.163.535v.443c0 .606-.186 1.165-.512 1.654l-4.007 5.684h3.983c.233 0 .373.047.466.14s.14.256.14.536v1.607q0 .42-.14.56c-.093.093-.233.116-.466.116h-8.014c-.489 0-.722-.21-.722-.676v-.535c0-.606.163-1.142.513-1.654zm12.03 5.66h.256c.792 0 1.631-.093 2.469-.302.233-.047.373-.07.443-.07.233 0 .373.14.419.396l.187 1.165c.046.326.093.535.093.629 0 .28-.21.489-.606.629a3.4 3.4 0 0 0-1.491 1.118c-.396.512-.582 1.025-.582 1.49v.07c0 .443.209.653.629.653h.116c.257 0 .583-.047.955-.187.117-.023.21-.046.28-.046.116 0 .21.116.28.303l.116.489c.07.326.116.49.116.536 0 .14-.116.256-.326.35a5.2 5.2 0 0 1-1.887.349h-.139c-.816 0-1.421-.163-1.841-.513s-.629-.838-.629-1.49v-.07c0-.42.14-.886.443-1.352s.699-.838 1.211-1.165c-.186.024-.442.024-.769.024h-.442q-2.866 0-4.054-1.188a3.35 3.35 0 0 1-.932-1.585c-.163-.605-.232-1.42-.232-2.422V34.71c0-2.027.465-3.448 1.397-4.286.792-.7 2.004-1.049 3.658-1.049h.326c1.631 0 2.819.396 3.518 1.165.745.839 1.118 2.213 1.118 4.17v1.212c0 .442-.233.652-.676.652h-5.591v.186c0 .56.14.932.466 1.142.303.21.862.303 1.701.303m-2.167-4.053h2.563c.186 0 .279-.093.279-.303v-.373c0-.465-.093-.815-.233-1.071-.186-.28-.559-.42-1.071-.42h-.21c-.466 0-.792.117-.978.327q-.35.42-.35 1.258zm14.631 2.726v-2.959c0-.582-.094-1.002-.28-1.235-.21-.233-.582-.372-1.095-.372h-.233c-.512 0-.862.14-1.071.396-.233.256-.327.978-.327 2.19v1.025c0 1.118.117 1.817.35 2.05.186.233.536.326 1.071.326h.257c.442 0 .769-.093 1.001-.303.21-.21.327-.583.327-1.118m-.047-7.082h.047v-3.89c0-.234.046-.397.163-.513.116-.093.326-.163.629-.163h2.166c.28 0 .489.07.606.163.093.116.163.28.163.512v10.6c0 1.63-.303 2.749-.909 3.401a3.6 3.6 0 0 1-1.607 1.002c-.652.21-1.514.303-2.609.303h-.396c-1.724 0-2.959-.35-3.751-1.049-.815-.699-1.211-2.003-1.211-3.937v-1.863c0-1.864.373-3.169 1.165-3.914.745-.699 1.77-1.072 3.098-1.072h.279q1.329 0 2.167.42m12.144-.42h.187c1.351 0 2.352.326 2.958.955.559.606.862 1.631.862 3.076v6.918c0 .233-.07.42-.186.513-.117.116-.326.163-.606.163h-2.143c-.303 0-.513-.047-.629-.163-.117-.093-.163-.28-.163-.513v-6.592c0-.513-.093-.886-.257-1.072-.186-.186-.535-.303-1.025-.303h-.139c-.513 0-.839.117-1.025.303-.187.186-.257.56-.257 1.072v6.592c0 .233-.07.42-.186.513-.116.116-.326.163-.606.163h-2.143c-.303 0-.512-.047-.629-.163-.116-.093-.163-.28-.163-.513V30.237c0-.233.047-.396.163-.489.117-.093.326-.163.629-.163h1.095c.28 0 .466.047.582.116q.175.105.28.42l.14.442h.07c.745-.792 1.793-1.188 3.191-1.188m9.604 5.009V36.2c0 .909.14 1.491.419 1.77.21.234.536.327.979.327h.093c.419 0 .745-.093.978-.327.28-.279.42-.861.42-1.77v-1.817c0-.885-.14-1.491-.42-1.77-.233-.21-.559-.327-.978-.327h-.093c-.443 0-.769.117-.979.326-.279.28-.419.886-.419 1.77m6.639.14v1.514c0 1.165-.116 2.05-.349 2.702a3.34 3.34 0 0 1-1.118 1.561c-.769.606-1.957.909-3.588.909h-.279c-1.631 0-2.843-.303-3.588-.909a3.33 3.33 0 0 1-1.118-1.56c-.233-.653-.35-1.538-.35-2.703v-1.491c0-1.141.117-2.027.35-2.679a3.5 3.5 0 0 1 1.118-1.584c.745-.606 1.957-.909 3.588-.909h.279c1.631 0 2.819.303 3.588.909.512.42.885.932 1.118 1.56.233.653.349 1.538.349 2.68m1.692-1.188v-.303c0-1.142.303-2.004.909-2.61.699-.698 1.887-1.048 3.541-1.048h.233c1.304 0 2.446.14 3.401.42q.28.105.349.21c.047.093.07.209.047.395l-.256 1.91c-.047.303-.257.397-.629.303-.932-.21-1.771-.326-2.47-.326h-.023c-.513 0-.885.047-1.072.14-.209.093-.302.256-.302.49v.07c0 .232.069.395.256.488.186.094.536.21 1.071.303l1.095.233c1.002.233 1.724.583 2.144 1.048.419.466.629 1.189.629 2.144v.35c0 2.445-1.538 3.657-4.566 3.657h-.233c-1.538 0-2.819-.21-3.891-.63-.21-.07-.349-.162-.396-.279-.047-.093-.047-.28 0-.536l.326-1.537c.07-.443.326-.583.792-.443 1.072.373 2.004.536 2.796.536h.07c.512 0 .862-.047 1.071-.163.187-.093.303-.28.303-.536v-.07a.5.5 0 0 0-.256-.442q-.28-.14-1.118-.35l-1.025-.233q-1.538-.35-2.167-1.048c-.419-.466-.629-1.165-.629-2.143m2.167-6.826 3.657-3.122c.14-.14.303-.21.443-.21.163 0 .326.117.466.303l1.118 1.445c.093.14.14.256.14.396 0 .186-.14.373-.373.559l-3.681 2.516c-.186.116-.326.163-.466.163-.186 0-.372-.093-.559-.326l-.699-.816c-.186-.21-.256-.396-.256-.535 0-.14.07-.28.21-.373m14.05 11.695h.186c.629 0 1.305-.094 2.027-.303.233-.047.373-.07.443-.07.233 0 .373.14.419.396l.21 1.188c.046.326.093.536.093.629 0 .28-.21.49-.606.629-1.025.373-2.143.536-3.354.536h-.28c-1.677 0-2.912-.373-3.681-1.165q-1.188-1.188-1.188-3.984v-1.35c0-1.096.093-1.958.28-2.563a3.65 3.65 0 0 1 .908-1.538c.816-.815 2.097-1.235 3.844-1.235h.233c1.398 0 2.609.257 3.588.77.279.162.442.349.442.582 0 .14-.07.372-.186.698l-.443 1.119q-.174.42-.489.419a.95.95 0 0 1-.419-.117c-.746-.302-1.445-.465-2.074-.465h-.093c-.605 0-1.048.163-1.328.442-.349.35-.512 1.072-.512 2.143v.792c0 .956.14 1.608.466 1.957.303.326.815.49 1.514.49m8.995-7.944v10.063c0 .233-.07.42-.187.513-.116.116-.326.163-.605.163h-2.144c-.302 0-.512-.047-.629-.163-.116-.093-.163-.28-.163-.513V30.261c0-.233.047-.396.163-.513.117-.093.327-.163.629-.163h2.144c.279 0 .489.07.605.163.117.116.187.28.187.512m-1.724-1.561h-.28c-1.258 0-1.887-.63-1.887-1.934v-.116c0-1.282.629-1.934 1.887-1.934h.28c1.258 0 1.887.652 1.887 1.934v.116c0 1.305-.629 1.934-1.887 1.934m7.516 5.684V36.2c0 .909.139 1.491.419 1.77.21.234.536.327.978.327h.094c.419 0 .745-.093.978-.327.28-.279.419-.861.419-1.77v-1.817c0-.885-.139-1.491-.419-1.77-.233-.21-.559-.327-.978-.327h-.094c-.442 0-.768.117-.978.326-.28.28-.419.886-.419 1.77m6.639.14v1.514c0 1.165-.116 2.05-.349 2.702a3.33 3.33 0 0 1-1.119 1.561c-.768.606-1.956.909-3.587.909h-.28c-1.63 0-2.842-.303-3.587-.909a3.33 3.33 0 0 1-1.119-1.56c-.232-.653-.349-1.538-.349-2.703v-1.491c0-1.141.117-2.027.349-2.679a3.5 3.5 0 0 1 1.119-1.584c.745-.606 1.957-.909 3.587-.909h.28c1.631 0 2.819.303 3.587.909.513.42.886.932 1.119 1.56.233.653.349 1.538.349 2.68m7.959-4.38h2.003c.326 0 .559.047.676.14s.209.28.256.559c0 .093.419 2.167 1.235 6.197h.069c.42-2.446.792-4.706 1.095-6.803.024-.256.094-.42.187-.512q.14-.14.489-.14h2.376c.256 0 .419.07.513.163.069.116.093.303.046.536-.373 1.817-.838 3.82-1.351 6.01-.512 2.19-.885 3.565-1.118 4.147-.093.233-.21.396-.326.466s-.303.093-.536.093h-2.563c-.489 0-.792-.163-.885-.536-.443-1.584-.815-3.587-1.141-6.01h-.094a64 64 0 0 1-1.164 6.01c-.094.373-.373.536-.839.536h-2.516c-.466 0-.769-.163-.885-.513-.233-.629-.629-2.073-1.188-4.31a108 108 0 0 1-1.305-5.893c-.07-.256-.047-.443.047-.536.093-.093.279-.163.559-.163h2.283c.233 0 .419.047.536.14.093.093.163.28.209.512a197 197 0 0 0 1.142 6.803h.093c.559-2.889.955-4.962 1.141-6.197.047-.303.117-.49.233-.582.117-.07.35-.117.723-.117m20.521.14c-.326 2.19-.932 4.612-1.817 7.291a49.5 49.5 0 0 1-3.285 7.595c-.163.326-.373.49-.652.49-.187 0-.396-.047-.676-.187l-1.188-.513c-.419-.186-.606-.372-.606-.582a.8.8 0 0 1 .117-.396c.792-1.608 1.258-2.54 1.351-2.796-.652-.233-1.142-.745-1.514-1.584-.42-.932-.909-2.353-1.445-4.31q-.803-2.935-1.188-5.032c-.046-.232-.023-.396.093-.512.117-.093.327-.163.606-.163h2.12c.256 0 .443.047.559.116.117.07.21.21.256.443.536 2.935 1.142 5.544 1.818 7.804h.116c.652-1.864 1.258-4.426 1.817-7.734q.035-.35.21-.49c.116-.092.303-.139.536-.139h2.143c.256 0 .442.07.536.163.093.093.116.28.093.536m11.425 3.448v6.592c0 .233-.07.42-.187.513-.116.116-.326.163-.605.163h-2.144c-.303 0-.512-.047-.629-.163-.116-.093-.163-.28-.163-.513v-6.592c0-.513-.093-.886-.256-1.072-.186-.186-.536-.303-1.025-.303h-.047c-.512 0-.838.117-1.025.303s-.256.56-.256 1.072v6.592c0 .233-.07.42-.186.513-.117.116-.326.163-.606.163h-2.143c-.303 0-.513-.047-.629-.163-.117-.093-.163-.28-.163-.513V30.237c0-.233.046-.396.163-.489.116-.093.326-.163.629-.163h1.095c.279 0 .466.047.582.116q.175.105.28.42l.139.442h.07c.746-.792 1.794-1.188 3.192-1.188h.093c1.328 0 2.353.373 3.075 1.072.746-.699 1.817-1.072 3.168-1.072h.094c1.351 0 2.353.326 2.958.955.559.606.862 1.631.862 3.076v6.918c0 .233-.07.42-.186.513-.117.116-.326.163-.606.163h-2.143c-.303 0-.513-.047-.629-.163-.117-.093-.163-.28-.163-.513v-6.592c0-.513-.093-.886-.256-1.072-.187-.186-.536-.303-1.025-.303h-.047c-.513 0-.839.117-1.025.303s-.256.56-.256 1.072m17.323.163v2.982c0 .535.093.908.326 1.118.187.21.536.303 1.049.303h.209c.536 0 .909-.14 1.142-.466q.279-.42.279-2.027v-1.002c0-1.164-.116-1.887-.303-2.12-.209-.233-.605-.372-1.164-.372h-.094c-.535 0-.908.116-1.141.349-.21.21-.303.629-.303 1.235m0-3.89h.047q1.013-.63 2.655-.63h.21c1.398 0 2.423.42 3.052 1.258.512.723.792 2.004.792 3.844v1.677c0 1.864-.396 3.169-1.188 3.89-.839.793-2.167 1.166-3.984 1.166h-.466c-1.91 0-3.215-.373-3.913-1.142-.629-.675-.932-1.77-.932-3.308V25.904c0-.233.046-.396.163-.512.093-.093.303-.163.606-.163h2.166c.28 0 .489.07.606.163.116.116.186.28.186.512zm14.307 8.2h.256c.792 0 1.631-.094 2.47-.303.233-.047.372-.07.442-.07.233 0 .373.14.42.396l.186 1.165c.047.326.093.535.093.629 0 .28-.21.489-.606.629-1.071.372-2.259.559-3.517.559h-.443q-2.865 0-4.053-1.188a3.34 3.34 0 0 1-.932-1.585c-.163-.605-.233-1.42-.233-2.422V34.71c0-2.027.466-3.448 1.398-4.286.792-.7 2.003-1.049 3.657-1.049h.326c1.631 0 2.819.396 3.518 1.165.745.839 1.118 2.213 1.118 4.17v1.212c0 .442-.233.652-.676.652h-5.591v.186c0 .56.14.932.466 1.142.303.21.862.303 1.701.303m-2.167-4.054h2.563c.186 0 .28-.093.28-.303v-.373c0-.465-.094-.815-.233-1.071-.187-.28-.56-.42-1.072-.42h-.21c-.466 0-.792.117-.978.327q-.35.42-.35 1.258zm12.045-1.607h-3.704c-.233 0-.396-.024-.489-.117s-.117-.28-.117-.559v-1.607c0-.28.024-.443.117-.536q.14-.14.489-.14h7.874c.233 0 .396.047.513.14.093.093.163.28.163.535v.443c0 .606-.187 1.165-.513 1.654l-4.007 5.684h3.984c.233 0 .373.047.466.14s.139.256.139.536v1.607q0 .42-.139.56c-.093.093-.233.116-.466.116h-8.014c-.489 0-.722-.21-.722-.676v-.535c0-.606.163-1.142.512-1.654zm15.706 5.428h.746c.233 0 .419.07.512.163.093.116.163.326.163.629v1.444c0 .326-.07.536-.163.629-.093.116-.279.163-.512.163h-1.771c-1.165 0-1.98-.21-2.446-.676-.466-.442-.699-1.234-.699-2.352V25.904c0-.233.047-.396.163-.512.117-.093.327-.163.629-.163h2.144c.279 0 .489.07.605.163.117.116.187.28.187.512V37.53c0 .186.023.303.093.35.046.07.163.093.349.093m6.725-7.712v10.064c0 .233-.07.42-.186.513-.117.116-.327.163-.606.163h-2.143c-.303 0-.513-.047-.629-.163-.117-.093-.163-.28-.163-.513V30.261c0-.233.046-.396.163-.513.116-.093.326-.163.629-.163h2.143c.279 0 .489.07.606.163.116.116.186.28.186.512m-1.724-1.56h-.279c-1.258 0-1.887-.63-1.887-1.934v-.116c0-1.282.629-1.934 1.887-1.934h.279c1.258 0 1.887.652 1.887 1.934v.116c0 1.305-.629 1.934-1.887 1.934m14.202 5.032v6.592c0 .233-.07.42-.186.513-.117.116-.327.163-.606.163h-2.143c-.303 0-.513-.047-.629-.163-.117-.093-.163-.28-.163-.513v-6.592c0-.513-.094-.886-.257-1.072-.186-.186-.536-.303-1.025-.303h-.046c-.513 0-.839.117-1.025.303-.187.186-.257.56-.257 1.072v6.592c0 .233-.069.42-.186.513-.116.116-.326.163-.606.163h-2.143c-.303 0-.512-.047-.629-.163-.116-.093-.163-.28-.163-.513V30.237c0-.233.047-.396.163-.489.117-.093.326-.163.629-.163h1.095c.28 0 .466.047.582.116q.175.105.28.42l.14.442h.07c.745-.792 1.793-1.188 3.191-1.188h.093c1.328 0 2.353.373 3.075 1.072.746-.699 1.818-1.072 3.169-1.072h.093c1.351 0 2.353.326 2.958.955.56.606.862 1.631.862 3.076v6.918c0 .233-.069.42-.186.513-.116.116-.326.163-.606.163h-2.143c-.303 0-.512-.047-.629-.163-.116-.093-.163-.28-.163-.513v-6.592c0-.513-.093-.886-.256-1.072-.187-.186-.536-.303-1.025-.303h-.047c-.512 0-.838.117-1.025.303s-.256.56-.256 1.072m12.319-3.471v10.063c0 .233-.069.42-.186.513-.116.116-.326.163-.606.163h-2.143c-.303 0-.512-.047-.629-.163-.116-.093-.163-.28-.163-.513V30.261c0-.233.047-.396.163-.513.117-.093.326-.163.629-.163h2.143c.28 0 .49.07.606.163.117.116.186.28.186.512m-1.723-1.561h-.28c-1.258 0-1.887-.63-1.887-1.934v-.116c0-1.282.629-1.934 1.887-1.934h.28c1.258 0 1.887.652 1.887 1.934v.116c0 1.305-.629 1.934-1.887 1.934m11.429 10.11v1.328c0 .35-.07.582-.163.699s-.303.163-.582.163h-1.864c-1.677 0-2.796-.28-3.308-.862-.466-.49-.676-1.421-.676-2.819v-4.822h-1.258c-.233 0-.372-.023-.466-.117-.093-.093-.116-.233-.116-.465v-1.188c0-.28.023-.466.116-.56.07-.093.233-.163.49-.233l1.234-.302v-2.283c0-.233.047-.396.163-.513.117-.093.327-.163.629-.163h2.144c.279 0 .489.07.605.163.117.117.187.28.187.513v2.236h1.933c.233 0 .373.047.466.14s.14.256.14.535v1.561q0 .42-.14.56c-.093.093-.233.116-.466.116h-1.933V36.9c0 .42.046.675.186.815.14.163.443.233.909.233h1.025c.279 0 .489.07.582.187s.163.349.163.675m7.89-1.98v-6.57c0-.232.046-.396.163-.512.116-.093.326-.163.629-.163h2.143c.28 0 .489.07.606.163.116.116.186.28.186.512v6.896q0 2.131-1.048 3.075c-.746.652-2.05.979-3.96.979s-3.239-.327-3.961-.979q-1.048-.944-1.048-3.075v-6.895c0-.233.047-.396.163-.513.117-.093.326-.163.629-.163h2.143c.28 0 .489.07.606.163.116.116.186.28.186.512v6.57c0 .536.07.885.257 1.072.186.21.512.303 1.025.303.489 0 .838-.094 1.025-.303.163-.187.256-.536.256-1.072m14.708-.35v3.844c0 .233-.07.42-.186.513-.116.116-.326.163-.606.163h-2.143c-.303 0-.512-.047-.629-.163-.116-.093-.163-.28-.163-.513v-14.42c0-.233.047-.396.163-.512.117-.093.326-.163.629-.163h2.143c.28 0 .49.07.606.163.116.116.186.28.186.512V33.5h.163l2.214-3.378c.209-.35.535-.536.978-.536h2.702c.257 0 .396.093.396.28 0 .093-.07.256-.186.442l-2.679 4.007c-.21.326-.303.56-.303.699 0 .163.093.396.303.699l2.865 4.52c.094.186.14.302.14.395 0 .256-.163.373-.489.373h-2.586c-.326 0-.582-.023-.722-.117q-.21-.104-.419-.489l-2.214-3.913zm13.93-6.336h2.004c.326 0 .559.047.675.14.117.093.21.28.257.559 0 .093.419 2.167 1.234 6.197h.07c.42-2.446.792-4.706 1.095-6.803.023-.256.093-.42.186-.512q.14-.14.49-.14h2.376c.256 0 .419.07.512.163.07.116.094.303.047.536-.373 1.817-.839 3.82-1.351 6.01-.513 2.19-.885 3.565-1.118 4.147-.094.233-.21.396-.327.466-.116.07-.302.093-.535.093h-2.563c-.489 0-.792-.163-.885-.536-.443-1.584-.816-3.587-1.142-6.01h-.093a64 64 0 0 1-1.165 6.01c-.093.373-.372.536-.838.536h-2.516c-.466 0-.769-.163-.886-.513-.232-.629-.629-2.073-1.188-4.31a108 108 0 0 1-1.304-5.893c-.07-.256-.047-.443.046-.536.094-.093.28-.163.56-.163h2.283c.232 0 .419.047.535.14.094.093.163.28.21.512a199 199 0 0 0 1.141 6.803h.094c.559-2.889.955-4.962 1.141-6.197.047-.303.117-.49.233-.582.117-.07.35-.117.722-.117m13.703 4.24V36.2c0 .909.14 1.491.42 1.77.209.234.536.327.978.327h.093c.42 0 .746-.093.979-.327.279-.279.419-.861.419-1.77v-1.817c0-.885-.14-1.491-.419-1.77-.233-.21-.559-.327-.979-.327h-.093c-.442 0-.769.117-.978.326-.28.28-.42.886-.42 1.77m6.64.14v1.514c0 1.165-.117 2.05-.35 2.702a3.33 3.33 0 0 1-1.118 1.561c-.769.606-1.957.909-3.587.909h-.28c-1.631 0-2.842-.303-3.588-.909a3.34 3.34 0 0 1-1.118-1.56c-.233-.653-.349-1.538-.349-2.703v-1.491c0-1.141.116-2.027.349-2.679a3.53 3.53 0 0 1 1.118-1.584c.746-.606 1.957-.909 3.588-.909h.28c1.63 0 2.818.303 3.587.909.513.42.885.932 1.118 1.56.233.653.35 1.538.35 2.68m9.286 4.286v1.328c0 .35-.07.582-.163.699s-.303.163-.582.163h-1.864c-1.677 0-2.796-.28-3.308-.862-.466-.49-.676-1.421-.676-2.819v-4.822h-1.258c-.233 0-.372-.023-.466-.117-.093-.093-.116-.233-.116-.465v-1.188c0-.28.023-.466.116-.56.07-.093.233-.163.49-.233l1.234-.302v-2.283c0-.233.047-.396.163-.513.117-.093.327-.163.629-.163h2.144c.279 0 .489.07.605.163.117.117.187.28.187.513v2.236h1.933c.233 0 .373.047.466.14s.14.256.14.535v1.561q0 .42-.14.56c-.093.093-.233.116-.466.116h-1.933V36.9c0 .42.046.675.186.815.14.163.443.233.909.233h1.025c.279 0 .489.07.582.187s.163.349.163.675m11.641-8.526c-.327 2.19-.932 4.612-1.818 7.291a49.4 49.4 0 0 1-3.284 7.595c-.163.326-.373.49-.653.49-.186 0-.396-.047-.675-.187l-1.188-.513c-.42-.186-.606-.372-.606-.582 0-.093.023-.233.117-.396.792-1.608 1.257-2.54 1.351-2.796-.653-.233-1.142-.745-1.515-1.584-.419-.932-.908-2.353-1.444-4.31q-.804-2.935-1.188-5.032c-.047-.232-.023-.396.093-.512.117-.093.326-.163.606-.163h2.12c.256 0 .442.047.559.116.116.07.21.21.256.443.536 2.935 1.142 5.544 1.817 7.804h.117c.652-1.864 1.258-4.426 1.817-7.734q.035-.35.209-.49c.117-.092.303-.139.536-.139h2.144c.256 0 .442.07.535.163s.117.28.094.536"/></svg>