<svg xmlns="http://www.w3.org/2000/svg" fill="none" viewBox="0 0 416 48"><path fill="#000" d="M1.726 8.42v.367c0 1.495.204 2.474.611 2.95.354.42.897.624 1.617.624.789 0 1.346-.23 1.7-.706.352-.49.53-1.44.53-2.868V8.42c0-.706-.042-1.29-.11-1.753s-.203-.829-.42-1.128c-.354-.462-.911-.693-1.7-.693q-1.161 0-1.671.693c-.38.49-.557 1.455-.557 2.881m5.45-.163v.707c0 1.576-.286 2.663-.83 3.289-.516.584-1.304.87-2.391.87-1.02 0-1.78-.259-2.297-.775-.625-.625-.924-1.753-.924-3.384v-.707c0-1.576.285-2.69.856-3.33.503-.556 1.29-.842 2.364-.842 1.06 0 1.849.286 2.365.843.57.639.856 1.753.856 3.33m4.403 4.865c-.87 0-1.495-.23-1.862-.72H9.69v2.854c0 .108-.055.15-.136.15h-.612c-.095 0-.136-.042-.136-.15V6.49c0-.095.041-.15.136-.15h.408c.095 0 .15.055.163.15l.081.543h.028c.38-.543 1.046-.815 1.97-.815.883 0 1.522.245 1.903.734.38.489.584 1.25.584 2.31v.707q0 1.569-.57 2.364c-.381.53-1.02.788-1.93.788m-.11-6.142c-1.195 0-1.78.57-1.78 1.712v1.916c0 .585.15 1.02.476 1.318.313.3.761.435 1.332.435.598 0 1.046-.163 1.318-.503q.367-.448.367-1.956v-.517c0-.951-.15-1.603-.421-1.943-.272-.299-.693-.462-1.291-.462M16.282 13h-.435c-.15 0-.217-.054-.217-.177V6.491c0-.095.054-.15.162-.15h.395c.081 0 .136.055.163.15l.054.706h.027c.3-.57.83-.856 1.577-.856h.353c.109 0 .177.055.177.163v.462c0 .109-.068.15-.177.15h-.367c-.598 0-1.02.19-1.237.557-.163.272-.244.625-.244 1.074v4.076c0 .123-.082.177-.231.177m3.992-3.465v.258c0 .68.041 1.169.136 1.495.204.72.734 1.073 1.577 1.073.842 0 1.372-.353 1.59-1.073.081-.326.136-.816.136-1.495v-.258c0-.666-.055-1.169-.136-1.495q-.306-1.06-1.59-1.06c-.857 0-1.387.353-1.577 1.06-.095.326-.136.829-.136 1.495m4.335-.136v.543c0 1.223-.244 2.08-.706 2.542-.435.434-1.074.638-1.916.638-.843 0-1.468-.203-1.903-.638-.475-.462-.706-1.319-.706-2.542V9.4c0-1.223.23-2.08.706-2.555.421-.408 1.06-.625 1.903-.625.842 0 1.48.217 1.916.625.462.476.706 1.332.706 2.555m5.567 2.8.095.312q.04.143 0 .204c-.027.04-.095.081-.231.136-.449.19-.965.271-1.55.271-.842 0-1.467-.19-1.875-.584-.53-.476-.788-1.373-.788-2.69v-.45c0-1.195.272-2.051.83-2.568q.65-.61 1.834-.611c.353 0 .72.068 1.073.177.354.122.652.258.87.42.068.055.068.137.014.218l-.232.38c-.054.082-.122.096-.23.028-.517-.299-1.006-.462-1.495-.462-.53 0-.938.15-1.223.421-.367.367-.544 1.074-.544 2.12v.231c0 1.033.136 1.74.435 2.093.272.353.72.516 1.372.516.435 0 .87-.081 1.319-.258.176-.068.285-.04.326.095m6.157-3.656v1.114c0 .19-.04.326-.109.408-.081.081-.203.108-.394.108h-3.506c.027.816.163 1.386.435 1.713.258.326.707.475 1.345.475.53 0 1.033-.081 1.495-.272.177-.067.286-.04.327.096l.095.312a.26.26 0 0 1-.014.204q-.04.081-.285.163c-.462.177-1.006.258-1.617.258-.992 0-1.686-.244-2.08-.747-.407-.49-.598-1.305-.598-2.433V9.4c0-1.087.19-1.89.585-2.405.38-.517 1.046-.775 1.97-.775.775 0 1.36.19 1.753.557.394.394.598.979.598 1.767M33.995 6.98c-.598 0-1.033.177-1.278.516-.258.354-.394.979-.394 1.903h2.922c.068 0 .122 0 .15-.027.027-.028.04-.082.04-.177v-.516c0-.585-.108-1.006-.312-1.264-.245-.286-.612-.435-1.128-.435m8.997 5.789c0 .163-.095.231-.258.231h-.38q-.164 0-.204-.04c-.027-.028-.041-.082-.041-.191V8.801c0-.802-.217-1.332-.625-1.59-.272-.163-.639-.258-1.1-.258-.64 0-1.088.19-1.333.57q-.244.367-.244 1.06v4.213q0 .204-.245.204h-.421c-.15 0-.218-.068-.218-.204V6.491c0-.095.041-.15.136-.15h.408c.095 0 .15.055.163.15l.068.543h.027c.109-.19.3-.353.557-.516.34-.19.761-.3 1.278-.3 1.046 0 1.753.313 2.106.911q.327.57.326 1.753zm4.646.231h-.639c-.706 0-1.223-.177-1.522-.544-.299-.353-.448-.87-.448-1.562V7.116h-.83c-.094 0-.135-.04-.135-.15v-.271c0-.11.04-.164.136-.177l.829-.177V4.806q0-.164.163-.163h.57c.096 0 .15.054.15.163V6.34h1.59c.082 0 .136.055.136.136v.503c0 .095-.054.136-.136.136h-1.59v3.669c0 .543.082.924.245 1.114.163.231.503.34.992.34h.489c.109 0 .163.054.163.15v.462c0 .108-.054.149-.163.149m2.03-3.465v.258c0 .68.041 1.169.136 1.495.204.72.734 1.073 1.576 1.073s1.373-.353 1.59-1.073c.082-.326.136-.816.136-1.495v-.258c0-.666-.054-1.169-.136-1.495q-.304-1.06-1.59-1.06c-.856 0-1.386.353-1.576 1.06-.095.326-.136.829-.136 1.495m4.335-.136v.543c0 1.223-.244 2.08-.706 2.542-.435.434-1.074.638-1.916.638-.843 0-1.468-.203-1.903-.638-.476-.462-.707-1.319-.707-2.542V9.4c0-1.223.231-2.08.707-2.555.421-.408 1.06-.625 1.902-.625.843 0 1.482.217 1.917.625.462.476.706 1.332.706 2.555m4.833-2.732h.611c.245 0 .408.136.462.38.394 1.958.802 3.71 1.237 5.26h.068c.503-1.93.924-3.873 1.264-5.803 0-.081.027-.122.054-.136a.45.45 0 0 1 .19-.027h.422q.143 0 .203.041c.028.027.041.068.041.15q-.448 2.282-1.386 5.91c-.109.381-.299.558-.57.558h-.463c-.176 0-.312-.04-.394-.122-.095-.082-.163-.218-.217-.435a86 86 0 0 1-1.169-4.96h-.095a99 99 0 0 1-1.169 4.96c-.054.217-.136.353-.217.435a.6.6 0 0 1-.394.122h-.462c-.286 0-.476-.177-.571-.557q-.958-3.63-1.386-5.912c-.014-.081 0-.122.04-.149q.042-.04.204-.04h.422q.204 0 .244.162c.327 1.93.748 3.873 1.264 5.803h.068c.421-1.55.829-3.302 1.237-5.26.054-.244.204-.38.462-.38m9.445 6.197-.027-.462h-.027c-.299.49-.788.72-1.44.72h-.68c-.652 0-1.128-.163-1.454-.489s-.49-.747-.49-1.277v-.408q0-1.284 1.06-1.712c.3-.123.844-.19 1.632-.19h.407c.326 0 .639.013.91.04v-.774c0-.49-.135-.843-.393-1.033-.272-.19-.68-.3-1.25-.3-.476 0-.938.069-1.4.205-.218.054-.326.027-.354-.109l-.068-.285c-.054-.163 0-.259.15-.313a6.3 6.3 0 0 1 1.74-.258c.87 0 1.494.163 1.875.476.38.312.584.815.584 1.522v4.647c0 .095-.054.136-.15.136h-.448c-.122 0-.177-.04-.177-.136m-.108-1.902V9.834a7 7 0 0 0-.816-.041h-.76c-.571 0-.965.095-1.196.272-.231.176-.34.475-.34.897v.285c0 .408.095.707.285.883.163.163.449.245.83.245h.556c.449 0 .802-.109 1.06-.353.245-.245.38-.598.38-1.06m7.757 1.807c0 .163-.095.231-.258.231h-.38q-.163 0-.204-.04c-.027-.028-.04-.082-.04-.191V8.801c0-.802-.218-1.332-.626-1.59-.272-.163-.639-.258-1.1-.258-.64 0-1.088.19-1.332.57q-.245.367-.245 1.06v4.213q0 .204-.245.204h-.42c-.15 0-.218-.068-.218-.204V6.491c0-.095.04-.15.136-.15h.407c.095 0 .15.055.163.15l.068.543h.028c.108-.19.298-.353.557-.516.34-.19.76-.3 1.277-.3 1.046 0 1.753.313 2.106.911q.326.57.326 1.753zm2.866-6.278v6.4c0 .082-.04.109-.122.109h-.653c-.081 0-.108-.027-.108-.109v-6.4c0-.095.054-.15.163-.15h.557c.109 0 .163.055.163.15m.19-1.944v.082c0 .435-.204.652-.598.652h-.054c-.421 0-.625-.217-.625-.652v-.082c0-.42.204-.638.625-.638h.054c.394 0 .598.217.598.638m6.435 3.996v1.114c0 .19-.04.326-.109.408-.081.081-.204.108-.394.108h-3.506c.027.816.163 1.386.435 1.713.258.326.707.475 1.345.475.53 0 1.033-.081 1.495-.272.177-.067.285-.04.326.096l.095.312a.26.26 0 0 1-.013.204q-.041.081-.286.163c-.462.177-1.005.258-1.617.258-.992 0-1.685-.244-2.079-.747-.407-.49-.598-1.305-.598-2.433V9.4c0-1.087.19-1.89.585-2.405.38-.517 1.046-.775 1.97-.775.775 0 1.359.19 1.753.557.394.394.598.979.598 1.767M83.084 6.98c-.598 0-1.033.177-1.278.516-.258.354-.394.979-.394 1.903h2.922c.068 0 .122 0 .15-.027.026-.028.04-.082.04-.177v-.516c0-.585-.109-1.006-.312-1.264-.245-.286-.612-.435-1.128-.435M90.863 13h-.435c-.15 0-.217-.054-.217-.177V6.491c0-.095.054-.15.163-.15h.394c.081 0 .136.055.163.15l.054.706h.027c.3-.57.83-.856 1.577-.856h.353c.109 0 .177.055.177.163v.462c0 .109-.068.15-.177.15h-.367c-.598 0-1.02.19-1.237.557-.163.272-.244.625-.244 1.074v4.076c0 .123-.082.177-.231.177m3.993-3.465v.258c0 .68.04 1.169.135 1.495.204.72.734 1.073 1.577 1.073.842 0 1.372-.353 1.59-1.073.081-.326.136-.816.136-1.495v-.258c0-.666-.055-1.169-.136-1.495q-.306-1.06-1.59-1.06c-.856 0-1.386.353-1.577 1.06-.095.326-.135.829-.135 1.495m4.335-.136v.543c0 1.223-.245 2.08-.707 2.542-.435.434-1.074.638-1.916.638-.843 0-1.468-.203-1.903-.638-.475-.462-.706-1.319-.706-2.542V9.4c0-1.223.23-2.08.706-2.555.421-.408 1.06-.625 1.903-.625.842 0 1.481.217 1.916.625.462.476.707 1.332.707 2.555m5.566 2.8.095.312q.04.143 0 .204c-.027.04-.095.081-.231.136-.449.19-.965.271-1.549.271-.843 0-1.468-.19-1.876-.584-.53-.476-.788-1.373-.788-2.69v-.45c0-1.195.272-2.051.829-2.568q.653-.61 1.835-.611c.353 0 .72.068 1.073.177.354.122.653.258.87.42.068.055.068.137.014.218l-.231.38c-.055.082-.123.096-.231.028-.517-.299-1.006-.462-1.495-.462-.53 0-.938.15-1.223.421-.367.367-.544 1.074-.544 2.12v.231c0 1.033.136 1.74.435 2.093.272.353.72.516 1.372.516.435 0 .87-.081 1.319-.258.176-.068.285-.04.326.095m5.6.176v.49c0 .094-.054.135-.136.135h-4.24c-.095 0-.136-.04-.136-.136v-.23c0-.137.082-.327.245-.599l2.99-4.933h-3.004c-.095 0-.135-.04-.135-.136v-.489c0-.081.04-.136.135-.136h4.023c.081 0 .136.055.136.136v.19c0 .163-.123.435-.354.816l-2.921 4.756h3.261c.082 0 .136.054.136.136m6.408.394c0 .163-.095.231-.258.231h-.381q-.163 0-.204-.04c-.027-.028-.04-.082-.04-.191V8.801c0-.802-.218-1.332-.626-1.59-.271-.163-.638-.258-1.1-.258-.639 0-1.087.19-1.332.57q-.245.367-.245 1.06v4.213q0 .204-.244.204h-.422c-.149 0-.217-.068-.217-.204V6.491c0-.095.041-.15.136-.15h.408c.095 0 .149.055.163.15l.068.543h.027c.109-.19.299-.353.557-.516.34-.19.761-.3 1.277-.3 1.047 0 1.753.313 2.107.911q.326.57.326 1.753zm6.385-4.226v1.114c0 .19-.041.326-.109.408-.081.081-.204.108-.394.108h-3.506c.027.816.163 1.386.435 1.713.258.326.707.475 1.345.475.53 0 1.033-.081 1.495-.272.177-.067.285-.04.326.096l.095.312a.25.25 0 0 1-.013.204q-.041.081-.286.163c-.462.177-1.005.258-1.617.258-.992 0-1.685-.244-2.079-.747-.408-.49-.598-1.305-.598-2.433V9.4c0-1.087.19-1.89.585-2.405.38-.517 1.046-.775 1.97-.775.775 0 1.359.19 1.753.557.394.394.598.979.598 1.767m-2.337-1.563c-.598 0-1.033.177-1.278.516-.258.354-.394.979-.394 1.903h2.922c.068 0 .122 0 .149-.027.027-.028.041-.082.041-.177v-.516c0-.585-.109-1.006-.313-1.264-.244-.286-.611-.435-1.127-.435m12.059-3.03v6.821c0 .707-.176 1.25-.502 1.645-.408.475-1.087.706-2.052.706-.979 0-1.672-.217-2.079-.666-.422-.434-.626-1.25-.626-2.446v-.638c0-1.074.204-1.862.639-2.378q.631-.775 1.998-.775 1.182 0 1.712.652h.027V3.95c0-.095.055-.149.163-.149h.557c.109 0 .163.054.163.15m-.883 6.699V8.787c0-.57-.149-1.005-.421-1.331-.272-.313-.68-.476-1.223-.476-.612 0-1.06.163-1.332.462-.34.38-.503 1.046-.503 1.998v.462q0 1.508.49 2.038c.244.285.679.421 1.304.421.68 0 1.155-.163 1.4-.516.19-.258.285-.652.285-1.196m3.616-6.7v7.27q0 .714.122.857c.068.109.232.15.49.15h.367c.108 0 .163.054.163.149v.462c0 .109-.055.163-.136.163h-.517c-.489 0-.842-.095-1.046-.313-.217-.217-.326-.638-.326-1.25V3.95c0-.096.054-.15.163-.15h.557c.109 0 .163.054.163.15m6.223 8.915-.027-.462h-.027c-.299.49-.788.72-1.44.72h-.68c-.652 0-1.128-.163-1.454-.489s-.489-.747-.489-1.277v-.408q0-1.284 1.06-1.712c.299-.123.842-.19 1.631-.19h.407c.326 0 .639.013.911.04v-.774c0-.49-.136-.843-.394-1.033-.272-.19-.68-.3-1.251-.3-.475 0-.937.069-1.399.205-.218.054-.326.027-.354-.109l-.068-.285c-.054-.163 0-.259.15-.313a6.3 6.3 0 0 1 1.739-.258c.87 0 1.495.163 1.876.476s.584.815.584 1.522v4.647c0 .095-.054.136-.149.136h-.449c-.122 0-.177-.04-.177-.136m-.108-1.902V9.834a7 7 0 0 0-.816-.041h-.761c-.57 0-.964.095-1.195.272-.231.176-.34.475-.34.897v.285c0 .408.095.707.285.883.163.163.449.245.829.245h.557c.449 0 .802-.109 1.06-.353.245-.245.381-.598.381-1.06m6.743-7.012v5.11h.68c.135 0 .258-.069.353-.218l1.576-2.351a.29.29 0 0 1 .258-.15h.585c.149 0 .176.082.095.218l-1.93 2.8c-.054.08-.054.149 0 .216l1.998 3.276c.054.108.013.149-.095.149h-.707c-.082 0-.136-.027-.163-.095l-1.712-2.895c-.055-.095-.15-.15-.286-.15h-.652v3.031c0 .082-.041.109-.122.109h-.639c-.081 0-.122-.027-.122-.109V3.95c0-.096.054-.15.163-.15h.557c.109 0 .163.054.163.15m5.302 5.585v.258c0 .68.04 1.169.136 1.495.203.72.733 1.073 1.576 1.073.842 0 1.372-.353 1.59-1.073.081-.326.136-.816.136-1.495v-.258c0-.666-.055-1.169-.136-1.495q-.306-1.06-1.59-1.06c-.856 0-1.386.353-1.576 1.06-.096.326-.136.829-.136 1.495m4.335-.136v.543c0 1.223-.245 2.08-.707 2.542-.435.434-1.074.638-1.916.638-.843 0-1.468-.203-1.903-.638-.475-.462-.706-1.319-.706-2.542V9.4c0-1.223.231-2.08.706-2.555.422-.408 1.06-.625 1.903-.625.842 0 1.481.217 1.916.625.462.476.707 1.332.707 2.555m6.612 3.37c0 .163-.095.231-.258.231h-.38q-.163 0-.204-.04c-.027-.028-.041-.082-.041-.191V8.801c0-.802-.217-1.332-.625-1.59-.272-.163-.639-.258-1.101-.258-.638 0-1.087.19-1.332.57q-.244.367-.244 1.06v4.213q0 .204-.245.204h-.421c-.149 0-.217-.068-.217-.204V6.491c0-.095.04-.15.135-.15h.408c.095 0 .15.055.163.15l.068.543h.027c.109-.19.299-.353.557-.516.34-.19.762-.3 1.278-.3 1.046 0 1.753.313 2.106.911q.326.57.326 1.753zm4.646.231h-.639c-.706 0-1.223-.177-1.522-.544-.299-.353-.448-.87-.448-1.562V7.116h-.829c-.095 0-.136-.04-.136-.15v-.271c0-.11.041-.164.136-.177l.829-.177V4.806q0-.164.163-.163h.571c.095 0 .149.054.149.163V6.34h1.59c.082 0 .136.055.136.136v.503c0 .095-.054.136-.136.136h-1.59v3.669c0 .543.082.924.245 1.114.163.231.503.34.992.34h.489c.109 0 .163.054.163.15v.462c0 .108-.054.149-.163.149m5.183-.136-.027-.462h-.027c-.299.49-.788.72-1.441.72h-.679c-.652 0-1.128-.163-1.454-.489s-.489-.747-.489-1.277v-.408q0-1.284 1.059-1.712c.299-.123.843-.19 1.631-.19h.408c.326 0 .639.013.91.04v-.774c0-.49-.136-.843-.394-1.033-.272-.19-.679-.3-1.25-.3-.476 0-.938.069-1.4.205-.217.054-.326.027-.353-.109l-.068-.285c-.054-.163 0-.259.15-.313a6.3 6.3 0 0 1 1.739-.258c.87 0 1.495.163 1.875.476.381.312.585.815.585 1.522v4.647c0 .095-.055.136-.15.136h-.448c-.123 0-.177-.04-.177-.136m-.109-1.902V9.834a7 7 0 0 0-.815-.041h-.761c-.571 0-.965.095-1.196.272-.231.176-.34.475-.34.897v.285c0 .408.096.707.286.883.163.163.448.245.829.245h.557c.448 0 .802-.109 1.06-.353.244-.245.38-.598.38-1.06m6.458-1.427v.258c0 .68.041 1.169.136 1.495.204.72.734 1.073 1.577 1.073.842 0 1.372-.353 1.589-1.073.082-.326.136-.816.136-1.495v-.258c0-.666-.054-1.169-.136-1.495q-.305-1.06-1.589-1.06c-.857 0-1.387.353-1.577 1.06-.095.326-.136.829-.136 1.495m4.335-.136v.543c0 1.223-.244 2.08-.706 2.542-.435.434-1.074.638-1.916.638-.843 0-1.468-.203-1.903-.638-.476-.462-.707-1.319-.707-2.542V9.4c0-1.223.231-2.08.707-2.555.421-.408 1.06-.625 1.903-.625.842 0 1.481.217 1.916.625.462.476.706 1.332.706 2.555m3.202 3.723c-.72 0-1.332-.108-1.848-.326-.136-.054-.19-.122-.163-.23l.109-.395c.027-.136.122-.19.258-.136a4.5 4.5 0 0 0 1.644.326c.544 0 .924-.081 1.155-.272.218-.176.34-.462.34-.87v-.08c0-.45-.122-.748-.367-.911-.15-.082-.462-.177-.951-.286l-.381-.068c-.462-.081-.815-.19-1.06-.34-.462-.257-.693-.733-.693-1.413v-.135c0-1.17.72-1.767 2.174-1.767a6 6 0 0 1 1.522.19q.245.082.204.245l-.081.353c-.055.163-.15.231-.313.177a5 5 0 0 0-1.345-.204c-.517 0-.883.095-1.074.272-.19.163-.271.407-.271.706v.095c0 .3.067.53.217.666q.244.265 1.06.408l.353.068c.761.163 1.25.38 1.481.652.218.3.34.707.34 1.196v.136c0 .544-.136.965-.38 1.264-.367.462-1.006.68-1.93.68m7.819-.747v.49c0 .094-.054.135-.136.135h-4.24c-.095 0-.136-.04-.136-.136v-.23c0-.137.082-.327.245-.599l2.99-4.933h-3.004c-.095 0-.136-.04-.136-.136v-.489c0-.081.041-.136.136-.136h4.023c.081 0 .136.055.136.136v.19c0 .163-.123.435-.354.816l-2.921 4.756h3.261c.082 0 .136.054.136.136m5.361-.177.095.313q.042.143 0 .204c-.027.04-.095.081-.231.136-.448.19-.964.271-1.549.271-.842 0-1.467-.19-1.875-.584-.53-.476-.788-1.373-.788-2.69v-.45c0-1.195.272-2.051.829-2.568q.652-.61 1.834-.611a3.7 3.7 0 0 1 1.074.177c.353.122.652.258.87.42.067.055.067.137.013.218l-.231.38c-.054.082-.122.096-.231.028-.516-.299-1.006-.462-1.495-.462-.53 0-.937.15-1.223.421-.367.367-.543 1.074-.543 2.12v.231c0 1.033.136 1.74.434 2.093.272.353.721.516 1.373.516.435 0 .87-.081 1.318-.258.177-.068.286-.04.326.095m5.601.177v.49c0 .094-.055.135-.136.135h-4.24c-.095 0-.136-.04-.136-.136v-.23c0-.137.081-.327.245-.599l2.989-4.933h-3.003c-.095 0-.136-.04-.136-.136v-.489c0-.081.041-.136.136-.136h4.022c.082 0 .136.055.136.136v.19c0 .163-.122.435-.353.816l-2.922 4.756h3.262c.081 0 .136.054.136.136m5.918-3.832v1.073c0 .204-.041.354-.122.435q-.123.123-.408.122h-3.479c.028.816.163 1.386.435 1.713q.387.489 1.346.489c.53 0 1.032-.082 1.494-.272.177-.068.286-.04.327.095l.081.258c0 .028.014.041.014.055v.04c0 .014-.014.028-.014.041l-.027.027c0 .014-.014.028-.027.041-.014.027-.027.041-.027.041l-.041.04c-.027.014-.041.028-.055.028l-.054.054c-.027.027-.041.041-.054.041-.435.353-.734.639-.897.87-.163.244-.231.489-.231.734 0 .326.19.489.584.489.218 0 .435-.04.652-.15.096-.04.163-.013.191.068l.081.38c.027.096-.013.164-.109.205a2.6 2.6 0 0 1-1.005.204q-1.305 0-1.305-1.02c0-.611.354-1.141 1.074-1.576-.258.04-.476.054-.652.054-.992 0-1.686-.244-2.08-.747-.407-.49-.598-1.305-.598-2.433V9.4c0-1.087.191-1.89.585-2.405.38-.517 1.046-.775 1.97-.775.775 0 1.359.19 1.753.557.394.394.598.979.598 1.767m-2.337-1.577c-.598 0-1.033.177-1.278.53-.258.354-.394.979-.394 1.903h2.922c.068 0 .122 0 .15-.027.027-.028.04-.082.04-.177v-.516c0-.598-.108-1.02-.312-1.278-.245-.285-.612-.435-1.128-.435m8.861-3.016v6.821c0 .707-.176 1.25-.502 1.645-.408.475-1.087.706-2.052.706-.979 0-1.672-.217-2.08-.666-.421-.434-.625-1.25-.625-2.446v-.638c0-1.074.204-1.862.639-2.378q.631-.775 1.998-.775 1.182 0 1.712.652h.027V3.95c0-.095.055-.149.163-.149h.557c.109 0 .163.054.163.15m-.883 6.699V8.787c0-.57-.149-1.005-.421-1.331-.272-.313-.68-.476-1.223-.476-.612 0-1.06.163-1.332.462-.34.38-.503 1.046-.503 1.998v.462q0 1.508.489 2.038c.245.285.68.421 1.305.421.68 0 1.155-.163 1.4-.516.19-.258.285-.652.285-1.196m7.761 2.12c0 .163-.095.231-.258.231h-.381q-.162 0-.204-.04c-.027-.028-.04-.082-.04-.191V8.801c0-.802-.218-1.332-.625-1.59-.272-.163-.639-.258-1.101-.258-.639 0-1.087.19-1.332.57q-.245.367-.245 1.06v4.213q0 .204-.244.204h-.421c-.15 0-.218-.068-.218-.204V6.491c0-.095.041-.15.136-.15h.408c.095 0 .149.055.163.15l.068.543h.027c.109-.19.299-.353.557-.516.34-.19.761-.3 1.277-.3 1.047 0 1.753.313 2.107.911q.326.57.326 1.753zm2.376-3.234v.258c0 .68.041 1.169.136 1.495.204.72.734 1.073 1.576 1.073s1.373-.353 1.59-1.073c.082-.326.136-.816.136-1.495v-.258c0-.666-.054-1.169-.136-1.495q-.304-1.06-1.59-1.06c-.856 0-1.386.353-1.576 1.06-.095.326-.136.829-.136 1.495m4.335-.136v.543c0 1.223-.244 2.08-.706 2.542-.435.434-1.074.638-1.917.638-.842 0-1.467-.203-1.902-.638-.476-.462-.707-1.319-.707-2.542V9.4c0-1.223.231-2.08.707-2.555.421-.408 1.06-.625 1.902-.625.843 0 1.482.217 1.917.625.462.476.706 1.332.706 2.555m3.202 3.723c-.72 0-1.332-.108-1.848-.326-.136-.054-.19-.122-.163-.23l.108-.395c.028-.136.123-.19.259-.136a4.5 4.5 0 0 0 1.644.326c.543 0 .924-.081 1.155-.272.217-.176.34-.462.34-.87v-.08c0-.45-.123-.748-.367-.911-.15-.082-.462-.177-.951-.286l-.381-.068c-.462-.081-.815-.19-1.06-.34-.462-.257-.693-.733-.693-1.413v-.135c0-1.17.72-1.767 2.174-1.767a6 6 0 0 1 1.522.19q.244.082.204.245l-.081.353c-.055.163-.15.231-.313.177a5 5 0 0 0-1.345-.204c-.517 0-.884.095-1.074.272-.19.163-.272.407-.272.706v.095c0 .3.068.53.218.666q.244.265 1.06.408l.353.068c.761.163 1.25.38 1.481.652.218.3.34.707.34 1.196v.136c0 .544-.136.965-.38 1.264-.367.462-1.006.68-1.93.68m-.924-8.602 2.31-1.128c.177-.081.299-.04.367.095l.231.476c.054.136-.014.245-.177.326l-2.323.884c-.177.067-.286.04-.34-.082l-.136-.299c-.054-.122-.041-.217.068-.272m8.743 7.678.095.313q.04.143 0 .204c-.027.04-.095.081-.231.136-.449.19-.965.271-1.549.271-.843 0-1.468-.19-1.876-.584-.53-.476-.788-1.373-.788-2.69v-.45c0-1.195.272-2.051.829-2.568q.653-.61 1.835-.611c.353 0 .72.068 1.073.177.354.122.653.258.87.42.068.055.068.137.014.218l-.231.38c-.055.082-.123.096-.231.028-.517-.299-1.006-.462-1.495-.462-.53 0-.938.15-1.223.421-.367.367-.544 1.074-.544 2.12v.231c0 1.033.136 1.74.435 2.093.272.353.72.516 1.372.516.435 0 .87-.081 1.319-.258.176-.068.285-.04.326.095m2.638-5.707v6.4c0 .082-.041.109-.123.109h-.652c-.082 0-.109-.027-.109-.109v-6.4c0-.095.055-.15.163-.15h.558c.108 0 .163.055.163.15m.19-1.944v.082c0 .435-.204.652-.598.652h-.054c-.422 0-.626-.217-.626-.652v-.082c0-.42.204-.638.626-.638h.054c.394 0 .598.217.598.638m2.426 4.988v.258c0 .68.041 1.169.136 1.495.203.72.733 1.073 1.576 1.073s1.373-.353 1.59-1.073c.082-.326.136-.816.136-1.495v-.258c0-.666-.054-1.169-.136-1.495q-.306-1.06-1.59-1.06c-.856 0-1.386.353-1.576 1.06-.095.326-.136.829-.136 1.495m4.335-.136v.543c0 1.223-.245 2.08-.707 2.542-.435.434-1.073.638-1.916.638s-1.468-.203-1.902-.638c-.476-.462-.707-1.319-.707-2.542V9.4c0-1.223.231-2.08.707-2.555.421-.408 1.059-.625 1.902-.625s1.481.217 1.916.625c.462.476.707 1.332.707 2.555m4.832-2.732h.612c.244 0 .407.136.462.38.394 1.958.802 3.71 1.236 5.26h.068c.503-1.93.924-3.873 1.264-5.803 0-.081.027-.122.055-.136a.45.45 0 0 1 .19-.027h.421q.142 0 .204.041c.027.027.041.068.041.15q-.448 2.282-1.386 5.91c-.109.381-.299.558-.571.558h-.462c-.177 0-.313-.04-.394-.122-.095-.082-.163-.218-.218-.435a85 85 0 0 1-1.168-4.96h-.096a98 98 0 0 1-1.168 4.96c-.055.217-.136.353-.218.435a.6.6 0 0 1-.394.122h-.462c-.285 0-.475-.177-.571-.557q-.957-3.63-1.386-5.912c-.013-.081 0-.122.041-.149q.04-.04.204-.04h.421q.204 0 .245.162a63 63 0 0 0 1.264 5.803h.068c.421-1.55.829-3.302 1.236-5.26.055-.244.204-.38.462-.38m10.355 1.876v1.114c0 .19-.041.326-.108.408-.082.081-.204.108-.395.108h-3.506c.028.816.163 1.386.435 1.713.258.326.707.475 1.346.475.53 0 1.032-.081 1.494-.272.177-.067.286-.04.327.096l.095.312a.26.26 0 0 1-.014.204q-.04.081-.285.163c-.462.177-1.006.258-1.617.258-.992 0-1.686-.244-2.08-.747-.407-.49-.598-1.305-.598-2.433V9.4c0-1.087.191-1.89.585-2.405.38-.517 1.046-.775 1.97-.775.775 0 1.359.19 1.753.557.394.394.598.979.598 1.767m-2.337-1.563c-.598 0-1.033.177-1.278.516-.258.354-.394.979-.394 1.903h2.922c.068 0 .122 0 .15-.027.027-.028.04-.082.04-.177v-.516c0-.585-.108-1.006-.312-1.264-.245-.286-.612-.435-1.128-.435m8.033 4.118a3 3 0 0 1-.354.271c.775.503 1.169 1.142 1.169 1.903v.15c0 .733-.245 1.263-.734 1.603-.489.353-1.169.516-2.011.516-.87 0-1.699-.177-2.46-.557-.095-.04-.136-.109-.109-.217l.15-.408q.04-.163.245-.082c.693.34 1.386.503 2.079.503.652 0 1.141-.095 1.44-.299q.449-.306.449-1.1v-.11c0-.706-.34-1.25-1.006-1.603-.217.055-.476.068-.802.068-.774 0-1.372-.163-1.807-.503-.476-.407-.707-1.06-.707-1.984v-.557c0-.937.231-1.603.707-1.997.38-.313.992-.476 1.807-.476.19 0 .34.014.435.014.218-.653.734-.993 1.522-.993h.326c.123 0 .191.068.191.19v.531c0 .013-.014.027-.014.04-.014.014-.027.028-.054.028-.028.013-.068.013-.096.013h-.407c-.354 0-.571.123-.68.34.245.095.449.204.598.313.462.394.707 1.06.707 1.997v.557c0 .802-.204 1.414-.584 1.848m-3.534-2.31v.353c0 .434.041.801.15 1.073.19.557.679.83 1.44.83.775 0 1.264-.273 1.468-.83.081-.258.136-.625.136-1.087v-.34c0-.462-.055-.815-.136-1.06-.109-.299-.285-.502-.516-.625-.232-.122-.544-.19-.952-.19-.394 0-.706.068-.937.19-.231.123-.395.326-.503.625-.109.272-.15.625-.15 1.06m6.437.747v.258c0 .68.04 1.169.136 1.495.203.72.733 1.073 1.576 1.073.842 0 1.372-.353 1.59-1.073.081-.326.136-.816.136-1.495v-.258c0-.666-.055-1.169-.136-1.495q-.306-1.06-1.59-1.06c-.856 0-1.386.353-1.576 1.06-.096.326-.136.829-.136 1.495m4.335-.136v.543c0 1.223-.245 2.08-.707 2.542-.435.434-1.074.638-1.916.638-.843 0-1.468-.203-1.903-.638-.475-.462-.706-1.319-.706-2.542V9.4c0-1.223.231-2.08.706-2.555.422-.408 1.06-.625 1.903-.625.842 0 1.481.217 1.916.625.462.476.707 1.332.707 2.555M290 6.667h.612c.245 0 .408.136.462.38.394 1.958.802 3.71 1.237 5.26h.068c.502-1.93.924-3.873 1.263-5.803 0-.081.028-.122.055-.136a.45.45 0 0 1 .19-.027h.421q.143 0 .204.041c.027.027.041.068.041.15q-.448 2.282-1.386 5.91c-.109.381-.299.558-.571.558h-.462c-.177 0-.313-.04-.394-.122-.095-.082-.163-.218-.218-.435a86 86 0 0 1-1.168-4.96h-.095a100 100 0 0 1-1.169 4.96c-.054.217-.136.353-.217.435a.6.6 0 0 1-.395.122h-.462c-.285 0-.475-.177-.57-.557q-.958-3.63-1.386-5.912c-.014-.081 0-.122.04-.149q.04-.04.204-.04h.421q.204 0 .245.162a63 63 0 0 0 1.264 5.803h.068c.421-1.55.829-3.302 1.236-5.26.055-.244.204-.38.462-.38m9.939 2.963v3.139c0 .163-.082.231-.218.231h-.502c-.15 0-.218-.068-.218-.231V4.534c0-.177.082-.286.245-.313a13 13 0 0 1 1.889-.136q1.752 0 2.487.612c.489.408.747 1.087.747 2.038v.177c0 1.821-1.06 2.731-3.166 2.731-.544 0-.965 0-1.264-.013m.272-4.743c-.191.027-.272.136-.272.326v3.642c.217.027.598.027 1.155.027.788 0 1.372-.149 1.739-.448.354-.299.544-.815.544-1.55v-.176c0-.652-.177-1.128-.503-1.427-.34-.285-.897-.435-1.685-.435q-.612 0-.978.041m6.562-.448v7.338c0 .19.028.313.109.367.082.068.218.095.421.095h2.215c.136 0 .204.068.204.177v.407c0 .123-.068.177-.204.177h-2.446c-.435 0-.747-.082-.937-.258-.204-.177-.299-.449-.299-.83V4.44c0-.15.068-.231.217-.231h.489c.15 0 .231.081.231.23m8.724 8.14-3.561-7.46h-.095v7.65c0 .163-.068.231-.19.231h-.489c-.136 0-.19-.068-.19-.231V4.615c0-.163.027-.271.095-.326.054-.054.176-.081.353-.081h.666c.163 0 .299.04.38.095q.123.101.245.326l3.56 7.488h.095V4.439c0-.15.055-.231.191-.231h.489c.122 0 .19.081.19.23v8.154c0 .163-.041.272-.095.326-.068.055-.19.082-.353.082h-.666c-.177 0-.313-.027-.394-.095-.082-.054-.163-.163-.231-.326m4.206-6.02h.136c.381 0 .584.176.584.53v.326c0 .353-.203.53-.584.53h-.136c-.394 0-.584-.177-.584-.53v-.326c0-.354.19-.53.584-.53m0 5.177h.136c.381 0 .584.177.584.53v.326c0 .354-.203.53-.584.53h-.136c-.394 0-.584-.176-.584-.53v-.326c0-.353.19-.53.584-.53m9.347-.992h-3.724c-.177 0-.258-.081-.258-.272v-.23q0-.144.245-.571l3.084-5.246c.082-.136.218-.217.435-.217h.816c.217 0 .339.108.339.299v5.435h.884c.149 0 .231.068.231.19v.395c0 .15-.082.217-.231.217h-.884v2.025c0 .163-.081.231-.217.231h-.517c-.135 0-.203-.068-.203-.231zm0-.802V5.037h-.096l-2.894 4.905zm3.853 1.794h.203c.422 0 .639.231.639.693v.258c0 .3-.068.626-.177.979a3.7 3.7 0 0 1-.57 1.02c-.082.108-.177.135-.286.067l-.244-.15c-.109-.054-.109-.135-.014-.258.082-.108.163-.258.272-.448.081-.163.149-.313.19-.462.027-.109.014-.19-.068-.245l-.244-.122c-.177-.082-.259-.272-.259-.557v-.258c0-.34.177-.517.558-.517m6.594-1.413V10.2c0-.64-.15-1.115-.422-1.44-.299-.313-.733-.476-1.331-.476s-1.128.149-1.604.448c-.122.081-.217.095-.299.054l-.204-.081c-.095-.027-.136-.109-.108-.231l.285-4.023c0-.163.095-.244.272-.244h3.56c.163 0 .245.081.245.217v.326c0 .15-.095.218-.272.218h-2.881c-.122 0-.19.068-.19.176l-.19 2.745c.421-.271.951-.407 1.603-.407.87 0 1.522.258 1.957.76.38.463.571 1.115.571 1.93v.15c0 .951-.272 1.658-.788 2.12-.517.462-1.237.68-2.188.68a4.7 4.7 0 0 1-2.12-.49c-.15-.068-.204-.163-.15-.285l.136-.367c.041-.136.136-.163.299-.095.557.326 1.169.475 1.848.475.68 0 1.183-.163 1.495-.503.313-.326.476-.828.476-1.535m8.228-1.903v.367c0 1.753-.298 2.95-.883 3.601-.435.49-1.087.734-1.943.734-.87 0-1.509-.244-1.943-.733-.598-.653-.884-1.849-.884-3.602V8.42c0-1.739.286-2.948.884-3.6.434-.49 1.073-.735 1.943-.735.856 0 1.508.245 1.943.734.585.653.883 1.862.883 3.601m-4.661.096v.176c0 1.468.163 2.46.517 2.99.272.462.72.68 1.318.68s1.033-.218 1.318-.68c.34-.53.516-1.522.516-2.99v-.176c0-1.455-.176-2.447-.516-2.99-.285-.449-.72-.68-1.318-.68s-1.046.231-1.318.68c-.354.543-.517 1.535-.517 2.99m7.781 4.43 4.81-8.698a.28.28 0 0 1 .258-.163h.517c.136 0 .176.068.122.177l-4.81 8.697a.33.33 0 0 1-.299.163h-.476c-.136 0-.177-.054-.122-.176m1.766-6.523v.15c0 .937-.176 1.576-.53 1.929q-.408.408-1.182.408-.775 0-1.182-.408c-.354-.353-.53-.992-.53-1.93v-.15c0-.923.176-1.576.53-1.929q.407-.408 1.182-.408t1.182.408c.354.353.53 1.006.53 1.93m-.829.136v-.123q0-.938-.204-1.304c-.135-.231-.353-.354-.679-.354s-.557.123-.693.354c-.136.244-.19.68-.19 1.304v.123c0 .638.054 1.073.19 1.304.136.245.367.354.693.354s.544-.11.679-.354q.204-.346.204-1.304m6.428 4.077v.149c0 .938-.177 1.576-.53 1.93q-.408.407-1.182.407-.776 0-1.182-.407c-.354-.354-.53-.992-.53-1.93v-.15c0-.924.176-1.576.53-1.93q.406-.407 1.182-.407.774 0 1.182.408c.353.353.53 1.005.53 1.93m-.829.135v-.122q0-.938-.204-1.305c-.136-.23-.353-.353-.679-.353s-.557.122-.693.353c-.136.245-.191.68-.191 1.305v.122c0 .639.055 1.074.191 1.305.136.244.367.353.693.353s.543-.109.679-.353q.204-.347.204-1.305M2.827 19.718c.095-.122.217-.149.353-.095l.326.163c.109.068.136.15.068.259-1.114 1.494-1.671 3.18-1.671 5.068q0 1.468.366 2.65c.245.789.68 1.604 1.291 2.42.082.108.041.203-.095.271l-.312.163c-.123.068-.231.04-.313-.081C1.563 28.905.924 27.097.924 25.14c0-.979.136-1.903.435-2.759.285-.843.775-1.74 1.468-2.664m5.274 2.95h.612c.244 0 .408.135.462.38.394 1.957.802 3.71 1.237 5.259h.067c.503-1.93.925-3.873 1.264-5.803 0-.081.027-.122.055-.136a.45.45 0 0 1 .19-.027h.421q.143 0 .204.041c.027.027.04.068.04.15q-.447 2.282-1.385 5.91c-.109.381-.3.558-.571.558h-.462c-.177 0-.313-.04-.394-.122-.095-.082-.163-.218-.218-.435a86 86 0 0 1-1.168-4.96H8.36a98 98 0 0 1-1.17 4.96c-.053.217-.135.353-.217.435A.6.6 0 0 1 6.58 29h-.462c-.285 0-.475-.177-.57-.557q-.959-3.63-1.387-5.911c-.013-.082 0-.123.041-.15q.04-.04.204-.04h.421q.204 0 .245.162a63 63 0 0 0 1.264 5.803h.068c.421-1.55.829-3.302 1.236-5.26.055-.244.204-.38.462-.38M19.915 29h-.639c-.706 0-1.223-.177-1.521-.544-.3-.353-.449-.87-.449-1.562v-3.778h-.829c-.095 0-.136-.04-.136-.15v-.271c0-.11.04-.163.136-.177l.829-.177v-1.535q0-.164.163-.163h.57c.096 0 .15.054.15.163v1.535h1.59c.082 0 .136.055.136.136v.503c0 .095-.054.136-.136.136h-1.59v3.669c0 .543.082.924.245 1.114.163.231.503.34.992.34h.49c.108 0 .162.054.162.15v.462c0 .108-.054.149-.163.149m2.316 2.08c.367-.721.693-1.441.992-2.175-.408 0-.72-.286-.91-.856a29 29 0 0 1-.762-2.338 60 60 0 0 1-.828-3.193c-.028-.109.013-.177.149-.177h.611c.082 0 .123.041.15.122.19.965.435 1.971.72 3.017.15.598.38 1.332.68 2.202.054.163.108.285.176.34.055.068.15.095.259.095h.054c.516-1.414 1.006-3.303 1.481-5.667.014-.068.068-.109.15-.109h.625c.054 0 .081.014.108.041.028.027.028.054.028.081-.422 1.971-.857 3.602-1.291 4.906a43 43 0 0 1-1.59 4.05c-.055.122-.15.15-.286.095l-.448-.163c-.122-.04-.15-.136-.068-.272m4.956-2.284v-6.305c0-.095.041-.15.15-.15h.394c.095 0 .15.055.163.15l.068.543h.027c.109-.19.3-.353.557-.516.34-.19.761-.3 1.264-.3.951 0 1.63.314 2.025.939h.027c.476-.625 1.182-.938 2.106-.938.816 0 1.414.217 1.794.639.354.42.544 1.1.544 2.024v3.914c0 .136-.082.204-.218.204h-.462q-.204 0-.203-.204v-3.968c0-.625-.123-1.073-.34-1.372-.272-.313-.68-.476-1.25-.476q-1.101 0-1.713.815c.055.354.082.72.082 1.087v3.914q0 .204-.204.204h-.462c-.15 0-.218-.068-.218-.204v-3.968q0-.998-.407-1.427c-.272-.272-.707-.421-1.277-.421-.626 0-1.074.19-1.319.57q-.244.368-.244 1.06v4.186q0 .204-.204.204h-.476q-.204 0-.204-.204m14.691-3.261v.258c0 .68.041 1.169.136 1.495.204.72.734 1.073 1.576 1.073s1.373-.353 1.59-1.073c.082-.326.136-.816.136-1.495v-.258c0-.666-.054-1.169-.136-1.495q-.304-1.06-1.59-1.06c-.856 0-1.386.353-1.576 1.06-.095.326-.136.829-.136 1.495m4.335-.136v.543c0 1.223-.244 2.08-.706 2.542-.435.434-1.074.638-1.916.638-.843 0-1.468-.203-1.903-.638-.476-.462-.707-1.319-.707-2.542V25.4c0-1.223.231-2.08.707-2.555.421-.408 1.06-.625 1.902-.625.843 0 1.482.217 1.917.625.462.476.706 1.332.706 2.555m4.276 3.723c-.87 0-1.495-.23-1.862-.72H48.6v2.854c0 .108-.055.15-.136.15h-.612c-.095 0-.136-.041-.136-.15V22.49c0-.095.041-.15.136-.15h.408c.095 0 .15.055.163.15l.082.543h.027c.38-.543 1.046-.815 1.97-.815.883 0 1.522.244 1.903.734.38.489.584 1.25.584 2.31v.707q0 1.569-.57 2.364c-.381.53-1.02.788-1.93.788m-.11-6.142c-1.195 0-1.78.57-1.78 1.712v1.916c0 .585.15 1.02.476 1.318.313.3.761.435 1.332.435.598 0 1.047-.163 1.318-.503q.367-.448.367-1.956v-.517c0-.951-.15-1.603-.421-1.943-.272-.299-.693-.462-1.291-.462M55.192 29h-.435c-.15 0-.217-.054-.217-.177v-6.332c0-.095.054-.15.163-.15h.394c.081 0 .136.055.163.15l.054.706h.027c.3-.57.83-.856 1.577-.856h.353c.109 0 .177.055.177.163v.462c0 .11-.068.15-.177.15h-.367c-.598 0-1.02.19-1.236.557-.164.272-.245.625-.245 1.074v4.076c0 .123-.082.177-.231.177m3.992-3.465v.258c0 .68.041 1.169.136 1.495.204.72.734 1.073 1.577 1.073.842 0 1.372-.353 1.59-1.073.081-.326.136-.816.136-1.495v-.258c0-.666-.055-1.169-.136-1.495q-.306-1.06-1.59-1.06c-.856 0-1.386.353-1.577 1.06-.095.326-.136.829-.136 1.495m4.336-.136v.543c0 1.223-.245 2.08-.707 2.542-.435.434-1.074.638-1.916.638-.843 0-1.468-.203-1.903-.638-.475-.462-.706-1.319-.706-2.542V25.4c0-1.223.23-2.08.706-2.555.421-.408 1.06-.625 1.903-.625.842 0 1.481.217 1.916.625.462.476.707 1.332.707 2.555m5.566 2.8.095.312q.04.142 0 .204c-.027.04-.095.081-.231.136-.449.19-.965.271-1.55.271-.842 0-1.467-.19-1.875-.584-.53-.476-.788-1.373-.788-2.69v-.45c0-1.195.272-2.051.83-2.568q.651-.61 1.834-.611a3.7 3.7 0 0 1 1.073.177c.354.122.653.258.87.42.068.055.068.137.014.218l-.231.38c-.055.082-.123.096-.232.028-.516-.299-1.005-.462-1.494-.462-.53 0-.938.15-1.223.421-.367.367-.544 1.074-.544 2.12v.231c0 1.033.136 1.74.435 2.093.272.353.72.516 1.373.516.434 0 .87-.081 1.318-.258.176-.068.285-.04.326.095m6.157-3.656v1.114c0 .19-.04.326-.109.408-.081.081-.203.108-.394.108h-3.506c.028.816.163 1.387.435 1.713.258.326.707.475 1.346.475.53 0 1.032-.081 1.494-.271.177-.068.286-.041.327.095l.095.312a.26.26 0 0 1-.014.204q-.04.081-.285.163c-.462.177-1.006.258-1.617.258-.992 0-1.685-.244-2.08-.747-.407-.49-.597-1.305-.597-2.433V25.4c0-1.087.19-1.89.584-2.405.38-.517 1.046-.775 1.97-.775.775 0 1.36.19 1.753.557.394.394.598.979.598 1.767m-2.337-1.563c-.598 0-1.033.177-1.278.516-.258.354-.394.979-.394 1.903h2.922c.068 0 .122 0 .15-.027s.04-.082.04-.177v-.516c0-.585-.108-1.006-.312-1.264-.245-.286-.612-.435-1.128-.435m8.997 5.789c0 .163-.095.231-.258.231h-.38q-.163 0-.204-.04c-.027-.028-.04-.082-.04-.191v-3.968c0-.802-.218-1.332-.626-1.59-.272-.163-.639-.258-1.1-.258-.64 0-1.088.19-1.332.57q-.246.367-.245 1.06v4.213q0 .204-.245.204h-.421c-.15 0-.217-.068-.217-.204v-6.305c0-.095.04-.15.135-.15h.408c.095 0 .15.055.163.15l.068.543h.027c.109-.19.3-.353.557-.516.34-.19.762-.3 1.278-.3 1.046 0 1.753.314 2.106.911q.327.57.326 1.753zm4.646.231h-.639c-.706 0-1.223-.177-1.522-.544-.299-.353-.448-.87-.448-1.562v-3.778h-.83c-.094 0-.135-.04-.135-.15v-.271c0-.11.04-.163.136-.177l.829-.177v-1.535q0-.164.163-.163h.57c.096 0 .15.054.15.163v1.535h1.59c.082 0 .136.055.136.136v.503c0 .095-.054.136-.136.136h-1.59v3.669c0 .543.082.924.245 1.114.163.231.503.34.992.34h.489c.109 0 .163.054.163.15v.462c0 .108-.054.149-.163.149m2.03-3.465v.258c0 .68.041 1.169.136 1.495.204.72.734 1.073 1.577 1.073.842 0 1.372-.353 1.59-1.073.081-.326.135-.816.135-1.495v-.258c0-.666-.054-1.169-.135-1.495q-.306-1.06-1.59-1.06c-.856 0-1.386.353-1.577 1.06-.095.326-.136.829-.136 1.495m4.335-.136v.543c0 1.223-.244 2.08-.706 2.542-.435.434-1.074.638-1.916.638-.843 0-1.468-.203-1.903-.638-.476-.462-.707-1.319-.707-2.542V25.4c0-1.223.231-2.08.707-2.555.421-.408 1.06-.625 1.903-.625.842 0 1.48.217 1.916.625.462.476.706 1.332.706 2.555m4.833-2.732h.611c.245 0 .408.136.462.38.394 1.958.802 3.71 1.237 5.26h.068c.503-1.93.924-3.873 1.264-5.803 0-.081.027-.122.054-.136a.45.45 0 0 1 .19-.027h.422q.143 0 .204.041c.027.027.04.068.04.15q-.449 2.282-1.386 5.91c-.109.381-.299.558-.571.558h-.462c-.176 0-.312-.04-.394-.122-.095-.082-.163-.218-.217-.435a86 86 0 0 1-1.169-4.96h-.095a99 99 0 0 1-1.169 4.96c-.054.217-.135.353-.217.435a.6.6 0 0 1-.394.122h-.462c-.286 0-.476-.177-.571-.557q-.958-3.63-1.386-5.911c-.014-.082 0-.123.04-.15q.042-.04.204-.04h.422q.204 0 .244.162c.327 1.93.748 3.873 1.264 5.803h.068c.421-1.55.83-3.302 1.237-5.26.054-.244.204-.38.462-.38m9.446 6.197-.028-.462h-.027c-.299.49-.788.72-1.44.72h-.68c-.652 0-1.128-.163-1.454-.489s-.489-.747-.489-1.277v-.408q0-1.284 1.06-1.712c.299-.123.843-.19 1.631-.19h.407c.327 0 .639.013.911.04v-.774c0-.49-.136-.843-.394-1.033-.272-.19-.68-.3-1.25-.3-.476 0-.938.069-1.4.205-.218.054-.326.027-.353-.109l-.068-.285c-.055-.163 0-.258.149-.313a6.3 6.3 0 0 1 1.74-.258c.869 0 1.494.163 1.875.476.38.312.584.815.584 1.522v4.647c0 .095-.054.136-.149.136h-.449c-.122 0-.176-.04-.176-.136m-.109-1.902v-1.128a7 7 0 0 0-.815-.041h-.761c-.571 0-.965.095-1.196.272-.231.176-.34.475-.34.897v.285c0 .408.095.707.285.883.163.163.449.245.829.245h.557c.449 0 .802-.109 1.06-.353.245-.245.381-.598.381-1.06m7.758 1.807c0 .163-.096.231-.259.231h-.38q-.163 0-.204-.04c-.027-.028-.041-.082-.041-.191v-3.968c0-.802-.217-1.332-.625-1.59-.272-.163-.639-.258-1.101-.258-.638 0-1.087.19-1.331.57q-.245.367-.245 1.06v4.213q0 .204-.245.204h-.421c-.149 0-.217-.068-.217-.204v-6.305c0-.095.041-.15.136-.15h.407c.095 0 .15.055.163.15l.068.543h.028c.108-.19.299-.353.557-.516.339-.19.761-.3 1.277-.3 1.046 0 1.753.314 2.106.911q.327.57.327 1.753zm2.865-6.278v6.4c0 .082-.041.109-.122.109h-.653c-.081 0-.108-.027-.108-.109v-6.4c0-.095.054-.15.163-.15h.557c.109 0 .163.055.163.15m.19-1.944v.082c0 .435-.204.652-.598.652h-.054c-.421 0-.625-.217-.625-.652v-.082c0-.42.204-.638.625-.638h.054c.394 0 .598.217.598.638m6.435 3.996v1.114c0 .19-.041.326-.109.408-.081.081-.204.108-.394.108h-3.506c.027.816.163 1.387.435 1.713.258.326.707.475 1.345.475.53 0 1.033-.081 1.495-.271.177-.068.286-.041.326.095l.095.312a.25.25 0 0 1-.013.204q-.04.081-.285.163c-.463.177-1.006.258-1.618.258-.992 0-1.685-.244-2.079-.747-.407-.49-.598-1.305-.598-2.433V25.4c0-1.087.191-1.89.585-2.405.38-.517 1.046-.775 1.97-.775.775 0 1.359.19 1.753.557.394.394.598.979.598 1.767m-2.337-1.563c-.598 0-1.033.177-1.278.516-.258.354-.394.979-.394 1.903h2.922c.068 0 .122 0 .149-.027.028-.027.041-.082.041-.177v-.516c0-.585-.109-1.006-.312-1.264-.245-.286-.612-.435-1.128-.435m9.627 5.381c.68 0 1.142-.176 1.4-.53.258-.367.394-1.019.394-1.943v-.462c0-.978-.19-1.658-.544-2.025-.285-.272-.72-.421-1.291-.421-.584 0-1.005.136-1.277.408-.15.15-.245.326-.299.516-.054.204-.068.503-.068.883v1.862c0 .544.095.938.285 1.196.245.353.707.516 1.4.516m-1.685-8.411v2.921h.027q.51-.652 1.712-.652 1.345 0 1.998.774c.421.517.639 1.305.639 2.379v.625c0 1.141-.231 1.957-.68 2.419-.448.475-1.128.706-2.025.706-.978 0-1.657-.23-2.051-.706-.34-.394-.503-.952-.503-1.672V19.95c0-.096.054-.15.163-.15h.557c.109 0 .163.054.163.15m9.65 8.914-.027-.462h-.028c-.299.49-.788.72-1.44.72h-.68c-.652 0-1.128-.163-1.454-.489s-.489-.747-.489-1.277v-.408q0-1.284 1.06-1.712c.299-.123.843-.19 1.631-.19h.408c.326 0 .638.013.91.04v-.774c0-.49-.136-.843-.394-1.033-.272-.19-.68-.3-1.25-.3-.476 0-.938.069-1.4.205-.217.054-.326.027-.353-.109l-.068-.285c-.055-.163 0-.258.149-.313a6.3 6.3 0 0 1 1.74-.258c.869 0 1.494.163 1.875.476.38.312.584.815.584 1.522v4.647c0 .095-.054.136-.149.136h-.449c-.122 0-.176-.04-.176-.136m-.109-1.902v-1.128a7 7 0 0 0-.815-.041h-.761c-.571 0-.965.095-1.196.272-.231.176-.34.475-.34.897v.285c0 .408.095.707.285.883.163.163.449.245.829.245h.558c.448 0 .801-.109 1.059-.353.245-.245.381-.598.381-1.06m6.711 1.413v.49c0 .094-.054.135-.136.135h-4.239c-.096 0-.136-.04-.136-.136v-.23c0-.137.081-.327.244-.599l2.99-4.933h-3.003c-.095 0-.136-.04-.136-.136v-.489c0-.081.041-.136.136-.136h4.022c.082 0 .136.055.136.136v.19c0 .163-.122.435-.353.816l-2.922 4.756h3.261c.082 0 .136.054.136.136m1.777-2.84v.258c0 .68.041 1.169.136 1.495.204.72.734 1.073 1.577 1.073.842 0 1.372-.353 1.59-1.073.081-.326.135-.816.135-1.495v-.258c0-.666-.054-1.169-.135-1.495q-.306-1.06-1.59-1.06c-.857 0-1.387.353-1.577 1.06-.095.326-.136.829-.136 1.495m4.335-.136v.543c0 1.223-.244 2.08-.706 2.542-.435.434-1.074.638-1.916.638-.843 0-1.468-.203-1.903-.638-.476-.462-.707-1.319-.707-2.542V25.4c0-1.223.231-2.08.707-2.555.421-.408 1.06-.625 1.903-.625.842 0 1.481.217 1.916.625.462.476.706 1.332.706 2.555m4.833-2.732h.611c.245 0 .408.136.462.38.394 1.958.802 3.71 1.237 5.26h.068c.503-1.93.924-3.873 1.264-5.803 0-.081.027-.122.054-.136a.45.45 0 0 1 .19-.027h.422q.143 0 .203.041c.028.027.041.068.041.15q-.448 2.282-1.386 5.91c-.109.381-.299.558-.571.558h-.462c-.176 0-.312-.04-.394-.122-.095-.082-.163-.218-.217-.435a85 85 0 0 1-1.169-4.96h-.095a97 97 0 0 1-1.169 4.96c-.054.217-.136.353-.217.435a.6.6 0 0 1-.394.122h-.462c-.286 0-.476-.177-.571-.557q-.958-3.63-1.386-5.911c-.014-.082 0-.123.041-.15q.04-.04.204-.04h.421q.204 0 .244.162c.327 1.93.748 3.873 1.264 5.803h.068c.421-1.55.829-3.302 1.237-5.26.054-.244.204-.38.462-.38m10.355 1.876v1.114c0 .19-.041.326-.109.408-.081.081-.204.108-.394.108h-3.506c.027.816.163 1.387.435 1.713.258.326.706.475 1.345.475.53 0 1.033-.081 1.495-.271.177-.068.285-.041.326.095l.095.312a.26.26 0 0 1-.013.204q-.042.081-.286.163c-.462.177-1.005.258-1.617.258-.992 0-1.685-.244-2.079-.747-.408-.49-.598-1.305-.598-2.433V25.4c0-1.087.19-1.89.584-2.405.381-.517 1.047-.775 1.971-.775.774 0 1.359.19 1.753.557.394.394.598.979.598 1.767m-2.338-1.563c-.598 0-1.032.177-1.277.516-.258.354-.394.979-.394 1.903h2.922c.068 0 .122 0 .149-.027s.041-.082.041-.177v-.516c0-.585-.109-1.006-.313-1.264-.244-.286-.611-.435-1.128-.435m4.5-.421h.136c.38 0 .584.176.584.53v.326c0 .353-.204.53-.584.53h-.136c-.394 0-.584-.177-.584-.53v-.326c0-.354.19-.53.584-.53m0 5.177h.136c.38 0 .584.177.584.53v.326c0 .354-.204.53-.584.53h-.136c-.394 0-.584-.176-.584-.53v-.326c0-.353.19-.53.584-.53m11.208-3.316v.367c0 1.753-.299 2.95-.883 3.602-.435.489-1.087.733-1.944.733-.869 0-1.508-.244-1.943-.733-.598-.653-.883-1.849-.883-3.602v-.367c0-1.739.285-2.949.883-3.6.435-.49 1.074-.735 1.943-.735.857 0 1.509.245 1.944.734.584.652.883 1.862.883 3.601m-4.661.095v.177c0 1.468.163 2.46.516 2.99.272.462.72.68 1.318.68s1.033-.218 1.319-.68c.339-.53.516-1.522.516-2.99v-.177c0-1.454-.177-2.446-.516-2.99-.286-.448-.721-.679-1.319-.679s-1.046.231-1.318.68c-.353.543-.516 1.535-.516 2.99m6.652 3.221h.204c.421 0 .639.231.639.693v.258c0 .3-.068.626-.177.979q-.224.591-.571 1.02c-.081.108-.176.135-.285.067l-.245-.15c-.108-.054-.108-.135-.013-.258.081-.108.163-.258.272-.448.081-.163.149-.313.19-.462.027-.109.013-.19-.068-.245l-.245-.122c-.176-.082-.258-.272-.258-.557v-.258c0-.34.177-.517.557-.517m7.763-3.316v.367c0 1.753-.299 2.95-.883 3.602-.435.489-1.087.733-1.944.733-.869 0-1.508-.244-1.943-.733-.598-.653-.883-1.849-.883-3.602v-.367c0-1.739.285-2.949.883-3.6.435-.49 1.074-.735 1.943-.735.857 0 1.509.245 1.944.734.584.652.883 1.862.883 3.601m-4.661.095v.177c0 1.468.163 2.46.516 2.99.272.462.721.68 1.318.68s1.033-.218 1.319-.68c.339-.53.516-1.522.516-2.99v-.177c0-1.454-.177-2.446-.516-2.99-.286-.448-.721-.679-1.319-.679-.597 0-1.046.231-1.318.68-.353.543-.516 1.535-.516 2.99m10.552 1.808V26.2c0-.64-.149-1.115-.421-1.44-.299-.313-.734-.476-1.332-.476-.597 0-1.127.149-1.603.448-.122.081-.218.095-.299.054l-.204-.081c-.095-.027-.136-.109-.109-.231l.286-4.023c0-.163.095-.244.272-.244h3.56c.163 0 .245.081.245.217v.326c0 .15-.096.218-.272.218h-2.881c-.122 0-.19.068-.19.176l-.191 2.745c.422-.271.952-.407 1.604-.407.87 0 1.522.258 1.957.76.38.463.57 1.115.57 1.93v.15c0 .951-.271 1.658-.788 2.12-.516.462-1.236.68-2.188.68a4.7 4.7 0 0 1-2.12-.49c-.149-.068-.203-.163-.149-.285l.136-.367c.041-.136.136-.163.299-.095.557.326 1.169.475 1.848.475s1.182-.163 1.495-.503c.312-.326.475-.829.475-1.535m4.288 2.623 4.811-8.698a.28.28 0 0 1 .258-.163h.517c.135 0 .176.068.122.177l-4.811 8.697a.33.33 0 0 1-.299.163h-.475c-.136 0-.177-.054-.123-.176m1.767-6.523v.15c0 .937-.177 1.576-.53 1.929q-.408.408-1.182.408-.775 0-1.183-.408c-.353-.353-.53-.992-.53-1.93v-.15c0-.923.177-1.576.53-1.929q.408-.408 1.183-.408.774 0 1.182.408c.353.353.53 1.006.53 1.93m-.829.136v-.123q0-.938-.204-1.304c-.136-.231-.353-.354-.679-.354s-.557.123-.693.354c-.136.244-.191.68-.191 1.304v.123c0 .638.055 1.073.191 1.304.136.245.367.354.693.354s.543-.11.679-.354q.204-.346.204-1.304m6.428 4.076v.15c0 .938-.177 1.576-.53 1.93q-.408.407-1.183.407-.774 0-1.182-.407c-.353-.354-.53-.992-.53-1.93v-.15c0-.924.177-1.576.53-1.93q.408-.407 1.182-.407.775 0 1.183.408c.353.353.53 1.005.53 1.93m-.829.136v-.122q0-.937-.204-1.305c-.136-.23-.353-.353-.68-.353-.326 0-.557.122-.693.354-.135.244-.19.679-.19 1.304v.122c0 .639.055 1.074.19 1.305.136.244.367.353.693.353.327 0 .544-.108.68-.353q.204-.346.204-1.305m2.939.965h.204c.421 0 .638.231.638.693v.258c0 .3-.068.626-.176.979q-.225.591-.571 1.02c-.082.108-.177.135-.285.067l-.245-.15c-.109-.054-.109-.135-.014-.258.082-.108.163-.258.272-.448.082-.163.15-.313.19-.462.028-.109.014-.19-.068-.245l-.244-.122c-.177-.082-.258-.272-.258-.557v-.258c0-.34.176-.517.557-.517m6.109-2.201v.258c0 .68.041 1.169.136 1.495.204.72.734 1.073 1.577 1.073.842 0 1.372-.353 1.59-1.073.081-.326.136-.816.136-1.495v-.258c0-.666-.055-1.169-.136-1.495q-.306-1.06-1.59-1.06c-.856 0-1.386.353-1.577 1.06-.095.326-.136.829-.136 1.495m4.335-.136v.543c0 1.223-.244 2.08-.706 2.542-.435.434-1.074.638-1.916.638-.843 0-1.468-.203-1.903-.638-.475-.462-.706-1.319-.706-2.542V25.4c0-1.223.231-2.08.706-2.555.421-.408 1.06-.625 1.903-.625.842 0 1.481.217 1.916.625.462.476.706 1.332.706 2.555m4.276 3.723c-.87 0-1.495-.23-1.862-.72h-.027v2.854c0 .108-.054.15-.136.15h-.612c-.095 0-.135-.041-.135-.15V22.49c0-.095.04-.15.135-.15h.408c.095 0 .15.055.163.15l.082.543h.027c.38-.543 1.046-.815 1.97-.815.884 0 1.522.244 1.903.734.38.489.584 1.25.584 2.31v.707q0 1.569-.571 2.364c-.38.53-1.019.788-1.929.788m-.109-6.142c-1.196 0-1.78.57-1.78 1.712v1.916c0 .585.149 1.02.476 1.318.312.3.761.435 1.331.435.598 0 1.047-.163 1.318-.503q.367-.448.367-1.956v-.517c0-.951-.149-1.603-.421-1.943-.272-.299-.693-.462-1.291-.462m4.811 6.02h-.435c-.149 0-.217-.054-.217-.177v-6.332c0-.095.054-.15.163-.15h.394c.081 0 .136.055.163.15l.054.706h.028c.298-.57.828-.856 1.576-.856h.353c.109 0 .177.055.177.163v.462c0 .11-.068.15-.177.15h-.367c-.598 0-1.019.19-1.236.557-.163.272-.245.625-.245 1.074v4.076c0 .123-.081.177-.231.177m3.993-3.465v.258c0 .68.04 1.169.136 1.495.203.72.733 1.073 1.576 1.073.842 0 1.372-.353 1.59-1.073.081-.326.136-.816.136-1.495v-.258c0-.666-.055-1.169-.136-1.495q-.306-1.06-1.59-1.06c-.856 0-1.386.353-1.576 1.06-.096.326-.136.829-.136 1.495m4.335-.136v.543c0 1.223-.245 2.08-.707 2.542-.435.434-1.074.638-1.916.638-.843 0-1.468-.203-1.903-.638-.475-.462-.706-1.319-.706-2.542V25.4c0-1.223.231-2.08.706-2.555.422-.408 1.06-.625 1.903-.625.842 0 1.481.217 1.916.625.462.476.707 1.332.707 2.555m5.566 2.8.095.312q.04.142 0 .204c-.027.04-.095.081-.231.136-.448.19-.965.271-1.549.271-.843 0-1.468-.19-1.875-.584-.53-.476-.789-1.373-.789-2.69v-.45c0-1.195.272-2.051.829-2.568q.653-.61 1.835-.611c.353 0 .72.068 1.073.177.354.122.653.258.87.42.068.055.068.137.014.218l-.231.38c-.055.082-.123.096-.231.028-.517-.299-1.006-.462-1.495-.462-.53 0-.938.15-1.223.421-.367.367-.544 1.074-.544 2.12v.231c0 1.033.136 1.74.435 2.093.272.353.72.516 1.373.516.435 0 .869-.081 1.318-.258.176-.068.285-.04.326.095m6.157-3.656v1.114c0 .19-.04.326-.108.408-.082.081-.204.108-.394.108h-3.506c.027.816.163 1.387.434 1.713.259.326.707.475 1.346.475.53 0 1.033-.081 1.495-.271.176-.068.285-.041.326.095l.095.312a.26.26 0 0 1-.014.204q-.04.081-.285.163c-.462.177-1.006.258-1.617.258-.992 0-1.685-.244-2.079-.747-.408-.49-.598-1.305-.598-2.433V25.4c0-1.087.19-1.89.584-2.405.381-.517 1.046-.775 1.97-.775.775 0 1.359.19 1.753.557.395.394.598.979.598 1.767m-2.337-1.563c-.598 0-1.033.177-1.277.516-.259.354-.394.979-.394 1.903h2.921c.068 0 .123 0 .15-.027s.041-.082.041-.177v-.516c0-.585-.109-1.006-.313-1.264-.245-.286-.612-.435-1.128-.435m8.998 5.789c0 .163-.096.231-.259.231h-.38q-.163 0-.204-.04c-.027-.028-.041-.082-.041-.191v-3.968c0-.802-.217-1.332-.625-1.59-.272-.163-.639-.258-1.101-.258-.638 0-1.087.19-1.331.57q-.245.367-.245 1.06v4.213q0 .204-.245.204h-.421c-.149 0-.217-.068-.217-.204v-6.305c0-.095.041-.15.136-.15h.407c.095 0 .15.055.163.15l.068.543h.028c.108-.19.298-.353.557-.516.339-.19.761-.3 1.277-.3 1.046 0 1.753.314 2.106.911q.327.57.327 1.753zm4.645.231h-.638c-.707 0-1.224-.177-1.522-.544-.299-.353-.449-.87-.449-1.562v-3.778h-.829c-.095 0-.136-.04-.136-.15v-.271c0-.11.041-.163.136-.177l.829-.177v-1.535q0-.164.163-.163h.571c.095 0 .149.054.149.163v1.535h1.59c.082 0 .136.055.136.136v.503c0 .095-.054.136-.136.136h-1.59v3.669c0 .543.082.924.245 1.114.163.231.503.34.992.34h.489c.109 0 .163.054.163.15v.462c0 .108-.054.149-.163.149m2.031-3.465v.258c0 .68.04 1.169.135 1.495.204.72.734 1.073 1.577 1.073.842 0 1.372-.353 1.59-1.073.081-.326.136-.816.136-1.495v-.258c0-.666-.055-1.169-.136-1.495q-.306-1.06-1.59-1.06c-.856 0-1.386.353-1.577 1.06-.095.326-.135.829-.135 1.495m4.335-.136v.543c0 1.223-.245 2.08-.707 2.542-.435.434-1.074.638-1.916.638-.843 0-1.468-.203-1.903-.638-.475-.462-.706-1.319-.706-2.542V25.4c0-1.223.231-2.08.706-2.555.422-.408 1.06-.625 1.903-.625.842 0 1.481.217 1.916.625.462.476.707 1.332.707 2.555m4.832-2.732h.612c.244 0 .407.136.462.38.394 1.958.801 3.71 1.236 5.26h.068c.503-1.93.924-3.873 1.264-5.803 0-.081.027-.122.054-.136a.5.5 0 0 1 .191-.027h.421q.143 0 .204.041c.027.027.04.068.04.15q-.448 2.282-1.386 5.91c-.108.381-.299.558-.57.558h-.462c-.177 0-.313-.04-.395-.122-.095-.082-.163-.218-.217-.435a86 86 0 0 1-1.169-4.96h-.095a98 98 0 0 1-1.168 4.96c-.055.217-.136.353-.218.435a.6.6 0 0 1-.394.122h-.462c-.285 0-.476-.177-.571-.557q-.957-3.63-1.386-5.911c-.013-.082 0-.123.041-.15q.04-.04.204-.04h.421q.204 0 .245.162c.326 1.93.747 3.873 1.263 5.803h.068c.422-1.55.829-3.302 1.237-5.26.054-.244.204-.38.462-.38m9.446 6.197-.027-.462h-.028c-.299.49-.788.72-1.44.72h-.679c-.653 0-1.128-.163-1.455-.489-.326-.326-.489-.747-.489-1.277v-.408q0-1.284 1.06-1.712c.299-.123.843-.19 1.631-.19h.408c.326 0 .638.013.91.04v-.774c0-.49-.136-.843-.394-1.033-.272-.19-.679-.3-1.25-.3-.476 0-.938.069-1.4.205-.217.054-.326.027-.353-.109l-.068-.285c-.055-.163 0-.258.149-.313a6.3 6.3 0 0 1 1.74-.258c.869 0 1.495.163 1.875.476.381.312.584.815.584 1.522v4.647c0 .095-.054.136-.149.136h-.449c-.122 0-.176-.04-.176-.136m-.109-1.902v-1.128a7 7 0 0 0-.815-.041h-.761c-.571 0-.965.095-1.196.272-.231.176-.34.475-.34.897v.285c0 .408.095.707.286.883.163.163.448.245.828.245h.558c.448 0 .801-.109 1.06-.353.244-.245.38-.598.38-1.06m7.758 1.807c0 .163-.095.231-.258.231h-.381q-.163 0-.204-.04c-.027-.028-.041-.082-.041-.191v-3.968c0-.802-.217-1.332-.625-1.59-.271-.163-.638-.258-1.1-.258-.639 0-1.088.19-1.332.57q-.245.367-.245 1.06v4.213q0 .204-.244.204h-.422c-.149 0-.217-.068-.217-.204v-6.305c0-.095.041-.15.136-.15h.408c.095 0 .149.055.163.15l.068.543h.027c.108-.19.299-.353.557-.516.34-.19.761-.3 1.277-.3 1.047 0 1.753.314 2.107.911q.326.57.326 1.753zm2.865-6.278v6.4c0 .082-.041.109-.122.109h-.652c-.082 0-.109-.027-.109-.109v-6.4c0-.095.054-.15.163-.15h.557c.109 0 .163.055.163.15m.19-1.944v.082c0 .435-.203.652-.597.652h-.055c-.421 0-.625-.217-.625-.652v-.082c0-.42.204-.638.625-.638h.055c.394 0 .597.217.597.638m6.435 3.996v1.114c0 .19-.041.326-.108.408-.082.081-.204.108-.395.108h-3.506c.028.816.163 1.387.435 1.713.258.326.707.475 1.346.475.53 0 1.032-.081 1.494-.271.177-.068.286-.041.327.095l.095.312a.26.26 0 0 1-.014.204q-.04.081-.285.163c-.462.177-1.006.258-1.617.258-.992 0-1.686-.244-2.08-.747-.407-.49-.598-1.305-.598-2.433V25.4c0-1.087.191-1.89.585-2.405.38-.517 1.046-.775 1.97-.775.775 0 1.359.19 1.753.557.394.394.598.979.598 1.767m-2.337-1.563c-.598 0-1.033.177-1.278.516-.258.354-.394.979-.394 1.903h2.922c.068 0 .122 0 .15-.027s.04-.082.04-.177v-.516c0-.585-.108-1.006-.312-1.264-.245-.286-.612-.435-1.128-.435m9.858 6.142c-.869 0-1.495-.23-1.861-.72h-.028v2.854c0 .108-.054.15-.136.15h-.611c-.095 0-.136-.041-.136-.15V22.49c0-.095.041-.15.136-.15h.408c.095 0 .149.055.163.15l.081.543h.027c.381-.543 1.047-.815 1.971-.815.883 0 1.522.244 1.902.734.381.489.585 1.25.585 2.31v.707q0 1.569-.571 2.364c-.381.53-1.019.788-1.93.788m-.108-6.142c-1.196 0-1.781.57-1.781 1.712v1.916c0 .585.15 1.02.476 1.318.313.3.761.435 1.332.435.598 0 1.046-.163 1.318-.503q.367-.448.367-1.956v-.517c0-.951-.15-1.603-.421-1.943-.272-.299-.693-.462-1.291-.462m4.811 6.02h-.435c-.15 0-.218-.054-.218-.177v-6.332c0-.095.055-.15.163-.15h.394c.082 0 .136.055.163.15l.055.706h.027c.299-.57.829-.856 1.576-.856h.354c.108 0 .176.055.176.163v.462c0 .11-.068.15-.176.15h-.367c-.598 0-1.019.19-1.237.557-.163.272-.244.625-.244 1.074v4.076c0 .123-.082.177-.231.177m3.992-3.465v.258c0 .68.041 1.169.136 1.495.204.72.734 1.073 1.576 1.073s1.373-.353 1.59-1.073c.082-.326.136-.816.136-1.495v-.258c0-.666-.054-1.169-.136-1.495q-.305-1.06-1.59-1.06c-.856 0-1.386.353-1.576 1.06-.095.326-.136.829-.136 1.495m4.335-.136v.543c0 1.223-.244 2.08-.707 2.542-.434.434-1.073.638-1.916.638-.842 0-1.467-.203-1.902-.638-.476-.462-.707-1.319-.707-2.542V25.4c0-1.223.231-2.08.707-2.555.421-.408 1.06-.625 1.902-.625.843 0 1.482.217 1.916.625.463.476.707 1.332.707 2.555m1.544 3.397v-6.305c0-.095.041-.15.149-.15h.395c.095 0 .149.055.163.15l.068.543h.027c.108-.19.299-.353.557-.516.34-.19.761-.3 1.264-.3.951 0 1.63.314 2.025.939h.027c.475-.625 1.182-.938 2.106-.938.815 0 1.413.217 1.794.639.353.42.543 1.1.543 2.024v3.914c0 .136-.081.204-.217.204h-.462q-.204 0-.204-.204v-3.968c0-.625-.122-1.073-.34-1.372-.271-.313-.679-.476-1.25-.476q-1.1 0-1.712.815c.054.354.081.72.081 1.087v3.914q0 .204-.203.204h-.462c-.15 0-.218-.068-.218-.204v-3.968q0-.998-.408-1.427c-.271-.272-.706-.421-1.277-.421-.625 0-1.073.19-1.318.57q-.245.368-.245 1.06v4.186q0 .204-.204.204h-.475q-.204 0-.204-.204m11.493-3.261v.258c0 .68.04 1.169.136 1.495.203.72.733 1.073 1.576 1.073.842 0 1.372-.353 1.59-1.073.081-.326.136-.816.136-1.495v-.258c0-.666-.055-1.169-.136-1.495q-.306-1.06-1.59-1.06c-.856 0-1.386.353-1.576 1.06-.096.326-.136.829-.136 1.495m4.335-.136v.543c0 1.223-.245 2.08-.707 2.542-.435.434-1.074.638-1.916.638-.843 0-1.468-.203-1.903-.638-.475-.462-.706-1.319-.706-2.542V25.4c0-1.223.231-2.08.706-2.555.422-.408 1.06-.625 1.903-.625.842 0 1.481.217 1.916.625.462.476.707 1.332.707 2.555m5.566 2.8.095.312q.04.142 0 .204c-.027.04-.095.081-.231.136-.448.19-.965.271-1.549.271-.843 0-1.468-.19-1.875-.584-.53-.476-.789-1.373-.789-2.69v-.45c0-1.195.272-2.051.829-2.568q.653-.61 1.835-.611c.353 0 .72.068 1.073.177.354.122.653.258.87.42.068.055.068.137.014.218l-.231.38c-.055.082-.123.096-.231.028-.517-.299-1.006-.462-1.495-.462-.53 0-.938.15-1.223.421-.367.367-.544 1.074-.544 2.12v.231c0 1.033.136 1.74.435 2.093.272.353.72.516 1.373.516.435 0 .869-.081 1.318-.258.176-.068.285-.04.326.095m2.673 2.88c.367-.72.693-1.44.992-2.174-.408 0-.72-.286-.911-.856a29 29 0 0 1-.761-2.338 60 60 0 0 1-.829-3.193c-.027-.109.014-.177.15-.177h.611c.082 0 .123.041.15.122.19.965.435 1.971.72 3.017.15.598.381 1.332.68 2.202.054.163.108.285.176.34.055.068.15.095.258.095h.055c.516-1.414 1.005-3.303 1.481-5.667.014-.068.068-.109.15-.109h.625c.054 0 .081.014.108.041.028.027.028.054.028.081-.422 1.971-.857 3.602-1.291 4.906a43 43 0 0 1-1.59 4.05c-.055.122-.15.15-.286.095l-.448-.163c-.123-.04-.15-.136-.068-.272m6.03-8.588v6.428c0 .665-.122 1.195-.34 1.576-.353.625-.965.924-1.834.924h-.49c-.108 0-.149-.055-.149-.163v-.449c0-.108.041-.163.149-.163h.462c.544 0 .924-.203 1.115-.625.136-.299.204-.68.204-1.168v-6.36c0-.095.054-.15.163-.15h.557c.109 0 .163.055.163.15m.19-1.944v.082c0 .435-.204.652-.598.652h-.054c-.421 0-.625-.217-.625-.652v-.082c0-.42.204-.638.625-.638h.054c.394 0 .598.217.598.638m6.937 8.222c0 .163-.095.231-.258.231h-.381q-.162 0-.203-.04c-.028-.028-.041-.082-.041-.191v-3.968c0-.802-.218-1.332-.625-1.59-.272-.163-.639-.258-1.101-.258-.639 0-1.087.19-1.332.57q-.244.367-.244 1.06v4.213q0 .204-.245.204h-.421c-.15 0-.218-.068-.218-.204v-6.305c0-.095.041-.15.136-.15h.408c.095 0 .149.055.163.15l.068.543h.027c.109-.19.299-.353.557-.516.34-.19.761-.3 1.278-.3 1.046 0 1.753.314 2.106.911q.326.57.326 1.753zm6.385-4.226v1.114c0 .19-.041.326-.109.408-.081.081-.203.108-.394.108h-3.506c.027.816.163 1.387.435 1.713.258.326.707.475 1.345.475.53 0 1.033-.081 1.495-.271.177-.068.286-.041.326.095l.096.312a.26.26 0 0 1-.014.204q-.04.081-.285.163c-.462.177-1.006.258-1.618.258-.992 0-1.685-.244-2.079-.747-.407-.49-.598-1.305-.598-2.433V25.4c0-1.087.191-1.89.585-2.405.38-.517 1.046-.775 1.97-.775.775 0 1.359.19 1.753.557.394.394.598.979.598 1.767m-2.337-1.563c-.598 0-1.033.177-1.278.516-.258.354-.394.979-.394 1.903h2.922c.068 0 .122 0 .149-.027.028-.027.041-.082.041-.177v-.516c0-.585-.108-1.006-.312-1.264-.245-.286-.612-.435-1.128-.435m4.499-.421h.136c.381 0 .584.176.584.53v.326c0 .353-.203.53-.584.53h-.136c-.394 0-.584-.177-.584-.53v-.326c0-.354.19-.53.584-.53m0 5.177h.136c.381 0 .584.177.584.53v.326c0 .354-.203.53-.584.53h-.136c-.394 0-.584-.176-.584-.53v-.326c0-.353.19-.53.584-.53m9.347-.992h-3.724c-.177 0-.258-.081-.258-.272v-.23q0-.144.245-.571l3.084-5.246c.082-.136.218-.217.435-.217h.816c.217 0 .339.108.339.299v5.435h.884c.149 0 .231.068.231.19v.395c0 .15-.082.217-.231.217h-.884v2.025c0 .163-.081.231-.217.231h-.517c-.135 0-.203-.068-.203-.231zm0-.802v-4.905h-.096l-2.894 4.905zm3.853 1.794h.203c.422 0 .639.231.639.693v.258c0 .3-.068.626-.177.979a3.7 3.7 0 0 1-.57 1.02c-.082.108-.177.135-.286.067l-.244-.15c-.109-.054-.109-.135-.014-.258.082-.108.163-.258.272-.448.081-.163.149-.313.19-.462.027-.109.014-.19-.068-.245l-.244-.122c-.177-.082-.259-.272-.259-.557v-.258c0-.34.177-.517.558-.517m5.901-.992h-3.724c-.176 0-.258-.081-.258-.272v-.23q0-.144.245-.571l3.084-5.246c.082-.136.218-.217.435-.217h.816c.217 0 .339.108.339.299v5.435h.884c.149 0 .231.068.231.19v.395c0 .15-.082.217-.231.217h-.884v2.025c0 .163-.081.231-.217.231h-.517c-.135 0-.203-.068-.203-.231zm0-.802v-4.905h-.095l-2.895 4.905zm7.753.38v-.121c0-.64-.15-1.115-.421-1.44-.299-.313-.734-.476-1.332-.476s-1.128.149-1.604.448c-.122.081-.217.095-.299.054l-.204-.081c-.095-.027-.135-.109-.108-.231l.285-4.023c0-.163.095-.244.272-.244h3.56c.163 0 .245.081.245.217v.326c0 .15-.095.218-.272.218h-2.881c-.122 0-.19.068-.19.176l-.19 2.745c.421-.271.951-.407 1.603-.407.87 0 1.522.258 1.957.76.381.463.571 1.115.571 1.93v.15c0 .951-.272 1.658-.788 2.12-.517.462-1.237.68-2.188.68a4.7 4.7 0 0 1-2.12-.49c-.15-.068-.204-.163-.15-.285l.136-.367c.041-.136.136-.163.299-.095.557.326 1.169.475 1.848.475.68 0 1.183-.163 1.495-.503.313-.326.476-.829.476-1.535m4.288 2.624 4.81-8.698a.28.28 0 0 1 .258-.163h.517c.136 0 .177.068.122.177l-4.81 8.697a.33.33 0 0 1-.299.163h-.476c-.136 0-.177-.054-.122-.176m1.766-6.523v.15c0 .937-.176 1.576-.53 1.929q-.408.408-1.182.408t-1.182-.408c-.354-.353-.53-.992-.53-1.93v-.15c0-.923.176-1.576.53-1.929q.408-.408 1.182-.408t1.182.408c.354.353.53 1.006.53 1.93m-.829.136v-.123q0-.938-.204-1.304c-.135-.231-.353-.354-.679-.354s-.557.123-.693.354c-.136.244-.19.68-.19 1.304v.123c0 .638.054 1.073.19 1.304.136.245.367.354.693.354s.544-.11.679-.354q.204-.346.204-1.304m6.428 4.076v.15c0 .938-.177 1.576-.53 1.93q-.408.407-1.182.407-.775 0-1.182-.407c-.354-.354-.53-.992-.53-1.93v-.15c0-.924.176-1.576.53-1.93q.407-.407 1.182-.407t1.182.408c.353.353.53 1.005.53 1.93m-.829.136v-.122q0-.937-.204-1.305c-.136-.23-.353-.353-.679-.353s-.557.122-.693.354c-.136.244-.19.679-.19 1.304v.122c0 .639.054 1.074.19 1.305.136.244.367.353.693.353s.543-.108.679-.353q.204-.346.204-1.305m2.681 3.765c-.109.136-.217.163-.353.095l-.327-.163c-.122-.055-.149-.15-.067-.259 1.114-1.48 1.671-3.166 1.671-5.068 0-.965-.136-1.848-.38-2.637-.245-.788-.68-1.603-1.278-2.432-.081-.109-.054-.19.095-.272l.313-.163c.109-.054.217-.027.312.081 1.278 1.645 1.916 3.439 1.916 5.395a8.6 8.6 0 0 1-.434 2.76c-.299.855-.789 1.738-1.468 2.663m4.066-2.8h.135c.381 0 .585.177.585.53v.326c0 .354-.204.53-.585.53h-.135c-.394 0-.585-.176-.585-.53v-.326c0-.353.191-.53.585-.53M1.726 40.42v.367c0 1.495.204 2.474.611 2.95.354.42.897.624 1.617.624.789 0 1.346-.23 1.7-.706.352-.49.53-1.44.53-2.868v-.367c0-.706-.042-1.29-.11-1.753s-.203-.829-.42-1.128c-.354-.462-.911-.693-1.7-.693q-1.161 0-1.671.694c-.38.489-.557 1.453-.557 2.88m5.45-.163v.707c0 1.576-.286 2.663-.83 3.289-.516.584-1.304.87-2.391.87-1.02 0-1.78-.259-2.297-.775-.625-.625-.924-1.753-.924-3.384v-.707c0-1.576.285-2.69.856-3.33.503-.556 1.29-.842 2.364-.842 1.06 0 1.849.286 2.365.843.57.639.856 1.753.856 3.33M9.88 45h-.57q-.164 0-.164-.163v-5.721h-.829c-.095 0-.136-.04-.136-.15v-.272c0-.108.041-.163.136-.176l.83-.177v-.421c0-.598.094-1.046.284-1.373.34-.57.952-.87 1.821-.87.435 0 .789.041 1.087.123q.164.06.164.204l-.068.38c-.027.123-.109.163-.231.136a4.6 4.6 0 0 0-.816-.081c-.435 0-.747.095-.951.258-.272.217-.408.625-.408 1.236v.408h1.454c.082 0 .136.055.136.136v.503c0 .095-.054.136-.136.136H10.03v5.72c0 .11-.054.164-.15.164m7.488-4.457v1.114c0 .19-.04.326-.109.408-.081.081-.203.108-.394.108H13.36c.027.816.163 1.386.435 1.713.258.326.707.475 1.345.475.53 0 1.033-.081 1.495-.271.177-.068.286-.041.326.095l.096.312a.26.26 0 0 1-.014.204q-.04.082-.285.163c-.462.177-1.006.258-1.618.258-.991 0-1.685-.244-2.079-.747-.407-.49-.598-1.305-.598-2.433V41.4c0-1.087.19-1.89.585-2.406.38-.516 1.046-.774 1.97-.774.775 0 1.36.19 1.753.557.394.394.598.978.598 1.767m-2.337-1.563c-.598 0-1.033.177-1.278.516-.258.354-.394.979-.394 1.903h2.922c.068 0 .122 0 .15-.027.027-.028.04-.082.04-.177v-.516c0-.585-.108-1.006-.312-1.264-.245-.286-.612-.435-1.128-.435M19.61 45h-.434c-.15 0-.218-.054-.218-.177v-6.332c0-.095.055-.15.163-.15h.395c.081 0 .136.055.163.15l.054.706h.027c.3-.57.83-.856 1.577-.856h.353c.109 0 .177.055.177.163v.462c0 .11-.068.15-.177.15h-.367c-.598 0-1.02.19-1.237.557-.163.272-.244.625-.244 1.073v4.077c0 .123-.082.177-.231.177m6.502 0h-.64c-.706 0-1.222-.177-1.521-.544-.299-.353-.449-.87-.449-1.562v-3.778h-.829c-.095 0-.135-.04-.135-.15v-.272c0-.108.04-.163.135-.176l.83-.177v-1.535q0-.164.163-.163h.57c.095 0 .15.054.15.163v1.535h1.59c.081 0 .136.055.136.136v.503c0 .095-.055.136-.136.136h-1.59v3.669c0 .544.081.924.244 1.114.163.231.503.34.992.34h.49c.108 0 .163.054.163.15v.461c0 .11-.055.15-.163.15m5.183-.136-.027-.462h-.028c-.299.49-.788.72-1.44.72h-.68c-.652 0-1.127-.163-1.454-.489s-.489-.747-.489-1.277v-.408q0-1.284 1.06-1.712c.3-.122.843-.19 1.63-.19h.409c.326 0 .638.013.91.04v-.774c0-.49-.136-.843-.394-1.033-.272-.19-.68-.3-1.25-.3-.476 0-.938.069-1.4.205-.218.054-.326.027-.353-.109l-.068-.285c-.055-.163 0-.258.15-.313a6.3 6.3 0 0 1 1.739-.258c.87 0 1.494.163 1.875.475.38.313.584.816.584 1.523v4.647c0 .095-.054.136-.15.136h-.448c-.122 0-.176-.04-.176-.136m-.109-1.902v-1.128a7 7 0 0 0-.815-.041h-.761c-.571 0-.965.095-1.196.272-.231.176-.34.475-.34.897v.285c0 .408.095.707.285.883.163.163.449.245.83.245h.556c.449 0 .802-.109 1.06-.353.245-.245.381-.598.381-1.06m6.458-1.427v.258c0 .68.04 1.169.136 1.495.204.72.734 1.073 1.576 1.073s1.373-.353 1.59-1.073c.082-.326.136-.816.136-1.495v-.258c0-.666-.054-1.169-.136-1.495q-.306-1.06-1.59-1.06c-.856 0-1.386.353-1.576 1.06-.095.326-.136.829-.136 1.495m4.335-.136v.543c0 1.223-.245 2.08-.707 2.542-.435.434-1.073.638-1.916.638-.842 0-1.468-.203-1.902-.638-.476-.462-.707-1.319-.707-2.542V41.4c0-1.223.231-2.08.707-2.555.42-.408 1.06-.625 1.902-.625.843 0 1.481.217 1.916.625.462.476.707 1.332.707 2.555m4.044 2.962c.68 0 1.142-.176 1.4-.53.258-.367.394-1.019.394-1.943v-.462c0-.978-.19-1.658-.544-2.025-.285-.272-.72-.421-1.29-.421-.585 0-1.006.136-1.278.408-.15.15-.245.326-.299.516-.054.204-.068.503-.068.883v1.862c0 .544.095.938.285 1.196.245.353.707.516 1.4.516M44.34 35.95v2.921h.027q.51-.652 1.713-.652 1.344 0 1.997.774c.422.517.639 1.305.639 2.379v.625c0 1.141-.231 1.957-.68 2.419-.448.475-1.127.706-2.024.706-.979 0-1.658-.23-2.052-.706-.34-.394-.503-.952-.503-1.672V35.95c0-.096.054-.15.163-.15h.557c.109 0 .163.054.163.15m6.497 5.585v.258c0 .68.04 1.169.136 1.495.204.72.734 1.073 1.576 1.073s1.373-.353 1.59-1.073c.082-.326.136-.816.136-1.495v-.258c0-.666-.054-1.169-.136-1.495q-.304-1.06-1.59-1.06c-.856 0-1.386.353-1.576 1.06-.095.326-.136.829-.136 1.495m4.335-.136v.543c0 1.223-.245 2.08-.706 2.542-.435.434-1.074.638-1.917.638-.842 0-1.467-.203-1.902-.638-.476-.462-.707-1.319-.707-2.542V41.4c0-1.223.231-2.08.707-2.555.421-.408 1.06-.625 1.902-.625.843 0 1.482.217 1.916.625.462.476.707 1.332.707 2.555m4.833-2.732h.611c.245 0 .408.136.462.38.394 1.958.802 3.71 1.237 5.26h.068c.503-1.93.924-3.873 1.264-5.803 0-.081.027-.122.054-.136a.45.45 0 0 1 .19-.027h.421q.142 0 .204.041c.027.027.041.068.041.15q-.449 2.283-1.386 5.91c-.109.381-.3.558-.57.558h-.463c-.176 0-.312-.04-.394-.122-.095-.082-.163-.218-.217-.435a86 86 0 0 1-1.17-4.96h-.094a98 98 0 0 1-1.169 4.96c-.054.217-.136.353-.217.435a.6.6 0 0 1-.394.122h-.462c-.286 0-.476-.177-.571-.557q-.958-3.63-1.386-5.911c-.014-.082 0-.123.04-.15q.042-.04.204-.04h.422q.204 0 .244.162a63 63 0 0 0 1.264 5.803h.068a91 91 0 0 0 1.237-5.26c.054-.244.203-.38.462-.38m6.835-.176v6.4c0 .082-.04.109-.122.109h-.653c-.081 0-.108-.027-.108-.109v-6.4c0-.095.054-.15.163-.15h.557c.109 0 .163.055.163.15m.19-1.944v.082c0 .435-.204.652-.598.652h-.054c-.421 0-.625-.217-.625-.652v-.082c0-.42.204-.638.625-.638h.054c.394 0 .598.217.598.638m5.565 8.399-.013-.544h-.028c-.299.49-.788.72-1.44.72h-.68c-.652 0-1.127-.163-1.454-.489s-.489-.747-.489-1.277v-.408q0-1.284 1.06-1.712c.3-.122.843-.19 1.63-.19h.409c.326 0 .638.013.91.04v-.774c0-.49-.136-.843-.394-1.033-.272-.19-.68-.3-1.25-.3-.476 0-.938.069-1.4.205-.217.054-.326.027-.353-.109l-.068-.285c-.055-.163 0-.258.15-.313a6.3 6.3 0 0 1 1.739-.258c.87 0 1.495.163 1.875.475.38.313.57.816.57 1.523v4.538c0 .11-.04.204-.121.272-.327.3-.571.544-.707.761-.15.218-.218.435-.218.68 0 .326.19.489.585.489.217 0 .435-.04.652-.15.095-.04.163-.013.19.068l.082.38c.027.096-.014.164-.109.205a2.6 2.6 0 0 1-1.005.203q-1.305 0-1.305-1.019 0-.53.285-.897c.19-.244.49-.516.897-.801m-.095-1.97v-1.142a7 7 0 0 0-.815-.041h-.761c-.571 0-.965.095-1.196.272-.231.176-.34.475-.34.897v.271q0 .632.285.897c.164.163.449.245.83.245h.557c.448 0 .801-.109 1.06-.353.244-.231.38-.585.38-1.047m6.698 1.399v.49c0 .094-.054.135-.136.135h-4.24c-.095 0-.135-.04-.135-.136v-.23c0-.137.081-.327.244-.599l2.99-4.933h-3.004c-.095 0-.135-.04-.135-.136v-.489c0-.081.04-.136.135-.136h4.023c.082 0 .136.055.136.136v.19c0 .163-.123.435-.353.816L75.8 44.239h3.261c.082 0 .136.054.136.136m5.457-6.034h.57c.096 0 .15.068.15.177v4.566c0 .693-.204 1.21-.598 1.55-.38.325-1.006.488-1.848.488s-1.468-.163-1.848-.489q-.612-.51-.612-1.55V38.56c0-.136.054-.218.19-.218h.503c.123 0 .19.068.19.19v4.444c0 .503.11.856.354 1.06q.366.327 1.223.326c.57 0 .978-.122 1.25-.38.204-.19.313-.53.313-1.006v-4.457c0-.109.054-.177.163-.177m3.604.15v6.428c0 .665-.122 1.195-.34 1.576-.353.625-.964.924-1.834.924h-.49c-.108 0-.149-.054-.149-.163v-.449c0-.108.041-.163.15-.163h.462c.543 0 .924-.203 1.114-.625.136-.299.204-.68.204-1.169v-6.36c0-.094.054-.149.163-.149h.557c.109 0 .163.055.163.15m.19-1.944v.082c0 .435-.203.652-.597.652h-.055c-.42 0-.625-.217-.625-.652v-.082c0-.42.204-.638.625-.638h.055c.394 0 .598.217.598.638m6.448 3.996v1.114c0 .19-.04.326-.108.408-.082.081-.204.108-.394.108h-3.507c.028.816.164 1.386.435 1.713.258.326.707.475 1.346.475.53 0 1.032-.081 1.494-.271.177-.068.286-.041.327.095l.095.312a.26.26 0 0 1-.014.204q-.04.082-.285.163c-.462.177-1.006.258-1.617.258-.992 0-1.685-.244-2.08-.747-.407-.49-.597-1.305-.597-2.433V41.4c0-1.087.19-1.89.584-2.406.38-.516 1.046-.774 1.97-.774.775 0 1.36.19 1.753.557.394.394.598.978.598 1.767M92.56 38.98c-.598 0-1.033.177-1.277.516-.259.354-.394.979-.394 1.903h2.921c.068 0 .123 0 .15-.027.027-.028.04-.082.04-.177v-.516c0-.585-.108-1.006-.312-1.264-.245-.286-.612-.435-1.128-.435m12.06-3.03v6.821c0 .707-.177 1.25-.503 1.645-.408.475-1.087.706-2.052.706-.978 0-1.671-.217-2.08-.666-.42-.434-.624-1.25-.624-2.446v-.638c0-1.074.204-1.862.639-2.379q.632-.774 1.997-.774 1.182 0 1.712.652h.028V35.95c0-.095.054-.149.163-.149h.557c.109 0 .163.054.163.15m-.883 6.699v-1.862c0-.57-.15-1.005-.422-1.331-.272-.313-.679-.476-1.223-.476-.611 0-1.06.163-1.332.462-.339.38-.502 1.046-.502 1.998v.462q0 1.508.489 2.038c.245.285.679.421 1.304.421.68 0 1.156-.163 1.4-.516.19-.258.286-.652.286-1.196m3.262-1.114v.258c0 .68.041 1.169.136 1.495.204.72.734 1.073 1.577 1.073.842 0 1.372-.353 1.589-1.073.082-.326.136-.816.136-1.495v-.258c0-.666-.054-1.169-.136-1.495q-.305-1.06-1.589-1.06c-.857 0-1.387.353-1.577 1.06-.095.326-.136.829-.136 1.495m4.335-.136v.543c0 1.223-.244 2.08-.706 2.542-.435.434-1.074.638-1.916.638-.843 0-1.468-.203-1.903-.638-.476-.462-.707-1.319-.707-2.542V41.4c0-1.223.231-2.08.707-2.555.421-.408 1.06-.625 1.903-.625.842 0 1.481.217 1.916.625.462.476.706 1.332.706 2.555m6.985 2.962c.625 0 1.114-.15 1.44-.448.285-.272.435-.693.435-1.25v-.123c0-.68-.19-1.155-.557-1.413s-.938-.394-1.712-.394h-.408c-.136 0-.19-.054-.19-.177v-.407c0-.123.068-.19.217-.19h.313c1.44 0 2.16-.53 2.16-1.618v-.122q0-.673-.407-1.02c-.272-.23-.653-.353-1.128-.353-.544 0-1.087.11-1.617.313-.191.068-.299.04-.327-.095l-.108-.353c-.041-.123.027-.218.19-.272a5.6 5.6 0 0 1 1.957-.354q1.161 0 1.794.53c.421.354.638.856.638 1.536v.177c0 1.019-.475 1.671-1.399 1.956v.041c.462.095.829.326 1.128.693.299.38.448.856.448 1.44v.178c0 1.657-.951 2.486-2.827 2.486-.72 0-1.413-.081-2.065-.272-.163-.04-.218-.135-.19-.271l.081-.354c.027-.136.122-.19.299-.136.571.19 1.182.272 1.835.272m8.052-.122h1.902q.204 0 .204.204v.38c0 .123-.068.177-.204.177h-4.797q-.204 0-.204-.204v-.353q0-.204.204-.204h1.957v-7.107h-.095l-1.4.842c-.122.082-.217.055-.285-.068l-.218-.353c-.081-.109-.054-.19.068-.258l1.495-.924a1.05 1.05 0 0 1 .585-.163h.462q.326 0 .326.285zm4.125-.503h.135c.381 0 .585.177.585.53v.326c0 .354-.204.53-.585.53h-.135c-.395 0-.585-.176-.585-.53v-.326c0-.353.19-.53.585-.53m7.737-3.316v.367c0 1.753-.299 2.95-.883 3.602-.435.489-1.087.733-1.944.733-.869 0-1.508-.244-1.943-.733-.598-.653-.883-1.849-.883-3.602v-.367c0-1.739.285-2.949.883-3.6.435-.49 1.074-.735 1.943-.735.857 0 1.509.245 1.944.734.584.652.883 1.862.883 3.601m-4.661.096v.176c0 1.468.163 2.46.516 2.99.272.462.721.68 1.318.68s1.033-.218 1.319-.68c.339-.53.516-1.522.516-2.99v-.176c0-1.454-.177-2.447-.516-2.99-.286-.449-.721-.68-1.319-.68-.597 0-1.046.231-1.318.68-.353.543-.516 1.535-.516 2.99m8.541 3.845c.625 0 1.115-.15 1.441-.448.285-.272.435-.693.435-1.25v-.123c0-.68-.191-1.155-.558-1.413-.366-.258-.937-.394-1.712-.394h-.408c-.135 0-.19-.054-.19-.177v-.407c0-.123.068-.19.218-.19h.312c1.441 0 2.161-.53 2.161-1.618v-.122q0-.673-.408-1.02c-.272-.23-.652-.353-1.128-.353-.543 0-1.087.11-1.617.313-.19.068-.299.04-.326-.095l-.109-.353c-.04-.123.028-.218.191-.272a5.6 5.6 0 0 1 1.956-.354q1.162 0 1.794.53c.422.354.639.856.639 1.536v.177c0 1.019-.476 1.671-1.4 1.956v.041c.462.095.829.326 1.128.693.299.38.449.856.449 1.44v.178c0 1.657-.952 2.486-2.827 2.486-.72 0-1.413-.081-2.066-.272-.163-.04-.217-.135-.19-.271l.082-.354c.027-.136.122-.19.299-.136.57.19 1.182.272 1.834.272m5.117-.625h.136c.38 0 .584.177.584.53v.326c0 .354-.204.53-.584.53h-.136c-.394 0-.584-.176-.584-.53v-.326c0-.353.19-.53.584-.53m2.764-7.284a6.5 6.5 0 0 1 2.133-.367c.802 0 1.414.163 1.821.462q.734.57.734 1.754v.176c0 .639-.149 1.142-.421 1.495-.285.367-.775.693-1.454.992l-.938.408c-.53.23-.883.516-1.06.87-.176.353-.258.87-.258 1.521v.476h3.791c.109 0 .177.068.177.177v.407c0 .123-.068.177-.177.177h-4.416c-.122 0-.204-.014-.245-.068-.054-.054-.068-.136-.068-.258v-.788c0-.816.123-1.468.381-1.984.245-.503.72-.91 1.4-1.21l.937-.407c.53-.231.884-.476 1.074-.734q.285-.367.285-1.06v-.095c0-.571-.149-.992-.448-1.237-.272-.204-.666-.313-1.183-.313-.57 0-1.182.123-1.82.34-.191.068-.299.027-.327-.109l-.108-.353c-.028-.122.027-.217.19-.272m12.034 3.968v.367c0 1.753-.299 2.95-.884 3.602-.434.489-1.087.733-1.943.733-.87 0-1.508-.244-1.943-.733-.598-.653-.883-1.849-.883-3.602v-.367c0-1.739.285-2.949.883-3.6.435-.49 1.073-.735 1.943-.735.856 0 1.509.245 1.943.734.585.652.884 1.862.884 3.601m-4.661.096v.176c0 1.468.163 2.46.516 2.99.272.462.72.68 1.318.68s1.033-.218 1.318-.68c.34-.53.517-1.522.517-2.99v-.176c0-1.454-.177-2.447-.517-2.99-.285-.449-.72-.68-1.318-.68s-1.046.231-1.318.68c-.353.543-.516 1.535-.516 2.99m6.747-4.064a6.5 6.5 0 0 1 2.134-.367c.801 0 1.413.163 1.821.462q.733.57.733 1.754v.176c0 .639-.149 1.142-.421 1.495-.285.367-.774.693-1.454.992l-.938.408c-.53.23-.883.516-1.06.87-.176.353-.258.87-.258 1.521v.476h3.792c.108 0 .176.068.176.177v.407c0 .123-.068.177-.176.177h-4.417c-.122 0-.204-.014-.244-.068-.055-.054-.068-.136-.068-.258v-.788c0-.816.122-1.468.38-1.984.245-.503.72-.91 1.4-1.21l.937-.407c.53-.231.884-.476 1.074-.734q.285-.367.285-1.06v-.095c0-.571-.149-.992-.448-1.237-.272-.204-.666-.313-1.182-.313-.571 0-1.183.123-1.821.34-.191.068-.299.027-.326-.109l-.109-.353c-.027-.122.027-.217.19-.272m11.246-.176c.163.054.231.15.204.258l-.096.34c-.054.15-.149.203-.285.15a4.5 4.5 0 0 0-1.237-.178c-.747 0-1.318.272-1.712.802-.353.476-.584 1.318-.666 2.528a3 3 0 0 1 .924-.503c.381-.122.748-.19 1.115-.19.774 0 1.386.23 1.821.68.434.448.665 1.073.665 1.875v.244c0 .883-.244 1.577-.72 2.08-.489.516-1.141.76-1.984.76-1.033 0-1.766-.326-2.201-.992-.435-.652-.639-1.658-.639-3.017v-.326c0-.788.082-1.508.258-2.188q.245-1.018.734-1.549c.557-.639 1.386-.965 2.473-.965.544 0 .992.068 1.346.19m-1.93 4.008c-.707 0-1.332.286-1.889.83v.19c0 1.032.136 1.807.408 2.31s.734.747 1.386.747c.557 0 .992-.163 1.304-.516.299-.353.462-.856.462-1.522v-.177q0-.916-.448-1.386c-.299-.312-.707-.475-1.223-.475m4.655 3.452h.136c.38 0 .584.177.584.53v.326c0 .354-.204.53-.584.53h-.136c-.394 0-.585-.176-.585-.53v-.326c0-.353.191-.53.585-.53m7.525 1.386c-.843 0-1.59-.122-2.256-.394-.123-.04-.163-.122-.136-.23l.109-.45c.027-.135.122-.162.285-.108a4.7 4.7 0 0 0 1.97.421c.626 0 1.101-.136 1.427-.421s.49-.693.49-1.237v-.15c0-.488-.109-.842-.299-1.059-.191-.218-.571-.408-1.142-.544l-.91-.217c-.666-.163-1.156-.408-1.468-.761-.313-.34-.462-.815-.462-1.44v-.204c0-.72.231-1.278.693-1.658s1.101-.585 1.916-.585c.734 0 1.373.096 1.943.259.15.054.204.15.177.299l-.095.326q-.062.204-.326.122a6 6 0 0 0-1.672-.245c-1.128 0-1.685.503-1.685 1.495v.136c0 .462.109.788.326.992s.585.367 1.101.476l.856.204c.734.176 1.25.434 1.549.76q.449.51.449 1.509v.218c0 .828-.245 1.453-.734 1.861-.489.422-1.182.625-2.106.625m8.328-.747v.49c0 .094-.055.135-.136.135h-4.24c-.095 0-.136-.04-.136-.136v-.23c0-.137.082-.327.245-.599l2.989-4.933h-3.003c-.095 0-.136-.04-.136-.136v-.489c0-.081.041-.136.136-.136h4.023c.081 0 .135.055.135.136v.19c0 .163-.122.435-.353.816l-2.922 4.756h3.262c.081 0 .136.054.136.136m5.361-.177.095.313q.04.142 0 .204c-.027.04-.095.081-.231.135-.448.19-.965.272-1.549.272-.842 0-1.468-.19-1.875-.584-.53-.476-.788-1.373-.788-2.69v-.45c0-1.195.271-2.051.829-2.568q.651-.61 1.834-.611c.353 0 .72.068 1.074.177.353.122.652.258.869.42.068.055.068.137.014.218l-.231.38c-.054.082-.122.096-.231.028-.516-.299-1.006-.462-1.495-.462-.53 0-.938.15-1.223.421-.367.367-.543 1.074-.543 2.12v.231c0 1.033.135 1.74.434 2.093.272.353.721.516 1.373.516.435 0 .87-.081 1.318-.258.177-.068.285-.04.326.095m5.6.177v.49c0 .094-.054.135-.135.135h-4.24c-.095 0-.136-.04-.136-.136v-.23c0-.137.081-.327.244-.599l2.99-4.933h-3.003c-.095 0-.136-.04-.136-.136v-.489c0-.081.041-.136.136-.136h4.022c.082 0 .136.055.136.136v.19c0 .163-.122.435-.353.816l-2.922 4.756h3.262c.081 0 .135.054.135.136m5.919-3.832v1.114c0 .19-.041.326-.109.408-.081.081-.203.108-.394.108h-3.506c.027.816.163 1.386.435 1.713.258.326.707.475 1.345.475.53 0 1.033-.081 1.495-.271.177-.068.286-.041.326.095l.096.312a.26.26 0 0 1-.014.204q-.04.082-.285.163c-.462.177-1.006.258-1.618.258-.992 0-1.685-.244-2.079-.747-.407-.49-.598-1.305-.598-2.433V41.4c0-1.087.191-1.89.585-2.406.38-.516 1.046-.774 1.97-.774.775 0 1.359.19 1.753.557.394.394.598.978.598 1.767m-2.337-1.563c-.598 0-1.033.177-1.278.516-.258.354-.394.979-.394 1.903h2.922c.068 0 .122 0 .149-.027.028-.028.041-.082.041-.177v-.516c0-.585-.109-1.006-.312-1.264-.245-.286-.612-.435-1.128-.435m8.032 4.118a3 3 0 0 1-.353.271c.775.503 1.169 1.142 1.169 1.903v.15c0 .733-.245 1.263-.734 1.603-.489.353-1.169.516-2.011.516-.87 0-1.699-.176-2.46-.557-.095-.04-.136-.109-.109-.217l.15-.408q.041-.163.244-.082c.693.34 1.387.503 2.08.503.652 0 1.141-.095 1.44-.299q.448-.306.448-1.1v-.11c0-.706-.339-1.25-1.005-1.603-.218.055-.476.068-.802.068-.774 0-1.372-.163-1.807-.503-.476-.407-.707-1.06-.707-1.984v-.557c0-.937.231-1.603.707-1.998.38-.312.992-.475 1.807-.475.19 0 .34.014.435.014.217-.653.734-.992 1.522-.992h.326c.122 0 .19.067.19.19v.53c0 .013-.013.027-.013.04-.014.014-.027.028-.055.028-.027.013-.068.013-.095.013h-.407c-.354 0-.571.123-.68.34.245.095.449.204.598.313.462.394.707 1.06.707 1.997v.557c0 .802-.204 1.414-.585 1.848m-3.533-2.31v.353c0 .434.041.801.15 1.073.19.557.679.83 1.44.83.775 0 1.264-.273 1.468-.83.081-.258.136-.625.136-1.087v-.34c0-.462-.055-.815-.136-1.06-.109-.299-.286-.502-.517-.625-.231-.122-.543-.19-.951-.19-.394 0-.707.068-.938.19-.231.123-.394.326-.502.625-.109.272-.15.625-.15 1.06m6.437.747v.258c0 .68.04 1.169.135 1.495.204.72.734 1.073 1.577 1.073.842 0 1.372-.353 1.59-1.073.081-.326.136-.816.136-1.495v-.258c0-.666-.055-1.169-.136-1.495q-.306-1.06-1.59-1.06c-.856 0-1.386.353-1.577 1.06-.095.326-.135.829-.135 1.495m4.335-.136v.543c0 1.223-.245 2.08-.707 2.542-.435.434-1.074.638-1.916.638-.843 0-1.468-.203-1.903-.638-.475-.462-.706-1.319-.706-2.542V41.4c0-1.223.231-2.08.706-2.555.422-.408 1.06-.625 1.903-.625.842 0 1.481.217 1.916.625.462.476.707 1.332.707 2.555m-3.928-4.879 2.31-1.128c.177-.081.299-.04.367.095l.231.476c.055.136-.013.245-.176.326l-2.324.883c-.177.069-.286.041-.34-.081l-.136-.299c-.054-.122-.041-.217.068-.272m6.395-.57v3.506l1.346-.884c.149-.081.231-.04.231.15v.475a.42.42 0 0 1-.204.38l-1.373.911v2.732q0 .712.123.856c.068.109.231.15.489.15h.367c.109 0 .163.054.163.149v.462c0 .109-.054.163-.136.163h-.516c-.49 0-.843-.095-1.047-.313-.217-.217-.326-.638-.326-1.25v-2.364l-.938.611c-.163.095-.231.041-.231-.15v-.475c0-.163.068-.285.204-.38l.965-.64v-4.09c0-.095.054-.149.163-.149h.557c.109 0 .163.054.163.15m3.356 11.13c.367-.721.693-1.441.992-2.175-.407 0-.72-.285-.91-.856a29 29 0 0 1-.761-2.338 59 59 0 0 1-.829-3.193c-.027-.109.014-.177.149-.177h.612c.081 0 .122.041.149.123.191.964.435 1.97.721 3.016.149.598.38 1.332.679 2.202.054.163.109.285.177.34.054.068.149.095.258.095h.054c.517-1.414 1.006-3.302 1.482-5.667.013-.068.068-.109.149-.109h.625c.055 0 .082.014.109.041s.027.054.027.082c-.421 1.97-.856 3.6-1.291 4.905a43 43 0 0 1-1.59 4.05c-.054.122-.149.15-.285.095l-.449-.163c-.122-.04-.149-.136-.068-.272m9.215-8.59v6.401c0 .082-.041.109-.122.109h-.652c-.082 0-.109-.027-.109-.109v-6.4c0-.095.054-.15.163-.15h.557c.109 0 .163.055.163.15m.19-1.943v.082c0 .435-.203.652-.598.652h-.054c-.421 0-.625-.217-.625-.652v-.082c0-.42.204-.638.625-.638h.054c.395 0 .598.217.598.638M244.685 45h-.435c-.149 0-.217-.054-.217-.177v-6.332c0-.095.054-.15.163-.15h.394c.081 0 .136.055.163.15l.054.706h.028c.299-.57.829-.856 1.576-.856h.353c.109 0 .177.055.177.163v.462c0 .11-.068.15-.177.15h-.367c-.598 0-1.019.19-1.236.557-.163.272-.245.625-.245 1.073v4.077c0 .123-.081.177-.231.177m8.041-4.457v1.114c0 .19-.04.326-.108.408-.082.081-.204.108-.394.108h-3.506c.027.816.163 1.386.434 1.713.259.326.707.475 1.346.475a3.9 3.9 0 0 0 1.495-.271c.176-.068.285-.041.326.095l.095.312a.26.26 0 0 1-.014.204q-.04.082-.285.163c-.462.177-1.006.258-1.617.258-.992 0-1.685-.244-2.079-.747-.408-.49-.598-1.305-.598-2.433V41.4c0-1.087.19-1.89.584-2.406.38-.516 1.046-.774 1.97-.774.775 0 1.359.19 1.753.557.395.394.598.978.598 1.767m-2.337-1.563c-.598 0-1.033.177-1.277.516-.259.354-.394.979-.394 1.903h2.921c.068 0 .123 0 .15-.027.027-.028.04-.082.04-.177v-.516c0-.585-.108-1.006-.312-1.264-.245-.286-.612-.435-1.128-.435m8.033 4.118a3 3 0 0 1-.354.271c.775.503 1.169 1.142 1.169 1.903v.15c0 .733-.245 1.263-.734 1.603-.489.353-1.168.516-2.011.516-.87 0-1.699-.176-2.46-.557-.095-.04-.136-.109-.108-.217l.149-.408q.04-.163.245-.082c.693.34 1.386.503 2.079.503.652 0 1.141-.095 1.44-.299q.449-.306.449-1.1v-.11c0-.706-.34-1.25-1.006-1.603-.217.055-.475.068-.802.068-.774 0-1.372-.163-1.807-.503-.476-.407-.707-1.06-.707-1.984v-.557c0-.937.231-1.603.707-1.998.381-.312.992-.475 1.807-.475.191 0 .34.014.435.014.218-.653.734-.992 1.522-.992h.326c.123 0 .191.067.191.19v.53c0 .013-.014.027-.014.04-.014.014-.027.028-.054.028-.027.013-.068.013-.095.013h-.408c-.353 0-.571.123-.68.34.245.095.449.204.598.313.462.394.707 1.06.707 1.997v.557c0 .802-.204 1.414-.584 1.848m-3.534-2.31v.353c0 .434.041.801.15 1.073.19.557.679.83 1.44.83.775 0 1.264-.273 1.468-.83.082-.258.136-.625.136-1.087v-.34c0-.462-.054-.815-.136-1.06-.109-.299-.285-.502-.516-.625-.231-.122-.544-.19-.952-.19-.394 0-.706.068-.937.19-.231.123-.394.326-.503.625-.109.272-.15.625-.15 1.06m9.984-2.447h.57c.095 0 .15.068.15.177v4.566c0 .693-.204 1.21-.598 1.55-.381.325-1.006.488-1.848.488s-1.468-.163-1.848-.489q-.612-.51-.612-1.55V38.56c0-.136.054-.218.19-.218h.503c.122 0 .19.068.19.19v4.444c0 .503.109.856.354 1.06q.366.327 1.223.326c.571 0 .978-.122 1.25-.38.204-.19.313-.53.313-1.006v-4.457c0-.109.054-.177.163-.177m3.455-2.392v7.27q0 .714.122.857c.068.109.231.15.489.15h.367c.109 0 .163.054.163.149v.462c0 .109-.054.163-.136.163h-.516c-.489 0-.843-.095-1.046-.313-.218-.217-.327-.638-.327-1.25V35.95c0-.096.055-.15.164-.15h.557c.108 0 .163.054.163.15m6.223 8.915-.027-.462h-.027c-.299.49-.788.72-1.441.72h-.679c-.652 0-1.128-.163-1.454-.489s-.489-.747-.489-1.277v-.408q0-1.284 1.059-1.712c.299-.122.843-.19 1.631-.19h.408c.326 0 .639.013.91.04v-.774c0-.49-.136-.843-.394-1.033-.272-.19-.679-.3-1.25-.3-.476 0-.938.069-1.4.205-.217.054-.326.027-.353-.109l-.068-.285c-.054-.163 0-.258.15-.313a6.3 6.3 0 0 1 1.739-.258c.87 0 1.495.163 1.875.475.381.313.585.816.585 1.523v4.647c0 .095-.055.136-.15.136h-.448c-.123 0-.177-.04-.177-.136m-.109-1.902v-1.128a7 7 0 0 0-.815-.041h-.761c-.571 0-.965.095-1.196.272-.231.176-.34.475-.34.897v.285c0 .408.096.707.286.883.163.163.448.245.829.245h.557c.448 0 .802-.109 1.06-.353.244-.245.38-.598.38-1.06m2.689 1.834v-6.305c0-.095.041-.15.15-.15h.394c.095 0 .149.055.163.15l.068.543h.027c.109-.19.299-.353.557-.516.34-.19.761-.3 1.264-.3.951 0 1.631.313 2.025.939h.027c.476-.625 1.182-.938 2.106-.938.816 0 1.414.217 1.794.639.353.42.544 1.1.544 2.024v3.914c0 .136-.082.204-.218.204h-.462q-.204 0-.204-.204v-3.968c0-.625-.122-1.074-.339-1.372-.272-.313-.68-.476-1.251-.476q-1.1 0-1.712.815c.055.354.082.72.082 1.087v3.914q0 .204-.204.204h-.462c-.15 0-.218-.068-.218-.204v-3.968q0-.998-.407-1.427c-.272-.272-.707-.421-1.278-.421-.625 0-1.073.19-1.318.57q-.244.368-.244 1.06v4.186q0 .204-.204.204h-.476q-.204 0-.204-.204m11.982-6.305v6.4c0 .082-.041.109-.122.109h-.652c-.082 0-.109-.027-.109-.109v-6.4c0-.095.054-.15.163-.15h.557c.109 0 .163.055.163.15m.19-1.944v.082c0 .435-.203.652-.598.652h-.054c-.421 0-.625-.217-.625-.652v-.082c0-.42.204-.638.625-.638h.054c.395 0 .598.217.598.638m6.924 8.222c0 .163-.095.231-.258.231h-.38q-.163 0-.204-.04c-.027-.028-.041-.082-.041-.191v-3.968c0-.802-.217-1.332-.625-1.59-.272-.163-.639-.258-1.101-.258-.639 0-1.087.19-1.332.57q-.244.367-.244 1.06v4.213q0 .204-.245.204h-.421c-.15 0-.217-.068-.217-.204v-6.305c0-.095.04-.15.135-.15h.408c.095 0 .15.055.163.15l.068.543h.027c.109-.19.299-.353.557-.516.34-.19.761-.3 1.278-.3 1.046 0 1.753.313 2.106.911q.327.57.326 1.753zm2.377-6.21h.135c.381 0 .585.176.585.53v.326c0 .353-.204.53-.585.53h-.135c-.395 0-.585-.177-.585-.53v-.326c0-.354.19-.53.585-.53m0 5.177h.135c.381 0 .585.177.585.53v.326c0 .354-.204.53-.585.53h-.135c-.395 0-.585-.176-.585-.53v-.326c0-.353.19-.53.585-.53m9.903-5.395h.571c.095 0 .149.068.149.177v4.566c0 .693-.204 1.21-.598 1.55-.38.325-1.005.488-1.848.488-.842 0-1.467-.163-1.848-.489q-.611-.51-.611-1.55V38.56c0-.136.054-.218.19-.218h.503c.122 0 .19.068.19.19v4.444c0 .503.109.856.353 1.06q.368.327 1.223.326c.571 0 .979-.122 1.25-.38.204-.19.313-.53.313-1.006v-4.457c0-.109.054-.177.163-.177m7.6 6.428c0 .163-.095.231-.258.231h-.381q-.162 0-.203-.04c-.028-.028-.041-.082-.041-.191v-3.968c0-.802-.218-1.332-.625-1.59-.272-.163-.639-.258-1.101-.258-.639 0-1.087.19-1.332.57q-.244.367-.244 1.06v4.213q0 .204-.245.204h-.421c-.15 0-.218-.068-.218-.204v-6.305c0-.095.041-.15.136-.15h.408c.095 0 .149.055.163.15l.068.543h.027c.109-.19.299-.353.557-.516.34-.19.761-.3 1.278-.3 1.046 0 1.753.313 2.106.911q.326.57.326 1.753zm2.865-6.278v6.4c0 .082-.04.109-.122.109h-.652c-.082 0-.109-.027-.109-.109v-6.4c0-.095.055-.15.163-.15h.557c.109 0 .163.055.163.15m.191-1.944v.082c0 .435-.204.652-.598.652h-.055c-.421 0-.625-.217-.625-.652v-.082c0-.42.204-.638.625-.638h.055c.394 0 .598.217.598.638m5.877 7.651.095.313q.042.142 0 .204c-.027.04-.095.081-.231.135-.448.19-.964.272-1.549.272-.842 0-1.467-.19-1.875-.584-.53-.476-.788-1.373-.788-2.69v-.45c0-1.195.272-2.051.829-2.568q.652-.61 1.834-.611c.354 0 .72.068 1.074.177.353.122.652.258.87.42.067.055.067.137.013.218l-.231.38c-.054.082-.122.096-.231.028-.516-.299-1.006-.462-1.495-.462-.53 0-.937.15-1.223.421-.367.367-.543 1.074-.543 2.12v.231c0 1.033.136 1.74.434 2.093.272.353.721.516 1.373.516.435 0 .87-.081 1.318-.258.177-.068.286-.04.326.095m2.23.802h-.434c-.15 0-.218-.054-.218-.177v-6.332c0-.095.055-.15.163-.15h.394c.082 0 .136.055.163.15l.055.706h.027c.299-.57.829-.856 1.576-.856h.354c.108 0 .176.055.176.163v.462c0 .11-.068.15-.176.15h-.367c-.598 0-1.019.19-1.237.557-.163.272-.244.625-.244 1.073v4.077c0 .123-.082.177-.232.177m8.042-4.457v1.114c0 .19-.041.326-.109.408-.081.081-.204.108-.394.108h-3.506c.027.816.163 1.386.435 1.713.258.326.706.475 1.345.475.53 0 1.033-.081 1.495-.271.177-.068.285-.041.326.095l.095.312a.26.26 0 0 1-.013.204q-.042.082-.286.163c-.462.177-1.005.258-1.617.258-.992 0-1.685-.244-2.079-.747-.408-.49-.598-1.305-.598-2.433V41.4c0-1.087.19-1.89.584-2.406.381-.516 1.047-.774 1.971-.774.774 0 1.359.19 1.753.557.394.394.598.978.598 1.767m-2.338-1.563c-.598 0-1.032.177-1.277.516-.258.354-.394.979-.394 1.903h2.922c.068 0 .122 0 .149-.027.027-.028.041-.082.041-.177v-.516c0-.585-.109-1.006-.313-1.264-.244-.286-.611-.435-1.128-.435m8.862-3.03v6.821c0 .707-.177 1.25-.503 1.645-.407.475-1.087.706-2.052.706-.978 0-1.671-.217-2.079-.666-.421-.434-.625-1.25-.625-2.446v-.638c0-1.074.204-1.862.639-2.379q.632-.774 1.997-.774 1.182 0 1.713.652h.027V35.95c0-.095.054-.149.163-.149h.557c.109 0 .163.054.163.15m-.883 6.699v-1.862c0-.57-.15-1.005-.422-1.331-.271-.313-.679-.476-1.223-.476-.611 0-1.06.163-1.331.462-.34.38-.503 1.046-.503 1.998v.462q0 1.508.489 2.038c.245.285.68.421 1.305.421.679 0 1.155-.163 1.399-.516.191-.258.286-.652.286-1.196m3.752-4.158v6.4c0 .082-.041.109-.123.109h-.652c-.082 0-.109-.027-.109-.109v-6.4c0-.095.055-.15.163-.15h.558c.108 0 .163.055.163.15m.19-1.944v.082c0 .435-.204.652-.598.652h-.054c-.422 0-.626-.217-.626-.652v-.082c0-.42.204-.638.626-.638h.054c.394 0 .598.217.598.638M349.589 45h-.638c-.707 0-1.224-.177-1.522-.544-.299-.353-.449-.87-.449-1.562v-3.778h-.829c-.095 0-.136-.04-.136-.15v-.272c0-.108.041-.163.136-.176l.829-.177v-1.535q0-.164.163-.163h.571c.095 0 .149.054.149.163v1.535h1.59c.082 0 .136.055.136.136v.503c0 .095-.054.136-.136.136h-1.59v3.669c0 .544.082.924.245 1.114.163.231.503.34.992.34h.489c.109 0 .163.054.163.15v.461c0 .11-.054.15-.163.15m1.759-1.264h.136c.38 0 .584.177.584.53v.326c0 .354-.204.53-.584.53h-.136c-.394 0-.585-.176-.585-.53v-.326c0-.353.191-.53.585-.53m5.047 1.386c-.87 0-1.495-.23-1.862-.72h-.027v2.854c0 .108-.055.15-.136.15h-.612c-.095 0-.136-.041-.136-.15V38.49c0-.095.041-.15.136-.15h.408c.095 0 .149.055.163.15l.082.543h.027c.38-.543 1.046-.815 1.97-.815.884 0 1.522.245 1.903.734.38.489.584 1.25.584 2.31v.707q0 1.569-.571 2.364c-.38.53-1.019.788-1.929.788m-.109-6.142c-1.196 0-1.78.57-1.78 1.712v1.916c0 .585.149 1.02.475 1.318.313.3.761.435 1.332.435.598 0 1.046-.163 1.318-.502q.367-.45.367-1.957v-.517c0-.951-.149-1.603-.421-1.943-.272-.299-.693-.462-1.291-.462m5.083-3.03v7.27q0 .712.122.856c.068.109.231.15.489.15h.367c.109 0 .163.054.163.149v.462c0 .109-.054.163-.136.163h-.516c-.489 0-.843-.095-1.047-.313-.217-.217-.326-.638-.326-1.25V35.95c0-.096.055-.15.163-.15h.558c.108 0 .163.054.163.15"/></svg>