<svg xmlns="http://www.w3.org/2000/svg" fill="none" viewBox="0 0 201 62"><path fill="#fff" d="M1.584 5.488.792 1.852C1.836 1.132 3.852.448 6.156.448c4.608 0 6.768 2.808 6.768 5.976 0 2.484-1.656 4.896-4.104 5.508v.072c2.844.576 4.824 2.736 4.824 6.084 0 4.644-3.96 7.2-8.316 7.2-2.016 0-3.78-.468-4.896-1.08l.684-3.852c1.044.612 2.412.972 3.744.972 2.52 0 3.852-1.44 3.852-3.384 0-2.7-2.232-3.78-4.788-3.78H3.24V10.6h.468c2.16 0 4.32-1.044 4.32-3.276 0-1.692-1.044-2.844-3.06-2.844-1.116 0-2.448.468-3.384 1.008M24.71 19.456h-4.356L19.274 25h-4.572L19.958.736h5.652L30.326 25h-4.572zm-3.888-3.672h3.456l-.792-5.076c-.252-1.476-.576-3.888-.792-5.508h-.108c-.252 1.62-.612 4.14-.864 5.544zM32.99.736h12.384v4.032H37.67v5.076c.684-.144 1.224-.18 1.908-.18 2.088 0 3.924.648 5.256 1.8 1.44 1.26 2.304 3.168 2.304 5.616 0 2.34-.72 4.212-2.016 5.508-1.656 1.764-4.248 2.592-7.74 2.592-1.8 0-3.312-.108-4.392-.252zm4.716 12.816v7.776c.324.072.648.072 1.044.072 1.116 0 2.016-.432 2.592-1.152.612-.72.9-1.728.9-2.808 0-1.116-.324-2.124-.936-2.808-.612-.72-1.476-1.188-2.52-1.188q-.594 0-1.08.108M56.88.448c5.868 0 7.524 6.444 7.524 11.988 0 9.144-3.24 12.852-7.848 12.852-5.508 0-7.668-5.832-7.668-12.492 0-6.624 2.628-12.348 7.992-12.348m-.18 4.104c-1.872 0-2.916 3.096-2.916 8.316 0 5.508 1.044 8.316 2.952 8.316 1.98 0 2.736-3.6 2.736-8.532 0-4.248-.648-8.1-2.772-8.1M69.544 25V5.092H65.26V.736h13.32v4.356h-4.32V25zm18.096-5.544h-4.356L82.204 25h-4.572L82.888.736h5.652L93.256 25h-4.572zm-3.888-3.672h3.456l-.792-5.076c-.252-1.476-.576-3.888-.792-5.508h-.108c-.252 1.62-.612 4.14-.864 5.544zM8.892 36.448c5.868 0 7.524 6.444 7.524 11.988 0 9.144-3.24 12.852-7.848 12.852C3.06 61.288.9 55.456.9 48.796c0-6.624 2.628-12.348 7.992-12.348m-.18 4.104c-1.872 0-2.916 3.096-2.916 8.316 0 5.508 1.044 8.316 2.952 8.316 1.98 0 2.736-3.6 2.736-8.532 0-4.248-.648-8.1-2.772-8.1M40.414 61l-.431-8.496c-.108-2.304-.288-5.436-.216-8.028h-.109c-.431 2.592-1.08 5.58-1.547 7.452l-2.088 8.676h-3.349l-2.015-8.532c-.468-1.944-1.116-4.968-1.476-7.596h-.108a269 269 0 0 1-.36 8.1L28.319 61H24.25l1.764-24.264h4.968l1.943 8.784c.684 3.06 1.296 5.76 1.728 8.496h.072c.36-2.7.9-5.436 1.549-8.496l1.907-8.784h4.968L44.628 61zm7.658-24.264h4.176V42.1c0 4.464-.288 8.64-.468 11.16h.072c.684-2.088 1.908-5.256 2.628-7.128l3.564-9.396h4.284V61h-4.14v-5.472c0-4.86.18-8.46.288-10.908h-.072c-.54 2.196-1.62 5.112-2.412 7.128L52.428 61h-4.356zm18.457 0h4.608v10.548h.36l3.96-10.548h5.184l-5.58 11.232c2.484.936 3.312 3.204 3.996 6.156.54 2.34.936 4.644 1.656 6.876h-4.716c-.576-1.728-.936-3.708-1.332-5.616-.576-2.844-1.224-4.68-3.168-4.68h-.36V61H66.53zM82.877 61V37.096c1.332-.288 3.132-.468 4.932-.468 2.808 0 5.004.396 6.588 1.872 1.44 1.26 2.088 3.276 2.088 5.328 0 2.628-.792 4.464-2.052 5.832-1.512 1.584-3.96 2.304-5.904 2.304h-.936V61zm4.716-20.376v7.488c.216.072.468.072.756.072 2.376 0 3.456-1.692 3.456-3.96 0-2.124-.864-3.78-3.06-3.78-.432 0-.864.072-1.152.18m18.541-4.176c5.868 0 7.524 6.444 7.524 11.988 0 9.144-3.24 12.852-7.848 12.852-5.508 0-7.668-5.832-7.668-12.492 0-6.624 2.628-12.348 7.992-12.348m-.18 4.104c-1.872 0-2.916 3.096-2.916 8.316 0 5.508 1.044 8.316 2.952 8.316 1.98 0 2.736-3.6 2.736-8.532 0-4.248-.648-8.1-2.772-8.1m17.224-4.68h4.14v1.836c4.356.576 7.668 3.996 7.668 10.98 0 7.452-3.348 10.584-7.668 11.196v1.98h-4.176v-1.98c-4.392-.648-7.668-3.744-7.668-11.088 0-7.128 3.924-10.512 7.704-11.088zm0 20.556v-15.3c-1.44.432-2.988 2.376-2.988 7.74 0 5.004 1.512 7.236 2.988 7.56m4.104-15.3v15.3c1.584-.324 2.988-2.268 2.988-7.704 0-5.508-1.62-7.272-2.988-7.596m11.375-4.392h12.636V61h-4.716V40.84h-3.6v6.408c0 5.58-.36 10.476-3.42 12.852-.9.72-2.052 1.188-3.24 1.188l-1.008-3.996c.576-.144 1.188-.432 1.62-.864 1.404-1.44 1.728-4.032 1.728-8.748zm23.622-.288c5.868 0 7.524 6.444 7.524 11.988 0 9.144-3.24 12.852-7.848 12.852-5.508 0-7.668-5.832-7.668-12.492 0-6.624 2.628-12.348 7.992-12.348m-.18 4.104c-1.872 0-2.916 3.096-2.916 8.316 0 5.508 1.044 8.316 2.952 8.316 1.98 0 2.736-3.6 2.736-8.532 0-4.248-.648-8.1-2.772-8.1M172.807 61V37.096c1.332-.288 3.132-.468 4.932-.468 2.808 0 5.004.396 6.588 1.872 1.44 1.26 2.088 3.276 2.088 5.328 0 2.628-.792 4.464-2.052 5.832-1.512 1.584-3.96 2.304-5.904 2.304h-.936V61zm4.716-20.376v7.488c.216.072.468.072.756.072 2.376 0 3.456-1.692 3.456-3.96 0-2.124-.864-3.78-3.06-3.78-.432 0-.864.072-1.152.18m21.997 5.796v3.924h-5.544v6.552h6.264V61h-10.98V36.736h10.548v4.104h-5.832v5.58z"/></svg>