<svg xmlns="http://www.w3.org/2000/svg" fill="none" viewBox="0 0 300 600"><g fill="#fff"><path d="m54.181 261.214-8.915-34.44 5.976-1.547 3.289 12.708q.666-1.276 2.2-2.722 1.536-1.447 4.31-2.165 2.219-.575 4.147-.293 1.948.249 3.454 1.285 1.524 1.004 2.612 2.713 1.107 1.678 1.681 3.896l3.811 14.725-6.101 1.579-3.798-14.674q-.6-2.32-2.188-3.254-1.587-.934-3.604-.412a5.6 5.6 0 0 0-2.189 1.105 5.5 5.5 0 0 0-1.513 1.844 6.6 6.6 0 0 0-.707 2.362 7.4 7.4 0 0 0 .218 2.607l3.393 13.111zm25.879-16.84-3.812-14.724 6.077-1.573 3.798 14.674q.6 2.319 2.194 3.279 1.612.927 3.629.406a5.9 5.9 0 0 0 2.195-1.08 5.55 5.55 0 0 0 1.482-1.863 6.6 6.6 0 0 0 .682-2.355 7 7 0 0 0-.193-2.614l-3.4-13.136 6.102-1.579 6.271 24.229-5.85 1.514-.862-2.709q-.323.622-.854 1.378t-1.282 1.489a9 9 0 0 1-1.79 1.297q-1.056.596-2.518.975-4.538 1.175-7.607-.91-3.075-2.11-4.262-6.698m29.052-.526 2.631-4.904q1.428.84 3.339 1.153 1.929.281 4.147-.293 1.966-.51 3.021-1.32 1.048-.837.742-2.021a2.2 2.2 0 0 0-.443-.881q-.32-.401-1.105-.629-.766-.258-2.056-.355-1.296-.123-3.43-.054a22 22 0 0 1-2.812-.16 10.8 10.8 0 0 1-2.862-.766 8.1 8.1 0 0 1-2.477-1.672q-1.064-1.097-1.515-2.836-.47-1.816.022-3.449a7.8 7.8 0 0 1 1.681-2.964 11.7 11.7 0 0 1 2.824-2.291 13 13 0 0 1 3.468-1.463q3.203-.83 5.622-.729 2.413.075 4.575.941l-2.042 5.102q-1.173-.477-2.936-.639-1.745-.194-3.914.367-2.167.562-2.856 1.439-.687.878-.452 1.785.294 1.135 1.875 1.425 1.607.283 4.79.213 1.97-.08 3.596.172 1.624.252 2.925.91a6.5 6.5 0 0 1 2.182 1.776q.906 1.111 1.363 2.876t-.01 3.392q-.44 1.62-1.624 2.976-1.157 1.348-2.911 2.368a14.7 14.7 0 0 1-3.865 1.592q-3.404.881-6.4.634-2.971-.254-5.093-1.695m19.553-22.466-1.285-4.967 4.134-1.07-2.029-7.842 6.076-1.572 2.03 7.841 6.504-1.684 1.286 4.967-6.505 1.684 2.741 10.589q.535 2.067 1.528 2.994.994.927 2.532.529 1.437-.372 2.189-.998.746-.65 1.385-1.407l3.544 3.091q-1.43 1.957-3.026 3.07-1.569 1.105-3.738 1.667-2.219.573-3.951.323-1.702-.233-2.966-1.169-1.272-.963-2.106-2.522-.84-1.585-1.363-3.602l-2.845-10.993z"/><path d="m108.275 281.249-4.871-18.82 3.265-.845 1.797 6.944q.364-.697 1.203-1.488.838-.79 2.355-1.183 1.212-.313 2.266-.16 1.065.137 1.887.702.832.549 1.428 1.483.604.917.918 2.129l2.083 8.046-3.334.863-2.076-8.018q-.328-1.268-1.195-1.778-.868-.511-1.969-.226a3.1 3.1 0 0 0-1.197.604 3.04 3.04 0 0 0-.827 1.008 3.6 3.6 0 0 0-.386 1.291q-.07.693.119 1.424l1.854 7.164zm14.141-9.203L120.334 264l3.32-.859 2.076 8.018q.328 1.268 1.198 1.792.882.507 1.984.222.675-.175 1.199-.59.522-.429.81-1.018.303-.593.372-1.287a3.8 3.8 0 0 0-.105-1.428l-1.858-7.178 3.335-.863 3.427 13.24-3.197.827-.471-1.48a7 7 0 0 1-.467.753 6 6 0 0 1-.701.813 4.9 4.9 0 0 1-.977.709 5.7 5.7 0 0 1-1.377.533q-2.48.642-4.156-.497-1.68-1.153-2.33-3.661m15.876-.287 1.438-2.68q.78.459 1.824.63 1.055.154 2.267-.16 1.075-.278 1.651-.721.571-.457.405-1.105a1.24 1.24 0 0 0-.242-.481q-.175-.22-.604-.344-.419-.141-1.123-.194-.708-.066-1.875-.029a12 12 0 0 1-1.537-.088 5.9 5.9 0 0 1-1.563-.418 4.4 4.4 0 0 1-1.354-.914q-.582-.599-.828-1.55-.256-.991.012-1.885a4.25 4.25 0 0 1 .919-1.619 6.4 6.4 0 0 1 1.543-1.252 7.1 7.1 0 0 1 1.895-.799q1.75-.453 3.072-.399 1.32.041 2.5.514l-1.116 2.788q-.64-.26-1.604-.349-.954-.105-2.139.201-1.185.307-1.56.786-.376.48-.248.976.16.62 1.025.778.878.155 2.618.116 1.076-.043 1.964.095a5.3 5.3 0 0 1 1.599.497q.71.36 1.192.971.495.606.745 1.571a3.47 3.47 0 0 1-.005 1.853 4.1 4.1 0 0 1-.888 1.627 6.1 6.1 0 0 1-1.591 1.294q-.954.57-2.112.87-1.86.481-3.497.346-1.623-.138-2.783-.926m10.685-12.277-.703-2.714 2.26-.585-1.109-4.285 3.32-.859 1.109 4.285 3.555-.92.702 2.714-3.554.92 1.498 5.786q.292 1.13.835 1.637.543.505 1.383.288.785-.203 1.197-.545.407-.355.756-.769l1.937 1.689q-.781 1.07-1.654 1.678-.858.604-2.042.911-1.213.313-2.16.177a3.46 3.46 0 0 1-1.62-.639 4.15 4.15 0 0 1-1.151-1.378 9 9 0 0 1-.745-1.969l-1.555-6.007z"/><path d="m177.181 288.214-8.915-34.44 5.976-1.547 3.289 12.708q.665-1.276 2.201-2.722 1.536-1.447 4.309-2.165 2.218-.575 4.147-.293 1.948.249 3.454 1.285 1.524 1.004 2.612 2.713 1.107 1.678 1.681 3.896l3.811 14.725-6.101 1.579-3.798-14.674q-.601-2.32-2.188-3.254t-3.604-.412a5.6 5.6 0 0 0-2.189 1.105 5.5 5.5 0 0 0-1.513 1.844 6.6 6.6 0 0 0-.707 2.362 7.4 7.4 0 0 0 .218 2.607l3.393 13.111zm25.879-16.84-3.812-14.724 6.077-1.573 3.798 14.674q.6 2.319 2.194 3.279 1.611.928 3.629.406a5.9 5.9 0 0 0 2.195-1.08 5.55 5.55 0 0 0 1.482-1.863 6.6 6.6 0 0 0 .682-2.355 7 7 0 0 0-.193-2.614l-3.4-13.136 6.102-1.579 6.271 24.229-5.849 1.514-.863-2.709q-.323.622-.854 1.378t-1.282 1.489q-.733.701-1.79 1.297-1.056.595-2.518.975-4.538 1.175-7.607-.91-3.075-2.11-4.262-6.698m29.052-.526 2.631-4.904q1.428.84 3.339 1.153 1.929.281 4.147-.293 1.967-.51 3.021-1.32 1.048-.836.742-2.021a2.2 2.2 0 0 0-.443-.881q-.32-.401-1.105-.629-.766-.259-2.056-.355-1.296-.123-3.43-.054a22 22 0 0 1-2.812-.16 10.8 10.8 0 0 1-2.862-.766 8.1 8.1 0 0 1-2.477-1.672q-1.064-1.097-1.515-2.836-.47-1.816.022-3.449a7.8 7.8 0 0 1 1.681-2.964 11.7 11.7 0 0 1 2.824-2.291 13 13 0 0 1 3.468-1.463q3.202-.83 5.622-.729 2.413.075 4.575.941l-2.042 5.102q-1.173-.477-2.936-.639-1.745-.194-3.914.367-2.167.562-2.856 1.439-.687.878-.452 1.785.294 1.135 1.875 1.425 1.607.283 4.79.213 1.97-.08 3.596.172 1.625.252 2.925.91a6.5 6.5 0 0 1 2.182 1.776q.906 1.111 1.363 2.876t-.01 3.392q-.44 1.62-1.624 2.976-1.157 1.348-2.911 2.368a14.7 14.7 0 0 1-3.865 1.592q-3.404.881-6.4.634-2.971-.253-5.093-1.695m19.553-22.466-1.285-4.967 4.134-1.07-2.029-7.842 6.076-1.572 2.03 7.841 6.504-1.684 1.286 4.967-6.505 1.684 2.741 10.589q.535 2.067 1.528 2.994.994.927 2.532.529 1.437-.372 2.189-.998.746-.65 1.385-1.407l3.544 3.091q-1.43 1.957-3.026 3.07-1.569 1.105-3.738 1.667-2.219.573-3.951.323-1.702-.233-2.966-1.169-1.272-.962-2.106-2.522-.84-1.585-1.363-3.602l-2.845-10.993z"/></g></svg>