<svg xmlns="http://www.w3.org/2000/svg" fill="none" viewBox="0 0 241 95"><path fill="#fff" d="m.322 24.38.725-6.961h4.464l-2.24 6.96zm6.365 0 .725-6.961h4.464l-2.24 6.96zm9.362-2.37V0h4.157v9.04L28.36 0h4.722l-8.122 9.007 9.008 13.004h-5.011l-6.704-10.007-2.046 2.289v7.718zm19.11-4.527q0-1.32.5-2.353a4.94 4.94 0 0 1 1.385-1.756q.887-.709 2.144-1.064 1.256-.37 2.771-.37a36 36 0 0 1 2.11.064q.597.033 1.225.081v-.37q0-1.161-.934-1.821-.919-.66-2.401-.661-1.644 0-2.643.435-.983.435-1.74.918L35.788 7.96q.467-.322 1.063-.677.597-.354 1.386-.628.79-.291 1.82-.468 1.048-.177 2.434-.177 1.482 0 2.69.42 1.21.403 2.063 1.143.855.74 1.321 1.789a5.4 5.4 0 0 1 .468 2.256V22.01H45.39l-.097-1.45q-.628.757-1.917 1.353t-2.868.596a6.2 6.2 0 0 1-1.902-.306 5.2 5.2 0 0 1-1.708-.902 4.64 4.64 0 0 1-1.256-1.563q-.484-.967-.484-2.256m3.739-.161q0 .982.708 1.547.71.564 2.095.564a4 4 0 0 0 1.338-.226 3.6 3.6 0 0 0 1.127-.628q.5-.403.806-.919.322-.531.322-1.128v-1.514l-1.16-.065q-.467-.032-.983-.048-.499-.016-.854-.016-1.884 0-2.642.74-.758.742-.758 1.693m13.89 4.689V6.526h3.721l.097 1.756q.29-.322.709-.693.42-.37.999-.676.58-.307 1.305-.5a6 6 0 0 1 1.644-.21q2.9 0 4.415 1.74 1.53 1.725 1.53 4.658v9.41H63.31v-9.378q0-1.482-.806-2.288-.805-.806-2.094-.806-.79 0-1.483.322-.694.306-1.192.87a4.1 4.1 0 0 0-.79 1.306 4.6 4.6 0 0 0-.274 1.595v8.379zm18.175 0V6.526h3.722l.097 1.756q.29-.322.709-.693.418-.37.999-.676.58-.307 1.305-.5a6 6 0 0 1 1.644-.21q2.9 0 4.415 1.74 1.53 1.725 1.53 4.658v9.41h-3.9v-9.378q0-1.482-.805-2.288-.806-.806-2.094-.806-.79 0-1.483.322a3.4 3.4 0 0 0-1.192.87 4.1 4.1 0 0 0-.79 1.306 4.6 4.6 0 0 0-.274 1.595v8.379zM.16 42.993l.725-6.96H5.35l-2.256 6.96zm8.67 15.018V36h3.818v8.121q.596-.66 1.74-1.289t2.917-.628q1.417 0 2.53.467 1.127.45 1.869 1.305.757.838 1.144 2.03.402 1.177.402 2.595v9.41h-3.899v-9.378q0-1.483-.806-2.288-.805-.806-2.094-.806-.79 0-1.483.322-.693.307-1.192.87-.5.548-.79 1.306a4.6 4.6 0 0 0-.274 1.595v8.379zm18.11-6.075v-9.41h3.884v9.378q0 1.482.805 2.304.822.806 2.111.806.79 0 1.483-.306.693-.322 1.176-.887a4.1 4.1 0 0 0 .773-1.305q.29-.741.29-1.595v-8.395h3.9V58.01h-3.739l-.096-1.757a8 8 0 0 1-.725.693q-.435.37-1 .693-.547.306-1.272.5a6.5 6.5 0 0 1-1.66.193q-2.9 0-4.415-1.724-1.515-1.74-1.515-4.673m17.483 4.19 2.337-2.53q.725.725 1.82 1.208 1.113.468 2.53.468 1.257 0 2.015-.323.757-.337.757-1.096 0-.321-.13-.596-.128-.29-.563-.547-.42-.274-1.176-.532-.757-.274-2.047-.564a13 13 0 0 1-1.66-.532 6.7 6.7 0 0 1-1.595-.902 5 5 0 0 1-1.224-1.386q-.468-.822-.468-1.934 0-1.16.548-2.062a4.8 4.8 0 0 1 1.467-1.515 7.3 7.3 0 0 1 2.046-.934 8 8 0 0 1 2.304-.339q2.047 0 3.48.435a8.2 8.2 0 0 1 2.595 1.273l-2.014 2.74q-.629-.468-1.66-.838-1.016-.387-2.4-.387-1.388 0-1.934.419-.549.42-.548.999 0 .725.902 1.144.92.42 2.836.87 1.193.258 2.127.66.934.404 1.611 1 .676.595 1.032 1.402.37.805.37 1.933t-.531 2.03a4.6 4.6 0 0 1-1.435 1.531q-.902.629-2.11.967a9 9 0 0 1-2.562.354q-2.175 0-3.932-.612-1.74-.612-2.788-1.804M59.62 45.7v-3.174h2.643v-5.011h3.883v5.01h4.157V45.7h-4.157v6.768q0 1.32.451 2.03t1.434.709q.919 0 1.467-.258a8 8 0 0 0 1.047-.628l1.644 2.4q-1.161.952-2.289 1.37-1.11.42-2.497.42-1.418 0-2.417-.42-.983-.402-1.595-1.16-.614-.773-.87-1.837-.258-1.08-.258-2.368V45.7zm14.857 17.032 2.078-4.721h-1.676v-4.593H79.6v4.528l-2.804 4.786zm14.92-4.721V36h3.82v8.121q.596-.66 1.74-1.289 1.143-.628 2.916-.628 1.418 0 2.53.467 1.128.45 1.869 1.305.757.838 1.144 2.03.403 1.177.403 2.595v9.41h-3.9v-9.378q0-1.483-.805-2.288-.806-.806-2.095-.806-.789 0-1.482.322-.693.307-1.193.87a4.1 4.1 0 0 0-.79 1.306 4.6 4.6 0 0 0-.273 1.595v8.379zm18.112-6.075v-9.41h3.883v9.378q0 1.482.806 2.304.822.806 2.111.806.789 0 1.482-.306.693-.322 1.176-.887a4.1 4.1 0 0 0 .774-1.305q.29-.741.29-1.595v-8.395h3.899V58.01h-3.738l-.097-1.757a8 8 0 0 1-.725.693q-.435.37-.999.693-.547.306-1.273.5a6.5 6.5 0 0 1-1.659.193q-2.901 0-4.416-1.724-1.514-1.74-1.514-4.673m17.483 4.19 2.336-2.53q.725.725 1.821 1.208 1.111.468 2.53.468 1.257 0 2.014-.323.757-.337.757-1.096 0-.321-.129-.596-.129-.29-.564-.547-.418-.274-1.176-.532-.758-.274-2.046-.564a13 13 0 0 1-1.66-.532 6.7 6.7 0 0 1-1.595-.902 5 5 0 0 1-1.225-1.386q-.467-.822-.467-1.934 0-1.16.548-2.062a4.8 4.8 0 0 1 1.466-1.515 7.3 7.3 0 0 1 2.046-.934 8 8 0 0 1 2.305-.339q2.046 0 3.48.435 1.434.42 2.594 1.273l-2.014 2.74q-.629-.468-1.659-.838-1.016-.387-2.401-.387-1.386 0-1.934.419-.548.42-.548.999 0 .725.903 1.144.918.42 2.835.87 1.192.258 2.127.66a6 6 0 0 1 1.612 1q.677.595 1.031 1.402.37.805.371 1.933 0 1.128-.532 2.03a4.6 4.6 0 0 1-1.434 1.531q-.903.629-2.111.967a9 9 0 0 1-2.562.354q-2.175 0-3.932-.612-1.74-.612-2.787-1.804M140.186 45.7v-3.174h2.642v-5.011h3.883v5.01h4.158V45.7h-4.158v6.768q0 1.32.452 2.03.45.71 1.434.709.918 0 1.466-.258a8 8 0 0 0 1.047-.628l1.644 2.4q-1.16.952-2.288 1.37-1.112.42-2.498.42-1.418 0-2.417-.42-.983-.402-1.595-1.16a4.7 4.7 0 0 1-.87-1.837q-.258-1.08-.258-2.368V45.7zm14.856 17.032 2.079-4.721h-1.676v-4.593h4.721v4.528l-2.804 4.786zm14.921-4.721V36h3.819v8.121q.595-.66 1.74-1.289 1.144-.628 2.916-.628 1.419 0 2.53.467 1.128.45 1.869 1.305.758.838 1.144 2.03.403 1.177.403 2.595v9.41h-3.899v-9.378q0-1.483-.806-2.288-.805-.806-2.095-.806-.789 0-1.482.322a3.4 3.4 0 0 0-1.192.87q-.5.548-.79 1.306a4.6 4.6 0 0 0-.274 1.595v8.379zm18.111-6.075v-9.41h3.884v9.378q0 1.482.805 2.304.822.806 2.111.806.79 0 1.482-.306.693-.322 1.177-.887.5-.563.773-1.305.29-.741.29-1.595v-8.395h3.9V58.01h-3.739l-.096-1.757a8 8 0 0 1-.725.693q-.436.37-.999.693a5.5 5.5 0 0 1-1.273.5 6.5 6.5 0 0 1-1.66.193q-2.9 0-4.415-1.724-1.515-1.74-1.515-4.673m17.483 4.19 2.337-2.53q.725.725 1.82 1.208 1.113.468 2.53.468 1.257 0 2.014-.323.758-.337.758-1.096 0-.321-.129-.596-.129-.29-.564-.547-.42-.274-1.177-.532-.757-.274-2.046-.564a13.5 13.5 0 0 1-1.66-.532 6.7 6.7 0 0 1-1.595-.902 5 5 0 0 1-1.224-1.386q-.468-.822-.468-1.934 0-1.16.548-2.062a4.8 4.8 0 0 1 1.466-1.515 7.3 7.3 0 0 1 2.047-.934 8 8 0 0 1 2.304-.339q2.046 0 3.481.435 1.434.42 2.594 1.273l-2.014 2.74q-.629-.468-1.66-.838-1.015-.387-2.401-.387t-1.934.419q-.547.42-.547.999 0 .725.902 1.144.919.42 2.836.87 1.192.258 2.127.66.934.404 1.611 1 .677.595 1.031 1.402.371.805.371 1.933t-.532 2.03a4.6 4.6 0 0 1-1.434 1.531q-.902.629-2.111.967a9 9 0 0 1-2.562.354q-2.175 0-3.931-.612-1.74-.612-2.788-1.804M220.752 45.7v-3.174h2.643v-5.011h3.883v5.01h4.157V45.7h-4.157v6.768q0 1.32.451 2.03t1.434.709q.918 0 1.466-.258a8 8 0 0 0 1.048-.628l1.643 2.4q-1.16.952-2.288 1.37-1.112.42-2.497.42-1.418 0-2.417-.42a3.9 3.9 0 0 1-1.596-1.16 4.7 4.7 0 0 1-.87-1.837 10.2 10.2 0 0 1-.257-2.368V45.7zm14.76-2.707.725-6.96h4.463l-2.256 6.96zM0 94.011V78.526h3.722l.097 1.756q.29-.323.709-.693.42-.37.999-.676.58-.306 1.305-.5a6 6 0 0 1 1.644-.21q2.9 0 4.415 1.74 1.53 1.725 1.53 4.658v9.41h-3.899v-9.378q0-1.483-.806-2.288-.806-.806-2.094-.806-.79 0-1.483.322-.694.307-1.192.87-.5.548-.79 1.306a4.6 4.6 0 0 0-.274 1.595v8.379zm18.208-17.918V72h4.157v4.093zm.129 17.918V78.526h3.9V94.01zm7.17-7.75q0-1.677.613-3.175a8.1 8.1 0 0 1 1.691-2.626 8.1 8.1 0 0 1 2.627-1.79q1.53-.66 3.384-.66 1.885 0 3.432.677a8.1 8.1 0 0 1 2.643 1.82l-2.482 2.514a4.7 4.7 0 0 0-1.547-1.176q-.886-.435-2.046-.435-1.128 0-1.95.42a4.1 4.1 0 0 0-1.37 1.063q-.548.66-.821 1.546a6.5 6.5 0 0 0-.258 1.821q0 .886.258 1.757.273.854.821 1.547.548.692 1.37 1.127.822.42 1.95.42 1.16 0 2.11-.452.95-.45 1.612-1.208l2.32 2.513a8.4 8.4 0 0 1-2.578 1.853q-1.482.693-3.464.693-1.983 0-3.545-.596-1.547-.596-2.61-1.676a7.5 7.5 0 0 1-1.612-2.61q-.548-1.53-.548-3.368m16.968 7.75V72h3.819v8.121q.596-.66 1.74-1.289t2.916-.628q1.418 0 2.53.467 1.128.45 1.87 1.305.756.838 1.143 2.03.403 1.177.403 2.595v9.41h-3.9v-9.378q0-1.483-.805-2.288-.805-.806-2.095-.806-.789 0-1.482.322-.693.307-1.193.87a4.1 4.1 0 0 0-.79 1.306 4.6 4.6 0 0 0-.273 1.595v8.379zM59.329 81.7v-3.175h2.643v-5.011h3.883v5.01h4.157V81.7h-4.157v6.768q0 1.32.451 2.03.45.71 1.434.709.919 0 1.467-.258a8 8 0 0 0 1.047-.628l1.643 2.4q-1.16.952-2.288 1.37-1.11.42-2.497.42-1.418 0-2.417-.42-.983-.402-1.595-1.16-.614-.774-.87-1.837-.258-1.08-.258-2.368V81.7zm19.078 0v-3.175h2.627v-.161q0-2.014.644-3.352.645-1.337 1.708-2.143a6.55 6.55 0 0 1 2.482-1.128 12.7 12.7 0 0 1 2.965-.338q.596 0 1.337.097.741.096 1.53.306.79.193 1.596.515a8.5 8.5 0 0 1 1.498.742l-1.61 2.932q-.758-.467-1.983-.854a7.7 7.7 0 0 0-2.4-.403q-2.047 0-2.982.693-.918.693-.918 2.272v.822h9.636V94.01h-3.9V81.7h-5.704v12.31h-3.9V81.7zM98.55 94.01V78.526h3.722l.097 1.756q.29-.323.709-.693.418-.37.999-.676.579-.306 1.305-.5a6 6 0 0 1 1.643-.21q2.901 0 4.415 1.74 1.531 1.725 1.531 4.658v9.41h-3.899v-9.378q0-1.483-.806-2.288-.805-.806-2.095-.806-.789 0-1.482.322a3.4 3.4 0 0 0-1.192.87q-.5.548-.79 1.306a4.6 4.6 0 0 0-.274 1.595v8.379zM116 86.55q0-1.822.515-3.175.532-1.37 1.321-2.336a7 7 0 0 1 1.451-1.322 10 10 0 0 1 1.611-.87 7.3 7.3 0 0 1 1.563-.5 7 7 0 0 1 1.321-.144q.758 0 1.257.048.5.048.886.129.404.081.725.225l.758.29V72h3.867v22.01h-3.771l-.096-1.514a8 8 0 0 1-.725.693q-.42.355-.999.66a7 7 0 0 1-1.289.484 5.6 5.6 0 0 1-1.596.21 6.2 6.2 0 0 1-2.481-.532 6.7 6.7 0 0 1-2.192-1.547q-.95-1.031-1.546-2.514-.58-1.482-.58-3.4m3.915 0q0 1.981.983 3.302.999 1.322 2.884 1.322.984 0 1.676-.37a3.25 3.25 0 0 0 1.128-.984q.435-.596.628-1.305.194-.71.194-1.37v-4.753a3.2 3.2 0 0 0-1.305-.644q-.742-.178-1.886-.178-1.16 0-1.917.451a4.5 4.5 0 0 0-1.321 1.16 5.2 5.2 0 0 0-.79 1.547 6 6 0 0 0-.274 1.821m14.454-.468q0-1.709.564-3.174a7.8 7.8 0 0 1 1.611-2.546 7.6 7.6 0 0 1 2.481-1.724q1.45-.63 3.191-.629 2.11 0 3.577.774 1.467.773 2.353 2.03a8.1 8.1 0 0 1 1.289 2.836q.402 1.579.402 3.239v.547h-11.553q0 .854.387 1.563.387.693.983 1.193a4.8 4.8 0 0 0 1.386.757 5 5 0 0 0 1.546.258q1.128 0 1.966-.21a8.6 8.6 0 0 0 1.418-.499 5.4 5.4 0 0 0 1.563-1.112l2.111 2.385-.548.548q-.435.435-1.289.934-.838.5-2.143.887-1.305.403-3.11.403-1.853 0-3.367-.629a7.8 7.8 0 0 1-2.595-1.724 7.6 7.6 0 0 1-1.659-2.659q-.564-1.563-.564-3.448m3.883-1.45h7.589q0-.597-.225-1.176a3.3 3.3 0 0 0-.677-1.08 3.4 3.4 0 0 0-1.144-.79q-.693-.322-1.579-.322-.951 0-1.692.322a3.9 3.9 0 0 0-1.241.79 3.6 3.6 0 0 0-.773 1.08q-.258.596-.258 1.176m14.599 9.378V78.526h3.722l.096 1.756q.29-.323.709-.693.42-.37.999-.676.58-.306 1.306-.5a6 6 0 0 1 1.643-.21q2.9 0 4.415 1.74 1.531 1.725 1.531 4.658v9.41h-3.899v-9.378q0-1.483-.806-2.288-.805-.806-2.095-.806-.789 0-1.482.322-.693.307-1.193.87-.5.548-.789 1.306a4.6 4.6 0 0 0-.274 1.595v8.379zm18.498 0v-4.56h4.721v4.56zm9.055-15.018.725-6.96h4.464l-2.256 6.96zm6.268 0 .725-6.96h4.464l-2.256 6.96z"/></svg>