<svg xmlns="http://www.w3.org/2000/svg" fill="none" viewBox="0 0 196 127"><path fill="#fff" d="M.215 0h6.08l4.79 21.957L16.78.837h5.006l5.715 21.12L32.248 0h5.822l-7.713 29.348h-5.8L19.1 9.948l-5.543 19.4H7.842zM41.1 5.457V0h5.543v5.457zm.172 23.89V8.702h5.199v20.647zm10.527 0V8.702h4.963l.129 2.6q.344-.43.902-.946.559-.537 1.31-.966a8.5 8.5 0 0 1 1.74-.774q.99-.322 2.257-.3.75 0 1.332.085.6.087 1.224.301L64.603 13.6a5 5 0 0 0-1.095-.301 6.7 6.7 0 0 0-1.29-.108 5.7 5.7 0 0 0-2.019.366 4.7 4.7 0 0 0-1.676 1.01 5.1 5.1 0 0 0-1.138 1.59q-.408.923-.408 2.062v11.129zM0 56.702h5.994l5.543 14.803L17.08 56.7h5.672l-8.701 20.647H8.766zm24.578 10.076q0-2.277.752-4.232a10.4 10.4 0 0 1 2.149-3.395 10.2 10.2 0 0 1 3.308-2.298q1.934-.838 4.254-.838 2.814 0 4.77 1.03 1.955 1.032 3.136 2.708a10.8 10.8 0 0 1 1.719 3.781 17.4 17.4 0 0 1 .537 4.319v.73H29.8q0 1.14.515 2.084.516.924 1.311 1.59.816.645 1.848 1.01 1.053.343 2.062.343 1.505 0 2.621-.279 1.117-.3 1.89-.666a7.2 7.2 0 0 0 2.085-1.482l2.814 3.18-.73.73q-.58.58-1.719 1.246-1.117.666-2.857 1.181-1.74.538-4.147.538-2.47 0-4.49-.838t-3.459-2.3q-1.44-1.481-2.213-3.544-.752-2.085-.752-4.598m5.178-1.933h10.119q0-.795-.3-1.569-.301-.795-.903-1.44t-1.525-1.052q-.924-.43-2.106-.43-1.267 0-2.256.43-.988.408-1.654 1.053a4.8 4.8 0 0 0-1.031 1.44 3.9 3.9 0 0 0-.344 1.568M49.22 77.348V56.7h4.963l.129 2.6q.344-.43.902-.946.559-.537 1.31-.966a8.5 8.5 0 0 1 1.74-.774q.989-.323 2.257-.3.751 0 1.331.085.603.087 1.225.301L62.025 61.6a5 5 0 0 0-1.095-.301 6.7 6.7 0 0 0-1.29-.108q-1.051 0-2.019.366a4.7 4.7 0 0 0-1.676 1.01 5.1 5.1 0 0 0-1.138 1.59q-.41.923-.409 2.062v11.129zm15.79-2.514 3.116-3.373q.967.967 2.428 1.611 1.482.624 3.373.623 1.675 0 2.685-.43 1.01-.45 1.01-1.46 0-.43-.172-.795-.171-.387-.752-.73-.558-.365-1.568-.71-1.01-.365-2.729-.752a18 18 0 0 1-2.213-.709 9 9 0 0 1-2.126-1.203 6.7 6.7 0 0 1-1.633-1.847q-.623-1.096-.623-2.578 0-1.548.73-2.75a6.4 6.4 0 0 1 1.955-2.02 9.7 9.7 0 0 1 2.729-1.246q1.525-.45 3.072-.451 2.729 0 4.64.58 1.912.558 3.46 1.697l-2.686 3.652q-.838-.622-2.213-1.117-1.354-.516-3.201-.516-1.848 0-2.578.56-.73.558-.73 1.331 0 .967 1.203 1.526 1.224.558 3.78 1.16 1.59.343 2.837.88 1.246.538 2.148 1.333a5.3 5.3 0 0 1 1.375 1.869q.495 1.074.494 2.578 0 1.504-.709 2.707-.687 1.203-1.912 2.04-1.203.84-2.814 1.29a12 12 0 0 1-3.416.473q-2.9 0-5.243-.817-2.32-.816-3.716-2.406m20.26-13.9V56.7h3.524V50.02h5.178V56.7h5.543v4.233h-5.543v9.023q0 1.762.601 2.707.602.945 1.912.945 1.225 0 1.955-.343.73-.366 1.397-.838l2.191 3.2q-1.547 1.269-3.05 1.827-1.484.56-3.33.559-1.891 0-3.223-.559-1.311-.537-2.127-1.547-.816-1.031-1.16-2.449-.345-1.44-.344-3.158v-9.367zm18.499 5.843q0-2.277.751-4.232a10.4 10.4 0 0 1 2.149-3.395 10.2 10.2 0 0 1 3.309-2.298q1.934-.838 4.253-.838 2.815 0 4.77 1.03 1.955 1.032 3.137 2.708a10.8 10.8 0 0 1 1.718 3.781q.537 2.105.538 4.319v.73H108.99q0 1.14.516 2.084.515.924 1.31 1.59a6.4 6.4 0 0 0 1.848 1.01q1.052.343 2.063.343 1.503 0 2.621-.279 1.117-.3 1.89-.666.795-.387 1.311-.795t.773-.687l2.815 3.18-.731.73q-.58.58-1.718 1.246-1.118.666-2.858 1.181-1.74.538-4.146.538-2.471 0-4.491-.838t-3.459-2.3q-1.439-1.481-2.213-3.544-.751-2.085-.751-4.598m5.177-1.933h10.119q0-.795-.3-1.569a4.4 4.4 0 0 0-.903-1.44q-.601-.644-1.525-1.052-.924-.43-2.106-.43-1.268 0-2.255.43-.989.408-1.655 1.053a4.8 4.8 0 0 0-1.031 1.44 3.9 3.9 0 0 0-.344 1.568m19.465 12.504V48h5.092v10.828q.795-.88 2.32-1.719 1.525-.837 3.889-.837 1.89 0 3.373.623 1.504.6 2.492 1.74 1.01 1.117 1.526 2.707.537 1.568.537 3.459v12.547h-5.2V64.844q0-1.977-1.074-3.051t-2.793-1.074q-1.053 0-1.976.43a4.6 4.6 0 0 0-1.59 1.16 5.4 5.4 0 0 0-1.053 1.74 6.1 6.1 0 0 0-.365 2.127v11.172zm23.268-10.57q0-2.279.752-4.233a10.4 10.4 0 0 1 2.148-3.395 10.2 10.2 0 0 1 3.309-2.298q1.933-.838 4.254-.838 2.814 0 4.769 1.03 1.955 1.032 3.137 2.708a10.8 10.8 0 0 1 1.719 3.781q.537 2.105.537 4.319v.73H156.9q0 1.14.516 2.084a5.7 5.7 0 0 0 1.311 1.59q.816.645 1.847 1.01 1.053.343 2.063.343 1.503 0 2.621-.279 1.117-.3 1.89-.666.795-.387 1.311-.795t.773-.687l2.815 3.18-.731.73q-.58.58-1.718 1.246-1.118.666-2.858 1.181-1.74.538-4.146.538-2.47 0-4.49-.838t-3.459-2.3q-1.44-1.481-2.213-3.544-.752-2.085-.752-4.598m5.177-1.934h10.12q0-.795-.301-1.569a4.4 4.4 0 0 0-.903-1.44q-.601-.644-1.525-1.052-.924-.43-2.105-.43-1.268 0-2.256.43-.989.408-1.655 1.053a4.8 4.8 0 0 0-1.031 1.44 3.9 3.9 0 0 0-.344 1.568m19.465 12.504V56.7h4.963l.129 2.342q.387-.429.945-.924.56-.495 1.332-.902a8.3 8.3 0 0 1 1.741-.666q.966-.28 2.191-.28 3.867 0 5.887 2.32 2.04 2.3 2.041 6.21v12.547h-5.199V64.844q0-1.977-1.075-3.051t-2.793-1.074a4.6 4.6 0 0 0-1.976.43 4.6 4.6 0 0 0-1.59 1.16 5.4 5.4 0 0 0-1.053 1.74 6.1 6.1 0 0 0-.365 2.127v11.172zm-173.465 48V96H8.4v11.795h14.567V96h5.543v29.348h-5.543v-12.633H8.4v12.633zm31.196-8.1v-12.547h5.178v12.504q0 1.977 1.074 3.072 1.095 1.075 2.814 1.075 1.052 0 1.977-.409a4.6 4.6 0 0 0 1.568-1.181 5.5 5.5 0 0 0 1.031-1.741 5.8 5.8 0 0 0 .387-2.126v-11.194h5.2v20.647h-4.985l-.129-2.342q-.387.429-.967.924-.579.493-1.332.924a7.4 7.4 0 0 1-1.697.666q-.967.257-2.213.257-3.867 0-5.887-2.298-2.02-2.32-2.02-6.231m23.31 5.586 3.115-3.373q.967.967 2.428 1.611 1.483.624 3.373.623 1.677 0 2.686-.429 1.01-.452 1.01-1.461a1.84 1.84 0 0 0-.172-.795q-.172-.387-.752-.731-.559-.365-1.569-.709-1.01-.365-2.728-.752a18 18 0 0 1-2.213-.709 8.9 8.9 0 0 1-2.127-1.203 6.7 6.7 0 0 1-1.633-1.847q-.623-1.096-.623-2.579 0-1.546.73-2.75a6.4 6.4 0 0 1 1.956-2.019 9.7 9.7 0 0 1 2.728-1.246 10.8 10.8 0 0 1 3.072-.451q2.73 0 4.641.58 1.912.558 3.46 1.697l-2.686 3.652q-.839-.622-2.213-1.117-1.354-.515-3.202-.515-1.846 0-2.578.558-.73.56-.73 1.332 0 .967 1.203 1.526 1.225.558 3.781 1.16 1.59.344 2.836.881t2.149 1.332a5.3 5.3 0 0 1 1.375 1.869q.494 1.074.494 2.578t-.71 2.707q-.686 1.203-1.911 2.041-1.203.838-2.815 1.289a12 12 0 0 1-3.416.473q-2.9 0-5.242-.817-2.32-.816-3.717-2.406m20.26-13.9v-4.233h3.523V98.02h5.178v6.681h5.543v4.233h-5.543v9.023q0 1.762.602 2.707.6.945 1.912.945 1.224 0 1.955-.343a11 11 0 0 0 1.396-.838l2.192 3.201q-1.547 1.268-3.05 1.826-1.485.558-3.331.559-1.89 0-3.223-.559-1.31-.537-2.127-1.547-.816-1.031-1.16-2.449-.343-1.44-.343-3.158v-9.367zm18.498 5.843q0-2.277.752-4.232a10.4 10.4 0 0 1 2.148-3.395 10.2 10.2 0 0 1 3.309-2.298q1.933-.838 4.254-.838 2.814 0 4.77 1.031 1.954 1.031 3.136 2.707a10.8 10.8 0 0 1 1.719 3.781q.537 2.105.537 4.319v.73h-15.404q0 1.139.515 2.084a5.6 5.6 0 0 0 1.311 1.59q.816.644 1.848 1.01a6.6 6.6 0 0 0 2.062.343q1.504 0 2.621-.279 1.117-.3 1.891-.666a7.2 7.2 0 0 0 2.084-1.482l2.814 3.179-.73.731q-.58.58-1.719 1.246-1.117.666-2.857 1.182-1.741.537-4.147.537-2.47 0-4.49-.838t-3.46-2.299q-1.438-1.482-2.212-3.545-.752-2.084-.752-4.598m5.178-1.933h10.119q0-.795-.301-1.569a4.35 4.35 0 0 0-.902-1.439q-.602-.645-1.526-1.053-.923-.429-2.105-.429-1.268 0-2.256.429-.988.408-1.654 1.053t-1.031 1.439a3.9 3.9 0 0 0-.344 1.569m19.465 12.504v-20.647h4.963l.128 2.342q.387-.429.946-.924.558-.494 1.332-.902a8.3 8.3 0 0 1 1.74-.666q.967-.28 2.191-.28 3.868 0 5.887 2.321 2.041 2.298 2.041 6.209v12.547h-5.199v-12.504q0-1.977-1.074-3.051t-2.793-1.074q-1.053 0-1.977.429a4.6 4.6 0 0 0-1.59 1.161 5.4 5.4 0 0 0-1.052 1.74 6.1 6.1 0 0 0-.366 2.127v11.172zm24.664 0v-6.08h6.295v6.08z"/></svg>