<svg xmlns="http://www.w3.org/2000/svg" fill="none" viewBox="0 0 134 47"><path fill="#fff" d="M1.056 3.992.528 1.568c.696-.48 2.04-.936 3.576-.936 3.072 0 4.512 1.872 4.512 3.984 0 1.656-1.104 3.264-2.736 3.672v.048c1.896.384 3.216 1.824 3.216 4.056 0 3.096-2.64 4.8-5.544 4.8-1.344 0-2.52-.312-3.264-.72l.456-2.568c.696.408 1.608.648 2.496.648 1.68 0 2.568-.96 2.568-2.256 0-1.8-1.488-2.52-3.192-2.52H2.16V7.4h.312c1.44 0 2.88-.696 2.88-2.184 0-1.128-.696-1.896-2.04-1.896-.744 0-1.632.312-2.256.672m15.417 9.312H13.57L12.85 17H9.801L13.305.824h3.768L20.217 17H17.17zm-2.592-2.448h2.304l-.528-3.384c-.168-.984-.384-2.592-.528-3.672h-.072c-.168 1.08-.408 2.76-.576 3.696zM21.994.824h8.256v2.688h-5.136v3.384a5.7 5.7 0 0 1 1.272-.12c1.392 0 2.616.432 3.504 1.2.96.84 1.536 2.112 1.536 3.744 0 1.56-.48 2.808-1.344 3.672-1.104 1.176-2.832 1.728-5.16 1.728-1.2 0-2.208-.072-2.928-.168zm3.144 8.544v5.184c.216.048.432.048.696.048.744 0 1.344-.288 1.728-.768.408-.48.6-1.152.6-1.872 0-.744-.216-1.416-.624-1.872a2.17 2.17 0 0 0-1.68-.792q-.396 0-.72.072M37.92.632c3.912 0 5.016 4.296 5.016 7.992 0 6.096-2.16 8.568-5.232 8.568-3.672 0-5.112-3.888-5.112-8.328 0-4.416 1.752-8.232 5.328-8.232m-.12 2.736c-1.248 0-1.944 2.064-1.944 5.544 0 3.672.696 5.544 1.968 5.544 1.32 0 1.824-2.4 1.824-5.688 0-2.832-.432-5.4-1.848-5.4M46.363 17V3.728h-2.856V.824h8.88v2.904h-2.88V17zm12.063-3.696h-2.904L54.803 17h-3.047L55.258.824h3.768L62.17 17h-3.047zm-2.592-2.448h2.304l-.527-3.384c-.168-.984-.384-2.592-.528-3.672h-.072c-.169 1.08-.409 2.76-.577 3.696zM5.929 29.632c3.912 0 5.016 4.296 5.016 7.992 0 6.096-2.16 8.568-5.232 8.568C2.04 46.192.6 42.304.6 37.864c0-4.416 1.752-8.232 5.328-8.232m-.12 2.736c-1.248 0-1.944 2.064-1.944 5.544 0 3.672.696 5.544 1.968 5.544 1.32 0 1.824-2.4 1.824-5.688 0-2.832-.432-5.4-1.848-5.4M26.943 46l-.288-5.664c-.072-1.536-.192-3.624-.144-5.352h-.072a71 71 0 0 1-1.032 4.968l-1.392 5.784h-2.232l-1.344-5.688c-.312-1.296-.744-3.312-.984-5.064h-.072a179 179 0 0 1-.24 5.4L18.879 46h-2.712l1.176-16.176h3.312l1.296 5.856c.456 2.04.864 3.84 1.152 5.664h.048c.24-1.8.6-3.624 1.032-5.664l1.272-5.856h3.312L29.751 46zm5.105-16.176h2.784V33.4c0 2.976-.192 5.76-.312 7.44h.048c.456-1.392 1.272-3.504 1.752-4.752l2.376-6.264h2.856V46h-2.76v-3.648c0-3.24.12-5.64.192-7.272h-.048c-.36 1.464-1.08 3.408-1.608 4.752L34.952 46h-2.904zm12.305 0h3.072v7.032h.24l2.64-7.032h3.456l-3.72 7.488c1.656.624 2.208 2.136 2.664 4.104.36 1.56.624 3.096 1.104 4.584h-3.144c-.384-1.152-.624-2.472-.888-3.744-.384-1.896-.816-3.12-2.112-3.12h-.24V46h-3.072zM55.25 46V30.064c.888-.192 2.088-.312 3.288-.312 1.872 0 3.336.264 4.392 1.248.96.84 1.392 2.184 1.392 3.552 0 1.752-.528 2.976-1.368 3.888-1.008 1.056-2.64 1.536-3.936 1.536h-.624V46zm3.144-13.584v4.992c.144.048.312.048.504.048 1.584 0 2.304-1.128 2.304-2.64 0-1.416-.576-2.52-2.04-2.52-.288 0-.576.048-.768.12m12.361-2.784c3.912 0 5.016 4.296 5.016 7.992 0 6.096-2.16 8.568-5.232 8.568-3.672 0-5.112-3.888-5.112-8.328 0-4.416 1.752-8.232 5.328-8.232m-.12 2.736c-1.248 0-1.944 2.064-1.944 5.544 0 3.672.696 5.544 1.968 5.544 1.32 0 1.824-2.4 1.824-5.688 0-2.832-.432-5.4-1.848-5.4m11.483-3.12h2.76v1.224c2.904.384 5.112 2.664 5.112 7.32 0 4.968-2.232 7.056-5.112 7.464v1.32h-2.784v-1.32c-2.928-.432-5.112-2.496-5.112-7.392 0-4.752 2.616-7.008 5.136-7.392zm0 13.704v-10.2c-.96.288-1.992 1.584-1.992 5.16 0 3.336 1.008 4.824 1.992 5.04m2.736-10.2v10.2c1.056-.216 1.992-1.512 1.992-5.136 0-3.672-1.08-4.848-1.992-5.064m7.583-2.928h8.424V46h-3.144V32.56h-2.4v4.272c0 3.72-.24 6.984-2.28 8.568-.6.48-1.368.792-2.16.792l-.672-2.664c.384-.096.792-.288 1.08-.576.936-.96 1.152-2.688 1.152-5.832zm15.748-.192c3.912 0 5.016 4.296 5.016 7.992 0 6.096-2.16 8.568-5.232 8.568-3.672 0-5.112-3.888-5.112-8.328 0-4.416 1.752-8.232 5.328-8.232m-.12 2.736c-1.248 0-1.944 2.064-1.944 5.544 0 3.672.696 5.544 1.968 5.544 1.32 0 1.824-2.4 1.824-5.688 0-2.832-.432-5.4-1.848-5.4M115.205 46V30.064c.888-.192 2.088-.312 3.288-.312 1.872 0 3.336.264 4.392 1.248.96.84 1.392 2.184 1.392 3.552 0 1.752-.528 2.976-1.368 3.888-1.008 1.056-2.64 1.536-3.936 1.536h-.624V46zm3.144-13.584v4.992c.144.048.312.048.504.048 1.584 0 2.304-1.128 2.304-2.64 0-1.416-.576-2.52-2.04-2.52-.288 0-.576.048-.768.12m14.664 3.864v2.616h-3.696v4.368h4.176V46h-7.32V29.824h7.032v2.736h-3.888v3.72z"/></svg>