<svg xmlns="http://www.w3.org/2000/svg" fill="none" viewBox="0 0 94 14"><g clip-path="url(#a)"><path fill="#fff" d="m.605 10.604 1.558-1.728c.734 1.043 1.65 1.526 2.586 1.526.857 0 1.369-.454 1.369-1.184s-.483-1.076-1.79-1.62c-1.855-.73-3.179-1.559-3.179-3.505C1.15 2.146 2.815.604 5.123.604c1.683 0 2.866.623 3.724 1.575L7.35 4.018C6.868 3.395 6.196 2.99 5.326 2.99c-.718 0-1.23.388-1.23.965s.561.874 1.918 1.434c1.962.763 3.068 1.728 3.068 3.724 0 2.226-1.745 3.661-4.144 3.661-2.058 0-3.522-.903-4.33-2.165zm22.225 1.962-.762-2.226h-4.3l-.81 2.226h-3.084L18.686.823h2.602l4.75 11.747H22.83zm-4.267-4.424h2.742l-.578-1.682a75 75 0 0 1-.746-2.305 64 64 0 0 1-.796 2.288zm31.469 4.424V.823h3.364c3.988 0 6.775 1.962 6.775 5.872 0 3.909-2.742 5.871-6.589 5.871zm2.882-2.54h.622c2.21 0 3.678-1.154 3.678-3.331s-1.245-3.258-3.678-3.258h-.622zm12.523-3.348c0-3.472 2.865-6.06 6.325-6.06 3.443 0 6.292 2.568 6.292 6.09 0 3.52-2.866 6.06-6.341 6.06s-6.276-2.445-6.276-6.09m9.644.033c0-1.93-1.418-3.427-3.332-3.427-1.885 0-3.332 1.51-3.332 3.41 0 2.009 1.51 3.41 3.302 3.41 1.918 0 3.365-1.447 3.365-3.396zM93.022.823H83.75v2.556h4.532l-5.517 9.19h9.925V9.969h-5.142zM39.827 12.566h2.725V.823h-2.725v7.482L34.33.823h-2.788V12.57h2.788V5.087l5.5 7.483z"/></g><defs><clipPath id="a"><rect width="92.96" height="12.721" fill="#fff" transform="translate(.36 .36)"/></clipPath></defs></svg>