<svg xmlns="http://www.w3.org/2000/svg" fill="none" viewBox="0 0 249 65"><path fill="#fff" d="M9.101 3.492v.993H3.618v-.993zm.863 0V17H8.906V3.492zm-6.717 0h1.058l-.288 6.253a52 52 0 0 1-.195 2.728 14 14 0 0 1-.343 2.05q-.213.854-.557 1.4a2.2 2.2 0 0 1-.844.817Q1.577 17 .863 17H.51v-.993l.297-.009q.455-.018.789-.213.333-.195.566-.631.24-.435.39-1.16.156-.733.259-1.818a52 52 0 0 0 .167-2.58zM18.95 16.007V17h-6.308v-.993zM12.93 3.492V17h-1.058V3.492zm5.232 6.049v.993h-5.52V9.54zm.742-6.049v.993h-6.262v-.993zm2.205 0V17h-1.067V3.492zm7.078 0-5.01 7.18h-2.495l-.111-1.001h1.976l4.313-6.179zM27.213 17l-4.685-6.466.603-1.012L28.521 17zm5.841-12.691L29.167 17h-1.094l4.295-13.508h.751zM36.552 17 32.656 4.309l-.047-.817h.742L37.647 17zm-.612-4.769v.993h-6.086v-.993zm6.333-.723h-3.2v-.993h3.2q.993 0 1.605-.39.612-.398.89-1.066.288-.678.288-1.513 0-.825-.288-1.521a2.4 2.4 0 0 0-.89-1.113q-.612-.427-1.605-.427h-2.867V17H38.35V3.492h3.924q1.242 0 2.096.51.864.51 1.3 1.42.444.909.445 2.106 0 1.243-.436 2.143a3.06 3.06 0 0 1-1.29 1.364q-.854.473-2.115.473m12.01 1.28h1.067q-.092 1.512-.612 2.486-.519.974-1.428 1.448-.9.473-2.162.473-.975 0-1.754-.38a3.8 3.8 0 0 1-1.335-1.095q-.548-.724-.845-1.754-.287-1.03-.287-2.319V8.752q0-1.27.287-2.273.297-1.011.854-1.716a3.7 3.7 0 0 1 1.364-1.085q.797-.371 1.79-.371 1.225 0 2.115.464.9.463 1.41 1.438.51.973.603 2.514h-1.066q-.084-1.244-.446-1.995-.352-.751-1.002-1.085-.649-.344-1.614-.344-.78 0-1.382.306a2.8 2.8 0 0 0-1.012.873q-.408.565-.621 1.391-.213.816-.213 1.865v2.913q0 1.03.194 1.874.204.835.594 1.438.399.603.984.928.593.315 1.382.315 1.002 0 1.651-.315.66-.315 1.02-1.058.372-.75.465-2.04m5.981-9.296V17h-1.048V3.492zm3.85 0v.993h-8.73v-.993zm4.793 7.014h-3.135l-.019-.974h2.718q.816 0 1.383-.288a1.94 1.94 0 0 0 .872-.853q.306-.567.306-1.392 0-.853-.297-1.41a1.8 1.8 0 0 0-.881-.826q-.585-.278-1.475-.278H66.03V17h-1.057V3.492h3.404q.863 0 1.55.214.696.204 1.178.64.483.427.733 1.094.26.669.26 1.587 0 .834-.325 1.503t-.91 1.095a2.87 2.87 0 0 1-1.372.528zM68.833 17H65.41l.566-.993h2.857q.816 0 1.392-.334.575-.343.881-.964.315-.632.315-1.503 0-.761-.269-1.373a2.13 2.13 0 0 0-.825-.965q-.556-.363-1.42-.362h-2.022l.018-.974h2.83l.204.352q.78.093 1.345.557.576.465.89 1.178.316.714.316 1.568 0 1.234-.463 2.087-.465.845-1.28 1.29-.817.435-1.912.436m12.076-.993V17H74.6v-.993zM74.888 3.492V17H73.83V3.492zm5.232 6.049v.993H74.6V9.54zm.742-6.049v.993H74.6v-.993zm8.68 6.049v.993h-6.744V9.54zm-6.521-6.049V17h-1.058V3.492zm7.403 0V17h-1.067V3.492zm9.478 6.049v.993h-6.745V9.54zM93.38 3.492V17h-1.057V3.492zm7.403 0V17h-1.066V3.492zm2.641 5.845h3.136q1.234 0 2.069.482.844.474 1.271 1.336.427.854.427 1.995a4.7 4.7 0 0 1-.251 1.559q-.242.705-.714 1.215-.473.51-1.179.798-.705.278-1.623.278h-3.859V3.492h1.066v12.515h2.793q.956 0 1.559-.399.602-.399.872-1.057.278-.659.278-1.42 0-.75-.278-1.382a2.24 2.24 0 0 0-.872-1.03q-.603-.39-1.559-.39h-3.136zm9.751-5.845V17h-1.067V3.492zm3.058 11.495 6.299-11.495h1.049V17h-1.049V5.487L116.233 17h-1.058V3.492h1.058zM121.168.17h.947q0 .705-.325 1.243-.315.538-.918.844-.595.306-1.429.306-1.253 0-1.976-.668-.715-.667-.715-1.725h.956q0 .64.39 1.113.389.465 1.345.464.928 0 1.326-.473a1.66 1.66 0 0 0 .399-1.104m15.737 3.321V17h-1.067V4.485h-6.262V17h-1.067V3.492zm5.851 8.016h-3.201v-.993h3.201q.993 0 1.605-.39a2.3 2.3 0 0 0 .891-1.066q.287-.678.287-1.513 0-.825-.287-1.521a2.4 2.4 0 0 0-.891-1.113q-.612-.427-1.605-.427h-2.867V17h-1.057V3.492h3.924q1.244 0 2.097.51.863.51 1.299 1.42.445.909.445 2.106 0 1.243-.436 2.143a3.06 3.06 0 0 1-1.29 1.364q-.853.473-2.115.473m12.067 4.5V17h-6.309v-.993zm-6.021-12.516V17h-1.058V3.492zm5.232 6.049v.993h-5.52V9.54zm.742-6.049v.993h-6.262v-.993zm9.534 0V17h-1.067V4.485h-6.262V17h-1.067V3.492zm5.73.817L166.153 17h-1.095l4.295-13.508h.752zM173.538 17l-3.897-12.691-.046-.817h.742L174.632 17zm-.613-4.769v.993h-6.086v-.993zm6.333-.723h-3.2v-.993h3.2q.993 0 1.605-.39a2.3 2.3 0 0 0 .891-1.066q.288-.678.288-1.513a3.9 3.9 0 0 0-.288-1.521 2.4 2.4 0 0 0-.891-1.113q-.612-.427-1.605-.427h-2.866V17h-1.058V3.492h3.924q1.243 0 2.097.51.862.51 1.299 1.42.445.909.445 2.106 0 1.243-.436 2.143a3.06 3.06 0 0 1-1.289 1.364q-.854.473-2.116.473m7.512-7.2L182.882 17h-1.094l4.295-13.508h.752zM190.267 17l-3.896-12.691-.047-.817h.742L191.362 17zm-.612-4.769v.993h-6.086v-.993zm5.071-8.739V17h-1.048V3.492zm3.85 0v.993h-8.73v-.993zm-1.413 12.822q0-.325.204-.557t.575-.232.585.232.213.557a.76.76 0 0 1-.213.547q-.214.223-.585.223-.37 0-.575-.223a.78.78 0 0 1-.204-.547M212 3.492V17h-1.067V4.485h-6.262V17h-1.067V3.492zm9.005 12.515V17h-6.309v-.993zm-6.021-12.515V17h-1.058V3.492zm5.232 6.049v.993h-5.52V9.54zm.742-6.049v.993h-6.262v-.993zm5.025 8.016h-3.2v-.993h3.2q.993 0 1.605-.39.614-.398.891-1.066.288-.678.288-1.513a3.9 3.9 0 0 0-.288-1.521 2.4 2.4 0 0 0-.891-1.113q-.612-.427-1.605-.427h-2.866V17h-1.058V3.492h3.924q1.243 0 2.097.51.863.51 1.299 1.42.445.909.445 2.106 0 1.243-.436 2.143a3.05 3.05 0 0 1-1.289 1.364q-.853.473-2.116.473m12.067 4.5V17h-6.309v-.993zm-6.021-12.516V17h-1.058V3.492zm5.232 6.049v.993h-5.52V9.54zm.743-6.049v.993h-6.263v-.993zm9.904 12.515V17h-8.85v-.993zm-8.637 0v4.277h-1.057v-4.277zm9.537 0v4.268h-1.057v-4.268zm-2.115-12.515v.993h-5.121v-.993zm.863 0V17h-1.058V3.492zm-6.364 0h1.048l-.186 4.89a23 23 0 0 1-.222 2.42 20 20 0 0 1-.39 2.042 12 12 0 0 1-.51 1.642q-.279.723-.594 1.252a4.5 4.5 0 0 1-.621.845q-.308.315-.603.417h-.604v-.993h.492q.195-.232.483-.76.297-.53.603-1.43.315-.908.556-2.244.251-1.345.334-3.192zm-231.154 22V39H8.971V26.485H2.71V39H1.642V25.492zm5.85 8.016h-3.2v-.993h3.2q.993 0 1.606-.39.612-.398.89-1.066.288-.678.288-1.513 0-.825-.288-1.521a2.4 2.4 0 0 0-.89-1.113q-.613-.427-1.605-.427h-2.867V39h-1.058V25.492h3.925q1.243 0 2.096.51.864.51 1.3 1.42.444.909.445 2.106 0 1.243-.436 2.143a3.06 3.06 0 0 1-1.29 1.364q-.854.473-2.115.473m6.083 3.479 6.3-11.495h1.048V39h-1.048V27.487L21.97 39h-1.057V25.492h1.057zm9.627-11.495h1.067l4.091 11.875 4.11-11.875h1.048L37.174 39h-.817zm-.325 0h.928l.13 7.626V39h-1.058zm10.057 0h.937V39h-1.058v-5.882zm9.905 12.515V39h-6.309v-.993zm-6.021-12.515V39h-1.058V25.492zm5.232 6.049v.993h-5.52v-.993zm.742-6.049v.993h-6.262v-.993zm8.68 6.049v.993h-6.744v-.993zm-6.521-6.049V39h-1.058V25.492zm7.403 0V39h-1.067V25.492zm8.977 12.515V39h-6.309v-.993zm-6.021-12.515V39h-1.058V25.492zm5.233 6.049v.993h-5.52v-.993zm.742-6.049v.993h-6.263v-.993zm8.68 6.049v.993h-6.745v-.993zm-6.522-6.049V39H70.78V25.492zm7.403 0V39h-1.067V25.492zm2.993 11.495 6.3-11.495h1.048V39h-1.048V27.487L82.235 39h-1.057V25.492h1.058zm16.38 1.02V39h-6.308v-.993zm-6.02-12.515V39h-1.058V25.492zm5.232 6.049v.993h-5.52v-.993zm.743-6.049v.993h-6.263v-.993zm1.425 0h1.067l4.091 11.875 4.11-11.875h1.048L105.571 39h-.817zm-.325 0h.928l.13 7.626V39H99.67zm10.057 0h.937V39h-1.058v-5.882zm14.197 0V39h-1.067V26.485h-6.262V39h-1.067V25.492zm5.85 8.016h-3.2v-.993h3.2q.993 0 1.605-.39.613-.398.891-1.066.288-.678.288-1.513a3.9 3.9 0 0 0-.288-1.521 2.4 2.4 0 0 0-.891-1.113q-.612-.427-1.605-.427h-2.866V39h-1.058V25.492h3.924q1.243 0 2.097.51.862.51 1.299 1.42.445.909.445 2.106 0 1.243-.436 2.143a3.05 3.05 0 0 1-1.289 1.364q-.853.473-2.116.473m13.347-2.718v2.922q0 1.345-.306 2.375-.297 1.02-.863 1.707a3.66 3.66 0 0 1-1.363 1.048q-.808.353-1.819.353-1.002 0-1.809-.353a3.84 3.84 0 0 1-1.373-1.048q-.575-.687-.891-1.707-.306-1.03-.306-2.375V30.79q0-1.337.306-2.366t.872-1.716a3.76 3.76 0 0 1 1.374-1.04q.807-.36 1.809-.361 1.011 0 1.818.362.807.352 1.382 1.038.575.687.872 1.717t.297 2.366m-1.048 2.922V30.77q0-1.114-.223-1.939-.213-.835-.631-1.392a2.6 2.6 0 0 0-1.039-.835q-.621-.278-1.428-.278-.78 0-1.401.278a2.7 2.7 0 0 0-1.039.835q-.418.557-.64 1.392-.223.825-.223 1.939v2.94q0 1.124.223 1.958.222.826.649 1.392.436.557 1.048.835.623.278 1.401.278.807 0 1.42-.278.62-.279 1.039-.835.417-.566.63-1.392.214-.834.214-1.957m2.464-8.22h1.058v3.748q0 1.17.306 1.865.315.696.919 1.002.612.306 1.512.306.445 0 .881-.046a9.5 9.5 0 0 0 1.689-.334q.417-.12.825-.27v1.003q-.39.138-.779.26-.39.111-.807.203-.408.085-.863.13a9 9 0 0 1-.946.047q-1.197 0-2.051-.408-.843-.41-1.298-1.327-.446-.919-.446-2.43zm6.866 0h1.048V39h-1.048zm4.06 11.495 6.299-11.495h1.048V39h-1.048V27.487L155.463 39h-1.058V25.492h1.058zm12.892-11.495V39h-1.048V25.492zm3.85 0v.993h-8.73v-.993zm3.921.817L172.239 39h-1.095l4.295-13.508h.752zM179.623 39l-3.896-12.691-.046-.817h.742L180.718 39zm-.612-4.769v.993h-6.086v-.993zm3.504 2.756 6.299-11.495h1.048V39h-1.048V27.487L182.515 39h-1.058V25.492h1.058zm4.935-14.816h.946q0 .705-.324 1.243-.316.538-.919.844-.593.306-1.428.306-1.253 0-1.976-.668-.715-.667-.715-1.725h.956q0 .64.389 1.113.39.464 1.346.464.927 0 1.326-.473a1.66 1.66 0 0 0 .399-1.104m8.235 3.321V39h-1.048V25.492zm3.85 0v.993h-8.73v-.993zm7.938 12.515V39h-6.308v-.993zm-6.021-12.515V39h-1.057V25.492zm5.233 6.049v.993h-5.52v-.993zm.742-6.049v.993h-6.262v-.993zM2.7 58.987l6.299-11.495h1.048V61H9V49.487L2.699 61H1.643V47.492H2.7zM19.58 53.54v.993h-6.744v-.993zm-6.522-6.049V61h-1.057V47.492zm7.403 0V61h-1.066V47.492zm8.922 9.296h1.067q-.093 1.512-.613 2.486-.519.975-1.428 1.448-.9.473-2.162.473-.975 0-1.753-.38a3.8 3.8 0 0 1-1.336-1.095q-.547-.724-.844-1.754-.288-1.03-.288-2.319v-2.895q0-1.27.288-2.273.296-1.011.853-1.716a3.7 3.7 0 0 1 1.364-1.085q.798-.371 1.79-.371 1.225 0 2.116.463.9.466 1.41 1.438.51.975.603 2.515h-1.067q-.084-1.244-.445-1.995-.353-.751-1.002-1.085-.65-.344-1.615-.344-.78 0-1.382.306a2.8 2.8 0 0 0-1.011.873q-.409.565-.622 1.391-.213.816-.213 1.865v2.913q0 1.03.195 1.874.204.835.593 1.438.399.603.984.928.594.315 1.382.315 1.002 0 1.652-.315.658-.315 1.02-1.058.37-.75.464-2.04m5.98-9.296V61h-1.048V47.492zm3.85 0v.993h-8.73v-.993zm4.784 8.016h-3.2v-.993h3.2q.993 0 1.605-.39.612-.399.891-1.066.288-.678.288-1.513 0-.825-.288-1.521a2.4 2.4 0 0 0-.89-1.113q-.613-.427-1.606-.427h-2.866V61h-1.058V47.492h3.924q1.244 0 2.097.51.862.51 1.299 1.42.445.909.445 2.106 0 1.243-.436 2.143a3.06 3.06 0 0 1-1.29 1.364q-.852.473-2.115.473m8.625.955 3.275-8.97h1.243L52.864 58.68q-.167.399-.37.844-.205.436-.52.816-.307.38-.761.622-.454.232-1.104.232-.177 0-.418-.037a1.5 1.5 0 0 1-.324-.065l.074-.956q.102.028.315.047.223.018.353.018.492 0 .807-.25.325-.26.538-.668.222-.408.399-.863zm-3.386-8.97 3.692 8.896.306 1.04-.909.194-4.295-10.13zm9.914 0V61h-1.067V47.492zm7.078 0-5.01 7.18h-2.495l-.111-1.002h1.976l4.314-6.179zM65.256 61l-4.685-6.466.603-1.011L66.563 61zm11.529-1.011-.084 4.267h-.965V61h-1.122v-1.011zM67.265 61V47.492h1.067v12.515h6.262V47.492h1.067V61zm11.612-2.013 6.3-11.495h1.048V61h-1.049V49.487L78.877 61H77.82V47.492h1.057zm10.536-11.495V61h-1.067V47.492zm2.709 6.198v.964h-2.83v-.965zm8.108-.9v2.922q0 1.345-.306 2.375-.297 1.02-.863 1.707a3.74 3.74 0 0 1-1.373 1.048q-.807.353-1.818.353a4.45 4.45 0 0 1-1.8-.353 3.8 3.8 0 0 1-1.382-1.048q-.576-.687-.89-1.707-.307-1.03-.307-2.375V52.79q0-1.337.306-2.366t.872-1.716a3.7 3.7 0 0 1 1.383-1.04 4.35 4.35 0 0 1 1.8-.361q1.02 0 1.827.361a3.65 3.65 0 0 1 1.373 1.04q.566.686.872 1.716t.306 2.366m-1.057 2.922V52.77q0-1.114-.223-1.939-.214-.835-.63-1.392a2.6 2.6 0 0 0-1.04-.834q-.62-.279-1.429-.279-.788 0-1.41.279a2.64 2.64 0 0 0-1.03.834q-.417.557-.64 1.392-.222.825-.222 1.939v2.94q0 1.124.213 1.958.222.826.659 1.392.436.557 1.048.835t1.4.278q.808 0 1.42-.278a2.6 2.6 0 0 0 1.04-.835q.417-.566.63-1.392.213-.834.214-1.957m2.269 4.601q0-.325.204-.556t.575-.232q.372 0 .585.232t.213.556a.76.76 0 0 1-.213.548q-.213.222-.585.223-.37 0-.575-.223a.78.78 0 0 1-.204-.547"/></svg>