<svg xmlns="http://www.w3.org/2000/svg" fill="none" viewBox="0 0 163 30"><path fill="#fff" d="M.336 9.25 1.75 7.953q.195.226.453.477.266.242.594.46.328.211.734.36.406.14.922.14.945 0 1.399-.43a1.38 1.38 0 0 0 .453-1.038q0-.336-.125-.602a1.13 1.13 0 0 0-.43-.46 3.2 3.2 0 0 0-.797-.36 10 10 0 0 0-1.203-.305 4.2 4.2 0 0 1-1.273-.445 3.4 3.4 0 0 1-.891-.727 2.9 2.9 0 0 1-.531-.914A3.2 3.2 0 0 1 .883 3.07q0-.609.219-1.156.226-.555.687-.976.469-.422 1.164-.68Q3.65 0 4.593 0q.852 0 1.454.195a4.2 4.2 0 0 1 1.016.446q.413.257.632.507.226.243.328.36L6.695 2.75a6 6 0 0 1-.258-.227 2.4 2.4 0 0 0-.445-.328 3 3 0 0 0-.633-.289 2.4 2.4 0 0 0-.828-.133 2 2 0 0 0-.718.118q-.306.11-.508.289a1.2 1.2 0 0 0-.297.39 1 1 0 0 0-.094.407q0 .288.102.515.11.219.351.414.25.188.68.344a9 9 0 0 0 1.094.281q.624.125 1.195.383.578.258 1.016.664.444.407.703.992.265.586.265 1.399 0 .702-.289 1.297a3.1 3.1 0 0 1-.797 1.039A3.7 3.7 0 0 1 6.016 11a4.5 4.5 0 0 1-1.532.25 5 5 0 0 1-1.445-.195 5.4 5.4 0 0 1-1.172-.485 5 5 0 0 1-.898-.648 7 7 0 0 1-.633-.672m9.937-6.977V.29h2.016v1.984zm.063 8.688V3.453h1.89v7.508zm3.476-3.844q0-.828.274-1.539.281-.71.781-1.234.509-.531 1.203-.836a3.85 3.85 0 0 1 1.547-.305q1.023 0 1.735.375.711.375 1.14.985.438.609.625 1.375.195.765.195 1.57v.265h-5.601q0 .415.187.758.188.336.477.578.297.235.672.368.382.125.75.125.546 0 .953-.102.406-.11.688-.242a2.6 2.6 0 0 0 .757-.54l1.024 1.157-.266.266a3.1 3.1 0 0 1-.625.453q-.405.241-1.039.43-.632.195-1.508.195a4.2 4.2 0 0 1-1.633-.305 3.8 3.8 0 0 1-1.257-.836 3.7 3.7 0 0 1-.805-1.289 4.9 4.9 0 0 1-.274-1.672m1.883-.703h3.68q0-.29-.11-.57a1.6 1.6 0 0 0-.328-.524 1.7 1.7 0 0 0-.554-.383 1.8 1.8 0 0 0-.766-.156q-.46 0-.82.157-.36.148-.602.382t-.375.524a1.4 1.4 0 0 0-.125.57m9.97 4.547V.289h1.85v3.938q.29-.32.844-.625.555-.306 1.414-.305.688 0 1.227.226.547.219.906.633.368.407.555.985.195.57.195 1.257v4.563h-1.89V6.414q0-.72-.391-1.11-.39-.39-1.016-.39-.382 0-.718.156a1.7 1.7 0 0 0-.578.422q-.243.265-.383.633-.133.36-.133.773v4.063zm8.78-2.945V3.453h1.883V8q0 .72.39 1.117.399.39 1.024.39.383 0 .719-.148.336-.156.57-.43.243-.273.375-.632.14-.36.14-.774v-4.07h1.892v7.508h-1.813l-.047-.852q-.14.156-.351.336t-.485.336q-.266.15-.617.242a3.1 3.1 0 0 1-.805.094q-1.405 0-2.14-.836-.735-.843-.735-2.265m8.477 2.03 1.133-1.226q.35.352.883.586.539.227 1.226.227.61 0 .977-.156.366-.165.367-.532a.7.7 0 0 0-.063-.289q-.062-.14-.273-.265a2.6 2.6 0 0 0-.57-.258 9 9 0 0 0-.993-.274 6.5 6.5 0 0 1-.804-.257 3.3 3.3 0 0 1-.774-.438 2.4 2.4 0 0 1-.593-.672 1.87 1.87 0 0 1-.227-.937q0-.563.266-1 .273-.445.71-.735.446-.297.993-.453a4 4 0 0 1 1.117-.164q.992 0 1.687.211a4 4 0 0 1 1.258.617l-.976 1.328a3.1 3.1 0 0 0-.805-.406q-.492-.187-1.164-.187t-.938.203-.265.484q0 .352.437.555.445.203 1.375.422.579.125 1.032.32t.78.484.5.68q.18.39.18.938 0 .546-.257.984-.25.438-.696.742-.437.305-1.023.469-.586.172-1.242.172-1.055 0-1.907-.297-.843-.297-1.351-.875m7.367-5.054V3.453h1.281v-2.43h1.883v2.43h2.016v1.54h-2.016v3.28q0 .642.219.985.22.344.695.344.445 0 .711-.125a4 4 0 0 0 .508-.305l.797 1.164a4 4 0 0 1-1.11.664q-.539.203-1.21.203-.689 0-1.172-.203a1.9 1.9 0 0 1-.774-.562 2.3 2.3 0 0 1-.422-.891 5 5 0 0 1-.125-1.149V4.992zm6.727 2.125q0-.828.273-1.539.282-.71.781-1.234a3.7 3.7 0 0 1 1.203-.836 3.85 3.85 0 0 1 1.547-.305q1.023 0 1.735.375.711.375 1.14.985.438.609.625 1.375.195.765.196 1.57v.265h-5.602q0 .415.188.758.187.336.476.578.297.235.672.368.383.125.75.125.547 0 .953-.102.406-.11.688-.242a2.6 2.6 0 0 0 .757-.54l1.024 1.157-.266.266a3.1 3.1 0 0 1-.625.453q-.406.241-1.039.43-.632.195-1.508.195a4.2 4.2 0 0 1-1.632-.305 3.8 3.8 0 0 1-1.258-.836 3.7 3.7 0 0 1-.805-1.289 4.9 4.9 0 0 1-.273-1.672m1.882-.703h3.68q0-.29-.11-.57a1.6 1.6 0 0 0-.327-.524 1.7 1.7 0 0 0-.555-.383 1.8 1.8 0 0 0-.766-.156q-.46 0-.82.157-.36.148-.602.382t-.375.524a1.4 1.4 0 0 0-.125.57m7.079 4.547V3.453h1.804l.047.852q.141-.156.344-.336t.484-.328q.282-.15.633-.243.351-.1.797-.101 1.406 0 2.14.844.743.836.743 2.257v4.563h-1.89V6.414q0-.72-.391-1.11t-1.016-.39q-.383 0-.719.156a1.7 1.7 0 0 0-.578.422q-.243.265-.383.633-.132.36-.133.773v4.063zm8.968 0V8.75h2.29v2.21zM0 18.289h2.21l1.743 7.984 2.07-7.68h1.82l2.079 7.68 1.726-7.984h2.118L10.96 28.961H8.85l-1.984-7.055-2.015 7.055H2.773zm14.867 1.984V18.29h2.016v1.984zm.063 8.688v-7.508h1.89v7.508zm3.828 0v-7.508h1.805l.046.945a3 3 0 0 1 .328-.343q.204-.195.477-.352a3 3 0 0 1 .633-.281q.36-.117.82-.11.273 0 .485.032.218.03.445.11l-.383 1.78a1.8 1.8 0 0 0-.398-.109 2.4 2.4 0 0 0-.47-.04q-.382 0-.733.134a1.7 1.7 0 0 0-.61.367q-.258.242-.414.578a1.8 1.8 0 0 0-.148.75v4.047zm9 0V18.289h1.883v10.672zm3.398-3.758q0-.812.297-1.539a3.9 3.9 0 0 1 .82-1.273 3.9 3.9 0 0 1 1.274-.868 4.1 4.1 0 0 1 1.64-.32q.9 0 1.641.32.742.32 1.266.868.531.538.828 1.265t.297 1.547q0 .813-.297 1.547a4 4 0 0 1-.828 1.281q-.524.547-1.266.867a4.1 4.1 0 0 1-1.64.32 4.1 4.1 0 0 1-1.641-.32 3.9 3.9 0 0 1-1.274-.867 4.12 4.12 0 0 1-1.117-2.828m1.649-5.156v-1.742h1.843v1.742zm.25 5.156q0 .414.125.828.132.414.398.774.266.351.664.57.398.21.946.21t.945-.21q.398-.219.656-.57a2.5 2.5 0 0 0 .39-.774q.134-.414.133-.828 0-.398-.132-.82a2.3 2.3 0 0 0-.39-.774 1.9 1.9 0 0 0-.665-.554 1.9 1.9 0 0 0-.937-.22q-.547 0-.946.22-.398.21-.664.554t-.398.774a2.9 2.9 0 0 0-.125.82m2.71-5.156v-1.742h1.837v1.742zm4.594 8 1.133-1.227q.352.352.883.586.54.227 1.227.227.609 0 .976-.156.367-.165.367-.532a.7.7 0 0 0-.062-.289q-.063-.14-.274-.265a2.6 2.6 0 0 0-.57-.258 9 9 0 0 0-.992-.274 7 7 0 0 1-.805-.257 3.3 3.3 0 0 1-.773-.438 2.4 2.4 0 0 1-.594-.672 1.87 1.87 0 0 1-.227-.937q0-.563.266-1 .274-.445.711-.735.446-.297.992-.453a4 4 0 0 1 1.117-.164q.992 0 1.688.211.695.203 1.258.617l-.977 1.328a3.1 3.1 0 0 0-.805-.406q-.492-.187-1.164-.187t-.937.203-.266.484q0 .353.438.555.445.203 1.375.422.578.125 1.031.32.454.196.781.484.329.29.5.68.18.39.18.938 0 .546-.258.984-.25.438-.695.742-.438.305-1.024.469-.585.172-1.242.172-1.054 0-1.906-.297-.844-.297-1.352-.875m7.657-2.93q0-.828.273-1.539.282-.71.781-1.234.508-.531 1.203-.836a3.85 3.85 0 0 1 1.547-.305q1.023 0 1.735.375.711.375 1.14.985.438.609.625 1.375.196.765.196 1.57v.265h-5.602q0 .415.188.758.187.336.476.578.297.235.672.368.383.125.75.125.547 0 .953-.102.406-.11.688-.242a2.6 2.6 0 0 0 .757-.54l1.024 1.157-.266.266a3.1 3.1 0 0 1-.625.453q-.406.241-1.039.43-.632.195-1.508.195a4.2 4.2 0 0 1-1.632-.305 3.8 3.8 0 0 1-1.258-.836 3.7 3.7 0 0 1-.805-1.289 4.9 4.9 0 0 1-.273-1.672m1.882-.703h3.68q0-.29-.11-.57a1.6 1.6 0 0 0-.327-.524 1.7 1.7 0 0 0-.555-.383 1.8 1.8 0 0 0-.766-.156q-.46 0-.82.157-.36.148-.602.382t-.375.524a1.4 1.4 0 0 0-.125.57m7.079 4.547v-7.508h1.804l.047.852q.14-.156.344-.336t.484-.328q.282-.15.633-.243.351-.1.797-.101 1.406 0 2.14.844.743.836.743 2.257v4.563h-1.89v-4.547q0-.72-.392-1.11-.39-.39-1.015-.39-.383 0-.719.156a1.7 1.7 0 0 0-.578.422q-.242.265-.383.633-.133.36-.133.773v4.063zm8.968 0V26.75h2.29v2.21zm7.39 0V18.289h2.017v4.29h5.296v-4.29h2.016v10.672h-2.016v-4.594h-5.296v4.594zm11.345-2.945v-4.563h1.882V26q0 .72.391 1.117.399.39 1.024.39.382 0 .718-.148.336-.156.57-.43.243-.272.376-.632.14-.36.14-.774v-4.07h1.89v7.508H89.86l-.046-.852q-.14.156-.352.336-.21.18-.484.336-.266.15-.618.242a3.1 3.1 0 0 1-.804.094q-1.407 0-2.14-.836-.735-.843-.735-2.265m8.476 2.03 1.133-1.226q.351.352.883.586.54.227 1.226.227.61 0 .977-.156.367-.165.367-.532a.7.7 0 0 0-.062-.289q-.063-.14-.274-.265a2.6 2.6 0 0 0-.57-.258 9 9 0 0 0-.992-.274 6.5 6.5 0 0 1-.805-.257 3.3 3.3 0 0 1-.773-.438 2.4 2.4 0 0 1-.594-.672 1.86 1.86 0 0 1-.227-.937q0-.563.266-1 .274-.445.71-.735.446-.297.993-.453.555-.164 1.117-.164.993 0 1.688.211.695.203 1.258.617L98.5 23.36a3.1 3.1 0 0 0-.805-.406q-.492-.187-1.164-.187t-.937.203-.266.484q0 .353.438.555.445.203 1.375.422.578.125 1.03.32.454.196.782.484.328.29.5.68.18.39.18.938 0 .546-.258.984-.25.438-.695.742-.438.305-1.024.469a4.4 4.4 0 0 1-1.242.172q-1.054 0-1.906-.297-.844-.297-1.352-.875m7.367-5.054v-1.539h1.282v-2.43h1.883v2.43h2.015v1.54h-2.015v3.28q0 .642.218.985.219.344.696.344.444 0 .71-.125.267-.133.508-.305l.797 1.164a4 4 0 0 1-1.109.664q-.54.203-1.211.203-.687 0-1.172-.203a1.9 1.9 0 0 1-.773-.562 2.3 2.3 0 0 1-.422-.891 5 5 0 0 1-.125-1.149v-3.406zm6.727 2.125q0-.828.273-1.539.281-.71.782-1.234a3.7 3.7 0 0 1 1.203-.836 3.85 3.85 0 0 1 1.547-.305q1.023 0 1.734.375.71.375 1.141.985.437.609.625 1.375.195.765.195 1.57v.265h-5.602q0 .415.188.758.188.336.476.578.297.235.672.368.384.125.75.125.547 0 .954-.102.406-.11.687-.242a2.6 2.6 0 0 0 .758-.54l1.023 1.157-.265.266q-.211.21-.625.453a4.6 4.6 0 0 1-1.039.43q-.633.195-1.508.195a4.2 4.2 0 0 1-1.633-.305 3.8 3.8 0 0 1-1.258-.836 3.7 3.7 0 0 1-.805-1.289 4.9 4.9 0 0 1-.273-1.672m1.883-.703h3.679a1.6 1.6 0 0 0-.109-.57 1.6 1.6 0 0 0-.328-.524 1.7 1.7 0 0 0-.555-.383 1.8 1.8 0 0 0-.765-.156q-.462 0-.821.157-.359.148-.601.382-.243.235-.375.524a1.4 1.4 0 0 0-.125.57m7.078 4.547v-7.508h1.805l.046.852q.141-.156.344-.336t.485-.328q.28-.15.632-.243.352-.1.797-.101 1.406 0 2.141.844.742.836.742 2.257v4.563h-1.891v-4.547q0-.72-.39-1.11-.391-.39-1.016-.39-.383 0-.718.156-.336.15-.579.422a2 2 0 0 0-.382.633q-.133.36-.133.773v4.063zm10.851 0 4.047-10.672h2.086l4.047 10.672H135l-.93-2.703h-3.968l-.922 2.703zm3.602-4.367h2.836l-1.414-4.149zm7.367-.914q0-1.172.399-2.188a5.55 5.55 0 0 1 1.132-1.789 5.3 5.3 0 0 1 1.735-1.219q1.008-.453 2.226-.453.781 0 1.438.172.656.164 1.187.453.54.29.954.68.421.39.742.844l-1.43 1.258a4.4 4.4 0 0 0-1.195-1.18q-.672-.445-1.696-.445-.78 0-1.414.312-.624.305-1.062.828a3.7 3.7 0 0 0-.672 1.219q-.234.695-.234 1.46 0 .766.234 1.438t.664 1.172q.43.492 1.031.781.602.29 1.352.29.687 0 1.172-.157.492-.165.836-.398.344-.242.578-.508.234-.265.422-.46l1.414 1.218a4.1 4.1 0 0 1-.672.758 5.6 5.6 0 0 1-1 .71q-.57.329-1.258.532-.687.21-1.461.21-1.203 0-2.195-.413a5.2 5.2 0 0 1-1.703-1.164 5.4 5.4 0 0 1-1.125-1.75 6 6 0 0 1-.399-2.211m10.875 0q0-1.172.399-2.188a5.5 5.5 0 0 1 1.133-1.789 5.3 5.3 0 0 1 1.734-1.219q1.008-.453 2.226-.453.781 0 1.438.172.656.164 1.187.453.54.29.954.68.421.39.742.844l-1.43 1.258a4.4 4.4 0 0 0-1.195-1.18q-.672-.445-1.696-.445-.78 0-1.414.312-.624.305-1.062.828a3.7 3.7 0 0 0-.672 1.219q-.234.695-.234 1.46 0 .766.234 1.438t.664 1.172q.43.492 1.031.781.602.29 1.352.29.687 0 1.172-.157.492-.165.836-.398.344-.242.578-.508.234-.265.422-.46l1.414 1.218a4.1 4.1 0 0 1-.672.758 5.6 5.6 0 0 1-1 .71q-.57.329-1.258.532-.687.21-1.461.21-1.203 0-2.195-.413a5.2 5.2 0 0 1-1.703-1.164 5.4 5.4 0 0 1-1.125-1.75 6 6 0 0 1-.399-2.211m11.258 5.28v-2.21h2.289v2.21z"/></svg>