<svg xmlns="http://www.w3.org/2000/svg" fill="none" viewBox="0 0 158 54"><path fill="#fff" d="M1.624.128h11.088V19H9.044V3.32H5.292V19H1.624zM15.952 19V.408c1.036-.224 2.436-.364 3.836-.364 2.184 0 3.892.308 5.124 1.456 1.12.98 1.624 2.548 1.624 4.144 0 2.044-.616 3.472-1.596 4.536-1.176 1.232-3.08 1.792-4.592 1.792h-.728V19zM19.62 3.152v5.824c.168.056.364.056.588.056 1.848 0 2.688-1.316 2.688-3.08 0-1.652-.672-2.94-2.38-2.94-.336 0-.672.056-.896.14M28.75.128h3.248V4.3c0 3.472-.224 6.72-.364 8.68h.056c.532-1.624 1.484-4.088 2.044-5.544L36.505.128h3.332V19h-3.22v-4.256c0-3.78.14-6.58.224-8.484h-.056c-.42 1.708-1.26 3.976-1.876 5.544L32.137 19h-3.388zm18.813 0H58.65V19H54.98V3.32H51.23V19h-3.668zM61.89 19V.408c1.036-.224 2.436-.364 3.836-.364 2.184 0 3.892.308 5.124 1.456 1.12.98 1.624 2.548 1.624 4.144 0 2.044-.616 3.472-1.596 4.536-1.176 1.232-3.08 1.792-4.592 1.792h-.728V19zm3.668-15.848v5.824c.168.056.364.056.588.056 1.848 0 2.688-1.316 2.688-3.08 0-1.652-.672-2.94-2.38-2.94-.336 0-.672.056-.896.14M74.686.128h3.248V4.3c0 3.472-.224 6.72-.364 8.68h.056c.532-1.624 1.484-4.088 2.044-5.544L82.443.128h3.333V19h-3.22v-4.256c0-3.78.14-6.58.223-8.484h-.056c-.42 1.708-1.26 3.976-1.875 5.544L78.075 19h-3.389zM97.023 7.66v3.052H92.71v5.096h4.872V19h-8.54V.128h8.204V3.32H92.71v4.34zM111.934 19l-.336-6.608c-.084-1.792-.224-4.228-.168-6.244h-.084a82 82 0 0 1-1.204 5.796l-1.624 6.748h-2.604l-1.568-6.636c-.364-1.512-.868-3.864-1.148-5.908h-.084a209 209 0 0 1-.28 6.3L102.526 19h-3.164L100.734.128h3.864l1.512 6.832c.532 2.38 1.008 4.48 1.344 6.608h.056c.28-2.1.7-4.228 1.204-6.608l1.484-6.832h3.864L115.21 19zM125.87 7.66v3.052h-4.312v5.096h4.872V19h-8.54V.128h8.204V3.32h-4.536v4.34zM8.008 48.688H4.62L3.78 53H.224l4.088-18.872h4.396L12.376 53H8.82zm-3.024-2.856h2.688l-.616-3.948c-.196-1.148-.448-3.024-.616-4.284h-.084c-.196 1.26-.476 3.22-.672 4.312zm9.464-11.704h3.668v7.56h3.836v-7.56h3.668V53h-3.668v-7.896h-3.836V53h-3.668zM30.902 53V37.516H27.57v-3.388h10.36v3.388h-3.36V53zm8.949-18.872h3.248V38.3c0 3.472-.224 6.72-.364 8.68h.056c.532-1.624 1.484-4.088 2.044-5.544l2.772-7.308h3.332V53h-3.22v-4.256c0-3.78.14-6.58.224-8.484h-.056c-.42 1.708-1.26 3.976-1.876 5.544L43.239 53H39.85zm14.355 0h9.632v3.136h-5.992v3.948c.532-.112.952-.14 1.484-.14 1.624 0 3.052.504 4.088 1.4 1.12.98 1.792 2.464 1.792 4.368 0 1.82-.56 3.276-1.568 4.284-1.288 1.372-3.304 2.016-6.02 2.016-1.4 0-2.576-.084-3.416-.196zm3.668 9.968v6.048c.252.056.504.056.812.056.868 0 1.568-.336 2.016-.896.476-.56.7-1.344.7-2.184 0-.868-.252-1.652-.728-2.184-.476-.56-1.148-.924-1.96-.924a4 4 0 0 0-.84.084m9.54-9.968h3.247V38.3c0 3.472-.224 6.72-.364 8.68h.056c.532-1.624 1.484-4.088 2.044-5.544l2.772-7.308h3.332V53h-3.22v-4.256c0-3.78.14-6.58.224-8.484h-.056c-.42 1.708-1.26 3.976-1.876 5.544L70.801 53h-3.388zm19.647-.224c4.563 0 5.851 5.012 5.851 9.324 0 7.112-2.52 9.996-6.104 9.996-4.284 0-5.964-4.536-5.964-9.716 0-5.152 2.044-9.604 6.217-9.604m-.14 3.192c-1.457 0-2.269 2.408-2.269 6.468 0 4.284.813 6.468 2.296 6.468 1.54 0 2.129-2.8 2.129-6.636 0-3.304-.504-6.3-2.156-6.3M96.91 53V37.516h-3.333v-3.388h10.36v3.388h-3.36V53zm8.947-18.872h3.248V38.3c0 3.472-.224 6.72-.364 8.68h.056c.532-1.624 1.484-4.088 2.044-5.544l2.772-7.308h3.332V53h-3.22v-4.256c0-3.78.14-6.58.224-8.484h-.056c-.42 1.708-1.26 3.976-1.876 5.544L109.246 53h-3.388zm14.356 0h3.584v8.204h.28l3.08-8.204h4.032l-4.34 8.736c1.932.728 2.576 2.492 3.108 4.788.42 1.82.728 3.612 1.288 5.348h-3.668c-.448-1.344-.728-2.884-1.036-4.368-.448-2.212-.952-3.64-2.464-3.64h-.28V53h-3.584zm17.733-.224c4.564 0 5.852 5.012 5.852 9.324 0 7.112-2.52 9.996-6.104 9.996-4.284 0-5.964-4.536-5.964-9.716 0-5.152 2.044-9.604 6.216-9.604m-.14 3.192c-1.456 0-2.268 2.408-2.268 6.468 0 4.284.812 6.468 2.296 6.468 1.54 0 2.128-2.8 2.128-6.636 0-3.304-.504-6.3-2.156-6.3m8.329 15.848V34.408c1.12-.252 2.576-.364 4.172-.364 1.764 0 3.472.224 4.788 1.344 1.008.84 1.428 2.1 1.428 3.416 0 1.68-.868 3.304-2.744 4.116v.112c2.184.616 3.36 2.436 3.36 4.508 0 1.568-.504 2.772-1.4 3.696-1.12 1.232-3.024 1.904-6.188 1.904-1.4 0-2.576-.084-3.416-.196m3.668-16.044v4.984h.784c1.316 0 2.324-1.12 2.324-2.66 0-1.372-.644-2.436-2.156-2.436-.392 0-.728.028-.952.112m0 7.7v5.656c.224.056.476.056.812.056 1.484 0 2.716-.896 2.716-2.828 0-1.876-1.288-2.856-2.744-2.884z"/></svg>