<svg xmlns="http://www.w3.org/2000/svg" fill="none" viewBox="0 0 116 53"><path fill="#fff" d="M.088 0h2.487l1.96 8.982 2.33-8.64h2.047l2.338 8.64L13.192 0h2.382L12.42 12.006h-2.373L7.813 4.069l-2.267 7.937H3.208zM16.4 7.682q0-.932.308-1.732.316-.8.879-1.388.57-.598 1.353-.94a4.3 4.3 0 0 1 1.74-.344q1.152 0 1.952.422.799.421 1.283 1.108.492.685.703 1.546.22.862.22 1.767v.299h-6.302q0 .466.211.852.211.379.536.65.334.265.756.414.43.14.844.14.615 0 1.072-.114.457-.123.774-.272a2.9 2.9 0 0 0 .852-.607l1.151 1.301-.298.299a3.5 3.5 0 0 1-.704.51q-.456.271-1.169.483-.712.22-1.696.22a4.8 4.8 0 0 1-1.837-.343 4.2 4.2 0 0 1-1.415-.94 4.1 4.1 0 0 1-.905-1.45 5.5 5.5 0 0 1-.308-1.881m2.119-.791h4.14q0-.325-.124-.642a1.8 1.8 0 0 0-.369-.589 1.9 1.9 0 0 0-.624-.43 2 2 0 0 0-.861-.176q-.52 0-.923.175-.404.168-.677.431a2 2 0 0 0-.422.589q-.14.325-.14.642m7.962 5.115V3.56h2.03l.053.958q.159-.177.387-.378.228-.202.545-.37.316-.166.712-.272.396-.114.897-.114 1.581 0 2.408.949.834.94.835 2.54v5.133H32.22V6.89q0-.81-.44-1.248-.44-.44-1.142-.44-.43 0-.809.176-.378.167-.65.475-.273.298-.431.711-.15.405-.15.87v4.57zm9.914 0V3.56h2.03l.053.958q.159-.177.387-.378.229-.202.545-.37.316-.166.712-.272.396-.114.897-.114 1.581 0 2.408.949.835.94.835 2.54v5.133h-2.127V6.89q0-.81-.44-1.248-.439-.44-1.142-.44-.43 0-.809.176-.378.167-.65.475-.273.298-.43.711-.15.405-.15.87v4.57zm12.771-4.07q0-.993.281-1.73.29-.748.721-1.275a3.8 3.8 0 0 1 .791-.721q.44-.29.879-.475.44-.194.852-.272.414-.08.721-.08.414 0 .686.027t.483.07q.22.044.396.124l.413.158V0h2.109v12.006h-2.057l-.052-.826a4 4 0 0 1-.396.378 3 3 0 0 1-.545.36q-.316.158-.703.264a3 3 0 0 1-.87.114 3.4 3.4 0 0 1-1.353-.29 3.65 3.65 0 0 1-1.196-.844 4.5 4.5 0 0 1-.844-1.371q-.316-.809-.316-1.854m2.136 0q0 1.082.536 1.802.545.72 1.573.721.536 0 .914-.202.387-.211.615-.536.238-.325.343-.712t.106-.747V5.669a1.7 1.7 0 0 0-.712-.352 4.5 4.5 0 0 0-1.029-.096q-.632 0-1.046.246-.412.237-.72.633-.273.36-.43.843-.15.475-.15.994m7.883-.254q0-.932.308-1.732.316-.8.88-1.388a4.2 4.2 0 0 1 1.353-.94 4.3 4.3 0 0 1 1.74-.344q1.151 0 1.951.422.799.421 1.283 1.108.493.685.703 1.546.22.862.22 1.767v.299h-6.302q0 .466.211.852.211.379.536.65.334.265.756.414.431.14.844.14.616 0 1.072-.114a4.7 4.7 0 0 0 .774-.272 2.9 2.9 0 0 0 .852-.607l1.152 1.301-.3.299a3.5 3.5 0 0 1-.702.51q-.457.271-1.17.483-.712.22-1.696.22a4.8 4.8 0 0 1-1.837-.343 4.2 4.2 0 0 1-1.415-.94 4.1 4.1 0 0 1-.905-1.45 5.5 5.5 0 0 1-.308-1.881m2.119-.791h4.14q0-.325-.124-.642a1.8 1.8 0 0 0-.369-.589 1.9 1.9 0 0 0-.624-.43 2 2 0 0 0-.861-.176q-.52 0-.923.175-.405.168-.677.431a2 2 0 0 0-.422.589q-.14.325-.14.642m7.98-4.659V0h2.268v2.232zm.07 9.774V3.56h2.127v8.446zm4.307 0V3.56h2.03l.053.958q.158-.177.387-.378.228-.202.545-.37.315-.166.712-.272.395-.114.896-.114 1.583 0 2.408.949.835.94.835 2.54v5.133H79.4V6.89q0-.81-.44-1.248-.438-.44-1.142-.44-.43 0-.808.176-.378.167-.65.475-.273.298-.431.711-.15.405-.15.87v4.57zm-72.492 20V20h2.285l5.818 8.534V20h2.215v12.006H9.255l-5.871-8.64v8.64zm12.076-2.47q0-.72.273-1.283.272-.57.755-.958a3.3 3.3 0 0 1 1.17-.58q.684-.202 1.511-.202a20 20 0 0 1 1.151.035q.326.018.668.044v-.202q0-.633-.51-.994-.5-.36-1.309-.36-.897 0-1.441.237a7 7 0 0 0-.95.501l-.975-1.432q.255-.175.58-.37.325-.192.756-.342.43-.158.993-.255.57-.096 1.327-.097.81 0 1.468.229.66.219 1.125.624t.72.975q.256.563.256 1.23v5.67h-1.987l-.053-.791q-.342.413-1.046.738-.703.325-1.564.325-.518 0-1.037-.167-.51-.158-.932-.492a2.5 2.5 0 0 1-.685-.852q-.264-.528-.264-1.23m2.04-.088q0 .537.386.844.387.308 1.143.308.377 0 .729-.123t.615-.343a1.9 1.9 0 0 0 .44-.501q.175-.291.175-.615v-.827l-.632-.035a14 14 0 0 0-1.002-.035q-1.029 0-1.442.404-.413.405-.413.923m6.617-5.888h2.453l2.267 6.055 2.268-6.055h2.32l-3.56 8.446h-2.162zm10.468-1.328V20h2.268v2.232zm.07 9.774V23.56h2.127v8.446zm7.163-4.07q0-.993.282-1.73.29-.748.72-1.275a3.8 3.8 0 0 1 .792-.721q.439-.29.878-.475.44-.194.853-.272.413-.08.72-.08.414 0 .686.027t.484.07q.22.044.395.123l.413.159V20h2.11v12.006h-2.057l-.053-.826a4 4 0 0 1-.395.378 3 3 0 0 1-.545.36q-.317.157-.703.264a3 3 0 0 1-.87.114 3.4 3.4 0 0 1-1.354-.29 3.65 3.65 0 0 1-1.195-.844 4.5 4.5 0 0 1-.844-1.371q-.317-.808-.317-1.855m2.136 0q0 1.082.536 1.802.545.72 1.574.721.536 0 .914-.202.387-.211.615-.536.237-.325.343-.712.105-.387.105-.747v-2.593a1.7 1.7 0 0 0-.712-.352 4.5 4.5 0 0 0-1.028-.096q-.633 0-1.046.246-.413.237-.72.633a2.9 2.9 0 0 0-.431.843q-.15.476-.15.993m8.297-5.704V20h2.268v2.232zm.07 9.774V23.56h2.127v8.446zm3.912-4.228q-.001-.914.334-1.731.334-.825.922-1.433.598-.615 1.433-.975a4.6 4.6 0 0 1 1.846-.36q1.028 0 1.872.369a4.4 4.4 0 0 1 1.441.993l-1.353 1.37a2.6 2.6 0 0 0-.844-.64 2.5 2.5 0 0 0-1.116-.238q-.615 0-1.064.228-.449.22-.747.58t-.448.844q-.14.484-.14.993 0 .484.14.958.15.465.448.844.3.378.747.615.45.23 1.064.229a2.65 2.65 0 0 0 2.03-.905l1.266 1.37a4.6 4.6 0 0 1-1.407 1.011q-.809.378-1.89.378t-1.933-.325a4 4 0 0 1-1.424-.914 4.1 4.1 0 0 1-.879-1.424 5.4 5.4 0 0 1-.298-1.837m9.255 4.228V20h2.083v4.43q.324-.36.949-.703.624-.343 1.59-.343.774 0 1.38.255.615.246 1.02.712.413.456.624 1.107.22.642.22 1.415v5.133h-2.127V26.89q0-.81-.44-1.248-.44-.44-1.142-.44-.43 0-.809.176-.378.167-.65.474-.273.3-.431.712-.15.405-.15.87v4.57zm13.166 0V23.56h2.03l.053.958q.158-.177.386-.378a2.8 2.8 0 0 1 .545-.37q.316-.166.712-.272.396-.114.896-.114 1.583 0 2.409.949.834.94.835 2.54v5.133h-2.127V26.89q0-.81-.44-1.248-.44-.44-1.142-.44-.43 0-.809.176-.378.167-.65.474-.273.3-.43.712-.15.405-.15.87v4.57zm9.931-9.774V20h2.268v2.232zm.07 9.774V23.56h2.127v8.446zm3.912-4.228q-.001-.914.334-1.731.333-.825.922-1.433.598-.615 1.433-.975a4.6 4.6 0 0 1 1.846-.36q1.028 0 1.872.369a4.4 4.4 0 0 1 1.441.993l-1.353 1.37a2.6 2.6 0 0 0-.844-.64 2.5 2.5 0 0 0-1.116-.238q-.615 0-1.064.228-.449.22-.747.58t-.448.844q-.14.484-.14.993 0 .484.14.958.15.465.448.844.3.378.747.615.45.23 1.064.229a2.65 2.65 0 0 0 2.03-.905l1.266 1.37a4.6 4.6 0 0 1-1.407 1.011q-.808.378-1.89.378-1.08 0-1.933-.325a4 4 0 0 1-1.424-.914 4.1 4.1 0 0 1-.879-1.424 5.4 5.4 0 0 1-.298-1.837m9.254 4.228V20h2.083v4.43q.326-.36.95-.703t1.59-.343q.774 0 1.38.255.616.246 1.02.712.413.456.624 1.107.22.642.22 1.415v5.133h-2.127V26.89q0-.81-.44-1.248-.44-.44-1.142-.44-.43 0-.809.176-.378.167-.65.474a2.2 2.2 0 0 0-.431.712q-.15.405-.149.87v4.57zm9.194-6.715V23.56h1.441v-2.734h2.118v2.734h2.268v1.731h-2.268v3.691q0 .72.246 1.108.247.387.783.387.5 0 .8-.141.298-.15.571-.343l.896 1.31q-.633.518-1.248.747a3.8 3.8 0 0 1-1.362.228q-.774 0-1.318-.228a2.14 2.14 0 0 1-.871-.633 2.6 2.6 0 0 1-.474-1.002 5.6 5.6 0 0 1-.141-1.292v-3.832zM0 43.56h2.452l2.268 6.055 2.267-6.055h2.32l-3.559 8.446H3.586zm10.055 4.122q0-.933.307-1.732a4.3 4.3 0 0 1 .88-1.389q.57-.597 1.353-.94a4.3 4.3 0 0 1 1.74-.343q1.151 0 1.951.422.8.421 1.283 1.108.493.685.704 1.547.22.861.22 1.766v.299H12.19q0 .466.211.852.211.379.537.65.333.265.755.414.431.14.844.14.615 0 1.072-.114.457-.123.774-.272a2.9 2.9 0 0 0 .852-.607l1.152 1.301-.3.299a3.5 3.5 0 0 1-.702.51q-.457.272-1.17.483-.712.22-1.695.22a4.8 4.8 0 0 1-1.837-.343 4.2 4.2 0 0 1-1.415-.94 4.1 4.1 0 0 1-.906-1.45 5.5 5.5 0 0 1-.307-1.881m2.118-.791h4.14q0-.325-.123-.642a1.8 1.8 0 0 0-.37-.589 1.9 1.9 0 0 0-.624-.43 2 2 0 0 0-.861-.176q-.519 0-.923.175-.405.168-.677.431a2 2 0 0 0-.421.589q-.141.325-.141.642m7.963 5.115V43.56h2.03l.053 1.063q.14-.175.369-.387.227-.22.536-.395.307-.185.712-.317.405-.131.923-.123.307 0 .545.035.245.036.5.124l-.43 2.003a2 2 0 0 0-.448-.123 2.7 2.7 0 0 0-.528-.043q-.43 0-.826.149a1.9 1.9 0 0 0-.685.413 2.1 2.1 0 0 0-.466.65 2.1 2.1 0 0 0-.167.844v4.553zm6.46-1.029 1.274-1.38q.396.396.993.66.607.255 1.38.255.685 0 1.099-.176.413-.184.413-.598a.76.76 0 0 0-.07-.325q-.07-.158-.308-.299a3 3 0 0 0-.642-.29 10 10 0 0 0-1.116-.307 7 7 0 0 1-.905-.29q-.465-.184-.87-.493a2.8 2.8 0 0 1-.668-.756q-.255-.447-.255-1.054 0-.633.299-1.125.307-.502.8-.826a4 4 0 0 1 1.116-.51 4.4 4.4 0 0 1 1.257-.185q1.116 0 1.898.238a4.5 4.5 0 0 1 1.415.694l-1.099 1.494a3.5 3.5 0 0 0-.905-.457q-.554-.21-1.31-.21-.755 0-1.054.228t-.299.545q0 .394.492.624.501.228 1.547.474a6.3 6.3 0 0 1 1.16.36q.51.22.88.545.368.325.562.765.202.44.202 1.055 0 .616-.29 1.107a2.5 2.5 0 0 1-.782.835 3.8 3.8 0 0 1-1.152.527q-.66.194-1.397.194-1.187 0-2.145-.334-.95-.334-1.52-.985m8.288-5.686V43.56h1.441v-2.734h2.118v2.734h2.268v1.731h-2.268v3.691q0 .72.247 1.108.245.387.782.387.5 0 .8-.141.3-.15.57-.343l.897 1.31q-.633.518-1.248.747a3.8 3.8 0 0 1-1.362.228q-.773 0-1.319-.228a2.14 2.14 0 0 1-.87-.633 2.6 2.6 0 0 1-.474-1.002 5.6 5.6 0 0 1-.14-1.292v-3.832zm7.567 2.39q0-.931.308-1.73a4.3 4.3 0 0 1 .879-1.39q.57-.597 1.353-.94a4.3 4.3 0 0 1 1.74-.343q1.151 0 1.952.422.799.421 1.283 1.108.492.685.703 1.547.22.861.22 1.766v.299h-6.302q0 .466.21.852.212.379.537.65.334.265.756.414.43.14.844.14.615 0 1.072-.114.456-.123.773-.272a2.9 2.9 0 0 0 .853-.607l1.151 1.301-.299.299a3.5 3.5 0 0 1-.703.51q-.456.272-1.169.483-.712.22-1.696.22a4.8 4.8 0 0 1-1.837-.343 4.2 4.2 0 0 1-1.415-.94 4.1 4.1 0 0 1-.905-1.45 5.5 5.5 0 0 1-.308-1.881m2.118-.79h4.14q0-.325-.123-.642a1.8 1.8 0 0 0-.37-.589 1.9 1.9 0 0 0-.623-.43 2 2 0 0 0-.862-.176q-.518 0-.922.175-.404.168-.677.431a2 2 0 0 0-.422.589q-.14.325-.14.642m7.963 5.115V40h2.083v4.43q.325-.36.95-.703.624-.343 1.59-.343.774 0 1.38.255.615.246 1.02.712.412.456.624 1.107.22.642.22 1.415v5.133h-2.127V46.89q0-.81-.44-1.248-.44-.44-1.142-.44-.431 0-.81.176-.377.167-.65.474-.272.3-.43.712-.15.405-.15.87v4.57zm9.194-6.715V43.56h1.441v-2.734h2.118v2.734h2.268v1.731h-2.268v3.691q0 .72.246 1.108.246.387.782.387.501 0 .8-.141.3-.15.572-.343l.896 1.31q-.633.518-1.248.747a3.8 3.8 0 0 1-1.362.228q-.774 0-1.319-.228a2.14 2.14 0 0 1-.87-.633 2.6 2.6 0 0 1-.474-1.002 5.6 5.6 0 0 1-.141-1.292v-3.832zm8.138 6.715v-2.487h2.575v2.487zm5.028 0v-2.487h2.575v2.487zm5.027 0v-2.487h2.575v2.487z"/></svg>