<svg xmlns="http://www.w3.org/2000/svg" fill="none" viewBox="0 0 132 53"><path fill="#fff" d="M.176 13.298.57 9.5h2.435l-1.222 3.797zm3.471 0L4.043 9.5h2.435l-1.222 3.797zm5.107-1.292V0h2.268v4.93L15.468 0h2.575l-4.43 4.913 4.913 7.093h-2.733l-3.656-5.458-1.117 1.248v4.21zm10.424-2.47q0-.72.272-1.283.273-.57.756-.958a3.3 3.3 0 0 1 1.169-.58 5.3 5.3 0 0 1 1.512-.202 20 20 0 0 1 1.151.035q.326.017.668.044V6.39q0-.633-.51-.994-.5-.36-1.31-.36-.896 0-1.44.237a7 7 0 0 0-.95.501l-.976-1.432q.256-.175.58-.37.326-.193.756-.342.432-.158.994-.255a8 8 0 0 1 1.327-.097q.808 0 1.468.229.659.219 1.125.624t.72.975q.255.563.255 1.23v5.67H24.76l-.053-.791q-.343.413-1.046.738t-1.564.325q-.52 0-1.037-.167-.51-.158-.932-.492a2.5 2.5 0 0 1-.686-.852q-.263-.528-.263-1.23m2.039-.088q0 .537.387.844.386.308 1.142.308.378 0 .73-.123.351-.123.615-.343.272-.22.44-.501.175-.291.175-.615V8.19l-.633-.035a14 14 0 0 0-1.002-.035q-1.028 0-1.441.404-.413.405-.413.923m7.576 2.558V3.56h2.03l.053.958q.158-.177.387-.378.228-.202.545-.37.316-.166.712-.272.395-.114.896-.114 1.582 0 2.408.949.835.94.835 2.54v5.133h-2.127V6.89q0-.81-.44-1.248-.438-.44-1.142-.44-.43 0-.808.176-.379.167-.65.475-.273.298-.431.711-.15.405-.15.87v4.57zm9.914 0V3.56h2.03l.053.958q.157-.177.387-.378.228-.202.545-.37.316-.166.712-.272.395-.114.896-.114 1.583 0 2.408.949.835.94.835 2.54v5.133h-2.127V6.89q0-.81-.44-1.248-.438-.44-1.142-.44-.43 0-.808.176-.379.167-.65.475-.273.298-.431.711-.15.405-.15.87v4.57zM.087 23.814l.396-3.796h2.435l-1.23 3.796zm4.73 8.192V20h2.082v4.43q.326-.36.95-.703t1.59-.343q.774 0 1.38.255.615.246 1.02.712.412.456.624 1.107.22.642.22 1.415v5.133h-2.127V26.89q0-.81-.44-1.248-.44-.44-1.142-.44-.43 0-.809.176-.378.167-.65.474-.273.3-.431.712-.15.405-.15.87v4.57zm9.878-3.314V23.56h2.119v5.115q0 .808.439 1.257.449.44 1.151.44.43 0 .809-.168.378-.175.642-.483.272-.308.421-.712.159-.405.159-.87v-4.58h2.127v8.447h-2.04l-.052-.958a4 4 0 0 1-.396.378 3.011 3.011 0 0 1-1.24.65q-.394.106-.904.106-1.583 0-2.408-.94-.827-.95-.827-2.55m9.536 2.285 1.275-1.38q.396.396.993.66.606.255 1.38.255.686 0 1.098-.176.414-.184.414-.598a.75.75 0 0 0-.07-.325q-.071-.158-.308-.299a3 3 0 0 0-.642-.29 10 10 0 0 0-1.116-.307 7 7 0 0 1-.905-.29q-.466-.185-.87-.493a2.8 2.8 0 0 1-.669-.756q-.255-.447-.254-1.054 0-.633.299-1.125.306-.502.8-.826a4 4 0 0 1 1.116-.51 4.4 4.4 0 0 1 1.256-.185q1.117 0 1.899.238a4.5 4.5 0 0 1 1.415.694l-1.099 1.494a3.5 3.5 0 0 0-.905-.457q-.555-.21-1.31-.21-.756 0-1.054.228-.3.228-.3.545 0 .395.493.624.501.228 1.547.474.65.141 1.16.36.51.22.879.546.369.324.562.764.203.44.203 1.055 0 .616-.29 1.107a2.5 2.5 0 0 1-.783.835 3.8 3.8 0 0 1-1.151.527 5 5 0 0 1-1.398.194q-1.185 0-2.144-.334-.95-.334-1.52-.985m8.289-5.686V23.56h1.44v-2.734h2.12v2.734h2.267v1.731h-2.268v3.691q0 .72.246 1.108.246.387.782.387.501 0 .8-.141.3-.15.572-.343l.896 1.31q-.633.518-1.248.747a3.8 3.8 0 0 1-1.362.228q-.773 0-1.319-.228a2.14 2.14 0 0 1-.87-.633 2.6 2.6 0 0 1-.474-1.002 5.6 5.6 0 0 1-.141-1.292v-3.832zm8.103 9.29 1.134-2.575h-.914V29.5h2.575v2.47l-1.53 2.61zm8.139-2.575V20h2.083v4.43q.325-.36.949-.703t1.59-.343q.774 0 1.38.255.615.246 1.02.712.414.456.624 1.107.22.642.22 1.415v5.133H54.5V26.89q0-.81-.44-1.248-.438-.44-1.142-.44-.43 0-.809.176-.378.167-.65.474-.273.3-.43.712-.15.405-.15.87v4.57zm9.879-3.314V23.56h2.118v5.115q0 .808.44 1.257.448.44 1.15.44.431 0 .81-.168.377-.175.64-.483.273-.308.423-.712.158-.405.158-.87v-4.58h2.127v8.447h-2.04l-.052-.958a4 4 0 0 1-.396.378 3.011 3.011 0 0 1-1.24.65q-.394.106-.904.106-1.582 0-2.408-.94-.826-.95-.826-2.55m9.536 2.285 1.274-1.38q.396.396.993.66.607.255 1.38.255.685 0 1.099-.176.413-.184.413-.598a.75.75 0 0 0-.07-.325q-.07-.158-.308-.299a3 3 0 0 0-.642-.29 10 10 0 0 0-1.116-.307 7 7 0 0 1-.905-.29q-.465-.185-.87-.493a2.8 2.8 0 0 1-.668-.756q-.255-.447-.255-1.054 0-.633.299-1.125.307-.502.8-.826a4 4 0 0 1 1.116-.51 4.4 4.4 0 0 1 1.257-.185q1.116 0 1.898.238a4.5 4.5 0 0 1 1.415.694l-1.099 1.494a3.5 3.5 0 0 0-.905-.457q-.553-.21-1.31-.21-.755 0-1.054.228t-.299.545q0 .395.492.624.501.228 1.547.474.65.141 1.16.36.51.22.88.546.368.324.562.764.202.44.202 1.055 0 .616-.29 1.107a2.5 2.5 0 0 1-.782.835 3.8 3.8 0 0 1-1.152.527q-.66.194-1.397.194-1.186 0-2.145-.334-.95-.334-1.52-.985m8.288-5.686V23.56h1.441v-2.734h2.118v2.734h2.268v1.731h-2.268v3.691q0 .72.246 1.108.247.387.783.387.5 0 .8-.141.3-.15.57-.343l.897 1.31q-.633.518-1.248.747a3.8 3.8 0 0 1-1.362.228q-.774 0-1.318-.228a2.14 2.14 0 0 1-.87-.633 2.6 2.6 0 0 1-.475-1.002 5.6 5.6 0 0 1-.14-1.292v-3.832zm8.103 9.29 1.134-2.575h-.914V29.5h2.575v2.47l-1.529 2.61zm8.139-2.575V20h2.083v4.43q.325-.36.95-.703.623-.343 1.59-.343.774 0 1.38.255.615.246 1.02.712.413.456.624 1.107.219.642.219 1.415v5.133h-2.127V26.89q0-.81-.44-1.248-.438-.44-1.142-.44-.43 0-.808.176-.379.167-.65.474-.273.3-.431.712-.15.405-.15.87v4.57zm9.879-3.314V23.56h2.118v5.115q0 .808.44 1.257.447.44 1.151.44.43 0 .809-.168.377-.175.641-.483.273-.308.422-.712.158-.405.158-.87v-4.58h2.127v8.447h-2.039l-.053-.958a4 4 0 0 1-.395.378q-.237.202-.545.378a3 3 0 0 1-.694.272q-.396.106-.906.106-1.581 0-2.408-.94-.826-.95-.826-2.55m9.536 2.285 1.274-1.38q.396.396.994.66.606.255 1.38.255.686 0 1.098-.176.413-.184.413-.598a.75.75 0 0 0-.07-.325q-.07-.158-.308-.299a3 3 0 0 0-.641-.29 10 10 0 0 0-1.116-.307 7 7 0 0 1-.906-.29q-.465-.185-.87-.493a2.8 2.8 0 0 1-.668-.756q-.255-.447-.255-1.054 0-.633.299-1.125.308-.502.8-.826a4 4 0 0 1 1.116-.51 4.4 4.4 0 0 1 1.257-.185q1.116 0 1.898.238.783.228 1.415.694l-1.098 1.494a3.5 3.5 0 0 0-.905-.457q-.554-.21-1.31-.21t-1.055.228q-.299.228-.299.545 0 .395.493.624.5.228 1.546.474a6.3 6.3 0 0 1 1.161.36q.509.22.879.546.369.324.562.764.202.44.202 1.055 0 .616-.29 1.107a2.5 2.5 0 0 1-.782.835 3.8 3.8 0 0 1-1.151.527q-.66.194-1.398.194-1.187 0-2.144-.334-.95-.334-1.521-.985m8.288-5.686V23.56h1.442v-2.734h2.118v2.734h2.267v1.731h-2.267v3.691q0 .72.246 1.108.246.387.782.387.501 0 .8-.141.299-.15.571-.343l.897 1.31q-.633.518-1.248.747a3.9 3.9 0 0 1-1.363.228q-.773 0-1.318-.228a2.1 2.1 0 0 1-.87-.633 2.6 2.6 0 0 1-.475-1.002 5.6 5.6 0 0 1-.14-1.292v-3.832zm8.051-1.477.395-3.796h2.435l-1.23 3.796zM0 52.007V43.56h2.03l.053.958q.157-.177.387-.378a2.8 2.8 0 0 1 .545-.37q.315-.166.712-.272.395-.114.896-.114 1.582 0 2.408.949.835.94.835 2.54v5.133H5.74V46.89q0-.81-.44-1.248-.438-.44-1.142-.44-.43 0-.808.176-.379.167-.65.474-.273.3-.431.712-.15.405-.15.87v4.57zm9.932-9.774V40h2.267v2.232zm.07 9.774V43.56h2.127v8.446zm3.911-4.228q0-.914.334-1.731.334-.825.923-1.433.597-.615 1.432-.975a4.6 4.6 0 0 1 1.846-.36q1.029 0 1.872.368a4.4 4.4 0 0 1 1.442.994l-1.354 1.37a2.6 2.6 0 0 0-.844-.64 2.5 2.5 0 0 0-1.116-.238q-.615 0-1.063.228-.45.22-.747.58-.3.36-.449.844-.14.484-.14.993 0 .484.14.958.15.465.449.844t.747.615q.448.23 1.063.229a2.65 2.65 0 0 0 2.03-.905l1.266 1.37a4.6 4.6 0 0 1-1.406 1.011q-.81.378-1.89.378t-1.933-.325a4 4 0 0 1-1.424-.914 4.1 4.1 0 0 1-.88-1.424 5.4 5.4 0 0 1-.298-1.837m9.255 4.228V40h2.083v4.43q.325-.36.95-.703.622-.343 1.59-.343.774 0 1.38.255.615.246 1.02.712.412.456.624 1.107.22.642.22 1.415v5.133h-2.128V46.89q0-.81-.44-1.248-.438-.44-1.142-.44-.43 0-.808.176-.379.167-.65.474-.273.3-.431.712-.15.405-.15.87v4.57zm9.193-6.715V43.56h1.442v-2.734h2.118v2.734h2.267v1.731h-2.267v3.691q0 .72.246 1.108.246.387.782.387.5 0 .8-.141.3-.15.571-.343l.897 1.31q-.633.518-1.248.747a3.8 3.8 0 0 1-1.363.228q-.773 0-1.318-.228a2.14 2.14 0 0 1-.87-.633 2.6 2.6 0 0 1-.475-1.002 5.6 5.6 0 0 1-.14-1.292v-3.832zm10.407 0V43.56H44.2v-.088q0-1.1.352-1.828a3.15 3.15 0 0 1 .931-1.17 3.6 3.6 0 0 1 1.354-.615 7 7 0 0 1 1.617-.184q.325 0 .73.053.404.052.835.166.43.106.87.282.44.167.817.404l-.879 1.6q-.413-.255-1.08-.466a4.2 4.2 0 0 0-1.31-.22q-1.117 0-1.626.378-.501.378-.501 1.24v.448h5.255v8.446H49.44V45.29h-3.112v6.715H44.2V45.29zm10.986 6.715V43.56h2.03l.053.958q.157-.177.387-.378a2.8 2.8 0 0 1 .545-.37 3.4 3.4 0 0 1 .712-.272q.395-.114.896-.114 1.582 0 2.408.949.835.94.835 2.54v5.133h-2.127V46.89q0-.81-.44-1.248-.438-.44-1.142-.44-.43 0-.809.176-.377.167-.65.474-.272.3-.43.712-.15.405-.15.87v4.57zm9.519-4.07q0-.993.28-1.73.29-.749.721-1.275a3.8 3.8 0 0 1 .791-.721q.44-.29.88-.475.439-.194.852-.272.413-.08.72-.08.414 0 .686.027t.483.07q.22.044.396.123l.413.159V40h2.11v12.006h-2.057l-.053-.826a4 4 0 0 1-.395.378 3 3 0 0 1-.545.36q-.317.157-.703.264a3 3 0 0 1-.87.114 3.4 3.4 0 0 1-1.354-.29 3.65 3.65 0 0 1-1.195-.844 4.4 4.4 0 0 1-.844-1.371q-.316-.809-.316-1.854m2.135 0q0 1.082.536 1.802.546.72 1.574.721.536 0 .914-.202.386-.211.615-.536.237-.325.343-.712.105-.387.105-.747v-2.593a1.7 1.7 0 0 0-.712-.352 4.5 4.5 0 0 0-1.028-.096q-.632 0-1.046.246-.413.237-.72.633-.273.36-.431.843-.15.475-.15.994m7.884-.254q0-.933.308-1.732a4.3 4.3 0 0 1 .879-1.389q.57-.597 1.353-.94a4.3 4.3 0 0 1 1.74-.343q1.152 0 1.951.422.8.421 1.284 1.108.492.685.703 1.547.22.861.22 1.766v.299h-6.302q0 .466.21.852.212.379.537.65.333.265.756.414.43.14.843.14.615 0 1.073-.114.456-.123.773-.272a2.9 2.9 0 0 0 .853-.607l1.151 1.301-.299.299a3.5 3.5 0 0 1-.703.51q-.457.272-1.169.483-.712.22-1.696.22a4.8 4.8 0 0 1-1.837-.343 4.2 4.2 0 0 1-1.415-.94 4.1 4.1 0 0 1-.905-1.45 5.5 5.5 0 0 1-.308-1.881m2.118-.791h4.14q0-.325-.123-.642a1.8 1.8 0 0 0-.37-.589 1.9 1.9 0 0 0-.623-.43 2 2 0 0 0-.862-.176q-.518 0-.923.175-.405.168-.676.431a2 2 0 0 0-.422.589q-.14.325-.14.642m7.963 5.115V43.56h2.03l.053.958q.157-.177.387-.378a2.8 2.8 0 0 1 .545-.37 3.4 3.4 0 0 1 .712-.272q.395-.114.896-.114 1.583 0 2.408.949.835.94.835 2.54v5.133h-2.127V46.89q0-.81-.44-1.248-.438-.44-1.142-.44-.43 0-.808.176-.379.167-.65.474-.273.3-.431.712-.15.405-.15.87v4.57zm10.09 0v-2.487h2.575v2.487zm4.94-8.191.395-3.797h2.434l-1.23 3.797zm3.418 0 .396-3.797h2.434l-1.23 3.797z"/></svg>