<svg xmlns="http://www.w3.org/2000/svg" fill="none" viewBox="0 0 114 53"><path fill="#fff" d="m17.877 13.298.396-3.797h2.434l-1.222 3.797zm3.472 0 .395-3.797h2.435l-1.222 3.797zm5.106-1.292V0h7.76v1.995h-5.492v3.12h4.104v2.013h-4.104v4.878zm9.422-9.774V0h2.267v2.232zm.07 9.774V3.56h2.127v8.446zm4.307 0V3.56h2.03l.053.958q.157-.177.387-.378.228-.202.545-.37.316-.166.712-.272.395-.114.896-.114 1.582 0 2.408.949.835.94.835 2.54v5.133h-2.127V6.89q0-.81-.44-1.248-.438-.44-1.142-.44-.43 0-.809.176-.377.167-.65.475-.272.298-.43.711-.15.405-.15.87v4.57zm9.519-4.07q0-.993.28-1.73a4.7 4.7 0 0 1 .721-1.275 3.8 3.8 0 0 1 .791-.721q.44-.29.88-.475.439-.194.852-.272a4 4 0 0 1 .72-.08q.414 0 .686.027t.483.07q.22.044.396.124l.413.158V0h2.11v12.006h-2.057l-.053-.826a4 4 0 0 1-.395.378 3 3 0 0 1-.545.36q-.317.158-.703.264a3 3 0 0 1-.87.114 3.4 3.4 0 0 1-1.354-.29 3.65 3.65 0 0 1-1.195-.844 4.5 4.5 0 0 1-.844-1.371q-.316-.809-.316-1.854m2.135 0q0 1.082.536 1.802.545.72 1.574.721.536 0 .914-.202.386-.211.615-.536.237-.325.343-.712.105-.387.105-.747V5.669a1.7 1.7 0 0 0-.712-.352 4.5 4.5 0 0 0-1.028-.096q-.632 0-1.046.246-.413.237-.72.633-.273.36-.431.843-.15.475-.15.994m7.884-.254q0-.932.308-1.732.315-.8.878-1.388.571-.598 1.354-.94a4.3 4.3 0 0 1 1.74-.344q1.152 0 1.951.422.8.421 1.284 1.108.492.685.703 1.546.22.862.22 1.767v.299h-6.302q0 .466.21.852.212.379.537.65.334.265.756.414.43.14.843.14.615 0 1.073-.114.456-.123.773-.272a2.9 2.9 0 0 0 .853-.607l1.151 1.301-.299.299a3.5 3.5 0 0 1-.703.51q-.457.271-1.169.483-.712.22-1.696.22a4.8 4.8 0 0 1-1.837-.343 4.2 4.2 0 0 1-1.415-.94 4.1 4.1 0 0 1-.905-1.45 5.5 5.5 0 0 1-.308-1.881m2.118-.791h4.14q0-.325-.123-.642a1.8 1.8 0 0 0-.37-.589 1.9 1.9 0 0 0-.623-.43 2 2 0 0 0-.862-.176q-.518 0-.923.175-.405.168-.676.431a2 2 0 0 0-.422.589q-.14.325-.14.642m10.82 1.046q0-.994.28-1.732a4.7 4.7 0 0 1 .721-1.274q.36-.431.791-.721a5.4 5.4 0 0 1 .88-.475 4 4 0 0 1 .852-.272 4 4 0 0 1 .72-.08q.413 0 .686.027t.484.07q.22.044.395.124l.413.158V0h2.11v12.006h-2.057l-.053-.826a4 4 0 0 1-.395.378 3 3 0 0 1-.545.36q-.317.158-.703.264a3 3 0 0 1-.87.114 3.4 3.4 0 0 1-1.354-.29 3.65 3.65 0 0 1-1.195-.844 4.5 4.5 0 0 1-.844-1.371q-.317-.809-.317-1.854m2.135 0q0 1.08.536 1.801.546.72 1.574.721.536 0 .914-.202.387-.211.615-.536.237-.325.343-.712.105-.387.105-.747V5.669a1.7 1.7 0 0 0-.712-.352 4.5 4.5 0 0 0-1.028-.096q-.632 0-1.046.246-.413.237-.72.633-.273.36-.431.843-.15.475-.15.994m8.297-5.705V0h2.268v2.232zm.07 9.774V3.56h2.127v8.446zm3.912-4.324q0-.932.307-1.732.316-.8.88-1.388a4.2 4.2 0 0 1 1.353-.94 4.3 4.3 0 0 1 1.74-.344q1.151 0 1.951.422.799.421 1.283 1.108.493.685.703 1.546.22.862.22 1.767v.299H89.28q0 .466.211.852.211.379.536.65.334.265.756.414.431.14.844.14.615 0 1.072-.114a4.7 4.7 0 0 0 .774-.272 2.9 2.9 0 0 0 .852-.607l1.152 1.301-.3.299a3.5 3.5 0 0 1-.702.51q-.457.271-1.17.483-.712.22-1.696.22a4.8 4.8 0 0 1-1.837-.343 4.2 4.2 0 0 1-1.415-.94 4.1 4.1 0 0 1-.905-1.45 5.5 5.5 0 0 1-.307-1.881m2.118-.791h4.14q0-.325-.124-.642a1.8 1.8 0 0 0-.369-.589 1.9 1.9 0 0 0-.624-.43 2 2 0 0 0-.861-.176q-.52 0-.923.175-.404.168-.677.431a2 2 0 0 0-.422.589q-.14.325-.14.642M14.959 30.978l1.274-1.38q.396.395.994.659.606.255 1.38.255.686 0 1.098-.176.414-.184.413-.598a.76.76 0 0 0-.07-.325q-.07-.158-.308-.299a3 3 0 0 0-.641-.29 10 10 0 0 0-1.117-.307 7 7 0 0 1-.905-.29q-.465-.185-.87-.493a2.8 2.8 0 0 1-.668-.756q-.255-.447-.255-1.054 0-.633.299-1.125.308-.502.8-.826a4 4 0 0 1 1.116-.51 4.4 4.4 0 0 1 1.257-.185q1.116 0 1.898.238.783.228 1.415.694l-1.098 1.494a3.5 3.5 0 0 0-.906-.457q-.553-.21-1.31-.21-.755 0-1.054.228t-.299.545q0 .395.492.624.502.228 1.547.474a6.3 6.3 0 0 1 1.16.36q.51.22.88.546.369.324.562.764.202.44.202 1.055 0 .616-.29 1.107a2.5 2.5 0 0 1-.782.835 3.8 3.8 0 0 1-1.151.527q-.66.194-1.398.194-1.187 0-2.144-.334-.95-.334-1.521-.985m8.613-3.2q0-.914.334-1.731.334-.825.923-1.433.597-.615 1.433-.975a4.6 4.6 0 0 1 1.845-.36q1.029 0 1.873.369a4.4 4.4 0 0 1 1.44.993l-1.353 1.37a2.6 2.6 0 0 0-.843-.64 2.5 2.5 0 0 0-1.117-.238q-.615 0-1.063.228-.449.22-.747.58-.3.36-.448.844-.141.484-.141.993 0 .484.14.958.15.465.449.844t.747.615q.448.23 1.063.229a2.65 2.65 0 0 0 2.03-.905l1.266 1.37a4.6 4.6 0 0 1-1.406 1.011q-.809.378-1.89.378t-1.933-.325a4 4 0 0 1-1.424-.914 4.1 4.1 0 0 1-.879-1.424 5.4 5.4 0 0 1-.299-1.837m9.255 4.228V20h2.083v4.43q.325-.36.95-.703.623-.343 1.59-.343.774 0 1.38.255.615.246 1.02.712.413.456.624 1.107.22.642.22 1.415v5.133h-2.128V26.89q0-.81-.439-1.248-.44-.44-1.143-.44-.43 0-.808.176-.378.167-.65.474-.273.3-.431.712-.15.405-.15.87v4.57zm9.914 0V23.56h2.03l.053.958q.159-.177.387-.378a2.8 2.8 0 0 1 .545-.37 3.4 3.4 0 0 1 .712-.272q.395-.114.896-.114 1.582 0 2.409.949.834.94.834 2.54v5.133h-2.126V26.89q0-.81-.44-1.248-.44-.44-1.143-.44-.43 0-.808.176-.378.167-.65.474-.273.3-.431.712-.15.405-.15.87v4.57zm9.519-4.324q0-.932.307-1.732a4.3 4.3 0 0 1 .88-1.389 4.2 4.2 0 0 1 1.353-.94 4.3 4.3 0 0 1 1.74-.343q1.152 0 1.951.422.8.421 1.283 1.108.493.685.703 1.547.22.861.22 1.766v.299h-6.302q0 .466.211.852.211.379.537.65.333.265.755.414.431.14.844.14.615 0 1.073-.114.456-.123.773-.272a2.9 2.9 0 0 0 .852-.607l1.152 1.301-.299.299a3.5 3.5 0 0 1-.703.51q-.457.272-1.17.483-.712.22-1.695.22a4.8 4.8 0 0 1-1.837-.343 4.2 4.2 0 0 1-1.415-.94 4.1 4.1 0 0 1-.906-1.45 5.5 5.5 0 0 1-.307-1.881m2.118-.791h4.14q0-.325-.123-.642a1.8 1.8 0 0 0-.37-.589 1.9 1.9 0 0 0-.624-.43 2 2 0 0 0-.861-.176q-.518 0-.923.176-.404.166-.677.43a2 2 0 0 0-.421.589q-.141.325-.141.642m7.963 5.115V20h2.118v12.006zm4.219 0V20h2.118v12.006zm3.805-1.029 1.275-1.38q.394.396.993.66.606.255 1.38.255.685 0 1.098-.176.413-.184.413-.598a.75.75 0 0 0-.07-.325q-.071-.158-.307-.299a3 3 0 0 0-.642-.29 10 10 0 0 0-1.116-.307 7 7 0 0 1-.906-.29q-.465-.185-.87-.493a2.8 2.8 0 0 1-.668-.756q-.255-.447-.255-1.054 0-.633.3-1.125.306-.502.8-.826a4 4 0 0 1 1.115-.51 4.4 4.4 0 0 1 1.257-.185q1.116 0 1.898.238a4.5 4.5 0 0 1 1.416.694l-1.099 1.494a3.5 3.5 0 0 0-.905-.457q-.555-.21-1.31-.21-.756 0-1.055.228t-.298.545q0 .395.492.624.501.228 1.547.474.65.141 1.16.36.51.22.879.546.369.324.562.764.202.44.202 1.055 0 .616-.29 1.107a2.5 2.5 0 0 1-.782.835 3.8 3.8 0 0 1-1.151.527 5 5 0 0 1-1.398.194q-1.186 0-2.144-.334-.95-.334-1.52-.985m8.288-5.686V23.56h1.442v-2.734h2.118v2.734h2.268v1.731h-2.268v3.691q0 .72.246 1.108.246.387.782.387.5 0 .8-.141.3-.15.571-.343l.897 1.31q-.633.518-1.248.747a3.8 3.8 0 0 1-1.363.228q-.773 0-1.318-.228a2.14 2.14 0 0 1-.87-.633 2.6 2.6 0 0 1-.475-1.002 5.6 5.6 0 0 1-.14-1.292v-3.832zm7.568 2.39q0-.931.307-1.73a4.3 4.3 0 0 1 .88-1.39q.57-.597 1.353-.94a4.3 4.3 0 0 1 1.74-.343q1.152 0 1.951.422.8.421 1.283 1.108.493.685.704 1.547.22.861.22 1.766v.299h-6.303q0 .466.211.852.212.379.537.65.333.265.755.414.432.14.844.14.615 0 1.072-.114.458-.123.774-.272a2.9 2.9 0 0 0 .852-.607l1.152 1.301-.3.299a3.5 3.5 0 0 1-.702.51q-.457.272-1.17.483-.712.22-1.695.22a4.8 4.8 0 0 1-1.837-.343 4.2 4.2 0 0 1-1.415-.94 4.1 4.1 0 0 1-.906-1.45 5.5 5.5 0 0 1-.307-1.881m2.118-.79h4.14q0-.325-.123-.642a1.8 1.8 0 0 0-.37-.589 1.9 1.9 0 0 0-.624-.43 2 2 0 0 0-.861-.176q-.519 0-.923.176-.404.166-.677.43a2 2 0 0 0-.421.589q-.141.325-.141.642M0 52.006V40h3.981q1.134 0 1.925.343.791.342 1.275.879.492.527.712 1.16.228.624.228 1.204 0 1.134-.5 2.004-.493.87-1.513 1.397l2.769 5.019H6.319l-2.425-4.737H2.18v4.737zm2.18-6.61h1.819q.861 0 1.336-.5.483-.502.483-1.222 0-.774-.51-1.257-.5-.492-1.309-.492h-1.82zm7.76 2.382q0-.914.334-1.731.334-.825.923-1.433.598-.615 1.433-.975a4.6 4.6 0 0 1 1.846-.36q1.01 0 1.845.36t1.424.975q.599.608.932 1.424.334.818.334 1.74a4.554 4.554 0 0 1-1.266 3.182q-.589.615-1.424.975a4.6 4.6 0 0 1-1.845.36q-1.011 0-1.846-.36a4.4 4.4 0 0 1-1.433-.975 4.6 4.6 0 0 1-1.257-3.182m2.136 0q0 .465.14.932.15.465.449.87.3.396.747.642.448.237 1.064.237.615 0 1.063-.237.449-.246.738-.642.3-.405.44-.87.15-.465.15-.932 0-.448-.15-.922a2.6 2.6 0 0 0-.44-.87 2.2 2.2 0 0 0-.747-.625q-.448-.246-1.054-.246-.615 0-1.064.246a2.3 2.3 0 0 0-.747.624q-.3.387-.448.87a3.2 3.2 0 0 0-.14.923m8.596.914V43.56h2.118v5.115q0 .809.44 1.257.447.44 1.15.44.432 0 .81-.168.377-.175.641-.483.273-.308.422-.712.158-.405.158-.87v-4.58h2.127v8.447H26.5l-.053-.958a4 4 0 0 1-.395.378q-.237.201-.545.378-.299.167-.695.272t-.905.106q-1.581 0-2.408-.94-.825-.95-.826-2.55m9.228-3.401V43.56h1.442v-2.734h2.118v2.734h2.267v1.731H33.46v3.691q0 .72.246 1.108.246.387.782.387.5 0 .8-.141.3-.15.571-.343l.897 1.31q-.633.518-1.248.747a3.8 3.8 0 0 1-1.363.228q-.773 0-1.318-.228a2.14 2.14 0 0 1-.87-.633 2.6 2.6 0 0 1-.475-1.002 5.6 5.6 0 0 1-.14-1.292v-3.832zm7.568 2.39q0-.931.307-1.73a4.3 4.3 0 0 1 .88-1.39q.57-.597 1.353-.94a4.3 4.3 0 0 1 1.74-.343q1.152 0 1.951.422.8.421 1.283 1.108.492.685.703 1.547.22.861.22 1.766v.299h-6.302q0 .466.212.852.21.379.536.65.333.265.755.414.432.14.844.14.616 0 1.072-.114.458-.123.774-.272a2.9 2.9 0 0 0 .852-.607l1.152 1.301-.299.299a3.5 3.5 0 0 1-.703.51q-.457.272-1.17.483-.712.22-1.695.22a4.8 4.8 0 0 1-1.837-.343 4.2 4.2 0 0 1-1.415-.94 4.1 4.1 0 0 1-.906-1.45 5.5 5.5 0 0 1-.307-1.881m2.118-.79h4.14q0-.325-.123-.642a1.8 1.8 0 0 0-.37-.589 1.9 1.9 0 0 0-.624-.43 2 2 0 0 0-.861-.176q-.518 0-.923.175-.405.168-.677.431a2 2 0 0 0-.421.589q-.141.325-.141.642M50.8 52.006V43.56h2.03l.053.958q.158-.177.386-.378.229-.202.545-.37.317-.166.712-.272.396-.114.897-.114 1.581 0 2.408.949.835.94.835 2.54v5.133H56.54V46.89q0-.81-.44-1.248-.438-.44-1.142-.44-.43 0-.809.176-.378.167-.65.474-.273.3-.43.712-.15.405-.15.87v4.57zm9.369-2.47q0-.72.272-1.283.273-.57.756-.958a3.3 3.3 0 0 1 1.17-.58q.685-.202 1.51-.202a20 20 0 0 1 1.152.035q.326.017.668.044v-.202q0-.633-.51-.993-.5-.36-1.31-.36-.895 0-1.44.236a7 7 0 0 0-.95.501l-.975-1.432q.255-.175.58-.37.325-.192.756-.342.43-.158.993-.255.57-.097 1.327-.097.808 0 1.468.229.66.219 1.125.624t.72.975q.255.563.255 1.23v5.67h-1.986l-.053-.791q-.342.413-1.046.738-.703.325-1.564.325-.518 0-1.037-.167-.51-.158-.932-.492a2.5 2.5 0 0 1-.685-.852q-.264-.528-.264-1.23m2.039-.088q0 .537.387.844.387.308 1.142.308.378 0 .73-.123t.615-.343a1.9 1.9 0 0 0 .44-.501q.175-.291.175-.615v-.827l-.633-.035a14 14 0 0 0-1.001-.035q-1.028 0-1.442.404-.413.405-.413.923m7.18-1.67q0-.914.335-1.731.333-.825.922-1.433.598-.615 1.433-.975a4.6 4.6 0 0 1 1.846-.36q1.028 0 1.872.368a4.4 4.4 0 0 1 1.441.994l-1.353 1.37a2.6 2.6 0 0 0-.844-.64 2.5 2.5 0 0 0-1.116-.238q-.615 0-1.064.228-.448.22-.747.58-.298.36-.448.844-.14.484-.14.993 0 .484.14.958.15.465.448.844.3.378.747.615.45.23 1.064.229a2.65 2.65 0 0 0 2.03-.905l1.266 1.37a4.6 4.6 0 0 1-1.407 1.011q-.808.378-1.89.378-1.08 0-1.933-.325a4 4 0 0 1-1.424-.914 4.1 4.1 0 0 1-.878-1.424 5.4 5.4 0 0 1-.3-1.837m9.255 4.228V40h2.084v4.43q.325-.36.949-.703t1.59-.343q.774 0 1.38.255.615.246 1.02.712.413.456.624 1.107.22.642.22 1.415v5.133h-2.127V46.89q0-.81-.44-1.248-.44-.44-1.142-.44-.43 0-.809.176-.378.167-.65.474-.273.3-.43.712-.15.405-.15.87v4.57zm13.342 0v-2.487h2.575v2.487zm5.028 0v-2.487h2.575v2.487zm5.027 0v-2.487h2.575v2.487zm4.939-8.191.396-3.797h2.435l-1.231 3.797zm3.419 0 .396-3.797h2.434l-1.23 3.797z"/></svg>