<svg xmlns="http://www.w3.org/2000/svg" fill="none" viewBox="0 0 108 37"><path fill="#fff" d="M.85 2.855.426.902C.986.515 2.07.148 3.306.148c2.475 0 3.635 1.508 3.635 3.21 0 1.333-.89 2.629-2.204 2.957v.039c1.527.31 2.59 1.47 2.59 3.267 0 2.494-2.126 3.867-4.466 3.867-1.082 0-2.03-.251-2.629-.58l.367-2.069c.561.329 1.296.522 2.011.522 1.353 0 2.069-.773 2.069-1.817 0-1.45-1.199-2.03-2.572-2.03H1.74V5.6h.251c1.16 0 2.32-.56 2.32-1.76 0-.908-.56-1.527-1.643-1.527-.6 0-1.315.252-1.817.542m12.42 7.501h-2.34l-.58 2.977H7.897L10.718.303h3.036l2.532 13.03h-2.455zm-2.088-1.972h1.856l-.425-2.726a99 99 0 0 1-.425-2.958h-.058c-.136.87-.33 2.223-.464 2.977zM17.717.303h6.65v2.165H20.23v2.726a4.6 4.6 0 0 1 1.025-.097c1.121 0 2.107.348 2.823.967.773.677 1.237 1.701 1.237 3.016 0 1.257-.387 2.262-1.083 2.958-.889.947-2.281 1.392-4.156 1.392-.967 0-1.779-.058-2.359-.135zm2.533 6.882v4.176c.174.039.348.039.56.039.6 0 1.083-.232 1.392-.619.329-.386.484-.928.484-1.508 0-.599-.174-1.14-.503-1.508a1.75 1.75 0 0 0-1.353-.638q-.32 0-.58.058M30.547.148c3.151 0 4.04 3.46 4.04 6.438 0 4.91-1.74 6.902-4.214 6.902-2.958 0-4.118-3.132-4.118-6.709 0-3.557 1.411-6.631 4.292-6.631m-.097 2.204c-1.005 0-1.566 1.663-1.566 4.466 0 2.958.56 4.466 1.585 4.466 1.064 0 1.47-1.933 1.47-4.582 0-2.281-.348-4.35-1.489-4.35m6.898 10.981V2.642h-2.3V.302H42.2v2.34h-2.32v10.691zm9.718-2.977h-2.34l-.58 2.977h-2.455L44.514.303h3.035l2.533 13.03h-2.456zm-2.088-1.972h1.856l-.426-2.726a99 99 0 0 1-.425-2.958h-.058c-.135.87-.328 2.223-.464 2.977zM4.775 23.148c3.152 0 4.041 3.46 4.041 6.438 0 4.91-1.74 6.902-4.215 6.902-2.958 0-4.118-3.132-4.118-6.709 0-3.557 1.412-6.631 4.292-6.631m-.096 2.204c-1.006 0-1.566 1.663-1.566 4.466 0 2.958.56 4.466 1.585 4.466 1.063 0 1.47-1.933 1.47-4.582 0-2.281-.349-4.35-1.49-4.35m17.025 10.981-.232-4.562c-.058-1.238-.155-2.92-.116-4.312h-.058a57 57 0 0 1-.831 4.002l-1.122 4.66h-1.798l-1.082-4.582c-.252-1.044-.6-2.668-.793-4.08h-.058a145 145 0 0 1-.193 4.35l-.213 4.524h-2.185l.948-13.03h2.668l1.044 4.717c.367 1.643.696 3.093.928 4.563h.038c.194-1.45.484-2.92.832-4.563l1.024-4.717h2.668l.793 13.03zm4.113-13.03h2.242v2.88c0 2.398-.154 4.64-.251 5.994h.039c.367-1.122 1.024-2.823 1.411-3.828l1.914-5.046h2.3v13.03H31.25v-2.938c0-2.61.097-4.544.155-5.858h-.039c-.29 1.179-.87 2.745-1.295 3.828l-1.914 4.968h-2.34zm9.912 0h2.474v5.664h.194l2.126-5.664h2.784l-2.996 6.032c1.334.502 1.778 1.72 2.146 3.306.29 1.256.502 2.494.89 3.692h-2.534c-.309-.928-.502-1.991-.715-3.016-.31-1.527-.657-2.513-1.701-2.513h-.194v5.53H35.73zm8.78 13.03V23.496c.714-.155 1.681-.251 2.648-.251 1.508 0 2.687.212 3.538 1.005.773.677 1.121 1.76 1.121 2.861 0 1.412-.425 2.398-1.102 3.132-.812.851-2.127 1.238-3.17 1.238h-.503v4.852zm2.532-10.942v4.021c.116.039.251.039.406.039 1.276 0 1.856-.909 1.856-2.127 0-1.14-.464-2.03-1.644-2.03-.232 0-.464.039-.618.097m9.957-2.243c3.151 0 4.04 3.46 4.04 6.438 0 4.91-1.74 6.902-4.214 6.902-2.958 0-4.118-3.132-4.118-6.709 0-3.557 1.411-6.631 4.292-6.631m-.097 2.204c-1.005 0-1.566 1.663-1.566 4.466 0 2.958.561 4.466 1.586 4.466 1.063 0 1.469-1.933 1.469-4.582 0-2.281-.348-4.35-1.489-4.35m9.25-2.513h2.224v.986c2.339.309 4.118 2.146 4.118 5.896 0 4.002-1.798 5.684-4.118 6.013v1.063h-2.243v-1.063c-2.359-.348-4.118-2.01-4.118-5.955 0-3.828 2.107-5.645 4.137-5.954zm0 11.039v-8.217c-.773.232-1.604 1.276-1.604 4.157 0 2.687.812 3.886 1.604 4.06m2.204-8.217v8.217c.85-.174 1.605-1.218 1.605-4.137 0-2.958-.87-3.906-1.605-4.08m6.109-2.358h6.786v13.03h-2.533V25.507h-1.933v3.441c0 2.997-.194 5.626-1.837 6.902-.483.387-1.102.638-1.74.638l-.541-2.146c.31-.077.638-.232.87-.464.754-.773.928-2.165.928-4.698zm12.686-.155c3.151 0 4.04 3.46 4.04 6.438 0 4.91-1.74 6.902-4.214 6.902-2.958 0-4.118-3.132-4.118-6.709 0-3.557 1.411-6.631 4.292-6.631m-.097 2.204c-1.005 0-1.566 1.663-1.566 4.466 0 2.958.56 4.466 1.585 4.466 1.064 0 1.47-1.933 1.47-4.582 0-2.281-.348-4.35-1.489-4.35m5.75 10.981V23.496c.716-.155 1.683-.251 2.65-.251 1.507 0 2.687.212 3.537 1.005.774.677 1.122 1.76 1.122 2.861 0 1.412-.426 2.398-1.102 3.132-.812.851-2.127 1.238-3.171 1.238h-.503v4.852zm2.533-10.942v4.021c.116.039.252.039.406.039 1.276 0 1.856-.909 1.856-2.127 0-1.14-.464-2.03-1.643-2.03-.232 0-.464.039-.619.097m11.814 3.112v2.108h-2.978v3.518h3.364v2.204h-5.896v-13.03h5.664v2.204h-3.132v2.996z"/></svg>