<svg xmlns="http://www.w3.org/2000/svg" fill="none" viewBox="0 0 109 37"><path fill="#fff" d="M1.121.303h7.656v13.03H6.245V2.507H3.654v10.826H1.121zm9.894 13.03V.496c.715-.155 1.682-.251 2.648-.251 1.508 0 2.688.212 3.538 1.005.774.677 1.122 1.76 1.122 2.861 0 1.412-.426 2.398-1.102 3.132-.812.851-2.127 1.238-3.171 1.238h-.503v4.852zm2.532-10.942v4.021c.116.039.252.039.406.039 1.276 0 1.856-.909 1.856-2.127 0-1.14-.464-2.03-1.643-2.03-.232 0-.464.039-.619.097M19.851.303h2.242v2.88c0 2.398-.154 4.64-.251 5.994h.039c.367-1.122 1.024-2.823 1.41-3.828L25.207.303h2.3v13.03h-2.223v-2.938c0-2.61.097-4.544.155-5.858h-.039c-.29 1.179-.87 2.745-1.295 3.828l-1.914 4.968h-2.34zm12.99 0h7.655v13.03h-2.533V2.507h-2.59v10.826H32.84zm9.892 13.03V.496c.716-.155 1.682-.251 2.649-.251 1.508 0 2.687.212 3.538 1.005.773.677 1.121 1.76 1.121 2.861 0 1.412-.425 2.398-1.102 3.132-.812.851-2.126 1.238-3.17 1.238h-.503v4.852zm2.533-10.942v4.021c.116.039.251.039.406.039 1.276 0 1.856-.909 1.856-2.127 0-1.14-.464-2.03-1.643-2.03-.232 0-.464.039-.619.097M51.569.303h2.243v2.88c0 2.398-.155 4.64-.251 5.994h.038c.368-1.122 1.025-2.823 1.412-3.828L56.925.303h2.3v13.03h-2.223v-2.938c0-2.61.097-4.544.155-5.858h-.04c-.29 1.179-.87 2.745-1.294 3.828l-1.914 4.968h-2.34zm15.422 5.2v2.108h-2.977v3.518h3.364v2.204h-5.897V.303h5.665v2.204h-3.132v2.996zm10.296 7.83-.232-4.562c-.058-1.238-.154-2.92-.116-4.312h-.058a57 57 0 0 1-.83 4.002l-1.122 4.66H73.13l-1.083-4.582c-.251-1.044-.6-2.668-.793-4.08h-.058a144 144 0 0 1-.193 4.35l-.213 4.524h-2.184l.947-13.03h2.668l1.044 4.717c.367 1.643.696 3.093.928 4.563h.039c.193-1.45.483-2.92.831-4.563L76.09.303h2.668l.792 13.03zm9.623-7.83v2.108h-2.977v3.518h3.364v2.204H81.4V.303h5.665v2.204h-3.132v2.996zM5.53 33.356H3.19l-.58 2.977H.155l2.822-13.03h3.036l2.532 13.03H6.09zM3.44 31.384h1.856l-.425-2.726a99 99 0 0 1-.425-2.958h-.058c-.136.87-.329 2.223-.464 2.977zm6.535-8.081h2.533v5.22h2.649v-5.22h2.532v13.03h-2.533v-5.452H12.51v5.452H9.976zm11.361 13.03V25.642h-2.3v-2.34h7.153v2.34h-2.32v10.691zm6.179-13.03h2.243v2.88c0 2.398-.155 4.64-.252 5.994h.039c.367-1.122 1.024-2.823 1.411-3.828l1.914-5.046h2.3v13.03H32.95v-2.938c0-2.61.096-4.544.154-5.858h-.038c-.29 1.179-.87 2.745-1.296 3.828l-1.914 4.968h-2.34zm9.912 0h6.65v2.165h-4.137v2.726a4.6 4.6 0 0 1 1.025-.097c1.121 0 2.107.348 2.823.967.773.677 1.237 1.701 1.237 3.016 0 1.257-.387 2.262-1.083 2.958-.889.947-2.281 1.392-4.156 1.392-.967 0-1.779-.058-2.359-.135zm2.533 6.882v4.176c.174.039.348.039.56.039.6 0 1.083-.232 1.392-.619.329-.386.484-.928.484-1.508 0-.599-.174-1.14-.503-1.508a1.75 1.75 0 0 0-1.353-.638q-.32 0-.58.058m6.586-6.882h2.243v2.88c0 2.398-.155 4.64-.252 5.994h.04c.366-1.122 1.024-2.823 1.41-3.828l1.914-5.046h2.301v13.03H51.98v-2.938c0-2.61.096-4.544.154-5.858h-.038c-.29 1.179-.87 2.745-1.296 3.828l-1.914 4.968h-2.339zm13.566-.155c3.152 0 4.04 3.46 4.04 6.438 0 4.91-1.74 6.902-4.214 6.902-2.958 0-4.118-3.132-4.118-6.709 0-3.557 1.412-6.631 4.292-6.631m-.096 2.204c-1.006 0-1.566 1.663-1.566 4.466 0 2.958.56 4.466 1.585 4.466 1.063 0 1.47-1.933 1.47-4.582 0-2.281-.349-4.35-1.49-4.35m6.897 10.981V25.642h-2.3v-2.34h7.153v2.34h-2.32v10.691zm6.179-13.03h2.242v2.88c0 2.398-.154 4.64-.251 5.994h.039c.367-1.122 1.024-2.823 1.411-3.828l1.914-5.046h2.3v13.03h-2.223v-2.938c0-2.61.097-4.544.155-5.858h-.039c-.29 1.179-.87 2.745-1.295 3.828l-1.914 4.968h-2.34zm9.912 0h2.475v5.664h.193l2.126-5.664h2.784l-2.996 6.032c1.334.502 1.778 1.72 2.146 3.306.29 1.256.502 2.494.89 3.692h-2.534c-.309-.928-.502-1.991-.715-3.016-.31-1.527-.657-2.513-1.701-2.513h-.194v5.53h-2.474zm12.244-.155c3.152 0 4.041 3.46 4.041 6.438 0 4.91-1.74 6.902-4.215 6.902-2.958 0-4.118-3.132-4.118-6.709 0-3.557 1.412-6.631 4.292-6.631m-.096 2.204c-1.006 0-1.566 1.663-1.566 4.466 0 2.958.56 4.466 1.585 4.466 1.063 0 1.47-1.933 1.47-4.582 0-2.281-.349-4.35-1.49-4.35m5.75 10.943V23.496c.774-.174 1.779-.251 2.881-.251 1.218 0 2.397.154 3.306.928.696.58.986 1.45.986 2.358 0 1.16-.599 2.282-1.895 2.842v.078c1.508.425 2.32 1.682 2.32 3.112 0 1.083-.348 1.914-.966 2.552-.774.851-2.088 1.315-4.273 1.315-.967 0-1.779-.058-2.359-.135m2.533-11.078v3.441h.541c.909 0 1.605-.773 1.605-1.837 0-.947-.445-1.682-1.489-1.682-.27 0-.502.02-.657.078m0 5.316v3.906c.155.038.329.038.561.038 1.024 0 1.875-.618 1.875-1.952 0-1.296-.889-1.972-1.895-1.992z"/></svg>